<svg id="vector" xmlns="http://www.w3.org/2000/svg" width="75" height="67" viewBox="0 0 83 73"><path fill="#000001" d="M57.41,44.277c-0.033,1.058 -0.201,2.016 -0.509,2.872c-0.349,0.544 -0.605,0.817 -0.768,0.817c-0.18,0.012 -0.258,-0.268 -0.246,-0.834c-0.274,-6.137 -0.661,-11.411 -1.148,-15.829c-0.229,-2.178 -0.543,-3.965 -0.936,-5.364c-0.168,-0.538 -0.257,-1.036 -0.279,-1.495c-0.011,-0.851 0.117,-1.836 0.393,-2.951l0.772,-2.855c0.095,-0.089 0.201,-0.135 0.308,-0.135c0.135,0 0.229,0.186 0.28,0.561c0.044,0.509 0.106,0.817 0.189,0.924c0.084,0.105 0.382,0.985 0.896,2.648c0.325,1.08 0.728,1.932 1.198,2.559c0.028,0.207 0.045,0.409 0.045,0.604c0.021,0.415 -0.09,0.985 -0.336,1.714c-0.247,0.728 -0.409,1.232 -0.499,1.518l-0.117,0.493L57.41,44.277z" id="path_0"/><path fill="#000001" d="M51.229,58.014l1.019,-3.034l9.89,-4.346c0.135,-0.033 0.195,-0.017 0.195,0.045c0,0.033 -0.017,0.117 -0.05,0.247l-1.327,3.151l-9.497,4.25c-0.123,0.012 -0.196,0.012 -0.229,0C51.184,58.261 51.184,58.153 51.229,58.014z" id="path_1"/><path fill="#008046" d="M21.312,44.697c1.014,0.027 2.346,-0.034 3.986,-0.202c1.859,-0.195 3.169,-0.291 3.936,-0.291c0.23,0 0.521,-0.178 0.868,-0.526c0.297,-0.699 0.588,-1.389 0.886,-2.071c0.341,-0.796 0.509,-1.534 0.509,-2.212c0.067,-1.842 0.056,-4.34 -0.034,-7.503c-0.089,-3.763 -0.134,-6.271 -0.134,-7.52c0,-1.059 0.012,-2.066 0.034,-3.019c0.297,-1.041 0.812,-2.587 1.556,-4.631l0.359,0.297c0.033,0.129 0.146,0.963 0.347,2.509c0.129,0.985 0.354,1.775 0.672,2.38l-0.135,0.044c0.712,0.88 1.07,1.534 1.07,1.972c0,0.229 -0.085,0.526 -0.246,0.885c-0.264,0.481 -0.415,0.772 -0.443,0.868l-1.265,1.97c0,1.977 0,5.163 0,9.559c0,0.034 -0.057,0.18 -0.163,0.432c-0.033,0.162 -0.017,0.308 0.051,0.441c2.077,-3.152 4.832,-4.725 8.264,-4.725c0.438,0 0.88,0.032 1.328,0.1c2.475,0.633 4.199,1.938 5.186,3.908c-0.303,5.163 -2.017,8.193 -5.135,9.105c-4.514,1.315 -8.136,1.971 -10.863,1.971c-2.083,0 -3.941,-0.342 -5.583,-1.02c-1.31,-0.325 -3.208,-1.019 -5.694,-2.065C20.667,45.218 20.885,45 21.312,44.697L21.312,44.697zM40.254,37.838c-0.264,-0.033 -0.549,-0.05 -0.856,-0.05c-1.703,0 -3.343,0.627 -4.917,1.881c-1.383,1.098 -2.514,2.525 -3.398,4.289c2.329,-0.067 5.499,-0.393 9.497,-0.969c0.33,-0.134 1.231,-0.387 2.709,-0.756c1.115,-0.296 1.988,-0.615 2.627,-0.969v-0.594C44.296,38.975 42.41,38.028 40.254,37.838z" id="path_2"/><path fill="#0992d1" d="M37.179,22.345c1.227,-0.633 3.063,-1.573 5.509,-2.822c0.213,-0.252 0.314,-0.375 0.314,-0.375c-0.555,-0.666 -1.395,-1.02 -2.509,-1.053c-0.963,-0.033 -1.92,-0.051 -2.872,-0.051c0.655,-1.59 1.338,-2.699 2.038,-3.32c2.088,-0.173 3.752,0.034 5,0.621c0.526,0.628 0.644,1.237 0.364,1.837c-0.112,0.387 -0.443,1.115 -0.986,2.195c-0.526,0.868 -1.108,1.579 -1.758,2.134c-0.644,0.56 -1.5,0.946 -2.575,1.164c-1.871,0.297 -2.812,0.442 -2.822,0.442c-0.252,0 -0.375,-0.05 -0.375,-0.146C36.507,22.675 36.73,22.468 37.179,22.345z" id="path_3"/></svg>