<svg id="vector" xmlns="http://www.w3.org/2000/svg" width="75" height="67" viewBox="0 0 83 73"><path fill="#DD2C00" d="M66.961,50.455c-0.033,1.074 -0.207,2.031 -0.525,2.889c-0.342,0.564 -0.594,0.862 -0.756,0.884c-0.186,0 -0.27,-0.308 -0.246,-0.918c-0.287,-6.137 -0.639,-10.426 -1.064,-12.867c-0.229,-2.188 -0.543,-3.981 -0.936,-5.37c-0.145,-0.543 -0.223,-1.046 -0.246,-1.506c-0.033,-0.856 0.09,-1.842 0.375,-2.957l0.756,-2.855c0.102,-0.089 0.207,-0.135 0.33,-0.135c0.129,0 0.219,0.191 0.258,0.578c0.057,0.497 0.123,0.806 0.207,0.918c0.084,0.105 0.375,0.985 0.879,2.637c0.326,1.087 0.734,1.938 1.217,2.56c0.027,0.218 0.049,0.425 0.061,0.627c0,0.403 -0.117,0.968 -0.354,1.702c-0.234,0.733 -0.396,1.238 -0.498,1.512l-0.127,0.492L66.961,50.455z" id="path_0"/><path fill="#DD2C00" d="M60.635,21.543l-0.672,0.051l-0.102,-0.162c2.268,-1.203 4.02,-2.335 5.27,-3.399c-0.426,-0.15 -0.711,-0.308 -0.857,-0.476c-0.426,-0.291 -0.639,-0.789 -0.639,-1.489c-0.033,-1.434 0.477,-2.498 1.529,-3.197c0.336,-0.286 0.896,-0.353 1.674,-0.202c0.801,0.442 1.199,0.969 1.199,1.596c0.219,2.353 -1.316,4.458 -4.598,6.328C62.404,21.063 61.469,21.382 60.635,21.543L60.635,21.543zM66.715,16.263c0.314,-0.117 0.477,-0.329 0.477,-0.621c0,-0.492 -0.225,-0.856 -0.672,-1.087c-0.443,-0.173 -0.924,-0.179 -1.445,-0.016c-0.363,0.263 -0.553,0.498 -0.576,0.706c-0.033,0.251 0.135,0.581 0.492,0.984c0.33,0.135 0.594,0.196 0.789,0.196C66.031,16.493 66.34,16.437 66.715,16.263z" id="path_1"/><path fill="#008046" d="M19.406,39.524c0.033,0.062 0.061,0.162 0.094,0.291c-0.285,0.447 -0.688,1.126 -1.215,2.021c-0.951,1.473 -1.521,2.95 -1.719,4.429c-0.195,1.563 0.027,2.906 0.672,4.032c1.16,2.329 3.035,3.886 5.629,4.664c1.803,0.521 4.227,0.638 7.268,0.341c4.361,-1.215 7.01,-3.046 7.939,-5.498c-0.068,-1.72 -0.438,-3.315 -1.104,-4.793c-0.264,-0.61 -0.666,-1.512 -1.209,-2.704c-0.068,-0.952 0.012,-2.336 0.24,-4.139c0.191,-0.033 0.365,0.017 0.527,0.146c0.504,0.398 1.26,0.969 2.262,1.725c0.867,0.561 1.775,0.908 2.727,1.054c0.975,-1.652 1.943,-3.315 2.9,-4.989c1.35,-1.927 2.9,-3.041 4.66,-3.332c0.604,-0.207 1.242,-0.313 1.92,-0.313c1.512,0 3.033,0.426 4.58,1.276c1.438,1.411 2.16,2.599 2.16,3.562c0,0.162 -0.016,0.342 -0.049,0.537c-0.258,2.906 -1.4,5.067 -3.428,6.474c-3.063,1.572 -6.119,2.362 -9.172,2.362c-1.988,0 -3.785,-0.369 -5.393,-1.114c-0.34,-0.067 -0.508,0.017 -0.508,0.246c0.072,0.577 0.111,1.137 0.111,1.674c0,1.54 -0.279,3.068 -0.852,4.581c-0.951,2.447 -2.576,4.457 -4.871,6.014c-2.297,1.563 -4.777,2.341 -7.43,2.341c-2.729,0 -5.096,-0.801 -7.123,-2.408c-2.723,-2.162 -4.082,-5.274 -4.082,-9.346c0,-1.69 0.291,-3.264 0.869,-4.703c1.051,-1.982 2.121,-3.443 3.213,-4.385C19.244,39.541 19.373,39.524 19.406,39.524L19.406,39.524zM50.129,36.987c-0.34,-0.034 -0.654,-0.05 -0.951,-0.05c-2.25,0 -4.256,1.444 -6.002,4.333c0.598,0.264 1.092,0.375 1.473,0.343c0.637,0.032 1.248,0.05 1.842,0.05c3.605,0 6.617,-0.756 9.037,-2.262c-0.195,-0.471 -0.555,-0.874 -1.068,-1.199c-0.197,-0.134 -0.678,-0.403 -1.439,-0.822C51.865,36.977 50.908,36.848 50.129,36.987z" id="path_2"/><path fill="#008046" d="M38.992,28.605c1.227,-0.632 3.063,-1.573 5.51,-2.822c0.213,-0.252 0.314,-0.375 0.314,-0.375c-0.555,-0.666 -1.395,-1.02 -2.51,-1.053c-0.963,-0.033 -1.92,-0.051 -2.871,-0.051c0.654,-1.59 1.338,-2.698 2.037,-3.319c2.09,-0.174 3.752,0.033 5,0.621c0.527,0.627 0.645,1.236 0.365,1.837c-0.113,0.386 -0.443,1.113 -0.986,2.194c-0.525,0.868 -1.109,1.579 -1.758,2.134c-0.645,0.56 -1.502,0.946 -2.576,1.164c-1.869,0.297 -2.811,0.442 -2.822,0.442c-0.252,0 -0.375,-0.05 -0.375,-0.146C38.32,28.936 38.545,28.729 38.992,28.605z" id="path_3"/></svg>