<svg id="vector" xmlns="http://www.w3.org/2000/svg" width="75" height="67" viewBox="0 0 83 73"><path fill="#213e95" d="M63.027,50.604c-0.034,1.075 -0.207,2.032 -0.526,2.889c-0.343,0.566 -0.595,0.862 -0.756,0.885c-0.186,0 -0.27,-0.308 -0.247,-0.919c-0.286,-6.137 -0.639,-10.426 -1.063,-12.867c-0.229,-2.188 -0.543,-3.98 -0.936,-5.369c-0.146,-0.543 -0.224,-1.047 -0.246,-1.506c-0.034,-0.857 0.09,-1.843 0.375,-2.957l0.756,-2.855c0.101,-0.09 0.208,-0.135 0.33,-0.135c0.129,0 0.219,0.19 0.258,0.577c0.056,0.498 0.123,0.806 0.207,0.918c0.085,0.106 0.375,0.985 0.879,2.638c0.325,1.086 0.734,1.937 1.216,2.559c0.027,0.219 0.05,0.426 0.062,0.627c0,0.404 -0.118,0.969 -0.354,1.703c-0.235,0.732 -0.396,1.237 -0.498,1.512l-0.128,0.493L63.027,50.604z" id="path_0"/><path fill="#213e95" d="M55.726,20.777l1.019,-3.034l9.889,-4.345c0.135,-0.034 0.195,-0.017 0.195,0.05c0,0.034 -0.017,0.112 -0.05,0.247l-1.327,3.146l-9.496,4.25c-0.123,0.011 -0.196,0.011 -0.229,0C55.681,21.024 55.681,20.924 55.726,20.777z" id="path_1"/><path fill="#DD2C00" d="M19.996,38.659c0.263,-0.173 0.397,-0.14 0.397,0.102c-0.298,0.644 -0.729,1.624 -1.299,2.934c-0.874,2.24 -1.311,4.133 -1.311,5.678c0,1.887 0.622,3.398 1.869,4.524c2.218,2.055 4.806,3.086 7.762,3.086c1.182,0 2.352,-0.18 3.511,-0.543c3.203,-1.048 5.543,-2.52 7.021,-4.425c0.437,-0.61 0.654,-1.299 0.654,-2.066c0,-0.884 -0.425,-2.228 -1.281,-4.03c-0.733,-0.61 -1.098,-1.574 -1.098,-2.885c0,-0.297 0.017,-0.738 0.051,-1.332c0.033,-0.588 0.05,-1.02 0.05,-1.287c0,-0.264 0.067,-0.656 0.213,-1.171c0.162,-0.034 0.258,0.027 0.291,0.189c0.034,0.157 0.067,0.253 0.101,0.287c0.745,1.181 1.971,1.953 3.69,2.313c2.156,0.128 3.763,-0.544 4.821,-2.017c0.319,-1.248 0.66,-2.229 1.019,-2.939c0.404,0.066 0.605,0.291 0.605,0.672c-0.028,0.638 -0.045,0.935 -0.045,0.907c0.425,1.607 1.198,2.581 2.312,2.934c1.148,0.325 2.077,0.218 2.789,-0.33c0.067,-0.129 0.028,-0.269 -0.117,-0.414c-0.141,-0.151 -0.196,-0.258 -0.162,-0.325l0.212,-4.361c0.241,-0.151 0.393,-0.213 0.459,-0.18c0.7,0.667 1.108,1.624 1.232,2.873c0.012,3.661 -0.532,6.053 -1.624,7.167c-0.823,0.297 -1.557,0.442 -2.2,0.442c-0.829,0 -1.585,-0.247 -2.263,-0.739c-0.896,-0.678 -1.428,-1.736 -1.59,-3.181c-0.319,0.291 -0.594,0.718 -0.823,1.26c-0.324,0.667 -0.56,1.098 -0.705,1.3c-1.137,1.181 -2.426,1.769 -3.87,1.769c-0.375,0 -0.738,-0.056 -1.097,-0.161c-0.034,0.335 -0.096,1.517 -0.186,3.543c-0.028,1.507 -0.263,2.66 -0.688,3.461c-1.147,2.688 -2.85,4.681 -5.117,5.969c-2.263,1.294 -4.608,1.938 -7.039,1.938c-3.616,0 -6.389,-1.366 -8.314,-4.093c-1.372,-1.972 -2.055,-4.268 -2.055,-6.894c0,-1.674 0.419,-3.634 1.253,-5.891c0.337,-0.7 0.706,-1.444 1.115,-2.245C18.943,39.701 19.43,39.085 19.996,38.659z" id="path_2"/><path fill="#DD2C00" d="M40.051,27c1.227,-0.632 3.063,-1.573 5.511,-2.822c0.213,-0.252 0.313,-0.375 0.313,-0.375c-0.554,-0.666 -1.394,-1.019 -2.509,-1.052c-0.962,-0.034 -1.92,-0.051 -2.871,-0.051c0.654,-1.591 1.338,-2.698 2.038,-3.32c2.088,-0.174 3.751,0.033 5,0.622c0.526,0.626 0.644,1.236 0.363,1.836c-0.111,0.387 -0.441,1.114 -0.985,2.195c-0.526,0.868 -1.108,1.578 -1.758,2.133c-0.645,0.56 -1.501,0.946 -2.576,1.165c-1.87,0.296 -2.811,0.441 -2.822,0.441c-0.252,0 -0.375,-0.05 -0.375,-0.146C39.379,27.331 39.603,27.124 40.051,27z" id="path_3"/></svg>