<svg id="vector" xmlns="http://www.w3.org/2000/svg" width="75" height="67" viewBox="0 0 83 73"><path fill="#DD2C00" d="M57.178,49.279c-0.033,1.076 -0.207,2.033 -0.525,2.891c-0.342,0.564 -0.594,0.862 -0.756,0.885c-0.186,0 -0.27,-0.308 -0.246,-0.918C55.364,46 55.011,41.71 54.585,39.27c-0.229,-2.189 -0.543,-3.981 -0.935,-5.371c-0.146,-0.542 -0.225,-1.046 -0.246,-1.505c-0.034,-0.857 0.089,-1.842 0.375,-2.957l0.756,-2.856c0.101,-0.089 0.207,-0.134 0.33,-0.134c0.129,0 0.219,0.19 0.258,0.577c0.057,0.498 0.123,0.806 0.207,0.918c0.084,0.106 0.375,0.985 0.879,2.637c0.325,1.086 0.732,1.937 1.215,2.559c0.028,0.219 0.051,0.426 0.063,0.627c0,0.403 -0.117,0.969 -0.354,1.703c-0.234,0.733 -0.396,1.237 -0.498,1.511l-0.129,0.494L57.178,49.279z" id="path_0"/><path fill="#DD2C00" d="M49.876,19.456l1.021,-3.035l9.889,-4.346c0.134,-0.033 0.195,-0.016 0.195,0.051c0,0.033 -0.018,0.112 -0.051,0.247l-1.326,3.147l-9.498,4.25c-0.123,0.011 -0.194,0.011 -0.229,0C49.831,19.702 49.831,19.601 49.876,19.456z" id="path_1"/><path fill="#008046" d="M22.434,45.416c1.104,-4.586 3.383,-7.93 6.837,-10.028c0.409,-0.325 1.036,-0.767 1.887,-1.327c-0.335,-0.185 -0.801,-0.292 -1.394,-0.325c-0.588,-0.034 -1.165,-0.062 -1.72,-0.084c-0.845,0.022 -1.69,0.033 -2.547,0.033c-0.919,0.151 -1.552,0.61 -1.898,1.378c-0.18,0.644 -0.47,1.069 -0.89,1.265c0.033,-1.411 0.548,-3.051 1.545,-4.922c0.7,-1.327 2.032,-1.988 4.004,-1.988c0.29,0 0.789,0.012 1.489,0.034c0.699,0.022 1.22,0.034 1.562,0.034c3.511,0.392 6.58,0.37 9.217,-0.067c0.218,0.023 0.543,-0.005 0.975,-0.084c0.437,-0.078 0.744,-0.117 0.929,-0.117c0.416,0 0.758,0.112 1.021,0.33c-0.168,0.302 -0.37,0.778 -0.61,1.422c-0.174,0.442 -0.357,0.896 -0.549,1.372c-0.189,0.477 -0.465,0.84 -0.828,1.092c-1.182,0.118 -3.69,0.778 -7.531,1.971c-2.755,1.17 -4.922,2.582 -6.496,4.234c-2.217,2.172 -3.415,4.551 -3.589,7.133c-0.274,1.468 0.124,2.879 1.193,4.233c0.845,1.216 1.954,2.224 3.331,3.019c2.812,1.764 6.77,2.643 11.876,2.643c1.523,0 3.892,-0.331 7.106,-0.984c0.129,0.033 0.323,0.004 0.588,-0.091c0.263,-0.095 0.437,-0.14 0.525,-0.14c0.174,0 0.279,0.162 0.313,0.492c0.063,0.197 -0.156,0.492 -0.654,0.885c-2.564,1.439 -4.475,2.402 -5.745,2.895c-2.217,0.885 -4.34,1.288 -6.366,1.211c-2.985,-0.129 -5.572,-0.679 -7.755,-1.642c-2.005,-0.851 -3.399,-1.981 -4.184,-3.394c-1.338,-2.278 -2.021,-4.338 -2.055,-6.188c0,-0.347 0.028,-1.372 0.084,-3.068C22.159,46.367 22.266,45.958 22.434,45.416z" id="path_2"/><path fill="#008046" d="M28.447,18.011c1.227,-0.632 3.063,-1.573 5.51,-2.822c0.213,-0.251 0.313,-0.375 0.313,-0.375c-0.555,-0.667 -1.395,-1.019 -2.509,-1.053c-0.963,-0.033 -1.92,-0.05 -2.872,-0.05c0.655,-1.591 1.338,-2.699 2.038,-3.321c2.089,-0.173 3.751,0.033 5,0.622c0.526,0.627 0.645,1.237 0.363,1.836c-0.111,0.386 -0.441,1.114 -0.984,2.195c-0.526,0.868 -1.109,1.579 -1.759,2.133c-0.644,0.56 -1.5,0.946 -2.575,1.165c-1.87,0.297 -2.812,0.442 -2.822,0.442c-0.252,0 -0.375,-0.05 -0.375,-0.145C27.775,18.342 27.999,18.134 28.447,18.011z" id="path_3"/><path fill="#008046" d="M30.088,24.614v-0.162c0.549,-0.767 1.333,-1.809 2.363,-3.136h0.112c0.834,0.896 1.875,1.708 3.135,2.43c0.033,0.034 0.051,0.073 0.051,0.129l-2.279,3.085c-0.022,0.011 -0.062,0.017 -0.117,0.017c-0.067,0 -0.18,-0.028 -0.342,-0.084C32.221,26.535 31.247,25.772 30.088,24.614z" id="path_4"/></svg>