<svg id="vector" xmlns="http://www.w3.org/2000/svg" width="75" height="67" viewBox="0 0 83 73"><path fill="#DD2C00" d="M59.944,42.91c-0.033,1.076 -0.207,2.033 -0.526,2.89c-0.342,0.565 -0.594,0.862 -0.756,0.884c-0.185,0 -0.27,-0.308 -0.246,-0.919c-0.285,-6.137 -0.639,-10.426 -1.064,-12.867c-0.229,-2.189 -0.543,-3.981 -0.935,-5.37c-0.146,-0.543 -0.225,-1.047 -0.247,-1.506c-0.033,-0.857 0.09,-1.843 0.375,-2.957l0.757,-2.855c0.101,-0.09 0.207,-0.135 0.33,-0.135c0.129,0 0.218,0.19 0.258,0.577c0.056,0.498 0.122,0.806 0.207,0.918c0.084,0.106 0.375,0.985 0.879,2.637c0.325,1.086 0.733,1.938 1.215,2.559c0.029,0.218 0.051,0.426 0.062,0.627c0,0.403 -0.117,0.969 -0.352,1.702c-0.236,0.733 -0.398,1.238 -0.499,1.512l-0.129,0.493L59.944,42.91z" id="path_0"/><path fill="#DD2C00" d="M52.643,57.343l1.019,-3.035l9.89,-4.345c0.134,-0.034 0.196,-0.017 0.196,0.05c0,0.034 -0.017,0.112 -0.051,0.246l-1.327,3.147l-9.497,4.25c-0.123,0.011 -0.195,0.011 -0.229,0C52.598,57.589 52.598,57.489 52.643,57.343z" id="path_1"/><path fill="#0992d1" d="M32.501,54.956v-0.163c0.549,-0.767 1.333,-1.809 2.363,-3.136h0.112c0.834,0.896 1.875,1.708 3.136,2.43c0.033,0.034 0.05,0.074 0.05,0.129l-2.278,3.086c-0.023,0.011 -0.062,0.017 -0.118,0.017c-0.067,0 -0.179,-0.028 -0.341,-0.084C34.635,56.876 33.66,56.115 32.501,54.956z" id="path_2"/><path fill="#0992d1" d="M50.1,45.185c-1.764,1.125 -4.042,2.038 -6.842,2.738c-4.268,0.963 -7.885,1.433 -10.852,1.417c-2.968,-0.017 -5.275,-0.302 -6.916,-0.862c-1.64,-0.555 -3.08,-1.524 -4.312,-2.901c-1.063,-1.215 -1.686,-2.626 -1.87,-4.233c-0.241,-2.262 0.309,-4.704 1.657,-7.318c0.14,-0.129 0.281,-0.286 0.426,-0.465c0.141,-0.179 0.303,-0.258 0.476,-0.224l-0.016,0.397c-0.746,1.596 -1.148,3.018 -1.216,4.262c-0.034,0.437 -0.034,0.739 0,0.901c0.46,2.1 2.05,3.578 4.776,4.435c1.528,0.521 3.13,0.846 4.805,0.963c0.263,0.011 0.672,0.045 1.231,0.1c3.421,0.012 7.571,-0.392 12.447,-1.214c2.823,-0.526 4.833,-1.238 6.026,-2.134c-0.079,-0.358 -0.348,-0.767 -0.808,-1.221c-0.459,-0.454 -0.738,-0.862 -0.834,-1.22c-0.066,-1.445 0.018,-2.923 0.246,-4.429l0.196,-0.017c1.519,1.713 2.363,3.539 2.525,5.46C51.444,41.864 51.063,43.718 50.1,45.185z" id="path_3"/><path fill="#0992d1" d="M32.81,35.403c1.226,-0.633 3.063,-1.574 5.509,-2.823c0.213,-0.251 0.314,-0.375 0.314,-0.375c-0.555,-0.667 -1.395,-1.019 -2.509,-1.053c-0.964,-0.034 -1.92,-0.05 -2.873,-0.05c0.656,-1.59 1.339,-2.699 2.039,-3.321c2.088,-0.173 3.752,0.033 4.999,0.622c0.526,0.627 0.645,1.238 0.365,1.837c-0.112,0.386 -0.443,1.114 -0.986,2.195c-0.526,0.868 -1.108,1.579 -1.758,2.133c-0.644,0.561 -1.501,0.947 -2.575,1.165c-1.871,0.296 -2.812,0.442 -2.822,0.442c-0.252,0 -0.375,-0.05 -0.375,-0.146C32.138,35.733 32.361,35.525 32.81,35.403z" id="path_4"/></svg>