<svg id="vector" xmlns="http://www.w3.org/2000/svg" width="75" height="67" viewBox="0 0 83 73"><path fill="#000001" d="M64.379,50.914c-0.031,1.075 -0.205,2.032 -0.525,2.89c-0.342,0.565 -0.594,0.862 -0.756,0.884c-0.184,0 -0.268,-0.308 -0.246,-0.918c-0.285,-6.137 -0.639,-10.426 -1.064,-12.867c-0.229,-2.189 -0.543,-3.981 -0.936,-5.37c-0.145,-0.543 -0.223,-1.046 -0.244,-1.506c-0.035,-0.856 0.088,-1.842 0.375,-2.957l0.756,-2.854c0.1,-0.09 0.205,-0.136 0.33,-0.136c0.129,0 0.219,0.191 0.256,0.578c0.057,0.497 0.125,0.806 0.209,0.918c0.082,0.105 0.375,0.985 0.879,2.637c0.324,1.087 0.732,1.938 1.215,2.56c0.027,0.218 0.051,0.426 0.061,0.627c0,0.403 -0.117,0.968 -0.352,1.702c-0.236,0.733 -0.398,1.237 -0.498,1.512l-0.129,0.493L64.379,50.914z" id="path_0"/><path fill="#000001" d="M58.053,22.023l-0.672,0.052l-0.102,-0.163c2.268,-1.204 4.021,-2.335 5.27,-3.398c-0.426,-0.151 -0.711,-0.309 -0.857,-0.477c-0.424,-0.291 -0.637,-0.79 -0.637,-1.489c-0.035,-1.434 0.477,-2.497 1.529,-3.197c0.334,-0.285 0.895,-0.353 1.674,-0.201c0.801,0.442 1.197,0.968 1.197,1.596c0.219,2.352 -1.314,4.457 -4.598,6.327C59.822,21.543 58.887,21.861 58.053,22.023L58.053,22.023zM64.135,16.744c0.313,-0.117 0.475,-0.331 0.475,-0.622c0,-0.492 -0.225,-0.856 -0.672,-1.086c-0.441,-0.173 -0.924,-0.179 -1.445,-0.017c-0.363,0.263 -0.553,0.498 -0.576,0.705c-0.033,0.252 0.135,0.583 0.492,0.985c0.332,0.135 0.594,0.196 0.791,0.196C63.451,16.974 63.76,16.918 64.135,16.744z" id="path_1"/><path fill="#DD2C00" d="M21.348,38.97c0.266,-0.172 0.398,-0.14 0.398,0.102c-0.297,0.645 -0.727,1.624 -1.299,2.935c-0.873,2.24 -1.311,4.132 -1.311,5.678c0,1.887 0.623,3.398 1.871,4.524c2.217,2.055 4.805,3.086 7.762,3.086c1.18,0 2.35,-0.181 3.51,-0.544c3.203,-1.048 5.543,-2.521 7.021,-4.424c0.438,-0.61 0.654,-1.299 0.654,-2.066c0,-0.884 -0.426,-2.229 -1.281,-4.031c-0.734,-0.61 -1.098,-1.573 -1.098,-2.884c0,-0.297 0.018,-0.739 0.051,-1.332c0.033,-0.589 0.051,-1.02 0.051,-1.288c0,-0.264 0.066,-0.655 0.213,-1.171c0.162,-0.033 0.256,0.028 0.291,0.19c0.033,0.157 0.066,0.252 0.1,0.286c0.746,1.181 1.971,1.954 3.691,2.312c2.154,0.13 3.762,-0.542 4.82,-2.015c0.32,-1.249 0.66,-2.229 1.018,-2.94c0.404,0.067 0.607,0.291 0.607,0.672c-0.029,0.639 -0.047,0.936 -0.047,0.907c0.426,1.607 1.199,2.582 2.313,2.934c1.148,0.325 2.078,0.219 2.789,-0.33c0.068,-0.129 0.027,-0.269 -0.117,-0.414c-0.141,-0.151 -0.195,-0.258 -0.162,-0.325l0.213,-4.361c0.24,-0.151 0.391,-0.213 0.459,-0.18c0.699,0.667 1.107,1.624 1.23,2.873c0.012,3.662 -0.531,6.053 -1.623,7.167c-0.824,0.297 -1.557,0.442 -2.201,0.442c-0.828,0 -1.584,-0.246 -2.262,-0.739c-0.896,-0.678 -1.428,-1.735 -1.59,-3.18c-0.318,0.291 -0.594,0.716 -0.824,1.259c-0.324,0.667 -0.559,1.098 -0.705,1.299c-1.137,1.183 -2.424,1.77 -3.869,1.77c-0.375,0 -0.738,-0.056 -1.098,-0.161c-0.033,0.335 -0.096,1.518 -0.184,3.544c-0.029,1.507 -0.264,2.66 -0.689,3.46c-1.146,2.688 -2.85,4.682 -5.117,5.969c-2.262,1.295 -4.609,1.938 -7.039,1.938c-3.617,0 -6.389,-1.366 -8.314,-4.093c-1.373,-1.972 -2.055,-4.267 -2.055,-6.894c0,-1.674 0.42,-3.633 1.254,-5.89c0.336,-0.7 0.705,-1.444 1.113,-2.246C20.297,40.013 20.783,39.396 21.348,38.97z" id="path_2"/><path fill="#DD2C00" d="M41.404,27.311c1.227,-0.632 3.063,-1.572 5.51,-2.821c0.213,-0.252 0.314,-0.375 0.314,-0.375c-0.555,-0.666 -1.395,-1.02 -2.51,-1.053c-0.963,-0.034 -1.92,-0.051 -2.871,-0.051c0.654,-1.59 1.338,-2.698 2.037,-3.319c2.088,-0.174 3.752,0.032 5,0.621c0.527,0.626 0.645,1.236 0.365,1.837c-0.113,0.386 -0.443,1.113 -0.986,2.194c-0.527,0.868 -1.107,1.578 -1.758,2.133c-0.645,0.561 -1.5,0.947 -2.576,1.165c-1.871,0.297 -2.811,0.442 -2.822,0.442c-0.252,0 -0.375,-0.05 -0.375,-0.146C40.732,27.642 40.957,27.435 41.404,27.311z" id="path_3"/></svg>