<svg id="vector" xmlns="http://www.w3.org/2000/svg" width="75" height="67" viewBox="0 0 83 73"><path fill="#DD2C00" d="M59.944,48.774c-0.033,1.075 -0.207,2.033 -0.526,2.89c-0.342,0.566 -0.593,0.862 -0.756,0.885c-0.185,0 -0.269,-0.308 -0.246,-0.918c-0.285,-6.137 -0.639,-10.426 -1.063,-12.868c-0.229,-2.189 -0.544,-3.981 -0.936,-5.37c-0.146,-0.543 -0.224,-1.048 -0.247,-1.507c-0.033,-0.856 0.09,-1.842 0.375,-2.957l0.756,-2.855c0.102,-0.09 0.208,-0.135 0.331,-0.135c0.129,0 0.219,0.19 0.258,0.577c0.056,0.498 0.123,0.806 0.207,0.918c0.084,0.107 0.375,0.986 0.879,2.638c0.324,1.086 0.733,1.938 1.216,2.559c0.027,0.218 0.05,0.426 0.062,0.627c0,0.402 -0.118,0.968 -0.353,1.702c-0.235,0.733 -0.398,1.238 -0.499,1.512l-0.129,0.492L59.944,48.774z" id="path_0"/><path fill="#DD2C00" d="M52.643,19.584l1.02,-3.035l9.889,-4.345c0.135,-0.033 0.195,-0.017 0.195,0.051c0,0.033 -0.016,0.112 -0.05,0.246l-1.328,3.147l-9.496,4.25c-0.123,0.012 -0.195,0.012 -0.229,0C52.599,19.831 52.599,19.729 52.643,19.584z" id="path_1"/><path fill="#0992d1" d="M32.502,58.45v-0.163c0.549,-0.767 1.332,-1.809 2.362,-3.135h0.111c0.836,0.896 1.876,1.708 3.137,2.43c0.033,0.033 0.05,0.073 0.05,0.129l-2.278,3.085c-0.022,0.011 -0.063,0.017 -0.118,0.017c-0.066,0 -0.179,-0.028 -0.341,-0.084C34.635,60.371 33.66,59.609 32.502,58.45z" id="path_2"/><path fill="#0992d1" d="M50.101,48.679c-1.764,1.125 -4.043,2.039 -6.843,2.738c-4.267,0.963 -7.884,1.434 -10.852,1.417s-5.274,-0.303 -6.916,-0.862c-1.64,-0.555 -3.079,-1.523 -4.312,-2.901c-1.063,-1.215 -1.686,-2.626 -1.869,-4.233c-0.241,-2.262 0.308,-4.704 1.656,-7.319c0.141,-0.128 0.28,-0.286 0.427,-0.465c0.14,-0.179 0.302,-0.258 0.475,-0.224l-0.016,0.398c-0.745,1.595 -1.148,3.018 -1.216,4.261c-0.033,0.437 -0.033,0.739 0,0.901c0.459,2.1 2.05,3.578 4.776,4.435c1.528,0.521 3.13,0.846 4.805,0.963c0.263,0.011 0.672,0.045 1.231,0.101c3.422,0.012 7.571,-0.392 12.448,-1.215c2.821,-0.526 4.832,-1.237 6.025,-2.134c-0.079,-0.358 -0.348,-0.767 -0.807,-1.221c-0.459,-0.453 -0.739,-0.862 -0.835,-1.22c-0.066,-1.445 0.018,-2.923 0.247,-4.429l0.195,-0.017c1.519,1.713 2.363,3.539 2.525,5.459C51.444,45.358 51.063,47.212 50.101,48.679z" id="path_3"/><path fill="#0992d1" d="M32.81,38.897c1.227,-0.633 3.063,-1.574 5.51,-2.823c0.213,-0.251 0.313,-0.375 0.313,-0.375c-0.555,-0.667 -1.395,-1.02 -2.509,-1.053c-0.963,-0.034 -1.92,-0.05 -2.873,-0.05c0.655,-1.59 1.339,-2.699 2.038,-3.321c2.089,-0.173 3.753,0.034 5.001,0.622c0.526,0.627 0.645,1.237 0.363,1.836c-0.111,0.386 -0.441,1.114 -0.985,2.195c-0.526,0.867 -1.107,1.579 -1.758,2.133c-0.644,0.561 -1.501,0.947 -2.575,1.165c-1.871,0.296 -2.812,0.442 -2.822,0.442c-0.252,0 -0.375,-0.05 -0.375,-0.146C32.138,39.227 32.361,39.02 32.81,38.897z" id="path_4"/></svg>