<svg id="vector" xmlns="http://www.w3.org/2000/svg" width="75" height="67" viewBox="0 0 83 73"><path fill="#000001" d="M27.296,51.379c-0.918,0.033 -1.714,0.128 -2.38,0.279c-0.151,-0.117 -0.229,-0.285 -0.229,-0.493c2.48,-0.939 5.644,-2.457 9.479,-4.552c-0.033,0.056 0.61,-0.325 1.921,-1.147c0.929,-0.717 1.573,-1.389 1.938,-2.017c0,-0.817 -0.124,-1.714 -0.364,-2.682c-0.381,-0.852 -0.873,-1.753 -1.473,-2.705l0.504,-4.815h0.28c0.963,2.195 1.545,3.78 1.741,4.749c0.459,1.848 0.654,3.482 0.588,4.916c-0.012,0.896 -0.185,1.949 -0.526,3.164c-0.739,2.313 -2.313,3.835 -4.704,4.568C32.935,50.992 30.673,51.237 27.296,51.379z" id="path_0"/><path fill="#000001" d="M33.23,26.884c1.227,-0.633 3.063,-1.574 5.511,-2.822c0.213,-0.252 0.313,-0.375 0.313,-0.375c-0.554,-0.667 -1.394,-1.019 -2.508,-1.053c-0.963,-0.033 -1.921,-0.051 -2.872,-0.051c0.654,-1.59 1.338,-2.699 2.038,-3.32c2.089,-0.173 3.751,0.034 5,0.621c0.526,0.628 0.644,1.238 0.363,1.837c-0.111,0.387 -0.441,1.115 -0.984,2.195c-0.526,0.868 -1.109,1.579 -1.759,2.134c-0.645,0.56 -1.501,0.946 -2.576,1.165c-1.87,0.296 -2.811,0.441 -2.822,0.441c-0.251,0 -0.375,-0.05 -0.375,-0.146C32.559,27.215 32.783,27.007 33.23,26.884z" id="path_1"/><path fill="#213e95" d="M53.392,42.357c-0.033,1.059 -0.202,2.017 -0.51,2.873c-0.347,0.543 -0.604,0.817 -0.768,0.817c-0.178,0.011 -0.257,-0.269 -0.246,-0.835c-0.273,-6.137 -0.66,-11.411 -1.147,-15.829c-0.229,-2.178 -0.544,-3.964 -0.935,-5.364c-0.168,-0.537 -0.258,-1.035 -0.28,-1.494c-0.012,-0.852 0.117,-1.837 0.392,-2.952l0.772,-2.855c0.096,-0.089 0.201,-0.134 0.309,-0.134c0.134,0 0.229,0.185 0.279,0.56c0.045,0.509 0.106,0.817 0.191,0.924c0.084,0.107 0.38,0.985 0.895,2.648c0.325,1.081 0.729,1.932 1.199,2.559c0.027,0.208 0.044,0.41 0.044,0.605c0.023,0.414 -0.089,0.985 -0.336,1.713c-0.245,0.728 -0.408,1.232 -0.498,1.518l-0.117,0.493L53.392,42.357z" id="path_2"/><path fill="#213e95" d="M47.21,56.094l1.02,-3.034l9.888,-4.346c0.135,-0.033 0.196,-0.016 0.196,0.045c0,0.033 -0.017,0.117 -0.051,0.247l-1.327,3.151l-9.496,4.251c-0.123,0.011 -0.195,0.011 -0.229,0C47.165,56.341 47.165,56.234 47.21,56.094z" id="path_3"/></svg>