<svg id="vector" xmlns="http://www.w3.org/2000/svg" width="75" height="67" viewBox="0 0 83 73"><path fill="#DD2C00" d="M58.531,49.591c-0.033,1.075 -0.207,2.032 -0.526,2.89c-0.341,0.565 -0.594,0.861 -0.756,0.885c-0.185,0 -0.269,-0.309 -0.246,-0.918c-0.286,-6.137 -0.639,-10.426 -1.063,-12.868c-0.229,-2.188 -0.543,-3.981 -0.936,-5.37c-0.146,-0.542 -0.225,-1.046 -0.246,-1.505c-0.033,-0.857 0.09,-1.842 0.375,-2.957l0.756,-2.856c0.102,-0.09 0.207,-0.134 0.33,-0.134c0.129,0 0.219,0.19 0.258,0.577c0.057,0.498 0.123,0.806 0.207,0.918c0.084,0.106 0.377,0.985 0.879,2.637c0.326,1.086 0.733,1.937 1.217,2.559c0.027,0.219 0.05,0.426 0.061,0.627c0,0.403 -0.117,0.969 -0.354,1.702c-0.235,0.733 -0.396,1.237 -0.497,1.512l-0.128,0.493L58.531,49.591z" id="path_0"/><path fill="#DD2C00" d="M52.204,20.702l-0.672,0.05l-0.101,-0.163c2.268,-1.204 4.02,-2.335 5.27,-3.398c-0.428,-0.151 -0.713,-0.308 -0.857,-0.476c-0.426,-0.292 -0.639,-0.79 -0.639,-1.49c-0.033,-1.433 0.477,-2.498 1.529,-3.197c0.336,-0.286 0.896,-0.353 1.674,-0.202c0.801,0.442 1.197,0.969 1.197,1.596c0.219,2.352 -1.315,4.457 -4.597,6.327C53.975,20.22 53.038,20.54 52.204,20.702L52.204,20.702zM58.285,15.421c0.313,-0.118 0.476,-0.331 0.476,-0.622c0,-0.493 -0.224,-0.856 -0.672,-1.086c-0.442,-0.174 -0.924,-0.18 -1.444,-0.017c-0.363,0.263 -0.555,0.498 -0.576,0.706c-0.033,0.252 0.135,0.583 0.492,0.985c0.33,0.135 0.594,0.196 0.789,0.196C57.602,15.651 57.91,15.595 58.285,15.421z" id="path_1"/><path fill="#008046" d="M23.787,45.727c1.104,-4.586 3.382,-7.929 6.837,-10.027c0.409,-0.325 1.036,-0.767 1.888,-1.327c-0.337,-0.185 -0.802,-0.291 -1.395,-0.325c-0.588,-0.034 -1.165,-0.062 -1.719,-0.084c-0.846,0.022 -1.691,0.033 -2.548,0.033c-0.919,0.151 -1.551,0.611 -1.898,1.378c-0.18,0.644 -0.471,1.069 -0.891,1.265c0.034,-1.411 0.549,-3.051 1.546,-4.922c0.7,-1.327 2.032,-1.988 4.004,-1.988c0.291,0 0.789,0.011 1.488,0.034c0.7,0.022 1.222,0.034 1.563,0.034c3.511,0.392 6.58,0.37 9.217,-0.067c0.219,0.023 0.543,-0.005 0.975,-0.084c0.438,-0.078 0.744,-0.118 0.931,-0.118c0.414,0 0.756,0.112 1.019,0.331c-0.168,0.302 -0.369,0.778 -0.609,1.422c-0.174,0.442 -0.358,0.896 -0.549,1.372c-0.19,0.477 -0.465,0.84 -0.828,1.092c-1.183,0.118 -3.69,0.778 -7.532,1.971c-2.754,1.17 -4.921,2.582 -6.494,4.233c-2.218,2.173 -3.416,4.552 -3.59,7.134c-0.274,1.467 0.123,2.877 1.193,4.231c0.845,1.215 1.953,2.224 3.331,3.02c2.811,1.764 6.77,2.643 11.877,2.643c1.522,0 3.891,-0.33 7.104,-0.985c0.129,0.034 0.324,0.006 0.589,-0.089c0.263,-0.096 0.437,-0.141 0.524,-0.141c0.175,0 0.281,0.163 0.314,0.493c0.063,0.196 -0.156,0.493 -0.654,0.886c-2.564,1.438 -4.475,2.401 -5.746,2.895c-2.216,0.885 -4.339,1.289 -6.365,1.21c-2.984,-0.129 -5.572,-0.679 -7.755,-1.642c-2.005,-0.851 -3.399,-1.981 -4.184,-3.393c-1.338,-2.279 -2.021,-4.339 -2.055,-6.188c0,-0.348 0.028,-1.373 0.084,-3.068C23.513,46.678 23.619,46.27 23.787,45.727z" id="path_2"/><path fill="#008046" d="M29.801,18.322c1.227,-0.633 3.063,-1.573 5.51,-2.822c0.213,-0.252 0.313,-0.375 0.313,-0.375c-0.555,-0.667 -1.395,-1.02 -2.509,-1.053c-0.963,-0.033 -1.92,-0.05 -2.872,-0.05c0.655,-1.591 1.338,-2.699 2.038,-3.321c2.089,-0.173 3.752,0.034 5,0.622c0.526,0.627 0.644,1.237 0.364,1.836c-0.112,0.386 -0.442,1.114 -0.985,2.195c-0.526,0.868 -1.109,1.579 -1.759,2.133c-0.644,0.56 -1.5,0.947 -2.575,1.165c-1.87,0.297 -2.812,0.442 -2.822,0.442c-0.252,0 -0.375,-0.05 -0.375,-0.145C29.129,18.653 29.353,18.445 29.801,18.322z" id="path_3"/><path fill="#008046" d="M32.081,25.143v-0.162c0.549,-0.768 1.332,-1.809 2.362,-3.136h0.112c0.834,0.896 1.876,1.708 3.136,2.43c0.033,0.034 0.05,0.073 0.05,0.128l-2.278,3.085c-0.023,0.011 -0.063,0.017 -0.118,0.017c-0.067,0 -0.179,-0.028 -0.341,-0.084C34.213,27.064 33.239,26.302 32.081,25.143z" id="path_4"/></svg>