<svg id="vector" xmlns="http://www.w3.org/2000/svg" width="75" height="67" viewBox="0 0 83 73"><path fill="#008046" d="M37.712,26.003v-0.162c0.548,-0.768 1.333,-1.809 2.363,-3.136h0.112c0.834,0.896 1.875,1.708 3.135,2.431c0.034,0.033 0.05,0.072 0.05,0.128l-2.278,3.086c-0.023,0.012 -0.062,0.016 -0.118,0.016c-0.068,0 -0.18,-0.027 -0.342,-0.083C39.845,27.924 38.871,27.162 37.712,26.003z" id="path_0"/><path fill="#008046" d="M17.437,35.601c0.033,0.062 0.062,0.162 0.095,0.291c-0.286,0.448 -0.689,1.126 -1.215,2.021c-0.952,1.473 -1.523,2.951 -1.72,4.429c-0.196,1.563 0.028,2.906 0.672,4.032c1.159,2.329 3.035,3.886 5.627,4.664c1.803,0.521 4.228,0.639 7.268,0.341c4.362,-1.215 7.01,-3.046 7.94,-5.498c-0.067,-1.719 -0.437,-3.315 -1.104,-4.793c-0.263,-0.609 -0.666,-1.512 -1.209,-2.704c-0.067,-0.952 0.011,-2.336 0.241,-4.139c0.19,-0.033 0.364,0.018 0.526,0.146c0.504,0.398 1.26,0.969 2.262,1.725c0.868,0.561 1.775,0.908 2.727,1.054c0.974,-1.652 1.943,-3.315 2.9,-4.989c1.35,-1.927 2.901,-3.041 4.659,-3.332c0.604,-0.207 1.243,-0.314 1.92,-0.314c1.511,0 3.035,0.427 4.58,1.277c1.439,1.411 2.162,2.599 2.162,3.561c0,0.163 -0.017,0.343 -0.051,0.538c-0.257,2.906 -1.399,5.067 -3.427,6.474c-3.063,1.572 -6.12,2.362 -9.171,2.362c-1.988,0 -3.786,-0.369 -5.393,-1.113c-0.341,-0.068 -0.509,0.016 -0.509,0.245c0.073,0.577 0.112,1.137 0.112,1.674c0,1.54 -0.28,3.068 -0.851,4.581c-0.952,2.447 -2.576,4.457 -4.872,6.014c-2.295,1.563 -4.776,2.341 -7.43,2.341c-2.727,0 -5.096,-0.801 -7.123,-2.408c-2.721,-2.161 -4.082,-5.274 -4.082,-9.345c0,-1.691 0.291,-3.265 0.868,-4.704c1.053,-1.982 2.122,-3.443 3.214,-4.384C17.274,35.617 17.403,35.601 17.437,35.601L17.437,35.601zM48.16,33.063c-0.342,-0.033 -0.655,-0.05 -0.952,-0.05c-2.251,0 -4.255,1.444 -6.002,4.334c0.599,0.263 1.092,0.375 1.473,0.342c0.638,0.033 1.249,0.05 1.842,0.05c3.606,0 6.619,-0.756 9.038,-2.262c-0.196,-0.471 -0.554,-0.874 -1.07,-1.199c-0.196,-0.134 -0.677,-0.402 -1.438,-0.822C49.896,33.053 48.938,32.924 48.16,33.063z" id="path_1"/><path fill="#008046" d="M37.023,20.006c1.226,-0.632 3.063,-1.573 5.509,-2.822c0.213,-0.251 0.314,-0.374 0.314,-0.374c-0.555,-0.667 -1.395,-1.02 -2.509,-1.053c-0.963,-0.034 -1.92,-0.05 -2.872,-0.05c0.655,-1.592 1.338,-2.699 2.038,-3.321c2.089,-0.174 3.751,0.033 5,0.622c0.526,0.627 0.644,1.237 0.364,1.836c-0.112,0.387 -0.442,1.114 -0.985,2.195c-0.526,0.868 -1.108,1.579 -1.758,2.133c-0.644,0.56 -1.5,0.946 -2.576,1.165c-1.87,0.296 -2.811,0.441 -2.822,0.441c-0.252,0 -0.375,-0.05 -0.375,-0.146C36.351,20.337 36.575,20.13 37.023,20.006z" id="path_2"/><path fill="#DD2C00" d="M65.104,46.615c-0.034,1.058 -0.201,2.015 -0.509,2.871c-0.348,0.544 -0.605,0.818 -0.767,0.818c-0.18,0.011 -0.258,-0.269 -0.247,-0.835c-0.274,-6.137 -0.661,-11.411 -1.148,-15.828c-0.229,-2.179 -0.543,-3.966 -0.936,-5.364c-0.167,-0.538 -0.257,-1.037 -0.279,-1.496c-0.011,-0.851 0.118,-1.837 0.392,-2.95l0.772,-2.855c0.096,-0.09 0.202,-0.135 0.308,-0.135c0.135,0 0.229,0.185 0.28,0.56c0.044,0.51 0.106,0.818 0.19,0.924c0.084,0.106 0.38,0.985 0.896,2.648c0.325,1.081 0.728,1.933 1.198,2.559c0.028,0.208 0.044,0.409 0.044,0.604c0.022,0.415 -0.089,0.986 -0.336,1.714c-0.246,0.729 -0.408,1.232 -0.498,1.518l-0.118,0.493L65.104,46.615z" id="path_3"/><path fill="#DD2C00" d="M58.922,60.352l1.019,-3.035l9.888,-4.345c0.135,-0.034 0.196,-0.018 0.196,0.044c0,0.034 -0.017,0.118 -0.05,0.247l-1.328,3.152l-9.497,4.249c-0.123,0.012 -0.196,0.012 -0.229,0C58.877,60.598 58.877,60.491 58.922,60.352z" id="path_4"/></svg>