<svg id="vector" xmlns="http://www.w3.org/2000/svg" width="75" height="67" viewBox="0 0 83 73"><path fill="#213e95" d="M61.232,53.074c-0.033,1.075 -0.207,2.033 -0.525,2.889c-0.342,0.566 -0.594,0.862 -0.756,0.885c-0.184,0 -0.268,-0.308 -0.248,-0.918c-0.283,-6.137 -0.637,-10.426 -1.063,-12.867c-0.23,-2.189 -0.543,-3.981 -0.936,-5.37c-0.145,-0.543 -0.225,-1.048 -0.246,-1.507c-0.033,-0.857 0.09,-1.842 0.375,-2.957l0.756,-2.855c0.102,-0.09 0.207,-0.135 0.332,-0.135c0.127,0 0.217,0.19 0.256,0.577c0.057,0.499 0.125,0.807 0.209,0.918c0.082,0.106 0.375,0.985 0.877,2.637c0.326,1.086 0.734,1.938 1.217,2.56c0.027,0.218 0.051,0.425 0.061,0.626c0,0.403 -0.117,0.969 -0.352,1.703c-0.236,0.733 -0.398,1.238 -0.498,1.512l-0.131,0.493L61.232,53.074z" id="path_0"/><path fill="#213e95" d="M54.906,24.819l-0.672,0.05l-0.102,-0.162c2.268,-1.203 4.021,-2.334 5.27,-3.399c-0.426,-0.151 -0.711,-0.308 -0.857,-0.476c-0.426,-0.291 -0.637,-0.789 -0.637,-1.489c-0.035,-1.433 0.475,-2.498 1.527,-3.198c0.336,-0.285 0.896,-0.352 1.674,-0.201c0.803,0.442 1.199,0.969 1.199,1.596c0.219,2.352 -1.316,4.458 -4.598,6.328C56.676,24.337 55.74,24.657 54.906,24.819L54.906,24.819zM60.988,19.539c0.313,-0.117 0.475,-0.33 0.475,-0.621c0,-0.493 -0.225,-0.856 -0.672,-1.086c-0.441,-0.173 -0.924,-0.179 -1.445,-0.017c-0.363,0.264 -0.555,0.499 -0.576,0.706c-0.033,0.252 0.135,0.582 0.492,0.985c0.332,0.134 0.594,0.196 0.791,0.196C60.305,19.768 60.611,19.712 60.988,19.539z" id="path_1"/><path fill="#DD2C00" d="M30.594,46.355v-0.163c0.549,-0.767 1.332,-1.809 2.361,-3.135h0.113c0.213,0.229 0.795,0.699 1.758,1.411c0.459,0.341 0.924,0.683 1.395,1.036c0.527,-0.734 1.23,-1.664 2.117,-2.789h0.111c0.834,0.885 1.875,1.686 3.137,2.407c0.033,0.022 0.049,0.073 0.049,0.152l-2.295,3.068c-0.012,0.022 -0.045,0.028 -0.102,0.028c-0.078,0 -0.195,-0.022 -0.363,-0.079c-0.773,-0.364 -1.742,-1.125 -2.9,-2.296v-0.017l-2.018,2.705c-0.01,0.022 -0.043,0.033 -0.1,0.033c-0.078,0 -0.195,-0.028 -0.359,-0.083C32.721,48.275 31.752,47.514 30.594,46.355z" id="path_2"/><path fill="#DD2C00" d="M32.838,41.629v-0.163c0.549,-0.767 1.338,-1.809 2.363,-3.13h0.117c0.818,0.896 1.865,1.697 3.131,2.408c0.021,0.033 0.033,0.084 0.033,0.151l-2.279,3.08c-0.021,0.011 -0.057,0.017 -0.1,0.017c-0.074,0 -0.191,-0.028 -0.342,-0.078C34.973,43.549 33.998,42.788 32.838,41.629z" id="path_3"/><path fill="#DD2C00" d="M51.518,52.979c-1.764,1.125 -4.041,2.038 -6.842,2.738c-4.268,0.963 -7.885,1.433 -10.852,1.417c-2.969,-0.017 -5.275,-0.303 -6.916,-0.863c-1.641,-0.554 -3.08,-1.523 -4.313,-2.9c-1.063,-1.215 -1.684,-2.626 -1.869,-4.233c-0.24,-2.262 0.309,-4.704 1.658,-7.319c0.139,-0.129 0.279,-0.285 0.424,-0.465c0.143,-0.179 0.303,-0.257 0.477,-0.224l-0.018,0.398c-0.744,1.595 -1.146,3.018 -1.215,4.261c-0.033,0.437 -0.033,0.739 0,0.901c0.459,2.1 2.051,3.579 4.777,4.435c1.529,0.521 3.131,0.846 4.805,0.963c0.264,0.011 0.672,0.045 1.23,0.101c3.422,0.011 7.572,-0.392 12.449,-1.215c2.822,-0.526 4.832,-1.237 6.023,-2.133c-0.078,-0.358 -0.346,-0.767 -0.805,-1.221c-0.459,-0.453 -0.738,-0.862 -0.834,-1.221c-0.068,-1.445 0.016,-2.923 0.246,-4.429l0.195,-0.017c1.518,1.713 2.363,3.539 2.525,5.459C52.863,49.659 52.482,51.512 51.518,52.979z" id="path_4"/><path fill="#DD2C00" d="M33.24,34.669c1.227,-0.633 3.064,-1.574 5.512,-2.822c0.213,-0.252 0.313,-0.375 0.313,-0.375c-0.553,-0.667 -1.393,-1.019 -2.508,-1.053c-0.963,-0.034 -1.92,-0.05 -2.873,-0.05c0.654,-1.59 1.338,-2.699 2.039,-3.321c2.088,-0.173 3.75,0.034 5,0.622c0.525,0.627 0.643,1.238 0.363,1.837c-0.111,0.386 -0.441,1.114 -0.984,2.195c-0.527,0.868 -1.109,1.58 -1.76,2.133c-0.643,0.561 -1.5,0.947 -2.574,1.165c-1.871,0.297 -2.813,0.442 -2.822,0.442c-0.252,0 -0.377,-0.05 -0.377,-0.145C32.568,34.999 32.793,34.792 33.24,34.669z" id="path_5"/></svg>