<svg id="vector" xmlns="http://www.w3.org/2000/svg" width="75" height="67" viewBox="0 0 83 73"><path fill="#000001" d="M57.178,49.281c-0.033,1.075 -0.207,2.032 -0.525,2.889c-0.343,0.566 -0.595,0.863 -0.757,0.885c-0.185,0 -0.269,-0.308 -0.246,-0.918c-0.285,-6.137 -0.639,-10.426 -1.064,-12.867c-0.229,-2.189 -0.543,-3.981 -0.935,-5.37c-0.146,-0.543 -0.224,-1.047 -0.246,-1.506c-0.034,-0.857 0.089,-1.842 0.375,-2.957l0.756,-2.856c0.101,-0.089 0.207,-0.134 0.33,-0.134c0.129,0 0.219,0.19 0.258,0.577c0.056,0.499 0.123,0.806 0.207,0.918c0.084,0.106 0.375,0.985 0.879,2.638c0.325,1.086 0.733,1.938 1.215,2.559c0.028,0.219 0.051,0.426 0.063,0.627c0,0.403 -0.118,0.969 -0.354,1.702c-0.234,0.733 -0.397,1.237 -0.498,1.512l-0.129,0.493L57.178,49.281z" id="path_0"/><path fill="#000001" d="M49.876,19.455l1.02,-3.035l9.889,-4.345c0.134,-0.034 0.196,-0.017 0.196,0.05c0,0.034 -0.018,0.112 -0.051,0.247l-1.327,3.147l-9.497,4.25c-0.123,0.011 -0.195,0.011 -0.229,0C49.831,19.702 49.831,19.601 49.876,19.455z" id="path_1"/><path fill="#0992d1" d="M33.106,47.549v-0.163c0.549,-0.767 1.333,-1.808 2.363,-3.135h0.111c0.835,0.896 1.876,1.708 3.136,2.43c0.033,0.034 0.051,0.073 0.051,0.129l-2.279,3.085c-0.022,0.011 -0.062,0.017 -0.117,0.017c-0.067,0 -0.18,-0.028 -0.342,-0.084C35.24,49.47 34.266,48.708 33.106,47.549z" id="path_2"/><path fill="#0992d1" d="M22.434,45.415c1.104,-4.585 3.383,-7.928 6.837,-10.028c0.409,-0.325 1.036,-0.768 1.887,-1.328c-0.335,-0.185 -0.801,-0.291 -1.394,-0.325c-0.588,-0.033 -1.165,-0.062 -1.72,-0.084c-0.845,0.022 -1.69,0.034 -2.547,0.034c-0.919,0.151 -1.552,0.61 -1.898,1.377c-0.18,0.644 -0.47,1.069 -0.89,1.266c0.033,-1.411 0.548,-3.052 1.545,-4.922c0.7,-1.327 2.032,-1.988 4.004,-1.988c0.29,0 0.789,0.011 1.489,0.034c0.699,0.022 1.22,0.034 1.562,0.034c3.511,0.392 6.58,0.369 9.217,-0.067c0.218,0.022 0.543,-0.005 0.975,-0.083c0.437,-0.079 0.744,-0.118 0.929,-0.118c0.415,0 0.757,0.112 1.02,0.331c-0.168,0.302 -0.37,0.778 -0.61,1.422c-0.174,0.442 -0.358,0.896 -0.549,1.372c-0.19,0.476 -0.465,0.84 -0.828,1.092c-1.182,0.118 -3.69,0.778 -7.531,1.971c-2.755,1.17 -4.922,2.581 -6.496,4.233c-2.217,2.172 -3.415,4.552 -3.589,7.134c-0.274,1.467 0.124,2.878 1.193,4.233c0.845,1.215 1.954,2.223 3.331,3.018c2.812,1.764 6.77,2.643 11.876,2.643c1.523,0 3.892,-0.33 7.106,-0.985c0.129,0.033 0.324,0.005 0.588,-0.09c0.263,-0.095 0.437,-0.14 0.526,-0.14c0.173,0 0.279,0.162 0.313,0.493c0.062,0.196 -0.157,0.493 -0.655,0.885c-2.564,1.439 -4.474,2.402 -5.745,2.895c-2.217,0.885 -4.34,1.288 -6.366,1.21c-2.985,-0.129 -5.572,-0.678 -7.755,-1.641c-2.005,-0.851 -3.399,-1.982 -4.184,-3.394c-1.338,-2.279 -2.021,-4.339 -2.055,-6.188c0,-0.347 0.028,-1.372 0.084,-3.068C22.159,46.368 22.266,45.958 22.434,45.415z" id="path_3"/><path fill="#0992d1" d="M31.225,25.224c1.227,-0.633 3.063,-1.573 5.51,-2.822c0.213,-0.251 0.314,-0.375 0.314,-0.375c-0.555,-0.666 -1.396,-1.019 -2.51,-1.052c-0.963,-0.034 -1.92,-0.051 -2.872,-0.051c0.655,-1.59 1.338,-2.699 2.038,-3.321c2.089,-0.173 3.752,0.034 5,0.622c0.526,0.627 0.645,1.238 0.364,1.837c-0.112,0.386 -0.442,1.114 -0.985,2.195c-0.526,0.868 -1.108,1.579 -1.758,2.134c-0.645,0.56 -1.501,0.946 -2.576,1.165c-1.87,0.296 -2.811,0.442 -2.822,0.442c-0.252,0 -0.375,-0.051 -0.375,-0.146C30.553,25.555 30.776,25.348 31.225,25.224z" id="path_4"/></svg>