<svg id="vector" xmlns="http://www.w3.org/2000/svg" width="75" height="67" viewBox="0 0 83 73"><path fill="#DD2C00" d="M57.914,52.989c-0.033,1.075 -0.207,2.032 -0.526,2.889c-0.342,0.566 -0.593,0.863 -0.756,0.885c-0.185,0 -0.269,-0.308 -0.246,-0.918c-0.285,-6.138 -0.639,-10.427 -1.063,-12.867c-0.23,-2.189 -0.544,-3.981 -0.936,-5.37c-0.146,-0.543 -0.224,-1.047 -0.246,-1.506c-0.034,-0.857 0.09,-1.842 0.375,-2.957l0.756,-2.854c0.101,-0.09 0.207,-0.136 0.33,-0.136c0.129,0 0.219,0.191 0.258,0.577c0.056,0.498 0.123,0.806 0.207,0.919c0.084,0.105 0.375,0.985 0.879,2.637c0.325,1.086 0.734,1.938 1.215,2.559c0.028,0.219 0.051,0.427 0.063,0.628c0,0.403 -0.118,0.968 -0.353,1.702c-0.235,0.733 -0.398,1.237 -0.499,1.512l-0.129,0.493L57.914,52.989z" id="path_0"/><path fill="#DD2C00" d="M50.613,23.164l1.019,-3.035l9.889,-4.345c0.135,-0.033 0.196,-0.017 0.196,0.051c0,0.033 -0.017,0.111 -0.051,0.246l-1.327,3.146l-9.496,4.25c-0.124,0.012 -0.196,0.012 -0.229,0C50.568,23.41 50.568,23.31 50.613,23.164z" id="path_1"/><path fill="#008046" d="M39.638,37.434v-0.161c0.549,-0.768 1.333,-1.81 2.363,-3.137h0.112c0.834,0.896 1.876,1.708 3.136,2.431c0.033,0.033 0.05,0.073 0.05,0.129L43.02,39.78c-0.021,0.012 -0.061,0.017 -0.117,0.017c-0.067,0 -0.179,-0.028 -0.342,-0.084C41.771,39.354 40.797,38.593 39.638,37.434z" id="path_2"/><path fill="#008046" d="M21.927,53.493c1.014,0.028 2.347,-0.033 3.987,-0.201c1.858,-0.196 3.169,-0.291 3.936,-0.291c0.23,0 0.521,-0.18 0.868,-0.527c0.297,-0.699 0.588,-1.389 0.885,-2.071c0.342,-0.795 0.51,-1.535 0.51,-2.212c0.067,-1.843 0.056,-4.339 -0.034,-7.503c-0.089,-3.763 -0.134,-6.271 -0.134,-7.521c0,-1.058 0.011,-2.065 0.033,-3.018c0.297,-1.042 0.813,-2.587 1.557,-4.631l0.358,0.297c0.034,0.128 0.146,0.963 0.348,2.508c0.129,0.985 0.353,1.775 0.672,2.38l-0.135,0.046c0.711,0.878 1.07,1.534 1.07,1.971c0,0.229 -0.085,0.526 -0.247,0.884c-0.264,0.482 -0.414,0.773 -0.442,0.868l-1.266,1.971c0,1.978 0,5.163 0,9.559c0,0.033 -0.056,0.179 -0.162,0.432c-0.033,0.162 -0.017,0.308 0.051,0.441c2.077,-3.152 4.832,-4.726 8.265,-4.726c0.437,0 0.879,0.034 1.327,0.102c2.475,0.632 4.199,1.937 5.185,3.908c-0.303,5.162 -2.016,8.191 -5.135,9.104c-4.513,1.315 -8.136,1.971 -10.862,1.971c-2.083,0 -3.942,-0.342 -5.583,-1.019c-1.311,-0.325 -3.208,-1.02 -5.694,-2.067C21.283,54.014 21.501,53.795 21.927,53.493L21.927,53.493zM40.87,46.634c-0.264,-0.033 -0.55,-0.051 -0.857,-0.051c-1.702,0 -3.343,0.628 -4.916,1.882c-1.383,1.098 -2.514,2.525 -3.398,4.289c2.329,-0.066 5.498,-0.392 9.496,-0.969c0.331,-0.134 1.231,-0.387 2.711,-0.756c1.113,-0.297 1.987,-0.616 2.625,-0.969v-0.593C44.912,47.771 43.025,46.824 40.87,46.634z" id="path_3"/><path fill="#008046" d="M40.164,31.14c1.227,-0.632 3.063,-1.572 5.51,-2.821c0.213,-0.251 0.314,-0.375 0.314,-0.375c-0.555,-0.666 -1.395,-1.02 -2.51,-1.053c-0.963,-0.034 -1.92,-0.05 -2.872,-0.05c0.655,-1.591 1.338,-2.699 2.038,-3.321c2.089,-0.174 3.752,0.033 5,0.622c0.527,0.627 0.645,1.237 0.364,1.837c-0.111,0.386 -0.442,1.113 -0.985,2.194c-0.526,0.868 -1.108,1.579 -1.759,2.133c-0.644,0.561 -1.5,0.946 -2.575,1.165c-1.87,0.297 -2.811,0.442 -2.822,0.442c-0.252,0 -0.375,-0.051 -0.375,-0.146C39.492,31.471 39.716,31.264 40.164,31.14z" id="path_4"/></svg>