<svg id="vector" xmlns="http://www.w3.org/2000/svg" width="75" height="67" viewBox="0 0 83 73"><path fill="#DD2C00" d="M60.115,52.763c-0.034,1.076 -0.207,2.033 -0.526,2.89c-0.342,0.566 -0.594,0.862 -0.756,0.885c-0.186,0 -0.269,-0.308 -0.247,-0.918c-0.285,-6.137 -0.638,-10.426 -1.063,-12.868c-0.229,-2.189 -0.543,-3.981 -0.936,-5.37c-0.146,-0.543 -0.224,-1.047 -0.246,-1.506c-0.033,-0.856 0.089,-1.842 0.375,-2.957l0.756,-2.855c0.102,-0.09 0.208,-0.134 0.331,-0.134c0.128,0 0.218,0.19 0.257,0.576c0.057,0.499 0.124,0.807 0.207,0.918c0.085,0.107 0.376,0.986 0.88,2.638c0.324,1.086 0.733,1.937 1.215,2.559c0.027,0.218 0.051,0.425 0.062,0.627c0,0.403 -0.118,0.968 -0.353,1.702c-0.235,0.734 -0.397,1.238 -0.499,1.512l-0.128,0.493L60.115,52.763z" id="path_0"/><path fill="#DD2C00" d="M52.813,23.574l1.019,-3.035l9.889,-4.345c0.135,-0.034 0.196,-0.017 0.196,0.05c0,0.034 -0.017,0.112 -0.051,0.247l-1.327,3.147l-9.496,4.25c-0.123,0.011 -0.196,0.011 -0.229,0C52.769,23.82 52.769,23.719 52.813,23.574z" id="path_1"/><path fill="#231f20" d="M28.77,45.943v-0.163c0.548,-0.767 1.332,-1.809 2.362,-3.136h0.112c0.212,0.23 0.795,0.7 1.758,1.411c0.459,0.342 0.924,0.683 1.395,1.036c0.526,-0.733 1.231,-1.664 2.116,-2.789h0.112c0.834,0.885 1.876,1.686 3.136,2.408c0.033,0.022 0.051,0.073 0.051,0.151l-2.296,3.069c-0.012,0.022 -0.045,0.028 -0.102,0.028c-0.078,0 -0.195,-0.022 -0.363,-0.079c-0.773,-0.363 -1.741,-1.125 -2.9,-2.296v-0.016l-2.016,2.704c-0.012,0.022 -0.045,0.034 -0.102,0.034c-0.078,0 -0.195,-0.028 -0.358,-0.084C30.896,47.864 29.928,47.103 28.77,45.943z" id="path_2"/><path fill="#231f20" d="M49.93,52.668c-1.764,1.126 -4.043,2.038 -6.843,2.738c-4.268,0.963 -7.884,1.434 -10.853,1.417c-2.967,-0.017 -5.274,-0.303 -6.915,-0.862c-1.641,-0.555 -3.079,-1.523 -4.312,-2.901c-1.063,-1.215 -1.686,-2.625 -1.87,-4.233c-0.241,-2.262 0.308,-4.704 1.657,-7.319c0.141,-0.128 0.28,-0.285 0.426,-0.464c0.141,-0.18 0.302,-0.258 0.477,-0.224l-0.018,0.397c-0.744,1.596 -1.148,3.018 -1.215,4.261c-0.034,0.437 -0.034,0.74 0,0.901c0.459,2.1 2.05,3.578 4.776,4.435c1.529,0.521 3.13,0.846 4.804,0.963c0.264,0.01 0.673,0.045 1.232,0.1c3.422,0.012 7.571,-0.392 12.448,-1.214c2.821,-0.527 4.832,-1.238 6.024,-2.134c-0.078,-0.357 -0.347,-0.767 -0.806,-1.22c-0.46,-0.454 -0.739,-0.862 -0.835,-1.221c-0.067,-1.444 0.018,-2.923 0.247,-4.429l0.196,-0.017c1.517,1.714 2.362,3.539 2.524,5.46C51.273,49.348 50.893,51.201 49.93,52.668z" id="path_3"/><path fill="#231f20" d="M32.146,37.802c1.227,-0.632 3.063,-1.574 5.51,-2.822c0.213,-0.252 0.313,-0.375 0.313,-0.375c-0.555,-0.666 -1.395,-1.019 -2.509,-1.052c-0.963,-0.034 -1.92,-0.051 -2.872,-0.051c0.655,-1.59 1.338,-2.698 2.038,-3.32c2.089,-0.173 3.752,0.034 5,0.622c0.526,0.626 0.645,1.237 0.364,1.836c-0.112,0.386 -0.442,1.114 -0.985,2.194c-0.526,0.869 -1.108,1.579 -1.758,2.134c-0.645,0.56 -1.501,0.946 -2.576,1.165c-1.871,0.297 -2.812,0.443 -2.822,0.443c-0.252,0 -0.375,-0.051 -0.375,-0.146C31.474,38.132 31.697,37.925 32.146,37.802z" id="path_4"/></svg>