<svg id="vector" xmlns="http://www.w3.org/2000/svg" width="75" height="67" viewBox="0 0 83 73"><path fill="#000001" d="M57.178,49.28c-0.032,1.075 -0.206,2.032 -0.525,2.89c-0.343,0.565 -0.594,0.862 -0.756,0.885c-0.186,0 -0.27,-0.308 -0.247,-0.918C55.364,46 55.011,41.71 54.586,39.269c-0.229,-2.189 -0.544,-3.981 -0.936,-5.37c-0.146,-0.542 -0.224,-1.046 -0.246,-1.505c-0.033,-0.857 0.09,-1.842 0.375,-2.957l0.757,-2.856c0.1,-0.089 0.206,-0.134 0.329,-0.134c0.13,0 0.219,0.19 0.258,0.577c0.056,0.498 0.123,0.806 0.207,0.918c0.084,0.106 0.375,0.985 0.88,2.637c0.324,1.086 0.733,1.937 1.215,2.559c0.027,0.219 0.05,0.426 0.062,0.627c0,0.403 -0.117,0.969 -0.353,1.703c-0.235,0.733 -0.397,1.237 -0.499,1.511l-0.128,0.493L57.178,49.28z" id="path_0"/><path fill="#000001" d="M49.876,19.456l1.02,-3.035l9.889,-4.346c0.135,-0.033 0.196,-0.016 0.196,0.051c0,0.033 -0.017,0.112 -0.051,0.247l-1.327,3.147l-9.497,4.25c-0.122,0.011 -0.195,0.011 -0.229,0C49.832,19.702 49.832,19.601 49.876,19.456z" id="path_1"/><path fill="#DD2C00" d="M22.434,45.416c1.104,-4.586 3.383,-7.929 6.838,-10.028c0.409,-0.325 1.035,-0.767 1.886,-1.327c-0.335,-0.185 -0.8,-0.292 -1.394,-0.325c-0.588,-0.034 -1.164,-0.062 -1.719,-0.084c-0.846,0.022 -1.691,0.033 -2.548,0.033c-0.919,0.151 -1.552,0.61 -1.898,1.378c-0.18,0.644 -0.47,1.069 -0.891,1.265c0.034,-1.411 0.549,-3.051 1.546,-4.922c0.7,-1.327 2.033,-1.988 4.004,-1.988c0.291,0 0.789,0.012 1.489,0.034c0.7,0.022 1.221,0.034 1.562,0.034c3.512,0.392 6.58,0.37 9.217,-0.067c0.219,0.023 0.544,-0.005 0.975,-0.084c0.437,-0.078 0.745,-0.117 0.93,-0.117c0.414,0 0.755,0.112 1.019,0.33c-0.168,0.302 -0.369,0.778 -0.61,1.422c-0.174,0.442 -0.357,0.896 -0.549,1.372c-0.189,0.477 -0.465,0.84 -0.828,1.092c-1.182,0.118 -3.69,0.778 -7.531,1.971c-2.755,1.17 -4.922,2.582 -6.495,4.233c-2.217,2.173 -3.416,4.552 -3.589,7.134c-0.275,1.467 0.123,2.878 1.192,4.233c0.845,1.215 1.954,2.223 3.332,3.018c2.811,1.764 6.769,2.643 11.876,2.643c1.522,0 3.892,-0.331 7.105,-0.985c0.128,0.034 0.324,0.005 0.589,-0.09c0.262,-0.095 0.436,-0.14 0.525,-0.14c0.173,0 0.279,0.162 0.313,0.493c0.062,0.196 -0.156,0.492 -0.655,0.884c-2.564,1.439 -4.475,2.402 -5.745,2.895c-2.217,0.885 -4.339,1.288 -6.366,1.21c-2.984,-0.129 -5.571,-0.678 -7.755,-1.641c-2.005,-0.851 -3.399,-1.982 -4.183,-3.393c-1.339,-2.279 -2.021,-4.339 -2.056,-6.188c0,-0.347 0.028,-1.372 0.084,-3.068C22.16,46.367 22.266,45.958 22.434,45.416z" id="path_2"/><path fill="#DD2C00" d="M31.225,25.224c1.227,-0.632 3.063,-1.573 5.511,-2.822c0.213,-0.251 0.313,-0.375 0.313,-0.375c-0.554,-0.667 -1.394,-1.019 -2.508,-1.053c-0.963,-0.033 -1.921,-0.05 -2.872,-0.05c0.654,-1.591 1.338,-2.699 2.037,-3.321c2.089,-0.173 3.752,0.033 5.001,0.622c0.526,0.627 0.644,1.237 0.363,1.836c-0.111,0.386 -0.441,1.114 -0.985,2.195c-0.525,0.868 -1.108,1.579 -1.758,2.133c-0.645,0.56 -1.501,0.946 -2.576,1.165c-1.87,0.297 -2.811,0.442 -2.822,0.442c-0.251,0 -0.375,-0.05 -0.375,-0.145C30.553,25.555 30.776,25.347 31.225,25.224z" id="path_3"/></svg>