<svg id="vector" xmlns="http://www.w3.org/2000/svg" width="75" height="67" viewBox="0 0 83 73"><path fill="#DD2C00" d="M66.961,50.455c-0.033,1.074 -0.207,2.031 -0.526,2.889c-0.341,0.564 -0.593,0.862 -0.756,0.884c-0.185,0 -0.269,-0.308 -0.246,-0.918c-0.285,-6.137 -0.639,-10.426 -1.063,-12.867c-0.229,-2.188 -0.544,-3.981 -0.936,-5.37c-0.146,-0.543 -0.224,-1.046 -0.246,-1.506c-0.033,-0.856 0.089,-1.842 0.375,-2.957l0.756,-2.855c0.101,-0.089 0.207,-0.135 0.33,-0.135c0.129,0 0.219,0.191 0.258,0.578c0.056,0.497 0.123,0.806 0.208,0.918c0.083,0.105 0.375,0.985 0.878,2.637c0.325,1.087 0.733,1.938 1.216,2.56c0.027,0.218 0.05,0.425 0.061,0.627c0,0.403 -0.117,0.968 -0.352,1.702c-0.235,0.733 -0.398,1.238 -0.498,1.512l-0.129,0.492L66.961,50.455z" id="path_0"/><path fill="#DD2C00" d="M60.634,21.543l-0.672,0.051l-0.101,-0.162c2.268,-1.203 4.021,-2.335 5.27,-3.399c-0.427,-0.15 -0.712,-0.308 -0.857,-0.476c-0.426,-0.291 -0.639,-0.789 -0.639,-1.489c-0.033,-1.434 0.477,-2.498 1.529,-3.197c0.336,-0.286 0.896,-0.353 1.674,-0.202c0.801,0.442 1.198,0.969 1.198,1.596c0.219,2.353 -1.315,4.458 -4.597,6.328C62.403,21.063 61.469,21.382 60.634,21.543L60.634,21.543zM66.715,16.263c0.313,-0.117 0.476,-0.329 0.476,-0.621c0,-0.492 -0.224,-0.856 -0.672,-1.087c-0.442,-0.173 -0.924,-0.179 -1.444,-0.016c-0.364,0.263 -0.555,0.498 -0.576,0.706c-0.034,0.251 0.134,0.581 0.492,0.984c0.33,0.135 0.594,0.196 0.789,0.196C66.032,16.493 66.34,16.437 66.715,16.263z" id="path_1"/><path fill="#008046" d="M39.681,29.927v-0.162c0.549,-0.768 1.333,-1.809 2.363,-3.136h0.112c0.834,0.896 1.875,1.708 3.135,2.43c0.034,0.034 0.051,0.072 0.051,0.129l-2.279,3.086c-0.021,0.011 -0.062,0.016 -0.117,0.016c-0.067,0 -0.179,-0.027 -0.342,-0.084C41.814,31.848 40.84,31.086 39.681,29.927z" id="path_2"/><path fill="#008046" d="M19.405,39.524c0.034,0.062 0.063,0.162 0.096,0.291c-0.286,0.447 -0.688,1.126 -1.216,2.021c-0.951,1.473 -1.522,2.95 -1.719,4.429c-0.196,1.563 0.028,2.906 0.673,4.032c1.158,2.329 3.034,3.886 5.627,4.664c1.803,0.521 4.228,0.638 7.269,0.341c4.361,-1.215 7.01,-3.046 7.939,-5.498c-0.067,-1.72 -0.437,-3.315 -1.104,-4.793c-0.263,-0.61 -0.666,-1.512 -1.209,-2.704c-0.067,-0.952 0.011,-2.336 0.24,-4.139c0.19,-0.033 0.364,0.017 0.526,0.146c0.504,0.398 1.26,0.969 2.263,1.725c0.867,0.561 1.774,0.908 2.727,1.054c0.975,-1.652 1.943,-3.315 2.9,-4.989c1.35,-1.927 2.9,-3.041 4.659,-3.332c0.604,-0.207 1.243,-0.313 1.921,-0.313c1.511,0 3.034,0.426 4.579,1.276c1.439,1.411 2.162,2.599 2.162,3.562c0,0.162 -0.018,0.342 -0.051,0.537c-0.257,2.906 -1.399,5.067 -3.427,6.474c-3.063,1.572 -6.12,2.362 -9.172,2.362c-1.988,0 -3.785,-0.369 -5.393,-1.114c-0.341,-0.067 -0.509,0.017 -0.509,0.246c0.073,0.577 0.112,1.137 0.112,1.674c0,1.54 -0.28,3.068 -0.852,4.581c-0.951,2.447 -2.576,4.457 -4.871,6.014c-2.296,1.563 -4.776,2.341 -7.431,2.341c-2.727,0 -5.096,-0.801 -7.122,-2.408c-2.722,-2.162 -4.082,-5.274 -4.082,-9.346c0,-1.69 0.291,-3.264 0.867,-4.703c1.053,-1.982 2.123,-3.443 3.215,-4.385C19.243,39.541 19.372,39.524 19.405,39.524L19.405,39.524zM50.129,36.987c-0.341,-0.034 -0.654,-0.05 -0.951,-0.05c-2.251,0 -4.256,1.444 -6.003,4.333c0.6,0.264 1.092,0.375 1.473,0.343c0.639,0.032 1.249,0.05 1.843,0.05c3.605,0 6.618,-0.756 9.037,-2.262c-0.196,-0.471 -0.555,-0.874 -1.069,-1.199c-0.196,-0.134 -0.678,-0.403 -1.439,-0.822C51.865,36.977 50.908,36.848 50.129,36.987z" id="path_3"/><path fill="#008046" d="M38.992,23.93c1.227,-0.632 3.063,-1.573 5.51,-2.822c0.213,-0.252 0.313,-0.375 0.313,-0.375c-0.555,-0.666 -1.395,-1.019 -2.509,-1.052c-0.963,-0.034 -1.92,-0.051 -2.872,-0.051c0.655,-1.591 1.338,-2.699 2.038,-3.32c2.089,-0.174 3.752,0.033 5.001,0.621c0.525,0.627 0.644,1.237 0.363,1.837c-0.112,0.387 -0.442,1.114 -0.985,2.194c-0.526,0.869 -1.108,1.579 -1.758,2.134c-0.645,0.56 -1.501,0.946 -2.576,1.165c-1.87,0.296 -2.811,0.441 -2.822,0.441c-0.252,0 -0.375,-0.05 -0.375,-0.146C38.32,24.261 38.544,24.054 38.992,23.93z" id="path_4"/></svg>