<svg id="vector" xmlns="http://www.w3.org/2000/svg" width="75" height="67" viewBox="0 0 83 73"><path fill="#213e95" d="M64.38,51.188c-0.033,1.075 -0.207,2.033 -0.526,2.889c-0.342,0.566 -0.594,0.862 -0.756,0.886c-0.185,0 -0.269,-0.309 -0.246,-0.919c-0.285,-6.137 -0.639,-10.426 -1.064,-12.867c-0.229,-2.189 -0.543,-3.981 -0.935,-5.369c-0.146,-0.544 -0.225,-1.048 -0.246,-1.507c-0.034,-0.857 0.089,-1.843 0.375,-2.956l0.756,-2.856c0.101,-0.09 0.207,-0.134 0.33,-0.134c0.129,0 0.218,0.189 0.258,0.576c0.056,0.499 0.123,0.807 0.207,0.918c0.084,0.107 0.375,0.985 0.879,2.638c0.325,1.087 0.733,1.938 1.215,2.56c0.028,0.218 0.051,0.425 0.063,0.626c0,0.404 -0.118,0.97 -0.354,1.703s-0.397,1.237 -0.498,1.511l-0.129,0.494L64.38,51.188z" id="path_0"/><path fill="#213e95" d="M58.053,22.299l-0.672,0.05l-0.101,-0.162c2.268,-1.204 4.02,-2.335 5.269,-3.399c-0.426,-0.151 -0.711,-0.308 -0.856,-0.475c-0.426,-0.292 -0.639,-0.79 -0.639,-1.49c-0.033,-1.434 0.477,-2.497 1.529,-3.197c0.336,-0.286 0.896,-0.354 1.674,-0.202c0.801,0.443 1.198,0.97 1.198,1.597c0.219,2.352 -1.315,4.457 -4.598,6.327C59.822,21.817 58.887,22.137 58.053,22.299L58.053,22.299zM64.134,17.019c0.313,-0.118 0.476,-0.33 0.476,-0.621c0,-0.493 -0.224,-0.857 -0.672,-1.087c-0.442,-0.174 -0.924,-0.18 -1.444,-0.017c-0.364,0.264 -0.555,0.498 -0.577,0.706c-0.033,0.251 0.135,0.581 0.493,0.984c0.33,0.135 0.594,0.196 0.789,0.196C63.45,17.247 63.759,17.191 64.134,17.019z" id="path_1"/><path fill="#DD2C00" d="M41.244,31.736v-0.162c0.548,-0.768 1.332,-1.81 2.362,-3.136h0.112c0.213,0.229 0.795,0.699 1.758,1.41c0.46,0.343 0.924,0.684 1.395,1.037c0.526,-0.734 1.231,-1.664 2.116,-2.789H49.1c0.834,0.885 1.876,1.686 3.136,2.408c0.033,0.021 0.05,0.072 0.05,0.15l-2.295,3.069c-0.012,0.021 -0.045,0.027 -0.102,0.027c-0.078,0 -0.195,-0.021 -0.363,-0.079c-0.773,-0.363 -1.742,-1.125 -2.9,-2.295v-0.017l-2.017,2.704c-0.011,0.022 -0.045,0.034 -0.101,0.034c-0.078,0 -0.196,-0.028 -0.358,-0.084C43.371,33.657 42.403,32.896 41.244,31.736z" id="path_2"/><path fill="#DD2C00" d="M43.488,27.01v-0.162c0.549,-0.768 1.339,-1.809 2.364,-3.13h0.117c0.816,0.896 1.864,1.696 3.13,2.408c0.021,0.033 0.033,0.084 0.033,0.151l-2.278,3.079c-0.023,0.012 -0.057,0.017 -0.102,0.017c-0.072,0 -0.19,-0.027 -0.341,-0.079C45.622,28.931 44.647,28.169 43.488,27.01z" id="path_3"/><path fill="#DD2C00" d="M21.349,39.245c0.264,-0.174 0.397,-0.14 0.397,0.101c-0.297,0.644 -0.728,1.624 -1.299,2.934c-0.873,2.24 -1.311,4.133 -1.311,5.678c0,1.888 0.622,3.399 1.87,4.524c2.218,2.055 4.805,3.086 7.762,3.086c1.181,0 2.352,-0.18 3.511,-0.543c3.202,-1.047 5.543,-2.52 7.021,-4.424c0.437,-0.61 0.654,-1.299 0.654,-2.066c0,-0.885 -0.425,-2.228 -1.282,-4.031c-0.732,-0.61 -1.098,-1.573 -1.098,-2.884c0,-0.297 0.018,-0.739 0.051,-1.333c0.033,-0.588 0.051,-1.02 0.051,-1.287c0,-0.264 0.067,-0.656 0.213,-1.171c0.162,-0.033 0.258,0.028 0.291,0.19c0.034,0.157 0.067,0.252 0.101,0.286c0.745,1.182 1.972,1.954 3.69,2.313c2.155,0.128 3.763,-0.544 4.82,-2.017c0.319,-1.249 0.661,-2.229 1.02,-2.939c0.403,0.067 0.604,0.292 0.604,0.673c-0.027,0.637 -0.045,0.935 -0.045,0.906c0.426,1.607 1.199,2.581 2.313,2.935c1.147,0.324 2.077,0.218 2.788,-0.331c0.067,-0.128 0.027,-0.269 -0.118,-0.414c-0.14,-0.151 -0.195,-0.258 -0.162,-0.324l0.213,-4.362c0.241,-0.151 0.393,-0.213 0.459,-0.179c0.7,0.666 1.108,1.624 1.232,2.872c0.011,3.662 -0.532,6.053 -1.624,7.167c-0.823,0.297 -1.557,0.442 -2.201,0.442c-0.828,0 -1.584,-0.247 -2.262,-0.739c-0.896,-0.677 -1.428,-1.736 -1.59,-3.181c-0.319,0.291 -0.594,0.718 -0.823,1.261c-0.325,0.666 -0.56,1.097 -0.705,1.299c-1.138,1.181 -2.425,1.77 -3.87,1.77c-0.375,0 -0.738,-0.056 -1.098,-0.162c-0.033,0.336 -0.095,1.517 -0.185,3.544c-0.027,1.506 -0.263,2.659 -0.688,3.461c-1.147,2.688 -2.851,4.681 -5.118,5.969c-2.262,1.293 -4.607,1.938 -7.038,1.938c-3.617,0 -6.389,-1.367 -8.314,-4.094c-1.372,-1.971 -2.056,-4.267 -2.056,-6.893c0,-1.674 0.42,-3.635 1.255,-5.891c0.335,-0.7 0.705,-1.445 1.114,-2.245C20.296,40.286 20.783,39.67 21.349,39.245z" id="path_4"/><path fill="#DD2C00" d="M43.774,20.476c1.227,-0.632 3.063,-1.573 5.51,-2.822c0.213,-0.252 0.313,-0.375 0.313,-0.375c-0.554,-0.666 -1.395,-1.02 -2.509,-1.052c-0.963,-0.034 -1.92,-0.052 -2.872,-0.052c0.655,-1.59 1.338,-2.698 2.038,-3.319c2.089,-0.174 3.751,0.033 5,0.621c0.526,0.627 0.645,1.238 0.364,1.837c-0.112,0.387 -0.442,1.114 -0.985,2.194c-0.526,0.869 -1.108,1.58 -1.759,2.134c-0.644,0.56 -1.5,0.946 -2.575,1.165c-1.87,0.296 -2.812,0.441 -2.822,0.441c-0.252,0 -0.375,-0.05 -0.375,-0.146C43.103,20.807 43.326,20.599 43.774,20.476z" id="path_5"/></svg>