<svg id="vector" xmlns="http://www.w3.org/2000/svg" width="75" height="67" viewBox="0 0 83 73"><path fill="#DD2C00" d="M61.469,53.074c-0.034,1.076 -0.207,2.033 -0.526,2.89c-0.342,0.566 -0.594,0.862 -0.757,0.884c-0.185,0 -0.268,-0.308 -0.246,-0.918c-0.285,-6.137 -0.638,-10.426 -1.063,-12.867c-0.229,-2.189 -0.544,-3.981 -0.936,-5.37c-0.146,-0.543 -0.224,-1.047 -0.246,-1.506c-0.033,-0.856 0.09,-1.843 0.375,-2.957l0.756,-2.855c0.102,-0.09 0.208,-0.134 0.331,-0.134c0.129,0 0.218,0.19 0.257,0.576c0.057,0.499 0.123,0.807 0.208,0.918c0.084,0.106 0.375,0.986 0.879,2.638c0.324,1.086 0.733,1.938 1.215,2.559c0.027,0.218 0.051,0.425 0.063,0.627c0,0.403 -0.118,0.969 -0.354,1.702c-0.235,0.734 -0.398,1.238 -0.498,1.512l-0.13,0.493L61.469,53.074z" id="path_0"/><path fill="#DD2C00" d="M55.142,24.82l-0.673,0.05l-0.101,-0.162c2.268,-1.204 4.021,-2.335 5.27,-3.399c-0.426,-0.151 -0.711,-0.308 -0.857,-0.476c-0.425,-0.291 -0.638,-0.79 -0.638,-1.49c-0.034,-1.433 0.476,-2.497 1.528,-3.197c0.336,-0.286 0.896,-0.353 1.675,-0.202c0.801,0.442 1.198,0.969 1.198,1.595c0.218,2.353 -1.316,4.458 -4.598,6.328C56.91,24.338 55.976,24.657 55.142,24.82L55.142,24.82zM61.222,19.539c0.314,-0.118 0.477,-0.33 0.477,-0.622c0,-0.493 -0.225,-0.856 -0.673,-1.086c-0.441,-0.173 -0.923,-0.179 -1.444,-0.017c-0.363,0.264 -0.554,0.499 -0.576,0.706c-0.033,0.252 0.134,0.583 0.492,0.985c0.331,0.135 0.594,0.196 0.79,0.196C60.539,19.769 60.848,19.713 61.222,19.539z" id="path_1"/><path fill="#231f20" d="M30.123,46.254v-0.163c0.548,-0.767 1.332,-1.809 2.362,-3.135h0.112c0.212,0.229 0.795,0.699 1.758,1.411c0.459,0.342 0.924,0.683 1.395,1.036c0.526,-0.733 1.231,-1.663 2.116,-2.788h0.112c0.834,0.885 1.876,1.686 3.136,2.408c0.033,0.022 0.051,0.073 0.051,0.151l-2.296,3.068c-0.012,0.022 -0.045,0.028 -0.102,0.028c-0.078,0 -0.195,-0.022 -0.363,-0.079c-0.773,-0.363 -1.741,-1.125 -2.9,-2.296v-0.017l-2.016,2.705c-0.012,0.022 -0.045,0.034 -0.102,0.034c-0.078,0 -0.195,-0.028 -0.358,-0.084C32.25,48.175 31.281,47.413 30.123,46.254z" id="path_2"/><path fill="#231f20" d="M51.283,52.979c-1.764,1.126 -4.043,2.038 -6.843,2.738c-4.267,0.963 -7.884,1.434 -10.853,1.417c-2.967,-0.017 -5.274,-0.303 -6.915,-0.862c-1.641,-0.555 -3.079,-1.523 -4.312,-2.901c-1.063,-1.215 -1.686,-2.625 -1.87,-4.233c-0.241,-2.262 0.308,-4.704 1.657,-7.319c0.141,-0.128 0.28,-0.285 0.426,-0.465c0.141,-0.179 0.303,-0.257 0.476,-0.224l-0.016,0.397c-0.745,1.596 -1.148,3.018 -1.216,4.261c-0.034,0.437 -0.034,0.739 0,0.901c0.459,2.101 2.05,3.579 4.776,4.436c1.529,0.521 3.13,0.846 4.805,0.963c0.263,0.01 0.672,0.044 1.231,0.1c3.421,0.012 7.57,-0.392 12.448,-1.214c2.821,-0.527 4.832,-1.238 6.024,-2.134c-0.078,-0.357 -0.347,-0.767 -0.807,-1.221c-0.458,-0.453 -0.738,-0.862 -0.833,-1.22c-0.068,-1.444 0.016,-2.923 0.246,-4.429l0.195,-0.017c1.518,1.713 2.363,3.539 2.525,5.459C52.627,49.659 52.246,51.512 51.283,52.979z" id="path_3"/><path fill="#231f20" d="M33.499,38.113c1.227,-0.633 3.063,-1.574 5.51,-2.822c0.213,-0.252 0.313,-0.375 0.313,-0.375c-0.555,-0.666 -1.395,-1.019 -2.509,-1.052c-0.963,-0.034 -1.921,-0.051 -2.873,-0.051c0.655,-1.59 1.339,-2.699 2.039,-3.32c2.089,-0.173 3.752,0.034 5,0.621c0.526,0.627 0.645,1.238 0.364,1.837c-0.112,0.386 -0.442,1.114 -0.985,2.194c-0.526,0.869 -1.108,1.579 -1.759,2.134c-0.644,0.56 -1.5,0.946 -2.575,1.165c-1.87,0.296 -2.812,0.442 -2.822,0.442c-0.252,0 -0.375,-0.051 -0.375,-0.146C32.827,38.443 33.051,38.236 33.499,38.113z" id="path_4"/></svg>