<svg id="vector" xmlns="http://www.w3.org/2000/svg" width="75" height="67" viewBox="0 0 83 73"><path fill="#DD2C00" d="M62.522,45.154c-0.033,1.058 -0.202,2.015 -0.51,2.872c-0.347,0.543 -0.604,0.817 -0.767,0.817c-0.18,0.011 -0.258,-0.269 -0.247,-0.835c-0.273,-6.137 -0.66,-11.411 -1.147,-15.828c-0.229,-2.179 -0.544,-3.965 -0.935,-5.364c-0.168,-0.538 -0.258,-1.037 -0.28,-1.496c-0.012,-0.851 0.118,-1.836 0.392,-2.95l0.773,-2.855c0.095,-0.09 0.2,-0.135 0.308,-0.135c0.134,0 0.229,0.185 0.279,0.56c0.045,0.51 0.106,0.818 0.191,0.924c0.084,0.106 0.38,0.986 0.896,2.649c0.325,1.08 0.728,1.932 1.198,2.559c0.027,0.207 0.045,0.408 0.045,0.604c0.022,0.414 -0.09,0.985 -0.337,1.713c-0.245,0.729 -0.407,1.232 -0.497,1.518l-0.118,0.493L62.522,45.154z" id="path_0"/><path fill="#DD2C00" d="M56.341,58.891l1.02,-3.035l9.888,-4.345c0.135,-0.034 0.196,-0.018 0.196,0.044c0,0.034 -0.017,0.118 -0.05,0.247l-1.328,3.152l-9.496,4.25c-0.123,0.011 -0.195,0.011 -0.229,0C56.296,59.137 56.296,59.03 56.341,58.891z" id="path_1"/><path fill="#000001" d="M19.379,33.126c0.264,-0.173 0.398,-0.14 0.398,0.101c-0.297,0.645 -0.729,1.624 -1.299,2.935c-0.874,2.24 -1.311,4.133 -1.311,5.678c0,1.887 0.621,3.399 1.869,4.524c2.218,2.055 4.805,3.086 7.762,3.086c1.182,0 2.352,-0.18 3.51,-0.544c3.204,-1.048 5.544,-2.52 7.022,-4.424c0.437,-0.61 0.654,-1.299 0.654,-2.066c0,-0.884 -0.425,-2.229 -1.281,-4.031c-0.733,-0.61 -1.099,-1.573 -1.099,-2.883c0,-0.298 0.018,-0.74 0.052,-1.333c0.032,-0.588 0.05,-1.02 0.05,-1.288c0,-0.264 0.067,-0.655 0.213,-1.17c0.162,-0.034 0.258,0.028 0.292,0.189c0.033,0.157 0.066,0.253 0.1,0.286c0.745,1.182 1.972,1.954 3.69,2.313c2.155,0.128 3.763,-0.544 4.82,-2.017c0.32,-1.249 0.662,-2.229 1.02,-2.94c0.404,0.067 0.605,0.292 0.605,0.672c-0.029,0.639 -0.045,0.936 -0.045,0.908c0.425,1.607 1.198,2.581 2.313,2.934c1.148,0.325 2.076,0.219 2.788,-0.33c0.067,-0.129 0.028,-0.269 -0.117,-0.414c-0.14,-0.151 -0.196,-0.259 -0.162,-0.325l0.212,-4.362c0.241,-0.151 0.393,-0.213 0.459,-0.179c0.7,0.666 1.109,1.623 1.232,2.872c0.012,3.662 -0.532,6.053 -1.624,7.168c-0.823,0.297 -1.557,0.442 -2.2,0.442c-0.829,0 -1.584,-0.247 -2.263,-0.739c-0.896,-0.679 -1.428,-1.736 -1.59,-3.181c-0.319,0.291 -0.594,0.717 -0.823,1.26c-0.325,0.666 -0.56,1.098 -0.705,1.3c-1.137,1.181 -2.425,1.77 -3.87,1.77c-0.375,0 -0.738,-0.057 -1.097,-0.163c-0.034,0.336 -0.096,1.518 -0.186,3.544c-0.027,1.507 -0.263,2.66 -0.688,3.46c-1.147,2.688 -2.85,4.682 -5.117,5.97c-2.263,1.294 -4.608,1.938 -7.038,1.938c-3.617,0 -6.39,-1.366 -8.315,-4.093c-1.372,-1.972 -2.056,-4.268 -2.056,-6.894c0,-1.674 0.42,-3.634 1.254,-5.891c0.337,-0.7 0.706,-1.444 1.115,-2.245C18.327,34.168 18.813,33.552 19.379,33.126z" id="path_2"/><path fill="#000001" d="M39.435,21.468c1.228,-0.633 3.063,-1.574 5.511,-2.823c0.212,-0.251 0.313,-0.375 0.313,-0.375c-0.555,-0.666 -1.395,-1.02 -2.51,-1.053c-0.962,-0.033 -1.92,-0.05 -2.871,-0.05c0.654,-1.591 1.337,-2.699 2.037,-3.32c2.089,-0.174 3.752,0.033 5.001,0.621c0.525,0.628 0.645,1.237 0.363,1.837c-0.111,0.386 -0.442,1.113 -0.985,2.194c-0.526,0.868 -1.107,1.58 -1.758,2.134c-0.645,0.56 -1.5,0.946 -2.575,1.164c-1.871,0.297 -2.812,0.442 -2.823,0.442c-0.251,0 -0.375,-0.05 -0.375,-0.146C38.763,21.797 38.986,21.59 39.435,21.468z" id="path_3"/></svg>