<svg id="vector" xmlns="http://www.w3.org/2000/svg" width="75" height="67" viewBox="0 0 83 73"><path fill="#DD2C00" d="M59.268,53.301c-0.033,1.075 -0.207,2.031 -0.525,2.889c-0.342,0.566 -0.595,0.862 -0.757,0.884c-0.185,0 -0.269,-0.308 -0.246,-0.918c-0.285,-6.137 -0.639,-10.426 -1.063,-12.867c-0.229,-2.188 -0.544,-3.98 -0.936,-5.37c-0.146,-0.543 -0.224,-1.046 -0.246,-1.505c-0.034,-0.857 0.089,-1.843 0.375,-2.957l0.756,-2.855c0.101,-0.09 0.207,-0.135 0.33,-0.135c0.129,0 0.219,0.19 0.258,0.577c0.056,0.498 0.123,0.806 0.207,0.918c0.084,0.105 0.375,0.985 0.879,2.637c0.325,1.087 0.734,1.938 1.216,2.56c0.027,0.218 0.05,0.426 0.062,0.627c0,0.403 -0.118,0.969 -0.354,1.702c-0.234,0.733 -0.397,1.237 -0.498,1.512l-0.129,0.493L59.268,53.301z" id="path_0"/><path fill="#DD2C00" d="M52.94,24.41l-0.672,0.051l-0.101,-0.162c2.268,-1.205 4.02,-2.336 5.27,-3.399c-0.426,-0.151 -0.712,-0.308 -0.857,-0.476c-0.426,-0.292 -0.638,-0.79 -0.638,-1.489c-0.034,-1.435 0.476,-2.498 1.528,-3.198c0.336,-0.285 0.896,-0.353 1.674,-0.201c0.801,0.442 1.198,0.969 1.198,1.596c0.219,2.352 -1.315,4.457 -4.597,6.328C54.71,23.929 53.774,24.247 52.94,24.41L52.94,24.41zM59.021,19.13c0.313,-0.117 0.476,-0.331 0.476,-0.622c0,-0.491 -0.224,-0.856 -0.672,-1.086c-0.442,-0.173 -0.923,-0.179 -1.444,-0.017c-0.363,0.263 -0.554,0.498 -0.577,0.705c-0.033,0.253 0.135,0.583 0.493,0.985c0.331,0.136 0.594,0.197 0.79,0.197C58.338,19.359 58.646,19.304 59.021,19.13z" id="path_1"/><path fill="#008046" d="M40.991,37.744v-0.161c0.549,-0.768 1.333,-1.809 2.363,-3.137h0.112c0.834,0.896 1.875,1.709 3.135,2.432c0.034,0.032 0.051,0.072 0.051,0.128l-2.279,3.085c-0.021,0.012 -0.062,0.018 -0.117,0.018c-0.067,0 -0.179,-0.028 -0.342,-0.084C43.125,39.665 42.15,38.903 40.991,37.744z" id="path_2"/><path fill="#008046" d="M23.28,53.804c1.014,0.028 2.347,-0.034 3.987,-0.201c1.859,-0.196 3.169,-0.292 3.937,-0.292c0.229,0 0.521,-0.178 0.867,-0.526c0.297,-0.699 0.589,-1.389 0.885,-2.071c0.342,-0.795 0.51,-1.534 0.51,-2.212c0.067,-1.842 0.056,-4.339 -0.033,-7.503c-0.09,-3.763 -0.135,-6.271 -0.135,-7.52c0,-1.059 0.011,-2.066 0.033,-3.019c0.297,-1.041 0.813,-2.587 1.558,-4.63l0.357,0.296c0.034,0.129 0.146,0.963 0.348,2.509c0.129,0.985 0.353,1.775 0.672,2.38l-0.135,0.045c0.712,0.879 1.069,1.533 1.069,1.971c0,0.229 -0.084,0.526 -0.246,0.885c-0.263,0.481 -0.414,0.772 -0.442,0.868l-1.266,1.971c0,1.976 0,5.163 0,9.559c0,0.033 -0.056,0.179 -0.162,0.431c-0.033,0.162 -0.017,0.308 0.051,0.442c2.077,-3.152 4.832,-4.726 8.265,-4.726c0.437,0 0.879,0.033 1.327,0.101c2.475,0.633 4.199,1.937 5.185,3.909c-0.303,5.161 -2.016,8.191 -5.135,9.104c-4.513,1.316 -8.136,1.971 -10.862,1.971c-2.083,0 -3.942,-0.341 -5.583,-1.018c-1.31,-0.325 -3.208,-1.02 -5.694,-2.067C22.637,54.325 22.854,54.106 23.28,53.804L23.28,53.804zM42.223,46.944c-0.263,-0.033 -0.548,-0.05 -0.856,-0.05c-1.702,0 -3.343,0.627 -4.916,1.882c-1.383,1.097 -2.514,2.525 -3.399,4.289c2.33,-0.068 5.499,-0.393 9.497,-0.97c0.33,-0.134 1.232,-0.387 2.71,-0.756c1.114,-0.296 1.988,-0.615 2.627,-0.968v-0.594C46.266,48.082 44.379,47.135 42.223,46.944z" id="path_3"/><path fill="#008046" d="M41.519,31.451c1.226,-0.632 3.063,-1.573 5.509,-2.822c0.213,-0.251 0.314,-0.375 0.314,-0.375c-0.556,-0.666 -1.396,-1.019 -2.51,-1.052c-0.963,-0.034 -1.92,-0.052 -2.872,-0.052c0.655,-1.59 1.338,-2.698 2.038,-3.319c2.089,-0.174 3.752,0.033 5.001,0.621c0.525,0.627 0.644,1.238 0.363,1.837c-0.112,0.387 -0.442,1.114 -0.985,2.194c-0.526,0.869 -1.108,1.58 -1.758,2.134c-0.645,0.56 -1.501,0.946 -2.576,1.165c-1.87,0.296 -2.811,0.441 -2.822,0.441c-0.252,0 -0.375,-0.05 -0.375,-0.146C40.846,31.782 41.069,31.575 41.519,31.451z" id="path_4"/></svg>