<svg id="vector" xmlns="http://www.w3.org/2000/svg" width="75" height="67" viewBox="0 0 83 73"><path fill="#DD2C00" d="M55.248,50.729c-0.033,1.075 -0.207,2.033 -0.525,2.889c-0.342,0.566 -0.594,0.863 -0.756,0.886c-0.184,0 -0.268,-0.308 -0.246,-0.918c-0.285,-6.138 -0.639,-10.427 -1.064,-12.867c-0.229,-2.19 -0.543,-3.981 -0.936,-5.37c-0.145,-0.543 -0.223,-1.048 -0.246,-1.507c-0.033,-0.857 0.09,-1.842 0.375,-2.956l0.756,-2.856c0.102,-0.089 0.207,-0.134 0.332,-0.134c0.127,0 0.217,0.19 0.256,0.576c0.057,0.499 0.125,0.807 0.209,0.919c0.082,0.106 0.375,0.985 0.877,2.638c0.326,1.086 0.734,1.938 1.215,2.559c0.029,0.219 0.053,0.426 0.063,0.626c0,0.404 -0.117,0.97 -0.352,1.703c-0.236,0.733 -0.398,1.237 -0.498,1.513l-0.131,0.492L55.248,50.729z" id="path_0"/><path fill="#DD2C00" d="M48.922,24.21l-0.672,0.05l-0.102,-0.162c2.268,-1.204 4.021,-2.335 5.27,-3.398c-0.426,-0.151 -0.711,-0.308 -0.855,-0.476c-0.428,-0.292 -0.639,-0.79 -0.639,-1.49c-0.035,-1.434 0.475,-2.497 1.527,-3.197c0.338,-0.285 0.896,-0.354 1.674,-0.201c0.803,0.442 1.199,0.969 1.199,1.596c0.219,2.352 -1.316,4.457 -4.598,6.327C50.691,23.729 49.756,24.048 48.922,24.21L48.922,24.21zM55.004,18.93c0.313,-0.118 0.475,-0.33 0.475,-0.621c0,-0.493 -0.225,-0.857 -0.672,-1.087c-0.443,-0.174 -0.924,-0.18 -1.445,-0.017c-0.363,0.264 -0.555,0.498 -0.576,0.705c-0.033,0.253 0.135,0.582 0.492,0.985c0.332,0.135 0.594,0.197 0.791,0.197C54.32,19.159 54.629,19.103 55.004,18.93z" id="path_1"/><path fill="#008046" d="M29.266,57.464c-0.92,0.034 -1.713,0.13 -2.381,0.281c-0.15,-0.118 -0.229,-0.286 -0.229,-0.494c2.48,-0.94 5.645,-2.458 9.48,-4.552c-0.035,0.057 0.609,-0.324 1.92,-1.148c0.928,-0.716 1.572,-1.388 1.938,-2.015c0,-0.818 -0.123,-1.714 -0.365,-2.683c-0.381,-0.851 -0.873,-1.753 -1.473,-2.704l0.506,-4.815h0.279c0.963,2.194 1.545,3.778 1.74,4.748c0.459,1.848 0.656,3.482 0.588,4.916c-0.01,0.896 -0.184,1.948 -0.525,3.163c-0.74,2.313 -2.313,3.836 -4.703,4.57C34.904,57.078 32.641,57.324 29.266,57.464z" id="path_2"/><path fill="#008046" d="M35.201,32.97c1.227,-0.633 3.063,-1.573 5.51,-2.822c0.213,-0.251 0.313,-0.375 0.313,-0.375c-0.555,-0.666 -1.395,-1.019 -2.508,-1.053c-0.963,-0.033 -1.92,-0.05 -2.873,-0.05c0.656,-1.591 1.338,-2.699 2.039,-3.32c2.088,-0.174 3.752,0.033 5,0.621c0.525,0.627 0.645,1.237 0.363,1.837c-0.111,0.386 -0.443,1.113 -0.986,2.194c-0.525,0.868 -1.107,1.579 -1.758,2.134c-0.643,0.56 -1.5,0.946 -2.574,1.164c-1.871,0.297 -2.811,0.443 -2.822,0.443c-0.252,0 -0.375,-0.051 -0.375,-0.146C34.529,33.3 34.752,33.093 35.201,32.97z" id="path_3"/></svg>