<svg id="vector" xmlns="http://www.w3.org/2000/svg" width="75" height="67" viewBox="0 0 83 73"><path fill="#DD2C00" d="M56.674,45.38c-0.034,1.059 -0.202,2.016 -0.51,2.873c-0.347,0.543 -0.604,0.818 -0.768,0.818c-0.178,0.011 -0.257,-0.269 -0.245,-0.834c-0.274,-6.137 -0.661,-11.412 -1.147,-15.83c-0.23,-2.178 -0.544,-3.964 -0.936,-5.364c-0.168,-0.537 -0.258,-1.036 -0.28,-1.495c-0.011,-0.851 0.117,-1.836 0.392,-2.951l0.772,-2.855c0.096,-0.09 0.202,-0.134 0.309,-0.134c0.134,0 0.229,0.185 0.28,0.56c0.044,0.509 0.105,0.817 0.19,0.924c0.084,0.107 0.38,0.986 0.895,2.648c0.325,1.081 0.729,1.932 1.199,2.559c0.027,0.208 0.044,0.409 0.044,0.605c0.023,0.414 -0.089,0.985 -0.335,1.713c-0.246,0.728 -0.409,1.232 -0.499,1.518l-0.116,0.493L56.674,45.38z" id="path_0"/><path fill="#DD2C00" d="M50.492,59.117l1.02,-3.035l9.888,-4.345c0.135,-0.034 0.197,-0.017 0.197,0.044c0,0.034 -0.018,0.118 -0.052,0.247l-1.326,3.152l-9.497,4.25c-0.123,0.011 -0.195,0.011 -0.229,0C50.447,59.364 50.447,59.257 50.492,59.117z" id="path_1"/><path fill="#0992d1" d="M21.817,41.432c1.104,-4.586 3.383,-7.928 6.837,-10.028c0.409,-0.325 1.037,-0.768 1.887,-1.327c-0.335,-0.185 -0.8,-0.291 -1.394,-0.325c-0.588,-0.034 -1.164,-0.062 -1.719,-0.084c-0.846,0.022 -1.691,0.033 -2.548,0.033c-0.919,0.151 -1.552,0.611 -1.898,1.378c-0.18,0.644 -0.471,1.069 -0.89,1.266c0.033,-1.411 0.548,-3.052 1.545,-4.922c0.7,-1.327 2.033,-1.987 4.004,-1.987c0.29,0 0.789,0.011 1.489,0.033c0.7,0.023 1.221,0.034 1.562,0.034c3.512,0.392 6.58,0.37 9.217,-0.067c0.218,0.022 0.543,-0.006 0.975,-0.084c0.437,-0.078 0.745,-0.118 0.929,-0.118c0.415,0 0.757,0.112 1.02,0.331c-0.168,0.302 -0.369,0.777 -0.61,1.422c-0.174,0.442 -0.357,0.896 -0.549,1.372c-0.189,0.476 -0.465,0.84 -0.828,1.092c-1.181,0.118 -3.69,0.778 -7.531,1.971c-2.755,1.17 -4.923,2.582 -6.495,4.233c-2.218,2.172 -3.416,4.552 -3.589,7.134c-0.275,1.466 0.122,2.878 1.192,4.232c0.845,1.215 1.954,2.223 3.332,3.019c2.811,1.764 6.77,2.643 11.876,2.643c1.522,0 3.891,-0.331 7.104,-0.986c0.13,0.034 0.325,0.006 0.589,-0.089c0.263,-0.096 0.437,-0.14 0.526,-0.14c0.174,0 0.279,0.162 0.313,0.493c0.062,0.195 -0.156,0.492 -0.655,0.884c-2.564,1.439 -4.474,2.402 -5.745,2.895c-2.217,0.885 -4.339,1.288 -6.366,1.209c-2.984,-0.129 -5.571,-0.678 -7.755,-1.641c-2.005,-0.851 -3.398,-1.982 -4.183,-3.393c-1.339,-2.279 -2.022,-4.339 -2.055,-6.187c0,-0.347 0.027,-1.372 0.083,-3.068C21.544,42.383 21.649,41.975 21.817,41.432z" id="path_2"/><path fill="#0992d1" d="M30.609,21.24c1.227,-0.632 3.063,-1.573 5.51,-2.822c0.212,-0.252 0.313,-0.375 0.313,-0.375c-0.555,-0.667 -1.395,-1.02 -2.51,-1.053c-0.962,-0.033 -1.92,-0.05 -2.871,-0.05c0.654,-1.591 1.337,-2.699 2.037,-3.321c2.089,-0.173 3.752,0.034 5.001,0.622c0.525,0.627 0.645,1.237 0.363,1.836c-0.111,0.386 -0.442,1.114 -0.985,2.195c-0.526,0.868 -1.107,1.579 -1.758,2.133c-0.645,0.56 -1.5,0.946 -2.575,1.165c-1.871,0.297 -2.812,0.442 -2.823,0.442c-0.251,0 -0.375,-0.05 -0.375,-0.146C29.937,21.571 30.16,21.363 30.609,21.24z" id="path_3"/></svg>