<svg id="vector" xmlns="http://www.w3.org/2000/svg" width="75" height="67" viewBox="0 0 83 73"><path fill="#DD2C00" d="M55.249,50.729c-0.033,1.075 -0.207,2.033 -0.526,2.889c-0.342,0.566 -0.594,0.863 -0.756,0.886c-0.185,0 -0.27,-0.308 -0.246,-0.918c-0.286,-6.138 -0.639,-10.427 -1.064,-12.867c-0.229,-2.19 -0.543,-3.981 -0.935,-5.37c-0.146,-0.543 -0.225,-1.048 -0.247,-1.507c-0.033,-0.857 0.09,-1.842 0.375,-2.956l0.757,-2.856c0.101,-0.089 0.206,-0.134 0.33,-0.134c0.129,0 0.218,0.19 0.257,0.576c0.057,0.499 0.123,0.807 0.208,0.919c0.084,0.106 0.375,0.985 0.879,2.638c0.325,1.086 0.733,1.938 1.215,2.559c0.028,0.219 0.051,0.426 0.062,0.626c0,0.404 -0.117,0.97 -0.353,1.703s-0.397,1.237 -0.498,1.513l-0.129,0.492L55.249,50.729z" id="path_0"/><path fill="#DD2C00" d="M48.922,24.21l-0.673,0.05l-0.101,-0.162c2.269,-1.204 4.021,-2.335 5.27,-3.398c-0.426,-0.151 -0.711,-0.308 -0.856,-0.476c-0.426,-0.292 -0.639,-0.79 -0.639,-1.49c-0.034,-1.434 0.476,-2.497 1.529,-3.197c0.335,-0.285 0.895,-0.354 1.674,-0.201c0.801,0.442 1.198,0.969 1.198,1.596c0.218,2.352 -1.316,4.457 -4.598,6.327C50.691,23.729 49.756,24.048 48.922,24.21L48.922,24.21zM55.002,18.93c0.314,-0.118 0.477,-0.33 0.477,-0.621c0,-0.493 -0.224,-0.857 -0.672,-1.087c-0.442,-0.174 -0.924,-0.18 -1.445,-0.017c-0.363,0.264 -0.554,0.498 -0.576,0.705c-0.033,0.253 0.134,0.582 0.492,0.985c0.331,0.135 0.594,0.197 0.79,0.197C54.319,19.159 54.627,19.103 55.002,18.93z" id="path_1"/><path fill="#000001" d="M35.301,35.123v-0.162c0.549,-0.768 1.333,-1.81 2.363,-3.136h0.111c0.835,0.896 1.876,1.707 3.137,2.43c0.033,0.033 0.05,0.073 0.05,0.129l-2.278,3.085c-0.023,0.012 -0.063,0.018 -0.118,0.018c-0.067,0 -0.18,-0.028 -0.342,-0.084C37.435,37.044 36.46,36.281 35.301,35.123z" id="path_2"/><path fill="#000001" d="M29.265,57.464c-0.918,0.034 -1.713,0.13 -2.38,0.281c-0.151,-0.118 -0.229,-0.286 -0.229,-0.494c2.481,-0.94 5.645,-2.458 9.48,-4.552c-0.034,0.057 0.609,-0.324 1.92,-1.148c0.93,-0.716 1.574,-1.388 1.938,-2.015c0,-0.818 -0.123,-1.714 -0.363,-2.683c-0.381,-0.851 -0.874,-1.753 -1.474,-2.704l0.504,-4.815h0.28c0.963,2.194 1.546,3.778 1.742,4.748c0.459,1.848 0.654,3.482 0.587,4.916c-0.011,0.896 -0.185,1.948 -0.525,3.163c-0.739,2.313 -2.313,3.836 -4.704,4.57C34.903,57.078 32.642,57.324 29.265,57.464z" id="path_3"/><path fill="#000001" d="M35.2,28.229c1.227,-0.632 3.063,-1.573 5.51,-2.821c0.213,-0.253 0.313,-0.375 0.313,-0.375c-0.555,-0.666 -1.395,-1.02 -2.509,-1.053c-0.963,-0.034 -1.92,-0.05 -2.872,-0.05c0.655,-1.592 1.338,-2.699 2.038,-3.321c2.089,-0.174 3.752,0.033 5,0.622c0.526,0.627 0.645,1.237 0.364,1.836c-0.112,0.387 -0.442,1.114 -0.985,2.195c-0.526,0.868 -1.108,1.579 -1.759,2.133c-0.644,0.561 -1.5,0.946 -2.575,1.165c-1.87,0.297 -2.811,0.442 -2.822,0.442c-0.252,0 -0.375,-0.051 -0.375,-0.146C34.528,28.561 34.752,28.354 35.2,28.229z" id="path_4"/></svg>