<svg id="vector" xmlns="http://www.w3.org/2000/svg" width="75" height="67" viewBox="0 0 83 73"><path fill="#000000" d="M47.902,24.405l0.205,0.206v0.196c-0.701,3.604 -2.24,5.406 -4.605,5.406c-2.973,0 -6.303,1.333 -10.012,4.007c-4.133,3.467 -6.209,7.405 -6.209,11.804c0,5.979 3.408,10.113 10.217,12.411l7.004,0.606l11.215,-0.803h2.195l0.205,0.196v0.205c0,0.77 -2.068,1.904 -6.211,3.398c-1.682,0.735 -5.15,1.538 -10.412,2.41c-6.832,0 -11.172,-1.742 -13.008,-5.211c-2.135,-3.135 -3.203,-6.808 -3.203,-11.01c0,-6.842 2.803,-12.71 8.406,-17.612h-4.4c-1.068,0 -2.4,0.931 -4.006,2.802l-0.4,-0.402v-0.401c1.33,-5.073 3.408,-7.61 6.209,-7.61C31.621,25.141 37.225,24.944 47.902,24.405z" id="path_0"/><path fill="#000000" d="M44.699,8.588c0.205,-0.12 0.264,0.067 0.178,0.555C43.742,11.807 42,13.67 39.65,14.72l-8.635,4.331c-0.367,-0.103 -0.436,-0.4 -0.205,-0.905c1.152,-2.221 1.938,-3.536 2.357,-3.955L44.699,8.588z" id="path_1"/></svg>