<svg id="vector" xmlns="http://www.w3.org/2000/svg" width="75" height="67" viewBox="0 0 83 73"><path fill="#000201" d="M47.906,28.458l0.197,0.206v0.195c-0.701,3.604 -2.23,5.407 -4.604,5.407c-2.964,0 -6.304,1.333 -10.011,4.006c-4.134,3.468 -6.201,7.406 -6.201,11.805c0,5.979 3.399,10.112 10.207,12.411l7.013,0.606l11.207,-0.803h2.203l0.196,0.196v0.205c0,0.77 -2.066,1.904 -6.201,3.398c-1.691,0.735 -5.159,1.538 -10.412,2.409c-6.842,0 -11.181,-1.742 -13.009,-5.21c-2.136,-3.135 -3.203,-6.808 -3.203,-11.011c0,-6.842 2.801,-12.709 8.405,-17.611h-4.408c-1.067,0 -2.399,0.931 -3.997,2.801l-0.401,-0.401v-0.402c1.332,-5.072 3.4,-7.61 6.201,-7.61C31.626,29.192 37.229,28.996 47.906,28.458z" id="path_0"/><path fill="#000201" d="M37.298,15.8H37.7c0.965,0 2.365,0.932 4.202,2.802v0.196c0,0.871 -0.804,2.203 -2.401,4.006c-2.81,-0.734 -4.211,-1.733 -4.211,-3.007C35.692,18.362 36.358,17.03 37.298,15.8z" id="path_1"/><path fill="#009649" d="M43.746,4.533c0.205,-0.119 0.265,0.068 0.179,0.555c-1.136,2.665 -2.878,4.528 -5.227,5.578l-8.636,4.33c-0.366,-0.102 -0.436,-0.4 -0.204,-0.905c1.152,-2.221 1.938,-3.535 2.357,-3.954L43.746,4.533z" id="path_2"/></svg>