<svg id="vector" xmlns="http://www.w3.org/2000/svg" width="75" height="67" viewBox="0 0 83 73"><path fill="#120BDF" d="M47.902,37.393h0.4c3.236,0 5.441,3.262 6.611,9.806v3.006c0,1.435 -0.803,3.365 -2.4,5.8c-3.775,4.809 -7.645,7.209 -11.615,7.209c-6.568,0 -10.711,-2.998 -12.412,-9.011l-0.4,-3.4v-0.195c0,-4.511 1.332,-8.243 4.006,-11.216l1.203,-0.802c0.266,0 0.395,0.204 0.395,0.605c-0.795,1.999 -1.598,3.571 -2.4,4.697c-0.805,1.137 -1.264,2.374 -1.402,3.707c0,4.972 2.342,8.175 7.006,9.609l3.604,0.401h0.205c5.27,0 9.609,-2.469 13.01,-7.405v-0.606c0,-0.7 -0.402,-1.435 -1.197,-2.194l-3.203,0.793c-3.604,-0.366 -5.406,-1.767 -5.406,-4.201v-0.402c0.299,-4.006 1.23,-6.004 2.801,-6.004L47.902,37.393z" id="path_0"/><path fill="#120BDF" d="M41.701,27.579c1.563,0.47 3.168,1.469 4.801,3.006v0.197c-1.496,2.64 -2.367,3.973 -2.598,4.006h-0.605c-1.129,-0.171 -2.334,-0.905 -3.598,-2.204v-0.196C39.83,30.816 40.496,29.218 41.701,27.579z" id="path_1"/><path fill="#120BDF" d="M49.311,26.579c1.461,0.333 2.93,1.205 4.4,2.605v0.197c0,0.733 -0.805,2.066 -2.4,4.006h-0.598c-0.941,0 -2.137,-0.735 -3.605,-2.205C47.475,29.117 48.209,27.579 49.311,26.579z" id="path_2"/><path fill="#009649" d="M43.35,9.788c2.049,0 3.074,1.264 3.074,3.784c0,4.014 -3.424,7.438 -10.283,10.258c-0.982,0.299 -1.102,-0.06 -0.35,-1.077c0.188,-0.384 1.801,-1.588 4.852,-3.604v-0.171c-1.316,-0.538 -1.975,-1.683 -1.975,-3.435c0.871,-3.835 2.256,-5.756 4.15,-5.756H43.35L43.35,9.788zM40.291,14.119c0,1.066 0.906,1.725 2.709,1.981h0.35c0.666,0 1.094,-0.248 1.271,-0.728c0,-1.085 -0.785,-1.929 -2.348,-2.526C41.59,12.846 40.932,13.272 40.291,14.119z" id="path_3"/></svg>