<svg id="vector" xmlns="http://www.w3.org/2000/svg" width="75" height="67" viewBox="0 0 83 73"><path fill="#000000" d="M60.415,26.08h0.401c0.471,0 0.735,1.332 0.803,4.006v0.795c0,4.406 -1.332,6.611 -4.006,6.611c-2.536,-0.701 -3.801,-1.572 -3.801,-2.605h-0.195c-0.803,2.135 -2.076,3.203 -3.811,3.203l-1.998,-0.197c0.102,1 0.102,1.734 0,2.195c-0.666,4.006 -2.127,7.32 -4.383,9.951c-2.245,2.631 -5.193,3.98 -8.831,4.064h-0.803c-5.741,0 -9.806,-3.203 -12.206,-9.609l-0.205,-2.801v-0.803c0.4,-6.475 2.271,-10.412 5.603,-11.813l0.206,0.205v0.197l-3.008,5.004c-0.563,1.17 -0.964,2.639 -1.195,4.408c0,4.168 2.802,7.234 8.405,9.207l1.998,0.195h1.605c4.536,0 8.475,-2.467 11.813,-7.404v-0.195c-0.273,-1.939 -1.272,-4.143 -3.006,-6.611l-0.197,-1v-3.801l0.402,-0.4h0.195c1.572,2.271 3.502,3.398 5.809,3.398h0.197c1.767,0 3.1,-1.332 4.006,-3.996l0.195,-0.205h0.402l0.4,0.4v0.598l-0.195,0.803c0.794,1.205 1.861,1.803 3.203,1.803h0.195c1.205,0 1.803,-1.137 1.803,-3.398L60.415,26.08z" id="path_0"/><path fill="#000000" d="M47.859,17.07c0.828,0 2.297,0.998 4.398,3.006c0,0.666 -0.794,2.135 -2.4,4.398h-0.4c-0.829,0 -2.102,-0.795 -3.802,-2.4v-0.195C45.655,21.076 46.391,19.471 47.859,17.07z" id="path_1"/><path fill="#000000" d="M55.068,16.07c3.331,1.434 4.997,2.57 4.997,3.4c-0.196,0.639 -1.128,2.039 -2.802,4.209c-2.229,-0.871 -3.835,-1.871 -4.801,-3.006C53.164,18.436 54.026,16.906 55.068,16.07z" id="path_2"/><path fill="#000000" d="M50.26,10.262c3.065,1.271 4.604,2.34 4.604,3.203l-2.605,4.006h-0.196c-0.563,0 -2.101,-0.803 -4.604,-2.4C48.688,11.867 49.628,10.262 50.26,10.262z" id="path_3"/><path fill="#e2610a" d="M54.658,52.277c0.205,-0.111 0.265,0.068 0.179,0.555c-1.136,2.666 -2.878,4.527 -5.228,5.578l-8.635,4.33c-0.368,-0.104 -0.436,-0.402 -0.205,-0.898c1.153,-2.221 1.938,-3.535 2.358,-3.953L54.658,52.277z" id="path_4"/></svg>