<svg id="vector" xmlns="http://www.w3.org/2000/svg" width="75" height="67" viewBox="0 0 83 73"><path fill="#120BDF" d="M37.293,40.626h0.401c0.965,0 2.366,0.932 4.203,2.803v0.197c0,0.869 -0.795,2.203 -2.4,4.006c-2.803,-0.736 -4.203,-1.736 -4.203,-3.008C35.696,43.188 36.361,41.856 37.293,40.626z" id="path_0"/><path fill="#120BDF" d="M47.902,24.405l0.204,0.205v0.197c-0.7,3.605 -2.238,5.406 -4.604,5.406c-2.972,0 -6.305,1.334 -10.01,4.006c-4.136,3.469 -6.211,7.406 -6.211,11.805c0,5.98 3.408,10.113 10.217,12.41l7.003,0.607l11.215,-0.803h2.195l0.205,0.195v0.205c0,0.77 -2.067,1.906 -6.209,3.4c-1.684,0.734 -5.151,1.537 -10.413,2.408c-6.833,0 -11.172,-1.742 -13.009,-5.211c-2.135,-3.133 -3.203,-6.807 -3.203,-11.008c0,-6.842 2.802,-12.711 8.405,-17.613H29.29c-1.068,0 -2.4,0.932 -4.007,2.801l-0.4,-0.4v-0.402c1.332,-5.072 3.407,-7.609 6.209,-7.609C31.621,25.142 37.225,24.944 47.902,24.405z" id="path_1"/><path fill="#000001" d="M44.023,8.587c0.205,-0.119 0.266,0.07 0.18,0.557c-1.136,2.664 -2.879,4.527 -5.229,5.578l-8.634,4.328c-0.368,-0.102 -0.437,-0.4 -0.205,-0.904c1.152,-2.221 1.938,-3.537 2.357,-3.955L44.023,8.587z" id="path_2"/></svg>