<svg id="vector" xmlns="http://www.w3.org/2000/svg" width="75" height="67" viewBox="0 0 83 73"><path fill="#C60505" d="M60.415,34.98h0.401c0.47,0 0.735,1.332 0.803,4.006v0.795c0,4.406 -1.333,6.611 -4.006,6.611c-2.536,-0.701 -3.801,-1.572 -3.801,-2.605h-0.196c-0.803,2.135 -2.075,3.203 -3.81,3.203l-1.999,-0.197c0.103,1 0.103,1.734 0,2.195c-0.665,4.006 -2.126,7.32 -4.382,9.951c-2.246,2.631 -5.193,3.98 -8.831,4.066h-0.803c-5.741,0 -9.806,-3.203 -12.206,-9.609l-0.205,-2.803v-0.803c0.4,-6.475 2.271,-10.412 5.603,-11.813l0.206,0.205v0.197l-3.008,5.004c-0.563,1.172 -0.964,2.641 -1.195,4.408c0,4.168 2.802,7.234 8.405,9.207l1.998,0.197h1.605c4.536,0 8.474,-2.469 11.813,-7.406v-0.195c-0.272,-1.939 -1.272,-4.143 -3.006,-6.611l-0.197,-1v-3.801l0.402,-0.4h0.196c1.572,2.271 3.502,3.398 5.808,3.398h0.197c1.768,0 3.101,-1.332 4.006,-3.996l0.196,-0.205h0.402l0.4,0.4v0.598l-0.196,0.803c0.794,1.205 1.861,1.803 3.204,1.803h0.195c1.205,0 1.803,-1.135 1.803,-3.398L60.415,34.98z" id="path_0"/><path fill="#C60505" d="M47.858,25.971c0.829,0 2.298,0.998 4.399,3.006c0,0.666 -0.794,2.135 -2.4,4.398h-0.401c-0.828,0 -2.101,-0.793 -3.801,-2.4v-0.195C45.655,29.977 46.39,28.371 47.858,25.971z" id="path_1"/><path fill="#C60505" d="M55.067,24.971c3.332,1.434 4.997,2.57 4.997,3.4c-0.196,0.639 -1.128,2.039 -2.801,4.211c-2.229,-0.873 -3.835,-1.873 -4.801,-3.008C53.163,27.336 54.026,25.807 55.067,24.971z" id="path_2"/><path fill="#C60505" d="M50.259,19.162c3.066,1.271 4.604,2.34 4.604,3.203l-2.605,4.006h-0.196c-0.563,0 -2.102,-0.803 -4.604,-2.4C48.688,20.768 49.627,19.162 50.259,19.162z" id="path_3"/><path fill="#1305c6" d="M52.48,10.031c0.205,-0.119 0.266,0.068 0.179,0.557c-1.135,2.664 -2.878,4.525 -5.228,5.576l-8.635,4.33c-0.367,-0.102 -0.436,-0.4 -0.205,-0.904c1.153,-2.223 1.939,-3.537 2.357,-3.955L52.48,10.031z" id="path_4"/></svg>