<svg id="vector" xmlns="http://www.w3.org/2000/svg" width="75" height="67" viewBox="0 0 83 73"><path fill="#000000" d="M47.949,43.712c0.905,-1.811 1.35,-3.596 1.35,-5.355c-0.266,-2.997 -1.794,-7.337 -4.604,-13.009v-0.196c2.571,-1.973 7.576,-5.107 15.017,-9.412h0.204v0.196l-0.204,0.204v1l0.204,1h0.402c0.999,-2.563 2.469,-5.372 4.399,-8.404V9.333L64.52,9.137c-8.977,4.938 -15.05,8.473 -18.22,10.608c-1.366,0.666 -2.288,1.879 -2.75,3.63c-0.47,1.751 -0.486,3.673 -0.051,5.773l0.402,1.607c2.314,4.483 3.577,7.379 3.774,8.677c-2.887,2.922 -8.602,4.383 -17.143,4.383l-2.4,-0.197c-5.475,-1.273 -8.208,-3.074 -8.208,-5.407v-0.204c1.469,-3.066 2.203,-4.869 2.203,-5.398c-0.103,-0.401 -0.367,-0.606 -0.803,-0.606c-1.23,0 -2.238,2.469 -2.998,7.414c-0.153,1.896 0.103,3.433 0.769,4.604c2.486,3.469 6.099,5.202 10.84,5.202h1.998l5.654,-0.197c3.17,-0.538 5.638,-1.28 7.389,-2.229c0.795,-0.401 1.47,-0.905 1.998,-1.504C47.428,44.806 47.753,44.286 47.949,43.712z" id="path_0"/><path fill="#e2610a" d="M39.844,53.399c0.205,-0.111 0.265,0.068 0.179,0.555c-1.136,2.665 -2.878,4.527 -5.228,5.577l-8.635,4.331c-0.368,-0.103 -0.436,-0.401 -0.205,-0.897c1.153,-2.221 1.938,-3.536 2.357,-3.954L39.844,53.399z" id="path_1"/></svg>