<svg id="vector" xmlns="http://www.w3.org/2000/svg" width="75" height="67" viewBox="0 0 83 73"><path fill="#BC3737" d="M47.948,51.033c0.905,-1.811 1.35,-3.597 1.35,-5.356c-0.266,-2.997 -1.794,-7.337 -4.604,-13.008v-0.196c2.572,-1.974 7.576,-5.107 15.017,-9.412h0.205v0.195L59.71,23.46v1l0.205,1h0.401c0.999,-2.563 2.469,-5.373 4.399,-8.405v-0.401l-0.197,-0.196c-8.977,4.937 -15.05,8.473 -18.22,10.608c-1.366,0.666 -2.288,1.878 -2.75,3.63c-0.47,1.751 -0.486,3.673 -0.051,5.773l0.402,1.606c2.314,4.484 3.578,7.379 3.774,8.678c-2.887,2.921 -8.602,4.382 -17.143,4.382l-2.4,-0.197c-5.474,-1.272 -8.207,-3.074 -8.207,-5.406v-0.205c1.468,-3.066 2.203,-4.868 2.203,-5.397c-0.104,-0.401 -0.368,-0.606 -0.803,-0.606c-1.23,0 -2.238,2.468 -2.998,7.414c-0.154,1.896 0.102,3.433 0.769,4.604c2.485,3.468 6.099,5.201 10.839,5.201h1.999l5.654,-0.196c3.169,-0.538 5.638,-1.28 7.388,-2.229c0.795,-0.402 1.47,-0.906 1.999,-1.504C47.427,52.126 47.752,51.605 47.948,51.033z" id="path_0"/><path fill="#1305c6" d="M36.494,19.977c2.049,0 3.075,1.264 3.075,3.783c0,4.015 -3.425,7.439 -10.284,10.259c-0.982,0.299 -1.103,-0.06 -0.35,-1.077c0.188,-0.384 1.802,-1.588 4.852,-3.604v-0.171c-1.316,-0.538 -1.974,-1.683 -1.974,-3.435c0.871,-3.835 2.255,-5.756 4.15,-5.756H36.494L36.494,19.977zM33.436,24.308c0,1.066 0.906,1.724 2.709,1.981h0.35c0.666,0 1.094,-0.248 1.272,-0.728c0,-1.085 -0.786,-1.93 -2.348,-2.527C34.734,23.035 34.076,23.461 33.436,24.308z" id="path_1"/></svg>