<svg id="vector" xmlns="http://www.w3.org/2000/svg" width="75" height="67" viewBox="0 0 83 73"><path fill="#000004" d="M44.35,63.943c-0.053,1.635 -0.312,3.115 -0.787,4.439c-0.537,0.838 -0.936,1.264 -1.187,1.264c-0.276,0.016 -0.397,-0.416 -0.381,-1.291c-0.423,-9.484 -1.021,-17.637 -1.773,-24.465c-0.354,-3.365 -0.839,-6.125 -1.445,-8.29c-0.259,-0.83 -0.398,-1.601 -0.433,-2.311c-0.018,-1.314 0.182,-2.838 0.606,-4.561l1.194,-4.413c0.146,-0.139 0.312,-0.208 0.476,-0.208c0.207,0 0.354,0.285 0.433,0.865c0.068,0.787 0.164,1.264 0.294,1.428s0.589,1.523 1.385,4.094c0.501,1.67 1.124,2.985 1.852,3.955c0.044,0.32 0.069,0.631 0.069,0.936c0.034,0.638 -0.139,1.522 -0.52,2.647c-0.38,1.125 -0.632,1.902 -0.77,2.346l-0.183,0.76L44.35,63.943z" id="path_0"/><path fill="#000004" d="M37.222,20.043c-1.146,0.638 -1.639,1.028 -1.952,1.522c-0.338,0.572 -0.65,1.899 -0.65,2.746c0,0.117 0.039,0.26 0.273,0.155l11.502,-6.454c0.846,-0.493 1.418,-2.056 1.418,-3.655c0,-0.261 -0.117,-0.3 -0.39,-0.157L37.222,20.043z" id="path_1"/><path fill="#000004" d="M46.962,10.772c-1.952,0.726 -3.904,1.452 -5.842,2.192c-2.257,0.849 -4.122,1.734 -5.596,2.663c-0.152,-0.029 -0.254,-0.116 -0.298,-0.262c0.088,-0.521 0.502,-1.074 1.256,-1.64c0.595,-0.393 1.184,-0.791 1.764,-1.19l1.51,-0.762c-0.138,-0.146 -0.298,-0.291 -0.479,-0.436c-0.174,-0.152 -0.313,-0.29 -0.413,-0.413c-0.522,-0.53 -0.792,-1.111 -0.806,-1.75c0.064,-0.449 0.239,-0.943 0.508,-1.487c0.428,-0.66 0.675,-1.096 0.747,-1.292c1.205,-2.075 2.525,-3.084 3.97,-3.04c1.662,0.253 2.686,0.95 3.063,2.082c0.146,0.138 0.269,0.465 0.385,0.979c0,0.211 -0.152,0.349 -0.449,0.422c-0.792,-0.566 -1.641,-0.958 -2.548,-1.169c-1.248,-0.269 -2.358,-0.109 -3.338,0.486c-0.073,0.087 -0.131,0.174 -0.167,0.261c0,0.095 0.043,0.378 0.145,0.85c0.835,1.161 1.945,1.88 3.316,2.147c0.443,0.139 0.907,0.196 1.401,0.167c0.711,-0.269 1.8,-0.631 3.28,-1.081c0.014,0.065 0.014,0.16 0,0.276c-0.029,0.196 -0.146,0.515 -0.342,0.958c-0.174,0.45 -0.275,0.682 -0.319,0.696C47.441,10.591 47.188,10.7 46.962,10.772z" id="path_2"/></svg>