<svg id="vector" xmlns="http://www.w3.org/2000/svg" width="75" height="67" viewBox="0 0 83 73"><path fill="#EC2D0D" d="M47.902,22.792h0.4c3.237,0 5.442,3.262 6.611,9.805v3.007c0,1.435 -0.803,3.365 -2.4,5.8c-3.774,4.809 -7.644,7.209 -11.616,7.209c-6.567,0 -10.711,-2.998 -12.41,-9.011l-0.401,-3.4v-0.196c0,-4.509 1.332,-8.242 4.006,-11.215l1.204,-0.803c0.265,0 0.393,0.205 0.393,0.606c-0.793,1.999 -1.597,3.57 -2.4,4.697c-0.803,1.137 -1.264,2.374 -1.4,3.707c0,4.972 2.34,8.175 7.004,9.609l3.604,0.401h0.206c5.27,0 9.608,-2.469 13.009,-7.405v-0.607c0,-0.699 -0.402,-1.434 -1.197,-2.194l-3.202,0.794c-3.604,-0.366 -5.407,-1.768 -5.407,-4.201v-0.402c0.299,-4.006 1.23,-6.005 2.802,-6.005L47.902,22.792z" id="path_0"/><path fill="#EC2D0D" d="M41.701,12.977c1.563,0.47 3.169,1.469 4.801,3.006v0.197c-1.495,2.64 -2.367,3.972 -2.598,4.006h-0.605c-1.128,-0.171 -2.333,-0.905 -3.597,-2.204v-0.196C39.83,16.214 40.496,14.617 41.701,12.977z" id="path_1"/><path fill="#EC2D0D" d="M49.312,11.977c1.461,0.333 2.93,1.205 4.399,2.605v0.197c0,0.733 -0.805,2.066 -2.4,4.006h-0.599c-0.939,0 -2.135,-0.735 -3.604,-2.205C47.476,14.514 48.209,12.977 49.312,11.977z" id="path_2"/><path fill="#009649" d="M49.406,50.559c0.205,-0.111 0.265,0.068 0.179,0.555c-1.136,2.665 -2.879,4.527 -5.228,5.578l-8.635,4.33c-0.368,-0.103 -0.437,-0.401 -0.205,-0.897c1.152,-2.221 1.938,-3.536 2.357,-3.954L49.406,50.559z" id="path_3"/></svg>