<svg id="vector" xmlns="http://www.w3.org/2000/svg" width="75" height="67" viewBox="0 0 83 73"><path fill="#e2610a" d="M55.281,11.515c1.402,-0.119 2.126,0.244 2.173,1.098v1.301c-0.362,3.482 -0.726,5.227 -1.087,5.227h-0.213c-0.27,-1.021 -1.143,-1.521 -2.61,-1.521c-3.018,0 -6.202,2.246 -9.583,6.74v0.438c0,0.723 2.47,1.383 7.4,1.959c1.311,1.271 1.96,2.645 1.96,4.131c0,4.105 -3.621,8.525 -10.883,13.279c-1.886,1.012 -3.771,1.523 -5.655,1.523c-4.968,0 -8.525,-3.045 -10.67,-9.137c-0.687,-2.127 -0.752,-5.09 -0.186,-8.887c0.558,-3.799 2.238,-6.148 5.033,-7.059l0.38,0.057c0.548,0.287 0.149,1.113 -1.179,2.488c-1.337,1.365 -2.173,3.148 -2.517,5.35v1.734c0,3.482 1.885,6.316 5.655,8.488c1.309,0.586 2.684,0.873 4.133,0.873h0.872c4.207,0 8.413,-2.035 12.62,-6.092l-6.741,-1.521c-1.161,-0.771 -1.746,-1.785 -1.746,-3.057v-2.609c0.056,-3.992 1.94,-7.623 5.664,-10.91C49.478,13.976 51.873,12.677 55.281,11.515z" id="path_0"/><path fill="#000000" d="M46.878,50.132c0.223,-0.119 0.288,0.074 0.194,0.604c-1.235,2.898 -3.129,4.922 -5.684,6.064l-9.388,4.709c-0.399,-0.113 -0.474,-0.438 -0.223,-0.977c1.253,-2.414 2.107,-3.844 2.563,-4.299L46.878,50.132z" id="path_1"/></svg>