<svg id="vector" xmlns="http://www.w3.org/2000/svg" width="75" height="67" viewBox="0 0 83 73"><path fill="#E20A0A" d="M51.212,18.384c0.367,0 0.632,0.998 0.803,3.006l1.998,3.4v0.205c0,0.896 -0.402,2.502 -1.205,4.799l1.205,13.616v4.801c-0.436,2.775 -2.033,5.508 -4.809,8.209c-2.767,2.135 -5.236,3.203 -7.405,3.203h-1.196c-5.807,0 -9.549,-2.871 -11.215,-8.602l-0.4,-3.605c0,-3.707 1.605,-6.979 4.809,-9.814h0.195l0.402,0.402c0,0.734 -0.931,2.537 -2.801,5.406c-0.402,1.033 -0.599,1.965 -0.599,2.801v0.205c0,3.4 2.733,5.869 8.208,7.406l2.4,0.197h0.401c3.87,0 7.269,-1.803 10.207,-5.408l0.197,-0.598c-1.598,-13.948 -2.4,-22.49 -2.4,-25.624v-0.402C50.008,20.519 50.408,19.324 51.212,18.384z" id="path_0"/><path fill="#000000" d="M41.328,13.378c2.05,0 3.076,1.264 3.076,3.784c0,4.014 -3.426,7.438 -10.285,10.258c-0.981,0.299 -1.102,-0.06 -0.35,-1.076c0.188,-0.385 1.803,-1.589 4.852,-3.604v-0.171c-1.315,-0.538 -1.974,-1.683 -1.974,-3.435c0.872,-3.835 2.256,-5.756 4.151,-5.756H41.328L41.328,13.378zM38.271,17.709c0,1.066 0.905,1.724 2.708,1.981h0.35c0.666,0 1.095,-0.248 1.273,-0.728c0,-1.084 -0.786,-1.929 -2.349,-2.526C39.569,16.437 38.911,16.864 38.271,17.709z" id="path_1"/></svg>