<svg id="vector" xmlns="http://www.w3.org/2000/svg" width="75" height="67" viewBox="0 0 83 73"><path fill="#7E7EFF" d="M55.281,27.046c1.402,-0.121 2.126,0.242 2.173,1.098v1.299c-0.362,3.482 -0.726,5.229 -1.087,5.229h-0.213c-0.27,-1.021 -1.143,-1.523 -2.609,-1.523c-3.019,0 -6.203,2.248 -9.584,6.742v0.436c0,0.725 2.47,1.385 7.401,1.961c1.31,1.271 1.959,2.645 1.959,4.131c0,4.105 -3.621,8.525 -10.883,13.279c-1.886,1.012 -3.771,1.523 -5.654,1.523c-4.969,0 -8.526,-3.047 -10.67,-9.139c-0.688,-2.125 -0.752,-5.088 -0.187,-8.887c0.558,-3.797 2.238,-6.146 5.033,-7.057l0.381,0.057c0.548,0.287 0.148,1.113 -1.18,2.488c-1.336,1.365 -2.172,3.146 -2.516,5.348v1.736c0,3.482 1.885,6.314 5.655,8.488c1.308,0.586 2.684,0.871 4.132,0.871h0.873c4.206,0 8.412,-2.033 12.619,-6.09l-6.741,-1.523c-1.161,-0.771 -1.746,-1.783 -1.746,-3.055v-2.609c0.056,-3.994 1.94,-7.623 5.664,-10.912C49.478,29.507 51.873,28.208 55.281,27.046z" id="path_0"/><path fill="#000001" d="M40.461,11.782c2.228,0 3.343,1.373 3.343,4.113c0,4.363 -3.724,8.088 -11.181,11.152c-1.067,0.324 -1.197,-0.064 -0.381,-1.17c0.205,-0.418 1.96,-1.729 5.275,-3.92v-0.186c-1.431,-0.584 -2.146,-1.828 -2.146,-3.732c0.947,-4.17 2.452,-6.258 4.513,-6.258H40.461L40.461,11.782zM37.136,16.489c0,1.16 0.984,1.875 2.944,2.154h0.381c0.724,0 1.188,-0.27 1.383,-0.791c0,-1.178 -0.854,-2.096 -2.553,-2.746C38.548,15.106 37.833,15.569 37.136,16.489z" id="path_1"/></svg>