<svg id="vector" xmlns="http://www.w3.org/2000/svg" width="75" height="67" viewBox="0 0 83 73"><path fill="#009649" d="M53.236,21.66c1.632,0.265 3.237,1.272 4.81,3.006v0.402c-1.008,2.665 -1.743,3.997 -2.204,3.997c-3.203,-1.093 -4.809,-1.965 -4.809,-2.597C51.033,25.23 51.767,23.633 53.236,21.66z" id="path_0"/><path fill="#009649" d="M56.713,32.619h0.803c4.271,0.434 6.406,2.17 6.406,5.209v0.402c-0.854,3.314 -1.854,5.449 -3.006,6.404c-2.195,1.863 -5.536,2.803 -10.003,2.803h-0.401c-2.537,0 -4.604,-0.264 -6.21,-0.803v1.998c0,3.775 -1.931,7.449 -5.808,11.02c-2.836,1.998 -5.569,2.998 -8.208,2.998h-0.394c-4.107,0 -7.38,-2.273 -9.814,-6.809c-0.699,-2.102 -1.032,-4.373 -0.998,-6.807c1.033,-4.801 2.639,-8.209 4.8,-10.207l1.007,-0.598h0.6v0.195c0,0.504 -1.068,2.17 -3.203,5.006c-0.803,1.102 -1.205,2.365 -1.205,3.801v1.008c0,1.598 1.205,3.732 3.604,6.406c2.041,1.195 4.373,1.803 7.013,1.803c4.698,0 8.371,-1.871 11.01,-5.611c0.129,-0.932 0.265,-1.863 0.394,-2.803c0,-0.564 -0.932,-2.297 -2.803,-5.201V38.23c0.205,-0.369 0.402,-0.504 0.607,-0.402c1.631,1.965 3.502,3.17 5.604,3.605h0.4C49.479,35.557 52.74,32.619 56.713,32.619L56.713,32.619zM49.308,41.434l2.801,0.4c3.973,0 7.243,-0.803 9.815,-2.408v-0.197c-1.205,-1.203 -2.674,-1.801 -4.408,-1.801h-0.803C53.51,37.428 51.041,38.76 49.308,41.434z" id="path_1"/><path fill="#E20A0A" d="M47.958,10.35c2.05,0 3.075,1.265 3.075,3.784c0,4.014 -3.425,7.439 -10.284,10.259c-0.981,0.299 -1.102,-0.061 -0.35,-1.077c0.188,-0.384 1.803,-1.589 4.852,-3.604v-0.171c-1.315,-0.538 -1.974,-1.683 -1.974,-3.435c0.872,-3.835 2.256,-5.757 4.151,-5.757H47.958L47.958,10.35zM44.899,14.681c0,1.066 0.906,1.725 2.709,1.981h0.35c0.666,0 1.094,-0.248 1.272,-0.727c0,-1.085 -0.785,-1.93 -2.348,-2.527C46.198,13.409 45.541,13.835 44.899,14.681z" id="path_2"/></svg>