<svg id="vector" xmlns="http://www.w3.org/2000/svg" width="75" height="67" viewBox="0 0 83 73"><path fill="#0000FF" d="M46.136,17.471c1.327,1.335 2.585,4.213 3.769,8.653l0.227,2.888c0,5.215 -2.594,8.765 -7.771,10.65l-1.553,0.217l-3.939,0.057l-3.823,-0.057l-0.218,-0.217v-0.229c0.473,-0.51 3.654,-2.063 9.533,-4.657c3.701,-2.102 5.699,-3.957 5.992,-5.548c-1.922,-4.099 -2.879,-6.466 -2.879,-7.101v-0.663C45.473,18.806 45.691,17.471 46.136,17.471z" id="path_0"/><path fill="#000001" d="M49.934,43.932c0.227,-0.123 0.293,0.076 0.197,0.615c-1.258,2.955 -3.189,5.018 -5.793,6.182l-9.57,4.801c-0.408,-0.115 -0.483,-0.445 -0.228,-0.996c1.277,-2.461 2.148,-3.918 2.612,-4.381L49.934,43.932z" id="path_1"/></svg>