<svg id="vector" xmlns="http://www.w3.org/2000/svg" width="75" height="67" viewBox="0 0 83 73"><path fill="#010007" d="M39.465,35.57c6.807,2.434 10.208,5.441 10.208,9.01l0.205,1.197c-0.573,4.672 -2.11,7.004 -4.613,7.004c0,0.436 -3.331,0.973 -10.002,1.605l-0.205,-0.598c0,-3.34 0.598,-5.006 1.802,-5.006c6.671,-0.539 10.343,-1.342 11.01,-2.408c-2.297,-2.23 -5.305,-4.033 -9.012,-5.398l-0.196,-1.008C38.764,37.039 39.029,35.57 39.465,35.57z" id="path_0"/><path fill="#1305c6" d="M47.145,18.648c0.205,-0.119 0.265,0.068 0.179,0.557c-1.136,2.664 -2.878,4.525 -5.228,5.576l-8.635,4.33c-0.368,-0.102 -0.436,-0.4 -0.205,-0.904c1.153,-2.221 1.938,-3.537 2.357,-3.955L47.145,18.648z" id="path_1"/></svg>