<svg id="vector" xmlns="http://www.w3.org/2000/svg" width="75" height="67" viewBox="0 0 83 73"><path fill="#E20A0A" d="M37.819,24.273c-1.146,0.638 -1.64,1.028 -1.952,1.522c-0.339,0.572 -0.651,1.899 -0.651,2.746c0,0.117 0.04,0.26 0.274,0.156l11.502,-6.454c0.846,-0.494 1.418,-2.057 1.418,-3.656c0,-0.261 -0.116,-0.3 -0.39,-0.156L37.819,24.273z" id="path_0"/><path fill="#E20A0A" d="M38.056,41.176l-2.745,-1.904c-0.175,-1.291 -0.127,-3.045 0.156,-5.28l0.601,0.217c1.291,0.853 3.273,2.054 5.945,3.603c1.868,-1.615 3.616,-2.942 5.244,-3.975c0.564,-0.199 0.811,-0.108 0.738,0.264c-0.282,0.823 -1.002,1.663 -2.162,2.534c-1.279,0.997 -2.108,1.754 -2.48,2.271c2.343,1.687 3.664,3.664 3.958,5.927c0.107,3.135 -0.318,5.436 -1.268,6.919c-1.068,1.748 -2.955,2.708 -5.663,2.882c-1.976,0.127 -3.52,-0.522 -4.649,-1.952c-0.763,-1.009 -1.141,-2.198 -1.141,-3.574c0,-1.369 0.378,-2.871 1.141,-4.486c0.187,-0.541 0.529,-1.154 1.021,-1.85C37.197,42.245 37.635,41.717 38.056,41.176L38.056,41.176zM39.13,42.233c-1.033,1.37 -1.771,2.438 -2.222,3.202c-0.247,0.42 -0.367,0.834 -0.367,1.231c0,0.937 0.505,1.657 1.514,2.162c0.787,0.391 1.705,0.583 2.763,0.583c1.044,0 1.958,-0.173 2.745,-0.528c1.058,-0.468 1.76,-0.967 2.108,-1.495c-0.535,-0.985 -1.453,-1.947 -2.745,-2.883c-1.086,-0.75 -2.167,-1.507 -3.237,-2.271H39.13z" id="path_1"/></svg>