<svg id="vector" xmlns="http://www.w3.org/2000/svg" width="75" height="67" viewBox="0 0 83 73"><path fill="#010007" d="M40.226,38.299h0.465c2.164,0.494 4.09,1.658 5.787,3.465v0.465c-0.147,1.234 -1.076,2.855 -2.775,4.859c-4.009,-1.342 -6.015,-2.508 -6.015,-3.465C38.646,40.846 39.495,39.068 40.226,38.299z" id="path_0"/><path fill="#010007" d="M52.503,33.667h0.455c0.543,0 1.855,3.476 3.939,10.419l0.227,0.918c0,5.441 -1.313,9.383 -3.93,11.813c-3.704,4.01 -8.1,6.016 -13.195,6.016c-4.168,-0.93 -6.863,-1.848 -8.098,-2.775c-4.021,-3.438 -6.025,-7.686 -6.025,-12.73c0,-4.248 1.855,-8.258 5.561,-12.04l0.227,-0.229h0.465l0.465,0.455c0,0.395 -1.077,2.084 -3.241,5.096c-0.622,1.076 -1.007,2.549 -1.155,4.395c0,3.596 1.848,6.676 5.551,9.266c3.625,1.391 6.094,2.082 7.407,2.082c3.319,0 7.249,-1.471 11.804,-4.395c1.855,-1.629 2.784,-2.627 2.784,-3.012l-3.239,-9.027l-0.236,-1.619L52.503,33.667z" id="path_1"/><path fill="#F80000" d="M42.28,10.169c2.369,0 3.556,1.461 3.556,4.376c0,4.642 -3.96,8.602 -11.892,11.861c-1.135,0.347 -1.273,-0.069 -0.404,-1.245c0.217,-0.443 2.084,-1.836 5.609,-4.167v-0.198c-1.521,-0.621 -2.281,-1.945 -2.281,-3.971c1.008,-4.434 2.607,-6.656 4.799,-6.656H42.28L42.28,10.169zM38.744,15.177c0,1.233 1.048,1.994 3.132,2.291h0.404c0.77,0 1.266,-0.286 1.472,-0.84c0,-1.254 -0.909,-2.23 -2.716,-2.922C40.246,13.707 39.485,14.2 38.744,15.177z" id="path_2"/></svg>