<svg id="vector" xmlns="http://www.w3.org/2000/svg" width="75" height="67" viewBox="0 0 83 73"><path fill="#29DC1C" d="M35.844,19.084h0.393c0.436,0.666 1.307,2.87 2.605,6.603l-1.196,5.006l0.598,9.608l-0.401,1.607h0.197c2.374,-2.537 5.228,-3.811 8.559,-3.811h0.205c3.433,0 5.44,1.605 6.004,4.809c0,4.674 -1.87,7.875 -5.604,9.609c0,0.494 -4.459,0.965 -13.367,1.4l-6.808,-0.598v-0.607c0,-0.527 2.075,-1.262 6.21,-2.193l2.802,-6.406v-2.811l-1.4,-17.417C34.64,23.151 35.041,21.553 35.844,19.084L35.844,19.084zM36.04,49.715c7.141,-0.805 11.59,-1.607 13.358,-2.4l1.41,-1.008c-1.376,-2 -3.374,-2.998 -6.014,-2.998h-1.947c-1.999,0 -4.134,1.734 -6.406,5.201L36.04,49.715z" id="path_0"/><path fill="#000000" d="M55.754,22.014c0.205,-0.119 0.266,0.069 0.179,0.556c-1.135,2.664 -2.878,4.527 -5.228,5.578l-8.635,4.329c-0.367,-0.102 -0.436,-0.4 -0.204,-0.904c1.152,-2.222 1.938,-3.538 2.356,-3.955L55.754,22.014z" id="path_1"/></svg>