<svg id="vector" xmlns="http://www.w3.org/2000/svg" width="75" height="67" viewBox="0 0 83 73"><path fill="#0000FF" d="M56.712,19.533h0.805c4.27,0.435 6.406,2.17 6.406,5.21v0.401c-0.855,3.314 -1.854,5.449 -3.008,6.405c-2.203,1.862 -5.533,2.803 -10.01,2.803h-0.402c-2.535,0 -4.604,-0.265 -6.201,-0.803v1.998c0,3.775 -1.938,7.448 -5.807,11.019c-2.837,1.998 -5.57,2.998 -8.209,2.998h-0.401c-4.101,0 -7.372,-2.272 -9.806,-6.808c-0.701,-2.102 -1.033,-4.374 -1,-6.808c1.034,-4.8 2.631,-8.208 4.801,-10.207l1,-0.598h0.606v0.196c0,0.504 -1.067,2.169 -3.203,5.006c-0.804,1.102 -1.205,2.365 -1.205,3.801v1.008c0,1.598 1.205,3.731 3.605,6.406c2.032,1.195 4.363,1.802 7.003,1.802c4.707,0 8.379,-1.871 11.01,-5.612c0.137,-0.931 0.266,-1.861 0.402,-2.801c0,-0.563 -0.932,-2.298 -2.803,-5.201v-4.604c0.197,-0.368 0.402,-0.504 0.598,-0.401c1.641,1.964 3.502,3.169 5.604,3.604h0.402C49.47,22.472 52.741,19.533 56.712,19.533L56.712,19.533zM49.308,28.348l2.801,0.401c3.973,0 7.236,-0.803 9.807,-2.408v-0.197c-1.197,-1.204 -2.664,-1.802 -4.398,-1.802h-0.805C53.509,24.342 51.042,25.674 49.308,28.348z" id="path_0"/><path fill="#009649" d="M54.784,43.005c0.205,-0.11 0.264,0.068 0.178,0.555c-1.135,2.666 -2.877,4.527 -5.227,5.578l-8.635,4.331c-0.369,-0.104 -0.437,-0.402 -0.205,-0.898c1.152,-2.221 1.938,-3.536 2.357,-3.954L54.784,43.005z" id="path_1"/></svg>