<svg id="vector" xmlns="http://www.w3.org/2000/svg" width="75" height="67" viewBox="0 0 83 73"><path fill="#0000FF" d="M56.714,30.406h0.803c4.271,0.435 6.406,2.17 6.406,5.21v0.401c-0.854,3.314 -1.854,5.45 -3.006,6.405c-2.203,1.862 -5.535,2.803 -10.01,2.803h-0.402c-2.537,0 -4.604,-0.265 -6.201,-0.803v1.998c0,3.775 -1.939,7.448 -5.809,11.019c-2.836,1.998 -5.568,2.998 -8.209,2.998h-0.4c-4.1,0 -7.371,-2.272 -9.805,-6.808c-0.702,-2.102 -1.034,-4.373 -1.001,-6.808c1.034,-4.8 2.632,-8.208 4.8,-10.207l1,-0.598h0.607v0.196c0,0.504 -1.068,2.169 -3.203,5.006c-0.803,1.102 -1.205,2.365 -1.205,3.801v1.008c0,1.598 1.205,3.731 3.605,6.406c2.033,1.195 4.363,1.802 7.004,1.802c4.707,0 8.379,-1.871 11.01,-5.611c0.137,-0.932 0.264,-1.862 0.402,-2.802c0,-0.563 -0.934,-2.297 -2.803,-5.201v-4.604c0.197,-0.368 0.402,-0.504 0.598,-0.401c1.641,1.964 3.502,3.169 5.604,3.604h0.402C49.472,33.345 52.743,30.406 56.714,30.406L56.714,30.406zM49.31,39.221l2.801,0.401c3.973,0 7.234,-0.803 9.805,-2.408v-0.197c-1.195,-1.204 -2.664,-1.802 -4.398,-1.802h-0.803C53.511,35.215 51.042,36.547 49.31,39.221z" id="path_0"/><path fill="#009649" d="M46.858,12.563c2.049,0 3.074,1.264 3.074,3.783c0,4.015 -3.426,7.439 -10.283,10.259c-0.982,0.299 -1.104,-0.06 -0.352,-1.077c0.189,-0.384 1.803,-1.589 4.854,-3.604v-0.171c-1.316,-0.538 -1.975,-1.683 -1.975,-3.435c0.873,-3.835 2.256,-5.756 4.15,-5.756H46.858L46.858,12.563zM43.8,16.894c0,1.067 0.906,1.725 2.707,1.981h0.352c0.664,0 1.094,-0.247 1.271,-0.727c0,-1.085 -0.785,-1.93 -2.348,-2.527C45.099,15.621 44.44,16.049 43.8,16.894z" id="path_1"/></svg>