<svg id="vector" xmlns="http://www.w3.org/2000/svg" width="75" height="67" viewBox="0 0 83 73"><path fill="#e2610a" d="M37.673,35.82c1.564,0.471 3.17,1.471 4.801,3.006v0.197c-1.504,2.639 -2.367,3.973 -2.605,4.006h-0.598c-1.137,-0.162 -2.332,-0.896 -3.604,-2.203v-0.197C35.802,39.057 36.47,37.461 37.673,35.82z" id="path_0"/><path fill="#e2610a" d="M45.274,36.223c1.471,0.332 2.939,1.203 4.408,2.604v0.197c0,0.734 -0.803,2.076 -2.4,4.006h-0.607c-0.93,0 -2.135,-0.734 -3.604,-2.203C43.438,38.758 44.173,37.221 45.274,36.223z" id="path_1"/><path fill="#e2610a" d="M29.089,38.426h0.195l0.402,0.4c-1.066,2.367 -1.598,3.973 -1.598,4.801c0,3.904 3.732,6.176 11.207,6.809l2.4,0.4c2.408,0 6.004,-0.734 10.814,-2.203l2.801,-1.598c-0.932,-1.699 -1.537,-3.168 -1.803,-4.408l0.402,-3.801h0.4c1.598,1.666 2.4,4.605 2.4,8.807c0,4.041 -3.537,6.773 -10.609,8.209l-3.006,0.402c-11.207,0 -16.809,-3.674 -16.809,-11.012C26.288,42.166 27.218,39.895 29.089,38.426z" id="path_2"/><path fill="#0000FF" d="M42.772,16.756c2.049,0 3.076,1.264 3.076,3.785c0,4.014 -3.426,7.438 -10.285,10.258c-0.982,0.299 -1.102,-0.061 -0.35,-1.076c0.188,-0.385 1.803,-1.59 4.852,-3.604v-0.172c-1.316,-0.537 -1.975,-1.682 -1.975,-3.434c0.873,-3.836 2.256,-5.758 4.152,-5.758H42.772L42.772,16.756zM39.714,21.088c0,1.066 0.906,1.725 2.709,1.98h0.35c0.666,0 1.094,-0.248 1.273,-0.727c0,-1.084 -0.787,-1.93 -2.35,-2.527C41.013,19.814 40.354,20.242 39.714,21.088z" id="path_3"/></svg>