<svg id="vector" xmlns="http://www.w3.org/2000/svg" width="75" height="67" viewBox="0 0 83 73"><path fill="#0000FF" d="M56.713,28.583h0.803c4.271,0.436 6.406,2.17 6.406,5.21v0.402c-0.854,3.313 -1.854,5.449 -3.006,6.405c-2.204,1.862 -5.534,2.802 -10.011,2.802h-0.401c-2.536,0 -4.604,-0.265 -6.202,-0.803v1.999c0,3.774 -1.938,7.447 -5.807,11.018c-2.837,1.998 -5.57,2.998 -8.209,2.998h-0.401c-4.1,0 -7.372,-2.272 -9.806,-6.807c-0.7,-2.102 -1.033,-4.374 -0.999,-6.809c1.033,-4.8 2.63,-8.208 4.8,-10.206l0.999,-0.598h0.607v0.195c0,0.504 -1.067,2.17 -3.203,5.006c-0.803,1.102 -1.205,2.365 -1.205,3.801v1.008c0,1.598 1.205,3.732 3.605,6.406c2.032,1.196 4.363,1.802 7.003,1.802c4.707,0 8.38,-1.87 11.01,-5.611c0.138,-0.931 0.265,-1.861 0.402,-2.802c0,-0.563 -0.932,-2.297 -2.803,-5.201v-4.604c0.197,-0.368 0.402,-0.504 0.598,-0.402c1.642,1.965 3.503,3.169 5.604,3.605h0.401C49.47,31.521 52.742,28.583 56.713,28.583L56.713,28.583zM49.308,37.398l2.802,0.4c3.972,0 7.234,-0.803 9.805,-2.408v-0.197c-1.195,-1.203 -2.664,-1.802 -4.398,-1.802h-0.803C53.51,33.392 51.041,34.724 49.308,37.398z" id="path_0"/><path fill="#009649" d="M52.383,14.421c0.205,-0.119 0.265,0.069 0.179,0.556c-1.136,2.665 -2.878,4.527 -5.228,5.578l-8.635,4.33c-0.368,-0.103 -0.436,-0.401 -0.204,-0.905c1.152,-2.222 1.938,-3.537 2.357,-3.955L52.383,14.421z" id="path_1"/></svg>