<svg id="vector" xmlns="http://www.w3.org/2000/svg" width="75" height="67" viewBox="0 0 83 73"><path fill="#e2610a" d="M43.136,18.069c-0.797,0 -1.631,0.519 -2.438,1.575c-0.713,0.899 -1.168,1.743 -1.168,2.604c0,1.307 1.195,2.095 2.086,2.716c-1.085,1.492 -4.394,4.051 -6.108,4.996c-0.704,0.38 -1.111,0.491 -1.111,0.76c0,0.167 0.296,0.278 0.814,0.278c1.058,0 2.059,-0.353 2.93,-0.76c2.391,-1.095 3.93,-3.05 4.894,-4.569l1.001,0.63c0.056,0.028 0.111,0.028 0.223,-0.139c0.352,-0.491 0.649,-1.224 0.649,-1.956c0,-0.213 -0.27,-0.463 -0.705,-0.732c0.38,-0.945 0.593,-1.928 0.593,-2.929C44.74,19.459 44.387,18.069 43.136,18.069L43.136,18.069zM42.311,20.572c0.428,0 0.64,0.296 0.668,0.861c0,0.603 -0.056,0.983 -0.24,1.308c-0.696,-0.324 -1.558,-0.927 -1.558,-1.168c0,-0.057 0.027,-0.084 0.056,-0.14C41.505,20.896 41.987,20.572 42.311,20.572z" id="path_0"/><path fill="#0000FF" d="M39.059,42.007l-2.633,-1.826c-0.167,-1.239 -0.121,-2.921 0.149,-5.064l0.577,0.208c1.237,0.818 3.139,1.97 5.701,3.456c1.792,-1.55 3.469,-2.823 5.03,-3.813c0.541,-0.19 0.777,-0.104 0.708,0.253c-0.271,0.789 -0.962,1.596 -2.073,2.43c-1.228,0.957 -2.022,1.683 -2.38,2.178c2.247,1.618 3.515,3.514 3.797,5.686c0.104,3.007 -0.306,5.213 -1.216,6.636c-1.025,1.676 -2.834,2.598 -5.432,2.765c-1.896,0.122 -3.376,-0.5 -4.459,-1.872c-0.731,-0.968 -1.095,-2.108 -1.095,-3.428c0,-1.313 0.363,-2.753 1.095,-4.303c0.179,-0.519 0.507,-1.106 0.979,-1.774C38.234,43.032 38.655,42.525 39.059,42.007L39.059,42.007zM40.09,43.021c-0.991,1.313 -1.7,2.338 -2.132,3.07c-0.237,0.403 -0.351,0.801 -0.351,1.181c0,0.898 0.483,1.589 1.451,2.074c0.754,0.375 1.635,0.558 2.649,0.558c1.002,0 1.878,-0.167 2.632,-0.506c1.015,-0.449 1.688,-0.928 2.022,-1.434c-0.513,-0.945 -1.394,-1.867 -2.633,-2.766c-1.042,-0.72 -2.079,-1.445 -3.104,-2.177H40.09z" id="path_1"/></svg>