<svg id="vector" xmlns="http://www.w3.org/2000/svg" width="75" height="67" viewBox="0 0 83 73"><path fill="#E40808" d="M39.615,38.157c6.807,2.435 10.207,5.442 10.207,9.012l0.205,1.196c-0.573,4.672 -2.11,7.004 -4.613,7.004c0,0.436 -3.331,0.974 -10.002,1.605l-0.205,-0.598c0,-3.34 0.598,-5.006 1.803,-5.006c6.671,-0.538 10.343,-1.341 11.01,-2.408c-2.297,-2.229 -5.305,-4.032 -9.012,-5.398l-0.195,-1.008C38.914,39.627 39.179,38.157 39.615,38.157z" id="path_0"/><path fill="#E40808" d="M39.008,28.745c1.641,0.273 3.237,1.272 4.809,3.007v0.401c-0.998,2.665 -1.733,3.998 -2.203,3.998c-3.203,-1.094 -4.8,-1.966 -4.8,-2.598C36.813,32.315 37.548,30.719 39.008,28.745z" id="path_1"/><path fill="#1305c6" d="M46.995,16.062c0.205,-0.119 0.265,0.069 0.179,0.556c-1.136,2.664 -2.878,4.527 -5.228,5.578l-8.635,4.329c-0.368,-0.102 -0.436,-0.4 -0.205,-0.904c1.153,-2.222 1.938,-3.537 2.357,-3.955L46.995,16.062z" id="path_2"/></svg>