<svg id="vector" xmlns="http://www.w3.org/2000/svg" width="75" height="67" viewBox="0 0 83 73"><path fill="#000000" d="M43.633,27.126c1.632,0.265 3.237,1.265 4.801,2.998v0.402c-1,2.673 -1.734,4.006 -2.205,4.006c-3.203,-1.102 -4.799,-1.974 -4.799,-2.605C41.43,30.697 42.164,29.091 43.633,27.126z" id="path_0"/><path fill="#000000" d="M45.683,38.009c1.197,1.204 2.332,3.801 3.4,7.807l0.205,2.605c0,4.705 -2.34,7.908 -7.012,9.608l-1.402,0.196l-3.553,0.052l-3.45,-0.052l-0.197,-0.196v-0.205c0.427,-0.461 3.297,-1.861 8.602,-4.202c3.339,-1.896 5.142,-3.57 5.407,-5.006c-1.735,-3.698 -2.598,-5.833 -2.598,-6.406v-0.598C45.085,39.213 45.282,38.009 45.683,38.009z" id="path_1"/><path fill="#0000FF" d="M49.109,14.759c0.205,-0.119 0.265,0.068 0.179,0.556c-1.136,2.664 -2.878,4.526 -5.228,5.577l-8.634,4.33c-0.368,-0.102 -0.436,-0.401 -0.205,-0.904c1.153,-2.222 1.938,-3.538 2.357,-3.955L49.109,14.759z" id="path_2"/></svg>