<svg id="vector" xmlns="http://www.w3.org/2000/svg" width="75" height="67" viewBox="0 0 83 73"><path fill="#000001" d="M60.416,32.297h0.4c0.471,0 0.736,1.333 0.803,4.006v0.795c0,4.407 -1.34,6.611 -4.006,6.611c-2.537,-0.7 -3.801,-1.571 -3.801,-2.605h-0.205c-0.803,2.136 -2.066,3.203 -3.801,3.203l-2.008,-0.196c0.104,0.999 0.104,1.734 0,2.195c-0.666,4.006 -2.125,7.32 -4.371,9.95c-2.256,2.632 -5.203,3.981 -8.832,4.066h-0.803c-5.742,0 -9.814,-3.204 -12.215,-9.61l-0.197,-2.801v-0.803c0.402,-6.475 2.264,-10.412 5.604,-11.813l0.197,0.205v0.197l-2.998,5.005c-0.572,1.171 -0.965,2.64 -1.205,4.407c0,4.168 2.803,7.234 8.414,9.208l1.998,0.196h1.598c4.543,0 8.48,-2.469 11.813,-7.405v-0.196c-0.266,-1.939 -1.264,-4.143 -2.998,-6.611l-0.205,-0.999V35.5l0.4,-0.4h0.205c1.564,2.271 3.502,3.399 5.801,3.399h0.205c1.768,0 3.1,-1.333 3.996,-3.997l0.205,-0.205h0.402l0.4,0.4v0.598l-0.205,0.804c0.803,1.204 1.871,1.802 3.203,1.802h0.205c1.197,0 1.803,-1.135 1.803,-3.398L60.416,32.297z" id="path_0"/><path fill="#0000FF" d="M47.178,12.679c2.049,0 3.074,1.264 3.074,3.784c0,4.014 -3.426,7.438 -10.285,10.258c-0.98,0.299 -1.102,-0.06 -0.35,-1.077c0.189,-0.384 1.803,-1.588 4.854,-3.604v-0.171c-1.316,-0.538 -1.975,-1.683 -1.975,-3.435c0.871,-3.835 2.256,-5.756 4.15,-5.756H47.178L47.178,12.679zM44.119,17.01c0,1.066 0.906,1.724 2.707,1.981h0.352c0.664,0 1.094,-0.248 1.271,-0.728c0,-1.084 -0.785,-1.93 -2.348,-2.527C45.418,15.736 44.76,16.164 44.119,17.01z" id="path_1"/></svg>