<svg id="vector" xmlns="http://www.w3.org/2000/svg" width="75" height="67" viewBox="0 0 83 73"><path fill="#0A0EE2" d="M39.391,39.98c6.808,2.435 10.208,5.441 10.208,9.012l0.204,1.195c-0.573,4.672 -2.11,7.005 -4.612,7.005c0,0.436 -3.332,0.974 -10.002,1.605l-0.205,-0.599c0,-3.34 0.598,-5.005 1.803,-5.005c6.67,-0.538 10.342,-1.341 11.01,-2.409c-2.298,-2.229 -5.305,-4.031 -9.012,-5.398l-0.196,-1.008C38.69,41.45 38.954,39.98 39.391,39.98z" id="path_0"/><path fill="#0A0EE2" d="M38.784,30.567c1.641,0.274 3.236,1.273 4.809,3.008v0.401c-0.999,2.665 -1.734,3.998 -2.203,3.998c-3.203,-1.095 -4.801,-1.966 -4.801,-2.598C36.589,34.138 37.323,32.542 38.784,30.567z" id="path_1"/><path fill="#E40808" d="M41.244,14.203c2.05,0 3.075,1.264 3.075,3.784c0,4.014 -3.426,7.439 -10.284,10.259c-0.981,0.299 -1.102,-0.061 -0.351,-1.077c0.188,-0.384 1.803,-1.589 4.853,-3.604v-0.171c-1.315,-0.537 -1.974,-1.682 -1.974,-3.434c0.871,-3.835 2.256,-5.757 4.15,-5.757H41.244L41.244,14.203zM38.187,18.534c0,1.066 0.905,1.725 2.707,1.981h0.351c0.666,0 1.094,-0.248 1.272,-0.727c0,-1.085 -0.785,-1.93 -2.348,-2.527C39.484,17.262 38.827,17.688 38.187,18.534z" id="path_2"/></svg>