<svg id="vector" xmlns="http://www.w3.org/2000/svg" width="75" height="67" viewBox="0 0 83 73"><path fill="#000001" d="M39.316,24.769c6.807,2.435 10.207,5.441 10.207,9.012l0.204,1.195c-0.572,4.672 -2.109,7.005 -4.612,7.005c0,0.436 -3.331,0.974 -10.002,1.605l-0.205,-0.598c0,-3.341 0.598,-5.006 1.803,-5.006c6.671,-0.538 10.343,-1.341 11.01,-2.408c-2.298,-2.229 -5.305,-4.032 -9.012,-5.399l-0.195,-1.008C38.615,26.238 38.88,24.769 39.316,24.769z" id="path_0"/><path fill="#000001" d="M38.709,15.355c1.641,0.274 3.237,1.273 4.809,3.008v0.4c-0.999,2.666 -1.733,3.998 -2.203,3.998c-3.203,-1.094 -4.8,-1.965 -4.8,-2.597C36.515,18.926 37.249,17.329 38.709,15.355z" id="path_1"/><path fill="#E40808" d="M47.294,47.182c0.205,-0.111 0.266,0.068 0.179,0.555c-1.136,2.665 -2.878,4.527 -5.228,5.577l-8.635,4.331c-0.367,-0.103 -0.436,-0.401 -0.205,-0.897c1.153,-2.221 1.939,-3.536 2.358,-3.954L47.294,47.182z" id="path_2"/></svg>