<svg id="vector" xmlns="http://www.w3.org/2000/svg" width="75" height="67" viewBox="0 0 83 73"><path fill="#0000FF" d="M43.653,28.949c1.631,0.265 3.236,1.265 4.801,2.998v0.402c-1,2.673 -1.736,4.006 -2.205,4.006c-3.203,-1.103 -4.801,-1.974 -4.801,-2.605C41.448,32.521 42.183,30.914 43.653,28.949z" id="path_0"/><path fill="#0000FF" d="M45.702,39.831c1.195,1.205 2.332,3.801 3.4,7.808l0.205,2.604c0,4.706 -2.342,7.909 -7.014,9.608l-1.4,0.197L37.341,60.1l-3.451,-0.051l-0.197,-0.197v-0.205c0.428,-0.461 3.297,-1.861 8.602,-4.201c3.34,-1.896 5.143,-3.57 5.406,-5.006c-1.734,-3.698 -2.596,-5.834 -2.596,-6.406v-0.598C45.104,41.036 45.3,39.831 45.702,39.831z" id="path_1"/><path fill="#000000" d="M43.601,12.9c2.051,0 3.076,1.264 3.076,3.784c0,4.014 -3.426,7.438 -10.285,10.258c-0.98,0.299 -1.102,-0.06 -0.35,-1.076c0.188,-0.384 1.803,-1.589 4.852,-3.604v-0.171c-1.314,-0.538 -1.973,-1.683 -1.973,-3.434c0.871,-3.835 2.256,-5.757 4.15,-5.757H43.601L43.601,12.9zM40.544,17.231c0,1.066 0.904,1.724 2.707,1.981h0.35c0.666,0 1.094,-0.248 1.273,-0.727c0,-1.085 -0.785,-1.93 -2.348,-2.527C41.843,15.959 41.185,16.386 40.544,17.231z" id="path_2"/></svg>