<svg id="vector" xmlns="http://www.w3.org/2000/svg" width="75" height="67" viewBox="0 0 83 73"><path fill="#000001" d="M33.732,22.377c2.641,0 5.176,1.136 7.611,3.408c0.086,0.982 -0.316,1.315 -1.205,0.999c-1.367,-0.939 -2.836,-1.4 -4.398,-1.4c-4.143,0.563 -6.209,1.503 -6.209,2.801c1.332,1.666 4.074,2.871 8.207,3.605h0.205l7.201,-2.409h0.4v0.402c-0.213,1.854 -1.416,3.126 -3.604,3.809c-4.535,2.067 -7.936,4.135 -10.207,6.201c-2.273,3.041 -3.4,5.51 -3.4,7.404c0,3.076 1.666,6.014 5.006,8.816c3.502,1.861 7.5,2.801 12.01,2.801l12.008,-0.605l0.199,0.205v0.4c-5.537,3.605 -10.807,5.406 -15.811,5.406h-0.6c-6.176,0 -10.445,-2.535 -12.813,-7.609c-1.066,-2.801 -1.605,-4.672 -1.605,-5.604c0,-5.373 1.469,-10.31 4.408,-14.819v-0.195c-2.674,-0.838 -4.008,-2.503 -4.008,-5.007v-0.803C28.027,24.982 30.23,22.377 33.732,22.377z" id="path_0"/><path fill="#0A0EE2" d="M39.465,8.814c0.205,-0.12 0.266,0.067 0.18,0.554c-1.137,2.665 -2.879,4.528 -5.227,5.578l-8.637,4.33c-0.367,-0.102 -0.436,-0.4 -0.205,-0.905c1.152,-2.22 1.939,-3.535 2.357,-3.954L39.465,8.814z" id="path_1"/></svg>