<svg id="vector" xmlns="http://www.w3.org/2000/svg" width="75" height="67" viewBox="0 0 83 73"><path fill="#000001" d="M42.671,36.445h0.803c2.34,0 4.074,1.998 5.209,6.004l0.197,2c0.068,0.648 0.068,1.314 0,2.006c-0.598,2.436 -1.938,4.834 -4.006,7.201c-1.434,1.205 -4.697,2.135 -9.805,2.801c-0.599,-0.266 -0.94,-0.529 -1,-0.793c8.541,-4.639 12.813,-7.439 12.813,-8.414l0.195,-0.598l-0.195,-0.197l-1.803,0.6h-1c-3.604,0 -5.406,-1.273 -5.406,-3.803v-0.4c0.462,-4.143 1.47,-6.211 2.998,-6.211L42.671,36.445z" id="path_0"/><path fill="#C60505" d="M42.449,16.545c2.049,0 3.075,1.262 3.075,3.783c0,4.014 -3.426,7.439 -10.285,10.258c-0.981,0.299 -1.102,-0.061 -0.35,-1.076c0.188,-0.385 1.803,-1.588 4.852,-3.604v-0.172c-1.314,-0.537 -1.973,-1.682 -1.973,-3.434c0.871,-3.836 2.256,-5.756 4.15,-5.756H42.449L42.449,16.545zM39.391,20.875c0,1.066 0.905,1.725 2.708,1.98h0.351c0.665,0 1.093,-0.248 1.272,-0.727c0,-1.084 -0.786,-1.93 -2.348,-2.527C40.689,19.602 40.032,20.029 39.391,20.875z" id="path_1"/></svg>