<svg id="vector" xmlns="http://www.w3.org/2000/svg" width="75" height="67" viewBox="0 0 83 73"><path fill="#C60505" d="M41.103,48.279c2.802,0.803 4.202,1.803 4.202,3.008l-2.605,4.201c-2.604,-1.066 -4.006,-1.871 -4.202,-2.398C38.497,51.85 39.36,50.252 41.103,48.279z" id="path_0"/><path fill="#C60505" d="M29.085,29.463h0.205l0.4,0.4c-1.067,2.367 -1.605,3.973 -1.605,4.801c0,3.904 3.741,6.176 11.215,6.809l2.4,0.4c2.4,0 6.005,-0.734 10.806,-2.203l2.809,-1.598c-0.938,-1.699 -1.536,-3.168 -1.801,-4.408l0.4,-3.801h0.393c1.607,1.666 2.41,4.605 2.41,8.807c0,4.041 -3.536,6.773 -10.617,8.209l-2.998,0.4c-11.216,0 -16.818,-3.672 -16.818,-11.01C26.283,33.203 27.223,30.932 29.085,29.463z" id="path_1"/><path fill="#1305c6" d="M49.183,17.547c0.205,-0.119 0.265,0.068 0.179,0.557c-1.136,2.664 -2.878,4.525 -5.228,5.576l-8.635,4.33c-0.368,-0.102 -0.436,-0.4 -0.205,-0.904c1.153,-2.221 1.938,-3.537 2.357,-3.955L49.183,17.547z" id="path_2"/></svg>