<svg id="vector" xmlns="http://www.w3.org/2000/svg" width="75" height="67" viewBox="0 0 83 73"><path fill="#C60505" d="M41.102,36.236c2.803,0.803 4.203,1.801 4.203,3.006l-2.605,4.201c-2.605,-1.066 -4.006,-1.869 -4.203,-2.398C38.496,39.807 39.359,38.209 41.102,36.236z" id="path_0"/><path fill="#C60505" d="M29.084,17.42h0.205l0.4,0.4c-1.066,2.365 -1.605,3.971 -1.605,4.801c0,3.902 3.742,6.176 11.215,6.807l2.4,0.402c2.4,0 6.006,-0.734 10.807,-2.203l2.809,-1.598c-0.939,-1.699 -1.537,-3.17 -1.801,-4.408l0.4,-3.801h0.393c1.607,1.666 2.41,4.605 2.41,8.807c0,4.039 -3.537,6.773 -10.617,8.207l-2.998,0.402c-11.217,0 -16.818,-3.674 -16.818,-11.01C26.283,21.16 27.223,18.889 29.084,17.42z" id="path_1"/><path fill="#e2610a" d="M48.807,45.119c0.205,-0.111 0.264,0.068 0.178,0.555c-1.135,2.666 -2.877,4.527 -5.227,5.578l-8.635,4.33c-0.367,-0.104 -0.436,-0.402 -0.205,-0.898c1.152,-2.221 1.938,-3.535 2.357,-3.953L48.807,45.119z" id="path_2"/></svg>