<svg id="vector" xmlns="http://www.w3.org/2000/svg" width="75" height="67" viewBox="0 0 83 73"><path fill="#0000E1" d="M41.102,50.104c2.801,0.803 4.201,1.801 4.201,3.006l-2.604,4.201c-2.605,-1.066 -4.006,-1.869 -4.203,-2.398C38.496,53.674 39.359,52.076 41.102,50.104z" id="path_0"/><path fill="#0000E1" d="M29.084,31.285h0.205l0.4,0.402c-1.066,2.365 -1.605,3.971 -1.605,4.801c0,3.902 3.74,6.174 11.215,6.807l2.4,0.402c2.4,0 6.004,-0.736 10.807,-2.203l2.809,-1.598c-0.939,-1.701 -1.537,-3.17 -1.801,-4.408l0.4,-3.801h0.393c1.607,1.664 2.41,4.604 2.41,8.807c0,4.039 -3.537,6.771 -10.619,8.207L43.1,49.104c-11.215,0 -16.816,-3.674 -16.816,-11.01C26.283,35.027 27.221,32.754 29.084,31.285z" id="path_1"/><path fill="#C60505" d="M43.656,15.689c2.049,0 3.074,1.264 3.074,3.783c0,4.014 -3.426,7.439 -10.285,10.258c-0.98,0.299 -1.102,-0.059 -0.35,-1.076c0.188,-0.383 1.803,-1.588 4.852,-3.604v-0.172c-1.314,-0.537 -1.973,-1.682 -1.973,-3.434c0.871,-3.834 2.256,-5.756 4.15,-5.756H43.656L43.656,15.689zM40.598,20.02c0,1.066 0.904,1.725 2.707,1.982h0.352c0.664,0 1.092,-0.248 1.271,-0.727c0,-1.086 -0.785,-1.93 -2.348,-2.527C41.896,18.748 41.238,19.174 40.598,20.02z" id="path_2"/></svg>