<svg id="vector" xmlns="http://www.w3.org/2000/svg" width="75" height="67" viewBox="0 0 83 73"><path fill="#000001" d="M49.736,19.674c3.049,0.334 4.646,1.939 4.774,4.826v0.932c-0.735,5.867 -1.999,8.805 -3.802,8.805h-0.196c-0.938,0 -3.339,-0.666 -7.208,-1.998c-1.701,3.938 -3.904,6.338 -6.611,7.201c-3.801,1.203 -6.133,1.801 -7.004,1.801h-0.803c-0.299,-0.127 -0.427,-0.332 -0.393,-0.598c0.094,-0.299 1.827,-1.365 5.201,-3.203c6.005,-3.707 9.012,-6.84 9.012,-9.412c0.931,-3.57 2.264,-5.971 3.996,-7.199C47.609,20.143 48.617,19.76 49.736,19.674L49.736,19.674zM45.704,26.832c-0.034,0.084 -0.034,0.145 0,0.197l5.604,1.605c0.272,0.068 0.47,0 0.606,-0.205c0,-1.564 -1.271,-2.572 -3.81,-2.998h-0.196C47.105,25.432 46.371,25.893 45.704,26.832z" id="path_0"/><path fill="#0000E1" d="M49.258,42.865c0.205,-0.111 0.266,0.068 0.18,0.555c-1.137,2.664 -2.879,4.527 -5.229,5.578l-8.634,4.33c-0.368,-0.104 -0.436,-0.402 -0.205,-0.898c1.152,-2.221 1.938,-3.535 2.357,-3.953L49.258,42.865z" id="path_1"/></svg>