<svg id="vector" xmlns="http://www.w3.org/2000/svg" width="75" height="67" viewBox="0 0 83 73"><path fill="#0000E1" d="M33.508,24.2c2.641,0 5.176,1.136 7.611,3.408c0.086,0.982 -0.316,1.314 -1.205,0.999c-1.367,-0.939 -2.836,-1.401 -4.398,-1.401c-4.143,0.564 -6.209,1.504 -6.209,2.802c1.332,1.666 4.074,2.87 8.209,3.605h0.203l7.201,-2.409h0.4v0.402c-0.213,1.854 -1.416,3.125 -3.604,3.809c-4.535,2.067 -7.934,4.135 -10.207,6.201c-2.271,3.041 -3.4,5.509 -3.4,7.405c0,3.074 1.666,6.014 5.006,8.814c3.502,1.863 7.5,2.803 12.01,2.803l12.01,-0.607l0.197,0.205v0.402c-5.535,3.604 -10.807,5.406 -15.811,5.406h-0.598c-6.176,0 -10.447,-2.537 -12.814,-7.611c-1.066,-2.801 -1.605,-4.672 -1.605,-5.602c0,-5.373 1.469,-10.311 4.408,-14.82v-0.196c-2.674,-0.838 -4.006,-2.502 -4.006,-5.006v-0.803C27.803,26.806 30.006,24.2 33.508,24.2z" id="path_0"/><path fill="#e2610a" d="M33.715,6.955c2.049,0 3.074,1.264 3.074,3.783c0,4.015 -3.426,7.44 -10.285,10.26c-0.98,0.299 -1.102,-0.061 -0.35,-1.076c0.188,-0.385 1.803,-1.59 4.852,-3.605v-0.171c-1.314,-0.537 -1.973,-1.683 -1.973,-3.434c0.871,-3.835 2.256,-5.757 4.15,-5.757H33.715L33.715,6.955zM30.656,11.286c0,1.067 0.906,1.725 2.707,1.981h0.352c0.666,0 1.094,-0.248 1.271,-0.727c0,-1.084 -0.785,-1.93 -2.348,-2.527C31.955,10.014 31.297,10.439 30.656,11.286z" id="path_1"/></svg>