<svg id="vector" xmlns="http://www.w3.org/2000/svg" width="75" height="67" viewBox="0 0 83 73"><path fill="#9e3b21" d="M44.689,29.816c1.342,0 2.578,0.827 3.715,2.479c-0.951,2.168 -1.678,3.252 -2.168,3.252c-2.088,-1.032 -3.227,-1.705 -3.41,-2.016C42.826,32.553 43.447,31.31 44.689,29.816z" id="path_0"/><path fill="#9e3b21" d="M39.672,49.257h0.775c4.818,-0.093 8.018,-0.767 9.604,-2.036l0.311,-0.615c-0.205,-0.496 -0.463,-0.74 -0.773,-0.74c-0.746,0.416 -1.574,0.621 -2.48,0.621h-0.158c-2.682,-0.31 -4.078,-1.395 -4.178,-3.252v-0.159c0.258,-3.51 1.084,-5.262 2.48,-5.262h0.773c2.387,-0.119 4.197,1.738 5.42,5.573l0.152,1.553v0.311c-0.033,3.794 -1.395,6.3 -4.084,7.51c-0.953,0.608 -3.572,0.912 -7.842,0.912V49.257z" id="path_1"/><path fill="#9e3b21" d="M50.414,19.338c0.158,-0.092 0.205,0.053 0.141,0.43c-0.881,2.062 -2.23,3.503 -4.047,4.316l-6.684,3.352c-0.283,-0.08 -0.336,-0.311 -0.158,-0.701c0.893,-1.718 1.5,-2.736 1.824,-3.06L50.414,19.338z" id="path_2"/><path fill="#00BFA5" d="M39.824,53.673c-3.008,0.178 -5.195,-1.21 -6.564,-4.165c-0.66,-1.097 -1.275,-8.494 -1.857,-22.191v-0.311c0.383,-2.273 0.951,-3.411 1.699,-3.411l0.779,-0.151c0.953,0 2.4,0.31 4.338,0.924v0.311c-0.107,0.311 -0.418,0.469 -0.934,0.469h-2.631c-0.541,0 -1.059,0.305 -1.553,0.927c0.482,11.892 1.184,18.779 2.115,20.663c0.926,1.885 2.465,2.724 4.607,2.519V53.673z" id="path_3"/></svg>