<svg id="vector" xmlns="http://www.w3.org/2000/svg" width="75" height="67" viewBox="0 0 83 73"><path fill="#D32F2F" d="M47.271,49.261h0.311c1.058,0.231 2.194,0.854 3.411,1.864v0.152c-0.7,2.115 -1.315,3.252 -1.857,3.41c-1.58,-0.311 -2.763,-0.826 -3.563,-1.554v-0.151C45.572,51.766 46.141,50.53 47.271,49.261z" id="path_0"/><path fill="#D32F2F" d="M53.009,47.866h0.151c1.058,0.159 2.248,0.88 3.563,2.168v0.159l-1.857,3.251c-2.479,-0.799 -3.723,-1.474 -3.723,-2.016C51.944,49.056 52.565,47.866 53.009,47.866z" id="path_1"/><path fill="#D32F2F" d="M45.896,42.175c4.059,0.039 6.326,-0.721 6.822,-2.287c0,-0.542 -0.516,-1.885 -1.554,-4.026l0.47,-4.025h0.304c1.349,2.32 2.016,4.646 2.016,6.967v1.396c0,0.932 -0.224,1.91 -0.667,2.935s-1.131,1.891 -2.05,2.584c-0.925,0.702 -2.703,0.993 -5.341,0.874V42.175z" id="path_2"/><path fill="#D32F2F" d="M53.24,18.312c1.586,0 2.379,0.979 2.379,2.928c0,3.106 -2.65,5.758 -7.958,7.939c-0.761,0.231 -0.854,-0.046 -0.271,-0.833c0.146,-0.298 1.395,-1.229 3.754,-2.789v-0.133c-1.018,-0.416 -1.526,-1.303 -1.526,-2.657c0.675,-2.968 1.745,-4.455 3.213,-4.455H53.24L53.24,18.312zM50.873,21.663c0,0.826 0.701,1.335 2.096,1.533h0.271c0.515,0 0.845,-0.191 0.984,-0.563c0,-0.839 -0.608,-1.492 -1.817,-1.956C51.878,20.678 51.369,21.008 50.873,21.663z" id="path_3"/><path fill="#000001" d="M46.576,46.591l-1.745,-0.02c-0.965,4.25 -3.522,6.398 -7.668,6.451c-2.221,0.099 -3.331,0.059 -3.331,-0.118c0.204,-0.391 1.691,-1.139 4.455,-2.248c2.843,-1.806 4.555,-2.969 5.149,-3.484l0.159,-0.462l-2.711,-0.431c-1.977,-0.516 -3.087,-1.507 -3.332,-2.98v-0.311c0,-2.506 0.615,-4.105 1.858,-4.806l0.932,-0.152c1.831,0 3.325,1.275 4.488,3.834c0.741,0.257 1.322,0.383 1.745,0.369V46.591z" id="path_4"/><path fill="#213877" d="M27.671,20.559c0.312,0 0.621,1.038 0.933,3.1l1.395,3.101l-0.622,3.563l0.463,8.679v1.39c-0.204,3.543 -0.72,5.605 -1.547,6.2l-0.151,-0.153l0.151,-2.326c0,-2.088 -0.674,-8.751 -2.016,-19.983C26.924,21.748 27.387,20.559 27.671,20.559z" id="path_5"/><path fill="#000001" d="M38.841,24.091h1.533c1.857,0 2.789,0.694 2.789,2.088c-1.202,3.253 -2.663,4.979 -4.382,5.176l-2.029,0.271c-0.324,0 -0.456,-0.092 -0.41,-0.271c1.64,-0.865 3.173,-1.896 4.595,-3.08c-0.503,-0.47 -1.059,-0.701 -1.666,-0.701h-0.43l-1.666,0.14l-0.133,-0.14v-0.27C37.829,25.161 38.432,24.091 38.841,24.091z" id="path_6"/></svg>