<svg id="vector" xmlns="http://www.w3.org/2000/svg" width="75" height="67" viewBox="0 0 83 73"><path fill="#0097A7" d="M41.751,41.858h0.06c2.399,-0.106 4.052,-1.263 4.958,-3.484c0,-0.311 0.204,-0.568 0.62,-0.78h0.313c0.203,0 0.309,0.158 0.309,0.47l-0.159,0.926c0.881,1.554 1.813,2.327 2.792,2.327h0.772c1.343,0 2.38,-1.343 3.101,-4.026h0.159c0.151,0.021 0.408,0.642 0.772,1.857c0.879,0.773 1.751,1.236 2.631,1.396c1.031,0 1.555,-0.622 1.555,-1.858c0.099,-1.963 0.304,-2.948 0.613,-2.948c0.416,0.879 0.622,1.964 0.622,3.253c0,3.826 -0.932,5.738 -2.79,5.738c-1.448,0 -2.631,-0.728 -3.563,-2.176h-0.312c-0.642,2.069 -1.679,3.101 -3.1,3.101h-0.152c-1.262,0 -2.709,-0.978 -4.336,-2.941c-1.369,2.372 -2.922,3.563 -4.647,3.563h-0.218V41.858z" id="path_0"/><path fill="#0097A7" d="M53.623,20.533c1.585,0 2.38,0.978 2.38,2.928c0,3.106 -2.651,5.759 -7.96,7.94c-0.76,0.229 -0.853,-0.047 -0.27,-0.834c0.144,-0.298 1.394,-1.229 3.754,-2.789v-0.134C50.509,27.229 50,26.342 50,24.988c0.676,-2.969 1.746,-4.455 3.213,-4.455H53.623L53.623,20.533zM51.256,23.885c0,0.826 0.701,1.336 2.096,1.533h0.271c0.515,0 0.846,-0.191 0.985,-0.563c0,-0.839 -0.608,-1.493 -1.818,-1.957C52.262,22.898 51.753,23.229 51.256,23.885z" id="path_1"/><path fill="#F57C00" d="M42.432,46.273l-1.746,-0.021c-0.964,4.252 -3.521,6.399 -7.666,6.453c-2.222,0.098 -3.333,0.058 -3.333,-0.119c0.204,-0.392 1.691,-1.138 4.456,-2.248c2.843,-1.805 4.554,-2.968 5.149,-3.483l0.159,-0.464l-2.712,-0.429c-1.976,-0.517 -3.087,-1.508 -3.332,-2.981v-0.311c0,-2.506 0.616,-4.104 1.858,-4.806l0.933,-0.153c1.831,0 3.325,1.277 4.487,3.836c0.741,0.257 1.323,0.382 1.746,0.369V46.273z" id="path_2"/><path fill="#303F9F" d="M23.525,20.241c0.313,0 0.621,1.038 0.933,3.101l1.396,3.101l-0.623,3.563l0.464,8.679v1.389c-0.206,3.544 -0.721,5.605 -1.549,6.2l-0.151,-0.152l0.151,-2.326c0,-2.089 -0.674,-8.753 -2.016,-19.983C22.779,21.432 23.242,20.241 23.525,20.241z" id="path_3"/><path fill="#F57C00" d="M34.432,27.156h1.532c1.858,0 2.789,0.694 2.789,2.089c-1.202,3.252 -2.663,4.978 -4.382,5.177l-2.029,0.271c-0.324,0 -0.457,-0.093 -0.41,-0.271c1.639,-0.868 3.174,-1.898 4.594,-3.081c-0.502,-0.47 -1.057,-0.7 -1.666,-0.7h-0.428l-1.668,0.139l-0.133,-0.139v-0.271C33.418,28.228 34.021,27.156 34.432,27.156z" id="path_4"/></svg>