<svg id="vector" xmlns="http://www.w3.org/2000/svg" width="75" height="67" viewBox="0 0 83 73"><path fill="#0288D1" d="M44.35,31.215c2.168,1.083 3.253,2.016 3.253,2.789c-1.032,2.035 -1.653,3.073 -1.857,3.1h-0.312c-1.585,-0.8 -2.57,-1.527 -2.941,-2.168C42.85,33.759 43.471,32.517 44.35,31.215z" id="path_0"/><path fill="#0288D1" d="M35.901,47.191h1.785c1.884,-0.258 4.879,-0.958 8.983,-2.089v-0.158c-3.741,-1.653 -6.115,-2.479 -7.126,-2.479c-1.368,0 -2.294,0.774 -2.789,2.327l-0.463,0.311c-0.206,0 -0.311,-0.158 -0.311,-0.47c0.516,-3.093 1.909,-4.646 4.184,-4.646h0.774c0.958,0 4.21,1.084 9.763,3.253l4.186,0.31l0.303,0.47c-0.071,0.693 -0.694,2.035 -1.858,4.025H52.87l-0.62,-0.158h-0.774c-8.059,2.379 -12.757,3.615 -14.1,3.721h-1.475V47.191z" id="path_1"/><path fill="#0288D1" d="M49.559,21.569c0.159,-0.092 0.206,0.053 0.14,0.43c-0.88,2.063 -2.229,3.504 -4.046,4.316l-6.684,3.352c-0.283,-0.079 -0.337,-0.311 -0.157,-0.7c0.892,-1.719 1.5,-2.736 1.824,-3.061L49.559,21.569z" id="path_2"/><path fill="#009649" d="M36.231,51.606c-3.007,0.179 -5.195,-1.209 -6.563,-4.164c-0.661,-1.098 -1.275,-8.494 -1.856,-22.191V24.94c0.382,-2.273 0.95,-3.41 1.698,-3.41l0.78,-0.151c0.951,0 2.399,0.31 4.336,0.924v0.311c-0.105,0.312 -0.416,0.47 -0.932,0.47h-2.632c-0.541,0 -1.058,0.305 -1.553,0.927c0.481,11.892 1.183,18.778 2.115,20.663c0.926,1.884 2.464,2.723 4.606,2.519V51.606z" id="path_3"/></svg>