<svg id="vector" xmlns="http://www.w3.org/2000/svg" width="75" height="67" viewBox="0 0 83 73"><path fill="#FF3D00" d="M30.146,27.374h1.546c1.874,0 2.813,0.699 2.813,2.106c-1.213,3.28 -2.687,5.02 -4.42,5.22l-2.047,0.273c-0.326,0 -0.46,-0.093 -0.413,-0.273c1.653,-0.873 3.2,-1.913 4.634,-3.106c-0.507,-0.474 -1.067,-0.707 -1.681,-0.707h-0.433l-1.681,0.141l-0.133,-0.141v-0.272C29.125,28.454 29.731,27.374 30.146,27.374L30.146,27.374z" id="path_0"/><path fill="#FF3D00" d="M47.318,47.354c-0.627,2.174 -2.526,4.573 -5.707,7.187c-1.913,1.36 -4.153,2.033 -6.713,2.033c-1.434,-0.326 -2.46,-0.652 -3.08,-0.973c-0.62,-0.327 -1.36,-1.047 -2.233,-2.153c-1.566,-2.08 -2.347,-4.007 -2.347,-5.78c0,-4.22 1.354,-7.6 4.067,-10.153c0.479,-0.34 0.686,-0.287 0.619,0.153c0,0.38 -0.78,1.84 -2.34,4.373c-0.627,1.267 -0.939,2.467 -0.939,3.594c0,1.62 1.146,3.387 3.439,5.313c1.627,0.899 3.394,1.267 5.313,1.093c2.26,0 5.073,-1.56 8.434,-4.687H47.318L47.318,47.354z" id="path_1"/><path fill="#00E5FF" d="M51.865,16.454c0.16,-0.094 0.206,0.053 0.14,0.433c-0.887,2.08 -2.246,3.534 -4.08,4.354l-6.74,3.38c-0.286,-0.08 -0.34,-0.313 -0.159,-0.707c0.899,-1.732 1.513,-2.76 1.84,-3.086L51.865,16.454L51.865,16.454z" id="path_2"/><path fill="#00E5FF" d="M55.519,32.62c-0.26,-0.866 -2.347,-2.359 -6.247,-4.486c-1.033,-0.833 -1.606,-1.667 -1.72,-2.5h-0.313c-0.273,0 -0.587,0.787 -0.939,2.347c-1.461,2.42 -2.188,5.18 -2.188,8.28v2.033c-2.5,1.434 -3.746,3.047 -3.746,4.84v2.813c0,0.587 1.82,1.213 5.467,1.88l-0.08,0.073h1.7c0.272,-0.713 0.413,-1.366 0.413,-1.953c0,-0.873 -0.313,-1.601 -0.94,-2.187c-0.394,-0.48 -2.06,-0.947 -5,-1.407V42.2c0.014,-0.26 1.107,-0.887 3.28,-1.873c3.153,0.413 5.913,0.62 8.28,0.62c0.52,-0.18 0.88,-0.4 1.08,-0.66c0.193,-0.26 0.56,-1.653 1.106,-4.18C55.832,34.647 55.778,33.487 55.519,32.62zM48.485,36.261c-1.233,0 -2.273,-0.467 -3.12,-1.407c0,-1.173 0.573,-2.159 1.713,-2.967c1.514,0 2.453,1.04 2.813,3.127C49.219,35.847 48.745,36.261 48.485,36.261zM53.332,36.573h-0.94c-0.74,0 -1.313,-0.106 -1.72,-0.313l0.627,-2.188v-0.152c1.146,0.319 2.187,1.053 3.126,2.187C54.425,36.273 54.059,36.434 53.332,36.573z" id="path_3"/></svg>