<svg id="vector" xmlns="http://www.w3.org/2000/svg" width="75" height="67" viewBox="0 0 83 73"><path fill="#000001" d="M38.631,47.172c0.227,0.027 0.443,-0.093 0.662,-0.35c-0.41,-0.503 -0.621,-1.025 -0.621,-1.566V43.86c0.496,-4.542 2.3,-6.815 5.426,-6.815c1.574,0 3.278,0.826 5.109,2.479c0.676,0.259 1.032,0.516 1.085,0.774v0.152c0,0.236 -0.257,0.389 -0.773,0.468c0,-0.441 -1.343,-0.8 -4.025,-1.082h-0.621c-2.896,0.435 -4.337,1.208 -4.337,2.318c0,1.528 1.494,2.664 4.489,3.412l1.083,0.152c0.391,0 2.354,-0.979 5.891,-2.942h0.152l0.311,0.311c0,2.142 -2.373,4.468 -7.127,6.975c-3.384,1.031 -5.446,1.546 -6.193,1.546c-0.172,0 -0.337,-0.007 -0.51,-0.021V47.172z" id="path_0"/><path fill="#000001" d="M49.731,23.95c0.158,-0.093 0.203,0.053 0.138,0.43c-0.879,2.063 -2.228,3.503 -4.045,4.315l-6.684,3.352c-0.283,-0.078 -0.337,-0.311 -0.159,-0.699c0.893,-1.721 1.502,-2.737 1.825,-3.062L49.731,23.95z" id="path_1"/><path fill="#1976D2" d="M38.962,51.607c-3.008,0.179 -5.196,-1.209 -6.563,-4.165c-0.662,-1.097 -1.275,-8.494 -1.857,-22.189v-0.312c0.382,-2.273 0.952,-3.411 1.698,-3.411l0.78,-0.152c0.951,0 2.399,0.311 4.336,0.926v0.311c-0.105,0.311 -0.416,0.47 -0.932,0.47h-2.631c-0.542,0 -1.059,0.304 -1.554,0.926c0.482,11.892 1.184,18.779 2.116,20.663c0.925,1.886 2.464,2.724 4.606,2.52V51.607z" id="path_2"/></svg>