<svg id="vector" xmlns="http://www.w3.org/2000/svg" width="75" height="67" viewBox="0 0 83 73"><path fill="#00B8D4" d="M50.454,27.992c1.34,0 2.577,0.825 3.715,2.479c-0.952,2.168 -1.68,3.253 -2.17,3.253c-2.088,-1.031 -3.225,-1.706 -3.411,-2.016C48.588,30.729 49.211,29.485 50.454,27.992z" id="path_0"/><path fill="#00B8D4" d="M45.436,47.433h0.773c4.818,-0.092 8.02,-0.767 9.604,-2.035l0.311,-0.615c-0.204,-0.496 -0.462,-0.74 -0.772,-0.74c-0.747,0.416 -1.574,0.622 -2.479,0.622h-0.159c-2.684,-0.312 -4.079,-1.396 -4.178,-3.254v-0.158c0.258,-3.511 1.083,-5.262 2.479,-5.262h0.772c2.389,-0.119 4.198,1.739 5.422,5.572l0.152,1.554v0.311c-0.033,3.795 -1.396,6.3 -4.086,7.509c-0.951,0.608 -3.569,0.914 -7.84,0.914V47.433z" id="path_1"/><path fill="#00B8D4" d="M51.9,14.666c1.588,0 2.38,0.978 2.38,2.928c0,3.106 -2.651,5.758 -7.959,7.939c-0.76,0.23 -0.853,-0.047 -0.271,-0.833c0.146,-0.298 1.395,-1.229 3.754,-2.789v-0.133c-1.018,-0.416 -1.526,-1.303 -1.526,-2.657c0.674,-2.968 1.746,-4.455 3.213,-4.455H51.9L51.9,14.666zM49.535,18.018c0,0.825 0.699,1.335 2.094,1.533H51.9c0.517,0 0.846,-0.191 0.986,-0.563c0,-0.839 -0.609,-1.494 -1.819,-1.957C50.539,17.031 50.03,17.362 49.535,18.018z" id="path_2"/><path fill="#000001" d="M45.938,51.85l-1.744,-0.021c-0.965,4.25 -3.523,6.398 -7.668,6.452c-2.221,0.098 -3.332,0.059 -3.332,-0.12c0.204,-0.39 1.692,-1.137 4.455,-2.247c2.843,-1.805 4.556,-2.968 5.15,-3.484l0.158,-0.463l-2.709,-0.429c-1.978,-0.517 -3.088,-1.508 -3.333,-2.981v-0.311c0,-2.506 0.615,-4.105 1.857,-4.806l0.932,-0.152c1.832,0 3.325,1.276 4.489,3.834c0.739,0.258 1.322,0.383 1.744,0.37V51.85z" id="path_3"/><path fill="#00B8D4" d="M27.031,25.816c0.313,0 0.623,1.038 0.933,3.101l1.396,3.101l-0.622,3.563l0.463,8.681v1.388c-0.205,3.543 -0.721,5.605 -1.547,6.201l-0.152,-0.153l0.152,-2.326c0,-2.09 -0.675,-8.753 -2.016,-19.983C26.286,27.007 26.749,25.816 27.031,25.816z" id="path_4"/><path fill="#000001" d="M35.563,24.091h1.532c1.859,0 2.791,0.694 2.791,2.088c-1.204,3.253 -2.665,4.979 -4.383,5.176l-2.029,0.271c-0.325,0 -0.457,-0.092 -0.412,-0.271c1.642,-0.865 3.176,-1.896 4.596,-3.08c-0.503,-0.47 -1.059,-0.701 -1.666,-0.701h-0.429l-1.667,0.14l-0.132,-0.14v-0.27C34.55,25.161 35.151,24.091 35.563,24.091z" id="path_5"/></svg>