<svg id="vector" xmlns="http://www.w3.org/2000/svg" width="75" height="67" viewBox="0 0 83 73"><path fill="#213877" d="M50.786,40.439l-2.941,-0.926c-0.569,-0.145 -1.448,-0.297 -2.632,-0.469v-0.152c-0.079,-2.597 0.589,-4.039 2.01,-4.337c1.037,-0.555 1.706,-1.177 2.016,-1.864c-0.104,-0.667 -1.546,-2.425 -4.336,-5.262c-0.145,-2.432 -0.125,-3.734 0.047,-3.927c0.172,-0.184 0.363,-0.217 0.568,-0.105c3.306,2.882 4.957,5.414 4.957,7.596c-0.072,1.427 -0.382,2.67 -0.925,3.714l-0.35,0.463c2.194,0.528 3.291,1.255 3.291,2.173v1.548c0,0.501 -0.08,1.018 -0.231,1.546H50.786z" id="path_0"/><path fill="#213877" d="M41.28,16.371h0.152l3.26,1.699v0.311c0,0.377 -0.623,1.567 -1.865,3.563c-1.897,-0.542 -2.98,-1.11 -3.252,-1.699L41.28,16.371z" id="path_1"/><path fill="#213877" d="M47.012,15.439c1.367,0.721 2.452,1.448 3.251,2.169c-0.229,1.11 -0.95,2.3 -2.167,3.563h-0.152c-1.422,-0.595 -2.405,-1.263 -2.947,-2.009V18.85C45.928,16.577 46.602,15.439 47.012,15.439z" id="path_2"/><path fill="#1976D2" d="M53.014,49.462c0.158,-0.086 0.205,0.053 0.14,0.43c-0.88,2.062 -2.229,3.503 -4.046,4.317l-6.684,3.351c-0.285,-0.08 -0.337,-0.311 -0.159,-0.694c0.893,-1.719 1.501,-2.737 1.824,-3.061L53.014,49.462z" id="path_3"/><path fill="#1976D2" d="M52.108,40.439c-0.621,2.156 -2.506,4.535 -5.659,7.126c-1.897,1.349 -4.119,2.016 -6.656,2.016c-1.421,-0.324 -2.439,-0.648 -3.054,-0.965c-0.615,-0.325 -1.349,-1.038 -2.215,-2.135c-1.553,-2.063 -2.326,-3.973 -2.326,-5.731c0,-4.184 1.342,-7.536 4.032,-10.067c0.476,-0.337 0.68,-0.285 0.614,0.152c0,0.376 -0.773,1.825 -2.32,4.337c-0.622,1.255 -0.931,2.445 -0.931,3.563c0,1.606 1.137,3.358 3.409,5.269c1.613,0.892 3.365,1.256 5.269,1.083c2.241,0 5.03,-1.546 8.362,-4.647H52.108z" id="path_4"/><path fill="#1976D2" d="M32.326,20.041h1.532c1.859,0 2.791,0.694 2.791,2.089c-1.203,3.252 -2.665,4.977 -4.383,5.176l-2.029,0.271c-0.324,0 -0.457,-0.092 -0.411,-0.271c1.641,-0.866 3.173,-1.897 4.596,-3.081c-0.504,-0.47 -1.059,-0.701 -1.667,-0.701h-0.429l-1.667,0.139l-0.132,-0.139v-0.27C31.314,21.111 31.915,20.041 32.326,20.041z" id="path_5"/></svg>