<svg id="vector" xmlns="http://www.w3.org/2000/svg" width="75" height="67" viewBox="0 0 83 73"><path fill="#00B8D4" d="M33.283,27.144h1.547c1.874,0 2.813,0.7 2.813,2.106c-1.214,3.28 -2.687,5.021 -4.42,5.221l-2.047,0.273c-0.327,0 -0.46,-0.094 -0.413,-0.273c1.653,-0.874 3.2,-1.914 4.633,-3.107c-0.506,-0.473 -1.066,-0.706 -1.68,-0.706h-0.434l-1.68,0.14l-0.133,-0.14v-0.273C32.264,28.224 32.87,27.144 33.283,27.144L33.283,27.144z" id="path_0"/><path fill="#00B8D4" d="M35.077,40.131h0.626c1.827,0 3.181,1.56 4.067,4.686l0.153,1.561c0.053,0.507 0.053,1.026 0,1.566c-0.467,1.9 -1.514,3.773 -3.127,5.62c-1.12,0.94 -3.667,1.667 -7.653,2.187c-0.467,-0.206 -0.733,-0.413 -0.78,-0.62c6.667,-3.619 10,-5.807 10,-6.566l0.153,-0.467l-0.153,-0.153l-1.406,0.467h-0.78c-2.813,0 -4.22,-0.993 -4.22,-2.967v-0.313c0.359,-3.233 1.146,-4.847 2.34,-4.847L35.077,40.131L35.077,40.131z" id="path_1"/><path fill="#000001" d="M52.271,17.277c0.16,-0.093 0.206,0.053 0.14,0.434c-0.887,2.08 -2.247,3.534 -4.08,4.353l-6.74,3.38c-0.286,-0.08 -0.34,-0.313 -0.16,-0.706c0.9,-1.733 1.514,-2.76 1.841,-3.087L52.271,17.277L52.271,17.277z" id="path_2"/><path fill="#000001" d="M46.037,27.177c1.279,0.214 2.526,0.994 3.753,2.347v0.313c-0.78,2.08 -1.354,3.12 -1.72,3.12c-2.5,-0.854 -3.747,-1.533 -3.747,-2.026C44.323,29.964 44.896,28.717 46.037,27.177L46.037,27.177z" id="path_3"/><path fill="#000001" d="M46.51,34.523c5.313,1.9 7.967,4.247 7.967,7.033l0.16,0.934c-0.446,3.646 -1.646,5.467 -3.6,5.467c0,0.34 -2.601,0.76 -7.807,1.253l-0.16,-0.466c0,-2.607 0.467,-3.907 1.406,-3.907c5.207,-0.42 8.073,-1.047 8.594,-1.88c-1.793,-1.74 -4.141,-3.146 -7.033,-4.213l-0.153,-0.787C45.963,35.67 46.17,34.523 46.51,34.523L46.51,34.523z" id="path_4"/></svg>