<svg id="vector" xmlns="http://www.w3.org/2000/svg" width="75" height="67" viewBox="0 0 83 73"><path fill="#000001" d="M44.156,56.377c0.529,0 1.766,0.622 3.715,1.864c0,0.774 -0.615,2.01 -1.856,3.715c-2.479,-0.799 -3.716,-1.52 -3.716,-2.168C42.359,59.207 42.98,58.07 44.156,56.377z" id="path_0"/><path fill="#C50505" d="M40.436,49.582c4.059,0.04 6.325,-0.721 6.82,-2.288c0,-0.542 -0.515,-1.883 -1.552,-4.025l0.468,-4.026h0.306c1.349,2.32 2.016,4.647 2.016,6.968v1.394c0,0.933 -0.225,1.91 -0.667,2.935c-0.444,1.024 -1.131,1.891 -2.05,2.585c-0.926,0.701 -2.704,0.991 -5.341,0.872V49.582z" id="path_1"/><path fill="#21772F" d="M50.488,28.396c0.159,-0.093 0.206,0.053 0.14,0.429c-0.878,2.063 -2.228,3.504 -4.046,4.317l-6.683,3.351c-0.284,-0.079 -0.337,-0.31 -0.158,-0.7c0.893,-1.719 1.5,-2.737 1.824,-3.061L50.488,28.396z" id="path_2"/><path fill="#2B1F1C" d="M40.766,53.998c-3.007,0.179 -5.196,-1.209 -6.563,-4.164c-0.662,-1.098 -1.276,-8.495 -1.858,-22.191v-0.311c0.383,-2.273 0.951,-3.411 1.699,-3.411l0.779,-0.152c0.953,0 2.399,0.312 4.338,0.926v0.311c-0.107,0.31 -0.417,0.469 -0.933,0.469h-2.631c-0.543,0 -1.057,0.304 -1.554,0.925c0.483,11.893 1.183,18.781 2.115,20.664c0.926,1.885 2.465,2.724 4.607,2.519V53.998z" id="path_3"/><path fill="#F44336" d="M2.313,12.417a20.743,10.887 0,1 0,41.486 0a20.743,10.887 0,1 0,-41.486 0z" id="path_4"/><path fill="#ffffff" d="M21.352,12.65l4.388,-1.958l0.628,-1.489c0,-0.039 0.038,-0.078 0.038,-0.117c0,0 -0.038,-0.039 -0.117,0l-4.583,1.997l-0.471,1.45c-0.039,0.039 -0.039,0.078 0,0.117C21.234,12.65 21.272,12.65 21.352,12.65z" id="path_5"/><path fill="#ffffff" d="M30.284,11.045c-0.079,-0.626 -0.039,-1.137 0.078,-1.528c0.156,-0.509 0.274,-0.822 0.274,-0.9c0.039,-0.55 -0.234,-1.411 -0.745,-2.586c-0.118,-0.51 -0.234,-0.862 -0.273,-1.098c-0.04,-0.234 -0.156,-0.391 -0.274,-0.43c-0.156,0.313 -0.234,0.782 -0.234,1.332c0,0.822 0,1.293 -0.04,1.45c0.196,1.802 0.313,3.055 0.393,3.72c0.077,0.667 0.156,1.411 0.273,2.195c0.117,0.783 0.195,1.371 0.195,1.763c0,0.196 0,0.43 -0.039,0.626c-0.382,0.422 -1.295,0.652 -2.65,0.663c-1.917,-0.053 -3.033,-0.717 -3.265,-1.995c-0.118,-0.391 -0.234,-0.587 -0.392,-0.587c-0.117,0.157 -0.195,0.469 -0.274,0.901c-0.077,0.392 -0.195,0.705 -0.273,0.861c-0.51,0.352 -0.94,0.588 -1.332,0.706c-0.354,0.118 -0.823,0.157 -1.371,0.118v0.022c-0.625,-0.04 -1.186,-0.263 -1.646,-0.689c-0.508,-0.469 -0.9,-1.214 -1.174,-2.271c-0.119,-0.393 -0.313,-1.333 -0.627,-2.86c-0.077,-0.352 -0.156,-0.51 -0.236,-0.51c-0.077,0 -0.156,0.236 -0.234,0.745c-0.039,0.196 -0.039,0.43 -0.039,0.626c0,0.432 0.078,1.058 0.196,1.842c0.157,0.822 0.236,1.41 0.236,1.802c0,0.821 -0.197,1.489 -0.668,2.075c-0.745,0.627 -1.409,0.98 -2.038,0.98c-0.312,0 -0.625,-0.117 -0.938,-0.273c-1.059,-0.589 -1.647,-1.802 -1.725,-3.684c0,-0.822 0,-1.449 0,-1.879c-0.038,-0.157 -0.078,-0.274 -0.157,-0.274c-0.077,0 -0.115,0.118 -0.156,0.313c-0.038,1.057 -0.078,1.84 -0.078,2.39c0,1.723 0.275,3.095 0.901,4.151c0.549,0.94 1.371,1.371 2.467,1.253c0.823,-0.157 1.49,-0.665 1.999,-1.488c0.394,-0.626 0.666,-1.332 0.822,-2.193c0.078,-0.196 0.196,-0.313 0.275,-0.273c0.43,0.978 0.9,1.605 1.33,1.918c0.355,0.248 0.85,0.394 1.49,0.42v0.011c0.026,0 0.053,-0.006 0.079,-0.006c0.04,0 0.075,0.006 0.116,0.006v-0.017c0.765,-0.04 1.565,-0.3 2.469,-0.806c0.078,-0.079 0.156,-0.039 0.195,0.078c-0.117,0.666 -0.156,1.136 -0.117,1.411c0.078,0.353 0.273,0.666 0.548,0.9c0.313,0.236 0.627,0.354 0.979,0.354c0.705,0 1.136,-0.354 1.293,-1.019c0.039,-0.313 0,-0.667 -0.118,-0.98c0.323,0.036 0.784,0.071 1.371,0.076v0.003c0.008,-0.001 0.015,-0.002 0.024,-0.002c0.046,0 0.086,0.002 0.134,0.002v-0.013c0.862,-0.051 1.558,-0.207 2.036,-0.575c0.509,-0.352 0.822,-0.784 1.019,-1.332c0.195,-0.47 0.313,-0.979 0.313,-1.488c0.039,-0.509 0,-1.136 -0.118,-1.88C30.441,12.377 30.362,11.673 30.284,11.045z" id="path_6"/><path fill="#ffffff" d="M34.906,8.891c0.118,-0.354 0.157,-0.628 0.157,-0.824c0,-0.078 0,-0.157 0,-0.273c-0.234,-0.274 -0.431,-0.666 -0.589,-1.176c-0.234,-0.782 -0.352,-1.175 -0.391,-1.253c-0.039,-0.039 -0.079,-0.196 -0.118,-0.431c0,-0.156 -0.039,-0.234 -0.117,-0.234c-0.039,0 -0.078,0 -0.156,0.039L33.34,6.07c-0.117,0.509 -0.156,0.979 -0.156,1.372c0,0.234 0.039,0.469 0.117,0.704c0.195,0.667 0.313,1.489 0.431,2.507c0.234,2.037 0.392,4.505 0.548,7.365c0,0.235 0,0.392 0.117,0.392c0.078,0 0.197,-0.157 0.354,-0.392c0.118,-0.391 0.195,-0.862 0.235,-1.332l-0.353,-6.895l0.039,-0.196C34.711,9.439 34.789,9.204 34.906,8.891z" id="path_7"/></svg>