<svg id="vector" xmlns="http://www.w3.org/2000/svg" width="75" height="67" viewBox="0 0 83 73"><path fill="#00E5FF" d="M30.857,28.134h1.546c1.874,0 2.813,0.7 2.813,2.106c-1.214,3.28 -2.687,5.021 -4.42,5.221l-2.047,0.272c-0.326,0 -0.46,-0.093 -0.413,-0.272c1.653,-0.874 3.2,-1.914 4.634,-3.107c-0.507,-0.473 -1.067,-0.706 -1.681,-0.706h-0.433l-1.681,0.14l-0.133,-0.14v-0.273C29.837,29.214 30.443,28.134 30.857,28.134L30.857,28.134z" id="path_0"/><path fill="#00E5FF" d="M38.104,49.62l-1.76,-0.02c-0.974,4.287 -3.554,6.453 -7.733,6.507c-2.24,0.1 -3.36,0.06 -3.36,-0.12c0.207,-0.394 1.707,-1.146 4.493,-2.267c2.867,-1.82 4.594,-2.993 5.193,-3.514l0.16,-0.467l-2.733,-0.433c-1.993,-0.521 -3.113,-1.521 -3.36,-3.007v-0.313c0,-2.526 0.62,-4.141 1.874,-4.847l0.939,-0.153c1.847,0 3.354,1.286 4.527,3.866c0.746,0.26 1.333,0.387 1.76,0.373V49.62L38.104,49.62z" id="path_1"/><path fill="#F50057" d="M49.077,14.867c0.16,-0.094 0.206,0.053 0.14,0.434c-0.887,2.08 -2.247,3.533 -4.08,4.353l-6.74,3.38c-0.286,-0.079 -0.34,-0.313 -0.16,-0.706c0.9,-1.733 1.514,-2.76 1.841,-3.087L49.077,14.867L49.077,14.867z" id="path_2"/><path fill="#F50057" d="M37.417,45.167v4.453h0.02c3.287,0 5.474,-0.727 6.567,-2.187c1.146,-1.873 1.72,-3.646 1.72,-5.313c-0.214,-2.348 -1.407,-5.728 -3.601,-10.154v-0.159c2.007,-1.534 5.913,-3.987 11.721,-7.341h0.159v0.154l-0.159,0.152v0.787l0.159,0.78h0.313c0.78,-2.007 1.927,-4.193 3.434,-6.567v-0.307l-0.153,-0.16c-7.007,3.854 -11.747,6.614 -14.22,8.28c-1.066,0.521 -1.787,1.467 -2.146,2.834c-0.367,1.366 -0.381,2.873 -0.04,4.513l0.313,1.247c1.98,3.833 2.967,6.173 2.967,7.033c-0.6,1.094 -2.319,1.747 -5.153,1.953H38.53h-0.307H37.417z" id="path_3"/></svg>