<svg id="vector" xmlns="http://www.w3.org/2000/svg" width="75" height="67" viewBox="0 0 83 73"><path fill="#3F51B5" d="M34.193,29.48h1.547c1.873,0 2.813,0.7 2.813,2.107c-1.213,3.279 -2.686,5.02 -4.42,5.22l-2.047,0.274c-0.326,0 -0.459,-0.094 -0.412,-0.274c1.652,-0.873 3.199,-1.913 4.633,-3.106c-0.506,-0.474 -1.066,-0.707 -1.68,-0.707h-0.434l-1.68,0.14l-0.133,-0.14V32.72C33.174,30.56 33.781,29.48 34.193,29.48L34.193,29.48z" id="path_0"/><path fill="#3F51B5" d="M51.367,49.461c-0.627,2.173 -2.527,4.573 -5.707,7.187c-1.914,1.36 -4.154,2.033 -6.713,2.033c-1.434,-0.326 -2.461,-0.653 -3.08,-0.974c-0.621,-0.326 -1.359,-1.046 -2.234,-2.153c-1.566,-2.08 -2.346,-4.006 -2.346,-5.779c0,-4.221 1.354,-7.601 4.066,-10.153c0.48,-0.34 0.688,-0.287 0.619,0.153c0,0.38 -0.779,1.84 -2.34,4.373c-0.627,1.267 -0.939,2.467 -0.939,3.594c0,1.619 1.146,3.386 3.439,5.313c1.627,0.9 3.395,1.268 5.314,1.094c2.26,0 5.072,-1.561 8.434,-4.687H51.367L51.367,49.461z" id="path_1"/><path fill="#9e3b21" d="M48.82,14.347c0.16,-0.094 0.207,0.053 0.141,0.434c-0.887,2.08 -2.248,3.533 -4.08,4.353l-6.74,3.38c-0.287,-0.079 -0.34,-0.313 -0.16,-0.706c0.9,-1.733 1.514,-2.76 1.84,-3.087L48.82,14.347L48.82,14.347z" id="path_2"/><path fill="#9e3b21" d="M44.1,23.407c0.533,0 1.781,0.627 3.748,1.873c0,0.78 -0.627,2.034 -1.875,3.754c-2.5,-0.807 -3.752,-1.54 -3.752,-2.187C42.287,26.26 42.914,25.114 44.1,23.407L44.1,23.407z" id="path_3"/><path fill="#9e3b21" d="M50,49.461h1.48c0.16,-0.533 0.232,-1.054 0.232,-1.56v-1.561c0,-0.927 -1.105,-1.66 -3.32,-2.193l0.354,-0.467c0.547,-1.054 0.861,-2.307 0.941,-3.746c0,-2.2 -1.668,-4.754 -5,-7.661c-0.215,-0.113 -0.4,-0.08 -0.58,0.106c-0.174,0.193 -0.193,1.507 -0.047,3.96c2.813,2.861 4.273,4.634 4.373,5.307c-0.313,0.693 -0.986,1.32 -2.033,1.88c-1.428,0.3 -2.107,1.754 -2.027,4.374v0.152c1.193,0.174 2.08,0.327 2.654,0.474L50,49.461L50,49.461z" id="path_4"/></svg>