<svg id="vector" xmlns="http://www.w3.org/2000/svg" width="75" height="67" viewBox="0 0 83 73"><path fill="#009649" d="M45.436,46.912h0.774c4.818,-0.093 8.017,-0.769 9.604,-2.036l0.311,-0.615c-0.206,-0.495 -0.463,-0.739 -0.774,-0.739c-0.746,0.416 -1.573,0.62 -2.478,0.62h-0.159c-2.683,-0.31 -4.079,-1.395 -4.177,-3.252v-0.158c0.258,-3.51 1.083,-5.263 2.479,-5.263h0.773c2.387,-0.118 4.198,1.739 5.42,5.572l0.152,1.555v0.31c-0.032,3.795 -1.395,6.3 -4.085,7.509c-0.952,0.61 -3.569,0.913 -7.839,0.913V46.912z" id="path_0"/><path fill="#009649" d="M52.251,27.371c1.679,0.516 3.127,1.342 4.337,2.479v0.152c0,0.647 -0.668,1.678 -2.01,3.1c-0.416,0 -1.811,-0.515 -4.185,-1.547v0.151c-0.826,1.601 -1.341,2.426 -1.553,2.479c-1.342,-0.283 -2.479,-0.905 -3.405,-1.857c0.621,-2.584 1.137,-3.873 1.547,-3.873c0.337,0 1.573,0.621 3.721,1.857C50.704,29.771 51.22,28.792 52.251,27.371z" id="path_1"/><path fill="#009649" d="M52.139,15.188c1.586,0 2.38,0.979 2.38,2.929c0,3.107 -2.651,5.758 -7.959,7.938c-0.759,0.231 -0.852,-0.046 -0.271,-0.832c0.146,-0.298 1.395,-1.229 3.755,-2.791v-0.131c-1.019,-0.416 -1.527,-1.303 -1.527,-2.658c0.674,-2.968 1.745,-4.455 3.212,-4.455H52.139L52.139,15.188zM49.772,18.541c0,0.825 0.701,1.334 2.096,1.532h0.271c0.516,0 0.846,-0.191 0.985,-0.562c0,-0.839 -0.608,-1.493 -1.818,-1.957C50.777,17.555 50.268,17.887 49.772,18.541z" id="path_2"/><path fill="#512DA8" d="M45.938,51.327l-1.744,-0.021c-0.965,4.251 -3.523,6.399 -7.668,6.453c-2.222,0.099 -3.332,0.059 -3.332,-0.12c0.205,-0.39 1.692,-1.137 4.455,-2.248c2.843,-1.804 4.555,-2.967 5.15,-3.481l0.158,-0.465l-2.71,-0.428c-1.977,-0.517 -3.086,-1.509 -3.332,-2.982v-0.311c0,-2.505 0.615,-4.104 1.857,-4.806l0.932,-0.152c1.831,0 3.325,1.275 4.489,3.834c0.74,0.259 1.322,0.384 1.744,0.371V51.327z" id="path_3"/><path fill="#009649" d="M27.033,25.296c0.311,0 0.621,1.038 0.933,3.101l1.395,3.101l-0.621,3.562l0.462,8.681v1.388c-0.205,3.542 -0.721,5.605 -1.547,6.2l-0.152,-0.15l0.152,-2.328c0,-2.089 -0.673,-8.753 -2.015,-19.983C26.286,26.485 26.749,25.296 27.033,25.296z" id="path_4"/><path fill="#512DA8" d="M37.176,29.943h1.534c1.857,0 2.79,0.694 2.79,2.09c-1.204,3.251 -2.665,4.977 -4.384,5.176l-2.029,0.27c-0.323,0 -0.455,-0.092 -0.41,-0.27c1.64,-0.867 3.174,-1.897 4.595,-3.08c-0.502,-0.471 -1.058,-0.702 -1.666,-0.702h-0.43l-1.665,0.139l-0.133,-0.139v-0.271C36.164,31.014 36.767,29.943 37.176,29.943z" id="path_5"/></svg>