<svg id="vector" xmlns="http://www.w3.org/2000/svg" width="75" height="67" viewBox="0 0 83 73"><path fill="#00BFA5" d="M48.508,41.082l0.02,-0.021c-1.395,-1.005 -2.645,-1.487 -3.754,-1.436c-1.111,0.054 -1.666,-0.038 -1.666,-0.271v-0.152l0.463,-3.722c2.168,-0.746 3.252,-1.421 3.252,-2.016l-1.857,-11.151c0.416,-2.479 0.84,-3.913 1.275,-4.298l0.119,0.576c0.543,1.745 1.262,3.397 2.168,4.958v0.469c0,0.786 -0.203,1.766 -0.621,2.942l0.158,4.494v0.773c0,0.893 -0.205,2.029 -0.621,3.411c1.771,0.614 2.857,1.396 3.252,2.32c0.119,0.244 0.172,0.503 0.16,0.773c-0.16,0.854 -0.357,1.633 -0.602,2.348H48.508z" id="path_0"/><path fill="#00BFA5" d="M52.514,46.885c0.158,-0.085 0.203,0.054 0.139,0.43c-0.881,2.063 -2.227,3.504 -4.047,4.316l-6.682,3.352c-0.283,-0.079 -0.338,-0.312 -0.158,-0.693c0.891,-1.719 1.5,-2.736 1.824,-3.061L52.514,46.885z" id="path_1"/><path fill="#D50000" d="M50.23,40.959c-0.623,2.156 -2.506,4.535 -5.66,7.126c-1.898,1.349 -4.119,2.017 -6.656,2.017c-1.42,-0.324 -2.439,-0.648 -3.053,-0.966c-0.617,-0.323 -1.35,-1.037 -2.217,-2.135c-1.553,-2.063 -2.326,-3.973 -2.326,-5.732c0,-4.183 1.344,-7.534 4.033,-10.066c0.477,-0.337 0.682,-0.284 0.613,0.151c0,0.378 -0.773,1.825 -2.32,4.338c-0.619,1.255 -0.93,2.445 -0.93,3.562c0,1.607 1.137,3.358 3.41,5.269c1.611,0.892 3.363,1.257 5.268,1.084c2.24,0 5.031,-1.546 8.361,-4.646H50.23z" id="path_2"/><path fill="#D50000" d="M33.624,19.689h1.534c1.857,0 2.789,0.694 2.789,2.09c-1.203,3.251 -2.664,4.978 -4.382,5.176l-2.03,0.271c-0.323,0 -0.456,-0.094 -0.409,-0.271c1.64,-0.865 3.174,-1.897 4.594,-3.08c-0.502,-0.469 -1.059,-0.701 -1.666,-0.701h-0.43l-1.666,0.139l-0.132,-0.139v-0.271C32.613,20.761 33.216,19.689 33.624,19.689z" id="path_3"/></svg>