<svg id="vector" xmlns="http://www.w3.org/2000/svg" width="75" height="67" viewBox="0 0 83 73"><path fill="#00B8D4" d="M49.649,41.118l-2.948,-0.927c-0.569,-0.145 -1.448,-0.297 -2.632,-0.469v-0.151c-0.078,-2.598 0.595,-4.039 2.011,-4.338c1.038,-0.555 1.705,-1.177 2.016,-1.864c-0.099,-0.666 -1.546,-2.425 -4.336,-5.262c-0.146,-2.431 -0.127,-3.733 0.046,-3.926c0.179,-0.186 0.363,-0.219 0.575,-0.105c3.305,2.882 4.957,5.414 4.957,7.596c-0.079,1.427 -0.39,2.67 -0.932,3.714l-0.351,0.464c2.194,0.528 3.292,1.256 3.292,2.174v1.548c0,0.502 -0.072,1.017 -0.23,1.547H49.649z" id="path_0"/><path fill="#00B8D4" d="M43.799,15.285c0.528,0 1.766,0.621 3.716,1.857c0,0.772 -0.622,2.016 -1.858,3.721c-2.479,-0.8 -3.722,-1.527 -3.722,-2.169C42.001,18.113 42.622,16.977 43.799,15.285z" id="path_1"/><path fill="#00B8D4" d="M51.738,49.618c0.158,-0.086 0.204,0.054 0.138,0.43c-0.879,2.063 -2.227,3.504 -4.044,4.317l-6.684,3.352c-0.284,-0.079 -0.337,-0.312 -0.159,-0.694c0.893,-1.72 1.501,-2.736 1.824,-3.062L51.738,49.618z" id="path_2"/><path fill="#000000" d="M51.004,41.118c-0.621,2.155 -2.505,4.534 -5.658,7.126c-1.897,1.348 -4.118,2.016 -6.656,2.016c-1.421,-0.324 -2.439,-0.648 -3.055,-0.965c-0.614,-0.324 -1.349,-1.038 -2.214,-2.136c-1.554,-2.062 -2.327,-3.973 -2.327,-5.731c0,-4.185 1.342,-7.536 4.032,-10.067c0.477,-0.337 0.682,-0.284 0.615,0.152c0,0.377 -0.774,1.824 -2.32,4.337c-0.622,1.256 -0.933,2.445 -0.933,3.563c0,1.607 1.137,3.358 3.411,5.268c1.613,0.893 3.365,1.257 5.269,1.085c2.241,0 5.03,-1.546 8.362,-4.646H51.004z" id="path_3"/><path fill="#000000" d="M34.028,20.716h1.534c1.858,0 2.79,0.692 2.79,2.089c-1.203,3.251 -2.664,4.977 -4.383,5.175l-2.029,0.271c-0.324,0 -0.456,-0.092 -0.41,-0.271c1.639,-0.865 3.173,-1.897 4.594,-3.08c-0.502,-0.47 -1.058,-0.701 -1.666,-0.701h-0.43l-1.666,0.14l-0.132,-0.14v-0.271C33.016,21.786 33.618,20.716 34.028,20.716z" id="path_4"/></svg>