<svg id="vector" xmlns="http://www.w3.org/2000/svg" width="75" height="67" viewBox="0 0 83 73"><path fill="#0091EA" d="M31.347,20.847h1.547c1.873,0 2.813,0.699 2.813,2.106c-1.214,3.279 -2.687,5.02 -4.42,5.22l-2.047,0.273c-0.327,0 -0.46,-0.094 -0.413,-0.273c1.653,-0.873 3.2,-1.913 4.633,-3.106c-0.506,-0.474 -1.066,-0.707 -1.68,-0.707h-0.434l-1.68,0.14l-0.134,-0.14v-0.273C30.328,21.926 30.934,20.847 31.347,20.847L31.347,20.847z" id="path_0"/><path fill="#0091EA" d="M43.874,27.619c-2.453,0.834 -4.166,1.767 -5.16,2.794c-2.666,2.359 -4.02,4.967 -4.06,7.833v1.873c0,0.914 0.413,1.641 1.247,2.193l4.847,1.094c-3.021,2.913 -6.04,4.373 -9.061,4.373H31.06c-1.04,0 -2.033,-0.206 -2.973,-0.626c-2.707,-1.561 -4.061,-3.594 -4.061,-6.094v-1.247c0.247,-1.58 0.854,-2.859 1.808,-3.84c0.959,-0.986 1.239,-1.58 0.853,-1.786l-0.273,-0.04c-2.006,0.653 -3.213,2.34 -3.613,5.066c-0.406,2.727 -0.359,4.854 0.134,6.38c1.54,4.373 4.087,6.561 7.653,6.561c1.359,0 2.713,-0.367 4.066,-1.094c5.207,-3.413 7.813,-6.587 7.813,-9.533c0,-1.067 -0.474,-2.054 -1.406,-2.967c-3.54,-0.413 -5.313,-0.887 -5.313,-1.407V36.84c2.42,-3.227 4.713,-4.84 6.873,-4.84c1.054,0 1.68,0.359 1.873,1.093h0.16c0.26,0 0.521,-1.253 0.78,-3.753v-0.934C45.394,27.793 44.874,27.533 43.874,27.619L43.874,27.619z" id="path_1"/><path fill="#FF6D00" d="M51.874,22.933c1.28,0.214 2.527,0.994 3.754,2.347v0.313c-0.78,2.08 -1.354,3.12 -1.721,3.12c-2.499,-0.854 -3.746,-1.533 -3.746,-2.026C50.161,25.72 50.734,24.473 51.874,22.933L51.874,22.933z" id="path_2"/><path fill="#FF6D00" d="M52.347,30.279c5.313,1.9 7.967,4.247 7.967,7.033l0.16,0.934c-0.447,3.646 -1.646,5.467 -3.601,5.467c0,0.34 -2.6,0.76 -7.807,1.253l-0.16,-0.466c0,-2.607 0.468,-3.907 1.407,-3.907c5.207,-0.42 8.073,-1.047 8.594,-1.88c-1.794,-1.74 -4.141,-3.146 -7.034,-4.213l-0.153,-0.787C51.8,31.426 52.007,30.279 52.347,30.279L52.347,30.279z" id="path_3"/><path fill="#FF6D00" d="M57.122,13.18c0.16,-0.093 0.206,0.053 0.14,0.434c-0.887,2.08 -2.247,3.534 -4.08,4.353l-6.74,3.38c-0.286,-0.08 -0.34,-0.313 -0.16,-0.706c0.9,-1.733 1.514,-2.76 1.841,-3.087L57.122,13.18L57.122,13.18z" id="path_4"/></svg>