<svg id="vector" xmlns="http://www.w3.org/2000/svg" width="75" height="67" viewBox="0 0 83 73"><path fill="#00E676" d="M30.5,27.081h1.547c1.873,0 2.814,0.699 2.814,2.106c-1.215,3.28 -2.688,5.02 -4.422,5.22l-2.045,0.273c-0.328,0 -0.461,-0.094 -0.414,-0.273c1.652,-0.873 3.199,-1.913 4.633,-3.106c-0.506,-0.474 -1.066,-0.707 -1.68,-0.707H30.5l-1.68,0.14l-0.133,-0.14V30.32C29.48,28.161 30.088,27.081 30.5,27.081L30.5,27.081z" id="path_0"/><path fill="#00E676" d="M47.674,47.061c-0.627,2.174 -2.527,4.573 -5.707,7.187c-1.912,1.36 -4.152,2.033 -6.713,2.033c-1.434,-0.326 -2.461,-0.653 -3.08,-0.973c-0.621,-0.327 -1.359,-1.047 -2.234,-2.153c-1.566,-2.08 -2.346,-4.007 -2.346,-5.78c0,-4.22 1.354,-7.601 4.066,-10.153c0.48,-0.34 0.688,-0.287 0.621,0.153c0,0.38 -0.781,1.84 -2.342,4.373C29.314,43.014 29,44.214 29,45.341c0,1.62 1.146,3.387 3.439,5.313c1.627,0.9 3.395,1.268 5.314,1.094c2.26,0 5.072,-1.56 8.434,-4.687H47.674L47.674,47.061z" id="path_1"/><path fill="#000000" d="M51.461,16.747c0.16,-0.093 0.207,0.054 0.139,0.434c-0.887,2.08 -2.246,3.533 -4.078,4.354l-6.74,3.38c-0.287,-0.08 -0.34,-0.313 -0.16,-0.707c0.898,-1.733 1.514,-2.76 1.84,-3.087L51.461,16.747L51.461,16.747z" id="path_2"/><path fill="#000000" d="M46.188,47.434h1.719c0.127,-0.613 0.168,-1.193 0.113,-1.739l-0.113,-1.914c0,-0.793 -1.926,-1.366 -5.779,-1.72v-0.153c0.867,-1.173 3.939,-2.733 9.213,-4.687c1.408,-0.486 2.348,-1.007 2.814,-1.566c0.832,-0.688 1.252,-1.574 1.252,-2.653v-0.16l-6.092,2.033c-4.273,-0.727 -6.408,-1.873 -6.408,-3.434c0.934,-0.733 2.254,-1.1 3.947,-1.113l0.893,0.014c1.201,0 2.607,0.366 4.221,1.1l0.467,-0.474v-0.153c0,-0.26 -0.613,-0.913 -1.84,-1.966c-1.234,-1.047 -2.6,-1.641 -4.094,-1.787c-3.166,0 -4.986,1.88 -5.473,5.627v1.093c0,1.834 0.887,3.294 2.66,4.374v0.16c-0.221,0 -0.953,0.626 -2.188,1.873c-0.627,0.653 -0.939,1.899 -0.939,3.753v1.4c0,1.02 1.873,1.693 5.627,2.033V47.434L46.188,47.434z" id="path_3"/></svg>