<svg id="vector" xmlns="http://www.w3.org/2000/svg" width="75" height="67" viewBox="0 0 83 73"><path fill="#00ACC1" d="M50.112,29.308c2.168,1.083 3.253,2.017 3.253,2.79c-1.031,2.036 -1.652,3.073 -1.857,3.1h-0.313c-1.585,-0.8 -2.57,-1.526 -2.94,-2.169C48.612,31.853 49.233,30.61 50.112,29.308z" id="path_0"/><path fill="#00ACC1" d="M41.664,45.284h1.786c1.884,-0.257 4.878,-0.958 8.983,-2.088v-0.159c-3.741,-1.652 -6.115,-2.479 -7.127,-2.479c-1.368,0 -2.294,0.773 -2.79,2.327l-0.462,0.311c-0.205,0 -0.312,-0.159 -0.312,-0.47c0.517,-3.094 1.912,-4.647 4.185,-4.647h0.773c0.959,0 4.212,1.085 9.764,3.253l4.185,0.311l0.304,0.47c-0.071,0.693 -0.693,2.036 -1.857,4.026h-0.463l-0.62,-0.159h-0.774C49.18,48.359 44.48,49.595 43.14,49.7h-1.476V45.284z" id="path_1"/><path fill="#00ACC1" d="M51.045,16.814c1.586,0 2.38,0.979 2.38,2.928c0,3.107 -2.65,5.758 -7.959,7.94c-0.76,0.23 -0.853,-0.047 -0.271,-0.834c0.146,-0.298 1.395,-1.229 3.755,-2.789v-0.133c-1.019,-0.416 -1.526,-1.303 -1.526,-2.657c0.674,-2.968 1.744,-4.455 3.212,-4.455H51.045L51.045,16.814zM48.679,20.166c0,0.826 0.701,1.335 2.096,1.534h0.271c0.516,0 0.847,-0.192 0.984,-0.563c0,-0.839 -0.607,-1.492 -1.817,-1.956C49.685,19.181 49.174,19.511 48.679,20.166z" id="path_2"/><path fill="#FB8C00" d="M42.347,49.7l-1.746,-0.02c-0.967,4.25 -3.523,6.398 -7.669,6.452c-2.222,0.099 -3.331,0.06 -3.331,-0.119c0.206,-0.391 1.693,-1.137 4.455,-2.247c2.843,-1.806 4.554,-2.968 5.149,-3.484l0.159,-0.462l-2.711,-0.43c-1.978,-0.517 -3.087,-1.508 -3.33,-2.981v-0.311c0,-2.506 0.613,-4.106 1.857,-4.806l0.932,-0.152c1.831,0 3.325,1.275 4.488,3.833c0.74,0.258 1.321,0.384 1.746,0.371V49.7z" id="path_3"/><path fill="#00897B" d="M23.44,23.669c0.311,0 0.622,1.038 0.932,3.1l1.395,3.101l-0.62,3.563l0.461,8.68V43.5c-0.205,3.543 -0.72,5.605 -1.545,6.2l-0.152,-0.151l0.152,-2.327c0,-2.089 -0.676,-8.752 -2.018,-19.983C22.692,24.859 23.155,23.669 23.44,23.669z" id="path_4"/><path fill="#FB8C00" d="M34.432,23.757h1.532c1.858,0 2.789,0.694 2.789,2.09c-1.202,3.252 -2.663,4.978 -4.382,5.176l-2.029,0.271c-0.324,0 -0.457,-0.093 -0.41,-0.271c1.639,-0.865 3.174,-1.896 4.594,-3.08c-0.502,-0.47 -1.057,-0.701 -1.666,-0.701h-0.428l-1.668,0.139l-0.133,-0.139v-0.271C33.418,24.828 34.021,23.757 34.432,23.757z" id="path_5"/></svg>