<svg id="vector" xmlns="http://www.w3.org/2000/svg" width="75" height="67" viewBox="0 0 83 73"><path fill="#0277BD" d="M31.383,27.52h1.547c1.873,0 2.813,0.7 2.813,2.107c-1.214,3.279 -2.687,5.02 -4.42,5.22l-2.047,0.273c-0.327,0 -0.46,-0.094 -0.413,-0.273c1.653,-0.873 3.199,-1.913 4.633,-3.106c-0.507,-0.474 -1.066,-0.707 -1.68,-0.707h-0.434l-1.68,0.14l-0.134,-0.14V30.76C30.363,28.6 30.97,27.52 31.383,27.52L31.383,27.52z" id="path_0"/><path fill="#0277BD" d="M38.63,49.007l-1.761,-0.021c-0.973,4.287 -3.553,6.453 -7.733,6.507c-2.239,0.1 -3.359,0.06 -3.359,-0.12c0.206,-0.394 1.706,-1.146 4.493,-2.267c2.866,-1.82 4.593,-2.993 5.193,-3.514l0.16,-0.467l-2.733,-0.433c-1.994,-0.521 -3.113,-1.521 -3.36,-3.007v-0.313c0,-2.526 0.62,-4.14 1.874,-4.847l0.939,-0.153c1.847,0 3.354,1.287 4.526,3.866c0.747,0.261 1.334,0.387 1.761,0.374V49.007L38.63,49.007z" id="path_1"/><path fill="#F9A825" d="M53.296,17.48c0.16,-0.093 0.207,0.054 0.14,0.434c-0.887,2.08 -2.246,3.533 -4.079,4.354l-6.74,3.38c-0.287,-0.08 -0.34,-0.313 -0.16,-0.707c0.899,-1.732 1.514,-2.76 1.84,-3.086L53.296,17.48L53.296,17.48z" id="path_2"/><path fill="#F9A825" d="M37.943,44.553v4.454h0.221c1.739,0 3.307,-1.2 4.687,-3.594c1.64,1.98 3.1,2.967 4.373,2.967h0.153c1.434,0 2.48,-1.04 3.127,-3.127h0.313c0.939,1.46 2.133,2.193 3.593,2.193c1.873,0 2.813,-1.927 2.813,-5.786c0,-1.3 -0.207,-2.394 -0.627,-3.28c-0.313,0 -0.52,0.993 -0.62,2.974c0,1.246 -0.526,1.873 -1.566,1.873c-0.887,-0.16 -1.767,-0.627 -2.653,-1.407c-0.366,-1.227 -0.627,-1.853 -0.78,-1.873h-0.159c-0.728,2.707 -1.773,4.061 -3.127,4.061h-0.78c-0.986,0 -1.927,-0.78 -2.813,-2.347l0.16,-0.934c0,-0.313 -0.106,-0.474 -0.313,-0.474H43.63c-0.421,0.214 -0.627,0.474 -0.627,0.787c-0.913,2.24 -2.58,3.406 -5,3.513H37.943L37.943,44.553z" id="path_3"/><path fill="#F9A825" d="M48.003,27.467c1.02,0 2.16,0.88 3.439,2.653c-0.34,0.807 -1.02,1.746 -2.033,2.813h-0.313c-0.906,-0.207 -1.899,-0.78 -2.967,-1.721v-0.467C46.209,29.914 46.83,28.82 48.003,27.467L48.003,27.467z" id="path_4"/><path fill="#F9A825" d="M52.07,32.307c0.88,0 2.08,0.727 3.594,2.187v0.313c-1.021,2.187 -1.693,3.28 -2.034,3.28l-3.593,-2.027h-0.16c-1.013,1.74 -1.687,2.681 -2.026,2.807h-0.16c-2.286,-1.013 -3.434,-1.793 -3.434,-2.34c0.833,-2.293 1.561,-3.439 2.187,-3.439l3.747,2.033C50.79,33.894 51.417,32.96 52.07,32.307L52.07,32.307z" id="path_5"/></svg>