<svg id="vector" xmlns="http://www.w3.org/2000/svg" width="75" height="67" viewBox="0 0 83 73"><path fill="#000001" d="M31.297,26.903h1.547c1.873,0 2.813,0.7 2.813,2.106c-1.214,3.28 -2.687,5.02 -4.42,5.22l-2.047,0.273c-0.327,0 -0.46,-0.093 -0.413,-0.273c1.653,-0.873 3.2,-1.913 4.633,-3.106c-0.506,-0.474 -1.066,-0.707 -1.68,-0.707h-0.434l-1.68,0.141l-0.134,-0.141v-0.272C30.277,27.983 30.884,26.903 31.297,26.903L31.297,26.903z" id="path_0"/><path fill="#000001" d="M38.544,48.39l-1.761,-0.02c-0.973,4.286 -3.553,6.453 -7.732,6.507c-2.24,0.1 -3.36,0.06 -3.36,-0.12c0.206,-0.394 1.706,-1.147 4.493,-2.267c2.867,-1.82 4.594,-2.994 5.193,-3.514l0.16,-0.467l-2.733,-0.434c-1.993,-0.52 -3.113,-1.52 -3.36,-3.006v-0.313c0,-2.527 0.62,-4.141 1.874,-4.847l0.939,-0.153c1.847,0 3.354,1.286 4.526,3.866c0.747,0.26 1.334,0.387 1.761,0.373V48.39L38.544,48.39z" id="path_1"/><path fill="#FF1744" d="M51.63,18.097c0.16,-0.094 0.207,0.053 0.141,0.434c-0.887,2.08 -2.247,3.533 -4.08,4.353l-6.74,3.381c-0.286,-0.08 -0.34,-0.313 -0.16,-0.707c0.9,-1.733 1.514,-2.76 1.84,-3.087L51.63,18.097L51.63,18.097z" id="path_2"/><path fill="#FF1744" d="M37.856,43.937v4.453h1.487c1.354,-0.106 6.093,-1.354 14.22,-3.753h0.78l0.626,0.16h0.467c1.174,-2.007 1.801,-3.36 1.873,-4.061l-0.306,-0.473l-4.221,-0.313c-5.6,-2.187 -8.88,-3.28 -9.846,-3.28h-0.78c-2.294,0 -3.7,1.566 -4.221,4.687c0,0.313 0.107,0.474 0.313,0.474l0.467,-0.313c0.5,-1.566 1.434,-2.347 2.813,-2.347c1.02,0 3.413,0.833 7.187,2.5v0.16c-4.14,1.14 -7.16,1.847 -9.06,2.106H37.856L37.856,43.937z" id="path_3"/><path fill="#FF1744" d="M46.377,27.823c2.187,1.093 3.28,2.033 3.28,2.813c-1.04,2.053 -1.667,3.1 -1.874,3.126H47.47c-1.6,-0.806 -2.593,-1.539 -2.966,-2.187C44.863,30.39 45.49,29.137 46.377,27.823z" id="path_4"/></svg>