<svg id="vector" xmlns="http://www.w3.org/2000/svg" width="75" height="67" viewBox="0 0 83 73"><path fill="#3D5AFE" d="M31.087,26.728h1.546c1.874,0 2.813,0.699 2.813,2.106c-1.214,3.28 -2.687,5.02 -4.42,5.22l-2.047,0.273c-0.326,0 -0.46,-0.093 -0.413,-0.273c1.653,-0.873 3.2,-1.913 4.633,-3.106c-0.506,-0.474 -1.066,-0.707 -1.68,-0.707h-0.433l-1.681,0.141l-0.133,-0.141v-0.272C30.067,27.808 30.673,26.728 31.087,26.728L31.087,26.728z" id="path_0"/><path fill="#3D5AFE" d="M48.26,46.707c-0.627,2.174 -2.525,4.573 -5.707,7.187c-1.913,1.36 -4.153,2.033 -6.712,2.033c-1.434,-0.326 -2.46,-0.652 -3.08,-0.973c-0.62,-0.327 -1.36,-1.047 -2.233,-2.153c-1.566,-2.08 -2.347,-4.007 -2.347,-5.78c0,-4.22 1.354,-7.6 4.066,-10.153c0.48,-0.34 0.687,-0.287 0.62,0.153c0,0.38 -0.78,1.84 -2.34,4.373c-0.627,1.267 -0.94,2.467 -0.94,3.594c0,1.62 1.147,3.387 3.44,5.313c1.627,0.899 3.394,1.267 5.313,1.093c2.26,0 5.074,-1.56 8.433,-4.687H48.26L48.26,46.707z" id="path_1"/><path fill="#000001" d="M53.98,17.101c0.16,-0.093 0.207,0.054 0.141,0.434c-0.887,2.08 -2.248,3.533 -4.08,4.353l-6.74,3.381c-0.287,-0.08 -0.34,-0.313 -0.16,-0.707c0.9,-1.733 1.514,-2.76 1.84,-3.087L53.98,17.101L53.98,17.101z" id="path_2"/><path fill="#000001" d="M53.1,36.554c1.146,-1.5 1.721,-2.854 1.721,-4.066c0,-0.286 -0.127,-0.707 -0.373,-1.267c-0.248,-0.56 -1.088,-1.373 -2.521,-2.44c-1.426,-1.066 -2.705,-1.54 -3.826,-1.406h-0.152c-0.734,1.014 -1.094,2.093 -1.094,3.24v1.406l0.313,2.813l0.154,0.467v0.16l-0.154,0.153c-4.379,1.979 -6.566,4.066 -6.566,6.253v3.434c0,0.733 2.087,1.253 6.253,1.566h1.854c1.094,-2.474 0.686,-3.986 -1.234,-4.533c-0.959,-0.287 -2.68,-0.547 -5.152,-0.78C42.58,40.474 46.174,38.808 53.1,36.554zM48.414,32.181l2.652,1.56v0.153l-2.5,0.94v-0.627c0,-0.887 -0.1,-1.56 -0.307,-2.026H48.414z" id="path_3"/></svg>