<svg id="vector" xmlns="http://www.w3.org/2000/svg" width="75" height="67" viewBox="0 0 83 73"><path fill="#00B8D4" d="M44.592,45.13v-0.06l-0.158,-0.158l-0.463,-0.152h-0.152c-3.516,-0.595 -5.268,-1.216 -5.268,-1.857v-2.175c0,-1.494 0.668,-3.2 2.016,-5.11c0.938,-0.852 3.318,-2.042 7.127,-3.563v-0.311l-5.117,-0.773c-1.109,0.259 -2.035,0.879 -2.789,1.858c-0.541,1.241 -0.898,1.856 -1.084,1.856c-0.557,0.199 -0.707,-0.218 -0.463,-1.236c0.283,-1.189 0.801,-2.327 1.547,-3.41c1.217,-1.343 2.195,-2.011 2.947,-2.011h0.926c2.705,0.411 5.594,0.773 8.682,1.085l2.318,-0.159l0.158,0.159v0.311c-0.76,2.374 -1.744,3.563 -2.949,3.563c-3.092,0.787 -6.707,2.439 -10.84,4.958c-0.391,0.331 -0.543,0.846 -0.463,1.548c1.727,0.151 3.121,0.311 4.178,0.463c0.813,0.171 1.309,0.607 1.488,1.321c0.172,0.706 0.139,1.871 -0.092,3.483c-0.027,0.112 -0.053,0.238 -0.094,0.37H44.592z" id="path_0"/><path fill="#00B8D4" d="M46.1,18.946l2.949,2.01l0.15,0.621v0.152c-1.176,2.161 -1.844,3.245 -2.01,3.259c-1.652,-0.714 -2.789,-1.382 -3.41,-2.016v-0.932c0.41,-0.596 0.668,-1.157 0.773,-1.699C44.811,19.408 45.326,18.946 46.1,18.946z" id="path_1"/><path fill="#00B8D4" d="M56.678,44.29c0.158,-0.086 0.203,0.054 0.137,0.43c-0.879,2.063 -2.227,3.504 -4.045,4.316l-6.684,3.353c-0.283,-0.08 -0.336,-0.312 -0.158,-0.694c0.893,-1.719 1.5,-2.737 1.824,-3.062L56.678,44.29z" id="path_2"/><path fill="#DD2C00" d="M46.066,44.912c-0.621,2.154 -2.504,4.534 -5.658,7.126c-1.898,1.349 -4.119,2.016 -6.656,2.016c-1.422,-0.323 -2.439,-0.647 -3.055,-0.965c-0.615,-0.323 -1.35,-1.037 -2.213,-2.136c-1.555,-2.063 -2.328,-3.973 -2.328,-5.731c0,-4.184 1.342,-7.535 4.031,-10.066c0.477,-0.338 0.682,-0.284 0.615,0.151c0,0.377 -0.773,1.825 -2.318,4.337c-0.623,1.256 -0.932,2.446 -0.932,3.563c0,1.606 1.137,3.358 3.41,5.269c1.611,0.893 3.363,1.256 5.268,1.085c2.24,0 5.031,-1.548 8.361,-4.647H46.066z" id="path_3"/><path fill="#DD2C00" d="M31.629,21.326h1.533c1.857,0 2.789,0.694 2.789,2.089c-1.203,3.252 -2.664,4.978 -4.383,5.177l-2.029,0.271c-0.324,0 -0.457,-0.093 -0.41,-0.271c1.641,-0.867 3.174,-1.898 4.596,-3.082c-0.506,-0.469 -1.059,-0.7 -1.668,-0.7h-0.428l-1.666,0.139L29.83,24.81v-0.271C30.617,22.396 31.217,21.326 31.629,21.326z" id="path_4"/></svg>