<svg id="vector" xmlns="http://www.w3.org/2000/svg" width="75" height="67" viewBox="0 0 83 73"><path fill="#CDDC39" d="M29.953,26.17H31.5c1.873,0 2.813,0.7 2.813,2.107c-1.214,3.279 -2.687,5.02 -4.42,5.22l-2.047,0.273c-0.327,0 -0.46,-0.094 -0.413,-0.273c1.653,-0.873 3.2,-1.913 4.633,-3.106c-0.506,-0.474 -1.066,-0.707 -1.68,-0.707h-0.434l-1.68,0.14l-0.134,-0.14V29.41C28.934,27.25 29.54,26.17 29.953,26.17L29.953,26.17z" id="path_0"/><path fill="#CDDC39" d="M47.127,46.15c-0.627,2.173 -2.527,4.573 -5.707,7.187c-1.913,1.36 -4.153,2.033 -6.714,2.033c-1.433,-0.326 -2.459,-0.653 -3.079,-0.974c-0.62,-0.326 -1.36,-1.046 -2.233,-2.153c-1.567,-2.08 -2.347,-4.006 -2.347,-5.779c0,-4.221 1.354,-7.601 4.066,-10.153c0.479,-0.34 0.687,-0.287 0.62,0.153c0,0.38 -0.78,1.84 -2.34,4.373c-0.627,1.267 -0.94,2.467 -0.94,3.594c0,1.619 1.146,3.386 3.44,5.313c1.626,0.9 3.393,1.268 5.313,1.094c2.26,0 5.073,-1.561 8.433,-4.687H47.127L47.127,46.15z" id="path_1"/><path fill="#000000" d="M52.26,17.657c0.16,-0.094 0.207,0.053 0.14,0.434c-0.887,2.08 -2.246,3.533 -4.079,4.353l-6.74,3.38c-0.287,-0.079 -0.34,-0.313 -0.16,-0.706c0.899,-1.733 1.514,-2.76 1.84,-3.087L52.26,17.657L52.26,17.657z" id="path_2"/><path fill="#000000" d="M45.64,46.37h1.467c0.04,-0.133 0.066,-0.26 0.094,-0.373c0.233,-1.627 0.267,-2.8 0.093,-3.514c-0.18,-0.72 -0.68,-1.16 -1.5,-1.333c-1.066,-0.153 -2.473,-0.313 -4.213,-0.467c-0.08,-0.707 0.073,-1.227 0.467,-1.561c4.166,-2.539 7.813,-4.206 10.933,-5c1.214,0 2.207,-1.199 2.974,-3.593v-0.313l-0.16,-0.16l-2.34,0.16c-3.113,-0.313 -6.026,-0.68 -8.753,-1.093h-0.934c-0.76,0 -1.747,0.673 -2.974,2.026c-0.753,1.093 -1.272,2.24 -1.56,3.44c-0.247,1.026 -0.094,1.446 0.467,1.246c0.187,0 0.547,-0.62 1.093,-1.873c0.761,-0.987 1.693,-1.613 2.813,-1.874l5.16,0.78v0.313c-3.84,1.533 -6.24,2.733 -7.187,3.594c-1.36,1.927 -2.033,3.646 -2.033,5.153v2.193c0,0.646 1.767,1.272 5.313,1.873l0.619,0.153l0.16,0.16V46.37L45.64,46.37z" id="path_3"/><path fill="#000000" d="M51.319,38.304l2.974,2.026l0.153,0.627v0.153c-1.187,2.18 -1.859,3.273 -2.026,3.286c-1.667,-0.72 -2.813,-1.393 -3.44,-2.033v-0.939c0.414,-0.601 0.674,-1.167 0.78,-1.721C50.02,38.771 50.54,38.304 51.319,38.304L51.319,38.304z" id="path_4"/></svg>