<svg id="vector" xmlns="http://www.w3.org/2000/svg" width="75" height="67" viewBox="0 0 83 73"><path fill="#DD2C00" d="M33.284,23.98h1.546c1.874,0 2.813,0.7 2.813,2.106c-1.214,3.28 -2.687,5.021 -4.42,5.221l-2.047,0.273c-0.326,0 -0.46,-0.094 -0.413,-0.273c1.653,-0.874 3.2,-1.914 4.633,-3.107c-0.506,-0.473 -1.066,-0.706 -1.68,-0.706h-0.433l-1.681,0.14l-0.133,-0.14v-0.273C32.264,25.061 32.87,23.98 33.284,23.98L33.284,23.98z" id="path_0"/><path fill="#DD2C00" d="M35.077,36.968h0.626c1.827,0 3.181,1.56 4.067,4.686l0.153,1.561c0.053,0.507 0.053,1.026 0,1.566c-0.467,1.9 -1.514,3.773 -3.127,5.62c-1.12,0.94 -3.667,1.667 -7.653,2.187c-0.467,-0.206 -0.733,-0.413 -0.78,-0.62c6.667,-3.619 10,-5.807 10,-6.566l0.153,-0.467l-0.153,-0.153l-1.406,0.467h-0.78c-2.813,0 -4.22,-0.993 -4.22,-2.967v-0.313c0.359,-3.233 1.146,-4.847 2.34,-4.847L35.077,36.968L35.077,36.968z" id="path_1"/><path fill="#00BFA5" d="M52.677,20.44c0.16,-0.093 0.207,0.054 0.14,0.434c-0.887,2.08 -2.246,3.533 -4.08,4.354l-6.74,3.38c-0.286,-0.08 -0.34,-0.313 -0.159,-0.707c0.899,-1.733 1.514,-2.76 1.84,-3.087L52.677,20.44L52.677,20.44z" id="path_2"/><path fill="#00BFA5" d="M46.51,31.36c5.313,1.9 7.967,4.247 7.967,7.033l0.16,0.934c-0.446,3.646 -1.646,5.467 -3.6,5.467c0,0.34 -2.601,0.76 -7.807,1.253l-0.16,-0.466c0,-2.607 0.467,-3.907 1.406,-3.907c5.207,-0.42 8.073,-1.047 8.594,-1.88c-1.793,-1.74 -4.141,-3.146 -7.033,-4.213l-0.153,-0.787C45.963,32.507 46.17,31.36 46.51,31.36L46.51,31.36z" id="path_3"/></svg>