<svg id="vector" xmlns="http://www.w3.org/2000/svg" width="75" height="67" viewBox="0 0 83 73"><path fill="#01579B" d="M31.772,22.19h1.547c1.873,0 2.813,0.699 2.813,2.106c-1.214,3.28 -2.687,5.02 -4.42,5.22l-2.047,0.273c-0.327,0 -0.46,-0.093 -0.413,-0.273c1.652,-0.873 3.2,-1.913 4.633,-3.106c-0.507,-0.474 -1.066,-0.707 -1.68,-0.707h-0.434l-1.68,0.141l-0.134,-0.141V25.43C30.752,23.271 31.359,22.19 31.772,22.19L31.772,22.19z" id="path_0"/><path fill="#01579B" d="M44.299,28.964c-2.453,0.833 -4.166,1.767 -5.16,2.793c-2.666,2.36 -4.02,4.967 -4.06,7.833v1.874c0,0.913 0.413,1.64 1.247,2.193l4.847,1.093c-3.021,2.913 -6.04,4.374 -9.061,4.374h-0.627c-1.04,0 -2.033,-0.207 -2.973,-0.627c-2.707,-1.561 -4.061,-3.594 -4.061,-6.094v-1.246c0.247,-1.58 0.854,-2.86 1.807,-3.84c0.96,-0.987 1.24,-1.58 0.854,-1.787l-0.273,-0.04c-2.007,0.653 -3.213,2.34 -3.613,5.066c-0.406,2.727 -0.359,4.854 0.134,6.38c1.54,4.374 4.086,6.561 7.653,6.561c1.359,0 2.713,-0.367 4.066,-1.094c5.207,-3.413 7.813,-6.587 7.813,-9.533c0,-1.066 -0.474,-2.054 -1.407,-2.967c-3.539,-0.413 -5.313,-0.887 -5.313,-1.406v-0.313c2.42,-3.227 4.713,-4.84 6.873,-4.84c1.053,0 1.68,0.36 1.873,1.093h0.16c0.26,0 0.521,-1.253 0.78,-3.753V29.75C45.819,29.137 45.299,28.877 44.299,28.964L44.299,28.964z" id="path_1"/><path fill="#E65100" d="M59.879,19.53c0.16,-0.094 0.207,0.053 0.14,0.434c-0.886,2.08 -2.246,3.533 -4.079,4.353l-6.74,3.38c-0.287,-0.079 -0.34,-0.313 -0.16,-0.706c0.899,-1.733 1.514,-2.76 1.84,-3.087L59.879,19.53L59.879,19.53z" id="path_2"/><path fill="#E65100" d="M57.206,37.677c0.933,0.94 1.819,2.967 2.653,6.093l0.159,2.034c0,3.673 -1.826,6.173 -5.473,7.5l-1.094,0.153l-2.773,0.04l-2.692,-0.04l-0.154,-0.153v-0.16c0.334,-0.36 2.574,-1.453 6.714,-3.28c2.606,-1.479 4.014,-2.786 4.22,-3.906c-1.354,-2.887 -2.026,-4.554 -2.026,-5V40.49C56.739,38.617 56.893,37.677 57.206,37.677L57.206,37.677z" id="path_3"/><path fill="#E65100" d="M55.605,29.184c1.273,0.207 2.527,0.986 3.747,2.34v0.313c-0.78,2.087 -1.354,3.127 -1.72,3.127c-2.5,-0.86 -3.747,-1.54 -3.747,-2.034C53.886,31.971 54.459,30.717 55.605,29.184L55.605,29.184z" id="path_4"/></svg>