<svg id="vector" xmlns="http://www.w3.org/2000/svg" width="75" height="67" viewBox="0 0 83 73"><path fill="#FF1744" d="M31.297,24.17h1.547c1.873,0 2.813,0.699 2.813,2.106c-1.214,3.28 -2.688,5.02 -4.42,5.22L29.19,31.77c-0.327,0 -0.46,-0.093 -0.413,-0.273c1.652,-0.873 3.199,-1.913 4.633,-3.106c-0.507,-0.474 -1.066,-0.707 -1.68,-0.707h-0.434l-1.68,0.141l-0.134,-0.141V27.41C30.276,25.25 30.884,24.17 31.297,24.17L31.297,24.17z" id="path_0"/><path fill="#FF1744" d="M38.543,45.657l-1.76,-0.021c-0.974,4.287 -3.553,6.454 -7.733,6.507c-2.24,0.101 -3.359,0.061 -3.359,-0.12c0.206,-0.393 1.706,-1.146 4.493,-2.267c2.866,-1.819 4.593,-2.993 5.193,-3.513l0.16,-0.467l-2.733,-0.434c-1.994,-0.52 -3.113,-1.52 -3.36,-3.007v-0.313c0,-2.526 0.62,-4.14 1.873,-4.847l0.94,-0.152c1.847,0 3.354,1.286 4.526,3.866c0.747,0.26 1.334,0.387 1.76,0.373V45.657L38.543,45.657z" id="path_1"/><path fill="#2979FF" d="M52.797,20.83c0.16,-0.093 0.206,0.054 0.14,0.434c-0.887,2.08 -2.247,3.533 -4.08,4.354l-6.74,3.38c-0.286,-0.08 -0.34,-0.313 -0.159,-0.707c0.899,-1.732 1.513,-2.76 1.84,-3.086L52.797,20.83L52.797,20.83z" id="path_2"/><path fill="#2979FF" d="M37.856,41.204v4.453h1.487c1.353,-0.106 6.093,-1.354 14.22,-3.753h0.78l0.626,0.16h0.467c1.174,-2.008 1.8,-3.36 1.873,-4.061l-0.306,-0.474l-4.221,-0.313c-5.6,-2.188 -8.88,-3.281 -9.847,-3.281h-0.779c-2.294,0 -3.7,1.566 -4.221,4.687c0,0.313 0.106,0.474 0.313,0.474l0.467,-0.313c0.5,-1.566 1.434,-2.347 2.813,-2.347c1.02,0 3.413,0.833 7.187,2.5v0.16c-4.14,1.14 -7.16,1.846 -9.061,2.106H37.856L37.856,41.204z" id="path_3"/></svg>