<svg id="vector" xmlns="http://www.w3.org/2000/svg" width="75" height="67" viewBox="0 0 83 73"><path fill="#D500F9" d="M33.58,24.49h1.547c1.873,0 2.813,0.7 2.813,2.106c-1.213,3.28 -2.686,5.021 -4.42,5.221l-2.045,0.272c-0.328,0 -0.461,-0.093 -0.414,-0.272c1.652,-0.874 3.199,-1.914 4.633,-3.107c-0.506,-0.473 -1.066,-0.706 -1.68,-0.706H33.58l-1.68,0.14l-0.133,-0.14V27.73C32.561,25.57 33.168,24.49 33.58,24.49L33.58,24.49z" id="path_0"/><path fill="#D500F9" d="M40.826,45.977l-1.76,-0.02c-0.973,4.287 -3.553,6.453 -7.732,6.507c-2.24,0.1 -3.361,0.06 -3.361,-0.12c0.207,-0.394 1.707,-1.146 4.494,-2.267c2.867,-1.82 4.594,-2.993 5.193,-3.514l0.16,-0.467l-2.734,-0.433c-1.992,-0.521 -3.113,-1.521 -3.359,-3.007v-0.313c0,-2.526 0.621,-4.141 1.873,-4.847l0.941,-0.153c1.846,0 3.354,1.286 4.525,3.866c0.748,0.26 1.334,0.387 1.76,0.373V45.977L40.826,45.977z" id="path_1"/><path fill="#FF9100" d="M53.033,20.51c0.16,-0.093 0.207,0.054 0.141,0.434c-0.887,2.08 -2.248,3.533 -4.08,4.354l-6.74,3.38c-0.287,-0.08 -0.34,-0.313 -0.16,-0.707c0.9,-1.732 1.514,-2.76 1.84,-3.086L53.033,20.51L53.033,20.51z" id="path_2"/><path fill="#FF9100" d="M51.588,32.757c-1.82,0 -3.594,1.3 -5.314,3.907c-1.586,3.119 -3.359,4.739 -5.307,4.859h-0.16c-0.232,0 -0.453,0 -0.666,0v4.453h0.039c0.967,0.12 1.9,-0.146 2.814,-0.779c0.6,-0.34 1.434,-1.313 2.5,-2.913c3.52,1.353 5.752,2.033 6.719,2.033l1.094,-0.78c1.146,-2.32 1.721,-4.193 1.721,-5.627v-0.78C55.027,34.21 53.881,32.757 51.588,32.757zM52.84,39.943c-0.52,0 -2.139,-0.52 -4.846,-1.566v-0.153c0.492,-0.727 1.227,-1.094 2.186,-1.094c1.381,0 2.373,0.78 2.975,2.341C53.154,39.783 53.047,39.943 52.84,39.943z" id="path_3"/></svg>