<svg id="vector" xmlns="http://www.w3.org/2000/svg" width="75" height="67" viewBox="0 0 83 73"><path fill="#4CAF50" d="M29.607,26.114h1.546c1.874,0 2.813,0.699 2.813,2.106c-1.213,3.279 -2.687,5.02 -4.42,5.22L27.5,33.714c-0.326,0 -0.46,-0.094 -0.413,-0.273c1.653,-0.873 3.2,-1.913 4.634,-3.106c-0.507,-0.474 -1.067,-0.707 -1.681,-0.707h-0.433l-1.681,0.14l-0.133,-0.14v-0.273C28.587,27.193 29.193,26.114 29.607,26.114L29.607,26.114z" id="path_0"/><path fill="#4CAF50" d="M36.854,47.601l-1.76,-0.021c-0.974,4.287 -3.554,6.453 -7.733,6.507c-2.24,0.1 -3.36,0.06 -3.36,-0.12c0.207,-0.393 1.707,-1.146 4.493,-2.267c2.867,-1.82 4.594,-2.993 5.193,-3.513l0.16,-0.467l-2.733,-0.434C29.12,46.767 28,45.767 27.754,44.28v-0.313c0,-2.526 0.619,-4.14 1.873,-4.847l0.939,-0.153c1.847,0 3.354,1.287 4.527,3.867c0.746,0.26 1.333,0.387 1.76,0.373V47.601L36.854,47.601z" id="path_1"/><path fill="#E91E63" d="M52.747,18.887c0.16,-0.093 0.206,0.054 0.14,0.434c-0.887,2.08 -2.247,3.533 -4.08,4.354l-6.74,3.38c-0.286,-0.08 -0.34,-0.313 -0.159,-0.707c0.899,-1.732 1.513,-2.76 1.84,-3.086L52.747,18.887L52.747,18.887z" id="path_2"/><path fill="#E91E63" d="M47.44,28.794c2.6,0.833 3.906,1.506 3.906,2.026v0.313c-0.833,2.293 -1.514,3.44 -2.033,3.44c-2.106,-0.86 -3.307,-1.434 -3.594,-1.721V32.54C46.14,30.98 46.707,29.728 47.44,28.794L47.44,28.794z" id="path_3"/><path fill="#E91E63" d="M54,35.507c-2.84,0 -5.387,2.5 -7.653,7.5l-0.16,-0.153c-1.273,0 -2.366,-0.833 -3.279,-2.5c0.146,-0.233 0.246,-0.653 0.313,-1.247l-0.466,-0.473h-0.16c-0.207,0.054 -0.414,0.313 -0.62,0.78c-1.407,2.267 -3.141,3.513 -5.2,3.733h-0.606v4.453c2.646,0.106 4.373,-1.167 5.18,-3.807c0.86,1.533 2.054,2.733 3.594,3.593V47.7l-0.467,2.653v0.16l0.153,0.153c0.206,0 0.68,-0.993 1.406,-2.967l2.34,0.153C55.46,47.854 59,44.987 59,39.261v-0.94C57.934,36.447 56.267,35.507 54,35.507zM48.22,43.32h-0.313c1.254,-2.6 3.127,-3.906 5.627,-3.906h0.627c2.08,0.446 3.12,1.227 3.12,2.347C54.78,42.801 51.76,43.32 48.22,43.32z" id="path_4"/></svg>