<svg id="vector" xmlns="http://www.w3.org/2000/svg" width="75" height="67" viewBox="0 0 83 73"><path fill="#213877" d="M34.184,31.65h1.546c1.874,0 2.813,0.699 2.813,2.106c-1.213,3.28 -2.687,5.02 -4.42,5.22l-2.047,0.273c-0.326,0 -0.46,-0.093 -0.413,-0.273c1.653,-0.873 3.2,-1.913 4.634,-3.106c-0.507,-0.474 -1.067,-0.707 -1.681,-0.707h-0.433l-1.681,0.141l-0.133,-0.141v-0.272C33.163,32.73 33.771,31.65 34.184,31.65L34.184,31.65z" id="path_0"/><path fill="#213877" d="M51.356,51.63c-0.627,2.174 -2.526,4.573 -5.707,7.187c-1.913,1.36 -4.153,2.034 -6.713,2.034c-1.434,-0.327 -2.46,-0.654 -3.08,-0.974c-0.62,-0.327 -1.36,-1.047 -2.233,-2.153c-1.566,-2.08 -2.347,-4.007 -2.347,-5.78c0,-4.22 1.354,-7.6 4.066,-10.153c0.48,-0.34 0.688,-0.287 0.62,0.153c0,0.38 -0.779,1.84 -2.34,4.374c-0.627,1.266 -0.939,2.466 -0.939,3.593c0,1.62 1.146,3.387 3.439,5.313c1.627,0.899 3.394,1.267 5.313,1.093c2.26,0 5.073,-1.56 8.434,-4.687H51.356L51.356,51.63z" id="path_1"/><path fill="#DD2C00" d="M47.643,12.177c0.161,-0.093 0.207,0.053 0.141,0.434c-0.887,2.08 -2.247,3.533 -4.08,4.353l-6.74,3.38c-0.286,-0.08 -0.34,-0.313 -0.16,-0.707c0.9,-1.733 1.514,-2.76 1.84,-3.087L47.643,12.177L47.643,12.177z" id="path_2"/><path fill="#DD2C00" d="M50.003,51.63h1.487c0.159,-0.533 0.233,-1.053 0.233,-1.56V48.51c0,-0.927 -1.107,-1.659 -3.32,-2.192l0.354,-0.468c0.546,-1.053 0.859,-2.306 0.939,-3.746c0,-2.2 -1.667,-4.753 -5,-7.66c-0.213,-0.113 -0.399,-0.08 -0.58,0.106c-0.173,0.193 -0.193,1.507 -0.047,3.96c2.813,2.86 4.268,4.634 4.374,5.307c-0.313,0.693 -0.987,1.32 -2.033,1.88c-1.427,0.301 -2.106,1.754 -2.027,4.374v0.153c1.193,0.173 2.08,0.326 2.653,0.473L50.003,51.63L50.003,51.63z" id="path_3"/><path fill="#DD2C00" d="M41.996,21.537h0.16c0.874,0 2.014,0.78 3.434,2.34c0,0.493 -0.674,1.64 -2.026,3.439H43.09c-1.847,-1.173 -2.786,-1.853 -2.813,-2.033V25.13C40.283,24.283 40.85,23.083 41.996,21.537L41.996,21.537z" id="path_4"/><path fill="#DD2C00" d="M46.217,26.377c-0.414,0 -1.094,1.146 -2.033,3.439v0.313c0.546,0.754 1.54,1.434 2.973,2.026h0.153c1.227,-1.272 1.953,-2.473 2.188,-3.593C48.69,27.837 47.597,27.11 46.217,26.377L46.217,26.377z" id="path_5"/><path fill="#DD2C00" d="M40.437,27.316l-1.72,3.907c0.272,0.6 1.366,1.173 3.279,1.72c1.254,-2.02 1.88,-3.22 1.88,-3.593v-0.313l-3.286,-1.721H40.437L40.437,27.316z" id="path_6"/></svg>