<svg id="vector" xmlns="http://www.w3.org/2000/svg" width="75" height="67" viewBox="0 0 83 73"><path fill="#0D47A1" d="M31.383,23.3h1.547c1.873,0 2.814,0.7 2.814,2.107c-1.215,3.279 -2.688,5.02 -4.42,5.22L29.277,30.9c-0.328,0 -0.461,-0.094 -0.414,-0.273c1.654,-0.873 3.201,-1.913 4.633,-3.106c-0.506,-0.474 -1.066,-0.707 -1.68,-0.707h-0.434l-1.68,0.14l-0.133,-0.14V26.54C30.363,24.38 30.971,23.3 31.383,23.3L31.383,23.3z" id="path_0"/><path fill="#0D47A1" d="M38.631,44.787l-1.762,-0.021c-0.973,4.287 -3.553,6.453 -7.732,6.507c-2.24,0.1 -3.359,0.06 -3.359,-0.12c0.205,-0.394 1.705,-1.146 4.492,-2.267c2.867,-1.82 4.594,-2.993 5.193,-3.514l0.16,-0.467l-2.732,-0.433c-1.994,-0.521 -3.113,-1.521 -3.361,-3.007v-0.313c0,-2.526 0.621,-4.14 1.875,-4.847l0.939,-0.153c1.846,0 3.354,1.287 4.525,3.866c0.748,0.261 1.334,0.387 1.762,0.374V44.787L38.631,44.787z" id="path_1"/><path fill="#FF6F00" d="M54.23,21.7c0.16,-0.094 0.207,0.053 0.139,0.434c-0.887,2.08 -2.246,3.533 -4.078,4.353l-6.74,3.38c-0.287,-0.079 -0.342,-0.313 -0.16,-0.706c0.898,-1.733 1.514,-2.76 1.84,-3.087L54.23,21.7L54.23,21.7z" id="path_2"/><path fill="#FF6F00" d="M37.943,40.333v4.454h0.221c1.74,0 3.307,-1.2 4.686,-3.594c1.641,1.98 3.1,2.967 4.373,2.967h0.154c1.434,0 2.48,-1.04 3.127,-3.127h0.313c0.939,1.46 2.133,2.193 3.594,2.193c1.873,0 2.813,-1.927 2.813,-5.786c0,-1.3 -0.205,-2.394 -0.627,-3.28c-0.313,0 -0.52,0.993 -0.619,2.974c0,1.246 -0.527,1.873 -1.566,1.873c-0.887,-0.16 -1.768,-0.627 -2.654,-1.407c-0.365,-1.227 -0.625,-1.853 -0.779,-1.873h-0.16c-0.727,2.707 -1.773,4.061 -3.127,4.061H46.91c-0.986,0 -1.928,-0.78 -2.814,-2.347l0.16,-0.934c0,-0.313 -0.105,-0.474 -0.313,-0.474h-0.313c-0.422,0.214 -0.627,0.474 -0.627,0.787c-0.914,2.24 -2.58,3.406 -5,3.513H37.943L37.943,40.333z" id="path_3"/></svg>