<svg id="vector" xmlns="http://www.w3.org/2000/svg" width="75" height="67" viewBox="0 0 83 73"><path fill="#E80F0F" d="M35.901,47.191h1.785c1.883,-0.258 4.878,-0.959 8.983,-2.089v-0.158c-3.741,-1.652 -6.115,-2.479 -7.126,-2.479c-1.368,0 -2.294,0.774 -2.789,2.327l-0.463,0.311c-0.205,0 -0.311,-0.158 -0.311,-0.469c0.516,-3.093 1.91,-4.648 4.184,-4.648h0.773c0.959,0 4.211,1.085 9.764,3.253l4.185,0.311l0.304,0.47c-0.073,0.693 -0.694,2.036 -1.857,4.025H52.87l-0.621,-0.159h-0.773c-8.058,2.38 -12.758,3.617 -14.1,3.722h-1.475V47.191z" id="path_0"/><path fill="#000001" d="M50.715,26.99c0.159,-0.093 0.205,0.053 0.139,0.429c-0.878,2.063 -2.228,3.504 -4.045,4.316l-6.684,3.352c-0.285,-0.08 -0.336,-0.311 -0.158,-0.702c0.892,-1.717 1.5,-2.735 1.825,-3.06L50.715,26.99z" id="path_1"/><path fill="#9C27B0" d="M36.231,51.607c-3.007,0.178 -5.195,-1.21 -6.563,-4.165c-0.661,-1.097 -1.275,-8.494 -1.857,-22.19v-0.311c0.383,-2.274 0.952,-3.411 1.699,-3.411l0.78,-0.152c0.952,0 2.399,0.311 4.336,0.925v0.311c-0.106,0.311 -0.417,0.47 -0.932,0.47h-2.631c-0.542,0 -1.058,0.305 -1.553,0.925c0.482,11.892 1.183,18.78 2.115,20.664c0.925,1.884 2.466,2.723 4.606,2.519V51.607z" id="path_2"/></svg>