<svg id="vector" xmlns="http://www.w3.org/2000/svg" width="75" height="67" viewBox="0 0 83 73"><path fill="#D50000" d="M34.173,28.75h1.547c1.874,0 2.813,0.699 2.813,2.106c-1.214,3.28 -2.687,5.02 -4.42,5.22l-2.047,0.273c-0.327,0 -0.46,-0.093 -0.413,-0.273c1.653,-0.873 3.2,-1.913 4.633,-3.106c-0.506,-0.474 -1.066,-0.707 -1.68,-0.707h-0.434l-1.68,0.141l-0.133,-0.141v-0.272C33.153,29.831 33.76,28.75 34.173,28.75L34.173,28.75z" id="path_0"/><path fill="#D50000" d="M51.347,48.73c-0.627,2.174 -2.526,4.573 -5.707,7.187c-1.913,1.36 -4.153,2.034 -6.713,2.034c-1.434,-0.327 -2.46,-0.654 -3.08,-0.974c-0.62,-0.327 -1.36,-1.047 -2.233,-2.153c-1.567,-2.08 -2.347,-4.007 -2.347,-5.78c0,-4.22 1.354,-7.6 4.066,-10.153c0.48,-0.34 0.687,-0.287 0.62,0.153c0,0.38 -0.78,1.84 -2.34,4.374c-0.627,1.266 -0.94,2.466 -0.94,3.593c0,1.62 1.146,3.387 3.44,5.313c1.627,0.899 3.394,1.267 5.313,1.093c2.26,0 5.073,-1.56 8.434,-4.687H51.347L51.347,48.73z" id="path_1"/><path fill="#213877" d="M49.739,15.077c0.16,-0.093 0.207,0.053 0.141,0.434c-0.887,2.08 -2.247,3.533 -4.08,4.353l-6.74,3.38c-0.286,-0.08 -0.34,-0.313 -0.16,-0.707c0.9,-1.733 1.514,-2.76 1.84,-3.086L49.739,15.077L49.739,15.077z" id="path_2"/><path fill="#213877" d="M46.206,23.517c1.381,0.727 2.474,1.46 3.28,2.187c-0.233,1.12 -0.96,2.32 -2.187,3.593h-0.153c-1.434,-0.6 -2.427,-1.272 -2.974,-2.026v-0.313C45.113,24.664 45.793,23.517 46.206,23.517L46.206,23.517z" id="path_3"/><path fill="#213877" d="M40.427,24.457h0.153l3.286,1.714v0.313c0,0.38 -0.626,1.58 -1.88,3.593c-1.913,-0.546 -3.007,-1.12 -3.28,-1.713L40.427,24.457L40.427,24.457z" id="path_4"/><path fill="#213877" d="M50.013,48.73H51.5c0.153,-0.533 0.233,-1.053 0.233,-1.56V45.61c0,-0.927 -1.107,-1.659 -3.32,-2.192l0.354,-0.468c0.547,-1.053 0.859,-2.306 0.933,-3.746c0,-2.2 -1.666,-4.753 -5,-7.66c-0.206,-0.113 -0.399,-0.08 -0.572,0.106c-0.174,0.193 -0.193,1.507 -0.047,3.96c2.813,2.86 4.267,4.634 4.373,5.307c-0.313,0.693 -0.987,1.32 -2.033,1.88c-1.434,0.301 -2.106,1.754 -2.027,4.374v0.153c1.193,0.173 2.08,0.326 2.654,0.473L50.013,48.73L50.013,48.73z" id="path_5"/></svg>