<svg id="vector" xmlns="http://www.w3.org/2000/svg" width="75" height="67" viewBox="0 0 83 73"><path fill="#D32F2F" d="M41.026,50.236h0.311c1.058,0.23 2.194,0.853 3.411,1.863v0.152c-0.701,2.115 -1.316,3.252 -1.858,3.411c-1.58,-0.311 -2.763,-0.826 -3.563,-1.554v-0.152C39.327,52.741 39.895,51.505 41.026,50.236z" id="path_0"/><path fill="#D32F2F" d="M46.764,48.841h0.152c1.057,0.159 2.247,0.88 3.563,2.169v0.158l-1.858,3.252c-2.479,-0.8 -3.721,-1.474 -3.721,-2.017C45.7,50.03 46.321,48.841 46.764,48.841z" id="path_1"/><path fill="#D32F2F" d="M39.651,43.149c4.059,0.04 6.326,-0.72 6.822,-2.287c0,-0.542 -0.516,-1.884 -1.553,-4.026l0.469,-4.024h0.304c1.349,2.319 2.016,4.646 2.016,6.967v1.395c0,0.932 -0.225,1.91 -0.667,2.936c-0.443,1.024 -1.131,1.891 -2.05,2.585c-0.925,0.7 -2.703,0.991 -5.34,0.872V43.149z" id="path_2"/><path fill="#D32F2F" d="M51.272,22.136c0.159,-0.094 0.205,0.052 0.139,0.43c-0.88,2.063 -2.229,3.504 -4.045,4.315l-6.683,3.352c-0.285,-0.078 -0.337,-0.31 -0.159,-0.7c0.892,-1.719 1.501,-2.736 1.825,-3.061L51.272,22.136z" id="path_3"/><path fill="#00796B" d="M39.981,47.565c-3.007,0.178 -5.195,-1.209 -6.563,-4.165c-0.661,-1.097 -1.276,-8.494 -1.857,-22.19v-0.311c0.383,-2.274 0.952,-3.411 1.698,-3.411l0.781,-0.151c0.952,0 2.399,0.311 4.336,0.924v0.312c-0.105,0.311 -0.417,0.47 -0.932,0.47h-2.631c-0.542,0 -1.058,0.304 -1.554,0.925c0.482,11.893 1.184,18.78 2.116,20.664c0.925,1.885 2.465,2.725 4.607,2.519V47.565z" id="path_4"/></svg>