<svg id="vector" xmlns="http://www.w3.org/2000/svg" width="75" height="67" viewBox="0 0 83 73"><path fill="#DD2C00" d="M47.401,31.927h0.622c1.778,1.064 2.915,1.838 3.404,2.327l-1.698,3.563h-0.471c-1.058,-0.18 -2.246,-0.906 -3.562,-2.168C46.471,33.375 47.04,32.139 47.401,31.927z" id="path_0"/><path fill="#DD2C00" d="M37.097,47.19c0.324,0 0.662,0 1.011,0l0.773,-0.391c0.489,-1.004 1.216,-2.24 2.169,-3.714l-1.547,-11.932c0.515,-2.479 0.979,-3.715 1.396,-3.715l0.772,2.941c0.722,1.005 1.084,1.937 1.084,2.789c-0.516,0.952 -0.774,1.731 -0.774,2.32v0.311l0.312,4.958v0.78c1.6,-1.349 3.742,-2.082 6.426,-2.208c3.1,0.437 4.646,1.468 4.646,3.094v1.084c-0.516,2.3 -1.289,4.059 -2.319,5.268c-3.127,1.759 -6.558,2.698 -10.307,2.83h-1.704c-0.682,0 -1.328,0 -1.938,0V47.19L37.097,47.19zM40.117,47.27h0.312c4.726,-0.132 8.421,-0.971 11.078,-2.519c-1.21,-1.242 -2.089,-1.856 -2.631,-1.856h-1.242C44.097,43.02 41.592,44.48 40.117,47.27z" id="path_1"/><path fill="#DD2C00" d="M53.827,21.92c0.159,-0.094 0.205,0.052 0.139,0.429c-0.878,2.063 -2.228,3.504 -4.045,4.316l-6.685,3.352c-0.282,-0.079 -0.336,-0.311 -0.158,-0.7c0.894,-1.719 1.501,-2.736 1.826,-3.061L53.827,21.92z" id="path_2"/><path fill="#DD2C00" d="M37.427,51.606c-3.008,0.179 -5.196,-1.21 -6.563,-4.165c-0.661,-1.097 -1.275,-8.494 -1.858,-22.191v-0.311c0.384,-2.273 0.951,-3.41 1.699,-3.41l0.781,-0.151c0.951,0 2.399,0.311 4.336,0.925v0.311c-0.106,0.311 -0.417,0.469 -0.934,0.469h-2.63c-0.543,0 -1.057,0.305 -1.554,0.927c0.483,11.892 1.184,18.778 2.114,20.663c0.927,1.885 2.466,2.724 4.608,2.519V51.606z" id="path_3"/></svg>