<svg id="vector" xmlns="http://www.w3.org/2000/svg" width="75" height="67" viewBox="0 0 83 73"><path fill="#00BFA5" d="M51.33,28.244c1.527,0.488 2.717,1.11 3.563,1.856v0.312c0,0.516 -0.562,1.652 -1.699,3.412c-1.057,0 -2.247,-0.571 -3.563,-1.708v-0.309C49.63,30.696 50.199,29.507 51.33,28.244z" id="path_0"/><path fill="#00BFA5" d="M46.914,46.099c4.059,0.04 6.326,-0.722 6.822,-2.288c0,-0.541 -0.516,-1.884 -1.554,-4.025l0.469,-4.024h0.304c1.349,2.319 2.017,4.646 2.017,6.966v1.396c0,0.932 -0.224,1.909 -0.668,2.936c-0.442,1.024 -1.129,1.89 -2.049,2.584c-0.925,0.701 -2.703,0.991 -5.34,0.872V46.099z" id="path_1"/><path fill="#00BFA5" d="M53.326,16.001c1.586,0 2.379,0.979 2.379,2.929c0,3.106 -2.651,5.758 -7.959,7.938c-0.76,0.232 -0.853,-0.047 -0.271,-0.833c0.145,-0.297 1.395,-1.229 3.754,-2.789v-0.131c-1.018,-0.419 -1.526,-1.304 -1.526,-2.658c0.674,-2.968 1.745,-4.456 3.212,-4.456H53.326L53.326,16.001zM50.959,19.353c0,0.826 0.701,1.335 2.096,1.533h0.271c0.515,0 0.846,-0.191 0.984,-0.561c0,-0.84 -0.608,-1.495 -1.817,-1.957C51.964,18.368 51.456,18.697 50.959,19.353z" id="path_2"/><path fill="#FFAB00" d="M47.594,50.514l-1.745,-0.021c-0.965,4.252 -3.524,6.401 -7.667,6.453c-2.222,0.101 -3.332,0.061 -3.332,-0.119c0.205,-0.389 1.692,-1.137 4.455,-2.247c2.843,-1.805 4.555,-2.968 5.149,-3.482l0.159,-0.464l-2.71,-0.43c-1.977,-0.515 -3.087,-1.507 -3.331,-2.981v-0.311c0,-2.505 0.615,-4.104 1.857,-4.806l0.932,-0.151c1.832,0 3.325,1.275 4.489,3.834c0.74,0.257 1.322,0.384 1.745,0.37V50.514z" id="path_3"/><path fill="#00BFA5" d="M28.689,24.483c0.311,0 0.622,1.037 0.932,3.1l1.395,3.1l-0.622,3.563l0.462,8.68v1.389c-0.205,3.542 -0.72,5.604 -1.546,6.199l-0.152,-0.151l0.152,-2.327c0,-2.089 -0.674,-8.754 -2.016,-19.983C27.943,25.673 28.405,24.483 28.689,24.483z" id="path_4"/><path fill="#FFAB00" d="M39.548,28.244h1.534c1.857,0 2.79,0.693 2.79,2.09c-1.204,3.252 -2.665,4.977 -4.384,5.176l-2.029,0.27c-0.324,0 -0.456,-0.094 -0.41,-0.27c1.639,-0.867 3.173,-1.898 4.595,-3.082c-0.502,-0.469 -1.058,-0.701 -1.667,-0.701h-0.429l-1.666,0.139l-0.133,-0.139v-0.27C38.537,29.314 39.139,28.244 39.548,28.244z" id="path_5"/></svg>