<svg id="vector" xmlns="http://www.w3.org/2000/svg" width="75" height="67" viewBox="0 0 83 73"><path fill="#388E3C" d="M42.955,37.784c5.268,1.884 7.899,4.21 7.899,6.973l0.159,0.926c-0.443,3.617 -1.633,5.421 -3.57,5.421c0,0.337 -2.578,0.754 -7.741,1.243l-0.159,-0.463c0,-2.584 0.463,-3.874 1.395,-3.874c5.163,-0.417 8.005,-1.038 8.521,-1.864c-1.778,-1.726 -4.104,-3.12 -6.974,-4.177l-0.151,-0.78C42.413,38.921 42.617,37.784 42.955,37.784z" id="path_0"/><path fill="#388E3C" d="M42.484,30.499c1.27,0.211 2.506,0.985 3.722,2.327v0.311c-0.773,2.063 -1.342,3.093 -1.706,3.093c-2.478,-0.846 -3.714,-1.52 -3.714,-2.009C40.787,33.262 41.354,32.026 42.484,30.499z" id="path_1"/><path fill="#388E3C" d="M48.666,20.682c0.159,-0.092 0.205,0.053 0.139,0.43c-0.879,2.063 -2.228,3.503 -4.045,4.317l-6.684,3.351c-0.284,-0.08 -0.337,-0.311 -0.159,-0.701c0.892,-1.719 1.501,-2.737 1.825,-3.061L48.666,20.682z" id="path_2"/><path fill="#E64A19" d="M33.383,26.315c0.311,0 0.621,1.038 0.932,3.1l1.395,3.101l-0.621,3.563l0.462,8.679v1.389c-0.206,3.543 -0.72,5.605 -1.547,6.201l-0.152,-0.152l0.152,-2.327c0,-2.089 -0.674,-8.752 -2.016,-19.983C32.635,27.504 33.099,26.315 33.383,26.315z" id="path_3"/></svg>