<svg id="vector" xmlns="http://www.w3.org/2000/svg" width="75" height="67" viewBox="0 0 83 73"><path fill="#303F9F" d="M34.093,30.741h1.547c1.874,0 2.813,0.699 2.813,2.106c-1.214,3.28 -2.687,5.02 -4.42,5.22l-2.047,0.273c-0.326,0 -0.46,-0.094 -0.413,-0.273c1.653,-0.873 3.2,-1.913 4.634,-3.106c-0.507,-0.474 -1.067,-0.707 -1.681,-0.707h-0.434l-1.68,0.14l-0.133,-0.14V33.98C33.073,31.821 33.68,30.741 34.093,30.741L34.093,30.741z" id="path_0"/><path fill="#303F9F" d="M51.267,50.721c-0.627,2.174 -2.526,4.573 -5.707,7.187c-1.913,1.36 -4.153,2.033 -6.713,2.033c-1.434,-0.326 -2.46,-0.653 -3.08,-0.973c-0.62,-0.327 -1.36,-1.047 -2.233,-2.153c-1.566,-2.08 -2.347,-4.007 -2.347,-5.78c0,-4.22 1.354,-7.601 4.066,-10.153c0.48,-0.34 0.687,-0.287 0.62,0.153c0,0.38 -0.78,1.84 -2.34,4.373c-0.627,1.267 -0.94,2.467 -0.94,3.594c0,1.62 1.146,3.387 3.44,5.313c1.627,0.9 3.394,1.268 5.313,1.094c2.26,0 5.073,-1.56 8.434,-4.687H51.267L51.267,50.721z" id="path_1"/><path fill="#E64A19" d="M47.96,13.088c0.16,-0.094 0.206,0.053 0.14,0.433c-0.887,2.08 -2.246,3.534 -4.08,4.354l-6.74,3.38c-0.286,-0.08 -0.34,-0.313 -0.159,-0.706c0.899,-1.733 1.513,-2.76 1.84,-3.087L47.96,13.088L47.96,13.088z" id="path_2"/><path fill="#E64A19" d="M42.453,22.813c1.84,0.341 3.14,0.86 3.907,1.561v0.94c-0.987,1.979 -1.614,2.967 -1.874,2.967c-2.394,-0.794 -3.594,-1.367 -3.594,-1.721C40.893,25.674 41.413,24.428 42.453,22.813L42.453,22.813z" id="path_3"/><path fill="#E64A19" d="M49.78,51.034h1.579c0.188,-0.547 0.334,-1.12 0.454,-1.721v-1.093c-0.08,-1.134 -0.394,-1.807 -0.94,-2.026c-1.354,-0.38 -2.033,-0.747 -2.033,-1.094c0.213,0 0.474,-0.24 0.78,-0.706c0.313,-0.467 0.473,-1.641 0.473,-3.514v-1.88c0,-1.427 -0.406,-3.094 -1.213,-5c-0.78,-1.394 -2.094,-2.12 -3.946,-2.188c-0.834,0.188 -1.494,0.534 -1.98,1.061c-0.486,0.52 -0.82,1.78 -0.986,3.787l0.153,0.626c0.706,1.874 2.113,2.813 4.22,2.813h0.16c0.6,0 1.173,-0.213 1.72,-0.627h0.153c0.521,0.154 0.78,0.934 0.78,2.341c-0.807,1.979 -1.9,2.973 -3.28,2.973c-0.887,0.127 -1.427,0.681 -1.62,1.66c-0.193,0.974 -0.227,1.934 -0.1,2.866c3.753,0.521 5.627,1.047 5.627,1.567V51.034L49.78,51.034z" id="path_4"/></svg>