<svg id="vector" xmlns="http://www.w3.org/2000/svg" width="75" height="67" viewBox="0 0 83 73"><path fill="#303F9F" d="M50.113,46.68c2.167,1.084 3.252,2.016 3.252,2.79c-1.031,2.043 -1.653,3.074 -1.857,3.101h-0.311c-1.588,-0.801 -2.572,-1.527 -2.941,-2.168C48.611,49.226 49.233,47.982 50.113,46.68z" id="path_0"/><path fill="#303F9F" d="M41.664,42.575h1.785c1.885,-0.259 4.878,-0.959 8.983,-2.089v-0.159c-3.741,-1.652 -6.114,-2.479 -7.125,-2.479c-1.368,0 -2.295,0.773 -2.791,2.327l-0.462,0.311c-0.205,0 -0.311,-0.159 -0.311,-0.47c0.517,-3.094 1.909,-4.647 4.184,-4.647h0.774c0.957,0 4.211,1.085 9.763,3.253l4.186,0.311l0.303,0.47c-0.073,0.693 -0.693,2.035 -1.856,4.024h-0.463l-0.621,-0.157h-0.774c-8.057,2.38 -12.758,3.615 -14.1,3.722h-1.475V42.575z" id="path_1"/><path fill="#303F9F" d="M52.03,19.525c1.586,0 2.379,0.978 2.379,2.928c0,3.106 -2.65,5.758 -7.959,7.939c-0.761,0.231 -0.853,-0.047 -0.27,-0.833c0.145,-0.298 1.394,-1.23 3.754,-2.79v-0.133c-1.02,-0.416 -1.527,-1.302 -1.527,-2.657c0.674,-2.968 1.745,-4.456 3.212,-4.456H52.03L52.03,19.525zM49.663,22.877c0,0.825 0.7,1.335 2.096,1.533h0.271c0.516,0 0.847,-0.191 0.984,-0.563c0,-0.84 -0.608,-1.493 -1.817,-1.956C50.669,21.892 50.16,22.222 49.663,22.877z" id="path_2"/><path fill="#0097A7" d="M42.345,46.991L40.6,46.971c-0.965,4.252 -3.522,6.398 -7.666,6.452c-2.222,0.099 -3.333,0.06 -3.333,-0.119c0.205,-0.391 1.691,-1.137 4.456,-2.247c2.844,-1.805 4.555,-2.969 5.148,-3.484l0.159,-0.463l-2.711,-0.43c-1.976,-0.516 -3.087,-1.506 -3.331,-2.98v-0.312c0,-2.505 0.615,-4.104 1.856,-4.805l0.933,-0.152c1.832,0 3.326,1.276 4.488,3.834c0.741,0.258 1.323,0.383 1.745,0.37V46.991z" id="path_3"/><path fill="#D32F2F" d="M23.44,20.959c0.312,0 0.621,1.038 0.932,3.101l1.396,3.1l-0.622,3.563l0.464,8.68v1.388c-0.206,3.544 -0.722,5.606 -1.548,6.201l-0.152,-0.152l0.152,-2.326c0,-2.09 -0.674,-8.753 -2.017,-19.983C22.693,22.149 23.155,20.959 23.44,20.959z" id="path_4"/><path fill="#0097A7" d="M33.914,24.19h1.532c1.859,0 2.791,0.695 2.791,2.09c-1.204,3.251 -2.665,4.978 -4.383,5.175l-2.029,0.272c-0.325,0 -0.457,-0.093 -0.412,-0.272c1.642,-0.865 3.176,-1.896 4.596,-3.079c-0.503,-0.47 -1.059,-0.701 -1.666,-0.701h-0.429l-1.667,0.138l-0.132,-0.138v-0.271C32.901,25.262 33.503,24.19 33.914,24.19z" id="path_5"/></svg>