<svg id="vector" xmlns="http://www.w3.org/2000/svg" width="75" height="67" viewBox="0 0 83 73"><path fill="#673AB7" d="M29.607,23.917h1.546c1.874,0 2.813,0.7 2.813,2.107c-1.213,3.279 -2.687,5.02 -4.42,5.22L27.5,31.517c-0.326,0 -0.46,-0.094 -0.413,-0.273c1.653,-0.873 3.2,-1.913 4.634,-3.106c-0.507,-0.474 -1.067,-0.707 -1.681,-0.707h-0.433l-1.681,0.14l-0.133,-0.14v-0.273C28.587,24.997 29.193,23.917 29.607,23.917L29.607,23.917z" id="path_0"/><path fill="#673AB7" d="M36.854,45.404l-1.76,-0.021c-0.974,4.287 -3.554,6.453 -7.733,6.507c-2.24,0.1 -3.36,0.06 -3.36,-0.12c0.207,-0.394 1.707,-1.146 4.493,-2.267c2.867,-1.82 4.594,-2.993 5.193,-3.514l0.16,-0.467l-2.733,-0.433C29.12,44.57 28,43.57 27.754,42.083V41.77c0,-2.526 0.619,-4.14 1.873,-4.847l0.939,-0.153c1.847,0 3.354,1.287 4.527,3.866c0.746,0.261 1.333,0.387 1.76,0.374V45.404L36.854,45.404z" id="path_1"/><path fill="#009649" d="M54.333,21.083c0.16,-0.094 0.207,0.053 0.141,0.434c-0.887,2.08 -2.247,3.533 -4.08,4.353l-6.74,3.38c-0.287,-0.079 -0.34,-0.313 -0.16,-0.706c0.9,-1.733 1.514,-2.76 1.84,-3.087L54.333,21.083L54.333,21.083z" id="path_2"/><path fill="#009649" d="M54,33.31c-2.84,0 -5.387,2.5 -7.653,7.5l-0.16,-0.153c-1.273,0 -2.366,-0.833 -3.279,-2.5c0.146,-0.233 0.246,-0.653 0.313,-1.247l-0.466,-0.473h-0.16c-0.207,0.053 -0.414,0.313 -0.62,0.779c-1.407,2.268 -3.141,3.514 -5.2,3.733h-0.606v4.454c2.646,0.106 4.373,-1.167 5.18,-3.807c0.86,1.533 2.054,2.733 3.594,3.593v0.313l-0.467,2.653v0.16l0.153,0.153c0.206,0 0.68,-0.993 1.406,-2.967l2.34,0.153C55.46,45.657 59,42.791 59,37.063v-0.939C57.934,34.25 56.267,33.31 54,33.31zM48.22,41.124h-0.313c1.254,-2.601 3.127,-3.907 5.627,-3.907h0.627c2.08,0.447 3.12,1.228 3.12,2.347C54.78,40.604 51.76,41.124 48.22,41.124z" id="path_3"/></svg>