<svg id="vector" xmlns="http://www.w3.org/2000/svg" width="75" height="67" viewBox="0 0 83 73"><path fill="#009649" d="M41.21,42.308v-0.311c-0.734,-0.285 -2.288,-0.543 -4.647,-0.773c-0.728,-0.464 -1.137,-1.289 -1.243,-2.479c0.079,-2.035 0.41,-3.576 0.998,-4.62c0.589,-1.038 1.309,-1.884 2.168,-2.532c0.859,-0.654 1.864,-1.178 3.015,-1.56c1.15,-0.391 2.029,-0.529 2.65,-0.431c0.622,0.105 0.933,0.418 0.933,0.932c-0.311,0.543 -0.47,1.263 -0.47,2.169c0,0.787 0.826,1.613 2.479,2.479l0.622,0.158l0.47,0.151c0.476,-1.302 1.659,-3.007 3.563,-5.109c1.11,-1.335 2.412,-2.068 3.907,-2.208c2.491,0.258 3.979,1.249 4.455,2.981l0.159,0.774v0.772c0,1.283 -0.331,2.38 -0.992,3.306c-0.654,0.918 -1.731,1.817 -3.227,2.677c-1.486,0.866 -3.596,1.303 -6.319,1.303l-1.856,-0.159l-0.933,3.101c-0.337,0.516 -0.543,0.516 -0.621,0l0.469,-3.253c-2.274,-1.176 -3.41,-2.518 -3.41,-4.033v-1.387c0,-0.284 -0.517,-0.496 -1.548,-0.622c-1.863,0 -3.615,0.827 -5.268,2.479v0.312c0.641,0.312 2.036,0.515 4.178,0.615c1.309,0.014 1.977,1.097 2.016,3.258c-0.112,0.722 -0.258,1.396 -0.423,2.011H41.21L41.21,42.308zM50.192,35.491c2.168,-0.064 3.411,-0.164 3.722,-0.31c2.684,-0.596 4.336,-1.316 4.958,-2.169c-1.355,-1.031 -2.492,-1.547 -3.411,-1.547c-2.128,0 -3.887,1.289 -5.269,3.874V35.491z" id="path_0"/><path fill="#009649" d="M49.71,21.55l2.941,2.01l0.159,0.623v0.157c-1.177,2.155 -1.851,3.239 -2.017,3.253c-1.652,-0.715 -2.789,-1.382 -3.41,-2.017v-0.932c0.416,-0.588 0.674,-1.157 0.779,-1.699C48.421,22.015 48.937,21.55 49.71,21.55z" id="path_1"/><path fill="#009649" d="M57.087,43.199c0.159,-0.085 0.205,0.054 0.139,0.43c-0.879,2.063 -2.228,3.504 -4.045,4.318l-6.684,3.351c-0.284,-0.08 -0.337,-0.311 -0.158,-0.694c0.893,-1.719 1.501,-2.736 1.824,-3.061L57.087,43.199z" id="path_2"/><path fill="#E64A19" d="M42.644,42.308c-0.622,2.154 -2.505,4.534 -5.658,7.125c-1.897,1.35 -4.118,2.017 -6.656,2.017c-1.422,-0.323 -2.44,-0.647 -3.055,-0.965c-0.615,-0.324 -1.349,-1.038 -2.215,-2.136c-1.553,-2.063 -2.326,-3.973 -2.326,-5.729c0,-4.186 1.342,-7.537 4.032,-10.068c0.476,-0.338 0.681,-0.285 0.614,0.151c0,0.377 -0.773,1.825 -2.32,4.337c-0.621,1.256 -0.932,2.445 -0.932,3.563c0,1.605 1.138,3.357 3.411,5.268c1.612,0.894 3.365,1.257 5.269,1.085c2.241,0 5.03,-1.548 8.362,-4.646H42.644z" id="path_3"/><path fill="#E64A19" d="M31.278,22.396h1.533c1.857,0 2.789,0.694 2.789,2.089c-1.202,3.252 -2.663,4.978 -4.382,5.176l-2.03,0.271c-0.323,0 -0.455,-0.093 -0.409,-0.271c1.64,-0.865 3.173,-1.896 4.595,-3.08c-0.503,-0.469 -1.059,-0.701 -1.667,-0.701h-0.429l-1.666,0.14l-0.133,-0.14v-0.271C30.266,23.467 30.868,22.396 31.278,22.396z" id="path_4"/></svg>