<svg id="vector" xmlns="http://www.w3.org/2000/svg" width="75" height="67" viewBox="0 0 83 73"><path fill="#E64A19" d="M42.954,34.955c5.269,1.883 7.899,4.21 7.899,6.974l0.158,0.924c-0.442,3.616 -1.632,5.421 -3.569,5.421c0,0.337 -2.578,0.754 -7.741,1.242l-0.158,-0.462c0,-2.585 0.463,-3.874 1.395,-3.874c5.163,-0.417 8.004,-1.038 8.521,-1.864c-1.778,-1.726 -4.105,-3.119 -6.974,-4.177l-0.152,-0.781C42.412,36.091 42.617,34.955 42.954,34.955z" id="path_0"/><path fill="#E64A19" d="M49.069,24.125c0.159,-0.092 0.205,0.053 0.139,0.43c-0.879,2.062 -2.229,3.503 -4.046,4.317l-6.683,3.351c-0.285,-0.079 -0.337,-0.311 -0.159,-0.701c0.893,-1.718 1.5,-2.737 1.824,-3.06L49.069,24.125z" id="path_1"/><path fill="#000001" d="M33.382,23.484c0.311,0 0.621,1.038 0.933,3.101l1.395,3.101l-0.622,3.563l0.463,8.681v1.387c-0.205,3.543 -0.721,5.605 -1.547,6.2l-0.151,-0.151l0.151,-2.326c0,-2.09 -0.674,-8.753 -2.016,-19.983C32.636,24.674 33.098,23.484 33.382,23.484z" id="path_2"/></svg>