<svg id="vector" xmlns="http://www.w3.org/2000/svg" width="75" height="67" viewBox="0 0 83 73"><path fill="#C51162" d="M53.457,37.27h0.622c1.812,0 3.153,1.547 4.032,4.647l0.152,1.546c0.054,0.503 0.054,1.019 0,1.555c-0.463,1.884 -1.501,3.741 -3.101,5.572c-1.11,0.932 -3.636,1.653 -7.589,2.168c-0.462,-0.205 -0.727,-0.408 -0.773,-0.614c6.61,-3.59 9.916,-5.757 9.916,-6.511l0.152,-0.463l-0.152,-0.152l-1.395,0.463h-0.773c-2.789,0 -4.185,-0.985 -4.185,-2.942v-0.31c0.357,-3.206 1.137,-4.807 2.32,-4.807L53.457,37.27z" id="path_0"/><path fill="#C51162" d="M53.287,21.868c1.586,0 2.379,0.978 2.379,2.928c0,3.107 -2.65,5.758 -7.959,7.939c-0.76,0.231 -0.853,-0.046 -0.271,-0.832c0.145,-0.298 1.394,-1.23 3.754,-2.79V28.98c-1.019,-0.417 -1.526,-1.302 -1.526,-2.657c0.674,-2.968 1.745,-4.455 3.213,-4.455H53.287L53.287,21.868zM50.92,25.22c0,0.825 0.7,1.336 2.096,1.534h0.271c0.515,0 0.845,-0.192 0.984,-0.563c0,-0.839 -0.608,-1.492 -1.818,-1.955C51.925,24.235 51.416,24.565 50.92,25.22z" id="path_1"/><path fill="#00C853" d="M37.732,37.27h0.621c1.811,0 3.153,1.547 4.032,4.647l0.152,1.546c0.053,0.503 0.053,1.019 0,1.555c-0.463,1.884 -1.501,3.741 -3.101,5.572c-1.111,0.932 -3.636,1.653 -7.589,2.168c-0.463,-0.205 -0.728,-0.408 -0.773,-0.614c6.61,-3.59 9.916,-5.757 9.916,-6.511l0.151,-0.463l-0.151,-0.152l-1.396,0.463h-0.773c-2.789,0 -4.184,-0.985 -4.184,-2.942v-0.31c0.356,-3.206 1.137,-4.807 2.319,-4.807L37.732,37.27z" id="path_2"/><path fill="#C51162" d="M26.091,20.242c0.311,0 0.621,1.037 0.933,3.1l1.395,3.102l-0.621,3.562l0.462,8.68v1.389c-0.204,3.544 -0.72,5.605 -1.547,6.201l-0.151,-0.152l0.151,-2.327c0,-2.089 -0.674,-8.752 -2.016,-19.983C25.345,21.432 25.807,20.242 26.091,20.242z" id="path_3"/><path fill="#00C853" d="M36.461,25.01h1.533c1.857,0 2.79,0.694 2.79,2.09c-1.203,3.251 -2.664,4.977 -4.383,5.175l-2.029,0.271c-0.324,0 -0.457,-0.093 -0.41,-0.271c1.639,-0.865 3.173,-1.896 4.595,-3.079c-0.503,-0.47 -1.059,-0.701 -1.666,-0.701h-0.43l-1.665,0.138l-0.133,-0.138v-0.271C35.449,26.08 36.051,25.01 36.461,25.01z" id="path_4"/></svg>