<svg id="vector" xmlns="http://www.w3.org/2000/svg" width="75" height="67" viewBox="0 0 83 73"><path fill="#D32F2F" d="M39.84,49.159c0.232,0 0.477,0 0.734,0h0.932c3.51,-0.58 5.269,-1.639 5.269,-3.172c-1.665,-1.554 -4.349,-2.327 -8.057,-2.327l-2.129,0.191h-2.307l-0.562,-5.479l8.098,-6.022l8.21,-5.89c0.403,-0.244 0.556,-0.139 0.462,0.31l-3.403,6.201h-0.159l-0.153,-1.084h-0.31l-9.916,7.437h3.564c4.197,0 6.987,1.184 8.368,3.563l0.152,0.926v0.31c-0.014,3.94 -1.818,6.883 -5.42,8.833c-1.031,0.415 -1.91,0.62 -2.638,0.62c-0.257,0 -0.502,0 -0.734,0V49.159z" id="path_0"/><path fill="#D32F2F" d="M48.593,19.452c0.159,-0.092 0.205,0.054 0.138,0.431c-0.879,2.063 -2.228,3.503 -4.045,4.316l-6.684,3.351c-0.284,-0.078 -0.337,-0.31 -0.159,-0.7c0.893,-1.719 1.501,-2.736 1.825,-3.061L48.593,19.452z" id="path_1"/><path fill="#7B1FA2" d="M40.773,53.575h-0.391c-3.741,0 -6.068,-2.63 -6.967,-7.898l-0.932,-15.032c0.39,-2.167 0.799,-3.404 1.242,-3.716h0.152c0.205,0 0.311,0.152 0.311,0.463c0,10.253 0.667,16.73 2.016,19.441c1.369,1.514 2.89,2.281 4.568,2.307V53.575z" id="path_2"/></svg>