<svg id="vector" xmlns="http://www.w3.org/2000/svg" width="75" height="67" viewBox="0 0 83 73"><path fill="#00796B" d="M41.209,40.124v-0.312c-0.733,-0.283 -2.287,-0.54 -4.646,-0.772c-0.729,-0.462 -1.138,-1.289 -1.243,-2.478c0.079,-2.037 0.41,-3.577 0.998,-4.621c0.588,-1.039 1.309,-1.885 2.168,-2.533c0.859,-0.653 1.864,-1.176 3.015,-1.56c1.149,-0.39 2.029,-0.528 2.65,-0.429c0.622,0.104 0.933,0.416 0.933,0.932c-0.311,0.542 -0.47,1.262 -0.47,2.167c0,0.788 0.827,1.613 2.479,2.479l0.62,0.159l0.471,0.152c0.476,-1.303 1.659,-3.008 3.563,-5.11c1.11,-1.336 2.412,-2.068 3.906,-2.207c2.492,0.257 3.979,1.249 4.455,2.98l0.159,0.773v0.772c0,1.283 -0.33,2.381 -0.991,3.307c-0.655,0.919 -1.732,1.816 -3.227,2.677c-1.487,0.867 -3.596,1.302 -6.319,1.302l-1.857,-0.159l-0.932,3.101c-0.337,0.517 -0.542,0.517 -0.622,0l0.47,-3.252c-2.273,-1.177 -3.411,-2.518 -3.411,-4.032v-1.388c0,-0.285 -0.515,-0.497 -1.546,-0.62c-1.865,0 -3.616,0.824 -5.269,2.478v0.311c0.641,0.312 2.035,0.516 4.177,0.614c1.31,0.013 1.978,1.098 2.017,3.259c-0.113,0.72 -0.258,1.396 -0.423,2.01H41.209L41.209,40.124zM50.192,33.31c2.168,-0.066 3.411,-0.166 3.722,-0.312c2.684,-0.594 4.336,-1.315 4.958,-2.169c-1.355,-1.03 -2.492,-1.545 -3.411,-1.545c-2.128,0 -3.887,1.288 -5.269,3.873V33.31z" id="path_0"/><path fill="#00796B" d="M56.736,41.309c0.159,-0.086 0.206,0.053 0.14,0.428c-0.88,2.063 -2.228,3.505 -4.046,4.317l-6.683,3.351c-0.284,-0.078 -0.338,-0.311 -0.159,-0.691c0.893,-1.72 1.501,-2.738 1.824,-3.062L56.736,41.309z" id="path_1"/><path fill="#E64A19" d="M42.643,40.124c-0.621,2.155 -2.504,4.536 -5.658,7.127c-1.896,1.348 -4.117,2.016 -6.656,2.016c-1.421,-0.324 -2.438,-0.647 -3.054,-0.966c-0.615,-0.323 -1.349,-1.037 -2.215,-2.135c-1.553,-2.063 -2.327,-3.974 -2.327,-5.731c0,-4.184 1.342,-7.535 4.033,-10.067c0.476,-0.337 0.681,-0.283 0.614,0.151c0,0.377 -0.773,1.826 -2.32,4.337c-0.621,1.257 -0.932,2.446 -0.932,3.563c0,1.606 1.138,3.357 3.411,5.269c1.612,0.894 3.364,1.255 5.268,1.084c2.241,0 5.031,-1.547 8.363,-4.647H42.643z" id="path_2"/><path fill="#E64A19" d="M30.946,23.595h1.533c1.857,0 2.79,0.693 2.79,2.089c-1.204,3.252 -2.665,4.979 -4.384,5.176l-2.028,0.272c-0.324,0 -0.457,-0.094 -0.41,-0.272c1.639,-0.865 3.173,-1.897 4.594,-3.081c-0.502,-0.468 -1.058,-0.699 -1.666,-0.699h-0.429l-1.667,0.139l-0.132,-0.139v-0.271C29.935,24.666 30.536,23.595 30.946,23.595z" id="path_3"/></svg>