<svg id="vector" xmlns="http://www.w3.org/2000/svg" width="75" height="67" viewBox="0 0 83 73"><path fill="#9e3b21" d="M32.502,26.728h1.547c1.873,0 2.813,0.699 2.813,2.106c-1.214,3.279 -2.688,5.02 -4.421,5.22l-2.046,0.273c-0.327,0 -0.46,-0.094 -0.414,-0.273c1.653,-0.873 3.2,-1.913 4.634,-3.106c-0.507,-0.474 -1.066,-0.707 -1.681,-0.707h-0.433l-1.68,0.14l-0.134,-0.14v-0.273C31.482,27.807 32.089,26.728 32.502,26.728L32.502,26.728z" id="path_0"/><path fill="#9e3b21" d="M39.749,48.214l-1.76,-0.021c-0.974,4.287 -3.553,6.453 -7.733,6.507c-2.24,0.1 -3.36,0.06 -3.36,-0.12c0.207,-0.393 1.707,-1.146 4.494,-2.267c2.866,-1.82 4.593,-2.993 5.193,-3.513l0.159,-0.467L34.008,47.9c-1.993,-0.521 -3.113,-1.521 -3.359,-3.007V44.58c0,-2.526 0.62,-4.14 1.873,-4.847l0.94,-0.153c1.847,0 3.354,1.287 4.526,3.867c0.747,0.26 1.333,0.387 1.76,0.373V48.214L39.749,48.214z" id="path_1"/><path fill="#009649" d="M55.936,18.273c0.16,-0.093 0.207,0.054 0.141,0.434c-0.887,2.08 -2.247,3.533 -4.08,4.354l-6.74,3.38c-0.286,-0.08 -0.34,-0.313 -0.16,-0.707c0.9,-1.733 1.514,-2.76 1.84,-3.087L55.936,18.273L55.936,18.273z" id="path_2"/><path fill="#009649" d="M49.456,28.367h0.626c1.794,1.073 2.94,1.854 3.434,2.347l-1.713,3.593h-0.474c-1.066,-0.18 -2.267,-0.913 -3.593,-2.187C48.516,29.827 49.089,28.58 49.456,28.367L49.456,28.367z" id="path_3"/><path fill="#009649" d="M50.782,35.834c-2.706,0.126 -4.866,0.866 -6.479,2.227v-0.787l-0.313,-5V31.96c0,-0.593 0.26,-1.38 0.78,-2.34c0,-0.859 -0.367,-1.8 -1.094,-2.813l-0.779,-2.967c-0.421,0 -0.887,1.247 -1.408,3.747l1.56,12.033c-0.96,1.487 -1.693,2.733 -2.187,3.747l-0.779,0.394c-0.354,0 -0.693,0 -1.021,0v4.453c0.613,0 1.267,0 1.953,0h1.721c3.779,-0.134 7.239,-1.08 10.393,-2.854c1.04,-1.22 1.82,-2.993 2.34,-5.313v-1.093C55.469,37.313 53.909,36.273 50.782,35.834zM42.423,43.841h-0.313c1.486,-2.813 4.014,-4.287 7.58,-4.414h1.253c0.547,0 1.434,0.62 2.653,1.873C50.916,42.86 47.189,43.707 42.423,43.841z" id="path_4"/></svg>