<svg id="vector" xmlns="http://www.w3.org/2000/svg" width="75" height="67" viewBox="0 0 83 73"><path fill="#DD2C00" d="M46.186,30.978c1.262,0.205 2.505,0.978 3.715,2.32v0.311c-0.773,2.068 -1.342,3.1 -1.706,3.1c-2.479,-0.853 -3.715,-1.526 -3.715,-2.017C44.48,33.74 45.048,32.497 46.186,30.978z" id="path_0"/><path fill="#DD2C00" d="M47.772,39.398c0.925,0.933 1.804,2.941 2.63,6.041l0.159,2.018c0,3.642 -1.811,6.12 -5.427,7.437l-1.084,0.151l-2.75,0.04l-2.67,-0.04l-0.152,-0.151v-0.159c0.331,-0.356 2.551,-1.441 6.657,-3.252c2.584,-1.468 3.979,-2.763 4.184,-3.874c-1.342,-2.862 -2.01,-4.515 -2.01,-4.958v-0.462C47.308,40.331 47.461,39.398 47.772,39.398z" id="path_1"/><path fill="#DD2C00" d="M50.422,21.405c0.159,-0.093 0.205,0.053 0.139,0.43c-0.879,2.063 -2.228,3.504 -4.046,4.315l-6.683,3.352c-0.284,-0.078 -0.337,-0.31 -0.159,-0.7c0.893,-1.718 1.5,-2.736 1.825,-3.061L50.422,21.405z" id="path_2"/><path fill="#000001" d="M33.804,21.928c0.311,0 0.621,1.038 0.932,3.101l1.395,3.1L35.51,31.69l0.462,8.681v1.387c-0.205,3.543 -0.72,5.605 -1.547,6.201l-0.152,-0.152l0.152,-2.326c0,-2.09 -0.674,-8.753 -2.016,-19.984C33.058,23.117 33.52,21.928 33.804,21.928z" id="path_3"/></svg>