<svg id="vector" xmlns="http://www.w3.org/2000/svg" width="75" height="67" viewBox="0 0 83 73"><path fill="#0097A7" d="M38.205,47.191c1.527,-0.192 2.288,-0.489 2.288,-0.892c0,-3.074 0.932,-6.79 2.79,-11.152c0.258,-0.568 0.515,-0.622 0.773,-0.159c0.674,1.447 1.858,2.638 3.563,3.563c3.517,1.706 5.269,4.033 5.269,6.974c0,3.074 -0.668,4.832 -2.016,5.269l-1.547,0.152l-5.89,-0.311c-1.639,0.7 -3.378,1.024 -5.229,0.971V47.191L38.205,47.191zM47.003,46.457l3.868,0.152l0.621,-0.152c-0.952,-1.321 -2.195,-2.353 -3.715,-3.099C47.492,43.357 47.235,44.388 47.003,46.457L47.003,46.457zM41.887,44.44c0,0.979 0.773,1.6 2.327,1.858c1.343,-0.747 2.01,-1.521 2.01,-2.321c-0.463,-1.865 -1.236,-2.789 -2.32,-2.789C42.792,41.189 42.118,42.273 41.887,44.44z" id="path_0"/><path fill="#0097A7" d="M50.057,23.545c0.159,-0.091 0.206,0.054 0.14,0.431c-0.88,2.063 -2.229,3.503 -4.045,4.316l-6.684,3.352c-0.284,-0.08 -0.337,-0.311 -0.159,-0.701c0.893,-1.719 1.501,-2.737 1.825,-3.061L50.057,23.545z" id="path_1"/><path fill="#E64A19" d="M38.536,51.606c-3.008,0.179 -5.196,-1.21 -6.564,-4.165c-0.661,-1.097 -1.276,-8.494 -1.858,-22.191V24.94c0.384,-2.274 0.952,-3.411 1.699,-3.411l0.78,-0.151c0.952,0 2.399,0.311 4.337,0.925v0.311c-0.106,0.31 -0.417,0.469 -0.933,0.469h-2.631c-0.542,0 -1.057,0.304 -1.553,0.926c0.483,11.892 1.183,18.779 2.116,20.664c0.925,1.884 2.465,2.723 4.607,2.519V51.606z" id="path_2"/></svg>