<svg id="vector" xmlns="http://www.w3.org/2000/svg" width="75" height="67" viewBox="0 0 83 73"><path fill="#009649" d="M45.073,46.535l0.039,-0.061v-0.158c-0.688,-0.41 -2.287,-0.721 -4.806,-0.925c-0.62,-0.311 -0.932,-0.773 -0.932,-1.396c-0.02,-1.871 0.647,-3.682 2.016,-5.42c0.827,-1.68 1.448,-3.331 1.858,-4.958l-0.774,-8.832l-0.151,-4.494c0.462,-2.374 0.879,-3.563 1.235,-3.563l0.159,0.151v0.933c0.139,0.464 0.396,0.932 0.773,1.395l1.236,2.631c-0.072,0.959 -0.542,2.096 -1.395,3.411l0.158,3.101v3.404c2.195,-2.479 4.674,-3.715 7.438,-3.715c2.994,0.436 4.494,1.422 4.494,2.942v0.772c0,1.758 -1.243,3.722 -3.722,5.891c-1.56,0.594 -4.349,1.162 -8.368,1.704l-1.084,0.311c-1.131,0.424 -1.699,0.787 -1.699,1.085c2.888,0.231 4.336,0.595 4.336,1.084c0.152,0 0.41,0.516 0.774,1.547c0,1.084 -0.14,2.135 -0.424,3.16H45.073L45.073,46.535zM43.249,37.181c0.581,-0.482 3.992,-1.619 10.227,-3.41l1.084,-0.463c0,-0.311 -0.371,-0.7 -1.111,-1.164c-0.74,-0.463 -1.612,-0.701 -2.604,-0.701c-3.061,0.662 -5.023,1.594 -5.89,2.79C44.016,35.436 43.447,36.414 43.249,37.181z" id="path_0"/><path fill="#009649" d="M55.353,48.175c0.158,-0.087 0.205,0.052 0.139,0.429c-0.879,2.063 -2.229,3.504 -4.046,4.316l-6.684,3.352c-0.284,-0.079 -0.337,-0.311 -0.158,-0.693c0.893,-1.719 1.501,-2.737 1.824,-3.061L55.353,48.175z" id="path_1"/><path fill="#000001" d="M46.487,46.355c-0.62,2.156 -2.505,4.536 -5.658,7.127c-1.896,1.349 -4.118,2.017 -6.656,2.017c-1.421,-0.324 -2.439,-0.647 -3.054,-0.966c-0.616,-0.324 -1.349,-1.038 -2.216,-2.135c-1.553,-2.063 -2.326,-3.974 -2.326,-5.731c0,-4.185 1.342,-7.536 4.032,-10.067c0.477,-0.337 0.682,-0.284 0.615,0.151c0,0.377 -0.773,1.825 -2.321,4.338c-0.62,1.255 -0.932,2.444 -0.932,3.562c0,1.606 1.138,3.358 3.412,5.269c1.612,0.893 3.364,1.257 5.268,1.084c2.241,0 5.031,-1.547 8.362,-4.647H46.487z" id="path_2"/><path fill="#000001" d="M33.657,21.379h1.534c1.858,0 2.79,0.693 2.79,2.088c-1.204,3.252 -2.665,4.979 -4.384,5.176l-2.029,0.271c-0.323,0 -0.456,-0.093 -0.41,-0.271c1.641,-0.866 3.174,-1.897 4.595,-3.08c-0.502,-0.47 -1.058,-0.7 -1.666,-0.7h-0.43l-1.666,0.139l-0.132,-0.139v-0.271C32.646,22.449 33.248,21.379 33.657,21.379z" id="path_3"/></svg>