<svg id="vector" xmlns="http://www.w3.org/2000/svg" width="75" height="67" viewBox="0 0 83 73"><path fill="#00C853" d="M50.952,49.125c0.528,0 1.766,0.622 3.716,1.864c0,0.773 -0.616,2.01 -1.858,3.716c-2.479,-0.8 -3.715,-1.52 -3.715,-2.168C49.153,51.955 49.776,50.818 50.952,49.125z" id="path_0"/><path fill="#00C853" d="M47.229,42.33c4.06,0.04 6.328,-0.72 6.822,-2.287c0,-0.541 -0.514,-1.883 -1.553,-4.026l0.47,-4.025h0.303c1.35,2.32 2.017,4.647 2.017,6.967v1.395c0,0.933 -0.225,1.911 -0.667,2.935c-0.442,1.024 -1.13,1.891 -2.05,2.585c-0.925,0.7 -2.703,0.991 -5.342,0.872V42.33z" id="path_1"/><path fill="#00C853" d="M53.009,18.295c1.586,0 2.379,0.979 2.379,2.929c0,3.107 -2.65,5.758 -7.958,7.938c-0.761,0.231 -0.854,-0.046 -0.272,-0.833c0.146,-0.297 1.396,-1.23 3.756,-2.79v-0.131c-1.02,-0.417 -1.527,-1.303 -1.527,-2.658c0.673,-2.968 1.744,-4.456 3.213,-4.456H53.009L53.009,18.295zM50.643,21.647c0,0.825 0.699,1.334 2.095,1.533h0.271c0.516,0 0.846,-0.191 0.984,-0.562c0,-0.839 -0.608,-1.494 -1.818,-1.957C51.646,20.662 51.138,20.992 50.643,21.647z" id="path_2"/><path fill="#000001" d="M47.911,46.746l-1.744,-0.021c-0.966,4.251 -3.523,6.399 -7.667,6.453c-2.223,0.098 -3.333,0.059 -3.333,-0.12c0.205,-0.39 1.692,-1.137 4.456,-2.248c2.843,-1.805 4.554,-2.968 5.148,-3.484l0.158,-0.462l-2.71,-0.429c-1.976,-0.516 -3.086,-1.507 -3.331,-2.981v-0.311c0,-2.505 0.614,-4.105 1.857,-4.806l0.932,-0.152c1.832,0 3.325,1.276 4.489,3.833c0.739,0.259 1.321,0.384 1.744,0.371V46.746z" id="path_3"/><path fill="#DD2C00" d="M29.007,20.714c0.31,0 0.621,1.038 0.931,3.1l1.396,3.101l-0.622,3.563l0.464,8.68v1.387c-0.205,3.543 -0.721,5.605 -1.547,6.201l-0.153,-0.151l0.153,-2.327c0,-2.09 -0.675,-8.753 -2.016,-19.983C28.259,21.904 28.722,20.714 29.007,20.714z" id="path_4"/><path fill="#000001" d="M38.504,20.896h1.532c1.857,0 2.79,0.694 2.79,2.089c-1.203,3.252 -2.665,4.978 -4.382,5.175l-2.029,0.271c-0.324,0 -0.458,-0.092 -0.412,-0.271c1.641,-0.865 3.175,-1.896 4.595,-3.08c-0.502,-0.469 -1.057,-0.701 -1.665,-0.701h-0.429l-1.667,0.139l-0.133,-0.139v-0.271C37.491,21.967 38.093,20.896 38.504,20.896z" id="path_5"/></svg>