<svg id="vector" xmlns="http://www.w3.org/2000/svg" width="75" height="67" viewBox="0 0 83 73"><path fill="#304FFE" d="M54.087,25.651h0.62c1.813,0 3.154,1.547 4.033,4.646l0.152,1.548c0.053,0.502 0.053,1.018 0,1.552c-0.463,1.884 -1.501,3.742 -3.101,5.573c-1.111,0.932 -3.636,1.651 -7.589,2.169c-0.463,-0.205 -0.728,-0.41 -0.773,-0.616c6.61,-3.589 9.916,-5.757 9.916,-6.512l0.151,-0.462l-0.151,-0.152l-1.395,0.464h-0.774c-2.788,0 -4.184,-0.984 -4.184,-2.941v-0.312c0.357,-3.206 1.137,-4.806 2.32,-4.806L54.087,25.651z" id="path_0"/><path fill="#304FFE" d="M57.769,42.705c0.159,-0.086 0.205,0.053 0.139,0.432c-0.879,2.062 -2.229,3.502 -4.045,4.314l-6.684,3.352c-0.284,-0.079 -0.337,-0.311 -0.158,-0.693c0.893,-1.718 1.5,-2.737 1.824,-3.061L57.769,42.705z" id="path_1"/><path fill="#FFAB00" d="M45.235,22.214c0.998,-0.086 1.514,0.172 1.547,0.779v0.926c-0.258,2.479 -0.515,3.722 -0.773,3.722h-0.151c-0.192,-0.728 -0.813,-1.083 -1.857,-1.083c-2.149,0 -4.416,1.599 -6.823,4.798v0.312c0,0.515 1.759,0.984 5.269,1.394c0.933,0.906 1.396,1.886 1.396,2.942c0,2.922 -2.578,6.068 -7.747,9.452c-1.343,0.721 -2.684,1.084 -4.026,1.084c-3.537,0 -6.067,-2.167 -7.595,-6.504c-0.489,-1.515 -0.535,-3.623 -0.132,-6.326c0.396,-2.704 1.593,-4.376 3.582,-5.023l0.271,0.04c0.391,0.203 0.106,0.793 -0.839,1.771c-0.952,0.972 -1.547,2.24 -1.792,3.808v1.236c0,2.479 1.342,4.495 4.026,6.042c0.932,0.417 1.91,0.621 2.941,0.621h0.621c2.994,0 5.989,-1.448 8.983,-4.337l-4.799,-1.084c-0.826,-0.548 -1.242,-1.269 -1.242,-2.175V32.75c0.039,-2.842 1.381,-5.427 4.032,-7.767C41.104,23.964 42.81,23.04 45.235,22.214z" id="path_2"/><path fill="#FFAB00" d="M29.007,18.1h1.534c1.857,0 2.79,0.694 2.79,2.089c-1.204,3.253 -2.665,4.978 -4.383,5.177l-2.029,0.271c-0.324,0 -0.457,-0.092 -0.41,-0.271c1.639,-0.867 3.172,-1.897 4.594,-3.081c-0.502,-0.471 -1.058,-0.7 -1.666,-0.7h-0.43l-1.666,0.139l-0.132,-0.139v-0.271C27.995,19.171 28.597,18.1 29.007,18.1z" id="path_3"/></svg>