<svg id="vector" xmlns="http://www.w3.org/2000/svg" width="75" height="67" viewBox="0 0 83 73"><path fill="#006064" d="M33.71,24.243h1.546c1.874,0 2.813,0.7 2.813,2.107c-1.213,3.279 -2.687,5.02 -4.42,5.22l-2.047,0.273c-0.326,0 -0.46,-0.094 -0.413,-0.273c1.653,-0.873 3.2,-1.913 4.634,-3.106c-0.507,-0.474 -1.067,-0.707 -1.681,-0.707H33.71l-1.681,0.14l-0.133,-0.14v-0.273C32.689,25.323 33.296,24.243 33.71,24.243L33.71,24.243z" id="path_0"/><path fill="#006064" d="M35.503,37.23h0.626c1.827,0 3.181,1.56 4.067,4.687l0.153,1.56c0.053,0.507 0.053,1.026 0,1.566c-0.467,1.9 -1.514,3.773 -3.127,5.62c-1.12,0.94 -3.667,1.667 -7.653,2.188c-0.467,-0.207 -0.733,-0.414 -0.78,-0.621c6.667,-3.619 10,-5.806 10,-6.566l0.153,-0.467l-0.153,-0.153l-1.406,0.467h-0.78c-2.813,0 -4.22,-0.993 -4.22,-2.966V42.23c0.36,-3.233 1.146,-4.847 2.34,-4.847L35.503,37.23L35.503,37.23z" id="path_1"/><path fill="#BF360C" d="M54.043,19.53c0.159,-0.094 0.206,0.053 0.14,0.434c-0.887,2.08 -2.247,3.533 -4.08,4.353l-6.74,3.38c-0.286,-0.079 -0.34,-0.313 -0.16,-0.706c0.9,-1.733 1.514,-2.76 1.841,-3.087L54.043,19.53L54.043,19.53z" id="path_2"/><path fill="#BF360C" d="M51.369,37.677c0.934,0.94 1.82,2.967 2.653,6.093l0.16,2.034c0,3.673 -1.827,6.173 -5.474,7.5l-1.093,0.153l-2.773,0.04l-2.693,-0.04l-0.153,-0.153v-0.16c0.333,-0.36 2.573,-1.453 6.713,-3.28c2.606,-1.479 4.014,-2.786 4.221,-3.906c-1.354,-2.887 -2.027,-4.554 -2.027,-5V40.49C50.902,38.617 51.056,37.677 51.369,37.677L51.369,37.677z" id="path_3"/><path fill="#BF360C" d="M49.77,29.184c1.273,0.207 2.526,0.986 3.746,2.34v0.313c-0.779,2.087 -1.354,3.127 -1.72,3.127c-2.5,-0.86 -3.747,-1.54 -3.747,-2.034C48.049,31.971 48.623,30.717 49.77,29.184z" id="path_4"/></svg>