<svg id="vector" xmlns="http://www.w3.org/2000/svg" width="75" height="67" viewBox="0 0 83 73"><path fill="#009649" d="M46.011,44.966v-0.06c-3.716,-0.337 -5.739,-1.005 -5.739,-2.016v-1.39c0,-1.837 0.312,-3.073 0.932,-3.721c1.23,-1.236 1.95,-1.857 2.17,-1.857v-0.158c-1.753,-1.071 -2.632,-2.519 -2.632,-4.338v-1.083c0.476,-3.716 2.281,-5.58 5.421,-5.58c1.486,0.146 2.836,0.733 4.06,1.772c1.215,1.043 1.832,1.691 1.832,1.95v0.151l-0.473,0.47c-1.599,-0.728 -2.993,-1.091 -4.176,-1.091l-0.894,-0.014c-1.678,0.014 -2.979,0.377 -3.912,1.104c0,1.547 2.115,2.684 6.353,3.404l6.041,-2.016v0.158c0,1.069 -0.416,1.95 -1.242,2.631c-0.462,0.555 -1.389,1.071 -2.783,1.553c-5.229,1.937 -8.276,3.484 -9.143,4.647v0.152c3.821,0.35 5.732,0.919 5.732,1.705l0.118,1.897c0.047,0.542 0.014,1.116 -0.118,1.726H46.011z" id="path_0"/><path fill="#009649" d="M40.722,17.559l2.941,2.016l0.159,0.622v0.151c-1.177,2.162 -1.853,3.246 -2.016,3.26c-1.653,-0.715 -2.791,-1.381 -3.412,-2.017v-0.932c0.418,-0.596 0.675,-1.164 0.773,-1.705C39.433,18.029 39.948,17.559 40.722,17.559z" id="path_1"/><path fill="#009649" d="M55.627,47.345c0.159,-0.087 0.206,0.052 0.14,0.431c-0.879,2.063 -2.229,3.502 -4.045,4.315l-6.684,3.351c-0.284,-0.078 -0.337,-0.309 -0.158,-0.693c0.893,-1.718 1.5,-2.737 1.824,-3.06L55.627,47.345z" id="path_2"/><path fill="#E64A19" d="M47.558,44.893c-0.622,2.156 -2.949,4.237 -6.102,6.828c-1.896,1.35 -4.119,2.017 -6.657,2.017c-1.421,-0.324 -2.44,-0.647 -3.055,-0.965c-0.615,-0.324 -1.348,-1.038 -2.213,-2.136c-1.555,-2.062 -2.327,-3.973 -2.327,-5.73c0,-4.185 1.342,-7.536 4.032,-10.068c0.476,-0.336 0.68,-0.283 0.614,0.152c0,0.376 -0.773,1.823 -2.319,4.336c-0.622,1.257 -0.933,2.446 -0.933,3.564c0,1.605 1.136,3.356 3.41,5.268c1.613,0.893 3.366,1.256 5.27,1.084c2.241,0 5.474,-1.249 8.806,-4.35H47.558z" id="path_3"/><path fill="#E64A19" d="M30.379,25.691h1.533c1.857,0 2.791,0.695 2.791,2.089c-1.204,3.253 -2.665,4.978 -4.383,5.177l-2.029,0.271c-0.325,0 -0.458,-0.093 -0.412,-0.271c1.642,-0.867 3.175,-1.898 4.596,-3.081c-0.503,-0.47 -1.059,-0.7 -1.667,-0.7h-0.429l-1.667,0.139l-0.131,-0.139v-0.271C29.367,26.762 29.969,25.691 30.379,25.691z" id="path_4"/></svg>