<svg id="vector" xmlns="http://www.w3.org/2000/svg" width="75" height="67" viewBox="0 0 83 73"><path fill="#3F51B5" d="M31.297,24.17h1.546c1.874,0 2.813,0.699 2.813,2.106c-1.213,3.28 -2.687,5.02 -4.42,5.22L29.19,31.77c-0.326,0 -0.46,-0.093 -0.413,-0.273c1.653,-0.873 3.2,-1.913 4.634,-3.106c-0.507,-0.474 -1.067,-0.707 -1.681,-0.707h-0.433l-1.681,0.141l-0.133,-0.141V27.41C30.277,25.25 30.883,24.17 31.297,24.17L31.297,24.17z" id="path_0"/><path fill="#3F51B5" d="M38.543,45.657l-1.76,-0.021c-0.974,4.287 -3.554,6.454 -7.733,6.507c-2.24,0.101 -3.36,0.061 -3.36,-0.12c0.207,-0.393 1.707,-1.146 4.494,-2.267c2.866,-1.819 4.593,-2.993 5.193,-3.513l0.159,-0.467l-2.733,-0.434c-1.993,-0.52 -3.113,-1.52 -3.359,-3.007v-0.313c0,-2.526 0.619,-4.14 1.873,-4.847l0.94,-0.152c1.847,0 3.353,1.286 4.526,3.866c0.746,0.26 1.333,0.387 1.76,0.373V45.657L38.543,45.657z" id="path_1"/><path fill="#009688" d="M52.624,20.83c0.16,-0.093 0.207,0.054 0.14,0.434c-0.887,2.08 -2.246,3.533 -4.079,4.354l-6.74,3.38c-0.287,-0.08 -0.34,-0.313 -0.16,-0.707c0.9,-1.732 1.514,-2.76 1.84,-3.086L52.624,20.83L52.624,20.83z" id="path_2"/><path fill="#009688" d="M37.857,41.204v4.453h1.486c1.354,-0.106 6.094,-1.354 14.22,-3.753h0.78l0.627,0.16h0.467c1.173,-2.008 1.8,-3.36 1.873,-4.061l-0.307,-0.474l-4.22,-0.313c-5.6,-2.188 -8.88,-3.281 -9.847,-3.281h-0.78c-2.293,0 -3.7,1.566 -4.22,4.687c0,0.313 0.106,0.474 0.313,0.474l0.466,-0.313c0.5,-1.566 1.434,-2.347 2.813,-2.347c1.021,0 3.414,0.833 7.187,2.5v0.16c-4.14,1.14 -7.159,1.846 -9.06,2.106H37.857L37.857,41.204z" id="path_3"/><path fill="#009688" d="M46.376,45.344c2.187,1.094 3.28,2.033 3.28,2.813c-1.04,2.06 -1.666,3.1 -1.873,3.127H47.47c-1.6,-0.807 -2.594,-1.54 -2.967,-2.187C44.864,47.91 45.49,46.657 46.376,45.344L46.376,45.344z" id="path_4"/></svg>