<svg id="vector" xmlns="http://www.w3.org/2000/svg" width="75" height="67" viewBox="0 0 83 73"><path fill="#00B8D4" d="M45.117,30.062c1.527,0.49 2.717,1.111 3.563,1.858v0.311c0,0.516 -0.562,1.652 -1.699,3.411c-1.058,0 -2.247,-0.568 -3.563,-1.706v-0.31C43.418,32.516 43.986,31.324 45.117,30.062z" id="path_0"/><path fill="#00B8D4" d="M40.701,47.917c4.06,0.039 6.326,-0.721 6.822,-2.287c0,-0.542 -0.515,-1.884 -1.553,-4.026l0.469,-4.025h0.304c1.349,2.32 2.017,4.646 2.017,6.967v1.396c0,0.932 -0.225,1.909 -0.668,2.936c-0.443,1.023 -1.131,1.89 -2.049,2.584c-0.925,0.701 -2.704,0.991 -5.341,0.873V47.917z" id="path_1"/><path fill="#00B8D4" d="M51.391,20.668c0.158,-0.091 0.204,0.053 0.138,0.431c-0.879,2.063 -2.228,3.503 -4.045,4.316L40.8,28.767c-0.284,-0.079 -0.337,-0.311 -0.158,-0.701c0.893,-1.718 1.5,-2.736 1.824,-3.061L51.391,20.668z" id="path_2"/><path fill="#DD2C00" d="M41.032,52.333c-3.007,0.178 -5.196,-1.209 -6.564,-4.165c-0.661,-1.097 -1.276,-8.494 -1.858,-22.191v-0.31c0.384,-2.274 0.953,-3.411 1.699,-3.411l0.78,-0.152c0.952,0 2.4,0.312 4.336,0.925v0.311c-0.106,0.312 -0.416,0.47 -0.932,0.47h-2.631c-0.542,0 -1.058,0.304 -1.554,0.926c0.483,11.892 1.184,18.779 2.116,20.663c0.925,1.886 2.465,2.725 4.607,2.52V52.333z" id="path_3"/></svg>