<svg id="vector" xmlns="http://www.w3.org/2000/svg" width="75" height="67" viewBox="0 0 83 73"><path fill="#213877" d="M53.429,45.095h0.907h0.346h0.885c3.188,-0.232 5.122,-0.968 5.797,-2.197c0,-0.968 -1.109,-3.6 -3.337,-7.912l-0.353,-1.402c-0.383,-1.846 -0.368,-3.541 0.045,-5.078c0.405,-1.537 1.215,-2.603 2.415,-3.188c2.782,-1.875 8.115,-4.98 15.997,-9.314l0.173,0.18v0.345c-1.695,2.67 -2.985,5.13 -3.862,7.388h-0.353l-0.181,-0.877v-0.886l0.181,-0.173v-0.172h-0.181c-6.532,3.771 -10.927,6.532 -13.185,8.258v0.18c2.468,4.98 3.81,8.782 4.05,11.422c0,1.875 -0.645,3.87 -1.935,5.978c-1.23,1.643 -3.69,2.46 -7.388,2.46h-0.022V45.095z" id="path_0"/><path fill="#213877" d="M67.671,13.258c0.181,-0.105 0.232,0.06 0.158,0.487c-0.998,2.34 -2.527,3.975 -4.59,4.897l-7.583,3.802c-0.322,-0.09 -0.383,-0.352 -0.18,-0.795c1.012,-1.949 1.702,-3.104 2.069,-3.473L67.671,13.258z" id="path_1"/><path fill="#D50000" d="M41.706,53.27c0.728,0 2.018,0.878 3.862,2.633c0,0.593 -0.697,1.875 -2.107,3.87h-0.353c-0.734,0 -1.845,-0.705 -3.337,-2.107v-0.18C39.771,56.788 40.416,55.377 41.706,53.27z" id="path_2"/><path fill="#D50000" d="M48.029,52.393c2.932,1.26 4.395,2.25 4.395,2.984c-0.173,0.556 -0.99,1.785 -2.46,3.69c-1.965,-0.758 -3.367,-1.635 -4.215,-2.633C46.364,54.47 47.121,53.121 48.029,52.393z" id="path_3"/><path fill="#D50000" d="M38.602,45.095c1.252,0.016 2.024,-0.008 2.332,-0.067c2.64,-0.803 4.44,-2.513 5.407,-5.115c0.143,-0.502 0.436,-0.563 0.878,-0.18c0.232,0.202 0.412,1.027 0.525,2.46c1.598,2.152 3.593,3.12 5.978,2.902h0.465v5.01h-0.112c-3.735,-0.172 -6.488,-1.875 -8.266,-5.1h-0.173c-1.244,2.625 -2.887,4.237 -4.919,4.838c-0.615,0.172 -1.32,0.262 -2.115,0.262V45.095z" id="path_4"/><path fill="#D50000" d="M45.501,23.757h1.74c2.107,0 3.165,0.788 3.165,2.371c-1.365,3.689 -3.022,5.646 -4.973,5.872l-2.303,0.308c-0.367,0 -0.517,-0.105 -0.465,-0.308c1.86,-0.982 3.601,-2.153 5.213,-3.495c-0.57,-0.533 -1.2,-0.795 -1.89,-0.795h-0.488l-1.89,0.157l-0.149,-0.157v-0.308C44.354,24.972 45.036,23.757 45.501,23.757z" id="path_5"/><path fill="#000001" d="M27.614,26.218c2.182,0.824 3.359,1.529 3.518,2.114v0.878c-0.091,0.848 -0.735,2.018 -1.936,3.518h-0.173c-0.675,-0.593 -1.845,-1.178 -3.518,-1.763l-0.172,-0.878C26.384,27.507 27.148,26.218 27.614,26.218z" id="path_6"/><path fill="#000001" d="M39.239,50.105c-0.721,0.016 -1.485,0.022 -2.311,0.022h-0.172c-1.846,0 -3.548,-0.584 -5.101,-1.755c-3.615,1.522 -7.425,2.28 -11.423,2.28h-2.287c-5.445,0 -9.143,-2.167 -11.07,-6.503l-0.18,-1.582c0.69,-5.04 1.747,-7.561 3.165,-7.561l0.353,0.354c0,0.427 -0.646,1.829 -1.936,4.222v0.173c1.013,3.982 4.703,5.978 11.078,5.978h2.107c2.535,0 4.822,-0.293 6.855,-0.878l-0.525,-2.992c0,-4.447 1.29,-6.676 3.862,-6.676h1.583c2.228,0.525 3.345,1.988 3.345,4.396c-0.24,2.49 -0.532,4.245 -0.885,5.272v0.173h0.18l2.107,0.135c0.442,0 0.854,-0.008 1.253,-0.022V50.105L39.239,50.105zM29.376,41.166c0.42,0.817 1.418,1.694 2.985,2.633l2.813,-1.051v-0.532c-0.75,-1.29 -1.74,-1.935 -2.985,-1.935h-0.353C30.194,40.355 29.376,40.648 29.376,41.166z" id="path_7"/><path fill="#000001" d="M30.052,16.093c0.18,-0.105 0.232,0.06 0.157,0.486c-0.998,2.341 -2.527,3.976 -4.59,4.898l-7.583,3.803c-0.322,-0.09 -0.383,-0.353 -0.18,-0.795c1.012,-1.951 1.702,-3.105 2.07,-3.473L30.052,16.093z" id="path_8"/></svg>