<svg id="vector" xmlns="http://www.w3.org/2000/svg" width="75" height="67" viewBox="0 0 83 73"><path fill="#9e3b21" d="M64.399,33.282c0.703,0 1.929,0.839 3.698,2.523c0,0.559 -0.674,1.791 -2.021,3.689H65.74c-0.695,0 -1.763,-0.673 -3.189,-2.014V37.31C62.551,36.644 63.167,35.296 64.399,33.282z" id="path_0"/><path fill="#9e3b21" d="M70.449,32.444c2.795,1.203 4.199,2.156 4.199,2.852c-0.172,0.531 -0.953,1.713 -2.358,3.526c-1.87,-0.724 -3.218,-1.563 -4.027,-2.516C68.851,34.429 69.581,33.14 70.449,32.444z" id="path_1"/><path fill="#9e3b21" d="M66.414,27.571c2.58,1.066 3.862,1.963 3.862,2.687l-2.179,3.361h-0.172c-0.473,0 -1.763,-0.674 -3.862,-2.014C65.103,28.918 65.884,27.571 66.414,27.571z" id="path_2"/><path fill="#9e3b21" d="M43.91,48.339c2.122,0.015 4.91,-0.25 8.356,-0.781h0.165c2.909,-0.473 5.935,-1.877 9.073,-4.199c0.279,-1.232 0.559,-1.849 0.838,-1.849h0.165c0.423,0.258 0.423,0.981 0,2.186c0.646,2.351 1.764,3.526 3.361,3.526c1.569,0 2.465,-1.283 2.688,-3.863c0,-0.444 0.223,-0.781 0.674,-1.003c0.222,0 0.387,0.559 0.501,1.677c0.703,1.569 1.541,2.422 2.523,2.559h0.337c0.559,0.029 1.003,-0.266 1.34,-0.881l0.086,-2.602c-0.028,-1.62 0.107,-2.438 0.416,-2.438c0.537,0 0.867,1.627 1.01,4.873c-0.143,2.309 -0.702,3.936 -1.677,4.874c-0.423,0.444 -0.981,0.667 -1.684,0.667c-0.53,0.1 -1.039,0.043 -1.534,-0.18c-0.487,-0.215 -0.981,-0.824 -1.49,-1.834c-0.107,-0.416 -0.223,-0.416 -0.337,0c-0.315,0.881 -0.846,1.504 -1.584,1.855c-0.731,0.358 -1.383,0.48 -1.942,0.373c-2.179,-0.215 -3.469,-1.513 -3.862,-3.906c-2.322,1.541 -4.336,2.602 -6.049,3.189c-4.587,1.061 -8.199,1.211 -10.829,0.451s-3.913,-1.404 -3.841,-1.928C40.679,48.575 41.782,48.325 43.91,48.339z" id="path_3"/><path fill="#9e3b21" d="M66.708,12.972c1.72,0 2.58,1.061 2.58,3.175c0,3.368 -2.874,6.242 -8.629,8.607c-0.824,0.251 -0.925,-0.05 -0.294,-0.903c0.158,-0.322 1.512,-1.332 4.07,-3.024v-0.144c-1.104,-0.451 -1.655,-1.411 -1.655,-2.881c0.731,-3.217 1.893,-4.83 3.483,-4.83H66.708L66.708,12.972zM64.143,16.605c0,0.896 0.759,1.448 2.271,1.663h0.294c0.559,0 0.917,-0.209 1.067,-0.609c0,-0.91 -0.659,-1.62 -1.971,-2.121C65.231,15.538 64.68,15.896 64.143,16.605z" id="path_4"/><path fill="#000001" d="M51.715,50.433c0.573,1.024 0.889,1.627 0.946,1.805l0.079,1.369c-0.015,2.423 -0.337,4.093 -0.982,5.018c-0.645,0.924 -1.462,1.391 -2.458,1.404c-2.157,0 -4.394,-1.734 -6.722,-5.203c-0.401,-0.688 -0.796,-1.584 -1.176,-2.688h-1.677c-0.38,0 -0.738,-0.021 -1.09,-0.064v-4.809c0.517,0.114 1.046,0.164 1.591,0.164H40.9c0.925,-3.582 2.494,-6.27 4.701,-8.063c1.147,-0.895 2.215,-1.34 3.196,-1.34c1.513,0 2.408,1.119 2.688,3.361c0.444,2.25 -0.057,4.594 -1.512,7.031L51.715,50.433L51.715,50.433zM44.262,51.966c1.146,2.021 2.823,3.139 5.038,3.361c1.118,-0.101 1.849,-0.488 2.186,-1.176c-0.1,-1.354 -0.881,-2.178 -2.351,-2.465c-1.476,-0.287 -2.651,-0.387 -3.54,-0.287C44.706,51.5 44.262,51.687 44.262,51.966L44.262,51.966zM42.578,46.763c-0.122,0.373 0.042,0.545 0.509,0.502c2.128,0 4.249,-0.953 6.378,-2.853V44.24c-0.473,-1.118 -1.09,-1.677 -1.842,-1.677C45.953,42.349 44.276,43.753 42.578,46.763z" id="path_5"/><path fill="#000001" d="M47.035,23.579c1.72,0 2.58,1.061 2.58,3.174c0,3.369 -2.874,6.242 -8.629,8.607c-0.823,0.251 -0.924,-0.05 -0.293,-0.902c0.157,-0.322 1.512,-1.334 4.07,-3.025V31.29c-1.104,-0.451 -1.655,-1.412 -1.655,-2.881c0.73,-3.219 1.892,-4.83 3.482,-4.83H47.035L47.035,23.579zM44.47,27.212c0,0.896 0.76,1.447 2.271,1.663h0.294c0.56,0 0.918,-0.208 1.068,-0.609c0,-0.91 -0.659,-1.62 -1.971,-2.122C45.559,26.144 45.007,26.503 44.47,27.212z" id="path_6"/><path fill="#213877" d="M39.245,52.052l-1.892,-0.021c-1.047,4.608 -3.82,6.938 -8.313,6.994c-2.408,0.107 -3.612,0.064 -3.612,-0.129c0.223,-0.422 1.835,-1.232 4.83,-2.436c3.082,-1.957 4.938,-3.219 5.583,-3.777l0.172,-0.502l-2.938,-0.466c-2.143,-0.56 -3.347,-1.634 -3.611,-3.231v-0.338c0,-2.716 0.666,-4.45 2.014,-5.21l1.011,-0.165c1.984,0 3.604,1.384 4.866,4.157c0.803,0.279 1.433,0.415 1.892,0.401V52.052z" id="path_7"/><path fill="#213877" d="M31.455,28.954h1.662c2.015,0 3.024,0.752 3.024,2.264c-1.304,3.526 -2.888,5.396 -4.751,5.611l-2.2,0.295c-0.352,0 -0.494,-0.101 -0.444,-0.295c1.777,-0.938 3.439,-2.057 4.98,-3.339c-0.545,-0.509 -1.146,-0.76 -1.806,-0.76h-0.466l-1.807,0.15l-0.143,-0.15v-0.294C30.358,30.114 31.011,28.954 31.455,28.954z" id="path_8"/><path fill="#9e3b21" d="M13.316,36.264c5.712,2.042 8.563,4.565 8.563,7.562l0.173,1.002c-0.48,3.921 -1.771,5.877 -3.87,5.877c0,0.365 -2.795,0.817 -8.393,1.348L9.618,51.55c0,-2.802 0.502,-4.199 1.513,-4.199c5.597,-0.451 8.679,-1.125 9.237,-2.021c-1.928,-1.87 -4.45,-3.383 -7.561,-4.529l-0.165,-0.846C12.729,37.497 12.95,36.264 13.316,36.264z" id="path_9"/><path fill="#f06022" d="M16.506,21.966c1.282,0 2.042,0.854 2.265,2.559v0.467c-0.236,2.852 -1.19,4.715 -2.853,5.582c-2.896,1.82 -5.525,2.73 -7.876,2.73c-0.086,-0.014 -0.165,-0.035 -0.251,-0.064C7.705,33.211 7.64,33.167 7.59,33.11c-0.05,-0.051 -0.043,-0.086 0.015,-0.101c0.122,-0.279 2.236,-1.397 6.335,-3.339V29.52c-1.104,-0.694 -1.655,-1.655 -1.655,-2.874C12.943,23.521 14.349,21.966 16.506,21.966L16.506,21.966zM13.797,25.134v0.143c0,1.04 0.709,1.648 2.121,1.828h0.438c0.537,0 0.838,-0.15 0.902,-0.459c0,-1.411 -0.752,-2.121 -2.265,-2.121C14.198,24.704 13.797,24.911 13.797,25.134z" id="path_10"/><path fill="#f06022" d="M13.188,19.235c0.322,-0.157 0.473,-0.05 0.458,0.316c-1.619,1.791 -2.895,3.489 -3.819,5.102C9.561,25.284 9.41,25.8 9.375,26.216c-0.036,0.416 0.071,0.86 0.329,1.334h0.315c0.122,-0.703 0.373,-1.055 0.753,-1.055c0.451,0.201 0.702,0.402 0.752,0.609v0.294c0.029,1.599 -0.423,2.559 -1.361,2.881H9.41c-1.011,-0.2 -1.512,-1.361 -1.512,-3.489C7.898,24.202 9.661,21.687 13.188,19.235z" id="path_11"/></svg>