<svg id="vector" xmlns="http://www.w3.org/2000/svg" width="75" height="67" viewBox="0 0 83 73"><path fill="#009649" d="M65.437,21.637c2.352,1.176 3.526,2.186 3.526,3.023c-1.118,2.209 -1.792,3.334 -2.014,3.361h-0.337c-1.72,-0.867 -2.787,-1.654 -3.189,-2.35C63.81,24.396 64.483,23.049 65.437,21.637z" id="path_0"/><path fill="#009649" d="M56.278,38.959h1.936c2.042,-0.279 5.288,-1.039 9.738,-2.266v-0.172c-4.057,-1.791 -6.629,-2.688 -7.725,-2.688c-1.484,0 -2.487,0.84 -3.025,2.523l-0.501,0.336c-0.223,0 -0.337,-0.172 -0.337,-0.508c0.559,-3.354 2.07,-5.039 4.536,-5.039h0.839c1.039,0 4.564,1.176 10.585,3.527l4.536,0.336l0.33,0.51c-0.079,0.752 -0.752,2.207 -2.014,4.363h-0.502l-0.674,-0.172h-0.838c-8.736,2.58 -13.832,3.92 -15.287,4.035h-1.598V38.959z" id="path_1"/><path fill="#009649" d="M71.084,11.18c0.173,-0.1 0.223,0.059 0.151,0.467c-0.953,2.236 -2.416,3.799 -4.387,4.68l-7.245,3.633c-0.308,-0.086 -0.365,-0.336 -0.173,-0.76c0.969,-1.863 1.627,-2.967 1.979,-3.316L71.084,11.18z" id="path_2"/><path fill="#213877" d="M48.223,45.596c0.573,0 1.921,0.672 4.035,2.014c0,0.838 -0.674,2.186 -2.021,4.033c-2.688,-0.873 -4.027,-1.654 -4.027,-2.357C46.28,48.662 46.947,47.43 48.223,45.596z" id="path_3"/><path fill="#213877" d="M42.109,38.959c1.197,0.014 1.935,-0.008 2.229,-0.064c2.521,-0.768 4.242,-2.402 5.166,-4.889c0.137,-0.48 0.416,-0.537 0.84,-0.172c0.222,0.193 0.394,0.982 0.501,2.352c1.526,2.057 3.433,2.98 5.712,2.773h0.444v4.787h-0.107c-3.569,-0.164 -6.199,-1.791 -7.897,-4.873h-0.165c-1.189,2.508 -2.759,4.049 -4.701,4.621c-0.588,0.166 -1.262,0.252 -2.021,0.252V38.959z" id="path_4"/><path fill="#213877" d="M55.274,53.105c0.172,-0.094 0.223,0.057 0.15,0.465c-0.953,2.236 -2.414,3.799 -4.386,4.682l-7.245,3.633c-0.309,-0.086 -0.365,-0.338 -0.172,-0.752c0.967,-1.863 1.627,-2.969 1.978,-3.318L55.274,53.105z" id="path_5"/><path fill="#000001" d="M28.364,46.799h0.674c2.207,1.254 3.325,1.984 3.354,2.178c-1.09,2.352 -1.82,3.584 -2.179,3.699c-1.261,0 -2.493,-0.617 -3.698,-1.85C26.737,49.623 27.354,48.283 28.364,46.799z" id="path_6"/><path fill="#000001" d="M34.24,45.953c1.068,0 2.351,0.73 3.863,2.186c0,0.588 -0.724,1.764 -2.187,3.525c-0.838,0 -2.07,-0.559 -3.69,-1.676C32.227,49.006 32.9,47.666 34.24,45.953z" id="path_7"/><path fill="#000001" d="M28.733,33.531h0.044c1.956,0 3.526,-0.666 4.701,-2.014l-0.165,-1.34c0,-1.656 0.337,-2.996 1.004,-4.035c0.308,0 0.76,2.859 1.347,8.564c0.674,3.082 3.018,4.508 7.03,4.285v4.787c-3.92,0.281 -6.65,-1.512 -8.205,-5.375c-0.251,-2.688 -0.531,-4.027 -0.839,-4.027c-0.659,2.545 -2.3,3.885 -4.917,4.006V33.531z" id="path_8"/><path fill="#000001" d="M33.839,13.539h1.663c2.014,0 3.024,0.752 3.024,2.264c-1.305,3.525 -2.889,5.396 -4.752,5.611l-2.2,0.295c-0.351,0 -0.494,-0.102 -0.444,-0.295c1.777,-0.939 3.439,-2.057 4.98,-3.34c-0.545,-0.508 -1.146,-0.76 -1.805,-0.76h-0.467l-1.806,0.15l-0.144,-0.15v-0.293C32.743,14.699 33.396,13.539 33.839,13.539z" id="path_9"/><path fill="#009649" d="M29.249,38.307c-0.15,0.014 -0.309,0.021 -0.459,0.021h-0.846c-1.311,0 -2.207,-0.107 -2.688,-0.338c-0.975,3.77 -2.113,6.078 -3.418,6.924s-4.25,1.563 -8.836,2.15h-0.338c-1.01,-0.115 -1.512,-0.279 -1.512,-0.502c0,-0.338 0.838,-0.73 2.516,-1.176c6.607,-3.023 9.912,-5.209 9.912,-6.551c0,-0.559 -0.781,-1.848 -2.352,-3.861c-0.337,-0.566 -0.502,-1.291 -0.502,-2.188v-1.676c0,-0.846 0.165,-1.291 0.502,-1.348c1.455,2.229 3.92,3.469 7.389,3.734c0.215,0 0.424,0 0.631,-0.016V38.307z" id="path_10"/><path fill="#f06022" d="M24.472,18.361l0.172,0.15v0.459c-0.873,1.863 -2.085,3.168 -3.633,3.928c-4.816,2.615 -7.489,3.928 -8.02,3.928c-0.201,0 -0.301,-0.158 -0.301,-0.467c0.466,-1.777 1.477,-2.98 3.023,-3.611l8.615,-4.387H24.472z" id="path_11"/><path fill="#f06022" d="M23.275,14.584c0.194,0 0.294,0.145 0.294,0.438c-0.559,1.627 -2.215,3.09 -4.974,4.395l-6.364,3.482l-0.143,-0.15v-0.166c0.602,-2.127 1.555,-3.439 2.873,-3.926l7.096,-3.635L23.275,14.584z" id="path_12"/><path fill="#009649" d="M7.321,11.115c0.337,0 0.674,1.125 1.011,3.361l1.513,3.361l-0.674,3.863l0.501,9.41v1.504c-0.222,3.842 -0.78,6.078 -1.677,6.723L7.83,39.174l0.165,-2.523c0,-2.264 -0.73,-9.488 -2.186,-21.664C6.512,12.406 7.013,11.115 7.321,11.115z" id="path_13"/></svg>