<svg id="vector" xmlns="http://www.w3.org/2000/svg" width="75" height="67" viewBox="0 0 83 73"><path fill="#213877" d="M58.104,45.659c0.229,0 0.467,0 0.717,0h0.172c2.093,-0.129 4,-1.87 5.705,-5.225c1.85,-2.802 3.756,-4.199 5.711,-4.199c2.466,0 3.699,1.563 3.699,4.701v0.838c0,1.541 -0.617,3.555 -1.85,6.049l-1.176,0.84c-1.039,0 -3.439,-0.732 -7.224,-2.187c-1.146,1.72 -2.042,2.767 -2.688,3.132c-0.981,0.681 -1.985,0.967 -3.024,0.838h-0.043V45.659L58.104,45.659zM66.548,42.112v0.164c2.909,1.125 4.65,1.685 5.209,1.685c0.223,0 0.337,-0.172 0.337,-0.509c-0.645,-1.678 -1.712,-2.516 -3.196,-2.516C67.866,40.937 67.077,41.331 66.548,42.112z" id="path_0"/><path fill="#213877" d="M71.965,23.07c0.173,-0.101 0.223,0.058 0.15,0.466c-0.952,2.236 -2.415,3.799 -4.386,4.68l-7.246,3.633c-0.308,-0.086 -0.365,-0.336 -0.172,-0.759c0.968,-1.863 1.627,-2.968 1.979,-3.318L71.965,23.07z" id="path_1"/><path fill="#000001" d="M41.313,45.659c1.863,0.158 3.447,-0.028 4.766,-0.545l-0.695,-1.261c-0.652,-3.698 -0.357,-6.142 0.882,-7.339c1.247,-1.197 2.587,-1.748 4.013,-1.648c2.773,0.129 4.336,1.584 4.702,4.365v1.01c0,2.322 -0.337,3.777 -1.003,4.365c-0.424,0.437 0.529,0.803 2.852,1.096l0.545,-0.021c0.423,-0.014 0.902,-0.021 1.447,-0.021v4.787l-1.698,0.021c-3.16,-0.014 -5.554,-0.415 -7.181,-1.196c-2.236,0.781 -3.978,1.175 -5.203,1.175h-0.674c-0.838,0 -1.756,0 -2.752,0V45.659L41.313,45.659zM47.255,40.915v0.337c0.702,1.204 1.763,2.042 3.189,2.516c0.953,-0.165 1.906,-0.56 2.859,-1.175c-0.424,-1.57 -1.82,-2.467 -4.2,-2.688C47.871,40.241 47.255,40.578 47.255,40.915z" id="path_2"/><path fill="#000001" d="M48.265,26.64c1.455,0 2.795,0.895 4.028,2.688c-1.032,2.351 -1.821,3.525 -2.351,3.525c-2.266,-1.117 -3.498,-1.849 -3.698,-2.186C46.244,29.606 46.918,28.259 48.265,26.64z" id="path_3"/><path fill="#000001" d="M54.393,14.857c0.172,-0.101 0.222,0.058 0.15,0.466c-0.953,2.236 -2.415,3.799 -4.386,4.68l-7.246,3.633c-0.308,-0.086 -0.365,-0.336 -0.172,-0.76c0.968,-1.863 1.627,-2.967 1.979,-3.317L54.393,14.857z" id="path_4"/><path fill="#9e3b21" d="M41.457,50.446c-3.261,0.194 -5.634,-1.311 -7.116,-4.515c-0.717,-1.189 -1.384,-9.209 -2.014,-24.059v-0.337c0.415,-2.465 1.031,-3.697 1.841,-3.697l0.847,-0.165c1.031,0 2.601,0.337 4.701,1.003v0.338c-0.115,0.336 -0.452,0.508 -1.012,0.508h-2.852c-0.588,0 -1.146,0.33 -1.685,1.004c0.523,12.893 1.283,20.359 2.294,22.402c1.003,2.043 2.673,2.953 4.995,2.73V50.446z" id="path_5"/><path fill="#000001" d="M22.78,32.036c1.369,0.222 2.717,1.061 4.027,2.516v0.336c-0.838,2.243 -1.455,3.361 -1.849,3.361c-2.688,-0.924 -4.027,-1.655 -4.027,-2.186C20.932,35.031 21.548,33.685 22.78,32.036z" id="path_6"/><path fill="#000001" d="M24.501,41.166c1.003,1.011 1.956,3.188 2.852,6.55l0.172,2.187c0,3.948 -1.963,6.636 -5.883,8.062l-1.176,0.166l-2.981,0.043l-2.896,-0.043l-0.164,-0.166v-0.172c0.357,-0.387 2.766,-1.562 7.217,-3.525c2.801,-1.591 4.313,-2.996 4.536,-4.199c-1.455,-3.104 -2.179,-4.896 -2.179,-5.375V44.19C23.999,42.177 24.163,41.166 24.501,41.166z" id="path_7"/><path fill="#f06022" d="M28.191,21.974l0.172,0.15v0.459c-0.874,1.863 -2.085,3.168 -3.634,3.928c-4.816,2.615 -7.488,3.927 -8.02,3.927c-0.2,0 -0.301,-0.157 -0.301,-0.466c0.466,-1.777 1.477,-2.981 3.024,-3.611l8.614,-4.387H28.191z" id="path_8"/><path fill="#f06022" d="M26.995,18.196c0.193,0 0.293,0.145 0.293,0.438c-0.559,1.627 -2.215,3.089 -4.973,4.394l-6.365,3.483l-0.143,-0.15v-0.166c0.602,-2.128 1.555,-3.439 2.873,-3.927l7.096,-3.634L26.995,18.196z" id="path_9"/><path fill="#9e3b21" d="M10.403,22.225c0.337,0 0.674,1.125 1.011,3.361l1.513,3.36l-0.674,3.863l0.501,9.41v1.505c-0.222,3.841 -0.78,6.077 -1.677,6.722l-0.164,-0.164l0.164,-2.523c0,-2.264 -0.73,-9.488 -2.186,-21.664C9.594,23.515 10.096,22.225 10.403,22.225z" id="path_10"/></svg>