<svg id="vector" xmlns="http://www.w3.org/2000/svg" width="75" height="67" viewBox="0 0 83 73"><path fill="#000001" d="M55.585,47.595h2.025c2.137,-0.292 5.535,-1.087 10.192,-2.37v-0.18c-4.245,-1.875 -6.938,-2.813 -8.085,-2.813c-1.553,0 -2.603,0.878 -3.165,2.64l-0.525,0.353c-0.232,0 -0.353,-0.18 -0.353,-0.532c0.585,-3.51 2.168,-5.272 4.748,-5.272H61.3c1.088,0 4.777,1.23 11.077,3.69l4.748,0.353l0.345,0.532c-0.082,0.787 -0.787,2.31 -2.107,4.567h-0.524l-0.706,-0.18h-0.877c-9.143,2.7 -14.475,4.103 -15.997,4.223h-1.673V47.595z" id="path_0"/><path fill="#000001" d="M72.393,24.675c0.18,-0.104 0.232,0.06 0.157,0.487c-0.997,2.34 -2.527,3.976 -4.59,4.897l-7.582,3.803c-0.322,-0.09 -0.383,-0.353 -0.181,-0.795c1.013,-1.95 1.703,-3.104 2.07,-3.473L72.393,24.675z" id="path_1"/><path fill="#000001" d="M55.96,52.606c-3.412,0.202 -5.895,-1.373 -7.447,-4.726c-0.75,-1.245 -1.447,-9.638 -2.107,-25.177V22.35c0.435,-2.58 1.08,-3.869 1.928,-3.869l0.885,-0.173c1.08,0 2.723,0.353 4.92,1.05v0.353c-0.12,0.353 -0.473,0.532 -1.058,0.532h-2.985c-0.614,0 -1.199,0.346 -1.762,1.05c0.547,13.493 1.342,21.309 2.399,23.445c1.05,2.138 2.798,3.09 5.228,2.857V52.606z" id="path_2"/><path fill="#213877" d="M34.314,25.403c1.726,0.556 3.075,1.261 4.043,2.107v0.353c0,0.585 -0.645,1.875 -1.935,3.87c-1.2,0 -2.551,-0.645 -4.043,-1.935v-0.353C32.38,28.186 33.025,26.835 34.314,25.403z" id="path_3"/><path fill="#213877" d="M20.8,52.576c-2.152,-0.083 -3.93,-0.683 -5.325,-1.808c-1.402,-1.117 3.135,-1.793 13.613,-2.032c8.145,-0.953 12.3,-2.063 12.479,-3.338l-0.532,-1.582c-0.772,0.705 -1.71,1.057 -2.813,1.057c-3.165,-0.547 -4.74,-1.89 -4.74,-4.042c0.157,-3.39 0.976,-5.265 2.46,-5.625l0.878,-0.18h0.705c3.142,0 5.077,3.225 5.797,9.667c-0.157,2.902 -1.447,4.838 -3.87,5.805c-1.567,0.743 -3.847,1.328 -6.854,1.756C26.89,52.545 22.952,52.651 20.8,52.576z" id="path_4"/><path fill="#213877" d="M44.088,54.098c0.18,-0.098 0.232,0.06 0.157,0.487c-0.998,2.34 -2.527,3.975 -4.59,4.897l-7.583,3.803c-0.322,-0.09 -0.382,-0.353 -0.18,-0.787c1.013,-1.95 1.702,-3.105 2.07,-3.473L44.088,54.098z" id="path_5"/><path fill="#009649" d="M20.455,26.873c1.433,0.24 2.843,1.118 4.215,2.641v0.353c-0.878,2.34 -1.522,3.51 -1.935,3.51c-2.813,-0.96 -4.215,-1.725 -4.215,-2.28C18.521,30.008 19.165,28.605 20.455,26.873z" id="path_6"/><path fill="#009649" d="M13.27,22.021h0.346c0.383,0.585 1.147,2.52 2.287,5.797l-1.05,4.396l0.525,8.438l-0.353,1.41h0.172c2.085,-2.229 4.591,-3.346 7.516,-3.346h0.18c3.015,0 4.777,1.41 5.272,4.223c0,4.103 -1.643,6.915 -4.92,8.438c0,0.435 -3.915,0.848 -11.737,1.23L5.53,52.081v-0.532c0,-0.465 1.822,-1.11 5.452,-1.928l2.46,-5.625v-2.468l-1.229,-15.292C12.213,25.59 12.565,24.188 13.27,22.021L13.27,22.021zM13.442,48.916c6.271,-0.705 10.178,-1.41 11.73,-2.107l1.237,-0.885c-1.207,-1.756 -2.963,-2.633 -5.28,-2.633h-1.71c-1.755,0 -3.63,1.522 -5.625,4.567L13.442,48.916z" id="path_7"/><path fill="#f06022" d="M24.978,12.646c1.343,0 2.138,0.893 2.37,2.678v0.487c-0.248,2.984 -1.245,4.935 -2.985,5.843c-3.029,1.904 -5.782,2.857 -8.242,2.857c-0.09,-0.016 -0.173,-0.038 -0.263,-0.068c-0.09,-0.029 -0.157,-0.074 -0.21,-0.135c-0.053,-0.052 -0.045,-0.09 0.015,-0.104c0.128,-0.293 2.34,-1.463 6.63,-3.495v-0.157c-1.154,-0.728 -1.731,-1.733 -1.731,-3.008C21.25,14.274 22.72,12.646 24.978,12.646L24.978,12.646zM22.143,15.96v0.15c0,1.087 0.742,1.725 2.22,1.912h0.458c0.563,0 0.877,-0.157 0.944,-0.479c0,-1.478 -0.787,-2.22 -2.369,-2.22C22.563,15.511 22.143,15.728 22.143,15.96z" id="path_8"/><path fill="#f06022" d="M21.505,9.789c0.338,-0.165 0.495,-0.053 0.48,0.33c-1.695,1.875 -3.03,3.652 -3.998,5.34c-0.277,0.66 -0.435,1.2 -0.473,1.635c-0.037,0.435 0.075,0.9 0.346,1.396h0.33c0.127,-0.735 0.39,-1.103 0.787,-1.103c0.473,0.21 0.735,0.42 0.787,0.637v0.308c0.03,1.673 -0.442,2.678 -1.425,3.016h-0.787c-1.058,-0.21 -1.583,-1.425 -1.583,-3.652C15.97,14.986 17.815,12.353 21.505,9.789z" id="path_9"/></svg>