<svg id="vector" xmlns="http://www.w3.org/2000/svg" width="75" height="67" viewBox="0 0 83 73"><path fill="#000001" d="M53.705,50.366c0.229,0 0.465,0 0.717,0h0.172c2.092,-0.129 3.998,-1.871 5.705,-5.225c1.848,-2.803 3.754,-4.2 5.711,-4.2c2.465,0 3.697,1.563 3.697,4.702v0.838c0,1.541 -0.615,3.555 -1.848,6.049l-1.176,0.838c-1.039,0 -3.439,-0.73 -7.225,-2.186c-1.146,1.721 -2.041,2.767 -2.688,3.132c-0.98,0.681 -1.984,0.968 -3.023,0.839h-0.043V50.366L53.705,50.366zM62.146,46.818v0.165c2.91,1.125 4.652,1.684 5.211,1.684c0.223,0 0.336,-0.172 0.336,-0.509c-0.645,-1.677 -1.713,-2.515 -3.195,-2.515C63.465,45.644 62.678,46.037 62.146,46.818z" id="path_0"/><path fill="#000001" d="M67.564,27.776c0.172,-0.1 0.223,0.058 0.15,0.467c-0.953,2.235 -2.414,3.798 -4.385,4.68l-7.246,3.633c-0.309,-0.086 -0.365,-0.337 -0.172,-0.76c0.967,-1.863 1.627,-2.967 1.979,-3.318L67.564,27.776z" id="path_1"/><path fill="#213877" d="M42.504,36.491c0.693,0 1.928,0.838 3.689,2.516c0,0.559 -0.666,1.791 -2.014,3.697h-0.336c-0.703,0 -1.764,-0.674 -3.189,-2.021v-0.165C40.654,39.845 41.27,38.505 42.504,36.491z" id="path_2"/><path fill="#213877" d="M48.545,35.646c2.803,1.204 4.199,2.157 4.199,2.859c-0.164,0.53 -0.945,1.705 -2.35,3.525c-1.879,-0.73 -3.219,-1.568 -4.029,-2.521C46.953,37.638 47.678,36.348 48.545,35.646z" id="path_3"/><path fill="#213877" d="M39.535,50.366c1.197,0.014 1.936,-0.008 2.23,-0.064c2.521,-0.768 4.242,-2.401 5.166,-4.889c0.137,-0.479 0.416,-0.537 0.84,-0.172c0.221,0.193 0.393,0.982 0.5,2.352c1.527,2.057 3.434,2.98 5.713,2.773h0.443v4.787H54.32c-3.568,-0.165 -6.199,-1.792 -7.896,-4.873h-0.166c-1.189,2.508 -2.758,4.049 -4.701,4.622c-0.588,0.165 -1.262,0.251 -2.021,0.251V50.366z" id="path_4"/><path fill="#f06022" d="M39.93,55.153c-0.107,0 -0.223,0 -0.33,0h-1.512c-1.512,0 -3.254,-0.953 -5.209,-2.853c-3.361,1.842 -6.988,2.795 -10.879,2.853v-4.766c2.035,0.136 4.65,-0.287 7.854,-1.283v-0.165c-1.541,-1.011 -2.996,-1.512 -4.363,-1.512l-1.348,0.165l-0.338,-0.839c0.451,-3.024 1.742,-4.536 3.863,-4.536l2.688,-0.165c4.258,0.501 6.385,1.454 6.385,2.853v0.674l-1.01,3.36c0.816,0.989 2.215,1.47 4.199,1.427V55.153z" id="path_5"/><path fill="#f06022" d="M36.697,28.192l0.174,0.15v0.459c-0.875,1.863 -2.086,3.168 -3.635,3.928c-4.816,2.615 -7.488,3.926 -8.02,3.926c-0.201,0 -0.301,-0.156 -0.301,-0.465c0.467,-1.777 1.477,-2.981 3.023,-3.612l8.615,-4.386H36.697z" id="path_6"/><path fill="#f06022" d="M35.502,24.415c0.193,0 0.293,0.145 0.293,0.438c-0.559,1.627 -2.215,3.089 -4.973,4.394l-6.365,3.483l-0.143,-0.151v-0.165c0.602,-2.129 1.555,-3.439 2.873,-3.927l7.096,-3.634L35.502,24.415z" id="path_7"/><path fill="#00BFA5" d="M22.422,55.153c-3.26,0.193 -5.633,-1.312 -7.117,-4.516c-0.715,-1.189 -1.383,-9.209 -2.014,-24.059v-0.336c0.416,-2.466 1.033,-3.698 1.842,-3.698l0.846,-0.165c1.033,0 2.602,0.337 4.701,1.004v0.336c-0.113,0.338 -0.451,0.51 -1.01,0.51h-2.852c-0.588,0 -1.146,0.33 -1.686,1.003c0.523,12.893 1.283,20.36 2.295,22.403c1.002,2.042 2.672,2.952 4.994,2.73V55.153z" id="path_8"/><path fill="#213877" d="M46.014,17.815c1.41,2.4 2.115,4.748 2.115,7.027c-0.615,4.336 -1.381,6.503 -2.287,6.503l-0.174,-0.173v-0.172l0.346,-2.287v-0.181c0,-1.402 -0.584,-3.511 -1.754,-6.323v-0.352C44.844,19.158 45.43,17.815 46.014,17.815z" id="path_9"/></svg>