<svg id="vector" xmlns="http://www.w3.org/2000/svg" width="75" height="67" viewBox="0 0 83 73"><path fill="#213877" d="M67.702,50.346c0.701,0 1.936,0.846 3.697,2.522c0,0.56 -0.674,1.792 -2.021,3.698H69.05c-0.703,0 -1.771,-0.674 -3.197,-2.021v-0.165C65.853,53.707 66.47,52.367 67.702,50.346z" id="path_0"/><path fill="#213877" d="M73.751,49.507c2.795,1.205 4.199,2.157 4.199,2.86c-0.172,0.53 -0.953,1.705 -2.35,3.525c-1.879,-0.73 -3.227,-1.569 -4.035,-2.522C72.153,51.5 72.884,50.21 73.751,49.507z" id="path_1"/><path fill="#213877" d="M68.44,41.553c0.137,0 0.344,0 0.631,0h0.709c1.791,0 2.938,-0.452 3.447,-1.348v-0.337c-0.846,-2.938 -2.078,-5.611 -3.699,-8.02c0.195,-2.572 0.475,-3.862 0.84,-3.862c0.982,0.788 2.271,3.583 3.863,8.399l0.172,2.186v1.512c-0.539,4.143 -2.129,6.214 -4.787,6.214h-0.545c-0.301,0 -0.51,0.015 -0.631,0.043V41.553z" id="path_2"/><path fill="#213877" d="M76.688,16.254c0.172,-0.101 0.223,0.058 0.15,0.466c-0.953,2.236 -2.414,3.799 -4.385,4.68l-7.246,3.634c-0.309,-0.086 -0.365,-0.337 -0.172,-0.76c0.967,-1.863 1.627,-2.967 1.979,-3.318L76.688,16.254z" id="path_3"/><path fill="#9e3b21" d="M68.856,46.297c-0.266,0 -0.588,0 -0.969,0c-1.496,-0.015 -3.109,-1.14 -4.852,-3.383c-0.666,2.466 -1.842,3.698 -3.525,3.698h-0.164c-1.428,0 -2.602,-0.839 -3.527,-2.522h-0.172c-1.002,2.021 -2.221,2.938 -3.654,2.751c-2.658,0.015 -4.236,-1.239 -4.744,-3.755c-1.871,2.193 -3.885,3.269 -6.027,3.211h-0.273V41.51h0.086c3.391,-0.115 5.906,-1.269 7.563,-3.462c0.221,0 0.336,0.165 0.336,0.502l-0.172,1.175c0.896,1.792 2.07,2.688 3.525,2.688c1.377,0 2.773,-1.34 4.199,-4.027h0.174l0.5,0.502v1.175c0,1.061 0.789,1.677 2.352,1.85h0.336c1.455,0 2.803,-1.455 4.035,-4.372h0.166c0.221,0 0.336,0.509 0.336,1.513c0.617,1.698 2.107,2.515 4.473,2.458V46.297z" id="path_4"/><path fill="#9e3b21" d="M61.761,50.554c0.172,-0.094 0.223,0.057 0.15,0.466c-0.953,2.236 -2.414,3.798 -4.385,4.68l-7.246,3.634c-0.309,-0.086 -0.365,-0.337 -0.172,-0.753c0.967,-1.863 1.627,-2.967 1.979,-3.318L61.761,50.554z" id="path_5"/><path fill="#000001" d="M27.604,49.35h0.674c2.207,1.254 3.326,1.985 3.354,2.179c-1.09,2.351 -1.82,3.583 -2.178,3.698c-1.262,0 -2.494,-0.616 -3.699,-1.849C25.978,52.173 26.595,50.833 27.604,49.35z" id="path_6"/><path fill="#000001" d="M33.481,48.504c1.068,0 2.35,0.731 3.863,2.186c0,0.588 -0.725,1.764 -2.186,3.526c-0.84,0 -2.072,-0.559 -3.691,-1.677C31.468,51.557 32.142,50.217 33.481,48.504z" id="path_7"/><path fill="#000001" d="M27.226,35.927h0.043c1.955,0 3.525,-0.667 4.701,-2.014l-0.166,-1.341c0,-1.655 0.338,-2.995 1.004,-4.034c0.309,0 0.76,2.859 1.348,8.564c0.674,3.081 3.018,4.507 7.029,4.285v4.787c-3.92,0.279 -6.65,-1.513 -8.205,-5.375c-0.25,-2.688 -0.529,-4.027 -0.838,-4.027c-0.66,2.544 -2.301,3.884 -4.916,4.006V35.927z" id="path_8"/><path fill="#000001" d="M33.079,16.089h1.664c2.014,0 3.023,0.753 3.023,2.265c-1.305,3.526 -2.889,5.397 -4.752,5.612l-2.199,0.293c-0.352,0 -0.494,-0.1 -0.445,-0.293c1.777,-0.939 3.441,-2.058 4.982,-3.34c-0.545,-0.51 -1.148,-0.76 -1.807,-0.76h-0.467l-1.805,0.15l-0.145,-0.15v-0.295C31.983,17.25 32.636,16.089 33.079,16.089z" id="path_9"/><path fill="#009649" d="M27.489,40.857c-0.15,0.015 -0.309,0.021 -0.459,0.021h-0.846c-1.311,0 -2.207,-0.107 -2.688,-0.337c-0.975,3.77 -2.113,6.077 -3.418,6.923s-4.25,1.563 -8.836,2.15h-0.338c-1.01,-0.115 -1.512,-0.28 -1.512,-0.502c0,-0.337 0.84,-0.731 2.516,-1.176c6.607,-3.024 9.912,-5.21 9.912,-6.55c0,-0.56 -0.781,-1.85 -2.352,-3.863c-0.336,-0.565 -0.502,-1.29 -0.502,-2.186v-1.677c0,-0.846 0.166,-1.29 0.502,-1.348c1.455,2.229 3.92,3.469 7.389,3.734c0.215,0 0.424,0 0.631,-0.015V40.857z" id="path_10"/><path fill="#f06022" d="M23.714,20.913l0.172,0.15v0.458c-0.875,1.863 -2.086,3.168 -3.635,3.928c-4.816,2.615 -7.488,3.927 -8.02,3.927c-0.199,0 -0.301,-0.157 -0.301,-0.466c0.467,-1.777 1.477,-2.98 3.025,-3.611l8.613,-4.386H23.714z" id="path_11"/><path fill="#f06022" d="M22.517,17.136c0.193,0 0.293,0.144 0.293,0.438c-0.559,1.627 -2.215,3.088 -4.973,4.393l-6.365,3.483l-0.143,-0.15v-0.165c0.602,-2.129 1.555,-3.439 2.873,-3.928l7.096,-3.633L22.517,17.136z" id="path_12"/><path fill="#009649" d="M6.562,13.667c0.338,0 0.674,1.125 1.012,3.361l1.512,3.361l-0.674,3.862l0.502,9.41v1.505c-0.223,3.842 -0.781,6.077 -1.678,6.723l-0.164,-0.165l0.164,-2.522c0,-2.265 -0.73,-9.489 -2.186,-21.665C5.753,14.957 6.255,13.667 6.562,13.667z" id="path_13"/></svg>