<svg id="vector" xmlns="http://www.w3.org/2000/svg" width="75" height="67" viewBox="0 0 83 73"><path fill="#DD2C00" d="M23.836,18.836c1.324,2.254 1.986,4.458 1.986,6.6c-0.576,4.071 -1.295,6.106 -2.148,6.106l-0.16,-0.162v-0.162l0.322,-2.148V28.9c0,-1.317 -0.549,-3.296 -1.646,-5.938v-0.331C22.738,20.097 23.287,18.836 23.836,18.836z" id="path_0"/><path fill="#000001" d="M46.439,36.979h0.66c1.932,0 3.361,1.647 4.297,4.951l0.162,1.647c0.057,0.535 0.057,1.085 0,1.655c-0.492,2.008 -1.598,3.986 -3.303,5.938c-1.184,0.993 -3.873,1.761 -8.086,2.31c-0.492,-0.218 -0.775,-0.437 -0.824,-0.654c7.043,-3.824 10.564,-6.135 10.564,-6.938l0.162,-0.493l-0.162,-0.162l-1.484,0.493H47.6c-2.971,0 -4.457,-1.05 -4.457,-3.135v-0.331c0.381,-3.415 1.211,-5.12 2.473,-5.12L46.439,36.979z" id="path_1"/><path fill="#000001" d="M50.813,23.604c0.168,-0.099 0.219,0.056 0.148,0.457c-0.938,2.198 -2.375,3.733 -4.311,4.6l-7.121,3.57c-0.303,-0.084 -0.359,-0.331 -0.17,-0.746c0.951,-1.831 1.6,-2.916 1.945,-3.261L50.813,23.604z" id="path_2"/><path fill="#DD2C00" d="M34.459,28.245c1.057,-0.091 1.605,0.184 1.646,0.831v0.986c-0.273,2.642 -0.549,3.966 -0.822,3.966h-0.17c-0.205,-0.775 -0.867,-1.155 -1.979,-1.155c-2.283,0 -4.705,1.704 -7.262,5.113v0.331c0,0.549 1.873,1.049 5.613,1.485c0.986,0.966 1.486,2.008 1.486,3.135c0,3.113 -2.754,6.466 -8.256,10.071c-1.43,0.769 -2.859,1.155 -4.295,1.155c-3.77,0 -6.459,-2.311 -8.086,-6.93c-0.521,-1.613 -0.57,-3.86 -0.141,-6.741c0.422,-2.88 1.697,-4.662 3.816,-5.353l0.289,0.042c0.408,0.219 0.113,0.846 -0.9,1.888c-1.008,1.035 -1.648,2.388 -1.91,4.057v1.317c0,2.642 1.43,4.79 4.289,6.438c0.994,0.443 2.043,0.662 3.143,0.662h0.662c3.189,0 6.381,-1.543 9.57,-4.62l-5.119,-1.155c-0.881,-0.585 -1.318,-1.353 -1.318,-2.317v-1.979c0.043,-3.028 1.473,-5.781 4.291,-8.275C30.057,30.112 31.867,29.126 34.459,28.245z" id="path_3"/><path fill="#00B8D4" d="M55.252,18.836c0.33,0 0.662,1.105 0.992,3.303l1.486,3.304l-0.662,3.796l0.494,9.248v1.479c-0.219,3.775 -0.768,5.973 -1.648,6.607l-0.162,-0.163l0.162,-2.479c0,-2.226 -0.719,-9.325 -2.148,-21.292C54.455,20.104 54.949,18.836 55.252,18.836z" id="path_4"/><path fill="#00B8D4" d="M70.916,25.231c0.168,-0.099 0.219,0.056 0.146,0.457c-0.936,2.198 -2.373,3.733 -4.309,4.6l-7.121,3.571c-0.303,-0.085 -0.359,-0.331 -0.17,-0.747c0.951,-1.831 1.6,-2.916 1.945,-3.261L70.916,25.231z" id="path_5"/><path fill="#00B8D4" d="M64.967,35.954c1.521,0 3.057,0.761 4.6,2.289c0.148,0.261 0.092,0.465 -0.176,0.62c-0.268,0.147 -0.514,0.112 -0.732,-0.106c-0.662,-0.591 -1.6,-0.887 -2.811,-0.887h-0.514c-0.508,0 -1.1,0.218 -1.775,0.641c0,1.239 1.486,2 4.459,2.289l2.951,-1.155l0.125,0.395c0,1.388 -1.711,2.627 -5.119,3.712l-4.727,2.684l-0.492,0.126c-0.191,0.043 -0.324,-0.042 -0.395,-0.246c0,-0.747 1.07,-1.768 3.197,-3.078v-0.127c-1.027,-0.563 -1.543,-1.373 -1.543,-2.43C62.496,37.524 63.48,35.954 64.967,35.954z" id="path_6"/></svg>