<svg id="vector" xmlns="http://www.w3.org/2000/svg" width="75" height="67" viewBox="0 0 83 73"><path fill="#000001" d="M68.543,17.785c1.732,0.555 3.084,1.26 4.043,2.107v0.353c0,0.585 -0.637,1.875 -1.928,3.87c-1.199,0 -2.549,-0.646 -4.043,-1.936v-0.353C66.615,20.567 67.262,19.216 68.543,17.785z" id="path_0"/><path fill="#000001" d="M63.533,38.042c4.605,0.045 7.178,-0.817 7.74,-2.595c0,-0.615 -0.584,-2.138 -1.762,-4.567l0.531,-4.567h0.346c1.529,2.633 2.287,5.272 2.287,7.905v1.582c0,1.058 -0.254,2.168 -0.758,3.33c-0.502,1.162 -1.281,2.145 -2.324,2.933c-1.051,0.795 -3.068,1.125 -6.061,0.99V38.042z" id="path_1"/><path fill="#000001" d="M75.662,7.126c0.18,-0.104 0.232,0.061 0.156,0.487c-0.998,2.341 -2.527,3.976 -4.59,4.898l-7.582,3.802c-0.322,-0.09 -0.383,-0.352 -0.18,-0.795c1.012,-1.95 1.701,-3.104 2.07,-3.473L75.662,7.126z" id="path_2"/><path fill="#FF6D00" d="M63.908,43.052c-3.412,0.202 -5.895,-1.373 -7.447,-4.726c-0.75,-1.245 -1.447,-9.638 -2.107,-25.178v-0.353c0.436,-2.58 1.08,-3.869 1.928,-3.869l0.885,-0.173c1.08,0 2.723,0.353 4.92,1.05v0.353c-0.119,0.353 -0.473,0.532 -1.057,0.532h-2.986c-0.613,0 -1.199,0.346 -1.762,1.05c0.547,13.493 1.342,21.309 2.4,23.445c1.049,2.138 2.797,3.09 5.227,2.857V43.052z" id="path_3"/><path fill="#009649" d="M25.869,36.947h0.682c2.318,-0.247 4.268,-1.65 5.85,-4.2c0.232,-0.524 0.467,-0.817 0.699,-0.877h0.18l0.525,0.532c-0.076,0.667 -0.188,1.14 -0.354,1.402c1.027,1.875 2.258,2.813 3.689,2.813l0.182,0.173c2.549,-5.625 5.414,-8.438 8.609,-8.438c2.551,0 4.424,1.058 5.625,3.165v1.058c0,6.442 -3.982,9.667 -11.955,9.667l-2.633,-0.173c-0.818,2.221 -1.35,3.338 -1.582,3.338l-0.174,-0.173v-0.18l0.525,-2.985v-0.353c-1.732,-0.967 -3.074,-2.317 -4.041,-4.042c-0.908,2.97 -2.852,4.402 -5.828,4.282V36.947L25.869,36.947zM39.076,37.142h0.354c3.982,0 7.379,-0.585 10.191,-1.755c0,-1.261 -1.17,-2.138 -3.51,-2.641h-0.705C42.594,32.747 40.486,34.217 39.076,37.142z" id="path_4"/><path fill="#009649" d="M46.045,46.344c0.18,-0.098 0.23,0.061 0.156,0.487c-0.998,2.34 -2.527,3.976 -4.59,4.897l-7.582,3.803c-0.322,-0.09 -0.383,-0.353 -0.18,-0.787c1.012,-1.95 1.701,-3.105 2.068,-3.473L46.045,46.344z" id="path_5"/><path fill="#00B8D4" d="M26.086,41.972c-0.158,0.015 -0.322,0.022 -0.48,0.022h-0.885c-1.373,0 -2.309,-0.113 -2.813,-0.353c-1.02,3.944 -2.213,6.36 -3.576,7.245c-1.365,0.885 -4.449,1.635 -9.248,2.25H8.73c-1.057,-0.12 -1.582,-0.293 -1.582,-0.525c0,-0.353 0.877,-0.765 2.633,-1.229c6.914,-3.166 10.373,-5.453 10.373,-6.855c0,-0.585 -0.818,-1.935 -2.461,-4.042c-0.352,-0.593 -0.525,-1.351 -0.525,-2.288v-1.755c0,-0.885 0.174,-1.351 0.525,-1.41c1.523,2.333 4.104,3.63 7.732,3.907c0.225,0 0.443,0 0.66,-0.015V41.972z" id="path_6"/><path fill="#f06022" d="M22.021,57.046l0.18,0.158v0.479c-0.908,1.95 -2.176,3.315 -3.803,4.11c-5.039,2.737 -7.838,4.109 -8.393,4.109c-0.201,0 -0.307,-0.165 -0.307,-0.487c0.48,-1.859 1.537,-3.12 3.164,-3.779l9.008,-4.591H22.021z" id="path_7"/><path fill="#f06022" d="M20.77,53.094c0.209,0 0.307,0.15 0.307,0.457c-0.584,1.703 -2.318,3.233 -5.205,4.598l-6.66,3.646l-0.15,-0.157v-0.173c0.631,-2.228 1.635,-3.6 3.008,-4.11l7.434,-3.803L20.77,53.094z" id="path_8"/></svg>