<svg id="vector" xmlns="http://www.w3.org/2000/svg" width="75" height="67" viewBox="0 0 83 73"><path fill="#304FFE" d="M66.808,16.997c1.628,0 3.264,0.81 4.905,2.438c0.158,0.277 0.098,0.495 -0.188,0.66c-0.285,0.157 -0.547,0.127 -0.779,-0.113c-0.705,-0.63 -1.703,-0.945 -2.993,-0.945h-0.547c-0.54,0 -1.17,0.233 -1.891,0.683c0,1.32 1.583,2.131 4.748,2.438l3.143,-1.229l0.127,0.42c0,1.478 -1.814,2.798 -5.445,3.952l-5.032,2.858l-0.524,0.135c-0.21,0.045 -0.346,-0.045 -0.42,-0.263c0,-0.795 1.132,-1.883 3.404,-3.277v-0.128c-1.095,-0.607 -1.649,-1.47 -1.649,-2.595C64.184,18.676 65.226,16.997 66.808,16.997z" id="path_0"/><path fill="#304FFE" d="M67.094,27.173c0.352,0 0.704,1.178 1.057,3.518l1.583,3.518l-0.705,4.043l0.524,9.847v1.575c-0.232,4.021 -0.817,6.36 -1.755,7.035l-0.172,-0.173l0.172,-2.64c0,-2.37 -0.765,-9.93 -2.287,-22.672C66.247,28.524 66.771,27.173 67.094,27.173z" id="path_1"/><path fill="#304FFE" d="M73.683,8.964c0.18,-0.104 0.232,0.061 0.157,0.487c-0.997,2.34 -2.527,3.976 -4.59,4.898l-7.583,3.802c-0.322,-0.09 -0.382,-0.353 -0.18,-0.795c1.013,-1.95 1.703,-3.104 2.07,-3.473L73.683,8.964z" id="path_2"/><path fill="#000001" d="M40.926,51.676c0.442,0.029 0.893,0.045 1.342,0.045h0.525l2.197,-0.525c-0.524,-0.982 -0.787,-1.665 -0.787,-2.047c0,-5.625 1.814,-8.438 5.445,-8.438l1.409,-0.173c1.846,0.293 4.192,1.402 7.028,3.338l0.18,0.705l-0.18,0.172h-0.698c-1.35,-0.938 -2.872,-1.402 -4.575,-1.402c-2.603,0 -4.77,0.758 -6.502,2.28v0.18c1.522,2.46 4.335,3.69 8.438,3.69c3.225,-1.17 5.333,-1.756 6.33,-1.756c-0.555,3.278 -1.612,4.921 -3.165,4.921c-6.945,2.692 -12.45,4.042 -16.522,4.042h-0.465V51.676z" id="path_3"/><path fill="#000001" d="M51.433,23.018c1.801,0 2.7,1.11 2.7,3.323c0,3.524 -3.008,6.532 -9.03,9.008c-0.862,0.262 -0.967,-0.053 -0.307,-0.945c0.164,-0.338 1.582,-1.396 4.26,-3.165v-0.15c-1.155,-0.473 -1.732,-1.478 -1.732,-3.015c0.765,-3.368 1.979,-5.056 3.645,-5.056H51.433L51.433,23.018zM48.749,26.821c0,0.938 0.795,1.516 2.377,1.74h0.308c0.586,0 0.961,-0.218 1.118,-0.638c0,-0.952 -0.69,-1.694 -2.063,-2.22C49.888,25.704 49.311,26.079 48.749,26.821z" id="path_4"/><path fill="#FF6D00" d="M41.699,56.708l-1.98,-0.022c-1.095,4.822 -3.997,7.26 -8.7,7.32c-2.52,0.112 -3.779,0.067 -3.779,-0.135c0.232,-0.443 1.92,-1.29 5.055,-2.551c3.225,-2.047 5.168,-3.367 5.843,-3.952l0.18,-0.525l-3.075,-0.487c-2.242,-0.585 -3.502,-1.71 -3.78,-3.382v-0.354c0,-2.842 0.698,-4.657 2.108,-5.452l1.058,-0.173c2.077,0 3.771,1.448 5.092,4.351c0.84,0.292 1.5,0.435 1.98,0.42V56.708z" id="path_5"/><path fill="#FF6D00" d="M33.545,32.536h1.74c2.107,0 3.165,0.788 3.165,2.37c-1.365,3.69 -3.022,5.647 -4.973,5.873l-2.303,0.308c-0.367,0 -0.517,-0.105 -0.465,-0.308c1.86,-0.982 3.601,-2.152 5.213,-3.495c-0.57,-0.532 -1.2,-0.795 -1.89,-0.795h-0.488l-1.89,0.157l-0.149,-0.157v-0.308C32.398,33.751 33.081,32.536 33.545,32.536z" id="path_6"/><path fill="#D50000" d="M14.564,40.186c5.977,2.138 8.962,4.777 8.962,7.912l0.18,1.051c-0.502,4.103 -1.853,6.149 -4.05,6.149c0,0.383 -2.925,0.855 -8.782,1.41l-0.18,-0.524c0,-2.933 0.524,-4.396 1.582,-4.396c5.857,-0.473 9.083,-1.178 9.668,-2.115c-2.019,-1.957 -4.658,-3.54 -7.913,-4.74l-0.172,-0.885C13.949,41.476 14.181,40.186 14.564,40.186z" id="path_7"/><path fill="#D50000" d="M14.031,31.921c1.44,0.239 2.843,1.117 4.223,2.64v0.353c-0.877,2.34 -1.522,3.51 -1.935,3.51c-2.813,-0.96 -4.216,-1.725 -4.216,-2.28C12.103,35.056 12.749,33.654 14.031,31.921z" id="path_8"/><path fill="#D50000" d="M16.191,17.551c1.8,0 2.7,1.109 2.7,3.322c0,3.525 -3.008,6.532 -9.03,9.008c-0.862,0.263 -0.968,-0.053 -0.308,-0.945c0.165,-0.338 1.583,-1.395 4.261,-3.165v-0.15c-1.155,-0.472 -1.733,-1.477 -1.733,-3.015c0.766,-3.367 1.98,-5.055 3.646,-5.055H16.191L16.191,17.551zM13.506,21.354c0,0.938 0.795,1.515 2.377,1.739h0.308c0.585,0 0.96,-0.217 1.117,-0.637c0,-0.953 -0.689,-1.695 -2.063,-2.221C14.646,20.236 14.068,20.611 13.506,21.354z" id="path_9"/></svg>