<svg id="vector" xmlns="http://www.w3.org/2000/svg" width="75" height="67" viewBox="0 0 83 73"><path fill="#9e3b21" d="M66.988,46.922c0.17,0 0.345,0 0.53,0h0.127c1.547,-0.096 2.955,-1.382 4.216,-3.86c1.366,-2.071 2.774,-3.104 4.221,-3.104c1.821,0 2.732,1.154 2.732,3.474v0.62c0,1.139 -0.455,2.627 -1.366,4.47l-0.868,0.619c-0.769,0 -2.542,-0.54 -5.339,-1.614c-0.847,1.271 -1.509,2.044 -1.985,2.313c-0.726,0.504 -1.468,0.715 -2.235,0.62h-0.032V46.922L66.988,46.922zM73.228,44.301v0.121c2.15,0.832 3.437,1.245 3.85,1.245c0.164,0 0.249,-0.127 0.249,-0.376c-0.477,-1.239 -1.266,-1.859 -2.361,-1.859C74.202,43.432 73.619,43.724 73.228,44.301z" id="path_0"/><path fill="#9e3b21" d="M77.231,30.229c0.127,-0.074 0.164,0.042 0.111,0.344c-0.705,1.652 -1.785,2.807 -3.242,3.458l-5.354,2.686c-0.228,-0.063 -0.271,-0.249 -0.127,-0.562c0.715,-1.377 1.202,-2.192 1.461,-2.452L77.231,30.229z" id="path_1"/><path fill="#000001" d="M67.534,50.46l-1.398,-0.016c-0.772,3.404 -2.822,5.126 -6.144,5.169c-1.779,0.079 -2.669,0.047 -2.669,-0.096c0.164,-0.313 1.355,-0.911 3.569,-1.801c2.277,-1.445 3.649,-2.378 4.126,-2.791l0.127,-0.371l-2.172,-0.344c-1.583,-0.413 -2.473,-1.208 -2.669,-2.389v-0.249c0,-2.007 0.493,-3.288 1.488,-3.85l0.747,-0.122c1.467,0 2.664,1.021 3.596,3.071c0.594,0.207 1.06,0.308 1.398,0.297V50.46z" id="path_2"/><path fill="#000001" d="M61.777,33.391h1.229c1.488,0 2.235,0.557 2.235,1.674c-0.964,2.605 -2.135,3.988 -3.512,4.146l-1.626,0.217c-0.259,0 -0.365,-0.073 -0.328,-0.217c1.313,-0.694 2.542,-1.52 3.681,-2.468c-0.402,-0.376 -0.847,-0.562 -1.334,-0.562h-0.345l-1.335,0.111l-0.105,-0.111v-0.217C60.967,34.249 61.449,33.391 61.777,33.391z" id="path_3"/><path fill="#009649" d="M40.126,46.922h0.482c1.636,-0.175 3.013,-1.165 4.13,-2.966c0.165,-0.37 0.329,-0.577 0.493,-0.619h0.127l0.371,0.376c-0.054,0.471 -0.133,0.805 -0.249,0.99c0.725,1.324 1.594,1.986 2.605,1.986l0.127,0.121c1.801,-3.972 3.823,-5.958 6.08,-5.958c1.801,0 3.124,0.747 3.972,2.235v0.747c0,4.549 -2.813,6.826 -8.441,6.826l-1.859,-0.122c-0.577,1.568 -0.953,2.356 -1.117,2.356l-0.122,-0.121v-0.127l0.371,-2.108V50.29c-1.224,-0.683 -2.172,-1.637 -2.854,-2.854c-0.641,2.098 -2.013,3.109 -4.115,3.024V46.922L40.126,46.922zM49.452,47.06h0.249c2.813,0 5.211,-0.413 7.197,-1.239c0,-0.89 -0.826,-1.509 -2.479,-1.864h-0.498C51.936,43.956 50.448,44.994 49.452,47.06z" id="path_4"/><path fill="#009649" d="M49.081,35.52c2.065,0.662 3.104,1.197 3.104,1.61v0.249c-0.661,1.821 -1.202,2.732 -1.615,2.732c-1.673,-0.684 -2.627,-1.139 -2.854,-1.366v-0.249C48.049,37.257 48.499,36.262 49.081,35.52z" id="path_5"/><path fill="#009649" d="M49.871,25.367c1.271,0 1.906,0.784 1.906,2.347c0,2.488 -2.124,4.612 -6.377,6.36c-0.608,0.185 -0.683,-0.037 -0.217,-0.668c0.116,-0.238 1.117,-0.984 3.008,-2.234v-0.106c-0.815,-0.333 -1.223,-1.043 -1.223,-2.129c0.54,-2.378 1.397,-3.569 2.573,-3.569H49.871L49.871,25.367zM47.975,28.052c0,0.662 0.562,1.07 1.679,1.229h0.218c0.413,0 0.678,-0.154 0.788,-0.45c0,-0.673 -0.487,-1.197 -1.456,-1.567C48.779,27.264 48.372,27.528 47.975,28.052z" id="path_6"/><path fill="#213877" d="M40.672,50.46l-1.398,-0.016c-0.773,3.404 -2.823,5.126 -6.144,5.169c-1.779,0.079 -2.669,0.047 -2.669,-0.096c0.164,-0.313 1.355,-0.911 3.569,-1.801c2.277,-1.445 3.649,-2.378 4.125,-2.791l0.128,-0.371l-2.172,-0.344c-1.583,-0.413 -2.473,-1.208 -2.669,-2.389v-0.249c0,-2.007 0.492,-3.288 1.488,-3.85l0.747,-0.122c1.467,0 2.663,1.021 3.596,3.071c0.593,0.207 1.059,0.308 1.398,0.297V50.46z" id="path_7"/><path fill="#213877" d="M34.914,33.391h1.229c1.488,0 2.234,0.557 2.234,1.674c-0.964,2.605 -2.134,3.988 -3.511,4.146l-1.626,0.217c-0.26,0 -0.365,-0.073 -0.328,-0.217c1.313,-0.694 2.542,-1.52 3.681,-2.468c-0.402,-0.376 -0.848,-0.562 -1.335,-0.562h-0.345l-1.334,0.111l-0.105,-0.111v-0.217C34.104,34.249 34.586,33.391 34.914,33.391z" id="path_8"/><path fill="#000001" d="M16.38,46.906c0.313,0.021 0.631,0.031 0.948,0.031h0.371l1.552,-0.37c-0.371,-0.694 -0.557,-1.176 -0.557,-1.446c0,-3.972 1.281,-5.958 3.845,-5.958l0.996,-0.122c1.303,0.207 2.961,0.991 4.962,2.357l0.127,0.497l-0.127,0.122h-0.492c-0.953,-0.661 -2.028,-0.99 -3.23,-0.99c-1.838,0 -3.368,0.535 -4.592,1.61v0.127c1.075,1.737 3.062,2.605 5.958,2.605c2.277,-0.826 3.766,-1.239 4.47,-1.239c-0.392,2.314 -1.139,3.475 -2.234,3.475c-4.904,1.901 -8.792,2.854 -11.668,2.854H16.38V46.906z" id="path_9"/><path fill="#000001" d="M27.227,28.953c0.127,-0.074 0.164,0.042 0.111,0.344c-0.705,1.652 -1.785,2.807 -3.242,3.458l-5.354,2.686c-0.228,-0.063 -0.27,-0.249 -0.127,-0.562c0.715,-1.377 1.202,-2.192 1.461,-2.452L27.227,28.953z" id="path_10"/><path fill="#9e3b21" d="M6.466,29.201h0.498c1.637,0.933 2.463,1.473 2.484,1.616c-0.811,1.736 -1.346,2.647 -1.616,2.732c-0.932,0 -1.843,-0.456 -2.732,-1.366C5.269,31.294 5.725,30.298 6.466,29.201z" id="path_11"/><path fill="#9e3b21" d="M10.809,28.582c0.789,0 1.742,0.54 2.86,1.615c0,0.435 -0.541,1.303 -1.615,2.605c-0.62,0 -1.531,-0.413 -2.733,-1.239C9.32,30.838 9.818,29.843 10.809,28.582z" id="path_12"/><path fill="#9e3b21" d="M16.926,50.46h-0.032c-2.378,0 -3.993,-1.16 -4.84,-3.475l-0.249,-0.995h-0.249c-0.186,0.662 -1.51,1.075 -3.973,1.244H6.964c-1.658,0 -2.483,-0.498 -2.483,-1.493v-1.118c0,-1.196 0.911,-2.685 2.732,-4.464c1.097,-0.832 2.335,-1.53 3.723,-2.113l-0.127,-0.371c0.456,-2.07 0.832,-3.103 1.117,-3.103c0.148,0.349 0.355,2.918 0.625,7.694c0.371,3.221 1.827,4.782 4.375,4.703V50.46L16.926,50.46zM5.968,43.263c0.477,0.328 1.267,0.492 2.362,0.492c1.075,-0.079 2.065,-0.286 2.977,-0.619l-0.249,-3.475h-0.122C7.626,41.234 5.968,42.431 5.968,43.263z" id="path_13"/><path fill="#f06022" d="M10.798,19.415c0.948,0 1.51,0.63 1.674,1.891v0.344c-0.175,2.107 -0.879,3.484 -2.107,4.126c-2.14,1.345 -4.084,2.018 -5.82,2.018c-0.063,-0.011 -0.122,-0.026 -0.186,-0.048s-0.111,-0.053 -0.148,-0.096c-0.037,-0.037 -0.032,-0.063 0.011,-0.074c0.09,-0.206 1.652,-1.032 4.682,-2.467v-0.111c-0.815,-0.514 -1.224,-1.224 -1.224,-2.125C8.166,20.563 9.204,19.415 10.798,19.415L10.798,19.415zM8.796,21.755v0.106c0,0.769 0.524,1.218 1.568,1.351h0.322c0.397,0 0.62,-0.111 0.668,-0.34c0,-1.043 -0.557,-1.566 -1.674,-1.566C9.093,21.438 8.796,21.591 8.796,21.755z" id="path_14"/><path fill="#f06022" d="M8.346,17.396c0.238,-0.116 0.351,-0.037 0.339,0.233c-1.196,1.324 -2.139,2.579 -2.822,3.771c-0.196,0.465 -0.308,0.847 -0.334,1.153c-0.026,0.308 0.054,0.636 0.244,0.985h0.232c0.091,-0.52 0.275,-0.778 0.557,-0.778c0.333,0.147 0.519,0.296 0.556,0.45v0.217c0.021,1.182 -0.313,1.891 -1.006,2.129H5.555c-0.746,-0.147 -1.117,-1.006 -1.117,-2.579C4.438,21.067 5.74,19.208 8.346,17.396z" id="path_15"/></svg>