<svg id="vector" xmlns="http://www.w3.org/2000/svg" width="75" height="67" viewBox="0 0 83 73"><path fill="#FB8C00" d="M51.777,44.921v-0.157c0.529,-0.74 1.285,-1.746 2.281,-3.026h0.107c0.205,0.222 0.768,0.676 1.697,1.362c0.443,0.33 0.893,0.659 1.346,1c0.508,-0.709 1.189,-1.605 2.043,-2.691h0.107c0.807,0.854 1.813,1.627 3.027,2.324c0.033,0.021 0.049,0.069 0.049,0.146l-2.215,2.962c-0.012,0.021 -0.045,0.027 -0.098,0.027c-0.076,0 -0.189,-0.021 -0.352,-0.076c-0.746,-0.352 -1.682,-1.086 -2.801,-2.216v-0.017l-1.945,2.611c-0.012,0.021 -0.043,0.032 -0.098,0.032c-0.076,0 -0.189,-0.027 -0.346,-0.081C53.83,46.776 52.896,46.041 51.777,44.921z" id="path_0"/><path fill="#FB8C00" d="M53.943,40.36v-0.157c0.531,-0.741 1.293,-1.745 2.281,-3.021h0.113c0.789,0.864 1.801,1.638 3.021,2.324c0.023,0.032 0.033,0.081 0.033,0.146l-2.199,2.973c-0.021,0.012 -0.055,0.018 -0.098,0.018c-0.07,0 -0.184,-0.027 -0.33,-0.076C56.004,42.213 55.063,41.479 53.943,40.36z" id="path_1"/><path fill="#FB8C00" d="M43.154,58.489V54.11c1.498,0.108 2.941,-0.286 4.32,-1.188c1.205,-1.032 2.107,-2.216 2.707,-3.546l0.557,-0.443c0.168,0.189 0.266,0.411 0.287,0.665c0,0.108 -0.049,0.378 -0.135,0.815c-0.092,0.438 -0.152,0.79 -0.184,1.055c0.053,0.697 0.334,1.362 0.838,1.994c0.795,0.552 1.68,0.811 2.664,0.779c0.801,-0.033 1.535,-0.25 2.199,-0.649c0.498,-0.319 0.887,-1.6 1.174,-3.849c0.07,-0.514 0.275,-0.881 0.615,-1.092c0.158,0.162 0.244,0.385 0.254,0.665c0.023,0.53 0.033,0.778 0.033,0.746c-0.195,0.897 0.367,1.876 1.676,2.946c0.541,0.346 1.189,0.502 1.945,0.47c0.752,-0.026 1.4,-0.237 1.951,-0.616c-0.383,-1.189 -0.551,-2.125 -0.508,-2.8c0.211,-0.876 0.611,-1.702 1.205,-2.47c0.697,1.107 1.033,2.334 1.012,3.675c-0.092,2.557 -0.4,4.298 -0.92,5.228c-0.178,0.508 -0.533,0.913 -1.074,1.216c-0.189,0.14 -0.736,0.313 -1.633,0.524c-1.709,0.097 -2.988,-0.492 -3.85,-1.757c-0.156,-0.509 -0.389,-0.952 -0.697,-1.33c-0.092,0.06 -0.328,0.573 -0.707,1.536c-0.195,0.367 -0.41,0.724 -0.654,1.059c-0.238,0.34 -0.52,0.589 -0.838,0.746c-0.498,0.189 -1.033,0.291 -1.615,0.303c-0.877,0.032 -1.758,-0.168 -2.645,-0.59c-1.242,-1.242 -1.799,-2.578 -1.658,-3.988c-0.098,0.021 -0.217,0.189 -0.352,0.502C47.686,57.094 45.695,58.354 43.154,58.489z" id="path_2"/><path fill="#FB8C00" d="M52.814,33.911l0.984,-2.93l9.545,-4.193c0.129,-0.033 0.189,-0.018 0.189,0.048c0,0.032 -0.016,0.108 -0.049,0.237l-1.281,3.039l-9.168,4.102c-0.117,0.012 -0.188,0.012 -0.221,0C52.771,34.149 52.771,34.051 52.814,33.911z" id="path_3"/><path fill="#000001" d="M43.555,58.456c-2.627,0.022 -4.719,-0.832 -6.27,-2.566c-1.086,-1.232 -1.783,-2.957 -2.092,-5.179c-0.156,-1.983 -0.336,-3.94 -0.541,-5.876c-0.08,-1.707 -0.346,-4.945 -0.789,-9.702c-0.324,-3.919 -0.496,-7.113 -0.518,-9.583c0.021,-0.287 0.145,-0.682 0.377,-1.189c0.275,-0.092 0.525,-0.146 0.746,-0.156c0.422,-0.021 0.963,0.135 1.627,0.475c0.795,0.39 1.297,0.633 1.52,0.73c0.373,0.222 0.756,0.459 1.156,0.713c0.406,0.249 0.572,0.579 0.508,0.979c-0.297,0.012 -0.746,-0.103 -1.346,-0.34c-0.6,-0.238 -1.055,-0.357 -1.361,-0.357c-0.32,0.021 -0.633,0.162 -0.951,0.411l-0.395,0.524c0.42,8.043 0.896,14.286 1.426,18.719c-0.031,0.378 -0.043,0.768 -0.031,1.156c0.096,2.881 1.172,4.936 3.232,6.162c1.189,0.453 2.426,0.681 3.701,0.691V58.456z" id="path_4"/><path fill="#039BE5" d="M28.979,51.811c-1.955,0.727 -3.908,1.452 -5.848,2.193c-2.26,0.85 -4.125,1.736 -5.6,2.666c-0.154,-0.029 -0.256,-0.117 -0.299,-0.262c0.088,-0.523 0.502,-1.074 1.256,-1.642c0.596,-0.393 1.186,-0.792 1.766,-1.191l1.512,-0.763c-0.139,-0.146 -0.299,-0.291 -0.48,-0.436c-0.174,-0.152 -0.313,-0.291 -0.414,-0.414c-0.521,-0.53 -0.791,-1.111 -0.805,-1.751c0.064,-0.45 0.238,-0.944 0.508,-1.489c0.428,-0.66 0.676,-1.097 0.748,-1.293c1.205,-2.077 2.527,-3.087 3.973,-3.043c1.664,0.254 2.688,0.951 3.066,2.084c0.145,0.139 0.268,0.465 0.385,0.98c0,0.211 -0.152,0.35 -0.451,0.422c-0.791,-0.566 -1.641,-0.959 -2.549,-1.17c-1.25,-0.268 -2.361,-0.108 -3.342,0.487c-0.072,0.087 -0.131,0.175 -0.166,0.261c0,0.096 0.043,0.379 0.145,0.851c0.836,1.162 1.947,1.882 3.32,2.149c0.441,0.139 0.906,0.196 1.4,0.168c0.713,-0.27 1.803,-0.633 3.283,-1.082c0.016,0.064 0.016,0.159 0,0.275c-0.027,0.195 -0.145,0.516 -0.34,0.959c-0.176,0.451 -0.277,0.683 -0.32,0.697C29.457,51.629 29.203,51.739 28.979,51.811z" id="path_5"/><path fill="#039BE5" d="M18.473,39.846l0.984,-2.93l9.545,-4.195c0.129,-0.031 0.189,-0.016 0.189,0.049c0,0.033 -0.018,0.108 -0.049,0.238l-1.281,3.037l-9.168,4.104c-0.119,0.01 -0.189,0.01 -0.221,0C18.43,40.083 18.43,39.987 18.473,39.846z" id="path_6"/><path fill="#000001" d="M44.684,14.205l0.168,0.169c0,2.226 -1.76,4.536 -5.281,6.931c-2.064,0.88 -4.156,1.324 -6.275,1.324l-1.486,-0.169c-0.549,2.092 -0.938,3.141 -1.154,3.141c-0.248,0 -0.578,-0.88 -0.994,-2.641c-0.768,-1.049 -2.035,-2.367 -3.797,-3.965v-0.331c0.389,-2.197 0.832,-3.296 1.324,-3.296c2.148,2.31 4.791,3.465 7.924,3.465C38.746,18.832 41.936,17.29 44.684,14.205z" id="path_7"/></svg>