<svg id="vector" xmlns="http://www.w3.org/2000/svg" width="75" height="67" viewBox="0 0 83 73"><path fill="#00B8D4" d="M52.161,48.745h0.878c5.468,-0.105 9.098,-0.871 10.897,-2.311l0.353,-0.697c-0.232,-0.563 -0.525,-0.84 -0.878,-0.84c-0.848,0.473 -1.784,0.705 -2.813,0.705h-0.18c-3.045,-0.354 -4.628,-1.583 -4.74,-3.69v-0.181c0.293,-3.982 1.23,-5.97 2.813,-5.97h0.878c2.707,-0.135 4.763,1.973 6.15,6.323l0.172,1.762V44.2c-0.037,4.305 -1.583,7.146 -4.635,8.52c-1.08,0.689 -4.051,1.035 -8.896,1.035V48.745z" id="path_0"/><path fill="#00B8D4" d="M59.893,26.575c1.905,0.584 3.548,1.521 4.921,2.813v0.172c0,0.734 -0.758,1.905 -2.28,3.518c-0.473,0 -2.055,-0.585 -4.748,-1.756v0.174c-0.938,1.814 -1.522,2.752 -1.763,2.813c-1.522,-0.323 -2.812,-1.027 -3.862,-2.107c0.705,-2.934 1.29,-4.396 1.756,-4.396c0.382,0 1.784,0.704 4.222,2.107C58.138,29.297 58.723,28.187 59.893,26.575z" id="path_1"/><path fill="#00B8D4" d="M64.619,15.984c0.18,-0.104 0.232,0.06 0.157,0.487c-0.997,2.34 -2.527,3.975 -4.59,4.898l-7.583,3.802c-0.322,-0.09 -0.382,-0.353 -0.18,-0.795c1.013,-1.95 1.702,-3.104 2.07,-3.473L64.619,15.984z" id="path_2"/><path fill="#00B8D4" d="M52.333,53.755c-3.412,0.202 -5.895,-1.373 -7.447,-4.726c-0.75,-1.245 -1.447,-9.638 -2.107,-25.177v-0.354c0.435,-2.58 1.08,-3.869 1.927,-3.869l0.886,-0.173c1.08,0 2.723,0.353 4.92,1.05v0.353c-0.12,0.353 -0.473,0.532 -1.058,0.532h-2.985c-0.614,0 -1.199,0.346 -1.763,1.051c0.548,13.492 1.343,21.307 2.4,23.445c1.05,2.137 2.798,3.09 5.228,2.857V53.755z" id="path_3"/><path fill="#FFAB00" d="M36.824,20.837c0.322,0 0.555,0.877 0.705,2.641l1.755,2.984v0.18c0,0.788 -0.353,2.197 -1.058,4.215l1.058,11.955v4.216c-0.383,2.438 -1.785,4.837 -4.223,7.207c-2.43,1.875 -4.598,2.813 -6.503,2.813h-1.05c-5.1,0 -8.385,-2.521 -9.848,-7.552l-0.353,-3.166c0,-3.255 1.41,-6.127 4.223,-8.617h0.173l0.353,0.353c0,0.646 -0.817,2.228 -2.46,4.747c-0.353,0.908 -0.525,1.726 -0.525,2.461v0.18c0,2.984 2.4,5.152 7.208,6.502l2.107,0.174h0.353c3.397,0 6.382,-1.584 8.962,-4.748l0.173,-0.525c-1.402,-12.248 -2.107,-19.747 -2.107,-22.5v-0.353C35.766,22.712 36.119,21.662 36.824,20.837z" id="path_4"/><path fill="#FFAB00" d="M32.999,19.675c0.18,-0.105 0.232,0.06 0.157,0.487c-0.997,2.34 -2.527,3.976 -4.59,4.897l-7.582,3.803c-0.322,-0.09 -0.383,-0.353 -0.181,-0.795c1.013,-1.95 1.703,-3.105 2.07,-3.473L32.999,19.675z" id="path_5"/></svg>