<svg id="vector" xmlns="http://www.w3.org/2000/svg" width="75" height="67" viewBox="0 0 83 73"><path fill="#009649" d="M36.667,14.047l0.181,0.182c0,2.369 -1.875,4.83 -5.625,7.379c-2.198,0.938 -4.425,1.41 -6.683,1.41l-1.583,-0.18c-0.585,2.227 -0.997,3.344 -1.229,3.344c-0.263,0 -0.615,-0.936 -1.058,-2.813c-0.817,-1.117 -2.168,-2.52 -4.043,-4.221v-0.354c0.413,-2.34 0.886,-3.51 1.41,-3.51c2.288,2.461 5.101,3.689 8.438,3.689C30.345,18.975 33.743,17.332 36.667,14.047z" id="path_0"/><path fill="#0091EA" d="M61.305,53.662c-1.186,-1.365 -1.785,-2.775 -1.785,-4.244c0,-5.387 1.995,-8.086 5.978,-8.086h1.058c1.38,0 3.075,0.645 5.1,1.936c0.51,0.201 1.448,0.906 2.813,2.107c0.525,0.908 0.293,1.146 -0.705,0.705c-1.935,-0.938 -4.042,-1.402 -6.33,-1.402H67.26c-1.845,0 -3.721,0.758 -5.625,2.279c0,1.23 1.987,2.58 5.978,4.043l2.107,0.352l7.905,-1.934c0.915,-0.188 1.02,0.471 0.329,1.994c-0.683,1.516 -1.965,2.551 -3.839,3.105c-2.184,0.877 -5.394,1.777 -9.623,2.691c-4.237,0.916 -7.822,1.426 -10.771,1.531v0.059c-4.229,0.137 -7.064,0.158 -8.489,0.084c-1.433,-0.084 -2.618,-0.188 -3.57,-0.322c-0.952,-0.129 -1.65,-0.57 -2.093,-1.32c-0.435,-0.742 0.533,-1.254 2.91,-1.523c2.385,-0.27 5.228,-0.434 8.527,-0.494C54.315,55.162 57.743,54.645 61.305,53.662z" id="path_1"/><path fill="#0091EA" d="M71.257,27.293c0.181,-0.105 0.232,0.059 0.157,0.486c-0.997,2.34 -2.527,3.975 -4.59,4.898l-7.582,3.803c-0.322,-0.09 -0.383,-0.354 -0.181,-0.795c1.013,-1.951 1.703,-3.105 2.07,-3.473L71.257,27.293z" id="path_2"/><path fill="#D50000" d="M34.672,53.924c0.367,0 0.75,0 1.147,0l0.878,-0.441c0.555,-1.141 1.38,-2.543 2.46,-4.215L37.403,35.73c0.585,-2.813 1.109,-4.217 1.582,-4.217l0.878,3.338c0.817,1.141 1.229,2.197 1.229,3.166c-0.585,1.08 -0.877,1.965 -0.877,2.633v0.352l0.353,5.625v0.885c1.814,-1.529 4.245,-2.361 7.29,-2.504c3.518,0.494 5.272,1.664 5.272,3.51v1.23c-0.585,2.609 -1.463,4.604 -2.633,5.977c-3.548,1.996 -7.44,3.061 -11.692,3.211H36.87c-0.772,0 -1.507,0 -2.197,0V53.924L34.672,53.924zM38.1,54.014h0.353c5.362,-0.148 9.555,-1.102 12.57,-2.855c-1.373,-1.41 -2.37,-2.109 -2.985,-2.109h-1.41C42.615,49.191 39.773,50.85 38.1,54.014z" id="path_3"/><path fill="#D50000" d="M54.06,27.922c0.18,-0.105 0.232,0.061 0.157,0.488c-0.997,2.34 -2.527,3.975 -4.59,4.896l-7.582,3.803c-0.323,-0.09 -0.383,-0.352 -0.181,-0.795c1.013,-1.949 1.702,-3.104 2.07,-3.473L54.06,27.922z" id="path_4"/><path fill="#009649" d="M34.672,58.936c-3.412,0.201 -6.806,-1.422 -8.46,-4.727c-0.65,-1.299 -1.447,-9.637 -2.107,-25.176V28.68c0.436,-2.58 1.08,-3.869 1.928,-3.869l0.885,-0.174c1.08,0 2.723,0.354 4.92,1.051v0.352c-0.12,0.354 -0.473,0.533 -1.057,0.533h-2.985c-0.615,0 -1.2,0.346 -1.763,1.051c0.548,13.492 1.346,21.305 2.4,23.443c1.053,2.137 3.81,3.09 6.239,2.857V58.936z" id="path_5"/><path fill="#f06022" d="M12.945,47.398c1.619,0 3.255,0.811 4.897,2.438c0.157,0.277 0.098,0.494 -0.188,0.66c-0.285,0.158 -0.548,0.119 -0.78,-0.113c-0.705,-0.629 -1.702,-0.945 -2.992,-0.945h-0.548c-0.54,0 -1.17,0.234 -1.89,0.684c0,1.32 1.582,2.129 4.747,2.438l3.143,-1.23l0.135,0.42c0,1.479 -1.822,2.799 -5.452,3.953l-5.032,2.857l-0.525,0.135c-0.202,0.045 -0.345,-0.045 -0.42,-0.262c0,-0.795 1.14,-1.883 3.405,-3.277v-0.137c-1.096,-0.6 -1.643,-1.461 -1.643,-2.586C10.312,49.07 11.362,47.398 12.945,47.398z" id="path_6"/><path fill="#f06022" d="M17.557,35.182l0.18,0.156v0.48c-0.915,1.949 -2.183,3.314 -3.803,4.109c-5.039,2.738 -7.837,4.111 -8.392,4.111c-0.211,0 -0.315,-0.166 -0.315,-0.488c0.487,-1.859 1.545,-3.119 3.165,-3.779l9.015,-4.59H17.557z" id="path_7"/><path fill="#f06022" d="M16.304,31.229c0.203,0 0.308,0.15 0.308,0.457c-0.585,1.703 -2.317,3.232 -5.205,4.598l-6.66,3.645l-0.149,-0.156v-0.174c0.63,-2.227 1.627,-3.6 3.008,-4.109l7.425,-3.803L16.304,31.229z" id="path_8"/></svg>