<svg id="vector" xmlns="http://www.w3.org/2000/svg" width="75" height="67" viewBox="0 0 83 73"><path fill="#213877" d="M64.287,36.861c-1.007,-1.16 -1.517,-2.357 -1.517,-3.605c0,-4.572 1.695,-6.865 5.076,-6.865h0.898c1.172,0 2.611,0.547 4.33,1.643c0.434,0.172 1.229,0.771 2.389,1.789c0.445,0.771 0.248,0.975 -0.599,0.6c-1.644,-0.797 -3.433,-1.191 -5.375,-1.191h-0.146c-1.567,0 -3.159,0.645 -4.776,1.936c0,1.045 1.688,2.191 5.076,3.434l1.789,0.299l6.713,-1.643c0.776,-0.16 0.865,0.4 0.279,1.693c-0.579,1.287 -1.668,2.166 -3.26,2.637c-1.854,0.746 -4.58,1.51 -8.172,2.287c-3.598,0.777 -6.643,1.209 -9.145,1.299v0.051c-3.592,0.115 -6,0.135 -7.21,0.07c-1.216,-0.07 -2.222,-0.158 -3.031,-0.273c-0.81,-0.109 -1.401,-0.484 -1.776,-1.121c-0.37,-0.631 0.451,-1.064 2.471,-1.293c2.025,-0.229 4.439,-0.369 7.241,-0.42C58.352,38.135 61.262,37.695 64.287,36.861z" id="path_0"/><path fill="#213877" d="M72.738,14.469c0.153,-0.09 0.197,0.051 0.134,0.412c-0.847,1.988 -2.146,3.377 -3.898,4.16l-6.438,3.229c-0.274,-0.076 -0.325,-0.299 -0.153,-0.676c0.86,-1.654 1.446,-2.635 1.758,-2.947L72.738,14.469z" id="path_1"/><path fill="#009649" d="M51.601,22.377h0.599c1.713,1.027 2.809,1.771 3.28,2.242l-1.637,3.434H53.39c-1.019,-0.172 -2.165,-0.873 -3.432,-2.09C50.702,23.773 51.25,22.582 51.601,22.377z" id="path_2"/><path fill="#009649" d="M41.671,37.084c0.313,0 0.638,0 0.975,0l0.746,-0.377c0.471,-0.967 1.172,-2.158 2.088,-3.578L43.99,21.633c0.497,-2.389 0.942,-3.578 1.344,-3.578l0.745,2.832c0.693,0.969 1.045,1.867 1.045,2.689c-0.498,0.916 -0.746,1.668 -0.746,2.234v0.299l0.3,4.777v0.752c1.541,-1.301 3.604,-2.006 6.19,-2.127c2.986,0.42 4.477,1.412 4.477,2.98v1.043c-0.496,2.217 -1.242,3.91 -2.234,5.076c-3.014,1.695 -6.318,2.6 -9.93,2.727h-1.643c-0.656,0 -1.281,0 -1.867,0V37.084L41.671,37.084zM44.582,37.16h0.3c4.553,-0.127 8.113,-0.938 10.674,-2.428c-1.166,-1.197 -2.013,-1.789 -2.535,-1.789h-1.197C48.416,33.064 46.003,34.473 44.582,37.16z" id="path_3"/><path fill="#009649" d="M53.198,42.936c0.154,-0.082 0.198,0.051 0.135,0.414c-0.848,1.988 -2.146,3.375 -3.898,4.16l-6.438,3.229c-0.274,-0.076 -0.326,-0.299 -0.154,-0.67c0.86,-1.654 1.446,-2.637 1.758,-2.947L53.198,42.936z" id="path_4"/><path fill="#9e3b21" d="M37.866,42.381c1.547,0.625 2.688,1.32 3.438,2.09v0.152c-0.821,2.186 -1.471,3.281 -1.942,3.281c-0.375,0 -1.566,-0.6 -3.586,-1.791l-1.344,2.535c-2.585,-0.941 -3.878,-1.637 -3.878,-2.088c0.548,-2.039 1.095,-3.236 1.644,-3.58c0.42,0 1.713,0.643 3.878,1.943C36.897,43.229 37.497,42.381 37.866,42.381z" id="path_5"/><path fill="#9e3b21" d="M27.79,37.084h0.975c1.936,-0.16 3.382,-0.93 4.324,-2.313l0.153,-0.453l-0.446,-2.234c0.096,-2.389 0.344,-3.586 0.746,-3.586c1.19,4.203 2.337,6.77 3.432,7.688c0.943,0.535 2.236,0.828 3.879,0.879c0.439,0 0.848,0 1.236,0v4.273c-0.491,0 -1,0 -1.535,0h-0.146c-2.859,0 -5.051,-1.592 -6.566,-4.777v-0.146l-1.344,2.682c-1.02,1.51 -2.516,2.254 -4.477,2.242h-0.23V37.084z" id="path_6"/><path fill="#9e3b21" d="M33.821,16.449H35.3c1.789,0 2.688,0.668 2.688,2.012c-1.159,3.133 -2.566,4.795 -4.223,4.986l-1.955,0.262c-0.313,0 -0.439,-0.09 -0.395,-0.262c1.579,-0.834 3.057,-1.828 4.426,-2.967c-0.484,-0.453 -1.02,-0.676 -1.605,-0.676h-0.414l-1.604,0.135l-0.127,-0.135v-0.262C32.848,17.48 33.427,16.449 33.821,16.449z" id="path_7"/><path fill="#000001" d="M27.925,41.338c-0.16,0 -0.332,0 -0.504,0h-0.146c-1.445,-0.014 -2.84,-0.268 -4.184,-0.764c-1.439,2.49 -3.331,3.73 -5.668,3.73c-2.79,-0.4 -4.185,-1.541 -4.185,-3.432h-0.146c-0.472,1.592 -1.516,2.885 -3.134,3.879c-2.165,0.795 -3.859,1.197 -5.076,1.197l-0.688,0.088v-0.299c0.555,-0.459 2.057,-1.521 4.503,-3.191c2.446,-1.662 3.834,-2.705 4.159,-3.133c0.331,-0.42 0.809,-1.828 1.433,-4.215c1.19,-1.988 2.286,-2.988 3.28,-2.988h0.299c1.242,0 3.235,1.344 5.975,4.031c0.795,0.676 2.152,0.975 4.082,0.898V41.338L27.925,41.338zM15.034,37.287c0,1.318 1.045,2.217 3.133,2.688h0.746c1.693,-0.172 2.541,-0.42 2.541,-0.744c-1.968,-1.893 -3.459,-2.836 -4.484,-2.836h-0.146C15.978,36.395 15.378,36.695 15.034,37.287z" id="path_8"/><path fill="#f06022" d="M22.664,51.037l0.153,0.133v0.408c-0.771,1.656 -1.848,2.814 -3.229,3.49c-4.28,2.324 -6.655,3.49 -7.126,3.49c-0.173,0 -0.262,-0.141 -0.262,-0.414c0.408,-1.58 1.306,-2.648 2.688,-3.209l7.648,-3.898H22.664z" id="path_9"/><path fill="#f06022" d="M21.601,47.682c0.178,0 0.262,0.127 0.262,0.387c-0.498,1.447 -1.969,2.746 -4.42,3.904l-5.656,3.096l-0.127,-0.133v-0.146c0.535,-1.893 1.389,-3.059 2.553,-3.49l6.313,-3.23L21.601,47.682z" id="path_10"/></svg>