<svg id="vector" xmlns="http://www.w3.org/2000/svg" width="75" height="67" viewBox="0 0 83 73"><path fill="#FF6D00" d="M56.065,43.62h0.867h0.329h0.846c3.046,-0.223 4.896,-0.925 5.54,-2.1c0,-0.925 -1.061,-3.44 -3.189,-7.561l-0.337,-1.341c-0.365,-1.763 -0.351,-3.383 0.044,-4.852c0.387,-1.47 1.16,-2.487 2.307,-3.046c2.659,-1.792 7.754,-4.759 15.287,-8.901l0.164,0.173v0.329c-1.619,2.552 -2.852,4.901 -3.69,7.06h-0.337l-0.172,-0.839v-0.846l0.172,-0.165v-0.164h-0.172c-6.242,3.604 -10.441,6.242 -12.599,7.89v0.172c2.357,4.759 3.64,8.393 3.87,10.915c0,1.791 -0.617,3.698 -1.85,5.712c-1.176,1.569 -3.525,2.351 -7.059,2.351h-0.021V43.62z" id="path_0"/><path fill="#FF6D00" d="M70.241,48.313c0.172,-0.093 0.222,0.058 0.15,0.467c-0.953,2.236 -2.416,3.798 -4.387,4.68l-7.245,3.633c-0.308,-0.086 -0.365,-0.336 -0.172,-0.752c0.968,-1.863 1.626,-2.967 1.978,-3.318L70.241,48.313z" id="path_1"/><path fill="#009649" d="M56.272,48.421c-0.15,0.016 -0.309,0.021 -0.459,0.021h-0.846c-1.311,0 -2.207,-0.107 -2.688,-0.336c-0.975,3.77 -2.113,6.077 -3.418,6.923s-4.25,1.562 -8.836,2.149h-0.338c-1.01,-0.114 -1.512,-0.279 -1.512,-0.501c0,-0.337 0.838,-0.731 2.516,-1.176c6.607,-3.024 9.912,-5.21 9.912,-6.55c0,-0.56 -0.781,-1.85 -2.352,-3.863c-0.336,-0.566 -0.502,-1.29 -0.502,-2.186v-1.678c0,-0.845 0.166,-1.289 0.502,-1.347c1.455,2.229 3.92,3.469 7.389,3.733c0.215,0 0.424,0 0.631,-0.014V48.421z" id="path_2"/><path fill="#009649" d="M52.726,28.161c0.172,-0.1 0.222,0.058 0.15,0.467c-0.953,2.235 -2.416,3.798 -4.387,4.68l-7.245,3.633c-0.308,-0.086 -0.365,-0.337 -0.172,-0.76c0.968,-1.863 1.626,-2.967 1.978,-3.318L52.726,28.161z" id="path_3"/><path fill="#009649" d="M35.345,21.231c0.337,0 0.674,1.125 1.011,3.361l1.513,3.361l-0.674,3.862l0.502,9.409v1.506c-0.223,3.842 -0.781,6.077 -1.678,6.723l-0.164,-0.165l0.164,-2.522c0,-2.266 -0.73,-9.489 -2.186,-21.665C34.535,22.521 35.037,21.231 35.345,21.231z" id="path_4"/><path fill="#9e3b21" d="M12.802,44.666c0.229,0 0.466,0 0.717,0h0.172c2.093,-0.129 3.999,-1.87 5.705,-5.224c1.849,-2.803 3.755,-4.2 5.711,-4.2c2.466,0 3.699,1.563 3.699,4.701v0.839c0,1.541 -0.617,3.555 -1.85,6.049l-1.176,0.838c-1.039,0 -3.439,-0.73 -7.224,-2.186c-1.146,1.72 -2.042,2.766 -2.688,3.132c-0.981,0.681 -1.985,0.968 -3.024,0.839h-0.043V44.666L12.802,44.666zM21.244,41.118v0.165c2.909,1.126 4.651,1.685 5.21,1.685c0.223,0 0.337,-0.172 0.337,-0.509c-0.646,-1.677 -1.713,-2.516 -3.196,-2.516C22.563,39.943 21.774,40.337 21.244,41.118z" id="path_5"/><path fill="#f06022" d="M27.479,22.392l0.172,0.151v0.458c-0.875,1.863 -2.086,3.168 -3.634,3.928c-4.815,2.615 -7.489,3.928 -8.02,3.928c-0.2,0 -0.302,-0.158 -0.302,-0.467c0.467,-1.777 1.477,-2.98 3.025,-3.611l8.614,-4.387H27.479z" id="path_6"/><path fill="#f06022" d="M26.282,18.615c0.193,0 0.294,0.144 0.294,0.438c-0.56,1.627 -2.215,3.089 -4.974,4.394l-6.364,3.482l-0.144,-0.15v-0.165c0.602,-2.128 1.556,-3.44 2.874,-3.927l7.095,-3.634L26.282,18.615z" id="path_7"/><path fill="#000001" d="M14.206,49.454c-3.26,0.193 -5.633,-1.313 -7.116,-4.516c-0.717,-1.189 -1.383,-9.209 -2.014,-24.059v-0.336c0.415,-2.466 1.032,-3.699 1.842,-3.699l0.846,-0.164c1.032,0 2.601,0.336 4.701,1.003v0.337c-0.114,0.337 -0.452,0.51 -1.011,0.51H8.603c-0.588,0 -1.146,0.329 -1.685,1.002C7.44,32.426 8.2,39.894 9.212,41.936c1.002,2.042 2.672,2.952 4.994,2.73V49.454z" id="path_8"/></svg>