<svg id="vector" xmlns="http://www.w3.org/2000/svg" width="75" height="67" viewBox="0 0 83 73"><path fill="#009649" d="M67.674,18.924c1.533,0.807 2.746,1.621 3.643,2.429c-0.258,1.244 -1.066,2.577 -2.428,3.991h-0.172c-1.592,-0.667 -2.695,-1.414 -3.303,-2.259v-0.348C66.459,20.198 67.207,18.924 67.674,18.924z" id="path_0"/><path fill="#009649" d="M63.809,39.533c0.252,0.029 0.496,-0.104 0.74,-0.393c-0.459,-0.563 -0.697,-1.147 -0.697,-1.755v-1.563c0.557,-5.088 2.578,-7.635 6.08,-7.635c1.764,0 3.674,0.926 5.725,2.777c0.756,0.288 1.156,0.577 1.215,0.866v0.17c0,0.267 -0.289,0.437 -0.867,0.526c0,-0.496 -1.502,-0.896 -4.51,-1.215h-0.695c-3.244,0.488 -4.857,1.355 -4.857,2.6c0,1.71 1.672,2.983 5.027,3.82l1.215,0.171c0.436,0 2.637,-1.096 6.598,-3.296h0.17l0.35,0.349c0,2.399 -2.66,5.006 -7.984,7.813c-3.791,1.155 -6.102,1.732 -6.938,1.732c-0.193,0 -0.379,-0.007 -0.57,-0.021V39.533z" id="path_1"/><path fill="#009649" d="M75.723,6.683c0.178,-0.104 0.23,0.059 0.156,0.481c-0.984,2.311 -2.496,3.925 -4.533,4.836l-7.486,3.754c-0.318,-0.089 -0.377,-0.348 -0.178,-0.785c1,-1.925 1.682,-3.065 2.045,-3.429L75.723,6.683z" id="path_2"/><path fill="#6200EA" d="M64.178,44.501c-3.369,0.2 -5.82,-1.354 -7.354,-4.665c-0.74,-1.229 -1.428,-9.516 -2.08,-24.859v-0.349c0.43,-2.547 1.066,-3.82 1.902,-3.82l0.875,-0.171c1.066,0 2.688,0.349 4.857,1.037v0.348c-0.119,0.349 -0.467,0.526 -1.045,0.526h-2.947c-0.605,0 -1.184,0.34 -1.74,1.036c0.541,13.322 1.326,21.039 2.371,23.149c1.035,2.11 2.762,3.051 5.16,2.821V44.501z" id="path_3"/><path fill="#9e3b21" d="M30.418,35.756h0.066c2.688,-0.119 4.539,-1.415 5.553,-3.902c0,-0.349 0.23,-0.638 0.697,-0.874h0.348c0.23,0 0.348,0.178 0.348,0.525l-0.178,1.037c0.986,1.74 2.029,2.606 3.125,2.606h0.867c1.504,0 2.666,-1.503 3.473,-4.51h0.178c0.17,0.021 0.459,0.719 0.867,2.081c0.984,0.866 1.961,1.385 2.947,1.563c1.154,0 1.74,-0.696 1.74,-2.081c0.111,-2.199 0.34,-3.303 0.688,-3.303c0.467,0.984 0.697,2.199 0.697,3.644c0,4.287 -1.045,6.428 -3.125,6.428c-1.623,0 -2.947,-0.814 -3.992,-2.437h-0.348c-0.719,2.317 -1.881,3.474 -3.473,3.474h-0.17c-1.416,0 -3.037,-1.097 -4.859,-3.296c-1.533,2.658 -3.271,3.991 -5.205,3.991h-0.244V35.756z" id="path_4"/><path fill="#9e3b21" d="M48.643,43.546c0.178,-0.097 0.229,0.059 0.154,0.481c-0.984,2.311 -2.496,3.925 -4.531,4.835l-7.486,3.755c-0.318,-0.089 -0.379,-0.348 -0.178,-0.777c0.998,-1.925 1.68,-3.066 2.043,-3.429L48.643,43.546z" id="path_5"/><path fill="#304FFE" d="M30.588,40.725c-1.475,0.029 -3.104,0.015 -4.881,-0.045c-0.318,3.674 -2.109,6.799 -5.383,9.376c-1.549,1.459 -3.451,2.273 -5.725,2.429c-4.775,0 -8.242,-2.259 -10.412,-6.769c-0.422,-2.052 -0.57,-3.732 -0.443,-5.036c0.117,-1.296 0.902,-3.443 2.348,-6.42c0.924,-1.155 1.621,-1.732 2.088,-1.732l0.17,0.17v0.178c0,0.637 -0.748,2.021 -2.258,4.162c-0.459,1.155 -0.689,2.14 -0.689,2.954c0,3.177 1.91,5.495 5.725,6.938c0.896,0.349 2.109,0.578 3.643,0.696c3.125,0 6.428,-1.739 9.895,-5.206c0,-0.726 -0.289,-1.244 -0.867,-1.563h-0.518c-4.518,0 -6.77,-1.214 -6.77,-3.643c0,-3.592 1.096,-5.384 3.295,-5.384c1.912,0 3.533,1.332 4.859,3.991c1.215,-0.015 3.191,-0.008 5.924,0.022V40.725z" id="path_6"/><path fill="#304FFE" d="M19.635,22.116c2.658,1.007 3.992,1.703 3.992,2.081v0.17c-1.074,2.429 -1.822,3.644 -2.26,3.644c-0.895,0 -2.168,-0.519 -3.82,-1.563c-0.689,1.77 -1.273,2.755 -1.732,2.954h-0.172c-1.043,0 -2.316,-0.577 -3.82,-1.732v-0.178c0,-1.044 0.637,-2.369 1.91,-3.991h0.35c0.947,0.2 2.17,0.777 3.643,1.732h0.17C18.732,23.211 19.316,22.167 19.635,22.116z" id="path_7"/><path fill="#f06022" d="M23.404,57.602l0.178,0.155v0.474c-0.896,1.926 -2.146,3.273 -3.754,4.059c-4.977,2.703 -7.738,4.058 -8.287,4.058c-0.199,0 -0.303,-0.163 -0.303,-0.481c0.473,-1.836 1.518,-3.08 3.125,-3.731l8.893,-4.532H23.404z" id="path_8"/><path fill="#f06022" d="M22.168,53.7c0.207,0 0.303,0.147 0.303,0.451c-0.576,1.682 -2.287,3.191 -5.139,4.539l-6.576,3.6l-0.148,-0.155v-0.171c0.623,-2.199 1.615,-3.555 2.971,-4.058l7.338,-3.755L22.168,53.7z" id="path_9"/></svg>