<svg id="vector" xmlns="http://www.w3.org/2000/svg" width="75" height="67" viewBox="0 0 83 73"><path fill="#009649" d="M52.299,32.732v-0.157c0.53,-0.74 1.286,-1.746 2.281,-3.027h0.108c0.805,0.865 1.811,1.649 3.026,2.346c0.032,0.033 0.049,0.07 0.049,0.125l-2.2,2.979c-0.021,0.011 -0.059,0.016 -0.113,0.016c-0.064,0 -0.173,-0.027 -0.33,-0.081C54.359,34.587 53.418,33.852 52.299,32.732z" id="path_0"/><path fill="#009649" d="M45.397,48.5v-4.373c1.389,0.162 3,-0.038 4.827,-0.584c1.362,-0.254 3.346,-0.838 5.956,-1.756c-2.324,-1.552 -4.324,-2.33 -6.005,-2.33c-0.946,0 -1.832,0.227 -2.644,0.681c-0.254,0.097 -0.524,0.443 -0.805,1.043c-0.287,0.605 -0.698,0.838 -1.238,0.697c0.032,-0.411 0.471,-1.481 1.313,-3.216c1.141,-1.459 2.211,-2.189 3.2,-2.189c0.308,-0.022 0.6,-0.033 0.886,-0.033c1.271,0 3.46,0.665 6.573,1.989c2.979,1.297 5.286,1.881 6.919,1.757c-0.303,0.843 -0.601,1.681 -0.887,2.519c-0.356,0.946 -0.8,1.719 -1.33,2.309c-1.74,-0.146 -3.907,0.221 -6.508,1.108c-3.399,1.129 -5.535,1.778 -6.41,1.951C48.073,48.418 46.786,48.564 45.397,48.5z" id="path_1"/><path fill="#009649" d="M50.781,26.89l0.983,-2.93l9.546,-4.194c0.13,-0.033 0.188,-0.017 0.188,0.048c0,0.033 -0.016,0.108 -0.048,0.238l-1.281,3.038l-9.167,4.103c-0.119,0.011 -0.189,0.011 -0.222,0C50.737,27.127 50.737,27.03 50.781,26.89z" id="path_2"/><path fill="#000001" d="M33.224,52.646v-0.157c0.53,-0.741 1.286,-1.746 2.281,-3.027h0.107c0.206,0.222 0.769,0.676 1.698,1.362c0.443,0.33 0.892,0.66 1.346,1c0.508,-0.708 1.188,-1.605 2.043,-2.691h0.108c0.805,0.854 1.811,1.627 3.026,2.324c0.033,0.022 0.049,0.07 0.049,0.146l-2.216,2.962c-0.011,0.021 -0.043,0.027 -0.098,0.032c-0.075,-0.005 -0.189,-0.027 -0.352,-0.081c-0.745,-0.351 -1.681,-1.086 -2.8,-2.216v-0.017l-1.945,2.611c-0.011,0.021 -0.044,0.032 -0.098,0.032c-0.075,0 -0.189,-0.027 -0.346,-0.081C35.278,54.5 34.343,53.765 33.224,52.646z" id="path_3"/><path fill="#000001" d="M33.998,26.144c1.184,-0.611 2.956,-1.519 5.318,-2.724c0.205,-0.243 0.303,-0.362 0.303,-0.362c-0.535,-0.643 -1.346,-0.984 -2.421,-1.016c-0.931,-0.032 -1.854,-0.048 -2.773,-0.048c0.633,-1.536 1.292,-2.605 1.968,-3.206c2.016,-0.167 3.621,0.032 4.827,0.6c0.508,0.605 0.621,1.194 0.351,1.772c-0.107,0.374 -0.427,1.076 -0.951,2.119c-0.508,0.838 -1.07,1.524 -1.697,2.06c-0.621,0.541 -1.448,0.914 -2.486,1.125c-1.806,0.286 -2.713,0.427 -2.724,0.427c-0.243,0 -0.362,-0.049 -0.362,-0.141C33.349,26.463 33.565,26.263 33.998,26.144z" id="path_4"/><path fill="#f06022" d="M26.457,18.982c-0.384,0.443 -1.048,1.081 -2,1.913c-0.945,0.838 -1.61,1.53 -1.994,2.076c-0.589,0.843 -0.892,1.481 -0.902,1.902c0,0.303 0.049,0.552 0.146,0.741c0.103,0.232 0.356,0.471 0.757,0.714c0.098,-0.065 0.227,-0.313 0.4,-0.757c0.124,-0.34 0.28,-0.508 0.476,-0.508c0.081,0 0.173,0.011 0.265,0.032c0.443,0.443 0.648,0.979 0.621,1.611c0.012,0.551 -0.146,1 -0.47,1.34c-0.319,0.346 -0.633,0.563 -0.925,0.66c-0.297,0.092 -0.529,0.13 -0.697,0.108c-0.973,0 -1.567,-0.557 -1.789,-1.676c-0.032,-0.476 -0.049,-0.984 -0.049,-1.524c0.763,-3.135 2.816,-5.632 6.162,-7.492v-0.048c0.189,0.032 0.281,0.097 0.281,0.194c0,0.054 -0.043,0.167 -0.141,0.341C26.5,18.782 26.457,18.906 26.457,18.982z" id="path_5"/><path fill="#f06022" d="M21.333,32.035l-0.87,0.081l-0.173,-0.27c3.032,-1.583 5.373,-3.086 7.032,-4.514c-0.552,-0.189 -0.93,-0.395 -1.141,-0.616c-0.573,-0.389 -0.859,-1.054 -0.859,-1.995c-0.043,-1.908 0.638,-3.335 2.049,-4.275c0.465,-0.356 1.211,-0.443 2.237,-0.254c1.076,0.583 1.616,1.281 1.616,2.108c0.275,3.124 -1.778,5.94 -6.15,8.454C23.689,31.376 22.446,31.803 21.333,32.035L21.333,32.035zM29.446,24.992c0.395,-0.162 0.589,-0.427 0.589,-0.811c0,-0.665 -0.286,-1.156 -0.854,-1.47c-0.584,-0.243 -1.232,-0.254 -1.951,-0.033c-0.476,0.346 -0.719,0.676 -0.729,0.979c-0.027,0.297 0.184,0.713 0.638,1.254c0.443,0.211 0.789,0.319 1.043,0.319C28.522,25.3 28.944,25.225 29.446,24.992z" id="path_6"/><path fill="#FB8C00" d="M24.749,52.559c1.951,-0.411 3.373,-1.346 4.26,-2.8c0.476,-0.773 0.811,-1.73 1.011,-2.87c0.098,-0.535 0.189,-1.579 0.286,-3.119l0.944,-0.049v-4.7c-0.611,-0.059 -1.233,-0.175 -1.863,-0.348c-0.465,-0.162 -0.87,-0.47 -1.222,-0.935c-0.199,-0.222 -0.454,-0.638 -0.772,-1.249c-0.319,0.768 -0.476,1.514 -0.476,2.232c0,0.676 0.13,1.324 0.378,1.946c0.065,0.157 0.514,0.957 1.347,2.389c0.562,0.973 0.8,1.827 0.713,2.567c-0.378,1.016 -1.232,1.94 -2.562,2.789c-1.119,0.665 -2.249,1.319 -3.39,1.962c-0.433,0.275 -1.243,0.686 -2.427,1.238c-1.043,0.47 -1.827,0.924 -2.356,1.362c0.032,0.216 0.313,0.33 0.838,0.33C21.241,53.083 23.003,52.835 24.749,52.559z" id="path_7"/><path fill="#000001" d="M32.16,43.673c0.746,-0.065 1.346,-0.189 1.789,-0.378c1.075,-0.421 1.843,-1.027 2.297,-1.805c0.254,-0.454 0.563,-1.135 0.936,-2.043c0.503,2.378 0.827,3.773 0.962,4.184c0.54,1.519 1.313,2.676 2.33,3.465c1.583,1.005 3.367,1.481 5.351,1.427v-0.008v-4.348v-0.033c-1.032,-0.027 -2.026,-0.2 -2.979,-0.503c-2.064,-0.643 -3.476,-2.248 -4.227,-4.816c-0.313,-1.065 -0.557,-2.357 -0.729,-3.881l-0.379,-3.94h-0.378c-0.676,2.524 -0.892,4.178 -0.648,4.973c0,0.476 0.027,0.924 0.092,1.346c-1.021,1.173 -2.481,1.756 -4.367,1.756c-0.317,0 -0.637,-0.015 -0.959,-0.046v4.7L32.16,43.673z" id="path_8"/></svg>