<svg id="vector" xmlns="http://www.w3.org/2000/svg" width="75" height="67" viewBox="0 0 83 73"><path fill="#9e3b21" d="M42.918,17.487l0.169,0.169c0,2.226 -1.761,4.536 -5.282,6.93c-2.063,0.88 -4.155,1.324 -6.275,1.324l-1.486,-0.169c-0.549,2.092 -0.937,3.141 -1.154,3.141c-0.247,0 -0.578,-0.88 -0.993,-2.641c-0.769,-1.049 -2.035,-2.367 -3.797,-3.965v-0.331c0.388,-2.197 0.831,-3.296 1.324,-3.296c2.148,2.31 4.79,3.465 7.924,3.465C36.981,22.114 40.171,20.572 42.918,17.487z" id="path_0"/><path fill="#000001" d="M63.867,48.28c2.311,1.155 3.466,2.148 3.466,2.972c-1.099,2.176 -1.761,3.275 -1.979,3.303h-0.331c-1.69,-0.852 -2.739,-1.627 -3.134,-2.31C62.268,50.992 62.93,49.668 63.867,48.28z" id="path_1"/><path fill="#000001" d="M57.266,43.906h1.901c2.008,-0.274 5.198,-1.021 9.572,-2.225v-0.169c-3.986,-1.761 -6.516,-2.641 -7.593,-2.641c-1.458,0 -2.444,0.824 -2.973,2.479l-0.493,0.331c-0.218,0 -0.331,-0.169 -0.331,-0.5c0.55,-3.296 2.036,-4.951 4.459,-4.951h0.823c1.021,0 4.487,1.155 10.403,3.465l4.458,0.331l0.324,0.5c-0.077,0.74 -0.739,2.169 -1.979,4.29h-0.493l-0.662,-0.169H73.86c-8.586,2.536 -13.594,3.853 -15.023,3.965h-1.57V43.906z" id="path_2"/><path fill="#000001" d="M70.301,55.831c0.169,-0.091 0.219,0.056 0.148,0.458c-0.937,2.197 -2.374,3.732 -4.311,4.599l-7.121,3.571c-0.303,-0.084 -0.358,-0.331 -0.169,-0.74c0.951,-1.831 1.6,-2.916 1.944,-3.261L70.301,55.831z" id="path_3"/><path fill="#213877" d="M57.618,48.611c-3.204,0.19 -5.535,-1.289 -6.993,-4.437c-0.704,-1.169 -1.359,-9.05 -1.979,-23.644v-0.331c0.408,-2.422 1.015,-3.634 1.811,-3.634l0.831,-0.162c1.014,0 2.557,0.332 4.62,0.986v0.331c-0.112,0.331 -0.444,0.5 -0.993,0.5h-2.803c-0.578,0 -1.127,0.324 -1.655,0.986c0.514,12.671 1.261,20.01 2.254,22.017c0.985,2.007 2.627,2.902 4.908,2.683V48.611z" id="path_4"/><path fill="#9e3b21" d="M44.045,30.285c1.058,-0.091 1.606,0.183 1.648,0.831v0.986c-0.274,2.641 -0.55,3.965 -0.824,3.965h-0.169c-0.204,-0.774 -0.866,-1.155 -1.979,-1.155c-2.282,0 -4.705,1.705 -7.262,5.113v0.331c0,0.549 1.874,1.049 5.613,1.486c0.986,0.965 1.486,2.008 1.486,3.134c0,3.113 -2.754,6.466 -8.255,10.072c-1.43,0.768 -2.859,1.155 -4.296,1.155c-3.769,0 -6.459,-2.311 -8.086,-6.931c-0.521,-1.613 -0.57,-3.86 -0.141,-6.74c0.423,-2.881 1.697,-4.663 3.817,-5.353l0.289,0.042c0.408,0.218 0.112,0.845 -0.901,1.888c-1.008,1.035 -1.648,2.388 -1.909,4.057v1.317c0,2.641 1.43,4.789 4.289,6.437c0.993,0.444 2.043,0.662 3.142,0.662h0.662c3.19,0 6.381,-1.542 9.571,-4.621l-5.12,-1.155c-0.881,-0.584 -1.317,-1.352 -1.317,-2.317v-1.979c0.043,-3.028 1.473,-5.782 4.29,-8.275C39.644,32.152 41.455,31.166 44.045,30.285z" id="path_5"/><path fill="#213877" d="M12.187,43.911c1.521,0 3.057,0.761 4.6,2.289c0.147,0.261 0.092,0.465 -0.176,0.62c-0.268,0.148 -0.515,0.112 -0.732,-0.106c-0.662,-0.591 -1.6,-0.887 -2.811,-0.887h-0.514c-0.508,0 -1.099,0.218 -1.775,0.641c0,1.239 1.486,2 4.458,2.289l2.951,-1.155l0.127,0.394c0,1.388 -1.711,2.627 -5.12,3.712l-4.727,2.684l-0.493,0.126c-0.189,0.042 -0.323,-0.042 -0.394,-0.247c0,-0.746 1.07,-1.768 3.197,-3.078v-0.126c-1.028,-0.564 -1.542,-1.374 -1.542,-2.43C9.715,45.481 10.702,43.911 12.187,43.911z" id="path_6"/><path fill="#213877" d="M16.745,32.127c0.169,-0.098 0.218,0.057 0.147,0.458c-0.937,2.197 -2.373,3.733 -4.311,4.599l-7.12,3.571c-0.303,-0.084 -0.359,-0.331 -0.169,-0.747c0.95,-1.831 1.599,-2.916 1.943,-3.261L16.745,32.127z" id="path_7"/><path fill="#213877" d="M47.156,12.98c0,0.987 0.759,1.847 1.867,1.847c1.193,0 2.106,-0.65 2.489,-1.757c0.195,-0.56 0.285,-1.108 0.285,-1.656c0,-0.995 -0.548,-1.84 -1.175,-2.354c-0.395,-0.331 -0.887,-0.518 -1.149,-0.518C48.771,8.542 47.156,11.568 47.156,12.98L47.156,12.98zM50.919,12.259c0,0.022 -0.012,0.064 -0.042,0.109c-0.297,0.383 -1.231,0.589 -1.604,0.589c-0.646,0 -1.217,-0.447 -1.217,-0.819c0,-0.33 0.315,-1.021 0.909,-1.393c0.045,-0.034 0.131,-0.064 0.176,-0.064c0.726,0 1.405,0.8 1.747,1.457C50.908,12.18 50.919,12.236 50.919,12.259z" id="path_8"/></svg>