<svg id="vector" xmlns="http://www.w3.org/2000/svg" width="75" height="67" viewBox="0 0 83 73"><path fill="#213877" d="M63.629,12.211l0.18,0.18c0,2.37 -1.875,4.83 -5.625,7.38c-2.197,0.938 -4.426,1.41 -6.682,1.41l-1.584,-0.18c-0.584,2.227 -0.996,3.345 -1.229,3.345c-0.264,0 -0.615,-0.938 -1.059,-2.813c-0.816,-1.118 -2.168,-2.521 -4.043,-4.223v-0.353c0.414,-2.34 0.885,-3.51 1.41,-3.51c2.287,2.46 5.102,3.689 8.438,3.689C57.307,17.138 60.703,15.496 63.629,12.211z" id="path_0"/><path fill="#FFAB00" d="M59.045,52.065c0.256,0.03 0.504,-0.104 0.752,-0.397c-0.467,-0.569 -0.705,-1.162 -0.705,-1.777v-1.582c0.563,-5.152 2.609,-7.732 6.156,-7.732c1.785,0 3.721,0.938 5.797,2.813c0.766,0.292 1.172,0.585 1.23,0.877v0.173c0,0.271 -0.291,0.442 -0.877,0.532c0,-0.502 -1.523,-0.907 -4.568,-1.229h-0.705c-3.283,0.495 -4.92,1.372 -4.92,2.632c0,1.732 1.695,3.022 5.094,3.87l1.229,0.173c0.443,0 2.672,-1.11 6.684,-3.338h0.172l0.354,0.353c0,2.431 -2.693,5.07 -8.086,7.913c-3.84,1.17 -6.18,1.755 -7.027,1.755c-0.195,0 -0.383,-0.008 -0.578,-0.022V52.065z" id="path_1"/><path fill="#FFAB00" d="M71.639,25.718c0.18,-0.105 0.232,0.06 0.156,0.487c-0.996,2.34 -2.527,3.975 -4.59,4.897l-7.582,3.803c-0.322,-0.09 -0.383,-0.353 -0.18,-0.795c1.012,-1.95 1.703,-3.105 2.07,-3.473L71.639,25.718z" id="path_2"/><path fill="#213877" d="M59.422,57.098c-3.414,0.202 -5.896,-1.373 -7.449,-4.726c-0.748,-1.244 -1.447,-9.638 -2.107,-25.177v-0.353c0.436,-2.58 1.08,-3.87 1.928,-3.87l0.885,-0.173c1.08,0 2.723,0.353 4.92,1.05v0.353c-0.119,0.353 -0.473,0.532 -1.057,0.532h-2.984c-0.615,0 -1.201,0.346 -1.764,1.051c0.549,13.492 1.344,21.308 2.4,23.444c1.051,2.138 2.797,3.091 5.229,2.858V57.098z" id="path_3"/><path fill="#000001" d="M38.789,27.563c1.619,0 3.254,0.817 4.896,2.445c0.158,0.277 0.098,0.495 -0.188,0.66c-0.285,0.157 -0.547,0.119 -0.779,-0.113c-0.705,-0.63 -1.703,-0.944 -2.984,-0.944h-0.557c-0.539,0 -1.17,0.225 -1.889,0.682c0,1.32 1.582,2.131 4.746,2.438l3.143,-1.229l0.135,0.42c0,1.478 -1.822,2.798 -5.451,3.952l-5.033,2.858l-0.525,0.127c-0.201,0.045 -0.344,-0.045 -0.42,-0.263c0,-0.787 1.141,-1.883 3.406,-3.27v-0.135c-1.096,-0.601 -1.643,-1.463 -1.643,-2.596C36.156,29.243 37.205,27.563 38.789,27.563z" id="path_4"/><path fill="#000001" d="M32.564,51.646c4.604,0.337 7.176,-0.376 7.738,-2.153c0,-0.614 -0.584,-2.137 -1.762,-4.567l0.533,-4.567h0.344c1.531,2.633 2.287,5.272 2.287,7.905v1.582c0,1.058 -0.254,2.168 -0.756,3.33c-0.504,1.162 -1.283,2.146 -2.326,2.933c-1.049,0.795 -3.066,1.125 -6.059,0.99V51.646z" id="path_5"/><path fill="#D50000" d="M33.404,57.098h-0.129c-2.67,0 -4.836,-1.703 -6.51,-5.101h-0.172c-0.848,3.226 -2.609,5.625 -5.273,7.208c-2.287,1.058 -5.393,1.583 -9.314,1.583l-0.18,-0.173v-0.181c0.09,-0.322 2.43,-1.433 7.035,-3.337c2.311,-1.141 4.365,-2.782 6.15,-4.92c0.465,-0.585 0.877,-1.471 1.229,-2.641c-0.584,-6.21 -0.877,-10.837 -0.877,-13.882c0.232,-2.813 0.586,-4.223 1.051,-4.223c0.441,0 0.914,4.627 1.41,13.89c-0.016,4.2 1.844,6.458 5.58,6.766V57.098z" id="path_6"/><path fill="#f06022" d="M31.881,20.581l0.18,0.157v0.48c-0.914,1.95 -2.182,3.314 -3.803,4.11c-5.039,2.737 -7.836,4.109 -8.393,4.109c-0.209,0 -0.314,-0.165 -0.314,-0.487c0.488,-1.86 1.545,-3.12 3.166,-3.78l9.014,-4.59H31.881z" id="path_7"/><path fill="#f06022" d="M30.629,16.628c0.201,0 0.307,0.149 0.307,0.457c-0.584,1.702 -2.316,3.232 -5.205,4.598l-6.66,3.646l-0.148,-0.158v-0.172c0.629,-2.228 1.627,-3.601 3.006,-4.11l7.426,-3.803L30.629,16.628z" id="path_8"/><path fill="#D50000" d="M8.795,29.498c1.434,0 4.365,2.228 8.783,6.683c3.406,4.103 5.1,7.965 5.1,11.603v1.402c-0.09,2.461 -0.322,3.69 -0.705,3.69l-0.352,-0.345v-2.115c0,-3.338 -2.461,-7.44 -7.381,-12.3l-0.877,-0.533c-0.322,1.178 -0.615,1.763 -0.877,1.763l-4.223,-5.272l0.18,-4.395l0.172,-0.181H8.795z" id="path_9"/></svg>