<svg id="vector" xmlns="http://www.w3.org/2000/svg" width="75" height="67" viewBox="0 0 83 73"><path fill="#009649" d="M61.414,40.185h0.839c5.225,-0.101 8.692,-0.831 10.412,-2.208l0.338,-0.666c-0.223,-0.537 -0.502,-0.803 -0.84,-0.803c-0.809,0.451 -1.705,0.674 -2.687,0.674h-0.172c-2.909,-0.336 -4.422,-1.512 -4.53,-3.525v-0.173c0.28,-3.806 1.176,-5.704 2.688,-5.704h0.84c2.586,-0.129 4.551,1.885 5.876,6.041l0.165,1.685v0.337c-0.036,4.113 -1.512,6.83 -4.43,8.141c-1.031,0.66 -3.869,0.989 -8.499,0.989V40.185z" id="path_0"/><path fill="#009649" d="M68.802,19c1.82,0.559 3.39,1.455 4.701,2.688v0.164c0,0.703 -0.724,1.82 -2.179,3.361c-0.451,0 -1.963,-0.559 -4.536,-1.676v0.164c-0.896,1.734 -1.455,2.631 -1.685,2.688c-1.455,-0.309 -2.688,-0.982 -3.69,-2.014c0.674,-2.803 1.233,-4.199 1.677,-4.199c0.365,0 1.705,0.674 4.035,2.014C67.125,21.602 67.684,20.541 68.802,19z" id="path_1"/><path fill="#009649" d="M73.317,8.873c0.172,-0.1 0.223,0.058 0.15,0.467c-0.953,2.235 -2.414,3.798 -4.385,4.68l-7.246,3.633c-0.309,-0.086 -0.365,-0.337 -0.172,-0.76c0.967,-1.863 1.627,-2.967 1.979,-3.318L73.317,8.873z" id="path_2"/><path fill="#000001" d="M61.428,44.986c-0.15,0.014 -0.309,0.021 -0.459,0.021h-0.846c-1.312,0 -2.207,-0.107 -2.688,-0.337c-0.975,3.77 -2.114,6.077 -3.418,6.923c-1.305,0.846 -4.25,1.563 -8.837,2.15h-0.337c-1.011,-0.115 -1.512,-0.279 -1.512,-0.502c0,-0.337 0.838,-0.73 2.515,-1.176c6.608,-3.023 9.911,-5.21 9.911,-6.55c0,-0.56 -0.781,-1.849 -2.35,-3.862c-0.338,-0.566 -0.502,-1.291 -0.502,-2.187v-1.677c0,-0.846 0.164,-1.29 0.502,-1.348c1.454,2.229 3.92,3.469 7.389,3.734c0.215,0 0.422,0 0.631,-0.015V44.986z" id="path_3"/><path fill="#000001" d="M56.683,55.378c0.173,-0.093 0.223,0.058 0.151,0.466c-0.953,2.236 -2.416,3.799 -4.387,4.68l-7.245,3.633c-0.308,-0.085 -0.366,-0.336 -0.173,-0.752c0.969,-1.863 1.627,-2.967 1.979,-3.318L56.683,55.378z" id="path_4"/><path fill="#9e3b21" d="M31.305,48.914h0.336c1.147,0.25 2.38,0.924 3.699,2.021V51.1c-0.76,2.293 -1.427,3.525 -2.014,3.697c-1.713,-0.336 -2.996,-0.896 -3.863,-1.684v-0.165C29.463,51.629 30.08,50.289 31.305,48.914z" id="path_5"/><path fill="#9e3b21" d="M37.526,47.401h0.164c1.147,0.172 2.438,0.953 3.863,2.351v0.172L39.54,53.45c-2.688,-0.867 -4.035,-1.599 -4.035,-2.187C36.372,48.691 37.045,47.401 37.526,47.401z" id="path_6"/><path fill="#9e3b21" d="M29.815,41.23c4.4,0.043 6.857,-0.781 7.396,-2.479c0,-0.588 -0.56,-2.043 -1.685,-4.365l0.509,-4.365h0.33c1.462,2.516 2.187,5.039 2.187,7.555v1.512c0,1.011 -0.244,2.071 -0.725,3.182c-0.48,1.111 -1.226,2.05 -2.222,2.803c-1.003,0.76 -2.931,1.074 -5.79,0.945V41.23z" id="path_7"/><path fill="#9e3b21" d="M38.127,18.097h1.663c2.014,0 3.024,0.753 3.024,2.265c-1.305,3.526 -2.889,5.396 -4.752,5.611l-2.199,0.295c-0.352,0 -0.495,-0.102 -0.445,-0.295c1.777,-0.938 3.44,-2.057 4.981,-3.34c-0.545,-0.508 -1.147,-0.76 -1.806,-0.76h-0.467l-1.806,0.151l-0.144,-0.151V21.58C37.032,19.258 37.684,18.097 38.127,18.097z" id="path_8"/><path fill="#213877" d="M23.859,47.867c0.573,0 1.921,0.674 4.035,2.014c0,0.838 -0.674,2.186 -2.021,4.035c-2.688,-0.875 -4.027,-1.656 -4.027,-2.357C21.917,50.935 22.583,49.701 23.859,47.867z" id="path_9"/><path fill="#213877" d="M17.746,41.23c1.196,0.015 1.935,-0.007 2.229,-0.064c2.521,-0.767 4.242,-2.4 5.166,-4.887c0.137,-0.48 0.416,-0.538 0.839,-0.172c0.223,0.193 0.395,0.98 0.502,2.35c1.526,2.057 3.433,2.982 5.712,2.773h0.444v4.787h-0.107c-3.569,-0.164 -6.199,-1.791 -7.897,-4.873h-0.165c-1.19,2.509 -2.759,4.049 -4.701,4.623c-0.588,0.164 -1.262,0.25 -2.021,0.25V41.23z" id="path_10"/><path fill="#f06022" d="M30.051,21.136l0.172,0.15v0.458c-0.875,1.863 -2.086,3.168 -3.634,3.928C21.774,28.288 19.1,29.6 18.57,29.6c-0.2,0 -0.301,-0.158 -0.301,-0.466c0.466,-1.777 1.476,-2.981 3.024,-3.612l8.614,-4.386H30.051z" id="path_11"/><path fill="#f06022" d="M28.854,17.359c0.193,0 0.294,0.143 0.294,0.437c-0.56,1.627 -2.215,3.089 -4.974,4.394l-6.364,3.482l-0.144,-0.15v-0.165c0.603,-2.128 1.556,-3.439 2.875,-3.927l7.094,-3.634L28.854,17.359z" id="path_12"/><path fill="#000001" d="M17.79,46.018c-3.262,0.194 -5.634,-1.311 -7.117,-4.515c-0.717,-1.189 -1.383,-9.209 -2.014,-24.059v-0.337C9.075,14.643 9.69,13.41 10.5,13.41l0.846,-0.165c1.031,0 2.602,0.337 4.701,1.003v0.338c-0.115,0.336 -0.451,0.508 -1.011,0.508h-2.853c-0.587,0 -1.146,0.33 -1.684,1.004c0.523,12.893 1.283,20.359 2.293,22.402c1.004,2.043 2.674,2.953 4.996,2.73V46.018z" id="path_13"/></svg>