<svg id="vector" xmlns="http://www.w3.org/2000/svg" width="75" height="67" viewBox="0 0 83 73"><path fill="#000001" d="M71.713,25.573c0.99,0 2.342,0.817 4.043,2.46v0.353c-1.146,2.46 -1.904,3.69 -2.287,3.69l-4.043,-2.28h-0.18c-1.141,1.958 -1.898,3.015 -2.279,3.157h-0.18c-2.574,-1.14 -3.863,-2.018 -3.863,-2.632c0.938,-2.58 1.754,-3.87 2.459,-3.87l4.217,2.287C70.273,27.358 70.979,26.308 71.713,25.573z" id="path_0"/><path fill="#000001" d="M67.139,20.127c1.148,0 2.43,0.99 3.869,2.985c-0.381,0.907 -1.146,1.965 -2.287,3.165h-0.352c-1.021,-0.232 -2.139,-0.878 -3.338,-1.935v-0.525C65.121,22.88 65.818,21.65 67.139,20.127z" id="path_1"/><path fill="#000001" d="M55.82,39.35h0.068c2.723,-0.12 4.598,-1.433 5.625,-3.952c0,-0.353 0.232,-0.645 0.705,-0.885h0.352c0.234,0 0.354,0.18 0.354,0.532l-0.18,1.05c0.998,1.763 2.055,2.64 3.164,2.64h0.879c1.521,0 2.699,-1.522 3.518,-4.567h0.18c0.172,0.022 0.465,0.729 0.877,2.108c0.998,0.877 1.988,1.402 2.984,1.582c1.17,0 1.764,-0.705 1.764,-2.107c0.111,-2.228 0.344,-3.345 0.697,-3.345c0.473,0.997 0.705,2.228 0.705,3.689c0,4.343 -1.059,6.511 -3.166,6.511c-1.643,0 -2.984,-0.825 -4.041,-2.468h-0.354c-0.727,2.347 -1.904,3.518 -3.518,3.518h-0.172c-1.434,0 -3.076,-1.11 -4.92,-3.338c-1.553,2.692 -3.316,4.043 -5.273,4.043H55.82V39.35z" id="path_2"/><path fill="#000001" d="M73.094,8.893c0.18,-0.105 0.232,0.06 0.158,0.487c-0.998,2.34 -2.527,3.975 -4.59,4.897l-7.584,3.803c-0.322,-0.09 -0.381,-0.353 -0.18,-0.795c1.014,-1.95 1.703,-3.105 2.07,-3.473L73.094,8.893z" id="path_3"/><path fill="#64DD17" d="M56.707,44.361h-0.443c-4.244,0 -6.885,-2.985 -7.904,-8.963l-1.059,-17.055c0.443,-2.46 0.908,-3.863 1.41,-4.216h0.172c0.234,0 0.354,0.173 0.354,0.525c0,11.633 0.758,18.982 2.287,22.058c1.553,1.718 3.277,2.588 5.184,2.617V44.361z" id="path_4"/><path fill="#0091EA" d="M26.932,39.35c1.732,-0.217 2.596,-0.555 2.596,-1.012c0,-3.488 1.057,-7.703 3.164,-12.653c0.293,-0.645 0.586,-0.704 0.877,-0.18c0.766,1.643 2.107,2.992 4.043,4.043c3.99,1.935 5.979,4.574 5.979,7.912c0,3.487 -0.758,5.482 -2.289,5.978l-1.754,0.172l-6.684,-0.352c-1.859,0.795 -3.832,1.162 -5.932,1.103V39.35L26.932,39.35zM36.914,38.518l4.387,0.172l0.705,-0.172c-1.08,-1.5 -2.49,-2.67 -4.215,-3.518C37.469,35 37.176,36.17 36.914,38.518L36.914,38.518zM31.109,36.23c0,1.11 0.877,1.815 2.639,2.108c1.523,-0.848 2.281,-1.726 2.281,-2.633c-0.525,-2.115 -1.402,-3.165 -2.633,-3.165C32.137,32.541 31.371,33.77 31.109,36.23z" id="path_5"/><path fill="#0091EA" d="M41.369,47.435c0.18,-0.097 0.232,0.061 0.158,0.488c-0.998,2.34 -2.529,3.975 -4.592,4.897l-7.582,3.803c-0.322,-0.091 -0.383,-0.354 -0.18,-0.788c1.012,-1.95 1.703,-3.104 2.07,-3.473L41.369,47.435z" id="path_6"/><path fill="#f06022" d="M27.764,44.383c-3.014,-0.203 -5.752,-1.853 -8.213,-4.943h-0.18c-1.049,6.091 -3.396,9.136 -7.027,9.143h-0.533c-1.574,-0.007 -3.104,-1.409 -4.566,-4.222c-1.17,-3.953 -1.756,-6.945 -1.756,-8.963v-1.41c0,-0.878 0.174,-1.35 0.525,-1.402c0.496,0.263 1.088,2.183 1.77,5.768c0.684,3.577 2.086,5.287 4.209,5.13c4.102,-0.675 6.27,-3.022 6.502,-7.035l-1.582,-5.444v-1.936c0.059,-2.348 0.291,-3.518 0.705,-3.518c0.232,0.525 0.412,1.058 0.523,1.583l2.461,7.732c1.936,3.135 4.328,4.62 7.162,4.439V44.383z" id="path_7"/><path fill="#f06022" d="M20.736,55.281l0.18,0.157v0.479c-0.906,1.95 -2.174,3.315 -3.803,4.11c-5.039,2.737 -7.838,4.11 -8.393,4.11c-0.201,0 -0.307,-0.165 -0.307,-0.487c0.48,-1.86 1.537,-3.12 3.164,-3.78l9.008,-4.59H20.736z" id="path_8"/><path fill="#f06022" d="M19.484,51.328c0.209,0 0.307,0.15 0.307,0.458c-0.584,1.702 -2.316,3.232 -5.205,4.597l-6.66,3.646l-0.148,-0.157v-0.173c0.629,-2.228 1.635,-3.6 3.006,-4.11l7.434,-3.802L19.484,51.328z" id="path_9"/></svg>