<svg id="vector" xmlns="http://www.w3.org/2000/svg" width="75" height="67" viewBox="0 0 83 73"><path fill="#FB8C00" d="M51.777,44.303c0.367,0 0.75,0 1.148,0l0.877,-0.441c0.555,-1.141 1.379,-2.543 2.459,-4.216l-1.754,-13.537c0.584,-2.813 1.109,-4.215 1.582,-4.215l0.877,3.337c0.818,1.141 1.23,2.197 1.23,3.165c-0.584,1.08 -0.877,1.966 -0.877,2.633v0.353l0.352,5.625v0.885c1.816,-1.53 4.246,-2.362 7.291,-2.505c3.518,0.495 5.271,1.665 5.271,3.51v1.23c-0.584,2.61 -1.463,4.604 -2.633,5.978c-3.547,1.994 -7.439,3.06 -11.691,3.209h-1.936c-0.771,0 -1.508,0 -2.197,0V44.303L51.777,44.303zM55.205,44.393h0.352c5.363,-0.149 9.557,-1.102 12.57,-2.857c-1.373,-1.409 -2.369,-2.107 -2.984,-2.107h-1.41C59.719,39.571 56.877,41.229 55.205,44.393z" id="path_0"/><path fill="#FB8C00" d="M71.352,20.701c0.182,-0.105 0.234,0.06 0.158,0.487c-0.998,2.34 -2.527,3.975 -4.59,4.898l-7.582,3.803c-0.322,-0.09 -0.383,-0.354 -0.18,-0.795c1.012,-1.951 1.701,-3.105 2.068,-3.473L71.352,20.701z" id="path_1"/><path fill="#009649" d="M40.361,26.987h0.174c1.904,0.592 3.254,1.35 4.041,2.287v0.352c-0.906,2.58 -1.672,3.871 -2.287,3.871l-4.043,-2.115C38.982,28.809 39.688,27.338 40.361,26.987z" id="path_2"/><path fill="#009649" d="M52.311,49.313c-0.113,0 -0.232,0 -0.346,0h-1.582c-1.584,0 -3.406,-0.997 -5.453,-2.984c-3.518,1.928 -7.313,2.925 -11.385,2.984v-4.986c2.129,0.143 4.867,-0.301 8.219,-1.344v-0.172c-1.611,-1.058 -3.135,-1.582 -4.566,-1.582l-1.41,0.172l-0.354,-0.877c0.473,-3.166 1.824,-4.748 4.043,-4.748l2.813,-0.172c4.455,0.524 6.684,1.521 6.684,2.984v0.705l-1.059,3.518c0.855,1.035 2.318,1.537 4.396,1.492V49.313z" id="path_3"/><path fill="#009649" d="M46.254,16.359c0.18,-0.105 0.232,0.06 0.158,0.487c-0.998,2.34 -2.527,3.975 -4.59,4.897l-7.584,3.802c-0.322,-0.09 -0.381,-0.353 -0.18,-0.795c1.014,-1.95 1.703,-3.105 2.07,-3.473L46.254,16.359z" id="path_4"/><path fill="#E53935" d="M34.49,49.313l-1.98,-0.021c-1.096,4.822 -3.998,7.26 -8.699,7.32c-2.521,0.111 -3.781,0.066 -3.781,-0.136c0.232,-0.442 1.92,-1.29 5.055,-2.55c3.227,-2.047 5.168,-3.367 5.844,-3.953l0.18,-0.524l-3.076,-0.487c-2.242,-0.586 -3.502,-1.711 -3.779,-3.383v-0.353c0,-2.843 0.697,-4.657 2.107,-5.452l1.059,-0.173c2.076,0 3.771,1.448 5.092,4.351c0.84,0.292 1.5,0.435 1.98,0.42V49.313z" id="path_5"/><path fill="#000001" d="M13.039,19.779c0.354,0 0.705,1.177 1.059,3.517l1.582,3.518l-0.705,4.043l0.525,9.848v1.575c-0.232,4.021 -0.818,6.36 -1.756,7.034l-0.172,-0.172l0.172,-2.641c0,-2.369 -0.764,-9.93 -2.287,-22.672C12.191,21.129 12.717,19.779 13.039,19.779z" id="path_6"/><path fill="#E53935" d="M23.223,29.215c1.354,-0.698 3.379,-1.735 6.076,-3.112c0.234,-0.278 0.346,-0.413 0.346,-0.413c-0.611,-0.735 -1.537,-1.125 -2.766,-1.162c-1.063,-0.036 -2.119,-0.055 -3.168,-0.055c0.723,-1.754 1.477,-2.977 2.248,-3.662c2.303,-0.192 4.137,0.037 5.514,0.685c0.58,0.691 0.711,1.365 0.402,2.025c-0.125,0.426 -0.488,1.229 -1.088,2.42c-0.58,0.957 -1.223,1.742 -1.939,2.354c-0.709,0.617 -1.654,1.043 -2.84,1.284c-2.063,0.327 -3.1,0.487 -3.111,0.487c-0.277,0 -0.414,-0.055 -0.414,-0.16C22.482,29.58 22.729,29.351 23.223,29.215z" id="path_7"/></svg>