<svg id="vector" xmlns="http://www.w3.org/2000/svg" width="75" height="67" viewBox="0 0 83 73"><path fill="#009649" d="M73.782,34.325c1.003,1.01 1.957,3.189 2.853,6.55l0.172,2.187c0,3.948 -1.964,6.636 -5.884,8.063l-1.175,0.164l-2.981,0.043l-2.896,-0.043l-0.165,-0.164v-0.173c0.358,-0.387 2.766,-1.562 7.217,-3.526c2.802,-1.59 4.314,-2.995 4.537,-4.199c-1.455,-3.104 -2.179,-4.895 -2.179,-5.375v-0.502C73.28,35.335 73.445,34.325 73.782,34.325z" id="path_0"/><path fill="#009649" d="M77.222,23.131c0.172,-0.101 0.222,0.058 0.15,0.466c-0.953,2.236 -2.415,3.799 -4.386,4.68l-7.246,3.633c-0.308,-0.086 -0.365,-0.336 -0.172,-0.759c0.967,-1.864 1.626,-2.968 1.978,-3.318L77.222,23.131z" id="path_1"/><path fill="#213877" d="M42.245,38.818h0.064c2.602,-0.114 4.393,-1.369 5.375,-3.776c0,-0.338 0.222,-0.617 0.673,-0.846h0.337c0.222,0 0.337,0.172 0.337,0.508l-0.172,1.004c0.953,1.684 1.963,2.522 3.024,2.522h0.838c1.455,0 2.58,-1.454 3.361,-4.364h0.172c0.165,0.021 0.444,0.695 0.838,2.014c0.953,0.839 1.899,1.34 2.853,1.512c1.118,0 1.684,-0.673 1.684,-2.014c0.107,-2.128 0.33,-3.195 0.667,-3.195c0.452,0.953 0.674,2.128 0.674,3.525c0,4.149 -1.011,6.221 -3.024,6.221c-1.57,0 -2.853,-0.788 -3.863,-2.357h-0.337c-0.695,2.242 -1.82,3.36 -3.361,3.36H52.22c-1.369,0 -2.938,-1.06 -4.701,-3.188c-1.483,2.572 -3.167,3.862 -5.038,3.862h-0.236V38.818z" id="path_2"/><path fill="#213877" d="M55.116,15.698c1.72,0 2.58,1.062 2.58,3.176c0,3.368 -2.874,6.242 -8.629,8.607c-0.824,0.25 -0.924,-0.051 -0.293,-0.903c0.158,-0.323 1.512,-1.333 4.071,-3.024V23.41c-1.104,-0.452 -1.656,-1.412 -1.656,-2.881c0.731,-3.218 1.892,-4.831 3.483,-4.831H55.116L55.116,15.698zM52.55,19.333c0,0.895 0.759,1.447 2.271,1.662h0.294c0.559,0 0.917,-0.208 1.067,-0.609c0,-0.91 -0.659,-1.619 -1.971,-2.121C53.639,18.265 53.088,18.622 52.55,19.333z" id="path_3"/><path fill="#9e3b21" d="M42.983,43.605l-1.892,-0.021c-1.046,4.608 -3.82,6.938 -8.313,6.995c-2.408,0.107 -3.612,0.064 -3.612,-0.129c0.222,-0.424 1.834,-1.232 4.83,-2.438c3.082,-1.956 4.938,-3.217 5.583,-3.776l0.172,-0.502l-2.938,-0.466c-2.143,-0.559 -3.347,-1.634 -3.612,-3.232V39.7c0,-2.717 0.667,-4.451 2.014,-5.211l1.011,-0.164c1.985,0 3.604,1.383 4.866,4.156c0.803,0.279 1.433,0.416 1.892,0.401V43.605z" id="path_4"/><path fill="#9e3b21" d="M35.192,20.508h1.663c2.014,0 3.024,0.753 3.024,2.265c-1.304,3.525 -2.888,5.396 -4.751,5.611l-2.2,0.294c-0.351,0 -0.494,-0.101 -0.444,-0.294c1.777,-0.939 3.44,-2.057 4.981,-3.34c-0.545,-0.509 -1.146,-0.76 -1.806,-0.76h-0.466l-1.806,0.15l-0.143,-0.15v-0.293C34.096,21.669 34.748,20.508 35.192,20.508z" id="path_5"/><path fill="#000001" d="M24.244,12.151c0.309,0 0.531,0.838 0.674,2.522l1.677,2.853v0.172c0,0.752 -0.337,2.1 -1.011,4.027l1.011,11.424v4.027c-0.366,2.33 -1.706,4.623 -4.035,6.888c-2.322,1.792 -4.394,2.688 -6.214,2.688h-1.003c-4.874,0 -8.013,-2.408 -9.41,-7.217l-0.337,-3.024c0,-3.11 1.348,-5.855 4.035,-8.234h0.165l0.337,0.336c0,0.617 -0.781,2.129 -2.351,4.537c-0.337,0.867 -0.502,1.648 -0.502,2.352v0.171c0,2.853 2.293,4.924 6.887,6.214l2.014,0.165h0.336c3.247,0 6.099,-1.513 8.564,-4.536l0.165,-0.502c-1.34,-11.703 -2.014,-18.87 -2.014,-21.5v-0.337C23.233,13.942 23.57,12.939 24.244,12.151z" id="path_6"/><path fill="#f06022" d="M22.635,52.385l0.172,0.15v0.459c-0.867,1.863 -2.079,3.167 -3.633,3.927c-4.816,2.616 -7.489,3.928 -8.02,3.928c-0.194,0 -0.294,-0.158 -0.294,-0.466c0.458,-1.777 1.469,-2.981 3.024,-3.612l8.607,-4.386H22.635z" id="path_7"/><path fill="#f06022" d="M22.639,48.608c0.201,0 0.294,0.143 0.294,0.438c-0.559,1.627 -2.215,3.088 -4.974,4.393l-6.364,3.482l-0.144,-0.15v-0.164c0.603,-2.129 1.563,-3.44 2.874,-3.928l7.102,-3.633L22.639,48.608z" id="path_8"/></svg>