<svg id="vector" xmlns="http://www.w3.org/2000/svg" width="75" height="67" viewBox="0 0 83 73"><path fill="#000001" d="M52.727,44.487h0.908h0.346h0.885c3.188,-0.232 5.121,-0.967 5.797,-2.197c0,-0.967 -1.109,-3.6 -3.338,-7.912l-0.352,-1.402c-0.383,-1.846 -0.367,-3.54 0.045,-5.078c0.404,-1.537 1.215,-2.602 2.414,-3.188c2.783,-1.875 8.115,-4.979 15.998,-9.314l0.172,0.18v0.346c-1.695,2.67 -2.984,5.129 -3.861,7.387h-0.354l-0.18,-0.877v-0.885l0.18,-0.174V21.2h-0.18c-6.533,3.772 -10.928,6.533 -13.186,8.258v0.18c2.469,4.98 3.811,8.783 4.051,11.422c0,1.876 -0.645,3.871 -1.936,5.979c-1.229,1.643 -3.689,2.459 -7.387,2.459h-0.023V44.487z" id="path_0"/><path fill="#9e3b21" d="M41.004,52.663c0.729,0 2.018,0.877 3.863,2.633c0,0.592 -0.697,1.875 -2.107,3.869h-0.352c-0.736,0 -1.846,-0.705 -3.338,-2.107v-0.18C39.07,56.181 39.715,54.771 41.004,52.663z" id="path_1"/><path fill="#9e3b21" d="M47.328,51.785c2.932,1.261 4.395,2.25 4.395,2.985c-0.172,0.555 -0.99,1.785 -2.461,3.689c-1.965,-0.758 -3.367,-1.635 -4.215,-2.633C45.662,53.862 46.42,52.513 47.328,51.785z" id="path_2"/><path fill="#9e3b21" d="M37.9,44.487c1.252,0.016 2.023,-0.008 2.332,-0.066c2.641,-0.803 4.439,-2.514 5.408,-5.115c0.143,-0.503 0.434,-0.563 0.877,-0.181c0.232,0.202 0.412,1.028 0.525,2.46c1.598,2.152 3.592,3.12 5.977,2.902h0.465v5.01h-0.111c-3.736,-0.172 -6.488,-1.875 -8.266,-5.1h-0.172c-1.246,2.625 -2.889,4.238 -4.92,4.838c-0.615,0.172 -1.32,0.262 -2.115,0.262V44.487z" id="path_3"/><path fill="#213877" d="M38.402,49.521c-3.016,-0.203 -5.752,-1.854 -8.213,-4.943h-0.18c-1.051,6.091 -3.396,9.136 -7.027,9.143h-0.533c-1.574,-0.007 -3.104,-1.409 -4.566,-4.223c-1.17,-3.952 -1.756,-6.944 -1.756,-8.962v-1.41c0,-0.878 0.172,-1.35 0.525,-1.402c0.494,0.263 1.088,2.183 1.77,5.768c0.684,3.577 2.086,5.288 4.207,5.13c4.104,-0.675 6.271,-3.022 6.504,-7.035l-1.582,-5.445v-1.935c0.059,-2.347 0.291,-3.518 0.703,-3.518c0.232,0.525 0.414,1.058 0.525,1.583l2.461,7.732c1.936,3.135 4.326,4.619 7.162,4.439V49.521z" id="path_4"/><path fill="#f06022" d="M32.936,17.788l0.18,0.156v0.48c-0.916,1.95 -2.184,3.315 -3.803,4.11c-5.041,2.737 -7.838,4.11 -8.393,4.11c-0.211,0 -0.314,-0.166 -0.314,-0.488c0.486,-1.859 1.545,-3.119 3.164,-3.779l9.016,-4.59H32.936z" id="path_5"/><path fill="#f06022" d="M31.682,13.835c0.203,0 0.309,0.15 0.309,0.457c-0.586,1.703 -2.318,3.233 -5.205,4.598l-6.66,3.646l-0.15,-0.157v-0.173c0.631,-2.228 1.627,-3.601 3.008,-4.11l7.424,-3.803L31.682,13.835z" id="path_6"/><path fill="#00B8D4" d="M8.98,19.963c0.352,0 0.705,1.177 1.057,3.517l1.582,3.518l-0.705,4.043l0.525,9.848v1.575c-0.232,4.021 -0.816,6.36 -1.754,7.034l-0.174,-0.172l0.174,-2.641c0,-2.369 -0.766,-9.93 -2.289,-22.672C8.133,21.313 8.658,19.963 8.98,19.963z" id="path_7"/><path fill="#9e3b21" d="M39.611,29.831c1.359,-0.701 3.395,-1.743 6.105,-3.127c0.236,-0.279 0.348,-0.416 0.348,-0.416c-0.615,-0.737 -1.545,-1.129 -2.779,-1.166c-1.068,-0.037 -2.129,-0.055 -3.184,-0.055c0.727,-1.763 1.482,-2.991 2.258,-3.68c2.314,-0.192 4.158,0.037 5.541,0.688c0.584,0.694 0.713,1.371 0.404,2.035c-0.125,0.429 -0.49,1.235 -1.092,2.433c-0.584,0.961 -1.229,1.748 -1.949,2.363c-0.713,0.62 -1.662,1.049 -2.854,1.29c-2.072,0.329 -3.115,0.49 -3.127,0.49c-0.279,0 -0.416,-0.056 -0.416,-0.161C38.867,30.197 39.115,29.968 39.611,29.831z" id="path_8"/></svg>