<svg id="vector" xmlns="http://www.w3.org/2000/svg" width="75" height="67" viewBox="0 0 83 73"><path fill="#000001" d="M56.108,45.118c-0.032,1.021 -0.194,1.946 -0.492,2.773c-0.335,0.524 -0.584,0.789 -0.74,0.789c-0.174,0.011 -0.249,-0.259 -0.238,-0.805C54.373,41.95 54,36.858 53.529,32.594c-0.221,-2.103 -0.523,-3.827 -0.902,-5.178c-0.162,-0.519 -0.248,-1 -0.271,-1.443c-0.011,-0.821 0.114,-1.773 0.379,-2.849l0.746,-2.756c0.092,-0.086 0.194,-0.13 0.297,-0.13c0.13,0 0.222,0.178 0.271,0.541c0.043,0.492 0.103,0.789 0.184,0.892c0.081,0.103 0.367,0.951 0.865,2.557c0.313,1.043 0.702,1.865 1.156,2.47c0.027,0.2 0.043,0.394 0.043,0.583c0.022,0.4 -0.086,0.952 -0.324,1.654c-0.237,0.703 -0.395,1.189 -0.48,1.464l-0.114,0.476L56.108,45.118z" id="path_0"/><path fill="#00ACC1" d="M45.513,51.707c-1.329,1.395 -2.654,2.308 -3.968,2.741s-2.551,0.757 -3.713,0.967c-1.162,0.211 -2.303,0.368 -3.422,0.476c-0.335,0.033 -0.6,-0.016 -0.789,-0.146c0.157,-0.368 0.806,-0.822 1.946,-1.362c2.756,-1.33 5.962,-3.319 9.626,-5.967c0.298,-0.276 0.616,-0.557 0.957,-0.849c0.346,-0.292 0.52,-0.611 0.52,-0.957c0,-0.098 -0.049,-0.222 -0.136,-0.374c-0.092,-0.151 -0.2,-0.227 -0.324,-0.227c-0.098,0 -0.275,0.129 -0.535,0.395c-0.254,0.265 -0.465,0.378 -0.621,0.346c-0.784,0.394 -1.59,0.589 -2.422,0.589c-0.687,0 -1.309,-0.135 -1.854,-0.4c-0.815,-0.092 -1.557,-0.697 -2.232,-1.806c-0.275,-0.622 -0.41,-1.254 -0.41,-1.897c0,-0.573 0.135,-1.314 0.41,-2.232c0.281,-1.162 0.46,-1.94 0.52,-2.33c0.616,-1.141 1.395,-1.806 2.346,-1.995c0.318,-0.086 0.632,-0.13 0.951,-0.13c0.887,0 1.719,0.254 2.503,0.762c1.6,1.276 2.54,2.951 2.816,5.021C48.081,46.566 47.362,49.69 45.513,51.707z" id="path_1"/><path fill="#00ACC1" d="M38.865,33.696l-0.854,0.097l-0.173,-0.27c2.936,-1.53 5.2,-2.989 6.795,-4.368c-0.541,-0.194 -0.902,-0.389 -1.092,-0.589c-0.552,-0.378 -0.827,-1.038 -0.827,-1.979c-0.055,-1.838 0.6,-3.2 1.968,-4.086c0.442,-0.346 1.156,-0.427 2.14,-0.238c1.044,0.562 1.568,1.243 1.568,2.043c0.286,3.011 -1.697,5.729 -5.941,8.156C41.113,33.042 39.924,33.453 38.865,33.696L38.865,33.696zM46.718,26.859c0.357,-0.13 0.535,-0.395 0.535,-0.795c0,-0.632 -0.27,-1.092 -0.806,-1.378c-0.572,-0.232 -1.205,-0.244 -1.902,-0.043c-0.454,0.346 -0.691,0.648 -0.713,0.902c-0.027,0.335 0.188,0.757 0.653,1.265c0.411,0.189 0.741,0.287 0.995,0.287C45.778,27.167 46.189,27.091 46.718,26.859z" id="path_2"/><path fill="#00ACC1" d="M31.976,53.246c-0.842,0.883 -1.681,1.461 -2.512,1.735c-0.831,0.273 -1.614,0.479 -2.351,0.612c-0.735,0.134 -1.457,0.233 -2.165,0.301c-0.213,0.021 -0.38,-0.01 -0.5,-0.092c0.1,-0.233 0.51,-0.52 1.232,-0.862c1.744,-0.842 3.773,-2.101 6.093,-3.777c0.188,-0.174 0.39,-0.352 0.605,-0.537c0.219,-0.185 0.328,-0.386 0.328,-0.605c0,-0.062 -0.03,-0.14 -0.085,-0.236c-0.059,-0.096 -0.127,-0.144 -0.205,-0.144c-0.062,0 -0.175,0.083 -0.339,0.25c-0.161,0.167 -0.294,0.239 -0.394,0.219c-0.496,0.25 -1.006,0.373 -1.533,0.373c-0.435,0 -0.828,-0.085 -1.173,-0.253c-0.517,-0.058 -0.985,-0.441 -1.413,-1.143c-0.175,-0.393 -0.26,-0.793 -0.26,-1.201c0,-0.362 0.085,-0.831 0.26,-1.413c0.178,-0.735 0.291,-1.228 0.328,-1.475c0.39,-0.722 0.883,-1.143 1.484,-1.262c0.202,-0.055 0.4,-0.082 0.603,-0.082c0.562,0 1.088,0.161 1.584,0.482c1.013,0.807 1.608,1.868 1.782,3.179C33.601,49.992 33.146,51.97 31.976,53.246z" id="path_3"/><path fill="#213877" d="M9.553,43.783c1.232,0.086 2.442,0.13 3.627,0.13c2.902,0 5.696,-0.325 8.389,-0.968c0.097,-0.092 0.146,-0.189 0.146,-0.281c0,-0.065 -0.07,-0.189 -0.205,-0.373c-0.141,-0.189 -0.211,-0.313 -0.211,-0.373c-0.865,-1.141 -2.211,-2.211 -4.038,-3.2c-2.815,-1.605 -4.291,-2.438 -4.416,-2.502c0,-1.584 0.114,-3.103 0.336,-4.562l0.6,0.189c1.849,1.01 3.676,2.021 5.48,3.021c2.076,1.33 3.265,2.935 3.563,4.811c0.188,0.654 0.281,1.319 0.281,1.994c0,1.395 -0.46,3.146 -1.39,5.254c-2.313,1.173 -5.514,1.756 -9.6,1.756c-1.265,0 -2.352,-0.092 -3.26,-0.27C8.855,48.063 9.087,46.523 9.553,43.783z" id="path_4"/><path fill="#213877" d="M10.11,28.632l-0.854,0.097l-0.173,-0.27c2.935,-1.53 5.2,-2.989 6.794,-4.368c-0.54,-0.194 -0.902,-0.389 -1.092,-0.589c-0.551,-0.378 -0.826,-1.038 -0.826,-1.978c-0.055,-1.838 0.6,-3.2 1.967,-4.086c0.443,-0.346 1.157,-0.427 2.141,-0.238c1.043,0.562 1.567,1.243 1.567,2.043c0.287,3.011 -1.697,5.729 -5.94,8.157C12.358,27.978 11.168,28.389 10.11,28.632L10.11,28.632zM17.963,21.794c0.356,-0.13 0.535,-0.395 0.535,-0.794c0,-0.632 -0.271,-1.092 -0.806,-1.378c-0.572,-0.232 -1.205,-0.243 -1.902,-0.043c-0.454,0.346 -0.692,0.649 -0.714,0.903c-0.027,0.335 0.189,0.757 0.654,1.265c0.411,0.189 0.74,0.287 0.994,0.287C17.023,22.102 17.434,22.026 17.963,21.794z" id="path_5"/><path fill="#000001" d="M60.167,28.648l0.984,-2.93l9.546,-4.194c0.129,-0.033 0.188,-0.017 0.188,0.048c0,0.033 -0.016,0.108 -0.048,0.238l-1.281,3.038l-9.168,4.103c-0.118,0.011 -0.188,0.011 -0.222,0C60.124,28.886 60.124,28.789 60.167,28.648L60.167,28.648zM60.594,43.783c1.232,0.086 2.443,0.13 3.627,0.13c2.902,0 5.696,-0.325 8.389,-0.968c0.097,-0.092 0.146,-0.189 0.146,-0.281c0,-0.065 -0.07,-0.189 -0.205,-0.373c-0.141,-0.189 -0.211,-0.313 -0.211,-0.373c-0.864,-1.141 -2.211,-2.211 -4.037,-3.2c-2.816,-1.605 -4.292,-2.438 -4.416,-2.502c0,-1.584 0.113,-3.103 0.335,-4.562l0.6,0.189c1.849,1.01 3.676,2.021 5.48,3.021c2.076,1.33 3.266,2.935 3.563,4.811c0.189,0.654 0.281,1.319 0.281,1.994c0,1.395 -0.46,3.146 -1.39,5.254c-2.313,1.173 -5.513,1.756 -9.6,1.756c-1.265,0 -2.351,-0.092 -3.259,-0.27C59.897,48.063 60.129,46.523 60.594,43.783z" id="path_6"/></svg>