<svg id="vector" xmlns="http://www.w3.org/2000/svg" width="75" height="67" viewBox="0 0 83 73"><path fill="#FF6D00" d="M52.844,49.879c0.24,0 0.487,0 0.75,0h0.18c2.19,-0.135 4.186,-1.957 5.971,-5.467c1.935,-2.934 3.93,-4.396 5.977,-4.396c2.58,0 3.87,1.635 3.87,4.92v0.878c0,1.612 -0.645,3.72 -1.935,6.329l-1.23,0.878c-1.087,0 -3.6,-0.765 -7.56,-2.287c-1.2,1.8 -2.138,2.895 -2.813,3.277c-1.027,0.712 -2.078,1.013 -3.165,0.877h-0.045V49.879L52.844,49.879zM61.679,46.167v0.172c3.045,1.178 4.867,1.763 5.452,1.763c0.232,0 0.353,-0.18 0.353,-0.532c-0.675,-1.755 -1.792,-2.633 -3.345,-2.633C63.059,44.937 62.233,45.349 61.679,46.167z" id="path_0"/><path fill="#FF6D00" d="M67.349,26.24c0.18,-0.105 0.232,0.06 0.157,0.486c-0.997,2.341 -2.527,3.976 -4.59,4.898l-7.582,3.803c-0.323,-0.09 -0.383,-0.354 -0.181,-0.795c1.013,-1.951 1.703,-3.105 2.07,-3.473L67.349,26.24z" id="path_1"/><path fill="#2962FF" d="M53.219,54.889c-3.412,0.203 -5.896,-1.372 -7.447,-4.725c-0.75,-1.245 -1.447,-9.638 -2.107,-25.177v-0.354c0.435,-2.58 1.08,-3.869 1.927,-3.869l0.886,-0.173c1.079,0 2.723,0.353 4.92,1.05v0.353c-0.12,0.353 -0.473,0.532 -1.058,0.532h-2.985c-0.614,0 -1.199,0.346 -1.763,1.05c0.548,13.493 1.343,21.308 2.4,23.445c1.05,2.138 2.798,3.09 5.228,2.857V54.889z" id="path_2"/><path fill="#D50000" d="M31.731,28.519l1.41,4.223c0.704,0.646 1.057,1.17 1.057,1.582l-1.229,5.273l0.173,2.813c0,6.899 -2.46,11.647 -7.381,14.234c-4.005,1.29 -6.817,1.936 -8.437,1.936l-0.181,-0.173v-0.353l3.69,-1.755c1.5,-0.689 3.487,-1.808 5.978,-3.345c2.699,-2.521 4.222,-4.275 4.574,-5.272l-0.442,-7.38l-0.442,-7.388C30.974,29.99 31.386,28.519 31.731,28.519z" id="path_3"/><path fill="#f06022" d="M38.227,18.373l0.18,0.157v0.479c-0.915,1.95 -2.183,3.315 -3.803,4.11c-5.04,2.737 -7.837,4.11 -8.393,4.11c-0.21,0 -0.314,-0.166 -0.314,-0.488c0.487,-1.859 1.545,-3.119 3.165,-3.779l9.015,-4.59H38.227z" id="path_4"/><path fill="#f06022" d="M36.974,14.419c0.202,0 0.308,0.15 0.308,0.457c-0.585,1.703 -2.317,3.233 -5.205,4.598l-6.66,3.646l-0.149,-0.157V22.79c0.63,-2.228 1.627,-3.6 3.007,-4.11l7.425,-3.803L36.974,14.419z" id="path_5"/><path fill="#D50000" d="M13.941,27.29c1.433,0 4.365,2.228 8.782,6.683c3.405,4.103 5.101,7.965 5.101,11.603v1.402c-0.091,2.46 -0.323,3.69 -0.705,3.69l-0.353,-0.346v-2.114c0,-3.338 -2.46,-7.44 -7.38,-12.3l-0.878,-0.533c-0.322,1.178 -0.615,1.762 -0.878,1.762l-4.222,-5.271l0.18,-4.396l0.172,-0.18H13.941z" id="path_6"/></svg>