<svg id="vector" xmlns="http://www.w3.org/2000/svg" width="75" height="67" viewBox="0 0 83 73"><path fill="#304FFE" d="M46.727,41.606c0.255,0.03 0.503,-0.104 0.75,-0.396c-0.465,-0.57 -0.705,-1.163 -0.705,-1.777V37.85c0.563,-5.152 2.61,-7.733 6.157,-7.733c1.785,0 3.721,0.938 5.798,2.813c0.765,0.292 1.17,0.585 1.229,0.878v0.172c0,0.27 -0.292,0.442 -0.877,0.533c0,-0.503 -1.522,-0.908 -4.567,-1.23h-0.705c-3.285,0.494 -4.92,1.373 -4.92,2.633c0,1.732 1.695,3.021 5.093,3.869l1.229,0.173c0.442,0 2.67,-1.11 6.683,-3.337h0.173l0.353,0.352c0,2.431 -2.693,5.07 -8.085,7.913c-3.841,1.169 -6.181,1.755 -7.028,1.755c-0.194,0 -0.382,-0.008 -0.577,-0.022V41.606z" id="path_0"/><path fill="#304FFE" d="M59.32,15.26c0.18,-0.105 0.232,0.06 0.157,0.487c-0.997,2.34 -2.527,3.976 -4.59,4.897l-7.583,3.803c-0.322,-0.09 -0.382,-0.353 -0.18,-0.795c1.013,-1.95 1.702,-3.104 2.07,-3.473L59.32,15.26z" id="path_1"/><path fill="#000001" d="M47.102,46.64c-3.412,0.202 -5.895,-1.373 -7.447,-4.725c-0.75,-1.246 -1.447,-9.639 -2.107,-25.178v-0.353c0.435,-2.58 1.08,-3.87 1.928,-3.87l0.885,-0.173c1.08,0 2.723,0.354 4.92,1.051v0.353c-0.12,0.352 -0.473,0.532 -1.058,0.532h-2.985c-0.614,0 -1.199,0.345 -1.762,1.05c0.547,13.492 1.342,21.308 2.399,23.445c1.05,2.137 2.798,3.09 5.228,2.857V46.64z" id="path_2"/><path fill="#f06022" d="M25.637,28.917c5.978,2.138 8.963,4.777 8.963,7.912l0.18,1.051c-0.502,4.103 -1.853,6.15 -4.05,6.15c0,0.382 -2.925,0.854 -8.783,1.409l-0.18,-0.524c0,-2.933 0.525,-4.396 1.583,-4.396c5.857,-0.473 9.082,-1.178 9.667,-2.114c-2.018,-1.958 -4.657,-3.541 -7.912,-4.74l-0.173,-0.886C25.022,30.207 25.254,28.917 25.637,28.917z" id="path_3"/><path fill="#f06022" d="M33.542,51.8l0.18,0.158v0.479c-0.907,1.951 -2.175,3.316 -3.803,4.111c-5.04,2.736 -7.837,4.109 -8.393,4.109c-0.202,0 -0.307,-0.165 -0.307,-0.487c0.479,-1.86 1.537,-3.12 3.164,-3.78l9.008,-4.59H33.542z" id="path_4"/><path fill="#f06022" d="M32.29,47.847c0.21,0 0.308,0.15 0.308,0.458c-0.585,1.702 -2.317,3.232 -5.205,4.598l-6.66,3.646l-0.149,-0.158v-0.172c0.63,-2.229 1.635,-3.601 3.007,-4.11l7.433,-3.803L32.29,47.847z" id="path_5"/></svg>