<svg id="vector" xmlns="http://www.w3.org/2000/svg" width="75" height="67" viewBox="0 0 83 73"><path fill="#0091EA" d="M60.188,31.951c0.33,0 0.662,1.106 0.992,3.304l1.486,3.303l-0.662,3.797l0.494,9.247v1.479c-0.219,3.775 -0.768,5.973 -1.648,6.606l-0.162,-0.162l0.162,-2.479c0,-2.227 -0.719,-9.326 -2.148,-21.292C59.391,33.219 59.885,31.951 60.188,31.951z" id="path_0"/><path fill="#213877" d="M41.445,50.678h0.332c1.127,0.246 2.338,0.908 3.633,1.986v0.162c-0.746,2.254 -1.4,3.465 -1.979,3.634c-1.684,-0.331 -2.943,-0.88 -3.797,-1.655v-0.162C39.635,53.347 40.242,52.03 41.445,50.678z" id="path_1"/><path fill="#213877" d="M47.559,50.597h0.162c1.127,0.169 2.395,0.937 3.797,2.311v0.169l-1.979,3.465c-2.643,-0.852 -3.967,-1.57 -3.967,-2.147C46.426,51.864 47.088,50.597 47.559,50.597z" id="path_2"/><path fill="#213877" d="M42.168,40.728c4.324,0.042 6.74,-0.768 7.268,-2.438c0,-0.577 -0.549,-2.007 -1.654,-4.289l0.5,-4.289h0.324c1.438,2.472 2.148,4.951 2.148,7.423v1.486c0,0.993 -0.24,2.035 -0.711,3.127c-0.473,1.092 -1.205,2.015 -2.184,2.755c-0.986,0.746 -2.881,1.056 -5.691,0.929V40.728z" id="path_3"/><path fill="#213877" d="M41.865,17.992h1.633c1.979,0 2.973,0.739 2.973,2.226c-1.281,3.465 -2.838,5.304 -4.67,5.515l-2.162,0.289c-0.346,0 -0.486,-0.099 -0.438,-0.289c1.748,-0.923 3.381,-2.021 4.896,-3.282c-0.535,-0.5 -1.127,-0.746 -1.775,-0.746h-0.457l-1.775,0.147l-0.141,-0.147v-0.289C40.787,19.133 41.428,17.992 41.865,17.992z" id="path_4"/><path fill="#FFAB00" d="M28.268,41.037c1.627,0.521 2.889,1.184 3.797,1.979v0.331c0,0.55 -0.605,1.762 -1.816,3.635c-1.127,0 -2.389,-0.605 -3.797,-1.817v-0.331C26.451,43.65 27.057,42.39 28.268,41.037z" id="path_5"/><path fill="#FFAB00" d="M42.818,45.368c-1.5,0 -2.662,-0.231 -3.492,-0.697c-0.408,3.578 -1.176,6.051 -2.311,7.431c-2.719,3.409 -5.529,5.113 -8.416,5.113c-5.311,0 -8.775,-2.31 -10.402,-6.93c-0.324,-0.881 -0.494,-1.817 -0.494,-2.811v-1.317c0,-3.908 1.211,-6.986 3.635,-9.247C21.773,37.079 22,37.459 22,38.065l-2.641,4.789l-0.17,1.647c0,3.719 2.035,6.304 6.105,7.762l4.297,0.331c1.811,0 4.072,-1.05 6.77,-3.134c0.986,-1.6 1.486,-2.754 1.486,-3.473c-0.113,-1.099 -0.832,-2.69 -2.148,-4.782v-3.473l0.492,-0.492c1.197,2.408 3.408,3.57 6.627,3.486V45.368z" id="path_6"/><path fill="#FFAB00" d="M34.494,22.634c0.17,-0.099 0.219,0.056 0.148,0.457c-0.938,2.198 -2.375,3.733 -4.311,4.6l-7.121,3.571c-0.303,-0.085 -0.359,-0.331 -0.168,-0.747c0.949,-1.831 1.598,-2.916 1.943,-3.261L34.494,22.634z" id="path_7"/><path fill="#0091EA" d="M65.117,13.342c0.17,-0.099 0.219,0.056 0.148,0.457c-0.938,2.198 -2.373,3.733 -4.311,4.6l-7.121,3.571c-0.303,-0.085 -0.359,-0.331 -0.168,-0.747c0.951,-1.831 1.598,-2.916 1.943,-3.261L65.117,13.342z" id="path_8"/><path fill="#0091EA" d="M59.17,22.389c1.521,0 3.057,0.761 4.598,2.289c0.148,0.261 0.092,0.465 -0.176,0.62c-0.268,0.147 -0.514,0.112 -0.732,-0.105c-0.662,-0.592 -1.598,-0.888 -2.811,-0.888h-0.514c-0.508,0 -1.098,0.219 -1.775,0.641c0,1.24 1.486,2 4.459,2.289l2.951,-1.155l0.127,0.395c0,1.388 -1.711,2.627 -5.121,3.712l-4.725,2.684l-0.494,0.127c-0.189,0.042 -0.324,-0.043 -0.395,-0.247c0,-0.746 1.07,-1.768 3.197,-3.078v-0.126c-1.027,-0.563 -1.541,-1.374 -1.541,-2.43C56.697,23.96 57.684,22.389 59.17,22.389z" id="path_9"/></svg>