<svg id="vector" xmlns="http://www.w3.org/2000/svg" width="75" height="67" viewBox="0 0 83 73"><path fill="#6200EA" d="M53.523,40.592c0.563,0 1.881,0.662 3.959,1.986c0,0.824 -0.655,2.142 -1.979,3.958c-2.641,-0.852 -3.958,-1.619 -3.958,-2.31C51.608,43.606 52.271,42.396 53.523,40.592z" id="path_0"/><path fill="#6200EA" d="M50.221,33.352c4.324,0.043 6.74,-0.768 7.269,-2.437c0,-0.578 -0.55,-2.008 -1.655,-4.29l0.5,-4.289h0.324c1.437,2.473 2.148,4.951 2.148,7.424v1.486c0,0.993 -0.239,2.035 -0.712,3.127c-0.472,1.092 -1.204,2.015 -2.183,2.754c-0.986,0.746 -2.881,1.057 -5.691,0.93V33.352z" id="path_1"/><path fill="#6200EA" d="M60.205,47.445c0.169,-0.092 0.219,0.056 0.147,0.458c-0.937,2.197 -2.373,3.732 -4.31,4.599l-7.121,3.57c-0.303,-0.084 -0.359,-0.33 -0.169,-0.739c0.951,-1.831 1.599,-2.916 1.944,-3.261L60.205,47.445z" id="path_2"/><path fill="#000001" d="M50.437,38.057h-0.042c-3.162,0 -5.311,-1.543 -6.438,-4.621l-0.331,-1.323h-0.331c-0.246,0.88 -2.007,1.43 -5.282,1.654h-0.824c-2.204,0 -3.303,-0.661 -3.303,-1.985v-1.486c0,-1.592 1.211,-3.57 3.634,-5.938c1.458,-1.105 3.106,-2.035 4.951,-2.81l-0.169,-0.493c0.605,-2.754 1.105,-4.128 1.486,-4.128c0.197,0.465 0.472,3.881 0.831,10.234c0.493,4.282 2.43,6.359 5.817,6.254V38.057L50.437,38.057zM35.864,28.485c0.634,0.437 1.684,0.654 3.142,0.654c1.43,-0.105 2.747,-0.38 3.958,-0.824l-0.331,-4.62h-0.162C38.069,25.787 35.864,27.379 35.864,28.485z" id="path_3"/><path fill="#000001" d="M45.669,39.521c0.169,-0.092 0.218,0.057 0.147,0.458c-0.937,2.197 -2.374,3.732 -4.311,4.599l-7.12,3.571c-0.303,-0.085 -0.359,-0.331 -0.17,-0.739c0.951,-1.832 1.6,-2.916 1.944,-3.261L45.669,39.521z" id="path_4"/><path fill="#000001" d="M23.149,36.899c0.16,-0.287 0.478,-0.542 0.954,-0.769c0.477,-0.224 1.156,-0.536 2.036,-0.933c0.802,-0.445 1.248,-0.784 1.338,-1.008c0.091,-0.227 0.2,-0.585 0.325,-1.073c0.183,-0.475 0.384,-0.837 0.605,-1.088c0.219,-0.248 0.534,-0.215 0.939,0.103c0.591,0.904 0.911,1.905 0.956,3.005c-0.117,0.2 -0.222,0.301 -0.314,0.301c-0.06,0 -0.129,-0.067 -0.21,-0.196c-0.064,-0.243 -0.188,-0.52 -0.37,-0.832c-0.143,-0.21 -0.283,-0.377 -0.419,-0.503c-0.167,-0.05 -0.296,-0.012 -0.384,0.119l-0.363,0.949c-0.177,0.663 -0.582,1.116 -1.216,1.364c-0.63,0.367 -1.28,0.603 -1.956,0.706c-0.675,0.103 -1.047,0.188 -1.11,0.257c0,0.225 0.515,0.479 1.542,0.768c0.342,0.069 1.025,0.099 2.056,0.084c0.802,0.063 2.692,0.007 5.674,-0.16c0.996,-0.033 1.755,-0.042 2.277,-0.028c0.749,0.084 1.123,0.208 1.123,0.372c0,0.098 -0.141,0.203 -0.425,0.319c-0.463,0.182 -1.138,0.375 -2.027,0.577c-0.889,0.203 -1.537,0.315 -1.948,0.339c-1.108,0.187 -2.392,0.301 -3.846,0.339c-1.455,0.04 -2.535,-0.01 -3.238,-0.15c-1.541,-0.265 -2.378,-0.655 -2.509,-1.174c-0.069,-0.283 0.014,-0.688 0.253,-1.216C22.906,37.345 22.992,37.188 23.149,36.899z" id="path_5"/></svg>