<svg id="vector" xmlns="http://www.w3.org/2000/svg" width="75" height="67" viewBox="0 0 83 73"><path fill="#009649" d="M62.337,28.164v-0.157c0.53,-0.74 1.287,-1.746 2.281,-3.027h0.108c0.805,0.865 1.811,1.649 3.026,2.346c0.032,0.033 0.049,0.07 0.049,0.125l-2.2,2.979c-0.021,0.011 -0.059,0.016 -0.113,0.016c-0.064,0 -0.173,-0.027 -0.329,-0.081C64.396,30.018 63.456,29.283 62.337,28.164z" id="path_0"/><path fill="#009649" d="M55.435,43.931v-4.373c1.389,0.162 3,-0.038 4.827,-0.584c1.362,-0.254 3.346,-0.838 5.956,-1.756c-2.324,-1.552 -4.324,-2.33 -6.005,-2.33c-0.946,0 -1.832,0.227 -2.644,0.681c-0.254,0.097 -0.523,0.443 -0.805,1.043c-0.287,0.605 -0.697,0.838 -1.238,0.697c0.032,-0.411 0.471,-1.481 1.313,-3.216c1.141,-1.459 2.211,-2.189 3.2,-2.189c0.308,-0.022 0.6,-0.033 0.887,-0.033c1.27,0 3.459,0.665 6.572,1.989c2.979,1.297 5.286,1.881 6.919,1.757c-0.303,0.843 -0.601,1.681 -0.887,2.519c-0.356,0.946 -0.8,1.719 -1.329,2.308c-1.741,-0.146 -3.908,0.222 -6.509,1.108c-3.399,1.129 -5.534,1.778 -6.41,1.951C58.11,43.85 56.823,43.996 55.435,43.931z" id="path_1"/><path fill="#009649" d="M60.818,22.321l0.983,-2.93l9.546,-4.194c0.13,-0.033 0.189,-0.017 0.189,0.048c0,0.033 -0.017,0.108 -0.049,0.238l-1.281,3.038l-9.167,4.103c-0.119,0.011 -0.189,0.011 -0.222,0C60.775,22.559 60.775,22.461 60.818,22.321z" id="path_2"/><path fill="#C62828" d="M55.764,43.92h-1.313c-0.07,0.265 -0.141,0.573 -0.206,0.919c-0.578,4.065 -2.994,6.319 -7.237,6.762c-0.719,0.124 -1.454,0.227 -2.216,0.302c-1.428,0.146 -2.611,0.179 -3.563,0.092c-0.795,-0.103 -1.168,-0.254 -1.124,-0.443c1.859,-0.687 4.567,-1.886 8.124,-3.611c0.908,-0.443 1.806,-0.897 2.691,-1.362c0.989,-0.578 1.768,-1.21 2.33,-1.897c0.248,-0.508 0.141,-0.811 -0.335,-0.903c-2.373,0.114 -3.925,0.065 -4.638,-0.146c-1.563,-0.379 -2.503,-1.319 -2.822,-2.816c0.168,-0.876 0.357,-1.794 0.563,-2.746c0.205,-0.957 0.492,-1.779 0.865,-2.465c0.546,-0.783 1.448,-1.172 2.708,-1.172c0.356,0 0.74,0.021 1.141,0.064c1.519,0.411 2.74,2.06 3.653,4.94c0.416,0.076 0.876,0.097 1.378,0.065V43.92z" id="path_3"/><path fill="#C62828" d="M46.694,28.461c1.184,-0.611 2.957,-1.519 5.318,-2.724c0.206,-0.243 0.303,-0.362 0.303,-0.362c-0.535,-0.643 -1.346,-0.984 -2.421,-1.016c-0.93,-0.033 -1.854,-0.049 -2.773,-0.049c0.633,-1.535 1.292,-2.605 1.968,-3.205c2.016,-0.168 3.621,0.032 4.827,0.6c0.508,0.605 0.621,1.194 0.351,1.772c-0.107,0.373 -0.427,1.076 -0.951,2.119c-0.508,0.838 -1.07,1.524 -1.697,2.059c-0.621,0.541 -1.448,0.914 -2.486,1.125c-1.806,0.287 -2.713,0.427 -2.724,0.427c-0.243,0 -0.362,-0.049 -0.362,-0.141C46.046,28.78 46.262,28.58 46.694,28.461z" id="path_4"/><path fill="#000001" d="M31.284,19.764v-0.157c0.529,-0.741 1.286,-1.746 2.281,-3.027h0.107c0.806,0.865 1.812,1.649 3.027,2.346c0.032,0.032 0.049,0.07 0.049,0.125l-2.2,2.978c-0.021,0.011 -0.06,0.016 -0.113,0.016c-0.065,0 -0.173,-0.027 -0.33,-0.081C33.344,21.618 32.403,20.883 31.284,19.764z" id="path_5"/><path fill="#000001" d="M38.203,40.185c-0.255,0.2 -0.584,0.395 -0.984,0.584c-2.097,1.048 -4.221,1.789 -6.362,2.232c-2.945,0.622 -5.993,0.935 -9.14,0.935c-3.632,0 -6.557,-0.605 -8.772,-1.811c-2.844,-1.524 -4.298,-3.946 -4.362,-7.259c0,-1.054 0.228,-2.211 0.687,-3.459c0.454,-1.254 1.076,-2.173 1.854,-2.762c0.157,-0.129 0.271,-0.146 0.336,-0.048c0.092,0.092 0.107,0.173 0.043,0.238c-0.692,1.232 -1.119,2.454 -1.265,3.654c-0.136,2.243 1.632,4.206 5.302,5.892c2.411,0.654 5.022,0.983 7.844,0.983c3.713,0 7.6,-0.524 11.653,-1.567c0.622,-0.157 1.892,-0.654 3.8,-1.498c-0.156,-0.454 -0.529,-1.086 -1.107,-1.897c-1.173,0.903 -2.243,1.356 -3.217,1.356c-0.389,0 -0.772,-0.064 -1.156,-0.189c-0.887,-0.189 -1.692,-0.611 -2.422,-1.254c-0.729,-0.648 -1.173,-1.4 -1.329,-2.254c0.097,-1.33 0.237,-2.4 0.427,-3.211c0.583,-2.383 1.632,-3.914 3.151,-4.6c0.275,-0.065 0.572,-0.098 0.886,-0.098c1.816,0 3.179,0.871 4.087,2.611c0.329,0.654 0.632,1.27 0.919,1.854c0.563,1.519 0.838,3.141 0.838,4.876c0,1.94 -0.356,3.703 -1.076,5.281L38.203,40.185L38.203,40.185zM35.873,31.028c0.422,-0.092 0.601,-0.254 0.535,-0.476c-0.887,-1.108 -2.135,-1.6 -3.751,-1.47c-0.486,0.308 -0.714,0.6 -0.681,0.887C33.052,30.855 34.349,31.207 35.873,31.028z" id="path_6"/><path fill="#f06022" d="M21.036,57.476l0.983,-2.897l9.546,-4.227c0.13,-0.021 0.189,-0.005 0.189,0.049c0,0.032 -0.017,0.113 -0.049,0.254l-1.281,3.038l-9.167,4.119c-0.119,0.011 -0.189,0.011 -0.222,0C20.993,57.747 20.993,57.639 21.036,57.476z" id="path_7"/><path fill="#f06022" d="M21.036,53.25l0.983,-2.897l9.546,-4.227c0.13,-0.022 0.189,-0.005 0.189,0.048c0,0.027 -0.017,0.114 -0.049,0.249l-1.281,3.043l-9.167,4.119c-0.119,0.011 -0.189,0.011 -0.222,0C20.993,53.52 20.993,53.406 21.036,53.25z" id="path_8"/></svg>