<svg id="vector" xmlns="http://www.w3.org/2000/svg" width="75" height="67" viewBox="0 0 83 73"><path fill="#000001" d="M56.53,17.423c1.522,0 2.925,0.938 4.215,2.813c-1.08,2.461 -1.905,3.69 -2.46,3.69c-2.37,-1.17 -3.66,-1.935 -3.87,-2.288C54.415,20.528 55.12,19.118 56.53,17.423z" id="path_0"/><path fill="#000001" d="M50.838,39.481h0.877c5.468,-0.105 9.098,-0.871 10.897,-2.311l0.353,-0.697c-0.232,-0.563 -0.524,-0.84 -0.877,-0.84c-0.848,0.473 -1.785,0.705 -2.813,0.705h-0.181c-3.045,-0.354 -4.627,-1.583 -4.739,-3.69v-0.181c0.292,-3.982 1.229,-5.969 2.813,-5.969h0.877c2.708,-0.136 4.763,1.972 6.15,6.322l0.172,1.762v0.354c-0.037,4.305 -1.582,7.146 -4.635,8.52c-1.08,0.689 -4.05,1.035 -8.895,1.035V39.481z" id="path_1"/><path fill="#000001" d="M63.686,47.498c0.18,-0.097 0.232,0.06 0.157,0.487c-0.998,2.34 -2.527,3.976 -4.59,4.898l-7.583,3.803c-0.322,-0.091 -0.382,-0.354 -0.18,-0.788c1.013,-1.95 1.702,-3.104 2.07,-3.473L63.686,47.498z" id="path_2"/><path fill="#304FFE" d="M38.913,47.655c0.728,0 2.017,0.878 3.862,2.633c0,0.594 -0.697,1.875 -2.107,3.871h-0.353c-0.735,0 -1.846,-0.705 -3.338,-2.108v-0.18C36.978,51.173 37.623,49.763 38.913,47.655z" id="path_3"/><path fill="#304FFE" d="M45.235,46.778c2.933,1.26 4.395,2.25 4.395,2.984c-0.172,0.556 -0.989,1.785 -2.46,3.691c-1.965,-0.758 -3.367,-1.636 -4.215,-2.633C43.57,48.856 44.328,47.506 45.235,46.778z" id="path_4"/><path fill="#304FFE" d="M35.808,39.481c1.253,0.015 2.025,-0.008 2.333,-0.068c2.64,-0.803 4.439,-2.512 5.407,-5.115c0.143,-0.502 0.435,-0.563 0.877,-0.18c0.232,0.203 0.413,1.027 0.525,2.46c1.598,2.153 3.593,3.12 5.978,2.903h0.465v5.01H51.28c-3.735,-0.173 -6.487,-1.875 -8.265,-5.101h-0.173c-1.245,2.626 -2.888,4.237 -4.92,4.838c-0.615,0.173 -1.32,0.263 -2.115,0.263V39.481z" id="path_5"/><path fill="#FF6D00" d="M36.25,44.491h-0.045c-3.367,0 -5.647,-1.643 -6.855,-4.92l-0.352,-1.41h-0.346c-0.27,0.938 -2.145,1.522 -5.625,1.762h-0.885c-2.34,0 -3.51,-0.704 -3.51,-2.114v-1.583c0,-1.695 1.29,-3.803 3.862,-6.322c1.553,-1.178 3.315,-2.168 5.272,-2.992l-0.173,-0.525c0.646,-2.933 1.17,-4.395 1.583,-4.395c0.202,0.494 0.495,4.133 0.877,10.896c0.525,4.561 2.596,6.773 6.195,6.66V44.491L36.25,44.491zM20.74,34.298c0.675,0.466 1.785,0.698 3.337,0.698c1.523,-0.112 2.933,-0.405 4.223,-0.878l-0.353,-4.92h-0.18C23.08,31.426 20.74,33.121 20.74,34.298z" id="path_6"/><path fill="#FF6D00" d="M31.413,45.368c0.18,-0.098 0.232,0.061 0.157,0.488c-0.998,2.34 -2.527,3.975 -4.59,4.896l-7.583,3.803c-0.322,-0.09 -0.382,-0.353 -0.18,-0.787c1.013,-1.95 1.702,-3.105 2.07,-3.473L31.413,45.368z" id="path_7"/><path fill="#304FFE" d="M36.751,24.825c1.358,-0.701 3.394,-1.744 6.104,-3.128c0.236,-0.278 0.348,-0.415 0.348,-0.415c-0.614,-0.738 -1.545,-1.129 -2.779,-1.166c-1.067,-0.037 -2.128,-0.057 -3.183,-0.057c0.726,-1.762 1.482,-2.99 2.258,-3.679c2.314,-0.192 4.157,0.037 5.541,0.688c0.583,0.695 0.713,1.371 0.403,2.035c-0.124,0.428 -0.49,1.234 -1.092,2.432c-0.584,0.962 -1.229,1.75 -1.948,2.364c-0.714,0.62 -1.663,1.048 -2.854,1.29c-2.072,0.329 -3.114,0.49 -3.127,0.49c-0.279,0 -0.415,-0.056 -0.415,-0.161C36.007,25.19 36.255,24.961 36.751,24.825z" id="path_8"/></svg>