<svg id="vector" xmlns="http://www.w3.org/2000/svg" width="75" height="67" viewBox="0 0 83 73"><path fill="#9e3b21" d="M58.402,49.168v-0.157c0.53,-0.74 1.287,-1.746 2.281,-3.027h0.108c0.806,0.865 1.811,1.649 3.027,2.346c0.032,0.032 0.049,0.07 0.049,0.124l-2.2,2.979c-0.021,0.011 -0.06,0.016 -0.114,0.016c-0.064,0 -0.173,-0.027 -0.329,-0.081C60.461,51.022 59.521,50.287 58.402,49.168z" id="path_0"/><path fill="#9e3b21" d="M52.959,44.958v-4.373c1.389,0.162 3,-0.038 4.827,-0.584c1.361,-0.254 3.346,-0.838 5.956,-1.757c-2.324,-1.551 -4.324,-2.33 -6.005,-2.33c-0.946,0 -1.833,0.227 -2.644,0.681c-0.254,0.097 -0.524,0.443 -0.806,1.043c-0.286,0.605 -0.697,0.838 -1.237,0.697c0.032,-0.411 0.471,-1.481 1.313,-3.216c1.141,-1.459 2.211,-2.189 3.2,-2.189c0.308,-0.022 0.6,-0.033 0.886,-0.033c1.271,0 3.46,0.665 6.573,1.989c2.979,1.297 5.286,1.881 6.919,1.757c-0.303,0.843 -0.601,1.681 -0.887,2.519c-0.357,0.946 -0.8,1.719 -1.33,2.308c-1.74,-0.146 -3.908,0.222 -6.508,1.108c-3.399,1.129 -5.535,1.778 -6.41,1.951C55.635,44.876 54.348,45.022 52.959,44.958z" id="path_1"/><path fill="#9e3b21" d="M56.473,28.315l-0.854,0.097l-0.173,-0.27c2.935,-1.53 5.2,-2.989 6.794,-4.368c-0.54,-0.194 -0.902,-0.389 -1.092,-0.589c-0.551,-0.378 -0.827,-1.038 -0.827,-1.978c-0.054,-1.838 0.601,-3.2 1.968,-4.086c0.443,-0.346 1.157,-0.427 2.141,-0.238c1.043,0.562 1.567,1.243 1.567,2.043c0.286,3.011 -1.697,5.729 -5.94,8.157C58.721,27.661 57.532,28.072 56.473,28.315L56.473,28.315zM64.327,21.477c0.356,-0.13 0.535,-0.395 0.535,-0.794c0,-0.632 -0.271,-1.092 -0.806,-1.378c-0.573,-0.232 -1.205,-0.243 -1.902,-0.043c-0.454,0.346 -0.692,0.649 -0.714,0.903c-0.027,0.335 0.189,0.757 0.654,1.265c0.41,0.189 0.74,0.287 0.994,0.287C63.386,21.785 63.797,21.709 64.327,21.477z" id="path_2"/><path fill="#213877" d="M53.289,44.947h-1.313c-0.07,0.265 -0.141,0.573 -0.205,0.919c-0.578,4.064 -2.994,6.319 -7.237,6.762c-0.72,0.125 -1.454,0.227 -2.217,0.303c-1.427,0.146 -2.61,0.179 -3.562,0.092c-0.795,-0.103 -1.168,-0.254 -1.124,-0.443c1.859,-0.687 4.567,-1.886 8.124,-3.611c0.907,-0.443 1.805,-0.897 2.691,-1.362c0.989,-0.578 1.768,-1.21 2.33,-1.897c0.248,-0.508 0.14,-0.811 -0.336,-0.903c-2.373,0.113 -3.924,0.065 -4.637,-0.146c-1.563,-0.378 -2.503,-1.319 -2.822,-2.816c0.168,-0.876 0.356,-1.794 0.563,-2.746c0.205,-0.957 0.491,-1.778 0.864,-2.465c0.546,-0.784 1.449,-1.173 2.708,-1.173c0.357,0 0.741,0.022 1.141,0.065c1.52,0.411 2.74,2.059 3.654,4.94c0.416,0.076 0.876,0.097 1.378,0.065V44.947z" id="path_3"/><path fill="#213877" d="M44.219,29.488c1.184,-0.611 2.956,-1.519 5.318,-2.724c0.205,-0.244 0.303,-0.362 0.303,-0.362c-0.535,-0.644 -1.346,-0.984 -2.422,-1.016c-0.93,-0.033 -1.854,-0.049 -2.772,-0.049c0.633,-1.535 1.292,-2.605 1.968,-3.206c2.016,-0.167 3.621,0.033 4.826,0.6c0.508,0.605 0.622,1.195 0.352,1.773c-0.107,0.373 -0.427,1.076 -0.951,2.119c-0.508,0.838 -1.07,1.524 -1.697,2.059c-0.621,0.541 -1.449,0.914 -2.486,1.125c-1.806,0.286 -2.714,0.427 -2.725,0.427c-0.243,0 -0.362,-0.048 -0.362,-0.141C43.57,29.807 43.787,29.606 44.219,29.488z" id="path_4"/><path fill="#000001" d="M14.415,35.331l2.06,-2.119c-1.027,-0.519 -1.893,-1.146 -2.601,-1.886c-0.843,-0.833 -1.265,-1.908 -1.265,-3.216c0,-1.2 0.422,-2.821 1.265,-4.859c1.228,-1.902 2.854,-2.805 4.893,-2.708c2.832,0.421 4.858,1.432 6.08,3.032c-0.103,0.168 -0.254,0.254 -0.459,0.254c-0.146,0 -0.346,-0.07 -0.601,-0.206c-0.335,-0.178 -0.551,-0.287 -0.648,-0.319c-0.772,-0.265 -1.6,-0.395 -2.486,-0.395c-2.07,0 -4,0.627 -5.794,1.886c-0.362,0.514 -0.541,0.806 -0.541,0.87c0,0.081 0.032,0.173 0.098,0.271c0.644,1.076 1.757,2.027 3.34,2.849c1.065,0.443 2.006,0.665 2.816,0.665c0.638,0 1.194,-0.113 1.682,-0.346c0.687,-0.065 1.719,-0.449 3.102,-1.157l3.217,-1.649c0.222,0.033 0.346,0.049 0.378,0.049c-0.064,0.465 -0.243,1.016 -0.535,1.66c-0.384,0.805 -0.61,1.351 -0.681,1.648c-1.038,0.622 -2.919,1.573 -5.654,2.854c-2.432,1.129 -4.194,2.14 -5.291,3.038c-1.443,1.373 -2.541,2.702 -3.276,3.994c-0.275,0.654 -0.551,1.687 -0.826,3.103c-0.324,2.914 0.875,5.211 3.61,6.892c1.902,1.2 4.216,2.011 6.94,2.422c2.416,0.275 5.064,0.281 7.945,0.016c0.465,0 1.151,-0.076 2.054,-0.222c0.903,-0.151 1.541,-0.222 1.925,-0.222c0.232,0 0.448,0.033 0.648,0.092c0,0 0.027,0.135 0.076,0.4c-1.584,1.211 -3.692,2.487 -6.335,3.816c-2.217,0.254 -4.043,0.378 -5.492,0.378c-4.286,0 -7.497,-1.005 -9.638,-3.016c-2.135,-2.011 -3.259,-4.811 -3.361,-8.4c0,-1.173 0.107,-2.422 0.329,-3.751C11.696,39.369 12.701,37.466 14.415,35.331z" id="path_5"/><path fill="#f06022" d="M17.344,48.525l0.983,-2.897l9.546,-4.227c0.13,-0.021 0.188,-0.005 0.188,0.049c0,0.032 -0.016,0.113 -0.048,0.254l-1.281,3.038l-9.167,4.119c-0.119,0.011 -0.189,0.011 -0.222,0C17.301,48.795 17.301,48.688 17.344,48.525z" id="path_6"/><path fill="#f06022" d="M17.344,44.298l0.983,-2.897l9.546,-4.227c0.13,-0.022 0.188,-0.005 0.188,0.048c0,0.027 -0.016,0.114 -0.048,0.249l-1.281,3.043l-9.167,4.119c-0.119,0.011 -0.189,0.011 -0.222,0C17.301,44.568 17.301,44.455 17.344,44.298z" id="path_7"/></svg>