<svg id="vector" xmlns="http://www.w3.org/2000/svg" width="75" height="67" viewBox="0 0 83 73"><path fill="#000001" d="M58.768,41.318h0.059c2.359,-0.104 3.982,-1.24 4.873,-3.424c0,-0.307 0.201,-0.559 0.611,-0.768h0.305c0.203,0 0.307,0.156 0.307,0.461l-0.156,0.91c0.865,1.527 1.781,2.289 2.742,2.289h0.76c1.32,0 2.34,-1.32 3.049,-3.959h0.156c0.148,0.02 0.402,0.631 0.76,1.826c0.865,0.762 1.723,1.215 2.586,1.371c1.016,0 1.527,-0.609 1.527,-1.826c0.098,-1.93 0.299,-2.898 0.605,-2.898c0.408,0.865 0.609,1.932 0.609,3.197c0,3.764 -0.916,5.643 -2.742,5.643c-1.422,0 -2.586,-0.715 -3.502,-2.139H71.01c-0.629,2.033 -1.65,3.047 -3.047,3.047h-0.148c-1.242,0 -2.666,-0.961 -4.264,-2.891c-1.346,2.332 -2.873,3.502 -4.568,3.502h-0.215V41.318z" id="path_0"/><path fill="#000001" d="M74.76,48.148c0.156,-0.084 0.203,0.053 0.137,0.424c-0.863,2.027 -2.189,3.443 -3.977,4.242l-6.57,3.297c-0.279,-0.08 -0.332,-0.307 -0.156,-0.684c0.877,-1.689 1.475,-2.689 1.795,-3.008L74.76,48.148z" id="path_1"/><path fill="#009649" d="M58.955,45.674c-0.137,0.012 -0.279,0.02 -0.416,0.02h-0.766c-1.189,0 -2.002,-0.098 -2.438,-0.307c-0.885,3.42 -1.918,5.512 -3.1,6.279c-1.184,0.766 -3.854,1.416 -8.014,1.949h-0.305c-0.916,-0.104 -1.371,-0.254 -1.371,-0.455c0,-0.307 0.76,-0.662 2.279,-1.066c5.992,-2.742 8.988,-4.725 8.988,-5.939c0,-0.508 -0.707,-1.676 -2.131,-3.502c-0.307,-0.514 -0.455,-1.17 -0.455,-1.982v-1.521c0,-0.768 0.148,-1.17 0.455,-1.221c1.318,2.02 3.555,3.145 6.699,3.385c0.195,0 0.385,0 0.572,-0.014V45.674z" id="path_2"/><path fill="#009649" d="M55.738,27.301c0.156,-0.09 0.201,0.053 0.137,0.424c-0.865,2.027 -2.189,3.443 -3.977,4.242l-6.57,3.295c-0.279,-0.078 -0.332,-0.305 -0.156,-0.688c0.877,-1.689 1.475,-2.691 1.793,-3.01L55.738,27.301z" id="path_3"/><path fill="#0091EA" d="M37.803,21.018c0.305,0 0.609,1.02 0.916,3.047l1.371,3.049l-0.611,3.502l0.455,8.533v1.365c-0.201,3.482 -0.709,5.51 -1.521,6.096l-0.148,-0.15l0.148,-2.287c0,-2.053 -0.662,-8.604 -1.98,-19.645C37.068,22.188 37.523,21.018 37.803,21.018z" id="path_4"/><path fill="#f06022" d="M21.697,46.305c2.133,1.064 3.197,1.98 3.197,2.742c-1.014,2.008 -1.623,3.021 -1.826,3.047h-0.305c-1.561,-0.785 -2.527,-1.5 -2.893,-2.131C20.223,48.807 20.834,47.584 21.697,46.305z" id="path_5"/><path fill="#f06022" d="M13.393,42.268h1.754c1.854,-0.254 4.797,-0.941 8.832,-2.053v-0.156c-3.678,-1.625 -6.012,-2.438 -7.006,-2.438c-1.344,0 -2.254,0.76 -2.742,2.287l-0.455,0.307c-0.201,0 -0.305,-0.156 -0.305,-0.463c0.506,-3.041 1.879,-4.568 4.113,-4.568h0.76c0.943,0 4.141,1.066 9.6,3.197l4.113,0.307l0.299,0.461c-0.07,0.682 -0.682,2.002 -1.826,3.959h-0.455l-0.611,-0.156h-0.76c-7.922,2.338 -12.543,3.555 -13.861,3.658h-1.449V42.268z" id="path_6"/><path fill="#f06022" d="M27.58,22.693l0.154,0.137v0.416c-0.791,1.689 -1.891,2.873 -3.293,3.561c-4.367,2.373 -6.793,3.563 -7.273,3.563c-0.182,0 -0.273,-0.145 -0.273,-0.424c0.424,-1.611 1.34,-2.703 2.744,-3.275l7.811,-3.977H27.58z" id="path_7"/><path fill="#f06022" d="M26.494,19.268c0.176,0 0.266,0.131 0.266,0.398c-0.506,1.475 -2.008,2.801 -4.51,3.982l-5.77,3.158L16.35,26.67v-0.148c0.545,-1.93 1.41,-3.119 2.605,-3.561l6.434,-3.295L26.494,19.268z" id="path_8"/><path fill="#DD2C00" d="M13.717,46.609c-2.957,0.176 -5.107,-1.189 -6.453,-4.094c-0.648,-1.08 -1.254,-8.352 -1.826,-21.816v-0.307c0.377,-2.234 0.938,-3.354 1.67,-3.354l0.768,-0.148c0.936,0 2.359,0.305 4.264,0.91v0.305c-0.104,0.305 -0.41,0.461 -0.916,0.461H8.635c-0.531,0 -1.039,0.299 -1.527,0.91c0.475,11.691 1.164,18.463 2.08,20.314c0.91,1.854 2.424,2.678 4.529,2.477V46.609z" id="path_9"/></svg>