<svg id="vector" xmlns="http://www.w3.org/2000/svg" width="75" height="67" viewBox="0 0 83 73"><path fill="#FF6D00" d="M63.557,42.057h0.705c2.056,0 3.578,1.755 4.575,5.272l0.173,1.755c0.06,0.569 0.06,1.154 0,1.763c-0.525,2.137 -1.703,4.244 -3.518,6.322c-1.26,1.058 -4.125,1.875 -8.61,2.46c-0.524,-0.232 -0.825,-0.465 -0.877,-0.697c7.5,-4.073 11.25,-6.533 11.25,-7.388l0.172,-0.525l-0.172,-0.172l-1.583,0.524h-0.877c-3.165,0 -4.748,-1.117 -4.748,-3.337v-0.354c0.405,-3.637 1.29,-5.452 2.633,-5.452L63.557,42.057z" id="path_0"/><path fill="#FF6D00" d="M68.215,27.814c0.18,-0.104 0.232,0.061 0.157,0.488c-0.997,2.34 -2.527,3.975 -4.59,4.896L56.2,37.001c-0.322,-0.09 -0.382,-0.352 -0.18,-0.795c1.013,-1.949 1.702,-3.104 2.07,-3.473L68.215,27.814z" id="path_1"/><path fill="#213877" d="M41.275,51.784h0.353c1.2,0.263 2.49,0.968 3.87,2.115v0.173c-0.795,2.4 -1.492,3.689 -2.107,3.87c-1.793,-0.353 -3.135,-0.938 -4.043,-1.763v-0.173C39.347,54.626 39.993,53.224 41.275,51.784z" id="path_2"/><path fill="#213877" d="M47.785,50.202h0.173c1.2,0.18 2.55,0.997 4.043,2.46v0.18l-2.107,3.69c-2.813,-0.907 -4.223,-1.673 -4.223,-2.287C46.578,51.551 47.283,50.202 47.785,50.202z" id="path_3"/><path fill="#213877" d="M39.715,43.745c4.604,0.045 7.178,-0.818 7.739,-2.596c0,-0.614 -0.585,-2.137 -1.762,-4.567l0.532,-4.567h0.345c1.53,2.633 2.288,5.272 2.288,7.905v1.582c0,1.058 -0.255,2.168 -0.758,3.33c-0.502,1.163 -1.282,2.146 -2.325,2.933c-1.05,0.795 -3.067,1.125 -6.06,0.99V43.745z" id="path_4"/><path fill="#213877" d="M48.415,19.535h1.74c2.107,0 3.165,0.787 3.165,2.369c-1.365,3.69 -3.022,5.648 -4.973,5.873l-2.303,0.308c-0.367,0 -0.517,-0.104 -0.465,-0.308c1.86,-0.982 3.601,-2.152 5.213,-3.495c-0.57,-0.532 -1.2,-0.795 -1.89,-0.795h-0.488l-1.89,0.157l-0.149,-0.157v-0.308C47.267,20.75 47.95,19.535 48.415,19.535z" id="path_5"/><path fill="#00B8D4" d="M40.315,48.687c-1.702,0.015 -3.104,-0.855 -4.222,-2.61H35.92c-0.825,2.925 -2.055,4.98 -3.69,6.15c-2.317,2.228 -4.837,3.337 -7.56,3.337h-1.058c-3.104,0 -5.857,-1.755 -8.258,-5.272c-0.938,-1.612 -1.409,-3.487 -1.409,-5.625c0,-3.015 1.522,-6.06 4.574,-9.135c1.59,-1.013 2.063,-0.952 1.402,0.173c-2.692,3.75 -4.042,6.329 -4.042,7.732c0,3.637 2.692,6.037 8.085,7.207h1.41c3.015,0 6,-1.522 8.962,-4.567c0.308,-0.968 0.368,-2.024 0.173,-3.165c-0.585,-2.49 -1.463,-8.82 -2.633,-18.982l1.051,-3.518c0.165,-0.029 0.337,-0.029 0.532,0c0.322,0 0.907,4.455 1.755,13.357c0.585,4.688 1.29,7.62 2.107,8.79c0.72,0.795 1.718,1.162 2.992,1.117V48.687z" id="path_6"/><path fill="#f06022" d="M27.416,16.302c1.342,0 2.137,0.893 2.369,2.678v0.486c-0.247,2.985 -1.244,4.936 -2.984,5.844c-3.03,1.904 -5.782,2.857 -8.243,2.857c-0.089,-0.016 -0.172,-0.038 -0.262,-0.068c-0.09,-0.029 -0.157,-0.075 -0.21,-0.135c-0.053,-0.053 -0.045,-0.09 0.015,-0.105c0.128,-0.292 2.34,-1.462 6.63,-3.494v-0.158c-1.155,-0.727 -1.732,-1.732 -1.732,-3.008C23.688,17.929 25.158,16.302 27.416,16.302L27.416,16.302zM24.58,19.617v0.15c0,1.088 0.743,1.725 2.221,1.912h0.457c0.563,0 0.878,-0.157 0.945,-0.48c0,-1.477 -0.787,-2.219 -2.37,-2.219C25,19.167 24.58,19.384 24.58,19.617z" id="path_7"/><path fill="#f06022" d="M23.943,13.445c0.337,-0.166 0.495,-0.053 0.479,0.33c-1.694,1.875 -3.029,3.652 -3.997,5.34c-0.277,0.66 -0.435,1.199 -0.473,1.635c-0.037,0.435 0.075,0.9 0.345,1.395h0.33c0.128,-0.734 0.391,-1.102 0.788,-1.102c0.473,0.209 0.734,0.419 0.787,0.637v0.308c0.03,1.673 -0.442,2.677 -1.425,3.015h-0.787c-1.058,-0.209 -1.583,-1.425 -1.583,-3.652C18.408,18.642 20.252,16.009 23.943,13.445z" id="path_8"/></svg>