<svg id="vector" xmlns="http://www.w3.org/2000/svg" width="75" height="67" viewBox="0 0 83 73"><path fill="#9e3b21" d="M58.533,39.123H59.4h0.329h0.846c3.046,-0.221 4.896,-0.924 5.54,-2.1c0,-0.924 -1.061,-3.439 -3.189,-7.561l-0.336,-1.34c-0.366,-1.764 -0.352,-3.383 0.043,-4.852c0.387,-1.469 1.16,-2.488 2.307,-3.047c2.659,-1.791 7.755,-4.758 15.287,-8.9l0.164,0.172v0.33c-1.619,2.551 -2.852,4.902 -3.69,7.059h-0.337l-0.172,-0.838v-0.846l0.172,-0.166v-0.164h-0.172c-6.242,3.605 -10.441,6.242 -12.599,7.891v0.172c2.358,4.758 3.641,8.393 3.87,10.914c0,1.793 -0.617,3.699 -1.85,5.713c-1.175,1.568 -3.525,2.35 -7.059,2.35h-0.021V39.123z" id="path_0"/><path fill="#9e3b21" d="M72.142,8.693c0.172,-0.1 0.222,0.059 0.15,0.467c-0.953,2.236 -2.416,3.799 -4.387,4.68l-7.245,3.633c-0.308,-0.086 -0.365,-0.336 -0.172,-0.76c0.968,-1.863 1.627,-2.967 1.978,-3.318L72.142,8.693z" id="path_1"/><path fill="#000001" d="M58.74,43.926c-0.15,0.014 -0.308,0.021 -0.459,0.021h-0.846c-1.311,0 -2.207,-0.107 -2.687,-0.338c-0.976,3.77 -2.114,6.078 -3.419,6.924s-4.25,1.563 -8.836,2.15h-0.336c-1.011,-0.115 -1.513,-0.281 -1.513,-0.502c0,-0.338 0.839,-0.73 2.516,-1.176c6.607,-3.025 9.912,-5.211 9.912,-6.551c0,-0.559 -0.781,-1.85 -2.352,-3.863c-0.336,-0.564 -0.502,-1.289 -0.502,-2.186V36.73c0,-0.846 0.166,-1.291 0.502,-1.348c1.455,2.229 3.92,3.469 7.389,3.734c0.215,0 0.424,0 0.631,-0.016V43.926z" id="path_2"/><path fill="#000001" d="M53.996,54.316c0.172,-0.094 0.223,0.059 0.15,0.467c-0.953,2.236 -2.415,3.797 -4.386,4.68l-7.246,3.633c-0.308,-0.086 -0.365,-0.336 -0.172,-0.752c0.967,-1.863 1.627,-2.967 1.978,-3.318L53.996,54.316z" id="path_3"/><path fill="#213877" d="M28.618,47.852h0.336c1.147,0.252 2.379,0.926 3.698,2.021v0.166c-0.76,2.293 -1.426,3.525 -2.014,3.697c-1.713,-0.336 -2.996,-0.896 -3.863,-1.684v-0.166C26.776,50.568 27.392,49.229 28.618,47.852z" id="path_4"/><path fill="#213877" d="M34.838,46.34h0.165c1.147,0.172 2.437,0.953 3.863,2.352v0.172l-2.014,3.525c-2.688,-0.867 -4.035,-1.598 -4.035,-2.186C33.685,47.631 34.358,46.34 34.838,46.34z" id="path_5"/><path fill="#213877" d="M27.127,40.17c4.4,0.043 6.858,-0.781 7.396,-2.48c0,-0.586 -0.559,-2.041 -1.685,-4.363l0.509,-4.365h0.33c1.462,2.516 2.186,5.039 2.186,7.555v1.512c0,1.01 -0.244,2.07 -0.724,3.182s-1.226,2.049 -2.222,2.803c-1.003,0.76 -2.931,1.074 -5.791,0.945V40.17z" id="path_6"/><path fill="#213877" d="M31.84,17.035h1.663c2.014,0 3.024,0.754 3.024,2.266c-1.304,3.525 -2.888,5.396 -4.751,5.611l-2.201,0.293c-0.351,0 -0.494,-0.1 -0.444,-0.293c1.777,-0.939 3.44,-2.057 4.98,-3.34c-0.544,-0.508 -1.146,-0.76 -1.806,-0.76H31.84l-1.806,0.15l-0.144,-0.15V20.52C30.744,18.197 31.396,17.035 31.84,17.035z" id="path_7"/><path fill="#000001" d="M29.313,44.957c-0.179,0 -0.373,0 -0.566,0h-0.165c-1.626,-0.014 -3.196,-0.301 -4.708,-0.859c-1.62,2.803 -3.748,4.199 -6.378,4.199c-3.139,-0.451 -4.708,-1.734 -4.708,-3.863h-0.165c-0.53,1.793 -1.706,3.246 -3.526,4.365c-2.437,0.896 -4.343,1.348 -5.712,1.348l-0.774,0.1V49.91c0.624,-0.518 2.315,-1.713 5.067,-3.592c2.752,-1.869 4.314,-3.045 4.68,-3.525c0.373,-0.473 0.91,-2.057 1.612,-4.744c1.34,-2.236 2.573,-3.361 3.691,-3.361h0.337c1.397,0 3.641,1.512 6.722,4.537c0.896,0.76 2.422,1.096 4.594,1.01V44.957L29.313,44.957zM14.807,40.398c0,1.484 1.175,2.494 3.526,3.025h0.838c1.906,-0.193 2.859,-0.473 2.859,-0.838c-2.214,-2.129 -3.892,-3.189 -5.045,-3.189h-0.165C15.868,39.396 15.194,39.732 14.807,40.398z" id="path_8"/><path fill="#f06022" d="M23.393,55.871l0.172,0.15v0.459c-0.867,1.863 -2.079,3.168 -3.634,3.928c-4.816,2.615 -7.489,3.928 -8.019,3.928c-0.194,0 -0.294,-0.158 -0.294,-0.467c0.459,-1.777 1.469,-2.98 3.024,-3.611l8.607,-4.387H23.393z" id="path_9"/><path fill="#f06022" d="M22.196,52.096c0.201,0 0.294,0.143 0.294,0.438c-0.559,1.627 -2.214,3.088 -4.974,4.393l-6.364,3.482l-0.144,-0.15v-0.164c0.602,-2.129 1.563,-3.441 2.874,-3.928l7.103,-3.633L22.196,52.096z" id="path_10"/></svg>