<svg id="vector" xmlns="http://www.w3.org/2000/svg" width="75" height="67" viewBox="0 0 83 73"><path fill="#000001" d="M66.869,46.176c-9.324,0.395 -14.34,-0.037 -15.043,-1.297c-0.709,-1.262 2.516,-1.906 9.668,-1.936c1.412,-0.029 2.309,-0.064 2.688,-0.123c5.684,-0.881 9.152,-1.834 10.414,-2.859v-0.164l-1.85,-4.371v-0.668c0,-2.242 0.279,-3.359 0.838,-3.359c1.57,2.994 2.352,5.346 2.352,7.051v0.338c0,3.891 -1.957,6.135 -5.877,6.721C69.063,45.773 68.002,45.996 66.869,46.176z" id="path_0"/><path fill="#000001" d="M72.137,49.178c1.039,0 2.322,0.73 3.863,2.186v0.338c-0.953,2.465 -1.627,3.697 -2.014,3.697c-1.906,-0.73 -3.082,-1.461 -3.527,-2.186v-0.164C70.459,51.865 71.018,50.582 72.137,49.178z" id="path_1"/><path fill="#000001" d="M77.805,19.873c0.172,-0.1 0.223,0.059 0.15,0.467c-0.953,2.236 -2.414,3.799 -4.385,4.68l-7.246,3.633c-0.309,-0.086 -0.365,-0.336 -0.172,-0.76c0.967,-1.863 1.627,-2.967 1.979,-3.318L77.805,19.873z" id="path_2"/><path fill="#009649" d="M42.346,41.539h0.65c2.215,-0.236 4.078,-1.578 5.59,-4.014c0.223,-0.502 0.445,-0.781 0.668,-0.838h0.172l0.502,0.508c-0.072,0.639 -0.18,1.09 -0.338,1.34c0.982,1.793 2.158,2.688 3.527,2.688l0.172,0.166c2.436,-5.375 5.174,-8.063 8.227,-8.063c2.438,0 4.229,1.01 5.375,3.023v1.01c0,6.156 -3.807,9.238 -11.424,9.238l-2.516,-0.164c-0.781,2.121 -1.289,3.189 -1.512,3.189l-0.164,-0.166v-0.172l0.5,-2.852v-0.338c-1.654,-0.924 -2.938,-2.213 -3.861,-3.861c-0.867,2.838 -2.725,4.207 -5.568,4.092V41.539L42.346,41.539zM54.965,41.725h0.338c3.805,0 7.051,-0.559 9.738,-1.678c0,-1.203 -1.117,-2.041 -3.354,-2.521h-0.674C58.326,37.525 56.313,38.93 54.965,41.725z" id="path_3"/><path fill="#009649" d="M60.275,50.525c0.172,-0.094 0.223,0.057 0.15,0.465c-0.953,2.236 -2.414,3.799 -4.385,4.682l-7.246,3.633c-0.309,-0.086 -0.365,-0.338 -0.172,-0.752c0.967,-1.863 1.627,-2.969 1.979,-3.318L60.275,50.525z" id="path_4"/><path fill="#000001" d="M27.566,49.379h0.674c2.207,1.254 3.326,1.984 3.355,2.178c-1.09,2.352 -1.82,3.584 -2.18,3.699c-1.262,0 -2.494,-0.617 -3.697,-1.85C25.939,52.203 26.557,50.861 27.566,49.379z" id="path_5"/><path fill="#000001" d="M33.443,48.533c1.068,0 2.352,0.73 3.863,2.186c0,0.588 -0.725,1.764 -2.186,3.525c-0.838,0 -2.072,-0.559 -3.691,-1.676C31.43,51.586 32.104,50.246 33.443,48.533z" id="path_6"/><path fill="#000001" d="M29.363,35.955h0.043c1.957,0 3.527,-0.666 4.701,-2.014l-0.164,-1.34c0,-1.656 0.336,-2.996 1.004,-4.035c0.307,0 0.76,2.859 1.346,8.564c0.674,3.082 3.018,4.508 7.031,4.285v4.787c-3.92,0.279 -6.65,-1.512 -8.205,-5.375c-0.252,-2.688 -0.531,-4.027 -0.84,-4.027c-0.658,2.545 -2.299,3.885 -4.916,4.006V35.955z" id="path_7"/><path fill="#000001" d="M33.043,16.117h1.662c2.014,0 3.023,0.754 3.023,2.266c-1.303,3.525 -2.887,5.396 -4.75,5.611l-2.201,0.293c-0.352,0 -0.494,-0.1 -0.443,-0.293c1.777,-0.939 3.439,-2.057 4.98,-3.34c-0.545,-0.508 -1.146,-0.76 -1.807,-0.76h-0.465l-1.807,0.15l-0.143,-0.15v-0.293C31.945,17.279 32.598,16.117 33.043,16.117z" id="path_8"/><path fill="#009649" d="M29.629,40.887c-0.15,0.014 -0.309,0.021 -0.459,0.021h-0.846c-1.311,0 -2.207,-0.107 -2.688,-0.338c-0.975,3.77 -2.113,6.078 -3.418,6.924s-4.25,1.563 -8.836,2.15h-0.338c-1.01,-0.115 -1.512,-0.281 -1.512,-0.502c0,-0.338 0.838,-0.732 2.516,-1.176c6.607,-3.023 9.912,-5.211 9.912,-6.551c0,-0.559 -0.781,-1.85 -2.352,-3.863c-0.336,-0.564 -0.502,-1.289 -0.502,-2.186v-1.676c0,-0.846 0.166,-1.291 0.502,-1.348c1.455,2.229 3.92,3.469 7.389,3.734c0.215,0 0.424,0 0.631,-0.016V40.887z" id="path_9"/><path fill="#f06022" d="M23.676,20.941l0.172,0.15v0.459c-0.875,1.863 -2.086,3.168 -3.633,3.928c-4.816,2.615 -7.49,3.926 -8.02,3.926c-0.201,0 -0.303,-0.156 -0.303,-0.465c0.467,-1.777 1.477,-2.98 3.025,-3.611l8.615,-4.387H23.676z" id="path_10"/><path fill="#f06022" d="M22.479,17.164c0.193,0 0.295,0.145 0.295,0.438c-0.561,1.627 -2.215,3.09 -4.975,4.395l-6.363,3.482l-0.145,-0.15v-0.166c0.602,-2.129 1.557,-3.439 2.875,-3.926l7.094,-3.635L22.479,17.164z" id="path_11"/><path fill="#009649" d="M6.525,13.695c0.336,0 0.672,1.125 1.01,3.361l1.512,3.361l-0.674,3.863l0.502,9.41v1.504c-0.223,3.842 -0.781,6.078 -1.678,6.723l-0.164,-0.164l0.164,-2.523c0,-2.264 -0.73,-9.488 -2.186,-21.664C5.715,14.986 6.217,13.695 6.525,13.695z" id="path_12"/></svg>