<svg id="vector" xmlns="http://www.w3.org/2000/svg" width="75" height="67" viewBox="0 0 83 73"><path fill="#DD2C00" d="M45.277,40.463c0.255,0.03 1.305,-0.105 1.552,-0.397c-0.465,-0.569 -0.705,-1.162 -0.705,-1.777v-1.583c0.563,-5.152 2.61,-7.732 6.157,-7.732c1.785,0 3.721,0.938 5.798,2.813c0.765,0.293 1.17,0.586 1.229,0.878v0.173c0,0.27 -0.292,0.441 -0.877,0.532c0,-0.503 -1.522,-0.907 -4.567,-1.229h-0.705c-3.285,0.494 -4.92,1.372 -4.92,2.633c0,1.731 1.695,3.021 5.092,3.869l1.23,0.173c0.442,0 2.67,-1.11 6.683,-3.338h0.172l0.354,0.353c0,2.43 -2.693,5.07 -8.086,7.912c-3.84,1.17 -6.18,1.756 -7.027,1.756c-0.194,0 -1.185,-0.008 -1.379,-0.023V40.463z" id="path_0"/><path fill="#DD2C00" d="M58.671,14.116c0.18,-0.104 0.232,0.061 0.157,0.488c-0.998,2.34 -2.527,3.975 -4.59,4.897l-7.583,3.802c-0.322,-0.09 -0.382,-0.352 -0.18,-0.795c1.013,-1.949 1.702,-3.104 2.07,-3.473L58.671,14.116z" id="path_1"/><path fill="#000001" d="M41.661,50.506c-1.507,-0.585 -3.675,-1.11 -6.502,-1.582l-0.173,-0.174v-0.18c0.353,-3.045 0.817,-4.566 1.402,-4.566c1.643,-0.458 2.521,-1.268 2.64,-2.438v-0.729c-0.937,-5.055 -1.409,-10.035 -1.409,-14.939c0,-1.793 0.473,-3.367 1.409,-4.748h0.173c0.195,0 0.36,3.69 0.51,11.078c0,1.357 0.638,3.396 1.928,6.104c0.907,1.073 2.197,1.808 3.87,2.22v4.988c-2.107,-0.586 -3.803,-1.801 -5.077,-3.646c-0.061,1.372 -0.473,2.378 -1.253,3.008c2.857,0.382 4.29,1.319 4.29,2.813l0.128,1.034c0,0.541 -0.112,1.125 -0.353,1.756H41.661z" id="path_2"/><path fill="#000001" d="M34.416,12.827c1.41,2.399 2.115,4.747 2.115,7.027c-0.614,4.334 -1.38,6.502 -2.287,6.502l-0.173,-0.172v-0.173l0.345,-2.288v-0.18c0,-1.402 -0.585,-3.51 -1.755,-6.322v-0.353C33.246,14.168 33.831,12.827 34.416,12.827z" id="path_3"/><path fill="#00BFA5" d="M43.821,49.801c-0.705,2.445 -2.843,5.145 -6.42,8.085c-2.152,1.53 -4.673,2.288 -7.553,2.288c-1.612,-0.368 -2.768,-0.736 -3.465,-1.096c-0.697,-0.367 -1.53,-1.178 -2.513,-2.422c-1.763,-2.34 -2.64,-4.508 -2.64,-6.503c0,-4.747 1.522,-8.55 4.575,-11.423c0.539,-0.383 0.772,-0.322 0.697,0.173c0,0.427 -0.878,2.069 -2.633,4.92c-0.705,1.425 -1.057,2.774 -1.057,4.042c0,1.822 1.289,3.811 3.869,5.979c1.83,1.012 3.817,1.424 5.978,1.229c2.543,0 5.708,-1.755 9.487,-5.272H43.821z" id="path_4"/></svg>