<svg id="vector" xmlns="http://www.w3.org/2000/svg" width="75" height="67" viewBox="0 0 83 73"><path fill="#000001" d="M36.109,45.85c-0.18,0 -0.373,0 -0.566,0h-0.164c-1.627,-0.014 -3.197,-0.301 -4.709,-0.859c-1.619,2.801 -3.748,4.199 -6.379,4.199c-3.139,-0.451 -4.709,-1.734 -4.709,-3.863h-0.164c-0.531,1.791 -1.705,3.246 -3.525,4.365c-2.438,0.895 -4.344,1.346 -5.713,1.346l-0.773,0.102v-0.338c0.623,-0.516 2.314,-1.711 5.066,-3.59c2.752,-1.871 4.314,-3.045 4.68,-3.525c0.373,-0.473 0.91,-2.057 1.613,-4.744c1.34,-2.236 2.572,-3.361 3.691,-3.361h0.336c1.398,0 3.641,1.512 6.723,4.535c0.895,0.76 2.422,1.098 4.594,1.012V45.85L36.109,45.85zM21.604,41.291c0,1.484 1.176,2.494 3.525,3.025h0.84c1.906,-0.193 2.859,-0.473 2.859,-0.84c-2.215,-2.127 -3.893,-3.188 -5.045,-3.188h-0.166C22.664,40.289 21.99,40.625 21.604,41.291z" id="path_0"/><path fill="#9e3b21" d="M68.395,17.627c0.338,0 0.674,1.125 1.012,3.361l1.512,3.361l-0.674,3.863l0.502,9.41v1.504c-0.223,3.842 -0.781,6.078 -1.678,6.723l-0.164,-0.164l0.164,-2.523c0,-2.266 -0.73,-9.488 -2.186,-21.664C67.586,18.918 68.088,17.627 68.395,17.627z" id="path_1"/><path fill="#9e3b21" d="M73.412,7.801c0.172,-0.1 0.223,0.059 0.15,0.467c-0.953,2.236 -2.416,3.799 -4.387,4.68l-7.244,3.633c-0.309,-0.086 -0.365,-0.336 -0.172,-0.76c0.967,-1.863 1.627,-2.967 1.977,-3.316L73.412,7.801z" id="path_2"/><path fill="#000001" d="M51.166,41.041c0.193,0.014 0.4,0.021 0.631,0.021h1.59c1.686,-0.279 2.969,-0.867 3.863,-1.764L55.236,23.34c0.502,-3.025 0.953,-4.529 1.34,-4.529l2.188,5.037c0,0.781 -0.281,1.957 -0.84,3.525l0.84,9.066v2.523c-0.631,2.672 -1.477,4.543 -2.537,5.604c-0.803,0.854 -1.742,1.283 -2.84,1.283h-1.426c-0.279,0 -0.543,-0.008 -0.795,-0.021V41.041z" id="path_3"/><path fill="#000001" d="M63.105,47.275c0.172,-0.094 0.223,0.057 0.15,0.467c-0.951,2.234 -2.414,3.797 -4.385,4.68l-7.246,3.633c-0.309,-0.086 -0.365,-0.336 -0.172,-0.752c0.967,-1.863 1.627,-2.967 1.979,-3.318L63.105,47.275z" id="path_4"/><path fill="#213877" d="M47.297,47.025c1.742,0.701 3.023,1.482 3.869,2.35v0.172c-0.924,2.459 -1.654,3.691 -2.186,3.691c-0.422,0 -1.762,-0.674 -4.035,-2.014l-1.512,2.852c-2.91,-1.061 -4.365,-1.842 -4.365,-2.35c0.617,-2.293 1.232,-3.641 1.85,-4.027c0.473,0 1.928,0.723 4.365,2.186C46.207,47.979 46.881,47.025 47.297,47.025z" id="path_5"/><path fill="#213877" d="M35.959,41.063h1.096c2.18,-0.18 3.805,-1.047 4.867,-2.602l0.172,-0.51l-0.502,-2.516c0.107,-2.688 0.387,-4.033 0.838,-4.033c1.342,4.729 2.631,7.617 3.863,8.648c1.061,0.604 2.516,0.932 4.365,0.99c0.494,0 0.953,0 1.391,0v4.809c-0.553,0 -1.125,0 -1.729,0h-0.164c-3.219,0 -5.684,-1.791 -7.389,-5.375v-0.164l-1.514,3.016c-1.146,1.699 -2.83,2.537 -5.037,2.523h-0.258V41.063z" id="path_6"/><path fill="#213877" d="M42.746,17.842h1.662c2.014,0 3.025,0.752 3.025,2.266c-1.305,3.525 -2.889,5.396 -4.752,5.611l-2.201,0.293c-0.352,0 -0.494,-0.1 -0.443,-0.293c1.777,-0.939 3.439,-2.057 4.98,-3.34c-0.545,-0.51 -1.146,-0.76 -1.807,-0.76h-0.465l-1.807,0.15l-0.143,-0.15v-0.295C41.648,19.004 42.301,17.842 42.746,17.842z" id="path_7"/><path fill="#f06022" d="M30.189,56.764l0.172,0.15v0.459c-0.867,1.863 -2.078,3.168 -3.633,3.928c-4.816,2.615 -7.49,3.928 -8.02,3.928c-0.193,0 -0.295,-0.158 -0.295,-0.467c0.459,-1.777 1.471,-2.98 3.025,-3.611l8.607,-4.387H30.189z" id="path_8"/><path fill="#f06022" d="M28.992,52.988c0.201,0 0.295,0.143 0.295,0.438c-0.559,1.625 -2.215,3.088 -4.975,4.393l-6.363,3.482l-0.145,-0.15v-0.166c0.604,-2.127 1.563,-3.439 2.875,-3.926l7.102,-3.633L28.992,52.988z" id="path_9"/></svg>