<svg id="vector" xmlns="http://www.w3.org/2000/svg" width="75" height="67" viewBox="0 0 83 73"><path fill="#9e3b21" d="M54.033,44.6c0.255,0.029 0.503,-0.105 0.75,-0.398c-0.465,-0.569 -0.705,-1.162 -0.705,-1.777v-1.582c0.563,-5.152 2.61,-7.732 6.157,-7.732c1.785,0 3.721,0.938 5.798,2.813c0.765,0.293 1.17,0.585 1.229,0.877v0.173c0,0.271 -0.292,0.442 -0.877,0.532c0,-0.502 -1.522,-0.907 -4.567,-1.229h-0.705c-3.285,0.495 -4.92,1.372 -4.92,2.632c0,1.732 1.695,3.023 5.093,3.871l1.229,0.172c0.442,0 2.67,-1.109 6.683,-3.338h0.173l0.353,0.354c0,2.43 -2.693,5.069 -8.085,7.912c-3.841,1.17 -6.181,1.755 -7.028,1.755c-0.194,0 -0.382,-0.007 -0.577,-0.022V44.6z" id="path_0"/><path fill="#9e3b21" d="M66.625,18.252c0.18,-0.105 0.232,0.06 0.157,0.486c-0.997,2.341 -2.527,3.976 -4.59,4.898L54.61,27.44c-0.322,-0.09 -0.382,-0.354 -0.18,-0.795c1.013,-1.951 1.702,-3.105 2.07,-3.473L66.625,18.252z" id="path_1"/><path fill="#000001" d="M39.977,52.819h0.705c2.311,1.313 3.48,2.078 3.511,2.281c-1.141,2.459 -1.905,3.75 -2.28,3.869c-1.32,0 -2.61,-0.645 -3.87,-1.935C38.275,55.774 38.92,54.372 39.977,52.819z" id="path_2"/><path fill="#000001" d="M46.127,51.934c1.117,0 2.46,0.766 4.043,2.288c0,0.614 -0.758,1.845 -2.288,3.69c-0.877,0 -2.167,-0.586 -3.862,-1.756C44.02,55.129 44.725,53.727 46.127,51.934z" id="path_3"/><path fill="#000001" d="M39.58,38.772h0.046c2.047,0 3.689,-0.697 4.919,-2.107l-0.172,-1.402c0,-1.732 0.353,-3.135 1.05,-4.223c0.323,0 0.795,2.992 1.41,8.963c0.705,3.225 3.157,4.717 7.357,4.484v5.01c-4.103,0.293 -6.96,-1.582 -8.587,-5.625c-0.263,-2.813 -0.556,-4.215 -0.878,-4.215c-0.69,2.662 -2.407,4.064 -5.146,4.193V38.772z" id="path_4"/><path fill="#213877" d="M24.528,39.237c1.732,0.555 3.075,1.26 4.042,2.107v0.354c0,0.584 -0.645,1.874 -1.935,3.869c-1.2,0 -2.543,-0.645 -4.043,-1.935V43.28C22.592,42.02 23.238,40.677 24.528,39.237z" id="path_5"/><path fill="#213877" d="M40.023,43.85c-1.598,0 -2.835,-0.248 -3.721,-0.743c-0.435,3.81 -1.252,6.442 -2.46,7.913c-2.895,3.629 -5.887,5.444 -8.962,5.444c-5.655,0 -9.346,-2.46 -11.078,-7.38c-0.345,-0.938 -0.524,-1.936 -0.524,-2.992V44.69c0,-4.163 1.29,-7.44 3.87,-9.848c0.465,0.18 0.705,0.584 0.705,1.23l-2.813,5.1l-0.18,1.755c0,3.96 2.168,6.712 6.503,8.265l4.574,0.353c1.928,0 4.336,-1.117 7.208,-3.337c1.05,-1.703 1.582,-2.934 1.582,-3.698c-0.119,-1.169 -0.885,-2.864 -2.287,-5.093v-3.697l0.525,-0.525c1.274,2.566 3.63,3.803 7.058,3.713V43.85z" id="path_6"/><path fill="#f06022" d="M27.558,16.961c1.342,0 2.137,0.893 2.369,2.678v0.488c-0.247,2.984 -1.245,4.935 -2.984,5.842c-3.03,1.905 -5.782,2.857 -8.243,2.857c-0.09,-0.015 -0.172,-0.037 -0.262,-0.066c-0.09,-0.031 -0.158,-0.076 -0.21,-0.136c-0.053,-0.052 -0.045,-0.09 0.015,-0.104c0.128,-0.293 2.34,-1.463 6.63,-3.496v-0.156c-1.155,-0.729 -1.732,-1.733 -1.732,-3.008C23.831,18.59 25.3,16.961 27.558,16.961L27.558,16.961zM24.722,20.278v0.149c0,1.087 0.743,1.725 2.221,1.913H27.4c0.563,0 0.878,-0.158 0.945,-0.48c0,-1.479 -0.787,-2.221 -2.37,-2.221C25.143,19.827 24.722,20.044 24.722,20.278z" id="path_7"/><path fill="#f06022" d="M24.085,14.104c0.337,-0.164 0.495,-0.052 0.479,0.33c-1.694,1.875 -3.029,3.652 -3.997,5.34c-0.277,0.66 -0.436,1.201 -0.473,1.636c-0.038,0.435 0.075,0.899 0.345,1.396h0.33c0.128,-0.736 0.391,-1.104 0.788,-1.104c0.472,0.211 0.734,0.42 0.787,0.639v0.307c0.03,1.673 -0.442,2.678 -1.425,3.016h-0.788c-1.058,-0.211 -1.582,-1.426 -1.582,-3.652C18.55,19.302 20.395,16.669 24.085,14.104z" id="path_8"/><path fill="#000001" d="M38.787,26.583c1.359,-0.701 3.394,-1.743 6.105,-3.128c0.235,-0.278 0.347,-0.415 0.347,-0.415c-0.613,-0.737 -1.545,-1.129 -2.779,-1.167c-1.067,-0.037 -2.128,-0.055 -3.183,-0.055c0.727,-1.762 1.483,-2.99 2.258,-3.68c2.314,-0.191 4.157,0.037 5.541,0.689c0.583,0.694 0.714,1.371 0.403,2.035c-0.124,0.428 -0.49,1.234 -1.092,2.432c-0.583,0.961 -1.229,1.749 -1.948,2.363c-0.714,0.621 -1.663,1.049 -2.854,1.291c-2.072,0.328 -3.115,0.49 -3.127,0.49c-0.279,0 -0.416,-0.057 -0.416,-0.162C38.042,26.95 38.291,26.719 38.787,26.583z" id="path_9"/></svg>