<svg id="vector" xmlns="http://www.w3.org/2000/svg" width="75" height="67" viewBox="0 0 83 73"><path fill="#000001" d="M55.889,16.678c0.331,0 0.662,1.105 0.993,3.303l1.485,3.303l-0.662,3.797l0.493,9.248v1.479c-0.218,3.775 -0.768,5.973 -1.647,6.606l-0.162,-0.162l0.162,-2.479c0,-2.226 -0.719,-9.324 -2.148,-21.291C55.093,17.945 55.586,16.678 55.889,16.678z" id="path_0"/><path fill="#2962FF" d="M42.941,20.685c1.627,0.521 2.895,1.184 3.797,1.979v0.331c0,0.549 -0.6,1.761 -1.811,3.634c-1.127,0 -2.395,-0.605 -3.796,-1.816v-0.331C41.132,23.298 41.737,22.03 42.941,20.685z" id="path_1"/><path fill="#2962FF" d="M41.709,39.708c4.325,0.042 6.74,-0.768 7.269,-2.437c0,-0.577 -0.549,-2.008 -1.654,-4.289l0.5,-4.29h0.323c1.438,2.473 2.148,4.952 2.148,7.424v1.486c0,0.993 -0.239,2.035 -0.711,3.127s-1.205,2.015 -2.184,2.754c-0.986,0.747 -2.881,1.057 -5.691,0.93V39.708z" id="path_2"/><path fill="#2962FF" d="M52.929,46.491c0.169,-0.092 0.218,0.056 0.147,0.457c-0.937,2.198 -2.373,3.733 -4.311,4.6l-7.12,3.57c-0.303,-0.084 -0.359,-0.331 -0.169,-0.739c0.95,-1.831 1.599,-2.916 1.944,-3.261L52.929,46.491z" id="path_3"/><path fill="#D50000" d="M30.32,47.386c0.684,0 1.895,0.823 3.627,2.472c0,0.557 -0.654,1.761 -1.979,3.634h-0.331c-0.69,0 -1.732,-0.661 -3.135,-1.979v-0.169C28.503,50.688 29.108,49.364 30.32,47.386z" id="path_4"/><path fill="#D50000" d="M36.258,46.562c2.754,1.183 4.127,2.112 4.127,2.803c-0.162,0.521 -0.93,1.677 -2.31,3.466c-1.846,-0.712 -3.163,-1.536 -3.959,-2.473C34.694,48.513 35.405,47.244 36.258,46.562z" id="path_5"/><path fill="#D50000" d="M27.404,39.708c1.176,0.015 1.901,-0.007 2.19,-0.063c2.479,-0.753 4.17,-2.359 5.078,-4.803c0.134,-0.473 0.408,-0.528 0.824,-0.169c0.219,0.189 0.388,0.965 0.493,2.31c1.5,2.021 3.373,2.93 5.613,2.726h0.437v4.705h-0.105c-3.508,-0.162 -6.093,-1.761 -7.762,-4.789h-0.162c-1.169,2.465 -2.712,3.979 -4.62,4.543c-0.577,0.162 -1.239,0.246 -1.986,0.246V39.708z" id="path_6"/><path fill="#D50000" d="M40.159,20.022c0.17,-0.099 0.219,0.057 0.148,0.458c-0.937,2.197 -2.374,3.733 -4.311,4.6l-7.121,3.57c-0.303,-0.084 -0.358,-0.331 -0.169,-0.746c0.951,-1.831 1.6,-2.916 1.944,-3.262L40.159,20.022z" id="path_7"/><path fill="#213877" d="M13.91,16.142h0.661c2.177,1.24 3.275,1.958 3.304,2.148c-1.077,2.311 -1.789,3.521 -2.148,3.635c-1.239,0 -2.451,-0.606 -3.634,-1.817C12.318,18.924 12.924,17.6 13.91,16.142z" id="path_8"/><path fill="#213877" d="M19.685,15.318c1.05,0 2.317,0.718 3.804,2.147c0,0.578 -0.718,1.732 -2.148,3.466c-0.823,0 -2.035,-0.55 -3.634,-1.648C17.706,18.318 18.368,16.994 19.685,15.318z" id="path_9"/><path fill="#213877" d="M27.82,44.413h-0.043c-3.162,0 -5.311,-1.543 -6.438,-4.62l-0.331,-1.324h-0.331c-0.246,0.88 -2.007,1.43 -5.282,1.655h-0.824c-2.204,0 -3.303,-0.662 -3.303,-1.986v-1.486c0,-1.592 1.211,-3.57 3.634,-5.938c1.458,-1.105 3.106,-2.035 4.952,-2.81l-0.17,-0.493c0.605,-2.754 1.106,-4.128 1.486,-4.128c0.197,0.466 0.472,3.881 0.831,10.234c0.493,4.282 2.431,6.36 5.818,6.254V44.413L27.82,44.413zM13.247,34.842c0.635,0.437 1.684,0.654 3.142,0.654c1.43,-0.105 2.747,-0.38 3.958,-0.823l-0.33,-4.621h-0.162C15.452,32.144 13.247,33.735 13.247,34.842z" id="path_10"/><path fill="#f06022" d="M24.08,49.364l0.169,0.148v0.45c-0.853,1.831 -2.043,3.113 -3.571,3.86c-4.732,2.57 -7.359,3.859 -7.881,3.859c-0.19,0 -0.289,-0.155 -0.289,-0.458c0.451,-1.747 1.444,-2.93 2.973,-3.55l8.459,-4.311H24.08z" id="path_11"/><path fill="#f06022" d="M22.904,45.652c0.197,0 0.288,0.142 0.288,0.43c-0.549,1.6 -2.176,3.036 -4.888,4.317l-6.254,3.424l-0.142,-0.148v-0.162c0.592,-2.092 1.535,-3.381 2.824,-3.859l6.98,-3.571L22.904,45.652z" id="path_12"/><path fill="#000001" d="M71.552,26.045c0.17,-0.099 0.219,0.057 0.148,0.458c-0.937,2.197 -2.374,3.732 -4.311,4.599l-7.121,3.571c-0.303,-0.085 -0.358,-0.331 -0.169,-0.747c0.951,-1.831 1.599,-2.916 1.944,-3.261L71.552,26.045z" id="path_13"/><path fill="#000001" d="M65.604,36.768c1.521,0 3.056,0.761 4.599,2.289c0.147,0.261 0.092,0.465 -0.176,0.62c-0.268,0.147 -0.515,0.112 -0.732,-0.105c-0.662,-0.592 -1.6,-0.888 -2.811,-0.888h-0.514c-0.508,0 -1.1,0.218 -1.775,0.641c0,1.24 1.486,2 4.458,2.289l2.951,-1.155l0.127,0.395c0,1.388 -1.711,2.627 -5.12,3.712l-4.727,2.684l-0.493,0.127c-0.189,0.042 -0.323,-0.043 -0.394,-0.247c0,-0.746 1.07,-1.768 3.197,-3.078v-0.126c-1.028,-0.563 -1.542,-1.374 -1.542,-2.431C63.132,38.338 64.118,36.768 65.604,36.768z" id="path_14"/></svg>