<svg id="vector" xmlns="http://www.w3.org/2000/svg" width="75" height="67" viewBox="0 0 83 73"><path fill="#9e3b21" d="M67.565,37.761h0.674c1.964,0 3.419,1.678 4.372,5.039l0.164,1.677c0.058,0.544 0.058,1.104 0,1.685c-0.502,2.042 -1.627,4.056 -3.361,6.041c-1.203,1.01 -3.941,1.791 -8.227,2.351c-0.502,-0.222 -0.789,-0.444 -0.839,-0.667c7.167,-3.891 10.75,-6.242 10.75,-7.059l0.165,-0.502l-0.165,-0.164l-1.513,0.501h-0.838c-3.024,0 -4.537,-1.067 -4.537,-3.188v-0.338c0.388,-3.476 1.233,-5.209 2.516,-5.209L67.565,37.761z" id="path_0"/><path fill="#9e3b21" d="M71.556,56.251c0.173,-0.093 0.223,0.058 0.15,0.466c-0.952,2.236 -2.414,3.799 -4.385,4.681l-7.246,3.633c-0.309,-0.086 -0.365,-0.336 -0.172,-0.752c0.967,-1.863 1.627,-2.967 1.979,-3.318L71.556,56.251z" id="path_1"/><path fill="#000001" d="M48.337,21.657c1.455,0 2.795,0.896 4.027,2.688c-1.032,2.352 -1.82,3.527 -2.351,3.527c-2.265,-1.119 -3.497,-1.85 -3.698,-2.187C46.316,24.625 46.99,23.277 48.337,21.657z" id="path_2"/><path fill="#000001" d="M42.897,42.735h0.838c5.225,-0.102 8.693,-0.832 10.413,-2.208l0.337,-0.666c-0.222,-0.538 -0.502,-0.803 -0.838,-0.803c-0.811,0.451 -1.706,0.673 -2.688,0.673h-0.172c-2.91,-0.336 -4.422,-1.512 -4.53,-3.525v-0.172c0.28,-3.806 1.176,-5.705 2.688,-5.705h0.838c2.587,-0.129 4.551,1.885 5.877,6.042l0.164,1.685v0.336c-0.035,4.113 -1.512,6.83 -4.428,8.142c-1.033,0.659 -3.871,0.989 -8.5,0.989V42.735z" id="path_3"/><path fill="#000001" d="M55.382,10.299c0.172,-0.101 0.222,0.058 0.15,0.466c-0.953,2.236 -2.416,3.799 -4.387,4.68l-7.245,3.633c-0.308,-0.086 -0.366,-0.336 -0.173,-0.759c0.969,-1.863 1.627,-2.968 1.979,-3.318L55.382,10.299z" id="path_4"/><path fill="#000001" d="M43.901,47.522c-3.261,0.193 -5.633,-1.312 -7.117,-4.516c-0.716,-1.189 -1.383,-9.209 -2.014,-24.059v-0.336c0.416,-2.466 1.032,-3.698 1.842,-3.698l0.846,-0.165c1.032,0 2.602,0.337 4.702,1.004v0.336c-0.115,0.338 -0.452,0.51 -1.011,0.51h-2.852c-0.588,0 -1.147,0.33 -1.685,1.003c0.523,12.893 1.283,20.36 2.293,22.403c1.003,2.042 2.673,2.952 4.995,2.73V47.522z" id="path_5"/><path fill="#009649" d="M19.147,42.735h0.839c5.225,-0.102 8.693,-0.832 10.413,-2.208l0.336,-0.666c-0.222,-0.538 -0.501,-0.803 -0.838,-0.803c-0.81,0.451 -1.706,0.673 -2.687,0.673h-0.172c-2.91,-0.336 -4.422,-1.512 -4.529,-3.525v-0.172c0.279,-3.806 1.175,-5.705 2.688,-5.705h0.838c2.587,-0.129 4.551,1.885 5.877,6.042l0.165,1.685v0.336c-0.036,4.113 -1.512,6.83 -4.429,8.142c-1.032,0.659 -3.87,0.989 -8.5,0.989V42.735z" id="path_6"/><path fill="#009649" d="M26.536,21.55c1.82,0.56 3.39,1.455 4.701,2.688v0.165c0,0.702 -0.724,1.821 -2.179,3.362c-0.451,0 -1.963,-0.56 -4.536,-1.678v0.164c-0.896,1.734 -1.455,2.631 -1.685,2.688c-1.455,-0.308 -2.688,-0.98 -3.691,-2.014c0.674,-2.802 1.233,-4.199 1.677,-4.199c0.365,0 1.706,0.674 4.035,2.014C24.859,24.151 25.418,23.091 26.536,21.55z" id="path_7"/><path fill="#f06022" d="M30.822,11.747l0.172,0.15v0.458c-0.874,1.863 -2.085,3.168 -3.633,3.928c-4.816,2.616 -7.489,3.927 -8.02,3.927c-0.201,0 -0.301,-0.157 -0.301,-0.465c0.466,-1.777 1.477,-2.982 3.024,-3.612l8.615,-4.386H30.822z" id="path_8"/><path fill="#f06022" d="M29.625,7.97c0.193,0 0.294,0.144 0.294,0.438c-0.559,1.627 -2.215,3.088 -4.974,4.393l-6.364,3.483l-0.144,-0.15v-0.165c0.602,-2.129 1.556,-3.439 2.875,-3.928l7.095,-3.633L29.625,7.97z" id="path_9"/><path fill="#009649" d="M19.312,47.522c-3.261,0.193 -5.633,-1.312 -7.116,-4.516c-0.717,-1.189 -1.383,-9.209 -2.014,-24.059v-0.336c0.416,-2.466 1.032,-3.698 1.842,-3.698l0.846,-0.165c1.032,0 2.602,0.337 4.702,1.004v0.336c-0.115,0.338 -0.452,0.51 -1.011,0.51h-2.853c-0.587,0 -1.146,0.33 -1.684,1.003c0.523,12.893 1.283,20.36 2.293,22.403c1.003,2.042 2.673,2.952 4.995,2.73V47.522z" id="path_10"/></svg>