<svg id="vector" xmlns="http://www.w3.org/2000/svg" width="75" height="67" viewBox="0 0 83 73"><path fill="#DD2C00" d="M41.914,45.411c0.189,0.014 0.395,0.021 0.619,0.021h1.564c1.654,-0.274 2.916,-0.852 3.797,-1.732l-1.98,-15.685c0.494,-2.973 0.938,-4.451 1.318,-4.451l2.146,4.951c0,0.768 -0.273,1.923 -0.822,3.465l0.822,8.91v2.479c-0.619,2.627 -1.449,4.466 -2.492,5.508c-0.789,0.838 -1.711,1.261 -2.789,1.261h-1.402c-0.273,0 -0.535,-0.007 -0.781,-0.021V45.411z" id="path_0"/><path fill="#213877" d="M31.674,27.704c2.049,0.775 3.154,1.438 3.303,1.986v0.824c-0.084,0.796 -0.689,1.895 -1.816,3.304h-0.162c-0.635,-0.557 -1.732,-1.106 -3.305,-1.655l-0.16,-0.824C30.52,28.916 31.236,27.704 31.674,27.704z" id="path_1"/><path fill="#213877" d="M42.59,50.137c-0.676,0.014 -1.395,0.021 -2.168,0.021H40.26c-1.732,0 -3.332,-0.55 -4.789,-1.648c-3.396,1.43 -6.973,2.141 -10.729,2.141h-2.146c-5.113,0 -8.586,-2.035 -10.396,-6.105l-0.17,-1.486c0.648,-4.733 1.643,-7.1 2.973,-7.1l0.332,0.331c0,0.401 -0.605,1.719 -1.818,3.965v0.163c0.951,3.739 4.416,5.612 10.404,5.612h1.979c2.381,0 4.529,-0.274 6.438,-0.823l-0.494,-2.811c0,-4.177 1.213,-6.269 3.629,-6.269h1.484c2.092,0.493 3.143,1.866 3.143,4.127c-0.227,2.339 -0.5,3.986 -0.832,4.952v0.162h0.17l1.979,0.126c0.416,0 0.803,-0.007 1.176,-0.021V50.137L42.59,50.137zM33.328,41.741c0.395,0.768 1.332,1.592 2.803,2.473l2.643,-0.986v-0.5c-0.705,-1.211 -1.635,-1.817 -2.803,-1.817h-0.332C34.096,40.98 33.328,41.256 33.328,41.741z" id="path_2"/><path fill="#213877" d="M31.92,53.954c0.17,-0.092 0.219,0.057 0.148,0.458c-0.938,2.197 -2.375,3.732 -4.311,4.599l-7.121,3.571c-0.303,-0.085 -0.359,-0.331 -0.168,-0.739c0.949,-1.832 1.598,-2.916 1.943,-3.261L31.92,53.954z" id="path_3"/><path fill="#FF6D00" d="M48.76,48.979c0.16,-0.286 0.477,-0.541 0.955,-0.768c0.477,-0.225 1.156,-0.537 2.035,-0.933c0.803,-0.446 1.248,-0.785 1.338,-1.009c0.092,-0.227 0.201,-0.584 0.324,-1.073c0.184,-0.475 0.385,-0.837 0.605,-1.087c0.221,-0.248 0.535,-0.215 0.941,0.102c0.59,0.904 0.91,1.906 0.955,3.005c-0.117,0.2 -0.221,0.301 -0.314,0.301c-0.061,0 -0.129,-0.066 -0.209,-0.195c-0.064,-0.243 -0.189,-0.521 -0.371,-0.833c-0.143,-0.209 -0.283,-0.376 -0.42,-0.503c-0.166,-0.05 -0.295,-0.012 -0.383,0.119l-0.363,0.949c-0.176,0.663 -0.582,1.116 -1.215,1.364c-0.631,0.367 -1.281,0.604 -1.957,0.706c-0.674,0.103 -1.047,0.188 -1.111,0.257c0,0.225 0.516,0.479 1.543,0.769c0.342,0.069 1.025,0.098 2.057,0.083c0.801,0.063 2.691,0.008 5.672,-0.159c0.998,-0.034 1.756,-0.043 2.277,-0.029c0.75,0.084 1.125,0.208 1.125,0.372c0,0.098 -0.141,0.203 -0.426,0.32c-0.463,0.181 -1.137,0.374 -2.025,0.577c-0.891,0.202 -1.539,0.314 -1.949,0.338c-1.109,0.187 -2.393,0.301 -3.846,0.339c-1.455,0.041 -2.535,-0.01 -3.24,-0.15c-1.539,-0.265 -2.377,-0.655 -2.508,-1.173c-0.068,-0.284 0.014,-0.689 0.252,-1.217C48.518,49.425 48.604,49.268 48.76,48.979z" id="path_4"/><path fill="#FF6D00" d="M64.039,18.734c0.281,0 0.564,0.943 0.846,2.816l1.268,2.817l-0.564,3.237l0.42,7.886v1.261c-0.186,3.22 -0.654,5.094 -1.404,5.634l-0.139,-0.139l0.139,-2.113c0,-1.898 -0.613,-7.952 -1.832,-18.156C63.359,19.815 63.781,18.734 64.039,18.734z" id="path_5"/><path fill="#FF6D00" d="M70.822,49.961c0.139,-0.081 0.18,0.046 0.121,0.374c-0.766,1.796 -1.939,3.051 -3.523,3.759l-5.818,2.918c-0.248,-0.069 -0.293,-0.271 -0.139,-0.61c0.777,-1.496 1.307,-2.383 1.59,-2.665L70.822,49.961z" id="path_6"/><path fill="#FF6D00" d="M65.137,43.722c1.244,0 2.5,0.622 3.76,1.871c0.121,0.213 0.074,0.38 -0.145,0.507c-0.219,0.121 -0.42,0.092 -0.598,-0.087c-0.541,-0.483 -1.307,-0.725 -2.297,-0.725h-0.42c-0.414,0 -0.898,0.178 -1.451,0.523c0,1.013 1.215,1.635 3.645,1.87l2.41,-0.943l0.104,0.322c0,1.134 -1.398,2.147 -4.184,3.033l-3.863,2.193l-0.402,0.104c-0.156,0.034 -0.264,-0.034 -0.322,-0.201c0,-0.61 0.875,-1.444 2.613,-2.516V49.57c-0.84,-0.461 -1.26,-1.123 -1.26,-1.986C63.117,45.006 63.924,43.722 65.137,43.722z" id="path_7"/><path fill="#DD2C00" d="M41.932,22.401c1.324,2.254 1.986,4.458 1.986,6.599c-0.576,4.071 -1.295,6.106 -2.148,6.106l-0.162,-0.162v-0.161l0.324,-2.148v-0.169c0,-1.317 -0.549,-3.297 -1.648,-5.938v-0.331C40.834,23.661 41.383,22.401 41.932,22.401z" id="path_8"/><path fill="#DD2C00" d="M49.914,10.444c0.168,-0.092 0.217,0.057 0.146,0.458c-0.936,2.197 -2.373,3.732 -4.311,4.599l-7.119,3.571c-0.303,-0.085 -0.359,-0.331 -0.17,-0.739c0.951,-1.831 1.6,-2.916 1.945,-3.261L49.914,10.444z" id="path_9"/></svg>