<svg id="vector" xmlns="http://www.w3.org/2000/svg" width="75" height="67" viewBox="0 0 83 73"><path fill="#000001" d="M56.342,40.699c0.256,0.03 0.503,-0.104 0.75,-0.397c-0.465,-0.569 -0.705,-1.162 -0.705,-1.777v-1.582c0.563,-5.152 2.61,-7.732 6.158,-7.732c1.784,0 3.72,0.938 5.797,2.813c0.766,0.292 1.17,0.585 1.23,0.877v0.173c0,0.27 -0.293,0.442 -0.878,0.532c0,-0.503 -1.522,-0.907 -4.567,-1.229h-0.705c-3.285,0.494 -4.92,1.372 -4.92,2.632c0,1.732 1.695,3.022 5.093,3.87l1.229,0.173c0.442,0 2.671,-1.11 6.683,-3.338h0.173l0.353,0.353c0,2.43 -2.692,5.07 -8.085,7.913c-3.84,1.17 -6.181,1.755 -7.027,1.755c-0.195,0 -0.383,-0.008 -0.578,-0.022V40.699z" id="path_0"/><path fill="#000001" d="M68.935,14.352c0.18,-0.105 0.232,0.06 0.157,0.487c-0.997,2.34 -2.527,3.975 -4.59,4.897L56.92,23.54c-0.322,-0.09 -0.383,-0.353 -0.181,-0.795c1.013,-1.95 1.703,-3.105 2.07,-3.473L68.935,14.352z" id="path_1"/><path fill="#304FFE" d="M56.718,45.732c-3.413,0.202 -5.896,-1.373 -7.448,-4.726c-0.75,-1.245 -1.447,-9.638 -2.107,-25.177v-0.354c0.436,-2.58 1.08,-3.869 1.928,-3.869l0.885,-0.173c1.08,0 2.723,0.353 4.92,1.05v0.353c-0.12,0.353 -0.473,0.532 -1.058,0.532h-2.984c-0.615,0 -1.2,0.346 -1.763,1.051c0.548,13.492 1.343,21.308 2.4,23.444c1.05,2.138 2.797,3.09 5.228,2.857V45.732z" id="path_2"/><path fill="#64DD17" d="M34.435,48.431c0.601,0 2.003,0.705 4.216,2.115c0,0.878 -0.698,2.28 -2.108,4.215c-2.813,-0.907 -4.215,-1.725 -4.215,-2.46C32.395,51.641 33.1,50.351 34.435,48.431z" id="path_3"/><path fill="#64DD17" d="M32.612,40.721c4.604,0.046 7.178,-0.817 7.74,-2.595c0,-0.615 -0.586,-2.138 -1.763,-4.567l0.532,-4.567h0.345c1.53,2.633 2.288,5.272 2.288,7.905v1.582c0,1.058 -0.255,2.168 -0.758,3.33c-0.502,1.162 -1.282,2.145 -2.325,2.933c-1.05,0.795 -3.067,1.125 -6.06,0.99V40.721z" id="path_4"/><path fill="#64DD17" d="M45.265,55.729c0.181,-0.098 0.232,0.061 0.157,0.487c-0.997,2.34 -2.527,3.976 -4.59,4.897l-7.582,3.803c-0.322,-0.09 -0.383,-0.353 -0.181,-0.787c1.013,-1.95 1.703,-3.105 2.07,-3.473L45.265,55.729z" id="path_5"/><path fill="#f06022" d="M33.242,45.754c-3.015,-0.203 -5.752,-1.853 -8.212,-4.942H24.85c-1.05,6.09 -3.397,9.135 -7.027,9.142H17.29c-1.575,-0.007 -3.105,-1.409 -4.567,-4.222c-1.17,-3.953 -1.755,-6.945 -1.755,-8.963v-1.41c0,-0.877 0.172,-1.35 0.524,-1.402c0.495,0.263 1.088,2.183 1.771,5.768c0.683,3.577 2.085,5.287 4.207,5.13c4.103,-0.675 6.27,-3.022 6.503,-7.035l-1.583,-5.444v-1.936c0.061,-2.348 0.293,-3.518 0.705,-3.518c0.232,0.525 0.412,1.058 0.525,1.583l2.46,7.732c1.935,3.135 4.327,4.62 7.162,4.439V45.754z" id="path_6"/><path fill="#f06022" d="M22.015,11.014c1.343,0 2.138,0.893 2.37,2.678v0.487c-0.247,2.984 -1.245,4.935 -2.984,5.843c-3.03,1.904 -5.783,2.857 -8.243,2.857c-0.09,-0.016 -0.172,-0.038 -0.263,-0.067c-0.09,-0.03 -0.157,-0.075 -0.21,-0.136c-0.052,-0.052 -0.045,-0.09 0.016,-0.104c0.127,-0.293 2.34,-1.463 6.63,-3.495v-0.157c-1.155,-0.728 -1.732,-1.733 -1.732,-3.008C18.288,12.642 19.758,11.014 22.015,11.014L22.015,11.014zM19.18,14.33v0.149c0,1.088 0.743,1.725 2.221,1.913h0.457c0.563,0 0.878,-0.158 0.945,-0.48c0,-1.478 -0.788,-2.22 -2.37,-2.22C19.6,13.879 19.18,14.096 19.18,14.33z" id="path_7"/><path fill="#f06022" d="M18.542,8.157c0.338,-0.165 0.496,-0.053 0.48,0.33c-1.695,1.875 -3.03,3.652 -3.998,5.34c-0.277,0.66 -0.435,1.2 -0.472,1.635c-0.038,0.435 0.075,0.9 0.345,1.396h0.33c0.128,-0.735 0.39,-1.103 0.787,-1.103c0.473,0.21 0.735,0.42 0.788,0.638v0.307c0.029,1.673 -0.442,2.678 -1.425,3.016H14.59c-1.058,-0.21 -1.582,-1.425 -1.582,-3.652C13.008,13.354 14.853,10.721 18.542,8.157z" id="path_8"/></svg>