<svg id="vector" xmlns="http://www.w3.org/2000/svg" width="75" height="67" viewBox="0 0 83 73"><path fill="#00B8D4" d="M37.645,13.709c1.41,2.398 2.115,4.746 2.115,7.027c-0.615,4.334 -1.38,6.502 -2.287,6.502L37.3,27.066v-0.174l0.345,-2.287v-0.18c0,-1.402 -0.585,-3.51 -1.755,-6.322V17.75C36.475,15.051 37.06,13.709 37.645,13.709z" id="path_0"/><path fill="#f06022" d="M28.771,24.389c1.343,0 2.138,0.893 2.37,2.678v0.486c-0.247,2.986 -1.245,4.936 -2.985,5.844c-3.029,1.904 -5.782,2.857 -8.242,2.857c-0.09,-0.016 -0.173,-0.039 -0.263,-0.068s-0.157,-0.074 -0.21,-0.135c-0.053,-0.053 -0.045,-0.09 0.016,-0.105c0.127,-0.293 2.34,-1.463 6.63,-3.494v-0.158c-1.155,-0.727 -1.732,-1.732 -1.732,-3.008C25.044,26.016 26.515,24.389 28.771,24.389L28.771,24.389zM25.937,27.703v0.15c0,1.088 0.742,1.725 2.22,1.912h0.458c0.563,0 0.878,-0.158 0.945,-0.48c0,-1.477 -0.788,-2.219 -2.37,-2.219C26.356,27.254 25.937,27.471 25.937,27.703z" id="path_1"/><path fill="#f06022" d="M25.299,21.531c0.338,-0.166 0.495,-0.053 0.48,0.33c-1.695,1.875 -3.03,3.652 -3.998,5.34c-0.277,0.66 -0.435,1.199 -0.472,1.635c-0.038,0.436 0.074,0.9 0.345,1.395h0.33c0.127,-0.734 0.39,-1.102 0.787,-1.102c0.473,0.209 0.735,0.42 0.788,0.637v0.307c0.029,1.674 -0.443,2.678 -1.426,3.016h-0.787c-1.058,-0.209 -1.583,-1.424 -1.583,-3.652C19.764,26.729 21.609,24.096 25.299,21.531z" id="path_2"/><path fill="#000001" d="M50.954,48.748h0.067c2.722,-0.121 4.598,-1.434 5.625,-3.953c0,-0.354 0.232,-0.645 0.705,-0.885h0.352c0.233,0 0.354,0.18 0.354,0.531l-0.181,1.051c0.998,1.762 2.056,2.641 3.165,2.641h0.878c1.522,0 2.7,-1.523 3.518,-4.568h0.18c0.173,0.021 0.465,0.729 0.878,2.107c0.997,0.877 1.987,1.402 2.984,1.582c1.17,0 1.763,-0.705 1.763,-2.107c0.112,-2.227 0.345,-3.344 0.697,-3.344c0.473,0.996 0.705,2.227 0.705,3.689c0,4.342 -1.058,6.51 -3.165,6.51c-1.643,0 -2.984,-0.824 -4.042,-2.467h-0.353c-0.728,2.348 -1.905,3.518 -3.518,3.518h-0.173c-1.433,0 -3.075,-1.111 -4.92,-3.338c-1.553,2.691 -3.314,4.043 -5.272,4.043h-0.247V48.748z" id="path_3"/><path fill="#000001" d="M69.276,27.785c0.18,-0.105 0.232,0.059 0.157,0.486c-0.997,2.34 -2.527,3.975 -4.59,4.898l-7.583,3.803c-0.322,-0.09 -0.382,-0.354 -0.18,-0.795c1.013,-1.951 1.702,-3.105 2.07,-3.473L69.276,27.785z" id="path_4"/><path fill="#00B8D4" d="M38.504,48.748c0.03,0 0.067,0 0.104,0c2.813,-0.174 4.426,-1.434 4.838,-3.781c-1.058,-7.027 -1.582,-11.955 -1.582,-14.768c0,-1.08 0.472,-2.49 1.409,-4.215l0.173,0.172l0.353,0.354l-0.18,1.23c0.149,7.896 1.147,14.018 2.992,18.367c0.705,1.582 2.43,2.467 5.183,2.641v5.01c-3.78,-0.061 -6.322,-2.049 -7.643,-5.979h-0.181c-1.215,3.938 -3.037,5.934 -5.467,5.979V48.748z" id="path_5"/><path fill="#213877" d="M38.302,53.758c-0.188,0 -0.391,0 -0.593,0h-0.173c-1.702,-0.016 -3.345,-0.316 -4.928,-0.9c-1.694,2.932 -3.922,4.395 -6.675,4.395c-3.285,-0.473 -4.928,-1.814 -4.928,-4.043h-0.172c-0.556,1.875 -1.785,3.398 -3.69,4.568c-2.55,0.938 -4.545,1.41 -5.978,1.41l-0.81,0.105v-0.354c0.652,-0.539 2.422,-1.793 5.303,-3.758c2.88,-1.957 4.515,-3.188 4.896,-3.689c0.391,-0.496 0.953,-2.152 1.688,-4.965c1.402,-2.34 2.692,-3.518 3.862,-3.518h0.353c1.462,0 3.81,1.582 7.035,4.748c0.937,0.795 2.534,1.146 4.808,1.057V53.758L38.302,53.758zM23.121,48.986c0,1.553 1.23,2.611 3.69,3.166h0.877c1.995,-0.203 2.993,-0.496 2.993,-0.877c-2.317,-2.229 -4.073,-3.338 -5.28,-3.338h-0.173C24.231,47.938 23.526,48.289 23.121,48.986z" id="path_6"/></svg>