<svg id="vector" xmlns="http://www.w3.org/2000/svg" width="75" height="67" viewBox="0 0 83 73"><path fill="#000001" d="M69.854,46.417c-0.422,0.352 -0.941,0.498 -1.551,0.443c-0.563,-0.043 -1.113,-0.15 -1.654,-0.324c-0.547,-0.172 -1.297,-0.519 -2.266,-1.043c-0.967,-0.523 -1.74,-0.789 -2.318,-0.8c-0.287,0.108 -0.557,0.378 -0.811,0.821c-0.346,0.563 -0.611,0.925 -0.789,1.092c-0.951,1.293 -2.363,2.061 -4.227,2.314v-4.406c2.027,0.098 3.768,-0.713 5.221,-2.427c0.34,-0.39 0.779,-1.135 1.318,-2.231c0.666,-1.044 1.346,-2.065 2.043,-3.061c0.865,-1.107 1.816,-1.702 2.865,-1.789c0.223,0 0.443,0 0.666,0c0.918,0.357 1.48,0.806 1.691,1.347c0.73,0.978 1.146,2.178 1.254,3.595C71.475,42.163 70.994,44.321 69.854,46.417L69.854,46.417zM68.713,41.953c0.287,0.21 0.465,0.162 0.541,-0.141c-0.363,-1.081 -1.168,-1.838 -2.422,-2.281c-0.205,-0.043 -0.4,-0.06 -0.59,-0.048c-0.496,0.031 -1.08,0.285 -1.756,0.762l0.016,0.281C66.15,41.444 67.551,41.92 68.713,41.953z" id="path_0"/><path fill="#000001" d="M63.395,22.532c0.939,1.265 1.41,2.832 1.41,4.697c0,0.751 -0.135,1.707 -0.41,2.881c-0.422,1.453 -0.865,2.184 -1.33,2.184c-0.129,-0.179 -0.195,-0.346 -0.195,-0.508c0,-0.136 0.049,-0.385 0.137,-0.752c0.092,-0.362 0.135,-0.654 0.135,-0.87s0,-0.448 0,-0.702c0,-0.486 -0.141,-1.249 -0.416,-2.287c-0.281,-1.037 -0.422,-1.816 -0.422,-2.335C62.303,23.926 62.664,23.153 63.395,22.532z" id="path_1"/><path fill="#213877" d="M56.773,48.92c-3.379,-0.033 -5.529,-1.644 -6.459,-4.832c-0.314,2.999 -1.926,4.609 -4.828,4.832v-4.379c1.74,0 2.85,-0.519 3.33,-1.557c0.48,-1.043 0.66,-2.465 0.529,-4.265c-0.123,-1.714 -0.189,-2.567 -0.189,-2.567c-0.01,-0.578 -0.086,-1.389 -0.236,-2.422c-0.357,-5.453 -0.443,-8.832 -0.254,-10.129c0.031,-0.379 0.166,-0.963 0.398,-1.757c0.223,-0.698 0.449,-1.292 0.682,-1.79c0.189,0 0.287,0.119 0.291,0.352c0.006,0.232 0.021,0.362 0.055,0.395c0.086,1.119 0.146,2.464 0.189,4.038l0.27,7.476c0.076,2.303 0.217,4.297 0.428,5.983c0.52,4.075 2.449,6.151 5.795,6.222V48.92z" id="path_2"/><path fill="#213877" d="M45.881,58.893l0.984,-2.897l9.545,-4.228c0.131,-0.01 0.189,0.006 0.189,0.049c0,0.033 -0.016,0.113 -0.049,0.254l-1.281,3.038l-9.166,4.119c-0.119,0.011 -0.189,0.011 -0.223,0C45.838,59.163 45.838,59.055 45.881,58.893z" id="path_3"/><path fill="#E53935" d="M45.973,48.92c-0.842,0 -1.723,-0.157 -2.643,-0.477c-2.383,-0.859 -4.379,-2.956 -5.984,-6.303l-0.762,-1.016c-0.264,0.422 -0.41,1.043 -0.443,1.854c-0.098,1.52 -1.502,2.946 -4.227,4.275c-0.816,0.39 -1.902,0.715 -3.266,0.969c-1.107,0.211 -2.221,0.41 -3.34,0.6c-3.609,0.124 -6.869,-0.395 -9.783,-1.568c-2.691,-1.551 -3.979,-3.702 -3.848,-6.459c0.514,-2.627 1.307,-4.395 2.373,-5.303c0.043,0.125 0.064,0.271 0.064,0.428c0,0.309 -0.119,0.697 -0.352,1.173c-0.281,0.578 -0.459,0.951 -0.52,1.108c0,1.172 0.449,2.232 1.346,3.184c0.779,0.875 1.758,1.486 2.93,1.838c2.32,0.707 4.752,1.059 7.281,1.059c2.41,0 4.605,-0.34 6.59,-1.016c1.395,-0.443 2.141,-0.682 2.232,-0.714c0.805,-0.367 1.469,-0.794 1.994,-1.28c0.098,-0.688 0.006,-1.416 -0.266,-2.189c-0.221,-0.687 -0.459,-1.352 -0.713,-1.994c0,-0.033 -0.389,-1.087 -1.156,-3.168c-0.498,-1.238 -0.813,-2.318 -0.936,-3.248l-0.254,-0.605c-0.287,-3.2 0.334,-5.498 1.854,-6.893c1.33,-0.918 3.881,-2.443 7.648,-4.578c3.244,-1.86 5.746,-3.47 7.523,-4.833c0.027,0.53 -0.209,1.13 -0.713,1.805c-0.762,0.952 -1.189,1.519 -1.287,1.714c-0.578,0.875 -1.307,2.237 -2.184,4.086c0.033,0 -0.107,-0.098 -0.426,-0.287c0,-0.2 0.053,-0.465 0.168,-0.795c0.107,-0.324 0.166,-0.551 0.166,-0.681c-0.486,0.097 -1.027,0.346 -1.627,0.751c-0.594,0.411 -1.166,0.795 -1.719,1.151c-1.918,1.043 -4.734,2.751 -8.438,5.114c-0.031,0.129 -0.049,0.27 -0.049,0.432c0,0.2 0.092,0.486 0.275,0.859c0.189,0.379 0.266,0.676 0.234,0.898c0.609,1.594 1.209,3.184 1.805,4.768c0.74,1.826 1.529,3.329 2.373,4.513c1.297,2.47 3.248,4.427 5.842,5.859c0.676,0.254 1.422,0.427 2.232,0.524V48.92z" id="path_4"/><path fill="#E53935" d="M21.195,58.893l0.984,-2.897l9.545,-4.228c0.131,-0.01 0.189,0.006 0.189,0.049c0,0.033 -0.016,0.113 -0.049,0.254l-1.281,3.038l-9.166,4.119c-0.119,0.011 -0.189,0.011 -0.223,0C21.152,59.163 21.152,59.055 21.195,58.893z" id="path_5"/></svg>