<svg id="vector" xmlns="http://www.w3.org/2000/svg" width="75" height="67" viewBox="0 0 83 73"><path fill="#000001" d="M62.229,50.374c0.23,0 0.467,0 0.717,0h0.172c2.094,-0.13 4,-1.871 5.705,-5.225c1.85,-2.803 3.756,-4.2 5.713,-4.2c2.465,0 3.697,1.563 3.697,4.701v0.839c0,1.541 -0.615,3.555 -1.85,6.049l-1.174,0.838c-1.039,0 -3.441,-0.73 -7.225,-2.186c-1.146,1.72 -2.043,2.767 -2.688,3.132c-0.982,0.681 -1.984,0.968 -3.023,0.839h-0.045V50.374L62.229,50.374zM70.672,46.826v0.165c2.91,1.125 4.65,1.684 5.211,1.684c0.221,0 0.336,-0.172 0.336,-0.509c-0.645,-1.677 -1.713,-2.516 -3.195,-2.516C71.99,45.65 71.203,46.045 70.672,46.826z" id="path_0"/><path fill="#000001" d="M76.09,27.784c0.172,-0.1 0.223,0.058 0.15,0.466c-0.953,2.235 -2.416,3.798 -4.387,4.68l-7.244,3.634c-0.309,-0.086 -0.365,-0.337 -0.172,-0.76c0.967,-1.863 1.627,-2.967 1.977,-3.318L76.09,27.784z" id="path_1"/><path fill="#FFAB00" d="M62.939,55.161c-0.107,0 -0.223,0 -0.33,0h-1.512c-1.512,0 -3.254,-0.953 -5.211,-2.853c-3.361,1.842 -6.986,2.795 -10.879,2.853v-4.766c2.035,0.136 4.65,-0.287 7.855,-1.283v-0.165c-1.541,-1.011 -2.996,-1.513 -4.365,-1.513l-1.348,0.166l-0.336,-0.84c0.451,-3.023 1.74,-4.536 3.863,-4.536l2.688,-0.165c4.256,0.502 6.385,1.455 6.385,2.854v0.674l-1.012,3.36c0.818,0.989 2.215,1.47 4.201,1.427V55.161z" id="path_2"/><path fill="#FFAB00" d="M59.936,27.885c0.172,-0.101 0.223,0.058 0.15,0.466c-0.953,2.236 -2.414,3.799 -4.385,4.68l-7.246,3.633c-0.309,-0.086 -0.365,-0.336 -0.172,-0.759c0.967,-1.864 1.627,-2.968 1.979,-3.318L59.936,27.885z" id="path_3"/><path fill="#0091EA" d="M45.432,55.161c-3.262,0.193 -5.633,-1.313 -7.117,-4.516c-0.717,-1.189 -1.383,-9.209 -2.014,-24.059v-0.336c0.416,-2.466 1.031,-3.699 1.842,-3.699l0.846,-0.164c1.031,0 2.602,0.337 4.701,1.004v0.336c-0.115,0.338 -0.451,0.51 -1.01,0.51h-2.854c-0.588,0 -1.146,0.329 -1.684,1.002c0.523,12.894 1.283,20.361 2.293,22.404c1.004,2.042 2.674,2.952 4.996,2.73V55.161z" id="path_4"/><path fill="#f06022" d="M28.096,37.208c0.945,0 2.234,0.781 3.861,2.352v0.336c-1.096,2.352 -1.82,3.526 -2.186,3.526l-3.863,-2.179h-0.172c-1.088,1.871 -1.813,2.881 -2.178,3.018h-0.172c-2.459,-1.09 -3.691,-1.928 -3.691,-2.516c0.896,-2.466 1.678,-3.698 2.352,-3.698l4.027,2.186C26.719,38.914 27.393,37.911 28.096,37.208z" id="path_5"/><path fill="#f06022" d="M23.723,32.005c1.098,0 2.322,0.946 3.699,2.853c-0.365,0.867 -1.098,1.878 -2.188,3.024h-0.336c-0.975,-0.222 -2.043,-0.838 -3.189,-1.85v-0.501C21.795,34.636 22.461,33.46 23.723,32.005z" id="path_6"/><path fill="#f06022" d="M12.908,50.374h0.064c2.602,-0.115 4.395,-1.369 5.375,-3.777c0,-0.337 0.223,-0.616 0.674,-0.846h0.338c0.221,0 0.336,0.172 0.336,0.509l-0.172,1.003c0.953,1.685 1.963,2.523 3.023,2.523h0.84c1.455,0 2.58,-1.455 3.361,-4.365h0.172c0.164,0.021 0.443,0.695 0.838,2.014c0.953,0.84 1.898,1.341 2.854,1.513c1.117,0 1.684,-0.673 1.684,-2.014c0.107,-2.128 0.33,-3.196 0.666,-3.196c0.451,0.953 0.674,2.129 0.674,3.525c0,4.15 -1.01,6.221 -3.023,6.221c-1.57,0 -2.854,-0.788 -3.863,-2.357H26.41c-0.695,2.243 -1.82,3.361 -3.361,3.361h-0.164c-1.369,0 -2.938,-1.061 -4.701,-3.189c-1.484,2.572 -3.168,3.863 -5.039,3.863h-0.236V50.374z" id="path_7"/><path fill="#f06022" d="M29.184,21.585l0.172,0.15v0.459c-0.873,1.863 -2.084,3.168 -3.633,3.928c-4.816,2.615 -7.488,3.927 -8.02,3.927c-0.201,0 -0.301,-0.157 -0.301,-0.466c0.465,-1.777 1.477,-2.981 3.023,-3.611l8.615,-4.387H29.184z" id="path_8"/><path fill="#f06022" d="M27.986,17.808c0.195,0 0.295,0.145 0.295,0.438c-0.559,1.627 -2.215,3.089 -4.975,4.394l-6.363,3.483l-0.143,-0.15v-0.166c0.602,-2.128 1.555,-3.439 2.873,-3.927l7.096,-3.634L27.986,17.808z" id="path_9"/><path fill="#213877" d="M13.754,55.161h-0.422c-4.057,0 -6.58,-2.853 -7.555,-8.564L4.768,30.3c0.422,-2.351 0.867,-3.691 1.348,-4.027h0.164c0.223,0 0.338,0.164 0.338,0.502c0,11.115 0.723,18.139 2.186,21.076c1.482,1.642 3.131,2.473 4.951,2.502V55.161z" id="path_10"/></svg>