<svg id="vector" xmlns="http://www.w3.org/2000/svg" width="75" height="67" viewBox="0 0 83 73"><path fill="#D50000" d="M62.999,47.029c0.255,0.031 0.503,-0.104 0.75,-0.396c-0.465,-0.57 -0.705,-1.162 -0.705,-1.777v-1.582c0.563,-5.152 2.61,-7.732 6.157,-7.732c1.785,0 3.721,0.938 5.798,2.813c0.765,0.291 1.17,0.584 1.229,0.877v0.172c0,0.27 -0.292,0.443 -0.877,0.533c0,-0.504 -1.522,-0.908 -4.567,-1.23h-0.705c-3.285,0.494 -4.92,1.373 -4.92,2.633c0,1.732 1.695,3.021 5.093,3.869l1.229,0.174c0.442,0 2.67,-1.111 6.683,-3.338h0.173l0.353,0.352c0,2.43 -2.693,5.07 -8.085,7.914c-3.841,1.17 -6.181,1.754 -7.028,1.754c-0.194,0 -0.382,-0.008 -0.577,-0.021V47.029z" id="path_0"/><path fill="#D50000" d="M75.591,20.684c0.18,-0.105 0.232,0.059 0.157,0.486c-0.997,2.34 -2.527,3.975 -4.59,4.898l-7.583,3.803c-0.322,-0.09 -0.382,-0.354 -0.18,-0.795c1.013,-1.951 1.702,-3.105 2.07,-3.473L75.591,20.684z" id="path_1"/><path fill="#000001" d="M51.944,24.109c2.467,1.23 3.697,2.289 3.697,3.166c-1.178,2.316 -1.875,3.486 -2.115,3.518h-0.353c-1.8,-0.908 -2.91,-1.725 -3.337,-2.461C50.249,26.998 50.954,25.596 51.944,24.109z" id="path_2"/><path fill="#000001" d="M63.832,52.086c-3.016,-0.203 -5.753,-1.854 -8.213,-4.943h-0.18c-1.051,6.09 -3.397,9.135 -7.027,9.143h-0.533c-1.575,-0.008 -3.104,-1.41 -4.567,-4.223c-1.17,-3.953 -1.755,-6.945 -1.755,-8.963v-1.41c0,-0.877 0.172,-1.35 0.525,-1.402c0.494,0.264 1.087,2.184 1.77,5.768c0.683,3.578 2.085,5.287 4.207,5.131c4.104,-0.676 6.271,-3.023 6.503,-7.035l-1.582,-5.445V36.77c0.06,-2.348 0.292,-3.518 0.704,-3.518c0.233,0.525 0.413,1.059 0.525,1.584l2.46,7.732c1.936,3.135 4.328,4.619 7.163,4.439V52.086z" id="path_3"/><path fill="#000001" d="M57.149,13.76c0.18,-0.105 0.232,0.061 0.157,0.488c-0.998,2.34 -2.527,3.975 -4.59,4.896l-7.583,3.803c-0.322,-0.09 -0.382,-0.352 -0.18,-0.795c1.013,-1.949 1.702,-3.105 2.07,-3.473L57.149,13.76z" id="path_4"/><path fill="#9e3b21" d="M35.609,22.527c0.352,0 0.705,1.178 1.057,3.518l1.583,3.518l-0.705,4.043l0.525,9.848v1.574c-0.232,4.02 -0.818,6.359 -1.755,7.035l-0.173,-0.172l0.173,-2.641c0,-2.369 -0.766,-9.93 -2.288,-22.672C34.761,23.877 35.286,22.527 35.609,22.527z" id="path_5"/><path fill="#f06022" d="M17.324,52.939c2.46,0.705 3.689,1.584 3.689,2.641l-2.287,3.689c-2.288,-0.938 -3.518,-1.643 -3.69,-2.107C15.036,56.074 15.793,54.672 17.324,52.939z" id="path_6"/><path fill="#f06022" d="M6.771,36.418h0.18l0.353,0.352c-0.938,2.078 -1.41,3.488 -1.41,4.215c0,3.428 3.285,5.424 9.848,5.979l2.107,0.352c2.107,0 5.272,-0.645 9.487,-1.934l2.468,-1.402c-0.825,-1.494 -1.35,-2.783 -1.582,-3.871l0.353,-3.338h0.345c1.41,1.463 2.115,4.043 2.115,7.732c0,3.549 -3.105,5.947 -9.323,7.209l-2.632,0.352c-9.848,0 -14.768,-3.225 -14.768,-9.668C4.311,39.703 5.136,37.707 6.771,36.418z" id="path_7"/><path fill="#f06022" d="M20.819,23.277c1.342,0 2.137,0.893 2.369,2.678v0.488c-0.247,2.984 -1.245,4.934 -2.984,5.842c-3.03,1.904 -5.782,2.857 -8.243,2.857c-0.09,-0.016 -0.172,-0.037 -0.262,-0.068c-0.09,-0.029 -0.158,-0.074 -0.211,-0.135c-0.052,-0.051 -0.044,-0.09 0.016,-0.104c0.127,-0.293 2.34,-1.463 6.63,-3.496v-0.156c-1.155,-0.729 -1.732,-1.734 -1.732,-3.008C17.091,24.906 18.561,23.277 20.819,23.277L20.819,23.277zM17.983,26.594v0.148c0,1.088 0.743,1.725 2.221,1.914h0.457c0.563,0 0.878,-0.158 0.945,-0.48c0,-1.479 -0.787,-2.221 -2.37,-2.221C18.404,26.143 17.983,26.359 17.983,26.594z" id="path_8"/><path fill="#f06022" d="M17.345,20.42c0.338,-0.164 0.496,-0.053 0.48,0.33c-1.695,1.875 -3.029,3.652 -3.997,5.34c-0.278,0.66 -0.436,1.201 -0.473,1.635c-0.038,0.436 0.075,0.9 0.345,1.396h0.33c0.128,-0.736 0.391,-1.104 0.788,-1.104c0.472,0.211 0.734,0.42 0.787,0.639v0.307c0.03,1.672 -0.442,2.678 -1.425,3.016h-0.788c-1.058,-0.211 -1.582,-1.426 -1.582,-3.652C11.811,25.617 13.656,22.984 17.345,20.42z" id="path_9"/></svg>