<svg id="vector" xmlns="http://www.w3.org/2000/svg" width="75" height="67" viewBox="0 0 83 73"><path fill="#000001" d="M57.109,20.53c0.33,0 0.662,1.105 0.992,3.303l1.486,3.304l-0.662,3.796l0.494,9.248v1.479c-0.219,3.775 -0.768,5.973 -1.648,6.606l-0.162,-0.162l0.162,-2.479c0,-2.226 -0.719,-9.325 -2.148,-21.292C56.313,21.798 56.807,20.53 57.109,20.53z" id="path_0"/><path fill="#00838F" d="M72.773,26.926c0.168,-0.099 0.219,0.056 0.148,0.457c-0.938,2.198 -2.375,3.733 -4.313,4.6l-7.119,3.57c-0.303,-0.084 -0.359,-0.331 -0.17,-0.746c0.951,-1.831 1.6,-2.916 1.945,-3.261L72.773,26.926z" id="path_1"/><path fill="#FF8F00" d="M33.775,39.37c0.225,0 0.459,0 0.705,0h0.168c2.057,-0.126 3.93,-1.838 5.607,-5.134c1.816,-2.754 3.689,-4.128 5.613,-4.128c2.422,0 3.633,1.536 3.633,4.621v0.823c0,1.515 -0.605,3.494 -1.816,5.944l-1.154,0.825c-1.021,0 -3.381,-0.719 -7.1,-2.148c-1.127,1.69 -2.008,2.718 -2.641,3.078c-0.967,0.669 -1.951,0.95 -2.973,0.823h-0.043V39.37L33.775,39.37zM42.072,35.885v0.161c2.859,1.106 4.57,1.655 5.121,1.655c0.217,0 0.33,-0.169 0.33,-0.5c-0.633,-1.648 -1.684,-2.472 -3.141,-2.472C43.367,34.729 42.594,35.116 42.072,35.885z" id="path_2"/><path fill="#EF6C00" d="M48.426,17.171c0.168,-0.099 0.217,0.056 0.146,0.457c-0.936,2.198 -2.373,3.733 -4.311,4.6l-7.119,3.571c-0.303,-0.085 -0.359,-0.331 -0.17,-0.747c0.951,-1.831 1.6,-2.916 1.943,-3.261L48.426,17.171z" id="path_3"/><path fill="#000001" d="M20.611,39.681c1.627,0.521 2.889,1.183 3.797,1.979v0.331c0,0.55 -0.605,1.761 -1.816,3.635c-1.127,0 -2.389,-0.605 -3.797,-1.817v-0.331C18.795,42.293 19.4,41.033 20.611,39.681z" id="path_4"/><path fill="#000001" d="M35.162,44.012c-1.5,0 -2.662,-0.232 -3.492,-0.697c-0.408,3.578 -1.176,6.051 -2.311,7.431c-2.719,3.409 -5.529,5.113 -8.416,5.113c-5.311,0 -8.775,-2.31 -10.402,-6.931c-0.324,-0.88 -0.494,-1.816 -0.494,-2.81v-1.317c0,-3.909 1.211,-6.987 3.635,-9.248c0.438,0.17 0.662,0.55 0.662,1.155l-2.641,4.789l-0.17,1.648c0,3.719 2.035,6.304 6.107,7.762l4.295,0.331c1.811,0 4.072,-1.05 6.77,-3.135c0.986,-1.599 1.486,-2.754 1.486,-3.472c-0.113,-1.099 -0.832,-2.69 -2.148,-4.782v-3.473l0.492,-0.492c1.197,2.408 3.408,3.57 6.627,3.485V44.012z" id="path_5"/><path fill="#000001" d="M26.838,21.276c0.17,-0.099 0.219,0.057 0.148,0.458c-0.938,2.197 -2.373,3.733 -4.311,4.6l-7.121,3.57c-0.303,-0.084 -0.359,-0.331 -0.168,-0.746c0.949,-1.831 1.598,-2.916 1.943,-3.261L26.838,21.276z" id="path_6"/><path fill="#00838F" d="M66.824,37.648c1.521,0 3.057,0.761 4.6,2.289c0.148,0.261 0.092,0.465 -0.176,0.62c-0.268,0.147 -0.514,0.112 -0.732,-0.106c-0.662,-0.591 -1.6,-0.887 -2.811,-0.887h-0.514c-0.508,0 -1.1,0.218 -1.775,0.641c0,1.239 1.486,2 4.459,2.289l2.951,-1.155l0.125,0.395c0,1.388 -1.711,2.627 -5.119,3.712l-4.727,2.684l-0.492,0.126c-0.191,0.043 -0.324,-0.042 -0.395,-0.246c0,-0.747 1.07,-1.768 3.197,-3.078v-0.127c-1.027,-0.563 -1.543,-1.373 -1.543,-2.43C64.352,39.219 65.338,37.648 66.824,37.648z" id="path_7"/></svg>