<svg id="vector" xmlns="http://www.w3.org/2000/svg" width="75" height="67" viewBox="0 0 83 73"><path fill="#00897B" d="M59.261,29.032v-0.156c0.529,-0.741 1.286,-1.746 2.281,-3.027h0.107c0.806,0.865 1.812,1.648 3.027,2.346c0.032,0.033 0.049,0.07 0.049,0.125l-2.2,2.978c-0.021,0.011 -0.06,0.017 -0.113,0.017c-0.065,0 -0.174,-0.027 -0.33,-0.081C61.32,30.886 60.38,30.151 59.261,29.032z" id="path_0"/><path fill="#00897B" d="M57.223,45.388c1.232,0.086 2.443,0.13 3.627,0.13c2.902,0 5.697,-0.325 8.389,-0.968c0.098,-0.092 0.146,-0.189 0.146,-0.281c0,-0.065 -0.07,-0.189 -0.206,-0.373c-0.14,-0.189 -0.21,-0.314 -0.21,-0.373c-0.865,-1.141 -2.211,-2.211 -4.038,-3.2c-2.816,-1.605 -4.292,-2.438 -4.416,-2.502c0,-1.583 0.113,-3.103 0.335,-4.562l0.6,0.189c1.849,1.01 3.676,2.021 5.481,3.021c2.075,1.33 3.265,2.935 3.563,4.811c0.188,0.654 0.28,1.319 0.28,1.994c0,1.395 -0.459,3.146 -1.389,5.254c-2.313,1.173 -5.514,1.756 -9.6,1.756c-1.266,0 -2.352,-0.092 -3.26,-0.27C56.525,49.669 56.758,48.129 57.223,45.388z" id="path_1"/><path fill="#213877" d="M46.045,45.88c2.945,-0.027 4.854,-0.486 5.729,-1.373c0.032,-0.443 0.049,-0.892 0.049,-1.346c0,-0.816 -0.13,-2.038 -0.379,-3.676c-0.254,-1.638 -0.459,-3.146 -0.61,-4.519c-0.157,-1.378 -0.422,-3.951 -0.8,-7.724c0.064,-0.313 0.081,-1.308 0.049,-2.979c0,-1.178 0.173,-2.113 0.519,-2.799c0.275,0.124 0.459,0.432 0.557,0.918c0.092,0.487 0.303,1.232 0.616,2.249c1.043,2.449 1.552,4.244 1.519,5.384c-0.026,0.189 -0.232,0.805 -0.6,1.854c-0.254,0.778 -0.303,1.838 -0.141,3.167c0.157,1.33 0.352,2.762 0.584,4.308c0.232,1.541 0.308,2.843 0.222,3.908c0.021,1.076 -0.2,2.097 -0.665,3.06c-0.346,1.141 -1.055,2.081 -2.124,2.827c-1.065,0.741 -2.573,1.125 -4.524,1.146V45.88z" id="path_2"/><path fill="#213877" d="M44.537,59.55l0.983,-2.897l9.546,-4.227c0.129,-0.011 0.188,0.005 0.188,0.049c0,0.032 -0.016,0.113 -0.048,0.254l-1.281,3.038l-9.168,4.119c-0.118,0.011 -0.188,0.011 -0.221,0C44.493,59.82 44.493,59.712 44.537,59.55z" id="path_3"/><path fill="#F4511E" d="M46.531,50.285c-0.843,0 -1.725,-0.157 -2.644,-0.476c-2.383,-0.859 -4.378,-2.957 -5.983,-6.303l-0.762,-1.016c-0.265,0.422 -0.411,1.043 -0.443,1.854c-0.098,1.519 -1.503,2.945 -4.227,4.275c-0.816,0.389 -1.903,0.713 -3.266,0.967c-1.107,0.211 -2.221,0.411 -3.34,0.6c-3.611,0.125 -6.87,-0.395 -9.783,-1.567c-2.692,-1.551 -3.979,-3.703 -3.849,-6.459c0.514,-2.627 1.308,-4.395 2.372,-5.302c0.044,0.124 0.065,0.27 0.065,0.427c0,0.308 -0.119,0.697 -0.352,1.173c-0.281,0.578 -0.459,0.951 -0.519,1.108c0,1.173 0.448,2.232 1.346,3.184c0.778,0.875 1.757,1.486 2.93,1.838c2.319,0.708 4.751,1.059 7.281,1.059c2.41,0 4.604,-0.34 6.589,-1.016c1.395,-0.443 2.141,-0.681 2.232,-0.713c0.806,-0.368 1.47,-0.795 1.994,-1.281c0.098,-0.687 0.006,-1.416 -0.265,-2.189c-0.222,-0.687 -0.46,-1.352 -0.714,-1.995c0,-0.032 -0.389,-1.086 -1.156,-3.167c-0.497,-1.238 -0.812,-2.318 -0.936,-3.249l-0.254,-0.605c-0.286,-3.2 0.335,-5.497 1.854,-6.892c1.329,-0.919 3.881,-2.443 7.648,-4.578c3.243,-1.859 5.745,-3.47 7.523,-4.833c0.027,0.53 -0.211,1.13 -0.713,1.806c-0.763,0.951 -1.189,1.519 -1.287,1.713c-0.578,0.875 -1.308,2.238 -2.184,4.086c0.033,0 -0.107,-0.097 -0.427,-0.287c0,-0.2 0.054,-0.465 0.168,-0.794c0.107,-0.324 0.167,-0.551 0.167,-0.681c-0.486,0.097 -1.027,0.346 -1.627,0.751c-0.595,0.411 -1.167,0.794 -1.719,1.151c-1.919,1.043 -4.735,2.751 -8.438,5.113c-0.032,0.129 -0.049,0.27 -0.049,0.433c0,0.2 0.092,0.486 0.275,0.859c0.189,0.378 0.266,0.675 0.232,0.897c0.611,1.595 1.211,3.184 1.806,4.768c0.74,1.827 1.529,3.33 2.373,4.513c1.297,2.47 3.248,4.427 5.843,5.859c0.676,0.254 1.422,0.427 2.232,0.524V50.285z" id="path_4"/><path fill="#F4511E" d="M19.375,33.34l0.984,-2.93l9.546,-4.194c0.129,-0.033 0.188,-0.017 0.188,0.048c0,0.033 -0.016,0.108 -0.049,0.238l-1.281,3.038l-9.167,4.103c-0.118,0.011 -0.188,0.011 -0.222,0C19.332,33.578 19.332,33.48 19.375,33.34z" id="path_5"/><path fill="#00897B" d="M61.237,13.106c0.941,1.265 1.411,2.833 1.411,4.697c0,0.751 -0.135,1.708 -0.41,2.881c-0.422,1.454 -0.865,2.184 -1.33,2.184c-0.13,-0.178 -0.194,-0.346 -0.194,-0.508c0,-0.135 0.048,-0.384 0.135,-0.751c0.092,-0.362 0.135,-0.654 0.135,-0.87s0,-0.449 0,-0.703c0,-0.486 -0.141,-1.249 -0.416,-2.287c-0.281,-1.038 -0.422,-1.816 -0.422,-2.335C60.146,14.501 60.508,13.728 61.237,13.106z" id="path_6"/></svg>