<svg id="vector" xmlns="http://www.w3.org/2000/svg" width="75" height="67" viewBox="0 0 83 73"><path fill="#D50000" d="M63.777,43.752c0.203,0.015 0.42,0.022 0.66,0.022h1.664c1.764,-0.292 3.105,-0.907 4.043,-1.845l-2.107,-16.702c0.525,-3.166 0.998,-4.74 1.402,-4.74l2.287,5.272c0,0.817 -0.291,2.048 -0.877,3.69l0.877,9.487v2.64c-0.658,2.797 -1.543,4.755 -2.654,5.865c-0.84,0.892 -1.822,1.343 -2.971,1.343h-1.492c-0.291,0 -0.57,-0.008 -0.832,-0.022V43.752z" id="path_0"/><path fill="#D50000" d="M75.305,10.73c0.18,-0.105 0.232,0.061 0.158,0.488c-0.998,2.34 -2.527,3.975 -4.59,4.896l-7.584,3.803c-0.322,-0.09 -0.381,-0.352 -0.18,-0.795c1.014,-1.95 1.703,-3.105 2.07,-3.473L75.305,10.73z" id="path_1"/><path fill="#000001" d="M59.18,50.015c1.822,0.735 3.166,1.553 4.051,2.46v0.18c-0.969,2.573 -1.732,3.863 -2.287,3.863c-0.443,0 -1.846,-0.706 -4.223,-2.107l-1.584,2.984c-3.045,-1.11 -4.566,-1.928 -4.566,-2.46c0.645,-2.4 1.289,-3.81 1.936,-4.215c0.494,0 2.016,0.758 4.566,2.287C58.039,51.012 58.744,50.015 59.18,50.015z" id="path_2"/><path fill="#000001" d="M47.314,43.775h1.148c2.279,-0.188 3.982,-1.095 5.092,-2.723l0.18,-0.532l-0.525,-2.633c0.113,-2.812 0.406,-4.222 0.879,-4.222c1.402,4.949 2.752,7.972 4.043,9.052c1.109,0.631 2.631,0.976 4.566,1.035c0.518,0 0.998,0 1.455,0v5.033c-0.578,0 -1.178,0 -1.807,0h-0.174c-3.367,0 -5.947,-1.876 -7.732,-5.626v-0.172l-1.582,3.157c-1.199,1.777 -2.963,2.655 -5.273,2.641h-0.27V43.775z" id="path_3"/><path fill="#000001" d="M54.418,19.475h1.74c2.107,0 3.164,0.788 3.164,2.37c-1.365,3.689 -3.021,5.647 -4.973,5.873l-2.303,0.307c-0.367,0 -0.518,-0.105 -0.465,-0.307c1.861,-0.982 3.6,-2.153 5.213,-3.496c-0.57,-0.532 -1.199,-0.795 -1.891,-0.795h-0.486l-1.891,0.158l-0.15,-0.158v-0.307C53.27,20.69 53.953,19.475 54.418,19.475z" id="path_4"/><path fill="#213877" d="M48.088,48.808h-0.684h-0.172c-1.26,0.09 -2.609,-0.743 -4.043,-2.506c-0.555,2.115 -1.611,3.165 -3.164,3.165s-2.783,-0.877 -3.691,-2.632c-1.26,1.635 -2.43,2.46 -3.518,2.46h-1.402l-1.229,-0.181c0,2.61 -0.826,5.303 -2.469,8.085c-2.924,3.405 -5.969,5.101 -9.135,5.101c-5.482,0 -9.053,-2.872 -10.725,-8.61l-0.352,-3.697c0,-3.45 1.408,-6.502 4.221,-9.135c0.465,0.232 0.697,0.585 0.697,1.05c-1.986,2.76 -2.984,4.928 -2.984,6.51v0.697c0,3.87 2.229,6.503 6.684,7.913l2.813,0.353c4.154,0 7.379,-1.875 9.666,-5.625l0.174,-1.936c-1.523,-2.984 -2.287,-4.859 -2.287,-5.625V43.67c0,-1.875 0.18,-2.813 0.531,-2.813c1.17,2.46 2.926,3.689 5.273,3.689c1.965,0 3.547,-1.229 4.746,-3.689h0.174c0.232,0 0.412,0.757 0.523,2.279c0.826,0.825 1.531,1.23 2.115,1.23h0.879c1.08,0 2.076,-1.343 2.984,-4.043l0.18,-0.172h0.172c0.232,2.152 1.17,3.359 2.813,3.622c0.504,-0.045 0.9,-0.045 1.209,-0.022V48.808z" id="path_5"/><path fill="#213877" d="M38.465,25.542c0.18,-0.105 0.232,0.061 0.158,0.487c-0.998,2.341 -2.527,3.976 -4.59,4.897l-7.584,3.803c-0.322,-0.09 -0.381,-0.352 -0.18,-0.795c1.014,-1.95 1.703,-3.105 2.07,-3.473L38.465,25.542z" id="path_6"/></svg>