<svg id="vector" xmlns="http://www.w3.org/2000/svg" width="75" height="67" viewBox="0 0 83 73"><path fill="#009649" d="M72.155,39.868c1.002,1.011 1.955,3.189 2.852,6.55l0.172,2.187c0,3.948 -1.963,6.636 -5.883,8.063l-1.176,0.165l-2.982,0.043l-2.895,-0.043l-0.164,-0.165v-0.172c0.357,-0.388 2.766,-1.563 7.217,-3.526c2.801,-1.591 4.314,-2.996 4.535,-4.199c-1.455,-3.104 -2.178,-4.896 -2.178,-5.375v-0.502C71.653,40.879 71.817,39.868 72.155,39.868z" id="path_0"/><path fill="#009649" d="M70.958,25.585c1.721,0 2.58,1.061 2.58,3.175c0,3.368 -2.875,6.242 -8.629,8.607c-0.824,0.251 -0.924,-0.051 -0.293,-0.903c0.156,-0.322 1.512,-1.333 4.07,-3.024v-0.143c-1.104,-0.452 -1.656,-1.412 -1.656,-2.882c0.73,-3.218 1.893,-4.83 3.482,-4.83H70.958L70.958,25.585zM68.392,29.219c0,0.896 0.76,1.447 2.271,1.663h0.295c0.559,0 0.918,-0.208 1.068,-0.609c0,-0.91 -0.66,-1.62 -1.971,-2.122C69.481,28.15 68.931,28.509 68.392,29.219z" id="path_1"/><path fill="#213877" d="M56.298,39.388h0.674c1.963,0 3.418,1.678 4.371,5.038l0.166,1.678c0.057,0.544 0.057,1.104 0,1.684c-0.502,2.043 -1.627,4.057 -3.361,6.042c-1.205,1.01 -3.941,1.791 -8.229,2.351c-0.502,-0.223 -0.787,-0.444 -0.838,-0.667c7.166,-3.892 10.75,-6.242 10.75,-7.059l0.164,-0.502l-0.164,-0.165l-1.512,0.502h-0.84c-3.023,0 -4.535,-1.068 -4.535,-3.189v-0.337c0.387,-3.476 1.232,-5.21 2.516,-5.21L56.298,39.388z" id="path_2"/><path fill="#213877" d="M60.749,25.778c0.172,-0.1 0.221,0.058 0.15,0.466c-0.953,2.236 -2.416,3.799 -4.387,4.68l-7.246,3.634c-0.307,-0.086 -0.365,-0.337 -0.172,-0.76c0.969,-1.863 1.627,-2.967 1.979,-3.318L60.749,25.778z" id="path_3"/><path fill="#000001" d="M34.845,52.044h0.336c1.146,0.251 2.379,0.925 3.697,2.021v0.165c-0.76,2.293 -1.426,3.525 -2.014,3.697c-1.713,-0.336 -2.994,-0.896 -3.861,-1.684v-0.165C33.003,54.761 33.618,53.42 34.845,52.044z" id="path_4"/><path fill="#000001" d="M41.063,50.532h0.166c1.146,0.172 2.438,0.953 3.863,2.351v0.172l-2.014,3.526c-2.688,-0.867 -4.035,-1.599 -4.035,-2.186C39.911,51.822 40.585,50.532 41.063,50.532z" id="path_5"/><path fill="#000001" d="M35.753,44.361c4.4,0.043 6.859,-0.78 7.396,-2.479c0,-0.587 -0.559,-2.042 -1.686,-4.364l0.51,-4.364h0.33c1.461,2.516 2.186,5.038 2.186,7.554v1.512c0,1.011 -0.244,2.071 -0.725,3.182c-0.48,1.111 -1.225,2.05 -2.221,2.803c-1.004,0.76 -2.932,1.075 -5.791,0.946V44.361z" id="path_6"/><path fill="#000001" d="M41.667,21.228h1.662c2.014,0 3.025,0.753 3.025,2.265c-1.305,3.526 -2.889,5.396 -4.752,5.611l-2.201,0.294c-0.352,0 -0.494,-0.1 -0.443,-0.294c1.777,-0.938 3.439,-2.057 4.98,-3.339c-0.545,-0.509 -1.146,-0.76 -1.807,-0.76h-0.465l-1.807,0.15l-0.143,-0.15V24.71C40.569,22.389 41.222,21.228 41.667,21.228z" id="path_7"/><path fill="#9e3b21" d="M36.249,49.171c-2.881,-0.194 -5.498,-1.771 -7.848,-4.723h-0.172c-1.004,5.818 -3.246,8.729 -6.715,8.735h-0.51c-1.504,-0.007 -2.967,-1.347 -4.365,-4.034c-1.117,-3.777 -1.676,-6.637 -1.676,-8.564v-1.348c0,-0.839 0.164,-1.29 0.502,-1.34c0.473,0.251 1.039,2.085 1.691,5.511c0.652,3.419 1.992,5.053 4.02,4.902c3.92,-0.645 5.992,-2.889 6.215,-6.723l-1.514,-5.203v-1.849c0.059,-2.243 0.279,-3.361 0.674,-3.361c0.223,0.502 0.395,1.011 0.502,1.513l2.352,7.389c1.848,2.996 4.135,4.414 6.844,4.242V49.171z" id="path_8"/><path fill="#f06022" d="M31.024,18.849l0.172,0.15v0.459c-0.875,1.863 -2.086,3.167 -3.633,3.927c-4.816,2.616 -7.49,3.927 -8.02,3.927c-0.201,0 -0.303,-0.157 -0.303,-0.465c0.467,-1.777 1.477,-2.981 3.025,-3.612l8.615,-4.386H31.024z" id="path_9"/><path fill="#f06022" d="M29.827,15.071c0.193,0 0.295,0.144 0.295,0.438c-0.561,1.627 -2.215,3.089 -4.975,4.393l-6.363,3.483l-0.145,-0.15v-0.165c0.602,-2.129 1.557,-3.439 2.875,-3.928l7.094,-3.633L29.827,15.071z" id="path_10"/><path fill="#000001" d="M9.333,20.927c0.338,0 0.674,1.125 1.012,3.361l1.512,3.361l-0.674,3.862l0.502,9.41v1.505c-0.223,3.842 -0.781,6.077 -1.678,6.723l-0.164,-0.165l0.164,-2.522c0,-2.265 -0.73,-9.489 -2.186,-21.665C8.524,22.217 9.026,20.927 9.333,20.927z" id="path_11"/></svg>