<svg id="vector" xmlns="http://www.w3.org/2000/svg" width="75" height="67" viewBox="0 0 83 73"><path fill="#000001" d="M41.758,45.308c0.859,-0.811 4.479,-1.133 10.844,-0.982c3.447,-0.121 6.793,-1.046 10.039,-2.766c1.234,-1.232 2.803,-3.305 4.703,-6.214c0.953,-0.953 1.848,-1.512 2.686,-1.685c2.91,0 4.373,1.57 4.373,4.701c-0.201,4.459 -1.039,7.146 -2.523,8.063h-0.838c-1.426,0 -3.949,-0.896 -7.561,-2.688c-0.84,1.462 -3.189,2.688 -7.053,3.698h-0.172c-5.23,0.451 -9.174,0.408 -11.818,-0.13C41.793,46.776 40.898,46.11 41.758,45.308L41.758,45.308zM66.842,40.047c1.426,0.695 3.275,1.312 5.539,1.849v-0.172c0,-1.763 -1.117,-2.823 -3.354,-3.188C67.564,38.95 66.842,39.46 66.842,40.047z" id="path_0"/><path fill="#000001" d="M68.182,18.397c1.719,0 2.58,1.061 2.58,3.174c0,3.369 -2.875,6.242 -8.629,8.607c-0.824,0.251 -0.924,-0.05 -0.293,-0.902c0.156,-0.323 1.512,-1.334 4.07,-3.025v-0.143c-1.104,-0.451 -1.656,-1.412 -1.656,-2.881c0.73,-3.219 1.893,-4.83 3.482,-4.83H68.182L68.182,18.397zM65.615,22.03c0,0.896 0.76,1.447 2.271,1.663h0.295c0.559,0 0.918,-0.208 1.068,-0.609c0,-0.91 -0.66,-1.62 -1.971,-2.122C66.705,20.962 66.152,21.321 65.615,22.03z" id="path_1"/><path fill="#009649" d="M38.432,42.964c0.352,0 0.717,0 1.098,0l0.838,-0.423c0.531,-1.089 1.318,-2.429 2.352,-4.027l-1.678,-12.937c0.559,-2.688 1.061,-4.027 1.512,-4.027l0.84,3.189c0.781,1.09 1.174,2.1 1.174,3.024c-0.559,1.032 -0.838,1.878 -0.838,2.516v0.337l0.338,5.375v0.846c1.734,-1.463 4.055,-2.258 6.965,-2.395c3.361,0.474 5.039,1.592 5.039,3.354v1.175c-0.561,2.494 -1.398,4.4 -2.516,5.713c-3.391,1.906 -7.109,2.924 -11.174,3.066h-1.848c-0.738,0 -1.441,0 -2.102,0V42.964L38.432,42.964zM41.707,43.05h0.338c5.123,-0.143 9.129,-1.053 12.012,-2.73c-1.313,-1.348 -2.266,-2.014 -2.854,-2.014h-1.348C46.021,38.442 43.307,40.026 41.707,43.05z" id="path_2"/><path fill="#009649" d="M58.211,15.61c0.172,-0.1 0.223,0.059 0.15,0.467c-0.953,2.235 -2.414,3.798 -4.385,4.68L46.73,24.39c-0.309,-0.086 -0.365,-0.336 -0.172,-0.76c0.967,-1.863 1.627,-2.967 1.979,-3.317L58.211,15.61z" id="path_3"/><path fill="#009649" d="M38.432,47.751c-3.26,0.193 -6.502,-1.358 -8.084,-4.515c-0.621,-1.241 -1.383,-9.21 -2.014,-24.059v-0.337c0.416,-2.465 1.033,-3.697 1.842,-3.697l0.846,-0.165c1.033,0 2.602,0.337 4.703,1.003v0.337c-0.115,0.337 -0.453,0.509 -1.012,0.509h-2.852c-0.588,0 -1.146,0.33 -1.686,1.004c0.523,12.893 1.287,20.358 2.295,22.402c1.006,2.041 3.639,2.953 5.961,2.73V47.751z" id="path_4"/><path fill="#f06022" d="M14.475,22.911c2.215,0 4.342,0.953 6.385,2.859c0.072,0.825 -0.264,1.104 -1.01,0.84c-1.146,-0.789 -2.379,-1.176 -3.691,-1.176c-3.475,0.473 -5.209,1.262 -5.209,2.351c1.117,1.397 3.418,2.407 6.887,3.024h0.172l6.041,-2.021h0.338v0.337c-0.18,1.556 -1.191,2.624 -3.025,3.196c-3.805,1.734 -6.658,3.469 -8.564,5.203c-1.906,2.552 -2.852,4.623 -2.852,6.214c0,2.58 1.396,5.045 4.199,7.396c2.939,1.563 6.293,2.352 10.076,2.352l10.076,-0.51l0.166,0.172v0.338c-4.645,3.023 -9.066,4.536 -13.266,4.536h-0.502c-5.182,0 -8.766,-2.129 -10.75,-6.386c-0.896,-2.352 -1.348,-3.92 -1.348,-4.701c0,-4.508 1.232,-8.65 3.697,-12.435v-0.165c-2.242,-0.702 -3.359,-2.1 -3.359,-4.199v-0.674C9.688,25.098 11.537,22.911 14.475,22.911z" id="path_5"/><path fill="#f06022" d="M27.324,41.343l0.172,0.15v0.459c-0.867,1.863 -2.078,3.168 -3.633,3.928c-4.816,2.615 -7.49,3.928 -8.02,3.928c-0.193,0 -0.295,-0.158 -0.295,-0.467c0.459,-1.777 1.469,-2.98 3.025,-3.611l8.605,-4.387H27.324z" id="path_6"/><path fill="#f06022" d="M26.127,37.566c0.201,0 0.295,0.144 0.295,0.438c-0.561,1.627 -2.215,3.089 -4.975,4.394l-6.363,3.482l-0.145,-0.15v-0.165c0.604,-2.128 1.563,-3.44 2.875,-3.927l7.102,-3.634L26.127,37.566z" id="path_7"/></svg>