<svg id="vector" xmlns="http://www.w3.org/2000/svg" width="75" height="67" viewBox="0 0 83 73"><path fill="#009649" d="M30.078,36.697c-1.427,0.029 -3.003,0.014 -4.723,-0.043c-0.309,3.555 -2.043,6.578 -5.211,9.072c-1.498,1.412 -3.34,2.201 -5.54,2.352c-4.622,0 -7.977,-2.186 -10.076,-6.551c-0.408,-1.984 -0.552,-3.611 -0.43,-4.873c0.114,-1.254 0.874,-3.332 2.271,-6.213c0.896,-1.119 1.569,-1.678 2.021,-1.678l0.164,0.164v0.174c0,0.615 -0.724,1.955 -2.186,4.027c-0.444,1.117 -0.666,2.07 -0.666,2.859c0,3.074 1.849,5.316 5.539,6.715c0.867,0.336 2.043,0.559 3.526,0.674c3.024,0 6.221,-1.684 9.574,-5.039c0,-0.701 -0.279,-1.203 -0.838,-1.512h-0.502c-4.372,0 -6.55,-1.176 -6.55,-3.525c0,-3.477 1.061,-5.211 3.188,-5.211c1.85,0 3.419,1.291 4.701,3.863c1.176,-0.014 3.09,-0.008 5.734,0.021V36.697z" id="path_0"/><path fill="#009649" d="M19.478,18.688c2.573,0.975 3.863,1.648 3.863,2.014v0.164c-1.039,2.352 -1.763,3.527 -2.186,3.527c-0.867,0 -2.1,-0.502 -3.698,-1.512c-0.667,1.711 -1.232,2.666 -1.677,2.859h-0.165c-1.011,0 -2.243,-0.561 -3.698,-1.678v-0.172c0,-1.01 0.616,-2.293 1.85,-3.863h0.337c0.917,0.193 2.1,0.752 3.525,1.678h0.165C18.604,19.748 19.17,18.738 19.478,18.688z" id="path_1"/><path fill="#f06022" d="M23.126,53.029l0.172,0.15v0.459c-0.867,1.863 -2.078,3.168 -3.634,3.928c-4.815,2.615 -7.488,3.928 -8.02,3.928c-0.193,0 -0.294,-0.158 -0.294,-0.467c0.459,-1.777 1.47,-2.98 3.024,-3.611l8.607,-4.387H23.126z" id="path_2"/><path fill="#f06022" d="M21.929,49.254c0.201,0 0.294,0.143 0.294,0.436c-0.559,1.627 -2.214,3.09 -4.974,4.395l-6.364,3.482l-0.143,-0.15v-0.164c0.602,-2.129 1.563,-3.441 2.873,-3.928l7.103,-3.635L21.929,49.254z" id="path_3"/><path fill="#009649" d="M75.322,31.072c1.003,1.01 1.956,3.188 2.852,6.549l0.172,2.188c0,3.947 -1.963,6.635 -5.883,8.061l-1.176,0.166l-2.981,0.043l-2.896,-0.043l-0.164,-0.166v-0.172c0.357,-0.387 2.766,-1.563 7.217,-3.525c2.802,-1.59 4.314,-2.996 4.536,-4.199c-1.455,-3.104 -2.179,-4.895 -2.179,-5.375v-0.502C74.82,32.082 74.984,31.072 75.322,31.072z" id="path_4"/><path fill="#009649" d="M78.762,19.877c0.172,-0.1 0.223,0.057 0.15,0.467c-0.953,2.234 -2.415,3.797 -4.386,4.68l-7.245,3.633c-0.309,-0.086 -0.365,-0.336 -0.172,-0.76c0.967,-1.863 1.627,-2.967 1.978,-3.318L78.762,19.877z" id="path_5"/><path fill="#000001" d="M44.396,31.889h1.936c2.042,-0.279 5.289,-1.039 9.739,-2.266v-0.172c-4.057,-1.791 -6.63,-2.688 -7.726,-2.688c-1.484,0 -2.486,0.84 -3.024,2.523l-0.502,0.336c-0.222,0 -0.337,-0.172 -0.337,-0.508c0.56,-3.354 2.071,-5.039 4.537,-5.039h0.838c1.039,0 4.565,1.176 10.586,3.527l4.536,0.336l0.329,0.51c-0.078,0.752 -0.752,2.207 -2.014,4.363h-0.502l-0.673,-0.172h-0.839c-8.736,2.58 -13.832,3.92 -15.287,4.035h-1.598V31.889z" id="path_6"/><path fill="#000001" d="M59.074,38.797c0.172,-0.094 0.222,0.057 0.15,0.467c-0.953,2.236 -2.416,3.797 -4.387,4.68l-7.245,3.633c-0.308,-0.086 -0.365,-0.336 -0.172,-0.752c0.968,-1.863 1.627,-2.967 1.978,-3.318L59.074,38.797z" id="path_7"/><path fill="#9e3b21" d="M33.195,39.699c0.695,0 1.928,0.84 3.69,2.516c0,0.566 -0.666,1.793 -2.014,3.699h-0.337c-0.702,0 -1.763,-0.674 -3.189,-2.014v-0.172C31.346,43.061 31.963,41.713 33.195,39.699z" id="path_8"/><path fill="#9e3b21" d="M39.236,38.861c2.803,1.205 4.199,2.15 4.199,2.852c-0.164,0.531 -0.945,1.707 -2.35,3.527c-1.878,-0.725 -3.218,-1.563 -4.027,-2.516C37.646,40.846 38.369,39.557 39.236,38.861z" id="path_9"/><path fill="#9e3b21" d="M30.229,31.889c1.196,0.014 1.935,-0.008 2.229,-0.064c2.522,-0.768 4.242,-2.4 5.167,-4.889c0.136,-0.48 0.416,-0.537 0.839,-0.172c0.222,0.193 0.395,0.982 0.502,2.352c1.525,2.057 3.432,2.98 5.711,2.773h0.445v4.787h-0.107c-3.57,-0.164 -6.199,-1.791 -7.898,-4.873h-0.164c-1.19,2.508 -2.76,4.049 -4.701,4.623c-0.588,0.164 -1.262,0.25 -2.021,0.25V31.889z" id="path_10"/><path fill="#9e3b21" d="M36.821,11.506h1.663c2.014,0 3.023,0.754 3.023,2.266c-1.304,3.525 -2.888,5.396 -4.751,5.611l-2.2,0.293c-0.352,0 -0.494,-0.1 -0.444,-0.293c1.777,-0.939 3.44,-2.057 4.981,-3.34c-0.545,-0.51 -1.146,-0.76 -1.807,-0.76h-0.466l-1.806,0.15l-0.144,-0.15v-0.295C35.725,12.668 36.377,11.506 36.821,11.506z" id="path_11"/></svg>