<svg id="vector" xmlns="http://www.w3.org/2000/svg" width="75" height="67" viewBox="0 0 83 73"><path fill="#213877" d="M66.25,24.373c5.977,2.138 8.961,4.777 8.961,7.912l0.182,1.051c-0.504,4.103 -1.854,6.149 -4.051,6.149c0,0.383 -2.924,0.855 -8.783,1.41l-0.18,-0.524c0,-2.933 0.525,-4.396 1.584,-4.396c5.857,-0.473 9.082,-1.178 9.666,-2.115c-2.018,-1.957 -4.656,-3.54 -7.912,-4.74l-0.172,-0.885C65.635,25.663 65.867,24.373 66.25,24.373z" id="path_0"/><path fill="#213877" d="M73.188,12.087c0.18,-0.104 0.232,0.061 0.156,0.487c-0.996,2.34 -2.527,3.976 -4.59,4.897l-7.582,3.803c-0.322,-0.09 -0.383,-0.353 -0.18,-0.795c1.012,-1.95 1.703,-3.104 2.07,-3.473L73.188,12.087z" id="path_1"/><path fill="#000001" d="M55.389,11.36c0.354,0 0.705,1.178 1.059,3.518l1.582,3.518l-0.705,4.043l0.525,9.847v1.575c-0.232,4.021 -0.818,6.36 -1.756,7.035l-0.172,-0.173l0.172,-2.64c0,-2.37 -0.764,-9.93 -2.287,-22.673C54.543,12.71 55.066,11.36 55.389,11.36z" id="path_2"/><path fill="#D50000" d="M39.467,9.98c1.521,0 2.926,0.938 4.215,2.813c-1.08,2.46 -1.904,3.69 -2.459,3.69c-2.371,-1.17 -3.66,-1.936 -3.871,-2.288C37.352,13.085 38.057,11.675 39.467,9.98z" id="path_3"/><path fill="#D50000" d="M33.773,32.038h0.879c5.467,-0.105 9.098,-0.87 10.896,-2.31l0.354,-0.698c-0.232,-0.563 -0.525,-0.84 -0.879,-0.84c-0.846,0.473 -1.783,0.705 -2.813,0.705h-0.18c-3.045,-0.353 -4.627,-1.582 -4.74,-3.69v-0.18c0.293,-3.982 1.23,-5.97 2.813,-5.97h0.879c2.707,-0.135 4.762,1.973 6.15,6.322l0.172,1.763v0.353c-0.037,4.305 -1.582,7.147 -4.635,8.52c-1.08,0.69 -4.051,1.035 -8.896,1.035V32.038z" id="path_4"/><path fill="#D50000" d="M47.717,40.055c0.18,-0.098 0.232,0.06 0.158,0.487c-0.998,2.34 -2.527,3.975 -4.59,4.897l-7.584,3.803c-0.322,-0.09 -0.381,-0.353 -0.18,-0.788c1.014,-1.949 1.703,-3.104 2.07,-3.472L47.717,40.055z" id="path_5"/><path fill="#009649" d="M34.84,37.07c-1.492,0.03 -3.143,0.016 -4.943,-0.045c-0.322,3.721 -2.137,6.885 -5.453,9.495c-1.566,1.478 -3.494,2.303 -5.797,2.46c-4.838,0 -8.348,-2.287 -10.545,-6.854c-0.428,-2.078 -0.578,-3.78 -0.449,-5.101c0.119,-1.313 0.914,-3.487 2.377,-6.502c0.938,-1.17 1.643,-1.755 2.115,-1.755l0.172,0.172v0.18c0,0.646 -0.758,2.048 -2.287,4.216c-0.465,1.17 -0.697,2.167 -0.697,2.992c0,3.218 1.936,5.564 5.797,7.027c0.908,0.353 2.139,0.585 3.689,0.705c3.166,0 6.512,-1.763 10.021,-5.272c0,-0.735 -0.293,-1.26 -0.879,-1.583h-0.523c-4.576,0 -6.855,-1.229 -6.855,-3.689c0,-3.638 1.109,-5.452 3.338,-5.452c1.934,0 3.576,1.35 4.92,4.042c1.229,-0.015 3.232,-0.008 6,0.022V37.07z" id="path_6"/><path fill="#009649" d="M23.746,18.222c2.693,1.021 4.043,1.726 4.043,2.107v0.173c-1.088,2.46 -1.844,3.69 -2.287,3.69c-0.908,0 -2.197,-0.525 -3.871,-1.583c-0.697,1.793 -1.289,2.79 -1.754,2.992h-0.172c-1.059,0 -2.348,-0.584 -3.871,-1.755v-0.18c0,-1.058 0.645,-2.399 1.936,-4.042h0.352c0.961,0.202 2.197,0.787 3.691,1.755h0.172C22.832,19.333 23.424,18.275 23.746,18.222z" id="path_7"/><path fill="#f06022" d="M27.564,54.163l0.18,0.157v0.48c-0.908,1.95 -2.176,3.314 -3.803,4.109c-5.039,2.738 -7.838,4.11 -8.393,4.11c-0.201,0 -0.307,-0.165 -0.307,-0.487c0.48,-1.86 1.537,-3.12 3.164,-3.78l9.008,-4.59H27.564z" id="path_8"/><path fill="#f06022" d="M26.313,50.21c0.209,0 0.307,0.149 0.307,0.457c-0.584,1.703 -2.318,3.232 -5.205,4.598l-6.66,3.645l-0.15,-0.157v-0.172c0.631,-2.228 1.635,-3.601 3.008,-4.11l7.434,-3.803L26.313,50.21z" id="path_9"/></svg>