<svg id="vector" xmlns="http://www.w3.org/2000/svg" width="75" height="67" viewBox="0 0 83 73"><path fill="#000001" d="M61.269,48.008c-0.034,1.089 -0.21,2.059 -0.533,2.927c-0.346,0.573 -0.602,0.873 -0.766,0.896c-0.187,0 -0.272,-0.313 -0.249,-0.931c-0.289,-6.215 -0.646,-10.559 -1.078,-13.031c-0.232,-2.218 -0.55,-4.032 -0.946,-5.438c-0.147,-0.55 -0.228,-1.061 -0.25,-1.525c-0.034,-0.868 0.091,-1.866 0.38,-2.994l0.766,-2.892c0.103,-0.092 0.21,-0.137 0.335,-0.137c0.13,0 0.221,0.192 0.261,0.584c0.057,0.505 0.124,0.816 0.21,0.931c0.085,0.107 0.38,0.997 0.89,2.67c0.329,1.101 0.743,1.963 1.23,2.592c0.029,0.222 0.052,0.432 0.063,0.636c0,0.408 -0.119,0.98 -0.356,1.724c-0.239,0.743 -0.403,1.253 -0.505,1.531l-0.131,0.499L61.269,48.008z" id="path_0"/><path fill="#213e95" d="M51.299,47.912c-1.786,1.14 -4.094,2.064 -6.93,2.772c-4.321,0.976 -7.984,1.452 -10.989,1.436c-3.006,-0.018 -5.343,-0.307 -7.004,-0.874c-1.661,-0.562 -3.119,-1.542 -4.366,-2.938c-1.077,-1.23 -1.707,-2.659 -1.895,-4.287c-0.244,-2.291 0.313,-4.763 1.679,-7.411c0.142,-0.131 0.284,-0.289 0.431,-0.471c0.143,-0.182 0.307,-0.262 0.482,-0.227l-0.017,0.402c-0.755,1.616 -1.163,3.056 -1.231,4.315c-0.034,0.442 -0.034,0.748 0,0.913c0.466,2.126 2.076,3.623 4.838,4.491c1.548,0.527 3.17,0.856 4.865,0.976c0.267,0.011 0.681,0.045 1.247,0.102c3.465,0.012 7.668,-0.396 12.606,-1.23c2.858,-0.533 4.895,-1.253 6.103,-2.161c-0.08,-0.362 -0.352,-0.776 -0.817,-1.236c-0.465,-0.459 -0.748,-0.873 -0.845,-1.235c-0.067,-1.463 0.018,-2.961 0.249,-4.485l0.199,-0.018c1.537,1.735 2.393,3.584 2.558,5.529C52.66,44.549 52.274,46.426 51.299,47.912z" id="path_1"/><path fill="#213e95" d="M39.282,20.446c0.314,0.541 0.68,2.085 1.097,4.631c-0.256,1.543 -0.929,2.312 -2.019,2.312h-0.146c-0.476,0 -1.09,-0.308 -1.865,-0.922c-0.527,0.929 -1.303,1.396 -2.312,1.396c-1.229,0 -1.844,-1.492 -1.844,-4.477c0.358,-1.134 0.666,-1.697 0.922,-1.697l0.146,0.153v2.634c0.212,0.914 0.476,1.368 0.775,1.368h0.621c0.644,0 1.054,-0.256 1.244,-0.768l-0.322,-2.313c0.125,-0.775 0.337,-1.185 0.622,-1.222h0.321c0.322,2.568 0.842,3.855 1.537,3.855h1.075v-0.153l-0.469,-3.08v-0.176C38.792,20.958 38.996,20.446 39.282,20.446z" id="path_2"/><path fill="#213e95" d="M31.422,61.753l1.032,-3.073l10.015,-4.4c0.137,-0.034 0.198,-0.018 0.198,0.051c0,0.034 -0.017,0.113 -0.051,0.249l-1.345,3.188l-9.617,4.304c-0.124,0.012 -0.198,0.012 -0.232,0C31.377,62.003 31.377,61.9 31.422,61.753z" id="path_3"/><path fill="#213e95" d="M30.937,37.774V37.61c0.556,-0.777 1.35,-1.832 2.393,-3.176h0.113c0.846,0.907 1.9,1.729 3.176,2.461c0.034,0.034 0.052,0.074 0.052,0.131l-2.309,3.124c-0.022,0.012 -0.063,0.018 -0.119,0.018c-0.067,0 -0.182,-0.028 -0.346,-0.085C33.097,39.72 32.11,38.949 30.937,37.774z" id="path_4"/><path fill="#213e95" d="M35.902,37.774V37.61c0.556,-0.777 1.35,-1.832 2.394,-3.176h0.113c0.845,0.907 1.899,1.729 3.176,2.461c0.034,0.034 0.051,0.074 0.051,0.131l-2.308,3.124c-0.023,0.012 -0.063,0.018 -0.119,0.018c-0.068,0 -0.182,-0.028 -0.347,-0.085C38.063,39.72 37.076,38.949 35.902,37.774z" id="path_5"/><path fill="#000001" d="M55.424,19.989l-0.681,0.051l-0.102,-0.164c2.296,-1.219 4.071,-2.364 5.336,-3.442c-0.432,-0.153 -0.721,-0.312 -0.868,-0.481c-0.431,-0.295 -0.646,-0.8 -0.646,-1.509c-0.034,-1.451 0.482,-2.529 1.549,-3.238c0.34,-0.289 0.907,-0.356 1.695,-0.204c0.811,0.448 1.213,0.981 1.213,1.616c0.222,2.382 -1.332,4.515 -4.655,6.408C57.216,19.502 56.269,19.825 55.424,19.989L55.424,19.989zM61.582,14.642c0.317,-0.119 0.482,-0.334 0.482,-0.629c0,-0.499 -0.228,-0.867 -0.681,-1.101c-0.448,-0.176 -0.936,-0.181 -1.463,-0.017c-0.369,0.267 -0.562,0.505 -0.584,0.715c-0.034,0.255 0.136,0.589 0.498,0.997c0.335,0.137 0.602,0.199 0.8,0.199C60.891,14.874 61.202,14.817 61.582,14.642z" id="path_6"/><path fill="#213e95" d="M33.419,32.676v-0.164c0.557,-0.777 1.351,-1.832 2.394,-3.176h0.113c0.846,0.907 1.899,1.729 3.176,2.461c0.034,0.034 0.051,0.074 0.051,0.13l-2.308,3.125c-0.022,0.012 -0.063,0.018 -0.119,0.018c-0.068,0 -0.182,-0.028 -0.346,-0.086C35.58,34.621 34.593,33.85 33.419,32.676z" id="path_7"/></svg>