<svg id="vector" xmlns="http://www.w3.org/2000/svg" width="75" height="67" viewBox="0 0 83 73"><path fill="#000001" d="M60.163,52.085c-0.034,1.089 -0.21,2.059 -0.533,2.927c-0.346,0.573 -0.601,0.873 -0.766,0.896c-0.188,0 -0.271,-0.312 -0.25,-0.93c-0.288,-6.215 -0.646,-10.559 -1.076,-13.031c-0.233,-2.218 -0.551,-4.032 -0.948,-5.438c-0.146,-0.55 -0.227,-1.061 -0.249,-1.525c-0.034,-0.868 0.091,-1.866 0.38,-2.995l0.766,-2.892c0.103,-0.091 0.21,-0.136 0.335,-0.136c0.131,0 0.221,0.192 0.261,0.584c0.057,0.505 0.124,0.816 0.21,0.93c0.085,0.108 0.38,0.998 0.89,2.671c0.329,1.101 0.743,1.963 1.231,2.592c0.027,0.222 0.051,0.431 0.063,0.635c0,0.408 -0.12,0.981 -0.357,1.725c-0.238,0.742 -0.403,1.253 -0.505,1.531l-0.131,0.498L60.163,52.085z" id="path_0"/><path fill="#000001" d="M31.813,26.152l-0.681,0.05l-0.102,-0.164c2.296,-1.219 4.071,-2.364 5.336,-3.442c-0.432,-0.152 -0.721,-0.312 -0.868,-0.481c-0.431,-0.295 -0.646,-0.8 -0.646,-1.509c-0.034,-1.451 0.482,-2.529 1.549,-3.238c0.34,-0.288 0.907,-0.356 1.695,-0.204c0.811,0.448 1.213,0.981 1.213,1.616c0.222,2.382 -1.332,4.515 -4.655,6.408C33.605,25.664 32.658,25.987 31.813,26.152L31.813,26.152zM37.972,20.804c0.317,-0.118 0.482,-0.334 0.482,-0.629c0,-0.499 -0.228,-0.867 -0.681,-1.101c-0.448,-0.176 -0.936,-0.181 -1.464,-0.017c-0.368,0.267 -0.561,0.505 -0.583,0.715c-0.034,0.255 0.136,0.589 0.498,0.997c0.335,0.137 0.602,0.199 0.8,0.199C37.28,21.036 37.592,20.98 37.972,20.804z" id="path_1"/><path fill="#000001" d="M50.193,54.074c-1.785,1.14 -4.094,2.063 -6.93,2.772c-4.32,0.976 -7.984,1.452 -10.989,1.436c-3.006,-0.018 -5.342,-0.307 -7.004,-0.874c-1.661,-0.562 -3.119,-1.542 -4.366,-2.938c-1.078,-1.23 -1.707,-2.659 -1.895,-4.287c-0.243,-2.291 0.313,-4.763 1.679,-7.411c0.142,-0.131 0.283,-0.289 0.432,-0.471c0.142,-0.182 0.306,-0.261 0.481,-0.227l-0.017,0.402c-0.755,1.616 -1.163,3.057 -1.231,4.315c-0.034,0.442 -0.034,0.748 0,0.913c0.466,2.126 2.076,3.623 4.838,4.491c1.548,0.527 3.17,0.856 4.865,0.976c0.267,0.011 0.681,0.045 1.248,0.102c3.465,0.012 7.667,-0.396 12.605,-1.23c2.858,-0.533 4.895,-1.253 6.102,-2.161c-0.079,-0.362 -0.351,-0.776 -0.815,-1.235c-0.466,-0.46 -0.749,-0.873 -0.846,-1.236c-0.067,-1.463 0.018,-2.961 0.25,-4.485l0.198,-0.018c1.537,1.735 2.394,3.584 2.558,5.529C51.555,50.712 51.169,52.588 50.193,54.074z" id="path_2"/><path fill="#000001" d="M52.8,22.209l1.031,-3.073l10.015,-4.401c0.137,-0.034 0.199,-0.017 0.199,0.052c0,0.033 -0.018,0.113 -0.052,0.249l-1.344,3.187l-9.617,4.305c-0.125,0.012 -0.198,0.012 -0.232,0C52.754,22.458 52.754,22.356 52.8,22.209z" id="path_3"/><path fill="#000001" d="M38.177,26.608c0.314,0.541 0.681,2.085 1.098,4.631c-0.257,1.543 -0.93,2.312 -2.02,2.312h-0.146c-0.476,0 -1.09,-0.308 -1.865,-0.922c-0.526,0.929 -1.303,1.397 -2.312,1.397c-1.229,0 -1.844,-1.492 -1.844,-4.478c0.358,-1.134 0.666,-1.697 0.922,-1.697l0.146,0.153v2.634c0.212,0.915 0.476,1.368 0.775,1.368h0.621c0.645,0 1.054,-0.256 1.244,-0.768l-0.322,-2.312c0.125,-0.776 0.337,-1.186 0.622,-1.223h0.322c0.321,2.568 0.841,3.855 1.536,3.855h1.075v-0.153l-0.468,-3.08v-0.176C37.687,27.12 37.892,26.608 38.177,26.608z" id="path_4"/><path fill="#000001" d="M29.831,43.937v-0.164c0.556,-0.777 1.35,-1.832 2.394,-3.176h0.112c0.846,0.907 1.9,1.729 3.177,2.461c0.033,0.034 0.051,0.074 0.051,0.131l-2.309,3.124c-0.022,0.012 -0.062,0.018 -0.119,0.018c-0.067,0 -0.182,-0.028 -0.346,-0.085C31.991,45.882 31.005,45.111 29.831,43.937z" id="path_5"/><path fill="#000001" d="M34.797,43.937v-0.164c0.557,-0.777 1.351,-1.832 2.394,-3.176h0.113c0.846,0.907 1.899,1.729 3.176,2.461c0.034,0.034 0.051,0.074 0.051,0.131l-2.308,3.124c-0.023,0.012 -0.063,0.018 -0.119,0.018c-0.068,0 -0.182,-0.028 -0.346,-0.085C36.958,45.882 35.971,45.111 34.797,43.937z" id="path_6"/><path fill="#000001" d="M32.314,38.696v-0.164c0.556,-0.777 1.35,-1.832 2.393,-3.176h0.113c0.846,0.907 1.9,1.729 3.176,2.461c0.034,0.034 0.052,0.074 0.052,0.131l-2.309,3.124c-0.022,0.012 -0.063,0.018 -0.119,0.018c-0.067,0 -0.182,-0.028 -0.346,-0.085C34.475,40.642 33.488,39.871 32.314,38.696z" id="path_7"/></svg>