<svg id="vector" xmlns="http://www.w3.org/2000/svg" width="75" height="67" viewBox="0 0 83 73"><path fill="#DD2C00" d="M31.183,53.43c4.094,0.039 6.38,-0.729 6.88,-2.309c0,-0.545 -0.521,-1.898 -1.566,-4.059l0.474,-4.06h0.307c1.359,2.339 2.033,4.687 2.033,7.027v1.406c0,0.939 -0.227,1.926 -0.674,2.959s-1.141,1.908 -2.066,2.607c-0.934,0.707 -2.727,1 -5.387,0.881V53.43z" id="path_0"/><path fill="#213e95" d="M31.516,57.883c-3.033,0.18 -5.239,-1.221 -6.62,-4.201c-0.666,-1.105 -1.286,-8.566 -1.873,-22.378v-0.314c0.387,-2.293 0.96,-3.439 1.713,-3.439l0.787,-0.154c0.96,0 2.42,0.314 4.373,0.934v0.314c-0.106,0.313 -0.42,0.473 -0.939,0.473h-2.654c-0.546,0 -1.066,0.307 -1.566,0.934c0.486,11.994 1.193,18.939 2.134,20.839c0.933,1.9 2.487,2.746 4.646,2.541V57.883z" id="path_1"/><path fill="#000001" d="M56.096,53.793c-0.034,1.09 -0.21,2.059 -0.533,2.928c-0.346,0.572 -0.601,0.873 -0.766,0.895c-0.187,0 -0.272,-0.311 -0.249,-0.93c-0.289,-6.215 -0.646,-10.559 -1.078,-13.031c-0.232,-2.216 -0.55,-4.031 -0.947,-5.437c-0.146,-0.551 -0.227,-1.061 -0.249,-1.525c-0.034,-0.869 0.091,-1.867 0.38,-2.996l0.766,-2.891c0.102,-0.092 0.209,-0.137 0.334,-0.137c0.131,0 0.222,0.193 0.262,0.584c0.057,0.506 0.124,0.816 0.209,0.93c0.086,0.109 0.381,0.998 0.891,2.672c0.329,1.1 0.743,1.963 1.23,2.592c0.029,0.221 0.051,0.43 0.063,0.635c0,0.408 -0.119,0.98 -0.357,1.725c-0.238,0.742 -0.402,1.252 -0.504,1.531l-0.131,0.498L56.096,53.793z" id="path_2"/><path fill="#DD2C00" d="M38.558,26.233c0.314,0.541 0.681,2.084 1.098,4.629c-0.256,1.545 -0.93,2.313 -2.02,2.313h-0.146c-0.475,0 -1.09,-0.307 -1.865,-0.922c-0.526,0.93 -1.302,1.396 -2.312,1.396c-1.229,0 -1.843,-1.492 -1.843,-4.477c0.357,-1.133 0.665,-1.697 0.922,-1.697l0.146,0.154v2.633c0.212,0.914 0.476,1.369 0.775,1.369h0.622c0.644,0 1.053,-0.256 1.244,-0.77l-0.322,-2.311c0.124,-0.775 0.336,-1.186 0.621,-1.223H35.8c0.322,2.568 0.842,3.855 1.537,3.855h1.074V31.03l-0.468,-3.078v-0.176C38.067,26.745 38.272,26.233 38.558,26.233z" id="path_3"/><path fill="#DD2C00" d="M30.823,25.11l0.873,-2.598l8.465,-3.721c0.115,-0.027 0.168,-0.014 0.168,0.043c0,0.029 -0.015,0.096 -0.043,0.211l-1.137,2.695l-8.129,3.637c-0.105,0.01 -0.168,0.01 -0.197,0C30.786,25.321 30.786,25.235 30.823,25.11z" id="path_4"/><path fill="#DD2C00" d="M30.823,21.422l0.873,-2.598l8.465,-3.719c0.115,-0.029 0.168,-0.016 0.168,0.043c0,0.029 -0.015,0.096 -0.043,0.211l-1.137,2.693l-8.129,3.639c-0.105,0.01 -0.168,0.01 -0.197,0C30.786,21.633 30.786,21.547 30.823,21.422z" id="path_5"/><path fill="#000001" d="M48.731,26.471l1.032,-3.074l10.015,-4.4c0.137,-0.033 0.199,-0.018 0.199,0.051c0,0.035 -0.018,0.113 -0.052,0.25l-1.345,3.188l-9.617,4.303c-0.125,0.012 -0.198,0.012 -0.232,0C48.687,26.721 48.687,26.618 48.731,26.471z" id="path_6"/><path fill="#DD2C00" d="M28.229,38.993v-0.164c0.557,-0.777 1.35,-1.832 2.394,-3.176h0.112c0.846,0.908 1.9,1.73 3.177,2.461c0.034,0.035 0.051,0.074 0.051,0.131l-2.308,3.125c-0.023,0.012 -0.063,0.018 -0.119,0.018c-0.068,0 -0.182,-0.029 -0.346,-0.086C30.39,40.938 29.403,40.167 28.229,38.993z" id="path_7"/><path fill="#DD2C00" d="M33.196,38.993v-0.164c0.556,-0.777 1.35,-1.832 2.393,-3.176h0.113c0.846,0.908 1.9,1.73 3.176,2.461c0.034,0.035 0.051,0.074 0.051,0.131l-2.308,3.125c-0.022,0.012 -0.062,0.018 -0.119,0.018c-0.067,0 -0.181,-0.029 -0.346,-0.086C35.356,40.938 34.37,40.167 33.196,38.993z" id="path_8"/></svg>