<svg id="vector" xmlns="http://www.w3.org/2000/svg" width="75" height="67" viewBox="0 0 83 73"><path fill="#000001" d="M60.923,52.661c-0.033,1.089 -0.21,2.059 -0.533,2.927c-0.346,0.573 -0.601,0.873 -0.766,0.896c-0.187,0 -0.271,-0.313 -0.249,-0.931c-0.289,-6.215 -0.646,-10.559 -1.077,-13.031c-0.232,-2.218 -0.551,-4.032 -0.947,-5.438c-0.147,-0.55 -0.227,-1.061 -0.25,-1.525c-0.034,-0.868 0.091,-1.866 0.38,-2.994l0.766,-2.892c0.103,-0.092 0.21,-0.137 0.335,-0.137c0.131,0 0.222,0.192 0.261,0.584c0.057,0.505 0.125,0.816 0.21,0.931c0.085,0.107 0.38,0.997 0.89,2.67c0.329,1.101 0.743,1.963 1.231,2.592c0.028,0.222 0.051,0.432 0.063,0.636c0,0.408 -0.12,0.98 -0.357,1.724c-0.238,0.743 -0.403,1.253 -0.505,1.531l-0.131,0.499L60.923,52.661z" id="path_0"/><path fill="#000001" d="M50.955,52.565c-1.786,1.14 -4.095,2.064 -6.931,2.772c-4.32,0.976 -7.983,1.452 -10.989,1.436c-3.006,-0.018 -5.342,-0.307 -7.004,-0.874c-1.661,-0.562 -3.118,-1.542 -4.366,-2.938c-1.077,-1.23 -1.707,-2.659 -1.894,-4.287c-0.244,-2.291 0.312,-4.763 1.678,-7.411c0.143,-0.131 0.284,-0.289 0.432,-0.471c0.142,-0.182 0.306,-0.262 0.481,-0.227l-0.017,0.402c-0.754,1.616 -1.163,3.056 -1.23,4.315c-0.034,0.442 -0.034,0.748 0,0.913c0.465,2.126 2.075,3.623 4.837,4.491c1.548,0.527 3.17,0.856 4.865,0.976c0.267,0.011 0.681,0.045 1.248,0.102c3.465,0.012 7.667,-0.396 12.606,-1.23c2.857,-0.533 4.894,-1.253 6.102,-2.161c-0.08,-0.362 -0.352,-0.776 -0.816,-1.236c-0.465,-0.459 -0.749,-0.873 -0.846,-1.235c-0.067,-1.463 0.018,-2.961 0.25,-4.485l0.198,-0.018c1.537,1.735 2.394,3.584 2.558,5.529C52.315,49.202 51.929,51.079 50.955,52.565z" id="path_1"/><path fill="#000001" d="M38.937,25.1c0.314,0.541 0.681,2.085 1.098,4.631c-0.257,1.543 -0.93,2.312 -2.02,2.312h-0.146c-0.476,0 -1.09,-0.308 -1.865,-0.922c-0.526,0.929 -1.302,1.396 -2.312,1.396c-1.229,0 -1.844,-1.492 -1.844,-4.477c0.358,-1.134 0.666,-1.697 0.922,-1.697l0.146,0.153v2.634c0.212,0.914 0.476,1.368 0.775,1.368h0.621c0.645,0 1.054,-0.256 1.244,-0.768l-0.322,-2.313c0.125,-0.775 0.337,-1.185 0.622,-1.222h0.322c0.321,2.568 0.841,3.855 1.536,3.855h1.075v-0.153l-0.468,-3.08v-0.176C38.447,25.611 38.652,25.1 38.937,25.1z" id="path_2"/><path fill="#000001" d="M30.335,23.717l1.032,-3.073l10.015,-4.4c0.136,-0.034 0.198,-0.018 0.198,0.051c0,0.034 -0.017,0.113 -0.051,0.249l-1.345,3.188l-9.617,4.304c-0.124,0.012 -0.198,0.012 -0.232,0C30.291,23.966 30.291,23.864 30.335,23.717z" id="path_3"/><path fill="#000001" d="M30.591,42.428v-0.164c0.556,-0.777 1.35,-1.832 2.394,-3.176h0.113c0.845,0.907 1.899,1.729 3.176,2.461c0.034,0.034 0.051,0.074 0.051,0.131l-2.308,3.124c-0.023,0.012 -0.063,0.018 -0.12,0.018c-0.067,0 -0.181,-0.028 -0.346,-0.085C32.751,44.373 31.765,43.603 30.591,42.428z" id="path_4"/><path fill="#000001" d="M35.557,42.428v-0.164c0.557,-0.777 1.351,-1.832 2.394,-3.176h0.113c0.846,0.907 1.899,1.729 3.176,2.461c0.034,0.034 0.051,0.074 0.051,0.131l-2.308,3.124c-0.023,0.012 -0.063,0.018 -0.119,0.018c-0.068,0 -0.182,-0.028 -0.346,-0.085C37.718,44.373 36.731,43.603 35.557,42.428z" id="path_5"/><path fill="#000001" d="M55.767,27.043l-0.681,0.051l-0.102,-0.164c2.296,-1.219 4.071,-2.364 5.336,-3.442c-0.431,-0.153 -0.721,-0.312 -0.868,-0.481c-0.431,-0.295 -0.646,-0.8 -0.646,-1.509c-0.034,-1.452 0.482,-2.529 1.549,-3.238c0.34,-0.289 0.907,-0.357 1.695,-0.204c0.811,0.448 1.214,0.981 1.214,1.616c0.221,2.382 -1.333,4.514 -4.656,6.408C57.559,26.555 56.612,26.878 55.767,27.043L55.767,27.043zM61.925,21.695c0.317,-0.119 0.482,-0.334 0.482,-0.63c0,-0.499 -0.228,-0.867 -0.681,-1.1c-0.448,-0.176 -0.936,-0.182 -1.463,-0.018c-0.369,0.268 -0.562,0.505 -0.584,0.715c-0.034,0.256 0.136,0.59 0.499,0.998c0.334,0.137 0.601,0.199 0.799,0.199C61.234,21.928 61.545,21.871 61.925,21.695z" id="path_6"/><path fill="#000001" d="M33.075,37.329v-0.164c0.556,-0.777 1.35,-1.832 2.393,-3.176h0.113c0.846,0.907 1.9,1.729 3.176,2.461c0.034,0.034 0.052,0.074 0.052,0.13L36.5,39.705c-0.022,0.012 -0.063,0.018 -0.119,0.018c-0.067,0 -0.182,-0.028 -0.346,-0.086C35.235,39.274 34.249,38.503 33.075,37.329z" id="path_7"/></svg>