<svg id="vector" xmlns="http://www.w3.org/2000/svg" width="75" height="67" viewBox="0 0 83 73"><path fill="#000001" d="M60.158,56.543c-0.034,1.089 -0.21,2.059 -0.533,2.926c-0.346,0.573 -0.601,0.873 -0.766,0.896c-0.188,0 -0.271,-0.313 -0.25,-0.931c-0.288,-6.215 -0.646,-10.559 -1.076,-13.031c-0.233,-2.217 -0.551,-4.032 -0.948,-5.438c-0.146,-0.551 -0.227,-1.062 -0.249,-1.526c-0.034,-0.867 0.091,-1.865 0.38,-2.994l0.766,-2.892c0.103,-0.092 0.21,-0.137 0.335,-0.137c0.131,0 0.221,0.193 0.261,0.584c0.057,0.505 0.124,0.816 0.21,0.931c0.085,0.107 0.38,0.998 0.89,2.671c0.329,1.1 0.743,1.962 1.231,2.592c0.027,0.221 0.051,0.431 0.063,0.635c0,0.408 -0.12,0.98 -0.357,1.724c-0.238,0.743 -0.403,1.254 -0.505,1.531l-0.131,0.499L60.158,56.543z" id="path_0"/><path fill="#213e95" d="M29.408,21.009l-0.681,0.051l-0.102,-0.164c2.296,-1.219 4.071,-2.364 5.336,-3.442c-0.431,-0.153 -0.72,-0.312 -0.868,-0.481c-0.431,-0.295 -0.646,-0.8 -0.646,-1.509c-0.034,-1.452 0.482,-2.529 1.549,-3.238c0.34,-0.289 0.907,-0.357 1.695,-0.204c0.811,0.448 1.214,0.981 1.214,1.616c0.221,2.382 -1.333,4.514 -4.656,6.408C31.2,20.521 30.253,20.844 29.408,21.009L29.408,21.009zM35.566,15.661c0.317,-0.119 0.482,-0.334 0.482,-0.629c0,-0.5 -0.227,-0.868 -0.681,-1.101c-0.447,-0.176 -0.936,-0.182 -1.463,-0.018c-0.369,0.268 -0.562,0.505 -0.584,0.715c-0.034,0.256 0.136,0.59 0.499,0.998c0.335,0.137 0.601,0.199 0.8,0.199C34.875,15.894 35.187,15.837 35.566,15.661z" id="path_1"/><path fill="#213e95" d="M35.771,21.465c0.314,0.542 0.681,2.085 1.098,4.631c-0.257,1.544 -0.93,2.312 -2.02,2.312h-0.146c-0.477,0 -1.091,-0.307 -1.866,-0.922c-0.526,0.93 -1.302,1.397 -2.312,1.397c-1.229,0 -1.844,-1.492 -1.844,-4.477c0.358,-1.134 0.666,-1.697 0.922,-1.697l0.146,0.153v2.634c0.212,0.914 0.476,1.368 0.775,1.368h0.622c0.644,0 1.054,-0.257 1.243,-0.769l-0.321,-2.312c0.124,-0.775 0.336,-1.186 0.621,-1.222h0.322c0.322,2.567 0.841,3.855 1.536,3.855h1.075v-0.154l-0.468,-3.079v-0.176C35.281,21.978 35.486,21.465 35.771,21.465z" id="path_2"/><path fill="#000001" d="M52.255,28.209l-0.681,0.051l-0.102,-0.164c2.296,-1.219 4.071,-2.364 5.336,-3.442c-0.432,-0.153 -0.721,-0.312 -0.868,-0.481c-0.431,-0.295 -0.646,-0.8 -0.646,-1.509c-0.034,-1.452 0.482,-2.529 1.549,-3.238c0.34,-0.289 0.907,-0.357 1.695,-0.204c0.811,0.448 1.213,0.981 1.213,1.616c0.222,2.382 -1.332,4.514 -4.655,6.408C54.047,27.722 53.1,28.044 52.255,28.209L52.255,28.209zM58.413,22.861c0.317,-0.119 0.482,-0.334 0.482,-0.629c0,-0.5 -0.228,-0.868 -0.681,-1.101c-0.448,-0.176 -0.936,-0.182 -1.464,-0.018c-0.368,0.268 -0.561,0.505 -0.583,0.715c-0.034,0.256 0.136,0.59 0.498,0.998c0.335,0.137 0.602,0.199 0.8,0.199C57.722,23.094 58.033,23.037 58.413,22.861z" id="path_3"/><path fill="#213e95" d="M31.903,43.065h0.303c0.729,0 1.787,0.704 3.174,2.116v0.148c0,0.658 -0.6,1.665 -1.813,3.026c-2.116,-0.555 -3.174,-1.31 -3.174,-2.271C30.696,45.001 31.2,43.995 31.903,43.065z" id="path_4"/><path fill="#213e95" d="M39.916,30.814l0.154,0.155v0.148c-0.529,2.722 -1.69,4.083 -3.478,4.083c-2.245,0 -4.761,1.007 -7.561,3.026c-3.123,2.619 -4.69,5.593 -4.69,8.916c0,4.516 2.574,7.639 7.716,9.374l5.29,0.458l8.471,-0.606h1.658l0.155,0.148v0.154c0,0.581 -1.562,1.438 -4.69,2.567c-1.271,0.556 -3.891,1.162 -7.864,1.819c-5.161,0 -8.438,-1.315 -9.826,-3.935c-1.612,-2.368 -2.419,-5.143 -2.419,-8.316c0,-5.168 2.116,-9.6 6.349,-13.303h-3.323c-0.806,0 -1.813,0.703 -3.025,2.116l-0.303,-0.304v-0.303c1.006,-3.832 2.573,-5.749 4.689,-5.749C27.619,31.369 31.852,31.221 39.916,30.814z" id="path_5"/></svg>