<svg id="vector" xmlns="http://www.w3.org/2000/svg" width="75" height="67" viewBox="0 0 83 73"><path fill="#213e95" d="M60.179,52.97c-0.033,1.09 -0.21,2.059 -0.533,2.928c-0.346,0.572 -0.601,0.873 -0.766,0.895c-0.187,0 -0.271,-0.311 -0.249,-0.93c-0.289,-6.215 -0.646,-10.559 -1.077,-13.031c-0.232,-2.217 -0.551,-4.031 -0.947,-5.438c-0.147,-0.551 -0.227,-1.061 -0.25,-1.525c-0.034,-0.869 0.091,-1.867 0.38,-2.996l0.766,-2.891c0.103,-0.092 0.21,-0.137 0.335,-0.137c0.131,0 0.222,0.193 0.261,0.584c0.057,0.505 0.125,0.817 0.21,0.93c0.085,0.107 0.38,0.998 0.89,2.672c0.329,1.1 0.743,1.961 1.231,2.592c0.028,0.221 0.051,0.43 0.063,0.635c0,0.408 -0.12,0.98 -0.357,1.723c-0.238,0.744 -0.403,1.254 -0.505,1.531l-0.131,0.5L60.179,52.97z" id="path_0"/><path fill="#213e95" d="M52.784,23.409l1.032,-3.074l10.015,-4.4c0.137,-0.033 0.198,-0.017 0.198,0.051c0,0.035 -0.017,0.113 -0.051,0.25l-1.345,3.188l-9.617,4.304c-0.125,0.011 -0.198,0.011 -0.232,0C52.739,23.658 52.739,23.556 52.784,23.409z" id="path_1"/><path fill="#DD2C00" d="M50.21,52.875c-1.786,1.141 -4.095,2.064 -6.931,2.773c-4.32,0.975 -7.983,1.451 -10.989,1.434c-3.006,-0.016 -5.342,-0.307 -7.004,-0.873c-1.661,-0.561 -3.118,-1.543 -4.366,-2.938c-1.077,-1.23 -1.707,-2.66 -1.894,-4.287c-0.244,-2.291 0.312,-4.764 1.678,-7.412c0.143,-0.129 0.284,-0.289 0.432,-0.471c0.142,-0.18 0.306,-0.26 0.481,-0.227l-0.017,0.402c-0.754,1.617 -1.163,3.057 -1.23,4.316c-0.034,0.441 -0.034,0.748 0,0.912c0.465,2.127 2.075,3.625 4.837,4.492c1.548,0.527 3.17,0.855 4.865,0.975c0.267,0.012 0.681,0.047 1.248,0.102c3.465,0.012 7.667,-0.396 12.606,-1.229c2.857,-0.533 4.894,-1.254 6.102,-2.162c-0.08,-0.361 -0.352,-0.777 -0.816,-1.236s-0.749,-0.873 -0.846,-1.236c-0.067,-1.463 0.018,-2.959 0.25,-4.484l0.198,-0.018c1.537,1.736 2.394,3.584 2.558,5.529C51.57,49.511 51.185,51.388 50.21,52.875z" id="path_2"/><path fill="#DD2C00" d="M38.192,27.808c0.314,0.542 0.681,2.086 1.098,4.631c-0.257,1.543 -0.93,2.313 -2.02,2.313h-0.146c-0.476,0 -1.09,-0.309 -1.865,-0.922c-0.526,0.928 -1.302,1.396 -2.312,1.396c-1.229,0 -1.844,-1.492 -1.844,-4.477c0.358,-1.134 0.666,-1.697 0.922,-1.697l0.146,0.154v2.633c0.212,0.914 0.476,1.367 0.775,1.367h0.621c0.645,0 1.054,-0.256 1.244,-0.768l-0.322,-2.311c0.125,-0.776 0.337,-1.186 0.622,-1.223h0.322c0.321,2.569 0.841,3.856 1.536,3.856h1.075v-0.154l-0.468,-3.08v-0.176C37.702,28.32 37.907,27.808 38.192,27.808z" id="path_3"/><path fill="#DD2C00" d="M29.591,26.426l1.032,-3.073l10.015,-4.4c0.136,-0.034 0.198,-0.018 0.198,0.051c0,0.033 -0.017,0.113 -0.051,0.249l-1.345,3.187l-9.617,4.305c-0.124,0.012 -0.198,0.012 -0.232,0C29.546,26.675 29.546,26.573 29.591,26.426z" id="path_4"/><path fill="#DD2C00" d="M29.847,42.738v-0.164c0.556,-0.777 1.35,-1.832 2.394,-3.176h0.113c0.845,0.906 1.899,1.729 3.176,2.461c0.034,0.033 0.051,0.074 0.051,0.129l-2.308,3.125c-0.023,0.012 -0.063,0.018 -0.12,0.018c-0.067,0 -0.181,-0.027 -0.346,-0.086C32.007,44.681 31.021,43.912 29.847,42.738z" id="path_5"/><path fill="#DD2C00" d="M34.813,42.738v-0.164c0.557,-0.777 1.351,-1.832 2.394,-3.176h0.113c0.846,0.906 1.899,1.729 3.176,2.461c0.034,0.033 0.051,0.074 0.051,0.129l-2.308,3.125c-0.023,0.012 -0.063,0.018 -0.119,0.018c-0.068,0 -0.182,-0.027 -0.346,-0.086C36.974,44.681 35.986,43.912 34.813,42.738z" id="path_6"/></svg>