<svg id="vector" xmlns="http://www.w3.org/2000/svg" width="75" height="67" viewBox="0 0 83 73"><path fill="#000001" d="M34.48,53.514c0.534,0 1.78,0.627 3.747,1.88c0,0.78 -0.62,2.026 -1.873,3.747c-2.5,-0.807 -3.747,-1.533 -3.747,-2.188C32.667,56.368 33.294,55.221 34.48,53.514z" id="path_0"/><path fill="#000001" d="M30.728,46.661c4.094,0.04 6.38,-0.727 6.88,-2.307c0,-0.547 -0.521,-1.9 -1.566,-4.061l0.474,-4.059h0.307c1.359,2.34 2.033,4.686 2.033,7.026v1.407c0,0.94 -0.227,1.927 -0.674,2.96s-1.141,1.906 -2.066,2.607c-0.934,0.706 -2.727,0.999 -5.387,0.879V46.661z" id="path_1"/><path fill="#213e95" d="M31.061,51.114c-3.033,0.18 -5.239,-1.22 -6.62,-4.199c-0.666,-1.107 -1.286,-8.567 -1.873,-22.38v-0.313c0.387,-2.293 0.96,-3.44 1.713,-3.44l0.787,-0.153c0.96,0 2.42,0.313 4.373,0.933v0.313c-0.106,0.313 -0.42,0.474 -0.939,0.474h-2.654c-0.546,0 -1.066,0.307 -1.566,0.933c0.486,11.993 1.193,18.94 2.134,20.84c0.933,1.899 2.487,2.747 4.646,2.54V51.114z" id="path_2"/><path fill="#DD2C00" d="M58.04,49.426c-0.033,1.088 -0.209,2.059 -0.533,2.926c-0.346,0.573 -0.601,0.873 -0.766,0.896c-0.187,0 -0.271,-0.313 -0.249,-0.931c-0.289,-6.215 -0.646,-10.559 -1.077,-13.031c-0.232,-2.217 -0.551,-4.032 -0.947,-5.438c-0.147,-0.55 -0.227,-1.061 -0.25,-1.526c-0.033,-0.868 0.091,-1.866 0.381,-2.995l0.766,-2.892c0.102,-0.091 0.209,-0.136 0.334,-0.136c0.131,0 0.222,0.193 0.261,0.584c0.058,0.504 0.125,0.816 0.21,0.93c0.086,0.108 0.38,0.998 0.891,2.671c0.328,1.1 0.742,1.962 1.23,2.592c0.028,0.221 0.051,0.431 0.063,0.635c0,0.408 -0.119,0.981 -0.357,1.724s-0.402,1.253 -0.505,1.531l-0.13,0.499L58.04,49.426z" id="path_3"/><path fill="#000001" d="M40.503,26.664c0.314,0.541 0.68,2.084 1.098,4.63c-0.256,1.543 -0.93,2.312 -2.02,2.312h-0.146c-0.476,0 -1.09,-0.307 -1.865,-0.921c-0.527,0.929 -1.303,1.397 -2.312,1.397c-1.229,0 -1.844,-1.492 -1.844,-4.477c0.358,-1.134 0.666,-1.697 0.922,-1.697l0.146,0.154v2.634c0.213,0.914 0.477,1.368 0.776,1.368h0.622c0.643,0 1.053,-0.256 1.243,-0.768l-0.321,-2.312c0.124,-0.776 0.336,-1.185 0.621,-1.222h0.322c0.322,2.567 0.841,3.855 1.536,3.855h1.075v-0.154l-0.469,-3.08v-0.176C40.013,27.176 40.218,26.664 40.503,26.664z" id="path_4"/><path fill="#000001" d="M32.769,25.542l0.873,-2.598l8.465,-3.719c0.115,-0.029 0.168,-0.015 0.168,0.043c0,0.029 -0.015,0.096 -0.044,0.211l-1.136,2.694l-8.129,3.638c-0.105,0.01 -0.168,0.01 -0.197,0C32.73,25.752 32.73,25.666 32.769,25.542z" id="path_5"/><path fill="#000001" d="M32.769,21.854l0.873,-2.598l8.465,-3.72c0.115,-0.029 0.168,-0.014 0.168,0.043c0,0.029 -0.015,0.096 -0.044,0.21l-1.136,2.694l-8.129,3.638c-0.105,0.01 -0.168,0.01 -0.197,0C32.73,22.065 32.73,21.979 32.769,21.854z" id="path_6"/><path fill="#DD2C00" d="M52.915,22.926l-0.681,0.051l-0.102,-0.164c2.296,-1.219 4.071,-2.365 5.336,-3.442c-0.431,-0.153 -0.72,-0.312 -0.868,-0.482c-0.43,-0.295 -0.646,-0.8 -0.646,-1.509c-0.033,-1.452 0.482,-2.529 1.549,-3.238c0.34,-0.289 0.907,-0.357 1.695,-0.204c0.811,0.448 1.213,0.981 1.213,1.616c0.222,2.382 -1.332,4.514 -4.654,6.408C54.707,22.438 53.76,22.762 52.915,22.926L52.915,22.926zM59.073,17.579c0.318,-0.119 0.482,-0.334 0.482,-0.629c0,-0.499 -0.227,-0.867 -0.681,-1.101c-0.448,-0.175 -0.936,-0.181 -1.463,-0.017c-0.368,0.267 -0.562,0.505 -0.584,0.715c-0.034,0.255 0.136,0.589 0.499,0.998c0.334,0.136 0.602,0.199 0.799,0.199C58.382,17.811 58.694,17.754 59.073,17.579z" id="path_7"/></svg>