<svg id="vector" xmlns="http://www.w3.org/2000/svg" width="75" height="67" viewBox="0 0 83 73"><path fill="#213e95" d="M60.179,45.794c-0.033,1.09 -0.209,2.059 -0.533,2.928c-0.346,0.572 -0.601,0.873 -0.766,0.895c-0.187,0 -0.271,-0.311 -0.249,-0.93c-0.289,-6.215 -0.646,-10.559 -1.077,-13.031c-0.232,-2.217 -0.551,-4.031 -0.947,-5.438c-0.147,-0.551 -0.227,-1.061 -0.25,-1.525c-0.033,-0.869 0.091,-1.867 0.381,-2.996l0.766,-2.892c0.102,-0.091 0.209,-0.137 0.334,-0.137c0.131,0 0.222,0.193 0.261,0.585c0.058,0.505 0.125,0.815 0.21,0.93c0.085,0.108 0.38,0.998 0.891,2.671c0.328,1.1 0.742,1.963 1.23,2.592c0.028,0.221 0.051,0.43 0.063,0.635c0,0.408 -0.119,0.98 -0.357,1.725c-0.238,0.742 -0.402,1.252 -0.505,1.531l-0.13,0.498L60.179,45.794z" id="path_0"/><path fill="#213e95" d="M52.784,58.515l1.032,-3.074l10.015,-4.4c0.137,-0.033 0.199,-0.016 0.199,0.051c0,0.035 -0.018,0.113 -0.052,0.25l-1.345,3.188l-9.617,4.305c-0.125,0.01 -0.198,0.01 -0.232,0C52.739,58.765 52.739,58.664 52.784,58.515z" id="path_1"/><path fill="#DD2C00" d="M50.21,48.099c-1.786,1.141 -4.094,2.064 -6.93,2.773c-4.321,0.975 -7.984,1.451 -10.99,1.434c-3.006,-0.016 -5.342,-0.307 -7.004,-0.873c-1.661,-0.561 -3.118,-1.543 -4.366,-2.938c-1.077,-1.23 -1.706,-2.66 -1.894,-4.287c-0.244,-2.291 0.312,-4.764 1.678,-7.412c0.143,-0.129 0.284,-0.289 0.432,-0.471c0.142,-0.18 0.307,-0.26 0.482,-0.227l-0.018,0.402c-0.754,1.617 -1.162,3.057 -1.23,4.316c-0.035,0.441 -0.035,0.748 0,0.912c0.465,2.127 2.076,3.625 4.837,4.492c1.548,0.527 3.17,0.855 4.866,0.975c0.266,0.012 0.68,0.047 1.247,0.102c3.465,0.012 7.667,-0.396 12.606,-1.229c2.857,-0.533 4.894,-1.254 6.102,-2.162c-0.08,-0.361 -0.352,-0.777 -0.816,-1.236s-0.749,-0.873 -0.846,-1.236c-0.067,-1.463 0.018,-2.959 0.25,-4.484l0.199,-0.018c1.536,1.736 2.393,3.584 2.557,5.529C51.571,44.736 51.185,46.613 50.21,48.099z" id="path_2"/><path fill="#DD2C00" d="M38.192,23.032c0.314,0.542 0.681,2.086 1.098,4.631c-0.256,1.543 -0.93,2.313 -2.02,2.313h-0.146c-0.475,0 -1.09,-0.309 -1.865,-0.922c-0.526,0.928 -1.303,1.396 -2.312,1.396c-1.229,0 -1.844,-1.492 -1.844,-4.477c0.358,-1.134 0.666,-1.697 0.922,-1.697l0.146,0.154v2.633c0.212,0.914 0.476,1.367 0.775,1.367h0.622c0.644,0 1.053,-0.256 1.244,-0.768l-0.322,-2.311c0.124,-0.776 0.336,-1.186 0.621,-1.223h0.322c0.322,2.569 0.842,3.856 1.536,3.856h1.075v-0.154l-0.468,-3.08v-0.176C37.702,23.545 37.907,23.032 38.192,23.032z" id="path_3"/><path fill="#DD2C00" d="M29.591,21.65l1.032,-3.073l10.015,-4.4c0.137,-0.034 0.199,-0.018 0.199,0.051c0,0.033 -0.018,0.113 -0.052,0.249l-1.345,3.187l-9.617,4.305c-0.125,0.012 -0.198,0.012 -0.232,0C29.546,21.899 29.546,21.798 29.591,21.65z" id="path_4"/><path fill="#DD2C00" d="M29.847,37.962v-0.164c0.557,-0.777 1.35,-1.832 2.394,-3.176h0.112c0.846,0.906 1.9,1.729 3.177,2.461c0.034,0.033 0.051,0.074 0.051,0.129l-2.308,3.125c-0.023,0.012 -0.063,0.018 -0.119,0.018c-0.068,0 -0.182,-0.027 -0.346,-0.086C32.007,39.906 31.021,39.136 29.847,37.962z" id="path_5"/><path fill="#DD2C00" d="M34.813,37.962v-0.164c0.556,-0.777 1.35,-1.832 2.393,-3.176h0.113c0.846,0.906 1.9,1.729 3.176,2.461c0.034,0.033 0.051,0.074 0.051,0.129l-2.308,3.125c-0.022,0.012 -0.062,0.018 -0.119,0.018c-0.067,0 -0.181,-0.027 -0.346,-0.086C36.974,39.906 35.987,39.136 34.813,37.962z" id="path_6"/></svg>