<svg id="vector" xmlns="http://www.w3.org/2000/svg" width="75" height="67" viewBox="0 0 83 73"><path fill="#000001" d="M56.973,50.035c-0.033,1.089 -0.21,2.059 -0.532,2.927c-0.346,0.573 -0.602,0.873 -0.767,0.896c-0.187,0 -0.271,-0.312 -0.249,-0.93c-0.289,-6.215 -0.646,-10.559 -1.077,-13.031c-0.232,-2.218 -0.55,-4.032 -0.947,-5.438c-0.147,-0.55 -0.227,-1.061 -0.25,-1.525c-0.033,-0.868 0.091,-1.865 0.381,-2.994l0.765,-2.893c0.103,-0.091 0.21,-0.136 0.335,-0.136c0.131,0 0.222,0.192 0.261,0.584c0.058,0.505 0.125,0.816 0.21,0.93c0.085,0.108 0.38,0.998 0.891,2.671c0.328,1.101 0.743,1.963 1.23,2.592c0.028,0.222 0.051,0.431 0.063,0.636c0,0.408 -0.119,0.98 -0.357,1.724s-0.403,1.253 -0.505,1.531l-0.131,0.499L56.973,50.035z" id="path_0"/><path fill="#DD2C00" d="M28.623,19.302l-0.681,0.051l-0.102,-0.164c2.296,-1.219 4.071,-2.364 5.336,-3.442c-0.431,-0.153 -0.72,-0.312 -0.868,-0.481c-0.43,-0.295 -0.646,-0.8 -0.646,-1.509c-0.035,-1.452 0.481,-2.529 1.548,-3.238c0.34,-0.289 0.907,-0.357 1.695,-0.204c0.812,0.448 1.214,0.981 1.214,1.616c0.221,2.382 -1.333,4.514 -4.656,6.408C30.415,18.814 29.468,19.138 28.623,19.302L28.623,19.302zM34.781,13.954c0.318,-0.119 0.482,-0.334 0.482,-0.629c0,-0.5 -0.227,-0.868 -0.681,-1.101c-0.447,-0.176 -0.936,-0.182 -1.463,-0.018c-0.368,0.268 -0.562,0.505 -0.584,0.715c-0.034,0.256 0.136,0.59 0.499,0.998c0.335,0.137 0.601,0.199 0.8,0.199C34.09,14.187 34.402,14.13 34.781,13.954z" id="path_1"/><path fill="#000001" d="M49.609,62.44l1.032,-3.073l10.015,-4.4c0.136,-0.034 0.198,-0.018 0.198,0.051c0,0.034 -0.017,0.113 -0.051,0.25l-1.345,3.187l-9.617,4.304c-0.125,0.012 -0.198,0.012 -0.232,0C49.564,62.69 49.564,62.588 49.609,62.44z" id="path_2"/><path fill="#DD2C00" d="M31.52,41.247h0.304c0.729,0 1.787,0.703 3.174,2.116v0.148c0,0.657 -0.601,1.664 -1.813,3.025c-2.115,-0.555 -3.174,-1.31 -3.174,-2.271C30.313,43.183 30.816,42.176 31.52,41.247z" id="path_3"/><path fill="#DD2C00" d="M39.532,28.996l0.155,0.154v0.148c-0.529,2.723 -1.69,4.084 -3.478,4.084c-2.245,0 -4.762,1.006 -7.562,3.025c-3.122,2.619 -4.69,5.594 -4.69,8.916c0,4.517 2.574,7.639 7.717,9.374l5.29,0.458l8.471,-0.606h1.658l0.154,0.148v0.155c0,0.58 -1.561,1.438 -4.69,2.567c-1.271,0.555 -3.89,1.161 -7.864,1.819c-5.161,0 -8.438,-1.316 -9.825,-3.936c-1.613,-2.368 -2.42,-5.142 -2.42,-8.315c0,-5.168 2.116,-9.601 6.349,-13.304h-3.322c-0.807,0 -1.813,0.703 -3.026,2.116l-0.303,-0.303v-0.304c1.007,-3.832 2.574,-5.748 4.69,-5.748C27.236,29.551 31.468,29.402 39.532,28.996z" id="path_4"/><path fill="#DD2C00" d="M34.986,19.759c0.314,0.541 0.681,2.084 1.098,4.63c-0.257,1.544 -0.93,2.313 -2.02,2.313h-0.146c-0.476,0 -1.09,-0.308 -1.865,-0.922c-0.526,0.929 -1.302,1.396 -2.312,1.396c-1.229,0 -1.844,-1.492 -1.844,-4.477c0.358,-1.134 0.666,-1.697 0.922,-1.697l0.146,0.153v2.634c0.212,0.914 0.476,1.368 0.775,1.368h0.621c0.645,0 1.054,-0.256 1.244,-0.769l-0.322,-2.312c0.125,-0.775 0.337,-1.185 0.622,-1.222h0.322c0.321,2.567 0.841,3.855 1.536,3.855h1.075v-0.153l-0.468,-3.08v-0.176C34.496,20.271 34.701,19.759 34.986,19.759z" id="path_5"/></svg>