<svg id="vector" xmlns="http://www.w3.org/2000/svg" width="75" height="67" viewBox="0 0 83 73"><path fill="#213e95" d="M60.909,47.544c-0.034,1.088 -0.21,2.059 -0.533,2.926c-0.346,0.573 -0.602,0.873 -0.766,0.896c-0.188,0 -0.271,-0.313 -0.25,-0.931c-0.289,-6.215 -0.646,-10.559 -1.077,-13.031c-0.232,-2.217 -0.55,-4.031 -0.946,-5.438c-0.148,-0.551 -0.228,-1.062 -0.25,-1.526c-0.034,-0.867 0.09,-1.865 0.38,-2.994l0.766,-2.892c0.103,-0.091 0.21,-0.137 0.335,-0.137c0.131,0 0.221,0.193 0.26,0.585c0.058,0.504 0.125,0.816 0.211,0.93c0.084,0.107 0.379,0.998 0.89,2.671c0.329,1.1 0.743,1.962 1.231,2.592c0.027,0.221 0.051,0.431 0.062,0.635c0,0.408 -0.119,0.981 -0.356,1.724c-0.238,0.743 -0.403,1.254 -0.506,1.531l-0.13,0.499L60.909,47.544z" id="path_0"/><path fill="#000001" d="M33.116,46.735v-0.164c0.556,-0.777 1.35,-1.832 2.394,-3.176h0.113c0.845,0.907 1.9,1.729 3.176,2.461c0.034,0.033 0.051,0.074 0.051,0.131l-2.308,3.124c-0.023,0.011 -0.062,0.017 -0.119,0.017c-0.068,0 -0.182,-0.027 -0.346,-0.084C35.276,48.681 34.29,47.909 33.116,46.735z" id="path_1"/><path fill="#000001" d="M50.939,36.84c-1.786,1.14 -4.094,2.063 -6.93,2.772c-4.321,0.977 -7.984,1.452 -10.99,1.436c-3.005,-0.018 -5.342,-0.307 -7.004,-0.873c-1.661,-0.563 -3.119,-1.543 -4.366,-2.938c-1.077,-1.23 -1.707,-2.66 -1.894,-4.287c-0.244,-2.291 0.312,-4.764 1.679,-7.412c0.142,-0.131 0.284,-0.289 0.431,-0.471c0.142,-0.182 0.306,-0.261 0.482,-0.227l-0.017,0.402c-0.754,1.616 -1.163,3.057 -1.23,4.315c-0.035,0.442 -0.035,0.749 0,0.913c0.465,2.127 2.075,3.624 4.837,4.491c1.548,0.527 3.17,0.856 4.866,0.976c0.266,0.011 0.681,0.045 1.248,0.102c3.465,0.012 7.667,-0.396 12.606,-1.23c2.858,-0.532 4.894,-1.253 6.102,-2.16c-0.08,-0.363 -0.352,-0.777 -0.817,-1.236c-0.465,-0.459 -0.749,-0.873 -0.845,-1.236c-0.068,-1.463 0.017,-2.96 0.25,-4.485l0.199,-0.017c1.537,1.734 2.393,3.583 2.558,5.528C52.3,33.478 51.915,35.354 50.939,36.84z" id="path_2"/><path fill="#000001" d="M38.922,20.113c0.314,0.541 0.68,2.085 1.097,4.631c-0.256,1.543 -0.929,2.312 -2.019,2.312h-0.146c-0.476,0 -1.09,-0.308 -1.866,-0.922c-0.526,0.929 -1.302,1.397 -2.312,1.397c-1.229,0 -1.844,-1.492 -1.844,-4.478c0.359,-1.134 0.666,-1.697 0.922,-1.697l0.146,0.154v2.633c0.212,0.915 0.476,1.368 0.775,1.368h0.622c0.644,0 1.054,-0.256 1.244,-0.768l-0.322,-2.313c0.125,-0.775 0.336,-1.185 0.622,-1.222h0.322c0.322,2.568 0.841,3.855 1.536,3.855h1.075v-0.153l-0.468,-3.08v-0.176C38.432,20.625 38.637,20.113 38.922,20.113z" id="path_3"/><path fill="#000001" d="M31.188,60.747l0.873,-2.598l8.465,-3.719c0.115,-0.029 0.168,-0.016 0.168,0.043c0,0.029 -0.015,0.096 -0.043,0.211l-1.136,2.693l-8.129,3.639c-0.105,0.009 -0.167,0.009 -0.197,0C31.149,60.958 31.149,60.872 31.188,60.747z" id="path_4"/><path fill="#000001" d="M31.188,57.061l0.873,-2.598l8.465,-3.72c0.115,-0.029 0.168,-0.014 0.168,0.043c0,0.029 -0.015,0.096 -0.043,0.211l-1.136,2.694l-8.129,3.638c-0.105,0.01 -0.167,0.01 -0.197,0C31.149,57.271 31.149,57.186 31.188,57.061z" id="path_5"/><path fill="#213e95" d="M55.784,21.044l-0.682,0.051L55,20.931c2.297,-1.219 4.072,-2.364 5.336,-3.442c-0.431,-0.153 -0.72,-0.312 -0.867,-0.481c-0.431,-0.295 -0.646,-0.8 -0.646,-1.509c-0.034,-1.452 0.482,-2.529 1.549,-3.238c0.34,-0.289 0.906,-0.357 1.695,-0.204c0.811,0.448 1.213,0.981 1.213,1.616c0.221,2.382 -1.332,4.515 -4.656,6.408C57.575,20.557 56.627,20.88 55.784,21.044L55.784,21.044zM61.942,15.696c0.317,-0.118 0.481,-0.334 0.481,-0.629c0,-0.499 -0.227,-0.867 -0.681,-1.101c-0.447,-0.176 -0.936,-0.182 -1.463,-0.018c-0.369,0.268 -0.561,0.505 -0.584,0.716c-0.033,0.255 0.137,0.589 0.499,0.997c0.335,0.137 0.601,0.199 0.8,0.199C61.25,15.929 61.561,15.872 61.942,15.696z" id="path_6"/></svg>