<svg id="vector" xmlns="http://www.w3.org/2000/svg" width="75" height="67" viewBox="0 0 83 73"><path fill="#213e95" d="M60.179,38.627c-0.034,1.089 -0.21,2.058 -0.533,2.926c-0.346,0.573 -0.601,0.873 -0.765,0.896c-0.188,0 -0.273,-0.312 -0.25,-0.93c-0.289,-6.215 -0.646,-10.559 -1.078,-13.032c-0.232,-2.217 -0.55,-4.032 -0.947,-5.438c-0.146,-0.55 -0.227,-1.061 -0.248,-1.525c-0.035,-0.868 0.09,-1.866 0.379,-2.995l0.766,-2.892c0.102,-0.091 0.21,-0.136 0.334,-0.136c0.131,0 0.223,0.193 0.262,0.584c0.057,0.505 0.125,0.816 0.21,0.93c0.085,0.108 0.38,0.998 0.89,2.671c0.33,1.1 0.743,1.962 1.23,2.592c0.029,0.221 0.052,0.431 0.063,0.635c0,0.408 -0.119,0.981 -0.357,1.724c-0.238,0.743 -0.402,1.253 -0.504,1.531l-0.131,0.499L60.179,38.627z" id="path_0"/><path fill="#213e95" d="M52.784,51.347l1.032,-3.073l10.015,-4.4c0.136,-0.034 0.198,-0.017 0.198,0.051c0,0.034 -0.017,0.113 -0.051,0.25l-1.345,3.187l-9.617,4.304c-0.124,0.011 -0.198,0.011 -0.232,0C52.738,51.597 52.738,51.495 52.784,51.347z" id="path_1"/><path fill="#000001" d="M32.387,47.288v-0.165c0.556,-0.777 1.35,-1.832 2.393,-3.176h0.113c0.845,0.907 1.899,1.73 3.176,2.461c0.034,0.034 0.051,0.074 0.051,0.13l-2.308,3.125c-0.023,0.011 -0.063,0.017 -0.119,0.017c-0.068,0 -0.182,-0.028 -0.346,-0.085C34.547,49.233 33.561,48.462 32.387,47.288z" id="path_2"/><path fill="#000001" d="M50.209,37.393c-1.785,1.14 -4.094,2.064 -6.929,2.773c-4.321,0.976 -7.984,1.451 -10.99,1.435c-3.005,-0.017 -5.342,-0.306 -7.003,-0.873c-1.662,-0.562 -3.119,-1.543 -4.367,-2.938c-1.077,-1.231 -1.707,-2.66 -1.894,-4.288c-0.244,-2.291 0.312,-4.763 1.678,-7.412c0.142,-0.13 0.284,-0.289 0.431,-0.471c0.142,-0.181 0.306,-0.261 0.482,-0.227l-0.017,0.402c-0.754,1.616 -1.163,3.057 -1.23,4.316c-0.034,0.442 -0.034,0.749 0,0.913c0.465,2.126 2.076,3.624 4.837,4.491c1.548,0.528 3.17,0.856 4.866,0.976c0.267,0.011 0.681,0.045 1.248,0.102c3.465,0.012 7.667,-0.396 12.606,-1.23c2.857,-0.533 4.894,-1.253 6.101,-2.161c-0.079,-0.363 -0.351,-0.777 -0.816,-1.236c-0.465,-0.459 -0.748,-0.873 -0.845,-1.236c-0.067,-1.463 0.017,-2.96 0.249,-4.486l0.199,-0.017c1.537,1.735 2.393,3.584 2.558,5.529C51.57,34.03 51.186,35.907 50.209,37.393z" id="path_3"/><path fill="#000001" d="M38.193,20.666c0.314,0.541 0.68,2.085 1.097,4.63c-0.256,1.544 -0.929,2.312 -2.019,2.312h-0.146c-0.476,0 -1.09,-0.308 -1.865,-0.922c-0.527,0.929 -1.302,1.397 -2.312,1.397c-1.229,0 -1.844,-1.492 -1.844,-4.477c0.358,-1.134 0.666,-1.697 0.922,-1.697l0.146,0.153v2.634c0.212,0.914 0.476,1.368 0.776,1.368h0.622c0.644,0 1.054,-0.256 1.244,-0.768l-0.322,-2.312c0.124,-0.775 0.336,-1.185 0.622,-1.222h0.322c0.322,2.568 0.841,3.855 1.537,3.855h1.075v-0.153l-0.468,-3.08v-0.175C37.702,21.177 37.907,20.666 38.193,20.666z" id="path_4"/><path fill="#000001" d="M30.333,57.172l1.032,-3.074l10.015,-4.4c0.136,-0.034 0.199,-0.017 0.199,0.051c0,0.034 -0.017,0.114 -0.051,0.25l-1.344,3.187l-9.617,4.304c-0.125,0.011 -0.199,0.011 -0.232,0C30.288,57.422 30.288,57.32 30.333,57.172z" id="path_5"/></svg>