<svg id="vector" xmlns="http://www.w3.org/2000/svg" width="75" height="67" viewBox="0 0 83 73"><path fill="#DD2C00" d="M57.594,48.045c-0.034,1.089 -0.21,2.059 -0.533,2.927c-0.346,0.573 -0.602,0.873 -0.766,0.896c-0.187,0 -0.272,-0.312 -0.249,-0.93c-0.289,-6.215 -0.646,-10.559 -1.078,-13.031c-0.232,-2.218 -0.55,-4.032 -0.946,-5.438c-0.147,-0.55 -0.228,-1.061 -0.25,-1.525c-0.034,-0.868 0.091,-1.866 0.38,-2.995l0.766,-2.892c0.103,-0.091 0.21,-0.136 0.335,-0.136c0.13,0 0.221,0.192 0.261,0.584c0.057,0.505 0.124,0.816 0.21,0.93c0.085,0.108 0.38,0.998 0.89,2.671c0.329,1.101 0.743,1.963 1.23,2.592c0.029,0.222 0.052,0.431 0.063,0.635c0,0.408 -0.119,0.981 -0.356,1.725c-0.239,0.742 -0.403,1.253 -0.505,1.531l-0.131,0.499L57.594,48.045z" id="path_0"/><path fill="#000001" d="M35.607,10.883c0.314,0.541 0.68,2.085 1.097,4.631c-0.256,1.543 -0.929,2.312 -2.019,2.312h-0.146c-0.476,0 -1.09,-0.308 -1.865,-0.922c-0.527,0.929 -1.303,1.396 -2.312,1.396c-1.229,0 -1.844,-1.491 -1.844,-4.477c0.358,-1.134 0.666,-1.697 0.922,-1.697l0.146,0.153v2.634c0.212,0.915 0.476,1.368 0.775,1.368h0.621c0.644,0 1.054,-0.256 1.244,-0.768l-0.322,-2.313c0.125,-0.775 0.337,-1.185 0.622,-1.222h0.321c0.322,2.568 0.842,3.855 1.537,3.855h1.075v-0.153l-0.469,-3.08v-0.176C35.117,11.395 35.321,10.883 35.607,10.883z" id="path_1"/><path fill="#000001" d="M27.747,61.79l1.032,-3.073l10.015,-4.401c0.137,-0.033 0.198,-0.017 0.198,0.052c0,0.034 -0.017,0.113 -0.051,0.249l-1.345,3.188l-9.617,4.304c-0.124,0.012 -0.198,0.012 -0.232,0C27.702,62.039 27.702,61.938 27.747,61.79z" id="path_2"/><path fill="#DD2C00" d="M51.749,20.026l-0.681,0.051l-0.102,-0.164c2.296,-1.219 4.071,-2.364 5.336,-3.442c-0.432,-0.153 -0.721,-0.312 -0.868,-0.481c-0.431,-0.295 -0.646,-0.8 -0.646,-1.509c-0.034,-1.452 0.482,-2.529 1.549,-3.238c0.34,-0.289 0.907,-0.357 1.695,-0.204c0.811,0.448 1.213,0.981 1.213,1.616c0.222,2.382 -1.332,4.514 -4.655,6.408C53.541,19.539 52.594,19.861 51.749,20.026L51.749,20.026zM57.907,14.679c0.317,-0.119 0.482,-0.334 0.482,-0.629c0,-0.5 -0.228,-0.868 -0.681,-1.101c-0.448,-0.176 -0.936,-0.182 -1.463,-0.018c-0.369,0.268 -0.562,0.505 -0.584,0.715c-0.034,0.256 0.136,0.59 0.498,0.998c0.335,0.137 0.602,0.199 0.8,0.199C57.216,14.911 57.527,14.854 57.907,14.679z" id="path_3"/><path fill="#000001" d="M33.109,32.483h0.303c0.729,0 1.787,0.703 3.174,2.116v0.148c0,0.657 -0.6,1.664 -1.813,3.025c-2.116,-0.555 -3.174,-1.31 -3.174,-2.271C31.902,34.419 32.405,33.412 33.109,32.483z" id="path_4"/><path fill="#000001" d="M41.122,20.231l0.154,0.155v0.148c-0.529,2.723 -1.69,4.084 -3.478,4.084c-2.245,0 -4.761,1.006 -7.561,3.025c-3.123,2.619 -4.69,5.594 -4.69,8.916c0,4.516 2.574,7.639 7.716,9.374l5.29,0.458l8.471,-0.606h1.658l0.155,0.148v0.155c0,0.58 -1.562,1.438 -4.69,2.567c-1.271,0.555 -3.891,1.161 -7.864,1.819c-5.161,0 -8.438,-1.316 -9.825,-3.936c-1.613,-2.368 -2.42,-5.142 -2.42,-8.316c0,-5.167 2.116,-9.6 6.349,-13.303h-3.323c-0.806,0 -1.813,0.703 -3.025,2.116l-0.304,-0.304v-0.303c1.007,-3.832 2.574,-5.748 4.69,-5.748C28.825,20.786 33.058,20.639 41.122,20.231z" id="path_5"/></svg>