<svg id="vector" xmlns="http://www.w3.org/2000/svg" width="75" height="67" viewBox="0 0 83 73"><path fill="#DD2C00" d="M33.751,52.683c0.534,0 1.78,0.626 3.747,1.88c0,0.78 -0.62,2.027 -1.873,3.747c-2.5,-0.807 -3.747,-1.533 -3.747,-2.187C31.938,55.536 32.564,54.389 33.751,52.683z" id="path_0"/><path fill="#DD2C00" d="M29.998,45.829c4.094,0.04 6.38,-0.727 6.88,-2.307c0,-0.547 -0.521,-1.9 -1.566,-4.06l0.474,-4.06h0.307c1.359,2.34 2.033,4.687 2.033,7.026v1.407c0,0.94 -0.227,1.926 -0.674,2.96c-0.447,1.033 -1.141,1.906 -2.066,2.606c-0.934,0.707 -2.727,1 -5.387,0.88V45.829z" id="path_1"/><path fill="#000001" d="M30.331,50.282c-3.033,0.18 -5.239,-1.22 -6.62,-4.2c-0.666,-1.106 -1.286,-8.566 -1.873,-22.379v-0.313c0.387,-2.293 0.96,-3.44 1.713,-3.44l0.787,-0.153c0.96,0 2.42,0.313 4.373,0.933v0.313c-0.106,0.313 -0.42,0.473 -0.939,0.473h-2.654c-0.546,0 -1.066,0.307 -1.566,0.933c0.486,11.994 1.193,18.94 2.134,20.84c0.933,1.9 2.487,2.747 4.646,2.54V50.282z" id="path_2"/><path fill="#213e95" d="M57.311,48.594c-0.033,1.089 -0.209,2.058 -0.533,2.926c-0.346,0.573 -0.601,0.873 -0.766,0.896c-0.187,0 -0.271,-0.312 -0.249,-0.93c-0.289,-6.215 -0.646,-10.559 -1.077,-13.032c-0.232,-2.217 -0.551,-4.032 -0.947,-5.438c-0.147,-0.55 -0.227,-1.061 -0.25,-1.525c-0.033,-0.868 0.091,-1.866 0.381,-2.995l0.766,-2.892c0.102,-0.091 0.209,-0.136 0.334,-0.136c0.131,0 0.222,0.193 0.261,0.584c0.058,0.505 0.125,0.816 0.21,0.93c0.086,0.108 0.38,0.998 0.891,2.671c0.328,1.1 0.742,1.962 1.23,2.592c0.028,0.221 0.051,0.431 0.063,0.635c0,0.408 -0.119,0.981 -0.357,1.724c-0.238,0.743 -0.402,1.253 -0.505,1.531l-0.13,0.499L57.311,48.594z" id="path_3"/><path fill="#213e95" d="M49.916,23.086l1.032,-3.074l10.015,-4.4c0.137,-0.034 0.199,-0.017 0.199,0.051c0,0.034 -0.018,0.114 -0.052,0.25l-1.345,3.187l-9.617,4.304c-0.125,0.011 -0.198,0.011 -0.232,0C49.871,23.335 49.871,23.233 49.916,23.086z" id="path_4"/><path fill="#DD2C00" d="M39.773,25.832c0.314,0.541 0.68,2.085 1.098,4.631c-0.256,1.543 -0.93,2.312 -2.02,2.312h-0.146c-0.476,0 -1.09,-0.307 -1.865,-0.922c-0.527,0.929 -1.303,1.397 -2.312,1.397c-1.229,0 -1.844,-1.492 -1.844,-4.477c0.358,-1.134 0.666,-1.697 0.922,-1.697l0.146,0.153v2.634c0.213,0.915 0.477,1.368 0.776,1.368h0.622c0.643,0 1.053,-0.256 1.243,-0.768l-0.321,-2.312c0.124,-0.776 0.336,-1.186 0.621,-1.222h0.322c0.322,2.568 0.841,3.855 1.536,3.855h1.075v-0.154l-0.469,-3.08v-0.176C39.283,26.344 39.488,25.832 39.773,25.832z" id="path_5"/><path fill="#DD2C00" d="M32.039,24.709l0.873,-2.598l8.465,-3.72c0.115,-0.029 0.168,-0.014 0.168,0.043c0,0.029 -0.015,0.096 -0.044,0.21l-1.136,2.694l-8.129,3.638c-0.105,0.01 -0.168,0.01 -0.197,0C32.001,24.92 32.001,24.834 32.039,24.709z" id="path_6"/><path fill="#DD2C00" d="M32.039,21.023l0.873,-2.598l8.465,-3.719c0.115,-0.029 0.168,-0.015 0.168,0.043c0,0.029 -0.015,0.096 -0.044,0.211l-1.136,2.694l-8.129,3.638c-0.105,0.01 -0.168,0.01 -0.197,0C32.001,21.234 32.001,21.147 32.039,21.023z" id="path_7"/></svg>