<svg id="vector" xmlns="http://www.w3.org/2000/svg" width="75" height="67" viewBox="0 0 83 73"><path fill="#DD2C00" d="M60.179,38.989c-0.033,1.088 -0.21,2.058 -0.533,2.926c-0.346,0.572 -0.601,0.873 -0.766,0.896c-0.187,0 -0.271,-0.313 -0.249,-0.931c-0.289,-6.215 -0.646,-10.56 -1.077,-13.031c-0.232,-2.217 -0.551,-4.032 -0.947,-5.438c-0.147,-0.55 -0.227,-1.061 -0.25,-1.526c-0.034,-0.868 0.091,-1.866 0.38,-2.995L57.502,16c0.103,-0.091 0.21,-0.136 0.335,-0.136c0.131,0 0.222,0.193 0.261,0.584c0.057,0.505 0.125,0.816 0.21,0.93c0.085,0.108 0.38,0.998 0.89,2.671c0.33,1.1 0.743,1.962 1.231,2.592c0.028,0.221 0.051,0.431 0.063,0.635c0,0.408 -0.12,0.981 -0.357,1.724c-0.238,0.743 -0.403,1.253 -0.505,1.531l-0.131,0.499L60.179,38.989z" id="path_0"/><path fill="#DD2C00" d="M52.784,53.321l1.032,-3.074l10.015,-4.4c0.136,-0.033 0.198,-0.017 0.198,0.052c0,0.034 -0.017,0.113 -0.051,0.249l-1.345,3.188l-9.617,4.304c-0.125,0.012 -0.198,0.012 -0.232,0C52.739,53.571 52.739,53.469 52.784,53.321z" id="path_1"/><path fill="#000001" d="M32.387,42.849v-0.164c0.556,-0.777 1.35,-1.832 2.393,-3.176h0.113c0.846,0.908 1.899,1.73 3.176,2.461c0.034,0.034 0.051,0.074 0.051,0.131l-2.308,3.125c-0.022,0.011 -0.063,0.017 -0.119,0.017c-0.067,0 -0.182,-0.028 -0.346,-0.085C34.547,44.794 33.56,44.023 32.387,42.849z" id="path_2"/><path fill="#000001" d="M50.21,32.954c-1.786,1.139 -4.095,2.063 -6.931,2.772c-4.32,0.976 -7.983,1.452 -10.989,1.435c-3.006,-0.017 -5.342,-0.307 -7.004,-0.873c-1.661,-0.562 -3.118,-1.543 -4.366,-2.938c-1.077,-1.23 -1.707,-2.66 -1.894,-4.287c-0.244,-2.291 0.312,-4.764 1.678,-7.412c0.143,-0.13 0.284,-0.289 0.432,-0.471c0.142,-0.181 0.306,-0.261 0.481,-0.227l-0.017,0.403c-0.754,1.616 -1.163,3.056 -1.23,4.315c-0.034,0.442 -0.034,0.749 0,0.913c0.465,2.126 2.075,3.624 4.837,4.492c1.548,0.527 3.17,0.855 4.865,0.975c0.267,0.012 0.681,0.045 1.248,0.102c3.465,0.012 7.667,-0.396 12.606,-1.23c2.857,-0.532 4.894,-1.252 6.102,-2.16c-0.08,-0.363 -0.352,-0.777 -0.816,-1.236s-0.749,-0.873 -0.846,-1.236c-0.067,-1.463 0.018,-2.96 0.25,-4.485l0.198,-0.017c1.537,1.735 2.394,3.583 2.558,5.529C51.57,29.591 51.185,31.468 50.21,32.954z" id="path_3"/><path fill="#000001" d="M38.192,16.227c0.314,0.541 0.681,2.085 1.098,4.631c-0.257,1.543 -0.93,2.312 -2.02,2.312h-0.146c-0.476,0 -1.09,-0.307 -1.865,-0.922c-0.526,0.929 -1.302,1.397 -2.312,1.397c-1.229,0 -1.844,-1.492 -1.844,-4.477c0.358,-1.134 0.666,-1.697 0.922,-1.697l0.146,0.154v2.633c0.212,0.915 0.476,1.368 0.775,1.368h0.621c0.645,0 1.054,-0.256 1.244,-0.768l-0.322,-2.312c0.125,-0.776 0.337,-1.186 0.622,-1.222h0.322c0.321,2.567 0.841,3.855 1.536,3.855h1.075v-0.154l-0.468,-3.08V17.77C37.702,16.739 37.907,16.227 38.192,16.227z" id="path_4"/><path fill="#000001" d="M30.458,56.861l0.872,-2.599l8.465,-3.719c0.115,-0.029 0.168,-0.014 0.168,0.043c0,0.029 -0.014,0.096 -0.043,0.211l-1.136,2.693l-8.13,3.639c-0.105,0.01 -0.167,0.01 -0.196,0C30.42,57.072 30.42,56.985 30.458,56.861z" id="path_5"/><path fill="#000001" d="M30.458,53.175l0.872,-2.598l8.465,-3.72c0.115,-0.028 0.168,-0.015 0.168,0.043c0,0.028 -0.014,0.096 -0.043,0.211l-1.136,2.694l-8.13,3.637c-0.105,0.01 -0.167,0.01 -0.196,0C30.42,53.386 30.42,53.3 30.458,53.175z" id="path_6"/></svg>