<svg id="vector" xmlns="http://www.w3.org/2000/svg" width="75" height="67" viewBox="0 0 83 73"><path fill="#DD2C00" d="M60.164,46.436c-0.034,1.088 -0.21,2.059 -0.533,2.926c-0.346,0.572 -0.601,0.873 -0.766,0.896c-0.187,0 -0.272,-0.313 -0.25,-0.932c-0.289,-6.215 -0.646,-10.559 -1.077,-13.031c-0.232,-2.217 -0.55,-4.031 -0.947,-5.438c-0.147,-0.551 -0.227,-1.061 -0.25,-1.525c-0.034,-0.867 0.091,-1.865 0.38,-2.995l0.765,-2.893c0.103,-0.091 0.21,-0.136 0.335,-0.136c0.13,0 0.221,0.192 0.261,0.584c0.057,0.505 0.125,0.817 0.21,0.931c0.085,0.107 0.38,0.998 0.89,2.67c0.329,1.1 0.743,1.963 1.231,2.592c0.028,0.221 0.051,0.432 0.062,0.635c0,0.408 -0.119,0.982 -0.357,1.725c-0.238,0.742 -0.403,1.254 -0.505,1.531l-0.131,0.498L60.164,46.436z" id="path_0"/><path fill="#213e95" d="M31.814,22.902l-0.681,0.051l-0.102,-0.164c2.296,-1.22 4.072,-2.365 5.336,-3.443c-0.431,-0.152 -0.72,-0.312 -0.868,-0.481c-0.43,-0.295 -0.646,-0.8 -0.646,-1.509c-0.035,-1.451 0.482,-2.529 1.548,-3.238c0.34,-0.289 0.907,-0.357 1.695,-0.203c0.811,0.447 1.213,0.98 1.213,1.615c0.221,2.382 -1.333,4.514 -4.656,6.408C33.606,22.414 32.659,22.737 31.814,22.902L31.814,22.902zM37.972,17.554c0.318,-0.118 0.482,-0.334 0.482,-0.629c0,-0.499 -0.227,-0.868 -0.681,-1.101c-0.447,-0.176 -0.935,-0.182 -1.463,-0.018c-0.368,0.268 -0.561,0.506 -0.584,0.715c-0.034,0.256 0.136,0.59 0.499,0.998c0.335,0.137 0.601,0.199 0.8,0.199C37.281,17.786 37.593,17.73 37.972,17.554z" id="path_1"/><path fill="#213e95" d="M50.194,48.424c-1.786,1.141 -4.094,2.064 -6.93,2.773c-4.321,0.975 -7.984,1.451 -10.99,1.434c-3.005,-0.016 -5.342,-0.307 -7.004,-0.873c-1.661,-0.561 -3.119,-1.543 -4.366,-2.938c-1.078,-1.23 -1.707,-2.66 -1.894,-4.287c-0.244,-2.291 0.312,-4.764 1.679,-7.412c0.142,-0.129 0.283,-0.289 0.431,-0.471c0.142,-0.182 0.307,-0.26 0.482,-0.227l-0.017,0.402c-0.754,1.617 -1.163,3.057 -1.231,4.316c-0.034,0.441 -0.034,0.748 0,0.912c0.465,2.127 2.076,3.625 4.837,4.492c1.548,0.527 3.17,0.855 4.865,0.975c0.267,0.012 0.681,0.047 1.248,0.102c3.464,0.012 7.667,-0.396 12.606,-1.229c2.858,-0.533 4.894,-1.254 6.102,-2.162c-0.079,-0.361 -0.351,-0.777 -0.816,-1.236c-0.465,-0.459 -0.749,-0.873 -0.845,-1.236c-0.068,-1.463 0.017,-2.959 0.25,-4.484l0.198,-0.018c1.537,1.736 2.393,3.584 2.558,5.529C51.556,45.061 51.17,46.938 50.194,48.424z" id="path_2"/><path fill="#DD2C00" d="M52.8,58.84l1.032,-3.074l10.015,-4.4c0.136,-0.033 0.199,-0.016 0.199,0.051c0,0.035 -0.017,0.113 -0.051,0.25l-1.344,3.188l-9.617,4.305c-0.125,0.01 -0.199,0.01 -0.232,0C52.755,59.09 52.755,58.989 52.8,58.84z" id="path_3"/><path fill="#213e95" d="M38.177,23.357c0.314,0.542 0.68,2.086 1.097,4.631c-0.256,1.543 -0.929,2.313 -2.019,2.313h-0.146c-0.476,0 -1.09,-0.309 -1.866,-0.922c-0.526,0.928 -1.302,1.396 -2.312,1.396c-1.229,0 -1.844,-1.492 -1.844,-4.477c0.359,-1.134 0.666,-1.697 0.922,-1.697l0.146,0.154v2.633c0.212,0.914 0.476,1.367 0.775,1.367h0.622c0.644,0 1.054,-0.256 1.244,-0.768l-0.322,-2.311c0.125,-0.776 0.336,-1.186 0.622,-1.223h0.321c0.322,2.569 0.842,3.856 1.537,3.856h1.075v-0.154l-0.468,-3.08v-0.176C37.687,23.87 37.892,23.357 38.177,23.357z" id="path_4"/><path fill="#213e95" d="M29.832,38.288v-0.164c0.556,-0.777 1.35,-1.832 2.394,-3.176h0.113c0.845,0.906 1.9,1.729 3.176,2.461c0.034,0.033 0.051,0.074 0.051,0.129l-2.308,3.125c-0.023,0.012 -0.063,0.018 -0.119,0.018c-0.068,0 -0.182,-0.027 -0.346,-0.086C31.992,40.231 31.005,39.461 29.832,38.288z" id="path_5"/><path fill="#213e95" d="M34.798,38.288v-0.164c0.556,-0.777 1.35,-1.832 2.393,-3.176h0.113c0.845,0.906 1.9,1.729 3.176,2.461c0.034,0.033 0.051,0.074 0.051,0.129l-2.308,3.125c-0.023,0.012 -0.063,0.018 -0.119,0.018c-0.068,0 -0.182,-0.027 -0.346,-0.086C36.958,40.231 35.972,39.461 34.798,38.288z" id="path_6"/></svg>