<svg id="vector" xmlns="http://www.w3.org/2000/svg" width="75" height="67" viewBox="0 0 83 73"><path fill="#213e95" d="M61.948,52.333c-0.034,1.089 -0.21,2.059 -0.533,2.926c-0.346,0.573 -0.601,0.874 -0.766,0.896c-0.187,0 -0.272,-0.312 -0.25,-0.931c-0.289,-6.215 -0.646,-10.559 -1.077,-13.031c-0.232,-2.217 -0.55,-4.031 -0.947,-5.438c-0.147,-0.551 -0.227,-1.061 -0.25,-1.526c-0.034,-0.867 0.091,-1.865 0.38,-2.994l0.766,-2.892c0.102,-0.091 0.21,-0.137 0.334,-0.137c0.131,0 0.222,0.193 0.261,0.585c0.057,0.504 0.125,0.816 0.21,0.93c0.085,0.107 0.379,0.998 0.89,2.671c0.329,1.1 0.743,1.962 1.23,2.592c0.028,0.221 0.051,0.431 0.063,0.635c0,0.408 -0.119,0.981 -0.357,1.724c-0.238,0.743 -0.402,1.254 -0.505,1.531l-0.13,0.499L61.948,52.333z" id="path_0"/><path fill="#000001" d="M51.979,52.018c-1.786,1.14 -4.094,2.064 -6.93,2.772c-4.321,0.977 -7.984,1.452 -10.99,1.436c-3.005,-0.018 -5.342,-0.307 -7.003,-0.874c-1.662,-0.562 -3.119,-1.542 -4.367,-2.938c-1.077,-1.23 -1.707,-2.659 -1.894,-4.287c-0.244,-2.291 0.312,-4.763 1.678,-7.411c0.142,-0.131 0.284,-0.289 0.431,-0.471c0.142,-0.182 0.306,-0.261 0.482,-0.227l-0.017,0.402c-0.754,1.616 -1.163,3.057 -1.23,4.315c-0.034,0.442 -0.034,0.748 0,0.913c0.465,2.126 2.076,3.623 4.837,4.491c1.548,0.527 3.17,0.856 4.866,0.976c0.267,0.011 0.681,0.045 1.248,0.102c3.465,0.012 7.667,-0.396 12.606,-1.23c2.858,-0.533 4.894,-1.253 6.102,-2.161c-0.08,-0.362 -0.351,-0.776 -0.816,-1.235c-0.465,-0.46 -0.749,-0.874 -0.845,-1.236c-0.068,-1.463 0.017,-2.961 0.25,-4.485l0.199,-0.018c1.537,1.735 2.393,3.584 2.558,5.529C53.34,48.655 52.955,50.531 51.979,52.018z" id="path_1"/><path fill="#000001" d="M39.962,29.571c0.314,0.541 0.68,2.085 1.097,4.63c-0.256,1.544 -0.929,2.312 -2.019,2.312h-0.146c-0.476,0 -1.09,-0.307 -1.865,-0.921c-0.527,0.929 -1.302,1.396 -2.312,1.396c-1.229,0 -1.844,-1.492 -1.844,-4.477c0.358,-1.134 0.666,-1.697 0.921,-1.697l0.146,0.153v2.634c0.212,0.914 0.476,1.368 0.776,1.368h0.622c0.644,0 1.053,-0.256 1.244,-0.769L36.26,31.89c0.125,-0.775 0.337,-1.185 0.622,-1.222h0.322c0.322,2.567 0.841,3.855 1.536,3.855h1.075V34.37l-0.468,-3.08v-0.176C39.471,30.083 39.676,29.571 39.962,29.571z" id="path_2"/><path fill="#000001" d="M36.981,20.092c0.208,-0.102 0.305,-0.032 0.295,0.203c-1.044,1.156 -1.867,2.251 -2.463,3.291c-0.171,0.407 -0.268,0.74 -0.292,1.008c-0.023,0.269 0.046,0.555 0.213,0.86h0.203c0.079,-0.453 0.241,-0.68 0.486,-0.68c0.291,0.13 0.453,0.259 0.485,0.393v0.189c0.019,1.031 -0.272,1.65 -0.878,1.858h-0.485c-0.652,-0.129 -0.976,-0.878 -0.976,-2.251C33.57,23.295 34.707,21.673 36.981,20.092L36.981,20.092zM39.122,21.853c-1.392,0 -2.298,1.004 -2.723,3.019c0,0.786 0.356,1.405 1.068,1.854v0.097c-2.644,1.253 -4.008,1.974 -4.086,2.154c-0.037,0.009 -0.042,0.032 -0.009,0.064c0.032,0.037 0.074,0.064 0.129,0.083s0.106,0.033 0.162,0.042c1.517,0 3.213,-0.587 5.081,-1.762c1.072,-0.559 1.687,-1.761 1.84,-3.601v-0.301C40.439,22.403 39.949,21.853 39.122,21.853L39.122,21.853zM37.375,23.896c0,-0.144 0.259,-0.277 0.771,-0.394c0.976,0 1.461,0.458 1.461,1.368c-0.042,0.199 -0.236,0.296 -0.583,0.296h-0.282c-0.911,-0.115 -1.368,-0.508 -1.368,-1.179V23.896z" id="path_3"/><path fill="#000001" d="M31.616,41.88v-0.164c0.556,-0.776 1.35,-1.832 2.394,-3.176h0.113c0.845,0.907 1.899,1.729 3.176,2.461c0.034,0.034 0.051,0.074 0.051,0.131l-2.308,3.125c-0.023,0.011 -0.063,0.017 -0.12,0.017c-0.067,0 -0.181,-0.028 -0.346,-0.085C33.776,43.825 32.79,43.055 31.616,41.88z" id="path_4"/><path fill="#000001" d="M36.582,41.88v-0.164c0.556,-0.776 1.35,-1.832 2.394,-3.176h0.113c0.845,0.907 1.899,1.729 3.176,2.461c0.034,0.034 0.051,0.074 0.051,0.131l-2.308,3.125c-0.023,0.011 -0.063,0.017 -0.12,0.017c-0.067,0 -0.181,-0.028 -0.346,-0.085C38.743,43.825 37.756,43.055 36.582,41.88z" id="path_5"/><path fill="#213e95" d="M54.743,25.842l-0.681,0.05l-0.102,-0.164c2.296,-1.219 4.071,-2.364 5.336,-3.442c-0.431,-0.152 -0.72,-0.312 -0.868,-0.481c-0.431,-0.295 -0.646,-0.8 -0.646,-1.509c-0.034,-1.451 0.482,-2.529 1.548,-3.238c0.34,-0.288 0.907,-0.356 1.695,-0.204c0.811,0.448 1.213,0.981 1.213,1.616c0.221,2.382 -1.333,4.515 -4.655,6.408C56.535,25.354 55.588,25.677 54.743,25.842L54.743,25.842zM60.901,20.493c0.317,-0.118 0.482,-0.334 0.482,-0.629c0,-0.499 -0.227,-0.867 -0.681,-1.101c-0.448,-0.176 -0.936,-0.181 -1.463,-0.017c-0.369,0.267 -0.562,0.505 -0.584,0.715c-0.034,0.255 0.136,0.589 0.499,0.997c0.334,0.137 0.601,0.199 0.799,0.199C60.209,20.726 60.521,20.67 60.901,20.493z" id="path_6"/></svg>