<svg id="vector" xmlns="http://www.w3.org/2000/svg" width="75" height="67" viewBox="0 0 83 73"><path fill="#213e95" d="M55.64,51.845c-0.034,1.089 -0.21,2.059 -0.533,2.927c-0.346,0.572 -0.601,0.873 -0.766,0.896c-0.187,0 -0.272,-0.312 -0.25,-0.931c-0.289,-6.215 -0.646,-10.559 -1.077,-13.031c-0.232,-2.217 -0.55,-4.031 -0.947,-5.438c-0.147,-0.551 -0.227,-1.061 -0.25,-1.525c-0.034,-0.868 0.091,-1.866 0.38,-2.995l0.766,-2.892c0.102,-0.091 0.21,-0.136 0.334,-0.136c0.131,0 0.222,0.192 0.261,0.584c0.057,0.504 0.125,0.816 0.21,0.93c0.085,0.107 0.38,0.998 0.89,2.671c0.329,1.101 0.743,1.962 1.23,2.592c0.028,0.221 0.051,0.431 0.063,0.635c0,0.408 -0.119,0.981 -0.357,1.724c-0.239,0.743 -0.403,1.254 -0.505,1.531l-0.131,0.499L55.64,51.845z" id="path_0"/><path fill="#213e95" d="M50.515,25.354l-0.681,0.051l-0.102,-0.164c2.296,-1.22 4.071,-2.365 5.336,-3.442c-0.432,-0.153 -0.721,-0.313 -0.868,-0.482c-0.431,-0.295 -0.646,-0.8 -0.646,-1.509c-0.034,-1.451 0.482,-2.529 1.548,-3.237c0.34,-0.289 0.907,-0.357 1.695,-0.204c0.811,0.448 1.214,0.98 1.214,1.615c0.221,2.382 -1.333,4.515 -4.656,6.408C52.307,24.865 51.36,25.188 50.515,25.354L50.515,25.354zM56.673,20.005c0.317,-0.118 0.482,-0.334 0.482,-0.629c0,-0.499 -0.227,-0.867 -0.681,-1.101c-0.448,-0.175 -0.936,-0.181 -1.463,-0.017c-0.369,0.267 -0.562,0.505 -0.584,0.715c-0.034,0.255 0.136,0.59 0.499,0.998c0.334,0.136 0.601,0.198 0.799,0.198C55.981,20.237 56.293,20.182 56.673,20.005z" id="path_1"/><path fill="#000001" d="M33.127,55.83c4.093,0.04 6.38,-0.727 6.88,-2.307c0,-0.547 -0.52,-1.9 -1.566,-4.061l0.473,-4.06h0.307c1.36,2.34 2.033,4.687 2.033,7.026v1.407c0,0.939 -0.227,1.927 -0.673,2.96s-1.14,1.906 -2.066,2.606c-0.934,0.707 -2.727,1 -5.387,0.88V55.83z" id="path_2"/><path fill="#000001" d="M33.46,60.283c-3.033,0.181 -5.24,-1.22 -6.62,-4.2c-0.667,-1.106 -1.287,-8.566 -1.874,-22.38V33.39c0.387,-2.293 0.96,-3.439 1.713,-3.439l0.787,-0.153c0.96,0 2.42,0.313 4.374,0.933v0.313c-0.107,0.313 -0.42,0.474 -0.94,0.474h-2.654c-0.546,0 -1.066,0.307 -1.567,0.934c0.487,11.993 1.194,18.939 2.134,20.84c0.933,1.9 2.487,2.747 4.646,2.54V60.283z" id="path_3"/><path fill="#DD2C00" d="M40.503,23.833c0.314,0.541 0.68,2.085 1.097,4.63c-0.256,1.544 -0.929,2.313 -2.019,2.313h-0.146c-0.476,0 -1.09,-0.308 -1.865,-0.922c-0.527,0.929 -1.302,1.396 -2.312,1.396c-1.229,0 -1.843,-1.492 -1.843,-4.477c0.358,-1.134 0.666,-1.697 0.922,-1.697l0.146,0.153v2.634c0.212,0.914 0.476,1.368 0.775,1.368h0.622c0.644,0 1.054,-0.256 1.244,-0.769l-0.322,-2.312c0.125,-0.775 0.336,-1.185 0.622,-1.222h0.322c0.322,2.568 0.841,3.855 1.537,3.855h1.075v-0.153l-0.468,-3.08v-0.176C40.012,24.345 40.217,23.833 40.503,23.833z" id="path_4"/><path fill="#DD2C00" d="M32.769,22.71l0.873,-2.598l8.464,-3.72c0.116,-0.028 0.168,-0.015 0.168,0.043c0,0.029 -0.015,0.097 -0.043,0.211l-1.136,2.694l-8.129,3.638c-0.105,0.01 -0.168,0.01 -0.197,0C32.73,22.921 32.73,22.835 32.769,22.71z" id="path_5"/><path fill="#DD2C00" d="M32.769,19.023l0.873,-2.598l8.464,-3.72c0.116,-0.029 0.168,-0.015 0.168,0.043c0,0.029 -0.015,0.096 -0.043,0.211l-1.136,2.694l-8.129,3.638c-0.105,0.01 -0.168,0.01 -0.197,0C32.73,19.234 32.73,19.148 32.769,19.023z" id="path_6"/><path fill="#DD2C00" d="M30.174,41.395v-0.165c0.556,-0.776 1.35,-1.831 2.394,-3.176h0.113c0.845,0.908 1.9,1.73 3.176,2.461c0.034,0.034 0.051,0.074 0.051,0.131L33.6,43.771c-0.023,0.011 -0.062,0.017 -0.119,0.017c-0.068,0 -0.181,-0.028 -0.346,-0.085C32.335,43.339 31.348,42.568 30.174,41.395z" id="path_7"/><path fill="#DD2C00" d="M35.141,41.395v-0.165c0.556,-0.776 1.35,-1.831 2.394,-3.176h0.113c0.845,0.908 1.9,1.73 3.176,2.461c0.034,0.034 0.051,0.074 0.051,0.131l-2.308,3.125c-0.023,0.011 -0.062,0.017 -0.119,0.017c-0.068,0 -0.181,-0.028 -0.346,-0.085C37.301,43.339 36.314,42.568 35.141,41.395z" id="path_8"/><path fill="#DD2C00" d="M32.658,37.122v-0.164c0.556,-0.777 1.35,-1.832 2.393,-3.176h0.113c0.845,0.907 1.899,1.729 3.176,2.461c0.034,0.034 0.051,0.074 0.051,0.13l-2.308,3.125c-0.023,0.012 -0.063,0.018 -0.12,0.018c-0.067,0 -0.181,-0.028 -0.346,-0.086C34.818,39.067 33.832,38.296 32.658,37.122z" id="path_9"/></svg>