<svg id="vector" xmlns="http://www.w3.org/2000/svg" width="75" height="67" viewBox="0 0 83 73"><path fill="#213e95" d="M57.504,48.195c-0.035,1.089 -0.211,2.059 -0.533,2.927c-0.346,0.572 -0.602,0.873 -0.766,0.896c-0.188,0 -0.272,-0.312 -0.25,-0.931c-0.289,-6.215 -0.646,-10.559 -1.077,-13.031c-0.232,-2.217 -0.55,-4.031 -0.947,-5.438c-0.147,-0.551 -0.227,-1.061 -0.249,-1.525c-0.035,-0.868 0.09,-1.866 0.379,-2.995l0.766,-2.892c0.103,-0.091 0.211,-0.137 0.335,-0.137c0.131,0 0.222,0.193 0.261,0.585c0.057,0.504 0.125,0.816 0.21,0.93c0.085,0.107 0.38,0.998 0.89,2.671c0.33,1.101 0.744,1.962 1.231,2.592c0.028,0.221 0.051,0.431 0.063,0.635c0,0.408 -0.12,0.981 -0.357,1.724c-0.238,0.743 -0.403,1.254 -0.505,1.531l-0.131,0.499L57.504,48.195z" id="path_0"/><path fill="#213e95" d="M50.109,60.915l1.031,-3.073l10.015,-4.4c0.136,-0.034 0.198,-0.018 0.198,0.051c0,0.034 -0.017,0.113 -0.051,0.25l-1.344,3.187l-9.617,4.304c-0.125,0.012 -0.199,0.012 -0.232,0C50.063,61.165 50.063,61.063 50.109,60.915z" id="path_1"/><path fill="#DD2C00" d="M35.517,20.633c0.314,0.541 0.681,2.085 1.098,4.631c-0.257,1.544 -0.929,2.312 -2.019,2.312h-0.146c-0.477,0 -1.091,-0.307 -1.866,-0.922c-0.526,0.93 -1.302,1.397 -2.312,1.397c-1.229,0 -1.844,-1.492 -1.844,-4.478c0.359,-1.134 0.666,-1.696 0.922,-1.696l0.146,0.153v2.634c0.213,0.914 0.476,1.367 0.775,1.367h0.621c0.645,0 1.055,-0.256 1.244,-0.768l-0.322,-2.312c0.125,-0.775 0.337,-1.186 0.623,-1.222h0.321c0.321,2.567 0.841,3.854 1.536,3.854h1.075v-0.153l-0.468,-3.08v-0.175C35.026,21.146 35.231,20.633 35.517,20.633z" id="path_2"/><path fill="#DD2C00" d="M26.916,19.251l1.031,-3.074l10.015,-4.4c0.136,-0.034 0.198,-0.017 0.198,0.051c0,0.034 -0.017,0.114 -0.051,0.25l-1.344,3.187l-9.617,4.305c-0.125,0.011 -0.199,0.011 -0.232,0C26.87,19.5 26.87,19.398 26.916,19.251z" id="path_3"/><path fill="#DD2C00" d="M31.02,42.122h0.305c0.729,0 1.786,0.703 3.174,2.115v0.148c0,0.658 -0.601,1.665 -1.813,3.026c-2.116,-0.555 -3.175,-1.31 -3.175,-2.271C29.814,44.058 30.316,43.051 31.02,42.122z" id="path_4"/><path fill="#DD2C00" d="M39.033,29.87l0.154,0.155v0.148c-0.529,2.723 -1.689,4.083 -3.477,4.083c-2.246,0 -4.762,1.007 -7.562,3.026c-3.123,2.619 -4.69,5.594 -4.69,8.916c0,4.516 2.574,7.639 7.716,9.374l5.29,0.458l8.471,-0.606h1.658l0.155,0.148v0.154c0,0.581 -1.562,1.439 -4.69,2.568c-1.271,0.555 -3.891,1.161 -7.864,1.819c-5.161,0 -8.438,-1.316 -9.825,-3.936c-1.613,-2.368 -2.42,-5.142 -2.42,-8.316c0,-5.167 2.116,-9.6 6.348,-13.303h-3.322c-0.807,0 -1.813,0.703 -3.025,2.116l-0.303,-0.304V36.07c1.006,-3.832 2.574,-5.748 4.689,-5.748C26.736,30.425 30.969,30.276 39.033,29.87z" id="path_5"/></svg>