<svg id="vector" xmlns="http://www.w3.org/2000/svg" width="75" height="67" viewBox="0 0 83 73"><path fill="#213e95" d="M33.128,52.937c4.093,0.04 6.38,-0.727 6.88,-2.307c0,-0.547 -0.52,-1.9 -1.566,-4.061l0.473,-4.06h0.307c1.36,2.34 2.033,4.687 2.033,7.026v1.407c0,0.939 -0.227,1.926 -0.673,2.96c-0.447,1.033 -1.14,1.906 -2.067,2.606c-0.933,0.707 -2.727,1 -5.386,0.88V52.937z" id="path_0"/><path fill="#000001" d="M33.461,57.39c-3.033,0.18 -5.24,-1.22 -6.62,-4.2c-0.667,-1.106 -1.287,-8.566 -1.873,-22.38v-0.313c0.386,-2.293 0.96,-3.439 1.713,-3.439l0.787,-0.153c0.96,0 2.42,0.313 4.373,0.933v0.313c-0.106,0.313 -0.42,0.474 -0.94,0.474h-2.653c-0.546,0 -1.067,0.307 -1.567,0.934c0.487,11.993 1.193,18.939 2.133,20.84c0.934,1.899 2.487,2.746 4.647,2.54V57.39z" id="path_1"/><path fill="#DD2C00" d="M55.641,54.58c-0.034,1.089 -0.21,2.059 -0.533,2.926c-0.346,0.573 -0.601,0.874 -0.766,0.896c-0.187,0 -0.272,-0.312 -0.25,-0.931c-0.289,-6.215 -0.646,-10.559 -1.077,-13.031c-0.232,-2.217 -0.55,-4.031 -0.947,-5.438c-0.147,-0.551 -0.227,-1.061 -0.25,-1.526c-0.034,-0.867 0.09,-1.865 0.38,-2.994l0.766,-2.892c0.102,-0.091 0.21,-0.137 0.334,-0.137c0.131,0 0.222,0.193 0.261,0.585c0.057,0.504 0.125,0.816 0.21,0.93c0.085,0.107 0.379,0.998 0.89,2.671c0.329,1.1 0.743,1.962 1.231,2.592c0.028,0.221 0.051,0.431 0.063,0.635c0,0.408 -0.12,0.981 -0.357,1.724c-0.238,0.743 -0.403,1.254 -0.505,1.531l-0.13,0.499L55.641,54.58z" id="path_2"/><path fill="#213e95" d="M40.503,25.739c0.314,0.541 0.681,2.085 1.098,4.631c-0.256,1.543 -0.929,2.312 -2.019,2.312h-0.146c-0.476,0 -1.09,-0.308 -1.865,-0.922c-0.527,0.929 -1.303,1.397 -2.312,1.397c-1.229,0 -1.844,-1.492 -1.844,-4.478c0.359,-1.134 0.666,-1.697 0.922,-1.697l0.146,0.153v2.634c0.212,0.915 0.476,1.368 0.775,1.368h0.622c0.644,0 1.054,-0.256 1.244,-0.768l-0.322,-2.313c0.125,-0.775 0.336,-1.185 0.622,-1.222h0.322c0.322,2.568 0.841,3.855 1.536,3.855h1.075v-0.153l-0.468,-3.08v-0.176C40.013,26.251 40.218,25.739 40.503,25.739z" id="path_3"/><path fill="#213e95" d="M32.769,24.616l0.873,-2.598l8.464,-3.72c0.116,-0.028 0.168,-0.014 0.168,0.044c0,0.028 -0.015,0.096 -0.043,0.211l-1.136,2.693l-8.129,3.638c-0.105,0.01 -0.167,0.01 -0.196,0C32.731,24.827 32.731,24.741 32.769,24.616z" id="path_4"/><path fill="#213e95" d="M32.769,20.93l0.873,-2.598l8.464,-3.72c0.116,-0.028 0.168,-0.015 0.168,0.043c0,0.029 -0.015,0.096 -0.043,0.211l-1.136,2.694l-8.129,3.638c-0.105,0.01 -0.167,0.01 -0.196,0C32.731,21.141 32.731,21.055 32.769,20.93z" id="path_5"/><path fill="#213e95" d="M30.175,38.5v-0.164c0.556,-0.777 1.35,-1.832 2.393,-3.176h0.113c0.845,0.907 1.9,1.729 3.176,2.461c0.034,0.034 0.051,0.074 0.051,0.131L33.6,40.876c-0.023,0.012 -0.063,0.018 -0.119,0.018c-0.068,0 -0.182,-0.028 -0.346,-0.085C32.335,40.445 31.349,39.675 30.175,38.5z" id="path_6"/><path fill="#213e95" d="M35.141,38.5v-0.164c0.556,-0.777 1.35,-1.832 2.393,-3.176h0.113c0.845,0.907 1.9,1.729 3.176,2.461c0.034,0.034 0.051,0.074 0.051,0.131l-2.308,3.124c-0.023,0.012 -0.063,0.018 -0.119,0.018c-0.068,0 -0.182,-0.028 -0.346,-0.085C37.302,40.445 36.315,39.675 35.141,38.5z" id="path_7"/><path fill="#DD2C00" d="M50.515,28.089l-0.681,0.05l-0.102,-0.164c2.296,-1.219 4.071,-2.364 5.336,-3.442c-0.431,-0.152 -0.72,-0.312 -0.868,-0.481c-0.431,-0.295 -0.646,-0.8 -0.646,-1.509c-0.034,-1.451 0.482,-2.529 1.548,-3.238c0.34,-0.288 0.907,-0.356 1.695,-0.204c0.811,0.448 1.213,0.981 1.213,1.616c0.221,2.382 -1.333,4.515 -4.655,6.408C52.307,27.601 51.36,27.924 50.515,28.089L50.515,28.089zM56.674,22.74c0.317,-0.118 0.481,-0.334 0.481,-0.629c0,-0.499 -0.227,-0.867 -0.68,-1.101c-0.448,-0.176 -0.936,-0.181 -1.463,-0.017c-0.369,0.267 -0.562,0.505 -0.584,0.715c-0.034,0.255 0.136,0.589 0.499,0.997c0.335,0.137 0.602,0.199 0.8,0.199C55.982,22.973 56.294,22.917 56.674,22.74z" id="path_8"/></svg>