<svg id="vector" xmlns="http://www.w3.org/2000/svg" width="75" height="67" viewBox="0 0 83 73"><path fill="#000001" d="M60.179,42.341c-0.034,1.088 -0.21,2.058 -0.533,2.926c-0.346,0.572 -0.602,0.873 -0.766,0.896c-0.187,0 -0.272,-0.313 -0.249,-0.931c-0.289,-6.215 -0.646,-10.56 -1.078,-13.031c-0.232,-2.217 -0.55,-4.032 -0.946,-5.438c-0.147,-0.55 -0.228,-1.061 -0.25,-1.526c-0.034,-0.868 0.091,-1.866 0.38,-2.995l0.766,-2.892c0.103,-0.091 0.21,-0.136 0.335,-0.136c0.13,0 0.221,0.193 0.261,0.584c0.057,0.505 0.124,0.816 0.21,0.93c0.085,0.108 0.38,0.998 0.89,2.671c0.329,1.1 0.743,1.962 1.23,2.592c0.029,0.221 0.052,0.431 0.063,0.635c0,0.408 -0.119,0.981 -0.356,1.724c-0.239,0.743 -0.403,1.253 -0.505,1.531l-0.131,0.499L60.179,42.341z" id="path_0"/><path fill="#000001" d="M52.785,56.673l1.031,-3.074l10.016,-4.4c0.136,-0.033 0.198,-0.017 0.198,0.052c0,0.034 -0.017,0.113 -0.052,0.249l-1.344,3.188l-9.617,4.304c-0.125,0.012 -0.198,0.012 -0.232,0C52.739,56.923 52.739,56.82 52.785,56.673z" id="path_1"/><path fill="#213e95" d="M32.386,52.147v-0.164c0.556,-0.777 1.35,-1.832 2.394,-3.176h0.113c0.845,0.908 1.899,1.73 3.176,2.461c0.034,0.035 0.051,0.074 0.051,0.131l-2.308,3.125c-0.023,0.011 -0.063,0.018 -0.119,0.018c-0.068,0 -0.182,-0.029 -0.347,-0.086C34.547,54.093 33.56,53.322 32.386,52.147z" id="path_2"/><path fill="#213e95" d="M50.209,42.253c-1.786,1.14 -4.094,2.064 -6.93,2.772c-4.321,0.976 -7.984,1.452 -10.99,1.435c-3.005,-0.017 -5.342,-0.307 -7.003,-0.873c-1.661,-0.562 -3.119,-1.543 -4.366,-2.938c-1.077,-1.23 -1.707,-2.66 -1.895,-4.287c-0.244,-2.291 0.313,-4.764 1.679,-7.412c0.142,-0.13 0.284,-0.289 0.431,-0.471c0.143,-0.182 0.307,-0.261 0.482,-0.227l-0.017,0.402c-0.755,1.617 -1.163,3.056 -1.231,4.316c-0.034,0.441 -0.034,0.748 0,0.912c0.466,2.127 2.076,3.624 4.838,4.492c1.548,0.527 3.17,0.855 4.865,0.975c0.267,0.012 0.681,0.046 1.247,0.102c3.465,0.012 7.668,-0.396 12.606,-1.23c2.858,-0.532 4.895,-1.252 6.103,-2.16c-0.08,-0.363 -0.352,-0.777 -0.817,-1.236c-0.465,-0.459 -0.748,-0.873 -0.845,-1.236c-0.067,-1.463 0.017,-2.96 0.249,-4.485l0.199,-0.017c1.537,1.734 2.393,3.584 2.558,5.529C51.571,38.89 51.185,40.767 50.209,42.253z" id="path_3"/><path fill="#213e95" d="M38.193,25.525c0.314,0.542 0.68,2.085 1.097,4.631c-0.256,1.544 -0.929,2.312 -2.019,2.312h-0.146c-0.476,0 -1.09,-0.307 -1.865,-0.922c-0.527,0.93 -1.303,1.397 -2.312,1.397c-1.229,0 -1.844,-1.492 -1.844,-4.477c0.358,-1.134 0.666,-1.697 0.922,-1.697l0.146,0.154v2.634c0.213,0.914 0.477,1.368 0.776,1.368h0.621c0.644,0 1.054,-0.256 1.244,-0.768l-0.322,-2.312c0.125,-0.776 0.337,-1.185 0.622,-1.222h0.321c0.322,2.567 0.842,3.855 1.537,3.855h1.075v-0.154l-0.469,-3.08v-0.176C37.703,26.038 37.907,25.525 38.193,25.525z" id="path_4"/><path fill="#213e95" d="M35.212,16.046c0.208,-0.102 0.305,-0.032 0.296,0.204c-1.045,1.155 -1.868,2.251 -2.464,3.291c-0.171,0.407 -0.269,0.74 -0.292,1.008c-0.022,0.268 0.047,0.555 0.213,0.86h0.204c0.078,-0.453 0.24,-0.679 0.485,-0.679c0.291,0.129 0.453,0.259 0.485,0.393v0.189c0.019,1.031 -0.272,1.65 -0.879,1.858h-0.485c-0.651,-0.129 -0.975,-0.878 -0.975,-2.251C31.801,19.25 32.938,17.627 35.212,16.046L35.212,16.046zM37.353,17.808c-1.393,0 -2.298,1.003 -2.724,3.019c0,0.786 0.356,1.405 1.068,1.854v0.098c-2.645,1.252 -4.008,1.973 -4.086,2.154c-0.037,0.009 -0.042,0.032 -0.01,0.065c0.032,0.037 0.074,0.064 0.129,0.083c0.056,0.019 0.106,0.032 0.162,0.042c1.517,0 3.213,-0.587 5.081,-1.761c1.071,-0.559 1.687,-1.761 1.839,-3.601v-0.3C38.669,18.358 38.18,17.808 37.353,17.808L37.353,17.808zM35.605,19.851c0,-0.144 0.259,-0.278 0.772,-0.393c0.976,0 1.46,0.458 1.46,1.368c-0.041,0.199 -0.235,0.296 -0.582,0.296h-0.281c-0.911,-0.116 -1.369,-0.508 -1.369,-1.179V19.851z" id="path_5"/></svg>