<svg id="vector" xmlns="http://www.w3.org/2000/svg" width="75" height="67" viewBox="0 0 83 73"><path fill="#000001" d="M34.952,52.544c0.533,0 1.78,0.627 3.746,1.881c0,0.779 -0.619,2.026 -1.873,3.746c-2.5,-0.807 -3.746,-1.533 -3.746,-2.187C33.139,55.397 33.766,54.251 34.952,52.544z" id="path_0"/><path fill="#000001" d="M31.198,45.69c4.094,0.041 6.381,-0.727 6.881,-2.307c0,-0.546 -0.521,-1.899 -1.567,-4.06l0.474,-4.06h0.307c1.36,2.34 2.033,4.687 2.033,7.026v1.407c0,0.939 -0.227,1.926 -0.673,2.959c-0.447,1.033 -1.141,1.907 -2.067,2.607c-0.933,0.707 -2.727,1 -5.387,0.88V45.69z" id="path_1"/><path fill="#DD2C00" d="M31.532,50.145c-3.034,0.18 -5.24,-1.22 -6.62,-4.2c-0.667,-1.107 -1.287,-8.566 -1.874,-22.38v-0.313c0.387,-2.293 0.96,-3.44 1.714,-3.44l0.787,-0.153c0.959,0 2.419,0.313 4.373,0.933v0.313c-0.107,0.313 -0.42,0.474 -0.94,0.474h-2.653c-0.547,0 -1.066,0.307 -1.566,0.933c0.486,11.993 1.193,18.94 2.133,20.84c0.934,1.9 2.487,2.746 4.647,2.539V50.145z" id="path_2"/><path fill="#DD2C00" d="M56.111,43.655c-0.034,1.09 -0.21,2.059 -0.533,2.928c-0.346,0.572 -0.601,0.873 -0.766,0.896c-0.187,0 -0.271,-0.312 -0.249,-0.931c-0.289,-6.215 -0.646,-10.559 -1.077,-13.031c-0.232,-2.217 -0.551,-4.032 -0.947,-5.438c-0.147,-0.55 -0.227,-1.061 -0.25,-1.525c-0.034,-0.868 0.091,-1.866 0.38,-2.995l0.766,-2.892c0.103,-0.091 0.21,-0.136 0.335,-0.136c0.131,0 0.222,0.192 0.261,0.584c0.057,0.504 0.125,0.816 0.21,0.93c0.085,0.107 0.38,0.998 0.89,2.671c0.329,1.1 0.743,1.962 1.231,2.591c0.028,0.221 0.051,0.431 0.063,0.635c0,0.408 -0.12,0.981 -0.357,1.724c-0.238,0.743 -0.403,1.253 -0.505,1.531l-0.131,0.499L56.111,43.655z" id="path_3"/><path fill="#DD2C00" d="M48.717,58.12l1.032,-3.074l10.015,-4.4c0.136,-0.033 0.198,-0.017 0.198,0.052c0,0.034 -0.017,0.113 -0.051,0.249l-1.345,3.188l-9.617,4.304c-0.125,0.012 -0.198,0.012 -0.232,0C48.672,58.37 48.672,58.268 48.717,58.12z" id="path_4"/><path fill="#000001" d="M40.974,25.694c0.314,0.541 0.681,2.084 1.098,4.63c-0.256,1.543 -0.929,2.312 -2.019,2.312h-0.146c-0.476,0 -1.091,-0.308 -1.866,-0.922c-0.526,0.929 -1.302,1.397 -2.312,1.397c-1.229,0 -1.844,-1.493 -1.844,-4.478c0.359,-1.134 0.666,-1.697 0.922,-1.697l0.146,0.154v2.634c0.213,0.914 0.476,1.368 0.775,1.368h0.622c0.644,0 1.054,-0.256 1.244,-0.768l-0.322,-2.312c0.124,-0.775 0.336,-1.185 0.622,-1.222h0.321c0.322,2.567 0.842,3.855 1.536,3.855h1.075v-0.153l-0.468,-3.08v-0.175C40.483,26.206 40.688,25.694 40.974,25.694z" id="path_5"/><path fill="#000001" d="M33.24,24.572l0.872,-2.598l8.465,-3.719c0.115,-0.029 0.168,-0.015 0.168,0.043c0,0.029 -0.015,0.096 -0.043,0.211l-1.137,2.694l-8.129,3.638c-0.105,0.009 -0.168,0.009 -0.196,0C33.202,24.783 33.202,24.696 33.24,24.572z" id="path_6"/><path fill="#000001" d="M33.24,20.885l0.872,-2.598l8.465,-3.72c0.115,-0.029 0.168,-0.014 0.168,0.043c0,0.029 -0.015,0.096 -0.043,0.211l-1.137,2.693l-8.129,3.638c-0.105,0.01 -0.168,0.01 -0.196,0C33.202,21.096 33.202,21.01 33.24,20.885z" id="path_7"/></svg>