<svg id="vector" xmlns="http://www.w3.org/2000/svg" width="75" height="67" viewBox="0 0 83 73"><path fill="#213e95" d="M60.164,43.665c-0.034,1.089 -0.21,2.059 -0.533,2.926c-0.346,0.573 -0.601,0.874 -0.766,0.896c-0.187,0 -0.272,-0.312 -0.25,-0.93c-0.289,-6.215 -0.646,-10.559 -1.077,-13.032c-0.232,-2.217 -0.55,-4.032 -0.947,-5.438c-0.147,-0.55 -0.227,-1.061 -0.25,-1.525c-0.034,-0.868 0.091,-1.866 0.38,-2.995l0.765,-2.892c0.103,-0.091 0.21,-0.136 0.335,-0.136c0.13,0 0.221,0.192 0.261,0.584c0.057,0.505 0.125,0.816 0.21,0.93c0.085,0.108 0.38,0.998 0.89,2.671c0.329,1.1 0.743,1.962 1.231,2.592c0.028,0.221 0.051,0.431 0.062,0.635c0,0.408 -0.119,0.981 -0.357,1.724c-0.238,0.743 -0.403,1.253 -0.505,1.531l-0.131,0.499L60.164,43.665z" id="path_0"/><path fill="#000001" d="M31.814,23.81l-0.681,0.051l-0.102,-0.164c2.296,-1.219 4.072,-2.365 5.336,-3.442c-0.431,-0.153 -0.72,-0.312 -0.868,-0.482c-0.43,-0.295 -0.646,-0.8 -0.646,-1.509c-0.035,-1.452 0.482,-2.529 1.548,-3.238c0.34,-0.289 0.907,-0.357 1.695,-0.204c0.811,0.448 1.213,0.981 1.213,1.616c0.221,2.382 -1.333,4.514 -4.656,6.408C33.606,23.322 32.659,23.646 31.814,23.81L31.814,23.81zM37.972,18.462c0.318,-0.119 0.482,-0.334 0.482,-0.629c0,-0.5 -0.227,-0.868 -0.681,-1.101c-0.447,-0.175 -0.935,-0.181 -1.463,-0.017c-0.368,0.267 -0.561,0.505 -0.584,0.715c-0.034,0.255 0.136,0.59 0.499,0.998c0.335,0.136 0.601,0.199 0.8,0.199C37.281,18.694 37.593,18.638 37.972,18.462z" id="path_1"/><path fill="#000001" d="M32.371,55.865V55.7c0.556,-0.777 1.35,-1.832 2.393,-3.176h0.113c0.845,0.907 1.9,1.73 3.176,2.461c0.034,0.034 0.051,0.074 0.051,0.13l-2.308,3.125c-0.023,0.011 -0.063,0.017 -0.119,0.017c-0.068,0 -0.182,-0.028 -0.346,-0.085C34.532,57.81 33.545,57.039 32.371,55.865z" id="path_2"/><path fill="#000001" d="M50.194,45.969c-1.786,1.14 -4.094,2.064 -6.93,2.773c-4.321,0.976 -7.984,1.452 -10.99,1.435c-3.005,-0.017 -5.342,-0.307 -7.004,-0.874c-1.661,-0.562 -3.119,-1.542 -4.366,-2.938c-1.078,-1.23 -1.707,-2.66 -1.894,-4.287c-0.244,-2.291 0.312,-4.764 1.679,-7.412c0.142,-0.13 0.283,-0.29 0.431,-0.471c0.142,-0.181 0.307,-0.261 0.482,-0.227l-0.017,0.403c-0.754,1.616 -1.163,3.056 -1.231,4.315c-0.034,0.443 -0.034,0.749 0,0.913c0.465,2.127 2.076,3.624 4.837,4.492c1.548,0.527 3.17,0.856 4.865,0.975c0.267,0.011 0.681,0.045 1.248,0.102c3.464,0.012 7.667,-0.396 12.606,-1.23c2.858,-0.533 4.894,-1.253 6.102,-2.161c-0.079,-0.363 -0.351,-0.777 -0.816,-1.236c-0.465,-0.459 -0.749,-0.873 -0.845,-1.236c-0.068,-1.463 0.017,-2.96 0.25,-4.485l0.198,-0.017c1.537,1.735 2.393,3.584 2.558,5.529C51.556,42.606 51.17,44.483 50.194,45.969z" id="path_3"/><path fill="#213e95" d="M52.8,56.07l1.032,-3.073l10.015,-4.4c0.136,-0.034 0.199,-0.017 0.199,0.051c0,0.034 -0.017,0.113 -0.051,0.25l-1.344,3.187l-9.617,4.304c-0.125,0.011 -0.199,0.011 -0.232,0C52.755,56.32 52.755,56.218 52.8,56.07z" id="path_4"/><path fill="#000001" d="M38.177,25.389c0.314,0.541 0.68,2.085 1.097,4.63c-0.256,1.544 -0.929,2.312 -2.019,2.312h-0.146c-0.476,0 -1.09,-0.308 -1.866,-0.922c-0.526,0.929 -1.302,1.397 -2.312,1.397c-1.229,0 -1.844,-1.492 -1.844,-4.477c0.359,-1.134 0.666,-1.697 0.922,-1.697l0.146,0.153v2.634c0.212,0.914 0.476,1.368 0.775,1.368h0.622c0.644,0 1.054,-0.256 1.244,-0.768l-0.322,-2.312c0.125,-0.775 0.336,-1.185 0.622,-1.222h0.321c0.322,2.568 0.842,3.855 1.537,3.855h1.075v-0.153l-0.468,-3.08v-0.175C37.687,25.9 37.892,25.389 38.177,25.389z" id="path_5"/></svg>