<svg id="vector" xmlns="http://www.w3.org/2000/svg" width="75" height="67" viewBox="0 0 83 73"><path fill="#213e95" d="M56.504,53.559c-0.033,1.089 -0.21,2.058 -0.533,2.926c-0.346,0.573 -0.601,0.873 -0.766,0.896c-0.187,0 -0.271,-0.313 -0.249,-0.931c-0.289,-6.215 -0.646,-10.559 -1.077,-13.031c-0.232,-2.218 -0.551,-4.031 -0.947,-5.438c-0.147,-0.55 -0.227,-1.061 -0.25,-1.525c-0.034,-0.867 0.091,-1.865 0.38,-2.994l0.766,-2.892c0.103,-0.091 0.21,-0.137 0.335,-0.137c0.131,0 0.222,0.193 0.261,0.584c0.057,0.505 0.125,0.816 0.21,0.931c0.085,0.107 0.38,0.998 0.89,2.671c0.329,1.1 0.743,1.962 1.231,2.592c0.028,0.221 0.051,0.431 0.063,0.635c0,0.408 -0.12,0.98 -0.357,1.724c-0.238,0.743 -0.403,1.254 -0.505,1.531l-0.131,0.499L56.504,53.559z" id="path_0"/><path fill="#213e95" d="M49.109,23.997l1.032,-3.074l10.015,-4.4c0.137,-0.034 0.198,-0.017 0.198,0.051c0,0.034 -0.017,0.113 -0.051,0.25l-1.345,3.187l-9.617,4.305c-0.125,0.011 -0.198,0.011 -0.232,0C49.064,24.246 49.064,24.145 49.109,23.997z" id="path_1"/><path fill="#DD2C00" d="M34.518,21.196c0.314,0.541 0.681,2.084 1.098,4.63c-0.257,1.544 -0.93,2.313 -2.02,2.313h-0.146c-0.476,0 -1.09,-0.308 -1.865,-0.922c-0.526,0.929 -1.302,1.396 -2.312,1.396c-1.229,0 -1.844,-1.492 -1.844,-4.477c0.358,-1.134 0.666,-1.697 0.922,-1.697l0.146,0.153v2.634c0.212,0.914 0.476,1.368 0.775,1.368h0.621c0.645,0 1.054,-0.256 1.244,-0.769l-0.322,-2.312c0.125,-0.775 0.337,-1.185 0.622,-1.222h0.322c0.321,2.567 0.841,3.855 1.536,3.855h1.075v-0.153l-0.468,-3.08v-0.176C34.027,21.708 34.232,21.196 34.518,21.196z" id="path_2"/><path fill="#DD2C00" d="M25.916,19.813l1.032,-3.073l10.015,-4.401c0.136,-0.033 0.198,-0.017 0.198,0.052c0,0.034 -0.017,0.113 -0.051,0.249l-1.345,3.188l-9.617,4.304c-0.124,0.012 -0.198,0.012 -0.232,0C25.871,20.063 25.871,19.961 25.916,19.813z" id="path_3"/><path fill="#DD2C00" d="M32.02,42.685h0.303c0.729,0 1.787,0.703 3.175,2.116v0.148c0,0.657 -0.601,1.664 -1.813,3.025c-2.115,-0.555 -3.174,-1.31 -3.174,-2.271C30.813,44.62 31.316,43.613 32.02,42.685z" id="path_4"/><path fill="#DD2C00" d="M40.032,30.434l0.154,0.154v0.148c-0.528,2.723 -1.689,4.084 -3.477,4.084c-2.245,0 -4.762,1.006 -7.562,3.025c-3.123,2.619 -4.69,5.594 -4.69,8.916c0,4.517 2.574,7.639 7.716,9.374l5.291,0.458l8.471,-0.606h1.657l0.155,0.148v0.155c0,0.58 -1.561,1.438 -4.69,2.567c-1.271,0.555 -3.89,1.161 -7.864,1.819c-5.161,0 -8.438,-1.316 -9.825,-3.936c-1.613,-2.368 -2.42,-5.142 -2.42,-8.315c0,-5.168 2.116,-9.601 6.349,-13.304h-3.322c-0.807,0 -1.813,0.703 -3.026,2.116l-0.303,-0.303v-0.304c1.006,-3.832 2.574,-5.748 4.689,-5.748C27.735,30.988 31.968,30.84 40.032,30.434z" id="path_5"/></svg>