<svg id="vector" xmlns="http://www.w3.org/2000/svg" width="75" height="67" viewBox="0 0 83 73"><path fill="#000001" d="M57.174,54.198c-0.035,1.089 -0.209,2.059 -0.533,2.926c-0.346,0.573 -0.602,0.873 -0.766,0.896c-0.188,0 -0.271,-0.313 -0.25,-0.931c-0.289,-6.215 -0.646,-10.559 -1.076,-13.031c-0.232,-2.217 -0.551,-4.032 -0.947,-5.438c-0.148,-0.551 -0.227,-1.062 -0.25,-1.526c-0.035,-0.867 0.09,-1.865 0.381,-2.994l0.764,-2.892c0.104,-0.091 0.211,-0.137 0.336,-0.137c0.131,0 0.221,0.193 0.26,0.584c0.057,0.505 0.125,0.817 0.211,0.931c0.084,0.107 0.379,0.998 0.891,2.671c0.328,1.1 0.742,1.962 1.23,2.592c0.027,0.221 0.051,0.431 0.063,0.635c0,0.408 -0.119,0.981 -0.357,1.724c-0.238,0.743 -0.404,1.254 -0.506,1.531l-0.131,0.499L57.174,54.198z" id="path_0"/><path fill="#DD2C00" d="M28.824,21.064l-0.682,0.051l-0.102,-0.164c2.297,-1.22 4.072,-2.365 5.336,-3.442c-0.43,-0.153 -0.719,-0.313 -0.867,-0.482c-0.432,-0.294 -0.646,-0.8 -0.646,-1.508c-0.035,-1.452 0.482,-2.529 1.549,-3.238c0.34,-0.289 0.906,-0.357 1.695,-0.204c0.811,0.448 1.213,0.98 1.213,1.616c0.221,2.382 -1.332,4.514 -4.656,6.408C30.615,20.576 29.668,20.899 28.824,21.064L28.824,21.064zM34.982,15.717c0.316,-0.119 0.482,-0.334 0.482,-0.63c0,-0.499 -0.227,-0.867 -0.682,-1.101c-0.447,-0.175 -0.936,-0.181 -1.463,-0.017c-0.369,0.267 -0.561,0.505 -0.584,0.715c-0.033,0.255 0.137,0.59 0.5,0.998c0.334,0.136 0.6,0.198 0.799,0.198C34.291,15.949 34.602,15.893 34.982,15.717z" id="path_1"/><path fill="#000001" d="M49.811,24.321l1.031,-3.073l10.016,-4.4c0.135,-0.034 0.197,-0.018 0.197,0.051c0,0.034 -0.016,0.113 -0.051,0.25l-1.344,3.187l-9.617,4.304c-0.125,0.012 -0.199,0.012 -0.232,0C49.766,24.571 49.766,24.469 49.811,24.321z" id="path_2"/><path fill="#DD2C00" d="M35.188,21.521c0.314,0.541 0.68,2.085 1.098,4.631c-0.258,1.544 -0.93,2.312 -2.02,2.312h-0.146c-0.477,0 -1.09,-0.307 -1.865,-0.922c-0.527,0.93 -1.303,1.397 -2.313,1.397c-1.229,0 -1.844,-1.492 -1.844,-4.478c0.359,-1.134 0.666,-1.696 0.922,-1.696l0.146,0.153v2.634c0.213,0.914 0.477,1.367 0.775,1.367h0.623c0.643,0 1.053,-0.256 1.242,-0.768l-0.32,-2.312c0.123,-0.775 0.336,-1.186 0.621,-1.222h0.322c0.322,2.567 0.84,3.854 1.535,3.854h1.076v-0.153l-0.469,-3.08v-0.175C34.697,22.033 34.902,21.521 35.188,21.521z" id="path_3"/><path fill="#DD2C00" d="M31.318,43.01h0.303c0.729,0 1.787,0.703 3.174,2.115v0.148c0,0.658 -0.6,1.665 -1.813,3.026c-2.115,-0.555 -3.174,-1.31 -3.174,-2.271C30.111,44.945 30.615,43.938 31.318,43.01z" id="path_4"/><path fill="#DD2C00" d="M39.332,30.758l0.154,0.155v0.148c-0.529,2.723 -1.691,4.083 -3.479,4.083c-2.244,0 -4.76,1.007 -7.561,3.026c-3.123,2.619 -4.689,5.594 -4.689,8.916c0,4.516 2.574,7.639 7.715,9.374l5.291,0.458l8.471,-0.606h1.658l0.154,0.148v0.154c0,0.581 -1.561,1.439 -4.689,2.568c-1.271,0.555 -3.891,1.161 -7.865,1.819c-5.16,0 -8.438,-1.316 -9.826,-3.936c-1.611,-2.368 -2.418,-5.142 -2.418,-8.316c0,-5.167 2.115,-9.6 6.348,-13.303h-3.322c-0.807,0 -1.813,0.703 -3.025,2.116l-0.303,-0.304v-0.303c1.006,-3.832 2.572,-5.748 4.689,-5.748C27.035,31.313 31.268,31.164 39.332,30.758z" id="path_5"/></svg>