<svg id="vector" xmlns="http://www.w3.org/2000/svg" width="75" height="67" viewBox="0 0 83 73"><path fill="#213e95" d="M56.187,47.106c-0.035,1.089 -0.211,2.059 -0.533,2.927c-0.346,0.573 -0.602,0.873 -0.766,0.896c-0.188,0 -0.273,-0.312 -0.25,-0.93c-0.289,-6.215 -0.646,-10.559 -1.078,-13.031c-0.232,-2.218 -0.549,-4.032 -0.947,-5.438c-0.146,-0.55 -0.227,-1.061 -0.248,-1.525c-0.035,-0.868 0.09,-1.866 0.379,-2.994l0.766,-2.892c0.102,-0.092 0.209,-0.137 0.334,-0.137c0.131,0 0.223,0.192 0.262,0.584c0.057,0.505 0.125,0.816 0.209,0.93c0.086,0.108 0.381,0.998 0.891,2.671c0.33,1.101 0.744,1.963 1.23,2.592c0.029,0.222 0.051,0.432 0.063,0.636c0,0.408 -0.119,0.98 -0.357,1.724c-0.238,0.742 -0.402,1.253 -0.504,1.531l-0.131,0.499L56.187,47.106z" id="path_0"/><path fill="#213e95" d="M48.821,61.057l1.033,-3.073l10.014,-4.4c0.137,-0.034 0.199,-0.017 0.199,0.051c0,0.034 -0.018,0.113 -0.051,0.25l-1.346,3.187l-9.617,4.304c-0.125,0.012 -0.197,0.012 -0.232,0C48.776,61.307 48.776,61.204 48.821,61.057z" id="path_1"/><path fill="#000001" d="M31.093,54.756c4.092,0.04 6.379,-0.727 6.879,-2.307c0,-0.546 -0.52,-1.899 -1.566,-4.06l0.473,-4.061h0.307c1.361,2.341 2.033,4.688 2.033,7.027v1.406c0,0.94 -0.227,1.927 -0.672,2.96c-0.447,1.033 -1.141,1.907 -2.068,2.606c-0.932,0.707 -2.727,1 -5.385,0.88V54.756z" id="path_2"/><path fill="#000001" d="M31.425,59.209c-3.033,0.181 -5.24,-1.22 -6.619,-4.199c-0.668,-1.107 -1.287,-8.567 -1.873,-22.38v-0.313c0.385,-2.294 0.959,-3.44 1.713,-3.44l0.787,-0.153c0.959,0 2.42,0.313 4.373,0.934v0.313c-0.107,0.313 -0.42,0.474 -0.941,0.474h-2.652c-0.547,0 -1.066,0.307 -1.566,0.933c0.486,11.993 1.193,18.94 2.133,20.84c0.934,1.9 2.486,2.747 4.646,2.54V59.209z" id="path_3"/><path fill="#DD2C00" d="M38.468,22.759c0.314,0.541 0.68,2.085 1.098,4.631c-0.258,1.543 -0.93,2.312 -2.02,2.312h-0.146c-0.477,0 -1.09,-0.308 -1.865,-0.922c-0.527,0.929 -1.303,1.397 -2.313,1.397c-1.229,0 -1.844,-1.492 -1.844,-4.478c0.359,-1.134 0.666,-1.697 0.922,-1.697l0.146,0.154v2.634c0.213,0.914 0.477,1.367 0.775,1.367h0.621c0.645,0 1.055,-0.256 1.244,-0.768l-0.322,-2.312c0.125,-0.776 0.338,-1.186 0.623,-1.222h0.322c0.32,2.567 0.84,3.854 1.535,3.854h1.076v-0.153l-0.469,-3.08v-0.176C37.978,23.271 38.183,22.759 38.468,22.759z" id="path_4"/><path fill="#DD2C00" d="M30.733,21.636l0.873,-2.598l8.463,-3.719c0.117,-0.029 0.17,-0.015 0.17,0.043c0,0.028 -0.016,0.096 -0.045,0.211l-1.135,2.693l-8.131,3.638c-0.105,0.01 -0.166,0.01 -0.195,0C30.694,21.847 30.694,21.761 30.733,21.636z" id="path_5"/><path fill="#DD2C00" d="M30.733,17.949l0.873,-2.598l8.463,-3.72c0.117,-0.028 0.17,-0.014 0.17,0.043c0,0.029 -0.016,0.097 -0.045,0.211L39.06,14.58l-8.131,3.638c-0.105,0.01 -0.166,0.01 -0.195,0C30.694,18.16 30.694,18.074 30.733,17.949z" id="path_6"/><path fill="#DD2C00" d="M28.14,40.32v-0.164c0.555,-0.777 1.35,-1.832 2.393,-3.176h0.113c0.846,0.907 1.9,1.729 3.176,2.461c0.033,0.034 0.051,0.074 0.051,0.13l-2.309,3.125c-0.021,0.012 -0.063,0.018 -0.119,0.018c-0.066,0 -0.182,-0.028 -0.346,-0.086C30.3,42.265 29.313,41.494 28.14,40.32z" id="path_7"/><path fill="#DD2C00" d="M33.104,40.32v-0.164c0.557,-0.777 1.352,-1.832 2.395,-3.176h0.113c0.844,0.907 1.898,1.729 3.176,2.461c0.033,0.034 0.051,0.074 0.051,0.13l-2.309,3.125c-0.023,0.012 -0.063,0.018 -0.119,0.018c-0.068,0 -0.182,-0.028 -0.346,-0.086C35.267,42.265 34.278,41.494 33.104,40.32z" id="path_8"/><path fill="#DD2C00" d="M30.622,36.048v-0.164c0.557,-0.777 1.35,-1.832 2.393,-3.176h0.113c0.846,0.907 1.9,1.729 3.176,2.461c0.035,0.034 0.051,0.074 0.051,0.131l-2.307,3.124c-0.023,0.012 -0.063,0.018 -0.119,0.018c-0.068,0 -0.182,-0.028 -0.346,-0.085C32.782,37.993 31.796,37.223 30.622,36.048z" id="path_9"/></svg>