<svg id="vector" xmlns="http://www.w3.org/2000/svg" width="75" height="67" viewBox="0 0 83 73"><path fill="#000001" d="M60.179,49.873c-0.033,1.089 -0.209,2.059 -0.533,2.927c-0.346,0.573 -0.601,0.873 -0.766,0.896c-0.187,0 -0.271,-0.312 -0.249,-0.93c-0.289,-6.215 -0.646,-10.559 -1.077,-13.032c-0.232,-2.217 -0.551,-4.032 -0.947,-5.438c-0.147,-0.55 -0.227,-1.061 -0.25,-1.525c-0.033,-0.868 0.092,-1.866 0.381,-2.995l0.766,-2.892c0.102,-0.091 0.209,-0.136 0.334,-0.136c0.131,0 0.222,0.192 0.261,0.584c0.058,0.504 0.125,0.816 0.21,0.93c0.086,0.107 0.38,0.998 0.891,2.671c0.329,1.1 0.742,1.962 1.23,2.591c0.028,0.221 0.051,0.431 0.063,0.635c0,0.408 -0.119,0.981 -0.357,1.724c-0.238,0.743 -0.402,1.253 -0.505,1.531l-0.13,0.499L60.179,49.873z" id="path_0"/><path fill="#000001" d="M52.784,24.365l1.032,-3.074l10.015,-4.4c0.137,-0.034 0.199,-0.017 0.199,0.051c0,0.034 -0.018,0.113 -0.052,0.25l-1.345,3.187l-9.617,4.304c-0.125,0.011 -0.197,0.011 -0.232,0C52.739,24.614 52.739,24.512 52.784,24.365z" id="path_1"/><path fill="#213e95" d="M32.387,53.733v-0.165c0.556,-0.777 1.35,-1.832 2.394,-3.176h0.113c0.845,0.907 1.898,1.73 3.176,2.461c0.033,0.034 0.051,0.074 0.051,0.13l-2.309,3.125c-0.022,0.011 -0.063,0.017 -0.119,0.017c-0.067,0 -0.182,-0.028 -0.346,-0.085C34.547,55.678 33.561,54.907 32.387,53.733z" id="path_2"/><path fill="#213e95" d="M50.21,43.838c-1.786,1.14 -4.094,2.064 -6.93,2.773c-4.321,0.976 -7.984,1.451 -10.99,1.435c-3.006,-0.017 -5.342,-0.306 -7.004,-0.873c-1.661,-0.562 -3.118,-1.543 -4.366,-2.938c-1.077,-1.231 -1.706,-2.66 -1.894,-4.288c-0.244,-2.291 0.312,-4.763 1.678,-7.412c0.143,-0.13 0.284,-0.289 0.432,-0.471c0.142,-0.181 0.307,-0.261 0.482,-0.227l-0.018,0.402c-0.754,1.616 -1.162,3.057 -1.23,4.316c-0.034,0.442 -0.034,0.749 0,0.913c0.465,2.126 2.076,3.624 4.837,4.491c1.548,0.528 3.171,0.856 4.866,0.976c0.266,0.011 0.68,0.045 1.247,0.102c3.465,0.012 7.667,-0.396 12.606,-1.23c2.857,-0.533 4.895,-1.253 6.102,-2.161c-0.08,-0.363 -0.352,-0.777 -0.816,-1.236s-0.748,-0.873 -0.846,-1.236c-0.067,-1.463 0.018,-2.96 0.25,-4.486l0.199,-0.017c1.537,1.735 2.393,3.584 2.557,5.529C51.571,40.475 51.186,42.352 50.21,43.838z" id="path_3"/><path fill="#213e95" d="M38.192,27.111c0.314,0.541 0.681,2.085 1.098,4.63c-0.256,1.544 -0.93,2.312 -2.02,2.312h-0.146c-0.475,0 -1.09,-0.308 -1.865,-0.922c-0.526,0.929 -1.302,1.397 -2.311,1.397c-1.23,0 -1.844,-1.492 -1.844,-4.477c0.357,-1.134 0.665,-1.697 0.921,-1.697l0.146,0.153v2.634c0.212,0.914 0.476,1.368 0.776,1.368h0.621c0.644,0 1.053,-0.256 1.244,-0.768l-0.322,-2.312c0.124,-0.775 0.336,-1.185 0.621,-1.222h0.322c0.322,2.568 0.842,3.855 1.536,3.855h1.075V31.91l-0.468,-3.08v-0.175C37.702,27.623 37.907,27.111 38.192,27.111z" id="path_4"/><path fill="#213e95" d="M35.212,17.632c0.208,-0.102 0.305,-0.033 0.296,0.203c-1.044,1.156 -1.867,2.251 -2.464,3.292c-0.171,0.407 -0.268,0.74 -0.291,1.008s0.047,0.555 0.213,0.859h0.203c0.078,-0.453 0.24,-0.679 0.486,-0.679c0.291,0.129 0.453,0.259 0.484,0.393v0.19c0.019,1.031 -0.272,1.65 -0.878,1.858h-0.485c-0.652,-0.129 -0.976,-0.878 -0.976,-2.251C31.801,20.835 32.938,19.212 35.212,17.632L35.212,17.632zM37.353,19.393c-1.392,0 -2.297,1.003 -2.723,3.019c0,0.786 0.355,1.405 1.068,1.854v0.097c-2.645,1.252 -4.008,1.974 -4.087,2.154c-0.037,0.009 -0.042,0.033 -0.009,0.065c0.031,0.037 0.073,0.065 0.129,0.083c0.056,0.019 0.106,0.033 0.162,0.042c1.516,0 3.213,-0.587 5.08,-1.761c1.072,-0.559 1.688,-1.761 1.84,-3.601v-0.3C38.67,19.943 38.181,19.393 37.353,19.393L37.353,19.393zM35.605,21.436c0,-0.144 0.259,-0.277 0.771,-0.393c0.976,0 1.461,0.457 1.461,1.368c-0.042,0.199 -0.235,0.295 -0.583,0.295h-0.281c-0.91,-0.116 -1.368,-0.508 -1.368,-1.179V21.436z" id="path_5"/></svg>