<svg id="vector" xmlns="http://www.w3.org/2000/svg" width="75" height="67" viewBox="0 0 83 73"><path fill="#213e95" d="M60.18,47.991c-0.034,1.089 -0.21,2.059 -0.533,2.926c-0.346,0.573 -0.602,0.873 -0.766,0.896c-0.187,0 -0.272,-0.313 -0.249,-0.931c-0.289,-6.215 -0.646,-10.559 -1.078,-13.031c-0.232,-2.217 -0.55,-4.031 -0.946,-5.438c-0.147,-0.551 -0.228,-1.062 -0.25,-1.526c-0.034,-0.867 0.091,-1.865 0.38,-2.994l0.766,-2.892c0.103,-0.091 0.21,-0.137 0.335,-0.137c0.13,0 0.221,0.193 0.261,0.585c0.057,0.504 0.124,0.816 0.21,0.93c0.085,0.107 0.38,0.998 0.89,2.671c0.329,1.1 0.743,1.962 1.23,2.592c0.029,0.221 0.052,0.431 0.063,0.635c0,0.408 -0.119,0.981 -0.356,1.724c-0.239,0.743 -0.403,1.254 -0.505,1.531l-0.131,0.499L60.18,47.991z" id="path_0"/><path fill="#213e95" d="M52.785,18.43l1.031,-3.073l10.016,-4.401c0.136,-0.034 0.198,-0.017 0.198,0.052c0,0.033 -0.017,0.113 -0.051,0.249l-1.345,3.187l-9.617,4.305c-0.125,0.012 -0.198,0.012 -0.232,0C52.739,18.679 52.739,18.577 52.785,18.43z" id="path_1"/><path fill="#DD2C00" d="M50.21,50.295c-1.786,1.14 -4.094,2.064 -6.93,2.772c-4.321,0.977 -7.984,1.452 -10.989,1.436c-3.006,-0.018 -5.343,-0.307 -7.004,-0.874c-1.661,-0.562 -3.119,-1.542 -4.366,-2.938c-1.077,-1.23 -1.707,-2.659 -1.895,-4.287c-0.244,-2.291 0.313,-4.763 1.679,-7.411c0.142,-0.131 0.284,-0.289 0.431,-0.471c0.143,-0.182 0.307,-0.261 0.482,-0.227l-0.017,0.402c-0.755,1.616 -1.163,3.057 -1.231,4.315c-0.034,0.442 -0.034,0.748 0,0.913c0.466,2.126 2.076,3.623 4.838,4.491c1.548,0.527 3.17,0.856 4.865,0.976c0.267,0.011 0.681,0.045 1.247,0.102c3.465,0.012 7.668,-0.396 12.606,-1.23c2.858,-0.533 4.895,-1.253 6.103,-2.161c-0.08,-0.362 -0.352,-0.776 -0.817,-1.235c-0.465,-0.46 -0.748,-0.873 -0.845,-1.236c-0.067,-1.463 0.018,-2.961 0.249,-4.485l0.199,-0.018c1.537,1.735 2.393,3.584 2.558,5.529C51.571,46.933 51.186,48.809 50.21,50.295z" id="path_2"/><path fill="#DD2C00" d="M38.193,22.829c0.314,0.541 0.68,2.085 1.097,4.631c-0.256,1.543 -0.929,2.312 -2.019,2.312h-0.146c-0.476,0 -1.09,-0.308 -1.865,-0.922c-0.527,0.929 -1.303,1.397 -2.312,1.397c-1.229,0 -1.844,-1.492 -1.844,-4.478c0.358,-1.134 0.666,-1.697 0.922,-1.697l0.146,0.153v2.634c0.212,0.915 0.476,1.368 0.775,1.368h0.621c0.644,0 1.054,-0.256 1.244,-0.768l-0.322,-2.312c0.125,-0.776 0.337,-1.186 0.622,-1.223h0.321c0.322,2.568 0.842,3.855 1.537,3.855h1.075v-0.153l-0.469,-3.08v-0.176C37.703,23.341 37.907,22.829 38.193,22.829z" id="path_3"/><path fill="#DD2C00" d="M30.333,61.736l1.032,-3.074l10.015,-4.4c0.137,-0.034 0.198,-0.017 0.198,0.051c0,0.034 -0.017,0.113 -0.051,0.25l-1.345,3.187l-9.617,4.305c-0.124,0.011 -0.198,0.011 -0.232,0C30.288,61.985 30.288,61.883 30.333,61.736z" id="path_4"/><path fill="#DD2C00" d="M29.848,40.157v-0.164c0.556,-0.777 1.35,-1.832 2.393,-3.176h0.113c0.846,0.907 1.9,1.729 3.176,2.461c0.034,0.034 0.052,0.074 0.052,0.131l-2.309,3.124c-0.022,0.012 -0.063,0.018 -0.119,0.018c-0.067,0 -0.182,-0.028 -0.346,-0.085C32.008,42.103 31.021,41.332 29.848,40.157z" id="path_5"/><path fill="#DD2C00" d="M34.813,40.157v-0.164c0.556,-0.777 1.35,-1.832 2.394,-3.176h0.113c0.845,0.907 1.899,1.729 3.176,2.461c0.034,0.034 0.051,0.074 0.051,0.131l-2.308,3.124c-0.023,0.012 -0.063,0.018 -0.119,0.018c-0.068,0 -0.182,-0.028 -0.347,-0.085C36.975,42.103 35.987,41.332 34.813,40.157z" id="path_6"/><path fill="#DD2C00" d="M32.33,34.917v-0.164c0.557,-0.777 1.351,-1.832 2.394,-3.176h0.113c0.846,0.907 1.899,1.729 3.176,2.461c0.034,0.034 0.051,0.074 0.051,0.131l-2.308,3.124c-0.022,0.012 -0.063,0.018 -0.119,0.018c-0.068,0 -0.182,-0.028 -0.346,-0.085C34.491,36.862 33.504,36.092 32.33,34.917z" id="path_7"/></svg>