<svg id="vector" xmlns="http://www.w3.org/2000/svg" width="75" height="67" viewBox="0 0 83 73"><path fill="#DD2C00" d="M57.283,45.954c-0.034,1.089 -0.21,2.059 -0.533,2.927c-0.346,0.572 -0.602,0.873 -0.766,0.896c-0.188,0 -0.272,-0.312 -0.249,-0.93c-0.289,-6.216 -0.646,-10.56 -1.078,-13.032c-0.232,-2.217 -0.55,-4.031 -0.947,-5.438c-0.146,-0.55 -0.227,-1.061 -0.249,-1.525c-0.034,-0.868 0.091,-1.866 0.38,-2.995l0.766,-2.892c0.103,-0.091 0.21,-0.136 0.335,-0.136c0.13,0 0.221,0.192 0.261,0.584c0.057,0.505 0.124,0.816 0.21,0.93c0.085,0.108 0.38,0.998 0.89,2.671c0.329,1.101 0.743,1.962 1.231,2.592c0.028,0.222 0.051,0.431 0.062,0.635c0,0.408 -0.119,0.981 -0.356,1.724c-0.238,0.743 -0.403,1.254 -0.505,1.532l-0.131,0.498L57.283,45.954z" id="path_0"/><path fill="#213e95" d="M35.297,10.045c0.314,0.541 0.68,2.084 1.097,4.63c-0.256,1.544 -0.929,2.313 -2.019,2.313h-0.146c-0.476,0 -1.09,-0.308 -1.865,-0.922c-0.527,0.929 -1.303,1.396 -2.312,1.396c-1.229,0 -1.844,-1.492 -1.844,-4.477c0.358,-1.134 0.666,-1.697 0.922,-1.697l0.146,0.153v2.634c0.213,0.914 0.476,1.368 0.776,1.368h0.621c0.644,0 1.054,-0.256 1.244,-0.769l-0.322,-2.312c0.124,-0.775 0.337,-1.185 0.622,-1.222h0.321c0.322,2.568 0.842,3.855 1.537,3.855h1.075v-0.153l-0.469,-3.08v-0.176C34.807,10.557 35.011,10.045 35.297,10.045z" id="path_1"/><path fill="#213e95" d="M27.563,62.68l0.872,-2.598l8.465,-3.72c0.115,-0.028 0.168,-0.015 0.168,0.043c0,0.029 -0.015,0.096 -0.043,0.211l-1.137,2.694l-8.129,3.638c-0.105,0.01 -0.168,0.01 -0.196,0C27.524,62.891 27.524,62.805 27.563,62.68z" id="path_2"/><path fill="#213e95" d="M27.563,58.993l0.872,-2.599l8.465,-3.719c0.115,-0.029 0.168,-0.015 0.168,0.043c0,0.029 -0.015,0.096 -0.043,0.211l-1.137,2.693l-8.129,3.639c-0.105,0.01 -0.168,0.01 -0.196,0C27.524,59.204 27.524,59.117 27.563,58.993z" id="path_3"/><path fill="#DD2C00" d="M49.919,59.904l1.032,-3.073l10.015,-4.4c0.137,-0.034 0.199,-0.018 0.199,0.051c0,0.034 -0.018,0.113 -0.052,0.249l-1.344,3.188l-9.618,4.304c-0.124,0.012 -0.198,0.012 -0.232,0C49.874,60.154 49.874,60.052 49.919,59.904z" id="path_4"/><path fill="#213e95" d="M31.21,32.68h0.303c0.729,0 1.787,0.703 3.174,2.116v0.148c0,0.658 -0.6,1.665 -1.813,3.026c-2.116,-0.555 -3.174,-1.31 -3.174,-2.271C30.003,34.615 30.506,33.609 31.21,32.68z" id="path_5"/><path fill="#213e95" d="M39.223,20.429l0.154,0.155v0.148c-0.529,2.722 -1.69,4.083 -3.478,4.083c-2.245,0 -4.761,1.007 -7.561,3.026c-3.123,2.619 -4.69,5.593 -4.69,8.916c0,4.516 2.574,7.638 7.716,9.374l5.29,0.458l8.471,-0.606h1.658l0.155,0.148v0.154c0,0.581 -1.562,1.438 -4.69,2.567c-1.271,0.556 -3.891,1.162 -7.864,1.819c-5.161,0 -8.438,-1.315 -9.825,-3.935c-1.613,-2.368 -2.42,-5.143 -2.42,-8.316c0,-5.168 2.116,-9.6 6.349,-13.303h-3.323c-0.806,0 -1.813,0.703 -3.025,2.116l-0.304,-0.304v-0.303c1.007,-3.832 2.574,-5.749 4.69,-5.749C26.926,20.983 31.158,20.835 39.223,20.429z" id="path_6"/></svg>