<svg id="vector" xmlns="http://www.w3.org/2000/svg" width="75" height="67" viewBox="0 0 83 73"><path fill="#DD2C00" d="M60.908,51.796c-0.033,1.089 -0.21,2.059 -0.533,2.927c-0.346,0.572 -0.601,0.873 -0.766,0.896c-0.187,0 -0.271,-0.312 -0.249,-0.931c-0.289,-6.215 -0.646,-10.559 -1.077,-13.031c-0.232,-2.217 -0.551,-4.031 -0.947,-5.438c-0.147,-0.55 -0.227,-1.061 -0.25,-1.526c-0.034,-0.868 0.091,-1.866 0.38,-2.995l0.766,-2.892c0.103,-0.091 0.21,-0.136 0.335,-0.136c0.131,0 0.222,0.193 0.261,0.584c0.057,0.504 0.125,0.816 0.21,0.93c0.085,0.108 0.38,0.998 0.891,2.671c0.329,1.1 0.742,1.962 1.23,2.592c0.028,0.221 0.051,0.431 0.063,0.635c0,0.408 -0.119,0.981 -0.357,1.724s-0.402,1.253 -0.505,1.532l-0.131,0.498L60.908,51.796z" id="path_0"/><path fill="#213e95" d="M33.116,55.657v-0.164c0.556,-0.777 1.35,-1.832 2.393,-3.176h0.113c0.846,0.907 1.899,1.729 3.176,2.461c0.034,0.033 0.051,0.074 0.051,0.131l-2.308,3.124c-0.022,0.011 -0.063,0.017 -0.119,0.017c-0.067,0 -0.182,-0.027 -0.346,-0.084C35.276,57.602 34.29,56.831 33.116,55.657z" id="path_1"/><path fill="#213e95" d="M50.939,45.761c-1.786,1.14 -4.095,2.064 -6.93,2.772c-4.321,0.977 -7.984,1.452 -10.99,1.436c-3.006,-0.018 -5.342,-0.307 -7.004,-0.873c-1.661,-0.563 -3.118,-1.543 -4.366,-2.938c-1.077,-1.23 -1.707,-2.66 -1.894,-4.287c-0.244,-2.291 0.312,-4.764 1.678,-7.412c0.143,-0.131 0.284,-0.29 0.432,-0.471c0.142,-0.181 0.306,-0.261 0.481,-0.227l-0.017,0.403c-0.754,1.616 -1.163,3.056 -1.23,4.315c-0.034,0.442 -0.034,0.749 0,0.913c0.465,2.127 2.075,3.623 4.837,4.491c1.548,0.527 3.17,0.856 4.865,0.976c0.267,0.012 0.681,0.045 1.248,0.102c3.465,0.012 7.667,-0.396 12.606,-1.23c2.857,-0.533 4.894,-1.253 6.102,-2.16c-0.08,-0.363 -0.352,-0.777 -0.816,-1.236s-0.749,-0.873 -0.846,-1.236c-0.067,-1.463 0.018,-2.96 0.25,-4.485l0.198,-0.017c1.537,1.735 2.394,3.583 2.558,5.529C52.3,42.399 51.915,44.276 50.939,45.761z" id="path_2"/><path fill="#213e95" d="M38.922,29.034c0.314,0.542 0.681,2.085 1.098,4.631c-0.257,1.543 -0.93,2.312 -2.02,2.312h-0.146c-0.476,0 -1.09,-0.307 -1.865,-0.922c-0.526,0.929 -1.302,1.397 -2.312,1.397c-1.229,0 -1.844,-1.492 -1.844,-4.477c0.358,-1.134 0.666,-1.697 0.922,-1.697l0.146,0.154v2.634c0.212,0.914 0.476,1.368 0.775,1.368h0.622c0.644,0 1.053,-0.256 1.243,-0.768l-0.322,-2.312c0.125,-0.776 0.337,-1.186 0.622,-1.222h0.322c0.322,2.567 0.841,3.855 1.536,3.855h1.075v-0.154l-0.468,-3.08v-0.176C38.432,29.546 38.637,29.034 38.922,29.034z" id="path_3"/><path fill="#213e95" d="M35.941,19.555c0.208,-0.102 0.305,-0.033 0.296,0.203c-1.045,1.156 -1.867,2.251 -2.464,3.292c-0.171,0.407 -0.268,0.74 -0.291,1.008s0.046,0.555 0.213,0.86h0.203c0.078,-0.453 0.24,-0.679 0.485,-0.679c0.291,0.129 0.453,0.259 0.485,0.393v0.189c0.019,1.031 -0.272,1.65 -0.878,1.858h-0.485c-0.652,-0.129 -0.976,-0.878 -0.976,-2.251C32.53,22.759 33.667,21.136 35.941,19.555L35.941,19.555zM38.082,21.316c-1.392,0 -2.298,1.004 -2.723,3.019c0,0.786 0.355,1.405 1.067,1.854v0.097c-2.644,1.253 -4.008,1.974 -4.086,2.154c-0.037,0.009 -0.042,0.032 -0.01,0.064c0.032,0.037 0.074,0.065 0.13,0.083c0.056,0.019 0.106,0.033 0.161,0.042c1.517,0 3.213,-0.587 5.081,-1.761c1.072,-0.559 1.687,-1.761 1.84,-3.601v-0.3C39.399,21.867 38.909,21.316 38.082,21.316L38.082,21.316zM36.335,23.36c0,-0.144 0.259,-0.278 0.771,-0.393c0.976,0 1.461,0.458 1.461,1.368c-0.042,0.199 -0.236,0.296 -0.583,0.296h-0.281c-0.911,-0.116 -1.368,-0.508 -1.368,-1.179V23.36z" id="path_4"/><path fill="#DD2C00" d="M55.783,24.018l-0.681,0.051l-0.102,-0.164c2.296,-1.219 4.071,-2.365 5.336,-3.442c-0.432,-0.153 -0.721,-0.312 -0.868,-0.482c-0.431,-0.295 -0.646,-0.8 -0.646,-1.509c-0.034,-1.452 0.482,-2.529 1.549,-3.238c0.34,-0.289 0.907,-0.357 1.695,-0.204c0.811,0.448 1.213,0.981 1.213,1.616c0.222,2.382 -1.332,4.514 -4.655,6.408C57.575,23.53 56.628,23.854 55.783,24.018L55.783,24.018zM61.941,18.67c0.317,-0.119 0.482,-0.334 0.482,-0.629c0,-0.499 -0.228,-0.867 -0.681,-1.101c-0.448,-0.175 -0.936,-0.181 -1.463,-0.017c-0.369,0.267 -0.562,0.505 -0.584,0.715c-0.034,0.255 0.136,0.589 0.499,0.998c0.334,0.136 0.601,0.199 0.799,0.199C61.25,18.903 61.562,18.846 61.941,18.67z" id="path_5"/></svg>