<svg id="vector" xmlns="http://www.w3.org/2000/svg" width="75" height="67" viewBox="0 0 83 73"><path fill="#DD2C00" d="M56.187,48.023c-0.034,1.089 -0.21,2.059 -0.533,2.927c-0.346,0.572 -0.602,0.873 -0.766,0.896c-0.188,0 -0.272,-0.312 -0.25,-0.93c-0.289,-6.216 -0.646,-10.56 -1.077,-13.032c-0.232,-2.217 -0.55,-4.031 -0.947,-5.438c-0.147,-0.55 -0.227,-1.061 -0.249,-1.525c-0.034,-0.868 0.09,-1.866 0.38,-2.995l0.766,-2.892c0.102,-0.091 0.209,-0.136 0.334,-0.136c0.131,0 0.222,0.192 0.261,0.584c0.058,0.505 0.125,0.816 0.21,0.93c0.085,0.108 0.38,0.998 0.891,2.671c0.329,1.101 0.743,1.962 1.23,2.592c0.028,0.222 0.051,0.431 0.063,0.635c0,0.408 -0.119,0.981 -0.357,1.724c-0.238,0.743 -0.402,1.254 -0.505,1.532l-0.13,0.498L56.187,48.023z" id="path_0"/><path fill="#DD2C00" d="M48.822,61.974l1.032,-3.073l10.015,-4.4c0.136,-0.034 0.198,-0.018 0.198,0.051c0,0.034 -0.017,0.113 -0.051,0.249l-1.345,3.188l-9.617,4.304c-0.125,0.012 -0.198,0.012 -0.232,0C48.777,62.224 48.777,62.121 48.822,61.974z" id="path_1"/><path fill="#213e95" d="M39.21,21.841c0.314,0.541 0.681,2.085 1.098,4.631c-0.257,1.543 -0.93,2.312 -2.02,2.312h-0.146c-0.476,0 -1.09,-0.308 -1.865,-0.922c-0.526,0.93 -1.302,1.397 -2.312,1.397c-1.229,0 -1.844,-1.492 -1.844,-4.478c0.358,-1.134 0.666,-1.696 0.922,-1.696l0.146,0.153v2.634c0.212,0.914 0.476,1.367 0.775,1.367h0.622c0.644,0 1.054,-0.256 1.243,-0.768l-0.321,-2.312c0.124,-0.775 0.336,-1.186 0.621,-1.222h0.322c0.322,2.567 0.841,3.854 1.536,3.854h1.075V26.64l-0.468,-3.08v-0.175C38.72,22.353 38.925,21.841 39.21,21.841z" id="path_2"/><path fill="#213e95" d="M31.476,20.719l0.873,-2.599l8.465,-3.719c0.115,-0.029 0.168,-0.015 0.168,0.043c0,0.029 -0.015,0.096 -0.044,0.211l-1.136,2.693l-8.129,3.639c-0.105,0.01 -0.168,0.01 -0.197,0C31.438,20.93 31.438,20.843 31.476,20.719z" id="path_3"/><path fill="#213e95" d="M31.476,17.032l0.873,-2.599l8.465,-3.719c0.115,-0.029 0.168,-0.015 0.168,0.043c0,0.028 -0.015,0.096 -0.044,0.211l-1.136,2.693L31.673,17.3c-0.105,0.01 -0.168,0.01 -0.197,0C31.438,17.243 31.438,17.156 31.476,17.032z" id="path_4"/><path fill="#213e95" d="M38.096,53.533c1.987,0.994 2.981,1.849 2.981,2.558c-0.945,1.873 -1.515,2.818 -1.703,2.843H39.09c-1.455,-0.733 -2.357,-1.4 -2.697,-1.988C36.72,55.866 37.29,54.728 38.096,53.533z" id="path_5"/><path fill="#213e95" d="M30.351,49.77h1.636c1.728,-0.236 4.473,-0.878 8.236,-1.915v-0.146c-3.43,-1.515 -5.605,-2.272 -6.533,-2.272c-1.255,0 -2.103,0.709 -2.558,2.134l-0.424,0.284c-0.188,0 -0.285,-0.146 -0.285,-0.43c0.473,-2.837 1.752,-4.261 3.837,-4.261h0.709c0.878,0 3.86,0.994 8.951,2.981l3.836,0.285l0.279,0.431c-0.067,0.636 -0.637,1.866 -1.703,3.69h-0.425l-0.569,-0.146h-0.709c-7.388,2.182 -11.696,3.315 -12.927,3.412h-1.352V49.77z" id="path_6"/><path fill="#213e95" d="M30.653,53.818c-2.758,0.163 -4.764,-1.109 -6.019,-3.818c-0.605,-1.006 -1.169,-7.787 -1.702,-20.345V29.37c0.351,-2.085 0.872,-3.127 1.558,-3.127l0.715,-0.14c0.872,0 2.199,0.285 3.976,0.849v0.285c-0.097,0.284 -0.382,0.43 -0.854,0.43h-2.412c-0.497,0 -0.97,0.279 -1.424,0.849c0.441,10.903 1.084,17.218 1.938,18.945c0.849,1.728 2.261,2.497 4.225,2.309V53.818z" id="path_7"/></svg>