<svg id="vector" xmlns="http://www.w3.org/2000/svg" width="75" height="67" viewBox="0 0 83 73"><path fill="#DD2C00" d="M60.909,46.979c-0.034,1.089 -0.21,2.059 -0.533,2.926c-0.346,0.573 -0.602,0.874 -0.766,0.896c-0.187,0 -0.272,-0.312 -0.25,-0.931c-0.289,-6.215 -0.646,-10.559 -1.078,-13.031c-0.232,-2.217 -0.55,-4.031 -0.947,-5.438c-0.147,-0.551 -0.227,-1.061 -0.25,-1.526c-0.034,-0.867 0.09,-1.865 0.38,-2.994l0.766,-2.892c0.102,-0.091 0.21,-0.137 0.334,-0.137c0.131,0 0.221,0.193 0.261,0.585c0.057,0.504 0.125,0.816 0.21,0.93c0.085,0.107 0.38,0.998 0.89,2.671c0.329,1.1 0.743,1.962 1.231,2.592c0.028,0.221 0.051,0.431 0.062,0.635c0,0.408 -0.119,0.981 -0.357,1.724c-0.238,0.743 -0.403,1.254 -0.505,1.531l-0.13,0.499L60.909,46.979z" id="path_0"/><path fill="#000001" d="M50.939,46.664c-1.786,1.14 -4.094,2.064 -6.93,2.772c-4.321,0.977 -7.984,1.452 -10.99,1.436c-3.005,-0.018 -5.342,-0.307 -7.004,-0.874c-1.661,-0.562 -3.119,-1.542 -4.366,-2.938c-1.077,-1.23 -1.707,-2.659 -1.894,-4.287c-0.244,-2.291 0.312,-4.763 1.679,-7.411c0.142,-0.131 0.284,-0.289 0.431,-0.471c0.142,-0.182 0.306,-0.261 0.482,-0.227l-0.017,0.402c-0.754,1.616 -1.163,3.057 -1.23,4.315c-0.035,0.442 -0.035,0.748 0,0.913c0.465,2.126 2.075,3.623 4.837,4.491c1.548,0.527 3.17,0.856 4.866,0.976c0.266,0.011 0.681,0.045 1.248,0.102c3.465,0.012 7.667,-0.396 12.606,-1.23c2.858,-0.533 4.894,-1.253 6.102,-2.161c-0.08,-0.362 -0.352,-0.776 -0.817,-1.235c-0.465,-0.46 -0.749,-0.874 -0.845,-1.236c-0.068,-1.463 0.017,-2.961 0.25,-4.485l0.199,-0.018c1.537,1.735 2.393,3.584 2.558,5.529C52.3,43.301 51.915,45.177 50.939,46.664z" id="path_1"/><path fill="#000001" d="M38.922,20.669c0.314,0.541 0.68,2.085 1.097,4.631c-0.256,1.544 -0.929,2.312 -2.019,2.312h-0.146c-0.476,0 -1.09,-0.308 -1.866,-0.922c-0.526,0.93 -1.302,1.397 -2.312,1.397c-1.229,0 -1.844,-1.492 -1.844,-4.478c0.359,-1.134 0.666,-1.696 0.922,-1.696l0.146,0.153v2.634c0.212,0.914 0.476,1.367 0.775,1.367h0.622c0.644,0 1.054,-0.256 1.244,-0.768l-0.322,-2.312c0.125,-0.775 0.336,-1.186 0.622,-1.222h0.322c0.322,2.567 0.841,3.854 1.536,3.854h1.075v-0.153l-0.468,-3.08v-0.175C38.432,21.181 38.637,20.669 38.922,20.669z" id="path_2"/><path fill="#000001" d="M31.188,61.304l0.873,-2.598l8.465,-3.72c0.115,-0.028 0.168,-0.015 0.168,0.043c0,0.029 -0.015,0.096 -0.043,0.211l-1.136,2.694l-8.129,3.638c-0.105,0.01 -0.167,0.01 -0.197,0C31.149,61.515 31.149,61.429 31.188,61.304z" id="path_3"/><path fill="#000001" d="M31.188,57.618l0.873,-2.598l8.465,-3.72c0.115,-0.029 0.168,-0.015 0.168,0.043c0,0.029 -0.015,0.096 -0.043,0.211l-1.136,2.693l-8.129,3.639c-0.105,0.01 -0.167,0.01 -0.197,0C31.149,57.829 31.149,57.743 31.188,57.618z" id="path_4"/><path fill="#000001" d="M30.543,36.526v-0.164c0.556,-0.776 1.35,-1.832 2.393,-3.176h0.113c0.845,0.907 1.9,1.729 3.176,2.461c0.034,0.034 0.051,0.074 0.051,0.131l-2.308,3.125c-0.023,0.011 -0.063,0.017 -0.12,0.017c-0.067,0 -0.181,-0.028 -0.346,-0.085C32.704,38.471 31.717,37.701 30.543,36.526z" id="path_5"/><path fill="#000001" d="M35.51,36.526v-0.164c0.556,-0.776 1.35,-1.832 2.393,-3.176h0.113c0.845,0.907 1.9,1.729 3.176,2.461c0.034,0.034 0.051,0.074 0.051,0.131l-2.308,3.125c-0.023,0.011 -0.063,0.017 -0.12,0.017c-0.067,0 -0.181,-0.028 -0.346,-0.085C37.67,38.471 36.684,37.701 35.51,36.526z" id="path_6"/><path fill="#DD2C00" d="M55.783,20.488l-0.681,0.05L55,20.374c2.296,-1.219 4.072,-2.364 5.336,-3.442c-0.431,-0.152 -0.72,-0.312 -0.868,-0.481c-0.43,-0.295 -0.646,-0.8 -0.646,-1.509c-0.034,-1.451 0.482,-2.529 1.548,-3.238c0.34,-0.288 0.907,-0.356 1.695,-0.204c0.811,0.448 1.213,0.981 1.213,1.616c0.221,2.382 -1.333,4.515 -4.656,6.408C57.575,20 56.628,20.323 55.783,20.488L55.783,20.488zM61.941,15.139c0.318,-0.118 0.482,-0.334 0.482,-0.629c0,-0.499 -0.227,-0.867 -0.681,-1.101c-0.447,-0.176 -0.935,-0.181 -1.463,-0.017c-0.369,0.267 -0.561,0.505 -0.584,0.715c-0.034,0.255 0.136,0.589 0.499,0.997c0.335,0.137 0.601,0.199 0.8,0.199C61.25,15.372 61.562,15.316 61.941,15.139z" id="path_7"/></svg>