<svg id="vector" xmlns="http://www.w3.org/2000/svg" width="75" height="67" viewBox="0 0 83 73"><path fill="#DD2C00" d="M57.689,55.137c-0.035,1.09 -0.211,2.059 -0.533,2.927c-0.346,0.573 -0.602,0.873 -0.766,0.896c-0.188,0 -0.273,-0.313 -0.25,-0.931c-0.289,-6.215 -0.646,-10.559 -1.078,-13.031c-0.232,-2.218 -0.549,-4.031 -0.947,-5.438c-0.146,-0.55 -0.227,-1.061 -0.248,-1.525c-0.035,-0.867 0.09,-1.865 0.379,-2.994l0.766,-2.892c0.102,-0.091 0.211,-0.137 0.334,-0.137c0.131,0 0.223,0.193 0.262,0.584c0.057,0.505 0.125,0.816 0.211,0.931c0.084,0.107 0.379,0.998 0.889,2.671c0.33,1.1 0.744,1.962 1.23,2.592C57.967,39.01 57.99,39.22 58,39.424c0,0.408 -0.119,0.98 -0.357,1.724s-0.402,1.253 -0.504,1.531l-0.131,0.499L57.689,55.137z" id="path_0"/><path fill="#000001" d="M35.703,20.375c0.313,0.541 0.68,2.085 1.096,4.631c-0.256,1.543 -0.928,2.312 -2.018,2.312h-0.146c-0.477,0 -1.092,-0.308 -1.865,-0.922c-0.527,0.929 -1.303,1.397 -2.313,1.397c-1.229,0 -1.844,-1.492 -1.844,-4.478c0.359,-1.134 0.666,-1.697 0.922,-1.697l0.146,0.153v2.634c0.213,0.915 0.475,1.368 0.775,1.368h0.621c0.645,0 1.055,-0.256 1.244,-0.768L32,22.694c0.125,-0.776 0.338,-1.186 0.623,-1.223h0.32c0.322,2.568 0.842,3.855 1.537,3.855h1.074v-0.153l-0.467,-3.08v-0.176C35.211,20.887 35.416,20.375 35.703,20.375z" id="path_1"/><path fill="#000001" d="M32.723,10.896c0.207,-0.102 0.305,-0.032 0.295,0.203c-1.045,1.156 -1.867,2.252 -2.463,3.292c-0.172,0.406 -0.27,0.739 -0.293,1.008c-0.023,0.268 0.047,0.555 0.213,0.859h0.203c0.08,-0.453 0.242,-0.68 0.486,-0.68c0.291,0.13 0.453,0.26 0.484,0.393v0.19c0.02,1.03 -0.271,1.649 -0.877,1.857h-0.486c-0.65,-0.129 -0.975,-0.878 -0.975,-2.251C29.311,14.1 30.447,12.477 32.723,10.896L32.723,10.896zM34.863,12.656c-1.393,0 -2.299,1.004 -2.725,3.02c0,0.785 0.357,1.405 1.068,1.854v0.097c-2.645,1.253 -4.008,1.974 -4.086,2.154c-0.037,0.009 -0.041,0.032 -0.01,0.064c0.033,0.037 0.074,0.065 0.129,0.083c0.057,0.02 0.107,0.033 0.162,0.042c1.518,0 3.213,-0.587 5.08,-1.761c1.072,-0.56 1.688,-1.762 1.84,-3.602v-0.3C36.18,13.207 35.689,12.656 34.863,12.656L34.863,12.656zM33.115,14.7c0,-0.144 0.258,-0.277 0.771,-0.393c0.977,0 1.461,0.457 1.461,1.368c-0.043,0.198 -0.236,0.295 -0.582,0.295h-0.283c-0.91,-0.115 -1.367,-0.508 -1.367,-1.178V14.7z" id="path_2"/><path fill="#DD2C00" d="M50.324,24.135l1.033,-3.073l10.014,-4.4c0.137,-0.034 0.199,-0.017 0.199,0.051c0,0.034 -0.018,0.113 -0.051,0.25l-1.344,3.187l-9.619,4.305c-0.123,0.011 -0.197,0.011 -0.232,0C50.279,24.385 50.279,24.282 50.324,24.135z" id="path_3"/><path fill="#000001" d="M30.805,44.156h0.303c0.729,0 1.787,0.703 3.174,2.116v0.148c0,0.658 -0.6,1.665 -1.813,3.025c-2.115,-0.555 -3.174,-1.31 -3.174,-2.271C29.598,46.092 30.102,45.085 30.805,44.156z" id="path_4"/><path fill="#000001" d="M38.816,31.905l0.156,0.154v0.148c-0.529,2.723 -1.691,4.084 -3.479,4.084c-2.244,0 -4.762,1.007 -7.561,3.025c-3.123,2.62 -4.691,5.594 -4.691,8.916c0,4.517 2.574,7.639 7.717,9.374l5.291,0.459l8.471,-0.607h1.658l0.154,0.148v0.155c0,0.58 -1.561,1.438 -4.691,2.567c-1.27,0.555 -3.889,1.162 -7.863,1.819c-5.162,0 -8.439,-1.316 -9.826,-3.936c-1.613,-2.367 -2.42,-5.142 -2.42,-8.315c0,-5.168 2.117,-9.6 6.35,-13.304H24.76c-0.807,0 -1.813,0.704 -3.027,2.116l-0.303,-0.303v-0.303c1.008,-3.833 2.574,-5.749 4.691,-5.749C26.521,32.46 30.752,32.312 38.816,31.905z" id="path_5"/></svg>