<svg id="vector" xmlns="http://www.w3.org/2000/svg" width="75" height="67" viewBox="0 0 83 73"><path fill="#DD2C00" d="M60.179,38.627c-0.033,1.089 -0.21,2.059 -0.533,2.927c-0.346,0.572 -0.602,0.873 -0.766,0.896c-0.188,0 -0.271,-0.312 -0.249,-0.93c-0.29,-6.215 -0.646,-10.56 -1.077,-13.032c-0.232,-2.217 -0.551,-4.031 -0.947,-5.438c-0.147,-0.55 -0.227,-1.061 -0.25,-1.525c-0.034,-0.868 0.091,-1.866 0.38,-2.995l0.766,-2.892c0.103,-0.091 0.21,-0.136 0.335,-0.136c0.131,0 0.221,0.192 0.261,0.584c0.057,0.505 0.124,0.816 0.21,0.93c0.085,0.108 0.38,0.998 0.891,2.671c0.328,1.101 0.742,1.962 1.23,2.592c0.027,0.222 0.051,0.431 0.063,0.635c0,0.408 -0.119,0.981 -0.357,1.724c-0.238,0.743 -0.402,1.254 -0.505,1.531l-0.13,0.499L60.179,38.627z" id="path_0"/><path fill="#DD2C00" d="M52.784,51.347l1.031,-3.073l10.016,-4.4c0.137,-0.034 0.198,-0.017 0.198,0.051c0,0.034 -0.017,0.113 -0.052,0.25l-1.344,3.187l-9.617,4.305c-0.125,0.011 -0.198,0.011 -0.232,0C52.739,51.597 52.739,51.494 52.784,51.347z" id="path_1"/><path fill="#000001" d="M50.21,43.331c-1.787,1.14 -4.095,2.064 -6.93,2.772c-4.321,0.977 -7.984,1.452 -10.99,1.436c-3.005,-0.018 -5.342,-0.307 -7.003,-0.874c-1.662,-0.562 -3.119,-1.542 -4.367,-2.938c-1.077,-1.23 -1.707,-2.659 -1.894,-4.287c-0.244,-2.291 0.312,-4.763 1.678,-7.411c0.142,-0.131 0.284,-0.289 0.431,-0.471c0.142,-0.182 0.306,-0.261 0.482,-0.227l-0.017,0.402c-0.754,1.616 -1.163,3.057 -1.23,4.315c-0.034,0.442 -0.034,0.748 0,0.913c0.465,2.126 2.076,3.623 4.837,4.491c1.548,0.527 3.17,0.856 4.866,0.976c0.267,0.011 0.681,0.045 1.248,0.102c3.465,0.012 7.667,-0.396 12.606,-1.23c2.857,-0.533 4.894,-1.253 6.102,-2.161c-0.08,-0.362 -0.352,-0.776 -0.816,-1.235c-0.465,-0.46 -0.749,-0.873 -0.846,-1.236c-0.067,-1.463 0.018,-2.961 0.25,-4.485l0.198,-0.018c1.537,1.735 2.394,3.584 2.558,5.529C51.57,39.969 51.185,41.845 50.21,43.331z" id="path_2"/><path fill="#000001" d="M38.193,15.865c0.314,0.541 0.68,2.085 1.097,4.631c-0.256,1.543 -0.929,2.312 -2.019,2.312h-0.146c-0.476,0 -1.09,-0.308 -1.865,-0.922c-0.527,0.929 -1.302,1.397 -2.312,1.397c-1.229,0 -1.844,-1.492 -1.844,-4.478c0.358,-1.134 0.666,-1.697 0.922,-1.697l0.146,0.153v2.634c0.212,0.915 0.476,1.368 0.776,1.368h0.622c0.644,0 1.054,-0.256 1.244,-0.768l-0.322,-2.312c0.124,-0.776 0.336,-1.186 0.622,-1.223h0.322c0.322,2.568 0.841,3.855 1.537,3.855h1.075v-0.153l-0.468,-3.08v-0.176C37.702,16.377 37.907,15.865 38.193,15.865z" id="path_3"/><path fill="#000001" d="M30.333,57.172l1.032,-3.073l10.015,-4.4c0.136,-0.034 0.199,-0.018 0.199,0.051c0,0.034 -0.017,0.113 -0.051,0.249l-1.344,3.188l-9.617,4.304c-0.125,0.012 -0.199,0.012 -0.232,0C30.288,57.422 30.288,57.319 30.333,57.172z" id="path_4"/><path fill="#000001" d="M29.847,33.193v-0.164c0.556,-0.777 1.35,-1.832 2.393,-3.176h0.113c0.845,0.907 1.9,1.729 3.176,2.461c0.034,0.034 0.051,0.074 0.051,0.131l-2.308,3.124c-0.023,0.012 -0.063,0.018 -0.12,0.018c-0.067,0 -0.181,-0.028 -0.346,-0.085C32.007,35.139 31.021,34.368 29.847,33.193z" id="path_5"/><path fill="#000001" d="M34.813,33.193v-0.164c0.556,-0.777 1.35,-1.832 2.393,-3.176h0.113c0.845,0.907 1.9,1.729 3.176,2.461c0.034,0.034 0.051,0.074 0.051,0.131l-2.308,3.124c-0.023,0.012 -0.063,0.018 -0.12,0.018c-0.067,0 -0.181,-0.028 -0.346,-0.085C36.974,35.139 35.987,34.368 34.813,33.193z" id="path_6"/><path fill="#000001" d="M32.33,27.953v-0.164c0.556,-0.777 1.35,-1.832 2.394,-3.176h0.113c0.845,0.907 1.9,1.729 3.176,2.461c0.034,0.034 0.051,0.074 0.051,0.131l-2.308,3.124c-0.023,0.012 -0.062,0.018 -0.119,0.018c-0.068,0 -0.182,-0.028 -0.346,-0.085C34.491,29.898 33.504,29.128 32.33,27.953z" id="path_7"/></svg>