<svg id="vector" xmlns="http://www.w3.org/2000/svg" width="75" height="67" viewBox="0 0 83 73"><path fill="#000001" d="M60.18,45.795c-0.035,1.089 -0.211,2.059 -0.533,2.927c-0.346,0.572 -0.602,0.873 -0.766,0.896c-0.188,0 -0.272,-0.312 -0.25,-0.93c-0.289,-6.215 -0.646,-10.56 -1.077,-13.032c-0.232,-2.217 -0.55,-4.031 -0.947,-5.438c-0.147,-0.55 -0.227,-1.061 -0.249,-1.525c-0.035,-0.868 0.09,-1.866 0.379,-2.995l0.766,-2.892c0.103,-0.091 0.211,-0.136 0.335,-0.136c0.131,0 0.222,0.192 0.261,0.584c0.057,0.505 0.125,0.816 0.21,0.93c0.085,0.108 0.38,0.998 0.89,2.671c0.33,1.101 0.744,1.962 1.231,2.592c0.028,0.222 0.051,0.431 0.063,0.635c0,0.408 -0.12,0.981 -0.357,1.724c-0.238,0.743 -0.403,1.254 -0.505,1.531l-0.131,0.499L60.18,45.795z" id="path_0"/><path fill="#000001" d="M52.785,58.515l1.031,-3.073l10.015,-4.4c0.136,-0.034 0.198,-0.017 0.198,0.051c0,0.034 -0.017,0.113 -0.051,0.25l-1.344,3.187l-9.617,4.305c-0.125,0.011 -0.199,0.011 -0.232,0C52.739,58.765 52.739,58.662 52.785,58.515z" id="path_1"/><path fill="#213e95" d="M50.21,50.499c-1.786,1.14 -4.095,2.064 -6.931,2.772c-4.32,0.977 -7.984,1.452 -10.989,1.436c-3.005,-0.018 -5.342,-0.307 -7.004,-0.874c-1.661,-0.562 -3.118,-1.542 -4.366,-2.938c-1.077,-1.23 -1.707,-2.659 -1.895,-4.287c-0.243,-2.291 0.313,-4.763 1.68,-7.411c0.142,-0.131 0.283,-0.289 0.431,-0.471c0.142,-0.182 0.306,-0.261 0.481,-0.227l-0.017,0.402c-0.754,1.616 -1.163,3.057 -1.23,4.315c-0.034,0.442 -0.034,0.748 0,0.913c0.465,2.126 2.075,3.623 4.837,4.491c1.549,0.527 3.17,0.856 4.865,0.976c0.268,0.011 0.682,0.045 1.248,0.102c3.465,0.012 7.667,-0.396 12.605,-1.23c2.859,-0.533 4.895,-1.253 6.103,-2.161c-0.079,-0.362 -0.352,-0.776 -0.816,-1.235c-0.466,-0.46 -0.749,-0.873 -0.845,-1.236c-0.068,-1.463 0.017,-2.961 0.249,-4.485l0.198,-0.018c1.537,1.735 2.394,3.584 2.559,5.529C51.57,47.137 51.186,49.013 50.21,50.499z" id="path_2"/><path fill="#213e95" d="M38.192,23.033c0.314,0.541 0.681,2.085 1.098,4.631c-0.257,1.543 -0.929,2.312 -2.019,2.312h-0.146c-0.477,0 -1.091,-0.308 -1.866,-0.922c-0.526,0.929 -1.302,1.397 -2.312,1.397c-1.229,0 -1.844,-1.492 -1.844,-4.478c0.359,-1.134 0.666,-1.697 0.922,-1.697l0.146,0.153v2.634c0.213,0.915 0.476,1.368 0.775,1.368h0.621c0.645,0 1.055,-0.256 1.244,-0.768l-0.322,-2.312c0.125,-0.776 0.337,-1.186 0.623,-1.223h0.321c0.321,2.568 0.841,3.855 1.536,3.855h1.075v-0.153l-0.468,-3.08v-0.176C37.702,23.545 37.907,23.033 38.192,23.033z" id="path_3"/><path fill="#213e95" d="M29.592,21.65l1.031,-3.073l10.015,-4.4c0.136,-0.034 0.198,-0.018 0.198,0.051c0,0.034 -0.017,0.113 -0.051,0.249l-1.344,3.188l-9.617,4.304c-0.125,0.012 -0.199,0.012 -0.232,0C29.546,21.9 29.546,21.798 29.592,21.65z" id="path_4"/><path fill="#213e95" d="M29.847,40.361v-0.164c0.556,-0.777 1.351,-1.832 2.394,-3.176h0.113c0.845,0.907 1.899,1.729 3.176,2.461c0.033,0.034 0.051,0.074 0.051,0.131l-2.309,3.124c-0.022,0.012 -0.062,0.018 -0.119,0.018c-0.067,0 -0.181,-0.028 -0.346,-0.085C32.008,42.307 31.021,41.536 29.847,40.361z" id="path_5"/><path fill="#213e95" d="M34.813,40.361v-0.164c0.557,-0.777 1.351,-1.832 2.395,-3.176h0.112c0.845,0.907 1.899,1.729 3.177,2.461c0.033,0.034 0.051,0.074 0.051,0.131l-2.309,3.124c-0.023,0.012 -0.063,0.018 -0.119,0.018c-0.068,0 -0.182,-0.028 -0.346,-0.085C36.974,42.307 35.986,41.536 34.813,40.361z" id="path_6"/><path fill="#213e95" d="M32.33,35.121v-0.164c0.556,-0.777 1.35,-1.832 2.393,-3.176h0.113c0.846,0.907 1.9,1.729 3.176,2.461c0.035,0.034 0.052,0.074 0.052,0.131l-2.308,3.124c-0.023,0.012 -0.063,0.018 -0.12,0.018c-0.067,0 -0.181,-0.028 -0.346,-0.085C34.49,37.066 33.504,36.296 32.33,35.121z" id="path_7"/></svg>