<svg id="vector" xmlns="http://www.w3.org/2000/svg" width="75" height="67" viewBox="0 0 83 73"><path fill="#000001" d="M60.164,46.705c-0.034,1.089 -0.21,2.059 -0.533,2.927c-0.346,0.573 -0.602,0.873 -0.766,0.896c-0.188,0 -0.272,-0.312 -0.25,-0.93c-0.289,-6.215 -0.646,-10.559 -1.077,-13.031c-0.232,-2.218 -0.55,-4.032 -0.947,-5.438c-0.147,-0.55 -0.227,-1.061 -0.249,-1.525c-0.034,-0.868 0.09,-1.866 0.38,-2.994l0.766,-2.892c0.102,-0.092 0.21,-0.137 0.334,-0.137c0.131,0 0.222,0.192 0.261,0.584c0.058,0.505 0.125,0.816 0.21,0.93c0.086,0.108 0.38,0.998 0.891,2.671c0.329,1.101 0.743,1.963 1.23,2.592c0.028,0.222 0.051,0.432 0.063,0.636c0,0.408 -0.119,0.98 -0.357,1.724c-0.238,0.742 -0.402,1.253 -0.505,1.531l-0.13,0.499L60.164,46.705z" id="path_0"/><path fill="#DD2C00" d="M50.194,48.79c-1.786,1.14 -4.094,2.064 -6.93,2.773c-4.321,0.976 -7.984,1.451 -10.99,1.435c-3.005,-0.018 -5.342,-0.307 -7.003,-0.873c-1.662,-0.562 -3.119,-1.543 -4.367,-2.938c-1.077,-1.23 -1.707,-2.66 -1.894,-4.287c-0.244,-2.291 0.312,-4.764 1.679,-7.412c0.142,-0.131 0.283,-0.289 0.431,-0.471c0.142,-0.182 0.307,-0.261 0.482,-0.227l-0.018,0.402c-0.754,1.616 -1.162,3.057 -1.23,4.315c-0.034,0.442 -0.034,0.749 0,0.913c0.465,2.127 2.075,3.623 4.837,4.491c1.549,0.527 3.17,0.856 4.866,0.976c0.267,0.011 0.681,0.045 1.247,0.102c3.465,0.012 7.667,-0.396 12.606,-1.23c2.858,-0.533 4.894,-1.253 6.102,-2.16c-0.079,-0.363 -0.352,-0.777 -0.816,-1.236c-0.465,-0.46 -0.749,-0.873 -0.845,-1.236c-0.068,-1.463 0.017,-2.96 0.249,-4.485l0.199,-0.017c1.536,1.734 2.393,3.583 2.558,5.528C51.556,45.428 51.17,47.305 50.194,48.79z" id="path_1"/><path fill="#DD2C00" d="M38.177,21.543c0.314,0.541 0.681,2.085 1.098,4.631c-0.256,1.544 -0.929,2.312 -2.02,2.312h-0.146c-0.476,0 -1.091,-0.307 -1.866,-0.922c-0.526,0.93 -1.302,1.397 -2.312,1.397c-1.229,0 -1.844,-1.492 -1.844,-4.477c0.359,-1.135 0.666,-1.697 0.922,-1.697l0.146,0.153v2.634c0.213,0.914 0.476,1.367 0.775,1.367h0.622c0.644,0 1.054,-0.256 1.244,-0.768l-0.322,-2.312c0.124,-0.775 0.336,-1.186 0.622,-1.222h0.321c0.322,2.567 0.842,3.855 1.536,3.855h1.075v-0.154l-0.468,-3.079v-0.176C37.687,22.056 37.892,21.543 38.177,21.543z" id="path_2"/><path fill="#DD2C00" d="M35.197,12.064c0.207,-0.102 0.305,-0.033 0.295,0.203c-1.044,1.155 -1.867,2.251 -2.463,3.291c-0.172,0.407 -0.269,0.74 -0.292,1.008c-0.023,0.269 0.046,0.555 0.213,0.859h0.203c0.079,-0.452 0.24,-0.679 0.485,-0.679c0.292,0.129 0.453,0.259 0.485,0.393v0.189c0.019,1.031 -0.272,1.65 -0.878,1.858h-0.485c-0.651,-0.129 -0.976,-0.878 -0.976,-2.251C31.785,15.268 32.922,13.646 35.197,12.064L35.197,12.064zM37.337,13.825c-1.392,0 -2.298,1.003 -2.723,3.019c0,0.786 0.356,1.405 1.068,1.854v0.098c-2.645,1.253 -4.009,1.974 -4.087,2.154c-0.037,0.009 -0.041,0.032 -0.01,0.064c0.033,0.037 0.074,0.064 0.13,0.083s0.106,0.032 0.162,0.042c1.516,0 3.213,-0.588 5.08,-1.762c1.072,-0.559 1.688,-1.761 1.84,-3.601v-0.301C38.654,14.376 38.165,13.825 37.337,13.825L37.337,13.825zM35.59,15.868c0,-0.143 0.259,-0.277 0.771,-0.393c0.976,0 1.461,0.458 1.461,1.368c-0.042,0.199 -0.235,0.296 -0.582,0.296h-0.282c-0.91,-0.115 -1.368,-0.508 -1.368,-1.179V15.868z" id="path_3"/><path fill="#000001" d="M52.8,60.655l1.032,-3.073l10.015,-4.4c0.137,-0.034 0.198,-0.017 0.198,0.051c0,0.034 -0.017,0.113 -0.051,0.25l-1.345,3.187l-9.617,4.304c-0.125,0.012 -0.198,0.012 -0.232,0C52.755,60.905 52.755,60.803 52.8,60.655z" id="path_4"/><path fill="#DD2C00" d="M29.831,38.653v-0.165c0.557,-0.776 1.351,-1.832 2.394,-3.176h0.113c0.845,0.908 1.899,1.73 3.176,2.461c0.034,0.034 0.051,0.074 0.051,0.131l-2.308,3.125c-0.023,0.011 -0.063,0.017 -0.119,0.017c-0.068,0 -0.182,-0.028 -0.346,-0.085C31.992,40.598 31.005,39.827 29.831,38.653z" id="path_5"/><path fill="#DD2C00" d="M34.798,38.653v-0.165c0.556,-0.776 1.35,-1.832 2.394,-3.176h0.112c0.846,0.908 1.9,1.73 3.177,2.461c0.033,0.034 0.051,0.074 0.051,0.131l-2.309,3.125c-0.022,0.011 -0.062,0.017 -0.119,0.017c-0.067,0 -0.182,-0.028 -0.346,-0.085C36.958,40.598 35.972,39.827 34.798,38.653z" id="path_6"/><path fill="#DD2C00" d="M32.097,33.872v-0.164c0.556,-0.777 1.35,-1.832 2.393,-3.176h0.113c0.846,0.907 1.9,1.73 3.176,2.461c0.034,0.034 0.052,0.074 0.052,0.131l-2.309,3.124c-0.022,0.012 -0.063,0.018 -0.119,0.018c-0.067,0 -0.182,-0.028 -0.346,-0.085C34.257,35.817 33.271,35.047 32.097,33.872z" id="path_7"/></svg>