<svg id="vector" xmlns="http://www.w3.org/2000/svg" width="75" height="67" viewBox="0 0 83 73"><path fill="#213e95" d="M56.504,47.991c-0.033,1.089 -0.209,2.058 -0.533,2.926c-0.346,0.573 -0.602,0.873 -0.766,0.896c-0.186,0 -0.271,-0.313 -0.248,-0.931c-0.289,-6.215 -0.646,-10.559 -1.078,-13.031c-0.232,-2.218 -0.551,-4.031 -0.947,-5.438c-0.146,-0.55 -0.227,-1.061 -0.25,-1.525c-0.033,-0.867 0.092,-1.865 0.381,-2.994l0.766,-2.892c0.102,-0.091 0.209,-0.137 0.334,-0.137c0.131,0 0.221,0.193 0.262,0.584c0.057,0.505 0.123,0.816 0.209,0.931c0.086,0.107 0.381,0.998 0.891,2.671c0.328,1.1 0.742,1.962 1.23,2.592c0.029,0.221 0.051,0.431 0.063,0.635c0,0.408 -0.119,0.98 -0.357,1.724s-0.402,1.254 -0.504,1.531l-0.131,0.499L56.504,47.991z" id="path_0"/><path fill="#213e95" d="M49.109,18.43l1.031,-3.074l10.016,-4.4c0.137,-0.034 0.199,-0.017 0.199,0.051c0,0.034 -0.018,0.113 -0.051,0.25l-1.346,3.187l-9.617,4.305c-0.125,0.011 -0.197,0.011 -0.232,0C49.064,18.679 49.064,18.577 49.109,18.43z" id="path_1"/><path fill="#000001" d="M34.518,13.229c0.314,0.541 0.68,2.085 1.098,4.631c-0.256,1.543 -0.93,2.312 -2.02,2.312h-0.146c-0.475,0 -1.09,-0.308 -1.865,-0.922c-0.527,0.929 -1.303,1.397 -2.311,1.397c-1.23,0 -1.844,-1.492 -1.844,-4.478c0.357,-1.134 0.666,-1.697 0.922,-1.697l0.146,0.154v2.633c0.211,0.915 0.475,1.368 0.775,1.368h0.621c0.643,0 1.053,-0.256 1.244,-0.768l-0.322,-2.312c0.125,-0.776 0.336,-1.186 0.621,-1.223h0.322c0.322,2.568 0.842,3.855 1.537,3.855h1.074v-0.153l-0.469,-3.08v-0.176C34.027,13.74 34.232,13.229 34.518,13.229z" id="path_2"/><path fill="#000001" d="M29.592,61.735l1.031,-3.073l10.016,-4.4c0.135,-0.034 0.197,-0.018 0.197,0.051c0,0.034 -0.016,0.113 -0.051,0.25l-1.344,3.187l-9.617,4.304c-0.125,0.012 -0.199,0.012 -0.232,0C29.545,61.985 29.545,61.883 29.592,61.735z" id="path_3"/><path fill="#000001" d="M32.02,34.717h0.303c0.73,0 1.787,0.703 3.174,2.116v0.148c0,0.658 -0.6,1.665 -1.813,3.025c-2.115,-0.555 -3.174,-1.31 -3.174,-2.271C30.813,36.652 31.316,35.646 32.02,34.717z" id="path_4"/><path fill="#000001" d="M40.033,22.466l0.154,0.154v0.148c-0.529,2.723 -1.691,4.084 -3.479,4.084c-2.244,0 -4.76,1.007 -7.561,3.025c-3.123,2.62 -4.689,5.594 -4.689,8.916c0,4.517 2.574,7.639 7.715,9.375l5.291,0.458l8.471,-0.607h1.658l0.154,0.149v0.154c0,0.581 -1.561,1.438 -4.689,2.567c-1.271,0.556 -3.891,1.162 -7.865,1.819c-5.16,0 -8.438,-1.315 -9.824,-3.936c-1.613,-2.367 -2.42,-5.142 -2.42,-8.315c0,-5.168 2.115,-9.6 6.348,-13.303h-3.322c-0.807,0 -1.813,0.703 -3.025,2.115l-0.305,-0.303v-0.303c1.008,-3.833 2.574,-5.749 4.691,-5.749C27.736,23.021 31.969,22.872 40.033,22.466z" id="path_5"/></svg>