<svg id="vector" xmlns="http://www.w3.org/2000/svg" width="75" height="67" viewBox="0 0 83 73"><path fill="#DD2C00" d="M60.163,53.272c-0.034,1.09 -0.21,2.059 -0.533,2.928c-0.346,0.572 -0.601,0.873 -0.766,0.895c-0.188,0 -0.271,-0.311 -0.25,-0.93c-0.288,-6.215 -0.646,-10.559 -1.076,-13.031c-0.233,-2.217 -0.551,-4.031 -0.948,-5.438c-0.146,-0.551 -0.227,-1.061 -0.249,-1.525c-0.034,-0.867 0.091,-1.865 0.38,-2.994l0.766,-2.893c0.103,-0.091 0.21,-0.136 0.335,-0.136c0.131,0 0.221,0.192 0.261,0.583c0.057,0.506 0.124,0.817 0.21,0.93c0.085,0.109 0.38,0.998 0.89,2.672c0.329,1.1 0.743,1.963 1.231,2.592c0.027,0.221 0.051,0.43 0.063,0.635c0,0.408 -0.12,0.98 -0.357,1.725c-0.238,0.742 -0.403,1.252 -0.505,1.531l-0.131,0.498L60.163,53.272z" id="path_0"/><path fill="#213e95" d="M31.813,27.34l-0.681,0.051l-0.102,-0.164c2.296,-1.22 4.071,-2.365 5.336,-3.443c-0.432,-0.152 -0.721,-0.312 -0.868,-0.481c-0.431,-0.295 -0.646,-0.8 -0.646,-1.509c-0.034,-1.451 0.482,-2.529 1.549,-3.238c0.34,-0.289 0.907,-0.357 1.695,-0.203c0.811,0.447 1.213,0.98 1.213,1.615c0.222,2.382 -1.332,4.514 -4.655,6.408C33.605,26.852 32.658,27.175 31.813,27.34L31.813,27.34zM37.972,21.992c0.317,-0.118 0.482,-0.334 0.482,-0.629c0,-0.499 -0.228,-0.868 -0.681,-1.101c-0.448,-0.176 -0.936,-0.182 -1.464,-0.018c-0.368,0.268 -0.561,0.506 -0.583,0.715c-0.034,0.256 0.136,0.59 0.498,0.998c0.335,0.137 0.602,0.199 0.8,0.199C37.28,22.224 37.592,22.168 37.972,21.992z" id="path_1"/><path fill="#213e95" d="M50.193,52.862c-1.785,1.141 -4.094,2.064 -6.93,2.773c-4.32,0.975 -7.984,1.451 -10.989,1.434c-3.006,-0.016 -5.342,-0.307 -7.004,-0.873c-1.661,-0.561 -3.119,-1.543 -4.366,-2.938c-1.078,-1.23 -1.707,-2.66 -1.895,-4.287c-0.243,-2.291 0.313,-4.764 1.679,-7.412c0.142,-0.129 0.283,-0.289 0.432,-0.471c0.142,-0.182 0.306,-0.26 0.481,-0.227l-0.017,0.402c-0.755,1.617 -1.163,3.057 -1.231,4.316c-0.034,0.441 -0.034,0.748 0,0.912c0.466,2.127 2.076,3.625 4.838,4.492c1.548,0.527 3.17,0.855 4.865,0.975c0.267,0.012 0.681,0.047 1.248,0.102c3.465,0.012 7.667,-0.396 12.605,-1.229c2.858,-0.533 4.895,-1.254 6.102,-2.162c-0.079,-0.361 -0.351,-0.777 -0.815,-1.236c-0.466,-0.459 -0.749,-0.873 -0.846,-1.236c-0.067,-1.463 0.018,-2.959 0.25,-4.484l0.198,-0.018c1.537,1.736 2.394,3.584 2.558,5.529C51.555,49.499 51.169,51.376 50.193,52.862z" id="path_2"/><path fill="#DD2C00" d="M52.8,23.397l1.031,-3.074l10.015,-4.4c0.137,-0.033 0.199,-0.017 0.199,0.051c0,0.035 -0.018,0.113 -0.052,0.25l-1.344,3.188l-9.617,4.304c-0.125,0.011 -0.198,0.011 -0.232,0C52.754,23.646 52.754,23.543 52.8,23.397z" id="path_3"/><path fill="#213e95" d="M38.177,27.795c0.314,0.542 0.681,2.086 1.098,4.631c-0.257,1.543 -0.93,2.313 -2.02,2.313h-0.146c-0.476,0 -1.09,-0.309 -1.865,-0.922c-0.526,0.928 -1.303,1.396 -2.312,1.396c-1.229,0 -1.844,-1.492 -1.844,-4.477c0.358,-1.134 0.666,-1.697 0.922,-1.697l0.146,0.154v2.633c0.212,0.914 0.476,1.367 0.775,1.367h0.621c0.645,0 1.054,-0.256 1.244,-0.768l-0.322,-2.311c0.125,-0.776 0.337,-1.186 0.622,-1.223h0.322c0.321,2.569 0.841,3.856 1.536,3.856h1.075v-0.154l-0.468,-3.08v-0.176C37.687,28.308 37.892,27.795 38.177,27.795z" id="path_4"/><path fill="#213e95" d="M29.831,42.726v-0.164c0.556,-0.777 1.35,-1.832 2.394,-3.176h0.112c0.846,0.906 1.9,1.729 3.177,2.461c0.033,0.033 0.051,0.074 0.051,0.129l-2.309,3.125c-0.022,0.012 -0.062,0.018 -0.119,0.018c-0.067,0 -0.182,-0.027 -0.346,-0.086C31.991,44.669 31.005,43.899 29.831,42.726z" id="path_5"/><path fill="#213e95" d="M34.797,42.726v-0.164c0.557,-0.777 1.351,-1.832 2.394,-3.176h0.113c0.846,0.906 1.899,1.729 3.176,2.461c0.034,0.033 0.051,0.074 0.051,0.129l-2.308,3.125c-0.023,0.012 -0.063,0.018 -0.119,0.018c-0.068,0 -0.182,-0.027 -0.346,-0.086C36.958,44.669 35.971,43.899 34.797,42.726z" id="path_6"/></svg>