<svg id="vector" xmlns="http://www.w3.org/2000/svg" width="75" height="67" viewBox="0 0 83 73"><path fill="#DD2C00" d="M60.18,48.69c-0.034,1.09 -0.21,2.059 -0.533,2.928c-0.346,0.572 -0.602,0.873 -0.766,0.895c-0.187,0 -0.272,-0.311 -0.249,-0.93c-0.289,-6.215 -0.646,-10.559 -1.078,-13.031c-0.232,-2.217 -0.55,-4.031 -0.946,-5.438c-0.147,-0.551 -0.228,-1.061 -0.25,-1.525c-0.034,-0.869 0.091,-1.867 0.38,-2.996l0.766,-2.891c0.103,-0.092 0.21,-0.137 0.335,-0.137c0.13,0 0.221,0.193 0.261,0.584c0.057,0.505 0.124,0.817 0.21,0.93c0.085,0.107 0.38,0.998 0.89,2.672c0.329,1.1 0.743,1.961 1.23,2.592c0.029,0.221 0.052,0.43 0.063,0.635c0,0.408 -0.119,0.98 -0.356,1.723c-0.239,0.744 -0.403,1.254 -0.505,1.531l-0.131,0.5L60.18,48.69z" id="path_0"/><path fill="#DD2C00" d="M52.785,19.129l1.031,-3.074l10.016,-4.4c0.136,-0.033 0.198,-0.017 0.198,0.051c0,0.035 -0.017,0.113 -0.051,0.25l-1.345,3.188l-9.617,4.304c-0.125,0.011 -0.198,0.011 -0.232,0C52.739,19.378 52.739,19.276 52.785,19.129z" id="path_1"/><path fill="#000001" d="M50.21,48.595c-1.786,1.141 -4.094,2.064 -6.93,2.773c-4.321,0.975 -7.984,1.451 -10.989,1.434c-3.006,-0.016 -5.343,-0.307 -7.004,-0.873c-1.661,-0.561 -3.119,-1.543 -4.366,-2.938c-1.077,-1.23 -1.707,-2.66 -1.895,-4.287c-0.244,-2.291 0.313,-4.764 1.679,-7.412c0.142,-0.129 0.284,-0.289 0.431,-0.471c0.143,-0.18 0.307,-0.26 0.482,-0.227l-0.017,0.402c-0.755,1.617 -1.163,3.057 -1.231,4.316c-0.034,0.441 -0.034,0.748 0,0.912c0.466,2.127 2.076,3.625 4.838,4.492c1.548,0.527 3.17,0.855 4.865,0.975c0.267,0.012 0.681,0.047 1.247,0.102c3.465,0.012 7.668,-0.396 12.606,-1.229c2.858,-0.533 4.895,-1.254 6.103,-2.162c-0.08,-0.361 -0.352,-0.777 -0.817,-1.236c-0.465,-0.459 -0.748,-0.873 -0.845,-1.236c-0.067,-1.463 0.018,-2.959 0.249,-4.484l0.199,-0.018c1.537,1.736 2.393,3.584 2.558,5.529C51.571,45.231 51.186,47.108 50.21,48.595z" id="path_2"/><path fill="#000001" d="M38.193,23.528c0.314,0.542 0.68,2.086 1.097,4.631c-0.256,1.543 -0.929,2.313 -2.019,2.313h-0.146c-0.476,0 -1.09,-0.309 -1.865,-0.922c-0.527,0.928 -1.303,1.396 -2.312,1.396c-1.229,0 -1.844,-1.492 -1.844,-4.477c0.358,-1.134 0.666,-1.697 0.922,-1.697l0.146,0.154v2.633c0.212,0.914 0.476,1.367 0.775,1.367h0.621c0.644,0 1.054,-0.256 1.244,-0.768l-0.322,-2.311c0.125,-0.776 0.337,-1.186 0.622,-1.223h0.321c0.322,2.569 0.842,3.856 1.537,3.856h1.075v-0.154l-0.469,-3.08v-0.176C37.703,24.041 37.907,23.528 38.193,23.528z" id="path_3"/><path fill="#000001" d="M30.333,61.036l1.032,-3.074l10.015,-4.4c0.137,-0.033 0.198,-0.018 0.198,0.051c0,0.035 -0.017,0.113 -0.051,0.25l-1.345,3.188l-9.617,4.303c-0.124,0.012 -0.198,0.012 -0.232,0C30.288,61.284 30.288,61.183 30.333,61.036z" id="path_4"/><path fill="#000001" d="M29.848,38.458v-0.164c0.556,-0.777 1.35,-1.832 2.393,-3.176h0.113c0.846,0.906 1.9,1.729 3.176,2.461c0.034,0.033 0.052,0.074 0.052,0.129l-2.309,3.125c-0.022,0.012 -0.063,0.018 -0.119,0.018c-0.067,0 -0.182,-0.027 -0.346,-0.086C32.008,40.401 31.021,39.632 29.848,38.458z" id="path_5"/><path fill="#000001" d="M34.813,38.458v-0.164c0.556,-0.777 1.35,-1.832 2.394,-3.176h0.113c0.845,0.906 1.899,1.729 3.176,2.461c0.034,0.033 0.051,0.074 0.051,0.129l-2.308,3.125c-0.023,0.012 -0.063,0.018 -0.119,0.018c-0.068,0 -0.182,-0.027 -0.347,-0.086C36.975,40.401 35.987,39.632 34.813,38.458z" id="path_6"/></svg>