<svg id="vector" xmlns="http://www.w3.org/2000/svg" width="75" height="67" viewBox="0 0 83 73"><path fill="#000001" d="M60.909,46.979c-0.034,1.09 -0.21,2.059 -0.533,2.928c-0.346,0.572 -0.602,0.873 -0.766,0.895c-0.187,0 -0.272,-0.311 -0.25,-0.93c-0.289,-6.215 -0.646,-10.559 -1.078,-13.031c-0.232,-2.217 -0.55,-4.031 -0.947,-5.438c-0.147,-0.551 -0.227,-1.061 -0.25,-1.525c-0.034,-0.869 0.09,-1.867 0.38,-2.996l0.766,-2.891c0.102,-0.092 0.21,-0.137 0.334,-0.137c0.131,0 0.221,0.193 0.261,0.584c0.057,0.504 0.125,0.816 0.21,0.93c0.085,0.107 0.38,0.998 0.89,2.672c0.329,1.1 0.743,1.961 1.231,2.592c0.028,0.221 0.051,0.43 0.062,0.635c0,0.408 -0.119,0.98 -0.357,1.723c-0.238,0.744 -0.403,1.254 -0.505,1.531l-0.13,0.5L60.909,46.979z" id="path_0"/><path fill="#213e95" d="M50.939,46.664c-1.786,1.139 -4.094,2.064 -6.93,2.773c-4.321,0.975 -7.984,1.451 -10.99,1.434s-5.342,-0.307 -7.004,-0.873c-1.661,-0.561 -3.119,-1.543 -4.366,-2.938c-1.077,-1.23 -1.707,-2.66 -1.894,-4.287c-0.244,-2.291 0.312,-4.764 1.679,-7.412c0.142,-0.131 0.284,-0.289 0.431,-0.471c0.142,-0.182 0.306,-0.26 0.482,-0.227l-0.017,0.402c-0.754,1.617 -1.163,3.057 -1.23,4.316c-0.035,0.441 -0.035,0.748 0,0.912c0.465,2.127 2.075,3.623 4.837,4.492c1.548,0.527 3.17,0.855 4.866,0.975c0.266,0.012 0.681,0.045 1.248,0.102c3.465,0.012 7.667,-0.396 12.606,-1.23c2.858,-0.533 4.894,-1.252 6.102,-2.16c-0.08,-0.363 -0.352,-0.777 -0.817,-1.236c-0.465,-0.459 -0.749,-0.873 -0.845,-1.236c-0.068,-1.463 0.017,-2.959 0.25,-4.484l0.199,-0.018c1.537,1.734 2.393,3.584 2.558,5.529C52.3,43.301 51.915,45.178 50.939,46.664z" id="path_1"/><path fill="#213e95" d="M38.922,18.27c0.314,0.541 0.68,2.084 1.097,4.631c-0.256,1.543 -0.929,2.313 -2.019,2.313h-0.146c-0.476,0 -1.09,-0.309 -1.866,-0.922c-0.526,0.928 -1.302,1.396 -2.312,1.396c-1.229,0 -1.844,-1.492 -1.844,-4.477c0.359,-1.135 0.666,-1.697 0.922,-1.697l0.146,0.152v2.635c0.212,0.914 0.476,1.367 0.775,1.367h0.622c0.644,0 1.054,-0.256 1.244,-0.768l-0.322,-2.313c0.125,-0.775 0.336,-1.184 0.622,-1.221h0.322c0.322,2.566 0.841,3.855 1.536,3.855h1.075v-0.154l-0.468,-3.08v-0.176C38.432,18.781 38.637,18.27 38.922,18.27z" id="path_2"/><path fill="#213e95" d="M31.188,61.305l0.873,-2.598l8.465,-3.721c0.115,-0.027 0.168,-0.014 0.168,0.043c0,0.029 -0.015,0.096 -0.043,0.211l-1.136,2.695l-8.129,3.637c-0.105,0.01 -0.167,0.01 -0.197,0C31.149,61.516 31.149,61.43 31.188,61.305z" id="path_3"/><path fill="#213e95" d="M31.188,57.617l0.873,-2.598l8.465,-3.719c0.115,-0.029 0.168,-0.016 0.168,0.043c0,0.029 -0.015,0.096 -0.043,0.211l-1.136,2.693l-8.129,3.639c-0.105,0.01 -0.167,0.01 -0.197,0C31.149,57.828 31.149,57.742 31.188,57.617z" id="path_4"/><path fill="#213e95" d="M30.543,36.527v-0.166c0.556,-0.775 1.35,-1.832 2.393,-3.176h0.113c0.845,0.908 1.9,1.73 3.176,2.461c0.034,0.035 0.051,0.074 0.051,0.131l-2.308,3.125c-0.023,0.012 -0.063,0.018 -0.12,0.018c-0.067,0 -0.181,-0.029 -0.346,-0.086C32.704,38.471 31.717,37.701 30.543,36.527z" id="path_5"/><path fill="#213e95" d="M35.51,36.527v-0.166c0.556,-0.775 1.35,-1.832 2.393,-3.176h0.113c0.845,0.908 1.9,1.73 3.176,2.461c0.034,0.035 0.051,0.074 0.051,0.131l-2.308,3.125c-0.023,0.012 -0.063,0.018 -0.12,0.018c-0.067,0 -0.181,-0.029 -0.346,-0.086C37.67,38.471 36.684,37.701 35.51,36.527z" id="path_6"/><path fill="#000001" d="M55.783,20.488l-0.681,0.051L55,20.375c2.296,-1.221 4.072,-2.365 5.336,-3.443c-0.431,-0.152 -0.72,-0.313 -0.868,-0.482c-0.43,-0.295 -0.646,-0.799 -0.646,-1.508c-0.034,-1.451 0.482,-2.529 1.548,-3.238c0.34,-0.289 0.907,-0.357 1.695,-0.203c0.811,0.447 1.213,0.98 1.213,1.615c0.221,2.381 -1.333,4.514 -4.656,6.408C57.575,20 56.628,20.322 55.783,20.488L55.783,20.488zM61.941,15.139c0.318,-0.117 0.482,-0.334 0.482,-0.629c0,-0.498 -0.227,-0.867 -0.681,-1.1c-0.447,-0.176 -0.935,-0.182 -1.463,-0.018c-0.369,0.268 -0.561,0.506 -0.584,0.715c-0.034,0.256 0.136,0.59 0.499,0.998c0.335,0.137 0.601,0.199 0.8,0.199C61.25,15.371 61.562,15.316 61.941,15.139z" id="path_7"/><path fill="#213e95" d="M33.06,31.846v-0.164c0.556,-0.777 1.35,-1.832 2.393,-3.176h0.113c0.845,0.906 1.899,1.729 3.176,2.461c0.034,0.033 0.051,0.074 0.051,0.129l-2.308,3.125c-0.023,0.012 -0.063,0.018 -0.12,0.018c-0.067,0 -0.181,-0.027 -0.346,-0.086C35.22,33.791 34.233,33.02 33.06,31.846z" id="path_8"/></svg>