<svg id="vector" xmlns="http://www.w3.org/2000/svg" width="75" height="67" viewBox="0 0 83 73"><path fill="#213e95" d="M61.568,48.188c-0.033,1.089 -0.21,2.058 -0.533,2.926c-0.346,0.573 -0.601,0.873 -0.766,0.896c-0.187,0 -0.271,-0.312 -0.249,-0.93c-0.289,-6.215 -0.646,-10.559 -1.077,-13.032c-0.232,-2.217 -0.551,-4.032 -0.947,-5.438c-0.147,-0.55 -0.227,-1.061 -0.25,-1.526c-0.034,-0.868 0.091,-1.866 0.38,-2.995l0.766,-2.892c0.103,-0.091 0.21,-0.136 0.335,-0.136c0.131,0 0.222,0.193 0.261,0.584c0.057,0.505 0.125,0.816 0.21,0.93c0.085,0.108 0.38,0.998 0.89,2.671c0.329,1.1 0.743,1.962 1.231,2.592c0.028,0.221 0.051,0.431 0.063,0.635c0,0.408 -0.12,0.981 -0.357,1.724c-0.238,0.743 -0.403,1.253 -0.505,1.531l-0.131,0.499L61.568,48.188z" id="path_0"/><path fill="#DD2C00" d="M33.776,57.987v-0.165c0.556,-0.777 1.35,-1.832 2.393,-3.176h0.113c0.846,0.908 1.899,1.73 3.176,2.461c0.034,0.034 0.051,0.074 0.051,0.131l-2.308,3.125c-0.022,0.011 -0.063,0.017 -0.119,0.017c-0.067,0 -0.182,-0.028 -0.346,-0.085C35.936,59.932 34.949,59.161 33.776,57.987z" id="path_1"/><path fill="#DD2C00" d="M51.599,48.092c-1.786,1.14 -4.095,2.064 -6.931,2.773c-4.32,0.976 -7.983,1.452 -10.989,1.435s-5.342,-0.306 -7.004,-0.873c-1.661,-0.562 -3.118,-1.543 -4.366,-2.938c-1.077,-1.231 -1.707,-2.66 -1.894,-4.287c-0.244,-2.291 0.312,-4.764 1.678,-7.412c0.143,-0.13 0.284,-0.289 0.432,-0.471c0.142,-0.181 0.306,-0.261 0.481,-0.227l-0.017,0.403c-0.754,1.616 -1.163,3.056 -1.23,4.315c-0.034,0.442 -0.034,0.749 0,0.913c0.465,2.126 2.075,3.624 4.837,4.491c1.548,0.527 3.17,0.856 4.865,0.975c0.267,0.011 0.681,0.045 1.248,0.102c3.465,0.011 7.667,-0.397 12.606,-1.23c2.857,-0.533 4.894,-1.253 6.102,-2.161c-0.08,-0.363 -0.352,-0.777 -0.816,-1.236c-0.465,-0.459 -0.749,-0.873 -0.846,-1.236c-0.067,-1.463 0.018,-2.96 0.25,-4.486l0.198,-0.017c1.537,1.735 2.394,3.583 2.558,5.529C52.959,44.729 52.574,46.606 51.599,48.092z" id="path_2"/><path fill="#DD2C00" d="M39.582,27.826c0.314,0.541 0.681,2.084 1.098,4.63c-0.257,1.543 -0.93,2.312 -2.02,2.312h-0.146c-0.476,0 -1.09,-0.308 -1.865,-0.922c-0.526,0.929 -1.302,1.397 -2.312,1.397c-1.229,0 -1.844,-1.492 -1.844,-4.477c0.358,-1.134 0.666,-1.697 0.922,-1.697l0.146,0.154v2.634c0.212,0.914 0.476,1.368 0.775,1.368h0.621c0.645,0 1.054,-0.256 1.244,-0.768l-0.322,-2.312c0.125,-0.775 0.337,-1.185 0.622,-1.222h0.322c0.321,2.567 0.841,3.855 1.536,3.855h1.075v-0.154l-0.468,-3.08V29.37C39.091,28.338 39.296,27.826 39.582,27.826z" id="path_3"/><path fill="#DD2C00" d="M30.98,26.443l1.032,-3.073l10.015,-4.401c0.136,-0.034 0.198,-0.017 0.198,0.051c0,0.034 -0.017,0.113 -0.051,0.25l-1.345,3.187l-9.617,4.304c-0.124,0.011 -0.198,0.011 -0.232,0C30.935,26.693 30.935,26.591 30.98,26.443z" id="path_4"/><path fill="#213e95" d="M55.124,21.688l-0.681,0.051l-0.103,-0.165c2.297,-1.219 4.072,-2.364 5.337,-3.442c-0.432,-0.153 -0.721,-0.312 -0.868,-0.481c-0.431,-0.295 -0.646,-0.8 -0.646,-1.509c-0.034,-1.452 0.482,-2.529 1.549,-3.238c0.34,-0.289 0.906,-0.357 1.695,-0.204c0.811,0.448 1.213,0.981 1.213,1.616c0.222,2.382 -1.332,4.514 -4.655,6.408C56.916,21.2 55.968,21.523 55.124,21.688L55.124,21.688zM61.282,16.34c0.317,-0.119 0.481,-0.334 0.481,-0.629c0,-0.5 -0.227,-0.868 -0.681,-1.101c-0.447,-0.175 -0.935,-0.181 -1.463,-0.017c-0.368,0.267 -0.561,0.505 -0.584,0.715c-0.033,0.255 0.137,0.59 0.499,0.998c0.335,0.136 0.602,0.199 0.8,0.199C60.59,16.572 60.902,16.516 61.282,16.34z" id="path_5"/></svg>