<svg id="vector" xmlns="http://www.w3.org/2000/svg" width="75" height="67" viewBox="0 0 83 73"><path fill="#213e95" d="M54.896,56.193c-0.035,1.09 -0.211,2.06 -0.533,2.928c-0.346,0.572 -0.602,0.873 -0.766,0.896c-0.188,0 -0.272,-0.313 -0.25,-0.932c-0.289,-6.215 -0.646,-10.559 -1.078,-13.031c-0.231,-2.218 -0.549,-4.031 -0.946,-5.438c-0.146,-0.551 -0.228,-1.061 -0.249,-1.525c-0.034,-0.867 0.091,-1.865 0.38,-2.994l0.767,-2.892c0.102,-0.092 0.209,-0.137 0.334,-0.137c0.131,0 0.223,0.192 0.262,0.584c0.057,0.505 0.125,0.816 0.209,0.931c0.086,0.107 0.381,0.997 0.891,2.67c0.329,1.102 0.743,1.963 1.23,2.592c0.028,0.223 0.052,0.432 0.063,0.637c0,0.408 -0.119,0.979 -0.357,1.724c-0.237,0.744 -0.401,1.253 -0.504,1.53l-0.131,0.5L54.896,56.193z" id="path_0"/><path fill="#213e95" d="M47.531,26.472l1.031,-3.074l10.016,-4.4c0.137,-0.034 0.199,-0.017 0.199,0.051c0,0.034 -0.019,0.114 -0.053,0.25l-1.345,3.187l-9.616,4.305c-0.125,0.011 -0.197,0.011 -0.232,0C47.486,26.721 47.486,26.619 47.531,26.472z" id="path_1"/><path fill="#000001" d="M32.383,55.83c4.094,0.04 6.38,-0.729 6.88,-2.309c0,-0.545 -0.521,-1.898 -1.566,-4.06l0.473,-4.06h0.308c1.359,2.34 2.033,4.687 2.033,7.025v1.407c0,0.938 -0.227,1.926 -0.674,2.959c-0.447,1.034 -1.141,1.907 -2.066,2.606c-0.934,0.707 -2.727,1 -5.387,0.881L32.383,55.83L32.383,55.83z" id="path_2"/><path fill="#DD2C00" d="M32.716,60.283c-3.033,0.18 -5.24,-1.221 -6.62,-4.2c-0.666,-1.106 -1.287,-8.565 -1.873,-22.38V33.39c0.387,-2.293 0.96,-3.439 1.713,-3.439l0.787,-0.154c0.96,0 2.42,0.313 4.373,0.934v0.313c-0.106,0.313 -0.42,0.474 -0.939,0.474h-2.654c-0.546,0 -1.066,0.307 -1.566,0.933c0.486,11.994 1.193,18.939 2.133,20.841c0.934,1.899 2.487,2.746 4.647,2.54L32.716,60.283L32.716,60.283z" id="path_3"/><path fill="#000001" d="M39.758,23.832c0.314,0.541 0.681,2.085 1.098,4.631c-0.256,1.544 -0.93,2.312 -2.02,2.312H38.69c-0.475,0 -1.09,-0.307 -1.865,-0.922c-0.526,0.93 -1.303,1.397 -2.312,1.397c-1.229,0 -1.844,-1.492 -1.844,-4.478c0.358,-1.133 0.666,-1.696 0.922,-1.696l0.146,0.153v2.634c0.212,0.914 0.476,1.367 0.775,1.367h0.622c0.644,0 1.053,-0.256 1.244,-0.768l-0.322,-2.312c0.124,-0.775 0.336,-1.186 0.621,-1.222H37c0.322,2.567 0.842,3.855 1.536,3.855h1.075v-0.154l-0.468,-3.08v-0.175C39.268,24.345 39.473,23.832 39.758,23.832z" id="path_4"/><path fill="#000001" d="M32.023,22.71l0.873,-2.598l8.465,-3.72c0.115,-0.029 0.168,-0.015 0.168,0.043c0,0.029 -0.015,0.096 -0.043,0.211L40.35,19.34l-8.129,3.639c-0.105,0.01 -0.168,0.01 -0.197,0C31.986,22.921 31.986,22.835 32.023,22.71z" id="path_5"/><path fill="#000001" d="M32.023,19.023l0.873,-2.599l8.465,-3.719c0.115,-0.029 0.168,-0.015 0.168,0.043c0,0.028 -0.015,0.096 -0.043,0.211l-1.137,2.693L32.22,19.29c-0.105,0.01 -0.168,0.01 -0.197,0C31.986,19.234 31.986,19.147 32.023,19.023z" id="path_6"/><path fill="#000001" d="M29.43,41.395V41.23c0.556,-0.777 1.35,-1.832 2.393,-3.176h0.113c0.846,0.906 1.9,1.729 3.176,2.461c0.035,0.033 0.052,0.073 0.052,0.131l-2.308,3.123c-0.023,0.013 -0.063,0.019 -0.119,0.019c-0.068,0 -0.182,-0.028 -0.347,-0.085C31.59,43.339 30.604,42.566 29.43,41.395z" id="path_7"/><path fill="#000001" d="M34.396,41.395V41.23c0.555,-0.777 1.35,-1.832 2.393,-3.176h0.113c0.846,0.906 1.9,1.729 3.176,2.461c0.034,0.033 0.051,0.073 0.051,0.131l-2.308,3.123c-0.022,0.013 -0.063,0.019 -0.119,0.019c-0.067,0 -0.182,-0.028 -0.347,-0.085C36.557,43.339 35.57,42.566 34.396,41.395z" id="path_8"/><path fill="#000001" d="M31.913,37.122v-0.165c0.556,-0.776 1.35,-1.831 2.394,-3.176h0.113c0.845,0.907 1.898,1.729 3.176,2.461c0.033,0.034 0.051,0.074 0.051,0.131l-2.309,3.125c-0.022,0.011 -0.063,0.018 -0.119,0.018c-0.067,0 -0.182,-0.029 -0.346,-0.086C34.073,39.066 33.087,38.296 31.913,37.122z" id="path_9"/></svg>