<svg id="vector" xmlns="http://www.w3.org/2000/svg" width="75" height="67" viewBox="0 0 83 73"><path fill="#DD2C00" d="M61.269,46.808c-0.034,1.088 -0.21,2.059 -0.533,2.926c-0.346,0.574 -0.602,0.873 -0.766,0.896c-0.187,0 -0.272,-0.313 -0.249,-0.93c-0.289,-6.215 -0.646,-10.559 -1.078,-13.031c-0.232,-2.219 -0.55,-4.033 -0.946,-5.439c-0.147,-0.549 -0.228,-1.061 -0.25,-1.525c-0.034,-0.867 0.091,-1.865 0.38,-2.994l0.766,-2.891c0.103,-0.092 0.21,-0.137 0.335,-0.137c0.13,0 0.221,0.191 0.261,0.584c0.057,0.504 0.124,0.816 0.21,0.93c0.085,0.107 0.38,0.998 0.89,2.67c0.329,1.102 0.743,1.963 1.23,2.592c0.029,0.223 0.052,0.432 0.063,0.637c0,0.408 -0.119,0.98 -0.356,1.723c-0.239,0.742 -0.403,1.254 -0.505,1.531l-0.131,0.5L61.269,46.808z" id="path_0"/><path fill="#213e95" d="M51.299,46.712c-1.786,1.139 -4.094,2.063 -6.93,2.771c-4.321,0.977 -7.984,1.453 -10.989,1.436c-3.006,-0.018 -5.343,-0.307 -7.004,-0.873c-1.661,-0.563 -3.119,-1.543 -4.366,-2.938c-1.077,-1.23 -1.707,-2.66 -1.895,-4.287c-0.244,-2.291 0.313,-4.764 1.679,-7.412c0.142,-0.131 0.284,-0.289 0.431,-0.471c0.143,-0.182 0.307,-0.262 0.482,-0.227l-0.017,0.402c-0.755,1.615 -1.163,3.057 -1.231,4.316c-0.034,0.441 -0.034,0.748 0,0.912c0.466,2.127 2.076,3.623 4.838,4.492c1.548,0.527 3.17,0.855 4.865,0.975c0.267,0.012 0.681,0.045 1.247,0.102c3.465,0.012 7.668,-0.396 12.606,-1.23c2.858,-0.533 4.895,-1.252 6.103,-2.16c-0.08,-0.363 -0.352,-0.777 -0.817,-1.236c-0.465,-0.459 -0.748,-0.873 -0.845,-1.236c-0.067,-1.463 0.018,-2.961 0.249,-4.484l0.199,-0.018c1.537,1.734 2.393,3.584 2.558,5.529C52.66,43.349 52.274,45.226 51.299,46.712z" id="path_1"/><path fill="#213e95" d="M39.282,21.646c0.314,0.541 0.68,2.084 1.097,4.631c-0.256,1.543 -0.929,2.311 -2.019,2.311h-0.146c-0.476,0 -1.09,-0.307 -1.865,-0.922c-0.527,0.93 -1.303,1.398 -2.312,1.398c-1.229,0 -1.844,-1.492 -1.844,-4.477c0.358,-1.135 0.666,-1.697 0.922,-1.697l0.146,0.152v2.635c0.212,0.914 0.476,1.367 0.775,1.367h0.621c0.644,0 1.054,-0.256 1.244,-0.768l-0.322,-2.313c0.125,-0.775 0.337,-1.186 0.622,-1.221h0.321c0.322,2.566 0.842,3.855 1.537,3.855h1.075v-0.154l-0.469,-3.08v-0.176C38.792,22.157 38.996,21.646 39.282,21.646z" id="path_2"/><path fill="#213e95" d="M31.422,60.552l1.032,-3.072l10.015,-4.402c0.137,-0.033 0.198,-0.016 0.198,0.053c0,0.033 -0.017,0.113 -0.051,0.248l-1.345,3.188l-9.617,4.305c-0.124,0.012 -0.198,0.012 -0.232,0C31.377,60.802 31.377,60.7 31.422,60.552z" id="path_3"/><path fill="#213e95" d="M30.937,36.573v-0.164c0.556,-0.777 1.35,-1.832 2.393,-3.176h0.113c0.846,0.908 1.9,1.73 3.176,2.461c0.034,0.035 0.052,0.074 0.052,0.131l-2.309,3.125c-0.022,0.012 -0.063,0.018 -0.119,0.018c-0.067,0 -0.182,-0.029 -0.346,-0.086C33.097,38.519 32.11,37.749 30.937,36.573z" id="path_4"/><path fill="#213e95" d="M35.902,36.573v-0.164c0.556,-0.777 1.35,-1.832 2.394,-3.176h0.113c0.845,0.908 1.899,1.73 3.176,2.461c0.034,0.035 0.051,0.074 0.051,0.131l-2.308,3.125c-0.023,0.012 -0.063,0.018 -0.119,0.018c-0.068,0 -0.182,-0.029 -0.347,-0.086C38.063,38.519 37.076,37.749 35.902,36.573z" id="path_5"/><path fill="#DD2C00" d="M55.424,21.188l-0.681,0.051l-0.102,-0.164c2.296,-1.219 4.071,-2.365 5.336,-3.441c-0.432,-0.154 -0.721,-0.313 -0.868,-0.482c-0.431,-0.295 -0.646,-0.799 -0.646,-1.508c-0.034,-1.453 0.482,-2.529 1.549,-3.238c0.34,-0.289 0.907,-0.357 1.695,-0.205c0.811,0.449 1.213,0.98 1.213,1.617c0.222,2.381 -1.332,4.514 -4.655,6.408C57.216,20.7 56.269,21.024 55.424,21.188L55.424,21.188zM61.582,15.841c0.317,-0.119 0.482,-0.334 0.482,-0.629c0,-0.5 -0.228,-0.867 -0.681,-1.1c-0.448,-0.176 -0.936,-0.182 -1.463,-0.018c-0.369,0.268 -0.562,0.504 -0.584,0.715c-0.034,0.254 0.136,0.59 0.498,0.998c0.335,0.137 0.602,0.197 0.8,0.197C60.891,16.073 61.202,16.017 61.582,15.841z" id="path_6"/></svg>