<svg id="vector" xmlns="http://www.w3.org/2000/svg" width="75" height="67" viewBox="0 0 83 73"><path fill="#000001" d="M31.183,50.109c4.094,0.04 6.38,-0.727 6.88,-2.307c0,-0.547 -0.52,-1.9 -1.566,-4.061l0.473,-4.06h0.308c1.359,2.34 2.033,4.687 2.033,7.026v1.407c0,0.939 -0.227,1.926 -0.674,2.96c-0.446,1.033 -1.14,1.906 -2.066,2.606c-0.934,0.707 -2.727,1 -5.387,0.88V50.109z" id="path_0"/><path fill="#DD2C00" d="M31.516,54.563c-3.033,0.18 -5.24,-1.22 -6.62,-4.2c-0.666,-1.106 -1.286,-8.566 -1.873,-22.38v-0.313c0.387,-2.293 0.96,-3.439 1.713,-3.439l0.787,-0.153c0.96,0 2.42,0.313 4.373,0.933v0.313c-0.106,0.313 -0.42,0.474 -0.939,0.474h-2.653c-0.547,0 -1.067,0.307 -1.567,0.934c0.487,11.993 1.193,18.939 2.134,20.84c0.934,1.899 2.486,2.746 4.646,2.54V54.563z" id="path_1"/><path fill="#213e95" d="M56.096,49.353c-0.034,1.089 -0.21,2.059 -0.533,2.927c-0.346,0.572 -0.602,0.873 -0.766,0.896c-0.188,0 -0.272,-0.312 -0.249,-0.93c-0.29,-6.215 -0.646,-10.559 -1.078,-13.032c-0.232,-2.217 -0.55,-4.031 -0.946,-5.438c-0.147,-0.55 -0.228,-1.061 -0.25,-1.525c-0.034,-0.868 0.091,-1.866 0.38,-2.995l0.766,-2.892c0.102,-0.091 0.21,-0.136 0.335,-0.136c0.13,0 0.221,0.192 0.261,0.584c0.057,0.505 0.124,0.816 0.21,0.93c0.085,0.108 0.38,0.998 0.89,2.671c0.329,1.101 0.743,1.962 1.23,2.592c0.028,0.222 0.052,0.431 0.063,0.635c0,0.408 -0.119,0.981 -0.356,1.724c-0.239,0.743 -0.403,1.254 -0.505,1.532l-0.131,0.498L56.096,49.353z" id="path_2"/><path fill="#000001" d="M38.558,22.912c0.314,0.541 0.681,2.085 1.098,4.631c-0.256,1.543 -0.929,2.312 -2.02,2.312H37.49c-0.476,0 -1.091,-0.308 -1.866,-0.922c-0.526,0.929 -1.302,1.397 -2.312,1.397c-1.229,0 -1.844,-1.492 -1.844,-4.478c0.359,-1.134 0.666,-1.697 0.922,-1.697l0.146,0.153v2.634c0.213,0.915 0.476,1.368 0.775,1.368h0.622c0.644,0 1.054,-0.256 1.244,-0.768l-0.322,-2.313c0.124,-0.775 0.336,-1.185 0.622,-1.222H35.8c0.322,2.568 0.842,3.855 1.536,3.855h1.075v-0.153l-0.468,-3.08v-0.176C38.067,23.424 38.272,22.912 38.558,22.912z" id="path_3"/><path fill="#000001" d="M30.824,21.789l0.872,-2.598l8.465,-3.72c0.115,-0.028 0.168,-0.014 0.168,0.044c0,0.028 -0.015,0.096 -0.043,0.211l-1.137,2.693l-8.129,3.638c-0.105,0.01 -0.168,0.01 -0.196,0C30.786,22 30.786,21.914 30.824,21.789z" id="path_4"/><path fill="#000001" d="M30.824,18.103l0.872,-2.598l8.465,-3.72c0.115,-0.028 0.168,-0.015 0.168,0.043c0,0.029 -0.015,0.096 -0.043,0.211l-1.137,2.694l-8.129,3.638c-0.105,0.01 -0.168,0.01 -0.196,0C30.786,18.313 30.786,18.228 30.824,18.103z" id="path_5"/><path fill="#213e95" d="M48.731,60.903l1.032,-3.074l10.015,-4.4c0.137,-0.034 0.199,-0.017 0.199,0.051c0,0.034 -0.018,0.114 -0.052,0.25l-1.344,3.187l-9.618,4.305c-0.124,0.011 -0.198,0.011 -0.232,0C48.687,61.152 48.687,61.051 48.731,60.903z" id="path_6"/><path fill="#000001" d="M28.229,35.673v-0.164c0.556,-0.777 1.35,-1.832 2.394,-3.176h0.113c0.845,0.907 1.899,1.729 3.176,2.461c0.034,0.034 0.051,0.074 0.051,0.131l-2.308,3.124c-0.023,0.012 -0.063,0.018 -0.119,0.018c-0.068,0 -0.182,-0.028 -0.347,-0.085C30.391,37.618 29.403,36.848 28.229,35.673z" id="path_7"/><path fill="#000001" d="M33.196,35.673v-0.164c0.556,-0.777 1.35,-1.832 2.393,-3.176h0.113c0.846,0.907 1.9,1.729 3.176,2.461c0.034,0.034 0.052,0.074 0.052,0.131l-2.309,3.124c-0.022,0.012 -0.063,0.018 -0.119,0.018c-0.067,0 -0.182,-0.028 -0.346,-0.085C35.356,37.618 34.37,36.848 33.196,35.673z" id="path_8"/></svg>