<svg id="vector" xmlns="http://www.w3.org/2000/svg" width="75" height="67" viewBox="0 0 83 73"><path fill="#213e95" d="M61.948,53.29c-0.034,1.089 -0.21,2.059 -0.533,2.926c-0.346,0.573 -0.601,0.873 -0.766,0.896c-0.188,0 -0.271,-0.313 -0.25,-0.931c-0.288,-6.215 -0.646,-10.559 -1.076,-13.031c-0.233,-2.217 -0.551,-4.032 -0.948,-5.438c-0.146,-0.551 -0.227,-1.062 -0.249,-1.526c-0.034,-0.867 0.091,-1.865 0.38,-2.994l0.766,-2.892c0.103,-0.091 0.21,-0.137 0.335,-0.137c0.131,0 0.221,0.193 0.261,0.584c0.057,0.505 0.124,0.817 0.21,0.931c0.085,0.107 0.38,0.998 0.89,2.671c0.329,1.1 0.743,1.962 1.231,2.592c0.027,0.221 0.051,0.431 0.063,0.635c0,0.408 -0.12,0.981 -0.357,1.724c-0.238,0.743 -0.403,1.254 -0.505,1.531l-0.131,0.499L61.948,53.29z" id="path_0"/><path fill="#000001" d="M33.599,24.956l-0.681,0.051l-0.102,-0.164c2.296,-1.219 4.071,-2.364 5.336,-3.442c-0.432,-0.153 -0.721,-0.312 -0.868,-0.481c-0.431,-0.295 -0.646,-0.8 -0.646,-1.509c-0.034,-1.451 0.482,-2.529 1.549,-3.238c0.34,-0.289 0.907,-0.356 1.695,-0.204c0.811,0.448 1.213,0.981 1.213,1.616c0.222,2.382 -1.332,4.515 -4.655,6.408C35.391,24.469 34.443,24.792 33.599,24.956L33.599,24.956zM39.757,19.608c0.317,-0.119 0.482,-0.334 0.482,-0.629c0,-0.499 -0.228,-0.867 -0.681,-1.101c-0.448,-0.176 -0.936,-0.181 -1.464,-0.017c-0.368,0.267 -0.561,0.505 -0.583,0.715c-0.034,0.255 0.136,0.589 0.498,0.997c0.335,0.137 0.602,0.199 0.8,0.199C39.065,19.841 39.377,19.784 39.757,19.608z" id="path_1"/><path fill="#000001" d="M51.979,52.879c-1.785,1.14 -4.094,2.063 -6.93,2.772c-4.32,0.976 -7.984,1.452 -10.989,1.436c-3.006,-0.018 -5.342,-0.307 -7.004,-0.874c-1.661,-0.562 -3.119,-1.542 -4.366,-2.938c-1.078,-1.23 -1.707,-2.659 -1.895,-4.287c-0.243,-2.291 0.313,-4.763 1.679,-7.411c0.142,-0.131 0.283,-0.289 0.432,-0.471c0.142,-0.182 0.306,-0.262 0.481,-0.227l-0.017,0.402c-0.755,1.616 -1.163,3.056 -1.231,4.314c-0.034,0.443 -0.034,0.749 0,0.913c0.466,2.127 2.076,3.624 4.838,4.492c1.548,0.527 3.17,0.856 4.865,0.976c0.267,0.011 0.681,0.045 1.248,0.102c3.465,0.012 7.667,-0.396 12.605,-1.23c2.858,-0.533 4.895,-1.253 6.102,-2.161c-0.079,-0.362 -0.351,-0.776 -0.815,-1.236c-0.466,-0.459 -0.749,-0.873 -0.846,-1.235c-0.067,-1.463 0.018,-2.961 0.25,-4.485l0.198,-0.018c1.537,1.735 2.394,3.584 2.558,5.529C53.34,49.516 52.954,51.393 51.979,52.879z" id="path_2"/><path fill="#000001" d="M39.962,25.413c0.314,0.541 0.681,2.085 1.098,4.631c-0.257,1.543 -0.93,2.312 -2.02,2.312h-0.146c-0.476,0 -1.09,-0.308 -1.865,-0.922c-0.526,0.929 -1.303,1.396 -2.312,1.396c-1.229,0 -1.844,-1.492 -1.844,-4.477c0.358,-1.134 0.666,-1.697 0.922,-1.697l0.146,0.153v2.634c0.212,0.914 0.476,1.368 0.775,1.368h0.621c0.645,0 1.054,-0.256 1.244,-0.768l-0.322,-2.313c0.125,-0.775 0.337,-1.185 0.622,-1.222h0.322c0.321,2.568 0.841,3.855 1.536,3.855h1.075v-0.153l-0.468,-3.08v-0.176C39.472,25.925 39.677,25.413 39.962,25.413z" id="path_3"/><path fill="#000001" d="M31.616,42.741v-0.164c0.556,-0.777 1.35,-1.832 2.394,-3.176h0.112c0.846,0.907 1.9,1.729 3.177,2.461c0.033,0.034 0.051,0.074 0.051,0.131l-2.309,3.124c-0.022,0.012 -0.062,0.018 -0.119,0.018c-0.067,0 -0.182,-0.028 -0.346,-0.085C33.776,44.687 32.79,43.916 31.616,42.741z" id="path_4"/><path fill="#000001" d="M36.582,42.741v-0.164c0.557,-0.777 1.351,-1.832 2.394,-3.176h0.113c0.846,0.907 1.899,1.729 3.176,2.461c0.034,0.034 0.051,0.074 0.051,0.131l-2.308,3.124c-0.023,0.012 -0.063,0.018 -0.119,0.018c-0.068,0 -0.182,-0.028 -0.346,-0.085C38.743,44.687 37.756,43.916 36.582,42.741z" id="path_5"/><path fill="#213e95" d="M54.045,24.956l-0.681,0.051l-0.102,-0.164c2.296,-1.219 4.071,-2.364 5.336,-3.442c-0.432,-0.153 -0.721,-0.312 -0.868,-0.481c-0.431,-0.295 -0.646,-0.8 -0.646,-1.509c-0.034,-1.451 0.482,-2.529 1.549,-3.238c0.34,-0.289 0.907,-0.356 1.695,-0.204c0.811,0.448 1.213,0.981 1.213,1.616c0.222,2.382 -1.332,4.515 -4.655,6.408C55.837,24.469 54.89,24.792 54.045,24.956L54.045,24.956zM60.203,19.608c0.317,-0.119 0.482,-0.334 0.482,-0.629c0,-0.499 -0.228,-0.867 -0.681,-1.101c-0.448,-0.176 -0.936,-0.181 -1.464,-0.017c-0.368,0.267 -0.561,0.505 -0.583,0.715c-0.034,0.255 0.136,0.589 0.498,0.997c0.335,0.137 0.602,0.199 0.8,0.199C59.512,19.841 59.823,19.784 60.203,19.608z" id="path_6"/><path fill="#000001" d="M34.1,37.643v-0.164c0.556,-0.777 1.35,-1.832 2.393,-3.176h0.113c0.846,0.907 1.9,1.729 3.176,2.461c0.034,0.034 0.052,0.074 0.052,0.13l-2.309,3.125c-0.022,0.012 -0.063,0.018 -0.119,0.018c-0.067,0 -0.182,-0.028 -0.346,-0.086C36.26,39.588 35.273,38.816 34.1,37.643z" id="path_7"/></svg>