<svg id="vector" xmlns="http://www.w3.org/2000/svg" width="75" height="67" viewBox="0 0 83 73"><path fill="#213e95" d="M57.503,42.046c-0.033,1.089 -0.21,2.059 -0.533,2.927c-0.346,0.572 -0.602,0.873 -0.766,0.896c-0.188,0 -0.271,-0.312 -0.249,-0.931c-0.29,-6.215 -0.646,-10.559 -1.077,-13.031c-0.232,-2.217 -0.551,-4.031 -0.947,-5.438c-0.147,-0.551 -0.227,-1.061 -0.25,-1.525c-0.034,-0.868 0.091,-1.866 0.38,-2.995l0.766,-2.892c0.103,-0.091 0.21,-0.137 0.335,-0.137c0.131,0 0.221,0.193 0.261,0.585c0.057,0.504 0.124,0.816 0.21,0.93c0.085,0.107 0.38,0.998 0.891,2.671c0.328,1.101 0.742,1.962 1.23,2.592c0.027,0.221 0.051,0.431 0.063,0.635c0,0.408 -0.119,0.981 -0.357,1.724c-0.238,0.743 -0.402,1.254 -0.505,1.531l-0.13,0.499L57.503,42.046z" id="path_0"/><path fill="#213e95" d="M50.108,54.766l1.031,-3.073l10.016,-4.4c0.137,-0.034 0.198,-0.018 0.198,0.051c0,0.034 -0.017,0.113 -0.052,0.25l-1.344,3.187l-9.617,4.304c-0.125,0.012 -0.198,0.012 -0.232,0C50.063,55.016 50.063,54.913 50.108,54.766z" id="path_1"/><path fill="#000001" d="M33.116,12.084c0.314,0.541 0.681,2.084 1.098,4.63c-0.256,1.544 -0.929,2.313 -2.02,2.313h-0.146c-0.476,0 -1.091,-0.308 -1.866,-0.922c-0.526,0.929 -1.302,1.396 -2.312,1.396c-1.229,0 -1.844,-1.492 -1.844,-4.477c0.359,-1.134 0.666,-1.697 0.922,-1.697l0.146,0.153v2.634c0.213,0.914 0.476,1.368 0.775,1.368h0.622c0.644,0 1.054,-0.256 1.244,-0.769l-0.322,-2.312c0.124,-0.775 0.336,-1.185 0.622,-1.222h0.321c0.322,2.567 0.842,3.855 1.536,3.855h1.075v-0.153l-0.468,-3.08v-0.176C32.626,12.596 32.831,12.084 33.116,12.084z" id="path_2"/><path fill="#DD2C00" d="M27.657,60.591l1.031,-3.073l10.015,-4.4c0.137,-0.034 0.199,-0.018 0.199,0.051c0,0.034 -0.018,0.113 -0.052,0.249l-1.344,3.188l-9.617,4.304c-0.125,0.012 -0.199,0.012 -0.232,0C27.611,60.84 27.611,60.738 27.657,60.591z" id="path_3"/><path fill="#000001" d="M31.021,33.572h0.303c0.729,0 1.787,0.703 3.174,2.116v0.148c0,0.657 -0.6,1.664 -1.813,3.025c-2.116,-0.555 -3.174,-1.31 -3.174,-2.271C29.813,35.508 30.317,34.501 31.021,33.572z" id="path_4"/><path fill="#000001" d="M39.033,21.321l0.154,0.154v0.148c-0.528,2.723 -1.69,4.084 -3.478,4.084c-2.245,0 -4.761,1.006 -7.561,3.025c-3.123,2.619 -4.69,5.594 -4.69,8.916c0,4.517 2.574,7.639 7.716,9.374l5.29,0.458l8.471,-0.606h1.658l0.155,0.148v0.155c0,0.58 -1.562,1.438 -4.69,2.567c-1.271,0.555 -3.891,1.161 -7.864,1.819c-5.161,0 -8.438,-1.316 -9.826,-3.936c-1.612,-2.368 -2.419,-5.142 -2.419,-8.315c0,-5.168 2.116,-9.601 6.349,-13.304h-3.323c-0.806,0 -1.813,0.703 -3.025,2.116l-0.303,-0.303v-0.304c1.006,-3.832 2.573,-5.748 4.689,-5.748C26.736,21.876 30.969,21.728 39.033,21.321z" id="path_5"/></svg>