<svg id="vector" xmlns="http://www.w3.org/2000/svg" width="75" height="67" viewBox="0 0 83 73"><path fill="#000001" d="M60.151,46.791c-0.034,1.089 -0.21,2.059 -0.533,2.926c-0.346,0.573 -0.602,0.873 -0.766,0.896c-0.187,0 -0.272,-0.312 -0.249,-0.93c-0.289,-6.215 -0.646,-10.559 -1.078,-13.031c-0.232,-2.217 -0.55,-4.032 -0.946,-5.438c-0.147,-0.55 -0.228,-1.061 -0.25,-1.526c-0.034,-0.868 0.091,-1.866 0.38,-2.995l0.766,-2.892c0.103,-0.091 0.21,-0.136 0.335,-0.136c0.13,0 0.221,0.193 0.261,0.584c0.057,0.504 0.124,0.816 0.21,0.93c0.085,0.108 0.38,0.998 0.89,2.671c0.329,1.1 0.743,1.962 1.23,2.592c0.029,0.221 0.052,0.431 0.063,0.635c0,0.408 -0.119,0.981 -0.356,1.724c-0.239,0.743 -0.403,1.253 -0.505,1.531l-0.131,0.499L60.151,46.791z" id="path_0"/><path fill="#000001" d="M52.757,17.229l1.031,-3.074l10.016,-4.4c0.136,-0.034 0.198,-0.017 0.198,0.051c0,0.034 -0.017,0.113 -0.051,0.249l-1.345,3.187l-9.617,4.304c-0.125,0.012 -0.198,0.012 -0.232,0C52.711,17.479 52.711,17.376 52.757,17.229z" id="path_1"/><path fill="#213e95" d="M32.358,53.051v-0.165c0.556,-0.777 1.35,-1.832 2.394,-3.176h0.113c0.845,0.907 1.899,1.73 3.176,2.461c0.034,0.034 0.051,0.074 0.051,0.13l-2.308,3.125c-0.023,0.011 -0.063,0.017 -0.119,0.017c-0.068,0 -0.182,-0.028 -0.346,-0.085C34.52,54.996 33.532,54.225 32.358,53.051z" id="path_2"/><path fill="#213e95" d="M50.238,43.156c-1.786,1.14 -4.094,2.064 -6.93,2.773c-4.321,0.976 -7.984,1.451 -10.99,1.435c-3.005,-0.017 -5.342,-0.306 -7.003,-0.873c-1.662,-0.562 -3.119,-1.543 -4.367,-2.938c-1.077,-1.231 -1.706,-2.66 -1.894,-4.288c-0.244,-2.291 0.312,-4.763 1.679,-7.412c0.142,-0.13 0.283,-0.289 0.431,-0.471c0.142,-0.181 0.307,-0.261 0.482,-0.227l-0.018,0.402c-0.754,1.616 -1.162,3.057 -1.23,4.316c-0.034,0.442 -0.034,0.749 0,0.913c0.466,2.126 2.076,3.624 4.837,4.491c1.549,0.528 3.17,0.856 4.866,0.976c0.267,0.011 0.681,0.045 1.247,0.102c3.465,0.012 7.667,-0.396 12.606,-1.23c2.858,-0.533 4.895,-1.253 6.102,-2.161c-0.079,-0.363 -0.352,-0.777 -0.816,-1.236s-0.749,-0.873 -0.845,-1.236c-0.068,-1.463 0.017,-2.96 0.249,-4.486l0.199,-0.017c1.537,1.735 2.393,3.584 2.558,5.529C51.6,39.793 51.214,41.67 50.238,43.156z" id="path_3"/><path fill="#213e95" d="M38.222,26.429c0.313,0.541 0.68,2.085 1.097,4.63c-0.256,1.544 -0.929,2.312 -2.019,2.312h-0.146c-0.476,0 -1.091,-0.308 -1.865,-0.922c-0.527,0.929 -1.303,1.397 -2.313,1.397c-1.229,0 -1.843,-1.492 -1.843,-4.477c0.358,-1.134 0.665,-1.697 0.921,-1.697l0.146,0.153v2.634c0.213,0.914 0.476,1.368 0.775,1.368h0.622c0.644,0 1.054,-0.256 1.244,-0.768l-0.322,-2.312c0.124,-0.775 0.337,-1.185 0.622,-1.222h0.321c0.322,2.568 0.842,3.855 1.536,3.855h1.075v-0.153l-0.468,-3.08v-0.175C37.73,26.94 37.936,26.429 38.222,26.429z" id="path_4"/><path fill="#213e95" d="M29.62,62.936l1.031,-3.074l10.015,-4.4c0.137,-0.034 0.199,-0.017 0.199,0.051c0,0.034 -0.018,0.114 -0.052,0.25l-1.344,3.187l-9.617,4.304c-0.125,0.011 -0.199,0.011 -0.232,0C29.574,63.185 29.574,63.083 29.62,62.936z" id="path_5"/></svg>