<svg id="vector" xmlns="http://www.w3.org/2000/svg" width="75" height="67" viewBox="0 0 83 73"><path fill="#DD2C00" d="M57.249,55.902c-0.033,1.089 -0.21,2.059 -0.533,2.927c-0.346,0.573 -0.601,0.873 -0.766,0.896c-0.187,0 -0.271,-0.312 -0.249,-0.93c-0.289,-6.215 -0.646,-10.559 -1.077,-13.031c-0.232,-2.218 -0.551,-4.032 -0.947,-5.438c-0.147,-0.55 -0.227,-1.061 -0.25,-1.525c-0.034,-0.868 0.091,-1.866 0.38,-2.995l0.766,-2.892c0.103,-0.091 0.21,-0.136 0.335,-0.136c0.131,0 0.222,0.192 0.261,0.584c0.057,0.505 0.125,0.816 0.21,0.93c0.085,0.108 0.38,0.998 0.89,2.671c0.329,1.101 0.743,1.963 1.231,2.592c0.028,0.222 0.051,0.431 0.063,0.635c0,0.408 -0.12,0.981 -0.357,1.725c-0.238,0.742 -0.403,1.253 -0.505,1.531l-0.131,0.499L57.249,55.902z" id="path_0"/><path fill="#000001" d="M35.262,21.14c0.314,0.542 0.681,2.085 1.098,4.631c-0.257,1.544 -0.93,2.312 -2.02,2.312h-0.146c-0.476,0 -1.09,-0.307 -1.865,-0.922c-0.526,0.93 -1.302,1.397 -2.312,1.397c-1.229,0 -1.844,-1.492 -1.844,-4.477c0.358,-1.134 0.666,-1.697 0.922,-1.697l0.146,0.153v2.634c0.212,0.914 0.476,1.368 0.775,1.368h0.621c0.645,0 1.054,-0.257 1.244,-0.769l-0.322,-2.312c0.125,-0.775 0.337,-1.186 0.622,-1.222h0.322c0.321,2.567 0.841,3.855 1.536,3.855h1.075v-0.154l-0.468,-3.079v-0.176C34.772,21.652 34.977,21.14 35.262,21.14z" id="path_1"/><path fill="#000001" d="M26.661,19.758l1.032,-3.074l10.015,-4.4c0.136,-0.034 0.198,-0.017 0.198,0.052c0,0.033 -0.017,0.113 -0.051,0.249l-1.345,3.187l-9.617,4.305c-0.124,0.011 -0.198,0.011 -0.232,0C26.616,20.007 26.616,19.905 26.661,19.758z" id="path_2"/><path fill="#DD2C00" d="M52.092,30.284l-0.681,0.051l-0.102,-0.164c2.296,-1.22 4.071,-2.365 5.336,-3.442c-0.431,-0.153 -0.721,-0.313 -0.868,-0.482c-0.431,-0.295 -0.646,-0.799 -0.646,-1.509c-0.034,-1.451 0.482,-2.528 1.549,-3.237c0.34,-0.289 0.907,-0.357 1.695,-0.204c0.811,0.448 1.214,0.98 1.214,1.616c0.221,2.382 -1.333,4.514 -4.656,6.408C53.884,29.796 52.937,30.119 52.092,30.284L52.092,30.284zM58.25,24.937c0.317,-0.119 0.482,-0.335 0.482,-0.63c0,-0.499 -0.228,-0.867 -0.681,-1.1c-0.448,-0.176 -0.936,-0.182 -1.463,-0.018c-0.369,0.268 -0.562,0.505 -0.584,0.715c-0.034,0.255 0.136,0.59 0.499,0.998c0.334,0.137 0.601,0.198 0.799,0.198C57.559,25.169 57.871,25.112 58.25,24.937z" id="path_3"/><path fill="#000001" d="M32.764,42.74h0.303c0.729,0 1.787,0.704 3.175,2.116v0.148c0,0.658 -0.601,1.665 -1.813,3.026c-2.115,-0.555 -3.174,-1.31 -3.174,-2.271C31.558,44.676 32.061,43.67 32.764,42.74z" id="path_4"/><path fill="#000001" d="M40.777,30.489l0.154,0.155v0.148c-0.528,2.722 -1.689,4.083 -3.477,4.083c-2.245,0 -4.762,1.007 -7.562,3.026c-3.123,2.619 -4.69,5.593 -4.69,8.916c0,4.516 2.574,7.639 7.716,9.374l5.291,0.458l8.471,-0.606h1.657l0.155,0.148v0.154c0,0.581 -1.561,1.438 -4.69,2.567c-1.271,0.556 -3.89,1.162 -7.864,1.819c-5.161,0 -8.438,-1.315 -9.825,-3.935c-1.613,-2.368 -2.42,-5.143 -2.42,-8.316c0,-5.168 2.116,-9.6 6.349,-13.303h-3.322c-0.807,0 -1.813,0.703 -3.026,2.116l-0.303,-0.304v-0.303c1.006,-3.832 2.574,-5.749 4.689,-5.749C28.48,31.044 32.712,30.896 40.777,30.489z" id="path_5"/></svg>