<svg id="vector" xmlns="http://www.w3.org/2000/svg" width="75" height="67" viewBox="0 0 83 73"><path fill="#213e95" d="M60.18,43.925c-0.034,1.089 -0.21,2.059 -0.533,2.927c-0.346,0.573 -0.602,0.873 -0.766,0.896c-0.188,0 -0.271,-0.313 -0.25,-0.931c-0.289,-6.215 -0.646,-10.559 -1.077,-13.031c-0.232,-2.217 -0.55,-4.032 -0.946,-5.438c-0.148,-0.55 -0.228,-1.061 -0.25,-1.525c-0.034,-0.868 0.09,-1.866 0.38,-2.995l0.766,-2.892c0.103,-0.091 0.21,-0.137 0.335,-0.137c0.131,0 0.221,0.193 0.26,0.584c0.058,0.504 0.125,0.816 0.211,0.93c0.084,0.107 0.379,0.998 0.89,2.671c0.329,1.1 0.743,1.962 1.231,2.591c0.027,0.221 0.051,0.431 0.062,0.635c0,0.408 -0.119,0.981 -0.356,1.724c-0.238,0.743 -0.403,1.253 -0.506,1.531l-0.13,0.499L60.18,43.925z" id="path_0"/><path fill="#213e95" d="M52.785,18.417l1.031,-3.074l10.016,-4.4c0.136,-0.034 0.198,-0.017 0.198,0.051c0,0.034 -0.017,0.113 -0.052,0.25l-1.344,3.187l-9.617,4.304c-0.125,0.011 -0.199,0.011 -0.232,0C52.74,18.667 52.74,18.564 52.785,18.417z" id="path_1"/><path fill="#000001" d="M32.387,47.786v-0.164c0.557,-0.777 1.35,-1.832 2.394,-3.176h0.112c0.846,0.907 1.9,1.729 3.176,2.461c0.035,0.034 0.052,0.074 0.052,0.13l-2.308,3.125c-0.023,0.012 -0.063,0.018 -0.119,0.018c-0.068,0 -0.182,-0.028 -0.346,-0.085C34.547,49.731 33.561,48.96 32.387,47.786z" id="path_2"/><path fill="#000001" d="M50.21,37.89c-1.786,1.14 -4.094,2.064 -6.93,2.773c-4.321,0.976 -7.984,1.452 -10.989,1.435c-3.006,-0.017 -5.342,-0.307 -7.004,-0.874c-1.662,-0.562 -3.119,-1.542 -4.367,-2.938c-1.076,-1.23 -1.706,-2.659 -1.894,-4.287c-0.244,-2.291 0.312,-4.763 1.679,-7.412c0.143,-0.13 0.283,-0.289 0.432,-0.471c0.141,-0.181 0.306,-0.261 0.481,-0.227l-0.017,0.402c-0.754,1.616 -1.163,3.056 -1.23,4.315c-0.035,0.442 -0.035,0.749 0,0.913c0.465,2.126 2.074,3.624 4.836,4.491c1.549,0.528 3.17,0.856 4.866,0.976C30.34,37 30.754,37.034 31.32,37.09c3.465,0.012 7.668,-0.396 12.606,-1.23c2.858,-0.533 4.894,-1.253 6.103,-2.161c-0.08,-0.362 -0.352,-0.776 -0.817,-1.236c-0.465,-0.459 -0.749,-0.873 -0.845,-1.236c-0.068,-1.463 0.018,-2.96 0.25,-4.485l0.198,-0.017c1.536,1.735 2.393,3.583 2.558,5.529C51.571,34.528 51.186,36.404 50.21,37.89z" id="path_3"/><path fill="#000001" d="M38.193,21.164c0.314,0.541 0.68,2.085 1.097,4.63c-0.256,1.543 -0.929,2.312 -2.019,2.312h-0.146c-0.476,0 -1.09,-0.308 -1.865,-0.922c-0.527,0.929 -1.303,1.397 -2.313,1.397c-1.229,0 -1.844,-1.492 -1.844,-4.477c0.359,-1.134 0.666,-1.697 0.922,-1.697l0.146,0.154v2.634c0.213,0.914 0.477,1.368 0.775,1.368h0.622c0.644,0 1.054,-0.256 1.244,-0.768l-0.322,-2.312c0.124,-0.775 0.337,-1.185 0.622,-1.222h0.322c0.321,2.567 0.841,3.855 1.535,3.855h1.076v-0.153l-0.469,-3.08v-0.175C37.703,21.675 37.908,21.164 38.193,21.164z" id="path_4"/><path fill="#000001" d="M30.459,61.798l0.872,-2.598l8.465,-3.719c0.115,-0.029 0.168,-0.015 0.168,0.043c0,0.029 -0.015,0.096 -0.044,0.211l-1.136,2.694l-8.129,3.638c-0.105,0.01 -0.167,0.01 -0.196,0C30.42,62.009 30.42,61.923 30.459,61.798z" id="path_5"/><path fill="#000001" d="M30.459,58.111l0.872,-2.598l8.465,-3.719c0.115,-0.029 0.168,-0.014 0.168,0.043c0,0.029 -0.015,0.096 -0.044,0.211l-1.136,2.694l-8.129,3.638c-0.105,0.01 -0.167,0.01 -0.196,0C30.42,58.322 30.42,58.236 30.459,58.111z" id="path_6"/></svg>