<svg id="vector" xmlns="http://www.w3.org/2000/svg" width="75" height="67" viewBox="0 0 83 73"><path fill="#DD2C00" d="M60.163,53.801c-0.034,1.088 -0.21,2.059 -0.533,2.926c-0.346,0.572 -0.601,0.873 -0.766,0.896c-0.187,0 -0.272,-0.313 -0.249,-0.932c-0.289,-6.215 -0.646,-10.559 -1.078,-13.031c-0.232,-2.217 -0.55,-4.031 -0.947,-5.438c-0.146,-0.551 -0.227,-1.061 -0.249,-1.525c-0.034,-0.867 0.091,-1.865 0.38,-2.994l0.766,-2.893c0.102,-0.09 0.21,-0.137 0.334,-0.137c0.131,0 0.223,0.193 0.262,0.586c0.057,0.504 0.125,0.816 0.21,0.93c0.085,0.107 0.38,0.998 0.89,2.67c0.33,1.1 0.743,1.963 1.23,2.592c0.029,0.221 0.052,0.432 0.063,0.635c0,0.408 -0.119,0.982 -0.357,1.725s-0.402,1.254 -0.504,1.531l-0.131,0.498L60.163,53.801z" id="path_0"/><path fill="#000001" d="M50.193,53.484c-1.785,1.141 -4.094,2.064 -6.93,2.773c-4.32,0.975 -7.984,1.451 -10.99,1.436c-3.005,-0.018 -5.342,-0.307 -7.003,-0.875c-1.661,-0.561 -3.118,-1.541 -4.366,-2.938c-1.078,-1.23 -1.707,-2.658 -1.895,-4.287c-0.244,-2.291 0.313,-4.762 1.679,-7.41c0.142,-0.131 0.284,-0.289 0.431,-0.471c0.143,-0.182 0.307,-0.262 0.482,-0.227l-0.018,0.402c-0.754,1.615 -1.162,3.055 -1.23,4.314c-0.033,0.443 -0.033,0.748 0,0.914c0.466,2.125 2.076,3.623 4.838,4.49c1.548,0.527 3.17,0.857 4.865,0.977c0.267,0.01 0.681,0.045 1.248,0.102c3.465,0.012 7.666,-0.396 12.605,-1.23c2.858,-0.533 4.895,-1.254 6.102,-2.162c-0.079,-0.361 -0.351,-0.775 -0.816,-1.236c-0.465,-0.459 -0.748,-0.873 -0.845,-1.234c-0.067,-1.463 0.017,-2.961 0.249,-4.486l0.199,-0.018c1.537,1.736 2.393,3.584 2.558,5.529C51.555,50.121 51.17,51.998 50.193,53.484z" id="path_1"/><path fill="#000001" d="M38.177,26.238c0.313,0.541 0.681,2.084 1.097,4.631c-0.256,1.543 -0.929,2.311 -2.019,2.311h-0.146c-0.476,0 -1.091,-0.307 -1.865,-0.922c-0.526,0.93 -1.302,1.398 -2.312,1.398c-1.229,0 -1.844,-1.492 -1.844,-4.479c0.358,-1.133 0.666,-1.697 0.922,-1.697l0.146,0.154v2.635c0.212,0.914 0.475,1.367 0.775,1.367h0.621c0.645,0 1.054,-0.256 1.244,-0.768l-0.322,-2.313c0.125,-0.775 0.337,-1.186 0.622,-1.221h0.321c0.322,2.566 0.842,3.854 1.537,3.854h1.074v-0.152l-0.467,-3.08v-0.176C37.686,26.75 37.891,26.238 38.177,26.238z" id="path_2"/><path fill="#000001" d="M35.196,16.76c0.208,-0.104 0.305,-0.033 0.296,0.203c-1.045,1.154 -1.867,2.25 -2.464,3.291c-0.171,0.406 -0.269,0.74 -0.292,1.008s0.047,0.555 0.213,0.859h0.203c0.079,-0.453 0.241,-0.68 0.486,-0.68c0.291,0.129 0.453,0.26 0.484,0.393v0.189c0.02,1.031 -0.271,1.65 -0.877,1.859H32.76c-0.651,-0.131 -0.975,-0.879 -0.975,-2.252C31.785,19.963 32.922,18.34 35.196,16.76L35.196,16.76zM37.337,18.52c-1.392,0 -2.298,1.004 -2.724,3.02c0,0.785 0.356,1.404 1.068,1.854v0.098c-2.645,1.252 -4.008,1.973 -4.086,2.152c-0.037,0.01 -0.042,0.033 -0.01,0.066c0.032,0.035 0.074,0.064 0.129,0.082c0.057,0.02 0.107,0.033 0.162,0.041c1.517,0 3.213,-0.586 5.08,-1.76c1.072,-0.561 1.688,-1.762 1.84,-3.602V20.17C38.654,19.07 38.164,18.52 37.337,18.52L37.337,18.52zM35.59,20.563c0,-0.143 0.258,-0.277 0.771,-0.393c0.976,0 1.461,0.457 1.461,1.369c-0.043,0.199 -0.236,0.295 -0.583,0.295h-0.282c-0.91,-0.115 -1.367,-0.508 -1.367,-1.178V20.563z" id="path_3"/><path fill="#DD2C00" d="M52.799,22.799l1.032,-3.074l10.015,-4.4c0.137,-0.035 0.199,-0.018 0.199,0.051c0,0.033 -0.018,0.113 -0.051,0.25l-1.345,3.186l-9.618,4.305c-0.124,0.012 -0.197,0.012 -0.232,0C52.754,23.047 52.754,22.945 52.799,22.799z" id="path_4"/><path fill="#000001" d="M29.83,43.348v-0.164c0.557,-0.777 1.351,-1.832 2.395,-3.176h0.113c0.845,0.906 1.898,1.729 3.176,2.461c0.033,0.033 0.051,0.074 0.051,0.131l-2.309,3.123c-0.022,0.012 -0.063,0.018 -0.119,0.018c-0.067,0 -0.182,-0.027 -0.346,-0.084C31.991,45.293 31.004,44.521 29.83,43.348z" id="path_5"/><path fill="#000001" d="M34.797,43.348v-0.164c0.557,-0.777 1.35,-1.832 2.394,-3.176h0.113c0.845,0.906 1.899,1.729 3.176,2.461c0.034,0.033 0.051,0.074 0.051,0.131l-2.308,3.123c-0.023,0.012 -0.063,0.018 -0.119,0.018c-0.068,0 -0.182,-0.027 -0.346,-0.084C36.957,45.293 35.971,44.521 34.797,43.348z" id="path_6"/><path fill="#000001" d="M32.314,38.248v-0.164c0.555,-0.777 1.35,-1.832 2.393,-3.176h0.113c0.846,0.908 1.9,1.73 3.176,2.461c0.034,0.035 0.051,0.074 0.051,0.131l-2.308,3.125c-0.022,0.012 -0.062,0.018 -0.119,0.018c-0.067,0 -0.182,-0.029 -0.346,-0.086C34.475,40.193 33.488,39.422 32.314,38.248z" id="path_7"/></svg>