<svg id="vector" xmlns="http://www.w3.org/2000/svg" width="75" height="67" viewBox="0 0 83 73"><path fill="#213e95" d="M56.468,51.086c-0.034,1.09 -0.211,2.059 -0.533,2.928c-0.346,0.572 -0.602,0.873 -0.766,0.895c-0.188,0 -0.272,-0.311 -0.25,-0.93c-0.289,-6.215 -0.646,-10.559 -1.077,-13.031c-0.232,-2.217 -0.55,-4.031 -0.947,-5.438c-0.147,-0.551 -0.227,-1.061 -0.249,-1.525c-0.035,-0.869 0.09,-1.867 0.379,-2.996l0.766,-2.891c0.103,-0.092 0.211,-0.137 0.335,-0.137c0.131,0 0.222,0.193 0.261,0.584c0.057,0.506 0.125,0.816 0.211,0.93c0.084,0.109 0.379,0.998 0.889,2.672c0.33,1.1 0.744,1.963 1.231,2.592c0.028,0.221 0.052,0.43 0.063,0.635c0,0.408 -0.12,0.98 -0.357,1.725c-0.238,0.742 -0.403,1.252 -0.505,1.531l-0.131,0.498L56.468,51.086z" id="path_0"/><path fill="#213e95" d="M49.104,21.363l1.032,-3.074l10.015,-4.4c0.136,-0.033 0.198,-0.016 0.198,0.051c0,0.035 -0.017,0.113 -0.051,0.25l-1.345,3.188l-9.617,4.305c-0.124,0.01 -0.198,0.01 -0.232,0C49.058,21.613 49.058,21.51 49.104,21.363z" id="path_1"/><path fill="#DD2C00" d="M38.93,23.525c0.314,0.541 0.681,2.084 1.097,4.629c-0.256,1.545 -0.929,2.313 -2.019,2.313h-0.146c-0.476,0 -1.09,-0.307 -1.865,-0.922c-0.526,0.93 -1.302,1.396 -2.312,1.396c-1.229,0 -1.844,-1.492 -1.844,-4.477c0.358,-1.133 0.666,-1.697 0.922,-1.697l0.146,0.154v2.633c0.212,0.914 0.476,1.369 0.775,1.369h0.621c0.645,0 1.055,-0.256 1.244,-0.77l-0.322,-2.311c0.125,-0.775 0.337,-1.186 0.623,-1.223h0.32c0.322,2.568 0.842,3.855 1.537,3.855h1.075v-0.154l-0.468,-3.078v-0.176C38.439,24.037 38.644,23.525 38.93,23.525z" id="path_2"/><path fill="#DD2C00" d="M31.196,22.402l0.872,-2.598l8.464,-3.721c0.115,-0.027 0.168,-0.014 0.168,0.043c0,0.029 -0.014,0.096 -0.043,0.211l-1.136,2.695l-8.13,3.637c-0.105,0.01 -0.167,0.01 -0.195,0C31.157,22.613 31.157,22.527 31.196,22.402z" id="path_3"/><path fill="#DD2C00" d="M31.196,18.715l0.872,-2.598l8.464,-3.719c0.115,-0.029 0.168,-0.016 0.168,0.043c0,0.029 -0.014,0.096 -0.043,0.211l-1.136,2.693l-8.13,3.639c-0.105,0.01 -0.167,0.01 -0.195,0C31.157,18.926 31.157,18.84 31.196,18.715z" id="path_4"/><path fill="#DD2C00" d="M37.815,55.217c1.988,0.994 2.981,1.85 2.981,2.559c-0.945,1.871 -1.515,2.816 -1.702,2.842H38.81c-1.455,-0.734 -2.357,-1.4 -2.697,-1.988C36.439,57.551 37.009,56.41 37.815,55.217z" id="path_5"/><path fill="#DD2C00" d="M30.069,51.453h1.637c1.728,-0.236 4.473,-0.879 8.236,-1.914v-0.146c-3.43,-1.516 -5.605,-2.273 -6.533,-2.273c-1.254,0 -2.104,0.711 -2.558,2.135l-0.425,0.285c-0.188,0 -0.284,-0.146 -0.284,-0.432c0.473,-2.836 1.751,-4.26 3.837,-4.26h0.709c0.879,0 3.859,0.994 8.951,2.982l3.836,0.283l0.279,0.432c-0.066,0.635 -0.637,1.865 -1.703,3.689h-0.425l-0.569,-0.145h-0.709c-7.388,2.182 -11.697,3.314 -12.928,3.412h-1.352V51.453z" id="path_6"/><path fill="#DD2C00" d="M30.372,55.502c-2.757,0.164 -4.763,-1.109 -6.018,-3.818c-0.605,-1.006 -1.17,-7.787 -1.703,-20.346v-0.285c0.352,-2.084 0.873,-3.127 1.559,-3.127l0.715,-0.139c0.872,0 2.199,0.285 3.976,0.848v0.285c-0.097,0.285 -0.382,0.432 -0.854,0.432h-2.412c-0.497,0 -0.971,0.277 -1.424,0.848c0.441,10.902 1.084,17.219 1.938,18.945c0.849,1.727 2.261,2.496 4.224,2.309V55.502z" id="path_7"/></svg>