<svg id="vector" xmlns="http://www.w3.org/2000/svg" width="75" height="67" viewBox="0 0 83 73"><path fill="#DD2C00" d="M60.164,39.954c-0.034,1.089 -0.21,2.059 -0.533,2.927c-0.346,0.572 -0.602,0.873 -0.766,0.896c-0.188,0 -0.272,-0.312 -0.249,-0.93c-0.289,-6.215 -0.646,-10.559 -1.078,-13.032c-0.232,-2.217 -0.55,-4.031 -0.947,-5.438c-0.146,-0.55 -0.227,-1.061 -0.249,-1.525c-0.034,-0.868 0.091,-1.866 0.38,-2.995l0.766,-2.892c0.103,-0.091 0.21,-0.136 0.335,-0.136c0.13,0 0.221,0.192 0.261,0.584c0.057,0.505 0.124,0.816 0.21,0.93c0.085,0.108 0.38,0.998 0.89,2.671c0.329,1.101 0.743,1.962 1.231,2.592c0.028,0.222 0.051,0.431 0.062,0.635c0,0.408 -0.119,0.981 -0.356,1.724c-0.238,0.743 -0.403,1.254 -0.505,1.532l-0.131,0.498L60.164,39.954z" id="path_0"/><path fill="#213e95" d="M50.194,42.039c-1.786,1.14 -4.094,2.064 -6.93,2.772c-4.322,0.977 -7.985,1.452 -10.991,1.436c-3.005,-0.018 -5.342,-0.307 -7.003,-0.874c-1.661,-0.562 -3.119,-1.542 -4.366,-2.938c-1.077,-1.23 -1.707,-2.659 -1.895,-4.287c-0.244,-2.291 0.313,-4.763 1.679,-7.411c0.142,-0.131 0.283,-0.289 0.431,-0.471c0.143,-0.182 0.307,-0.261 0.482,-0.227l-0.018,0.402c-0.754,1.616 -1.162,3.057 -1.23,4.315c-0.034,0.442 -0.034,0.748 0,0.913c0.466,2.126 2.076,3.623 4.838,4.491c1.548,0.527 3.17,0.856 4.865,0.976c0.267,0.011 0.681,0.045 1.247,0.102c3.465,0.012 7.668,-0.396 12.607,-1.23c2.858,-0.533 4.895,-1.253 6.102,-2.161c-0.079,-0.362 -0.351,-0.776 -0.816,-1.235c-0.465,-0.46 -0.748,-0.874 -0.845,-1.236c-0.067,-1.463 0.017,-2.961 0.249,-4.485l0.199,-0.018c1.537,1.735 2.393,3.584 2.558,5.529C51.556,38.677 51.17,40.553 50.194,42.039z" id="path_1"/><path fill="#213e95" d="M38.177,16.045c0.314,0.541 0.68,2.085 1.097,4.631c-0.256,1.544 -0.929,2.312 -2.019,2.312h-0.146c-0.476,0 -1.09,-0.308 -1.865,-0.922c-0.527,0.93 -1.303,1.397 -2.312,1.397c-1.229,0 -1.844,-1.492 -1.844,-4.478c0.358,-1.134 0.666,-1.696 0.922,-1.696l0.146,0.153v2.634c0.213,0.914 0.476,1.367 0.776,1.367h0.621c0.644,0 1.054,-0.256 1.244,-0.768l-0.322,-2.312c0.124,-0.775 0.337,-1.186 0.622,-1.222h0.321c0.322,2.567 0.842,3.854 1.537,3.854h1.075v-0.153l-0.469,-3.08v-0.175C37.687,16.557 37.891,16.045 38.177,16.045z" id="path_2"/><path fill="#213e95" d="M30.443,56.68l0.872,-2.598l8.465,-3.72c0.115,-0.028 0.168,-0.015 0.168,0.043c0,0.029 -0.015,0.096 -0.043,0.211l-1.137,2.694l-8.129,3.638c-0.105,0.01 -0.168,0.01 -0.196,0C30.405,56.891 30.405,56.805 30.443,56.68z" id="path_3"/><path fill="#213e95" d="M30.443,52.993l0.872,-2.598l8.465,-3.72c0.115,-0.029 0.168,-0.015 0.168,0.043c0,0.029 -0.015,0.096 -0.043,0.211l-1.137,2.693l-8.129,3.639c-0.105,0.01 -0.168,0.01 -0.196,0C30.405,53.204 30.405,53.118 30.443,52.993z" id="path_4"/><path fill="#DD2C00" d="M52.8,51.505l1.032,-3.074l10.015,-4.4c0.137,-0.034 0.199,-0.017 0.199,0.051c0,0.034 -0.018,0.114 -0.052,0.25l-1.344,3.187l-9.618,4.305c-0.124,0.011 -0.198,0.011 -0.232,0C52.755,51.754 52.755,51.652 52.8,51.505z" id="path_5"/><path fill="#213e95" d="M29.798,31.901v-0.164c0.556,-0.776 1.35,-1.832 2.394,-3.176h0.113c0.845,0.907 1.899,1.729 3.176,2.461c0.034,0.034 0.051,0.074 0.051,0.131l-2.308,3.125c-0.023,0.011 -0.063,0.017 -0.12,0.017c-0.067,0 -0.181,-0.028 -0.346,-0.085C31.958,33.847 30.972,33.076 29.798,31.901z" id="path_6"/><path fill="#213e95" d="M34.764,31.901v-0.164c0.557,-0.776 1.351,-1.832 2.394,-3.176h0.113c0.846,0.907 1.899,1.729 3.176,2.461c0.034,0.034 0.051,0.074 0.051,0.131l-2.308,3.125c-0.023,0.011 -0.063,0.017 -0.119,0.017c-0.068,0 -0.182,-0.028 -0.346,-0.085C36.925,33.847 35.938,33.076 34.764,31.901z" id="path_7"/></svg>