<svg id="vector" xmlns="http://www.w3.org/2000/svg" width="75" height="67" viewBox="0 0 83 73"><path fill="#213e95" d="M58.889,47.167c-0.034,1.089 -0.21,2.059 -0.533,2.927c-0.346,0.572 -0.602,0.873 -0.766,0.896c-0.187,0 -0.272,-0.312 -0.249,-0.93c-0.289,-6.215 -0.646,-10.56 -1.078,-13.031c-0.232,-2.218 -0.551,-4.032 -0.947,-5.438c-0.146,-0.55 -0.227,-1.061 -0.249,-1.525c-0.034,-0.868 0.091,-1.866 0.38,-2.995l0.766,-2.892c0.102,-0.091 0.21,-0.136 0.334,-0.136c0.131,0 0.222,0.192 0.262,0.584c0.057,0.505 0.124,0.816 0.209,0.93c0.086,0.108 0.381,0.998 0.891,2.671c0.329,1.101 0.743,1.963 1.23,2.592c0.029,0.222 0.051,0.431 0.063,0.635c0,0.408 -0.119,0.981 -0.357,1.725c-0.238,0.742 -0.402,1.253 -0.504,1.531l-0.131,0.498L58.889,47.167z" id="path_0"/><path fill="#000001" d="M34.502,10.136c0.314,0.542 0.681,2.085 1.097,4.631c-0.256,1.544 -0.929,2.312 -2.019,2.312h-0.146c-0.476,0 -1.09,-0.307 -1.865,-0.922c-0.526,0.93 -1.302,1.397 -2.312,1.397c-1.229,0 -1.844,-1.492 -1.844,-4.477c0.358,-1.134 0.666,-1.697 0.922,-1.697l0.146,0.153v2.634c0.212,0.914 0.475,1.368 0.775,1.368h0.621c0.645,0 1.055,-0.257 1.244,-0.769L30.8,12.455c0.125,-0.775 0.337,-1.186 0.622,-1.222h0.321c0.322,2.567 0.842,3.855 1.537,3.855h1.075v-0.154l-0.468,-3.079V11.68C34.011,10.648 34.216,10.136 34.502,10.136z" id="path_1"/><path fill="#000001" d="M29.167,62.771l0.873,-2.599l8.465,-3.719c0.115,-0.029 0.168,-0.015 0.168,0.043c0,0.029 -0.015,0.096 -0.043,0.211l-1.137,2.693l-8.129,3.639c-0.105,0.01 -0.168,0.01 -0.197,0C29.13,62.982 29.13,62.896 29.167,62.771z" id="path_2"/><path fill="#000001" d="M29.167,59.084l0.873,-2.598l8.465,-3.719c0.115,-0.029 0.168,-0.015 0.168,0.043c0,0.028 -0.015,0.096 -0.043,0.211l-1.137,2.693l-8.129,3.638c-0.105,0.01 -0.168,0.01 -0.197,0C29.13,59.295 29.13,59.209 29.167,59.084z" id="path_3"/><path fill="#213e95" d="M51.524,17.443l1.032,-3.073l10.015,-4.4c0.137,-0.034 0.199,-0.017 0.199,0.051c0,0.034 -0.018,0.113 -0.052,0.25l-1.345,3.187l-9.617,4.305c-0.125,0.011 -0.198,0.011 -0.232,0C51.479,17.693 51.479,17.591 51.524,17.443z" id="path_4"/><path fill="#000001" d="M29.604,32.665h0.303c0.729,0 1.787,0.703 3.174,2.116v0.148c0,0.657 -0.6,1.664 -1.813,3.025c-2.116,-0.555 -3.174,-1.31 -3.174,-2.271C28.397,34.601 28.901,33.594 29.604,32.665z" id="path_5"/><path fill="#000001" d="M37.616,20.413l0.155,0.155v0.148c-0.528,2.723 -1.69,4.084 -3.478,4.084c-2.245,0 -4.762,1.006 -7.561,3.025c-3.123,2.619 -4.69,5.594 -4.69,8.916c0,4.516 2.574,7.639 7.716,9.374l5.29,0.458l8.471,-0.606h1.658l0.155,0.148v0.155c0,0.58 -1.562,1.438 -4.691,2.567c-1.27,0.555 -3.89,1.161 -7.863,1.819c-5.162,0 -8.439,-1.316 -9.826,-3.936c-1.613,-2.368 -2.419,-5.142 -2.419,-8.316c0,-5.167 2.116,-9.6 6.349,-13.303h-3.323c-0.806,0 -1.813,0.703 -3.025,2.116l-0.304,-0.304v-0.303c1.007,-3.832 2.574,-5.748 4.69,-5.748C25.32,20.968 29.552,20.82 37.616,20.413z" id="path_6"/></svg>