<svg id="vector" xmlns="http://www.w3.org/2000/svg" width="75" height="67" viewBox="0 0 83 73"><path fill="#DD2C00" d="M60.163,47.167c-0.033,1.089 -0.209,2.059 -0.533,2.927c-0.346,0.573 -0.602,0.873 -0.766,0.896c-0.187,0 -0.271,-0.313 -0.249,-0.931c-0.289,-6.215 -0.646,-10.559 -1.077,-13.031c-0.232,-2.218 -0.551,-4.032 -0.947,-5.438c-0.147,-0.55 -0.227,-1.061 -0.25,-1.525c-0.033,-0.868 0.091,-1.866 0.381,-2.994l0.766,-2.892c0.102,-0.092 0.209,-0.137 0.334,-0.137c0.131,0 0.221,0.192 0.261,0.584c0.058,0.505 0.124,0.816 0.21,0.931c0.085,0.107 0.38,0.997 0.891,2.67c0.328,1.101 0.742,1.963 1.23,2.592c0.028,0.222 0.051,0.432 0.063,0.636c0,0.408 -0.119,0.98 -0.357,1.724s-0.402,1.253 -0.505,1.531l-0.13,0.499L60.163,47.167z" id="path_0"/><path fill="#213e95" d="M50.194,48.131c-1.787,1.14 -4.094,2.064 -6.93,2.772c-4.322,0.976 -7.984,1.452 -10.99,1.436c-3.006,-0.018 -5.342,-0.307 -7.004,-0.874c-1.661,-0.562 -3.119,-1.542 -4.366,-2.938c-1.077,-1.23 -1.706,-2.659 -1.894,-4.287c-0.244,-2.291 0.312,-4.763 1.678,-7.411c0.143,-0.131 0.284,-0.289 0.432,-0.471c0.142,-0.182 0.307,-0.262 0.482,-0.227l-0.018,0.402c-0.754,1.616 -1.162,3.056 -1.23,4.315c-0.035,0.442 -0.035,0.748 0,0.913c0.465,2.126 2.075,3.623 4.837,4.491c1.548,0.527 3.17,0.856 4.866,0.976c0.266,0.011 0.68,0.045 1.247,0.102c3.465,0.012 7.667,-0.396 12.606,-1.23c2.857,-0.533 4.894,-1.253 6.102,-2.161c-0.08,-0.362 -0.352,-0.776 -0.816,-1.236c-0.465,-0.459 -0.749,-0.873 -0.846,-1.235c-0.067,-1.463 0.018,-2.961 0.25,-4.485l0.199,-0.018c1.536,1.735 2.393,3.584 2.557,5.529C51.556,44.768 51.169,46.645 50.194,48.131z" id="path_1"/><path fill="#213e95" d="M38.177,19.736c0.314,0.541 0.68,2.085 1.098,4.631c-0.256,1.544 -0.93,2.312 -2.02,2.312h-0.146c-0.475,0 -1.09,-0.307 -1.865,-0.922c-0.526,0.93 -1.303,1.397 -2.312,1.397c-1.229,0 -1.844,-1.492 -1.844,-4.477c0.358,-1.134 0.666,-1.697 0.922,-1.697l0.146,0.153v2.634c0.212,0.914 0.476,1.367 0.775,1.367h0.622c0.644,0 1.053,-0.256 1.244,-0.768l-0.322,-2.312c0.124,-0.775 0.336,-1.186 0.621,-1.222h0.322c0.322,2.567 0.842,3.855 1.536,3.855h1.075v-0.154l-0.468,-3.079V21.28C37.687,20.249 37.892,19.736 38.177,19.736z" id="path_2"/><path fill="#213e95" d="M30.442,62.771l0.873,-2.598l8.465,-3.72c0.115,-0.029 0.168,-0.015 0.168,0.043c0,0.029 -0.016,0.096 -0.044,0.211l-1.136,2.694L30.64,63.04c-0.105,0.01 -0.168,0.01 -0.197,0C30.404,62.982 30.404,62.896 30.442,62.771z" id="path_3"/><path fill="#213e95" d="M30.442,59.085l0.873,-2.599l8.465,-3.719c0.115,-0.029 0.168,-0.015 0.168,0.043c0,0.029 -0.016,0.096 -0.044,0.211l-1.136,2.693l-8.129,3.639c-0.105,0.009 -0.168,0.009 -0.197,0C30.404,59.296 30.404,59.209 30.442,59.085z" id="path_4"/><path fill="#DD2C00" d="M52.8,17.444l1.031,-3.074l10.016,-4.4c0.136,-0.034 0.198,-0.017 0.198,0.051c0,0.034 -0.017,0.114 -0.052,0.25l-1.344,3.187l-9.617,4.305c-0.125,0.011 -0.199,0.011 -0.232,0C52.755,17.693 52.755,17.592 52.8,17.444z" id="path_5"/><path fill="#213e95" d="M29.798,37.993v-0.164c0.557,-0.777 1.35,-1.832 2.394,-3.176h0.113c0.845,0.907 1.899,1.729 3.176,2.461c0.034,0.034 0.052,0.074 0.052,0.131l-2.309,3.124c-0.023,0.012 -0.063,0.018 -0.119,0.018c-0.068,0 -0.182,-0.028 -0.346,-0.085C31.958,39.938 30.972,39.168 29.798,37.993z" id="path_6"/><path fill="#213e95" d="M34.765,37.993v-0.164c0.556,-0.777 1.35,-1.832 2.393,-3.176h0.113c0.846,0.907 1.9,1.729 3.176,2.461c0.035,0.034 0.052,0.074 0.052,0.131l-2.308,3.124c-0.023,0.012 -0.063,0.018 -0.12,0.018c-0.067,0 -0.181,-0.028 -0.346,-0.085C36.925,39.938 35.938,39.168 34.765,37.993z" id="path_7"/><path fill="#213e95" d="M32.314,32.895V32.73c0.556,-0.777 1.35,-1.832 2.394,-3.176h0.113c0.845,0.907 1.898,1.729 3.176,2.461c0.033,0.034 0.051,0.074 0.051,0.13l-2.309,3.125c-0.022,0.012 -0.063,0.018 -0.119,0.018c-0.067,0 -0.182,-0.028 -0.346,-0.086C34.475,34.84 33.488,34.068 32.314,32.895z" id="path_8"/></svg>