<svg id="vector" xmlns="http://www.w3.org/2000/svg" width="75" height="67" viewBox="0 0 83 73"><path fill="#DD2C00" d="M61.948,52.089c-0.034,1.09 -0.21,2.059 -0.533,2.926c-0.346,0.574 -0.601,0.873 -0.766,0.896c-0.188,0 -0.271,-0.313 -0.25,-0.93c-0.288,-6.215 -0.646,-10.559 -1.076,-13.031c-0.233,-2.217 -0.551,-4.033 -0.948,-5.438c-0.146,-0.551 -0.227,-1.063 -0.249,-1.527c-0.034,-0.867 0.091,-1.865 0.38,-2.994l0.766,-2.891c0.103,-0.092 0.21,-0.137 0.335,-0.137c0.131,0 0.221,0.193 0.261,0.584c0.057,0.504 0.124,0.816 0.21,0.93c0.085,0.107 0.38,0.998 0.89,2.672c0.329,1.1 0.743,1.961 1.231,2.592c0.027,0.221 0.051,0.43 0.063,0.635c0,0.408 -0.12,0.98 -0.357,1.723c-0.238,0.744 -0.403,1.254 -0.505,1.531l-0.131,0.5L61.948,52.089z" id="path_0"/><path fill="#000001" d="M33.599,26.156l-0.681,0.051l-0.102,-0.164c2.296,-1.219 4.071,-2.365 5.336,-3.441c-0.432,-0.154 -0.721,-0.313 -0.868,-0.482c-0.431,-0.295 -0.646,-0.799 -0.646,-1.508c-0.034,-1.453 0.482,-2.529 1.549,-3.238c0.34,-0.289 0.907,-0.357 1.695,-0.205c0.811,0.449 1.213,0.98 1.213,1.617c0.222,2.381 -1.332,4.514 -4.655,6.408C35.391,25.667 34.443,25.992 33.599,26.156L33.599,26.156zM39.757,20.808c0.317,-0.119 0.482,-0.334 0.482,-0.629c0,-0.5 -0.228,-0.867 -0.681,-1.1c-0.448,-0.176 -0.936,-0.182 -1.464,-0.018c-0.368,0.268 -0.561,0.504 -0.583,0.715c-0.034,0.254 0.136,0.59 0.498,0.998c0.335,0.137 0.602,0.197 0.8,0.197C39.065,21.041 39.377,20.984 39.757,20.808z" id="path_1"/><path fill="#000001" d="M51.979,51.679c-1.785,1.139 -4.094,2.063 -6.93,2.771c-4.32,0.977 -7.984,1.453 -10.989,1.436c-3.006,-0.018 -5.342,-0.307 -7.004,-0.873c-1.661,-0.563 -3.119,-1.543 -4.366,-2.938c-1.078,-1.23 -1.707,-2.66 -1.895,-4.287c-0.243,-2.291 0.313,-4.764 1.679,-7.412c0.142,-0.131 0.283,-0.289 0.432,-0.471c0.142,-0.182 0.306,-0.262 0.481,-0.227l-0.017,0.402c-0.755,1.615 -1.163,3.057 -1.231,4.314c-0.034,0.443 -0.034,0.75 0,0.914c0.466,2.127 2.076,3.623 4.838,4.492c1.548,0.527 3.17,0.855 4.865,0.975c0.267,0.012 0.681,0.045 1.248,0.102c3.465,0.012 7.667,-0.396 12.605,-1.23c2.858,-0.533 4.895,-1.252 6.102,-2.16c-0.079,-0.363 -0.351,-0.777 -0.815,-1.236c-0.466,-0.459 -0.749,-0.873 -0.846,-1.236c-0.067,-1.463 0.018,-2.961 0.25,-4.484l0.198,-0.018c1.537,1.734 2.394,3.584 2.558,5.529C53.34,48.316 52.954,50.193 51.979,51.679z" id="path_2"/><path fill="#000001" d="M39.962,26.613c0.314,0.541 0.681,2.084 1.098,4.631c-0.257,1.543 -0.93,2.311 -2.02,2.311h-0.146c-0.476,0 -1.09,-0.307 -1.865,-0.922c-0.526,0.93 -1.303,1.398 -2.312,1.398c-1.229,0 -1.844,-1.492 -1.844,-4.477c0.358,-1.135 0.666,-1.697 0.922,-1.697l0.146,0.152v2.635c0.212,0.914 0.476,1.367 0.775,1.367h0.621c0.645,0 1.054,-0.256 1.244,-0.768l-0.322,-2.313c0.125,-0.775 0.337,-1.186 0.622,-1.221h0.322c0.321,2.566 0.841,3.855 1.536,3.855h1.075v-0.154l-0.468,-3.08v-0.176C39.472,27.125 39.677,26.613 39.962,26.613z" id="path_3"/><path fill="#000001" d="M31.616,41.541v-0.164c0.556,-0.777 1.35,-1.832 2.394,-3.176h0.112c0.846,0.908 1.9,1.73 3.177,2.461c0.033,0.035 0.051,0.074 0.051,0.131l-2.309,3.125c-0.022,0.012 -0.062,0.018 -0.119,0.018c-0.067,0 -0.182,-0.029 -0.346,-0.086C33.776,43.486 32.79,42.716 31.616,41.541z" id="path_4"/><path fill="#000001" d="M36.582,41.541v-0.164c0.557,-0.777 1.351,-1.832 2.394,-3.176h0.113c0.846,0.908 1.899,1.73 3.176,2.461c0.034,0.035 0.051,0.074 0.051,0.131l-2.308,3.125c-0.023,0.012 -0.063,0.018 -0.119,0.018c-0.068,0 -0.182,-0.029 -0.346,-0.086C38.743,43.486 37.756,42.716 36.582,41.541z" id="path_5"/><path fill="#DD2C00" d="M54.045,26.156l-0.681,0.051l-0.102,-0.164c2.296,-1.219 4.071,-2.365 5.336,-3.441c-0.432,-0.154 -0.721,-0.313 -0.868,-0.482c-0.431,-0.295 -0.646,-0.799 -0.646,-1.508c-0.034,-1.453 0.482,-2.529 1.549,-3.238c0.34,-0.289 0.907,-0.357 1.695,-0.205c0.811,0.449 1.213,0.98 1.213,1.617c0.222,2.381 -1.332,4.514 -4.655,6.408C55.837,25.667 54.89,25.992 54.045,26.156L54.045,26.156zM60.203,20.808c0.317,-0.119 0.482,-0.334 0.482,-0.629c0,-0.5 -0.228,-0.867 -0.681,-1.1c-0.448,-0.176 -0.936,-0.182 -1.464,-0.018c-0.368,0.268 -0.561,0.504 -0.583,0.715c-0.034,0.254 0.136,0.59 0.498,0.998c0.335,0.137 0.602,0.197 0.8,0.197C59.512,21.041 59.823,20.984 60.203,20.808z" id="path_6"/></svg>