<svg id="vector" xmlns="http://www.w3.org/2000/svg" width="75" height="67" viewBox="0 0 83 73"><path fill="#213e95" d="M60.923,51.787c-0.033,1.088 -0.21,2.059 -0.533,2.926c-0.346,0.574 -0.601,0.873 -0.766,0.896c-0.187,0 -0.271,-0.313 -0.249,-0.93c-0.289,-6.215 -0.646,-10.559 -1.077,-13.031c-0.232,-2.219 -0.551,-4.033 -0.947,-5.439c-0.147,-0.549 -0.227,-1.061 -0.25,-1.525c-0.034,-0.867 0.091,-1.865 0.38,-2.994l0.766,-2.891c0.103,-0.092 0.21,-0.137 0.335,-0.137c0.131,0 0.222,0.191 0.261,0.584c0.057,0.504 0.125,0.816 0.21,0.93c0.085,0.107 0.38,0.998 0.89,2.67c0.329,1.102 0.743,1.963 1.231,2.592c0.028,0.223 0.051,0.432 0.063,0.637c0,0.408 -0.12,0.98 -0.357,1.723c-0.238,0.742 -0.403,1.254 -0.505,1.531l-0.131,0.5L60.923,51.787z" id="path_0"/><path fill="#000001" d="M50.955,51.691c-1.786,1.139 -4.095,2.063 -6.931,2.771c-4.32,0.977 -7.983,1.453 -10.989,1.436s-5.342,-0.307 -7.004,-0.873c-1.661,-0.563 -3.118,-1.543 -4.366,-2.938c-1.077,-1.23 -1.707,-2.66 -1.894,-4.287c-0.244,-2.291 0.312,-4.764 1.678,-7.412c0.143,-0.131 0.284,-0.289 0.432,-0.471c0.142,-0.182 0.306,-0.262 0.481,-0.227l-0.017,0.402c-0.754,1.615 -1.163,3.057 -1.23,4.316c-0.034,0.441 -0.034,0.748 0,0.912c0.465,2.127 2.075,3.623 4.837,4.492c1.548,0.527 3.17,0.855 4.865,0.975c0.267,0.012 0.681,0.045 1.248,0.102c3.465,0.012 7.667,-0.396 12.606,-1.23c2.857,-0.533 4.894,-1.252 6.102,-2.16c-0.08,-0.363 -0.352,-0.777 -0.816,-1.236s-0.749,-0.873 -0.846,-1.236c-0.067,-1.463 0.018,-2.961 0.25,-4.484l0.198,-0.018c1.537,1.734 2.394,3.584 2.558,5.529C52.315,48.328 51.929,50.205 50.955,51.691z" id="path_1"/><path fill="#000001" d="M38.937,26.625c0.314,0.541 0.681,2.084 1.098,4.631c-0.257,1.543 -0.93,2.311 -2.02,2.311h-0.146c-0.476,0 -1.09,-0.307 -1.865,-0.922c-0.526,0.93 -1.302,1.398 -2.312,1.398c-1.229,0 -1.844,-1.492 -1.844,-4.477c0.358,-1.135 0.666,-1.697 0.922,-1.697l0.146,0.152v2.635c0.212,0.914 0.476,1.367 0.775,1.367h0.621c0.645,0 1.054,-0.256 1.244,-0.768l-0.322,-2.313c0.125,-0.775 0.337,-1.186 0.622,-1.221h0.322c0.321,2.566 0.841,3.855 1.536,3.855h1.075v-0.154l-0.468,-3.08v-0.176C38.447,27.137 38.652,26.625 38.937,26.625z" id="path_2"/><path fill="#000001" d="M30.335,25.242l1.032,-3.074l10.015,-4.4c0.136,-0.033 0.198,-0.016 0.198,0.051c0,0.035 -0.017,0.115 -0.051,0.25l-1.345,3.188l-9.617,4.305c-0.124,0.01 -0.198,0.01 -0.232,0C30.291,25.492 30.291,25.391 30.335,25.242z" id="path_3"/><path fill="#000001" d="M30.591,41.553v-0.164c0.556,-0.777 1.35,-1.832 2.394,-3.176h0.113c0.845,0.908 1.899,1.73 3.176,2.461c0.034,0.035 0.051,0.074 0.051,0.131l-2.308,3.125c-0.023,0.012 -0.063,0.018 -0.12,0.018c-0.067,0 -0.181,-0.029 -0.346,-0.086C32.751,43.498 31.765,42.729 30.591,41.553z" id="path_4"/><path fill="#000001" d="M35.557,41.553v-0.164c0.557,-0.777 1.351,-1.832 2.394,-3.176h0.113c0.846,0.908 1.899,1.73 3.176,2.461c0.034,0.035 0.051,0.074 0.051,0.131l-2.308,3.125c-0.023,0.012 -0.063,0.018 -0.119,0.018c-0.068,0 -0.182,-0.029 -0.346,-0.086C37.718,43.498 36.731,42.729 35.557,41.553z" id="path_5"/><path fill="#213e95" d="M55.767,26.168l-0.681,0.051l-0.102,-0.164c2.296,-1.219 4.071,-2.365 5.336,-3.441c-0.431,-0.154 -0.721,-0.313 -0.868,-0.482c-0.431,-0.295 -0.646,-0.799 -0.646,-1.508c-0.034,-1.453 0.482,-2.529 1.549,-3.238c0.34,-0.289 0.907,-0.357 1.695,-0.205c0.811,0.449 1.214,0.98 1.214,1.617c0.221,2.381 -1.333,4.514 -4.656,6.408C57.559,25.68 56.612,26.004 55.767,26.168L55.767,26.168zM61.925,20.82c0.317,-0.119 0.482,-0.334 0.482,-0.629c0,-0.5 -0.228,-0.867 -0.681,-1.1c-0.448,-0.176 -0.936,-0.182 -1.463,-0.018c-0.369,0.268 -0.562,0.504 -0.584,0.715c-0.034,0.254 0.136,0.59 0.499,0.998c0.334,0.137 0.601,0.197 0.799,0.197C61.234,21.053 61.545,20.996 61.925,20.82z" id="path_6"/></svg>