<svg id="vector" xmlns="http://www.w3.org/2000/svg" width="75" height="67" viewBox="0 0 83 73"><path fill="#213e95" d="M60.163,41.153c-0.033,1.089 -0.209,2.059 -0.533,2.927c-0.346,0.573 -0.602,0.873 -0.766,0.896c-0.188,0 -0.271,-0.312 -0.248,-0.93c-0.289,-6.215 -0.646,-10.559 -1.078,-13.031c-0.232,-2.218 -0.551,-4.032 -0.947,-5.438c-0.146,-0.55 -0.227,-1.061 -0.25,-1.525c-0.033,-0.868 0.092,-1.866 0.381,-2.994l0.766,-2.892c0.102,-0.092 0.209,-0.137 0.334,-0.137c0.131,0 0.221,0.192 0.262,0.584c0.057,0.505 0.123,0.816 0.209,0.93c0.086,0.108 0.381,0.998 0.891,2.671c0.328,1.101 0.742,1.963 1.23,2.592c0.029,0.222 0.051,0.432 0.063,0.636c0,0.408 -0.119,0.98 -0.357,1.724c-0.238,0.742 -0.402,1.253 -0.504,1.531l-0.131,0.499L60.163,41.153z" id="path_0"/><path fill="#000001" d="M50.194,43.238c-1.787,1.14 -4.094,2.064 -6.93,2.773c-4.322,0.976 -7.984,1.451 -10.99,1.435c-3.005,-0.018 -5.342,-0.307 -7.003,-0.873c-1.661,-0.562 -3.119,-1.543 -4.366,-2.938c-1.077,-1.23 -1.707,-2.66 -1.895,-4.287c-0.244,-2.291 0.313,-4.764 1.679,-7.412c0.142,-0.131 0.283,-0.289 0.431,-0.471c0.143,-0.182 0.307,-0.261 0.482,-0.227l-0.018,0.402c-0.754,1.616 -1.162,3.057 -1.23,4.315c-0.034,0.442 -0.034,0.749 0,0.913c0.466,2.127 2.076,3.623 4.838,4.491c1.548,0.527 3.17,0.856 4.865,0.976c0.267,0.011 0.68,0.045 1.247,0.102c3.465,0.012 7.668,-0.396 12.607,-1.23c2.857,-0.533 4.895,-1.253 6.102,-2.16c-0.08,-0.363 -0.352,-0.777 -0.816,-1.236c-0.465,-0.46 -0.748,-0.873 -0.846,-1.236c-0.066,-1.463 0.018,-2.96 0.25,-4.485l0.199,-0.017c1.537,1.734 2.393,3.583 2.557,5.528C51.556,39.876 51.169,41.753 50.194,43.238z" id="path_1"/><path fill="#000001" d="M38.177,14.845c0.314,0.541 0.68,2.084 1.098,4.63c-0.256,1.544 -0.93,2.313 -2.02,2.313h-0.146c-0.475,0 -1.09,-0.308 -1.865,-0.922c-0.527,0.929 -1.303,1.396 -2.311,1.396c-1.23,0 -1.844,-1.492 -1.844,-4.477c0.357,-1.134 0.666,-1.697 0.922,-1.697l0.145,0.153v2.634c0.213,0.914 0.477,1.368 0.777,1.368h0.621c0.643,0 1.053,-0.256 1.244,-0.769l-0.322,-2.312c0.123,-0.775 0.336,-1.185 0.621,-1.222h0.322c0.322,2.567 0.842,3.855 1.537,3.855h1.074v-0.153l-0.469,-3.08v-0.176C37.687,15.356 37.892,14.845 38.177,14.845z" id="path_2"/><path fill="#000001" d="M30.443,57.879l0.873,-2.598l8.465,-3.72c0.115,-0.028 0.168,-0.015 0.168,0.043c0,0.029 -0.014,0.096 -0.043,0.211l-1.137,2.694l-8.129,3.638c-0.105,0.01 -0.167,0.01 -0.196,0C30.405,58.09 30.405,58.004 30.443,57.879z" id="path_3"/><path fill="#000001" d="M30.443,54.192l0.873,-2.598l8.465,-3.72c0.115,-0.029 0.168,-0.015 0.168,0.043c0,0.029 -0.014,0.096 -0.043,0.211l-1.137,2.694l-8.129,3.638c-0.105,0.01 -0.167,0.01 -0.196,0C30.405,54.403 30.405,54.317 30.443,54.192z" id="path_4"/><path fill="#213e95" d="M52.8,55.104l1.031,-3.073l10.016,-4.4c0.137,-0.034 0.199,-0.017 0.199,0.051c0,0.034 -0.018,0.113 -0.053,0.25l-1.344,3.187l-9.617,4.304c-0.125,0.012 -0.199,0.012 -0.232,0C52.755,55.354 52.755,55.251 52.8,55.104z" id="path_5"/><path fill="#000001" d="M29.832,33.102v-0.165c0.556,-0.776 1.349,-1.832 2.392,-3.176h0.113c0.846,0.908 1.9,1.73 3.176,2.461c0.035,0.034 0.053,0.074 0.053,0.131l-2.309,3.125c-0.023,0.011 -0.063,0.017 -0.119,0.017c-0.068,0 -0.182,-0.028 -0.346,-0.085C31.991,35.046 31.005,34.275 29.832,33.102z" id="path_6"/><path fill="#000001" d="M34.798,33.102v-0.165c0.555,-0.776 1.35,-1.832 2.393,-3.176h0.113c0.846,0.908 1.9,1.73 3.176,2.461c0.035,0.034 0.051,0.074 0.051,0.131l-2.307,3.125c-0.023,0.011 -0.063,0.017 -0.121,0.017c-0.066,0 -0.18,-0.028 -0.346,-0.085C36.958,35.046 35.972,34.275 34.798,33.102z" id="path_7"/><path fill="#000001" d="M32.313,28.32v-0.164c0.557,-0.777 1.352,-1.832 2.395,-3.176h0.113c0.844,0.907 1.898,1.73 3.176,2.461c0.033,0.034 0.051,0.074 0.051,0.131l-2.309,3.124c-0.021,0.012 -0.063,0.018 -0.119,0.018c-0.068,0 -0.182,-0.028 -0.346,-0.085C34.476,30.266 33.487,29.495 32.313,28.32z" id="path_8"/></svg>