<svg id="vector" xmlns="http://www.w3.org/2000/svg" width="75" height="67" viewBox="0 0 83 73"><path fill="#DD2C00" d="M57.284,49.105c-0.034,1.089 -0.21,2.059 -0.533,2.927c-0.346,0.572 -0.602,0.873 -0.766,0.896c-0.188,0 -0.272,-0.312 -0.25,-0.93c-0.289,-6.216 -0.646,-10.56 -1.077,-13.032c-0.232,-2.217 -0.55,-4.031 -0.947,-5.438c-0.147,-0.55 -0.227,-1.061 -0.249,-1.525c-0.034,-0.868 0.09,-1.866 0.38,-2.995l0.766,-2.892c0.102,-0.091 0.21,-0.136 0.334,-0.136c0.131,0 0.222,0.192 0.261,0.584c0.058,0.505 0.125,0.816 0.21,0.93c0.086,0.108 0.38,0.998 0.891,2.671c0.329,1.101 0.743,1.962 1.23,2.592c0.028,0.222 0.051,0.431 0.063,0.635c0,0.408 -0.119,0.981 -0.357,1.724c-0.238,0.743 -0.402,1.254 -0.505,1.532l-0.13,0.498L57.284,49.105z" id="path_0"/><path fill="#000001" d="M35.296,19.144c0.314,0.541 0.681,2.085 1.098,4.631c-0.256,1.543 -0.929,2.312 -2.02,2.312h-0.146c-0.476,0 -1.091,-0.308 -1.866,-0.922c-0.526,0.929 -1.302,1.396 -2.312,1.396c-1.229,0 -1.844,-1.491 -1.844,-4.477c0.359,-1.134 0.666,-1.697 0.922,-1.697l0.146,0.153v2.634c0.213,0.914 0.476,1.368 0.775,1.368h0.622c0.644,0 1.054,-0.256 1.244,-0.768l-0.322,-2.313c0.124,-0.775 0.336,-1.185 0.622,-1.222h0.321c0.322,2.568 0.842,3.855 1.536,3.855h1.075v-0.153l-0.468,-3.08v-0.176C34.806,19.655 35.011,19.144 35.296,19.144z" id="path_1"/><path fill="#000001" d="M32.317,9.664c0.207,-0.102 0.305,-0.032 0.295,0.203c-1.044,1.156 -1.867,2.252 -2.463,3.292c-0.172,0.406 -0.269,0.739 -0.292,1.008c-0.023,0.268 0.046,0.555 0.213,0.859h0.203c0.079,-0.453 0.24,-0.68 0.485,-0.68c0.292,0.13 0.453,0.259 0.485,0.393v0.19c0.019,1.03 -0.272,1.649 -0.878,1.857H29.88c-0.651,-0.129 -0.976,-0.878 -0.976,-2.251C28.905,12.868 30.042,11.245 32.317,9.664L32.317,9.664zM34.457,11.425c-1.392,0 -2.298,1.004 -2.723,3.02c0,0.785 0.356,1.405 1.068,1.854v0.097c-2.645,1.253 -4.009,1.974 -4.087,2.154c-0.037,0.009 -0.041,0.032 -0.01,0.064c0.033,0.037 0.074,0.065 0.13,0.083c0.056,0.019 0.106,0.033 0.162,0.042c1.516,0 3.213,-0.587 5.08,-1.761c1.072,-0.56 1.688,-1.762 1.84,-3.602v-0.301C35.774,11.976 35.285,11.425 34.457,11.425L34.457,11.425zM32.709,13.469c0,-0.144 0.259,-0.277 0.771,-0.394c0.976,0 1.461,0.458 1.461,1.369c-0.042,0.198 -0.235,0.295 -0.582,0.295h-0.282c-0.91,-0.115 -1.368,-0.508 -1.368,-1.179V13.469z" id="path_2"/><path fill="#DD2C00" d="M49.919,63.056l1.032,-3.073l10.015,-4.4c0.137,-0.034 0.198,-0.018 0.198,0.051c0,0.034 -0.017,0.113 -0.051,0.249l-1.345,3.188l-9.617,4.304c-0.125,0.012 -0.198,0.012 -0.232,0C49.875,63.306 49.875,63.203 49.919,63.056z" id="path_3"/><path fill="#000001" d="M31.209,43.031h0.304c0.729,0 1.787,0.704 3.174,2.116v0.148c0,0.658 -0.6,1.665 -1.813,3.026c-2.116,-0.555 -3.175,-1.31 -3.175,-2.271C30.003,44.967 30.506,43.961 31.209,43.031z" id="path_4"/><path fill="#000001" d="M39.222,30.78l0.155,0.155v0.148c-0.529,2.722 -1.69,4.083 -3.478,4.083c-2.245,0 -4.761,1.007 -7.561,3.026c-3.123,2.619 -4.69,5.593 -4.69,8.916c0,4.516 2.574,7.639 7.716,9.374l5.29,0.458l8.471,-0.606h1.658l0.154,0.148v0.154c0,0.581 -1.561,1.438 -4.689,2.568c-1.271,0.555 -3.891,1.161 -7.864,1.818c-5.161,0 -8.439,-1.315 -9.826,-3.935c-1.612,-2.368 -2.419,-5.142 -2.419,-8.316c0,-5.167 2.116,-9.6 6.348,-13.303h-3.322c-0.807,0 -1.813,0.703 -3.025,2.116l-0.304,-0.304V36.98c1.007,-3.832 2.574,-5.749 4.69,-5.749C26.926,31.335 31.158,31.187 39.222,30.78z" id="path_5"/></svg>