<svg id="vector" xmlns="http://www.w3.org/2000/svg" width="300" height="67" viewBox="0 0 299.739 66.967"><path fill="#000002" d="M275.991,37.585h0.647c1.887,0 3.285,1.611 4.201,4.842l0.159,1.611c0.055,0.523 0.055,1.061 0,1.619c-0.482,1.963 -1.563,3.897 -3.23,5.806c-1.157,0.971 -3.788,1.722 -7.907,2.259c-0.482,-0.213 -0.758,-0.427 -0.806,-0.641c6.888,-3.739 10.331,-5.998 10.331,-6.783l0.159,-0.482l-0.159,-0.158l-1.453,0.482h-0.806c-2.907,0 -4.36,-1.026 -4.36,-3.065V42.75c0.372,-3.34 1.185,-5.007 2.417,-5.007L275.991,37.585z" id="path_0"/><path fill="#000002" d="M280.269,24.506c0.165,-0.097 0.213,0.055 0.144,0.447c-0.916,2.149 -2.321,3.65 -4.215,4.498l-6.963,3.492c-0.296,-0.083 -0.351,-0.324 -0.165,-0.73c0.93,-1.791 1.563,-2.852 1.901,-3.189L280.269,24.506z" id="path_1"/><path fill="#D50000" d="M259.124,27.075h0.324c1.102,0.241 2.286,0.881 3.554,1.936v0.158c-0.73,2.211 -1.371,3.389 -1.936,3.554c-1.646,-0.324 -2.879,-0.861 -3.712,-1.611v-0.166C257.354,29.679 257.946,28.391 259.124,27.075z" id="path_2"/><path fill="#D50000" d="M265.102,25.622h0.159c1.102,0.158 2.342,0.909 3.712,2.259v0.158l-1.936,3.389c-2.583,-0.833 -3.877,-1.529 -3.877,-2.094C263.993,26.854 264.64,25.622 265.102,25.622z" id="path_3"/><path fill="#D50000" d="M257.691,43.88c4.229,0.042 6.591,-0.751 7.108,-2.383c0,-0.564 -0.538,-1.963 -1.619,-4.194l0.489,-4.194h0.317c1.405,2.417 2.101,4.842 2.101,7.259v1.454c0,0.971 -0.234,1.99 -0.696,3.058c-0.461,1.067 -1.178,1.97 -2.135,2.692c-0.964,0.73 -2.817,1.033 -5.565,0.909V43.88z" id="path_4"/><path fill="#D50000" d="M263.463,13.975c1.653,0 2.479,1.02 2.479,3.051c0,3.237 -2.762,5.999 -8.292,8.272c-0.792,0.241 -0.889,-0.049 -0.282,-0.868c0.151,-0.31 1.453,-1.28 3.912,-2.906v-0.138c-1.061,-0.435 -1.591,-1.356 -1.591,-2.769c0.703,-3.093 1.818,-4.643 3.348,-4.643H263.463L263.463,13.975zM260.998,17.467c0,0.861 0.73,1.392 2.183,1.598h0.282c0.537,0 0.881,-0.199 1.026,-0.585c0,-0.875 -0.634,-1.557 -1.895,-2.039C262.044,16.44 261.514,16.785 260.998,17.467z" id="path_5"/><path fill="#000002" d="M235.19,42.365c1.322,0 2.287,0 2.907,0h0.647c1.935,-0.255 4.828,-1.082 8.678,-2.479c-1.294,-1.082 -3.285,-1.888 -5.971,-2.425c-1.591,0 -2.666,0.751 -3.23,2.259c-0.2,0.448 -0.379,0.565 -0.538,0.352c-0.151,-0.207 -0.193,-0.482 -0.11,-0.833c0.971,-3.258 2.259,-4.884 3.877,-4.884h1.13c1.074,0 3.017,0.606 5.82,1.818c2.803,1.205 5.22,1.694 7.252,1.453c0.255,0 0.365,0.158 0.324,0.482c-0.434,2.687 -1.24,4.036 -2.424,4.036l-0.806,0.158v0.323c0.406,0.848 2.266,1.254 5.593,1.213v4.58c-4.814,0.255 -7.218,-1.619 -7.205,-5.627c-1.722,0.255 -4.057,1.054 -7.004,2.41c-2.948,1.35 -5.923,1.929 -8.94,1.743V42.365z" id="path_6"/><path fill="#000002" d="M249.777,48.997c0.166,-0.089 0.213,0.056 0.145,0.448c-0.916,2.148 -2.321,3.65 -4.215,4.497l-6.963,3.492c-0.296,-0.083 -0.352,-0.324 -0.166,-0.724c0.93,-1.79 1.564,-2.851 1.901,-3.188L249.777,48.997z" id="path_7"/><path fill="#203e96" d="M227.146,48.742c0.551,0 1.846,0.647 3.877,1.936c0,0.806 -0.647,2.101 -1.942,3.878c-2.583,-0.841 -3.871,-1.591 -3.871,-2.267C225.279,51.69 225.92,50.506 227.146,48.742z" id="path_8"/><path fill="#203e96" d="M221.271,42.365c1.15,0.014 1.86,-0.008 2.142,-0.063c2.425,-0.736 4.078,-2.308 4.966,-4.697c0.131,-0.462 0.4,-0.517 0.806,-0.165c0.213,0.186 0.378,0.943 0.482,2.259c1.467,1.977 3.299,2.865 5.489,2.666h0.427v4.601h-0.103c-3.43,-0.159 -5.958,-1.722 -7.59,-4.684h-0.159c-1.143,2.41 -2.651,3.892 -4.518,4.442c-0.565,0.158 -1.212,0.241 -1.943,0.241V42.365z" id="path_9"/><path fill="#203e96" d="M230.514,22.288c0.296,0.51 0.641,1.963 1.033,4.359c-0.241,1.454 -0.875,2.177 -1.901,2.177h-0.138c-0.448,0 -1.026,-0.289 -1.756,-0.868c-0.496,0.875 -1.226,1.316 -2.177,1.316c-1.157,0 -1.735,-1.405 -1.735,-4.216c0.337,-1.067 0.627,-1.598 0.868,-1.598l0.138,0.145v2.479c0.2,0.861 0.448,1.288 0.73,1.288h0.585c0.606,0 0.992,-0.241 1.171,-0.724l-0.303,-2.176c0.117,-0.73 0.316,-1.116 0.585,-1.15h0.303c0.303,2.418 0.792,3.63 1.446,3.63h1.013v-0.145l-0.441,-2.899v-0.166C230.052,22.771 230.245,22.288 230.514,22.288z" id="path_10"/><path fill="#203e96" d="M228.496,9.533c1.653,0 2.479,1.019 2.479,3.051c0,3.237 -2.762,5.999 -8.292,8.271c-0.792,0.241 -0.889,-0.048 -0.282,-0.867c0.151,-0.311 1.453,-1.281 3.912,-2.907v-0.138c-1.061,-0.434 -1.59,-1.356 -1.59,-2.769c0.702,-3.093 1.818,-4.642 3.347,-4.642H228.496L228.496,9.533zM226.03,13.024c0,0.861 0.73,1.392 2.184,1.598h0.282c0.537,0 0.882,-0.199 1.026,-0.585c0,-0.875 -0.633,-1.557 -1.894,-2.039C227.077,11.998 226.546,12.343 226.03,13.024z" id="path_11"/><path fill="#D50000" d="M221.677,46.966l-1.818,-0.021c-1.006,4.428 -3.671,6.667 -7.989,6.722c-2.314,0.104 -3.472,0.062 -3.472,-0.124c0.214,-0.406 1.763,-1.185 4.642,-2.342c2.962,-1.88 4.746,-3.092 5.366,-3.63l0.165,-0.481l-2.824,-0.448c-2.06,-0.537 -3.216,-1.57 -3.471,-3.105v-0.324c0,-2.61 0.641,-4.277 1.935,-5.007l0.971,-0.159c1.908,0 3.464,1.33 4.677,3.995c0.771,0.269 1.377,0.399 1.818,0.386V46.966z" id="path_12"/><path fill="#D50000" d="M214.19,24.768h1.598c1.935,0 2.906,0.724 2.906,2.177c-1.253,3.389 -2.776,5.186 -4.566,5.393l-2.115,0.282c-0.337,0 -0.475,-0.097 -0.427,-0.282c1.708,-0.902 3.306,-1.977 4.787,-3.21c-0.523,-0.489 -1.102,-0.729 -1.735,-0.729h-0.448l-1.735,0.145l-0.138,-0.145v-0.282C213.137,25.884 213.763,24.768 214.19,24.768z" id="path_13"/><path fill="#000002" d="M193.342,37.282h0.324c1.508,0.344 2.852,1.157 4.036,2.417v0.324c-0.104,0.86 -0.75,1.99 -1.936,3.389c-2.796,-0.938 -4.194,-1.75 -4.194,-2.418C192.24,39.059 192.833,37.819 193.342,37.282z" id="path_14"/><path fill="#000002" d="M201.903,34.052h0.317c0.379,0 1.295,2.425 2.748,7.267l0.159,0.641c0,3.794 -0.916,6.543 -2.742,8.236c-2.583,2.797 -5.647,4.195 -9.201,4.195c-2.907,-0.647 -4.787,-1.288 -5.648,-1.936c-2.803,-2.397 -4.201,-5.358 -4.201,-8.878c0,-2.962 1.295,-5.758 3.878,-8.396l0.158,-0.159h0.324l0.324,0.317c0,0.275 -0.751,1.453 -2.259,3.554c-0.434,0.751 -0.703,1.777 -0.807,3.065c0,2.507 1.288,4.655 3.871,6.46c2.528,0.971 4.25,1.453 5.166,1.453c2.314,0 5.056,-1.026 8.23,-3.065c1.295,-1.136 1.942,-1.831 1.942,-2.101l-2.259,-6.295l-0.165,-1.129L201.903,34.052z" id="path_15"/><path fill="#000002" d="M199.231,20.636c0.165,-0.098 0.213,0.055 0.145,0.447c-0.917,2.148 -2.321,3.65 -4.215,4.497l-6.963,3.492c-0.296,-0.083 -0.351,-0.323 -0.166,-0.73c0.93,-1.791 1.563,-2.851 1.901,-3.188L199.231,20.636z" id="path_16"/><path fill="#000002" d="M173.121,19.843c0.324,0 0.647,1.082 0.971,3.23l1.453,3.23l-0.647,3.712l0.482,9.043v1.446c-0.213,3.692 -0.75,5.841 -1.611,6.461l-0.159,-0.159l0.159,-2.424c0,-2.177 -0.703,-9.119 -2.101,-20.82C172.343,21.083 172.825,19.843 173.121,19.843z" id="path_17"/><path fill="#D50000" d="M157.776,42.344c0.186,0.014 0.386,0.021 0.606,0.021h1.529c1.618,-0.27 2.851,-0.834 3.712,-1.694l-1.936,-15.339c0.483,-2.906 0.917,-4.353 1.288,-4.353l2.101,4.842c0,0.751 -0.269,1.88 -0.806,3.389l0.806,8.713v2.424c-0.606,2.569 -1.419,4.366 -2.438,5.386c-0.771,0.819 -1.674,1.233 -2.728,1.233h-1.371c-0.269,0 -0.524,-0.007 -0.765,-0.021V42.344z" id="path_18"/><path fill="#D50000" d="M163.237,11.675h1.598c1.935,0 2.906,0.723 2.906,2.176c-1.253,3.389 -2.776,5.187 -4.566,5.394l-2.114,0.282c-0.337,0 -0.475,-0.097 -0.427,-0.282c1.708,-0.902 3.306,-1.977 4.787,-3.21c-0.523,-0.489 -1.103,-0.729 -1.736,-0.729h-0.448l-1.735,0.145l-0.138,-0.145v-0.282C162.184,12.79 162.811,11.675 163.237,11.675z" id="path_19"/><path fill="#000002" d="M144.669,42.365h0.365c1.102,0 2.266,-0.428 3.492,-1.281c1.226,-0.854 1.942,-1.929 2.163,-3.217l0.158,-0.165h0.159c0.192,0 0.461,0.592 0.813,1.777c1.529,2.1 3.685,3.064 6.454,2.906c0.186,0 0.378,-0.007 0.564,-0.021v4.621c-0.186,0.014 -0.378,0.021 -0.564,0.021l-2.259,-0.262c-0.241,2.148 -0.943,3.224 -2.101,3.23h-0.324c-2.149,-0.406 -3.223,-1.157 -3.223,-2.266l0.482,-2.907c-0.378,-0.427 -0.751,-0.641 -1.129,-0.641c-1.212,1.895 -2.893,2.831 -5.049,2.804V42.365z" id="path_20"/><path fill="#000002" d="M157.459,22.206c0.165,-0.097 0.213,0.055 0.145,0.447c-0.916,2.148 -2.321,3.65 -4.215,4.497l-6.963,3.492c-0.296,-0.083 -0.352,-0.323 -0.166,-0.729c0.93,-1.791 1.563,-2.852 1.901,-3.189L157.459,22.206z" id="path_21"/><path fill="#203e96" d="M145.275,46.966c-3.134,0.186 -5.414,-1.261 -6.839,-4.34c-0.688,-1.143 -1.329,-8.85 -1.935,-23.12v-0.324c0.399,-2.369 0.992,-3.554 1.77,-3.554l0.813,-0.158c0.992,0 2.5,0.323 4.518,0.964v0.324c-0.11,0.323 -0.434,0.488 -0.971,0.488h-2.742c-0.564,0 -1.102,0.317 -1.619,0.965c0.503,12.39 1.233,19.566 2.204,21.53c0.964,1.963 2.569,2.837 4.801,2.624V46.966z" id="path_22"/><path fill="#000002" d="M131.032,16.736c0.296,0 0.51,0.807 0.647,2.425l1.612,2.741v0.165c0,0.724 -0.324,2.019 -0.971,3.871l0.971,10.979v3.87c-0.351,2.239 -1.639,4.442 -3.877,6.619c-2.231,1.722 -4.222,2.583 -5.971,2.583h-0.964c-4.684,0 -7.7,-2.314 -9.043,-6.936l-0.324,-2.907c0,-2.988 1.295,-5.626 3.878,-7.913h0.158l0.324,0.324c0,0.592 -0.75,2.045 -2.259,4.359c-0.324,0.833 -0.482,1.584 -0.482,2.259v0.166c0,2.74 2.204,4.73 6.619,5.971l1.935,0.158h0.324c3.12,0 5.861,-1.453 8.23,-4.359l0.158,-0.482c-1.288,-11.247 -1.936,-18.134 -1.936,-20.662v-0.323C130.061,18.459 130.385,17.494 131.032,16.736z" id="path_23"/><path fill="#000002" d="M127.52,15.67c0.166,-0.097 0.214,0.055 0.145,0.447c-0.916,2.148 -2.321,3.65 -4.215,4.497l-6.963,3.492c-0.296,-0.083 -0.351,-0.323 -0.165,-0.729c0.93,-1.791 1.563,-2.852 1.901,-3.189L127.52,15.67z" id="path_24"/><path fill="#D50000" d="M86.009,42.365h1.86c1.962,-0.27 5.083,-0.999 9.36,-2.177v-0.165c-3.898,-1.723 -6.371,-2.583 -7.425,-2.583c-1.425,0 -2.39,0.806 -2.907,2.424l-0.482,0.324c-0.213,0 -0.324,-0.165 -0.324,-0.489c0.537,-3.223 1.991,-4.842 4.36,-4.842h0.806c0.999,0 4.387,1.13 10.172,3.389l4.36,0.323l0.317,0.489c-0.076,0.724 -0.723,2.121 -1.935,4.194h-0.482l-0.647,-0.165h-0.806c-8.396,2.479 -13.293,3.768 -14.691,3.878h-1.536V42.365z" id="path_25"/><path fill="#D50000" d="M96.988,18.349c1.653,0 2.479,1.019 2.479,3.051c0,3.237 -2.762,5.999 -8.292,8.271c-0.792,0.241 -0.888,-0.048 -0.282,-0.867c0.151,-0.311 1.453,-1.281 3.912,-2.907v-0.138c-1.061,-0.434 -1.591,-1.356 -1.591,-2.769c0.703,-3.092 1.818,-4.642 3.348,-4.642H96.988L96.988,18.349zM94.522,21.841c0,0.86 0.73,1.391 2.183,1.598h0.282c0.538,0 0.881,-0.2 1.026,-0.586c0,-0.874 -0.634,-1.557 -1.895,-2.038C95.569,20.814 95.039,21.158 94.522,21.841z" id="path_26"/><path fill="#f26122" d="M78.268,48.742c0.551,0 1.846,0.647 3.877,1.936c0,0.806 -0.647,2.101 -1.942,3.878c-2.583,-0.841 -3.87,-1.591 -3.87,-2.267C76.401,51.69 77.042,50.506 78.268,48.742z" id="path_27"/><path fill="#f26122" d="M72.393,42.365c1.15,0.014 1.859,-0.008 2.142,-0.063c2.424,-0.736 4.077,-2.308 4.965,-4.697c0.131,-0.462 0.4,-0.517 0.806,-0.165c0.213,0.186 0.379,0.943 0.482,2.259c1.467,1.977 3.299,2.865 5.489,2.666h0.427v4.601h-0.104c-3.43,-0.159 -5.958,-1.722 -7.59,-4.684h-0.158c-1.144,2.41 -2.651,3.892 -4.518,4.442c-0.565,0.158 -1.212,0.241 -1.942,0.241V42.365z" id="path_28"/><path fill="#f26122" d="M81.636,22.288c0.296,0.51 0.641,1.963 1.033,4.359c-0.241,1.454 -0.875,2.177 -1.901,2.177H80.63c-0.448,0 -1.026,-0.289 -1.756,-0.868c-0.496,0.875 -1.226,1.316 -2.177,1.316c-1.157,0 -1.735,-1.405 -1.735,-4.216c0.337,-1.067 0.627,-1.598 0.868,-1.598l0.138,0.145v2.479c0.199,0.861 0.448,1.288 0.729,1.288h0.585c0.606,0 0.992,-0.241 1.171,-0.724l-0.303,-2.176c0.117,-0.73 0.317,-1.116 0.585,-1.15h0.303c0.303,2.418 0.792,3.63 1.446,3.63h1.013v-0.145l-0.441,-2.899v-0.166C81.174,22.771 81.367,22.288 81.636,22.288z" id="path_29"/><path fill="#f26122" d="M83.854,14.622l0.166,0.145v0.441c-0.84,1.791 -2.004,3.044 -3.492,3.774c-4.628,2.514 -7.197,3.774 -7.707,3.774c-0.193,0 -0.29,-0.151 -0.29,-0.448c0.448,-1.708 1.419,-2.864 2.906,-3.471l8.279,-4.216H83.854z" id="path_30"/><path fill="#f26122" d="M82.703,10.992c0.187,0 0.283,0.139 0.283,0.421c-0.538,1.563 -2.128,2.969 -4.78,4.222l-6.116,3.348l-0.138,-0.145v-0.159c0.579,-2.045 1.495,-3.306 2.762,-3.773l6.818,-3.492L82.703,10.992z" id="path_31"/><path fill="#203e96" d="M72.435,46.966c-3.134,0.186 -5.414,-1.261 -6.839,-4.34c-0.688,-1.143 -1.329,-8.85 -1.935,-23.12v-0.324c0.399,-2.369 0.992,-3.554 1.77,-3.554l0.813,-0.158c0.992,0 2.5,0.323 4.518,0.964v0.324c-0.11,0.323 -0.434,0.488 -0.971,0.488h-2.742c-0.564,0 -1.102,0.317 -1.618,0.965c0.502,12.39 1.232,19.566 2.204,21.53c0.964,1.963 2.569,2.837 4.801,2.624V46.966z" id="path_32"/><path fill="#000002" d="M49.555,46.642c2.259,1.13 3.388,2.101 3.388,2.907c-1.074,2.128 -1.722,3.202 -1.936,3.229h-0.323c-1.653,-0.833 -2.679,-1.591 -3.065,-2.259C47.991,49.294 48.639,47.999 49.555,46.642z" id="path_33"/><path fill="#000002" d="M40.752,42.365h1.86c1.963,-0.27 5.083,-0.999 9.36,-2.177v-0.165c-3.898,-1.723 -6.371,-2.583 -7.425,-2.583c-1.425,0 -2.39,0.806 -2.907,2.424l-0.481,0.324c-0.214,0 -0.324,-0.165 -0.324,-0.489c0.538,-3.223 1.991,-4.842 4.36,-4.842H46c0.999,0 4.387,1.13 10.173,3.389l4.359,0.323l0.317,0.489c-0.076,0.724 -0.723,2.121 -1.935,4.194h-0.482l-0.647,-0.165h-0.806c-8.396,2.479 -13.292,3.768 -14.691,3.878h-1.536V42.365z" id="path_34"/><path fill="#000002" d="M56.008,21.317c0.165,-0.097 0.213,0.055 0.145,0.447c-0.916,2.148 -2.321,3.65 -4.215,4.497l-6.963,3.492c-0.296,-0.083 -0.351,-0.323 -0.165,-0.73c0.93,-1.791 1.563,-2.851 1.901,-3.188L56.008,21.317z" id="path_35"/><path fill="#e21171" d="M26.868,42.365h0.365c1.102,0 2.266,-0.428 3.492,-1.281c1.226,-0.854 1.942,-1.929 2.163,-3.217l0.158,-0.165h0.159c0.192,0 0.461,0.592 0.813,1.777c1.529,2.1 3.685,3.064 6.454,2.906c0.186,0 0.378,-0.007 0.565,-0.021v4.621c-0.187,0.014 -0.379,0.021 -0.565,0.021l-2.259,-0.262c-0.241,2.148 -0.943,3.224 -2.101,3.23h-0.324c-2.148,-0.406 -3.223,-1.157 -3.223,-2.266l0.482,-2.907c-0.379,-0.427 -0.751,-0.641 -1.129,-0.641c-1.212,1.895 -2.893,2.831 -5.048,2.804V42.365z" id="path_36"/><path fill="#e21171" d="M36.854,21.744c0.296,0.51 0.641,1.963 1.033,4.359c-0.241,1.453 -0.875,2.177 -1.901,2.177h-0.138c-0.448,0 -1.026,-0.289 -1.756,-0.868c-0.496,0.875 -1.226,1.315 -2.177,1.315c-1.157,0 -1.735,-1.405 -1.735,-4.215c0.337,-1.067 0.627,-1.598 0.868,-1.598l0.138,0.145v2.479c0.2,0.86 0.448,1.288 0.73,1.288h0.585c0.606,0 0.992,-0.241 1.171,-0.724l-0.303,-2.177c0.117,-0.729 0.317,-1.115 0.585,-1.149h0.303c0.303,2.417 0.792,3.629 1.446,3.629h1.013v-0.145l-0.441,-2.899v-0.165C36.393,22.226 36.585,21.744 36.854,21.744z" id="path_37"/><path fill="#e21171" d="M39.079,14.078l0.166,0.145v0.441c-0.84,1.791 -2.004,3.044 -3.492,3.774c-4.628,2.514 -7.197,3.774 -7.707,3.774c-0.193,0 -0.29,-0.152 -0.29,-0.448c0.448,-1.708 1.419,-2.865 2.907,-3.471l8.279,-4.216H39.079z" id="path_38"/><path fill="#e21171" d="M37.928,10.448c0.186,0 0.283,0.139 0.283,0.421c-0.538,1.563 -2.128,2.969 -4.78,4.222l-6.116,3.348l-0.138,-0.145v-0.159c0.578,-2.045 1.495,-3.306 2.762,-3.773l6.818,-3.492L37.928,10.448z" id="path_39"/><path fill="#000002" d="M27.474,46.966c-3.134,0.186 -5.414,-1.261 -6.839,-4.34c-0.688,-1.143 -1.329,-8.85 -1.935,-23.12v-0.324c0.399,-2.369 0.992,-3.554 1.77,-3.554l0.813,-0.158c0.992,0 2.5,0.323 4.518,0.964v0.324c-0.11,0.323 -0.434,0.488 -0.971,0.488h-2.741c-0.565,0 -1.102,0.317 -1.619,0.965c0.503,12.39 1.232,19.566 2.204,21.53c0.964,1.963 2.569,2.837 4.801,2.624V46.966z" id="path_40"/></svg>