<svg id="vector" xmlns="http://www.w3.org/2000/svg" width="216" height="67" viewBox="0 0 215.988 67"><path fill="#000002" d="M193.336,17.788h0.31c1.053,0.23 2.185,0.843 3.396,1.85v0.151c-0.698,2.112 -1.31,3.237 -1.85,3.396c-1.573,-0.31 -2.751,-0.822 -3.547,-1.54v-0.158C191.645,20.275 192.211,19.045 193.336,17.788z" id="path_0"/><path fill="#000002" d="M199.048,16.399h0.152c1.053,0.151 2.237,0.868 3.547,2.159v0.15l-1.85,3.238c-2.468,-0.796 -3.705,-1.461 -3.705,-2.001C197.989,17.577 198.608,16.399 199.048,16.399z" id="path_1"/><path fill="#000002" d="M191.967,33.846c4.042,0.04 6.299,-0.717 6.792,-2.276c0,-0.54 -0.514,-1.876 -1.547,-4.008l0.467,-4.009h0.303c1.342,2.311 2.007,4.627 2.007,6.937v1.39c0,0.928 -0.224,1.901 -0.665,2.922c-0.44,1.02 -1.125,1.882 -2.04,2.573c-0.921,0.697 -2.692,0.987 -5.318,0.868V33.846z" id="path_2"/><path fill="#000002" d="M201.74,8.101c0.158,-0.093 0.204,0.053 0.138,0.428c-0.875,2.053 -2.218,3.487 -4.028,4.297l-6.653,3.337c-0.283,-0.079 -0.336,-0.31 -0.158,-0.697c0.889,-1.711 1.494,-2.725 1.816,-3.047L201.74,8.101z" id="path_3"/><path fill="#008146" d="M192.158,38.256c-0.138,0.013 -0.283,0.02 -0.421,0.02h-0.777c-1.204,0 -2.027,-0.099 -2.468,-0.31c-0.895,3.462 -1.941,5.581 -3.139,6.357s-3.903,1.435 -8.115,1.975h-0.31c-0.928,-0.105 -1.389,-0.257 -1.389,-0.461c0,-0.309 0.77,-0.671 2.31,-1.079c6.068,-2.777 9.102,-4.784 9.102,-6.016c0,-0.513 -0.717,-1.697 -2.159,-3.547c-0.31,-0.52 -0.461,-1.185 -0.461,-2.007v-1.541c0,-0.776 0.151,-1.185 0.461,-1.236c1.336,2.047 3.6,3.185 6.785,3.429c0.197,0 0.388,0 0.579,-0.014V38.256z" id="path_4"/><path fill="#008146" d="M183.036,19.328h1.527c1.849,0 2.777,0.69 2.777,2.079c-1.198,3.238 -2.652,4.956 -4.363,5.153l-2.021,0.27c-0.323,0 -0.454,-0.092 -0.408,-0.27c1.632,-0.862 3.159,-1.889 4.574,-3.066c-0.5,-0.468 -1.053,-0.698 -1.659,-0.698h-0.428l-1.659,0.139l-0.131,-0.139v-0.27C182.029,20.395 182.628,19.328 183.036,19.328z" id="path_5"/><path fill="#D50000" d="M159.146,34.037c0.21,0 0.428,0 0.658,0h0.158c1.922,-0.118 3.672,-1.718 5.239,-4.798c1.698,-2.573 3.449,-3.856 5.245,-3.856c2.264,0 3.396,1.435 3.396,4.317v0.77c0,1.415 -0.566,3.265 -1.698,5.555l-1.079,0.771c-0.955,0 -3.16,-0.672 -6.634,-2.008c-1.053,1.58 -1.875,2.541 -2.468,2.876c-0.901,0.625 -1.823,0.889 -2.777,0.771h-0.04V34.037L159.146,34.037zM166.899,30.779v0.151c2.672,1.033 4.271,1.547 4.785,1.547c0.204,0 0.31,-0.158 0.31,-0.468c-0.592,-1.54 -1.573,-2.31 -2.935,-2.31C168.11,29.7 167.386,30.062 166.899,30.779z" id="path_6"/><path fill="#D50000" d="M171.697,40.783c0.158,-0.086 0.204,0.052 0.138,0.428c-0.875,2.053 -2.218,3.487 -4.028,4.297l-6.653,3.337c-0.283,-0.078 -0.336,-0.309 -0.158,-0.69c0.888,-1.712 1.494,-2.726 1.816,-3.048L171.697,40.783z" id="path_7"/><path fill="#203e96" d="M157.475,45.937c-0.645,0 -1.777,-0.777 -3.396,-2.317c0,-0.514 0.619,-1.646 1.85,-3.396h0.309c0.645,0 1.619,0.618 2.935,1.855v0.151C159.173,42.849 158.607,44.08 157.475,45.937z" id="path_8"/><path fill="#203e96" d="M151.92,46.706c-2.573,-1.106 -3.857,-1.981 -3.857,-2.626c0.158,-0.487 0.875,-1.566 2.159,-3.238c1.725,0.672 2.955,1.441 3.706,2.316C153.388,44.876 152.717,46.062 151.92,46.706z" id="path_9"/><path fill="#203e96" d="M160.502,38.434c-3.771,0 -5.653,-1.561 -5.653,-4.687c-0.046,-0.125 -0.099,-0.125 -0.151,0c0,1.402 -1.593,2.633 -4.785,3.706c-1.54,0.407 -2.554,0.651 -3.047,0.717c-0.487,0.072 -2.198,0.158 -5.127,0.264c-0.961,0.013 -2.014,-0.093 -3.14,-0.31c-1.132,-0.218 -1.941,-0.678 -2.435,-1.375c-0.487,-0.704 0.816,-1.179 3.916,-1.429c3.1,-0.25 4.64,-0.362 4.626,-0.336c5.16,-0.657 8.227,-1.639 9.221,-2.935c1.257,-1.981 1.981,-2.699 2.159,-2.159c0.039,0.257 -0.013,0.566 -0.158,0.928c0,1.968 1.29,3.074 3.856,3.337c0.197,-0.026 0.434,-0.013 0.717,0.033V38.434z" id="path_10"/><path fill="#203e96" d="M153.151,17.11h1.527c1.85,0 2.777,0.69 2.777,2.079c-1.197,3.238 -2.652,4.956 -4.363,5.153l-2.021,0.27c-0.323,0 -0.454,-0.092 -0.408,-0.27c1.632,-0.862 3.159,-1.889 4.574,-3.066c-0.5,-0.468 -1.053,-0.698 -1.659,-0.698h-0.428l-1.658,0.139l-0.132,-0.139v-0.27C152.144,18.177 152.743,17.11 153.151,17.11z" id="path_11"/><path fill="#000002" d="M144.279,37.716c0.526,0.941 0.816,1.494 0.869,1.658l0.072,1.257c-0.014,2.225 -0.31,3.758 -0.902,4.607c-0.592,0.849 -1.342,1.276 -2.257,1.29c-1.981,0 -4.034,-1.593 -6.173,-4.778c-0.368,-0.632 -0.73,-1.454 -1.079,-2.468h-1.54c-0.349,0 -0.678,-0.02 -1,-0.06v-4.416c0.474,0.105 0.961,0.151 1.461,0.151h0.618c0.849,-3.29 2.291,-5.759 4.317,-7.403c1.053,-0.823 2.034,-1.231 2.936,-1.231c1.388,0 2.211,1.027 2.467,3.087c0.408,2.066 -0.052,4.219 -1.388,6.456L144.279,37.716L144.279,37.716zM137.435,39.124c1.053,1.856 2.593,2.883 4.626,3.087c1.026,-0.092 1.698,-0.447 2.007,-1.079c-0.092,-1.244 -0.809,-2.001 -2.158,-2.264c-1.355,-0.264 -2.435,-0.356 -3.251,-0.264C137.843,38.696 137.435,38.868 137.435,39.124L137.435,39.124zM135.888,34.347c-0.112,0.342 0.04,0.5 0.468,0.46c1.954,0 3.902,-0.875 5.857,-2.619v-0.158c-0.435,-1.026 -1,-1.54 -1.691,-1.54C138.988,30.292 137.448,31.582 135.888,34.347z" id="path_12"/><path fill="#000002" d="M146.109,48.977c0.158,-0.086 0.204,0.053 0.138,0.428c-0.875,2.054 -2.218,3.488 -4.027,4.298l-6.654,3.336c-0.283,-0.078 -0.335,-0.309 -0.158,-0.69c0.889,-1.711 1.494,-2.725 1.816,-3.047L146.109,48.977z" id="path_13"/><path fill="#f26122" d="M132.229,39.203c-0.165,0 -0.342,0 -0.52,0h-0.151c-1.494,-0.013 -2.936,-0.276 -4.324,-0.79c-1.487,2.574 -3.442,3.857 -5.857,3.857c-2.883,-0.415 -4.324,-1.593 -4.324,-3.548h-0.151c-0.487,1.646 -1.566,2.981 -3.238,4.008c-2.237,0.823 -3.988,1.237 -5.245,1.237l-0.71,0.092v-0.309c0.572,-0.474 2.125,-1.573 4.653,-3.297c2.527,-1.718 3.962,-2.797 4.297,-3.238c0.342,-0.435 0.836,-1.889 1.481,-4.356c1.231,-2.054 2.363,-3.087 3.389,-3.087h0.31c1.283,0 3.343,1.389 6.173,4.166c0.822,0.697 2.224,1.007 4.218,0.928V39.203L132.229,39.203zM118.909,35.018c0,1.362 1.079,2.29 3.238,2.777h0.77c1.75,-0.178 2.626,-0.435 2.626,-0.77c-2.034,-1.955 -3.574,-2.929 -4.634,-2.929h-0.151C119.883,34.097 119.264,34.405 118.909,35.018z" id="path_14"/><path fill="#f26122" d="M119.448,16.781h1.527c1.849,0 2.777,0.69 2.777,2.079c-1.198,3.238 -2.652,4.956 -4.363,5.153l-2.021,0.27c-0.322,0 -0.454,-0.092 -0.408,-0.27c1.632,-0.862 3.159,-1.889 4.574,-3.066c-0.5,-0.468 -1.053,-0.698 -1.658,-0.698h-0.428l-1.659,0.139l-0.131,-0.139v-0.27C118.441,17.848 119.041,16.781 119.448,16.781z" id="path_15"/><path fill="#D50000" d="M97.697,44.462c0.526,0 1.757,0.618 3.699,1.855c0,0.771 -0.612,2.001 -1.849,3.699c-2.468,-0.797 -3.699,-1.514 -3.699,-2.159C95.907,47.278 96.526,46.146 97.697,44.462z" id="path_16"/><path fill="#D50000" d="M93.992,37.696c4.041,0.039 6.298,-0.718 6.792,-2.277c0,-0.539 -0.513,-1.876 -1.547,-4.008l0.467,-4.008h0.302c1.343,2.31 2.008,4.626 2.008,6.937v1.389c0,0.928 -0.224,1.902 -0.665,2.922c-0.441,1.021 -1.125,1.882 -2.041,2.573c-0.921,0.697 -2.691,0.987 -5.317,0.869V37.696z" id="path_17"/><path fill="#D50000" d="M105.272,50.865c0.158,-0.086 0.204,0.053 0.139,0.428c-0.875,2.054 -2.218,3.488 -4.028,4.298l-6.654,3.336c-0.283,-0.078 -0.335,-0.309 -0.158,-0.69c0.888,-1.711 1.494,-2.725 1.816,-3.047L105.272,50.865z" id="path_18"/><path fill="#000002" d="M72.491,36.255c1.263,0 2.185,0 2.777,0h0.618c1.85,-0.243 4.613,-1.033 8.292,-2.369c-1.237,-1.033 -3.139,-1.804 -5.706,-2.316c-1.52,0 -2.546,0.717 -3.086,2.158c-0.191,0.428 -0.362,0.54 -0.513,0.336c-0.145,-0.197 -0.184,-0.461 -0.105,-0.797c0.928,-3.112 2.159,-4.666 3.705,-4.666h1.08c1.027,0 2.882,0.579 5.561,1.737c2.679,1.152 4.989,1.619 6.93,1.389c0.244,0 0.349,0.152 0.31,0.461c-0.415,2.566 -1.185,3.856 -2.317,3.856l-0.77,0.151v0.31c0.388,0.81 2.165,1.198 5.344,1.158v4.377c-4.601,0.243 -6.897,-1.547 -6.884,-5.377c-1.645,0.243 -3.876,1.007 -6.693,2.304c-2.816,1.289 -5.66,1.843 -8.542,1.664V36.255z" id="path_19"/><path fill="#000002" d="M86.43,42.593c0.158,-0.086 0.204,0.052 0.138,0.428c-0.875,2.053 -2.218,3.488 -4.028,4.297l-6.653,3.337c-0.283,-0.078 -0.335,-0.309 -0.158,-0.69c0.888,-1.711 1.494,-2.725 1.816,-3.047L86.43,42.593z" id="path_20"/><path fill="#203e96" d="M50.701,34.807c1.263,0 2.185,0 2.777,0h0.619c1.85,-0.243 4.614,-1.033 8.292,-2.369c-1.237,-1.033 -3.139,-1.803 -5.706,-2.316c-1.52,0 -2.547,0.717 -3.086,2.159c-0.191,0.428 -0.362,0.539 -0.513,0.335c-0.145,-0.197 -0.185,-0.46 -0.105,-0.796c0.928,-3.113 2.159,-4.666 3.705,-4.666h1.08c1.027,0 2.882,0.579 5.561,1.737c2.679,1.151 4.988,1.618 6.93,1.389c0.243,0 0.349,0.151 0.31,0.46c-0.415,2.567 -1.185,3.857 -2.317,3.857l-0.77,0.151v0.309c0.388,1.066 2.165,1.455 5.344,1.159v4.376c-4.6,0.243 -6.897,-1.547 -6.884,-5.377c-1.645,0.243 -3.876,1.007 -6.693,2.304c-2.817,1.29 -5.66,1.843 -8.542,1.665V34.807z" id="path_21"/><path fill="#203e96" d="M58.394,39.802c2.159,1.08 3.245,2.008 3.245,2.777c-1.033,2.027 -1.646,3.061 -1.856,3.08h-0.309c-1.58,-0.796 -2.553,-1.514 -2.929,-2.158C56.907,42.336 57.525,41.099 58.394,39.802z" id="path_22"/><path fill="#203e96" d="M67.068,14.353c0.158,-0.093 0.204,0.053 0.138,0.428c-0.875,2.054 -2.218,3.488 -4.027,4.298l-6.654,3.336c-0.283,-0.079 -0.335,-0.309 -0.158,-0.697c0.889,-1.711 1.494,-2.725 1.817,-3.047L67.068,14.353z" id="path_23"/><path fill="#D50000" d="M50.74,39.203c-2.995,0.178 -5.173,-1.204 -6.535,-4.146c-0.658,-1.092 -1.271,-8.457 -1.85,-22.093v-0.31c0.382,-2.264 0.947,-3.396 1.691,-3.396l0.776,-0.151c0.948,0 2.389,0.309 4.317,0.921v0.31c-0.105,0.31 -0.415,0.467 -0.928,0.467h-2.619c-0.54,0 -1.053,0.303 -1.547,0.922c0.48,11.84 1.178,18.697 2.106,20.573c0.921,1.875 2.455,2.711 4.587,2.507V39.203z" id="path_24"/><path fill="#008146" d="M35.438,30.681c0.921,0.928 1.797,2.929 2.619,6.015l0.158,2.008c0,3.626 -1.803,6.094 -5.403,7.403l-1.079,0.152l-2.738,0.039l-2.659,-0.039l-0.151,-0.152v-0.157c0.329,-0.355 2.54,-1.435 6.627,-3.238c2.573,-1.461 3.962,-2.751 4.166,-3.856c-1.336,-2.85 -2.001,-4.495 -2.001,-4.936v-0.461C34.978,31.608 35.129,30.681 35.438,30.681z" id="path_25"/><path fill="#008146" d="M39.558,20.4c0.158,-0.092 0.204,0.053 0.138,0.428c-0.875,2.054 -2.218,3.488 -4.028,4.298l-6.653,3.337c-0.283,-0.079 -0.335,-0.31 -0.158,-0.697c0.889,-1.712 1.494,-2.725 1.816,-3.048L39.558,20.4z" id="path_26"/><path fill="#000002" d="M17.024,15.544c1.205,0.361 2.441,1.132 3.699,2.316v0.151c-1.152,2.033 -1.823,3.061 -2,3.087h-0.468c-0.869,-0.132 -1.796,-0.691 -2.777,-1.698v-0.151C15.583,18.038 16.096,16.808 17.024,15.544z" id="path_27"/><path fill="#000002" d="M22.881,15.853c1.132,0.257 2.264,0.929 3.396,2.008v0.151c0,0.566 -0.619,1.593 -1.85,3.087h-0.46c-0.724,0 -1.646,-0.566 -2.777,-1.698C21.473,17.808 22.039,16.623 22.881,15.853z" id="path_28"/><path fill="#000002" d="M25.409,23.316l0.158,0.46c-0.211,0.876 -1.132,1.902 -2.777,3.087c1.645,1.336 2.468,3.291 2.468,5.864v0.151c0,4.219 -1.75,6.324 -5.245,6.324c-2.777,-0.539 -4.166,-1.928 -4.166,-4.166v-0.151c0.105,-1.928 0.875,-3.988 2.317,-6.173c-1.336,-0.408 -2.007,-0.975 -2.007,-1.698c0,-1.929 0.151,-3.106 0.46,-3.547c1.389,0.388 2.936,1.158 4.627,2.316H21.4L25.409,23.316L25.409,23.316zM19.393,29.482c-1.23,1.237 -1.85,2.113 -1.85,2.626c0,1.593 1.132,2.521 3.396,2.777c1.178,-0.158 2.211,-0.565 3.08,-1.237C23.02,31.925 21.479,30.542 19.393,29.482z" id="path_29"/><path fill="#f26122" d="M24.613,46.278l0.158,0.138v0.422c-0.796,1.711 -1.909,2.908 -3.336,3.606c-4.423,2.401 -6.877,3.606 -7.365,3.606c-0.178,0 -0.27,-0.146 -0.27,-0.428c0.421,-1.633 1.35,-2.738 2.777,-3.317l7.904,-4.027H24.613z" id="path_30"/><path fill="#f26122" d="M23.514,42.81c0.185,0 0.27,0.132 0.27,0.401c-0.513,1.494 -2.034,2.837 -4.567,4.035l-5.845,3.198l-0.131,-0.139v-0.151c0.553,-1.954 1.435,-3.159 2.639,-3.606l6.521,-3.337L23.514,42.81z" id="path_31"/></svg>