<svg id="vector" xmlns="http://www.w3.org/2000/svg" width="99" height="67" viewBox="0 0 99.179 67"><path fill="#D50000" d="M79.808,39.806c1.591,-0.2 2.383,-0.51 2.383,-0.93c0,-3.203 0.971,-7.073 2.906,-11.619c0.27,-0.593 0.538,-0.647 0.807,-0.165c0.702,1.508 1.935,2.748 3.712,3.712c3.664,1.777 5.489,4.201 5.489,7.266c0,3.203 -0.695,5.035 -2.101,5.49l-1.611,0.158l-6.137,-0.324c-1.708,0.73 -3.52,1.068 -5.448,1.013V39.806L79.808,39.806zM88.975,39.041l4.029,0.158l0.647,-0.158c-0.992,-1.377 -2.287,-2.452 -3.871,-3.23C89.484,35.811 89.216,36.885 88.975,39.041L88.975,39.041zM83.644,36.94c0,1.02 0.806,1.667 2.425,1.936c1.398,-0.778 2.094,-1.584 2.094,-2.418c-0.482,-1.942 -1.288,-2.906 -2.418,-2.906C84.587,33.552 83.885,34.682 83.644,36.94z" id="path_0"/><path fill="#D50000" d="M87.7,12.201c1.653,0 2.479,1.02 2.479,3.051c0,3.237 -2.762,5.999 -8.292,8.271c-0.792,0.241 -0.889,-0.048 -0.282,-0.867c0.151,-0.311 1.453,-1.281 3.912,-2.906v-0.139c-1.062,-0.434 -1.591,-1.356 -1.591,-2.769c0.702,-3.092 1.817,-4.642 3.347,-4.642H87.7L87.7,12.201zM85.234,15.693c0,0.86 0.73,1.391 2.184,1.598H87.7c0.538,0 0.882,-0.2 1.026,-0.586c0,-0.874 -0.634,-1.557 -1.894,-2.038C86.281,14.667 85.751,15.011 85.234,15.693z" id="path_1"/><path fill="#000002" d="M79.891,44.406c-0.173,0 -0.358,0 -0.544,0h-0.159c-1.563,-0.014 -3.071,-0.289 -4.524,-0.826c-1.557,2.692 -3.603,4.036 -6.13,4.036c-3.017,-0.434 -4.525,-1.667 -4.525,-3.713H63.85c-0.51,1.722 -1.64,3.12 -3.389,4.194c-2.342,0.861 -4.174,1.295 -5.489,1.295l-0.743,0.097v-0.324c0.599,-0.495 2.224,-1.646 4.869,-3.45c2.645,-1.798 4.146,-2.927 4.497,-3.389c0.358,-0.454 0.875,-1.977 1.55,-4.56c1.288,-2.148 2.473,-3.229 3.547,-3.229h0.323c1.344,0 3.499,1.453 6.461,4.359c0.86,0.73 2.328,1.054 4.415,0.971V44.406L79.891,44.406zM65.95,40.025c0,1.426 1.13,2.397 3.389,2.907h0.806c1.832,-0.186 2.748,-0.455 2.748,-0.806c-2.128,-2.046 -3.74,-3.065 -4.849,-3.065h-0.158C66.97,39.062 66.322,39.386 65.95,40.025z" id="path_2"/><path fill="#000002" d="M66.515,20.941h1.599c1.935,0 2.906,0.723 2.906,2.176c-1.254,3.389 -2.775,5.187 -4.566,5.394l-2.114,0.282c-0.338,0 -0.476,-0.097 -0.428,-0.282c1.709,-0.902 3.307,-1.977 4.787,-3.21c-0.523,-0.489 -1.102,-0.73 -1.735,-0.73h-0.448l-1.735,0.146l-0.138,-0.146v-0.281C65.461,22.057 66.088,20.941 66.515,20.941z" id="path_3"/><path fill="#000002" d="M46.17,18.744c1.397,0 2.686,0.86 3.87,2.583c-0.991,2.259 -1.749,3.388 -2.259,3.388c-2.177,-1.074 -3.361,-1.776 -3.554,-2.101C44.228,21.596 44.875,20.301 46.17,18.744z" id="path_4"/><path fill="#000002" d="M40.942,39h0.806c5.021,-0.097 8.354,-0.799 10.007,-2.121l0.324,-0.641c-0.214,-0.517 -0.482,-0.771 -0.806,-0.771c-0.778,0.434 -1.64,0.647 -2.583,0.647h-0.165c-2.797,-0.324 -4.25,-1.453 -4.354,-3.389V32.56c0.269,-3.656 1.13,-5.482 2.583,-5.482h0.806c2.486,-0.124 4.374,1.812 5.647,5.807l0.159,1.619v0.323c-0.034,3.953 -1.453,6.563 -4.257,7.824c-0.991,0.633 -3.719,0.95 -8.168,0.95V39z" id="path_5"/><path fill="#000002" d="M52.74,46.362c0.165,-0.09 0.214,0.056 0.145,0.447c-0.916,2.149 -2.321,3.65 -4.215,4.498L41.707,54.8c-0.296,-0.083 -0.352,-0.324 -0.166,-0.724c0.93,-1.79 1.563,-2.852 1.901,-3.188L52.74,46.362z" id="path_6"/><path fill="#D50000" d="M39.007,51.452c-0.675,0 -1.86,-0.813 -3.554,-2.425c0,-0.537 0.647,-1.722 1.935,-3.554h0.324c0.675,0 1.694,0.647 3.071,1.942v0.158C40.783,48.222 40.191,49.51 39.007,51.452z" id="path_7"/><path fill="#D50000" d="M33.193,52.258c-2.692,-1.157 -4.036,-2.073 -4.036,-2.748c0.166,-0.51 0.917,-1.639 2.26,-3.389c1.804,0.703 3.092,1.509 3.877,2.425C34.729,50.344 34.027,51.583 33.193,52.258z" id="path_8"/><path fill="#000002" d="M42.175,43.601c-3.946,0 -5.916,-1.633 -5.916,-4.904c-0.049,-0.131 -0.104,-0.131 -0.158,0c0,1.467 -1.667,2.755 -5.008,3.878c-1.611,0.427 -2.672,0.682 -3.188,0.751c-0.51,0.075 -2.301,0.165 -5.365,0.275c-1.006,0.014 -2.107,-0.097 -3.285,-0.324c-1.185,-0.227 -2.032,-0.709 -2.549,-1.439c-0.51,-0.736 0.854,-1.232 4.099,-1.494c3.243,-0.262 4.855,-0.379 4.842,-0.352c5.399,-0.688 8.608,-1.715 9.648,-3.071c1.316,-2.073 2.073,-2.824 2.26,-2.259c0.041,0.269 -0.014,0.592 -0.166,0.971c0,2.06 1.351,3.217 4.036,3.491c0.207,-0.027 0.455,-0.014 0.751,0.035V43.601z" id="path_9"/><path fill="#D50000" d="M34.481,21.286h1.598c1.936,0 2.907,0.723 2.907,2.176c-1.254,3.389 -2.776,5.187 -4.566,5.393l-2.114,0.282c-0.338,0 -0.476,-0.096 -0.428,-0.282c1.709,-0.901 3.307,-1.977 4.787,-3.209c-0.523,-0.489 -1.103,-0.73 -1.735,-0.73h-0.448l-1.735,0.145l-0.138,-0.145v-0.282C33.428,22.401 34.055,21.286 34.481,21.286z" id="path_10"/><path fill="#000002" d="M25.197,42.85c0.551,0.985 0.854,1.563 0.909,1.736l0.076,1.314c-0.014,2.328 -0.324,3.934 -0.944,4.821c-0.619,0.889 -1.404,1.337 -2.362,1.351c-2.072,0 -4.222,-1.667 -6.46,-5.001c-0.386,-0.661 -0.765,-1.521 -1.13,-2.582h-1.611c-0.365,0 -0.71,-0.021 -1.047,-0.063v-4.621c0.496,0.11 1.006,0.158 1.529,0.158h0.647c0.888,-3.443 2.396,-6.026 4.518,-7.748c1.103,-0.861 2.129,-1.288 3.072,-1.288c1.453,0 2.313,1.074 2.583,3.23c0.427,2.162 -0.056,4.414 -1.454,6.756L25.197,42.85L25.197,42.85zM18.035,44.323c1.102,1.942 2.713,3.017 4.841,3.23c1.075,-0.097 1.777,-0.469 2.102,-1.129c-0.097,-1.302 -0.848,-2.095 -2.26,-2.369c-1.419,-0.276 -2.548,-0.372 -3.402,-0.276C18.462,43.876 18.035,44.056 18.035,44.323L18.035,44.323zM16.416,39.323c-0.117,0.358 0.042,0.523 0.489,0.482c2.045,0 4.084,-0.916 6.13,-2.741v-0.166c-0.455,-1.073 -1.047,-1.611 -1.771,-1.611C19.66,35.081 18.049,36.431 16.416,39.323z" id="path_11"/><path fill="#000002" d="M25.7,20.211c0.165,-0.097 0.214,0.055 0.145,0.447c-0.916,2.149 -2.32,3.65 -4.215,4.498l-6.963,3.492c-0.296,-0.083 -0.352,-0.324 -0.166,-0.73c0.931,-1.791 1.564,-2.852 1.901,-3.189L25.7,20.211z" id="path_12"/><path fill="#203e96" d="M12.849,44.406c-3.134,0.186 -5.413,-1.261 -6.839,-4.339c-0.688,-1.144 -1.329,-8.851 -1.936,-23.121v-0.323c0.399,-2.37 0.992,-3.554 1.77,-3.554l0.813,-0.159c0.991,0 2.5,0.324 4.518,0.964v0.324c-0.11,0.323 -0.434,0.489 -0.971,0.489H7.463c-0.564,0 -1.103,0.316 -1.619,0.964c0.503,12.391 1.233,19.567 2.204,21.53c0.965,1.963 2.569,2.837 4.801,2.624V44.406z" id="path_13"/></svg>