<svg id="vector" xmlns="http://www.w3.org/2000/svg" width="174" height="67" viewBox="0 0 174.112 67"><path fill="#D50000" d="M31.726,38.597c0.027,0 0.061,0 0.095,0c2.523,-0.155 3.97,-1.285 4.34,-3.391c-0.949,-6.305 -1.42,-10.726 -1.42,-13.249c0,-0.969 0.424,-2.233 1.265,-3.78l0.155,0.154l0.316,0.316l-0.162,1.104c0.135,7.085 1.029,12.575 2.685,16.478c0.633,1.42 2.18,2.213 4.649,2.368v4.494c-3.391,-0.054 -5.672,-1.837 -6.856,-5.362h-0.161c-1.09,3.532 -2.725,5.322 -4.905,5.362V38.597z" id="path_0"/><path fill="#D50000" d="M35.346,9.269h1.561c1.891,0 2.84,0.706 2.84,2.126c-1.225,3.31 -2.712,5.066 -4.461,5.269l-2.066,0.275c-0.329,0 -0.464,-0.095 -0.417,-0.275c1.669,-0.882 3.23,-1.932 4.677,-3.136c-0.512,-0.478 -1.076,-0.714 -1.695,-0.714h-0.438l-1.695,0.142l-0.135,-0.142v-0.275C34.316,10.358 34.929,9.269 35.346,9.269z" id="path_1"/><path fill="#000002" d="M16.722,46.166c0.538,0 1.797,0.633 3.781,1.891c0,0.787 -0.632,2.052 -1.891,3.788c-2.522,-0.814 -3.788,-1.555 -3.788,-2.207C14.892,49.046 15.524,47.889 16.722,46.166z" id="path_2"/><path fill="#000002" d="M32.177,43.111c-2.012,-0.161 -3.835,-1.574 -5.464,-4.238c-2.415,2.939 -5.887,4.413 -10.408,4.413h-1.258c-4.892,0 -8.256,-2.099 -10.093,-6.304l-0.161,-0.949v-1.42c0,-1.521 0.686,-3.256 2.052,-5.201H7l0.315,0.316v0.787l-0.787,2.523c0,2.759 2.314,4.649 6.938,5.679l2.839,0.155c4.918,0 8.808,-1.683 11.674,-5.047c0.154,0 0.31,0.209 0.471,0.633l-0.161,1.104c0.538,1.984 1.837,2.98 3.889,2.994V43.111z" id="path_3"/><path fill="#000002" d="M22.098,53.123c0.162,-0.088 0.209,0.054 0.142,0.438c-0.896,2.099 -2.268,3.565 -4.118,4.394l-6.802,3.411c-0.289,-0.081 -0.344,-0.316 -0.162,-0.706c0.909,-1.75 1.527,-2.786 1.857,-3.115L22.098,53.123z" id="path_4"/><path fill="#000002" d="M154.296,34.594c0.216,0 0.438,0 0.673,0h0.161c1.965,-0.121 3.755,-1.757 5.356,-4.905c1.735,-2.631 3.525,-3.942 5.362,-3.942c2.314,0 3.472,1.466 3.472,4.413v0.787c0,1.447 -0.579,3.338 -1.736,5.679l-1.104,0.787c-0.976,0 -3.229,-0.686 -6.781,-2.052c-1.077,1.615 -1.918,2.597 -2.523,2.94c-0.922,0.639 -1.864,0.908 -2.839,0.787h-0.041V34.594L154.296,34.594zM162.222,31.263v0.155c2.732,1.056 4.367,1.581 4.892,1.581c0.208,0 0.316,-0.162 0.316,-0.478c-0.605,-1.575 -1.608,-2.362 -3.001,-2.362C163.46,30.159 162.72,30.529 162.222,31.263z" id="path_5"/><path fill="#000002" d="M167.309,41.492c0.161,-0.094 0.208,0.054 0.142,0.438c-0.896,2.1 -2.268,3.565 -4.118,4.394l-6.803,3.411c-0.289,-0.08 -0.343,-0.316 -0.161,-0.713c0.908,-1.75 1.527,-2.785 1.857,-3.115L167.309,41.492z" id="path_6"/><path fill="#f26122" d="M140.738,34.89c1.555,0.497 2.759,1.13 3.627,1.891v0.316c0,0.524 -0.579,1.682 -1.736,3.472c-1.076,0 -2.28,-0.579 -3.626,-1.736v-0.316C139.003,37.386 139.581,36.182 140.738,34.89z" id="path_7"/><path fill="#f26122" d="M154.639,39.027c-1.433,0 -2.543,-0.222 -3.337,-0.666c-0.39,3.418 -1.124,5.779 -2.207,7.099c-2.597,3.256 -5.281,4.884 -8.04,4.884c-5.073,0 -8.384,-2.206 -9.938,-6.62c-0.31,-0.841 -0.471,-1.735 -0.471,-2.685v-1.258c0,-3.734 1.156,-6.675 3.472,-8.835c0.417,0.162 0.632,0.525 0.632,1.104l-2.522,4.575l-0.162,1.575c0,3.552 1.944,6.021 5.834,7.414l4.104,0.316c1.729,0 3.89,-1.003 6.467,-2.994c0.941,-1.527 1.419,-2.631 1.419,-3.317c-0.107,-1.049 -0.794,-2.57 -2.052,-4.568v-3.317l0.471,-0.471c1.144,2.302 3.257,3.411 6.331,3.331V39.027z" id="path_8"/><path fill="#f26122" d="M140.76,14.819h1.562c1.891,0 2.839,0.706 2.839,2.126c-1.225,3.311 -2.712,5.066 -4.461,5.269l-2.065,0.275c-0.33,0 -0.465,-0.094 -0.417,-0.275c1.668,-0.882 3.229,-1.932 4.676,-3.136c-0.511,-0.478 -1.076,-0.713 -1.695,-0.713h-0.438l-1.695,0.141l-0.135,-0.141V18.09C139.73,15.909 140.343,14.819 140.76,14.819z" id="path_9"/><path fill="#D50000" d="M123.534,46.637c0.538,0 1.796,0.633 3.781,1.897c0,0.787 -0.626,2.046 -1.891,3.781c-2.523,-0.813 -3.781,-1.547 -3.781,-2.206C121.704,49.517 122.336,48.359 123.534,46.637z" id="path_10"/><path fill="#D50000" d="M119.746,39.721c4.131,0.04 6.438,-0.733 6.943,-2.328c0,-0.552 -0.524,-1.918 -1.581,-4.098l0.478,-4.098h0.31c1.372,2.361 2.052,4.73 2.052,7.092v1.42c0,0.948 -0.229,1.944 -0.68,2.987c-0.45,1.043 -1.15,1.924 -2.085,2.631c-0.942,0.713 -2.752,1.009 -5.437,0.888V39.721z" id="path_11"/><path fill="#D50000" d="M129.979,18.156c0.162,-0.094 0.209,0.054 0.142,0.438c-0.896,2.099 -2.268,3.565 -4.118,4.394l-6.802,3.411c-0.289,-0.081 -0.344,-0.316 -0.162,-0.713c0.908,-1.75 1.527,-2.786 1.857,-3.115L129.979,18.156z" id="path_12"/><path fill="#000002" d="M107.137,47.074h0.633c2.072,1.178 3.122,1.864 3.148,2.046c-1.022,2.207 -1.709,3.363 -2.045,3.472c-1.185,0 -2.342,-0.579 -3.473,-1.736C105.609,49.726 106.188,48.467 107.137,47.074z" id="path_13"/><path fill="#000002" d="M112.654,46.28c1.002,0 2.207,0.687 3.626,2.052c0,0.552 -0.68,1.655 -2.052,3.311c-0.787,0 -1.944,-0.524 -3.465,-1.574C110.764,49.146 111.396,47.889 112.654,46.28z" id="path_14"/><path fill="#000002" d="M106.78,34.473h0.04c1.837,0 3.311,-0.626 4.414,-1.891l-0.154,-1.259c0,-1.554 0.315,-2.813 0.941,-3.788c0.289,0 0.714,2.685 1.265,8.04c0.633,2.894 2.833,4.232 6.601,4.024v4.494c-3.681,0.263 -6.243,-1.42 -7.704,-5.047c-0.235,-2.522 -0.497,-3.78 -0.787,-3.78c-0.619,2.388 -2.159,3.646 -4.615,3.761V34.473z" id="path_15"/><path fill="#000002" d="M112.277,15.849h1.562c1.89,0 2.839,0.706 2.839,2.126c-1.225,3.311 -2.711,5.066 -4.461,5.269l-2.065,0.275c-0.33,0 -0.464,-0.094 -0.417,-0.275c1.669,-0.882 3.229,-1.932 4.676,-3.136c-0.511,-0.479 -1.076,-0.713 -1.695,-0.713h-0.438l-1.695,0.141l-0.135,-0.141v-0.276C111.248,16.938 111.86,15.849 112.277,15.849z" id="path_16"/><path fill="#203e96" d="M93.276,34.89c1.555,0.497 2.759,1.13 3.627,1.891v0.316c0,0.524 -0.579,1.682 -1.736,3.472c-1.076,0 -2.28,-0.579 -3.626,-1.736v-0.316C91.541,37.386 92.119,36.182 93.276,34.89z" id="path_17"/><path fill="#203e96" d="M107.178,39.027c-1.434,0 -2.544,-0.222 -3.338,-0.666c-0.39,3.418 -1.123,5.779 -2.207,7.099c-2.597,3.256 -5.281,4.884 -8.04,4.884c-5.073,0 -8.383,-2.206 -9.938,-6.62c-0.31,-0.841 -0.471,-1.735 -0.471,-2.685v-1.258c0,-3.734 1.157,-6.675 3.472,-8.835c0.417,0.162 0.632,0.525 0.632,1.104l-2.522,4.575L84.604,38.2c0,3.552 1.945,6.021 5.834,7.414l4.104,0.316c1.729,0 3.889,-1.003 6.466,-2.994c0.941,-1.527 1.419,-2.631 1.419,-3.317c-0.107,-1.049 -0.794,-2.57 -2.052,-4.568v-3.317l0.471,-0.471c1.145,2.302 3.257,3.411 6.332,3.331V39.027z" id="path_18"/><path fill="#203e96" d="M98.929,52.409c0.161,-0.087 0.208,0.055 0.141,0.438c-0.895,2.1 -2.267,3.566 -4.117,4.394l-6.803,3.412c-0.289,-0.081 -0.343,-0.316 -0.161,-0.707c0.908,-1.749 1.527,-2.785 1.857,-3.115L98.929,52.409z" id="path_19"/><path fill="#000002" d="M77.963,16.595c0.316,0 0.633,1.057 0.948,3.156l1.42,3.155l-0.633,3.627l0.472,8.834v1.413c-0.209,3.606 -0.733,5.705 -1.574,6.311l-0.155,-0.154l0.155,-2.368c0,-2.127 -0.687,-8.908 -2.053,-20.34C77.202,17.807 77.674,16.595 77.963,16.595z" id="path_20"/><path fill="#000002" d="M73.515,36.134c-0.35,1.783 -1.19,3.203 -2.502,4.26c-1.212,0.867 -3.466,1.709 -6.782,2.522c-6.95,0.444 -10.88,0.074 -11.788,-1.104c-0.969,-1.016 2.436,-1.81 10.214,-2.389c4.07,-0.578 7.226,-1.675 9.46,-3.29c0.026,-0.013 0.054,-0.08 0.08,-0.208c0.027,-0.121 -0.612,-5.06 -1.911,-14.815c0.472,-2.84 0.896,-4.253 1.259,-4.253l2.052,4.73c0,0.733 -0.262,1.837 -0.787,3.311l0.787,8.511C73.636,34.869 73.609,35.777 73.515,36.134z" id="path_21"/><path fill="#008146" d="M43.083,38.597h0.612c2.079,-0.222 3.828,-1.48 5.248,-3.768c0.209,-0.471 0.417,-0.733 0.626,-0.787h0.161l0.472,0.478c-0.067,0.599 -0.169,1.022 -0.316,1.258c0.922,1.683 2.024,2.523 3.31,2.523l0.162,0.154c2.287,-5.046 4.857,-7.568 7.724,-7.568c2.288,0 3.97,0.948 5.047,2.839v0.948c0,5.779 -3.573,8.673 -10.726,8.673l-2.361,-0.154c-0.733,1.991 -1.211,2.994 -1.42,2.994l-0.154,-0.155V45.87l0.471,-2.678v-0.316c-1.555,-0.868 -2.759,-2.079 -3.626,-3.627c-0.814,2.665 -2.558,3.95 -5.229,3.842V38.597L43.083,38.597zM54.932,38.771h0.316c3.572,0 6.62,-0.524 9.144,-1.574c0,-1.131 -1.05,-1.917 -3.148,-2.368H60.61C58.087,34.829 56.196,36.147 54.932,38.771z" id="path_22"/><path fill="#008146" d="M57.408,18.096c0.289,0.498 0.625,1.917 1.009,4.259c-0.235,1.42 -0.854,2.126 -1.857,2.126h-0.134c-0.438,0 -1.003,-0.282 -1.716,-0.848c-0.484,0.854 -1.198,1.285 -2.127,1.285c-1.13,0 -1.695,-1.372 -1.695,-4.117c0.33,-1.043 0.612,-1.562 0.849,-1.562l0.134,0.142v2.422c0.195,0.842 0.438,1.259 0.713,1.259h0.572c0.593,0 0.969,-0.236 1.145,-0.707l-0.297,-2.126c0.114,-0.713 0.31,-1.09 0.572,-1.124h0.296c0.296,2.362 0.773,3.546 1.413,3.546h0.989V22.51l-0.431,-2.833v-0.161C56.957,18.566 57.146,18.096 57.408,18.096z" id="path_23"/><path fill="#008146" d="M55.443,5.635c1.614,0 2.422,0.996 2.422,2.98c0,3.162 -2.698,5.86 -8.101,8.081c-0.774,0.235 -0.868,-0.048 -0.276,-0.848c0.148,-0.303 1.42,-1.252 3.822,-2.84v-0.135c-1.036,-0.424 -1.555,-1.325 -1.555,-2.704c0.687,-3.021 1.776,-4.535 3.271,-4.535H55.443L55.443,5.635zM53.034,9.046c0,0.841 0.714,1.359 2.133,1.562h0.276c0.524,0 0.861,-0.195 1.002,-0.572c0,-0.854 -0.619,-1.521 -1.85,-1.992C54.058,8.043 53.539,8.38 53.034,9.046z" id="path_24"/><path fill="#f26122" d="M143.803,25.918c-0.48,-0.697 -1.271,-1.854 -2.27,-1.854c-0.816,0 -1.35,1.358 -1.35,2.204c0,0.063 0,0.124 0.007,0.18c-0.225,0.208 -0.642,0.589 -0.642,1.68c0,0.294 0.031,0.635 0.108,1.047c0.265,1.437 0.544,2.978 0.544,4.28c0,0.245 -0.008,0.417 -0.008,0.586c0,0.248 0.016,0.333 0.085,0.333c0.14,0 0.404,-0.558 0.473,-1.509c0.016,-0.208 0.016,-0.433 0.016,-0.634c0,-2.254 -0.525,-4.048 -0.525,-4.513c0.042,-0.356 1.157,-0.581 2.071,-0.581c0.441,0 0.682,0.061 0.851,0.108c0.016,0.008 0.062,0.016 0.076,0.016c0.032,0 0.057,-0.016 0.093,-0.056c0.217,-0.24 0.429,-0.773 0.481,-1.17C143.824,25.974 143.816,25.942 143.803,25.918L143.803,25.918zM142.014,25.842c-0.316,0.023 -0.953,0.085 -1.295,0.31c0.072,-0.277 0.212,-0.645 0.55,-0.645C141.572,25.507 141.798,25.636 142.014,25.842z" id="path_25"/></svg>