<svg id="vector" xmlns="http://www.w3.org/2000/svg" width="174" height="67" viewBox="0 0 174.113 67"><path fill="#D50000" d="M153.818,20.061c0.323,0 0.647,1.082 0.971,3.23l1.454,3.23l-0.647,3.712l0.482,9.043v1.446c-0.213,3.691 -0.75,5.841 -1.611,6.461l-0.159,-0.158l0.159,-2.425c0,-2.177 -0.703,-9.119 -2.101,-20.82C153.04,21.301 153.521,20.061 153.818,20.061z" id="path_0"/><path fill="#D50000" d="M160.03,50.709c0.165,-0.089 0.213,0.056 0.144,0.448c-0.916,2.149 -2.321,3.65 -4.215,4.497l-6.963,3.492c-0.296,-0.082 -0.352,-0.324 -0.166,-0.723c0.93,-1.791 1.563,-2.852 1.901,-3.189L160.03,50.709z" id="path_1"/><path fill="#000002" d="M138.473,42.563c0.186,0.014 0.386,0.02 0.606,0.02h1.529c1.619,-0.268 2.852,-0.833 3.712,-1.693l-1.935,-15.339c0.482,-2.906 0.916,-4.353 1.288,-4.353l2.101,4.842c0,0.751 -0.269,1.88 -0.806,3.389l0.806,8.713v2.424c-0.606,2.568 -1.418,4.367 -2.438,5.387c-0.771,0.818 -1.674,1.232 -2.728,1.232h-1.371c-0.269,0 -0.523,-0.007 -0.764,-0.021V42.563z" id="path_2"/><path fill="#000002" d="M150.064,12.237c0.166,-0.096 0.214,0.055 0.145,0.448c-0.916,2.149 -2.321,3.65 -4.215,4.498l-6.963,3.492c-0.296,-0.083 -0.351,-0.324 -0.165,-0.73c0.93,-1.791 1.563,-2.851 1.901,-3.189L150.064,12.237z" id="path_3"/><path fill="#203e96" d="M135.256,48.313c1.674,0.676 2.907,1.426 3.72,2.26v0.165c-0.889,2.362 -1.591,3.547 -2.101,3.547c-0.406,0 -1.694,-0.647 -3.877,-1.936l-1.453,2.741c-2.796,-1.02 -4.195,-1.77 -4.195,-2.259c0.593,-2.204 1.185,-3.499 1.777,-3.87c0.454,0 1.853,0.695 4.194,2.1C134.209,49.229 134.856,48.313 135.256,48.313z" id="path_4"/><path fill="#203e96" d="M124.36,42.582h1.054c2.094,-0.172 3.657,-1.005 4.676,-2.5l0.166,-0.488l-0.482,-2.418c0.103,-2.583 0.372,-3.877 0.806,-3.877c1.288,4.545 2.528,7.321 3.712,8.313c1.019,0.578 2.417,0.896 4.194,0.951c0.476,0 0.916,0 1.336,0v4.621c-0.53,0 -1.081,0 -1.66,0h-0.158c-3.093,0 -5.462,-1.723 -7.102,-5.166v-0.158l-1.453,2.9c-1.102,1.631 -2.721,2.438 -4.842,2.424h-0.248V42.582z" id="path_5"/><path fill="#203e96" d="M130.883,20.268h1.598c1.935,0 2.907,0.723 2.907,2.176c-1.253,3.389 -2.776,5.187 -4.566,5.393l-2.115,0.282c-0.337,0 -0.475,-0.096 -0.427,-0.282c1.708,-0.902 3.306,-1.977 4.787,-3.21c-0.524,-0.489 -1.103,-0.73 -1.736,-0.73h-0.447l-1.736,0.145l-0.138,-0.145v-0.282C129.829,21.383 130.456,20.268 130.883,20.268z" id="path_6"/><path fill="#D50000" d="M116.681,28.822c0.551,0 1.846,0.647 3.878,1.935c0,0.806 -0.647,2.101 -1.942,3.878c-2.583,-0.833 -3.871,-1.591 -3.871,-2.259C114.814,31.769 115.455,30.584 116.681,28.822z" id="path_7"/><path fill="#D50000" d="M110.806,42.582c1.15,0.015 1.859,-0.006 2.142,-0.061c2.425,-0.738 4.078,-2.309 4.966,-4.698c0.131,-0.462 0.4,-0.517 0.806,-0.165c0.214,0.186 0.379,0.943 0.482,2.259c1.467,1.977 3.299,2.865 5.489,2.665h0.427v4.602h-0.104c-3.43,-0.158 -5.958,-1.723 -7.59,-4.684h-0.159c-1.143,2.41 -2.651,3.891 -4.518,4.442c-0.565,0.158 -1.212,0.241 -1.942,0.241V42.582z" id="path_8"/><path fill="#D50000" d="M123.155,17.644c0.165,-0.097 0.213,0.055 0.144,0.447c-0.916,2.149 -2.321,3.65 -4.215,4.498l-6.963,3.492c-0.296,-0.083 -0.351,-0.324 -0.165,-0.73c0.93,-1.791 1.563,-2.852 1.901,-3.189L123.155,17.644z" id="path_9"/><path fill="#000002" d="M110.848,47.184c-3.134,0.186 -5.414,-1.261 -6.839,-4.34c-0.688,-1.143 -1.329,-8.85 -1.935,-23.12V19.4c0.399,-2.37 0.992,-3.554 1.77,-3.554l0.813,-0.158c0.992,0 2.5,0.324 4.519,0.964v0.324c-0.11,0.324 -0.434,0.489 -0.971,0.489h-2.741c-0.564,0 -1.102,0.317 -1.619,0.964c0.503,12.391 1.233,19.568 2.204,21.531c0.964,1.963 2.569,2.837 4.801,2.623V47.184z" id="path_10"/><path fill="#D50000" d="M92.279,20.061c0.323,0 0.647,1.082 0.971,3.23l1.453,3.23l-0.647,3.712l0.482,9.043v1.446c-0.213,3.691 -0.75,5.841 -1.612,6.461l-0.158,-0.158l0.158,-2.425c0,-2.177 -0.703,-9.119 -2.101,-20.82C91.5,21.301 91.983,20.061 92.279,20.061z" id="path_11"/><path fill="#D50000" d="M98.492,50.709c0.165,-0.089 0.213,0.056 0.144,0.448c-0.916,2.149 -2.321,3.65 -4.215,4.497l-6.963,3.492c-0.296,-0.082 -0.351,-0.324 -0.165,-0.723c0.93,-1.791 1.563,-2.852 1.901,-3.189L98.492,50.709z" id="path_12"/><path fill="#203e96" d="M73.952,49.966h0.324c1.102,0.241 2.287,0.889 3.554,1.942v0.158c-0.73,2.204 -1.371,3.389 -1.935,3.554c-1.646,-0.323 -2.879,-0.86 -3.712,-1.618v-0.158C72.182,52.576 72.774,51.288 73.952,49.966z" id="path_13"/><path fill="#203e96" d="M79.93,48.512h0.158c1.102,0.166 2.342,0.917 3.712,2.26v0.166l-1.935,3.389c-2.583,-0.834 -3.878,-1.537 -3.878,-2.102C78.821,49.752 79.468,48.512 79.93,48.512z" id="path_14"/><path fill="#203e96" d="M74.723,42.582c4.229,0.042 6.591,-0.75 7.108,-2.383c0,-0.564 -0.538,-1.963 -1.619,-4.194l0.489,-4.194h0.317c1.405,2.418 2.101,4.842 2.101,7.26v1.453c0,0.971 -0.235,1.99 -0.696,3.058c-0.461,1.067 -1.178,1.97 -2.135,2.692c-0.964,0.73 -2.817,1.033 -5.565,0.91V42.582z" id="path_15"/><path fill="#203e96" d="M87.051,20.688c0.166,-0.096 0.213,0.055 0.145,0.448c-0.916,2.149 -2.321,3.65 -4.215,4.498l-6.963,3.492c-0.296,-0.083 -0.352,-0.323 -0.166,-0.73c0.93,-1.791 1.563,-2.851 1.901,-3.189L87.051,20.688z" id="path_16"/><path fill="#D50000" d="M75.288,47.184c-3.134,0.186 -5.414,-1.261 -6.839,-4.34c-0.688,-1.143 -1.329,-8.85 -1.935,-23.12V19.4c0.399,-2.37 0.992,-3.554 1.77,-3.554l0.813,-0.158c0.992,0 2.5,0.324 4.518,0.964v0.324c-0.11,0.324 -0.434,0.489 -0.971,0.489h-2.742c-0.564,0 -1.102,0.317 -1.618,0.964c0.503,12.391 1.232,19.568 2.204,21.531c0.964,1.963 2.569,2.837 4.801,2.623V47.184z" id="path_17"/><path fill="#203e96" d="M55.273,46.232c-8.96,0.379 -13.781,-0.034 -14.456,-1.246c-0.682,-1.213 2.417,-1.832 9.291,-1.859c1.356,-0.027 2.217,-0.063 2.583,-0.117c5.461,-0.848 8.795,-1.764 10.007,-2.748v-0.158l-1.777,-4.202v-0.641c0,-2.155 0.269,-3.23 0.806,-3.23c1.508,2.879 2.259,5.138 2.259,6.778v0.323c0,3.739 -1.88,5.896 -5.648,6.46C57.381,45.848 56.362,46.061 55.273,46.232z" id="path_18"/><path fill="#203e96" d="M60.335,49.119c0.999,0 2.231,0.702 3.712,2.1v0.324c-0.917,2.369 -1.564,3.554 -1.936,3.554c-1.832,-0.702 -2.962,-1.405 -3.389,-2.101v-0.158C58.724,51.701 59.261,50.469 60.335,49.119z" id="path_19"/><path fill="#203e96" d="M65.783,20.949c0.166,-0.096 0.213,0.055 0.145,0.448c-0.917,2.149 -2.321,3.65 -4.215,4.498l-6.963,3.492c-0.296,-0.083 -0.351,-0.324 -0.165,-0.729c0.93,-1.791 1.563,-2.852 1.901,-3.189L65.783,20.949z" id="path_20"/><path fill="#000002" d="M52.181,45.627c0.551,0.984 0.854,1.563 0.909,1.735l0.076,1.315c-0.014,2.328 -0.324,3.933 -0.943,4.821c-0.62,0.889 -1.405,1.336 -2.362,1.351c-2.073,0 -4.222,-1.668 -6.46,-5.001c-0.386,-0.661 -0.765,-1.522 -1.13,-2.583c-0.867,0 -1.8,0.043 -2.658,-0.062v-4.56c0.742,0.102 1.435,0.096 2.176,0.096c0.889,-3.443 2.397,-6.025 4.518,-7.748c1.102,-0.861 2.128,-1.288 3.072,-1.288c1.454,0 2.314,1.075 2.583,3.231c0.427,2.162 -0.055,4.414 -1.453,6.756L52.181,45.627L52.181,45.627zM45.018,47.101c1.102,1.942 2.713,3.017 4.842,3.23c1.074,-0.097 1.776,-0.469 2.101,-1.13c-0.097,-1.301 -0.847,-2.094 -2.259,-2.369c-1.418,-0.275 -2.548,-0.372 -3.402,-0.275S45.018,46.832 45.018,47.101L45.018,47.101zM43.399,42.101c-0.117,0.358 0.042,0.523 0.489,0.481c2.045,0 4.084,-0.915 6.129,-2.74v-0.166c-0.455,-1.074 -1.047,-1.611 -1.77,-1.611C46.643,37.857 45.032,39.207 43.399,42.101z" id="path_21"/><path fill="#000002" d="M48.228,20.02c1.653,0 2.479,1.019 2.479,3.051c0,3.237 -2.762,5.999 -8.292,8.272c-0.792,0.241 -0.888,-0.048 -0.282,-0.868c0.151,-0.31 1.453,-1.281 3.912,-2.907V27.43c-1.061,-0.434 -1.591,-1.356 -1.591,-2.769c0.703,-3.093 1.818,-4.642 3.348,-4.642H48.228L48.228,20.02zM45.762,23.511c0,0.861 0.73,1.392 2.183,1.598h0.282c0.537,0 0.882,-0.2 1.026,-0.585c0,-0.875 -0.634,-1.557 -1.895,-2.039C46.809,22.485 46.278,22.829 45.762,23.511z" id="path_22"/><path fill="#D50000" d="M39.632,47.184c-0.172,0 -0.42,0 -0.606,0h-0.158c-1.563,-0.014 -3.072,-0.289 -4.525,-0.826c-1.557,2.692 -3.603,4.035 -6.13,4.035c-3.017,-0.434 -4.525,-1.666 -4.525,-3.712h-0.159c-0.51,1.722 -1.639,3.12 -3.389,4.194c-2.341,0.861 -4.174,1.295 -5.489,1.295l-0.744,0.096v-0.323c0.599,-0.495 2.225,-1.646 4.869,-3.45c2.645,-1.798 4.146,-2.928 4.498,-3.389c0.358,-0.455 0.875,-1.977 1.55,-4.56c1.288,-2.149 2.472,-3.23 3.547,-3.23h0.323c1.343,0 3.454,1.5 6.46,4.36c0.817,0.777 2.369,1.053 4.456,0.971L39.632,47.184L39.632,47.184zM25.63,42.803c0,1.426 1.129,2.396 3.389,2.906h0.806c1.832,-0.186 2.748,-0.453 2.748,-0.805c-2.128,-2.046 -3.74,-3.065 -4.849,-3.065h-0.158C26.649,41.839 26.002,42.162 25.63,42.803z" id="path_23"/><path fill="#D50000" d="M26.195,23.718h1.598c1.936,0 2.906,0.723 2.906,2.176c-1.253,3.389 -2.775,5.186 -4.566,5.393l-2.115,0.283c-0.337,0 -0.475,-0.097 -0.427,-0.283c1.708,-0.902 3.306,-1.977 4.787,-3.209c-0.524,-0.489 -1.103,-0.73 -1.736,-0.73h-0.447l-1.736,0.145l-0.137,-0.145v-0.282C25.141,24.834 25.768,23.718 26.195,23.718z" id="path_24"/><path fill="#000002" d="M101.888,11.491c0.549,0 0.964,0.141 1.763,0.344c0.988,0.251 1.677,0.369 2.155,0.369c2.014,0 3.582,-1.301 4.679,-3.872c0.047,-0.133 0.165,-0.478 -0.094,-0.478c-0.087,0 -0.228,0.094 -0.337,0.227c-0.235,0.274 -0.462,0.596 -0.948,0.988c-0.478,0.392 -1.097,0.596 -1.63,0.596c-0.408,0 -0.823,-0.063 -2.085,-0.384c-1.097,-0.313 -1.943,-0.455 -2.563,-0.455c-1.152,0 -2.116,0.439 -2.915,1.286c-0.784,0.854 -1.309,1.841 -1.615,2.962c-0.039,0.165 -0.086,0.509 0.141,0.509c0.118,0 0.251,-0.094 0.369,-0.258C99.929,11.906 101.058,11.491 101.888,11.491z" id="path_25"/></svg>