<svg id="vector" xmlns="http://www.w3.org/2000/svg" width="300" height="67" viewBox="0 0 299.739 66.967"><path fill="#000002" d="M240.691,45.23c-0.172,0 -0.358,0 -0.544,0h-0.158c-1.563,-0.015 -3.072,-0.29 -4.525,-0.827c-1.557,2.693 -3.602,4.036 -6.13,4.036c-3.017,-0.434 -4.524,-1.667 -4.524,-3.712h-0.158c-0.511,1.722 -1.64,3.12 -3.389,4.194c-2.342,0.86 -4.174,1.295 -5.49,1.295l-0.744,0.096v-0.323c0.599,-0.496 2.225,-1.646 4.869,-3.451c2.645,-1.797 4.146,-2.927 4.498,-3.388c0.357,-0.455 0.874,-1.977 1.55,-4.56c1.287,-2.149 2.472,-3.23 3.547,-3.23h0.323c1.343,0 3.499,1.453 6.46,4.359c0.861,0.73 2.328,1.054 4.415,0.972V45.23L240.691,45.23zM226.752,40.85c0,1.426 1.129,2.396 3.389,2.906h0.806c1.832,-0.186 2.748,-0.454 2.748,-0.806c-2.128,-2.046 -3.74,-3.065 -4.85,-3.065h-0.158C227.771,39.885 227.124,40.209 226.752,40.85z" id="path_0"/><path fill="#000002" d="M227.316,21.765h1.598c1.936,0 2.906,0.724 2.906,2.177c-1.253,3.389 -2.775,5.187 -4.566,5.393l-2.114,0.282c-0.337,0 -0.475,-0.096 -0.427,-0.282c1.708,-0.902 3.306,-1.977 4.787,-3.209c-0.523,-0.489 -1.103,-0.73 -1.736,-0.73h-0.447l-1.735,0.145l-0.138,-0.145v-0.282C226.263,22.881 226.89,21.765 227.316,21.765z" id="path_1"/><path fill="#D50000" d="M201.269,30.057c5.489,1.963 8.23,4.388 8.23,7.267l0.166,0.965c-0.461,3.767 -1.701,5.647 -3.719,5.647c0,0.351 -2.686,0.785 -8.065,1.295l-0.166,-0.482c0,-2.693 0.482,-4.036 1.454,-4.036c5.379,-0.435 8.34,-1.081 8.877,-1.942c-1.853,-1.798 -4.277,-3.251 -7.266,-4.353l-0.158,-0.813C200.704,31.241 200.917,30.057 201.269,30.057z" id="path_2"/><path fill="#D50000" d="M207.701,48.315c0.166,-0.09 0.213,0.056 0.145,0.447c-0.916,2.149 -2.321,3.65 -4.215,4.498l-6.963,3.492c-0.296,-0.083 -0.351,-0.324 -0.166,-0.724c0.93,-1.79 1.564,-2.852 1.901,-3.188L207.701,48.315z" id="path_3"/><path fill="#000002" d="M186.495,48.419h0.324c1.102,0.241 2.286,0.889 3.554,1.942v0.158c-0.73,2.204 -1.371,3.389 -1.935,3.554c-1.646,-0.323 -2.879,-0.861 -3.713,-1.618v-0.158C184.725,51.029 185.317,49.741 186.495,48.419z" id="path_4"/><path fill="#000002" d="M192.473,46.965h0.159c1.102,0.166 2.342,0.917 3.712,2.26v0.166l-1.936,3.388c-2.583,-0.833 -3.877,-1.536 -3.877,-2.101C191.364,48.205 192.012,46.965 192.473,46.965z" id="path_5"/><path fill="#000002" d="M185.063,41.035c4.229,0.042 6.591,-0.75 7.108,-2.383c0,-0.564 -0.538,-1.963 -1.619,-4.194l0.489,-4.194h0.317c1.405,2.418 2.101,4.842 2.101,7.259v1.454c0,0.971 -0.234,1.99 -0.696,3.058c-0.461,1.067 -1.178,1.97 -2.135,2.693c-0.964,0.729 -2.817,1.033 -5.565,0.909V41.035z" id="path_6"/><path fill="#000002" d="M191.034,18.796h1.598c1.935,0 2.906,0.724 2.906,2.177c-1.253,3.389 -2.776,5.187 -4.566,5.393l-2.115,0.282c-0.337,0 -0.475,-0.096 -0.427,-0.282c1.708,-0.901 3.306,-1.977 4.787,-3.209c-0.523,-0.489 -1.102,-0.73 -1.735,-0.73h-0.448l-1.736,0.145l-0.138,-0.145v-0.282C189.98,19.912 190.606,18.796 191.034,18.796z" id="path_7"/><path fill="#D50000" d="M177.321,27.274c0.551,0 1.846,0.647 3.877,1.936c0,0.806 -0.647,2.101 -1.942,3.878c-2.583,-0.834 -3.871,-1.592 -3.871,-2.26C175.455,30.223 176.095,29.038 177.321,27.274z" id="path_8"/><path fill="#D50000" d="M171.446,41.035c1.15,0.015 1.859,-0.007 2.142,-0.062c2.424,-0.737 4.077,-2.308 4.965,-4.697c0.131,-0.462 0.4,-0.517 0.806,-0.165c0.213,0.186 0.379,0.943 0.482,2.259c1.467,1.977 3.299,2.865 5.489,2.665h0.427v4.602h-0.104c-3.43,-0.159 -5.958,-1.723 -7.59,-4.684h-0.159c-1.143,2.41 -2.651,3.891 -4.518,4.442c-0.564,0.158 -1.212,0.241 -1.942,0.241V41.035z" id="path_9"/><path fill="#D50000" d="M179.339,13.121c1.653,0 2.479,1.02 2.479,3.051c0,3.237 -2.762,5.999 -8.292,8.272c-0.792,0.24 -0.888,-0.049 -0.282,-0.868c0.151,-0.311 1.453,-1.281 3.912,-2.906v-0.139c-1.061,-0.434 -1.591,-1.356 -1.591,-2.769c0.703,-3.092 1.818,-4.642 3.348,-4.642H179.339L179.339,13.121zM176.874,16.613c0,0.86 0.73,1.391 2.183,1.598h0.282c0.537,0 0.882,-0.2 1.026,-0.586c0,-0.874 -0.634,-1.557 -1.895,-2.038C177.92,15.587 177.39,15.931 176.874,16.613z" id="path_10"/><path fill="#203e96" d="M155.488,40.285c1.894,-0.428 3.065,-1.227 3.513,-2.384c0.186,-0.64 0.241,-1.178 0.158,-1.611c-2.658,-5.634 -3.995,-8.939 -3.995,-9.904c-0.131,-1.673 0.028,-3.236 0.489,-4.704c0.455,-1.467 1.205,-2.479 2.259,-3.044l12.749,-7.748c0.324,0.075 -0.096,1.205 -1.247,3.375c-1.157,2.176 -1.867,3.313 -2.121,3.409c-0.255,0.104 -0.427,-0.275 -0.503,-1.137c-4.98,3.147 -7.955,5.063 -8.919,5.751c-0.971,0.688 -1.549,1.295 -1.735,1.832c1.508,4.091 3.588,8.396 6.254,12.914c1.908,2.61 4.601,3.919 8.072,3.919c0.227,0 0.517,0 0.868,0v4.621l-0.544,0.021c-4.711,0 -8.155,-2.313 -10.331,-6.942c-0.138,-0.282 -0.241,-0.337 -0.323,-0.165c-0.875,3.691 -2.425,5.792 -4.643,6.315c-0.778,0.248 -1.577,0.386 -2.404,0.428v-4.622C153.986,40.54 154.786,40.437 155.488,40.285z" id="path_11"/><path fill="#203e96" d="M162.63,3.761c1.653,0 2.479,1.02 2.479,3.052c0,3.236 -2.762,5.998 -8.292,8.271c-0.792,0.241 -0.888,-0.049 -0.282,-0.868c0.151,-0.31 1.454,-1.28 3.912,-2.906v-0.138c-1.061,-0.435 -1.591,-1.356 -1.591,-2.769c0.703,-3.093 1.818,-4.643 3.347,-4.643H162.63L162.63,3.761zM160.165,7.253c0,0.861 0.73,1.392 2.183,1.598h0.282c0.538,0 0.882,-0.199 1.026,-0.585c0,-0.875 -0.634,-1.557 -1.894,-2.039C161.211,6.227 160.681,6.571 160.165,7.253z" id="path_12"/><path fill="#000002" d="M153.063,45.23c-0.172,0 -0.358,0 -0.543,0h-0.159c-1.563,-0.015 -3.071,-0.29 -4.525,-0.827c-1.556,2.693 -3.602,4.036 -6.129,4.036c-3.017,-0.434 -4.525,-1.667 -4.525,-3.712h-0.159c-0.509,1.722 -1.639,3.12 -3.388,4.194c-2.342,0.86 -4.174,1.295 -5.489,1.295l-0.744,0.096v-0.323c0.6,-0.496 2.225,-1.646 4.87,-3.451c2.645,-1.797 4.146,-2.927 4.498,-3.388c0.358,-0.455 0.875,-1.977 1.55,-4.56c1.288,-2.149 2.473,-3.23 3.547,-3.23h0.324c1.343,0 3.499,1.453 6.46,4.359c0.861,0.73 2.328,1.054 4.415,0.972V45.23L153.063,45.23zM139.124,40.85c0,1.426 1.129,2.396 3.389,2.906h0.806c1.832,-0.186 2.748,-0.454 2.748,-0.806c-2.128,-2.046 -3.74,-3.065 -4.849,-3.065h-0.158C140.143,39.885 139.496,40.209 139.124,40.85z" id="path_13"/><path fill="#000002" d="M139.688,21.765h1.598c1.935,0 2.907,0.724 2.907,2.177c-1.254,3.389 -2.776,5.187 -4.567,5.393l-2.114,0.282c-0.337,0 -0.475,-0.096 -0.427,-0.282c1.708,-0.902 3.306,-1.977 4.787,-3.209c-0.523,-0.489 -1.102,-0.73 -1.736,-0.73h-0.448l-1.735,0.145l-0.138,-0.145v-0.282C138.634,22.881 139.261,21.765 139.688,21.765z" id="path_14"/><path fill="#203e96" d="M117.022,35.85h0.647c1.887,0 3.285,1.611 4.201,4.842l0.159,1.611c0.055,0.523 0.055,1.061 0,1.619c-0.482,1.963 -1.563,3.897 -3.23,5.806c-1.157,0.971 -3.789,1.722 -7.907,2.259c-0.482,-0.214 -0.758,-0.427 -0.806,-0.641c6.888,-3.739 10.331,-5.999 10.331,-6.783l0.158,-0.482l-0.158,-0.158l-1.453,0.481h-0.806c-2.907,0 -4.36,-1.026 -4.36,-3.064v-0.324c0.372,-3.34 1.185,-5.007 2.417,-5.007L117.022,35.85z" id="path_15"/><path fill="#203e96" d="M121.299,22.771c0.165,-0.097 0.213,0.055 0.145,0.447c-0.916,2.149 -2.321,3.65 -4.215,4.498l-6.963,3.491c-0.296,-0.082 -0.351,-0.323 -0.166,-0.729c0.93,-1.791 1.563,-2.852 1.901,-3.189L121.299,22.771z" id="path_16"/><path fill="#000002" d="M104.411,44.121l0.021,-0.021c-1.454,-1.047 -2.755,-1.55 -3.912,-1.495c-1.157,0.056 -1.736,-0.041 -1.736,-0.282v-0.158l0.482,-3.877c2.259,-0.779 3.388,-1.481 3.388,-2.102l-1.935,-11.618c0.434,-2.583 0.875,-4.078 1.329,-4.478l0.124,0.6c0.565,1.818 1.315,3.54 2.259,5.165v0.489c0,0.819 -0.214,1.839 -0.647,3.064l0.165,4.684v0.806c0,0.931 -0.213,2.115 -0.647,3.555c1.846,0.641 2.976,1.453 3.389,2.417c0.124,0.255 0.179,0.523 0.165,0.806c-0.165,0.889 -0.372,1.701 -0.626,2.445H104.411z" id="path_17"/><path fill="#000002" d="M108.585,50.168c0.166,-0.089 0.213,0.056 0.145,0.448c-0.916,2.148 -2.321,3.65 -4.215,4.497l-6.963,3.492c-0.296,-0.083 -0.352,-0.324 -0.166,-0.724c0.93,-1.79 1.563,-2.851 1.901,-3.188L108.585,50.168z" id="path_18"/><path fill="#D50000" d="M106.009,43.129c-0.647,2.246 -2.61,4.726 -5.896,7.425c-1.977,1.405 -4.291,2.101 -6.936,2.101c-1.481,-0.337 -2.542,-0.675 -3.182,-1.005c-0.641,-0.338 -1.405,-1.082 -2.308,-2.225c-1.619,-2.149 -2.424,-4.14 -2.424,-5.972c0,-4.359 1.398,-7.852 4.201,-10.489c0.496,-0.352 0.71,-0.297 0.641,0.158c0,0.393 -0.806,1.901 -2.417,4.519c-0.647,1.309 -0.971,2.548 -0.971,3.712c0,1.674 1.184,3.499 3.553,5.489c1.681,0.93 3.506,1.309 5.49,1.129c2.334,0 5.241,-1.611 8.712,-4.842H106.009z" id="path_19"/><path fill="#D50000" d="M94.404,22.832c0.166,-0.096 0.213,0.056 0.144,0.448c-0.916,2.148 -2.32,3.649 -4.214,4.497L83.37,31.27c-0.296,-0.083 -0.352,-0.324 -0.166,-0.73c0.93,-1.791 1.563,-2.851 1.901,-3.188L94.404,22.832z" id="path_20"/><path fill="#203e96" d="M70.395,30.057c5.489,1.963 8.23,4.388 8.23,7.267l0.165,0.965c-0.461,3.767 -1.701,5.647 -3.719,5.647c0,0.351 -2.686,0.785 -8.065,1.295l-0.165,-0.482c0,-2.693 0.482,-4.036 1.453,-4.036c5.379,-0.435 8.341,-1.081 8.878,-1.942c-1.853,-1.798 -4.277,-3.251 -7.267,-4.353l-0.158,-0.813C69.83,31.241 70.043,30.057 70.395,30.057z" id="path_21"/><path fill="#203e96" d="M76.827,48.315c0.166,-0.09 0.214,0.056 0.145,0.447c-0.916,2.149 -2.321,3.65 -4.215,4.498l-6.963,3.492c-0.296,-0.083 -0.351,-0.324 -0.165,-0.724c0.93,-1.79 1.563,-2.852 1.901,-3.188L76.827,48.315z" id="path_22"/><path fill="#000002" d="M55.621,43.914h0.324c1.102,0.241 2.286,0.889 3.554,1.942v0.159c-0.73,2.203 -1.371,3.388 -1.935,3.554c-1.646,-0.324 -2.879,-0.861 -3.713,-1.619v-0.158C53.851,46.524 54.443,45.237 55.621,43.914z" id="path_23"/><path fill="#000002" d="M61.599,42.461h0.159c1.102,0.165 2.342,0.916 3.712,2.26v0.165l-1.936,3.389c-2.583,-0.834 -3.877,-1.536 -3.877,-2.101C60.49,43.701 61.138,42.461 61.599,42.461z" id="path_24"/><path fill="#000002" d="M54.188,36.531c4.229,0.041 6.591,-0.751 7.108,-2.384c0,-0.563 -0.538,-1.962 -1.619,-4.193l0.489,-4.194h0.317c1.405,2.417 2.101,4.841 2.101,7.259v1.453c0,0.971 -0.234,1.99 -0.695,3.058c-0.462,1.068 -1.178,1.97 -2.135,2.693c-0.964,0.73 -2.817,1.033 -5.565,0.909V36.531z" id="path_25"/><path fill="#000002" d="M60.16,14.299h1.598c1.935,0 2.906,0.724 2.906,2.177c-1.253,3.389 -2.775,5.187 -4.566,5.393l-2.114,0.282c-0.337,0 -0.475,-0.097 -0.427,-0.282c1.708,-0.902 3.306,-1.977 4.787,-3.21c-0.523,-0.489 -1.102,-0.729 -1.736,-0.729H60.16l-1.735,0.145l-0.138,-0.145v-0.282C59.106,15.415 59.733,14.299 60.16,14.299z" id="path_26"/><path fill="#D50000" d="M40.311,36.834c1.591,0.51 2.824,1.157 3.712,1.936v0.324c0,0.537 -0.592,1.722 -1.777,3.554c-1.102,0 -2.334,-0.593 -3.712,-1.777v-0.323C38.533,39.39 39.125,38.156 40.311,36.834z" id="path_27"/><path fill="#D50000" d="M54.54,41.07c-1.467,0 -2.603,-0.228 -3.416,-0.683c-0.399,3.499 -1.15,5.917 -2.259,7.267c-2.659,3.333 -5.406,5 -8.23,5c-5.193,0 -8.582,-2.259 -10.172,-6.777c-0.317,-0.86 -0.482,-1.776 -0.482,-2.748v-1.288c0,-3.822 1.184,-6.832 3.554,-9.042c0.427,0.165 0.647,0.536 0.647,1.129l-2.583,4.684l-0.165,1.611c0,3.637 1.99,6.164 5.971,7.59l4.201,0.324c1.77,0 3.981,-1.026 6.619,-3.065c0.964,-1.563 1.453,-2.692 1.453,-3.396c-0.11,-1.074 -0.813,-2.631 -2.101,-4.676v-3.396l0.482,-0.482c1.171,2.355 3.333,3.492 6.481,3.409V41.07z" id="path_28"/><path fill="#D50000" d="M46.096,54.769c0.166,-0.089 0.213,0.056 0.145,0.448c-0.916,2.148 -2.321,3.65 -4.215,4.497l-6.963,3.492c-0.296,-0.083 -0.351,-0.324 -0.166,-0.724c0.93,-1.79 1.564,-2.851 1.901,-3.188L46.096,54.769z" id="path_29"/><path fill="#D50000" d="M258.998,41.015c0.187,0.014 0.386,0.021 0.606,0.021h1.529c1.618,-0.268 2.851,-0.833 3.712,-1.693l-1.936,-15.339c0.482,-2.906 0.916,-4.353 1.288,-4.353l2.101,4.842c0,0.751 -0.269,1.88 -0.806,3.389l0.806,8.712v2.425c-0.605,2.568 -1.419,4.366 -2.438,5.386c-0.771,0.819 -1.674,1.233 -2.728,1.233h-1.371c-0.269,0 -0.523,-0.007 -0.765,-0.021V41.015z" id="path_30"/><path fill="#D50000" d="M269.584,10.683c0.166,-0.097 0.214,0.055 0.145,0.447c-0.916,2.149 -2.32,3.651 -4.215,4.498l-6.963,3.492c-0.296,-0.083 -0.352,-0.324 -0.165,-0.73c0.93,-1.791 1.563,-2.852 1.9,-3.188L269.584,10.683z" id="path_31"/><path fill="#203e96" d="M243.116,40.285c1.894,-0.428 3.064,-1.227 3.512,-2.384c0.187,-0.64 0.242,-1.178 0.159,-1.611c-2.659,-5.634 -3.995,-8.939 -3.995,-9.904c-0.131,-1.673 0.027,-3.236 0.489,-4.704c0.454,-1.467 1.205,-2.479 2.259,-3.044l12.749,-7.748c0.323,0.075 -0.097,1.205 -1.247,3.375c-1.157,2.176 -1.866,3.313 -2.121,3.409c-0.255,0.104 -0.427,-0.275 -0.503,-1.137c-4.979,3.147 -7.955,5.063 -8.919,5.751c-0.972,0.688 -1.55,1.295 -1.735,1.832c1.508,4.091 3.588,8.396 6.253,12.914c1.908,2.61 4.602,3.919 8.072,3.919c0.228,0 0.517,0 0.868,0v4.621l-0.544,0.021c-4.711,0 -8.155,-2.313 -10.331,-6.942c-0.138,-0.282 -0.241,-0.337 -0.324,-0.165c-0.875,3.691 -2.424,5.792 -4.642,6.315c-0.778,0.248 -1.577,0.386 -2.404,0.428v-4.622C241.614,40.54 242.413,40.437 243.116,40.285z" id="path_32"/><path fill="#203e96" d="M250.258,3.761c1.653,0 2.479,1.02 2.479,3.052c0,3.236 -2.762,5.998 -8.292,8.271c-0.792,0.241 -0.889,-0.049 -0.282,-0.868c0.151,-0.31 1.453,-1.28 3.912,-2.906v-0.138c-1.062,-0.435 -1.591,-1.356 -1.591,-2.769c0.702,-3.093 1.817,-4.643 3.347,-4.643H250.258L250.258,3.761zM247.793,7.253c0,0.861 0.729,1.392 2.183,1.598h0.282c0.538,0 0.882,-0.199 1.026,-0.585c0,-0.875 -0.634,-1.557 -1.894,-2.039C248.839,6.227 248.309,6.571 247.793,7.253z" id="path_33"/></svg>