<svg id="vector" xmlns="http://www.w3.org/2000/svg" width="216" height="67" viewBox="0 0 215.988 67"><path fill="#000002" d="M186.253,18.249c0.324,0 0.647,1.081 0.971,3.229l1.453,3.23l-0.647,3.712l0.482,9.043v1.447c-0.213,3.691 -0.75,5.84 -1.611,6.46l-0.159,-0.158l0.159,-2.425c0,-2.177 -0.703,-9.119 -2.101,-20.82C185.475,19.488 185.957,18.249 186.253,18.249z" id="path_0"/><path fill="#000002" d="M192.465,48.897c0.165,-0.09 0.213,0.055 0.145,0.447c-0.916,2.149 -2.321,3.65 -4.215,4.498l-6.963,3.491c-0.296,-0.082 -0.352,-0.323 -0.166,-0.723c0.93,-1.791 1.563,-2.852 1.901,-3.188L192.465,48.897z" id="path_1"/><path fill="#e21171" d="M166.734,35.688h0.324c1.508,0.345 2.852,1.157 4.036,2.417v0.324c-0.103,0.86 -0.75,1.99 -1.935,3.389c-2.796,-0.937 -4.194,-1.75 -4.194,-2.418C165.632,37.464 166.225,36.225 166.734,35.688z" id="path_2"/><path fill="#e21171" d="M175.295,32.457h0.316c0.379,0 1.295,2.425 2.748,7.267l0.159,0.641c0,3.794 -0.916,6.543 -2.741,8.237c-2.583,2.796 -5.647,4.194 -9.202,4.194c-2.906,-0.647 -4.787,-1.288 -5.647,-1.936c-2.803,-2.396 -4.202,-5.358 -4.202,-8.878c0,-2.962 1.295,-5.758 3.878,-8.396l0.158,-0.158h0.324l0.324,0.316c0,0.275 -0.75,1.453 -2.259,3.554c-0.434,0.751 -0.703,1.777 -0.806,3.065c0,2.507 1.288,4.655 3.871,6.46c2.527,0.971 4.249,1.453 5.165,1.453c2.314,0 5.056,-1.026 8.23,-3.064c1.295,-1.137 1.942,-1.832 1.942,-2.101l-2.259,-6.295l-0.166,-1.13L175.295,32.457z" id="path_3"/><path fill="#e21171" d="M169.82,18.572c0.296,0.51 0.641,1.963 1.033,4.359c-0.241,1.454 -0.875,2.177 -1.901,2.177h-0.138c-0.447,0 -1.026,-0.289 -1.756,-0.867c-0.496,0.874 -1.226,1.315 -2.177,1.315c-1.157,0 -1.735,-1.405 -1.735,-4.216c0.337,-1.067 0.627,-1.598 0.868,-1.598l0.138,0.145v2.479c0.199,0.861 0.447,1.288 0.729,1.288h0.585c0.606,0 0.992,-0.241 1.171,-0.724l-0.303,-2.176c0.118,-0.73 0.317,-1.116 0.586,-1.15h0.303c0.303,2.417 0.792,3.63 1.446,3.63h1.013v-0.145l-0.441,-2.9v-0.165C169.358,19.055 169.551,18.572 169.82,18.572z" id="path_4"/><path fill="#e21171" d="M172.265,9.694c0.165,-0.097 0.213,0.055 0.144,0.447c-0.916,2.149 -2.321,3.65 -4.215,4.498l-6.963,3.492c-0.296,-0.083 -0.351,-0.324 -0.165,-0.73c0.93,-1.791 1.563,-2.852 1.901,-3.189L172.265,9.694z" id="path_5"/><path fill="#008146" d="M144.798,36.452c0.965,0.971 1.88,3.064 2.741,6.295l0.166,2.101c0,3.795 -1.887,6.378 -5.654,7.748l-1.13,0.158l-2.865,0.042l-2.782,-0.042l-0.158,-0.158v-0.165c0.344,-0.372 2.658,-1.501 6.936,-3.389c2.693,-1.529 4.146,-2.879 4.36,-4.036c-1.398,-2.982 -2.094,-4.704 -2.094,-5.165v-0.482C144.316,37.423 144.475,36.452 144.798,36.452z" id="path_6"/><path fill="#008146" d="M148.104,25.694c0.166,-0.097 0.214,0.055 0.145,0.447c-0.917,2.148 -2.321,3.65 -4.215,4.497l-6.963,3.492c-0.296,-0.083 -0.351,-0.323 -0.165,-0.729c0.93,-1.791 1.563,-2.852 1.901,-3.189L148.104,25.694z" id="path_7"/><path fill="#203e96" d="M122.518,44.42c-8.96,0.38 -13.782,-0.034 -14.457,-1.246c-0.682,-1.212 2.417,-1.832 9.291,-1.859c1.357,-0.027 2.218,-0.063 2.583,-0.117c5.461,-0.848 8.795,-1.763 10.007,-2.748v-0.158l-1.777,-4.201v-0.641c0,-2.156 0.268,-3.23 0.806,-3.23c1.508,2.879 2.259,5.138 2.259,6.777v0.323c0,3.74 -1.88,5.896 -5.647,6.461C124.625,44.035 123.606,44.248 122.518,44.42z" id="path_8"/><path fill="#203e96" d="M127.58,47.307c0.999,0 2.232,0.702 3.712,2.101v0.323c-0.916,2.369 -1.563,3.554 -1.935,3.554c-1.832,-0.702 -2.962,-1.404 -3.389,-2.101v-0.158C125.968,49.889 126.505,48.656 127.58,47.307z" id="path_9"/><path fill="#203e96" d="M130.218,18.676c0.296,0.51 0.641,1.963 1.033,4.359c-0.241,1.453 -0.875,2.177 -1.901,2.177h-0.138c-0.448,0 -1.026,-0.289 -1.757,-0.868c-0.496,0.875 -1.226,1.315 -2.176,1.315c-1.157,0 -1.735,-1.405 -1.735,-4.215c0.337,-1.067 0.627,-1.598 0.868,-1.598l0.138,0.145v2.479c0.2,0.86 0.448,1.288 0.73,1.288h0.585c0.606,0 0.992,-0.241 1.171,-0.724l-0.303,-2.177c0.117,-0.729 0.317,-1.115 0.585,-1.149h0.303c0.303,2.417 0.792,3.629 1.446,3.629h1.013v-0.145l-0.441,-2.899v-0.165C129.756,19.157 129.949,18.676 130.218,18.676z" id="path_10"/><path fill="#203e96" d="M132.663,9.798c0.166,-0.097 0.213,0.055 0.145,0.447c-0.917,2.149 -2.321,3.65 -4.215,4.498l-6.963,3.491c-0.296,-0.082 -0.352,-0.323 -0.166,-0.729c0.93,-1.791 1.563,-2.852 1.901,-3.189L132.663,9.798z" id="path_11"/><path fill="#000002" d="M119.425,43.814c0.551,0.985 0.854,1.563 0.91,1.735l0.076,1.315c-0.014,2.328 -0.324,3.933 -0.944,4.821c-0.62,0.889 -1.405,1.336 -2.362,1.351c-2.074,0 -4.222,-1.667 -6.46,-5.001c-0.386,-0.661 -0.765,-1.521 -1.13,-2.582h-1.611c-0.365,0 -0.709,-0.021 -1.047,-0.063v-4.621c0.496,0.11 1.006,0.158 1.529,0.158h0.647c0.889,-3.443 2.396,-6.026 4.518,-7.748c1.102,-0.861 2.128,-1.288 3.072,-1.288c1.453,0 2.314,1.074 2.583,3.23c0.427,2.162 -0.055,4.415 -1.453,6.756L119.425,43.814L119.425,43.814zM112.262,45.288c1.102,1.942 2.713,3.017 4.842,3.23c1.074,-0.097 1.776,-0.469 2.1,-1.13c-0.096,-1.302 -0.847,-2.094 -2.259,-2.369c-1.418,-0.275 -2.548,-0.372 -3.402,-0.275S112.262,45.02 112.262,45.288L112.262,45.288zM110.644,40.288c-0.118,0.358 0.041,0.523 0.489,0.482c2.045,0 4.084,-0.916 6.13,-2.741v-0.166c-0.455,-1.074 -1.047,-1.611 -1.77,-1.611C113.888,36.045 112.276,37.396 110.644,40.288z" id="path_12"/><path fill="#000002" d="M115.472,18.207c1.653,0 2.479,1.02 2.479,3.051c0,3.237 -2.762,5.999 -8.292,8.272c-0.792,0.241 -0.889,-0.049 -0.283,-0.868c0.152,-0.31 1.453,-1.281 3.912,-2.906v-0.138c-1.061,-0.434 -1.591,-1.357 -1.591,-2.769c0.703,-3.093 1.818,-4.643 3.348,-4.643H115.472L115.472,18.207zM113.006,21.699c0,0.86 0.73,1.392 2.183,1.598h0.283c0.537,0 0.881,-0.199 1.026,-0.585c0,-0.875 -0.633,-1.557 -1.894,-2.039C114.053,20.673 113.523,21.018 113.006,21.699z" id="path_13"/><path fill="#f26122" d="M106.814,45.371c-0.172,0 -0.358,0 -0.544,0h-0.158c-1.564,-0.014 -3.072,-0.289 -4.525,-0.827c-1.557,2.693 -3.602,4.037 -6.13,4.037c-3.017,-0.435 -4.525,-1.667 -4.525,-3.713h-0.158c-0.51,1.722 -1.64,3.12 -3.389,4.194c-2.342,0.861 -4.174,1.295 -5.489,1.295l-0.744,0.097v-0.323c0.599,-0.496 2.225,-1.646 4.869,-3.451c2.645,-1.798 4.146,-2.927 4.498,-3.389c0.358,-0.455 0.875,-1.977 1.55,-4.56c1.288,-2.148 2.473,-3.23 3.547,-3.23h0.324c1.343,0 3.499,1.454 6.46,4.36c0.861,0.729 2.328,1.054 4.415,0.971V45.371L106.814,45.371zM92.875,40.99c0,1.426 1.129,2.397 3.389,2.907h0.806c1.832,-0.187 2.748,-0.455 2.748,-0.807c-2.128,-2.045 -3.74,-3.064 -4.849,-3.064H94.81C93.894,40.026 93.247,40.351 92.875,40.99z" id="path_14"/><path fill="#f26122" d="M93.439,21.906h1.598c1.935,0 2.906,0.723 2.906,2.176c-1.253,3.389 -2.775,5.187 -4.566,5.394l-2.115,0.281c-0.337,0 -0.475,-0.096 -0.427,-0.281c1.708,-0.902 3.306,-1.978 4.787,-3.21c-0.523,-0.489 -1.102,-0.73 -1.736,-0.73h-0.448l-1.735,0.145l-0.138,-0.145v-0.282C92.385,23.021 93.012,21.906 93.439,21.906z" id="path_15"/><path fill="#203e96" d="M64.712,37.809c-8.96,0.38 -13.781,-0.034 -14.457,-1.246c-0.682,-1.212 2.417,-1.832 9.291,-1.859c1.357,-0.027 2.218,-0.063 2.583,-0.117c5.461,-0.848 8.795,-1.763 10.007,-2.748v-0.159l-1.777,-4.2v-0.641c0,-2.156 0.269,-3.23 0.806,-3.23c1.508,2.879 2.259,5.138 2.259,6.777v0.323c0,3.74 -1.88,5.896 -5.648,6.461C66.82,37.424 65.801,37.637 64.712,37.809z" id="path_16"/><path fill="#203e96" d="M69.775,40.694c0.999,0 2.231,0.703 3.712,2.102v0.323c-0.916,2.369 -1.563,3.554 -1.935,3.554c-1.832,-0.702 -2.961,-1.404 -3.389,-2.101v-0.158C68.163,43.277 68.7,42.045 69.775,40.694z" id="path_17"/><path fill="#203e96" d="M74.858,48.301c0.165,-0.097 0.213,0.055 0.145,0.448c-0.916,2.148 -2.321,3.65 -4.215,4.497l-6.963,3.492c-0.296,-0.083 -0.352,-0.324 -0.166,-0.73c0.93,-1.791 1.563,-2.852 1.901,-3.188L74.858,48.301z" id="path_18"/><path fill="#000002" d="M61.62,37.203c0.551,0.985 0.854,1.563 0.909,1.735l0.076,1.315c-0.014,2.328 -0.324,3.934 -0.943,4.821c-0.62,0.889 -1.405,1.336 -2.362,1.35c-2.073,0 -4.222,-1.666 -6.461,-5c-0.386,-0.661 -0.764,-1.521 -1.129,-2.582h-1.612c-0.365,0 -0.709,-0.021 -1.047,-0.063v-4.621c0.496,0.11 1.005,0.158 1.529,0.158h0.647c0.889,-3.443 2.396,-6.026 4.518,-7.748c1.102,-0.861 2.128,-1.288 3.072,-1.288c1.453,0 2.314,1.074 2.583,3.229c0.427,2.163 -0.056,4.415 -1.454,6.757L61.62,37.203L61.62,37.203zM54.457,38.677c1.102,1.942 2.714,3.017 4.842,3.23c1.074,-0.097 1.777,-0.469 2.101,-1.13c-0.097,-1.301 -0.848,-2.094 -2.259,-2.369c-1.419,-0.275 -2.548,-0.372 -3.402,-0.275S54.457,38.408 54.457,38.677L54.457,38.677zM52.838,33.677c-0.117,0.358 0.042,0.523 0.489,0.482c2.046,0 4.084,-0.916 6.13,-2.741v-0.166c-0.455,-1.074 -1.047,-1.611 -1.77,-1.611C56.083,29.435 54.471,30.784 52.838,33.677z" id="path_19"/><path fill="#203e96" d="M49.01,38.76c-0.172,0 -0.358,0 -0.544,0h-0.159c-1.563,-0.014 -3.072,-0.289 -4.525,-0.826c-1.556,2.692 -3.602,4.035 -6.129,4.035c-3.017,-0.434 -4.525,-1.666 -4.525,-3.712h-0.159c-0.51,1.722 -1.639,3.12 -3.389,4.194c-2.342,0.861 -4.174,1.295 -5.489,1.295l-0.744,0.097v-0.324c0.599,-0.495 2.225,-1.646 4.87,-3.45c2.645,-1.798 4.146,-2.928 4.497,-3.389c0.358,-0.455 0.875,-1.977 1.55,-4.56c1.288,-2.148 2.472,-3.23 3.547,-3.23h0.324c1.343,0 3.499,1.454 6.46,4.36c0.861,0.729 2.328,1.054 4.415,0.971V38.76L49.01,38.76zM35.069,34.379c0,1.426 1.13,2.397 3.389,2.907h0.806c1.832,-0.187 2.749,-0.455 2.749,-0.807c-2.128,-2.045 -3.74,-3.064 -4.849,-3.064h-0.158C36.089,33.415 35.441,33.739 35.069,34.379z" id="path_20"/><path fill="#203e96" d="M35.634,15.295h1.599c1.935,0 2.906,0.723 2.906,2.176c-1.253,3.389 -2.776,5.187 -4.567,5.394l-2.114,0.282c-0.337,0 -0.475,-0.097 -0.427,-0.282c1.708,-0.902 3.306,-1.978 4.787,-3.21c-0.523,-0.489 -1.102,-0.73 -1.735,-0.73h-0.448l-1.735,0.145l-0.138,-0.145v-0.282C34.581,16.41 35.207,15.295 35.634,15.295z" id="path_21"/><path fill="#000002" d="M59.971,48.301c0.165,-0.097 0.213,0.055 0.145,0.448c-0.916,2.148 -2.321,3.65 -4.215,4.497l-6.963,3.492c-0.296,-0.083 -0.351,-0.324 -0.166,-0.73c0.93,-1.791 1.563,-2.852 1.901,-3.188L59.971,48.301z" id="path_22"/></svg>