<svg id="vector" xmlns="http://www.w3.org/2000/svg" width="99" height="67" viewBox="0 0 99.178 67"><path fill="#000002" d="M17.216,17.845c1.295,2.204 1.942,4.359 1.942,6.453c-0.564,3.981 -1.267,5.972 -2.101,5.972l-0.159,-0.158v-0.158l0.317,-2.101v-0.165c0,-1.288 -0.537,-3.224 -1.611,-5.807v-0.323C16.142,19.078 16.679,17.845 17.216,17.845z" id="path_0"/><path fill="#203e96" d="M86.053,21.227c0.324,0 0.647,1.081 0.971,3.23l1.453,3.23l-0.647,3.712l0.482,9.043v1.446c-0.214,3.691 -0.751,5.841 -1.612,6.46l-0.159,-0.158l0.159,-2.424c0,-2.177 -0.703,-9.119 -2.101,-20.82C85.274,22.467 85.757,21.227 86.053,21.227z" id="path_1"/><path fill="#203e96" d="M92.265,51.875c0.165,-0.089 0.213,0.056 0.145,0.448c-0.916,2.148 -2.321,3.65 -4.215,4.497l-6.963,3.492c-0.296,-0.083 -0.351,-0.324 -0.166,-0.724c0.93,-1.79 1.563,-2.851 1.901,-3.188L92.265,51.875z" id="path_2"/><path fill="#000002" d="M72.154,33.177c5.489,1.963 8.23,4.387 8.23,7.266l0.165,0.965c-0.461,3.767 -1.701,5.647 -3.719,5.647c0,0.352 -2.687,0.785 -8.065,1.294L68.6,47.867c0,-2.693 0.482,-4.036 1.453,-4.036c5.379,-0.435 8.341,-1.081 8.878,-1.942c-1.853,-1.798 -4.277,-3.251 -7.266,-4.353l-0.158,-0.813C71.589,34.361 71.803,33.177 72.154,33.177z" id="path_3"/><path fill="#000002" d="M71.665,25.586c1.322,0.221 2.61,1.026 3.877,2.425v0.323c-0.806,2.149 -1.398,3.224 -1.777,3.224c-2.583,-0.882 -3.871,-1.584 -3.871,-2.094C69.895,28.466 70.487,27.178 71.665,25.586z" id="path_4"/><path fill="#000002" d="M78.105,15.359c0.165,-0.097 0.213,0.055 0.144,0.447c-0.916,2.148 -2.321,3.65 -4.215,4.497l-6.963,3.492c-0.296,-0.083 -0.351,-0.323 -0.165,-0.73c0.93,-1.791 1.563,-2.851 1.901,-3.188L78.105,15.359z" id="path_5"/><path fill="#D50000" d="M62.181,21.227c0.324,0 0.647,1.081 0.971,3.23l1.454,3.23l-0.647,3.712l0.482,9.043v1.446c-0.213,3.691 -0.75,5.841 -1.612,6.46L62.67,48.19l0.158,-2.424c0,-2.177 -0.702,-9.119 -2.101,-20.82C61.403,22.467 61.885,21.227 62.181,21.227z" id="path_6"/><path fill="#000002" d="M50.805,19.436h0.159c1.102,0.159 2.341,0.909 3.712,2.26v0.158l-1.935,3.389c-2.057,-0.664 -3.297,-1.24 -3.716,-1.732c-0.442,0.995 -0.848,1.544 -1.22,1.653c-1.646,-0.323 -2.879,-0.861 -3.713,-1.611v-0.166c0,-1.267 0.593,-2.555 1.77,-3.871h0.324c1.046,0.229 2.167,0.818 3.361,1.778C50.059,20.054 50.479,19.436 50.805,19.436z" id="path_7"/><path fill="#000002" d="M43.371,37.694c4.229,0.042 6.591,-0.751 7.107,-2.383c0,-0.564 -0.537,-1.963 -1.619,-4.194l0.489,-4.194h0.317c1.405,2.417 2.101,4.842 2.101,7.259v1.453c0,0.972 -0.234,1.99 -0.695,3.059c-0.461,1.067 -1.178,1.97 -2.136,2.692c-0.964,0.73 -2.816,1.033 -5.564,0.909V37.694z" id="path_8"/><path fill="#000002" d="M50.287,6.688c1.653,0 2.479,1.02 2.479,3.051c0,3.237 -2.762,5.999 -8.292,8.272c-0.792,0.241 -0.889,-0.049 -0.283,-0.868c0.152,-0.31 1.453,-1.281 3.912,-2.906v-0.138c-1.061,-0.435 -1.591,-1.357 -1.591,-2.769c0.703,-3.093 1.818,-4.643 3.347,-4.643H50.287L50.287,6.688zM47.821,10.18c0,0.861 0.73,1.391 2.183,1.598h0.283c0.537,0 0.881,-0.199 1.026,-0.585c0,-0.875 -0.633,-1.557 -1.894,-2.039C48.868,9.153 48.337,9.498 47.821,10.18z" id="path_9"/><path fill="#203e96" d="M29.383,37.694c1.15,0.014 1.859,-0.007 2.142,-0.062c2.424,-0.737 4.077,-2.308 4.966,-4.697c0.13,-0.462 0.399,-0.517 0.806,-0.166c0.213,0.187 0.379,0.944 0.482,2.259c1.467,1.978 3.299,2.866 5.489,2.666h0.427v4.601h-0.104c-3.43,-0.158 -5.958,-1.722 -7.59,-4.684h-0.158c-1.144,2.411 -2.651,3.892 -4.518,4.442c-0.565,0.158 -1.212,0.241 -1.942,0.241V37.694z" id="path_10"/><path fill="#203e96" d="M34.06,11.502h1.598c1.936,0 2.906,0.723 2.906,2.177c-1.253,3.388 -2.775,5.186 -4.566,5.393l-2.115,0.282c-0.337,0 -0.475,-0.097 -0.427,-0.282c1.708,-0.902 3.306,-1.977 4.787,-3.21c-0.523,-0.489 -1.102,-0.73 -1.735,-0.73H34.06l-1.735,0.146l-0.138,-0.146V14.85C33.006,12.617 33.633,11.502 34.06,11.502z" id="path_11"/><path fill="#000002" d="M26.125,46.896c-1.384,-0.538 -3.375,-1.02 -5.971,-1.454l-0.158,-0.158v-0.165c0.324,-2.796 0.75,-4.194 1.288,-4.194c1.508,-0.42 2.314,-1.164 2.424,-2.238v-0.669c-0.861,-4.642 -1.294,-9.215 -1.294,-13.72c0,-1.646 0.434,-3.092 1.294,-4.359h0.159c0.179,0 0.331,3.389 0.468,10.173c0,1.247 0.585,3.12 1.77,5.606c0.833,0.985 2.018,1.66 3.554,2.038v4.581c-1.936,-0.537 -3.492,-1.653 -4.663,-3.348c-0.055,1.261 -0.434,2.183 -1.15,2.762c2.624,0.352 3.939,1.212 3.939,2.583l0.117,0.95c0,0.496 -0.104,1.033 -0.324,1.612H26.125z" id="path_12"/><path fill="#D50000" d="M27.623,46.776c-0.647,2.246 -2.683,4.81 -6.036,7.425c-1.912,1.491 -4.291,2.101 -6.936,2.101c-1.48,-0.337 -2.542,-0.675 -3.182,-1.005c-0.641,-0.338 -1.405,-1.082 -2.308,-2.225c-1.619,-2.149 -2.424,-4.14 -2.424,-5.972c0,-4.359 1.398,-7.852 4.201,-10.489c0.496,-0.352 0.709,-0.297 0.641,0.158c0,0.393 -0.806,1.901 -2.418,4.518C8.514,42.596 8.191,43.836 8.191,45c0,1.673 1.184,3.499 3.554,5.489c1.681,0.93 3.506,1.309 5.489,1.129c2.335,0 5.241,-1.611 8.712,-4.842H27.623z" id="path_13"/><path fill="#203e96" d="M36.427,22.339h0.159c1.102,0.158 2.342,0.909 3.712,2.259v0.159l-1.936,3.388c-2.057,-0.663 -3.296,-1.239 -3.716,-1.731c-0.442,0.995 -0.848,1.544 -1.22,1.652c-1.646,-0.323 -2.879,-0.86 -3.713,-1.611v-0.165c0,-1.268 0.593,-2.556 1.771,-3.871h0.324c1.045,0.229 2.166,0.817 3.36,1.777C35.682,22.956 36.101,22.339 36.427,22.339z" id="path_14"/></svg>