<svg id="vector" xmlns="http://www.w3.org/2000/svg" width="99" height="67" viewBox="0 0 99.2 67"><path fill="#D50000" d="M46,28.6c1.3,0 4,2 8.1,6.1c3.1,3.8 4.7,7.3 4.7,10.7v1.3c-0.1,2.3 -0.3,3.4 -0.6,3.4l-0.3,-0.3v-1.9c0,-3.1 -2.3,-6.8 -6.8,-11.3L50.2,36c-0.3,1.1 -0.6,1.6 -0.8,1.6l-3.9,-4.8l0.2,-4l0.2,-0.2C45.9,28.6 46,28.6 46,28.6z" id="path_0"/><path fill="#000002" d="M29.8,49.3c0.2,0 0.4,0 0.6,0H32c1.6,-0.3 2.9,-0.8 3.7,-1.7l-1.9,-15.3c0.5,-2.9 0.9,-4.4 1.3,-4.4l2.1,4.8c0,0.8 -0.3,1.9 -0.8,3.4l0.8,8.7v2.4c-0.6,2.6 -1.4,4.4 -2.4,5.4C33.9,53.6 33,54 32,54h-1.4c-0.3,0 -0.5,0 -0.8,0L29.8,49.3L29.8,49.3z" id="path_1"/><path fill="#000002" d="M37.6,18.6c0.3,0.5 0.6,2 1,4.4c-0.2,1.5 -0.9,2.2 -1.9,2.2h-0.1c-0.4,0 -1,-0.3 -1.8,-0.9c-0.5,0.9 -1.2,1.3 -2.2,1.3c-1.2,0 -1.7,-1.4 -1.7,-4.2c0.3,-1.1 0.6,-1.6 0.9,-1.6l0.1,0.1v2.5c0.2,0.9 0.4,1.3 0.7,1.3h0.6c0.6,0 1,-0.2 1.2,-0.7l-0.3,-2.2c0.1,-0.7 0.3,-1.1 0.6,-1.1H35c0.3,2.4 0.8,3.6 1.4,3.6h1v-0.1L37,20.2V20C37.2,19 37.3,18.6 37.6,18.6z" id="path_2"/><path fill="#000002" d="M40.1,9.7c0.2,-0.1 0.2,0.1 0.1,0.4c-0.9,2.1 -2.3,3.7 -4.2,4.5l-7,3.5c-0.3,-0.1 -0.4,-0.3 -0.2,-0.7c0.9,-1.8 1.6,-2.9 1.9,-3.2L40.1,9.7z" id="path_3"/><path fill="#e21171" d="M15.7,49.4h0.4c1.1,0 2.3,-0.4 3.5,-1.3c1.2,-0.9 1.9,-1.9 2.2,-3.2l0.2,-0.2h0.2c0.2,0 0.5,0.6 0.8,1.8c1.5,2.1 3.7,3.1 6.5,2.9c0.2,0 0.4,0 0.6,0V54c-0.2,0 -0.4,0 -0.6,0l-2.3,-0.3C26.8,55.9 26.1,57 25,57h-0.3c-2.1,-0.4 -3.2,-1.2 -3.2,-2.3l0.5,-2.9c-0.4,-0.4 -0.8,-0.6 -1.1,-0.6c-1.2,1.9 -2.9,2.8 -5,2.8L15.7,49.4L15.7,49.4z" id="path_4"/><path fill="#e21171" d="M25.7,28.7c0.3,0.5 0.6,2 1,4.4c-0.2,1.5 -0.9,2.2 -1.9,2.2h-0.1c-0.4,0 -1,-0.3 -1.8,-0.9c-0.5,0.9 -1.2,1.3 -2.2,1.3c-1.2,0 -1.7,-1.4 -1.7,-4.2c0.3,-1.1 0.6,-1.6 0.9,-1.6l0.1,0.1v2.5c0.2,0.9 0.4,1.3 0.7,1.3h0.6c0.6,0 1,-0.2 1.2,-0.7l-0.3,-2.2c0.1,-0.7 0.3,-1.1 0.6,-1.1h0.3c0.3,2.4 0.8,3.6 1.4,3.6h1v-0.1l-0.4,-2.9v-0.2C25.2,29.2 25.4,28.7 25.7,28.7z" id="path_5"/><path fill="#e21171" d="M28.2,19.9c0.2,-0.1 0.2,0.1 0.1,0.4c-0.9,2.1 -2.3,3.6 -4.2,4.5l-7,3.5c-0.3,-0.1 -0.4,-0.3 -0.2,-0.7c0.9,-1.8 1.6,-2.9 1.9,-3.2L28.2,19.9z" id="path_6"/><path fill="#e21171" d="M28,14.6c0.2,-0.1 0.2,0.1 0.1,0.4c-0.9,2.1 -2.3,3.6 -4.2,4.5l-7,3.5c-0.3,-0.1 -0.4,-0.3 -0.2,-0.7c0.9,-1.8 1.6,-2.9 1.9,-3.2L28,14.6z" id="path_7"/><path fill="#000002" d="M16.3,54c-3.1,0.2 -5.4,-1.3 -6.8,-4.3c-0.7,-1.1 -1.3,-8.8 -1.9,-23.1v-0.3c0.4,-2.4 1,-3.6 1.8,-3.6l0.8,-0.2c1,0 2.5,0.3 4.5,1v0.3c-0.1,0.3 -0.4,0.5 -1,0.5h-2.7c-0.6,0 -1.1,0.3 -1.6,1c0.5,12.4 1.2,19.6 2.2,21.5c1,2 2.6,2.8 4.8,2.6L16.3,54L16.3,54z" id="path_8"/><path fill="#203e96" d="M85.4,26.8c0.3,0 0.6,1.1 1,3.2l1.5,3.2L87.2,37l0.5,9v1.4c-0.2,3.7 -0.8,5.8 -1.6,6.5l-0.2,-0.2l0.2,-2.4c0,-2.2 -0.7,-9.1 -2.1,-20.8C84.6,28.1 85.1,26.8 85.4,26.8z" id="path_9"/><path fill="#203e96" d="M91.5,17.4c0.2,-0.1 0.2,0.1 0.1,0.4c-0.9,2.1 -2.3,3.6 -4.2,4.5l-7,3.5c-0.3,-0.1 -0.4,-0.3 -0.2,-0.7c0.9,-1.8 1.6,-2.9 1.9,-3.2L91.5,17.4z" id="path_10"/><path fill="#000002" d="M67.7,49.4c0.2,0 0.5,0 0.8,0h1c3.7,-0.6 5.5,-1.7 5.5,-3.3c-1.7,-1.6 -4.5,-2.4 -8.4,-2.4l-2.2,0.2h-2.4l-0.6,-5.7l8.4,-6.3l8.6,-6.1c0.4,-0.3 0.6,-0.1 0.5,0.3l-3.5,6.5h-0.2l-0.2,-1.1h-0.3l-10.3,7.7H68c4.4,0 7.3,1.2 8.7,3.7l0.2,1v0.3c0,4.1 -1.9,7.2 -5.6,9.2c-1.1,0.4 -2,0.6 -2.7,0.6c-0.3,0 -0.5,0 -0.8,0L67.7,49.4L67.7,49.4z" id="path_11"/><path fill="#000002" d="M70.7,18.1h1.6c1.9,0 2.9,0.7 2.9,2.2c-1.3,3.4 -2.8,5.2 -4.6,5.4l-2.1,0.3c-0.3,0 -0.5,-0.1 -0.4,-0.3c1.7,-0.9 3.3,-2 4.8,-3.2c-0.5,-0.5 -1.1,-0.7 -1.7,-0.7h-0.4L69,21.8l-0.1,-0.1v-0.3C69.6,19.2 70.3,18.1 70.7,18.1z" id="path_12"/><path fill="#203e96" d="M67.5,54h-0.1c-2.5,0 -4.4,-1.6 -6,-4.7h-0.2c-0.8,3 -2.4,5.2 -4.8,6.6c-2.1,1 -5,1.5 -8.6,1.5l-0.2,-0.2V57c0.1,-0.3 2.2,-1.3 6.5,-3.1c2.1,-1 4,-2.6 5.6,-4.5c0.4,-0.5 0.8,-1.4 1.1,-2.4c-0.5,-5.7 -0.8,-10 -0.8,-12.7c0.2,-2.6 0.5,-3.9 1,-3.9c0.4,0 0.8,4.3 1.3,12.8c0,3.9 1.7,5.9 5.1,6.2L67.5,54L67.5,54z" id="path_13"/><path fill="#203e96" d="M67.2,20.4l0.2,0.1V21c-0.8,1.8 -2,3 -3.5,3.8c-4.6,2.5 -7.2,3.8 -7.7,3.8c-0.2,0 -0.3,-0.2 -0.3,-0.4c0.4,-1.7 1.4,-2.9 2.9,-3.5l8.3,-4.2L67.2,20.4L67.2,20.4z" id="path_14"/><path fill="#203e96" d="M66.1,16.8c0.2,0 0.3,0.1 0.3,0.4c-0.5,1.6 -2.1,3 -4.8,4.2l-6.1,3.3l-0.1,-0.1v-0.2c0.6,-2 1.5,-3.3 2.8,-3.8l6.8,-3.5L66.1,16.8z" id="path_15"/></svg>