<svg id="vector" xmlns="http://www.w3.org/2000/svg" width="133" height="67" viewBox="0 0 132.951 67"><path fill="#000002" d="M119.736,20.783c1.397,0 2.686,0.861 3.87,2.583c-0.991,2.259 -1.749,3.389 -2.259,3.389c-2.176,-1.074 -3.361,-1.776 -3.554,-2.101C117.793,23.635 118.441,22.34 119.736,20.783z" id="path_0"/><path fill="#000002" d="M114.508,41.039h0.806c5.021,-0.096 8.354,-0.799 10.007,-2.121l0.324,-0.641c-0.214,-0.517 -0.482,-0.771 -0.806,-0.771c-0.778,0.434 -1.64,0.647 -2.583,0.647h-0.165c-2.797,-0.323 -4.25,-1.453 -4.353,-3.389V34.6c0.268,-3.657 1.129,-5.482 2.582,-5.482h0.806c2.486,-0.124 4.374,1.812 5.648,5.807l0.158,1.618v0.323c-0.035,3.953 -1.454,6.564 -4.257,7.824c-0.991,0.634 -3.719,0.951 -8.168,0.951V41.039z" id="path_1"/><path fill="#000002" d="M125.701,9.867c0.165,-0.097 0.213,0.055 0.145,0.447c-0.917,2.148 -2.321,3.65 -4.216,4.498l-6.963,3.492c-0.296,-0.084 -0.352,-0.324 -0.165,-0.73c0.93,-1.791 1.563,-2.852 1.9,-3.189L125.701,9.867z" id="path_2"/><path fill="#203e96" d="M100.437,41.039h0.365c1.102,0 2.266,-0.428 3.492,-1.281c1.226,-0.854 1.942,-1.928 2.162,-3.216l0.158,-0.165h0.159c0.192,0 0.461,0.592 0.813,1.776c1.528,2.101 3.685,3.065 6.453,2.907c0.187,0 0.379,-0.008 0.565,-0.021v4.621c-0.187,0.014 -0.379,0.021 -0.565,0.021l-2.259,-0.262c-0.241,2.148 -0.943,3.223 -2.101,3.23h-0.323c-2.149,-0.406 -3.224,-1.158 -3.224,-2.267l0.481,-2.906c-0.378,-0.427 -0.75,-0.642 -1.129,-0.642c-1.213,1.895 -2.893,2.832 -5.049,2.805V41.039z" id="path_3"/><path fill="#203e96" d="M113.227,20.88c0.165,-0.097 0.213,0.056 0.145,0.448c-0.916,2.148 -2.321,3.65 -4.215,4.497l-6.964,3.491c-0.296,-0.082 -0.351,-0.322 -0.165,-0.729c0.93,-1.791 1.563,-2.852 1.901,-3.189L113.227,20.88z" id="path_4"/><path fill="#000002" d="M86.821,41.342c1.591,0.51 2.823,1.158 3.712,1.936v0.324c0,0.537 -0.592,1.722 -1.776,3.554c-1.103,0 -2.335,-0.593 -3.713,-1.776v-0.324C85.043,43.898 85.636,42.664 86.821,41.342z" id="path_5"/><path fill="#000002" d="M101.05,45.578c-1.468,0 -2.604,-0.227 -3.416,-0.682c-0.399,3.498 -1.15,5.916 -2.26,7.266c-2.658,3.334 -5.406,5 -8.23,5c-5.192,0 -8.581,-2.258 -10.172,-6.776c-0.317,-0.86 -0.482,-1.777 -0.482,-2.749V46.35c0,-3.822 1.185,-6.832 3.554,-9.043c0.427,0.165 0.647,0.537 0.647,1.129l-2.583,4.684l-0.165,1.611c0,3.637 1.99,6.165 5.972,7.59l4.201,0.324c1.77,0 3.98,-1.025 6.618,-3.064c0.965,-1.564 1.453,-2.693 1.453,-3.396c-0.109,-1.074 -0.813,-2.631 -2.101,-4.676v-3.396l0.482,-0.482c1.171,2.356 3.334,3.492 6.481,3.409V45.578z" id="path_6"/><path fill="#000002" d="M86.779,23.002h1.599c1.936,0 2.906,0.723 2.906,2.176c-1.254,3.389 -2.775,5.186 -4.566,5.393l-2.114,0.283c-0.338,0 -0.476,-0.098 -0.427,-0.283c1.708,-0.902 3.306,-1.977 4.786,-3.209c-0.523,-0.489 -1.102,-0.73 -1.735,-0.73h-0.448l-1.735,0.145l-0.138,-0.145v-0.282C85.725,24.117 86.352,23.002 86.779,23.002z" id="path_7"/><path fill="#e21171" d="M61.937,49.291h0.323c1.102,0.24 2.287,0.888 3.554,1.941v0.158c-0.729,2.205 -1.37,3.389 -1.935,3.555c-1.646,-0.324 -2.879,-0.861 -3.713,-1.619v-0.158C60.167,51.9 60.759,50.613 61.937,49.291z" id="path_8"/><path fill="#e21171" d="M67.915,47.837h0.159c1.102,0.165 2.341,0.916 3.712,2.259v0.166L69.85,53.65c-2.583,-0.834 -3.878,-1.536 -3.878,-2.102C66.806,49.076 67.454,47.837 67.915,47.837z" id="path_9"/><path fill="#e21171" d="M60.504,41.907c4.229,0.042 6.591,-0.751 7.107,-2.384c0,-0.564 -0.537,-1.962 -1.618,-4.193l0.488,-4.195h0.317c1.404,2.418 2.101,4.842 2.101,7.26v1.453c0,0.971 -0.234,1.99 -0.696,3.059c-0.461,1.066 -1.177,1.969 -2.135,2.692c-0.964,0.73 -2.816,1.033 -5.564,0.909V41.907z" id="path_10"/><path fill="#e21171" d="M69.809,19.551c0.296,0.51 0.641,1.963 1.033,4.359c-0.241,1.453 -0.875,2.177 -1.901,2.177h-0.138c-0.448,0 -1.026,-0.289 -1.756,-0.868c-0.496,0.875 -1.227,1.316 -2.177,1.316c-1.157,0 -1.735,-1.406 -1.735,-4.216c0.337,-1.067 0.627,-1.598 0.867,-1.598l0.138,0.145v2.479c0.2,0.861 0.448,1.287 0.73,1.287h0.585c0.606,0 0.992,-0.24 1.171,-0.723l-0.303,-2.176c0.117,-0.73 0.317,-1.116 0.585,-1.15h0.304c0.303,2.418 0.792,3.629 1.446,3.629h1.013v-0.145L69.23,21.17v-0.166C69.347,20.033 69.541,19.551 69.809,19.551z" id="path_11"/><path fill="#e21171" d="M72.247,10.674c0.166,-0.098 0.214,0.055 0.146,0.447c-0.917,2.148 -2.321,3.65 -4.215,4.497l-6.964,3.492c-0.296,-0.083 -0.352,-0.323 -0.165,-0.729c0.93,-1.791 1.563,-2.853 1.9,-3.189L72.247,10.674z" id="path_12"/><path fill="#000002" d="M61.186,46.508c-0.104,0 -0.214,0 -0.316,0h-1.454c-1.453,0 -3.126,-0.916 -5.007,-2.74c-3.23,1.77 -6.715,2.686 -10.455,2.74v-4.58c1.956,0.131 4.47,-0.275 7.549,-1.232v-0.158c-1.481,-0.972 -2.879,-1.453 -4.194,-1.453l-1.295,0.158l-0.324,-0.807c0.435,-2.906 1.674,-4.359 3.713,-4.359l2.583,-0.158c4.091,0.482 6.137,1.398 6.137,2.741v0.647l-0.972,3.23c0.785,0.95 2.128,1.412 4.036,1.37V46.508z" id="path_13"/><path fill="#000002" d="M52.17,19.957h1.598c1.936,0 2.906,0.723 2.906,2.176c-1.253,3.389 -2.775,5.188 -4.566,5.394l-2.114,0.282c-0.337,0 -0.475,-0.097 -0.427,-0.282c1.708,-0.902 3.306,-1.977 4.787,-3.21c-0.523,-0.488 -1.103,-0.73 -1.736,-0.73H52.17l-1.735,0.146l-0.138,-0.146v-0.281C51.117,21.072 51.744,19.957 52.17,19.957z" id="path_14"/><path fill="#203e96" d="M30.13,41.907h0.365c1.103,0 2.266,-0.427 3.492,-1.281c1.226,-0.854 1.942,-1.929 2.163,-3.216l0.157,-0.166h0.159c0.192,0 0.461,0.592 0.813,1.777c1.529,2.101 3.685,3.064 6.453,2.906c0.187,0 0.379,-0.007 0.565,-0.021v4.621c-0.187,0.015 -0.379,0.021 -0.565,0.021l-2.259,-0.262c-0.241,2.148 -0.943,3.224 -2.101,3.23H39.05c-2.149,-0.406 -3.224,-1.157 -3.224,-2.266l0.481,-2.906c-0.378,-0.428 -0.75,-0.641 -1.129,-0.641c-1.212,1.894 -2.893,2.83 -5.049,2.803V41.907z" id="path_15"/><path fill="#203e96" d="M42.92,21.748c0.165,-0.097 0.214,0.055 0.145,0.447c-0.916,2.148 -2.32,3.65 -4.215,4.498l-6.963,3.491c-0.297,-0.082 -0.352,-0.323 -0.166,-0.729c0.93,-1.791 1.563,-2.852 1.901,-3.189L42.92,21.748z" id="path_16"/><path fill="#D50000" d="M30.234,46.445c-1.563,0.015 -2.852,-0.785 -3.878,-2.396h-0.158c-0.757,2.687 -1.887,4.574 -3.389,5.648c-2.128,2.045 -4.442,3.064 -6.942,3.064h-0.971c-2.852,0 -5.379,-1.611 -7.583,-4.842c-0.861,-1.48 -1.295,-3.203 -1.295,-5.166c0,-2.768 1.398,-5.564 4.201,-8.389c1.46,-0.93 1.895,-0.875 1.288,0.158c-2.473,3.444 -3.712,5.813 -3.712,7.102c0,3.34 2.472,5.544 7.424,6.619h1.295c2.769,0 5.511,-1.398 8.23,-4.195c0.282,-0.889 0.338,-1.859 0.158,-2.906c-0.537,-2.286 -1.343,-8.1 -2.417,-17.432l0.964,-3.23c0.152,-0.027 0.311,-0.027 0.489,0c0.296,0 0.833,4.092 1.611,12.267c0.538,4.305 1.185,6.997 1.936,8.071c0.661,0.73 1.577,1.068 2.748,1.027V46.445z" id="path_17"/><path fill="#D50000" d="M15.564,18.828h1.598c1.936,0 2.906,0.723 2.906,2.176c-1.253,3.389 -2.775,5.187 -4.566,5.393l-2.114,0.283c-0.337,0 -0.475,-0.097 -0.427,-0.283c1.708,-0.902 3.306,-1.977 4.787,-3.209c-0.523,-0.489 -1.103,-0.73 -1.736,-0.73h-0.447l-1.735,0.145l-0.138,-0.145v-0.282C14.51,19.943 15.137,18.828 15.564,18.828z" id="path_18"/></svg>