<svg id="vector" xmlns="http://www.w3.org/2000/svg" width="76" height="67" viewBox="0 0 76.257 67"><path fill="#203e96" d="M68.158,27.086c0.305,0 0.608,1.017 0.913,3.037l1.366,3.036l-0.607,3.489l0.453,8.504v1.358c-0.201,3.472 -0.707,5.491 -1.517,6.074l-0.149,-0.149l0.149,-2.278c0,-2.046 -0.66,-8.573 -1.976,-19.574C67.425,28.251 67.88,27.086 68.158,27.086z" id="path_0"/><path fill="#203e96" d="M72.691,18.208c0.155,-0.091 0.201,0.052 0.137,0.421c-0.861,2.021 -2.183,3.432 -3.963,4.229l-6.547,3.283c-0.277,-0.078 -0.33,-0.305 -0.154,-0.687c0.873,-1.684 1.469,-2.681 1.787,-2.998L72.691,18.208z" id="path_1"/><path fill="#008146" d="M52.705,47.955c0.174,0.014 0.362,0.021 0.569,0.021h1.438c1.521,-0.254 2.681,-0.785 3.49,-1.595l-1.82,-14.42c0.453,-2.732 0.861,-4.093 1.211,-4.093l1.976,4.553c0,0.705 -0.252,1.768 -0.758,3.186l0.758,8.19v2.28c-0.569,2.415 -1.333,4.105 -2.292,5.063c-0.727,0.771 -1.574,1.159 -2.564,1.159h-1.289c-0.252,0 -0.491,-0.007 -0.719,-0.021V47.955L52.705,47.955z" id="path_2"/><path fill="#008146" d="M46.753,45.357c0.136,-0.16 0.252,-0.336 0.336,-0.51l0.459,-1.219l-0.912,-12.595c0.557,-2.324 0.957,-3.49 1.211,-3.49c0.304,0 0.557,2.83 0.764,8.496c0.35,6.778 1.516,10.574 3.49,11.384c0.628,0.383 1.625,0.582 2.979,0.608v4.364l-0.246,0.039c-3.289,0 -5.517,-1.871 -6.683,-5.615c0,-0.206 -0.026,-0.355 -0.071,-0.459c-0.434,1.152 -1.119,2.104 -2.072,2.867c-1.158,0.836 -3.334,1.646 -6.526,2.43c-6.689,0.428 -10.471,0.07 -11.345,-1.063c-0.932,-0.979 2.344,-1.742 9.83,-2.299C41.696,47.768 44.623,46.79 46.753,45.357z" id="path_3"/><path fill="#008146" d="M50.357,19.995c0.277,0.479 0.602,1.846 0.971,4.099c-0.227,1.366 -0.822,2.047 -1.787,2.047h-0.129c-0.42,0 -0.965,-0.272 -1.65,-0.816c-0.467,0.822 -1.152,1.237 -2.047,1.237c-1.086,0 -1.631,-1.321 -1.631,-3.964c0.317,-1.003 0.59,-1.502 0.816,-1.502l0.129,0.137v2.33c0.188,0.81 0.422,1.211 0.686,1.211h0.552c0.569,0 0.933,-0.227 1.101,-0.68l-0.285,-2.046c0.11,-0.687 0.299,-1.049 0.551,-1.081h0.285c0.285,2.272 0.746,3.412 1.36,3.412h0.952v-0.136l-0.415,-2.727v-0.155C49.923,20.448 50.104,19.995 50.357,19.995z" id="path_4"/><path fill="#000002" d="M39.384,51.122c0.518,0.926 0.803,1.47 0.855,1.632l0.07,1.236c-0.014,2.188 -0.305,3.697 -0.887,4.533c-0.584,0.834 -1.321,1.256 -2.221,1.269c-1.949,0 -3.969,-1.565 -6.074,-4.701c-0.362,-0.62 -0.719,-1.431 -1.062,-2.428H28.55c-0.343,0 -0.667,-0.021 -0.984,-0.06V48.26c0.466,0.104 0.945,0.148 1.438,0.148h0.608c0.835,-3.237 2.253,-5.665 4.248,-7.284c1.036,-0.81 2.001,-1.211 2.888,-1.211c1.367,0 2.175,1.011 2.427,3.037c0.402,2.032 -0.051,4.149 -1.365,6.353L39.384,51.122L39.384,51.122zM32.65,52.508c1.036,1.826 2.551,2.836 4.552,3.037c1.01,-0.091 1.67,-0.441 1.975,-1.063c-0.092,-1.225 -0.796,-1.969 -2.124,-2.229c-1.334,-0.259 -2.396,-0.35 -3.199,-0.259C33.051,52.087 32.65,52.255 32.65,52.508L32.65,52.508zM31.128,47.807c-0.11,0.338 0.039,0.492 0.46,0.453c1.923,0 3.84,-0.861 5.763,-2.576v-0.156c-0.427,-1.01 -0.984,-1.516 -1.664,-1.516C34.178,43.816 32.663,45.087 31.128,47.807z" id="path_5"/><path fill="#e21171" d="M27.528,52.586c-0.162,0 -0.336,0 -0.511,0h-0.149c-1.47,-0.014 -2.888,-0.271 -4.254,-0.777c-1.463,2.531 -3.387,3.795 -5.763,3.795c-2.836,-0.408 -4.254,-1.566 -4.254,-3.49h-0.149c-0.479,1.619 -1.542,2.934 -3.186,3.943c-2.202,0.81 -3.924,1.217 -5.161,1.217l-0.699,0.092v-0.305c0.563,-0.467 2.091,-1.549 4.578,-3.244c2.487,-1.69 3.898,-2.752 4.229,-3.187c0.336,-0.428 0.822,-1.858 1.457,-4.286c1.211,-2.021 2.324,-3.037 3.335,-3.037h0.304c1.262,0 3.29,1.366 6.074,4.1c0.81,0.687 2.188,0.99 4.15,0.912L27.528,52.586L27.528,52.586zM14.422,48.467c0,1.342 1.062,2.254 3.186,2.732h0.757c1.723,-0.174 2.584,-0.428 2.584,-0.758c-2.001,-1.924 -3.516,-2.881 -4.559,-2.881h-0.149C15.38,47.561 14.772,47.865 14.422,48.467z" id="path_6"/><path fill="#e21171" d="M18.081,30.407c0.278,0.479 0.602,1.846 0.971,4.1c-0.227,1.366 -0.822,2.046 -1.787,2.046h-0.129c-0.421,0 -0.965,-0.271 -1.651,-0.816c-0.466,0.824 -1.152,1.238 -2.046,1.238c-1.087,0 -1.632,-1.322 -1.632,-3.964c0.317,-1.004 0.59,-1.502 0.816,-1.502l0.129,0.136v2.331c0.188,0.81 0.421,1.211 0.686,1.211h0.551c0.57,0 0.933,-0.228 1.101,-0.681l-0.285,-2.047c0.11,-0.687 0.297,-1.049 0.55,-1.081h0.285c0.285,2.272 0.745,3.412 1.36,3.412h0.952v-0.137l-0.415,-2.725v-0.156C17.646,30.86 17.828,30.407 18.081,30.407z" id="path_7"/><path fill="#e21171" d="M20.379,22.062c0.155,-0.091 0.201,0.051 0.136,0.42c-0.861,2.021 -2.182,3.433 -3.962,4.229l-6.547,3.283c-0.278,-0.077 -0.33,-0.305 -0.156,-0.687c0.875,-1.684 1.47,-2.681 1.788,-2.998L20.379,22.062z" id="path_8"/><path fill="#008146" d="M47.55,7.207c1.217,2.071 1.826,4.099 1.826,6.067c-0.531,3.742 -1.191,5.613 -1.976,5.613l-0.149,-0.148V18.59l0.299,-1.975V16.46c0,-1.211 -0.506,-3.03 -1.516,-5.459v-0.304C46.541,8.366 47.044,7.207 47.55,7.207z" id="path_9"/><path fill="#000002" d="M35.881,24.878c1.604,0 2.404,0.988 2.404,2.958c0,3.139 -2.678,5.816 -8.039,8.02c-0.77,0.234 -0.861,-0.047 -0.275,-0.841c0.148,-0.301 1.41,-1.242 3.793,-2.818v-0.134c-1.029,-0.42 -1.543,-1.315 -1.543,-2.685c0.682,-2.998 1.764,-4.5 3.246,-4.5H35.881L35.881,24.878zM33.49,28.265c0,0.834 0.709,1.349 2.117,1.549h0.275c0.52,0 0.854,-0.193 0.994,-0.567c0,-0.848 -0.613,-1.51 -1.836,-1.977C34.506,27.269 33.99,27.603 33.49,28.265z" id="path_10"/></svg>