<svg id="vector" xmlns="http://www.w3.org/2000/svg" width="174" height="67" viewBox="0 0 174.112 67"><path fill="#203e96" d="M138.717,41.384c0.221,0 0.447,0 0.688,0h0.165c2.012,-0.124 3.844,-1.798 5.482,-5.021c1.777,-2.693 3.609,-4.037 5.489,-4.037c2.37,0 3.554,1.502 3.554,4.52v0.805c0,1.48 -0.592,3.416 -1.776,5.813l-1.13,0.806c-0.998,0 -3.306,-0.703 -6.942,-2.101c-1.102,1.653 -1.963,2.659 -2.583,3.01c-0.943,0.654 -1.907,0.93 -2.906,0.806h-0.041V41.384L138.717,41.384zM146.83,37.975v0.158c2.796,1.081 4.47,1.619 5.007,1.619c0.214,0 0.324,-0.166 0.324,-0.49c-0.62,-1.611 -1.646,-2.416 -3.072,-2.416C148.098,36.846 147.34,37.224 146.83,37.975z" id="path_0"/><path fill="#203e96" d="M151.851,48.443c0.166,-0.09 0.214,0.055 0.145,0.447c-0.916,2.148 -2.32,3.65 -4.215,4.498l-6.963,3.492c-0.296,-0.083 -0.352,-0.324 -0.166,-0.724c0.931,-1.79 1.564,-2.852 1.901,-3.188L151.851,48.443z" id="path_1"/><path fill="#000002" d="M127.952,48.891c0.668,0 1.853,0.807 3.547,2.418c0,0.544 -0.641,1.722 -1.936,3.554h-0.323c-0.676,0 -1.694,-0.647 -3.065,-1.936v-0.165C126.175,52.121 126.768,50.826 127.952,48.891z" id="path_2"/><path fill="#000002" d="M133.758,48.086c2.693,1.156 4.036,2.065 4.036,2.74c-0.158,0.51 -0.909,1.639 -2.259,3.389c-1.805,-0.695 -3.093,-1.502 -3.871,-2.418C132.229,49.993 132.925,48.753 133.758,48.086z" id="path_3"/><path fill="#000002" d="M125.101,41.384c1.15,0.014 1.859,-0.007 2.142,-0.062c2.425,-0.737 4.077,-2.308 4.966,-4.697c0.131,-0.462 0.399,-0.518 0.806,-0.166c0.214,0.186 0.379,0.943 0.482,2.26c1.467,1.977 3.299,2.865 5.489,2.665h0.427v4.601h-0.104c-3.429,-0.158 -5.957,-1.722 -7.59,-4.684h-0.158c-1.143,2.411 -2.651,3.892 -4.518,4.442c-0.564,0.159 -1.212,0.241 -1.942,0.241V41.384z" id="path_4"/><path fill="#000002" d="M131.437,21.789h1.599c1.935,0 2.906,0.723 2.906,2.177c-1.253,3.388 -2.775,5.187 -4.566,5.393l-2.114,0.282c-0.338,0 -0.476,-0.096 -0.427,-0.282c1.708,-0.902 3.306,-1.977 4.786,-3.21c-0.523,-0.488 -1.102,-0.73 -1.735,-0.73h-0.448l-1.735,0.146l-0.138,-0.146v-0.281C130.383,22.904 131.01,21.789 131.437,21.789z" id="path_5"/><path fill="#008146" d="M108.66,41.384c1.791,0.151 3.313,-0.028 4.58,-0.523l-0.668,-1.212c-0.627,-3.555 -0.345,-5.902 0.847,-7.053c1.198,-1.15 2.486,-1.682 3.857,-1.584c2.665,0.123 4.167,1.521 4.518,4.194v0.971c0,2.231 -0.323,3.63 -0.964,4.194c-0.406,0.42 0.51,0.771 2.741,1.054l0.523,-0.021c0.406,-0.014 0.867,-0.021 1.392,-0.021v4.601l-1.633,0.021c-3.037,-0.014 -5.338,-0.399 -6.901,-1.149c-2.148,0.75 -3.822,1.129 -5,1.129h-0.647c-0.806,0 -1.688,0 -2.645,0V41.384L108.66,41.384zM114.37,36.824v0.324c0.675,1.156 1.694,1.963 3.064,2.417c0.916,-0.158 1.832,-0.537 2.748,-1.13c-0.406,-1.508 -1.749,-2.369 -4.036,-2.582C114.962,36.177 114.37,36.5 114.37,36.824z" id="path_6"/><path fill="#008146" d="M117.497,21.727c1.749,0.545 3.257,1.406 4.518,2.584v0.164c0,0.676 -0.695,1.75 -2.094,3.23c-0.434,0 -1.888,-0.537 -4.359,-1.618v0.165c-0.861,1.667 -1.398,2.527 -1.619,2.583c-1.397,-0.296 -2.582,-0.944 -3.547,-1.942c0.647,-2.686 1.185,-4.029 1.612,-4.029c0.351,0 1.646,0.641 3.877,1.936C115.885,24.234 116.422,23.208 117.497,21.727z" id="path_7"/><path fill="#008146" d="M121.409,11.781c0.165,-0.096 0.213,0.056 0.145,0.448c-0.916,2.149 -2.321,3.649 -4.215,4.497l-6.964,3.492c-0.296,-0.082 -0.351,-0.324 -0.165,-0.73c0.93,-1.791 1.563,-2.852 1.901,-3.188L121.409,11.781z" id="path_8"/><path fill="#000002" d="M108.799,45.984c-3.135,0.186 -5.414,-1.26 -6.84,-4.34c-0.688,-1.143 -1.329,-8.85 -1.936,-23.12v-0.323c0.399,-2.369 0.992,-3.555 1.771,-3.555l0.813,-0.158c0.991,0 2.5,0.324 4.518,0.965v0.323c-0.109,0.323 -0.434,0.489 -0.971,0.489h-2.741c-0.564,0 -1.102,0.316 -1.618,0.964c0.503,12.391 1.232,19.567 2.203,21.53c0.965,1.963 2.569,2.838 4.802,2.624V45.984z" id="path_9"/><path fill="#203e96" d="M81.015,24.578h0.323c1.103,0.242 2.287,0.882 3.554,1.936v0.158c-0.729,2.211 -1.37,3.389 -1.935,3.555c-1.646,-0.324 -2.879,-0.861 -3.713,-1.612v-0.165C79.244,27.182 79.837,25.895 81.015,24.578z" id="path_10"/><path fill="#203e96" d="M86.993,23.125h0.158c1.102,0.158 2.342,0.909 3.712,2.26v0.158l-1.935,3.389c-2.583,-0.834 -3.878,-1.529 -3.878,-2.094C85.884,24.358 86.531,23.125 86.993,23.125z" id="path_11"/><path fill="#203e96" d="M81.786,41.384c4.229,0.041 6.591,-0.751 7.107,-2.384c0,-0.564 -0.537,-1.963 -1.619,-4.193l0.489,-4.195h0.317c1.405,2.418 2.101,4.842 2.101,7.26v1.453c0,0.971 -0.234,1.99 -0.695,3.059c-0.462,1.066 -1.178,1.969 -2.136,2.692c-0.964,0.729 -2.816,1.033 -5.564,0.909V41.384z" id="path_12"/><path fill="#203e96" d="M92.613,14.75l0.165,0.145v0.441c-0.841,1.791 -2.004,3.044 -3.492,3.774c-4.628,2.514 -7.197,3.774 -7.707,3.774c-0.192,0 -0.289,-0.152 -0.289,-0.448c0.447,-1.708 1.419,-2.864 2.906,-3.472l8.279,-4.215H92.613z" id="path_13"/><path fill="#203e96" d="M91.463,11.121c0.186,0 0.282,0.137 0.282,0.42c-0.537,1.563 -2.128,2.969 -4.78,4.222L80.85,19.11l-0.138,-0.146v-0.158c0.578,-2.045 1.494,-3.306 2.762,-3.773l6.818,-3.492L91.463,11.121z" id="path_14"/><path fill="#000002" d="M82.95,45.984c-3.134,0.186 -5.414,-1.26 -6.84,-4.34c-0.688,-1.143 -1.329,-8.85 -1.935,-23.12v-0.323c0.399,-2.369 0.992,-3.555 1.77,-3.555l0.813,-0.158c0.992,0 2.501,0.324 4.519,0.965v0.323c-0.11,0.323 -0.434,0.489 -0.971,0.489h-2.742c-0.563,0 -1.102,0.316 -1.618,0.964c0.503,12.391 1.233,19.567 2.204,21.53c0.964,1.963 2.569,2.838 4.801,2.624V45.984z" id="path_15"/><path fill="#e21171" d="M56.316,48.768h0.324c1.102,0.24 2.286,0.888 3.554,1.941v0.158c-0.729,2.205 -1.37,3.389 -1.936,3.555c-1.646,-0.324 -2.879,-0.861 -3.712,-1.619v-0.158C54.547,51.377 55.139,50.09 56.316,48.768z" id="path_16"/><path fill="#e21171" d="M62.295,47.313h0.158c1.103,0.165 2.342,0.916 3.713,2.259v0.166l-1.936,3.389c-2.583,-0.834 -3.878,-1.536 -3.878,-2.101C61.187,48.554 61.834,47.313 62.295,47.313z" id="path_17"/><path fill="#e21171" d="M57.088,41.384c4.229,0.041 6.592,-0.751 7.107,-2.384c0,-0.564 -0.537,-1.963 -1.618,-4.193l0.489,-4.195h0.316c1.405,2.418 2.101,4.842 2.101,7.26v1.453c0,0.971 -0.233,1.99 -0.695,3.059c-0.461,1.066 -1.178,1.969 -2.135,2.692c-0.965,0.729 -2.817,1.033 -5.565,0.909V41.384z" id="path_18"/><path fill="#e21171" d="M66.207,19.027c0.296,0.51 0.641,1.963 1.033,4.359c-0.241,1.453 -0.875,2.177 -1.901,2.177h-0.138c-0.447,0 -1.025,-0.29 -1.756,-0.868c-0.496,0.875 -1.227,1.316 -2.177,1.316c-1.157,0 -1.735,-1.406 -1.735,-4.216c0.338,-1.067 0.627,-1.598 0.868,-1.598l0.138,0.145v2.479c0.199,0.861 0.447,1.288 0.729,1.288h0.586c0.605,0 0.991,-0.241 1.171,-0.724l-0.304,-2.176c0.117,-0.73 0.317,-1.116 0.586,-1.15h0.303c0.303,2.418 0.792,3.629 1.446,3.629h1.013v-0.145l-0.44,-2.898V20.48C65.745,19.51 65.938,19.027 66.207,19.027z" id="path_19"/><path fill="#e21171" d="M68.646,10.149c0.165,-0.097 0.213,0.056 0.145,0.448c-0.916,2.148 -2.321,3.65 -4.215,4.497l-6.964,3.491c-0.296,-0.082 -0.351,-0.323 -0.165,-0.729c0.93,-1.79 1.563,-2.851 1.901,-3.188L68.646,10.149z" id="path_20"/><path fill="#000002" d="M57.611,45.984l-1.818,-0.021c-1.006,4.429 -3.671,6.667 -7.989,6.722c-2.314,0.104 -3.471,0.063 -3.471,-0.123c0.213,-0.407 1.763,-1.186 4.642,-2.342c2.962,-1.881 4.745,-3.093 5.365,-3.63l0.165,-0.482l-2.823,-0.448c-2.06,-0.537 -3.217,-1.57 -3.472,-3.105V42.23c0,-2.609 0.641,-4.276 1.936,-5.007l0.972,-0.158c1.907,0 3.464,1.329 4.676,3.995c0.771,0.268 1.378,0.398 1.818,0.385V45.984z" id="path_21"/><path fill="#000002" d="M50.125,23.787h1.598c1.936,0 2.906,0.723 2.906,2.176c-1.253,3.389 -2.775,5.186 -4.566,5.393l-2.114,0.283c-0.337,0 -0.475,-0.098 -0.427,-0.283c1.708,-0.902 3.306,-1.977 4.787,-3.209c-0.523,-0.489 -1.103,-0.73 -1.736,-0.73h-0.447l-1.735,0.145l-0.139,-0.145v-0.282C49.071,24.902 49.698,23.787 50.125,23.787z" id="path_22"/><path fill="#D50000" d="M37.149,33.677c2.459,0.269 3.747,1.563 3.85,3.892v0.75c-0.592,4.732 -1.611,7.102 -3.064,7.102h-0.158c-0.758,0 -2.693,-0.537 -5.813,-1.611c-1.37,3.174 -3.147,5.109 -5.331,5.806c-3.064,0.971 -4.945,1.453 -5.647,1.453h-0.647c-0.241,-0.104 -0.344,-0.269 -0.316,-0.482c0.075,-0.241 1.474,-1.102 4.194,-2.583c4.842,-2.988 7.266,-5.516 7.266,-7.59c0.751,-2.879 1.825,-4.813 3.224,-5.806C35.434,34.056 36.247,33.746 37.149,33.677L37.149,33.677zM33.898,39.448c-0.027,0.069 -0.027,0.117 0,0.159l4.519,1.295c0.22,0.055 0.378,0 0.488,-0.166c0,-1.26 -1.026,-2.073 -3.071,-2.418h-0.159C35.028,38.318 34.436,38.691 33.898,39.448z" id="path_23"/><path fill="#D50000" d="M36.522,21.162c0.165,-0.096 0.214,0.055 0.145,0.447c-0.916,2.149 -2.321,3.65 -4.215,4.498L25.488,29.6c-0.296,-0.083 -0.351,-0.324 -0.165,-0.73c0.93,-1.791 1.563,-2.852 1.901,-3.189L36.522,21.162z" id="path_24"/></svg>