<svg id="vector" xmlns="http://www.w3.org/2000/svg" width="99" height="67" viewBox="0 0 99.178 67"><path fill="#203e96" d="M81.169,36.661c0.208,0 0.422,0 0.649,0h0.156c1.895,-0.124 3.62,-1.798 5.164,-5.021c1.673,-2.693 3.399,-4.036 5.17,-4.036c2.232,0 3.347,1.501 3.347,4.518v0.806c0,1.481 -0.558,3.417 -1.673,5.813l-1.064,0.806c-0.94,0 -3.114,-0.702 -6.539,-2.101c-1.038,1.653 -1.849,2.658 -2.433,3.01c-0.889,0.654 -1.797,0.93 -2.737,0.806h-0.04V36.661L81.169,36.661zM88.811,33.252v0.158c2.634,1.081 4.21,1.618 4.716,1.618c0.201,0 0.305,-0.165 0.305,-0.488c-0.584,-1.612 -1.55,-2.418 -2.893,-2.418C90.004,32.122 89.291,32.501 88.811,33.252z" id="path_0"/><path fill="#203e96" d="M93.715,14.952c0.156,-0.097 0.202,0.056 0.136,0.448c-0.863,2.148 -2.186,3.649 -3.97,4.497l-6.559,3.492c-0.279,-0.083 -0.331,-0.324 -0.155,-0.73c0.875,-1.79 1.472,-2.852 1.79,-3.188L93.715,14.952z" id="path_1"/><path fill="#f26122" d="M68.098,36.964c1.498,0.51 2.66,1.157 3.497,1.936v0.324c0,0.537 -0.558,1.722 -1.674,3.554c-1.038,0 -2.199,-0.592 -3.497,-1.777v-0.323C66.424,39.52 66.982,38.287 68.098,36.964z" id="path_2"/><path fill="#f26122" d="M81.5,41.2c-1.382,0 -2.452,-0.228 -3.217,-0.682c-0.376,3.499 -1.083,5.916 -2.128,7.266c-2.504,3.334 -5.092,5.001 -7.752,5.001c-4.891,0 -8.083,-2.26 -9.581,-6.777c-0.298,-0.861 -0.454,-1.777 -0.454,-2.748v-1.288c0,-3.823 1.115,-6.832 3.347,-9.043c0.402,0.165 0.61,0.537 0.61,1.129l-2.433,4.684l-0.156,1.612c0,3.636 1.875,6.163 5.624,7.59l3.957,0.323c1.667,0 3.75,-1.026 6.234,-3.065c0.908,-1.563 1.369,-2.692 1.369,-3.395c-0.104,-1.075 -0.765,-2.632 -1.978,-4.677v-3.396l0.454,-0.482c1.103,2.355 3.14,3.492 6.104,3.409V41.2z" id="path_3"/><path fill="#f26122" d="M68.059,14.216h1.505c1.823,0 2.737,0.723 2.737,2.177c-1.18,3.388 -2.614,5.186 -4.301,5.393l-1.991,0.282c-0.318,0 -0.448,-0.097 -0.402,-0.282c1.609,-0.902 3.114,-1.977 4.508,-3.21c-0.493,-0.488 -1.038,-0.73 -1.635,-0.73h-0.421l-1.635,0.146l-0.13,-0.146v-0.281C67.066,15.331 67.657,14.216 68.059,14.216z" id="path_4"/><path fill="#000002" d="M50.573,46.125c0.519,0 1.732,0.646 3.646,1.941c0,0.807 -0.603,2.095 -1.823,3.871c-2.433,-0.833 -3.646,-1.584 -3.646,-2.259C48.809,49.072 49.418,47.888 50.573,46.125z" id="path_5"/><path fill="#000002" d="M46.921,39.044c3.983,0.042 6.208,-0.75 6.695,-2.383c0,-0.564 -0.506,-1.963 -1.524,-4.194l0.46,-4.194h0.298c1.323,2.418 1.979,4.842 1.979,7.259v1.454c0,0.971 -0.221,1.99 -0.655,3.058s-1.109,1.97 -2.011,2.693c-0.908,0.729 -2.653,1.033 -5.241,0.909V39.044z" id="path_6"/><path fill="#000002" d="M56.788,16.971c0.156,-0.097 0.201,0.055 0.136,0.447c-0.863,2.148 -2.186,3.65 -3.97,4.497l-6.558,3.492c-0.279,-0.083 -0.331,-0.323 -0.156,-0.729c0.876,-1.791 1.473,-2.852 1.791,-3.189L56.788,16.971z" id="path_7"/><path fill="#008146" d="M25.728,37.529c1.246,0 2.154,0 2.738,0h0.609c1.823,-0.255 4.547,-1.081 8.174,-2.479c-1.22,-1.081 -3.094,-1.888 -5.625,-2.425c-1.499,0 -2.51,0.751 -3.042,2.26c-0.188,0.447 -0.357,0.564 -0.506,0.351c-0.143,-0.207 -0.182,-0.481 -0.104,-0.833c0.915,-3.258 2.127,-4.883 3.652,-4.883h1.064c1.012,0 2.841,0.605 5.481,1.818c2.64,1.205 4.917,1.694 6.831,1.453c0.24,0 0.344,0.158 0.305,0.481c-0.409,2.687 -1.168,4.036 -2.284,4.036l-0.759,0.158v0.324c0.382,0.847 2.134,1.253 5.268,1.212v4.58c-4.535,0.255 -6.798,-1.618 -6.785,-5.627c-1.622,0.255 -3.821,1.054 -6.598,2.411c-2.776,1.35 -5.579,1.928 -8.42,1.742V37.529z" id="path_8"/><path fill="#008146" d="M33.311,20.882c2.128,1.13 3.198,2.102 3.198,2.907c-1.019,2.121 -1.622,3.202 -1.829,3.229h-0.305c-1.557,-0.833 -2.517,-1.591 -2.887,-2.259C31.845,23.534 32.455,22.239 33.311,20.882z" id="path_9"/><path fill="#008146" d="M39.643,44.348c0.156,-0.09 0.201,0.055 0.136,0.447c-0.863,2.149 -2.186,3.65 -3.97,4.497l-6.559,3.493c-0.279,-0.083 -0.331,-0.324 -0.156,-0.724c0.876,-1.791 1.473,-2.852 1.791,-3.188L39.643,44.348z" id="path_10"/><path fill="#D50000" d="M26.332,42.067c-1.473,0.015 -2.686,-0.784 -3.652,-2.396H22.53c-0.714,2.687 -1.778,4.573 -3.192,5.647c-2.004,2.046 -4.184,3.065 -6.539,3.065h-0.915c-2.685,0 -5.066,-1.612 -7.142,-4.842c-0.812,-1.481 -1.22,-3.203 -1.22,-5.166c0,-2.769 1.317,-5.564 3.957,-8.389c1.375,-0.93 1.784,-0.874 1.213,0.158c-2.329,3.444 -3.497,5.813 -3.497,7.102c0,3.34 2.329,5.544 6.993,6.618h1.22c2.607,0 5.189,-1.398 7.752,-4.194c0.266,-0.889 0.317,-1.859 0.149,-2.906c-0.506,-2.286 -1.265,-8.1 -2.277,-17.432l0.909,-3.23c0.143,-0.027 0.292,-0.027 0.46,0c0.279,0 0.785,4.091 1.518,12.267c0.506,4.305 1.115,6.997 1.823,8.071c0.623,0.73 1.485,1.067 2.588,1.026V42.067z" id="path_11"/><path fill="#D50000" d="M18.288,14.787c0.156,-0.097 0.201,0.055 0.136,0.447c-0.863,2.149 -2.186,3.65 -3.97,4.498l-6.558,3.492c-0.279,-0.083 -0.331,-0.324 -0.156,-0.73c0.876,-1.791 1.473,-2.852 1.791,-3.189L18.288,14.787z" id="path_12"/><path fill="#f26122" d="M71,25.524c-0.546,-0.842 -1.444,-2.238 -2.58,-2.238c-0.928,0 -1.535,1.639 -1.535,2.659c0,0.077 0,0.15 0.009,0.217c-0.255,0.253 -0.73,0.712 -0.73,2.029c0,0.354 0.036,0.765 0.124,1.263c0.3,1.735 0.618,3.595 0.618,5.167c0,0.296 -0.009,0.504 -0.009,0.708c0,0.299 0.018,0.401 0.096,0.401c0.159,0 0.459,-0.673 0.538,-1.82c0.018,-0.253 0.018,-0.523 0.018,-0.766c0,-2.721 -0.598,-4.887 -0.598,-5.448c0.048,-0.43 1.315,-0.701 2.355,-0.701c0.501,0 0.775,0.073 0.967,0.131c0.018,0.009 0.069,0.02 0.087,0.02c0.036,0 0.063,-0.02 0.105,-0.067c0.246,-0.29 0.486,-0.935 0.546,-1.413C71.024,25.592 71.015,25.554 71,25.524L71,25.524zM68.966,25.433c-0.361,0.028 -1.084,0.102 -1.472,0.373c0.081,-0.335 0.24,-0.778 0.625,-0.778C68.464,25.027 68.72,25.184 68.966,25.433z" id="path_13"/></svg>