<svg id="vector" xmlns="http://www.w3.org/2000/svg" width="99" height="67" viewBox="0 0 99.179 67"><path fill="#000002" d="M79.877,31.968c0.22,0 0.448,0 0.688,0h0.166c2.011,-0.124 3.843,-1.798 5.482,-5.021c1.777,-2.692 3.609,-4.035 5.489,-4.035c2.37,0 3.554,1.501 3.554,4.518v0.806c0,1.481 -0.592,3.416 -1.777,5.813l-1.13,0.806c-0.998,0 -3.306,-0.702 -6.942,-2.101c-1.102,1.653 -1.963,2.658 -2.583,3.01c-0.944,0.654 -1.908,0.93 -2.907,0.806h-0.041V31.968L79.877,31.968zM87.99,28.559v0.158c2.796,1.081 4.47,1.618 5.007,1.618c0.213,0 0.324,-0.165 0.324,-0.488c-0.62,-1.612 -1.646,-2.418 -3.072,-2.418C89.257,27.429 88.5,27.808 87.99,28.559z" id="path_0"/><path fill="#000002" d="M93.011,39.027c0.165,-0.09 0.213,0.055 0.144,0.447c-0.916,2.149 -2.321,3.65 -4.215,4.498l-6.963,3.492c-0.296,-0.083 -0.351,-0.324 -0.165,-0.724c0.93,-1.791 1.563,-2.852 1.901,-3.188L93.011,39.027z" id="path_1"/><path fill="#f26122" d="M65.999,32.271c1.591,0.51 2.824,1.157 3.712,1.936v0.324c0,0.536 -0.592,1.722 -1.777,3.554c-1.102,0 -2.335,-0.593 -3.712,-1.777v-0.323C64.222,34.826 64.814,33.593 65.999,32.271z" id="path_2"/><path fill="#f26122" d="M80.228,36.507c-1.467,0 -2.604,-0.228 -3.416,-0.682c-0.4,3.498 -1.15,5.916 -2.259,7.266c-2.659,3.334 -5.406,5 -8.23,5c-5.193,0 -8.582,-2.259 -10.173,-6.777c-0.316,-0.86 -0.481,-1.776 -0.481,-2.748v-1.287c0,-3.823 1.184,-6.833 3.554,-9.044c0.427,0.166 0.647,0.537 0.647,1.13l-2.583,4.684l-0.165,1.611c0,3.637 1.99,6.164 5.971,7.59l4.201,0.324c1.77,0 3.981,-1.026 6.619,-3.065c0.964,-1.563 1.453,-2.692 1.453,-3.396c-0.11,-1.074 -0.813,-2.631 -2.1,-4.677V29.04l0.482,-0.481c1.171,2.355 3.333,3.492 6.481,3.409V36.507z" id="path_3"/><path fill="#f26122" d="M66.021,11.727h1.598c1.935,0 2.906,0.723 2.906,2.176c-1.253,3.389 -2.775,5.187 -4.566,5.393l-2.114,0.282c-0.337,0 -0.475,-0.096 -0.427,-0.282c1.708,-0.902 3.306,-1.977 4.787,-3.209c-0.523,-0.489 -1.102,-0.73 -1.736,-0.73h-0.448L64.285,15.5l-0.138,-0.145v-0.282C64.967,12.842 65.594,11.727 66.021,11.727z" id="path_4"/><path fill="#000002" d="M43.979,43.146c0.551,0 1.839,0.647 3.871,1.942c0,0.806 -0.641,2.094 -1.936,3.871c-2.583,-0.834 -3.871,-1.584 -3.871,-2.259C42.106,46.094 42.754,44.909 43.979,43.146z" id="path_5"/><path fill="#000002" d="M40.102,36.065c4.229,0.042 6.591,-0.75 7.108,-2.383c0,-0.564 -0.538,-1.963 -1.619,-4.194l0.489,-4.194h0.317c1.405,2.417 2.101,4.842 2.101,7.259v1.454c0,0.971 -0.234,1.99 -0.696,3.058s-1.178,1.97 -2.135,2.692c-0.964,0.73 -2.816,1.033 -5.565,0.909V36.065z" id="path_6"/><path fill="#000002" d="M50.578,13.992c0.166,-0.097 0.213,0.055 0.145,0.447c-0.916,2.148 -2.321,3.65 -4.215,4.497l-6.963,3.492c-0.296,-0.083 -0.351,-0.323 -0.166,-0.73c0.93,-1.791 1.563,-2.851 1.901,-3.188L50.578,13.992z" id="path_7"/><path fill="#D50000" d="M40.784,40.666c-0.104,0 -0.213,0 -0.317,0h-1.454c-1.453,0 -3.126,-0.916 -5.006,-2.741c-3.23,1.771 -6.715,2.687 -10.456,2.741v-4.58c1.956,0.131 4.47,-0.275 7.549,-1.232v-0.158c-1.481,-0.972 -2.879,-1.453 -4.194,-1.453L25.611,33.4l-0.324,-0.806c0.434,-2.907 1.673,-4.36 3.712,-4.36l2.583,-0.158c4.091,0.482 6.137,1.398 6.137,2.741v0.647l-0.971,3.23c0.785,0.95 2.128,1.412 4.036,1.37V40.666z" id="path_8"/><path fill="#D50000" d="M31.769,14.115h1.598c1.935,0 2.907,0.724 2.907,2.177c-1.253,3.389 -2.776,5.187 -4.567,5.393l-2.114,0.282c-0.337,0 -0.475,-0.096 -0.427,-0.282c1.708,-0.901 3.306,-1.977 4.787,-3.209c-0.523,-0.489 -1.102,-0.73 -1.735,-0.73h-0.448l-1.735,0.145l-0.138,-0.145v-0.282C30.715,15.231 31.341,14.115 31.769,14.115z" id="path_9"/><path fill="#203e96" d="M24.378,40.688c-2.769,-0.187 -5.282,-1.701 -7.542,-4.539h-0.165c-0.964,5.593 -3.12,8.389 -6.454,8.396H9.729c-1.446,-0.007 -2.852,-1.295 -4.194,-3.878c-1.075,-3.63 -1.612,-6.377 -1.612,-8.23v-1.295c0,-0.806 0.158,-1.239 0.482,-1.287c0.455,0.241 0.999,2.004 1.625,5.296c0.627,3.285 1.915,4.855 3.864,4.711c3.768,-0.619 5.758,-2.775 5.972,-6.46l-1.454,-5v-1.777c0.056,-2.156 0.269,-3.23 0.647,-3.23c0.214,0.482 0.379,0.972 0.482,1.453l2.259,7.102c1.777,2.879 3.974,4.242 6.578,4.077V40.688z" id="path_10"/><path fill="#203e96" d="M17.099,46.837c0.165,-0.089 0.213,0.056 0.145,0.448c-0.917,2.148 -2.321,3.65 -4.215,4.497l-6.963,3.492c-0.296,-0.083 -0.351,-0.324 -0.166,-0.724c0.93,-1.79 1.563,-2.851 1.901,-3.188L17.099,46.837z" id="path_11"/><path fill="#f26122" d="M69.135,23.088c-0.492,-0.714 -1.301,-1.898 -2.323,-1.898c-0.836,0 -1.382,1.39 -1.382,2.255c0,0.065 0,0.127 0.008,0.185c-0.23,0.213 -0.658,0.603 -0.658,1.72c0,0.301 0.033,0.649 0.111,1.071c0.271,1.471 0.557,3.048 0.557,4.381c0,0.252 -0.008,0.428 -0.008,0.601c0,0.254 0.016,0.341 0.086,0.341c0.144,0 0.414,-0.57 0.484,-1.544c0.016,-0.214 0.016,-0.444 0.016,-0.649c0,-2.307 -0.538,-4.144 -0.538,-4.619c0.043,-0.365 1.185,-0.595 2.12,-0.595c0.452,0 0.698,0.062 0.871,0.11c0.016,0.008 0.062,0.017 0.078,0.017c0.033,0 0.057,-0.017 0.095,-0.058c0.222,-0.246 0.438,-0.792 0.492,-1.197C69.157,23.145 69.149,23.112 69.135,23.088L69.135,23.088zM67.304,23.009c-0.325,0.024 -0.976,0.087 -1.325,0.316c0.073,-0.283 0.216,-0.659 0.563,-0.659C66.853,22.666 67.083,22.798 67.304,23.009z" id="path_12"/></svg>