<svg id="vector" xmlns="http://www.w3.org/2000/svg" width="76" height="67" viewBox="0 0 76.257 67"><path fill="#000002" d="M43.229,39.698c0.221,0 0.448,0 0.689,0h0.166c2.011,-0.124 3.843,-1.798 5.482,-5.021c1.776,-2.693 3.608,-4.036 5.489,-4.036c2.369,0 3.553,1.502 3.553,4.519v0.806c0,1.48 -0.592,3.416 -1.776,5.813l-1.13,0.806c-0.999,0 -3.306,-0.702 -6.942,-2.101c-1.102,1.653 -1.963,2.659 -2.583,3.01c-0.943,0.654 -1.908,0.93 -2.906,0.806h-0.042V39.698L43.229,39.698zM51.342,36.289v0.158c2.796,1.082 4.47,1.619 5.007,1.619c0.213,0 0.324,-0.166 0.324,-0.489c-0.621,-1.611 -1.646,-2.417 -3.072,-2.417C52.609,35.16 51.852,35.538 51.342,36.289z" id="path_0"/><path fill="#000002" d="M56.363,46.758c0.166,-0.09 0.214,0.055 0.145,0.448c-0.917,2.148 -2.321,3.65 -4.215,4.497l-6.963,3.492c-0.296,-0.083 -0.351,-0.324 -0.165,-0.724c0.93,-1.79 1.563,-2.852 1.901,-3.188L56.363,46.758z" id="path_1"/><path fill="#e21171" d="M43.312,44.299c-0.172,0 -0.358,0 -0.544,0h-0.159c-1.563,-0.014 -3.071,-0.289 -4.525,-0.826c-1.557,2.693 -3.602,4.036 -6.13,4.036c-3.017,-0.434 -4.525,-1.667 -4.525,-3.712h-0.158c-0.51,1.722 -1.64,3.119 -3.389,4.194c-2.342,0.86 -4.174,1.294 -5.489,1.294l-0.744,0.097v-0.323c0.6,-0.496 2.225,-1.646 4.87,-3.45c2.645,-1.798 4.146,-2.928 4.498,-3.389c0.358,-0.455 0.875,-1.978 1.549,-4.56c1.288,-2.149 2.473,-3.23 3.547,-3.23h0.324c1.343,0 3.499,1.453 6.46,4.359c0.86,0.73 2.328,1.054 4.415,0.972V44.299L43.312,44.299zM29.372,39.919c0,1.426 1.129,2.396 3.389,2.906h0.806c1.832,-0.186 2.748,-0.454 2.748,-0.806c-2.128,-2.046 -3.74,-3.065 -4.849,-3.065h-0.159C30.391,38.954 29.744,39.278 29.372,39.919z" id="path_2"/><path fill="#e21171" d="M33.263,20.71c0.296,0.51 0.641,1.963 1.033,4.359c-0.241,1.453 -0.875,2.177 -1.901,2.177h-0.138c-0.448,0 -1.026,-0.289 -1.756,-0.868c-0.496,0.875 -1.226,1.316 -2.177,1.316c-1.157,0 -1.735,-1.405 -1.735,-4.216c0.337,-1.067 0.627,-1.598 0.868,-1.598l0.138,0.145v2.479c0.199,0.861 0.448,1.288 0.729,1.288h0.585c0.606,0 0.992,-0.241 1.171,-0.724l-0.303,-2.176c0.117,-0.73 0.317,-1.116 0.585,-1.15h0.303c0.303,2.417 0.792,3.63 1.446,3.63h1.013v-0.146l-0.441,-2.899v-0.165C32.801,21.192 32.994,20.71 33.263,20.71z" id="path_3"/><path fill="#e21171" d="M35.708,11.832c0.165,-0.097 0.213,0.056 0.145,0.448c-0.917,2.148 -2.321,3.649 -4.215,4.497l-6.963,3.492c-0.296,-0.083 -0.351,-0.324 -0.165,-0.73c0.93,-1.791 1.563,-2.852 1.901,-3.188L35.708,11.832z" id="path_4"/></svg>