<svg id="vector" xmlns="http://www.w3.org/2000/svg" width="174" height="67" viewBox="0 0 174.112 67"><path fill="#000002" d="M144.924,37.361c0.221,0 0.447,0 0.688,0h0.165c2.012,-0.124 3.844,-1.798 5.482,-5.021c1.777,-2.693 3.609,-4.036 5.489,-4.036c2.369,0 3.554,1.502 3.554,4.519v0.806c0,1.48 -0.592,3.416 -1.776,5.813l-1.13,0.806c-0.999,0 -3.306,-0.703 -6.942,-2.101c-1.102,1.652 -1.963,2.658 -2.583,3.01c-0.943,0.654 -1.908,0.93 -2.906,0.806h-0.041V37.361L144.924,37.361zM153.037,33.951v0.159c2.796,1.081 4.47,1.618 5.007,1.618c0.214,0 0.324,-0.165 0.324,-0.489c-0.62,-1.611 -1.646,-2.417 -3.072,-2.417C154.304,32.822 153.547,33.201 153.037,33.951z" id="path_0"/><path fill="#000002" d="M153.787,12.684c1.653,0 2.479,1.02 2.479,3.051c0,3.237 -2.762,5.999 -8.292,8.271c-0.792,0.241 -0.889,-0.048 -0.282,-0.867c0.151,-0.311 1.453,-1.281 3.912,-2.907v-0.138c-1.061,-0.434 -1.591,-1.356 -1.591,-2.769c0.702,-3.092 1.818,-4.642 3.347,-4.642H153.787L153.787,12.684zM151.322,16.175c0,0.861 0.729,1.392 2.183,1.599h0.282c0.538,0 0.882,-0.2 1.026,-0.586c0,-0.874 -0.634,-1.557 -1.894,-2.039C152.369,15.148 151.839,15.493 151.322,16.175z" id="path_1"/><path fill="#203e96" d="M145.605,41.962c-0.104,0 -0.213,0 -0.316,0h-1.454c-1.453,0 -3.127,-0.916 -5.007,-2.741c-3.23,1.77 -6.715,2.686 -10.455,2.741v-4.58c1.956,0.131 4.47,-0.275 7.549,-1.233V35.99c-1.48,-0.971 -2.879,-1.453 -4.194,-1.453l-1.295,0.158l-0.324,-0.806c0.435,-2.906 1.674,-4.359 3.713,-4.359l2.582,-0.159c4.092,0.482 6.138,1.398 6.138,2.741v0.648l-0.972,3.229c0.785,0.95 2.128,1.412 4.036,1.371V41.962z" id="path_2"/><path fill="#203e96" d="M136.59,15.411h1.598c1.936,0 2.906,0.723 2.906,2.176c-1.253,3.389 -2.775,5.187 -4.566,5.394l-2.114,0.282c-0.337,0 -0.475,-0.097 -0.427,-0.282c1.708,-0.902 3.306,-1.978 4.787,-3.21c-0.523,-0.489 -1.103,-0.73 -1.736,-0.73h-0.447l-1.735,0.146l-0.138,-0.146v-0.282C135.536,16.526 136.163,15.411 136.59,15.411z" id="path_3"/><path fill="#D50000" d="M117.671,24.027c0.668,0 1.852,0.806 3.547,2.417c0,0.537 -0.641,1.722 -1.936,3.554h-0.324c-0.675,0 -1.694,-0.646 -3.064,-1.941v-0.159C115.894,27.25 116.485,25.962 117.671,24.027z" id="path_4"/><path fill="#D50000" d="M123.477,23.214c2.693,1.157 4.036,2.073 4.036,2.748c-0.158,0.51 -0.909,1.64 -2.259,3.39c-1.805,-0.703 -3.093,-1.509 -3.871,-2.425C121.947,25.129 122.643,23.89 123.477,23.214z" id="path_5"/><path fill="#D50000" d="M114.818,37.361c1.15,0.014 1.86,-0.007 2.143,-0.063c2.424,-0.736 4.077,-2.308 4.966,-4.697c0.131,-0.461 0.399,-0.517 0.806,-0.165c0.214,0.186 0.379,0.943 0.482,2.259c1.467,1.977 3.299,2.865 5.489,2.666h0.427v4.601h-0.104c-3.43,-0.158 -5.957,-1.722 -7.59,-4.684h-0.158c-1.144,2.411 -2.651,3.892 -4.518,4.442c-0.565,0.158 -1.213,0.241 -1.943,0.241V37.361z" id="path_6"/><path fill="#D50000" d="M127.292,11.513c0.165,-0.097 0.214,0.055 0.145,0.447c-0.916,2.149 -2.321,3.65 -4.215,4.498l-6.963,3.491c-0.297,-0.082 -0.352,-0.323 -0.166,-0.729c0.931,-1.791 1.563,-2.852 1.901,-3.188L127.292,11.513z" id="path_7"/><path fill="#000002" d="M115.28,41.982c-2.769,-0.186 -5.282,-1.701 -7.542,-4.539h-0.165c-0.964,5.593 -3.119,8.389 -6.453,8.396h-0.489c-1.446,-0.007 -2.852,-1.294 -4.194,-3.877c-1.074,-3.63 -1.611,-6.378 -1.611,-8.23v-1.295c0,-0.806 0.158,-1.239 0.481,-1.288c0.455,0.241 0.999,2.005 1.626,5.297c0.627,3.285 1.914,4.855 3.863,4.711c3.768,-0.62 5.758,-2.775 5.972,-6.461l-1.453,-5v-1.777c0.055,-2.155 0.269,-3.229 0.647,-3.229c0.214,0.482 0.379,0.971 0.481,1.453l2.26,7.101c1.777,2.879 3.974,4.243 6.577,4.077V41.982z" id="path_8"/><path fill="#000002" d="M108.827,51.989l0.165,0.146v0.44c-0.833,1.791 -1.997,3.044 -3.492,3.774c-4.628,2.514 -7.197,3.774 -7.707,3.774c-0.186,0 -0.282,-0.152 -0.282,-0.448c0.441,-1.708 1.412,-2.865 2.906,-3.471l8.272,-4.216H108.827z" id="path_9"/><path fill="#000002" d="M107.677,48.36c0.192,0 0.282,0.138 0.282,0.42c-0.537,1.563 -2.128,2.969 -4.779,4.222l-6.116,3.348l-0.138,-0.145v-0.159c0.578,-2.045 1.501,-3.306 2.762,-3.773l6.825,-3.492L107.677,48.36z" id="path_10"/><path fill="#000002" d="M76.141,14.84c0.323,0 0.647,1.081 0.971,3.229l1.453,3.23l-0.647,3.712l0.482,9.043v1.446c-0.214,3.692 -0.751,5.841 -1.611,6.461l-0.159,-0.158l0.159,-2.425c0,-2.177 -0.703,-9.119 -2.101,-20.82C75.362,16.079 75.844,14.84 76.141,14.84z" id="path_11"/><path fill="#000002" d="M80.962,5.396c0.165,-0.097 0.213,0.055 0.145,0.447c-0.917,2.149 -2.321,3.65 -4.215,4.498l-6.964,3.492c-0.296,-0.083 -0.351,-0.324 -0.165,-0.73c0.93,-1.791 1.563,-2.852 1.9,-3.188L80.962,5.396z" id="path_12"/><path fill="#D50000" d="M60.657,19.667c0.668,0 1.853,0.807 3.547,2.418c0,0.537 -0.641,1.722 -1.936,3.554h-0.323c-0.669,0 -1.695,-0.647 -3.065,-1.936v-0.165C58.88,22.891 59.472,21.603 60.657,19.667z" id="path_13"/><path fill="#D50000" d="M66.47,18.861c2.687,1.15 4.029,2.066 4.029,2.741c-0.159,0.51 -0.909,1.64 -2.259,3.389c-1.798,-0.695 -3.093,-1.509 -3.871,-2.417C64.935,20.77 65.63,19.529 66.47,18.861z" id="path_14"/><path fill="#D50000" d="M62.592,14.178c2.473,1.02 3.713,1.881 3.713,2.583l-2.101,3.23h-0.159c-0.454,0 -1.693,-0.647 -3.712,-1.942C61.325,15.466 62.082,14.178 62.592,14.178z" id="path_15"/><path fill="#D50000" d="M59.906,37.361c4.229,0.041 6.591,-0.751 7.107,-2.384c0,-0.564 -0.537,-1.963 -1.618,-4.194l0.489,-4.194h0.316c1.405,2.418 2.101,4.842 2.101,7.26v1.453c0,0.971 -0.234,1.99 -0.695,3.058c-0.462,1.067 -1.178,1.97 -2.136,2.693c-0.964,0.729 -2.816,1.033 -5.564,0.909V37.361z" id="path_16"/><path fill="#D50000" d="M75.644,43.993c0.166,-0.09 0.214,0.056 0.145,0.448c-0.916,2.148 -2.32,3.65 -4.215,4.497l-6.963,3.492c-0.296,-0.083 -0.352,-0.324 -0.165,-0.723c0.93,-1.791 1.563,-2.852 1.9,-3.189L75.644,43.993z" id="path_17"/><path fill="#203e96" d="M56.642,43.091c1.674,0.676 2.906,1.426 3.72,2.26v0.165c-0.889,2.362 -1.591,3.547 -2.101,3.547c-0.406,0 -1.694,-0.647 -3.878,-1.936l-1.453,2.741c-2.796,-1.019 -4.194,-1.77 -4.194,-2.259c0.592,-2.204 1.185,-3.499 1.776,-3.871c0.455,0 1.853,0.696 4.194,2.101C55.595,44.007 56.242,43.091 56.642,43.091z" id="path_18"/><path fill="#203e96" d="M45.746,37.361H46.8c2.094,-0.173 3.657,-1.006 4.677,-2.501l0.165,-0.488l-0.482,-2.418c0.104,-2.583 0.372,-3.877 0.806,-3.877c1.289,4.545 2.528,7.32 3.713,8.313c1.02,0.579 2.418,0.896 4.194,0.95c0.476,0 0.916,0 1.336,0v4.622c-0.53,0 -1.081,0 -1.66,0H59.39c-3.092,0 -5.462,-1.722 -7.101,-5.166v-0.158l-1.453,2.899c-1.103,1.633 -2.721,2.438 -4.842,2.425h-0.248V37.361z" id="path_19"/><path fill="#203e96" d="M50.064,15.046h1.599c1.935,0 2.906,0.724 2.906,2.177c-1.254,3.389 -2.776,5.186 -4.566,5.393l-2.115,0.282c-0.337,0 -0.475,-0.097 -0.427,-0.282c1.708,-0.902 3.307,-1.977 4.787,-3.21c-0.523,-0.489 -1.103,-0.729 -1.735,-0.729h-0.448l-1.735,0.145l-0.138,-0.145v-0.282C49.011,16.162 49.638,15.046 50.064,15.046z" id="path_20"/><path fill="#000002" d="M45.891,41.962c-0.172,0 -0.358,0 -0.544,0h-0.158c-1.563,-0.014 -3.072,-0.289 -4.525,-0.827c-1.557,2.693 -3.603,4.037 -6.13,4.037c-3.017,-0.435 -4.524,-1.667 -4.524,-3.713H29.85c-0.51,1.722 -1.639,3.12 -3.389,4.194c-2.341,0.861 -4.173,1.295 -5.489,1.295l-0.743,0.097v-0.324c0.599,-0.496 2.225,-1.646 4.869,-3.45c2.645,-1.798 4.146,-2.928 4.497,-3.389c0.358,-0.455 0.875,-1.977 1.55,-4.56c1.288,-2.148 2.473,-3.23 3.547,-3.23h0.324c1.343,0 3.499,1.454 6.46,4.36c0.861,0.729 2.328,1.054 4.415,0.971V41.962L45.891,41.962zM31.95,37.581c0,1.426 1.13,2.397 3.389,2.906h0.806c1.832,-0.186 2.748,-0.454 2.748,-0.806c-2.128,-2.045 -3.739,-3.064 -4.849,-3.064h-0.158C32.97,36.617 32.322,36.94 31.95,37.581z" id="path_21"/><path fill="#000002" d="M38.432,53.498l0.165,0.145v0.441c-0.84,1.79 -2.004,3.044 -3.491,3.773c-4.629,2.515 -7.197,3.774 -7.707,3.774c-0.193,0 -0.289,-0.151 -0.289,-0.447c0.447,-1.708 1.418,-2.865 2.906,-3.472l8.278,-4.215H38.432z" id="path_22"/><path fill="#000002" d="M37.281,49.868c0.187,0 0.282,0.138 0.282,0.421c-0.537,1.563 -2.128,2.968 -4.779,4.222l-6.116,3.347l-0.138,-0.145v-0.158c0.579,-2.045 1.494,-3.306 2.762,-3.774l6.818,-3.491L37.281,49.868z" id="path_23"/><path fill="#000002" d="M94.838,46.18h0.142c0.17,0 0.581,1.087 1.232,3.258l0.071,0.288c0,1.701 -0.411,2.934 -1.229,3.693c-1.158,1.253 -2.532,1.881 -4.125,1.881c-1.304,-0.291 -2.146,-0.578 -2.533,-0.868c-1.257,-1.075 -1.883,-2.402 -1.883,-3.98c0,-1.328 0.58,-2.582 1.738,-3.765l0.071,-0.071h0.145l0.146,0.143c0,0.123 -0.337,0.651 -1.013,1.594c-0.195,0.336 -0.315,0.796 -0.361,1.374c0,1.124 0.577,2.087 1.735,2.896c1.134,0.436 1.905,0.651 2.315,0.651c1.038,0 2.268,-0.46 3.69,-1.374c0.581,-0.51 0.871,-0.821 0.871,-0.941l-1.013,-2.823l-0.074,-0.506L94.838,46.18L94.838,46.18zM90.999,47.629c-0.229,0.24 -0.494,0.796 -0.793,1.664c0,0.3 0.627,0.664 1.88,1.084c0.531,-0.627 0.822,-1.134 0.868,-1.52v-0.146c-0.531,-0.564 -1.134,-0.929 -1.81,-1.083H90.999z" id="path_24"/><path fill="#000002" d="M22.136,49.485h0.142c0.17,0 0.581,1.088 1.232,3.259l0.071,0.287c0,1.701 -0.411,2.934 -1.229,3.693c-1.158,1.254 -2.532,1.881 -4.126,1.881c-1.303,-0.291 -2.146,-0.578 -2.532,-0.868c-1.257,-1.075 -1.884,-2.402 -1.884,-3.98c0,-1.328 0.581,-2.582 1.738,-3.765l0.071,-0.071h0.146l0.146,0.143c0,0.123 -0.337,0.651 -1.014,1.593c-0.194,0.337 -0.314,0.797 -0.361,1.375c0,1.124 0.578,2.087 1.736,2.896c1.133,0.436 1.905,0.651 2.315,0.651c1.038,0 2.267,-0.46 3.69,-1.374c0.581,-0.51 0.871,-0.821 0.871,-0.942l-1.013,-2.822l-0.074,-0.507L22.136,49.485L22.136,49.485zM18.297,50.934c-0.229,0.241 -0.494,0.797 -0.793,1.665c0,0.3 0.626,0.664 1.88,1.084c0.531,-0.627 0.821,-1.134 0.868,-1.52v-0.146c-0.531,-0.564 -1.134,-0.929 -1.81,-1.084H18.297z" id="path_25"/></svg>