<svg id="vector" xmlns="http://www.w3.org/2000/svg" width="174" height="67" viewBox="0 0 174.113 67"><path fill="#000002" d="M163.105,41.028c0.965,0.971 1.881,3.064 2.742,6.295l0.165,2.1c0,3.796 -1.888,6.379 -5.654,7.749l-1.13,0.158l-2.865,0.042l-2.782,-0.042l-0.159,-0.158v-0.165c0.345,-0.372 2.659,-1.502 6.937,-3.389c2.692,-1.529 4.146,-2.879 4.359,-4.036c-1.398,-2.982 -2.094,-4.704 -2.094,-5.165v-0.482C162.624,41.999 162.782,41.028 163.105,41.028z" id="path_0"/><path fill="#000002" d="M166.412,30.271c0.165,-0.098 0.214,0.055 0.145,0.447c-0.916,2.148 -2.321,3.65 -4.215,4.497l-6.964,3.491c-0.296,-0.082 -0.351,-0.322 -0.165,-0.729c0.93,-1.79 1.563,-2.851 1.901,-3.188L166.412,30.271z" id="path_1"/><path fill="#D50000" d="M132.746,47.55h0.063c2.5,-0.11 4.222,-1.315 5.166,-3.629c0,-0.324 0.213,-0.593 0.646,-0.813h0.324c0.214,0 0.323,0.165 0.323,0.489l-0.165,0.965c0.916,1.617 1.887,2.424 2.906,2.424h0.806c1.398,0 2.479,-1.398 3.23,-4.194h0.165c0.159,0.021 0.428,0.668 0.807,1.935c0.915,0.807 1.824,1.289 2.741,1.453c1.074,0 1.618,-0.646 1.618,-1.935c0.104,-2.046 0.316,-3.071 0.641,-3.071c0.434,0.915 0.647,2.045 0.647,3.389c0,3.987 -0.972,5.978 -2.906,5.978c-1.509,0 -2.741,-0.758 -3.713,-2.267h-0.324c-0.667,2.156 -1.749,3.23 -3.229,3.23h-0.158c-1.316,0 -2.824,-1.02 -4.519,-3.064c-1.426,2.473 -3.044,3.713 -4.842,3.713h-0.228V47.55z" id="path_2"/><path fill="#D50000" d="M145.116,25.331c1.653,0 2.479,1.02 2.479,3.051c0,3.238 -2.762,6 -8.293,8.272c-0.792,0.241 -0.888,-0.049 -0.282,-0.868c0.151,-0.311 1.453,-1.281 3.912,-2.906v-0.138c-1.061,-0.435 -1.591,-1.356 -1.591,-2.769c0.702,-3.093 1.818,-4.643 3.348,-4.643H145.116L145.116,25.331zM142.65,28.823c0,0.861 0.73,1.391 2.184,1.598h0.282c0.537,0 0.882,-0.199 1.026,-0.586c0,-0.874 -0.634,-1.557 -1.895,-2.038C143.697,27.797 143.167,28.142 142.65,28.823z" id="path_3"/><path fill="#203e96" d="M133.456,52.151l-1.818,-0.021c-1.006,4.429 -3.671,6.667 -7.989,6.723c-2.314,0.104 -3.472,0.062 -3.472,-0.124c0.214,-0.407 1.764,-1.185 4.642,-2.343c2.962,-1.88 4.746,-3.092 5.366,-3.629l0.165,-0.482l-2.824,-0.447c-2.06,-0.537 -3.216,-1.57 -3.471,-3.106v-0.323c0,-2.611 0.641,-4.277 1.936,-5.008l0.971,-0.158c1.908,0 3.464,1.33 4.677,3.994c0.771,0.27 1.378,0.4 1.818,0.387V52.151z" id="path_4"/><path fill="#203e96" d="M125.969,29.952h1.599c1.935,0 2.906,0.724 2.906,2.178c-1.254,3.388 -2.776,5.186 -4.566,5.393l-2.114,0.281c-0.338,0 -0.476,-0.096 -0.428,-0.281c1.709,-0.902 3.307,-1.977 4.787,-3.21c-0.523,-0.489 -1.103,-0.73 -1.735,-0.73h-0.448l-1.735,0.146l-0.138,-0.146V33.3C124.915,31.068 125.542,29.952 125.969,29.952z" id="path_5"/><path fill="#000002" d="M115.293,21.922c0.297,0 0.51,0.806 0.647,2.425l1.612,2.74v0.166c0,0.723 -0.324,2.018 -0.972,3.871l0.972,10.979v3.87c-0.352,2.239 -1.64,4.442 -3.878,6.618c-2.231,1.723 -4.222,2.584 -5.972,2.584h-0.964c-4.684,0 -7.7,-2.314 -9.043,-6.936l-0.324,-2.907c0,-2.989 1.296,-5.627 3.878,-7.913h0.158l0.324,0.323c0,0.593 -0.751,2.046 -2.26,4.36c-0.323,0.833 -0.481,1.584 -0.481,2.259v0.165c0,2.741 2.204,4.731 6.618,5.971l1.936,0.159h0.324c3.12,0 5.86,-1.453 8.23,-4.36l0.158,-0.481c-1.288,-11.247 -1.936,-18.135 -1.936,-20.663v-0.322C114.322,23.644 114.646,22.68 115.293,21.922z" id="path_6"/><path fill="#000002" d="M109.48,18.396c1.233,0 1.963,0.82 2.177,2.459v0.447c-0.228,2.742 -1.144,4.532 -2.741,5.365c-2.782,1.75 -5.311,2.625 -7.569,2.625c-0.083,-0.014 -0.158,-0.035 -0.241,-0.063s-0.145,-0.068 -0.193,-0.124c-0.048,-0.048 -0.041,-0.083 0.015,-0.097c0.117,-0.269 2.148,-1.342 6.088,-3.209v-0.145c-1.061,-0.668 -1.591,-1.592 -1.591,-2.762C106.058,19.891 107.407,18.396 109.48,18.396L109.48,18.396zM106.877,21.44v0.137c0,0.999 0.682,1.584 2.039,1.757h0.42c0.517,0 0.806,-0.145 0.868,-0.44c0,-1.357 -0.724,-2.039 -2.177,-2.039C107.263,21.026 106.877,21.226 106.877,21.44z" id="path_7"/><path fill="#000002" d="M106.292,15.771c0.31,-0.151 0.454,-0.048 0.44,0.304c-1.557,1.721 -2.782,3.354 -3.671,4.903c-0.255,0.606 -0.399,1.102 -0.434,1.501c-0.035,0.4 0.068,0.827 0.316,1.281h0.303c0.118,-0.675 0.358,-1.012 0.724,-1.012c0.434,0.192 0.675,0.385 0.724,0.585v0.282c0.027,1.536 -0.407,2.459 -1.31,2.77h-0.723c-0.971,-0.193 -1.453,-1.309 -1.453,-3.354C101.209,20.544 102.903,18.127 106.292,15.771z" id="path_8"/><path fill="#e21171" d="M76.621,43.452c0.221,0 0.447,0 0.688,0h0.166c2.011,-0.124 3.843,-1.798 5.481,-5.021c1.777,-2.693 3.609,-4.035 5.489,-4.035c2.369,0 3.554,1.501 3.554,4.518v0.806c0,1.481 -0.592,3.417 -1.776,5.813l-1.13,0.806c-0.998,0 -3.306,-0.702 -6.942,-2.101c-1.102,1.652 -1.963,2.658 -2.583,3.01c-0.943,0.654 -1.907,0.93 -2.906,0.806h-0.041V43.452L76.621,43.452zM84.734,40.042V40.2c2.796,1.082 4.47,1.619 5.007,1.619c0.214,0 0.324,-0.165 0.324,-0.488c-0.62,-1.612 -1.646,-2.418 -3.072,-2.418C86.001,38.913 85.244,39.292 84.734,40.042z" id="path_9"/><path fill="#e21171" d="M87.131,21.274c0.297,0.51 0.641,1.963 1.033,4.359c-0.241,1.453 -0.875,2.177 -1.901,2.177h-0.138c-0.447,0 -1.025,-0.289 -1.756,-0.868c-0.496,0.875 -1.226,1.316 -2.177,1.316c-1.157,0 -1.735,-1.405 -1.735,-4.216c0.338,-1.067 0.627,-1.598 0.868,-1.598l0.138,0.145v2.479c0.199,0.861 0.447,1.288 0.729,1.288h0.586c0.605,0 0.991,-0.241 1.171,-0.724l-0.304,-2.176c0.117,-0.73 0.317,-1.116 0.586,-1.15h0.303c0.303,2.418 0.792,3.629 1.446,3.629h1.013v-0.145l-0.441,-2.898v-0.166C86.669,21.757 86.862,21.274 87.131,21.274z" id="path_10"/><path fill="#e21171" d="M89.755,50.512c0.165,-0.09 0.214,0.056 0.145,0.447c-0.916,2.149 -2.321,3.65 -4.215,4.497l-6.963,3.492c-0.296,-0.082 -0.352,-0.323 -0.166,-0.723c0.931,-1.791 1.563,-2.852 1.901,-3.189L89.755,50.512z" id="path_11"/><path fill="#000002" d="M62.742,43.755c1.592,0.51 2.824,1.157 3.713,1.936v0.324c0,0.537 -0.593,1.721 -1.777,3.553c-1.102,0 -2.334,-0.592 -3.712,-1.776v-0.323C60.966,46.31 61.558,45.077 62.742,43.755z" id="path_12"/><path fill="#000002" d="M76.972,47.991c-1.467,0 -2.604,-0.229 -3.416,-0.682c-0.399,3.498 -1.15,5.916 -2.259,7.266c-2.659,3.334 -5.406,5 -8.23,5c-5.193,0 -8.581,-2.259 -10.173,-6.777c-0.316,-0.86 -0.481,-1.777 -0.481,-2.748v-1.287c0,-3.823 1.184,-6.833 3.554,-9.043c0.427,0.164 0.647,0.536 0.647,1.129l-2.583,4.684l-0.165,1.611c0,3.637 1.99,6.164 5.971,7.59l4.201,0.324c1.771,0 3.981,-1.026 6.619,-3.065c0.965,-1.563 1.453,-2.692 1.453,-3.396c-0.11,-1.074 -0.813,-2.631 -2.101,-4.676v-3.396l0.482,-0.482c1.171,2.356 3.333,3.492 6.48,3.41V47.991z" id="path_13"/><path fill="#000002" d="M68.831,25.759c0.166,-0.097 0.214,0.055 0.145,0.447c-0.916,2.148 -2.32,3.65 -4.215,4.498l-6.963,3.491c-0.296,-0.083 -0.352,-0.323 -0.166,-0.729c0.931,-1.791 1.563,-2.852 1.901,-3.189L68.831,25.759z" id="path_14"/><path fill="#D50000" d="M45.965,25.028c0.324,0 0.647,1.081 0.971,3.23l1.453,3.229L47.741,35.2l0.482,9.044v1.446c-0.213,3.691 -0.75,5.84 -1.611,6.461l-0.158,-0.159l0.158,-2.425c0,-2.176 -0.703,-9.119 -2.101,-20.82C45.187,26.269 45.669,25.028 45.965,25.028z" id="path_15"/><path fill="#008146" d="M33.926,47.529c0.186,0.014 0.386,0.021 0.605,0.021h1.529c1.618,-0.268 2.852,-0.834 3.712,-1.694l-1.936,-15.338c0.482,-2.907 0.916,-4.353 1.288,-4.353l2.101,4.842c0,0.75 -0.269,1.88 -0.806,3.389l0.806,8.712v2.425c-0.605,2.568 -1.418,4.366 -2.438,5.386c-0.771,0.819 -1.674,1.233 -2.728,1.233h-1.371c-0.269,0 -0.523,-0.008 -0.764,-0.021V47.529z" id="path_16"/><path fill="#008146" d="M23.271,47.55c0.027,0 0.062,0 0.097,0c2.583,-0.158 4.063,-1.315 4.442,-3.471c-0.971,-6.453 -1.453,-10.979 -1.453,-13.562c0,-0.992 0.434,-2.287 1.295,-3.871l0.158,0.159l0.323,0.323l-0.165,1.13c0.138,7.252 1.054,12.872 2.748,16.867c0.647,1.453 2.231,2.266 4.76,2.424v4.602c-3.472,-0.056 -5.807,-1.881 -7.019,-5.49h-0.166c-1.115,3.616 -2.789,5.448 -5.021,5.49V47.55z" id="path_17"/><path fill="#008146" d="M30.31,17.403c0.296,0.51 0.641,1.964 1.033,4.36c-0.241,1.453 -0.875,2.177 -1.901,2.177h-0.138c-0.447,0 -1.026,-0.289 -1.757,-0.868c-0.495,0.875 -1.226,1.315 -2.176,1.315c-1.157,0 -1.735,-1.405 -1.735,-4.215c0.337,-1.068 0.627,-1.598 0.867,-1.598l0.138,0.145v2.479c0.2,0.86 0.448,1.288 0.73,1.288h0.585c0.606,0 0.992,-0.242 1.171,-0.724l-0.303,-2.177c0.117,-0.729 0.317,-1.115 0.585,-1.149h0.304c0.303,2.417 0.792,3.63 1.446,3.63h1.013v-0.145l-0.441,-2.9v-0.165C29.848,17.886 30.041,17.403 30.31,17.403z" id="path_18"/><path fill="#000002" d="M23.711,52.151H23.67c-3.093,0 -5.193,-1.509 -6.295,-4.52l-0.324,-1.294h-0.323c-0.241,0.86 -1.963,1.397 -5.166,1.618h-0.806c-2.155,0 -3.229,-0.646 -3.229,-1.941v-1.453c0,-1.557 1.184,-3.492 3.554,-5.807c1.425,-1.082 3.037,-1.99 4.841,-2.748l-0.165,-0.482c0.593,-2.693 1.082,-4.036 1.453,-4.036c0.193,0.455 0.462,3.796 0.813,10.008c0.481,4.188 2.376,6.22 5.688,6.116V52.151L23.711,52.151zM9.461,42.791c0.62,0.427 1.646,0.641 3.072,0.641c1.397,-0.104 2.686,-0.372 3.87,-0.806l-0.323,-4.52h-0.159C11.617,40.153 9.461,41.71 9.461,42.791z" id="path_19"/><path fill="#000002" d="M19.049,53.583c0.165,-0.09 0.213,0.056 0.145,0.448c-0.916,2.148 -2.321,3.649 -4.216,4.497l-6.963,3.492c-0.296,-0.083 -0.351,-0.324 -0.165,-0.724c0.93,-1.79 1.563,-2.851 1.901,-3.188L19.049,53.583z" id="path_20"/><path fill="#008146" d="M27.323,4.979c1.295,2.203 1.942,4.359 1.942,6.453c-0.564,3.98 -1.267,5.971 -2.101,5.971l-0.158,-0.158v-0.158l0.316,-2.1v-0.166c0,-1.288 -0.537,-3.223 -1.611,-5.807V8.692C26.25,6.212 26.786,4.979 27.323,4.979z" id="path_21"/></svg>