<svg id="vector" xmlns="http://www.w3.org/2000/svg" width="75" height="67" viewBox="0 0 83 73"><path fill="#f06022" d="M44.636,17.173c-0.412,0.475 -1.124,1.159 -2.145,2.051c-1.014,0.898 -1.727,1.64 -2.138,2.226c-0.632,0.903 -0.956,1.587 -0.968,2.039c0,0.324 0.053,0.591 0.157,0.794c0.109,0.249 0.382,0.504 0.811,0.765c0.104,-0.069 0.243,-0.336 0.429,-0.812c0.134,-0.365 0.302,-0.544 0.51,-0.544c0.087,0 0.186,0.012 0.284,0.034c0.475,0.476 0.695,1.049 0.666,1.727c0.012,0.591 -0.156,1.072 -0.504,1.438c-0.342,0.37 -0.678,0.603 -0.99,0.706c-0.319,0.099 -0.568,0.14 -0.748,0.116c-1.043,0 -1.68,-0.597 -1.918,-1.796c-0.034,-0.51 -0.052,-1.055 -0.052,-1.634c0.817,-3.361 3.019,-6.038 6.605,-8.03V16.2c0.202,0.035 0.301,0.104 0.301,0.209c0,0.058 -0.046,0.18 -0.15,0.364C44.682,16.958 44.636,17.092 44.636,17.173z" id="path_0"/><path fill="#f06022" d="M39.143,31.166l-0.933,0.087l-0.186,-0.289c3.25,-1.698 5.76,-3.309 7.538,-4.838c-0.591,-0.203 -0.997,-0.424 -1.223,-0.661c-0.614,-0.417 -0.921,-1.13 -0.921,-2.138c-0.047,-2.045 0.684,-3.575 2.195,-4.583c0.499,-0.383 1.298,-0.476 2.399,-0.272c1.152,0.626 1.732,1.373 1.732,2.26c0.295,3.349 -1.906,6.367 -6.594,9.062C41.669,30.458 40.336,30.917 39.143,31.166L39.143,31.166zM47.84,23.616c0.423,-0.174 0.631,-0.457 0.631,-0.869c0,-0.712 -0.307,-1.239 -0.915,-1.575c-0.626,-0.261 -1.321,-0.272 -2.092,-0.035c-0.51,0.371 -0.771,0.725 -0.782,1.049c-0.029,0.318 0.197,0.765 0.684,1.344c0.476,0.227 0.846,0.342 1.118,0.342C46.849,23.947 47.301,23.866 47.84,23.616z" id="path_1"/><path fill="#399121" d="M35.187,44.015v-0.168c0.567,-0.794 1.379,-1.871 2.445,-3.245h0.116c0.22,0.238 0.822,0.725 1.818,1.461c0.476,0.354 0.956,0.707 1.443,1.071c0.545,-0.759 1.274,-1.721 2.19,-2.886h0.115c0.863,0.916 1.941,1.744 3.245,2.492c0.034,0.022 0.052,0.075 0.052,0.156l-2.376,3.175c-0.011,0.023 -0.046,0.029 -0.104,0.029c-0.082,0 -0.203,-0.023 -0.377,-0.081c-0.8,-0.377 -1.802,-1.165 -3.001,-2.376v-0.017l-2.086,2.798c-0.012,0.023 -0.047,0.035 -0.104,0.035c-0.081,0 -0.203,-0.029 -0.371,-0.087C37.388,46.002 36.386,45.214 35.187,44.015z" id="path_2"/><path fill="#399121" d="M37.51,39.125v-0.169c0.568,-0.793 1.385,-1.871 2.445,-3.238h0.122c0.846,0.927 1.929,1.756 3.238,2.491c0.023,0.035 0.035,0.087 0.035,0.156l-2.358,3.187c-0.023,0.012 -0.058,0.018 -0.104,0.018c-0.075,0 -0.197,-0.028 -0.354,-0.081C39.718,41.113 38.709,40.325 37.51,39.125z" id="path_3"/><path fill="#399121" d="M56.839,50.87c-1.825,1.164 -4.184,2.109 -7.08,2.833c-4.415,0.997 -8.158,1.483 -11.229,1.466c-3.07,-0.018 -5.457,-0.313 -7.155,-0.892c-1.697,-0.574 -3.187,-1.576 -4.461,-3.002c-1.102,-1.257 -1.744,-2.717 -1.936,-4.38c-0.249,-2.341 0.318,-4.867 1.715,-7.573c0.145,-0.133 0.29,-0.295 0.44,-0.48c0.145,-0.186 0.313,-0.267 0.492,-0.231l-0.017,0.411c-0.771,1.651 -1.188,3.123 -1.258,4.409c-0.034,0.452 -0.034,0.765 0,0.933c0.476,2.173 2.121,3.702 4.942,4.589c1.582,0.539 3.238,0.875 4.972,0.997c0.272,0.011 0.695,0.046 1.274,0.104c3.54,0.012 7.834,-0.405 12.88,-1.257c2.92,-0.545 5,-1.28 6.234,-2.208c-0.081,-0.37 -0.359,-0.793 -0.834,-1.263c-0.476,-0.47 -0.765,-0.893 -0.863,-1.263c-0.07,-1.495 0.017,-3.025 0.255,-4.583l0.202,-0.018c1.57,1.772 2.445,3.662 2.613,5.649C58.23,47.434 57.835,49.352 56.839,50.87z" id="path_4"/></svg>