<svg id="vector" xmlns="http://www.w3.org/2000/svg" width="75" height="67" viewBox="0 0 83 73"><path fill="#399121" d="M42.238,16.303c-0.412,0.475 -1.125,1.158 -2.145,2.051c-1.014,0.898 -1.727,1.64 -2.138,2.225c-0.632,0.904 -0.956,1.588 -0.968,2.04c0,0.324 0.052,0.591 0.156,0.794c0.11,0.249 0.383,0.504 0.812,0.765c0.104,-0.07 0.243,-0.337 0.429,-0.812c0.133,-0.365 0.302,-0.545 0.51,-0.545c0.087,0 0.186,0.012 0.284,0.035c0.475,0.476 0.695,1.049 0.666,1.727c0.012,0.591 -0.156,1.072 -0.504,1.437c-0.342,0.371 -0.678,0.603 -0.991,0.707c-0.318,0.099 -0.567,0.14 -0.747,0.116c-1.043,0 -1.681,-0.597 -1.918,-1.796c-0.035,-0.511 -0.052,-1.055 -0.052,-1.634c0.816,-3.361 3.019,-6.038 6.605,-8.031v-0.052c0.202,0.035 0.301,0.104 0.301,0.209c0,0.058 -0.047,0.179 -0.15,0.364C42.284,16.088 42.238,16.222 42.238,16.303z" id="path_0"/><path fill="#399121" d="M36.745,30.295l-0.933,0.087l-0.186,-0.29c3.25,-1.697 5.759,-3.308 7.538,-4.838c-0.592,-0.202 -0.997,-0.423 -1.223,-0.66c-0.614,-0.417 -0.922,-1.13 -0.922,-2.138c-0.046,-2.046 0.685,-3.575 2.196,-4.584c0.498,-0.382 1.298,-0.475 2.398,-0.271c1.153,0.625 1.733,1.373 1.733,2.26c0.295,3.349 -1.907,6.367 -6.594,9.062C39.271,29.588 37.938,30.046 36.745,30.295L36.745,30.295zM45.441,22.745c0.423,-0.174 0.632,-0.458 0.632,-0.869c0,-0.713 -0.307,-1.239 -0.915,-1.576c-0.626,-0.26 -1.321,-0.271 -2.092,-0.034c-0.51,0.371 -0.771,0.725 -0.782,1.049c-0.029,0.318 0.197,0.765 0.684,1.344C43.442,22.885 43.813,23 44.086,23C44.451,23.075 44.903,22.994 45.441,22.745z" id="path_1"/><path fill="#2b4ea1" d="M36.796,34.888V34.72c0.567,-0.794 1.379,-1.871 2.445,-3.244h0.115c0.863,0.927 1.941,1.767 3.245,2.515c0.034,0.034 0.052,0.075 0.052,0.133l-2.358,3.193c-0.022,0.012 -0.063,0.018 -0.121,0.018c-0.069,0 -0.186,-0.029 -0.354,-0.088C39.003,36.875 37.995,36.088 36.796,34.888z" id="path_2"/><path fill="#2b4ea1" d="M34.611,52.422c1.321,0.092 2.619,0.139 3.888,0.139c3.111,0 6.107,-0.348 8.992,-1.037c0.104,-0.1 0.157,-0.203 0.157,-0.301c0,-0.07 -0.076,-0.203 -0.221,-0.4c-0.15,-0.203 -0.226,-0.336 -0.226,-0.4c-0.928,-1.223 -2.37,-2.369 -4.328,-3.43c-3.019,-1.721 -4.601,-2.613 -4.734,-2.684c0,-1.697 0.122,-3.324 0.359,-4.889l0.644,0.203c1.981,1.082 3.939,2.166 5.875,3.238c2.225,1.426 3.5,3.146 3.818,5.156c0.202,0.701 0.301,1.414 0.301,2.139c0,1.494 -0.492,3.371 -1.488,5.631c-2.48,1.258 -5.91,1.883 -10.291,1.883c-1.355,0 -2.521,-0.098 -3.493,-0.289C33.864,57.01 34.113,55.359 34.611,52.422z" id="path_3"/></svg>