<svg id="vector" xmlns="http://www.w3.org/2000/svg" width="75" height="67" viewBox="0 0 83 73"><path fill="#399121" d="M47.428,35.24v-0.168c0.568,-0.793 1.379,-1.871 2.445,-3.244h0.115c0.863,0.927 1.941,1.767 3.246,2.515c0.033,0.035 0.051,0.075 0.051,0.133l-2.357,3.193c-0.023,0.011 -0.064,0.017 -0.123,0.017c-0.068,0 -0.184,-0.028 -0.354,-0.087C49.635,37.229 48.627,36.44 47.428,35.24z" id="path_0"/><path fill="#399121" d="M55.117,51.059c-0.854,0.765 -2.625,1.634 -5.332,2.596c-4.617,0.806 -7.949,1.205 -9.988,1.205c-0.805,0 -1.918,0 -3.344,0V50.12c1.037,0 1.768,-0.232 2.191,-0.695c0.168,-0.521 0.619,-1.315 1.355,-2.394c0.689,-0.927 1.107,-1.727 1.24,-2.393c0.068,-1.153 0.104,-2.393 0.104,-3.72c0,-1.628 -0.074,-4.05 -0.232,-7.266c-0.15,-3.21 -0.225,-5.597 -0.225,-7.161c0.168,-0.806 0.486,-2.005 0.943,-3.599c0.105,-0.034 0.238,0.134 0.406,0.51c0.168,1.924 0.545,3.384 1.135,4.381c0.191,0.562 0.539,1.326 1.049,2.288l-0.15,0.156c0,0.029 0.082,0.047 0.256,0.047c0.035,1.02 -0.436,2.26 -1.408,3.72l-0.105,6.57c-0.201,0.974 -0.336,1.837 -0.404,2.596h0.203c1.969,-2.422 4.514,-3.633 7.637,-3.633c2.953,0 5.039,0.956 6.262,2.868c0.238,0.735 0.359,1.518 0.359,2.347C57.068,46.608 56.414,48.712 55.117,51.059L55.117,51.059zM50.451,48.712c2.092,-0.371 3.617,-0.893 4.566,-1.559c-0.092,-0.342 -0.307,-0.719 -0.648,-1.142c-0.348,-0.301 -0.695,-0.637 -1.031,-1.002c-0.939,-0.76 -2.191,-1.136 -3.756,-1.136c-1.76,0 -3.273,0.295 -4.529,0.881c-0.986,0.307 -1.889,1.02 -2.719,2.144c-1.424,1.9 -2.137,2.868 -2.137,2.902C43.707,49.662 47.121,49.303 50.451,48.712z" id="path_1"/><path fill="#000000" d="M36.877,54.859c-2.816,0.023 -5.059,-0.893 -6.721,-2.752c-1.164,-1.321 -1.912,-3.17 -2.242,-5.551c-0.168,-2.127 -0.359,-4.224 -0.58,-6.299c-0.086,-1.83 -0.371,-5.301 -0.846,-10.399c-0.348,-4.201 -0.533,-7.625 -0.557,-10.273c0.023,-0.307 0.156,-0.729 0.406,-1.274c0.295,-0.099 0.563,-0.156 0.799,-0.168c0.453,-0.023 1.031,0.145 1.744,0.51c0.852,0.417 1.391,0.678 1.629,0.782c0.398,0.237 0.811,0.492 1.238,0.765c0.436,0.267 0.615,0.62 0.545,1.049c-0.318,0.012 -0.799,-0.11 -1.441,-0.365c-0.645,-0.255 -1.131,-0.382 -1.461,-0.382c-0.342,0.023 -0.678,0.174 -1.02,0.44l-0.422,0.562c0.451,8.622 0.961,15.313 1.529,20.065c-0.035,0.405 -0.047,0.822 -0.035,1.239c0.104,3.088 1.258,5.29 3.465,6.605c1.275,0.486 2.602,0.729 3.969,0.741V54.859z" id="path_2"/><path fill="#f06022" d="M45.615,25.659l1.055,-3.14l10.232,-4.496c0.139,-0.035 0.203,-0.018 0.203,0.052c0,0.035 -0.018,0.116 -0.053,0.255l-1.373,3.257l-9.826,4.397c-0.127,0.012 -0.203,0.012 -0.238,0C45.57,25.914 45.57,25.811 45.615,25.659z" id="path_3"/><path fill="#f06022" d="M45.615,25.659l1.055,-3.14l10.232,-4.496c0.139,-0.035 0.203,-0.018 0.203,0.052c0,0.035 -0.018,0.116 -0.053,0.255l-1.373,3.257l-9.826,4.397c-0.127,0.012 -0.203,0.012 -0.238,0C45.57,25.914 45.57,25.811 45.615,25.659z" id="path_4"/><path fill="#f06022" d="M45.615,21.129l1.055,-3.141l10.232,-4.496c0.139,-0.035 0.203,-0.018 0.203,0.052c0,0.029 -0.018,0.116 -0.053,0.255l-1.373,3.257l-9.826,4.397c-0.127,0.035 -0.203,0.035 -0.238,0C45.57,21.384 45.57,21.279 45.615,21.129z" id="path_5"/></svg>