<svg id="vector" xmlns="http://www.w3.org/2000/svg" width="75" height="67" viewBox="0 0 83 73"><path fill="#CC0B0B" d="M44.636,17.173c-0.411,0.475 -1.124,1.158 -2.144,2.051c-1.014,0.898 -1.727,1.641 -2.138,2.226c-0.632,0.903 -0.956,1.587 -0.968,2.039c0,0.325 0.052,0.591 0.156,0.794c0.11,0.249 0.383,0.504 0.812,0.765c0.104,-0.069 0.243,-0.336 0.429,-0.812c0.133,-0.365 0.301,-0.544 0.51,-0.544c0.087,0 0.186,0.011 0.283,0.034c0.476,0.476 0.695,1.049 0.667,1.727c0.012,0.592 -0.156,1.072 -0.504,1.438c-0.342,0.371 -0.678,0.602 -0.991,0.707c-0.318,0.098 -0.567,0.139 -0.747,0.115c-1.043,0 -1.681,-0.596 -1.918,-1.796c-0.035,-0.51 -0.052,-1.054 -0.052,-1.634c0.816,-3.361 3.019,-6.037 6.604,-8.031V16.2c0.203,0.034 0.302,0.104 0.302,0.208c0,0.058 -0.047,0.179 -0.151,0.364C44.683,16.958 44.636,17.092 44.636,17.173z" id="path_0"/><path fill="#CC0B0B" d="M39.143,31.165l-0.932,0.088l-0.186,-0.291c3.25,-1.697 5.759,-3.308 7.537,-4.837c-0.591,-0.203 -0.996,-0.423 -1.222,-0.661c-0.614,-0.417 -0.922,-1.129 -0.922,-2.138c-0.046,-2.046 0.684,-3.575 2.196,-4.583c0.498,-0.383 1.298,-0.475 2.398,-0.272c1.153,0.626 1.732,1.373 1.732,2.26c0.296,3.349 -1.906,6.368 -6.594,9.062C41.669,30.458 40.337,30.916 39.143,31.165L39.143,31.165zM47.84,23.616c0.423,-0.174 0.632,-0.458 0.632,-0.869c0,-0.713 -0.307,-1.24 -0.916,-1.576c-0.625,-0.261 -1.32,-0.272 -2.091,-0.035c-0.51,0.371 -0.771,0.725 -0.782,1.049c-0.029,0.318 0.196,0.765 0.684,1.344c0.475,0.227 0.846,0.342 1.118,0.342C46.85,23.946 47.301,23.864 47.84,23.616z" id="path_1"/><path fill="#2121D5" d="M56.46,52.778c-0.272,0.215 -0.626,0.424 -1.054,0.626c-2.249,1.124 -4.525,1.918 -6.82,2.394c-3.157,0.666 -6.426,1.002 -9.798,1.002c-3.894,0 -7.028,-0.648 -9.403,-1.941c-3.048,-1.633 -4.606,-4.229 -4.676,-7.781c0,-1.129 0.243,-2.369 0.736,-3.708c0.486,-1.345 1.152,-2.329 1.986,-2.96c0.169,-0.14 0.29,-0.157 0.359,-0.053c0.099,0.099 0.116,0.186 0.047,0.255c-0.742,1.321 -1.199,2.63 -1.356,3.917c-0.145,2.404 1.75,4.508 5.685,6.315c2.584,0.701 5.383,1.054 8.407,1.054c3.98,0 8.146,-0.562 12.491,-1.68c0.667,-0.168 2.028,-0.701 4.073,-1.605c-0.168,-0.486 -0.567,-1.164 -1.188,-2.033c-1.257,0.968 -2.404,1.454 -3.447,1.454c-0.417,0 -0.829,-0.069 -1.24,-0.202c-0.95,-0.203 -1.813,-0.655 -2.596,-1.344c-0.782,-0.696 -1.257,-1.502 -1.425,-2.417c0.104,-1.425 0.255,-2.572 0.458,-3.441c0.625,-2.556 1.749,-4.195 3.377,-4.931c0.296,-0.07 0.614,-0.104 0.95,-0.104c1.947,0 3.407,0.933 4.381,2.798c0.354,0.701 0.678,1.362 0.984,1.988c0.603,1.628 0.898,3.366 0.898,5.227c0,2.08 -0.382,3.969 -1.153,5.66L56.46,52.778L56.46,52.778zM53.963,42.964c0.452,-0.099 0.644,-0.272 0.574,-0.51c-0.95,-1.188 -2.289,-1.715 -4.021,-1.576c-0.521,0.33 -0.765,0.643 -0.73,0.95C50.938,42.778 52.329,43.155 53.963,42.964L53.963,42.964zM49.044,30.889v-0.167c0.567,-0.795 1.379,-1.872 2.445,-3.246h0.115c0.863,0.928 1.941,1.768 3.245,2.516c0.034,0.035 0.052,0.075 0.052,0.133l-2.358,3.193c-0.022,0.012 -0.063,0.017 -0.121,0.017c-0.069,0 -0.186,-0.028 -0.354,-0.087C51.251,32.876 50.243,32.089 49.044,30.889z" id="path_2"/></svg>