<svg id="vector" xmlns="http://www.w3.org/2000/svg" width="75" height="67" viewBox="0 0 83 73"><path fill="#CC0B0B" d="M42.234,31.575l1.055,-3.141l10.23,-4.496c0.141,-0.034 0.203,-0.017 0.203,0.053c0,0.035 -0.018,0.115 -0.053,0.255l-1.373,3.257l-9.826,4.396c-0.127,0.012 -0.203,0.012 -0.236,0C42.188,31.83 42.188,31.726 42.234,31.575z" id="path_0"/><path fill="#CC0B0B" d="M42.234,31.575l1.055,-3.141l10.23,-4.496c0.141,-0.034 0.203,-0.017 0.203,0.053c0,0.035 -0.018,0.115 -0.053,0.255l-1.373,3.257l-9.826,4.396c-0.127,0.012 -0.203,0.012 -0.236,0C42.188,31.83 42.188,31.726 42.234,31.575z" id="path_1"/><path fill="#CC0B0B" d="M42.234,27.044l1.055,-3.14l10.23,-4.496c0.141,-0.035 0.203,-0.018 0.203,0.052c0,0.029 -0.018,0.116 -0.053,0.256l-1.373,3.256l-9.826,4.397c-0.127,0.034 -0.203,0.034 -0.236,0C42.188,27.3 42.188,27.195 42.234,27.044z" id="path_2"/><path fill="#2b4ea1" d="M44.018,35.086v-0.168c0.568,-0.794 1.379,-1.872 2.445,-3.245h0.115c0.863,0.928 1.941,1.768 3.244,2.516c0.035,0.034 0.053,0.074 0.053,0.133l-2.357,3.192c-0.023,0.011 -0.064,0.018 -0.121,0.018c-0.07,0 -0.186,-0.029 -0.354,-0.087C46.225,37.073 45.217,36.285 44.018,35.086z" id="path_3"/><path fill="#2b4ea1" d="M49.111,55.028c-2.133,1.246 -5.111,1.866 -8.947,1.866v-4.692c5.297,0.08 9.148,-0.835 11.561,-2.735c0.033,-0.157 0.045,-0.302 0.045,-0.44c0,-0.475 -0.242,-0.869 -0.729,-1.188c-0.064,0.486 -0.516,0.846 -1.357,1.083c-0.619,0.174 -1.25,0.243 -1.883,0.208c-1.564,-0.104 -2.775,-0.619 -3.633,-1.547c-0.748,-1.083 -1.014,-2.132 -0.799,-3.141c0.33,-2.113 0.746,-3.441 1.258,-3.974c0.949,-0.893 1.975,-1.339 3.07,-1.339c2.063,0 3.539,1.223 4.432,3.668c0.498,1.263 0.748,2.74 0.748,4.427C52.877,50.968 51.619,53.569 49.111,55.028z" id="path_4"/><path fill="#CC0B0B" d="M40.594,56.895c-2.816,0.023 -5.059,-0.893 -6.721,-2.752c-1.166,-1.321 -1.912,-3.169 -2.242,-5.551c-0.168,-2.126 -0.359,-4.224 -0.58,-6.298c-0.086,-1.831 -0.371,-5.302 -0.846,-10.4c-0.348,-4.201 -0.533,-7.625 -0.557,-10.273c0.023,-0.307 0.156,-0.729 0.406,-1.274c0.295,-0.099 0.561,-0.156 0.799,-0.168c0.453,-0.022 1.031,0.146 1.744,0.51c0.852,0.417 1.391,0.679 1.629,0.782c0.398,0.238 0.811,0.492 1.238,0.766c0.436,0.266 0.615,0.619 0.545,1.049c-0.318,0.011 -0.799,-0.111 -1.441,-0.365c-0.645,-0.256 -1.131,-0.383 -1.461,-0.383c-0.342,0.023 -0.678,0.174 -1.02,0.439l-0.424,0.563c0.453,8.622 0.963,15.314 1.531,20.064c-0.035,0.406 -0.047,0.823 -0.035,1.24c0.104,3.088 1.258,5.291 3.465,6.605c1.273,0.486 2.602,0.73 3.969,0.742V56.895z" id="path_5"/></svg>