<svg id="vector" xmlns="http://www.w3.org/2000/svg" width="75" height="67" viewBox="0 0 83 73"><path fill="#2b4ea1" d="M42.793,34.983v-0.167c0.568,-0.795 1.379,-1.873 2.445,-3.246h0.117c0.861,0.928 1.939,1.768 3.244,2.516c0.035,0.035 0.051,0.075 0.051,0.133l-2.357,3.193c-0.023,0.011 -0.064,0.017 -0.121,0.017c-0.07,0 -0.186,-0.028 -0.354,-0.087C45.002,36.971 43.992,36.184 42.793,34.983z" id="path_0"/><path fill="#2b4ea1" d="M36.547,58.102c-0.949,0.035 -1.771,0.133 -2.461,0.29c-0.156,-0.122 -0.238,-0.296 -0.238,-0.511c2.566,-0.973 5.84,-2.543 9.809,-4.71c-0.035,0.058 0.633,-0.336 1.988,-1.188c0.961,-0.741 1.627,-1.437 2.004,-2.086c0,-0.846 -0.127,-1.772 -0.377,-2.775c-0.393,-0.881 -0.902,-1.813 -1.523,-2.798l0.521,-4.983h0.291c0.996,2.271 1.598,3.911 1.801,4.913c0.475,1.912 0.678,3.604 0.609,5.088c-0.012,0.926 -0.191,2.016 -0.545,3.273c-0.766,2.393 -2.393,3.969 -4.867,4.728C42.383,57.702 40.041,57.957 36.547,58.102z" id="path_1"/><path fill="#000000" d="M45.572,13.188c-0.41,0.476 -1.123,1.159 -2.143,2.052c-1.014,0.897 -1.727,1.64 -2.139,2.225c-0.631,0.903 -0.955,1.587 -0.967,2.04c0,0.324 0.051,0.59 0.156,0.793c0.109,0.25 0.383,0.504 0.811,0.766c0.104,-0.07 0.244,-0.336 0.43,-0.812c0.133,-0.365 0.301,-0.545 0.51,-0.545c0.086,0 0.186,0.012 0.283,0.034c0.475,0.477 0.695,1.049 0.666,1.728c0.012,0.591 -0.156,1.071 -0.504,1.437c-0.342,0.371 -0.678,0.603 -0.99,0.707c-0.318,0.099 -0.568,0.139 -0.748,0.115c-1.043,0 -1.68,-0.596 -1.918,-1.795c-0.035,-0.51 -0.051,-1.055 -0.051,-1.635c0.816,-3.36 3.018,-6.037 6.604,-8.03v-0.053c0.203,0.035 0.303,0.104 0.303,0.209c0,0.058 -0.047,0.18 -0.15,0.365C45.619,12.974 45.572,13.106 45.572,13.188z" id="path_2"/><path fill="#000000" d="M40.08,27.18l-0.932,0.088l-0.186,-0.29c3.25,-1.697 5.758,-3.308 7.537,-4.838c-0.592,-0.202 -0.996,-0.423 -1.223,-0.661c-0.613,-0.416 -0.922,-1.129 -0.922,-2.137c-0.045,-2.046 0.684,-3.576 2.197,-4.584c0.498,-0.382 1.297,-0.475 2.398,-0.271c1.152,0.625 1.732,1.373 1.732,2.26c0.295,3.348 -1.906,6.367 -6.594,9.061C42.605,26.474 41.273,26.932 40.08,27.18L40.08,27.18zM48.777,19.631c0.422,-0.174 0.631,-0.458 0.631,-0.869c0,-0.713 -0.307,-1.24 -0.916,-1.576c-0.625,-0.26 -1.32,-0.271 -2.09,-0.034c-0.51,0.37 -0.771,0.724 -0.783,1.048c-0.029,0.319 0.197,0.766 0.684,1.345c0.475,0.226 0.846,0.342 1.119,0.342C47.787,19.961 48.238,19.88 48.777,19.631z" id="path_3"/></svg>