<svg id="vector" xmlns="http://www.w3.org/2000/svg" width="75" height="67" viewBox="0 0 83 73"><path fill="#399121" d="M45.549,33.678V33.51c0.568,-0.793 1.379,-1.871 2.445,-3.244h0.115c0.863,0.928 1.941,1.768 3.246,2.515c0.035,0.034 0.051,0.075 0.051,0.134l-2.357,3.191c-0.023,0.012 -0.064,0.018 -0.121,0.018c-0.07,0 -0.186,-0.029 -0.354,-0.087C47.756,35.666 46.748,34.877 45.549,33.678z" id="path_0"/><path fill="#399121" d="M39.303,56.797c-0.949,0.035 -1.771,0.133 -2.461,0.289c-0.158,-0.121 -0.238,-0.295 -0.238,-0.51c2.566,-0.973 5.84,-2.543 9.809,-4.711c-0.035,0.059 0.633,-0.336 1.988,-1.188c0.961,-0.741 1.627,-1.437 2.004,-2.086c0,-0.846 -0.127,-1.773 -0.377,-2.775c-0.393,-0.881 -0.902,-1.813 -1.523,-2.798l0.521,-4.983h0.289c0.998,2.271 1.6,3.911 1.803,4.914c0.475,1.912 0.678,3.604 0.609,5.087c-0.012,0.927 -0.191,2.017 -0.545,3.273c-0.766,2.394 -2.393,3.969 -4.867,4.728C45.139,56.396 42.797,56.652 39.303,56.797z" id="path_1"/><path fill="#2b4ea1" d="M33.307,47.463c-0.035,1.094 -0.209,2.085 -0.527,2.972c-0.359,0.562 -0.625,0.847 -0.793,0.847c-0.186,0.011 -0.268,-0.279 -0.256,-0.864c-0.283,-6.351 -0.684,-11.808 -1.188,-16.38c-0.238,-2.254 -0.563,-4.102 -0.969,-5.551c-0.172,-0.556 -0.266,-1.071 -0.289,-1.547c-0.012,-0.881 0.123,-1.9 0.406,-3.053l0.799,-2.955c0.1,-0.093 0.209,-0.139 0.318,-0.139c0.141,0 0.238,0.19 0.291,0.579c0.047,0.526 0.109,0.846 0.197,0.956c0.086,0.109 0.393,1.02 0.926,2.74c0.336,1.118 0.754,1.999 1.24,2.648c0.029,0.214 0.047,0.422 0.047,0.625c0.023,0.43 -0.094,1.02 -0.348,1.773c-0.256,0.753 -0.424,1.274 -0.516,1.57l-0.123,0.51L33.307,47.463z" id="path_2"/><path fill="#f06022" d="M42.227,28.099l1.055,-3.14l10.232,-4.496c0.139,-0.035 0.203,-0.018 0.203,0.052c0,0.034 -0.018,0.116 -0.053,0.255l-1.373,3.256l-9.826,4.398c-0.127,0.012 -0.203,0.012 -0.238,0C42.182,28.354 42.182,28.25 42.227,28.099z" id="path_3"/><path fill="#000000" d="M42.227,28.099l1.055,-3.14l10.232,-4.496c0.139,-0.035 0.203,-0.018 0.203,0.052c0,0.034 -0.018,0.116 -0.053,0.255l-1.373,3.256l-9.826,4.398c-0.127,0.012 -0.203,0.012 -0.238,0C42.182,28.354 42.182,28.25 42.227,28.099z" id="path_4"/><path fill="#000000" d="M42.227,23.568l1.055,-3.141l10.232,-4.496c0.139,-0.035 0.203,-0.018 0.203,0.052c0,0.028 -0.018,0.116 -0.053,0.255l-1.373,3.256l-9.826,4.398c-0.127,0.035 -0.203,0.035 -0.238,0C42.182,23.822 42.182,23.719 42.227,23.568z" id="path_5"/></svg>