<svg id="vector" xmlns="http://www.w3.org/2000/svg" width="75" height="67" viewBox="0 0 83 73"><path fill="#000000" d="M35.773,60.037l1.055,-3.105L47.06,52.4c0.14,-0.022 0.203,-0.005 0.203,0.053c0,0.034 -0.018,0.121 -0.053,0.272l-1.373,3.256l-9.826,4.415c-0.128,0.012 -0.203,0.012 -0.237,0C35.727,60.327 35.727,60.211 35.773,60.037z" id="path_0"/><path fill="#000000" d="M35.773,55.507l1.055,-3.106l10.231,-4.53c0.14,-0.023 0.203,-0.006 0.203,0.052c0,0.029 -0.018,0.122 -0.053,0.267l-1.373,3.262l-9.826,4.415c-0.128,0.012 -0.203,0.012 -0.237,0C35.727,55.796 35.727,55.675 35.773,55.507z" id="path_1"/><path fill="#399121" d="M28.055,41.542c1.049,0.028 2.428,-0.035 4.126,-0.209c1.924,-0.203 3.279,-0.302 4.073,-0.302c0.237,0 0.539,-0.186 0.897,-0.544c0.308,-0.725 0.608,-1.438 0.916,-2.145c0.354,-0.822 0.527,-1.587 0.527,-2.288c0.069,-1.906 0.058,-4.49 -0.035,-7.764c-0.093,-3.894 -0.139,-6.489 -0.139,-7.781c0,-1.096 0.011,-2.139 0.034,-3.123c0.308,-1.078 0.841,-2.678 1.611,-4.792l0.37,0.307c0.035,0.134 0.151,0.997 0.359,2.596c0.134,1.021 0.365,1.837 0.695,2.463l-0.139,0.046c0.735,0.91 1.106,1.588 1.106,2.04c0,0.237 -0.087,0.545 -0.255,0.915c-0.272,0.499 -0.429,0.8 -0.458,0.898l-1.31,2.039c0,2.046 0,5.343 0,9.891c0,0.035 -0.058,0.186 -0.168,0.446c-0.034,0.168 -0.017,0.318 0.053,0.458c2.149,-3.263 5,-4.891 8.552,-4.891c0.452,0 0.909,0.035 1.373,0.104c2.561,0.654 4.346,2.005 5.365,4.044c-0.313,5.342 -2.086,8.477 -5.313,9.421c-4.671,1.361 -8.419,2.04 -11.241,2.04c-2.155,0 -4.079,-0.354 -5.776,-1.055c-1.355,-0.336 -3.32,-1.055 -5.893,-2.138C27.389,42.08 27.615,41.854 28.055,41.542L28.055,41.542zM47.656,34.444c-0.272,-0.035 -0.567,-0.053 -0.887,-0.053c-1.761,0 -3.459,0.649 -5.087,1.947c-1.431,1.135 -2.602,2.612 -3.517,4.438c2.41,-0.069 5.689,-0.405 9.826,-1.002c0.342,-0.139 1.274,-0.4 2.805,-0.782c1.152,-0.307 2.057,-0.638 2.717,-1.003v-0.613C51.84,35.62 49.887,34.641 47.656,34.444z" id="path_2"/><path fill="#399121" d="M46.637,24.144v-0.168c0.568,-0.794 1.379,-1.871 2.445,-3.244h0.116c0.863,0.927 1.94,1.767 3.244,2.515c0.035,0.035 0.053,0.075 0.053,0.133l-2.358,3.193c-0.023,0.011 -0.063,0.017 -0.122,0.017c-0.069,0 -0.186,-0.028 -0.354,-0.087C48.845,26.131 47.836,25.344 46.637,24.144z" id="path_3"/></svg>