<svg id="vector" xmlns="http://www.w3.org/2000/svg" width="75" height="67" viewBox="0 0 83 73"><path fill="#000000" d="M45.573,13.187c-0.411,0.476 -1.124,1.159 -2.144,2.052c-1.014,0.897 -1.727,1.64 -2.138,2.225c-0.632,0.904 -0.956,1.588 -0.968,2.039c0,0.325 0.052,0.592 0.156,0.794c0.11,0.25 0.383,0.505 0.812,0.766c0.104,-0.07 0.243,-0.337 0.429,-0.812c0.133,-0.365 0.301,-0.545 0.51,-0.545c0.087,0 0.186,0.012 0.284,0.035c0.475,0.475 0.695,1.049 0.666,1.727c0.012,0.591 -0.156,1.071 -0.504,1.437c-0.342,0.371 -0.678,0.603 -0.991,0.707c-0.318,0.099 -0.567,0.139 -0.747,0.116c-1.043,0 -1.681,-0.597 -1.918,-1.796c-0.035,-0.511 -0.052,-1.055 -0.052,-1.635c0.816,-3.36 3.019,-6.037 6.604,-8.03v-0.052c0.203,0.034 0.302,0.104 0.302,0.208c0,0.059 -0.047,0.18 -0.15,0.365C45.62,12.973 45.573,13.106 45.573,13.187z" id="path_0"/><path fill="#000000" d="M40.081,27.18l-0.933,0.087l-0.186,-0.29c3.25,-1.697 5.759,-3.309 7.538,-4.838c-0.592,-0.203 -0.997,-0.423 -1.223,-0.66c-0.614,-0.417 -0.922,-1.13 -0.922,-2.139c-0.046,-2.045 0.684,-3.574 2.196,-4.583c0.498,-0.382 1.298,-0.475 2.398,-0.272c1.153,0.626 1.732,1.374 1.732,2.26c0.296,3.35 -1.906,6.368 -6.594,9.063C42.606,26.473 41.274,26.931 40.081,27.18L40.081,27.18zM48.777,19.63c0.423,-0.174 0.632,-0.458 0.632,-0.869c0,-0.713 -0.307,-1.24 -0.916,-1.576c-0.625,-0.261 -1.32,-0.271 -2.091,-0.034c-0.51,0.37 -0.771,0.724 -0.782,1.048c-0.029,0.319 0.196,0.766 0.684,1.345c0.475,0.227 0.846,0.342 1.118,0.342C47.787,19.96 48.239,19.879 48.777,19.63z" id="path_1"/><path fill="#44b549" d="M28.056,56.915c1.049,0.029 2.428,-0.034 4.125,-0.208c1.924,-0.203 3.279,-0.302 4.073,-0.302c0.237,0 0.539,-0.186 0.898,-0.545c0.307,-0.724 0.607,-1.437 0.915,-2.144c0.354,-0.822 0.527,-1.587 0.527,-2.289c0.069,-1.905 0.058,-4.49 -0.035,-7.764c-0.093,-3.894 -0.139,-6.489 -0.139,-7.781c0,-1.095 0.012,-2.138 0.034,-3.123c0.308,-1.077 0.841,-2.677 1.611,-4.791l0.371,0.307c0.034,0.133 0.15,0.997 0.359,2.596c0.133,1.02 0.364,1.837 0.695,2.463l-0.14,0.046c0.736,0.91 1.106,1.588 1.106,2.04c0,0.237 -0.087,0.544 -0.255,0.915c-0.272,0.498 -0.429,0.8 -0.457,0.897l-1.31,2.04c0,2.046 0,5.342 0,9.891c0,0.034 -0.059,0.186 -0.168,0.446c-0.035,0.168 -0.018,0.318 0.052,0.457c2.149,-3.262 5,-4.89 8.552,-4.89c0.452,0 0.91,0.034 1.373,0.104c2.562,0.654 4.346,2.005 5.365,4.044c-0.313,5.342 -2.085,8.477 -5.313,9.421c-4.67,1.361 -8.419,2.04 -11.24,2.04c-2.156,0 -4.079,-0.354 -5.777,-1.055c-1.355,-0.337 -3.319,-1.055 -5.893,-2.138C27.389,57.454 27.615,57.228 28.056,56.915L28.056,56.915zM47.656,49.817c-0.272,-0.035 -0.567,-0.052 -0.886,-0.052c-1.762,0 -3.46,0.648 -5.088,1.946c-1.431,1.136 -2.602,2.613 -3.517,4.438c2.41,-0.069 5.689,-0.405 9.826,-1.002c0.342,-0.14 1.275,-0.4 2.805,-0.782c1.153,-0.308 2.057,-0.638 2.718,-1.003v-0.614C51.84,50.994 49.887,50.014 47.656,49.817z" id="path_2"/><path fill="#44b549" d="M46.637,39.517v-0.168c0.568,-0.794 1.379,-1.871 2.445,-3.245h0.116c0.863,0.928 1.941,1.768 3.244,2.515c0.035,0.035 0.053,0.076 0.053,0.134l-2.358,3.192c-0.023,0.012 -0.063,0.018 -0.122,0.018c-0.069,0 -0.185,-0.029 -0.354,-0.087C48.845,41.504 47.837,40.716 46.637,39.517z" id="path_3"/></svg>