<svg id="vector" xmlns="http://www.w3.org/2000/svg" width="75" height="67" viewBox="0 0 83 73"><path fill="#000000" d="M45.573,13.188c-0.411,0.475 -1.124,1.158 -2.144,2.051c-1.014,0.898 -1.727,1.639 -2.138,2.225c-0.632,0.904 -0.956,1.588 -0.968,2.039c0,0.324 0.052,0.592 0.156,0.795c0.11,0.248 0.383,0.504 0.812,0.764c0.104,-0.068 0.243,-0.336 0.429,-0.811c0.133,-0.365 0.301,-0.545 0.51,-0.545c0.087,0 0.186,0.012 0.284,0.035c0.475,0.475 0.695,1.049 0.666,1.727c0.012,0.59 -0.156,1.072 -0.504,1.438c-0.342,0.369 -0.678,0.602 -0.991,0.705c-0.318,0.1 -0.567,0.141 -0.747,0.117c-1.043,0 -1.681,-0.598 -1.918,-1.797c-0.035,-0.51 -0.052,-1.055 -0.052,-1.633c0.816,-3.361 3.019,-6.039 6.604,-8.031v-0.053c0.203,0.035 0.302,0.105 0.302,0.209c0,0.059 -0.047,0.18 -0.15,0.365C45.62,12.974 45.573,13.106 45.573,13.188z" id="path_0"/><path fill="#000000" d="M40.081,27.181l-0.933,0.086l-0.186,-0.289c3.25,-1.697 5.759,-3.309 7.538,-4.838c-0.592,-0.203 -0.997,-0.424 -1.223,-0.66c-0.614,-0.418 -0.922,-1.131 -0.922,-2.139c-0.046,-2.045 0.684,-3.574 2.196,-4.582c0.498,-0.383 1.298,-0.477 2.398,-0.273c1.153,0.627 1.732,1.373 1.732,2.26c0.296,3.35 -1.906,6.367 -6.594,9.063C42.606,26.474 41.274,26.931 40.081,27.181L40.081,27.181zM48.777,19.63c0.423,-0.172 0.632,-0.457 0.632,-0.867c0,-0.713 -0.307,-1.24 -0.916,-1.576c-0.625,-0.262 -1.32,-0.273 -2.091,-0.035c-0.51,0.371 -0.771,0.725 -0.782,1.049c-0.029,0.318 0.196,0.764 0.684,1.344c0.475,0.227 0.846,0.342 1.118,0.342C47.787,19.962 48.239,19.88 48.777,19.63z" id="path_1"/><path fill="#399121" d="M23.976,34.579c0.034,0.064 0.063,0.168 0.099,0.301c-0.296,0.465 -0.713,1.166 -1.258,2.092c-0.984,1.525 -1.576,3.055 -1.778,4.584c-0.203,1.617 0.028,3.008 0.695,4.172c1.199,2.41 3.141,4.02 5.822,4.826c1.866,0.539 4.375,0.66 7.521,0.354c4.513,-1.258 7.254,-3.152 8.215,-5.689c-0.069,-1.779 -0.451,-3.43 -1.141,-4.961c-0.272,-0.631 -0.689,-1.564 -1.252,-2.797c-0.069,-0.986 0.012,-2.416 0.25,-4.283c0.196,-0.035 0.376,0.018 0.544,0.152c0.521,0.41 1.304,1.002 2.341,1.783c0.898,0.58 1.837,0.939 2.821,1.09c1.009,-1.709 2.011,-3.43 3.002,-5.162c1.396,-1.994 3.001,-3.146 4.82,-3.447c0.626,-0.215 1.286,-0.326 1.987,-0.326c1.564,0 3.141,0.441 4.739,1.322c1.489,1.459 2.237,2.688 2.237,3.684c0,0.17 -0.018,0.354 -0.053,0.557c-0.267,3.008 -1.448,5.244 -3.546,6.699c-3.169,1.627 -6.333,2.443 -9.49,2.443c-2.057,0 -3.917,-0.381 -5.58,-1.152c-0.354,-0.068 -0.527,0.018 -0.527,0.256c0.076,0.596 0.116,1.176 0.116,1.732c0,1.592 -0.29,3.174 -0.881,4.738c-0.985,2.533 -2.665,4.613 -5.041,6.223c-2.375,1.617 -4.941,2.422 -7.688,2.422c-2.821,0 -5.272,-0.828 -7.37,-2.49c-2.815,-2.236 -4.224,-5.459 -4.224,-9.67c0,-1.75 0.302,-3.379 0.898,-4.867c1.089,-2.051 2.195,-3.564 3.325,-4.537C23.808,34.597 23.941,34.579 23.976,34.579L23.976,34.579zM55.768,31.954c-0.354,-0.033 -0.679,-0.051 -0.985,-0.051c-2.329,0 -4.403,1.494 -6.211,4.484c0.619,0.271 1.13,0.387 1.523,0.354c0.66,0.033 1.292,0.051 1.906,0.051c3.731,0 6.849,-0.781 9.352,-2.34c-0.203,-0.486 -0.573,-0.904 -1.106,-1.24c-0.203,-0.139 -0.701,-0.416 -1.489,-0.852C57.564,31.942 56.573,31.81 55.768,31.954z" id="path_2"/></svg>