<svg id="vector" xmlns="http://www.w3.org/2000/svg" width="75" height="67" viewBox="0 0 83 73"><path fill="#000000" d="M45.573,13.188c-0.411,0.475 -1.124,1.16 -2.144,2.051c-1.014,0.898 -1.727,1.641 -2.138,2.227c-0.632,0.902 -0.956,1.586 -0.968,2.039c0,0.324 0.052,0.59 0.156,0.793c0.11,0.25 0.383,0.504 0.812,0.766c0.104,-0.07 0.243,-0.336 0.429,-0.813c0.133,-0.365 0.301,-0.543 0.51,-0.543c0.087,0 0.186,0.012 0.284,0.033c0.475,0.477 0.695,1.049 0.666,1.727c0.012,0.592 -0.156,1.072 -0.504,1.438c-0.342,0.371 -0.678,0.602 -0.991,0.707c-0.318,0.098 -0.567,0.139 -0.747,0.115c-1.043,0 -1.681,-0.596 -1.918,-1.795c-0.035,-0.51 -0.052,-1.055 -0.052,-1.635c0.816,-3.361 3.019,-6.037 6.604,-8.031v-0.051c0.203,0.035 0.302,0.104 0.302,0.209c0,0.057 -0.047,0.178 -0.15,0.363C45.62,12.973 45.573,13.107 45.573,13.188z" id="path_0"/><path fill="#000000" d="M40.081,27.18l-0.933,0.088l-0.186,-0.289c3.25,-1.699 5.759,-3.309 7.538,-4.838c-0.592,-0.203 -0.997,-0.424 -1.223,-0.662c-0.614,-0.416 -0.922,-1.129 -0.922,-2.137c-0.046,-2.047 0.684,-3.576 2.196,-4.584c0.498,-0.383 1.298,-0.475 2.398,-0.271c1.153,0.625 1.732,1.373 1.732,2.26c0.296,3.348 -1.906,6.367 -6.594,9.061C42.606,26.473 41.274,26.932 40.081,27.18L40.081,27.18zM48.777,19.631c0.423,-0.174 0.632,-0.457 0.632,-0.869c0,-0.713 -0.307,-1.24 -0.916,-1.576c-0.625,-0.26 -1.32,-0.271 -2.091,-0.035c-0.51,0.371 -0.771,0.725 -0.782,1.049c-0.029,0.318 0.196,0.766 0.684,1.344c0.475,0.227 0.846,0.342 1.118,0.342C47.787,19.961 48.239,19.881 48.777,19.631z" id="path_1"/><path fill="#399121" d="M28.055,56.916c1.049,0.027 2.428,-0.035 4.125,-0.209c1.924,-0.203 3.279,-0.303 4.073,-0.303c0.237,0 0.539,-0.184 0.898,-0.543c0.307,-0.725 0.607,-1.438 0.915,-2.145c0.354,-0.822 0.527,-1.588 0.527,-2.289c0.069,-1.906 0.058,-4.49 -0.035,-7.764c-0.093,-3.893 -0.139,-6.488 -0.139,-7.781c0,-1.096 0.012,-2.139 0.034,-3.123c0.308,-1.078 0.841,-2.678 1.611,-4.791l0.371,0.307c0.034,0.133 0.15,0.996 0.359,2.596c0.133,1.02 0.364,1.836 0.695,2.463l-0.14,0.047c0.736,0.908 1.106,1.586 1.106,2.039c0,0.236 -0.087,0.545 -0.255,0.914c-0.272,0.5 -0.429,0.801 -0.457,0.898l-1.31,2.039c0,2.047 0,5.344 0,9.891c0,0.035 -0.059,0.186 -0.168,0.447c-0.035,0.168 -0.018,0.318 0.052,0.457c2.149,-3.262 5,-4.891 8.552,-4.891c0.452,0 0.91,0.035 1.373,0.105c2.562,0.654 4.346,2.004 5.365,4.043c-0.313,5.344 -2.085,8.477 -5.313,9.422c-4.67,1.361 -8.419,2.039 -11.24,2.039c-2.156,0 -4.079,-0.354 -5.777,-1.055c-1.355,-0.336 -3.319,-1.055 -5.893,-2.137C27.388,57.453 27.615,57.229 28.055,56.916L28.055,56.916zM47.656,49.818c-0.272,-0.035 -0.567,-0.053 -0.886,-0.053c-1.762,0 -3.46,0.648 -5.088,1.947c-1.431,1.135 -2.602,2.611 -3.517,4.438c2.41,-0.07 5.689,-0.406 9.826,-1.002c0.342,-0.139 1.275,-0.4 2.805,-0.783c1.153,-0.307 2.057,-0.637 2.718,-1.002V52.75C51.839,50.994 49.886,50.014 47.656,49.818z" id="path_2"/></svg>