<svg id="vector" xmlns="http://www.w3.org/2000/svg" width="75" height="67" viewBox="0 0 83 73"><path fill="#399121" d="M35.772,57.026l1.055,-3.105L47.06,49.39c0.139,-0.023 0.203,-0.006 0.203,0.053c0,0.035 -0.018,0.121 -0.053,0.273l-1.373,3.256l-9.826,4.414c-0.128,0.012 -0.203,0.012 -0.238,0C35.727,57.317 35.727,57.2 35.772,57.026z" id="path_0"/><path fill="#399121" d="M35.772,52.495l1.055,-3.105L47.06,44.86c0.139,-0.023 0.203,-0.006 0.203,0.051c0,0.029 -0.018,0.121 -0.053,0.268l-1.373,3.262l-9.826,4.414c-0.128,0.012 -0.203,0.012 -0.238,0C35.727,52.786 35.727,52.663 35.772,52.495z" id="path_1"/><path fill="#000001" d="M34.611,36.552c1.32,0.092 2.618,0.139 3.888,0.139c3.111,0 6.106,-0.348 8.992,-1.037c0.104,-0.1 0.156,-0.203 0.156,-0.303c0,-0.068 -0.075,-0.201 -0.22,-0.398c-0.151,-0.203 -0.227,-0.336 -0.227,-0.4c-0.927,-1.223 -2.369,-2.369 -4.328,-3.43c-3.019,-1.721 -4.601,-2.613 -4.733,-2.684c0,-1.697 0.121,-3.324 0.359,-4.889l0.643,0.201c1.981,1.084 3.94,2.168 5.875,3.24c2.226,1.426 3.5,3.146 3.818,5.156c0.203,0.701 0.302,1.414 0.302,2.139c0,1.494 -0.493,3.371 -1.489,5.631c-2.479,1.258 -5.91,1.883 -10.29,1.883c-1.356,0 -2.521,-0.098 -3.494,-0.289C33.863,41.14 34.112,39.489 34.611,36.552z" id="path_2"/></svg>