<svg id="vector" xmlns="http://www.w3.org/2000/svg" width="75" height="67" viewBox="0 0 83 73"><path fill="#FF0000" d="M55.117,51.059c-0.853,0.764 -2.625,1.633 -5.331,2.596c-4.617,0.805 -7.949,1.205 -9.988,1.205c-0.806,0 -1.918,0 -3.344,0v-4.74c1.037,0 1.768,-0.23 2.19,-0.695c0.168,-0.521 0.62,-1.314 1.355,-2.393c0.689,-0.928 1.107,-1.727 1.24,-2.393c0.069,-1.152 0.104,-2.393 0.104,-3.721c0,-1.627 -0.075,-4.049 -0.232,-7.266c-0.15,-3.209 -0.226,-5.596 -0.226,-7.16c0.168,-0.807 0.486,-2.006 0.944,-3.598c0.104,-0.035 0.237,0.133 0.405,0.51c0.168,1.922 0.545,3.383 1.136,4.379c0.191,0.563 0.539,1.328 1.049,2.289l-0.15,0.156c0,0.029 0.081,0.047 0.255,0.047c0.035,1.02 -0.435,2.26 -1.408,3.719l-0.104,6.572c-0.202,0.973 -0.336,1.836 -0.405,2.594h0.203c1.97,-2.422 4.514,-3.633 7.637,-3.633c2.954,0 5.04,0.957 6.263,2.869c0.238,0.736 0.359,1.518 0.359,2.346C57.069,46.607 56.415,48.711 55.117,51.059L55.117,51.059zM50.452,48.711c2.092,-0.369 3.616,-0.893 4.566,-1.559c-0.093,-0.342 -0.308,-0.717 -0.649,-1.141c-0.348,-0.301 -0.695,-0.637 -1.031,-1.002c-0.938,-0.76 -2.19,-1.137 -3.755,-1.137c-1.761,0 -3.273,0.297 -4.53,0.881c-0.985,0.307 -1.889,1.02 -2.718,2.145c-1.425,1.9 -2.138,2.867 -2.138,2.902C43.708,49.662 47.121,49.303 50.452,48.711z" id="path_0"/><path fill="#000000" d="M36.876,54.859c-2.815,0.023 -5.058,-0.893 -6.721,-2.752c-1.164,-1.322 -1.912,-3.17 -2.242,-5.551c-0.168,-2.127 -0.359,-4.225 -0.579,-6.299c-0.087,-1.83 -0.371,-5.301 -0.847,-10.4c-0.347,-4.201 -0.533,-7.625 -0.556,-10.271c0.022,-0.309 0.156,-0.73 0.405,-1.275c0.296,-0.098 0.563,-0.156 0.8,-0.168c0.452,-0.023 1.031,0.145 1.744,0.51c0.852,0.418 1.391,0.678 1.628,0.783c0.399,0.236 0.812,0.492 1.239,0.764c0.436,0.266 0.615,0.619 0.545,1.049c-0.318,0.012 -0.799,-0.109 -1.442,-0.365c-0.644,-0.254 -1.13,-0.383 -1.46,-0.383c-0.342,0.023 -0.678,0.174 -1.02,0.441l-0.423,0.563c0.451,8.621 0.961,15.313 1.529,20.064c-0.035,0.404 -0.047,0.822 -0.035,1.24c0.104,3.088 1.258,5.289 3.465,6.604c1.275,0.486 2.602,0.73 3.969,0.742V54.859z" id="path_1"/><path fill="#399121" d="M45.616,25.66l1.055,-3.141l10.232,-4.496c0.139,-0.035 0.203,-0.018 0.203,0.051c0,0.035 -0.018,0.117 -0.053,0.256l-1.373,3.256l-9.826,4.398c-0.128,0.012 -0.203,0.012 -0.238,0C45.57,25.914 45.57,25.811 45.616,25.66z" id="path_2"/><path fill="#399121" d="M45.616,25.66l1.055,-3.141l10.232,-4.496c0.139,-0.035 0.203,-0.018 0.203,0.051c0,0.035 -0.018,0.117 -0.053,0.256l-1.373,3.256l-9.826,4.398c-0.128,0.012 -0.203,0.012 -0.238,0C45.57,25.914 45.57,25.811 45.616,25.66z" id="path_3"/><path fill="#399121" d="M45.616,21.129l1.055,-3.141l10.232,-4.496c0.139,-0.035 0.203,-0.018 0.203,0.053c0,0.027 -0.018,0.115 -0.053,0.254l-1.373,3.256l-9.826,4.398c-0.128,0.035 -0.203,0.035 -0.238,0C45.57,21.383 45.57,21.279 45.616,21.129z" id="path_4"/></svg>