<svg id="vector" xmlns="http://www.w3.org/2000/svg" width="75" height="67" viewBox="0 0 83 73"><path fill="#000001" d="M37.741,31.188V31.02c0.568,-0.794 1.379,-1.871 2.445,-3.244h0.116c0.863,0.927 1.94,1.767 3.244,2.515c0.035,0.034 0.053,0.074 0.053,0.133l-2.358,3.192c-0.023,0.012 -0.063,0.018 -0.122,0.018c-0.069,0 -0.185,-0.029 -0.354,-0.087C39.949,33.175 38.94,32.387 37.741,31.188z" id="path_0"/><path fill="#000001" d="M45.437,43.871c-1.461,0.781 -3.054,1.17 -4.786,1.17c-1.536,0 -2.915,-0.301 -4.126,-0.898c-2.114,-1.053 -3.736,-2.605 -4.866,-4.664c-1.136,-2.063 -1.628,-4.287 -1.495,-6.686c0.237,-3.512 1.315,-6.177 3.239,-7.996c0.202,-0.237 0.394,-0.308 0.562,-0.209c0.18,0.07 0.272,0.267 0.272,0.597c0,0.371 -0.191,0.788 -0.58,1.24c-0.532,0.701 -0.811,1.072 -0.846,1.101c-0.996,1.768 -1.425,3.593 -1.292,5.47c0.725,2.092 1.965,3.813 3.726,5.157c1.762,1.35 3.749,2.021 5.968,2.021c2.028,0 4.045,-0.578 6.049,-1.738c2.011,-1.158 3.471,-2.602 4.393,-4.334c0.028,-0.168 0.046,-0.354 0.046,-0.544c0,-0.51 -0.209,-1.09 -0.626,-1.744c-0.371,-0.533 -0.741,-1.061 -1.101,-1.576c-1.327,-2.398 -1.936,-4.328 -1.837,-5.788c0.059,-0.725 0.238,-1.448 0.545,-2.185c0.069,-0.139 0.186,-0.237 0.354,-0.307c0.069,0.237 0.852,2.027 2.347,5.376c0.984,2.15 1.478,4.068 1.478,5.766c0,2.196 -0.748,4.311 -2.242,6.346C49.26,41.287 47.533,42.764 45.437,43.871z" id="path_1"/><path fill="#399121" d="M35.772,61.35l1.055,-3.105l10.232,-4.531c0.139,-0.023 0.202,-0.006 0.202,0.053c0,0.035 -0.017,0.121 -0.052,0.273l-1.373,3.256l-9.826,4.414c-0.128,0.012 -0.203,0.012 -0.238,0C35.727,61.641 35.727,61.523 35.772,61.35z" id="path_2"/><path fill="#399121" d="M35.772,56.818l1.055,-3.105l10.232,-4.529c0.139,-0.023 0.202,-0.006 0.202,0.051c0,0.029 -0.017,0.123 -0.052,0.268l-1.373,3.262l-9.826,4.414c-0.128,0.012 -0.203,0.012 -0.238,0C35.727,57.109 35.727,56.988 35.772,56.818z" id="path_3"/></svg>