<svg id="vector" xmlns="http://www.w3.org/2000/svg" width="75" height="67" viewBox="0 0 83 73"><path fill="#000000" d="M36.547,58.103c-0.95,0.033 -1.772,0.133 -2.462,0.289c-0.156,-0.121 -0.238,-0.297 -0.238,-0.51c2.567,-0.975 5.841,-2.543 9.81,-4.711c-0.035,0.059 0.632,-0.336 1.987,-1.188c0.962,-0.742 1.628,-1.438 2.005,-2.086c0,-0.846 -0.128,-1.773 -0.377,-2.775c-0.394,-0.881 -0.903,-1.814 -1.523,-2.799l0.521,-4.982h0.29c0.996,2.271 1.599,3.91 1.802,4.912c0.475,1.912 0.678,3.605 0.608,5.088c-0.012,0.928 -0.191,2.018 -0.545,3.273c-0.765,2.393 -2.393,3.969 -4.867,4.729C42.382,57.702 40.042,57.956 36.547,58.103z" id="path_0"/><path fill="#399121" d="M45.573,13.188c-0.411,0.475 -1.124,1.158 -2.144,2.051c-1.014,0.898 -1.727,1.639 -2.138,2.225c-0.632,0.904 -0.956,1.588 -0.968,2.039c0,0.324 0.052,0.592 0.156,0.795c0.11,0.248 0.383,0.504 0.812,0.764c0.104,-0.068 0.243,-0.336 0.429,-0.811c0.133,-0.365 0.301,-0.545 0.51,-0.545c0.087,0 0.186,0.012 0.284,0.035c0.475,0.475 0.695,1.049 0.666,1.727c0.012,0.59 -0.156,1.072 -0.504,1.438c-0.342,0.369 -0.678,0.602 -0.991,0.705c-0.318,0.1 -0.567,0.141 -0.747,0.117c-1.043,0 -1.681,-0.598 -1.918,-1.797c-0.035,-0.51 -0.052,-1.055 -0.052,-1.633c0.816,-3.361 3.019,-6.039 6.604,-8.031v-0.053c0.203,0.035 0.302,0.105 0.302,0.209c0,0.059 -0.047,0.18 -0.15,0.365C45.62,12.974 45.573,13.106 45.573,13.188z" id="path_1"/><path fill="#399121" d="M40.081,27.181l-0.933,0.086l-0.186,-0.289c3.25,-1.697 5.759,-3.309 7.538,-4.838c-0.592,-0.203 -0.997,-0.424 -1.223,-0.66c-0.614,-0.418 -0.922,-1.131 -0.922,-2.139c-0.046,-2.045 0.684,-3.574 2.196,-4.582c0.498,-0.383 1.298,-0.477 2.398,-0.273c1.153,0.627 1.732,1.373 1.732,2.26c0.296,3.35 -1.906,6.367 -6.594,9.063C42.606,26.474 41.274,26.931 40.081,27.181L40.081,27.181zM48.777,19.63c0.423,-0.174 0.632,-0.457 0.632,-0.869c0,-0.711 -0.307,-1.238 -0.916,-1.576c-0.625,-0.26 -1.32,-0.271 -2.091,-0.033c-0.51,0.371 -0.771,0.725 -0.782,1.049c-0.029,0.318 0.196,0.764 0.684,1.344c0.475,0.227 0.846,0.342 1.118,0.342C47.787,19.962 48.239,19.88 48.777,19.63z" id="path_2"/></svg>