<svg id="vector" xmlns="http://www.w3.org/2000/svg" width="75" height="67" viewBox="0 0 83 73"><path fill="#000001" d="M39.303,56.796c-0.95,0.035 -1.772,0.133 -2.462,0.291c-0.157,-0.123 -0.238,-0.297 -0.238,-0.512c2.567,-0.973 5.841,-2.543 9.81,-4.709c-0.035,0.057 0.632,-0.336 1.987,-1.189c0.962,-0.74 1.628,-1.436 2.005,-2.084c0,-0.846 -0.128,-1.773 -0.377,-2.775c-0.394,-0.881 -0.903,-1.814 -1.523,-2.799l0.521,-4.982h0.289c0.997,2.27 1.6,3.91 1.803,4.912c0.475,1.912 0.678,3.604 0.608,5.088c-0.012,0.926 -0.191,2.016 -0.545,3.273c-0.765,2.393 -2.393,3.969 -4.867,4.729C45.138,56.397 42.797,56.651 39.303,56.796z" id="path_0"/><path fill="#0048F3" d="M33.307,47.462c-0.035,1.096 -0.209,2.086 -0.527,2.973c-0.359,0.563 -0.626,0.846 -0.794,0.846c-0.186,0.012 -0.267,-0.277 -0.255,-0.863c-0.284,-6.35 -0.684,-11.809 -1.188,-16.379c-0.237,-2.254 -0.562,-4.104 -0.968,-5.551c-0.173,-0.557 -0.266,-1.072 -0.289,-1.547c-0.012,-0.881 0.122,-1.9 0.405,-3.055l0.8,-2.955c0.099,-0.092 0.209,-0.139 0.318,-0.139c0.14,0 0.238,0.191 0.29,0.58c0.047,0.527 0.11,0.846 0.197,0.955c0.087,0.111 0.394,1.02 0.927,2.74c0.336,1.119 0.753,2 1.24,2.648c0.028,0.215 0.046,0.424 0.046,0.627c0.023,0.428 -0.093,1.02 -0.348,1.771c-0.255,0.754 -0.423,1.275 -0.516,1.57l-0.122,0.51L33.307,47.462z" id="path_1"/><path fill="#399121" d="M42.227,28.099l1.055,-3.141l10.232,-4.496c0.139,-0.035 0.202,-0.018 0.202,0.053c0,0.035 -0.017,0.115 -0.052,0.254l-1.373,3.258l-9.827,4.396c-0.127,0.012 -0.202,0.012 -0.237,0C42.181,28.353 42.181,28.249 42.227,28.099z" id="path_2"/><path fill="#399121" d="M42.227,28.099l1.055,-3.141l10.232,-4.496c0.139,-0.035 0.202,-0.018 0.202,0.053c0,0.035 -0.017,0.115 -0.052,0.254l-1.373,3.258l-9.827,4.396c-0.127,0.012 -0.202,0.012 -0.237,0C42.181,28.353 42.181,28.249 42.227,28.099z" id="path_3"/><path fill="#399121" d="M42.227,23.567l1.055,-3.141l10.232,-4.496c0.139,-0.035 0.202,-0.018 0.202,0.053c0,0.029 -0.017,0.115 -0.052,0.254l-1.373,3.258l-9.827,4.396c-0.127,0.035 -0.202,0.035 -0.237,0C42.181,23.823 42.181,23.718 42.227,23.567z" id="path_4"/></svg>