<svg id="vector" xmlns="http://www.w3.org/2000/svg" width="75" height="67" viewBox="0 0 83 73"><path fill="#000000" d="M50.952,54.002c-2.092,0.359 -4.091,0.359 -5.991,0c-0.116,0 -0.238,-0.012 -0.365,-0.029c-0.134,-0.018 -0.313,-0.041 -0.539,-0.074c-0.226,-0.035 -0.417,-0.053 -0.573,-0.053c-0.238,0 -0.424,0.15 -0.563,0.439c-0.272,0.545 -0.735,1.328 -1.391,2.348c-0.33,0 -0.51,-0.047 -0.544,-0.139c-0.099,-0.43 -0.012,-0.998 0.271,-1.693c0.284,-0.701 0.424,-1.164 0.424,-1.408c-1.084,-1.1 -1.75,-1.963 -1.987,-2.588c-0.238,-0.633 -0.406,-1.033 -0.505,-1.207c-0.226,0.662 -0.782,1.385 -1.657,2.174c-0.875,0.793 -2.016,1.229 -3.418,1.309v-4.688c1.142,0.105 2.375,-0.207 3.696,-0.932c1.089,-0.939 1.634,-1.9 1.634,-2.887c0,0 0.116,-0.139 0.354,-0.41c0.168,-0.168 0.377,-0.203 0.626,-0.1c0.174,0.238 0.284,0.73 0.336,1.479c0.047,0.748 0.209,1.258 0.481,1.529c0.915,1.152 1.877,1.68 2.885,1.576c0.487,-0.893 0.985,-1.779 1.495,-2.666c0.597,-1.043 1.391,-2.242 2.376,-3.609c0.984,-1.361 2.804,-2.16 5.463,-2.387c1.495,0 2.886,0.521 4.178,1.564c1.46,1.188 2.017,2.549 1.663,4.078c-0.562,2.684 -1.31,4.555 -2.236,5.621C55.841,52.641 53.801,53.557 50.952,54.002L50.952,54.002zM57.521,47.311c-0.208,-0.807 -0.66,-1.396 -1.361,-1.785c-0.301,-0.203 -1.002,-0.486 -2.086,-0.846c-0.724,-0.412 -1.836,-0.527 -3.325,-0.359c-2.063,0.904 -3.639,2.266 -4.74,4.072c0.035,0.105 -0.005,0.209 -0.127,0.309c-0.116,0.104 -0.174,0.186 -0.174,0.254c0,0.035 0.018,0.07 0.047,0.104c1.101,0.227 2.242,0.338 3.43,0.338c2.851,0 5.324,-0.545 7.416,-1.629L57.521,47.311z" id="path_0"/><path fill="#FF0000" d="M34.542,53.086c-2.815,0.023 -5.058,-0.893 -6.721,-2.752c-1.165,-1.32 -1.912,-3.17 -2.242,-5.551c-0.169,-2.125 -0.359,-4.223 -0.58,-6.297c-0.087,-1.832 -0.37,-5.303 -0.846,-10.4c-0.348,-4.201 -0.533,-7.625 -0.556,-10.273c0.022,-0.307 0.156,-0.73 0.405,-1.275c0.295,-0.098 0.562,-0.156 0.799,-0.168c0.453,-0.023 1.032,0.146 1.745,0.51c0.851,0.418 1.39,0.678 1.628,0.783c0.399,0.238 0.811,0.492 1.239,0.764c0.435,0.268 0.614,0.621 0.545,1.049c-0.318,0.012 -0.8,-0.109 -1.442,-0.363c-0.644,-0.256 -1.13,-0.383 -1.461,-0.383c-0.342,0.023 -0.678,0.174 -1.02,0.439l-0.423,0.563c0.452,8.621 0.962,15.314 1.53,20.064c-0.035,0.406 -0.047,0.822 -0.035,1.24c0.104,3.088 1.257,5.289 3.465,6.605c1.274,0.486 2.602,0.73 3.969,0.74V53.086z" id="path_1"/><path fill="#399121" d="M42.227,28.1l1.055,-3.141l10.232,-4.496c0.139,-0.035 0.202,-0.018 0.202,0.051c0,0.035 -0.017,0.117 -0.052,0.256l-1.373,3.256l-9.827,4.398c-0.127,0.012 -0.202,0.012 -0.237,0C42.181,28.354 42.181,28.25 42.227,28.1z" id="path_2"/><path fill="#399121" d="M42.227,28.1l1.055,-3.141l10.232,-4.496c0.139,-0.035 0.202,-0.018 0.202,0.051c0,0.035 -0.017,0.117 -0.052,0.256l-1.373,3.256l-9.827,4.398c-0.127,0.012 -0.202,0.012 -0.237,0C42.181,28.354 42.181,28.25 42.227,28.1z" id="path_3"/><path fill="#399121" d="M42.227,23.568l1.055,-3.141l10.232,-4.496c0.139,-0.035 0.202,-0.018 0.202,0.053c0,0.027 -0.017,0.115 -0.052,0.254l-1.373,3.256l-9.827,4.398c-0.127,0.035 -0.202,0.035 -0.237,0C42.181,23.822 42.181,23.719 42.227,23.568z" id="path_4"/><path fill="#000000" d="M42.666,34.584v-0.168c0.567,-0.795 1.379,-1.871 2.445,-3.244h0.116c0.862,0.926 1.94,1.766 3.244,2.514c0.035,0.035 0.052,0.076 0.052,0.133l-2.357,3.193c-0.023,0.012 -0.064,0.018 -0.122,0.018c-0.069,0 -0.186,-0.029 -0.354,-0.088C44.874,36.57 43.865,35.783 42.666,34.584z" id="path_5"/></svg>