<svg id="vector" xmlns="http://www.w3.org/2000/svg" width="75" height="67" viewBox="0 0 83 73"><path fill="#000000" d="M32.889,33.003c0.104,0 0.25,-0.092 0.441,-0.277c0.195,-0.191 0.375,-0.262 0.543,-0.215c0.059,0.395 -0.098,0.852 -0.457,1.373c-0.51,0.748 -0.799,1.199 -0.863,1.361c-1.09,1.738 -1.605,3.459 -1.547,5.158c0.082,2.027 1.025,3.84 2.834,5.439c1.813,1.6 3.754,2.457 5.828,2.572c0.521,0 1.037,0 1.547,0c2.543,-0.092 5.094,-0.764 7.643,-2.016c0.539,-0.424 1.102,-0.834 1.68,-1.24c0.643,-0.521 1.031,-1.09 1.152,-1.697c-0.156,-3.43 -0.578,-7.84 -1.256,-13.234c-0.857,-7.352 -1.385,-11.918 -1.576,-13.691c0.086,-1.176 0.342,-2.867 0.764,-5.074h0.152c0.26,1.008 0.734,2.484 1.424,4.426c0.129,0.4 0.551,1.17 1.27,2.324c0.631,0.949 0.961,1.732 0.996,2.346c0.012,0.453 -0.104,0.916 -0.348,1.391c0,0.336 -0.109,0.725 -0.324,1.152c-0.359,0.645 -0.557,1.021 -0.59,1.119c0.086,1.461 0.307,4.334 0.643,8.621c0.271,3.326 0.445,5.922 0.516,7.787c0.047,2.48 -0.689,4.814 -2.195,7.012c-1.514,2.189 -3.426,3.748 -5.748,4.664c-0.504,0.324 -1.883,0.713 -4.119,1.152c-4.133,0.25 -7.492,-1.344 -10.082,-4.785c-1.031,-1.791 -1.588,-3.83 -1.67,-6.131c-0.104,-3.291 0.695,-6.066 2.395,-8.314L32.889,33.003z" id="path_0"/><path fill="#399121" d="M35.773,65.659l1.055,-3.105l10.232,-4.531c0.139,-0.023 0.201,-0.006 0.201,0.053c0,0.035 -0.016,0.121 -0.051,0.271l-1.373,3.258l-9.828,4.414c-0.127,0.012 -0.201,0.012 -0.236,0C35.727,65.948 35.727,65.833 35.773,65.659z" id="path_1"/><path fill="#399121" d="M35.773,61.128l1.055,-3.105l10.232,-4.531c0.139,-0.023 0.201,-0.006 0.201,0.053c0,0.029 -0.016,0.121 -0.051,0.268l-1.373,3.262l-9.828,4.414c-0.127,0.012 -0.201,0.012 -0.236,0C35.727,61.419 35.727,61.296 35.773,61.128z" id="path_2"/></svg>