<svg id="vector" xmlns="http://www.w3.org/2000/svg" width="75" height="67" viewBox="0 0 83 73"><path fill="#002C95" d="M38.02,34.055v-0.169c0.568,-0.793 1.379,-1.871 2.445,-3.244h0.116c0.863,0.927 1.94,1.768 3.244,2.515c0.035,0.035 0.053,0.075 0.053,0.134l-2.358,3.191c-0.023,0.012 -0.063,0.018 -0.122,0.018c-0.069,0 -0.185,-0.028 -0.354,-0.087C40.228,36.042 39.219,35.254 38.02,34.055z" id="path_0"/><path fill="#0032AA" d="M45.437,46.871c-1.46,0.781 -3.054,1.17 -4.786,1.17c-1.535,0 -2.914,-0.301 -4.125,-0.898c-2.115,-1.053 -3.737,-2.605 -4.867,-4.664c-1.136,-2.063 -1.628,-4.287 -1.495,-6.686c0.237,-3.512 1.315,-6.177 3.239,-7.996c0.202,-0.237 0.394,-0.308 0.562,-0.209c0.18,0.07 0.272,0.267 0.272,0.597c0,0.371 -0.191,0.788 -0.579,1.24c-0.533,0.701 -0.812,1.072 -0.846,1.101c-0.997,1.768 -1.426,3.593 -1.292,5.47c0.724,2.092 1.964,3.813 3.725,5.157c1.762,1.35 3.749,2.021 5.969,2.021c2.027,0 4.044,-0.578 6.049,-1.738c2.01,-1.158 3.471,-2.602 4.392,-4.334c0.029,-0.168 0.046,-0.354 0.046,-0.544c0,-0.51 -0.208,-1.09 -0.625,-1.744c-0.371,-0.533 -0.742,-1.061 -1.102,-1.576c-1.326,-2.398 -1.935,-4.328 -1.836,-5.788c0.058,-0.725 0.237,-1.448 0.544,-2.185c0.069,-0.139 0.186,-0.237 0.354,-0.307c0.069,0.237 0.852,2.027 2.347,5.376c0.985,2.15 1.478,4.068 1.478,5.766c0,2.196 -0.747,4.311 -2.242,6.346C49.261,44.287 47.534,45.764 45.437,46.871z" id="path_1"/><path fill="#399121" d="M42.237,10.869c-0.411,0.475 -1.124,1.158 -2.144,2.051c-1.014,0.898 -1.727,1.64 -2.139,2.225c-0.631,0.904 -0.955,1.588 -0.967,2.04c0,0.324 0.052,0.591 0.156,0.794c0.11,0.249 0.383,0.504 0.811,0.765c0.104,-0.07 0.244,-0.336 0.43,-0.812c0.133,-0.365 0.301,-0.544 0.51,-0.544c0.087,0 0.186,0.011 0.283,0.034c0.476,0.476 0.695,1.049 0.667,1.727c0.012,0.591 -0.157,1.072 -0.504,1.438c-0.342,0.37 -0.679,0.602 -0.991,0.706c-0.318,0.099 -0.568,0.14 -0.747,0.116c-1.043,0 -1.681,-0.597 -1.918,-1.796c-0.035,-0.51 -0.053,-1.055 -0.053,-1.634c0.817,-3.361 3.019,-6.038 6.605,-8.031V9.896c0.203,0.035 0.302,0.104 0.302,0.209c0,0.058 -0.047,0.179 -0.151,0.364S42.237,10.788 42.237,10.869z" id="path_2"/><path fill="#399121" d="M36.744,24.861l-0.933,0.087l-0.185,-0.29c3.25,-1.697 5.759,-3.308 7.537,-4.838c-0.591,-0.202 -0.996,-0.423 -1.223,-0.66c-0.613,-0.417 -0.921,-1.13 -0.921,-2.138c-0.046,-2.046 0.684,-3.575 2.196,-4.583c0.498,-0.383 1.298,-0.476 2.398,-0.272c1.153,0.626 1.732,1.373 1.732,2.26c0.296,3.349 -1.906,6.367 -6.594,9.062C39.271,24.154 37.938,24.612 36.744,24.861L36.744,24.861zM45.441,17.312c0.423,-0.174 0.632,-0.457 0.632,-0.869c0,-0.712 -0.308,-1.239 -0.916,-1.576c-0.625,-0.26 -1.321,-0.271 -2.091,-0.034c-0.511,0.371 -0.771,0.725 -0.783,1.049c-0.028,0.318 0.197,0.765 0.685,1.344c0.475,0.227 0.846,0.342 1.118,0.342C44.451,17.642 44.902,17.561 45.441,17.312z" id="path_3"/></svg>