<svg id="vector" xmlns="http://www.w3.org/2000/svg" width="75" height="67" viewBox="0 0 83 73"><path fill="#000001" d="M38.629,39.739v-0.168c0.567,-0.794 1.379,-1.872 2.444,-3.245h0.116c0.863,0.927 1.94,1.767 3.244,2.515c0.035,0.035 0.053,0.075 0.053,0.133l-2.358,3.192c-0.022,0.011 -0.063,0.017 -0.121,0.017c-0.07,0 -0.186,-0.029 -0.354,-0.087C40.836,41.726 39.829,40.938 38.629,39.739z" id="path_0"/><path fill="#000001" d="M56.839,29.628c-1.825,1.165 -4.183,2.109 -7.08,2.833c-4.415,0.997 -8.158,1.483 -11.229,1.466c-3.071,-0.018 -5.458,-0.313 -7.155,-0.892c-1.698,-0.574 -3.188,-1.576 -4.462,-3.001c-1.101,-1.257 -1.744,-2.718 -1.936,-4.38c-0.249,-2.341 0.319,-4.867 1.715,-7.573c0.146,-0.133 0.29,-0.295 0.441,-0.481c0.145,-0.186 0.313,-0.267 0.492,-0.231l-0.018,0.411c-0.771,1.651 -1.188,3.123 -1.258,4.409c-0.034,0.452 -0.034,0.765 0,0.933c0.476,2.173 2.121,3.702 4.942,4.588c1.582,0.539 3.239,0.875 4.972,0.997c0.272,0.011 0.695,0.046 1.274,0.104c3.54,0.012 7.834,-0.405 12.88,-1.257c2.921,-0.544 5.001,-1.28 6.234,-2.208c-0.081,-0.371 -0.358,-0.793 -0.834,-1.263c-0.476,-0.469 -0.765,-0.892 -0.863,-1.263c-0.069,-1.495 0.018,-3.025 0.255,-4.583l0.203,-0.017c1.569,1.773 2.444,3.662 2.613,5.649C58.23,26.192 57.836,28.11 56.839,29.628z" id="path_1"/><path fill="#399121" d="M36.844,55.272l1.055,-3.106l10.232,-4.531c0.139,-0.023 0.202,-0.006 0.202,0.052c0,0.035 -0.017,0.122 -0.052,0.272l-1.373,3.256l-9.826,4.415c-0.128,0.012 -0.203,0.012 -0.238,0C36.798,55.562 36.798,55.446 36.844,55.272z" id="path_2"/><path fill="#399121" d="M36.844,50.741l1.055,-3.105l10.232,-4.531c0.139,-0.023 0.202,-0.006 0.202,0.052c0,0.029 -0.017,0.122 -0.052,0.266l-1.373,3.262l-9.826,4.415c-0.128,0.012 -0.203,0.012 -0.238,0C36.798,51.031 36.798,50.91 36.844,50.741z" id="path_3"/></svg>