<svg id="vector" xmlns="http://www.w3.org/2000/svg" width="75" height="67" viewBox="0 0 83 73"><path fill="#399121" d="M42.238,10.869c-0.412,0.475 -1.125,1.158 -2.145,2.051c-1.014,0.898 -1.727,1.641 -2.139,2.225c-0.631,0.904 -0.955,1.588 -0.967,2.039c0,0.326 0.053,0.592 0.156,0.795c0.109,0.25 0.383,0.504 0.811,0.766c0.105,-0.07 0.244,-0.338 0.43,-0.813c0.133,-0.365 0.301,-0.545 0.51,-0.545c0.086,0 0.186,0.012 0.283,0.035c0.475,0.475 0.695,1.049 0.666,1.727c0.012,0.592 -0.156,1.072 -0.504,1.438c-0.342,0.371 -0.678,0.602 -0.99,0.707c-0.318,0.098 -0.568,0.139 -0.748,0.115c-1.043,0 -1.68,-0.596 -1.918,-1.797c-0.033,-0.51 -0.051,-1.053 -0.051,-1.633c0.816,-3.361 3.018,-6.037 6.605,-8.031V9.896c0.201,0.033 0.301,0.104 0.301,0.207c0,0.059 -0.047,0.18 -0.15,0.365C42.283,10.654 42.238,10.789 42.238,10.869z" id="path_0"/><path fill="#399121" d="M36.744,24.861l-0.932,0.088l-0.186,-0.291c3.25,-1.697 5.758,-3.309 7.537,-4.838c-0.59,-0.203 -0.996,-0.422 -1.223,-0.66c-0.613,-0.416 -0.92,-1.129 -0.92,-2.139c-0.047,-2.045 0.684,-3.574 2.195,-4.582c0.498,-0.383 1.297,-0.475 2.398,-0.273c1.152,0.627 1.732,1.375 1.732,2.26c0.295,3.35 -1.906,6.369 -6.594,9.063C39.271,24.154 37.938,24.613 36.744,24.861L36.744,24.861zM45.441,17.313c0.424,-0.174 0.631,-0.459 0.631,-0.869c0,-0.713 -0.307,-1.24 -0.914,-1.576c-0.627,-0.262 -1.322,-0.273 -2.092,-0.035c-0.51,0.371 -0.771,0.725 -0.783,1.049c-0.029,0.318 0.197,0.766 0.684,1.344c0.477,0.227 0.846,0.342 1.119,0.342C44.451,17.643 44.902,17.561 45.441,17.313z" id="path_1"/><path fill="#000001" d="M46.605,25.92v-0.168c0.566,-0.793 1.379,-1.871 2.443,-3.244h0.117c0.221,0.236 0.822,0.725 1.818,1.459c0.477,0.354 0.957,0.707 1.443,1.072c0.545,-0.76 1.275,-1.721 2.189,-2.885h0.117c0.863,0.914 1.939,1.744 3.244,2.49c0.035,0.023 0.053,0.076 0.053,0.156l-2.377,3.176c-0.012,0.023 -0.045,0.029 -0.104,0.029c-0.082,0 -0.203,-0.023 -0.377,-0.082c-0.799,-0.375 -1.803,-1.164 -3.002,-2.375v-0.018l-2.086,2.799c-0.01,0.023 -0.045,0.035 -0.104,0.035c-0.08,0 -0.203,-0.029 -0.371,-0.088C48.807,27.908 47.805,27.119 46.605,25.92z" id="path_2"/><path fill="#000001" d="M48.928,21.029v-0.168c0.568,-0.793 1.385,-1.871 2.445,-3.238h0.121c0.846,0.928 1.93,1.756 3.24,2.492c0.023,0.033 0.033,0.086 0.033,0.156l-2.357,3.186c-0.023,0.012 -0.059,0.018 -0.104,0.018c-0.076,0 -0.197,-0.029 -0.354,-0.08C51.137,23.018 50.127,22.229 48.928,21.029z" id="path_3"/><path fill="#000001" d="M26.018,33.689c0.273,-0.18 0.412,-0.145 0.412,0.105c-0.307,0.666 -0.754,1.68 -1.344,3.035c-0.904,2.318 -1.355,4.275 -1.355,5.875c0,1.953 0.643,3.518 1.936,4.682c2.293,2.127 4.971,3.193 8.029,3.193c1.223,0 2.434,-0.186 3.633,-0.563c3.314,-1.084 5.736,-2.607 7.266,-4.578c0.453,-0.631 0.678,-1.344 0.678,-2.137c0,-0.916 -0.439,-2.307 -1.326,-4.172c-0.76,-0.633 -1.135,-1.629 -1.135,-2.984c0,-0.307 0.016,-0.766 0.051,-1.379c0.035,-0.607 0.053,-1.055 0.053,-1.332c0,-0.273 0.07,-0.678 0.221,-1.211c0.168,-0.035 0.266,0.027 0.301,0.197c0.035,0.162 0.07,0.26 0.104,0.295c0.771,1.223 2.041,2.021 3.818,2.393c2.23,0.133 3.895,-0.563 4.99,-2.086c0.33,-1.293 0.682,-2.307 1.053,-3.041c0.418,0.068 0.627,0.301 0.627,0.695c-0.029,0.66 -0.047,0.967 -0.047,0.938c0.439,1.664 1.24,2.672 2.393,3.037c1.188,0.336 2.15,0.225 2.885,-0.342c0.07,-0.135 0.029,-0.279 -0.121,-0.43c-0.145,-0.156 -0.203,-0.266 -0.168,-0.336l0.221,-4.514c0.248,-0.156 0.406,-0.221 0.475,-0.186c0.725,0.689 1.146,1.68 1.275,2.973c0.012,3.789 -0.551,6.264 -1.682,7.416c-0.852,0.307 -1.609,0.459 -2.275,0.459c-0.857,0 -1.641,-0.256 -2.342,-0.766c-0.926,-0.701 -1.477,-1.797 -1.645,-3.291c-0.33,0.301 -0.615,0.742 -0.852,1.303c-0.336,0.689 -0.58,1.137 -0.73,1.346c-1.176,1.223 -2.51,1.83 -4.004,1.83c-0.389,0 -0.766,-0.059 -1.137,-0.168c-0.033,0.348 -0.098,1.57 -0.189,3.668c-0.029,1.559 -0.273,2.752 -0.713,3.58c-1.188,2.781 -2.949,4.844 -5.297,6.178c-2.34,1.338 -4.768,2.004 -7.283,2.004c-3.742,0 -6.609,-1.414 -8.604,-4.236c-1.42,-2.039 -2.127,-4.414 -2.127,-7.131c0,-1.732 0.436,-3.762 1.299,-6.096c0.348,-0.725 0.73,-1.496 1.152,-2.324C24.93,34.768 25.434,34.131 26.018,33.689z" id="path_4"/></svg>