<svg id="vector" xmlns="http://www.w3.org/2000/svg" width="75" height="67" viewBox="0 0 83 73"><path fill="#000001" d="M38.177,44.671c-1.698,-0.76 -2.654,-2.793 -2.868,-6.096c-0.812,-12.562 -1.246,-19.381 -1.298,-20.453c0.11,-0.475 0.423,-0.695 0.944,-0.666c0.348,0 0.812,0.15 1.379,0.445c0.573,0.291 1.071,0.453 1.506,0.481c0.43,0.029 0.626,-0.128 0.592,-0.47c-1.936,-1.355 -3.662,-2.184 -5.18,-2.474c-0.343,-0.081 -0.626,0.04 -0.864,0.354c-0.081,1.675 -0.104,3.378 -0.069,5.11c0.035,2.051 0.191,5.128 0.47,9.236c0.283,4.107 0.452,7.207 0.504,9.299c0.162,2.613 0.51,4.652 1.061,6.113c0.56,1.398 1.431,2.511 2.614,3.337c0.591,-1.358 1.128,-2.788 1.598,-4.1C38.436,44.752 38.307,44.712 38.177,44.671z" id="path_0"/><path fill="#914d21" d="M41.862,45.181c-1.019,0.078 -2.118,-0.051 -3.297,-0.392c-0.47,1.312 -1.007,2.741 -1.598,4.1c0.542,0.379 1.15,0.697 1.823,0.956c3.599,0.215 5.969,-0.654 7.109,-2.613c1.021,-1.865 1.432,-3.98 1.24,-6.351c-0.035,-1.946 -0.377,-3.726 -1.037,-5.348c-0.608,0.782 -0.979,1.431 -1.112,1.935c-0.128,0.511 -0.069,1.311 0.18,2.399c0.168,0.44 0.336,0.892 0.492,1.356c0.203,0.59 0.313,1.071 0.324,1.441c0.249,0.818 -0.168,1.438 -1.239,1.867C43.954,44.874 42.992,45.087 41.862,45.181z" id="path_1"/><path fill="#914d21" d="M42.579,54.242c-1.304,-0.747 -2.381,-1.588 -3.244,-2.515h-0.116c-1.066,1.373 -1.877,2.451 -2.445,3.244v0.168c1.199,1.199 2.208,1.988 3.024,2.359c0.168,0.058 0.284,0.086 0.354,0.086c0.059,0 0.099,-0.006 0.122,-0.018l2.358,-3.191C42.631,54.317 42.614,54.276 42.579,54.242z" id="path_2"/><path fill="#399121" d="M39.565,31.397l1.022,-3.043l9.914,-4.356c0.135,-0.033 0.196,-0.017 0.196,0.051c0,0.034 -0.017,0.112 -0.051,0.247l-1.33,3.154l-9.521,4.262c-0.123,0.011 -0.196,0.011 -0.23,0C39.521,31.644 39.521,31.543 39.565,31.397L39.565,31.397zM39.565,27.007c-0.044,0.146 -0.044,0.248 0,0.314c0.034,0.034 0.107,0.034 0.23,0l9.521,-4.261l1.33,-3.155c0.034,-0.135 0.051,-0.219 0.051,-0.246c0,-0.068 -0.062,-0.085 -0.196,-0.051l-9.914,4.356L39.565,27.007z" id="path_3"/><path fill="#914d21" d="M47.978,54.242c-1.303,-0.747 -2.381,-1.588 -3.244,-2.515h-0.116c-1.065,1.373 -1.877,2.451 -2.444,3.244v0.168c1.199,1.199 2.207,1.988 3.024,2.359c0.167,0.058 0.283,0.086 0.354,0.086c0.058,0 0.098,-0.006 0.121,-0.018l2.358,-3.191C48.031,54.317 48.013,54.276 47.978,54.242z" id="path_4"/></svg>