<svg id="vector" xmlns="http://www.w3.org/2000/svg" width="75" height="67" viewBox="0 0 83 73"><path fill="#000001" d="M53.859,25.858c-0.104,0.271 -0.283,0.55 -0.545,0.834c-0.168,0.053 -0.295,0.018 -0.376,-0.121c-0.028,-0.07 -0.04,-0.209 -0.023,-0.424c0.018,-0.215 0.006,-0.359 -0.022,-0.423c0,-0.104 0.022,-0.255 0.063,-0.464c-0.336,-0.18 -0.694,-0.26 -1.065,-0.249c-0.354,0.028 -1.066,0.302 -2.138,0.812c-2.254,1.564 -3.871,3.024 -4.855,4.38c-1.043,1.495 -1.461,2.811 -1.258,3.958c0.678,0.822 1.918,1.199 3.721,1.117c2.021,-0.058 3.365,0.134 4.021,0.58c0.226,0.238 0.37,0.742 0.44,1.506c0.249,1.779 0.139,3.314 -0.336,4.607c-0.354,1.413 -1.205,3.117 -2.55,5.109c-1.64,1.831 -3.222,3.199 -4.733,4.108c-1.697,0.997 -3.396,1.541 -5.093,1.646c-1.258,0.092 -2.532,-0.081 -3.818,-0.51c-2.155,-0.73 -3.854,-1.959 -5.11,-3.697c-0.974,-1.326 -1.529,-3.141 -1.663,-5.451c-0.214,-3.373 0.498,-6.548 2.138,-9.537c0.545,-0.807 0.846,-1.246 0.916,-1.327c0.371,-0.394 0.775,-0.644 1.205,-0.747c0.035,0.51 -0.128,1.06 -0.475,1.65c-0.354,0.586 -0.684,1.136 -1.003,1.646c-1.009,2.172 -1.356,4.449 -1.055,6.842c0.614,1.698 1.61,3.111 3.001,4.248c1.385,1.141 2.943,1.777 4.676,1.912c0.621,0.104 1.281,0.127 1.982,0.068c1.564,-0.08 3.163,-0.516 4.797,-1.309c1.634,-0.788 2.979,-1.709 4.033,-2.746c0.463,-0.499 1.135,-1.246 2.021,-2.242c0.076,-0.169 0.076,-0.389 0,-0.65c-0.093,-0.214 -0.261,-0.33 -0.51,-0.354c-1.385,-0.04 -2.77,-0.086 -4.16,-0.139c-1.6,-0.203 -2.654,-0.933 -3.176,-2.189c-0.236,-0.486 -0.37,-1.084 -0.404,-1.785c-0.035,-0.557 -0.018,-1.269 0.046,-2.138c0.14,-1.136 0.214,-1.837 0.226,-2.108c0.464,-2.365 1.467,-4.625 3.02,-6.779c1.553,-2.156 3.406,-3.848 5.567,-5.07c0.476,-0.075 0.956,-0.168 1.442,-0.267c0.545,-0.069 0.985,0.099 1.327,0.511c0.226,0.348 0.354,0.735 0.388,1.17c0.012,0.406 -0.104,1.055 -0.348,1.941C53.93,24.665 53.824,25.36 53.859,25.858z" id="path_0"/><path fill="#399121" d="M42.237,10.87c-0.411,0.475 -1.124,1.158 -2.144,2.051c-1.014,0.898 -1.727,1.639 -2.139,2.225c-0.631,0.904 -0.955,1.588 -0.967,2.039c0,0.324 0.052,0.592 0.156,0.795c0.109,0.248 0.383,0.504 0.811,0.764c0.104,-0.069 0.244,-0.336 0.43,-0.811c0.133,-0.365 0.301,-0.545 0.51,-0.545c0.086,0 0.186,0.012 0.283,0.035c0.475,0.475 0.695,1.049 0.666,1.727c0.012,0.591 -0.156,1.072 -0.504,1.437c-0.342,0.371 -0.678,0.603 -0.99,0.707c-0.318,0.099 -0.568,0.14 -0.748,0.116c-1.043,0 -1.68,-0.598 -1.918,-1.797c-0.034,-0.51 -0.052,-1.055 -0.052,-1.633c0.817,-3.361 3.019,-6.038 6.605,-8.031V9.896c0.202,0.035 0.302,0.105 0.302,0.209c0,0.059 -0.047,0.18 -0.151,0.365S42.237,10.788 42.237,10.87z" id="path_1"/><path fill="#399121" d="M36.744,24.862l-0.933,0.086l-0.185,-0.289c3.25,-1.697 5.758,-3.309 7.537,-4.838c-0.591,-0.203 -0.996,-0.424 -1.223,-0.66c-0.613,-0.418 -0.921,-1.131 -0.921,-2.139c-0.046,-2.045 0.684,-3.574 2.196,-4.583c0.498,-0.382 1.297,-0.476 2.398,-0.272c1.152,0.626 1.732,1.373 1.732,2.26c0.295,3.35 -1.906,6.368 -6.594,9.063C39.271,24.155 37.938,24.612 36.744,24.862L36.744,24.862zM45.441,17.313c0.423,-0.174 0.631,-0.458 0.631,-0.869c0,-0.713 -0.307,-1.239 -0.915,-1.576c-0.626,-0.261 -1.321,-0.272 -2.091,-0.034c-0.511,0.371 -0.771,0.725 -0.783,1.049c-0.029,0.318 0.197,0.764 0.684,1.344c0.476,0.227 0.846,0.342 1.119,0.342C44.451,17.643 44.902,17.562 45.441,17.313z" id="path_2"/></svg>