<svg id="vector" xmlns="http://www.w3.org/2000/svg" width="75" height="67" viewBox="0 0 83 73"><path fill="#2b4ea1" d="M39.122,39.056v-0.168c0.567,-0.793 1.379,-1.871 2.444,-3.244h0.117c0.863,0.926 1.939,1.768 3.244,2.514c0.035,0.035 0.051,0.076 0.051,0.135l-2.357,3.191c-0.023,0.012 -0.064,0.018 -0.121,0.018c-0.07,0 -0.186,-0.029 -0.354,-0.088C41.33,41.044 40.321,40.255 39.122,39.056z" id="path_0"/><path fill="#2b4ea1" d="M28.078,36.849c1.143,-4.746 3.5,-8.205 7.075,-10.377c0.423,-0.336 1.071,-0.795 1.952,-1.373c-0.348,-0.191 -0.828,-0.303 -1.443,-0.336c-0.607,-0.035 -1.204,-0.064 -1.777,-0.088c-0.875,0.023 -1.75,0.035 -2.637,0.035c-0.95,0.156 -1.605,0.631 -1.965,1.426c-0.185,0.666 -0.486,1.105 -0.921,1.309c0.035,-1.459 0.567,-3.158 1.6,-5.094c0.724,-1.373 2.103,-2.057 4.143,-2.057c0.302,0 0.817,0.012 1.541,0.035s1.263,0.035 1.616,0.035c3.633,0.406 6.809,0.383 9.537,-0.07c0.227,0.023 0.563,-0.006 1.008,-0.086c0.453,-0.082 0.771,-0.121 0.963,-0.121c0.428,0 0.781,0.115 1.055,0.342c-0.174,0.313 -0.383,0.805 -0.633,1.471c-0.18,0.459 -0.371,0.928 -0.566,1.42c-0.197,0.492 -0.482,0.869 -0.859,1.129c-1.221,0.123 -3.816,0.807 -7.792,2.041c-2.851,1.211 -5.093,2.67 -6.722,4.379c-2.294,2.248 -3.533,4.711 -3.713,7.383c-0.284,1.518 0.127,2.979 1.234,4.379c0.875,1.258 2.021,2.301 3.447,3.123c2.908,1.826 7.004,2.736 12.289,2.736c1.576,0 4.025,-0.342 7.352,-1.021c0.133,0.035 0.336,0.006 0.609,-0.092c0.271,-0.098 0.451,-0.145 0.545,-0.145c0.18,0 0.289,0.168 0.324,0.51c0.063,0.203 -0.162,0.51 -0.678,0.916c-2.654,1.488 -4.631,2.484 -5.945,2.994c-2.295,0.916 -4.49,1.334 -6.588,1.252c-3.088,-0.133 -5.765,-0.701 -8.024,-1.697c-2.074,-0.881 -3.517,-2.051 -4.329,-3.512c-1.384,-2.357 -2.091,-4.49 -2.125,-6.402c0,-0.359 0.028,-1.42 0.086,-3.176C27.795,37.833 27.904,37.411 28.078,36.849z" id="path_1"/><path fill="#399121" d="M35.773,65.659l1.055,-3.105l10.232,-4.531c0.139,-0.023 0.201,-0.006 0.201,0.053c0,0.035 -0.018,0.121 -0.051,0.271l-1.373,3.256l-9.827,4.416c-0.128,0.012 -0.203,0.012 -0.237,0C35.727,65.948 35.727,65.833 35.773,65.659z" id="path_2"/><path fill="#399121" d="M35.773,61.128l1.055,-3.105l10.232,-4.531c0.139,-0.023 0.201,-0.006 0.201,0.053c0,0.029 -0.018,0.121 -0.051,0.266l-1.373,3.264l-9.827,4.414c-0.128,0.012 -0.203,0.012 -0.237,0C35.727,61.417 35.727,61.296 35.773,61.128z" id="path_3"/></svg>