<svg id="vector" xmlns="http://www.w3.org/2000/svg" width="75" height="67" viewBox="0 0 83 73"><path fill="#070300" d="M56.839,42.65c-1.824,1.165 -4.183,2.109 -7.08,2.833c-4.415,0.997 -8.157,1.483 -11.229,1.466c-3.071,-0.017 -5.458,-0.313 -7.155,-0.892c-1.698,-0.574 -3.187,-1.576 -4.462,-3.001c-1.101,-1.257 -1.744,-2.717 -1.935,-4.38c-0.25,-2.341 0.318,-4.867 1.715,-7.573c0.145,-0.133 0.289,-0.295 0.44,-0.48c0.145,-0.186 0.313,-0.267 0.492,-0.232l-0.018,0.411c-0.771,1.651 -1.188,3.123 -1.257,4.409c-0.035,0.452 -0.035,0.765 0,0.933c0.475,2.173 2.12,3.702 4.941,4.589c1.582,0.539 3.239,0.875 4.972,0.997c0.272,0.012 0.695,0.046 1.274,0.104c3.541,0.012 7.834,-0.405 12.881,-1.257c2.92,-0.544 5,-1.28 6.234,-2.207c-0.082,-0.371 -0.359,-0.794 -0.835,-1.263c-0.475,-0.47 -0.765,-0.893 -0.863,-1.263c-0.069,-1.495 0.018,-3.024 0.255,-4.583l0.203,-0.018c1.57,1.773 2.445,3.662 2.613,5.649C58.229,39.214 57.836,41.132 56.839,42.65L56.839,42.65zM38.629,52.761v-0.168c0.567,-0.794 1.379,-1.872 2.445,-3.245h0.115c0.863,0.927 1.941,1.767 3.245,2.515c0.034,0.035 0.052,0.075 0.052,0.133l-2.358,3.192c-0.022,0.012 -0.063,0.017 -0.121,0.017c-0.069,0 -0.186,-0.029 -0.354,-0.086C40.836,54.748 39.828,53.96 38.629,52.761z" id="path_0"/><path fill="#399121" d="M42.237,18.768c-0.412,0.475 -1.124,1.159 -2.144,2.051c-1.015,0.898 -1.727,1.64 -2.139,2.225c-0.632,0.903 -0.956,1.587 -0.968,2.039c0,0.325 0.053,0.591 0.157,0.794c0.109,0.249 0.382,0.504 0.811,0.765c0.104,-0.069 0.243,-0.336 0.429,-0.811c0.134,-0.365 0.302,-0.544 0.51,-0.544c0.087,0 0.186,0.012 0.284,0.034c0.475,0.476 0.695,1.049 0.666,1.727c0.012,0.591 -0.156,1.072 -0.504,1.437c-0.342,0.371 -0.678,0.602 -0.991,0.707c-0.318,0.099 -0.567,0.139 -0.747,0.116c-1.043,0 -1.68,-0.597 -1.918,-1.796c-0.034,-0.51 -0.052,-1.054 -0.052,-1.634c0.817,-3.361 3.019,-6.038 6.605,-8.031v-0.052c0.202,0.035 0.301,0.104 0.301,0.208c0,0.058 -0.046,0.179 -0.15,0.365S42.237,18.687 42.237,18.768L42.237,18.768zM36.744,32.76c1.193,-0.25 2.526,-0.707 4.01,-1.374c4.688,-2.694 6.889,-5.713 6.594,-9.062c0,-0.886 -0.58,-1.634 -1.732,-2.26c-1.102,-0.203 -1.9,-0.11 -2.399,0.272c-1.512,1.008 -2.242,2.538 -2.195,4.583c0,1.008 0.307,1.721 0.921,2.138c0.226,0.238 0.632,0.458 1.223,0.661c-1.779,1.529 -4.288,3.14 -7.538,4.838l0.186,0.29L36.744,32.76L36.744,32.76zM45.441,25.21c0.423,-0.174 0.631,-0.458 0.631,-0.869c0,-0.712 -0.307,-1.24 -0.915,-1.576c-0.626,-0.261 -1.321,-0.272 -2.092,-0.035c-0.51,0.371 -0.771,0.724 -0.782,1.048c-0.029,0.319 0.197,0.765 0.684,1.344c0.476,0.226 0.846,0.342 1.118,0.342C44.45,25.541 44.902,25.46 45.441,25.21z" id="path_1"/></svg>