<svg id="vector" xmlns="http://www.w3.org/2000/svg" width="75" height="67" viewBox="0 0 83 73"><path fill="#f06022" d="M42.238,6.068c-0.412,0.477 -1.125,1.16 -2.145,2.053c-1.014,0.896 -1.727,1.639 -2.139,2.225c-0.631,0.902 -0.955,1.588 -0.967,2.039c0,0.324 0.053,0.592 0.156,0.793c0.109,0.25 0.383,0.504 0.811,0.766c0.105,-0.07 0.244,-0.336 0.43,-0.811c0.133,-0.365 0.301,-0.545 0.51,-0.545c0.086,0 0.186,0.012 0.283,0.035c0.475,0.475 0.695,1.047 0.666,1.727c0.012,0.59 -0.156,1.07 -0.504,1.436c-0.342,0.371 -0.678,0.604 -0.99,0.707c-0.318,0.1 -0.568,0.139 -0.748,0.115c-1.043,0 -1.68,-0.596 -1.918,-1.795c-0.033,-0.51 -0.051,-1.055 -0.051,-1.635c0.816,-3.359 3.018,-6.037 6.605,-8.029V5.096c0.201,0.035 0.301,0.104 0.301,0.209c0,0.057 -0.047,0.18 -0.15,0.365C42.283,5.855 42.238,5.988 42.238,6.068z" id="path_0"/><path fill="#f06022" d="M36.744,20.063l-0.932,0.086l-0.186,-0.289c3.25,-1.697 5.758,-3.309 7.537,-4.838c-0.59,-0.203 -0.996,-0.424 -1.223,-0.662c-0.613,-0.416 -0.92,-1.129 -0.92,-2.137c-0.047,-2.045 0.684,-3.574 2.195,-4.584c0.498,-0.381 1.297,-0.475 2.398,-0.271c1.152,0.625 1.732,1.373 1.732,2.26c0.295,3.35 -1.906,6.367 -6.594,9.063C39.271,19.355 37.938,19.813 36.744,20.063L36.744,20.063zM45.441,12.512c0.424,-0.174 0.631,-0.457 0.631,-0.869c0,-0.713 -0.307,-1.24 -0.914,-1.576c-0.627,-0.26 -1.322,-0.271 -2.092,-0.033c-0.51,0.369 -0.771,0.723 -0.783,1.047c-0.029,0.32 0.197,0.766 0.684,1.346c0.477,0.225 0.846,0.342 1.119,0.342C44.451,12.842 44.902,12.762 45.441,12.512z" id="path_1"/><path fill="#399121" d="M28.078,46.906c1.143,-4.744 3.5,-8.203 7.076,-10.377c0.422,-0.336 1.07,-0.793 1.951,-1.373c-0.348,-0.191 -0.828,-0.301 -1.441,-0.336c-0.609,-0.035 -1.205,-0.064 -1.779,-0.086c-0.875,0.021 -1.75,0.033 -2.637,0.033c-0.949,0.156 -1.605,0.633 -1.965,1.426c-0.184,0.666 -0.486,1.107 -0.92,1.311c0.035,-1.461 0.566,-3.158 1.6,-5.094c0.723,-1.373 2.102,-2.057 4.143,-2.057c0.301,0 0.816,0.012 1.541,0.035c0.723,0.023 1.262,0.033 1.615,0.033c3.633,0.406 6.809,0.383 9.537,-0.068c0.227,0.023 0.563,-0.006 1.008,-0.088c0.453,-0.08 0.771,-0.121 0.963,-0.121c0.428,0 0.781,0.115 1.055,0.342c-0.174,0.313 -0.383,0.805 -0.633,1.473c-0.18,0.457 -0.369,0.926 -0.566,1.418c-0.197,0.494 -0.482,0.869 -0.857,1.131c-1.223,0.121 -3.818,0.805 -7.793,2.039c-2.852,1.211 -5.094,2.672 -6.723,4.381c-2.293,2.248 -3.533,4.711 -3.713,7.381c-0.283,1.518 0.127,2.979 1.234,4.381c0.875,1.258 2.021,2.301 3.447,3.123c2.908,1.824 7.006,2.734 12.289,2.734c1.576,0 4.027,-0.342 7.354,-1.02c0.133,0.035 0.336,0.006 0.607,-0.094c0.271,-0.098 0.451,-0.145 0.545,-0.145c0.18,0 0.289,0.168 0.324,0.51c0.064,0.203 -0.162,0.51 -0.678,0.916c-2.654,1.49 -4.629,2.486 -5.945,2.996c-2.293,0.916 -4.49,1.332 -6.588,1.252c-3.088,-0.135 -5.764,-0.701 -8.023,-1.699c-2.074,-0.881 -3.518,-2.051 -4.328,-3.51c-1.385,-2.359 -2.092,-4.49 -2.127,-6.402c0,-0.359 0.029,-1.42 0.086,-3.176C27.795,47.893 27.904,47.469 28.078,46.906z" id="path_2"/><path fill="#399121" d="M36.758,25.961v-0.168c0.568,-0.793 1.379,-1.871 2.445,-3.244h0.115c0.865,0.928 1.941,1.768 3.246,2.514c0.035,0.035 0.051,0.076 0.051,0.135l-2.357,3.191c-0.023,0.012 -0.064,0.018 -0.121,0.018c-0.07,0 -0.186,-0.029 -0.354,-0.086C38.965,27.949 37.957,27.16 36.758,25.961z" id="path_3"/></svg>