<svg id="vector" xmlns="http://www.w3.org/2000/svg" width="75" height="67" viewBox="0 0 83 73"><path fill="#000000" d="M40.832,54.859c-2.816,0.023 -5.059,-0.893 -6.722,-2.752c-1.164,-1.322 -1.911,-3.17 -2.242,-5.551c-0.168,-2.127 -0.358,-4.225 -0.579,-6.299c-0.087,-1.83 -0.371,-5.301 -0.846,-10.4c-0.348,-4.201 -0.533,-7.625 -0.557,-10.271c0.023,-0.309 0.157,-0.73 0.406,-1.275c0.295,-0.098 0.562,-0.156 0.799,-0.168c0.452,-0.023 1.032,0.145 1.744,0.51c0.852,0.418 1.391,0.678 1.628,0.783c0.4,0.236 0.812,0.492 1.24,0.764c0.435,0.268 0.614,0.619 0.545,1.049c-0.318,0.012 -0.8,-0.109 -1.443,-0.365c-0.643,-0.254 -1.13,-0.383 -1.46,-0.383c-0.342,0.023 -0.678,0.174 -1.02,0.441l-0.423,0.563c0.452,8.621 0.962,15.313 1.529,20.064c-0.034,0.404 -0.046,0.822 -0.034,1.24c0.104,3.088 1.257,5.289 3.465,6.604c1.274,0.486 2.602,0.73 3.969,0.742V54.859z" id="path_0"/><path fill="#000000" d="M49.348,52.994c-2.132,1.246 -5.11,1.865 -8.945,1.865v-4.693c5.296,0.082 9.148,-0.834 11.559,-2.734c0.035,-0.156 0.047,-0.301 0.047,-0.441c0,-0.475 -0.243,-0.869 -0.73,-1.188c-0.063,0.486 -0.516,0.846 -1.355,1.084c-0.62,0.174 -1.252,0.244 -1.883,0.209c-1.564,-0.105 -2.775,-0.621 -3.633,-1.547c-0.748,-1.084 -1.015,-2.133 -0.8,-3.141c0.33,-2.115 0.747,-3.441 1.257,-3.975c0.95,-0.893 1.976,-1.34 3.071,-1.34c2.063,0 3.54,1.223 4.432,3.668c0.499,1.264 0.748,2.742 0.748,4.428C53.115,48.932 51.857,51.533 49.348,52.994z" id="path_1"/><path fill="#000000" d="M41.162,33.154v-0.168c0.568,-0.793 1.379,-1.871 2.445,-3.244h0.115c0.221,0.238 0.823,0.725 1.819,1.459c0.476,0.354 0.956,0.707 1.443,1.072c0.544,-0.758 1.274,-1.721 2.189,-2.885h0.116c0.863,0.916 1.941,1.744 3.245,2.492c0.034,0.023 0.052,0.074 0.052,0.156l-2.376,3.174c-0.011,0.023 -0.046,0.029 -0.104,0.029c-0.081,0 -0.203,-0.023 -0.377,-0.08c-0.8,-0.377 -1.802,-1.166 -3.001,-2.377v-0.018l-2.086,2.799c-0.012,0.023 -0.047,0.035 -0.104,0.035c-0.081,0 -0.203,-0.029 -0.371,-0.086C43.364,35.143 42.361,34.354 41.162,33.154z" id="path_2"/><path fill="#399121" d="M37.803,19.781l1.055,-3.105l10.231,-4.531c0.14,-0.023 0.203,-0.006 0.203,0.053c0,0.033 -0.018,0.121 -0.053,0.271l-1.373,3.256l-9.826,4.416c-0.128,0.012 -0.203,0.012 -0.237,0C37.756,20.07 37.756,19.955 37.803,19.781z" id="path_3"/><path fill="#399121" d="M37.803,15.25l1.055,-3.105l10.231,-4.531c0.14,-0.023 0.203,-0.006 0.203,0.053c0,0.029 -0.018,0.121 -0.053,0.266l-1.373,3.262l-9.826,4.416c-0.128,0.012 -0.203,0.012 -0.237,0C37.756,15.539 37.756,15.418 37.803,15.25z" id="path_4"/></svg>