<svg id="vector" xmlns="http://www.w3.org/2000/svg" width="75" height="67" viewBox="0 0 83 73"><path fill="#399121" d="M42.237,10.869c-0.411,0.475 -1.124,1.158 -2.144,2.051c-1.014,0.898 -1.727,1.641 -2.139,2.225c-0.631,0.904 -0.955,1.588 -0.967,2.041c0,0.324 0.052,0.59 0.156,0.793c0.109,0.25 0.383,0.504 0.811,0.766c0.104,-0.07 0.244,-0.336 0.43,-0.813c0.133,-0.365 0.301,-0.543 0.51,-0.543c0.086,0 0.186,0.01 0.283,0.033c0.475,0.477 0.695,1.049 0.666,1.727c0.012,0.592 -0.156,1.072 -0.504,1.438c-0.342,0.371 -0.678,0.602 -0.99,0.707c-0.318,0.098 -0.568,0.139 -0.748,0.115c-1.043,0 -1.68,-0.596 -1.918,-1.795c-0.034,-0.51 -0.052,-1.055 -0.052,-1.635c0.817,-3.361 3.019,-6.037 6.605,-8.031V9.896c0.202,0.035 0.302,0.104 0.302,0.209c0,0.057 -0.047,0.178 -0.151,0.363S42.237,10.789 42.237,10.869z" id="path_0"/><path fill="#399121" d="M36.744,24.861l-0.933,0.088l-0.185,-0.289c3.25,-1.699 5.758,-3.309 7.537,-4.838c-0.591,-0.203 -0.996,-0.424 -1.223,-0.662c-0.613,-0.416 -0.921,-1.129 -0.921,-2.137c-0.046,-2.047 0.684,-3.576 2.196,-4.584c0.498,-0.383 1.297,-0.475 2.398,-0.271c1.152,0.625 1.732,1.373 1.732,2.26c0.295,3.348 -1.906,6.367 -6.594,9.061C39.271,24.154 37.938,24.613 36.744,24.861L36.744,24.861zM45.441,17.313c0.423,-0.174 0.631,-0.457 0.631,-0.869c0,-0.713 -0.307,-1.24 -0.915,-1.576c-0.626,-0.26 -1.321,-0.271 -2.091,-0.035c-0.511,0.371 -0.771,0.725 -0.783,1.049c-0.029,0.318 0.197,0.766 0.684,1.344c0.476,0.227 0.846,0.342 1.119,0.342C44.451,17.643 44.902,17.561 45.441,17.313z" id="path_1"/><path fill="#00af4c" d="M33.362,33.244h0.354c0.15,0.297 0.116,0.58 -0.099,0.854c-1.147,1.424 -1.941,3.094 -2.393,5.006c-0.07,0.439 -0.105,0.908 -0.105,1.408c0,2.92 1.078,5.127 3.229,6.621c1.958,1.391 4.131,2.086 6.518,2.086c2.022,0 3.951,-0.383 5.789,-1.152c2.045,-0.863 3.615,-2.021 4.698,-3.482c0.806,-1.084 1.171,-2.016 1.106,-2.781c-0.069,-0.545 -0.388,-1.275 -0.949,-2.189c-0.487,0.225 -1.234,0.539 -2.242,0.949c-2.551,0.029 -4.166,-0.648 -4.855,-2.039c-0.238,-0.439 -0.359,-0.945 -0.359,-1.512c0,-0.586 0.174,-1.367 0.51,-2.342c0.388,-1.152 0.613,-1.951 0.684,-2.393c0.203,-0.318 0.637,-0.742 1.303,-1.275c0.285,-0.092 0.563,-0.139 0.835,-0.139c0.903,0 1.935,0.436 3.089,1.305c1.98,1.842 2.972,4.508 2.972,7.99c0,3.354 -0.841,6.152 -2.515,8.389c-1.326,1.744 -2.979,3.152 -4.96,4.236c-1.976,1.076 -3.991,1.615 -6.037,1.615c-2.196,0 -4.178,-0.637 -5.944,-1.912c-2.955,-2.143 -4.433,-5.404 -4.433,-9.785c0,-1.732 0.255,-3.396 0.765,-4.988C30.686,36.727 31.699,35.238 33.362,33.244z" id="path_2"/><path fill="#00af4c" d="M41.098,27.168V27c0.567,-0.795 1.379,-1.873 2.445,-3.246h0.115c0.221,0.238 0.822,0.725 1.819,1.461c0.476,0.354 0.956,0.707 1.442,1.072c0.545,-0.76 1.275,-1.721 2.19,-2.887h0.116c0.863,0.916 1.941,1.744 3.244,2.492c0.035,0.023 0.053,0.076 0.053,0.156l-2.376,3.176c-0.011,0.023 -0.046,0.029 -0.104,0.029c-0.081,0 -0.203,-0.023 -0.377,-0.082c-0.799,-0.377 -1.801,-1.164 -3.001,-2.375v-0.018l-2.085,2.799c-0.012,0.021 -0.047,0.033 -0.105,0.033c-0.08,0 -0.202,-0.027 -0.37,-0.086C43.299,29.154 42.297,28.367 41.098,27.168z" id="path_3"/></svg>