<svg id="vector" xmlns="http://www.w3.org/2000/svg" width="75" height="67" viewBox="0 0 83 73"><path fill="#399121" d="M33.363,30.846h0.354c0.15,0.295 0.115,0.578 -0.099,0.852c-1.147,1.424 -1.941,3.094 -2.394,5.006c-0.069,0.439 -0.104,0.91 -0.104,1.408c0,2.92 1.077,5.127 3.228,6.621c1.958,1.391 4.131,2.086 6.518,2.086c2.021,0 3.951,-0.381 5.788,-1.152c2.046,-0.863 3.616,-2.021 4.699,-3.482c0.806,-1.084 1.171,-2.016 1.106,-2.781c-0.069,-0.545 -0.389,-1.273 -0.95,-2.189c-0.487,0.227 -1.233,0.539 -2.242,0.949c-2.55,0.029 -4.166,-0.648 -4.855,-2.039c-0.237,-0.439 -0.358,-0.943 -0.358,-1.512c0,-0.586 0.173,-1.367 0.509,-2.342c0.389,-1.152 0.614,-1.951 0.685,-2.393c0.202,-0.318 0.637,-0.742 1.303,-1.273c0.284,-0.094 0.563,-0.141 0.835,-0.141c0.903,0 1.935,0.436 3.088,1.305c1.981,1.842 2.973,4.508 2.973,7.99c0,3.354 -0.841,6.152 -2.515,8.389c-1.327,1.744 -2.979,3.152 -4.96,4.236c-1.976,1.078 -3.992,1.615 -6.037,1.615c-2.196,0 -4.178,-0.637 -5.944,-1.912c-2.955,-2.143 -4.433,-5.404 -4.433,-9.785c0,-1.732 0.255,-3.395 0.765,-4.988C30.686,34.328 31.7,32.838 33.363,30.846z" id="path_0"/><path fill="#399121" d="M41.097,24.768V24.6c0.568,-0.795 1.38,-1.871 2.445,-3.246h0.116c0.22,0.238 0.822,0.725 1.819,1.461c0.476,0.354 0.956,0.707 1.442,1.072c0.545,-0.76 1.275,-1.721 2.19,-2.885h0.115c0.864,0.914 1.941,1.742 3.245,2.49c0.035,0.023 0.053,0.076 0.053,0.156l-2.377,3.176c-0.011,0.023 -0.045,0.029 -0.104,0.029c-0.081,0 -0.203,-0.023 -0.377,-0.082c-0.799,-0.377 -1.802,-1.164 -3.001,-2.375v-0.018l-2.086,2.799c-0.011,0.023 -0.046,0.035 -0.104,0.035c-0.08,0 -0.203,-0.029 -0.371,-0.088C43.299,26.754 42.297,25.967 41.097,24.768z" id="path_1"/><path fill="#f06022" d="M35.773,65.66l1.055,-3.105l10.232,-4.531c0.139,-0.023 0.202,-0.006 0.202,0.051c0,0.035 -0.018,0.123 -0.052,0.273l-1.373,3.256l-9.826,4.416c-0.128,0.01 -0.203,0.01 -0.238,0C35.727,65.949 35.727,65.834 35.773,65.66z" id="path_2"/><path fill="#f06022" d="M35.773,61.129l1.055,-3.105l10.232,-4.531c0.139,-0.023 0.202,-0.006 0.202,0.053c0,0.027 -0.018,0.121 -0.052,0.266l-1.373,3.262l-9.826,4.416c-0.128,0.012 -0.203,0.012 -0.238,0C35.727,61.418 35.727,61.297 35.773,61.129z" id="path_3"/></svg>