<svg id="vector" xmlns="http://www.w3.org/2000/svg" width="75" height="67" viewBox="0 0 83 73"><path fill="#399121" d="M42.238,6.069c-0.412,0.475 -1.125,1.158 -2.145,2.051c-1.014,0.898 -1.727,1.639 -2.139,2.225c-0.631,0.904 -0.955,1.588 -0.967,2.039c0,0.324 0.053,0.592 0.156,0.795c0.109,0.248 0.383,0.504 0.811,0.764c0.105,-0.068 0.244,-0.336 0.43,-0.811c0.133,-0.365 0.301,-0.545 0.51,-0.545c0.086,0 0.186,0.012 0.283,0.035c0.475,0.475 0.695,1.049 0.666,1.727c0.012,0.59 -0.156,1.072 -0.504,1.438c-0.342,0.369 -0.678,0.602 -0.99,0.705c-0.318,0.1 -0.568,0.141 -0.748,0.117c-1.043,0 -1.68,-0.598 -1.918,-1.797c-0.033,-0.51 -0.051,-1.055 -0.051,-1.633c0.816,-3.361 3.018,-6.039 6.605,-8.031V5.095c0.201,0.035 0.301,0.105 0.301,0.209c0,0.059 -0.047,0.18 -0.15,0.365C42.283,5.854 42.238,5.987 42.238,6.069z" id="path_0"/><path fill="#399121" d="M36.744,20.062l-0.932,0.086l-0.186,-0.289c3.25,-1.697 5.758,-3.309 7.537,-4.838c-0.59,-0.203 -0.996,-0.424 -1.223,-0.66c-0.613,-0.418 -0.92,-1.131 -0.92,-2.139c-0.047,-2.045 0.684,-3.574 2.195,-4.582c0.498,-0.383 1.297,-0.477 2.398,-0.273c1.152,0.627 1.732,1.373 1.732,2.26c0.295,3.35 -1.906,6.367 -6.594,9.063C39.271,19.354 37.938,19.812 36.744,20.062L36.744,20.062zM45.441,12.511c0.424,-0.172 0.631,-0.457 0.631,-0.869c0,-0.711 -0.307,-1.238 -0.914,-1.574c-0.627,-0.262 -1.322,-0.273 -2.092,-0.035c-0.51,0.371 -0.771,0.725 -0.783,1.049c-0.029,0.318 0.197,0.764 0.684,1.344c0.477,0.227 0.846,0.342 1.119,0.342C44.451,12.843 44.902,12.761 45.441,12.511z" id="path_1"/><path fill="#000001" d="M39.123,41.456v-0.168c0.566,-0.793 1.379,-1.871 2.445,-3.244h0.115c0.863,0.926 1.941,1.766 3.244,2.514c0.035,0.035 0.053,0.076 0.053,0.133l-2.359,3.193c-0.021,0.012 -0.063,0.018 -0.121,0.018c-0.07,0 -0.186,-0.029 -0.354,-0.088C41.33,43.442 40.322,42.655 39.123,41.456z" id="path_2"/><path fill="#000001" d="M28.078,39.249c1.143,-4.746 3.5,-8.205 7.076,-10.377c0.422,-0.338 1.07,-0.795 1.951,-1.373c-0.348,-0.191 -0.828,-0.303 -1.441,-0.338c-0.609,-0.033 -1.205,-0.063 -1.779,-0.086c-0.875,0.023 -1.75,0.035 -2.637,0.035c-0.949,0.156 -1.605,0.631 -1.965,1.424c-0.184,0.668 -0.486,1.107 -0.92,1.311c0.035,-1.461 0.566,-3.158 1.6,-5.094c0.723,-1.373 2.102,-2.057 4.143,-2.057c0.301,0 0.816,0.012 1.541,0.035c0.723,0.023 1.262,0.035 1.615,0.035c3.633,0.406 6.809,0.383 9.537,-0.07c0.227,0.023 0.563,-0.006 1.008,-0.086c0.453,-0.082 0.771,-0.123 0.963,-0.123c0.428,0 0.781,0.117 1.055,0.342c-0.174,0.314 -0.383,0.807 -0.633,1.473c-0.18,0.457 -0.369,0.928 -0.566,1.42s-0.482,0.869 -0.857,1.129c-1.223,0.123 -3.818,0.807 -7.793,2.039c-2.852,1.211 -5.094,2.672 -6.723,4.381c-2.293,2.248 -3.533,4.711 -3.713,7.381c-0.283,1.52 0.127,2.979 1.234,4.381c0.875,1.258 2.021,2.301 3.447,3.123c2.908,1.826 7.006,2.734 12.289,2.734c1.576,0 4.027,-0.342 7.354,-1.02c0.133,0.035 0.336,0.006 0.607,-0.092c0.271,-0.1 0.451,-0.145 0.545,-0.145c0.18,0 0.289,0.168 0.324,0.51c0.064,0.203 -0.162,0.51 -0.678,0.916c-2.654,1.488 -4.629,2.484 -5.945,2.994c-2.293,0.916 -4.49,1.332 -6.588,1.252c-3.088,-0.133 -5.764,-0.701 -8.023,-1.697c-2.074,-0.881 -3.518,-2.051 -4.328,-3.512c-1.385,-2.357 -2.092,-4.49 -2.127,-6.402c0,-0.359 0.029,-1.42 0.086,-3.176C27.795,40.233 27.904,39.81 28.078,39.249z" id="path_3"/></svg>