<svg id="vector" xmlns="http://www.w3.org/2000/svg" width="75" height="67" viewBox="0 0 83 73"><path fill="#000001" d="M28.079,33.446c1.142,-4.745 3.5,-8.204 7.075,-10.377c0.423,-0.336 1.072,-0.794 1.953,-1.373c-0.348,-0.191 -0.829,-0.302 -1.443,-0.336c-0.608,-0.035 -1.205,-0.064 -1.778,-0.087c-0.875,0.022 -1.75,0.034 -2.636,0.034c-0.95,0.156 -1.605,0.632 -1.964,1.426c-0.185,0.666 -0.487,1.106 -0.921,1.31c0.035,-1.46 0.567,-3.158 1.599,-5.094c0.724,-1.373 2.103,-2.057 4.143,-2.057c0.301,0 0.817,0.012 1.541,0.035c0.724,0.022 1.263,0.034 1.617,0.034c3.633,0.406 6.808,0.383 9.536,-0.069c0.227,0.023 0.563,-0.006 1.009,-0.087c0.452,-0.081 0.771,-0.121 0.962,-0.121c0.429,0 0.782,0.115 1.055,0.342c-0.174,0.313 -0.383,0.805 -0.632,1.472c-0.18,0.458 -0.37,0.927 -0.567,1.419c-0.197,0.493 -0.481,0.869 -0.857,1.13c-1.223,0.122 -3.818,0.806 -7.793,2.04c-2.851,1.211 -5.093,2.671 -6.721,4.38c-2.294,2.248 -3.534,4.711 -3.714,7.382c-0.284,1.518 0.127,2.979 1.234,4.38c0.875,1.258 2.022,2.301 3.447,3.123c2.909,1.825 7.005,2.735 12.289,2.735c1.576,0 4.027,-0.342 7.354,-1.021c0.133,0.035 0.336,0.006 0.607,-0.093c0.272,-0.098 0.452,-0.145 0.545,-0.145c0.18,0 0.289,0.168 0.324,0.51c0.064,0.203 -0.162,0.51 -0.678,0.916c-2.653,1.489 -4.629,2.485 -5.945,2.995c-2.293,0.916 -4.49,1.333 -6.587,1.252c-3.088,-0.134 -5.765,-0.701 -8.025,-1.698c-2.074,-0.881 -3.517,-2.051 -4.328,-3.511c-1.385,-2.358 -2.092,-4.49 -2.126,-6.402c0,-0.359 0.029,-1.42 0.087,-3.176C27.795,34.432 27.905,34.009 28.079,33.446z" id="path_0"/><path fill="#3F51B5" d="M35.773,65.659l1.054,-3.105l10.233,-4.53c0.139,-0.023 0.202,-0.006 0.202,0.052c0,0.035 -0.017,0.122 -0.052,0.272l-1.373,3.256l-9.827,4.415c-0.127,0.012 -0.203,0.012 -0.237,0C35.727,65.949 35.727,65.833 35.773,65.659z" id="path_1"/><path fill="#3F51B5" d="M35.773,61.129l1.054,-3.105l10.233,-4.531c0.139,-0.023 0.202,-0.006 0.202,0.052c0,0.029 -0.017,0.122 -0.052,0.267l-1.373,3.263l-9.827,4.414c-0.127,0.012 -0.203,0.012 -0.237,0C35.727,61.418 35.727,61.297 35.773,61.129z" id="path_2"/></svg>