<svg id="vector" xmlns="http://www.w3.org/2000/svg" width="75" height="67" viewBox="0 0 83 73"><path fill="#3F51B5" d="M31.793,30.178L34,27.906c-1.102,-0.557 -2.028,-1.229 -2.787,-2.021c-0.904,-0.893 -1.355,-2.045 -1.355,-3.447c0,-1.287 0.451,-3.025 1.355,-5.209c1.315,-2.039 3.059,-3.008 5.244,-2.904c3.035,0.453 5.209,1.537 6.518,3.252c-0.109,0.18 -0.271,0.271 -0.492,0.271c-0.156,0 -0.371,-0.074 -0.643,-0.221c-0.359,-0.191 -0.592,-0.307 -0.695,-0.342c-0.829,-0.283 -1.716,-0.422 -2.666,-0.422c-2.219,0 -4.287,0.672 -6.211,2.021c-0.389,0.551 -0.58,0.863 -0.58,0.934c0,0.086 0.035,0.186 0.105,0.289c0.689,1.152 1.883,2.174 3.58,3.053c1.142,0.477 2.149,0.713 3.019,0.713c0.685,0 1.28,-0.121 1.802,-0.371c0.736,-0.068 1.842,-0.48 3.326,-1.238l3.447,-1.768c0.238,0.035 0.371,0.053 0.406,0.053c-0.07,0.498 -0.262,1.088 -0.574,1.777c-0.412,0.863 -0.654,1.449 -0.73,1.768c-1.113,0.666 -3.129,1.686 -6.061,3.059c-2.607,1.211 -4.496,2.295 -5.672,3.258c-1.547,1.471 -2.723,2.896 -3.512,4.281c-0.295,0.701 -0.591,1.807 -0.886,3.326c-0.348,3.123 0.938,5.584 3.87,7.387c2.039,1.287 4.52,2.156 7.439,2.596c2.59,0.295 5.43,0.301 8.518,0.018c0.498,0 1.234,-0.082 2.201,-0.238c0.967,-0.162 1.65,-0.236 2.063,-0.236c0.25,0 0.48,0.033 0.695,0.098c0,0 0.029,0.145 0.082,0.43c-1.697,1.297 -3.957,2.664 -6.791,4.09c-2.375,0.271 -4.334,0.406 -5.887,0.406c-4.595,0 -8.037,-1.078 -10.33,-3.234c-2.289,-2.154 -3.494,-5.156 -3.604,-9.004c0,-1.256 0.116,-2.596 0.353,-4.021C28.878,34.506 29.955,32.467 31.793,30.178z" id="path_0"/><path fill="#3F51B5" d="M33.502,9.447V9.279c0.567,-0.795 1.379,-1.873 2.445,-3.246h0.115c0.863,0.928 1.941,1.768 3.244,2.516c0.035,0.035 0.053,0.074 0.053,0.133l-2.358,3.193c-0.022,0.012 -0.063,0.018 -0.122,0.018c-0.068,0 -0.185,-0.029 -0.354,-0.088C35.709,11.434 34.701,10.646 33.502,9.447z" id="path_1"/><path fill="#f06022" d="M35.773,65.66l1.055,-3.105l10.232,-4.531c0.139,-0.023 0.201,-0.006 0.201,0.051c0,0.035 -0.018,0.123 -0.051,0.273l-1.373,3.256l-9.827,4.416c-0.128,0.01 -0.203,0.01 -0.237,0C35.727,65.949 35.727,65.834 35.773,65.66z" id="path_2"/><path fill="#f06022" d="M35.773,61.129l1.055,-3.105l10.232,-4.531c0.139,-0.023 0.201,-0.006 0.201,0.053c0,0.027 -0.018,0.121 -0.051,0.266l-1.373,3.262l-9.827,4.416c-0.128,0.012 -0.203,0.012 -0.237,0C35.727,61.418 35.727,61.297 35.773,61.129z" id="path_3"/></svg>