<svg id="vector" xmlns="http://www.w3.org/2000/svg" width="75" height="67" viewBox="0 0 83 73"><path fill="#000001" d="M31.792,30.178L34,27.906c-1.101,-0.557 -2.028,-1.229 -2.787,-2.021c-0.904,-0.893 -1.356,-2.045 -1.356,-3.447c0,-1.287 0.452,-3.025 1.356,-5.209c1.315,-2.039 3.059,-3.008 5.243,-2.903c3.037,0.452 5.209,1.536 6.518,3.251c-0.109,0.18 -0.271,0.271 -0.492,0.271c-0.156,0 -0.371,-0.074 -0.643,-0.22c-0.36,-0.191 -0.591,-0.308 -0.696,-0.342c-0.829,-0.284 -1.715,-0.423 -2.665,-0.423c-2.219,0 -4.288,0.672 -6.211,2.021c-0.388,0.551 -0.579,0.863 -0.579,0.934c0,0.086 0.035,0.186 0.104,0.289c0.689,1.153 1.883,2.173 3.581,3.054c1.141,0.476 2.149,0.713 3.019,0.713c0.684,0 1.28,-0.122 1.802,-0.371c0.736,-0.069 1.843,-0.481 3.326,-1.239l3.447,-1.768c0.238,0.035 0.371,0.053 0.406,0.053c-0.07,0.498 -0.262,1.088 -0.574,1.778c-0.411,0.862 -0.654,1.448 -0.73,1.767c-1.111,0.666 -3.129,1.687 -6.06,3.06c-2.607,1.211 -4.497,2.294 -5.673,3.257c-1.547,1.471 -2.723,2.896 -3.511,4.281c-0.296,0.701 -0.591,1.808 -0.887,3.326c-0.348,3.123 0.938,5.585 3.871,7.387c2.04,1.287 4.519,2.156 7.439,2.596c2.589,0.296 5.429,0.301 8.517,0.018c0.498,0 1.234,-0.081 2.201,-0.238c0.969,-0.162 1.652,-0.236 2.063,-0.236c0.25,0 0.481,0.034 0.695,0.098c0,0 0.029,0.145 0.082,0.43c-1.697,1.297 -3.957,2.664 -6.791,4.09c-2.375,0.272 -4.334,0.406 -5.887,0.406c-4.594,0 -8.036,-1.078 -10.331,-3.233c-2.289,-2.155 -3.494,-5.157 -3.604,-9.004c0,-1.258 0.116,-2.596 0.353,-4.021C28.877,34.506 29.956,32.467 31.792,30.178z" id="path_0"/><path fill="#3F51B5" d="M35.773,65.66l1.054,-3.106l10.233,-4.53c0.139,-0.023 0.202,-0.006 0.202,0.052c0,0.034 -0.017,0.122 -0.052,0.272l-1.373,3.256l-9.827,4.415c-0.127,0.012 -0.203,0.012 -0.237,0C35.727,65.949 35.727,65.834 35.773,65.66z" id="path_1"/><path fill="#3F51B5" d="M35.773,61.129l1.054,-3.105l10.233,-4.531c0.139,-0.023 0.202,-0.006 0.202,0.053c0,0.028 -0.017,0.121 -0.052,0.266l-1.373,3.262l-9.827,4.416c-0.127,0.012 -0.203,0.012 -0.237,0C35.727,61.418 35.727,61.297 35.773,61.129z" id="path_2"/></svg>