<svg id="vector" xmlns="http://www.w3.org/2000/svg" width="75" height="67" viewBox="0 0 83 73"><path fill="#000001" d="M50.16,51.119c-1.426,1.494 -2.845,2.474 -4.253,2.938c-1.408,0.463 -2.735,0.811 -3.98,1.037c-1.246,0.226 -2.469,0.395 -3.668,0.51c-0.359,0.035 -0.643,-0.018 -0.846,-0.156c0.168,-0.395 0.863,-0.881 2.086,-1.461c2.955,-1.425 6.391,-3.557 10.319,-6.396c0.318,-0.295 0.66,-0.596 1.025,-0.909c0.37,-0.313 0.556,-0.655 0.556,-1.025c0,-0.104 -0.052,-0.237 -0.145,-0.399c-0.099,-0.162 -0.214,-0.244 -0.348,-0.244c-0.104,0 -0.296,0.139 -0.573,0.424c-0.272,0.283 -0.499,0.405 -0.667,0.37c-0.84,0.423 -1.703,0.632 -2.596,0.632c-0.735,0 -1.401,-0.145 -1.987,-0.429c-0.875,-0.099 -1.668,-0.747 -2.393,-1.936c-0.296,-0.666 -0.44,-1.345 -0.44,-2.034c0,-0.613 0.145,-1.407 0.44,-2.393c0.301,-1.245 0.492,-2.08 0.556,-2.497c0.661,-1.222 1.495,-1.935 2.515,-2.138c0.343,-0.093 0.679,-0.139 1.021,-0.139c0.95,0 1.842,0.271 2.683,0.816c1.715,1.367 2.723,3.164 3.019,5.383C52.912,45.609 52.142,48.957 50.16,51.119z" id="path_0"/><path fill="#399121" d="M42.233,31.576l1.055,-3.141l10.232,-4.496c0.139,-0.035 0.202,-0.018 0.202,0.052c0,0.035 -0.017,0.116 -0.052,0.255l-1.373,3.256L42.471,31.9c-0.127,0.012 -0.202,0.012 -0.237,0C42.188,31.83 42.188,31.727 42.233,31.576z" id="path_1"/><path fill="#399121" d="M42.233,31.576l1.055,-3.141l10.232,-4.496c0.139,-0.035 0.202,-0.018 0.202,0.052c0,0.035 -0.017,0.116 -0.052,0.255l-1.373,3.256L42.471,31.9c-0.127,0.012 -0.202,0.012 -0.237,0C42.188,31.83 42.188,31.727 42.233,31.576z" id="path_2"/><path fill="#399121" d="M42.233,27.045l1.055,-3.141l10.232,-4.496c0.139,-0.035 0.202,-0.018 0.202,0.053c0,0.028 -0.017,0.115 -0.052,0.254l-1.373,3.257l-9.827,4.397c-0.127,0.035 -0.202,0.035 -0.237,0C42.188,27.299 42.188,27.195 42.233,27.045z" id="path_3"/><path fill="#CA1212" d="M33.3,44.057c-0.035,1.094 -0.209,2.085 -0.527,2.972c-0.359,0.562 -0.626,0.846 -0.794,0.846c-0.186,0.012 -0.267,-0.278 -0.255,-0.863c-0.284,-6.351 -0.684,-11.808 -1.188,-16.38c-0.238,-2.254 -0.563,-4.102 -0.969,-5.551c-0.174,-0.556 -0.266,-1.071 -0.289,-1.547c-0.012,-0.881 0.122,-1.9 0.405,-3.053l0.8,-2.955c0.099,-0.093 0.209,-0.139 0.318,-0.139c0.14,0 0.238,0.19 0.29,0.579c0.047,0.526 0.11,0.846 0.197,0.956c0.087,0.109 0.394,1.02 0.927,2.74c0.336,1.118 0.753,1.999 1.24,2.648c0.028,0.214 0.046,0.422 0.046,0.625c0.023,0.43 -0.093,1.02 -0.348,1.773c-0.255,0.753 -0.423,1.274 -0.516,1.57l-0.122,0.51L33.3,44.057z" id="path_4"/></svg>