<svg id="vector" xmlns="http://www.w3.org/2000/svg" width="75" height="67" viewBox="0 0 83 73"><path fill="#3F51B5" d="M42.237,8.47c-0.412,0.475 -1.125,1.158 -2.145,2.051c-1.014,0.898 -1.727,1.64 -2.138,2.225c-0.632,0.904 -0.956,1.588 -0.968,2.04c0,0.324 0.053,0.591 0.156,0.794c0.11,0.249 0.383,0.504 0.812,0.765c0.104,-0.07 0.243,-0.337 0.429,-0.812c0.133,-0.365 0.301,-0.545 0.51,-0.545c0.087,0 0.186,0.012 0.284,0.035c0.476,0.476 0.695,1.049 0.666,1.727c0.012,0.591 -0.156,1.072 -0.504,1.438c-0.342,0.37 -0.678,0.602 -0.991,0.706c-0.318,0.099 -0.567,0.14 -0.747,0.116c-1.043,0 -1.681,-0.597 -1.917,-1.796c-0.035,-0.51 -0.053,-1.055 -0.053,-1.634c0.816,-3.361 3.019,-6.038 6.605,-8.031V7.496c0.202,0.035 0.301,0.104 0.301,0.209c0,0.058 -0.047,0.179 -0.15,0.364C42.283,8.255 42.237,8.389 42.237,8.47z" id="path_0"/><path fill="#3F51B5" d="M36.744,22.462l-0.933,0.087l-0.186,-0.29c3.25,-1.697 5.76,-3.308 7.538,-4.838c-0.591,-0.202 -0.997,-0.423 -1.223,-0.66c-0.614,-0.417 -0.921,-1.13 -0.921,-2.138c-0.047,-2.046 0.684,-3.575 2.195,-4.583c0.498,-0.383 1.299,-0.476 2.398,-0.272c1.154,0.625 1.732,1.373 1.732,2.26c0.296,3.349 -1.906,6.367 -6.593,9.062C39.271,21.755 37.938,22.213 36.744,22.462L36.744,22.462zM45.44,14.912c0.424,-0.174 0.633,-0.458 0.633,-0.869c0,-0.712 -0.308,-1.239 -0.916,-1.576c-0.626,-0.26 -1.321,-0.271 -2.092,-0.034c-0.51,0.371 -0.771,0.725 -0.782,1.049c-0.028,0.318 0.196,0.765 0.684,1.344c0.476,0.227 0.847,0.342 1.118,0.342C44.45,15.242 44.902,15.161 45.44,14.912z" id="path_1"/><path fill="#000000" d="M28.079,44.507c1.141,-4.745 3.499,-8.204 7.074,-10.377c0.422,-0.336 1.071,-0.794 1.952,-1.373c-0.348,-0.191 -0.829,-0.302 -1.442,-0.336c-0.609,-0.035 -1.205,-0.064 -1.779,-0.087c-0.875,0.022 -1.75,0.034 -2.637,0.034c-0.949,0.156 -1.604,0.632 -1.963,1.426c-0.186,0.666 -0.487,1.106 -0.922,1.31c0.035,-1.46 0.568,-3.158 1.6,-5.094c0.725,-1.373 2.103,-2.057 4.143,-2.057c0.301,0 0.816,0.012 1.541,0.035c0.725,0.022 1.264,0.034 1.616,0.034c3.634,0.406 6.808,0.383 9.537,-0.069c0.226,0.023 0.562,-0.006 1.009,-0.087c0.451,-0.081 0.77,-0.121 0.961,-0.121c0.429,0 0.782,0.115 1.055,0.342c-0.174,0.313 -0.383,0.805 -0.631,1.472c-0.18,0.458 -0.371,0.927 -0.568,1.419c-0.197,0.493 -0.48,0.869 -0.857,1.13c-1.223,0.122 -3.818,0.806 -7.793,2.04c-2.851,1.211 -5.093,2.671 -6.721,4.38c-2.295,2.248 -3.535,4.711 -3.715,7.382c-0.283,1.518 0.128,2.979 1.234,4.38c0.875,1.258 2.022,2.301 3.447,3.123c2.909,1.825 7.006,2.735 12.289,2.735c1.576,0 4.027,-0.342 7.354,-1.021c0.133,0.035 0.336,0.006 0.607,-0.093c0.272,-0.098 0.452,-0.145 0.545,-0.145c0.18,0 0.29,0.168 0.324,0.51c0.064,0.203 -0.162,0.51 -0.678,0.916c-2.653,1.488 -4.629,2.485 -5.944,2.995c-2.294,0.916 -4.49,1.333 -6.588,1.251c-3.089,-0.133 -5.765,-0.7 -8.024,-1.697c-2.074,-0.881 -3.518,-2.051 -4.328,-3.511c-1.385,-2.358 -2.092,-4.49 -2.127,-6.402c0,-0.359 0.029,-1.42 0.088,-3.176C27.794,45.492 27.904,45.069 28.079,44.507z" id="path_2"/></svg>