<svg id="vector" xmlns="http://www.w3.org/2000/svg" width="75" height="67" viewBox="0 0 83 73"><path fill="#000000" d="M37.013,54.854c-2.815,0.023 -5.058,-0.893 -6.721,-2.752c-1.165,-1.321 -1.912,-3.17 -2.242,-5.551c-0.168,-2.127 -0.359,-4.224 -0.58,-6.298c-0.086,-1.831 -0.37,-5.302 -0.846,-10.4c-0.348,-4.201 -0.533,-7.625 -0.556,-10.273c0.022,-0.307 0.156,-0.729 0.405,-1.274c0.296,-0.099 0.563,-0.156 0.8,-0.168c0.452,-0.023 1.031,0.145 1.744,0.51c0.852,0.417 1.391,0.678 1.628,0.782c0.399,0.237 0.812,0.492 1.239,0.765c0.435,0.267 0.614,0.62 0.545,1.049c-0.318,0.012 -0.8,-0.11 -1.442,-0.365c-0.644,-0.255 -1.13,-0.382 -1.46,-0.382c-0.342,0.023 -0.678,0.174 -1.02,0.44l-0.423,0.562c0.451,8.622 0.961,15.313 1.529,20.065c-0.035,0.405 -0.047,0.822 -0.035,1.239c0.104,3.088 1.258,5.29 3.465,6.605c1.274,0.486 2.602,0.729 3.969,0.741V54.854z" id="path_0"/><path fill="#3F51B5" d="M36.584,54.849v-4.688c1.489,0.174 3.216,-0.04 5.174,-0.626c1.461,-0.272 3.587,-0.897 6.386,-1.883c-2.492,-1.663 -4.636,-2.497 -6.438,-2.497c-1.014,0 -1.964,0.243 -2.833,0.73c-0.272,0.104 -0.563,0.475 -0.863,1.118c-0.308,0.648 -0.748,0.897 -1.327,0.747c0.035,-0.44 0.504,-1.588 1.408,-3.447c1.223,-1.564 2.369,-2.347 3.43,-2.347c0.33,-0.023 0.644,-0.035 0.95,-0.035c1.361,0 3.708,0.713 7.046,2.133c3.192,1.391 5.666,2.016 7.416,1.883c-0.324,0.903 -0.644,1.802 -0.95,2.7c-0.383,1.014 -0.857,1.842 -1.425,2.474c-1.866,-0.156 -4.189,0.237 -6.977,1.188c-3.645,1.212 -5.933,1.907 -6.872,2.092C39.452,54.762 38.073,54.918 36.584,54.849z" id="path_1"/><path fill="#f06022" d="M37.803,25.968l1.055,-3.105l10.232,-4.531c0.139,-0.023 0.202,-0.006 0.202,0.052c0,0.035 -0.018,0.122 -0.052,0.273l-1.373,3.256l-9.827,4.415c-0.127,0.012 -0.203,0.012 -0.237,0C37.756,26.258 37.756,26.142 37.803,25.968z" id="path_2"/><path fill="#f06022" d="M37.803,21.437l1.055,-3.105L49.09,13.8c0.139,-0.022 0.202,-0.005 0.202,0.053c0,0.029 -0.018,0.121 -0.052,0.267l-1.373,3.262l-9.827,4.415c-0.127,0.012 -0.203,0.012 -0.237,0C37.756,21.727 37.756,21.604 37.803,21.437z" id="path_3"/></svg>