<svg id="vector" xmlns="http://www.w3.org/2000/svg" width="75" height="67" viewBox="0 0 83 73"><path fill="#3F51B5" d="M42.237,8.469c-0.412,0.476 -1.125,1.159 -2.145,2.052c-1.014,0.897 -1.727,1.64 -2.139,2.225c-0.631,0.903 -0.955,1.587 -0.967,2.04c0,0.324 0.053,0.59 0.156,0.793c0.109,0.25 0.383,0.504 0.811,0.766c0.105,-0.07 0.244,-0.336 0.43,-0.812c0.133,-0.365 0.301,-0.545 0.51,-0.545c0.086,0 0.186,0.012 0.283,0.034c0.477,0.477 0.695,1.049 0.666,1.728c0.012,0.591 -0.156,1.071 -0.504,1.437c-0.342,0.371 -0.678,0.603 -0.99,0.707c-0.318,0.099 -0.568,0.139 -0.748,0.116c-1.043,0 -1.68,-0.597 -1.916,-1.796c-0.035,-0.51 -0.053,-1.055 -0.053,-1.635c0.816,-3.36 3.018,-6.037 6.605,-8.03V7.496c0.201,0.035 0.301,0.104 0.301,0.209c0,0.057 -0.047,0.179 -0.15,0.364C42.282,8.255 42.237,8.389 42.237,8.469z" id="path_0"/><path fill="#3F51B5" d="M36.743,22.461l-0.932,0.088l-0.186,-0.289c3.25,-1.698 5.76,-3.309 7.537,-4.838c-0.59,-0.203 -0.996,-0.424 -1.223,-0.662c-0.613,-0.416 -0.92,-1.129 -0.92,-2.137c-0.047,-2.046 0.684,-3.575 2.195,-4.584c0.498,-0.382 1.299,-0.475 2.398,-0.271c1.154,0.625 1.732,1.373 1.732,2.26c0.295,3.348 -1.906,6.367 -6.594,9.061C39.271,21.755 37.937,22.213 36.743,22.461L36.743,22.461zM45.44,14.912c0.424,-0.174 0.633,-0.457 0.633,-0.869c0,-0.713 -0.309,-1.24 -0.916,-1.576c-0.627,-0.26 -1.322,-0.271 -2.092,-0.034c-0.51,0.37 -0.771,0.724 -0.783,1.048c-0.027,0.319 0.197,0.766 0.684,1.345c0.477,0.226 0.848,0.342 1.119,0.342C44.45,15.242 44.901,15.161 45.44,14.912z" id="path_1"/><path fill="#000001" d="M49.95,44.207c-0.146,0.613 -0.326,1.123 -0.543,1.53c-0.721,0.363 -1.689,0.504 -2.912,0.434c-2.143,-0.114 -3.119,-0.172 -2.934,-0.172c-2.115,-0.325 -4.182,-0.466 -6.197,-0.428c-1.307,0.408 -2.988,0.746 -5.041,1.007V41.39c0.955,-0.025 1.912,-0.159 2.855,-0.407c0.299,-0.523 0.516,-1.289 0.656,-2.296c0.146,-1.249 0.275,-2.052 0.389,-2.409c0.262,-1.059 0.529,-2.123 0.803,-3.193c0.338,-1.23 0.779,-2.207 1.326,-2.927c0.148,-0.887 0.529,-2.13 1.143,-3.735c0.918,1.491 2.543,2.932 4.869,4.309c2.869,1.722 4.68,2.965 5.439,3.736c0.693,1.529 0.975,3.455 0.84,5.781c0,-0.07 -0.096,0.753 -0.279,2.467C50.364,42.793 50.224,43.289 49.95,44.207L49.95,44.207zM39.661,40.152c0.693,0.025 1.357,-0.076 1.982,-0.299c0.617,-0.224 1,-0.688 1.135,-1.396c-0.025,-0.86 -0.109,-1.44 -0.262,-1.74c-1.098,-1.346 -2.334,-1.963 -3.717,-1.849c-1.141,0.612 -1.773,1.473 -1.887,2.575C37.251,38.643 38.169,39.541 39.661,40.152L39.661,40.152zM49.185,40.549c-0.039,-0.466 -0.307,-0.938 -0.803,-1.422c-0.734,-0.625 -1.92,-1.275 -3.564,-1.964c-0.414,1.384 -0.752,2.416 -1.025,3.104c1.637,0.484 3.379,0.663 5.207,0.542L49.185,40.549z" id="path_2"/></svg>