<svg id="vector" xmlns="http://www.w3.org/2000/svg" width="75" height="67" viewBox="0 0 83 73"><path fill="#3F51B5" d="M42.237,8.47c-0.412,0.475 -1.125,1.158 -2.145,2.051c-1.014,0.898 -1.727,1.639 -2.138,2.225c-0.632,0.904 -0.956,1.588 -0.968,2.039c0,0.324 0.053,0.592 0.156,0.795c0.11,0.248 0.383,0.504 0.812,0.764c0.104,-0.069 0.243,-0.336 0.429,-0.811c0.133,-0.365 0.301,-0.545 0.51,-0.545c0.087,0 0.186,0.012 0.284,0.035c0.476,0.475 0.695,1.049 0.666,1.727c0.012,0.59 -0.156,1.072 -0.504,1.437c-0.342,0.371 -0.678,0.603 -0.991,0.707c-0.318,0.099 -0.567,0.14 -0.747,0.116c-1.043,0 -1.681,-0.598 -1.917,-1.797c-0.035,-0.51 -0.053,-1.055 -0.053,-1.633c0.816,-3.361 3.019,-6.038 6.605,-8.031V7.495c0.202,0.035 0.301,0.105 0.301,0.209c0,0.059 -0.047,0.18 -0.15,0.365C42.283,8.255 42.237,8.388 42.237,8.47z" id="path_0"/><path fill="#3F51B5" d="M36.744,22.462l-0.933,0.087l-0.186,-0.29c3.25,-1.697 5.76,-3.309 7.538,-4.838c-0.591,-0.203 -0.997,-0.424 -1.223,-0.66c-0.614,-0.418 -0.921,-1.131 -0.921,-2.139c-0.047,-2.045 0.684,-3.574 2.195,-4.583c0.498,-0.382 1.299,-0.476 2.398,-0.272c1.154,0.626 1.732,1.373 1.732,2.26c0.296,3.35 -1.906,6.368 -6.593,9.063C39.271,21.755 37.938,22.212 36.744,22.462L36.744,22.462zM45.44,14.912c0.424,-0.174 0.633,-0.458 0.633,-0.869c0,-0.713 -0.308,-1.239 -0.916,-1.576c-0.626,-0.261 -1.321,-0.272 -2.092,-0.034c-0.51,0.371 -0.771,0.724 -0.782,1.049c-0.028,0.318 0.196,0.764 0.684,1.344c0.476,0.227 0.847,0.342 1.118,0.342C44.45,15.242 44.902,15.161 45.44,14.912z" id="path_1"/><path fill="#000000" d="M50.031,38.606c-3.238,1.199 -6.453,2.411 -9.668,3.623c-3.719,1.402 -6.802,2.879 -9.237,4.426c-0.264,-0.048 -0.419,-0.191 -0.491,-0.455c0.144,-0.864 0.827,-1.764 2.075,-2.699c0.983,-0.66 1.955,-1.32 2.915,-1.968l2.495,-1.271c-0.24,-0.229 -0.504,-0.469 -0.792,-0.721c-0.3,-0.24 -0.528,-0.468 -0.684,-0.684c-0.864,-0.863 -1.319,-1.824 -1.344,-2.879c0.12,-0.756 0.408,-1.572 0.852,-2.459c0.696,-1.104 1.116,-1.823 1.224,-2.147c1.991,-3.419 4.187,-5.099 6.573,-5.026c2.747,0.42 4.427,1.571 5.063,3.443c0.24,0.24 0.444,0.779 0.636,1.619c0,0.348 -0.252,0.588 -0.744,0.695c-1.307,-0.936 -2.71,-1.57 -4.209,-1.931c-2.064,-0.444 -3.912,-0.168 -5.52,0.815c-0.119,0.133 -0.215,0.275 -0.287,0.42c0,0.156 0.084,0.635 0.252,1.404c1.379,1.918 3.203,3.105 5.482,3.55c0.719,0.228 1.499,0.323 2.314,0.276c1.176,-0.444 2.975,-1.044 5.41,-1.788c0.023,0.12 0.023,0.265 0,0.456c-0.048,0.324 -0.228,0.852 -0.563,1.584c-0.276,0.742 -0.456,1.139 -0.516,1.163C50.812,38.306 50.403,38.498 50.031,38.606z" id="path_2"/></svg>