<svg id="vector" xmlns="http://www.w3.org/2000/svg" width="75" height="67" viewBox="0 0 83 73"><path fill="#213e95" d="M58.186,17.521c0.314,0 0.626,1.045 0.94,3.123l1.403,3.122l-0.626,3.587l0.467,8.74v1.397c-0.207,3.569 -0.726,5.645 -1.559,6.244l-0.152,-0.153l0.152,-2.343c0,-2.103 -0.679,-8.813 -2.03,-20.123C57.435,18.72 57.9,17.521 58.186,17.521z" id="path_0"/><path fill="#213e95" d="M64.19,47.144c0.159,-0.087 0.206,0.053 0.14,0.433c-0.885,2.077 -2.242,3.528 -4.073,4.346l-6.73,3.375c-0.286,-0.08 -0.339,-0.313 -0.159,-0.699c0.898,-1.73 1.511,-2.755 1.837,-3.082L64.19,47.144z" id="path_1"/><path fill="#DD2C00" d="M38.479,39.289c1.536,-0.193 2.303,-0.493 2.303,-0.899c0,-3.095 0.938,-6.836 2.809,-11.23c0.259,-0.572 0.519,-0.625 0.78,-0.16c0.679,1.458 1.87,2.656 3.586,3.588c3.541,1.718 5.307,4.061 5.307,7.022c0,3.096 -0.673,4.867 -2.03,5.306l-1.559,0.153l-5.93,-0.313c-1.652,0.706 -3.401,1.032 -5.266,0.979V39.289L38.479,39.289zM47.339,38.55l3.895,0.153l0.626,-0.153c-0.96,-1.332 -2.212,-2.369 -3.742,-3.122C47.832,35.428 47.571,36.466 47.339,38.55L47.339,38.55zM42.187,36.52c0,0.985 0.778,1.611 2.344,1.87c1.35,-0.752 2.022,-1.531 2.022,-2.336c-0.466,-1.877 -1.244,-2.809 -2.336,-2.809C43.1,33.245 42.419,34.337 42.187,36.52z" id="path_2"/><path fill="#DD2C00" d="M43.675,15.146h1.544c1.87,0 2.811,0.699 2.811,2.103c-1.213,3.275 -2.684,5.013 -4.413,5.213l-2.044,0.273c-0.327,0 -0.46,-0.094 -0.413,-0.273c1.651,-0.872 3.196,-1.91 4.625,-3.102c-0.505,-0.473 -1.064,-0.706 -1.677,-0.706h-0.433l-1.678,0.139l-0.132,-0.139v-0.273C42.656,16.224 43.263,15.146 43.675,15.146z" id="path_3"/><path fill="#000001" d="M38.409,43.755c-2.676,-0.179 -5.105,-1.644 -7.288,-4.386h-0.159c-0.933,5.405 -3.016,8.107 -6.237,8.113h-0.474c-1.398,-0.006 -2.755,-1.251 -4.052,-3.747c-1.04,-3.508 -1.559,-6.164 -1.559,-7.955V34.53c0,-0.779 0.152,-1.198 0.466,-1.245c0.439,0.233 0.966,1.937 1.57,5.119c0.606,3.175 1.851,4.692 3.734,4.553c3.641,-0.599 5.565,-2.683 5.772,-6.244l-1.406,-4.833v-1.718c0.055,-2.084 0.26,-3.121 0.626,-3.121c0.207,0.465 0.367,0.938 0.466,1.404l2.185,6.863c1.716,2.783 3.84,4.1 6.355,3.941V43.755z" id="path_4"/><path fill="#000001" d="M31.375,49.699c0.16,-0.086 0.205,0.053 0.139,0.433c-0.886,2.077 -2.243,3.528 -4.074,4.347l-6.729,3.375c-0.285,-0.08 -0.34,-0.313 -0.158,-0.699c0.897,-1.73 1.51,-2.755 1.837,-3.081L31.375,49.699z" id="path_5"/></svg>