<svg id="vector" xmlns="http://www.w3.org/2000/svg" width="75" height="67" viewBox="0 0 83 73"><path fill="#DD2C00" d="M68.676,23.962c0.314,0 0.626,1.045 0.939,3.123l1.405,3.121l-0.626,3.588l0.466,8.741v1.398c-0.207,3.566 -0.726,5.644 -1.559,6.242l-0.151,-0.152l0.151,-2.344c0,-2.102 -0.679,-8.813 -2.029,-20.122C67.926,25.161 68.391,23.962 68.676,23.962z" id="path_0"/><path fill="#DD2C00" d="M73.336,14.837c0.16,-0.094 0.207,0.053 0.14,0.433c-0.886,2.077 -2.243,3.528 -4.073,4.346l-6.729,3.375c-0.286,-0.08 -0.34,-0.312 -0.16,-0.705c0.898,-1.731 1.512,-2.756 1.837,-3.083L73.336,14.837z" id="path_1"/><path fill="#0992d1" d="M56.136,52.572c0.532,0 1.777,0.626 3.741,1.878c0,0.778 -0.619,2.023 -1.871,3.74c-2.495,-0.806 -3.74,-1.531 -3.74,-2.183C54.325,55.421 54.951,54.276 56.136,52.572z" id="path_2"/><path fill="#0992d1" d="M52.389,45.729c4.087,0.041 6.37,-0.726 6.869,-2.303c0,-0.546 -0.52,-1.897 -1.564,-4.053l0.473,-4.053h0.306c1.358,2.336 2.03,4.678 2.03,7.015v1.406c0,0.938 -0.226,1.923 -0.672,2.955s-1.139,1.903 -2.063,2.604c-0.932,0.705 -2.723,0.999 -5.378,0.877V45.729z" id="path_3"/><path fill="#0992d1" d="M58.926,24.063h1.543c1.871,0 2.81,0.698 2.81,2.103c-1.211,3.275 -2.683,5.012 -4.413,5.212l-2.044,0.273c-0.326,0 -0.459,-0.093 -0.412,-0.273c1.65,-0.872 3.195,-1.91 4.626,-3.102c-0.507,-0.473 -1.065,-0.706 -1.678,-0.706h-0.432l-1.679,0.14l-0.133,-0.14v-0.272C57.906,25.142 58.512,24.063 58.926,24.063z" id="path_4"/><path fill="#000001" d="M53.021,50.175l-1.757,-0.02c-0.972,4.281 -3.548,6.443 -7.721,6.497c-2.237,0.099 -3.356,0.06 -3.356,-0.12c0.207,-0.392 1.704,-1.145 4.487,-2.263c2.863,-1.817 4.587,-2.988 5.186,-3.507l0.16,-0.466l-2.73,-0.433c-1.989,-0.52 -3.108,-1.518 -3.354,-3.002v-0.313c0,-2.522 0.619,-4.134 1.87,-4.839l0.939,-0.153c1.844,0 3.349,1.285 4.52,3.861c0.745,0.259 1.332,0.386 1.757,0.373V50.175z" id="path_5"/><path fill="#000001" d="M51.71,29.055c0.16,-0.093 0.206,0.053 0.14,0.433c-0.886,2.077 -2.244,3.528 -4.074,4.346l-6.729,3.375c-0.286,-0.08 -0.34,-0.312 -0.159,-0.706c0.898,-1.73 1.511,-2.755 1.837,-3.081L51.71,29.055z" id="path_6"/><path fill="#213e95" d="M33.983,23.962c0.313,0 0.626,1.045 0.938,3.123l1.405,3.121l-0.625,3.588l0.466,8.741v1.398c-0.206,3.566 -0.726,5.644 -1.558,6.242l-0.153,-0.152l0.153,-2.344c0,-2.102 -0.679,-8.813 -2.03,-20.122C33.231,25.161 33.696,23.962 33.983,23.962z" id="path_7"/><path fill="#DD2C00" d="M21.441,52.572c0.533,0 1.779,0.626 3.742,1.878c0,0.778 -0.619,2.023 -1.87,3.74c-2.497,-0.806 -3.742,-1.531 -3.742,-2.183C19.632,55.421 20.258,54.276 21.441,52.572z" id="path_8"/><path fill="#DD2C00" d="M17.694,45.729c4.088,0.041 6.37,-0.726 6.87,-2.303c0,-0.546 -0.52,-1.897 -1.564,-4.053l0.472,-4.053h0.307c1.358,2.336 2.03,4.678 2.03,7.015v1.406c0,0.938 -0.227,1.923 -0.672,2.955c-0.446,1.032 -1.139,1.903 -2.063,2.604c-0.932,0.705 -2.723,0.999 -5.379,0.877V45.729z" id="path_9"/><path fill="#f06022" d="M27.554,24.689l0.16,0.14v0.426c-0.813,1.73 -1.938,2.942 -3.376,3.647c-4.473,2.43 -6.956,3.648 -7.447,3.648c-0.188,0 -0.281,-0.146 -0.281,-0.433c0.433,-1.651 1.372,-2.77 2.811,-3.355l8,-4.073H27.554z" id="path_10"/><path fill="#f06022" d="M26.442,21.181c0.179,0 0.272,0.133 0.272,0.406c-0.52,1.511 -2.058,2.869 -4.62,4.081l-5.91,3.234l-0.133,-0.14v-0.153c0.558,-1.978 1.443,-3.194 2.668,-3.648l6.59,-3.375L26.442,21.181z" id="path_11"/><path fill="#000001" d="M17.975,50.175c-3.028,0.181 -5.232,-1.217 -6.61,-4.193c-0.666,-1.105 -1.284,-8.553 -1.871,-22.346v-0.313c0.387,-2.289 0.96,-3.434 1.712,-3.434l0.785,-0.154c0.959,0 2.417,0.313 4.366,0.932v0.313c-0.105,0.313 -0.419,0.473 -0.938,0.473H12.77c-0.546,0 -1.065,0.306 -1.564,0.931c0.486,11.975 1.191,18.912 2.13,20.809c0.933,1.896 2.482,2.742 4.64,2.535V50.175z" id="path_12"/></svg>