<svg id="vector" xmlns="http://www.w3.org/2000/svg" width="75" height="67" viewBox="0 0 83 73"><path fill="#000001" d="M62.316,39.621h1.574c1.662,-0.227 4.302,-0.846 7.921,-1.842v-0.141c-3.298,-1.457 -5.392,-2.184 -6.283,-2.184c-1.207,0 -2.023,0.68 -2.46,2.051l-0.408,0.273c-0.182,0 -0.274,-0.141 -0.274,-0.414c0.454,-2.727 1.684,-4.098 3.689,-4.098h0.682c0.845,0 3.713,0.955 8.61,2.867l3.689,0.275l0.269,0.414c-0.064,0.611 -0.612,1.795 -1.638,3.549h-0.409l-0.547,-0.139h-0.683c-7.105,2.098 -11.25,3.188 -12.433,3.281h-1.3V39.621z" id="path_0"/><path fill="#000001" d="M71.608,19.295c1.399,0 2.098,0.863 2.098,2.584c0,2.738 -2.337,5.076 -7.019,7c-0.67,0.203 -0.751,-0.041 -0.239,-0.734c0.129,-0.264 1.23,-1.084 3.312,-2.461v-0.115c-0.898,-0.367 -1.347,-1.148 -1.347,-2.344c0.594,-2.617 1.539,-3.93 2.833,-3.93H71.608L71.608,19.295zM69.521,22.25c0,0.729 0.617,1.178 1.848,1.354h0.239c0.454,0 0.746,-0.17 0.869,-0.496c0,-0.74 -0.536,-1.316 -1.603,-1.725C70.407,21.383 69.958,21.674 69.521,22.25z" id="path_1"/><path fill="#213e95" d="M55.03,29.834c0.769,0 1.818,0.641 3.142,1.912v0.275c-0.891,1.912 -1.48,2.873 -1.777,2.873l-3.142,-1.779h-0.14c-0.886,1.529 -1.475,2.346 -1.772,2.461H51.2c-1.999,-0.891 -3.001,-1.574 -3.001,-2.051c0.729,-2.006 1.364,-3.004 1.911,-3.004l3.276,1.771C53.911,31.227 54.458,30.404 55.03,29.834z" id="path_2"/><path fill="#213e95" d="M51.475,25.604c0.891,0 1.889,0.775 3.007,2.318c-0.297,0.705 -0.892,1.527 -1.778,2.461H52.43c-0.793,-0.182 -1.662,-0.682 -2.595,-1.504v-0.408C49.906,27.742 50.448,26.785 51.475,25.604z" id="path_3"/><path fill="#213e95" d="M63.173,43.516c-0.216,0 -0.479,0 -0.788,0c-1.218,-0.012 -2.529,-0.928 -3.946,-2.752c-0.542,2.006 -1.498,3.008 -2.868,3.008h-0.134c-1.16,0 -2.117,-0.682 -2.868,-2.051h-0.14c-0.816,1.643 -1.807,2.389 -2.973,2.236c-2.163,0.014 -3.445,-1.006 -3.858,-3.053c-1.522,1.783 -3.16,2.658 -4.902,2.611h-0.222v-3.895h0.07c2.756,-0.203 4.803,-1.143 6.15,-2.816c0.18,0 0.274,0.135 0.274,0.41l-0.14,0.955c0.728,1.457 1.685,2.186 2.867,2.186c1.12,0 2.256,-1.09 3.416,-3.275h0.14l0.408,0.408v0.955c0,0.863 0.642,1.365 1.912,1.504h0.274c1.184,0 2.279,-1.184 3.282,-3.555h0.133c0.182,0 0.274,0.412 0.274,1.229c0.501,1.154 1.714,1.82 3.638,2V43.516z" id="path_4"/><path fill="#213e95" d="M57.653,46.564c0.14,-0.076 0.181,0.045 0.123,0.379c-0.775,1.818 -1.965,3.09 -3.568,3.807l-5.893,2.955c-0.25,-0.07 -0.296,-0.275 -0.14,-0.613c0.787,-1.516 1.323,-2.412 1.609,-2.697L57.653,46.564z" id="path_5"/><path fill="#008046" d="M40.557,43.527c-0.123,0.012 -0.251,0.018 -0.374,0.018h-0.688c-1.066,0 -1.796,-0.088 -2.186,-0.275c-0.792,3.066 -1.72,4.945 -2.781,5.631c-1.061,0.689 -3.457,1.271 -7.188,1.75h-0.274c-0.822,-0.094 -1.229,-0.229 -1.229,-0.408c0,-0.273 0.682,-0.596 2.046,-0.955c5.375,-2.461 8.062,-4.238 8.062,-5.328c0,-0.455 -0.636,-1.504 -1.912,-3.143c-0.274,-0.461 -0.409,-1.049 -0.409,-1.777v-1.363c0,-0.689 0.134,-1.051 0.409,-1.098c1.184,1.814 3.188,2.822 6.01,3.037c0.174,0 0.343,0 0.513,-0.012V43.527z" id="path_6"/><path fill="#008046" d="M37.671,27.049c0.14,-0.082 0.181,0.047 0.122,0.379c-0.775,1.818 -1.965,3.088 -3.568,3.805l-5.893,2.957c-0.25,-0.07 -0.297,-0.275 -0.14,-0.619c0.787,-1.514 1.323,-2.412 1.609,-2.697L37.671,27.049z" id="path_7"/><path fill="#000001" d="M11.446,30.43c1.067,0.32 2.163,1.002 3.276,2.051v0.135c-1.027,1.801 -1.615,2.711 -1.777,2.734h-0.409c-0.775,-0.111 -1.591,-0.613 -2.46,-1.504v-0.135C10.169,32.639 10.624,31.549 11.446,30.43z" id="path_8"/><path fill="#000001" d="M16.634,30.703c1.002,0.229 2.005,0.822 3.007,1.777v0.135c0,0.5 -0.548,1.416 -1.638,2.734H17.59c-0.636,0 -1.458,-0.502 -2.46,-1.504C15.38,32.434 15.881,31.385 16.634,30.703z" id="path_9"/><path fill="#000001" d="M5.588,32.207h0.134l0.274,0.273c-0.729,1.615 -1.09,2.711 -1.09,3.277c0,2.664 2.547,4.213 7.647,4.645l1.637,0.273c1.645,0 4.098,-0.5 7.38,-1.502l1.912,-1.092c-0.636,-1.16 -1.049,-2.162 -1.231,-3.008l0.274,-2.594h0.274c1.09,1.137 1.638,3.143 1.638,6.01c0,2.758 -2.414,4.623 -7.239,5.602l-2.052,0.275c-7.647,0 -11.472,-2.508 -11.472,-7.514C3.676,34.76 4.312,33.209 5.588,32.207z" id="path_10"/><path fill="#000001" d="M13.509,19.639h1.353c1.638,0 2.46,0.613 2.46,1.842c-1.061,2.869 -2.349,4.391 -3.864,4.564l-1.79,0.24c-0.286,0 -0.402,-0.082 -0.361,-0.24c1.445,-0.764 2.797,-1.672 4.05,-2.715c-0.442,-0.414 -0.932,-0.619 -1.468,-0.619h-0.379l-1.469,0.123l-0.117,-0.123v-0.238C12.618,20.584 13.148,19.639 13.509,19.639z" id="path_11"/></svg>