<svg id="vector" xmlns="http://www.w3.org/2000/svg" width="75" height="67" viewBox="0 0 83 73"><path fill="#000001" d="M46.457,43.389h-0.606h-0.151c-1.118,0.08 -2.317,-0.658 -3.589,-2.223c-0.491,1.877 -1.432,2.809 -2.808,2.809c-1.379,0 -2.469,-0.779 -3.276,-2.336c-1.118,1.451 -2.155,2.184 -3.12,2.184H31.66l-1.091,-0.16c0,2.316 -0.733,4.705 -2.191,7.176c-2.596,3.021 -5.299,4.525 -8.107,4.525c-4.865,0 -8.034,-2.549 -9.519,-7.641L10.44,44.44c0,-3.061 1.25,-5.77 3.746,-8.105c0.413,0.205 0.62,0.518 0.62,0.932c-1.765,2.449 -2.65,4.373 -2.65,5.777v0.619c0,3.434 1.978,5.77 5.931,7.021l2.496,0.314c3.688,0 6.551,-1.664 8.581,-4.992l0.153,-1.719c-1.352,-2.648 -2.03,-4.313 -2.03,-4.992v-0.465c0,-1.664 0.16,-2.496 0.473,-2.496c1.039,2.184 2.596,3.273 4.68,3.273c1.744,0 3.147,-1.09 4.213,-3.273h0.154c0.206,0 0.364,0.672 0.466,2.023c0.731,0.732 1.357,1.09 1.876,1.09h0.78c0.957,0 1.843,-1.191 2.647,-3.586l0.16,-0.154h0.154c0.205,1.91 1.037,2.982 2.496,3.215c0.444,-0.039 0.798,-0.039 1.07,-0.02V43.389z" id="path_0"/><path fill="#f06022" d="M39.242,55.151l0.159,0.141v0.426c-0.805,1.73 -1.931,2.941 -3.375,3.648c-4.472,2.43 -6.956,3.646 -7.448,3.646c-0.179,0 -0.272,-0.146 -0.272,-0.432c0.425,-1.652 1.365,-2.77 2.808,-3.355l7.996,-4.074H39.242z" id="path_1"/><path fill="#f06022" d="M38.13,51.643c0.188,0 0.273,0.135 0.273,0.406c-0.519,1.512 -2.058,2.869 -4.62,4.08l-5.91,3.236l-0.133,-0.141v-0.152c0.56,-1.979 1.45,-3.195 2.67,-3.648l6.595,-3.375L38.13,51.643z" id="path_2"/><path fill="#000001" d="M66.074,20.944c1.538,0.492 2.735,1.117 3.588,1.871v0.313c0,0.52 -0.565,1.664 -1.71,3.434c-1.065,0 -2.265,-0.572 -3.589,-1.717v-0.313C64.363,23.413 64.935,22.215 66.074,20.944z" id="path_3"/><path fill="#000001" d="M61.628,38.922c4.087,0.041 6.371,-0.725 6.87,-2.303c0,-0.545 -0.521,-1.896 -1.566,-4.053l0.475,-4.055h0.306c1.357,2.338 2.03,4.68 2.03,7.016v1.404c0,0.939 -0.227,1.924 -0.673,2.955c-0.446,1.033 -1.139,1.904 -2.063,2.604c-0.932,0.705 -2.723,0.998 -5.378,0.879V38.922z" id="path_4"/><path fill="#000001" d="M72.391,11.485c0.16,-0.094 0.206,0.053 0.141,0.432c-0.886,2.078 -2.243,3.529 -4.074,4.348l-6.73,3.375c-0.286,-0.08 -0.339,-0.313 -0.159,-0.705c0.898,-1.73 1.511,-2.756 1.837,-3.082L72.391,11.485z" id="path_5"/><path fill="#DD2C00" d="M46.032,38.922c1.729,0.146 3.202,-0.025 4.427,-0.506l-0.647,-1.17c-0.604,-3.436 -0.331,-5.705 0.819,-6.818c1.158,-1.111 2.404,-1.623 3.729,-1.529c2.576,0.119 4.027,1.471 4.366,4.053v0.939c0,2.156 -0.312,3.508 -0.932,4.053c-0.393,0.406 0.493,0.746 2.649,1.02l0.506,-0.02c0.392,-0.014 0.838,-0.021 1.344,-0.021v4.447l-1.578,0.02c-2.935,-0.014 -5.158,-0.385 -6.669,-1.111c-2.077,0.727 -3.694,1.092 -4.833,1.092h-0.626c-0.778,0 -1.63,0 -2.555,0V38.922L46.032,38.922zM51.549,34.516v0.313c0.653,1.119 1.639,1.898 2.963,2.338c0.885,-0.154 1.771,-0.52 2.656,-1.092c-0.393,-1.459 -1.691,-2.291 -3.9,-2.498C52.123,33.891 51.549,34.204 51.549,34.516z" id="path_6"/><path fill="#DD2C00" d="M52.489,21.256c1.35,0 2.596,0.832 3.74,2.496c-0.959,2.184 -1.69,3.275 -2.184,3.275c-2.103,-1.039 -3.247,-1.717 -3.435,-2.029C50.611,24.012 51.237,22.76 52.489,21.256z" id="path_7"/><path fill="#DD2C00" d="M52.249,9.987h1.545c1.87,0 2.808,0.699 2.808,2.104c-1.211,3.275 -2.681,5.014 -4.413,5.213l-2.043,0.271c-0.326,0 -0.459,-0.092 -0.412,-0.271c1.65,-0.873 3.194,-1.91 4.626,-3.102c-0.507,-0.475 -1.064,-0.707 -1.677,-0.707h-0.434l-1.677,0.141l-0.135,-0.141v-0.271C51.229,11.066 51.836,9.987 52.249,9.987z" id="path_8"/></svg>