<svg id="vector" xmlns="http://www.w3.org/2000/svg" width="100" height="67" viewBox="0 0 171 73"><path fill="#000001" d="M137.815,43.93c0.18,0.014 0.373,0.02 0.586,0.02h1.48c1.566,-0.26 2.76,-0.807 3.594,-1.64l-1.873,-14.847c0.467,-2.813 0.887,-4.213 1.246,-4.213l2.033,4.686c0,0.728 -0.26,1.82 -0.779,3.281l0.779,8.433v2.347c-0.586,2.486 -1.373,4.227 -2.359,5.213c-0.746,0.794 -1.619,1.193 -2.641,1.193h-1.326c-0.26,0 -0.506,-0.006 -0.74,-0.02V43.93z" id="path_0"/><path fill="#000001" d="M148.062,14.576c0.16,-0.094 0.207,0.053 0.141,0.434c-0.887,2.08 -2.246,3.533 -4.08,4.354l-6.74,3.379c-0.287,-0.079 -0.34,-0.313 -0.16,-0.706c0.9,-1.733 1.514,-2.76 1.84,-3.087L148.062,14.576z" id="path_1"/><path fill="#213e95" d="M127.175,51.217c0.646,0 1.795,0.779 3.434,2.34c0,0.526 -0.619,1.666 -1.873,3.439h-0.313c-0.654,0 -1.641,-0.627 -2.967,-1.873v-0.16C125.456,54.343 126.028,53.09 127.175,51.217z" id="path_2"/><path fill="#213e95" d="M132.796,50.436c2.607,1.121 3.906,2.001 3.906,2.654c-0.152,0.493 -0.881,1.586 -2.186,3.279c-1.748,-0.673 -2.994,-1.453 -3.748,-2.34C131.315,52.283 131.989,51.082 132.796,50.436z" id="path_3"/><path fill="#213e95" d="M124.415,43.949c1.113,0.014 1.801,-0.006 2.074,-0.06c2.346,-0.714 3.945,-2.233 4.807,-4.547c0.127,-0.446 0.387,-0.5 0.779,-0.159c0.207,0.18 0.367,0.912 0.467,2.186c1.42,1.914 3.193,2.773 5.314,2.58h0.412v4.453h-0.1c-3.32,-0.152 -5.768,-1.666 -7.348,-4.533h-0.152c-1.107,2.334 -2.566,3.768 -4.373,4.301c-0.547,0.152 -1.174,0.232 -1.881,0.232V43.949z" id="path_4"/><path fill="#213e95" d="M130.55,24.982h1.547c1.873,0 2.813,0.701 2.813,2.107c-1.213,3.279 -2.688,5.02 -4.42,5.22l-2.047,0.273c-0.326,0 -0.461,-0.093 -0.414,-0.273c1.654,-0.873 3.201,-1.913 4.635,-3.106c-0.508,-0.474 -1.066,-0.707 -1.682,-0.707h-0.432l-1.682,0.141l-0.133,-0.141v-0.273C129.528,26.063 130.136,24.982 130.55,24.982z" id="path_5"/><path fill="#DD2C00" d="M113.056,43.949c0.027,0 0.061,0 0.094,0c2.5,-0.152 3.934,-1.273 4.299,-3.359c-0.939,-6.247 -1.406,-10.627 -1.406,-13.127c0,-0.96 0.42,-2.213 1.254,-3.746l0.152,0.152l0.314,0.313l-0.16,1.093c0.133,7.021 1.02,12.461 2.66,16.327c0.627,1.407 2.16,2.194 4.605,2.347v4.453c-3.359,-0.053 -5.619,-1.82 -6.793,-5.313h-0.16c-1.08,3.5 -2.699,5.273 -4.859,5.313V43.949z" id="path_6"/><path fill="#DD2C00" d="M122.583,15.217c0.16,-0.094 0.205,0.053 0.139,0.434c-0.887,2.079 -2.246,3.533 -4.08,4.353l-6.74,3.38c-0.285,-0.08 -0.34,-0.313 -0.16,-0.707c0.9,-1.732 1.514,-2.76 1.842,-3.086L122.583,15.217z" id="path_7"/><path fill="#000001" d="M100.315,21.643h0.627c2.061,1.174 3.1,1.854 3.127,2.033c-1.02,2.188 -1.693,3.334 -2.033,3.44c-1.174,0 -2.32,-0.573 -3.441,-1.72C98.81,24.276 99.382,23.023 100.315,21.643z" id="path_8"/><path fill="#000001" d="M105.782,20.863c0.994,0 2.193,0.68 3.6,2.033c0,0.547 -0.68,1.64 -2.033,3.279c-0.779,0 -1.926,-0.52 -3.439,-1.56C103.909,23.703 104.536,22.449 105.782,20.863z" id="path_9"/><path fill="#000001" d="M113.481,48.402h-0.039c-2.994,0 -5.027,-1.459 -6.094,-4.373l-0.313,-1.254h-0.314c-0.232,0.834 -1.898,1.354 -5,1.567h-0.779c-2.086,0 -3.127,-0.626 -3.127,-1.88v-1.406c0,-1.508 1.146,-3.381 3.439,-5.62c1.381,-1.047 2.941,-1.927 4.688,-2.66l-0.16,-0.467c0.574,-2.606 1.047,-3.907 1.406,-3.907c0.188,0.44 0.447,3.674 0.787,9.688c0.467,4.053 2.301,6.02 5.506,5.92V48.402L113.481,48.402zM99.688,39.343c0.6,0.413 1.594,0.62 2.975,0.62c1.354,-0.1 2.6,-0.359 3.746,-0.779l-0.313,-4.374h-0.154C101.776,36.789 99.688,38.297 99.688,39.343z" id="path_10"/><path fill="#000001" d="M104.655,8.83c1.6,0 2.4,0.986 2.4,2.953c0,3.133 -2.674,5.807 -8.027,8.006c-0.766,0.233 -0.859,-0.047 -0.273,-0.84c0.146,-0.3 1.408,-1.24 3.787,-2.813v-0.134c-1.027,-0.42 -1.539,-1.313 -1.539,-2.681c0.68,-2.993 1.76,-4.492 3.24,-4.492H104.655L104.655,8.83zM102.269,12.209c0,0.834 0.707,1.348 2.113,1.547h0.273c0.52,0 0.854,-0.193 0.994,-0.566c0,-0.847 -0.613,-1.506 -1.834,-1.974C103.282,11.216 102.769,11.549 102.269,12.209z" id="path_11"/><path fill="#DD2C00" d="M88.202,22.149c0.314,0 0.627,1.047 0.939,3.126l1.408,3.127l-0.627,3.594l0.467,8.754v1.399c-0.207,3.573 -0.727,5.653 -1.561,6.253l-0.152,-0.152l0.152,-2.348c0,-2.105 -0.68,-8.826 -2.033,-20.152C87.448,23.35 87.915,22.149 88.202,22.149z" id="path_12"/><path fill="#000001" d="M73.349,43.93c0.18,0.014 0.373,0.02 0.588,0.02h1.479c1.566,-0.26 2.76,-0.807 3.594,-1.64l-1.873,-14.847c0.467,-2.813 0.887,-4.213 1.246,-4.213l2.033,4.686c0,0.728 -0.26,1.82 -0.779,3.281l0.779,8.433v2.347c-0.586,2.486 -1.373,4.227 -2.359,5.213c-0.746,0.794 -1.619,1.193 -2.641,1.193h-1.326c-0.26,0 -0.506,-0.006 -0.74,-0.02V43.93z" id="path_13"/><path fill="#000001" d="M78.636,14.242h1.547c1.873,0 2.813,0.701 2.813,2.107c-1.213,3.279 -2.686,5.02 -4.42,5.22l-2.047,0.273c-0.326,0 -0.459,-0.093 -0.412,-0.273c1.652,-0.873 3.199,-1.913 4.633,-3.106c-0.506,-0.474 -1.066,-0.707 -1.68,-0.707h-0.434l-1.68,0.141l-0.133,-0.141v-0.273C77.616,15.322 78.222,14.242 78.636,14.242z" id="path_14"/><path fill="#008046" d="M58.483,43.949c1.732,0.146 3.205,-0.026 4.432,-0.506l-0.646,-1.174c-0.605,-3.439 -0.332,-5.713 0.82,-6.826c1.16,-1.113 2.406,-1.627 3.734,-1.533c2.58,0.119 4.033,1.473 4.373,4.06v0.94c0,2.159 -0.314,3.513 -0.934,4.059c-0.393,0.407 0.494,0.748 2.652,1.021l0.508,-0.021c0.393,-0.014 0.84,-0.021 1.346,-0.021v4.453l-1.58,0.021c-2.939,-0.013 -5.166,-0.387 -6.68,-1.113c-2.08,0.727 -3.699,1.093 -4.84,1.093h-0.627c-0.779,0 -1.633,0 -2.559,0V43.949L58.483,43.949zM64.009,39.536v0.313c0.654,1.12 1.641,1.9 2.967,2.34c0.887,-0.153 1.773,-0.52 2.66,-1.094c-0.393,-1.459 -1.693,-2.293 -3.906,-2.5C64.583,38.91 64.009,39.223 64.009,39.536z" id="path_15"/><path fill="#008046" d="M67.036,24.923c1.693,0.526 3.152,1.36 4.373,2.5v0.16c0,0.653 -0.674,1.692 -2.027,3.126c-0.42,0 -1.826,-0.52 -4.219,-1.566v0.16c-0.834,1.613 -1.354,2.447 -1.566,2.5c-1.354,-0.287 -2.5,-0.913 -3.434,-1.88c0.627,-2.6 1.146,-3.899 1.559,-3.899c0.342,0 1.594,0.619 3.754,1.873C65.476,27.35 65.997,26.355 67.036,24.923z" id="path_16"/><path fill="#008046" d="M70.823,15.297c0.16,-0.094 0.205,0.053 0.139,0.433c-0.887,2.08 -2.246,3.534 -4.08,4.354l-6.74,3.38c-0.285,-0.08 -0.34,-0.313 -0.158,-0.707c0.898,-1.732 1.514,-2.76 1.84,-3.086L70.823,15.297z" id="path_17"/><path fill="#0992d1" d="M59.022,48.423c-2.68,-0.18 -5.113,-1.647 -7.301,-4.394h-0.158c-0.934,5.414 -3.021,8.12 -6.248,8.127h-0.473c-1.4,-0.007 -2.76,-1.254 -4.061,-3.754c-1.039,-3.513 -1.561,-6.173 -1.561,-7.967v-1.252c0,-0.781 0.154,-1.201 0.467,-1.248c0.441,0.234 0.967,1.941 1.574,5.127c0.607,3.18 1.854,4.7 3.74,4.561c3.646,-0.6 5.572,-2.688 5.779,-6.254l-1.406,-4.84v-1.72c0.053,-2.087 0.26,-3.126 0.627,-3.126c0.207,0.466 0.367,0.939 0.467,1.406l2.186,6.873c1.721,2.787 3.848,4.106 6.367,3.947V48.423z" id="path_18"/><path fill="#0992d1" d="M48.437,19.596h1.547c1.873,0 2.813,0.701 2.813,2.107c-1.213,3.279 -2.688,5.02 -4.42,5.22l-2.047,0.273c-0.326,0 -0.459,-0.093 -0.414,-0.273c1.654,-0.873 3.201,-1.913 4.635,-3.106c-0.508,-0.474 -1.066,-0.707 -1.682,-0.707h-0.432l-1.68,0.141l-0.135,-0.141v-0.273C47.415,20.676 48.022,19.596 48.437,19.596z" id="path_19"/><path fill="#000001" d="M32.144,37.37c0.932,0.939 1.818,2.966 2.652,6.093l0.16,2.033c0,3.674 -1.826,6.174 -5.473,7.5L28.39,53.15l-2.773,0.039l-2.693,-0.039l-0.154,-0.154v-0.16c0.334,-0.359 2.574,-1.453 6.715,-3.279c2.605,-1.48 4.012,-2.787 4.219,-3.906c-1.354,-2.887 -2.025,-4.555 -2.025,-5v-0.467C31.677,38.31 31.829,37.37 32.144,37.37z" id="path_20"/><path fill="#000001" d="M34.815,56.003c0.16,-0.087 0.207,0.054 0.141,0.434c-0.887,2.08 -2.246,3.533 -4.08,4.353l-6.74,3.381c-0.287,-0.08 -0.34,-0.313 -0.16,-0.7c0.9,-1.733 1.514,-2.76 1.84,-3.087L34.815,56.003z" id="path_21"/></svg>