<svg id="vector" xmlns="http://www.w3.org/2000/svg" width="75" height="67" viewBox="0 0 83 73"><path fill="#DD2C00" d="M60.419,30.756c1.539,0.492 2.736,1.117 3.589,1.871v0.311c0,0.52 -0.565,1.666 -1.711,3.436c-1.064,0 -2.264,-0.572 -3.588,-1.717v-0.313C58.709,33.225 59.282,32.028 60.419,30.756z" id="path_0"/><path fill="#DD2C00" d="M55.973,48.735c4.088,0.039 6.371,-0.725 6.871,-2.303c0,-0.547 -0.521,-1.898 -1.564,-4.055l0.472,-4.053h0.307c1.357,2.336 2.03,4.68 2.03,7.016v1.404c0,0.938 -0.227,1.924 -0.673,2.955c-0.445,1.031 -1.14,1.904 -2.063,2.604c-0.933,0.705 -2.723,0.998 -5.379,0.879V48.735z" id="path_1"/><path fill="#DD2C00" d="M66.735,21.297c0.162,-0.094 0.207,0.053 0.141,0.432c-0.885,2.078 -2.242,3.527 -4.073,4.348l-6.73,3.375c-0.284,-0.08 -0.339,-0.314 -0.16,-0.707c0.899,-1.729 1.512,-2.756 1.838,-3.08L66.735,21.297z" id="path_2"/><path fill="#008046" d="M40.378,48.735c1.729,0.146 3.202,-0.025 4.427,-0.506l-0.646,-1.172c-0.606,-3.434 -0.334,-5.705 0.817,-6.816c1.158,-1.111 2.404,-1.623 3.729,-1.531c2.576,0.121 4.026,1.473 4.366,4.055v0.938c0,2.158 -0.313,3.51 -0.933,4.055c-0.392,0.406 0.494,0.746 2.65,1.018l0.505,-0.02c0.393,-0.012 0.839,-0.02 1.346,-0.02v4.447l-1.577,0.02c-2.938,-0.014 -5.16,-0.387 -6.67,-1.111c-2.077,0.725 -3.695,1.092 -4.834,1.092h-0.626c-0.778,0 -1.631,0 -2.555,0V48.735L40.378,48.735zM45.895,44.329v0.313c0.653,1.119 1.639,1.896 2.962,2.336c0.886,-0.152 1.771,-0.52 2.656,-1.092c-0.392,-1.457 -1.69,-2.289 -3.9,-2.496C46.468,43.702 45.895,44.016 45.895,44.329z" id="path_3"/><path fill="#008046" d="M48.917,29.737c1.691,0.527 3.149,1.357 4.366,2.496v0.16c0,0.652 -0.672,1.691 -2.021,3.121c-0.42,0 -1.825,-0.518 -4.215,-1.563v0.158c-0.832,1.611 -1.352,2.443 -1.563,2.498c-1.352,-0.287 -2.496,-0.912 -3.429,-1.877c0.626,-2.598 1.145,-3.895 1.559,-3.895c0.339,0 1.589,0.619 3.746,1.869C47.359,32.161 47.88,31.168 48.917,29.737z" id="path_4"/><path fill="#0992d1" d="M46.769,19.793h1.542c1.872,0 2.811,0.697 2.811,2.104c-1.211,3.273 -2.684,5.012 -4.413,5.211l-2.044,0.273c-0.325,0 -0.46,-0.094 -0.413,-0.273c1.651,-0.871 3.196,-1.91 4.627,-3.102c-0.507,-0.473 -1.066,-0.707 -1.679,-0.707h-0.431l-1.68,0.141l-0.132,-0.141v-0.271C45.748,20.872 46.354,19.793 46.769,19.793z" id="path_5"/><path fill="#DD2C00" d="M40.836,53.182c-0.1,0 -0.205,0 -0.307,0h-1.403c-1.404,0 -3.023,-0.887 -4.841,-2.65c-3.12,1.711 -6.488,2.598 -10.104,2.65v-4.428c1.892,0.127 4.319,-0.266 7.296,-1.191v-0.152c-1.432,-0.939 -2.783,-1.404 -4.055,-1.404l-1.25,0.152l-0.313,-0.779c0.419,-2.809 1.618,-4.213 3.588,-4.213l2.496,-0.152c3.955,0.465 5.931,1.352 5.931,2.648v0.627l-0.938,3.121c0.759,0.918 2.058,1.363 3.9,1.324V53.182z" id="path_6"/><path fill="#f06022" d="M37.835,28.139l0.159,0.141v0.426c-0.813,1.73 -1.936,2.941 -3.375,3.646C30.147,34.782 27.663,36 27.171,36c-0.187,0 -0.28,-0.146 -0.28,-0.432c0.433,-1.65 1.373,-2.77 2.81,-3.355l8.002,-4.074H37.835z" id="path_7"/><path fill="#f06022" d="M36.723,24.631c0.18,0 0.273,0.133 0.273,0.406c-0.519,1.512 -2.058,2.869 -4.62,4.08l-5.91,3.234l-0.133,-0.139v-0.152c0.558,-1.979 1.442,-3.195 2.668,-3.648l6.591,-3.375L36.723,24.631z" id="path_8"/><path fill="#000001" d="M24.576,53.182c-3.031,0.18 -5.232,-1.219 -6.611,-4.195c-0.665,-1.104 -1.285,-8.553 -1.87,-22.346v-0.313c0.386,-2.289 0.957,-3.434 1.71,-3.434l0.786,-0.154c0.957,0 2.416,0.314 4.366,0.932v0.313c-0.107,0.314 -0.419,0.475 -0.938,0.475h-2.65c-0.546,0 -1.065,0.305 -1.564,0.932c0.485,11.975 1.191,18.91 2.13,20.809c0.932,1.896 2.484,2.742 4.642,2.535V53.182z" id="path_9"/></svg>