<svg id="vector" xmlns="http://www.w3.org/2000/svg" width="75" height="67" viewBox="0 0 83 73"><path fill="#213e95" d="M62.797,26.549c1.531,0.492 2.73,1.117 3.588,1.869v0.313c0,0.52 -0.573,1.665 -1.718,3.435c-1.064,0 -2.262,-0.572 -3.586,-1.717v-0.313C61.081,29.018 61.652,27.821 62.797,26.549z" id="path_0"/><path fill="#213e95" d="M50.802,50.665c-1.909,-0.072 -3.487,-0.605 -4.726,-1.604c-1.244,-0.992 2.783,-1.592 12.081,-1.804c7.229,-0.846 10.917,-1.83 11.077,-2.962l-0.472,-1.404c-0.687,0.625 -1.52,0.938 -2.498,0.938c-2.809,-0.485 -4.207,-1.677 -4.207,-3.587c0.141,-3.009 0.866,-4.674 2.185,-4.993l0.778,-0.159h0.626c2.788,0 4.506,2.862 5.146,8.579c-0.14,2.576 -1.285,4.294 -3.436,5.152c-1.391,0.66 -3.415,1.178 -6.085,1.559C56.207,50.639 52.713,50.731 50.802,50.665z" id="path_1"/><path fill="#213e95" d="M69.601,16.292c0.16,-0.094 0.205,0.053 0.139,0.433c-0.886,2.077 -2.242,3.528 -4.073,4.347l-6.73,3.375c-0.285,-0.08 -0.339,-0.313 -0.158,-0.706c0.897,-1.731 1.51,-2.756 1.837,-3.083L69.601,16.292z" id="path_2"/><path fill="#008046" d="M35.552,46.245h2.07c2.069,0 3.838,-1.433 5.191,-3.727c0.26,-0.439 0.414,-0.727 0.62,-0.779h0.16l0.466,0.473c-0.068,0.593 -0.167,1.012 -0.313,1.245c0.912,1.665 2.005,2.496 3.276,2.496l0.157,0.153c2.265,-4.992 4.808,-7.488 7.643,-7.488c2.265,0 3.928,0.938 4.993,2.809v0.938c0,5.719 -3.536,8.581 -10.611,8.581l-2.336,-0.153c-0.726,1.971 -1.197,2.963 -1.404,2.963l-0.154,-0.153v-0.16l0.467,-2.649v-0.313c-1.537,-0.859 -2.729,-2.058 -3.589,-3.588c-0.805,2.637 -3.991,3.908 -6.636,3.801V46.245L35.552,46.245zM48.738,46.418h0.314c3.533,0 6.548,-0.52 9.044,-1.559c0,-1.117 -1.037,-1.896 -3.114,-2.342h-0.626C51.86,42.518 49.99,43.823 48.738,46.418z" id="path_3"/><path fill="#008046" d="M47.974,26.083h1.545c1.87,0 2.808,0.699 2.808,2.104c-1.211,3.274 -2.681,5.012 -4.413,5.212l-2.043,0.272c-0.326,0 -0.459,-0.093 -0.412,-0.272c1.65,-0.873 3.194,-1.91 4.626,-3.104c-0.507,-0.472 -1.064,-0.705 -1.677,-0.705h-0.434l-1.677,0.141l-0.135,-0.141v-0.272C46.954,27.161 47.561,26.083 47.974,26.083z" id="path_4"/><path fill="#000001" d="M35.612,50.631c-1.512,0.014 -2.756,-0.758 -3.749,-2.316h-0.151c-0.733,2.597 -1.823,4.42 -3.274,5.459c-2.058,1.977 -4.294,2.962 -6.711,2.962h-0.938c-2.758,0 -5.199,-1.558 -7.329,-4.679c-0.832,-1.432 -1.252,-3.096 -1.252,-4.993c0,-2.675 1.352,-5.378 4.061,-8.107c1.412,-0.899 1.831,-0.845 1.244,0.153c-2.389,3.328 -3.586,5.618 -3.586,6.862c0,3.229 2.389,5.358 7.174,6.397h1.252c2.676,0 5.326,-1.352 7.955,-4.055c0.272,-0.857 0.325,-1.797 0.152,-2.809c-0.519,-2.21 -1.297,-7.828 -2.337,-16.848l0.933,-3.122c0.146,-0.026 0.3,-0.026 0.472,0c0.287,0 0.806,3.954 1.559,11.856c0.519,4.159 1.09,6.803 1.87,7.801c0.587,0.749 1.524,1.031 2.656,0.992V50.631z" id="path_5"/><path fill="#f06022" d="M24.163,21.889c1.191,0 1.897,0.793 2.104,2.376v0.433c-0.22,2.649 -1.105,4.381 -2.65,5.186c-2.688,1.691 -5.131,2.536 -7.314,2.536c-0.08,-0.014 -0.152,-0.033 -0.232,-0.06c-0.08,-0.025 -0.141,-0.066 -0.187,-0.119c-0.047,-0.047 -0.039,-0.08 0.014,-0.094c0.112,-0.26 2.076,-1.299 5.883,-3.102v-0.141c-1.023,-0.646 -1.536,-1.537 -1.536,-2.669C20.855,23.334 22.16,21.889 24.163,21.889L24.163,21.889zM21.646,24.832v0.133c0,0.966 0.659,1.53 1.97,1.697h0.408c0.499,0 0.778,-0.14 0.838,-0.426c0,-1.312 -0.699,-1.971 -2.104,-1.971C22.02,24.432 21.646,24.625 21.646,24.832z" id="path_6"/><path fill="#f06022" d="M21.081,19.354c0.301,-0.147 0.439,-0.047 0.426,0.292c-1.504,1.663 -2.689,3.241 -3.548,4.739c-0.245,0.586 -0.386,1.064 -0.419,1.451s0.066,0.799 0.306,1.238h0.293c0.113,-0.652 0.347,-0.979 0.7,-0.979c0.419,0.187 0.651,0.373 0.698,0.565v0.273c0.027,1.483 -0.393,2.376 -1.266,2.675h-0.698c-0.938,-0.186 -1.404,-1.264 -1.404,-3.24C16.169,23.965 17.808,21.629 21.081,19.354z" id="path_7"/></svg>