<svg id="vector" xmlns="http://www.w3.org/2000/svg" width="75" height="67" viewBox="0 0 83 73"><path fill="#213e95" d="M70.305,47.359h0.281c0.949,0.207 1.973,0.766 3.066,1.676v0.137c-0.631,1.9 -1.184,2.924 -1.67,3.066c-1.42,-0.281 -2.484,-0.744 -3.205,-1.396v-0.137C68.777,49.611 69.289,48.5 70.305,47.359z" id="path_0"/><path fill="#213e95" d="M75.463,46.105H75.6c0.951,0.143 2.021,0.789 3.205,1.949v0.143l-1.672,2.924c-2.227,-0.719 -3.344,-1.326 -3.344,-1.813C74.508,47.176 75.066,46.105 75.463,46.105z" id="path_1"/><path fill="#213e95" d="M69.07,40.99c3.646,0.035 5.688,-0.648 6.131,-2.057c0,-0.488 -0.463,-1.695 -1.395,-3.619l0.42,-3.619H74.5c1.213,2.086 1.814,4.178 1.814,6.264v1.254c0,0.838 -0.203,1.717 -0.602,2.637c-0.398,0.922 -1.016,1.701 -1.842,2.324c-0.832,0.631 -2.432,0.891 -4.801,0.785V40.99z" id="path_2"/><path fill="#213e95" d="M79.516,22.1c0.145,-0.084 0.186,0.047 0.125,0.387c-0.789,1.854 -2.002,3.148 -3.635,3.879l-6.008,3.014c-0.256,-0.072 -0.303,-0.281 -0.143,-0.631c0.801,-1.545 1.35,-2.459 1.639,-2.752L79.516,22.1z" id="path_3"/><path fill="#000001" d="M49.656,39.682c1.143,0 1.973,0 2.508,0h0.559c1.67,-0.219 4.166,-0.934 7.486,-2.139c-1.115,-0.934 -2.834,-1.627 -5.15,-2.092c-1.373,0 -2.301,0.646 -2.787,1.949c-0.172,0.387 -0.326,0.486 -0.463,0.303c-0.131,-0.178 -0.166,-0.416 -0.096,-0.719c0.838,-2.811 1.949,-4.213 3.346,-4.213h0.973c0.93,0 2.604,0.523 5.023,1.568c2.418,1.039 4.504,1.463 6.258,1.254c0.217,0 0.313,0.137 0.277,0.416c-0.373,2.318 -1.07,3.482 -2.092,3.482l-0.693,0.137v0.279c0.348,0.73 1.953,1.082 4.824,1.045v3.951c-4.154,0.221 -6.227,-1.395 -6.215,-4.854c-1.486,0.221 -3.502,0.908 -6.045,2.08c-2.543,1.164 -5.111,1.662 -7.713,1.502V39.682z" id="path_4"/><path fill="#000001" d="M59.301,20.762h1.379c1.67,0 2.508,0.623 2.508,1.879c-1.082,2.924 -2.395,4.473 -3.939,4.652l-1.826,0.244c-0.289,0 -0.408,-0.084 -0.367,-0.244c1.473,-0.779 2.852,-1.705 4.129,-2.77c-0.449,-0.422 -0.949,-0.631 -1.496,-0.631h-0.387l-1.498,0.125l-0.117,-0.125V23.65C58.393,21.725 58.932,20.762 59.301,20.762z" id="path_5"/><path fill="#DD2C00" d="M49.953,43.65c-0.219,0 -0.486,0 -0.801,0c-1.242,-0.012 -2.58,-0.943 -4.023,-2.803c-0.553,2.043 -1.527,3.064 -2.924,3.064h-0.137c-1.184,0 -2.156,-0.695 -2.922,-2.092h-0.143c-0.834,1.678 -1.844,2.438 -3.031,2.283c-2.205,0.012 -3.512,-1.029 -3.936,-3.113c-1.551,1.816 -3.219,2.709 -4.996,2.66h-0.227v-3.969h0.072c2.811,-0.094 4.895,-1.053 6.268,-2.871c0.186,0 0.279,0.139 0.279,0.416l-0.143,0.977c0.744,1.484 1.719,2.227 2.926,2.227c1.141,0 2.299,-1.111 3.48,-3.338h0.143l0.416,0.416v0.975c0,0.879 0.654,1.389 1.949,1.531h0.279c1.207,0 2.324,-1.205 3.346,-3.623h0.137c0.184,0 0.279,0.42 0.279,1.254c0.512,1.408 1.748,2.086 3.707,2.037V43.65z" id="path_6"/><path fill="#DD2C00" d="M43.811,23.857c0.143,-0.082 0.184,0.047 0.125,0.387c-0.791,1.854 -2.002,3.15 -3.637,3.881l-6.01,3.012c-0.254,-0.07 -0.301,-0.279 -0.141,-0.629c0.803,-1.545 1.35,-2.461 1.639,-2.752L43.811,23.857z" id="path_7"/><path fill="#000001" d="M13.867,46.367c0.475,0 1.586,0.559 3.34,1.67c0,0.693 -0.559,1.813 -1.67,3.346c-2.229,-0.721 -3.346,-1.373 -3.346,-1.949C12.252,48.91 12.809,47.889 13.867,46.367z" id="path_8"/><path fill="#000001" d="M27.518,43.668c-1.777,-0.141 -3.389,-1.389 -4.826,-3.742c-2.135,2.596 -5.199,3.898 -9.191,3.898h-1.111c-4.32,0 -7.293,-1.855 -8.914,-5.568l-0.143,-0.838v-1.254c0,-1.344 0.605,-2.875 1.811,-4.594h0.139l0.279,0.279v0.695l-0.695,2.229c0,2.438 2.043,4.105 6.127,5.016l2.508,0.137c4.342,0 7.777,-1.486 10.309,-4.457c0.137,0 0.271,0.184 0.414,0.559l-0.143,0.975c0.477,1.752 1.623,2.633 3.438,2.645V43.668z" id="path_9"/><path fill="#000001" d="M15.086,21.611c1.424,0 2.139,0.881 2.139,2.633c0,2.793 -2.383,5.176 -7.156,7.137c-0.682,0.207 -0.766,-0.041 -0.24,-0.748c0.131,-0.268 1.252,-1.105 3.373,-2.508v-0.119c-0.914,-0.375 -1.371,-1.17 -1.371,-2.389c0.605,-2.668 1.568,-4.006 2.887,-4.006H15.086L15.086,21.611zM12.957,24.625c0,0.742 0.631,1.199 1.885,1.377h0.244c0.463,0 0.76,-0.172 0.885,-0.504c0,-0.756 -0.547,-1.344 -1.635,-1.758C13.863,23.74 13.404,24.035 12.957,24.625z" id="path_10"/></svg>