<svg id="vector" xmlns="http://www.w3.org/2000/svg" width="75" height="67" viewBox="0 0 83 73"><path fill="#DD2C00" d="M75.042,36.467h0.606c1.77,0 3.081,1.559 3.939,4.68l0.148,1.559c0.053,0.504 0.053,1.025 0,1.564c-0.452,1.896 -1.465,3.768 -3.027,5.611c-1.085,0.939 -3.552,1.664 -7.414,2.184c-0.453,-0.207 -0.71,-0.414 -0.755,-0.619c6.457,-3.615 9.685,-5.799 9.685,-6.557l0.149,-0.467l-0.149,-0.152l-1.361,0.465h-0.757c-2.724,0 -4.086,-0.99 -4.086,-2.961v-0.314c0.348,-3.229 1.111,-4.838 2.267,-4.838L75.042,36.467z" id="path_0"/><path fill="#DD2C00" d="M79.051,23.826c0.156,-0.092 0.201,0.055 0.137,0.434c-0.859,2.076 -2.176,3.527 -3.952,4.346l-6.528,3.375c-0.278,-0.08 -0.33,-0.313 -0.155,-0.705c0.872,-1.73 1.466,-2.756 1.782,-3.082L79.051,23.826z" id="path_1"/><path fill="#000001" d="M65.239,19.32c0.303,0 0.607,1.045 0.911,3.121l1.362,3.123l-0.606,3.588l0.453,8.74v1.396c-0.201,3.568 -0.704,5.645 -1.511,6.244l-0.148,-0.152l0.148,-2.344c0,-2.104 -0.659,-8.813 -1.97,-20.123C64.51,20.518 64.961,19.32 65.239,19.32z" id="path_2"/><path fill="#000001" d="M55.179,41.48c1.308,0.033 3.587,-1.531 3.48,-1.637l-1.814,-14.826c0.452,-2.809 0.859,-4.205 1.207,-4.205l1.97,4.678c0,0.727 -0.251,1.818 -0.755,3.275l0.755,8.422v2.342c-0.717,3.135 -1.182,6.029 -4.842,6.076C55.155,44.84 55.179,43.627 55.179,41.48z" id="path_3"/><path fill="#000001" d="M57.135,10.621h1.498c1.816,0 2.727,0.699 2.727,2.104c-1.176,3.273 -2.604,5.012 -4.282,5.211l-1.982,0.273c-0.317,0 -0.446,-0.094 -0.4,-0.273c1.602,-0.873 3.1,-1.91 4.488,-3.102c-0.492,-0.473 -1.034,-0.705 -1.628,-0.705h-0.419l-1.626,0.141l-0.13,-0.141v-0.273C56.147,11.699 56.735,10.621 57.135,10.621z" id="path_4"/><path fill="#213e95" d="M30.9,42.379c1.182,-0.42 3.307,-0.719 6.367,-0.9c3.506,0.027 6.761,-0.611 9.763,-1.91v-0.152c-1.188,-1.252 -2.395,-1.877 -3.628,-1.877c-0.749,0.025 -1.149,-0.125 -1.214,-0.465c0.581,-1.719 1.433,-2.744 2.557,-3.084c0.943,-0.326 2.26,-0.545 3.953,-0.664c3.202,0.053 4.868,0.885 4.991,2.496v0.625c0,1.264 -0.503,2.455 -1.511,3.588v0.313c0.226,0.912 1.234,1.277 3.028,1.092h0.11v4.115l-0.265,0.1h-1.511c-1.576,-0.154 -2.989,-1.246 -4.235,-3.275c-3.674,1.023 -6.025,1.631 -7.058,1.824c-1.034,0.186 -2.358,0.299 -3.972,0.338c-1.615,0.041 -2.841,0.02 -3.674,-0.061c-0.834,-0.072 -1.724,-0.191 -2.687,-0.352C30.062,43.377 29.726,42.791 30.9,42.379z" id="path_5"/><path fill="#213e95" d="M52.589,19.633c0.156,-0.092 0.201,0.053 0.137,0.434c-0.86,2.076 -2.176,3.527 -3.953,4.346l-6.527,3.375c-0.279,-0.08 -0.33,-0.313 -0.156,-0.705c0.872,-1.73 1.467,-2.756 1.783,-3.082L52.589,19.633z" id="path_6"/><path fill="#008046" d="M18.231,40.115h0.588c1.995,-0.219 3.674,-1.463 5.036,-3.729c0.2,-0.465 0.401,-0.725 0.601,-0.777h0.155l0.453,0.473c-0.065,0.592 -0.162,1.012 -0.304,1.244c0.885,1.664 1.944,2.496 3.177,2.496l0.156,0.154c2.194,-4.994 4.661,-7.49 7.413,-7.49c2.196,0 3.809,0.939 4.842,2.809v0.939c0,5.717 -3.429,8.58 -10.293,8.58l-2.266,-0.154c-0.704,1.971 -1.162,2.963 -1.362,2.963l-0.149,-0.152v-0.16l0.452,-2.65V44.35c-1.492,-0.859 -2.647,-2.059 -3.481,-3.59c-0.78,2.637 -2.453,3.908 -5.017,3.801V40.115L18.231,40.115zM29.602,40.287h0.303c3.429,0 6.354,-0.518 8.776,-1.557c0,-1.119 -1.007,-1.896 -3.022,-2.344h-0.607C32.631,36.387 30.816,37.691 29.602,40.287z" id="path_7"/><path fill="#008046" d="M28.86,19.945h1.498c1.814,0 2.725,0.699 2.725,2.105c-1.175,3.273 -2.602,5.012 -4.281,5.211l-1.982,0.271c-0.317,0 -0.446,-0.092 -0.401,-0.271c1.602,-0.873 3.1,-1.91 4.488,-3.102c-0.49,-0.473 -1.033,-0.707 -1.627,-0.707H28.86l-1.627,0.141l-0.13,-0.141v-0.271C27.872,21.023 28.459,19.945 28.86,19.945z" id="path_8"/><path fill="#000001" d="M19.529,44.574c-0.135,0.014 -0.277,0.02 -0.414,0.02h-0.761c-1.181,0 -1.988,-0.1 -2.421,-0.311c-0.878,3.5 -1.905,5.643 -3.08,6.43c-1.175,0.785 -3.829,1.449 -7.961,1.996H4.587c-0.91,-0.105 -1.362,-0.26 -1.362,-0.467c0,-0.311 0.756,-0.678 2.267,-1.09c5.953,-2.811 8.93,-4.84 8.93,-6.084c0,-0.521 -0.704,-1.719 -2.118,-3.59c-0.304,-0.525 -0.453,-1.197 -0.453,-2.029v-1.557c0,-0.785 0.148,-1.199 0.453,-1.252c1.31,2.07 3.532,3.223 6.658,3.467c0.193,0 0.38,0 0.567,-0.014V44.574z" id="path_9"/><path fill="#000001" d="M15.254,54.227c0.155,-0.086 0.201,0.053 0.137,0.434c-0.86,2.076 -2.176,3.527 -3.953,4.346L4.91,62.381c-0.278,-0.078 -0.329,-0.313 -0.155,-0.699c0.872,-1.73 1.467,-2.756 1.783,-3.082L15.254,54.227z" id="path_10"/></svg>