<svg id="vector" xmlns="http://www.w3.org/2000/svg" width="75" height="67" viewBox="0 0 83 73"><path fill="#000001" d="M50.572,46.521h0.061c2.416,-0.106 4.08,-1.271 4.992,-3.509c0,-0.313 0.207,-0.572 0.625,-0.784h0.314c0.205,0 0.311,0.159 0.311,0.472l-0.158,0.932c0.885,1.564 1.824,2.344 2.809,2.344h0.779c1.352,0 2.396,-1.352 3.121,-4.054h0.16c0.154,0.02 0.412,0.646 0.779,1.87c0.885,0.779 1.764,1.245 2.648,1.404c1.039,0 1.564,-0.625 1.564,-1.87c0.1,-1.977 0.307,-2.968 0.619,-2.968c0.42,0.884 0.625,1.976 0.625,3.273c0,3.854 -0.938,5.778 -2.809,5.778c-1.457,0 -2.648,-0.732 -3.588,-2.189h-0.313c-0.645,2.083 -1.691,3.121 -3.123,3.121h-0.152c-1.271,0 -2.729,-0.985 -4.365,-2.961c-1.379,2.389 -2.943,3.587 -4.68,3.587h-0.221V46.521z" id="path_0"/><path fill="#000001" d="M66.834,27.916c0.16,-0.093 0.207,0.054 0.141,0.433c-0.887,2.077 -2.244,3.528 -4.074,4.348l-6.73,3.374c-0.285,-0.08 -0.338,-0.313 -0.158,-0.706c0.898,-1.73 1.51,-2.755 1.836,-3.082L66.834,27.916z" id="path_1"/><path fill="#0992d1" d="M43.09,52.685c0.533,0 1.785,0.626 3.748,1.871c0,0.778 -0.625,2.03 -1.877,3.747c-2.496,-0.812 -3.74,-1.537 -3.74,-2.189C41.287,55.534 41.906,54.39 43.09,52.685z" id="path_2"/><path fill="#0992d1" d="M37.412,46.521c1.111,0.014 1.797,-0.007 2.07,-0.061c2.344,-0.712 3.941,-2.23 4.799,-4.539c0.127,-0.446 0.387,-0.5 0.779,-0.16c0.207,0.18 0.365,0.912 0.467,2.184c1.418,1.91 3.188,2.77 5.305,2.576h0.412v4.446h-0.1c-3.314,-0.153 -5.758,-1.664 -7.336,-4.526h-0.152c-1.105,2.329 -2.563,3.761 -4.367,4.293c-0.545,0.153 -1.17,0.233 -1.877,0.233V46.521z" id="path_3"/><path fill="#0992d1" d="M43.123,27.237h1.545c1.871,0 2.809,0.699 2.809,2.104c-1.211,3.275 -2.682,5.013 -4.412,5.213l-2.045,0.272c-0.326,0 -0.459,-0.094 -0.412,-0.272c1.65,-0.873 3.195,-1.911 4.627,-3.104c-0.506,-0.472 -1.066,-0.704 -1.678,-0.704h-0.434l-1.676,0.139l-0.133,-0.139v-0.273C42.105,28.315 42.711,27.237 43.123,27.237z" id="path_4"/><path fill="#008046" d="M21.523,46.521c1.73,0.146 3.203,-0.026 4.428,-0.506l-0.646,-1.171c-0.605,-3.436 -0.334,-5.706 0.82,-6.817c1.156,-1.111 2.402,-1.623 3.727,-1.53c2.576,0.119 4.027,1.471 4.367,4.054v0.938c0,2.156 -0.314,3.508 -0.934,4.053c-0.393,0.407 0.494,0.746 2.65,1.02l0.506,-0.021c0.393,-0.013 0.838,-0.02 1.344,-0.02v4.446l-1.576,0.021c-2.938,-0.014 -5.16,-0.387 -6.67,-1.112c-2.078,0.726 -3.695,1.092 -4.834,1.092H24.08c-0.779,0 -1.631,0 -2.557,0V46.521L21.523,46.521zM27.041,42.115v0.313c0.652,1.118 1.639,1.896 2.963,2.337c0.885,-0.153 1.771,-0.521 2.656,-1.093c-0.393,-1.457 -1.691,-2.289 -3.9,-2.496C27.615,41.489 27.041,41.802 27.041,42.115z" id="path_5"/><path fill="#008046" d="M30.064,27.524c1.691,0.525 3.148,1.357 4.367,2.495v0.16c0,0.652 -0.674,1.69 -2.023,3.122c-0.42,0 -1.824,-0.521 -4.215,-1.564v0.16c-0.832,1.61 -1.352,2.442 -1.564,2.496c-1.35,-0.287 -2.496,-0.913 -3.428,-1.877c0.625,-2.597 1.145,-3.895 1.559,-3.895c0.338,0 1.59,0.619 3.746,1.87C28.506,29.947 29.025,28.954 30.064,27.524z" id="path_6"/><path fill="#f06022" d="M33.633,18.204l0.16,0.141v0.425c-0.813,1.731 -1.938,2.943 -3.375,3.648c-4.475,2.43 -6.957,3.647 -7.449,3.647c-0.188,0 -0.279,-0.146 -0.279,-0.432c0.432,-1.651 1.371,-2.77 2.809,-3.355l8,-4.074H33.633z" id="path_7"/><path fill="#f06022" d="M32.521,14.697c0.178,0 0.271,0.133 0.271,0.405c-0.52,1.512 -2.057,2.869 -4.619,4.081l-5.91,3.234l-0.133,-0.14v-0.153c0.559,-1.977 1.443,-3.195 2.668,-3.647l6.59,-3.375L32.521,14.697z" id="path_8"/><path fill="#008046" d="M21.656,50.968c-3.029,0.18 -5.23,-1.218 -6.609,-4.194c-0.666,-1.104 -1.285,-8.553 -1.871,-22.345v-0.313c0.387,-2.289 0.959,-3.435 1.711,-3.435l0.785,-0.152c0.959,0 2.416,0.313 4.367,0.931v0.313c-0.107,0.313 -0.42,0.473 -0.938,0.473h-2.65c-0.545,0 -1.064,0.306 -1.564,0.932c0.486,11.976 1.191,18.911 2.131,20.809c0.932,1.897 2.482,2.743 4.639,2.536V50.968z" id="path_9"/></svg>