<svg id="vector" xmlns="http://www.w3.org/2000/svg" width="75" height="67" viewBox="0 0 83 73"><path fill="#213e95" d="M62.866,44.67c-8.66,0.367 -13.319,-0.033 -13.973,-1.204c-0.659,-1.172 2.337,-1.771 8.98,-1.797c1.311,-0.027 2.144,-0.061 2.496,-0.114c5.277,-0.818 8.499,-1.704 9.671,-2.655v-0.153l-1.716,-4.061v-0.618c0,-2.084 0.259,-3.123 0.778,-3.123c1.456,2.782 2.182,4.966 2.182,6.55v0.313c0,3.614 -1.815,5.698 -5.456,6.244C64.902,44.298 63.918,44.505 62.866,44.67z" id="path_0"/><path fill="#213e95" d="M67.758,47.46c0.965,0 2.156,0.678 3.588,2.03v0.313c-0.886,2.29 -1.512,3.434 -1.87,3.434c-1.771,-0.678 -2.863,-1.357 -3.274,-2.03v-0.153C66.201,49.957 66.72,48.765 67.758,47.46z" id="path_1"/><path fill="#213e95" d="M73.022,20.242c0.16,-0.094 0.207,0.053 0.141,0.432c-0.885,2.077 -2.242,3.528 -4.073,4.347l-6.73,3.375c-0.286,-0.08 -0.339,-0.313 -0.16,-0.705c0.899,-1.731 1.512,-2.757 1.837,-3.083L73.022,20.242z" id="path_2"/><path fill="#008046" d="M45.521,40.365c0.328,0 1.842,0 2.194,0l0.778,-0.393c0.493,-1.012 1.225,-2.256 2.184,-3.741L49.12,24.215c0.519,-2.496 0.984,-3.741 1.404,-3.741l0.779,2.962c0.726,1.012 1.091,1.951 1.091,2.809c-0.519,0.958 -0.778,1.745 -0.778,2.336v0.313l0.313,4.992v0.786c1.611,-1.358 3.767,-2.098 6.469,-2.223c3.122,0.438 4.681,1.477 4.681,3.115v1.091c-0.519,2.317 -1.299,4.088 -2.336,5.306c-3.149,1.771 -6.604,2.715 -10.379,2.849h-1.716c-0.687,0 -2.514,0 -3.127,0V40.365L45.521,40.365zM49.74,40.445h0.312c4.761,-0.134 8.481,-0.979 11.157,-2.537c-1.219,-1.251 -2.104,-1.871 -2.65,-1.871h-1.25C53.748,36.164 51.225,37.635 49.74,40.445z" id="path_3"/><path fill="#0992d1" d="M56.915,19.089h1.544c1.87,0 2.811,0.699 2.811,2.104c-1.213,3.274 -2.684,5.012 -4.413,5.212l-2.044,0.273c-0.328,0 -0.46,-0.094 -0.413,-0.273c1.649,-0.872 3.194,-1.91 4.625,-3.102c-0.505,-0.473 -1.064,-0.706 -1.677,-0.706h-0.433l-1.678,0.14l-0.133,-0.14v-0.273C55.896,20.168 56.503,19.089 56.915,19.089z" id="path_4"/><path fill="#000001" d="M37.438,29.581c0.886,0 2.083,0.732 3.587,2.183v0.313c-1.011,2.183 -1.691,3.275 -2.03,3.275l-3.587,-2.023h-0.153c-1.013,1.737 -1.691,2.675 -2.03,2.809h-0.152c-2.291,-1.019 -3.437,-1.798 -3.437,-2.344c0.833,-2.289 1.564,-3.434 2.185,-3.434l3.748,2.03C36.167,31.172 36.785,30.233 37.438,29.581z" id="path_5"/><path fill="#000001" d="M33.384,24.748c1.013,0 2.157,0.885 3.429,2.649c-0.339,0.806 -1.012,1.745 -2.024,2.81h-0.312c-0.913,-0.207 -1.897,-0.779 -2.971,-1.717v-0.466C31.586,27.19 32.212,26.099 33.384,24.748z" id="path_6"/><path fill="#000001" d="M45.826,44.831H45.22h-0.154c-1.119,0 -2.316,-0.659 -3.586,-2.223c-0.499,1.877 -1.432,2.809 -2.811,2.809c-1.377,0 -2.469,-0.779 -3.282,-2.336c-1.117,1.451 -2.156,2.183 -3.114,2.183h-1.252l-1.092,-0.16c0,2.317 -0.726,4.707 -2.183,7.175c-2.604,3.023 -5.306,4.526 -8.114,4.526c-4.859,0 -8.034,-2.549 -9.513,-7.642l-0.313,-3.281c0,-3.062 1.245,-5.771 3.741,-8.107c0.419,0.207 0.626,0.519 0.626,0.932c-1.771,2.449 -2.648,4.373 -2.648,5.777v0.619c0,3.435 1.97,5.771 5.924,7.022l2.495,0.313c3.695,0 6.558,-1.665 8.58,-4.992l0.16,-1.717c-1.352,-2.649 -2.03,-4.314 -2.03,-4.992v-0.466c0,-1.665 0.154,-2.496 0.466,-2.496c1.046,2.183 2.604,3.275 4.681,3.275c1.743,0 3.147,-1.092 4.212,-3.275h0.16c0.207,0 0.359,0.672 0.466,2.023c0.726,0.732 1.352,1.092 1.87,1.092h0.78c0.966,0 1.849,-1.191 2.656,-3.588l0.152,-0.153h0.16c0.206,1.911 1.027,3.066 2.496,3.215c0.438,0.045 0.799,-0.04 1.072,-0.02V44.831z" id="path_7"/><path fill="#000001" d="M37.61,16.221c0.16,-0.092 0.207,0.054 0.141,0.433c-0.886,2.077 -2.243,3.528 -4.074,4.346l-6.729,3.376c-0.287,-0.08 -0.34,-0.313 -0.16,-0.706c0.898,-1.73 1.511,-2.755 1.837,-3.082L37.61,16.221z" id="path_8"/></svg>