<svg id="vector" xmlns="http://www.w3.org/2000/svg" width="75" height="67" viewBox="0 0 83 73"><path fill="#213e95" d="M70.102,26.047h0.266c0.906,0.197 1.883,0.725 2.924,1.592v0.131c-0.6,1.818 -1.127,2.787 -1.592,2.924c-1.354,-0.268 -2.369,-0.709 -3.055,-1.326V29.23C68.645,28.188 69.133,27.129 70.102,26.047z" id="path_0"/><path fill="#213e95" d="M75.02,24.852h0.131c0.906,0.129 1.926,0.748 3.053,1.857v0.131l-1.592,2.787c-2.125,-0.686 -3.189,-1.258 -3.189,-1.723C74.107,25.865 74.641,24.852 75.02,24.852z" id="path_1"/><path fill="#213e95" d="M68.924,39.871c3.479,0.035 5.422,-0.617 5.848,-1.959c0,-0.467 -0.443,-1.617 -1.332,-3.451l0.4,-3.451h0.262c1.156,1.988 1.729,3.982 1.729,5.973v1.195c0,0.799 -0.193,1.637 -0.572,2.516c-0.381,0.879 -0.971,1.621 -1.756,2.215c-0.795,0.602 -2.318,0.85 -4.578,0.748V39.871z" id="path_2"/><path fill="#213e95" d="M77.338,17.705c0.135,-0.078 0.174,0.047 0.117,0.369c-0.752,1.768 -1.91,3.004 -3.467,3.699l-5.729,2.873c-0.244,-0.066 -0.289,-0.266 -0.137,-0.602c0.766,-1.471 1.287,-2.344 1.564,-2.621L77.338,17.705z" id="path_3"/><path fill="#000001" d="M56.045,39.254c1.557,-0.352 2.521,-1.01 2.889,-1.961c0.152,-0.527 0.199,-0.969 0.131,-1.326c-2.188,-4.635 -3.287,-7.354 -3.287,-8.146c-0.107,-1.377 0.023,-2.664 0.402,-3.869c0.375,-1.209 0.992,-2.041 1.859,-2.506l10.486,-6.373c0.268,0.061 -0.078,0.99 -1.025,2.775c-0.951,1.791 -1.535,2.725 -1.744,2.805c-0.211,0.086 -0.352,-0.227 -0.414,-0.936c-4.096,2.59 -6.543,4.166 -7.338,4.732c-0.799,0.566 -1.273,1.064 -1.428,1.506c1.242,3.365 2.953,6.908 5.145,10.625c1.57,2.146 3.785,3.223 6.643,3.223c0.186,0 0.424,0 0.713,0v3.803l-0.447,0.018c-3.877,0 -6.709,-1.904 -8.5,-5.711c-0.113,-0.234 -0.197,-0.279 -0.266,-0.137c-0.721,3.037 -1.994,4.764 -3.818,5.195c-0.641,0.203 -1.299,0.316 -1.979,0.352V39.52C54.809,39.463 55.467,39.377 56.045,39.254z" id="path_4"/><path fill="#000001" d="M60.537,11.365h1.314c1.592,0 2.391,0.596 2.391,1.791c-1.031,2.787 -2.281,4.268 -3.756,4.438l-1.738,0.23c-0.279,0 -0.393,-0.078 -0.352,-0.23c1.404,-0.742 2.719,-1.627 3.938,-2.641c-0.432,-0.402 -0.908,-0.602 -1.428,-0.602h-0.369l-1.428,0.119l-0.113,-0.119v-0.232C59.67,12.283 60.186,11.365 60.537,11.365z" id="path_5"/><path fill="#DD2C00" d="M45.631,22.205c1.863,0.93 2.793,1.729 2.793,2.391c-0.891,1.752 -1.418,2.635 -1.598,2.656h-0.266c-1.361,-0.686 -2.199,-1.303 -2.521,-1.857C44.35,24.387 44.883,23.326 45.631,22.205z" id="path_6"/><path fill="#DD2C00" d="M54.611,43.34c-2.277,-0.154 -4.346,-1.4 -6.205,-3.734H48.27c-0.793,4.6 -2.566,6.9 -5.309,6.906h-0.402c-1.189,-0.006 -2.346,-1.064 -3.451,-3.189c-0.883,-2.986 -1.324,-5.248 -1.324,-6.771v-1.064c0,-0.662 0.129,-1.02 0.396,-1.061c0.373,0.199 0.822,1.65 1.338,4.357c0.514,2.703 1.574,3.994 3.178,3.875c3.1,-0.51 4.736,-2.283 4.912,-5.313l-1.195,-4.115V31.77c0.045,-1.773 0.221,-2.658 0.533,-2.658c0.176,0.396 0.311,0.799 0.396,1.195l1.857,5.842c1.463,2.369 3.27,3.49 5.412,3.354V43.34z" id="path_7"/><path fill="#f06022" d="M48.77,48.398c0.135,-0.074 0.176,0.045 0.119,0.369c-0.754,1.768 -1.91,3.002 -3.469,3.699l-5.729,2.873c-0.242,-0.068 -0.289,-0.268 -0.135,-0.596c0.766,-1.473 1.285,-2.346 1.563,-2.623L48.77,48.398z" id="path_8"/><path fill="#000001" d="M28.434,45.611h0.268c0.906,0.197 1.881,0.73 2.922,1.598v0.131c-0.6,1.813 -1.127,2.787 -1.592,2.922c-1.354,-0.266 -2.369,-0.707 -3.055,-1.33v-0.131C26.977,47.758 27.465,46.699 28.434,45.611z" id="path_9"/><path fill="#000001" d="M33.352,44.416h0.131c0.906,0.135 1.926,0.752 3.053,1.857v0.137l-1.592,2.787c-2.125,-0.686 -3.189,-1.264 -3.189,-1.727C32.439,45.436 32.973,44.416 33.352,44.416z" id="path_10"/><path fill="#000001" d="M27.256,39.537c3.479,0.033 5.422,-0.617 5.848,-1.961c0,-0.465 -0.441,-1.613 -1.332,-3.449l0.402,-3.451h0.26c1.156,1.988 1.729,3.982 1.729,5.973v1.195c0,0.799 -0.191,1.637 -0.572,2.516c-0.379,0.877 -0.969,1.619 -1.756,2.215c-0.793,0.6 -2.318,0.85 -4.578,0.748V39.537z" id="path_11"/><path fill="#000001" d="M32.168,21.248h1.314c1.592,0 2.391,0.594 2.391,1.789c-1.031,2.789 -2.283,4.268 -3.756,4.438l-1.74,0.232c-0.277,0 -0.391,-0.08 -0.35,-0.232c1.402,-0.742 2.719,-1.627 3.938,-2.641c-0.432,-0.402 -0.908,-0.602 -1.428,-0.602h-0.369l-1.428,0.119l-0.113,-0.119v-0.23C31.301,22.164 31.816,21.248 32.168,21.248z" id="path_12"/><path fill="#213e95" d="M14.84,45.91c0.455,0 1.514,0.533 3.186,1.594c0,0.662 -0.533,1.729 -1.592,3.189c-2.125,-0.686 -3.189,-1.309 -3.189,-1.857C13.301,48.336 13.832,47.361 14.84,45.91z" id="path_13"/><path fill="#213e95" d="M27.855,43.34c-1.693,-0.137 -3.229,-1.326 -4.602,-3.57c-2.033,2.477 -4.957,3.717 -8.764,3.717h-1.059c-4.121,0 -6.953,-1.768 -8.5,-5.309l-0.137,-0.799v-1.197c0,-1.279 0.578,-2.74 1.729,-4.379h0.131L6.92,32.07v0.662l-0.662,2.123c0,2.324 1.949,3.916 5.842,4.783l2.391,0.131c4.143,0 7.416,-1.416 9.83,-4.25c0.131,0 0.26,0.176 0.396,0.533l-0.137,0.93c0.455,1.672 1.549,2.51 3.275,2.52V43.34z" id="path_14"/><path fill="#f06022" d="M20.047,54.943l0.137,0.119v0.361c-0.686,1.475 -1.643,2.504 -2.871,3.105c-3.809,2.068 -5.922,3.105 -6.34,3.105c-0.154,0 -0.234,-0.125 -0.234,-0.369c0.363,-1.404 1.162,-2.357 2.391,-2.855l6.807,-3.467H20.047z" id="path_15"/><path fill="#f06022" d="M19.102,51.957c0.16,0 0.232,0.113 0.232,0.346c-0.441,1.285 -1.75,2.441 -3.932,3.473l-5.031,2.754l-0.113,-0.119v-0.131c0.475,-1.682 1.234,-2.719 2.271,-3.104l5.615,-2.873L19.102,51.957z" id="path_16"/></svg>