<svg id="vector" xmlns="http://www.w3.org/2000/svg" width="75" height="67" viewBox="0 0 83 73"><path fill="#DD2C00" d="M65.395,38.994c0.321,0.023 0.646,0.033 0.971,0.033h0.379l1.589,-0.379c-0.379,-0.711 -0.569,-1.203 -0.569,-1.48c0,-4.068 1.312,-6.102 3.937,-6.102l1.02,-0.125c1.334,0.213 3.031,1.014 5.081,2.414l0.131,0.51l-0.131,0.125h-0.504c-0.976,-0.68 -2.077,-1.014 -3.309,-1.014c-1.882,0 -3.449,0.547 -4.702,1.646v0.131c1.101,1.779 3.135,2.67 6.101,2.67c2.332,-0.848 3.856,-1.27 4.578,-1.27c-0.402,2.369 -1.166,3.557 -2.29,3.557c-5.021,1.947 -9.002,2.924 -11.947,2.924h-0.336V38.994z" id="path_0"/><path fill="#DD2C00" d="M76.501,20.615c0.131,-0.076 0.169,0.043 0.114,0.354c-0.722,1.691 -1.828,2.873 -3.319,3.541l-5.483,2.75c-0.233,-0.066 -0.277,-0.256 -0.129,-0.574c0.731,-1.412 1.23,-2.246 1.497,-2.514L76.501,20.615z" id="path_1"/><path fill="#000001" d="M65.904,42.635c-0.201,0 -0.444,0 -0.732,0c-1.133,-0.01 -2.353,-0.863 -3.671,-2.561c-0.504,1.867 -1.394,2.799 -2.668,2.799h-0.125c-1.079,0 -1.968,-0.635 -2.668,-1.91h-0.13c-0.759,1.531 -1.681,2.225 -2.766,2.084c-2.011,0.01 -3.205,-0.939 -3.59,-2.842c-1.416,1.66 -2.939,2.473 -4.561,2.43h-0.206v-3.623h0.065c2.564,-0.088 4.469,-0.959 5.722,-2.619c0.168,0 0.254,0.123 0.254,0.379l-0.13,0.889c0.679,1.357 1.568,2.035 2.669,2.035c1.041,0 2.098,-1.014 3.178,-3.049h0.13l0.379,0.379v0.891c0,0.803 0.597,1.27 1.779,1.4h0.255c1.101,0 2.121,-1.104 3.053,-3.309h0.125c0.168,0 0.255,0.385 0.255,1.145c0.466,1.285 1.594,1.902 3.383,1.859V42.635z" id="path_2"/><path fill="#000001" d="M55.464,24.303h1.259c1.524,0 2.289,0.57 2.289,1.715c-0.988,2.668 -2.186,4.084 -3.596,4.246l-1.665,0.223c-0.266,0 -0.375,-0.076 -0.336,-0.223c1.345,-0.711 2.604,-1.557 3.77,-2.527c-0.413,-0.385 -0.868,-0.574 -1.367,-0.574h-0.353l-1.366,0.113l-0.108,-0.113v-0.223C54.635,25.182 55.129,24.303 55.464,24.303z" id="path_3"/><path fill="#213e95" d="M45.388,42.635c-0.081,0 -0.168,0 -0.25,0h-1.144c-1.145,0 -2.462,-0.721 -3.943,-2.158c-2.543,1.393 -5.288,2.115 -8.232,2.158v-3.607c1.541,0.104 3.52,-0.217 5.944,-0.971v-0.125c-1.167,-0.764 -2.267,-1.143 -3.303,-1.143l-1.02,0.123l-0.254,-0.633c0.341,-2.289 1.318,-3.434 2.923,-3.434l2.033,-0.125c3.222,0.379 4.833,1.1 4.833,2.158v0.51l-0.764,2.543c0.618,0.75 1.676,1.113 3.178,1.08V42.635z" id="path_4"/><path fill="#213e95" d="M43.116,21.998c0.13,-0.076 0.167,0.045 0.114,0.354c-0.721,1.691 -1.828,2.875 -3.319,3.541l-5.484,2.75c-0.232,-0.064 -0.276,-0.256 -0.13,-0.576c0.732,-1.408 1.231,-2.244 1.497,-2.51L43.116,21.998z" id="path_5"/><path fill="#000001" d="M32.377,42.65h-0.493h-0.125c-0.911,0.064 -1.887,-0.537 -2.923,-1.813c-0.401,1.531 -1.167,2.289 -2.289,2.289c-1.123,0 -2.012,-0.633 -2.668,-1.902c-0.912,1.182 -1.758,1.779 -2.544,1.779h-1.014l-0.889,-0.131c0,1.887 -0.597,3.834 -1.785,5.846c-2.115,2.463 -4.317,3.688 -6.605,3.688c-3.964,0 -6.546,-2.076 -7.755,-6.225l-0.255,-2.674c0,-2.494 1.019,-4.701 3.053,-6.605C6.422,37.07 6.59,37.324 6.59,37.66c-1.437,1.996 -2.158,3.564 -2.158,4.709v0.504c0,2.799 1.611,4.701 4.832,5.721l2.034,0.256c3.004,0 5.337,-1.355 6.99,-4.068l0.125,-1.398c-1.101,-2.158 -1.654,-3.514 -1.654,-4.068v-0.379c0,-1.355 0.13,-2.033 0.385,-2.033c0.846,1.779 2.115,2.668 3.813,2.668c1.421,0 2.565,-0.889 3.433,-2.668h0.125c0.167,0 0.297,0.547 0.379,1.648c0.597,0.596 1.105,0.889 1.529,0.889h0.635c0.781,0 1.502,-0.971 2.158,-2.924l0.131,-0.123h0.125c0.167,1.557 0.846,2.43 2.034,2.619c0.364,-0.033 0.65,-0.033 0.873,-0.018V42.65z" id="path_6"/><path fill="#000001" d="M25.419,25.828c0.131,-0.076 0.168,0.043 0.114,0.352c-0.722,1.693 -1.827,2.875 -3.319,3.541l-5.483,2.75c-0.233,-0.064 -0.277,-0.254 -0.13,-0.574c0.732,-1.41 1.231,-2.246 1.498,-2.512L25.419,25.828z" id="path_7"/></svg>