<svg id="vector" xmlns="http://www.w3.org/2000/svg" width="75" height="67" viewBox="0 0 83 73"><path fill="#000001" d="M67.13,51.047h0.313c1.064,0.232 2.209,0.859 3.434,1.877v0.152c-0.705,2.131 -1.324,3.275 -1.869,3.436c-1.592,-0.313 -2.783,-0.832 -3.589,-1.564v-0.154C65.418,53.569 65.991,52.325 67.13,51.047z" id="path_0"/><path fill="#000001" d="M72.906,49.643h0.153c1.066,0.16 2.264,0.885 3.588,2.184v0.158l-1.869,3.275c-2.497,-0.805 -3.749,-1.484 -3.749,-2.029C71.835,50.84 72.461,49.643 72.906,49.643z" id="path_1"/><path fill="#000001" d="M65.745,43.911c4.086,0.041 6.369,-0.725 6.869,-2.303c0,-0.545 -0.52,-1.896 -1.564,-4.055l0.473,-4.053h0.306c1.358,2.336 2.03,4.68 2.03,7.016v1.404c0,0.939 -0.227,1.924 -0.672,2.957c-0.445,1.031 -1.139,1.902 -2.063,2.602c-0.933,0.705 -2.722,0.998 -5.378,0.879V43.911z" id="path_2"/><path fill="#000001" d="M77.446,22.756c0.16,-0.094 0.207,0.053 0.141,0.434c-0.885,2.076 -2.244,3.527 -4.074,4.346l-6.729,3.375c-0.286,-0.078 -0.339,-0.313 -0.16,-0.705c0.899,-1.73 1.512,-2.756 1.837,-3.082L77.446,22.756z" id="path_3"/><path fill="#008046" d="M43.319,42.454c1.277,0 2.888,0 3.487,0h0.626c1.87,-0.246 4.666,-1.045 8.387,-2.396c-1.251,-1.045 -3.175,-1.824 -5.771,-2.344c-1.538,0 -2.576,0.727 -3.122,2.184c-0.193,0.434 -0.367,0.547 -0.52,0.34c-0.146,-0.199 -0.187,-0.465 -0.106,-0.807c0.938,-3.148 2.183,-4.719 3.748,-4.719h1.091c1.039,0 2.916,0.586 5.625,1.758c2.709,1.164 5.045,1.637 7.01,1.404c0.246,0 0.353,0.152 0.313,0.467c-0.419,2.596 -1.198,3.9 -2.343,3.9l-0.779,0.152v0.313c0.394,0.82 2.19,1.213 5.405,1.172v4.426c-4.652,0.248 -6.977,-1.563 -6.963,-5.438c-1.664,0.246 -3.92,1.021 -6.77,2.33c-2.848,1.307 -6.403,1.863 -9.318,1.684V42.454z" id="path_4"/><path fill="#008046" d="M51.778,26.366c2.184,1.09 3.282,2.029 3.282,2.809c-1.045,2.049 -1.664,3.094 -1.877,3.121H52.87c-1.597,-0.805 -2.582,-1.537 -2.961,-2.184C50.275,28.928 50.9,27.676 51.778,26.366z" id="path_5"/><path fill="#008046" d="M51.933,16.26h1.544c1.871,0 2.81,0.699 2.81,2.104c-1.212,3.275 -2.684,5.012 -4.414,5.213l-2.043,0.271c-0.326,0 -0.46,-0.092 -0.413,-0.271c1.651,-0.873 3.195,-1.912 4.627,-3.104c-0.507,-0.471 -1.065,-0.705 -1.679,-0.705h-0.432l-1.678,0.141l-0.133,-0.141v-0.273C50.914,17.338 51.52,16.26 51.933,16.26z" id="path_6"/><path fill="#000001" d="M36.117,27.356c1.185,0.221 2.329,0.998 3.435,2.344c-0.832,1.982 -1.611,3.076 -2.344,3.275c-1.165,-0.52 -2.209,-1.146 -3.115,-1.879l-2.029,2.656c-2.391,-0.832 -3.589,-1.457 -3.589,-1.869c0,-0.912 0.626,-2.211 1.871,-3.9c2.083,0.973 3.382,1.75 3.9,2.336C34.505,29.307 35.132,28.315 36.117,27.356z" id="path_7"/><path fill="#000001" d="M32.528,22.518h0.16c2.283,0.965 3.429,1.85 3.429,2.654c-1.026,1.871 -1.911,2.811 -2.65,2.811c-1.378,-0.52 -2.369,-1.145 -2.961,-1.877C30.944,24.614 31.624,23.417 32.528,22.518z" id="path_8"/><path fill="#000001" d="M26.843,17.026c1.252,2.131 1.877,4.213 1.877,6.236c-0.545,3.848 -1.225,5.771 -2.029,5.771l-0.153,-0.152v-0.154l0.306,-2.029v-0.16c0,-1.244 -0.52,-3.115 -1.558,-5.611v-0.313C25.805,18.217 26.323,17.026 26.843,17.026z" id="path_9"/><path fill="#DD2C00" d="M23.03,43.292c-2.557,-0.252 -3.842,-0.619 -3.842,-1.111v-0.16c1.221,-1.162 2.347,-1.965 3.376,-2.404v-3.041c-3.29,1.908 -4.933,4.402 -4.933,7.477v0.779c0.014,0.699 0.307,1.252 0.879,1.656c0.572,0.406 1.63,0.652 3.188,0.752c1.001,0.061 1.681,0.227 2.037,0.494c-3.262,2.988 -5.998,4.48 -8.207,4.48c-1.917,0.174 -3.681,-0.193 -5.305,-1.092c-2.29,-1.924 -3.436,-3.688 -3.436,-5.305c0,-1.125 0.313,-2.322 0.939,-3.588c1.557,-2.529 2.336,-3.986 2.336,-4.365c0.066,-0.441 -0.14,-0.494 -0.619,-0.154c-2.709,2.549 -4.061,5.924 -4.061,10.137c0,1.771 0.779,3.695 2.344,5.771c0.871,1.105 1.61,1.824 2.229,2.15c0.619,0.32 1.644,0.646 3.075,0.973c2.556,0 4.793,-0.672 6.703,-2.031c3.176,-2.609 5.072,-5.006 5.697,-7.176h-0.129c0.085,-0.48 0.129,-0.965 0.129,-1.459C25.273,44.491 24.475,43.565 23.03,43.292z" id="path_10"/><path fill="#000001" d="M24.341,39.211c0.533,-0.113 1.053,-0.066 1.558,0.16c-0.325,1.883 -0.425,3.182 -0.313,3.9c0.846,2.389 2.098,3.588 3.748,3.588h0.154c1.005,0 1.783,-0.785 2.342,-2.344h0.313c0.726,1.352 1.558,2.031 2.496,2.031h0.466c0.6,0 1.197,-0.359 1.797,-1.072c0.168,-0.199 0.453,-0.879 0.854,-2.049c1.131,2.289 2.694,3.434 4.686,3.434h0.879h0.152v-4.406v-0.041H43.02c-2.271,-0.053 -3.614,-0.652 -4.015,-1.797c-0.272,-1.557 -0.586,-2.336 -0.938,-2.336l-0.467,0.465c-0.419,2.391 -1.092,3.59 -2.029,3.59c-0.833,0 -1.559,-0.367 -2.185,-1.092c-0.099,-1.146 -0.259,-1.824 -0.465,-2.031h-0.16l-0.153,0.16c-0.738,2.076 -1.624,3.115 -2.648,3.115c-0.514,0.066 -1.079,-0.055 -1.698,-0.359c-0.626,-0.307 -0.965,-1.018 -1.018,-2.137l0.525,-4.053c0,-0.354 -0.247,-0.58 -0.746,-0.688c-0.506,-0.1 -1.238,-0.025 -2.216,0.221c-0.817,0.344 -1.565,0.711 -2.243,1.104v3.041C23.192,39.346 23.784,39.211 24.341,39.211z" id="path_11"/></svg>