<svg id="vector" xmlns="http://www.w3.org/2000/svg" width="100" height="67" viewBox="0 0 171 73"><path fill="#213e95" d="M157.831,50.928h0.289c0.98,0.215 2.035,0.791 3.162,1.729v0.141c-0.65,1.961 -1.219,3.016 -1.723,3.162c-1.465,-0.287 -2.563,-0.766 -3.305,-1.439v-0.142C156.255,53.251 156.782,52.104 157.831,50.928z" id="path_0"/><path fill="#213e95" d="M163.151,49.634h0.141c0.982,0.148 2.086,0.816 3.305,2.012v0.146l-1.723,3.017c-2.299,-0.742 -3.451,-1.367 -3.451,-1.87C162.165,50.737 162.741,49.634 163.151,49.634z" id="path_1"/><path fill="#213e95" d="M156.556,44.356c3.764,0.037 5.867,-0.668 6.326,-2.121c0,-0.502 -0.477,-1.747 -1.439,-3.733l0.436,-3.733h0.281c1.25,2.152 1.869,4.31 1.869,6.461v1.294c0,0.864 -0.207,1.771 -0.619,2.722c-0.41,0.95 -1.049,1.754 -1.9,2.397c-0.857,0.649 -2.508,0.919 -4.953,0.81V44.356z" id="path_2"/><path fill="#213e95" d="M167.333,24.868c0.146,-0.085 0.189,0.05 0.129,0.399c-0.816,1.913 -2.066,3.249 -3.752,4.003l-6.197,3.107c-0.264,-0.073 -0.313,-0.287 -0.146,-0.649c0.826,-1.594 1.391,-2.538 1.691,-2.839L167.333,24.868z" id="path_3"/><path fill="#000001" d="M144.198,44.356h0.324c0.98,0 2.018,-0.38 3.107,-1.141c1.092,-0.76 1.729,-1.716 1.926,-2.862l0.141,-0.147h0.141c0.172,0 0.412,0.527 0.725,1.582c1.359,1.869 3.279,2.728 5.742,2.587c0.166,0 0.338,-0.007 0.504,-0.019v4.113c-0.166,0.012 -0.338,0.018 -0.504,0.018l-2.01,-0.232c-0.215,1.913 -0.84,2.869 -1.869,2.875h-0.289c-1.912,-0.361 -2.869,-1.029 -2.869,-2.017l0.43,-2.587c-0.338,-0.38 -0.668,-0.57 -1.006,-0.57c-1.078,1.687 -2.574,2.52 -4.492,2.496V44.356z" id="path_4"/><path fill="#000001" d="M150.126,26.114h1.422c1.723,0 2.586,0.643 2.586,1.936c-1.115,3.017 -2.469,4.617 -4.064,4.801l-1.881,0.252c-0.301,0 -0.424,-0.086 -0.381,-0.252c1.521,-0.803 2.943,-1.76 4.262,-2.857c-0.467,-0.435 -0.982,-0.649 -1.545,-0.649h-0.398l-1.545,0.129l-0.123,-0.129v-0.251C149.187,27.106 149.745,26.114 150.126,26.114z" id="path_5"/><path fill="#213e95" d="M137.54,32.108c0.49,0 1.643,0.576 3.451,1.723c0,0.717 -0.576,1.869 -1.729,3.451c-2.299,-0.742 -3.445,-1.416 -3.445,-2.01C135.88,34.732 136.448,33.678 137.54,32.108z" id="path_6"/><path fill="#213e95" d="M132.312,44.356c1.023,0.012 1.654,-0.006 1.906,-0.055c2.158,-0.656 3.629,-2.055 4.42,-4.182c0.117,-0.41 0.355,-0.459 0.717,-0.146c0.191,0.166 0.338,0.84 0.43,2.011c1.307,1.759 2.936,2.55 4.885,2.372h0.381v4.096h-0.092c-3.053,-0.143 -5.303,-1.533 -6.756,-4.17h-0.141c-1.018,2.146 -2.359,3.465 -4.021,3.955c-0.502,0.141 -1.078,0.215 -1.729,0.215V44.356z" id="path_7"/><path fill="#213e95" d="M118.329,48.452l-1.617,-0.02c-0.895,3.941 -3.268,5.934 -7.111,5.983c-2.061,0.092 -3.09,0.056 -3.09,-0.11c0.189,-0.361 1.57,-1.055 4.133,-2.084c2.635,-1.674 4.223,-2.752 4.775,-3.23l0.146,-0.43l-2.514,-0.398c-1.832,-0.479 -2.863,-1.398 -3.09,-2.765V45.11c0,-2.323 0.57,-3.807 1.723,-4.457l0.865,-0.141c1.697,0 3.082,1.184 4.162,3.556c0.686,0.239 1.227,0.355 1.617,0.343V48.452z" id="path_8"/><path fill="#213e95" d="M111.667,28.694h1.422c1.723,0 2.586,0.644 2.586,1.938c-1.115,3.016 -2.469,4.615 -4.063,4.799l-1.883,0.252c-0.301,0 -0.424,-0.086 -0.379,-0.252c1.52,-0.803 2.941,-1.759 4.26,-2.856c-0.467,-0.435 -0.98,-0.649 -1.545,-0.649h-0.398l-1.545,0.129l-0.123,-0.129v-0.252C110.729,29.687 111.286,28.694 111.667,28.694z" id="path_9"/><path fill="#000001" d="M96.421,39.833h0.287c1.344,0.307 2.539,1.029 3.594,2.151v0.288c-0.092,0.766 -0.67,1.771 -1.723,3.016c-2.49,-0.834 -3.734,-1.557 -3.734,-2.152C95.44,41.414 95.968,40.311 96.421,39.833z" id="path_10"/><path fill="#000001" d="M104.04,36.958h0.283c0.336,0 1.152,2.157 2.445,6.467l0.141,0.57c0,3.377 -0.814,5.823 -2.439,7.331c-2.299,2.489 -5.027,3.733 -8.189,3.733c-2.588,-0.576 -4.262,-1.146 -5.027,-1.723c-2.494,-2.133 -3.74,-4.77 -3.74,-7.901c0,-2.636 1.152,-5.125 3.453,-7.473l0.141,-0.142h0.287l0.289,0.283c0,0.244 -0.668,1.293 -2.012,3.162c-0.385,0.668 -0.625,1.582 -0.717,2.729c0,2.23 1.146,4.144 3.445,5.75c2.25,0.864 3.781,1.293 4.598,1.293c2.059,0 4.5,-0.913 7.326,-2.729c1.152,-1.01 1.729,-1.63 1.729,-1.869l-2.012,-5.603l-0.146,-1.005L104.04,36.958z" id="path_11"/><path fill="#000001" d="M101.661,25.017c0.148,-0.086 0.191,0.049 0.129,0.398c-0.814,1.912 -2.064,3.248 -3.75,4.002l-6.199,3.108c-0.264,-0.073 -0.313,-0.288 -0.146,-0.649c0.828,-1.594 1.393,-2.538 1.691,-2.838L101.661,25.017z" id="path_12"/><path fill="#213e95" d="M81.733,24.312c0.287,0 0.576,0.962 0.863,2.875l1.293,2.875l-0.576,3.304l0.43,8.049v1.287c-0.189,3.286 -0.668,5.198 -1.434,5.751l-0.143,-0.143l0.143,-2.156c0,-1.938 -0.625,-8.117 -1.871,-18.532C81.04,25.414 81.47,24.312 81.733,24.312z" id="path_13"/><path fill="#000001" d="M70.282,44.338c0.164,0.013 0.342,0.019 0.539,0.019h1.361c1.439,-0.239 2.537,-0.742 3.303,-1.508l-1.723,-13.652c0.43,-2.586 0.816,-3.873 1.146,-3.873l1.869,4.309c0,0.668 -0.238,1.674 -0.717,3.016l0.717,7.755v2.158c-0.539,2.286 -1.262,3.886 -2.17,4.794c-0.686,0.729 -1.488,1.098 -2.426,1.098h-1.221c-0.238,0 -0.467,-0.007 -0.68,-0.02V44.338z" id="path_14"/><path fill="#000001" d="M74.04,17.04h1.422c1.723,0 2.586,0.645 2.586,1.938c-1.115,3.017 -2.471,4.616 -4.064,4.801l-1.881,0.25c-0.301,0 -0.424,-0.085 -0.381,-0.25c1.521,-0.804 2.943,-1.76 4.262,-2.857c-0.467,-0.436 -0.982,-0.649 -1.545,-0.649H74.04l-1.545,0.128l-0.123,-0.128v-0.251C73.101,18.034 73.659,17.04 74.04,17.04z" id="path_15"/><path fill="#DD2C00" d="M58.616,44.356h0.324c0.98,0 2.018,-0.38 3.107,-1.141c1.092,-0.76 1.73,-1.716 1.926,-2.862l0.141,-0.147h0.141c0.172,0 0.412,0.527 0.725,1.582c1.361,1.869 3.279,2.728 5.742,2.587c0.166,0 0.338,-0.007 0.504,-0.019v4.113c-0.166,0.012 -0.338,0.018 -0.504,0.018l-2.01,-0.232c-0.215,1.913 -0.84,2.869 -1.869,2.875h-0.289c-1.912,-0.361 -2.869,-1.029 -2.869,-2.017l0.43,-2.587c-0.336,-0.38 -0.668,-0.57 -1.006,-0.57c-1.078,1.687 -2.574,2.52 -4.492,2.496V44.356z" id="path_16"/><path fill="#DD2C00" d="M69.999,26.413c0.148,-0.086 0.189,0.05 0.129,0.399c-0.814,1.913 -2.066,3.249 -3.752,4.003l-6.197,3.107c-0.264,-0.073 -0.313,-0.288 -0.146,-0.649c0.826,-1.594 1.391,-2.538 1.691,-2.839L69.999,26.413z" id="path_17"/><path fill="#000001" d="M59.155,48.452c-2.789,0.165 -4.818,-1.123 -6.088,-3.863c-0.613,-1.018 -1.182,-7.877 -1.723,-20.578v-0.288c0.355,-2.108 0.883,-3.163 1.576,-3.163l0.723,-0.141c0.883,0 2.227,0.287 4.021,0.857v0.289C57.567,21.853 57.278,22 56.802,22H54.36c-0.502,0 -0.98,0.282 -1.439,0.858c0.447,11.027 1.098,17.416 1.961,19.162c0.859,1.748 2.287,2.526 4.273,2.336V48.452z" id="path_18"/><path fill="#DD2C00" d="M33.696,44.338c0.363,0.024 0.73,0.037 1.098,0.037h0.43l1.795,-0.429c-0.428,-0.804 -0.643,-1.361 -0.643,-1.674c0,-4.598 1.482,-6.896 4.449,-6.896l1.154,-0.141c1.508,0.238 3.426,1.146 5.742,2.728l0.148,0.576l-0.148,0.142h-0.568c-1.104,-0.767 -2.35,-1.146 -3.74,-1.146c-2.127,0 -3.898,0.619 -5.314,1.863v0.146c1.244,2.012 3.543,3.017 6.896,3.017c2.635,-0.956 4.357,-1.435 5.174,-1.435c-0.455,2.679 -1.318,4.021 -2.588,4.021c-5.676,2.2 -10.176,3.305 -13.504,3.305h-0.381V44.338z" id="path_19"/><path fill="#DD2C00" d="M42.284,20.915c1.473,0 2.207,0.907 2.207,2.715c0,2.882 -2.457,5.34 -7.381,7.363c-0.703,0.215 -0.789,-0.043 -0.25,-0.773c0.135,-0.275 1.293,-1.14 3.482,-2.586v-0.123c-0.945,-0.387 -1.416,-1.207 -1.416,-2.465c0.625,-2.752 1.617,-4.131 2.979,-4.131H42.284L42.284,20.915zM40.091,24.022c0,0.767 0.648,1.238 1.943,1.423h0.25c0.479,0 0.785,-0.178 0.914,-0.521c0,-0.779 -0.564,-1.386 -1.686,-1.815C41.022,23.109 40.55,23.416 40.091,24.022z" id="path_20"/><path fill="#213e95" d="M34.329,48.452l-1.619,-0.02c-0.895,3.941 -3.268,5.934 -7.111,5.983c-2.059,0.092 -3.09,0.056 -3.09,-0.11c0.191,-0.361 1.57,-1.055 4.133,-2.084c2.635,-1.674 4.223,-2.752 4.775,-3.23l0.146,-0.43l-2.514,-0.398c-1.832,-0.479 -2.863,-1.398 -3.09,-2.765V45.11c0,-2.323 0.57,-3.807 1.723,-4.457l0.865,-0.141c1.697,0 3.084,1.184 4.162,3.556c0.686,0.239 1.227,0.355 1.619,0.343V48.452z" id="path_21"/><path fill="#213e95" d="M27.665,28.694h1.422c1.723,0 2.588,0.644 2.588,1.938c-1.117,3.016 -2.471,4.615 -4.064,4.799l-1.883,0.252c-0.301,0 -0.422,-0.086 -0.379,-0.252c1.52,-0.803 2.941,-1.759 4.26,-2.856c-0.467,-0.435 -0.98,-0.649 -1.545,-0.649h-0.398l-1.545,0.129l-0.123,-0.129v-0.252C26.728,29.687 27.284,28.694 27.665,28.694z" id="path_22"/><path fill="#000001" d="M12.419,39.833h0.289c1.342,0.307 2.537,1.029 3.592,2.151v0.288c-0.092,0.766 -0.668,1.771 -1.723,3.016c-2.49,-0.834 -3.734,-1.557 -3.734,-2.152C11.438,41.414 11.966,40.311 12.419,39.833z" id="path_23"/><path fill="#000001" d="M20.038,36.958h0.283c0.336,0 1.152,2.157 2.445,6.467l0.141,0.57c0,3.377 -0.814,5.823 -2.439,7.331c-2.299,2.489 -5.027,3.733 -8.189,3.733c-2.588,-0.576 -4.262,-1.146 -5.027,-1.723c-2.495,-2.133 -3.739,-4.77 -3.739,-7.901c0,-2.636 1.152,-5.125 3.452,-7.473l0.141,-0.142h0.287l0.289,0.283c0,0.244 -0.668,1.293 -2.01,3.162c-0.387,0.668 -0.627,1.582 -0.719,2.729c0,2.23 1.146,4.144 3.445,5.75c2.25,0.864 3.783,1.293 4.598,1.293c2.061,0 4.5,-0.913 7.326,-2.729c1.152,-1.01 1.729,-1.63 1.729,-1.869l-2.012,-5.603l-0.146,-1.005L20.038,36.958z" id="path_24"/><path fill="#000001" d="M17.661,25.017c0.146,-0.086 0.189,0.049 0.129,0.398c-0.816,1.912 -2.066,3.248 -3.752,4.002l-6.197,3.108c-0.264,-0.073 -0.314,-0.288 -0.148,-0.649c0.828,-1.594 1.393,-2.538 1.691,-2.838L17.661,25.017z" id="path_25"/><path fill="#213e95" d="M142.737,23.766c0.146,-0.086 0.189,0.049 0.129,0.398c-0.816,1.913 -2.066,3.249 -3.752,4.003l-6.197,3.107c-0.264,-0.073 -0.313,-0.287 -0.148,-0.649c0.828,-1.594 1.393,-2.538 1.693,-2.838L142.737,23.766z" id="path_26"/><path fill="#000001" d="M133.667,48.452c-0.092,0 -0.189,0 -0.281,0h-1.293c-1.295,0 -2.783,-0.816 -4.457,-2.44c-2.875,1.575 -5.977,2.391 -9.307,2.44v-4.077c1.742,0.116 3.979,-0.245 6.719,-1.098v-0.142c-1.316,-0.863 -2.563,-1.293 -3.732,-1.293l-1.152,0.142l-0.289,-0.718c0.387,-2.586 1.49,-3.88 3.305,-3.88l2.299,-0.142c3.641,0.43 5.463,1.244 5.463,2.44v0.576l-0.865,2.874c0.699,0.847 1.895,1.258 3.592,1.221V48.452z" id="path_27"/><path fill="#000001" d="M127.269,20.915c1.471,0 2.207,0.907 2.207,2.715c0,2.882 -2.459,5.34 -7.381,7.363c-0.705,0.215 -0.791,-0.043 -0.252,-0.773c0.135,-0.275 1.293,-1.14 3.482,-2.586v-0.123c-0.945,-0.387 -1.416,-1.207 -1.416,-2.465c0.625,-2.752 1.617,-4.131 2.979,-4.131H127.269L127.269,20.915zM125.073,24.022c0,0.767 0.65,1.238 1.943,1.423h0.252c0.479,0 0.783,-0.178 0.914,-0.521c0,-0.779 -0.564,-1.386 -1.688,-1.815C126.005,23.109 125.534,23.416 125.073,24.022z" id="path_28"/></svg>