<svg id="vector" xmlns="http://www.w3.org/2000/svg" width="75" height="67" viewBox="0 0 83 73"><path fill="#0992d1" d="M18.618,39.469c1.236,0 2.138,0 2.718,0h0.604c1.81,-0.246 4.515,-1.045 8.115,-2.395c-1.21,-1.045 -3.071,-1.824 -5.583,-2.344c-1.488,0 -2.492,0.725 -3.021,2.184c-0.187,0.432 -0.354,0.545 -0.501,0.34c-0.142,-0.201 -0.181,-0.467 -0.103,-0.807c0.908,-3.148 2.112,-4.719 3.625,-4.719h1.057c1.004,0 2.82,0.586 5.441,1.758c2.622,1.164 4.882,1.637 6.783,1.404c0.238,0 0.341,0.152 0.302,0.465c-0.406,2.596 -1.16,3.9 -2.267,3.9l-0.754,0.154v0.313c0.38,1.078 2.119,1.471 5.23,1.172v4.426c-4.503,0.246 -6.75,-1.564 -6.737,-5.438c-1.61,0.244 -3.794,1.018 -6.549,2.328c-2.758,1.305 -5.54,1.865 -8.36,1.686V39.469z" id="path_0"/><path fill="#0992d1" d="M26.147,44.521c2.112,1.092 3.175,2.031 3.175,2.809c-1.012,2.051 -1.611,3.096 -1.816,3.115h-0.303c-1.544,-0.805 -2.498,-1.529 -2.865,-2.182C24.69,47.084 25.297,45.832 26.147,44.521z" id="path_1"/><path fill="#0992d1" d="M28.903,18.441h1.495c1.81,0 2.717,0.699 2.717,2.104c-1.172,3.275 -2.596,5.012 -4.27,5.213l-1.977,0.271c-0.316,0 -0.445,-0.092 -0.4,-0.271c1.597,-0.873 3.091,-1.91 4.476,-3.102c-0.489,-0.475 -1.03,-0.707 -1.623,-0.707h-0.419L27.28,22.09l-0.129,-0.141v-0.271C27.918,19.521 28.504,18.441 28.903,18.441z" id="path_2"/><path fill="#000001" d="M19.68,43.93c-0.134,0.014 -0.277,0.02 -0.411,0.02h-0.761c-1.178,0 -1.983,-0.1 -2.415,-0.313c-0.876,3.5 -1.9,5.645 -3.073,6.43c-1.172,0.785 -3.818,1.451 -7.941,1.998H4.777c-0.908,-0.107 -1.358,-0.26 -1.358,-0.467c0,-0.313 0.754,-0.68 2.26,-1.092c5.938,-2.809 8.907,-4.838 8.907,-6.084c0,-0.52 -0.702,-1.717 -2.113,-3.588c-0.303,-0.525 -0.452,-1.197 -0.452,-2.031v-1.557c0,-0.785 0.148,-1.197 0.452,-1.25c1.308,2.068 3.523,3.221 6.639,3.467c0.194,0 0.38,0 0.567,-0.014V43.93z" id="path_3"/><path fill="#000001" d="M15.417,53.58c0.154,-0.086 0.199,0.055 0.134,0.434c-0.856,2.076 -2.17,3.527 -3.941,4.348l-6.512,3.373c-0.277,-0.078 -0.328,-0.313 -0.154,-0.697c0.87,-1.73 1.462,-2.756 1.777,-3.082L15.417,53.58z" id="path_4"/><path fill="#213e95" d="M74.861,35.822h0.604c1.765,0 3.073,1.559 3.93,4.68l0.148,1.557c0.05,0.506 0.05,1.025 0,1.564c-0.453,1.898 -1.463,3.768 -3.021,5.611c-1.082,0.939 -3.543,1.664 -7.394,2.184c-0.451,-0.207 -0.708,-0.412 -0.753,-0.619c6.44,-3.615 9.661,-5.797 9.661,-6.557l0.148,-0.467l-0.148,-0.152l-1.359,0.467h-0.754c-2.717,0 -4.077,-0.992 -4.077,-2.963v-0.313c0.348,-3.229 1.107,-4.84 2.26,-4.84L74.861,35.822z" id="path_5"/><path fill="#213e95" d="M78.861,23.182c0.154,-0.094 0.199,0.053 0.134,0.432c-0.856,2.078 -2.17,3.529 -3.941,4.348l-6.512,3.375c-0.277,-0.08 -0.329,-0.313 -0.154,-0.707c0.87,-1.73 1.461,-2.754 1.776,-3.082L78.861,23.182z" id="path_6"/><path fill="#DD2C00" d="M63.925,18.674c0.303,0 0.605,1.045 0.909,3.123l1.359,3.121l-0.607,3.59l0.452,8.738v1.398c-0.2,3.566 -0.702,5.645 -1.507,6.244l-0.147,-0.154l0.147,-2.342c0,-2.104 -0.656,-8.813 -1.965,-20.123C63.198,19.873 63.648,18.674 63.925,18.674z" id="path_7"/><path fill="#213e95" d="M51.895,40.908c0.174,0.014 0.361,0.02 0.567,0.02h1.43c1.513,-0.26 2.666,-0.807 3.471,-1.639l-1.81,-14.822c0.45,-2.811 0.856,-4.207 1.203,-4.207l1.965,4.678c0,0.727 -0.25,1.818 -0.754,3.275l0.754,8.422v2.342c-0.566,2.482 -1.327,4.221 -2.28,5.205c-0.721,0.793 -1.565,1.193 -2.55,1.193h-1.282c-0.25,0 -0.489,-0.008 -0.715,-0.021V40.908z" id="path_8"/><path fill="#213e95" d="M57.002,11.266h1.494c1.81,0 2.718,0.699 2.718,2.104c-1.173,3.275 -2.596,5.012 -4.271,5.213l-1.978,0.273c-0.316,0 -0.445,-0.094 -0.399,-0.273c1.597,-0.873 3.092,-1.91 4.477,-3.102c-0.49,-0.473 -1.032,-0.707 -1.624,-0.707h-0.418l-1.624,0.141l-0.128,-0.141v-0.271C56.016,12.344 56.603,11.266 57.002,11.266z" id="path_9"/><path fill="#000001" d="M38.692,40.928c1.674,0.146 3.098,-0.027 4.282,-0.506l-0.624,-1.172c-0.586,-3.436 -0.322,-5.703 0.792,-6.816c1.121,-1.111 2.325,-1.623 3.606,-1.531c2.493,0.121 3.897,1.471 4.226,4.053v0.941c0,2.156 -0.302,3.506 -0.902,4.053c-0.38,0.406 0.477,0.744 2.563,1.018l0.49,-0.02c0.38,-0.014 0.811,-0.02 1.3,-0.02v4.447l-1.527,0.02c-2.839,-0.014 -4.99,-0.387 -6.453,-1.111c-2.008,0.725 -3.574,1.092 -4.675,1.092h-0.605c-0.753,0 -1.578,0 -2.473,0V40.928L38.692,40.928zM44.032,36.52v0.314c0.631,1.117 1.583,1.896 2.866,2.336c0.856,-0.152 1.713,-0.518 2.569,-1.092c-0.38,-1.457 -1.636,-2.289 -3.773,-2.496C44.585,35.896 44.032,36.207 44.032,36.52z" id="path_10"/><path fill="#000001" d="M44.938,23.262c1.309,0 2.512,0.832 3.621,2.496c-0.927,2.184 -1.636,3.275 -2.113,3.275c-2.034,-1.039 -3.142,-1.719 -3.323,-2.031C43.123,26.016 43.729,24.766 44.938,23.262z" id="path_11"/><path fill="#000001" d="M50.446,12.318c0.154,-0.094 0.199,0.053 0.135,0.432c-0.856,2.078 -2.171,3.529 -3.941,4.346l-6.511,3.377c-0.277,-0.08 -0.329,-0.313 -0.155,-0.707c0.87,-1.729 1.462,-2.754 1.777,-3.08L50.446,12.318z" id="path_12"/></svg>