<svg id="vector" xmlns="http://www.w3.org/2000/svg" width="75" height="67" viewBox="0 0 83 73"><path fill="#008046" d="M49.824,49.932c-1.91,-0.072 -3.488,-0.605 -4.725,-1.604c-1.246,-0.991 2.781,-1.592 12.08,-1.804c7.23,-0.845 10.918,-1.83 11.078,-2.962l-0.475,-1.404c-0.684,0.625 -1.518,0.938 -2.496,0.938c-2.809,-0.485 -4.207,-1.677 -4.207,-3.587c0.141,-3.009 0.867,-4.673 2.186,-4.992l0.777,-0.16h0.627c2.787,0 4.506,2.862 5.145,8.579c-0.139,2.576 -1.285,4.295 -3.436,5.152c-1.391,0.66 -3.414,1.179 -6.084,1.559C55.23,49.907 51.736,49.999 49.824,49.932z" id="path_0"/><path fill="#008046" d="M66.072,25.463h0.152c2.293,1.02 3.438,1.799 3.438,2.344c-0.215,0.985 -0.887,2.183 -2.031,3.588l-3.436,-1.871l-1.717,2.65l-3.275,-1.871c0,-0.926 0.572,-2.224 1.719,-3.9h0.158c1.053,0.219 2.145,0.846 3.275,1.869C65.16,26.648 65.734,25.709 66.072,25.463z" id="path_1"/><path fill="#008046" d="M69.148,15.733c0.16,-0.094 0.207,0.053 0.141,0.432c-0.885,2.078 -2.244,3.528 -4.074,4.347l-6.73,3.374c-0.285,-0.078 -0.338,-0.312 -0.158,-0.705c0.898,-1.73 1.51,-2.755 1.836,-3.082L69.148,15.733z" id="path_2"/><path fill="#008046" d="M35.41,45.512h1.348c2.068,0 3.838,-1.433 5.191,-3.727c0.26,-0.439 0.414,-0.727 0.619,-0.779h0.16l0.465,0.473c-0.066,0.593 -0.164,1.012 -0.311,1.245c0.912,1.665 2.002,2.496 3.273,2.496l0.16,0.153c2.264,-4.992 4.807,-7.488 7.643,-7.488c2.262,0 3.926,0.938 4.992,2.809v0.938c0,5.72 -3.535,8.582 -10.611,8.582l-2.336,-0.154c-0.725,1.971 -1.199,2.963 -1.406,2.963l-0.152,-0.153v-0.159l0.467,-2.65v-0.313c-1.539,-0.857 -2.73,-2.057 -3.588,-3.588c-0.805,2.637 -3.271,3.908 -5.914,3.801V45.512L35.41,45.512zM47.875,45.686h0.311c3.537,0 6.551,-0.52 9.047,-1.558c0,-1.118 -1.037,-1.896 -3.113,-2.343h-0.627C50.996,41.786 49.127,43.09 47.875,45.686z" id="path_3"/><path fill="#008046" d="M47.408,31.181c2.596,0.833 3.9,1.505 3.9,2.024v0.313c-0.832,2.29 -1.512,3.435 -2.029,3.435c-2.105,-0.858 -3.303,-1.431 -3.59,-1.717v-0.313C46.109,33.366 46.676,32.114 47.408,31.181z" id="path_4"/><path fill="#008046" d="M45.418,20.964h1.543c1.873,0 2.811,0.698 2.811,2.104c-1.213,3.274 -2.684,5.012 -4.412,5.212l-2.045,0.272c-0.326,0 -0.459,-0.093 -0.412,-0.272c1.65,-0.872 3.195,-1.91 4.625,-3.102c-0.506,-0.473 -1.064,-0.707 -1.678,-0.707h-0.432l-1.678,0.141l-0.133,-0.141V24.2C44.398,22.043 45.006,20.964 45.418,20.964z" id="path_5"/><path fill="#DD2C00" d="M27.307,51.677c0.531,0 1.781,0.626 3.746,1.87c0,0.779 -0.625,2.03 -1.877,3.747c-2.496,-0.812 -3.74,-1.536 -3.74,-2.188C25.502,54.526 26.121,53.381 27.307,51.677z" id="path_6"/><path fill="#DD2C00" d="M21.627,45.512c1.111,0.014 1.799,-0.006 2.072,-0.059c2.342,-0.713 3.939,-2.23 4.799,-4.54c0.125,-0.446 0.387,-0.499 0.777,-0.16c0.207,0.181 0.367,0.913 0.467,2.183c1.418,1.912 3.188,2.77 5.305,2.576h0.412v4.447h-0.098c-3.316,-0.153 -5.76,-1.664 -7.338,-4.526h-0.152c-1.105,2.33 -2.563,3.761 -4.365,4.294c-0.547,0.153 -1.172,0.232 -1.879,0.232V45.512z" id="path_7"/><path fill="#f06022" d="M33.057,26.848l0.16,0.141v0.426c-0.813,1.73 -1.938,2.941 -3.375,3.648c-4.475,2.428 -6.957,3.646 -7.447,3.646c-0.188,0 -0.281,-0.146 -0.281,-0.432c0.434,-1.651 1.371,-2.77 2.811,-3.355l8,-4.074H33.057z" id="path_8"/><path fill="#f06022" d="M31.945,23.34c0.18,0 0.273,0.133 0.273,0.406c-0.52,1.512 -2.057,2.869 -4.619,4.08l-5.912,3.236l-0.133,-0.141v-0.153c0.559,-1.977 1.443,-3.195 2.668,-3.647l6.592,-3.375L31.945,23.34z" id="path_9"/><path fill="#213e95" d="M21.668,49.959c-3.029,0.18 -5.232,-1.219 -6.611,-4.193c-0.664,-1.105 -1.285,-8.555 -1.869,-22.346v-0.313c0.387,-2.291 0.957,-3.436 1.711,-3.436l0.785,-0.152c0.957,0 2.416,0.313 4.367,0.932v0.313c-0.107,0.313 -0.42,0.473 -0.939,0.473h-2.65c-0.545,0 -1.064,0.307 -1.563,0.932c0.484,11.975 1.191,18.912 2.129,20.809c0.932,1.896 2.484,2.742 4.641,2.535V49.959z" id="path_10"/></svg>