<svg id="vector" xmlns="http://www.w3.org/2000/svg" width="75" height="67" viewBox="0 0 83 73"><path fill="#213e95" d="M54.303,45.67c0.179,0.012 0.371,0.02 0.586,0.02h1.477c1.564,-0.26 2.756,-0.807 3.588,-1.638l-1.871,-14.824c0.467,-2.81 0.886,-4.207 1.246,-4.207l2.029,4.679c0,0.727 -0.26,1.818 -0.779,3.275l0.779,8.421v2.343c-0.585,2.482 -1.371,4.221 -2.355,5.205c-0.746,0.793 -1.617,1.191 -2.637,1.191h-1.324c-0.26,0 -0.506,-0.006 -0.738,-0.02V45.67z" id="path_0"/><path fill="#213e95" d="M64.533,16.362c0.159,-0.094 0.206,0.053 0.14,0.432c-0.886,2.078 -2.243,3.528 -4.073,4.347l-6.73,3.374c-0.285,-0.078 -0.34,-0.312 -0.16,-0.705c0.899,-1.73 1.512,-2.755 1.838,-3.082L64.533,16.362z" id="path_1"/><path fill="#008046" d="M43.951,30.319h0.152c1.691,0.527 2.889,1.199 3.588,2.031v0.313c-0.805,2.29 -1.484,3.436 -2.029,3.436l-3.588,-1.877C42.727,31.937 43.352,30.632 43.951,30.319z" id="path_2"/><path fill="#008046" d="M54.555,50.135c-0.1,0 -0.205,0 -0.307,0h-1.404c-1.404,0 -3.021,-0.885 -4.839,-2.648c-3.122,1.711 -6.489,2.596 -10.104,2.648v-4.426c1.891,0.126 4.32,-0.267 7.295,-1.191v-0.152c-1.431,-0.939 -2.782,-1.406 -4.054,-1.406l-1.251,0.154l-0.313,-0.779c0.418,-2.809 1.617,-4.214 3.588,-4.214l2.496,-0.153c3.953,0.467 5.93,1.352 5.93,2.65v0.625l-0.938,3.123c0.759,0.918 2.057,1.363 3.9,1.324V50.135z" id="path_3"/><path fill="#008046" d="M45.17,18.151h1.543c1.871,0 2.81,0.699 2.81,2.104c-1.212,3.274 -2.683,5.013 -4.413,5.212l-2.044,0.273c-0.325,0 -0.46,-0.094 -0.413,-0.273c1.651,-0.871 3.195,-1.91 4.627,-3.102c-0.506,-0.473 -1.065,-0.706 -1.678,-0.706H45.17l-1.678,0.14l-0.133,-0.14v-0.272C44.15,19.23 44.756,18.151 45.17,18.151z" id="path_4"/><path fill="#000001" d="M38.738,50.135l-1.756,-0.02c-0.973,4.279 -3.549,6.443 -7.723,6.498c-2.236,0.099 -3.354,0.059 -3.354,-0.121c0.206,-0.393 1.704,-1.145 4.487,-2.263c2.861,-1.817 4.586,-2.989 5.186,-3.509l0.158,-0.466l-2.729,-0.432c-1.99,-0.521 -3.109,-1.519 -3.354,-3.003v-0.313c0,-2.522 0.618,-4.135 1.87,-4.84l0.939,-0.152c1.844,0 3.348,1.285 4.52,3.86c0.744,0.259 1.33,0.386 1.756,0.374V50.135z" id="path_5"/><path fill="#f06022" d="M37.215,29.308l0.16,0.14v0.426c-0.813,1.73 -1.938,2.941 -3.375,3.648c-4.474,2.43 -6.956,3.646 -7.448,3.646c-0.188,0 -0.28,-0.146 -0.28,-0.432c0.434,-1.651 1.371,-2.769 2.81,-3.355l8.001,-4.073H37.215z" id="path_6"/><path fill="#f06022" d="M36.104,25.799c0.18,0 0.273,0.135 0.273,0.407c-0.52,1.511 -2.059,2.868 -4.621,4.079l-5.91,3.236l-0.134,-0.141v-0.152c0.56,-1.978 1.445,-3.195 2.67,-3.648l6.589,-3.374L36.104,25.799z" id="path_7"/><path fill="#000001" d="M19.701,23.922c0.313,0 0.627,1.046 0.938,3.123l1.405,3.121l-0.626,3.588l0.466,8.74v1.397c-0.207,3.567 -0.725,5.646 -1.557,6.243l-0.153,-0.152l0.153,-2.344c0,-2.104 -0.68,-8.813 -2.031,-20.122C18.949,25.122 19.415,23.922 19.701,23.922z" id="path_8"/></svg>