<svg id="vector" xmlns="http://www.w3.org/2000/svg" width="75" height="67" viewBox="0 0 83 73"><path fill="#000001" d="M72.289,27.715c0.313,0 0.626,1.045 0.938,3.121l1.404,3.121l-0.625,3.59l0.465,8.738v1.398c-0.206,3.568 -0.725,5.645 -1.557,6.244l-0.153,-0.154l0.153,-2.342c0,-2.104 -0.68,-8.813 -2.031,-20.123C71.537,28.912 72.003,27.715 72.289,27.715z" id="path_0"/><path fill="#000001" d="M78.146,17.391c0.16,-0.094 0.207,0.053 0.141,0.434c-0.885,2.076 -2.243,3.527 -4.073,4.346l-6.729,3.373c-0.287,-0.078 -0.34,-0.311 -0.16,-0.703c0.898,-1.732 1.512,-2.756 1.837,-3.084L78.146,17.391z" id="path_1"/><path fill="#213e95" d="M61.69,30.305c1.538,0.492 2.736,1.117 3.588,1.869v0.314c0,0.518 -0.565,1.662 -1.711,3.434c-1.064,0 -2.263,-0.572 -3.588,-1.717v-0.314C59.979,32.773 60.552,31.574 61.69,30.305z" id="path_2"/><path fill="#213e95" d="M57.243,48.283c4.088,0.039 6.371,-0.727 6.871,-2.305c0,-0.545 -0.52,-1.896 -1.565,-4.053l0.474,-4.053h0.306c1.358,2.336 2.03,4.68 2.03,7.016v1.404c0,0.939 -0.227,1.924 -0.672,2.955c-0.447,1.031 -1.139,1.904 -2.064,2.604c-0.932,0.705 -2.723,0.998 -5.379,0.879V48.283z" id="path_3"/><path fill="#213e95" d="M62.609,20.512h1.544c1.871,0 2.811,0.699 2.811,2.104c-1.213,3.275 -2.684,5.012 -4.414,5.213L60.507,28.1c-0.327,0 -0.46,-0.092 -0.413,-0.271c1.651,-0.873 3.195,-1.91 4.626,-3.102c-0.506,-0.473 -1.064,-0.707 -1.678,-0.707h-0.433l-1.677,0.141l-0.134,-0.141v-0.271C61.591,21.592 62.196,20.512 62.609,20.512z" id="path_4"/><path fill="#000001" d="M60.825,52.73c-0.1,0 -0.205,0 -0.307,0h-1.404c-1.404,0 -3.021,-0.887 -4.839,-2.65c-3.122,1.711 -6.489,2.596 -10.104,2.65v-4.428c1.891,0.127 4.32,-0.266 7.295,-1.191v-0.152c-1.431,-0.939 -2.782,-1.406 -4.053,-1.406l-1.252,0.154l-0.313,-0.779c0.418,-2.809 1.617,-4.213 3.588,-4.213l2.496,-0.154c3.953,0.467 5.93,1.352 5.93,2.65v0.625l-0.938,3.123c0.759,0.918 2.057,1.363 3.9,1.324V52.73z" id="path_5"/><path fill="#000001" d="M58.036,27.395c0.16,-0.092 0.207,0.055 0.14,0.434c-0.884,2.076 -2.243,3.527 -4.073,4.346l-6.729,3.375c-0.286,-0.08 -0.339,-0.313 -0.159,-0.705c0.898,-1.73 1.511,-2.756 1.836,-3.082L58.036,27.395z" id="path_6"/><path fill="#DD2C00" d="M30.812,48.283h0.354c1.064,0 2.188,-0.412 3.374,-1.238c1.185,-0.826 1.877,-1.863 2.09,-3.107l0.153,-0.16h0.152c0.187,0 0.447,0.572 0.786,1.717c1.478,2.029 3.562,2.963 6.237,2.809c0.18,0 0.365,-0.006 0.545,-0.02v4.467c-0.18,0.014 -0.365,0.02 -0.545,0.02l-2.184,-0.254c-0.233,2.078 -0.912,3.115 -2.03,3.123h-0.313c-2.076,-0.393 -3.115,-1.119 -3.115,-2.189l0.467,-2.811c-0.366,-0.412 -0.727,-0.619 -1.092,-0.619c-1.172,1.832 -2.795,2.736 -4.879,2.711V48.283z" id="path_7"/><path fill="#DD2C00" d="M37.248,28.473h1.544c1.871,0 2.81,0.699 2.81,2.105c-1.212,3.273 -2.683,5.012 -4.413,5.211l-2.044,0.273c-0.327,0 -0.459,-0.094 -0.412,-0.273c1.65,-0.871 3.195,-1.91 4.626,-3.102c-0.506,-0.473 -1.065,-0.707 -1.678,-0.707h-0.433l-1.677,0.141l-0.135,-0.141v-0.271C36.229,29.551 36.835,28.473 37.248,28.473z" id="path_8"/><path fill="#213e95" d="M31.771,52.75c-1.99,-0.16 -3.789,-1.559 -5.405,-4.195c-2.39,2.91 -5.825,4.369 -10.291,4.369h-1.252c-4.833,0 -8.16,-2.078 -9.985,-6.238l-0.152,-0.939v-1.404c0,-1.504 0.673,-3.221 2.023,-5.145h0.16l0.313,0.313v0.779l-0.785,2.496c0,2.729 2.289,4.6 6.869,5.617l2.81,0.152c4.858,0 8.706,-1.662 11.542,-4.992c0.152,0 0.313,0.207 0.467,0.627l-0.154,1.092c0.533,1.963 1.811,2.949 3.842,2.963V52.75z" id="path_9"/><path fill="#213e95" d="M13.731,37.945h0.313c1.064,0.234 2.209,0.859 3.435,1.871v0.16c-0.706,2.129 -1.331,3.275 -1.877,3.434c-1.585,-0.313 -2.783,-0.832 -3.589,-1.564v-0.152C12.013,40.469 12.585,39.223 13.731,37.945z" id="path_10"/><path fill="#213e95" d="M19.501,36.541h0.16c1.064,0.16 2.264,0.885 3.589,2.184v0.16l-1.878,3.273c-2.496,-0.805 -3.74,-1.482 -3.74,-2.029C18.437,37.738 19.063,36.541 19.501,36.541z" id="path_11"/><path fill="#213e95" d="M22.524,25.645c0.16,-0.094 0.205,0.053 0.139,0.434c-0.885,2.076 -2.242,3.527 -4.073,4.346l-6.729,3.375c-0.286,-0.08 -0.34,-0.313 -0.16,-0.705c0.898,-1.732 1.512,-2.756 1.838,-3.084L22.524,25.645z" id="path_12"/></svg>