<svg id="vector" xmlns="http://www.w3.org/2000/svg" width="75" height="67" viewBox="0 0 83 73"><path fill="#008046" d="M60.791,46.954h0.778c4.852,-0.092 8.073,-0.771 9.673,-2.049l0.312,-0.619c-0.207,-0.5 -0.466,-0.746 -0.778,-0.746c-0.753,0.419 -1.585,0.626 -2.496,0.626h-0.16c-2.702,-0.313 -4.106,-1.404 -4.206,-3.275v-0.16c0.26,-3.534 1.09,-5.298 2.496,-5.298h0.778c2.402,-0.119 4.226,1.75 5.458,5.611l0.152,1.564v0.313c-0.033,3.82 -1.404,6.344 -4.112,7.562c-0.96,0.613 -3.595,0.919 -7.895,0.919V46.954z" id="path_0"/><path fill="#008046" d="M67.653,27.278c1.691,0.52 3.147,1.351 4.366,2.496v0.153c0,0.652 -0.673,1.69 -2.023,3.121c-0.42,0 -1.824,-0.519 -4.213,-1.558v0.154c-0.833,1.61 -1.352,2.441 -1.563,2.496c-1.352,-0.287 -2.497,-0.912 -3.429,-1.871c0.626,-2.604 1.145,-3.9 1.557,-3.9c0.339,0 1.585,0.625 3.748,1.871C66.096,29.694 66.614,28.708 67.653,27.278z" id="path_1"/><path fill="#008046" d="M71.847,17.878c0.159,-0.093 0.206,0.054 0.14,0.433c-0.885,2.077 -2.242,3.528 -4.073,4.348l-6.73,3.374c-0.286,-0.079 -0.339,-0.313 -0.159,-0.704c0.898,-1.731 1.511,-2.758 1.837,-3.083L71.847,17.878z" id="path_2"/><path fill="#000001" d="M61.349,51.42c-2.676,-0.18 -5.105,-1.644 -7.288,-4.387h-0.159c-0.933,5.406 -3.016,8.107 -6.236,8.115H47.19c-1.398,-0.008 -2.755,-1.252 -4.054,-3.748c-1.038,-3.508 -1.557,-6.164 -1.557,-7.954v-1.252c0,-0.779 0.152,-1.198 0.466,-1.244c0.439,0.233 0.966,1.937 1.57,5.119c0.606,3.175 1.851,4.692 3.734,4.552c3.641,-0.598 5.565,-2.682 5.772,-6.244l-1.406,-4.832v-1.717c0.055,-2.084 0.26,-3.123 0.626,-3.123c0.207,0.467 0.367,0.939 0.466,1.406l2.185,6.861c1.716,2.783 3.84,4.101 6.355,3.941V51.42z" id="path_3"/><path fill="#000001" d="M50.779,22.639h1.544c1.87,0 2.809,0.697 2.809,2.103c-1.211,3.275 -2.682,5.013 -4.413,5.212l-2.044,0.273c-0.326,0 -0.458,-0.093 -0.411,-0.273c1.649,-0.871 3.194,-1.91 4.625,-3.102c-0.505,-0.473 -1.064,-0.706 -1.677,-0.706h-0.433l-1.678,0.141l-0.133,-0.141v-0.272C49.761,23.717 50.367,22.639 50.779,22.639z" id="path_4"/><path fill="#000001" d="M18.348,46.954h1.799c1.897,-0.259 4.912,-0.965 9.046,-2.104v-0.159c-3.768,-1.663 -6.158,-2.496 -7.176,-2.496c-1.379,0 -2.31,0.778 -2.809,2.343l-0.466,0.313c-0.207,0 -0.314,-0.159 -0.314,-0.473c0.52,-3.115 1.925,-4.679 4.215,-4.679h0.778c0.965,0 4.241,1.092 9.832,3.274l4.212,0.313l0.307,0.474c-0.072,0.697 -0.698,2.049 -1.87,4.053h-0.466l-0.624,-0.16h-0.78c-8.114,2.396 -12.848,3.641 -14.199,3.748h-1.484V46.954z" id="path_5"/><path fill="#f06022" d="M33.052,26.905l0.16,0.141v0.426c-0.812,1.73 -1.937,2.941 -3.374,3.647c-4.474,2.429 -6.956,3.647 -7.449,3.647c-0.186,0 -0.278,-0.146 -0.278,-0.433c0.433,-1.65 1.37,-2.769 2.808,-3.354l8.002,-4.074H33.052z" id="path_6"/><path fill="#f06022" d="M31.94,23.397c0.18,0 0.273,0.133 0.273,0.406c-0.519,1.512 -2.058,2.869 -4.62,4.08l-5.911,3.235l-0.133,-0.14v-0.154c0.561,-1.976 1.445,-3.195 2.67,-3.646l6.59,-3.375L31.94,23.397z" id="path_7"/><path fill="#DD2C00" d="M18.682,51.401c-3.028,0.18 -5.232,-1.219 -6.611,-4.193c-0.665,-1.105 -1.283,-8.555 -1.87,-22.346v-0.313c0.387,-2.291 0.96,-3.436 1.711,-3.436l0.785,-0.153c0.96,0 2.417,0.313 4.366,0.933v0.313c-0.104,0.313 -0.419,0.473 -0.938,0.473h-2.648c-0.546,0 -1.066,0.307 -1.565,0.932c0.487,11.975 1.191,18.912 2.131,20.809c0.933,1.896 2.482,2.742 4.64,2.535V51.401z" id="path_8"/></svg>