<svg id="vector" xmlns="http://www.w3.org/2000/svg" width="100" height="67" viewBox="0 0 171 73"><path fill="#000001" d="M141.821,52.19h0.314c1.066,0.233 2.213,0.859 3.439,1.88v0.153c-0.707,2.133 -1.326,3.279 -1.873,3.439c-1.594,-0.313 -2.787,-0.833 -3.594,-1.566v-0.153C140.108,54.717 140.682,53.47 141.821,52.19z" id="path_0"/><path fill="#000001" d="M141.821,52.19h0.314c1.066,0.233 2.213,0.859 3.439,1.88v0.153c-0.707,2.133 -1.326,3.279 -1.873,3.439c-1.594,-0.313 -2.787,-0.833 -3.594,-1.566v-0.153C140.108,54.717 140.682,53.47 141.821,52.19z" id="path_1"/><path fill="#000001" d="M147.608,50.784h0.153c1.066,0.16 2.267,0.887 3.593,2.186v0.16l-1.873,3.28c-2.5,-0.807 -3.753,-1.487 -3.753,-2.033C146.535,51.983 147.162,50.784 147.608,50.784z" id="path_2"/><path fill="#000001" d="M140.435,45.044c4.094,0.039 6.381,-0.727 6.881,-2.307c0,-0.547 -0.521,-1.9 -1.566,-4.061l0.473,-4.06h0.307c1.359,2.34 2.033,4.687 2.033,7.026v1.406c0,0.94 -0.227,1.928 -0.674,2.961c-0.446,1.033 -1.14,1.906 -2.066,2.606c-0.933,0.706 -2.727,0.999 -5.387,0.88V45.044z" id="path_3"/><path fill="#000001" d="M152.155,23.851c0.16,-0.094 0.207,0.053 0.14,0.434c-0.887,2.08 -2.247,3.533 -4.079,4.353l-6.74,3.38c-0.287,-0.08 -0.34,-0.313 -0.16,-0.707c0.899,-1.732 1.514,-2.76 1.84,-3.086L152.155,23.851z" id="path_4"/><path fill="#000001" d="M134.035,31.644c0.96,0 2.16,0.68 3.593,2.033v0.313c-0.887,2.294 -1.513,3.434 -1.873,3.434c-1.773,-0.673 -2.867,-1.354 -3.279,-2.026v-0.16C132.476,34.144 132.995,32.95 134.035,31.644z" id="path_5"/><path fill="#000001" d="M141.028,49.497c-3.82,0 -5.727,-1.58 -5.727,-4.746c-0.047,-0.127 -0.1,-0.127 -0.153,0c0,1.419 -1.613,2.666 -4.847,3.752c-1.56,0.414 -2.587,0.66 -3.087,0.727c-0.493,0.074 -2.227,0.16 -5.193,0.268c-0.973,0.014 -2.039,-0.094 -3.18,-0.313c-1.146,-0.22 -1.967,-0.687 -2.467,-1.394c-0.493,-0.713 0.827,-1.193 3.967,-1.446c3.141,-0.253 4.7,-0.366 4.687,-0.341c5.227,-0.666 8.334,-1.659 9.34,-2.973c1.273,-2.007 2.007,-2.733 2.188,-2.187c0.039,0.26 -0.014,0.573 -0.16,0.94c0,1.992 1.307,3.113 3.906,3.379c0.2,-0.026 0.439,-0.013 0.727,0.034V49.497z" id="path_6"/><path fill="#000001" d="M134.148,21.391h1.546c1.874,0 2.814,0.7 2.814,2.106c-1.214,3.28 -2.688,5.02 -4.42,5.221l-2.047,0.273c-0.327,0 -0.461,-0.094 -0.414,-0.273c1.653,-0.874 3.2,-1.914 4.634,-3.107c-0.507,-0.473 -1.067,-0.707 -1.681,-0.707h-0.433l-1.681,0.141l-0.133,-0.141V24.63C133.128,22.471 133.735,21.391 134.148,21.391z" id="path_7"/><path fill="#008046" d="M117.383,29.65h0.626c1.794,1.073 2.94,1.854 3.434,2.347l-1.714,3.594h-0.473c-1.067,-0.181 -2.267,-0.914 -3.594,-2.188C116.442,31.11 117.016,29.864 117.383,29.65z" id="path_8"/><path fill="#008046" d="M105.789,45.044c0.327,0 1.866,0 2.22,0l0.78,-0.394c0.493,-1.014 1.227,-2.261 2.187,-3.747l-1.56,-12.033c0.52,-2.5 0.986,-3.746 1.406,-3.746l0.78,2.967c0.727,1.013 1.093,1.953 1.093,2.813c-0.52,0.961 -0.779,1.747 -0.779,2.34v0.313l0.313,5v0.787c1.612,-1.36 3.772,-2.101 6.479,-2.228c3.127,0.44 4.687,1.48 4.687,3.121v1.094c-0.52,2.319 -1.3,4.092 -2.34,5.313c-3.153,1.773 -6.613,2.721 -10.394,2.854h-1.72c-0.686,0 -2.54,0 -3.153,0V45.044L105.789,45.044zM110.035,45.124h0.313c4.767,-0.134 8.494,-0.98 11.174,-2.541c-1.22,-1.252 -2.106,-1.873 -2.653,-1.873h-1.254C114.049,40.837 111.522,42.31 110.035,45.124z" id="path_9"/><path fill="#008046" d="M118.315,16.677c1.601,0 2.4,0.986 2.4,2.953c0,3.134 -2.674,5.807 -8.026,8.007c-0.768,0.233 -0.86,-0.046 -0.273,-0.84c0.146,-0.3 1.406,-1.239 3.786,-2.813v-0.133c-1.026,-0.42 -1.539,-1.314 -1.539,-2.68c0.68,-2.994 1.759,-4.494 3.239,-4.494H118.315L118.315,16.677zM115.929,20.058c0,0.832 0.707,1.346 2.113,1.546h0.273c0.521,0 0.854,-0.192 0.994,-0.566c0,-0.847 -0.614,-1.507 -1.834,-1.974C116.942,19.063 116.429,19.397 115.929,20.058z" id="path_10"/><path fill="#008046" d="M106.081,49.511c-0.141,0.013 -2.818,0.02 -2.958,0.02h-0.787c-1.22,0 -2.054,-0.1 -2.5,-0.313c-0.906,3.506 -1.967,5.652 -3.18,6.439c-1.214,0.787 -3.954,1.453 -8.221,2h-0.313c-0.94,-0.107 -1.407,-0.26 -1.407,-0.467c0,-0.313 0.78,-0.68 2.34,-1.094c6.147,-2.813 9.221,-4.846 9.221,-6.093c0,-0.521 -0.728,-1.72 -2.187,-3.594c-0.313,-0.526 -0.468,-1.2 -0.468,-2.033v-1.56c0,-0.787 0.154,-1.201 0.468,-1.254c1.353,2.074 3.646,3.241 6.873,3.473c0.199,0.016 2.925,0 3.118,-0.013V49.511z" id="path_11"/><path fill="#008046" d="M95.937,27.79c1.6,0 2.399,0.986 2.399,2.953c0,3.134 -2.674,5.807 -8.026,8.007c-0.767,0.233 -0.86,-0.046 -0.273,-0.84c0.146,-0.3 1.406,-1.24 3.786,-2.813v-0.133c-1.026,-0.42 -1.539,-1.313 -1.539,-2.68c0.68,-2.994 1.76,-4.494 3.239,-4.494H95.937L95.937,27.79zM93.549,31.171c0,0.832 0.707,1.346 2.113,1.546h0.274c0.52,0 0.853,-0.193 0.993,-0.566c0,-0.847 -0.614,-1.507 -1.834,-1.974C94.563,30.177 94.049,30.511 93.549,31.171z" id="path_12"/><path fill="#000001" d="M81.502,24.217c0.313,0 0.627,1.047 0.94,3.127l1.406,3.126l-0.626,3.594l0.467,8.754v1.4c-0.207,3.572 -0.727,5.652 -1.561,6.252l-0.153,-0.152l0.153,-2.347c0,-2.106 -0.68,-8.827 -2.033,-20.153C80.749,25.417 81.216,24.217 81.502,24.217z" id="path_13"/><path fill="#000001" d="M62.735,45.023c0.18,0.013 4.287,0.021 4.5,0.021h1.48c1.566,-0.261 2.76,-0.807 3.593,-1.641l-1.873,-14.847c0.467,-2.813 0.887,-4.213 1.247,-4.213l2.033,4.687c0,0.727 -0.26,1.82 -0.78,3.279l0.78,8.434v2.348c-0.587,2.486 -1.374,4.227 -2.36,5.213c-0.746,0.793 -1.62,1.193 -2.64,1.193h-1.327c-0.26,0 -4.42,-0.007 -4.653,-0.02V45.023z" id="path_14"/><path fill="#000001" d="M71.936,15.337h1.547c1.873,0 2.813,0.7 2.813,2.107c-1.214,3.279 -2.687,5.02 -4.42,5.22l-2.047,0.272c-0.327,0 -0.46,-0.093 -0.413,-0.272c1.652,-0.874 3.199,-1.913 4.633,-3.106c-0.507,-0.474 -1.066,-0.707 -1.68,-0.707h-0.434l-1.68,0.14l-0.134,-0.14v-0.273C70.915,16.417 71.522,15.337 71.936,15.337z" id="path_15"/><path fill="#DD2C00" d="M45.699,45.044h3.816c1.067,0 2.193,-0.414 3.38,-1.24s1.881,-1.867 2.094,-3.113l0.153,-0.16h0.153c0.187,0 0.446,0.573 0.787,1.72c1.479,2.034 3.566,2.967 6.246,2.813c0.18,0 0.367,-0.006 0.547,-0.02v4.473c-0.18,0.014 -0.367,0.02 -0.547,0.02l-2.187,-0.253c-0.233,2.081 -0.913,3.12 -2.033,3.127h-0.313c-2.08,-0.394 -3.12,-1.12 -3.12,-2.193l0.467,-2.813c-0.366,-0.413 -0.727,-0.619 -1.094,-0.619c-1.173,1.833 -6.263,2.739 -8.35,2.713V45.044z" id="path_16"/><path fill="#DD2C00" d="M61.542,25.53c0.16,-0.094 0.207,0.053 0.141,0.434c-0.887,2.08 -2.247,3.533 -4.08,4.354l-6.74,3.379c-0.286,-0.079 -0.34,-0.313 -0.16,-0.706c0.9,-1.733 1.514,-2.76 1.84,-3.087L61.542,25.53z" id="path_17"/><path fill="#008046" d="M46.01,49.511c-0.14,0.013 -0.287,0.02 -0.427,0.02h-0.787c-1.22,0 -2.053,-0.1 -2.5,-0.313c-0.906,3.506 -1.966,5.652 -3.18,6.439c-1.213,0.787 -3.953,1.453 -8.22,2h-0.313c-0.94,-0.107 -1.406,-0.26 -1.406,-0.467c0,-0.313 0.779,-0.68 2.34,-1.094c6.146,-2.813 9.22,-4.846 9.22,-6.093c0,-0.521 -0.727,-1.72 -2.187,-3.594c-0.313,-0.526 -0.467,-1.2 -0.467,-2.033v-1.56c0,-0.787 0.153,-1.201 0.467,-1.254c1.354,2.074 3.646,3.227 6.873,3.473c0.2,0 0.394,0 0.587,-0.013V49.511z" id="path_18"/><path fill="#008046" d="M36.77,30.337h1.547c1.873,0 2.813,0.699 2.813,2.107c-1.214,3.279 -2.687,5.02 -4.42,5.219l-2.047,0.273c-0.327,0 -0.46,-0.093 -0.413,-0.273c1.652,-0.873 3.2,-1.912 4.633,-3.105c-0.507,-0.475 -1.066,-0.707 -1.68,-0.707H36.77l-1.68,0.14l-0.134,-0.14v-0.273C35.749,31.417 36.356,30.337 36.77,30.337z" id="path_19"/><path fill="#DD2C00" d="M27.023,23.823c1.6,0 2.4,0.986 2.4,2.953c0,3.133 -2.674,5.807 -8.027,8.006c-0.767,0.233 -0.859,-0.047 -0.273,-0.84c0.147,-0.3 1.407,-1.24 3.787,-2.813v-0.134c-1.026,-0.42 -1.54,-1.313 -1.54,-2.681c0.68,-2.992 1.76,-4.492 3.24,-4.492H27.023L27.023,23.823zM24.637,27.202c0,0.834 0.707,1.348 2.113,1.547h0.273c0.52,0 0.854,-0.193 0.993,-0.566c0,-0.847 -0.613,-1.506 -1.833,-1.974C25.65,26.209 25.137,26.542 24.637,27.202z" id="path_20"/><path fill="#DD2C00" d="M24.17,37.679c1.826,0 3.661,0.908 5.504,2.734c0.176,0.313 0.109,0.557 -0.211,0.74c-0.319,0.178 -0.614,0.145 -0.875,-0.125c-0.791,-0.707 -1.91,-1.061 -3.357,-1.061h-0.614c-0.606,0 -1.313,0.261 -2.121,0.766c0,1.48 1.776,2.39 5.327,2.734l3.525,-1.379l0.144,0.471c0,1.658 -2.037,3.139 -6.109,4.435L19.735,50.2l-0.589,0.152c-0.236,0.05 -0.388,-0.051 -0.472,-0.295c0,-0.893 1.271,-2.113 3.82,-3.678v-0.143c-1.229,-0.682 -1.852,-1.649 -1.852,-2.912C21.225,39.563 22.395,37.679 24.17,37.679z" id="path_21"/></svg>