<svg id="vector" xmlns="http://www.w3.org/2000/svg" width="75" height="67" viewBox="0 0 83 73"><path fill="#DD2C00" d="M64.288,40.357c0.214,0 0.434,0 0.667,0h0.159c1.943,-0.12 3.714,-1.738 5.299,-4.853c1.717,-2.603 3.487,-3.9 5.305,-3.9c2.29,0 3.435,1.451 3.435,4.367v0.779c0,1.431 -0.571,3.302 -1.717,5.618l-1.092,0.779c-0.965,0 -3.195,-0.679 -6.71,-2.03c-1.064,1.598 -1.896,2.569 -2.496,2.908c-0.912,0.633 -1.843,0.899 -2.809,0.779h-0.041V40.357L64.288,40.357zM72.13,37.063v0.152c2.703,1.045 4.32,1.565 4.84,1.565c0.206,0 0.313,-0.16 0.313,-0.473c-0.599,-1.557 -1.591,-2.336 -2.968,-2.336C73.354,35.971 72.623,36.337 72.13,37.063z" id="path_0"/><path fill="#DD2C00" d="M77.163,19.377c0.16,-0.094 0.206,0.053 0.139,0.432c-0.885,2.077 -2.243,3.529 -4.073,4.347l-6.729,3.375c-0.286,-0.08 -0.34,-0.313 -0.159,-0.706c0.898,-1.729 1.511,-2.755 1.837,-3.081L77.163,19.377z" id="path_1"/><path fill="#000001" d="M51.183,29.127c0.652,0 1.797,0.779 3.435,2.336c0,0.52 -0.626,1.665 -1.878,3.435h-0.306c-0.651,0 -1.645,-0.625 -2.968,-1.871v-0.159C49.466,32.25 50.037,30.998 51.183,29.127z" id="path_2"/><path fill="#000001" d="M56.8,28.35c2.597,1.117 3.901,1.997 3.901,2.648c-0.16,0.494 -0.886,1.585 -2.184,3.276c-1.743,-0.673 -2.995,-1.458 -3.748,-2.337C55.315,30.192 55.994,28.995 56.8,28.35z" id="path_3"/><path fill="#000001" d="M53.053,23.823c2.396,0.985 3.587,1.816 3.587,2.496l-2.022,3.121h-0.159c-0.44,0 -1.639,-0.625 -3.589,-1.877C51.835,25.067 52.561,23.823 53.053,23.823z" id="path_4"/><path fill="#000001" d="M64.755,44.471h-0.759c-1.019,0 -2.264,-0.619 -3.748,-1.87c-0.858,1.457 -1.69,2.182 -2.496,2.182h-0.313c-0.893,0 -1.671,-0.571 -2.336,-1.71c-0.054,-0.132 -0.107,-0.132 -0.16,0c-0.833,1.451 -1.764,2.184 -2.803,2.184h-0.159c-1.805,0 -3.155,-1.199 -4.055,-3.587c-1.264,1.244 -3.188,2.183 -5.771,2.802c-5.958,0.652 -9.579,0.425 -10.863,-0.679c-1.292,-1.105 -1.259,-1.724 0.087,-1.864c1.344,-0.133 4.153,-0.299 8.433,-0.499c3.249,-0.167 5.852,-0.972 7.802,-2.417c0.585,-1.492 1.052,-2.323 1.404,-2.496c0.367,-0.094 0.472,0.133 0.32,0.673c-0.146,0.538 -0.207,1.044 -0.167,1.51c1.045,1.564 2.084,2.343 3.122,2.343c1.284,0 2.224,-1.092 2.81,-3.275l0.151,-0.159h0.16c0.287,0 0.493,0.571 0.626,1.716c0.307,0.953 1.052,1.412 2.218,1.385c0.99,-0.119 1.657,-1.151 1.989,-3.101c0.12,-0.574 0.433,-0.726 0.938,-0.466c0,1.557 0.886,2.603 2.649,3.121l0.919,0.094V44.471z" id="path_5"/><path fill="#000001" d="M52.92,13.039h1.544c1.871,0 2.81,0.699 2.81,2.104c-1.213,3.274 -2.684,5.012 -4.413,5.212l-2.044,0.272c-0.326,0 -0.46,-0.093 -0.413,-0.272c1.65,-0.873 3.195,-1.91 4.626,-3.102c-0.505,-0.473 -1.065,-0.706 -1.678,-0.706H52.92l-1.678,0.139l-0.133,-0.139v-0.273C51.901,14.117 52.508,13.039 52.92,13.039z" id="path_6"/><path fill="#DD2C00" d="M41.604,43.885c0.532,0.952 0.825,1.511 0.877,1.678l0.074,1.271c-0.014,2.25 -0.313,3.801 -0.912,4.659s-1.357,1.291 -2.284,1.305c-2.002,0 -4.079,-1.611 -6.242,-4.833c-0.373,-0.64 -0.739,-1.471 -1.092,-2.496h-1.559c-0.353,0 -0.686,-0.02 -1.012,-0.061v-4.466c0.479,0.106 0.972,0.153 1.479,0.153h0.626c0.857,-3.329 2.316,-5.824 4.366,-7.49c1.064,-0.832 2.058,-1.244 2.969,-1.244c1.404,0 2.236,1.039 2.495,3.122c0.414,2.091 -0.053,4.267 -1.404,6.529L41.604,43.885L41.604,43.885zM34.682,45.31c1.064,1.877 2.623,2.916 4.678,3.123c1.04,-0.094 1.719,-0.453 2.03,-1.092c-0.092,-1.258 -0.818,-2.024 -2.182,-2.29c-1.371,-0.267 -2.464,-0.36 -3.288,-0.267C35.094,44.877 34.682,45.05 34.682,45.31L34.682,45.31zM33.117,40.478c-0.114,0.345 0.039,0.506 0.472,0.466c1.978,0 3.947,-0.885 5.925,-2.65v-0.159c-0.439,-1.039 -1.012,-1.557 -1.71,-1.557C36.251,36.376 34.694,37.682 33.117,40.478z" id="path_7"/><path fill="#DD2C00" d="M37.258,18.944c1.597,0 2.396,0.985 2.396,2.949c0,3.128 -2.669,5.798 -8.015,7.994c-0.766,0.234 -0.858,-0.047 -0.272,-0.839c0.146,-0.299 1.404,-1.238 3.781,-2.808v-0.133c-1.025,-0.419 -1.539,-1.312 -1.539,-2.677c0.679,-2.988 1.758,-4.485 3.235,-4.485H37.258L37.258,18.944zM34.874,22.317c0,0.833 0.705,1.346 2.11,1.545h0.273c0.519,0 0.852,-0.193 0.99,-0.566c0,-0.845 -0.612,-1.503 -1.829,-1.969C35.887,21.327 35.374,21.66 34.874,22.317z" id="path_8"/><path fill="#000001" d="M30.021,45.39l-1.758,-0.021c-0.972,4.281 -3.548,6.444 -7.721,6.497c-2.237,0.099 -3.355,0.061 -3.355,-0.119c0.206,-0.394 1.703,-1.146 4.486,-2.264c2.863,-1.817 4.587,-2.988 5.186,-3.507l0.16,-0.467l-2.729,-0.432c-1.99,-0.52 -3.108,-1.518 -3.355,-3.002v-0.313c0,-2.522 0.62,-4.133 1.871,-4.839l0.939,-0.152c1.843,0 3.348,1.284 4.519,3.86c0.747,0.259 1.332,0.385 1.758,0.373V45.39z" id="path_9"/><path fill="#000001" d="M22.785,23.936h1.545c1.87,0 2.81,0.698 2.81,2.104c-1.213,3.275 -2.683,5.012 -4.414,5.211l-2.043,0.273c-0.327,0 -0.46,-0.094 -0.413,-0.273c1.651,-0.872 3.195,-1.91 4.626,-3.102c-0.505,-0.473 -1.064,-0.706 -1.677,-0.706h-0.434l-1.677,0.14l-0.133,-0.14v-0.272C21.768,25.015 22.374,23.936 22.785,23.936z" id="path_10"/><path fill="#213e95" d="M8.335,30.726c5.305,1.896 7.954,4.241 7.954,7.022l0.159,0.931c-0.445,3.642 -1.644,5.458 -3.595,5.458c0,0.339 -2.596,0.76 -7.794,1.252l-0.161,-0.466c0,-2.603 0.468,-3.9 1.406,-3.9c5.198,-0.419 8.061,-1.045 8.58,-1.878c-1.791,-1.738 -4.134,-3.142 -7.023,-4.207l-0.152,-0.786C7.789,31.871 7.995,30.726 8.335,30.726z" id="path_11"/><path fill="#f06022" d="M15.35,52.099l0.16,0.14v0.427c-0.806,1.73 -1.931,2.942 -3.374,3.647c-4.474,2.43 -6.956,3.648 -7.449,3.648c-0.18,0 -0.273,-0.147 -0.273,-0.433c0.428,-1.651 1.365,-2.77 2.811,-3.355l7.993,-4.074H15.35z" id="path_12"/><path fill="#f06022" d="M14.238,48.592c0.187,0 0.272,0.133 0.272,0.406c-0.519,1.511 -2.056,2.869 -4.618,4.081l-5.911,3.234l-0.134,-0.14V56.02c0.56,-1.978 1.451,-3.195 2.67,-3.648l6.597,-3.375L14.238,48.592z" id="path_13"/></svg>