<svg id="vector" xmlns="http://www.w3.org/2000/svg" width="75" height="67" viewBox="0 0 83 73"><path fill="#008046" d="M64.648,32.649c2.182,1.092 3.273,2.031 3.273,2.809c-1.037,2.051 -1.664,3.096 -1.869,3.121H65.74c-1.6,-0.805 -2.59,-1.537 -2.963,-2.182C63.137,35.212 63.762,33.96 64.648,32.649z" id="path_0"/><path fill="#008046" d="M56.141,48.737h1.797c1.896,-0.26 4.912,-0.965 9.047,-2.104v-0.16c-3.768,-1.662 -6.158,-2.496 -7.178,-2.496c-1.375,0 -2.309,0.779 -2.807,2.344l-0.467,0.313c-0.207,0 -0.313,-0.16 -0.313,-0.471c0.52,-3.117 1.924,-4.682 4.213,-4.682h0.779c0.967,0 4.24,1.092 9.832,3.275l4.213,0.313l0.307,0.475c-0.074,0.697 -0.699,2.049 -1.869,4.053h-0.467l-0.627,-0.16h-0.779c-8.113,2.396 -12.846,3.643 -14.197,3.748h-1.484V48.737z" id="path_1"/><path fill="#008046" d="M69.895,22.937c0.158,-0.092 0.203,0.055 0.137,0.434c-0.885,2.076 -2.242,3.527 -4.072,4.346l-6.73,3.375c-0.285,-0.08 -0.34,-0.313 -0.158,-0.705c0.896,-1.73 1.51,-2.756 1.838,-3.082L69.895,22.937z" id="path_2"/><path fill="#213e95" d="M45.09,48.737c0.027,0 0.061,0 0.094,0c2.496,-0.152 3.928,-1.271 4.295,-3.354c-0.939,-6.238 -1.404,-10.611 -1.404,-13.107c0,-0.959 0.418,-2.209 1.25,-3.74l0.154,0.152l0.311,0.313l-0.16,1.092c0.135,7.01 1.02,12.441 2.656,16.303c0.627,1.404 2.158,2.189 4.602,2.342v4.447c-3.355,-0.053 -5.613,-1.818 -6.783,-5.305h-0.16c-1.078,3.494 -2.697,5.266 -4.854,5.305V48.737z" id="path_3"/><path fill="#213e95" d="M54.604,20.048c0.158,-0.092 0.205,0.053 0.139,0.434c-0.885,2.076 -2.244,3.527 -4.072,4.346l-6.73,3.375c-0.287,-0.08 -0.34,-0.313 -0.16,-0.705c0.898,-1.73 1.512,-2.756 1.838,-3.082L54.604,20.048z" id="path_4"/><path fill="#008046" d="M29.235,48.737c1.73,0.146 3.203,-0.025 4.428,-0.506l-0.646,-1.172c-0.605,-3.434 -0.332,-5.703 0.82,-6.814c1.158,-1.111 2.402,-1.625 3.727,-1.531c2.576,0.119 4.027,1.471 4.367,4.053v0.939c0,2.156 -0.313,3.508 -0.934,4.053c-0.391,0.406 0.494,0.746 2.65,1.02l0.506,-0.021c0.393,-0.014 0.838,-0.02 1.346,-0.02v4.447l-1.578,0.02c-2.937,-0.012 -5.16,-0.387 -6.669,-1.111c-2.076,0.725 -3.695,1.092 -4.832,1.092h-0.627c-0.779,0 -1.631,0 -2.557,0V48.737L29.235,48.737zM34.754,44.331v0.313c0.652,1.119 1.637,1.898 2.963,2.336c0.885,-0.152 1.77,-0.518 2.656,-1.09c-0.395,-1.459 -1.693,-2.291 -3.902,-2.496C35.327,43.706 34.754,44.019 34.754,44.331z" id="path_5"/><path fill="#008046" d="M37.776,29.739c1.689,0.527 3.148,1.359 4.365,2.496v0.16c0,0.652 -0.669,1.691 -2.021,3.123c-0.42,0 -1.824,-0.52 -4.215,-1.564v0.158c-0.832,1.611 -1.352,2.445 -1.564,2.498c-1.35,-0.287 -2.496,-0.912 -3.428,-1.879c0.627,-2.594 1.145,-3.893 1.559,-3.893c0.34,0 1.592,0.619 3.748,1.871C36.219,32.163 36.739,31.171 37.776,29.739z" id="path_6"/><path fill="#008046" d="M35.625,19.796h1.545c1.871,0 2.809,0.699 2.809,2.104c-1.211,3.273 -2.684,5.012 -4.414,5.211l-2.043,0.273c-0.326,0 -0.459,-0.094 -0.412,-0.273c1.65,-0.871 3.195,-1.91 4.627,-3.102c-0.508,-0.473 -1.064,-0.705 -1.678,-0.705h-0.434l-1.676,0.139l-0.135,-0.139V23.03C34.606,20.874 35.213,19.796 35.625,19.796z" id="path_7"/><path fill="#000001" d="M21.553,35.438c0.533,0 1.785,0.625 3.75,1.869c0,0.779 -0.627,2.031 -1.879,3.75c-2.496,-0.807 -3.74,-1.539 -3.74,-2.186C19.75,38.288 20.368,37.142 21.553,35.438z" id="path_8"/><path fill="#000001" d="M15.875,48.737c1.111,0.014 1.799,-0.006 2.07,-0.059c2.342,-0.713 3.941,-2.23 4.801,-4.541c0.125,-0.445 0.385,-0.5 0.777,-0.16c0.207,0.182 0.367,0.914 0.467,2.186c1.416,1.91 3.188,2.768 5.305,2.574h0.412v4.447h-0.1c-3.314,-0.152 -5.758,-1.664 -7.334,-4.525H22.12c-1.105,2.328 -2.563,3.76 -4.367,4.293c-0.545,0.152 -1.172,0.232 -1.877,0.232V48.737z" id="path_9"/><path fill="#000001" d="M27.811,24.634c0.16,-0.092 0.205,0.055 0.139,0.434c-0.885,2.076 -2.242,3.527 -4.072,4.348l-6.73,3.373c-0.285,-0.078 -0.34,-0.313 -0.16,-0.705c0.898,-1.73 1.512,-2.756 1.838,-3.082L27.811,24.634z" id="path_10"/><path fill="#DD2C00" d="M15.917,53.185c-3.029,0.18 -5.232,-1.219 -6.611,-4.193c-0.664,-1.105 -1.283,-8.553 -1.869,-22.346v-0.313c0.385,-2.291 0.959,-3.436 1.709,-3.436l0.787,-0.154c0.959,0 2.416,0.314 4.365,0.934v0.313c-0.105,0.313 -0.42,0.473 -0.938,0.473h-2.648c-0.547,0 -1.066,0.307 -1.566,0.932c0.488,11.975 1.191,18.91 2.133,20.809c0.932,1.896 2.482,2.742 4.639,2.535V53.185z" id="path_11"/></svg>