<svg id="vector" xmlns="http://www.w3.org/2000/svg" width="75" height="67" viewBox="0 0 83 73"><path fill="#000001" d="M70.453,22.729c0.559,0 1.553,0.676 2.967,2.029c0,0.449 -0.533,1.441 -1.617,2.969h-0.271c-0.566,0 -1.418,-0.535 -2.564,-1.621v-0.131C68.967,25.433 69.463,24.354 70.453,22.729z" id="path_0"/><path fill="#000001" d="M75.313,22.056c2.254,0.969 3.377,1.734 3.377,2.299c-0.133,0.428 -0.76,1.373 -1.889,2.838c-1.512,-0.588 -2.59,-1.264 -3.24,-2.029C74.033,23.651 74.613,22.62 75.313,22.056z" id="path_1"/><path fill="#000001" d="M72.633,39.872c0.109,0 0.277,0 0.508,0h0.568c1.441,0 2.363,-0.363 2.773,-1.082V38.52c-0.681,-2.363 -1.672,-4.515 -2.976,-6.452c0.156,-2.068 0.382,-3.105 0.677,-3.105c0.789,0.633 1.825,2.881 3.104,6.754l0.139,1.76v1.215c-0.432,3.332 -1.711,4.998 -3.852,4.998h-0.437c-0.242,0 -0.41,0.013 -0.508,0.035v-3.853H72.633z" id="path_2"/><path fill="#000001" d="M78.201,13.749c0.139,-0.08 0.18,0.047 0.121,0.375c-0.768,1.799 -1.943,3.055 -3.529,3.764l-5.826,2.922c-0.248,-0.068 -0.295,-0.27 -0.139,-0.609c0.777,-1.5 1.309,-2.387 1.592,-2.67L78.201,13.749z" id="path_3"/><path fill="#213e95" d="M72.967,43.688c-0.213,0 -0.473,0 -0.779,0c-1.205,-0.012 -2.502,-0.916 -3.901,-2.721c-0.535,1.982 -1.479,2.975 -2.834,2.975h-0.134c-1.146,0 -2.094,-0.674 -2.838,-2.028h-0.137c-0.807,1.625 -1.787,2.362 -2.941,2.213c-2.139,0.013 -3.405,-0.996 -3.815,-3.021c-1.502,1.765 -3.123,2.629 -4.848,2.582h-0.22v-3.85h0.07c2.727,-0.094 4.75,-1.021 6.082,-2.785c0.178,0 0.27,0.133 0.27,0.404l-0.139,0.945c0.721,1.44 1.666,2.162 2.836,2.162c1.107,0 2.23,-1.08 3.379,-3.24h0.137l0.404,0.402v0.946c0,0.853 0.635,1.349 1.894,1.486h0.271c1.172,0 2.254,-1.17 3.245,-3.516H69.1c0.178,0 0.271,0.408 0.271,1.214c0.494,1.367 1.693,2.023 3.596,1.979V43.688z" id="path_4"/><path fill="#213e95" d="M61.869,24.2h1.338c1.619,0 2.434,0.604 2.434,1.822c-1.051,2.834 -2.324,4.34 -3.822,4.512l-1.77,0.236c-0.283,0 -0.398,-0.08 -0.357,-0.236c1.431,-0.754 2.769,-1.654 4.007,-2.686c-0.439,-0.41 -0.923,-0.611 -1.453,-0.611H61.87l-1.451,0.121l-0.114,-0.121v-0.236C60.988,25.134 61.514,24.2 61.869,24.2z" id="path_5"/><path fill="#DD2C00" d="M41.521,25.536c2.07,0.854 3.107,1.574 3.107,2.162l-1.758,2.699h-0.134c-0.385,0 -1.416,-0.537 -3.104,-1.621C40.461,26.616 41.096,25.536 41.521,25.536z" id="path_6"/><path fill="#DD2C00" d="M38.006,39.839h0.881c1.754,-0.146 3.063,-0.842 3.914,-2.094l0.139,-0.408l-0.401,-2.023c0.088,-2.162 0.312,-3.246 0.674,-3.246c1.078,3.805 2.115,6.127 3.106,6.959c0.854,0.481 2.023,0.748 3.511,0.795c0.397,0 0.769,0 1.119,0v3.867c-0.445,0 -0.904,0 -1.392,0h-0.133c-2.588,0 -4.57,-1.441 -5.941,-4.322v-0.133l-1.217,2.426c-0.922,1.367 -2.274,2.041 -4.053,2.029h-0.207V39.839z" id="path_7"/><path fill="#DD2C00" d="M49.275,45.896c0.139,-0.074 0.178,0.047 0.121,0.375c-0.767,1.799 -1.941,3.057 -3.527,3.764l-5.828,2.924c-0.248,-0.07 -0.293,-0.271 -0.139,-0.605c0.779,-1.498 1.311,-2.387 1.59,-2.67L49.275,45.896z" id="path_8"/><path fill="#000001" d="M34.785,44.634c1.4,0.566 2.432,1.193 3.111,1.892v0.139c-0.742,1.977 -1.332,2.969 -1.758,2.969c-0.34,0 -1.418,-0.543 -3.246,-1.619l-1.215,2.293c-2.342,-0.852 -3.512,-1.479 -3.512,-1.891c0.498,-1.844 0.992,-2.928 1.488,-3.238c0.379,0 1.551,0.582 3.51,1.758C33.908,45.4 34.449,44.634 34.785,44.634z" id="path_9"/><path fill="#000001" d="M25.666,39.839h0.881c1.752,-0.146 3.061,-0.842 3.914,-2.094l0.139,-0.408l-0.404,-2.023c0.086,-2.162 0.313,-3.246 0.676,-3.246c1.076,3.805 2.115,6.127 3.105,6.959c0.854,0.481 2.023,0.748 3.512,0.795c0.396,0 0.766,0 1.117,0v3.867c-0.443,0 -0.906,0 -1.389,0h-0.133c-2.588,0 -4.572,-1.441 -5.941,-4.322v-0.133l-1.217,2.426c-0.924,1.367 -2.279,2.041 -4.053,2.029h-0.207V39.839z" id="path_10"/><path fill="#000001" d="M31.125,21.161h1.338c1.617,0 2.432,0.605 2.432,1.822c-1.051,2.836 -2.324,4.342 -3.822,4.514l-1.77,0.236c-0.283,0 -0.398,-0.08 -0.357,-0.236c1.43,-0.756 2.766,-1.654 4.006,-2.688c-0.439,-0.408 -0.922,-0.609 -1.453,-0.609h-0.373l-1.453,0.121L29.557,24.2v-0.236C30.242,22.097 30.768,21.161 31.125,21.161z" id="path_11"/><path fill="#DD2C00" d="M25.787,43.688c-0.145,0 -0.301,0 -0.457,0h-0.133c-1.309,-0.012 -2.57,-0.242 -3.787,-0.69c-1.303,2.254 -3.014,3.379 -5.129,3.379c-2.525,-0.365 -3.787,-1.396 -3.787,-3.106h-0.133c-0.426,1.438 -1.373,2.608 -2.836,3.51c-1.961,0.721 -3.494,1.084 -4.594,1.084l-0.623,0.08v-0.271c0.502,-0.416 1.861,-1.379 4.074,-2.889c2.215,-1.505 3.473,-2.451 3.764,-2.836c0.301,-0.382 0.734,-1.654 1.297,-3.816c1.08,-1.799 2.072,-2.703 2.969,-2.703h0.273c1.123,0 2.928,1.217 5.406,3.648c0.721,0.61 1.947,0.883 3.695,0.813L25.787,43.688L25.787,43.688zM14.119,40.021c0,1.193 0.945,2.006 2.836,2.435h0.674c1.533,-0.156 2.301,-0.381 2.301,-0.677c-1.781,-1.711 -3.129,-2.563 -4.057,-2.563H15.74C14.973,39.216 14.432,39.484 14.119,40.021z" id="path_12"/><path fill="#f06022" d="M21.023,52.468l0.139,0.121v0.369c-0.697,1.498 -1.67,2.547 -2.92,3.158c-3.875,2.104 -6.025,3.157 -6.451,3.157c-0.156,0 -0.236,-0.125 -0.236,-0.373c0.369,-1.43 1.182,-2.397 2.432,-2.905l6.924,-3.527H21.023z" id="path_13"/><path fill="#f06022" d="M20.063,49.432c0.16,0 0.236,0.114 0.236,0.352c-0.451,1.307 -1.783,2.482 -4.002,3.533l-5.117,2.801l-0.115,-0.121v-0.133c0.484,-1.713 1.256,-2.766 2.311,-3.158l5.713,-2.922L20.063,49.432z" id="path_14"/></svg>