<svg id="vector" xmlns="http://www.w3.org/2000/svg" width="75" height="67" viewBox="0 0 83 73"><path fill="#000001" d="M38.146,13.792c1.252,2.13 1.876,4.213 1.876,6.237c-0.546,3.848 -1.225,5.771 -2.029,5.771l-0.152,-0.153v-0.153l0.306,-2.03v-0.159c0,-1.244 -0.519,-3.114 -1.558,-5.61v-0.314C37.106,14.983 37.627,13.792 38.146,13.792z" id="path_0"/><path fill="#008046" d="M59.525,46.614h0.779c4.853,-0.094 8.074,-0.772 9.671,-2.051l0.314,-0.618c-0.207,-0.499 -0.466,-0.746 -0.78,-0.746c-0.751,0.419 -1.583,0.626 -2.496,0.626h-0.16c-2.701,-0.313 -4.106,-1.404 -4.206,-3.274v-0.16c0.259,-3.535 1.092,-5.299 2.496,-5.299h0.78c2.402,-0.12 4.226,1.75 5.458,5.61l0.152,1.565v0.313c-0.033,3.82 -1.404,6.345 -4.113,7.563c-0.959,0.612 -3.596,0.918 -7.896,0.918V46.614z" id="path_1"/><path fill="#008046" d="M66.39,26.938c1.69,0.52 3.147,1.352 4.366,2.496v0.153c0,0.652 -0.673,1.69 -2.024,3.122c-0.419,0 -1.823,-0.519 -4.214,-1.559v0.154c-0.831,1.611 -1.352,2.441 -1.564,2.496c-1.352,-0.286 -2.496,-0.912 -3.428,-1.871c0.626,-2.603 1.146,-3.901 1.558,-3.901c0.34,0 1.584,0.626 3.748,1.871C64.831,29.354 65.351,28.369 66.39,26.938z" id="path_2"/><path fill="#008046" d="M66.276,14.663c1.598,0 2.395,0.985 2.395,2.949c0,3.129 -2.667,5.798 -8.013,7.994c-0.767,0.232 -0.86,-0.047 -0.273,-0.839c0.146,-0.3 1.404,-1.238 3.779,-2.809v-0.134c-1.023,-0.419 -1.536,-1.312 -1.536,-2.676c0.679,-2.989 1.757,-4.486 3.235,-4.486H66.276L66.276,14.663zM63.894,18.038c0,0.832 0.704,1.345 2.11,1.545h0.272c0.519,0 0.851,-0.193 0.991,-0.566c0,-0.846 -0.612,-1.505 -1.832,-1.971C64.903,17.046 64.393,17.379 63.894,18.038z" id="path_3"/><path fill="#008046" d="M59.539,51.073c-0.139,0.014 -0.287,0.021 -0.426,0.021h-0.785c-1.219,0 -2.05,-0.1 -2.496,-0.313c-0.905,3.501 -1.964,5.645 -3.176,6.431c-1.211,0.784 -3.946,1.45 -8.208,1.996h-0.312c-0.938,-0.105 -1.404,-0.259 -1.404,-0.466c0,-0.313 0.778,-0.679 2.336,-1.091c6.138,-2.811 9.205,-4.841 9.205,-6.085c0,-0.519 -0.726,-1.718 -2.183,-3.588c-0.313,-0.525 -0.466,-1.197 -0.466,-2.03v-1.557c0,-0.785 0.152,-1.198 0.466,-1.251c1.352,2.068 3.642,3.222 6.863,3.467c0.198,0 0.392,0 0.585,-0.014V51.073z" id="path_4"/><path fill="#008046" d="M50.313,31.93h1.545c1.87,0 2.81,0.699 2.81,2.104c-1.213,3.275 -2.683,5.013 -4.413,5.213l-2.044,0.272c-0.327,0 -0.46,-0.094 -0.413,-0.272c1.652,-0.872 3.196,-1.911 4.626,-3.103c-0.505,-0.473 -1.064,-0.705 -1.678,-0.705h-0.433l-1.677,0.139l-0.133,-0.139v-0.273C49.295,33.008 49.901,31.93 50.313,31.93z" id="path_5"/><path fill="#000001" d="M37.873,27.018c0.312,0 0.626,1.045 0.938,3.121l1.404,3.122l-0.624,3.588l0.464,8.741v1.397c-0.204,3.567 -0.726,5.645 -1.556,6.243l-0.154,-0.152l0.154,-2.344c0,-2.103 -0.679,-8.813 -2.03,-20.122C37.12,28.216 37.586,27.018 37.873,27.018z" id="path_6"/><path fill="#213e95" d="M21.139,42.674h0.312c1.459,0.333 2.756,1.118 3.9,2.337v0.312c-0.1,0.833 -0.726,1.925 -1.87,3.275c-2.702,-0.905 -4.054,-1.689 -4.054,-2.336C20.074,44.392 20.646,43.193 21.139,42.674z" id="path_7"/><path fill="#213e95" d="M29.413,39.552h0.306c0.365,0 1.251,2.343 2.654,7.022l0.154,0.618c0,3.668 -0.886,6.324 -2.65,7.963c-2.496,2.701 -5.456,4.053 -8.893,4.053c-2.808,-0.626 -4.626,-1.245 -5.458,-1.871c-2.709,-2.315 -4.061,-5.178 -4.061,-8.579c0,-2.862 1.252,-5.564 3.748,-8.113l0.152,-0.154h0.314l0.312,0.306c0,0.268 -0.726,1.404 -2.183,3.436c-0.419,0.726 -0.678,1.717 -0.779,2.961c0,2.424 1.246,4.501 3.742,6.244c2.441,0.939 4.106,1.404 4.992,1.404c2.234,0 4.885,-0.99 7.954,-2.961c1.251,-1.099 1.877,-1.771 1.877,-2.031l-2.183,-6.083l-0.162,-1.092L29.413,39.552z" id="path_8"/><path fill="#000001" d="M23.635,24.208c1.191,0 1.897,0.793 2.103,2.378v0.432c-0.219,2.649 -1.104,4.38 -2.648,5.187c-2.689,1.689 -5.133,2.535 -7.315,2.535c-0.08,-0.014 -0.153,-0.033 -0.233,-0.06s-0.139,-0.067 -0.186,-0.12c-0.047,-0.047 -0.041,-0.08 0.012,-0.094c0.113,-0.259 2.077,-1.298 5.886,-3.102v-0.14c-1.026,-0.646 -1.539,-1.537 -1.539,-2.67C20.325,25.653 21.63,24.208 23.635,24.208L23.635,24.208zM21.119,27.151v0.132c0,0.966 0.659,1.531 1.97,1.698h0.405c0.499,0 0.778,-0.14 0.839,-0.427c0,-1.311 -0.698,-1.969 -2.103,-1.969C21.491,26.751 21.119,26.944 21.119,27.151z" id="path_9"/><path fill="#000001" d="M20.552,21.673c0.3,-0.147 0.44,-0.047 0.427,0.293c-1.505,1.663 -2.689,3.241 -3.547,4.738c-0.248,0.586 -0.387,1.065 -0.422,1.452c-0.033,0.385 0.068,0.799 0.307,1.237h0.294c0.113,-0.651 0.346,-0.978 0.698,-0.978c0.42,0.186 0.653,0.372 0.7,0.565v0.272c0.025,1.485 -0.394,2.377 -1.266,2.677h-0.698c-0.939,-0.188 -1.405,-1.266 -1.405,-3.242C15.64,26.285 17.277,23.949 20.552,21.673z" id="path_10"/></svg>