<svg id="vector" xmlns="http://www.w3.org/2000/svg" width="75" height="67" viewBox="0 0 83 73"><path fill="#213e95" d="M68.459,23.506h0.313c1.064,0.234 2.211,0.854 3.436,1.871v0.154c-0.707,2.137 -1.326,3.273 -1.871,3.434c-1.592,-0.313 -2.783,-0.832 -3.588,-1.557v-0.16C66.748,26.023 67.32,24.777 68.459,23.506z" id="path_0"/><path fill="#213e95" d="M74.236,22.102h0.152c1.066,0.154 2.264,0.879 3.59,2.184v0.154l-1.871,3.275c-2.496,-0.807 -3.748,-1.479 -3.748,-2.023C73.164,23.295 73.791,22.102 74.236,22.102z" id="path_1"/><path fill="#213e95" d="M67.074,39.748c4.086,0.041 6.371,-0.725 6.869,-2.303c0,-0.545 -0.52,-1.896 -1.563,-4.053l0.471,-4.055h0.307c1.357,2.336 2.029,4.68 2.029,7.016v1.404c0,0.939 -0.227,1.924 -0.672,2.955c-0.445,1.033 -1.139,1.904 -2.064,2.604c-0.93,0.705 -2.721,0.998 -5.377,0.879V39.748z" id="path_2"/><path fill="#213e95" d="M76.959,13.715c0.16,-0.092 0.207,0.055 0.139,0.434c-0.885,2.076 -2.242,3.527 -4.072,4.346l-6.73,3.375c-0.287,-0.08 -0.338,-0.313 -0.16,-0.705c0.898,-1.73 1.512,-2.756 1.838,-3.082L76.959,13.715z" id="path_3"/><path fill="#008046" d="M51.479,39.748c1.73,0.148 3.201,-0.025 4.426,-0.506L55.26,38.07c-0.607,-3.434 -0.334,-5.703 0.818,-6.814c1.158,-1.113 2.402,-1.625 3.727,-1.531c2.576,0.119 4.027,1.471 4.367,4.053v0.939c0,2.156 -0.313,3.508 -0.932,4.053c-0.393,0.406 0.492,0.746 2.65,1.02l0.504,-0.02c0.393,-0.014 0.84,-0.021 1.346,-0.021v4.447l-1.578,0.02c-2.936,-0.012 -5.158,-0.387 -6.67,-1.111c-2.076,0.725 -3.693,1.092 -4.832,1.092h-0.627c-0.777,0 -1.629,0 -2.555,0V39.748L51.479,39.748zM56.996,35.342v0.313c0.652,1.119 1.639,1.898 2.963,2.338c0.885,-0.154 1.77,-0.52 2.656,-1.092c-0.395,-1.459 -1.691,-2.291 -3.902,-2.498C57.568,34.717 56.996,35.029 56.996,35.342z" id="path_4"/><path fill="#008046" d="M60.02,20.752c1.689,0.525 3.148,1.357 4.365,2.496v0.158c0,0.652 -0.672,1.691 -2.023,3.123c-0.42,0 -1.824,-0.52 -4.213,-1.564v0.16c-0.832,1.609 -1.352,2.443 -1.564,2.496c-1.352,-0.287 -2.496,-0.912 -3.428,-1.877c0.625,-2.596 1.145,-3.895 1.557,-3.895c0.34,0 1.592,0.619 3.748,1.871C58.461,23.174 58.98,22.182 60.02,20.752z" id="path_5"/><path fill="#008046" d="M57.867,10.807h1.545c1.871,0 2.809,0.699 2.809,2.104c-1.211,3.275 -2.682,5.012 -4.412,5.211l-2.043,0.273c-0.326,0 -0.461,-0.094 -0.414,-0.273c1.652,-0.871 3.195,-1.91 4.627,-3.102c-0.506,-0.473 -1.064,-0.705 -1.678,-0.705h-0.434l-1.676,0.139l-0.133,-0.139v-0.273C56.85,11.885 57.455,10.807 57.867,10.807z" id="path_6"/><path fill="#000001" d="M51.965,44.195l-1.758,-0.02c-0.973,4.279 -3.549,6.443 -7.723,6.496c-2.236,0.1 -3.354,0.061 -3.354,-0.119c0.205,-0.393 1.703,-1.145 4.486,-2.264c2.861,-1.818 4.586,-2.988 5.186,-3.508l0.158,-0.467l-2.729,-0.432c-1.99,-0.52 -3.109,-1.518 -3.354,-3.002v-0.313c0,-2.523 0.619,-4.135 1.869,-4.84l0.939,-0.154c1.844,0 3.348,1.285 4.52,3.861c0.746,0.26 1.33,0.387 1.758,0.373V44.195z" id="path_7"/><path fill="#000001" d="M49.834,52.363c0.16,-0.088 0.207,0.053 0.141,0.432c-0.887,2.078 -2.244,3.529 -4.074,4.348l-6.73,3.373c-0.285,-0.078 -0.34,-0.311 -0.158,-0.697c0.896,-1.73 1.51,-2.756 1.836,-3.082L49.834,52.363z" id="path_8"/><path fill="#DD2C00" d="M29.178,46.885h0.314c1.064,0.232 2.209,0.857 3.434,1.877v0.152c-0.705,2.131 -1.324,3.275 -1.871,3.436c-1.59,-0.313 -2.781,-0.832 -3.586,-1.564v-0.152C27.469,49.408 28.041,48.162 29.178,46.885z" id="path_9"/><path fill="#DD2C00" d="M34.955,45.48h0.154c1.064,0.16 2.264,0.885 3.588,2.182v0.16l-1.871,3.275c-2.496,-0.805 -3.748,-1.484 -3.748,-2.029C33.885,46.678 34.51,45.48 34.955,45.48z" id="path_10"/><path fill="#DD2C00" d="M27.793,39.748c4.088,0.041 6.371,-0.725 6.871,-2.303c0,-0.545 -0.52,-1.896 -1.564,-4.053l0.471,-4.055h0.307c1.359,2.336 2.031,4.68 2.031,7.016v1.404c0,0.939 -0.227,1.924 -0.672,2.955c-0.447,1.033 -1.139,1.904 -2.064,2.604c-0.932,0.705 -2.723,0.998 -5.379,0.879V39.748z" id="path_11"/><path fill="#DD2C00" d="M30.723,18.262h1.545c1.869,0 2.809,0.699 2.809,2.104c-1.211,3.275 -2.682,5.012 -4.412,5.211l-2.045,0.273c-0.326,0 -0.459,-0.092 -0.412,-0.273c1.65,-0.871 3.195,-1.91 4.625,-3.102c-0.506,-0.473 -1.064,-0.705 -1.676,-0.705h-0.434l-1.678,0.141l-0.133,-0.141v-0.273C29.703,19.34 30.311,18.262 30.723,18.262z" id="path_12"/><path fill="#000001" d="M29.824,44.195c-0.166,0 -0.346,0 -0.525,0h-0.154c-1.51,-0.014 -2.969,-0.279 -4.373,-0.799c-1.504,2.604 -3.48,3.9 -5.924,3.9c-2.916,-0.418 -4.373,-1.609 -4.373,-3.588h-0.152c-0.494,1.664 -1.586,3.016 -3.275,4.055c-2.264,0.832 -4.035,1.25 -5.307,1.25l-0.719,0.094v-0.313c0.58,-0.48 2.15,-1.592 4.707,-3.334c2.557,-1.738 4.006,-2.83 4.346,-3.275c0.346,-0.439 0.846,-1.91 1.498,-4.406c1.246,-2.078 2.391,-3.123 3.428,-3.123h0.314c1.297,0 3.381,1.404 6.242,4.213c0.834,0.707 2.25,1.02 4.268,0.939V44.195L29.824,44.195zM16.352,39.961c0,1.379 1.092,2.318 3.275,2.811h0.777c1.771,-0.182 2.656,-0.439 2.656,-0.779c-2.057,-1.979 -3.615,-2.963 -4.686,-2.963h-0.154C17.336,39.029 16.711,39.342 16.352,39.961z" id="path_13"/><path fill="#f06022" d="M24.326,54.332l0.16,0.141v0.426c-0.807,1.73 -1.932,2.941 -3.375,3.648c-4.475,2.43 -6.957,3.648 -7.449,3.648c-0.18,0 -0.273,-0.146 -0.273,-0.434c0.426,-1.65 1.365,-2.77 2.811,-3.354l7.994,-4.076H24.326z" id="path_14"/><path fill="#f06022" d="M23.215,50.824c0.186,0 0.271,0.133 0.271,0.406c-0.518,1.512 -2.057,2.869 -4.619,4.08l-5.91,3.236l-0.133,-0.139v-0.154c0.559,-1.977 1.451,-3.195 2.668,-3.648l6.598,-3.375L23.215,50.824z" id="path_15"/></svg>