<svg id="vector" xmlns="http://www.w3.org/2000/svg" width="100" height="67" viewBox="0 0 171 73"><path fill="#213e95" d="M157.272,41.525c0.209,0 0.43,0 0.662,0h0.842c3.168,-0.525 4.754,-1.479 4.754,-2.863c-1.502,-1.402 -3.924,-2.1 -7.271,-2.1l-1.92,0.173h-2.082l-0.508,-4.946l7.309,-5.434l7.408,-5.315c0.363,-0.221 0.502,-0.126 0.418,0.28l-3.072,5.596h-0.145l-0.137,-0.979h-0.279l-8.949,6.711h3.217c3.787,0 6.305,1.068 7.551,3.216l0.139,0.835v0.281c-0.014,3.555 -1.641,6.209 -4.893,7.969c-0.93,0.376 -1.725,0.561 -2.381,0.561c-0.232,0 -0.453,0 -0.662,0V41.525z" id="path_0"/><path fill="#213e95" d="M165.171,14.717c0.145,-0.084 0.186,0.048 0.125,0.388c-0.793,1.861 -2.01,3.161 -3.65,3.896l-6.031,3.024c-0.256,-0.071 -0.305,-0.28 -0.143,-0.632c0.805,-1.551 1.354,-2.47 1.646,-2.763L165.171,14.717z" id="path_1"/><path fill="#DD2C00" d="M158.114,45.51h-0.352c-3.377,0 -5.477,-2.373 -6.287,-7.128l-0.842,-13.565c0.352,-1.957 0.721,-3.072 1.121,-3.353h0.137c0.186,0 0.281,0.138 0.281,0.417c0,9.253 0.604,15.1 1.818,17.545c1.236,1.365 2.607,2.058 4.123,2.082V45.51z" id="path_2"/><path fill="#DD2C00" d="M140.993,38.482c0.162,0.013 0.334,0.019 0.525,0.019h1.324c1.402,-0.233 2.469,-0.722 3.215,-1.468l-1.676,-13.285c0.418,-2.518 0.793,-3.77 1.115,-3.77l1.82,4.193c0,0.65 -0.232,1.629 -0.699,2.935l0.699,7.547v2.1c-0.525,2.226 -1.23,3.782 -2.113,4.665c-0.668,0.71 -1.449,1.068 -2.361,1.068h-1.188c-0.232,0 -0.453,-0.007 -0.662,-0.019V38.482z" id="path_3"/><path fill="#DD2C00" d="M146.601,11.92h1.385c1.676,0 2.518,0.625 2.518,1.885c-1.086,2.935 -2.404,4.491 -3.955,4.67l-1.832,0.245c-0.293,0 -0.412,-0.083 -0.369,-0.245c1.479,-0.781 2.863,-1.711 4.145,-2.779c-0.453,-0.424 -0.953,-0.633 -1.504,-0.633h-0.387l-1.504,0.125l-0.119,-0.125v-0.244C145.688,12.886 146.231,11.92 146.601,11.92z" id="path_4"/><path fill="#000001" d="M120.216,39.307c1.092,-0.377 3.055,-0.645 5.883,-0.806c3.238,0.024 6.246,-0.549 9.02,-1.712v-0.138c-1.098,-1.121 -2.213,-1.682 -3.354,-1.682c-0.691,0.023 -1.061,-0.114 -1.121,-0.418c0.537,-1.539 1.324,-2.458 2.363,-2.762c0.869,-0.292 2.088,-0.489 3.65,-0.597c2.959,0.048 4.498,0.793 4.611,2.236v0.562c0,1.134 -0.465,2.201 -1.396,3.215v0.28c0.209,0.818 1.139,1.146 2.799,0.979h0.1v3.687l-0.244,0.09h-1.395c-1.457,-0.138 -2.764,-1.115 -3.914,-2.935c-3.395,0.918 -5.566,1.461 -6.521,1.635c-0.953,0.166 -2.176,0.268 -3.668,0.303c-1.49,0.037 -2.625,0.02 -3.395,-0.053c-0.77,-0.065 -1.592,-0.174 -2.48,-0.316C119.44,40.201 119.13,39.676 120.216,39.307z" id="path_5"/><path fill="#000001" d="M139.103,45.093c0.143,-0.078 0.186,0.048 0.125,0.388c-0.793,1.861 -2.01,3.162 -3.65,3.895l-6.031,3.025c-0.256,-0.072 -0.305,-0.281 -0.143,-0.627c0.805,-1.551 1.354,-2.469 1.646,-2.762L139.103,45.093z" id="path_6"/><path fill="#DD2C00" d="M127.321,40.613c0.477,0.853 0.738,1.354 0.787,1.502l0.066,1.141c-0.014,2.016 -0.281,3.406 -0.818,4.175c-0.537,0.771 -1.217,1.157 -2.047,1.169c-1.795,0 -3.656,-1.443 -5.594,-4.33c-0.336,-0.572 -0.662,-1.318 -0.979,-2.237h-1.396c-0.316,0 -0.615,-0.018 -0.906,-0.054v-4.002c0.43,0.095 0.871,0.137 1.324,0.137h0.561c0.77,-2.982 2.076,-5.22 3.914,-6.711c0.953,-0.746 1.842,-1.115 2.66,-1.115c1.258,0 2.004,0.93 2.236,2.797c0.369,1.873 -0.047,3.824 -1.258,5.853L127.321,40.613L127.321,40.613zM121.116,41.889c0.955,1.683 2.352,2.613 4.193,2.799c0.932,-0.084 1.539,-0.406 1.82,-0.979c-0.084,-1.128 -0.734,-1.814 -1.957,-2.053c-1.229,-0.238 -2.207,-0.322 -2.947,-0.238C121.487,41.502 121.116,41.656 121.116,41.889L121.116,41.889zM119.716,37.559c-0.102,0.311 0.035,0.453 0.422,0.418c1.773,0 3.539,-0.794 5.311,-2.375v-0.143c-0.395,-0.932 -0.906,-1.396 -1.533,-1.396C122.524,33.883 121.13,35.053 119.716,37.559z" id="path_7"/><path fill="#DD2C00" d="M121.97,20.539h1.385c1.676,0 2.518,0.626 2.518,1.885c-1.086,2.936 -2.404,4.492 -3.955,4.672l-1.832,0.244c-0.293,0 -0.412,-0.084 -0.369,-0.244c1.479,-0.782 2.863,-1.713 4.145,-2.78c-0.453,-0.424 -0.955,-0.633 -1.502,-0.633h-0.389l-1.504,0.126l-0.119,-0.126v-0.244C121.058,21.506 121.601,20.539 121.97,20.539z" id="path_8"/><path fill="#000001" d="M104.306,38.238c1.379,0.441 2.447,1.002 3.217,1.677v0.28c0,0.465 -0.514,1.491 -1.539,3.078c-0.955,0 -2.023,-0.514 -3.217,-1.539v-0.281C102.767,40.451 103.28,39.384 104.306,38.238z" id="path_9"/><path fill="#000001" d="M116.632,41.907c-1.271,0 -2.256,-0.196 -2.959,-0.591c-0.348,3.031 -0.996,5.125 -1.957,6.294c-2.303,2.887 -4.684,4.331 -7.129,4.331c-4.498,0 -7.434,-1.957 -8.811,-5.87c-0.275,-0.746 -0.418,-1.54 -0.418,-2.38v-1.116c0,-3.311 1.025,-5.917 3.078,-7.833c0.369,0.144 0.561,0.466 0.561,0.979l-2.236,4.057l-0.143,1.396c0,3.149 1.723,5.338 5.172,6.573l3.639,0.28c1.533,0 3.447,-0.889 5.732,-2.654c0.834,-1.354 1.258,-2.332 1.258,-2.941c-0.096,-0.93 -0.703,-2.278 -1.818,-4.05V35.44l0.418,-0.417c1.014,2.04 2.887,3.023 5.613,2.953V41.907z" id="path_10"/><path fill="#000001" d="M109.317,53.772c0.143,-0.077 0.186,0.048 0.125,0.388c-0.793,1.861 -2.01,3.162 -3.65,3.895l-6.031,3.025c-0.256,-0.072 -0.305,-0.28 -0.143,-0.627c0.805,-1.551 1.354,-2.469 1.646,-2.762L109.317,53.772z" id="path_11"/><path fill="#000001" d="M90.132,22.019c0.281,0 0.561,0.937 0.842,2.798l1.258,2.797l-0.561,3.217l0.418,7.832v1.253c-0.186,3.197 -0.65,5.058 -1.396,5.595l-0.137,-0.137l0.137,-2.1c0,-1.885 -0.607,-7.898 -1.818,-18.033C89.458,23.092 89.876,22.019 90.132,22.019z" id="path_12"/><path fill="#213e95" d="M78.989,41.508c0.16,0.012 0.334,0.018 0.525,0.018h1.322c1.402,-0.232 2.471,-0.722 3.217,-1.467l-1.676,-13.285c0.416,-2.518 0.793,-3.771 1.115,-3.771l1.818,4.193c0,0.65 -0.232,1.629 -0.697,2.935l0.697,7.547v2.1c-0.523,2.225 -1.229,3.782 -2.111,4.665c-0.668,0.71 -1.449,1.067 -2.363,1.067h-1.186c-0.232,0 -0.453,-0.006 -0.662,-0.018V41.508z" id="path_13"/><path fill="#213e95" d="M82.646,14.943h1.385c1.676,0 2.518,0.627 2.518,1.885c-1.086,2.936 -2.404,4.492 -3.955,4.672l-1.832,0.244c-0.293,0 -0.412,-0.084 -0.369,-0.244c1.479,-0.782 2.863,-1.713 4.145,-2.78c-0.453,-0.424 -0.955,-0.632 -1.502,-0.632h-0.389l-1.504,0.125l-0.119,-0.125v-0.245C81.733,15.91 82.276,14.943 82.646,14.943z" id="path_14"/><path fill="#000001" d="M67.636,41.525h0.316c0.955,0 1.963,-0.37 3.025,-1.109c1.061,-0.74 1.682,-1.67 1.873,-2.786l0.137,-0.144h0.137c0.168,0 0.4,0.514 0.705,1.539c1.324,1.82 3.191,2.655 5.588,2.518c0.162,0 0.33,-0.006 0.49,-0.018v4.003c-0.16,0.012 -0.328,0.018 -0.49,0.018l-1.955,-0.227c-0.209,1.861 -0.818,2.792 -1.82,2.798h-0.279c-1.861,-0.352 -2.793,-1.002 -2.793,-1.963l0.418,-2.518c-0.328,-0.369 -0.65,-0.555 -0.979,-0.555c-1.049,1.641 -2.506,2.452 -4.373,2.428V41.525z" id="path_15"/><path fill="#000001" d="M78.714,24.064c0.145,-0.083 0.186,0.048 0.125,0.388c-0.793,1.861 -2.01,3.162 -3.65,3.896l-6.031,3.024c-0.256,-0.071 -0.303,-0.28 -0.143,-0.632c0.805,-1.551 1.354,-2.47 1.646,-2.763L78.714,24.064z" id="path_16"/><path fill="#000001" d="M61.157,29.606c0.479,0 1.6,0.561 3.359,1.677c0,0.697 -0.561,1.819 -1.682,3.357c-2.238,-0.721 -3.354,-1.377 -3.354,-1.956C59.542,32.16 60.097,31.134 61.157,29.606z" id="path_17"/><path fill="#000001" d="M56.069,41.525c0.996,0.012 1.611,-0.006 1.855,-0.054c2.1,-0.639 3.531,-1.999 4.301,-4.068c0.113,-0.399 0.346,-0.448 0.699,-0.144c0.184,0.162 0.328,0.817 0.416,1.957c1.271,1.712 2.857,2.481 4.756,2.309h0.369v3.984h-0.09c-2.971,-0.137 -5.16,-1.491 -6.574,-4.057h-0.137c-0.99,2.088 -2.297,3.371 -3.914,3.848c-0.488,0.138 -1.049,0.209 -1.682,0.209V41.525z" id="path_18"/><path fill="#000001" d="M61.45,19.627h1.385c1.676,0 2.518,0.625 2.518,1.885c-1.086,2.935 -2.404,4.492 -3.955,4.671l-1.832,0.244c-0.293,0 -0.412,-0.083 -0.369,-0.244c1.479,-0.782 2.863,-1.712 4.145,-2.78c-0.453,-0.424 -0.953,-0.633 -1.502,-0.633H61.45l-1.504,0.126l-0.119,-0.126v-0.244C60.538,20.593 61.081,19.627 61.45,19.627z" id="path_19"/><path fill="#213e95" d="M41.831,41.525c1.551,0.131 2.869,-0.023 3.967,-0.453l-0.578,-1.051c-0.543,-3.078 -0.299,-5.111 0.732,-6.107c1.039,-0.997 2.154,-1.456 3.342,-1.373c2.309,0.107 3.609,1.318 3.912,3.633v0.842c0,1.933 -0.279,3.144 -0.834,3.633c-0.354,0.363 0.441,0.668 2.373,0.912l0.453,-0.018c0.354,-0.012 0.752,-0.018 1.205,-0.018v3.984l-1.414,0.019c-2.631,-0.012 -4.623,-0.347 -5.977,-0.997c-1.861,0.65 -3.311,0.979 -4.33,0.979H44.12c-0.697,0 -1.461,0 -2.289,0V41.525L41.831,41.525zM46.776,37.576v0.28c0.584,1.003 1.467,1.7 2.654,2.095c0.793,-0.138 1.586,-0.466 2.379,-0.979c-0.352,-1.307 -1.514,-2.053 -3.494,-2.237C47.288,37.016 46.776,37.296 46.776,37.576z" id="path_20"/><path fill="#213e95" d="M47.616,25.693c1.211,0 2.326,0.746 3.354,2.236c-0.859,1.957 -1.516,2.936 -1.957,2.936c-1.885,-0.931 -2.91,-1.539 -3.078,-1.82C45.935,28.163 46.495,27.041 47.616,25.693z" id="path_21"/><path fill="#213e95" d="M48.858,13.314c1.432,0 2.146,0.883 2.146,2.643c0,2.805 -2.393,5.196 -7.182,7.165c-0.688,0.208 -0.77,-0.042 -0.244,-0.751c0.131,-0.27 1.258,-1.11 3.387,-2.518v-0.119c-0.918,-0.377 -1.377,-1.176 -1.377,-2.398c0.607,-2.679 1.574,-4.021 2.898,-4.021H48.858L48.858,13.314zM46.722,16.34c0,0.745 0.633,1.205 1.891,1.384h0.246c0.465,0 0.762,-0.173 0.889,-0.507c0,-0.758 -0.549,-1.349 -1.641,-1.767C47.628,15.45 47.169,15.749 46.722,16.34z" id="path_22"/><path fill="#DD2C00" d="M42.267,45.51l-1.576,-0.018c-0.871,3.836 -3.18,5.774 -6.92,5.822c-2.004,0.09 -3.006,0.054 -3.006,-0.107c0.186,-0.352 1.527,-1.025 4.021,-2.027c2.564,-1.629 4.109,-2.68 4.646,-3.145l0.143,-0.418L37.13,45.23c-1.783,-0.466 -2.787,-1.361 -3.008,-2.691V42.26c0,-2.262 0.555,-3.705 1.678,-4.338l0.84,-0.137c1.652,0 3.002,1.151 4.051,3.459c0.668,0.233 1.193,0.347 1.576,0.335V45.51z" id="path_23"/><path fill="#DD2C00" d="M35.782,26.283h1.383c1.678,0 2.518,0.627 2.518,1.886c-1.086,2.935 -2.404,4.491 -3.955,4.671l-1.832,0.244c-0.291,0 -0.41,-0.083 -0.369,-0.244c1.479,-0.781 2.863,-1.712 4.146,-2.779c-0.453,-0.424 -0.955,-0.633 -1.504,-0.633h-0.387l-1.504,0.125l-0.119,-0.125v-0.244C34.868,27.25 35.411,26.283 35.782,26.283z" id="path_24"/><path fill="#000001" d="M31.354,32.368h0.281c0.328,0 0.512,0.931 0.561,2.798v0.555c0,3.078 -0.932,4.617 -2.799,4.617c-1.771,-0.488 -2.654,-1.098 -2.654,-1.819h-0.137c-0.561,1.491 -1.449,2.237 -2.66,2.237l-1.396,-0.137c0.072,0.697 0.072,1.211 0,1.532c-0.465,2.798 -1.484,5.112 -3.061,6.95c-1.568,1.837 -3.627,2.779 -6.168,2.84h-0.561c-4.01,0 -6.848,-2.237 -8.525,-6.711l-0.143,-1.957v-0.561c0.281,-4.521 1.588,-7.272 3.914,-8.25l0.143,0.143v0.137l-2.1,3.496c-0.395,0.817 -0.674,1.844 -0.836,3.078c0,2.911 1.957,5.053 5.871,6.431l1.395,0.138h1.123c3.166,0 5.918,-1.725 8.25,-5.172v-0.138c-0.191,-1.354 -0.889,-2.894 -2.1,-4.617l-0.139,-0.698v-2.654l0.281,-0.28h0.137c1.098,1.587 2.445,2.374 4.057,2.374h0.137c1.236,0 2.166,-0.931 2.799,-2.791l0.137,-0.144h0.279l0.281,0.28v0.418l-0.137,0.561c0.555,0.841 1.301,1.258 2.236,1.258h0.137c0.842,0 1.26,-0.793 1.26,-2.373L31.354,32.368z" id="path_25"/><path fill="#000001" d="M22.585,26.074c0.58,0 1.605,0.699 3.072,2.101c0,0.466 -0.555,1.491 -1.676,3.072H23.7c-0.578,0 -1.467,-0.555 -2.654,-1.677v-0.137C21.046,28.873 21.56,27.751 22.585,26.074z" id="path_26"/><path fill="#000001" d="M27.62,25.377c2.326,1.002 3.49,1.795 3.49,2.374c-0.137,0.448 -0.787,1.426 -1.957,2.941c-1.557,-0.608 -2.678,-1.307 -3.352,-2.101C26.29,27.029 26.892,25.961 27.62,25.377z" id="path_27"/><path fill="#000001" d="M24.263,21.32c2.141,0.889 3.215,1.635 3.215,2.237l-1.82,2.798h-0.137c-0.395,0 -1.467,-0.561 -3.215,-1.677C23.165,22.441 23.821,21.32 24.263,21.32z" id="path_28"/><path fill="#000001" d="M27.335,50.664c0.143,-0.077 0.184,0.048 0.125,0.389c-0.793,1.861 -2.012,3.161 -3.65,3.895l-6.031,3.025c-0.258,-0.072 -0.305,-0.281 -0.145,-0.627c0.807,-1.551 1.355,-2.47 1.646,-2.762L27.335,50.664z" id="path_29"/></svg>