<svg id="vector" xmlns="http://www.w3.org/2000/svg" width="75" height="67" viewBox="0 0 83 73"><path fill="#213e95" d="M72.588,27.957c0.313,0 0.625,1.045 0.938,3.122l1.404,3.122l-0.626,3.588l0.466,8.74v1.397c-0.207,3.569 -0.726,5.646 -1.558,6.245l-0.152,-0.153l0.152,-2.343c0,-2.103 -0.679,-8.813 -2.03,-20.122C71.835,29.155 72.301,27.957 72.588,27.957z" id="path_0"/><path fill="#213e95" d="M77.247,18.831c0.16,-0.092 0.207,0.054 0.14,0.433c-0.885,2.077 -2.245,3.528 -4.074,4.346l-6.73,3.376c-0.287,-0.08 -0.339,-0.313 -0.16,-0.706c0.899,-1.73 1.511,-2.755 1.837,-3.082L77.247,18.831z" id="path_1"/><path fill="#000001" d="M63.075,37.496c0.88,0 2.077,0.727 3.588,2.183v0.313c-1.018,2.183 -1.691,3.275 -2.03,3.275l-3.588,-2.024h-0.16c-1.012,1.738 -1.685,2.677 -2.024,2.802h-0.16c-2.282,-1.011 -3.426,-1.79 -3.426,-2.336c0.831,-2.29 1.556,-3.435 2.182,-3.435l3.742,2.03C61.798,39.08 62.422,38.148 63.075,37.496z" id="path_2"/><path fill="#000001" d="M59.015,32.663c1.018,0 2.157,0.878 3.434,2.649c-0.339,0.805 -1.018,1.743 -2.03,2.809h-0.312c-0.907,-0.207 -1.897,-0.779 -2.962,-1.717v-0.466C57.225,35.105 57.843,34.015 59.015,32.663z" id="path_3"/><path fill="#000001" d="M48.97,49.724h0.06c2.417,-0.107 4.08,-1.271 4.993,-3.508c0,-0.313 0.207,-0.573 0.626,-0.786h0.312c0.207,0 0.314,0.16 0.314,0.473l-0.16,0.933c0.886,1.564 1.824,2.343 2.808,2.343h0.778c1.352,0 2.397,-1.352 3.122,-4.054h0.16c0.154,0.021 0.413,0.646 0.78,1.871c0.886,0.779 1.763,1.244 2.648,1.404c1.04,0 1.564,-0.625 1.564,-1.87c0.102,-1.977 0.306,-2.969 0.62,-2.969c0.419,0.885 0.626,1.978 0.626,3.275c0,3.854 -0.94,5.777 -2.81,5.777c-1.457,0 -2.648,-0.731 -3.588,-2.19h-0.312c-0.646,2.084 -1.69,3.123 -3.122,3.123h-0.152c-1.271,0 -2.73,-0.985 -4.368,-2.962c-1.376,2.39 -2.941,3.588 -4.678,3.588h-0.22V49.724z" id="path_4"/><path fill="#000001" d="M58.37,22.365h1.544c1.87,0 2.808,0.699 2.808,2.104c-1.211,3.274 -2.681,5.012 -4.413,5.21l-2.043,0.273c-0.326,0 -0.458,-0.093 -0.412,-0.273c1.65,-0.872 3.194,-1.909 4.625,-3.101c-0.507,-0.474 -1.064,-0.706 -1.677,-0.706H58.37l-1.677,0.14l-0.134,-0.14v-0.273C57.352,23.444 57.956,22.365 58.37,22.365z" id="path_5"/><path fill="#000001" d="M38.566,36.837c0.646,0 1.791,0.778 3.428,2.336c0,0.519 -0.618,1.663 -1.87,3.434H39.81c-0.651,0 -1.636,-0.626 -2.962,-1.877v-0.153C36.848,39.952 37.421,38.708 38.566,36.837z" id="path_6"/><path fill="#000001" d="M44.179,36.051c2.601,1.118 3.9,2.003 3.9,2.656c-0.154,0.492 -0.879,1.583 -2.184,3.274c-1.743,-0.679 -2.987,-1.458 -3.74,-2.343C42.7,37.902 43.373,36.703 44.179,36.051z" id="path_7"/><path fill="#000001" d="M35.811,49.724c1.111,0.013 1.798,-0.007 2.071,-0.061c2.342,-0.712 3.939,-2.23 4.799,-4.54c0.125,-0.446 0.384,-0.499 0.778,-0.16c0.207,0.181 0.367,0.913 0.466,2.185c1.418,1.91 3.188,2.769 5.305,2.576h0.413v4.446h-0.099c-3.315,-0.153 -5.759,-1.665 -7.336,-4.526h-0.152c-1.105,2.329 -2.563,3.76 -4.366,4.293c-0.546,0.153 -1.172,0.233 -1.878,0.233V49.724z" id="path_8"/><path fill="#000001" d="M47.866,24.742c0.16,-0.093 0.205,0.054 0.139,0.433c-0.886,2.077 -2.243,3.527 -4.074,4.347l-6.73,3.375c-0.285,-0.08 -0.339,-0.313 -0.16,-0.706c0.899,-1.73 1.511,-2.756 1.839,-3.082L47.866,24.742z" id="path_9"/><path fill="#213e95" d="M35.85,54.17c-3.029,0.179 -5.232,-1.219 -6.609,-4.194c-0.665,-1.105 -1.285,-8.553 -1.87,-22.346v-0.313c0.386,-2.29 0.958,-3.435 1.71,-3.435l0.786,-0.152c0.958,0 2.417,0.312 4.367,0.931v0.313c-0.107,0.313 -0.419,0.473 -0.938,0.473h-2.65c-0.546,0 -1.065,0.306 -1.564,0.931c0.485,11.976 1.191,18.911 2.129,20.808c0.932,1.898 2.484,2.744 4.64,2.538V54.17z" id="path_10"/><path fill="#DD2C00" d="M12.192,33.482h0.314c1.065,0.233 2.209,0.852 3.434,1.871v0.153c-0.706,2.137 -1.324,3.274 -1.87,3.434c-1.591,-0.312 -2.783,-0.832 -3.588,-1.557v-0.16C10.482,35.998 11.056,34.752 12.192,33.482z" id="path_11"/><path fill="#DD2C00" d="M17.971,32.077h0.154c1.065,0.153 2.262,0.879 3.588,2.183v0.153l-1.872,3.275c-2.496,-0.805 -3.746,-1.477 -3.746,-2.023C16.9,33.269 17.526,32.077 17.971,32.077z" id="path_12"/><path fill="#DD2C00" d="M13.205,49.724c4.087,0.039 6.371,-0.726 6.87,-2.303c0,-0.546 -0.519,-1.897 -1.564,-4.055l0.472,-4.053h0.306c1.357,2.336 2.03,4.679 2.03,7.016v1.404c0,0.939 -0.226,1.924 -0.673,2.956c-0.444,1.032 -1.137,1.904 -2.063,2.603c-0.932,0.705 -2.723,0.998 -5.378,0.879V49.724z" id="path_13"/><path fill="#f06022" d="M23.404,23.983l0.158,0.14v0.427c-0.811,1.73 -1.937,2.941 -3.374,3.647c-4.474,2.43 -6.956,3.649 -7.45,3.649c-0.185,0 -0.279,-0.147 -0.279,-0.433c0.433,-1.652 1.371,-2.769 2.808,-3.355l8.001,-4.074H23.404z" id="path_14"/><path fill="#f06022" d="M22.292,20.476c0.18,0 0.271,0.133 0.271,0.406c-0.519,1.511 -2.055,2.869 -4.618,4.08l-5.911,3.235l-0.134,-0.14v-0.153c0.56,-1.978 1.445,-3.195 2.669,-3.648l6.59,-3.375L22.292,20.476z" id="path_15"/><path fill="#000001" d="M14.064,54.17c-3.028,0.179 -5.232,-1.219 -6.611,-4.194c-0.665,-1.105 -1.285,-8.553 -1.87,-22.346v-0.313c0.386,-2.29 0.959,-3.435 1.71,-3.435L8.08,23.73c0.958,0 2.416,0.312 4.366,0.931v0.313c-0.107,0.313 -0.419,0.473 -0.938,0.473h-2.65c-0.544,0 -1.064,0.306 -1.564,0.931c0.486,11.976 1.192,18.911 2.13,20.808c0.932,1.898 2.484,2.744 4.641,2.538V54.17z" id="path_16"/></svg>