<svg id="vector" xmlns="http://www.w3.org/2000/svg" width="75" height="67" viewBox="0 0 83 73"><path fill="#000001" d="M51.787,49.621c0.181,0.012 0.374,0.02 0.586,0.02h1.478c1.565,-0.26 2.756,-0.807 3.588,-1.637l-1.87,-14.824c0.465,-2.811 0.885,-4.207 1.244,-4.207l2.03,4.68c0,0.725 -0.259,1.816 -0.779,3.273l0.779,8.422v2.342c-0.585,2.482 -1.371,4.221 -2.356,5.207c-0.746,0.791 -1.617,1.191 -2.636,1.191h-1.324c-0.259,0 -0.506,-0.008 -0.739,-0.021V49.621z" id="path_0"/><path fill="#000001" d="M57.066,19.98h1.543c1.871,0 2.809,0.697 2.809,2.102c-1.211,3.275 -2.683,5.014 -4.413,5.213l-2.044,0.273c-0.326,0 -0.459,-0.094 -0.413,-0.273c1.651,-0.871 3.195,-1.91 4.627,-3.102c-0.506,-0.473 -1.066,-0.707 -1.678,-0.707h-0.432l-1.678,0.141l-0.133,-0.141v-0.271C56.047,21.059 56.654,19.98 57.066,19.98z" id="path_1"/><path fill="#008046" d="M36.944,49.641c1.73,0.146 3.202,-0.027 4.427,-0.506l-0.646,-1.172c-0.606,-3.436 -0.333,-5.703 0.818,-6.814c1.159,-1.113 2.404,-1.625 3.728,-1.533c2.576,0.121 4.027,1.473 4.366,4.055v0.938c0,2.158 -0.312,3.51 -0.931,4.055c-0.393,0.406 0.492,0.746 2.649,1.018l0.505,-0.02c0.393,-0.014 0.839,-0.02 1.346,-0.02v4.447l-1.578,0.02c-2.936,-0.014 -5.159,-0.387 -6.671,-1.111c-2.077,0.725 -3.693,1.092 -4.832,1.092H39.5c-0.778,0 -1.63,0 -2.556,0V49.641L36.944,49.641zM42.461,45.234v0.313c0.652,1.119 1.638,1.898 2.962,2.336c0.885,-0.152 1.771,-0.518 2.656,-1.09c-0.393,-1.459 -1.691,-2.291 -3.9,-2.498C43.034,44.607 42.461,44.922 42.461,45.234z" id="path_2"/><path fill="#008046" d="M45.484,30.643c1.69,0.525 3.148,1.359 4.366,2.496v0.16c0,0.652 -0.673,1.691 -2.023,3.123c-0.42,0 -1.825,-0.52 -4.214,-1.566v0.16c-0.832,1.611 -1.351,2.443 -1.564,2.496c-1.352,-0.285 -2.496,-0.91 -3.429,-1.877c0.626,-2.596 1.145,-3.895 1.559,-3.895c0.339,0 1.59,0.619 3.747,1.871C43.926,33.066 44.446,32.074 45.484,30.643z" id="path_3"/><path fill="#008046" d="M49.265,21.031c0.16,-0.094 0.207,0.053 0.14,0.432c-0.885,2.078 -2.243,3.529 -4.073,4.348l-6.73,3.375c-0.287,-0.08 -0.339,-0.313 -0.16,-0.707c0.899,-1.729 1.511,-2.754 1.837,-3.08L49.265,21.031z" id="path_4"/><path fill="#DD2C00" d="M37.45,54.107c-1.991,-0.16 -3.788,-1.557 -5.406,-4.193c-2.389,2.908 -5.824,4.367 -10.29,4.367h-1.252c-4.833,0 -8.16,-2.078 -9.985,-6.238l-0.153,-0.939v-1.404c0,-1.504 0.672,-3.221 2.023,-5.145h0.16l0.313,0.313v0.779l-0.786,2.496c0,2.729 2.29,4.6 6.87,5.617l2.809,0.154c4.859,0 8.707,-1.664 11.542,-4.992c0.153,0 0.313,0.205 0.466,0.625l-0.153,1.092c0.532,1.963 1.81,2.949 3.841,2.963V54.107z" id="path_5"/><path fill="#DD2C00" d="M19.41,39.303h0.313c1.065,0.234 2.21,0.859 3.435,1.871v0.16c-0.706,2.129 -1.332,3.273 -1.877,3.434c-1.584,-0.313 -2.783,-0.832 -3.588,-1.564v-0.152C17.693,41.826 18.265,40.58 19.41,39.303z" id="path_6"/><path fill="#DD2C00" d="M25.181,37.898h0.16c1.065,0.16 2.263,0.885 3.588,2.184v0.16l-1.877,3.275c-2.498,-0.807 -3.742,-1.484 -3.742,-2.031C24.117,39.098 24.743,37.898 25.181,37.898z" id="path_7"/><path fill="#DD2C00" d="M22.273,26.67h1.544c1.87,0 2.809,0.697 2.809,2.104c-1.212,3.275 -2.683,5.012 -4.413,5.211l-2.044,0.273c-0.327,0 -0.459,-0.094 -0.412,-0.273c1.649,-0.871 3.194,-1.91 4.625,-3.102c-0.506,-0.473 -1.065,-0.705 -1.677,-0.705h-0.433l-1.677,0.139l-0.134,-0.139v-0.273C21.255,27.748 21.86,26.67 22.273,26.67z" id="path_8"/><path fill="#213e95" d="M67.807,27.873c0.313,0 0.626,1.047 0.939,3.123l1.405,3.121l-0.626,3.588l0.466,8.74v1.398c-0.207,3.566 -0.726,5.645 -1.558,6.244l-0.153,-0.154l0.153,-2.342c0,-2.105 -0.679,-8.814 -2.03,-20.123C67.055,29.072 67.521,27.873 67.807,27.873z" id="path_9"/><path fill="#213e95" d="M72.466,18.748c0.16,-0.094 0.207,0.053 0.14,0.434c-0.884,2.076 -2.243,3.527 -4.073,4.346l-6.73,3.375c-0.287,-0.08 -0.339,-0.313 -0.16,-0.705c0.898,-1.73 1.512,-2.756 1.837,-3.082L72.466,18.748z" id="path_10"/></svg>