<svg id="vector" xmlns="http://www.w3.org/2000/svg" width="75" height="67" viewBox="0 0 83 73"><path fill="#000001" d="M71.791,49.555h0.246c0.836,0.184 1.734,0.674 2.697,1.475v0.119c-0.555,1.674 -1.041,2.574 -1.469,2.699c-1.25,-0.244 -2.188,-0.654 -2.818,-1.229v-0.121C70.447,51.537 70.896,50.559 71.791,49.555z" id="path_0"/><path fill="#000001" d="M76.328,48.451h0.121c0.838,0.125 1.779,0.695 2.82,1.715v0.127l-1.471,2.572c-1.961,-0.633 -2.943,-1.166 -2.943,-1.596C75.488,49.393 75.98,48.451 76.328,48.451z" id="path_1"/><path fill="#000001" d="M70.703,43.947c3.211,0.033 5.004,-0.568 5.398,-1.811c0,-0.428 -0.41,-1.488 -1.232,-3.184l0.373,-3.186h0.24c1.066,1.836 1.596,3.678 1.596,5.514v1.104c0,0.736 -0.178,1.512 -0.529,2.32c-0.352,0.811 -0.895,1.496 -1.621,2.045c-0.732,0.555 -2.139,0.785 -4.225,0.691V43.947z" id="path_2"/><path fill="#000001" d="M79.896,27.322c0.125,-0.072 0.162,0.043 0.109,0.34c-0.695,1.633 -1.762,2.771 -3.199,3.416l-5.289,2.65c-0.225,-0.063 -0.268,-0.246 -0.125,-0.555c0.707,-1.359 1.188,-2.164 1.443,-2.422L79.896,27.322z" id="path_3"/><path fill="#0992d1" d="M71.283,47.457c-2.104,-0.141 -4.012,-1.293 -5.727,-3.445h-0.125c-0.734,4.246 -2.369,6.369 -4.9,6.375H60.16c-1.1,-0.006 -2.166,-0.984 -3.186,-2.945c-0.816,-2.756 -1.225,-4.844 -1.225,-6.25v-0.982c0,-0.613 0.119,-0.941 0.365,-0.979c0.346,0.184 0.76,1.521 1.234,4.021c0.477,2.494 1.455,3.688 2.936,3.578c2.861,-0.471 4.373,-2.109 4.533,-4.906l-1.104,-3.797v-1.35c0.043,-1.637 0.205,-2.451 0.492,-2.451c0.162,0.365 0.289,0.736 0.367,1.102l1.715,5.393c1.348,2.186 3.018,3.223 4.994,3.096V47.457z" id="path_4"/><path fill="#0992d1" d="M62.979,24.844h1.213c1.471,0 2.207,0.549 2.207,1.652c-0.951,2.572 -2.107,3.938 -3.467,4.096l-1.605,0.213c-0.258,0 -0.363,-0.072 -0.326,-0.213c1.297,-0.686 2.512,-1.502 3.637,-2.438c-0.398,-0.371 -0.838,-0.555 -1.318,-0.555h-0.34l-1.318,0.109L61.557,27.6v-0.215C62.178,25.689 62.654,24.844 62.979,24.844z" id="path_5"/><path fill="#008046" d="M45.234,31.307c1.713,0.857 2.572,1.596 2.572,2.207c-0.816,1.611 -1.307,2.432 -1.471,2.453H46.09c-1.254,-0.633 -2.033,-1.207 -2.326,-1.715C44.047,33.32 44.537,32.338 45.234,31.307z" id="path_6"/><path fill="#008046" d="M38.549,43.947h1.412c1.492,-0.203 3.861,-0.758 7.107,-1.652V42.17c-2.959,-1.309 -4.838,-1.961 -5.637,-1.961c-1.082,0 -1.814,0.611 -2.209,1.84l-0.363,0.246c-0.162,0 -0.246,-0.125 -0.246,-0.371c0.408,-2.447 1.512,-3.676 3.309,-3.676h0.613c0.758,0 3.33,0.857 7.725,2.572l3.309,0.246l0.242,0.371c-0.059,0.549 -0.551,1.611 -1.471,3.186h-0.365l-0.492,-0.125h-0.611c-6.375,1.881 -10.094,2.859 -11.156,2.943h-1.166V43.947z" id="path_7"/><path fill="#008046" d="M45.971,21.424c1.254,0 1.883,0.773 1.883,2.316c0,2.457 -2.098,4.555 -6.297,6.279c-0.602,0.184 -0.674,-0.035 -0.213,-0.658c0.115,-0.234 1.102,-0.973 2.969,-2.207v-0.104c-0.805,-0.33 -1.209,-1.031 -1.209,-2.104c0.535,-2.348 1.381,-3.523 2.543,-3.523H45.971L45.971,21.424zM44.1,24.074c0,0.654 0.553,1.057 1.656,1.213h0.215c0.408,0 0.67,-0.15 0.781,-0.443c0,-0.664 -0.482,-1.182 -1.439,-1.549C44.893,23.295 44.49,23.557 44.1,24.074z" id="path_8"/><path fill="#000001" d="M29.869,43.947c0.02,0 0.047,0 0.072,0c1.961,-0.119 3.086,-0.998 3.373,-2.635c-0.736,-4.9 -1.104,-8.336 -1.104,-10.299c0,-0.752 0.33,-1.734 0.982,-2.938l0.121,0.119l0.246,0.246l-0.125,0.857c0.104,5.508 0.799,9.775 2.086,12.809c0.492,1.104 1.695,1.721 3.615,1.84v3.494c-2.637,-0.043 -4.41,-1.428 -5.33,-4.168h-0.125c-0.85,2.744 -2.121,4.137 -3.813,4.168V43.947z" id="path_9"/><path fill="#000001" d="M33.959,19.154c1.254,0 1.881,0.773 1.881,2.316c0,2.457 -2.096,4.555 -6.297,6.281c-0.602,0.182 -0.674,-0.037 -0.213,-0.66c0.113,-0.236 1.102,-0.973 2.971,-2.207v-0.104c-0.807,-0.33 -1.209,-1.031 -1.209,-2.104c0.533,-2.348 1.381,-3.523 2.543,-3.523H33.959L33.959,19.154zM32.086,21.805c0,0.654 0.555,1.057 1.658,1.213h0.215c0.406,0 0.668,-0.15 0.777,-0.443c0,-0.666 -0.48,-1.182 -1.438,-1.549C32.879,21.025 32.479,21.287 32.086,21.805z" id="path_10"/><path fill="#DD2C00" d="M30.203,47.441l-1.381,-0.016c-0.764,3.363 -2.787,5.063 -6.066,5.104c-1.758,0.078 -2.637,0.047 -2.637,-0.094c0.162,-0.309 1.34,-0.898 3.525,-1.777c2.25,-1.43 3.604,-2.348 4.074,-2.758l0.125,-0.365l-2.145,-0.34c-1.564,-0.408 -2.441,-1.193 -2.635,-2.359v-0.244c0,-1.982 0.486,-3.248 1.469,-3.803l0.736,-0.121c1.449,0 2.631,1.01 3.553,3.033c0.586,0.205 1.047,0.305 1.381,0.295V47.441z" id="path_11"/><path fill="#DD2C00" d="M24.518,30.586h1.213c1.471,0 2.207,0.549 2.207,1.652c-0.951,2.572 -2.105,3.938 -3.467,4.096l-1.605,0.213c-0.258,0 -0.359,-0.072 -0.322,-0.213c1.295,-0.686 2.51,-1.502 3.633,-2.438c-0.396,-0.371 -0.838,-0.555 -1.316,-0.555h-0.342l-1.318,0.109l-0.104,-0.109v-0.215C23.719,31.432 24.193,30.586 24.518,30.586z" id="path_12"/><path fill="#000001" d="M10.57,40.088h0.246c1.145,0.262 2.164,0.879 3.064,1.836v0.246c-0.08,0.652 -0.57,1.512 -1.471,2.572c-2.123,-0.711 -3.184,-1.328 -3.184,-1.836C9.734,41.438 10.182,40.496 10.57,40.088z" id="path_13"/><path fill="#000001" d="M17.07,37.637h0.242c0.285,0 0.982,1.84 2.086,5.516l0.119,0.486c0,2.883 -0.695,4.969 -2.08,6.256c-1.963,2.123 -4.289,3.184 -6.988,3.184c-2.205,-0.49 -3.635,-0.977 -4.289,-1.469c-2.127,-1.82 -3.189,-4.068 -3.189,-6.742c0,-2.248 0.982,-4.371 2.945,-6.375l0.119,-0.119h0.246l0.246,0.24c0,0.209 -0.568,1.104 -1.717,2.699c-0.328,0.57 -0.531,1.35 -0.611,2.326c0,1.904 0.979,3.537 2.941,4.906c1.918,0.736 3.225,1.104 3.922,1.104c1.756,0 3.836,-0.779 6.25,-2.328c0.982,-0.861 1.473,-1.391 1.473,-1.594l-1.715,-4.781l-0.125,-0.857L17.07,37.637z" id="path_14"/><path fill="#000001" d="M15.041,27.447c0.125,-0.072 0.162,0.041 0.109,0.34c-0.695,1.633 -1.762,2.773 -3.199,3.416l-5.287,2.65c-0.227,-0.063 -0.268,-0.244 -0.127,-0.555c0.705,-1.359 1.188,-2.164 1.443,-2.42L15.041,27.447z" id="path_15"/></svg>