<svg id="vector" xmlns="http://www.w3.org/2000/svg" width="75" height="67" viewBox="0 0 83 73"><path fill="#000001" d="M66.045,41.382c0.213,0 0.434,0 0.665,0h0.16c1.944,-0.12 3.715,-1.738 5.299,-4.852c1.718,-2.604 3.488,-3.901 5.307,-3.901c2.289,0 3.434,1.452 3.434,4.367v0.778c0,1.432 -0.573,3.302 -1.718,5.618L78.1,44.171c-0.966,0 -3.194,-0.679 -6.709,-2.03c-1.064,1.598 -1.897,2.57 -2.496,2.91c-0.913,0.632 -1.845,0.898 -2.811,0.778h-0.039V41.382L66.045,41.382zM73.887,38.087v0.153c2.703,1.045 4.319,1.564 4.839,1.564c0.206,0 0.313,-0.16 0.313,-0.472c-0.601,-1.558 -1.591,-2.336 -2.97,-2.336C75.111,36.996 74.378,37.362 73.887,38.087z" id="path_0"/><path fill="#000001" d="M78.918,20.395c0.16,-0.094 0.207,0.052 0.141,0.433c-0.886,2.077 -2.244,3.528 -4.074,4.346l-6.729,3.375c-0.287,-0.08 -0.339,-0.312 -0.16,-0.705c0.899,-1.73 1.512,-2.755 1.837,-3.082L78.918,20.395z" id="path_1"/><path fill="#008046" d="M45.497,39.917c1.277,0 2.209,0 2.808,0h0.626c1.87,-0.246 4.667,-1.045 8.388,-2.396c-1.252,-1.044 -3.175,-1.823 -5.771,-2.342c-1.538,0 -2.576,0.726 -3.122,2.183c-0.193,0.432 -0.366,0.545 -0.521,0.339c-0.146,-0.2 -0.186,-0.466 -0.105,-0.805c0.938,-3.148 2.183,-4.719 3.748,-4.719h1.091c1.039,0 2.915,0.586 5.626,1.757c2.708,1.165 5.045,1.637 7.009,1.405c0.245,0 0.353,0.152 0.312,0.466c-0.419,2.596 -1.197,3.9 -2.342,3.9l-0.78,0.153v0.313c0.395,0.819 1.543,1.233 4.757,1.193v4.426c-4.653,0.247 -6.326,-1.584 -6.313,-5.458c-1.666,0.246 -3.922,1.018 -6.771,2.33c-2.849,1.305 -5.724,1.863 -8.639,1.684V39.917z" id="path_2"/><path fill="#008046" d="M53.278,23.829c2.182,1.092 3.281,2.03 3.281,2.809c-1.045,2.051 -1.665,3.096 -1.878,3.122H54.37c-1.6,-0.805 -2.584,-1.538 -2.963,-2.183C51.772,26.392 52.398,25.141 53.278,23.829z" id="path_3"/><path fill="#008046" d="M53.432,13.731h1.543c1.872,0 2.81,0.699 2.81,2.104c-1.211,3.274 -2.683,5.012 -4.413,5.211l-2.043,0.272c-0.326,0 -0.461,-0.093 -0.414,-0.272c1.652,-0.873 3.196,-1.91 4.628,-3.102c-0.507,-0.473 -1.066,-0.706 -1.679,-0.706h-0.432l-1.679,0.14l-0.133,-0.14v-0.273C52.412,14.81 53.019,13.731 53.432,13.731z" id="path_4"/><path fill="#DD2C00" d="M35.998,27.031c0.646,0 1.79,0.778 3.428,2.336c0,0.519 -0.62,1.664 -1.871,3.435h-0.313c-0.652,0 -1.639,-0.625 -2.963,-1.876v-0.154C34.279,30.146 34.853,28.901 35.998,27.031z" id="path_5"/><path fill="#DD2C00" d="M41.608,26.245c2.604,1.12 3.902,2.004 3.902,2.656c-0.154,0.493 -0.88,1.584 -2.185,3.275c-1.744,-0.679 -2.989,-1.458 -3.741,-2.343C40.131,28.096 40.803,26.897 41.608,26.245z" id="path_6"/><path fill="#DD2C00" d="M33.241,39.917c1.112,0.014 1.797,-0.006 2.07,-0.06c2.344,-0.712 3.941,-2.23 4.799,-4.54c0.127,-0.446 0.387,-0.5 0.779,-0.159c0.206,0.18 0.365,0.911 0.466,2.182c1.418,1.911 3.188,2.77 5.306,2.576h0.413v4.446h-0.102c-3.313,-0.152 -5.757,-1.663 -7.334,-4.526h-0.154c-1.104,2.33 -2.563,3.762 -4.366,4.294c-0.546,0.152 -1.172,0.232 -1.877,0.232V39.917z" id="path_7"/><path fill="#DD2C00" d="M40.99,12.068c1.597,0 2.396,0.985 2.396,2.948c0,3.128 -2.669,5.798 -8.014,7.995c-0.767,0.233 -0.859,-0.047 -0.273,-0.839c0.146,-0.299 1.404,-1.238 3.781,-2.808V19.23c-1.025,-0.42 -1.538,-1.313 -1.538,-2.676c0.678,-2.989 1.757,-4.486 3.234,-4.486H40.99L40.99,12.068zM38.607,15.442c0,0.832 0.704,1.345 2.109,1.543h0.273c0.519,0 0.851,-0.193 0.99,-0.565c0,-0.844 -0.612,-1.503 -1.83,-1.97C39.618,14.451 39.106,14.783 38.607,15.442z" id="path_8"/><path fill="#000001" d="M33.634,44.364l-1.757,-0.02c-0.972,4.281 -3.548,6.443 -7.722,6.497c-2.236,0.1 -3.355,0.06 -3.355,-0.12c0.207,-0.392 1.705,-1.145 4.487,-2.263c2.862,-1.817 4.586,-2.988 5.186,-3.507l0.159,-0.466l-2.729,-0.433c-1.99,-0.52 -3.108,-1.518 -3.354,-3.002v-0.313c0,-2.522 0.618,-4.134 1.87,-4.839l0.938,-0.153c1.845,0 3.349,1.285 4.521,3.861c0.745,0.259 1.331,0.386 1.757,0.373V44.364z" id="path_9"/><path fill="#000001" d="M26.399,22.911h1.544c1.87,0 2.809,0.699 2.809,2.104c-1.211,3.274 -2.683,5.012 -4.413,5.212l-2.044,0.272c-0.326,0 -0.459,-0.093 -0.412,-0.272c1.65,-0.873 3.195,-1.91 4.626,-3.102c-0.506,-0.473 -1.064,-0.706 -1.678,-0.706h-0.432l-1.679,0.139l-0.132,-0.139v-0.273C25.38,23.989 25.985,22.911 26.399,22.911z" id="path_10"/><path fill="#213e95" d="M18.65,31.271c2.376,0.261 3.62,1.512 3.721,3.762v0.725c-0.572,4.573 -1.558,6.863 -2.962,6.863h-0.153c-0.732,0 -2.603,-0.519 -5.618,-1.558c-1.324,3.069 -3.043,4.939 -5.152,5.612c-2.963,0.938 -4.779,1.404 -5.459,1.404H2.401c-0.232,-0.1 -0.332,-0.26 -0.306,-0.466c0.073,-0.233 1.425,-1.065 4.053,-2.496c4.681,-2.888 7.022,-5.332 7.022,-7.335c0.727,-2.782 1.766,-4.653 3.117,-5.611C16.992,31.637 17.777,31.338 18.65,31.271L18.65,31.271zM15.508,36.85c-0.025,0.066 -0.025,0.113 0,0.152l4.367,1.252c0.214,0.053 0.365,0 0.473,-0.16c0,-1.219 -0.992,-2.004 -2.969,-2.336h-0.153C16.6,35.758 16.027,36.117 15.508,36.85z" id="path_11"/><path fill="#f06022" d="M19.076,53.071l0.16,0.14v0.426c-0.806,1.731 -1.931,2.943 -3.376,3.648c-4.473,2.43 -6.956,3.647 -7.447,3.647c-0.18,0 -0.273,-0.146 -0.273,-0.433c0.427,-1.65 1.364,-2.77 2.809,-3.354l7.995,-4.074H19.076z" id="path_12"/><path fill="#f06022" d="M17.965,49.563c0.187,0 0.272,0.134 0.272,0.407c-0.519,1.51 -2.057,2.869 -4.619,4.081l-5.911,3.234l-0.133,-0.14v-0.153c0.559,-1.977 1.451,-3.195 2.669,-3.648l6.597,-3.375L17.965,49.563z" id="path_13"/></svg>