<svg id="vector" xmlns="http://www.w3.org/2000/svg" width="100" height="67" viewBox="0 0 171 73"><path fill="#213e95" d="M148.686,41.057h0.627c1.826,0 3.18,1.561 4.066,4.686l0.152,1.561c0.055,0.508 0.055,1.027 0,1.566c-0.467,1.9 -1.512,3.773 -3.125,5.621c-1.121,0.939 -3.668,1.666 -7.654,2.186c-0.467,-0.205 -0.732,-0.412 -0.779,-0.619c6.666,-3.619 10,-5.807 10,-6.566l0.152,-0.467l-0.152,-0.154l-1.408,0.467h-0.779c-2.813,0 -4.221,-0.992 -4.221,-2.967v-0.313c0.361,-3.234 1.148,-4.848 2.342,-4.848L148.686,41.057z" id="path_0"/><path fill="#213e95" d="M152.827,28.396c0.16,-0.094 0.205,0.053 0.139,0.434c-0.887,2.08 -2.246,3.533 -4.08,4.354l-6.74,3.379c-0.285,-0.08 -0.34,-0.313 -0.158,-0.707c0.898,-1.732 1.512,-2.76 1.84,-3.086L152.827,28.396z" id="path_1"/><path fill="#000001" d="M133.766,23.883c0.313,0 0.627,1.047 0.939,3.127l1.408,3.127l-0.627,3.594l0.465,8.752v1.4c-0.205,3.574 -0.725,5.654 -1.559,6.254l-0.154,-0.154l0.154,-2.346c0,-2.107 -0.68,-8.826 -2.033,-20.154C133.012,25.084 133.479,23.883 133.766,23.883z" id="path_2"/><path fill="#000001" d="M139.78,53.549c0.16,-0.086 0.207,0.055 0.139,0.434c-0.885,2.08 -2.246,3.533 -4.078,4.354l-6.74,3.381c-0.287,-0.08 -0.34,-0.314 -0.16,-0.701c0.9,-1.732 1.514,-2.76 1.84,-3.086L139.78,53.549z" id="path_3"/><path fill="#DD2C00" d="M119.114,35.449c5.313,1.9 7.965,4.248 7.965,7.033l0.16,0.934c-0.445,3.646 -1.646,5.467 -3.6,5.467c0,0.34 -2.6,0.76 -7.807,1.254l-0.16,-0.467c0,-2.607 0.467,-3.906 1.408,-3.906c5.205,-0.42 8.072,-1.047 8.592,-1.881c-1.793,-1.74 -4.139,-3.146 -7.033,-4.213l-0.152,-0.787C118.567,36.596 118.772,35.449 119.114,35.449z" id="path_4"/><path fill="#DD2C00" d="M118.639,28.104c1.281,0.213 2.527,0.994 3.754,2.346v0.314c-0.781,2.08 -1.354,3.119 -1.721,3.119c-2.5,-0.854 -3.746,-1.533 -3.746,-2.025C116.926,30.891 117.499,29.643 118.639,28.104z" id="path_5"/><path fill="#DD2C00" d="M124.874,18.203c0.16,-0.094 0.205,0.053 0.139,0.434c-0.887,2.08 -2.246,3.533 -4.08,4.354l-6.74,3.379c-0.285,-0.08 -0.34,-0.313 -0.158,-0.707c0.898,-1.732 1.512,-2.76 1.84,-3.086L124.874,18.203z" id="path_6"/><path fill="#213e95" d="M108.26,23.883c0.313,0 0.627,1.047 0.939,3.127l1.406,3.127l-0.627,3.594l0.467,8.752v1.4c-0.207,3.574 -0.727,5.654 -1.559,6.254l-0.154,-0.154l0.154,-2.346c0,-2.107 -0.682,-8.826 -2.035,-20.154C107.506,25.084 107.973,23.883 108.26,23.883z" id="path_7"/><path fill="#000001" d="M92.206,45.664c0.182,0.012 0.375,0.02 0.588,0.02h1.479c1.568,-0.26 2.762,-0.807 3.594,-1.641l-1.873,-14.846c0.467,-2.814 0.887,-4.215 1.246,-4.215l2.033,4.688c0,0.727 -0.26,1.82 -0.779,3.279l0.779,8.434v2.348c-0.586,2.486 -1.373,4.227 -2.359,5.213c-0.746,0.793 -1.619,1.193 -2.641,1.193h-1.326c-0.26,0 -0.506,-0.008 -0.74,-0.02V45.664z" id="path_8"/><path fill="#000001" d="M97.493,15.977h1.547c1.873,0 2.813,0.699 2.813,2.107c-1.213,3.279 -2.686,5.02 -4.42,5.219l-2.045,0.273c-0.328,0 -0.461,-0.094 -0.414,-0.273c1.652,-0.873 3.199,-1.912 4.633,-3.105c-0.506,-0.475 -1.066,-0.707 -1.68,-0.707h-0.434l-1.68,0.139L95.68,19.49v-0.273C96.473,17.057 97.081,15.977 97.493,15.977z" id="path_9"/><path fill="#DD2C00" d="M76.381,45.678l2.291,0.006c1.066,0.002 2.193,-0.414 3.381,-1.24c1.186,-0.826 1.879,-1.867 2.094,-3.113l0.152,-0.16h0.154c0.186,0 0.445,0.572 0.785,1.721c1.48,2.033 3.566,2.957 6.248,2.813c0.18,-0.01 0.58,-0.006 0.76,-0.02v4.473c-0.18,0.014 -0.582,0.041 -0.76,0.02l-2.188,-0.252c-0.232,2.08 -0.914,3.119 -2.033,3.127h-0.313c-2.08,-0.395 -3.121,-1.121 -3.121,-2.193l0.467,-2.814c-0.367,-0.414 -0.727,-0.619 -1.094,-0.619c-1.172,1.832 -4.736,2.734 -6.824,2.707V45.678z" id="path_10"/><path fill="#DD2C00" d="M90.7,26.17c0.16,-0.094 0.207,0.053 0.141,0.434c-0.887,2.08 -2.248,3.533 -4.08,4.354l-6.74,3.379c-0.287,-0.08 -0.34,-0.313 -0.16,-0.707c0.9,-1.732 1.514,-2.76 1.84,-3.086L90.7,26.17z" id="path_11"/><path fill="#000001" d="M76.86,50.137l-1.76,-0.02c-0.973,4.285 -3.553,6.453 -7.732,6.506c-2.24,0.1 -3.361,0.061 -3.361,-0.119c0.207,-0.395 1.707,-1.146 4.494,-2.268c2.867,-1.82 4.592,-2.992 5.193,-3.514l0.16,-0.467l-2.734,-0.432c-1.994,-0.521 -3.113,-1.521 -3.359,-3.008v-0.313c0,-2.527 0.619,-4.141 1.873,-4.848l0.939,-0.152c1.848,0 3.354,1.285 4.527,3.865c0.746,0.26 1.334,0.387 1.76,0.373V50.137z" id="path_12"/><path fill="#000001" d="M69.614,28.65h1.547c1.873,0 2.813,0.699 2.813,2.105c-1.213,3.281 -2.686,5.021 -4.42,5.221l-2.047,0.273c-0.326,0 -0.459,-0.094 -0.412,-0.273c1.652,-0.873 3.199,-1.914 4.633,-3.107c-0.508,-0.473 -1.066,-0.705 -1.68,-0.705h-0.434l-1.68,0.139l-0.135,-0.139v-0.273C68.592,29.73 69.2,28.65 69.614,28.65z" id="path_13"/><path fill="#DD2C00" d="M58.598,18.85c0.367,-0.26 0.52,-0.152 0.467,0.314c-0.414,1.533 -1.193,2.992 -2.34,4.373c-0.547,0.967 -0.887,1.646 -1.021,2.053c-0.125,0.4 -0.26,0.967 -0.387,1.699c0.154,1.455 0.729,2.188 1.721,2.188h0.154c0.232,0 0.393,-0.467 0.467,-1.406l0.16,-0.16h0.619c0.732,0.42 1.1,1.047 1.1,1.879v0.314c-0.6,2.393 -1.434,3.594 -2.5,3.594h-0.313c-1.693,0 -2.688,-1.094 -2.975,-3.287v-0.934C53.75,25.723 55.372,22.184 58.598,18.85z" id="path_14"/><path fill="#213e95" d="M37.141,35.449c5.313,1.9 7.967,4.248 7.967,7.033l0.16,0.934c-0.447,3.646 -1.646,5.467 -3.6,5.467c0,0.34 -2.6,0.76 -7.807,1.254l-0.16,-0.467c0,-2.607 0.467,-3.906 1.406,-3.906c5.207,-0.42 8.074,-1.047 8.594,-1.881c-1.793,-1.74 -4.141,-3.146 -7.033,-4.213l-0.154,-0.787C36.594,36.596 36.801,35.449 37.141,35.449z" id="path_15"/><path fill="#213e95" d="M43.307,24.529c0.16,-0.092 0.207,0.055 0.141,0.434c-0.887,2.08 -2.246,3.533 -4.08,4.354l-6.74,3.381c-0.287,-0.08 -0.34,-0.314 -0.16,-0.707c0.9,-1.734 1.514,-2.76 1.84,-3.088L43.307,24.529z" id="path_16"/><path fill="#000001" d="M19.547,26.17c1.221,0.367 2.475,1.146 3.748,2.348v0.152c-1.168,2.061 -1.848,3.1 -2.027,3.127h-0.473c-0.881,-0.133 -1.82,-0.701 -2.814,-1.721v-0.152C18.088,28.697 18.608,27.449 19.547,26.17z" id="path_17"/><path fill="#000001" d="M25.481,26.482c1.146,0.262 2.293,0.941 3.439,2.035v0.152c0,0.574 -0.625,1.613 -1.873,3.127h-0.467c-0.732,0 -1.666,-0.574 -2.813,-1.721C24.055,28.463 24.627,27.264 25.481,26.482z" id="path_18"/><path fill="#000001" d="M28.042,34.043l0.16,0.467c-0.213,0.887 -1.146,1.926 -2.814,3.127c1.668,1.354 2.5,3.334 2.5,5.939v0.154c0,4.273 -1.773,6.406 -5.313,6.406c-2.813,-0.547 -4.221,-1.953 -4.221,-4.221v-0.152c0.107,-1.953 0.887,-4.041 2.348,-6.254c-1.354,-0.414 -2.033,-0.986 -2.033,-1.721c0,-1.953 0.152,-3.146 0.467,-3.592c1.406,0.393 2.973,1.172 4.686,2.346h0.16L28.042,34.043L28.042,34.043zM21.948,40.289c-1.246,1.254 -1.873,2.141 -1.873,2.66c0,1.613 1.146,2.555 3.439,2.814c1.193,-0.16 2.24,-0.574 3.121,-1.254C25.622,42.764 24.061,41.363 21.948,40.289z" id="path_19"/><path fill="#000001" d="M23.708,11.283c1.6,0 2.4,0.986 2.4,2.953c0,3.133 -2.674,5.807 -8.027,8.006c-0.766,0.234 -0.859,-0.045 -0.273,-0.84c0.148,-0.299 1.408,-1.24 3.787,-2.813v-0.133c-1.027,-0.42 -1.539,-1.314 -1.539,-2.68c0.68,-2.994 1.76,-4.494 3.24,-4.494H23.708L23.708,11.283zM21.321,14.664c0,0.832 0.707,1.346 2.113,1.545h0.273c0.52,0 0.854,-0.193 0.994,-0.566c0,-0.846 -0.613,-1.506 -1.834,-1.973C22.334,13.67 21.821,14.004 21.321,14.664z" id="path_20"/><path fill="#DD2C00" d="M55.731,37.346c1.826,0 3.66,0.908 5.504,2.734c0.176,0.311 0.109,0.555 -0.211,0.74c-0.318,0.178 -0.613,0.143 -0.875,-0.127c-0.791,-0.705 -1.91,-1.059 -3.357,-1.059h-0.615c-0.605,0 -1.313,0.26 -2.119,0.766c0,1.48 1.775,2.389 5.326,2.734l3.525,-1.381l0.145,0.473c0,1.656 -2.037,3.139 -6.109,4.434l-5.646,3.207l-0.59,0.15c-0.236,0.051 -0.387,-0.049 -0.471,-0.293c0,-0.893 1.27,-2.113 3.82,-3.678v-0.145c-1.229,-0.682 -1.852,-1.648 -1.852,-2.91C52.786,39.23 53.956,37.346 55.731,37.346z" id="path_21"/></svg>