<svg id="vector" xmlns="http://www.w3.org/2000/svg" width="75" height="67" viewBox="0 0 83 73"><path fill="#008046" d="M51.922,44.338h0.604c2.058,-0.22 3.789,-1.465 5.193,-3.728c0.204,-0.467 0.411,-0.726 0.618,-0.779h0.16l0.466,0.473c-0.066,0.594 -0.166,1.012 -0.313,1.244c0.911,1.664 2.003,2.498 3.274,2.498l0.16,0.152c2.262,-4.992 4.805,-7.489 7.641,-7.489c2.264,0 3.928,0.938 4.992,2.81v0.938c0,5.718 -3.533,8.581 -10.61,8.581l-2.337,-0.154c-0.725,1.971 -1.197,2.962 -1.403,2.962l-0.152,-0.153v-0.16l0.466,-2.648v-0.313c-1.538,-0.859 -2.73,-2.057 -3.588,-3.588c-0.806,2.636 -2.529,3.907 -5.172,3.801V44.338L51.922,44.338zM63.642,44.511h0.314c3.533,0 6.551,-0.52 9.047,-1.558c0,-1.118 -1.04,-1.897 -3.116,-2.343h-0.626C66.765,40.61 64.895,41.915 63.642,44.511z" id="path_0"/><path fill="#008046" d="M63.178,30.007c2.596,0.831 3.9,1.504 3.9,2.022v0.313c-0.833,2.29 -1.512,3.436 -2.03,3.436c-2.104,-0.859 -3.302,-1.432 -3.588,-1.719v-0.313C61.879,32.189 62.444,30.938 63.178,30.007z" id="path_1"/><path fill="#008046" d="M68.477,20.115c0.16,-0.094 0.205,0.053 0.139,0.432c-0.886,2.077 -2.243,3.529 -4.074,4.348l-6.729,3.374c-0.285,-0.08 -0.34,-0.312 -0.158,-0.705c0.896,-1.73 1.509,-2.755 1.837,-3.082L68.477,20.115z" id="path_2"/><path fill="#0992d1" d="M44.439,50.501c0.532,0 1.784,0.627 3.748,1.871c0,0.778 -0.626,2.03 -1.878,3.748c-2.496,-0.813 -3.741,-1.538 -3.741,-2.19C42.635,53.351 43.253,52.206 44.439,50.501z" id="path_3"/><path fill="#0992d1" d="M38.76,44.338c1.114,0.014 1.799,-0.007 2.071,-0.061c2.343,-0.712 3.941,-2.229 4.8,-4.539c0.127,-0.446 0.386,-0.5 0.777,-0.159c0.207,0.179 0.367,0.911 0.467,2.183c1.418,1.91 3.188,2.769 5.306,2.576h0.412v4.446h-0.1c-3.315,-0.153 -5.757,-1.664 -7.335,-4.526h-0.153c-1.104,2.329 -2.563,3.761 -4.366,4.294c-0.547,0.152 -1.173,0.232 -1.879,0.232V44.338z" id="path_4"/><path fill="#0992d1" d="M44.473,25.047h1.544c1.87,0 2.809,0.699 2.809,2.104c-1.211,3.274 -2.682,5.013 -4.413,5.212l-2.044,0.273c-0.326,0 -0.458,-0.094 -0.412,-0.273c1.65,-0.872 3.194,-1.91 4.626,-3.102c-0.505,-0.472 -1.064,-0.705 -1.677,-0.705h-0.433l-1.678,0.14l-0.133,-0.14v-0.273C43.454,26.126 44.059,25.047 44.473,25.047z" id="path_5"/><path fill="#000001" d="M16.722,42.873c1.277,0 2.21,0 2.809,0h0.626c1.87,-0.247 4.666,-1.045 8.387,-2.396c-1.252,-1.044 -3.175,-1.823 -5.77,-2.343c-1.539,0 -2.576,0.727 -3.123,2.184c-0.192,0.432 -0.366,0.545 -0.519,0.34c-0.146,-0.2 -0.187,-0.467 -0.107,-0.806c0.938,-3.148 2.185,-4.72 3.749,-4.72h1.09c1.039,0 2.915,0.586 5.626,1.758c2.709,1.164 5.045,1.637 7.009,1.404c0.246,0 0.353,0.152 0.313,0.465c-0.42,2.596 -1.198,3.9 -2.343,3.9l-0.78,0.154v0.313c0.395,0.818 2.19,1.212 5.406,1.172v4.427c-4.653,0.245 -6.976,-1.565 -6.962,-5.438c-1.666,0.246 -3.922,1.019 -6.771,2.33c-2.849,1.305 -5.724,1.863 -8.639,1.684V42.873z" id="path_6"/><path fill="#f06022" d="M33.243,22.299l0.16,0.14v0.426c-0.813,1.73 -1.938,2.941 -3.376,3.647c-4.474,2.43 -6.956,3.647 -7.447,3.647c-0.188,0 -0.281,-0.146 -0.281,-0.433c0.434,-1.65 1.371,-2.77 2.811,-3.354l8.001,-4.073H33.243z" id="path_7"/><path fill="#f06022" d="M32.132,18.79c0.18,0 0.272,0.134 0.272,0.406c-0.519,1.511 -2.057,2.869 -4.619,4.08l-5.911,3.235l-0.133,-0.14V26.22c0.558,-1.978 1.443,-3.195 2.668,-3.648l6.592,-3.375L32.132,18.79z" id="path_8"/><path fill="#213e95" d="M16.761,47.319c-3.028,0.18 -5.232,-1.218 -6.609,-4.193c-0.665,-1.105 -1.285,-8.554 -1.87,-22.346v-0.313c0.387,-2.29 0.958,-3.435 1.711,-3.435l0.785,-0.153c0.958,0 2.417,0.313 4.367,0.932v0.313c-0.107,0.313 -0.42,0.473 -0.938,0.473h-2.65c-0.546,0 -1.064,0.306 -1.563,0.932c0.485,11.975 1.191,18.91 2.129,20.808c0.933,1.897 2.482,2.743 4.64,2.536V47.319z" id="path_9"/></svg>