<svg id="vector" xmlns="http://www.w3.org/2000/svg" width="75" height="67" viewBox="0 0 83 73"><path fill="#213e95" d="M70.483,51.527h0.284c0.963,0.211 1.999,0.777 3.107,1.699v0.139c-0.639,1.926 -1.199,2.961 -1.692,3.105c-1.439,-0.281 -2.517,-0.752 -3.246,-1.414v-0.139C68.936,53.811 69.455,52.686 70.483,51.527z" id="path_0"/><path fill="#213e95" d="M75.71,50.258h0.138c0.963,0.145 2.048,0.801 3.246,1.975v0.145l-1.693,2.963c-2.257,-0.729 -3.389,-1.342 -3.389,-1.838C74.741,51.342 75.307,50.258 75.71,50.258z" id="path_1"/><path fill="#213e95" d="M69.231,45.074c3.697,0.035 5.762,-0.656 6.214,-2.084c0,-0.492 -0.47,-1.717 -1.415,-3.666l0.427,-3.668h0.277c1.229,2.115 1.836,4.234 1.836,6.346v1.271c0,0.85 -0.205,1.74 -0.607,2.674c-0.404,0.934 -1.03,1.721 -1.867,2.354c-0.842,0.639 -2.462,0.902 -4.865,0.795V45.074z" id="path_2"/><path fill="#213e95" d="M79.816,25.934c0.145,-0.084 0.187,0.047 0.126,0.391c-0.8,1.879 -2.029,3.191 -3.685,3.932l-6.087,3.053c-0.258,-0.072 -0.306,-0.283 -0.144,-0.639c0.813,-1.564 1.367,-2.492 1.661,-2.787L79.816,25.934z" id="path_3"/><path fill="#000001" d="M69.827,49.096c-0.09,0 -0.186,0 -0.277,0H68.28c-1.271,0 -2.733,-0.801 -4.377,-2.396c-2.824,1.547 -5.87,2.348 -9.14,2.396v-4.004c1.709,0.113 3.907,-0.24 6.6,-1.078v-0.139c-1.295,-0.848 -2.518,-1.27 -3.667,-1.27l-1.132,0.139l-0.283,-0.705c0.379,-2.541 1.462,-3.811 3.245,-3.811l2.258,-0.139c3.577,0.422 5.364,1.223 5.364,2.396v0.566l-0.849,2.822c0.687,0.832 1.86,1.234 3.528,1.199V49.096z" id="path_4"/><path fill="#000001" d="M61.947,25.885h1.396c1.692,0 2.541,0.633 2.541,1.902c-1.096,2.963 -2.426,4.535 -3.992,4.715l-1.849,0.248c-0.294,0 -0.416,-0.086 -0.373,-0.248c1.493,-0.789 2.89,-1.729 4.184,-2.805c-0.458,-0.43 -0.963,-0.639 -1.517,-0.639h-0.391l-1.518,0.125l-0.12,-0.125v-0.248C61.025,26.861 61.573,25.885 61.947,25.885z" id="path_5"/><path fill="#DD2C00" d="M42.678,45.074h0.32c0.963,0 1.98,-0.375 3.053,-1.121c1.071,-0.746 1.697,-1.686 1.891,-2.811l0.138,-0.145h0.138c0.168,0 0.404,0.518 0.711,1.553c1.337,1.838 3.222,2.68 5.642,2.541c0.163,0 0.332,-0.006 0.493,-0.018v4.039c-0.162,0.012 -0.33,0.018 -0.493,0.018l-1.975,-0.227c-0.21,1.877 -0.825,2.816 -1.837,2.822h-0.283c-1.879,-0.355 -2.818,-1.012 -2.818,-1.98l0.422,-2.541c-0.332,-0.373 -0.657,-0.561 -0.987,-0.561c-1.06,1.656 -2.53,2.475 -4.415,2.451V45.074z" id="path_6"/><path fill="#DD2C00" d="M53.859,27.451c0.146,-0.086 0.188,0.047 0.127,0.391c-0.801,1.879 -2.029,3.191 -3.685,3.932l-6.087,3.053c-0.258,-0.072 -0.307,-0.283 -0.144,-0.639c0.813,-1.564 1.367,-2.492 1.662,-2.787L53.859,27.451z" id="path_7"/><path fill="#000001" d="M32.913,45.074c0.023,0 0.054,0 0.084,0c2.258,-0.139 3.553,-1.15 3.884,-3.035c-0.85,-5.643 -1.271,-9.598 -1.271,-11.855c0,-0.867 0.379,-1.998 1.132,-3.383l0.139,0.139l0.283,0.283l-0.145,0.986c0.12,6.34 0.921,11.252 2.403,14.746c0.565,1.27 1.951,1.98 4.16,2.119v4.021c-3.034,-0.049 -5.076,-1.643 -6.135,-4.799h-0.146c-0.975,3.162 -2.438,4.762 -4.389,4.799V45.074z" id="path_8"/><path fill="#000001" d="M37.622,16.529c1.445,0 2.167,0.891 2.167,2.666c0,2.83 -2.414,5.244 -7.249,7.232c-0.692,0.209 -0.777,-0.043 -0.247,-0.76c0.132,-0.271 1.271,-1.119 3.419,-2.541v-0.119c-0.927,-0.379 -1.39,-1.188 -1.39,-2.422c0.614,-2.703 1.589,-4.057 2.926,-4.057H37.622L37.622,16.529zM35.466,19.58c0,0.754 0.638,1.217 1.908,1.398h0.248c0.469,0 0.771,-0.174 0.897,-0.512c0,-0.766 -0.555,-1.361 -1.656,-1.783C36.381,18.684 35.917,18.984 35.466,19.58z" id="path_9"/><path fill="#DD2C00" d="M33.298,49.096l-1.589,-0.018c-0.88,3.871 -3.209,5.828 -6.984,5.877c-2.023,0.09 -3.035,0.053 -3.035,-0.109c0.186,-0.355 1.542,-1.035 4.058,-2.047c2.589,-1.645 4.148,-2.703 4.69,-3.174l0.144,-0.422l-2.469,-0.391c-1.8,-0.471 -2.811,-1.373 -3.035,-2.715v-0.283c0,-2.281 0.561,-3.738 1.692,-4.377l0.849,-0.139c1.668,0 3.029,1.162 4.089,3.492c0.675,0.234 1.204,0.348 1.589,0.336V49.096z" id="path_10"/><path fill="#DD2C00" d="M26.753,29.691h1.397c1.692,0 2.541,0.631 2.541,1.902c-1.097,2.961 -2.427,4.533 -3.993,4.713l-1.848,0.248c-0.295,0 -0.416,-0.084 -0.374,-0.248c1.493,-0.787 2.89,-1.727 4.184,-2.805c-0.457,-0.428 -0.962,-0.639 -1.517,-0.639h-0.391l-1.517,0.127l-0.12,-0.127v-0.246C25.832,30.666 26.38,29.691 26.753,29.691z" id="path_11"/><path fill="#000001" d="M11.779,40.631h0.283c1.318,0.301 2.493,1.012 3.528,2.113v0.283c-0.09,0.752 -0.656,1.738 -1.691,2.961c-2.445,-0.818 -3.667,-1.529 -3.667,-2.113C10.816,42.184 11.334,41.1 11.779,40.631z" id="path_12"/><path fill="#000001" d="M19.263,37.807h0.277c0.332,0 1.132,2.119 2.402,6.352l0.139,0.561c0,3.318 -0.801,5.719 -2.397,7.201c-2.257,2.443 -4.937,3.666 -8.044,3.666C9.1,55.02 7.456,54.461 6.703,53.895c-2.45,-2.096 -3.672,-4.684 -3.672,-7.762c0,-2.588 1.131,-5.033 3.389,-7.34l0.138,-0.137h0.283l0.284,0.275c0,0.242 -0.657,1.271 -1.976,3.107c-0.379,0.656 -0.614,1.553 -0.704,2.68c0,2.191 1.125,4.07 3.383,5.646c2.21,0.85 3.715,1.271 4.516,1.271c2.023,0 4.419,-0.896 7.195,-2.68c1.132,-0.992 1.697,-1.602 1.697,-1.836l-1.974,-5.504l-0.145,-0.986L19.263,37.807z" id="path_13"/><path fill="#000001" d="M16.927,26.078c0.146,-0.086 0.187,0.047 0.127,0.391c-0.801,1.879 -2.029,3.191 -3.685,3.934l-6.087,3.051c-0.259,-0.072 -0.307,-0.283 -0.144,-0.637c0.813,-1.566 1.367,-2.494 1.662,-2.789L16.927,26.078z" id="path_14"/></svg>