<svg id="vector" xmlns="http://www.w3.org/2000/svg" width="75" height="67" viewBox="0 0 83 73"><path fill="#000001" d="M61.68,41.992c0.211,0 0.432,0 0.666,0h0.158c1.943,-0.121 3.715,-1.738 5.299,-4.854c1.717,-2.602 3.488,-3.9 5.305,-3.9c2.291,0 3.436,1.451 3.436,4.367v0.779c0,1.43 -0.572,3.301 -1.717,5.617l-1.092,0.779c-0.967,0 -3.195,-0.68 -6.711,-2.031c-1.064,1.598 -1.896,2.57 -2.496,2.91c-0.912,0.633 -1.844,0.898 -2.809,0.777H61.68V41.992L61.68,41.992zM69.52,38.697v0.152c2.703,1.045 4.32,1.564 4.84,1.564c0.205,0 0.313,-0.16 0.313,-0.473c-0.6,-1.557 -1.59,-2.336 -2.969,-2.336C70.744,37.605 70.014,37.971 69.52,38.697z" id="path_0"/><path fill="#000001" d="M74.553,21.004c0.16,-0.094 0.205,0.053 0.139,0.434c-0.885,2.076 -2.242,3.527 -4.072,4.346l-6.73,3.375c-0.285,-0.08 -0.34,-0.313 -0.16,-0.705c0.898,-1.73 1.512,-2.756 1.838,-3.082L74.553,21.004z" id="path_1"/><path fill="#213e95" d="M55.822,22.994c1.689,0.525 3.148,1.357 4.365,2.496v0.16c0,0.652 -0.672,1.689 -2.023,3.121c-0.418,0 -1.824,-0.52 -4.213,-1.564v0.16c-0.832,1.611 -1.352,2.443 -1.564,2.496c-1.352,-0.285 -2.496,-0.912 -3.428,-1.877c0.625,-2.596 1.145,-3.895 1.557,-3.895c0.34,0 1.592,0.619 3.748,1.871C54.264,25.416 54.783,24.426 55.822,22.994z" id="path_2"/><path fill="#213e95" d="M53.672,13.051h1.543c1.871,0 2.809,0.697 2.809,2.102c-1.211,3.275 -2.682,5.014 -4.412,5.213l-2.043,0.273c-0.326,0 -0.461,-0.094 -0.414,-0.273c1.652,-0.871 3.195,-1.91 4.627,-3.102c-0.506,-0.473 -1.064,-0.707 -1.678,-0.707h-0.432l-1.678,0.141l-0.133,-0.141v-0.271C52.652,14.129 53.258,13.051 53.672,13.051z" id="path_3"/><path fill="#008046" d="M47.273,46.451c-0.139,0.014 -0.285,0.02 -0.426,0.02h-0.785c-1.217,0 -2.051,-0.1 -2.496,-0.313c-0.906,3.502 -1.963,5.645 -3.174,6.432c-1.213,0.785 -3.949,1.449 -8.209,1.996h-0.313c-0.938,-0.105 -1.404,-0.26 -1.404,-0.467c0,-0.313 0.779,-0.678 2.336,-1.09c6.137,-2.811 9.207,-4.84 9.207,-6.084c0,-0.521 -0.727,-1.719 -2.185,-3.59c-0.313,-0.525 -0.466,-1.197 -0.466,-2.029V39.77c0,-0.787 0.152,-1.199 0.466,-1.252c1.353,2.07 3.642,3.221 6.862,3.467c0.201,0 0.395,0 0.586,-0.014V46.451z" id="path_4"/><path fill="#008046" d="M43.979,27.635c0.16,-0.094 0.207,0.053 0.141,0.432c-0.885,2.076 -2.242,3.529 -4.072,4.346l-6.73,3.375c-0.287,-0.08 -0.34,-0.313 -0.16,-0.705c0.898,-1.73 1.512,-2.756 1.837,-3.082L43.979,27.635z" id="path_5"/><path fill="#DD2C00" d="M24.189,49.807c0.532,0 1.777,0.625 3.741,1.877c0,0.779 -0.619,2.023 -1.871,3.74c-2.497,-0.805 -3.741,-1.529 -3.741,-2.182C22.379,52.656 23.004,51.51 24.189,49.807z" id="path_6"/><path fill="#DD2C00" d="M20.441,42.965c4.087,0.039 6.371,-0.727 6.87,-2.305c0,-0.545 -0.521,-1.896 -1.563,-4.053l0.471,-4.055h0.307c1.358,2.336 2.03,4.68 2.03,7.016v1.404c0,0.939 -0.226,1.924 -0.672,2.955c-0.446,1.033 -1.14,1.904 -2.064,2.604c-0.931,0.705 -2.722,0.998 -5.378,0.879V42.965z" id="path_7"/><path fill="#DD2C00" d="M31.538,21.629c0.16,-0.092 0.206,0.055 0.14,0.434c-0.885,2.076 -2.242,3.527 -4.074,4.348l-6.729,3.373c-0.286,-0.078 -0.339,-0.313 -0.159,-0.705c0.898,-1.73 1.511,-2.756 1.838,-3.082L31.538,21.629z" id="path_8"/><path fill="#213e95" d="M8.953,20.691h0.625c2.057,1.172 3.096,1.85 3.121,2.031c-1.018,2.182 -1.689,3.326 -2.029,3.434c-1.172,0 -2.316,-0.572 -3.434,-1.717C7.448,23.32 8.021,22.07 8.953,20.691z" id="path_9"/><path fill="#213e95" d="M14.411,19.912c0.991,0 2.19,0.68 3.595,2.031c0,0.545 -0.68,1.637 -2.031,3.275c-0.777,0 -1.924,-0.521 -3.434,-1.559C12.541,22.748 13.166,21.496 14.411,19.912z" id="path_10"/><path fill="#213e95" d="M22.1,47.41h-0.04c-2.989,0 -5.02,-1.457 -6.085,-4.367l-0.313,-1.25H15.35c-0.233,0.83 -1.896,1.352 -4.992,1.563H9.578c-2.083,0 -3.121,-0.625 -3.121,-1.877v-1.404c0,-1.504 1.145,-3.373 3.434,-5.611c1.379,-1.045 2.936,-1.924 4.681,-2.656l-0.16,-0.465c0.572,-2.604 1.046,-3.9 1.404,-3.9c0.187,0.438 0.446,3.666 0.786,9.672c0.466,4.047 2.296,6.01 5.498,5.91V47.41L22.1,47.41zM8.326,38.363c0.6,0.414 1.592,0.619 2.97,0.619c1.352,-0.1 2.596,-0.357 3.741,-0.779l-0.313,-4.365h-0.153C10.41,35.814 8.326,37.318 8.326,38.363z" id="path_11"/><path fill="#f06022" d="M18.564,52.09l0.16,0.139v0.428c-0.805,1.73 -1.93,2.941 -3.375,3.646c-4.473,2.43 -6.955,3.648 -7.447,3.648c-0.182,0 -0.275,-0.146 -0.275,-0.434c0.428,-1.65 1.365,-2.77 2.811,-3.354l7.994,-4.074H18.564z" id="path_12"/><path fill="#f06022" d="M17.453,48.582c0.187,0 0.273,0.133 0.273,0.406c-0.52,1.51 -2.058,2.869 -4.62,4.08l-5.911,3.234l-0.133,-0.139V56.01c0.559,-1.977 1.451,-3.195 2.67,-3.646l6.596,-3.375L17.453,48.582z" id="path_13"/><path fill="#213e95" d="M47.363,42.02h1.02c2.023,-0.166 3.535,-0.973 4.52,-2.416l0.16,-0.473l-0.467,-2.338c0.102,-2.496 0.359,-3.746 0.779,-3.746c1.246,4.393 2.443,7.074 3.588,8.033c0.986,0.561 2.336,0.865 4.055,0.918c0.459,0 0.885,0 1.291,0v4.467c-0.512,0 -1.045,0 -1.605,0h-0.152c-2.988,0 -5.279,-1.664 -6.863,-4.992V41.32l-1.404,2.803c-1.064,1.576 -2.629,2.355 -4.68,2.342h-0.24V42.02z" id="path_14"/></svg>