<svg id="vector" xmlns="http://www.w3.org/2000/svg" width="75" height="67" viewBox="0 0 83 73"><path fill="#DD2C00" d="M65.938,41.07c0.188,0 0.386,0 0.593,0h0.143c1.734,-0.107 3.314,-1.551 4.727,-4.328c1.533,-2.322 3.111,-3.48 4.732,-3.48c2.045,0 3.064,1.295 3.064,3.895v0.695c0,1.277 -0.512,2.945 -1.531,5.012l-0.975,0.695c-0.861,0 -2.85,-0.605 -5.986,-1.811c-0.949,1.424 -1.691,2.291 -2.227,2.594c-0.813,0.564 -1.644,0.801 -2.505,0.695h-0.035V41.07L65.938,41.07zM72.934,38.131v0.137c2.41,0.932 3.854,1.395 4.314,1.395c0.186,0 0.281,-0.143 0.281,-0.42c-0.535,-1.391 -1.42,-2.086 -2.65,-2.086C74.025,37.156 73.371,37.482 72.934,38.131z" id="path_0"/><path fill="#DD2C00" d="M77.422,22.354c0.143,-0.084 0.184,0.047 0.125,0.385c-0.789,1.854 -2,3.148 -3.635,3.879l-6.002,3.01c-0.256,-0.07 -0.305,-0.279 -0.143,-0.629c0.801,-1.543 1.348,-2.457 1.637,-2.75L77.422,22.354z" id="path_1"/><path fill="#000001" d="M66.496,45.037c-0.219,0 -0.487,0 -0.802,0c-1.24,-0.012 -2.576,-0.945 -4.02,-2.803c-0.552,2.043 -1.526,3.063 -2.921,3.063h-0.139c-1.18,0 -2.154,-0.693 -2.921,-2.09h-0.143c-0.831,1.676 -1.841,2.436 -3.028,2.281c-2.202,0.012 -3.509,-1.027 -3.93,-3.111c-1.551,1.816 -3.22,2.707 -4.994,2.66h-0.227V41.07h0.072c2.809,-0.096 4.893,-1.051 6.264,-2.869c0.186,0 0.279,0.137 0.279,0.418l-0.143,0.973c0.743,1.484 1.716,2.227 2.921,2.227c1.142,0 2.3,-1.111 3.481,-3.338h0.143l0.415,0.416v0.975c0,0.879 0.653,1.389 1.948,1.531h0.279c1.205,0 2.32,-1.205 3.342,-3.621h0.137c0.184,0 0.279,0.42 0.279,1.252c0.511,1.408 1.745,2.084 3.705,2.037V45.037z" id="path_2"/><path fill="#000001" d="M55.066,24.961h1.377c1.669,0 2.506,0.623 2.506,1.875c-1.081,2.922 -2.394,4.473 -3.938,4.65l-1.823,0.242c-0.291,0 -0.41,-0.082 -0.367,-0.242c1.473,-0.777 2.85,-1.705 4.127,-2.768c-0.453,-0.422 -0.95,-0.629 -1.498,-0.629h-0.384l-1.498,0.125l-0.119,-0.125v-0.244C54.157,25.922 54.697,24.961 55.066,24.961z" id="path_3"/><path fill="#008046" d="M34.406,27.359h0.137c1.51,0.469 2.578,1.068 3.202,1.811v0.279c-0.72,2.043 -1.326,3.064 -1.812,3.064l-3.2,-1.674C33.314,28.803 33.872,27.639 34.406,27.359z" id="path_4"/><path fill="#008046" d="M43.866,45.037c-0.09,0 -0.185,0 -0.272,0H42.34c-1.252,0 -2.695,-0.791 -4.316,-2.363c-2.784,1.525 -5.789,2.316 -9.015,2.363v-3.949c1.687,0.113 3.855,-0.238 6.509,-1.064v-0.135c-1.277,-0.838 -2.482,-1.252 -3.617,-1.252l-1.115,0.135l-0.279,-0.695c0.375,-2.506 1.443,-3.758 3.2,-3.758l2.228,-0.137c3.527,0.416 5.29,1.205 5.29,2.363v0.559l-0.836,2.785c0.677,0.818 1.833,1.217 3.479,1.182V45.037z" id="path_5"/><path fill="#008046" d="M40.785,16.801c0.143,-0.082 0.184,0.049 0.125,0.387c-0.79,1.852 -2.003,3.146 -3.635,3.877l-6.003,3.01c-0.256,-0.07 -0.304,-0.277 -0.145,-0.629c0.804,-1.543 1.35,-2.459 1.641,-2.748L40.785,16.801z" id="path_6"/><path fill="#213e95" d="M22.472,46.568c0.476,0 1.591,0.559 3.343,1.67c0,0.693 -0.559,1.811 -1.674,3.342c-2.227,-0.725 -3.339,-1.371 -3.339,-1.953C20.862,49.109 21.414,48.09 22.472,46.568z" id="path_7"/><path fill="#213e95" d="M17.407,41.07c0.99,0.012 1.603,-0.006 1.847,-0.053c2.089,-0.637 3.514,-1.99 4.28,-4.051c0.113,-0.396 0.346,-0.445 0.694,-0.143c0.186,0.16 0.328,0.814 0.415,1.947c1.266,1.705 2.846,2.471 4.733,2.299h0.368v3.967h-0.089c-2.957,-0.137 -5.137,-1.484 -6.543,-4.039h-0.137c-0.986,2.08 -2.285,3.355 -3.896,3.83c-0.485,0.137 -1.045,0.209 -1.673,0.209V41.07z" id="path_8"/><path fill="#213e95" d="M27.791,24.158c0.143,-0.084 0.186,0.047 0.125,0.387c-0.789,1.854 -2.001,3.146 -3.633,3.877l-6.005,3.012c-0.255,-0.072 -0.302,-0.279 -0.142,-0.631c0.801,-1.543 1.348,-2.457 1.64,-2.748L27.791,24.158z" id="path_9"/><path fill="#000001" d="M6.03,21.201h0.558c1.835,1.045 2.761,1.65 2.784,1.811c-0.908,1.949 -1.509,2.969 -1.812,3.064c-1.045,0 -2.065,-0.51 -3.063,-1.531C4.688,23.547 5.197,22.432 6.03,21.201z" id="path_10"/><path fill="#000001" d="M10.899,20.506c0.884,0 1.952,0.605 3.206,1.813c0,0.486 -0.606,1.461 -1.812,2.922c-0.694,0 -1.717,-0.465 -3.063,-1.391C9.23,23.037 9.788,21.92 10.899,20.506z" id="path_11"/><path fill="#000001" d="M17.756,45.037h-0.035c-2.666,0 -4.478,-1.301 -5.427,-3.895l-0.279,-1.119h-0.278c-0.209,0.744 -1.693,1.207 -4.454,1.396H6.588c-1.858,0 -2.785,-0.559 -2.785,-1.674v-1.252c0,-1.344 1.02,-3.012 3.063,-5.006c1.229,-0.934 2.619,-1.717 4.176,-2.371l-0.143,-0.414c0.509,-2.322 0.933,-3.48 1.252,-3.48c0.166,0.393 0.397,3.271 0.7,8.629c0.415,3.609 2.05,5.361 4.904,5.271V45.037L17.756,45.037zM5.47,36.967c0.535,0.369 1.42,0.553 2.65,0.553c1.205,-0.09 2.315,-0.32 3.337,-0.695l-0.279,-3.895h-0.136C7.331,34.693 5.47,36.035 5.47,36.967z" id="path_12"/><path fill="#f06022" d="M14.604,49.211l0.143,0.125v0.379c-0.72,1.545 -1.722,2.625 -3.011,3.254c-3.99,2.168 -6.206,3.256 -6.645,3.256c-0.162,0 -0.244,-0.131 -0.244,-0.387c0.381,-1.473 1.218,-2.471 2.506,-2.992l7.132,-3.635H14.604z" id="path_13"/><path fill="#f06022" d="M13.612,46.082c0.165,0 0.243,0.119 0.243,0.361c-0.464,1.348 -1.835,2.559 -4.12,3.641l-5.273,2.885l-0.119,-0.123v-0.137c0.499,-1.764 1.295,-2.85 2.382,-3.254l5.885,-3.012L13.612,46.082z" id="path_14"/></svg>