<svg id="vector" xmlns="http://www.w3.org/2000/svg" width="75" height="67" viewBox="0 0 83 73"><path fill="#213e95" d="M69.968,21.018c0.313,0 0.626,1.045 0.939,3.121l1.405,3.123l-0.626,3.588l0.466,8.74v1.398c-0.207,3.566 -0.726,5.645 -1.558,6.242l-0.153,-0.152l0.153,-2.344c0,-2.104 -0.679,-8.813 -2.03,-20.123C69.216,22.215 69.682,21.018 69.968,21.018z" id="path_0"/><path fill="#213e95" d="M74.627,11.891c0.16,-0.092 0.207,0.055 0.14,0.434c-0.885,2.076 -2.243,3.527 -4.073,4.348l-6.73,3.375c-0.287,-0.08 -0.339,-0.314 -0.16,-0.707c0.899,-1.73 1.511,-2.756 1.837,-3.08L74.627,11.891z" id="path_1"/><path fill="#000001" d="M33.937,41.061c0.798,-0.752 4.16,-1.053 10.07,-0.912c3.202,-0.113 6.311,-0.971 9.327,-2.57c1.145,-1.145 2.603,-3.068 4.366,-5.77c0.885,-0.885 1.717,-1.406 2.496,-1.564c2.703,0 4.061,1.457 4.061,4.367c-0.187,4.139 -0.965,6.635 -2.343,7.488h-0.779c-1.324,0 -3.667,-0.834 -7.022,-2.496c-0.778,1.357 -2.962,2.496 -6.55,3.434h-0.16c-4.858,0.42 -8.52,0.381 -10.976,-0.119C33.97,42.426 33.137,41.805 33.937,41.061L33.937,41.061zM57.234,36.174c1.324,0.646 3.042,1.219 5.146,1.719v-0.16c0,-1.639 -1.039,-2.623 -3.116,-2.963C57.907,35.156 57.234,35.629 57.234,36.174z" id="path_2"/><path fill="#000001" d="M56.862,18.602h1.544c1.87,0 2.809,0.699 2.809,2.104c-1.212,3.275 -2.683,5.012 -4.414,5.211l-2.043,0.273c-0.327,0 -0.459,-0.092 -0.413,-0.273c1.651,-0.871 3.195,-1.91 4.626,-3.102c-0.506,-0.473 -1.064,-0.705 -1.677,-0.705h-0.433l-1.677,0.141l-0.134,-0.141v-0.273C55.843,19.68 56.449,18.602 56.862,18.602z" id="path_3"/><path fill="#213e95" d="M44.028,42.605c0.532,0.951 0.826,1.51 0.878,1.678l0.073,1.271c-0.013,2.248 -0.312,3.801 -0.912,4.658c-0.599,0.859 -1.358,1.291 -2.284,1.305c-2.003,0 -4.08,-1.609 -6.243,-4.832c-0.373,-0.639 -0.739,-1.471 -1.091,-2.496h-1.558c-0.353,0 -1.035,-0.1 -1.361,-0.141v-4.467c0.48,0.107 1.321,0.234 1.827,0.234h0.626c0.858,-3.328 2.316,-5.824 4.367,-7.49c1.065,-0.83 2.056,-1.244 2.969,-1.244c1.404,0 2.235,1.039 2.496,3.121c0.412,2.092 -0.054,4.268 -1.405,6.531L44.028,42.605L44.028,42.605zM37.105,44.029c1.065,1.877 2.623,2.916 4.679,3.121c1.039,-0.092 1.718,-0.451 2.031,-1.09c-0.094,-1.258 -0.819,-2.025 -2.184,-2.291c-1.371,-0.266 -2.462,-0.359 -3.288,-0.266C37.519,43.598 37.105,43.77 37.105,44.029L37.105,44.029zM35.541,39.197c-0.113,0.346 0.04,0.506 0.473,0.465c1.977,0 3.947,-0.885 5.924,-2.648v-0.16c-0.439,-1.037 -1.011,-1.557 -1.71,-1.557C38.676,35.096 37.119,36.4 35.541,39.197z" id="path_4"/><path fill="#213e95" d="M46.737,52.982c0.161,-0.086 0.207,0.053 0.14,0.432c-0.885,2.078 -2.244,3.529 -4.074,4.348l-6.73,3.375c-0.286,-0.08 -0.339,-0.313 -0.16,-0.699c0.899,-1.73 1.512,-2.756 1.837,-3.082L46.737,52.982z" id="path_5"/><path fill="#DD2C00" d="M31.607,44.049c-1.511,0.014 -2.756,-0.758 -3.748,-2.316h-0.153c-0.732,2.598 -1.823,4.42 -3.274,5.459c-2.057,1.977 -4.294,2.961 -6.71,2.961h-0.938c-2.756,0 -5.199,-1.557 -7.329,-4.678c-0.832,-1.432 -1.251,-3.096 -1.251,-4.992c0,-2.676 1.352,-5.379 4.061,-8.109c1.412,-0.896 1.831,-0.844 1.245,0.154c-2.39,3.328 -3.587,5.617 -3.587,6.861c0,3.229 2.389,5.359 7.175,6.398h1.252c2.675,0 5.325,-1.352 7.955,-4.055c0.273,-0.857 0.326,-1.797 0.153,-2.809c-0.52,-2.211 -1.299,-7.828 -2.337,-16.848l0.932,-3.123c0.146,-0.025 0.3,-0.025 0.473,0c0.287,0 0.805,3.955 1.557,11.857c0.52,4.16 1.146,6.762 1.871,7.801c0.639,0.705 1.524,1.031 2.656,0.992V44.049z" id="path_6"/><path fill="#DD2C00" d="M17.429,17.357h1.545c1.87,0 2.809,0.699 2.809,2.102c-1.212,3.275 -2.684,5.014 -4.414,5.213l-2.043,0.273c-0.327,0 -0.459,-0.094 -0.413,-0.273c1.65,-0.871 3.194,-1.91 4.626,-3.102c-0.506,-0.473 -1.065,-0.705 -1.677,-0.705h-0.433l-1.677,0.139l-0.134,-0.139v-0.273C16.41,18.436 17.017,17.357 17.429,17.357z" id="path_7"/></svg>