<svg id="vector" xmlns="http://www.w3.org/2000/svg" width="75" height="67" viewBox="0 0 83 73"><path fill="#DD2C00" d="M50.396,43.881c-0.139,0.014 -0.287,0.021 -0.426,0.021h-0.786c-1.218,0 -2.05,-0.1 -2.496,-0.313c-0.905,3.5 -1.964,5.645 -3.175,6.43s-3.947,1.451 -8.207,1.996h-0.313c-0.939,-0.107 -1.404,-0.258 -1.404,-0.465c0,-0.313 0.777,-0.68 2.336,-1.092c6.137,-2.811 9.205,-4.84 9.205,-6.084c0,-0.52 -0.725,-1.719 -2.183,-3.588c-0.313,-0.525 -0.466,-1.199 -0.466,-2.031v-1.557c0,-0.785 0.152,-1.199 0.466,-1.252c1.352,2.07 3.641,3.221 6.862,3.469c0.2,0 0.393,0 0.586,-0.014V43.881z" id="path_0"/><path fill="#DD2C00" d="M45.989,53.533c0.16,-0.086 0.207,0.055 0.141,0.434c-0.886,2.076 -2.243,3.527 -4.073,4.346l-6.73,3.375c-0.285,-0.08 -0.34,-0.313 -0.16,-0.699c0.898,-1.73 1.512,-2.754 1.838,-3.082L45.989,53.533z" id="path_1"/><path fill="#000001" d="M26.707,29.398h0.159c1.53,0 2.935,1.191 4.214,3.586l0.466,2.023c0.14,2.943 -0.699,5.186 -2.524,6.73c-1.83,1.551 -5.424,2.582 -10.795,3.102h-1.818c-6.963,-0.938 -10.45,-3.48 -10.45,-7.641c0.394,-2.576 1.118,-4.5 2.183,-5.777h0.313l0.313,0.313l-1.093,2.656v0.617c0,2.551 2.81,4.32 8.428,5.307l2.023,0.158c3.668,0 7.722,-0.885 12.167,-2.654v-0.154l-0.152,-0.465h-0.152l-1.718,0.307h-0.474c-1.736,0 -3.041,-0.727 -3.899,-2.186v-1.402C23.897,30.9 24.836,29.398 26.707,29.398z" id="path_2"/><path fill="#000001" d="M20.622,23.313c1.118,0.207 2.263,0.832 3.435,1.871v0.313c-0.912,2.391 -1.537,3.588 -1.869,3.588c-1.745,-0.857 -2.837,-1.537 -3.283,-2.029v-0.313C19.611,24.559 20.184,23.414 20.622,23.313z" id="path_3"/><path fill="#000001" d="M19.204,11.313c1.599,0 2.397,0.984 2.397,2.947c0,3.129 -2.67,5.799 -8.016,7.996c-0.766,0.232 -0.857,-0.047 -0.271,-0.84c0.146,-0.299 1.403,-1.238 3.779,-2.809v-0.133c-1.024,-0.42 -1.537,-1.313 -1.537,-2.676c0.679,-2.988 1.757,-4.486 3.235,-4.486H19.204L19.204,11.313zM16.821,14.688c0,0.832 0.706,1.344 2.11,1.543h0.272c0.521,0 0.853,-0.191 0.991,-0.566c0,-0.844 -0.611,-1.502 -1.83,-1.969C17.834,13.695 17.32,14.027 16.821,14.688z" id="path_4"/><path fill="#213e95" d="M67.523,23.182h0.313c1.065,0.232 2.21,0.85 3.435,1.869v0.152c-0.707,2.137 -1.326,3.275 -1.871,3.436c-1.591,-0.314 -2.782,-0.832 -3.588,-1.559v-0.158C65.813,25.697 66.385,24.451 67.523,23.182z" id="path_5"/><path fill="#213e95" d="M73.301,21.775h0.153c1.065,0.152 2.263,0.879 3.589,2.184v0.152l-1.871,3.275c-2.496,-0.805 -3.748,-1.479 -3.748,-2.023C72.229,22.967 72.855,21.775 73.301,21.775z" id="path_6"/><path fill="#213e95" d="M66.139,39.422c4.087,0.041 6.371,-0.727 6.87,-2.303c0,-0.545 -0.521,-1.896 -1.563,-4.055l0.471,-4.053h0.307c1.358,2.336 2.03,4.68 2.03,7.016v1.404c0,0.939 -0.227,1.924 -0.672,2.955c-0.446,1.031 -1.14,1.904 -2.063,2.604c-0.932,0.705 -2.723,0.998 -5.379,0.879V39.422z" id="path_7"/><path fill="#213e95" d="M76.023,13.381c0.16,-0.092 0.207,0.055 0.141,0.434c-0.885,2.076 -2.244,3.527 -4.074,4.346l-6.729,3.375c-0.286,-0.08 -0.339,-0.313 -0.16,-0.705c0.899,-1.73 1.511,-2.756 1.837,-3.082L76.023,13.381z" id="path_8"/><path fill="#000001" d="M66.799,43.869c-0.102,0 -0.207,0 -0.307,0h-1.404c-1.404,0 -3.022,-0.887 -4.84,-2.65c-3.123,1.711 -6.49,2.596 -10.105,2.65v-4.428c1.891,0.127 4.321,-0.266 7.296,-1.191v-0.152c-1.431,-0.939 -2.782,-1.404 -4.054,-1.404l-1.252,0.152l-0.312,-0.779c0.419,-2.809 1.616,-4.213 3.587,-4.213l2.496,-0.152c3.955,0.465 5.932,1.35 5.932,2.648v0.625l-0.939,3.123c0.76,0.918 2.057,1.365 3.902,1.324V43.869z" id="path_9"/><path fill="#000001" d="M58.085,18.201h1.544c1.871,0 2.809,0.699 2.809,2.104c-1.211,3.275 -2.682,5.012 -4.412,5.213l-2.045,0.271c-0.325,0 -0.459,-0.092 -0.412,-0.271c1.65,-0.873 3.195,-1.912 4.627,-3.104c-0.506,-0.473 -1.066,-0.705 -1.678,-0.705h-0.433l-1.678,0.141l-0.133,-0.141v-0.273C57.066,19.279 57.672,18.201 58.085,18.201z" id="path_10"/></svg>