<svg id="vector" xmlns="http://www.w3.org/2000/svg" width="75" height="67" viewBox="0 0 83 73"><path fill="#DD2C00" d="M71.453,25.707c1.352,0 2.598,0.832 3.742,2.496c-0.96,2.184 -1.69,3.275 -2.185,3.275c-2.104,-1.039 -3.248,-1.717 -3.434,-2.031C69.577,28.463 70.203,27.213 71.453,25.707z" id="path_0"/><path fill="#DD2C00" d="M66.402,45.283h0.778c4.852,-0.094 8.073,-0.771 9.67,-2.051l0.314,-0.619c-0.207,-0.498 -0.466,-0.744 -0.778,-0.744c-0.753,0.42 -1.585,0.625 -2.496,0.625h-0.16c-2.702,-0.313 -4.106,-1.404 -4.206,-3.273v-0.16c0.259,-3.535 1.09,-5.299 2.494,-5.299h0.78c2.402,-0.121 4.226,1.75 5.458,5.611l0.152,1.564v0.313c-0.033,3.82 -1.404,6.344 -4.113,7.563c-0.959,0.611 -3.594,0.918 -7.894,0.918V45.283z" id="path_1"/><path fill="#DD2C00" d="M77.218,15.15c0.16,-0.094 0.206,0.053 0.141,0.434c-0.886,2.076 -2.243,3.527 -4.074,4.346l-6.73,3.375c-0.286,-0.08 -0.339,-0.313 -0.159,-0.705c0.898,-1.732 1.511,-2.756 1.837,-3.082L77.218,15.15z" id="path_2"/><path fill="#008046" d="M66.416,49.742c-0.141,0.014 -0.287,0.021 -0.428,0.021h-0.785c-1.217,0 -2.05,-0.1 -2.496,-0.313c-0.905,3.5 -1.964,5.645 -3.175,6.43c-1.212,0.785 -3.947,1.451 -8.209,1.996h-0.312c-0.938,-0.105 -1.404,-0.258 -1.404,-0.465c0,-0.313 0.778,-0.68 2.336,-1.092c6.138,-2.809 9.207,-4.84 9.207,-6.084c0,-0.52 -0.726,-1.717 -2.185,-3.588c-0.312,-0.525 -0.466,-1.199 -0.466,-2.031v-1.557c0,-0.785 0.154,-1.197 0.466,-1.252c1.352,2.07 3.642,3.223 6.863,3.469c0.2,0 0.394,0 0.587,-0.014V49.742z" id="path_3"/><path fill="#008046" d="M63.12,30.926c0.16,-0.094 0.207,0.053 0.141,0.434c-0.886,2.076 -2.245,3.527 -4.074,4.346l-6.729,3.375c-0.287,-0.08 -0.34,-0.313 -0.16,-0.705c0.898,-1.73 1.511,-2.756 1.837,-3.082L63.12,30.926z" id="path_4"/><path fill="#008046" d="M30.968,46.236c0.395,0.025 0.794,0.039 1.191,0.039h0.467l1.95,-0.467c-0.465,-0.871 -0.698,-1.477 -0.698,-1.816c0,-4.992 1.61,-7.488 4.832,-7.488l1.252,-0.152c1.639,0.26 3.721,1.244 6.236,2.963l0.16,0.625l-0.16,0.152H45.58c-1.199,-0.832 -2.551,-1.244 -4.06,-1.244c-2.312,0 -4.234,0.672 -5.772,2.023v0.16c1.352,2.182 3.848,3.273 7.488,3.273c2.863,-1.039 4.733,-1.557 5.618,-1.557c-0.493,2.908 -1.432,4.365 -2.808,4.365c-6.165,2.391 -11.05,3.59 -14.665,3.59h-0.414V46.236z" id="path_5"/><path fill="#008046" d="M37.932,28.391c2.602,0.83 3.9,1.51 3.9,2.029v0.313c-0.885,2.289 -1.558,3.436 -2.024,3.436c-2.314,-1.02 -3.514,-1.691 -3.594,-2.031v-0.313C36.214,31.072 36.787,29.928 37.932,28.391z" id="path_6"/><path fill="#008046" d="M38.558,17.494h1.545c1.87,0 2.809,0.697 2.809,2.102c-1.212,3.275 -2.684,5.014 -4.414,5.213l-2.043,0.273c-0.326,0 -0.459,-0.094 -0.412,-0.273c1.65,-0.871 3.194,-1.91 4.626,-3.102C40.161,21.234 39.604,21 38.991,21h-0.434l-1.677,0.141L36.746,21v-0.271C37.538,18.572 38.145,17.494 38.558,17.494z" id="path_7"/><path fill="#000001" d="M31.674,50.723c-1.989,-0.16 -3.787,-1.559 -5.403,-4.195c-2.392,2.91 -5.825,4.367 -10.291,4.367h-1.252c-4.833,0 -8.161,-2.076 -9.985,-6.236l-0.151,-0.939v-1.404c0,-1.504 0.671,-3.221 2.021,-5.145h0.16l0.313,0.313v0.779l-0.784,2.496c0,2.729 2.289,4.6 6.868,5.617l2.811,0.152c4.857,0 8.705,-1.662 11.541,-4.99c0.153,0 0.313,0.205 0.466,0.625l-0.152,1.092c0.532,1.963 1.81,2.949 3.84,2.963V50.723z" id="path_8"/><path fill="#000001" d="M13.635,35.918h0.314c1.064,0.234 2.21,0.859 3.435,1.871v0.16c-0.706,2.129 -1.332,3.275 -1.878,3.434c-1.584,-0.313 -2.781,-0.832 -3.589,-1.564v-0.152C11.917,38.441 12.49,37.197 13.635,35.918z" id="path_9"/><path fill="#000001" d="M19.407,34.514h0.158c1.066,0.16 2.265,0.885 3.589,2.184v0.16l-1.877,3.273c-2.496,-0.805 -3.742,-1.482 -3.742,-2.029C18.341,35.711 18.967,34.514 19.407,34.514z" id="path_10"/><path fill="#000001" d="M22.429,23.617c0.159,-0.094 0.206,0.053 0.14,0.432c-0.885,2.078 -2.244,3.529 -4.073,4.348l-6.73,3.375c-0.286,-0.08 -0.339,-0.313 -0.159,-0.707c0.898,-1.73 1.511,-2.754 1.837,-3.082L22.429,23.617z" id="path_11"/></svg>