<svg id="vector" xmlns="http://www.w3.org/2000/svg" width="75" height="67" viewBox="0 0 83 73"><path fill="#000001" d="M61.58,44.02h0.75h0.285h0.73c2.631,-0.191 4.229,-0.799 4.785,-1.813c0,-0.801 -0.916,-2.973 -2.756,-6.533l-0.289,-1.158c-0.316,-1.523 -0.305,-2.922 0.037,-4.191c0.334,-1.27 1.002,-2.148 1.994,-2.633c2.297,-1.547 6.699,-4.111 13.207,-7.689l0.143,0.148v0.285c-1.4,2.205 -2.465,4.234 -3.189,6.1h-0.291l-0.148,-0.725v-0.73l0.148,-0.143v-0.143h-0.148c-5.393,3.113 -9.021,5.393 -10.885,6.816v0.148c2.035,4.111 3.145,7.252 3.342,9.432c0,1.547 -0.531,3.195 -1.596,4.934c-1.018,1.357 -3.047,2.031 -6.1,2.031h-0.02V44.02z" id="path_0"/><path fill="#000001" d="M69.332,15.066c1.486,0 2.23,0.916 2.23,2.742c0,2.912 -2.482,5.395 -7.455,7.438c-0.713,0.217 -0.799,-0.043 -0.254,-0.779c0.137,-0.279 1.307,-1.152 3.516,-2.613v-0.125c-0.953,-0.389 -1.428,-1.219 -1.428,-2.488c0.631,-2.781 1.633,-4.174 3.008,-4.174H69.332L69.332,15.066zM67.117,18.207c0,0.773 0.656,1.25 1.963,1.436h0.252c0.484,0 0.793,-0.18 0.924,-0.525c0,-0.787 -0.57,-1.4 -1.703,-1.834C68.057,17.283 67.58,17.594 67.117,18.207z" id="path_1"/><path fill="#DD2C00" d="M49.389,33.574c0.607,0 1.672,0.725 3.195,2.174c0,0.482 -0.582,1.549 -1.746,3.195h-0.285c-0.605,0 -1.529,-0.582 -2.762,-1.74v-0.148C47.791,36.479 48.324,35.314 49.389,33.574z" id="path_2"/><path fill="#DD2C00" d="M54.615,32.85c2.414,1.041 3.629,1.857 3.629,2.465c-0.148,0.459 -0.824,1.473 -2.031,3.047c-1.623,-0.625 -2.787,-1.357 -3.486,-2.174C53.234,34.564 53.865,33.451 54.615,32.85z" id="path_3"/><path fill="#DD2C00" d="M51.129,28.639c2.229,0.918 3.338,1.691 3.338,2.322l-1.883,2.904h-0.148c-0.41,0 -1.523,-0.582 -3.338,-1.746C49.996,29.797 50.672,28.639 51.129,28.639z" id="path_4"/><path fill="#DD2C00" d="M62.014,47.846h-0.705c-0.947,0 -2.105,-0.574 -3.486,-1.738c-0.799,1.355 -1.572,2.031 -2.322,2.031h-0.291c-0.83,0 -1.555,-0.533 -2.174,-1.592c-0.049,-0.125 -0.098,-0.125 -0.148,0c-0.773,1.35 -1.641,2.031 -2.605,2.031h-0.15c-1.678,0 -2.934,-1.115 -3.77,-3.338c-1.178,1.156 -2.967,2.031 -5.369,2.605c-5.541,0.607 -8.91,0.396 -10.104,-0.631c-1.203,-1.027 -1.172,-1.604 0.078,-1.732c1.252,-0.125 3.865,-0.279 7.846,-0.465c3.021,-0.154 5.443,-0.904 7.258,-2.248c0.545,-1.387 0.979,-2.162 1.307,-2.322c0.34,-0.086 0.439,0.125 0.297,0.625c-0.137,0.502 -0.191,0.973 -0.156,1.406c0.973,1.455 1.939,2.18 2.906,2.18c1.193,0 2.068,-1.016 2.611,-3.047l0.143,-0.148h0.148c0.268,0 0.459,0.531 0.582,1.598c0.285,0.885 0.979,1.313 2.063,1.289c0.922,-0.113 1.543,-1.072 1.852,-2.887c0.111,-0.533 0.402,-0.676 0.873,-0.434c0,1.449 0.824,2.422 2.465,2.904l0.854,0.086V47.846z" id="path_5"/><path fill="#DD2C00" d="M58.752,50.348c0.148,-0.08 0.191,0.051 0.129,0.404c-0.824,1.932 -2.086,3.279 -3.789,4.041l-6.262,3.141c-0.264,-0.074 -0.314,-0.291 -0.146,-0.65c0.834,-1.609 1.404,-2.564 1.709,-2.867L58.752,50.348z" id="path_6"/><path fill="#008046" d="M25.99,43.84c0.303,0 0.619,0 0.947,0l0.725,-0.365c0.459,-0.941 1.139,-2.098 2.029,-3.479l-1.447,-11.178c0.482,-2.32 0.916,-3.48 1.307,-3.48l0.725,2.756c0.674,0.943 1.016,1.814 1.016,2.613c-0.484,0.893 -0.725,1.623 -0.725,2.174v0.291l0.291,4.645v0.73c1.498,-1.264 3.504,-1.951 6.018,-2.068c2.904,0.408 4.354,1.375 4.354,2.898v1.016c-0.484,2.154 -1.209,3.801 -2.174,4.934c-2.93,1.646 -6.143,2.527 -9.652,2.65h-1.6c-0.637,0 -1.244,0 -1.813,0V43.84L25.99,43.84zM28.82,43.914h0.289c4.428,-0.123 7.889,-0.908 10.379,-2.357c-1.133,-1.164 -1.957,-1.74 -2.465,-1.74h-1.164C32.547,39.934 30.201,41.301 28.82,43.914z" id="path_7"/><path fill="#008046" d="M41.006,24.355c0.148,-0.088 0.191,0.049 0.129,0.402c-0.822,1.932 -2.086,3.281 -3.789,4.043l-6.26,3.139c-0.266,-0.074 -0.316,-0.291 -0.148,-0.656c0.836,-1.609 1.404,-2.563 1.709,-2.867L41.006,24.355z" id="path_8"/><path fill="#213e95" d="M27.729,47.996c-1.852,-0.15 -3.521,-1.449 -5.027,-3.902c-2.223,2.707 -5.418,4.063 -9.572,4.063h-1.164c-4.496,0 -7.592,-1.932 -9.287,-5.801l-0.143,-0.873v-1.307c0,-1.4 0.625,-2.998 1.881,-4.787h0.15l0.289,0.291v0.725l-0.73,2.32c0,2.539 2.131,4.281 6.391,5.227l2.613,0.143c4.52,0 8.1,-1.547 10.736,-4.643c0.143,0 0.291,0.191 0.434,0.582l-0.143,1.016c0.496,1.826 1.684,2.742 3.572,2.754V47.996z" id="path_9"/><path fill="#213e95" d="M10.949,34.225h0.291c0.992,0.217 2.057,0.799 3.195,1.74v0.148c-0.656,1.98 -1.238,3.047 -1.746,3.195c-1.475,-0.291 -2.588,-0.773 -3.338,-1.455v-0.143C9.352,36.572 9.885,35.414 10.949,34.225z" id="path_10"/><path fill="#213e95" d="M16.318,32.918h0.148c0.99,0.148 2.105,0.824 3.338,2.031v0.148l-1.746,3.047c-2.322,-0.75 -3.48,-1.383 -3.48,-1.889C15.328,34.033 15.91,32.918 16.318,32.918z" id="path_11"/><path fill="#213e95" d="M13.613,22.473h1.436c1.74,0 2.613,0.65 2.613,1.957c-1.127,3.047 -2.496,4.662 -4.105,4.848l-1.9,0.254c-0.305,0 -0.428,-0.086 -0.385,-0.254c1.535,-0.811 2.973,-1.777 4.305,-2.885c-0.473,-0.441 -0.992,-0.656 -1.563,-0.656h-0.4l-1.563,0.129l-0.123,-0.129v-0.254C12.664,23.475 13.229,22.473 13.613,22.473z" id="path_12"/></svg>