<svg id="vector" xmlns="http://www.w3.org/2000/svg" width="75" height="67" viewBox="0 0 83 73"><path fill="#DD2C00" d="M73.212,38.688h0.625c1.824,0 3.176,1.557 4.063,4.678l0.152,1.559c0.053,0.506 0.053,1.025 0,1.564c-0.467,1.896 -1.512,3.768 -3.123,5.611c-1.117,0.938 -3.66,1.664 -7.641,2.184c-0.467,-0.207 -0.733,-0.412 -0.78,-0.619c6.657,-3.615 9.985,-5.799 9.985,-6.557l0.154,-0.467l-0.154,-0.152l-1.404,0.467h-0.777c-2.811,0 -4.215,-0.992 -4.215,-2.963V43.68c0.359,-3.229 1.145,-4.84 2.336,-4.84L73.212,38.688z" id="path_0"/><path fill="#DD2C00" d="M77.345,26.047c0.16,-0.094 0.207,0.053 0.141,0.432c-0.885,2.076 -2.242,3.529 -4.074,4.348l-6.729,3.375c-0.287,-0.08 -0.34,-0.314 -0.16,-0.707c0.899,-1.73 1.511,-2.756 1.837,-3.08L77.345,26.047z" id="path_1"/><path fill="#213e95" d="M34.271,41.123c1.97,0.014 4.56,-0.232 7.76,-0.725h0.154c2.703,-0.439 5.511,-1.744 8.427,-3.902c0.259,-1.145 0.521,-1.717 0.779,-1.717h0.152c0.395,0.24 0.395,0.912 0,2.029c0.599,2.184 1.639,3.275 3.122,3.275c1.459,0 2.29,-1.191 2.496,-3.588c0,-0.412 0.207,-0.725 0.626,-0.932c0.207,0 0.359,0.52 0.467,1.559c0.651,1.457 1.431,2.248 2.342,2.375h0.314c0.519,0.027 0.932,-0.246 1.244,-0.818l0.079,-2.416C62.208,34.76 62.334,34 62.621,34c0.499,0 0.806,1.512 0.938,4.527c-0.132,2.143 -0.651,3.654 -1.556,4.525c-0.395,0.414 -0.913,0.619 -1.566,0.619c-0.491,0.094 -0.965,0.041 -1.423,-0.166c-0.453,-0.199 -0.913,-0.766 -1.385,-1.703c-0.1,-0.387 -0.207,-0.387 -0.313,0c-0.294,0.818 -0.786,1.396 -1.473,1.723c-0.678,0.332 -1.284,0.445 -1.804,0.346c-2.022,-0.199 -3.222,-1.402 -3.588,-3.627c-2.157,1.432 -4.027,2.416 -5.616,2.961c-4.262,0.986 -7.615,1.127 -10.059,0.42c-2.444,-0.705 -3.636,-1.303 -3.569,-1.789C31.269,41.342 32.294,41.109 34.271,41.123z" id="path_2"/><path fill="#213e95" d="M62.215,22.205c0.16,-0.092 0.207,0.053 0.139,0.434c-0.885,2.076 -2.242,3.527 -4.071,4.346l-6.732,3.375c-0.284,-0.08 -0.337,-0.313 -0.158,-0.705c0.897,-1.73 1.512,-2.756 1.838,-3.082L62.215,22.205z" id="path_3"/><path fill="#008046" d="M28.34,39.346c0.327,0 0.667,0 1.02,0l0.778,-0.393c0.493,-1.012 1.225,-2.256 2.184,-3.74l-1.558,-12.016c0.519,-2.496 0.984,-3.74 1.404,-3.74l0.777,2.961c0.728,1.012 1.093,1.951 1.093,2.811c-0.519,0.957 -0.778,1.742 -0.778,2.336v0.313l0.312,4.992v0.785c1.611,-1.357 3.769,-2.096 6.471,-2.223c3.122,0.439 4.681,1.479 4.681,3.115v1.092c-0.521,2.316 -1.299,4.086 -2.338,5.305c-3.147,1.77 -6.602,2.717 -10.377,2.85H30.29c-0.685,0 -1.338,0 -1.95,0V39.346L28.34,39.346zM31.382,39.426h0.313c4.759,-0.133 8.479,-0.979 11.157,-2.537c-1.219,-1.25 -2.104,-1.869 -2.65,-1.869H38.95C35.39,35.145 32.866,36.617 31.382,39.426z" id="path_4"/><path fill="#0992d1" d="M38.559,18.072h1.544c1.87,0 2.809,0.699 2.809,2.104c-1.211,3.273 -2.682,5.012 -4.413,5.211l-2.044,0.273c-0.326,0 -0.458,-0.094 -0.411,-0.273c1.649,-0.871 3.194,-1.91 4.625,-3.102c-0.505,-0.473 -1.064,-0.705 -1.677,-0.705h-0.433l-1.678,0.139l-0.133,-0.139v-0.273C37.54,19.15 38.145,18.072 38.559,18.072z" id="path_5"/><path fill="#000001" d="M14.894,39.639c1.538,0.492 2.729,1.117 3.588,1.871v0.313c0,0.52 -0.571,1.664 -1.716,3.434c-1.065,0 -2.257,-0.572 -3.589,-1.717v-0.313C13.177,42.107 13.748,40.916 14.894,39.639z" id="path_6"/><path fill="#000001" d="M28.647,43.732c-1.42,0 -2.518,-0.219 -3.302,-0.658c-0.388,3.381 -1.113,5.717 -2.184,7.021c-2.57,3.223 -5.227,4.832 -7.955,4.832c-5.02,0 -8.294,-2.182 -9.832,-6.549C5.068,47.547 4.91,46.66 4.91,45.723v-1.246c0,-3.693 1.146,-6.602 3.435,-8.738c0.411,0.16 0.626,0.52 0.626,1.092l-2.496,4.525l-0.16,1.559c0,3.514 1.923,5.957 5.771,7.334l4.061,0.314c1.71,0 3.848,-0.992 6.396,-2.963c0.932,-1.512 1.405,-2.602 1.405,-3.281c-0.106,-1.039 -0.785,-2.543 -2.029,-4.52v-3.281l0.466,-0.467c1.131,2.277 3.222,3.375 6.264,3.295V43.732z" id="path_7"/><path fill="#000001" d="M20.778,22.244c0.16,-0.092 0.207,0.055 0.141,0.434c-0.885,2.076 -2.244,3.527 -4.073,4.348l-6.73,3.375c-0.286,-0.08 -0.339,-0.314 -0.16,-0.707c0.899,-1.73 1.512,-2.756 1.838,-3.082L20.778,22.244z" id="path_8"/></svg>