<svg id="vector" xmlns="http://www.w3.org/2000/svg" width="75" height="67" viewBox="0 0 83 73"><path fill="#000001" d="M72.874,26.096c0.314,0 0.626,1.047 0.939,3.123l1.405,3.123l-0.626,3.588l0.466,8.738v1.398c-0.207,3.566 -0.726,5.645 -1.558,6.244l-0.152,-0.154l0.152,-2.342c0,-2.104 -0.679,-8.813 -2.03,-20.123C72.123,27.295 72.587,26.096 72.874,26.096z" id="path_0"/><path fill="#000001" d="M77.534,16.971c0.16,-0.092 0.206,0.055 0.139,0.434c-0.885,2.076 -2.243,3.527 -4.073,4.346l-6.73,3.375c-0.286,-0.08 -0.339,-0.313 -0.16,-0.705c0.899,-1.73 1.511,-2.756 1.838,-3.082L77.534,16.971z" id="path_1"/><path fill="#213e95" d="M57.118,49.309c0.179,0.014 0.373,0.02 0.585,0.02h1.479c1.564,-0.26 2.755,-0.807 3.588,-1.639l-1.87,-14.822c0.465,-2.811 0.885,-4.207 1.244,-4.207l2.03,4.68c0,0.725 -0.259,1.816 -0.778,3.273l0.778,8.422v2.342c-0.585,2.482 -1.371,4.221 -2.356,5.205c-0.746,0.793 -1.618,1.191 -2.636,1.191h-1.324c-0.26,0 -0.506,-0.006 -0.739,-0.02V49.309z" id="path_2"/><path fill="#213e95" d="M61.664,19.666h1.544c1.87,0 2.809,0.699 2.809,2.105c-1.212,3.273 -2.683,5.012 -4.413,5.211l-2.043,0.273c-0.328,0 -0.46,-0.094 -0.413,-0.273c1.65,-0.873 3.195,-1.91 4.625,-3.102c-0.505,-0.473 -1.065,-0.705 -1.677,-0.705h-0.433l-1.677,0.139l-0.133,-0.139v-0.273C60.646,20.746 61.252,19.666 61.664,19.666z" id="path_3"/><path fill="#DD2C00" d="M37.788,47.863c1.278,0 2.21,0 2.809,0h0.626c1.87,-0.246 4.666,-1.045 8.387,-2.396c-1.251,-1.043 -3.175,-1.824 -5.771,-2.342c-1.537,0 -2.576,0.725 -3.122,2.184c-0.194,0.432 -0.365,0.545 -0.52,0.34c-0.146,-0.201 -0.186,-0.467 -0.106,-0.807c0.939,-3.148 2.184,-4.721 3.748,-4.721h1.092c1.039,0 2.916,0.586 5.625,1.758c2.708,1.166 5.046,1.639 7.009,1.404c0.247,0 0.353,0.154 0.313,0.467c-0.419,2.596 -1.199,3.9 -2.343,3.9l-0.779,0.152v0.314c0.393,0.818 2.19,1.211 5.406,1.172v4.426c-4.653,0.246 -6.976,-1.564 -6.963,-5.438c-1.664,0.244 -3.92,1.018 -6.77,2.328c-2.85,1.307 -5.725,1.863 -8.64,1.684V47.863z" id="path_4"/><path fill="#DD2C00" d="M54.522,26.996c0.16,-0.094 0.206,0.053 0.14,0.432c-0.886,2.078 -2.244,3.529 -4.074,4.348l-6.729,3.373c-0.286,-0.078 -0.339,-0.311 -0.16,-0.705c0.899,-1.73 1.511,-2.754 1.838,-3.082L54.522,26.996z" id="path_5"/><path fill="#213e95" d="M24.075,47.863h0.353c1.064,0 2.19,-0.412 3.375,-1.238s1.877,-1.863 2.089,-3.107l0.154,-0.16h0.152c0.188,0 0.447,0.572 0.786,1.717c1.478,2.029 3.561,2.963 6.236,2.809c0.181,0 0.367,-0.006 0.546,-0.02v4.467c-0.18,0.014 -0.366,0.02 -0.546,0.02l-2.182,-0.252c-0.234,2.076 -0.913,3.115 -2.03,3.121h-0.314c-2.077,-0.393 -3.115,-1.119 -3.115,-2.189l0.466,-2.809c-0.367,-0.414 -0.726,-0.621 -1.092,-0.621c-1.172,1.832 -2.795,2.736 -4.879,2.711V47.863z" id="path_6"/><path fill="#213e95" d="M30.512,28.055h1.544c1.871,0 2.809,0.697 2.809,2.104c-1.211,3.275 -2.683,5.012 -4.413,5.211l-2.044,0.273c-0.326,0 -0.459,-0.094 -0.413,-0.273c1.651,-0.871 3.195,-1.91 4.627,-3.102c-0.507,-0.473 -1.066,-0.705 -1.678,-0.705h-0.432l-1.678,0.139l-0.134,-0.139v-0.273C29.493,29.133 30.099,28.055 30.512,28.055z" id="path_7"/><path fill="#000001" d="M25.067,52.33c-2.676,-0.18 -5.105,-1.645 -7.289,-4.387h-0.16c-0.932,5.406 -3.015,8.107 -6.237,8.113h-0.473c-1.397,-0.006 -2.755,-1.252 -4.053,-3.746c-1.04,-3.508 -1.558,-6.164 -1.558,-7.955v-1.25c0,-0.779 0.153,-1.199 0.466,-1.246c0.439,0.232 0.965,1.938 1.571,5.119c0.605,3.176 1.851,4.693 3.734,4.553c3.641,-0.6 5.565,-2.682 5.771,-6.244l-1.405,-4.832v-1.719c0.054,-2.082 0.26,-3.121 0.626,-3.121c0.206,0.467 0.366,0.939 0.465,1.404l2.184,6.863c1.717,2.783 3.84,4.102 6.357,3.941V52.33z" id="path_8"/><path fill="#000001" d="M16.121,21.004c1.598,0 2.396,0.986 2.396,2.949c0,3.129 -2.67,5.799 -8.015,7.994c-0.764,0.234 -0.858,-0.045 -0.272,-0.838c0.146,-0.299 1.404,-1.238 3.78,-2.809v-0.133c-1.025,-0.42 -1.537,-1.313 -1.537,-2.676c0.679,-2.99 1.757,-4.488 3.235,-4.488H16.121L16.121,21.004zM13.737,24.381c0,0.83 0.706,1.344 2.11,1.543h0.273c0.52,0 0.852,-0.193 0.993,-0.566c0,-0.844 -0.613,-1.504 -1.832,-1.969C14.75,23.389 14.237,23.721 13.737,24.381z" id="path_9"/></svg>