<svg id="vector" xmlns="http://www.w3.org/2000/svg" width="75" height="67" viewBox="0 0 83 73"><path fill="#DD2C00" d="M45.759,42.831c1.229,0 2.125,0 2.702,0h0.601c1.799,-0.238 4.487,-1.006 8.066,-2.305c-1.203,-1.004 -3.054,-1.753 -5.55,-2.252c-1.478,0 -2.477,0.697 -3.001,2.099c-0.187,0.417 -0.353,0.525 -0.5,0.328c-0.141,-0.193 -0.179,-0.449 -0.103,-0.775c0.903,-3.027 2.1,-4.538 3.604,-4.538h1.05c0.999,0 2.803,0.563 5.409,1.69c2.605,1.12 4.852,1.574 6.74,1.351c0.238,0 0.339,0.147 0.301,0.448c-0.403,2.496 -1.151,3.752 -2.253,3.752l-0.749,0.146v0.3c0.378,0.788 2.106,1.167 5.198,1.127v4.257c-4.475,0.237 -6.708,-1.504 -6.696,-5.23c-1.6,0.237 -3.77,0.98 -6.509,2.241c-2.74,1.255 -5.505,1.792 -8.309,1.619V42.831z" id="path_0"/><path fill="#DD2C00" d="M56.148,22.45h1.484c1.799,0 2.702,0.672 2.702,2.022c-1.165,3.149 -2.58,4.82 -4.245,5.012l-1.965,0.263c-0.314,0 -0.441,-0.09 -0.396,-0.263c1.587,-0.838 3.072,-1.837 4.448,-2.983c-0.486,-0.454 -1.024,-0.679 -1.613,-0.679h-0.416l-1.614,0.135l-0.127,-0.135v-0.262C55.168,23.487 55.75,22.45 56.148,22.45z" id="path_1"/><path fill="#213e95" d="M32.784,42.831c1.666,0.141 3.08,-0.026 4.257,-0.487l-0.62,-1.126c-0.583,-3.302 -0.321,-5.485 0.787,-6.554c1.114,-1.07 2.31,-1.561 3.584,-1.473c2.478,0.115 3.873,1.415 4.2,3.898v0.902c0,2.075 -0.301,3.374 -0.897,3.898c-0.377,0.39 0.474,0.718 2.548,0.98l0.486,-0.02c0.378,-0.013 0.807,-0.019 1.293,-0.019v4.275l-1.517,0.02c-2.823,-0.012 -4.961,-0.372 -6.414,-1.069c-1.997,0.697 -3.552,1.049 -4.647,1.049h-0.602c-0.748,0 -1.568,0 -2.458,0V42.831L32.784,42.831zM38.09,38.593v0.3c0.628,1.076 1.576,1.826 2.849,2.247c0.851,-0.146 1.702,-0.499 2.555,-1.049c-0.378,-1.402 -1.626,-2.202 -3.752,-2.401C38.642,37.991 38.09,38.292 38.09,38.593z" id="path_2"/><path fill="#213e95" d="M38.993,25.842c1.3,0 2.496,0.801 3.598,2.4c-0.923,2.1 -1.626,3.149 -2.101,3.149c-2.022,-0.999 -3.123,-1.652 -3.302,-1.952C37.188,28.492 37.79,27.289 38.993,25.842z" id="path_3"/><path fill="#213e95" d="M40.325,12.561c1.536,0 2.304,0.946 2.304,2.835c0,3.008 -2.567,5.576 -7.707,7.688c-0.736,0.223 -0.826,-0.045 -0.263,-0.807c0.141,-0.288 1.351,-1.19 3.635,-2.701v-0.128c-0.985,-0.403 -1.478,-1.261 -1.478,-2.573c0.653,-2.875 1.689,-4.314 3.111,-4.314H40.325L40.325,12.561zM38.034,15.806c0,0.799 0.679,1.293 2.028,1.485h0.263c0.499,0 0.819,-0.186 0.954,-0.544c0,-0.813 -0.589,-1.446 -1.761,-1.895C39.007,14.853 38.513,15.172 38.034,15.806z" id="path_4"/><path fill="#000001" d="M33.252,47.106l-1.69,-0.02c-0.935,4.117 -3.412,6.196 -7.425,6.248c-2.151,0.096 -3.226,0.058 -3.226,-0.115c0.198,-0.378 1.639,-1.102 4.314,-2.177c2.751,-1.747 4.409,-2.875 4.986,-3.374l0.153,-0.449l-2.624,-0.415c-1.915,-0.5 -2.989,-1.46 -3.227,-2.886v-0.301c0,-2.426 0.596,-3.976 1.799,-4.654l0.903,-0.146c1.772,0 3.22,1.234 4.346,3.711c0.717,0.25 1.28,0.373 1.69,0.359V47.106z" id="path_5"/><path fill="#000001" d="M26.294,26.475h1.485c1.799,0 2.702,0.673 2.702,2.024c-1.167,3.148 -2.58,4.819 -4.245,5.012l-1.965,0.262c-0.314,0 -0.443,-0.09 -0.397,-0.262c1.586,-0.839 3.073,-1.838 4.448,-2.983c-0.486,-0.455 -1.023,-0.679 -1.613,-0.679h-0.416l-1.613,0.134l-0.129,-0.134v-0.261C25.315,27.513 25.898,26.475 26.294,26.475z" id="path_6"/><path fill="#008046" d="M15.924,25.146c1.223,0.205 2.426,0.954 3.597,2.252v0.3c-0.749,1.998 -1.299,2.996 -1.651,2.996c-2.4,-0.82 -3.597,-1.472 -3.597,-1.945C14.273,27.821 14.823,26.624 15.924,25.146z" id="path_7"/><path fill="#008046" d="M9.792,21.003h0.295c0.327,0.499 0.979,2.151 1.952,4.947l-0.895,3.751l0.447,7.202l-0.3,1.202h0.147c1.78,-1.9 3.917,-2.854 6.414,-2.854h0.153c2.574,0 4.078,1.203 4.501,3.604c0,3.501 -1.402,5.902 -4.2,7.201c0,0.371 -3.342,0.724 -10.018,1.049l-5.101,-0.448v-0.454c0,-0.397 1.554,-0.947 4.653,-1.645l2.099,-4.801v-2.106l-1.05,-13.05C8.889,24.05 9.19,22.853 9.792,21.003L9.792,21.003zM9.939,43.958c5.351,-0.602 8.687,-1.205 10.011,-1.799l1.057,-0.754c-1.031,-1.498 -2.529,-2.247 -4.507,-2.247h-1.459c-1.498,0 -3.098,1.299 -4.8,3.897L9.939,43.958z" id="path_8"/><path fill="#f06022" d="M18.279,52.88l0.154,0.134v0.41c-0.774,1.664 -1.856,2.83 -3.245,3.507c-4.302,2.336 -6.689,3.507 -7.163,3.507c-0.172,0 -0.262,-0.141 -0.262,-0.416c0.41,-1.587 1.313,-2.663 2.701,-3.226l7.688,-3.917H18.279z" id="path_9"/><path fill="#f06022" d="M17.21,49.506c0.18,0 0.263,0.129 0.263,0.39c-0.499,1.454 -1.978,2.759 -4.442,3.925l-5.685,3.11l-0.127,-0.134V56.65c0.537,-1.901 1.395,-3.072 2.567,-3.507l6.343,-3.246L17.21,49.506z" id="path_10"/><path fill="#000001" d="M65.519,44.239c0.205,0 0.416,0 0.64,0h0.154c1.869,-0.116 3.573,-1.671 5.096,-4.667c1.652,-2.503 3.354,-3.751 5.102,-3.751c2.202,0 3.304,1.396 3.304,4.2v0.749c0,1.375 -0.552,3.175 -1.652,5.402L77.11,46.92c-0.928,0 -3.071,-0.653 -6.451,-1.952c-1.024,1.537 -1.825,2.471 -2.401,2.797c-0.877,0.608 -1.772,0.865 -2.701,0.75h-0.039V44.239L65.519,44.239zM73.06,41.07v0.147c2.598,1.005 4.154,1.504 4.653,1.504c0.199,0 0.3,-0.154 0.3,-0.454c-0.575,-1.498 -1.529,-2.247 -2.855,-2.247C74.238,40.021 73.533,40.372 73.06,41.07z" id="path_11"/><path fill="#000001" d="M77.898,24.057c0.154,-0.09 0.199,0.051 0.134,0.416c-0.852,1.997 -2.157,3.393 -3.917,4.179l-6.471,3.246c-0.276,-0.077 -0.327,-0.301 -0.154,-0.678c0.864,-1.665 1.453,-2.649 1.767,-2.963L77.898,24.057z" id="path_12"/></svg>