<svg id="vector" xmlns="http://www.w3.org/2000/svg" width="75" height="67" viewBox="0 0 83 73"><path fill="#DD2C00" d="M72.333,45.176c0.126,0 0.318,0 0.585,0h0.659c1.664,0 2.729,-0.418 3.202,-1.25v-0.313c-0.786,-2.73 -1.931,-5.213 -3.435,-7.449c0.18,-2.391 0.439,-3.588 0.779,-3.588c0.911,0.732 2.109,3.328 3.588,7.801l0.158,2.031v1.404c-0.498,3.848 -1.977,5.77 -4.445,5.77h-0.507c-0.278,0 -0.472,0.014 -0.585,0.041V45.176z" id="path_0"/><path fill="#DD2C00" d="M71.999,23.742c0.534,0 1.778,0.627 3.742,1.871c0,0.785 -0.619,2.031 -1.87,3.748c-2.497,-0.807 -3.741,-1.539 -3.741,-2.184C70.188,26.592 70.815,25.447 71.999,23.742z" id="path_1"/><path fill="#DD2C00" d="M73.577,11.781c1.598,0 2.396,0.984 2.396,2.949c0,3.129 -2.67,5.797 -8.015,7.994c-0.766,0.232 -0.858,-0.047 -0.272,-0.838c0.146,-0.301 1.404,-1.238 3.781,-2.811v-0.133c-1.025,-0.42 -1.538,-1.313 -1.538,-2.676c0.679,-2.988 1.757,-4.486 3.235,-4.486H73.577L73.577,11.781zM71.194,15.156c0,0.832 0.706,1.344 2.109,1.545h0.273c0.52,0 0.853,-0.193 0.992,-0.566c0,-0.846 -0.613,-1.504 -1.83,-1.971C72.206,14.164 71.693,14.496 71.194,15.156z" id="path_2"/><path fill="#000001" d="M63.772,33.961c0.879,0 2.076,0.732 3.588,2.182v0.314c-1.018,2.184 -1.691,3.281 -2.03,3.281l-3.588,-2.029h-0.159c-1.012,1.742 -1.686,2.676 -2.024,2.809h-0.159c-2.283,-1.02 -3.428,-1.799 -3.428,-2.344c0.832,-2.289 1.557,-3.428 2.184,-3.428l3.74,2.023C62.495,35.551 63.12,34.613 63.772,33.961z" id="path_3"/><path fill="#000001" d="M59.712,29.127c1.02,0 2.156,0.887 3.436,2.65c-0.34,0.805 -1.02,1.744 -2.03,2.809h-0.313c-0.906,-0.207 -1.897,-0.779 -2.962,-1.717v-0.467C57.922,31.572 58.541,30.479 59.712,29.127z" id="path_4"/><path fill="#000001" d="M73.071,49.582c-0.246,0 -0.545,0 -0.898,0c-1.391,-0.012 -2.889,-1.057 -4.506,-3.141c-0.619,2.291 -1.711,3.436 -3.275,3.436h-0.153c-1.324,0 -2.417,-0.779 -3.274,-2.344h-0.16c-0.932,1.877 -2.063,2.729 -3.395,2.557c-2.471,0.014 -3.934,-1.152 -4.406,-3.488c-1.738,2.037 -3.608,3.035 -5.599,2.98h-0.253v-4.445h0.08c3.148,-0.232 5.484,-1.305 7.021,-3.215c0.207,0 0.313,0.152 0.313,0.467l-0.16,1.092c0.833,1.662 1.924,2.494 3.275,2.494c1.278,0 2.576,-1.244 3.901,-3.74h0.159l0.466,0.467v1.09c0,0.986 0.732,1.559 2.184,1.719h0.313c1.352,0 2.603,-1.352 3.748,-4.061h0.153c0.206,0 0.313,0.473 0.313,1.404c0.57,1.318 1.955,2.078 4.152,2.283V49.582z" id="path_5"/><path fill="#000001" d="M66.768,53.064c0.159,-0.086 0.206,0.053 0.14,0.434c-0.885,2.076 -2.243,3.527 -4.073,4.346l-6.729,3.375c-0.287,-0.08 -0.34,-0.313 -0.16,-0.699c0.898,-1.73 1.512,-2.756 1.837,-3.082L66.768,53.064z" id="path_6"/><path fill="#008046" d="M47.245,49.596c-0.141,0.014 -0.287,0.021 -0.427,0.021h-0.786c-1.217,0 -2.049,-0.1 -2.496,-0.313c-0.904,3.5 -1.963,5.645 -3.175,6.43c-1.211,0.785 -3.946,1.449 -8.207,1.996h-0.313c-0.938,-0.105 -1.403,-0.26 -1.403,-0.465c0,-0.313 0.778,-0.68 2.336,-1.092c6.138,-2.811 9.206,-4.84 9.206,-6.084c0,-0.52 -0.726,-1.719 -2.184,-3.588c-0.313,-0.527 -0.466,-1.199 -0.466,-2.031v-1.557c0,-0.785 0.153,-1.199 0.466,-1.252c1.352,2.07 3.641,3.223 6.863,3.467c0.199,0 0.393,0 0.586,-0.012V49.596z" id="path_7"/><path fill="#008046" d="M43.95,30.779c0.16,-0.094 0.205,0.053 0.139,0.432c-0.885,2.078 -2.243,3.529 -4.073,4.348l-6.729,3.375c-0.286,-0.08 -0.34,-0.313 -0.16,-0.707c0.898,-1.73 1.511,-2.756 1.838,-3.082L43.95,30.779z" id="path_8"/><path fill="#000001" d="M14.001,34.641c1.219,0.365 2.471,1.145 3.742,2.342v0.154c-1.172,2.057 -1.844,3.094 -2.03,3.121h-0.466c-0.886,-0.127 -1.818,-0.699 -2.81,-1.717v-0.154C12.545,37.162 13.063,35.918 14.001,34.641z" id="path_9"/><path fill="#000001" d="M19.927,34.953c1.145,0.26 2.289,0.938 3.435,2.029v0.154c0,0.572 -0.626,1.617 -1.87,3.121h-0.473c-0.726,0 -1.665,-0.572 -2.81,-1.717C18.495,36.93 19.067,35.73 19.927,34.953z" id="path_10"/><path fill="#000001" d="M7.313,36.67h0.153l0.313,0.313c-0.832,1.844 -1.244,3.096 -1.244,3.74c0,3.043 2.908,4.814 8.732,5.307l1.871,0.313c1.877,0 4.68,-0.572 8.426,-1.717l2.185,-1.246c-0.727,-1.324 -1.198,-2.469 -1.405,-3.434l0.313,-2.963h0.313c1.245,1.299 1.87,3.588 1.87,6.863c0,3.148 -2.756,5.279 -8.268,6.396l-2.342,0.313c-8.734,0 -13.1,-2.861 -13.1,-8.58C5.13,39.586 5.854,37.814 7.313,36.67z" id="path_11"/><path fill="#000001" d="M16.358,22.318h1.545c1.869,0 2.809,0.699 2.809,2.104c-1.212,3.275 -2.683,5.012 -4.413,5.213l-2.044,0.271c-0.326,0 -0.459,-0.092 -0.412,-0.271c1.65,-0.873 3.195,-1.91 4.625,-3.102c-0.506,-0.475 -1.064,-0.707 -1.677,-0.707h-0.433l-1.678,0.141l-0.133,-0.141v-0.273C15.341,23.396 15.946,22.318 16.358,22.318z" id="path_12"/></svg>