<svg id="vector" xmlns="http://www.w3.org/2000/svg" width="100" height="67" viewBox="0 0 171 73"><path fill="#000001" d="M156.563,41.74c0.198,0 0.409,0 0.631,0h0.801c3.016,-0.5 4.526,-1.41 4.526,-2.727c-1.431,-1.336 -3.737,-2 -6.924,-2l-1.829,0.164h-1.982l-0.482,-4.709l6.958,-5.174l7.055,-5.061c0.347,-0.211 0.477,-0.119 0.397,0.268l-2.925,5.328h-0.137l-0.131,-0.932h-0.267l-8.521,6.389h3.062c3.607,0 6.004,1.018 7.191,3.063l0.131,0.795v0.268c-0.012,3.385 -1.563,5.912 -4.658,7.588c-0.886,0.357 -1.642,0.533 -2.266,0.533c-0.222,0 -0.433,0 -0.631,0V41.74z" id="path_0"/><path fill="#000001" d="M164.083,16.213c0.136,-0.078 0.176,0.045 0.119,0.369c-0.756,1.773 -1.914,3.012 -3.477,3.709l-5.742,2.881c-0.244,-0.068 -0.29,-0.268 -0.137,-0.604c0.767,-1.477 1.29,-2.352 1.567,-2.629L164.083,16.213z" id="path_1"/><path fill="#213e95" d="M157.363,45.533h-0.335c-3.215,0 -5.215,-2.26 -5.986,-6.787l-0.801,-12.916c0.334,-1.863 0.687,-2.926 1.067,-3.193h0.13c0.177,0 0.268,0.131 0.268,0.398c0,8.811 0.573,14.377 1.732,16.705c1.176,1.301 2.482,1.959 3.925,1.982V45.533z" id="path_2"/><path fill="#DD2C00" d="M141.276,40.893c0.153,0.012 0.317,0.018 0.5,0.018h1.261c1.335,-0.221 2.352,-0.688 3.062,-1.396l-1.596,-12.65c0.397,-2.396 0.755,-3.59 1.062,-3.59l1.732,3.994c0,0.619 -0.222,1.551 -0.665,2.793l0.665,7.186v2c-0.5,2.119 -1.17,3.602 -2.011,4.441c-0.636,0.676 -1.38,1.018 -2.249,1.018h-1.131c-0.221,0 -0.431,-0.006 -0.63,-0.018V40.893z" id="path_3"/><path fill="#DD2C00" d="M145.593,15.6h1.318c1.596,0 2.396,0.598 2.396,1.795c-1.033,2.795 -2.289,4.277 -3.766,4.447l-1.744,0.234c-0.278,0 -0.392,-0.08 -0.352,-0.234c1.408,-0.744 2.727,-1.629 3.947,-2.646c-0.432,-0.402 -0.909,-0.602 -1.432,-0.602h-0.369l-1.432,0.119l-0.113,-0.119v-0.232C144.724,16.52 145.241,15.6 145.593,15.6z" id="path_4"/><path fill="#213e95" d="M124.651,40.939c1.477,0.125 7.525,-0.053 8.57,-0.461l-0.551,-1c-0.517,-2.932 -0.284,-4.867 0.699,-5.816c0.988,-0.949 2.05,-1.385 3.181,-1.307c2.198,0.104 3.437,1.256 3.726,3.459v0.801c0,1.842 -0.267,2.994 -0.795,3.461c-0.335,0.346 0.421,0.635 2.261,0.867l0.432,-0.016c0.335,-0.012 0.716,-0.018 1.147,-0.018v3.795l-1.347,0.018c-2.505,-0.012 -4.401,-0.33 -5.69,-0.949c-3.86,1.348 -7.574,0.959 -11.633,0.959V40.939L124.651,40.939zM134.153,37.15v0.268c0.557,0.953 1.397,1.617 2.528,1.992c0.755,-0.131 1.511,-0.443 2.266,-0.932c-0.335,-1.244 -1.442,-1.953 -3.328,-2.129C134.642,36.615 134.153,36.883 134.153,37.15z" id="path_5"/><path fill="#213e95" d="M134.954,25.836c1.153,0 2.216,0.709 3.192,2.129c-0.817,1.863 -1.442,2.795 -1.862,2.795c-1.796,-0.887 -2.772,-1.465 -2.932,-1.732C133.353,28.188 133.887,27.119 134.954,25.836z" id="path_6"/><path fill="#213e95" d="M139.811,16.498c0.137,-0.08 0.176,0.045 0.119,0.369c-0.755,1.771 -1.914,3.01 -3.476,3.709l-5.743,2.879c-0.244,-0.068 -0.289,-0.268 -0.136,-0.602c0.767,-1.477 1.289,-2.352 1.567,-2.631L139.811,16.498z" id="path_7"/><path fill="#008046" d="M129.439,44.717c-0.119,0.01 -0.245,0.016 -0.364,0.016h-0.67c-1.039,0 -1.749,-0.084 -2.13,-0.266c-0.772,2.986 -1.676,4.816 -2.71,5.486c-1.033,0.67 -3.368,1.238 -7.003,1.703h-0.268c-0.801,-0.09 -1.198,-0.221 -1.198,-0.396c0,-0.268 0.665,-0.58 1.994,-0.932c5.236,-2.396 7.855,-4.129 7.855,-5.191c0,-0.443 -0.619,-1.467 -1.863,-3.063c-0.267,-0.447 -0.397,-1.021 -0.397,-1.732v-1.328c0,-0.67 0.131,-1.023 0.397,-1.068c1.153,1.766 3.107,2.748 5.856,2.959c0.17,0 0.335,0 0.5,-0.012V44.717z" id="path_8"/><path fill="#008046" d="M126.627,28.658c0.137,-0.08 0.177,0.045 0.12,0.369c-0.756,1.771 -1.915,3.012 -3.477,3.709l-5.743,2.881c-0.243,-0.068 -0.289,-0.268 -0.136,-0.604c0.767,-1.477 1.29,-2.352 1.567,-2.629L126.627,28.658z" id="path_9"/><path fill="#008046" d="M114.232,23.166c0.268,0 0.534,0.893 0.801,2.664l1.198,2.664l-0.534,3.061l0.398,7.459v1.193c-0.177,3.043 -0.619,4.816 -1.329,5.326l-0.131,-0.131l0.131,-1.998c0,-1.795 -0.58,-7.521 -1.732,-17.172C113.591,24.188 113.988,23.166 114.232,23.166z" id="path_10"/><path fill="#000001" d="M109.864,33.021h0.267c0.313,0 0.489,0.885 0.534,2.664v0.527c0,2.932 -0.886,4.396 -2.664,4.396c-1.687,-0.467 -2.527,-1.045 -2.527,-1.732h-0.131c-0.534,1.42 -1.38,2.131 -2.533,2.131l-1.329,-0.131c0.068,0.664 0.068,1.152 0,1.459c-0.443,2.664 -1.414,4.867 -2.914,6.617c-1.493,1.75 -3.453,2.646 -5.873,2.703h-0.534c-3.816,0 -6.521,-2.129 -8.116,-6.389l-0.137,-1.863v-0.535c0.267,-4.305 1.511,-6.924 3.727,-7.855l0.136,0.137v0.131l-1.999,3.328c-0.375,0.779 -0.642,1.756 -0.795,2.932c0,2.771 1.862,4.811 5.589,6.123l1.329,0.131h1.067c3.017,0 5.635,-1.643 7.855,-4.926v-0.131c-0.181,-1.289 -0.846,-2.754 -1.999,-4.395l-0.131,-0.666V35.15l0.268,-0.266h0.131c1.045,1.51 2.328,2.26 3.862,2.26h0.131c1.176,0 2.062,-0.887 2.664,-2.658l0.13,-0.137h0.267l0.268,0.268v0.396l-0.131,0.535c0.528,0.801 1.238,1.197 2.13,1.197h0.131c0.801,0 1.198,-0.754 1.198,-2.26L109.864,33.021z" id="path_11"/><path fill="#000001" d="M101.515,27.027c0.551,0 1.528,0.666 2.925,2c0,0.443 -0.528,1.42 -1.596,2.926h-0.267c-0.551,0 -1.397,-0.529 -2.528,-1.596v-0.131C100.049,29.691 100.538,28.625 101.515,27.027z" id="path_12"/><path fill="#000001" d="M106.309,26.363c2.215,0.955 3.323,1.711 3.323,2.262c-0.131,0.426 -0.75,1.357 -1.863,2.799c-1.482,-0.578 -2.551,-1.244 -3.192,-1.998C105.042,27.938 105.615,26.92 106.309,26.363z" id="path_13"/><path fill="#000001" d="M103.11,22.502c2.04,0.846 3.062,1.557 3.062,2.129l-1.732,2.664h-0.13c-0.375,0 -1.397,-0.533 -3.062,-1.596C102.065,23.568 102.69,22.502 103.11,22.502z" id="path_14"/><path fill="#000001" d="M106.036,50.441c0.137,-0.074 0.176,0.045 0.119,0.369c-0.756,1.773 -1.914,3.012 -3.476,3.709L96.937,57.4c-0.244,-0.068 -0.29,-0.268 -0.137,-0.598c0.768,-1.477 1.29,-2.352 1.568,-2.629L106.036,50.441z" id="path_15"/><path fill="#000001" d="M80.57,24.527c0.272,0 0.545,0.91 0.817,2.717l1.223,2.717l-0.545,3.123l0.405,7.607v1.217c-0.18,3.105 -0.632,4.912 -1.355,5.434l-0.134,-0.133l0.134,-2.039c0,-1.832 -0.591,-7.672 -1.767,-17.516C79.916,25.57 80.321,24.527 80.57,24.527z" id="path_16"/><path fill="#000001" d="M69.942,43.455c0.156,0.012 0.324,0.018 0.51,0.018h1.286c1.361,-0.227 2.398,-0.701 3.123,-1.426l-1.628,-12.902c0.405,-2.445 0.771,-3.662 1.083,-3.662l1.767,4.072c0,0.633 -0.226,1.582 -0.678,2.852l0.678,7.328v2.041c-0.51,2.16 -1.193,3.672 -2.051,4.529c-0.648,0.689 -1.407,1.037 -2.294,1.037h-1.153c-0.226,0 -0.44,-0.006 -0.643,-0.018V43.455z" id="path_17"/><path fill="#000001" d="M73.3,17.656h1.344c1.628,0 2.445,0.607 2.445,1.83c-1.055,2.852 -2.335,4.363 -3.842,4.537l-1.778,0.236c-0.284,0 -0.4,-0.08 -0.359,-0.236c1.437,-0.76 2.781,-1.664 4.026,-2.701c-0.44,-0.41 -0.927,-0.613 -1.46,-0.613H73.3l-1.461,0.121l-0.115,-0.121v-0.238C72.413,18.594 72.94,17.656 73.3,17.656z" id="path_18"/><path fill="#213e95" d="M58.917,43.473h0.307c0.927,0 1.906,-0.359 2.938,-1.078s1.634,-1.623 1.819,-2.705l0.133,-0.139h0.134c0.162,0 0.388,0.498 0.684,1.494c1.286,1.768 3.1,2.578 5.429,2.445c0.156,0 0.318,-0.006 0.475,-0.018v3.887c-0.156,0.012 -0.318,0.018 -0.475,0.018l-1.9,-0.221c-0.203,1.809 -0.794,2.713 -1.768,2.719h-0.272c-1.808,-0.342 -2.711,-0.975 -2.711,-1.906l0.405,-2.445c-0.318,-0.359 -0.631,-0.539 -0.95,-0.539c-1.02,1.594 -2.433,2.381 -4.246,2.357V43.473z" id="path_19"/><path fill="#213e95" d="M69.676,26.514c0.139,-0.08 0.179,0.047 0.121,0.377c-0.771,1.809 -1.952,3.07 -3.545,3.783l-5.858,2.938c-0.249,-0.07 -0.295,-0.271 -0.139,-0.613c0.782,-1.508 1.315,-2.398 1.599,-2.684L69.676,26.514z" id="path_20"/><path fill="#0992d1" d="M60.959,47.342h-0.034c-3.771,0.07 -6.205,-1.338 -7.317,-4.211c-0.893,2.844 -2.394,4.246 -4.496,4.211h-0.104v-3.869h0.237c1.698,-0.227 2.828,-0.881 3.396,-1.971c-0.359,-0.834 -0.545,-1.604 -0.545,-2.307v-0.271c0.14,-1.9 0.411,-2.85 0.817,-2.85c0.226,0.203 0.452,1.014 0.678,2.443c0.747,1.9 1.923,3.326 3.534,4.277c1.188,0.543 2.462,0.764 3.835,0.66V47.342z" id="path_21"/><path fill="#0992d1" d="M53.862,48.838c0.463,0 1.553,0.543 3.262,1.627c0,0.678 -0.545,1.768 -1.634,3.262c-2.173,-0.707 -3.256,-1.338 -3.256,-1.906C52.292,51.316 52.831,50.32 53.862,48.838z" id="path_22"/><path fill="#0992d1" d="M52.675,25.924h1.344c1.628,0 2.445,0.607 2.445,1.83c-1.055,2.85 -2.335,4.363 -3.842,4.537l-1.778,0.236c-0.284,0 -0.399,-0.08 -0.359,-0.236c1.437,-0.76 2.781,-1.664 4.026,-2.701c-0.439,-0.41 -0.927,-0.613 -1.46,-0.613h-0.376l-1.461,0.121l-0.115,-0.121v-0.238C51.788,26.861 52.315,25.924 52.675,25.924z" id="path_23"/><path fill="#213e95" d="M39.609,32.256c0.563,0 1.559,0.678 2.984,2.033c0,0.451 -0.539,1.449 -1.628,2.99h-0.272c-0.568,0 -1.426,-0.545 -2.578,-1.635v-0.133C38.115,34.967 38.613,33.885 39.609,32.256z" id="path_24"/><path fill="#213e95" d="M44.494,31.572c2.265,0.973 3.395,1.744 3.395,2.313c-0.133,0.428 -0.765,1.377 -1.9,2.85c-1.518,-0.592 -2.602,-1.27 -3.256,-2.039C43.208,33.182 43.793,32.139 44.494,31.572z" id="path_25"/><path fill="#213e95" d="M41.237,27.639c2.08,0.857 3.123,1.582 3.123,2.172l-1.767,2.711H42.46c-0.389,0 -1.425,-0.539 -3.123,-1.627C40.172,28.721 40.809,27.639 41.237,27.639z" id="path_26"/><path fill="#213e95" d="M37.211,43.473c0.968,0.012 1.564,-0.006 1.802,-0.053c2.039,-0.619 3.43,-1.941 4.178,-3.951c0.109,-0.389 0.336,-0.436 0.678,-0.139c0.18,0.156 0.318,0.793 0.405,1.9c1.234,1.662 2.775,2.41 4.617,2.242h0.359v3.869h-0.087c-2.885,-0.133 -5.012,-1.447 -6.385,-3.939h-0.133c-0.962,2.027 -2.23,3.273 -3.801,3.736c-0.475,0.135 -1.02,0.203 -1.634,0.203V43.473z" id="path_27"/><path fill="#213e95" d="M41.542,17.094c1.39,0 2.085,0.857 2.085,2.566c0,2.723 -2.323,5.047 -6.976,6.959c-0.666,0.201 -0.747,-0.041 -0.237,-0.73c0.128,-0.262 1.223,-1.078 3.291,-2.445v-0.115c-0.893,-0.365 -1.338,-1.143 -1.338,-2.33c0.591,-2.602 1.529,-3.904 2.815,-3.904H41.542L41.542,17.094zM39.468,20.031c0,0.725 0.613,1.17 1.836,1.344h0.238c0.451,0 0.741,-0.168 0.863,-0.492c0,-0.736 -0.533,-1.309 -1.594,-1.715C40.348,19.168 39.901,19.457 39.468,20.031z" id="path_28"/><path fill="#000001" d="M37.553,47.342l-1.529,-0.018c-0.846,3.727 -3.088,5.609 -6.721,5.656c-1.946,0.086 -2.92,0.051 -2.92,-0.105c0.18,-0.342 1.483,-0.996 3.904,-1.969c2.492,-1.582 3.992,-2.602 4.514,-3.055l0.139,-0.404l-2.375,-0.377c-1.732,-0.453 -2.706,-1.322 -2.92,-2.613v-0.271c0,-2.197 0.539,-3.6 1.628,-4.213l0.817,-0.133c1.604,0 2.914,1.117 3.934,3.359c0.648,0.227 1.159,0.336 1.529,0.324V47.342z" id="path_29"/><path fill="#000001" d="M31.255,28.67H32.6c1.628,0 2.444,0.607 2.444,1.83c-1.054,2.852 -2.334,4.363 -3.841,4.537l-1.778,0.236c-0.284,0 -0.4,-0.08 -0.359,-0.236c1.437,-0.76 2.781,-1.664 4.026,-2.701c-0.44,-0.41 -0.927,-0.613 -1.46,-0.613h-0.377l-1.46,0.121l-0.115,-0.121v-0.238C30.368,29.607 30.896,28.67 31.255,28.67z" id="path_30"/><path fill="#DD2C00" d="M12.715,33.918c0.568,0 1.564,0.678 2.99,2.033c0,0.453 -0.545,1.449 -1.628,2.99h-0.272c-0.568,0 -1.426,-0.545 -2.584,-1.629v-0.139C11.221,36.629 11.719,35.547 12.715,33.918z" id="path_31"/><path fill="#DD2C00" d="M17.605,33.234C19.87,34.209 21,34.979 21,35.547c-0.133,0.428 -0.771,1.379 -1.9,2.85c-1.518,-0.59 -2.602,-1.268 -3.262,-2.039C16.313,34.846 16.904,33.803 17.605,33.234z" id="path_32"/><path fill="#DD2C00" d="M14.349,29.301c2.08,0.857 3.123,1.582 3.123,2.172l-1.767,2.713h-0.14c-0.382,0 -1.425,-0.539 -3.122,-1.629C13.283,30.385 13.914,29.301 14.349,29.301z" id="path_33"/><path fill="#DD2C00" d="M7.165,35.256h0.139l0.272,0.273c-0.725,1.604 -1.089,2.693 -1.089,3.256c0,2.648 2.537,4.189 7.606,4.617l1.628,0.273c1.629,0 4.073,-0.5 7.329,-1.496l1.906,-1.084c-0.637,-1.152 -1.043,-2.148 -1.223,-2.988l0.267,-2.578h0.272c1.089,1.129 1.634,3.123 1.634,5.973c0,2.74 -2.398,4.594 -7.201,5.568l-2.034,0.271c-7.606,0 -11.407,-2.49 -11.407,-7.467C5.265,37.795 5.896,36.254 7.165,35.256z" id="path_34"/><path fill="#DD2C00" d="M20.166,49.717c0.139,-0.074 0.18,0.047 0.121,0.377c-0.771,1.809 -1.952,3.07 -3.545,3.783l-5.857,2.938c-0.25,-0.068 -0.296,-0.271 -0.14,-0.607c0.782,-1.508 1.315,-2.398 1.6,-2.684L20.166,49.717z" id="path_35"/></svg>