<svg id="vector" xmlns="http://www.w3.org/2000/svg" width="75" height="67" viewBox="0 0 83 73"><path fill="#213e95" d="M63.141,41.948c0.213,0 0.432,0 0.666,0h0.159c1.943,-0.119 3.714,-1.737 5.298,-4.852c1.718,-2.604 3.488,-3.901 5.307,-3.901c2.289,0 3.434,1.45 3.434,4.366v0.779c0,1.432 -0.572,3.301 -1.717,5.618l-1.092,0.778c-0.966,0 -3.195,-0.679 -6.71,-2.03c-1.065,1.599 -1.897,2.569 -2.496,2.909c-0.911,0.633 -1.845,0.898 -2.81,0.779h-0.039V41.948L63.141,41.948zM70.981,38.653v0.153c2.702,1.046 4.32,1.563 4.839,1.563c0.207,0 0.313,-0.159 0.313,-0.473c-0.599,-1.557 -1.591,-2.336 -2.97,-2.336C72.206,37.561 71.474,37.928 70.981,38.653z" id="path_0"/><path fill="#213e95" d="M75.834,48.77c0.16,-0.086 0.206,0.055 0.14,0.434c-0.886,2.076 -2.243,3.527 -4.073,4.347l-6.73,3.375c-0.285,-0.08 -0.34,-0.313 -0.158,-0.699c0.897,-1.731 1.51,-2.756 1.836,-3.081L75.834,48.77z" id="path_1"/><path fill="#000001" d="M63.766,46.395c-0.246,0 -0.546,0 -0.898,0c-1.391,-0.014 -2.889,-1.059 -4.506,-3.143c-0.619,2.291 -1.711,3.436 -3.275,3.436h-0.153c-1.324,0 -2.416,-0.779 -3.274,-2.344h-0.16c-0.932,1.877 -2.064,2.729 -3.395,2.557c-2.471,0.014 -3.935,-1.152 -4.406,-3.488c-1.738,2.037 -3.607,3.035 -5.6,2.982h-0.252v-4.447h0.08c3.148,-0.105 5.484,-1.178 7.022,-3.215c0.206,0 0.313,0.153 0.313,0.467l-0.16,1.091c0.832,1.664 1.924,2.496 3.275,2.496c1.277,0 2.576,-1.244 3.9,-3.74h0.159l0.466,0.466v1.092c0,0.985 0.732,1.557 2.184,1.717h0.313c1.352,0 2.604,-1.352 3.748,-4.061h0.152c0.207,0 0.313,0.473 0.313,1.405c0.572,1.577 1.956,2.336 4.153,2.282V46.395z" id="path_2"/><path fill="#000001" d="M50.953,23.895h1.543c1.871,0 2.809,0.699 2.809,2.104c-1.211,3.274 -2.682,5.013 -4.412,5.212l-2.045,0.273c-0.325,0 -0.459,-0.094 -0.412,-0.273c1.65,-0.871 3.195,-1.91 4.627,-3.102c-0.506,-0.473 -1.066,-0.706 -1.678,-0.706h-0.432l-1.679,0.14l-0.133,-0.14v-0.272C49.934,24.974 50.539,23.895 50.953,23.895z" id="path_3"/><path fill="#DD2C00" d="M38.418,46.395h-0.199c-3.889,0.106 -6.957,-1.725 -9.199,-5.479c-0.12,0.426 -0.24,0.826 -0.354,1.191c-0.325,0.885 -0.758,1.598 -1.305,2.143c-0.419,0.467 -0.938,0.859 -1.563,1.173c-1.365,0.737 -3.282,1.317 -5.751,1.737l-4.408,0.153h-1.563c-3.688,0 -6.503,-1.352 -8.44,-4.055c-0.52,-0.911 -0.725,-2.11 -0.605,-3.587c0.6,-3.854 1.378,-5.778 2.342,-5.778c0.334,0 0.547,0.159 0.621,0.473c0,0.413 -0.574,1.817 -1.711,4.206v0.16c0,1.818 2.129,3.222 6.389,4.213l1.879,0.154c6.655,0 11.108,-1.139 13.359,-3.415c-0.16,-1.011 -1.139,-3.269 -2.95,-6.763l-0.312,-1.252c-0.334,-1.637 -0.327,-3.135 0.039,-4.5c0.366,-1.363 1.079,-2.31 2.144,-2.828c2.476,-1.664 7.202,-4.42 14.198,-8.268l0.16,0.152v0.313c-1.512,2.362 -2.656,4.553 -3.436,6.55h-0.313l-0.153,-0.778v-0.779l0.153,-0.159v-0.154h-0.153c-5.797,3.355 -9.698,5.799 -11.702,7.336v0.153c1.012,2.044 1.811,3.861 2.396,5.458c1.771,3.162 3.435,5.245 4.992,6.25c1.564,1.013 2.97,1.512 4.214,1.512h1.231V46.395z" id="path_4"/><path fill="#f06022" d="M20.458,18.963c1.192,0 1.897,0.792 2.104,2.377v0.433c-0.22,2.649 -1.105,4.38 -2.649,5.185c-2.688,1.691 -5.133,2.537 -7.315,2.537c-0.08,-0.014 -0.154,-0.033 -0.233,-0.061c-0.079,-0.026 -0.14,-0.066 -0.187,-0.12c-0.045,-0.046 -0.04,-0.08 0.014,-0.093c0.113,-0.26 2.077,-1.298 5.885,-3.103v-0.14c-1.025,-0.645 -1.537,-1.537 -1.537,-2.668C17.15,20.408 18.455,18.963 20.458,18.963L20.458,18.963zM17.942,21.905v0.135c0,0.965 0.659,1.53 1.971,1.697h0.405c0.5,0 0.779,-0.141 0.839,-0.426c0,-1.313 -0.699,-1.971 -2.103,-1.971C18.314,21.506 17.942,21.7 17.942,21.905z" id="path_5"/><path fill="#f06022" d="M17.377,16.427c0.299,-0.146 0.439,-0.046 0.426,0.293c-1.504,1.664 -2.689,3.241 -3.548,4.739c-0.245,0.586 -0.386,1.064 -0.419,1.451s0.066,0.799 0.306,1.238h0.292c0.115,-0.652 0.347,-0.979 0.699,-0.979c0.42,0.186 0.652,0.373 0.699,0.566v0.271c0.027,1.485 -0.393,2.377 -1.264,2.677h-0.699c-0.938,-0.187 -1.404,-1.265 -1.404,-3.242C12.465,21.041 14.102,18.704 17.377,16.427z" id="path_6"/></svg>