<svg id="vector" xmlns="http://www.w3.org/2000/svg" width="75" height="67" viewBox="0 0 83 73"><path fill="#000001" d="M62.283,31.86c1.537,0.494 2.736,1.119 3.588,1.871v0.313c0,0.52 -0.566,1.664 -1.711,3.436c-1.064,0 -2.264,-0.573 -3.588,-1.718v-0.313C60.572,34.33 61.145,33.131 62.283,31.86z" id="path_0"/><path fill="#000001" d="M57.838,49.839c4.086,0.04 6.369,-0.726 6.869,-2.304c0,-0.545 -0.52,-1.896 -1.564,-4.053l0.473,-4.054h0.305c1.359,2.337 2.031,4.68 2.031,7.016v1.404c0,0.938 -0.227,1.924 -0.672,2.956c-0.445,1.031 -1.139,1.904 -2.064,2.604c-0.932,0.704 -2.721,0.996 -5.377,0.878V49.839z" id="path_1"/><path fill="#000001" d="M68.602,22.402c0.16,-0.094 0.205,0.053 0.139,0.433c-0.885,2.077 -2.244,3.527 -4.074,4.346l-6.729,3.375c-0.287,-0.08 -0.34,-0.313 -0.16,-0.705c0.898,-1.73 1.51,-2.756 1.838,-3.082L68.602,22.402z" id="path_2"/><path fill="#008046" d="M36.09,48.375c1.279,0 2.209,0 2.809,0h0.627c1.869,-0.246 4.666,-1.045 8.387,-2.396c-1.252,-1.045 -3.176,-1.824 -5.771,-2.344c-1.537,0 -2.576,0.727 -3.121,2.184c-0.193,0.434 -0.367,0.547 -0.52,0.34c-0.146,-0.2 -0.188,-0.467 -0.107,-0.806c0.939,-3.148 2.184,-4.72 3.748,-4.72h1.092c1.039,0 2.916,0.586 5.625,1.758c2.709,1.164 5.045,1.638 7.01,1.404c0.246,0 0.352,0.153 0.313,0.467c-0.42,2.596 -1.199,3.9 -2.344,3.9l-0.779,0.152v0.313c0.395,0.819 2.191,1.211 5.406,1.171v4.427c-4.654,0.247 -6.977,-1.563 -6.963,-5.438c-1.664,0.246 -3.92,1.019 -6.77,2.33c-2.85,1.305 -5.725,1.863 -8.641,1.684V48.375z" id="path_3"/><path fill="#008046" d="M43.871,32.286c2.184,1.092 3.281,2.031 3.281,2.81c-1.045,2.051 -1.664,3.096 -1.877,3.122h-0.313c-1.598,-0.805 -2.582,-1.537 -2.963,-2.184C42.367,34.85 42.992,33.598 43.871,32.286z" id="path_4"/><path fill="#008046" d="M44.025,22.188h1.543c1.871,0 2.809,0.699 2.809,2.104c-1.211,3.274 -2.682,5.012 -4.412,5.212l-2.043,0.273c-0.326,0 -0.461,-0.094 -0.414,-0.273c1.652,-0.872 3.195,-1.91 4.627,-3.102c-0.506,-0.473 -1.064,-0.707 -1.678,-0.707h-0.432l-1.678,0.141l-0.133,-0.141v-0.272C43.006,23.266 43.611,22.188 44.025,22.188z" id="path_5"/><path fill="#DD2C00" d="M36.543,52.822H36.43c-2.369,0 -4.293,-1.511 -5.779,-4.526h-0.152c-0.752,2.862 -2.316,4.992 -4.68,6.396c-2.029,0.939 -4.785,1.404 -8.266,1.404l-0.16,-0.152v-0.16c0.08,-0.286 2.156,-1.271 6.242,-2.962c2.051,-1.012 3.875,-2.47 5.459,-4.367c0.412,-0.519 0.779,-1.305 1.092,-2.343c-0.52,-5.512 -0.779,-9.618 -0.779,-12.321c0.207,-2.496 0.52,-3.747 0.934,-3.747c0.391,0 0.811,4.107 1.25,12.328c-0.014,3.727 1.637,5.73 4.953,6.004V52.822z" id="path_6"/><path fill="#f06022" d="M35.191,20.412l0.16,0.14v0.426c-0.813,1.73 -1.938,2.941 -3.375,3.648c-4.473,2.428 -6.957,3.646 -7.449,3.646c-0.186,0 -0.279,-0.146 -0.279,-0.432c0.434,-1.651 1.371,-2.77 2.809,-3.355l8.002,-4.073H35.191z" id="path_7"/><path fill="#f06022" d="M34.08,16.903c0.18,0 0.271,0.133 0.271,0.406c-0.518,1.512 -2.055,2.869 -4.617,4.08l-5.912,3.236l-0.133,-0.141v-0.153c0.559,-1.977 1.443,-3.195 2.668,-3.647l6.592,-3.375L34.08,16.903z" id="path_8"/><path fill="#000001" d="M14.703,28.327c1.271,0 3.873,1.977 7.795,5.93c3.021,3.643 4.525,7.069 4.525,10.298v1.245c-0.08,2.184 -0.285,3.274 -0.625,3.274l-0.313,-0.306v-1.877c0,-2.963 -2.184,-6.604 -6.551,-10.916l-0.779,-0.473c-0.285,1.043 -0.545,1.563 -0.777,1.563l-3.748,-4.68l0.16,-3.901l0.152,-0.158H14.703z" id="path_9"/></svg>