<svg id="vector" xmlns="http://www.w3.org/2000/svg" width="75" height="67" viewBox="0 0 83 73"><path fill="#000001" d="M64.866,40.27c0.186,0 0.375,0 0.577,0h0.139c1.684,-0.108 3.217,-1.555 4.589,-4.344c1.488,-2.331 3.021,-3.493 4.597,-3.493c1.983,0 2.975,1.299 2.975,3.909v0.697c0,1.281 -0.496,2.957 -1.487,5.03l-0.945,0.698c-0.837,0 -2.769,-0.608 -5.813,-1.817c-0.923,1.43 -1.644,2.299 -2.163,2.604c-0.79,0.566 -1.597,0.805 -2.433,0.697h-0.035V40.27L64.866,40.27zM71.659,37.32v0.137c2.342,0.936 3.742,1.4 4.192,1.4c0.178,0 0.271,-0.143 0.271,-0.423c-0.52,-1.395 -1.379,-2.092 -2.572,-2.092C72.72,36.342 72.086,36.67 71.659,37.32z" id="path_0"/><path fill="#000001" d="M76.019,21.48c0.139,-0.083 0.179,0.048 0.121,0.387c-0.768,1.859 -1.943,3.159 -3.529,3.892l-5.83,3.021c-0.247,-0.072 -0.293,-0.281 -0.137,-0.632c0.777,-1.549 1.309,-2.467 1.591,-2.759L76.019,21.48z" id="path_1"/><path fill="#213e95" d="M66.446,44.25c-0.213,0 -0.472,0 -0.778,0c-1.205,-0.012 -2.502,-0.947 -3.904,-2.813c-0.536,2.05 -1.48,3.075 -2.836,3.075h-0.133c-1.147,0 -2.094,-0.697 -2.837,-2.098H55.82c-0.808,1.68 -1.789,2.444 -2.941,2.289c-2.139,0.012 -3.408,-1.031 -3.817,-3.122c-1.505,1.823 -3.125,2.717 -4.849,2.669h-0.22v-3.98h0.069c2.728,-0.096 4.752,-1.055 6.083,-2.879c0.179,0 0.271,0.139 0.271,0.418l-0.138,0.977c0.721,1.489 1.667,2.234 2.837,2.234c1.107,0 2.231,-1.114 3.379,-3.349h0.139l0.404,0.417v0.977c0,0.882 0.634,1.395 1.891,1.538h0.271c1.171,0 2.255,-1.21 3.246,-3.636h0.133c0.18,0 0.271,0.423 0.271,1.258c0.495,1.413 1.695,2.092 3.598,2.044V44.25z" id="path_2"/><path fill="#213e95" d="M55.347,24.102h1.337c1.621,0 2.434,0.626 2.434,1.884c-1.049,2.931 -2.323,4.487 -3.822,4.666l-1.771,0.244c-0.282,0 -0.397,-0.083 -0.356,-0.244c1.429,-0.781 2.767,-1.711 4.007,-2.778c-0.438,-0.422 -0.923,-0.631 -1.453,-0.631h-0.375l-1.453,0.125l-0.115,-0.125v-0.245C54.465,25.067 54.989,24.102 55.347,24.102z" id="path_3"/><path fill="#008046" d="M45.268,44.263c-0.121,0.012 -0.248,0.018 -0.368,0.018h-0.681c-1.056,0 -1.776,-0.09 -2.163,-0.281c-0.784,3.135 -1.7,5.054 -2.75,5.757c-1.05,0.704 -3.42,1.299 -7.109,1.789h-0.271c-0.813,-0.096 -1.217,-0.232 -1.217,-0.417c0,-0.28 0.675,-0.607 2.024,-0.977c5.315,-2.516 7.974,-4.332 7.974,-5.447c0,-0.465 -0.628,-1.538 -1.891,-3.212c-0.271,-0.472 -0.404,-1.072 -0.404,-1.817v-1.395c0,-0.704 0.134,-1.072 0.404,-1.121c1.17,1.854 3.154,2.884 5.945,3.104c0.173,0 0.339,0 0.507,-0.012V44.263z" id="path_4"/><path fill="#008046" d="M38.682,24.847c1.385,0 2.077,0.881 2.077,2.64c0,2.8 -2.313,5.189 -6.942,7.157c-0.663,0.208 -0.744,-0.043 -0.236,-0.751c0.127,-0.269 1.217,-1.109 3.274,-2.516v-0.119c-0.887,-0.375 -1.332,-1.174 -1.332,-2.396c0.589,-2.676 1.523,-4.016 2.803,-4.016H38.682L38.682,24.847zM36.619,27.868c0,0.745 0.61,1.204 1.827,1.383h0.235c0.451,0 0.739,-0.173 0.86,-0.506c0,-0.756 -0.53,-1.346 -1.585,-1.764C37.494,26.98 37.052,27.279 36.619,27.868z" id="path_5"/><path fill="#DD2C00" d="M28.235,37.004h0.542c1.58,0 2.752,1.395 3.518,4.189l0.133,1.395c0.046,0.452 0.046,0.917 0,1.4c-0.403,1.698 -1.309,3.374 -2.705,5.023c-0.968,0.84 -3.171,1.49 -6.618,1.955c-0.404,-0.185 -0.635,-0.37 -0.675,-0.555c5.766,-3.235 8.648,-5.189 8.648,-5.869l0.133,-0.417l-0.133,-0.137l-1.217,0.417h-0.675c-2.433,0 -3.649,-0.887 -3.649,-2.652v-0.279c0.312,-2.891 0.991,-4.333 2.023,-4.333L28.235,37.004z" id="path_6"/><path fill="#DD2C00" d="M26.685,25.395h1.338c1.621,0 2.434,0.626 2.434,1.884c-1.05,2.931 -2.324,4.487 -3.823,4.666l-1.77,0.245c-0.282,0 -0.398,-0.084 -0.358,-0.245c1.43,-0.781 2.768,-1.71 4.007,-2.777c-0.437,-0.423 -0.922,-0.632 -1.452,-0.632h-0.375l-1.452,0.126l-0.115,-0.126v-0.245C25.804,26.36 26.328,25.395 26.685,25.395z" id="path_7"/><path fill="#008046" d="M19.501,37.403c0.807,0.841 1.573,2.651 2.295,5.447l0.139,1.817c0,3.283 -1.581,5.518 -4.735,6.705l-0.945,0.137l-2.399,0.036l-2.328,-0.036l-0.133,-0.137v-0.143c0.288,-0.322 2.226,-1.299 5.806,-2.932c2.255,-1.323 3.472,-2.491 3.65,-3.492c-1.17,-2.581 -1.753,-4.071 -1.753,-4.47v-0.417C19.097,38.244 19.229,37.403 19.501,37.403z" id="path_8"/><path fill="#f06022" d="M21.242,28.357l0.139,0.125v0.381c-0.704,1.549 -1.68,2.634 -2.924,3.266c-3.875,2.175 -6.025,3.266 -6.453,3.266c-0.161,0 -0.241,-0.131 -0.241,-0.388c0.374,-1.479 1.188,-2.479 2.433,-3.003l6.931,-3.646H21.242z" id="path_9"/><path fill="#f06022" d="M20.278,25.216c0.156,0 0.236,0.119 0.236,0.364c-0.449,1.353 -1.781,2.568 -4.002,3.653l-5.12,2.896l-0.115,-0.125v-0.137c0.485,-1.77 1.251,-2.86 2.313,-3.266l5.708,-3.021L20.278,25.216z" id="path_10"/><path fill="#008046" d="M6.475,21.653c0.272,0 0.542,0.936 0.813,2.794l1.216,2.795l-0.541,3.212l0.402,7.825v1.251c-0.178,3.194 -0.628,5.054 -1.349,5.59l-0.133,-0.138l0.133,-2.097c0,-1.884 -0.588,-7.89 -1.758,-18.016C5.823,22.725 6.227,21.653 6.475,21.653z" id="path_11"/></svg>