<svg id="vector" xmlns="http://www.w3.org/2000/svg" width="75" height="67" viewBox="0 0 83 73"><path fill="#000001" d="M63.766,39.022c0.214,0 0.433,0 0.667,0h0.16c1.942,-0.12 3.713,-1.737 5.298,-4.852c1.716,-2.604 3.487,-3.901 5.304,-3.901c2.29,0 3.435,1.452 3.435,4.367v0.778c0,1.432 -0.572,3.302 -1.716,5.619l-1.092,0.778c-0.965,0 -3.194,-0.679 -6.71,-2.03c-1.064,1.598 -1.897,2.57 -2.496,2.91c-0.911,0.632 -1.843,0.898 -2.808,0.778h-0.041V39.022L63.766,39.022zM71.607,35.728v0.153c2.703,1.045 4.321,1.564 4.84,1.564c0.207,0 0.312,-0.16 0.312,-0.472c-0.599,-1.559 -1.591,-2.336 -2.968,-2.336C72.832,34.637 72.101,35.002 71.607,35.728z" id="path_0"/><path fill="#000001" d="M76.641,18.041c0.16,-0.093 0.205,0.054 0.138,0.433c-0.885,2.077 -2.243,3.527 -4.074,4.347l-6.73,3.375c-0.285,-0.08 -0.339,-0.313 -0.158,-0.705c0.897,-1.731 1.509,-2.756 1.837,-3.083L76.641,18.041z" id="path_1"/><path fill="#213e95" d="M50.347,39.022H50.7c1.065,0 2.19,-0.413 3.374,-1.238c1.186,-0.825 1.878,-1.863 2.09,-3.108l0.154,-0.16h0.152c0.187,0 0.447,0.573 0.786,1.718c1.478,2.03 3.561,2.962 6.236,2.808c0.179,0 0.367,-0.006 0.546,-0.02v4.467c-0.179,0.013 -0.367,0.021 -0.546,0.021l-2.182,-0.253c-0.234,2.077 -0.913,3.115 -2.03,3.122h-0.314c-2.077,-0.393 -3.114,-1.119 -3.114,-2.19l0.466,-2.809c-0.367,-0.413 -0.726,-0.619 -1.092,-0.619c-1.172,1.831 -2.796,2.736 -4.879,2.708V39.022z" id="path_2"/><path fill="#213e95" d="M56.784,19.213h1.544c1.87,0 2.808,0.699 2.808,2.104c-1.211,3.274 -2.683,5.012 -4.413,5.211l-2.043,0.272c-0.326,0 -0.458,-0.092 -0.414,-0.272c1.652,-0.873 3.196,-1.91 4.627,-3.102c-0.507,-0.474 -1.064,-0.706 -1.679,-0.706h-0.431l-1.679,0.14l-0.132,-0.14v-0.273C55.764,20.292 56.371,19.213 56.784,19.213z" id="path_3"/><path fill="#DD2C00" d="M43.118,25.723c0.532,0 1.784,0.626 3.748,1.871c0,0.779 -0.626,2.03 -1.878,3.747c-2.496,-0.805 -3.74,-1.537 -3.74,-2.183C41.314,28.572 41.932,27.427 43.118,25.723z" id="path_4"/><path fill="#DD2C00" d="M37.439,39.022c1.113,0.014 1.798,-0.006 2.071,-0.06c2.344,-0.712 3.941,-2.23 4.799,-4.54c0.127,-0.446 0.386,-0.5 0.778,-0.16c0.207,0.18 0.367,0.912 0.466,2.183c1.418,1.911 3.188,2.769 5.307,2.576h0.411v4.446h-0.099c-3.315,-0.152 -5.757,-1.664 -7.334,-4.526h-0.154c-1.104,2.331 -2.563,3.761 -4.366,4.294c-0.546,0.152 -1.172,0.232 -1.878,0.232V39.022z" id="path_5"/><path fill="#DD2C00" d="M45.068,12.05c1.597,0 2.396,0.986 2.396,2.948c0,3.129 -2.669,5.799 -8.015,7.996c-0.764,0.232 -0.858,-0.046 -0.273,-0.838c0.148,-0.3 1.406,-1.238 3.781,-2.81v-0.133c-1.025,-0.419 -1.537,-1.312 -1.537,-2.675c0.679,-2.99 1.757,-4.487 3.235,-4.487H45.068L45.068,12.05zM42.685,15.426c0,0.832 0.706,1.344 2.11,1.544h0.273c0.519,0 0.852,-0.193 0.993,-0.565c0,-0.846 -0.612,-1.505 -1.832,-1.972C43.697,14.433 43.184,14.767 42.685,15.426z" id="path_6"/><path fill="#000001" d="M37.833,43.469l-1.757,-0.02c-0.973,4.281 -3.547,6.443 -7.723,6.497c-2.237,0.1 -3.354,0.06 -3.354,-0.12c0.207,-0.393 1.704,-1.145 4.487,-2.263c2.861,-1.817 4.584,-2.988 5.185,-3.508l0.16,-0.466l-2.73,-0.432c-1.991,-0.52 -3.108,-1.518 -3.354,-3.002v-0.313c0,-2.524 0.618,-4.135 1.87,-4.839l0.938,-0.153c1.845,0 3.349,1.285 4.521,3.86c0.745,0.26 1.332,0.386 1.757,0.374V43.469z" id="path_7"/><path fill="#000001" d="M30.598,22.015h1.544c1.87,0 2.809,0.699 2.809,2.104c-1.211,3.274 -2.684,5.012 -4.414,5.21l-2.043,0.273c-0.326,0 -0.458,-0.093 -0.412,-0.273c1.65,-0.872 3.194,-1.909 4.626,-3.101c-0.507,-0.474 -1.065,-0.706 -1.679,-0.706h-0.431l-1.677,0.14l-0.134,-0.14V25.25C29.578,23.094 30.185,22.015 30.598,22.015z" id="path_8"/><path fill="#DD2C00" d="M14.041,31.714h0.314c1.457,0.333 2.756,1.119 3.9,2.336v0.313c-0.1,0.832 -0.726,1.923 -1.87,3.274c-2.703,-0.905 -4.054,-1.69 -4.054,-2.336C12.976,33.432 13.55,32.233 14.041,31.714z" id="path_9"/><path fill="#DD2C00" d="M22.315,28.592h0.306c0.367,0 1.252,2.343 2.656,7.022l0.154,0.619c0,3.668 -0.885,6.324 -2.65,7.96c-2.496,2.703 -5.458,4.054 -8.893,4.054c-2.809,-0.626 -4.626,-1.244 -5.458,-1.87C5.722,44.062 4.37,41.2 4.37,37.798c0,-2.862 1.252,-5.565 3.749,-8.115l0.152,-0.152h0.314l0.312,0.306c0,0.266 -0.725,1.404 -2.182,3.434c-0.421,0.726 -0.681,1.718 -0.78,2.962c0,2.423 1.244,4.5 3.74,6.244c2.443,0.938 4.107,1.404 4.992,1.404c2.237,0 4.887,-0.992 7.955,-2.962c1.252,-1.098 1.878,-1.771 1.878,-2.03l-2.184,-6.084l-0.16,-1.091L22.315,28.592z" id="path_10"/><path fill="#f06022" d="M21.179,53.088l0.16,0.14v0.427c-0.807,1.73 -1.931,2.941 -3.375,3.647c-4.474,2.43 -6.956,3.648 -7.45,3.648c-0.179,0 -0.273,-0.147 -0.273,-0.433c0.427,-1.652 1.365,-2.77 2.81,-3.355l7.994,-4.074H21.179z" id="path_11"/><path fill="#f06022" d="M20.067,49.58c0.186,0 0.273,0.134 0.273,0.407c-0.521,1.511 -2.057,2.869 -4.62,4.08l-5.911,3.235l-0.134,-0.14v-0.153c0.56,-1.978 1.451,-3.195 2.669,-3.648l6.598,-3.375L20.067,49.58z" id="path_12"/></svg>