<svg id="vector" xmlns="http://www.w3.org/2000/svg" width="75" height="67" viewBox="0 0 83 73"><path fill="#213e95" d="M62.207,48.67c0.18,0.014 0.373,0.021 0.586,0.021h1.477c1.566,-0.261 2.758,-0.807 3.59,-1.638l-1.871,-14.824c0.465,-2.809 0.885,-4.207 1.244,-4.207l2.029,4.68c0,0.726 -0.258,1.817 -0.777,3.274l0.777,8.42v2.343c-0.584,2.483 -1.369,4.22 -2.355,5.206c-0.746,0.792 -1.617,1.192 -2.637,1.192h-1.324c-0.258,0 -0.506,-0.007 -0.738,-0.021V48.67z" id="path_0"/><path fill="#213e95" d="M72.438,19.362c0.16,-0.093 0.207,0.053 0.141,0.433c-0.885,2.077 -2.244,3.528 -4.074,4.347l-6.73,3.375c-0.285,-0.08 -0.338,-0.313 -0.16,-0.706c0.9,-1.73 1.512,-2.755 1.838,-3.082L72.438,19.362z" id="path_1"/><path fill="#DD2C00" d="M62.613,53.137c-0.246,0 -0.545,0 -0.898,0c-1.393,-0.014 -2.889,-1.059 -4.508,-3.143c-0.619,2.29 -1.709,3.435 -3.275,3.435h-0.152c-1.324,0 -2.416,-0.779 -3.273,-2.343h-0.16c-0.932,1.877 -2.064,2.729 -3.396,2.556c-2.469,0.014 -3.932,-1.151 -4.406,-3.488c-1.737,2.037 -3.608,3.036 -5.597,2.983h-0.254v-4.446h0.08c3.149,-0.107 5.486,-1.179 7.023,-3.216c0.207,0 0.313,0.153 0.313,0.466l-0.158,1.092c0.832,1.664 1.922,2.496 3.273,2.496c1.279,0 2.576,-1.245 3.902,-3.741h0.16l0.465,0.466v1.091c0,0.986 0.732,1.558 2.182,1.718h0.314c1.352,0 2.604,-1.352 3.748,-4.062h0.152c0.207,0 0.313,0.473 0.313,1.405c0.572,1.578 1.957,2.336 4.154,2.284V53.137z" id="path_2"/><path fill="#DD2C00" d="M49.799,30.631h1.545c1.871,0 2.809,0.698 2.809,2.104c-1.211,3.275 -2.682,5.012 -4.412,5.211l-2.045,0.273c-0.326,0 -0.459,-0.092 -0.412,-0.273c1.65,-0.872 3.195,-1.91 4.627,-3.102c-0.508,-0.473 -1.066,-0.706 -1.678,-0.706h-0.434l-1.676,0.141l-0.135,-0.141v-0.273C48.779,31.71 49.387,30.631 49.799,30.631z" id="path_3"/><path fill="#000001" d="M37.478,53.157c-1.99,-0.16 -3.787,-1.557 -5.404,-4.194c-2.391,2.909 -5.825,4.367 -10.292,4.367H20.53c-4.833,0 -8.16,-2.077 -9.984,-6.237l-0.154,-0.939V44.75c0,-1.504 0.673,-3.222 2.024,-5.146h0.16l0.312,0.313v0.779l-0.785,2.495c0,2.73 2.289,4.6 6.869,5.618l2.809,0.153c4.859,0 8.707,-1.664 11.542,-4.993c0.153,0 0.313,0.207 0.467,0.626l-0.153,1.092c0.532,1.963 1.811,2.949 3.841,2.962V53.157z" id="path_4"/><path fill="#000001" d="M19.439,38.352h0.313c1.064,0.234 2.209,0.859 3.434,1.871v0.16c-0.706,2.129 -1.331,3.275 -1.877,3.434c-1.584,-0.312 -2.783,-0.832 -3.588,-1.564V42.1C17.721,40.875 18.294,39.63 19.439,38.352z" id="path_5"/><path fill="#000001" d="M25.209,36.948h0.16c1.066,0.16 2.265,0.886 3.589,2.184v0.16l-1.877,3.275c-2.497,-0.806 -3.742,-1.484 -3.742,-2.03C24.145,38.146 24.771,36.948 25.209,36.948z" id="path_6"/><path fill="#000001" d="M28.232,26.052c0.16,-0.094 0.206,0.052 0.14,0.433c-0.886,2.077 -2.243,3.528 -4.074,4.346l-6.73,3.375c-0.286,-0.079 -0.339,-0.312 -0.159,-0.705c0.898,-1.73 1.51,-2.755 1.837,-3.082L28.232,26.052z" id="path_7"/></svg>