<svg id="vector" xmlns="http://www.w3.org/2000/svg" width="100" height="67" viewBox="0 0 171 73"><path fill="#213e95" d="M162.755,25.793c0.293,0 0.586,1.002 0.878,2.99l1.316,2.988l-0.586,3.436l0.437,8.367v1.338c-0.193,3.416 -0.679,5.404 -1.458,5.979l-0.144,-0.146l0.144,-2.244c0,-2.014 -0.636,-8.438 -1.902,-19.266C162.051,26.939 162.488,25.793 162.755,25.793z" id="path_0"/><path fill="#213e95" d="M167.118,17.055c0.15,-0.088 0.194,0.053 0.132,0.416c-0.829,1.988 -2.101,3.377 -3.815,4.16l-6.302,3.232c-0.269,-0.076 -0.318,-0.301 -0.15,-0.676c0.841,-1.656 1.416,-2.639 1.72,-2.951L167.118,17.055z" id="path_1"/><path fill="#000001" d="M144.778,45.531c-0.985,-1.16 -1.483,-2.357 -1.483,-3.607c0,-4.576 1.658,-6.871 4.968,-6.871h0.879c1.147,0 2.556,0.549 4.239,1.645c0.424,0.172 1.204,0.771 2.337,1.791c0.437,0.771 0.244,0.975 -0.585,0.6c-1.608,-0.797 -3.359,-1.191 -5.261,-1.191h-0.143c-1.534,0 -3.092,0.643 -4.675,1.938c0,1.045 1.651,2.191 4.968,3.434l1.752,0.301l6.569,-1.645c0.76,-0.16 0.847,0.402 0.274,1.695c-0.567,1.287 -1.633,2.166 -3.191,2.639c-1.814,0.746 -4.482,1.51 -7.999,2.287c-3.521,0.777 -6.5,1.211 -8.95,1.301v0.051c-3.516,0.115 -5.872,0.135 -7.057,0.07c-1.19,-0.07 -2.175,-0.16 -2.967,-0.273c-0.792,-0.109 -1.372,-0.484 -1.738,-1.123c-0.362,-0.631 0.441,-1.064 2.418,-1.293c1.982,-0.23 4.344,-0.369 7.087,-0.422C138.969,46.805 141.817,46.365 144.778,45.531z" id="path_2"/><path fill="#000001" d="M147.497,22.811h1.446c1.751,0 2.63,0.67 2.63,2.014c-1.135,3.137 -2.512,4.799 -4.133,4.99l-1.914,0.262c-0.306,0 -0.43,-0.09 -0.386,-0.262c1.545,-0.834 2.991,-1.828 4.332,-2.969c-0.474,-0.453 -0.998,-0.676 -1.57,-0.676h-0.405l-1.571,0.133L145.8,26.17v-0.262C146.542,23.844 147.11,22.811 147.497,22.811z" id="path_3"/><path fill="#008046" d="M126.01,45.754c0.306,0 0.623,0 0.954,0l0.729,-0.377c0.461,-0.969 1.147,-2.16 2.044,-3.58l-1.458,-11.504c0.486,-2.391 0.922,-3.582 1.316,-3.582l0.729,2.836c0.679,0.969 1.022,1.867 1.022,2.689c-0.486,0.918 -0.729,1.67 -0.729,2.236v0.301l0.292,4.779v0.752c1.509,-1.301 3.528,-2.008 6.06,-2.129c2.923,0.42 4.381,1.416 4.381,2.982v1.045c-0.485,2.219 -1.215,3.914 -2.188,5.08c-2.949,1.695 -6.184,2.602 -9.718,2.729h-1.608c-0.642,0 -1.253,0 -1.826,0V45.754L126.01,45.754zM128.858,45.83h0.293c4.457,-0.127 7.941,-0.938 10.447,-2.428c-1.142,-1.199 -1.97,-1.791 -2.481,-1.791h-1.171C132.611,41.732 130.249,43.141 128.858,45.83z" id="path_4"/><path fill="#008046" d="M142.247,23.41c0.15,-0.09 0.194,0.051 0.131,0.414c-0.829,1.988 -2.1,3.379 -3.814,4.162l-6.303,3.23c-0.268,-0.076 -0.317,-0.299 -0.149,-0.676c0.841,-1.656 1.415,-2.639 1.72,-2.951L142.247,23.41z" id="path_5"/><path fill="#DD2C00" d="M121.241,51.057c1.515,0.625 2.63,1.318 3.367,2.09v0.154c-0.804,2.186 -1.44,3.281 -1.901,3.281c-0.368,0 -1.534,-0.6 -3.509,-1.791l-1.315,2.537c-2.531,-0.943 -3.796,-1.639 -3.796,-2.092c0.537,-2.039 1.072,-3.236 1.608,-3.58c0.412,0 1.677,0.643 3.795,1.943C120.293,51.904 120.88,51.057 121.241,51.057z" id="path_6"/><path fill="#DD2C00" d="M111.38,45.754h0.954c1.894,-0.16 3.31,-0.93 4.232,-2.314l0.149,-0.451l-0.437,-2.238c0.094,-2.389 0.337,-3.588 0.729,-3.588c1.166,4.207 2.288,6.775 3.36,7.693c0.923,0.535 2.187,0.84 3.796,0.879c0.43,0.012 1.951,0 2.332,0v4.277c-0.48,0 -2.102,0 -2.625,0h-0.143c-2.799,0 -4.943,-1.594 -6.426,-4.781v-0.146l-1.315,2.684c-0.997,1.51 -2.462,2.256 -4.382,2.244h-0.224V45.754z" id="path_7"/><path fill="#DD2C00" d="M117.284,25.105h1.445c1.752,0 2.63,0.668 2.63,2.014c-1.134,3.135 -2.512,4.799 -4.132,4.99l-1.914,0.262c-0.306,0 -0.43,-0.09 -0.387,-0.262c1.546,-0.836 2.992,-1.83 4.333,-2.971c-0.474,-0.453 -0.997,-0.676 -1.571,-0.676h-0.404l-1.571,0.135l-0.125,-0.135v-0.26C116.329,26.137 116.896,25.105 117.284,25.105z" id="path_8"/><path fill="#213e95" d="M105.551,33.02c0.499,0 1.671,0.6 3.509,1.791c0,0.746 -0.585,1.945 -1.757,3.588c-2.337,-0.77 -3.503,-1.471 -3.503,-2.09C103.862,35.748 104.442,34.652 105.551,33.02z" id="path_9"/><path fill="#213e95" d="M100.234,45.754c1.042,0.014 1.683,-0.006 1.939,-0.057c2.194,-0.684 3.69,-2.135 4.494,-4.348c0.119,-0.426 0.362,-0.479 0.73,-0.152c0.193,0.172 0.343,0.873 0.436,2.09c1.329,1.83 2.986,2.652 4.968,2.467h0.387v4.258h-0.094c-3.104,-0.146 -5.393,-1.594 -6.87,-4.334h-0.143c-1.036,2.23 -2.4,3.6 -4.09,4.111c-0.511,0.146 -1.097,0.223 -1.758,0.223V45.754z" id="path_10"/><path fill="#000001" d="M101.543,50.012h-0.187c-3.64,0.102 -6.514,-1.65 -8.614,-5.246c-0.113,0.408 -0.225,0.791 -0.331,1.143c-0.306,0.846 -0.711,1.529 -1.222,2.051c-0.393,0.447 -0.879,0.822 -1.465,1.121c-1.278,0.709 -3.073,1.262 -5.385,1.664l-4.127,0.146h-1.464c-3.454,0 -6.09,-1.293 -7.905,-3.881c-0.485,-0.873 -0.679,-2.02 -0.566,-3.436c0.561,-3.689 1.29,-5.531 2.194,-5.531c0.312,0 0.511,0.152 0.58,0.453c0,0.395 -0.536,1.738 -1.603,4.027v0.152c0,1.74 1.996,3.084 5.985,4.033l1.758,0.148c6.233,0 10.403,-1.09 12.51,-3.27c-0.15,-0.969 -1.066,-3.131 -2.761,-6.477l-0.293,-1.197c-0.312,-1.568 -0.306,-3.002 0.037,-4.309s1.01,-2.211 2.008,-2.709c2.319,-1.592 6.744,-4.23 13.295,-7.914l0.149,0.146v0.299c-1.415,2.262 -2.487,4.359 -3.216,6.271h-0.293l-0.143,-0.746v-0.746l0.143,-0.152v-0.146h-0.143c-5.429,3.213 -9.082,5.551 -10.958,7.023v0.146c0.948,1.957 1.695,3.695 2.245,5.227c1.658,3.025 3.216,5.021 4.675,5.984c1.465,0.969 2.78,1.445 3.945,1.445h1.154V50.012z" id="path_11"/><path fill="#000001" d="M87.718,26.023c0.149,-0.09 0.193,0.051 0.131,0.414c-0.829,1.988 -2.101,3.377 -3.815,4.162l-6.303,3.23c-0.268,-0.076 -0.317,-0.301 -0.149,-0.676c0.841,-1.656 1.416,-2.639 1.72,-2.951L87.718,26.023z" id="path_12"/><path fill="#DD2C00" d="M64.872,25.793c0.293,0 0.586,1.002 0.879,2.99l1.315,2.988l-0.585,3.436l0.437,8.367v1.338c-0.194,3.416 -0.679,5.404 -1.458,5.979l-0.143,-0.146l0.143,-2.244c0,-2.014 -0.636,-8.438 -1.901,-19.266C64.168,26.939 64.604,25.793 64.872,25.793z" id="path_13"/><path fill="#213e95" d="M53.228,46.99c0.169,0.014 0.35,0.02 0.548,0.02h1.384c1.465,-0.248 2.581,-0.771 3.36,-1.568l-1.752,-14.193c0.437,-2.689 0.829,-4.027 1.166,-4.027l1.901,4.48c0,0.695 -0.243,1.74 -0.729,3.135l0.729,8.063v2.244c-0.548,2.377 -1.285,4.041 -2.206,4.984c-0.698,0.758 -1.515,1.141 -2.469,1.141h-1.24c-0.244,0 -0.475,-0.008 -0.692,-0.02V46.99z" id="path_14"/><path fill="#213e95" d="M58.171,18.611h1.445c1.752,0 2.631,0.668 2.631,2.014c-1.134,3.135 -2.511,4.799 -4.132,4.99l-1.914,0.262c-0.306,0 -0.43,-0.09 -0.386,-0.262c1.545,-0.836 2.992,-1.83 4.332,-2.971c-0.474,-0.453 -0.997,-0.676 -1.571,-0.676h-0.404L56.6,22.104l-0.125,-0.135v-0.26C57.217,19.643 57.785,18.611 58.171,18.611z" id="path_15"/><path fill="#000001" d="M40.886,46.314c1.713,-0.395 2.773,-1.135 3.179,-2.205c0.168,-0.592 0.218,-1.09 0.143,-1.49c-2.406,-5.215 -3.615,-8.273 -3.615,-9.166c-0.118,-1.549 0.025,-2.994 0.442,-4.352c0.412,-1.357 1.091,-2.295 2.045,-2.818l11.538,-7.168c0.292,0.068 -0.088,1.113 -1.129,3.121c-1.047,2.016 -1.689,3.066 -1.92,3.156c-0.23,0.094 -0.386,-0.256 -0.455,-1.053c-4.506,2.912 -7.199,4.684 -8.072,5.322c-0.879,0.637 -1.403,1.197 -1.571,1.695c1.365,3.785 3.248,7.768 5.66,11.949c1.726,2.416 4.165,3.627 7.306,3.627c0.206,0 0.467,0 0.785,0v4.275l-0.493,0.02c-4.264,0 -7.38,-2.141 -9.35,-6.424c-0.125,-0.262 -0.218,-0.313 -0.293,-0.152c-0.792,3.416 -2.194,5.359 -4.201,5.844c-0.705,0.229 -1.428,0.355 -2.176,0.395v-4.275C39.527,46.551 40.25,46.455 40.886,46.314z" id="path_16"/><path fill="#000001" d="M51.382,15.264c0.15,-0.088 0.194,0.053 0.131,0.416c-0.829,1.988 -2.101,3.377 -3.814,4.16l-6.302,3.232c-0.269,-0.076 -0.318,-0.301 -0.15,-0.676c0.841,-1.656 1.416,-2.639 1.72,-2.951L51.382,15.264z" id="path_17"/><path fill="#213e95" d="M39.258,50.891l-1.646,-0.02c-0.909,4.098 -3.322,6.17 -7.23,6.221c-2.095,0.096 -3.142,0.057 -3.142,-0.115c0.193,-0.375 1.596,-1.096 4.201,-2.166c2.681,-1.74 4.295,-2.861 4.856,-3.359l0.15,-0.445l-2.556,-0.414c-1.864,-0.498 -2.912,-1.453 -3.142,-2.875v-0.299c0,-2.416 0.58,-3.959 1.752,-4.635l0.878,-0.145c1.727,0 3.136,1.229 4.232,3.695c0.698,0.248 1.248,0.369 1.646,0.357V50.891z" id="path_18"/><path fill="#213e95" d="M32.483,30.35h1.445c1.752,0 2.63,0.67 2.63,2.014c-1.134,3.137 -2.511,4.799 -4.132,4.99l-1.914,0.262c-0.306,0 -0.43,-0.09 -0.386,-0.262c1.545,-0.834 2.991,-1.828 4.332,-2.969c-0.474,-0.453 -0.997,-0.676 -1.571,-0.676h-0.404l-1.571,0.133l-0.125,-0.133v-0.262C31.529,31.383 32.097,30.35 32.483,30.35z" id="path_19"/><path fill="#DD2C00" d="M19.959,29.33c0.605,0 1.677,0.746 3.21,2.236c0,0.498 -0.58,1.594 -1.752,3.289h-0.292c-0.604,0 -1.534,-0.6 -2.775,-1.791v-0.152C18.351,32.313 18.888,31.121 19.959,29.33z" id="path_20"/><path fill="#DD2C00" d="M25.221,28.584c2.431,1.064 3.646,1.912 3.646,2.537c-0.143,0.473 -0.823,1.518 -2.044,3.135c-1.627,-0.643 -2.799,-1.395 -3.503,-2.236C23.831,30.35 24.46,29.203 25.221,28.584z" id="path_21"/><path fill="#DD2C00" d="M21.711,24.25c2.238,0.943 3.36,1.74 3.36,2.391l-1.902,2.988h-0.143c-0.412,0 -1.534,-0.598 -3.36,-1.797C20.564,25.443 21.25,24.25 21.711,24.25z" id="path_22"/><path fill="#DD2C00" d="M19.281,45.703c3.827,0.039 5.966,-0.695 6.433,-2.205c0,-0.523 -0.486,-1.816 -1.465,-3.881l0.442,-3.883h0.288c1.271,2.238 1.901,4.48 1.901,6.719v1.344c0,0.898 -0.212,1.842 -0.629,2.83s-1.066,1.822 -1.933,2.492c-0.873,0.676 -2.549,0.955 -5.036,0.842V45.703z" id="path_23"/><path fill="#DD2C00" d="M27.059,15.846c0.15,-0.09 0.193,0.051 0.131,0.414c-0.829,1.988 -2.1,3.377 -3.814,4.16l-6.302,3.232c-0.268,-0.076 -0.317,-0.301 -0.149,-0.676c0.841,-1.656 1.415,-2.639 1.72,-2.951L27.059,15.846z" id="path_24"/><path fill="#008046" d="M19.461,49.973c-0.131,0.014 -0.268,0.02 -0.398,0.02h-0.737c-1.14,0 -1.918,-0.096 -2.336,-0.299c-0.848,3.352 -1.839,5.404 -2.974,6.156S9.32,57.238 5.33,57.762H5.038c-0.879,-0.104 -1.315,-0.25 -1.315,-0.447c0,-0.299 0.729,-0.65 2.188,-1.045c5.747,-2.689 8.62,-4.633 8.62,-5.824c0,-0.498 -0.68,-1.645 -2.044,-3.436c-0.293,-0.504 -0.437,-1.146 -0.437,-1.943v-1.492c0,-0.752 0.143,-1.146 0.437,-1.197c1.265,1.98 3.409,3.084 6.426,3.32c0.187,0 0.368,0 0.548,-0.014V49.973z" id="path_25"/><path fill="#008046" d="M16.376,31.955c0.149,-0.088 0.193,0.053 0.131,0.416c-0.829,1.988 -2.101,3.377 -3.814,4.16l-6.302,3.232c-0.269,-0.076 -0.318,-0.301 -0.15,-0.676c0.842,-1.656 1.416,-2.639 1.721,-2.951L16.376,31.955z" id="path_26"/><path fill="#213e95" d="M106.793,18.936c1.172,2.039 1.759,4.035 1.759,5.973c-0.512,3.684 -1.147,5.525 -1.902,5.525l-0.144,-0.146v-0.146l0.287,-1.943v-0.154c0,-1.191 -0.486,-2.982 -1.458,-5.373v-0.299C105.821,20.076 106.307,18.936 106.793,18.936z" id="path_27"/></svg>