<svg id="vector" xmlns="http://www.w3.org/2000/svg" width="75" height="67" viewBox="0 0 83 73"><path fill="#000001" d="M70.959,24.382c0.314,0 0.627,1.045 0.939,3.123l1.406,3.121l-0.627,3.588l0.467,8.74v1.396c-0.207,3.57 -0.727,5.646 -1.559,6.246l-0.154,-0.154l0.154,-2.344c0,-2.102 -0.68,-8.813 -2.031,-20.121C70.207,25.581 70.674,24.382 70.959,24.382z" id="path_0"/><path fill="#000001" d="M75.619,15.257c0.16,-0.094 0.207,0.053 0.141,0.432c-0.887,2.078 -2.244,3.529 -4.074,4.346l-6.73,3.375c-0.287,-0.078 -0.34,-0.311 -0.16,-0.705c0.898,-1.73 1.512,-2.754 1.838,-3.082L75.619,15.257z" id="path_1"/><path fill="#f06022" d="M56.529,27.198c1.535,0.492 2.736,1.119 3.588,1.869v0.314c0,0.52 -0.568,1.664 -1.713,3.434c-1.064,0 -2.262,-0.572 -3.586,-1.717v-0.313C54.818,29.667 55.391,28.47 56.529,27.198z" id="path_2"/><path fill="#f06022" d="M52.082,45.177c4.088,0.041 6.369,-0.725 6.869,-2.303c0,-0.545 -0.52,-1.896 -1.564,-4.055l0.473,-4.053h0.305c1.359,2.336 2.033,4.68 2.033,7.016v1.404c0,0.939 -0.227,1.924 -0.674,2.957c-0.445,1.031 -1.139,1.902 -2.063,2.602c-0.932,0.705 -2.723,0.998 -5.379,0.879V45.177z" id="path_3"/><path fill="#f06022" d="M59.844,17.407h1.545c1.869,0 2.809,0.699 2.809,2.102c-1.211,3.275 -2.682,5.014 -4.414,5.213l-2.043,0.273c-0.326,0 -0.459,-0.094 -0.412,-0.273c1.65,-0.871 3.195,-1.91 4.625,-3.102c-0.506,-0.473 -1.064,-0.705 -1.676,-0.705h-0.434l-1.678,0.139l-0.135,-0.139v-0.273C58.826,18.485 59.43,17.407 59.844,17.407z" id="path_4"/><path fill="#213e95" d="M45.766,33.202c2.182,1.092 3.275,2.023 3.275,2.809c-1.041,2.051 -1.664,3.09 -1.871,3.115h-0.314c-1.602,-0.805 -2.588,-1.531 -2.967,-2.184C44.254,35.759 44.881,34.513 45.766,33.202z" id="path_5"/><path fill="#213e95" d="M55.477,49.638c-0.145,0.012 -0.285,0.02 -0.432,0.02h-0.781c-1.225,0 -2.055,-0.1 -2.496,-0.313c-0.91,3.5 -1.969,5.645 -3.18,6.43c-1.205,0.785 -3.941,1.451 -8.209,1.996h-0.311c-0.934,-0.105 -1.404,-0.258 -1.404,-0.465c0,-0.313 0.777,-0.68 2.342,-1.092c6.137,-2.809 9.207,-4.84 9.207,-6.084c0,-0.52 -0.734,-1.717 -2.186,-3.588c-0.311,-0.525 -0.471,-1.199 -0.471,-2.031v-1.557c0,-0.785 0.16,-1.199 0.471,-1.252c1.352,2.07 3.635,3.221 6.863,3.469c0.193,0 0.387,0 0.586,-0.014V49.638z" id="path_6"/><path fill="#213e95" d="M51.316,25.089c0.16,-0.094 0.207,0.051 0.141,0.432c-0.887,2.078 -2.244,3.527 -4.074,4.346l-6.73,3.375c-0.287,-0.078 -0.34,-0.313 -0.16,-0.705c0.9,-1.73 1.512,-2.756 1.838,-3.082L51.316,25.089z" id="path_7"/><path fill="#000001" d="M29.031,46.13c0.18,0.014 0.373,0.02 0.586,0.02h1.479c1.563,-0.26 2.754,-0.807 3.586,-1.639l-1.871,-14.824c0.467,-2.809 0.887,-4.205 1.246,-4.205l2.031,4.68c0,0.725 -0.26,1.816 -0.781,3.273l0.781,8.42v2.344c-0.588,2.484 -1.373,4.221 -2.357,5.205c-0.746,0.793 -1.617,1.193 -2.635,1.193H29.77c-0.26,0 -0.506,-0.008 -0.738,-0.021V46.13z" id="path_8"/><path fill="#000001" d="M33.338,16.487h1.545c1.869,0 2.807,0.699 2.807,2.104c-1.211,3.275 -2.68,5.012 -4.412,5.213l-2.045,0.271c-0.324,0 -0.457,-0.092 -0.41,-0.271c1.65,-0.873 3.193,-1.91 4.625,-3.104c-0.504,-0.473 -1.064,-0.705 -1.676,-0.705h-0.434l-1.678,0.141l-0.135,-0.141v-0.271C32.32,17.565 32.924,16.487 33.338,16.487z" id="path_9"/><path fill="#DD2C00" d="M21.328,32.849c0.533,0 1.785,0.625 3.748,1.871c0,0.779 -0.625,2.029 -1.877,3.748c-2.496,-0.805 -3.74,-1.537 -3.74,-2.184C19.525,35.698 20.145,34.554 21.328,32.849z" id="path_10"/><path fill="#DD2C00" d="M15.652,46.149c1.111,0.014 1.795,-0.006 2.068,-0.061c2.344,-0.713 3.941,-2.23 4.799,-4.539c0.127,-0.447 0.387,-0.5 0.781,-0.16c0.205,0.18 0.363,0.912 0.465,2.184c1.418,1.91 3.189,2.77 5.305,2.576h0.414v4.447h-0.102c-3.313,-0.154 -5.758,-1.666 -7.334,-4.527h-0.154c-1.104,2.33 -2.563,3.762 -4.367,4.293c-0.545,0.154 -1.172,0.234 -1.875,0.234V46.149z" id="path_11"/><path fill="#DD2C00" d="M27.586,22.046c0.16,-0.094 0.207,0.053 0.141,0.434c-0.885,2.076 -2.244,3.527 -4.074,4.346L16.924,30.2c-0.287,-0.08 -0.34,-0.313 -0.16,-0.705c0.898,-1.732 1.512,-2.756 1.836,-3.084L27.586,22.046z" id="path_12"/><path fill="#213e95" d="M15.691,50.597c-3.029,0.178 -5.232,-1.221 -6.609,-4.195c-0.668,-1.104 -1.285,-8.553 -1.873,-22.346v-0.313c0.387,-2.289 0.961,-3.436 1.713,-3.436l0.785,-0.152c0.959,0 2.416,0.313 4.367,0.932v0.313c-0.107,0.314 -0.42,0.475 -0.939,0.475h-2.648c-0.547,0 -1.064,0.305 -1.564,0.93c0.486,11.977 1.191,18.912 2.129,20.809c0.934,1.898 2.482,2.742 4.641,2.537V50.597z" id="path_13"/></svg>