<svg id="vector" xmlns="http://www.w3.org/2000/svg" width="75" height="67" viewBox="0 0 83 73"><path fill="#213e95" d="M52.673,44.191c0.393,0.026 0.792,0.04 1.192,0.04h0.466l1.95,-0.466c-0.466,-0.873 -0.7,-1.479 -0.7,-1.817c0,-4.992 1.61,-7.488 4.834,-7.488l1.25,-0.154c1.639,0.26 3.722,1.246 6.239,2.963l0.157,0.626l-0.157,0.153h-0.62c-1.198,-0.833 -2.549,-1.246 -4.061,-1.246c-2.309,0 -4.233,0.674 -5.771,2.023v0.16c1.352,2.184 3.846,3.275 7.488,3.275c2.861,-1.038 4.733,-1.559 5.618,-1.559c-0.493,2.91 -1.431,4.368 -2.81,4.368c-6.164,2.39 -11.05,3.587 -14.663,3.587h-0.414V44.191z" id="path_0"/><path fill="#213e95" d="M66.305,21.626c0.16,-0.093 0.207,0.054 0.141,0.433c-0.886,2.077 -2.243,3.528 -4.074,4.347l-6.729,3.375c-0.287,-0.08 -0.34,-0.313 -0.16,-0.706c0.899,-1.73 1.512,-2.756 1.837,-3.082L66.305,21.626z" id="path_1"/><path fill="#0992d1" d="M45.19,50.376c0.532,0 1.784,0.625 3.748,1.869c0,0.779 -0.626,2.031 -1.878,3.748c-2.496,-0.813 -3.74,-1.538 -3.74,-2.19C43.387,53.224 44.007,52.079 45.19,50.376z" id="path_2"/><path fill="#0992d1" d="M39.514,44.211c1.111,0.014 1.796,-0.007 2.069,-0.06c2.344,-0.713 3.941,-2.23 4.799,-4.539c0.127,-0.446 0.387,-0.5 0.78,-0.16c0.205,0.18 0.365,0.911 0.466,2.183c1.418,1.91 3.188,2.77 5.305,2.576h0.413v4.446h-0.101c-3.313,-0.152 -5.757,-1.663 -7.335,-4.525h-0.154c-1.104,2.33 -2.563,3.76 -4.366,4.293c-0.546,0.152 -1.172,0.232 -1.876,0.232V44.211z" id="path_3"/><path fill="#0992d1" d="M45.224,24.928h1.545c1.87,0 2.81,0.699 2.81,2.104c-1.213,3.274 -2.683,5.012 -4.413,5.212l-2.044,0.273c-0.327,0 -0.46,-0.094 -0.413,-0.273c1.649,-0.871 3.196,-1.91 4.626,-3.102c-0.505,-0.473 -1.064,-0.706 -1.678,-0.706h-0.433l-1.677,0.14l-0.133,-0.14v-0.272C44.206,26.006 44.813,24.928 45.224,24.928z" id="path_4"/><path fill="#DD2C00" d="M39.958,48.678c-2.675,-0.179 -5.105,-1.646 -7.287,-4.387h-0.16c-0.932,5.405 -3.015,8.108 -6.236,8.114h-0.474c-1.398,-0.006 -2.756,-1.252 -4.055,-3.748c-1.037,-3.508 -1.557,-6.163 -1.557,-7.955v-1.25c0,-0.779 0.152,-1.199 0.467,-1.246c0.438,0.233 0.965,1.938 1.569,5.119c0.606,3.176 1.851,4.693 3.734,4.553c3.642,-0.598 5.566,-2.682 5.771,-6.243l-1.404,-4.833v-1.717c0.055,-2.084 0.26,-3.121 0.627,-3.121c0.206,0.465 0.366,0.938 0.466,1.403l2.184,6.864c1.717,2.781 3.84,4.1 6.355,3.939V48.678z" id="path_5"/><path fill="#f06022" d="M35.106,20.515l0.16,0.14v0.426c-0.812,1.73 -1.937,2.942 -3.374,3.647c-4.474,2.43 -6.956,3.647 -7.449,3.647c-0.188,0 -0.279,-0.146 -0.279,-0.432c0.433,-1.651 1.371,-2.77 2.809,-3.355l8.001,-4.073H35.106z" id="path_6"/><path fill="#f06022" d="M33.995,17.007c0.179,0 0.272,0.133 0.272,0.405c-0.519,1.512 -2.057,2.869 -4.619,4.081l-5.911,3.234l-0.133,-0.14v-0.153c0.56,-1.978 1.445,-3.195 2.67,-3.647l6.59,-3.375L33.995,17.007z" id="path_7"/><path fill="#000001" d="M13.846,22.444c0.313,0 0.626,1.046 0.938,3.122l1.404,3.122l-0.624,3.588l0.464,8.739v1.398c-0.205,3.567 -0.724,5.645 -1.557,6.243l-0.153,-0.152l0.153,-2.344c0,-2.104 -0.679,-8.813 -2.029,-20.122C13.094,23.644 13.56,22.444 13.846,22.444z" id="path_8"/></svg>