<svg id="vector" xmlns="http://www.w3.org/2000/svg" width="75" height="67" viewBox="0 0 83 73"><path fill="#213e95" d="M63.743,26.61h0.313c1.065,0.234 2.21,0.854 3.435,1.871v0.154c-0.706,2.137 -1.325,3.273 -1.871,3.434c-1.59,-0.313 -2.782,-0.832 -3.587,-1.557v-0.16C62.032,29.127 62.604,27.881 63.743,26.61z" id="path_0"/><path fill="#213e95" d="M69.521,25.206h0.153c1.065,0.154 2.263,0.879 3.587,2.184v0.154l-1.87,3.275c-2.496,-0.807 -3.748,-1.479 -3.748,-2.023C68.449,26.399 69.075,25.206 69.521,25.206z" id="path_1"/><path fill="#213e95" d="M62.358,42.852c4.087,0.041 6.371,-0.725 6.87,-2.303c0,-0.545 -0.52,-1.896 -1.565,-4.053l0.473,-4.055h0.306c1.357,2.336 2.03,4.68 2.03,7.016v1.404c0,0.939 -0.226,1.924 -0.672,2.955c-0.446,1.033 -1.138,1.904 -2.063,2.604c-0.931,0.705 -2.722,0.998 -5.378,0.879V42.852z" id="path_2"/><path fill="#213e95" d="M72.243,16.813c0.16,-0.094 0.206,0.053 0.14,0.432c-0.886,2.078 -2.243,3.527 -4.074,4.348l-6.73,3.375c-0.286,-0.08 -0.339,-0.314 -0.159,-0.707c0.898,-1.729 1.51,-2.756 1.837,-3.08L72.243,16.813z" id="path_3"/><path fill="#f06022" d="M51.888,26.338c2.39,0.984 3.587,1.816 3.587,2.496l-2.03,3.115h-0.153c-0.445,0 -1.637,-0.619 -3.587,-1.871C50.663,27.583 51.395,26.338 51.888,26.338z" id="path_4"/><path fill="#f06022" d="M47.828,42.852h1.018c2.023,-0.166 3.535,-0.971 4.52,-2.416l0.16,-0.473l-0.466,-2.336c0.101,-2.496 0.36,-3.748 0.779,-3.748c1.245,4.395 2.443,7.076 3.588,8.035c0.984,0.559 2.336,0.865 4.053,0.918c0.459,0 0.885,0 1.291,0v4.467c-0.512,0 -1.044,0 -1.604,0h-0.153c-2.988,0 -5.278,-1.664 -6.862,-4.992v-0.152l-1.404,2.801c-1.065,1.578 -2.63,2.357 -4.68,2.344h-0.239V42.852z" id="path_5"/><path fill="#f06022" d="M54.231,15.84h1.544c1.87,0 2.809,0.699 2.809,2.104c-1.212,3.275 -2.683,5.014 -4.413,5.213l-2.044,0.271c-0.327,0 -0.459,-0.092 -0.413,-0.271c1.65,-0.873 3.194,-1.91 4.626,-3.102c-0.506,-0.475 -1.065,-0.707 -1.677,-0.707h-0.433l-1.677,0.141l-0.134,-0.141v-0.271C53.212,16.918 53.818,15.84 54.231,15.84z" id="path_6"/><path fill="#000001" d="M35.154,19.168c1.251,2.131 1.877,4.215 1.877,6.238c-0.546,3.848 -1.225,5.771 -2.03,5.771l-0.153,-0.154v-0.152l0.306,-2.029v-0.16c0,-1.246 -0.52,-3.115 -1.558,-5.611v-0.314C34.116,20.36 34.635,19.168 35.154,19.168z" id="path_7"/><path fill="#DD2C00" d="M27.385,43.711c-2.557,-0.252 -3.841,-0.619 -3.841,-1.111v-0.16c1.22,-1.162 2.345,-1.965 3.375,-2.406v-3.039c-3.29,1.908 -4.934,4.4 -4.934,7.475v0.779c0.014,0.699 0.307,1.252 0.879,1.658c0.573,0.406 1.631,0.652 3.189,0.752c1,0.061 1.679,0.227 2.035,0.492c-3.259,2.99 -5.998,4.482 -8.206,4.482c-1.917,0.174 -3.681,-0.193 -5.305,-1.092c-2.29,-1.924 -3.435,-3.688 -3.435,-5.305c0,-1.125 0.313,-2.324 0.938,-3.588c1.558,-2.529 2.337,-3.988 2.337,-4.367c0.066,-0.439 -0.14,-0.492 -0.619,-0.152c-2.709,2.549 -4.061,5.924 -4.061,10.137c0,1.771 0.779,3.695 2.343,5.771c0.873,1.105 1.61,1.824 2.231,2.15c0.618,0.318 1.644,0.646 3.074,0.971c2.557,0 4.793,-0.672 6.704,-2.029c3.175,-2.609 5.072,-5.006 5.697,-7.176h-0.13c0.086,-0.48 0.13,-0.965 0.13,-1.459C29.628,44.911 28.829,43.985 27.385,43.711z" id="path_8"/><path fill="#000001" d="M28.696,39.631c0.533,-0.113 1.052,-0.066 1.558,0.16c-0.327,1.883 -0.426,3.182 -0.313,3.9c0.845,2.391 2.097,3.588 3.747,3.588h0.154c1.005,0 1.784,-0.785 2.343,-2.344h0.312c0.727,1.352 1.558,2.031 2.497,2.031h0.465c0.6,0 1.198,-0.359 1.798,-1.072c0.166,-0.199 0.453,-0.879 0.852,-2.051c1.132,2.291 2.696,3.436 4.686,3.436h0.879h0.153v-4.406v-0.041h-0.454c-2.27,-0.053 -3.615,-0.652 -4.013,-1.797c-0.273,-1.557 -0.586,-2.336 -0.939,-2.336l-0.466,0.467c-0.419,2.389 -1.091,3.586 -2.03,3.586c-0.832,0 -1.557,-0.365 -2.183,-1.09c-0.1,-1.146 -0.259,-1.824 -0.466,-2.031h-0.16l-0.153,0.16c-0.738,2.076 -1.624,3.115 -2.649,3.115c-0.512,0.066 -1.079,-0.055 -1.697,-0.359c-0.626,-0.307 -0.965,-1.02 -1.019,-2.137l0.526,-4.055c0,-0.352 -0.246,-0.578 -0.745,-0.686c-0.506,-0.1 -1.238,-0.027 -2.216,0.221c-0.818,0.342 -1.565,0.711 -2.243,1.104v3.039C27.547,39.766 28.139,39.631 28.696,39.631z" id="path_9"/></svg>