<svg id="vector" xmlns="http://www.w3.org/2000/svg" width="75" height="67" viewBox="0 0 83 73"><path fill="#DD2C00" d="M68.622,48.006c-8.66,0.365 -13.318,-0.033 -13.973,-1.205c-0.658,-1.172 2.336,-1.77 8.98,-1.797c1.311,-0.027 2.143,-0.061 2.496,-0.113c5.279,-0.818 8.5,-1.705 9.672,-2.656v-0.152l-1.717,-4.061v-0.619c0,-2.084 0.26,-3.123 0.777,-3.123c1.459,2.783 2.186,4.967 2.186,6.551v0.313c0,3.615 -1.818,5.699 -5.459,6.244C70.659,47.633 69.673,47.84 68.622,48.006z" id="path_0"/><path fill="#DD2C00" d="M71.544,25.68c0.965,0 2.156,0.68 3.588,2.031v0.313c-0.885,2.283 -1.504,3.428 -1.869,3.428c-1.771,-0.672 -2.863,-1.352 -3.275,-2.031v-0.152C69.987,28.176 70.507,26.979 71.544,25.68z" id="path_1"/><path fill="#DD2C00" d="M72.716,12.807c1.598,0 2.396,0.984 2.396,2.947c0,3.131 -2.67,5.799 -8.016,7.996c-0.764,0.232 -0.857,-0.047 -0.271,-0.84c0.145,-0.299 1.404,-1.238 3.781,-2.809v-0.133c-1.027,-0.418 -1.537,-1.311 -1.537,-2.676c0.678,-2.988 1.756,-4.486 3.234,-4.486H72.716L72.716,12.807zM70.333,16.182c0,0.832 0.705,1.344 2.109,1.543h0.273c0.52,0 0.852,-0.191 0.992,-0.564c0,-0.846 -0.611,-1.504 -1.83,-1.971C71.345,15.189 70.831,15.521 70.333,16.182z" id="path_2"/><path fill="#008046" d="M45.843,43.699h0.607c2.057,-0.221 3.787,-1.465 5.189,-3.727c0.207,-0.467 0.414,-0.727 0.621,-0.779h0.16l0.467,0.473c-0.066,0.592 -0.168,1.01 -0.314,1.244c0.912,1.664 2.004,2.496 3.275,2.496l0.16,0.152c2.262,-4.992 4.805,-7.488 7.641,-7.488c2.264,0 3.928,0.939 4.992,2.809v0.939c0,5.719 -3.533,8.58 -10.611,8.58l-2.336,-0.152c-0.725,1.969 -1.197,2.961 -1.404,2.961l-0.152,-0.152v-0.16l0.465,-2.648v-0.314c-1.537,-0.857 -2.729,-2.057 -3.586,-3.586c-0.805,2.635 -2.531,3.906 -5.174,3.801V43.699L45.843,43.699zM57.565,43.871h0.314c3.533,0 6.547,-0.518 9.045,-1.557c0,-1.117 -1.039,-1.896 -3.115,-2.342h-0.627C60.687,39.973 58.817,41.275 57.565,43.871z" id="path_3"/><path fill="#008046" d="M62.499,52.039c0.16,-0.086 0.205,0.055 0.139,0.434c-0.885,2.076 -2.242,3.527 -4.074,4.346l-6.73,3.375c-0.283,-0.08 -0.338,-0.313 -0.158,-0.699c0.898,-1.73 1.51,-2.756 1.838,-3.082L62.499,52.039z" id="path_4"/><path fill="#213e95" d="M38.308,49.863c0.535,0 1.785,0.625 3.748,1.869c0,0.779 -0.627,2.031 -1.877,3.748c-2.496,-0.813 -3.742,-1.537 -3.742,-2.189C36.505,52.713 37.124,51.566 38.308,49.863z" id="path_5"/><path fill="#213e95" d="M32.63,43.699c1.113,0.014 1.799,-0.006 2.07,-0.061c2.344,-0.713 3.941,-2.23 4.799,-4.539c0.127,-0.445 0.387,-0.5 0.779,-0.16c0.207,0.18 0.367,0.912 0.467,2.184c1.418,1.91 3.189,2.77 5.305,2.576h0.414v4.447h-0.1c-3.316,-0.154 -5.76,-1.666 -7.338,-4.527h-0.15c-1.107,2.33 -2.563,3.76 -4.369,4.293c-0.545,0.154 -1.17,0.234 -1.877,0.234V43.699z" id="path_6"/><path fill="#213e95" d="M44.272,24.74c0.16,-0.092 0.207,0.055 0.141,0.434c-0.885,2.076 -2.244,3.527 -4.074,4.348l-6.729,3.375c-0.287,-0.08 -0.34,-0.314 -0.16,-0.707c0.898,-1.73 1.512,-2.756 1.836,-3.08L44.272,24.74z" id="path_7"/><path fill="#000001" d="M33.044,48.166c-1.99,-0.16 -3.789,-1.559 -5.406,-4.195c-2.389,2.91 -5.824,4.367 -10.291,4.367h-1.252c-4.832,0 -8.158,-2.076 -9.984,-6.236l-0.152,-0.938v-1.406c0,-1.504 0.674,-3.221 2.023,-5.145h0.16l0.313,0.313v0.779l-0.785,2.496c0,2.729 2.289,4.6 6.871,5.617l2.807,0.152c4.861,0 8.709,-1.662 11.543,-4.99c0.152,0 0.313,0.205 0.467,0.625l-0.154,1.092c0.533,1.963 1.811,2.949 3.842,2.963V48.166z" id="path_8"/><path fill="#000001" d="M15.003,33.361h0.314c1.064,0.234 2.209,0.859 3.434,1.871v0.16c-0.705,2.129 -1.332,3.275 -1.875,3.434c-1.586,-0.313 -2.783,-0.832 -3.588,-1.564v-0.152C13.288,35.885 13.858,34.641 15.003,33.361z" id="path_9"/><path fill="#000001" d="M20.776,31.957h0.16c1.064,0.16 2.262,0.885 3.588,2.184v0.16l-1.879,3.273c-2.496,-0.805 -3.74,-1.482 -3.74,-2.029C19.712,33.154 20.337,31.957 20.776,31.957z" id="path_10"/><path fill="#000001" d="M17.866,20.729h1.545c1.869,0 2.811,0.699 2.811,2.102c-1.213,3.275 -2.684,5.014 -4.414,5.213l-2.043,0.273c-0.328,0 -0.461,-0.094 -0.414,-0.273c1.65,-0.871 3.195,-1.91 4.625,-3.102c-0.504,-0.473 -1.064,-0.705 -1.676,-0.705h-0.434l-1.678,0.139l-0.133,-0.139v-0.273C16.849,21.807 17.454,20.729 17.866,20.729z" id="path_11"/></svg>