<svg id="vector" xmlns="http://www.w3.org/2000/svg" width="75" height="67" viewBox="0 0 83 73"><path fill="#000001" d="M67.94,41.63c0.175,0 0.357,0 0.548,0h0.133c1.599,-0.112 3.058,-1.621 4.362,-4.527c1.414,-2.429 2.871,-3.64 4.369,-3.64c1.884,0 2.828,1.354 2.828,4.074v0.727c0,1.336 -0.472,3.081 -1.414,5.241l-0.899,0.727c-0.796,0 -2.631,-0.633 -5.525,-1.894c-0.877,1.49 -1.562,2.396 -2.055,2.714c-0.751,0.589 -1.52,0.838 -2.313,0.726H67.94V41.63L67.94,41.63zM74.397,38.556v0.143c2.225,0.975 3.557,1.459 3.984,1.459c0.17,0 0.257,-0.148 0.257,-0.441c-0.493,-1.453 -1.31,-2.18 -2.443,-2.18C75.405,37.537 74.803,37.879 74.397,38.556z" id="path_0"/><path fill="#000001" d="M78.393,47.995c0.131,-0.08 0.17,0.05 0.115,0.404c-0.729,1.938 -1.847,3.292 -3.354,4.055l-5.542,3.148c-0.236,-0.074 -0.279,-0.292 -0.131,-0.651c0.739,-1.615 1.244,-2.571 1.511,-2.875L78.393,47.995z" id="path_1"/><path fill="#DD2C00" d="M68.455,45.778c-0.203,0 -0.448,0 -0.739,0c-1.147,-0.012 -2.379,-0.987 -3.711,-2.931c-0.509,2.137 -1.408,3.205 -2.697,3.205h-0.125c-1.092,0 -1.991,-0.727 -2.697,-2.186h-0.133c-0.766,1.751 -1.699,2.546 -2.794,2.384c-2.034,0.014 -3.239,-1.074 -3.629,-3.252c-1.429,1.899 -2.97,2.832 -4.608,2.781h-0.209V41.63h0.066c2.592,-0.1 4.517,-1.1 5.782,-3c0.17,0 0.257,0.143 0.257,0.435l-0.132,1.018c0.686,1.552 1.585,2.328 2.697,2.328c1.053,0 2.122,-1.16 3.212,-3.49h0.133l0.382,0.435v1.019c0,0.918 0.605,1.453 1.798,1.602h0.257c1.114,0 2.143,-1.261 3.087,-3.789h0.125c0.169,0 0.257,0.441 0.257,1.312c0.472,1.471 1.613,2.179 3.42,2.129V45.778z" id="path_2"/><path fill="#DD2C00" d="M57.905,24.781h1.271c1.541,0 2.313,0.652 2.313,1.963c-0.999,3.055 -2.209,4.676 -3.633,4.862l-1.683,0.255c-0.269,0 -0.378,-0.087 -0.339,-0.255c1.357,-0.813 2.631,-1.782 3.809,-2.894c-0.417,-0.44 -0.877,-0.658 -1.381,-0.658h-0.356l-1.381,0.13l-0.111,-0.13v-0.254C57.066,25.787 57.565,24.781 57.905,24.781z" id="path_3"/><path fill="#000001" d="M32.182,41.63h0.839c1.437,-0.267 2.587,-1.148 3.469,-2.64c0,-0.603 -0.646,-2.887 -1.929,-6.838c-0.482,-1.105 -0.603,-2.18 -0.363,-3.229c0.242,-1.05 1.092,-2.254 2.545,-3.615c2.761,-2.28 6.703,-5.192 11.822,-8.732h0.126l0.131,0.435l-2.57,5.534H46.12l-0.125,-0.875c-0.406,0 -3.575,2.329 -9.505,6.986l-1.03,1.02c1.435,5.166 3.491,8.719 6.167,10.663c1.359,0.994 3.266,1.422 5.716,1.273v4.167c-4.647,0.181 -7.964,-1.937 -9.954,-6.347h-0.131c-0.515,4.242 -2.012,6.359 -4.495,6.347h-0.581V41.63z" id="path_4"/><path fill="#000001" d="M43.731,49.25c0.133,-0.081 0.169,0.05 0.115,0.404c-0.729,1.938 -1.847,3.292 -3.354,4.055l-5.542,3.149c-0.234,-0.075 -0.279,-0.292 -0.131,-0.653c0.739,-1.615 1.244,-2.57 1.513,-2.875L43.731,49.25z" id="path_5"/><path fill="#DD2C00" d="M29.228,46.797c1.332,0.609 2.313,1.286 2.96,2.037v0.149c-0.708,2.13 -1.266,3.199 -1.671,3.199c-0.324,0 -1.349,-0.585 -3.085,-1.746l-1.158,2.471c-2.225,-0.919 -3.337,-1.595 -3.337,-2.037c0.47,-1.987 0.942,-3.154 1.414,-3.49c0.361,0 1.474,0.627 3.338,1.894C28.395,47.623 28.91,46.797 29.228,46.797z" id="path_6"/><path fill="#DD2C00" d="M20.558,41.63h0.838c1.666,-0.155 2.91,-0.907 3.721,-2.254l0.133,-0.441l-0.384,-2.18c0.082,-2.328 0.296,-3.497 0.642,-3.497c1.026,4.099 2.011,6.601 2.955,7.497c0.811,0.521 1.923,0.807 3.336,0.857c0.378,0 0.729,0 1.065,0v4.167c-0.423,0 -0.862,0 -1.322,0h-0.125c-2.461,0 -4.347,-1.552 -5.652,-4.657v-0.144l-1.156,2.614c-0.877,1.472 -2.165,2.199 -3.854,2.186h-0.197V41.63z" id="path_7"/><path fill="#DD2C00" d="M25.749,21.508h1.271c1.539,0 2.313,0.651 2.313,1.962c-0.999,3.056 -2.209,4.676 -3.635,4.864l-1.683,0.253c-0.267,0 -0.376,-0.086 -0.339,-0.253c1.359,-0.813 2.631,-1.783 3.811,-2.894c-0.417,-0.441 -0.877,-0.659 -1.383,-0.659h-0.355l-1.382,0.13l-0.109,-0.13v-0.254C24.91,22.515 25.407,21.508 25.749,21.508z" id="path_8"/><path fill="#213e95" d="M14.446,29.221c0.439,0 1.468,0.584 3.087,1.745c0,0.727 -0.517,1.894 -1.546,3.497c-2.056,-0.75 -3.079,-1.435 -3.079,-2.037C12.962,31.879 13.471,30.812 14.446,29.221z" id="path_9"/><path fill="#213e95" d="M9.771,41.63c0.915,0.013 1.48,-0.006 1.704,-0.057c1.929,-0.664 3.245,-2.081 3.951,-4.236c0.105,-0.415 0.318,-0.465 0.642,-0.148c0.169,0.167 0.302,0.85 0.384,2.037c1.168,1.783 2.625,2.584 4.368,2.404h0.339v4.148h-0.082c-2.73,-0.143 -4.741,-1.552 -6.04,-4.222h-0.127c-0.909,2.173 -2.11,3.508 -3.596,4.006c-0.449,0.142 -0.963,0.216 -1.544,0.216V41.63z" id="path_10"/><path fill="#f06022" d="M19.422,19.415l0.133,0.13v0.397c-0.669,1.616 -1.595,2.746 -2.779,3.404c-3.684,2.267 -5.728,3.403 -6.133,3.403c-0.154,0 -0.23,-0.137 -0.23,-0.403c0.354,-1.541 1.129,-2.584 2.313,-3.131l6.588,-3.801H19.422z" id="path_11"/><path fill="#f06022" d="M18.508,16.143c0.148,0 0.224,0.124 0.224,0.378c-0.427,1.41 -1.692,2.676 -3.803,3.808l-4.867,3.018l-0.109,-0.13v-0.144c0.46,-1.844 1.189,-2.98 2.198,-3.403l5.425,-3.148L18.508,16.143z" id="path_12"/><path fill="#DD2C00" d="M9.804,45.778c-2.494,0.167 -4.308,-1.136 -5.442,-3.912c-0.548,-1.032 -1.059,-7.98 -1.541,-20.849v-0.292c0.318,-2.136 0.79,-3.205 1.408,-3.205l0.647,-0.143c0.79,0 1.989,0.292 3.596,0.87v0.292c-0.088,0.291 -0.345,0.441 -0.772,0.441H5.518c-0.449,0 -0.877,0.285 -1.289,0.869c0.402,11.173 0.983,17.644 1.755,19.415c0.767,1.769 2.044,2.559 3.82,2.366V45.778z" id="path_13"/></svg>