<svg id="vector" xmlns="http://www.w3.org/2000/svg" width="75" height="67" viewBox="0 0 83 73"><path fill="#000001" d="M73.869,23.336c0.313,0 0.627,1.047 0.939,3.123l1.404,3.121l-0.625,3.588l0.465,8.74v1.398c-0.205,3.566 -0.725,5.645 -1.557,6.242l-0.153,-0.152l0.153,-2.344c0,-2.104 -0.68,-8.813 -2.03,-20.121C73.118,24.535 73.584,23.336 73.869,23.336z" id="path_0"/><path fill="#000001" d="M74.223,11.342c1.598,0 2.396,0.984 2.396,2.947c0,3.131 -2.67,5.799 -8.015,7.996c-0.766,0.232 -0.858,-0.047 -0.272,-0.84c0.146,-0.299 1.404,-1.238 3.781,-2.809v-0.133c-1.025,-0.42 -1.538,-1.311 -1.538,-2.676c0.679,-2.988 1.757,-4.486 3.235,-4.486H74.223L74.223,11.342zM71.84,14.717c0,0.832 0.705,1.344 2.109,1.543h0.273c0.52,0 0.852,-0.191 0.992,-0.564c0,-0.846 -0.613,-1.504 -1.83,-1.971C72.852,13.725 72.339,14.057 71.84,14.717z" id="path_1"/><path fill="#008046" d="M56.497,45.104h0.778c4.853,-0.094 8.074,-0.773 9.672,-2.051l0.313,-0.619c-0.206,-0.498 -0.466,-0.746 -0.778,-0.746c-0.752,0.42 -1.586,0.627 -2.497,0.627h-0.159c-2.703,-0.313 -4.107,-1.404 -4.207,-3.275v-0.16c0.26,-3.535 1.092,-5.299 2.496,-5.299h0.778c2.403,-0.119 4.228,1.75 5.458,5.611l0.153,1.564v0.313c-0.033,3.822 -1.403,6.346 -4.114,7.563c-0.958,0.613 -3.594,0.918 -7.894,0.918V45.104z" id="path_2"/><path fill="#008046" d="M63.359,25.426c1.691,0.52 3.148,1.352 4.367,2.496v0.154c0,0.652 -0.672,1.689 -2.023,3.121c-0.42,0 -1.824,-0.518 -4.214,-1.557v0.152c-0.833,1.611 -1.352,2.443 -1.565,2.496c-1.35,-0.285 -2.494,-0.912 -3.427,-1.869c0.626,-2.604 1.145,-3.902 1.558,-3.902c0.339,0 1.584,0.627 3.748,1.871C61.803,27.842 62.32,26.857 63.359,25.426z" id="path_3"/><path fill="#0992d1" d="M61.623,15.695h1.543c1.871,0 2.81,0.699 2.81,2.104c-1.212,3.275 -2.683,5.012 -4.413,5.211l-2.044,0.273c-0.325,0 -0.459,-0.094 -0.412,-0.273c1.65,-0.871 3.195,-1.91 4.626,-3.102c-0.506,-0.473 -1.065,-0.705 -1.678,-0.705h-0.432l-1.678,0.141l-0.133,-0.141V18.93C60.604,16.773 61.209,15.695 61.623,15.695z" id="path_4"/><path fill="#DD2C00" d="M56.942,49.549c-0.245,0 -0.545,0 -0.897,0c-1.393,-0.012 -2.89,-1.057 -4.508,-3.141c-0.619,2.291 -1.709,3.436 -3.274,3.436h-0.153c-1.324,0 -2.416,-0.779 -3.274,-2.344h-0.159c-0.933,1.877 -2.064,2.729 -3.396,2.555c-2.469,0.014 -3.933,-1.15 -4.406,-3.486c-1.736,2.037 -3.607,3.035 -5.598,2.98h-0.253v-4.445h0.079c3.148,-0.107 5.486,-1.178 7.023,-3.215c0.207,0 0.313,0.152 0.313,0.465l-0.158,1.092c0.831,1.664 1.922,2.496 3.273,2.496c1.279,0 2.576,-1.244 3.901,-3.74h0.159l0.466,0.467v1.09c0,0.986 0.732,1.559 2.184,1.719h0.313c1.351,0 2.602,-1.352 3.748,-4.061h0.152c0.206,0 0.313,0.473 0.313,1.404c0.572,1.578 1.957,2.336 4.153,2.283V49.549z" id="path_5"/><path fill="#DD2C00" d="M50.354,53.504c0.16,-0.086 0.206,0.053 0.139,0.432c-0.885,2.078 -2.242,3.529 -4.072,4.348l-6.73,3.375c-0.287,-0.08 -0.34,-0.313 -0.16,-0.699c0.898,-1.73 1.512,-2.756 1.838,-3.082L50.354,53.504z" id="path_6"/><path fill="#000001" d="M31.182,49.549c-0.165,0 -0.346,0 -0.525,0h-0.152c-1.512,-0.012 -2.969,-0.277 -4.373,-0.799c-1.505,2.604 -3.482,3.902 -5.926,3.902c-2.914,-0.42 -4.373,-1.611 -4.373,-3.588H15.68c-0.492,1.664 -1.584,3.014 -3.275,4.053c-2.264,0.832 -4.033,1.252 -5.305,1.252l-0.719,0.092v-0.313c0.578,-0.479 2.149,-1.59 4.705,-3.334c2.557,-1.738 4.008,-2.828 4.348,-3.275c0.346,-0.439 0.845,-1.91 1.497,-4.406c1.245,-2.078 2.39,-3.121 3.429,-3.121h0.313c1.298,0 3.381,1.404 6.244,4.213c0.832,0.705 2.25,1.02 4.266,0.938V49.549L31.182,49.549zM17.709,45.316c0,1.379 1.092,2.316 3.275,2.809h0.779c1.77,-0.18 2.655,-0.439 2.655,-0.779c-2.056,-1.977 -3.614,-2.961 -4.687,-2.961H19.58C18.694,44.385 18.069,44.697 17.709,45.316z" id="path_7"/><path fill="#000001" d="M19.881,24.336c1.596,0 2.395,0.984 2.395,2.947c0,3.129 -2.668,5.799 -8.014,7.996c-0.766,0.232 -0.859,-0.047 -0.273,-0.84c0.146,-0.301 1.404,-1.238 3.781,-2.809v-0.135c-1.025,-0.418 -1.537,-1.311 -1.537,-2.674c0.679,-2.99 1.758,-4.486 3.235,-4.486H19.881L19.881,24.336zM17.497,27.709c0,0.832 0.705,1.346 2.11,1.545h0.273c0.518,0 0.851,-0.193 0.99,-0.564c0,-0.848 -0.611,-1.506 -1.83,-1.971C18.508,26.719 17.996,27.051 17.497,27.709z" id="path_8"/></svg>