<svg id="vector" xmlns="http://www.w3.org/2000/svg" width="100" height="67" viewBox="0 0 171 73"><path fill="#DD2C00" d="M161.647,22.334c0.313,0 0.626,1.047 0.939,3.126l1.406,3.127l-0.627,3.593l0.467,8.754v1.4c-0.206,3.573 -0.727,5.652 -1.56,6.253l-0.153,-0.153l0.153,-2.347c0,-2.106 -0.68,-8.827 -2.033,-20.153C160.894,23.533 161.36,22.334 161.647,22.334z" id="path_0"/><path fill="#DD2C00" d="M166.313,13.193c0.16,-0.094 0.207,0.053 0.141,0.434c-0.887,2.08 -2.247,3.533 -4.08,4.354l-6.74,3.38c-0.287,-0.08 -0.34,-0.313 -0.16,-0.707c0.9,-1.733 1.514,-2.76 1.84,-3.087L166.313,13.193z" id="path_1"/><path fill="#008046" d="M147.394,27.047c2.187,1.094 3.279,2.033 3.279,2.813c-1.039,2.055 -1.666,3.101 -1.873,3.127h-0.313c-1.601,-0.807 -2.594,-1.539 -2.967,-2.187C145.88,29.613 146.507,28.36 147.394,27.047z" id="path_2"/><path fill="#008046" d="M138.873,43.16h1.8c1.9,-0.26 4.92,-0.967 9.061,-2.106v-0.161c-3.773,-1.666 -6.167,-2.499 -7.187,-2.499c-1.38,0 -2.313,0.78 -2.813,2.347l-0.467,0.313c-0.207,0 -0.313,-0.161 -0.313,-0.474c0.52,-3.12 1.926,-4.688 4.219,-4.688h0.781c0.966,0 4.246,1.094 9.846,3.281l4.221,0.313l0.307,0.474c-0.074,0.7 -0.7,2.054 -1.873,4.06h-0.467l-0.627,-0.159h-0.78c-8.126,2.399 -12.866,3.646 -14.22,3.753h-1.487V43.16z" id="path_3"/><path fill="#008046" d="M146.707,16.987h1.546c1.874,0 2.814,0.7 2.814,2.106c-1.214,3.279 -2.688,5.02 -4.421,5.221l-2.046,0.272c-0.327,0 -0.461,-0.093 -0.414,-0.272c1.653,-0.874 3.2,-1.914 4.633,-3.107c-0.506,-0.474 -1.066,-0.707 -1.68,-0.707h-0.433l-1.681,0.141l-0.133,-0.141v-0.273C145.687,18.066 146.294,16.987 146.707,16.987z" id="path_4"/><path fill="#008046" d="M139.067,47.627c-0.141,0.014 -0.287,0.02 -0.428,0.02h-0.786c-1.22,0 -2.054,-0.1 -2.5,-0.313c-0.907,3.506 -1.967,5.652 -3.18,6.439c-1.214,0.787 -3.953,1.453 -8.22,2h-0.313c-0.94,-0.106 -1.407,-0.26 -1.407,-0.467c0,-0.313 0.78,-0.68 2.341,-1.094c6.146,-2.813 9.22,-4.846 9.22,-6.093c0,-0.521 -0.727,-1.72 -2.187,-3.593c-0.313,-0.527 -0.467,-1.2 -0.467,-2.033v-1.561c0,-0.787 0.153,-1.2 0.467,-1.254c1.353,2.074 3.646,3.227 6.872,3.474c0.201,0 0.395,0 0.588,-0.013V47.627z" id="path_5"/><path fill="#008046" d="M135.767,28.779c0.16,-0.092 0.207,0.055 0.141,0.434c-0.887,2.08 -2.247,3.533 -4.08,4.354l-6.74,3.381c-0.286,-0.08 -0.34,-0.314 -0.16,-0.707c0.9,-1.733 1.514,-2.76 1.84,-3.087L135.767,28.779z" id="path_6"/><path fill="#213e95" d="M112.847,48.273c2.187,1.094 3.28,2.033 3.28,2.813c-1.04,2.06 -1.667,3.101 -1.874,3.126h-0.313c-1.6,-0.807 -2.593,-1.539 -2.966,-2.186C111.333,50.84 111.96,49.587 112.847,48.273z" id="path_7"/><path fill="#213e95" d="M104.326,44.134h1.801c1.899,-0.261 4.92,-0.968 9.06,-2.106v-0.16c-3.773,-1.667 -6.167,-2.5 -7.187,-2.5c-1.38,0 -2.313,0.779 -2.813,2.346l-0.467,0.314c-0.206,0 -0.313,-0.16 -0.313,-0.474c0.521,-3.12 1.927,-4.687 4.221,-4.687h0.779c0.967,0 4.247,1.094 9.847,3.279l4.221,0.313l0.307,0.474c-0.073,0.699 -0.7,2.053 -1.874,4.061h-0.467l-0.626,-0.16h-0.78c-8.127,2.399 -12.866,3.646 -14.22,3.753h-1.487V44.134z" id="path_8"/><path fill="#213e95" d="M119.094,23.76c0.16,-0.093 0.206,0.054 0.14,0.434c-0.887,2.08 -2.247,3.533 -4.08,4.354l-6.74,3.38c-0.286,-0.08 -0.34,-0.313 -0.16,-0.706c0.9,-1.734 1.514,-2.76 1.841,-3.088L119.094,23.76z" id="path_9"/><path fill="#000001" d="M105.033,48.607c-1.993,-0.16 -3.793,-1.561 -5.413,-4.201c-2.394,2.914 -5.833,4.374 -10.307,4.374H88.06c-4.84,0 -8.173,-2.08 -9.999,-6.247l-0.154,-0.939v-1.406c0,-1.508 0.674,-3.227 2.027,-5.154h0.16l0.313,0.313v0.78l-0.786,2.5c0,2.733 2.293,4.606 6.88,5.627l2.813,0.152c4.866,0 8.72,-1.666 11.56,-5c0.153,0 0.313,0.207 0.467,0.627l-0.153,1.094c0.533,1.967 1.813,2.953 3.847,2.967V48.607z" id="path_10"/><path fill="#000001" d="M86.967,33.78h0.313c1.066,0.233 2.213,0.86 3.439,1.873v0.16c-0.706,2.134 -1.333,3.28 -1.88,3.44c-1.586,-0.313 -2.786,-0.834 -3.594,-1.566v-0.154C85.246,36.307 85.82,35.061 86.967,33.78z" id="path_11"/><path fill="#000001" d="M92.747,32.373h0.159c1.067,0.16 2.268,0.887 3.594,2.188v0.16L94.62,38c-2.5,-0.807 -3.747,-1.486 -3.747,-2.033C91.68,33.573 92.307,32.373 92.747,32.373z" id="path_12"/><path fill="#000001" d="M94.894,51.666c0.16,-0.086 0.206,0.055 0.14,0.434c-0.887,2.08 -2.246,3.533 -4.08,4.354l-6.74,3.381c-0.286,-0.08 -0.34,-0.314 -0.159,-0.701c0.899,-1.732 1.513,-2.76 1.84,-3.086L94.894,51.666z" id="path_13"/><path fill="#000001" d="M72.953,22.334c0.313,0 0.627,1.047 0.939,3.126l1.407,3.127l-0.627,3.593l0.467,8.754v1.4c-0.207,3.573 -0.727,5.652 -1.56,6.253l-0.153,-0.153l0.153,-2.347c0,-2.106 -0.681,-8.827 -2.033,-20.153C72.2,23.533 72.666,22.334 72.953,22.334z" id="path_14"/><path fill="#DD2C00" d="M65.479,25.146l1.253,3.754c0.627,0.573 0.939,1.04 0.939,1.406l-1.093,4.688l0.153,2.5c0,6.133 -2.187,10.353 -6.56,12.652c-3.561,1.146 -6.061,1.721 -7.5,1.721l-0.16,-0.154V51.4l3.279,-1.561c1.334,-0.613 3.101,-1.606 5.313,-2.973c2.4,-2.24 3.754,-3.801 4.067,-4.688l-0.394,-6.56l-0.394,-6.566C64.806,26.453 65.173,25.146 65.479,25.146z" id="path_15"/><path fill="#DD2C00" d="M65.267,15.5h1.546c1.874,0 2.813,0.7 2.813,2.107c-1.213,3.279 -2.687,5.02 -4.42,5.22L63.159,23.1c-0.326,0 -0.46,-0.093 -0.413,-0.272c1.653,-0.874 3.2,-1.913 4.634,-3.106c-0.507,-0.475 -1.067,-0.707 -1.681,-0.707h-0.433l-1.681,0.141l-0.133,-0.141V18.74C64.246,16.58 64.853,15.5 65.267,15.5z" id="path_16"/><path fill="#000001" d="M50.466,24.054c1.273,0 3.88,1.979 7.807,5.94c3.027,3.646 4.533,7.08 4.533,10.313v1.247c-0.079,2.187 -0.286,3.28 -0.626,3.28l-0.313,-0.307v-1.881c0,-2.967 -2.187,-6.613 -6.561,-10.934l-0.779,-0.473c-0.287,1.047 -0.547,1.566 -0.78,1.566l-3.753,-4.687l0.159,-3.907l0.153,-0.159H50.466z" id="path_17"/><path fill="#000001" d="M55.56,14.854c0.16,-0.094 0.207,0.053 0.14,0.434c-0.887,2.08 -2.246,3.533 -4.079,4.354l-6.74,3.379c-0.287,-0.08 -0.34,-0.313 -0.16,-0.706c0.9,-1.733 1.514,-2.76 1.84,-3.087L55.56,14.854z" id="path_18"/><path fill="#008046" d="M46.106,39.953c0.933,0.94 1.819,2.967 2.652,6.094l0.16,2.033c0,3.674 -1.826,6.174 -5.473,7.5l-1.094,0.153l-2.773,0.04l-2.693,-0.04l-0.153,-0.153v-0.16c0.334,-0.359 2.573,-1.453 6.714,-3.279c2.606,-1.48 4.013,-2.787 4.22,-3.907c-1.354,-2.887 -2.027,-4.554 -2.027,-5v-0.467C45.639,40.894 45.793,39.953 46.106,39.953z" id="path_19"/><path fill="#008046" d="M43.366,29.213h1.547c1.873,0 2.813,0.7 2.813,2.107c-1.213,3.279 -2.687,5.02 -4.42,5.22l-2.046,0.273c-0.327,0 -0.461,-0.093 -0.414,-0.273c1.653,-0.873 3.2,-1.913 4.634,-3.106c-0.507,-0.474 -1.066,-0.707 -1.681,-0.707h-0.433l-1.681,0.141l-0.133,-0.141v-0.273C42.346,30.293 42.953,29.213 43.366,29.213z" id="path_20"/><path fill="#008046" d="M31.179,23.78c1.273,0.206 2.526,0.993 3.754,2.347v0.313c-0.787,2.079 -1.36,3.12 -1.721,3.12c-2.5,-0.854 -3.753,-1.533 -3.753,-2.027C29.459,26.566 30.032,25.32 31.179,23.78z" id="path_21"/><path fill="#008046" d="M33.893,32.334h0.626c3.334,0.34 5,1.693 5,4.066v0.313c-0.666,2.588 -1.446,4.254 -2.347,5c-1.713,1.453 -4.32,2.188 -7.807,2.188h-0.313c-1.979,0 -3.593,-0.207 -4.847,-0.627v1.561c0,2.946 -1.506,5.813 -4.533,8.6c-2.213,1.56 -4.347,2.34 -6.406,2.34h-0.307c-3.207,0 -5.76,-1.773 -7.66,-5.313c-0.547,-1.641 -0.807,-3.414 -0.78,-5.314C5.325,41.4 6.579,38.74 8.266,37.18l0.786,-0.467h0.467v0.154c0,0.393 -0.833,1.693 -2.5,3.906c-0.627,0.859 -0.939,1.847 -0.939,2.967v0.787c0,1.246 0.939,2.913 2.813,5c1.593,0.934 3.413,1.406 5.473,1.406c3.667,0 6.534,-1.46 8.594,-4.38c0.1,-0.728 0.207,-1.454 0.307,-2.187c0,-0.44 -0.727,-1.794 -2.187,-4.061v-3.594c0.16,-0.286 0.313,-0.393 0.473,-0.313c1.273,1.533 2.733,2.473 4.374,2.813h0.313C28.245,34.627 30.792,32.334 33.893,32.334L33.893,32.334zM28.112,39.213l2.187,0.314c3.1,0 5.653,-0.627 7.66,-1.881v-0.152c-0.94,-0.94 -2.087,-1.407 -3.44,-1.407h-0.626C31.393,36.087 29.466,37.127 28.112,39.213z" id="path_22"/><path fill="#008046" d="M27.059,14.953c1.601,0 2.4,0.986 2.4,2.953c0,3.134 -2.674,5.807 -8.026,8.008c-0.768,0.232 -0.86,-0.047 -0.273,-0.841c0.146,-0.3 1.406,-1.239 3.786,-2.813v-0.133c-1.026,-0.42 -1.54,-1.313 -1.54,-2.68c0.68,-2.994 1.76,-4.494 3.24,-4.494H27.059L27.059,14.953zM24.672,18.334c0,0.832 0.707,1.346 2.113,1.546h0.273c0.521,0 0.854,-0.192 0.993,-0.566c0,-0.847 -0.613,-1.507 -1.833,-1.974C25.686,17.34 25.172,17.674 24.672,18.334z" id="path_23"/></svg>