<svg id="vector" xmlns="http://www.w3.org/2000/svg" width="75" height="67" viewBox="0 0 83 73"><path fill="#000001" d="M66.596,29.877c0.281,0 0.564,0.945 0.848,2.822l1.268,2.82l-0.564,3.241l0.42,7.897v1.264c-0.186,3.224 -0.654,5.1 -1.406,5.641l-0.139,-0.139l0.139,-2.116c0,-1.901 -0.613,-7.964 -1.834,-18.182C65.916,30.96 66.336,29.877 66.596,29.877z" id="path_0"/><path fill="#000001" d="M70.805,21.632c0.145,-0.084 0.186,0.048 0.127,0.391c-0.801,1.877 -2.027,3.188 -3.682,3.928L61.17,29c-0.26,-0.072 -0.307,-0.283 -0.145,-0.638c0.813,-1.564 1.365,-2.49 1.66,-2.785L70.805,21.632z" id="path_1"/><path fill="#DD2C00" d="M51.072,49.527c0.162,0.012 0.336,0.018 0.527,0.018h1.336c1.414,-0.234 2.49,-0.728 3.242,-1.479l-1.689,-13.395c0.42,-2.537 0.799,-3.801 1.123,-3.801l1.836,4.228c0,0.656 -0.234,1.643 -0.705,2.96l0.705,7.608v2.117c-0.529,2.243 -1.238,3.813 -2.131,4.703c-0.672,0.716 -1.459,1.076 -2.381,1.076h-1.197c-0.234,0 -0.455,-0.007 -0.666,-0.019V49.527z" id="path_2"/><path fill="#DD2C00" d="M57.344,22.744h1.396c1.689,0 2.537,0.632 2.537,1.901c-1.094,2.959 -2.422,4.527 -3.988,4.709l-1.846,0.246c-0.293,0 -0.414,-0.084 -0.371,-0.246c1.49,-0.788 2.885,-1.726 4.178,-2.803c-0.455,-0.428 -0.961,-0.638 -1.514,-0.638h-0.393l-1.516,0.126l-0.119,-0.126v-0.247C56.424,23.719 56.971,22.744 57.344,22.744z" id="path_3"/><path fill="#000001" d="M39.162,49.545c1.564,0.132 2.895,-0.023 4,-0.457l-0.584,-1.059c-0.547,-3.104 -0.299,-5.154 0.74,-6.158c1.047,-1.005 2.172,-1.468 3.369,-1.384c2.326,0.108 3.639,1.329 3.945,3.663v0.849c0,1.948 -0.283,3.169 -0.842,3.662c-0.355,0.366 0.443,0.673 2.393,0.92l0.459,-0.018c0.354,-0.013 0.756,-0.019 1.215,-0.019v4.018l-1.426,0.019c-2.654,-0.012 -4.662,-0.349 -6.027,-1.004c-1.877,0.655 -3.338,0.985 -4.367,0.985h-0.564c-0.703,0 -1.475,0 -2.311,0V49.545L39.162,49.545zM44.148,45.563v0.282c0.59,1.012 1.48,1.715 2.678,2.111c0.799,-0.139 1.6,-0.469 2.398,-0.986c-0.355,-1.316 -1.527,-2.069 -3.523,-2.255C44.666,44.999 44.148,45.28 44.148,45.563z" id="path_4"/><path fill="#000001" d="M44.998,33.583c1.221,0 2.344,0.751 3.379,2.255c-0.865,1.973 -1.527,2.959 -1.973,2.959c-1.9,-0.938 -2.936,-1.552 -3.104,-1.835C43.301,36.073 43.865,34.941 44.998,33.583z" id="path_5"/><path fill="#000001" d="M50.139,23.695c0.145,-0.085 0.186,0.047 0.127,0.39c-0.801,1.878 -2.027,3.188 -3.682,3.928l-6.08,3.051c-0.26,-0.072 -0.307,-0.283 -0.145,-0.638c0.813,-1.564 1.365,-2.491 1.66,-2.785L50.139,23.695z" id="path_6"/><path fill="#213e95" d="M39.283,53.563c-2.736,0.163 -4.729,-1.101 -5.973,-3.789c-0.602,-0.998 -1.16,-7.729 -1.691,-20.19V29.3c0.35,-2.068 0.867,-3.104 1.547,-3.104l0.709,-0.138c0.867,0 2.186,0.283 3.945,0.842v0.283c-0.096,0.282 -0.379,0.427 -0.848,0.427H34.58c-0.494,0 -0.963,0.277 -1.414,0.842c0.438,10.82 1.076,17.087 1.924,18.801c0.844,1.714 2.244,2.479 4.193,2.292V53.563z" id="path_7"/><path fill="#000001" d="M22.898,31.856c1.221,0 2.346,0.752 3.381,2.256c-0.865,1.973 -1.527,2.959 -1.973,2.959c-1.9,-0.938 -2.936,-1.552 -3.104,-1.835C21.203,34.346 21.768,33.216 22.898,31.856z" id="path_8"/><path fill="#000001" d="M18.334,49.545h0.703c4.385,-0.084 7.297,-0.697 8.74,-1.853l0.283,-0.56c-0.188,-0.451 -0.422,-0.674 -0.705,-0.674c-0.68,0.38 -1.432,0.565 -2.254,0.565h-0.146c-2.441,-0.282 -3.709,-1.27 -3.801,-2.958v-0.145c0.236,-3.194 0.986,-4.787 2.256,-4.787h0.703c2.172,-0.109 3.82,1.581 4.934,5.07l0.137,1.412v0.282c-0.029,3.453 -1.27,5.732 -3.717,6.834c-0.865,0.554 -3.248,0.829 -7.133,0.829V49.545z" id="path_9"/><path fill="#f06022" d="M29.148,22.588l0.145,0.127V23.1c-0.734,1.563 -1.75,2.658 -3.051,3.296c-4.041,2.194 -6.285,3.296 -6.73,3.296c-0.166,0 -0.252,-0.132 -0.252,-0.392c0.391,-1.491 1.24,-2.502 2.539,-3.031l7.229,-3.681H29.148z" id="path_10"/><path fill="#f06022" d="M28.145,19.419c0.162,0 0.246,0.12 0.246,0.366c-0.469,1.365 -1.859,2.592 -4.174,3.687l-5.342,2.924l-0.119,-0.127v-0.138c0.504,-1.786 1.305,-2.888 2.41,-3.297l5.957,-3.049L28.145,19.419z" id="path_11"/><path fill="#DD2C00" d="M19.705,53.563c-2.736,0.163 -4.727,-1.101 -5.973,-3.789c-0.6,-0.998 -1.16,-7.729 -1.689,-20.19V29.3c0.35,-2.068 0.865,-3.104 1.545,-3.104l0.711,-0.138c0.865,0 2.184,0.283 3.945,0.842v0.283c-0.096,0.282 -0.379,0.427 -0.848,0.427h-2.395c-0.494,0 -0.963,0.277 -1.414,0.842c0.439,10.82 1.076,17.087 1.926,18.801c0.842,1.714 2.242,2.479 4.191,2.292V53.563z" id="path_12"/></svg>