<svg id="vector" xmlns="http://www.w3.org/2000/svg" width="75" height="67" viewBox="0 0 83 73"><path fill="#000001" d="M71,24.383c0.313,0 0.625,1.045 0.938,3.121l1.404,3.121l-0.625,3.59l0.467,8.74v1.396c-0.207,3.568 -0.725,5.645 -1.559,6.244l-0.152,-0.154l0.152,-2.342c0,-2.104 -0.678,-8.813 -2.029,-20.123C70.248,25.58 70.713,24.383 71,24.383z" id="path_0"/><path fill="#000001" d="M75.66,15.256c0.158,-0.092 0.205,0.053 0.139,0.434c-0.885,2.076 -2.242,3.527 -4.072,4.346l-6.73,3.375c-0.287,-0.08 -0.34,-0.313 -0.16,-0.705c0.898,-1.73 1.512,-2.756 1.838,-3.082L75.66,15.256z" id="path_1"/><path fill="#008046" d="M59.184,41.977c0.934,0.938 1.818,2.961 2.65,6.082l0.16,2.031c0,3.668 -1.824,6.164 -5.465,7.488l-1.092,0.154l-2.77,0.039l-2.689,-0.039l-0.152,-0.154v-0.16c0.332,-0.359 2.568,-1.449 6.703,-3.275c2.602,-1.477 4.006,-2.781 4.213,-3.898c-1.352,-2.883 -2.023,-4.547 -2.023,-4.994v-0.465C58.719,42.914 58.871,41.977 59.184,41.977z" id="path_2"/><path fill="#008046" d="M58.4,31.252h1.543c1.871,0 2.809,0.699 2.809,2.104c-1.211,3.275 -2.682,5.012 -4.412,5.213l-2.045,0.271c-0.326,0 -0.459,-0.092 -0.412,-0.271c1.65,-0.873 3.195,-1.912 4.627,-3.104c-0.506,-0.473 -1.066,-0.705 -1.678,-0.705H58.4l-1.68,0.141l-0.133,-0.141v-0.273C57.381,32.33 57.986,31.252 58.4,31.252z" id="path_3"/><path fill="#DD2C00" d="M30.729,43.027h0.061c2.416,-0.107 4.08,-1.271 4.992,-3.508c0,-0.313 0.205,-0.572 0.625,-0.785h0.313c0.207,0 0.313,0.158 0.313,0.473l-0.16,0.932c0.887,1.564 1.826,2.344 2.811,2.344h0.779c1.352,0 2.395,-1.352 3.121,-4.055h0.16c0.152,0.02 0.412,0.646 0.777,1.871c0.887,0.779 1.766,1.244 2.65,1.404c1.039,0 1.564,-0.625 1.564,-1.871c0.1,-1.977 0.305,-2.969 0.619,-2.969c0.418,0.885 0.625,1.977 0.625,3.275c0,3.854 -0.939,5.777 -2.809,5.777c-1.457,0 -2.65,-0.732 -3.588,-2.189H43.27c-0.646,2.082 -1.691,3.121 -3.123,3.121h-0.152c-1.271,0 -2.729,-0.984 -4.367,-2.961c-1.377,2.389 -2.941,3.588 -4.678,3.588h-0.221V43.027z" id="path_4"/><path fill="#DD2C00" d="M46.99,24.422c0.16,-0.094 0.205,0.055 0.139,0.434c-0.885,2.076 -2.242,3.527 -4.072,4.346l-6.73,3.375c-0.285,-0.08 -0.34,-0.313 -0.16,-0.705c0.898,-1.73 1.512,-2.756 1.838,-3.082L46.99,24.422z" id="path_5"/><path fill="#000001" d="M30.574,47.414c-1.51,0.014 -2.754,-0.76 -3.746,-2.316h-0.154c-0.732,2.596 -1.824,4.42 -3.275,5.459c-2.055,1.977 -4.293,2.961 -6.709,2.961H15.75c-2.754,0 -5.197,-1.557 -7.328,-4.68c-0.832,-1.43 -1.25,-3.094 -1.25,-4.992c0,-2.676 1.35,-5.379 4.061,-8.107c1.41,-0.898 1.83,-0.846 1.244,0.152c-2.391,3.33 -3.588,5.619 -3.588,6.863c0,3.229 2.389,5.359 7.176,6.396h1.252c2.676,0 5.324,-1.352 7.955,-4.053c0.271,-0.859 0.324,-1.797 0.15,-2.809c-0.518,-2.211 -1.297,-7.828 -2.336,-16.848l0.934,-3.123c0.145,-0.027 0.299,-0.027 0.473,0c0.285,0 0.805,3.955 1.557,11.855c0.52,4.16 1.145,6.764 1.869,7.803c0.641,0.705 1.525,1.031 2.656,0.99V47.414z" id="path_6"/><path fill="#000001" d="M22.32,21.047c0.16,-0.094 0.207,0.053 0.141,0.434c-0.885,2.076 -2.244,3.527 -4.074,4.346l-6.729,3.375c-0.287,-0.078 -0.34,-0.313 -0.16,-0.705c0.898,-1.73 1.512,-2.756 1.836,-3.082L22.32,21.047z" id="path_7"/></svg>