<svg id="vector" xmlns="http://www.w3.org/2000/svg" width="75" height="67" viewBox="0 0 83 73"><path fill="#000001" d="M72.447,29.35h0.257c0.875,0.191 1.814,0.699 2.821,1.537v0.125c-0.579,1.756 -1.089,2.691 -1.536,2.822c-1.307,-0.256 -2.286,-0.684 -2.948,-1.279v-0.131C71.041,31.416 71.513,30.395 72.447,29.35z" id="path_0"/><path fill="#000001" d="M77.194,28.195h0.125c0.876,0.125 1.859,0.723 2.949,1.795v0.125l-1.538,2.691c-2.05,-0.662 -3.079,-1.215 -3.079,-1.662C76.313,29.174 76.828,28.195 77.194,28.195z" id="path_1"/><path fill="#000001" d="M71.31,42.695c3.357,0.033 5.234,-0.598 5.644,-1.893c0,-0.449 -0.427,-1.561 -1.285,-3.332l0.388,-3.33h0.252c1.116,1.92 1.668,3.844 1.668,5.764v1.154c0,0.771 -0.186,1.582 -0.552,2.428c-0.366,0.848 -0.935,1.564 -1.696,2.139c-0.765,0.58 -2.236,0.82 -4.418,0.723V42.695z" id="path_2"/><path fill="#000001" d="M79.431,21.305c0.131,-0.076 0.17,0.043 0.115,0.355c-0.728,1.707 -1.844,2.898 -3.348,3.57l-5.529,2.773c-0.235,-0.064 -0.278,-0.256 -0.131,-0.578c0.738,-1.422 1.241,-2.266 1.51,-2.533L79.431,21.305z" id="path_3"/><path fill="#DD2C00" d="M71.851,46.348c-0.082,0 -0.17,0 -0.252,0h-1.153c-1.154,0 -2.483,-0.729 -3.976,-2.178c-2.566,1.406 -5.334,2.135 -8.303,2.178v-3.637c1.554,0.104 3.549,-0.219 5.994,-0.98v-0.125c-1.176,-0.77 -2.285,-1.154 -3.331,-1.154l-1.028,0.127l-0.257,-0.641c0.345,-2.307 1.329,-3.463 2.948,-3.463l2.051,-0.125c3.248,0.383 4.873,1.111 4.873,2.178v0.514l-0.771,2.564c0.623,0.756 1.689,1.123 3.204,1.09V46.348z" id="path_4"/><path fill="#DD2C00" d="M64.691,25.264h1.27c1.536,0 2.308,0.574 2.308,1.729c-0.995,2.691 -2.204,4.119 -3.626,4.283l-1.679,0.223c-0.269,0 -0.377,-0.076 -0.34,-0.223c1.356,-0.717 2.626,-1.57 3.801,-2.549c-0.415,-0.389 -0.875,-0.58 -1.377,-0.58h-0.356l-1.378,0.115l-0.109,-0.115v-0.225C63.854,26.15 64.353,25.264 64.691,25.264z" id="path_5"/><path fill="#000001" d="M52.069,47.76c0.438,0 1.465,0.514 3.079,1.535c0,0.641 -0.514,1.67 -1.542,3.078c-2.051,-0.666 -3.074,-1.262 -3.074,-1.799C50.587,50.1 51.095,49.158 52.069,47.76z" id="path_6"/><path fill="#000001" d="M47.403,42.695c0.914,0.01 1.478,-0.006 1.701,-0.051c1.926,-0.584 3.238,-1.832 3.943,-3.729c0.104,-0.367 0.317,-0.412 0.641,-0.133c0.169,0.148 0.3,0.75 0.383,1.795c1.164,1.568 2.619,2.273 4.358,2.117h0.339v3.652h-0.082c-2.723,-0.127 -4.73,-1.367 -6.026,-3.719h-0.126c-0.908,1.914 -2.105,3.09 -3.588,3.527c-0.449,0.125 -0.963,0.191 -1.543,0.191V42.695z" id="path_7"/><path fill="#000001" d="M53.431,24.762c1.313,0 1.969,0.809 1.969,2.422c0,2.57 -2.193,4.764 -6.584,6.568c-0.63,0.191 -0.706,-0.037 -0.225,-0.688c0.12,-0.248 1.154,-1.02 3.105,-2.311v-0.109c-0.842,-0.344 -1.262,-1.076 -1.262,-2.197c0.557,-2.455 1.442,-3.686 2.658,-3.686H53.431L53.431,24.762zM51.474,27.533c0,0.684 0.579,1.105 1.732,1.27h0.225c0.427,0 0.699,-0.158 0.814,-0.465c0,-0.695 -0.503,-1.236 -1.504,-1.619C52.304,26.719 51.883,26.992 51.474,27.533z" id="path_8"/><path fill="#DD2C00" d="M47.771,46.363c-2.199,-0.146 -4.195,-1.35 -5.989,-3.604H41.65c-0.765,4.441 -2.478,6.662 -5.125,6.666h-0.388c-1.148,-0.004 -2.264,-1.027 -3.331,-3.078c-0.853,-2.883 -1.279,-5.064 -1.279,-6.535v-1.029c0,-0.639 0.126,-0.984 0.382,-1.023c0.362,0.193 0.794,1.594 1.291,4.207c0.498,2.609 1.521,3.855 3.068,3.74c2.992,-0.49 4.572,-2.203 4.742,-5.129l-1.154,-3.971v-1.412c0.044,-1.711 0.213,-2.564 0.514,-2.564c0.17,0.383 0.301,0.771 0.383,1.154l1.795,5.639c1.41,2.285 3.155,3.369 5.223,3.238V46.363z" id="path_9"/><path fill="#DD2C00" d="M40.42,20.627c1.313,0 1.969,0.809 1.969,2.422c0,2.57 -2.192,4.764 -6.585,6.568c-0.629,0.191 -0.705,-0.039 -0.225,-0.689c0.121,-0.244 1.155,-1.016 3.107,-2.307v-0.109c-0.843,-0.344 -1.264,-1.078 -1.264,-2.199c0.558,-2.455 1.443,-3.686 2.658,-3.686H40.42L40.42,20.627zM38.462,23.4c0,0.682 0.58,1.104 1.734,1.268h0.224c0.427,0 0.7,-0.158 0.815,-0.465c0,-0.693 -0.504,-1.236 -1.505,-1.619C39.293,22.584 38.872,22.857 38.462,23.4z" id="path_10"/><path fill="#213e95" d="M25.84,38.898h0.514c1.499,0 2.608,1.281 3.336,3.846l0.126,1.279c0.043,0.416 0.043,0.842 0,1.285c-0.383,1.559 -1.242,3.096 -2.564,4.609c-0.92,0.771 -3.008,1.367 -6.279,1.795c-0.383,-0.17 -0.602,-0.34 -0.641,-0.51c5.47,-2.969 8.205,-4.762 8.205,-5.387l0.125,-0.383l-0.125,-0.125l-1.154,0.383h-0.641c-2.308,0 -3.462,-0.814 -3.462,-2.434V43c0.296,-2.652 0.94,-3.977 1.92,-3.977L25.84,38.898z" id="path_11"/><path fill="#213e95" d="M24.368,28.244h1.27c1.536,0 2.307,0.574 2.307,1.729c-0.995,2.691 -2.203,4.119 -3.625,4.283l-1.68,0.223c-0.268,0 -0.377,-0.074 -0.338,-0.223c1.355,-0.717 2.625,-1.57 3.801,-2.549c-0.416,-0.389 -0.876,-0.58 -1.379,-0.58h-0.355l-1.379,0.115l-0.109,-0.115v-0.225C23.53,29.131 24.028,28.244 24.368,28.244z" id="path_12"/><path fill="#000001" d="M10.679,38.658h0.258c1.197,0.273 2.264,0.918 3.205,1.92v0.258c-0.084,0.682 -0.598,1.58 -1.537,2.689c-2.222,-0.744 -3.331,-1.389 -3.331,-1.92C9.804,40.07 10.274,39.084 10.679,38.658z" id="path_13"/><path fill="#000001" d="M17.477,36.094h0.251c0.302,0 1.029,1.924 2.184,5.77l0.125,0.508c0,3.014 -0.728,5.195 -2.176,6.541c-2.053,2.221 -4.486,3.332 -7.308,3.332c-2.308,-0.516 -3.801,-1.023 -4.484,-1.537c-2.226,-1.904 -3.336,-4.256 -3.336,-7.051c0,-2.352 1.028,-4.572 3.079,-6.666l0.125,-0.125h0.258l0.258,0.25c0,0.219 -0.598,1.154 -1.795,2.822c-0.346,0.596 -0.558,1.412 -0.64,2.434c0,1.99 1.022,3.697 3.073,5.131c2.008,0.771 3.375,1.154 4.103,1.154c1.837,0 4.013,-0.814 6.534,-2.436c1.029,-0.902 1.543,-1.455 1.543,-1.666l-1.794,-5l-0.132,-0.896L17.477,36.094z" id="path_14"/><path fill="#000001" d="M15.354,25.439c0.132,-0.076 0.17,0.043 0.115,0.355c-0.727,1.705 -1.843,2.898 -3.348,3.572l-5.529,2.771c-0.234,-0.066 -0.279,-0.256 -0.131,-0.58c0.738,-1.422 1.242,-2.264 1.51,-2.531L15.354,25.439z" id="path_15"/></svg>