<svg id="vector" xmlns="http://www.w3.org/2000/svg" width="75" height="67" viewBox="0 0 83 73"><path fill="#213e95" d="M63.673,38.276c-1.052,-1.211 -1.584,-2.461 -1.584,-3.766c0,-4.78 1.771,-7.177 5.306,-7.177h0.938c1.225,0 2.73,0.573 4.527,1.718c0.452,0.18 1.284,0.805 2.496,1.87c0.465,0.806 0.259,1.019 -0.626,0.626c-1.717,-0.832 -3.588,-1.245 -5.619,-1.245h-0.153c-1.637,0 -3.302,0.673 -4.993,2.024c0,1.091 1.764,2.289 5.306,3.587l1.87,0.313l7.017,-1.717c0.812,-0.168 0.905,0.418 0.292,1.77c-0.605,1.346 -1.745,2.264 -3.408,2.756c-1.938,0.778 -4.787,1.578 -8.541,2.391c-3.761,0.811 -6.942,1.264 -9.559,1.357v0.053c-3.754,0.12 -6.271,0.14 -7.535,0.073c-1.271,-0.073 -2.323,-0.167 -3.168,-0.286c-0.845,-0.113 -1.464,-0.506 -1.857,-1.172c-0.386,-0.658 0.473,-1.111 2.583,-1.352c2.117,-0.239 4.639,-0.386 7.568,-0.439C57.469,39.608 60.511,39.149 63.673,38.276z" id="path_0"/><path fill="#213e95" d="M72.507,14.873c0.16,-0.093 0.206,0.053 0.139,0.434c-0.885,2.076 -2.243,3.527 -4.074,4.346l-6.73,3.376c-0.286,-0.08 -0.339,-0.313 -0.159,-0.706c0.898,-1.731 1.511,-2.756 1.837,-3.082L72.507,14.873z" id="path_1"/><path fill="#008046" d="M33.426,38.511h0.606c2.057,-0.221 3.787,-1.465 5.191,-3.728c0.207,-0.466 0.413,-0.726 0.619,-0.779h0.16l0.466,0.472c-0.066,0.594 -0.167,1.013 -0.313,1.246c0.912,1.664 2.004,2.496 3.275,2.496l0.16,0.152c2.263,-4.992 4.806,-7.488 7.641,-7.488c2.264,0 3.928,0.939 4.993,2.809v0.938c0,5.719 -3.534,8.581 -10.61,8.581l-2.336,-0.153c-0.726,1.971 -1.198,2.962 -1.405,2.962l-0.153,-0.152v-0.16l0.466,-2.649v-0.313c-1.538,-0.857 -2.729,-2.057 -3.587,-3.587c-0.806,2.636 -2.53,3.907 -5.173,3.801V38.511L33.426,38.511zM45.148,38.684h0.313c3.535,0 6.55,-0.519 9.046,-1.558c0,-1.118 -1.039,-1.897 -3.114,-2.343h-0.626C48.27,34.783 46.399,36.088 45.148,38.684z" id="path_2"/><path fill="#008046" d="M44.383,18.348h1.544c1.87,0 2.809,0.699 2.809,2.104c-1.212,3.273 -2.682,5.012 -4.413,5.211l-2.044,0.273c-0.327,0 -0.459,-0.094 -0.412,-0.273c1.651,-0.871 3.195,-1.91 4.625,-3.102c-0.505,-0.473 -1.064,-0.706 -1.677,-0.706h-0.433l-1.677,0.14l-0.134,-0.14v-0.272C43.365,19.426 43.97,18.348 44.383,18.348z" id="path_3"/><path fill="#000001" d="M22.717,21.757c1.937,0.731 2.981,1.356 3.121,1.877v0.778c-0.08,0.752 -0.652,1.791 -1.717,3.122h-0.153c-0.599,-0.526 -1.637,-1.046 -3.123,-1.564l-0.153,-0.779C21.625,22.901 22.303,21.757 22.717,21.757z" id="path_4"/><path fill="#000001" d="M33.034,42.957c-0.64,0.013 -1.318,0.02 -2.05,0.02H30.83c-1.637,0 -3.148,-0.519 -4.526,-1.558c-3.208,1.352 -6.589,2.023 -10.138,2.023h-2.03c-4.833,0 -8.115,-1.924 -9.825,-5.771l-0.16,-1.404c0.612,-4.473 1.551,-6.709 2.809,-6.709l0.313,0.313c0,0.38 -0.573,1.624 -1.718,3.748v0.152c0.899,3.535 4.174,5.306 9.832,5.306h1.871c2.25,0 4.279,-0.261 6.083,-0.778l-0.466,-2.656c0,-3.947 1.145,-5.924 3.428,-5.924h1.405c1.977,0.465 2.968,1.764 2.968,3.9c-0.213,2.209 -0.473,3.768 -0.785,4.68v0.152h0.159l1.871,0.12c0.393,0 0.758,-0.007 1.111,-0.02V42.957L33.034,42.957zM24.281,35.022c0.373,0.725 1.258,1.504 2.649,2.337l2.496,-0.933v-0.473c-0.666,-1.145 -1.545,-1.717 -2.649,-1.717h-0.313C25.006,34.304 24.281,34.563 24.281,35.022z" id="path_5"/><path fill="#f06022" d="M23.747,50.292l0.161,0.141v0.426c-0.806,1.73 -1.931,2.941 -3.375,3.647c-4.473,2.43 -6.957,3.647 -7.449,3.647c-0.18,0 -0.273,-0.146 -0.273,-0.433c0.426,-1.651 1.365,-2.769 2.809,-3.354l7.995,-4.074H23.747z" id="path_6"/><path fill="#f06022" d="M22.637,46.784c0.186,0 0.272,0.134 0.272,0.406c-0.519,1.511 -2.057,2.869 -4.619,4.08l-5.911,3.235l-0.133,-0.14v-0.152c0.56,-1.979 1.451,-3.195 2.669,-3.648l6.596,-3.375L22.637,46.784z" id="path_7"/></svg>