<svg id="vector" xmlns="http://www.w3.org/2000/svg" width="75" height="67" viewBox="0 0 83 73"><path fill="#213e95" d="M70.42,50.379h0.314c1.064,0.234 2.209,0.859 3.434,1.877v0.154c-0.705,2.131 -1.326,3.275 -1.869,3.436c-1.592,-0.314 -2.783,-0.834 -3.588,-1.566v-0.152C68.711,52.902 69.282,51.658 70.42,50.379z" id="path_0"/><path fill="#213e95" d="M76.2,48.975h0.152c1.064,0.16 2.264,0.885 3.588,2.184v0.16l-1.871,3.275c-2.496,-0.807 -3.748,-1.484 -3.748,-2.031C75.125,50.172 75.752,48.975 76.2,48.975z" id="path_1"/><path fill="#213e95" d="M69.036,43.244c4.088,0.039 6.371,-0.727 6.871,-2.303c0,-0.547 -0.521,-1.898 -1.564,-4.055l0.473,-4.053h0.305c1.357,2.336 2.031,4.678 2.031,7.016v1.404c0,0.938 -0.227,1.922 -0.674,2.955c-0.445,1.031 -1.139,1.904 -2.063,2.604c-0.932,0.705 -2.723,0.998 -5.379,0.877V43.244z" id="path_2"/><path fill="#213e95" d="M80.739,22.082c0.16,-0.092 0.205,0.053 0.139,0.434c-0.885,2.076 -2.242,3.527 -4.074,4.346l-6.73,3.375c-0.283,-0.08 -0.338,-0.313 -0.156,-0.705c0.896,-1.73 1.508,-2.756 1.836,-3.082L80.739,22.082z" id="path_3"/><path fill="#f06022" d="M61.553,29.943c0.533,0 1.785,0.627 3.748,1.871c0,0.779 -0.625,2.031 -1.875,3.748c-2.496,-0.805 -3.742,-1.537 -3.742,-2.184C59.75,32.793 60.37,31.648 61.553,29.943z" id="path_4"/><path fill="#f06022" d="M55.877,43.244c1.111,0.012 1.795,-0.008 2.068,-0.061c2.344,-0.711 3.941,-2.23 4.799,-4.539c0.127,-0.447 0.387,-0.5 0.781,-0.16c0.205,0.18 0.363,0.912 0.465,2.184c1.418,1.91 3.189,2.77 5.305,2.576h0.414v4.445h-0.1c-3.316,-0.152 -5.76,-1.664 -7.336,-4.525H62.12c-1.104,2.33 -2.563,3.762 -4.367,4.293c-0.543,0.152 -1.17,0.232 -1.875,0.232V43.244z" id="path_5"/><path fill="#f06022" d="M61.881,18.809h1.545c1.869,0 2.807,0.699 2.807,2.102c-1.211,3.275 -2.682,5.014 -4.412,5.213l-2.043,0.273c-0.326,0 -0.459,-0.094 -0.414,-0.273c1.652,-0.871 3.195,-1.91 4.627,-3.102c-0.506,-0.473 -1.064,-0.705 -1.678,-0.705h-0.432l-1.68,0.139l-0.133,-0.139v-0.273C60.862,19.887 61.467,18.809 61.881,18.809z" id="path_6"/><path fill="#008046" d="M39.987,43.244c1.732,0.146 3.203,-0.027 4.428,-0.506l-0.646,-1.172c-0.604,-3.436 -0.334,-5.705 0.818,-6.816c1.16,-1.111 2.404,-1.625 3.729,-1.531c2.574,0.121 4.027,1.471 4.367,4.055v0.938c0,2.158 -0.314,3.508 -0.932,4.055c-0.395,0.406 0.49,0.746 2.648,1.018l0.506,-0.02c0.393,-0.014 0.84,-0.02 1.344,-0.02v4.445l-1.576,0.021c-2.936,-0.014 -5.158,-0.387 -6.67,-1.113c-2.078,0.727 -3.693,1.092 -4.832,1.092h-0.627c-0.777,0 -1.631,0 -2.557,0V43.244L39.987,43.244zM45.506,38.836v0.314c0.65,1.117 1.637,1.896 2.961,2.336c0.887,-0.154 1.771,-0.52 2.656,-1.092c-0.393,-1.457 -1.689,-2.291 -3.9,-2.496C46.079,38.211 45.506,38.525 45.506,38.836z" id="path_7"/><path fill="#008046" d="M48.528,24.246c1.691,0.525 3.148,1.357 4.367,2.496v0.16c0,0.652 -0.674,1.689 -2.023,3.121c-0.42,0 -1.824,-0.52 -4.213,-1.564v0.16c-0.834,1.611 -1.352,2.443 -1.566,2.496c-1.35,-0.285 -2.496,-0.912 -3.428,-1.877c0.625,-2.596 1.146,-3.895 1.557,-3.895c0.34,0 1.592,0.619 3.75,1.871C46.971,26.668 47.489,25.678 48.528,24.246z" id="path_8"/><path fill="#008046" d="M52.307,14.635c0.16,-0.094 0.207,0.053 0.141,0.432c-0.885,2.076 -2.242,3.529 -4.074,4.348l-6.729,3.373c-0.287,-0.078 -0.34,-0.313 -0.16,-0.705c0.898,-1.73 1.512,-2.754 1.836,-3.082L52.307,14.635z" id="path_9"/><path fill="#000001" d="M28.739,43.244c0.025,0 0.059,0 0.094,0c2.496,-0.152 3.926,-1.271 4.291,-3.355c-0.938,-6.238 -1.402,-10.611 -1.402,-13.107c0,-0.957 0.418,-2.209 1.252,-3.74l0.15,0.154l0.313,0.313L33.278,24.6c0.133,7.01 1.018,12.439 2.656,16.301c0.625,1.404 2.156,2.191 4.6,2.344v4.445c-3.355,-0.053 -5.611,-1.816 -6.783,-5.305h-0.16c-1.078,3.494 -2.695,5.266 -4.852,5.305V43.244z" id="path_10"/><path fill="#000001" d="M39.713,50.238c0.16,-0.084 0.207,0.055 0.141,0.434c-0.885,2.076 -2.242,3.527 -4.074,4.348l-6.729,3.375c-0.287,-0.08 -0.34,-0.314 -0.16,-0.699c0.898,-1.732 1.512,-2.756 1.836,-3.082L39.713,50.238z" id="path_11"/><path fill="#ba5927" d="M13.893,50.732c0.533,0 1.777,0.627 3.742,1.871c0,0.777 -0.627,2.029 -1.871,3.748c-2.496,-0.807 -3.748,-1.539 -3.748,-2.186C12.084,53.582 12.708,52.436 13.893,50.732z" id="path_12"/><path fill="#000001" d="M29.184,47.711c-1.99,-0.16 -3.795,-1.559 -5.404,-4.193c-2.391,2.908 -5.826,4.365 -10.299,4.365h-1.244c-4.838,0 -8.168,-2.076 -9.984,-6.236l-0.16,-0.939v-1.404c0,-1.504 0.678,-3.221 2.029,-5.145h0.154l0.313,0.313v0.779l-0.779,2.496c0,2.729 2.291,4.6 6.863,5.617l2.809,0.154c4.867,0 8.713,-1.666 11.551,-4.992c0.152,0 0.307,0.205 0.463,0.625l-0.156,1.092c0.531,1.963 1.814,2.947 3.846,2.961V47.711z" id="path_13"/><path fill="#ba5927" d="M15.258,23.002c1.598,0 2.398,0.984 2.398,2.947c0,3.129 -2.67,5.799 -8.016,7.996c-0.768,0.232 -0.859,-0.047 -0.273,-0.84c0.146,-0.299 1.404,-1.238 3.781,-2.809v-0.133c-1.025,-0.42 -1.539,-1.313 -1.539,-2.676c0.68,-2.988 1.758,-4.486 3.236,-4.486H15.258L15.258,23.002zM12.875,26.377c0,0.83 0.707,1.344 2.111,1.543h0.271c0.52,0 0.854,-0.191 0.992,-0.566c0,-0.844 -0.613,-1.502 -1.83,-1.969C13.887,25.385 13.375,25.717 12.875,26.377z" id="path_14"/></svg>