<svg id="vector" xmlns="http://www.w3.org/2000/svg" width="75" height="67" viewBox="0 0 83 73"><path fill="#000001" d="M61.979,43.994c2.799,0.357 5.559,-0.855 8.213,-2.263c1.008,-1.009 2.291,-2.702 3.846,-5.082c0.779,-0.78 1.512,-1.237 2.197,-1.378c2.381,0 3.576,1.283 3.576,3.846c-0.164,3.646 -0.85,5.844 -2.063,6.594h-0.688c-1.166,0 -3.229,-0.732 -6.184,-2.197c-0.686,1.195 -2.607,2.197 -5.768,3.024h-0.141C58.828,46.538 50.906,42.578 61.979,43.994L61.979,43.994zM73.627,40.494c1.166,0.569 2.678,1.072 4.531,1.513v-0.141c0,-1.442 -0.916,-2.31 -2.744,-2.608C74.219,39.598 73.627,40.014 73.627,40.494z" id="path_0"/><path fill="#000001" d="M78.516,25.313c0.141,-0.082 0.182,0.047 0.123,0.381c-0.779,1.829 -1.977,3.107 -3.588,3.828l-5.926,2.972c-0.252,-0.07 -0.299,-0.275 -0.141,-0.621c0.791,-1.524 1.33,-2.427 1.617,-2.714L78.516,25.313z" id="path_1"/><path fill="#008046" d="M47.734,42.881h0.533c1.811,-0.193 3.336,-1.29 4.572,-3.283c0.182,-0.41 0.363,-0.639 0.545,-0.686h0.141l0.41,0.416c-0.059,0.521 -0.146,0.891 -0.275,1.096c0.805,1.466 1.766,2.199 2.885,2.199l0.141,0.135c1.992,-4.396 4.232,-6.596 6.729,-6.596c1.994,0 3.459,0.827 4.396,2.475v0.826c0,5.035 -3.111,7.557 -9.344,7.557l-2.057,-0.136c-0.639,1.735 -1.055,2.608 -1.238,2.608l-0.135,-0.135v-0.141l0.412,-2.333v-0.275c-1.355,-0.756 -2.404,-1.812 -3.16,-3.159c-0.709,2.321 -2.229,3.44 -4.555,3.348V42.881L47.734,42.881zM58.057,43.033h0.275c3.113,0 5.768,-0.457 7.967,-1.372c0,-0.985 -0.914,-1.671 -2.744,-2.063h-0.551C60.807,39.598 59.158,40.746 58.057,43.033z" id="path_2"/><path fill="#008046" d="M57.383,25.125h1.359c1.648,0 2.475,0.615 2.475,1.853c-1.066,2.884 -2.363,4.413 -3.887,4.589l-1.799,0.241c-0.287,0 -0.404,-0.082 -0.363,-0.241c1.453,-0.768 2.813,-1.682 4.072,-2.73c-0.445,-0.417 -0.938,-0.621 -1.477,-0.621h-0.381l-1.477,0.123l-0.117,-0.123v-0.241C56.486,26.074 57.02,25.125 57.383,25.125z" id="path_3"/><path fill="#213e95" d="M36.063,42.881c1.525,0.129 2.82,-0.023 3.898,-0.446l-0.568,-1.031c-0.533,-3.024 -0.293,-5.023 0.721,-6.003c1.021,-0.979 2.117,-1.43 3.283,-1.348c2.27,0.105 3.547,1.295 3.846,3.57v0.826c0,1.898 -0.275,3.089 -0.82,3.569c-0.346,0.358 0.436,1.152 2.332,0.897c0.742,-0.1 0.654,3.867 0.24,3.897c-2.578,0.194 -4.543,-0.34 -5.873,-0.979c-1.828,0.64 -3.254,0.963 -4.256,0.963h-0.551c-0.686,0 -1.436,0 -2.252,0V42.881L36.063,42.881zM40.924,39v0.275c0.574,0.984 1.441,1.67 2.607,2.058c0.779,-0.135 1.561,-0.458 2.34,-0.962c-0.346,-1.283 -1.49,-2.016 -3.436,-2.197C41.428,38.449 40.924,38.725 40.924,39z" id="path_4"/><path fill="#213e95" d="M41.75,27.323c1.189,0 2.285,0.732 3.293,2.198c-0.844,1.922 -1.488,2.884 -1.922,2.884c-1.852,-0.915 -2.861,-1.513 -3.025,-1.788C40.096,29.75 40.648,28.648 41.75,27.323z" id="path_5"/><path fill="#213e95" d="M42.969,15.16c1.406,0 2.109,0.867 2.109,2.597c0,2.755 -2.35,5.105 -7.057,7.04c-0.674,0.205 -0.756,-0.041 -0.24,-0.738c0.129,-0.265 1.236,-1.091 3.33,-2.475v-0.117c-0.904,-0.369 -1.355,-1.154 -1.355,-2.355c0.598,-2.633 1.549,-3.951 2.85,-3.951H42.969L42.969,15.16zM40.869,18.132c0,0.732 0.623,1.185 1.859,1.36h0.24c0.457,0 0.75,-0.17 0.873,-0.498c0,-0.745 -0.539,-1.325 -1.611,-1.736C41.762,17.258 41.311,17.551 40.869,18.132z" id="path_6"/><path fill="#000001" d="M36.492,46.797l-1.549,-0.019c-0.855,3.769 -3.123,5.675 -6.799,5.722c-1.971,0.088 -2.955,0.053 -2.955,-0.105c0.182,-0.346 1.502,-1.009 3.951,-1.994c2.521,-1.6 4.039,-2.631 4.566,-3.088l0.141,-0.411l-2.402,-0.381c-1.754,-0.457 -2.738,-1.337 -2.955,-2.644v-0.275c0,-2.222 0.545,-3.641 1.646,-4.262l0.826,-0.135c1.625,0 2.949,1.131 3.98,3.4c0.656,0.229 1.174,0.34 1.549,0.328V46.797z" id="path_7"/><path fill="#000001" d="M30.119,27.903h1.361c1.646,0 2.473,0.616 2.473,1.853c-1.066,2.884 -2.361,4.414 -3.887,4.59l-1.799,0.24c-0.287,0 -0.404,-0.082 -0.363,-0.24c1.453,-0.768 2.814,-1.683 4.074,-2.731c-0.445,-0.417 -0.938,-0.622 -1.479,-0.622h-0.381l-1.477,0.123l-0.117,-0.123v-0.24C29.223,28.854 29.756,27.903 30.119,27.903z" id="path_8"/><path fill="#000001" d="M19.229,25.641c1.189,0 2.285,0.732 3.293,2.198c-0.844,1.923 -1.488,2.884 -1.922,2.884c-1.854,-0.914 -2.861,-1.512 -3.025,-1.787C17.574,28.068 18.125,26.965 19.229,25.641z" id="path_9"/><path fill="#000001" d="M14.779,42.881h0.686c4.273,-0.082 7.109,-0.681 8.518,-1.806l0.275,-0.546c-0.182,-0.439 -0.41,-0.656 -0.686,-0.656c-0.662,0.369 -1.396,0.551 -2.199,0.551h-0.141c-2.379,-0.275 -3.617,-1.236 -3.705,-2.884v-0.141c0.229,-3.112 0.963,-4.666 2.199,-4.666h0.686c2.115,-0.105 3.723,1.542 4.807,4.942l0.135,1.377v0.275c-0.029,3.365 -1.283,5.49 -3.623,6.659c-0.896,0.446 -2.371,0.681 -6.158,0.681L14.779,42.881z" id="path_10"/><path fill="#000001" d="M24.99,16.35c0.141,-0.082 0.182,0.047 0.123,0.381c-0.779,1.83 -1.975,3.107 -3.588,3.828L15.6,23.53c-0.252,-0.07 -0.299,-0.274 -0.141,-0.621c0.791,-1.524 1.33,-2.427 1.617,-2.714L24.99,16.35z" id="path_11"/><path fill="#000001" d="M5.389,23.268h0.551c1.811,1.031 2.727,1.629 2.75,1.787c-0.898,1.923 -1.49,2.931 -1.789,3.024c-1.031,0 -2.039,-0.504 -3.025,-1.513C4.064,25.582 4.568,24.48 5.389,23.268z" id="path_12"/><path fill="#000001" d="M10.195,22.581c0.873,0 1.928,0.599 3.166,1.788c0,0.48 -0.6,1.441 -1.789,2.884c-0.686,0 -1.693,-0.457 -3.023,-1.372C8.549,25.078 9.1,23.976 10.195,22.581z" id="path_13"/><path fill="#000001" d="M16.965,46.797H16.93c-2.631,0 -4.42,-1.285 -5.357,-3.846l-0.275,-1.103h-0.275c-0.205,0.732 -1.67,1.19 -4.396,1.378H5.939c-1.834,0 -2.75,-0.551 -2.75,-1.653v-1.237c0,-1.324 1.01,-2.972 3.025,-4.941c1.213,-0.92 2.586,-1.693 4.121,-2.338l-0.141,-0.411c0.504,-2.292 0.92,-3.435 1.236,-3.435c0.164,0.387 0.393,3.229 0.691,8.517c0.41,3.564 2.023,5.294 4.842,5.206V46.797L16.965,46.797zM4.838,38.83c0.527,0.363 1.4,0.545 2.613,0.545c1.189,-0.088 2.287,-0.316 3.295,-0.686l-0.275,-3.846h-0.135C6.672,36.585 4.838,37.91 4.838,38.83z" id="path_14"/><path fill="#f06022" d="M13.854,50.917l0.141,0.123v0.375c-0.711,1.524 -1.701,2.591 -2.973,3.212c-3.939,2.141 -6.125,3.213 -6.559,3.213c-0.158,0 -0.24,-0.129 -0.24,-0.381c0.375,-1.454 1.201,-2.439 2.473,-2.955l7.041,-3.587H13.854z" id="path_15"/><path fill="#f06022" d="M12.873,47.828c0.166,0 0.242,0.117 0.242,0.357c-0.459,1.33 -1.813,2.526 -4.068,3.594l-5.205,2.848l-0.117,-0.123v-0.135c0.492,-1.74 1.277,-2.813 2.35,-3.212l5.809,-2.972L12.873,47.828z" id="path_16"/></svg>