<svg id="vector" xmlns="http://www.w3.org/2000/svg" width="75" height="67" viewBox="0 0 83 73"><path fill="#213e95" d="M70.105,50.543h0.264c0.901,0.197 1.868,0.727 2.904,1.586v0.131c-0.597,1.801 -1.121,2.768 -1.582,2.904c-1.344,-0.266 -2.351,-0.705 -3.033,-1.324v-0.129C68.659,52.676 69.143,51.623 70.105,50.543z" id="path_0"/><path fill="#213e95" d="M74.989,49.355h0.13c0.9,0.137 1.912,0.75 3.032,1.846v0.137l-1.581,2.768c-2.11,-0.682 -3.167,-1.256 -3.167,-1.717C74.083,50.369 74.612,49.355 74.989,49.355z" id="path_1"/><path fill="#213e95" d="M68.935,44.512c3.455,0.033 5.384,-0.613 5.807,-1.947c0,-0.461 -0.439,-1.604 -1.322,-3.426l0.399,-3.426h0.259c1.148,1.975 1.716,3.955 1.716,5.93v1.188c0,0.793 -0.191,1.625 -0.568,2.498c-0.377,0.871 -0.962,1.609 -1.745,2.199c-0.787,0.598 -2.301,0.844 -4.546,0.744V44.512z" id="path_2"/><path fill="#000001" d="M55.752,44.512c1.463,0.123 2.707,-0.023 3.742,-0.428l-0.546,-0.99c-0.512,-2.902 -0.282,-4.82 0.692,-5.76c0.979,-0.941 2.031,-1.373 3.151,-1.295c2.177,0.102 3.404,1.242 3.69,3.426v0.793c0,1.824 -0.264,2.965 -0.788,3.428c-0.332,0.342 0.416,0.629 2.239,0.859l0.427,-0.016c0.333,-0.012 0.71,-0.018 1.137,-0.018v3.76l-1.333,0.016c-2.481,-0.01 -4.36,-0.326 -5.638,-0.939c-1.756,0.613 -3.124,0.924 -4.086,0.924h-0.528c-0.658,0 -1.379,0 -2.161,0V44.512L55.752,44.512zM60.417,40.787v0.266c0.551,0.943 1.384,1.604 2.504,1.975c0.748,-0.131 1.497,-0.439 2.245,-0.924c-0.332,-1.232 -1.428,-1.936 -3.296,-2.109C60.9,40.258 60.417,40.523 60.417,40.787z" id="path_3"/><path fill="#000001" d="M61.209,29.58c1.143,0 2.195,0.703 3.162,2.109c-0.811,1.846 -1.429,2.768 -1.845,2.768c-1.779,-0.877 -2.746,-1.451 -2.904,-1.715C59.623,31.908 60.152,30.852 61.209,29.58z" id="path_4"/><path fill="#000001" d="M61.007,20.049h1.305c1.582,0 2.375,0.59 2.375,1.777c-1.025,2.77 -2.268,4.236 -3.731,4.406l-1.727,0.23c-0.276,0 -0.389,-0.078 -0.349,-0.23c1.395,-0.738 2.7,-1.615 3.91,-2.623c-0.427,-0.398 -0.9,-0.596 -1.418,-0.596h-0.366l-1.417,0.117l-0.113,-0.117v-0.23C60.146,20.959 60.658,20.049 61.007,20.049z" id="path_5"/><path fill="#213e95" d="M56.141,48.271c-0.085,0 -0.176,0 -0.26,0h-1.188c-1.187,0 -2.554,-0.75 -4.09,-2.24c-2.639,1.445 -5.486,2.195 -8.541,2.24v-3.742c1.598,0.105 3.651,-0.225 6.166,-1.008v-0.129c-1.209,-0.795 -2.352,-1.188 -3.426,-1.188l-1.058,0.129l-0.264,-0.658c0.355,-2.373 1.367,-3.561 3.033,-3.561l2.11,-0.129c3.343,0.393 5.014,1.141 5.014,2.238v0.529l-0.793,2.639c0.642,0.775 1.738,1.152 3.298,1.119V48.271z" id="path_6"/><path fill="#213e95" d="M53.783,26.855c0.134,-0.078 0.174,0.045 0.118,0.367c-0.748,1.756 -1.896,2.982 -3.443,3.674l-5.688,2.852c-0.242,-0.068 -0.288,-0.264 -0.135,-0.596c0.759,-1.463 1.277,-2.33 1.553,-2.605L53.783,26.855z" id="path_7"/><path fill="#000001" d="M32.773,44.512c0.022,0 0.051,0 0.079,0c2.11,-0.129 3.32,-1.074 3.629,-2.836c-0.793,-5.271 -1.188,-8.967 -1.188,-11.078c0,-0.811 0.355,-1.867 1.058,-3.162l0.129,0.129l0.264,0.266l-0.134,0.922c0.112,5.926 0.861,10.518 2.245,13.779c0.528,1.188 1.822,1.852 3.888,1.98v3.76c-2.836,-0.045 -4.743,-1.537 -5.733,-4.484h-0.135c-0.912,2.953 -2.279,4.449 -4.102,4.484V44.512z" id="path_8"/><path fill="#000001" d="M37.174,17.838c1.35,0 2.025,0.832 2.025,2.492c0,2.645 -2.256,4.9 -6.774,6.758c-0.647,0.195 -0.727,-0.041 -0.231,-0.709c0.124,-0.254 1.187,-1.047 3.195,-2.375v-0.111c-0.866,-0.355 -1.298,-1.109 -1.298,-2.264c0.573,-2.525 1.485,-3.791 2.734,-3.791H37.174L37.174,17.838zM35.159,20.689c0,0.703 0.597,1.137 1.784,1.307h0.231c0.439,0 0.72,-0.164 0.837,-0.48c0,-0.713 -0.518,-1.271 -1.547,-1.664C36.015,19.852 35.581,20.133 35.159,20.689z" id="path_9"/><path fill="#DD2C00" d="M33.134,48.271l-1.486,-0.018c-0.821,3.617 -2.998,5.445 -6.526,5.492c-1.891,0.084 -2.835,0.049 -2.835,-0.104c0.173,-0.33 1.44,-0.967 3.792,-1.912c2.419,-1.535 3.877,-2.525 4.383,-2.965l0.135,-0.395l-2.307,-0.365c-1.682,-0.438 -2.627,-1.283 -2.835,-2.537v-0.266c0,-2.131 0.523,-3.492 1.582,-4.09l0.792,-0.129c1.559,0 2.831,1.086 3.82,3.264c0.631,0.219 1.125,0.326 1.486,0.314V48.271z" id="path_10"/><path fill="#DD2C00" d="M27.018,30.137h1.306c1.582,0 2.374,0.59 2.374,1.777c-1.024,2.77 -2.267,4.238 -3.729,4.406l-1.728,0.23c-0.276,0 -0.388,-0.078 -0.349,-0.23c1.395,-0.738 2.701,-1.615 3.911,-2.623c-0.428,-0.398 -0.901,-0.596 -1.417,-0.596h-0.367L25.6,33.221l-0.112,-0.119v-0.23C26.157,31.049 26.669,30.137 27.018,30.137z" id="path_11"/><path fill="#000001" d="M13.024,40.359h0.264c1.232,0.281 2.329,0.945 3.298,1.975v0.264c-0.085,0.705 -0.614,1.627 -1.582,2.77c-2.283,-0.766 -3.426,-1.43 -3.426,-1.975C12.125,41.813 12.608,40.799 13.024,40.359z" id="path_12"/><path fill="#000001" d="M20.019,37.721h0.258c0.309,0 1.058,1.98 2.246,5.936l0.128,0.523c0,3.1 -0.748,5.346 -2.238,6.729c-2.11,2.285 -4.614,3.428 -7.518,3.428c-2.374,-0.529 -3.91,-1.053 -4.613,-1.582c-2.291,-1.957 -3.433,-4.377 -3.433,-7.252c0,-2.418 1.058,-4.703 3.168,-6.857l0.129,-0.131H8.41l0.265,0.26c0,0.225 -0.613,1.188 -1.846,2.902c-0.354,0.613 -0.573,1.453 -0.658,2.504c0,2.049 1.052,3.805 3.162,5.277c2.065,0.793 3.471,1.188 4.22,1.188c1.89,0 4.129,-0.838 6.723,-2.504c1.058,-0.928 1.586,-1.496 1.586,-1.717l-1.845,-5.143l-0.136,-0.922L20.019,37.721z" id="path_13"/><path fill="#000001" d="M17.835,26.76c0.134,-0.078 0.174,0.045 0.118,0.367c-0.748,1.756 -1.896,2.982 -3.443,3.674l-5.688,2.852c-0.242,-0.066 -0.287,-0.264 -0.136,-0.596c0.76,-1.463 1.277,-2.328 1.553,-2.605L17.835,26.76z" id="path_14"/><path fill="#213e95" d="M76.603,26.855c0.136,-0.078 0.175,0.045 0.119,0.367c-0.749,1.756 -1.896,2.982 -3.444,3.674l-5.688,2.852c-0.242,-0.068 -0.287,-0.264 -0.135,-0.596c0.76,-1.463 1.277,-2.33 1.552,-2.605L76.603,26.855z" id="path_15"/></svg>