<svg id="vector" xmlns="http://www.w3.org/2000/svg" width="75" height="67" viewBox="0 0 83 73"><path fill="#000001" d="M54.963,52.592c0.23,0 0.479,0 0.738,0h0.938c3.535,-0.586 5.305,-1.651 5.305,-3.195c-1.678,-1.564 -4.379,-2.344 -8.115,-2.344l-2.143,0.193h-2.322l-0.566,-5.518l8.154,-6.064l8.27,-5.932c0.404,-0.245 0.557,-0.139 0.465,0.313l-3.428,6.243h-0.16l-0.154,-1.091h-0.313l-9.984,7.488h3.588c4.227,0 7.037,1.191 8.428,3.589l0.152,0.931v0.313c-0.012,3.967 -1.83,6.928 -5.457,8.893c-1.039,0.42 -1.926,0.625 -2.656,0.625c-0.26,0 -0.508,0 -0.738,0V52.592z" id="path_0"/><path fill="#DD2C00" d="M55.9,57.038h-0.393c-3.768,0 -6.111,-2.648 -7.021,-7.954l-0.934,-15.137c0.387,-2.184 0.807,-3.428 1.244,-3.741h0.16c0.207,0 0.307,0.154 0.307,0.467c0,10.324 0.68,16.848 2.029,19.576c1.379,1.524 2.916,2.297 4.607,2.322V57.038z" id="path_1"/><path fill="#DD2C00" d="M48.426,15.961h1.543c1.871,0 2.809,0.699 2.809,2.104c-1.211,3.275 -2.682,5.013 -4.412,5.213l-2.045,0.271c-0.324,0 -0.457,-0.093 -0.41,-0.271c1.648,-0.873 3.193,-1.912 4.625,-3.104c-0.506,-0.473 -1.064,-0.705 -1.678,-0.705h-0.432l-1.678,0.141l-0.133,-0.141v-0.272C47.408,17.04 48.012,15.961 48.426,15.961z" id="path_2"/><path fill="#000001" d="M24.848,52.592h0.061c2.416,-0.107 4.08,-1.271 4.992,-3.509c0,-0.313 0.207,-0.572 0.627,-0.784h0.311c0.207,0 0.313,0.159 0.313,0.471l-0.16,0.933c0.887,1.563 1.826,2.343 2.811,2.343h0.779c1.35,0 2.396,-1.352 3.121,-4.053h0.16c0.154,0.02 0.414,0.646 0.777,1.87c0.887,0.778 1.766,1.245 2.65,1.403c1.037,0 1.564,-0.625 1.564,-1.869c0.1,-1.977 0.307,-2.969 0.619,-2.969c0.42,0.885 0.625,1.977 0.625,3.274c0,3.854 -0.938,5.778 -2.809,5.778c-1.459,0 -2.65,-0.732 -3.588,-2.189h-0.313c-0.645,2.082 -1.689,3.121 -3.121,3.121h-0.154c-1.271,0 -2.729,-0.985 -4.367,-2.962c-1.377,2.39 -2.941,3.587 -4.678,3.587h-0.221V52.592z" id="path_3"/><path fill="#f06022" d="M40.898,34.28l0.156,0.14v0.427c-0.811,1.73 -1.936,2.941 -3.373,3.646c-4.473,2.431 -6.955,3.648 -7.449,3.648c-0.186,0 -0.279,-0.146 -0.279,-0.434c0.434,-1.65 1.371,-2.769 2.809,-3.354l8.002,-4.074H40.898z" id="path_4"/><path fill="#f06022" d="M39.783,30.772c0.182,0 0.273,0.133 0.273,0.405c-0.518,1.512 -2.055,2.87 -4.617,4.081l-5.91,3.234l-0.135,-0.139V38.2c0.559,-1.977 1.443,-3.194 2.67,-3.647l6.588,-3.375L39.783,30.772z" id="path_5"/><path fill="#000001" d="M25.635,57.038H25.24c-3.768,0 -6.109,-2.648 -7.016,-7.954l-0.939,-15.137c0.395,-2.184 0.805,-3.428 1.252,-3.741h0.154c0.205,0 0.313,0.154 0.313,0.467c0,10.324 0.672,16.848 2.029,19.576c1.379,1.524 2.91,2.297 4.602,2.322V57.038z" id="path_6"/></svg>