<svg id="vector" xmlns="http://www.w3.org/2000/svg" width="75" height="67" viewBox="0 0 83 73"><path fill="#DD2C00" d="M52.699,42.846c1.847,0.012 4.273,-0.219 7.274,-0.68h0.144c2.533,-0.412 5.166,-1.635 7.898,-3.656c0.244,-1.074 0.486,-1.611 0.73,-1.611h0.144c0.368,0.227 0.368,0.855 0,1.904c0.562,2.047 1.535,3.068 2.926,3.068c1.366,0 2.146,-1.117 2.339,-3.361c0,-0.389 0.194,-0.682 0.587,-0.875c0.193,0 0.336,0.486 0.437,1.461c0.611,1.367 1.341,2.109 2.196,2.227h0.293c0.487,0.025 0.874,-0.23 1.167,-0.766l0.075,-2.266c-0.025,-1.41 0.094,-2.121 0.362,-2.121c0.468,0 0.755,1.416 0.88,4.242c-0.125,2.01 -0.612,3.424 -1.46,4.242c-0.369,0.387 -0.855,0.58 -1.465,0.58c-0.462,0.088 -0.905,0.037 -1.336,-0.156c-0.424,-0.186 -0.855,-0.717 -1.298,-1.596c-0.094,-0.361 -0.193,-0.361 -0.292,0c-0.275,0.768 -0.736,1.309 -1.379,1.615c-0.637,0.313 -1.205,0.418 -1.691,0.324c-1.897,-0.188 -3.019,-1.316 -3.362,-3.4c-2.022,1.342 -3.774,2.266 -5.266,2.777c-3.993,0.922 -7.138,1.053 -9.427,0.393c-2.29,-0.662 -3.406,-1.223 -3.344,-1.678C49.885,43.051 50.846,42.832 52.699,42.846z" id="path_0"/><path fill="#DD2C00" d="M74.854,22.42c1.498,0 2.246,0.922 2.246,2.764c0,2.932 -2.501,5.434 -7.511,7.492c-0.718,0.219 -0.806,-0.045 -0.257,-0.787c0.138,-0.279 1.316,-1.16 3.544,-2.633v-0.125c-0.961,-0.393 -1.441,-1.229 -1.441,-2.508c0.636,-2.801 1.647,-4.203 3.032,-4.203H74.854L74.854,22.42zM72.62,25.582c0,0.779 0.662,1.26 1.979,1.447h0.255c0.487,0 0.799,-0.182 0.929,-0.529c0,-0.793 -0.573,-1.41 -1.715,-1.848C73.568,24.652 73.088,24.965 72.62,25.582z" id="path_1"/><path fill="#008046" d="M47.14,41.18c0.306,0 0.624,0 0.955,0l0.73,-0.369c0.461,-0.947 1.147,-2.115 2.045,-3.506l-1.459,-11.262c0.487,-2.34 0.923,-3.506 1.316,-3.506l0.73,2.775c0.679,0.949 1.022,1.83 1.022,2.633c-0.486,0.9 -0.729,1.637 -0.729,2.191v0.293l0.292,4.68v0.736c1.51,-1.273 3.532,-1.967 6.065,-2.084c2.925,0.412 4.386,1.385 4.386,2.92v1.023c-0.486,2.17 -1.217,3.83 -2.19,4.971c-2.952,1.66 -6.189,2.547 -9.728,2.672h-1.609c-0.643,0 -1.255,0 -1.828,0V41.18L47.14,41.18zM49.991,41.254h0.293c4.461,-0.125 7.949,-0.916 10.457,-2.377c-1.142,-1.172 -1.972,-1.752 -2.484,-1.752h-1.173C53.747,37.242 51.383,38.621 49.991,41.254z" id="path_2"/><path fill="#008046" d="M57.391,47.082c0.149,-0.082 0.193,0.049 0.131,0.404c-0.83,1.947 -2.103,3.307 -3.818,4.074l-6.308,3.164c-0.268,-0.076 -0.318,-0.293 -0.149,-0.656c0.842,-1.621 1.416,-2.582 1.722,-2.889L57.391,47.082z" id="path_3"/><path fill="#000001" d="M27.849,39.807c1.198,0 2.072,0 2.633,0h0.586c1.753,-0.23 4.374,-0.98 7.861,-2.246c-1.173,-0.979 -2.976,-1.709 -5.409,-2.195c-1.441,0 -2.415,0.68 -2.926,2.045c-0.182,0.406 -0.343,0.512 -0.486,0.318c-0.138,-0.188 -0.176,-0.436 -0.101,-0.754c0.88,-2.951 2.046,-4.424 3.513,-4.424h1.023c0.973,0 2.733,0.549 5.272,1.646c2.539,1.092 4.729,1.535 6.57,1.316c0.23,0 0.33,0.145 0.293,0.438c-0.393,2.434 -1.123,3.656 -2.196,3.656l-0.73,0.143v0.293c0.369,0.768 2.052,1.137 5.066,1.1v4.148c-4.362,0.23 -6.539,-1.467 -6.526,-5.098c-1.56,0.23 -3.675,0.955 -6.345,2.184c-2.67,1.223 -5.366,1.748 -8.099,1.578V39.807z" id="path_4"/><path fill="#000001" d="M43.533,20.248c0.15,-0.088 0.194,0.049 0.132,0.404c-0.83,1.947 -2.102,3.309 -3.818,4.074l-6.308,3.164c-0.268,-0.074 -0.318,-0.293 -0.15,-0.662c0.843,-1.621 1.417,-2.582 1.722,-2.889L43.533,20.248z" id="path_5"/><path fill="#213e95" d="M28.235,43.992c-1.865,-0.148 -3.55,-1.459 -5.066,-3.93c-2.239,2.727 -5.458,4.094 -9.645,4.094h-1.172c-4.53,0 -7.649,-1.947 -9.359,-5.848L2.85,37.43v-1.316c0,-1.41 0.63,-3.02 1.896,-4.822h0.149l0.294,0.293v0.729l-0.736,2.342c0,2.557 2.146,4.311 6.438,5.266l2.633,0.143c4.554,0 8.161,-1.559 10.819,-4.68c0.143,0 0.292,0.193 0.436,0.588l-0.143,1.021c0.499,1.842 1.697,2.766 3.6,2.777V43.992z" id="path_6"/><path fill="#213e95" d="M11.328,30.117h0.294c0.998,0.219 2.071,0.805 3.218,1.754v0.15c-0.661,1.996 -1.247,3.068 -1.759,3.219c-1.485,-0.293 -2.607,-0.781 -3.363,-1.467v-0.145C9.718,32.482 10.255,31.314 11.328,30.117z" id="path_7"/><path fill="#213e95" d="M16.737,28.801h0.149c0.999,0.15 2.122,0.83 3.363,2.047v0.15l-1.759,3.068c-2.34,-0.754 -3.506,-1.391 -3.506,-1.902C15.739,29.924 16.325,28.801 16.737,28.801z" id="path_8"/><path fill="#213e95" d="M14.011,18.275h1.447c1.753,0 2.634,0.654 2.634,1.973c-1.136,3.07 -2.515,4.697 -4.137,4.885l-1.915,0.256c-0.306,0 -0.431,-0.088 -0.387,-0.256c1.547,-0.818 2.996,-1.791 4.336,-2.908c-0.474,-0.441 -0.999,-0.66 -1.573,-0.66h-0.405l-1.573,0.131l-0.125,-0.131v-0.256C13.057,19.287 13.624,18.275 14.011,18.275z" id="path_9"/></svg>