<svg id="vector" xmlns="http://www.w3.org/2000/svg" width="75" height="67" viewBox="0 0 83 73"><path fill="#DD2C00" d="M42.398,42.299l-1.494,-0.018c-0.827,3.641 -3.019,5.48 -6.57,5.527c-1.901,0.084 -2.853,0.051 -2.853,-0.104c0.175,-0.332 1.448,-0.973 3.816,-1.924c2.436,-1.547 3.902,-2.543 4.411,-2.984l0.137,-0.396l-2.323,-0.369c-1.692,-0.441 -2.645,-1.291 -2.853,-2.553v-0.266c0,-2.146 0.526,-3.518 1.591,-4.117l0.798,-0.131c1.568,0 2.849,1.094 3.846,3.285c0.634,0.221 1.131,0.328 1.494,0.316V42.299z" id="path_0"/><path fill="#DD2C00" d="M40.586,49.246c0.137,-0.074 0.176,0.047 0.119,0.367c-0.753,1.77 -1.907,3.002 -3.465,3.699l-5.726,2.871c-0.242,-0.068 -0.289,-0.268 -0.135,-0.596c0.765,-1.473 1.285,-2.344 1.562,-2.621L40.586,49.246z" id="path_1"/><path fill="#000001" d="M32.286,29.824h0.266c0.313,0 0.487,0.883 0.532,2.654v0.527c0,2.922 -0.889,4.383 -2.656,4.383c-1.681,-0.465 -2.52,-1.041 -2.52,-1.727h-0.137c-0.532,1.416 -1.368,2.123 -2.52,2.123l-1.329,-0.131c0.067,0.664 0.067,1.15 0,1.457c-0.443,2.654 -1.41,4.852 -2.9,6.596c-1.496,1.744 -3.448,2.639 -5.854,2.695h-0.532c-3.807,0 -6.508,-2.123 -8.099,-6.371l-0.129,-1.855v-0.533c0.266,-4.291 1.5,-6.902 3.715,-7.832l0.129,0.137v0.131l-1.987,3.318c-0.378,0.775 -0.64,1.75 -0.798,2.922c0,2.764 1.856,4.797 5.578,6.104l1.324,0.131h1.059c3.013,0 5.624,-1.637 7.832,-4.91v-0.131c-0.176,-1.285 -0.839,-2.746 -1.987,-4.383l-0.137,-0.662v-2.52l0.267,-0.268h0.135c1.038,1.508 2.323,2.256 3.846,2.256h0.137c1.172,0 2.056,-0.885 2.65,-2.65l0.135,-0.137h0.267l0.266,0.266v0.396L28.7,32.344c0.532,0.799 1.24,1.195 2.124,1.195h0.137c0.793,0 1.195,-0.754 1.195,-2.254L32.286,29.824z" id="path_2"/><path fill="#000001" d="M23.509,16.816c1.359,0 2.038,0.838 2.038,2.51c0,2.66 -2.27,4.932 -6.817,6.799c-0.651,0.199 -0.731,-0.039 -0.232,-0.713c0.125,-0.254 1.195,-1.053 3.216,-2.389V22.91c-0.872,-0.357 -1.307,-1.115 -1.307,-2.277c0.577,-2.541 1.494,-3.816 2.752,-3.816H23.509L23.509,16.816zM21.48,19.688c0,0.707 0.601,1.143 1.797,1.314h0.231c0.44,0 0.724,-0.166 0.843,-0.482c0,-0.719 -0.521,-1.279 -1.557,-1.676C22.343,18.844 21.906,19.127 21.48,19.688z" id="path_3"/><path fill="#000001" d="M69.135,44.586h0.264c0.908,0.199 1.881,0.73 2.924,1.598v0.131c-0.6,1.811 -1.127,2.785 -1.594,2.92c-1.352,-0.266 -2.365,-0.707 -3.049,-1.33v-0.131C67.68,46.732 68.165,45.674 69.135,44.586z" id="path_4"/><path fill="#000001" d="M73.411,44.404h0.131c0.904,0.137 1.926,0.754 3.053,1.857v0.135l-1.592,2.787c-2.123,-0.686 -3.189,-1.262 -3.189,-1.727C72.499,45.424 73.032,44.404 73.411,44.404z" id="path_5"/><path fill="#000001" d="M67.958,38.516c3.477,0.035 5.418,-0.617 5.842,-1.959c0,-0.463 -0.441,-1.613 -1.33,-3.449l0.402,-3.447h0.26c1.156,1.986 1.727,3.98 1.727,5.967v1.195c0,0.799 -0.191,1.637 -0.57,2.514c-0.381,0.879 -0.969,1.621 -1.756,2.215c-0.793,0.6 -2.316,0.85 -4.574,0.748V38.516z" id="path_6"/><path fill="#000001" d="M74.249,18.074c1.359,0 2.037,0.838 2.037,2.508c0,2.662 -2.27,4.932 -6.818,6.801c-0.65,0.199 -0.73,-0.039 -0.23,-0.713c0.123,-0.256 1.195,-1.053 3.215,-2.391v-0.113c-0.871,-0.355 -1.307,-1.115 -1.307,-2.275c0.578,-2.543 1.494,-3.816 2.752,-3.816H74.249L74.249,18.074zM72.219,20.945c0,0.707 0.602,1.143 1.797,1.313h0.232c0.439,0 0.723,-0.164 0.842,-0.48c0,-0.719 -0.521,-1.279 -1.557,-1.676C73.081,20.102 72.645,20.385 72.219,20.945z" id="path_7"/><path fill="#DD2C00" d="M68.54,42.299l-1.496,-0.018c-0.827,3.641 -3.017,5.48 -6.568,5.527c-1.903,0.084 -2.854,0.051 -2.854,-0.104c0.175,-0.332 1.45,-0.973 3.818,-1.924c2.434,-1.547 3.9,-2.543 4.411,-2.984l0.135,-0.396l-2.321,-0.369c-1.694,-0.441 -2.645,-1.291 -2.854,-2.553v-0.266c0,-2.146 0.526,-3.518 1.591,-4.117l0.8,-0.131c1.567,0 2.847,1.094 3.844,3.285c0.636,0.221 1.132,0.328 1.496,0.316V42.299z" id="path_8"/><path fill="#DD2C00" d="M67.424,24.33c0.137,-0.078 0.176,0.047 0.119,0.369c-0.753,1.768 -1.91,3.002 -3.465,3.697l-5.726,2.871c-0.244,-0.068 -0.289,-0.266 -0.137,-0.6c0.765,-1.473 1.287,-2.344 1.563,-2.623L67.424,24.33z" id="path_9"/><path fill="#000001" d="M41.814,38.516h0.051c2.056,-0.09 3.472,-1.082 4.248,-2.984c0,-0.266 0.175,-0.486 0.532,-0.668h0.265c0.176,0 0.268,0.137 0.268,0.402l-0.137,0.793c0.753,1.33 1.553,1.992 2.392,1.992h0.661c1.15,0 2.039,-1.148 2.655,-3.447h0.137c0.131,0.018 0.352,0.549 0.663,1.59c0.753,0.664 1.5,1.061 2.253,1.195c0.883,0 1.331,-0.531 1.331,-1.592c0.084,-1.68 0.26,-2.525 0.527,-2.525c0.356,0.754 0.532,1.682 0.532,2.787c0,3.277 -0.8,4.916 -2.391,4.916c-1.241,0 -2.253,-0.623 -3.053,-1.863h-0.265c-0.55,1.771 -1.439,2.654 -2.656,2.654h-0.131c-1.082,0 -2.32,-0.838 -3.715,-2.52c-1.172,2.033 -2.502,3.053 -3.98,3.053h-0.188V38.516z" id="path_10"/><path fill="#000001" d="M50.61,22.406h1.313c1.591,0 2.391,0.594 2.391,1.789c-1.031,2.787 -2.282,4.264 -3.754,4.434l-1.739,0.232c-0.277,0 -0.391,-0.08 -0.352,-0.232c1.404,-0.742 2.719,-1.625 3.936,-2.639c-0.431,-0.402 -0.905,-0.602 -1.428,-0.602H50.61l-1.428,0.121l-0.113,-0.121v-0.23C49.742,23.324 50.259,22.406 50.61,22.406z" id="path_11"/></svg>