<svg id="vector" xmlns="http://www.w3.org/2000/svg" width="75" height="67" viewBox="0 0 83 73"><path fill="#000001" d="M69.459,33.611c5.306,1.896 7.955,4.24 7.955,7.023l0.16,0.932c-0.447,3.641 -1.644,5.459 -3.595,5.459c0,0.338 -2.596,0.758 -7.794,1.25l-0.16,-0.467c0,-2.602 0.466,-3.898 1.405,-3.898c5.199,-0.422 8.061,-1.047 8.58,-1.877c-1.79,-1.738 -4.133,-3.145 -7.022,-4.209l-0.153,-0.785C68.914,34.756 69.121,33.611 69.459,33.611z" id="path_0"/><path fill="#000001" d="M75.616,22.709c0.16,-0.094 0.207,0.053 0.141,0.432c-0.885,2.076 -2.244,3.529 -4.074,4.346l-6.73,3.375c-0.286,-0.08 -0.339,-0.313 -0.16,-0.705c0.899,-1.73 1.511,-2.756 1.837,-3.082L75.616,22.709z" id="path_1"/><path fill="#DD2C00" d="M48.099,43.83c0.213,0 0.433,0 0.666,0h0.16c1.943,-0.121 3.714,-1.738 5.298,-4.854c1.717,-2.604 3.488,-3.9 5.306,-3.9c2.289,0 3.434,1.451 3.434,4.367v0.777c0,1.432 -0.572,3.303 -1.717,5.619l-1.092,0.777c-0.965,0 -3.194,-0.678 -6.709,-2.029c-1.065,1.598 -1.896,2.568 -2.497,2.908c-0.912,0.633 -1.844,0.9 -2.809,0.779h-0.04V43.83L48.099,43.83zM55.94,40.533v0.154c2.703,1.045 4.32,1.564 4.839,1.564c0.207,0 0.313,-0.16 0.313,-0.473c-0.599,-1.559 -1.591,-2.336 -2.969,-2.336C57.165,39.443 56.433,39.809 55.94,40.533z" id="path_2"/><path fill="#DD2C00" d="M55.042,22.516h1.543c1.871,0 2.809,0.697 2.809,2.104c-1.211,3.275 -2.683,5.012 -4.413,5.211l-2.044,0.273c-0.326,0 -0.459,-0.094 -0.412,-0.273c1.65,-0.871 3.195,-1.91 4.626,-3.102c-0.506,-0.473 -1.066,-0.705 -1.678,-0.705h-0.432l-1.678,0.139l-0.133,-0.139V25.75C54.023,23.594 54.629,22.516 55.042,22.516z" id="path_3"/><path fill="#213e95" d="M48.838,48.295c-2.675,-0.18 -5.105,-1.645 -7.289,-4.385h-0.16c-0.932,5.404 -3.015,8.105 -6.237,8.113H34.68c-1.398,-0.008 -2.756,-1.252 -4.055,-3.748c-1.038,-3.508 -1.557,-6.164 -1.557,-7.955v-1.25c0,-0.779 0.153,-1.199 0.466,-1.246c0.438,0.234 0.965,1.938 1.571,5.119c0.605,3.176 1.851,4.693 3.734,4.553c3.641,-0.598 5.565,-2.682 5.771,-6.242l-1.404,-4.834v-1.717c0.054,-2.084 0.259,-3.121 0.626,-3.121c0.206,0.465 0.366,0.938 0.466,1.404l2.183,6.861c1.717,2.783 3.841,4.102 6.356,3.941V48.295z" id="path_4"/><path fill="#213e95" d="M44.199,19.838c0.16,-0.092 0.207,0.055 0.139,0.434c-0.885,2.076 -2.243,3.527 -4.073,4.348l-6.73,3.375c-0.287,-0.08 -0.34,-0.314 -0.16,-0.707c0.898,-1.73 1.511,-2.756 1.837,-3.082L44.199,19.838z" id="path_5"/><path fill="#000001" d="M21.985,36.379c2.377,0.262 3.622,1.512 3.722,3.762v0.727c-0.573,4.572 -1.558,6.863 -2.962,6.863h-0.153c-0.732,0 -2.604,-0.52 -5.619,-1.559c-1.325,3.068 -3.042,4.939 -5.152,5.611c-2.962,0.939 -4.779,1.404 -5.458,1.404H5.737c-0.232,-0.1 -0.333,-0.26 -0.306,-0.465c0.074,-0.234 1.425,-1.066 4.054,-2.496c4.68,-2.891 7.022,-5.332 7.022,-7.336c0.726,-2.781 1.764,-4.654 3.116,-5.611C20.329,36.746 21.114,36.447 21.985,36.379L21.985,36.379zM18.844,41.959c-0.026,0.066 -0.026,0.111 0,0.152l4.367,1.252c0.213,0.053 0.366,0 0.473,-0.16c0,-1.217 -0.992,-2.004 -2.968,-2.336h-0.153C19.936,40.867 19.364,41.227 18.844,41.959z" id="path_6"/><path fill="#000001" d="M21.38,24.285c0.16,-0.094 0.207,0.053 0.14,0.434c-0.885,2.076 -2.243,3.527 -4.073,4.346l-6.73,3.375c-0.287,-0.08 -0.339,-0.313 -0.16,-0.705c0.899,-1.73 1.511,-2.756 1.837,-3.082L21.38,24.285z" id="path_7"/></svg>