<svg id="vector" xmlns="http://www.w3.org/2000/svg" width="75" height="67" viewBox="0 0 83 73"><path fill="#000001" d="M61.68,41.992c0.213,0 0.431,0 0.665,0h0.16c1.944,-0.121 3.715,-1.738 5.299,-4.854c1.718,-2.602 3.486,-3.9 5.304,-3.9c2.292,0 3.437,1.451 3.437,4.367v0.779c0,1.43 -0.573,3.301 -1.718,5.617l-1.093,0.779c-0.965,0 -3.194,-0.68 -6.708,-2.031c-1.067,1.598 -1.897,2.57 -2.496,2.91c-0.913,0.633 -1.845,0.898 -2.811,0.777H61.68V41.992L61.68,41.992zM69.521,38.697v0.152c2.701,1.045 4.319,1.564 4.838,1.564c0.207,0 0.314,-0.16 0.314,-0.473c-0.601,-1.557 -1.592,-2.336 -2.971,-2.336C70.746,37.605 70.013,37.971 69.521,38.697z" id="path_0"/><path fill="#000001" d="M74.553,21.004c0.16,-0.094 0.207,0.053 0.141,0.434c-0.886,2.076 -2.245,3.527 -4.074,4.346l-6.729,3.375c-0.287,-0.08 -0.34,-0.313 -0.16,-0.705c0.899,-1.73 1.512,-2.756 1.837,-3.082L74.553,21.004z" id="path_1"/><path fill="#008046" d="M46.083,41.992c1.731,0.146 3.202,-0.027 4.427,-0.506l-0.646,-1.172c-0.604,-3.436 -0.334,-5.705 0.818,-6.816c1.159,-1.111 2.403,-1.625 3.728,-1.531c2.576,0.121 4.028,1.471 4.368,4.055v0.938c0,2.158 -0.314,3.508 -0.933,4.055c-0.394,0.406 0.491,0.746 2.648,1.018l0.507,-0.02c0.393,-0.014 0.839,-0.02 1.344,-0.02v4.445l-1.577,0.021c-2.936,-0.014 -5.158,-0.387 -6.67,-1.113c-2.077,0.727 -3.693,1.092 -4.832,1.092H48.64c-0.778,0 -1.631,0 -2.557,0V41.992L46.083,41.992zM51.602,37.584v0.314c0.651,1.117 1.638,1.896 2.962,2.336c0.886,-0.152 1.771,-0.52 2.656,-1.092c-0.394,-1.457 -1.69,-2.291 -3.9,-2.496C52.175,36.959 51.602,37.273 51.602,37.584z" id="path_2"/><path fill="#008046" d="M54.624,22.994c1.691,0.525 3.147,1.357 4.366,2.496v0.16c0,0.652 -0.673,1.689 -2.023,3.121c-0.42,0 -1.824,-0.52 -4.213,-1.564v0.16c-0.833,1.611 -1.352,2.443 -1.565,2.496c-1.352,-0.285 -2.497,-0.912 -3.429,-1.877c0.626,-2.596 1.146,-3.895 1.559,-3.895c0.339,0 1.591,0.619 3.748,1.871C53.066,25.416 53.585,24.426 54.624,22.994z" id="path_3"/><path fill="#008046" d="M52.474,13.051h1.544c1.87,0 2.809,0.697 2.809,2.102c-1.211,3.275 -2.682,5.014 -4.413,5.213l-2.044,0.273c-0.326,0 -0.458,-0.094 -0.411,-0.273c1.649,-0.871 3.194,-1.91 4.625,-3.102c-0.505,-0.473 -1.064,-0.707 -1.677,-0.707h-0.433l-1.678,0.141l-0.133,-0.141v-0.271C51.455,14.129 52.06,13.051 52.474,13.051z" id="path_4"/><path fill="#008046" d="M46.077,46.451c-0.141,0.014 -0.287,0.02 -0.428,0.02h-0.784c-1.219,0 -2.051,-0.1 -2.496,-0.313c-0.906,3.502 -1.963,5.645 -3.175,6.432c-1.213,0.785 -3.948,1.449 -8.208,1.996h-0.313c-0.938,-0.105 -1.404,-0.26 -1.404,-0.467c0,-0.313 0.78,-0.678 2.336,-1.09c6.138,-2.811 9.207,-4.84 9.207,-6.084c0,-0.521 -0.726,-1.719 -2.185,-3.59c-0.312,-0.525 -0.466,-1.197 -0.466,-2.029V39.77c0,-0.787 0.154,-1.199 0.466,-1.252c1.352,2.07 3.642,3.221 6.865,3.467c0.198,0 0.392,0 0.585,-0.014V46.451z" id="path_5"/><path fill="#008046" d="M42.781,27.635c0.16,-0.094 0.206,0.053 0.141,0.432c-0.886,2.076 -2.243,3.529 -4.074,4.346l-6.73,3.375c-0.286,-0.08 -0.339,-0.313 -0.159,-0.705c0.898,-1.73 1.511,-2.756 1.837,-3.082L42.781,27.635z" id="path_6"/><path fill="#DD2C00" d="M24.19,49.807c0.532,0 1.776,0.625 3.74,1.877c0,0.779 -0.618,2.023 -1.87,3.74c-2.496,-0.805 -3.74,-1.529 -3.74,-2.182C22.379,52.656 23.005,51.51 24.19,49.807z" id="path_7"/><path fill="#DD2C00" d="M20.442,42.965c4.087,0.039 6.371,-0.727 6.87,-2.305c0,-0.545 -0.521,-1.896 -1.566,-4.053l0.475,-4.055h0.306c1.357,2.336 2.03,4.68 2.03,7.016v1.404c0,0.939 -0.227,1.924 -0.673,2.955c-0.446,1.033 -1.139,1.904 -2.063,2.604c-0.932,0.705 -2.722,0.998 -5.378,0.879V42.965z" id="path_8"/><path fill="#DD2C00" d="M31.538,21.629c0.16,-0.092 0.207,0.055 0.141,0.434c-0.885,2.076 -2.244,3.527 -4.073,4.348l-6.73,3.373c-0.286,-0.078 -0.339,-0.313 -0.16,-0.705c0.899,-1.73 1.512,-2.756 1.838,-3.082L31.538,21.629z" id="path_9"/><path fill="#213e95" d="M8.954,20.691h0.624c2.058,1.172 3.097,1.85 3.122,2.031c-1.018,2.182 -1.69,3.326 -2.03,3.434c-1.17,0 -2.314,-0.572 -3.434,-1.717C7.448,23.32 8.021,22.07 8.954,20.691z" id="path_10"/><path fill="#213e95" d="M14.412,19.912c0.991,0 2.19,0.68 3.595,2.031c0,0.545 -0.679,1.637 -2.03,3.275c-0.78,0 -1.925,-0.521 -3.437,-1.559C12.54,22.748 13.166,21.496 14.412,19.912z" id="path_11"/><path fill="#213e95" d="M22.1,47.41h-0.041c-2.987,0 -5.018,-1.457 -6.082,-4.367l-0.314,-1.25h-0.312c-0.234,0.83 -1.897,1.352 -4.992,1.563h-0.78c-2.083,0 -3.12,-0.625 -3.12,-1.877v-1.404c0,-1.504 1.145,-3.373 3.434,-5.611c1.379,-1.045 2.936,-1.924 4.681,-2.656l-0.16,-0.465c0.571,-2.604 1.044,-3.9 1.404,-3.9c0.186,0.438 0.444,3.666 0.786,9.672c0.464,4.047 2.295,6.01 5.497,5.91V47.41L22.1,47.41zM8.328,38.363c0.599,0.414 1.591,0.619 2.968,0.619c1.352,-0.1 2.596,-0.357 3.74,-0.779l-0.312,-4.365h-0.152C10.411,35.814 8.328,37.318 8.328,38.363z" id="path_12"/><path fill="#f06022" d="M18.564,52.09l0.161,0.139v0.428c-0.807,1.73 -1.931,2.941 -3.375,3.646c-4.474,2.43 -6.956,3.648 -7.45,3.648c-0.179,0 -0.272,-0.146 -0.272,-0.434c0.427,-1.65 1.365,-2.77 2.81,-3.354l7.994,-4.074H18.564z" id="path_13"/><path fill="#f06022" d="M17.454,48.582c0.186,0 0.271,0.133 0.271,0.406c-0.519,1.51 -2.056,2.869 -4.618,4.08l-5.91,3.234l-0.135,-0.139V56.01c0.56,-1.977 1.451,-3.195 2.67,-3.646l6.597,-3.375L17.454,48.582z" id="path_14"/></svg>