<svg id="vector" xmlns="http://www.w3.org/2000/svg" width="102" height="73" viewBox="0 0 102 73"><path fill="#213e95" d="M59.785,44.87c-3.256,0.045 -5.385,-0.435 -6.391,-1.439c-1.004,-1.005 3.037,-1.876 12.121,-2.625c6.674,-1.043 11.871,-2.438 15.576,-4.2h0.174v-0.173c-3.459,-1.522 -5.918,-2.287 -7.381,-2.287h-0.877c-1.23,0 -2.229,0.825 -2.992,2.46c-0.676,0.705 -0.969,0.705 -0.879,0c1.201,-3.51 2.844,-5.272 4.92,-5.272h1.584c1.102,0 4.32,0.877 9.666,2.64l1.584,0.173c1.455,-0.173 2.1,-0.06 1.934,0.352c-0.982,3.045 -2.385,4.576 -4.215,4.576c-4.941,1.874 -10.215,3.569 -15.824,5.092C66.047,44.592 63.047,44.825 59.785,44.87z" id="path_0"/><path fill="#213e95" d="M77.709,14.547c1.801,0 2.701,1.11 2.701,3.322c0,3.525 -3.008,6.533 -9.031,9.008c-0.861,0.263 -0.967,-0.053 -0.307,-0.945c0.166,-0.337 1.582,-1.395 4.26,-3.165v-0.15c-1.154,-0.473 -1.732,-1.478 -1.732,-3.015c0.766,-3.368 1.98,-5.055 3.645,-5.055H77.709L77.709,14.547zM75.025,18.35c0,0.938 0.795,1.515 2.377,1.74h0.307c0.586,0 0.961,-0.217 1.119,-0.638c0,-0.952 -0.691,-1.695 -2.063,-2.22C76.164,17.232 75.588,17.607 75.025,18.35z" id="path_1"/><path fill="#008046" d="M39.453,39.794c4.125,0.115 5.793,-0.088 8.182,-4.135c0.291,-0.494 0.465,-0.817 0.697,-0.877h0.18l0.525,0.533c-0.074,0.667 -0.188,1.14 -0.352,1.402c1.027,1.875 2.256,2.813 3.689,2.813l0.18,0.173c2.551,-5.625 5.416,-8.438 8.609,-8.438c2.551,0 4.426,1.057 5.625,3.165v1.058c0,6.443 -3.982,9.667 -11.955,9.667l-2.631,-0.173c-0.818,2.221 -1.352,3.338 -1.584,3.338l-0.172,-0.173v-0.18l0.525,-2.985v-0.353c-1.732,-0.967 -3.076,-2.317 -4.043,-4.042c-0.906,2.97 -4.5,4.335 -7.477,4.215V39.794L39.453,39.794zM54.311,40.055h0.352c3.982,0 7.381,-0.585 10.193,-1.756c0,-1.26 -1.17,-2.137 -3.51,-2.64h-0.705C57.828,35.66 55.721,37.129 54.311,40.055z" id="path_2"/><path fill="#008046" d="M57.07,17.007c0.322,0.555 0.697,2.138 1.125,4.747c-0.262,1.583 -0.953,2.37 -2.07,2.37h-0.15c-0.486,0 -1.117,-0.314 -1.912,-0.945c-0.541,0.953 -1.334,1.433 -2.369,1.433c-1.262,0 -1.891,-1.53 -1.891,-4.59c0.367,-1.162 0.682,-1.74 0.945,-1.74l0.15,0.158v2.7c0.217,0.938 0.486,1.402 0.795,1.402h0.637c0.66,0 1.08,-0.262 1.275,-0.788l-0.33,-2.37c0.127,-0.795 0.344,-1.215 0.637,-1.252h0.33c0.33,2.632 0.863,3.952 1.576,3.952h1.102v-0.157l-0.48,-3.157v-0.18C56.568,17.532 56.777,17.007 57.07,17.007z" id="path_3"/><path fill="#008046" d="M59.867,49.264c0.18,-0.097 0.232,0.061 0.158,0.488c-0.998,2.34 -2.527,3.975 -4.59,4.897l-7.584,3.803c-0.322,-0.091 -0.381,-0.353 -0.18,-0.788c1.014,-1.95 1.703,-3.104 2.07,-3.473L59.867,49.264z" id="path_4"/><path fill="#000001" d="M39.52,44.802c-1.701,0.015 -3.104,-0.854 -4.223,-2.61h-0.172c-0.824,2.926 -2.055,4.98 -3.689,6.15c-2.318,2.228 -4.838,3.338 -7.561,3.338h-1.057c-3.105,0 -5.857,-1.755 -8.258,-5.272c-0.938,-1.613 -1.41,-3.488 -1.41,-5.626c0,-3.015 1.521,-6.06 4.574,-9.134c1.59,-1.013 2.063,-0.953 1.402,0.172c-2.691,3.75 -4.041,6.33 -4.041,7.732c0,3.638 2.691,6.037 8.084,7.208h1.41c3.016,0 6,-1.523 8.963,-4.568c0.307,-0.967 0.367,-2.024 0.172,-3.165c-0.584,-2.489 -1.463,-8.819 -2.633,-18.982l1.051,-3.518c0.164,-0.03 0.338,-0.03 0.533,0c0.322,0 0.906,4.455 1.754,13.357c0.586,4.688 1.291,7.62 2.107,8.79c0.721,0.796 1.719,1.163 2.992,1.118V44.802z" id="path_5"/><path fill="#000001" d="M30.221,15.095c0.18,-0.105 0.232,0.06 0.156,0.487c-0.996,2.34 -2.527,3.975 -4.59,4.898l-7.582,3.802c-0.322,-0.09 -0.383,-0.352 -0.18,-0.795c1.012,-1.95 1.701,-3.105 2.07,-3.473L30.221,15.095z" id="path_6"/></svg>