<svg id="vector" xmlns="http://www.w3.org/2000/svg" width="102" height="73" viewBox="0 0 102 73"><path fill="#D50000" d="M76.629,44.15c0.239,0 0.486,0 0.75,0h0.18c2.189,-0.136 4.185,-1.958 5.97,-5.468c1.935,-2.933 3.93,-4.396 5.978,-4.396c2.58,0 3.869,1.635 3.869,4.92v0.878c0,1.612 -0.645,3.72 -1.935,6.33l-1.229,0.877c-1.088,0 -3.6,-0.765 -7.561,-2.287c-1.199,1.8 -2.137,2.895 -2.813,3.277c-1.027,0.713 -2.077,1.013 -3.164,0.878h-0.045V44.15L76.629,44.15zM85.463,40.438v0.172c3.045,1.178 4.867,1.763 5.453,1.763c0.232,0 0.353,-0.18 0.353,-0.532c-0.675,-1.755 -1.793,-2.633 -3.345,-2.633C86.844,39.207 86.018,39.62 85.463,40.438z" id="path_0"/><path fill="#D50000" d="M86.281,17.277c1.799,0 2.699,1.11 2.699,3.322c0,3.525 -3.008,6.532 -9.029,9.008c-0.863,0.263 -0.968,-0.053 -0.309,-0.945c0.166,-0.338 1.583,-1.395 4.261,-3.165v-0.15c-1.155,-0.472 -1.732,-1.477 -1.732,-3.015c0.765,-3.367 1.979,-5.055 3.646,-5.055H86.281L86.281,17.277zM83.596,21.08c0,0.938 0.795,1.515 2.377,1.739h0.309c0.584,0 0.959,-0.217 1.117,-0.637c0,-0.953 -0.69,-1.695 -2.063,-2.221C84.736,19.962 84.158,20.337 83.596,21.08z" id="path_1"/><path fill="#000001" d="M61.508,44.15h0.398c1.199,0 2.467,-0.466 3.803,-1.396c1.334,-0.93 2.114,-2.1 2.354,-3.502l0.173,-0.181h0.172c0.21,0 0.502,0.646 0.885,1.936c1.665,2.287 4.013,3.337 7.027,3.164c0.203,0 0.413,-0.007 0.615,-0.021v5.032c-0.202,0.015 -0.412,0.022 -0.615,0.022l-2.459,-0.285c-0.264,2.34 -1.028,3.51 -2.288,3.518h-0.353c-2.34,-0.442 -3.51,-1.26 -3.51,-2.468l0.525,-3.165c-0.413,-0.465 -0.818,-0.697 -1.23,-0.697c-1.32,2.063 -3.15,3.082 -5.498,3.053V44.15z" id="path_2"/><path fill="#000001" d="M75.436,22.197c0.18,-0.104 0.232,0.061 0.158,0.487c-0.998,2.34 -2.528,3.976 -4.591,4.898l-7.583,3.802c-0.322,-0.09 -0.382,-0.353 -0.18,-0.795c1.013,-1.95 1.703,-3.104 2.07,-3.473L75.436,22.197z" id="path_3"/><path fill="#213e95" d="M62.625,49.183c-3.014,-0.203 -5.752,-1.853 -8.212,-4.942h-0.18c-1.05,6.09 -3.397,9.135 -7.028,9.143h-0.531c-1.576,-0.008 -3.105,-1.41 -4.568,-4.223c-1.17,-3.953 -1.755,-6.945 -1.755,-8.963v-1.41c0,-0.877 0.173,-1.35 0.524,-1.402c0.496,0.263 1.088,2.183 1.771,5.768c0.683,3.577 2.085,5.287 4.208,5.13c4.102,-0.675 6.27,-3.022 6.502,-7.035l-1.582,-5.444v-1.936c0.061,-2.348 0.293,-3.518 0.705,-3.518c0.232,0.525 0.412,1.058 0.524,1.583l2.46,7.732c1.936,3.135 4.328,4.62 7.162,4.439V49.183z" id="path_4"/><path fill="#213e95" d="M54.338,16.617c0.322,0.555 0.697,2.138 1.125,4.748c-0.262,1.582 -0.952,2.369 -2.07,2.369h-0.149c-0.487,0 -1.117,-0.314 -1.913,-0.944c-0.539,0.952 -1.334,1.433 -2.369,1.433c-1.26,0 -1.891,-1.53 -1.891,-4.591c0.367,-1.162 0.684,-1.739 0.945,-1.739l0.15,0.157v2.7c0.217,0.938 0.487,1.402 0.795,1.402h0.637c0.66,0 1.08,-0.263 1.275,-0.787l-0.33,-2.37c0.128,-0.795 0.346,-1.216 0.638,-1.253h0.33c0.33,2.633 0.862,3.952 1.575,3.952h1.103v-0.157l-0.48,-3.157V18.2C53.836,17.143 54.046,16.617 54.338,16.617z" id="path_5"/><path fill="#213e95" d="M57.001,6.95c0.18,-0.105 0.232,0.06 0.157,0.487c-0.998,2.34 -2.527,3.975 -4.59,4.897l-7.582,3.803c-0.322,-0.09 -0.383,-0.353 -0.181,-0.795c1.013,-1.95 1.702,-3.105 2.07,-3.473L57.001,6.95z" id="path_6"/><path fill="#000001" d="M27.518,32.638c5.979,2.138 8.963,4.777 8.963,7.912l0.18,1.05c-0.502,4.103 -1.852,6.15 -4.049,6.15c0,0.383 -2.926,0.854 -8.783,1.41l-0.18,-0.525c0,-2.933 0.525,-4.395 1.582,-4.395c5.857,-0.473 9.083,-1.178 9.668,-2.115c-2.018,-1.958 -4.658,-3.54 -7.912,-4.74L26.813,36.5C26.903,33.928 27.136,32.638 27.518,32.638z" id="path_7"/><path fill="#000001" d="M34.455,20.353c0.181,-0.105 0.233,0.06 0.158,0.487c-0.998,2.34 -2.527,3.975 -4.59,4.897L22.44,29.54c-0.322,-0.09 -0.382,-0.353 -0.18,-0.795c1.013,-1.95 1.702,-3.105 2.069,-3.473L34.455,20.353z" id="path_8"/><path fill="#000001" d="M10.426,22.197c1.373,0.412 2.782,1.29 4.215,2.641v0.172c-1.313,2.317 -2.078,3.487 -2.28,3.518h-0.532c-0.99,-0.15 -2.048,-0.787 -3.165,-1.935V26.42C8.783,25.04 9.368,23.638 10.426,22.197z" id="path_9"/><path fill="#000001" d="M17.101,22.55c1.29,0.293 2.58,1.058 3.87,2.288v0.172c0,0.646 -0.705,1.815 -2.107,3.518h-0.525c-0.824,0 -1.875,-0.645 -3.164,-1.935C15.496,24.777 16.141,23.428 17.101,22.55z" id="path_10"/><path fill="#000001" d="M19.98,31.055l0.18,0.525c-0.24,0.997 -1.289,2.167 -3.164,3.518c1.875,1.522 2.813,3.75 2.813,6.683v0.172c0,4.808 -1.996,7.208 -5.979,7.208c-3.164,-0.615 -4.747,-2.197 -4.747,-4.748V44.24c0.12,-2.198 0.997,-4.545 2.64,-7.035c-1.521,-0.465 -2.287,-1.11 -2.287,-1.936c0,-2.197 0.173,-3.54 0.525,-4.042c1.582,0.442 3.345,1.32 5.272,2.64h0.18L19.98,31.055L19.98,31.055zM13.125,38.082c-1.402,1.41 -2.107,2.408 -2.107,2.993c0,1.814 1.291,2.872 3.871,3.165c1.342,-0.181 2.52,-0.646 3.51,-1.41C17.258,40.865 15.503,39.29 13.125,38.082z" id="path_11"/><path fill="#f06022" d="M21.586,57.223l0.18,0.157v0.48c-0.908,1.949 -2.175,3.314 -3.803,4.109c-5.04,2.737 -7.838,4.11 -8.393,4.11c-0.202,0 -0.307,-0.165 -0.307,-0.487c0.479,-1.86 1.537,-3.12 3.164,-3.78l9.008,-4.59H21.586z" id="path_12"/><path fill="#f06022" d="M20.333,53.271c0.21,0 0.308,0.149 0.308,0.457c-0.585,1.702 -2.318,3.232 -5.205,4.598l-6.66,3.645l-0.15,-0.157V61.64c0.631,-2.228 1.635,-3.6 3.008,-4.109l7.433,-3.803L20.333,53.271z" id="path_13"/></svg>