<svg id="vector" xmlns="http://www.w3.org/2000/svg" width="163" height="73" viewBox="0 0 163.201 72.96"><path fill="#000001" d="M138.514,43.567h0.705c2.057,0 3.578,1.755 4.576,5.272l0.172,1.755c0.061,0.57 0.061,1.155 0,1.763c-0.525,2.138 -1.703,4.245 -3.518,6.322c-1.26,1.058 -4.125,1.875 -8.609,2.46c-0.525,-0.232 -0.826,-0.465 -0.877,-0.697c7.5,-4.072 11.25,-6.532 11.25,-7.388l0.172,-0.525l-0.172,-0.172l-1.584,0.525h-0.877c-3.164,0 -4.748,-1.118 -4.748,-3.338v-0.353c0.406,-3.638 1.291,-5.452 2.633,-5.452L138.514,43.567z" id="path_0"/><path fill="#000001" d="M143.172,29.325c0.18,-0.105 0.232,0.06 0.158,0.487c-0.998,2.34 -2.527,3.975 -4.59,4.897l-7.584,3.803c-0.322,-0.09 -0.381,-0.353 -0.18,-0.795c1.014,-1.95 1.703,-3.105 2.07,-3.473L143.172,29.325z" id="path_1"/><path fill="#000001" d="M124.43,24.247c0.352,0 0.705,1.178 1.057,3.518l1.584,3.518l-0.705,4.043l0.523,9.848v1.574c-0.232,4.021 -0.816,6.36 -1.754,7.035l-0.172,-0.173l0.172,-2.64c0,-2.37 -0.766,-9.93 -2.287,-22.672C123.582,25.598 124.107,24.247 124.43,24.247z" id="path_2"/><path fill="#213e95" d="M107.719,48.967c0.203,0.016 0.42,0.023 0.66,0.023h1.666c1.762,-0.293 3.105,-0.908 4.041,-1.846l-2.107,-16.702c0.525,-3.165 0.998,-4.74 1.404,-4.74l2.287,5.272c0,0.817 -0.293,2.048 -0.879,3.69l0.879,9.487v2.64c-0.66,2.798 -1.545,4.755 -2.656,5.865c-0.84,0.893 -1.822,1.343 -2.969,1.343h-1.492c-0.293,0 -0.57,-0.008 -0.834,-0.022V48.967z" id="path_3"/><path fill="#e21171" d="M100.137,34.005c0.6,0 2.01,0.705 4.223,2.107c0,0.877 -0.705,2.288 -2.115,4.223c-2.813,-0.908 -4.215,-1.732 -4.215,-2.46C98.105,37.215 98.803,35.925 100.137,34.005z" id="path_4"/><path fill="#e21171" d="M93.74,48.99c1.252,0.015 2.023,-0.008 2.332,-0.068c2.641,-0.802 4.439,-2.512 5.406,-5.114c0.143,-0.503 0.436,-0.563 0.879,-0.181c0.232,0.203 0.412,1.028 0.525,2.46c1.598,2.153 3.592,3.12 5.977,2.903h0.465V54h-0.111c-3.736,-0.173 -6.488,-1.875 -8.266,-5.101h-0.172c-1.246,2.625 -2.889,4.237 -4.92,4.838C95.24,53.909 94.535,54 93.74,54V48.99z" id="path_5"/><path fill="#e21171" d="M104.135,21.33c0.322,0.555 0.697,2.138 1.125,4.747c-0.264,1.583 -0.953,2.37 -2.07,2.37h-0.15c-0.486,0 -1.117,-0.314 -1.912,-0.945c-0.541,0.953 -1.334,1.433 -2.371,1.433c-1.26,0 -1.889,-1.529 -1.889,-4.59c0.367,-1.162 0.682,-1.74 0.945,-1.74l0.15,0.158v2.7c0.217,0.938 0.486,1.402 0.793,1.402h0.639c0.66,0 1.08,-0.263 1.275,-0.788l-0.33,-2.37c0.127,-0.795 0.344,-1.215 0.637,-1.252h0.33c0.33,2.633 0.863,3.952 1.574,3.952h1.104V26.25l-0.48,-3.157v-0.181C103.633,21.854 103.842,21.33 104.135,21.33z" id="path_6"/><path fill="#000001" d="M78.643,36.338c0.734,0 2.023,0.877 3.869,2.632c0,0.585 -0.705,1.875 -2.115,3.87h-0.344c-0.736,0 -1.854,-0.705 -3.346,-2.107v-0.181C76.707,39.854 77.352,38.445 78.643,36.338z" id="path_7"/><path fill="#000001" d="M84.973,35.46c2.924,1.26 4.395,2.25 4.395,2.985c-0.18,0.555 -0.998,1.784 -2.461,3.689c-1.965,-0.758 -3.375,-1.643 -4.223,-2.633C83.299,37.537 84.064,36.188 84.973,35.46z" id="path_8"/><path fill="#000001" d="M80.75,30.36c2.699,1.109 4.041,2.047 4.041,2.812l-2.279,3.518h-0.18c-0.494,0 -1.846,-0.705 -4.043,-2.114C79.377,31.762 80.195,30.36 80.75,30.36z" id="path_9"/><path fill="#000001" d="M93.934,53.625H93.08c-1.148,0 -2.551,-0.697 -4.223,-2.107c-0.969,1.643 -1.906,2.46 -2.813,2.46h-0.354c-1.004,0 -1.883,-0.646 -2.633,-1.928c-0.059,-0.149 -0.119,-0.149 -0.18,0c-0.938,1.635 -1.986,2.46 -3.156,2.46h-0.182c-2.031,0 -3.555,-1.35 -4.566,-4.043c-1.426,1.403 -3.592,2.461 -6.502,3.158c-6.713,0.734 -10.793,0.479 -12.24,-0.765c-1.455,-1.245 -1.418,-1.943 0.098,-2.101c1.514,-0.15 4.68,-0.337 9.502,-0.563c3.66,-0.188 6.592,-1.095 8.789,-2.723c0.66,-1.68 1.186,-2.617 1.584,-2.813c0.412,-0.104 0.531,0.15 0.359,0.758c-0.166,0.607 -0.232,1.178 -0.188,1.702c1.178,1.763 2.348,2.64 3.518,2.64c1.447,0 2.506,-1.229 3.164,-3.689l0.174,-0.18h0.18c0.322,0 0.555,0.645 0.705,1.935c0.346,1.073 1.186,1.59 2.498,1.56c1.117,-0.135 1.867,-1.297 2.242,-3.494c0.135,-0.646 0.486,-0.817 1.057,-0.525c0,1.755 0.998,2.933 2.986,3.518l1.033,0.105V53.625z" id="path_10"/><path fill="#000001" d="M89.982,56.654c0.18,-0.097 0.232,0.061 0.156,0.488c-0.996,2.34 -2.527,3.975 -4.59,4.897l-7.582,3.803c-0.322,-0.091 -0.383,-0.354 -0.18,-0.788c1.012,-1.95 1.703,-3.104 2.07,-3.473L89.982,56.654z" id="path_11"/><path fill="#008046" d="M50.299,48.772c0.367,0 0.75,0 1.148,0l0.877,-0.442c0.555,-1.141 1.381,-2.543 2.461,-4.215l-1.756,-13.538c0.586,-2.813 1.109,-4.215 1.582,-4.215L55.49,29.7c0.816,1.14 1.229,2.197 1.229,3.165c-0.584,1.08 -0.877,1.965 -0.877,2.632v0.353l0.354,5.625v0.886c1.814,-1.53 4.244,-2.363 7.289,-2.506c3.518,0.495 5.273,1.665 5.273,3.51v1.23c-0.586,2.61 -1.463,4.605 -2.633,5.978c-3.549,1.995 -7.441,3.061 -11.693,3.21h-1.936c-0.771,0 -1.506,0 -2.197,0V48.772L50.299,48.772zM53.727,48.862h0.354c5.361,-0.15 9.555,-1.103 12.568,-2.857c-1.371,-1.41 -2.369,-2.107 -2.984,-2.107h-1.41C58.242,44.04 55.4,45.697 53.727,48.862z" id="path_12"/><path fill="#213e95" d="M49.707,53.805c-2.242,-0.18 -4.268,-1.755 -6.09,-4.725C40.924,52.357 37.055,54 32.021,54h-1.41c-5.445,0 -9.195,-2.34 -11.25,-7.027l-0.172,-1.058v-1.583c0,-1.694 0.758,-3.63 2.279,-5.797h0.18l0.354,0.353v0.877l-0.885,2.813c0,3.075 2.58,5.183 7.74,6.33l3.164,0.173c5.475,0 9.811,-1.875 13.006,-5.625c0.172,0 0.352,0.232 0.523,0.705l-0.172,1.229c0.6,2.213 2.041,3.322 4.328,3.338V53.805z" id="path_13"/><path fill="#213e95" d="M29.381,37.125h0.354c1.199,0.263 2.49,0.968 3.869,2.107v0.18c-0.795,2.4 -1.5,3.69 -2.115,3.87c-1.783,-0.353 -3.135,-0.938 -4.041,-1.763v-0.172C27.447,39.968 28.092,38.564 29.381,37.125z" id="path_14"/><path fill="#213e95" d="M35.885,35.542h0.18c1.199,0.181 2.549,0.998 4.043,2.46v0.181l-2.115,3.689c-2.813,-0.907 -4.215,-1.672 -4.215,-2.287C34.684,36.893 35.389,35.542 35.885,35.542z" id="path_15"/><path fill="#213e95" d="M38.299,57.247c0.18,-0.098 0.232,0.061 0.158,0.487c-0.998,2.34 -2.527,3.976 -4.59,4.897l-7.582,3.803c-0.322,-0.09 -0.383,-0.353 -0.182,-0.787c1.014,-1.95 1.703,-3.105 2.07,-3.473L38.299,57.247z" id="path_16"/><path fill="#e21171" d="M100.883,6.525c1.41,2.399 2.115,4.747 2.115,7.027c-0.615,4.335 -1.379,6.502 -2.287,6.502l-0.172,-0.172V19.71l0.344,-2.287v-0.181c0,-1.402 -0.584,-3.51 -1.754,-6.322v-0.353C99.713,7.867 100.299,6.525 100.883,6.525z" id="path_17"/><path fill="#008046" d="M61.838,17.939c1.41,2.399 2.115,4.747 2.115,7.027c-0.615,4.335 -1.381,6.502 -2.287,6.502l-0.174,-0.172v-0.173l0.346,-2.287v-0.18c0,-1.403 -0.584,-3.511 -1.754,-6.323v-0.353C60.668,19.282 61.254,17.939 61.838,17.939z" id="path_18"/></svg>