<svg id="vector" xmlns="http://www.w3.org/2000/svg" width="102" height="73" viewBox="0 0 102 73"><path fill="#D50000" d="M36.764,48.542c0.24,0 0.488,0 0.75,0h0.18c2.19,-0.135 4.185,-1.958 5.97,-5.468c1.935,-2.933 3.93,-4.396 5.977,-4.396c2.58,0 3.87,1.636 3.87,4.921v0.877c0,1.612 -0.645,3.72 -1.935,6.33l-1.23,0.878c-1.087,0 -3.6,-0.766 -7.56,-2.288c-1.2,1.8 -2.137,2.896 -2.813,3.277c-1.027,0.713 -2.078,1.013 -3.165,0.878h-0.045V48.542L36.764,48.542zM45.599,44.829v0.173c3.045,1.177 4.868,1.763 5.453,1.763c0.232,0 0.353,-0.181 0.353,-0.533c-0.675,-1.755 -1.792,-2.632 -3.345,-2.632C46.979,43.599 46.154,44.011 45.599,44.829z" id="path_0"/><path fill="#D50000" d="M51.27,24.901c0.18,-0.104 0.232,0.061 0.157,0.487c-0.998,2.34 -2.527,3.976 -4.59,4.898l-7.583,3.802c-0.323,-0.09 -0.382,-0.353 -0.18,-0.795c1.013,-1.95 1.703,-3.104 2.07,-3.473L51.27,24.901z" id="path_1"/><path fill="#000001" d="M37.559,53.574c-2.243,-0.18 -4.268,-1.755 -6.09,-4.725c-2.693,3.277 -6.563,4.92 -11.595,4.92h-1.41c-5.444,0 -9.195,-2.341 -11.25,-7.027l-0.173,-1.058v-1.583c0,-1.694 0.758,-3.63 2.28,-5.798h0.18l0.352,0.354v0.877l-0.885,2.813c0,3.075 2.58,5.183 7.74,6.33l3.165,0.173c5.475,0 9.81,-1.875 13.005,-5.625c0.173,0 0.353,0.232 0.525,0.704l-0.173,1.23c0.6,2.212 2.04,3.322 4.328,3.338V53.574z" id="path_2"/><path fill="#000001" d="M17.234,36.894h0.353c1.2,0.262 2.49,0.967 3.87,2.107v0.18c-0.795,2.4 -1.5,3.689 -2.115,3.87c-1.785,-0.353 -3.135,-0.938 -4.042,-1.763v-0.173C15.299,39.736 15.944,38.333 17.234,36.894z" id="path_3"/><path fill="#000001" d="M23.736,35.311h0.18c1.2,0.18 2.55,0.997 4.043,2.46v0.181l-2.115,3.689c-2.813,-0.907 -4.215,-1.673 -4.215,-2.287C22.537,36.662 23.242,35.311 23.736,35.311z" id="path_4"/><path fill="#000001" d="M20.459,22.659h1.74c2.107,0 3.165,0.787 3.165,2.37c-1.365,3.689 -3.022,5.647 -4.973,5.872l-2.303,0.308c-0.367,0 -0.517,-0.104 -0.465,-0.308c1.86,-0.982 3.6,-2.152 5.213,-3.495c-0.57,-0.532 -1.2,-0.795 -1.89,-0.795h-0.488l-1.89,0.158l-0.15,-0.158v-0.307C19.312,23.874 19.994,22.659 20.459,22.659z" id="path_5"/><path fill="#008046" d="M81.428,50.5h0.878c5.467,-0.105 9.097,-0.87 10.897,-2.311l0.352,-0.697c-0.232,-0.563 -0.525,-0.84 -0.877,-0.84c-0.848,0.473 -1.785,0.705 -2.813,0.705h-0.18c-3.045,-0.353 -4.627,-1.583 -4.74,-3.69v-0.18c0.292,-3.982 1.23,-5.971 2.813,-5.971h0.877c2.708,-0.135 4.763,1.973 6.15,6.323l0.172,1.763v0.352c-0.038,4.306 -1.583,7.148 -4.635,8.521c-1.08,0.69 -4.05,1.035 -8.895,1.035V50.5z" id="path_6"/><path fill="#008046" d="M89.161,28.329c1.905,0.586 3.547,1.523 4.92,2.813v0.172c0,0.735 -0.758,1.905 -2.28,3.518c-0.472,0 -2.055,-0.585 -4.748,-1.755v0.173c-0.937,1.814 -1.522,2.752 -1.762,2.813c-1.522,-0.323 -2.813,-1.027 -3.863,-2.107c0.705,-2.933 1.29,-4.396 1.755,-4.396c0.382,0 1.785,0.705 4.223,2.107C87.406,31.051 87.991,29.942 89.161,28.329z" id="path_7"/><path fill="#008046" d="M93.886,17.739c0.18,-0.104 0.232,0.061 0.157,0.487c-0.998,2.34 -2.527,3.976 -4.59,4.898l-7.583,3.802c-0.322,-0.09 -0.383,-0.353 -0.18,-0.795c1.013,-1.95 1.703,-3.104 2.07,-3.473L93.886,17.739z" id="path_8"/><path fill="#213e95" d="M82.059,55.532c-3.015,-0.203 -5.752,-1.853 -8.212,-4.942h-0.18c-1.05,6.09 -3.397,9.135 -7.027,9.143h-0.533c-1.575,-0.008 -3.105,-1.41 -4.567,-4.223c-1.17,-3.953 -1.755,-6.945 -1.755,-8.963v-1.41c0,-0.877 0.172,-1.35 0.525,-1.402c0.495,0.263 1.087,2.183 1.77,5.768c0.683,3.577 2.085,5.288 4.208,5.13c4.103,-0.675 6.27,-3.022 6.502,-7.035l-1.583,-5.444v-1.936c0.06,-2.348 0.292,-3.518 0.705,-3.518c0.232,0.525 0.412,1.058 0.525,1.583l2.46,7.732c1.935,3.135 4.328,4.62 7.163,4.439V55.532z" id="path_9"/><path fill="#213e95" d="M73.771,22.966c0.322,0.556 0.697,2.138 1.125,4.748c-0.263,1.582 -0.953,2.37 -2.07,2.37h-0.15c-0.488,0 -1.118,-0.315 -1.913,-0.945c-0.54,0.952 -1.335,1.433 -2.37,1.433c-1.26,0 -1.89,-1.53 -1.89,-4.59c0.367,-1.163 0.683,-1.74 0.945,-1.74l0.15,0.157v2.7c0.217,0.938 0.488,1.402 0.795,1.402h0.638c0.66,0 1.08,-0.263 1.275,-0.787l-0.33,-2.37c0.127,-0.795 0.345,-1.215 0.638,-1.253h0.33c0.33,2.633 0.863,3.953 1.575,3.953h1.103v-0.158l-0.48,-3.157v-0.18C73.269,23.492 73.479,22.966 73.771,22.966z" id="path_10"/><path fill="#213e95" d="M76.434,13.299c0.18,-0.105 0.232,0.06 0.158,0.487c-0.998,2.34 -2.528,3.975 -4.59,4.897l-7.583,3.803c-0.322,-0.09 -0.382,-0.353 -0.18,-0.795c1.013,-1.95 1.703,-3.105 2.07,-3.473L76.434,13.299z" id="path_11"/></svg>