<svg id="vector" xmlns="http://www.w3.org/2000/svg" width="102" height="73" viewBox="0 0 102 73"><path fill="#008046" d="M58.691,43.532h0.878c5.467,-0.105 9.098,-0.87 10.896,-2.311l0.354,-0.697c-0.232,-0.563 -0.525,-0.84 -0.878,-0.84c-0.848,0.473 -1.784,0.705 -2.813,0.705h-0.181c-3.044,-0.353 -4.627,-1.583 -4.739,-3.69v-0.18c0.292,-3.982 1.229,-5.971 2.813,-5.971h0.878c2.707,-0.135 4.762,1.973 6.149,6.323l0.173,1.763v0.352c-0.037,4.306 -1.583,7.147 -4.635,8.521c-1.08,0.689 -4.051,1.035 -8.896,1.035V43.532z" id="path_0"/><path fill="#008046" d="M66.424,21.361c1.905,0.585 3.548,1.522 4.921,2.813v0.173c0,0.735 -0.758,1.905 -2.281,3.518c-0.473,0 -2.055,-0.585 -4.747,-1.755v0.173c-0.938,1.814 -1.522,2.752 -1.763,2.813c-1.522,-0.323 -2.813,-1.028 -3.862,-2.108c0.705,-2.932 1.29,-4.395 1.755,-4.395c0.383,0 1.785,0.705 4.223,2.107C64.669,24.083 65.254,22.974 66.424,21.361z" id="path_1"/><path fill="#008046" d="M66.296,7.539c1.801,0 2.701,1.11 2.701,3.322c0,3.525 -3.008,6.533 -9.031,9.008c-0.861,0.263 -0.967,-0.053 -0.307,-0.945c0.164,-0.337 1.582,-1.395 4.26,-3.165v-0.149c-1.154,-0.473 -1.732,-1.478 -1.732,-3.016c0.766,-3.367 1.98,-5.055 3.645,-5.055H66.296L66.296,7.539zM63.611,11.341c0,0.938 0.796,1.515 2.378,1.74h0.307c0.586,0 0.961,-0.218 1.118,-0.638c0,-0.952 -0.69,-1.695 -2.063,-2.22C64.751,10.224 64.174,10.599 63.611,11.341z" id="path_2"/><path fill="#D50000" d="M59.261,48.542l-1.979,-0.022c-1.095,4.822 -3.997,7.26 -8.7,7.319c-2.52,0.113 -3.779,0.068 -3.779,-0.135c0.232,-0.442 1.92,-1.29 5.055,-2.55c3.225,-2.048 5.168,-3.367 5.842,-3.952l0.181,-0.525l-3.075,-0.487c-2.242,-0.585 -3.502,-1.71 -3.779,-3.383v-0.353c0,-2.843 0.697,-4.657 2.107,-5.452l1.057,-0.173c2.078,0 3.773,1.447 5.093,4.35c0.841,0.293 1.501,0.436 1.979,0.421V48.542z" id="path_3"/><path fill="#D50000" d="M54.731,24.242c0.322,0.555 0.697,2.137 1.125,4.747c-0.263,1.582 -0.953,2.37 -2.07,2.37h-0.15c-0.486,0 -1.117,-0.315 -1.912,-0.945c-0.539,0.953 -1.334,1.433 -2.37,1.433c-1.26,0 -1.89,-1.53 -1.89,-4.59c0.367,-1.163 0.683,-1.74 0.945,-1.74l0.15,0.158v2.699c0.217,0.938 0.486,1.402 0.794,1.402h0.638c0.66,0 1.08,-0.262 1.275,-0.787l-0.33,-2.37c0.127,-0.795 0.345,-1.215 0.637,-1.252h0.33c0.33,2.632 0.863,3.952 1.575,3.952h1.103v-0.157l-0.48,-3.158v-0.18C54.229,24.766 54.438,24.242 54.731,24.242z" id="path_4"/><path fill="#D50000" d="M57.394,14.574c0.18,-0.104 0.232,0.06 0.158,0.487c-0.998,2.34 -2.527,3.976 -4.59,4.898l-7.583,3.802c-0.322,-0.09 -0.382,-0.353 -0.181,-0.795c1.014,-1.95 1.703,-3.104 2.07,-3.473L57.394,14.574z" id="path_5"/><path fill="#000001" d="M31.579,21.579c1.372,0.412 2.782,1.29 4.215,2.641v0.172c-1.313,2.317 -2.078,3.487 -2.28,3.518h-0.532c-0.99,-0.15 -2.048,-0.787 -3.165,-1.935v-0.173C29.937,24.421 30.521,23.019 31.579,21.579z" id="path_6"/><path fill="#000001" d="M38.254,21.931c1.29,0.293 2.579,1.058 3.87,2.288v0.172c0,0.646 -0.705,1.815 -2.107,3.518h-0.525c-0.825,0 -1.875,-0.645 -3.165,-1.935C36.649,24.159 37.294,22.808 38.254,21.931z" id="path_7"/><path fill="#000001" d="M41.134,30.436l0.18,0.525c-0.24,0.997 -1.289,2.167 -3.165,3.518c1.876,1.522 2.813,3.75 2.813,6.683v0.172c0,4.808 -1.996,7.208 -5.979,7.208c-3.164,-0.615 -4.747,-2.197 -4.747,-4.748v-0.172c0.12,-2.198 0.997,-4.545 2.64,-7.035c-1.522,-0.465 -2.287,-1.11 -2.287,-1.936c0,-2.197 0.172,-3.54 0.525,-4.042c1.582,0.442 3.345,1.32 5.271,2.64h0.181L41.134,30.436L41.134,30.436zM34.278,37.463c-1.402,1.41 -2.107,2.408 -2.107,2.993c0,1.814 1.291,2.872 3.871,3.165c1.342,-0.181 2.52,-0.646 3.51,-1.41C38.411,40.247 36.656,38.671 34.278,37.463z" id="path_8"/><path fill="#f06022" d="M42.739,56.604l0.18,0.157v0.48c-0.908,1.949 -2.176,3.314 -3.803,4.109c-5.04,2.737 -7.838,4.11 -8.393,4.11c-0.202,0 -0.307,-0.165 -0.307,-0.487c0.479,-1.86 1.537,-3.12 3.164,-3.78l9.008,-4.59H42.739z" id="path_9"/><path fill="#f06022" d="M41.486,52.652c0.21,0 0.308,0.149 0.308,0.457c-0.586,1.702 -2.318,3.232 -5.205,4.598l-6.66,3.645l-0.15,-0.157v-0.173c0.631,-2.228 1.635,-3.6 3.008,-4.109l7.433,-3.803L41.486,52.652z" id="path_10"/></svg>