<svg id="vector" xmlns="http://www.w3.org/2000/svg" width="102" height="73" viewBox="0 0 102 73"><path fill="#D50000" d="M77.303,19.978c0.352,0 0.705,1.178 1.057,3.518l1.583,3.518l-0.705,4.042l0.525,9.848v1.575c-0.232,4.02 -0.818,6.36 -1.755,7.035l-0.173,-0.173l0.173,-2.64c0,-2.37 -0.765,-9.931 -2.288,-22.673C76.456,21.327 76.98,19.978 77.303,19.978z" id="path_0"/><path fill="#D50000" d="M84.068,53.353c0.18,-0.098 0.232,0.06 0.157,0.487c-0.998,2.34 -2.527,3.975 -4.589,4.897l-7.583,3.803c-0.322,-0.09 -0.382,-0.353 -0.18,-0.788c1.012,-1.949 1.702,-3.104 2.07,-3.472L84.068,53.353z" id="path_1"/><path fill="#000001" d="M57.346,52.542h0.353c1.2,0.263 2.49,0.968 3.87,2.115v0.173c-0.794,2.4 -1.492,3.689 -2.107,3.87c-1.793,-0.353 -3.135,-0.938 -4.043,-1.763v-0.173C55.418,55.385 56.063,53.982 57.346,52.542z" id="path_2"/><path fill="#000001" d="M63.855,50.96h0.173c1.2,0.18 2.55,0.997 4.042,2.46v0.18l-2.108,3.69c-2.813,-0.907 -4.222,-1.673 -4.222,-2.287C62.648,52.31 63.353,50.96 63.855,50.96z" id="path_3"/><path fill="#000001" d="M55.786,44.503c4.605,0.045 7.178,-0.818 7.74,-2.596c0,-0.614 -0.585,-2.138 -1.762,-4.567l0.533,-4.567h0.345c1.53,2.633 2.288,5.272 2.288,7.905v1.582c0,1.058 -0.255,2.168 -0.758,3.33s-1.282,2.145 -2.325,2.933c-1.05,0.795 -3.067,1.125 -6.06,0.99V44.503z" id="path_4"/><path fill="#000001" d="M68.558,20.157c0.322,0.556 0.698,2.138 1.125,4.748c-0.263,1.582 -0.953,2.37 -2.07,2.37h-0.15c-0.487,0 -1.117,-0.315 -1.913,-0.945c-0.54,0.952 -1.334,1.433 -2.37,1.433c-1.26,0 -1.89,-1.53 -1.89,-4.591c0.367,-1.162 0.683,-1.739 0.945,-1.739l0.15,0.157v2.7c0.217,0.938 0.487,1.402 0.794,1.402h0.638c0.66,0 1.08,-0.263 1.275,-0.787l-0.33,-2.37c0.128,-0.795 0.345,-1.215 0.638,-1.253h0.33c0.33,2.633 0.862,3.952 1.575,3.952h1.103v-0.157l-0.48,-3.157v-0.18C68.056,20.683 68.266,20.157 68.558,20.157z" id="path_5"/><path fill="#000001" d="M71.213,10.49c0.18,-0.105 0.232,0.06 0.157,0.487c-0.998,2.34 -2.527,3.975 -4.59,4.897l-7.583,3.803c-0.322,-0.09 -0.383,-0.353 -0.18,-0.795c1.012,-1.95 1.702,-3.105 2.07,-3.473L71.213,10.49z" id="path_6"/><path fill="#213e95" d="M58.801,49.513c-3.413,0.202 -5.895,-1.373 -7.448,-4.726c-0.75,-1.245 -1.447,-9.637 -2.107,-25.177v-0.353c0.435,-2.58 1.08,-3.87 1.927,-3.87l0.885,-0.173c1.08,0 2.723,0.353 4.92,1.05v0.353c-0.12,0.353 -0.472,0.533 -1.057,0.533h-2.985c-0.615,0 -1.2,0.345 -1.763,1.05c0.548,13.492 1.343,21.308 2.4,23.444c1.05,2.138 2.797,3.091 5.228,2.858V49.513z" id="path_7"/><path fill="#000001" d="M38.101,20.171c0.18,-0.105 0.232,0.06 0.157,0.487c-0.998,2.34 -2.527,3.975 -4.59,4.897l-7.583,3.803c-0.322,-0.09 -0.382,-0.353 -0.18,-0.795c1.013,-1.95 1.703,-3.105 2.07,-3.473L38.101,20.171z" id="path_8"/><path fill="#000001" d="M43.363,47.519c0.494,-1.844 1.16,-3.362 1.146,-5.729c-0.017,-2.979 -1.032,-10.791 -0.428,-13.211c1.096,-4.396 0.569,-2.53 -0.884,-6.876c-0.787,-2.353 0.05,-3.085 -0.438,-4.078c-0.577,0.027 -0.516,0.012 -0.61,0.737c-0.057,0.441 -0.068,0.954 -0.127,1.406c-0.466,3.564 -0.622,7.504 0.094,11.043l0.783,8.287c0.095,2.7 0.944,5.533 -2.273,6.586c-5.449,1.782 -24.837,3.086 -20.378,-7.914c0.437,-1.077 0.865,-1.755 0.357,-2.433c-0.336,0.08 -0.626,-0.062 -1.07,1.113c-0.678,1.798 -0.728,1.607 -1.082,3.039c-0.689,2.784 -1.356,4.98 0.459,7.784C22.746,53.193 40.977,52.958 43.363,47.519z" id="path_9"/><path fill="#000001" d="M30.635,33.461c-0.878,1.369 -3.127,1.024 -2.769,4.243c2.004,1.072 2.15,0.411 4.266,0.684c0.036,-0.027 0.094,-0.104 0.117,-0.067l2.74,-0.175c0.403,0.1 0.178,0.025 0.396,0.161c-0.261,0.811 -0.758,0.522 -1.677,0.726c-2.537,0.559 -5.695,0.191 -6.931,0.795c-0.168,1.507 3.393,0.977 4.589,0.97c1.255,-0.007 5.001,0.076 5.697,-0.423c0.311,-0.916 0.291,-1.862 0.147,-2.819c-0.452,-3.016 -5.475,-0.402 -7.418,-1.938c0.239,-1.313 1.481,-0.958 2.711,-1.098c0.272,-0.511 0.705,-1.15 -0.042,-1.448C31.772,32.797 31.26,33.311 30.635,33.461z" id="path_10"/></svg>