<svg id="vector" xmlns="http://www.w3.org/2000/svg" width="102" height="73" viewBox="0 0 102 73"><path fill="#D50000" d="M71.362,47.363c0.443,0.031 0.893,0.045 1.343,0.045h0.524l2.197,-0.525c-0.524,-0.982 -0.787,-1.664 -0.787,-2.047c0,-5.625 1.815,-8.438 5.445,-8.438l1.41,-0.172c1.845,0.293 4.192,1.402 7.027,3.338l0.18,0.705l-0.18,0.172h-0.697c-1.35,-0.938 -2.873,-1.402 -4.575,-1.402c-2.603,0 -4.771,0.758 -6.503,2.279v0.18c1.523,2.461 4.336,3.691 8.438,3.691c3.226,-1.17 5.333,-1.756 6.33,-1.756c-0.555,3.277 -1.612,4.92 -3.164,4.92c-6.945,2.693 -12.451,4.043 -16.523,4.043h-0.465V47.363z" id="path_0"/><path fill="#D50000" d="M86.723,21.939c0.181,-0.105 0.232,0.059 0.157,0.486c-0.998,2.34 -2.527,3.975 -4.59,4.898l-7.582,3.803c-0.322,-0.09 -0.383,-0.354 -0.181,-0.795c1.013,-1.951 1.702,-3.105 2.07,-3.473L86.723,21.939z" id="path_1"/><path fill="#213e95" d="M61.987,34.793c0.99,0 2.34,0.826 4.043,2.461v0.352c-1.148,2.461 -1.905,3.699 -2.287,3.699L59.7,39.016h-0.18c-1.141,1.965 -1.898,3.016 -2.28,3.166H57.06c-2.572,-1.148 -3.861,-2.025 -3.861,-2.641c0.938,-2.58 1.754,-3.863 2.459,-3.863l4.215,2.281C60.548,36.586 61.253,35.529 61.987,34.793z" id="path_2"/><path fill="#213e95" d="M57.413,29.35c1.146,0 2.43,0.996 3.869,2.984c-0.382,0.906 -1.146,1.965 -2.287,3.164h-0.353c-1.021,-0.232 -2.138,-0.877 -3.337,-1.934v-0.525C55.396,32.102 56.093,30.871 57.413,29.35z" id="path_3"/><path fill="#213e95" d="M72.466,52.396c-0.278,0 -0.615,0 -1.014,0c-1.566,-0.016 -3.254,-1.193 -5.076,-3.541c-0.698,2.58 -1.928,3.871 -3.691,3.871h-0.172c-1.492,0 -2.723,-0.877 -3.689,-2.641h-0.181c-1.05,2.115 -2.325,3.076 -3.825,2.881c-2.782,0.014 -4.432,-1.297 -4.965,-3.93c-1.957,2.295 -4.064,3.42 -6.308,3.359h-0.284v-5.01h0.09c3.547,-0.264 6.18,-1.471 7.912,-3.623c0.232,0 0.353,0.172 0.353,0.525l-0.181,1.23c0.938,1.875 2.168,2.813 3.69,2.813c1.44,0 2.902,-1.402 4.396,-4.215h0.18l0.525,0.523v1.23c0,1.109 0.824,1.756 2.459,1.936h0.354c1.521,0 2.932,-1.523 4.223,-4.576h0.172c0.232,0 0.353,0.533 0.353,1.584c0.646,1.484 2.204,2.34 4.681,2.572V52.396z" id="path_4"/><path fill="#213e95" d="M65.362,56.326c0.181,-0.098 0.232,0.061 0.158,0.488c-0.998,2.34 -2.527,3.975 -4.59,4.896l-7.583,3.803c-0.322,-0.09 -0.382,-0.352 -0.181,-0.787c1.014,-1.949 1.703,-3.105 2.07,-3.473L65.362,56.326z" id="path_5"/><path fill="#000001" d="M31.425,55.561c0.729,0 2.018,0.879 3.863,2.633c0,0.594 -0.697,1.875 -2.107,3.871h-0.354c-0.734,0 -1.844,-0.705 -3.337,-2.107v-0.182C29.49,59.078 30.136,57.668 31.425,55.561z" id="path_6"/><path fill="#000001" d="M37.748,54.684c2.933,1.26 4.395,2.25 4.395,2.984c-0.173,0.557 -0.989,1.785 -2.46,3.691c-1.965,-0.758 -3.367,-1.635 -4.215,-2.633C36.083,56.762 36.841,55.412 37.748,54.684z" id="path_7"/><path fill="#000001" d="M28.32,47.387c1.253,0.016 2.024,-0.008 2.333,-0.068c2.639,-0.803 4.439,-2.512 5.406,-5.115c0.143,-0.502 0.436,-0.563 0.878,-0.18c0.232,0.203 0.413,1.027 0.525,2.461c1.598,2.152 3.593,3.119 5.978,2.902h0.465v5.01h-0.112c-3.735,-0.172 -6.487,-1.875 -8.265,-5.1h-0.174c-1.244,2.625 -2.887,4.236 -4.919,4.838c-0.615,0.172 -1.32,0.262 -2.115,0.262V47.387z" id="path_8"/><path fill="#000001" d="M38.843,25.922c0.322,0.555 0.697,2.137 1.125,4.746c-0.263,1.584 -0.953,2.371 -2.07,2.371h-0.15c-0.486,0 -1.117,-0.314 -1.912,-0.945c-0.54,0.953 -1.335,1.434 -2.37,1.434c-1.26,0 -1.89,-1.531 -1.89,-4.592c0.367,-1.162 0.683,-1.74 0.945,-1.74l0.149,0.158v2.701c0.218,0.938 0.487,1.402 0.795,1.402h0.638c0.66,0 1.08,-0.264 1.275,-0.789l-0.33,-2.369c0.127,-0.795 0.345,-1.215 0.637,-1.252h0.33c0.33,2.633 0.863,3.951 1.575,3.951h1.103v-0.156l-0.48,-3.158v-0.18C38.34,26.445 38.55,25.922 38.843,25.922z" id="path_9"/><path fill="#000001" d="M41.505,16.254c0.18,-0.105 0.232,0.061 0.158,0.488c-0.998,2.34 -2.527,3.975 -4.59,4.896l-7.584,3.803c-0.322,-0.09 -0.382,-0.352 -0.18,-0.795c1.014,-1.949 1.703,-3.105 2.07,-3.473L41.505,16.254z" id="path_10"/><path fill="#D50000" d="M13.95,22.291h0.705c2.317,1.32 3.487,2.086 3.518,2.287c-1.148,2.461 -1.905,3.75 -2.287,3.871c-1.32,0 -2.611,-0.645 -3.871,-1.936C12.255,25.254 12.899,23.844 13.95,22.291z" id="path_11"/><path fill="#D50000" d="M20.101,21.414c1.117,0 2.467,0.764 4.049,2.287c0,0.615 -0.764,1.846 -2.287,3.689c-0.877,0 -2.167,-0.584 -3.869,-1.754C17.993,24.609 18.698,23.199 20.101,21.414z" id="path_12"/><path fill="#D50000" d="M28.763,52.396h-0.045c-3.367,0 -5.655,-1.643 -6.855,-4.92l-0.353,-1.41h-0.353c-0.262,0.938 -2.137,1.521 -5.625,1.762h-0.877c-2.348,0 -3.518,-0.705 -3.518,-2.113v-1.584c0,-1.695 1.289,-3.803 3.869,-6.322c1.553,-1.178 3.309,-2.168 5.273,-2.992l-0.18,-0.525c0.645,-2.932 1.177,-4.395 1.582,-4.395c0.21,0.494 0.502,4.133 0.885,10.896c0.525,4.561 2.588,6.773 6.195,6.66V52.396L28.763,52.396zM13.245,42.203c0.675,0.467 1.793,0.699 3.345,0.699c1.522,-0.113 2.925,-0.406 4.216,-0.879l-0.354,-4.92H20.28C15.593,39.332 13.245,41.025 13.245,42.203z" id="path_13"/><path fill="#f06022" d="M23.445,11.439l0.18,0.156v0.48c-0.915,1.949 -2.183,3.314 -3.802,4.109c-5.041,2.738 -7.838,4.111 -8.393,4.111c-0.211,0 -0.316,-0.166 -0.316,-0.488c0.488,-1.859 1.546,-3.119 3.166,-3.779l9.015,-4.59H23.445z" id="path_14"/><path fill="#f06022" d="M22.192,7.486c0.203,0 0.308,0.15 0.308,0.457c-0.585,1.703 -2.317,3.232 -5.205,4.598l-6.659,3.645l-0.15,-0.156v-0.174c0.629,-2.227 1.627,-3.6 3.008,-4.109l7.424,-3.803L22.192,7.486z" id="path_15"/></svg>