<svg id="vector" xmlns="http://www.w3.org/2000/svg" width="102" height="73" viewBox="0 0 102 73"><path fill="#008046" d="M65.219,50.5h0.877c5.468,-0.105 9.098,-0.87 10.897,-2.311l0.353,-0.697c-0.232,-0.563 -0.525,-0.84 -0.877,-0.84c-0.848,0.473 -1.785,0.705 -2.813,0.705h-0.18c-3.045,-0.353 -4.627,-1.583 -4.74,-3.69v-0.18c0.292,-3.982 1.23,-5.971 2.813,-5.971h0.877c2.708,-0.135 4.763,1.973 6.15,6.323l0.172,1.763v0.352c-0.037,4.306 -1.583,7.148 -4.635,8.521c-1.08,0.69 -4.05,1.035 -8.895,1.035V50.5z" id="path_0"/><path fill="#008046" d="M72.952,28.329c1.905,0.585 3.548,1.522 4.92,2.813v0.172c0,0.735 -0.758,1.905 -2.28,3.518c-0.473,0 -2.055,-0.585 -4.748,-1.755v0.172c-0.938,1.815 -1.522,2.752 -1.763,2.813c-1.522,-0.322 -2.812,-1.027 -3.862,-2.107c0.705,-2.933 1.29,-4.395 1.755,-4.395c0.383,0 1.785,0.705 4.223,2.107C71.197,31.051 71.782,29.942 72.952,28.329z" id="path_1"/><path fill="#008046" d="M77.677,17.739c0.18,-0.105 0.232,0.06 0.157,0.487c-0.998,2.34 -2.527,3.975 -4.59,4.897l-7.583,3.803c-0.322,-0.09 -0.382,-0.353 -0.18,-0.795c1.013,-1.95 1.703,-3.105 2.07,-3.473L77.677,17.739z" id="path_2"/><path fill="#000001" d="M65.849,55.532c-3.015,-0.203 -5.752,-1.853 -8.212,-4.942h-0.18c-1.05,6.09 -3.397,9.135 -7.027,9.143h-0.532c-1.575,-0.008 -3.105,-1.41 -4.568,-4.223c-1.169,-3.953 -1.755,-6.945 -1.755,-8.963v-1.41c0,-0.877 0.172,-1.35 0.525,-1.402c0.495,0.263 1.087,2.183 1.77,5.768c0.683,3.577 2.085,5.287 4.208,5.13c4.103,-0.675 6.27,-3.022 6.503,-7.035l-1.583,-5.444v-1.936c0.06,-2.348 0.292,-3.518 0.705,-3.518c0.232,0.525 0.413,1.058 0.525,1.583l2.46,7.732c1.936,3.135 4.328,4.62 7.163,4.439V55.532z" id="path_3"/><path fill="#000001" d="M57.562,22.966c0.322,0.555 0.698,2.138 1.125,4.748c-0.263,1.583 -0.953,2.37 -2.07,2.37h-0.15c-0.487,0 -1.117,-0.315 -1.913,-0.945c-0.54,0.953 -1.334,1.432 -2.37,1.432c-1.26,0 -1.89,-1.53 -1.89,-4.59c0.367,-1.163 0.683,-1.74 0.945,-1.74l0.15,0.157v2.7c0.217,0.938 0.487,1.402 0.795,1.402h0.637c0.66,0 1.08,-0.263 1.275,-0.788l-0.33,-2.37c0.127,-0.795 0.345,-1.215 0.637,-1.252h0.33c0.33,2.633 0.863,3.953 1.575,3.953h1.103v-0.157l-0.48,-3.158v-0.18C57.06,23.491 57.27,22.966 57.562,22.966z" id="path_4"/><path fill="#000001" d="M60.225,13.299c0.18,-0.105 0.232,0.06 0.157,0.487c-0.998,2.34 -2.527,3.975 -4.59,4.897l-7.583,3.803c-0.323,-0.09 -0.383,-0.353 -0.18,-0.795c1.013,-1.95 1.703,-3.105 2.07,-3.473L60.225,13.299z" id="path_5"/><path fill="#D50000" d="M33.795,39.511c1.051,1.058 2.048,3.338 2.985,6.855l0.18,2.287c0,4.133 -2.055,6.945 -6.158,8.438l-1.23,0.173l-3.12,0.045l-3.03,-0.045l-0.173,-0.173v-0.18c0.375,-0.405 2.896,-1.635 7.553,-3.69c2.933,-1.664 4.515,-3.135 4.748,-4.395c-1.522,-3.248 -2.28,-5.122 -2.28,-5.625v-0.525C33.271,40.569 33.443,39.511 33.795,39.511z" id="path_6"/><path fill="#D50000" d="M35.708,26.296c0.18,-0.105 0.232,0.06 0.157,0.487c-0.998,2.34 -2.527,3.975 -4.59,4.898l-7.583,3.802c-0.322,-0.09 -0.382,-0.352 -0.18,-0.795c1.013,-1.95 1.703,-3.105 2.07,-3.473L35.708,26.296z" id="path_7"/></svg>