<svg id="vector" xmlns="http://www.w3.org/2000/svg" width="102" height="73" viewBox="0 0 102 73"><path fill="#000001" d="M67.654,51.192h0.906h0.346h0.885c3.188,-0.232 5.123,-0.967 5.799,-2.197c0,-0.968 -1.111,-3.6 -3.338,-7.912l-0.354,-1.403c-0.383,-1.845 -0.367,-3.54 0.045,-5.077c0.406,-1.537 1.215,-2.603 2.416,-3.188c2.783,-1.875 8.115,-4.979 15.998,-9.315l0.172,0.181v0.345c-1.695,2.67 -2.984,5.13 -3.863,7.388h-0.352l-0.18,-0.878V28.25l0.18,-0.173v-0.172h-0.18c-6.533,3.772 -10.928,6.532 -13.186,8.257v0.181c2.467,4.979 3.811,8.782 4.051,11.422c0,1.875 -0.646,3.87 -1.936,5.978c-1.23,1.643 -3.691,2.46 -7.389,2.46h-0.021V51.192z" id="path_0"/><path fill="#000001" d="M82.49,56.112c0.18,-0.098 0.232,0.061 0.156,0.487c-0.998,2.34 -2.527,3.976 -4.59,4.897L70.475,65.3c-0.322,-0.09 -0.383,-0.353 -0.18,-0.787c1.012,-1.95 1.701,-3.105 2.068,-3.473L82.49,56.112z" id="path_1"/><path fill="#213e95" d="M56.6,28.25c2.467,1.23 3.697,2.288 3.697,3.165c-1.178,2.317 -1.875,3.487 -2.115,3.518H57.83c-1.801,-0.907 -2.91,-1.725 -3.338,-2.46C54.904,31.138 55.609,29.735 56.6,28.25z" id="path_2"/><path fill="#213e95" d="M68.486,56.225c-3.014,-0.202 -5.752,-1.852 -8.213,-4.942h-0.18c-1.049,6.091 -3.396,9.136 -7.027,9.143h-0.533c-1.574,-0.007 -3.104,-1.41 -4.566,-4.223c-1.17,-3.952 -1.756,-6.944 -1.756,-8.962v-1.41c0,-0.878 0.174,-1.35 0.525,-1.402c0.494,0.262 1.088,2.183 1.77,5.768c0.684,3.577 2.086,5.287 4.209,5.13c4.102,-0.675 6.27,-3.022 6.502,-7.035l-1.582,-5.445V40.91c0.059,-2.348 0.293,-3.518 0.705,-3.518c0.232,0.525 0.412,1.058 0.523,1.582l2.461,7.733c1.936,3.135 4.328,4.619 7.162,4.439V56.225z" id="path_3"/><path fill="#213e95" d="M58.752,17.397c0.322,0.555 0.697,2.138 1.125,4.747c-0.264,1.583 -0.953,2.37 -2.07,2.37h-0.15c-0.486,0 -1.117,-0.314 -1.912,-0.944c-0.541,0.952 -1.334,1.432 -2.371,1.432c-1.26,0 -1.889,-1.529 -1.889,-4.59c0.367,-1.162 0.682,-1.739 0.945,-1.739l0.15,0.157v2.7c0.217,0.938 0.486,1.402 0.793,1.402h0.639c0.66,0 1.08,-0.263 1.275,-0.788l-0.33,-2.37c0.127,-0.795 0.344,-1.215 0.637,-1.252h0.33c0.33,2.633 0.863,3.952 1.574,3.952h1.104v-0.157l-0.48,-3.157v-0.181C58.25,17.922 58.459,17.397 58.752,17.397z" id="path_4"/><path fill="#213e95" d="M61.414,7.73c0.18,-0.105 0.232,0.06 0.158,0.487c-0.998,2.34 -2.527,3.975 -4.59,4.897l-7.584,3.802c-0.322,-0.089 -0.383,-0.352 -0.18,-0.794c1.012,-1.95 1.703,-3.105 2.07,-3.473L61.414,7.73z" id="path_5"/><path fill="#000001" d="M39.064,26.668c0.352,0 0.705,1.177 1.057,3.518l1.582,3.517l-0.705,4.043l0.525,9.848v1.575c-0.232,4.02 -0.816,6.359 -1.754,7.034l-0.174,-0.172l0.174,-2.641c0,-2.37 -0.766,-9.93 -2.289,-22.672C38.217,28.018 38.742,26.668 39.064,26.668z" id="path_6"/><path fill="#D50000" d="M23.434,58.902c0.6,0 2.002,0.705 4.215,2.115c0,0.878 -0.697,2.28 -2.107,4.215c-2.813,-0.907 -4.215,-1.725 -4.215,-2.46C21.395,62.112 22.098,60.822 23.434,58.902z" id="path_7"/><path fill="#D50000" d="M19.211,51.192c4.605,0.045 7.178,-0.817 7.74,-2.595c0,-0.615 -0.586,-2.138 -1.762,-4.567l0.531,-4.567h0.346c1.529,2.632 2.287,5.272 2.287,7.904v1.583c0,1.058 -0.254,2.167 -0.758,3.33c-0.502,1.162 -1.281,2.145 -2.324,2.933c-1.051,0.795 -3.068,1.125 -6.061,0.989V51.192z" id="path_8"/><path fill="#000001" d="M31.818,27.485l0.18,0.157v0.48c-0.914,1.949 -2.182,3.314 -3.801,4.109c-5.041,2.737 -7.838,4.11 -8.393,4.11c-0.211,0 -0.316,-0.165 -0.316,-0.488c0.488,-1.859 1.545,-3.119 3.166,-3.779l9.014,-4.59H31.818z" id="path_9"/><path fill="#000001" d="M30.566,23.532c0.203,0 0.307,0.15 0.307,0.458c-0.584,1.702 -2.316,3.232 -5.205,4.598l-6.658,3.645l-0.15,-0.157v-0.173c0.629,-2.228 1.627,-3.6 3.008,-4.109l7.424,-3.803L30.566,23.532z" id="path_10"/><path fill="#000001" d="M21.027,56.202c-3.414,0.203 -5.896,-1.372 -7.449,-4.725c-0.75,-1.245 -1.447,-9.638 -2.107,-25.178v-0.353c0.436,-2.58 1.08,-3.869 1.928,-3.869l0.885,-0.173c1.08,0 2.723,0.353 4.92,1.05v0.353c-0.119,0.353 -0.473,0.532 -1.057,0.532h-2.984c-0.615,0 -1.201,0.345 -1.764,1.05c0.549,13.493 1.344,21.308 2.4,23.445c1.051,2.138 2.797,3.09 5.229,2.857V56.202z" id="path_11"/></svg>