<svg id="vector" xmlns="http://www.w3.org/2000/svg" width="102" height="73" viewBox="0 0 102 73"><path fill="#D50000" d="M68.254,42.335h0.907h0.346h0.885c3.187,-0.232 5.122,-0.968 5.797,-2.198c0,-0.967 -1.109,-3.6 -3.337,-7.912l-0.353,-1.402c-0.383,-1.845 -0.368,-3.54 0.045,-5.078c0.405,-1.537 1.215,-2.603 2.415,-3.188c2.782,-1.874 8.115,-4.979 15.997,-9.314l0.173,0.18v0.345c-1.695,2.67 -2.985,5.131 -3.862,7.388h-0.354l-0.18,-0.877v-0.886l0.18,-0.172v-0.173h-0.18c-6.532,3.772 -10.927,6.532 -13.185,8.258v0.18c2.467,4.98 3.81,8.782 4.05,11.423c0,1.875 -0.645,3.87 -1.935,5.978c-1.23,1.643 -3.69,2.46 -7.388,2.46h-0.022V42.335z" id="path_0"/><path fill="#D50000" d="M77.644,7.265c1.8,0 2.7,1.11 2.7,3.322c0,3.525 -3.008,6.532 -9.03,9.008c-0.862,0.263 -0.967,-0.053 -0.308,-0.945c0.165,-0.337 1.583,-1.395 4.261,-3.165v-0.149c-1.155,-0.473 -1.732,-1.478 -1.732,-3.016c0.765,-3.367 1.979,-5.055 3.645,-5.055H77.644L77.644,7.265zM74.959,11.068c0,0.938 0.795,1.515 2.377,1.74h0.308c0.585,0 0.96,-0.218 1.117,-0.638c0,-0.953 -0.689,-1.695 -2.063,-2.221C76.099,9.95 75.521,10.325 74.959,11.068z" id="path_1"/><path fill="#000001" d="M69.026,47.345l-1.98,-0.022c-1.095,4.822 -3.997,7.26 -8.7,7.319c-2.52,0.113 -3.779,0.068 -3.779,-0.135c0.232,-0.442 1.92,-1.29 5.055,-2.55c3.225,-2.048 5.168,-3.367 5.843,-3.952l0.18,-0.525l-3.075,-0.487c-2.242,-0.585 -3.502,-1.71 -3.78,-3.383v-0.353c0,-2.843 0.698,-4.657 2.108,-5.452l1.058,-0.173c2.077,0 3.771,1.447 5.092,4.351c0.84,0.292 1.5,0.435 1.98,0.42V47.345z" id="path_2"/><path fill="#000001" d="M64.496,23.045c0.322,0.555 0.697,2.138 1.125,4.747c-0.263,1.583 -0.952,2.37 -2.07,2.37h-0.149c-0.488,0 -1.118,-0.315 -1.913,-0.945c-0.54,0.953 -1.335,1.433 -2.37,1.433c-1.26,0 -1.89,-1.53 -1.89,-4.59c0.367,-1.163 0.683,-1.74 0.945,-1.74l0.149,0.158v2.699c0.218,0.938 0.488,1.402 0.795,1.402h0.638c0.66,0 1.08,-0.262 1.275,-0.787l-0.33,-2.37c0.128,-0.795 0.345,-1.215 0.638,-1.252h0.33c0.329,2.632 0.862,3.952 1.574,3.952h1.103v-0.157l-0.479,-3.157v-0.181C63.993,23.57 64.203,23.045 64.496,23.045z" id="path_3"/><path fill="#000001" d="M66.626,56.547c0.181,-0.098 0.232,0.061 0.157,0.487c-0.997,2.34 -2.527,3.976 -4.59,4.897l-7.582,3.803c-0.322,-0.09 -0.383,-0.353 -0.18,-0.787c1.012,-1.95 1.702,-3.105 2.069,-3.473L66.626,56.547z" id="path_4"/><path fill="#008046" d="M51.408,37.632c1.051,1.058 2.048,3.338 2.985,6.855l0.18,2.287c0,4.133 -2.055,6.945 -6.157,8.438l-1.229,0.173l-3.12,0.045l-3.03,-0.045l-0.173,-0.173v-0.18c0.375,-0.405 2.896,-1.635 7.553,-3.69c2.933,-1.665 4.516,-3.135 4.748,-4.395c-1.522,-3.248 -2.28,-5.123 -2.28,-5.625v-0.525C50.884,38.69 51.057,37.632 51.408,37.632z" id="path_5"/><path fill="#008046" d="M53.358,25.917c0.181,-0.105 0.232,0.06 0.157,0.487c-0.997,2.34 -2.527,3.976 -4.59,4.897l-7.582,3.803c-0.322,-0.09 -0.383,-0.353 -0.181,-0.795c1.013,-1.95 1.703,-3.104 2.07,-3.473L53.358,25.917z" id="path_6"/><path fill="#000001" d="M20.868,29.413c1.373,0.412 2.783,1.29 4.215,2.64v0.173c-1.319,2.317 -2.077,3.487 -2.287,3.518h-0.525c-0.997,-0.143 -2.047,-0.788 -3.164,-1.935v-0.173C19.226,32.255 19.812,30.852 20.868,29.413z" id="path_7"/><path fill="#000001" d="M27.544,29.765c1.289,0.293 2.579,1.058 3.869,2.287v0.173c0,0.645 -0.704,1.822 -2.107,3.518h-0.532c-0.817,0 -1.875,-0.646 -3.165,-1.935C25.931,31.993 26.576,30.642 27.544,29.765z" id="path_8"/><path fill="#000001" d="M13.331,31.7h0.173l0.352,0.353c-0.937,2.078 -1.402,3.488 -1.402,4.215c0,3.428 3.278,5.423 9.841,5.978l2.106,0.353c2.115,0 5.273,-0.645 9.496,-1.935l2.46,-1.402c-0.818,-1.492 -1.351,-2.783 -1.583,-3.87l0.353,-3.338h0.353c1.402,1.463 2.107,4.043 2.107,7.732c0,3.548 -3.105,5.948 -9.314,7.208l-2.641,0.353c-9.84,0 -14.76,-3.226 -14.76,-9.668C10.871,34.985 11.688,32.99 13.331,31.7z" id="path_9"/><path fill="#000001" d="M23.523,15.53h1.74c2.107,0 3.165,0.788 3.165,2.37c-1.365,3.69 -3.022,5.647 -4.973,5.873l-2.303,0.307c-0.367,0 -0.518,-0.104 -0.465,-0.307c1.86,-0.982 3.601,-2.153 5.213,-3.495c-0.57,-0.533 -1.2,-0.795 -1.891,-0.795h-0.487l-1.89,0.157l-0.15,-0.157v-0.308C22.376,16.745 23.059,15.53 23.523,15.53z" id="path_10"/></svg>