<svg id="vector" xmlns="http://www.w3.org/2000/svg" width="102" height="73" viewBox="0 0 102 73"><path fill="#D50000" d="M76.424,54.35h0.354c1.199,0.263 2.489,0.968 3.869,2.115v0.173c-0.795,2.399 -1.492,3.689 -2.107,3.869c-1.792,-0.352 -3.135,-0.938 -4.042,-1.762v-0.173C74.497,57.193 75.142,55.791 76.424,54.35z" id="path_0"/><path fill="#D50000" d="M82.935,52.768h0.173c1.199,0.18 2.55,0.997 4.042,2.46v0.18l-2.107,3.69c-2.813,-0.908 -4.223,-1.673 -4.223,-2.288C81.727,54.118 82.432,52.768 82.935,52.768z" id="path_1"/><path fill="#D50000" d="M74.864,46.31c4.605,0.046 7.178,-0.817 7.74,-2.595c0,-0.615 -0.585,-2.138 -1.763,-4.567l0.532,-4.567h0.346c1.529,2.633 2.287,5.272 2.287,7.904v1.583c0,1.058 -0.255,2.167 -0.758,3.33c-0.502,1.162 -1.282,2.145 -2.325,2.933c-1.05,0.795 -3.067,1.125 -6.06,0.99V46.31z" id="path_2"/><path fill="#D50000" d="M88.05,22.475c0.18,-0.105 0.232,0.06 0.157,0.487c-0.998,2.34 -2.527,3.976 -4.59,4.897l-7.583,3.803c-0.322,-0.09 -0.382,-0.353 -0.18,-0.795c1.013,-1.95 1.702,-3.104 2.07,-3.473L88.05,22.475z" id="path_3"/><path fill="#000001" d="M75.892,51.036c-3.907,0.277 -6.225,-1.336 -6.938,-4.838v-0.435l-12.832,2.984c-4.072,0.412 -7.261,0.405 -9.563,-0.007c-2.296,-0.421 -3.556,-1.065 -3.78,-1.951c-0.539,-0.922 0.728,-1.417 3.795,-1.477c3.068,-0.068 5.25,-0.136 6.556,-0.21c3.164,-0.473 7.739,-1.478 13.71,-3.03c-2.926,-1.763 -4.98,-2.64 -6.15,-2.64h-0.525c-1.38,0 -2.377,0.817 -2.992,2.46c-0.247,0.382 -0.42,0.322 -0.524,-0.173v-0.353c0.457,-3.285 2.092,-4.92 4.92,-4.92c1.229,0 4.515,1.109 9.847,3.337c1.695,0.308 3.105,0.368 4.216,0.173c0.149,0.016 0.21,0.135 0.18,0.353c-0.825,2.933 -1.935,4.396 -3.345,4.396c-1.298,0.135 -1.891,0.367 -1.756,0.704c0.615,0.878 2.348,1.171 5.183,0.878V51.036z" id="path_4"/><path fill="#000001" d="M64.89,18.996c1.8,0 2.699,1.109 2.699,3.322c0,3.525 -3.007,6.532 -9.029,9.008c-0.863,0.262 -0.968,-0.053 -0.308,-0.945c0.165,-0.338 1.582,-1.396 4.26,-3.165v-0.15c-1.155,-0.473 -1.732,-1.478 -1.732,-3.015c0.765,-3.367 1.98,-5.055 3.646,-5.055H64.89L64.89,18.996zM62.204,22.798c0,0.937 0.795,1.515 2.378,1.739h0.308c0.585,0 0.96,-0.217 1.117,-0.638c0,-0.952 -0.69,-1.694 -2.063,-2.22C63.345,21.68 62.767,22.055 62.204,22.798z" id="path_5"/><path fill="#008046" d="M43.754,26.053c1.434,0.232 2.844,1.117 4.223,2.64v0.353c-0.885,2.34 -1.529,3.51 -1.935,3.51c-2.813,-0.96 -4.223,-1.725 -4.223,-2.279C41.819,29.188 42.465,27.785 43.754,26.053z" id="path_6"/><path fill="#008046" d="M46.807,35.675h0.705c3.75,0.383 5.625,1.905 5.625,4.575v0.353c-0.75,2.91 -1.627,4.784 -2.64,5.625c-1.927,1.635 -4.86,2.46 -8.782,2.46h-0.354c-2.227,0 -4.042,-0.232 -5.451,-0.705v1.755c0,3.315 -1.695,6.54 -5.101,9.675c-2.49,1.755 -4.89,2.633 -7.208,2.633h-0.344c-3.608,0 -6.48,-1.995 -8.618,-5.978c-0.614,-1.845 -0.907,-3.84 -0.878,-5.978c0.908,-4.215 2.318,-7.208 4.215,-8.963l0.885,-0.524h0.525v0.172c0,0.442 -0.938,1.905 -2.813,4.396c-0.705,0.968 -1.057,2.077 -1.057,3.337v0.886c0,1.402 1.057,3.277 3.164,5.625c1.793,1.05 3.84,1.582 6.158,1.582c4.125,0 7.35,-1.643 9.667,-4.928c0.112,-0.817 0.233,-1.635 0.345,-2.46c0,-0.494 -0.816,-2.017 -2.459,-4.567v-4.042c0.18,-0.322 0.352,-0.442 0.532,-0.353c1.433,1.725 3.075,2.782 4.92,3.165h0.353C40.455,38.255 43.32,35.675 46.807,35.675L46.807,35.675zM40.305,43.416l2.46,0.353c3.487,0 6.36,-0.705 8.618,-2.115V41.48c-1.059,-1.058 -2.348,-1.582 -3.871,-1.582h-0.705C43.994,39.898 41.827,41.068 40.305,43.416z" id="path_7"/><path fill="#008046" d="M36.037,23.645c0.322,0.555 0.697,2.138 1.125,4.747c-0.262,1.583 -0.953,2.37 -2.07,2.37h-0.15c-0.486,0 -1.117,-0.314 -1.912,-0.945c-0.539,0.953 -1.334,1.433 -2.369,1.433c-1.261,0 -1.891,-1.529 -1.891,-4.59c0.367,-1.162 0.683,-1.74 0.945,-1.74l0.15,0.158v2.7c0.217,0.938 0.487,1.402 0.795,1.402h0.637c0.66,0 1.08,-0.263 1.275,-0.788l-0.33,-2.37c0.127,-0.795 0.345,-1.215 0.637,-1.252h0.33c0.33,2.633 0.863,3.952 1.576,3.952h1.102v-0.157l-0.479,-3.157v-0.181C35.535,24.169 35.744,23.645 36.037,23.645z" id="path_8"/><path fill="#008046" d="M33.848,10.955c1.799,0 2.699,1.11 2.699,3.322c0,3.525 -3.008,6.533 -9.029,9.008c-0.863,0.263 -0.968,-0.053 -0.309,-0.945c0.166,-0.337 1.583,-1.395 4.261,-3.165v-0.149c-1.155,-0.473 -1.732,-1.478 -1.732,-3.016c0.765,-3.367 1.979,-5.055 3.646,-5.055H33.848L33.848,10.955zM31.162,14.757c0,0.938 0.795,1.515 2.377,1.74h0.309c0.584,0 0.959,-0.218 1.117,-0.638c0,-0.952 -0.69,-1.695 -2.063,-2.22C32.303,13.64 31.725,14.015 31.162,14.757z" id="path_9"/></svg>