<svg id="vector" xmlns="http://www.w3.org/2000/svg" width="102" height="73" viewBox="0 0 102 73"><path fill="#213e95" d="M72.756,27.838c1.732,0.555 3.083,1.26 4.042,2.108v0.352c0,0.585 -0.638,1.875 -1.928,3.87c-1.2,0 -2.55,-0.645 -4.042,-1.935v-0.352C70.828,30.621 71.474,29.271 72.756,27.838z" id="path_0"/><path fill="#213e95" d="M67.746,48.095c4.605,0.046 7.178,-0.817 7.74,-2.595c0,-0.615 -0.585,-2.138 -1.763,-4.567l0.533,-4.567h0.345c1.53,2.633 2.288,5.272 2.288,7.905v1.582c0,1.058 -0.255,2.168 -0.758,3.33s-1.283,2.145 -2.325,2.933c-1.05,0.795 -3.067,1.125 -6.06,0.99V48.095z" id="path_1"/><path fill="#213e95" d="M79.874,17.181c0.18,-0.105 0.232,0.06 0.157,0.487c-0.998,2.34 -2.527,3.975 -4.59,4.897l-7.583,3.803c-0.322,-0.09 -0.382,-0.353 -0.18,-0.795c1.013,-1.95 1.703,-3.105 2.07,-3.473L79.874,17.181z" id="path_2"/><path fill="#000001" d="M68.488,53.106c-0.112,0 -0.232,0 -0.345,0h-1.583c-1.583,0 -3.405,-0.998 -5.453,-2.985c-3.518,1.928 -7.313,2.925 -11.385,2.985v-4.988c2.13,0.143 4.867,-0.3 8.22,-1.342v-0.173c-1.612,-1.058 -3.135,-1.582 -4.567,-1.582l-1.41,0.172l-0.353,-0.877c0.473,-3.165 1.823,-4.748 4.043,-4.748l2.812,-0.172c4.455,0.524 6.683,1.522 6.683,2.984v0.705l-1.058,3.518c0.855,1.035 2.318,1.538 4.395,1.492V53.106z" id="path_3"/><path fill="#000001" d="M62.293,24.058c0.323,0.555 0.698,2.138 1.125,4.748c-0.262,1.583 -0.953,2.37 -2.07,2.37h-0.15c-0.487,0 -1.117,-0.315 -1.913,-0.945c-0.54,0.953 -1.334,1.433 -2.37,1.433c-1.26,0 -1.89,-1.53 -1.89,-4.59c0.368,-1.163 0.683,-1.74 0.945,-1.74l0.15,0.158v2.7c0.217,0.937 0.487,1.402 0.795,1.402h0.637c0.66,0 1.08,-0.263 1.275,-0.788l-0.33,-2.37c0.127,-0.795 0.345,-1.215 0.637,-1.252h0.33c0.33,2.633 0.863,3.953 1.575,3.953h1.103v-0.158l-0.48,-3.157v-0.18C61.791,24.583 62.001,24.058 62.293,24.058z" id="path_4"/><path fill="#000001" d="M64.956,14.391c0.18,-0.105 0.232,0.06 0.157,0.487c-0.998,2.34 -2.527,3.975 -4.59,4.897l-7.583,3.803c-0.322,-0.09 -0.382,-0.353 -0.18,-0.795c1.013,-1.95 1.703,-3.105 2.07,-3.473L64.956,14.391z" id="path_5"/><path fill="#D50000" d="M49.881,53.106c-0.188,0 -0.39,0 -0.592,0h-0.172c-1.703,-0.016 -3.345,-0.315 -4.928,-0.9c-1.695,2.933 -3.922,4.396 -6.675,4.396c-3.285,-0.473 -4.928,-1.815 -4.928,-4.043h-0.172c-0.555,1.875 -1.785,3.397 -3.69,4.567c-2.55,0.938 -4.545,1.41 -5.978,1.41l-0.81,0.104v-0.352c0.652,-0.54 2.422,-1.793 5.302,-3.758c2.88,-1.958 4.515,-3.188 4.897,-3.69c0.39,-0.495 0.953,-2.152 1.688,-4.965c1.402,-2.34 2.692,-3.518 3.862,-3.518h0.353c1.462,0 3.81,1.583 7.035,4.747c0.938,0.796 2.535,1.147 4.808,1.059V53.106L49.881,53.106zM34.701,48.335c0,1.553 1.229,2.61 3.69,3.165h0.877c1.995,-0.202 2.992,-0.495 2.992,-0.878c-2.317,-2.227 -4.072,-3.337 -5.28,-3.337h-0.172C35.811,47.286 35.106,47.638 34.701,48.335z" id="path_6"/><path fill="#D50000" d="M41.999,27.928c0.18,-0.105 0.233,0.06 0.158,0.487c-0.998,2.34 -2.527,3.975 -4.59,4.897l-7.583,3.803c-0.322,-0.09 -0.382,-0.353 -0.18,-0.795c1.012,-1.95 1.702,-3.105 2.07,-3.473L41.999,27.928z" id="path_7"/></svg>