<svg id="vector" xmlns="http://www.w3.org/2000/svg" width="102" height="73" viewBox="0 0 102 73"><path fill="#D50000" d="M75.572,22.295c0.353,0 0.705,1.178 1.058,3.518l1.582,3.518l-0.705,4.042l0.525,9.848v1.575c-0.232,4.021 -0.817,6.36 -1.755,7.035l-0.173,-0.173l0.173,-2.64c0,-2.37 -0.766,-9.93 -2.288,-22.672C74.725,23.646 75.25,22.295 75.572,22.295z" id="path_0"/><path fill="#D50000" d="M80.822,12.013c0.18,-0.105 0.232,0.06 0.157,0.487c-0.997,2.34 -2.527,3.975 -4.59,4.897L68.807,21.2c-0.322,-0.09 -0.382,-0.353 -0.18,-0.795c1.013,-1.95 1.702,-3.105 2.07,-3.473L80.822,12.013z" id="path_1"/><path fill="#213e95" d="M55.614,54.86h0.353c1.2,0.262 2.49,0.967 3.87,2.114v0.173c-0.795,2.4 -1.492,3.69 -2.107,3.87c-1.792,-0.353 -3.135,-0.938 -4.042,-1.763v-0.173C53.688,57.702 54.332,56.3 55.614,54.86z" id="path_2"/><path fill="#213e95" d="M62.125,53.277h0.172c1.2,0.18 2.551,0.998 4.043,2.46v0.181l-2.107,3.689C61.42,58.7 60.01,57.935 60.01,57.32C60.917,54.628 61.622,53.277 62.125,53.277z" id="path_3"/><path fill="#213e95" d="M54.055,46.82c4.604,0.045 7.178,-0.817 7.74,-2.596c0,-0.614 -0.585,-2.137 -1.763,-4.567l0.532,-4.567h0.345c1.53,2.633 2.288,5.272 2.288,7.905v1.582c0,1.058 -0.255,2.168 -0.758,3.33c-0.502,1.163 -1.282,2.146 -2.325,2.933c-1.05,0.795 -3.067,1.125 -6.06,0.99V46.82z" id="path_4"/><path fill="#213e95" d="M66.827,22.475c0.322,0.556 0.697,2.138 1.125,4.748c-0.263,1.582 -0.953,2.37 -2.07,2.37h-0.149c-0.488,0 -1.118,-0.315 -1.913,-0.945c-0.54,0.953 -1.335,1.433 -2.37,1.433c-1.26,0 -1.89,-1.53 -1.89,-4.59c0.367,-1.163 0.683,-1.74 0.945,-1.74l0.149,0.158v2.699c0.218,0.938 0.488,1.402 0.795,1.402h0.638c0.66,0 1.08,-0.263 1.275,-0.787l-0.33,-2.37c0.127,-0.795 0.345,-1.215 0.638,-1.252h0.329c0.33,2.632 0.863,3.952 1.575,3.952h1.103v-0.157l-0.479,-3.158v-0.18C66.324,23 66.534,22.475 66.827,22.475z" id="path_5"/><path fill="#213e95" d="M69.482,12.808c0.18,-0.105 0.232,0.06 0.157,0.487c-0.998,2.34 -2.527,3.975 -4.59,4.897l-7.583,3.803c-0.322,-0.09 -0.382,-0.353 -0.18,-0.795c1.013,-1.95 1.702,-3.104 2.07,-3.473L69.482,12.808z" id="path_6"/><path fill="#000001" d="M57.07,51.83c-3.413,0.202 -5.896,-1.373 -7.448,-4.725c-0.75,-1.245 -1.447,-9.638 -2.107,-25.178v-0.353c0.435,-2.58 1.08,-3.87 1.928,-3.87l0.885,-0.173c1.08,0 2.723,0.353 4.92,1.05v0.354c-0.12,0.352 -0.473,0.532 -1.058,0.532h-2.984c-0.615,0 -1.2,0.345 -1.763,1.05c0.548,13.492 1.342,21.308 2.399,23.445c1.051,2.138 2.798,3.09 5.229,2.857V51.83z" id="path_7"/><path fill="#000001" d="M31.885,41.285h0.353c1.643,0.375 3.105,1.26 4.395,2.632v0.353c-0.112,0.938 -0.817,2.168 -2.107,3.69c-3.045,-1.02 -4.567,-1.905 -4.567,-2.632C30.685,43.22 31.329,41.87 31.885,41.285z" id="path_8"/><path fill="#000001" d="M41.207,37.768h0.345c0.413,0 1.41,2.64 2.993,7.912l0.173,0.698c0,4.132 -0.998,7.125 -2.985,8.97c-2.813,3.045 -6.15,4.567 -10.021,4.567c-3.165,-0.705 -5.212,-1.402 -6.149,-2.107c-3.053,-2.61 -4.575,-5.835 -4.575,-9.668c0,-3.225 1.41,-6.27 4.223,-9.142l0.172,-0.173h0.354l0.352,0.345c0,0.3 -0.817,1.583 -2.46,3.87c-0.473,0.817 -0.765,1.935 -0.877,3.338c0,2.729 1.402,5.069 4.215,7.035c2.752,1.057 4.627,1.582 5.625,1.582c2.52,0 5.505,-1.117 8.962,-3.338c1.41,-1.237 2.115,-1.994 2.115,-2.287l-2.46,-6.855l-0.18,-1.229L41.207,37.768z" id="path_9"/><path fill="#000001" d="M38.298,23.157c0.18,-0.104 0.232,0.061 0.157,0.487c-0.998,2.341 -2.527,3.976 -4.59,4.898l-7.583,3.802c-0.322,-0.09 -0.383,-0.353 -0.18,-0.795c1.013,-1.95 1.702,-3.104 2.07,-3.473L38.298,23.157z" id="path_10"/></svg>