<svg id="vector" xmlns="http://www.w3.org/2000/svg" width="163" height="73" viewBox="0 0 163.199 72.959"><path fill="#000001" d="M136.34,40.527h0.705c2.055,0 3.576,1.754 4.574,5.271l0.172,1.756c0.061,0.568 0.061,1.154 0,1.762c-0.525,2.137 -1.701,4.244 -3.518,6.322c-1.26,1.059 -4.125,1.875 -8.609,2.461c-0.525,-0.232 -0.826,-0.465 -0.877,-0.697c7.5,-4.074 11.25,-6.533 11.25,-7.389l0.172,-0.525l-0.172,-0.172l-1.584,0.525h-0.877c-3.164,0 -4.748,-1.117 -4.748,-3.338V46.15c0.406,-3.637 1.291,-5.451 2.633,-5.451L136.34,40.527z" id="path_0"/><path fill="#000001" d="M140.996,26.283c0.18,-0.104 0.232,0.061 0.158,0.488c-0.998,2.34 -2.527,3.975 -4.59,4.898l-7.582,3.801c-0.324,-0.09 -0.383,-0.352 -0.182,-0.795c1.014,-1.949 1.703,-3.104 2.07,-3.473L140.996,26.283z" id="path_1"/><path fill="#D50000" d="M122.254,21.207c0.352,0 0.705,1.178 1.057,3.518l1.584,3.518l-0.705,4.041l0.523,9.848v1.576c-0.23,4.02 -0.816,6.359 -1.754,7.035l-0.172,-0.174l0.172,-2.639c0,-2.371 -0.766,-9.932 -2.287,-22.674C121.406,22.557 121.932,21.207 122.254,21.207z" id="path_2"/><path fill="#000001" d="M105.544,50.322c0.202,0.014 0.42,0.021 0.659,0.021h1.666c1.762,-0.293 3.104,-0.908 4.042,-1.846l-2.107,-16.701c0.524,-3.166 0.997,-4.74 1.402,-4.74l2.288,5.271c0,0.818 -0.293,2.049 -0.878,3.691l0.878,9.486v2.641c-0.66,2.797 -1.545,4.756 -2.655,5.865c-0.841,0.893 -1.823,1.342 -2.97,1.342h-1.492c-0.293,0 -0.57,-0.008 -0.833,-0.021V50.322z" id="path_3"/><path fill="#e21171" d="M94.023,27.033c0.6,0 2.01,0.705 4.223,2.115c0,0.879 -0.705,2.281 -2.107,4.215c-2.813,-0.906 -4.223,-1.725 -4.223,-2.459C91.99,30.244 92.695,28.953 94.023,27.033z" id="path_4"/><path fill="#e21171" d="M91.938,44.502h0.046c2.047,0 3.689,-0.697 4.919,-2.107l-0.173,-1.402c0,-1.732 0.354,-3.137 1.051,-4.223c0.322,0 0.795,2.992 1.41,8.961c0.705,3.227 3.157,4.719 7.357,4.486v5.01c-4.103,0.293 -6.96,-1.582 -8.588,-5.625c-0.262,-2.813 -0.555,-4.215 -0.877,-4.215c-0.69,2.662 -2.408,4.064 -5.146,4.191V44.502z" id="path_5"/><path fill="#e21171" d="M98.126,16.174c0.323,0.555 0.698,2.137 1.125,4.748c-0.263,1.582 -0.952,2.369 -2.069,2.369h-0.15c-0.488,0 -1.117,-0.314 -1.912,-0.945c-0.541,0.953 -1.336,1.434 -2.371,1.434c-1.26,0 -1.89,-1.531 -1.89,-4.59c0.368,-1.164 0.683,-1.74 0.945,-1.74l0.149,0.156v2.701c0.218,0.938 0.488,1.402 0.795,1.402h0.638c0.661,0 1.08,-0.264 1.275,-0.787l-0.33,-2.371c0.128,-0.795 0.345,-1.215 0.638,-1.252h0.33c0.33,2.633 0.862,3.953 1.574,3.953h1.104v-0.158l-0.48,-3.158v-0.18C97.623,16.699 97.834,16.174 98.126,16.174z" id="path_6"/><path fill="#D50000" d="M81.588,31.145c2.461,1.229 3.69,2.279 3.69,3.164c-1.17,2.311 -1.875,3.48 -2.107,3.51h-0.353c-1.808,-0.906 -2.918,-1.725 -3.345,-2.459C79.886,34.023 80.592,32.621 81.588,31.145z" id="path_7"/><path fill="#D50000" d="M92.531,49.662c-0.165,0.014 -0.322,0.021 -0.488,0.021h-0.877c-1.38,0 -2.317,-0.111 -2.813,-0.352c-1.027,3.945 -2.221,6.359 -3.585,7.244c-1.357,0.885 -4.44,1.635 -9.247,2.25h-0.354c-1.049,-0.119 -1.582,-0.293 -1.582,-0.525c0,-0.352 0.877,-0.764 2.641,-1.229c6.914,-3.166 10.372,-5.453 10.372,-6.855c0,-0.586 -0.825,-1.936 -2.46,-4.043c-0.353,-0.592 -0.533,-1.35 -0.533,-2.287v-1.756c0,-0.885 0.181,-1.35 0.533,-1.41c1.522,2.334 4.096,3.631 7.732,3.908c0.217,0 0.436,0 0.66,-0.016V49.662z" id="path_8"/><path fill="#D50000" d="M87.057,61.129c0.18,-0.098 0.232,0.061 0.156,0.488c-0.997,2.34 -2.527,3.975 -4.59,4.896l-7.582,3.803c-0.322,-0.09 -0.383,-0.354 -0.18,-0.787c1.012,-1.951 1.702,-3.105 2.07,-3.473L87.057,61.129z" id="path_9"/><path fill="#000001" d="M51.086,45.709c0.442,0.029 0.893,0.045 1.342,0.045h0.525l2.197,-0.525c-0.524,-0.982 -0.787,-1.664 -0.787,-2.047c0,-5.625 1.814,-8.438 5.445,-8.438l1.41,-0.172c1.845,0.291 4.191,1.402 7.027,3.336l0.18,0.705l-0.18,0.174h-0.697c-1.35,-0.938 -2.873,-1.402 -4.576,-1.402c-2.602,0 -4.77,0.756 -6.502,2.279v0.18c1.522,2.461 4.336,3.689 8.438,3.689c3.225,-1.17 5.333,-1.754 6.33,-1.754c-0.555,3.277 -1.612,4.92 -3.165,4.92c-6.944,2.691 -12.45,4.043 -16.522,4.043h-0.465V45.709z" id="path_10"/><path fill="#213e95" d="M51.881,50.764c-2.242,-0.18 -4.268,-1.754 -6.09,-4.725c-2.693,3.277 -6.563,4.92 -11.596,4.92h-1.41c-5.444,0 -9.194,-2.34 -11.25,-7.027l-0.172,-1.059v-1.582c0,-1.695 0.758,-3.629 2.28,-5.797h0.18l0.353,0.352v0.879l-0.885,2.813c0,3.074 2.58,5.182 7.74,6.33l3.164,0.172c5.476,0 9.811,-1.875 13.006,-5.625c0.172,0 0.352,0.232 0.524,0.705l-0.173,1.23c0.601,2.211 2.041,3.322 4.328,3.336V50.764z" id="path_11"/><path fill="#213e95" d="M31.556,34.084h0.353c1.2,0.262 2.49,0.967 3.87,2.107v0.18c-0.795,2.4 -1.5,3.689 -2.114,3.871c-1.785,-0.354 -3.136,-0.938 -4.043,-1.764v-0.172C29.621,36.926 30.266,35.523 31.556,34.084z" id="path_12"/><path fill="#213e95" d="M38.059,32.502h0.18c1.2,0.18 2.55,0.996 4.043,2.459v0.18l-2.115,3.691c-2.813,-0.908 -4.215,-1.674 -4.215,-2.289C36.858,33.852 37.563,32.502 38.059,32.502z" id="path_13"/><path fill="#213e95" d="M40.474,54.207c0.18,-0.098 0.232,0.059 0.157,0.486c-0.998,2.34 -2.527,3.975 -4.59,4.898l-7.582,3.803c-0.322,-0.09 -0.383,-0.354 -0.181,-0.789c1.013,-1.949 1.702,-3.104 2.07,-3.471L40.474,54.207z" id="path_14"/><path fill="#e21171" d="M94.875,2.645c1.41,2.398 2.115,4.746 2.115,7.027c-0.615,4.334 -1.381,6.502 -2.287,6.502l-0.174,-0.172v-0.174l0.346,-2.287v-0.18c0,-1.402 -0.585,-3.51 -1.755,-6.322V6.686C93.705,3.986 94.29,2.645 94.875,2.645z" id="path_15"/><path fill="#000001" d="M59.666,16.174c1.41,2.4 2.115,4.748 2.115,7.027c-0.614,4.334 -1.379,6.502 -2.287,6.502l-0.172,-0.172v-0.172l0.344,-2.287v-0.182c0,-1.402 -0.584,-3.51 -1.754,-6.322v-0.352C58.497,17.516 59.082,16.174 59.666,16.174z" id="path_16"/></svg>