<svg id="vector" xmlns="http://www.w3.org/2000/svg" width="102" height="73" viewBox="0 0 102 73"><path fill="#D50000" d="M20.098,17.334h1.74c2.107,0 3.164,0.788 3.164,2.37c-1.363,3.69 -3.021,5.647 -4.973,5.873l-2.303,0.307c-0.367,0 -0.516,-0.104 -0.465,-0.307c1.861,-0.982 3.602,-2.153 5.213,-3.495c-0.57,-0.533 -1.199,-0.796 -1.889,-0.796h-0.488l-1.891,0.158l-0.148,-0.158V20.98C18.949,18.549 19.633,17.334 20.098,17.334z" id="path_0"/><path fill="#213e95" d="M86.063,22.482c1.523,0 2.926,0.938 4.215,2.813c-1.08,2.46 -1.904,3.69 -2.459,3.69c-2.369,-1.17 -3.66,-1.935 -3.871,-2.288C83.947,25.587 84.652,24.177 86.063,22.482z" id="path_1"/><path fill="#213e95" d="M80.371,44.54h0.877c5.467,-0.104 9.098,-0.869 10.898,-2.31l0.352,-0.697c-0.232,-0.563 -0.525,-0.84 -0.877,-0.84c-0.848,0.472 -1.785,0.704 -2.813,0.704h-0.18c-3.045,-0.353 -4.629,-1.582 -4.74,-3.689v-0.181c0.291,-3.982 1.229,-5.97 2.813,-5.97h0.877c2.707,-0.135 4.762,1.973 6.15,6.322l0.172,1.763v0.353c-0.037,4.305 -1.582,7.147 -4.635,8.521c-1.08,0.689 -4.051,1.035 -8.895,1.035V44.54z" id="path_2"/><path fill="#213e95" d="M87.705,7.363c1.801,0 2.701,1.109 2.701,3.322c0,3.525 -3.008,6.532 -9.031,9.008c-0.861,0.262 -0.967,-0.053 -0.307,-0.945c0.164,-0.338 1.582,-1.396 4.26,-3.165v-0.15c-1.154,-0.473 -1.732,-1.478 -1.732,-3.015c0.766,-3.367 1.98,-5.055 3.645,-5.055H87.705L87.705,7.363zM85.021,11.165c0,0.938 0.795,1.516 2.377,1.74h0.307c0.586,0 0.961,-0.217 1.117,-0.638c0,-0.952 -0.689,-1.694 -2.063,-2.22C86.16,10.047 85.584,10.422 85.021,11.165z" id="path_3"/><path fill="#000001" d="M55.666,42.897c1.439,0 2.49,0 3.164,0h0.705c2.107,-0.277 5.258,-1.177 9.451,-2.699c-1.41,-1.178 -3.578,-2.056 -6.504,-2.641c-1.732,0 -2.902,0.817 -3.518,2.46c-0.217,0.488 -0.412,0.615 -0.584,0.383c-0.166,-0.226 -0.211,-0.525 -0.121,-0.907c1.059,-3.548 2.461,-5.317 4.223,-5.317h1.23c1.17,0 3.285,0.659 6.338,1.979c3.053,1.313 5.686,1.846 7.896,1.582c0.279,0 0.398,0.173 0.354,0.525c-0.473,2.925 -1.35,4.396 -2.641,4.396l-0.877,0.172v0.353c0.441,1.215 2.467,1.658 6.09,1.32v4.987c-5.242,0.277 -7.859,-1.763 -7.846,-6.127c-1.875,0.277 -4.416,1.147 -7.627,2.625c-3.209,1.47 -6.449,2.1 -9.734,1.897V42.897z" id="path_4"/><path fill="#000001" d="M64.434,48.59c2.459,1.229 3.697,2.287 3.697,3.164c-1.178,2.311 -1.875,3.488 -2.115,3.511h-0.354c-1.799,-0.908 -2.908,-1.726 -3.336,-2.46C62.738,51.477 63.443,50.068 64.434,48.59z" id="path_5"/><path fill="#000001" d="M71.266,19.078c0.322,0.555 0.697,2.138 1.125,4.747c-0.262,1.583 -0.953,2.37 -2.07,2.37h-0.15c-0.486,0 -1.117,-0.314 -1.912,-0.945c-0.539,0.953 -1.334,1.433 -2.369,1.433c-1.26,0 -1.891,-1.529 -1.891,-4.59c0.367,-1.162 0.684,-1.74 0.945,-1.74l0.15,0.158v2.7c0.217,0.937 0.486,1.402 0.795,1.402h0.637c0.66,0 1.08,-0.263 1.275,-0.788l-0.33,-2.37c0.127,-0.795 0.346,-1.215 0.637,-1.252h0.33c0.33,2.632 0.863,3.952 1.576,3.952h1.102v-0.157l-0.48,-3.157V20.66C70.764,19.602 70.973,19.078 71.266,19.078z" id="path_6"/><path fill="#000001" d="M72.277,56.45c0.182,-0.098 0.232,0.061 0.158,0.487c-0.998,2.341 -2.527,3.976 -4.59,4.897l-7.582,3.803c-0.322,-0.09 -0.383,-0.353 -0.182,-0.787c1.014,-1.95 1.703,-3.105 2.07,-3.473L72.277,56.45z" id="path_7"/><path fill="#008046" d="M55.553,47.922c-0.158,0.015 -0.322,0.022 -0.48,0.022h-0.885c-1.373,0 -2.311,-0.112 -2.813,-0.353c-1.02,3.945 -2.213,6.36 -3.576,7.245c-1.365,0.885 -4.449,1.635 -9.248,2.25h-0.354c-1.057,-0.12 -1.582,-0.293 -1.582,-0.525c0,-0.353 0.877,-0.765 2.633,-1.229c6.914,-3.165 10.373,-5.452 10.373,-6.855c0,-0.585 -0.818,-1.935 -2.461,-4.042c-0.352,-0.593 -0.525,-1.351 -0.525,-2.288v-1.755c0,-0.885 0.174,-1.35 0.525,-1.409c1.523,2.332 4.104,3.63 7.732,3.907c0.225,0 0.443,0 0.66,-0.015V47.922z" id="path_8"/><path fill="#008046" d="M51.84,26.72c0.18,-0.105 0.232,0.06 0.158,0.487c-0.998,2.34 -2.527,3.975 -4.59,4.897l-7.582,3.803c-0.324,-0.09 -0.383,-0.353 -0.182,-0.795c1.014,-1.95 1.703,-3.105 2.07,-3.473L51.84,26.72z" id="path_9"/><path fill="#D50000" d="M18.098,31.07c1.373,0.412 2.783,1.29 4.215,2.64v0.173c-1.32,2.317 -2.078,3.487 -2.287,3.518H19.5c-0.998,-0.143 -2.047,-0.787 -3.164,-1.935v-0.173C16.455,33.913 17.041,32.51 18.098,31.07z" id="path_10"/><path fill="#D50000" d="M24.773,31.422c1.289,0.293 2.58,1.058 3.869,2.287v0.173c0,0.646 -0.705,1.822 -2.107,3.518h-0.533c-0.816,0 -1.875,-0.645 -3.164,-1.935C23.16,33.65 23.805,32.3 24.773,31.422z" id="path_11"/><path fill="#D50000" d="M10.561,33.358h0.172l0.354,0.352c-0.938,2.078 -1.402,3.488 -1.402,4.216c0,3.427 3.277,5.422 9.84,5.978l2.107,0.353c2.115,0 5.271,-0.646 9.494,-1.936l2.461,-1.402c-0.818,-1.492 -1.35,-2.782 -1.584,-3.87l0.354,-3.338h0.352c1.402,1.463 2.107,4.043 2.107,7.733c0,3.547 -3.104,5.947 -9.314,7.207l-2.639,0.353c-9.842,0 -14.762,-3.225 -14.762,-9.668C8.1,36.642 8.918,34.648 10.561,33.358z" id="path_12"/></svg>