<svg id="vector" xmlns="http://www.w3.org/2000/svg" width="102" height="73" viewBox="0 0 102 73"><path fill="#213e95" d="M63.532,29.495c5.978,2.138 8.963,4.777 8.963,7.912l0.18,1.05c-0.502,4.103 -1.853,6.15 -4.05,6.15c0,0.383 -2.925,0.854 -8.782,1.41l-0.181,-0.525c0,-2.933 0.524,-4.395 1.583,-4.395c5.857,-0.473 9.082,-1.178 9.668,-2.115c-2.019,-1.958 -4.658,-3.54 -7.914,-4.74l-0.172,-0.885C62.917,30.785 63.149,29.495 63.532,29.495z" id="path_0"/><path fill="#213e95" d="M62.999,21.229c1.44,0.24 2.844,1.118 4.223,2.641v0.353c-0.877,2.34 -1.521,3.51 -1.935,3.51c-2.813,-0.96 -4.215,-1.726 -4.215,-2.28C61.072,24.365 61.718,22.962 62.999,21.229z" id="path_1"/><path fill="#213e95" d="M70.013,10.093c0.18,-0.105 0.232,0.06 0.157,0.487c-0.997,2.34 -2.528,3.975 -4.591,4.897l-7.582,3.803c-0.322,-0.09 -0.383,-0.353 -0.18,-0.795c1.012,-1.95 1.702,-3.105 2.07,-3.473L70.013,10.093z" id="path_2"/><path fill="#008046" d="M53.204,36.305c1.051,1.058 2.049,3.338 2.986,6.855l0.18,2.287c0,4.133 -2.056,6.945 -6.158,8.438l-1.23,0.173l-3.119,0.045l-3.029,-0.045l-0.174,-0.173v-0.18c0.375,-0.405 2.896,-1.635 7.553,-3.69c2.933,-1.665 4.516,-3.135 4.748,-4.395c-1.522,-3.248 -2.28,-5.123 -2.28,-5.625V39.47C52.68,37.362 52.853,36.305 53.204,36.305z" id="path_3"/><path fill="#008046" d="M53.753,24.088c0.322,0.555 0.697,2.137 1.125,4.747c-0.264,1.583 -0.953,2.37 -2.07,2.37h-0.15c-0.487,0 -1.117,-0.315 -1.912,-0.945c-0.541,0.953 -1.336,1.433 -2.371,1.433c-1.26,0 -1.889,-1.53 -1.889,-4.59c0.367,-1.163 0.682,-1.74 0.944,-1.74l0.149,0.158v2.699c0.219,0.938 0.488,1.402 0.795,1.402h0.639c0.66,0 1.08,-0.262 1.274,-0.787l-0.33,-2.37c0.128,-0.795 0.345,-1.215 0.638,-1.252h0.33c0.33,2.632 0.862,3.952 1.574,3.952h1.104v-0.157l-0.48,-3.158v-0.18C53.249,24.612 53.46,24.088 53.753,24.088z" id="path_4"/><path fill="#008046" d="M56.407,14.42c0.18,-0.105 0.232,0.06 0.158,0.487c-0.998,2.34 -2.527,3.975 -4.59,4.897l-7.584,3.803c-0.322,-0.09 -0.382,-0.353 -0.18,-0.795c1.013,-1.95 1.703,-3.105 2.07,-3.473L56.407,14.42z" id="path_5"/><path fill="#000001" d="M31.124,19.055c1.373,0.412 2.783,1.29 4.215,2.641v0.172c-1.313,2.317 -2.076,3.487 -2.279,3.518h-0.532c-0.99,-0.149 -2.048,-0.787 -3.165,-1.935v-0.173C29.481,21.897 30.067,20.495 31.124,19.055z" id="path_6"/><path fill="#000001" d="M37.8,19.407c1.29,0.293 2.58,1.058 3.869,2.288v0.172c0,0.646 -0.705,1.815 -2.107,3.518h-0.524c-0.825,0 -1.875,-0.645 -3.165,-1.935C36.194,21.635 36.839,20.285 37.8,19.407z" id="path_7"/><path fill="#000001" d="M40.68,27.912l0.181,0.525c-0.24,0.997 -1.291,2.167 -3.166,3.518c1.875,1.522 2.813,3.75 2.813,6.683v0.172c0,4.808 -1.994,7.208 -5.977,7.208c-3.166,-0.615 -4.748,-2.197 -4.748,-4.748v-0.172c0.119,-2.197 0.998,-4.545 2.64,-7.035c-1.522,-0.465 -2.287,-1.11 -2.287,-1.936c0,-2.197 0.173,-3.539 0.524,-4.042c1.583,0.442 3.346,1.32 5.273,2.64h0.18L40.68,27.912L40.68,27.912zM33.825,34.939c-1.403,1.41 -2.107,2.408 -2.107,2.993c0,1.814 1.289,2.872 3.869,3.165c1.343,-0.181 2.521,-0.646 3.51,-1.41C37.957,37.723 36.202,36.147 33.825,34.939z" id="path_8"/><path fill="#f06022" d="M42.284,54.08l0.181,0.157v0.48c-0.907,1.949 -2.175,3.314 -3.803,4.109c-5.04,2.737 -7.837,4.11 -8.393,4.11c-0.202,0 -0.308,-0.165 -0.308,-0.487c0.48,-1.86 1.537,-3.12 3.165,-3.78l9.007,-4.59H42.284z" id="path_9"/><path fill="#f06022" d="M41.032,50.128c0.21,0 0.307,0.149 0.307,0.457c-0.584,1.702 -2.316,3.232 -5.204,4.598l-6.66,3.645l-0.149,-0.157v-0.173c0.629,-2.228 1.635,-3.6 3.007,-4.109l7.433,-3.803L41.032,50.128z" id="path_10"/></svg>