<svg id="vector" xmlns="http://www.w3.org/2000/svg" width="102" height="73" viewBox="0 0 102 73"><path fill="#D50000" d="M70.553,25.861h0.353c1.2,0.263 2.49,0.96 3.87,2.107v0.173c-0.795,2.407 -1.493,3.689 -2.107,3.869c-1.793,-0.353 -3.136,-0.938 -4.043,-1.755v-0.18C68.625,28.696 69.271,27.294 70.553,25.861z" id="path_0"/><path fill="#D50000" d="M77.063,24.278h0.173c1.2,0.173 2.55,0.99 4.042,2.46v0.173l-2.107,3.69c-2.813,-0.908 -4.223,-1.665 -4.223,-2.28C75.855,25.621 76.56,24.278 77.063,24.278z" id="path_1"/><path fill="#D50000" d="M68.992,44.161c4.605,0.045 7.178,-0.817 7.74,-2.595c0,-0.615 -0.585,-2.138 -1.763,-4.567l0.533,-4.567h0.345c1.53,2.632 2.287,5.271 2.287,7.904v1.583c0,1.058 -0.255,2.167 -0.757,3.33c-0.503,1.162 -1.283,2.145 -2.325,2.932c-1.05,0.796 -3.067,1.125 -6.061,0.99V44.161z" id="path_2"/><path fill="#D50000" d="M80.13,14.829c0.181,-0.105 0.232,0.06 0.157,0.487c-0.997,2.34 -2.527,3.975 -4.59,4.897l-7.582,3.803c-0.322,-0.09 -0.383,-0.353 -0.181,-0.795c1.013,-1.95 1.703,-3.105 2.07,-3.473L80.13,14.829z" id="path_3"/><path fill="#213e95" d="M69.765,49.171l-1.979,-0.022c-1.095,4.822 -3.997,7.26 -8.7,7.32c-2.521,0.112 -3.78,0.067 -3.78,-0.135c0.232,-0.442 1.921,-1.29 5.056,-2.551c3.225,-2.047 5.167,-3.367 5.842,-3.952l0.181,-0.525l-3.075,-0.487c-2.243,-0.585 -3.503,-1.71 -3.78,-3.382v-0.353c0,-2.843 0.697,-4.658 2.107,-5.453l1.058,-0.173c2.078,0 3.772,1.448 5.093,4.351c0.84,0.293 1.5,0.436 1.979,0.42V49.171z" id="path_4"/><path fill="#213e95" d="M65.235,24.871c0.322,0.555 0.697,2.138 1.125,4.747c-0.263,1.583 -0.953,2.37 -2.07,2.37h-0.15c-0.487,0 -1.117,-0.314 -1.912,-0.944c-0.54,0.952 -1.335,1.433 -2.37,1.433c-1.26,0 -1.89,-1.53 -1.89,-4.591c0.367,-1.162 0.683,-1.739 0.945,-1.739l0.149,0.157v2.7c0.218,0.938 0.487,1.402 0.795,1.402h0.638c0.66,0 1.08,-0.263 1.274,-0.788l-0.329,-2.369c0.127,-0.795 0.345,-1.216 0.637,-1.253h0.33c0.33,2.633 0.862,3.952 1.575,3.952h1.103v-0.157l-0.48,-3.157v-0.18C64.732,25.396 64.942,24.871 65.235,24.871z" id="path_5"/><path fill="#213e95" d="M67.897,15.204c0.18,-0.105 0.232,0.06 0.157,0.487c-0.997,2.34 -2.527,3.975 -4.59,4.897l-7.583,3.803c-0.322,-0.09 -0.382,-0.353 -0.18,-0.795c1.013,-1.95 1.703,-3.105 2.07,-3.473L67.897,15.204z" id="path_6"/><path fill="#000001" d="M48.315,19.636c0.352,0 0.704,1.178 1.057,3.518l1.583,3.518l-0.705,4.043l0.525,9.848v1.574c-0.233,4.021 -0.818,6.36 -1.756,7.035l-0.172,-0.173l0.172,-2.64c0,-2.37 -0.765,-9.93 -2.287,-22.672C47.468,20.986 47.992,19.636 48.315,19.636z" id="path_7"/><path fill="#000001" d="M31.484,51.871c0.601,0 2.003,0.705 4.216,2.115c0,0.877 -0.698,2.28 -2.107,4.215c-2.813,-0.907 -4.216,-1.725 -4.216,-2.46C29.444,55.081 30.149,53.791 31.484,51.871z" id="path_8"/><path fill="#000001" d="M27.263,44.161c4.604,0.045 7.178,-0.817 7.739,-2.595c0,-0.615 -0.585,-2.138 -1.762,-4.567l0.532,-4.567h0.345c1.53,2.632 2.288,5.271 2.288,7.904v1.583c0,1.058 -0.256,2.167 -0.758,3.33c-0.503,1.162 -1.282,2.145 -2.325,2.932c-1.05,0.796 -3.067,1.125 -6.06,0.99V44.161z" id="path_9"/><path fill="#f06022" d="M41.07,20.454l0.18,0.157v0.479c-0.915,1.95 -2.183,3.315 -3.803,4.11c-5.04,2.737 -7.837,4.11 -8.393,4.11c-0.21,0 -0.314,-0.165 -0.314,-0.488c0.487,-1.859 1.545,-3.119 3.165,-3.779l9.015,-4.59H41.07z" id="path_10"/><path fill="#f06022" d="M39.817,16.501c0.202,0 0.308,0.15 0.308,0.457c-0.585,1.703 -2.317,3.233 -5.205,4.598l-6.66,3.646l-0.149,-0.157v-0.173c0.63,-2.228 1.627,-3.6 3.007,-4.11l7.425,-3.803L39.817,16.501z" id="path_11"/><path fill="#213e95" d="M30.277,49.171c-3.412,0.203 -5.896,-1.372 -7.447,-4.725c-0.75,-1.245 -1.447,-9.638 -2.107,-25.178v-0.353c0.435,-2.58 1.08,-3.87 1.927,-3.87l0.886,-0.172c1.08,0 2.723,0.353 4.92,1.05v0.353c-0.12,0.353 -0.473,0.532 -1.058,0.532h-2.985c-0.614,0 -1.199,0.345 -1.763,1.05c0.548,13.493 1.343,21.308 2.4,23.445c1.05,2.138 2.798,3.09 5.228,2.857V49.171z" id="path_12"/></svg>