<svg id="vector" xmlns="http://www.w3.org/2000/svg" width="102" height="73" viewBox="0 0 102 73"><path fill="#000001" d="M38.314,4.873c1.41,2.398 2.114,4.748 2.114,7.027c-0.614,4.334 -1.38,6.502 -2.287,6.502l-0.173,-0.172v-0.174l0.346,-2.287v-0.18c0,-1.402 -0.586,-3.51 -1.756,-6.322V8.916C37.145,6.215 37.729,4.873 38.314,4.873z" id="path_0"/><path fill="#D50000" d="M71.258,31.789h0.353c1.2,0.264 2.49,0.961 3.87,2.107v0.174c-0.795,2.408 -1.493,3.689 -2.107,3.869c-1.793,-0.352 -3.136,-0.938 -4.043,-1.754v-0.18C69.33,34.625 69.976,33.223 71.258,31.789z" id="path_1"/><path fill="#D50000" d="M77.768,30.207h0.173c1.2,0.174 2.55,0.99 4.042,2.461v0.172l-2.107,3.689c-2.813,-0.906 -4.223,-1.664 -4.223,-2.279C76.561,31.551 77.265,30.207 77.768,30.207z" id="path_2"/><path fill="#D50000" d="M69.697,50.09c4.605,0.045 7.178,-0.816 7.74,-2.596c0,-0.613 -0.585,-2.137 -1.763,-4.566l0.533,-4.568h0.345c1.53,2.633 2.287,5.273 2.287,7.906v1.582c0,1.057 -0.255,2.168 -0.757,3.33c-0.503,1.162 -1.283,2.145 -2.325,2.932c-1.05,0.795 -3.067,1.125 -6.061,0.99V50.09z" id="path_3"/><path fill="#D50000" d="M80.835,20.758c0.181,-0.105 0.232,0.061 0.157,0.486c-0.997,2.34 -2.527,3.977 -4.59,4.898l-7.582,3.803c-0.322,-0.09 -0.383,-0.354 -0.181,-0.795c1.013,-1.951 1.703,-3.105 2.07,-3.473L80.835,20.758z" id="path_4"/><path fill="#213e95" d="M45.195,48.439c1.439,0 2.49,0 3.165,0h0.705c2.106,-0.277 5.257,-1.178 9.449,-2.699c-1.409,-1.178 -3.577,-2.055 -6.502,-2.641c-1.732,0 -2.903,0.818 -3.518,2.461c-0.218,0.486 -0.413,0.615 -0.585,0.381c-0.165,-0.225 -0.21,-0.523 -0.12,-0.906c1.058,-3.547 2.46,-5.318 4.223,-5.318h1.229c1.17,0 3.285,0.66 6.338,1.98c3.053,1.313 5.686,1.846 7.897,1.582c0.277,0 0.397,0.174 0.353,0.525c-0.473,2.926 -1.35,4.395 -2.64,4.395l-0.878,0.174v0.352c0.442,1.215 2.468,1.658 6.09,1.32v4.988c-5.242,0.277 -7.859,-1.764 -7.845,-6.129c-1.875,0.277 -4.418,1.148 -7.628,2.625c-3.21,1.471 -6.449,2.102 -9.734,1.898V48.439z" id="path_5"/><path fill="#213e95" d="M53.963,54.133c2.46,1.23 3.697,2.287 3.697,3.164c-1.178,2.311 -1.875,3.488 -2.115,3.51h-0.353c-1.8,-0.906 -2.91,-1.725 -3.337,-2.459C52.268,57.02 52.973,55.609 53.963,54.133z" id="path_6"/><path fill="#213e95" d="M63.848,25.131c0.18,-0.105 0.232,0.059 0.157,0.486c-0.997,2.34 -2.527,3.975 -4.59,4.898l-7.583,3.803c-0.322,-0.09 -0.382,-0.354 -0.18,-0.795c1.013,-1.951 1.702,-3.105 2.07,-3.473L63.848,25.131z" id="path_7"/><path fill="#000001" d="M40.447,58.459c-1.508,-0.584 -3.675,-1.109 -6.502,-1.582l-0.173,-0.172v-0.18c0.353,-3.045 0.817,-4.568 1.402,-4.568c1.643,-0.457 2.521,-1.268 2.64,-2.438v-0.727c-0.938,-5.055 -1.41,-10.035 -1.41,-14.941c0,-1.791 0.473,-3.367 1.41,-4.746h0.173c0.195,0 0.36,3.689 0.51,11.076c0,1.357 0.638,3.398 1.928,6.105c0.907,1.072 2.197,1.809 3.87,2.221v4.986c-2.107,-0.584 -3.803,-1.799 -5.078,-3.645c-0.06,1.373 -0.473,2.377 -1.252,3.008c2.857,0.383 4.29,1.32 4.29,2.813l0.128,1.035c0,0.539 -0.113,1.125 -0.354,1.754H40.447z" id="path_8"/><path fill="#000001" d="M41.564,18.598c0.323,0.555 0.698,2.137 1.125,4.748c-0.262,1.582 -0.952,2.369 -2.069,2.369h-0.149c-0.488,0 -1.118,-0.314 -1.913,-0.945c-0.54,0.953 -1.335,1.434 -2.37,1.434c-1.26,0 -1.891,-1.531 -1.891,-4.59c0.368,-1.164 0.684,-1.74 0.945,-1.74l0.15,0.156v2.701c0.217,0.938 0.487,1.402 0.795,1.402h0.637c0.66,0 1.08,-0.264 1.275,-0.787l-0.33,-2.371c0.128,-0.795 0.346,-1.215 0.639,-1.252h0.329c0.33,2.633 0.862,3.953 1.575,3.953h1.103v-0.158l-0.48,-3.158v-0.18C41.063,19.123 41.272,18.598 41.564,18.598z" id="path_9"/><path fill="#D50000" d="M42.607,57.756c-0.705,2.443 -2.842,5.145 -6.42,8.084c-2.152,1.529 -4.673,2.287 -7.553,2.287c-1.612,-0.367 -2.768,-0.734 -3.465,-1.094c-0.697,-0.367 -1.53,-1.178 -2.513,-2.424c-1.763,-2.34 -2.64,-4.506 -2.64,-6.502c0,-4.748 1.522,-8.551 4.574,-11.422c0.541,-0.383 0.773,-0.322 0.698,0.172c0,0.428 -0.878,2.07 -2.633,4.92c-0.705,1.426 -1.058,2.775 -1.058,4.043c0,1.822 1.29,3.811 3.87,5.977c1.83,1.014 3.817,1.426 5.978,1.23c2.543,0 5.707,-1.756 9.487,-5.271H42.607z" id="path_10"/></svg>