<svg id="vector" xmlns="http://www.w3.org/2000/svg" width="102" height="73" viewBox="0 0 102 73"><path fill="#D50000" d="M56.493,49.396H57.4h0.345h0.885c3.187,-0.232 5.123,-0.968 5.797,-2.197c0,-0.968 -1.11,-3.601 -3.337,-7.913l-0.353,-1.402c-0.383,-1.845 -0.368,-3.54 0.045,-5.077c0.405,-1.538 1.215,-2.603 2.415,-3.188c2.783,-1.875 8.115,-4.98 15.997,-9.315l0.173,0.18v0.346c-1.695,2.67 -2.985,5.13 -3.862,7.387h-0.353l-0.18,-0.877v-0.885l0.18,-0.173v-0.172h-0.18c-6.533,3.771 -10.927,6.532 -13.185,8.257v0.18c2.467,4.98 3.81,8.783 4.05,11.423c0,1.875 -0.645,3.87 -1.935,5.978c-1.23,1.643 -3.69,2.46 -7.388,2.46h-0.022V49.396z" id="path_0"/><path fill="#D50000" d="M70.735,17.551c0.18,-0.105 0.232,0.06 0.157,0.487c-0.998,2.34 -2.527,3.975 -4.59,4.897l-7.583,3.803c-0.322,-0.09 -0.382,-0.353 -0.18,-0.795c1.013,-1.95 1.703,-3.105 2.07,-3.473L70.735,17.551z" id="path_1"/><path fill="#008046" d="M56.71,54.42c-0.158,0.016 -0.322,0.022 -0.48,0.022h-0.885c-1.373,0 -2.31,-0.112 -2.813,-0.352c-1.02,3.944 -2.212,6.359 -3.577,7.245c-1.365,0.885 -4.448,1.635 -9.248,2.249h-0.353c-1.058,-0.119 -1.583,-0.292 -1.583,-0.524c0,-0.353 0.877,-0.766 2.632,-1.23c6.915,-3.165 10.373,-5.452 10.373,-6.854c0,-0.585 -0.817,-1.936 -2.46,-4.043c-0.353,-0.592 -0.525,-1.35 -0.525,-2.287v-1.755c0,-0.885 0.172,-1.351 0.525,-1.41c1.522,2.332 4.103,3.63 7.732,3.907c0.225,0 0.442,0 0.66,-0.015V54.42z" id="path_2"/><path fill="#008046" d="M49.945,32.715c0.322,0.556 0.698,2.138 1.125,4.748c-0.263,1.582 -0.953,2.37 -2.07,2.37h-0.15c-0.487,0 -1.117,-0.315 -1.913,-0.945c-0.54,0.953 -1.334,1.433 -2.37,1.433c-1.26,0 -1.89,-1.53 -1.89,-4.59c0.367,-1.163 0.683,-1.74 0.945,-1.74l0.15,0.157v2.7c0.217,0.938 0.487,1.402 0.795,1.402h0.637c0.66,0 1.08,-0.263 1.275,-0.787l-0.33,-2.37c0.128,-0.795 0.345,-1.215 0.638,-1.253h0.33c0.33,2.633 0.863,3.953 1.575,3.953h1.103v-0.157l-0.48,-3.158v-0.18C49.443,33.24 49.653,32.715 49.945,32.715z" id="path_3"/><path fill="#008046" d="M52.6,23.048c0.18,-0.105 0.232,0.06 0.157,0.487c-0.998,2.34 -2.527,3.976 -4.59,4.897l-7.583,3.803c-0.322,-0.09 -0.382,-0.353 -0.18,-0.795c1.013,-1.95 1.703,-3.105 2.07,-3.473L52.6,23.048z" id="path_4"/><path fill="#000001" d="M26.065,28.538c1.373,0.412 2.783,1.29 4.215,2.64v0.173c-1.313,2.317 -2.078,3.487 -2.28,3.518h-0.532c-0.99,-0.15 -2.048,-0.788 -3.166,-1.936v-0.172C24.422,31.381 25.007,29.978 26.065,28.538z" id="path_5"/><path fill="#000001" d="M32.74,28.891c1.29,0.292 2.58,1.058 3.87,2.287v0.173c0,0.645 -0.705,1.814 -2.107,3.518h-0.525c-0.825,0 -1.875,-0.646 -3.165,-1.936C31.135,31.118 31.78,29.768 32.74,28.891z" id="path_6"/><path fill="#000001" d="M35.62,37.396l0.18,0.525c-0.24,0.997 -1.29,2.167 -3.166,3.518c1.875,1.522 2.813,3.75 2.813,6.682v0.173c0,4.808 -1.995,7.207 -5.977,7.207c-3.165,-0.614 -4.748,-2.197 -4.748,-4.747V50.58c0.12,-2.197 0.998,-4.545 2.64,-7.035c-1.522,-0.465 -2.288,-1.109 -2.288,-1.935c0,-2.197 0.173,-3.54 0.525,-4.042c1.583,0.442 3.345,1.319 5.272,2.64h0.18L35.62,37.396L35.62,37.396zM28.765,44.423c-1.403,1.41 -2.108,2.407 -2.108,2.992c0,1.815 1.291,2.873 3.871,3.165c1.342,-0.18 2.52,-0.645 3.51,-1.41C32.897,47.205 31.143,45.631 28.765,44.423z" id="path_7"/><path fill="#f06022" d="M31.998,12.346c1.343,0 2.137,0.893 2.37,2.678v0.487c-0.248,2.984 -1.245,4.935 -2.985,5.843c-3.03,1.904 -5.782,2.856 -8.242,2.856c-0.09,-0.015 -0.172,-0.037 -0.263,-0.067c-0.09,-0.029 -0.157,-0.074 -0.21,-0.135c-0.053,-0.052 -0.045,-0.09 0.015,-0.104c0.127,-0.293 2.34,-1.463 6.63,-3.495V20.25c-1.155,-0.727 -1.732,-1.732 -1.732,-3.007C28.27,13.973 29.74,12.346 31.998,12.346L31.998,12.346zM29.163,15.66v0.15c0,1.087 0.743,1.725 2.22,1.912h0.458c0.563,0 0.878,-0.157 0.945,-0.479c0,-1.478 -0.788,-2.22 -2.37,-2.22C29.583,15.21 29.163,15.428 29.163,15.66z" id="path_8"/><path fill="#f06022" d="M28.525,9.488c0.338,-0.165 0.495,-0.053 0.48,0.33c-1.695,1.875 -3.03,3.652 -3.998,5.34c-0.277,0.66 -0.435,1.199 -0.472,1.635c-0.038,0.435 0.075,0.9 0.345,1.396h0.33c0.127,-0.735 0.39,-1.103 0.788,-1.103c0.473,0.21 0.735,0.42 0.788,0.637v0.308c0.03,1.673 -0.442,2.678 -1.425,3.016h-0.787c-1.058,-0.21 -1.583,-1.426 -1.583,-3.652C22.99,14.686 24.835,12.053 28.525,9.488z" id="path_9"/></svg>