<svg id="vector" xmlns="http://www.w3.org/2000/svg" width="102" height="73" viewBox="0 0 102 73"><path fill="#213e95" d="M71.884,51.227h0.907h0.345h0.885c3.187,-0.232 5.123,-0.968 5.797,-2.197c0,-0.968 -1.11,-3.601 -3.338,-7.913l-0.353,-1.402c-0.382,-1.845 -0.367,-3.54 0.045,-5.077c0.405,-1.538 1.215,-2.603 2.415,-3.188c2.782,-1.874 8.115,-4.979 15.997,-9.314l0.173,0.18v0.346c-1.695,2.67 -2.985,5.13 -3.863,7.387h-0.353l-0.18,-0.877v-0.885l0.18,-0.173v-0.173h-0.18c-6.533,3.772 -10.928,6.533 -13.185,8.258v0.18c2.467,4.98 3.81,8.783 4.05,11.423c0,1.875 -0.645,3.87 -1.935,5.978c-1.23,1.643 -3.69,2.46 -7.388,2.46h-0.022V51.227z" id="path_0"/><path fill="#213e95" d="M86.126,19.389c0.18,-0.104 0.232,0.061 0.157,0.487c-0.998,2.34 -2.527,3.976 -4.59,4.898l-7.583,3.802c-0.322,-0.09 -0.382,-0.353 -0.18,-0.795c1.013,-1.95 1.703,-3.104 2.07,-3.473L86.126,19.389z" id="path_1"/><path fill="#000001" d="M60.829,28.284c2.467,1.229 3.697,2.287 3.697,3.164c-1.177,2.318 -1.875,3.488 -2.115,3.518h-0.353c-1.8,-0.907 -2.91,-1.725 -3.337,-2.46C59.134,31.171 59.839,29.769 60.829,28.284z" id="path_2"/><path fill="#000001" d="M72.716,56.259c-3.015,-0.202 -5.752,-1.853 -8.212,-4.942h-0.18c-1.05,6.09 -3.397,9.135 -7.027,9.143h-0.533c-1.575,-0.008 -3.105,-1.41 -4.567,-4.223c-1.17,-3.953 -1.755,-6.945 -1.755,-8.963v-1.41c0,-0.877 0.172,-1.35 0.525,-1.402c0.495,0.263 1.087,2.183 1.77,5.768c0.683,3.577 2.085,5.288 4.208,5.13c4.103,-0.675 6.27,-3.022 6.502,-7.035l-1.583,-5.444v-1.936c0.06,-2.347 0.292,-3.518 0.705,-3.518c0.232,0.525 0.412,1.058 0.525,1.583l2.46,7.732c1.935,3.135 4.328,4.62 7.163,4.44V56.259z" id="path_3"/><path fill="#000001" d="M62.981,17.431c0.323,0.556 0.698,2.138 1.125,4.748c-0.263,1.582 -0.953,2.37 -2.07,2.37h-0.15c-0.488,0 -1.117,-0.315 -1.913,-0.945c-0.54,0.953 -1.335,1.433 -2.37,1.433c-1.26,0 -1.89,-1.53 -1.89,-4.59c0.367,-1.163 0.683,-1.74 0.945,-1.74l0.15,0.157v2.7c0.218,0.938 0.488,1.402 0.795,1.402h0.638c0.66,0 1.08,-0.263 1.275,-0.787l-0.33,-2.37c0.128,-0.795 0.345,-1.215 0.638,-1.252h0.33c0.33,2.632 0.862,3.952 1.575,3.952h1.103v-0.157l-0.48,-3.158v-0.18C62.479,17.956 62.689,17.431 62.981,17.431z" id="path_4"/><path fill="#000001" d="M65.644,7.764c0.18,-0.104 0.232,0.06 0.157,0.487c-0.998,2.34 -2.527,3.976 -4.59,4.897l-7.583,3.803c-0.322,-0.09 -0.382,-0.353 -0.18,-0.795c1.012,-1.95 1.702,-3.104 2.07,-3.473L65.644,7.764z" id="path_5"/><path fill="#213e95" d="M41.186,58.937c0.6,0 2.002,0.705 4.215,2.114c0,0.878 -0.698,2.28 -2.107,4.216c-2.813,-0.908 -4.215,-1.726 -4.215,-2.46C39.146,62.146 39.851,60.856 41.186,58.937z" id="path_6"/><path fill="#213e95" d="M36.964,51.227c4.605,0.045 7.177,-0.817 7.74,-2.596c0,-0.614 -0.585,-2.137 -1.763,-4.567l0.533,-4.567h0.345c1.53,2.633 2.288,5.272 2.288,7.905v1.582c0,1.058 -0.255,2.168 -0.758,3.33c-0.502,1.163 -1.282,2.146 -2.325,2.933c-1.05,0.795 -3.067,1.125 -6.06,0.99V51.227z" id="path_7"/><path fill="#213e95" d="M48.372,27.188c0.18,-0.104 0.232,0.061 0.157,0.487c-0.998,2.34 -2.527,3.976 -4.59,4.898l-7.583,3.802c-0.322,-0.09 -0.382,-0.353 -0.18,-0.795c1.013,-1.95 1.703,-3.104 2.07,-3.473L48.372,27.188z" id="path_8"/><path fill="#000001" d="M37.758,56.259c-2.242,-0.18 -4.267,-1.755 -6.09,-4.725c-2.692,3.277 -6.563,4.92 -11.595,4.92h-1.41c-5.445,0 -9.195,-2.341 -11.25,-7.027l-0.172,-1.058v-1.583c0,-1.695 0.757,-3.63 2.28,-5.798h0.18l0.353,0.353v0.878l-0.885,2.813c0,3.075 2.58,5.183 7.74,6.33l3.165,0.173c5.475,0 9.81,-1.875 13.005,-5.625c0.173,0 0.353,0.232 0.525,0.705l-0.172,1.229c0.6,2.213 2.04,3.322 4.327,3.338V56.259z" id="path_9"/><path fill="#000001" d="M17.434,39.579h0.353c1.2,0.262 2.49,0.967 3.87,2.107v0.18c-0.795,2.399 -1.5,3.69 -2.115,3.87c-1.785,-0.353 -3.135,-0.938 -4.042,-1.763v-0.173C15.499,42.421 16.144,41.019 17.434,39.579z" id="path_10"/><path fill="#000001" d="M23.936,37.996h0.18c1.2,0.18 2.55,0.998 4.042,2.46v0.181l-2.115,3.689c-2.813,-0.907 -4.215,-1.673 -4.215,-2.287C22.736,39.347 23.441,37.996 23.936,37.996z" id="path_11"/><path fill="#000001" d="M20.659,25.344h1.74c2.107,0 3.165,0.787 3.165,2.37c-1.365,3.689 -3.022,5.647 -4.972,5.872l-2.303,0.308c-0.368,0 -0.518,-0.104 -0.465,-0.308c1.86,-0.982 3.6,-2.152 5.212,-3.495c-0.57,-0.532 -1.2,-0.795 -1.89,-0.795h-0.487l-1.89,0.158l-0.15,-0.158v-0.307C19.511,26.559 20.194,25.344 20.659,25.344z" id="path_12"/></svg>