<svg id="vector" xmlns="http://www.w3.org/2000/svg" width="163" height="73" viewBox="0 0 163.199 72.959"><path fill="#000001" d="M150.15,19.099h0.352c1.201,0.263 2.49,0.96 3.871,2.107v0.173c-0.795,2.407 -1.492,3.69 -2.107,3.87c-1.793,-0.353 -3.135,-0.938 -4.043,-1.755v-0.18C148.223,21.935 148.867,20.531 150.15,19.099z" id="path_0"/><path fill="#000001" d="M156.66,17.517h0.172c1.201,0.172 2.551,0.99 4.043,2.46v0.173l-2.107,3.689c-2.813,-0.907 -4.223,-1.665 -4.223,-2.279C155.453,18.859 156.158,17.517 156.66,17.517z" id="path_1"/><path fill="#000001" d="M148.59,37.399c4.605,0.045 7.178,-0.817 7.74,-2.596c0,-0.614 -0.586,-2.137 -1.762,-4.567l0.531,-4.567h0.346c1.529,2.633 2.287,5.272 2.287,7.905v1.582c0,1.058 -0.256,2.168 -0.758,3.33s-1.281,2.146 -2.324,2.933c-1.051,0.795 -3.068,1.125 -6.061,0.99V37.399z" id="path_2"/><path fill="#000001" d="M154.875,4.834c1.801,0 2.699,1.11 2.699,3.322c0,3.525 -3.006,6.533 -9.029,9.008c-0.863,0.263 -0.967,-0.053 -0.307,-0.945c0.164,-0.337 1.582,-1.395 4.26,-3.165v-0.149c-1.156,-0.473 -1.732,-1.478 -1.732,-3.016c0.764,-3.367 1.979,-5.055 3.645,-5.055H154.875L154.875,4.834zM152.189,8.637c0,0.938 0.795,1.515 2.379,1.74h0.307c0.586,0 0.961,-0.218 1.117,-0.638c0,-0.952 -0.689,-1.695 -2.063,-2.22C153.33,7.52 152.752,7.895 152.189,8.637z" id="path_3"/><path fill="#0992d1" d="M140.16,44.344c0.6,0 2.01,0.705 4.223,2.107c0,0.878 -0.705,2.288 -2.115,4.223c-2.813,-0.915 -4.215,-1.732 -4.215,-2.468C138.127,47.554 138.826,46.264 140.16,44.344z" id="path_4"/><path fill="#0992d1" d="M133.762,37.399c1.254,0.015 2.025,-0.008 2.334,-0.067c2.639,-0.803 4.439,-2.513 5.406,-5.115c0.143,-0.503 0.436,-0.563 0.879,-0.181c0.232,0.203 0.412,1.028 0.523,2.46c1.598,2.153 3.594,3.12 5.979,2.903h0.465v5.01h-0.113c-3.734,-0.173 -6.486,-1.875 -8.264,-5.101h-0.174c-1.244,2.626 -2.887,4.238 -4.92,4.838c-0.615,0.173 -1.318,0.263 -2.115,0.263V37.399z" id="path_5"/><path fill="#0992d1" d="M140.197,15.672h1.74c2.107,0 3.166,0.787 3.166,2.37c-1.365,3.689 -3.023,5.647 -4.973,5.872l-2.303,0.308c-0.367,0 -0.518,-0.105 -0.465,-0.308c1.859,-0.982 3.6,-2.152 5.211,-3.495c-0.568,-0.532 -1.199,-0.795 -1.889,-0.795h-0.488l-1.889,0.157l-0.15,-0.157v-0.308C139.051,16.887 139.732,15.672 140.197,15.672z" id="path_6"/><path fill="#213e95" d="M129.016,47.419c-1.508,-0.585 -3.676,-1.11 -6.504,-1.582l-0.172,-0.173v-0.18c0.354,-3.045 0.818,-4.567 1.402,-4.567c1.643,-0.458 2.52,-1.269 2.641,-2.438v-0.729c-0.938,-5.055 -1.41,-10.034 -1.41,-14.939c0,-1.792 0.473,-3.367 1.41,-4.747h0.172c0.195,0 0.359,3.689 0.51,11.077c0,1.357 0.639,3.397 1.928,6.104c0.908,1.073 2.197,1.808 3.869,2.221v4.987c-2.105,-0.585 -3.801,-1.8 -5.076,-3.646c-0.061,1.373 -0.473,2.378 -1.252,3.008c2.857,0.383 4.289,1.32 4.289,2.813l0.127,1.035c0,0.54 -0.111,1.125 -0.352,1.755H129.016z" id="path_7"/><path fill="#213e95" d="M133.193,8.066c0.18,-0.104 0.232,0.061 0.156,0.487c-0.998,2.34 -2.527,3.976 -4.59,4.898l-7.582,3.802c-0.322,-0.09 -0.383,-0.353 -0.18,-0.795c1.012,-1.95 1.701,-3.104 2.07,-3.473L133.193,8.066z" id="path_8"/><path fill="#000001" d="M131.174,46.714c-0.703,2.445 -2.842,5.146 -6.418,8.085c-2.154,1.53 -4.674,2.288 -7.553,2.288c-1.613,-0.368 -2.768,-0.735 -3.465,-1.096c-0.699,-0.367 -1.531,-1.177 -2.514,-2.422c-1.762,-2.34 -2.639,-4.508 -2.639,-6.503c0,-4.747 1.521,-8.55 4.574,-11.422c0.539,-0.383 0.771,-0.323 0.697,0.172c0,0.428 -0.877,2.07 -2.633,4.92c-0.705,1.425 -1.057,2.775 -1.057,4.043c0,1.822 1.289,3.81 3.869,5.978c1.83,1.012 3.818,1.425 5.979,1.229c2.541,0 5.707,-1.755 9.486,-5.272H131.174z" id="path_9"/><path fill="#D50000" d="M102.877,19.467c0.352,0 0.705,1.177 1.057,3.518l1.584,3.518l-0.705,4.042l0.525,9.848v1.575c-0.232,4.02 -0.818,6.359 -1.756,7.035l-0.172,-0.173l0.172,-2.64c0,-2.37 -0.766,-9.931 -2.287,-22.673C102.029,20.816 102.555,19.467 102.877,19.467z" id="path_10"/><path fill="#000001" d="M87.367,42.874c0.201,0.015 0.42,0.022 0.66,0.022h1.664c1.764,-0.292 3.105,-0.907 4.043,-1.845l-2.107,-16.703c0.525,-3.165 0.998,-4.739 1.402,-4.739l2.287,5.272c0,0.817 -0.293,2.047 -0.877,3.689l0.877,9.487v2.641c-0.66,2.797 -1.545,4.755 -2.654,5.865c-0.84,0.892 -1.822,1.342 -2.971,1.342h-1.492c-0.293,0 -0.57,-0.007 -0.832,-0.022V42.874z" id="path_11"/><path fill="#213e95" d="M88.92,47.906c-0.277,0 -0.615,0 -1.014,0c-1.566,-0.015 -3.254,-1.192 -5.076,-3.54c-0.699,2.58 -1.928,3.87 -3.691,3.87h-0.172c-1.492,0 -2.723,-0.877 -3.689,-2.64h-0.18c-1.051,2.115 -2.326,3.075 -3.826,2.88c-2.783,0.015 -4.432,-1.298 -4.965,-3.93c-1.957,2.295 -4.064,3.42 -6.307,3.359h-0.285v-5.01h0.09c3.547,-0.12 6.18,-1.327 7.912,-3.623c0.232,0 0.354,0.173 0.354,0.525l-0.182,1.23c0.938,1.875 2.168,2.813 3.691,2.813c1.439,0 2.902,-1.402 4.395,-4.215h0.18l0.525,0.524v1.23c0,1.109 0.824,1.755 2.459,1.935h0.354c1.521,0 2.932,-1.522 4.223,-4.575h0.172c0.232,0 0.354,0.532 0.354,1.583c0.645,1.777 2.203,2.632 4.68,2.572V47.906z" id="path_12"/><path fill="#213e95" d="M78.104,22.414c0.324,0.555 0.699,2.138 1.125,4.747c-0.262,1.583 -0.951,2.37 -2.068,2.37h-0.15c-0.488,0 -1.117,-0.314 -1.912,-0.945c-0.541,0.953 -1.336,1.434 -2.371,1.434c-1.26,0 -1.891,-1.53 -1.891,-4.591c0.369,-1.162 0.684,-1.739 0.945,-1.739l0.15,0.157v2.7c0.217,0.938 0.488,1.402 0.795,1.402h0.637c0.66,0 1.08,-0.263 1.275,-0.788l-0.33,-2.37c0.129,-0.794 0.346,-1.215 0.639,-1.252h0.33c0.33,2.633 0.861,3.952 1.574,3.952h1.104v-0.157l-0.48,-3.157v-0.18C77.602,22.939 77.813,22.414 78.104,22.414z" id="path_13"/><path fill="#213e95" d="M80.768,12.747c0.18,-0.105 0.232,0.06 0.156,0.487c-0.998,2.34 -2.527,3.975 -4.59,4.897l-7.582,3.803c-0.322,-0.091 -0.383,-0.353 -0.18,-0.795c1.012,-1.95 1.701,-3.105 2.07,-3.473L80.768,12.747z" id="path_14"/><path fill="#008046" d="M60.021,47.922c-0.158,0.015 -0.322,0.022 -0.48,0.022h-0.885c-1.373,0 -2.309,-0.113 -2.813,-0.353c-1.02,3.944 -2.213,6.36 -3.576,7.245c-1.365,0.885 -4.449,1.635 -9.248,2.25h-0.354c-1.057,-0.12 -1.582,-0.293 -1.582,-0.525c0,-0.353 0.877,-0.765 2.633,-1.229c6.914,-3.166 10.373,-5.453 10.373,-6.855c0,-0.585 -0.818,-1.935 -2.461,-4.042c-0.352,-0.593 -0.525,-1.351 -0.525,-2.288v-1.755c0,-0.885 0.174,-1.35 0.525,-1.41c1.523,2.333 4.104,3.63 7.732,3.907c0.225,0 0.443,0 0.66,-0.015V47.922z" id="path_15"/><path fill="#008046" d="M47.691,7.451l0.172,0.173c0,2.378 -1.875,4.838 -5.625,7.388c-2.197,0.938 -4.424,1.402 -6.674,1.402l-1.584,-0.173c-0.592,2.228 -0.996,3.338 -1.229,3.338c-0.27,0 -0.615,-0.938 -1.059,-2.813c-0.816,-1.11 -2.166,-2.521 -4.043,-4.215v-0.353c0.414,-2.348 0.879,-3.518 1.404,-3.518c2.287,2.46 5.1,3.689 8.438,3.689C41.361,12.371 44.76,10.729 47.691,7.451z" id="path_16"/><path fill="#008046" d="M37.979,19.467c0.354,0 0.705,1.177 1.051,3.518l1.582,3.518l-0.697,4.042l0.525,9.848v1.575c-0.232,4.02 -0.818,6.359 -1.756,7.035l-0.18,-0.173l0.18,-2.64c0,-2.37 -0.764,-9.931 -2.287,-22.673C37.131,20.816 37.656,19.467 37.979,19.467z" id="path_17"/><path fill="#000001" d="M27.27,49.294c1.619,0 3.254,0.817 4.896,2.445c0.158,0.277 0.098,0.495 -0.188,0.66c-0.285,0.157 -0.547,0.12 -0.779,-0.113c-0.705,-0.63 -1.703,-0.944 -2.986,-0.944h-0.555c-0.539,0 -1.17,0.225 -1.889,0.683c0,1.319 1.582,2.13 4.746,2.438l3.143,-1.23l0.135,0.42c0,1.478 -1.822,2.798 -5.451,3.953l-5.033,2.857l-0.525,0.127c-0.201,0.045 -0.344,-0.045 -0.42,-0.263c0,-0.787 1.141,-1.882 3.406,-3.27v-0.135c-1.096,-0.601 -1.643,-1.463 -1.643,-2.595C24.637,50.975 25.686,49.294 27.27,49.294z" id="path_18"/><path fill="#000001" d="M21.043,42.885c4.605,0.337 7.178,-0.806 7.74,-2.583c0,-0.615 -0.584,-2.138 -1.762,-4.567l0.533,-4.567h0.344c1.529,2.632 2.287,5.272 2.287,7.904v1.583c0,1.057 -0.254,2.167 -0.758,3.33c-0.502,1.162 -1.281,2.145 -2.324,2.932c-1.051,0.796 -3.066,1.126 -6.061,0.99V42.885z" id="path_19"/><path fill="#000001" d="M33.434,58.938c0.18,-0.098 0.232,0.06 0.158,0.487c-0.998,2.34 -2.527,3.975 -4.59,4.897l-7.584,3.803c-0.322,-0.09 -0.381,-0.353 -0.18,-0.787c1.014,-1.95 1.703,-3.105 2.07,-3.473L33.434,58.938z" id="path_20"/><path fill="#008046" d="M21.262,47.922c-0.158,0.015 -0.322,0.022 -0.48,0.022h-0.885c-1.373,0 -2.311,-0.113 -2.813,-0.353c-1.02,3.944 -2.213,6.36 -3.578,7.245s-4.447,1.635 -9.248,2.25H3.906c-1.059,-0.12 -1.582,-0.293 -1.582,-0.525c0,-0.353 0.877,-0.765 2.631,-1.229c6.916,-3.166 10.373,-5.453 10.373,-6.855c0,-0.585 -0.816,-1.935 -2.459,-4.042c-0.354,-0.593 -0.525,-1.351 -0.525,-2.288v-1.755c0,-0.885 0.172,-1.35 0.525,-1.41c1.521,2.333 4.102,3.63 7.732,3.907c0.225,0 0.441,0 0.66,-0.015V47.922z" id="path_21"/><path fill="#008046" d="M12.695,23.486c1.801,0 2.701,1.11 2.701,3.323c0,3.524 -3.008,6.532 -9.031,9.007c-0.861,0.263 -0.967,-0.053 -0.307,-0.944c0.164,-0.338 1.582,-1.396 4.26,-3.166v-0.149c-1.154,-0.473 -1.732,-1.478 -1.732,-3.015c0.766,-3.368 1.98,-5.056 3.645,-5.056H12.695L12.695,23.486zM10.012,27.289c0,0.938 0.795,1.515 2.377,1.74h0.307c0.586,0 0.961,-0.218 1.117,-0.638c0,-0.952 -0.689,-1.695 -2.063,-2.22C11.15,26.172 10.574,26.547 10.012,27.289z" id="path_22"/><path fill="#008046" d="M56.613,19.13c0.18,-0.105 0.232,0.06 0.158,0.487c-0.998,2.34 -2.527,3.975 -4.59,4.897l-7.584,3.803c-0.322,-0.09 -0.381,-0.353 -0.18,-0.795c1.014,-1.95 1.703,-3.105 2.07,-3.473L56.613,19.13z" id="path_23"/></svg>