<svg id="vector" xmlns="http://www.w3.org/2000/svg" width="102" height="73" viewBox="0 0 102 73"><path fill="#D50000" d="M68.652,32.555h0.352c1.201,0.264 2.49,0.961 3.871,2.107v0.174c-0.795,2.406 -1.494,3.689 -2.107,3.869c-1.793,-0.352 -3.137,-0.938 -4.043,-1.754V36.77C66.725,35.391 67.369,33.988 68.652,32.555z" id="path_0"/><path fill="#D50000" d="M75.162,30.973h0.172c1.201,0.172 2.551,0.99 4.043,2.461v0.172l-2.107,3.689c-2.813,-0.906 -4.223,-1.664 -4.223,-2.279C73.955,32.316 74.658,30.973 75.162,30.973z" id="path_1"/><path fill="#D50000" d="M67.092,50.855c4.605,0.045 7.178,-0.818 7.74,-2.596c0,-0.615 -0.586,-2.137 -1.764,-4.566l0.533,-4.568h0.346c1.529,2.633 2.287,5.273 2.287,7.906v1.582c0,1.057 -0.256,2.166 -0.758,3.33c-0.502,1.162 -1.283,2.145 -2.324,2.932c-1.051,0.795 -3.068,1.125 -6.061,0.99V50.855z" id="path_2"/><path fill="#D50000" d="M78.229,21.516c0.182,-0.105 0.232,0.061 0.158,0.486c-0.998,2.34 -2.527,3.977 -4.59,4.898l-7.582,3.803c-0.322,-0.09 -0.383,-0.354 -0.182,-0.795c1.014,-1.951 1.703,-3.105 2.07,-3.473L78.229,21.516z" id="path_3"/><path fill="#000001" d="M56.682,37.363c2.461,1.23 3.689,2.279 3.689,3.164c-1.17,2.311 -1.875,3.48 -2.107,3.51h-0.352c-1.809,-0.906 -2.918,-1.725 -3.346,-2.459C54.979,40.242 55.684,38.84 56.682,37.363z" id="path_4"/><path fill="#000001" d="M67.623,55.881c-0.164,0.014 -0.322,0.021 -0.486,0.021H66.26c-1.381,0 -2.318,-0.111 -2.813,-0.352c-1.027,3.945 -2.221,6.359 -3.586,7.244c-1.357,0.885 -4.439,1.635 -9.248,2.25h-0.352c-1.051,-0.119 -1.582,-0.293 -1.582,-0.525c0,-0.352 0.877,-0.764 2.639,-1.229c6.916,-3.166 10.373,-5.453 10.373,-6.855c0,-0.586 -0.824,-1.936 -2.459,-4.043c-0.354,-0.592 -0.533,-1.35 -0.533,-2.287V48.35c0,-0.885 0.18,-1.35 0.533,-1.408c1.521,2.332 4.094,3.629 7.732,3.906c0.217,0 0.434,0 0.658,-0.014V55.881z" id="path_5"/><path fill="#000001" d="M62.938,28.221c0.18,-0.105 0.232,0.059 0.156,0.486c-0.998,2.34 -2.527,3.977 -4.59,4.898l-7.582,3.803c-0.322,-0.09 -0.383,-0.354 -0.18,-0.795c1.012,-1.951 1.701,-3.105 2.07,-3.473L62.938,28.221z" id="path_6"/><path fill="#D50000" d="M43.496,54.898c0.016,-0.016 0.031,-0.031 0.045,-0.045l-5.805,-1.41c0,-3.398 0.533,-5.094 1.582,-5.094c0.705,0 1.531,-0.705 2.469,-2.113v-0.699c0,-0.607 -0.998,-1.777 -2.992,-3.518l-3.338,-3.164l-0.18,-0.18c-0.113,-1.523 -0.039,-3.031 0.246,-4.523c0.277,-1.492 1.133,-2.678 2.566,-3.563c8.279,-5.152 12.846,-7.732 13.709,-7.732l0.18,0.18v0.174c-1.334,2.063 -2.504,4.41 -3.518,7.027c-0.434,0.592 -0.615,0.592 -0.525,0l0.354,-2.281c-4.965,2.828 -8.662,5.168 -11.078,7.027c0.016,0.248 1.072,1.365 3.166,3.346c0.893,0.848 1.598,1.732 2.1,2.656c0.502,0.922 0.803,2.145 0.885,3.666c-0.232,1.793 -0.637,3.195 -1.23,4.223c1.027,0.129 1.906,0.398 2.641,0.803s1.141,1.365 1.23,2.887v0.525c0,0.309 -0.15,0.908 -0.457,1.809H43.496z" id="path_7"/><path fill="#D50000" d="M38.297,21.484c0.322,0.555 0.697,2.139 1.125,4.748c-0.262,1.582 -0.953,2.369 -2.07,2.369h-0.148c-0.488,0 -1.119,-0.314 -1.914,-0.945c-0.539,0.953 -1.334,1.434 -2.369,1.434c-1.26,0 -1.891,-1.531 -1.891,-4.59c0.367,-1.162 0.684,-1.74 0.945,-1.74l0.15,0.158v2.699c0.217,0.938 0.488,1.402 0.795,1.402h0.637c0.66,0 1.08,-0.262 1.275,-0.787l-0.33,-2.371c0.129,-0.795 0.346,-1.215 0.639,-1.252h0.33c0.328,2.633 0.861,3.953 1.574,3.953h1.102v-0.158l-0.479,-3.158v-0.18C37.795,22.01 38.004,21.484 38.297,21.484z" id="path_8"/><path fill="#000001" d="M45.215,54.672c-0.705,2.445 -2.844,5.146 -6.42,8.086c-2.154,1.529 -4.674,2.287 -7.553,2.287c-1.613,-0.367 -2.768,-0.734 -3.465,-1.094c-0.699,-0.369 -1.531,-1.178 -2.514,-2.424c-1.762,-2.34 -2.641,-4.508 -2.641,-6.502c0,-4.748 1.523,-8.551 4.576,-11.422c0.539,-0.383 0.771,-0.322 0.697,0.172c0,0.428 -0.877,2.07 -2.633,4.92c-0.705,1.426 -1.057,2.775 -1.057,4.043c0,1.822 1.289,3.811 3.869,5.977c1.83,1.014 3.818,1.426 5.979,1.23c2.541,0 5.707,-1.756 9.486,-5.273H45.215z" id="path_9"/><path fill="#D50000" d="M33.738,7.955c1.41,2.4 2.115,4.748 2.115,7.027c-0.615,4.334 -1.379,6.502 -2.287,6.502l-0.172,-0.172v-0.174l0.344,-2.287v-0.18c0,-1.402 -0.584,-3.51 -1.754,-6.322v-0.352C32.568,9.297 33.154,7.955 33.738,7.955z" id="path_10"/></svg>