<svg id="vector" xmlns="http://www.w3.org/2000/svg" width="163" height="73" viewBox="0 0 163.201 72.959"><path fill="#D50000" d="M138.237,20.275c1.522,0 2.925,0.938 4.215,2.813c-1.08,2.459 -1.905,3.689 -2.46,3.689c-2.37,-1.17 -3.66,-1.936 -3.87,-2.287C136.122,23.381 136.827,21.969 138.237,20.275z" id="path_0"/><path fill="#D50000" d="M132.544,42.332h0.877c5.468,-0.105 9.098,-0.869 10.898,-2.309l0.352,-0.699c-0.232,-0.563 -0.525,-0.84 -0.877,-0.84c-0.848,0.473 -1.785,0.705 -2.813,0.705h-0.18c-3.045,-0.352 -4.628,-1.582 -4.74,-3.689v-0.18c0.292,-3.982 1.229,-5.971 2.813,-5.971h0.877c2.707,-0.135 4.763,1.973 6.15,6.322l0.172,1.764v0.352c-0.037,4.305 -1.582,7.148 -4.635,8.52c-1.08,0.691 -4.05,1.035 -8.895,1.035V42.332z" id="path_1"/><path fill="#D50000" d="M144.732,8.387c0.18,-0.104 0.232,0.061 0.157,0.488c-0.997,2.34 -2.527,3.975 -4.59,4.898l-7.583,3.801c-0.322,-0.09 -0.382,-0.352 -0.18,-0.795c1.013,-1.949 1.703,-3.104 2.07,-3.473L144.732,8.387z" id="path_2"/><path fill="#000001" d="M132.716,47.342c-3.412,0.203 -5.895,-1.371 -7.447,-4.725c-0.75,-1.244 -1.447,-9.637 -2.107,-25.178v-0.352c0.436,-2.58 1.08,-3.871 1.928,-3.871l0.885,-0.172c1.08,0 2.723,0.354 4.92,1.051v0.352c-0.119,0.354 -0.473,0.533 -1.057,0.533h-2.985c-0.615,0 -1.2,0.344 -1.763,1.049c0.547,13.492 1.342,21.309 2.4,23.445c1.05,2.139 2.797,3.09 5.227,2.857V47.342z" id="path_3"/><path fill="#213e95" d="M107.472,42.311c0.202,0.014 0.42,0.021 0.66,0.021h1.664c1.764,-0.293 3.105,-0.906 4.043,-1.844l-2.107,-16.703c0.525,-3.166 0.998,-4.74 1.402,-4.74l2.287,5.273c0,0.816 -0.292,2.047 -0.877,3.689l0.877,9.486v2.641c-0.659,2.797 -1.545,4.756 -2.654,5.865c-0.84,0.893 -1.822,1.342 -2.971,1.342h-1.492c-0.293,0 -0.57,-0.006 -0.832,-0.021V42.311z" id="path_4"/><path fill="#000001" d="M110.126,47.342c-0.277,0 -0.615,0 -1.012,0c-1.568,-0.014 -3.256,-1.191 -5.078,-3.539c-0.697,2.58 -1.928,3.869 -3.689,3.869h-0.173c-1.493,0 -2.723,-0.877 -3.69,-2.639h-0.18c-1.05,2.113 -2.324,3.074 -3.825,2.879c-2.782,0.016 -4.433,-1.297 -4.965,-3.93c-1.958,2.295 -4.065,3.42 -6.308,3.359h-0.285v-5.01h0.09c3.548,-0.119 6.181,-1.326 7.913,-3.623c0.232,0 0.353,0.174 0.353,0.525l-0.18,1.23c0.938,1.875 2.167,2.813 3.689,2.813c1.44,0 2.902,-1.402 4.396,-4.215h0.18l0.524,0.525v1.229c0,1.111 0.826,1.756 2.461,1.936h0.352c1.523,0 2.934,-1.521 4.223,-4.574h0.173c0.232,0 0.353,0.531 0.353,1.582c0.645,1.777 2.205,2.633 4.68,2.572V47.342z" id="path_5"/><path fill="#000001" d="M99.312,21.85c0.322,0.555 0.697,2.139 1.125,4.748c-0.263,1.582 -0.953,2.369 -2.07,2.369h-0.15c-0.487,0 -1.117,-0.314 -1.912,-0.945c-0.54,0.953 -1.335,1.434 -2.37,1.434c-1.26,0 -1.89,-1.529 -1.89,-4.59c0.367,-1.162 0.683,-1.74 0.945,-1.74l0.149,0.158v2.699c0.218,0.938 0.487,1.402 0.795,1.402h0.638c0.66,0 1.08,-0.262 1.275,-0.787l-0.33,-2.371c0.127,-0.795 0.345,-1.215 0.637,-1.252h0.33c0.33,2.633 0.863,3.953 1.575,3.953h1.103V26.77l-0.48,-3.156v-0.182C98.809,22.375 99.019,21.85 99.312,21.85z" id="path_6"/><path fill="#000001" d="M72.075,50.195c0.6,0 2.002,0.705 4.215,2.115c0,0.877 -0.698,2.279 -2.107,4.215c-2.813,-0.908 -4.215,-1.725 -4.215,-2.461C70.035,53.404 70.74,52.115 72.075,50.195z" id="path_7"/><path fill="#000001" d="M79.19,57.492c0.181,-0.098 0.232,0.061 0.157,0.488c-0.997,2.34 -2.527,3.975 -4.589,4.896l-7.583,3.803c-0.322,-0.09 -0.382,-0.352 -0.18,-0.787c1.012,-1.949 1.702,-3.105 2.07,-3.473L79.19,57.492z" id="path_8"/><path fill="#008046" d="M47.074,42.484c1.95,0.166 3.607,-0.029 4.987,-0.57l-0.728,-1.318c-0.682,-3.871 -0.375,-6.428 0.923,-7.682c1.305,-1.252 2.708,-1.83 4.2,-1.725c2.902,0.135 4.538,1.658 4.92,4.568v1.057c0,2.43 -0.353,3.953 -1.05,4.568c-0.442,0.457 0.555,0.84 2.985,1.146l0.57,-0.021c0.442,-0.016 0.945,-0.023 1.515,-0.023v5.01l-1.777,0.023c-3.307,-0.016 -5.813,-0.436 -7.515,-1.252c-2.34,0.816 -4.162,1.229 -5.445,1.229h-0.705c-0.877,0 -1.837,0 -2.88,0V42.484L47.074,42.484zM53.292,37.52v0.354c0.734,1.26 1.845,2.137 3.337,2.633c0.997,-0.174 1.995,-0.586 2.992,-1.23c-0.442,-1.643 -1.905,-2.58 -4.395,-2.813C53.936,36.814 53.292,37.168 53.292,37.52z" id="path_9"/><path fill="#008046" d="M56.696,21.08c1.905,0.592 3.547,1.529 4.92,2.813v0.18c0,0.734 -0.757,1.904 -2.28,3.518c-0.473,0 -2.055,-0.584 -4.748,-1.762v0.18c-0.938,1.814 -1.522,2.752 -1.763,2.813c-1.522,-0.322 -2.813,-1.027 -3.862,-2.115c0.705,-2.926 1.29,-4.389 1.755,-4.389c0.382,0 1.792,0.699 4.222,2.109C54.941,23.811 55.526,22.691 56.696,21.08z" id="path_10"/><path fill="#000001" d="M47.644,47.518c-2.243,-0.18 -4.268,-1.756 -6.09,-4.725c-2.693,3.277 -6.563,4.92 -11.595,4.92h-1.41c-5.445,0 -9.195,-2.34 -11.25,-7.027l-0.173,-1.059v-1.582c0,-1.695 0.758,-3.631 2.28,-5.797h0.18l0.352,0.352v0.877l-0.885,2.813c0,3.076 2.58,5.184 7.74,6.33l3.165,0.174c5.475,0 9.81,-1.875 13.005,-5.625c0.173,0 0.353,0.232 0.525,0.705l-0.172,1.229c0.6,2.213 2.04,3.324 4.327,3.338V47.518z" id="path_11"/><path fill="#000001" d="M27.319,30.838h0.353c1.2,0.262 2.49,0.967 3.87,2.107v0.18c-0.795,2.4 -1.5,3.689 -2.115,3.869c-1.785,-0.352 -3.135,-0.938 -4.042,-1.762v-0.172C25.384,33.68 26.029,32.277 27.319,30.838z" id="path_12"/><path fill="#000001" d="M33.821,29.254h0.18c1.2,0.182 2.55,0.998 4.043,2.461v0.18l-2.115,3.689c-2.813,-0.906 -4.215,-1.672 -4.215,-2.287C32.621,30.605 33.326,29.254 33.821,29.254z" id="path_13"/><path fill="#000001" d="M36.236,50.959c0.18,-0.098 0.232,0.061 0.157,0.488c-0.998,2.34 -2.527,3.975 -4.59,4.896l-7.583,3.803c-0.322,-0.09 -0.382,-0.352 -0.18,-0.787c1.013,-1.949 1.703,-3.105 2.07,-3.473L36.236,50.959z" id="path_14"/><path fill="#D50000" d="M65.336,42.453c1.253,0.016 2.025,-0.008 2.333,-0.068c2.64,-0.803 4.439,-2.512 5.407,-5.115c0.143,-0.502 0.435,-0.563 0.877,-0.18c0.232,0.203 0.413,1.027 0.525,2.461c1.598,2.152 3.593,3.119 5.978,2.902h0.465v5.01h-0.112c-3.735,-0.172 -6.487,-1.875 -8.265,-5.1h-0.173c-1.245,2.625 -2.887,4.236 -4.92,4.838c-0.615,0.172 -1.32,0.262 -2.115,0.262V42.453z" id="path_15"/><path fill="#000001" d="M95.345,8.32c1.409,2.4 2.114,4.748 2.114,7.027c-0.614,4.334 -1.38,6.502 -2.288,6.502L95,21.678v-0.172l0.346,-2.289v-0.18c0,-1.402 -0.586,-3.51 -1.756,-6.322v-0.352C94.175,9.662 94.759,8.32 95.345,8.32z" id="path_16"/><path fill="#008046" d="M54.145,6.279c1.41,2.4 2.115,4.748 2.115,7.027c-0.615,4.336 -1.38,6.504 -2.288,6.504L53.8,19.637v-0.172l0.345,-2.287v-0.18c0,-1.402 -0.585,-3.51 -1.755,-6.322v-0.354C52.975,7.623 53.56,6.279 54.145,6.279z" id="path_17"/></svg>