<svg id="vector" xmlns="http://www.w3.org/2000/svg" width="102" height="73" viewBox="0 0 102 73"><path fill="#213e95" d="M72.75,40.921h0.067c2.722,-0.12 4.597,-1.433 5.625,-3.953c0,-0.353 0.232,-0.645 0.705,-0.885H79.5c0.233,0 0.353,0.18 0.353,0.532l-0.18,1.051c0.998,1.762 2.055,2.64 3.165,2.64h0.878c1.522,0 2.7,-1.522 3.518,-4.567h0.18c0.173,0.022 0.465,0.728 0.878,2.107c0.998,0.878 1.987,1.402 2.985,1.582c1.17,0 1.762,-0.704 1.762,-2.107c0.113,-2.228 0.345,-3.345 0.697,-3.345c0.473,0.997 0.705,2.228 0.705,3.69c0,4.342 -1.057,6.51 -3.165,6.51c-1.643,0 -2.985,-0.825 -4.042,-2.468H86.88c-0.728,2.348 -1.905,3.518 -3.518,3.518H83.19c-1.433,0 -3.075,-1.11 -4.92,-3.338c-1.552,2.692 -3.314,4.043 -5.272,4.043H72.75V40.921z" id="path_0"/><path fill="#213e95" d="M86.22,16.726c1.8,0 2.7,1.11 2.7,3.322c0,3.525 -3.008,6.532 -9.03,9.008c-0.862,0.263 -0.967,-0.053 -0.308,-0.945c0.165,-0.337 1.583,-1.395 4.26,-3.165v-0.149c-1.155,-0.473 -1.732,-1.478 -1.732,-3.016c0.765,-3.367 1.98,-5.055 3.645,-5.055H86.22L86.22,16.726zM83.535,20.529c0,0.938 0.795,1.515 2.377,1.74h0.308c0.585,0 0.96,-0.218 1.117,-0.638c0,-0.953 -0.689,-1.695 -2.063,-2.221C84.675,19.411 84.098,19.786 83.535,20.529z" id="path_1"/><path fill="#D50000" d="M73.493,45.931c-0.112,0 -0.232,0 -0.345,0h-1.583c-1.583,0 -3.405,-0.998 -5.453,-2.985c-3.518,1.928 -7.313,2.925 -11.385,2.985v-4.987c2.13,0.143 4.867,-0.3 8.22,-1.343v-0.173c-1.612,-1.058 -3.135,-1.582 -4.567,-1.582l-1.41,0.172l-0.353,-0.877c0.473,-3.165 1.823,-4.747 4.043,-4.747l2.812,-0.173c4.456,0.524 6.683,1.522 6.683,2.985v0.705l-1.058,3.517c0.855,1.035 2.318,1.538 4.395,1.493V45.931z" id="path_2"/><path fill="#D50000" d="M67.298,16.876c0.323,0.555 0.698,2.137 1.125,4.747c-0.262,1.583 -0.953,2.37 -2.07,2.37h-0.15c-0.487,0 -1.117,-0.315 -1.912,-0.945c-0.54,0.953 -1.335,1.433 -2.37,1.433c-1.26,0 -1.89,-1.53 -1.89,-4.59c0.368,-1.163 0.683,-1.74 0.945,-1.74l0.15,0.157v2.7c0.217,0.938 0.487,1.402 0.795,1.402h0.637c0.66,0 1.08,-0.262 1.275,-0.787l-0.33,-2.37c0.127,-0.795 0.345,-1.215 0.637,-1.252h0.33c0.33,2.632 0.863,3.952 1.575,3.952h1.103v-0.157l-0.48,-3.158v-0.18C66.795,17.401 67.005,16.876 67.298,16.876z" id="path_3"/><path fill="#D50000" d="M70.553,48.601c0.18,-0.098 0.232,0.061 0.158,0.487c-0.998,2.34 -2.528,3.976 -4.59,4.897l-7.583,3.803c-0.322,-0.09 -0.382,-0.353 -0.18,-0.787c1.013,-1.95 1.703,-3.105 2.07,-3.473L70.553,48.601z" id="path_4"/><path fill="#008046" d="M55.013,45.946c-0.158,0.016 -0.322,0.022 -0.48,0.022h-0.885c-1.373,0 -2.31,-0.112 -2.813,-0.353c-1.02,3.945 -2.212,6.36 -3.577,7.245c-1.365,0.886 -4.448,1.636 -9.248,2.25h-0.353c-1.058,-0.12 -1.583,-0.292 -1.583,-0.524c0,-0.353 0.877,-0.766 2.632,-1.23c6.915,-3.165 10.373,-5.452 10.373,-6.854c0,-0.585 -0.817,-1.936 -2.46,-4.043c-0.353,-0.592 -0.525,-1.35 -0.525,-2.287v-1.755c0,-0.886 0.172,-1.351 0.525,-1.41c1.522,2.332 4.103,3.63 7.732,3.907c0.225,0 0.442,0 0.66,-0.015V45.946z" id="path_5"/><path fill="#008046" d="M51.3,24.744c0.18,-0.104 0.232,0.06 0.157,0.487c-0.998,2.34 -2.527,3.976 -4.59,4.897l-7.583,3.803c-0.322,-0.09 -0.382,-0.353 -0.18,-0.795c1.013,-1.95 1.703,-3.104 2.07,-3.473L51.3,24.744z" id="path_6"/><path fill="#000001" d="M17.558,29.093c1.373,0.413 2.783,1.29 4.215,2.641v0.172c-1.32,2.318 -2.078,3.488 -2.288,3.518H18.96c-0.998,-0.143 -2.047,-0.787 -3.165,-1.935v-0.173C15.915,31.936 16.5,30.534 17.558,29.093z" id="path_7"/><path fill="#000001" d="M24.233,29.446c1.29,0.293 2.58,1.058 3.87,2.288v0.172c0,0.646 -0.705,1.823 -2.107,3.518h-0.532c-0.818,0 -1.875,-0.645 -3.166,-1.935C22.62,31.673 23.265,30.324 24.233,29.446z" id="path_8"/><path fill="#000001" d="M10.02,31.381h0.173l0.352,0.353c-0.937,2.077 -1.402,3.487 -1.402,4.215c0,3.428 3.278,5.422 9.84,5.978l2.107,0.353c2.115,0 5.273,-0.646 9.496,-1.935l2.459,-1.403c-0.817,-1.492 -1.35,-2.782 -1.583,-3.87l0.353,-3.337h0.353c1.403,1.462 2.107,4.042 2.107,7.732c0,3.548 -3.105,5.947 -9.315,7.207l-2.64,0.353c-9.84,0 -14.76,-3.225 -14.76,-9.667C7.56,34.667 8.378,32.671 10.02,31.381z" id="path_9"/><path fill="#000001" d="M20.212,15.211h1.74c2.107,0 3.165,0.787 3.165,2.37c-1.365,3.689 -3.022,5.647 -4.973,5.872l-2.302,0.308c-0.368,0 -0.518,-0.105 -0.465,-0.308c1.86,-0.982 3.6,-2.152 5.212,-3.495c-0.57,-0.532 -1.2,-0.795 -1.89,-0.795h-0.488l-1.89,0.157l-0.15,-0.157v-0.308C19.065,16.426 19.748,15.211 20.212,15.211z" id="path_10"/></svg>