<svg id="vector" xmlns="http://www.w3.org/2000/svg" width="75" height="67" viewBox="0 0 83 73"><path fill="#2b4ea1" d="M53.864,52.978c-0.475,0.396 -1.06,0.56 -1.748,0.499c-0.633,-0.049 -1.254,-0.17 -1.863,-0.365c-0.614,-0.195 -1.461,-0.585 -2.551,-1.176c-1.091,-0.591 -1.962,-0.889 -2.613,-0.901c-0.322,0.122 -0.627,0.427 -0.913,0.926c-0.39,0.634 -0.688,1.042 -0.89,1.23c-1.071,1.456 -2.661,2.32 -4.762,2.606v-4.964c2.283,0.11 4.244,-0.803 5.883,-2.733c0.384,-0.438 0.877,-1.279 1.485,-2.516c0.749,-1.175 1.517,-2.326 2.303,-3.446c0.974,-1.249 2.046,-1.919 3.228,-2.016c0.249,0 0.499,0 0.748,0c1.036,0.401 1.669,0.907 1.907,1.516c0.822,1.103 1.29,2.454 1.412,4.05C55.691,48.185 55.149,50.614 53.864,52.978L53.864,52.978zM52.579,47.947c0.323,0.237 0.524,0.183 0.609,-0.158c-0.408,-1.219 -1.315,-2.071 -2.729,-2.57c-0.231,-0.049 -0.45,-0.067 -0.663,-0.055c-0.561,0.036 -1.219,0.322 -1.979,0.858l0.019,0.316C49.693,47.375 51.27,47.911 52.579,47.947z" id="path_0"/><path fill="#0000E1" d="M41.112,36.705l1.108,-3.301l10.755,-4.726c0.146,-0.036 0.213,-0.019 0.213,0.055c0,0.037 -0.019,0.122 -0.055,0.269l-1.443,3.422l-10.328,4.622c-0.135,0.013 -0.214,0.013 -0.25,0C41.063,36.973 41.063,36.863 41.112,36.705L41.112,36.705zM41.112,31.943c-0.049,0.157 -0.049,0.268 0,0.341c0.036,0.036 0.115,0.036 0.25,0l10.328,-4.622l1.443,-3.423c0.036,-0.146 0.055,-0.237 0.055,-0.268c0,-0.073 -0.067,-0.092 -0.213,-0.055L42.22,28.643L41.112,31.943z" id="path_1"/><path fill="#CC0B0B" d="M38.974,55.797c-2.96,0.024 -5.316,-0.938 -7.064,-2.893c-1.224,-1.389 -2.01,-3.331 -2.356,-5.834c-0.177,-2.235 -0.378,-4.439 -0.609,-6.62c-0.091,-1.924 -0.39,-5.572 -0.889,-10.932c-0.365,-4.415 -0.561,-8.014 -0.585,-10.797c0.024,-0.323 0.165,-0.768 0.427,-1.34c0.311,-0.104 0.591,-0.164 0.84,-0.177c0.476,-0.023 1.084,0.152 1.834,0.536c0.895,0.438 1.461,0.713 1.711,0.822c0.42,0.25 0.853,0.518 1.303,0.804c0.457,0.28 0.646,0.651 0.573,1.103c-0.335,0.012 -0.841,-0.116 -1.517,-0.384s-1.188,-0.401 -1.535,-0.401c-0.359,0.023 -0.713,0.182 -1.071,0.462l-0.444,0.591c0.475,9.062 1.011,16.096 1.607,21.09c-0.037,0.426 -0.049,0.864 -0.037,1.303c0.11,3.246 1.322,5.561 3.643,6.942c1.339,0.512 2.733,0.768 4.171,0.779V55.797z" id="path_2"/></svg>