<svg id="vector" xmlns="http://www.w3.org/2000/svg" width="75" height="67" viewBox="0 0 83 73"><path fill="#000001" d="M51.25,30.533v-0.168c0.568,-0.794 1.379,-1.872 2.445,-3.245h0.116c0.863,0.927 1.94,1.768 3.244,2.515c0.035,0.035 0.052,0.075 0.052,0.134L54.75,32.96c-0.023,0.012 -0.064,0.018 -0.122,0.018c-0.069,0 -0.186,-0.029 -0.354,-0.087C53.458,32.52 52.449,31.732 51.25,30.533z" id="path_0"/><path fill="#000001" d="M49.066,48.065c1.32,0.093 2.618,0.14 3.888,0.14c3.111,0 6.106,-0.348 8.992,-1.037c0.104,-0.099 0.156,-0.203 0.156,-0.302c0,-0.069 -0.075,-0.202 -0.221,-0.399c-0.15,-0.203 -0.226,-0.336 -0.226,-0.4c-0.927,-1.222 -2.37,-2.369 -4.328,-3.43c-3.019,-1.721 -4.601,-2.613 -4.733,-2.683c0,-1.698 0.121,-3.326 0.359,-4.891l0.643,0.203c1.981,1.084 3.94,2.167 5.875,3.239c2.226,1.425 3.5,3.146 3.818,5.156c0.203,0.701 0.302,1.414 0.302,2.138c0,1.495 -0.493,3.372 -1.489,5.632c-2.48,1.258 -5.91,1.884 -10.29,1.884c-1.356,0 -2.521,-0.099 -3.494,-0.29C48.318,52.654 48.567,51.002 49.066,48.065z" id="path_1"/><path fill="#2154BA" d="M44.79,34.924c-0.104,0.272 -0.284,0.551 -0.545,0.835c-0.168,0.052 -0.295,0.017 -0.377,-0.122c-0.028,-0.069 -0.04,-0.209 -0.022,-0.423c0.018,-0.215 0.006,-0.359 -0.023,-0.424c0,-0.104 0.023,-0.254 0.063,-0.463c-0.336,-0.18 -0.695,-0.261 -1.065,-0.249c-0.354,0.028 -1.066,0.301 -2.139,0.812c-2.254,1.564 -3.87,3.023 -4.855,4.38c-1.043,1.495 -1.46,2.81 -1.257,3.957c0.678,0.823 1.918,1.199 3.72,1.118c2.022,-0.058 3.366,0.134 4.021,0.58c0.226,0.237 0.37,0.741 0.439,1.506c0.25,1.779 0.14,3.314 -0.336,4.606c-0.354,1.414 -1.205,3.117 -2.549,5.11c-1.64,1.831 -3.222,3.198 -4.733,4.107c-1.698,0.997 -3.396,1.542 -5.094,1.646c-1.257,0.093 -2.532,-0.081 -3.818,-0.51c-2.155,-0.729 -3.853,-1.958 -5.109,-3.696c-0.974,-1.327 -1.53,-3.141 -1.664,-5.452c-0.214,-3.372 0.499,-6.548 2.139,-9.537c0.545,-0.806 0.846,-1.245 0.915,-1.326c0.371,-0.395 0.776,-0.644 1.206,-0.748c0.034,0.51 -0.128,1.061 -0.476,1.651c-0.354,0.585 -0.684,1.136 -1.002,1.646c-1.009,2.173 -1.356,4.45 -1.055,6.843c0.614,1.697 1.61,3.111 3.001,4.247c1.385,1.142 2.943,1.778 4.676,1.912c0.62,0.104 1.28,0.127 1.981,0.069c1.564,-0.081 3.163,-0.516 4.798,-1.31c1.634,-0.788 2.978,-1.709 4.032,-2.746c0.464,-0.498 1.136,-1.246 2.022,-2.242c0.075,-0.168 0.075,-0.389 0,-0.649c-0.093,-0.214 -0.261,-0.33 -0.51,-0.354c-1.385,-0.04 -2.77,-0.086 -4.16,-0.139c-1.6,-0.203 -2.654,-0.933 -3.176,-2.19c-0.237,-0.486 -0.37,-1.083 -0.405,-1.784c-0.035,-0.557 -0.018,-1.269 0.046,-2.138c0.14,-1.136 0.215,-1.837 0.227,-2.109c0.463,-2.364 1.466,-4.624 3.019,-6.779s3.407,-3.847 5.568,-5.069c0.475,-0.075 0.956,-0.168 1.442,-0.267c0.545,-0.069 0.985,0.099 1.327,0.51c0.226,0.348 0.354,0.736 0.388,1.17c0.012,0.406 -0.104,1.055 -0.348,1.941S44.755,34.426 44.79,34.924z" id="path_2"/><path fill="#399121" d="M48.016,23.259l1.055,-3.14l10.232,-4.497c0.139,-0.034 0.203,-0.017 0.203,0.053c0,0.034 -0.018,0.115 -0.053,0.255l-1.373,3.256l-9.826,4.398c-0.128,0.011 -0.203,0.011 -0.238,0C47.97,23.514 47.97,23.41 48.016,23.259z" id="path_3"/><path fill="#399121" d="M48.016,23.259l1.055,-3.14l10.232,-4.497c0.139,-0.034 0.203,-0.017 0.203,0.053c0,0.034 -0.018,0.115 -0.053,0.255l-1.373,3.256l-9.826,4.398c-0.128,0.011 -0.203,0.011 -0.238,0C47.97,23.514 47.97,23.41 48.016,23.259z" id="path_4"/><path fill="#399121" d="M48.016,18.728l1.055,-3.14l10.232,-4.496c0.139,-0.035 0.203,-0.018 0.203,0.052c0,0.029 -0.018,0.116 -0.053,0.255l-1.373,3.257l-9.826,4.397c-0.128,0.034 -0.203,0.034 -0.238,0C47.97,18.983 47.97,18.879 48.016,18.728z" id="path_5"/></svg>