<svg id="vector" xmlns="http://www.w3.org/2000/svg" width="75" height="67" viewBox="0 0 83 73"><path fill="#f06022" d="M35.773,57.027l1.055,-3.105l10.231,-4.531c0.14,-0.023 0.203,-0.006 0.203,0.053c0,0.034 -0.018,0.121 -0.053,0.272l-1.373,3.256l-9.826,4.415c-0.128,0.012 -0.203,0.012 -0.237,0C35.726,57.317 35.726,57.201 35.773,57.027z" id="path_0"/><path fill="#f06022" d="M35.773,52.496l1.055,-3.105l10.231,-4.53c0.14,-0.023 0.203,-0.006 0.203,0.052c0,0.029 -0.018,0.121 -0.053,0.267l-1.373,3.262l-9.826,4.415c-0.128,0.012 -0.203,0.012 -0.237,0C35.726,52.786 35.726,52.664 35.773,52.496z" id="path_1"/><path fill="#399121" d="M36.794,19.018V18.85c0.568,-0.794 1.38,-1.871 2.445,-3.244h0.116c0.863,0.927 1.94,1.767 3.244,2.515c0.035,0.034 0.053,0.074 0.053,0.133l-2.358,3.192c-0.023,0.012 -0.063,0.018 -0.121,0.018c-0.07,0 -0.186,-0.029 -0.354,-0.087C39.002,21.005 37.995,20.217 36.794,19.018z" id="path_2"/><path fill="#399121" d="M34.611,36.551c1.321,0.092 2.618,0.139 3.888,0.139c3.111,0 6.106,-0.348 8.992,-1.037c0.104,-0.099 0.156,-0.203 0.156,-0.302c0,-0.069 -0.075,-0.202 -0.22,-0.399c-0.151,-0.202 -0.227,-0.336 -0.227,-0.399c-0.927,-1.223 -2.369,-2.37 -4.328,-3.431c-3.019,-1.721 -4.6,-2.612 -4.733,-2.683c0,-1.697 0.122,-3.325 0.359,-4.89l0.643,0.202c1.982,1.084 3.94,2.167 5.876,3.239c2.225,1.426 3.499,3.146 3.818,5.156c0.202,0.701 0.301,1.414 0.301,2.139c0,1.495 -0.492,3.372 -1.489,5.632c-2.479,1.257 -5.91,1.883 -10.29,1.883c-1.355,0 -2.521,-0.099 -3.494,-0.29C33.863,41.14 34.113,39.489 34.611,36.551z" id="path_3"/></svg>