<svg id="vector" xmlns="http://www.w3.org/2000/svg" width="75" height="67" viewBox="0 0 83 73"><path fill="#CC0B0B" d="M36.012,57.62l1.055,-3.105l10.23,-4.53c0.141,-0.023 0.203,-0.006 0.203,0.052c0,0.035 -0.018,0.122 -0.051,0.272l-1.373,3.257l-9.828,4.414c-0.127,0.012 -0.203,0.012 -0.236,0C35.965,57.911 35.965,57.794 36.012,57.62z" id="path_0"/><path fill="#CC0B0B" d="M36.012,53.09l1.055,-3.105l10.23,-4.53c0.141,-0.023 0.203,-0.006 0.203,0.051c0,0.029 -0.018,0.122 -0.051,0.268l-1.373,3.262l-9.828,4.415c-0.127,0.011 -0.203,0.011 -0.236,0C35.965,53.38 35.965,53.258 36.012,53.09z" id="path_1"/><path fill="#000000" d="M56.461,40.313c-0.273,0.215 -0.627,0.423 -1.055,0.625c-2.248,1.125 -4.525,1.918 -6.82,2.394c-3.158,0.666 -6.426,1.003 -9.797,1.003c-3.895,0 -7.029,-0.649 -9.404,-1.941c-3.047,-1.634 -4.605,-4.23 -4.676,-7.781c0,-1.13 0.244,-2.369 0.736,-3.709c0.486,-1.344 1.152,-2.328 1.986,-2.96c0.168,-0.14 0.291,-0.157 0.359,-0.052c0.1,0.098 0.117,0.185 0.047,0.254c-0.742,1.322 -1.199,2.631 -1.355,3.918c-0.145,2.404 1.75,4.507 5.684,6.314c2.584,0.701 5.383,1.055 8.406,1.055c3.982,0 8.146,-0.563 12.492,-1.68c0.668,-0.168 2.029,-0.701 4.074,-1.605c-0.168,-0.486 -0.568,-1.164 -1.188,-2.033c-1.258,0.967 -2.404,1.453 -3.447,1.453c-0.418,0 -0.83,-0.068 -1.24,-0.202c-0.951,-0.202 -1.814,-0.655 -2.596,-1.345c-0.783,-0.695 -1.258,-1.5 -1.426,-2.416c0.104,-1.425 0.254,-2.572 0.457,-3.441c0.627,-2.555 1.75,-4.195 3.379,-4.93c0.295,-0.07 0.613,-0.105 0.949,-0.105c1.947,0 3.408,0.934 4.381,2.799c0.354,0.701 0.678,1.361 0.984,1.987c0.604,1.628 0.898,3.366 0.898,5.227c0,2.08 -0.383,3.969 -1.152,5.661L56.461,40.313L56.461,40.313zM53.963,30.498c0.453,-0.099 0.643,-0.272 0.574,-0.509c-0.951,-1.188 -2.289,-1.716 -4.021,-1.576c-0.521,0.33 -0.766,0.643 -0.73,0.949C50.939,30.313 52.33,30.689 53.963,30.498L53.963,30.498zM49.045,18.424v-0.168c0.566,-0.794 1.379,-1.872 2.443,-3.245h0.117c0.863,0.928 1.941,1.768 3.244,2.515c0.035,0.035 0.053,0.075 0.053,0.134l-2.359,3.192c-0.021,0.012 -0.063,0.017 -0.121,0.017c-0.07,0 -0.186,-0.028 -0.354,-0.086C51.252,20.411 50.244,19.623 49.045,18.424z" id="path_2"/></svg>