<svg id="vector" xmlns="http://www.w3.org/2000/svg" width="75" height="67" viewBox="0 0 83 73"><path fill="#f06022" d="M36.01,57.622l1.055,-3.106l10.232,-4.53c0.139,-0.023 0.202,-0.006 0.202,0.052c0,0.035 -0.017,0.122 -0.052,0.272l-1.373,3.256l-9.827,4.415c-0.127,0.012 -0.202,0.012 -0.237,0C35.964,57.911 35.964,57.794 36.01,57.622z" id="path_0"/><path fill="#f06022" d="M36.01,53.09l1.055,-3.105l10.232,-4.531c0.139,-0.023 0.202,-0.006 0.202,0.053c0,0.028 -0.017,0.121 -0.052,0.266l-1.373,3.263l-9.827,4.415c-0.127,0.012 -0.202,0.012 -0.237,0C35.964,53.38 35.964,53.258 36.01,53.09z" id="path_1"/><path fill="#3F51B5" d="M35.187,32.671v-0.168c0.567,-0.794 1.379,-1.871 2.445,-3.245h0.115c0.221,0.238 0.823,0.725 1.819,1.461c0.476,0.354 0.956,0.707 1.442,1.071c0.545,-0.759 1.275,-1.721 2.19,-2.885h0.116c0.863,0.915 1.94,1.744 3.244,2.491c0.035,0.023 0.053,0.075 0.053,0.156l-2.376,3.176c-0.011,0.022 -0.046,0.028 -0.104,0.028c-0.082,0 -0.203,-0.023 -0.377,-0.081c-0.8,-0.377 -1.802,-1.165 -3.002,-2.376v-0.017l-2.085,2.798c-0.012,0.023 -0.047,0.035 -0.104,0.035c-0.081,0 -0.203,-0.029 -0.371,-0.087C37.388,34.659 36.386,33.871 35.187,32.671z" id="path_2"/><path fill="#3F51B5" d="M37.51,27.782v-0.169c0.567,-0.793 1.385,-1.871 2.445,-3.238h0.121c0.847,0.927 1.93,1.756 3.239,2.491c0.023,0.035 0.034,0.087 0.034,0.156l-2.357,3.187c-0.023,0.012 -0.058,0.019 -0.104,0.019c-0.075,0 -0.197,-0.029 -0.354,-0.082C39.717,29.769 38.709,28.981 37.51,27.782z" id="path_3"/><path fill="#3F51B5" d="M56.839,39.526c-1.825,1.164 -4.184,2.109 -7.081,2.833c-4.415,0.997 -8.157,1.483 -11.229,1.466c-3.07,-0.017 -5.458,-0.313 -7.155,-0.892c-1.697,-0.574 -3.187,-1.576 -4.462,-3.002c-1.101,-1.257 -1.744,-2.717 -1.935,-4.38c-0.249,-2.341 0.318,-4.867 1.715,-7.573c0.145,-0.133 0.289,-0.295 0.44,-0.48c0.145,-0.186 0.313,-0.267 0.492,-0.231l-0.018,0.411c-0.771,1.651 -1.188,3.123 -1.257,4.409c-0.035,0.452 -0.035,0.765 0,0.933c0.475,2.173 2.12,3.702 4.942,4.589c1.582,0.539 3.238,0.875 4.971,0.997c0.272,0.012 0.695,0.046 1.275,0.104c3.54,0.012 7.833,-0.405 12.88,-1.257c2.92,-0.545 5,-1.28 6.234,-2.207c-0.081,-0.371 -0.359,-0.794 -0.835,-1.264c-0.475,-0.47 -0.765,-0.893 -0.863,-1.263c-0.069,-1.495 0.018,-3.024 0.256,-4.583l0.202,-0.018c1.57,1.772 2.445,3.662 2.613,5.649C58.23,36.09 57.835,38.008 56.839,39.526z" id="path_4"/></svg>