<svg id="vector" xmlns="http://www.w3.org/2000/svg" width="75" height="67" viewBox="0 0 83 73"><path fill="#000001" d="M41.415,32.939c-0.104,0.177 -0.301,0.511 -0.596,0.995c-0.68,1.354 -1.38,2.276 -2.106,2.761c-0.438,0.268 -1.524,0.667 -3.258,1.19c-1.576,0.51 -3.905,1.151 -7,1.917c-0.687,0.138 -1.033,0.111 -1.033,-0.079c0,-0.176 0.183,-0.398 0.556,-0.667c4.775,-3.415 8.949,-6.038 12.515,-7.883c0.308,-0.111 0.589,-0.569 0.844,-1.374c0.498,-1.367 0.805,-2.185 0.923,-2.453c0.059,-0.104 0.465,-0.799 1.203,-2.074c1.1,-1.394 2.173,-2.767 3.219,-4.121c1.407,-1.433 2.859,-2.146 4.351,-2.146c0.308,0 0.615,0.013 0.923,0.039c1.249,0.615 2.002,1.295 2.243,2.048c0.917,1.458 1.381,3.219 1.381,5.272c0,3.134 -0.922,6.117 -2.761,8.949c-0.497,0.157 -1.007,0.229 -1.53,0.229c-1.361,0 -3.003,-0.458 -4.946,-1.381c-1.445,-0.713 -2.918,-1.472 -4.409,-2.276L41.415,32.939L41.415,32.939zM45.301,26.889c2.152,1.42 4.351,2.355 6.595,2.8c0.117,0 0.209,-0.111 0.269,-0.347c0.13,-0.405 -0.033,-1.008 -0.479,-1.799c-0.667,-1.1 -1.459,-1.852 -2.374,-2.264c-1.002,-0.327 -2.009,-0.15 -3.029,0.536C45.798,26.28 45.471,26.634 45.301,26.889z" id="path_0"/><path fill="#399121" d="M35.862,53.633l1.038,-3.057l10.072,-4.46c0.137,-0.023 0.199,-0.006 0.199,0.051c0,0.034 -0.017,0.12 -0.051,0.269l-1.352,3.205l-9.673,4.346c-0.126,0.012 -0.199,0.012 -0.234,0C35.817,53.918 35.817,53.804 35.862,53.633L35.862,53.633zM35.862,49.173c-0.045,0.165 -0.045,0.285 0,0.354c0.035,0.012 0.108,0.012 0.234,0l9.673,-4.346l1.352,-3.211c0.034,-0.143 0.051,-0.233 0.051,-0.263c0,-0.057 -0.063,-0.073 -0.199,-0.051L36.9,46.116L35.862,49.173z" id="path_1"/></svg>