<svg id="vector" xmlns="http://www.w3.org/2000/svg" width="75" height="67" viewBox="0 0 83 73"><path fill="#000000" d="M35.773,60.037l1.055,-3.105l10.23,-4.531c0.141,-0.023 0.203,-0.006 0.203,0.053c0,0.035 -0.018,0.121 -0.053,0.271l-1.373,3.257l-9.826,4.415c-0.127,0.012 -0.203,0.012 -0.236,0C35.727,60.327 35.727,60.211 35.773,60.037z" id="path_0"/><path fill="#000000" d="M35.773,55.506l1.055,-3.105l10.23,-4.531c0.141,-0.022 0.203,-0.005 0.203,0.053c0,0.029 -0.018,0.121 -0.053,0.267l-1.373,3.263l-9.826,4.414c-0.127,0.012 -0.203,0.012 -0.236,0C35.727,55.797 35.727,55.674 35.773,55.506z" id="path_1"/><path fill="#399121" d="M42.878,18.879v-0.168c0.568,-0.795 1.379,-1.872 2.445,-3.245h0.116c0.863,0.927 1.94,1.767 3.244,2.515c0.035,0.035 0.053,0.076 0.053,0.133l-2.358,3.193c-0.023,0.012 -0.063,0.018 -0.122,0.018c-0.069,0 -0.185,-0.029 -0.354,-0.088C45.086,20.865 44.077,20.078 42.878,18.879z" id="path_2"/><path fill="#399121" d="M36.633,41.996c-0.95,0.035 -1.773,0.134 -2.463,0.291c-0.156,-0.122 -0.237,-0.297 -0.237,-0.511c2.566,-0.974 5.84,-2.544 9.809,-4.71c-0.034,0.058 0.632,-0.336 1.987,-1.188c0.962,-0.742 1.629,-1.438 2.005,-2.086c0,-0.846 -0.127,-1.773 -0.376,-2.775c-0.395,-0.881 -0.904,-1.814 -1.524,-2.799l0.521,-4.982h0.29c0.996,2.271 1.599,3.91 1.802,4.912c0.475,1.912 0.678,3.604 0.608,5.088c-0.012,0.927 -0.191,2.016 -0.545,3.273c-0.765,2.393 -2.393,3.969 -4.867,4.729C42.467,41.598 40.126,41.852 36.633,41.996z" id="path_3"/></svg>