<svg id="vector" xmlns="http://www.w3.org/2000/svg" width="75" height="67" viewBox="0 0 83 73"><path fill="#000000" d="M50.952,54.003c-2.092,0.357 -4.091,0.357 -5.991,0c-0.116,0 -0.238,-0.012 -0.365,-0.029c-0.134,-0.018 -0.313,-0.041 -0.539,-0.076s-0.417,-0.053 -0.573,-0.053c-0.238,0 -0.424,0.15 -0.563,0.441c-0.272,0.545 -0.735,1.326 -1.391,2.346c-0.33,0 -0.51,-0.045 -0.544,-0.139c-0.099,-0.428 -0.012,-0.996 0.271,-1.691c0.284,-0.701 0.424,-1.164 0.424,-1.408c-1.084,-1.102 -1.75,-1.965 -1.987,-2.59c-0.238,-0.631 -0.406,-1.031 -0.505,-1.205c-0.226,0.66 -0.782,1.385 -1.657,2.172c-0.875,0.795 -2.016,1.229 -3.418,1.311v-4.688c1.142,0.104 2.375,-0.209 3.696,-0.934c1.09,-0.938 1.634,-1.9 1.634,-2.885c0,0 0.116,-0.139 0.354,-0.412c0.168,-0.168 0.377,-0.203 0.626,-0.098c0.174,0.236 0.284,0.73 0.336,1.477c0.047,0.748 0.209,1.258 0.481,1.529c0.915,1.154 1.877,1.682 2.885,1.576c0.487,-0.891 0.985,-1.777 1.495,-2.664c0.597,-1.043 1.391,-2.242 2.376,-3.609c0.984,-1.361 2.804,-2.162 5.463,-2.389c1.495,0 2.886,0.521 4.178,1.564c1.46,1.188 2.017,2.551 1.663,4.08c-0.563,2.682 -1.31,4.555 -2.236,5.619C55.841,52.64 53.801,53.556 50.952,54.003L50.952,54.003zM57.521,47.31c-0.208,-0.805 -0.66,-1.396 -1.361,-1.785c-0.301,-0.201 -1.002,-0.486 -2.086,-0.846c-0.724,-0.41 -1.836,-0.527 -3.325,-0.359c-2.063,0.904 -3.639,2.266 -4.74,4.074c0.035,0.104 -0.005,0.209 -0.127,0.307c-0.116,0.105 -0.174,0.186 -0.174,0.256c0,0.033 0.018,0.068 0.047,0.104c1.101,0.227 2.242,0.336 3.43,0.336c2.851,0 5.324,-0.545 7.416,-1.629L57.521,47.31z" id="path_0"/><path fill="#FF0000" d="M34.542,53.087c-2.815,0.023 -5.058,-0.893 -6.721,-2.752c-1.165,-1.322 -1.912,-3.17 -2.242,-5.551c-0.169,-2.127 -0.359,-4.225 -0.58,-6.299c-0.087,-1.83 -0.37,-5.301 -0.846,-10.4c-0.348,-4.201 -0.533,-7.625 -0.556,-10.273c0.022,-0.307 0.156,-0.729 0.405,-1.273c0.295,-0.1 0.562,-0.156 0.799,-0.168c0.452,-0.023 1.032,0.145 1.745,0.51c0.851,0.416 1.39,0.678 1.628,0.781c0.399,0.238 0.811,0.492 1.239,0.766c0.435,0.266 0.614,0.619 0.545,1.049c-0.318,0.012 -0.8,-0.109 -1.442,-0.365c-0.644,-0.256 -1.13,-0.383 -1.461,-0.383c-0.342,0.023 -0.678,0.174 -1.02,0.441l-0.423,0.561c0.452,8.623 0.962,15.314 1.53,20.066c-0.035,0.404 -0.047,0.822 -0.035,1.238c0.104,3.088 1.258,5.291 3.465,6.605c1.274,0.486 2.602,0.73 3.969,0.742V53.087z" id="path_1"/><path fill="#399121" d="M42.227,28.099l1.055,-3.141l10.232,-4.496c0.139,-0.035 0.202,-0.018 0.202,0.053c0,0.035 -0.017,0.115 -0.052,0.254l-1.373,3.258l-9.827,4.396c-0.127,0.012 -0.202,0.012 -0.237,0C42.181,28.354 42.181,28.249 42.227,28.099z" id="path_2"/><path fill="#399121" d="M42.227,28.099l1.055,-3.141l10.232,-4.496c0.139,-0.035 0.202,-0.018 0.202,0.053c0,0.035 -0.017,0.115 -0.052,0.254l-1.373,3.258l-9.827,4.396c-0.127,0.012 -0.202,0.012 -0.237,0C42.181,28.354 42.181,28.249 42.227,28.099z" id="path_3"/><path fill="#399121" d="M42.227,23.567l1.055,-3.141l10.232,-4.496c0.139,-0.035 0.202,-0.018 0.202,0.053c0,0.029 -0.017,0.115 -0.052,0.256l-1.373,3.256l-9.827,4.396c-0.127,0.035 -0.202,0.035 -0.237,0C42.181,23.823 42.181,23.718 42.227,23.567z" id="path_4"/></svg>