<svg id="vector" xmlns="http://www.w3.org/2000/svg" width="75" height="67" viewBox="0 0 83 73"><path fill="#f06022" d="M26.673,28.171c0.035,0.064 0.063,0.168 0.099,0.301c-0.295,0.465 -0.713,1.166 -1.258,2.092c-0.984,1.525 -1.575,3.055 -1.778,4.584c-0.203,1.617 0.029,3.008 0.695,4.172c1.199,2.41 3.141,4.02 5.823,4.826c1.865,0.539 4.374,0.66 7.521,0.354c4.514,-1.258 7.254,-3.152 8.216,-5.689c-0.069,-1.779 -0.452,-3.43 -1.142,-4.961c-0.272,-0.631 -0.689,-1.564 -1.251,-2.799c-0.07,-0.984 0.012,-2.416 0.249,-4.281c0.197,-0.035 0.376,0.018 0.544,0.15c0.521,0.412 1.304,1.004 2.341,1.785c0.898,0.58 1.837,0.939 2.822,1.09c1.008,-1.709 2.011,-3.43 3.001,-5.162c1.396,-1.994 3.002,-3.146 4.82,-3.447c0.626,-0.215 1.287,-0.326 1.987,-0.326c1.565,0 3.141,0.441 4.74,1.322c1.489,1.459 2.236,2.688 2.236,3.684c0,0.168 -0.018,0.354 -0.052,0.557c-0.267,3.008 -1.449,5.244 -3.547,6.699c-3.169,1.627 -6.332,2.443 -9.49,2.443c-2.057,0 -3.917,-0.381 -5.579,-1.152c-0.354,-0.07 -0.527,0.018 -0.527,0.256c0.075,0.596 0.115,1.176 0.115,1.732c0,1.592 -0.289,3.174 -0.881,4.738c-0.984,2.533 -2.665,4.613 -5.04,6.223c-2.376,1.617 -4.942,2.422 -7.689,2.422c-2.821,0 -5.271,-0.828 -7.369,-2.49c-2.816,-2.236 -4.225,-5.459 -4.225,-9.67c0,-1.75 0.302,-3.379 0.898,-4.867c1.09,-2.051 2.196,-3.564 3.326,-4.537C26.505,28.188 26.639,28.171 26.673,28.171L26.673,28.171zM58.465,25.546c-0.354,-0.033 -0.678,-0.051 -0.985,-0.051c-2.329,0 -4.403,1.494 -6.211,4.484c0.62,0.271 1.13,0.387 1.523,0.354c0.661,0.033 1.292,0.051 1.906,0.051c3.731,0 6.849,-0.781 9.352,-2.34c-0.202,-0.486 -0.573,-0.904 -1.106,-1.24c-0.203,-0.139 -0.701,-0.418 -1.489,-0.852C60.261,25.534 59.271,25.401 58.465,25.546z" id="path_0"/><path fill="#399121" d="M47.298,55.688l1.054,-3.105l10.232,-4.531c0.139,-0.023 0.203,-0.006 0.203,0.051c0,0.035 -0.018,0.123 -0.053,0.273l-1.373,3.256l-9.826,4.416c-0.128,0.01 -0.203,0.01 -0.237,0C47.251,55.978 47.251,55.862 47.298,55.688z" id="path_1"/><path fill="#399121" d="M47.298,51.157l1.054,-3.105l10.232,-4.531c0.139,-0.023 0.203,-0.006 0.203,0.053c0,0.027 -0.018,0.121 -0.053,0.266l-1.373,3.262l-9.826,4.416c-0.128,0.012 -0.203,0.012 -0.237,0C47.251,51.446 47.251,51.325 47.298,51.157z" id="path_2"/></svg>