<svg id="vector" xmlns="http://www.w3.org/2000/svg" width="75" height="67" viewBox="0 0 83 73"><path fill="#000000" d="M26.013,28.096c0.272,-0.18 0.411,-0.145 0.411,0.105c-0.308,0.666 -0.753,1.68 -1.345,3.035c-0.903,2.318 -1.355,4.275 -1.355,5.875c0,1.953 0.644,3.518 1.936,4.682c2.294,2.127 4.971,3.193 8.03,3.193c1.223,0 2.434,-0.186 3.633,-0.563c3.314,-1.084 5.736,-2.607 7.266,-4.578c0.452,-0.631 0.678,-1.344 0.678,-2.137c0,-0.916 -0.44,-2.307 -1.326,-4.172c-0.76,-0.633 -1.136,-1.629 -1.136,-2.984c0,-0.307 0.018,-0.766 0.052,-1.379c0.035,-0.607 0.052,-1.055 0.052,-1.332c0,-0.273 0.07,-0.678 0.221,-1.211c0.168,-0.035 0.267,0.029 0.302,0.197c0.034,0.162 0.069,0.26 0.104,0.295c0.771,1.223 2.04,2.021 3.818,2.393c2.23,0.133 3.894,-0.563 4.989,-2.086c0.33,-1.293 0.684,-2.307 1.054,-3.041c0.417,0.068 0.626,0.301 0.626,0.695c-0.029,0.66 -0.046,0.967 -0.046,0.938c0.44,1.664 1.239,2.672 2.393,3.037c1.188,0.336 2.149,0.225 2.886,-0.342c0.069,-0.135 0.028,-0.279 -0.122,-0.43c-0.145,-0.156 -0.202,-0.266 -0.168,-0.336l0.22,-4.514c0.25,-0.156 0.406,-0.221 0.476,-0.186c0.725,0.689 1.147,1.68 1.274,2.973c0.012,3.789 -0.55,6.264 -1.68,7.416c-0.852,0.307 -1.611,0.459 -2.277,0.459c-0.857,0 -1.64,-0.256 -2.341,-0.766c-0.927,-0.701 -1.478,-1.797 -1.646,-3.291c-0.33,0.301 -0.614,0.742 -0.852,1.303c-0.336,0.689 -0.579,1.137 -0.73,1.346c-1.176,1.223 -2.509,1.83 -4.003,1.83c-0.389,0 -0.765,-0.059 -1.136,-0.168c-0.035,0.348 -0.099,1.57 -0.191,3.668c-0.029,1.559 -0.272,2.752 -0.713,3.58c-1.188,2.781 -2.949,4.844 -5.296,6.178c-2.341,1.338 -4.768,2.004 -7.282,2.004c-3.743,0 -6.611,-1.414 -8.604,-4.236c-1.42,-2.039 -2.127,-4.414 -2.127,-7.131c0,-1.732 0.435,-3.762 1.298,-6.096c0.349,-0.725 0.73,-1.496 1.153,-2.324C24.923,29.174 25.428,28.537 26.013,28.096z" id="path_0"/><path fill="#399121" d="M47.298,55.688l1.054,-3.105l10.232,-4.531c0.139,-0.023 0.203,-0.006 0.203,0.053c0,0.035 -0.018,0.121 -0.053,0.273l-1.373,3.256l-9.826,4.414c-0.128,0.012 -0.203,0.012 -0.237,0C47.251,55.979 47.251,55.861 47.298,55.688z" id="path_1"/><path fill="#399121" d="M47.298,51.156l1.054,-3.105l10.232,-4.531c0.139,-0.021 0.203,-0.004 0.203,0.053c0,0.029 -0.018,0.121 -0.053,0.268l-1.373,3.262l-9.826,4.414c-0.128,0.012 -0.203,0.012 -0.237,0C47.251,51.447 47.251,51.324 47.298,51.156z" id="path_2"/></svg>