<svg id="vector" xmlns="http://www.w3.org/2000/svg" width="75" height="67" viewBox="0 0 83 73"><path fill="#399121" d="M45.573,13.188c-0.411,0.477 -1.124,1.16 -2.144,2.053c-1.014,0.896 -1.727,1.639 -2.138,2.225c-0.632,0.902 -0.956,1.586 -0.968,2.039c0,0.324 0.052,0.59 0.156,0.793c0.11,0.25 0.383,0.504 0.812,0.766c0.104,-0.07 0.243,-0.336 0.429,-0.813c0.133,-0.363 0.301,-0.543 0.51,-0.543c0.087,0 0.186,0.012 0.284,0.033c0.475,0.477 0.695,1.049 0.666,1.729c0.012,0.59 -0.156,1.07 -0.504,1.436c-0.342,0.371 -0.678,0.604 -0.991,0.707c-0.318,0.1 -0.567,0.139 -0.747,0.115c-1.043,0 -1.681,-0.596 -1.918,-1.795c-0.035,-0.51 -0.052,-1.055 -0.052,-1.635c0.816,-3.359 3.019,-6.037 6.604,-8.029v-0.053c0.203,0.035 0.302,0.104 0.302,0.209c0,0.057 -0.047,0.18 -0.15,0.365C45.62,12.975 45.573,13.107 45.573,13.188z" id="path_0"/><path fill="#399121" d="M40.081,27.18l-0.933,0.088l-0.186,-0.289c3.25,-1.699 5.759,-3.309 7.538,-4.838c-0.592,-0.203 -0.997,-0.424 -1.223,-0.662c-0.614,-0.416 -0.922,-1.129 -0.922,-2.137c-0.046,-2.045 0.684,-3.576 2.196,-4.584c0.498,-0.383 1.298,-0.475 2.398,-0.271c1.153,0.625 1.732,1.373 1.732,2.26c0.296,3.348 -1.906,6.367 -6.594,9.061C42.606,26.475 41.274,26.932 40.081,27.18L40.081,27.18zM48.777,19.631c0.423,-0.174 0.632,-0.457 0.632,-0.869c0,-0.713 -0.307,-1.24 -0.916,-1.576c-0.625,-0.26 -1.32,-0.271 -2.091,-0.035c-0.51,0.371 -0.771,0.725 -0.782,1.049c-0.029,0.32 0.196,0.766 0.684,1.344c0.475,0.227 0.846,0.344 1.118,0.344C47.787,19.961 48.239,19.881 48.777,19.631z" id="path_1"/><path fill="#0000FF" d="M23.475,34.369c0.272,-0.18 0.411,-0.145 0.411,0.104c-0.307,0.666 -0.753,1.68 -1.345,3.037c-0.903,2.316 -1.355,4.275 -1.355,5.875c0,1.953 0.644,3.518 1.936,4.682c2.295,2.127 4.971,3.191 8.03,3.191c1.223,0 2.434,-0.186 3.633,-0.561c3.314,-1.084 5.736,-2.607 7.266,-4.578c0.452,-0.631 0.678,-1.344 0.678,-2.139c0,-0.914 -0.44,-2.305 -1.326,-4.172c-0.76,-0.631 -1.136,-1.627 -1.136,-2.982c0,-0.309 0.018,-0.766 0.052,-1.379c0.035,-0.609 0.053,-1.055 0.053,-1.334c0,-0.271 0.069,-0.678 0.22,-1.211c0.168,-0.033 0.267,0.029 0.302,0.197c0.034,0.162 0.069,0.262 0.104,0.295c0.771,1.223 2.04,2.023 3.818,2.395c2.23,0.133 3.894,-0.563 4.989,-2.086c0.33,-1.293 0.684,-2.307 1.055,-3.043c0.417,0.07 0.625,0.301 0.625,0.695c-0.028,0.66 -0.046,0.969 -0.046,0.939c0.44,1.662 1.239,2.67 2.393,3.035c1.188,0.336 2.149,0.227 2.886,-0.342c0.069,-0.133 0.029,-0.277 -0.122,-0.428c-0.145,-0.156 -0.202,-0.268 -0.168,-0.336l0.221,-4.514c0.249,-0.156 0.405,-0.221 0.475,-0.186c0.725,0.689 1.147,1.68 1.274,2.973c0.012,3.789 -0.55,6.262 -1.68,7.416c-0.852,0.307 -1.611,0.457 -2.277,0.457c-0.857,0 -1.64,-0.254 -2.341,-0.764c-0.927,-0.701 -1.478,-1.797 -1.646,-3.291c-0.33,0.301 -0.614,0.74 -0.852,1.303c-0.336,0.689 -0.579,1.137 -0.729,1.344c-1.177,1.223 -2.51,1.832 -4.004,1.832c-0.389,0 -0.765,-0.059 -1.136,-0.168c-0.035,0.348 -0.099,1.57 -0.191,3.668c-0.029,1.559 -0.272,2.752 -0.713,3.58c-1.188,2.781 -2.949,4.844 -5.296,6.176c-2.34,1.338 -4.768,2.006 -7.282,2.006c-3.743,0 -6.611,-1.414 -8.604,-4.236c-1.42,-2.039 -2.126,-4.414 -2.126,-7.133c0,-1.732 0.435,-3.76 1.297,-6.094c0.349,-0.725 0.73,-1.496 1.153,-2.324C22.385,35.447 22.89,34.809 23.475,34.369z" id="path_2"/></svg>