<svg id="vector" xmlns="http://www.w3.org/2000/svg" width="75" height="67" viewBox="0 0 83 73"><path fill="#399121" d="M35.772,58.951l1.055,-3.107l10.232,-4.529c0.139,-0.023 0.203,-0.006 0.203,0.051c0,0.035 -0.018,0.123 -0.053,0.273l-1.373,3.256l-9.826,4.414c-0.128,0.012 -0.203,0.012 -0.238,0C35.727,59.24 35.727,59.125 35.772,58.951z" id="path_0"/><path fill="#399121" d="M35.772,54.42l1.055,-3.105l10.232,-4.531c0.139,-0.023 0.203,-0.006 0.203,0.053c0,0.027 -0.018,0.121 -0.053,0.266l-1.373,3.262l-9.826,4.416c-0.128,0.012 -0.203,0.012 -0.238,0C35.727,54.709 35.727,54.588 35.772,54.42z" id="path_1"/><path fill="#914d21" d="M34.899,31.529v-0.17c0.572,-0.8 1.389,-1.885 2.462,-3.268h0.116c0.222,0.239 0.829,0.729 1.832,1.471c0.479,0.355 0.962,0.712 1.452,1.079c0.549,-0.765 1.283,-1.732 2.205,-2.905h0.117c0.869,0.922 1.954,1.756 3.267,2.509c0.034,0.022 0.052,0.075 0.052,0.157L44.011,33.6c-0.011,0.023 -0.046,0.029 -0.104,0.029c-0.082,0 -0.204,-0.023 -0.379,-0.082c-0.806,-0.379 -1.814,-1.172 -3.022,-2.393v-0.018l-2.1,2.818c-0.012,0.023 -0.047,0.035 -0.105,0.035c-0.081,0 -0.204,-0.029 -0.373,-0.088C37.116,33.529 36.107,32.736 34.899,31.529z" id="path_2"/><path fill="#914d21" d="M56.943,40.934c-1.837,1.174 -4.211,2.125 -7.128,2.854c-4.445,1.004 -8.213,1.492 -11.305,1.477c-3.092,-0.018 -5.495,-0.316 -7.204,-0.898c-1.71,-0.578 -3.209,-1.588 -4.492,-3.021c-1.108,-1.268 -1.756,-2.736 -1.948,-4.41c-0.251,-2.357 0.321,-4.9 1.727,-7.625c0.146,-0.135 0.292,-0.298 0.443,-0.484c0.146,-0.187 0.315,-0.269 0.496,-0.233l-0.018,0.414c-0.775,1.662 -1.196,3.146 -1.266,4.44c-0.035,0.453 -0.035,0.77 0,0.938c0.478,2.188 2.135,3.729 4.976,4.621c1.592,0.543 3.261,0.881 5.005,1.004c0.274,0.012 0.7,0.045 1.283,0.104c3.564,0.012 7.887,-0.408 12.968,-1.266c2.939,-0.547 5.034,-1.289 6.276,-2.223c-0.082,-0.373 -0.361,-0.799 -0.84,-1.271s-0.77,-0.898 -0.869,-1.271c-0.07,-1.504 0.018,-3.045 0.257,-4.614l0.204,-0.018c1.581,1.786 2.462,3.687 2.631,5.688C58.344,37.475 57.947,39.406 56.943,40.934z" id="path_3"/></svg>