<svg id="vector" xmlns="http://www.w3.org/2000/svg" width="75" height="67" viewBox="0 0 83 73"><path fill="#f06022" d="M42.236,12.869c-0.41,0.475 -1.123,1.159 -2.143,2.051c-1.014,0.898 -1.727,1.64 -2.139,2.226c-0.631,0.903 -0.955,1.587 -0.967,2.039c0,0.324 0.051,0.591 0.156,0.794c0.109,0.249 0.383,0.504 0.811,0.765c0.104,-0.069 0.244,-0.336 0.43,-0.812c0.133,-0.365 0.301,-0.544 0.51,-0.544c0.086,0 0.186,0.012 0.283,0.034c0.475,0.476 0.695,1.049 0.666,1.727c0.012,0.591 -0.156,1.072 -0.504,1.438c-0.342,0.37 -0.678,0.603 -0.99,0.706c-0.318,0.099 -0.568,0.14 -0.748,0.116c-1.043,0 -1.68,-0.597 -1.918,-1.796c-0.035,-0.51 -0.053,-1.055 -0.053,-1.634c0.818,-3.361 3.02,-6.038 6.605,-8.03v-0.053c0.203,0.035 0.303,0.104 0.303,0.209c0,0.058 -0.047,0.18 -0.152,0.364C42.283,12.654 42.236,12.788 42.236,12.869z" id="path_0"/><path fill="#f06022" d="M36.744,26.861l-0.934,0.087l-0.184,-0.289c3.25,-1.698 5.758,-3.309 7.537,-4.838c-0.592,-0.203 -0.996,-0.424 -1.223,-0.661c-0.613,-0.417 -0.922,-1.13 -0.922,-2.138c-0.045,-2.045 0.684,-3.575 2.197,-4.583c0.498,-0.383 1.297,-0.476 2.398,-0.272c1.152,0.626 1.732,1.373 1.732,2.26c0.295,3.349 -1.906,6.367 -6.594,9.062C39.27,26.154 37.938,26.612 36.744,26.861L36.744,26.861zM45.441,19.312c0.422,-0.174 0.631,-0.457 0.631,-0.868c0,-0.713 -0.307,-1.24 -0.916,-1.576c-0.625,-0.261 -1.32,-0.272 -2.09,-0.035c-0.512,0.371 -0.771,0.725 -0.783,1.049c-0.029,0.318 0.197,0.765 0.684,1.344c0.475,0.227 0.846,0.342 1.119,0.342C44.451,19.643 44.902,19.562 45.441,19.312z" id="path_1"/><path fill="#399121" d="M34.898,33.529v-0.17c0.572,-0.8 1.389,-1.885 2.463,-3.268h0.117c0.221,0.239 0.828,0.729 1.83,1.471c0.479,0.355 0.963,0.712 1.453,1.079c0.549,-0.765 1.283,-1.732 2.205,-2.905h0.117c0.869,0.922 1.953,1.756 3.266,2.509c0.035,0.022 0.053,0.075 0.053,0.157L44.012,35.6c-0.012,0.023 -0.047,0.029 -0.105,0.029c-0.082,0 -0.205,-0.023 -0.379,-0.082c-0.805,-0.379 -1.814,-1.172 -3.021,-2.393v-0.018l-2.102,2.818c-0.012,0.023 -0.045,0.035 -0.104,0.035c-0.082,0 -0.205,-0.029 -0.375,-0.088C37.115,35.529 36.107,34.736 34.898,33.529z" id="path_2"/><path fill="#399121" d="M56.943,42.934c-1.838,1.174 -4.211,2.125 -7.129,2.854c-4.443,1.004 -8.213,1.492 -11.305,1.477c-3.092,-0.018 -5.494,-0.316 -7.203,-0.898c-1.709,-0.578 -3.209,-1.588 -4.492,-3.021c-1.109,-1.268 -1.756,-2.736 -1.949,-4.41c-0.25,-2.357 0.322,-4.9 1.727,-7.625c0.146,-0.135 0.293,-0.298 0.443,-0.484c0.146,-0.187 0.316,-0.269 0.496,-0.233l-0.018,0.414c-0.775,1.662 -1.195,3.146 -1.266,4.44c-0.035,0.453 -0.035,0.77 0,0.938c0.479,2.188 2.135,3.729 4.977,4.621c1.592,0.543 3.26,0.881 5.004,1.004c0.275,0.012 0.701,0.045 1.283,0.104c3.564,0.012 7.889,-0.408 12.969,-1.266c2.939,-0.547 5.033,-1.289 6.275,-2.223c-0.08,-0.373 -0.361,-0.799 -0.84,-1.271c-0.477,-0.473 -0.77,-0.898 -0.869,-1.271c-0.068,-1.504 0.018,-3.045 0.258,-4.614l0.203,-0.018c1.582,1.786 2.463,3.687 2.631,5.688C58.344,39.475 57.947,41.406 56.943,42.934z" id="path_3"/></svg>