<svg id="vector" xmlns="http://www.w3.org/2000/svg" width="75" height="67" viewBox="0 0 83 73"><path fill="#000001" d="M49.066,48.065c1.32,0.092 2.619,0.139 3.887,0.139c3.111,0 6.107,-0.348 8.992,-1.037c0.105,-0.098 0.158,-0.203 0.158,-0.301c0,-0.07 -0.076,-0.203 -0.221,-0.4c-0.15,-0.203 -0.227,-0.336 -0.227,-0.4c-0.928,-1.221 -2.369,-2.369 -4.328,-3.43c-3.018,-1.721 -4.6,-2.613 -4.734,-2.682c0,-1.699 0.123,-3.326 0.359,-4.891l0.645,0.203c1.98,1.084 3.939,2.166 5.875,3.238c2.225,1.426 3.5,3.146 3.818,5.156c0.201,0.701 0.301,1.414 0.301,2.139c0,1.494 -0.492,3.371 -1.488,5.631c-2.48,1.258 -5.91,1.885 -10.291,1.885c-1.355,0 -2.52,-0.1 -3.494,-0.291C48.318,52.653 48.568,51.003 49.066,48.065z" id="path_0"/><path fill="#B60B47" d="M44.791,34.925c-0.105,0.271 -0.285,0.551 -0.545,0.834c-0.168,0.053 -0.297,0.018 -0.377,-0.121c-0.029,-0.07 -0.041,-0.209 -0.023,-0.424s0.006,-0.359 -0.023,-0.424c0,-0.104 0.023,-0.254 0.064,-0.463c-0.336,-0.18 -0.695,-0.26 -1.066,-0.248c-0.354,0.027 -1.066,0.301 -2.139,0.811c-2.254,1.564 -3.869,3.023 -4.855,4.381c-1.043,1.494 -1.459,2.809 -1.256,3.957c0.678,0.822 1.916,1.199 3.719,1.117c2.021,-0.057 3.367,0.135 4.021,0.58c0.227,0.238 0.371,0.742 0.439,1.506c0.25,1.779 0.141,3.314 -0.336,4.607c-0.354,1.414 -1.205,3.117 -2.549,5.109c-1.641,1.832 -3.221,3.199 -4.734,4.107c-1.697,0.998 -3.395,1.543 -5.092,1.646c-1.258,0.092 -2.533,-0.082 -3.818,-0.51c-2.156,-0.73 -3.854,-1.959 -5.111,-3.697c-0.973,-1.326 -1.529,-3.141 -1.662,-5.451c-0.215,-3.373 0.498,-6.549 2.139,-9.537c0.543,-0.807 0.846,-1.246 0.914,-1.326c0.371,-0.395 0.777,-0.645 1.205,-0.748c0.035,0.51 -0.127,1.061 -0.475,1.65c-0.354,0.586 -0.684,1.137 -1.002,1.646c-1.008,2.172 -1.355,4.449 -1.055,6.842c0.613,1.697 1.611,3.111 3.002,4.248c1.385,1.141 2.943,1.777 4.676,1.912c0.619,0.104 1.279,0.127 1.98,0.068c1.564,-0.08 3.164,-0.516 4.797,-1.309c1.635,-0.789 2.979,-1.709 4.033,-2.746c0.465,-0.498 1.137,-1.246 2.021,-2.242c0.076,-0.168 0.076,-0.389 0,-0.65c-0.092,-0.213 -0.26,-0.33 -0.51,-0.354c-1.385,-0.039 -2.77,-0.086 -4.158,-0.139c-1.6,-0.203 -2.654,-0.932 -3.176,-2.189c-0.238,-0.486 -0.371,-1.084 -0.406,-1.785c-0.035,-0.557 -0.018,-1.268 0.047,-2.137c0.139,-1.137 0.215,-1.838 0.227,-2.109c0.463,-2.365 1.465,-4.625 3.018,-6.779c1.553,-2.156 3.406,-3.848 5.568,-5.07c0.475,-0.074 0.955,-0.168 1.443,-0.266c0.543,-0.07 0.984,0.098 1.326,0.51c0.227,0.348 0.354,0.736 0.389,1.17c0.012,0.406 -0.105,1.055 -0.348,1.941C44.859,33.731 44.756,34.427 44.791,34.925z" id="path_1"/><path fill="#399121" d="M48.016,23.259l1.055,-3.139l10.232,-4.498c0.139,-0.033 0.203,-0.016 0.203,0.053c0,0.035 -0.018,0.115 -0.053,0.256l-1.373,3.256l-9.826,4.398c-0.127,0.01 -0.203,0.01 -0.238,0C47.969,23.515 47.969,23.409 48.016,23.259z" id="path_2"/><path fill="#399121" d="M48.016,23.259l1.055,-3.139l10.232,-4.498c0.139,-0.033 0.203,-0.016 0.203,0.053c0,0.035 -0.018,0.115 -0.053,0.256l-1.373,3.256l-9.826,4.398c-0.127,0.01 -0.203,0.01 -0.238,0C47.969,23.515 47.969,23.409 48.016,23.259z" id="path_3"/><path fill="#399121" d="M48.016,18.728l1.055,-3.139l10.232,-4.496c0.139,-0.035 0.203,-0.018 0.203,0.051c0,0.029 -0.018,0.117 -0.053,0.256l-1.373,3.256l-9.826,4.398c-0.127,0.033 -0.203,0.033 -0.238,0C47.969,18.983 47.969,18.88 48.016,18.728z" id="path_4"/></svg>