<svg id="vector" xmlns="http://www.w3.org/2000/svg" width="75" height="67" viewBox="0 0 83 73"><path fill="#000000" d="M49.426,17.349c-0.404,0.468 -1.106,1.141 -2.11,2.019c-0.998,0.884 -1.699,1.614 -2.104,2.19c-0.621,0.89 -0.94,1.563 -0.952,2.008c0,0.319 0.052,0.581 0.154,0.781c0.108,0.245 0.376,0.496 0.798,0.753c0.104,-0.068 0.24,-0.331 0.423,-0.799c0.131,-0.359 0.296,-0.536 0.501,-0.536c0.086,0 0.183,0.012 0.28,0.034c0.468,0.468 0.684,1.032 0.655,1.699c0.012,0.582 -0.153,1.056 -0.496,1.415c-0.337,0.365 -0.667,0.593 -0.976,0.695c-0.313,0.098 -0.559,0.137 -0.735,0.114c-1.026,0 -1.654,-0.587 -1.888,-1.768c-0.034,-0.502 -0.051,-1.038 -0.051,-1.608c0.804,-3.308 2.971,-5.943 6.501,-7.905v-0.051c0.2,0.034 0.297,0.103 0.297,0.205c0,0.057 -0.046,0.177 -0.148,0.359S49.426,17.269 49.426,17.349L49.426,17.349zM44.02,31.122c1.175,-0.245 2.486,-0.696 3.946,-1.352c4.614,-2.652 6.781,-5.624 6.49,-8.92c0,-0.873 -0.57,-1.608 -1.705,-2.225c-1.084,-0.199 -1.87,-0.108 -2.361,0.269c-1.488,0.992 -2.207,2.497 -2.161,4.511c0,0.992 0.302,1.694 0.906,2.104c0.223,0.233 0.622,0.45 1.203,0.65c-1.75,1.506 -4.22,3.091 -7.419,4.762l0.182,0.285L44.02,31.122L44.02,31.122zM52.58,23.69c0.416,-0.171 0.621,-0.45 0.621,-0.855c0,-0.701 -0.302,-1.221 -0.9,-1.551c-0.616,-0.257 -1.301,-0.269 -2.06,-0.035c-0.502,0.365 -0.759,0.713 -0.77,1.033c-0.028,0.313 0.193,0.753 0.673,1.322c0.468,0.223 0.833,0.337 1.101,0.337C51.604,24.016 52.05,23.936 52.58,23.69z" id="path_0"/><path fill="#399121" d="M41.415,49.66c-0.104,0.177 -0.301,0.511 -0.595,0.995c-0.681,1.354 -1.381,2.276 -2.107,2.761c-0.438,0.268 -1.523,0.667 -3.258,1.19c-1.576,0.51 -3.905,1.151 -7,1.917c-0.687,0.137 -1.033,0.11 -1.033,-0.079c0,-0.176 0.184,-0.398 0.556,-0.667c4.775,-3.415 8.95,-6.038 12.516,-7.884c0.307,-0.11 0.589,-0.568 0.843,-1.373c0.498,-1.367 0.806,-2.186 0.923,-2.454c0.059,-0.104 0.465,-0.798 1.204,-2.073c1.099,-1.394 2.172,-2.768 3.219,-4.122c1.406,-1.432 2.858,-2.146 4.351,-2.146c0.307,0 0.614,0.014 0.922,0.04c1.25,0.614 2.002,1.295 2.244,2.047c0.916,1.459 1.38,3.219 1.38,5.273c0,3.134 -0.922,6.116 -2.76,8.949c-0.498,0.157 -1.008,0.229 -1.531,0.229c-1.361,0 -3.003,-0.459 -4.946,-1.381c-1.445,-0.713 -2.917,-1.472 -4.409,-2.276L41.415,49.66L41.415,49.66zM45.301,43.609c2.152,1.419 4.351,2.355 6.595,2.8c0.118,0 0.209,-0.111 0.269,-0.347c0.13,-0.405 -0.033,-1.008 -0.478,-1.799c-0.668,-1.1 -1.459,-1.852 -2.375,-2.264c-1.001,-0.327 -2.009,-0.15 -3.029,0.536C45.799,43 45.472,43.354 45.301,43.609z" id="path_1"/></svg>