<svg id="vector" xmlns="http://www.w3.org/2000/svg" width="75" height="67" viewBox="0 0 83 73"><path fill="#399121" d="M35.773,60.037l1.055,-3.105L47.06,52.4c0.14,-0.023 0.203,-0.006 0.203,0.053c0,0.035 -0.018,0.121 -0.053,0.271l-1.373,3.256l-9.826,4.416c-0.128,0.012 -0.203,0.012 -0.237,0C35.727,60.326 35.727,60.211 35.773,60.037z" id="path_0"/><path fill="#399121" d="M35.773,55.506l1.055,-3.105l10.231,-4.531c0.14,-0.023 0.203,-0.006 0.203,0.053c0,0.029 -0.018,0.121 -0.053,0.266l-1.373,3.264l-9.826,4.414c-0.128,0.012 -0.203,0.012 -0.237,0C35.727,55.797 35.727,55.674 35.773,55.506z" id="path_1"/><path fill="#000000" d="M28.055,41.541c1.049,0.029 2.428,-0.035 4.126,-0.209c1.924,-0.201 3.279,-0.301 4.073,-0.301c0.237,0 0.539,-0.186 0.897,-0.545c0.308,-0.723 0.608,-1.436 0.916,-2.143c0.354,-0.824 0.527,-1.588 0.527,-2.289c0.069,-1.906 0.058,-4.49 -0.035,-7.764c-0.093,-3.895 -0.139,-6.49 -0.139,-7.781c0,-1.096 0.011,-2.139 0.034,-3.123c0.308,-1.078 0.841,-2.678 1.611,-4.793l0.37,0.309c0.035,0.133 0.151,0.996 0.359,2.596c0.134,1.02 0.365,1.836 0.695,2.461l-0.139,0.047c0.735,0.91 1.106,1.588 1.106,2.039c0,0.238 -0.087,0.545 -0.255,0.916c-0.272,0.498 -0.429,0.799 -0.458,0.898l-1.31,2.039c0,2.045 0,5.342 0,9.891c0,0.035 -0.058,0.186 -0.168,0.445c-0.034,0.168 -0.017,0.318 0.053,0.459c2.149,-3.262 5,-4.891 8.552,-4.891c0.452,0 0.909,0.035 1.373,0.104c2.561,0.656 4.346,2.006 5.365,4.045c-0.313,5.342 -2.086,8.477 -5.313,9.422c-4.671,1.361 -8.419,2.039 -11.241,2.039c-2.155,0 -4.079,-0.354 -5.776,-1.055c-1.355,-0.336 -3.32,-1.055 -5.893,-2.139C27.389,42.08 27.615,41.854 28.055,41.541L28.055,41.541zM47.656,34.443c-0.272,-0.035 -0.567,-0.053 -0.887,-0.053c-1.761,0 -3.459,0.65 -5.087,1.947c-1.431,1.137 -2.602,2.613 -3.517,4.439c2.41,-0.07 5.689,-0.406 9.826,-1.004c0.342,-0.139 1.274,-0.398 2.805,-0.781c1.152,-0.307 2.057,-0.637 2.717,-1.002v-0.615C51.84,35.619 49.887,34.641 47.656,34.443z" id="path_2"/></svg>