<svg id="vector" xmlns="http://www.w3.org/2000/svg" width="75" height="67" viewBox="0 0 83 73"><path fill="#399121" d="M42.236,16.304c-0.41,0.475 -1.123,1.158 -2.143,2.051c-1.014,0.898 -1.727,1.639 -2.139,2.225c-0.631,0.904 -0.955,1.588 -0.967,2.039c0,0.324 0.051,0.592 0.156,0.795c0.109,0.248 0.383,0.504 0.811,0.764c0.104,-0.07 0.244,-0.336 0.43,-0.811c0.133,-0.365 0.301,-0.545 0.51,-0.545c0.086,0 0.186,0.012 0.283,0.035c0.475,0.475 0.695,1.049 0.666,1.727c0.012,0.59 -0.156,1.072 -0.504,1.436c-0.342,0.371 -0.678,0.604 -0.99,0.707c-0.318,0.1 -0.568,0.141 -0.748,0.117c-1.043,0 -1.68,-0.598 -1.918,-1.797c-0.035,-0.51 -0.053,-1.055 -0.053,-1.633c0.818,-3.361 3.02,-6.039 6.605,-8.031v-0.053c0.203,0.035 0.303,0.105 0.303,0.209c0,0.059 -0.047,0.18 -0.152,0.365C42.283,16.089 42.236,16.222 42.236,16.304z" id="path_0"/><path fill="#399121" d="M36.744,30.296l-0.934,0.086l-0.184,-0.289c3.25,-1.697 5.758,-3.309 7.537,-4.838c-0.592,-0.203 -0.996,-0.424 -1.223,-0.66c-0.613,-0.418 -0.922,-1.131 -0.922,-2.139c-0.045,-2.045 0.684,-3.574 2.197,-4.584c0.498,-0.381 1.297,-0.475 2.398,-0.271c1.152,0.625 1.732,1.373 1.732,2.26c0.295,3.35 -1.906,6.367 -6.594,9.063C39.27,29.589 37.938,30.046 36.744,30.296L36.744,30.296zM45.441,22.745c0.422,-0.174 0.631,-0.457 0.631,-0.869c0,-0.713 -0.307,-1.238 -0.916,-1.576c-0.625,-0.26 -1.32,-0.271 -2.09,-0.033c-0.512,0.371 -0.771,0.725 -0.783,1.049c-0.029,0.318 0.197,0.764 0.684,1.344c0.475,0.227 0.846,0.342 1.119,0.342C44.451,23.075 44.902,22.995 45.441,22.745z" id="path_1"/><path fill="#004AFA" d="M34.611,52.421c1.32,0.094 2.618,0.139 3.888,0.139c3.111,0 6.106,-0.348 8.992,-1.037c0.104,-0.098 0.156,-0.201 0.156,-0.301c0,-0.07 -0.075,-0.203 -0.22,-0.4c-0.151,-0.201 -0.227,-0.336 -0.227,-0.398c-0.927,-1.223 -2.369,-2.371 -4.328,-3.43c-3.019,-1.723 -4.6,-2.613 -4.733,-2.684c0,-1.697 0.122,-3.326 0.359,-4.891l0.644,0.203c1.98,1.084 3.939,2.168 5.875,3.238c2.225,1.426 3.499,3.146 3.817,5.158c0.203,0.701 0.302,1.412 0.302,2.137c0,1.496 -0.492,3.373 -1.489,5.633c-2.479,1.256 -5.909,1.883 -10.29,1.883c-1.355,0 -2.521,-0.1 -3.494,-0.289C33.863,57.011 34.113,55.358 34.611,52.421z" id="path_2"/></svg>