<svg id="vector" xmlns="http://www.w3.org/2000/svg" width="75" height="67" viewBox="0 0 83 73"><path fill="#f06022" d="M35.772,20.824l1.055,-3.14l10.232,-4.496c0.139,-0.035 0.202,-0.018 0.202,0.052c0,0.035 -0.017,0.116 -0.052,0.255l-1.373,3.257l-9.826,4.397c-0.128,0.012 -0.203,0.012 -0.238,0C35.727,21.079 35.727,20.976 35.772,20.824z" id="path_0"/><path fill="#f06022" d="M35.772,20.824l1.055,-3.14l10.232,-4.496c0.139,-0.035 0.202,-0.018 0.202,0.052c0,0.035 -0.017,0.116 -0.052,0.255l-1.373,3.257l-9.826,4.397c-0.128,0.012 -0.203,0.012 -0.238,0C35.727,21.079 35.727,20.976 35.772,20.824z" id="path_1"/><path fill="#f06022" d="M35.772,16.294l1.055,-3.141L47.06,8.657c0.139,-0.035 0.202,-0.018 0.202,0.052c0,0.029 -0.017,0.116 -0.052,0.255l-1.373,3.257l-9.826,4.397c-0.128,0.035 -0.203,0.035 -0.238,0C35.727,16.549 35.727,16.444 35.772,16.294z" id="path_2"/><path fill="#399121" d="M38.35,40.662l-2.665,-1.85c-0.17,-1.254 -0.123,-2.957 0.151,-5.127l0.583,0.211c1.254,0.828 3.18,1.994 5.775,3.5c1.814,-1.57 3.512,-2.859 5.093,-3.863c0.548,-0.191 0.787,-0.104 0.717,0.258c-0.273,0.799 -0.974,1.615 -2.1,2.461c-1.243,0.969 -2.048,1.703 -2.409,2.205c2.274,1.639 3.559,3.559 3.844,5.758c0.105,3.045 -0.309,5.279 -1.23,6.721c-1.038,1.697 -2.87,2.631 -5.501,2.799c-1.919,0.123 -3.418,-0.506 -4.515,-1.895c-0.741,-0.98 -1.108,-2.135 -1.108,-3.471c0,-1.33 0.367,-2.789 1.108,-4.357c0.181,-0.525 0.513,-1.121 0.991,-1.797C37.516,41.701 37.941,41.188 38.35,40.662L38.35,40.662zM39.395,41.689c-1.004,1.33 -1.722,2.367 -2.158,3.109c-0.239,0.408 -0.356,0.811 -0.356,1.195c0,0.91 0.49,1.609 1.47,2.1c0.765,0.379 1.657,0.566 2.684,0.566c1.015,0 1.901,-0.17 2.666,-0.514c1.026,-0.455 1.709,-0.939 2.048,-1.453c-0.52,-0.955 -1.412,-1.889 -2.666,-2.799c-1.056,-0.73 -2.106,-1.465 -3.145,-2.205H39.395z" id="path_3"/><path fill="#399121" d="M34.984,27.041v-0.169c0.571,-0.799 1.388,-1.884 2.461,-3.267h0.117c0.222,0.239 0.828,0.729 1.832,1.47c0.478,0.356 0.962,0.712 1.452,1.079c0.548,-0.764 1.283,-1.732 2.205,-2.904h0.116c0.869,0.921 1.954,1.756 3.267,2.508c0.035,0.023 0.053,0.076 0.053,0.158l-2.392,3.196c-0.012,0.023 -0.047,0.029 -0.104,0.029c-0.082,0 -0.205,-0.023 -0.38,-0.082c-0.805,-0.379 -1.814,-1.172 -3.021,-2.392V26.65l-2.1,2.818c-0.012,0.022 -0.047,0.034 -0.105,0.034c-0.082,0 -0.204,-0.029 -0.373,-0.087C37.201,29.042 36.191,28.249 34.984,27.041z" id="path_4"/></svg>