<svg id="vector" xmlns="http://www.w3.org/2000/svg" width="75" height="67" viewBox="0 0 83 73"><path fill="#0DCAAD" d="M38.177,44.67c-1.698,-0.759 -2.654,-2.792 -2.868,-6.095c-0.812,-12.562 -1.246,-19.381 -1.298,-20.453c0.11,-0.475 0.423,-0.695 0.944,-0.666c0.348,0 0.812,0.15 1.379,0.446c0.573,0.29 1.072,0.452 1.507,0.481c0.429,0.029 0.626,-0.127 0.591,-0.469c-1.936,-1.356 -3.662,-2.185 -5.18,-2.474c-0.342,-0.081 -0.626,0.041 -0.863,0.354c-0.082,1.674 -0.104,3.378 -0.07,5.11c0.035,2.051 0.191,5.128 0.47,9.236c0.284,4.108 0.452,7.208 0.504,9.299c0.162,2.613 0.51,4.652 1.061,6.113c0.56,1.398 1.431,2.511 2.614,3.337c0.591,-1.358 1.128,-2.788 1.598,-4.1C38.436,44.752 38.307,44.712 38.177,44.67z" id="path_0"/><path fill="#000001" d="M41.862,45.18c-1.019,0.079 -2.118,-0.05 -3.297,-0.391c-0.47,1.312 -1.007,2.742 -1.598,4.1c0.542,0.379 1.15,0.697 1.823,0.956c3.599,0.214 5.969,-0.655 7.109,-2.613c1.021,-1.866 1.432,-3.98 1.24,-6.351c-0.034,-1.946 -0.376,-3.726 -1.037,-5.348c-0.608,0.782 -0.979,1.431 -1.112,1.935c-0.127,0.51 -0.069,1.31 0.18,2.399c0.168,0.44 0.336,0.892 0.492,1.356c0.203,0.591 0.313,1.072 0.325,1.442c0.249,0.817 -0.169,1.437 -1.24,1.866C43.954,44.874 42.992,45.087 41.862,45.18z" id="path_1"/><path fill="#000001" d="M44.487,54.242c-1.304,-0.748 -2.382,-1.588 -3.244,-2.515h-0.116c-1.066,1.373 -1.878,2.451 -2.445,3.245v0.168c1.199,1.199 2.208,1.987 3.024,2.358c0.168,0.058 0.284,0.087 0.354,0.087c0.058,0 0.099,-0.006 0.122,-0.018l2.357,-3.192C44.539,54.317 44.522,54.277 44.487,54.242z" id="path_2"/><path fill="#399121" d="M39.566,31.397l1.021,-3.042l9.914,-4.356c0.135,-0.033 0.196,-0.017 0.196,0.051c0,0.034 -0.017,0.112 -0.051,0.247l-1.33,3.155l-9.521,4.261c-0.123,0.011 -0.196,0.011 -0.229,0C39.521,31.644 39.521,31.543 39.566,31.397L39.566,31.397zM39.566,27.007c-0.045,0.146 -0.045,0.247 0,0.314c0.033,0.034 0.106,0.034 0.229,0l9.521,-4.261l1.33,-3.155c0.034,-0.135 0.051,-0.219 0.051,-0.247c0,-0.067 -0.062,-0.084 -0.196,-0.05l-9.914,4.356L39.566,27.007z" id="path_3"/></svg>