<svg id="vector" xmlns="http://www.w3.org/2000/svg" width="75" height="67" viewBox="0 0 83 73"><path fill="#399121" d="M35.773,60.038l1.055,-3.107l10.231,-4.529c0.14,-0.023 0.203,-0.006 0.203,0.051c0,0.035 -0.018,0.123 -0.053,0.273l-1.373,3.256l-9.826,4.414c-0.128,0.012 -0.203,0.012 -0.237,0C35.727,60.327 35.727,60.21 35.773,60.038z" id="path_0"/><path fill="#399121" d="M35.773,55.507l1.055,-3.105L47.06,47.87c0.14,-0.023 0.203,-0.006 0.203,0.053c0,0.027 -0.018,0.121 -0.053,0.266l-1.373,3.262l-9.826,4.416c-0.128,0.012 -0.203,0.012 -0.237,0C35.727,55.796 35.727,55.675 35.773,55.507z" id="path_1"/><path fill="#914d21" d="M36.633,41.997c-0.95,0.035 -1.773,0.133 -2.463,0.289c-0.156,-0.121 -0.237,-0.295 -0.237,-0.51c2.566,-0.973 5.84,-2.543 9.809,-4.711c-0.034,0.059 0.632,-0.336 1.987,-1.188c0.962,-0.742 1.629,-1.438 2.005,-2.086c0,-0.846 -0.127,-1.773 -0.376,-2.775c-0.395,-0.881 -0.904,-1.813 -1.524,-2.799l0.521,-4.982h0.29c0.996,2.271 1.599,3.912 1.802,4.914c0.475,1.912 0.678,3.604 0.608,5.086c-0.012,0.928 -0.191,2.018 -0.545,3.273c-0.765,2.395 -2.393,3.971 -4.867,4.729C42.467,41.597 40.126,41.853 36.633,41.997z" id="path_2"/></svg>