<svg id="vector" xmlns="http://www.w3.org/2000/svg" width="75" height="67" viewBox="0 0 83 73"><path fill="#000001" d="M32.889,37.032c0.104,0 0.249,-0.094 0.44,-0.277c0.197,-0.191 0.377,-0.262 0.544,-0.215c0.059,0.395 -0.098,0.852 -0.457,1.373c-0.51,0.748 -0.8,1.199 -0.863,1.361c-1.09,1.738 -1.605,3.459 -1.547,5.156c0.081,2.027 1.025,3.842 2.833,5.441c1.813,1.6 3.755,2.457 5.829,2.572c0.521,0 1.037,0 1.547,0c2.543,-0.092 5.093,-0.766 7.642,-2.016c0.539,-0.424 1.102,-0.836 1.681,-1.24c0.644,-0.521 1.031,-1.09 1.153,-1.699c-0.157,-3.43 -0.58,-7.838 -1.258,-13.232c-0.857,-7.354 -1.385,-11.918 -1.576,-13.691c0.087,-1.176 0.343,-2.867 0.766,-5.076h0.15c0.261,1.01 0.736,2.486 1.425,4.428c0.128,0.398 0.551,1.17 1.27,2.322c0.631,0.951 0.962,1.732 0.996,2.348c0.012,0.451 -0.104,0.916 -0.348,1.391c0,0.336 -0.109,0.725 -0.324,1.152c-0.359,0.643 -0.557,1.02 -0.591,1.119c0.087,1.459 0.307,4.334 0.644,8.621c0.271,3.326 0.445,5.922 0.516,7.787c0.046,2.48 -0.689,4.814 -2.196,7.01c-1.513,2.191 -3.425,3.75 -5.748,4.664c-0.504,0.326 -1.883,0.713 -4.119,1.154c-4.132,0.248 -7.492,-1.344 -10.082,-4.787c-1.031,-1.789 -1.587,-3.828 -1.668,-6.129c-0.104,-3.291 0.694,-6.066 2.393,-8.314L32.889,37.032z" id="path_0"/><path fill="#399121" d="M42.237,10.87c-0.411,0.475 -1.124,1.158 -2.144,2.051c-1.014,0.898 -1.727,1.639 -2.139,2.225c-0.631,0.904 -0.955,1.588 -0.967,2.039c0,0.324 0.052,0.592 0.156,0.795c0.109,0.248 0.382,0.504 0.811,0.764c0.104,-0.07 0.244,-0.336 0.43,-0.811c0.133,-0.365 0.301,-0.545 0.51,-0.545c0.086,0 0.186,0.012 0.283,0.035c0.476,0.475 0.695,1.049 0.667,1.727c0.011,0.59 -0.157,1.072 -0.504,1.438c-0.342,0.369 -0.679,0.602 -0.991,0.705c-0.318,0.1 -0.568,0.141 -0.747,0.117c-1.044,0 -1.681,-0.598 -1.918,-1.797c-0.035,-0.51 -0.053,-1.055 -0.053,-1.633c0.817,-3.361 3.019,-6.039 6.605,-8.031V9.896c0.203,0.035 0.301,0.105 0.301,0.209c0,0.059 -0.046,0.18 -0.15,0.365S42.237,10.788 42.237,10.87z" id="path_1"/><path fill="#399121" d="M36.744,24.862l-0.933,0.086l-0.185,-0.289c3.25,-1.697 5.759,-3.309 7.537,-4.838c-0.591,-0.203 -0.996,-0.424 -1.223,-0.66c-0.613,-0.418 -0.921,-1.131 -0.921,-2.139c-0.046,-2.045 0.684,-3.574 2.196,-4.582c0.498,-0.383 1.298,-0.477 2.398,-0.273c1.153,0.627 1.732,1.373 1.732,2.26c0.295,3.35 -1.906,6.367 -6.594,9.063C39.271,24.155 37.938,24.612 36.744,24.862L36.744,24.862zM45.441,17.312c0.423,-0.174 0.632,-0.457 0.632,-0.869c0,-0.711 -0.308,-1.238 -0.916,-1.576c-0.625,-0.26 -1.32,-0.271 -2.091,-0.033c-0.511,0.371 -0.771,0.725 -0.783,1.049c-0.028,0.318 0.197,0.764 0.684,1.344c0.476,0.227 0.847,0.342 1.119,0.342C44.451,17.642 44.902,17.562 45.441,17.312z" id="path_2"/></svg>