<svg id="vector" xmlns="http://www.w3.org/2000/svg" width="75" height="67" viewBox="0 0 83 73"><path fill="#0000FF" d="M38.393,48.525c-1.699,-0.76 -2.654,-2.793 -2.869,-6.096c-0.811,-12.563 -1.246,-19.382 -1.299,-20.454c0.111,-0.475 0.424,-0.695 0.945,-0.666c0.348,0 0.811,0.15 1.379,0.446c0.574,0.289 1.072,0.452 1.506,0.48c0.43,0.029 0.627,-0.127 0.592,-0.469c-1.936,-1.356 -3.662,-2.185 -5.18,-2.475c-0.342,-0.081 -0.625,0.041 -0.863,0.354c-0.082,1.675 -0.104,3.378 -0.07,5.11c0.035,2.052 0.191,5.128 0.471,9.236c0.283,4.107 0.451,7.208 0.504,9.3c0.162,2.613 0.51,4.652 1.061,6.113c0.559,1.398 1.43,2.51 2.613,3.336c0.592,-1.357 1.129,-2.787 1.598,-4.1C38.65,48.605 38.521,48.566 38.393,48.525z" id="path_0"/><path fill="#914d21" d="M42.076,49.035c-1.018,0.078 -2.117,-0.051 -3.297,-0.393c-0.469,1.313 -1.006,2.742 -1.598,4.1c0.543,0.379 1.15,0.697 1.824,0.957c3.598,0.213 5.969,-0.656 7.109,-2.613c1.02,-1.865 1.432,-3.98 1.24,-6.352c-0.035,-1.945 -0.377,-3.725 -1.037,-5.348c-0.609,0.783 -0.98,1.432 -1.113,1.936c-0.127,0.51 -0.068,1.311 0.18,2.398c0.168,0.441 0.336,0.893 0.492,1.355c0.203,0.592 0.313,1.072 0.324,1.443c0.25,0.816 -0.168,1.438 -1.238,1.865C44.168,48.727 43.207,48.941 42.076,49.035z" id="path_1"/><path fill="#914d21" d="M44.592,37.495c-1.303,-0.747 -2.381,-1.588 -3.244,-2.515h-0.115c-1.066,1.373 -1.879,2.451 -2.445,3.245v0.168c1.199,1.199 2.207,1.987 3.023,2.358c0.168,0.059 0.283,0.088 0.354,0.088c0.059,0 0.098,-0.008 0.121,-0.018l2.359,-3.193C44.645,37.57 44.627,37.53 44.592,37.495z" id="path_2"/><path fill="#399121" d="M39.352,32.734l1.021,-3.043l9.914,-4.355c0.135,-0.034 0.195,-0.018 0.195,0.05c0,0.034 -0.016,0.112 -0.051,0.247l-1.33,3.155l-9.521,4.261c-0.123,0.011 -0.195,0.011 -0.229,0C39.307,32.981 39.307,32.881 39.352,32.734L39.352,32.734zM39.352,28.345c-0.045,0.146 -0.045,0.247 0,0.314c0.033,0.033 0.105,0.033 0.229,0l9.521,-4.261l1.33,-3.155c0.035,-0.135 0.051,-0.219 0.051,-0.247c0,-0.067 -0.061,-0.084 -0.195,-0.05l-9.914,4.355L39.352,28.345z" id="path_3"/></svg>