<svg id="vector" xmlns="http://www.w3.org/2000/svg" width="75" height="67" viewBox="0 0 83 73"><path fill="#000000" d="M26.673,28.172c0.035,0.063 0.063,0.168 0.099,0.301c-0.296,0.463 -0.713,1.164 -1.258,2.092c-0.984,1.523 -1.575,3.053 -1.778,4.582c-0.203,1.617 0.029,3.008 0.695,4.172c1.199,2.41 3.141,4.021 5.823,4.826c1.865,0.539 4.374,0.662 7.521,0.354c4.513,-1.256 7.253,-3.15 8.216,-5.689c-0.07,-1.779 -0.452,-3.43 -1.142,-4.959c-0.272,-0.631 -0.69,-1.564 -1.251,-2.799c-0.07,-0.984 0.012,-2.416 0.248,-4.281c0.197,-0.035 0.377,0.018 0.545,0.15c0.521,0.412 1.304,1.002 2.341,1.785c0.897,0.578 1.837,0.938 2.821,1.088c1.009,-1.709 2.012,-3.43 3.002,-5.162c1.396,-1.992 3.002,-3.146 4.82,-3.447c0.626,-0.215 1.287,-0.324 1.987,-0.324c1.565,0 3.141,0.439 4.739,1.32c1.49,1.461 2.237,2.689 2.237,3.686c0,0.168 -0.019,0.354 -0.052,0.557c-0.268,3.006 -1.449,5.244 -3.547,6.697c-3.169,1.629 -6.332,2.445 -9.49,2.445c-2.057,0 -3.917,-0.383 -5.58,-1.152c-0.354,-0.07 -0.527,0.018 -0.527,0.254c0.076,0.598 0.116,1.176 0.116,1.732c0,1.594 -0.29,3.176 -0.881,4.74c-0.985,2.531 -2.665,4.611 -5.04,6.223c-2.376,1.617 -4.942,2.422 -7.689,2.422c-2.821,0 -5.272,-0.828 -7.369,-2.492c-2.816,-2.236 -4.225,-5.457 -4.225,-9.67c0,-1.75 0.302,-3.377 0.898,-4.867c1.09,-2.051 2.196,-3.563 3.326,-4.537C26.505,28.189 26.639,28.172 26.673,28.172L26.673,28.172zM58.465,25.547c-0.354,-0.035 -0.678,-0.053 -0.985,-0.053c-2.329,0 -4.403,1.496 -6.212,4.484c0.621,0.273 1.131,0.389 1.524,0.354c0.661,0.035 1.292,0.053 1.906,0.053c3.731,0 6.849,-0.783 9.352,-2.342c-0.202,-0.486 -0.573,-0.902 -1.106,-1.238c-0.203,-0.141 -0.701,-0.418 -1.489,-0.854C60.261,25.535 59.27,25.402 58.465,25.547z" id="path_0"/><path fill="#399121" d="M47.297,55.688l1.055,-3.105l10.232,-4.531c0.139,-0.023 0.203,-0.006 0.203,0.053c0,0.035 -0.018,0.121 -0.053,0.271l-1.373,3.258l-9.826,4.414c-0.128,0.012 -0.203,0.012 -0.238,0C47.25,55.979 47.25,55.861 47.297,55.688z" id="path_1"/><path fill="#399121" d="M47.297,51.156l1.055,-3.105l10.232,-4.531c0.139,-0.021 0.203,-0.004 0.203,0.053c0,0.029 -0.018,0.121 -0.053,0.268l-1.373,3.262l-9.826,4.414c-0.128,0.012 -0.203,0.012 -0.238,0C47.25,51.447 47.25,51.324 47.297,51.156z" id="path_2"/><path fill="#000000" d="M46.318,18.457v-0.168c0.567,-0.795 1.379,-1.871 2.445,-3.244h0.116c0.863,0.926 1.94,1.766 3.244,2.514c0.035,0.035 0.053,0.076 0.053,0.133l-2.359,3.193c-0.022,0.012 -0.063,0.018 -0.121,0.018c-0.069,0 -0.186,-0.029 -0.354,-0.088C48.526,20.443 47.517,19.656 46.318,18.457z" id="path_3"/></svg>