<svg id="vector" xmlns="http://www.w3.org/2000/svg" width="75" height="67" viewBox="0 0 83 73"><path fill="#399121" d="M41.713,11.086c-0.411,0.475 -1.124,1.158 -2.144,2.051c-1.015,0.898 -1.727,1.639 -2.138,2.225c-0.632,0.904 -0.957,1.588 -0.968,2.039c0,0.324 0.052,0.592 0.156,0.795c0.11,0.248 0.382,0.504 0.812,0.764c0.104,-0.068 0.243,-0.336 0.428,-0.811c0.134,-0.365 0.302,-0.545 0.511,-0.545c0.087,0 0.185,0.012 0.284,0.035c0.475,0.475 0.695,1.049 0.666,1.727c0.012,0.59 -0.156,1.072 -0.504,1.438c-0.342,0.371 -0.678,0.602 -0.991,0.705c-0.319,0.1 -0.567,0.141 -0.747,0.117c-1.043,0 -1.681,-0.598 -1.918,-1.797c-0.035,-0.51 -0.053,-1.055 -0.053,-1.633c0.817,-3.361 3.02,-6.037 6.605,-8.031v-0.053c0.203,0.035 0.301,0.105 0.301,0.209c0,0.059 -0.046,0.18 -0.15,0.365C41.76,10.871 41.713,11.004 41.713,11.086z" id="path_0"/><path fill="#399121" d="M36.221,25.078l-0.934,0.086l-0.186,-0.289c3.251,-1.697 5.76,-3.309 7.539,-4.838c-0.592,-0.203 -0.997,-0.424 -1.223,-0.66c-0.614,-0.418 -0.922,-1.131 -0.922,-2.139c-0.046,-2.045 0.684,-3.574 2.196,-4.582c0.498,-0.383 1.298,-0.477 2.398,-0.273c1.153,0.627 1.732,1.373 1.732,2.26c0.296,3.35 -1.906,6.369 -6.593,9.063C38.746,24.371 37.414,24.828 36.221,25.078L36.221,25.078zM44.917,17.529c0.423,-0.174 0.632,-0.459 0.632,-0.869c0,-0.713 -0.307,-1.24 -0.916,-1.576c-0.625,-0.262 -1.32,-0.273 -2.091,-0.035c-0.511,0.371 -0.771,0.725 -0.782,1.049c-0.029,0.318 0.197,0.764 0.684,1.344c0.475,0.227 0.846,0.342 1.118,0.342C43.926,17.859 44.379,17.777 44.917,17.529z" id="path_1"/><path fill="#000000" d="M23.977,34.58c0.034,0.063 0.063,0.168 0.098,0.301c-0.295,0.463 -0.713,1.164 -1.257,2.092c-0.985,1.523 -1.576,3.053 -1.778,4.582c-0.203,1.617 0.028,3.008 0.695,4.172c1.199,2.41 3.14,4.021 5.822,4.826c1.865,0.539 4.375,0.662 7.521,0.354c4.513,-1.256 7.254,-3.15 8.215,-5.689c-0.069,-1.779 -0.451,-3.43 -1.141,-4.959c-0.273,-0.631 -0.689,-1.564 -1.252,-2.799c-0.07,-0.984 0.012,-2.416 0.25,-4.281c0.196,-0.035 0.375,0.018 0.544,0.15c0.521,0.412 1.304,1.002 2.341,1.785c0.898,0.578 1.836,0.938 2.821,1.088c1.009,-1.709 2.011,-3.43 3.001,-5.162c1.396,-1.992 3.002,-3.146 4.821,-3.447c0.626,-0.215 1.286,-0.324 1.987,-0.324c1.564,0 3.141,0.439 4.739,1.32c1.489,1.461 2.237,2.689 2.237,3.686c0,0.168 -0.018,0.354 -0.053,0.557c-0.267,3.006 -1.448,5.244 -3.547,6.697c-3.168,1.629 -6.332,2.445 -9.49,2.445c-2.057,0 -3.916,-0.383 -5.579,-1.152c-0.354,-0.07 -0.527,0.018 -0.527,0.254c0.075,0.598 0.116,1.176 0.116,1.732c0,1.594 -0.29,3.176 -0.881,4.74c-0.985,2.531 -2.665,4.611 -5.041,6.223c-2.375,1.617 -4.942,2.422 -7.688,2.422c-2.821,0 -5.272,-0.828 -7.37,-2.492c-2.816,-2.236 -4.224,-5.457 -4.224,-9.67c0,-1.75 0.302,-3.377 0.897,-4.867c1.09,-2.051 2.196,-3.563 3.326,-4.537C23.809,34.598 23.941,34.58 23.977,34.58L23.977,34.58zM55.768,31.955c-0.354,-0.035 -0.678,-0.053 -0.984,-0.053c-2.33,0 -4.404,1.496 -6.211,4.484c0.619,0.273 1.129,0.389 1.523,0.354c0.66,0.035 1.292,0.053 1.906,0.053c3.73,0 6.848,-0.783 9.352,-2.342c-0.203,-0.486 -0.574,-0.902 -1.107,-1.238c-0.203,-0.141 -0.7,-0.418 -1.488,-0.852C57.564,31.943 56.573,31.811 55.768,31.955z" id="path_2"/><path fill="#000000" d="M46.859,24.314v-0.168c0.568,-0.795 1.38,-1.871 2.445,-3.244h0.117c0.862,0.926 1.94,1.766 3.244,2.514c0.035,0.035 0.052,0.076 0.052,0.133l-2.358,3.193c-0.023,0.012 -0.063,0.018 -0.121,0.018c-0.07,0 -0.186,-0.029 -0.354,-0.088C49.068,26.301 48.06,25.514 46.859,24.314z" id="path_3"/></svg>