<svg id="vector" xmlns="http://www.w3.org/2000/svg" width="75" height="67" viewBox="0 0 83 73"><path fill="#000001" d="M53.86,25.858c-0.104,0.271 -0.284,0.55 -0.545,0.834c-0.168,0.053 -0.295,0.018 -0.377,-0.121c-0.028,-0.07 -0.04,-0.209 -0.022,-0.424s0.006,-0.359 -0.022,-0.423c0,-0.104 0.022,-0.255 0.063,-0.464c-0.336,-0.18 -0.695,-0.26 -1.066,-0.249c-0.353,0.028 -1.065,0.302 -2.137,0.812c-2.254,1.564 -3.871,3.024 -4.855,4.38c-1.043,1.495 -1.461,2.811 -1.258,3.958c0.678,0.822 1.918,1.199 3.72,1.117c2.022,-0.058 3.366,0.134 4.021,0.58c0.227,0.238 0.371,0.742 0.441,1.506c0.248,1.779 0.139,3.314 -0.336,4.607c-0.354,1.413 -1.205,3.117 -2.55,5.109c-1.64,1.831 -3.222,3.199 -4.733,4.108c-1.697,0.997 -3.396,1.541 -5.093,1.646c-1.258,0.092 -2.532,-0.081 -3.818,-0.51c-2.155,-0.73 -3.854,-1.959 -5.11,-3.697c-0.974,-1.326 -1.529,-3.141 -1.663,-5.451c-0.215,-3.373 0.498,-6.548 2.138,-9.537c0.545,-0.807 0.846,-1.246 0.916,-1.327c0.37,-0.394 0.776,-0.644 1.205,-0.747c0.034,0.51 -0.128,1.06 -0.476,1.65c-0.354,0.586 -0.684,1.136 -1.002,1.646c-1.008,2.172 -1.355,4.449 -1.055,6.842c0.614,1.698 1.61,3.111 3.001,4.248c1.385,1.141 2.943,1.777 4.676,1.912c0.62,0.104 1.281,0.127 1.981,0.068c1.564,-0.08 3.163,-0.516 4.798,-1.309c1.634,-0.788 2.979,-1.709 4.033,-2.746c0.463,-0.499 1.135,-1.246 2.021,-2.242c0.075,-0.169 0.075,-0.389 0,-0.65c-0.093,-0.214 -0.261,-0.33 -0.51,-0.354c-1.385,-0.04 -2.77,-0.086 -4.16,-0.139c-1.6,-0.203 -2.654,-0.933 -3.176,-2.189c-0.237,-0.486 -0.371,-1.084 -0.404,-1.785c-0.035,-0.557 -0.018,-1.269 0.045,-2.138c0.14,-1.136 0.215,-1.837 0.227,-2.108c0.463,-2.365 1.466,-4.625 3.02,-6.779c1.552,-2.156 3.406,-3.848 5.566,-5.07c0.476,-0.075 0.957,-0.168 1.443,-0.267c0.545,-0.069 0.985,0.099 1.327,0.511c0.226,0.348 0.354,0.735 0.388,1.17c0.012,0.406 -0.104,1.055 -0.348,1.941C53.929,24.665 53.825,25.36 53.86,25.858z" id="path_0"/><path fill="#399121" d="M35.773,65.659l1.055,-3.105l10.232,-4.531c0.139,-0.023 0.202,-0.005 0.202,0.053c0,0.035 -0.018,0.121 -0.052,0.272l-1.373,3.256l-9.826,4.415c-0.128,0.012 -0.203,0.012 -0.238,0C35.727,65.949 35.727,65.833 35.773,65.659z" id="path_1"/><path fill="#399121" d="M35.773,61.128l1.055,-3.105l10.232,-4.53c0.139,-0.023 0.202,-0.006 0.202,0.052c0,0.029 -0.018,0.122 -0.052,0.267l-1.373,3.263l-9.826,4.414c-0.128,0.012 -0.203,0.012 -0.238,0C35.727,61.419 35.727,61.297 35.773,61.128z" id="path_2"/></svg>