<svg id="vector" xmlns="http://www.w3.org/2000/svg" width="75" height="67" viewBox="0 0 83 73"><path fill="#000001" d="M43.881,40.17v-0.168c0.568,-0.795 1.379,-1.871 2.445,-3.246h0.115c0.221,0.238 0.823,0.725 1.82,1.461c0.475,0.354 0.955,0.707 1.442,1.072c0.544,-0.76 1.274,-1.721 2.19,-2.885h0.115c0.863,0.914 1.941,1.744 3.244,2.49c0.035,0.023 0.053,0.076 0.053,0.156l-2.375,3.176c-0.012,0.023 -0.047,0.029 -0.104,0.029c-0.081,0 -0.202,-0.023 -0.377,-0.082c-0.8,-0.377 -1.802,-1.164 -3.001,-2.375v-0.018l-2.086,2.799c-0.012,0.023 -0.047,0.035 -0.104,0.035c-0.081,0 -0.202,-0.029 -0.37,-0.088C46.083,42.156 45.08,41.369 43.881,40.17z" id="path_0"/><path fill="#000001" d="M46.205,35.279v-0.168c0.566,-0.793 1.384,-1.871 2.444,-3.238h0.122c0.846,0.926 1.93,1.754 3.238,2.49c0.023,0.035 0.035,0.088 0.035,0.156l-2.358,3.188c-0.022,0.012 -0.058,0.018 -0.104,0.018c-0.075,0 -0.197,-0.029 -0.354,-0.082C48.412,37.268 47.404,36.479 46.205,35.279z" id="path_1"/><path fill="#000001" d="M34.64,54.713V50.02c1.604,0.115 3.151,-0.307 4.63,-1.275c1.291,-1.105 2.26,-2.375 2.902,-3.801l0.597,-0.475c0.18,0.203 0.284,0.439 0.308,0.713c0,0.115 -0.053,0.406 -0.146,0.875c-0.099,0.469 -0.162,0.846 -0.196,1.129c0.058,0.748 0.359,1.461 0.897,2.139c0.852,0.59 1.802,0.869 2.856,0.834c0.857,-0.035 1.646,-0.266 2.358,-0.695c0.532,-0.342 0.95,-1.715 1.257,-4.125c0.076,-0.551 0.296,-0.945 0.66,-1.17c0.168,0.174 0.262,0.41 0.273,0.713c0.022,0.566 0.034,0.834 0.034,0.799c-0.208,0.961 0.394,2.01 1.796,3.158c0.58,0.371 1.275,0.539 2.086,0.504c0.806,-0.029 1.501,-0.256 2.092,-0.66c-0.411,-1.275 -0.591,-2.277 -0.545,-3.002c0.227,-0.939 0.655,-1.824 1.293,-2.648c0.747,1.188 1.105,2.504 1.083,3.941c-0.099,2.74 -0.429,4.605 -0.985,5.602c-0.191,0.545 -0.573,0.98 -1.152,1.305c-0.203,0.15 -0.789,0.336 -1.75,0.561c-1.831,0.105 -3.204,-0.527 -4.125,-1.883c-0.168,-0.545 -0.418,-1.02 -0.748,-1.424c-0.098,0.063 -0.354,0.613 -0.76,1.645c-0.207,0.395 -0.439,0.777 -0.7,1.135c-0.255,0.365 -0.556,0.633 -0.897,0.801c-0.533,0.203 -1.107,0.313 -1.732,0.324c-0.939,0.035 -1.884,-0.18 -2.834,-0.631c-1.332,-1.334 -1.93,-2.764 -1.779,-4.277c-0.104,0.023 -0.23,0.203 -0.376,0.539C39.495,53.217 37.363,54.568 34.64,54.713z" id="path_2"/><path fill="#914d21" d="M35.068,54.678c-2.816,0.023 -5.059,-0.893 -6.721,-2.752c-1.165,-1.32 -1.912,-3.17 -2.242,-5.551c-0.168,-2.127 -0.359,-4.225 -0.58,-6.299c-0.086,-1.83 -0.371,-5.301 -0.846,-10.4c-0.348,-4.199 -0.533,-7.625 -0.557,-10.271c0.023,-0.307 0.157,-0.73 0.406,-1.275c0.295,-0.098 0.563,-0.156 0.799,-0.168c0.453,-0.023 1.032,0.145 1.744,0.51c0.852,0.418 1.391,0.678 1.629,0.783c0.399,0.236 0.811,0.492 1.239,0.764c0.435,0.268 0.614,0.621 0.545,1.049c-0.318,0.012 -0.8,-0.109 -1.442,-0.365c-0.644,-0.254 -1.131,-0.383 -1.461,-0.383c-0.342,0.023 -0.678,0.174 -1.02,0.441l-0.423,0.563c0.452,8.621 0.962,15.313 1.53,20.064c-0.035,0.404 -0.047,0.822 -0.035,1.24c0.104,3.088 1.258,5.289 3.465,6.604c1.274,0.488 2.602,0.73 3.969,0.742V54.678z" id="path_3"/><path fill="#399121" d="M43.564,29.801l1.055,-3.105l10.232,-4.531c0.139,-0.023 0.203,-0.006 0.203,0.053c0,0.035 -0.018,0.121 -0.053,0.271l-1.373,3.256l-9.826,4.416c-0.128,0.012 -0.203,0.012 -0.238,0C43.518,30.09 43.518,29.975 43.564,29.801z" id="path_4"/><path fill="#399121" d="M43.564,25.27l1.055,-3.105l10.232,-4.531c0.139,-0.023 0.203,-0.006 0.203,0.053c0,0.029 -0.018,0.121 -0.053,0.266l-1.373,3.264l-9.826,4.414c-0.128,0.012 -0.203,0.012 -0.238,0C43.518,25.559 43.518,25.438 43.564,25.27z" id="path_5"/></svg>