<svg id="vector" xmlns="http://www.w3.org/2000/svg" width="75" height="67" viewBox="0 0 83 73"><path fill="#2b4ea1" d="M46.605,25.92v-0.168c0.566,-0.793 1.377,-1.871 2.443,-3.244h0.117c0.219,0.236 0.822,0.725 1.818,1.459c0.475,0.354 0.957,0.707 1.443,1.072c0.545,-0.76 1.275,-1.721 2.189,-2.885h0.117c0.861,0.914 1.939,1.744 3.244,2.49c0.035,0.023 0.051,0.076 0.051,0.156l-2.375,3.176c-0.012,0.023 -0.047,0.029 -0.104,0.029c-0.082,0 -0.203,-0.023 -0.377,-0.082c-0.799,-0.375 -1.803,-1.164 -3.002,-2.375v-0.018l-2.086,2.799c-0.012,0.023 -0.045,0.035 -0.104,0.035c-0.082,0 -0.203,-0.029 -0.371,-0.088C48.807,27.908 47.805,27.119 46.605,25.92z" id="path_0"/><path fill="#2b4ea1" d="M48.928,21.029v-0.168c0.568,-0.793 1.385,-1.871 2.445,-3.238h0.121c0.846,0.928 1.93,1.756 3.24,2.492c0.021,0.033 0.033,0.086 0.033,0.156l-2.357,3.186c-0.023,0.012 -0.059,0.018 -0.104,0.018c-0.076,0 -0.197,-0.029 -0.354,-0.08C51.135,23.018 50.127,22.229 48.928,21.029z" id="path_1"/><path fill="#2b4ea1" d="M26.019,33.689c0.272,-0.18 0.411,-0.145 0.411,0.105c-0.307,0.666 -0.753,1.68 -1.344,3.035c-0.904,2.318 -1.355,4.275 -1.355,5.875c0,1.953 0.643,3.518 1.935,4.682c2.294,2.127 4.972,3.193 8.03,3.193c1.223,0 2.434,-0.186 3.633,-0.563c3.314,-1.084 5.736,-2.607 7.266,-4.578c0.451,-0.631 0.678,-1.344 0.678,-2.137c0,-0.916 -0.439,-2.307 -1.326,-4.172c-0.76,-0.633 -1.137,-1.629 -1.137,-2.984c0,-0.307 0.018,-0.766 0.053,-1.379c0.035,-0.607 0.053,-1.055 0.053,-1.332c0,-0.273 0.068,-0.678 0.221,-1.211c0.168,-0.035 0.266,0.027 0.301,0.197c0.035,0.162 0.068,0.26 0.104,0.295c0.771,1.223 2.039,2.021 3.818,2.393c2.23,0.133 3.895,-0.563 4.988,-2.086c0.33,-1.293 0.684,-2.307 1.055,-3.041c0.418,0.068 0.627,0.301 0.627,0.695c-0.029,0.66 -0.047,0.967 -0.047,0.938c0.439,1.664 1.24,2.672 2.393,3.037c1.188,0.336 2.15,0.225 2.885,-0.342c0.07,-0.135 0.029,-0.279 -0.121,-0.43c-0.145,-0.156 -0.203,-0.266 -0.168,-0.336l0.221,-4.514c0.248,-0.156 0.404,-0.221 0.475,-0.186c0.725,0.689 1.146,1.68 1.275,2.973c0.012,3.789 -0.551,6.264 -1.682,7.416c-0.852,0.307 -1.609,0.459 -2.275,0.459c-0.859,0 -1.641,-0.256 -2.342,-0.766c-0.928,-0.701 -1.477,-1.797 -1.645,-3.291c-0.33,0.301 -0.615,0.742 -0.854,1.303c-0.336,0.689 -0.578,1.137 -0.729,1.346c-1.178,1.223 -2.51,1.83 -4.004,1.83c-0.389,0 -0.766,-0.059 -1.137,-0.168c-0.033,0.348 -0.098,1.57 -0.189,3.668c-0.029,1.559 -0.273,2.752 -0.713,3.58c-1.188,2.781 -2.949,4.844 -5.296,6.178c-2.341,1.338 -4.769,2.004 -7.283,2.004c-3.743,0 -6.61,-1.414 -8.604,-4.236c-1.42,-2.039 -2.126,-4.414 -2.126,-7.131c0,-1.732 0.435,-3.762 1.298,-6.096c0.348,-0.725 0.73,-1.496 1.152,-2.324C24.93,34.768 25.434,34.131 26.019,33.689z" id="path_2"/><path fill="#399121" d="M35.773,65.66l1.055,-3.107l10.232,-4.529c0.139,-0.023 0.201,-0.006 0.201,0.051c0,0.035 -0.018,0.123 -0.051,0.273l-1.373,3.256l-9.827,4.414c-0.128,0.012 -0.203,0.012 -0.237,0C35.727,65.949 35.727,65.832 35.773,65.66z" id="path_3"/><path fill="#399121" d="M35.773,61.129l1.055,-3.105l10.232,-4.531c0.139,-0.023 0.201,-0.006 0.201,0.051c0,0.029 -0.018,0.123 -0.051,0.268l-1.373,3.262l-9.827,4.416c-0.128,0.01 -0.203,0.01 -0.237,0C35.727,61.418 35.727,61.297 35.773,61.129z" id="path_4"/></svg>