<svg id="vector" xmlns="http://www.w3.org/2000/svg" width="75" height="67" viewBox="0 0 83 73"><path fill="#399121" d="M37.014,54.854c-2.816,0.023 -5.059,-0.891 -6.722,-2.752c-1.165,-1.32 -1.912,-3.168 -2.242,-5.551c-0.169,-2.125 -0.359,-4.223 -0.579,-6.297c-0.088,-1.832 -0.371,-5.303 -0.846,-10.4c-0.348,-4.201 -0.533,-7.625 -0.557,-10.273c0.023,-0.307 0.156,-0.73 0.405,-1.275c0.296,-0.098 0.562,-0.156 0.8,-0.166c0.451,-0.023 1.031,0.145 1.744,0.508c0.852,0.418 1.391,0.68 1.628,0.783c0.399,0.238 0.812,0.492 1.239,0.766c0.436,0.266 0.615,0.619 0.545,1.049c-0.318,0.01 -0.799,-0.111 -1.442,-0.365c-0.644,-0.256 -1.13,-0.383 -1.46,-0.383c-0.342,0.023 -0.678,0.174 -1.02,0.439l-0.424,0.563c0.452,8.621 0.963,15.314 1.53,20.064c-0.035,0.406 -0.047,0.822 -0.035,1.24c0.104,3.088 1.257,5.291 3.465,6.605c1.274,0.486 2.602,0.73 3.97,0.742V54.854z" id="path_0"/><path fill="#399121" d="M36.584,54.85v-4.688c1.489,0.174 3.216,-0.041 5.174,-0.627c1.461,-0.271 3.587,-0.898 6.385,-1.883c-2.491,-1.662 -4.635,-2.498 -6.437,-2.498c-1.015,0 -1.964,0.244 -2.833,0.73c-0.272,0.105 -0.563,0.475 -0.863,1.119c-0.308,0.648 -0.748,0.898 -1.327,0.748c0.034,-0.441 0.505,-1.588 1.407,-3.449c1.223,-1.564 2.371,-2.346 3.431,-2.346c0.331,-0.023 0.644,-0.035 0.95,-0.035c1.361,0 3.709,0.713 7.046,2.133c3.192,1.391 5.666,2.016 7.416,1.883c-0.324,0.904 -0.644,1.803 -0.95,2.699c-0.383,1.014 -0.857,1.844 -1.426,2.475c-1.865,-0.156 -4.188,0.238 -6.976,1.188c-3.645,1.211 -5.933,1.906 -6.872,2.092C39.452,54.762 38.073,54.918 36.584,54.85z" id="path_1"/><path fill="#399121" d="M43.983,37.947v-0.168c0.567,-0.793 1.378,-1.871 2.444,-3.244h0.116c0.863,0.926 1.94,1.768 3.245,2.514c0.034,0.035 0.052,0.076 0.052,0.133l-2.358,3.193c-0.023,0.012 -0.063,0.018 -0.121,0.018c-0.07,0 -0.186,-0.029 -0.354,-0.088C46.19,39.936 45.183,39.146 43.983,37.947z" id="path_2"/><path fill="#f06022" d="M37.803,19.781l1.055,-3.105l10.232,-4.531c0.139,-0.023 0.202,-0.006 0.202,0.053c0,0.033 -0.017,0.121 -0.052,0.271l-1.373,3.256l-9.827,4.416c-0.128,0.012 -0.202,0.012 -0.237,0C37.756,20.07 37.756,19.955 37.803,19.781z" id="path_3"/><path fill="#f06022" d="M37.803,15.25l1.055,-3.105L49.09,7.613c0.139,-0.023 0.202,-0.006 0.202,0.053c0,0.027 -0.017,0.121 -0.052,0.266l-1.373,3.262l-9.827,4.416c-0.128,0.012 -0.202,0.012 -0.237,0C37.756,15.539 37.756,15.418 37.803,15.25z" id="path_4"/></svg>