<svg id="vector" xmlns="http://www.w3.org/2000/svg" width="75" height="67" viewBox="0 0 83 73"><path fill="#000000" d="M28.079,35.846c1.142,-4.744 3.499,-8.203 7.074,-10.377c0.423,-0.336 1.071,-0.793 1.952,-1.373c-0.348,-0.191 -0.828,-0.301 -1.442,-0.336c-0.608,-0.035 -1.205,-0.064 -1.778,-0.086c-0.875,0.021 -1.75,0.033 -2.637,0.033c-0.95,0.158 -1.605,0.633 -1.964,1.426c-0.186,0.666 -0.487,1.107 -0.921,1.311c0.034,-1.461 0.567,-3.158 1.599,-5.094c0.725,-1.373 2.103,-2.057 4.143,-2.057c0.302,0 0.817,0.012 1.542,0.035c0.724,0.023 1.262,0.033 1.615,0.033c3.634,0.406 6.809,0.383 9.537,-0.068c0.227,0.023 0.563,-0.006 1.008,-0.088c0.453,-0.08 0.771,-0.121 0.963,-0.121c0.428,0 0.781,0.117 1.055,0.342c-0.174,0.313 -0.383,0.805 -0.633,1.473c-0.18,0.457 -0.371,0.926 -0.566,1.42c-0.197,0.492 -0.482,0.867 -0.857,1.129c-1.223,0.121 -3.818,0.805 -7.793,2.039c-2.852,1.211 -5.094,2.672 -6.722,4.381c-2.294,2.248 -3.534,4.711 -3.714,7.381c-0.284,1.518 0.127,2.979 1.234,4.381c0.875,1.258 2.021,2.301 3.447,3.123c2.908,1.824 7.005,2.734 12.289,2.734c1.576,0 4.027,-0.342 7.352,-1.02c0.135,0.035 0.336,0.006 0.609,-0.094c0.271,-0.098 0.451,-0.145 0.545,-0.145c0.18,0 0.289,0.168 0.324,0.51c0.064,0.203 -0.162,0.51 -0.678,0.916c-2.654,1.49 -4.629,2.486 -5.945,2.996c-2.295,0.916 -4.49,1.332 -6.588,1.252c-3.088,-0.135 -5.765,-0.701 -8.024,-1.699c-2.074,-0.881 -3.517,-2.051 -4.328,-3.51c-1.385,-2.359 -2.091,-4.49 -2.126,-6.402c0,-0.359 0.029,-1.42 0.087,-3.176C27.795,36.832 27.904,36.408 28.079,35.846z" id="path_0"/><path fill="#000000" d="M36.758,14.9v-0.168c0.568,-0.793 1.379,-1.871 2.445,-3.244h0.116c0.863,0.928 1.94,1.768 3.245,2.514c0.033,0.035 0.051,0.076 0.051,0.135l-2.357,3.191c-0.023,0.012 -0.063,0.018 -0.121,0.018c-0.07,0 -0.186,-0.029 -0.354,-0.086C38.966,16.889 37.958,16.1 36.758,14.9z" id="path_1"/><path fill="#f06022" d="M35.773,65.66l1.055,-3.105l10.232,-4.531c0.139,-0.023 0.201,-0.006 0.201,0.051c0,0.035 -0.018,0.123 -0.051,0.273l-1.373,3.256l-9.827,4.416c-0.128,0.01 -0.203,0.01 -0.237,0C35.727,65.949 35.727,65.834 35.773,65.66z" id="path_2"/><path fill="#f06022" d="M35.773,61.129l1.055,-3.105l10.232,-4.531c0.139,-0.023 0.201,-0.006 0.201,0.053c0,0.027 -0.018,0.121 -0.051,0.266l-1.373,3.262l-9.827,4.416c-0.128,0.012 -0.203,0.012 -0.237,0C35.727,61.418 35.727,61.297 35.773,61.129z" id="path_3"/></svg>