<svg id="vector" xmlns="http://www.w3.org/2000/svg" width="75" height="67" viewBox="0 0 83 73"><path fill="#f06022" d="M37.803,19.781l1.055,-3.105l10.231,-4.531c0.14,-0.023 0.203,-0.006 0.203,0.053c0,0.033 -0.018,0.121 -0.053,0.271l-1.373,3.256l-9.826,4.416c-0.128,0.012 -0.203,0.012 -0.237,0C37.756,20.07 37.756,19.955 37.803,19.781z" id="path_0"/><path fill="#f06022" d="M37.803,15.25l1.055,-3.105l10.231,-4.531c0.14,-0.023 0.203,-0.006 0.203,0.053c0,0.029 -0.018,0.121 -0.053,0.266l-1.373,3.262l-9.826,4.416c-0.128,0.012 -0.203,0.012 -0.237,0C37.756,15.539 37.756,15.418 37.803,15.25z" id="path_1"/><path fill="#399121" d="M39.437,47.951c0.287,0 0.592,0 0.912,0h1.159c4.366,-0.723 6.554,-2.039 6.554,-3.945c-2.072,-1.934 -5.41,-2.895 -10.023,-2.895l-2.647,0.238h-2.869l-0.699,-6.816l10.072,-7.49l10.213,-7.328c0.501,-0.303 0.69,-0.172 0.575,0.387l-4.234,7.713h-0.197l-0.189,-1.348h-0.387l-12.333,9.25h4.432c5.221,0 8.691,1.471 10.41,4.432l0.188,1.15v0.387c-0.017,4.9 -2.261,8.561 -6.742,10.986c-1.283,0.518 -2.376,0.771 -3.281,0.771c-0.32,0 -0.625,0 -0.912,0V47.951z" id="path_2"/><path fill="#000001" d="M40.596,53.443h-0.485c-4.654,0 -7.548,-3.271 -8.666,-9.824L30.286,24.92c0.484,-2.697 0.994,-4.234 1.545,-4.621h0.189c0.255,0 0.387,0.189 0.387,0.576c0,12.754 0.83,20.811 2.508,24.182c1.702,1.883 3.593,2.838 5.682,2.871V53.443z" id="path_3"/></svg>