<svg id="vector" xmlns="http://www.w3.org/2000/svg" width="75" height="67" viewBox="0 0 83 73"><path fill="#399121" d="M42.237,10.869c-0.411,0.475 -1.124,1.16 -2.144,2.051c-1.014,0.898 -1.727,1.641 -2.139,2.227c-0.631,0.902 -0.955,1.586 -0.967,2.039c0,0.324 0.052,0.59 0.156,0.793c0.109,0.25 0.383,0.504 0.811,0.766c0.104,-0.07 0.244,-0.336 0.43,-0.813c0.133,-0.365 0.301,-0.543 0.51,-0.543c0.086,0 0.186,0.012 0.283,0.033c0.475,0.477 0.695,1.049 0.666,1.727c0.012,0.592 -0.156,1.072 -0.504,1.438c-0.342,0.371 -0.678,0.604 -0.99,0.707c-0.318,0.098 -0.568,0.139 -0.748,0.115c-1.043,0 -1.68,-0.596 -1.918,-1.795c-0.034,-0.51 -0.052,-1.055 -0.052,-1.635c0.817,-3.361 3.019,-6.037 6.605,-8.029V9.896c0.202,0.035 0.302,0.104 0.302,0.209c0,0.057 -0.047,0.18 -0.151,0.363C42.283,10.654 42.237,10.789 42.237,10.869z" id="path_0"/><path fill="#399121" d="M36.744,24.861l-0.933,0.088l-0.185,-0.289c3.25,-1.699 5.758,-3.309 7.537,-4.838c-0.591,-0.203 -0.996,-0.424 -1.223,-0.662c-0.613,-0.416 -0.921,-1.129 -0.921,-2.137c-0.046,-2.045 0.684,-3.576 2.196,-4.584c0.498,-0.383 1.297,-0.475 2.398,-0.271c1.152,0.625 1.732,1.373 1.732,2.26c0.295,3.348 -1.906,6.367 -6.594,9.061C39.271,24.154 37.938,24.613 36.744,24.861L36.744,24.861zM45.441,17.313c0.423,-0.174 0.631,-0.457 0.631,-0.869c0,-0.713 -0.307,-1.24 -0.915,-1.576c-0.626,-0.26 -1.321,-0.271 -2.091,-0.035c-0.511,0.371 -0.771,0.725 -0.783,1.049c-0.029,0.318 0.197,0.766 0.684,1.344c0.476,0.227 0.846,0.342 1.119,0.342C44.451,17.643 44.902,17.563 45.441,17.313z" id="path_1"/><path fill="#000001" d="M30.129,36.445c-0.034,0.133 -0.18,0.574 -0.439,1.309c-0.621,1.947 -0.934,3.02 -0.934,3.223c0.07,1.633 1.617,3.094 4.652,4.381c3.055,0.637 5.882,0.805 8.482,0.51l5.807,-0.609c2.154,-0.354 3.957,-0.932 5.417,-1.732c-0.134,-0.928 -0.516,-2.021 -1.136,-3.279c-0.429,-0.869 -0.922,-1.936 -1.478,-3.193c-0.104,-0.336 -0.655,-1.58 -1.663,-3.73c-0.689,-1.494 -1.037,-2.805 -1.037,-3.922c0,-2.33 0.66,-4.59 1.988,-6.773c0.307,-0.807 2.596,-2.533 6.871,-5.18l8.152,-5.041c0.063,0.068 0.098,0.186 0.098,0.354c0,0.139 -0.034,0.342 -0.098,0.613c-1.159,2.027 -2.219,4.045 -3.193,6.061c-0.115,0.168 -0.324,0.4 -0.631,0.695c-0.272,-0.068 -0.354,-0.398 -0.255,-1.002c0,-0.168 -0.028,-0.256 -0.099,-0.256h-0.289c-2.59,1.664 -6.443,4.34 -11.56,8.031c0.532,1.629 1.396,3.818 2.596,6.57c1.425,3.158 2.353,5.33 2.787,6.518c0.237,0.656 0.353,1.402 0.353,2.244c0,1.592 -0.521,3.436 -1.559,5.516c-2.346,1.889 -6.188,2.938 -11.529,3.141c-1.727,0.068 -2.879,0.104 -3.441,0.104c-5.273,0 -8.61,-1.582 -10,-4.74c-0.43,-0.949 -0.645,-1.957 -0.645,-3.035c0,-1.814 0.557,-3.883 1.681,-6.211c0.308,-0.627 0.573,-0.939 0.812,-0.939C30.002,36.068 30.095,36.195 30.129,36.445z" id="path_2"/></svg>