<svg id="vector" xmlns="http://www.w3.org/2000/svg" width="75" height="67" viewBox="0 0 83 73"><path fill="#399121" d="M27.901,36.445c-0.035,0.133 -0.181,0.574 -0.44,1.309c-0.62,1.947 -0.933,3.02 -0.933,3.223c0.069,1.633 1.616,3.094 4.652,4.381c3.053,0.637 5.881,0.805 8.482,0.51l5.805,-0.609c2.156,-0.354 3.957,-0.932 5.418,-1.732c-0.134,-0.928 -0.516,-2.021 -1.136,-3.279c-0.429,-0.869 -0.921,-1.936 -1.478,-3.193c-0.104,-0.336 -0.654,-1.58 -1.663,-3.73c-0.689,-1.494 -1.037,-2.805 -1.037,-3.922c0,-2.33 0.661,-4.59 1.987,-6.773c0.307,-0.807 2.596,-2.533 6.872,-5.18l8.151,-5.041c0.064,0.068 0.1,0.186 0.1,0.354c0,0.139 -0.035,0.342 -0.1,0.613c-1.158,2.027 -2.219,4.045 -3.191,6.061c-0.116,0.168 -0.324,0.4 -0.633,0.695c-0.271,-0.068 -0.353,-0.398 -0.254,-1.002c0,-0.168 -0.029,-0.256 -0.099,-0.256h-0.29c-2.59,1.664 -6.443,4.34 -11.559,8.031c0.533,1.629 1.396,3.818 2.596,6.57c1.426,3.158 2.352,5.33 2.787,6.518c0.237,0.656 0.354,1.402 0.354,2.244c0,1.592 -0.521,3.436 -1.559,5.516c-2.348,1.889 -6.188,2.938 -11.53,3.141c-1.727,0.068 -2.88,0.104 -3.441,0.104c-5.272,0 -8.61,-1.582 -10.001,-4.74c-0.429,-0.949 -0.643,-1.957 -0.643,-3.035c0,-1.814 0.556,-3.883 1.68,-6.211c0.308,-0.627 0.574,-0.939 0.812,-0.939C27.773,36.068 27.866,36.195 27.901,36.445z" id="path_0"/><path fill="#f06022" d="M35.773,65.66l1.055,-3.105l10.232,-4.531c0.139,-0.023 0.202,-0.006 0.202,0.053c0,0.033 -0.018,0.121 -0.052,0.271l-1.373,3.256l-9.826,4.416c-0.128,0.012 -0.203,0.012 -0.238,0C35.727,65.949 35.727,65.834 35.773,65.66z" id="path_1"/><path fill="#f06022" d="M35.773,61.129l1.055,-3.105l10.232,-4.531c0.139,-0.023 0.202,-0.006 0.202,0.053c0,0.029 -0.018,0.121 -0.052,0.266l-1.373,3.262l-9.826,4.416c-0.128,0.012 -0.203,0.012 -0.238,0C35.727,61.418 35.727,61.297 35.773,61.129z" id="path_2"/></svg>