<svg id="vector" xmlns="http://www.w3.org/2000/svg" width="75" height="67" viewBox="0 0 83 73"><path fill="#3F51B5" d="M42.238,3.67c-0.412,0.475 -1.125,1.158 -2.145,2.051c-1.014,0.898 -1.727,1.639 -2.139,2.225C37.324,8.85 37,9.533 36.988,9.984c0,0.324 0.053,0.592 0.156,0.795c0.109,0.248 0.383,0.504 0.811,0.764c0.105,-0.07 0.244,-0.336 0.43,-0.811c0.133,-0.365 0.301,-0.545 0.51,-0.545c0.086,0 0.186,0.012 0.283,0.035c0.475,0.475 0.695,1.049 0.666,1.727c0.012,0.59 -0.156,1.072 -0.504,1.436c-0.342,0.371 -0.678,0.604 -0.99,0.707c-0.318,0.1 -0.568,0.141 -0.748,0.117c-1.043,0 -1.68,-0.598 -1.918,-1.797c-0.033,-0.51 -0.051,-1.055 -0.051,-1.633c0.816,-3.361 3.018,-6.039 6.605,-8.031V2.695c0.201,0.035 0.301,0.105 0.301,0.209c0,0.059 -0.047,0.18 -0.15,0.365C42.283,3.455 42.238,3.588 42.238,3.67z" id="path_0"/><path fill="#3F51B5" d="M36.744,17.662l-0.932,0.086l-0.186,-0.289c3.25,-1.697 5.758,-3.309 7.537,-4.838c-0.59,-0.203 -0.996,-0.424 -1.223,-0.66c-0.613,-0.418 -0.92,-1.131 -0.92,-2.139c-0.047,-2.045 0.684,-3.574 2.195,-4.584c0.498,-0.381 1.297,-0.475 2.398,-0.271c1.152,0.625 1.732,1.373 1.732,2.26c0.295,3.35 -1.906,6.367 -6.594,9.063C39.271,16.955 37.938,17.412 36.744,17.662L36.744,17.662zM45.441,10.111c0.424,-0.174 0.631,-0.457 0.631,-0.869c0,-0.713 -0.307,-1.238 -0.914,-1.576c-0.627,-0.26 -1.322,-0.271 -2.092,-0.033c-0.51,0.371 -0.771,0.725 -0.783,1.049C42.254,9 42.48,9.445 42.967,10.025c0.477,0.227 0.846,0.342 1.119,0.342C44.451,10.441 44.902,10.361 45.441,10.111z" id="path_1"/><path fill="#00af4c" d="M31.793,43.639L34,41.367c-1.102,-0.555 -2.027,-1.227 -2.787,-2.021c-0.904,-0.893 -1.355,-2.045 -1.355,-3.447c0,-1.287 0.451,-3.025 1.355,-5.209c1.314,-2.039 3.059,-3.008 5.244,-2.902c3.035,0.451 5.209,1.535 6.518,3.25c-0.109,0.18 -0.271,0.273 -0.492,0.273c-0.156,0 -0.371,-0.076 -0.643,-0.221c-0.359,-0.191 -0.592,-0.307 -0.695,-0.342c-0.83,-0.285 -1.715,-0.424 -2.666,-0.424c-2.219,0 -4.287,0.672 -6.211,2.023c-0.389,0.549 -0.58,0.863 -0.58,0.932c0,0.088 0.035,0.186 0.105,0.289c0.689,1.154 1.883,2.174 3.58,3.055c1.141,0.475 2.15,0.713 3.02,0.713c0.684,0 1.279,-0.123 1.801,-0.371c0.736,-0.07 1.844,-0.48 3.326,-1.24l3.447,-1.768c0.238,0.035 0.371,0.053 0.406,0.053c-0.07,0.498 -0.262,1.09 -0.574,1.779c-0.412,0.863 -0.654,1.447 -0.73,1.766c-1.111,0.668 -3.129,1.688 -6.061,3.061c-2.607,1.211 -4.496,2.293 -5.672,3.256c-1.547,1.471 -2.723,2.896 -3.512,4.281c-0.295,0.701 -0.59,1.809 -0.887,3.326c-0.348,3.123 0.939,5.586 3.871,7.387c2.039,1.287 4.52,2.156 7.439,2.596c2.59,0.297 5.43,0.303 8.518,0.018c0.498,0 1.234,-0.08 2.201,-0.236c0.969,-0.162 1.652,-0.238 2.063,-0.238c0.25,0 0.48,0.035 0.695,0.098c0,0 0.029,0.146 0.082,0.43c-1.697,1.297 -3.957,2.666 -6.791,4.09c-2.375,0.273 -4.334,0.406 -5.887,0.406c-4.594,0 -8.037,-1.078 -10.33,-3.232c-2.289,-2.156 -3.494,-5.158 -3.604,-9.004c0,-1.258 0.115,-2.596 0.352,-4.021C28.877,47.967 29.955,45.928 31.793,43.639z" id="path_2"/><path fill="#00af4c" d="M33.502,22.908V22.74c0.568,-0.793 1.379,-1.871 2.445,-3.244h0.115c0.863,0.926 1.941,1.768 3.244,2.514c0.035,0.035 0.053,0.076 0.053,0.135l-2.357,3.191c-0.023,0.012 -0.064,0.018 -0.123,0.018c-0.068,0 -0.186,-0.029 -0.354,-0.086C35.709,24.896 34.701,24.107 33.502,22.908z" id="path_3"/></svg>