<svg id="vector" xmlns="http://www.w3.org/2000/svg" width="75" height="67" viewBox="0 0 83 73"><path fill="#DF2B2B" d="M38.658,54.859c-2.815,0.023 -5.058,-0.893 -6.721,-2.752c-1.165,-1.321 -1.912,-3.17 -2.242,-5.551c-0.168,-2.127 -0.359,-4.225 -0.58,-6.299c-0.086,-1.83 -0.37,-5.301 -0.846,-10.4c-0.348,-4.2 -0.533,-7.625 -0.556,-10.271c0.022,-0.308 0.156,-0.73 0.405,-1.275c0.296,-0.099 0.563,-0.156 0.8,-0.168c0.452,-0.023 1.031,0.145 1.744,0.51c0.852,0.418 1.391,0.678 1.628,0.782c0.399,0.237 0.812,0.493 1.239,0.765c0.435,0.267 0.614,0.62 0.545,1.049c-0.318,0.012 -0.8,-0.109 -1.442,-0.365c-0.644,-0.255 -1.13,-0.382 -1.46,-0.382c-0.342,0.022 -0.678,0.174 -1.02,0.44l-0.424,0.563c0.452,8.621 0.962,15.313 1.53,20.064c-0.035,0.404 -0.047,0.822 -0.035,1.239c0.104,3.089 1.258,5.29 3.465,6.604c1.274,0.487 2.602,0.73 3.969,0.742V54.859z" id="path_0"/><path fill="#000001" d="M38.229,50.143c0.29,0.035 0.632,-0.006 1.014,-0.115c0.14,-0.07 0.209,-0.156 0.209,-0.256c0,-0.104 -0.052,-0.242 -0.156,-0.428c-0.099,-0.18 -0.151,-0.302 -0.151,-0.371c-0.104,-1.096 -0.133,-2.381 -0.086,-3.854c0.19,-1.355 0.492,-2.537 0.897,-3.539c0.852,-1.449 1.971,-2.422 3.36,-2.921c0.481,-0.069 0.962,-0.104 1.443,-0.104c2.798,-0.237 5.44,0.962 7.932,3.598c0.122,0.325 0.023,0.511 -0.307,0.545c-1.292,-0.887 -2.886,-1.326 -4.786,-1.326c-1.124,0 -2.295,0.139 -3.518,0.423c-1.06,0.237 -2.027,0.672 -2.902,1.31c-0.452,0.301 -0.695,0.631 -0.73,0.984c0.521,2.26 2.799,3.789 6.826,4.578c2.341,-0.406 4.826,-1.165 7.451,-2.271c0.174,-0.035 0.359,0.018 0.562,0.15c-0.272,0.974 -0.771,2.381 -1.495,4.224c-6.576,2.637 -11.762,3.998 -15.563,4.091V50.143z" id="path_1"/><path fill="#3F51B5" d="M37.803,24.312l1.055,-3.105l10.232,-4.53c0.139,-0.023 0.202,-0.006 0.202,0.052c0,0.034 -0.018,0.122 -0.052,0.272l-1.373,3.256l-9.827,4.415c-0.127,0.012 -0.203,0.012 -0.237,0C37.756,24.602 37.756,24.485 37.803,24.312z" id="path_2"/><path fill="#3F51B5" d="M37.803,19.781l1.055,-3.105l10.232,-4.531c0.139,-0.023 0.202,-0.006 0.202,0.052c0,0.029 -0.018,0.122 -0.052,0.267l-1.373,3.262l-9.827,4.416c-0.127,0.012 -0.203,0.012 -0.237,0C37.756,20.07 37.756,19.949 37.803,19.781z" id="path_3"/></svg>