<svg id="vector" xmlns="http://www.w3.org/2000/svg" width="75" height="67" viewBox="0 0 83 73"><path fill="#00af4c" d="M38.658,54.859c-2.815,0.023 -5.058,-0.893 -6.721,-2.752c-1.164,-1.322 -1.912,-3.17 -2.242,-5.551c-0.168,-2.127 -0.359,-4.225 -0.58,-6.299c-0.086,-1.83 -0.37,-5.301 -0.846,-10.4c-0.348,-4.201 -0.533,-7.625 -0.556,-10.271c0.022,-0.309 0.156,-0.73 0.405,-1.275c0.295,-0.098 0.563,-0.156 0.799,-0.168c0.453,-0.023 1.032,0.145 1.745,0.51c0.851,0.418 1.39,0.678 1.628,0.783c0.4,0.236 0.811,0.492 1.24,0.764c0.434,0.268 0.613,0.619 0.545,1.049c-0.319,0.012 -0.801,-0.109 -1.443,-0.365c-0.644,-0.256 -1.13,-0.383 -1.461,-0.383c-0.342,0.023 -0.678,0.174 -1.02,0.441l-0.422,0.563c0.451,8.621 0.961,15.313 1.529,20.064c-0.035,0.404 -0.047,0.822 -0.035,1.24c0.104,3.088 1.258,5.289 3.465,6.604c1.275,0.486 2.602,0.73 3.969,0.742V54.859z" id="path_0"/><path fill="#00af4c" d="M38.229,50.143c0.29,0.035 0.632,-0.006 1.015,-0.115c0.139,-0.07 0.208,-0.156 0.208,-0.256c0,-0.104 -0.052,-0.242 -0.156,-0.428c-0.099,-0.18 -0.151,-0.303 -0.151,-0.371c-0.104,-1.096 -0.133,-2.381 -0.086,-3.854c0.191,-1.355 0.492,-2.537 0.897,-3.539c0.853,-1.449 1.97,-2.422 3.36,-2.922c0.481,-0.068 0.962,-0.104 1.443,-0.104c2.799,-0.238 5.44,0.963 7.932,3.598c0.121,0.324 0.023,0.51 -0.307,0.545c-1.293,-0.887 -2.886,-1.326 -4.786,-1.326c-1.124,0 -2.294,0.139 -3.517,0.422c-1.061,0.238 -2.028,0.674 -2.903,1.311c-0.452,0.301 -0.695,0.631 -0.729,0.984c0.521,2.26 2.798,3.789 6.824,4.578c2.342,-0.406 4.827,-1.166 7.451,-2.271c0.174,-0.035 0.359,0.018 0.563,0.15c-0.271,0.973 -0.771,2.381 -1.494,4.223c-6.576,2.637 -11.762,3.998 -15.563,4.092V50.143z" id="path_1"/><path fill="#00af4c" d="M40.727,34.51v-0.168c0.568,-0.793 1.379,-1.871 2.445,-3.244h0.115c0.864,0.928 1.941,1.768 3.245,2.516c0.035,0.033 0.052,0.074 0.052,0.133l-2.357,3.191c-0.023,0.012 -0.064,0.018 -0.121,0.018c-0.07,0 -0.186,-0.029 -0.354,-0.086C42.934,36.498 41.926,35.711 40.727,34.51z" id="path_2"/><path fill="#3F51B5" d="M37.803,19.781l1.055,-3.105l10.232,-4.531c0.139,-0.023 0.202,-0.006 0.202,0.053c0,0.033 -0.017,0.121 -0.052,0.271l-1.373,3.256l-9.827,4.416c-0.128,0.012 -0.202,0.012 -0.237,0C37.756,20.07 37.756,19.955 37.803,19.781z" id="path_3"/><path fill="#3F51B5" d="M37.803,15.25l1.055,-3.105L49.09,7.613c0.139,-0.023 0.202,-0.006 0.202,0.053c0,0.027 -0.017,0.121 -0.052,0.266l-1.373,3.262l-9.827,4.416c-0.128,0.012 -0.202,0.012 -0.237,0C37.756,15.539 37.756,15.418 37.803,15.25z" id="path_4"/></svg>