<svg id="vector" xmlns="http://www.w3.org/2000/svg" width="75" height="67" viewBox="0 0 83 73"><path fill="#f06022" d="M42.237,6.069c-0.412,0.476 -1.125,1.159 -2.145,2.052c-1.014,0.897 -1.727,1.639 -2.138,2.225c-0.632,0.903 -0.956,1.587 -0.968,2.039c0,0.324 0.053,0.591 0.156,0.794c0.11,0.249 0.383,0.504 0.812,0.765c0.104,-0.07 0.243,-0.336 0.429,-0.811c0.133,-0.365 0.301,-0.545 0.51,-0.545c0.087,0 0.186,0.012 0.284,0.034c0.476,0.476 0.695,1.049 0.666,1.728c0.012,0.59 -0.156,1.071 -0.504,1.437c-0.342,0.37 -0.678,0.603 -0.991,0.706c-0.318,0.1 -0.567,0.14 -0.747,0.116c-1.043,0 -1.681,-0.597 -1.917,-1.796c-0.035,-0.51 -0.053,-1.055 -0.053,-1.634c0.816,-3.36 3.019,-6.038 6.605,-8.03V5.096c0.202,0.035 0.301,0.104 0.301,0.209c0,0.058 -0.047,0.18 -0.15,0.365C42.283,5.855 42.237,5.988 42.237,6.069z" id="path_0"/><path fill="#f06022" d="M36.744,20.062l-0.933,0.087l-0.186,-0.289c3.25,-1.697 5.76,-3.309 7.538,-4.838c-0.591,-0.203 -0.997,-0.424 -1.223,-0.661c-0.614,-0.417 -0.921,-1.13 -0.921,-2.138c-0.047,-2.045 0.684,-3.574 2.195,-4.583c0.498,-0.382 1.299,-0.476 2.398,-0.272c1.154,0.626 1.732,1.373 1.732,2.26c0.296,3.349 -1.906,6.367 -6.593,9.062C39.271,19.355 37.938,19.813 36.744,20.062L36.744,20.062zM45.44,12.512c0.424,-0.174 0.633,-0.457 0.633,-0.869c0,-0.712 -0.308,-1.239 -0.916,-1.576c-0.626,-0.26 -1.321,-0.271 -2.092,-0.033c-0.51,0.37 -0.771,0.724 -0.782,1.048c-0.028,0.319 0.196,0.765 0.684,1.345c0.476,0.226 0.847,0.342 1.118,0.342C44.45,12.842 44.902,12.762 45.44,12.512z" id="path_1"/><path fill="#000000" d="M31.792,41.239l2.207,-2.271c-1.101,-0.557 -2.027,-1.229 -2.787,-2.023c-0.903,-0.892 -1.355,-2.045 -1.355,-3.447c0,-1.285 0.452,-3.023 1.355,-5.208c1.316,-2.04 3.06,-3.007 5.244,-2.903c3.036,0.452 5.209,1.535 6.518,3.25c-0.109,0.18 -0.271,0.273 -0.492,0.273c-0.156,0 -0.371,-0.076 -0.643,-0.221c-0.359,-0.191 -0.592,-0.307 -0.695,-0.342c-0.828,-0.283 -1.715,-0.423 -2.665,-0.423c-2.22,0 -4.288,0.672 -6.212,2.022c-0.388,0.55 -0.579,0.863 -0.579,0.932c0,0.088 0.034,0.186 0.104,0.291c0.689,1.152 1.883,2.172 3.58,3.053c1.142,0.475 2.15,0.713 3.02,0.713c0.684,0 1.28,-0.121 1.802,-0.371c0.735,-0.069 1.843,-0.48 3.325,-1.24l3.447,-1.767c0.238,0.034 0.371,0.052 0.406,0.052c-0.069,0.498 -0.261,1.09 -0.574,1.779c-0.41,0.863 -0.654,1.448 -0.729,1.768c-1.112,0.666 -3.129,1.686 -6.061,3.059c-2.607,1.211 -4.496,2.295 -5.673,3.256c-1.547,1.473 -2.723,2.897 -3.511,4.282c-0.296,0.701 -0.591,1.808 -0.886,3.325c-0.348,3.123 0.938,5.586 3.869,7.388c2.04,1.286 4.52,2.155 7.439,2.596c2.591,0.296 5.43,0.302 8.518,0.018c0.498,0 1.234,-0.081 2.202,-0.237c0.968,-0.162 1.651,-0.238 2.063,-0.238c0.249,0 0.481,0.035 0.695,0.1c0,0 0.028,0.145 0.081,0.428c-1.697,1.299 -3.957,2.666 -6.791,4.091c-2.375,0.272 -4.334,0.405 -5.887,0.405c-4.594,0 -8.036,-1.077 -10.33,-3.232c-2.289,-2.156 -3.494,-5.156 -3.604,-9.004c0,-1.258 0.115,-2.596 0.353,-4.021C28.878,45.567 29.955,43.528 31.792,41.239z" id="path_2"/></svg>