<svg id="vector" xmlns="http://www.w3.org/2000/svg" width="75" height="67" viewBox="0 0 83 73"><path fill="#F60000" d="M54.42,52.703c-0.133,0.557 -0.295,1.021 -0.492,1.391c-0.654,0.33 -1.535,0.459 -2.648,0.395c-1.945,-0.104 -2.832,-0.156 -2.664,-0.156c-1.924,-0.295 -3.801,-0.423 -5.633,-0.389c-1.188,0.371 -2.717,0.678 -4.582,0.916v-4.717c0.869,-0.023 1.738,-0.145 2.596,-0.371c0.271,-0.475 0.469,-1.17 0.596,-2.086c0.135,-1.135 0.25,-1.865 0.354,-2.189c0.238,-0.962 0.482,-1.93 0.73,-2.902c0.307,-1.119 0.707,-2.006 1.205,-2.66c0.133,-0.805 0.48,-1.936 1.037,-3.395c0.834,1.355 2.313,2.664 4.428,3.916c2.605,1.564 4.252,2.694 4.941,3.396c0.631,1.391 0.887,3.14 0.766,5.255c0,-0.063 -0.088,0.684 -0.256,2.242C54.797,51.418 54.67,51.869 54.42,52.703L54.42,52.703zM45.068,49.019c0.633,0.023 1.234,-0.069 1.803,-0.272c0.563,-0.203 0.91,-0.625 1.031,-1.269c-0.023,-0.782 -0.1,-1.31 -0.238,-1.582c-0.996,-1.222 -2.119,-1.784 -3.377,-1.68c-1.037,0.556 -1.611,1.338 -1.715,2.341C42.879,47.646 43.713,48.463 45.068,49.019L45.068,49.019zM53.725,49.378c-0.035,-0.423 -0.277,-0.852 -0.729,-1.292c-0.668,-0.568 -1.744,-1.158 -3.24,-1.785c-0.377,1.258 -0.684,2.197 -0.932,2.822c1.488,0.44 3.07,0.603 4.732,0.492L53.725,49.378z" id="path_0"/><path fill="#000001" d="M38.863,54.859c-2.816,0.023 -5.059,-0.893 -6.721,-2.752c-1.164,-1.321 -1.912,-3.17 -2.242,-5.551c-0.168,-2.127 -0.359,-4.225 -0.58,-6.299c-0.086,-1.83 -0.371,-5.301 -0.846,-10.4c-0.348,-4.2 -0.533,-7.625 -0.557,-10.272c0.023,-0.308 0.158,-0.729 0.406,-1.274c0.295,-0.099 0.563,-0.156 0.799,-0.168c0.453,-0.023 1.033,0.145 1.744,0.51c0.852,0.417 1.391,0.678 1.629,0.782c0.4,0.237 0.811,0.492 1.24,0.765c0.434,0.267 0.613,0.62 0.545,1.049c-0.318,0.012 -0.801,-0.11 -1.443,-0.365S31.707,20.5 31.377,20.5c-0.342,0.023 -0.678,0.174 -1.02,0.441l-0.422,0.562c0.451,8.622 0.961,15.313 1.529,20.065c-0.035,0.404 -0.047,0.822 -0.035,1.239c0.104,3.088 1.258,5.29 3.465,6.604c1.275,0.487 2.602,0.73 3.969,0.742V54.859z" id="path_1"/><path fill="#3F51B5" d="M37.803,26.053l1.055,-3.105l10.232,-4.53c0.139,-0.023 0.203,-0.006 0.203,0.052c0,0.035 -0.018,0.122 -0.053,0.272l-1.373,3.257l-9.826,4.414c-0.129,0.012 -0.203,0.012 -0.238,0C37.756,26.344 37.756,26.227 37.803,26.053z" id="path_2"/><path fill="#3F51B5" d="M37.803,21.522l1.055,-3.105l10.232,-4.53c0.139,-0.023 0.203,-0.006 0.203,0.051c0,0.029 -0.018,0.122 -0.053,0.268l-1.373,3.262l-9.826,4.415c-0.129,0.012 -0.203,0.012 -0.238,0C37.756,21.813 37.756,21.69 37.803,21.522z" id="path_3"/></svg>