<svg id="vector" xmlns="http://www.w3.org/2000/svg" width="75" height="67" viewBox="0 0 83 73"><path fill="#f06022" d="M35.773,63.259l1.055,-3.105l10.232,-4.531c0.139,-0.022 0.201,-0.005 0.201,0.053c0,0.035 -0.016,0.121 -0.051,0.272l-1.373,3.257l-9.828,4.414c-0.127,0.012 -0.201,0.012 -0.236,0C35.727,63.549 35.727,63.433 35.773,63.259z" id="path_0"/><path fill="#f06022" d="M35.773,58.729l1.055,-3.106l10.232,-4.53c0.139,-0.023 0.201,-0.006 0.201,0.052c0,0.029 -0.016,0.122 -0.051,0.267l-1.373,3.263l-9.828,4.414c-0.127,0.012 -0.201,0.012 -0.236,0C35.727,59.019 35.727,58.896 35.773,58.729z" id="path_1"/><path fill="#3F51B5" d="M50.031,38.606c-3.238,1.199 -6.453,2.411 -9.668,3.623c-3.719,1.402 -6.801,2.879 -9.236,4.426c-0.264,-0.048 -0.42,-0.191 -0.492,-0.455c0.145,-0.864 0.828,-1.764 2.076,-2.699c0.982,-0.66 1.955,-1.32 2.914,-1.968l2.496,-1.271c-0.24,-0.229 -0.504,-0.469 -0.793,-0.721c-0.299,-0.24 -0.527,-0.468 -0.684,-0.684c-0.863,-0.863 -1.318,-1.824 -1.344,-2.879c0.121,-0.756 0.408,-1.572 0.852,-2.459c0.697,-1.104 1.117,-1.823 1.225,-2.147c1.99,-3.419 4.186,-5.099 6.572,-5.026c2.748,0.42 4.428,1.571 5.063,3.443c0.24,0.24 0.443,0.779 0.637,1.619c0,0.348 -0.252,0.588 -0.744,0.695c-1.307,-0.936 -2.711,-1.57 -4.211,-1.931c-2.063,-0.444 -3.91,-0.168 -5.518,0.815c-0.119,0.133 -0.217,0.275 -0.287,0.42c0,0.156 0.084,0.635 0.252,1.404c1.379,1.918 3.201,3.105 5.48,3.55c0.721,0.228 1.5,0.323 2.316,0.276c1.176,-0.444 2.975,-1.044 5.41,-1.788c0.023,0.12 0.023,0.265 0,0.456c-0.049,0.324 -0.229,0.852 -0.564,1.584c-0.275,0.742 -0.455,1.139 -0.516,1.163C50.813,38.306 50.404,38.498 50.031,38.606z" id="path_2"/></svg>