<svg id="vector" xmlns="http://www.w3.org/2000/svg" width="75" height="67" viewBox="0 0 83 73"><path fill="#f06022" d="M35.773,63.26l1.054,-3.105l10.233,-4.531c0.139,-0.023 0.201,-0.006 0.201,0.052c0,0.035 -0.016,0.122 -0.051,0.272l-1.373,3.256l-9.828,4.416c-0.127,0.011 -0.202,0.011 -0.236,0C35.727,63.549 35.727,63.434 35.773,63.26z" id="path_0"/><path fill="#f06022" d="M35.773,58.729l1.054,-3.105l10.233,-4.531c0.139,-0.023 0.201,-0.006 0.201,0.053c0,0.028 -0.016,0.121 -0.051,0.266l-1.373,3.263l-9.828,4.415c-0.127,0.012 -0.202,0.012 -0.236,0C35.727,59.018 35.727,58.896 35.773,58.729z" id="path_1"/><path fill="#3F51B5" d="M49.949,44.207c-0.146,0.613 -0.324,1.123 -0.541,1.53c-0.721,0.363 -1.689,0.504 -2.914,0.434c-2.141,-0.114 -3.117,-0.172 -2.932,-0.172c-2.117,-0.325 -4.182,-0.466 -6.197,-0.428c-1.307,0.408 -2.989,0.746 -5.042,1.007V41.39c0.956,-0.025 1.913,-0.159 2.856,-0.407c0.299,-0.523 0.516,-1.289 0.656,-2.296c0.146,-1.249 0.273,-2.052 0.389,-2.409c0.262,-1.059 0.529,-2.123 0.803,-3.193c0.338,-1.23 0.778,-2.207 1.326,-2.927c0.146,-0.887 0.529,-2.13 1.141,-3.735c0.919,1.491 2.545,2.932 4.871,4.309c2.869,1.722 4.68,2.965 5.438,3.736c0.695,1.529 0.977,3.455 0.842,5.781c0,-0.07 -0.096,0.753 -0.279,2.467C50.365,42.793 50.225,43.289 49.949,44.207L49.949,44.207zM39.66,40.152c0.695,0.025 1.358,-0.076 1.984,-0.299c0.617,-0.224 1,-0.688 1.135,-1.396c-0.027,-0.86 -0.109,-1.44 -0.262,-1.74c-1.098,-1.346 -2.334,-1.963 -3.718,-1.849c-1.141,0.612 -1.772,1.473 -1.887,2.575C37.251,38.643 38.169,39.541 39.66,40.152L39.66,40.152zM49.186,40.549c-0.039,-0.466 -0.307,-0.938 -0.803,-1.422c-0.734,-0.625 -1.92,-1.275 -3.564,-1.964c-0.414,1.384 -0.752,2.416 -1.027,3.104C45.43,40.752 47.17,40.931 49,40.81L49.186,40.549z" id="path_2"/></svg>