<svg id="vector" xmlns="http://www.w3.org/2000/svg" width="75" height="67" viewBox="0 0 83 73"><path fill="#914d21" d="M46.654,35.879c-1.426,1.494 -2.846,2.474 -4.254,2.938c-1.406,0.463 -2.734,0.811 -3.98,1.037c-1.244,0.226 -2.467,0.394 -3.666,0.51c-0.359,0.035 -0.645,-0.018 -0.848,-0.156c0.17,-0.395 0.863,-0.881 2.086,-1.461c2.955,-1.425 6.391,-3.557 10.32,-6.396c0.318,-0.295 0.66,-0.597 1.025,-0.91c0.371,-0.313 0.557,-0.654 0.557,-1.025c0,-0.104 -0.053,-0.236 -0.146,-0.399c-0.098,-0.162 -0.213,-0.243 -0.346,-0.243c-0.105,0 -0.297,0.139 -0.574,0.423c-0.273,0.284 -0.498,0.405 -0.666,0.371c-0.84,0.423 -1.705,0.632 -2.596,0.632c-0.736,0 -1.402,-0.145 -1.988,-0.43c-0.875,-0.098 -1.668,-0.746 -2.393,-1.935c-0.295,-0.667 -0.441,-1.345 -0.441,-2.034c0,-0.613 0.146,-1.408 0.441,-2.393c0.301,-1.246 0.492,-2.08 0.557,-2.497c0.66,-1.223 1.494,-1.935 2.514,-2.138c0.342,-0.094 0.678,-0.139 1.02,-0.139c0.951,0 1.844,0.271 2.684,0.816c1.715,1.367 2.723,3.163 3.018,5.383C49.406,30.368 48.635,33.717 46.654,35.879z" id="path_0"/><path fill="#3F51B5" d="M36.01,53l1.055,-3.105l10.232,-4.531c0.139,-0.023 0.203,-0.006 0.203,0.053c0,0.034 -0.018,0.121 -0.053,0.271l-1.373,3.256l-9.826,4.416c-0.127,0.012 -0.203,0.012 -0.238,0C35.965,53.289 35.965,53.174 36.01,53z" id="path_1"/><path fill="#3F51B5" d="M36.01,48.469l1.055,-3.105l10.232,-4.531c0.139,-0.023 0.203,-0.006 0.203,0.053c0,0.029 -0.018,0.121 -0.053,0.266l-1.373,3.263l-9.826,4.415c-0.127,0.012 -0.203,0.012 -0.238,0C35.965,48.759 35.965,48.637 36.01,48.469z" id="path_2"/></svg>