<svg id="vector" xmlns="http://www.w3.org/2000/svg" width="75" height="67" viewBox="0 0 83 73"><path fill="#000001" d="M45.975,51.38c-1.426,1.495 -2.846,2.474 -4.254,2.938s-2.734,0.812 -3.98,1.037s-2.467,0.394 -3.668,0.51c-0.357,0.034 -0.643,-0.017 -0.846,-0.156c0.17,-0.394 0.863,-0.881 2.086,-1.46c2.955,-1.426 6.391,-3.558 10.32,-6.396c0.318,-0.296 0.66,-0.598 1.025,-0.91c0.371,-0.313 0.557,-0.654 0.557,-1.025c0,-0.104 -0.053,-0.238 -0.146,-0.4c-0.098,-0.162 -0.213,-0.242 -0.346,-0.242c-0.105,0 -0.297,0.139 -0.574,0.422c-0.273,0.284 -0.498,0.406 -0.666,0.371c-0.84,0.424 -1.705,0.632 -2.596,0.632c-0.736,0 -1.402,-0.146 -1.988,-0.429c-0.875,-0.099 -1.668,-0.748 -2.393,-1.936c-0.295,-0.666 -0.441,-1.344 -0.441,-2.033c0,-0.615 0.146,-1.408 0.441,-2.393c0.301,-1.246 0.492,-2.08 0.557,-2.498c0.66,-1.223 1.494,-1.936 2.514,-2.138c0.342,-0.093 0.678,-0.14 1.02,-0.14c0.951,0 1.844,0.273 2.684,0.817c1.715,1.368 2.723,3.163 3.018,5.382C48.727,45.869 47.955,49.219 45.975,51.38z" id="path_0"/><path fill="#3F51B5" d="M44.637,18.099c-0.412,0.476 -1.125,1.159 -2.145,2.052c-1.014,0.897 -1.727,1.639 -2.139,2.225c-0.631,0.904 -0.955,1.588 -0.967,2.039c0,0.324 0.053,0.592 0.156,0.794c0.109,0.249 0.383,0.504 0.811,0.765c0.105,-0.069 0.244,-0.336 0.43,-0.811c0.133,-0.365 0.301,-0.545 0.51,-0.545c0.086,0 0.186,0.012 0.283,0.035c0.475,0.475 0.695,1.049 0.666,1.727c0.012,0.59 -0.156,1.071 -0.504,1.437c-0.342,0.37 -0.678,0.603 -0.99,0.706c-0.318,0.1 -0.568,0.14 -0.748,0.117c-1.043,0 -1.68,-0.598 -1.918,-1.797c-0.033,-0.51 -0.051,-1.055 -0.051,-1.634c0.816,-3.36 3.018,-6.037 6.605,-8.03v-0.053c0.201,0.035 0.301,0.105 0.301,0.209c0,0.059 -0.047,0.18 -0.15,0.365C44.682,17.885 44.637,18.018 44.637,18.099z" id="path_1"/><path fill="#3F51B5" d="M39.143,32.092l-0.932,0.086l-0.186,-0.289c3.25,-1.697 5.76,-3.309 7.537,-4.838c-0.59,-0.203 -0.996,-0.424 -1.223,-0.66c-0.613,-0.418 -0.92,-1.131 -0.92,-2.139c-0.047,-2.045 0.684,-3.574 2.195,-4.583c0.498,-0.382 1.297,-0.476 2.398,-0.272c1.152,0.626 1.732,1.373 1.732,2.26c0.295,3.35 -1.906,6.367 -6.594,9.063C41.67,31.385 40.336,31.842 39.143,32.092L39.143,32.092zM47.84,24.542c0.424,-0.174 0.631,-0.458 0.631,-0.869c0,-0.713 -0.307,-1.24 -0.914,-1.576c-0.627,-0.261 -1.322,-0.272 -2.092,-0.034c-0.51,0.37 -0.771,0.724 -0.783,1.048c-0.029,0.319 0.197,0.765 0.684,1.345c0.477,0.227 0.846,0.342 1.119,0.342C46.85,24.872 47.301,24.791 47.84,24.542z" id="path_2"/></svg>