<svg id="vector" xmlns="http://www.w3.org/2000/svg" width="124" height="67" viewBox="0 0 124.452 67"><path fill="#203e96" d="M114.8,21.141c0.323,0 0.647,1.082 0.971,3.23l1.453,3.23l-0.647,3.712l0.482,9.044v1.445c-0.214,3.691 -0.751,5.841 -1.611,6.461l-0.159,-0.159l0.159,-2.424c0,-2.177 -0.703,-9.119 -2.102,-20.821C114.021,22.381 114.503,21.141 114.8,21.141z" id="path_0"/><path fill="#203e96" d="M119.621,11.698c0.165,-0.097 0.213,0.056 0.145,0.448c-0.917,2.148 -2.321,3.649 -4.216,4.497l-6.963,3.491c-0.296,-0.082 -0.351,-0.323 -0.165,-0.729c0.93,-1.791 1.563,-2.851 1.9,-3.188L119.621,11.698z" id="path_1"/><path fill="#000002" d="M95.218,28.373h0.324c1.102,0.24 2.286,0.881 3.554,1.936v0.158c-0.729,2.211 -1.37,3.389 -1.936,3.553c-1.646,-0.323 -2.879,-0.86 -3.712,-1.611v-0.165C93.448,30.977 94.04,29.688 95.218,28.373z" id="path_2"/><path fill="#000002" d="M101.196,26.92h0.159c1.102,0.158 2.341,0.908 3.712,2.258v0.159l-1.936,3.388c-2.583,-0.832 -3.878,-1.528 -3.878,-2.093C100.087,28.152 100.734,26.92 101.196,26.92z" id="path_3"/><path fill="#000002" d="M93.786,45.178c4.229,0.041 6.591,-0.751 7.107,-2.383c0,-0.564 -0.537,-1.963 -1.619,-4.194l0.489,-4.194h0.317c1.404,2.417 2.101,4.842 2.101,7.259v1.454c0,0.971 -0.234,1.99 -0.696,3.057c-0.461,1.068 -1.178,1.971 -2.135,2.693c-0.964,0.73 -2.816,1.033 -5.564,0.91V45.178z" id="path_4"/><path fill="#000002" d="M103.593,15.272c1.653,0 2.48,1.02 2.48,3.052c0,3.236 -2.763,5.998 -8.293,8.271c-0.792,0.24 -0.889,-0.049 -0.282,-0.868c0.151,-0.31 1.453,-1.28 3.912,-2.906v-0.138c-1.061,-0.434 -1.591,-1.357 -1.591,-2.77c0.702,-3.092 1.818,-4.642 3.347,-4.642H103.593L103.593,15.272zM101.128,18.765c0,0.86 0.729,1.392 2.183,1.599h0.282c0.538,0 0.882,-0.201 1.026,-0.586c0,-0.875 -0.633,-1.557 -1.894,-2.039C102.175,17.738 101.645,18.082 101.128,18.765z" id="path_5"/><path fill="#203e96" d="M72.015,43.662c1.322,0 2.287,0 2.906,0h0.647c1.936,-0.254 4.828,-1.081 8.679,-2.479c-1.295,-1.082 -3.285,-1.888 -5.972,-2.425c-1.591,0 -2.665,0.751 -3.23,2.259c-0.199,0.448 -0.378,0.564 -0.537,0.352c-0.151,-0.207 -0.192,-0.482 -0.109,-0.834c0.971,-3.257 2.259,-4.883 3.877,-4.883h1.13c1.074,0 3.017,0.605 5.819,1.818c2.804,1.205 5.221,1.694 7.253,1.453c0.255,0 0.365,0.158 0.323,0.482c-0.434,2.686 -1.239,4.035 -2.424,4.035l-0.807,0.159v0.323c0.407,0.848 2.267,1.254 5.593,1.213v4.58c-4.814,0.255 -7.218,-1.619 -7.204,-5.627c-1.722,0.254 -4.057,1.054 -7.004,2.41c-2.948,1.35 -5.924,1.929 -8.94,1.742V43.662z" id="path_6"/><path fill="#203e96" d="M89.33,22.07c0.165,-0.096 0.213,0.055 0.145,0.447c-0.916,2.149 -2.321,3.65 -4.215,4.498l-6.964,3.492c-0.296,-0.083 -0.352,-0.324 -0.165,-0.73c0.93,-1.791 1.563,-2.852 1.901,-3.189L89.33,22.07z" id="path_7"/><path fill="#DD2C00" d="M73.186,48.264c-3.134,0.186 -5.413,-1.261 -6.839,-4.34c-0.688,-1.143 -1.336,-8.85 -1.936,-23.121v-0.323c0.399,-2.369 0.992,-3.554 1.771,-3.554l0.813,-0.158c0.992,0 2.5,0.324 4.518,0.964v0.324c-0.109,0.323 -0.434,0.488 -0.971,0.488H67.8c-0.564,0 -1.102,0.317 -1.618,0.964c0.502,12.391 1.232,19.568 2.204,21.531c0.964,1.963 2.568,2.837 4.8,2.623V48.264z" id="path_8"/><path fill="#DD2C00" d="M76.533,5.748l0.165,0.165c0,2.177 -1.722,4.436 -5.165,6.776c-2.019,0.861 -4.063,1.288 -6.137,1.288l-1.454,-0.157c-0.537,2.045 -0.915,3.064 -1.129,3.064c-0.241,0 -0.564,-0.861 -0.972,-2.583c-0.75,-1.02 -1.99,-2.313 -3.712,-3.871v-0.323c0.379,-2.156 0.813,-3.23 1.295,-3.23c2.101,2.259 4.684,3.389 7.748,3.389C70.72,10.266 73.847,8.764 76.533,5.748z" id="path_9"/><path fill="#203e96" d="M50.064,47.939c2.259,1.13 3.389,2.101 3.389,2.906c-1.074,2.129 -1.722,3.203 -1.936,3.23h-0.323c-1.653,-0.834 -2.68,-1.591 -3.065,-2.259C48.501,50.592 49.148,49.297 50.064,47.939z" id="path_10"/><path fill="#203e96" d="M41.263,43.662h1.859c1.963,-0.269 5.083,-0.998 9.36,-2.176V41.32c-3.898,-1.722 -6.371,-2.582 -7.425,-2.582c-1.426,0 -2.391,0.806 -2.906,2.424l-0.482,0.324c-0.213,0 -0.324,-0.166 -0.324,-0.489c0.538,-3.224 1.991,-4.842 4.36,-4.842h0.806c0.999,0 4.388,1.13 10.173,3.389l4.359,0.323l0.317,0.49c-0.076,0.723 -0.724,2.121 -1.936,4.193h-0.482l-0.647,-0.165h-0.806c-8.396,2.479 -13.293,3.768 -14.69,3.878h-1.536V43.662z" id="path_11"/><path fill="#203e96" d="M53.715,22.153c0.297,0.51 0.641,1.963 1.033,4.359c-0.241,1.454 -0.875,2.177 -1.901,2.177h-0.138c-0.447,0 -1.025,-0.289 -1.756,-0.868c-0.496,0.875 -1.226,1.315 -2.177,1.315c-1.157,0 -1.735,-1.404 -1.735,-4.215c0.338,-1.067 0.627,-1.598 0.868,-1.598l0.138,0.145v2.479c0.199,0.86 0.447,1.288 0.729,1.288h0.586c0.605,0 0.991,-0.242 1.171,-0.724l-0.304,-2.177c0.117,-0.729 0.317,-1.115 0.586,-1.15h0.303c0.303,2.418 0.792,3.631 1.446,3.631h1.013v-0.145l-0.44,-2.9v-0.165C53.253,22.635 53.446,22.153 53.715,22.153z" id="path_12"/><path fill="#203e96" d="M51.697,9.397c1.652,0 2.479,1.02 2.479,3.052c0,3.236 -2.763,5.998 -8.293,8.271c-0.792,0.241 -0.889,-0.049 -0.282,-0.868c0.151,-0.31 1.453,-1.28 3.912,-2.906v-0.138c-1.061,-0.434 -1.591,-1.357 -1.591,-2.769c0.702,-3.093 1.818,-4.643 3.347,-4.643H51.697L51.697,9.397zM49.231,12.89c0,0.86 0.729,1.392 2.183,1.598h0.283c0.537,0 0.881,-0.199 1.025,-0.585c0,-0.875 -0.633,-1.557 -1.894,-2.039C50.278,11.863 49.748,12.207 49.231,12.89z" id="path_13"/><path fill="#000002" d="M41.972,48.264l-1.818,-0.021c-1.005,4.429 -3.671,6.668 -7.989,6.723c-2.314,0.104 -3.472,0.062 -3.472,-0.124c0.214,-0.406 1.764,-1.185 4.643,-2.342c2.962,-1.88 4.746,-3.093 5.365,-3.63l0.165,-0.482l-2.823,-0.447c-2.06,-0.537 -3.217,-1.57 -3.472,-3.105V44.51c0,-2.611 0.641,-4.277 1.936,-5.007l0.971,-0.159c1.908,0 3.465,1.33 4.677,3.995c0.771,0.269 1.378,0.399 1.818,0.386V48.264z" id="path_14"/><path fill="#000002" d="M34.485,27.167h1.598c1.936,0 2.906,0.724 2.906,2.177c-1.253,3.389 -2.775,5.186 -4.566,5.393l-2.114,0.282c-0.337,0 -0.475,-0.097 -0.427,-0.282c1.708,-0.902 3.306,-1.977 4.787,-3.209c-0.523,-0.489 -1.103,-0.73 -1.736,-0.73h-0.447l-1.736,0.145l-0.137,-0.145v-0.282C33.432,28.283 34.059,27.167 34.485,27.167z" id="path_15"/><path fill="#e21171" d="M23.989,43.959l-3.072,-0.965c-0.593,-0.151 -1.508,-0.31 -2.741,-0.488v-0.158c-0.083,-2.707 0.62,-4.209 2.094,-4.519c1.081,-0.579 1.777,-1.226 2.101,-1.942c-0.104,-0.695 -1.611,-2.527 -4.518,-5.482c-0.152,-2.534 -0.131,-3.891 0.048,-4.091c0.187,-0.192 0.379,-0.228 0.599,-0.11c3.444,3.003 5.166,5.641 5.166,7.914c-0.082,1.487 -0.406,2.781 -0.971,3.871l-0.365,0.481c2.286,0.552 3.43,1.309 3.43,2.267v1.611c0,0.523 -0.076,1.061 -0.241,1.611H23.989z" id="path_16"/><path fill="#e21171" d="M17.894,17.043c0.551,0 1.839,0.647 3.871,1.936c0,0.806 -0.648,2.101 -1.936,3.877c-2.583,-0.833 -3.878,-1.591 -3.878,-2.258C16.02,19.99 16.667,18.807 17.894,17.043z" id="path_17"/><path fill="#e21171" d="M19.967,7.215c0.296,0.51 0.641,1.963 1.033,4.359c-0.241,1.453 -0.875,2.177 -1.901,2.177h-0.138c-0.447,0 -1.026,-0.289 -1.757,-0.868c-0.495,0.875 -1.226,1.316 -2.176,1.316c-1.157,0 -1.735,-1.406 -1.735,-4.216c0.337,-1.067 0.627,-1.598 0.867,-1.598l0.138,0.145v2.479c0.2,0.861 0.448,1.287 0.73,1.287h0.585c0.606,0 0.992,-0.24 1.171,-0.723l-0.303,-2.176c0.117,-0.73 0.317,-1.116 0.585,-1.15h0.304c0.303,2.417 0.792,3.629 1.446,3.629h1.013v-0.145l-0.441,-2.899V8.668C19.505,7.697 19.698,7.215 19.967,7.215z" id="path_18"/><path fill="#e21171" d="M26.165,52.816c0.166,-0.09 0.214,0.055 0.145,0.447c-0.916,2.148 -2.32,3.65 -4.215,4.497l-6.963,3.492c-0.296,-0.083 -0.352,-0.323 -0.165,-0.724c0.93,-1.79 1.563,-2.852 1.9,-3.188L26.165,52.816z" id="path_19"/><path fill="#000002" d="M25.4,43.959c-0.647,2.246 -2.61,4.725 -5.896,7.424c-1.977,1.406 -4.291,2.102 -6.936,2.102c-1.48,-0.338 -2.541,-0.676 -3.182,-1.006c-0.641,-0.338 -1.405,-1.082 -2.308,-2.225c-1.618,-2.148 -2.424,-4.139 -2.424,-5.971c0,-4.36 1.397,-7.853 4.201,-10.49c0.495,-0.352 0.709,-0.296 0.641,0.158c0,0.393 -0.807,1.901 -2.418,4.519c-0.647,1.309 -0.971,2.548 -0.971,3.712c0,1.674 1.185,3.499 3.554,5.489c1.681,0.931 3.506,1.31 5.489,1.13c2.335,0 5.241,-1.611 8.712,-4.842H25.4z" id="path_20"/><path fill="#000002" d="M44.55,13.406l0.165,0.165c0,2.177 -1.722,4.436 -5.165,6.777c-2.019,0.86 -4.063,1.288 -6.137,1.288l-1.453,-0.158c-0.537,2.045 -0.916,3.064 -1.13,3.064c-0.241,0 -0.564,-0.861 -0.972,-2.583c-0.75,-1.02 -1.99,-2.314 -3.712,-3.87v-0.324c0.379,-2.156 0.813,-3.23 1.295,-3.23c2.101,2.26 4.684,3.389 7.748,3.389C38.737,17.924 41.863,16.422 44.55,13.406z" id="path_21"/><path fill="#000002" d="M7.797,22.67h1.599c1.935,0 2.906,0.724 2.906,2.176c-1.254,3.389 -2.775,5.188 -4.566,5.394L5.62,30.521c-0.337,0 -0.475,-0.096 -0.427,-0.282c1.708,-0.902 3.307,-1.977 4.787,-3.21C9.457,26.541 8.878,26.3 8.245,26.3H7.797l-1.735,0.145L5.924,26.3v-0.282C6.743,23.785 7.37,22.67 7.797,22.67z" id="path_22"/></svg>