<svg id="vector" xmlns="http://www.w3.org/2000/svg" width="124" height="67" viewBox="0 0 124.453 67"><path fill="#203e96" d="M116.483,37.303h0.565c1.65,0 2.873,1.461 3.674,4.391l0.139,1.461c0.049,0.475 0.049,0.961 0,1.467c-0.422,1.78 -1.367,3.535 -2.824,5.264c-1.012,0.881 -3.313,1.562 -6.914,2.049c-0.422,-0.193 -0.663,-0.387 -0.705,-0.58c6.022,-3.392 9.034,-5.439 9.034,-6.151l0.139,-0.438l-0.139,-0.144l-1.271,0.438h-0.705c-2.541,0 -3.813,-0.93 -3.813,-2.779v-0.293c0.325,-3.028 1.036,-4.539 2.114,-4.539L116.483,37.303z" id="path_0"/><path fill="#203e96" d="M120.224,25.445c0.145,-0.088 0.187,0.05 0.126,0.406c-0.801,1.947 -2.029,3.309 -3.686,4.078l-6.09,3.165c-0.259,-0.075 -0.307,-0.294 -0.145,-0.662c0.813,-1.624 1.367,-2.585 1.663,-2.892L120.224,25.445z" id="path_1"/><path fill="#DD2C00" d="M105.877,25.852l1.132,3.516c0.566,0.537 0.85,0.974 0.85,1.316l-0.987,4.391l0.138,2.341c0,5.745 -1.976,9.698 -5.926,11.853c-3.217,1.073 -5.475,1.61 -6.775,1.61l-0.145,-0.144v-0.293l2.963,-1.461c1.204,-0.575 2.801,-1.506 4.8,-2.785c2.168,-2.099 3.391,-3.561 3.674,-4.391l-0.355,-6.144l-0.354,-6.151C105.269,27.074 105.6,25.852 105.877,25.852z" id="path_2"/><path fill="#000002" d="M110.568,17.128c0.145,-0.087 0.187,0.05 0.127,0.405c-0.802,1.949 -2.03,3.311 -3.687,4.078l-6.089,3.166c-0.259,-0.075 -0.307,-0.293 -0.145,-0.662c0.813,-1.623 1.367,-2.585 1.662,-2.891L110.568,17.128z" id="path_3"/><path fill="#000002" d="M91.838,24.826c1.15,0 3.505,1.855 7.053,5.564c2.734,3.416 4.096,6.631 4.096,9.66v1.168c-0.072,2.048 -0.26,3.072 -0.566,3.072l-0.283,-0.287v-1.762c0,-2.779 -1.976,-6.194 -5.927,-10.24l-0.704,-0.443c-0.259,0.98 -0.494,1.467 -0.705,1.467l-3.391,-4.389l0.145,-3.66l0.139,-0.15H91.838z" id="path_4"/><path fill="#000002" d="M87.23,23.216c0.282,0 0.565,0.98 0.849,2.929l1.271,2.929l-0.566,3.366l0.421,8.198v1.312c-0.187,3.347 -0.656,5.295 -1.409,5.856l-0.139,-0.144l0.139,-2.197c0,-1.974 -0.614,-8.268 -1.837,-18.877C86.55,24.34 86.971,23.216 87.23,23.216z" id="path_5"/><path fill="#000002" d="M83.249,41.35c-0.313,1.654 -1.066,2.973 -2.24,3.952c-1.085,0.806 -3.103,1.587 -6.071,2.342c-6.222,0.412 -9.739,0.068 -10.552,-1.024c-0.867,-0.942 2.18,-1.68 9.143,-2.217c3.644,-0.537 6.469,-1.555 8.468,-3.053c0.024,-0.013 0.048,-0.075 0.072,-0.193c0.024,-0.113 -0.548,-4.696 -1.711,-13.75c0.422,-2.635 0.802,-3.947 1.127,-3.947l1.837,4.391c0,0.68 -0.235,1.704 -0.705,3.072l0.705,7.898C83.357,40.176 83.333,41.019 83.249,41.35z" id="path_6"/><path fill="#008146" d="M56.11,43.635h0.548c1.861,-0.206 3.427,-1.373 4.698,-3.497c0.187,-0.437 0.373,-0.681 0.56,-0.73h0.145l0.422,0.443c-0.061,0.556 -0.15,0.949 -0.283,1.168c0.825,1.562 1.813,2.341 2.963,2.341l0.145,0.145c2.048,-4.684 4.349,-7.025 6.915,-7.025c2.047,0 3.553,0.881 4.517,2.635v0.881c0,5.364 -3.198,8.049 -9.601,8.049L65.023,47.9c-0.656,1.848 -1.084,2.777 -1.271,2.777l-0.139,-0.143v-0.15l0.422,-2.484v-0.295c-1.392,-0.805 -2.47,-1.929 -3.246,-3.365c-0.729,2.473 -2.289,3.666 -4.68,3.565V43.635L56.11,43.635zM66.717,43.797H67c3.197,0 5.926,-0.486 8.185,-1.461c0,-1.049 -0.939,-1.779 -2.819,-2.198H71.8C69.541,40.138 67.849,41.361 66.717,43.797z" id="path_7"/><path fill="#008146" d="M66.295,30.191c2.349,0.779 3.529,1.41 3.529,1.897v0.294c-0.753,2.148 -1.367,3.222 -1.837,3.222c-1.903,-0.806 -2.987,-1.343 -3.246,-1.61V33.7C65.12,32.238 65.633,31.064 66.295,30.191z" id="path_8"/><path fill="#008146" d="M67.402,20.494c0.26,0.461 0.561,1.779 0.904,3.951c-0.211,1.318 -0.766,1.975 -1.663,1.975h-0.12c-0.392,0 -0.897,-0.263 -1.536,-0.787c-0.434,0.793 -1.071,1.192 -1.903,1.192c-1.012,0 -1.518,-1.274 -1.518,-3.821c0.295,-0.969 0.549,-1.449 0.76,-1.449l0.12,0.131v2.248c0.174,0.781 0.392,1.168 0.638,1.168h0.513c0.53,0 0.867,-0.219 1.023,-0.656l-0.265,-1.973c0.103,-0.662 0.276,-1.012 0.512,-1.043h0.265c0.266,2.192 0.693,3.291 1.265,3.291h0.886V24.59l-0.386,-2.629v-0.15C66.999,20.931 67.168,20.494 67.402,20.494z" id="path_9"/><path fill="#008146" d="M69.541,12.445c0.145,-0.088 0.187,0.049 0.126,0.405c-0.801,1.948 -2.029,3.31 -3.686,4.077l-6.089,3.166c-0.259,-0.074 -0.308,-0.293 -0.145,-0.662c0.813,-1.623 1.367,-2.584 1.662,-2.891L69.541,12.445z" id="path_10"/><path fill="#008146" d="M56.164,47.806c-2.74,0.169 -4.733,-1.143 -5.98,-3.934c-0.603,-1.036 -1.168,-8.024 -1.692,-20.962v-0.294c0.35,-2.147 0.867,-3.222 1.548,-3.222l0.711,-0.144c0.867,0 2.186,0.294 3.951,0.874v0.293c-0.097,0.294 -0.38,0.443 -0.85,0.443h-2.397c-0.493,0 -0.963,0.288 -1.415,0.875c0.439,11.233 1.078,17.74 1.928,19.52c0.843,1.779 2.246,2.572 4.197,2.379V47.806z" id="path_11"/><path fill="#008146" d="M60.055,9.26l0.145,0.15c0,1.973 -1.506,4.021 -4.517,6.145c-1.765,0.78 -3.554,1.167 -5.366,1.167l-1.271,-0.144c-0.471,1.854 -0.802,2.779 -0.988,2.779c-0.211,0 -0.494,-0.781 -0.85,-2.342c-0.656,-0.924 -1.74,-2.098 -3.246,-3.51v-0.293c0.331,-1.955 0.711,-2.929 1.132,-2.929c1.838,2.048 4.096,3.071 6.776,3.071C54.972,13.355 57.706,11.995 60.055,9.26z" id="path_12"/><path fill="#203e96" d="M34.717,44.658c0.163,0.014 0.338,0.02 0.53,0.02h1.337c1.416,-0.244 2.494,-0.756 3.246,-1.536l-1.692,-13.906c0.422,-2.635 0.802,-3.946 1.127,-3.946l1.837,4.39c0,0.681 -0.235,1.705 -0.705,3.072l0.705,7.899v2.197c-0.53,2.33 -1.24,3.959 -2.132,4.883c-0.675,0.744 -1.464,1.118 -2.386,1.118h-1.198c-0.235,0 -0.458,-0.006 -0.669,-0.019V44.658z" id="path_13"/><path fill="#203e96" d="M43.288,16.74c0.259,0.463 0.56,1.78 0.903,3.953c-0.211,1.317 -0.766,1.973 -1.663,1.973h-0.12c-0.392,0 -0.897,-0.262 -1.536,-0.786c-0.434,0.793 -1.071,1.192 -1.903,1.192c-1.012,0 -1.518,-1.273 -1.518,-3.821c0.295,-0.968 0.549,-1.448 0.76,-1.448l0.12,0.131v2.248c0.174,0.78 0.392,1.168 0.638,1.168h0.513c0.529,0 0.867,-0.219 1.023,-0.656l-0.265,-1.973c0.103,-0.662 0.277,-1.012 0.512,-1.043h0.265c0.266,2.191 0.693,3.291 1.265,3.291h0.886v-0.132l-0.386,-2.628v-0.15C42.884,17.178 43.053,16.74 43.288,16.74z" id="path_14"/><path fill="#203e96" d="M46.076,50.092c0.145,-0.082 0.187,0.049 0.126,0.405c-0.801,1.948 -2.029,3.31 -3.686,4.077l-6.089,3.166c-0.259,-0.074 -0.308,-0.293 -0.145,-0.655c0.813,-1.624 1.367,-2.585 1.662,-2.892L46.076,50.092z" id="path_15"/><path fill="#000002" d="M23.255,51.502h0.566c1.855,1.094 2.794,1.73 2.818,1.898c-0.915,2.049 -1.529,3.123 -1.831,3.223c-1.06,0 -2.096,-0.537 -3.107,-1.611C21.888,53.963 22.405,52.795 23.255,51.502z" id="path_16"/><path fill="#000002" d="M28.193,50.766c0.897,0 1.976,0.637 3.247,1.904c0,0.512 -0.608,1.536 -1.838,3.072c-0.704,0 -1.74,-0.486 -3.102,-1.461C26.501,53.426 27.067,52.258 28.193,50.766z" id="path_17"/><path fill="#000002" d="M24.677,39.807h0.036c1.645,0 2.963,-0.58 3.951,-1.754l-0.139,-1.168c0,-1.443 0.283,-2.61 0.844,-3.516c0.259,0 0.638,2.492 1.132,7.462c0.566,2.685 2.535,3.928 5.908,3.733v4.172c-3.294,0.244 -5.589,-1.318 -6.896,-4.684c-0.211,-2.342 -0.446,-3.509 -0.705,-3.509c-0.554,2.216 -1.934,3.384 -4.132,3.49V39.807z" id="path_18"/><path fill="#000002" d="M25.743,22.523h1.397c1.692,0 2.542,0.655 2.542,1.973c-1.097,3.072 -2.428,4.701 -3.993,4.889l-1.85,0.256c-0.295,0 -0.415,-0.087 -0.373,-0.256c1.494,-0.817 2.891,-1.791 4.187,-2.909c-0.458,-0.444 -0.965,-0.662 -1.519,-0.662h-0.392l-1.518,0.132l-0.12,-0.132v-0.256C24.822,23.534 25.37,22.523 25.743,22.523z" id="path_19"/><path fill="#DD2C00" d="M12.589,40.194c1.392,0.462 2.47,1.049 3.247,1.755v0.293c0,0.487 -0.519,1.561 -1.555,3.223c-0.963,0 -2.041,-0.537 -3.246,-1.611V43.56C11.035,42.511 11.554,41.393 12.589,40.194z" id="path_20"/><path fill="#000002" d="M25.032,44.034c-1.283,0 -2.276,-0.206 -2.987,-0.618c-0.35,3.172 -1.006,5.364 -1.976,6.588c-2.325,3.022 -4.728,4.533 -7.197,4.533c-4.541,0 -7.504,-2.048 -8.896,-6.145c-0.277,-0.78 -0.422,-1.611 -0.422,-2.491v-1.167c0,-3.467 1.036,-6.195 3.108,-8.199c0.373,0.15 0.565,0.486 0.565,1.023l-2.258,4.246l-0.145,1.462c0,3.297 1.74,5.589 5.222,6.881l3.674,0.294c1.548,0 3.481,-0.931 5.788,-2.779c0.843,-1.417 1.271,-2.441 1.271,-3.078c-0.097,-0.975 -0.711,-2.386 -1.837,-4.24v-3.078l0.422,-0.438c1.023,2.136 2.915,3.166 5.667,3.092V44.034z" id="path_21"/><path fill="#DD2C00" d="M17.913,23.878c0.145,-0.087 0.188,0.05 0.127,0.405c-0.802,1.949 -2.03,3.311 -3.687,4.078l-6.089,3.166c-0.259,-0.075 -0.307,-0.293 -0.145,-0.662c0.813,-1.623 1.367,-2.586 1.663,-2.891L17.913,23.878z" id="path_22"/></svg>