<svg id="vector" xmlns="http://www.w3.org/2000/svg" width="99" height="67" viewBox="0 0 99.179 67"><path fill="#000002" d="M93.158,47.086c-0.358,1.824 -1.22,3.277 -2.563,4.359c-1.239,0.889 -3.547,1.749 -6.942,2.582c-7.114,0.455 -11.137,0.076 -12.066,-1.129c-0.992,-1.04 2.493,-1.853 10.455,-2.445c4.167,-0.592 7.396,-1.715 9.684,-3.367c0.027,-0.015 0.055,-0.083 0.082,-0.214c0.028,-0.124 -0.626,-5.18 -1.956,-15.166c0.482,-2.907 0.916,-4.353 1.288,-4.353l2.101,4.842c0,0.751 -0.269,1.88 -0.806,3.389l0.806,8.712C93.282,45.791 93.254,46.721 93.158,47.086z" id="path_0"/><path fill="#000002" d="M96.085,17.704c0.165,-0.097 0.214,0.055 0.145,0.447c-0.916,2.149 -2.321,3.65 -4.215,4.498l-6.964,3.492c-0.296,-0.083 -0.351,-0.323 -0.165,-0.73c0.93,-1.791 1.563,-2.851 1.901,-3.189L96.085,17.704z" id="path_1"/><path fill="#008146" d="M62.123,49.605h0.627c2.128,-0.227 3.919,-1.514 5.372,-3.856c0.214,-0.481 0.428,-0.751 0.641,-0.806h0.165l0.482,0.489c-0.069,0.612 -0.173,1.047 -0.324,1.288c0.944,1.721 2.073,2.582 3.39,2.582l0.165,0.159c2.342,-5.166 4.973,-7.749 7.906,-7.749c2.342,0 4.063,0.971 5.166,2.906v0.972c0,5.917 -3.657,8.878 -10.979,8.878l-2.418,-0.158c-0.751,2.039 -1.239,3.064 -1.453,3.064l-0.158,-0.158v-0.166l0.482,-2.74v-0.324c-1.592,-0.889 -2.824,-2.128 -3.713,-3.712c-0.833,2.728 -2.617,4.042 -5.352,3.933V49.605L62.123,49.605zM74.252,49.785h0.324c3.657,0 6.776,-0.537 9.359,-1.611c0,-1.157 -1.074,-1.963 -3.223,-2.425h-0.647C77.482,45.749 75.547,47.1 74.252,49.785z" id="path_2"/><path fill="#008146" d="M73.77,34.777c2.687,0.861 4.036,1.557 4.036,2.094v0.324c-0.86,2.369 -1.563,3.554 -2.101,3.554c-2.177,-0.889 -3.416,-1.481 -3.712,-1.776v-0.324C72.427,37.037 73.013,35.742 73.77,34.777z" id="path_3"/><path fill="#008146" d="M77.84,24.543c0.166,-0.097 0.214,0.055 0.146,0.447c-0.917,2.149 -2.321,3.65 -4.216,4.498l-6.963,3.492c-0.296,-0.083 -0.352,-0.324 -0.165,-0.73c0.93,-1.791 1.563,-2.852 1.9,-3.189L77.84,24.543z" id="path_4"/><path fill="#008146" d="M62.186,54.207c-3.134,0.186 -5.414,-1.26 -6.839,-4.34c-0.689,-1.143 -1.337,-8.85 -1.936,-23.12v-0.324c0.399,-2.37 0.991,-3.554 1.77,-3.554l0.813,-0.159c0.992,0 2.5,0.324 4.519,0.964v0.324c-0.11,0.324 -0.434,0.489 -0.972,0.489H56.8c-0.565,0 -1.103,0.317 -1.619,0.964c0.503,12.39 1.233,19.568 2.204,21.531c0.964,1.963 2.569,2.838 4.801,2.623V54.207z" id="path_5"/><path fill="#008146" d="M65.532,11.691l0.166,0.165c0,2.177 -1.722,4.436 -5.166,6.777c-2.018,0.861 -4.063,1.288 -6.137,1.288l-1.453,-0.158c-0.537,2.046 -0.916,3.065 -1.13,3.065c-0.24,0 -0.564,-0.861 -0.971,-2.583c-0.751,-1.019 -1.99,-2.314 -3.712,-3.871v-0.324c0.378,-2.156 0.813,-3.23 1.295,-3.23c2.1,2.259 4.683,3.389 7.748,3.389C59.72,16.209 62.847,14.708 65.532,11.691z" id="path_6"/><path fill="#203e96" d="M37.659,49.586c0.186,0.014 0.386,0.02 0.606,0.02h1.529c1.618,-0.268 2.851,-0.832 3.712,-1.693l-1.936,-15.338c0.482,-2.906 0.916,-4.353 1.288,-4.353l2.101,4.841c0,0.751 -0.269,1.88 -0.806,3.389l0.806,8.713v2.424c-0.605,2.568 -1.419,4.367 -2.438,5.387c-0.771,0.818 -1.674,1.232 -2.728,1.232h-1.371c-0.269,0 -0.523,-0.007 -0.765,-0.021V49.586z" id="path_7"/><path fill="#203e96" d="M44.154,18.792c0.296,0.51 0.641,1.963 1.033,4.359c-0.241,1.454 -0.875,2.177 -1.901,2.177h-0.138c-0.447,0 -1.025,-0.289 -1.756,-0.868c-0.496,0.875 -1.226,1.315 -2.177,1.315c-1.157,0 -1.735,-1.405 -1.735,-4.215c0.338,-1.067 0.627,-1.598 0.868,-1.598l0.138,0.145v2.479c0.199,0.861 0.447,1.288 0.729,1.288h0.586c0.605,0 0.991,-0.241 1.171,-0.724l-0.304,-2.176c0.117,-0.73 0.317,-1.116 0.586,-1.15h0.303c0.303,2.417 0.792,3.629 1.446,3.629h1.013v-0.144l-0.44,-2.9v-0.166C43.692,19.274 43.886,18.792 44.154,18.792z" id="path_8"/><path fill="#203e96" d="M42.144,6.037c1.652,0 2.479,1.019 2.479,3.051c0,3.238 -2.762,5.999 -8.292,8.272c-0.792,0.241 -0.889,-0.048 -0.282,-0.868c0.151,-0.31 1.453,-1.281 3.912,-2.907v-0.138c-1.061,-0.434 -1.591,-1.356 -1.591,-2.769c0.702,-3.092 1.818,-4.642 3.347,-4.642H42.144L42.144,6.037zM39.678,9.529c0,0.861 0.729,1.391 2.183,1.598h0.283c0.537,0 0.882,-0.2 1.026,-0.585c0,-0.875 -0.634,-1.557 -1.895,-2.039C40.725,8.502 40.194,8.847 39.678,9.529z" id="path_9"/><path fill="#000002" d="M37.956,54.207l-1.818,-0.021c-1.006,4.429 -3.671,6.667 -7.99,6.722c-2.313,0.104 -3.471,0.063 -3.471,-0.124c0.213,-0.406 1.764,-1.185 4.642,-2.341c2.962,-1.881 4.746,-3.093 5.365,-3.631l0.166,-0.481l-2.824,-0.448c-2.06,-0.537 -3.216,-1.57 -3.471,-3.105v-0.324c0,-2.61 0.641,-4.277 1.935,-5.007l0.972,-0.159c1.908,0 3.464,1.33 4.677,3.995c0.771,0.269 1.377,0.399 1.818,0.386V54.207z" id="path_10"/><path fill="#000002" d="M30.469,32.009h1.598c1.936,0 2.906,0.724 2.906,2.177c-1.253,3.389 -2.775,5.186 -4.565,5.393l-2.115,0.282c-0.337,0 -0.475,-0.097 -0.427,-0.282c1.708,-0.902 3.306,-1.977 4.787,-3.209c-0.523,-0.489 -1.102,-0.73 -1.735,-0.73h-0.448l-1.735,0.145l-0.138,-0.145v-0.282C29.415,33.125 30.042,32.009 30.469,32.009z" id="path_11"/><path fill="#DD2C00" d="M12.927,43.422h0.323c1.509,0.344 2.852,1.156 4.036,2.417v0.323c-0.103,0.861 -0.75,1.99 -1.935,3.389c-2.797,-0.937 -4.195,-1.749 -4.195,-2.417C11.824,45.198 12.417,43.959 12.927,43.422z" id="path_12"/><path fill="#DD2C00" d="M21.487,40.191h0.317c0.379,0 1.294,2.424 2.748,7.266l0.158,0.641c0,3.795 -0.916,6.543 -2.741,8.238c-2.583,2.795 -5.647,4.193 -9.201,4.193c-2.907,-0.646 -4.787,-1.287 -5.648,-1.936c-2.803,-2.396 -4.201,-5.357 -4.201,-8.877c0,-2.962 1.295,-5.758 3.878,-8.396l0.158,-0.158h0.324l0.323,0.316c0,0.276 -0.751,1.454 -2.259,3.555c-0.434,0.751 -0.703,1.777 -0.806,3.064c0,2.508 1.288,4.656 3.87,6.461c2.528,0.971 4.25,1.453 5.166,1.453c2.313,0 5.056,-1.026 8.23,-3.064c1.294,-1.137 1.941,-1.832 1.941,-2.102l-2.259,-6.295l-0.165,-1.129L21.487,40.191z" id="path_13"/><path fill="#DD2C00" d="M18.815,26.774c0.165,-0.096 0.214,0.055 0.145,0.448c-0.916,2.149 -2.321,3.65 -4.215,4.498l-6.963,3.492c-0.297,-0.083 -0.352,-0.323 -0.166,-0.73c0.93,-1.791 1.563,-2.851 1.901,-3.189L18.815,26.774z" id="path_14"/></svg>