<svg id="vector" xmlns="http://www.w3.org/2000/svg" width="99" height="67" viewBox="0 0 99.179 67"><path fill="#000002" d="M73.454,47.727h1.86c1.962,-0.27 5.082,-0.999 9.359,-2.177v-0.165c-3.898,-1.723 -6.37,-2.584 -7.425,-2.584c-1.425,0 -2.39,0.807 -2.906,2.426L73.86,45.55c-0.213,0 -0.323,-0.165 -0.323,-0.489c0.537,-3.223 1.99,-4.842 4.359,-4.842h0.806c0.999,0 4.388,1.129 10.173,3.389l4.359,0.324l0.317,0.488c-0.076,0.724 -0.724,2.121 -1.936,4.194h-0.482l-0.647,-0.165h-0.806c-8.396,2.479 -13.293,3.768 -14.69,3.877h-1.536V47.727z" id="path_0"/><path fill="#000002" d="M88.89,26.678c0.165,-0.097 0.213,0.055 0.144,0.447c-0.915,2.149 -2.32,3.65 -4.215,4.498l-6.963,3.492c-0.296,-0.083 -0.352,-0.323 -0.165,-0.73c0.93,-1.791 1.563,-2.851 1.9,-3.188L88.89,26.678z" id="path_1"/><path fill="#DD2C00" d="M73.826,52.326c-3.134,0.187 -5.413,-1.26 -6.839,-4.338c-0.688,-1.145 -1.336,-8.852 -1.936,-23.122v-0.324c0.399,-2.369 0.991,-3.554 1.77,-3.554l0.813,-0.158c0.991,0 2.5,0.324 4.518,0.964v0.324c-0.11,0.324 -0.434,0.489 -0.971,0.489H68.44c-0.564,0 -1.103,0.317 -1.619,0.964c0.503,12.391 1.233,19.567 2.205,21.53c0.964,1.963 2.568,2.838 4.8,2.625V52.326z" id="path_2"/><path fill="#DD2C00" d="M77.174,9.811l0.165,0.166c0,2.176 -1.722,4.436 -5.166,6.777c-2.018,0.861 -4.063,1.288 -6.136,1.288l-1.453,-0.158c-0.538,2.045 -0.917,3.064 -1.13,3.064c-0.241,0 -0.565,-0.861 -0.972,-2.583c-0.751,-1.019 -1.99,-2.314 -3.712,-3.871V14.17c0.379,-2.156 0.813,-3.23 1.295,-3.23c2.101,2.259 4.684,3.389 7.748,3.389C71.36,14.329 74.487,12.828 77.174,9.811z" id="path_3"/><path fill="#000002" d="M48.501,51.053c2.26,1.13 3.389,2.101 3.389,2.906c-1.074,2.129 -1.722,3.203 -1.936,3.23h-0.323c-1.653,-0.834 -2.679,-1.592 -3.064,-2.26C46.938,53.704 47.585,52.409 48.501,51.053z" id="path_4"/><path fill="#000002" d="M39.699,46.775h1.859c1.963,-0.269 5.083,-0.998 9.36,-2.176v-0.166c-3.898,-1.722 -6.371,-2.582 -7.425,-2.582c-1.426,0 -2.39,0.806 -2.906,2.424L40.105,44.6c-0.213,0 -0.323,-0.166 -0.323,-0.489c0.537,-3.224 1.99,-4.843 4.359,-4.843h0.806c0.999,0 4.388,1.131 10.173,3.39l4.359,0.323l0.317,0.489c-0.076,0.724 -0.724,2.121 -1.936,4.194h-0.482l-0.647,-0.166h-0.806c-8.396,2.48 -13.293,3.768 -14.69,3.879h-1.536V46.775z" id="path_5"/><path fill="#000002" d="M52.152,25.266c0.296,0.51 0.641,1.963 1.032,4.36c-0.24,1.453 -0.875,2.176 -1.9,2.176h-0.138c-0.448,0 -1.026,-0.289 -1.757,-0.868c-0.495,0.875 -1.226,1.315 -2.176,1.315c-1.157,0 -1.735,-1.405 -1.735,-4.215c0.337,-1.067 0.626,-1.598 0.867,-1.598l0.138,0.145v2.48c0.2,0.861 0.448,1.288 0.73,1.288h0.585c0.606,0 0.992,-0.241 1.171,-0.723l-0.303,-2.176c0.117,-0.73 0.316,-1.116 0.585,-1.15h0.303c0.304,2.417 0.793,3.63 1.447,3.63h1.013v-0.145l-0.441,-2.899V26.72C51.69,25.749 51.883,25.266 52.152,25.266z" id="path_6"/><path fill="#000002" d="M54.59,16.389c0.165,-0.097 0.214,0.055 0.145,0.447c-0.916,2.149 -2.321,3.65 -4.215,4.498l-6.964,3.492c-0.296,-0.083 -0.351,-0.324 -0.165,-0.73c0.93,-1.791 1.563,-2.852 1.901,-3.189L54.59,16.389z" id="path_7"/><path fill="#203e96" d="M40.209,51.377h-0.207c-4.022,0.109 -7.197,-1.785 -9.519,-5.669c-0.123,0.44 -0.247,0.854 -0.364,1.233c-0.338,0.916 -0.785,1.652 -1.351,2.217c-0.434,0.482 -0.971,0.889 -1.618,1.213c-1.412,0.764 -3.396,1.363 -5.951,1.797l-4.559,0.158h-1.619c-3.815,0 -6.729,-1.397 -8.733,-4.193c-0.537,-0.943 -0.75,-2.184 -0.626,-3.713c0.619,-3.988 1.425,-5.979 2.424,-5.979c0.345,0 0.565,0.166 0.641,0.49c0,0.426 -0.592,1.879 -1.77,4.352v0.166c0,1.88 2.203,3.333 6.611,4.359l1.942,0.158c6.888,0 11.495,-1.178 13.823,-3.533c-0.165,-1.047 -1.179,-3.381 -3.052,-6.997l-0.323,-1.295c-0.345,-1.694 -0.337,-3.244 0.041,-4.656c0.379,-1.412 1.116,-2.39 2.218,-2.927c2.563,-1.722 7.452,-4.573 14.69,-8.554l0.166,0.158v0.324c-1.563,2.445 -2.748,4.711 -3.554,6.777h-0.324l-0.158,-0.806v-0.806l0.158,-0.165v-0.159h-0.158c-5.999,3.471 -10.035,5.999 -12.108,7.59v0.159c1.047,2.114 1.874,3.995 2.479,5.648c1.832,3.271 3.555,5.427 5.166,6.467c1.618,1.047 3.071,1.563 4.359,1.563h1.274V51.377z" id="path_8"/><path fill="#203e96" d="M24.933,25.452c0.165,-0.096 0.214,0.055 0.145,0.448c-0.916,2.149 -2.32,3.65 -4.215,4.498l-6.963,3.492c-0.297,-0.083 -0.352,-0.324 -0.166,-0.73c0.93,-1.791 1.563,-2.851 1.901,-3.189L24.933,25.452z" id="path_9"/></svg>