<svg id="vector" xmlns="http://www.w3.org/2000/svg" width="124" height="67" viewBox="0 0 124.453 67"><path fill="#203e96" d="M116.45,39.645h0.622c1.813,0 3.155,1.611 4.035,4.842l0.152,1.611c0.054,0.523 0.054,1.061 0,1.619c-0.463,1.963 -1.502,3.897 -3.103,5.805c-1.112,0.972 -3.64,1.723 -7.596,2.26c-0.463,-0.214 -0.728,-0.428 -0.773,-0.641c6.616,-3.74 9.924,-5.998 9.924,-6.784l0.152,-0.481l-0.152,-0.158l-1.396,0.481h-0.773c-2.792,0 -4.188,-1.026 -4.188,-3.065V44.81c0.357,-3.341 1.138,-5.007 2.322,-5.007L116.45,39.645z" id="path_0"/><path fill="#203e96" d="M120.559,26.564c0.159,-0.096 0.205,0.056 0.139,0.448c-0.88,2.148 -2.229,3.649 -4.049,4.497l-6.689,3.492c-0.284,-0.082 -0.337,-0.324 -0.158,-0.73c0.893,-1.79 1.502,-2.851 1.826,-3.188L120.559,26.564z" id="path_1"/><path fill="#000002" d="M105.857,27.012l1.244,3.879c0.621,0.592 0.933,1.074 0.933,1.453l-1.085,4.842l0.152,2.582c0,6.337 -2.17,10.696 -6.511,13.072c-3.533,1.186 -6.014,1.777 -7.443,1.777l-0.158,-0.158v-0.324l3.255,-1.611c1.323,-0.634 3.076,-1.66 5.273,-3.072c2.381,-2.313 3.725,-3.926 4.035,-4.842l-0.39,-6.776l-0.391,-6.784C105.189,28.362 105.553,27.012 105.857,27.012z" id="path_2"/><path fill="#000002" d="M111.012,17.391c0.158,-0.096 0.205,0.055 0.139,0.447c-0.88,2.149 -2.229,3.65 -4.049,4.498l-6.689,3.492c-0.284,-0.083 -0.338,-0.324 -0.159,-0.73c0.894,-1.791 1.502,-2.852 1.826,-3.189L111.012,17.391z" id="path_3"/><path fill="#203e96" d="M90.435,25.883c1.264,0 3.851,2.045 7.748,6.137c3.004,3.768 4.499,7.314 4.499,10.654v1.289c-0.08,2.258 -0.284,3.389 -0.622,3.389l-0.311,-0.317v-1.942c0,-3.064 -2.171,-6.832 -6.511,-11.295l-0.774,-0.489c-0.284,1.081 -0.542,1.618 -0.773,1.618l-3.726,-4.842l0.159,-4.036l0.152,-0.165H90.435z" id="path_4"/><path fill="#DD2C00" d="M79.479,31.84h0.311c1.059,0.242 2.197,0.882 3.414,1.936v0.158c-0.701,2.211 -1.316,3.389 -1.858,3.555c-1.582,-0.324 -2.766,-0.861 -3.566,-1.611v-0.166C77.778,34.443 78.347,33.156 79.479,31.84z" id="path_5"/><path fill="#DD2C00" d="M85.222,30.387h0.152c1.058,0.158 2.249,0.91 3.565,2.26v0.158l-1.858,3.389c-2.481,-0.834 -3.726,-1.529 -3.726,-2.094C84.156,31.62 84.778,30.387 85.222,30.387z" id="path_6"/><path fill="#DD2C00" d="M78.103,48.646c4.062,0.041 6.332,-0.752 6.828,-2.384c0,-0.565 -0.517,-1.963 -1.555,-4.194l0.469,-4.194h0.305c1.35,2.417 2.019,4.841 2.019,7.259v1.453c0,0.971 -0.226,1.99 -0.669,3.059c-0.442,1.067 -1.131,1.969 -2.051,2.692c-0.926,0.73 -2.706,1.033 -5.346,0.909V48.646z" id="path_7"/><path fill="#DD2C00" d="M87.928,21.709c0.158,-0.096 0.205,0.055 0.139,0.447c-0.88,2.149 -2.229,3.65 -4.049,4.498l-6.689,3.492c-0.284,-0.083 -0.338,-0.324 -0.159,-0.73c0.894,-1.791 1.502,-2.852 1.826,-3.189L87.928,21.709z" id="path_8"/><path fill="#203e96" d="M79.009,52.984c-3.447,0.256 -5.491,-1.226 -6.12,-4.441v-0.4l-11.32,2.742c-3.593,0.378 -6.404,0.371 -8.436,-0.008c-2.024,-0.385 -3.137,-0.978 -3.335,-1.791c-0.476,-0.847 0.642,-1.301 3.348,-1.356c2.706,-0.062 4.632,-0.124 5.783,-0.192c2.792,-0.434 6.828,-1.357 12.095,-2.783c-2.581,-1.618 -4.394,-2.424 -5.426,-2.424h-0.463c-1.218,0 -2.098,0.751 -2.641,2.259c-0.218,0.352 -0.37,0.296 -0.463,-0.158v-0.323c0.404,-3.018 1.846,-4.519 4.341,-4.519c1.085,0 3.982,1.02 8.687,3.065c1.495,0.281 2.739,0.337 3.719,0.158c0.132,0.014 0.186,0.123 0.158,0.323c-0.728,2.692 -1.706,4.036 -2.95,4.036c-1.145,0.124 -1.668,0.338 -1.549,0.647c0.543,0.806 2.071,1.075 4.572,0.806V52.984z" id="path_9"/><path fill="#008146" d="M36.427,46.628h0.602c2.045,-0.228 3.765,-1.516 5.161,-3.856c0.205,-0.482 0.41,-0.752 0.615,-0.807h0.159l0.463,0.488c-0.066,0.613 -0.166,1.048 -0.312,1.289c0.907,1.722 1.991,2.582 3.256,2.582l0.158,0.158c2.25,-5.165 4.777,-7.748 7.596,-7.748c2.25,0 3.903,0.972 4.962,2.906v0.973c0,5.915 -3.513,8.877 -10.546,8.877l-2.322,-0.158c-0.722,2.039 -1.191,3.064 -1.396,3.064l-0.152,-0.158v-0.165l0.464,-2.741v-0.324c-1.528,-0.889 -2.713,-2.128 -3.566,-3.712c-0.801,2.728 -2.514,4.043 -5.141,3.933V46.628L36.427,46.628zM48.077,46.807h0.312c3.514,0 6.511,-0.537 8.992,-1.611c0,-1.158 -1.033,-1.963 -3.097,-2.424h-0.622C51.181,42.771 49.321,44.121 48.077,46.807z" id="path_10"/><path fill="#008146" d="M47.614,31.799c2.581,0.861 3.878,1.557 3.878,2.094v0.324c-0.828,2.369 -1.502,3.554 -2.019,3.554c-2.091,-0.888 -3.281,-1.48 -3.566,-1.776V35.67C46.324,34.059 46.887,32.764 47.614,31.799z" id="path_11"/><path fill="#008146" d="M48.832,21.104c0.284,0.51 0.615,1.963 0.992,4.359c-0.231,1.453 -0.841,2.176 -1.826,2.176h-0.132c-0.431,0 -0.986,-0.289 -1.688,-0.867c-0.477,0.875 -1.178,1.315 -2.091,1.315c-1.111,0 -1.667,-1.405 -1.667,-4.216c0.324,-1.066 0.602,-1.598 0.834,-1.598l0.132,0.145v2.48c0.192,0.86 0.43,1.287 0.701,1.287h0.563c0.582,0 0.953,-0.24 1.125,-0.723l-0.291,-2.177c0.112,-0.729 0.304,-1.116 0.563,-1.149h0.291c0.291,2.417 0.761,3.629 1.389,3.629h0.973v-0.145l-0.423,-2.899v-0.165C48.389,21.585 48.574,21.104 48.832,21.104z" id="path_12"/><path fill="#008146" d="M46.899,8.348c1.588,0 2.383,1.02 2.383,3.051c0,3.237 -2.653,5.999 -7.967,8.272c-0.761,0.241 -0.854,-0.049 -0.271,-0.868c0.146,-0.311 1.396,-1.281 3.758,-2.906v-0.139c-1.019,-0.434 -1.528,-1.356 -1.528,-2.768c0.675,-3.094 1.746,-4.643 3.216,-4.643H46.899L46.899,8.348zM44.531,11.84c0,0.861 0.701,1.391 2.098,1.598h0.271c0.517,0 0.848,-0.199 0.986,-0.586c0,-0.874 -0.608,-1.557 -1.819,-2.039C45.537,10.813 45.027,11.158 44.531,11.84z" id="path_13"/><path fill="#203e96" d="M36.811,51.229l-1.747,-0.021c-0.966,4.429 -3.526,6.667 -7.675,6.722c-2.224,0.104 -3.335,0.063 -3.335,-0.123c0.205,-0.406 1.694,-1.186 4.46,-2.342c2.845,-1.881 4.559,-3.094 5.153,-3.631l0.159,-0.481l-2.713,-0.448c-1.978,-0.537 -3.09,-1.57 -3.334,-3.105v-0.324c0,-2.61 0.615,-4.277 1.859,-5.007l0.933,-0.159c1.832,0 3.328,1.33 4.492,3.995c0.741,0.269 1.323,0.399 1.747,0.386V51.229z" id="path_14"/><path fill="#203e96" d="M29.618,29.031h1.535c1.859,0 2.792,0.723 2.792,2.176c-1.204,3.389 -2.666,5.186 -4.387,5.393l-2.031,0.283c-0.324,0 -0.456,-0.098 -0.41,-0.283c1.641,-0.902 3.176,-1.977 4.599,-3.209c-0.503,-0.49 -1.059,-0.73 -1.668,-0.73h-0.43l-1.667,0.145l-0.133,-0.145v-0.282C28.605,30.146 29.208,29.031 29.618,29.031z" id="path_15"/><path fill="#000002" d="M12.767,41.545h0.311c1.449,0.344 2.739,1.157 3.877,2.418v0.323c-0.099,0.86 -0.721,1.99 -1.858,3.388c-2.687,-0.936 -4.029,-1.748 -4.029,-2.416C11.708,43.322 12.277,42.082 12.767,41.545z" id="path_16"/><path fill="#000002" d="M20.99,38.314h0.305c0.364,0 1.244,2.425 2.64,7.266l0.152,0.641c0,3.795 -0.88,6.543 -2.634,8.238c-2.48,2.796 -5.425,4.193 -8.839,4.193c-2.792,-0.646 -4.599,-1.287 -5.425,-1.935c-2.693,-2.396 -4.036,-5.358 -4.036,-8.878c0,-2.961 1.244,-5.758 3.725,-8.396l0.152,-0.159h0.311l0.312,0.317c0,0.276 -0.722,1.453 -2.17,3.554c-0.417,0.751 -0.675,1.777 -0.774,3.064c0,2.508 1.237,4.656 3.719,6.461c2.428,0.971 4.082,1.453 4.962,1.453c2.223,0 4.856,-1.025 7.906,-3.064c1.244,-1.137 1.865,-1.832 1.865,-2.101l-2.17,-6.296l-0.158,-1.129L20.99,38.314z" id="path_17"/><path fill="#000002" d="M18.424,24.898c0.158,-0.097 0.205,0.055 0.139,0.447c-0.88,2.148 -2.229,3.65 -4.049,4.498l-6.689,3.491c-0.284,-0.083 -0.337,-0.323 -0.159,-0.729c0.894,-1.791 1.502,-2.852 1.826,-3.189L18.424,24.898z" id="path_18"/><path fill="#203e96" d="M66.119,23.984c1.244,2.204 1.865,4.36 1.865,6.454c-0.542,3.981 -1.217,5.972 -2.018,5.972l-0.152,-0.158v-0.159l0.305,-2.101v-0.166c0,-1.287 -0.517,-3.223 -1.548,-5.806v-0.323C65.087,25.218 65.603,23.984 66.119,23.984z" id="path_19"/><path fill="#203e96" d="M75.038,12.197l0.158,0.165c0,2.177 -1.654,4.436 -4.962,6.776c-1.938,0.861 -3.903,1.289 -5.895,1.289l-1.396,-0.158c-0.517,2.045 -0.88,3.064 -1.085,3.064c-0.231,0 -0.543,-0.861 -0.934,-2.583c-0.721,-1.02 -1.912,-2.313 -3.565,-3.87v-0.324c0.363,-2.156 0.78,-3.23 1.243,-3.23c2.019,2.26 4.5,3.389 7.443,3.389C69.454,16.715 72.457,15.213 75.038,12.197z" id="path_20"/></svg>