<svg id="vector" xmlns="http://www.w3.org/2000/svg" width="75" height="67" viewBox="0 0 83 73"><path fill="#399121" d="M52.633,43.394h1.8c1.9,-0.261 4.92,-0.967 9.061,-2.107v-0.16c-3.773,-1.666 -6.167,-2.5 -7.187,-2.5c-1.38,0 -2.313,0.78 -2.813,2.347l-0.467,0.313c-0.207,0 -0.313,-0.16 -0.313,-0.473c0.52,-3.121 1.926,-4.688 4.219,-4.688h0.781c0.966,0 4.246,1.094 9.846,3.28l4.221,0.313l0.307,0.473c-0.074,0.701 -0.7,2.054 -1.873,4.061h-0.468l-0.626,-0.16h-0.78c-8.127,2.4 -12.866,3.646 -14.22,3.754h-1.487V43.394z" id="path_0"/><path fill="#399121" d="M67.573,23.02c0.16,-0.093 0.207,0.053 0.14,0.434c-0.887,2.08 -2.247,3.533 -4.079,4.353l-6.74,3.38c-0.287,-0.08 -0.34,-0.313 -0.16,-0.707c0.899,-1.733 1.514,-2.76 1.84,-3.086L67.573,23.02z" id="path_1"/><path fill="#000001" d="M44.3,32.2c0.88,0 2.08,0.733 3.594,2.187V34.7c-1.021,2.186 -1.693,3.287 -2.034,3.287l-3.593,-2.033h-0.16c-1.014,1.747 -1.687,2.68 -2.026,2.813h-0.161c-2.285,-1.021 -3.433,-1.801 -3.433,-2.347c0.833,-2.293 1.56,-3.433 2.187,-3.433l3.747,2.027C43.021,33.793 43.646,32.854 44.3,32.2z" id="path_2"/><path fill="#000001" d="M40.233,27.36c1.02,0 2.16,0.887 3.439,2.653c-0.34,0.807 -1.02,1.747 -2.033,2.813h-0.313c-0.907,-0.207 -1.9,-0.78 -2.967,-1.72V30.64C38.439,29.807 39.06,28.713 40.233,27.36z" id="path_3"/><path fill="#000001" d="M53.612,47.847c-0.246,0 -0.546,0 -0.899,0c-1.394,-0.014 -2.894,-1.061 -4.513,-3.146c-0.621,2.293 -1.714,3.439 -3.28,3.439h-0.153c-1.327,0 -2.42,-0.78 -3.28,-2.347h-0.159c-0.934,1.88 -2.067,2.733 -3.4,2.56c-2.474,0.014 -3.94,-1.152 -4.414,-3.492c-1.74,2.039 -3.613,3.039 -5.606,2.986h-0.253v-4.453h0.08c3.153,-0.234 5.493,-1.307 7.033,-3.221c0.207,0 0.313,0.153 0.313,0.467l-0.159,1.094c0.833,1.666 1.927,2.5 3.28,2.5c1.279,0 2.58,-1.247 3.906,-3.747h0.16l0.467,0.467v1.093c0,0.987 0.732,1.561 2.187,1.721h0.313c1.354,0 2.606,-1.354 3.753,-4.066h0.153c0.207,0 0.313,0.473 0.313,1.406c0.573,1.32 1.96,2.08 4.159,2.287V47.847z" id="path_4"/><path fill="#000001" d="M45.386,17.02c0.16,-0.093 0.207,0.054 0.141,0.434c-0.887,2.08 -2.247,3.534 -4.08,4.353l-6.74,3.38c-0.287,-0.08 -0.34,-0.313 -0.16,-0.707c0.9,-1.733 1.514,-2.76 1.84,-3.087L45.386,17.02z" id="path_5"/><path fill="#009649" d="M27.747,47.86c-0.141,0.014 -0.287,0.021 -0.428,0.021h-0.786c-1.22,0 -2.054,-0.1 -2.5,-0.313c-0.907,3.507 -1.967,5.653 -3.181,6.44c-1.213,0.786 -3.953,1.453 -8.22,2h-0.313c-0.939,-0.107 -1.406,-0.26 -1.406,-0.467c0,-0.314 0.78,-0.68 2.34,-1.094c6.146,-2.813 9.221,-4.847 9.221,-6.094c0,-0.52 -0.727,-1.719 -2.188,-3.593c-0.313,-0.526 -0.467,-1.2 -0.467,-2.033v-1.56c0,-0.787 0.154,-1.201 0.467,-1.254c1.354,2.073 3.646,3.227 6.873,3.473c0.201,0 0.395,0 0.588,-0.013V47.86z" id="path_6"/><path fill="#009649" d="M24.446,29.013c0.16,-0.093 0.207,0.054 0.141,0.434c-0.887,2.08 -2.247,3.533 -4.08,4.353l-6.74,3.38c-0.287,-0.08 -0.34,-0.313 -0.16,-0.707c0.9,-1.733 1.514,-2.76 1.84,-3.086L24.446,29.013z" id="path_7"/></svg>