<svg id="vector" xmlns="http://www.w3.org/2000/svg" width="75" height="67" viewBox="0 0 83 73"><path fill="#399121" d="M57.983,27.233c2.186,1.094 3.279,2.033 3.279,2.813c-1.039,2.054 -1.666,3.1 -1.873,3.127h-0.314c-1.6,-0.807 -2.592,-1.54 -2.965,-2.187C56.47,29.8 57.097,28.547 57.983,27.233z" id="path_0"/><path fill="#399121" d="M49.462,43.347h1.801c1.9,-0.26 4.92,-0.967 9.061,-2.106v-0.16c-3.773,-1.666 -6.168,-2.5 -7.188,-2.5c-1.379,0 -2.313,0.78 -2.813,2.347l-0.467,0.313c-0.207,0 -0.314,-0.16 -0.314,-0.474c0.521,-3.12 1.928,-4.687 4.221,-4.687h0.781c0.965,0 4.246,1.094 9.846,3.28l4.221,0.313l0.305,0.473c-0.072,0.7 -0.699,2.054 -1.873,4.061h-0.467l-0.625,-0.16h-0.781c-8.127,2.4 -12.865,3.646 -14.219,3.753h-1.488V43.347z" id="path_1"/><path fill="#399121" d="M63.235,17.507c0.16,-0.093 0.207,0.054 0.141,0.434c-0.887,2.08 -2.246,3.533 -4.08,4.354l-6.74,3.38c-0.285,-0.08 -0.34,-0.313 -0.16,-0.707c0.9,-1.733 1.514,-2.76 1.84,-3.087L63.235,17.507z" id="path_2"/><path fill="#000001" d="M38.396,43.347c0.027,0 0.061,0 0.094,0c2.5,-0.153 3.934,-1.273 4.301,-3.359c-0.941,-6.247 -1.408,-10.627 -1.408,-13.127c0,-0.96 0.42,-2.214 1.254,-3.747l0.154,0.153l0.313,0.313l-0.16,1.094c0.133,7.02 1.02,12.46 2.66,16.326c0.627,1.407 2.16,2.193 4.607,2.347V47.8c-3.361,-0.053 -5.621,-1.819 -6.793,-5.313h-0.16c-1.08,3.5 -2.701,5.272 -4.861,5.313V43.347z" id="path_3"/><path fill="#000001" d="M47.923,14.62c0.16,-0.093 0.207,0.054 0.141,0.434c-0.887,2.08 -2.248,3.533 -4.08,4.354l-6.74,3.38c-0.287,-0.08 -0.34,-0.313 -0.16,-0.707c0.9,-1.733 1.514,-2.76 1.84,-3.086L47.923,14.62z" id="path_4"/><path fill="#399121" d="M38.29,47.82c-1.328,0.026 -2.793,0.014 -4.395,-0.04c-0.285,3.307 -1.9,6.12 -4.846,8.44c-1.395,1.313 -3.107,2.046 -5.154,2.187c-4.299,0 -7.42,-2.033 -9.373,-6.094c-0.379,-1.847 -0.514,-3.359 -0.4,-4.533c0.107,-1.167 0.814,-3.101 2.113,-5.78c0.834,-1.04 1.461,-1.56 1.881,-1.56l0.152,0.153v0.16c0,0.573 -0.672,1.82 -2.033,3.746c-0.412,1.04 -0.619,1.927 -0.619,2.66c0,2.86 1.721,4.947 5.152,6.247c0.807,0.313 1.9,0.52 3.281,0.626c2.813,0 5.785,-1.566 8.906,-4.687c0,-0.653 -0.26,-1.12 -0.779,-1.406H31.71c-4.066,0 -6.094,-1.094 -6.094,-3.28c0,-3.233 0.986,-4.847 2.967,-4.847c1.721,0 3.18,1.2 4.373,3.594c1.094,-0.014 2.873,-0.007 5.334,0.02V47.82z" id="path_5"/><path fill="#399121" d="M28.429,31.067c2.395,0.906 3.594,1.533 3.594,1.873v0.153c-0.967,2.187 -1.641,3.279 -2.033,3.279c-0.807,0 -1.953,-0.466 -3.439,-1.406c-0.621,1.594 -1.146,2.48 -1.561,2.66h-0.152c-0.941,0 -2.088,-0.521 -3.441,-1.561v-0.159c0,-0.94 0.574,-2.134 1.721,-3.594h0.313c0.854,0.181 1.953,0.7 3.281,1.561h0.152C27.616,32.054 28.144,31.113 28.429,31.067z" id="path_6"/><path fill="#399121" d="M30.729,22.566c0.16,-0.093 0.207,0.054 0.141,0.434c-0.887,2.08 -2.248,3.533 -4.08,4.354l-6.74,3.38c-0.287,-0.08 -0.34,-0.313 -0.16,-0.707c0.9,-1.732 1.514,-2.76 1.84,-3.086L30.729,22.566z" id="path_7"/></svg>