<svg id="vector" xmlns="http://www.w3.org/2000/svg" width="75" height="67" viewBox="0 0 83 73"><path fill="#D60A0A" d="M57.431,35.101c5.313,1.9 7.966,4.246 7.966,7.033l0.16,0.934c-0.446,3.646 -1.646,5.467 -3.601,5.467c0,0.34 -2.6,0.76 -7.806,1.253l-0.161,-0.467c0,-2.606 0.468,-3.906 1.408,-3.906c5.206,-0.421 8.072,-1.047 8.593,-1.88c-1.794,-1.74 -4.14,-3.147 -7.034,-4.214l-0.152,-0.786C56.884,36.247 57.09,35.101 57.431,35.101z" id="path_0"/><path fill="#D60A0A" d="M56.956,27.754c1.281,0.213 2.527,0.993 3.754,2.347v0.313c-0.779,2.08 -1.354,3.12 -1.721,3.12c-2.499,-0.854 -3.746,-1.534 -3.746,-2.027C55.243,30.54 55.817,29.294 56.956,27.754z" id="path_1"/><path fill="#D60A0A" d="M63.19,17.854c0.16,-0.093 0.207,0.054 0.14,0.434c-0.887,2.08 -2.247,3.533 -4.079,4.354l-6.74,3.38c-0.287,-0.08 -0.34,-0.313 -0.16,-0.707c0.899,-1.733 1.514,-2.76 1.84,-3.087L63.19,17.854z" id="path_2"/><path fill="#000001" d="M32.13,44.36h0.807h0.307h0.787c2.834,-0.207 4.553,-0.86 5.153,-1.953c0,-0.86 -0.987,-3.2 -2.967,-7.033l-0.313,-1.247c-0.34,-1.64 -0.326,-3.146 0.04,-4.514c0.36,-1.366 1.08,-2.313 2.147,-2.833c2.473,-1.667 7.213,-4.427 14.219,-8.28l0.154,0.16v0.307c-1.507,2.373 -2.654,4.56 -3.434,6.566h-0.313l-0.16,-0.779v-0.787l0.16,-0.153V23.66h-0.16c-5.807,3.354 -9.713,5.807 -11.72,7.34v0.16c2.193,4.427 3.387,7.807 3.6,10.153c0,1.667 -0.572,3.44 -1.72,5.313c-1.093,1.46 -3.28,2.187 -6.566,2.187H32.13V44.36z" id="path_3"/><path fill="#000001" d="M46.743,16.054c0.16,-0.093 0.207,0.054 0.141,0.434c-0.887,2.08 -2.247,3.533 -4.08,4.353l-6.74,3.381c-0.287,-0.08 -0.34,-0.313 -0.16,-0.707c0.9,-1.733 1.514,-2.76 1.84,-3.087L46.743,16.054z" id="path_4"/><path fill="#009649" d="M34.276,48.827c-0.139,0.013 -0.286,0.02 -0.426,0.02h-0.787c-1.22,0 -2.053,-0.1 -2.5,-0.313c-0.906,3.506 -1.967,5.652 -3.18,6.439s-3.953,1.453 -8.221,2h-0.313c-0.939,-0.106 -1.406,-0.26 -1.406,-0.467c0,-0.313 0.779,-0.68 2.34,-1.093c6.146,-2.813 9.22,-4.847 9.22,-6.094c0,-0.521 -0.728,-1.72 -2.187,-3.594c-0.314,-0.526 -0.467,-1.199 -0.467,-2.033v-1.56c0,-0.787 0.152,-1.2 0.467,-1.254c1.354,2.074 3.646,3.228 6.873,3.474c0.199,0 0.393,0 0.586,-0.014V48.827z" id="path_5"/><path fill="#009649" d="M30.978,29.98c0.16,-0.094 0.206,0.053 0.14,0.434c-0.887,2.08 -2.247,3.533 -4.08,4.353l-6.74,3.38c-0.286,-0.079 -0.34,-0.313 -0.159,-0.706c0.899,-1.733 1.513,-2.76 1.84,-3.087L30.978,29.98z" id="path_6"/></svg>