<svg id="vector" xmlns="http://www.w3.org/2000/svg" width="75" height="67" viewBox="0 0 83 73"><path fill="#D60A0A" d="M51.395,50.224c-0.883,0.032 -1.646,0.124 -2.286,0.269c-0.146,-0.112 -0.22,-0.273 -0.22,-0.473c2.381,-0.903 5.42,-2.361 9.104,-4.372c-0.031,0.054 0.587,-0.313 1.846,-1.103c0.893,-0.688 1.511,-1.334 1.86,-1.937c0,-0.785 -0.118,-1.646 -0.35,-2.576c-0.366,-0.817 -0.839,-1.683 -1.415,-2.598l0.484,-4.625h0.27c0.925,2.108 1.484,3.631 1.672,4.561c0.441,1.775 0.629,3.346 0.564,4.722c-0.01,0.861 -0.178,1.872 -0.505,3.039c-0.71,2.221 -2.222,3.684 -4.518,4.389C56.81,49.853 54.637,50.089 51.395,50.224z" id="path_0"/><path fill="#D60A0A" d="M54.357,30.132l0.979,-2.915l9.498,-4.174c0.129,-0.032 0.188,-0.016 0.188,0.049c0,0.032 -0.016,0.107 -0.048,0.236l-1.274,3.022l-9.121,4.082c-0.119,0.011 -0.188,0.011 -0.221,0C54.314,30.368 54.314,30.271 54.357,30.132z" id="path_1"/><path fill="#163987" d="M37.986,24.861v-0.156c0.527,-0.736 1.28,-1.737 2.27,-3.012h0.107c0.802,0.86 1.803,1.641 3.012,2.334c0.033,0.032 0.049,0.07 0.049,0.124l-2.189,2.963c-0.021,0.011 -0.059,0.017 -0.112,0.017c-0.065,0 -0.173,-0.027 -0.328,-0.081C40.035,26.706 39.1,25.975 37.986,24.861z" id="path_2"/><path fill="#163987" d="M42.714,43.372c-1.979,1.156 -4.744,1.731 -8.304,1.731v-4.355c4.915,0.075 8.492,-0.774 10.729,-2.539c0.033,-0.145 0.043,-0.279 0.043,-0.408c0,-0.441 -0.225,-0.807 -0.677,-1.103c-0.06,0.451 -0.479,0.785 -1.259,1.006c-0.575,0.161 -1.162,0.226 -1.748,0.193c-1.452,-0.097 -2.576,-0.575 -3.372,-1.437c-0.693,-1.005 -0.941,-1.979 -0.742,-2.914c0.307,-1.963 0.694,-3.194 1.167,-3.689c0.882,-0.828 1.834,-1.242 2.852,-1.242c1.914,0 3.285,1.135 4.113,3.404c0.463,1.172 0.693,2.544 0.693,4.108C46.209,39.603 45.043,42.017 42.714,43.372z" id="path_3"/><path fill="#163987" d="M35.749,18.79l0.979,-2.915l9.498,-4.174c0.129,-0.032 0.188,-0.016 0.188,0.049c0,0.032 -0.016,0.107 -0.049,0.236l-1.273,3.022l-9.122,4.082c-0.118,0.011 -0.188,0.011 -0.221,0C35.706,19.026 35.706,18.93 35.749,18.79z" id="path_4"/><path fill="#0000EF" d="M22.681,55.097c0.893,0.607 1.731,1 2.506,1.183c2.592,0.656 5.125,0.989 7.594,0.989c1.431,0 3.297,-0.107 5.593,-0.317c0.641,-0.112 1.576,-0.204 2.809,-0.264c0.059,0.178 -0.055,0.323 -0.351,0.441c-0.462,0.188 -0.721,0.313 -0.769,0.377c-1.092,0.629 -2.765,1.511 -5.013,2.646c-1.388,0.581 -2.447,0.931 -3.184,1.054c-0.521,0.098 -1.619,0.13 -3.275,0.098c-1.242,0 -2.641,-0.296 -4.205,-0.883c-1.565,-0.591 -2.771,-1.274 -3.609,-2.049c-1.957,-2.156 -2.888,-4.765 -2.791,-7.836c0.032,-1.897 0.248,-3.479 0.656,-4.743l0,0c1.021,-3.173 2.851,-5.851 5.475,-8.04c0.42,-0.258 0.963,-0.721 1.624,-1.382c-0.548,-1 -1.527,-1.5 -2.931,-1.5c-0.517,0 -1.248,0.075 -2.194,0.22c0,0.064 -0.069,0.097 -0.221,0.097c-0.166,-0.177 -0.134,-0.511 0.097,-0.994c0.188,-0.662 0.404,-1.361 0.641,-2.098c0.236,-0.731 0.667,-1.205 1.296,-1.415c1.641,-0.516 3.318,-0.774 5.028,-0.774c1.178,0 2.291,0.13 3.34,0.393c0.517,0.221 1.129,0.711 1.845,1.469c0.092,0.264 0.14,0.532 0.14,0.807c0,0.903 -0.779,2.076 -2.345,3.512l-1.118,1.108c0.521,2.586 2.36,3.759 5.512,3.522v4.426c-2.603,0.011 -4.512,-0.941 -5.717,-2.851c-0.56,-0.726 -0.973,-1.984 -1.247,-3.78l-0.092,0.075c0,-0.027 -0.016,-0.054 -0.049,-0.075c-1.231,0.295 -2.963,1.312 -5.2,3.055c-1.231,1.721 -2.103,3.178 -2.613,4.361c-0.36,0.85 -0.538,1.753 -0.538,2.711C19.163,51.391 20.266,53.542 22.681,55.097z" id="path_5"/><path fill="#0000EC" d="M21.552,26.824l0.979,-2.915l9.497,-4.173c0.129,-0.032 0.188,-0.017 0.188,0.048c0,0.032 -0.017,0.107 -0.049,0.236l-1.274,3.022l-9.121,4.082c-0.118,0.011 -0.188,0.011 -0.22,0C21.508,27.061 21.508,26.964 21.552,26.824z" id="path_6"/></svg>