<svg id="vector" xmlns="http://www.w3.org/2000/svg" width="75" height="67" viewBox="0 0 83 73"><path fill="#D60A0A" d="M57.982,27.282c2.188,1.094 3.281,2.034 3.281,2.813c-1.041,2.054 -1.668,3.101 -1.875,3.127h-0.313c-1.6,-0.807 -2.594,-1.54 -2.967,-2.187C56.469,29.85 57.096,28.596 57.982,27.282z" id="path_0"/><path fill="#D60A0A" d="M49.463,43.396h1.801c1.898,-0.261 4.92,-0.968 9.059,-2.107v-0.16c-3.773,-1.666 -6.166,-2.5 -7.186,-2.5c-1.381,0 -2.314,0.78 -2.814,2.347l-0.467,0.313c-0.205,0 -0.313,-0.16 -0.313,-0.473c0.52,-3.12 1.926,-4.688 4.221,-4.688h0.779c0.967,0 4.246,1.094 9.846,3.28l4.221,0.313l0.307,0.474c-0.072,0.699 -0.699,2.053 -1.873,4.06h-0.467l-0.627,-0.16H65.17c-8.127,2.4 -12.867,3.646 -14.221,3.754h-1.486V43.396z" id="path_1"/><path fill="#000001" d="M38.396,43.396c0.025,0 0.061,0 0.094,0c2.5,-0.154 3.934,-1.273 4.299,-3.36c-0.939,-6.247 -1.406,-10.627 -1.406,-13.127c0,-0.96 0.42,-2.213 1.254,-3.746l0.152,0.153l0.314,0.313l-0.16,1.094c0.133,7.02 1.02,12.46 2.66,16.326c0.627,1.407 2.16,2.193 4.605,2.348v4.453c-3.359,-0.054 -5.619,-1.82 -6.793,-5.313h-0.16c-1.08,3.5 -2.699,5.273 -4.859,5.313V43.396z" id="path_2"/><path fill="#000001" d="M47.922,51.165c0.16,-0.093 0.207,0.054 0.141,0.434c-0.887,2.08 -2.246,3.533 -4.08,4.354l-6.74,3.38c-0.287,-0.08 -0.34,-0.313 -0.16,-0.707c0.9,-1.732 1.514,-2.76 1.84,-3.086L47.922,51.165z" id="path_3"/><path fill="#D60A0A" d="M38.289,47.869c-1.326,0.027 -2.793,0.014 -4.393,-0.04c-0.287,3.307 -1.9,6.12 -4.848,8.44c-1.393,1.313 -3.105,2.047 -5.152,2.187c-4.301,0 -7.42,-2.033 -9.373,-6.094c-0.381,-1.847 -0.514,-3.359 -0.4,-4.533c0.107,-1.166 0.813,-3.1 2.113,-5.779c0.834,-1.041 1.459,-1.561 1.879,-1.561l0.154,0.153v0.16c0,0.573 -0.674,1.82 -2.033,3.746c-0.414,1.04 -0.621,1.927 -0.621,2.66c0,2.86 1.721,4.947 5.154,6.247c0.807,0.313 1.9,0.52 3.279,0.627c2.814,0 5.787,-1.567 8.906,-4.688c0,-0.653 -0.26,-1.12 -0.779,-1.406h-0.467c-4.066,0 -6.094,-1.094 -6.094,-3.28c0,-3.233 0.988,-4.847 2.967,-4.847c1.721,0 3.182,1.2 4.373,3.594c1.094,-0.014 2.875,-0.007 5.334,0.02V47.869z" id="path_4"/><path fill="#D60A0A" d="M28.43,31.116c2.393,0.906 3.594,1.533 3.594,1.873v0.153c-0.967,2.187 -1.641,3.28 -2.033,3.28c-0.807,0 -1.955,-0.467 -3.441,-1.407c-0.619,1.594 -1.146,2.48 -1.559,2.66h-0.154c-0.939,0 -2.086,-0.52 -3.439,-1.56v-0.16c0,-0.94 0.572,-2.134 1.719,-3.594h0.314c0.854,0.181 1.953,0.7 3.279,1.561h0.154C27.615,32.103 28.143,31.162 28.43,31.116z" id="path_5"/><path fill="#D60A0A" d="M30.729,22.616c0.16,-0.094 0.207,0.053 0.141,0.433c-0.887,2.08 -2.246,3.534 -4.08,4.354l-6.74,3.38c-0.285,-0.08 -0.34,-0.313 -0.16,-0.706c0.9,-1.733 1.514,-2.76 1.84,-3.087L30.729,22.616z" id="path_6"/><path fill="#D60A0A" d="M59.57,14.544c1.6,0 2.4,0.986 2.4,2.953c0,3.134 -2.674,5.807 -8.027,8.007c-0.768,0.233 -0.859,-0.047 -0.273,-0.84c0.146,-0.301 1.406,-1.24 3.787,-2.813v-0.134c-1.027,-0.42 -1.541,-1.313 -1.541,-2.68c0.68,-2.993 1.76,-4.493 3.24,-4.493H59.57L59.57,14.544zM57.184,17.924c0,0.833 0.707,1.347 2.113,1.547h0.273c0.52,0 0.854,-0.193 0.992,-0.566c0,-0.847 -0.613,-1.507 -1.832,-1.974C58.197,16.931 57.684,17.264 57.184,17.924z" id="path_7"/></svg>