<svg id="vector" xmlns="http://www.w3.org/2000/svg" width="75" height="67" viewBox="0 0 83 73"><path fill="#f06022" d="M30.691,54.896l0.16,0.141v0.426c-0.807,1.734 -1.934,2.947 -3.381,3.654c-4.479,2.434 -6.967,3.652 -7.459,3.652c-0.18,0 -0.273,-0.146 -0.273,-0.434c0.426,-1.652 1.367,-2.771 2.813,-3.359l8.008,-4.08H30.691z" id="path_0"/><path fill="#D60A0A" d="M51.479,35.057c0.326,0 0.666,0 1.02,0l0.779,-0.394c0.494,-1.014 1.229,-2.26 2.188,-3.746l-1.561,-12.034c0.521,-2.5 0.986,-3.746 1.408,-3.746l0.779,2.967c0.727,1.013 1.094,1.953 1.094,2.813c-0.521,0.961 -0.781,1.747 -0.781,2.341v0.313l0.314,5v0.787c1.613,-1.36 3.773,-2.1 6.48,-2.227c3.125,0.439 4.686,1.479 4.686,3.12v1.093c-0.52,2.32 -1.301,4.094 -2.34,5.313c-3.154,1.773 -6.613,2.72 -10.393,2.853h-1.721c-0.688,0 -1.34,0 -1.953,0V35.057L51.479,35.057zM54.525,35.137h0.313c4.768,-0.134 8.494,-0.98 11.174,-2.54c-1.221,-1.254 -2.107,-1.873 -2.654,-1.873h-1.252C58.539,30.85 56.012,32.324 54.525,35.137z" id="path_1"/><path fill="#D60A0A" d="M68.879,14.083c0.16,-0.094 0.205,0.054 0.139,0.434c-0.887,2.08 -2.246,3.533 -4.08,4.353l-6.738,3.381c-0.287,-0.08 -0.342,-0.313 -0.16,-0.707c0.898,-1.733 1.512,-2.76 1.84,-3.087L68.879,14.083z" id="path_2"/><path fill="#000001" d="M43.984,41.23c0.533,0 1.787,0.627 3.754,1.873c0,0.779 -0.627,2.033 -1.881,3.754c-2.5,-0.814 -3.746,-1.541 -3.746,-2.193C42.178,44.084 42.799,42.938 43.984,41.23z" id="path_3"/><path fill="#000001" d="M38.299,35.057c1.113,0.014 1.799,-0.007 2.072,-0.061c2.348,-0.713 3.947,-2.233 4.807,-4.547c0.127,-0.446 0.387,-0.5 0.781,-0.159c0.205,0.18 0.365,0.913 0.465,2.187c1.422,1.913 3.195,2.773 5.314,2.58h0.414v4.453h-0.102c-3.318,-0.152 -5.766,-1.666 -7.346,-4.533h-0.154c-1.105,2.333 -2.566,3.767 -4.373,4.3c-0.547,0.152 -1.174,0.232 -1.879,0.232V35.057z" id="path_4"/><path fill="#000001" d="M49.959,16.077c0.16,-0.093 0.205,0.054 0.139,0.434c-0.887,2.08 -2.246,3.533 -4.08,4.354l-6.74,3.38c-0.285,-0.08 -0.34,-0.313 -0.158,-0.707c0.898,-1.733 1.512,-2.76 1.84,-3.087L49.959,16.077z" id="path_5"/><path fill="#D60A0A" d="M38.158,39.531c-1.326,0.025 -2.793,0.012 -4.395,-0.041c-0.285,3.307 -1.898,6.119 -4.846,8.439c-1.393,1.314 -3.105,2.047 -5.154,2.188c-4.299,0 -7.42,-2.033 -9.373,-6.094c-0.379,-1.846 -0.512,-3.359 -0.398,-4.533c0.105,-1.166 0.813,-3.1 2.113,-5.78c0.832,-1.04 1.459,-1.561 1.879,-1.561l0.154,0.154v0.159c0,0.573 -0.674,1.82 -2.033,3.747c-0.414,1.04 -0.621,1.926 -0.621,2.659c0,2.861 1.721,4.947 5.154,6.248c0.807,0.313 1.898,0.52 3.279,0.627c2.813,0 5.787,-1.566 8.906,-4.688c0,-0.652 -0.26,-1.119 -0.779,-1.406h-0.467c-4.066,0 -6.094,-1.094 -6.094,-3.28c0,-3.233 0.986,-4.847 2.967,-4.847c1.721,0 3.18,1.199 4.373,3.593c1.094,-0.013 2.875,-0.007 5.334,0.021V39.531z" id="path_6"/><path fill="#D60A0A" d="M28.299,22.777c2.393,0.906 3.592,1.533 3.592,1.873v0.153c-0.967,2.187 -1.639,3.28 -2.033,3.28c-0.807,0 -1.953,-0.467 -3.439,-1.406c-0.619,1.593 -1.146,2.479 -1.561,2.66h-0.152c-0.941,0 -2.088,-0.521 -3.439,-1.561v-0.16c0,-0.939 0.572,-2.133 1.719,-3.593h0.314c0.854,0.18 1.953,0.699 3.279,1.56h0.152C27.484,23.763 28.012,22.824 28.299,22.777z" id="path_7"/><path fill="#f06022" d="M30.578,51.211c0.188,0 0.273,0.133 0.273,0.406c-0.52,1.514 -2.061,2.873 -4.627,4.086l-5.92,3.24l-0.133,-0.139V58.65c0.561,-1.98 1.453,-3.199 2.674,-3.654l6.605,-3.379L30.578,51.211z" id="path_8"/></svg>