<svg id="vector" xmlns="http://www.w3.org/2000/svg" width="75" height="67" viewBox="0 0 83 73"><path fill="#082488" d="M51.441,46.537c0.327,0 0.667,0 1.021,0l0.779,-0.395c0.494,-1.014 1.227,-2.26 2.188,-3.746l-1.561,-12.034c0.521,-2.5 0.986,-3.746 1.407,-3.746l0.78,2.967c0.727,1.013 1.093,1.953 1.093,2.813c-0.521,0.961 -0.78,1.747 -0.78,2.341v0.313l0.313,5v0.787c1.613,-1.359 3.773,-2.1 6.479,-2.227c3.127,0.439 4.688,1.48 4.688,3.121v1.092c-0.52,2.32 -1.301,4.094 -2.34,5.314c-3.154,1.773 -6.613,2.719 -10.394,2.854h-1.72c-0.688,0 -1.34,0 -1.954,0V46.537L51.441,46.537zM54.488,46.617h0.313c4.767,-0.135 8.493,-0.98 11.174,-2.541c-1.221,-1.254 -2.107,-1.873 -2.654,-1.873h-1.253C58.502,42.33 55.976,43.803 54.488,46.617z" id="path_0"/><path fill="#082488" d="M68.842,25.556c0.16,-0.093 0.206,0.054 0.14,0.434c-0.887,2.08 -2.246,3.533 -4.08,4.354l-6.74,3.38c-0.286,-0.08 -0.34,-0.313 -0.159,-0.707c0.899,-1.732 1.513,-2.76 1.84,-3.086L68.842,25.556z" id="path_1"/><path fill="#000001" d="M43.948,52.709c0.533,0 1.787,0.627 3.754,1.873c0,0.781 -0.627,2.035 -1.881,3.754c-2.5,-0.813 -3.746,-1.539 -3.746,-2.193C42.142,55.563 42.762,54.416 43.948,52.709z" id="path_2"/><path fill="#000001" d="M38.262,46.537c1.113,0.014 1.8,-0.008 2.073,-0.061c2.347,-0.713 3.947,-2.234 4.807,-4.547c0.127,-0.447 0.387,-0.5 0.78,-0.16c0.206,0.18 0.366,0.914 0.466,2.188c1.421,1.912 3.194,2.773 5.314,2.58h0.413v4.453h-0.101c-3.319,-0.154 -5.767,-1.668 -7.347,-4.533h-0.153c-1.106,2.332 -2.566,3.766 -4.373,4.299c-0.547,0.154 -1.174,0.234 -1.88,0.234V46.537z" id="path_3"/><path fill="#000001" d="M49.922,27.549c0.16,-0.093 0.206,0.054 0.14,0.434c-0.887,2.08 -2.246,3.533 -4.08,4.354l-6.74,3.38c-0.286,-0.08 -0.34,-0.313 -0.16,-0.707c0.9,-1.732 1.514,-2.76 1.841,-3.086L49.922,27.549z" id="path_4"/><path fill="#082488" d="M22.349,46.537c1.733,0.146 3.207,-0.027 4.434,-0.508l-0.646,-1.174c-0.607,-3.439 -0.334,-5.713 0.82,-6.826c1.159,-1.113 2.406,-1.626 3.732,-1.533c2.58,0.12 4.033,1.472 4.373,4.06v0.939c0,2.16 -0.313,3.514 -0.934,4.061c-0.393,0.406 0.494,0.746 2.654,1.02l0.506,-0.02c0.395,-0.014 0.841,-0.02 1.348,-0.02v4.453l-1.58,0.02c-2.94,-0.014 -5.167,-0.387 -6.68,-1.113c-2.08,0.727 -3.701,1.094 -4.841,1.094h-0.626c-0.78,0 -1.635,0 -2.561,0V46.537L22.349,46.537zM27.875,42.123v0.313c0.653,1.121 1.64,1.9 2.967,2.342c0.887,-0.154 1.773,-0.521 2.66,-1.094c-0.394,-1.461 -1.693,-2.295 -3.907,-2.5C28.448,41.496 27.875,41.811 27.875,42.123z" id="path_5"/><path fill="#082488" d="M30.901,27.509c1.693,0.527 3.154,1.36 4.374,2.5v0.16c0,0.653 -0.674,1.693 -2.026,3.127c-0.42,0 -1.827,-0.521 -4.221,-1.566v0.159c-0.833,1.614 -1.354,2.447 -1.566,2.501c-1.354,-0.287 -2.5,-0.914 -3.434,-1.88c0.627,-2.601 1.146,-3.9 1.561,-3.9c0.34,0 1.593,0.62 3.753,1.873C29.342,29.936 29.862,28.943 30.901,27.509z" id="path_6"/><path fill="#f06022" d="M34.476,18.176l0.16,0.141v0.426c-0.813,1.733 -1.94,2.947 -3.381,3.653c-4.479,2.434 -6.967,3.653 -7.459,3.653c-0.188,0 -0.281,-0.146 -0.281,-0.433c0.434,-1.653 1.374,-2.773 2.814,-3.36l8.013,-4.08H34.476z" id="path_7"/><path fill="#f06022" d="M33.362,14.664c0.18,0 0.273,0.133 0.273,0.406c-0.521,1.514 -2.061,2.873 -4.627,4.087l-5.92,3.239l-0.133,-0.14v-0.153c0.559,-1.98 1.445,-3.2 2.672,-3.653l6.601,-3.38L33.362,14.664z" id="path_8"/><path fill="#082488" d="M22.481,50.99c-3.033,0.18 -5.24,-1.221 -6.619,-4.201c-0.668,-1.105 -1.287,-8.566 -1.874,-22.379v-0.313c0.387,-2.293 0.96,-3.439 1.714,-3.439l0.786,-0.153c0.96,0 2.42,0.313 4.374,0.933v0.313c-0.107,0.313 -0.421,0.474 -0.94,0.474h-2.653c-0.547,0 -1.066,0.307 -1.566,0.934c0.486,11.993 1.193,18.939 2.133,20.839c0.934,1.9 2.486,2.746 4.646,2.541V50.99z" id="path_9"/></svg>