<svg id="vector" xmlns="http://www.w3.org/2000/svg" width="75" height="67" viewBox="0 0 83 73"><path fill="#D60A0A" d="M54.241,41.104h0.061c2.42,-0.107 4.086,-1.273 5,-3.514c0,-0.313 0.207,-0.573 0.627,-0.787h0.313c0.207,0 0.313,0.16 0.313,0.474l-0.159,0.934c0.887,1.566 1.826,2.347 2.813,2.347h0.78c1.354,0 2.399,-1.354 3.126,-4.061h0.16c0.154,0.021 0.414,0.647 0.78,1.873c0.887,0.78 1.767,1.247 2.653,1.407c1.04,0 1.566,-0.627 1.566,-1.873c0.101,-1.98 0.307,-2.974 0.62,-2.974c0.421,0.887 0.627,1.98 0.627,3.28c0,3.859 -0.94,5.786 -2.813,5.786c-1.46,0 -2.653,-0.733 -3.594,-2.193h-0.313c-0.646,2.087 -1.693,3.127 -3.127,3.127h-0.153c-1.273,0 -2.733,-0.986 -4.374,-2.967c-1.379,2.394 -2.945,3.594 -4.686,3.594h-0.221V41.104z" id="path_0"/><path fill="#D60A0A" d="M70.528,22.47c0.16,-0.093 0.207,0.054 0.14,0.434c-0.887,2.08 -2.247,3.533 -4.079,4.354l-6.74,3.38c-0.287,-0.08 -0.34,-0.313 -0.16,-0.707c0.899,-1.733 1.514,-2.76 1.84,-3.087L70.528,22.47z" id="path_1"/><path fill="#a3451c" d="M38.622,41.104c1.732,0.146 3.207,-0.027 4.434,-0.507l-0.647,-1.174c-0.606,-3.44 -0.333,-5.713 0.82,-6.826c1.16,-1.114 2.407,-1.627 3.733,-1.533c2.58,0.119 4.033,1.473 4.373,4.06v0.94c0,2.159 -0.313,3.513 -0.934,4.06c-0.393,0.406 0.494,0.746 2.654,1.02l0.506,-0.02c0.394,-0.014 0.84,-0.02 1.347,-0.02v4.453l-1.58,0.02c-2.94,-0.013 -5.167,-0.387 -6.68,-1.113c-2.08,0.727 -3.7,1.094 -4.84,1.094h-0.627c-0.78,0 -1.634,0 -2.56,0V41.104L38.622,41.104zM44.148,36.69v0.313c0.653,1.12 1.64,1.9 2.967,2.34c0.887,-0.153 1.773,-0.52 2.66,-1.093c-0.394,-1.46 -1.694,-2.294 -3.907,-2.5C44.722,36.064 44.148,36.376 44.148,36.69z" id="path_2"/><path fill="#a3451c" d="M45.089,23.411c1.353,0 2.6,0.833 3.746,2.499c-0.96,2.188 -1.693,3.28 -2.187,3.28c-2.106,-1.04 -3.253,-1.72 -3.44,-2.033C43.208,26.17 43.835,24.917 45.089,23.411z" id="path_3"/><path fill="#a3451c" d="M50.788,12.45c0.16,-0.093 0.207,0.054 0.141,0.434c-0.887,2.08 -2.247,3.533 -4.08,4.354l-6.74,3.38c-0.287,-0.08 -0.34,-0.313 -0.16,-0.707c0.9,-1.732 1.514,-2.76 1.84,-3.086L50.788,12.45z" id="path_4"/><path fill="#009649" d="M38.615,45.57c-0.14,0.014 -0.287,0.021 -0.427,0.021h-0.787c-1.22,0 -2.053,-0.101 -2.5,-0.313c-0.906,3.507 -1.967,5.653 -3.18,6.44c-1.213,0.786 -3.953,1.453 -8.221,2h-0.313c-0.939,-0.107 -1.406,-0.261 -1.406,-0.467c0,-0.313 0.779,-0.68 2.34,-1.094c6.146,-2.813 9.22,-4.847 9.22,-6.093c0,-0.521 -0.727,-1.721 -2.187,-3.594c-0.313,-0.526 -0.467,-1.2 -0.467,-2.033v-1.56c0,-0.787 0.153,-1.2 0.467,-1.254c1.354,2.073 3.646,3.227 6.873,3.474c0.2,0 0.394,0 0.587,-0.014V45.57z" id="path_5"/><path fill="#009649" d="M35.315,26.723c0.16,-0.093 0.206,0.054 0.14,0.434c-0.887,2.08 -2.247,3.533 -4.08,4.354l-6.74,3.38c-0.286,-0.08 -0.34,-0.313 -0.159,-0.707c0.899,-1.732 1.513,-2.76 1.84,-3.086L35.315,26.723z" id="path_6"/><path fill="#D60A0A" d="M19.868,30.437l0.153,0.467c-0.206,0.887 -1.146,1.927 -2.813,3.127c1.667,1.353 2.5,3.333 2.5,5.939v0.153c0,4.273 -1.766,6.406 -5.313,6.406c-2.807,-0.546 -4.214,-1.953 -4.214,-4.22v-0.153c0.101,-1.953 0.88,-4.04 2.34,-6.253c-1.353,-0.414 -2.026,-0.986 -2.026,-1.72c0,-1.954 0.153,-3.147 0.467,-3.594c1.406,0.394 2.967,1.174 4.687,2.347h0.153L19.868,30.437L19.868,30.437zM13.775,36.683c-1.254,1.254 -1.88,2.141 -1.88,2.66c0,1.613 1.146,2.554 3.439,2.813c1.2,-0.16 2.24,-0.573 3.127,-1.253C17.448,39.157 15.882,37.757 13.775,36.683z" id="path_7"/><path fill="#f06022" d="M21.194,52.704l0.16,0.14v0.427c-0.807,1.733 -1.934,2.947 -3.379,3.653c-4.48,2.434 -6.967,3.653 -7.461,3.653c-0.18,0 -0.273,-0.146 -0.273,-0.433c0.428,-1.653 1.367,-2.773 2.813,-3.36l8.007,-4.08H21.194z" id="path_8"/><path fill="#f06022" d="M20.081,49.19c0.188,0 0.273,0.134 0.273,0.407c-0.52,1.514 -2.06,2.873 -4.627,4.087l-5.919,3.239l-0.134,-0.14V56.63c0.561,-1.98 1.453,-3.2 2.674,-3.653l6.606,-3.38L20.081,49.19z" id="path_9"/><path fill="#D60A0A" d="M16.352,21.606c1.692,0.526 3.153,1.36 4.373,2.5v0.16c0,0.653 -0.673,1.693 -2.026,3.127c-0.42,0 -1.826,-0.521 -4.221,-1.567v0.16c-0.833,1.613 -1.353,2.447 -1.566,2.5c-1.354,-0.286 -2.5,-0.913 -3.434,-1.88c0.627,-2.6 1.147,-3.9 1.561,-3.9c0.34,0 1.594,0.62 3.754,1.874C14.792,24.033 15.312,23.04 16.352,21.606z" id="path_10"/></svg>