<svg id="vector" xmlns="http://www.w3.org/2000/svg" width="75" height="67" viewBox="0 0 83 73"><path fill="#D60A0A" d="M66.224,42.077h0.626c1.827,0 3.181,1.56 4.067,4.687l0.153,1.56c0.053,0.507 0.053,1.027 0,1.566c-0.467,1.9 -1.514,3.773 -3.127,5.621c-1.12,0.939 -3.667,1.666 -7.653,2.187c-0.467,-0.207 -0.733,-0.413 -0.78,-0.62c6.667,-3.62 10,-5.807 10,-6.566l0.153,-0.468l-0.153,-0.153l-1.406,0.467h-0.78c-2.813,0 -4.22,-0.993 -4.22,-2.966v-0.313c0.359,-3.233 1.146,-4.847 2.34,-4.847L66.224,42.077z" id="path_0"/><path fill="#D60A0A" d="M70.363,29.417c0.16,-0.094 0.207,0.053 0.14,0.434c-0.887,2.08 -2.246,3.533 -4.08,4.353l-6.739,3.38c-0.287,-0.079 -0.341,-0.313 -0.16,-0.706c0.899,-1.733 1.514,-2.76 1.84,-3.087L70.363,29.417z" id="path_1"/><path fill="#000001" d="M27.224,48.483c1.973,0.014 4.566,-0.233 7.772,-0.727h0.153c2.707,-0.44 5.521,-1.746 8.44,-3.906c0.26,-1.146 0.52,-1.721 0.78,-1.721h0.153c0.394,0.24 0.394,0.914 0,2.033c0.6,2.188 1.64,3.28 3.127,3.28c1.46,0 2.293,-1.193 2.5,-3.593c0,-0.414 0.206,-0.728 0.626,-0.934c0.207,0 0.36,0.52 0.467,1.56c0.653,1.46 1.434,2.254 2.347,2.381h0.313c0.52,0.026 0.934,-0.247 1.247,-0.82l0.079,-2.42c-0.026,-1.507 0.101,-2.267 0.387,-2.267c0.5,0 0.807,1.513 0.94,4.533c-0.134,2.146 -0.653,3.66 -1.56,4.533c-0.394,0.413 -0.914,0.62 -1.567,0.62c-0.493,0.093 -0.967,0.04 -1.427,-0.167c-0.453,-0.2 -0.913,-0.767 -1.387,-1.707c-0.1,-0.386 -0.206,-0.386 -0.313,0c-0.294,0.82 -0.787,1.4 -1.474,1.727c-0.681,0.334 -1.287,0.447 -1.807,0.347c-2.027,-0.199 -3.227,-1.406 -3.594,-3.633c-2.16,1.434 -4.033,2.42 -5.626,2.967c-4.267,0.986 -7.627,1.127 -10.074,0.42c-2.446,-0.707 -3.64,-1.307 -3.573,-1.793C24.217,48.703 25.243,48.469 27.224,48.483z" id="path_2"/><path fill="#000001" d="M55.21,29.537c0.16,-0.094 0.206,0.053 0.14,0.433c-0.887,2.08 -2.246,3.534 -4.08,4.354l-6.74,3.38c-0.286,-0.08 -0.34,-0.313 -0.159,-0.706c0.899,-1.733 1.513,-2.76 1.84,-3.087L55.21,29.537z" id="path_3"/><path fill="#009649" d="M20.384,46.704c0.326,0 1.566,0 1.92,0l0.779,-0.394c0.494,-1.014 1.228,-2.261 2.187,-3.747L23.71,30.53c0.521,-2.5 0.987,-3.747 1.407,-3.747l0.779,2.967c0.727,1.014 1.094,1.953 1.094,2.813c-0.521,0.96 -0.78,1.747 -0.78,2.34v0.313l0.313,5v0.786c1.613,-1.359 3.773,-2.1 6.48,-2.227c3.126,0.44 4.686,1.48 4.686,3.12v1.094c-0.52,2.32 -1.3,4.094 -2.34,5.313c-3.153,1.773 -6.613,2.72 -10.393,2.854h-1.721c-0.686,0 -2.239,0 -2.853,0V46.704L20.384,46.704zM24.33,46.783h0.313c4.767,-0.133 8.493,-0.979 11.173,-2.54c-1.22,-1.253 -2.106,-1.873 -2.653,-1.873H31.91C28.344,42.497 25.816,43.969 24.33,46.783z" id="path_4"/><path fill="#f06022" d="M37.237,18.816l0.159,0.141v0.427c-0.813,1.733 -1.939,2.946 -3.38,3.652c-4.479,2.434 -6.967,3.653 -7.46,3.653c-0.187,0 -0.28,-0.146 -0.28,-0.433c0.434,-1.653 1.374,-2.773 2.813,-3.36l8.014,-4.08H37.237z" id="path_5"/><path fill="#f06022" d="M36.123,15.303c0.181,0 0.273,0.133 0.273,0.406c-0.52,1.514 -2.06,2.873 -4.626,4.087l-5.92,3.239l-0.134,-0.14v-0.153c0.56,-1.979 1.446,-3.2 2.673,-3.653l6.601,-3.38L36.123,15.303z" id="path_6"/><path fill="#DD0707" d="M20.384,51.157c-3.034,0.18 -5.24,-1.221 -6.62,-4.2c-0.667,-1.106 -1.287,-8.566 -1.874,-22.38v-0.313c0.387,-2.294 0.96,-3.44 1.714,-3.44l0.786,-0.153c0.96,0 2.42,0.313 4.374,0.934v0.313c-0.107,0.313 -0.421,0.474 -0.94,0.474H15.17c-0.547,0 -1.066,0.307 -1.566,0.933c0.486,11.994 1.193,18.94 2.133,20.84c0.934,1.9 2.487,2.747 4.647,2.541V51.157z" id="path_7"/><path fill="#000001" d="M43.43,47.603c0.367,2.227 1.566,3.434 3.594,3.633c0.52,0.101 1.126,-0.013 1.807,-0.347c0.687,-0.326 1.18,-0.906 1.474,-1.727c0.106,-0.386 0.213,-0.386 0.313,0c0.474,0.94 0.934,1.507 1.387,1.707c0.46,0.207 0.934,0.26 1.427,0.167c0.653,0 1.174,-0.207 1.567,-0.62c0.906,-0.873 1.426,-2.387 1.56,-4.533c-0.134,-3.021 -0.44,-4.533 -0.94,-4.533c-0.286,0 -0.413,0.76 -0.387,2.267l-0.079,2.42c-0.313,0.573 -0.728,0.847 -1.247,0.82H53.59c-0.913,-0.127 -1.693,-0.921 -2.347,-2.381c-0.106,-1.04 -0.26,-1.56 -0.467,-1.56c-0.42,0.206 -0.626,0.52 -0.626,0.934c-0.207,2.399 -1.04,3.593 -2.5,3.593c-1.487,0 -2.527,-1.093 -3.127,-3.28c0.394,-1.119 0.394,-1.793 0,-2.033H44.37c-0.261,0 -0.521,0.574 -0.78,1.721c-2.018,1.492 -3.984,2.577 -5.9,3.25v3.496c0.038,-0.009 0.076,-0.018 0.114,-0.026C39.396,50.023 41.27,49.037 43.43,47.603z" id="path_8"/><path fill="#009649" d="M27.534,50.932c0.063,0.02 0.129,0.038 0.195,0.058c2.426,0.7 5.748,0.569 9.96,-0.394V47.1c-0.612,0.216 -1.221,0.389 -1.823,0.52c0.786,-1.166 1.394,-2.711 1.823,-4.63v-1.094c0,-1.64 -1.56,-2.68 -4.686,-3.12c-2.707,0.127 -4.867,0.867 -6.48,2.227v-0.786l-0.313,-5v-0.313c0,-0.302 0.067,-0.654 0.202,-1.054c-0.09,-0.062 -0.136,-0.193 -0.136,-0.393c0.153,-0.582 0.368,-1.098 0.646,-1.548c-0.116,-0.576 -0.383,-1.185 -0.797,-1.823l-0.275,0.151l-0.134,-0.141v-0.153c0.04,-0.14 0.081,-0.275 0.124,-0.407l-0.724,-2.753c-0.42,0 -0.887,1.247 -1.407,3.747l1.56,12.033c-0.959,1.486 -1.692,2.733 -2.187,3.747l-0.779,0.394h-1.92v4.453h2.853h1.721C25.833,51.125 26.691,51.051 27.534,50.932L27.534,50.932zM24.644,46.783H24.33c1.486,-2.813 4.014,-4.286 7.58,-4.413h1.253c0.547,0 1.434,0.62 2.653,1.873C33.137,45.803 29.41,46.65 24.644,46.783z" id="path_9"/></svg>