<svg id="vector" xmlns="http://www.w3.org/2000/svg" width="75" height="67" viewBox="0 0 83 73"><path fill="#000001" d="M48.667,36.788c0.394,0.026 0.793,0.04 1.193,0.04h0.467l1.953,-0.467c-0.467,-0.873 -0.7,-1.48 -0.7,-1.82c0,-5 1.613,-7.5 4.84,-7.5l1.254,-0.153c1.64,0.26 3.727,1.247 6.246,2.967l0.16,0.627l-0.16,0.153H63.3c-1.2,-0.833 -2.553,-1.247 -4.066,-1.247c-2.313,0 -4.24,0.674 -5.78,2.027v0.159c1.354,2.188 3.854,3.28 7.5,3.28c2.867,-1.04 4.74,-1.56 5.627,-1.56c-0.493,2.913 -1.434,4.374 -2.813,4.374c-6.173,2.393 -11.066,3.594 -14.687,3.594h-0.413V36.788z" id="path_0"/><path fill="#000001" d="M62.32,14.187c0.16,-0.093 0.206,0.054 0.14,0.434c-0.887,2.08 -2.247,3.533 -4.08,4.354l-6.74,3.38c-0.286,-0.08 -0.34,-0.313 -0.159,-0.707c0.899,-1.732 1.513,-2.76 1.84,-3.086L62.32,14.187z" id="path_1"/><path fill="#FF0000" d="M35.227,36.807h0.354c1.066,0 2.193,-0.413 3.38,-1.24c1.187,-0.826 1.88,-1.866 2.094,-3.113l0.153,-0.159h0.152c0.188,0 0.447,0.573 0.787,1.72c1.48,2.033 3.566,2.967 6.247,2.813c0.18,0 0.366,-0.007 0.546,-0.021v4.474c-0.18,0.014 -0.366,0.02 -0.546,0.02l-2.188,-0.254c-0.232,2.08 -0.913,3.121 -2.033,3.127H43.86c-2.08,-0.393 -3.12,-1.119 -3.12,-2.193l0.467,-2.813c-0.367,-0.414 -0.728,-0.621 -1.094,-0.621c-1.174,1.834 -2.8,2.74 -4.887,2.715V36.807z" id="path_2"/><path fill="#FF0000" d="M47.606,17.294c0.16,-0.094 0.207,0.053 0.14,0.433c-0.886,2.08 -2.246,3.534 -4.079,4.354l-6.74,3.38c-0.287,-0.08 -0.34,-0.313 -0.16,-0.706c0.899,-1.733 1.514,-2.76 1.84,-3.087L47.606,17.294z" id="path_3"/><path fill="#163987" d="M36.22,41.281c-2.68,-0.18 -5.113,-1.646 -7.3,-4.394h-0.16c-0.934,5.414 -3.02,8.121 -6.246,8.126H22.04c-1.4,-0.006 -2.76,-1.254 -4.061,-3.752c-1.039,-3.514 -1.56,-6.174 -1.56,-7.967v-1.254c0,-0.78 0.153,-1.199 0.467,-1.246c0.44,0.233 0.967,1.939 1.573,5.126c0.606,3.181 1.854,4.701 3.74,4.56c3.646,-0.6 5.573,-2.686 5.78,-6.253l-1.407,-4.84v-1.72c0.054,-2.087 0.26,-3.127 0.627,-3.127c0.207,0.467 0.366,0.94 0.467,1.407l2.187,6.873c1.72,2.786 3.847,4.106 6.366,3.947V41.281z" id="path_4"/><path fill="#FF0000" d="M29.974,50.967l0.16,0.141v0.426c-0.807,1.734 -1.934,2.947 -3.381,3.654c-4.479,2.434 -6.966,3.652 -7.459,3.652c-0.181,0 -0.274,-0.146 -0.274,-0.432c0.428,-1.654 1.367,-2.775 2.813,-3.361l8.007,-4.08H29.974z" id="path_5"/><path fill="#FF0000" d="M28.86,47.453c0.187,0 0.273,0.135 0.273,0.408c-0.521,1.514 -2.061,2.873 -4.627,4.086l-5.92,3.24l-0.134,-0.141v-0.152c0.561,-1.98 1.453,-3.201 2.674,-3.654l6.606,-3.379L28.86,47.453z" id="path_6"/></svg>