<svg id="vector" xmlns="http://www.w3.org/2000/svg" width="75" height="67" viewBox="0 0 83 73"><path fill="#000000" d="M53.11,49.41h0.607c2.06,-0.22 3.793,-1.467 5.199,-3.733c0.207,-0.467 0.414,-0.727 0.62,-0.78h0.16l0.467,0.474c-0.067,0.594 -0.167,1.014 -0.313,1.246c0.914,1.667 2.007,2.501 3.28,2.501l0.159,0.153c2.268,-5 4.814,-7.501 7.654,-7.501c2.267,0 3.934,0.94 5,2.813v0.94c0,5.727 -3.54,8.594 -10.627,8.594l-2.34,-0.153c-0.727,1.973 -1.2,2.967 -1.407,2.967l-0.153,-0.154v-0.159l0.467,-2.653v-0.314c-1.539,-0.859 -2.733,-2.06 -3.594,-3.593c-0.806,2.64 -2.533,3.913 -5.18,3.807V49.41L53.11,49.41zM64.85,49.583h0.313c3.54,0 6.56,-0.52 9.06,-1.56c0,-1.12 -1.039,-1.9 -3.119,-2.347h-0.627C67.977,45.676 66.104,46.983 64.85,49.583z" id="path_0"/><path fill="#000000" d="M66.963,26.669c1.6,0 2.4,0.986 2.4,2.953c0,3.134 -2.674,5.807 -8.027,8.007c-0.767,0.233 -0.859,-0.047 -0.273,-0.84c0.146,-0.3 1.407,-1.24 3.787,-2.813v-0.133c-1.027,-0.421 -1.54,-1.313 -1.54,-2.681c0.68,-2.993 1.76,-4.493 3.24,-4.493H66.963L66.963,26.669zM64.577,30.049c0,0.833 0.707,1.347 2.113,1.547h0.273c0.52,0 0.854,-0.193 0.993,-0.566c0,-0.847 -0.613,-1.507 -1.833,-1.974C65.59,29.056 65.077,29.389 64.577,30.049z" id="path_1"/><path fill="#163987" d="M31.331,47.943c1.279,0 2.213,0 2.813,0h0.627c1.873,-0.247 4.674,-1.047 8.4,-2.4c-1.254,-1.046 -3.18,-1.826 -5.78,-2.347c-1.54,0 -2.58,0.728 -3.127,2.188c-0.193,0.433 -0.366,0.546 -0.52,0.34c-0.146,-0.2 -0.187,-0.467 -0.106,-0.807c0.939,-3.153 2.187,-4.727 3.753,-4.727h1.093c1.041,0 2.921,0.586 5.634,1.76c2.714,1.167 5.054,1.64 7.021,1.406c0.246,0 0.354,0.153 0.313,0.467c-0.42,2.6 -1.199,3.907 -2.346,3.907l-0.78,0.153v0.313c0.394,0.82 2.192,1.214 5.413,1.174v4.434c-4.66,0.246 -6.986,-1.566 -6.973,-5.447c-1.668,0.247 -3.928,1.021 -6.781,2.334c-2.854,1.307 -5.732,1.866 -8.652,1.687V47.943z" id="path_2"/><path fill="#163987" d="M43.777,24.169c1.601,0 2.399,0.986 2.399,2.953c0,3.134 -2.673,5.807 -8.025,8.007c-0.768,0.233 -0.861,-0.047 -0.273,-0.84c0.146,-0.3 1.406,-1.24 3.786,-2.813v-0.133c-1.026,-0.42 -1.54,-1.313 -1.54,-2.681c0.68,-2.993 1.76,-4.493 3.24,-4.493H43.777L43.777,24.169zM41.39,27.549c0,0.834 0.706,1.347 2.113,1.547h0.273c0.521,0 0.854,-0.193 0.993,-0.566c0,-0.847 -0.613,-1.507 -1.833,-1.974C42.404,26.556 41.89,26.889 41.39,27.549z" id="path_3"/><path fill="#D60A0A" d="M15.417,47.943c1.734,0.146 3.207,-0.026 4.434,-0.507l-0.646,-1.173c-0.606,-3.44 -0.333,-5.714 0.82,-6.827c1.16,-1.113 2.406,-1.626 3.733,-1.533c2.58,0.12 4.033,1.474 4.373,4.061v0.939c0,2.16 -0.313,3.514 -0.934,4.06c-0.394,0.407 0.493,0.747 2.653,1.021l0.507,-0.021c0.394,-0.013 0.841,-0.02 1.347,-0.02v4.453l-1.58,0.021c-2.939,-0.014 -5.166,-0.387 -6.68,-1.113c-2.08,0.727 -3.7,1.093 -4.84,1.093h-0.627c-0.779,0 -1.633,0 -2.561,0V47.943L15.417,47.943zM20.944,43.53v0.313c0.653,1.12 1.64,1.899 2.967,2.34c0.887,-0.153 1.773,-0.521 2.66,-1.094c-0.395,-1.46 -1.693,-2.293 -3.907,-2.5C21.517,42.903 20.944,43.216 20.944,43.53z" id="path_4"/><path fill="#D60A0A" d="M21.883,30.25c1.354,0 2.6,0.833 3.747,2.5c-0.96,2.187 -1.693,3.28 -2.187,3.28c-2.107,-1.04 -3.254,-1.721 -3.44,-2.033C20.003,33.009 20.63,31.756 21.883,30.25z" id="path_5"/><path fill="#f06022" d="M27.371,19.583l0.159,0.141v0.427c-0.813,1.733 -1.939,2.946 -3.38,3.653c-4.479,2.433 -6.966,3.653 -7.46,3.653c-0.187,0 -0.279,-0.146 -0.279,-0.434c0.434,-1.653 1.373,-2.773 2.813,-3.36l8.014,-4.08H27.371z" id="path_6"/><path fill="#f06022" d="M26.256,16.07c0.181,0 0.273,0.133 0.273,0.406c-0.52,1.514 -2.06,2.874 -4.627,4.087l-5.92,3.24l-0.133,-0.141v-0.153c0.561,-1.979 1.447,-3.2 2.674,-3.653l6.6,-3.38L26.256,16.07z" id="path_7"/><path fill="#1D17EC" d="M15.55,52.396c-3.034,0.181 -5.24,-1.22 -6.62,-4.2c-0.666,-1.106 -1.287,-8.566 -1.873,-22.38v-0.313c0.387,-2.293 0.959,-3.439 1.713,-3.439l0.787,-0.153c0.959,0 2.42,0.313 4.373,0.934v0.313c-0.107,0.313 -0.42,0.473 -0.939,0.473h-2.654c-0.547,0 -1.066,0.307 -1.566,0.934c0.486,11.993 1.193,18.939 2.133,20.84c0.934,1.9 2.487,2.747 4.647,2.54V52.396z" id="path_8"/></svg>