<svg id="vector" xmlns="http://www.w3.org/2000/svg" width="75" height="67" viewBox="0 0 83 73"><path fill="#a3451c" d="M52.216,37.088c0.227,0.025 0.447,-0.094 0.667,-0.354c-0.413,-0.507 -0.627,-1.033 -0.627,-1.58v-1.406c0.5,-4.58 2.32,-6.873 5.474,-6.873c1.586,0 3.307,0.833 5.153,2.499c0.68,0.261 1.04,0.521 1.093,0.78v0.153c0,0.24 -0.26,0.394 -0.779,0.474c0,-0.446 -1.354,-0.807 -4.061,-1.094h-0.627c-2.92,0.44 -4.373,1.22 -4.373,2.341c0,1.539 1.507,2.687 4.527,3.439l1.093,0.153c0.394,0 2.374,-0.986 5.94,-2.967h0.153l0.313,0.313c0,2.16 -2.394,4.507 -7.188,7.033c-3.413,1.041 -5.492,1.561 -6.246,1.561c-0.174,0 -0.34,-0.006 -0.514,-0.02V37.088z" id="path_0"/><path fill="#a3451c" d="M63.409,13.674c0.16,-0.094 0.207,0.053 0.141,0.433c-0.887,2.08 -2.247,3.534 -4.08,4.354l-6.74,3.38c-0.287,-0.08 -0.34,-0.313 -0.16,-0.706c0.9,-1.733 1.514,-2.76 1.84,-3.087L63.409,13.674z" id="path_1"/><path fill="#FF0000" d="M41.149,37.107c0.027,0 0.06,0 0.094,0c2.5,-0.154 3.933,-1.273 4.299,-3.36c-0.939,-6.247 -1.406,-10.627 -1.406,-13.127c0,-0.96 0.42,-2.213 1.254,-3.747l0.152,0.154l0.314,0.313l-0.16,1.094c0.133,7.02 1.02,12.46 2.66,16.326c0.627,1.407 2.16,2.193 4.605,2.347v4.453c-3.359,-0.053 -5.619,-1.82 -6.793,-5.313h-0.16c-1.08,3.5 -2.699,5.274 -4.86,5.313V37.107z" id="path_2"/><path fill="#FF0000" d="M50.676,8.38c0.16,-0.093 0.206,0.054 0.14,0.434c-0.887,2.08 -2.246,3.533 -4.08,4.354l-6.74,3.38c-0.287,-0.08 -0.34,-0.313 -0.16,-0.707c0.9,-1.733 1.513,-2.76 1.84,-3.087L50.676,8.38z" id="path_3"/><path fill="#009649" d="M41.042,41.58c-1.327,0.027 -2.793,0.014 -4.394,-0.039c-0.287,3.307 -1.9,6.119 -4.846,8.439c-1.394,1.314 -3.106,2.047 -5.154,2.188c-4.3,0 -7.42,-2.033 -9.373,-6.094c-0.38,-1.848 -0.513,-3.359 -0.4,-4.533c0.106,-1.166 0.813,-3.1 2.113,-5.781c0.833,-1.04 1.46,-1.56 1.88,-1.56l0.153,0.153v0.16c0,0.573 -0.673,1.82 -2.033,3.746c-0.413,1.041 -0.62,1.928 -0.62,2.66c0,2.861 1.72,4.947 5.153,6.248c0.807,0.313 1.9,0.52 3.28,0.627c2.813,0 5.787,-1.568 8.907,-4.688c0,-0.654 -0.26,-1.121 -0.78,-1.406h-0.467c-4.066,0 -6.093,-1.094 -6.093,-3.281c0,-3.233 0.987,-4.846 2.967,-4.846c1.72,0 3.18,1.2 4.373,3.594c1.094,-0.014 2.874,-0.008 5.333,0.02V41.58z" id="path_4"/><path fill="#009649" d="M31.183,24.828c2.393,0.906 3.593,1.533 3.593,1.873v0.153c-0.967,2.187 -1.64,3.28 -2.034,3.28c-0.806,0 -1.953,-0.467 -3.439,-1.407c-0.62,1.594 -1.146,2.48 -1.561,2.66h-0.153c-0.94,0 -2.087,-0.52 -3.44,-1.56v-0.16c0,-0.94 0.573,-2.134 1.72,-3.594h0.313c0.854,0.181 1.953,0.7 3.28,1.561h0.153C30.369,25.814 30.896,24.874 31.183,24.828z" id="path_5"/><path fill="#FF0000" d="M34.576,56.773l0.16,0.141v0.428c-0.807,1.732 -1.933,2.945 -3.38,3.652c-4.48,2.434 -6.967,3.654 -7.46,3.654c-0.18,0 -0.273,-0.148 -0.273,-0.434c0.427,-1.654 1.367,-2.773 2.813,-3.361l8.006,-4.08H34.576z" id="path_6"/><path fill="#FF0000" d="M33.463,53.26c0.187,0 0.273,0.135 0.273,0.408c-0.52,1.514 -2.06,2.873 -4.626,4.086l-5.92,3.24l-0.134,-0.141v-0.152c0.561,-1.98 1.454,-3.201 2.674,-3.654l6.606,-3.379L33.463,53.26z" id="path_7"/></svg>