<svg id="vector" xmlns="http://www.w3.org/2000/svg" width="75" height="67" viewBox="0 0 83 73"><path fill="#FF0000" d="M55.787,45.311c0.227,0.027 0.445,-0.094 0.666,-0.354c-0.412,-0.506 -0.627,-1.033 -0.627,-1.58v-1.406c0.5,-4.58 2.32,-6.874 5.475,-6.874c1.586,0 3.307,0.834 5.152,2.5c0.68,0.26 1.041,0.52 1.094,0.779v0.154c0,0.238 -0.26,0.393 -0.779,0.473c0,-0.447 -1.354,-0.807 -4.061,-1.094H62.08c-2.92,0.441 -4.373,1.221 -4.373,2.34c0,1.541 1.506,2.688 4.527,3.441l1.092,0.152c0.395,0 2.373,-0.986 5.941,-2.967h0.152l0.313,0.314c0,2.16 -2.393,4.506 -7.186,7.033c-3.414,1.039 -5.494,1.559 -6.246,1.559c-0.174,0 -0.34,-0.006 -0.514,-0.02V45.311z" id="path_0"/><path fill="#FF0000" d="M66.98,21.89c0.16,-0.093 0.207,0.054 0.139,0.434c-0.885,2.08 -2.246,3.533 -4.078,4.354l-6.74,3.38c-0.287,-0.08 -0.34,-0.313 -0.16,-0.707c0.9,-1.732 1.514,-2.76 1.84,-3.086L66.98,21.89z" id="path_1"/><path fill="#163987" d="M56.527,49.805c-2.68,-0.18 -5.113,-1.648 -7.301,-4.395h-0.16c-0.934,5.414 -3.02,8.121 -6.246,8.127h-0.473c-1.4,-0.006 -2.762,-1.254 -4.061,-3.754c-1.041,-3.512 -1.561,-6.172 -1.561,-7.967v-1.252c0,-0.781 0.154,-1.201 0.467,-1.248c0.439,0.234 0.967,1.941 1.574,5.127c0.605,3.18 1.854,4.701 3.74,4.561c3.646,-0.6 5.572,-2.688 5.779,-6.254l-1.406,-4.84v-1.719c0.053,-2.087 0.26,-3.127 0.627,-3.127c0.205,0.467 0.365,0.94 0.465,1.406l2.188,6.874c1.721,2.787 3.846,4.107 6.367,3.947V49.805z" id="path_2"/><path fill="#163987" d="M51.881,21.304c0.16,-0.094 0.205,0.053 0.139,0.434c-0.887,2.08 -2.246,3.533 -4.08,4.353l-6.74,3.38c-0.285,-0.079 -0.34,-0.313 -0.158,-0.706c0.898,-1.733 1.512,-2.76 1.84,-3.087L51.881,21.304z" id="path_3"/><path fill="#FF0000" d="M30.613,20.524c0.287,0 0.494,0.78 0.627,2.347l1.561,2.653v0.16c0,0.7 -0.314,1.953 -0.941,3.747l0.941,10.625v3.748c-0.34,2.166 -1.588,4.299 -3.754,6.406c-2.16,1.666 -4.086,2.5 -5.779,2.5h-0.934c-4.533,0 -7.453,-2.24 -8.754,-6.713l-0.313,-2.814c0,-2.893 1.252,-5.447 3.752,-7.66h0.154l0.313,0.313c0,0.573 -0.727,1.979 -2.186,4.219c-0.314,0.807 -0.467,1.533 -0.467,2.188v0.16c0,2.652 2.133,4.58 6.406,5.779l1.873,0.154h0.314c3.02,0 5.672,-1.408 7.967,-4.221l0.152,-0.467c-1.246,-10.886 -1.873,-17.553 -1.873,-20v-0.313C29.674,22.191 29.986,21.257 30.613,20.524z" id="path_4"/><path fill="#FF0000" d="M27.213,19.491c0.16,-0.094 0.207,0.054 0.141,0.434c-0.887,2.08 -2.246,3.533 -4.08,4.353l-6.74,3.381c-0.287,-0.08 -0.34,-0.313 -0.16,-0.707c0.9,-1.733 1.514,-2.76 1.84,-3.087L27.213,19.491z" id="path_5"/></svg>