<svg id="vector" xmlns="http://www.w3.org/2000/svg" width="75" height="67" viewBox="0 0 83 73"><path fill="#04D504" d="M56.961,50.74h0.781c4.859,-0.094 8.086,-0.775 9.686,-2.055l0.314,-0.619c-0.207,-0.5 -0.467,-0.746 -0.78,-0.746c-0.753,0.418 -1.587,0.625 -2.5,0.625h-0.16c-2.706,-0.313 -4.113,-1.406 -4.214,-3.279v-0.16c0.261,-3.539 1.094,-5.307 2.5,-5.307h0.781c2.406,-0.119 4.232,1.754 5.466,5.619l0.153,1.568v0.313c-0.033,3.826 -1.406,6.354 -4.12,7.574c-0.96,0.613 -3.601,0.92 -7.907,0.92V50.74z" id="path_0"/><path fill="#04D504" d="M63.835,31.033c1.693,0.52 3.153,1.354 4.373,2.5v0.153c0,0.653 -0.673,1.693 -2.026,3.126c-0.42,0 -1.826,-0.52 -4.221,-1.56v0.153c-0.833,1.614 -1.353,2.446 -1.566,2.5c-1.354,-0.287 -2.5,-0.914 -3.434,-1.874c0.627,-2.606 1.147,-3.906 1.561,-3.906c0.34,0 1.587,0.626 3.754,1.873C62.276,33.453 62.795,32.465 63.835,31.033z" id="path_1"/><path fill="#04D504" d="M68.036,21.62c0.16,-0.094 0.207,0.053 0.141,0.434c-0.887,2.079 -2.248,3.533 -4.08,4.353l-6.74,3.38c-0.287,-0.08 -0.34,-0.313 -0.16,-0.706c0.9,-1.733 1.514,-2.76 1.84,-3.087L68.036,21.62z" id="path_2"/><path fill="#000001" d="M46.042,32.892h0.627c2.054,1.174 3.094,1.847 3.12,2.033c-1.013,2.188 -1.693,3.334 -2.026,3.434c-1.174,0 -2.32,-0.574 -3.439,-1.72C44.529,35.526 45.102,34.273 46.042,32.892z" id="path_3"/><path fill="#000001" d="M51.508,32.113c0.994,0 2.188,0.673 3.594,2.026c0,0.554 -0.674,1.646 -2.026,3.287c-0.786,0 -1.934,-0.52 -3.44,-1.567C49.635,34.953 50.262,33.699 51.508,32.113z" id="path_4"/><path fill="#000001" d="M44.323,45.545h0.039c1.82,0 3.28,-0.619 4.373,-1.873l-0.152,-1.246c0,-1.539 0.313,-2.787 0.934,-3.754c0.286,0 0.706,2.66 1.252,7.967c0.627,2.867 2.808,4.193 6.541,3.986v4.455c-3.646,0.26 -6.188,-1.408 -7.634,-5c-0.233,-2.502 -0.493,-3.748 -0.78,-3.748c-0.613,2.367 -2.14,3.613 -4.572,3.727V45.545z" id="path_5"/><path fill="#000001" d="M55.508,21.559c0.16,-0.093 0.207,0.054 0.141,0.434c-0.887,2.08 -2.247,3.533 -4.08,4.354l-6.74,3.38c-0.287,-0.08 -0.34,-0.313 -0.16,-0.707c0.9,-1.733 1.514,-2.76 1.84,-3.087L55.508,21.559z" id="path_6"/><path fill="#04D504" d="M44.375,50.133c-0.14,0.014 -0.287,0.02 -0.426,0.02h-0.787c-1.221,0 -2.054,-0.1 -2.5,-0.313c-0.907,3.506 -1.967,5.652 -3.18,6.439c-1.214,0.787 -3.954,1.453 -8.221,2h-0.313c-0.94,-0.107 -1.406,-0.26 -1.406,-0.467c0,-0.313 0.78,-0.68 2.34,-1.094c6.146,-2.813 9.22,-4.846 9.22,-6.092c0,-0.521 -0.727,-1.721 -2.187,-3.594c-0.313,-0.527 -0.467,-1.201 -0.467,-2.033v-1.561c0,-0.787 0.153,-1.201 0.467,-1.254c1.354,2.074 3.646,3.227 6.874,3.473c0.199,0 0.393,0 0.586,-0.012V50.133z" id="path_7"/><path fill="#04D504" d="M41.076,31.286c0.16,-0.093 0.206,0.054 0.14,0.434c-0.887,2.08 -2.246,3.533 -4.08,4.353l-6.74,3.381c-0.286,-0.08 -0.34,-0.314 -0.16,-0.707c0.9,-1.734 1.514,-2.76 1.841,-3.087L41.076,31.286z" id="path_8"/><path fill="#163987" d="M25.629,35l0.152,0.467c-0.206,0.887 -1.146,1.926 -2.813,3.125c1.666,1.354 2.5,3.334 2.5,5.941v0.152c0,4.273 -1.768,6.406 -5.313,6.406c-2.807,-0.547 -4.214,-1.953 -4.214,-4.219v-0.154c0.101,-1.953 0.881,-4.039 2.34,-6.252c-1.353,-0.414 -2.026,-0.988 -2.026,-1.721c0,-1.954 0.153,-3.147 0.467,-3.593c1.407,0.394 2.967,1.173 4.687,2.347h0.153L25.629,35L25.629,35zM19.536,41.246c-1.254,1.254 -1.881,2.141 -1.881,2.66c0,1.613 1.147,2.553 3.441,2.813c1.199,-0.16 2.239,-0.572 3.126,-1.254C23.208,43.719 21.642,42.318 19.536,41.246z" id="path_9"/><path fill="#f06022" d="M22.835,17.326c1.193,0 1.899,0.793 2.106,2.38v0.434c-0.22,2.653 -1.106,4.387 -2.652,5.193c-2.694,1.693 -5.141,2.54 -7.327,2.54c-0.08,-0.014 -0.153,-0.033 -0.233,-0.061c-0.08,-0.026 -0.141,-0.066 -0.188,-0.12c-0.046,-0.046 -0.039,-0.08 0.014,-0.093c0.113,-0.26 2.08,-1.3 5.894,-3.106v-0.141c-1.026,-0.646 -1.54,-1.54 -1.54,-2.673C19.522,18.773 20.829,17.326 22.835,17.326L22.835,17.326zM20.315,20.272v0.134c0,0.967 0.66,1.533 1.975,1.7h0.406c0.5,0 0.779,-0.141 0.84,-0.427c0,-1.313 -0.7,-1.974 -2.106,-1.974C20.689,19.873 20.315,20.066 20.315,20.272z" id="path_10"/><path fill="#f06022" d="M19.749,14.786c0.301,-0.146 0.44,-0.047 0.427,0.293c-1.507,1.667 -2.692,3.247 -3.554,4.747c-0.246,0.587 -0.387,1.066 -0.42,1.453s0.067,0.8 0.307,1.24h0.294c0.113,-0.653 0.347,-0.98 0.7,-0.98c0.42,0.187 0.652,0.374 0.699,0.567v0.273c0.027,1.486 -0.393,2.38 -1.266,2.68h-0.701c-0.939,-0.187 -1.406,-1.267 -1.406,-3.247C14.829,19.406 16.469,17.066 19.749,14.786z" id="path_11"/><path fill="#163987" d="M20.885,28.048c1.693,0.521 3.152,1.354 4.373,2.5v0.153c0,0.653 -0.674,1.693 -2.027,3.127c-0.42,0 -1.826,-0.521 -4.219,-1.561v0.153c-0.834,1.614 -1.354,2.447 -1.567,2.501c-1.354,-0.287 -2.5,-0.914 -3.433,-1.874c0.626,-2.606 1.146,-3.906 1.56,-3.906c0.34,0 1.587,0.627 3.753,1.873C19.325,30.468 19.845,29.482 20.885,28.048z" id="path_12"/></svg>