<svg id="vector" xmlns="http://www.w3.org/2000/svg" width="75" height="67" viewBox="0 0 83 73"><path fill="#FF0000" d="M50.566,42.66c0.394,0.027 0.794,0.039 1.193,0.039h0.467l1.953,-0.465c-0.466,-0.875 -0.699,-1.48 -0.699,-1.82c0,-5.001 1.613,-7.501 4.84,-7.501l1.253,-0.153c1.641,0.26 3.728,1.247 6.247,2.967l0.16,0.627l-0.16,0.153H65.2c-1.2,-0.834 -2.554,-1.247 -4.066,-1.247c-2.313,0 -4.24,0.674 -5.78,2.027v0.16c1.354,2.186 3.854,3.279 7.5,3.279c2.867,-1.039 4.74,-1.561 5.627,-1.561c-0.493,2.914 -1.434,4.375 -2.813,4.375c-6.174,2.393 -11.066,3.592 -14.687,3.592h-0.414V42.66z" id="path_0"/><path fill="#FF0000" d="M65.101,49.16c0.16,-0.086 0.206,0.053 0.14,0.434c-0.887,2.08 -2.247,3.533 -4.08,4.354l-6.74,3.379c-0.286,-0.08 -0.34,-0.313 -0.159,-0.699c0.899,-1.732 1.513,-2.76 1.84,-3.086L65.101,49.16z" id="path_1"/><path fill="#a3451c" d="M40.08,26.14c2.394,0.986 3.594,1.82 3.594,2.5l-2.033,3.12h-0.153c-0.447,0 -1.641,-0.62 -3.594,-1.873C38.854,27.387 39.587,26.14 40.08,26.14z" id="path_2"/><path fill="#a3451c" d="M36.014,42.68h1.02c2.027,-0.166 3.54,-0.973 4.527,-2.42l0.159,-0.473l-0.466,-2.34c0.1,-2.501 0.359,-3.754 0.779,-3.754c1.247,4.4 2.447,7.088 3.594,8.047c0.986,0.561 2.34,0.867 4.06,0.92c0.46,0 0.887,0 1.294,0v4.473c-0.514,0 -1.047,0 -1.607,0h-0.152c-2.994,0 -5.287,-1.666 -6.874,-5V41.98l-1.406,2.807c-1.066,1.58 -2.634,2.359 -4.687,2.346h-0.24V42.68z" id="path_3"/><path fill="#a3451c" d="M48.36,15.96c0.16,-0.094 0.207,0.053 0.14,0.434c-0.887,2.079 -2.246,3.533 -4.079,4.353l-6.74,3.38c-0.287,-0.08 -0.341,-0.313 -0.16,-0.706c0.899,-1.733 1.514,-2.76 1.84,-3.087L48.36,15.96z" id="path_4"/><path fill="#163987" d="M28.66,48.854c0.533,0 1.786,0.627 3.753,1.873c0,0.781 -0.626,2.033 -1.88,3.754c-2.5,-0.814 -3.746,-1.541 -3.746,-2.193C26.854,51.707 27.474,50.561 28.66,48.854z" id="path_5"/><path fill="#163987" d="M22.974,42.68c1.113,0.014 1.8,-0.006 2.073,-0.059c2.347,-0.715 3.946,-2.234 4.807,-4.547c0.127,-0.447 0.387,-0.5 0.78,-0.16c0.206,0.18 0.366,0.912 0.467,2.186c1.42,1.914 3.193,2.773 5.313,2.58h0.414v4.453h-0.101c-3.319,-0.152 -5.767,-1.666 -7.347,-4.533h-0.153c-1.106,2.334 -2.566,3.768 -4.373,4.301c-0.547,0.152 -1.174,0.232 -1.88,0.232V42.68z" id="path_6"/><path fill="#f06022" d="M32.021,19.187l0.159,0.14v0.427c-0.813,1.733 -1.939,2.946 -3.38,3.653c-4.479,2.434 -6.967,3.653 -7.46,3.653c-0.187,0 -0.279,-0.146 -0.279,-0.434c0.433,-1.653 1.373,-2.773 2.813,-3.359l8.014,-4.08H32.021z" id="path_7"/><path fill="#f06022" d="M30.907,15.673c0.18,0 0.272,0.134 0.272,0.407c-0.52,1.513 -2.06,2.873 -4.626,4.086l-5.92,3.24l-0.134,-0.14v-0.153c0.561,-1.98 1.446,-3.2 2.673,-3.653l6.601,-3.38L30.907,15.673z" id="path_8"/><path fill="#FF0000" d="M23.014,47.133c-3.033,0.182 -5.24,-1.219 -6.62,-4.199c-0.667,-1.107 -1.287,-8.567 -1.874,-22.381v-0.313c0.387,-2.293 0.961,-3.439 1.714,-3.439l0.787,-0.153c0.959,0 2.42,0.313 4.373,0.934v0.313c-0.107,0.313 -0.42,0.473 -0.94,0.473H17.8c-0.547,0 -1.066,0.307 -1.566,0.934c0.486,11.993 1.193,18.94 2.133,20.841c0.934,1.9 2.487,2.746 4.647,2.539V47.133z" id="path_9"/></svg>