<svg id="vector" xmlns="http://www.w3.org/2000/svg" width="75" height="67" viewBox="0 0 83 73"><path fill="#04D504" d="M60.413,26.74c1.354,0 2.6,0.834 3.746,2.5c-0.959,2.187 -1.693,3.28 -2.187,3.28c-2.106,-1.04 -3.253,-1.72 -3.439,-2.033C58.533,29.5 59.159,28.247 60.413,26.74z" id="path_0"/><path fill="#04D504" d="M55.353,46.348h0.78c4.86,-0.094 8.087,-0.775 9.687,-2.055l0.313,-0.619c-0.206,-0.5 -0.466,-0.746 -0.78,-0.746c-0.753,0.418 -1.586,0.625 -2.5,0.625h-0.16c-2.706,-0.313 -4.113,-1.406 -4.213,-3.279v-0.16c0.26,-3.54 1.094,-5.306 2.5,-5.306h0.78c2.407,-0.12 4.233,1.753 5.467,5.619l0.153,1.568v0.313c-0.033,3.826 -1.407,6.354 -4.12,7.574c-0.96,0.613 -3.601,0.92 -7.907,0.92V46.348z" id="path_1"/><path fill="#04D504" d="M66.187,16.173c0.16,-0.093 0.207,0.054 0.14,0.434c-0.887,2.08 -2.247,3.533 -4.079,4.354l-6.74,3.38c-0.287,-0.08 -0.34,-0.313 -0.16,-0.707c0.899,-1.733 1.514,-2.76 1.84,-3.087L66.187,16.173z" id="path_2"/><path fill="#163987" d="M55.833,50.801c-0.1,0 -0.207,0 -0.307,0H54.12c-1.407,0 -3.027,-0.887 -4.848,-2.654c-3.126,1.713 -6.5,2.6 -10.119,2.654v-4.434c1.893,0.127 4.326,-0.268 7.307,-1.193V45.02c-1.434,-0.939 -2.787,-1.406 -4.061,-1.406l-1.254,0.154l-0.313,-0.781c0.42,-2.813 1.62,-4.219 3.594,-4.219l2.5,-0.154c3.959,0.467 5.939,1.354 5.939,2.654v0.625l-0.939,3.127c0.76,0.92 2.06,1.367 3.906,1.328V50.801z" id="path_3"/><path fill="#163987" d="M53.04,25.433c0.16,-0.093 0.207,0.054 0.14,0.434c-0.887,2.08 -2.247,3.533 -4.079,4.354l-6.741,3.38c-0.286,-0.08 -0.339,-0.313 -0.159,-0.707c0.899,-1.733 1.514,-2.76 1.84,-3.087L53.04,25.433z" id="path_4"/><path fill="#04D504" d="M39.06,50.74c-1.514,0.014 -2.76,-0.76 -3.753,-2.32h-0.153c-0.733,2.6 -1.826,4.426 -3.28,5.467c-2.06,1.98 -4.3,2.967 -6.72,2.967h-0.94c-2.76,0 -5.206,-1.561 -7.34,-4.688c-0.833,-1.434 -1.253,-3.1 -1.253,-5c0,-2.68 1.354,-5.387 4.066,-8.119c1.413,-0.9 1.834,-0.848 1.246,0.152c-2.393,3.334 -3.593,5.627 -3.593,6.875c0,3.232 2.394,5.365 7.187,6.406h1.254c2.68,0 5.333,-1.354 7.967,-4.061c0.273,-0.859 0.326,-1.801 0.152,-2.813c-0.52,-2.215 -1.3,-7.842 -2.34,-16.875l0.934,-3.126c0.146,-0.027 0.3,-0.027 0.474,0c0.286,0 0.807,3.96 1.56,11.874c0.52,4.166 1.146,6.773 1.873,7.813c0.641,0.707 1.527,1.033 2.66,0.994V50.74z" id="path_5"/><path fill="#04D504" d="M30.793,24.333c0.16,-0.094 0.207,0.053 0.14,0.433c-0.887,2.081 -2.246,3.534 -4.079,4.354l-6.74,3.38c-0.286,-0.08 -0.34,-0.313 -0.16,-0.706c0.899,-1.733 1.514,-2.76 1.84,-3.087L30.793,24.333z" id="path_6"/></svg>