<svg id="vector" xmlns="http://www.w3.org/2000/svg" width="75" height="67" viewBox="0 0 83 73"><path fill="#04D504" d="M51.283,45.523h0.807h0.307h0.787c2.834,-0.207 4.553,-0.859 5.152,-1.953c0,-0.859 -0.986,-3.199 -2.967,-7.033l-0.313,-1.246c-0.34,-1.641 -0.326,-3.148 0.039,-4.514c0.361,-1.367 1.08,-2.314 2.148,-2.834c2.473,-1.666 7.213,-4.426 14.219,-8.279l0.154,0.16v0.307c-1.508,2.373 -2.654,4.559 -3.434,6.566h-0.314l-0.16,-0.781v-0.785l0.16,-0.154v-0.152h-0.16c-5.807,3.354 -9.713,5.807 -11.719,7.34v0.16c2.193,4.426 3.387,7.807 3.6,10.152c0,1.666 -0.572,3.439 -1.721,5.314c-1.092,1.459 -3.279,2.186 -6.566,2.186h-0.02V45.523z" id="path_0"/><path fill="#04D504" d="M59.631,14.35c1.6,0 2.398,0.986 2.398,2.953c0,3.135 -2.672,5.807 -8.025,8.008c-0.768,0.232 -0.861,-0.047 -0.273,-0.84c0.146,-0.301 1.406,-1.24 3.785,-2.814v-0.133c-1.025,-0.42 -1.539,-1.314 -1.539,-2.68c0.68,-2.994 1.76,-4.494 3.24,-4.494H59.631L59.631,14.35zM57.244,17.73c0,0.832 0.705,1.346 2.113,1.547h0.273c0.52,0 0.852,-0.193 0.992,-0.566c0,-0.848 -0.613,-1.508 -1.834,-1.975C58.256,16.736 57.744,17.07 57.244,17.73z" id="path_1"/><path fill="#000001" d="M40.864,32.617c0.646,0 1.792,0.779 3.433,2.34c0,0.52 -0.621,1.666 -1.873,3.439h-0.314c-0.652,0 -1.639,-0.627 -2.966,-1.879v-0.154C39.143,35.736 39.717,34.49 40.864,32.617z" id="path_2"/><path fill="#000001" d="M46.482,31.83c2.607,1.119 3.908,2.006 3.908,2.66c-0.154,0.494 -0.881,1.586 -2.188,3.279c-1.746,-0.68 -2.994,-1.459 -3.746,-2.346C45.004,33.684 45.676,32.482 46.482,31.83z" id="path_3"/><path fill="#000001" d="M38.104,45.523c1.113,0.014 1.799,-0.006 2.072,-0.061c2.347,-0.713 3.947,-2.232 4.806,-4.547c0.127,-0.445 0.387,-0.5 0.781,-0.158c0.207,0.18 0.365,0.912 0.467,2.186c1.42,1.914 3.193,2.773 5.313,2.58h0.414v4.453h-0.1c-3.32,-0.152 -5.768,-1.666 -7.348,-4.533h-0.152c-1.107,2.334 -2.568,3.768 -4.375,4.301c-0.546,0.152 -1.173,0.232 -1.879,0.232V45.523z" id="path_4"/><path fill="#000001" d="M45.863,17.631c1.6,0 2.4,0.986 2.4,2.953c0,3.133 -2.674,5.807 -8.027,8.006c-0.767,0.234 -0.859,-0.047 -0.273,-0.84c0.146,-0.301 1.406,-1.24 3.787,-2.813v-0.133c-1.027,-0.422 -1.539,-1.314 -1.539,-2.682c0.68,-2.992 1.76,-4.492 3.238,-4.492H45.863L45.863,17.631zM43.477,21.01c0,0.834 0.707,1.348 2.113,1.547h0.273c0.52,0 0.854,-0.193 0.994,-0.566c0,-0.846 -0.613,-1.506 -1.834,-1.973C44.49,20.018 43.977,20.35 43.477,21.01z" id="path_5"/><path fill="#a3451c" d="M23.204,53.023c0.533,0 1.779,0.627 3.746,1.873c0,0.779 -0.626,2.033 -1.873,3.754c-2.5,-0.807 -3.753,-1.541 -3.753,-2.188C21.39,55.877 22.017,54.73 23.204,53.023z" id="path_6"/><path fill="#a3451c" d="M38.516,49.996c-1.992,-0.16 -3.799,-1.559 -5.412,-4.199c-2.395,2.914 -5.834,4.373 -10.314,4.373h-1.246c-4.847,0 -8.18,-2.08 -10,-6.246l-0.16,-0.939v-1.408c0,-1.506 0.68,-3.227 2.033,-5.152h0.154l0.313,0.313v0.781l-0.779,2.5c0,2.732 2.293,4.605 6.873,5.625l2.813,0.154c4.874,0 8.728,-1.666 11.567,-5c0.153,0 0.307,0.207 0.467,0.627l-0.16,1.094c0.533,1.967 1.819,2.953 3.853,2.967V49.996z" id="path_7"/><path fill="#04D504" d="M25.684,25.744c1.193,0 1.899,0.793 2.105,2.379v0.434c-0.219,2.654 -1.105,4.387 -2.652,5.193c-2.693,1.693 -5.141,2.539 -7.327,2.539c-0.079,-0.012 -0.153,-0.031 -0.233,-0.059s-0.14,-0.066 -0.187,-0.121c-0.046,-0.047 -0.04,-0.08 0.013,-0.092c0.114,-0.262 2.08,-1.301 5.895,-3.107V32.77c-1.027,-0.646 -1.541,-1.539 -1.541,-2.672C22.371,27.189 23.676,25.744 25.684,25.744L25.684,25.744zM23.164,28.689v0.135c0,0.967 0.66,1.533 1.974,1.699h0.406c0.5,0 0.78,-0.141 0.84,-0.426c0,-1.314 -0.699,-1.975 -2.106,-1.975C23.537,28.291 23.164,28.482 23.164,28.689z" id="path_8"/><path fill="#04D504" d="M22.596,23.203c0.301,-0.146 0.44,-0.047 0.428,0.293c-1.508,1.668 -2.693,3.248 -3.554,4.748c-0.247,0.586 -0.387,1.066 -0.42,1.453s0.066,0.799 0.307,1.24h0.293c0.114,-0.654 0.347,-0.98 0.7,-0.98c0.42,0.186 0.653,0.373 0.7,0.566v0.273c0.026,1.486 -0.394,2.379 -1.267,2.68h-0.7c-0.94,-0.186 -1.407,-1.266 -1.407,-3.246C17.676,27.824 19.317,25.484 22.596,23.203z" id="path_9"/></svg>