<svg id="vector" xmlns="http://www.w3.org/2000/svg" width="75" height="67" viewBox="0 0 83 73"><path fill="#FF0000" d="M59.305,31.45c1.38,0.727 2.473,1.46 3.279,2.187c-0.232,1.119 -0.959,2.32 -2.186,3.592h-0.154c-1.433,-0.599 -2.426,-1.272 -2.973,-2.033v-0.313C58.211,32.596 58.885,31.45 59.305,31.45z" id="path_0"/><path fill="#FF0000" d="M55.825,50.002c0.227,0.027 0.447,-0.092 0.667,-0.354c-0.413,-0.506 -0.626,-1.033 -0.626,-1.578v-1.408c0.499,-4.58 2.319,-6.873 5.473,-6.873c1.587,0 3.307,0.834 5.153,2.5c0.681,0.26 1.04,0.52 1.093,0.781v0.152c0,0.24 -0.26,0.393 -0.779,0.473c0,-0.445 -1.354,-0.807 -4.061,-1.092h-0.627c-2.919,0.439 -4.373,1.219 -4.373,2.34c0,1.539 1.508,2.686 4.527,3.439l1.094,0.152c0.393,0 2.373,-0.986 5.939,-2.967h0.153l0.313,0.314c0,2.16 -2.394,4.506 -7.188,7.033c-3.412,1.041 -5.492,1.561 -6.246,1.561c-0.174,0 -0.34,-0.008 -0.514,-0.021V50.002z" id="path_1"/><path fill="#FF0000" d="M66.551,20.436c0.16,-0.094 0.207,0.053 0.141,0.434c-0.887,2.08 -2.247,3.533 -4.08,4.353l-6.74,3.38c-0.287,-0.079 -0.34,-0.313 -0.16,-0.706c0.9,-1.733 1.514,-2.76 1.84,-3.087L66.551,20.436z" id="path_2"/><path fill="#000001" d="M42.979,44.828h0.039c1.82,0 3.28,-0.619 4.373,-1.873l-0.152,-1.246c0,-1.539 0.313,-2.787 0.934,-3.754c0.286,0 0.706,2.66 1.252,7.967c0.627,2.867 2.808,4.193 6.541,3.986v4.455c-3.646,0.26 -6.188,-1.408 -7.634,-5c-0.233,-2.5 -0.493,-3.748 -0.78,-3.748c-0.613,2.367 -2.14,3.613 -4.572,3.727V44.828z" id="path_3"/><path fill="#000001" d="M45.225,55.922h0.627c2.053,1.174 3.1,1.854 3.119,2.033c-1.013,2.188 -1.686,3.334 -2.025,3.441c-1.174,0 -2.32,-0.574 -3.441,-1.721C43.711,58.557 44.286,57.309 45.225,55.922z" id="path_4"/><path fill="#000001" d="M54.358,26.703c0.16,-0.094 0.207,0.054 0.141,0.434c-0.887,2.08 -2.247,3.533 -4.08,4.354l-6.74,3.38c-0.287,-0.08 -0.34,-0.313 -0.16,-0.707c0.9,-1.733 1.514,-2.76 1.84,-3.087L54.358,26.703z" id="path_5"/><path fill="#FF0000" d="M43.225,49.416c-0.141,0.014 -0.287,0.02 -0.427,0.02h-0.786c-1.221,0 -2.054,-0.1 -2.5,-0.313c-0.907,3.506 -1.967,5.652 -3.18,6.439c-1.215,0.787 -3.954,1.453 -8.221,2h-0.313c-0.94,-0.105 -1.406,-0.26 -1.406,-0.467c0,-0.313 0.78,-0.68 2.34,-1.094c6.146,-2.813 9.22,-4.846 9.22,-6.092c0,-0.521 -0.727,-1.721 -2.187,-3.594c-0.313,-0.527 -0.467,-1.201 -0.467,-2.033v-1.561c0,-0.787 0.153,-1.199 0.467,-1.254c1.354,2.074 3.646,3.227 6.874,3.475c0.199,0 0.393,0 0.586,-0.014V49.416z" id="path_6"/><path fill="#FF0000" d="M39.925,30.569c0.16,-0.093 0.206,0.054 0.14,0.434c-0.887,2.08 -2.246,3.533 -4.08,4.354l-6.74,3.38c-0.286,-0.08 -0.34,-0.314 -0.16,-0.707c0.9,-1.733 1.514,-2.76 1.841,-3.086L39.925,30.569z" id="path_7"/><path fill="#163987" d="M24.478,34.283l0.153,0.467c-0.207,0.887 -1.146,1.926 -2.813,3.127c1.666,1.352 2.5,3.332 2.5,5.939v0.152c0,4.273 -1.768,6.408 -5.313,6.408c-2.807,-0.547 -4.214,-1.955 -4.214,-4.221v-0.154c0.1,-1.953 0.881,-4.039 2.34,-6.252c-1.354,-0.414 -2.026,-0.988 -2.026,-1.721c0,-1.954 0.153,-3.147 0.467,-3.593c1.407,0.394 2.967,1.173 4.687,2.347h0.153L24.478,34.283L24.478,34.283zM18.385,40.529c-1.254,1.254 -1.881,2.141 -1.881,2.66c0,1.613 1.147,2.553 3.441,2.813c1.199,-0.16 2.239,-0.572 3.126,-1.252C22.058,43.002 20.492,41.604 18.385,40.529z" id="path_8"/><path fill="#f06022" d="M21.685,14.208c1.193,0 1.899,0.794 2.106,2.381v0.433c-0.22,2.653 -1.106,4.387 -2.652,5.193c-2.694,1.693 -5.141,2.54 -7.327,2.54c-0.08,-0.013 -0.153,-0.033 -0.233,-0.06s-0.141,-0.067 -0.188,-0.12c-0.046,-0.047 -0.039,-0.08 0.014,-0.094c0.113,-0.26 2.08,-1.3 5.894,-3.106v-0.14c-1.026,-0.646 -1.54,-1.54 -1.54,-2.674C18.372,15.656 19.678,14.208 21.685,14.208L21.685,14.208zM19.165,17.156v0.133c0,0.967 0.66,1.534 1.975,1.7h0.406c0.5,0 0.779,-0.14 0.84,-0.427c0,-1.313 -0.7,-1.973 -2.107,-1.973C19.539,16.755 19.165,16.949 19.165,17.156z" id="path_9"/><path fill="#f06022" d="M18.598,11.669c0.301,-0.147 0.44,-0.047 0.427,0.293c-1.507,1.667 -2.693,3.247 -3.554,4.747c-0.246,0.586 -0.387,1.066 -0.42,1.453s0.067,0.8 0.307,1.24h0.294c0.113,-0.654 0.347,-0.98 0.7,-0.98c0.42,0.187 0.652,0.373 0.699,0.566v0.273c0.027,1.487 -0.393,2.38 -1.266,2.681h-0.701c-0.939,-0.188 -1.406,-1.268 -1.406,-3.247C13.678,16.289 15.319,13.949 18.598,11.669z" id="path_10"/><path fill="#163987" d="M20.102,27.105c1.693,0.52 3.153,1.354 4.373,2.5v0.153c0,0.653 -0.673,1.693 -2.026,3.126c-0.42,0 -1.827,-0.52 -4.22,-1.56v0.153c-0.834,1.613 -1.354,2.446 -1.566,2.5c-1.354,-0.286 -2.5,-0.913 -3.434,-1.873c0.627,-2.606 1.146,-3.906 1.561,-3.906c0.34,0 1.586,0.626 3.753,1.873C18.542,29.525 19.062,28.538 20.102,27.105z" id="path_11"/></svg>