<svg id="vector" xmlns="http://www.w3.org/2000/svg" width="75" height="67" viewBox="0 0 83 73"><path fill="#04D504" d="M54.109,44.293h0.78c4.859,-0.094 8.086,-0.773 9.687,-2.053l0.313,-0.621c-0.207,-0.5 -0.467,-0.746 -0.78,-0.746c-0.753,0.42 -1.587,0.627 -2.5,0.627h-0.16c-2.706,-0.313 -4.113,-1.406 -4.213,-3.279v-0.16c0.26,-3.541 1.093,-5.307 2.5,-5.307h0.78c2.406,-0.121 4.232,1.752 5.467,5.619l0.152,1.566v0.314c-0.033,3.826 -1.406,6.354 -4.119,7.572c-0.961,0.613 -3.601,0.92 -7.907,0.92V44.293z" id="path_0"/><path fill="#04D504" d="M60.983,24.586c1.693,0.521 3.152,1.354 4.373,2.5v0.154c0,0.652 -0.674,1.693 -2.027,3.127c-0.42,0 -1.826,-0.521 -4.22,-1.561v0.152c-0.833,1.615 -1.353,2.447 -1.566,2.502c-1.354,-0.287 -2.5,-0.914 -3.434,-1.875c0.627,-2.605 1.147,-3.906 1.56,-3.906c0.341,0 1.588,0.627 3.754,1.873C59.423,27.006 59.942,26.02 60.983,24.586z" id="path_1"/><path fill="#04D504" d="M60.87,12.301c1.6,0 2.399,0.986 2.399,2.953c0,3.133 -2.673,5.807 -8.026,8.006c-0.768,0.232 -0.86,-0.047 -0.273,-0.84c0.146,-0.301 1.406,-1.24 3.787,-2.813v-0.135c-1.027,-0.42 -1.541,-1.313 -1.541,-2.68c0.681,-2.994 1.76,-4.492 3.24,-4.492H60.87L60.87,12.301zM58.483,15.68c0,0.834 0.706,1.348 2.113,1.547h0.273c0.52,0 0.854,-0.193 0.993,-0.566c0,-0.848 -0.614,-1.508 -1.833,-1.975C59.497,14.686 58.983,15.02 58.483,15.68z" id="path_2"/><path fill="#000001" d="M43.51,31.387c0.646,0 1.793,0.779 3.433,2.34c0,0.52 -0.619,1.666 -1.873,3.439h-0.313c-0.654,0 -1.641,-0.625 -2.967,-1.879v-0.154C41.79,34.506 42.362,33.26 43.51,31.387z" id="path_3"/><path fill="#000001" d="M49.13,30.6c2.606,1.121 3.906,2.008 3.906,2.66c-0.153,0.494 -0.88,1.586 -2.187,3.281c-1.747,-0.682 -2.993,-1.461 -3.747,-2.348C47.649,32.453 48.323,31.254 49.13,30.6z" id="path_4"/><path fill="#000001" d="M40.749,44.293c1.113,0.014 1.801,-0.006 2.074,-0.061C45.169,43.52 46.77,42 47.63,39.686c0.126,-0.445 0.387,-0.5 0.779,-0.158c0.207,0.18 0.367,0.912 0.467,2.186c1.42,1.914 3.193,2.773 5.313,2.58h0.413v4.453h-0.1c-3.32,-0.152 -5.767,-1.666 -7.347,-4.533h-0.153c-1.107,2.334 -2.566,3.768 -4.373,4.301c-0.547,0.152 -1.174,0.232 -1.881,0.232V44.293z" id="path_5"/><path fill="#000001" d="M53.35,52.533c0.16,-0.086 0.206,0.053 0.14,0.434c-0.887,2.08 -2.246,3.533 -4.08,4.354l-6.74,3.379c-0.286,-0.08 -0.34,-0.313 -0.159,-0.699c0.899,-1.734 1.513,-2.76 1.84,-3.086L53.35,52.533z" id="path_6"/><path fill="#B10D5A" d="M40.749,48.746c-1.514,0.014 -3.206,-0.82 -4.199,-2.379h-0.153c-0.733,2.6 -1.827,4.426 -3.28,5.467c-2.06,1.979 -4.3,2.967 -6.72,2.967h-0.94c-2.76,0 -5.207,-1.561 -7.34,-4.688c-0.834,-1.434 -1.253,-3.1 -1.253,-5c0,-2.68 1.353,-5.387 4.066,-8.119c1.413,-0.9 1.833,-0.848 1.247,0.152c-2.394,3.334 -3.594,5.627 -3.594,6.873c0,3.234 2.394,5.367 7.187,6.406h1.253c2.68,0 5.334,-1.354 7.967,-4.059c0.273,-0.861 0.327,-1.801 0.153,-2.814c-0.52,-2.213 -1.3,-7.84 -2.34,-16.873l0.934,-3.127c0.146,-0.025 0.3,-0.025 0.474,0c0.286,0 0.807,3.961 1.56,11.873c0.521,4.168 1.092,6.814 1.874,7.814c0.587,0.75 1.973,1.094 3.105,1.053V48.746z" id="path_7"/><path fill="#CC1010" d="M32.036,22.279c0.16,-0.092 0.207,0.055 0.141,0.434c-0.887,2.08 -2.247,3.533 -4.08,4.354l-6.74,3.381c-0.287,-0.08 -0.34,-0.314 -0.16,-0.707c0.9,-1.734 1.514,-2.76 1.84,-3.088L32.036,22.279z" id="path_8"/></svg>