<svg id="vector" xmlns="http://www.w3.org/2000/svg" width="75" height="67" viewBox="0 0 83 73"><path fill="#04D504" d="M60.582,46.387h0.781c4.859,-0.094 8.086,-0.773 9.686,-2.053l0.314,-0.619c-0.207,-0.5 -0.467,-0.748 -0.779,-0.748c-0.754,0.42 -1.588,0.627 -2.5,0.627h-0.16c-2.707,-0.313 -4.113,-1.406 -4.215,-3.279v-0.16c0.262,-3.541 1.094,-5.307 2.5,-5.307h0.781c2.406,-0.121 4.232,1.752 5.467,5.619l0.152,1.566v0.314c-0.033,3.826 -1.406,6.354 -4.119,7.572c-0.961,0.613 -3.6,0.92 -7.908,0.92V46.387z" id="path_0"/><path fill="#04D504" d="M67.457,26.68c1.693,0.521 3.152,1.354 4.373,2.5v0.154c0,0.652 -0.674,1.693 -2.027,3.127c-0.42,0 -1.826,-0.52 -4.221,-1.561v0.154c-0.832,1.613 -1.352,2.445 -1.566,2.5c-1.354,-0.287 -2.5,-0.914 -3.434,-1.875c0.627,-2.605 1.148,-3.906 1.561,-3.906c0.34,0 1.588,0.627 3.754,1.873C65.896,29.1 66.416,28.113 67.457,26.68z" id="path_1"/><path fill="#04D504" d="M71.656,17.268c0.16,-0.094 0.207,0.053 0.141,0.434c-0.887,2.08 -2.248,3.533 -4.08,4.354l-6.74,3.379c-0.287,-0.08 -0.34,-0.313 -0.16,-0.707c0.9,-1.732 1.514,-2.76 1.84,-3.086L71.656,17.268z" id="path_2"/><path fill="#000001" d="M61.029,50.84c-0.246,0 -0.547,0 -0.9,0c-1.393,-0.012 -2.893,-1.059 -4.512,-3.146c-0.621,2.293 -1.715,3.441 -3.281,3.441h-0.152c-1.326,0 -2.42,-0.781 -3.281,-2.348h-0.158c-0.934,1.881 -2.068,2.734 -3.4,2.561c-2.475,0.014 -3.941,-1.154 -4.414,-3.494c-1.74,2.041 -3.613,3.041 -5.607,2.986H35.07v-4.453h0.08c3.152,-0.105 5.492,-1.18 7.033,-3.219c0.207,0 0.313,0.152 0.313,0.467l-0.16,1.092c0.834,1.668 1.928,2.5 3.281,2.5c1.279,0 2.58,-1.246 3.906,-3.746h0.16l0.467,0.467v1.094c0,0.986 0.732,1.559 2.186,1.719h0.314c1.354,0 2.605,-1.354 3.752,-4.066h0.154c0.207,0 0.313,0.475 0.313,1.406c0.574,1.58 1.961,2.342 4.16,2.287V50.84z" id="path_3"/><path fill="#000001" d="M54.137,28.635c0.16,-0.094 0.207,0.053 0.141,0.432c-0.887,2.08 -2.248,3.535 -4.08,4.354l-6.74,3.381c-0.287,-0.08 -0.34,-0.314 -0.16,-0.707c0.9,-1.732 1.514,-2.76 1.84,-3.086L54.137,28.635z" id="path_4"/><path fill="#163987" d="M35.23,50.84c-0.168,0 -0.348,0 -0.527,0h-0.152c-1.514,-0.012 -2.975,-0.279 -4.381,-0.799c-1.506,2.605 -3.486,3.906 -5.934,3.906c-2.92,-0.42 -4.379,-1.613 -4.379,-3.594h-0.154c-0.494,1.668 -1.586,3.02 -3.279,4.061c-2.268,0.834 -4.041,1.254 -5.314,1.254l-0.719,0.092v-0.313c0.58,-0.48 2.152,-1.594 4.713,-3.34c2.559,-1.74 4.014,-2.834 4.354,-3.281c0.346,-0.439 0.846,-1.912 1.5,-4.412c1.246,-2.08 2.393,-3.127 3.434,-3.127h0.313c1.301,0 3.387,1.406 6.254,4.221c0.832,0.705 2.252,1.02 4.273,0.939V50.84L35.23,50.84zM21.736,46.6c0,1.381 1.094,2.32 3.279,2.814h0.781c1.773,-0.18 2.66,-0.439 2.66,-0.781c-2.061,-1.979 -3.621,-2.965 -4.693,-2.965h-0.154C22.723,45.668 22.096,45.98 21.736,46.6z" id="path_5"/><path fill="#04D504" d="M25.023,26.08c1.193,0 1.9,0.793 2.105,2.381v0.434c-0.219,2.652 -1.105,4.387 -2.652,5.193c-2.693,1.693 -5.141,2.539 -7.326,2.539c-0.08,-0.014 -0.154,-0.033 -0.234,-0.061c-0.08,-0.025 -0.139,-0.066 -0.186,-0.119c-0.047,-0.047 -0.041,-0.08 0.012,-0.094c0.115,-0.26 2.082,-1.299 5.895,-3.107v-0.139c-1.027,-0.646 -1.541,-1.541 -1.541,-2.674C21.711,27.527 23.016,26.08 25.023,26.08L25.023,26.08zM22.504,29.027v0.133c0,0.967 0.66,1.533 1.973,1.701h0.406c0.5,0 0.781,-0.141 0.84,-0.428c0,-1.313 -0.699,-1.973 -2.105,-1.973C22.877,28.627 22.504,28.82 22.504,29.027z" id="path_6"/><path fill="#04D504" d="M21.938,23.541c0.299,-0.146 0.439,-0.047 0.426,0.293c-1.506,1.666 -2.693,3.246 -3.553,4.746c-0.248,0.588 -0.387,1.066 -0.42,1.453s0.066,0.801 0.307,1.24h0.293c0.113,-0.652 0.346,-0.98 0.699,-0.98c0.42,0.188 0.654,0.375 0.701,0.568v0.271c0.025,1.488 -0.395,2.381 -1.268,2.682h-0.699c-0.941,-0.188 -1.406,-1.268 -1.406,-3.248C17.018,28.16 18.656,25.82 21.938,23.541z" id="path_7"/></svg>