<svg id="vector" xmlns="http://www.w3.org/2000/svg" width="75" height="67" viewBox="0 0 83 73"><path fill="#04D504" d="M49.137,46.768h0.807h0.307h0.786c2.834,-0.207 4.554,-0.861 5.153,-1.955c0,-0.859 -0.986,-3.199 -2.967,-7.033l-0.313,-1.246c-0.341,-1.641 -0.327,-3.146 0.04,-4.514c0.359,-1.367 1.08,-2.313 2.146,-2.832c2.473,-1.668 7.213,-4.428 14.22,-8.281l0.153,0.16v0.307c-1.507,2.373 -2.653,4.561 -3.434,6.566h-0.313l-0.159,-0.779v-0.787l0.159,-0.152v-0.154h-0.159c-5.807,3.354 -9.714,5.807 -11.721,7.34v0.16c2.193,4.428 3.387,7.807 3.601,10.154c0,1.666 -0.573,3.439 -1.72,5.313c-1.094,1.461 -3.28,2.188 -6.567,2.188h-0.02V46.768z" id="path_0"/><path fill="#04D504" d="M57.483,15.594c1.6,0 2.399,0.986 2.399,2.953c0,3.133 -2.673,5.807 -8.026,8.006c-0.767,0.234 -0.86,-0.047 -0.273,-0.84c0.146,-0.299 1.407,-1.24 3.787,-2.813v-0.133c-1.027,-0.422 -1.54,-1.314 -1.54,-2.682c0.68,-2.992 1.76,-4.492 3.24,-4.492H57.483L57.483,15.594zM55.097,18.973c0,0.834 0.707,1.348 2.113,1.547h0.273c0.52,0 0.854,-0.193 0.993,-0.566c0,-0.846 -0.613,-1.506 -1.833,-1.973C56.11,17.98 55.597,18.313 55.097,18.973z" id="path_1"/><path fill="#000001" d="M33.517,46.768c1.733,0.146 3.207,-0.027 4.434,-0.508l-0.646,-1.174c-0.606,-3.439 -0.334,-5.713 0.819,-6.826c1.16,-1.113 2.407,-1.627 3.733,-1.533c2.58,0.119 4.034,1.473 4.374,4.061v0.939c0,2.16 -0.313,3.514 -0.934,4.061c-0.394,0.406 0.493,0.746 2.653,1.02l0.507,-0.02c0.394,-0.014 0.84,-0.02 1.347,-0.02v4.453l-1.58,0.02c-2.94,-0.014 -5.167,-0.387 -6.68,-1.113c-2.08,0.727 -3.7,1.094 -4.841,1.094h-0.627c-0.779,0 -1.633,0 -2.56,0V46.768L33.517,46.768zM39.043,42.354v0.313c0.653,1.121 1.641,1.9 2.967,2.34c0.887,-0.152 1.773,-0.52 2.66,-1.092c-0.394,-1.461 -1.693,-2.295 -3.906,-2.5C39.617,41.727 39.043,42.041 39.043,42.354z" id="path_2"/><path fill="#000001" d="M39.983,29.074c1.354,0 2.6,0.832 3.747,2.5c-0.96,2.186 -1.693,3.279 -2.187,3.279c-2.107,-1.041 -3.254,-1.721 -3.44,-2.033C38.104,31.834 38.73,30.58 39.983,29.074z" id="path_3"/><path fill="#000001" d="M41.37,15.24c1.6,0 2.399,0.986 2.399,2.953c0,3.133 -2.673,5.807 -8.026,8.006c-0.767,0.234 -0.86,-0.047 -0.273,-0.84c0.146,-0.299 1.407,-1.24 3.787,-2.813v-0.133c-1.027,-0.42 -1.54,-1.314 -1.54,-2.682c0.68,-2.992 1.76,-4.492 3.24,-4.492H41.37L41.37,15.24zM38.983,18.621c0,0.832 0.706,1.346 2.113,1.545h0.273c0.52,0 0.854,-0.193 0.993,-0.566c0,-0.846 -0.613,-1.506 -1.833,-1.973C39.997,17.627 39.483,17.961 38.983,18.621z" id="path_4"/><path fill="#04D504" d="M34.003,51.221l-1.76,-0.021c-0.974,4.287 -3.553,6.453 -7.733,6.508c-2.24,0.1 -3.359,0.061 -3.359,-0.121c0.206,-0.393 1.706,-1.146 4.493,-2.266c2.866,-1.82 4.593,-2.994 5.193,-3.514l0.16,-0.467l-2.733,-0.434c-1.994,-0.52 -3.113,-1.52 -3.36,-3.006v-0.314c0,-2.525 0.62,-4.139 1.873,-4.846l0.94,-0.154c1.847,0 3.354,1.287 4.526,3.867c0.747,0.26 1.334,0.387 1.76,0.373V51.221z" id="path_5"/><path fill="#f06022" d="M32.477,30.359l0.16,0.141v0.428c-0.813,1.732 -1.94,2.945 -3.38,3.652c-4.479,2.434 -6.967,3.654 -7.46,3.654c-0.187,0 -0.28,-0.148 -0.28,-0.434c0.434,-1.654 1.373,-2.773 2.813,-3.361l8.014,-4.08H32.477z" id="path_6"/><path fill="#f06022" d="M31.363,26.848c0.18,0 0.273,0.133 0.273,0.406c-0.52,1.514 -2.06,2.873 -4.627,4.086l-5.92,3.24l-0.133,-0.141v-0.152c0.56,-1.98 1.446,-3.201 2.673,-3.654l6.601,-3.379L31.363,26.848z" id="path_7"/><path fill="#000001" d="M14.937,24.967c0.313,0 0.627,1.047 0.94,3.127l1.406,3.127l-0.627,3.592l0.467,8.754v1.4c-0.206,3.574 -0.727,5.652 -1.56,6.254l-0.153,-0.154l0.153,-2.346c0,-2.107 -0.68,-8.828 -2.033,-20.154C14.184,26.166 14.65,24.967 14.937,24.967z" id="path_8"/></svg>