<svg id="vector" xmlns="http://www.w3.org/2000/svg" width="75" height="67" viewBox="0 0 83 73"><path fill="#04D504" d="M63.166,38.404h0.627c1.828,0 3.18,1.559 4.066,4.686l0.154,1.561c0.053,0.506 0.053,1.025 0,1.566c-0.467,1.9 -1.514,3.773 -3.127,5.621c-1.119,0.939 -3.666,1.666 -7.654,2.186c-0.465,-0.207 -0.732,-0.412 -0.779,-0.619c6.666,-3.621 10,-5.807 10,-6.566l0.154,-0.469l-0.154,-0.152l-1.406,0.467h-0.779c-2.814,0 -4.221,-0.994 -4.221,-2.967v-0.313c0.359,-3.234 1.146,-4.848 2.34,-4.848L63.166,38.404z" id="path_0"/><path fill="#04D504" d="M67.307,25.744c0.16,-0.094 0.207,0.053 0.141,0.434c-0.887,2.08 -2.248,3.533 -4.08,4.352l-6.74,3.381c-0.287,-0.08 -0.34,-0.313 -0.16,-0.707c0.9,-1.732 1.514,-2.76 1.84,-3.086L67.307,25.744z" id="path_1"/><path fill="#000001" d="M42.527,47.17c2.186,1.094 3.279,2.033 3.279,2.814c-1.041,2.059 -1.666,3.1 -1.873,3.127h-0.314c-1.6,-0.809 -2.592,-1.541 -2.967,-2.188C41.014,49.736 41.641,48.484 42.527,47.17z" id="path_2"/><path fill="#000001" d="M34.006,43.031h1.801c1.9,-0.262 4.92,-0.969 9.061,-2.107v-0.16c-3.773,-1.666 -6.168,-2.5 -7.188,-2.5c-1.379,0 -2.313,0.779 -2.813,2.346L34.4,40.924c-0.207,0 -0.314,-0.16 -0.314,-0.473c0.521,-3.121 1.928,-4.688 4.221,-4.688h0.779c0.967,0 4.248,1.094 9.848,3.279l4.221,0.314l0.305,0.473c-0.072,0.699 -0.699,2.053 -1.873,4.061h-0.467l-0.625,-0.16h-0.781c-8.127,2.4 -12.867,3.646 -14.219,3.754h-1.488V43.031z" id="path_3"/><path fill="#000001" d="M48.773,22.656c0.16,-0.092 0.207,0.055 0.141,0.434c-0.887,2.08 -2.248,3.533 -4.08,4.354l-6.74,3.381c-0.287,-0.08 -0.34,-0.314 -0.16,-0.707c0.9,-1.734 1.514,-2.76 1.84,-3.088L48.773,22.656z" id="path_4"/><path fill="#04D504" d="M34.746,47.504c-2.68,-0.18 -5.113,-1.646 -7.299,-4.395h-0.16c-0.934,5.414 -3.02,8.121 -6.248,8.127h-0.473c-1.4,-0.006 -2.76,-1.252 -4.061,-3.752c-1.039,-3.514 -1.559,-6.174 -1.559,-7.967v-1.254c0,-0.779 0.152,-1.199 0.467,-1.246c0.439,0.232 0.967,1.939 1.572,5.127c0.607,3.18 1.854,4.699 3.74,4.559c3.646,-0.6 5.574,-2.686 5.779,-6.252l-1.406,-4.84v-1.721c0.055,-2.088 0.26,-3.127 0.627,-3.127c0.207,0.467 0.367,0.939 0.467,1.406l2.188,6.873c1.719,2.787 3.846,4.107 6.365,3.947V47.504z" id="path_5"/><path fill="#04D504" d="M30.1,19.004c0.16,-0.094 0.207,0.053 0.141,0.434c-0.887,2.08 -2.246,3.533 -4.08,4.354l-6.74,3.379c-0.287,-0.08 -0.34,-0.313 -0.16,-0.707c0.9,-1.732 1.514,-2.76 1.84,-3.086L30.1,19.004z" id="path_6"/></svg>