<svg id="vector" xmlns="http://www.w3.org/2000/svg" width="75" height="67" viewBox="0 0 83 73"><path fill="#04D504" d="M66.455,27.162c1.54,0.494 2.739,1.121 3.593,1.875v0.313c0,0.52 -0.566,1.666 -1.713,3.439c-1.066,0 -2.267,-0.572 -3.594,-1.719v-0.314C64.741,29.637 65.315,28.436 66.455,27.162z" id="path_0"/><path fill="#04D504" d="M62.001,45.17c4.094,0.039 6.381,-0.727 6.881,-2.307c0,-0.547 -0.521,-1.9 -1.566,-4.061l0.473,-4.059h0.307c1.36,2.34 2.033,4.686 2.033,7.025v1.406c0,0.941 -0.227,1.928 -0.673,2.961s-1.14,1.906 -2.067,2.607c-0.933,0.705 -2.727,0.998 -5.387,0.879V45.17z" id="path_1"/><path fill="#04D504" d="M72.782,17.689c0.16,-0.094 0.206,0.053 0.14,0.434c-0.887,2.08 -2.247,3.533 -4.08,4.354l-6.74,3.379c-0.286,-0.08 -0.34,-0.313 -0.16,-0.705c0.9,-1.734 1.514,-2.76 1.841,-3.088L72.782,17.689z" id="path_2"/><path fill="#009649" d="M40.222,43.709c1.279,0 2.213,0 2.813,0h0.627c1.873,-0.246 4.674,-1.047 8.4,-2.398c-1.254,-1.047 -3.18,-1.828 -5.779,-2.348c-1.541,0 -2.58,0.727 -3.127,2.188c-0.193,0.432 -0.367,0.547 -0.521,0.34c-0.146,-0.201 -0.187,-0.467 -0.106,-0.807c0.939,-3.154 2.187,-4.727 3.754,-4.727h1.093c1.04,0 2.92,0.586 5.634,1.76c2.713,1.166 5.053,1.639 7.02,1.406c0.246,0 0.354,0.152 0.313,0.467c-0.42,2.6 -1.199,3.906 -2.346,3.906l-0.78,0.154v0.313c0.394,0.82 2.193,1.213 5.413,1.174v4.434c-4.66,0.246 -6.986,-1.566 -6.973,-5.447c-1.667,0.246 -3.928,1.02 -6.78,2.334c-2.854,1.307 -5.733,1.865 -8.653,1.686V43.709z" id="path_3"/><path fill="#009649" d="M48.015,27.596c2.187,1.094 3.287,2.033 3.287,2.814c-1.047,2.053 -1.667,3.1 -1.881,3.127h-0.313c-1.6,-0.807 -2.587,-1.541 -2.967,-2.188C46.509,30.162 47.135,28.91 48.015,27.596z" id="path_4"/><path fill="#009649" d="M54.521,50.303c0.16,-0.086 0.206,0.055 0.14,0.434c-0.887,2.08 -2.246,3.533 -4.08,4.354l-6.74,3.381c-0.286,-0.08 -0.34,-0.314 -0.159,-0.701c0.899,-1.732 1.513,-2.76 1.84,-3.086L54.521,50.303z" id="path_5"/><path fill="#009649" d="M40.122,48.176c-0.141,0.014 -0.287,0.021 -0.427,0.021h-0.787c-1.22,0 -2.054,-0.102 -2.5,-0.314c-0.907,3.508 -1.967,5.654 -3.18,6.439c-1.214,0.787 -3.954,1.453 -8.22,2h-0.314c-0.939,-0.105 -1.406,-0.26 -1.406,-0.465c0,-0.314 0.78,-0.682 2.34,-1.094c6.146,-2.814 9.221,-4.848 9.221,-6.094c0,-0.52 -0.727,-1.721 -2.188,-3.594c-0.313,-0.527 -0.467,-1.199 -0.467,-2.033v-1.561c0,-0.785 0.154,-1.199 0.467,-1.252c1.354,2.072 3.646,3.227 6.873,3.473c0.201,0 0.395,0 0.588,-0.014V48.176z" id="path_6"/><path fill="#009649" d="M36.821,29.33c0.16,-0.094 0.207,0.053 0.141,0.434c-0.887,2.08 -2.247,3.533 -4.08,4.352l-6.74,3.381c-0.287,-0.08 -0.34,-0.313 -0.16,-0.707c0.9,-1.732 1.514,-2.76 1.84,-3.086L36.821,29.33z" id="path_7"/><path fill="#000001" d="M21.375,35.443l0.153,0.467c-0.207,0.887 -1.146,1.926 -2.813,3.127c1.667,1.354 2.5,3.332 2.5,5.939v0.154c0,4.271 -1.767,6.406 -5.313,6.406c-2.807,-0.547 -4.213,-1.953 -4.213,-4.221v-0.152c0.1,-1.955 0.88,-4.041 2.34,-6.254c-1.354,-0.414 -2.027,-0.986 -2.027,-1.721c0,-1.953 0.154,-3.146 0.467,-3.594c1.407,0.395 2.967,1.174 4.688,2.348h0.152L21.375,35.443L21.375,35.443zM15.282,41.689c-1.254,1.254 -1.881,2.141 -1.881,2.66c0,1.613 1.146,2.553 3.44,2.814c1.2,-0.16 2.239,-0.574 3.126,-1.254C18.954,44.164 17.388,42.764 15.282,41.689z" id="path_8"/><path fill="#f06022" d="M21.568,18.043l0.16,0.141v0.426c-0.813,1.734 -1.94,2.947 -3.38,3.654c-4.48,2.432 -6.967,3.652 -7.461,3.652c-0.186,0 -0.279,-0.146 -0.279,-0.434c0.434,-1.652 1.373,-2.773 2.813,-3.359l8.014,-4.08H21.568z" id="path_9"/><path fill="#f06022" d="M20.455,14.529c0.18,0 0.272,0.133 0.272,0.406c-0.52,1.514 -2.059,2.875 -4.626,4.088l-5.92,3.24l-0.134,-0.141v-0.154c0.561,-1.979 1.447,-3.199 2.674,-3.652l6.6,-3.381L20.455,14.529z" id="path_10"/><path fill="#04D504" d="M13.495,27.596c2.188,1.094 3.287,2.033 3.287,2.814c-1.047,2.053 -1.666,3.1 -1.88,3.127h-0.313c-1.6,-0.807 -2.586,-1.541 -2.967,-2.188C11.989,30.162 12.616,28.91 13.495,27.596z" id="path_11"/><path fill="#04D504" d="M18.308,27.596c2.186,1.094 3.286,2.033 3.286,2.814c-1.046,2.053 -1.667,3.1 -1.88,3.127H19.4c-1.6,-0.807 -2.587,-1.541 -2.966,-2.188C16.8,30.162 17.427,28.91 18.308,27.596z" id="path_12"/></svg>