<svg id="vector" xmlns="http://www.w3.org/2000/svg" width="75" height="67" viewBox="0 0 83 73"><path fill="#04D504" d="M57.173,44.102h0.807h0.307h0.787c2.833,-0.207 4.553,-0.861 5.153,-1.953c0,-0.861 -0.987,-3.201 -2.967,-7.035l-0.313,-1.246c-0.34,-1.641 -0.326,-3.146 0.04,-4.514c0.36,-1.367 1.08,-2.313 2.146,-2.832c2.474,-1.668 7.214,-4.428 14.221,-8.281l0.153,0.16v0.307c-1.507,2.373 -2.653,4.561 -3.434,6.566H73.76l-0.16,-0.779v-0.787l0.16,-0.152V23.4H73.6c-5.807,3.354 -9.713,5.807 -11.72,7.34v0.16c2.193,4.428 3.387,7.807 3.6,10.154c0,1.666 -0.573,3.439 -1.72,5.313c-1.093,1.461 -3.28,2.188 -6.566,2.188h-0.021V44.102z" id="path_0"/><path fill="#04D504" d="M69.833,15.801c0.16,-0.094 0.207,0.053 0.14,0.434c-0.886,2.08 -2.246,3.533 -4.079,4.354l-6.74,3.379c-0.287,-0.08 -0.34,-0.313 -0.16,-0.707c0.9,-1.732 1.514,-2.76 1.84,-3.086L69.833,15.801z" id="path_1"/><path fill="#163987" d="M57.8,48.555c-0.247,0 -0.547,0 -0.9,0c-1.393,-0.014 -2.893,-1.061 -4.513,-3.146c-0.62,2.293 -1.714,3.439 -3.28,3.439h-0.153c-1.326,0 -2.42,-0.781 -3.28,-2.348h-0.159c-0.934,1.881 -2.067,2.734 -3.4,2.561c-2.474,0.014 -3.94,-1.152 -4.413,-3.492c-1.74,2.039 -3.613,3.039 -5.607,2.986H31.84v-4.453h0.08c3.153,-0.107 5.493,-1.182 7.033,-3.221c0.207,0 0.313,0.152 0.313,0.467l-0.16,1.094c0.833,1.666 1.927,2.5 3.28,2.5c1.28,0 2.58,-1.248 3.906,-3.748h0.16l0.467,0.467v1.094c0,0.986 0.733,1.561 2.187,1.721h0.313c1.354,0 2.606,-1.354 3.753,-4.066h0.154c0.206,0 0.313,0.473 0.313,1.406c0.573,1.58 1.96,2.34 4.16,2.287V48.555z" id="path_2"/><path fill="#163987" d="M50.906,26.348c0.16,-0.094 0.207,0.053 0.141,0.434c-0.887,2.08 -2.247,3.533 -4.08,4.354l-6.74,3.379c-0.287,-0.08 -0.34,-0.313 -0.16,-0.707c0.9,-1.732 1.514,-2.76 1.84,-3.086L50.906,26.348z" id="path_3"/><path fill="#04D504" d="M17.313,51.602c0.533,0 1.779,0.625 3.746,1.873c0,0.779 -0.626,2.033 -1.873,3.754c-2.5,-0.809 -3.753,-1.541 -3.753,-2.188C15.5,54.453 16.127,53.307 17.313,51.602z" id="path_4"/><path fill="#04D504" d="M32.626,48.574c-1.993,-0.16 -3.8,-1.561 -5.413,-4.199c-2.393,2.912 -5.833,4.373 -10.313,4.373h-1.246c-4.847,0 -8.18,-2.08 -10,-6.248l-0.16,-0.939v-1.406c0,-1.506 0.68,-3.227 2.033,-5.154H7.68l0.313,0.314v0.779l-0.78,2.5c0,2.734 2.294,4.607 6.874,5.627l2.813,0.154c4.874,0 8.728,-1.668 11.567,-5c0.153,0 0.307,0.205 0.467,0.625l-0.16,1.094c0.533,1.967 1.819,2.953 3.853,2.967V48.574z" id="path_5"/><path fill="#04D504" d="M22.993,26.701c0.16,-0.094 0.207,0.053 0.14,0.434c-0.887,2.08 -2.246,3.533 -4.079,4.352l-6.74,3.381c-0.287,-0.08 -0.34,-0.313 -0.16,-0.707c0.9,-1.732 1.514,-2.76 1.84,-3.086L22.993,26.701z" id="path_6"/></svg>