<svg id="vector" xmlns="http://www.w3.org/2000/svg" width="75" height="67" viewBox="0 0 83 73"><path fill="#000001" d="M58.41,42.764c0.18,0.012 0.373,0.02 0.587,0.02h1.479c1.566,-0.26 2.76,-0.807 3.593,-1.641l-1.873,-14.846c0.467,-2.814 0.887,-4.213 1.247,-4.213l2.033,4.686c0,0.727 -0.26,1.82 -0.78,3.279l0.78,8.434v2.348c-0.587,2.486 -1.374,4.227 -2.36,5.213c-0.746,0.793 -1.619,1.193 -2.64,1.193h-1.327c-0.26,0 -0.506,-0.006 -0.739,-0.02V42.764z" id="path_0"/><path fill="#000001" d="M64.343,10.529c1.6,0 2.4,0.986 2.4,2.953c0,3.135 -2.674,5.807 -8.027,8.008c-0.766,0.232 -0.859,-0.047 -0.272,-0.84c0.146,-0.301 1.406,-1.24 3.786,-2.814v-0.133c-1.026,-0.42 -1.539,-1.313 -1.539,-2.68c0.68,-2.994 1.76,-4.494 3.239,-4.494H64.343L64.343,10.529zM61.956,13.91c0,0.832 0.707,1.346 2.113,1.547h0.273c0.521,0 0.854,-0.193 0.994,-0.566c0,-0.848 -0.613,-1.508 -1.834,-1.975C62.97,12.916 62.456,13.25 61.956,13.91z" id="path_1"/><path fill="#04D504" d="M44.749,42.783h0.354c1.067,0 2.193,-0.414 3.381,-1.24c1.186,-0.826 1.88,-1.867 2.093,-3.113l0.153,-0.16h0.153c0.187,0 0.446,0.574 0.787,1.721c1.479,2.033 3.566,2.967 6.246,2.813c0.181,0 0.367,-0.006 0.547,-0.02v4.473c-0.18,0.014 -0.366,0.02 -0.547,0.02l-2.187,-0.252c-0.233,2.08 -0.913,3.119 -2.033,3.127h-0.313c-2.079,-0.395 -3.12,-1.121 -3.12,-2.193l0.467,-2.814c-0.366,-0.412 -0.727,-0.619 -1.094,-0.619c-1.173,1.834 -2.799,2.74 -4.887,2.713V42.783z" id="path_2"/><path fill="#04D504" d="M57.13,23.27c0.16,-0.094 0.207,0.053 0.14,0.434c-0.887,2.08 -2.247,3.533 -4.08,4.354l-6.739,3.379c-0.287,-0.08 -0.341,-0.313 -0.16,-0.705c0.899,-1.734 1.514,-2.76 1.84,-3.088L57.13,23.27z" id="path_3"/><path fill="#000001" d="M35.75,30.789c2.187,1.094 3.28,2.027 3.28,2.814c-1.041,2.053 -1.667,3.094 -1.873,3.119h-0.314c-1.606,-0.807 -2.593,-1.533 -2.973,-2.186C34.236,33.35 34.863,32.104 35.75,30.789z" id="path_4"/><path fill="#000001" d="M45.477,47.25c-0.146,0.014 -0.286,0.02 -0.434,0.02h-0.78c-1.227,0 -2.06,-0.1 -2.5,-0.313c-0.912,3.506 -1.973,5.652 -3.186,6.439c-1.207,0.787 -3.947,1.453 -8.221,2h-0.313c-0.933,-0.107 -1.406,-0.26 -1.406,-0.467c0,-0.313 0.78,-0.68 2.347,-1.094c6.146,-2.813 9.22,-4.846 9.22,-6.094c0,-0.52 -0.733,-1.719 -2.187,-3.592c-0.313,-0.527 -0.473,-1.201 -0.473,-2.033v-1.561c0,-0.787 0.159,-1.201 0.473,-1.254c1.354,2.074 3.641,3.227 6.873,3.473c0.193,0 0.387,0 0.587,-0.012V47.25z" id="path_5"/><path fill="#000001" d="M41.31,22.662c0.16,-0.092 0.207,0.055 0.141,0.434c-0.887,2.08 -2.247,3.533 -4.08,4.354l-6.74,3.381c-0.287,-0.08 -0.34,-0.314 -0.16,-0.707c0.9,-1.732 1.514,-2.76 1.84,-3.086L41.31,22.662z" id="path_6"/><path fill="#163987" d="M26.45,32.117l0.152,0.467c-0.206,0.887 -1.146,1.926 -2.813,3.125c1.666,1.354 2.5,3.334 2.5,5.941v0.152c0,4.273 -1.767,6.406 -5.313,6.406c-2.807,-0.547 -4.214,-1.953 -4.214,-4.219v-0.154c0.101,-1.953 0.881,-4.039 2.34,-6.252c-1.353,-0.414 -2.026,-0.988 -2.026,-1.721c0,-1.953 0.153,-3.146 0.467,-3.594c1.407,0.395 2.967,1.174 4.687,2.348h0.153L26.45,32.117L26.45,32.117zM20.356,38.363c-1.254,1.254 -1.88,2.141 -1.88,2.66c0,1.613 1.146,2.553 3.44,2.813c1.199,-0.16 2.239,-0.572 3.126,-1.254C24.03,40.836 22.463,39.438 20.356,38.363z" id="path_7"/><path fill="#163987" d="M18.623,23.27c2.187,1.094 3.28,2.027 3.28,2.813c-1.04,2.055 -1.666,3.094 -1.873,3.121h-0.313c-1.606,-0.807 -2.593,-1.533 -2.974,-2.188C17.11,25.83 17.736,24.582 18.623,23.27z" id="path_8"/><path fill="#163987" d="M23.343,23.27c2.187,1.094 3.28,2.027 3.28,2.813c-1.04,2.055 -1.667,3.094 -1.873,3.121h-0.313c-1.607,-0.807 -2.594,-1.533 -2.974,-2.188C21.829,25.83 22.456,24.582 23.343,23.27z" id="path_9"/><path fill="#04D504" d="M26.663,50.869c0.187,0 0.273,0.135 0.273,0.408c-0.52,1.512 -2.061,2.873 -4.627,4.086l-5.92,3.24l-0.133,-0.141v-0.152c0.56,-1.98 1.453,-3.201 2.673,-3.654l6.606,-3.379L26.663,50.869z" id="path_10"/><path fill="#04D504" d="M26.663,54.736c0.187,0 0.273,0.133 0.273,0.406c-0.52,1.514 -2.061,2.873 -4.627,4.088l-5.92,3.24l-0.133,-0.141v-0.154c0.56,-1.979 1.453,-3.199 2.673,-3.652l6.606,-3.381L26.663,54.736z" id="path_11"/></svg>