<svg id="vector" xmlns="http://www.w3.org/2000/svg" width="83" height="73" viewBox="0 0 83 73"><path fill="#000001" d="M56.9,44.3c1.5,-0.2 2.3,-0.5 2.3,-0.9c0,-3.1 0.9,-6.8 2.8,-11.2c0.3,-0.6 0.5,-0.6 0.8,-0.2c0.7,1.5 1.9,2.7 3.6,3.6c3.5,1.7 5.3,4.1 5.3,7c0,3.1 -0.7,4.9 -2,5.3l-1.6,0.2l-5.9,-0.3c-1.7,0.7 -3.4,1 -5.3,1L56.9,44.3L56.9,44.3zM65.8,43.6l3.9,0.2l0.6,-0.2c-1,-1.3 -2.2,-2.4 -3.7,-3.1C66.2,40.4 66,41.5 65.8,43.6L65.8,43.6zM60.6,41.5c0,1 0.8,1.6 2.3,1.9c1.4,-0.8 2,-1.5 2,-2.3c-0.5,-1.9 -1.2,-2.8 -2.3,-2.8C61.5,38.3 60.8,39.3 60.6,41.5z" id="path_0"/><path fill="#163987" d="M57.6,48.8c-2.7,-0.2 -5.1,-1.6 -7.3,-4.4h-0.2c-0.9,5.4 -3,8.1 -6.2,8.1h-0.5c-1.4,0 -2.8,-1.3 -4.1,-3.8c-1,-3.5 -1.6,-6.2 -1.6,-8v-1.3c0,-0.8 0.2,-1.2 0.5,-1.2c0.4,0.2 1,1.9 1.6,5.1c0.6,3.2 1.9,4.7 3.7,4.6c3.6,-0.6 5.6,-2.7 5.8,-6.3L48,36.9v-1.7c0.1,-2.1 0.3,-3.1 0.6,-3.1c0.2,0.5 0.4,0.9 0.5,1.4l2.2,6.9c1.7,2.8 3.8,4.1 6.4,3.9L57.6,48.8L57.6,48.8z" id="path_1"/><path fill="#07E8B4" d="M52.8,20.6l0.2,0.1v0.4c-0.8,1.7 -1.9,2.9 -3.4,3.7c-4.5,2.4 -7,3.7 -7.5,3.7c-0.2,0 -0.3,-0.1 -0.3,-0.4c0.4,-1.7 1.4,-2.8 2.8,-3.4l8,-4.1C52.6,20.6 52.8,20.6 52.8,20.6z" id="path_2"/><path fill="#07E8B4" d="M51.6,17.1c0.2,0 0.3,0.1 0.3,0.4c-0.5,1.5 -2.1,2.9 -4.6,4.1l-5.9,3.2l-0.1,-0.1v-0.2c0.6,-2 1.4,-3.2 2.7,-3.7l6.6,-3.4L51.6,17.1z" id="path_3"/><path fill="#000000" d="M32.7,31.4c1,-0.1 1.5,0.2 1.6,0.8v0.9c-0.3,2.5 -0.5,3.8 -0.8,3.8h-0.2c-0.2,-0.7 -0.8,-1.1 -1.9,-1.1c-2.2,0 -4.5,1.6 -6.9,4.8v0.3c0,0.5 1.8,1 5.3,1.4c0.9,0.9 1.4,1.9 1.4,3c0,2.9 -2.6,6.1 -7.8,9.5c-1.4,0.7 -2.7,1.1 -4.1,1.1c-3.6,0 -6.1,-2.2 -7.7,-6.6c-0.5,-1.5 -0.5,-3.7 -0.1,-6.4c0.4,-2.7 1.6,-4.4 3.6,-5.1l0.3,0c0.4,0.2 0.1,0.8 -0.8,1.8c-1,1 -1.6,2.3 -1.8,3.8v1.2c0,2.5 1.4,4.5 4.1,6.1c0.9,0.4 1.9,0.6 3,0.6h0.6c3,0 6,-1.5 9.1,-4.4l-4.8,-1.1c-0.8,-0.6 -1.3,-1.3 -1.3,-2.2V42c0,-2.9 1.4,-5.5 4.1,-7.8C28.5,33.2 30.2,32.2 32.7,31.4z" id="path_4"/><path fill="#000001" d="M64.7,17.6c1.6,0 2.4,1 2.4,3c0,3.1 -2.7,5.8 -8,8c-0.8,0.2 -0.9,0 -0.3,-0.8c0.1,-0.3 1.4,-1.2 3.8,-2.8v-0.1c-1,-0.4 -1.5,-1.3 -1.5,-2.7c0.7,-3 1.8,-4.5 3.2,-4.5H64.7L64.7,17.6zM62.3,21c0,0.8 0.7,1.3 2.1,1.5h0.3c0.5,0 0.9,-0.2 1,-0.6c0,-0.8 -0.6,-1.5 -1.8,-2C63.3,20 62.8,20.3 62.3,21z" id="path_5"/></svg>