<svg id="vector" xmlns="http://www.w3.org/2000/svg" width="75" height="67" viewBox="0 0 83 73"><path fill="#000001" d="M55.063,40.127c1.54,-0.193 2.307,-0.494 2.307,-0.9c0,-3.1 0.94,-6.846 2.813,-11.246c0.26,-0.574 0.52,-0.627 0.779,-0.16c0.681,1.459 1.874,2.66 3.594,3.594c3.547,1.719 5.313,4.066 5.313,7.033c0,3.1 -0.673,4.873 -2.033,5.313l-1.56,0.154l-5.94,-0.314c-1.653,0.707 -3.406,1.033 -5.273,0.98V40.127L55.063,40.127zM63.937,39.387l3.9,0.152l0.627,-0.152c-0.961,-1.334 -2.214,-2.373 -3.747,-3.127C64.43,36.26 64.17,37.301 63.937,39.387L63.937,39.387zM58.776,37.354c0,0.986 0.78,1.613 2.347,1.873c1.354,-0.754 2.027,-1.533 2.027,-2.34c-0.467,-1.881 -1.247,-2.813 -2.341,-2.813C59.69,34.074 59.01,35.166 58.776,37.354z" id="path_0"/><path fill="#000001" d="M62.703,13.4c1.601,0 2.4,0.986 2.4,2.953c0,3.133 -2.674,5.807 -8.026,8.006c-0.768,0.234 -0.86,-0.047 -0.273,-0.84c0.146,-0.299 1.406,-1.24 3.786,-2.813v-0.133c-1.026,-0.42 -1.54,-1.314 -1.54,-2.682C59.73,14.9 60.81,13.4 62.29,13.4H62.703L62.703,13.4zM60.316,16.781c0,0.832 0.707,1.346 2.113,1.545h0.273c0.521,0 0.854,-0.193 0.994,-0.566c0,-0.846 -0.614,-1.506 -1.834,-1.973C61.33,15.787 60.816,16.121 60.316,16.781z" id="path_1"/><path fill="#07E8B4" d="M41.623,40.127h0.354c1.066,0 2.193,-0.414 3.38,-1.24s1.88,-1.867 2.094,-3.113l0.153,-0.16h0.153c0.187,0 0.446,0.574 0.786,1.721c1.48,2.033 3.567,2.967 6.247,2.813c0.18,0 0.366,-0.006 0.547,-0.02V44.6c-0.181,0.014 -0.367,0.02 -0.547,0.02l-2.187,-0.252c-0.233,2.08 -0.914,3.119 -2.034,3.127h-0.313c-2.08,-0.395 -3.12,-1.121 -3.12,-2.193l0.467,-2.814c-0.367,-0.412 -0.727,-0.619 -1.094,-0.619c-1.173,1.832 -2.8,2.74 -4.887,2.713V40.127z" id="path_2"/><path fill="#07E8B4" d="M54.003,20.613c0.16,-0.094 0.207,0.053 0.141,0.434c-0.887,2.08 -2.247,3.533 -4.08,4.354l-6.74,3.379c-0.287,-0.08 -0.34,-0.313 -0.16,-0.705c0.9,-1.734 1.514,-2.762 1.84,-3.088L54.003,20.613z" id="path_3"/><path fill="#a3451c" d="M32.623,28.133c2.188,1.094 3.28,2.027 3.28,2.814c-1.04,2.053 -1.666,3.094 -1.873,3.119h-0.313c-1.606,-0.807 -2.593,-1.533 -2.974,-2.186C31.11,30.693 31.736,29.447 32.623,28.133z" id="path_4"/><path fill="#a3451c" d="M42.351,44.594c-0.147,0.014 -0.287,0.02 -0.434,0.02h-0.78c-1.227,0 -2.06,-0.1 -2.5,-0.313c-0.913,3.506 -1.974,5.652 -3.187,6.439c-1.207,0.787 -3.947,1.453 -8.22,2h-0.313c-0.934,-0.107 -1.407,-0.26 -1.407,-0.467c0,-0.314 0.78,-0.68 2.347,-1.094c6.146,-2.813 9.221,-4.846 9.221,-6.094c0,-0.52 -0.733,-1.719 -2.188,-3.592c-0.313,-0.527 -0.473,-1.201 -0.473,-2.033V37.9c0,-0.787 0.16,-1.201 0.473,-1.254c1.354,2.074 3.641,3.227 6.874,3.473c0.193,0 0.387,0 0.587,-0.012V44.594z" id="path_5"/><path fill="#a3451c" d="M38.184,20.006c0.16,-0.092 0.206,0.055 0.14,0.434c-0.887,2.08 -2.247,3.533 -4.08,4.354l-6.74,3.381c-0.286,-0.08 -0.34,-0.314 -0.159,-0.707c0.899,-1.732 1.513,-2.76 1.84,-3.086L38.184,20.006z" id="path_6"/><path fill="#07E8B4" d="M23.323,29.459l0.153,0.469c-0.207,0.887 -1.146,1.926 -2.813,3.125c1.667,1.354 2.5,3.334 2.5,5.941v0.152c0,4.273 -1.767,6.406 -5.313,6.406c-2.806,-0.547 -4.213,-1.953 -4.213,-4.219V41.18c0.1,-1.953 0.88,-4.039 2.34,-6.252c-1.354,-0.414 -2.026,-0.988 -2.026,-1.721c0,-1.953 0.153,-3.146 0.467,-3.594c1.406,0.393 2.967,1.174 4.687,2.348h0.153L23.323,29.459L23.323,29.459zM17.23,35.707c-1.254,1.254 -1.881,2.141 -1.881,2.66c0,1.613 1.147,2.553 3.44,2.813c1.2,-0.16 2.24,-0.572 3.127,-1.254C20.903,38.18 19.337,36.779 17.23,35.707z" id="path_7"/><path fill="#f06022" d="M24.649,51.727l0.16,0.141v0.426c-0.807,1.734 -1.933,2.947 -3.38,3.654c-4.479,2.434 -6.967,3.652 -7.46,3.652c-0.18,0 -0.273,-0.146 -0.273,-0.434c0.427,-1.652 1.367,-2.773 2.813,-3.359l8.007,-4.08H24.649z" id="path_8"/><path fill="#f06022" d="M23.537,48.213c0.187,0 0.272,0.135 0.272,0.408c-0.52,1.512 -2.06,2.873 -4.626,4.086l-5.92,3.24l-0.134,-0.141v-0.152c0.561,-1.98 1.453,-3.201 2.673,-3.654l6.607,-3.379L23.537,48.213z" id="path_9"/><path fill="#07E8B4" d="M15.203,22.254c1.22,0.365 2.474,1.146 3.747,2.346v0.154c-1.174,2.059 -1.847,3.1 -2.033,3.127H16.45c-0.887,-0.127 -1.82,-0.701 -2.813,-1.721v-0.154C13.743,24.779 14.264,23.533 15.203,22.254z" id="path_10"/><path fill="#07E8B4" d="M20.036,22.41c1.146,0.26 2.294,0.939 3.44,2.033v0.152c0,0.574 -0.627,1.613 -1.873,3.127H21.13c-0.727,0 -1.667,-0.572 -2.813,-1.719C18.604,24.389 19.177,23.189 20.036,22.41z" id="path_11"/></svg>