<svg id="vector" xmlns="http://www.w3.org/2000/svg" width="75" height="67" viewBox="0 0 83 73"><path fill="#0000F6" d="M51.639,27.944c0.313,0 0.627,1.047 0.939,3.127l1.407,3.126l-0.626,3.593l0.466,8.754v1.4c-0.206,3.573 -0.727,5.652 -1.56,6.253l-0.154,-0.153l0.154,-2.346c0,-2.107 -0.68,-8.828 -2.033,-20.154C50.885,29.144 51.352,27.944 51.639,27.944z" id="path_0"/><path fill="#0000F6" d="M56.305,18.804c0.16,-0.093 0.207,0.053 0.141,0.433c-0.887,2.08 -2.246,3.534 -4.08,4.354l-6.74,3.38c-0.286,-0.08 -0.34,-0.313 -0.16,-0.707c0.9,-1.733 1.514,-2.76 1.84,-3.087L56.305,18.804z" id="path_1"/><path fill="#a3451c" d="M36.212,31.737c1.54,0.494 2.74,1.12 3.593,1.874v0.313c0,0.521 -0.566,1.667 -1.713,3.44c-1.066,0 -2.267,-0.574 -3.594,-1.72v-0.313C34.498,34.211 35.072,33.011 36.212,31.737z" id="path_2"/><path fill="#a3451c" d="M34.775,49.744c4.094,0.04 6.38,-0.727 6.881,-2.307c0,-0.547 -0.521,-1.9 -1.567,-4.06l0.474,-4.061h0.307c1.359,2.34 2.033,4.687 2.033,7.027v1.406c0,0.939 -0.227,1.926 -0.674,2.96c-0.446,1.033 -1.14,1.906 -2.066,2.606c-0.934,0.707 -2.727,1 -5.387,0.88V49.744z" id="path_3"/><path fill="#a3451c" d="M45.465,22.264c0.16,-0.093 0.207,0.053 0.141,0.433c-0.887,2.08 -2.247,3.534 -4.08,4.354l-6.74,3.38c-0.287,-0.08 -0.34,-0.313 -0.16,-0.707c0.9,-1.733 1.514,-2.76 1.84,-3.087L45.465,22.264z" id="path_4"/><path fill="#0000F6" d="M35.019,54.197c-3.033,0.181 -5.24,-1.22 -6.62,-4.2c-0.666,-1.106 -1.286,-8.566 -1.873,-22.379v-0.313c0.387,-2.293 0.96,-3.44 1.713,-3.44l0.787,-0.153c0.96,0 2.42,0.313 4.373,0.933v0.313c-0.106,0.313 -0.42,0.473 -0.939,0.473h-2.653c-0.547,0 -1.067,0.307 -1.567,0.934c0.487,11.993 1.193,18.939 2.134,20.84c0.934,1.9 2.486,2.746 4.646,2.54V54.197z" id="path_5"/><path fill="#0000F6" d="M25.163,20.795c0.145,1.042 0.977,2.137 2.156,2.137c1.272,0 2.244,-0.692 2.652,-1.872c0.208,-0.596 0.424,-1.192 0.304,-1.764C29.556,15.852 24.516,16.152 25.163,20.795L25.163,20.795zM27.588,21.352c-0.792,0.192 -1.301,-0.889 -1.297,-1.285C26.336,16.29 32.015,20.277 27.588,21.352z" id="path_6"/></svg>