<svg id="vector" xmlns="http://www.w3.org/2000/svg" width="75" height="67" viewBox="0 0 83 73"><path fill="#0000F6" d="M45.172,32.683v-0.149c0.504,-0.705 1.225,-1.663 2.172,-2.882h0.103c0.767,0.824 1.724,1.57 2.882,2.233c0.031,0.031 0.047,0.067 0.047,0.119l-2.095,2.835c-0.021,0.01 -0.057,0.016 -0.108,0.016c-0.063,0 -0.165,-0.026 -0.314,-0.077C47.132,34.448 46.237,33.748 45.172,32.683z" id="path_0"/><path fill="#000001" d="M55.547,49.882v-0.15c0.504,-0.704 1.225,-1.662 2.172,-2.881h0.103c0.767,0.823 1.724,1.569 2.882,2.233c0.031,0.03 0.047,0.067 0.047,0.118l-2.096,2.836c-0.02,0.01 -0.057,0.016 -0.107,0.016c-0.062,0 -0.164,-0.026 -0.314,-0.078C57.507,51.647 56.612,50.947 55.547,49.882z" id="path_1"/><path fill="#0000F6" d="M42.522,44.767c2.511,0.082 4.343,-0.047 5.501,-0.377c1.157,-0.334 2.161,-0.756 3.016,-1.266c-0.463,-0.345 -0.874,-0.53 -1.235,-0.561c-0.864,-0.211 -1.719,-0.438 -2.563,-0.68c-1.035,-0.288 -1.868,-0.571 -2.491,-0.844c-0.329,0.031 -0.767,-0.093 -1.312,-0.375c-0.191,-1.045 0.216,-1.828 1.225,-2.353c1.75,-0.442 3.52,-0.859 5.32,-1.251c2.06,-0.524 3.665,-1.297 4.808,-2.321c0.746,-0.957 1.245,-1.693 1.497,-2.218c0.392,-0.653 0.896,-1.281 1.514,-1.883s1.24,-1.199 1.863,-1.781c0.37,-0.087 0.751,0.098 1.143,0.561c0.535,1.266 1.003,2.301 1.404,3.103c-0.34,1.699 -0.602,2.98 -0.782,3.844c-0.154,0.433 -0.406,0.541 -0.757,0.319c-0.241,-0.623 -0.473,-1.245 -0.694,-1.858c-0.299,-0.71 -0.675,-1.25 -1.111,-1.61c-0.917,0.087 -1.858,0.72 -2.821,1.899c-1.266,1.477 -2.084,2.351 -2.443,2.625c-0.505,0.474 -1.297,0.813 -2.383,1.023c-1.416,0.253 -2.275,0.453 -2.578,0.604c0.303,0.24 0.807,0.416 1.523,0.529c0.844,0.119 1.404,0.242 1.672,0.36c3.268,0.463 5.729,0.726 7.375,0.782c-0.324,2.131 -0.818,3.551 -1.492,4.251c-0.305,0.062 -1.102,0.164 -2.398,0.304c-1.024,0.088 -1.822,0.17 -2.398,0.242c-2.984,1.832 -6.453,2.865 -10.4,3.098V44.767z" id="path_2"/><path fill="#000001" d="M54.461,25.112l0.936,-2.789l9.09,-3.994c0.123,-0.031 0.18,-0.016 0.18,0.046c0,0.031 -0.016,0.103 -0.047,0.227l-1.219,2.892l-8.729,3.906c-0.113,0.01 -0.181,0.01 -0.211,0C54.42,25.339 54.42,25.247 54.461,25.112z" id="path_3"/><path fill="#0000F6" d="M42.249,58.882l0.937,-2.758l9.089,-4.024c0.123,-0.011 0.18,0.005 0.18,0.046c0,0.031 -0.016,0.108 -0.046,0.242l-1.22,2.893l-8.729,3.921c-0.113,0.011 -0.18,0.011 -0.211,0C42.208,59.14 42.208,59.038 42.249,58.882z" id="path_4"/><path fill="#000001" d="M35.563,24.675c0.088,-0.906 0.191,-1.631 0.31,-2.171c0.03,-0.474 0.206,-0.71 0.53,-0.71c0.18,0 0.272,0.164 0.272,0.499c0.093,3.768 0.329,7.215 0.71,10.339l1.081,8.008c0.592,1.667 1.22,2.759 1.878,3.263c0.664,0.51 1.539,0.782 2.631,0.823v4.204c-1.539,0.124 -2.976,-0.375 -4.313,-1.492c-0.118,0.17 -0.195,0.453 -0.222,0.844c-0.303,2.688 -1.338,4.834 -3.107,6.438c-2.198,2.013 -4.699,3.017 -7.504,3.017c-0.433,0 -0.875,-0.031 -1.328,-0.094c-2.471,-0.652 -4.276,-1.518 -5.424,-2.604c-1.827,-1.693 -2.743,-3.9 -2.743,-6.613c0,-1.168 0.19,-2.398 0.576,-3.695c0.618,-2.172 1.693,-3.875 3.232,-5.109l0.53,-0.094c0.35,0.525 0.051,1.262 -0.891,2.219c-1.168,1.596 -1.75,3.206 -1.75,4.822c0,0.916 0.129,1.781 0.392,2.594c0.746,1.178 1.462,1.945 2.156,2.311c1.806,1.354 3.962,2.033 6.464,2.033c1.785,0 3.375,-0.396 4.76,-1.189c0.474,-0.154 1.297,-0.741 2.471,-1.765c0.823,-0.927 1.235,-2.038 1.235,-3.335c0,-0.73 -0.14,-1.832 -0.412,-3.294c-0.278,-1.462 -0.474,-2.542 -0.597,-3.237c-0.412,-2.459 -0.659,-4.482 -0.752,-6.062l-0.545,-8.579C35.26,25.746 35.383,25.288 35.563,24.675z" id="path_5"/><path fill="#000001" d="M30.762,20.588l0.936,-2.789l9.09,-3.994c0.123,-0.031 0.18,-0.016 0.18,0.046c0,0.031 -0.016,0.103 -0.047,0.227l-1.219,2.893l-8.729,3.906c-0.113,0.01 -0.18,0.01 -0.211,0C30.721,20.815 30.721,20.723 30.762,20.588z" id="path_6"/></svg>