<svg id="vector" xmlns="http://www.w3.org/2000/svg" width="75" height="67" viewBox="0 0 84 73"><path fill="#213e95" d="M40.717,48.548c0.6,0 2.01,0.705 4.223,2.115c0,0.878 -0.705,2.28 -2.115,4.215c-2.805,-0.906 -4.215,-1.725 -4.215,-2.459C38.684,51.759 39.389,50.469 40.717,48.548z" id="path_0"/><path fill="#213e95" d="M43.355,40.464l-3.344,-1.051c-0.639,-0.164 -1.635,-0.338 -2.986,-0.532v-0.173c-0.09,-2.946 0.676,-4.582 2.289,-4.919c1.17,-0.63 1.934,-1.335 2.279,-2.115c-0.113,-0.758 -1.756,-2.753 -4.92,-5.97c-0.158,-2.76 -0.143,-4.238 0.061,-4.455c0.193,-0.21 0.412,-0.248 0.645,-0.12c3.75,3.27 5.625,6.143 5.625,8.617c-0.09,1.62 -0.443,3.03 -1.059,4.215l-0.389,0.525c2.49,0.6 3.734,1.425 3.734,2.468v1.754c0,0.57 -0.09,1.156 -0.27,1.756H43.355z" id="path_1"/><path fill="#213e95" d="M40.123,8.693c0.324,0.556 0.699,2.138 1.125,4.748c-0.262,1.582 -0.951,2.37 -2.07,2.37h-0.148c-0.488,0 -1.117,-0.315 -1.914,-0.945c-0.539,0.953 -1.334,1.433 -2.369,1.433c-1.26,0 -1.891,-1.53 -1.891,-4.59c0.369,-1.163 0.684,-1.74 0.945,-1.74l0.15,0.158v2.699c0.217,0.938 0.488,1.402 0.795,1.402h0.637c0.66,0 1.08,-0.262 1.275,-0.787l-0.33,-2.37c0.129,-0.795 0.346,-1.215 0.639,-1.252h0.33c0.33,2.632 0.861,3.952 1.574,3.952h1.104v-0.157l-0.48,-3.158v-0.18C39.621,9.219 39.832,8.693 40.123,8.693z" id="path_2"/><path fill="#213e95" d="M48.65,55.118c0.182,-0.098 0.232,0.061 0.158,0.488c-0.998,2.34 -2.527,3.975 -4.59,4.896l-7.582,3.803c-0.322,-0.09 -0.383,-0.353 -0.182,-0.787c1.014,-1.95 1.703,-3.105 2.07,-3.473L48.65,55.118z" id="path_3"/><path fill="#000001" d="M44.984,40.464c-0.705,2.445 -2.844,5.145 -6.42,8.084c-2.154,1.531 -4.674,2.288 -7.553,2.288c-1.613,-0.367 -2.768,-0.735 -3.465,-1.095c-0.699,-0.367 -1.531,-1.178 -2.514,-2.423c-1.762,-2.34 -2.639,-4.507 -2.639,-6.503c0,-4.746 1.521,-8.549 4.574,-11.422c0.539,-0.383 0.771,-0.322 0.697,0.173c0,0.428 -0.877,2.07 -2.633,4.92c-0.705,1.425 -1.057,2.774 -1.057,4.042c0,1.822 1.289,3.811 3.869,5.978c1.83,1.013 3.818,1.425 5.979,1.229c2.541,0 5.707,-1.754 9.486,-5.271H44.984z" id="path_4"/><path fill="#008046" d="M57.816,33.039c1.049,1.058 2.047,3.337 2.984,6.854l0.18,2.287c0,4.133 -2.055,6.945 -6.156,8.438l-1.23,0.173l-3.121,0.045l-3.029,-0.045l-0.172,-0.173v-0.18c0.375,-0.404 2.895,-1.635 7.553,-3.689c2.932,-1.666 4.514,-3.135 4.746,-4.396c-1.521,-3.247 -2.279,-5.122 -2.279,-5.625v-0.524C57.291,34.097 57.463,33.039 57.816,33.039z" id="path_5"/><path fill="#008046" d="M61.416,21.324c0.18,-0.105 0.232,0.06 0.158,0.487c-0.998,2.34 -2.527,3.975 -4.59,4.897L49.4,30.512c-0.322,-0.09 -0.381,-0.353 -0.18,-0.795c1.014,-1.95 1.703,-3.105 2.07,-3.473L61.416,21.324z" id="path_6"/><path fill="#000001" d="M27.424,18.233h1.74c2.107,0 3.164,0.788 3.164,2.37c-1.365,3.69 -3.021,5.647 -4.973,5.873l-2.303,0.308c-0.367,0 -0.518,-0.105 -0.465,-0.308c1.861,-0.982 3.6,-2.152 5.213,-3.495c-0.57,-0.533 -1.199,-0.795 -1.891,-0.795h-0.486l-1.891,0.157l-0.15,-0.157v-0.308C26.275,19.449 26.959,18.233 27.424,18.233z" id="path_7"/></svg>