<svg id="vector" xmlns="http://www.w3.org/2000/svg" width="75" height="67" viewBox="0 0 84 73"><path fill="#DD2C00" d="M59.441,50.499c0.24,0 0.488,0 0.75,0h0.18c2.189,-0.135 4.186,-1.957 5.971,-5.468c1.936,-2.933 3.93,-4.396 5.977,-4.396c2.58,0 3.871,1.636 3.871,4.921v0.877c0,1.612 -0.646,3.72 -1.936,6.33l-1.23,0.878c-1.088,0 -3.6,-0.766 -7.559,-2.287c-1.201,1.799 -2.139,2.895 -2.814,3.277c-1.027,0.712 -2.076,1.012 -3.164,0.877h-0.045V50.499L59.441,50.499zM68.277,46.786v0.173c3.045,1.177 4.867,1.763 5.451,1.763c0.232,0 0.354,-0.18 0.354,-0.533c-0.676,-1.755 -1.793,-2.632 -3.346,-2.632C69.656,45.557 68.832,45.969 68.277,46.786z" id="path_0"/><path fill="#DD2C00" d="M69.094,23.627c1.801,0 2.699,1.109 2.699,3.322c0,3.524 -3.006,6.532 -9.029,9.008c-0.863,0.262 -0.967,-0.053 -0.307,-0.945c0.164,-0.338 1.582,-1.396 4.26,-3.165v-0.15c-1.156,-0.473 -1.732,-1.478 -1.732,-3.015c0.764,-3.368 1.98,-5.055 3.645,-5.055H69.094L69.094,23.627zM66.408,27.43c0,0.937 0.795,1.515 2.379,1.739h0.307c0.586,0 0.961,-0.218 1.117,-0.638c0,-0.952 -0.689,-1.695 -2.063,-2.22C67.549,26.312 66.971,26.687 66.408,27.43z" id="path_1"/><path fill="#000001" d="M60.273,55.531c-3.014,-0.202 -5.752,-1.853 -8.213,-4.942h-0.18c-1.049,6.09 -3.396,9.135 -7.027,9.143h-0.531c-1.576,-0.008 -3.105,-1.41 -4.568,-4.223c-1.17,-3.953 -1.756,-6.945 -1.756,-8.963v-1.41c0,-0.877 0.174,-1.35 0.525,-1.402c0.496,0.263 1.088,2.184 1.77,5.768c0.684,3.578 2.086,5.288 4.209,5.131c4.102,-0.676 6.27,-3.023 6.502,-7.035l-1.582,-5.445v-1.936c0.061,-2.347 0.293,-3.517 0.705,-3.517c0.232,0.524 0.412,1.058 0.525,1.582l2.459,7.733c1.936,3.135 4.328,4.619 7.162,4.439V55.531z" id="path_2"/><path fill="#000001" d="M51.986,22.967c0.322,0.555 0.697,2.138 1.125,4.747c-0.262,1.583 -0.953,2.37 -2.07,2.37h-0.15c-0.486,0 -1.117,-0.314 -1.912,-0.945c-0.539,0.953 -1.334,1.433 -2.369,1.433c-1.26,0 -1.891,-1.529 -1.891,-4.59c0.367,-1.162 0.684,-1.74 0.945,-1.74l0.15,0.158v2.7c0.217,0.937 0.486,1.402 0.795,1.402h0.637c0.66,0 1.08,-0.263 1.275,-0.788l-0.33,-2.37c0.127,-0.795 0.346,-1.215 0.637,-1.252h0.33c0.33,2.633 0.863,3.952 1.576,3.952h1.102v-0.157l-0.48,-3.157v-0.181C51.484,23.491 51.693,22.967 51.986,22.967z" id="path_3"/><path fill="#000001" d="M54.648,13.299c0.18,-0.104 0.232,0.061 0.158,0.487c-0.998,2.341 -2.527,3.976 -4.59,4.898l-7.582,3.802c-0.322,-0.09 -0.383,-0.352 -0.182,-0.795c1.014,-1.95 1.703,-3.104 2.07,-3.473L54.648,13.299z" id="path_4"/><path fill="#213e95" d="M17.809,37.576c1.373,0.413 2.783,1.29 4.215,2.64v0.174c-1.32,2.316 -2.076,3.486 -2.287,3.517h-0.525c-0.998,-0.143 -2.047,-0.787 -3.164,-1.935v-0.173C16.166,40.419 16.752,39.017 17.809,37.576z" id="path_5"/><path fill="#213e95" d="M24.484,37.929c1.289,0.293 2.58,1.058 3.869,2.287v0.174c0,0.645 -0.705,1.822 -2.107,3.517h-0.531c-0.818,0 -1.877,-0.645 -3.166,-1.935C22.871,40.156 23.516,38.806 24.484,37.929z" id="path_6"/><path fill="#213e95" d="M10.271,39.864h0.172l0.354,0.352c-0.938,2.078 -1.402,3.488 -1.402,4.215c0,3.428 3.277,5.424 9.84,5.979l2.107,0.353c2.115,0 5.271,-0.646 9.494,-1.935l2.461,-1.403c-0.818,-1.492 -1.35,-2.782 -1.584,-3.87l0.354,-3.338h0.352c1.402,1.463 2.107,4.043 2.107,7.733c0,3.548 -3.104,5.947 -9.314,7.207l-2.639,0.353c-9.842,0 -14.762,-3.225 -14.762,-9.668C7.811,43.149 8.629,41.153 10.271,39.864z" id="path_7"/><path fill="#213e95" d="M20.465,23.694h1.738c2.107,0 3.166,0.787 3.166,2.37c-1.365,3.689 -3.023,5.647 -4.973,5.872l-2.303,0.308c-0.367,0 -0.518,-0.104 -0.465,-0.308c1.859,-0.982 3.6,-2.152 5.213,-3.495c-0.57,-0.532 -1.201,-0.795 -1.891,-0.795h-0.486l-1.891,0.158l-0.15,-0.158v-0.308C19.316,24.909 19.998,23.694 20.465,23.694z" id="path_8"/></svg>