<svg id="vector" xmlns="http://www.w3.org/2000/svg" width="174" height="67" viewBox="0 0 189.6 72.959"><path fill="#DD2C00" d="M152.773,23.943c1.522,0 2.925,0.938 4.215,2.813c-1.079,2.461 -1.904,3.689 -2.46,3.689c-2.369,-1.17 -3.659,-1.934 -3.869,-2.287C150.659,27.049 151.363,25.639 152.773,23.943z" id="path_0"/><path fill="#DD2C00" d="M147.081,46.002h0.878c5.467,-0.105 9.098,-0.871 10.897,-2.311l0.352,-0.697c-0.231,-0.563 -0.524,-0.84 -0.877,-0.84c-0.848,0.473 -1.785,0.705 -2.813,0.705h-0.18c-3.045,-0.354 -4.628,-1.584 -4.74,-3.691v-0.18c0.292,-3.982 1.229,-5.971 2.813,-5.971h0.878c2.707,-0.135 4.762,1.973 6.149,6.324l0.173,1.762v0.352c-0.038,4.307 -1.583,7.148 -4.635,8.521c-1.08,0.689 -4.051,1.035 -8.896,1.035V46.002z" id="path_1"/><path fill="#DD2C00" d="M159.269,12.057c0.181,-0.105 0.232,0.059 0.157,0.486c-0.997,2.34 -2.527,3.975 -4.59,4.898l-7.582,3.803c-0.322,-0.09 -0.383,-0.354 -0.181,-0.795c1.013,-1.951 1.703,-3.105 2.07,-3.473L159.269,12.057z" id="path_2"/><path fill="#000001" d="M147.517,51.012c-3.413,0.201 -5.896,-1.373 -7.448,-4.727c-0.742,-1.244 -1.447,-9.637 -2.107,-25.176v-0.354c0.435,-2.58 1.08,-3.869 1.936,-3.869l0.877,-0.174c1.08,0 2.723,0.354 4.92,1.051v0.352c-0.112,0.354 -0.465,0.533 -1.05,0.533h-2.992c-0.615,0 -1.2,0.346 -1.755,1.051c0.54,13.492 1.335,21.307 2.392,23.443c1.058,2.139 2.798,3.092 5.229,2.859V51.012z" id="path_3"/><path fill="#000001" d="M148.656,55.137c0.18,-0.098 0.232,0.059 0.157,0.486c-0.997,2.34 -2.527,3.975 -4.59,4.898l-7.583,3.803c-0.322,-0.09 -0.382,-0.354 -0.18,-0.789c1.013,-1.949 1.703,-3.104 2.07,-3.471L148.656,55.137z" id="path_4"/><path fill="#e21171" d="M121.783,40.467h0.353c1.643,0.373 3.105,1.26 4.396,2.631v0.354c-0.112,0.938 -0.817,2.168 -2.107,3.689c-3.045,-1.02 -4.567,-1.904 -4.567,-2.633C120.584,42.4 121.229,41.051 121.783,40.467z" id="path_5"/><path fill="#e21171" d="M131.106,36.949h0.345c0.412,0 1.41,2.639 2.992,7.912l0.173,0.697c0,4.133 -0.997,7.125 -2.985,8.971c-2.813,3.045 -6.149,4.566 -10.02,4.566c-3.165,-0.705 -5.213,-1.402 -6.15,-2.107c-3.053,-2.609 -4.575,-5.834 -4.575,-9.668c0,-3.225 1.41,-6.27 4.223,-9.143l0.173,-0.172h0.353l0.353,0.346c0,0.299 -0.817,1.582 -2.46,3.869c-0.473,0.818 -0.766,1.936 -0.878,3.338c0,2.73 1.402,5.07 4.216,7.035c2.752,1.057 4.627,1.582 5.624,1.582c2.521,0 5.506,-1.117 8.963,-3.338c1.41,-1.236 2.115,-1.994 2.115,-2.287l-2.46,-6.855l-0.181,-1.229L131.106,36.949z" id="path_6"/><path fill="#e21171" d="M125.144,21.828c0.322,0.555 0.698,2.139 1.125,4.748c-0.263,1.582 -0.952,2.369 -2.07,2.369h-0.149c-0.487,0 -1.117,-0.314 -1.913,-0.943c-0.539,0.951 -1.334,1.432 -2.37,1.432c-1.26,0 -1.89,-1.529 -1.89,-4.59c0.368,-1.162 0.683,-1.74 0.945,-1.74l0.15,0.158v2.699c0.217,0.938 0.487,1.402 0.794,1.402h0.638c0.66,0 1.08,-0.262 1.275,-0.787l-0.33,-2.371c0.128,-0.793 0.345,-1.215 0.638,-1.252h0.33c0.33,2.633 0.862,3.953 1.574,3.953h1.104v-0.158l-0.48,-3.156v-0.18C124.642,22.354 124.852,21.828 125.144,21.828z" id="path_7"/><path fill="#e21171" d="M127.807,12.16c0.18,-0.104 0.232,0.061 0.157,0.488c-0.998,2.34 -2.527,3.975 -4.59,4.898l-7.583,3.801c-0.322,-0.09 -0.382,-0.352 -0.18,-0.795c1.013,-1.949 1.702,-3.104 2.07,-3.473L127.807,12.16z" id="path_8"/><path fill="#000001" d="M99.764,21.477c0.353,0 0.705,1.178 1.058,3.518l1.582,3.518l-0.705,4.041l0.525,9.848v1.576c-0.232,4.02 -0.817,6.359 -1.755,7.035l-0.173,-0.174l0.173,-2.639c0,-2.371 -0.765,-9.932 -2.287,-22.674C98.916,22.826 99.441,21.477 99.764,21.477z" id="path_9"/><path fill="#DD2C00" d="M83.054,47.629c0.202,0.014 0.42,0.021 0.66,0.021h1.665c1.762,-0.291 3.104,-0.906 4.042,-1.844l-2.107,-16.703c0.525,-3.164 0.997,-4.74 1.402,-4.74l2.288,5.273c0,0.816 -0.293,2.047 -0.878,3.689l0.878,9.488v2.639c-0.66,2.797 -1.545,4.756 -2.655,5.865c-0.84,0.893 -1.822,1.342 -2.97,1.342h-1.493c-0.292,0 -0.569,-0.006 -0.832,-0.021V47.629z" id="path_10"/><path fill="#DD2C00" d="M89.001,14.23h1.74c2.107,0 3.165,0.787 3.165,2.371c-1.365,3.689 -3.022,5.646 -4.973,5.871l-2.303,0.309c-0.367,0 -0.518,-0.105 -0.465,-0.309c1.86,-0.982 3.6,-2.152 5.213,-3.494c-0.57,-0.533 -1.2,-0.795 -1.891,-0.795h-0.487l-1.89,0.156l-0.15,-0.156v-0.309C87.854,15.445 88.536,14.23 89.001,14.23z" id="path_11"/><path fill="#000001" d="M59.398,46.002c1.44,0 2.49,0 3.165,0h0.705c2.107,-0.279 5.258,-1.178 9.45,-2.701c-1.41,-1.178 -3.578,-2.055 -6.503,-2.641c-1.732,0 -2.902,0.818 -3.518,2.461c-0.217,0.488 -0.412,0.615 -0.585,0.383c-0.165,-0.227 -0.21,-0.525 -0.12,-0.908c1.058,-3.547 2.46,-5.316 4.223,-5.316h1.23c1.17,0 3.285,0.658 6.337,1.979c3.053,1.313 5.686,1.846 7.897,1.582c0.277,0 0.397,0.174 0.353,0.525c-0.472,2.926 -1.35,4.396 -2.64,4.396l-0.878,0.172v0.352c0.442,1.215 2.468,1.658 6.091,1.32v4.988c-5.243,0.277 -7.86,-1.764 -7.846,-6.127c-1.875,0.277 -4.417,1.146 -7.627,2.625c-3.21,1.469 -6.45,2.1 -9.735,1.896V46.002z" id="path_12"/><path fill="#000001" d="M68.166,51.693c2.46,1.23 3.697,2.287 3.697,3.166c-1.178,2.309 -1.875,3.486 -2.115,3.51h-0.353c-1.8,-0.908 -2.909,-1.727 -3.337,-2.461C66.471,54.58 67.176,53.172 68.166,51.693z" id="path_13"/><path fill="#000001" d="M78.051,22.691c0.18,-0.105 0.232,0.061 0.157,0.486c-0.997,2.34 -2.527,3.977 -4.59,4.898l-7.582,3.803c-0.322,-0.09 -0.383,-0.354 -0.181,-0.795c1.013,-1.951 1.703,-3.105 2.07,-3.473L78.051,22.691z" id="path_14"/><path fill="#e21171" d="M50.639,31.016c0.6,0 2.01,0.705 4.223,2.107c0,0.877 -0.705,2.287 -2.115,4.223c-2.813,-0.908 -4.215,-1.732 -4.215,-2.459C48.606,34.227 49.304,32.936 50.639,31.016z" id="path_15"/><path fill="#e21171" d="M44.241,46.002c1.252,0.014 2.024,-0.008 2.332,-0.068c2.641,-0.803 4.44,-2.512 5.408,-5.115c0.143,-0.502 0.435,-0.563 0.877,-0.18c0.232,0.201 0.412,1.027 0.525,2.459c1.598,2.154 3.593,3.121 5.978,2.904h0.465v5.01h-0.112c-3.735,-0.174 -6.488,-1.875 -8.266,-5.102h-0.172c-1.245,2.625 -2.888,4.238 -4.92,4.838c-0.615,0.172 -1.32,0.264 -2.115,0.264V46.002z" id="path_16"/><path fill="#e21171" d="M54.636,18.334c0.322,0.555 0.697,2.137 1.125,4.746c-0.263,1.584 -0.952,2.371 -2.07,2.371h-0.149c-0.487,0 -1.117,-0.314 -1.913,-0.945c-0.539,0.953 -1.334,1.434 -2.369,1.434c-1.261,0 -1.891,-1.531 -1.891,-4.592c0.367,-1.162 0.683,-1.738 0.945,-1.738l0.15,0.156v2.701c0.217,0.938 0.487,1.402 0.795,1.402h0.637c0.66,0 1.08,-0.264 1.275,-0.789l-0.33,-2.369c0.128,-0.795 0.345,-1.215 0.638,-1.252h0.33c0.33,2.633 0.862,3.951 1.575,3.951h1.103v-0.156l-0.48,-3.158v-0.18C54.134,18.859 54.344,18.334 54.636,18.334z" id="path_17"/><path fill="#e21171" d="M57.291,8.666c0.18,-0.105 0.232,0.061 0.157,0.488c-0.997,2.34 -2.527,3.975 -4.59,4.896l-7.582,3.803c-0.323,-0.09 -0.383,-0.352 -0.181,-0.795c1.013,-1.949 1.703,-3.105 2.07,-3.473L57.291,8.666z" id="path_18"/><path fill="#000001" d="M29.871,20.906h0.705c2.317,1.32 3.487,2.084 3.518,2.287c-1.147,2.461 -1.905,3.75 -2.288,3.871c-1.319,0 -2.609,-0.646 -3.87,-1.936C28.176,23.869 28.821,22.459 29.871,20.906z" id="path_19"/><path fill="#000001" d="M36.021,20.029c1.118,0 2.468,0.764 4.051,2.287c0,0.615 -0.766,1.844 -2.288,3.689c-0.877,0 -2.167,-0.584 -3.87,-1.754C33.913,23.223 34.618,21.814 36.021,20.029z" id="path_20"/><path fill="#000001" d="M44.684,51.012h-0.045c-3.368,0 -5.655,-1.643 -6.855,-4.92l-0.353,-1.41h-0.353c-0.263,0.938 -2.138,1.521 -5.625,1.762h-0.877c-2.348,0 -3.518,-0.705 -3.518,-2.115v-1.582c0,-1.695 1.29,-3.803 3.87,-6.322c1.552,-1.178 3.307,-2.168 5.272,-2.992l-0.181,-0.525c0.646,-2.934 1.178,-4.395 1.583,-4.395c0.21,0.494 0.503,4.133 0.885,10.896c0.525,4.561 2.588,6.773 6.195,6.66V51.012L44.684,51.012zM29.166,40.818c0.675,0.465 1.792,0.697 3.345,0.697c1.522,-0.111 2.925,-0.404 4.215,-0.877l-0.353,-4.92h-0.172C31.514,37.945 29.166,39.641 29.166,40.818z" id="path_21"/><path fill="#000001" d="M39.606,9.723c0.18,-0.104 0.232,0.061 0.157,0.488c-0.998,2.34 -2.527,3.975 -4.59,4.898l-7.583,3.801c-0.322,-0.09 -0.383,-0.352 -0.18,-0.795c1.013,-1.949 1.702,-3.104 2.07,-3.473L39.606,9.723z" id="path_22"/></svg>