<svg id="vector" xmlns="http://www.w3.org/2000/svg" width="94" height="67" viewBox="0 0 101.905 72.96"><path fill="#DD2C00" d="M94.231,38.419h0.681c1.985,0 3.456,1.756 4.419,5.273l0.167,1.754c0.058,0.57 0.058,1.156 0,1.764c-0.507,2.137 -1.645,4.244 -3.397,6.322c-1.217,1.057 -3.984,1.875 -8.317,2.459c-0.507,-0.232 -0.797,-0.465 -0.848,-0.697c7.245,-4.072 10.867,-6.533 10.867,-7.387l0.167,-0.525l-0.167,-0.172l-1.528,0.523h-0.848c-3.057,0 -4.586,-1.117 -4.586,-3.336v-0.354c0.392,-3.637 1.246,-5.453 2.543,-5.453L94.231,38.419z" id="path_0"/><path fill="#DD2C00" d="M98.73,24.177c0.174,-0.105 0.225,0.06 0.152,0.486c-0.963,2.341 -2.441,3.976 -4.433,4.898l-7.325,3.803c-0.311,-0.09 -0.369,-0.353 -0.174,-0.795c0.978,-1.951 1.645,-3.105 2,-3.473L98.73,24.177z" id="path_1"/><path fill="#000001" d="M82.944,19.099c0.34,0 0.681,1.178 1.021,3.518l1.528,3.518l-0.681,4.043l0.507,9.848v1.574c-0.225,4.02 -0.79,6.361 -1.695,7.035l-0.167,-0.172l0.167,-2.641c0,-2.369 -0.739,-9.93 -2.209,-22.672C82.125,20.448 82.632,19.099 82.944,19.099z" id="path_2"/><path fill="#000001" d="M78.155,40.88c-0.376,1.986 -1.282,3.568 -2.695,4.746c-1.304,0.969 -3.731,1.906 -7.302,2.813c-7.484,0.496 -11.715,0.082 -12.692,-1.229c-1.043,-1.133 2.622,-2.018 10.997,-2.664c4.383,-0.645 7.781,-1.867 10.186,-3.666c0.029,-0.016 0.058,-0.09 0.087,-0.232c0.029,-0.137 -0.659,-5.641 -2.057,-16.516c0.507,-3.166 0.963,-4.74 1.354,-4.74l2.209,5.271c0,0.818 -0.282,2.049 -0.847,3.691l0.847,9.486C78.285,39.47 78.256,40.481 78.155,40.88z" id="path_3"/><path fill="#008046" d="M46.547,43.624h0.659c2.238,-0.248 4.122,-1.65 5.65,-4.199c0.225,-0.525 0.45,-0.818 0.674,-0.879h0.174l0.507,0.533c-0.073,0.668 -0.182,1.141 -0.341,1.402c0.993,1.875 2.181,2.813 3.564,2.813l0.174,0.172c2.463,-5.625 5.23,-8.438 8.317,-8.438c2.463,0 4.274,1.059 5.433,3.166v1.057c0,6.443 -3.847,9.668 -11.548,9.668l-2.542,-0.172c-0.79,2.219 -1.304,3.338 -1.528,3.338l-0.167,-0.174v-0.18l0.507,-2.984v-0.354c-1.673,-0.967 -2.97,-2.316 -3.904,-4.043c-0.877,2.971 -2.753,4.404 -5.629,4.283V43.624L46.547,43.624zM59.305,43.819h0.341c3.846,0 7.128,-0.586 9.845,-1.756c0,-1.26 -1.13,-2.137 -3.391,-2.639h-0.681C62.703,39.425 60.667,40.894 59.305,43.819z" id="path_4"/><path fill="#008046" d="M61.971,20.771c0.312,0.556 0.674,2.139 1.086,4.748c-0.253,1.582 -0.92,2.37 -2,2.37h-0.145c-0.471,0 -1.08,-0.315 -1.848,-0.944c-0.521,0.952 -1.289,1.432 -2.289,1.432c-1.217,0 -1.826,-1.529 -1.826,-4.59c0.355,-1.162 0.66,-1.74 0.913,-1.74l0.145,0.158v2.699c0.21,0.938 0.471,1.402 0.768,1.402h0.616c0.638,0 1.043,-0.262 1.231,-0.787l-0.318,-2.37c0.123,-0.794 0.333,-1.215 0.616,-1.252h0.318c0.319,2.632 0.833,3.952 1.521,3.952h1.065v-0.157l-0.464,-3.157v-0.18C61.485,21.296 61.688,20.771 61.971,20.771z" id="path_5"/><path fill="#008046" d="M64.543,11.104c0.173,-0.105 0.224,0.059 0.152,0.486c-0.964,2.34 -2.442,3.976 -4.434,4.898l-7.324,3.803c-0.312,-0.09 -0.37,-0.354 -0.174,-0.795c0.979,-1.951 1.645,-3.105 2,-3.473L64.543,11.104z" id="path_6"/><path fill="#DD2C00" d="M35.021,51.8c0.703,0 1.948,0.877 3.73,2.631c0,0.594 -0.673,1.875 -2.036,3.871h-0.34c-0.71,0 -1.782,-0.705 -3.224,-2.107v-0.18C33.152,55.317 33.775,53.907 35.021,51.8z" id="path_7"/><path fill="#DD2C00" d="M41.128,50.921c2.833,1.26 4.245,2.25 4.245,2.986c-0.167,0.555 -0.956,1.785 -2.376,3.689c-1.898,-0.758 -3.253,-1.635 -4.071,-2.633C39.52,52.999 40.252,51.649 41.128,50.921z" id="path_8"/><path fill="#DD2C00" d="M32.022,43.624c1.21,0.016 1.956,-0.008 2.253,-0.066c2.55,-0.803 4.289,-2.514 5.224,-5.115c0.137,-0.504 0.42,-0.563 0.847,-0.182c0.225,0.203 0.399,1.029 0.507,2.461c1.543,2.152 3.47,3.119 5.774,2.902h0.449v5.01h-0.109c-3.607,-0.172 -6.267,-1.875 -7.983,-5.1h-0.167c-1.202,2.625 -2.789,4.236 -4.752,4.838c-0.594,0.172 -1.275,0.262 -2.043,0.262V43.624z" id="path_9"/><path fill="#DD2C00" d="M38.687,22.286h1.681c2.036,0 3.057,0.787 3.057,2.37c-1.318,3.69 -2.919,5.647 -4.803,5.872l-2.225,0.309c-0.354,0 -0.5,-0.105 -0.449,-0.309c1.796,-0.982 3.478,-2.152 5.035,-3.494c-0.551,-0.533 -1.16,-0.795 -1.826,-0.795h-0.471l-1.826,0.157l-0.145,-0.157v-0.308C37.579,23.501 38.238,22.286 38.687,22.286z" id="path_10"/><path fill="#000001" d="M22.568,24.746c2.108,0.825 3.245,1.53 3.397,2.115v0.878c-0.087,0.848 -0.709,2.018 -1.869,3.518H23.93c-0.652,-0.593 -1.783,-1.178 -3.398,-1.764l-0.167,-0.877C21.38,26.036 22.119,24.746 22.568,24.746z" id="path_11"/><path fill="#000001" d="M33.797,48.634c-0.695,0.016 -1.435,0.023 -2.231,0.023h-0.167c-1.782,0 -3.427,-0.586 -4.926,-1.756c-3.492,1.523 -7.172,2.279 -11.033,2.279h-2.21c-5.26,0 -8.831,-2.166 -10.693,-6.502l-0.174,-1.582c0.667,-5.041 1.688,-7.561 3.058,-7.561l0.34,0.353c0,0.428 -0.623,1.83 -1.869,4.224v0.172c0.978,3.982 4.542,5.977 10.7,5.977h2.036c2.449,0 4.658,-0.291 6.621,-0.877l-0.507,-2.992c0,-4.447 1.246,-6.676 3.731,-6.676h1.529c2.151,0.525 3.231,1.988 3.231,4.396c-0.232,2.488 -0.514,4.244 -0.855,5.271v0.174h0.174l2.036,0.135c0.427,0 0.826,-0.008 1.21,-0.023V48.634L33.797,48.634zM24.271,39.694c0.405,0.816 1.369,1.695 2.883,2.633l2.717,-1.051v-0.533c-0.725,-1.289 -1.681,-1.934 -2.884,-1.934h-0.34C25.06,38.884 24.271,39.177 24.271,39.694z" id="path_12"/><path fill="#000001" d="M22.822,52.698c0.173,-0.098 0.224,0.061 0.152,0.488c-0.964,2.34 -2.441,3.975 -4.434,4.896l-7.324,3.803c-0.312,-0.09 -0.37,-0.352 -0.174,-0.787c0.979,-1.949 1.645,-3.105 2,-3.473L22.822,52.698z" id="path_13"/></svg>