<svg id="vector" xmlns="http://www.w3.org/2000/svg" width="270" height="67" viewBox="0 0 294.644 72.959"><path fill="#DD2C00" d="M270.919,45.518c0.24,0 0.488,0 0.75,0h0.181c2.189,-0.135 4.185,-1.959 5.97,-5.469c1.935,-2.932 3.93,-4.395 5.978,-4.395c2.58,0 3.87,1.635 3.87,4.92v0.877c0,1.613 -0.646,3.721 -1.936,6.33l-1.229,0.879c-1.088,0 -3.601,-0.766 -7.561,-2.289c-1.199,1.801 -2.138,2.896 -2.813,3.277c-1.027,0.713 -2.077,1.014 -3.165,0.879h-0.045V45.518L270.919,45.518zM279.754,41.805v0.172c3.045,1.178 4.867,1.764 5.453,1.764c0.232,0 0.353,-0.182 0.353,-0.533c-0.676,-1.756 -1.793,-2.633 -3.346,-2.633C281.134,40.574 280.31,40.986 279.754,41.805z" id="path_0"/><path fill="#DD2C00" d="M285.425,21.877c0.18,-0.105 0.232,0.061 0.157,0.488c-0.998,2.34 -2.527,3.975 -4.59,4.896l-7.583,3.803c-0.322,-0.09 -0.383,-0.352 -0.18,-0.795c1.013,-1.951 1.702,-3.105 2.069,-3.473L285.425,21.877z" id="path_1"/><path fill="#000001" d="M271.295,50.527c-3.413,0.201 -5.896,-1.373 -7.448,-4.725c-0.75,-1.246 -1.447,-9.639 -2.107,-25.178v-0.354c0.435,-2.58 1.08,-3.869 1.928,-3.869l0.885,-0.174c1.08,0 2.723,0.354 4.92,1.051v0.354c-0.12,0.352 -0.473,0.531 -1.058,0.531h-2.984c-0.615,0 -1.2,0.346 -1.763,1.051c0.548,13.492 1.343,21.307 2.399,23.445c1.051,2.137 2.798,3.09 5.229,2.857V50.527z" id="path_2"/><path fill="#213e95" d="M256.714,20.992c0.353,0 0.705,1.178 1.058,3.518l1.583,3.518l-0.705,4.043l0.524,9.848v1.574c-0.232,4.02 -0.817,6.359 -1.755,7.035l-0.173,-0.174l0.173,-2.639c0,-2.371 -0.765,-9.93 -2.287,-22.672C255.867,22.342 256.392,20.992 256.714,20.992z" id="path_3"/><path fill="#000001" d="M251.757,42.771c-0.391,1.988 -1.328,3.57 -2.79,4.748c-1.351,0.967 -3.862,1.904 -7.561,2.813c-7.747,0.494 -12.127,0.082 -13.14,-1.23c-1.08,-1.133 2.715,-2.018 11.385,-2.662c4.538,-0.645 8.056,-1.867 10.545,-3.668c0.03,-0.014 0.061,-0.09 0.09,-0.232c0.03,-0.135 -0.682,-5.639 -2.13,-16.514c0.525,-3.166 0.998,-4.74 1.402,-4.74l2.288,5.271c0,0.818 -0.293,2.047 -0.878,3.689l0.878,9.488C251.892,41.361 251.861,42.375 251.757,42.771z" id="path_4"/><path fill="#008046" d="M225.281,45.518c0.367,0 0.75,0 1.147,0l0.878,-0.443c0.555,-1.141 1.38,-2.543 2.46,-4.215l-1.755,-13.537c0.585,-2.813 1.109,-4.215 1.582,-4.215l0.878,3.338c0.817,1.139 1.229,2.197 1.229,3.164c-0.585,1.08 -0.877,1.965 -0.877,2.633v0.352l0.353,5.625v0.885c1.814,-1.529 4.245,-2.361 7.29,-2.504c3.518,0.494 5.272,1.664 5.272,3.51v1.23c-0.585,2.609 -1.463,4.605 -2.633,5.977c-3.548,1.996 -7.44,3.061 -11.692,3.211h-1.936c-0.772,0 -1.507,0 -2.197,0V45.518L225.281,45.518zM228.709,45.607h0.353c5.362,-0.15 9.555,-1.104 12.57,-2.857c-1.373,-1.41 -2.37,-2.107 -2.985,-2.107h-1.41C233.224,40.785 230.382,42.441 228.709,45.607z" id="path_5"/><path fill="#008046" d="M240.416,21.412c0.323,0.555 0.698,2.137 1.125,4.748c-0.262,1.582 -0.952,2.369 -2.069,2.369h-0.15c-0.487,0 -1.117,-0.314 -1.912,-0.945c-0.54,0.953 -1.335,1.434 -2.37,1.434c-1.26,0 -1.89,-1.531 -1.89,-4.59c0.367,-1.164 0.683,-1.74 0.944,-1.74l0.15,0.156v2.701c0.217,0.938 0.487,1.402 0.795,1.402h0.638c0.66,0 1.08,-0.264 1.274,-0.787l-0.33,-2.371c0.128,-0.795 0.346,-1.215 0.638,-1.252h0.33c0.33,2.633 0.862,3.953 1.575,3.953h1.103v-0.158l-0.48,-3.158v-0.18C239.914,21.938 240.124,21.412 240.416,21.412z" id="path_6"/><path fill="#008046" d="M243.079,11.744c0.18,-0.105 0.232,0.061 0.157,0.488c-0.997,2.34 -2.527,3.975 -4.59,4.896l-7.583,3.803c-0.322,-0.09 -0.382,-0.352 -0.18,-0.795c1.013,-1.949 1.702,-3.105 2.07,-3.473L243.079,11.744z" id="path_7"/><path fill="#000001" d="M225.469,50.527c-3.412,0.201 -5.895,-1.373 -7.447,-4.725c-0.75,-1.246 -1.447,-9.639 -2.107,-25.178v-0.354c0.435,-2.58 1.08,-3.869 1.927,-3.869l0.886,-0.174c1.08,0 2.723,0.354 4.92,1.051v0.354c-0.12,0.352 -0.473,0.531 -1.058,0.531h-2.985c-0.614,0 -1.199,0.346 -1.763,1.051c0.548,13.492 1.343,21.307 2.4,23.445c1.05,2.137 2.798,3.09 5.228,2.857V50.527z" id="path_8"/><path fill="#000001" d="M211.631,40.814c1.051,1.057 2.048,3.338 2.985,6.855l0.18,2.287c0,4.133 -2.055,6.945 -6.157,8.438l-1.23,0.172l-3.119,0.045l-3.03,-0.045l-0.173,-0.172v-0.18c0.375,-0.406 2.896,-1.635 7.553,-3.691c2.933,-1.664 4.515,-3.135 4.747,-4.395c-1.522,-3.246 -2.28,-5.121 -2.28,-5.625V43.98C211.105,41.871 211.278,40.814 211.631,40.814z" id="path_9"/><path fill="#000001" d="M215.733,59.377c0.181,-0.098 0.232,0.061 0.157,0.488c-0.997,2.34 -2.527,3.975 -4.59,4.896l-7.582,3.803c-0.322,-0.09 -0.383,-0.352 -0.18,-0.787c1.012,-1.949 1.702,-3.105 2.069,-3.473L215.733,59.377z" id="path_10"/><path fill="#000001" d="M196.376,35.939h0.353c2.842,0 4.777,2.865 5.805,8.609v2.641c0,1.26 -0.705,2.955 -2.107,5.092c-3.315,4.223 -6.713,6.33 -10.2,6.33c-5.768,0 -9.404,-2.633 -10.897,-7.912l-0.353,-2.984v-0.172c0,-3.961 1.17,-7.238 3.518,-9.848l1.058,-0.705c0.232,0 0.345,0.18 0.345,0.531c-0.697,1.756 -1.402,3.135 -2.107,4.125c-0.705,0.998 -1.109,2.086 -1.229,3.256c0,4.365 2.055,7.178 6.149,8.438l3.165,0.352h0.181c4.627,0 8.437,-2.166 11.422,-6.502v-0.533c0,-0.613 -0.353,-1.26 -1.05,-1.926l-2.813,0.697c-3.165,-0.322 -4.747,-1.553 -4.747,-3.691v-0.352c0.262,-3.518 1.079,-5.273 2.46,-5.273L196.376,35.939z" id="path_11"/><path fill="#000001" d="M190.931,27.322c1.372,0.412 2.782,1.289 4.215,2.641v0.172c-1.313,2.316 -2.077,3.486 -2.279,3.518h-0.533c-0.989,-0.15 -2.047,-0.795 -3.157,-1.936v-0.172C189.288,30.164 189.873,28.762 190.931,27.322z" id="path_12"/><path fill="#000001" d="M197.613,26.445c1.282,0.291 2.572,1.057 3.862,2.287v0.172c0,0.645 -0.705,1.814 -2.107,3.518h-0.524c-0.825,0 -1.876,-0.645 -3.165,-1.936C196.001,28.672 196.646,27.322 197.613,26.445z" id="path_13"/><path fill="#000001" d="M192.378,11.699c1.801,0 2.7,1.109 2.7,3.322c0,3.525 -3.008,6.533 -9.03,9.008c-0.862,0.264 -0.967,-0.053 -0.308,-0.945c0.165,-0.338 1.583,-1.395 4.261,-3.164v-0.15c-1.155,-0.473 -1.732,-1.479 -1.732,-3.016c0.765,-3.367 1.979,-5.055 3.645,-5.055H192.378L192.378,11.699zM189.693,15.502c0,0.938 0.795,1.516 2.377,1.74h0.308c0.585,0 0.96,-0.217 1.118,-0.639c0,-0.951 -0.69,-1.693 -2.063,-2.219C190.833,14.385 190.256,14.76 189.693,15.502z" id="path_14"/><path fill="#000001" d="M172.068,20.992c0.352,0 0.705,1.178 1.057,3.518l1.583,3.518l-0.705,4.043l0.525,9.848v1.574c-0.232,4.02 -0.818,6.359 -1.755,7.035l-0.173,-0.174l0.173,-2.639c0,-2.371 -0.766,-9.93 -2.288,-22.672C171.221,22.342 171.745,20.992 172.068,20.992z" id="path_15"/><path fill="#000001" d="M158.957,47.145c0.203,0.016 0.421,0.023 0.66,0.023h1.665c1.763,-0.293 3.105,-0.908 4.043,-1.846l-2.107,-16.703c0.524,-3.164 0.997,-4.74 1.402,-4.74l2.287,5.273c0,0.816 -0.292,2.047 -0.877,3.689l0.877,9.488v2.639c-0.659,2.799 -1.545,4.756 -2.654,5.865c-0.841,0.893 -1.823,1.344 -2.971,1.344h-1.492c-0.293,0 -0.57,-0.008 -0.833,-0.023V47.145z" id="path_16"/><path fill="#e21171" d="M151.375,32.182c0.601,0 2.01,0.705 4.223,2.107c0,0.877 -0.705,2.289 -2.115,4.223c-2.813,-0.908 -4.215,-1.732 -4.215,-2.459C149.343,35.393 150.04,34.102 151.375,32.182z" id="path_17"/><path fill="#e21171" d="M144.978,47.168c1.253,0.014 2.025,-0.008 2.333,-0.068c2.64,-0.803 4.439,-2.512 5.407,-5.115c0.143,-0.502 0.435,-0.563 0.877,-0.18c0.233,0.203 0.413,1.027 0.525,2.459c1.598,2.154 3.593,3.121 5.978,2.904h0.465v5.01h-0.112c-3.735,-0.174 -6.487,-1.875 -8.265,-5.102h-0.173c-1.245,2.625 -2.888,4.238 -4.92,4.838c-0.615,0.172 -1.32,0.264 -2.115,0.264V47.168z" id="path_18"/><path fill="#e21171" d="M155.373,19.5c0.322,0.555 0.697,2.137 1.125,4.746c-0.263,1.584 -0.953,2.371 -2.07,2.371h-0.15c-0.487,0 -1.117,-0.314 -1.912,-0.945c-0.54,0.953 -1.335,1.434 -2.37,1.434c-1.26,0 -1.89,-1.531 -1.89,-4.592c0.367,-1.162 0.683,-1.738 0.944,-1.738l0.15,0.156v2.701c0.218,0.938 0.487,1.402 0.795,1.402h0.638c0.66,0 1.08,-0.264 1.274,-0.789l-0.33,-2.369c0.128,-0.795 0.346,-1.215 0.638,-1.252h0.33c0.33,2.633 0.862,3.951 1.575,3.951h1.103V24.42l-0.48,-3.158v-0.18C154.87,20.025 155.08,19.5 155.373,19.5z" id="path_19"/><path fill="#e21171" d="M158.027,9.832c0.181,-0.105 0.232,0.061 0.158,0.486c-0.998,2.342 -2.528,3.977 -4.591,4.898l-7.582,3.803c-0.322,-0.09 -0.383,-0.354 -0.18,-0.795c1.012,-1.951 1.702,-3.105 2.069,-3.473L158.027,9.832z" id="path_20"/><path fill="#0992d1" d="M120.145,45.518c1.44,0 2.49,0 3.166,0h0.704c2.107,-0.277 5.258,-1.178 9.45,-2.701c-1.41,-1.178 -3.577,-2.055 -6.502,-2.639c-1.732,0 -2.903,0.816 -3.518,2.459c-0.218,0.488 -0.413,0.615 -0.585,0.383c-0.165,-0.225 -0.21,-0.525 -0.12,-0.908c1.058,-3.547 2.46,-5.316 4.223,-5.316h1.229c1.17,0 3.285,0.66 6.338,1.98c3.053,1.313 5.685,1.844 7.897,1.582c0.277,0 0.397,0.172 0.353,0.525c-0.473,2.924 -1.351,4.395 -2.641,4.395l-0.877,0.172v0.354c0.442,1.215 2.468,1.656 6.09,1.318v4.988c-5.242,0.277 -7.86,-1.762 -7.845,-6.127c-1.875,0.277 -4.418,1.146 -7.628,2.625c-3.21,1.469 -6.45,2.1 -9.735,1.896V45.518z" id="path_21"/><path fill="#0992d1" d="M128.912,51.209c2.46,1.23 3.698,2.289 3.698,3.166c-1.178,2.309 -1.875,3.486 -2.115,3.51h-0.353c-1.8,-0.908 -2.91,-1.725 -3.338,-2.461C127.218,54.098 127.923,52.688 128.912,51.209z" id="path_22"/><path fill="#0992d1" d="M132.122,21.832h1.74c2.107,0 3.165,0.787 3.165,2.371c-1.364,3.689 -3.022,5.646 -4.973,5.871l-2.302,0.309c-0.368,0 -0.518,-0.105 -0.466,-0.309c1.86,-0.982 3.601,-2.152 5.213,-3.494c-0.569,-0.533 -1.2,-0.795 -1.89,-0.795h-0.488l-1.89,0.156l-0.149,-0.156v-0.309C130.975,23.047 131.657,21.832 132.122,21.832z" id="path_23"/><path fill="#213e95" d="M121.105,50.527c-0.188,0 -0.391,0 -0.593,0h-0.173c-1.702,-0.016 -3.345,-0.314 -4.928,-0.9c-1.694,2.932 -3.922,4.395 -6.675,4.395c-3.285,-0.473 -4.927,-1.814 -4.927,-4.041h-0.173c-0.556,1.873 -1.785,3.396 -3.69,4.566c-2.55,0.938 -4.545,1.41 -5.978,1.41l-0.81,0.105v-0.354c0.652,-0.539 2.422,-1.793 5.303,-3.758c2.88,-1.957 4.515,-3.188 4.897,-3.689c0.39,-0.494 0.952,-2.152 1.688,-4.965c1.402,-2.34 2.692,-3.518 3.862,-3.518h0.353c1.462,0 3.81,1.582 7.035,4.748c0.938,0.795 2.535,1.146 4.808,1.057V50.527L121.105,50.527zM105.925,45.758c0,1.551 1.23,2.609 3.69,3.164h0.877c1.995,-0.203 2.993,-0.494 2.993,-0.877c-2.317,-2.229 -4.073,-3.338 -5.28,-3.338h-0.173C107.035,44.707 106.33,45.059 105.925,45.758z" id="path_24"/><path fill="#213e95" d="M108.37,22.117c1.8,0 2.7,1.109 2.7,3.322c0,3.525 -3.008,6.533 -9.03,9.008c-0.862,0.262 -0.968,-0.053 -0.308,-0.945c0.165,-0.338 1.583,-1.395 4.261,-3.164v-0.15c-1.155,-0.473 -1.733,-1.479 -1.733,-3.016c0.766,-3.367 1.98,-5.055 3.646,-5.055H108.37L108.37,22.117zM105.686,25.92c0,0.938 0.795,1.514 2.377,1.74h0.308c0.585,0 0.96,-0.219 1.117,-0.639c0,-0.951 -0.689,-1.695 -2.063,-2.219C106.825,24.803 106.248,25.178 105.686,25.92z" id="path_25"/><path fill="#000001" d="M91.06,20.992c0.353,0 0.705,1.178 1.058,3.518l1.582,3.518l-0.705,4.043l0.525,9.848v1.574c-0.232,4.02 -0.817,6.359 -1.755,7.035l-0.173,-0.174l0.173,-2.639c0,-2.371 -0.766,-9.93 -2.288,-22.672C90.212,22.342 90.737,20.992 91.06,20.992z" id="path_26"/><path fill="#DD2C00" d="M76.749,45.494c0.202,0.016 0.42,0.023 0.66,0.023h1.665c1.763,-0.293 3.104,-0.908 4.042,-1.846l-2.107,-16.703c0.525,-3.164 0.998,-4.738 1.402,-4.738l2.288,5.271c0,0.818 -0.293,2.047 -0.878,3.689l0.878,9.488v2.641c-0.66,2.797 -1.545,4.754 -2.655,5.863c-0.84,0.893 -1.822,1.344 -2.97,1.344h-1.492c-0.293,0 -0.57,-0.008 -0.833,-0.023V45.494z" id="path_27"/><path fill="#213e95" d="M65.874,30.996c0.728,0 2.018,0.879 3.862,2.633c0,0.586 -0.697,1.875 -2.107,3.871h-0.352c-0.735,0 -1.846,-0.705 -3.338,-2.115v-0.172C63.939,34.508 64.584,33.104 65.874,30.996z" id="path_28"/><path fill="#213e95" d="M72.197,30.111c2.932,1.26 4.395,2.258 4.395,2.992c-0.172,0.557 -0.99,1.785 -2.46,3.691c-1.965,-0.766 -3.367,-1.643 -4.215,-2.641C70.532,32.197 71.289,30.848 72.197,30.111z" id="path_29"/><path fill="#213e95" d="M67.981,25.02c2.692,1.109 4.043,2.047 4.043,2.813l-2.288,3.51h-0.172c-0.503,0 -1.845,-0.697 -4.043,-2.107C66.602,26.422 67.427,25.02 67.981,25.02z" id="path_30"/><path fill="#213e95" d="M62.77,45.518c1.252,0.014 2.024,-0.008 2.332,-0.068c2.64,-0.803 4.44,-2.512 5.407,-5.115c0.143,-0.502 0.436,-0.563 0.878,-0.18c0.232,0.203 0.412,1.027 0.525,2.461c1.598,2.152 3.592,3.119 5.978,2.902h0.465v5.01h-0.112c-3.735,-0.174 -6.488,-1.875 -8.266,-5.1h-0.173c-1.244,2.625 -2.887,4.236 -4.919,4.836c-0.615,0.174 -1.32,0.264 -2.115,0.264V45.518z" id="path_31"/><path fill="#213e95" d="M71.777,14.092c0.322,0.555 0.697,2.137 1.125,4.748c-0.263,1.582 -0.953,2.369 -2.07,2.369h-0.15c-0.487,0 -1.117,-0.314 -1.912,-0.945c-0.54,0.953 -1.335,1.434 -2.37,1.434c-1.26,0 -1.89,-1.531 -1.89,-4.59c0.367,-1.162 0.683,-1.74 0.944,-1.74l0.15,0.158v2.699c0.218,0.938 0.487,1.402 0.795,1.402h0.638c0.66,0 1.08,-0.262 1.274,-0.787l-0.33,-2.371c0.128,-0.795 0.346,-1.215 0.638,-1.252h0.33c0.33,2.633 0.862,3.953 1.575,3.953h1.103v-0.158l-0.48,-3.158v-0.18C71.274,14.617 71.484,14.092 71.777,14.092z" id="path_32"/><path fill="#213e95" d="M74.439,4.424c0.18,-0.104 0.232,0.061 0.157,0.488c-0.997,2.34 -2.527,3.975 -4.59,4.896l-7.583,3.803c-0.322,-0.09 -0.382,-0.352 -0.18,-0.795c1.013,-1.949 1.702,-3.104 2.07,-3.473L74.439,4.424z" id="path_33"/><path fill="#000001" d="M62.814,50.527c-3.412,0.201 -5.896,-1.373 -7.447,-4.725c-0.75,-1.246 -1.447,-9.639 -2.107,-25.178v-0.354c0.435,-2.58 1.08,-3.869 1.927,-3.869l0.886,-0.174c1.079,0 2.723,0.354 4.92,1.051v0.354c-0.12,0.352 -0.473,0.531 -1.058,0.531h-2.985c-0.614,0 -1.2,0.346 -1.763,1.051c0.548,13.492 1.343,21.307 2.4,23.445c1.05,2.137 2.798,3.09 5.228,2.857V50.527z" id="path_34"/><path fill="#008046" d="M36.909,45.518h0.878c5.467,-0.105 9.098,-0.871 10.897,-2.311l0.353,-0.697c-0.232,-0.563 -0.525,-0.84 -0.878,-0.84c-0.848,0.473 -1.785,0.705 -2.813,0.705h-0.18c-3.045,-0.354 -4.628,-1.584 -4.74,-3.691v-0.18c0.293,-3.982 1.23,-5.969 2.813,-5.969h0.878c2.707,-0.135 4.763,1.973 6.149,6.322l0.173,1.762v0.354c-0.037,4.305 -1.583,7.146 -4.635,8.52c-1.08,0.689 -4.051,1.035 -8.896,1.035V45.518z" id="path_35"/><path fill="#008046" d="M44.642,23.348c1.905,0.584 3.548,1.521 4.92,2.813v0.172c0,0.734 -0.757,1.904 -2.279,3.518c-0.473,0 -2.056,-0.586 -4.748,-1.756v0.174c-0.938,1.814 -1.522,2.752 -1.763,2.813c-1.522,-0.322 -2.812,-1.027 -3.862,-2.107c0.705,-2.934 1.29,-4.396 1.755,-4.396c0.383,0 1.785,0.705 4.223,2.107C42.887,26.07 43.472,24.959 44.642,23.348z" id="path_36"/><path fill="#008046" d="M49.757,53.137c0.181,-0.098 0.232,0.061 0.157,0.488c-0.997,2.34 -2.527,3.975 -4.59,4.896l-7.582,3.803c-0.322,-0.09 -0.383,-0.352 -0.181,-0.787c1.013,-1.949 1.703,-3.105 2.07,-3.473L49.757,53.137z" id="path_37"/><path fill="#0992d1" d="M20.274,53.955c0.601,0 2.003,0.705 4.215,2.107c0,0.877 -0.705,2.287 -2.107,4.223c-2.813,-0.908 -4.223,-1.732 -4.223,-2.461C18.234,57.164 18.939,55.875 20.274,53.955z" id="path_38"/><path fill="#0992d1" d="M37.502,50.549c-2.242,-0.18 -4.274,-1.754 -6.09,-4.725c-2.692,3.277 -6.563,4.92 -11.603,4.92h-1.402c-5.452,0 -9.202,-2.34 -11.25,-7.027L6.977,42.66v-1.584c0,-1.693 0.766,-3.629 2.288,-5.797h0.173l0.352,0.354v0.877l-0.877,2.813c0,3.074 2.58,5.182 7.732,6.33l3.165,0.172c5.482,0 9.817,-1.875 13.013,-5.625c0.172,0 0.345,0.232 0.524,0.705l-0.18,1.23c0.601,2.213 2.048,3.322 4.335,3.338V50.549z" id="path_39"/><path fill="#0992d1" d="M21.812,22.709c1.801,0 2.7,1.111 2.7,3.322c0,3.525 -3.008,6.533 -9.03,9.008c-0.862,0.264 -0.967,-0.053 -0.307,-0.945c0.165,-0.336 1.582,-1.395 4.26,-3.164v-0.15c-1.155,-0.473 -1.732,-1.477 -1.732,-3.016c0.765,-3.367 1.979,-5.055 3.645,-5.055H21.812L21.812,22.709zM19.127,26.512c0,0.938 0.795,1.516 2.377,1.74h0.308c0.586,0 0.961,-0.217 1.118,-0.637c0,-0.953 -0.69,-1.695 -2.063,-2.221C20.268,25.395 19.689,25.77 19.127,26.512z" id="path_40"/></svg>