<svg id="vector" xmlns="http://www.w3.org/2000/svg" width="75" height="67" viewBox="0 0 84 73"><path fill="#008046" d="M64.403,36.977c2.459,1.229 3.689,2.287 3.689,3.165c-1.17,2.31 -1.875,3.487 -2.107,3.518h-0.353c-1.8,-0.908 -2.917,-1.732 -3.337,-2.461C62.7,39.864 63.405,38.454 64.403,36.977z" id="path_0"/><path fill="#008046" d="M54.817,55.104h2.025c2.138,-0.293 5.535,-1.088 10.193,-2.371v-0.18c-4.246,-1.875 -6.938,-2.813 -8.086,-2.813c-1.553,0 -2.603,0.877 -3.165,2.641l-0.524,0.352c-0.232,0 -0.354,-0.18 -0.354,-0.532c0.586,-3.51 2.168,-5.272 4.748,-5.272h0.877c1.088,0 4.778,1.23 11.078,3.689l4.748,0.354l0.344,0.532c-0.082,0.788 -0.787,2.31 -2.106,4.567H74.07l-0.705,-0.18h-0.878c-9.143,2.699 -14.475,4.102 -15.997,4.223h-1.673V55.104z" id="path_1"/><path fill="#008046" d="M70.313,26.034c0.18,-0.105 0.232,0.06 0.156,0.487c-0.997,2.34 -2.527,3.975 -4.59,4.897l-7.582,3.803c-0.322,-0.09 -0.383,-0.353 -0.18,-0.795c1.012,-1.95 1.702,-3.105 2.07,-3.473L70.313,26.034z" id="path_2"/><path fill="#DD2C00" d="M37.245,55.104c1.95,0.164 3.607,-0.031 4.987,-0.57l-0.728,-1.32c-0.683,-3.87 -0.375,-6.428 0.923,-7.68c1.305,-1.253 2.707,-1.83 4.2,-1.725c2.902,0.135 4.537,1.656 4.92,4.566v1.058c0,2.431 -0.353,3.952 -1.051,4.567c-0.442,0.457 0.556,0.84 2.985,1.148l0.57,-0.023c0.442,-0.015 0.944,-0.021 1.515,-0.021v5.01l-1.777,0.021c-3.308,-0.015 -5.813,-0.435 -7.515,-1.252c-2.341,0.817 -4.163,1.23 -5.445,1.23h-0.705c-0.878,0 -1.838,0 -2.88,0V55.104L37.245,55.104zM43.463,50.139v0.353c0.734,1.26 1.845,2.138 3.337,2.633c0.998,-0.173 1.995,-0.586 2.992,-1.23c-0.442,-1.643 -1.904,-2.58 -4.395,-2.813C44.107,49.434 43.463,49.786 43.463,50.139z" id="path_3"/><path fill="#DD2C00" d="M44.52,35.199c1.522,0 2.926,0.938 4.216,2.812c-1.08,2.461 -1.905,3.69 -2.46,3.69c-2.37,-1.17 -3.66,-1.935 -3.87,-2.288C42.405,38.304 43.11,36.894 44.52,35.199z" id="path_4"/><path fill="#DD2C00" d="M47.872,22.366c0.323,0.556 0.698,2.138 1.126,4.748c-0.263,1.582 -0.953,2.37 -2.07,2.37h-0.15c-0.487,0 -1.117,-0.315 -1.912,-0.945c-0.54,0.952 -1.335,1.433 -2.37,1.433c-1.26,0 -1.89,-1.53 -1.89,-4.59c0.367,-1.163 0.683,-1.74 0.944,-1.74l0.15,0.157v2.7c0.218,0.938 0.487,1.402 0.795,1.402h0.638c0.66,0 1.08,-0.263 1.274,-0.787l-0.33,-2.37c0.128,-0.795 0.346,-1.215 0.638,-1.253h0.33c0.33,2.633 0.862,3.953 1.575,3.953h1.103v-0.158l-0.48,-3.157v-0.18C47.37,22.892 47.58,22.366 47.872,22.366z" id="path_5"/><path fill="#DD2C00" d="M50.535,12.699c0.18,-0.105 0.232,0.06 0.157,0.487c-0.997,2.34 -2.527,3.975 -4.59,4.897l-7.583,3.803c-0.322,-0.09 -0.382,-0.353 -0.18,-0.795c1.013,-1.95 1.702,-3.105 2.07,-3.473L50.535,12.699z" id="path_6"/><path fill="#000001" d="M37.814,60.136c-2.242,-0.18 -4.268,-1.754 -6.09,-4.725c-2.692,3.277 -6.563,4.92 -11.595,4.92h-1.41c-5.444,0 -9.195,-2.34 -11.25,-7.027l-0.172,-1.058v-1.583c0,-1.694 0.757,-3.629 2.279,-5.797h0.181l0.353,0.353v0.878l-0.886,2.813c0,3.074 2.58,5.182 7.74,6.33l3.165,0.172c5.475,0 9.81,-1.875 13.005,-5.625c0.173,0 0.353,0.232 0.525,0.705l-0.173,1.23c0.6,2.212 2.04,3.322 4.327,3.337V60.136z" id="path_7"/><path fill="#000001" d="M17.49,43.456h0.353c1.199,0.263 2.489,0.968 3.87,2.107v0.18c-0.795,2.4 -1.501,3.69 -2.115,3.871c-1.785,-0.354 -3.136,-0.938 -4.043,-1.763v-0.173C15.555,46.299 16.2,44.896 17.49,43.456z" id="path_8"/><path fill="#000001" d="M23.992,41.874h0.18c1.2,0.18 2.551,0.997 4.043,2.46v0.18l-2.115,3.69c-2.813,-0.908 -4.215,-1.673 -4.215,-2.288C22.792,43.224 23.497,41.874 23.992,41.874z" id="path_9"/><path fill="#000001" d="M20.715,29.222h1.74c2.107,0 3.165,0.787 3.165,2.37c-1.365,3.689 -3.022,5.647 -4.973,5.872l-2.303,0.307c-0.367,0 -0.518,-0.104 -0.465,-0.307c1.86,-0.982 3.6,-2.152 5.213,-3.495c-0.57,-0.532 -1.2,-0.795 -1.891,-0.795h-0.487l-1.89,0.157l-0.15,-0.157v-0.308C19.567,30.437 20.25,29.222 20.715,29.222z" id="path_10"/></svg>