<svg id="vector" xmlns="http://www.w3.org/2000/svg" width="75" height="67" viewBox="0 0 84 73"><path fill="#000001" d="M54.559,44.689c0.24,0 0.488,0 0.75,0h0.18c2.191,-0.135 4.186,-1.958 5.971,-5.468c1.936,-2.932 3.93,-4.395 5.977,-4.395c2.58,0 3.871,1.635 3.871,4.92v0.877c0,1.613 -0.645,3.721 -1.936,6.33l-1.23,0.878c-1.086,0 -3.6,-0.765 -7.559,-2.288c-1.201,1.801 -2.139,2.896 -2.813,3.277c-1.027,0.713 -2.078,1.014 -3.166,0.879h-0.045V44.689L54.559,44.689zM63.395,40.978v0.172c3.045,1.178 4.867,1.763 5.451,1.763c0.232,0 0.354,-0.181 0.354,-0.532c-0.676,-1.756 -1.793,-2.633 -3.346,-2.633C64.773,39.747 63.949,40.159 63.395,40.978z" id="path_0"/><path fill="#000001" d="M69.064,21.042c0.18,-0.104 0.232,0.061 0.156,0.487c-0.996,2.341 -2.527,3.976 -4.59,4.898l-7.582,3.802c-0.322,-0.09 -0.383,-0.353 -0.18,-0.795c1.012,-1.95 1.703,-3.104 2.07,-3.473L69.064,21.042z" id="path_1"/><path fill="#008046" d="M54.775,49.715c-0.156,0.015 -0.322,0.022 -0.479,0.022h-0.885c-1.373,0 -2.311,-0.113 -2.813,-0.353c-1.021,3.944 -2.213,6.36 -3.578,7.245s-4.447,1.635 -9.248,2.25h-0.352c-1.059,-0.12 -1.584,-0.293 -1.584,-0.525c0,-0.353 0.879,-0.766 2.633,-1.23c6.916,-3.164 10.373,-5.451 10.373,-6.854c0,-0.585 -0.818,-1.935 -2.459,-4.042c-0.354,-0.593 -0.525,-1.351 -0.525,-2.288v-1.755c0,-0.885 0.172,-1.35 0.525,-1.41c1.521,2.332 4.102,3.63 7.73,3.908c0.227,0 0.443,0 0.66,-0.016V49.715z" id="path_2"/><path fill="#008046" d="M48.012,28.01c0.322,0.555 0.697,2.138 1.125,4.747c-0.262,1.583 -0.953,2.37 -2.07,2.37h-0.15c-0.486,0 -1.117,-0.314 -1.912,-0.945c-0.539,0.953 -1.334,1.434 -2.369,1.434c-1.262,0 -1.891,-1.53 -1.891,-4.591c0.367,-1.162 0.682,-1.739 0.945,-1.739l0.15,0.157v2.7c0.217,0.938 0.486,1.402 0.795,1.402h0.637c0.66,0 1.08,-0.263 1.275,-0.788l-0.33,-2.37c0.127,-0.794 0.344,-1.215 0.637,-1.252h0.33c0.33,2.633 0.863,3.952 1.576,3.952h1.102V32.93l-0.48,-3.157v-0.18C47.51,28.535 47.719,28.01 48.012,28.01z" id="path_3"/><path fill="#008046" d="M45.814,14.12c1.799,0 2.699,1.11 2.699,3.322c0,3.525 -3.008,6.532 -9.029,9.008c-0.863,0.263 -0.969,-0.053 -0.309,-0.945c0.166,-0.338 1.582,-1.395 4.26,-3.165v-0.15c-1.154,-0.472 -1.732,-1.477 -1.732,-3.015c0.766,-3.367 1.98,-5.055 3.646,-5.055H45.814L45.814,14.12zM43.129,17.923c0,0.938 0.795,1.515 2.377,1.739h0.309c0.584,0 0.959,-0.217 1.117,-0.637c0,-0.953 -0.689,-1.695 -2.063,-2.221C44.27,16.805 43.691,17.18 43.129,17.923z" id="path_4"/><path fill="#000001" d="M28.361,40.579h0.705c2.055,0 3.578,1.756 4.574,5.273l0.174,1.754c0.059,0.57 0.059,1.156 0,1.764c-0.525,2.137 -1.703,4.244 -3.518,6.322c-1.26,1.057 -4.125,1.875 -8.611,2.46c-0.523,-0.233 -0.824,-0.466 -0.877,-0.698c7.5,-4.072 11.25,-6.531 11.25,-7.387l0.172,-0.525l-0.172,-0.172l-1.582,0.524H29.6c-3.166,0 -4.748,-1.117 -4.748,-3.337v-0.354c0.404,-3.637 1.289,-5.452 2.633,-5.452L28.361,40.579z" id="path_5"/><path fill="#DD2C00" d="M14.275,21.26c0.354,0 0.705,1.178 1.059,3.518l1.582,3.518l-0.705,4.042l0.525,9.848v1.575c-0.232,4.021 -0.818,6.36 -1.756,7.034l-0.172,-0.172l0.172,-2.641c0,-2.369 -0.764,-9.93 -2.287,-22.672C13.43,22.61 13.953,21.26 14.275,21.26z" id="path_6"/></svg>