<svg id="vector" xmlns="http://www.w3.org/2000/svg" width="94" height="67" viewBox="0 0 101.905 72.96"><path fill="#213e95" d="M79.07,26.159c0.332,0 0.665,1.178 0.997,3.518l1.493,3.518l-0.665,4.043l0.495,9.848v1.574c-0.22,4.021 -0.771,6.361 -1.655,7.035l-0.163,-0.172l0.163,-2.641c0,-2.369 -0.722,-9.93 -2.157,-22.672C78.271,27.51 78.767,26.159 79.07,26.159z" id="path_0"/><path fill="#DD2C00" d="M74.395,40.515c-0.367,1.988 -1.252,3.57 -2.631,4.748c-1.273,0.967 -3.643,1.904 -7.13,2.813c-7.307,0.494 -11.438,0.082 -12.392,-1.23c-1.019,-1.133 2.56,-2.018 10.736,-2.662c4.279,-0.645 7.597,-1.867 9.945,-3.668c0.028,-0.016 0.056,-0.09 0.084,-0.232c0.028,-0.135 -0.643,-5.641 -2.008,-16.516c0.495,-3.164 0.94,-4.74 1.322,-4.74l2.157,5.273c0,0.817 -0.275,2.047 -0.827,3.689l0.827,9.488C74.522,39.104 74.493,40.118 74.395,40.515z" id="path_1"/><path fill="#008046" d="M42.403,43.261h0.644c2.185,-0.248 4.024,-1.65 5.517,-4.201c0.219,-0.525 0.438,-0.816 0.658,-0.877h0.169l0.496,0.531c-0.071,0.668 -0.178,1.141 -0.333,1.404c0.969,1.873 2.129,2.813 3.479,2.813l0.17,0.172c2.405,-5.625 5.107,-8.438 8.12,-8.438c2.405,0 4.174,1.057 5.306,3.164v1.059c0,6.441 -3.757,9.666 -11.275,9.666l-2.482,-0.172c-0.771,2.221 -1.273,3.338 -1.492,3.338l-0.163,-0.172v-0.182l0.495,-2.984V48.03c-1.634,-0.969 -2.9,-2.318 -3.813,-4.043c-0.855,2.971 -2.688,4.402 -5.495,4.283V43.261L42.403,43.261zM54.858,43.454h0.333c3.756,0 6.96,-0.584 9.612,-1.754c0,-1.26 -1.104,-2.139 -3.311,-2.641h-0.665C58.176,39.06 56.188,40.53 54.858,43.454z" id="path_2"/><path fill="#008046" d="M57.462,20.407c0.304,0.555 0.657,2.137 1.061,4.747c-0.247,1.583 -0.898,2.37 -1.952,2.37h-0.142c-0.46,0 -1.054,-0.314 -1.804,-0.945c-0.509,0.953 -1.259,1.434 -2.234,1.434c-1.189,0 -1.783,-1.531 -1.783,-4.591c0.347,-1.163 0.645,-1.739 0.892,-1.739l0.142,0.157v2.7c0.205,0.938 0.46,1.402 0.75,1.402h0.601c0.623,0 1.019,-0.264 1.203,-0.788l-0.312,-2.37c0.12,-0.795 0.325,-1.215 0.602,-1.252h0.311c0.312,2.633 0.813,3.952 1.485,3.952h1.04v-0.157l-0.453,-3.158v-0.18C56.987,20.933 57.186,20.407 57.462,20.407z" id="path_3"/><path fill="#008046" d="M55.396,6.517c1.697,0 2.546,1.111 2.546,3.323c0,3.524 -2.836,6.532 -8.516,9.007c-0.813,0.264 -0.913,-0.053 -0.29,-0.944c0.155,-0.338 1.492,-1.396 4.018,-3.165v-0.15c-1.09,-0.473 -1.634,-1.477 -1.634,-3.015c0.722,-3.368 1.867,-5.056 3.438,-5.056H55.396L55.396,6.517zM52.864,10.319c0,0.938 0.75,1.516 2.242,1.74h0.29c0.552,0 0.905,-0.217 1.054,-0.637c0,-0.953 -0.65,-1.695 -1.945,-2.221C53.939,9.202 53.395,9.577 52.864,10.319z" id="path_4"/><path fill="#0992d1" d="M34.254,50.204c0.566,0 1.896,0.705 3.982,2.107c0,0.879 -0.664,2.289 -1.994,4.223c-2.652,-0.914 -3.976,-1.732 -3.976,-2.467C32.338,53.415 32.995,52.124 34.254,50.204z" id="path_5"/><path fill="#0992d1" d="M28.221,43.261c1.182,0.014 1.91,-0.008 2.2,-0.068c2.489,-0.803 4.188,-2.512 5.1,-5.115c0.135,-0.502 0.41,-0.563 0.827,-0.18c0.22,0.203 0.39,1.027 0.496,2.459c1.506,2.154 3.388,3.121 5.637,2.904h0.438v5.01h-0.105c-3.522,-0.174 -6.119,-1.875 -7.795,-5.102h-0.163c-1.174,2.625 -2.723,4.238 -4.64,4.838c-0.58,0.172 -1.245,0.264 -1.995,0.264V43.261z" id="path_6"/><path fill="#0992d1" d="M34.29,21.524h1.641c1.987,0 2.985,0.787 2.985,2.37c-1.287,3.69 -2.851,5.647 -4.689,5.872l-2.172,0.309c-0.347,0 -0.488,-0.105 -0.438,-0.309c1.754,-0.982 3.396,-2.152 4.916,-3.494c-0.538,-0.533 -1.132,-0.795 -1.782,-0.795h-0.46l-1.782,0.157l-0.142,-0.157V25.17C33.208,22.739 33.852,21.524 34.29,21.524z" id="path_7"/><path fill="#000001" d="M30.074,48.353c-0.325,0.016 -0.658,0.021 -0.99,0.021l-1.577,-0.021c-5.744,-0.016 -8.884,-2.242 -9.407,-6.697l0.162,-1.582v-1.41H18.1c-6.189,3.607 -9.287,7.822 -9.287,12.66c0,3.689 2.051,6.621 6.139,8.789c4.832,1.291 9.309,1.936 13.426,1.936l4.145,-0.18l0.162,0.18v0.172c-4.71,2.813 -7.914,4.223 -9.612,4.223h-1.492c-5.941,0 -9.917,-1.643 -11.933,-4.928c-1.549,-1.814 -2.319,-4.688 -2.319,-8.609V52.2c0,-5.738 2.928,-10.838 8.784,-15.293v-0.172l-5.142,-0.354c-2.307,0 -3.742,1.111 -4.308,3.338l-0.17,0.18H6.16c-0.22,0 -0.326,-0.18 -0.326,-0.531c0.842,-5.154 2.773,-7.733 5.8,-7.733h0.665l8.615,0.353l6.635,-0.353l0.163,0.524c-0.813,2.813 -1.755,4.223 -2.815,4.223c-3.424,0.863 -5.143,1.508 -5.143,1.936v1.582c0.361,2.184 3.304,3.33 8.828,3.443h0.502c0.347,0 0.672,-0.008 0.99,-0.016V48.353z" id="path_8"/><path fill="#000001" d="M25.93,49.956c0.169,-0.098 0.219,0.061 0.148,0.488c-0.941,2.34 -2.384,3.975 -4.329,4.896l-7.151,3.803c-0.304,-0.09 -0.36,-0.352 -0.169,-0.787c0.954,-1.949 1.605,-3.105 1.952,-3.473L25.93,49.956z" id="path_9"/><path fill="#000001" d="M90.887,40.497h0.665c1.938,0 3.373,1.754 4.314,5.271l0.162,1.756c0.057,0.57 0.057,1.154 0,1.762c-0.495,2.139 -1.605,4.246 -3.317,6.322c-1.188,1.059 -3.89,1.875 -8.119,2.461c-0.495,-0.232 -0.778,-0.465 -0.828,-0.697c7.073,-4.072 10.61,-6.533 10.61,-7.389l0.162,-0.525l-0.162,-0.172l-1.493,0.525h-0.827c-2.985,0 -4.478,-1.117 -4.478,-3.338v-0.352c0.382,-3.639 1.217,-5.453 2.482,-5.453L90.887,40.497z" id="path_10"/><path fill="#000001" d="M95.279,26.254c0.169,-0.104 0.219,0.06 0.148,0.487c-0.941,2.34 -2.384,3.975 -4.329,4.898l-7.151,3.802c-0.304,-0.09 -0.36,-0.353 -0.169,-0.795c0.954,-1.95 1.605,-3.104 1.952,-3.473L95.279,26.254z" id="path_11"/></svg>