<svg id="vector" xmlns="http://www.w3.org/2000/svg" width="75" height="67" viewBox="0 0 84 73"><path fill="#000001" d="M69.911,36.568h0.338c1.152,0.263 2.391,0.96 3.716,2.106v0.174c-0.763,2.406 -1.433,3.689 -2.023,3.869c-1.722,-0.352 -3.01,-0.938 -3.882,-1.755v-0.18C68.06,39.403 68.679,38.001 69.911,36.568z" id="path_0"/><path fill="#000001" d="M76.162,34.985h0.166c1.152,0.173 2.448,0.99 3.882,2.46v0.173l-2.024,3.689c-2.701,-0.907 -4.055,-1.664 -4.055,-2.279C75.002,36.328 75.679,34.985 76.162,34.985z" id="path_1"/><path fill="#000001" d="M68.413,54.868c4.421,0.045 6.892,-0.818 7.432,-2.596c0,-0.614 -0.562,-2.137 -1.692,-4.566l0.511,-4.568h0.331c1.469,2.633 2.197,5.272 2.197,7.905v1.583c0,1.057 -0.245,2.167 -0.728,3.33c-0.482,1.162 -1.231,2.145 -2.233,2.932c-1.008,0.795 -2.945,1.125 -5.818,0.99V54.868z" id="path_2"/><path fill="#000001" d="M79.107,25.535c0.173,-0.104 0.223,0.061 0.151,0.487c-0.958,2.341 -2.427,3.976 -4.408,4.898l-7.281,3.802c-0.31,-0.09 -0.367,-0.352 -0.173,-0.795c0.972,-1.95 1.635,-3.104 1.988,-3.473L79.107,25.535z" id="path_3"/><path fill="#008046" d="M44.885,53.218c1.382,0 2.391,0 3.039,0h0.677c2.023,-0.277 5.049,-1.178 9.074,-2.699c-1.354,-1.178 -3.435,-2.056 -6.244,-2.641c-1.664,0 -2.787,0.817 -3.378,2.46c-0.208,0.487 -0.396,0.614 -0.562,0.382c-0.159,-0.225 -0.202,-0.524 -0.115,-0.906c1.016,-3.548 2.362,-5.318 4.055,-5.318h1.181c1.123,0 3.154,0.66 6.085,1.98c2.931,1.313 5.459,1.846 7.583,1.582c0.267,0 0.382,0.173 0.339,0.525c-0.454,2.925 -1.296,4.395 -2.535,4.395l-0.843,0.173v0.353c0.425,0.923 2.37,1.365 5.848,1.32v4.987c-5.034,0.277 -7.548,-1.763 -7.533,-6.128c-1.8,0.277 -4.242,1.147 -7.324,2.625c-3.082,1.471 -6.193,2.1 -9.348,1.898V53.218z" id="path_4"/><path fill="#008046" d="M53.304,35.091c2.362,1.229 3.55,2.287 3.55,3.164c-1.13,2.311 -1.801,3.488 -2.031,3.518h-0.338c-1.729,-0.907 -2.794,-1.732 -3.205,-2.459C51.676,37.978 52.353,36.568 53.304,35.091z" id="path_5"/><path fill="#008046" d="M59.886,24.081c0.173,-0.105 0.224,0.06 0.151,0.487c-0.958,2.34 -2.427,3.975 -4.408,4.897l-7.281,3.803c-0.31,-0.09 -0.367,-0.353 -0.173,-0.795c0.972,-1.95 1.635,-3.105 1.988,-3.473L59.886,24.081z" id="path_6"/><path fill="#000001" d="M32.613,53.218c0.029,0 0.065,0 0.101,0c2.701,-0.172 4.249,-1.433 4.645,-3.779c-1.016,-7.028 -1.52,-11.955 -1.52,-14.768c0,-1.08 0.454,-2.49 1.354,-4.215l0.166,0.172l0.338,0.353l-0.173,1.23c0.144,7.897 1.102,14.017 2.874,18.366c0.677,1.583 2.333,2.469 4.976,2.641v5.01c-3.629,-0.06 -6.071,-2.047 -7.339,-5.977h-0.173c-1.167,3.938 -2.917,5.932 -5.25,5.977V53.218z" id="path_7"/><path fill="#000001" d="M39.973,21.591c0.31,0.555 0.669,2.138 1.08,4.747c-0.252,1.583 -0.915,2.37 -1.988,2.37h-0.144c-0.468,0 -1.073,-0.314 -1.836,-0.945c-0.519,0.953 -1.282,1.433 -2.276,1.433c-1.21,0 -1.814,-1.529 -1.814,-4.59c0.353,-1.162 0.655,-1.74 0.907,-1.74l0.144,0.158v2.7c0.208,0.938 0.468,1.402 0.763,1.402h0.612c0.634,0 1.037,-0.263 1.224,-0.788l-0.317,-2.37c0.123,-0.795 0.332,-1.215 0.612,-1.252h0.317c0.317,2.633 0.828,3.952 1.512,3.952h1.059v-0.157l-0.461,-3.157v-0.181C39.49,22.115 39.692,21.591 39.973,21.591z" id="path_8"/><path fill="#000001" d="M42.522,13.123c0.173,-0.105 0.223,0.06 0.151,0.487c-0.958,2.34 -2.427,3.975 -4.407,4.897l-7.281,3.803c-0.31,-0.09 -0.367,-0.353 -0.173,-0.795c0.973,-1.95 1.635,-3.105 1.988,-3.473L42.522,13.123z" id="path_9"/><path fill="#DD2C00" d="M33.095,58.251c-2.153,-0.181 -4.098,-1.756 -5.848,-4.726c-2.585,3.277 -6.302,4.92 -11.134,4.92h-1.354c-5.228,0 -8.829,-2.34 -10.802,-7.027L3.792,50.36v-1.582c0,-1.695 0.728,-3.631 2.189,-5.798h0.173l0.338,0.353v0.877l-0.85,2.813c0,3.075 2.478,5.184 7.432,6.33l3.039,0.173c5.258,0 9.42,-1.875 12.488,-5.625c0.166,0 0.339,0.232 0.504,0.705l-0.166,1.229c0.576,2.213 1.959,3.322 4.155,3.338V58.251z" id="path_10"/><path fill="#DD2C00" d="M13.579,41.57h0.338c1.152,0.263 2.391,0.968 3.716,2.107v0.181c-0.764,2.399 -1.441,3.689 -2.031,3.869c-1.714,-0.352 -3.01,-0.938 -3.881,-1.762v-0.173C11.721,44.413 12.34,43.011 13.579,41.57z" id="path_11"/><path fill="#DD2C00" d="M19.822,39.987h0.173c1.152,0.181 2.449,0.998 3.882,2.461v0.18l-2.031,3.689c-2.701,-0.906 -4.047,-1.672 -4.047,-2.287C18.67,41.338 19.347,39.987 19.822,39.987z" id="path_12"/><path fill="#DD2C00" d="M16.675,27.336h1.671c2.023,0 3.039,0.787 3.039,2.37c-1.311,3.689 -2.902,5.647 -4.775,5.872l-2.211,0.308c-0.353,0 -0.497,-0.105 -0.446,-0.308c1.786,-0.982 3.457,-2.152 5.005,-3.495c-0.547,-0.532 -1.153,-0.795 -1.815,-0.795h-0.468l-1.814,0.157l-0.144,-0.157V30.98C15.574,28.551 16.229,27.336 16.675,27.336z" id="path_13"/></svg>