<svg id="vector" xmlns="http://www.w3.org/2000/svg" width="75" height="67" viewBox="0 0 84 75"><path fill="#1224C5" d="M14.709,33.277c0.053,0.098 0.098,0.26 0.154,0.468c-0.464,0.724 -1.11,1.814 -1.96,3.258c-1.535,2.375 -2.453,4.755 -2.771,7.139c-0.313,2.518 0.045,4.682 1.083,6.496c1.866,3.754 4.892,6.262 9.07,7.515c2.902,0.842 6.812,1.03 11.711,0.549c7.029,-1.955 11.296,-4.905 12.798,-8.856c-0.109,-2.771 -0.704,-5.342 -1.778,-7.725c-0.428,-0.984 -1.077,-2.437 -1.951,-4.356c-0.106,-1.537 0.02,-3.766 0.39,-6.67c0.304,-0.054 0.586,0.024 0.846,0.235c0.814,0.639 2.034,1.558 3.649,2.778c1.394,0.902 2.857,1.461 4.392,1.695c1.571,-2.663 3.133,-5.344 4.673,-8.041c2.176,-3.103 4.675,-4.896 7.508,-5.368c0.978,-0.334 2.006,-0.505 3.096,-0.505c2.438,0 4.89,0.684 7.383,2.059c2.317,2.273 3.481,4.186 3.481,5.738c0,0.262 -0.028,0.55 -0.081,0.866c-0.415,4.682 -2.254,8.168 -5.521,10.429c-4.937,2.538 -9.861,3.812 -14.783,3.812c-3.202,0 -6.097,-0.599 -8.688,-1.799c-0.549,-0.104 -0.821,0.029 -0.821,0.398c0.119,0.929 0.18,1.831 0.18,2.697c0,2.481 -0.453,4.946 -1.372,7.384c-1.532,3.943 -4.148,7.181 -7.849,9.691c-3.701,2.518 -7.695,3.771 -11.975,3.771c-4.393,0 -8.213,-1.289 -11.478,-3.88c-4.385,-3.482 -6.577,-8.502 -6.577,-15.062c0,-2.726 0.469,-5.26 1.398,-7.577c1.696,-3.197 3.418,-5.553 5.179,-7.069C14.445,33.302 14.654,33.277 14.709,33.277L14.709,33.277zM64.22,29.19c-0.55,-0.058 -1.054,-0.082 -1.533,-0.082c-3.627,0 -6.856,2.327 -9.671,6.983c0.963,0.423 1.756,0.607 2.369,0.549c1.03,0.059 2.014,0.082 2.97,0.082c5.813,0 10.664,-1.216 14.564,-3.644c-0.315,-0.757 -0.894,-1.408 -1.724,-1.932c-0.314,-0.218 -1.091,-0.651 -2.319,-1.327C67.019,29.17 65.478,28.963 64.22,29.19L64.22,29.19zM47.381,17.81v-0.261c0.887,-1.235 2.147,-2.915 3.808,-5.056h0.182c1.343,1.445 3.023,2.754 5.053,3.917c0.058,0.058 0.081,0.118 0.081,0.208l-3.673,4.975c-0.033,0.016 -0.098,0.023 -0.187,0.023c-0.11,0 -0.288,-0.044 -0.554,-0.134C50.821,20.905 49.253,19.677 47.381,17.81z" id="path_0"/><path fill="#E11958" d="M9.597,20.124c2.81,1.006 4.214,2.249 4.214,3.721l0.084,0.498c-0.234,1.928 -0.869,2.892 -1.902,2.892c0,0.178 -1.375,0.402 -4.133,0.663l-0.086,-0.248c0,-1.379 0.249,-2.066 0.749,-2.066c2.754,-0.225 4.266,-0.554 4.543,-0.998c-0.947,-0.919 -2.188,-1.662 -3.718,-2.228l-0.085,-0.415C9.308,20.733 9.416,20.124 9.597,20.124L9.597,20.124zM19.691,27.897c-1.606,0.094 -2.773,-0.647 -3.503,-2.226c-0.353,-0.586 -0.682,-4.53 -0.991,-11.836v-0.168c0.202,-1.214 0.509,-1.821 0.906,-1.821l0.415,-0.081c0.509,0 1.28,0.167 2.314,0.496v0.167c-0.057,0.163 -0.22,0.248 -0.495,0.248h-1.404c-0.289,0 -0.564,0.163 -0.83,0.497c0.257,6.341 0.631,10.017 1.126,11.021c0.497,1.006 1.318,1.453 2.462,1.344V27.897L19.691,27.897zM25.476,17.948c1.377,0.439 2.069,0.797 2.069,1.069v0.167c-0.443,1.213 -0.8,1.818 -1.078,1.818c-1.113,-0.456 -1.748,-0.757 -1.898,-0.907V19.93C24.792,19.104 25.089,18.441 25.476,17.948L25.476,17.948zM19.513,25.538v2.359c1.399,0.056 2.313,-0.619 2.74,-2.018c0.457,0.813 1.087,1.446 1.9,1.902v0.167l-0.244,1.404v0.084l0.082,0.078c0.104,0 0.356,-0.526 0.743,-1.566l1.237,0.082c3.749,0 5.62,-1.518 5.62,-4.547v-0.496c-0.565,-0.994 -1.443,-1.489 -2.644,-1.489c-1.505,0 -2.851,1.322 -4.052,3.964l-0.079,-0.08c-0.677,0 -1.255,-0.439 -1.737,-1.322c0.077,-0.122 0.13,-0.345 0.166,-0.659l-0.249,-0.251h-0.085c-0.109,0.028 -0.219,0.166 -0.325,0.415c-0.749,1.199 -1.663,1.858 -2.754,1.973H19.513L19.513,25.538zM25.723,25.632c0.663,-1.376 1.656,-2.066 2.979,-2.066h0.331c1.099,0.235 1.649,0.646 1.649,1.24c-1.322,0.548 -2.922,0.826 -4.792,0.826H25.723z" id="path_1"/></svg>