<svg id="vector" xmlns="http://www.w3.org/2000/svg" width="75" height="67" viewBox="0 0 84 75"><path fill="#D31C1C" d="M14.71,33.241c0.052,0.098 0.097,0.26 0.151,0.468c-0.459,0.724 -1.109,1.813 -1.958,3.258c-1.533,2.375 -2.452,4.754 -2.769,7.138c-0.315,2.518 0.044,4.682 1.082,6.496c1.869,3.754 4.891,6.264 9.07,7.516c2.907,0.843 6.813,1.03 11.711,0.553c7.029,-1.96 11.299,-4.908 12.796,-8.861c-0.108,-2.771 -0.704,-5.341 -1.778,-7.725c-0.425,-0.983 -1.073,-2.436 -1.948,-4.355c-0.11,-1.537 0.016,-3.767 0.386,-6.67c0.307,-0.054 0.587,0.027 0.848,0.235c0.813,0.638 2.031,1.558 3.646,2.777c1.397,0.902 2.861,1.461 4.395,1.696c1.569,-2.66 3.131,-5.34 4.673,-8.041c2.176,-3.103 4.676,-4.896 7.508,-5.368c0.974,-0.333 2.003,-0.505 3.095,-0.505c2.437,0 4.892,0.688 7.382,2.059c2.318,2.273 3.482,4.185 3.482,5.738c0,0.26 -0.027,0.55 -0.082,0.866c-0.415,4.683 -2.255,8.168 -5.521,10.429c-4.936,2.538 -9.863,3.812 -14.78,3.812c-3.203,0 -6.101,-0.599 -8.69,-1.798c-0.551,-0.106 -0.822,0.029 -0.822,0.398c0.118,0.928 0.181,1.83 0.181,2.696c0,2.48 -0.451,4.946 -1.371,7.382c-1.535,3.946 -4.152,7.184 -7.852,9.692c-3.699,2.519 -7.698,3.771 -11.974,3.771c-4.395,0 -8.211,-1.289 -11.478,-3.88c-4.384,-3.482 -6.578,-8.501 -6.578,-15.062c0,-2.725 0.469,-5.259 1.399,-7.577c1.696,-3.196 3.42,-5.552 5.179,-7.064C14.447,33.27 14.654,33.241 14.71,33.241L14.71,33.241zM64.22,29.153c-0.55,-0.053 -1.056,-0.081 -1.533,-0.081c-3.628,0 -6.858,2.327 -9.674,6.983c0.966,0.423 1.761,0.605 2.373,0.549c1.029,0.057 2.013,0.081 2.969,0.081c5.811,0 10.665,-1.215 14.563,-3.644c-0.315,-0.757 -0.893,-1.407 -1.723,-1.933c-0.315,-0.215 -1.09,-0.646 -2.318,-1.325C67.019,29.133 65.476,28.93 64.22,29.153z" id="path_0"/><path fill="#1535D5" d="M9.594,20.093c2.813,1.003 4.217,2.244 4.217,3.716l0.082,0.497c-0.235,1.928 -0.87,2.892 -1.903,2.892c0,0.179 -1.376,0.402 -4.131,0.662l-0.085,-0.247c0,-1.379 0.249,-2.066 0.745,-2.066c2.756,-0.225 4.271,-0.554 4.544,-0.992c-0.947,-0.923 -2.188,-1.668 -3.719,-2.233l-0.081,-0.414C9.306,20.697 9.416,20.093 9.594,20.093L9.594,20.093zM19.69,27.859c-1.605,0.094 -2.772,-0.646 -3.502,-2.225c-0.353,-0.581 -0.682,-4.53 -0.993,-11.836v-0.166c0.206,-1.216 0.509,-1.817 0.907,-1.817l0.417,-0.087c0.508,0 1.279,0.168 2.312,0.498v0.165c-0.055,0.163 -0.221,0.249 -0.496,0.249h-1.403c-0.291,0 -0.565,0.162 -0.83,0.496c0.258,6.345 0.632,10.018 1.128,11.021c0.494,1.005 1.316,1.452 2.459,1.343V27.859L19.69,27.859zM19.513,25.501v2.358c1.399,0.058 2.312,-0.618 2.739,-2.012c0.456,0.809 1.086,1.443 1.902,1.898v0.167l-0.247,1.403v0.085l0.082,0.081c0.108,0 0.358,-0.524 0.742,-1.569l1.238,0.082c3.75,0 5.621,-1.519 5.621,-4.548v-0.496c-0.563,-0.992 -1.444,-1.489 -2.644,-1.489c-1.504,0 -2.851,1.321 -4.049,3.97l-0.085,-0.085c-0.673,0 -1.253,-0.439 -1.735,-1.322c0.078,-0.122 0.13,-0.346 0.164,-0.659l-0.246,-0.248h-0.083c-0.109,0.028 -0.219,0.163 -0.329,0.411c-0.744,1.2 -1.659,1.858 -2.75,1.973H19.513L19.513,25.501zM25.722,25.595c0.665,-1.375 1.655,-2.066 2.979,-2.066h0.332c1.1,0.235 1.649,0.647 1.649,1.24c-1.324,0.549 -2.92,0.826 -4.793,0.826H25.722z" id="path_1"/></svg>