<svg id="vector" xmlns="http://www.w3.org/2000/svg" width="75" height="67" viewBox="0 0 84 75"><path fill="#4242F8" d="M13.895,10.387c0.167,0 0.333,0.558 0.496,1.656l0.748,1.654l-0.333,1.899l0.248,4.633v0.74c-0.11,1.892 -0.387,2.99 -0.826,3.308l-0.082,-0.082l0.082,-1.24c0,-1.114 -0.358,-4.67 -1.074,-10.66C13.496,11.025 13.745,10.387 13.895,10.387L13.895,10.387zM21.347,19.709c0.496,0.501 0.967,1.57 1.407,3.226l0.081,1.074c0,1.943 -0.964,3.266 -2.895,3.969l-0.578,0.082l-1.465,0.02l-1.423,-0.02l-0.081,-0.082v-0.085c0.175,-0.191 1.359,-0.769 3.547,-1.737c1.382,-0.78 2.122,-1.472 2.236,-2.065c-0.716,-1.525 -1.074,-2.408 -1.074,-2.644v-0.248C21.102,20.21 21.184,19.709 21.347,19.709L21.347,19.709zM20.5,15.22c0.676,0.104 1.339,0.52 1.985,1.236v0.162c-0.415,1.106 -0.715,1.655 -0.911,1.655c-1.322,-0.455 -1.981,-0.813 -1.981,-1.074C19.593,16.691 19.898,16.028 20.5,15.22z" id="path_0"/><path fill="#000001" d="M34.377,57.934c-1.481,0.053 -2.762,0.208 -3.839,0.451c-0.241,-0.188 -0.366,-0.46 -0.366,-0.793c3.994,-1.518 9.094,-3.961 15.276,-7.337c-0.057,0.089 0.984,-0.521 3.096,-1.852c1.496,-1.155 2.534,-2.236 3.12,-3.245c0,-1.317 -0.195,-2.762 -0.586,-4.323c-0.61,-1.371 -1.407,-2.823 -2.372,-4.36l0.81,-7.756h0.456c1.55,3.534 2.489,6.089 2.807,7.65c0.735,2.977 1.054,5.612 0.944,7.923c-0.018,1.443 -0.298,3.14 -0.848,5.097c-1.191,3.729 -3.725,6.183 -7.581,7.365C43.465,57.311 39.819,57.709 34.377,57.934L34.377,57.934zM44.107,21.93v-0.26c0.881,-1.237 2.146,-2.916 3.806,-5.056h0.179c1.343,1.444 3.023,2.754 5.052,3.916c0.057,0.054 0.082,0.119 0.082,0.209l-3.673,4.974c-0.037,0.016 -0.098,0.024 -0.188,0.024c-0.108,0 -0.287,-0.045 -0.552,-0.135C47.539,25.025 45.97,23.797 44.107,21.93z" id="path_1"/></svg>