<svg id="vector" xmlns="http://www.w3.org/2000/svg" width="75" height="67" viewBox="0 0 84 75"><path fill="#e96005" d="M17.576,20.063c-0.753,0 -1.334,-0.118 -1.749,-0.35c-0.207,1.789 -0.59,3.029 -1.159,3.722c-1.363,1.704 -2.77,2.558 -4.214,2.558c-2.659,0 -4.396,-1.155 -5.21,-3.47C5.081,22.085 5,21.613 5,21.116v-0.658c0,-1.957 0.602,-3.498 1.818,-4.633c0.215,0.085 0.33,0.276 0.33,0.582l-1.323,2.396l-0.086,0.825c0,1.862 1.022,3.155 3.06,3.889l2.151,0.166c0.906,0 2.038,-0.528 3.389,-1.574c0.495,-0.796 0.747,-1.378 0.747,-1.736c-0.057,-0.549 -0.418,-1.346 -1.077,-2.396V16.24l0.248,-0.249c0.598,1.208 1.705,1.79 3.319,1.745V20.063L17.576,20.063zM10.287,17.891c-0.605,0.68 -0.911,1.311 -0.911,1.903v0.167c0.708,0.606 1.339,0.908 1.903,0.908c0.606,-0.937 0.911,-1.542 0.911,-1.818v-0.167C11.735,18.485 11.101,18.155 10.287,17.891L10.287,17.891zM17.364,17.676v2.388c1.289,-0.061 2.099,-0.721 2.42,-1.973c0.151,0 0.289,0.658 0.415,1.984c0.765,1.899 2.106,2.782 4.039,2.644v-2.354c-1.978,0.109 -3.132,-0.594 -3.461,-2.111c-0.289,-2.806 -0.509,-4.213 -0.664,-4.213c-0.329,0.512 -0.496,1.172 -0.496,1.984l0.082,0.658c-0.577,0.663 -1.351,0.993 -2.311,0.993H17.364L17.364,17.676zM20.447,23.866c0.521,0 1.155,0.358 1.896,1.074c0,0.288 -0.354,0.866 -1.074,1.736c-0.41,0 -1.017,-0.276 -1.813,-0.825C19.455,25.366 19.784,24.707 20.447,23.866L20.447,23.866zM17.552,24.281c-0.497,0.728 -0.797,1.391 -0.908,1.98c0.591,0.61 1.201,0.911 1.818,0.911c0.18,-0.058 0.537,-0.663 1.074,-1.819c-0.017,-0.097 -0.565,-0.455 -1.651,-1.072H17.552L17.552,24.281zM24.165,20.425h0.032c1.276,-0.057 2.16,-0.671 2.644,-1.858c0,-0.162 0.106,-0.301 0.329,-0.415h0.167c0.106,0 0.163,0.086 0.163,0.253l-0.082,0.491c0.469,0.83 0.969,1.24 1.488,1.24h0.412c0.715,0 1.272,-0.715 1.655,-2.147h0.081c0.082,0.009 0.22,0.343 0.415,0.993c0.472,0.41 0.936,0.659 1.402,0.744c0.55,0 0.831,-0.334 0.831,-0.993c0.052,-1.048 0.162,-1.573 0.329,-1.573c0.22,0.472 0.329,1.05 0.329,1.736c0,2.042 -0.496,3.06 -1.489,3.06c-0.771,0 -1.402,-0.387 -1.898,-1.16h-0.167c-0.342,1.106 -0.895,1.655 -1.655,1.655h-0.082c-0.671,0 -1.444,-0.521 -2.31,-1.569c-0.732,1.265 -1.562,1.898 -2.481,1.898h-0.113V20.425z" id="path_0"/><path fill="#20D3A9" d="M17.877,33.407c0.423,-0.28 0.644,-0.223 0.644,0.163c-0.481,1.038 -1.172,2.616 -2.092,4.727c-1.411,3.611 -2.115,6.662 -2.115,9.151c0,3.042 1.001,5.479 3.015,7.292c3.574,3.312 7.739,4.97 12.506,4.97c1.904,0 3.791,-0.287 5.657,-0.873c5.162,-1.688 8.937,-4.06 11.316,-7.131c0.704,-0.983 1.053,-2.09 1.053,-3.326c0,-1.429 -0.684,-3.592 -2.066,-6.5c-1.179,-0.984 -1.765,-2.534 -1.765,-4.646c0,-0.479 0.024,-1.191 0.081,-2.146c0.053,-0.948 0.081,-1.644 0.081,-2.078c0,-0.423 0.106,-1.054 0.343,-1.884c0.26,-0.057 0.414,0.045 0.472,0.306c0.048,0.252 0.105,0.406 0.162,0.459c1.196,1.903 3.173,3.148 5.946,3.729c3.474,0.208 6.061,-0.878 7.77,-3.25c0.512,-2.013 1.064,-3.591 1.643,-4.738c0.646,0.11 0.972,0.468 0.972,1.082c-0.045,1.029 -0.073,1.509 -0.073,1.464c0.688,2.587 1.933,4.161 3.729,4.727c1.848,0.524 3.344,0.354 4.49,-0.533c0.11,-0.207 0.05,-0.431 -0.187,-0.666c-0.229,-0.244 -0.317,-0.415 -0.261,-0.521l0.343,-7.033c0.386,-0.243 0.63,-0.341 0.739,-0.288c1.127,1.073 1.786,2.615 1.985,4.628c0.016,5.901 -0.858,9.758 -2.62,11.552c-1.326,0.479 -2.505,0.711 -3.546,0.711c-1.335,0 -2.555,-0.395 -3.645,-1.188c-1.444,-1.094 -2.303,-2.798 -2.563,-5.128c-0.513,0.471 -0.956,1.155 -1.325,2.029c-0.521,1.077 -0.904,1.772 -1.14,2.094c-1.83,1.904 -3.904,2.852 -6.231,2.852c-0.605,0 -1.195,-0.089 -1.773,-0.261c-0.048,0.542 -0.15,2.445 -0.296,5.711c-0.045,2.428 -0.423,4.286 -1.111,5.576c-1.846,4.332 -4.592,7.545 -8.248,9.619c-3.645,2.087 -7.427,3.124 -11.34,3.124c-5.832,0 -10.297,-2.2 -13.397,-6.597c-2.213,-3.177 -3.314,-6.874 -3.314,-11.108c0,-2.696 0.68,-5.856 2.021,-9.493c0.541,-1.127 1.139,-2.326 1.798,-3.615C16.186,35.088 16.965,34.096 17.877,33.407z" id="path_1"/></svg>