<svg id="vector" xmlns="http://www.w3.org/2000/svg" width="75" height="67" viewBox="0 0 84 75"><path fill="#815C25" d="M21.062,57.063c1.634,0.046 3.782,-0.054 6.426,-0.324c2.992,-0.314 5.104,-0.469 6.345,-0.469c0.365,0 0.839,-0.289 1.395,-0.85c0.48,-1.127 0.948,-2.237 1.429,-3.34c0.549,-1.28 0.821,-2.469 0.821,-3.563c0.105,-2.968 0.089,-6.99 -0.052,-12.091c-0.147,-6.064 -0.221,-10.107 -0.221,-12.116c0,-1.708 0.016,-3.332 0.057,-4.866c0.475,-1.679 1.306,-4.167 2.505,-7.462l0.578,0.48c0.058,0.207 0.236,1.55 0.562,4.043c0.208,1.585 0.565,2.857 1.082,3.835l-0.217,0.068c1.144,1.421 1.722,2.473 1.722,3.178c0,0.37 -0.134,0.85 -0.395,1.427c-0.423,0.776 -0.668,1.245 -0.712,1.398l-2.042,3.178c0,3.185 0,8.318 0,15.402c0,0.054 -0.089,0.289 -0.26,0.692c-0.058,0.264 -0.028,0.499 0.079,0.715c3.35,-5.081 7.785,-7.617 13.319,-7.617c0.706,0 1.419,0.055 2.138,0.162c3.99,1.021 6.768,3.124 8.359,6.3c-0.489,8.317 -3.25,13.202 -8.278,14.672c-7.271,2.122 -13.108,3.177 -17.505,3.177c-3.355,0 -6.353,-0.55 -8.997,-1.644c-2.109,-0.522 -5.169,-1.64 -9.174,-3.328C20.025,57.901 20.378,57.551 21.062,57.063L21.062,57.063zM51.586,46.012c-0.424,-0.057 -0.883,-0.081 -1.379,-0.081c-2.741,0 -5.385,1.009 -7.923,3.03c-2.229,1.771 -4.052,4.065 -5.475,6.911c3.749,-0.107 8.858,-0.631 15.3,-1.563c0.534,-0.215 1.985,-0.622 4.369,-1.215c1.794,-0.481 3.204,-0.993 4.234,-1.562v-0.957C58.102,47.843 55.063,46.318 51.586,46.012z" id="path_0"/><path fill="#1249B8" d="M17.681,28.657c-1.605,0.098 -2.773,-0.643 -3.501,-2.222c-0.355,-0.585 -0.683,-4.529 -0.993,-11.839V14.43c0.203,-1.212 0.508,-1.818 0.907,-1.818l0.415,-0.081c0.508,0 1.28,0.168 2.314,0.491v0.168c-0.057,0.167 -0.225,0.252 -0.496,0.252h-1.404c-0.288,0 -0.565,0.162 -0.829,0.493c0.256,6.344 0.631,10.021 1.127,11.024c0.495,1.006 1.316,1.452 2.46,1.344V28.657L17.681,28.657zM17.503,26.303v2.354c0.324,0 0.67,0 1.032,0h0.911c2.001,-0.07 3.832,-0.569 5.499,-1.509c0.549,-0.645 0.964,-1.581 1.235,-2.81v-0.578c0,-0.867 -0.825,-1.415 -2.48,-1.652c-1.427,0.069 -2.569,0.46 -3.423,1.179v-0.414l-0.169,-2.647v-0.163c0,-0.316 0.139,-0.731 0.411,-1.239c0,-0.456 -0.191,-0.952 -0.577,-1.488l-0.411,-1.571c-0.224,0 -0.471,0.659 -0.743,1.985l0.825,6.365c-0.508,0.784 -0.898,1.444 -1.159,1.98l-0.41,0.208C17.855,26.303 17.677,26.303 17.503,26.303L17.503,26.303zM19.113,26.348c0.789,-1.489 2.122,-2.271 4.011,-2.335h0.662c0.288,0 0.761,0.326 1.404,0.988c-1.416,0.825 -3.39,1.273 -5.911,1.347H19.113z" id="path_1"/></svg>