<svg id="vector" xmlns="http://www.w3.org/2000/svg" width="75" height="67" viewBox="0 0 84 75"><path fill="#0303D6" d="M20.081,44.89c-0.056,0.207 -0.28,0.896 -0.687,2.038c-0.965,3.034 -1.451,4.702 -1.451,5.02c0.108,2.542 2.516,4.815 7.242,6.821c4.759,0.991 9.16,1.256 13.211,0.794l9.042,-0.949c3.359,-0.55 6.166,-1.452 8.44,-2.697c-0.209,-1.444 -0.806,-3.147 -1.771,-5.108c-0.668,-1.354 -1.437,-3.013 -2.302,-4.969c-0.164,-0.524 -1.021,-2.466 -2.591,-5.813c-1.075,-2.327 -1.616,-4.367 -1.616,-6.11c0,-3.627 1.03,-7.146 3.096,-10.544c0.481,-1.259 4.044,-3.946 10.701,-8.07L74.094,7.45c0.099,0.11 0.155,0.289 0.155,0.555c0,0.215 -0.057,0.529 -0.155,0.956c-1.805,3.155 -3.455,6.296 -4.969,9.435c-0.184,0.261 -0.508,0.622 -0.984,1.087c-0.428,-0.11 -0.554,-0.626 -0.399,-1.563c0,-0.264 -0.045,-0.397 -0.154,-0.397h-0.45c-4.031,2.591 -10.035,6.759 -18.003,12.506c0.83,2.534 2.177,5.947 4.043,10.233c2.22,4.919 3.664,8.302 4.345,10.152c0.365,1.017 0.548,2.184 0.548,3.487c0,2.482 -0.813,5.354 -2.428,8.592c-3.655,2.94 -9.634,4.575 -17.956,4.893c-2.689,0.105 -4.487,0.163 -5.36,0.163c-8.213,0 -13.41,-2.465 -15.574,-7.382c-0.667,-1.48 -1.001,-3.052 -1.001,-4.727c0,-2.828 0.866,-6.049 2.615,-9.676c0.48,-0.972 0.895,-1.461 1.266,-1.461C19.882,44.304 20.025,44.504 20.081,44.89z" id="path_0"/><path fill="#49CD1D" d="M15.038,16.424c0.591,0.108 1.2,0.444 1.818,0.992v0.167c-0.483,1.266 -0.814,1.899 -0.993,1.899c-0.922,-0.457 -1.5,-0.813 -1.736,-1.073V18.24C14.502,17.086 14.803,16.477 15.038,16.424L15.038,16.424zM18.259,19.648h0.087c0.808,0 1.554,0.63 2.231,1.899l0.245,1.073c0.077,1.559 -0.367,2.745 -1.333,3.567c-0.97,0.822 -2.878,1.366 -5.72,1.644h-0.964c-3.688,-0.5 -5.54,-1.845 -5.54,-4.052c0.207,-1.365 0.594,-2.383 1.159,-3.058h0.163l0.166,0.162l-0.577,1.407v0.329c0,1.351 1.488,2.291 4.466,2.811l1.074,0.085c1.939,0 4.086,-0.471 6.446,-1.406v-0.08l-0.082,-0.25h-0.08l-0.912,0.163h-0.251c-0.92,0 -1.612,-0.387 -2.066,-1.154v-0.744C16.771,20.445 17.267,19.648 18.259,19.648L18.259,19.648zM26.906,27.832h-0.207c-1.996,0 -3.236,-1.406 -3.718,-4.217L22.485,15.6c0.208,-1.161 0.427,-1.819 0.664,-1.985h0.08c0.11,0 0.167,0.08 0.167,0.246c0,5.472 0.354,8.929 1.073,10.371c0.729,0.811 1.543,1.217 2.437,1.233V27.832L26.906,27.832zM26.409,25.473v2.359c0.123,0 0.254,0 0.394,0c0.389,0 0.856,-0.109 1.404,-0.334c1.924,-1.04 2.889,-2.61 2.893,-4.709v-0.168l-0.082,-0.495c-0.734,-1.27 -2.224,-1.9 -4.461,-1.9h-1.904l5.292,-3.965h0.167l0.076,0.578h0.088l1.816,-3.311c0.049,-0.241 -0.033,-0.298 -0.248,-0.163l-4.379,3.14l-4.319,3.213l0.299,2.925h1.229l1.138,-0.102c1.978,0 3.409,0.414 4.3,1.239c0,0.818 -0.939,1.385 -2.811,1.692h-0.498C26.663,25.473 26.532,25.473 26.409,25.473z" id="path_1"/></svg>