<svg id="vector" xmlns="http://www.w3.org/2000/svg" width="75" height="67" viewBox="0 0 84 75"><path fill="#4444EC" d="M41.883,42.32c-0.143,0.243 -0.416,0.704 -0.822,1.37c-0.939,1.867 -1.898,3.14 -2.904,3.808c-0.605,0.369 -2.104,0.923 -4.494,1.642c-2.172,0.705 -5.385,1.588 -9.656,2.645c-0.947,0.19 -1.424,0.155 -1.424,-0.109c0,-0.24 0.254,-0.55 0.766,-0.919c6.59,-4.711 12.348,-8.325 17.262,-10.872c0.424,-0.154 0.813,-0.785 1.164,-1.896c0.688,-1.887 1.113,-3.014 1.277,-3.382c0.08,-0.148 0.637,-1.103 1.658,-2.861c1.514,-1.923 2.992,-3.817 4.438,-5.685c1.939,-1.978 3.945,-2.96 6,-2.96c0.426,0 0.85,0.02 1.271,0.054c1.725,0.848 2.764,1.787 3.096,2.824c1.264,2.014 1.904,4.441 1.904,7.273c0,4.322 -1.271,8.435 -3.809,12.343c-0.688,0.216 -1.389,0.317 -2.109,0.317c-1.877,0 -4.141,-0.635 -6.82,-1.903c-1.998,-0.983 -4.027,-2.03 -6.086,-3.145L41.883,42.32L41.883,42.32zM47.242,33.975c2.971,1.956 6,3.245 9.096,3.859c0.162,0 0.289,-0.155 0.369,-0.479c0.182,-0.559 -0.043,-1.387 -0.66,-2.482c-0.918,-1.513 -2.008,-2.554 -3.271,-3.12c-1.379,-0.45 -2.771,-0.206 -4.18,0.741C47.93,33.132 47.48,33.619 47.242,33.975z" id="path_0"/><path fill="#13DF13" d="M18.545,22.093c-0.086,0 -0.184,0 -0.281,0h-0.082c-0.797,-0.007 -1.568,-0.146 -2.314,-0.423c-0.795,1.38 -1.84,2.067 -3.133,2.067c-1.547,-0.22 -2.32,-0.855 -2.32,-1.9h-0.082c-0.26,0.884 -0.836,1.599 -1.738,2.147c-1.199,0.44 -2.133,0.664 -2.811,0.664l-0.381,0.047v-0.166c0.309,-0.251 1.139,-0.842 2.494,-1.766c1.354,-0.919 2.127,-1.501 2.305,-1.735c0.18,-0.232 0.449,-1.014 0.789,-2.335c0.664,-1.099 1.27,-1.651 1.822,-1.651h0.162c0.691,0 1.791,0.74 3.313,2.229c0.439,0.374 1.188,0.541 2.258,0.5V22.093L18.545,22.093zM11.406,19.854c0,0.726 0.578,1.228 1.732,1.486h0.414c0.941,-0.097 1.406,-0.229 1.406,-0.414c-1.088,-1.044 -1.91,-1.57 -2.479,-1.57h-0.082C11.928,19.355 11.598,19.522 11.406,19.854L11.406,19.854zM18.471,19.738v2.354h0.125c1.088,0.008 1.912,-0.405 2.482,-1.24l0.74,-1.485v0.083c0.842,1.76 2.055,2.643 3.637,2.643h0.082c0.299,0 0.576,0 0.852,0v-2.366c-0.219,0 -0.441,0 -0.682,0c-0.912,-0.024 -1.629,-0.191 -2.152,-0.484c-0.605,-0.509 -1.238,-1.933 -1.898,-4.26c-0.225,0 -0.359,0.664 -0.416,1.985l0.248,1.24l-0.084,0.248c-0.521,0.767 -1.322,1.192 -2.393,1.282H18.471L18.471,19.738zM24.047,22.671c0.863,0.346 1.49,0.73 1.908,1.159v0.085c-0.455,1.208 -0.818,1.814 -1.078,1.814c-0.207,0 -0.867,-0.329 -1.984,-0.992l-0.742,1.406C20.721,25.62 20,25.236 20,24.984c0.307,-1.126 0.605,-1.789 0.912,-1.98c0.232,0 0.947,0.354 2.146,1.074C23.516,23.142 23.844,22.671 24.047,22.671L24.047,22.671zM26.098,19.738c0.113,0 0.227,0 0.35,0h0.084c1.031,-0.065 1.969,-0.919 2.811,-2.57c0.908,-1.379 1.848,-2.066 2.807,-2.066c1.217,0 1.822,0.769 1.822,2.314v0.411c0,0.76 -0.301,1.749 -0.91,2.977l-0.578,0.41c-0.512,0 -1.691,-0.356 -3.555,-1.073c-0.563,0.847 -1.004,1.363 -1.326,1.543c-0.479,0.332 -0.977,0.475 -1.484,0.409h-0.02V19.738L26.098,19.738zM30.25,17.993v0.08c1.436,0.555 2.289,0.826 2.566,0.826c0.105,0 0.162,-0.08 0.162,-0.247c-0.316,-0.825 -0.842,-1.236 -1.57,-1.236C30.896,17.416 30.516,17.607 30.25,17.993z" id="path_1"/></svg>