<svg id="vector" xmlns="http://www.w3.org/2000/svg" width="75" height="67" viewBox="0 0 84 75"><path fill="#0510E9" d="M54.888,59.037c-2.632,1.409 -5.505,2.11 -8.627,2.11c-2.773,0 -5.255,-0.546 -7.443,-1.619c-3.812,-1.903 -6.736,-4.703 -8.773,-8.411c-2.046,-3.716 -2.933,-7.731 -2.696,-12.056c0.431,-6.333 2.375,-11.136 5.84,-14.418c0.366,-0.428 0.711,-0.554 1.016,-0.374c0.322,0.121 0.488,0.479 0.488,1.073c0,0.671 -0.341,1.424 -1.041,2.236c-0.964,1.266 -1.464,1.932 -1.529,1.985c-1.797,3.185 -2.57,6.475 -2.326,9.864c1.301,3.769 3.539,6.873 6.715,9.297c3.176,2.433 6.759,3.644 10.757,3.644c3.66,0 7.296,-1.046 10.908,-3.132c3.628,-2.089 6.259,-4.693 7.923,-7.815c0.049,-0.303 0.083,-0.639 0.083,-0.982c0,-0.918 -0.374,-1.964 -1.132,-3.148c-0.666,-0.958 -1.334,-1.906 -1.984,-2.838c-2.392,-4.327 -3.489,-7.805 -3.313,-10.436c0.106,-1.306 0.434,-2.612 0.986,-3.938c0.122,-0.252 0.333,-0.43 0.635,-0.556c0.126,0.43 1.536,3.66 4.229,9.696c1.777,3.876 2.668,7.332 2.668,10.396c0,3.955 -1.352,7.772 -4.043,11.439C61.781,54.375 58.671,57.039 54.888,59.037L54.888,59.037zM41.519,35.926c2.158,2.163 3.977,3.583 5.449,4.254c0.301,0.103 0.513,0.155 0.639,0.155c0.102,0 0.174,-0.008 0.216,-0.028l4.254,-5.76c0,-0.105 -0.032,-0.179 -0.094,-0.24c-2.347,-1.346 -4.291,-2.862 -5.854,-4.535h-0.202c-1.928,2.478 -3.389,4.421 -4.408,5.853V35.926z" id="path_0"/><path fill="#F116B3" d="M17.416,17.989h0.158c0.191,0 0.663,1.24 1.408,3.721l0.081,0.326c0,1.944 -0.468,3.351 -1.403,4.218c-1.322,1.436 -2.896,2.147 -4.709,2.147c-1.489,-0.33 -2.453,-0.659 -2.896,-0.986c-1.432,-1.231 -2.148,-2.746 -2.148,-4.548c0,-1.52 0.66,-2.95 1.985,-4.301l0.082,-0.081h0.163l0.167,0.163c0,0.142 -0.386,0.743 -1.159,1.821c-0.219,0.383 -0.358,0.907 -0.407,1.566c0,1.285 0.659,2.388 1.977,3.311c1.294,0.497 2.18,0.745 2.647,0.745c1.184,0 2.591,-0.525 4.214,-1.57c0.663,-0.582 0.997,-0.94 0.997,-1.077l-1.155,-3.221l-0.09,-0.579L17.416,17.989L17.416,17.989zM13.03,19.645c-0.264,0.272 -0.565,0.906 -0.911,1.9c0,0.34 0.716,0.756 2.148,1.235c0.61,-0.716 0.944,-1.293 0.992,-1.732v-0.166c-0.606,-0.646 -1.293,-1.063 -2.065,-1.237H13.03L13.03,19.645zM27.534,24.604l-0.927,-0.014c-0.517,2.27 -1.879,3.418 -4.092,3.445c-1.187,0.048 -1.781,0.028 -1.781,-0.065c0.113,-0.207 0.903,-0.605 2.379,-1.199c1.517,-0.964 2.429,-1.582 2.746,-1.859l0.089,-0.246L24.5,24.436c-1.054,-0.275 -1.647,-0.805 -1.777,-1.59V22.68c0,-1.336 0.329,-2.189 0.988,-2.563l0.501,-0.081c0.976,0 1.773,0.679 2.396,2.047c0.395,0.139 0.703,0.202 0.927,0.194V24.604L27.534,24.604zM27.177,22.243v2.36c1.407,0.062 2.351,-0.095 2.847,-0.469c0.487,-0.37 0.854,-0.83 1.094,-1.379c0.236,-0.543 0.354,-1.07 0.354,-1.565v-0.745c0,-1.235 -0.354,-2.478 -1.073,-3.717h-0.163l-0.252,2.147c0.553,1.143 0.829,1.859 0.829,2.151C30.552,21.861 29.341,22.268 27.177,22.243L27.177,22.243zM29.528,12.719c0.818,0.264 1.452,0.593 1.903,0.991v0.167c0,0.276 -0.301,0.882 -0.906,1.818c-0.565,0 -1.201,-0.302 -1.9,-0.911V14.62C28.624,14.027 28.926,13.393 29.528,12.719z" id="path_1"/></svg>