<svg id="vector" xmlns="http://www.w3.org/2000/svg" width="75" height="67" viewBox="0 0 84 75"><path fill="#3737F4" d="M21.188,39.128c1.171,-1.018 3.591,-1.977 7.239,-2.885c3.311,-0.834 5.698,-1.609 7.158,-2.32c2.558,-1.164 4.486,-2.82 5.768,-4.963c0.269,-1.217 1.388,-2.693 3.352,-4.434c1.228,0.094 2.188,0.586 2.88,1.484c0.283,0.41 0.703,1.301 1.28,2.676c0.232,0.496 0.346,1.012 0.346,1.529c0,0.818 -0.243,1.85 -0.728,3.08c-0.736,1.92 -1.123,2.928 -1.167,3.021h-0.204c-0.292,-0.883 -0.609,-1.803 -0.951,-2.762c-0.347,-0.961 -0.896,-1.688 -1.659,-2.176c-0.225,-0.086 -0.488,-0.135 -0.777,-0.135c-0.639,0 -1.379,0.338 -2.241,1.006c0,0 -0.504,0.795 -1.529,2.395c-0.622,0.932 -1.24,1.598 -1.847,2.014c-3.192,1.967 -8.357,3.697 -15.504,5.205c-0.757,0.461 -1.514,0.928 -2.262,1.42c-0.805,0.594 -1.33,1.24 -1.553,1.943c0.894,0.709 2.105,1.184 3.611,1.412c1.342,0.188 2.668,0.342 3.978,0.484c5.438,0.789 11.689,1.188 18.742,1.188c10.68,0 21.605,-0.424 32.758,-1.256c0.138,0.043 0.231,0.324 0.272,0.842c-0.484,0.316 -2.835,1.574 -7.041,3.771c-1.964,1.039 -5.218,1.836 -9.762,2.406c-6.214,0.805 -12.722,1.213 -19.522,1.213c-5.482,0 -11.107,-0.27 -16.867,-0.799c-1.476,-0.281 -2.973,-0.553 -4.479,-0.824c-1.772,-0.387 -3.196,-0.893 -4.299,-1.531c-0.37,-0.533 -0.549,-1.131 -0.549,-1.789c0,-0.451 0.179,-1.207 0.541,-2.26c0.358,-1.047 0.533,-1.867 0.533,-2.447C17.162,43.769 18.654,41.601 21.188,39.128z" id="path_0"/><path fill="#0B0B9F" d="M19.139,26.466c-1.607,0.098 -2.774,-0.646 -3.507,-2.221c-0.35,-0.586 -0.679,-4.531 -0.992,-11.84v-0.166c0.207,-1.213 0.513,-1.818 0.911,-1.818l0.415,-0.082c0.508,0 1.276,0.162 2.31,0.492v0.168c-0.053,0.166 -0.22,0.252 -0.496,0.252h-1.398c-0.293,0 -0.57,0.158 -0.83,0.492c0.256,6.344 0.63,10.021 1.127,11.025c0.491,1.006 1.313,1.453 2.461,1.342V26.466L19.139,26.466zM18.96,24.11v2.355c1.406,0.066 2.354,-0.09 2.847,-0.463c0.491,-0.371 0.857,-0.834 1.098,-1.379c0.236,-0.549 0.354,-1.068 0.354,-1.566v-0.744c0,-1.24 -0.354,-2.48 -1.077,-3.717h-0.163l-0.248,2.146c0.554,1.143 0.83,1.859 0.83,2.148C22.335,23.724 21.123,24.132 18.96,24.11L18.96,24.11zM22.754,27.149h0.081c0.565,0.08 1.2,0.467 1.9,1.154v0.086l-0.993,1.734c-1.318,-0.43 -1.984,-0.785 -1.984,-1.076C22.185,27.784 22.518,27.149 22.754,27.149L22.754,27.149zM19.691,27.894h0.167c0.564,0.121 1.167,0.451 1.817,0.992v0.082c-0.374,1.125 -0.699,1.736 -0.988,1.816c-0.842,-0.16 -1.476,-0.439 -1.903,-0.824v-0.082C18.784,29.228 19.089,28.569 19.691,27.894z" id="path_1"/></svg>