<svg id="vector" xmlns="http://www.w3.org/2000/svg" width="75" height="67" viewBox="0 0 84 75"><path fill="#E65428" d="M65.92,53.708c-2.844,1.813 -6.512,3.285 -11.027,4.413c-6.875,1.55 -12.707,2.31 -17.488,2.281c-4.779,-0.024 -8.5,-0.488 -11.145,-1.387c-2.645,-0.895 -4.963,-2.456 -6.947,-4.677c-1.711,-1.957 -2.717,-4.23 -3.014,-6.821c-0.387,-3.645 0.5,-7.582 2.672,-11.793c0.229,-0.208 0.451,-0.462 0.684,-0.75c0.229,-0.287 0.488,-0.413 0.77,-0.36l-0.029,0.641c-1.195,2.572 -1.846,4.864 -1.957,6.865c-0.051,0.703 -0.051,1.191 0,1.452c0.74,3.384 3.303,5.768 7.699,7.15c2.461,0.838 5.043,1.362 7.74,1.55c0.428,0.021 1.082,0.072 1.99,0.163c5.51,0.02 12.197,-0.632 20.055,-1.957c4.547,-0.85 7.789,-1.997 9.709,-3.44c-0.125,-0.578 -0.557,-1.237 -1.297,-1.965c-0.742,-0.732 -1.191,-1.391 -1.346,-1.969c-0.111,-2.326 0.027,-4.71 0.398,-7.136l0.313,-0.028c2.449,2.762 3.811,5.704 4.072,8.799C68.088,48.354 67.473,51.345 65.92,53.708L65.92,53.708zM31.82,42.868c1.867,1.871 3.428,3.096 4.68,3.673c0.266,0.094 0.455,0.139 0.578,0.139c0.094,0 0.146,-0.021 0.162,-0.057l3.254,-4.356v0.028c1.863,1.883 3.426,3.111 4.67,3.697c0.271,0.089 0.463,0.126 0.59,0.126c0.09,0 0.143,-0.008 0.164,-0.044l3.695,-4.946c0,-0.126 -0.023,-0.207 -0.08,-0.24c-2.031,-1.167 -3.705,-2.457 -5.053,-3.883h-0.178c-1.43,1.813 -2.563,3.313 -3.414,4.493c-0.76,-0.569 -1.508,-1.119 -2.248,-1.667c-1.551,-1.147 -2.488,-1.904 -2.832,-2.276h-0.178c-1.66,2.142 -2.924,3.817 -3.811,5.054V42.868z" id="path_0"/><path fill="#B210DF" d="M19.391,25.225c-1.607,0.096 -2.77,-0.645 -3.502,-2.221c-0.35,-0.586 -0.684,-4.532 -0.992,-11.84v-0.166c0.203,-1.214 0.508,-1.818 0.91,-1.818l0.416,-0.084c0.504,0 1.275,0.167 2.309,0.495v0.166c-0.057,0.165 -0.219,0.25 -0.496,0.25h-1.402c-0.289,0 -0.566,0.163 -0.826,0.494c0.252,6.346 0.627,10.02 1.127,11.025c0.492,1.004 1.314,1.451 2.457,1.342V25.225L19.391,25.225zM19.215,22.868v2.356c1.406,0.063 2.352,-0.092 2.848,-0.466c0.492,-0.37 0.857,-0.831 1.094,-1.379c0.236,-0.545 0.354,-1.069 0.354,-1.565V21.07c0,-1.239 -0.354,-2.479 -1.074,-3.718h-0.16l-0.252,2.149c0.555,1.141 0.828,1.858 0.828,2.147C22.59,22.485 21.379,22.891 19.215,22.868L19.215,22.868zM23.006,13.52h0.082c0.568,0.081 1.203,0.466 1.902,1.156v0.082l-0.992,1.734c-1.32,-0.427 -1.982,-0.783 -1.982,-1.072C22.439,14.151 22.77,13.52 23.006,13.52L23.006,13.52zM19.947,14.264c-0.602,0.673 -0.908,1.334 -0.908,1.982v0.084c0.43,0.387 1.063,0.66 1.9,0.825c0.293,-0.085 0.617,-0.687 0.992,-1.818v-0.081c-0.65,-0.541 -1.256,-0.868 -1.818,-0.992H19.947z" id="path_1"/></svg>