<svg id="vector" xmlns="http://www.w3.org/2000/svg" width="75" height="67" viewBox="0 0 84 75"><path fill="#27E905" d="M65.919,55.933c-2.843,1.814 -6.511,3.287 -11.025,4.413c-6.874,1.554 -12.706,2.311 -17.49,2.282c-4.779,-0.024 -8.501,-0.488 -11.145,-1.387c-2.644,-0.896 -4.962,-2.457 -6.947,-4.674c-1.712,-1.961 -2.717,-4.234 -3.01,-6.825c-0.391,-3.645 0.496,-7.577 2.668,-11.793c0.228,-0.207 0.452,-0.459 0.683,-0.748c0.228,-0.288 0.488,-0.415 0.769,-0.361l-0.028,0.64c-1.196,2.575 -1.847,4.864 -1.957,6.869c-0.053,0.704 -0.053,1.188 0,1.452c0.74,3.385 3.303,5.764 7.7,7.146c2.46,0.838 5.043,1.363 7.74,1.55c0.427,0.021 1.083,0.073 1.989,0.163c5.51,0.02 12.193,-0.631 20.055,-1.957c4.552,-0.85 7.788,-1.992 9.708,-3.441c-0.126,-0.573 -0.557,-1.231 -1.297,-1.964s-1.192,-1.391 -1.347,-1.969c-0.105,-2.326 0.028,-4.71 0.399,-7.136l0.316,-0.028c2.439,2.764 3.808,5.704 4.067,8.799C68.086,50.579 67.474,53.569 65.919,55.933L65.919,55.933zM35.817,37.643c1.871,1.869 3.437,3.095 4.71,3.681c0.244,0.081 0.432,0.126 0.553,0.126c0.074,0 0.122,-0.008 0.163,-0.024l3.669,-4.964c0,-0.108 -0.017,-0.188 -0.054,-0.245c-2.036,-1.145 -3.725,-2.436 -5.043,-3.88h-0.191c-1.652,2.13 -2.92,3.81 -3.807,5.044V37.643L35.817,37.643zM32.198,45.261c1.871,1.866 3.433,3.091 4.685,3.668c0.261,0.094 0.448,0.138 0.578,0.138c0.089,0 0.146,-0.02 0.163,-0.057l3.245,-4.355v0.028c1.872,1.883 3.433,3.111 4.677,3.697c0.27,0.09 0.46,0.126 0.585,0.126c0.09,0 0.147,-0.008 0.164,-0.045l3.7,-4.946c0,-0.125 -0.027,-0.207 -0.08,-0.243c-2.033,-1.163 -3.709,-2.453 -5.057,-3.878h-0.183c-1.424,1.812 -2.563,3.313 -3.408,4.492c-0.756,-0.569 -1.505,-1.119 -2.245,-1.668c-1.554,-1.146 -2.489,-1.903 -2.834,-2.273h-0.184c-1.659,2.14 -2.92,3.814 -3.806,5.052V45.261z" id="path_0"/><path fill="#0E0701" d="M19.565,25.225c-1.603,0.096 -2.77,-0.645 -3.498,-2.221c-0.354,-0.586 -0.683,-4.532 -0.993,-11.84v-0.166c0.204,-1.214 0.508,-1.818 0.908,-1.818l0.414,-0.084c0.508,0 1.281,0.167 2.315,0.495v0.166c-0.057,0.165 -0.22,0.25 -0.497,0.25h-1.407c-0.285,0 -0.562,0.163 -0.825,0.494c0.256,6.346 0.629,10.02 1.126,11.025c0.496,1.004 1.318,1.451 2.457,1.342V25.225L19.565,25.225zM19.39,22.868v2.356c1.407,0.063 2.354,-0.092 2.85,-0.466c0.489,-0.37 0.854,-0.831 1.091,-1.379c0.24,-0.545 0.357,-1.069 0.357,-1.565V21.07c0,-1.239 -0.357,-2.479 -1.073,-3.718h-0.163L22.2,19.502c0.553,1.141 0.83,1.858 0.83,2.147C22.766,22.485 21.558,22.891 19.39,22.868L19.39,22.868zM20.769,10.998c1.261,0.522 1.896,0.964 1.896,1.322l-1.074,1.654h-0.082c-0.232,0 -0.866,-0.331 -1.899,-0.994C20.117,11.658 20.503,10.998 20.769,10.998L20.769,10.998zM22.753,13.395c-0.431,0.345 -0.789,0.979 -1.078,1.905c0.398,0.463 1.062,0.877 1.98,1.235c0.691,-0.897 1.078,-1.475 1.156,-1.737C24.812,14.454 24.127,13.985 22.753,13.395L22.753,13.395zM19.776,13.808c-0.61,0.99 -0.912,1.651 -0.912,1.983v0.086c0.7,0.658 1.229,0.99 1.57,0.99h0.163c0.667,-0.939 0.993,-1.545 0.993,-1.82C20.724,14.223 20.117,13.808 19.776,13.808z" id="path_1"/></svg>