<svg id="vector" xmlns="http://www.w3.org/2000/svg" width="75" height="67" viewBox="0 0 84 75"><path fill="#1717F3" d="M33.048,37.987c1.781,-7.39 5.454,-12.777 11.022,-16.161c0.658,-0.521 1.667,-1.236 3.038,-2.139c-0.541,-0.297 -1.29,-0.469 -2.245,-0.522c-0.947,-0.056 -1.875,-0.1 -2.77,-0.137c-1.367,0.037 -2.726,0.056 -4.108,0.056c-1.48,0.243 -2.498,0.981 -3.059,2.221c-0.289,1.036 -0.757,1.722 -1.432,2.037c0.049,-2.273 0.883,-4.917 2.489,-7.932c1.127,-2.139 3.273,-3.203 6.451,-3.203c0.467,0 1.272,0.019 2.398,0.054c1.132,0.036 1.97,0.055 2.519,0.055c5.657,0.633 10.604,0.596 14.853,-0.108c0.351,0.037 0.876,-0.008 1.57,-0.136c0.704,-0.126 1.2,-0.189 1.497,-0.189c0.667,0 1.217,0.182 1.644,0.533c-0.272,0.488 -0.598,1.253 -0.984,2.292c-0.28,0.711 -0.578,1.444 -0.883,2.21c-0.31,0.768 -0.748,1.353 -1.334,1.76c-1.907,0.189 -5.946,1.254 -12.137,3.176c-4.441,1.886 -7.936,4.159 -10.469,6.821c-3.571,3.502 -5.508,7.337 -5.783,11.498c-0.444,2.363 0.194,4.637 1.919,6.82c1.362,1.957 3.148,3.583 5.368,4.864c4.531,2.845 10.909,4.26 19.141,4.26c2.457,0 6.272,-0.533 11.449,-1.587c0.208,0.053 0.525,0.008 0.947,-0.146c0.424,-0.155 0.709,-0.229 0.847,-0.229c0.285,0 0.456,0.265 0.509,0.798c0.102,0.313 -0.252,0.792 -1.054,1.423c-4.136,2.318 -7.215,3.872 -9.262,4.665c-3.574,1.428 -6.99,2.078 -10.261,1.948c-4.808,-0.208 -8.973,-1.09 -12.494,-2.64c-3.229,-1.375 -5.476,-3.197 -6.74,-5.471c-2.159,-3.673 -3.258,-6.995 -3.314,-9.972c0,-0.559 0.049,-2.209 0.139,-4.942C32.608,39.521 32.779,38.863 33.048,37.987L33.048,37.987zM50.248,41.425c1.867,1.866 3.438,3.096 4.714,3.673c0.261,0.089 0.439,0.135 0.546,0.135c0.093,0 0.154,-0.008 0.191,-0.025l3.672,-4.974c0,-0.09 -0.024,-0.15 -0.081,-0.208c-2.03,-1.162 -3.71,-2.471 -5.053,-3.914H54.06c-1.664,2.137 -2.929,3.816 -3.812,5.053V41.425z" id="path_0"/><path fill="#0ED50E" d="M20.671,20.725c-1.2,-0.721 -1.915,-1.076 -2.147,-1.076c-0.305,0.191 -0.606,0.854 -0.911,1.982c0,0.251 0.72,0.636 2.152,1.155l0.739,-1.402c1.119,0.661 1.777,0.992 1.984,0.992c0.262,0 0.623,-0.608 1.079,-1.818v-0.083c-0.42,-0.427 -1.046,-0.812 -1.908,-1.157C21.456,19.317 21.127,19.787 20.671,20.725z" id="path_1"/><path fill="#000001" d="M28.216,18.572c-0.472,0.696 -0.802,1.358 -0.992,1.985c0.194,0.344 0.724,0.732 1.569,1.157h0.167c0.109,-0.014 0.439,-0.563 0.988,-1.653C29.948,19.648 29.371,19.152 28.216,18.572z" id="path_2"/><path fill="#000001" d="M34.108,14.438l-2.233,-0.164c-2.965,-1.158 -4.697,-1.735 -5.21,-1.735h-0.41c-1.217,0 -1.957,0.827 -2.233,2.479c0,0.167 0.057,0.251 0.167,0.251l0.248,-0.165c0.26,-0.829 0.757,-1.24 1.488,-1.24c0.537,0 1.806,0.439 3.799,1.321v0.084c-2.188,0.604 -3.787,0.978 -4.791,1.113h-0.93v2.358h0.763c0.716,-0.058 3.226,-0.716 7.521,-1.987h0.415l0.333,0.085h0.244c0.622,-1.062 0.952,-1.777 0.993,-2.147L34.108,14.438z" id="path_3"/><path fill="#E11818" d="M23.319,16.372c-0.911,-0.028 -1.627,-0.19 -2.152,-0.487c-0.606,-0.507 -1.24,-1.928 -1.899,-4.255c-0.224,0 -0.357,0.661 -0.415,1.985l0.249,1.238l-0.086,0.25c-0.521,0.765 -1.322,1.191 -2.392,1.278h-0.541v0.032c0.026,0 0.047,0.002 0.073,0.001v2.325h0.053c1.086,0.006 1.917,-0.407 2.481,-1.243l0.74,-1.484v0.081c0.842,1.763 2.054,2.646 3.636,2.646h0.081c0.293,0 0.563,0 0.833,0v-2.358h0.022v-0.01C23.782,16.372 23.559,16.372 23.319,16.372z" id="path_4"/><path fill="#ED27ED" d="M10.589,13.686h-0.163c-0.554,0 -1.159,0.554 -1.822,1.653c-0.342,1.322 -0.61,2.104 -0.789,2.335C7.636,17.91 6.862,18.49 5.509,19.41c-1.354,0.922 -2.185,1.512 -2.494,1.766v0.167l0.383,-0.051c0.675,0 1.61,-0.222 2.811,-0.663c0.898,-0.549 1.476,-1.266 1.736,-2.146h0.081c0,1.046 0.773,1.679 2.318,1.9c1.294,0 2.343,-0.687 3.136,-2.066c0.745,0.274 1.518,0.415 2.314,0.424h0.081c0.073,0 0.141,0 0.208,0v-2.326c-1.028,0.03 -1.755,-0.132 -2.184,-0.497C12.378,14.428 11.275,13.686 10.589,13.686zM11.166,17.984h-0.415c-1.155,-0.262 -1.732,-0.758 -1.732,-1.487c0.19,-0.33 0.521,-0.495 0.992,-0.495h0.081c0.569,0 1.392,0.523 2.481,1.57C12.573,17.751 12.104,17.89 11.166,17.984z" id="path_5"/></svg>