<svg id="vector" xmlns="http://www.w3.org/2000/svg" width="75" height="67" viewBox="0 0 84 75"><path fill="#F61313" d="M33.05,43.901c1.78,-7.39 5.453,-12.776 11.019,-16.161c0.659,-0.522 1.67,-1.236 3.041,-2.139c-0.539,-0.297 -1.29,-0.469 -2.245,-0.523c-0.948,-0.055 -1.878,-0.097 -2.77,-0.136c-1.365,0.039 -2.727,0.055 -4.106,0.055c-1.481,0.244 -2.499,0.983 -3.061,2.221c-0.289,1.037 -0.756,1.723 -1.433,2.04c0.053,-2.273 0.884,-4.92 2.489,-7.932c1.129,-2.14 3.276,-3.204 6.453,-3.204c0.468,0 1.273,0.018 2.4,0.054c1.128,0.036 1.966,0.056 2.519,0.056c5.658,0.631 10.602,0.593 14.852,-0.109c0.352,0.036 0.875,-0.009 1.57,-0.136c0.704,-0.126 1.199,-0.188 1.499,-0.188c0.667,0 1.218,0.179 1.641,0.531c-0.271,0.488 -0.596,1.254 -0.982,2.291c-0.28,0.715 -0.578,1.444 -0.884,2.211c-0.307,0.769 -0.75,1.354 -1.336,1.76c-1.904,0.19 -5.946,1.254 -12.137,3.179c-4.439,1.885 -7.934,4.158 -10.467,6.82c-3.573,3.502 -5.505,7.335 -5.784,11.496c-0.443,2.363 0.197,4.637 1.919,6.82c1.365,1.961 3.151,3.584 5.372,4.864c4.529,2.844 10.909,4.26 19.139,4.26c2.454,0 6.271,-0.533 11.451,-1.587c0.208,0.053 0.522,0.009 0.948,-0.146c0.423,-0.154 0.704,-0.224 0.848,-0.224c0.279,0 0.45,0.26 0.505,0.793c0.099,0.313 -0.252,0.793 -1.056,1.428c-4.132,2.318 -7.209,3.868 -9.259,4.661c-3.573,1.428 -6.992,2.078 -10.258,1.952c-4.809,-0.207 -8.978,-1.094 -12.499,-2.644c-3.229,-1.371 -5.476,-3.197 -6.739,-5.471c-2.157,-3.673 -3.26,-6.991 -3.313,-9.969c0,-0.562 0.045,-2.213 0.136,-4.945C32.609,45.435 32.78,44.776 33.05,43.901L33.05,43.901zM46.57,11.283V11.02c0.883,-1.235 2.146,-2.913 3.806,-5.053h0.182c1.345,1.443 3.022,2.753 5.051,3.916c0.055,0.056 0.082,0.118 0.082,0.208l-3.673,4.972c-0.037,0.019 -0.1,0.026 -0.189,0.026c-0.108,0 -0.289,-0.044 -0.551,-0.134C50.007,14.377 48.437,13.149 46.57,11.283z" id="path_0"/><path fill="#000000" d="M15.7,25.225c-1.605,0.096 -2.772,-0.645 -3.502,-2.221c-0.352,-0.586 -0.681,-4.532 -0.99,-11.84v-0.166c0.203,-1.214 0.506,-1.818 0.907,-1.818l0.415,-0.084c0.507,0 1.281,0.167 2.313,0.495v0.166c-0.057,0.165 -0.222,0.25 -0.498,0.25h-1.403c-0.29,0 -0.563,0.163 -0.828,0.494c0.256,6.346 0.63,10.02 1.128,11.025c0.493,1.004 1.314,1.451 2.457,1.342V25.225L15.7,25.225zM15.522,22.868v2.356h0.787c0.716,-0.057 3.224,-0.716 7.522,-1.985h0.413l0.332,0.085h0.246c0.62,-1.061 0.952,-1.778 0.992,-2.148l-0.163,-0.25l-2.233,-0.164c-2.963,-1.158 -4.697,-1.737 -5.208,-1.737h-0.413c-1.214,0 -1.958,0.83 -2.233,2.479c0,0.168 0.056,0.251 0.166,0.251l0.248,-0.165c0.264,-0.827 0.757,-1.24 1.488,-1.24c0.54,0 1.804,0.441 3.802,1.322v0.083c-2.191,0.604 -3.787,0.978 -4.794,1.114H15.522L15.522,22.868zM20.031,14.345c1.156,0.578 1.733,1.075 1.733,1.488c-0.549,1.086 -0.88,1.64 -0.991,1.654h-0.164c-0.846,-0.428 -1.373,-0.813 -1.571,-1.157C19.228,15.703 19.562,15.04 20.031,14.345z" id="path_1"/></svg>