<svg id="vector" xmlns="http://www.w3.org/2000/svg" width="75" height="67" viewBox="0 0 84 75"><path fill="#2151DF" d="M31.272,49.722c2.054,0.146 4.075,0.215 6.051,0.215c4.848,0 9.514,-0.54 14.004,-1.614c0.168,-0.15 0.249,-0.313 0.249,-0.468c0,-0.11 -0.118,-0.317 -0.347,-0.622c-0.235,-0.317 -0.35,-0.524 -0.35,-0.623c-1.442,-1.903 -3.692,-3.692 -6.744,-5.344c-4.695,-2.676 -7.162,-4.067 -7.368,-4.177c0,-2.644 0.186,-5.178 0.556,-7.614l1.002,0.314c3.086,1.687 6.137,3.375 9.15,5.042c3.465,2.221 5.45,4.901 5.947,8.033c0.316,1.09 0.472,2.2 0.472,3.331c0,2.327 -0.769,5.25 -2.318,8.77c-3.864,1.96 -9.204,2.932 -16.029,2.932c-2.111,0 -3.925,-0.154 -5.441,-0.451C30.105,56.868 30.495,54.298 31.272,49.722L31.272,49.722zM34.673,22.418v-0.265c0.887,-1.236 2.146,-2.911 3.806,-5.051h0.185c1.342,1.442 3.021,2.753 5.05,3.916c0.054,0.053 0.082,0.118 0.082,0.208l-3.673,4.971c-0.036,0.02 -0.098,0.028 -0.187,0.028c-0.109,0 -0.294,-0.045 -0.554,-0.135C38.108,25.513 36.539,24.285 34.673,22.418z" id="path_0"/><path fill="#000000" d="M16.5,9.676c0.134,0 0.231,0.366 0.292,1.097l0.733,1.246v0.072c0,0.33 -0.151,0.915 -0.443,1.754l0.443,4.974v1.757c-0.164,1.013 -0.744,2.014 -1.763,2.998c-1.007,0.78 -1.912,1.171 -2.705,1.171h-0.435c-2.123,0 -3.49,-1.049 -4.096,-3.144l-0.15,-1.317c0,-1.355 0.59,-2.551 1.758,-3.584h0.072l0.147,0.147c0,0.264 -0.338,0.922 -1.025,1.972c-0.146,0.378 -0.215,0.72 -0.215,1.025v0.072c0,1.245 0.995,2.148 2.997,2.71l0.878,0.068h0.146c1.411,0 2.656,-0.654 3.73,-1.973l0.068,-0.22c-0.582,-5.096 -0.874,-8.216 -0.874,-9.362v-0.146C16.061,10.456 16.207,10.021 16.5,9.676L16.5,9.676zM20.318,11.082c0.146,0 0.293,0.492 0.439,1.465l0.658,1.464l-0.291,1.685l0.219,4.095v0.655c-0.097,1.672 -0.342,2.647 -0.732,2.929l-0.072,-0.073l0.072,-1.099c0,-0.983 -0.317,-4.132 -0.952,-9.432C19.966,11.645 20.184,11.082 20.318,11.082L20.318,11.082zM24.618,13.06c0.598,0.098 1.18,0.464 1.753,1.098v0.146c-0.362,0.973 -0.63,1.46 -0.801,1.46c-1.171,-0.398 -1.758,-0.716 -1.758,-0.947C23.813,14.364 24.08,13.779 24.618,13.06L24.618,13.06zM24.837,16.501c2.484,0.886 3.73,1.984 3.73,3.289l0.072,0.439c-0.206,1.704 -0.768,2.559 -1.683,2.559c0,0.159 -1.216,0.354 -3.656,0.586l-0.074,-0.22c0,-1.221 0.219,-1.83 0.66,-1.83c2.437,-0.195 3.778,-0.488 4.021,-0.879c-0.838,-0.813 -1.94,-1.472 -3.29,-1.973l-0.073,-0.365C24.581,17.033 24.679,16.501 24.837,16.501z" id="path_1"/></svg>