<svg id="vector" xmlns="http://www.w3.org/2000/svg" width="75" height="67" viewBox="0 0 83 73"><path fill="#000001" d="M18.978,21.091c0.312,0 0.624,1.044 0.938,3.121l1.404,3.122l-0.626,3.588l0.466,8.74v1.397c-0.206,3.568 -0.726,5.646 -1.558,6.244l-0.152,-0.153l0.152,-2.343c0,-2.104 -0.679,-8.814 -2.03,-20.123C18.225,22.288 18.69,21.091 18.978,21.091z" id="path_0"/><path fill="#000001" d="M58.881,48.728c0.534,0 1.778,0.625 3.742,1.877c0,0.779 -0.62,2.023 -1.87,3.741c-2.496,-0.805 -3.742,-1.531 -3.742,-2.184C57.071,51.577 57.697,50.432 58.881,48.728z" id="path_1"/><path fill="#000001" d="M55.135,41.885c4.088,0.04 6.369,-0.726 6.868,-2.303c0,-0.546 -0.519,-1.897 -1.563,-4.055l0.472,-4.054h0.306c1.359,2.337 2.032,4.68 2.032,7.016v1.405c0,0.939 -0.226,1.924 -0.673,2.956c-0.446,1.031 -1.139,1.903 -2.063,2.603c-0.933,0.705 -2.723,0.998 -5.379,0.878V41.885z" id="path_2"/><path fill="#000001" d="M65.258,20.545c0.16,-0.094 0.207,0.053 0.141,0.432c-0.886,2.077 -2.243,3.528 -4.074,4.347l-6.729,3.375c-0.287,-0.08 -0.34,-0.313 -0.16,-0.705c0.899,-1.73 1.512,-2.756 1.837,-3.082L65.258,20.545z" id="path_3"/><path fill="#008046" d="M55.328,46.345c-0.141,0.014 -0.287,0.02 -0.428,0.02h-0.785c-1.217,0 -2.05,-0.1 -2.494,-0.312c-0.907,3.5 -1.964,5.645 -3.178,6.43c-1.211,0.785 -3.946,1.45 -8.206,1.996h-0.313c-0.938,-0.105 -1.404,-0.259 -1.404,-0.466c0,-0.313 0.778,-0.679 2.336,-1.091c6.138,-2.81 9.207,-4.84 9.207,-6.085c0,-0.519 -0.726,-1.717 -2.185,-3.588c-0.312,-0.525 -0.466,-1.197 -0.466,-2.03v-1.557c0,-0.785 0.154,-1.198 0.466,-1.252c1.352,2.07 3.642,3.223 6.863,3.468c0.2,0 0.394,0 0.587,-0.013V46.345z" id="path_4"/><path fill="#008046" d="M46.102,27.2h1.545c1.87,0 2.808,0.699 2.808,2.104c-1.211,3.274 -2.681,5.012 -4.413,5.212l-2.044,0.272c-0.325,0 -0.458,-0.094 -0.411,-0.272c1.65,-0.872 3.194,-1.91 4.626,-3.102c-0.507,-0.474 -1.064,-0.706 -1.678,-0.706h-0.433l-1.677,0.139l-0.135,-0.139v-0.273C45.084,28.278 45.688,27.2 46.102,27.2z" id="path_5"/><path fill="#213e95" d="M28.615,32.64c5.304,1.897 7.954,4.239 7.954,7.022l0.16,0.932c-0.446,3.641 -1.645,5.459 -3.595,5.459c0,0.339 -2.595,0.758 -7.794,1.251l-0.16,-0.467c0,-2.603 0.466,-3.9 1.404,-3.9c5.199,-0.419 8.062,-1.045 8.58,-1.877c-1.79,-1.737 -4.134,-3.143 -7.022,-4.207l-0.153,-0.785C28.068,33.784 28.275,32.64 28.615,32.64z" id="path_6"/><path fill="#f06022" d="M34.559,22.028l0.16,0.14v0.426c-0.812,1.731 -1.937,2.943 -3.376,3.648c-4.472,2.43 -6.956,3.647 -7.447,3.647c-0.188,0 -0.279,-0.146 -0.279,-0.432c0.434,-1.651 1.371,-2.77 2.809,-3.355l8.001,-4.074H34.559z" id="path_7"/><path fill="#f06022" d="M33.447,18.521c0.18,0 0.273,0.134 0.273,0.406c-0.52,1.511 -2.058,2.869 -4.62,4.081l-5.911,3.234l-0.133,-0.14v-0.153c0.56,-1.978 1.445,-3.195 2.67,-3.647l6.59,-3.375L33.447,18.521z" id="path_8"/></svg>