<svg id="vector" xmlns="http://www.w3.org/2000/svg" width="75" height="67" viewBox="0 0 83 73"><path fill="#008046" d="M54.467,28.271c1.378,0.727 2.469,1.459 3.274,2.185c-0.233,1.117 -0.958,2.315 -2.183,3.587h-0.153c-1.43,-0.599 -2.423,-1.271 -2.968,-2.03V31.7C53.375,29.417 54.048,28.271 54.467,28.271z" id="path_0"/><path fill="#008046" d="M50.992,46.797c0.226,0.026 0.447,-0.093 0.666,-0.353c-0.413,-0.506 -0.626,-1.032 -0.626,-1.578v-1.404c0.5,-4.572 2.317,-6.862 5.465,-6.862c1.584,0 3.302,0.832 5.146,2.496c0.679,0.259 1.039,0.519 1.091,0.778v0.152c0,0.24 -0.259,0.394 -0.778,0.474c0,-0.446 -1.352,-0.806 -4.054,-1.091h-0.625c-2.916,0.438 -4.368,1.217 -4.368,2.336c0,1.537 1.504,2.683 4.521,3.434l1.091,0.154c0.393,0 2.369,-0.985 5.931,-2.963h0.153l0.313,0.313c0,2.157 -2.39,4.5 -7.177,7.023c-3.408,1.038 -5.485,1.558 -6.236,1.558c-0.174,0 -0.339,-0.007 -0.513,-0.021V46.797z" id="path_1"/><path fill="#008046" d="M57.396,14.4c1.597,0 2.396,0.985 2.396,2.948c0,3.129 -2.669,5.798 -8.014,7.995c-0.766,0.233 -0.859,-0.047 -0.273,-0.839c0.146,-0.3 1.404,-1.238 3.78,-2.809v-0.134c-1.025,-0.419 -1.537,-1.312 -1.537,-2.676c0.678,-2.988 1.757,-4.486 3.234,-4.486H57.396L57.396,14.4zM55.013,17.775c0,0.832 0.705,1.345 2.11,1.544h0.273c0.519,0 0.851,-0.192 0.992,-0.566c0,-0.845 -0.612,-1.503 -1.831,-1.97C56.024,16.783 55.512,17.116 55.013,17.775z" id="path_2"/><path fill="#000001" d="M39.942,46.817c0.026,0 0.06,0 0.094,0c2.495,-0.152 3.926,-1.271 4.293,-3.355c-0.939,-6.237 -1.405,-10.61 -1.405,-13.106c0,-0.958 0.419,-2.209 1.252,-3.74l0.153,0.153l0.312,0.312l-0.159,1.093c0.132,7.008 1.018,12.44 2.656,16.301c0.625,1.404 2.156,2.191 4.6,2.344v4.446c-3.355,-0.054 -5.612,-1.817 -6.784,-5.306h-0.16c-1.079,3.495 -2.695,5.266 -4.852,5.306V46.817z" id="path_3"/><path fill="#000001" d="M43.524,17.802h1.544c1.87,0 2.808,0.699 2.808,2.104c-1.211,3.274 -2.683,5.013 -4.413,5.212l-2.043,0.273c-0.327,0 -0.46,-0.094 -0.414,-0.273c1.651,-0.871 3.195,-1.91 4.627,-3.102c-0.506,-0.473 -1.066,-0.706 -1.678,-0.706h-0.432l-1.678,0.14l-0.133,-0.14v-0.272C42.505,18.88 43.111,17.802 43.524,17.802z" id="path_4"/><path fill="#213e95" d="M32.2,52.981c0.533,0 1.784,0.625 3.748,1.869c0,0.779 -0.626,2.031 -1.877,3.748c-2.496,-0.812 -3.741,-1.537 -3.741,-2.189C30.397,55.83 31.016,54.685 32.2,52.981z" id="path_5"/><path fill="#213e95" d="M26.522,46.817c1.112,0.013 1.798,-0.007 2.07,-0.061c2.343,-0.711 3.941,-2.23 4.799,-4.539c0.127,-0.446 0.386,-0.5 0.779,-0.16c0.207,0.18 0.367,0.912 0.466,2.184c1.418,1.91 3.188,2.77 5.306,2.576h0.413v4.446h-0.1c-3.315,-0.153 -5.758,-1.665 -7.335,-4.526h-0.153c-1.105,2.33 -2.563,3.762 -4.367,4.293c-0.545,0.153 -1.171,0.233 -1.877,0.233V46.817z" id="path_6"/><path fill="#f06022" d="M37.952,28.153l0.16,0.139v0.427c-0.813,1.729 -1.938,2.941 -3.376,3.647c-4.473,2.43 -6.955,3.647 -7.447,3.647c-0.188,0 -0.28,-0.146 -0.28,-0.433c0.432,-1.651 1.371,-2.77 2.81,-3.355l8,-4.072H37.952z" id="path_7"/><path fill="#f06022" d="M36.841,24.645c0.179,0 0.273,0.134 0.273,0.405c-0.52,1.512 -2.058,2.87 -4.62,4.081l-5.911,3.235l-0.134,-0.141v-0.153c0.56,-1.976 1.445,-3.194 2.67,-3.647l6.589,-3.375L36.841,24.645z" id="path_8"/><path fill="#DD2C00" d="M26.563,51.264c-3.029,0.18 -5.232,-1.219 -6.61,-4.194c-0.665,-1.104 -1.284,-8.553 -1.87,-22.345v-0.313c0.386,-2.289 0.958,-3.434 1.71,-3.434l0.786,-0.154c0.958,0 2.416,0.313 4.366,0.933v0.313c-0.106,0.313 -0.419,0.473 -0.938,0.473h-2.649c-0.546,0 -1.065,0.307 -1.565,0.932c0.487,11.976 1.191,18.911 2.13,20.809c0.932,1.896 2.483,2.741 4.64,2.536V51.264z" id="path_9"/></svg>