<svg id="vector" xmlns="http://www.w3.org/2000/svg" width="100" height="67" viewBox="0 0 171 73"><path fill="#000001" d="M104.454,19.531c0.314,0 0.627,1.046 0.941,3.126l1.406,3.126l-0.627,3.594l0.467,8.754v1.4c-0.207,3.573 -0.727,5.652 -1.561,6.253l-0.152,-0.154l0.152,-2.346c0,-2.106 -0.68,-8.827 -2.033,-20.153C103.702,20.73 104.169,19.531 104.454,19.531z" id="path_0"/><path fill="#000001" d="M84.802,40.337c0.18,0.014 0.373,0.021 0.586,0.021h1.48c1.566,-0.26 2.76,-0.807 3.594,-1.641L88.589,23.87c0.467,-2.813 0.887,-4.213 1.246,-4.213l2.033,4.687c0,0.727 -0.26,1.82 -0.779,3.28l0.779,8.433v2.348c-0.586,2.486 -1.373,4.226 -2.359,5.213c-0.746,0.794 -1.619,1.193 -2.641,1.193h-1.326c-0.26,0 -0.506,-0.007 -0.74,-0.021V40.337z" id="path_1"/><path fill="#000001" d="M90.089,10.65h1.547c1.873,0 2.813,0.7 2.813,2.107c-1.213,3.279 -2.686,5.02 -4.42,5.22l-2.047,0.272c-0.326,0 -0.459,-0.093 -0.412,-0.272c1.652,-0.874 3.199,-1.913 4.633,-3.106c-0.506,-0.474 -1.066,-0.707 -1.68,-0.707h-0.434l-1.68,0.141l-0.135,-0.141v-0.273C89.069,11.73 89.675,10.65 90.089,10.65z" id="path_2"/><path fill="#DD2C00" d="M86.216,44.811c-0.1,0 -0.207,0 -0.307,0h-1.408c-1.406,0 -3.025,-0.887 -4.846,-2.653c-3.127,1.713 -9.412,2.6 -13.033,2.653v-4.434c1.895,0.127 7.24,-0.267 10.221,-1.193V39.03c-1.434,-0.94 -2.787,-1.406 -4.061,-1.406l-1.254,0.153l-0.313,-0.78c0.42,-2.813 1.619,-4.22 3.594,-4.22l2.5,-0.153c3.959,0.466 5.939,1.353 5.939,2.653v0.627L82.31,39.03c0.76,0.921 2.059,1.366 3.906,1.327V44.811z" id="path_3"/><path fill="#DD2C00" d="M79.108,16.564c1.6,0 2.4,0.986 2.4,2.953c0,3.133 -2.674,5.807 -8.027,8.006c-0.766,0.234 -0.859,-0.047 -0.271,-0.84c0.146,-0.3 1.406,-1.24 3.785,-2.813v-0.134c-1.025,-0.42 -1.539,-1.313 -1.539,-2.681c0.68,-2.992 1.76,-4.492 3.24,-4.492H79.108L79.108,16.564zM76.722,19.943c0,0.834 0.707,1.348 2.113,1.547h0.273c0.52,0 0.854,-0.193 0.994,-0.566c0,-0.847 -0.613,-1.506 -1.834,-1.973C77.735,18.951 77.222,19.284 76.722,19.943z" id="path_4"/><path fill="#213e95" d="M66.622,44.811c-0.246,0 -0.547,0 -0.9,0c-1.393,-0.013 -2.893,-1.06 -4.512,-3.146c-0.621,2.293 -1.715,3.44 -3.281,3.44h-0.152c-1.328,0 -2.42,-0.781 -3.281,-2.348h-0.16c-0.932,1.881 -2.066,2.733 -3.398,2.561c-2.475,0.014 -3.941,-1.153 -4.414,-3.493c-1.74,2.04 -3.613,2.986 -5.607,2.986h-2.592v-4.453h0.08c3.154,0 7.832,-1.18 9.373,-3.221c0.207,0 0.313,0.154 0.313,0.467l-0.16,1.094c0.834,1.666 1.928,2.5 3.281,2.5c1.279,0 2.58,-1.246 3.906,-3.746h0.16l0.467,0.466v1.093c0,0.987 0.732,1.561 2.186,1.721h0.314c1.354,0 2.605,-1.354 3.752,-4.066h0.154c0.207,0 0.313,0.473 0.313,1.406c0.574,1.58 1.961,2.34 4.16,2.287V44.811z" id="path_5"/><path fill="#213e95" d="M53.79,22.271h1.545c1.875,0 2.814,0.7 2.814,2.106c-1.213,3.28 -2.688,5.02 -4.42,5.221l-2.047,0.273c-0.326,0 -0.461,-0.094 -0.414,-0.273c1.654,-0.874 3.201,-1.914 4.635,-3.107c-0.508,-0.473 -1.068,-0.707 -1.682,-0.707H53.79l-1.682,0.141l-0.133,-0.141V25.51C52.769,23.351 53.376,22.271 53.79,22.271z" id="path_6"/><path fill="#000001" d="M38.536,44.823c-0.141,0.014 -0.287,0.021 -0.426,0.021h-0.787c-1.221,0 -2.055,-0.101 -2.5,-0.313c-0.908,3.507 -1.967,5.654 -3.18,6.44c-1.215,0.786 -3.955,1.453 -8.221,2H23.11c-0.941,-0.106 -1.408,-0.261 -1.408,-0.467c0,-0.313 0.781,-0.68 2.34,-1.093c6.148,-2.814 9.221,-4.848 9.221,-6.094c0,-0.52 -0.727,-1.721 -2.186,-3.594c-0.314,-0.526 -0.467,-1.2 -0.467,-2.033v-1.56c0,-0.787 0.152,-1.2 0.467,-1.254c1.352,2.074 3.646,3.227 6.873,3.474c0.199,0 0.393,0 0.586,-0.014V44.823z" id="path_7"/><path fill="#000001" d="M34.122,54.49c0.16,-0.087 0.207,0.054 0.141,0.434c-0.887,2.08 -2.246,3.533 -4.08,4.353l-6.74,3.381c-0.287,-0.08 -0.34,-0.313 -0.16,-0.7c0.9,-1.733 1.514,-2.76 1.84,-3.087L34.122,54.49z" id="path_8"/><path fill="#000001" d="M147.812,33.472c-0.424,0.353 -0.945,0.499 -1.561,0.445c-0.564,-0.044 -1.119,-0.151 -1.662,-0.325c-0.549,-0.175 -1.305,-0.521 -2.275,-1.049c-0.973,-0.527 -1.75,-0.794 -2.332,-0.805c-0.287,0.109 -0.559,0.381 -0.814,0.826c-0.348,0.564 -0.615,0.929 -0.793,1.098c-0.957,1.298 -2.375,2.069 -4.25,2.325v-4.429c2.037,0.098 3.787,-0.717 5.248,-2.439c0.344,-0.391 0.783,-1.141 1.326,-2.244c0.668,-1.048 1.354,-2.074 2.055,-3.074c0.869,-1.113 1.824,-1.712 2.879,-1.799c0.223,0 0.445,0 0.668,0c0.924,0.359 1.488,0.811 1.701,1.354c0.732,0.982 1.152,2.189 1.26,3.613C149.44,29.195 148.956,31.363 147.812,33.472L147.812,33.472zM146.665,28.984c0.287,0.211 0.467,0.162 0.543,-0.142c-0.365,-1.087 -1.174,-1.848 -2.436,-2.293c-0.205,-0.044 -0.4,-0.06 -0.592,-0.049c-0.5,0.032 -1.086,0.288 -1.766,0.767l0.018,0.281C144.089,28.473 145.495,28.951 146.665,28.984z" id="path_9"/><path fill="#000001" d="M136.194,19.193l0.988,-2.944l9.596,-4.216c0.131,-0.033 0.189,-0.017 0.189,0.049c0,0.032 -0.016,0.108 -0.049,0.238l-1.287,3.054l-9.215,4.124c-0.119,0.011 -0.189,0.011 -0.223,0C136.151,19.433 136.151,19.335 136.194,19.193z" id="path_10"/><path fill="#213e95" d="M122.274,46.081c0.902,0.615 1.75,1.012 2.533,1.195c2.617,0.663 5.178,1 7.672,1c1.443,0 3.33,-0.108 5.648,-0.32c0.648,-0.114 1.594,-0.206 2.836,-0.266c0.061,0.179 -0.053,0.325 -0.352,0.445c-0.469,0.189 -0.729,0.314 -0.777,0.38c-1.104,0.636 -2.793,1.526 -5.064,2.673c-1.4,0.588 -2.471,0.94 -3.215,1.065c-0.527,0.098 -1.637,0.13 -3.311,0.098c-1.254,0 -2.666,-0.3 -4.248,-0.892c-1.58,-0.598 -2.797,-1.287 -3.645,-2.07c-1.979,-2.178 -2.918,-4.813 -2.82,-7.915c0.033,-1.918 0.25,-3.516 0.662,-4.792l0,0c1.033,-3.206 2.881,-5.911 5.531,-8.122c0.424,-0.262 0.973,-0.729 1.641,-1.396c-0.553,-1.011 -1.543,-1.516 -2.961,-1.516c-0.521,0 -1.26,0.076 -2.217,0.223c0,0.064 -0.07,0.098 -0.223,0.098c-0.168,-0.18 -0.135,-0.517 0.098,-1.006c0.191,-0.668 0.408,-1.374 0.646,-2.118c0.24,-0.739 0.674,-1.218 1.311,-1.429c1.656,-0.521 3.352,-0.783 5.08,-0.783c1.189,0 2.314,0.131 3.373,0.396c0.521,0.223 1.141,0.718 1.863,1.484c0.092,0.266 0.143,0.537 0.143,0.814c0,0.912 -0.789,2.098 -2.369,3.547l-1.131,1.119c0.527,2.614 2.385,3.799 5.568,3.56v4.472c-2.629,0.011 -4.559,-0.951 -5.775,-2.88c-0.564,-0.733 -0.982,-2.005 -1.26,-3.819l-0.092,0.076c0,-0.027 -0.018,-0.055 -0.049,-0.076c-1.244,0.299 -2.994,1.326 -5.254,3.086c-1.244,1.738 -2.125,3.211 -2.641,4.406c-0.363,0.858 -0.543,1.771 -0.543,2.738C118.722,42.338 119.835,44.512 122.274,46.081z" id="path_11"/><path fill="#213e95" d="M121.134,17.52l0.99,-2.944l9.594,-4.216c0.131,-0.033 0.189,-0.017 0.189,0.049c0,0.033 -0.016,0.109 -0.049,0.238l-1.287,3.055l-9.215,4.123c-0.119,0.011 -0.189,0.011 -0.223,0C121.091,17.76 121.091,17.661 121.134,17.52z" id="path_12"/></svg>