<svg id="vector" xmlns="http://www.w3.org/2000/svg" width="75" height="67" viewBox="0 0 83 73"><path fill="#000001" d="M73.547,24.705c0.312,0 0.626,1.045 0.938,3.122l1.404,3.121l-0.624,3.588l0.466,8.74v1.398c-0.206,3.567 -0.726,5.644 -1.558,6.242l-0.154,-0.151l0.154,-2.344c0,-2.103 -0.679,-8.813 -2.03,-20.122C72.794,25.903 73.26,24.705 73.547,24.705z" id="path_0"/><path fill="#000001" d="M78.205,15.579c0.16,-0.094 0.207,0.053 0.141,0.433c-0.885,2.077 -2.242,3.528 -4.073,4.347l-6.73,3.374c-0.286,-0.08 -0.339,-0.312 -0.16,-0.705c0.899,-1.73 1.512,-2.756 1.838,-3.082L78.205,15.579z" id="path_1"/><path fill="#000001" d="M60.387,26.896c1.352,0 2.596,0.832 3.74,2.495c-0.957,2.184 -1.69,3.275 -2.184,3.275c-2.103,-1.038 -3.247,-1.718 -3.435,-2.03C58.509,29.651 59.135,28.399 60.387,26.896z" id="path_2"/><path fill="#000001" d="M55.334,46.471h0.778c4.854,-0.092 8.075,-0.771 9.673,-2.049l0.312,-0.619c-0.204,-0.5 -0.464,-0.746 -0.777,-0.746c-0.753,0.419 -1.584,0.626 -2.496,0.626h-0.16c-2.703,-0.313 -4.107,-1.404 -4.207,-3.274v-0.16c0.26,-3.535 1.093,-5.299 2.496,-5.299h0.778c2.404,-0.119 4.229,1.751 5.459,5.611l0.153,1.563v0.314c-0.032,3.82 -1.405,6.344 -4.114,7.561c-0.958,0.612 -3.594,0.918 -7.895,0.918V46.471z" id="path_3"/><path fill="#000001" d="M61.198,16.012h1.545c1.87,0 2.81,0.698 2.81,2.104c-1.213,3.275 -2.684,5.012 -4.413,5.212L59.096,23.6c-0.327,0 -0.46,-0.094 -0.413,-0.272c1.651,-0.872 3.194,-1.91 4.626,-3.102c-0.505,-0.474 -1.065,-0.706 -1.678,-0.706h-0.433l-1.677,0.139l-0.133,-0.139v-0.272C60.181,17.09 60.787,16.012 61.198,16.012z" id="path_4"/><path fill="#DD2C00" d="M56.813,50.917l-1.757,-0.02c-0.974,4.281 -3.548,6.443 -7.723,6.497c-2.237,0.101 -3.354,0.06 -3.354,-0.12c0.207,-0.392 1.704,-1.145 4.487,-2.263c2.861,-1.816 4.585,-2.988 5.186,-3.508l0.158,-0.466l-2.729,-0.433c-1.991,-0.52 -3.108,-1.519 -3.354,-3.002V47.29c0,-2.522 0.618,-4.134 1.87,-4.839l0.938,-0.153c1.845,0 3.349,1.285 4.521,3.861c0.745,0.259 1.33,0.386 1.757,0.372V50.917z" id="path_5"/><path fill="#DD2C00" d="M55.502,29.798c0.158,-0.094 0.205,0.052 0.139,0.433c-0.886,2.077 -2.243,3.527 -4.074,4.346l-6.729,3.375c-0.285,-0.08 -0.34,-0.313 -0.16,-0.706c0.899,-1.729 1.512,-2.756 1.839,-3.081L55.502,29.798z" id="path_6"/><path fill="#000001" d="M37.775,24.705c0.312,0 0.626,1.045 0.938,3.122l1.404,3.121l-0.626,3.588l0.466,8.74v1.398c-0.204,3.567 -0.725,5.644 -1.556,6.242l-0.154,-0.151l0.154,-2.344c0,-2.103 -0.681,-8.813 -2.03,-20.122C37.022,25.903 37.488,24.705 37.775,24.705z" id="path_7"/><path fill="#213e95" d="M21.281,50.605c2.182,1.092 3.274,2.03 3.274,2.808c-1.04,2.058 -1.664,3.097 -1.87,3.123h-0.314c-1.597,-0.806 -2.59,-1.537 -2.962,-2.183C19.77,53.168 20.396,51.917 21.281,50.605z" id="path_8"/><path fill="#213e95" d="M12.772,46.471h1.798c1.897,-0.259 4.913,-0.965 9.047,-2.102v-0.16c-3.768,-1.664 -6.158,-2.496 -7.177,-2.496c-1.377,0 -2.309,0.778 -2.808,2.342l-0.467,0.314c-0.206,0 -0.313,-0.16 -0.313,-0.475c0.519,-3.114 1.925,-4.678 4.214,-4.678h0.778c0.966,0 4.241,1.091 9.833,3.274l4.212,0.313l0.307,0.473c-0.072,0.698 -0.698,2.05 -1.87,4.054h-0.467l-0.626,-0.159h-0.778c-8.114,2.396 -12.847,3.642 -14.198,3.746h-1.484V46.471z" id="path_9"/><path fill="#f06022" d="M27.305,26.422l0.16,0.141v0.426c-0.813,1.73 -1.938,2.941 -3.376,3.647c-4.474,2.43 -6.956,3.647 -7.449,3.647c-0.186,0 -0.279,-0.146 -0.279,-0.433c0.434,-1.65 1.371,-2.769 2.811,-3.355l7.999,-4.073H27.305z" id="path_10"/><path fill="#f06022" d="M26.193,22.914c0.18,0 0.271,0.134 0.271,0.407c-0.52,1.51 -2.056,2.868 -4.618,4.079l-5.911,3.235l-0.135,-0.141v-0.151c0.56,-1.978 1.445,-3.196 2.67,-3.649l6.59,-3.373L26.193,22.914z" id="path_11"/><path fill="#000001" d="M13.106,50.917c-3.029,0.181 -5.232,-1.217 -6.611,-4.192c-0.665,-1.105 -1.283,-8.554 -1.87,-22.346v-0.313c0.386,-2.29 0.959,-3.435 1.71,-3.435l0.786,-0.154c0.959,0 2.416,0.313 4.366,0.933v0.313c-0.105,0.313 -0.419,0.473 -0.938,0.473H7.901c-0.546,0 -1.067,0.307 -1.566,0.932c0.487,11.975 1.191,18.911 2.132,20.809c0.932,1.896 2.482,2.742 4.64,2.535V50.917z" id="path_12"/></svg>