<svg id="vector" xmlns="http://www.w3.org/2000/svg" width="75" height="67" viewBox="0 0 83 73"><path fill="#000001" d="M74.912,27.926c0.273,0 0.549,0.916 0.822,2.74l1.234,2.742l-0.549,3.15l0.408,7.676v1.227c-0.182,3.133 -0.637,4.957 -1.367,5.482l-0.135,-0.133l0.135,-2.059c0,-1.848 -0.596,-7.738 -1.783,-17.67C74.252,28.977 74.66,27.926 74.912,27.926z" id="path_0"/><path fill="#000001" d="M79.002,19.91c0.141,-0.082 0.182,0.047 0.123,0.381c-0.777,1.824 -1.969,3.098 -3.576,3.818l-5.91,2.963c-0.252,-0.07 -0.299,-0.275 -0.141,-0.621c0.789,-1.52 1.328,-2.418 1.613,-2.705L79.002,19.91z" id="path_1"/><path fill="#008046" d="M57.41,24.926c1.35,0.439 2.396,0.982 3.15,1.65v0.273c0,0.455 -0.502,1.461 -1.508,3.01c-0.936,0 -1.986,-0.502 -3.15,-1.508v-0.275C55.902,27.096 56.404,26.049 57.41,24.926z" id="path_2"/><path fill="#008046" d="M57.002,42.604c-0.924,-1.064 -1.393,-2.164 -1.393,-3.309c0,-4.197 1.555,-6.301 4.658,-6.301h0.824c1.076,0 2.396,0.502 3.977,1.506c0.396,0.158 1.127,0.709 2.191,1.645c0.408,0.707 0.227,0.893 -0.551,0.549c-1.506,-0.73 -3.15,-1.094 -4.932,-1.094h-0.135c-1.438,0 -2.898,0.592 -4.385,1.777c0,0.959 1.549,2.012 4.658,3.15l1.643,0.275l6.162,-1.508c0.713,-0.146 0.795,0.367 0.256,1.555c-0.531,1.18 -1.529,1.986 -2.992,2.42c-1.699,0.684 -4.201,1.385 -7.498,2.098c-3.303,0.713 -6.098,1.111 -8.395,1.193v0.047c-3.297,0.104 -5.506,0.123 -6.617,0.064c-1.117,-0.064 -2.041,-0.146 -2.783,-0.252c-0.742,-0.1 -1.285,-0.445 -1.631,-1.029c-0.338,-0.578 0.416,-0.975 2.27,-1.186c1.857,-0.211 4.072,-0.34 6.645,-0.387C51.553,43.771 54.225,43.369 57.002,42.604z" id="path_3"/><path fill="#008046" d="M57.393,15.756h1.355c1.643,0 2.467,0.613 2.467,1.846c-1.063,2.877 -2.355,4.402 -3.875,4.578l-1.795,0.238c-0.287,0 -0.402,-0.082 -0.361,-0.238c1.449,-0.766 2.805,-1.678 4.063,-2.725c-0.445,-0.416 -0.936,-0.619 -1.475,-0.619h-0.379l-1.473,0.123l-0.117,-0.123v-0.24C56.498,16.701 57.031,15.756 57.393,15.756z" id="path_4"/><path fill="#008046" d="M36.244,42.807c0.287,0 0.584,0 0.895,0l0.684,-0.344c0.434,-0.889 1.076,-1.982 1.918,-3.285l-1.367,-10.551c0.455,-2.191 0.863,-3.285 1.232,-3.285l0.684,2.602c0.637,0.887 0.959,1.713 0.959,2.467c-0.457,0.84 -0.684,1.531 -0.684,2.051v0.275l0.273,4.383v0.689c1.416,-1.191 3.309,-1.84 5.682,-1.951c2.742,0.385 4.109,1.297 4.109,2.736v0.957c-0.455,2.035 -1.139,3.59 -2.051,4.66c-2.766,1.555 -5.799,2.385 -9.113,2.5h-1.508c-0.604,0 -1.176,0 -1.713,0V42.807L36.244,42.807zM38.916,42.877h0.275c4.178,-0.117 7.445,-0.859 9.795,-2.227c-1.068,-1.1 -1.846,-1.643 -2.326,-1.643h-1.098C42.434,39.119 40.219,40.41 38.916,42.877z" id="path_5"/><path fill="#008046" d="M50.42,20.209c0.141,-0.082 0.182,0.047 0.123,0.381c-0.779,1.822 -1.971,3.098 -3.578,3.816l-5.91,2.963c-0.252,-0.068 -0.299,-0.273 -0.141,-0.619c0.791,-1.52 1.328,-2.42 1.613,-2.707L50.42,20.209z" id="path_6"/><path fill="#DD2C00" d="M28.113,33.338c0.777,0 1.83,0.643 3.15,1.916v0.277c-0.889,1.916 -1.484,2.875 -1.783,2.875l-3.15,-1.777h-0.135c-0.889,1.525 -1.484,2.35 -1.781,2.467h-0.135c-2.012,-0.895 -3.016,-1.578 -3.016,-2.059c0.729,-2.01 1.371,-3.016 1.916,-3.016l3.291,1.783C26.998,34.734 27.541,33.91 28.113,33.338z" id="path_7"/><path fill="#DD2C00" d="M24.553,29.094c0.889,0 1.895,0.777 3.012,2.326c-0.299,0.709 -0.889,1.533 -1.777,2.467h-0.275c-0.801,-0.182 -1.666,-0.684 -2.607,-1.508v-0.408C22.975,31.238 23.525,30.281 24.553,29.094z" id="path_8"/><path fill="#DD2C00" d="M36.438,46.711l-1.492,0.018h-0.133c-0.982,0.07 -2.035,-0.578 -3.152,-1.951c-0.438,1.648 -1.256,2.467 -2.465,2.467c-1.211,0 -2.17,-0.684 -2.883,-2.053c-0.982,1.275 -1.893,1.918 -2.736,1.918h-1.098l-0.959,-0.141c0,2.033 -0.637,4.133 -1.918,6.303c-2.285,2.652 -4.658,3.975 -7.125,3.975c-4.268,0 -7.055,-2.24 -8.354,-6.711L3.85,47.654c0,-2.689 1.092,-5.068 3.285,-7.121c0.367,0.182 0.549,0.457 0.549,0.818c-1.555,2.15 -2.326,3.84 -2.326,5.074v0.543c0,3.018 1.73,5.068 5.201,6.168l2.193,0.273c3.244,0 5.758,-1.461 7.533,-4.383l0.141,-1.508c-1.186,-2.328 -1.781,-3.789 -1.781,-4.385v-0.41c0,-1.461 0.135,-2.191 0.408,-2.191c0.918,1.918 2.287,2.877 4.109,2.877c1.531,0 2.766,-0.959 3.699,-2.877h0.141c0.182,0 0.316,0.59 0.41,1.777c0.637,0.643 1.186,0.957 1.643,0.957h0.684c0.848,0 1.625,-1.045 2.332,-3.15l0.135,-0.133h0.141c0.182,1.678 0.902,2.691 2.191,2.822c0.385,0.039 1.66,-0.053 1.9,-0.035V46.711z" id="path_9"/><path fill="#DD2C00" d="M28.266,21.605c0.139,-0.08 0.18,0.047 0.121,0.381c-0.775,1.824 -1.969,3.098 -3.576,3.816l-5.91,2.963c-0.25,-0.07 -0.297,-0.273 -0.139,-0.619c0.787,-1.52 1.326,-2.42 1.611,-2.707L28.266,21.605z" id="path_10"/></svg>