<svg id="vector" xmlns="http://www.w3.org/2000/svg" width="75" height="67" viewBox="0 0 83 73"><path fill="#000001" d="M72.814,39.39h0.626c1.825,0 3.175,1.557 4.06,4.68l0.154,1.557c0.053,0.506 0.053,1.025 0,1.564c-0.466,1.896 -1.511,3.768 -3.122,5.611c-1.117,0.939 -3.66,1.664 -7.641,2.184c-0.466,-0.207 -0.733,-0.414 -0.78,-0.619c6.658,-3.615 9.985,-5.799 9.985,-6.557l0.153,-0.467l-0.153,-0.152l-1.404,0.465h-0.778c-2.811,0 -4.214,-0.99 -4.214,-2.961v-0.313c0.358,-3.23 1.145,-4.84 2.336,-4.84L72.814,39.39z" id="path_0"/><path fill="#000001" d="M76.948,26.749c0.16,-0.094 0.207,0.053 0.141,0.432c-0.886,2.076 -2.244,3.529 -4.074,4.346l-6.729,3.375c-0.287,-0.08 -0.34,-0.313 -0.16,-0.705c0.899,-1.73 1.512,-2.754 1.837,-3.082L76.948,26.749z" id="path_1"/><path fill="#008046" d="M42.841,44.009h0.606c2.056,-0.221 3.787,-1.465 5.191,-3.729c0.206,-0.467 0.413,-0.725 0.62,-0.777h0.159l0.465,0.471c-0.066,0.594 -0.166,1.014 -0.313,1.246c0.913,1.664 2.003,2.496 3.274,2.496l0.16,0.152c2.264,-4.992 4.807,-7.488 7.643,-7.488c2.262,0 3.928,0.938 4.992,2.809v0.939c0,5.717 -3.535,8.58 -10.61,8.58l-2.337,-0.152c-0.726,1.969 -1.199,2.961 -1.404,2.961l-0.153,-0.152v-0.16l0.466,-2.648v-0.314c-1.537,-0.857 -2.729,-2.057 -3.588,-3.588c-0.806,2.637 -2.529,3.908 -5.172,3.801V44.009L42.841,44.009zM54.563,44.183h0.313c3.535,0 6.551,-0.521 9.047,-1.559c0,-1.119 -1.038,-1.896 -3.114,-2.344h-0.627C57.685,40.28 55.814,41.585 54.563,44.183z" id="path_2"/><path fill="#008046" d="M54.097,29.677c2.596,0.832 3.9,1.504 3.9,2.023v0.313c-0.831,2.291 -1.512,3.436 -2.03,3.436c-2.103,-0.859 -3.302,-1.432 -3.588,-1.717v-0.313C52.798,31.86 53.365,30.608 54.097,29.677z" id="path_3"/><path fill="#008046" d="M59.396,19.786c0.16,-0.094 0.206,0.053 0.141,0.432c-0.886,2.078 -2.245,3.529 -4.074,4.346l-6.73,3.377c-0.286,-0.08 -0.339,-0.313 -0.159,-0.707c0.898,-1.73 1.511,-2.754 1.837,-3.082L59.396,19.786z" id="path_4"/><path fill="#DD2C00" d="M43.5,48.454c-0.1,0 -0.207,0 -0.307,0h-1.404c-1.403,0 -3.022,-0.885 -4.84,-2.648c-3.122,1.711 -6.49,2.596 -10.104,2.648v-4.426c1.89,0.127 4.319,-0.268 7.295,-1.191v-0.152c-1.431,-0.939 -2.782,-1.406 -4.054,-1.406l-1.252,0.154l-0.313,-0.779c0.419,-2.809 1.617,-4.213 3.588,-4.213l2.497,-0.154c3.952,0.467 5.93,1.352 5.93,2.65v0.625L39.6,42.685c0.759,0.918 2.056,1.363 3.9,1.324V48.454z" id="path_5"/><path fill="#DD2C00" d="M34.786,22.794h1.545c1.87,0 2.809,0.699 2.809,2.104c-1.212,3.275 -2.682,5.012 -4.414,5.213l-2.041,0.271c-0.328,0 -0.461,-0.094 -0.414,-0.271c1.65,-0.873 3.194,-1.91 4.626,-3.102c-0.505,-0.475 -1.064,-0.707 -1.677,-0.707h-0.434l-1.677,0.141l-0.133,-0.141v-0.273C33.769,23.872 34.375,22.794 34.786,22.794z" id="path_6"/><path fill="#000001" d="M19.423,30.71c0.533,0 1.785,0.625 3.748,1.869c0,0.779 -0.625,2.031 -1.878,3.748c-2.496,-0.807 -3.74,-1.539 -3.74,-2.184C17.619,33.558 18.237,32.413 19.423,30.71z" id="path_7"/><path fill="#000001" d="M13.744,44.009c1.114,0.014 1.798,-0.008 2.071,-0.061c2.344,-0.713 3.941,-2.23 4.8,-4.539c0.126,-0.445 0.386,-0.5 0.777,-0.16c0.207,0.18 0.367,0.912 0.467,2.184c1.417,1.91 3.188,2.77 5.306,2.576h0.412v4.445h-0.1c-3.315,-0.152 -5.757,-1.662 -7.335,-4.525h-0.153c-1.106,2.33 -2.563,3.76 -4.367,4.293c-0.546,0.154 -1.172,0.232 -1.878,0.232V44.009z" id="path_8"/><path fill="#000001" d="M25.682,19.905c0.159,-0.094 0.204,0.053 0.138,0.434c-0.885,2.076 -2.242,3.527 -4.073,4.346l-6.73,3.375c-0.284,-0.08 -0.339,-0.313 -0.157,-0.705c0.896,-1.73 1.509,-2.756 1.837,-3.082L25.682,19.905z" id="path_9"/><path fill="#213e95" d="M13.785,48.454c-3.028,0.182 -5.232,-1.217 -6.61,-4.193c-0.665,-1.105 -1.283,-8.553 -1.87,-22.344v-0.314c0.386,-2.289 0.959,-3.436 1.71,-3.436l0.786,-0.152c0.959,0 2.416,0.313 4.366,0.932v0.314c-0.105,0.311 -0.42,0.471 -0.938,0.471H8.58c-0.546,0 -1.066,0.307 -1.565,0.932C7.502,32.64 8.206,39.575 9.146,41.472c0.933,1.898 2.483,2.744 4.64,2.537V48.454z" id="path_10"/></svg>