<svg id="vector" xmlns="http://www.w3.org/2000/svg" width="75" height="67" viewBox="0 0 83 73"><path fill="#008046" d="M49.415,50.179h1.797c1.897,-0.259 4.912,-0.965 9.046,-2.104v-0.159c-3.768,-1.665 -6.157,-2.496 -7.175,-2.496c-1.379,0 -2.31,0.778 -2.809,2.343l-0.466,0.313c-0.207,0 -0.313,-0.159 -0.313,-0.473c0.519,-3.115 1.924,-4.679 4.213,-4.679h0.779c0.965,0 4.24,1.092 9.832,3.274l4.213,0.313l0.306,0.473c-0.073,0.699 -0.699,2.051 -1.87,4.055h-0.466l-0.626,-0.16h-0.778c-8.114,2.396 -12.848,3.641 -14.199,3.747h-1.484V50.179z" id="path_0"/><path fill="#008046" d="M57.922,34.09c2.184,1.092 3.275,2.03 3.275,2.81c-1.038,2.05 -1.663,3.095 -1.87,3.121h-0.313c-1.597,-0.805 -2.59,-1.537 -2.962,-2.184C56.411,36.652 57.038,35.401 57.922,34.09z" id="path_1"/><path fill="#008046" d="M63.167,24.379c0.16,-0.094 0.207,0.052 0.14,0.433c-0.885,2.077 -2.243,3.527 -4.073,4.346l-6.729,3.375c-0.287,-0.079 -0.339,-0.313 -0.16,-0.705c0.898,-1.73 1.512,-2.756 1.837,-3.082L63.167,24.379z" id="path_2"/><path fill="#213e95" d="M38.366,50.179c0.026,0 0.06,0 0.093,0c2.496,-0.153 3.927,-1.271 4.293,-3.355c-0.938,-6.236 -1.404,-10.609 -1.404,-13.105c0,-0.959 0.419,-2.211 1.251,-3.741l0.153,0.153l0.313,0.313l-0.16,1.091c0.133,7.01 1.019,12.441 2.656,16.303c0.626,1.405 2.157,2.189 4.6,2.343v4.446c-3.355,-0.053 -5.611,-1.817 -6.784,-5.306h-0.16c-1.079,3.495 -2.696,5.266 -4.852,5.306V50.179z" id="path_3"/><path fill="#213e95" d="M41.947,21.164h1.543c1.871,0 2.809,0.698 2.809,2.103c-1.211,3.275 -2.682,5.012 -4.413,5.212l-2.044,0.273c-0.326,0 -0.459,-0.093 -0.412,-0.273c1.651,-0.871 3.195,-1.91 4.626,-3.102c-0.506,-0.473 -1.065,-0.706 -1.678,-0.706h-0.432l-1.678,0.141l-0.133,-0.141v-0.272C40.928,22.242 41.534,21.164 41.947,21.164z" id="path_4"/><path fill="#008046" d="M22.51,50.179c1.73,0.146 3.202,-0.026 4.427,-0.506l-0.646,-1.171c-0.605,-3.436 -0.333,-5.705 0.819,-6.817c1.159,-1.111 2.404,-1.623 3.728,-1.53c2.576,0.12 4.027,1.472 4.366,4.054v0.938c0,2.157 -0.312,3.509 -0.932,4.054c-0.392,0.406 0.493,0.746 2.65,1.019l0.505,-0.021c0.393,-0.013 0.839,-0.02 1.345,-0.02v4.446l-1.578,0.021c-2.935,-0.014 -5.158,-0.386 -6.669,-1.111c-2.077,0.726 -3.695,1.091 -4.833,1.091h-0.626c-0.778,0 -1.63,0 -2.556,0V50.179L22.51,50.179zM28.028,45.772v0.313c0.652,1.118 1.638,1.896 2.962,2.336c0.885,-0.153 1.771,-0.52 2.656,-1.092c-0.393,-1.458 -1.691,-2.29 -3.901,-2.496C28.601,45.146 28.028,45.46 28.028,45.772z" id="path_5"/><path fill="#008046" d="M31.051,31.182c1.69,0.525 3.148,1.357 4.366,2.496v0.16c0,0.652 -0.673,1.689 -2.024,3.121c-0.419,0 -1.824,-0.519 -4.213,-1.564v0.16c-0.832,1.611 -1.352,2.442 -1.564,2.496c-1.352,-0.286 -2.496,-0.911 -3.429,-1.877c0.626,-2.597 1.145,-3.895 1.559,-3.895c0.339,0 1.59,0.619 3.747,1.87C29.493,33.604 30.012,32.612 31.051,31.182z" id="path_6"/><path fill="#f06022" d="M34.619,21.862l0.159,0.14v0.427c-0.811,1.73 -1.937,2.941 -3.375,3.647c-4.473,2.429 -6.956,3.647 -7.449,3.647c-0.186,0 -0.279,-0.146 -0.279,-0.433c0.432,-1.651 1.371,-2.77 2.808,-3.355l8.001,-4.073H34.619z" id="path_7"/><path fill="#f06022" d="M33.507,18.354c0.18,0 0.272,0.133 0.272,0.405c-0.519,1.512 -2.056,2.87 -4.619,4.081l-5.911,3.235l-0.133,-0.141v-0.153c0.56,-1.977 1.444,-3.195 2.669,-3.647l6.59,-3.375L33.507,18.354z" id="path_8"/><path fill="#008046" d="M22.643,54.625c-3.028,0.181 -5.232,-1.218 -6.61,-4.193c-0.665,-1.105 -1.284,-8.554 -1.87,-22.346v-0.313c0.386,-2.289 0.958,-3.434 1.71,-3.434l0.786,-0.153c0.958,0 2.416,0.313 4.366,0.931v0.313c-0.106,0.313 -0.419,0.473 -0.938,0.473h-2.649c-0.546,0 -1.066,0.307 -1.565,0.933c0.487,11.975 1.192,18.91 2.131,20.808c0.932,1.897 2.482,2.743 4.639,2.536V54.625z" id="path_9"/></svg>