<svg id="vector" xmlns="http://www.w3.org/2000/svg" width="75" height="67" viewBox="0 0 83 73"><path fill="#000001" d="M53.695,44.338h0.059c2.416,-0.107 4.08,-1.271 4.992,-3.508c0,-0.313 0.207,-0.572 0.627,-0.786h0.313c0.207,0 0.313,0.16 0.313,0.473l-0.16,0.933c0.887,1.563 1.824,2.343 2.811,2.343h0.777c1.352,0 2.396,-1.352 3.121,-4.054h0.16c0.154,0.02 0.414,0.646 0.779,1.871c0.887,0.778 1.764,1.244 2.65,1.403c1.037,0 1.563,-0.625 1.563,-1.87c0.102,-1.977 0.307,-2.969 0.619,-2.969c0.42,0.886 0.627,1.978 0.627,3.275c0,3.854 -0.939,5.778 -2.809,5.778c-1.459,0 -2.65,-0.732 -3.59,-2.19h-0.313c-0.645,2.083 -1.689,3.121 -3.121,3.121h-0.152c-1.271,0 -2.73,-0.984 -4.367,-2.962c-1.379,2.39 -2.943,3.588 -4.68,3.588h-0.219V44.338z" id="path_0"/><path fill="#000001" d="M69.957,25.732c0.158,-0.092 0.205,0.054 0.139,0.434c-0.885,2.077 -2.244,3.527 -4.074,4.347l-6.729,3.375c-0.287,-0.08 -0.34,-0.313 -0.16,-0.706c0.898,-1.731 1.512,-2.756 1.838,-3.082L69.957,25.732z" id="path_1"/><path fill="#0992d1" d="M46.213,50.502c0.531,0 1.783,0.626 3.746,1.87c0,0.778 -0.625,2.031 -1.877,3.748c-2.496,-0.813 -3.74,-1.538 -3.74,-2.19C44.408,53.351 45.027,52.206 46.213,50.502z" id="path_2"/><path fill="#0992d1" d="M40.535,44.338c1.111,0.013 1.797,-0.007 2.07,-0.061c2.342,-0.711 3.939,-2.229 4.799,-4.539c0.125,-0.446 0.387,-0.5 0.777,-0.159c0.207,0.179 0.367,0.911 0.467,2.183c1.418,1.91 3.188,2.77 5.305,2.576h0.414v4.446h-0.1c-3.314,-0.152 -5.758,-1.664 -7.336,-4.526h-0.154c-1.104,2.33 -2.563,3.762 -4.365,4.294c-0.547,0.152 -1.172,0.232 -1.877,0.232V44.338z" id="path_3"/><path fill="#0992d1" d="M46.246,25.048h1.545c1.869,0 2.809,0.698 2.809,2.103c-1.213,3.275 -2.684,5.013 -4.414,5.213l-2.043,0.272c-0.326,0 -0.461,-0.093 -0.414,-0.272c1.652,-0.873 3.195,-1.911 4.627,-3.103c-0.506,-0.472 -1.064,-0.705 -1.678,-0.705h-0.432l-1.678,0.14l-0.133,-0.14v-0.273C45.227,26.126 45.834,25.048 46.246,25.048z" id="path_4"/><path fill="#DD2C00" d="M18.494,42.874c1.279,0 2.211,0 2.809,0h0.627c1.869,-0.247 4.666,-1.046 8.387,-2.397c-1.252,-1.044 -3.176,-1.823 -5.771,-2.343c-1.537,0 -2.576,0.726 -3.121,2.185c-0.193,0.432 -0.365,0.545 -0.52,0.339c-0.146,-0.2 -0.188,-0.466 -0.105,-0.806c0.938,-3.148 2.184,-4.719 3.746,-4.719h1.094c1.037,0 2.914,0.585 5.623,1.757c2.709,1.164 5.047,1.637 7.01,1.404c0.246,0 0.352,0.153 0.313,0.466c-0.42,2.596 -1.197,3.9 -2.344,3.9l-0.777,0.154v0.312c0.393,0.819 2.189,1.212 5.404,1.172v4.426c-4.652,0.247 -6.975,-1.563 -6.963,-5.438c-1.664,0.247 -3.92,1.019 -6.77,2.329c-2.848,1.306 -5.725,1.864 -8.641,1.686V42.874z" id="path_5"/><path fill="#f06022" d="M35.016,22.299l0.16,0.14v0.426c-0.813,1.73 -1.936,2.941 -3.375,3.647c-4.473,2.43 -6.955,3.648 -7.447,3.648c-0.188,0 -0.281,-0.146 -0.281,-0.434c0.434,-1.65 1.373,-2.769 2.811,-3.354l8,-4.073H35.016z" id="path_6"/><path fill="#f06022" d="M33.904,18.79c0.18,0 0.273,0.134 0.273,0.406c-0.52,1.511 -2.057,2.869 -4.621,4.08l-5.91,3.235l-0.133,-0.14V26.22c0.559,-1.978 1.445,-3.195 2.67,-3.648l6.59,-3.375L33.904,18.79z" id="path_7"/><path fill="#000001" d="M18.535,47.32c-3.029,0.179 -5.232,-1.218 -6.611,-4.194c-0.664,-1.104 -1.283,-8.553 -1.869,-22.346v-0.313c0.385,-2.29 0.957,-3.435 1.709,-3.435l0.787,-0.153c0.959,0 2.416,0.313 4.365,0.932v0.313c-0.105,0.313 -0.418,0.474 -0.938,0.474H13.33c-0.547,0 -1.066,0.306 -1.566,0.932c0.488,11.975 1.191,18.911 2.131,20.809c0.932,1.897 2.484,2.742 4.641,2.536V47.32z" id="path_8"/></svg>