<svg id="vector" xmlns="http://www.w3.org/2000/svg" width="75" height="67" viewBox="0 0 83 73"><path fill="#DD2C00" d="M46.641,39.385h0.061c2.418,0 4.898,-1.271 5.811,-3.507c0,-0.313 0.207,-0.572 0.627,-0.786h0.313c0.205,0 0.313,0.16 0.313,0.473l-0.16,0.932c0.887,1.564 1.824,2.342 2.809,2.342h0.779c1.352,0 2.396,-1.351 3.121,-4.054h0.16c0.154,0.021 0.412,0.646 0.779,1.87c0.887,0.779 1.764,1.246 2.65,1.405c1.037,0 1.563,-0.626 1.563,-1.87c0.1,-1.978 0.307,-2.969 0.619,-2.969c0.42,0.885 0.627,1.977 0.627,3.275c0,3.854 -0.939,5.777 -2.809,5.777c-1.459,0 -2.65,-0.732 -3.59,-2.19H60c-0.645,2.083 -1.689,3.122 -3.121,3.122h-0.154c-1.27,0 -2.729,-0.985 -4.365,-2.962c-1.379,2.39 -2.943,3.587 -4.68,3.587h-1.039V39.385z" id="path_0"/><path fill="#DD2C00" d="M63.721,20.78c0.16,-0.094 0.207,0.053 0.141,0.432c-0.885,2.077 -2.244,3.529 -4.074,4.347l-6.729,3.375c-0.287,-0.08 -0.34,-0.312 -0.16,-0.705c0.898,-1.731 1.512,-2.756 1.836,-3.082L63.721,20.78z" id="path_1"/><path fill="#000001" d="M36.17,46.115v-0.1c-4.266,-0.18 -6.396,-0.699 -6.396,-1.558v-2.496c0,-2.683 1.977,-4.706 5.932,-6.083l0.152,-0.16v-0.153c-1.271,-0.885 -2.416,-1.405 -3.428,-1.565h-0.16l-0.625,0.16c-0.414,-0.106 -0.619,-0.313 -0.619,-0.625c0,-2.291 1.451,-3.428 4.365,-3.428h1.404c4.262,0.007 6.398,0.792 6.398,2.336c-0.492,1.391 -1.279,2.743 -2.344,4.054v0.159c1.691,1.818 3.408,2.729 5.152,2.729h0.838v4.446h-0.684c-3.695,0 -6.451,-1.977 -8.268,-5.93h-0.16c-4.16,1.304 -6.236,2.236 -6.236,2.809v0.16l1.09,0.173l2.184,0.14c1.719,0 2.77,0.578 3.162,1.731l0.113,1.231c-0.166,0.698 -0.354,1.357 -0.566,1.97H36.17z" id="path_2"/><path fill="#000001" d="M36.75,18.091h1.543c1.871,0 2.809,0.698 2.809,2.103c-1.211,3.275 -2.682,5.012 -4.412,5.212l-2.043,0.273c-0.326,0 -0.461,-0.093 -0.414,-0.273c1.652,-0.872 3.195,-1.91 4.627,-3.102c-0.506,-0.473 -1.064,-0.706 -1.678,-0.706H36.75l-1.678,0.14l-0.133,-0.14v-0.272C35.73,19.169 36.338,18.091 36.75,18.091z" id="path_3"/><path fill="#213e95" d="M37.568,45.702c-0.627,2.169 -2.523,4.566 -5.699,7.176c-1.91,1.358 -4.146,2.03 -6.703,2.03c-1.43,-0.326 -2.455,-0.652 -3.074,-0.972c-0.619,-0.326 -1.359,-1.044 -2.23,-2.15c-1.564,-2.077 -2.344,-4 -2.344,-5.771c0,-4.214 1.352,-7.589 4.061,-10.138c0.48,-0.34 0.686,-0.287 0.619,0.153c0,0.379 -0.779,1.837 -2.336,4.367c-0.625,1.265 -0.939,2.463 -0.939,3.588c0,1.617 1.146,3.381 3.436,5.305c1.625,0.899 3.389,1.266 5.307,1.092c2.256,0 5.064,-1.557 8.42,-4.679H37.568z" id="path_4"/><path fill="#213e95" d="M27.217,26.086c0.16,-0.094 0.207,0.052 0.141,0.432c-0.887,2.078 -2.242,3.529 -4.074,4.347l-6.73,3.375c-0.285,-0.08 -0.338,-0.312 -0.158,-0.705c0.898,-1.73 1.51,-2.755 1.836,-3.082L27.217,26.086z" id="path_5"/></svg>