<svg id="vector" xmlns="http://www.w3.org/2000/svg" width="75" height="67" viewBox="0 0 83 73"><path fill="#213e95" d="M71.938,25.5c0.313,0 0.625,1.045 0.938,3.121l1.406,3.123l-0.627,3.588l0.467,8.74v1.398c-0.207,3.566 -0.727,5.643 -1.559,6.242l-0.154,-0.152l0.154,-2.344c0,-2.104 -0.678,-8.813 -2.029,-20.121C71.185,26.697 71.651,25.5 71.938,25.5z" id="path_0"/><path fill="#213e95" d="M76.597,16.375c0.16,-0.094 0.207,0.053 0.141,0.432c-0.885,2.078 -2.242,3.527 -4.074,4.348l-6.73,3.375c-0.285,-0.08 -0.338,-0.314 -0.16,-0.707c0.9,-1.73 1.512,-2.756 1.838,-3.082L76.597,16.375z" id="path_1"/><path fill="#DD2C00" d="M44.173,46.295h0.807h0.305h0.787c2.828,-0.207 4.545,-0.859 5.145,-1.949c0,-0.859 -0.984,-3.195 -2.963,-7.023l-0.313,-1.244c-0.338,-1.639 -0.326,-3.143 0.039,-4.508c0.361,-1.363 1.08,-2.309 2.145,-2.828c2.471,-1.664 7.203,-4.42 14.199,-8.268l0.152,0.16v0.305c-1.504,2.371 -2.648,4.555 -3.428,6.557h-0.314l-0.16,-0.777v-0.785l0.16,-0.154v-0.152h-0.16c-5.797,3.348 -9.697,5.797 -11.699,7.328v0.16c2.189,4.42 3.381,7.795 3.594,10.137c0,1.666 -0.574,3.436 -1.719,5.307c-1.092,1.457 -3.273,2.184 -6.557,2.184h-0.02V46.295z" id="path_2"/><path fill="#DD2C00" d="M51.714,14.111h1.545c1.871,0 2.811,0.699 2.811,2.104c-1.213,3.275 -2.684,5.012 -4.414,5.213l-2.043,0.271c-0.328,0 -0.461,-0.094 -0.414,-0.271c1.652,-0.873 3.195,-1.91 4.627,-3.102c-0.506,-0.475 -1.064,-0.707 -1.678,-0.707h-0.434l-1.676,0.139l-0.133,-0.139v-0.273C50.696,15.189 51.304,14.111 51.714,14.111z" id="path_3"/><path fill="#008046" d="M45.2,50.756c-0.141,0.012 -0.287,0.02 -0.428,0.02h-0.787c-1.217,0 -2.049,-0.1 -2.496,-0.313c-0.904,3.5 -1.961,5.643 -3.174,6.43c-1.211,0.785 -3.947,1.451 -8.207,1.996h-0.313c-0.939,-0.105 -1.404,-0.26 -1.404,-0.465c0,-0.314 0.777,-0.68 2.336,-1.092c6.137,-2.809 9.207,-4.84 9.207,-6.084c0,-0.52 -0.727,-1.717 -2.186,-3.588c-0.311,-0.527 -0.465,-1.199 -0.465,-2.031v-1.557c0,-0.785 0.154,-1.199 0.465,-1.252c1.352,2.07 3.643,3.223 6.863,3.469c0.201,0 0.395,0 0.588,-0.014V50.756z" id="path_4"/><path fill="#008046" d="M41.903,31.938c0.16,-0.094 0.207,0.053 0.141,0.434c-0.885,2.076 -2.244,3.527 -4.074,4.346l-6.73,3.373c-0.285,-0.078 -0.338,-0.311 -0.158,-0.703c0.898,-1.732 1.51,-2.756 1.836,-3.084L41.903,31.938z" id="path_5"/><path fill="#000001" d="M22.794,39.818c2.375,0.26 3.619,1.512 3.721,3.762v0.725c-0.572,4.574 -1.559,6.863 -2.961,6.863h-0.154c-0.732,0 -2.604,-0.52 -5.619,-1.557c-1.324,3.068 -3.043,4.938 -5.152,5.609c-2.963,0.939 -4.777,1.406 -5.459,1.406H6.546c-0.234,-0.1 -0.334,-0.26 -0.309,-0.467c0.074,-0.232 1.426,-1.064 4.055,-2.496c4.68,-2.889 7.021,-5.332 7.021,-7.336c0.727,-2.781 1.766,-4.652 3.117,-5.611C21.136,40.184 21.921,39.885 22.794,39.818L22.794,39.818zM19.651,45.396c-0.025,0.066 -0.025,0.113 0,0.154l4.367,1.25c0.213,0.053 0.365,0 0.473,-0.16c0,-1.217 -0.992,-2.004 -2.969,-2.336h-0.154C20.743,44.305 20.171,44.664 19.651,45.396z" id="path_6"/><path fill="#000001" d="M22.188,27.725c0.158,-0.094 0.205,0.053 0.139,0.432c-0.885,2.076 -2.244,3.529 -4.072,4.346l-6.73,3.375c-0.287,-0.08 -0.34,-0.313 -0.16,-0.705c0.898,-1.73 1.512,-2.756 1.838,-3.082L22.188,27.725z" id="path_7"/></svg>