<svg id="vector" xmlns="http://www.w3.org/2000/svg" width="75" height="67" viewBox="0 0 83 73"><path fill="#213e95" d="M71.906,24.382c0.314,0 0.626,1.045 0.94,3.122l1.404,3.122l-0.626,3.588l0.466,8.74v1.397c-0.207,3.569 -0.726,5.646 -1.558,6.245l-0.152,-0.154l0.152,-2.342c0,-2.104 -0.679,-8.814 -2.03,-20.123C71.155,25.58 71.621,24.382 71.906,24.382z" id="path_0"/><path fill="#213e95" d="M76.566,15.256c0.16,-0.093 0.205,0.053 0.139,0.433c-0.886,2.077 -2.243,3.528 -4.074,4.346l-6.73,3.375c-0.285,-0.08 -0.339,-0.313 -0.158,-0.706c0.897,-1.73 1.509,-2.755 1.837,-3.082L76.566,15.256z" id="path_1"/><path fill="#000001" d="M59.419,33.495c1.271,0.207 2.523,0.985 3.74,2.336v0.313c-0.778,2.084 -1.352,3.122 -1.716,3.122c-2.498,-0.859 -3.742,-1.538 -3.742,-2.031C57.701,36.278 58.274,35.026 59.419,33.495z" id="path_2"/><path fill="#000001" d="M61.016,41.976c0.932,0.938 1.817,2.961 2.65,6.083l0.158,2.03c0,3.667 -1.823,6.164 -5.464,7.489l-1.092,0.153l-2.77,0.04l-2.687,-0.04l-0.154,-0.153v-0.16c0.333,-0.359 2.568,-1.451 6.703,-3.275c2.604,-1.478 4.008,-2.782 4.214,-3.9c-1.352,-2.882 -2.024,-4.547 -2.024,-4.992v-0.466C60.55,42.914 60.704,41.976 61.016,41.976z" id="path_3"/><path fill="#000001" d="M59.706,23.53h1.544c1.87,0 2.808,0.7 2.808,2.104c-1.211,3.274 -2.683,5.012 -4.413,5.212l-2.044,0.273c-0.325,0 -0.458,-0.093 -0.413,-0.273c1.652,-0.872 3.196,-1.91 4.627,-3.102c-0.507,-0.473 -1.064,-0.706 -1.679,-0.706h-0.431l-1.677,0.14l-0.134,-0.14v-0.273C58.686,24.608 59.292,23.53 59.706,23.53z" id="path_4"/><path fill="#213e95" d="M48.323,41.529h0.626c1.823,0 3.175,1.557 4.06,4.68l0.152,1.557c0.055,0.506 0.055,1.025 0,1.564c-0.466,1.897 -1.509,3.768 -3.12,5.612c-1.119,0.938 -3.662,1.664 -7.643,2.183c-0.466,-0.207 -0.733,-0.412 -0.778,-0.619c6.656,-3.614 9.984,-5.798 9.984,-6.556l0.152,-0.466l-0.152,-0.154l-1.406,0.466H49.42c-2.808,0 -4.214,-0.991 -4.214,-2.962v-0.312c0.361,-3.229 1.145,-4.839 2.336,-4.839L48.323,41.529z" id="path_5"/><path fill="#213e95" d="M52.457,28.889c0.16,-0.094 0.205,0.053 0.138,0.433c-0.885,2.077 -2.243,3.527 -4.074,4.347l-6.73,3.374c-0.285,-0.08 -0.339,-0.312 -0.16,-0.705c0.899,-1.731 1.511,-2.756 1.839,-3.083L52.457,28.889z" id="path_6"/><path fill="#000001" d="M37.02,24.382c0.312,0 0.626,1.045 0.938,3.122l1.406,3.122l-0.626,3.588l0.466,8.74v1.397c-0.207,3.569 -0.726,5.646 -1.558,6.245l-0.154,-0.154l0.154,-2.342c0,-2.104 -0.679,-8.814 -2.03,-20.123C36.267,25.58 36.733,24.382 37.02,24.382z" id="path_7"/><path fill="#000001" d="M22.92,50.283c2.184,1.091 3.276,2.03 3.276,2.809c-1.04,2.057 -1.664,3.095 -1.87,3.122h-0.314c-1.597,-0.805 -2.59,-1.539 -2.962,-2.184C21.411,52.845 22.035,51.594 22.92,50.283z" id="path_8"/><path fill="#000001" d="M14.414,46.149h1.798c1.897,-0.26 4.913,-0.965 9.045,-2.104v-0.16c-3.766,-1.664 -6.157,-2.496 -7.175,-2.496c-1.378,0 -2.311,0.78 -2.81,2.344l-0.464,0.312c-0.207,0 -0.314,-0.16 -0.314,-0.472c0.519,-3.116 1.925,-4.681 4.214,-4.681h0.778c0.965,0 4.24,1.092 9.833,3.276l4.212,0.312l0.306,0.473c-0.072,0.699 -0.698,2.05 -1.87,4.053H31.5l-0.626,-0.16h-0.778c-8.115,2.396 -12.848,3.641 -14.199,3.748h-1.484V46.149z" id="path_9"/><path fill="#f06022" d="M28.946,26.1l0.158,0.139v0.426c-0.812,1.73 -1.937,2.942 -3.374,3.647c-4.473,2.429 -6.956,3.648 -7.449,3.648c-0.186,0 -0.279,-0.146 -0.279,-0.433c0.433,-1.65 1.371,-2.769 2.808,-3.354l8.001,-4.074H28.946z" id="path_10"/><path fill="#f06022" d="M27.833,22.592c0.181,0 0.273,0.132 0.273,0.405c-0.519,1.512 -2.056,2.87 -4.618,4.081l-5.911,3.235l-0.135,-0.139V30.02c0.56,-1.976 1.445,-3.194 2.67,-3.646l6.589,-3.376L27.833,22.592z" id="path_11"/><path fill="#213e95" d="M14.747,50.596c-3.029,0.179 -5.232,-1.219 -6.611,-4.194c-0.665,-1.105 -1.283,-8.554 -1.87,-22.346v-0.313c0.386,-2.291 0.959,-3.435 1.71,-3.435l0.786,-0.152c0.959,0 2.416,0.312 4.366,0.931V21.4c-0.105,0.313 -0.419,0.473 -0.938,0.473H9.54c-0.544,0 -1.064,0.306 -1.564,0.931c0.488,11.976 1.191,18.912 2.131,20.808c0.933,1.897 2.483,2.744 4.64,2.537V50.596z" id="path_12"/></svg>