<svg id="vector" xmlns="http://www.w3.org/2000/svg" width="75" height="67" viewBox="0 0 83 73"><path fill="#000001" d="M66.242,27.102h0.313c1.064,0.232 2.211,0.852 3.436,1.869v0.154c-0.705,2.137 -1.324,3.275 -1.871,3.436c-1.592,-0.314 -2.783,-0.834 -3.588,-1.559v-0.16C64.531,29.617 65.104,28.373 66.242,27.102z" id="path_0"/><path fill="#000001" d="M72.02,25.697h0.152c1.066,0.152 2.266,0.879 3.59,2.182v0.154l-1.871,3.275c-2.496,-0.807 -3.748,-1.479 -3.748,-2.023C70.947,26.889 71.574,25.697 72.02,25.697z" id="path_1"/><path fill="#000001" d="M64.857,43.344c4.086,0.039 6.371,-0.727 6.869,-2.303c0,-0.547 -0.52,-1.898 -1.564,-4.055l0.473,-4.055h0.307c1.357,2.338 2.029,4.68 2.029,7.016v1.406c0,0.938 -0.225,1.922 -0.672,2.955c-0.445,1.031 -1.137,1.902 -2.063,2.602c-0.932,0.707 -2.723,1 -5.379,0.879V43.344z" id="path_2"/><path fill="#000001" d="M74.742,17.303c0.16,-0.094 0.207,0.055 0.141,0.434c-0.887,2.076 -2.244,3.527 -4.074,4.346l-6.73,3.375c-0.287,-0.08 -0.34,-0.313 -0.16,-0.705c0.9,-1.73 1.512,-2.756 1.838,-3.082L74.742,17.303z" id="path_3"/><path fill="#008046" d="M65.051,47.803c-0.139,0.014 -0.287,0.02 -0.426,0.02h-0.787c-1.217,0 -2.049,-0.1 -2.496,-0.313c-0.904,3.502 -1.963,5.645 -3.174,6.43c-1.211,0.787 -3.947,1.451 -8.207,1.998h-0.313c-0.939,-0.107 -1.404,-0.26 -1.404,-0.467c0,-0.313 0.777,-0.678 2.336,-1.09c6.137,-2.811 9.205,-4.84 9.205,-6.086c0,-0.52 -0.725,-1.717 -2.184,-3.588c-0.313,-0.525 -0.465,-1.197 -0.465,-2.029v-1.559c0,-0.785 0.152,-1.197 0.465,-1.252c1.352,2.072 3.641,3.223 6.863,3.469c0.199,0 0.393,0 0.586,-0.014V47.803z" id="path_4"/><path fill="#008046" d="M55.824,28.658h1.545c1.869,0 2.809,0.699 2.809,2.105c-1.211,3.273 -2.682,5.012 -4.412,5.211l-2.045,0.273c-0.326,0 -0.459,-0.094 -0.412,-0.273c1.65,-0.871 3.195,-1.91 4.627,-3.104c-0.508,-0.471 -1.066,-0.705 -1.678,-0.705h-0.434l-1.678,0.141l-0.133,-0.141v-0.271C54.805,29.736 55.412,28.658 55.824,28.658z" id="path_5"/><path fill="#000001" d="M31.255,40.9c1.538,-0.193 2.303,-0.492 2.303,-0.898c0,-3.096 0.939,-6.836 2.809,-11.23c0.259,-0.572 0.519,-0.625 0.778,-0.16c0.68,1.459 1.871,2.656 3.588,3.588c3.542,1.719 5.305,4.061 5.305,7.023c0,3.096 -0.672,4.867 -2.029,5.305l-1.557,0.154l-5.932,-0.314c-1.651,0.707 -3.401,1.033 -5.266,0.98V40.9L31.255,40.9zM40.115,40.162l3.895,0.152l0.625,-0.152c-0.957,-1.332 -2.209,-2.369 -3.741,-3.123C40.607,37.039 40.348,38.078 40.115,40.162L40.115,40.162zM34.963,38.131c0,0.986 0.779,1.611 2.344,1.871c1.351,-0.752 2.023,-1.531 2.023,-2.336c-0.466,-1.877 -1.244,-2.811 -2.337,-2.811C35.875,34.855 35.196,35.947 34.963,38.131z" id="path_6"/><path fill="#000001" d="M43.191,17.09c0.158,-0.094 0.205,0.053 0.139,0.432c-0.885,2.078 -2.243,3.529 -4.073,4.348l-6.73,3.375c-0.287,-0.08 -0.339,-0.313 -0.16,-0.705c0.899,-1.73 1.511,-2.756 1.837,-3.082L43.191,17.09z" id="path_7"/><path fill="#008046" d="M31.409,45.367c-1.325,0.027 -2.789,0.014 -4.387,-0.041c-0.286,3.303 -1.897,6.111 -4.839,8.428c-1.392,1.313 -3.102,2.043 -5.146,2.184c-4.293,0 -7.409,-2.031 -9.359,-6.084c-0.379,-1.844 -0.513,-3.355 -0.4,-4.527c0.107,-1.164 0.813,-3.094 2.11,-5.77c0.833,-1.039 1.458,-1.559 1.877,-1.559l0.153,0.152v0.16c0,0.572 -0.672,1.818 -2.03,3.742C8.976,43.09 8.77,43.975 8.77,44.707c0,2.855 1.718,4.939 5.146,6.238c0.805,0.313 1.897,0.52 3.275,0.625c2.809,0 5.778,-1.564 8.894,-4.68c0,-0.652 -0.26,-1.117 -0.779,-1.404h-0.466c-4.06,0 -6.084,-1.092 -6.084,-3.275c0,-3.229 0.986,-4.838 2.962,-4.838c1.718,0 3.175,1.197 4.367,3.588c1.091,-0.014 2.869,-0.008 5.325,0.02V45.367z" id="path_8"/><path fill="#008046" d="M21.563,28.639c2.39,0.906 3.588,1.531 3.588,1.871v0.152c-0.965,2.184 -1.638,3.275 -2.03,3.275c-0.806,0 -1.951,-0.467 -3.436,-1.404c-0.619,1.59 -1.145,2.477 -1.557,2.656h-0.153c-0.939,0 -2.084,-0.52 -3.435,-1.559v-0.16c0,-0.938 0.572,-2.129 1.717,-3.586h0.313c0.852,0.18 1.95,0.697 3.275,1.557h0.153C20.751,29.623 21.277,28.686 21.563,28.639z" id="path_9"/><path fill="#008046" d="M19.554,17.283c1.597,0 2.396,0.984 2.396,2.949c0,3.127 -2.668,5.797 -8.014,7.994c-0.765,0.232 -0.859,-0.047 -0.273,-0.84c0.146,-0.299 1.404,-1.238 3.781,-2.809v-0.133c-1.025,-0.42 -1.538,-1.311 -1.538,-2.676c0.679,-2.99 1.757,-4.486 3.235,-4.486H19.554L19.554,17.283zM17.17,20.658c0,0.832 0.705,1.344 2.11,1.543h0.273c0.519,0 0.851,-0.193 0.992,-0.564c0,-0.846 -0.612,-1.506 -1.832,-1.971C18.182,19.666 17.67,19.998 17.17,20.658z" id="path_10"/></svg>