<svg id="vector" xmlns="http://www.w3.org/2000/svg" width="75" height="67" viewBox="0 0 83 73"><path fill="#DD2C00" d="M71.674,23.201c0.313,0 0.625,1.045 0.938,3.121l1.404,3.123l-0.625,3.588l0.465,8.74v1.398c-0.207,3.566 -0.725,5.643 -1.557,6.242l-0.154,-0.152l0.154,-2.344c0,-2.104 -0.68,-8.813 -2.031,-20.123C70.92,24.398 71.387,23.201 71.674,23.201z" id="path_0"/><path fill="#DD2C00" d="M76.332,14.074c0.16,-0.092 0.207,0.055 0.141,0.434c-0.887,2.076 -2.244,3.527 -4.074,4.348l-6.73,3.373c-0.287,-0.078 -0.338,-0.313 -0.16,-0.705c0.9,-1.73 1.512,-2.756 1.838,-3.082L76.332,14.074z" id="path_1"/><path fill="#008046" d="M57.441,27.908c2.182,1.09 3.275,2.029 3.275,2.809c-1.039,2.049 -1.664,3.094 -1.871,3.121h-0.313c-1.598,-0.805 -2.59,-1.537 -2.963,-2.184C55.93,30.471 56.555,29.219 57.441,27.908z" id="path_2"/><path fill="#008046" d="M48.934,43.996h1.797c1.898,-0.26 4.914,-0.965 9.047,-2.104v-0.16c-3.768,-1.664 -6.156,-2.496 -7.176,-2.496c-1.377,0 -2.311,0.779 -2.809,2.344l-0.465,0.313c-0.207,0 -0.314,-0.16 -0.314,-0.473c0.52,-3.115 1.924,-4.68 4.213,-4.68h0.779c0.967,0 4.24,1.092 9.832,3.275l4.213,0.313l0.307,0.473c-0.072,0.699 -0.699,2.051 -1.869,4.055h-0.467l-0.627,-0.16h-0.777c-8.115,2.395 -12.848,3.641 -14.199,3.746h-1.484V43.996z" id="path_3"/><path fill="#008046" d="M56.756,17.863h1.545c1.869,0 2.809,0.697 2.809,2.104c-1.213,3.275 -2.684,5.012 -4.414,5.211l-2.043,0.273c-0.326,0 -0.459,-0.092 -0.412,-0.273c1.65,-0.871 3.195,-1.91 4.625,-3.102c-0.506,-0.473 -1.064,-0.705 -1.678,-0.705h-0.432l-1.678,0.141l-0.133,-0.141v-0.273C55.738,18.941 56.344,17.863 56.756,17.863z" id="path_4"/><path fill="#008046" d="M49.127,48.455c-0.139,0.014 -0.287,0.02 -0.426,0.02h-0.785c-1.219,0 -2.051,-0.1 -2.496,-0.311c-0.906,3.5 -1.963,5.643 -3.176,6.43c-1.211,0.785 -3.947,1.449 -8.207,1.996h-0.313c-0.938,-0.105 -1.404,-0.26 -1.404,-0.467c0,-0.313 0.777,-0.678 2.336,-1.09c6.137,-2.811 9.205,-4.84 9.205,-6.084c0,-0.52 -0.725,-1.719 -2.182,-3.59c-0.314,-0.525 -0.467,-1.197 -0.467,-2.029v-1.557c0,-0.787 0.152,-1.199 0.467,-1.252c1.35,2.07 3.641,3.223 6.861,3.467c0.201,0 0.393,0 0.586,-0.014V48.455z" id="path_5"/><path fill="#008046" d="M45.832,29.639c0.16,-0.094 0.207,0.053 0.141,0.432c-0.887,2.078 -2.244,3.529 -4.074,4.346l-6.73,3.375c-0.285,-0.078 -0.34,-0.311 -0.158,-0.705c0.898,-1.73 1.51,-2.756 1.836,-3.082L45.832,29.639z" id="path_6"/><path fill="#000001" d="M16.172,40.389h0.313c0.752,0 1.844,0.725 3.273,2.184v0.152c0,0.68 -0.617,1.719 -1.869,3.121c-2.184,-0.572 -3.275,-1.35 -3.275,-2.342C14.926,42.385 15.445,41.346 16.172,40.389z" id="path_7"/><path fill="#000001" d="M24.439,27.748l0.158,0.16v0.152c-0.545,2.809 -1.744,4.213 -3.588,4.213c-2.316,0 -4.912,1.039 -7.801,3.123c-3.223,2.703 -4.84,5.771 -4.84,9.199c0,4.658 2.656,7.881 7.961,9.672l5.459,0.471l8.74,-0.625h1.711l0.158,0.154v0.158c0,0.6 -1.609,1.486 -4.838,2.65c-1.311,0.572 -4.014,1.197 -8.115,1.877c-5.324,0 -8.707,-1.357 -10.137,-4.061c-1.664,-2.443 -2.496,-5.305 -2.496,-8.58c0,-5.332 2.184,-9.904 6.549,-13.727H9.934c-0.832,0 -1.871,0.727 -3.121,2.184L6.5,34.457v-0.313c1.037,-3.953 2.654,-5.932 4.838,-5.932C11.75,28.32 16.117,28.166 24.439,27.748z" id="path_8"/><path fill="#000001" d="M21.416,15.42c0.16,-0.094 0.207,0.053 0.141,0.432c-0.885,2.078 -2.244,3.529 -4.074,4.348l-6.73,3.375c-0.285,-0.08 -0.338,-0.313 -0.16,-0.707c0.9,-1.73 1.512,-2.754 1.838,-3.082L21.416,15.42z" id="path_9"/></svg>