<svg id="vector" xmlns="http://www.w3.org/2000/svg" width="75" height="67" viewBox="0 0 83 73"><path fill="#DD2C00" d="M74.34,49.404c-0.652,0 -1.791,-0.779 -3.434,-2.336c0,-0.52 0.625,-1.664 1.877,-3.436h0.313c0.645,0 1.639,0.627 2.963,1.871v0.158C76.059,46.289 75.486,47.533 74.34,49.404z" id="path_0"/><path fill="#DD2C00" d="M68.723,50.184c-2.596,-1.111 -3.9,-1.998 -3.9,-2.65c0.158,-0.492 0.885,-1.584 2.189,-3.273c1.736,0.672 2.988,1.457 3.74,2.336C70.207,48.34 69.527,49.537 68.723,50.184z" id="path_1"/><path fill="#000001" d="M65.314,41.037c-8.66,0.367 -13.32,-0.033 -13.973,-1.205c-0.658,-1.172 2.338,-1.771 8.98,-1.797c1.311,-0.027 2.143,-0.061 2.496,-0.113c5.277,-0.818 8.5,-1.703 9.672,-2.656v-0.152l-1.717,-4.061v-0.619c0,-2.084 0.26,-3.123 0.777,-3.123c1.457,2.783 2.184,4.967 2.184,6.551v0.313c0,3.615 -1.816,5.699 -5.457,6.244C67.352,40.664 66.365,40.871 65.314,41.037z" id="path_2"/><path fill="#DD2C00" d="M75.473,16.953c0.158,-0.092 0.205,0.055 0.139,0.434c-0.885,2.076 -2.242,3.527 -4.072,4.348l-6.73,3.375c-0.287,-0.08 -0.34,-0.314 -0.16,-0.707c0.898,-1.73 1.512,-2.756 1.838,-3.082L75.473,16.953z" id="path_3"/><path fill="#213e95" d="M62.326,40.451c0.531,0.953 0.824,1.512 0.879,1.678l0.072,1.271c-0.014,2.25 -0.313,3.801 -0.912,4.66c-0.6,0.857 -1.357,1.291 -2.283,1.305c-2.004,0 -4.08,-1.611 -6.242,-4.834c-0.373,-0.639 -0.74,-1.471 -1.094,-2.496h-1.557c-0.354,0 -0.686,-0.02 -1.012,-0.059V37.51c0.48,0.105 0.973,0.152 1.479,0.152h0.625c0.859,-3.328 2.316,-5.824 4.367,-7.488c1.064,-0.832 2.057,-1.244 2.967,-1.244c1.406,0 2.238,1.037 2.498,3.121c0.412,2.09 -0.053,4.268 -1.404,6.531L62.326,40.451L62.326,40.451zM55.402,41.875c1.064,1.877 2.623,2.916 4.68,3.123c1.039,-0.094 1.717,-0.453 2.031,-1.092c-0.094,-1.258 -0.818,-2.023 -2.184,-2.289c-1.371,-0.268 -2.463,-0.361 -3.289,-0.268S55.402,41.617 55.402,41.875L55.402,41.875zM53.84,37.043c-0.113,0.346 0.039,0.506 0.473,0.467c1.977,0 3.947,-0.885 5.922,-2.65v-0.158c-0.438,-1.039 -1.012,-1.559 -1.709,-1.559C56.975,32.943 55.416,34.248 53.84,37.043z" id="path_4"/><path fill="#213e95" d="M56.355,18.047h1.543c1.871,0 2.811,0.699 2.811,2.102c-1.213,3.275 -2.684,5.014 -4.414,5.213l-2.043,0.273c-0.328,0 -0.459,-0.094 -0.412,-0.273c1.65,-0.871 3.195,-1.91 4.625,-3.102c-0.506,-0.473 -1.064,-0.705 -1.678,-0.705h-0.432l-1.678,0.139l-0.135,-0.139v-0.273C55.336,19.125 55.941,18.047 56.355,18.047z" id="path_5"/><path fill="#000001" d="M50.797,41.977c-2.676,-0.182 -5.105,-1.645 -7.289,-4.387h-0.16c-0.932,5.404 -3.016,8.107 -6.236,8.113h-0.473c-1.398,-0.006 -2.756,-1.252 -4.055,-3.748c-1.039,-3.506 -1.557,-6.162 -1.557,-7.953V32.75c0,-0.779 0.152,-1.197 0.467,-1.244c0.438,0.232 0.965,1.938 1.57,5.119c0.605,3.174 1.85,4.691 3.734,4.551c3.641,-0.598 5.564,-2.682 5.77,-6.242l-1.404,-4.832v-1.717c0.053,-2.084 0.26,-3.123 0.627,-3.123c0.205,0.467 0.365,0.939 0.465,1.404l2.184,6.863c1.719,2.781 3.842,4.1 6.357,3.939V41.977z" id="path_6"/><path fill="#000001" d="M43.76,47.92c0.16,-0.086 0.207,0.053 0.141,0.432c-0.885,2.078 -2.242,3.529 -4.074,4.348l-6.729,3.375c-0.287,-0.08 -0.34,-0.313 -0.16,-0.699c0.898,-1.73 1.512,-2.756 1.836,-3.082L43.76,47.92z" id="path_7"/><path fill="#DD2C00" d="M28.258,24.635c0.998,-0.086 1.518,0.174 1.557,0.787v0.932c-0.258,2.496 -0.518,3.748 -0.777,3.748h-0.16c-0.193,-0.732 -0.818,-1.092 -1.869,-1.092c-2.158,0 -4.447,1.609 -6.865,4.832v0.313c0,0.52 1.771,0.992 5.307,1.404c0.932,0.912 1.404,1.896 1.404,2.963c0,2.941 -2.602,6.109 -7.801,9.52c-1.352,0.725 -2.703,1.09 -4.063,1.09c-3.561,0 -6.104,-2.184 -7.641,-6.549c-0.492,-1.523 -0.539,-3.648 -0.133,-6.371c0.4,-2.721 1.604,-4.406 3.607,-5.059l0.273,0.041c0.387,0.205 0.105,0.799 -0.852,1.783c-0.953,0.979 -1.559,2.256 -1.805,3.834v1.244c0,2.496 1.352,4.527 4.055,6.084c0.938,0.42 1.93,0.627 2.969,0.627h0.625c3.016,0 6.031,-1.459 9.047,-4.367l-4.84,-1.092c-0.832,-0.553 -1.244,-1.279 -1.244,-2.189v-1.871c0.039,-2.863 1.391,-5.465 4.053,-7.82C24.098,26.4 25.809,25.469 28.258,24.635z" id="path_8"/><path fill="#DD2C00" d="M16.4,18.047h1.545c1.871,0 2.809,0.699 2.809,2.102c-1.211,3.275 -2.682,5.014 -4.414,5.213l-2.043,0.273c-0.326,0 -0.459,-0.094 -0.412,-0.273c1.65,-0.871 3.195,-1.91 4.627,-3.102c-0.506,-0.473 -1.066,-0.705 -1.678,-0.705H16.4l-1.678,0.139l-0.133,-0.139v-0.273C15.383,19.125 15.988,18.047 16.4,18.047z" id="path_9"/></svg>