<svg id="vector" xmlns="http://www.w3.org/2000/svg" width="75" height="67" viewBox="0 0 83 73"><path fill="#213e95" d="M72.032,25.883c0.313,0 0.626,1.047 0.938,3.123l1.406,3.121l-0.626,3.588l0.466,8.74v1.398c-0.206,3.568 -0.725,5.645 -1.558,6.244l-0.154,-0.154l0.154,-2.342c0,-2.104 -0.679,-8.814 -2.03,-20.123C71.279,27.082 71.745,25.883 72.032,25.883z" id="path_0"/><path fill="#213e95" d="M76.691,16.758c0.159,-0.094 0.206,0.053 0.14,0.432c-0.885,2.078 -2.242,3.529 -4.073,4.348l-6.73,3.375c-0.286,-0.08 -0.339,-0.313 -0.159,-0.707c0.898,-1.73 1.511,-2.754 1.837,-3.082L76.691,16.758z" id="path_1"/><path fill="#f06022" d="M56.63,25.963c1.537,0.494 2.734,1.119 3.586,1.871v0.313c0,0.52 -0.565,1.664 -1.71,3.436c-1.064,0 -2.262,-0.572 -3.588,-1.719v-0.313C54.918,28.434 55.491,27.234 56.63,25.963z" id="path_2"/><path fill="#f06022" d="M52.182,43.941c4.088,0.041 6.371,-0.725 6.87,-2.303c0,-0.545 -0.519,-1.896 -1.563,-4.053l0.472,-4.055h0.307c1.356,2.338 2.029,4.68 2.029,7.018v1.404c0,0.938 -0.226,1.924 -0.673,2.955c-0.444,1.031 -1.137,1.904 -2.063,2.602c-0.931,0.707 -2.723,0.998 -5.379,0.879V43.941z" id="path_3"/><path fill="#f06022" d="M59.943,16.178h1.544c1.873,0 2.811,0.699 2.811,2.104c-1.211,3.275 -2.684,5.014 -4.413,5.213l-2.044,0.273c-0.325,0 -0.46,-0.094 -0.413,-0.273c1.651,-0.873 3.196,-1.912 4.626,-3.104c-0.506,-0.471 -1.065,-0.705 -1.678,-0.705h-0.433l-1.677,0.141l-0.133,-0.141v-0.271C58.925,17.256 59.532,16.178 59.943,16.178z" id="path_4"/><path fill="#008046" d="M50.151,25.744h0.154c2.289,1.018 3.435,1.797 3.435,2.342c-0.205,0.986 -0.886,2.184 -2.03,3.59l-3.429,-1.871l-1.716,2.648l-3.276,-1.871c0,-0.924 0.573,-2.223 1.712,-3.9h0.158c1.053,0.221 2.146,0.846 3.276,1.871C49.241,26.93 49.813,25.998 50.151,25.744z" id="path_5"/><path fill="#008046" d="M38.784,47.764c-2.197,0.025 -4.507,-0.094 -6.937,-0.354c-2.424,-0.26 -3.522,-0.813 -3.296,-1.656c0.234,-0.846 3.688,-1.266 10.365,-1.266c3.134,-0.246 5.279,-0.506 6.436,-0.779c0.446,-0.105 0.747,-0.213 0.898,-0.313c-0.312,-0.965 -0.466,-1.844 -0.466,-2.656c0,-4.16 1.145,-6.236 3.429,-6.236c3.122,0.313 4.68,1.457 4.68,3.436v2.023c0,0.857 -0.358,2.109 -1.092,3.746c0.72,0.273 1.657,0.359 2.83,0.273h0.372v4.348c-0.133,0.014 -0.254,0.02 -0.372,0.02h-0.174c-1.823,0.133 -4.008,-0.426 -6.557,-1.678c-0.852,0.246 -2.038,0.479 -3.549,0.699c-0.972,0.146 -2.075,0.279 -3.313,0.393H38.784L38.784,47.764zM47.344,39.963c1.378,1.977 2.523,2.969 3.434,2.969c1.013,-0.527 1.691,-1.145 2.024,-1.877c-0.778,-1.246 -1.765,-1.871 -2.962,-1.871h-1.093C47.81,39.391 47.344,39.648 47.344,39.963z" id="path_6"/><path fill="#008046" d="M53.547,13.756c0.16,-0.094 0.207,0.053 0.141,0.432c-0.886,2.078 -2.243,3.529 -4.074,4.348l-6.729,3.375c-0.287,-0.08 -0.34,-0.314 -0.16,-0.707c0.898,-1.729 1.512,-2.756 1.837,-3.08L53.547,13.756z" id="path_7"/><path fill="#008046" d="M32.759,27.328c1.271,0.207 2.523,0.992 3.748,2.344v0.313c-0.786,2.076 -1.357,3.115 -1.719,3.115c-2.496,-0.852 -3.746,-1.531 -3.746,-2.023C31.042,30.109 31.613,28.865 32.759,27.328z" id="path_8"/><path fill="#008046" d="M35.469,35.869h0.626c3.327,0.34 4.992,1.689 4.992,4.061v0.313c-0.667,2.582 -1.444,4.246 -2.344,4.992c-1.71,1.451 -4.313,2.184 -7.795,2.184h-0.312c-1.978,0 -3.589,-0.207 -4.841,-0.627v1.557c0,2.943 -1.503,5.805 -4.525,8.588c-2.21,1.559 -4.342,2.336 -6.396,2.336h-0.307c-3.202,0 -5.751,-1.77 -7.648,-5.305c-0.546,-1.637 -0.806,-3.408 -0.778,-5.305c0.804,-3.74 2.056,-6.396 3.74,-7.955l0.786,-0.465h0.464v0.152c0,0.393 -0.83,1.691 -2.494,3.9c-0.626,0.859 -0.939,1.844 -0.939,2.963v0.785c0,1.244 0.939,2.908 2.81,4.992c1.59,0.932 3.407,1.404 5.465,1.404c3.66,0 6.523,-1.457 8.58,-4.373c0.1,-0.725 0.207,-1.451 0.307,-2.184c0,-0.439 -0.726,-1.791 -2.185,-4.053v-3.588c0.16,-0.287 0.314,-0.393 0.475,-0.313c1.27,1.529 2.728,2.469 4.366,2.809h0.312C29.831,38.158 32.372,35.869 35.469,35.869L35.469,35.869zM29.696,42.738l2.185,0.313c3.095,0 5.644,-0.625 7.648,-1.877V41.02c-0.94,-0.938 -2.085,-1.404 -3.435,-1.404h-0.626C32.973,39.615 31.048,40.654 29.696,42.738z" id="path_9"/><path fill="#008046" d="M28.626,21.385c0.16,-0.094 0.207,0.053 0.139,0.432c-0.886,2.076 -2.243,3.529 -4.074,4.346l-6.729,3.375c-0.285,-0.08 -0.338,-0.313 -0.158,-0.705c0.897,-1.73 1.512,-2.756 1.837,-3.082L28.626,21.385z" id="path_10"/></svg>