<svg id="vector" xmlns="http://www.w3.org/2000/svg" width="75" height="67" viewBox="0 0 83 73"><path fill="#000001" d="M58.921,48.599c2.182,1.091 3.274,2.029 3.274,2.808c-1.038,2.058 -1.664,3.096 -1.87,3.122h-0.314c-1.597,-0.805 -2.588,-1.537 -2.96,-2.183C57.409,51.161 58.035,49.909 58.921,48.599z" id="path_0"/><path fill="#000001" d="M50.412,44.464h1.798c1.897,-0.259 4.913,-0.965 9.047,-2.104v-0.159c-3.768,-1.664 -6.158,-2.496 -7.177,-2.496c-1.376,0 -2.309,0.778 -2.808,2.343l-0.466,0.313c-0.207,0 -0.313,-0.159 -0.313,-0.473c0.519,-3.115 1.923,-4.68 4.212,-4.68h0.78c0.964,0 4.24,1.093 9.831,3.275l4.214,0.313l0.307,0.472c-0.074,0.699 -0.7,2.051 -1.872,4.055h-0.467l-0.624,-0.16h-0.779C57.98,47.56 53.25,48.804 51.898,48.91h-1.486V44.464z" id="path_1"/><path fill="#000001" d="M65.157,24.122c0.16,-0.094 0.207,0.054 0.141,0.433c-0.886,2.077 -2.245,3.528 -4.074,4.346l-6.729,3.376c-0.287,-0.08 -0.34,-0.313 -0.16,-0.706c0.899,-1.73 1.512,-2.755 1.837,-3.082L65.157,24.122z" id="path_2"/><path fill="#213e95" d="M36.993,44.464h0.354c1.064,0 2.189,-0.412 3.375,-1.238c1.185,-0.825 1.876,-1.863 2.089,-3.108l0.154,-0.159h0.152c0.187,0 0.446,0.572 0.785,1.717c1.479,2.03 3.562,2.963 6.237,2.81c0.181,0 0.366,-0.007 0.546,-0.021v4.467c-0.18,0.014 -0.365,0.02 -0.546,0.02l-2.183,-0.253c-0.234,2.077 -0.912,3.116 -2.03,3.123h-0.313c-2.077,-0.394 -3.114,-1.119 -3.114,-2.19l0.466,-2.81c-0.367,-0.412 -0.726,-0.619 -1.092,-0.619c-1.173,1.831 -2.795,2.736 -4.88,2.709V44.464z" id="path_3"/><path fill="#213e95" d="M43.431,24.654h1.545c1.87,0 2.808,0.699 2.808,2.104c-1.211,3.275 -2.681,5.013 -4.413,5.213l-2.044,0.272c-0.325,0 -0.458,-0.094 -0.411,-0.272c1.649,-0.873 3.194,-1.911 4.626,-3.103c-0.507,-0.473 -1.064,-0.705 -1.678,-0.705h-0.433l-1.677,0.139l-0.135,-0.139V27.89C42.413,25.732 43.018,24.654 43.431,24.654z" id="path_4"/><path fill="#DD2C00" d="M37.906,48.91c-0.1,0 -0.207,0 -0.307,0h-1.404c-1.405,0 -3.022,-0.885 -4.84,-2.649c-3.122,1.712 -6.49,2.597 -10.104,2.649v-4.426c1.89,0.126 4.319,-0.268 7.295,-1.191V43.14c-1.431,-0.938 -2.782,-1.405 -4.054,-1.405l-1.252,0.153l-0.313,-0.779c0.42,-2.808 1.617,-4.213 3.589,-4.213l2.496,-0.153c3.953,0.466 5.93,1.352 5.93,2.649v0.626l-0.938,3.122c0.759,0.919 2.056,1.364 3.9,1.324V48.91z" id="path_5"/><path fill="#f06022" d="M34.905,23.868l0.157,0.141v0.426c-0.811,1.731 -1.937,2.942 -3.373,3.648c-4.474,2.429 -6.957,3.647 -7.45,3.647c-0.185,0 -0.278,-0.147 -0.278,-0.433c0.433,-1.651 1.371,-2.77 2.808,-3.355l8.002,-4.074H34.905z" id="path_6"/><path fill="#f06022" d="M33.791,20.361c0.182,0 0.273,0.133 0.273,0.405c-0.519,1.512 -2.056,2.87 -4.62,4.081l-5.909,3.235l-0.134,-0.141v-0.153c0.56,-1.977 1.444,-3.195 2.669,-3.647l6.59,-3.375L33.791,20.361z" id="path_7"/><path fill="#000001" d="M21.644,48.91c-3.028,0.181 -5.231,-1.218 -6.608,-4.192c-0.667,-1.106 -1.285,-8.555 -1.872,-22.346v-0.313c0.386,-2.29 0.959,-3.435 1.712,-3.435l0.784,-0.153c0.959,0 2.416,0.313 4.368,0.932v0.313c-0.107,0.312 -0.422,0.472 -0.94,0.472h-2.648c-0.546,0 -1.064,0.308 -1.563,0.933c0.485,11.975 1.191,18.911 2.13,20.808c0.932,1.897 2.482,2.743 4.639,2.536V48.91z" id="path_8"/></svg>