<svg id="vector" xmlns="http://www.w3.org/2000/svg" width="75" height="67" viewBox="0 0 83 73"><path fill="#DD2C00" d="M74.514,24.383c0.313,0 0.627,1.045 0.939,3.121l1.404,3.123l-0.625,3.588l0.465,8.74v1.396c-0.205,3.568 -0.725,5.645 -1.557,6.244l-0.154,-0.152l0.154,-2.344c0,-2.104 -0.68,-8.813 -2.031,-20.121C73.762,25.58 74.229,24.383 74.514,24.383z" id="path_0"/><path fill="#DD2C00" d="M79.174,15.258c0.16,-0.094 0.207,0.053 0.139,0.432c-0.885,2.078 -2.242,3.527 -4.072,4.346l-6.73,3.375c-0.285,-0.078 -0.34,-0.313 -0.158,-0.705c0.896,-1.73 1.51,-2.756 1.836,-3.082L79.174,15.258z" id="path_1"/><path fill="#f06022" d="M59.111,28.17c1.537,0.494 2.736,1.119 3.588,1.871v0.313c0,0.52 -0.566,1.664 -1.711,3.436c-1.064,0 -2.264,-0.574 -3.588,-1.719v-0.313C57.4,30.641 57.973,29.441 59.111,28.17z" id="path_2"/><path fill="#f06022" d="M54.664,46.15c4.088,0.039 6.371,-0.727 6.869,-2.305c0,-0.545 -0.518,-1.896 -1.563,-4.053l0.471,-4.053h0.307c1.357,2.336 2.031,4.678 2.031,7.016v1.402c0,0.939 -0.227,1.924 -0.674,2.957c-0.445,1.031 -1.137,1.904 -2.063,2.604c-0.932,0.703 -2.723,0.996 -5.379,0.877V46.15z" id="path_3"/><path fill="#f06022" d="M62.426,18.379h1.545c1.871,0 2.809,0.699 2.809,2.104c-1.211,3.275 -2.682,5.012 -4.412,5.211l-2.045,0.273c-0.326,0 -0.459,-0.092 -0.412,-0.273c1.65,-0.871 3.195,-1.91 4.627,-3.102c-0.508,-0.473 -1.066,-0.705 -1.678,-0.705h-0.434l-1.676,0.141l-0.135,-0.141v-0.273C61.408,19.457 62.014,18.379 62.426,18.379z" id="path_4"/><path fill="#213e95" d="M44.182,25.787c2.189,1.092 3.281,2.031 3.281,2.809c-1.045,2.057 -1.664,3.096 -1.877,3.123h-0.313c-1.598,-0.807 -2.584,-1.531 -2.963,-2.184C42.678,28.35 43.303,27.105 44.182,25.787z" id="path_5"/><path fill="#213e95" d="M54.732,50.615c-2.676,-0.18 -5.105,-1.643 -7.291,-4.387h-0.158c-0.932,5.406 -3.016,8.107 -6.238,8.115h-0.473c-1.396,-0.008 -2.756,-1.252 -4.053,-3.748c-1.039,-3.508 -1.557,-6.164 -1.557,-7.953v-1.252c0,-0.779 0.152,-1.197 0.465,-1.244c0.439,0.232 0.965,1.936 1.572,5.119c0.605,3.174 1.85,4.691 3.732,4.551c3.641,-0.598 5.564,-2.682 5.771,-6.244L45.1,38.74v-1.717c0.053,-2.084 0.26,-3.123 0.625,-3.123c0.207,0.467 0.367,0.939 0.467,1.406l2.184,6.861c1.717,2.783 3.84,4.102 6.357,3.941V50.615z" id="path_6"/><path fill="#213e95" d="M48.801,16.602c0.16,-0.094 0.207,0.053 0.141,0.434c-0.887,2.076 -2.244,3.527 -4.074,4.346l-6.73,3.375c-0.287,-0.08 -0.338,-0.313 -0.16,-0.705c0.9,-1.73 1.512,-2.756 1.838,-3.082L48.801,16.602z" id="path_7"/><path fill="#008046" d="M29.09,41.977c0.934,0.938 1.818,2.961 2.65,6.084l0.16,2.029c0,3.668 -1.824,6.164 -5.465,7.488l-1.092,0.154l-2.77,0.039l-2.689,-0.039l-0.152,-0.154V57.42c0.332,-0.361 2.568,-1.451 6.703,-3.275c2.602,-1.479 4.006,-2.783 4.213,-3.9c-1.352,-2.883 -2.023,-4.547 -2.023,-4.992v-0.467C28.625,42.914 28.777,41.977 29.09,41.977z" id="path_8"/><path fill="#008046" d="M26.355,31.252h1.543c1.871,0 2.811,0.699 2.811,2.104c-1.211,3.275 -2.684,5.012 -4.414,5.213l-2.043,0.273c-0.326,0 -0.461,-0.094 -0.414,-0.273c1.652,-0.873 3.195,-1.912 4.627,-3.104c-0.506,-0.471 -1.064,-0.705 -1.678,-0.705h-0.432L24.678,34.9l-0.133,-0.141v-0.273C25.336,32.33 25.943,31.252 26.355,31.252z" id="path_9"/><path fill="#000001" d="M16.25,28.17c1.539,0.494 2.736,1.119 3.588,1.871v0.313c0,0.52 -0.564,1.664 -1.711,3.436c-1.064,0 -2.262,-0.574 -3.588,-1.719v-0.313C14.539,30.641 15.111,29.441 16.25,28.17z" id="path_10"/><path fill="#000001" d="M11.803,46.15c4.088,0.039 6.371,-0.727 6.871,-2.305c0,-0.545 -0.52,-1.896 -1.564,-4.053l0.473,-4.053h0.307c1.357,2.336 2.029,4.678 2.029,7.016v1.402c0,0.939 -0.227,1.924 -0.672,2.957c-0.447,1.031 -1.139,1.904 -2.064,2.604c-0.932,0.703 -2.723,0.996 -5.379,0.877V46.15z" id="path_11"/><path fill="#000001" d="M22.566,18.711c0.16,-0.094 0.207,0.053 0.141,0.434c-0.885,2.076 -2.242,3.527 -4.072,4.346l-6.73,3.375c-0.287,-0.078 -0.34,-0.313 -0.16,-0.705c0.898,-1.73 1.512,-2.756 1.836,-3.082L22.566,18.711z" id="path_12"/><path fill="#213e95" d="M12.137,50.596c-3.029,0.18 -5.232,-1.219 -6.609,-4.193c-0.666,-1.104 -1.285,-8.555 -1.871,-22.346v-0.313c0.385,-2.291 0.959,-3.436 1.711,-3.436l0.785,-0.152c0.959,0 2.416,0.313 4.367,0.932V21.4c-0.107,0.313 -0.42,0.473 -0.939,0.473H6.932c-0.547,0 -1.064,0.307 -1.564,0.932c0.486,11.975 1.191,18.912 2.129,20.809c0.934,1.896 2.484,2.742 4.641,2.537V50.596z" id="path_13"/></svg>