<svg id="vector" xmlns="http://www.w3.org/2000/svg" width="75" height="67" viewBox="0 0 83 73"><path fill="#DD2C00" d="M56.234,36.476c0.226,0.027 0.446,-0.092 0.665,-0.352c-0.412,-0.506 -0.626,-1.033 -0.626,-1.578v-1.404c0.499,-4.573 2.316,-6.863 5.466,-6.863c1.584,0 3.302,0.833 5.145,2.497c0.679,0.259 1.039,0.519 1.092,0.778v0.153c0,0.239 -0.259,0.392 -0.777,0.473c0,-0.446 -1.352,-0.806 -4.055,-1.092h-0.626c-2.916,0.438 -4.366,1.218 -4.366,2.336c0,1.538 1.503,2.683 4.521,3.436l1.09,0.153c0.394,0 2.369,-0.986 5.933,-2.963h0.151l0.314,0.313c0,2.158 -2.391,4.5 -7.177,7.023c-3.409,1.038 -5.485,1.557 -6.236,1.557c-0.174,0 -0.34,-0.006 -0.513,-0.02V36.476z" id="path_0"/><path fill="#DD2C00" d="M67.41,13.092c0.16,-0.093 0.207,0.054 0.141,0.433c-0.886,2.077 -2.245,3.528 -4.074,4.348l-6.729,3.374c-0.287,-0.079 -0.34,-0.313 -0.16,-0.706c0.899,-1.73 1.512,-2.755 1.837,-3.082L67.41,13.092z" id="path_1"/><path fill="#0992d1" d="M56.974,40.963c-2.676,-0.181 -5.105,-1.645 -7.29,-4.387h-0.16c-0.932,5.405 -3.015,8.108 -6.236,8.114h-0.472c-1.398,-0.006 -2.756,-1.252 -4.055,-3.748c-1.039,-3.508 -1.558,-6.163 -1.558,-7.955v-1.25c0,-0.779 0.153,-1.199 0.466,-1.246c0.438,0.234 0.965,1.938 1.571,5.119c0.604,3.176 1.851,4.693 3.734,4.553c3.642,-0.598 5.564,-2.682 5.771,-6.242l-1.403,-4.833v-1.717c0.053,-2.084 0.259,-3.122 0.626,-3.122c0.204,0.466 0.364,0.938 0.464,1.403l2.185,6.864c1.718,2.781 3.839,4.1 6.357,3.939V40.963z" id="path_2"/><path fill="#0992d1" d="M46.401,12.181h1.545c1.87,0 2.81,0.698 2.81,2.104c-1.213,3.274 -2.684,5.012 -4.413,5.212l-2.044,0.273c-0.327,0 -0.46,-0.094 -0.413,-0.273c1.651,-0.872 3.196,-1.91 4.626,-3.102c-0.505,-0.473 -1.065,-0.706 -1.678,-0.706h-0.433l-1.677,0.14l-0.133,-0.14v-0.272C45.384,13.259 45.99,12.181 46.401,12.181z" id="path_3"/><path fill="#213e95" d="M22.513,31.584h0.312c1.459,0.333 2.756,1.118 3.902,2.337v0.313c-0.102,0.832 -0.728,1.924 -1.872,3.275c-2.701,-0.906 -4.053,-1.691 -4.053,-2.338C21.447,33.301 22.019,32.103 22.513,31.584z" id="path_4"/><path fill="#213e95" d="M30.787,28.462h0.306c0.365,0 1.25,2.343 2.656,7.022l0.152,0.619c0,3.668 -0.886,6.324 -2.648,7.962c-2.496,2.702 -5.459,4.053 -8.895,4.053c-2.809,-0.625 -4.626,-1.244 -5.459,-1.87c-2.708,-2.317 -4.06,-5.179 -4.06,-8.581c0,-2.861 1.252,-5.564 3.748,-8.113l0.154,-0.152h0.312l0.313,0.306c0,0.267 -0.726,1.403 -2.183,3.435c-0.419,0.727 -0.679,1.718 -0.78,2.962c0,2.423 1.246,4.5 3.742,6.243c2.444,0.939 4.107,1.405 4.993,1.405c2.236,0 4.885,-0.991 7.954,-2.962c1.25,-1.099 1.876,-1.771 1.876,-2.031l-2.182,-6.084l-0.16,-1.091L30.787,28.462z" id="path_5"/><path fill="#f06022" d="M29.647,52.958l0.16,0.139v0.428c-0.806,1.729 -1.931,2.941 -3.376,3.647c-4.472,2.429 -6.956,3.647 -7.447,3.647c-0.18,0 -0.272,-0.146 -0.272,-0.433c0.425,-1.651 1.364,-2.77 2.808,-3.355l7.996,-4.073H29.647z" id="path_6"/><path fill="#f06022" d="M28.536,49.449c0.188,0 0.273,0.134 0.273,0.407c-0.52,1.511 -2.058,2.868 -4.62,4.08l-5.911,3.235l-0.133,-0.141v-0.153c0.559,-1.977 1.451,-3.195 2.668,-3.647l6.598,-3.374L28.536,49.449z" id="path_7"/></svg>