<svg id="vector" xmlns="http://www.w3.org/2000/svg" width="75" height="67" viewBox="0 0 83 73"><path fill="#000001" d="M65.139,50.994h0.311c1.068,0.234 2.213,0.859 3.438,1.877v0.154c-0.707,2.129 -1.326,3.275 -1.871,3.434c-1.592,-0.313 -2.783,-0.832 -3.588,-1.564v-0.152C63.428,53.518 64,52.271 65.139,50.994z" id="path_0"/><path fill="#000001" d="M70.916,49.59h0.152c1.064,0.16 2.264,0.885 3.588,2.184v0.158l-1.869,3.275c-2.496,-0.805 -3.748,-1.482 -3.748,-2.029C69.844,50.787 70.469,49.59 70.916,49.59z" id="path_1"/><path fill="#000001" d="M63.754,43.859c4.086,0.039 6.371,-0.727 6.869,-2.305c0,-0.545 -0.52,-1.896 -1.563,-4.053l0.471,-4.055h0.307c1.357,2.338 2.029,4.68 2.029,7.016v1.404c0,0.939 -0.225,1.924 -0.672,2.957c-0.447,1.031 -1.139,1.904 -2.064,2.604c-0.932,0.703 -2.721,0.996 -5.377,0.877V43.859z" id="path_2"/><path fill="#000001" d="M75.457,22.697c0.158,-0.094 0.203,0.053 0.137,0.434c-0.885,2.076 -2.242,3.527 -4.072,4.346l-6.729,3.375c-0.287,-0.078 -0.342,-0.313 -0.16,-0.705c0.896,-1.73 1.512,-2.756 1.838,-3.082L75.457,22.697z" id="path_3"/><path fill="#DD2C00" d="M50.646,32.629c0.652,0 1.799,0.779 3.434,2.336c0,0.52 -0.623,1.664 -1.875,3.436h-0.307c-0.654,0 -1.645,-0.625 -2.971,-1.871v-0.16C48.928,35.752 49.502,34.5 50.646,32.629z" id="path_4"/><path fill="#DD2C00" d="M56.266,31.85c2.596,1.119 3.9,1.998 3.9,2.65c-0.16,0.492 -0.887,1.584 -2.184,3.275c-1.744,-0.674 -2.994,-1.459 -3.748,-2.338C54.781,33.693 55.459,32.496 56.266,31.85z" id="path_5"/><path fill="#DD2C00" d="M52.518,27.324c2.396,0.984 3.588,1.816 3.588,2.496l-2.025,3.121h-0.16c-0.438,0 -1.635,-0.625 -3.586,-1.877C51.299,28.568 52.025,27.324 52.518,27.324z" id="path_6"/><path fill="#DD2C00" d="M64.219,47.973h-0.758c-1.018,0 -2.264,-0.619 -3.748,-1.871c-0.857,1.457 -1.691,2.184 -2.496,2.184h-0.313c-0.893,0 -1.672,-0.572 -2.336,-1.711c-0.055,-0.133 -0.107,-0.133 -0.16,0c-0.832,1.451 -1.766,2.184 -2.803,2.184h-0.16c-1.803,0 -3.154,-1.199 -4.053,-3.588c-1.266,1.244 -3.189,2.184 -5.771,2.803c-5.957,0.652 -9.578,0.426 -10.863,-0.68c-1.291,-1.105 -1.258,-1.725 0.084,-1.863c1.346,-0.133 4.154,-0.301 8.436,-0.5c3.248,-0.166 5.85,-0.971 7.803,-2.416c0.584,-1.49 1.051,-2.322 1.404,-2.496c0.365,-0.094 0.471,0.133 0.318,0.672c-0.145,0.539 -0.205,1.045 -0.166,1.512c1.045,1.564 2.084,2.344 3.121,2.344c1.285,0 2.223,-1.092 2.811,-3.275l0.152,-0.16h0.16c0.285,0 0.492,0.572 0.625,1.717c0.307,0.951 1.051,1.412 2.215,1.385c0.994,-0.119 1.658,-1.152 1.992,-3.102c0.121,-0.572 0.434,-0.725 0.938,-0.467c0,1.559 0.885,2.604 2.65,3.123l0.918,0.094V47.973z" id="path_7"/><path fill="#DD2C00" d="M52.385,16.541h1.543c1.871,0 2.809,0.699 2.809,2.104c-1.211,3.273 -2.682,5.012 -4.412,5.211l-2.045,0.273c-0.324,0 -0.457,-0.094 -0.41,-0.273c1.648,-0.871 3.193,-1.91 4.625,-3.102c-0.506,-0.473 -1.064,-0.705 -1.678,-0.705h-0.432l-1.678,0.139l-0.133,-0.139v-0.273C51.365,17.619 51.971,16.541 52.385,16.541z" id="path_8"/><path fill="#213e95" d="M38.672,47.387c0.533,0.951 0.826,1.51 0.879,1.678l0.074,1.271c-0.014,2.248 -0.314,3.801 -0.914,4.658c-0.598,0.859 -1.357,1.293 -2.283,1.307c-2.002,0 -4.08,-1.611 -6.242,-4.834c-0.373,-0.639 -0.738,-1.471 -1.092,-2.496h-1.559c-0.354,0 -0.684,-0.02 -1.012,-0.061v-4.467c0.479,0.107 0.973,0.154 1.479,0.154h0.625c0.859,-3.328 2.316,-5.824 4.367,-7.488c1.064,-0.832 2.057,-1.244 2.967,-1.244c1.406,0 2.238,1.037 2.498,3.121c0.412,2.09 -0.053,4.266 -1.404,6.529L38.672,47.387L38.672,47.387zM31.75,48.811c1.064,1.877 2.623,2.916 4.678,3.121c1.039,-0.092 1.719,-0.451 2.031,-1.09c-0.092,-1.258 -0.818,-2.025 -2.184,-2.291c-1.371,-0.266 -2.463,-0.359 -3.287,-0.266C32.16,48.379 31.75,48.551 31.75,48.811L31.75,48.811zM30.186,43.979c-0.113,0.346 0.039,0.506 0.473,0.465c1.977,0 3.947,-0.885 5.924,-2.648v-0.158c-0.439,-1.039 -1.012,-1.559 -1.711,-1.559C33.32,39.877 31.764,41.182 30.186,43.979z" id="path_9"/><path fill="#213e95" d="M39.158,25.506c0.16,-0.092 0.207,0.055 0.141,0.434c-0.885,2.076 -2.244,3.527 -4.074,4.346l-6.73,3.375c-0.285,-0.08 -0.338,-0.313 -0.16,-0.705c0.9,-1.73 1.512,-2.756 1.838,-3.082L39.158,25.506z" id="path_10"/><path fill="#000001" d="M27.143,48.91c-2.676,-0.18 -5.105,-1.643 -7.289,-4.387h-0.16c-0.932,5.406 -3.014,8.107 -6.236,8.115h-0.473c-1.396,-0.008 -2.754,-1.252 -4.053,-3.748c-1.039,-3.508 -1.559,-6.164 -1.559,-7.953v-1.252c0,-0.779 0.154,-1.197 0.467,-1.244c0.438,0.232 0.965,1.936 1.57,5.117c0.605,3.176 1.852,4.693 3.734,4.553c3.643,-0.598 5.564,-2.682 5.771,-6.244l-1.404,-4.832v-1.717c0.053,-2.084 0.26,-3.123 0.625,-3.123c0.205,0.467 0.365,0.939 0.465,1.406l2.184,6.861c1.719,2.783 3.842,4.102 6.357,3.941V48.91z" id="path_11"/><path fill="#000001" d="M18.195,17.586c1.6,0 2.398,0.984 2.398,2.949c0,3.129 -2.67,5.797 -8.014,7.994c-0.768,0.232 -0.861,-0.047 -0.273,-0.84c0.146,-0.299 1.404,-1.238 3.779,-2.809v-0.133c-1.023,-0.42 -1.537,-1.313 -1.537,-2.676c0.68,-2.988 1.758,-4.486 3.236,-4.486H18.195L18.195,17.586zM15.813,20.961c0,0.832 0.707,1.344 2.111,1.545h0.271c0.521,0 0.854,-0.193 0.994,-0.568c0,-0.844 -0.613,-1.502 -1.832,-1.969C16.824,19.969 16.313,20.301 15.813,20.961z" id="path_12"/></svg>