<svg id="vector" xmlns="http://www.w3.org/2000/svg" width="75" height="67" viewBox="0 0 83 73"><path fill="#DD2C00" d="M61.951,39.172c0.879,0 2.077,0.726 3.589,2.184v0.313c-1.019,2.184 -1.69,3.275 -2.03,3.275l-3.588,-2.022h-0.16c-1.012,1.736 -1.684,2.675 -2.023,2.802h-0.16c-2.282,-1.012 -3.428,-1.791 -3.428,-2.337c0.832,-2.29 1.558,-3.435 2.183,-3.435l3.741,2.03C60.674,40.757 61.299,39.824 61.951,39.172z" id="path_0"/><path fill="#DD2C00" d="M57.892,34.34c1.018,0 2.157,0.879 3.435,2.649c-0.34,0.806 -1.019,1.744 -2.031,2.809h-0.312c-0.905,-0.206 -1.897,-0.778 -2.962,-1.717v-0.466C56.1,36.782 56.721,35.691 57.892,34.34z" id="path_1"/><path fill="#DD2C00" d="M47.846,51.4h0.061c2.416,-0.107 4.081,-1.271 4.992,-3.508c0,-0.313 0.207,-0.572 0.627,-0.785h0.312c0.207,0 0.313,0.16 0.313,0.472l-0.159,0.933c0.884,1.563 1.823,2.343 2.808,2.343h0.779c1.352,0 2.396,-1.352 3.123,-4.055h0.159c0.153,0.021 0.413,0.646 0.778,1.872c0.885,0.778 1.764,1.244 2.649,1.403c1.038,0 1.565,-0.625 1.565,-1.87c0.099,-1.977 0.306,-2.969 0.617,-2.969c0.42,0.885 0.627,1.978 0.627,3.275c0,3.854 -0.938,5.778 -2.81,5.778c-1.458,0 -2.649,-0.732 -3.587,-2.19h-0.313c-0.646,2.083 -1.69,3.121 -3.122,3.121h-0.153c-1.271,0 -2.729,-0.984 -4.366,-2.961c-1.378,2.389 -2.941,3.587 -4.68,3.587h-0.221V51.4z" id="path_2"/><path fill="#DD2C00" d="M63.176,24.369c0.16,-0.094 0.207,0.053 0.141,0.433c-0.885,2.077 -2.243,3.527 -4.074,4.346l-6.729,3.375c-0.286,-0.08 -0.339,-0.313 -0.159,-0.705c0.898,-1.73 1.511,-2.756 1.836,-3.082L63.176,24.369z" id="path_3"/><path fill="#000001" d="M42.256,18.504c1.438,0 2.889,0.72 4.346,2.163c0.14,0.247 0.088,0.44 -0.166,0.586c-0.253,0.14 -0.486,0.106 -0.692,-0.099c-0.625,-0.56 -1.511,-0.84 -2.655,-0.84h-0.486c-0.479,0 -1.039,0.2 -1.678,0.605c0,1.172 1.404,1.891 4.214,2.164l2.788,-1.092l0.12,0.373c0,1.312 -1.617,2.482 -4.839,3.508l-4.466,2.536l-0.466,0.119c-0.181,0.034 -0.307,-0.04 -0.373,-0.24c0,-0.697 1.012,-1.67 3.021,-2.901v-0.12c-0.972,-0.532 -1.457,-1.298 -1.457,-2.303C39.919,19.988 40.852,18.504 42.256,18.504z" id="path_4"/><path fill="#000001" d="M48.633,55.847h-0.394c-3.767,0 -6.11,-2.649 -7.022,-7.954l-0.932,-15.138c0.386,-2.183 0.805,-3.427 1.244,-3.74h0.16c0.207,0 0.307,0.153 0.307,0.467c0,10.323 0.678,16.847 2.029,19.576c1.379,1.524 2.916,2.296 4.607,2.322V55.847z" id="path_5"/><path fill="#000001" d="M41.157,9.977h1.544c1.871,0 2.81,0.699 2.81,2.104c-1.212,3.274 -2.683,5.012 -4.414,5.212l-2.042,0.272c-0.327,0 -0.46,-0.094 -0.414,-0.272c1.65,-0.872 3.195,-1.91 4.627,-3.102c-0.506,-0.474 -1.064,-0.706 -1.678,-0.706h-0.433l-1.679,0.139l-0.132,-0.139v-0.273C40.139,11.055 40.744,9.977 41.157,9.977z" id="path_6"/><path fill="#DD2C00" d="M25.574,46.488h0.313c1.457,0.332 2.756,1.118 3.901,2.336v0.313c-0.101,0.831 -0.726,1.924 -1.871,3.274c-2.702,-0.905 -4.054,-1.69 -4.054,-2.337C24.509,48.205 25.081,47.007 25.574,46.488z" id="path_7"/><path fill="#DD2C00" d="M33.848,43.366h0.307c0.365,0 1.251,2.343 2.656,7.022l0.152,0.619c0,3.668 -0.885,6.323 -2.648,7.961c-2.496,2.702 -5.459,4.054 -8.895,4.054c-2.808,-0.626 -4.625,-1.244 -5.457,-1.87c-2.709,-2.316 -4.061,-5.179 -4.061,-8.581c0,-2.861 1.252,-5.564 3.748,-8.113l0.152,-0.153h0.313l0.314,0.307c0,0.266 -0.727,1.404 -2.185,3.434c-0.419,0.726 -0.679,1.718 -0.778,2.963c0,2.423 1.244,4.5 3.74,6.243c2.443,0.939 4.107,1.405 4.992,1.405c2.237,0 4.887,-0.992 7.955,-2.963c1.251,-1.098 1.877,-1.771 1.877,-2.029l-2.184,-6.085l-0.159,-1.091L33.848,43.366z" id="path_8"/><path fill="#f06022" d="M28.07,28.023c1.191,0 1.896,0.792 2.104,2.376v0.433c-0.221,2.648 -1.104,4.38 -2.648,5.186c-2.689,1.69 -5.133,2.535 -7.316,2.535c-0.08,-0.013 -0.153,-0.033 -0.233,-0.06c-0.079,-0.026 -0.14,-0.065 -0.187,-0.119c-0.045,-0.047 -0.039,-0.08 0.014,-0.093c0.113,-0.261 2.077,-1.299 5.885,-3.103v-0.14c-1.025,-0.646 -1.537,-1.538 -1.537,-2.669C24.763,29.468 26.066,28.023 28.07,28.023L28.07,28.023zM25.555,30.965v0.134c0,0.966 0.658,1.531 1.971,1.696h0.405c0.499,0 0.778,-0.139 0.839,-0.425c0,-1.313 -0.699,-1.971 -2.104,-1.971C25.927,30.565 25.555,30.759 25.555,30.965z" id="path_9"/><path fill="#f06022" d="M24.988,25.487c0.3,-0.146 0.439,-0.047 0.426,0.292c-1.504,1.665 -2.688,3.242 -3.548,4.74c-0.245,0.585 -0.386,1.064 -0.419,1.451c-0.033,0.386 0.066,0.798 0.307,1.238h0.292c0.114,-0.652 0.347,-0.979 0.699,-0.979c0.419,0.187 0.652,0.373 0.699,0.565v0.273c0.026,1.485 -0.394,2.376 -1.265,2.677H21.48c-0.938,-0.188 -1.404,-1.266 -1.404,-3.242C20.076,30.101 21.713,27.763 24.988,25.487z" id="path_10"/></svg>