<svg id="vector" xmlns="http://www.w3.org/2000/svg" width="75" height="67" viewBox="0 0 83 73"><path fill="#000001" d="M60.563,50.881c0.653,0 1.798,0.785 3.435,2.344c0,0.52 -0.626,1.664 -1.877,3.434h-0.306c-0.653,0 -1.644,-0.625 -2.97,-1.877v-0.152C58.846,54.002 59.419,52.758 60.563,50.881z" id="path_0"/><path fill="#000001" d="M66.182,50.102c2.596,1.119 3.9,2.004 3.9,2.656c-0.16,0.492 -0.886,1.584 -2.183,3.275c-1.745,-0.68 -2.995,-1.459 -3.748,-2.344C64.697,51.954 65.376,50.754 66.182,50.102z" id="path_1"/><path fill="#000001" d="M61.25,42.713c0.127,0 0.319,0 0.585,0h0.659c1.663,0 2.73,-0.418 3.202,-1.25v-0.314c-0.786,-2.729 -1.931,-5.211 -3.435,-7.447c0.18,-2.391 0.439,-3.588 0.778,-3.588c0.913,0.732 2.11,3.328 3.588,7.801l0.16,2.029v1.406c-0.499,3.846 -1.978,5.77 -4.448,5.77h-0.505c-0.279,0 -0.472,0.014 -0.585,0.041V42.713z" id="path_2"/><path fill="#000001" d="M64.604,16.34c1.597,0 2.396,0.986 2.396,2.949c0,3.129 -2.67,5.799 -8.016,7.994c-0.764,0.234 -0.857,-0.047 -0.272,-0.838c0.146,-0.299 1.404,-1.238 3.781,-2.809v-0.133c-1.026,-0.42 -1.537,-1.313 -1.537,-2.678c0.679,-2.988 1.758,-4.486 3.233,-4.486H64.604L64.604,16.34zM62.221,19.715c0,0.832 0.706,1.346 2.11,1.545h0.273c0.519,0 0.852,-0.193 0.992,-0.564c0,-0.846 -0.612,-1.506 -1.831,-1.971C63.233,18.725 62.721,19.057 62.221,19.715z" id="path_3"/><path fill="#213e95" d="M61.636,47.12c-0.247,0 -0.546,0 -0.898,0c-1.391,-0.012 -2.891,-1.057 -4.507,-3.141c-0.618,2.289 -1.711,3.436 -3.274,3.436h-0.154c-1.324,0 -2.416,-0.779 -3.274,-2.344h-0.16c-0.932,1.877 -2.063,2.729 -3.395,2.555c-2.469,0.014 -3.934,-1.15 -4.405,-3.486c-1.738,2.037 -3.608,3.035 -5.6,2.98h-0.253v-4.445h0.08c3.149,-0.107 5.485,-1.178 7.022,-3.215c0.206,0 0.313,0.152 0.313,0.465l-0.16,1.094c0.831,1.662 1.923,2.494 3.274,2.494c1.277,0 2.576,-1.244 3.9,-3.74h0.16l0.466,0.467v1.09c0,0.986 0.733,1.559 2.185,1.719h0.312c1.352,0 2.604,-1.352 3.748,-4.061h0.152c0.207,0 0.314,0.473 0.314,1.404c0.571,1.578 1.956,2.336 4.153,2.283V47.12z" id="path_4"/><path fill="#213e95" d="M48.821,24.614h1.545c1.87,0 2.809,0.699 2.809,2.105c-1.212,3.273 -2.682,5.012 -4.414,5.211l-2.043,0.273c-0.326,0 -0.459,-0.094 -0.412,-0.273c1.65,-0.871 3.194,-1.91 4.626,-3.102c-0.505,-0.473 -1.064,-0.705 -1.677,-0.705h-0.434l-1.677,0.139l-0.133,-0.139V27.85C47.804,25.694 48.408,24.614 48.821,24.614z" id="path_5"/><path fill="#008046" d="M35.987,47.133c-0.14,0.014 -0.286,0.021 -0.425,0.021h-0.786c-1.219,0 -2.049,-0.102 -2.496,-0.313c-0.904,3.5 -1.964,5.645 -3.175,6.428c-1.211,0.787 -3.947,1.451 -8.208,1.998h-0.312c-0.94,-0.107 -1.404,-0.26 -1.404,-0.465c0,-0.313 0.778,-0.68 2.336,-1.092c6.138,-2.811 9.205,-4.84 9.205,-6.086c0,-0.518 -0.726,-1.717 -2.183,-3.586c-0.313,-0.527 -0.466,-1.199 -0.466,-2.031v-1.557c0,-0.785 0.152,-1.199 0.466,-1.252c1.352,2.07 3.641,3.221 6.862,3.467c0.199,0 0.393,0 0.585,-0.012V47.133z" id="path_6"/><path fill="#f06022" d="M32.479,28.608l0.16,0.141v0.426c-0.812,1.73 -1.937,2.943 -3.374,3.648c-4.474,2.43 -6.956,3.648 -7.449,3.648c-0.186,0 -0.279,-0.146 -0.279,-0.434c0.433,-1.65 1.371,-2.77 2.809,-3.355l8.001,-4.074H32.479z" id="path_7"/><path fill="#f06022" d="M31.368,25.102c0.181,0 0.272,0.131 0.272,0.404c-0.519,1.512 -2.056,2.869 -4.62,4.082l-5.91,3.234l-0.133,-0.141V32.53c0.56,-1.977 1.445,-3.195 2.67,-3.648l6.589,-3.375L31.368,25.102z" id="path_8"/><path fill="#008046" d="M14.321,21.879c0.313,0 0.626,1.045 0.938,3.121l1.404,3.123l-0.626,3.588l0.466,8.74v1.396c-0.205,3.568 -0.726,5.645 -1.557,6.244l-0.153,-0.152l0.153,-2.344c0,-2.104 -0.681,-8.813 -2.029,-20.123C13.569,23.077 14.035,21.879 14.321,21.879z" id="path_9"/></svg>