<svg id="vector" xmlns="http://www.w3.org/2000/svg" width="75" height="67" viewBox="0 0 83 73"><path fill="#213e95" d="M70.701,50.715c0.597,0 1.645,0.719 3.144,2.143c0,0.477 -0.573,1.523 -1.718,3.143h-0.28c-0.598,0 -1.505,-0.572 -2.717,-1.717v-0.141C69.13,53.57 69.654,52.432 70.701,50.715z" id="path_0"/><path fill="#213e95" d="M75.841,50.002c2.376,1.023 3.57,1.832 3.57,2.43c-0.146,0.451 -0.81,1.449 -1.998,2.996c-1.596,-0.621 -2.741,-1.334 -3.429,-2.143C74.484,51.695 75.105,50.598 75.841,50.002z" id="path_1"/><path fill="#213e95" d="M71.329,43.24c0.115,0 0.292,0 0.536,0h0.604c1.523,0 2.497,-0.383 2.929,-1.145v-0.287c-0.719,-2.496 -1.766,-4.77 -3.143,-6.816c0.165,-2.186 0.402,-3.283 0.713,-3.283c0.834,0.67 1.931,3.047 3.283,7.139l0.146,1.859v1.285c-0.457,3.52 -1.81,5.279 -4.069,5.279h-0.463c-0.256,0 -0.432,0.014 -0.536,0.037V43.24z" id="path_2"/><path fill="#213e95" d="M74.398,19.113c1.461,0 2.193,0.902 2.193,2.699c0,2.863 -2.443,5.305 -7.333,7.314c-0.701,0.213 -0.786,-0.041 -0.25,-0.768c0.133,-0.273 1.285,-1.133 3.459,-2.57v-0.121c-0.938,-0.385 -1.407,-1.201 -1.407,-2.449c0.621,-2.734 1.608,-4.105 2.96,-4.105H74.398L74.398,19.113zM72.218,22.201c0,0.762 0.646,1.23 1.93,1.414h0.25c0.475,0 0.78,-0.178 0.908,-0.518c0,-0.773 -0.561,-1.377 -1.675,-1.803C73.144,21.295 72.674,21.598 72.218,22.201z" id="path_3"/><path fill="#000001" d="M71.682,47.271c-0.225,0 -0.499,0 -0.823,0c-1.272,-0.012 -2.644,-0.967 -4.124,-2.873c-0.567,2.094 -1.565,3.143 -2.997,3.143h-0.141c-1.212,0 -2.21,-0.713 -2.996,-2.145h-0.146c-0.853,1.717 -1.889,2.498 -3.106,2.338c-2.259,0.014 -3.6,-1.053 -4.032,-3.191c-1.59,1.863 -3.302,2.777 -5.123,2.729h-0.231v-4.068h0.073c2.88,-0.096 5.019,-1.078 6.426,-2.941c0.189,0 0.287,0.141 0.287,0.426l-0.146,1c0.761,1.521 1.76,2.283 2.996,2.283c1.169,0 2.358,-1.139 3.57,-3.422h0.146l0.426,0.426v0.998c0,0.902 0.67,1.426 1.998,1.572h0.287c1.236,0 2.381,-1.236 3.429,-3.715h0.141c0.188,0 0.286,0.432 0.286,1.285c0.524,1.443 1.791,2.137 3.801,2.088V47.271z" id="path_4"/><path fill="#000001" d="M59.957,26.678h1.413c1.711,0 2.57,0.641 2.57,1.926c-1.108,2.998 -2.455,4.586 -4.039,4.77l-1.869,0.25c-0.299,0 -0.42,-0.086 -0.378,-0.25c1.51,-0.799 2.924,-1.748 4.234,-2.84c-0.463,-0.432 -0.975,-0.645 -1.535,-0.645h-0.396l-1.536,0.127l-0.122,-0.127v-0.25C59.024,27.666 59.579,26.678 59.957,26.678z" id="path_5"/><path fill="#008046" d="M33.764,43.203c1.583,0.135 2.93,-0.023 4.05,-0.463l-0.59,-1.07c-0.555,-3.145 -0.305,-5.221 0.749,-6.238c1.06,-1.018 2.199,-1.486 3.411,-1.4c2.358,0.109 3.685,1.346 3.996,3.709V38.6c0,1.973 -0.287,3.209 -0.854,3.709c-0.359,0.371 0.452,0.682 2.425,0.932l0.462,-0.02c0.36,-0.012 0.769,-0.018 1.23,-0.018v4.068l-1.443,0.02c-2.687,-0.012 -4.721,-0.354 -6.103,-1.018c-1.9,0.664 -3.38,0.998 -4.423,0.998h-0.572c-0.713,0 -1.493,0 -2.339,0V43.203L33.764,43.203zM38.814,39.172v0.285c0.597,1.025 1.499,1.738 2.711,2.139c0.81,-0.141 1.621,-0.475 2.43,-0.998c-0.359,-1.334 -1.547,-2.096 -3.569,-2.285C39.337,38.6 38.814,38.885 38.814,39.172z" id="path_6"/><path fill="#008046" d="M41.58,25.82c1.547,0.48 2.881,1.242 3.996,2.283v0.146c0,0.598 -0.615,1.547 -1.852,2.857c-0.384,0 -1.669,-0.477 -3.855,-1.432v0.145c-0.762,1.475 -1.236,2.236 -1.432,2.285c-1.236,-0.262 -2.285,-0.834 -3.138,-1.717c0.573,-2.377 1.048,-3.564 1.426,-3.564c0.311,0 1.456,0.566 3.429,1.713C40.154,28.037 40.629,27.129 41.58,25.82z" id="path_7"/><path fill="#008046" d="M45.039,17.023c0.146,-0.084 0.189,0.049 0.127,0.396c-0.809,1.9 -2.052,3.229 -3.727,3.979l-6.159,3.088c-0.262,-0.074 -0.311,-0.287 -0.146,-0.646c0.822,-1.584 1.382,-2.521 1.681,-2.82L45.039,17.023z" id="path_8"/><path fill="#DD2C00" d="M34.209,47.271l-1.608,-0.018c-0.89,3.918 -3.246,5.896 -7.065,5.945c-2.047,0.092 -3.07,0.055 -3.07,-0.109c0.189,-0.359 1.559,-1.047 4.106,-2.072c2.619,-1.662 4.196,-2.734 4.745,-3.209l0.146,-0.426l-2.497,-0.396c-1.821,-0.475 -2.845,-1.389 -3.07,-2.746v-0.287c0,-2.309 0.566,-3.783 1.712,-4.428l0.858,-0.141c1.688,0 3.064,1.176 4.136,3.533c0.683,0.238 1.219,0.352 1.608,0.34V47.271z" id="path_9"/><path fill="#DD2C00" d="M27.588,27.641h1.413c1.712,0 2.571,0.641 2.571,1.926c-1.11,2.996 -2.455,4.586 -4.039,4.77l-1.871,0.25c-0.298,0 -0.42,-0.086 -0.377,-0.25c1.51,-0.799 2.923,-1.748 4.232,-2.84c-0.462,-0.432 -0.974,-0.645 -1.535,-0.645h-0.396l-1.535,0.129l-0.122,-0.129v-0.25C26.656,28.627 27.211,27.641 27.588,27.641z" id="path_10"/><path fill="#000001" d="M12.439,38.709h0.286c1.334,0.305 2.521,1.023 3.57,2.137v0.287c-0.092,0.762 -0.664,1.76 -1.711,2.996c-2.474,-0.828 -3.71,-1.547 -3.71,-2.137C11.464,40.279 11.988,39.184 12.439,38.709z" id="path_11"/><path fill="#000001" d="M20.011,35.852h0.28c0.334,0 1.145,2.145 2.43,6.426l0.14,0.566c0,3.357 -0.81,5.787 -2.424,7.285c-2.285,2.475 -4.995,3.711 -8.138,3.711c-2.57,-0.574 -4.233,-1.139 -4.994,-1.713c-2.479,-2.119 -3.716,-4.738 -3.716,-7.852c0,-2.619 1.145,-5.092 3.429,-7.426l0.139,-0.139h0.287l0.287,0.279c0,0.244 -0.664,1.285 -1.998,3.143c-0.384,0.666 -0.621,1.572 -0.713,2.711c0,2.219 1.139,4.119 3.423,5.715c2.235,0.859 3.758,1.285 4.568,1.285c2.047,0 4.471,-0.908 7.279,-2.711c1.145,-1.006 1.717,-1.621 1.717,-1.857l-1.997,-5.568l-0.147,-0.998L20.011,35.852z" id="path_12"/><path fill="#000001" d="M17.647,23.986c0.146,-0.084 0.188,0.049 0.128,0.396c-0.81,1.9 -2.052,3.229 -3.728,3.977l-6.159,3.09c-0.261,-0.074 -0.31,-0.287 -0.146,-0.646c0.823,-1.584 1.382,-2.521 1.681,-2.82L17.647,23.986z" id="path_13"/></svg>