<svg id="vector" xmlns="http://www.w3.org/2000/svg" width="75" height="67" viewBox="0 0 83 73"><path fill="#DD2C00" d="M55.351,47.054c0.227,0.027 0.446,-0.094 0.666,-0.352c-0.412,-0.508 -0.625,-1.033 -0.625,-1.578v-1.406c0.498,-4.572 2.315,-6.861 5.464,-6.861c1.585,0 3.302,0.832 5.146,2.496c0.68,0.26 1.039,0.518 1.092,0.779v0.152c0,0.238 -0.26,0.393 -0.779,0.473c0,-0.445 -1.352,-0.807 -4.053,-1.092h-0.626c-2.915,0.439 -4.366,1.219 -4.366,2.336c0,1.539 1.504,2.684 4.52,3.436l1.092,0.152c0.393,0 2.369,-0.984 5.93,-2.963h0.154l0.313,0.314c0,2.156 -2.391,4.5 -7.176,7.023c-3.408,1.037 -5.484,1.557 -6.237,1.557c-0.173,0 -0.339,-0.008 -0.513,-0.021V47.054z" id="path_0"/><path fill="#DD2C00" d="M66.587,53.53c0.16,-0.086 0.207,0.053 0.141,0.432c-0.885,2.078 -2.244,3.529 -4.074,4.348l-6.729,3.375c-0.286,-0.08 -0.339,-0.313 -0.16,-0.699c0.899,-1.73 1.511,-2.756 1.837,-3.082L66.587,53.53z" id="path_1"/><path fill="#0992d1" d="M42.524,41.888h0.039c1.817,0 3.275,-0.619 4.367,-1.871l-0.153,-1.244c0,-1.537 0.313,-2.783 0.933,-3.748c0.285,0 0.705,2.656 1.25,7.955c0.627,2.863 2.803,4.188 6.531,3.98v4.447c-3.642,0.26 -6.178,-1.404 -7.623,-4.992c-0.232,-2.496 -0.492,-3.742 -0.777,-3.742c-0.613,2.363 -2.138,3.607 -4.566,3.721V41.888z" id="path_2"/><path fill="#0992d1" d="M44.767,52.964h0.627c2.049,1.172 3.094,1.852 3.115,2.031c-1.013,2.182 -1.685,3.328 -2.023,3.434c-1.172,0 -2.317,-0.572 -3.436,-1.717C43.255,55.595 43.829,54.349 44.767,52.964z" id="path_3"/><path fill="#0992d1" d="M47.962,23.464h1.545c1.87,0 2.809,0.697 2.809,2.104c-1.211,3.275 -2.684,5.012 -4.414,5.211l-2.043,0.273c-0.326,0 -0.459,-0.094 -0.412,-0.273c1.65,-0.871 3.194,-1.91 4.626,-3.102c-0.507,-0.473 -1.065,-0.705 -1.677,-0.705h-0.434l-1.677,0.139l-0.134,-0.139v-0.273C46.943,24.542 47.55,23.464 47.962,23.464z" id="path_4"/><path fill="#008046" d="M42.771,46.468c-0.141,0.014 -0.286,0.02 -0.427,0.02H41.56c-1.219,0 -2.051,-0.1 -2.497,-0.313c-0.905,3.502 -1.964,5.645 -3.175,6.43c-1.212,0.785 -3.947,1.451 -8.208,1.998h-0.313c-0.938,-0.107 -1.404,-0.26 -1.404,-0.467c0,-0.313 0.779,-0.678 2.337,-1.092c6.138,-2.809 9.206,-4.84 9.206,-6.084c0,-0.52 -0.726,-1.717 -2.184,-3.588c-0.313,-0.525 -0.466,-1.197 -0.466,-2.029v-1.557c0,-0.787 0.153,-1.199 0.466,-1.254c1.352,2.07 3.641,3.223 6.863,3.469c0.199,0 0.393,0 0.586,-0.014V46.468z" id="path_5"/><path fill="#008046" d="M39.476,27.649c0.16,-0.092 0.207,0.053 0.139,0.434c-0.885,2.076 -2.242,3.527 -4.072,4.346l-6.73,3.375c-0.287,-0.08 -0.339,-0.313 -0.16,-0.705c0.899,-1.73 1.512,-2.756 1.838,-3.082L39.476,27.649z" id="path_6"/><path fill="#213e95" d="M16.77,27.091c1.22,0.365 2.47,1.145 3.741,2.344v0.152c-1.165,2.057 -1.844,3.096 -2.023,3.123h-0.473c-0.879,-0.135 -1.817,-0.699 -2.809,-1.719v-0.152C15.312,29.612 15.831,28.368 16.77,27.091z" id="path_7"/><path fill="#213e95" d="M22.694,27.403c1.145,0.26 2.289,0.938 3.436,2.031v0.152c0,0.572 -0.627,1.611 -1.871,3.123h-0.467c-0.732,0 -1.664,-0.574 -2.809,-1.719C21.27,29.38 21.842,28.183 22.694,27.403z" id="path_8"/><path fill="#213e95" d="M25.25,34.952l0.159,0.465c-0.212,0.887 -1.145,1.924 -2.809,3.123c1.664,1.35 2.497,3.328 2.497,5.93v0.154c0,4.266 -1.771,6.396 -5.306,6.396c-2.809,-0.545 -4.214,-1.951 -4.214,-4.213v-0.154c0.107,-1.949 0.886,-4.033 2.343,-6.242c-1.35,-0.414 -2.029,-0.986 -2.029,-1.719c0,-1.949 0.152,-3.143 0.466,-3.588c1.405,0.393 2.969,1.172 4.679,2.344h0.16L25.25,34.952L25.25,34.952zM19.167,41.188c-1.246,1.252 -1.871,2.137 -1.871,2.656c0,1.611 1.145,2.549 3.435,2.809c1.191,-0.16 2.237,-0.572 3.115,-1.25C22.835,43.657 21.276,42.261 19.167,41.188z" id="path_9"/><path fill="#000001" d="M22.035,13.917c1.191,0 1.897,0.793 2.103,2.377v0.434c-0.219,2.648 -1.104,4.379 -2.648,5.184c-2.689,1.691 -5.132,2.537 -7.314,2.537c-0.08,-0.014 -0.154,-0.033 -0.234,-0.061c-0.08,-0.025 -0.139,-0.066 -0.186,-0.119c-0.047,-0.047 -0.04,-0.08 0.013,-0.094c0.112,-0.26 2.077,-1.299 5.884,-3.102v-0.141c-1.023,-0.645 -1.537,-1.537 -1.537,-2.668C18.727,15.362 20.031,13.917 22.035,13.917L22.035,13.917zM19.52,16.858v0.135c0,0.965 0.659,1.531 1.97,1.697h0.406c0.5,0 0.778,-0.141 0.839,-0.426c0,-1.313 -0.699,-1.971 -2.104,-1.971C19.892,16.46 19.52,16.653 19.52,16.858z" id="path_10"/><path fill="#000001" d="M18.952,11.382c0.301,-0.148 0.44,-0.047 0.427,0.293c-1.505,1.664 -2.688,3.242 -3.548,4.738c-0.246,0.586 -0.385,1.064 -0.418,1.451s0.065,0.799 0.306,1.238h0.292c0.113,-0.652 0.347,-0.979 0.699,-0.979c0.42,0.186 0.652,0.373 0.699,0.566v0.271c0.026,1.486 -0.393,2.377 -1.266,2.678h-0.697c-0.939,-0.188 -1.406,-1.266 -1.406,-3.242C14.04,15.995 15.679,13.657 18.952,11.382z" id="path_11"/></svg>