<svg id="vector" xmlns="http://www.w3.org/2000/svg" width="75" height="67" viewBox="0 0 83 73"><path fill="#DD2C00" d="M53.385,36.958c0.393,0.027 0.792,0.041 1.192,0.041h0.466l1.95,-0.467c-0.466,-0.871 -0.699,-1.477 -0.699,-1.817c0,-4.992 1.611,-7.488 4.833,-7.488l1.251,-0.153c1.638,0.261 3.722,1.245 6.237,2.963l0.16,0.625l-0.16,0.153h-0.619c-1.198,-0.831 -2.549,-1.244 -4.06,-1.244c-2.31,0 -4.234,0.672 -5.771,2.023v0.159c1.352,2.184 3.848,3.275 7.488,3.275c2.863,-1.039 4.733,-1.558 5.619,-1.558c-0.493,2.909 -1.432,4.366 -2.809,4.366c-6.164,2.391 -11.05,3.588 -14.664,3.588h-0.414V36.958z" id="path_0"/><path fill="#DD2C00" d="M67.017,14.394c0.161,-0.094 0.207,0.053 0.141,0.433c-0.886,2.077 -2.244,3.528 -4.074,4.347l-6.729,3.375c-0.286,-0.08 -0.339,-0.313 -0.16,-0.706c0.899,-1.73 1.511,-2.755 1.837,-3.082L67.017,14.394z" id="path_1"/><path fill="#000001" d="M45.064,25.803c0.879,0 2.077,0.731 3.588,2.184v0.313c-1.019,2.183 -1.691,3.281 -2.03,3.281l-3.588,-2.03h-0.16c-1.011,1.744 -1.684,2.676 -2.023,2.809h-0.16c-2.283,-1.018 -3.428,-1.797 -3.428,-2.342c0.833,-2.291 1.558,-3.429 2.183,-3.429l3.741,2.023C43.787,27.394 44.412,26.455 45.064,25.803z" id="path_2"/><path fill="#000001" d="M41.004,20.971c1.018,0 2.157,0.884 3.434,2.648c-0.339,0.806 -1.018,1.744 -2.03,2.809h-0.312c-0.906,-0.205 -1.897,-0.778 -2.962,-1.717v-0.466C39.213,23.413 39.833,22.321 41.004,20.971z" id="path_3"/><path fill="#000001" d="M54.364,41.425c-0.247,0 -0.546,0 -0.899,0c-1.391,-0.014 -2.888,-1.059 -4.506,-3.141c-0.619,2.289 -1.711,3.434 -3.275,3.434h-0.153c-1.324,0 -2.417,-0.779 -3.275,-2.344h-0.159c-0.932,1.878 -2.064,2.73 -3.395,2.557c-2.47,0.014 -3.935,-1.15 -4.406,-3.488c-1.738,2.037 -3.608,3.035 -5.599,2.982h-0.252v-4.445h0.08c3.148,-0.234 5.485,-1.305 7.022,-3.217c0.207,0 0.313,0.154 0.313,0.467l-0.16,1.092c0.832,1.664 1.924,2.496 3.275,2.496c1.278,0 2.576,-1.245 3.9,-3.741h0.16l0.466,0.466v1.092c0,0.985 0.732,1.558 2.183,1.718h0.313c1.352,0 2.603,-1.352 3.747,-4.062h0.154c0.206,0 0.312,0.473 0.312,1.405c0.572,1.318 1.957,2.077 4.154,2.284V41.425z" id="path_4"/><path fill="#000001" d="M40.219,10.32h1.543c1.872,0 2.809,0.698 2.809,2.103c-1.211,3.275 -2.682,5.013 -4.413,5.213l-2.043,0.272c-0.326,0 -0.459,-0.093 -0.413,-0.272c1.651,-0.873 3.195,-1.911 4.626,-3.103c-0.505,-0.472 -1.065,-0.705 -1.677,-0.705h-0.432l-1.678,0.14l-0.133,-0.14v-0.273C39.2,11.398 39.806,10.32 40.219,10.32z" id="path_5"/><path fill="#213e95" d="M28.537,41.438c-0.141,0.014 -0.287,0.02 -0.426,0.02h-0.786c-1.218,0 -2.05,-0.1 -2.497,-0.313c-0.905,3.502 -1.963,5.645 -3.175,6.431c-1.212,0.784 -3.947,1.45 -8.208,1.997h-0.312c-0.939,-0.106 -1.405,-0.26 -1.405,-0.467c0,-0.313 0.779,-0.678 2.337,-1.092c6.137,-2.809 9.206,-4.839 9.206,-6.084c0,-0.52 -0.725,-1.717 -2.183,-3.588c-0.313,-0.525 -0.466,-1.198 -0.466,-2.029v-1.558c0,-0.786 0.153,-1.198 0.466,-1.252c1.351,2.069 3.641,3.222 6.863,3.468c0.2,0 0.393,0 0.586,-0.014V41.438z" id="path_6"/><path fill="#f06022" d="M24.928,54.817l0.16,0.141v0.426c-0.806,1.73 -1.931,2.942 -3.375,3.647c-4.473,2.43 -6.956,3.647 -7.448,3.647c-0.18,0 -0.273,-0.146 -0.273,-0.432c0.426,-1.65 1.365,-2.77 2.81,-3.355l7.994,-4.074H24.928z" id="path_7"/><path fill="#f06022" d="M23.817,51.31c0.187,0 0.273,0.134 0.273,0.406c-0.519,1.512 -2.057,2.869 -4.619,4.081l-5.911,3.234l-0.134,-0.14v-0.152c0.559,-1.977 1.451,-3.195 2.669,-3.648l6.597,-3.375L23.817,51.31z" id="path_8"/></svg>