<svg id="vector" xmlns="http://www.w3.org/2000/svg" width="75" height="67" viewBox="0 0 83 73"><path fill="#213e95" d="M72.118,23.963c0.313,0 0.626,1.045 0.938,3.122l1.405,3.122l-0.626,3.587l0.467,8.74v1.397c-0.207,3.569 -0.726,5.645 -1.559,6.245l-0.153,-0.154l0.153,-2.343c0,-2.104 -0.679,-8.813 -2.03,-20.123C71.367,25.161 71.832,23.963 72.118,23.963z" id="path_0"/><path fill="#213e95" d="M76.778,14.837c0.159,-0.094 0.206,0.054 0.139,0.432c-0.885,2.077 -2.242,3.529 -4.072,4.347l-6.73,3.376c-0.285,-0.08 -0.339,-0.313 -0.159,-0.706c0.897,-1.73 1.511,-2.755 1.837,-3.082L76.778,14.837z" id="path_1"/><path fill="#000001" d="M48.894,45.71c0.394,0.026 0.793,0.039 1.192,0.039h0.466l1.95,-0.466c-0.467,-0.871 -0.698,-1.478 -0.698,-1.817c0,-4.992 1.61,-7.488 4.832,-7.488l1.252,-0.153c1.637,0.261 3.721,1.245 6.237,2.962l0.159,0.626l-0.159,0.153h-0.62c-1.198,-0.833 -2.55,-1.244 -4.061,-1.244c-2.31,0 -4.233,0.672 -5.771,2.022v0.16c1.352,2.184 3.848,3.275 7.488,3.275c2.863,-1.039 4.733,-1.558 5.618,-1.558c-0.493,2.908 -1.431,4.366 -2.809,4.366c-6.164,2.39 -11.051,3.589 -14.664,3.589h-0.414V45.71z" id="path_2"/><path fill="#000001" d="M56.596,22.817h1.545c1.87,0 2.809,0.698 2.809,2.104c-1.212,3.275 -2.683,5.013 -4.413,5.212l-2.043,0.273c-0.327,0 -0.46,-0.093 -0.414,-0.273c1.652,-0.872 3.196,-1.91 4.627,-3.101c-0.506,-0.474 -1.064,-0.706 -1.678,-0.706h-0.433l-1.678,0.14l-0.133,-0.14v-0.273C55.577,23.896 56.184,22.817 56.596,22.817z" id="path_3"/><path fill="#DD2C00" d="M41.412,32.43c0.533,0 1.783,0.626 3.747,1.87c0,0.779 -0.625,2.03 -1.876,3.749c-2.496,-0.806 -3.741,-1.539 -3.741,-2.185C39.608,35.279 40.228,34.134 41.412,32.43z" id="path_4"/><path fill="#DD2C00" d="M35.734,45.73c1.111,0.013 1.797,-0.008 2.07,-0.061c2.343,-0.712 3.94,-2.23 4.799,-4.54c0.127,-0.446 0.387,-0.499 0.779,-0.16c0.207,0.18 0.365,0.913 0.466,2.185c1.418,1.91 3.188,2.769 5.305,2.576h0.413v4.446h-0.099c-3.315,-0.154 -5.759,-1.665 -7.337,-4.526h-0.152c-1.105,2.329 -2.563,3.76 -4.367,4.292c-0.545,0.154 -1.171,0.234 -1.877,0.234V45.73z" id="path_5"/><path fill="#DD2C00" d="M47.669,21.626c0.16,-0.094 0.207,0.053 0.141,0.434c-0.886,2.076 -2.243,3.527 -4.074,4.347l-6.729,3.374c-0.287,-0.079 -0.339,-0.313 -0.16,-0.705c0.899,-1.731 1.512,-2.756 1.837,-3.083L47.669,21.626z" id="path_6"/><path fill="#213e95" d="M35.774,50.177c-3.028,0.179 -5.232,-1.22 -6.61,-4.195c-0.665,-1.104 -1.285,-8.553 -1.87,-22.345v-0.313c0.387,-2.291 0.959,-3.436 1.711,-3.436l0.785,-0.152c0.958,0 2.417,0.313 4.367,0.932v0.313c-0.107,0.313 -0.42,0.473 -0.938,0.473h-2.65c-0.546,0 -1.064,0.306 -1.563,0.932c0.485,11.976 1.191,18.911 2.129,20.809c0.933,1.897 2.483,2.742 4.641,2.537V50.177z" id="path_7"/><path fill="#DD2C00" d="M15.998,52.573c0.532,0 1.777,0.625 3.741,1.876c0,0.779 -0.619,2.024 -1.871,3.741c-2.495,-0.806 -3.74,-1.531 -3.74,-2.184C14.188,55.421 14.813,54.275 15.998,52.573z" id="path_8"/><path fill="#DD2C00" d="M12.251,45.73c4.086,0.038 6.37,-0.726 6.869,-2.304c0,-0.546 -0.52,-1.897 -1.564,-4.055l0.473,-4.054h0.306c1.358,2.337 2.03,4.681 2.03,7.017v1.404c0,0.938 -0.226,1.924 -0.672,2.956c-0.446,1.031 -1.139,1.903 -2.063,2.602c-0.932,0.706 -2.722,0.998 -5.378,0.88V45.73z" id="path_9"/><path fill="#f06022" d="M24.112,24.688l0.159,0.14v0.426c-0.812,1.731 -1.937,2.942 -3.374,3.648c-4.474,2.429 -6.956,3.646 -7.449,3.646c-0.187,0 -0.279,-0.146 -0.279,-0.432c0.434,-1.651 1.371,-2.77 2.809,-3.355l8.001,-4.073H24.112z" id="path_10"/><path fill="#f06022" d="M23,21.181c0.181,0 0.273,0.133 0.273,0.405c-0.52,1.512 -2.057,2.87 -4.62,4.081l-5.911,3.235l-0.133,-0.141v-0.153c0.56,-1.977 1.445,-3.195 2.67,-3.647l6.59,-3.375L23,21.181z" id="path_11"/><path fill="#000001" d="M14.533,50.177c-3.028,0.179 -5.231,-1.22 -6.609,-4.195c-0.665,-1.104 -1.285,-8.553 -1.87,-22.345v-0.313c0.386,-2.291 0.958,-3.436 1.71,-3.436l0.786,-0.152c0.957,0 2.416,0.313 4.366,0.932v0.313c-0.107,0.313 -0.42,0.473 -0.938,0.473h-2.65c-0.546,0 -1.064,0.306 -1.563,0.932c0.485,11.976 1.191,18.911 2.13,20.809c0.932,1.897 2.483,2.742 4.64,2.537V50.177z" id="path_12"/></svg>