<svg id="vector" xmlns="http://www.w3.org/2000/svg" width="75" height="67" viewBox="0 0 83 73"><path fill="#DD2C00" d="M66.978,31.127h0.271c0.92,0.203 1.907,0.736 2.965,1.617v0.131c-0.606,1.844 -1.144,2.828 -1.614,2.967c-1.373,-0.271 -2.402,-0.719 -3.099,-1.346v-0.139C65.499,33.301 65.993,32.225 66.978,31.127z" id="path_0"/><path fill="#DD2C00" d="M71.966,29.916h0.133c0.918,0.131 1.953,0.758 3.098,1.885v0.133l-1.614,2.826c-2.156,-0.695 -3.236,-1.275 -3.236,-1.746C71.04,30.943 71.581,29.916 71.966,29.916z" id="path_1"/><path fill="#DD2C00" d="M65.782,45.151c3.527,0.033 5.5,-0.627 5.93,-1.989c0,-0.472 -0.447,-1.638 -1.35,-3.5l0.408,-3.5h0.264c1.174,2.019 1.754,4.041 1.754,6.06v1.213c0,0.811 -0.195,1.66 -0.58,2.553c-0.387,0.889 -0.984,1.643 -1.783,2.246c-0.805,0.608 -2.35,0.861 -4.643,0.758V45.151z" id="path_2"/><path fill="#DD2C00" d="M74.315,22.672c0.139,-0.08 0.18,0.047 0.121,0.375c-0.765,1.793 -1.938,3.047 -3.519,3.754l-5.812,2.912c-0.246,-0.068 -0.293,-0.27 -0.137,-0.609c0.775,-1.492 1.305,-2.379 1.586,-2.66L74.315,22.672z" id="path_3"/><path fill="#000001" d="M57.31,27.57c1.892,0.941 2.834,1.752 2.834,2.426c-0.901,1.775 -1.438,2.672 -1.621,2.695h-0.27c-1.381,-0.695 -2.23,-1.322 -2.559,-1.885C56.011,29.783 56.55,28.709 57.31,27.57z" id="path_4"/><path fill="#000001" d="M66.419,49.008c-2.311,-0.153 -4.408,-1.42 -6.293,-3.786h-0.139c-0.805,4.668 -2.604,7 -5.385,7.006h-0.408c-1.207,-0.006 -2.379,-1.08 -3.5,-3.236c-0.896,-3.027 -1.346,-5.322 -1.346,-6.867v-1.08c0,-0.674 0.133,-1.035 0.401,-1.076c0.379,0.201 0.834,1.674 1.356,4.42c0.521,2.742 1.599,4.053 3.226,3.932c3.144,-0.518 4.805,-2.315 4.981,-5.391l-1.213,-4.172v-1.484c0.047,-1.798 0.226,-2.694 0.541,-2.694c0.178,0.402 0.314,0.811 0.402,1.213l1.885,5.926c1.482,2.402 3.316,3.541 5.488,3.402v3.889H66.419z" id="path_5"/><path fill="#000001" d="M56.183,19.357h1.334c1.615,0 2.426,0.604 2.426,1.816c-1.047,2.826 -2.315,4.328 -3.811,4.5l-1.766,0.234c-0.281,0 -0.396,-0.08 -0.355,-0.234c1.426,-0.754 2.758,-1.65 3.994,-2.678c-0.436,-0.41 -0.92,-0.609 -1.449,-0.609h-0.373l-1.447,0.119l-0.114,-0.119V22.15C55.304,20.287 55.827,19.357 56.183,19.357z" id="path_6"/><path fill="#DD2C00" d="M33.751,44.312h0.695h0.264h0.678c2.443,-0.178 3.925,-0.739 4.443,-1.684c0,-0.742 -0.85,-2.76 -2.559,-6.064l-0.27,-1.074c-0.293,-1.414 -0.281,-2.713 0.035,-3.891c0.311,-1.18 0.93,-1.996 1.853,-2.443c2.131,-1.438 6.216,-3.816 12.259,-7.139l0.131,0.139v0.264c-1.299,2.047 -2.287,3.932 -2.961,5.662h-0.271l-0.137,-0.672v-0.68l0.137,-0.133v-0.131h-0.137c-5.007,2.891 -8.375,5.006 -10.104,6.328v0.137c1.893,3.816 2.92,6.73 3.104,8.753c0,1.438 -0.494,2.967 -1.482,4.58c-0.941,1.26 -2.828,1.887 -5.662,1.887h-0.016V44.312z" id="path_7"/><path fill="#DD2C00" d="M45.118,48.078c0.139,-0.076 0.18,0.045 0.121,0.373c-0.764,1.793 -1.937,3.045 -3.518,3.752l-5.811,2.914c-0.246,-0.068 -0.293,-0.271 -0.137,-0.604c0.775,-1.494 1.305,-2.379 1.584,-2.66L45.118,48.078z" id="path_8"/><path fill="#008046" d="M33.917,48.164c-0.121,0.01 -0.248,0.017 -0.367,0.017h-0.68c-1.051,0 -1.77,-0.084 -2.154,-0.271c-0.781,3.022 -1.695,4.875 -2.742,5.553c-1.045,0.679 -3.408,1.252 -7.086,1.726h-0.27c-0.811,-0.092 -1.215,-0.226 -1.215,-0.402c0,-0.271 0.674,-0.586 2.018,-0.943c5.301,-2.426 7.949,-4.178 7.949,-5.252c0,-0.449 -0.625,-1.484 -1.885,-3.098c-0.27,-0.455 -0.402,-1.035 -0.402,-1.754v-1.346c0,-0.679 0.133,-1.035 0.402,-1.08c1.166,1.787 3.145,2.781 5.926,2.994c0.172,0 0.34,0 0.506,-0.013V48.164z" id="path_9"/><path fill="#008046" d="M31.071,31.916c0.139,-0.082 0.18,0.045 0.121,0.373c-0.764,1.793 -1.938,3.047 -3.518,3.752l-5.811,2.914c-0.246,-0.067 -0.293,-0.271 -0.137,-0.606c0.775,-1.497 1.305,-2.382 1.586,-2.663L31.071,31.916z" id="path_10"/><path fill="#000001" d="M10.434,31.432c1.053,0.316 2.133,0.988 3.23,2.023v0.133c-1.006,1.775 -1.592,2.672 -1.748,2.695h-0.408c-0.758,-0.115 -1.568,-0.604 -2.424,-1.482v-0.133C9.173,33.611 9.623,32.535 10.434,31.432z" id="path_11"/><path fill="#000001" d="M15.548,31.701c0.988,0.225 1.977,0.811 2.967,1.754v0.133c0,0.494 -0.541,1.391 -1.617,2.695h-0.403c-0.631,0 -1.436,-0.494 -2.424,-1.482C14.317,33.41 14.813,32.375 15.548,31.701z" id="path_12"/><path fill="#000001" d="M17.755,38.222l0.139,0.401c-0.184,0.765 -0.99,1.66 -2.426,2.694c1.436,1.166 2.154,2.873 2.154,5.121v0.134c0,3.684 -1.527,5.521 -4.58,5.521c-2.426,-0.471 -3.639,-1.684 -3.639,-3.637v-0.133c0.092,-1.684 0.766,-3.482 2.023,-5.391c-1.166,-0.357 -1.752,-0.853 -1.752,-1.482c0,-1.684 0.131,-2.715 0.402,-3.1c1.211,0.34 2.563,1.012 4.039,2.022h0.139L17.755,38.222L17.755,38.222zM12.501,43.604c-1.074,1.08 -1.613,1.847 -1.613,2.293c0,1.392 0.986,2.201 2.965,2.427c1.029,-0.14 1.932,-0.494 2.689,-1.08C15.669,45.738 14.323,44.531 12.501,43.604z" id="path_13"/><path fill="#f06022" d="M14.979,20.057c1.029,0 1.639,0.684 1.818,2.053v0.373c-0.189,2.287 -0.955,3.783 -2.289,4.479c-2.32,1.459 -4.43,2.189 -6.316,2.189c-0.068,-0.012 -0.131,-0.029 -0.201,-0.053c-0.068,-0.021 -0.119,-0.057 -0.16,-0.104c-0.039,-0.039 -0.035,-0.068 0.012,-0.078c0.098,-0.225 1.793,-1.123 5.08,-2.68v-0.121c-0.885,-0.557 -1.326,-1.328 -1.326,-2.305C12.123,21.305 13.25,20.057 14.979,20.057L14.979,20.057zM12.807,22.598v0.115c0,0.834 0.57,1.322 1.701,1.465h0.352c0.432,0 0.672,-0.121 0.723,-0.367c0,-1.133 -0.604,-1.701 -1.814,-1.701C13.128,22.254 12.807,22.42 12.807,22.598z" id="path_14"/><path fill="#f06022" d="M12.317,17.867c0.26,-0.125 0.379,-0.039 0.369,0.254c-1.301,1.436 -2.322,2.799 -3.064,4.092c-0.213,0.506 -0.334,0.92 -0.363,1.254c-0.027,0.332 0.059,0.689 0.266,1.068h0.254c0.096,-0.564 0.299,-0.846 0.604,-0.846c0.361,0.162 0.563,0.322 0.604,0.488v0.236c0.021,1.283 -0.34,2.051 -1.094,2.311H9.29c-0.809,-0.162 -1.213,-1.092 -1.213,-2.799C8.076,21.852 9.489,19.834 12.317,17.867z" id="path_15"/></svg>