<svg id="vector" xmlns="http://www.w3.org/2000/svg" width="75" height="67" viewBox="0 0 83 73"><path fill="#213e95" d="M66.512,32.098h0.313c1.064,0.232 2.211,0.852 3.436,1.869v0.154c-0.705,2.137 -1.324,3.275 -1.871,3.434c-1.59,-0.313 -2.781,-0.83 -3.588,-1.557v-0.16C64.801,34.613 65.373,33.369 66.512,32.098z" id="path_0"/><path fill="#213e95" d="M72.289,30.691h0.152c1.066,0.154 2.266,0.881 3.59,2.186v0.152l-1.871,3.273c-2.496,-0.805 -3.748,-1.477 -3.748,-2.023C71.217,31.885 71.844,30.691 72.289,30.691z" id="path_1"/><path fill="#213e95" d="M65.127,48.338c4.088,0.041 6.371,-0.725 6.869,-2.303c0,-0.545 -0.518,-1.896 -1.563,-4.055l0.471,-4.053h0.307c1.357,2.336 2.029,4.68 2.029,7.016v1.406c0,0.938 -0.225,1.922 -0.672,2.955c-0.445,1.031 -1.137,1.902 -2.063,2.602c-0.932,0.707 -2.723,0.998 -5.379,0.879V48.338z" id="path_2"/><path fill="#213e95" d="M75.012,22.305c0.16,-0.092 0.207,0.055 0.141,0.434c-0.887,2.076 -2.244,3.527 -4.074,4.346l-6.73,3.375c-0.285,-0.078 -0.338,-0.313 -0.16,-0.705c0.9,-1.73 1.512,-2.756 1.838,-3.082L75.012,22.305z" id="path_3"/><path fill="#000001" d="M65.459,52.785c-3.027,0.18 -5.23,-1.219 -6.609,-4.193c-0.664,-1.105 -1.283,-8.555 -1.869,-22.346v-0.313c0.385,-2.291 0.957,-3.436 1.709,-3.436l0.787,-0.152c0.957,0 2.416,0.313 4.365,0.932v0.313c-0.105,0.313 -0.42,0.473 -0.938,0.473h-2.65c-0.545,0 -1.064,0.307 -1.564,0.932c0.486,11.975 1.191,18.91 2.131,20.809c0.932,1.896 2.482,2.742 4.639,2.535V52.785z" id="path_4"/><path fill="#000001" d="M59.689,13.039h1.543c1.871,0 2.811,0.699 2.811,2.104c-1.213,3.275 -2.684,5.014 -4.414,5.213l-2.043,0.273c-0.326,0 -0.461,-0.094 -0.414,-0.273c1.652,-0.873 3.195,-1.91 4.627,-3.104c-0.506,-0.471 -1.064,-0.705 -1.678,-0.705h-0.432l-1.678,0.141l-0.133,-0.141v-0.271C58.67,14.117 59.275,13.039 59.689,13.039z" id="path_5"/><path fill="#000001" d="M45.396,32.098h0.313c1.066,0.232 2.211,0.852 3.436,1.869v0.154c-0.705,2.137 -1.324,3.275 -1.871,3.434c-1.59,-0.313 -2.781,-0.83 -3.588,-1.557v-0.16C43.686,34.613 44.26,33.369 45.396,32.098z" id="path_6"/><path fill="#000001" d="M51.176,30.691h0.152c1.064,0.154 2.264,0.881 3.588,2.186v0.152l-1.871,3.273c-2.496,-0.805 -3.746,-1.477 -3.746,-2.023C50.104,31.885 50.729,30.691 51.176,30.691z" id="path_7"/><path fill="#000001" d="M44.012,48.338c4.088,0.041 6.371,-0.725 6.871,-2.303c0,-0.545 -0.52,-1.896 -1.564,-4.055l0.473,-4.053h0.305c1.359,2.336 2.031,4.68 2.031,7.016v1.406c0,0.938 -0.227,1.922 -0.672,2.955c-0.447,1.031 -1.139,1.902 -2.064,2.602c-0.932,0.707 -2.723,0.998 -5.379,0.879V48.338z" id="path_8"/><path fill="#000001" d="M52.514,19.438c1.596,0 2.396,0.984 2.396,2.947c0,3.129 -2.67,5.799 -8.016,7.996c-0.766,0.232 -0.857,-0.047 -0.271,-0.84c0.146,-0.301 1.404,-1.238 3.779,-2.809v-0.135c-1.023,-0.418 -1.537,-1.311 -1.537,-2.674c0.678,-2.99 1.758,-4.486 3.234,-4.486H52.514L52.514,19.438zM50.129,22.811c0,0.832 0.707,1.346 2.111,1.545h0.273c0.518,0 0.852,-0.193 0.99,-0.566c0,-0.846 -0.611,-1.504 -1.83,-1.969C51.143,21.82 50.629,22.152 50.129,22.811z" id="path_9"/><path fill="#DD2C00" d="M44.027,52.785l-1.758,-0.021c-0.972,4.281 -3.548,6.445 -7.722,6.498c-2.237,0.1 -3.354,0.061 -3.354,-0.121c0.206,-0.391 1.704,-1.145 4.486,-2.262c2.862,-1.816 4.586,-2.988 5.186,-3.508l0.16,-0.467l-2.729,-0.432c-1.991,-0.52 -3.108,-1.518 -3.355,-3.002v-0.314c0,-2.521 0.619,-4.133 1.871,-4.838l0.938,-0.152c1.844,0 3.349,1.283 4.52,3.859c0.744,0.26 1.332,0.387 1.758,0.373V52.785z" id="path_10"/><path fill="#DD2C00" d="M36.792,31.332h1.544c1.87,0 2.81,0.699 2.81,2.104c-1.213,3.275 -2.683,5.012 -4.414,5.213l-2.043,0.271c-0.327,0 -0.459,-0.094 -0.413,-0.271c1.65,-0.873 3.194,-1.912 4.625,-3.104c-0.506,-0.473 -1.064,-0.705 -1.677,-0.705h-0.433l-1.678,0.139L34.98,34.84v-0.273C35.772,32.41 36.378,31.332 36.792,31.332z" id="path_11"/><path fill="#000001" d="M16.641,43.426h0.313c1.458,0.334 2.755,1.119 3.901,2.336v0.314c-0.101,0.832 -0.726,1.924 -1.87,3.273c-2.703,-0.904 -4.054,-1.691 -4.054,-2.336C15.577,45.143 16.149,43.945 16.641,43.426z" id="path_12"/><path fill="#000001" d="M24.916,40.305h0.306c0.366,0 1.251,2.342 2.656,7.021l0.153,0.619c0,3.668 -0.885,6.324 -2.649,7.963c-2.497,2.701 -5.458,4.053 -8.894,4.053c-2.809,-0.627 -4.626,-1.244 -5.458,-1.871c-2.71,-2.316 -4.062,-5.178 -4.062,-8.58c0,-2.861 1.252,-5.564 3.749,-8.113l0.153,-0.152h0.313l0.313,0.305c0,0.268 -0.727,1.404 -2.184,3.436c-0.419,0.725 -0.679,1.717 -0.778,2.961c0,2.424 1.244,4.5 3.74,6.244c2.443,0.939 4.107,1.404 4.992,1.404c2.237,0 4.886,-0.99 7.955,-2.961c1.251,-1.1 1.877,-1.771 1.877,-2.031l-2.183,-6.084l-0.16,-1.092L24.916,40.305z" id="path_13"/><path fill="#000001" d="M22.333,27.338c0.16,-0.094 0.207,0.053 0.141,0.434c-0.885,2.076 -2.244,3.527 -4.074,4.346l-6.73,3.375c-0.287,-0.08 -0.339,-0.313 -0.16,-0.705c0.899,-1.732 1.512,-2.756 1.837,-3.084L22.333,27.338z" id="path_14"/></svg>