<svg id="vector" xmlns="http://www.w3.org/2000/svg" width="75" height="67" viewBox="0 0 83 73"><path fill="#213e95" d="M59.22,19.616c1.445,0 2.889,0.727 4.347,2.164c0.146,0.252 0.087,0.445 -0.166,0.586c-0.254,0.146 -0.487,0.113 -0.692,-0.094c-0.626,-0.559 -1.505,-0.838 -2.649,-0.838h-0.486c-0.486,0 -1.044,0.199 -1.677,0.598c0,1.172 1.404,1.898 4.207,2.172l2.79,-1.092l0.12,0.365c0,1.318 -1.61,2.482 -4.839,3.516l-4.467,2.529l-0.466,0.119c-0.179,0.039 -0.306,-0.039 -0.373,-0.232c0,-0.705 1.011,-1.672 3.029,-2.91v-0.111c-0.979,-0.533 -1.465,-1.299 -1.465,-2.305C56.883,21.108 57.815,19.616 59.22,19.616z" id="path_0"/><path fill="#213e95" d="M60.172,31.198c0.313,0 0.625,1.045 0.938,3.123l1.405,3.121l-0.626,3.588l0.466,8.74v1.398c-0.207,3.568 -0.726,5.645 -1.558,6.244l-0.153,-0.154l0.153,-2.342c0,-2.104 -0.672,-8.814 -2.03,-20.123C59.419,32.397 59.886,31.198 60.172,31.198z" id="path_1"/><path fill="#213e95" d="M64.152,8.44c0.16,-0.094 0.207,0.054 0.141,0.434c-0.885,2.076 -2.244,3.527 -4.074,4.346l-6.73,3.375c-0.287,-0.08 -0.339,-0.313 -0.16,-0.705c0.899,-1.73 1.511,-2.756 1.837,-3.083L64.152,8.44z" id="path_2"/><path fill="#0992d1" d="M49.642,53.665c0.532,0 1.777,0.625 3.741,1.877c0,0.779 -0.619,2.023 -1.871,3.74c-2.496,-0.805 -3.741,-1.531 -3.741,-2.184C47.831,56.512 48.457,55.368 49.642,53.665z" id="path_3"/><path fill="#0992d1" d="M45.893,46.823c4.088,0.039 6.371,-0.727 6.871,-2.305c0,-0.545 -0.52,-1.896 -1.565,-4.053l0.473,-4.055h0.306c1.358,2.336 2.03,4.68 2.03,7.016v1.404c0,0.939 -0.226,1.924 -0.672,2.955c-0.447,1.031 -1.139,1.904 -2.064,2.604c-0.932,0.705 -2.723,0.998 -5.379,0.879V46.823z" id="path_4"/><path fill="#0992d1" d="M50.087,25.155h1.544c1.87,0 2.81,0.699 2.81,2.104c-1.212,3.275 -2.683,5.012 -4.413,5.213l-2.044,0.271c-0.327,0 -0.459,-0.092 -0.413,-0.271c1.651,-0.873 3.195,-1.912 4.626,-3.104c-0.505,-0.473 -1.065,-0.705 -1.677,-0.705h-0.433l-1.677,0.141l-0.133,-0.141v-0.273C49.069,26.233 49.674,25.155 50.087,25.155z" id="path_5"/><path fill="#008046" d="M32.521,29.254h0.153l3.281,1.711v0.313c0,0.379 -0.626,1.578 -1.877,3.588c-1.911,-0.545 -3.002,-1.117 -3.275,-1.717L32.521,29.254z" id="path_6"/><path fill="#008046" d="M38.292,28.317c1.378,0.725 2.47,1.457 3.275,2.184c-0.233,1.117 -0.958,2.316 -2.183,3.588H39.23c-1.431,-0.6 -2.423,-1.271 -2.969,-2.031V31.75C37.201,29.461 37.879,28.317 38.292,28.317z" id="path_7"/><path fill="#008046" d="M36.482,55.815c-0.12,-0.381 -1.784,-0.68 -4.993,-0.898c-0.533,0 -0.792,-0.207 -0.785,-0.627v-1.717c0,-2.391 0.572,-4 1.717,-4.832l1.564,-0.779v-0.16c-0.392,-0.479 -0.759,-1.57 -1.091,-3.275c-0.12,-2.236 0.187,-3.801 0.925,-4.699c0.732,-0.898 1.83,-1.412 3.281,-1.537h0.313c2.303,0.453 3.615,1.363 3.941,2.729c0.326,1.365 0.313,2.689 -0.04,3.975l-0.932,2.496l3.275,0.273l2.789,-0.02v4.465h-3.881c-2.004,-0.025 -4.241,-0.818 -6.709,-2.377c-0.713,0 -1.811,0.467 -3.275,1.406v0.152c3.641,0 5.511,0.832 5.611,2.496v0.16c-0.086,0.959 -0.273,1.885 -0.546,2.77H36.482L36.482,55.815zM34.451,42.749c1.512,1.869 2.603,2.809 3.275,2.809c1.564,-0.393 2.343,-0.805 2.343,-1.252c-0.652,-1.557 -1.897,-2.336 -3.748,-2.336h-0.154C35.023,42.122 34.451,42.381 34.451,42.749z" id="path_8"/><path fill="#000001" d="M38.039,55.381c-0.626,2.17 -2.522,4.566 -5.698,7.176c-1.91,1.359 -4.147,2.031 -6.703,2.031c-1.432,-0.326 -2.456,-0.652 -3.075,-0.973c-0.619,-0.326 -1.358,-1.045 -2.23,-2.15c-1.564,-2.076 -2.343,-4 -2.343,-5.77c0,-4.215 1.352,-7.59 4.06,-10.139c0.48,-0.34 0.686,-0.287 0.619,0.152c0,0.381 -0.779,1.838 -2.336,4.367c-0.626,1.264 -0.938,2.463 -0.938,3.588c0,1.617 1.146,3.381 3.435,5.305c1.625,0.898 3.388,1.266 5.305,1.092c2.256,0 5.065,-1.559 8.421,-4.68H38.039z" id="path_9"/><path fill="#008046" d="M34.041,14.35c1.251,2.131 1.877,4.215 1.877,6.238c-0.546,3.848 -1.225,5.771 -2.03,5.771l-0.153,-0.152v-0.154l0.307,-2.029v-0.16c0,-1.246 -0.52,-3.115 -1.559,-5.611V17.94C33.002,15.543 33.521,14.35 34.041,14.35z" id="path_10"/></svg>