<svg id="vector" xmlns="http://www.w3.org/2000/svg" width="75" height="67" viewBox="0 0 83 73"><path fill="#213e95" d="M68.393,49.02h0.26c0.877,0.191 1.82,0.707 2.83,1.547v0.125c-0.582,1.756 -1.092,2.699 -1.541,2.83c-1.311,-0.258 -2.293,-0.686 -2.957,-1.289v-0.125C66.985,51.098 67.458,50.072 68.393,49.02z" id="path_0"/><path fill="#213e95" d="M73.155,47.863h0.127c0.877,0.131 1.865,0.729 2.955,1.799v0.129l-1.541,2.699c-2.057,-0.664 -3.088,-1.223 -3.088,-1.672C72.272,48.85 72.788,47.863 73.155,47.863z" id="path_1"/><path fill="#213e95" d="M67.252,43.141c3.369,0.031 5.25,-0.598 5.662,-1.898c0,-0.449 -0.428,-1.564 -1.289,-3.34l0.391,-3.34h0.25c1.119,1.924 1.674,3.855 1.674,5.779V41.5c0,0.773 -0.188,1.584 -0.555,2.436c-0.367,0.85 -0.938,1.568 -1.699,2.145c-0.77,0.58 -2.242,0.822 -4.434,0.723V43.141z" id="path_2"/><path fill="#213e95" d="M76.897,25.705c0.131,-0.078 0.17,0.043 0.115,0.355c-0.73,1.711 -1.85,2.908 -3.357,3.582l-5.545,2.781c-0.236,-0.066 -0.279,-0.258 -0.131,-0.582c0.738,-1.426 1.244,-2.271 1.514,-2.539L76.897,25.705z" id="path_3"/><path fill="#000001" d="M67.797,46.803c-0.082,0 -0.17,0 -0.252,0h-1.158c-1.156,0 -2.49,-0.729 -3.986,-2.182c-2.572,1.408 -5.348,2.139 -8.326,2.182v-3.646c1.557,0.104 3.561,-0.221 6.012,-0.982v-0.125c-1.18,-0.773 -2.293,-1.158 -3.342,-1.158l-1.031,0.127l-0.256,-0.643c0.344,-2.314 1.332,-3.471 2.955,-3.471l2.059,-0.127c3.256,0.385 4.885,1.113 4.885,2.184v0.516l-0.773,2.572c0.627,0.756 1.695,1.123 3.215,1.092V46.803z" id="path_4"/><path fill="#000001" d="M60.618,25.66h1.271c1.541,0 2.316,0.576 2.316,1.734c-1,2.697 -2.211,4.129 -3.637,4.293l-1.684,0.227c-0.27,0 -0.379,-0.078 -0.34,-0.227c1.359,-0.717 2.633,-1.574 3.811,-2.555c-0.418,-0.391 -0.877,-0.582 -1.383,-0.582h-0.355l-1.381,0.115l-0.109,-0.115v-0.225C59.778,26.549 60.278,25.66 60.618,25.66z" id="path_5"/><path fill="#DD2C00" d="M45.02,43.141c0.023,0 0.051,0 0.078,0c2.055,-0.127 3.234,-1.049 3.537,-2.766c-0.775,-5.139 -1.158,-8.742 -1.158,-10.799c0,-0.789 0.344,-1.82 1.031,-3.082l0.127,0.127l0.258,0.256l-0.133,0.9c0.109,5.775 0.84,10.25 2.188,13.432c0.518,1.158 1.779,1.805 3.791,1.932v3.662c-2.766,-0.043 -4.623,-1.496 -5.59,-4.371h-0.131c-0.889,2.881 -2.223,4.338 -3.998,4.371V43.141z" id="path_6"/><path fill="#DD2C00" d="M52.858,19.502c0.131,-0.076 0.168,0.043 0.113,0.355c-0.729,1.713 -1.848,2.908 -3.355,3.582l-5.545,2.781c-0.234,-0.066 -0.279,-0.258 -0.131,-0.582c0.74,-1.426 1.246,-2.27 1.512,-2.539L52.858,19.502z" id="path_7"/><path fill="#000001" d="M33.75,43.141h0.289c0.879,0 1.805,-0.342 2.781,-1.021c0.975,-0.68 1.547,-1.535 1.723,-2.561l0.127,-0.131h0.125c0.152,0 0.367,0.471 0.646,1.414c1.217,1.674 2.936,2.441 5.139,2.314c0.148,0 0.303,-0.006 0.451,-0.016v3.68c-0.148,0.01 -0.303,0.016 -0.451,0.016l-1.799,-0.209c-0.191,1.713 -0.752,2.568 -1.672,2.572h-0.258c-1.713,-0.322 -2.566,-0.92 -2.566,-1.803l0.385,-2.314c-0.303,-0.342 -0.6,-0.51 -0.902,-0.51c-0.965,1.508 -2.303,2.252 -4.018,2.23V43.141z" id="path_8"/><path fill="#000001" d="M40.385,24.723c1.316,0 1.975,0.813 1.975,2.43c0,2.578 -2.201,4.777 -6.604,6.588c-0.631,0.191 -0.709,-0.039 -0.225,-0.691c0.121,-0.248 1.156,-1.021 3.115,-2.314v-0.109c-0.846,-0.346 -1.266,-1.082 -1.266,-2.205c0.557,-2.463 1.447,-3.697 2.664,-3.697H40.385L40.385,24.723zM38.422,27.504c0,0.686 0.58,1.107 1.736,1.271h0.227c0.428,0 0.703,-0.158 0.818,-0.465c0,-0.697 -0.506,-1.24 -1.51,-1.623C39.256,26.688 38.834,26.961 38.422,27.504z" id="path_9"/><path fill="#213e95" d="M34.522,46.803l-1.447,-0.016c-0.801,3.527 -2.924,5.309 -6.361,5.354c-1.844,0.082 -2.766,0.049 -2.766,-0.1c0.17,-0.324 1.404,-0.943 3.697,-1.865c2.357,-1.496 3.779,-2.461 4.273,-2.891l0.131,-0.383l-2.248,-0.355c-1.641,-0.43 -2.561,-1.252 -2.764,-2.475v-0.258c0,-2.078 0.508,-3.406 1.541,-3.988l0.771,-0.125c1.52,0 2.76,1.059 3.725,3.18c0.615,0.215 1.096,0.32 1.447,0.309V46.803z" id="path_10"/><path fill="#213e95" d="M28.561,29.127h1.273c1.539,0 2.314,0.576 2.314,1.732c-0.998,2.699 -2.211,4.131 -3.637,4.295l-1.684,0.225c-0.27,0 -0.379,-0.076 -0.342,-0.225c1.361,-0.719 2.633,-1.574 3.813,-2.557c-0.416,-0.389 -0.877,-0.58 -1.383,-0.58h-0.355l-1.381,0.115l-0.109,-0.115v-0.225C27.721,30.016 28.221,29.127 28.561,29.127z" id="path_11"/><path fill="#000001" d="M13.934,39.092h0.258c1.201,0.275 2.27,0.922 3.213,1.926v0.258c-0.082,0.686 -0.598,1.584 -1.539,2.699c-2.229,-0.746 -3.342,-1.395 -3.342,-1.926C13.057,40.508 13.528,39.52 13.934,39.092z" id="path_12"/><path fill="#000001" d="M20.752,36.52h0.252c0.301,0 1.031,1.932 2.188,5.787l0.127,0.51c0,3.021 -0.73,5.211 -2.186,6.559c-2.055,2.229 -4.496,3.34 -7.326,3.34c-2.314,-0.514 -3.813,-1.025 -4.496,-1.541c-2.234,-1.908 -3.348,-4.266 -3.348,-7.068c0,-2.359 1.031,-4.586 3.09,-6.686l0.125,-0.127h0.26l0.256,0.254c0,0.219 -0.598,1.156 -1.799,2.828c-0.346,0.598 -0.559,1.416 -0.643,2.441c0,1.996 1.025,3.707 3.084,5.145c2.012,0.773 3.383,1.158 4.113,1.158c1.842,0 4.025,-0.818 6.555,-2.443c1.031,-0.902 1.545,-1.457 1.545,-1.672l-1.797,-5.012l-0.133,-0.9L20.752,36.52z" id="path_13"/><path fill="#000001" d="M18.622,25.836c0.133,-0.076 0.17,0.045 0.115,0.357c-0.729,1.711 -1.846,2.906 -3.355,3.582l-5.545,2.779C9.6,32.49 9.557,32.297 9.706,31.973c0.74,-1.424 1.244,-2.27 1.514,-2.539L18.622,25.836z" id="path_14"/></svg>