<svg id="vector" xmlns="http://www.w3.org/2000/svg" width="75" height="67" viewBox="0 0 83 73"><path fill="#213e95" d="M57.584,50.542c0.532,0 1.778,0.625 3.742,1.877c0,0.779 -0.62,2.023 -1.872,3.74c-2.496,-0.804 -3.74,-1.531 -3.74,-2.183C55.774,53.391 56.4,52.245 57.584,50.542z" id="path_0"/><path fill="#213e95" d="M53.836,43.698c4.087,0.04 6.371,-0.725 6.87,-2.303c0,-0.546 -0.519,-1.898 -1.564,-4.055l0.473,-4.053h0.306c1.359,2.336 2.03,4.679 2.03,7.016v1.405c0,0.938 -0.227,1.924 -0.671,2.955c-0.446,1.032 -1.139,1.903 -2.065,2.603c-0.93,0.706 -2.722,0.999 -5.378,0.878V43.698z" id="path_1"/><path fill="#213e95" d="M63.961,22.365c0.16,-0.094 0.206,0.053 0.141,0.432c-0.886,2.077 -2.243,3.529 -4.074,4.347l-6.73,3.375c-0.286,-0.08 -0.339,-0.313 -0.159,-0.706c0.898,-1.73 1.511,-2.755 1.837,-3.081L63.961,22.365z" id="path_2"/><path fill="#DD2C00" d="M54.495,48.145c-0.1,0 -0.205,0 -0.307,0h-1.404c-1.403,0 -3.021,-0.885 -4.838,-2.649c-3.122,1.711 -6.49,2.597 -10.105,2.649v-4.427c1.892,0.127 4.321,-0.266 7.295,-1.191v-0.153c-1.431,-0.938 -2.78,-1.404 -4.052,-1.404l-1.252,0.153l-0.314,-0.779c0.421,-2.808 1.619,-4.213 3.588,-4.213l2.497,-0.153c3.954,0.466 5.932,1.351 5.932,2.649v0.626l-0.939,3.122c0.759,0.918 2.058,1.365 3.9,1.325V48.145z" id="path_3"/><path fill="#DD2C00" d="M45.783,22.484h1.543c1.872,0 2.81,0.699 2.81,2.104c-1.211,3.274 -2.683,5.012 -4.413,5.212l-2.043,0.273c-0.326,0 -0.461,-0.094 -0.414,-0.273c1.652,-0.872 3.196,-1.91 4.628,-3.102c-0.507,-0.473 -1.066,-0.706 -1.679,-0.706h-0.432l-1.679,0.139l-0.133,-0.139v-0.273C44.764,23.562 45.37,22.484 45.783,22.484z" id="path_4"/><path fill="#000001" d="M38.64,48.165c-2.675,-0.18 -5.105,-1.645 -7.289,-4.387h-0.16c-0.932,5.405 -3.015,8.108 -6.236,8.115h-0.472c-1.398,-0.007 -2.756,-1.252 -4.055,-3.749c-1.037,-3.507 -1.559,-6.163 -1.559,-7.955v-1.251c0,-0.779 0.154,-1.198 0.467,-1.245c0.44,0.233 0.965,1.938 1.571,5.119c0.604,3.175 1.851,4.693 3.734,4.553c3.642,-0.599 5.564,-2.683 5.771,-6.244l-1.403,-4.832v-1.717c0.052,-2.084 0.259,-3.122 0.626,-3.122c0.206,0.466 0.364,0.939 0.466,1.404l2.182,6.864c1.719,2.782 3.842,4.1 6.357,3.94V48.165z" id="path_5"/><path fill="#000001" d="M29.695,16.84c1.597,0 2.395,0.984 2.395,2.948c0,3.128 -2.67,5.798 -8.014,7.994c-0.766,0.233 -0.859,-0.046 -0.272,-0.838c0.146,-0.299 1.404,-1.238 3.779,-2.808v-0.134c-1.024,-0.419 -1.537,-1.312 -1.537,-2.676c0.679,-2.989 1.757,-4.486 3.235,-4.486H29.695L29.695,16.84zM27.312,20.215c0,0.832 0.704,1.344 2.108,1.543h0.275c0.519,0 0.85,-0.193 0.99,-0.565c0,-0.845 -0.612,-1.504 -1.831,-1.971C28.322,19.222 27.811,19.556 27.312,20.215z" id="path_6"/></svg>