<svg id="vector" xmlns="http://www.w3.org/2000/svg" width="75" height="67" viewBox="0 0 83 73"><path fill="#000001" d="M59.476,43.33c-0.348,1.764 -1.178,3.168 -2.477,4.213c-1.197,0.857 -3.43,1.691 -6.711,2.496c-6.877,0.439 -10.764,0.074 -11.662,-1.092c-0.957,-1.006 2.41,-1.791 10.105,-2.363c4.027,-0.572 7.15,-1.656 9.359,-3.254c0.025,-0.014 0.053,-0.08 0.08,-0.207c0.025,-0.119 -0.607,-5.006 -1.893,-14.656c0.467,-2.811 0.887,-4.209 1.246,-4.209l2.031,4.68c0,0.727 -0.26,1.818 -0.781,3.275l0.781,8.422C59.595,42.078 59.569,42.977 59.476,43.33z" id="path_0"/><path fill="#000001" d="M56.372,14.6h1.545c1.871,0 2.811,0.699 2.811,2.104c-1.213,3.275 -2.684,5.014 -4.416,5.213l-2.041,0.273c-0.328,0 -0.461,-0.094 -0.414,-0.273c1.65,-0.873 3.195,-1.91 4.627,-3.102c-0.506,-0.473 -1.066,-0.705 -1.678,-0.705h-0.434l-1.676,0.139l-0.133,-0.139v-0.273C55.354,15.68 55.962,14.6 56.372,14.6z" id="path_1"/><path fill="#DD2C00" d="M49.157,49.486c0.531,0.953 0.824,1.512 0.879,1.678l0.072,1.271c-0.014,2.25 -0.313,3.801 -0.91,4.66c-0.602,0.857 -1.359,1.291 -2.283,1.305c-2.006,0 -4.082,-1.611 -6.246,-4.834c-0.371,-0.639 -0.738,-1.471 -1.092,-2.496h-1.555c-0.354,0 -0.688,-0.02 -1.014,-0.059v-4.467c0.48,0.105 0.973,0.152 1.479,0.152h0.627c0.857,-3.328 2.314,-5.824 4.365,-7.488c1.064,-0.832 2.057,-1.244 2.969,-1.244c1.404,0 2.236,1.037 2.496,3.121c0.414,2.092 -0.053,4.268 -1.404,6.531L49.157,49.486L49.157,49.486zM42.233,50.91c1.064,1.879 2.623,2.916 4.682,3.123c1.037,-0.094 1.717,-0.453 2.029,-1.092c-0.094,-1.258 -0.818,-2.023 -2.184,-2.289c-1.371,-0.268 -2.461,-0.359 -3.289,-0.268C42.647,50.479 42.233,50.652 42.233,50.91L42.233,50.91zM40.669,46.078c-0.111,0.348 0.041,0.506 0.475,0.467c1.977,0 3.947,-0.885 5.922,-2.65v-0.158c-0.438,-1.039 -1.01,-1.559 -1.709,-1.559C43.806,41.979 42.247,43.283 40.669,46.078z" id="path_2"/><path fill="#DD2C00" d="M49.642,27.607c0.16,-0.094 0.207,0.053 0.141,0.432c-0.885,2.078 -2.242,3.529 -4.072,4.348l-6.73,3.375c-0.287,-0.08 -0.34,-0.313 -0.16,-0.707c0.898,-1.73 1.512,-2.754 1.838,-3.082L49.642,27.607z" id="path_3"/><path fill="#000001" d="M36.968,50.99c-0.164,0 -0.344,0 -0.523,0H36.29c-1.512,-0.014 -2.969,-0.279 -4.373,-0.797c-1.504,2.602 -3.482,3.898 -5.924,3.898c-2.916,-0.418 -4.375,-1.609 -4.375,-3.586h-0.15c-0.494,1.664 -1.586,3.014 -3.277,4.053c-2.262,0.832 -4.033,1.252 -5.305,1.252l-0.719,0.094V55.59c0.578,-0.479 2.15,-1.59 4.705,-3.334c2.557,-1.738 4.008,-2.828 4.348,-3.275c0.346,-0.439 0.846,-1.91 1.498,-4.406c1.246,-2.076 2.391,-3.121 3.428,-3.121h0.314c1.297,0 3.381,1.404 6.242,4.213c0.832,0.705 2.25,1.018 4.266,0.938V50.99L36.968,50.99zM23.497,46.758c0,1.379 1.092,2.316 3.273,2.809h0.781c1.768,-0.18 2.654,-0.439 2.654,-0.779c-2.057,-1.977 -3.613,-2.961 -4.686,-2.961h-0.154C24.481,45.826 23.856,46.139 23.497,46.758z" id="path_4"/><path fill="#000001" d="M29.974,28.645c0.16,-0.092 0.207,0.055 0.141,0.434c-0.887,2.076 -2.244,3.527 -4.074,4.346l-6.73,3.377c-0.287,-0.08 -0.338,-0.314 -0.16,-0.707c0.9,-1.73 1.512,-2.756 1.838,-3.082L29.974,28.645z" id="path_5"/><path fill="#000001" d="M66.005,24.777c0.313,0 0.625,1.047 0.939,3.123l1.404,3.121l-0.627,3.588l0.467,8.74v1.398c-0.207,3.568 -0.727,5.645 -1.559,6.242l-0.152,-0.152l0.152,-2.344c0,-2.102 -0.678,-8.813 -2.029,-20.121C65.253,25.977 65.72,24.777 66.005,24.777z" id="path_6"/><path fill="#000001" d="M70.665,15.652c0.16,-0.094 0.205,0.053 0.139,0.432c-0.885,2.078 -2.242,3.529 -4.074,4.348l-6.73,3.375c-0.283,-0.08 -0.338,-0.314 -0.158,-0.707c0.898,-1.729 1.51,-2.756 1.838,-3.08L70.665,15.652z" id="path_7"/></svg>