<svg id="vector" xmlns="http://www.w3.org/2000/svg" width="75" height="67" viewBox="0 0 83 73"><path fill="#DD2C00" d="M65.735,50.063h0.312c1.065,0.232 2.21,0.859 3.435,1.879v0.152c-0.704,2.129 -1.324,3.273 -1.87,3.434c-1.589,-0.313 -2.781,-0.832 -3.586,-1.564v-0.152C64.025,52.586 64.597,51.342 65.735,50.063z" id="path_0"/><path fill="#DD2C00" d="M71.512,48.658h0.154c1.064,0.16 2.264,0.885 3.588,2.184v0.16l-1.87,3.275c-2.496,-0.807 -3.748,-1.486 -3.748,-2.031C70.441,49.857 71.067,48.658 71.512,48.658z" id="path_1"/><path fill="#DD2C00" d="M64.351,42.928c4.088,0.039 6.369,-0.727 6.868,-2.305c0,-0.545 -0.519,-1.896 -1.563,-4.053l0.472,-4.055h0.309c1.357,2.338 2.029,4.68 2.029,7.018v1.404c0,0.938 -0.226,1.924 -0.672,2.955c-0.447,1.031 -1.14,1.904 -2.063,2.602c-0.933,0.707 -2.723,1 -5.379,0.879V42.928z" id="path_2"/><path fill="#DD2C00" d="M76.052,21.766c0.16,-0.092 0.206,0.055 0.141,0.434c-0.886,2.076 -2.243,3.527 -4.074,4.346l-6.729,3.375c-0.285,-0.08 -0.34,-0.313 -0.16,-0.705c0.898,-1.73 1.511,-2.756 1.837,-3.082L76.052,21.766z" id="path_3"/><path fill="#0992d1" d="M65.09,47.395c-2.676,-0.18 -5.105,-1.645 -7.29,-4.387h-0.159c-0.933,5.404 -3.016,8.107 -6.237,8.113h-0.472c-1.398,-0.006 -2.757,-1.252 -4.054,-3.748c-1.04,-3.508 -1.559,-6.164 -1.559,-7.955v-1.25c0,-0.779 0.154,-1.199 0.466,-1.244c0.439,0.232 0.966,1.936 1.572,5.117c0.604,3.176 1.851,4.693 3.734,4.555c3.641,-0.6 5.563,-2.684 5.771,-6.244l-1.404,-4.834v-1.717c0.053,-2.084 0.26,-3.121 0.626,-3.121c0.205,0.465 0.365,0.938 0.464,1.404l2.185,6.863c1.718,2.781 3.84,4.1 6.357,3.939V47.395z" id="path_4"/><path fill="#0992d1" d="M54.519,18.611h1.544c1.87,0 2.811,0.699 2.811,2.104c-1.213,3.275 -2.684,5.012 -4.413,5.211l-2.044,0.273c-0.328,0 -0.46,-0.094 -0.413,-0.273c1.651,-0.871 3.196,-1.91 4.625,-3.102c-0.505,-0.473 -1.064,-0.705 -1.677,-0.705h-0.433l-1.678,0.141l-0.133,-0.141v-0.273C53.5,19.689 54.106,18.611 54.519,18.611z" id="path_5"/><path fill="#000001" d="M24.139,42.908c0.393,0.025 0.792,0.039 1.191,0.039h0.467l1.95,-0.467c-0.467,-0.871 -0.698,-1.477 -0.698,-1.816c0,-4.992 1.61,-7.488 4.832,-7.488l1.25,-0.154c1.639,0.26 3.721,1.246 6.238,2.963l0.158,0.627l-0.158,0.152h-0.62c-1.197,-0.832 -2.549,-1.246 -4.06,-1.246c-2.31,0 -4.234,0.674 -5.771,2.023v0.16c1.352,2.184 3.848,3.275 7.488,3.275c2.86,-1.039 4.733,-1.559 5.618,-1.559c-0.493,2.91 -1.432,4.367 -2.81,4.367c-6.165,2.391 -11.05,3.588 -14.663,3.588h-0.414V42.908z" id="path_6"/><path fill="#000001" d="M33.465,17.473c1.597,0 2.396,0.984 2.396,2.949c0,3.129 -2.67,5.797 -8.016,7.994c-0.764,0.232 -0.857,-0.047 -0.272,-0.838c0.146,-0.301 1.404,-1.238 3.781,-2.811v-0.133c-1.026,-0.42 -1.537,-1.311 -1.537,-2.676c0.679,-2.988 1.758,-4.486 3.233,-4.486H33.465L33.465,17.473zM31.081,20.848c0,0.832 0.706,1.344 2.11,1.545h0.273c0.519,0 0.852,-0.193 0.992,-0.566c0,-0.846 -0.614,-1.504 -1.831,-1.971C32.094,19.855 31.581,20.188 31.081,20.848z" id="path_7"/><path fill="#213e95" d="M24.825,47.373l-1.759,-0.02c-0.972,4.281 -3.548,6.443 -7.721,6.498c-2.236,0.098 -3.354,0.059 -3.354,-0.121c0.205,-0.393 1.703,-1.145 4.485,-2.264c2.863,-1.816 4.587,-2.988 5.186,-3.508l0.16,-0.465l-2.729,-0.434c-1.991,-0.52 -3.108,-1.518 -3.356,-3.002v-0.313c0,-2.523 0.62,-4.135 1.87,-4.84l0.94,-0.152c1.843,0 3.349,1.285 4.519,3.859c0.747,0.26 1.332,0.387 1.759,0.375V47.373z" id="path_8"/><path fill="#DD2C00" d="M8.183,21.16c0.314,0 0.626,1.045 0.94,3.123l1.404,3.121L9.9,30.992l0.467,8.74v1.398c-0.207,3.566 -0.726,5.645 -1.559,6.242l-0.152,-0.152l0.152,-2.342c0,-2.105 -0.679,-8.814 -2.03,-20.125C7.432,22.359 7.896,21.16 8.183,21.16z" id="path_9"/><path fill="#213e95" d="M16.748,23.377h1.544c1.87,0 2.809,0.699 2.809,2.104c-1.211,3.275 -2.682,5.012 -4.413,5.213l-2.044,0.271c-0.325,0 -0.458,-0.092 -0.411,-0.271c1.649,-0.873 3.194,-1.91 4.625,-3.102c-0.505,-0.475 -1.064,-0.707 -1.677,-0.707h-0.433l-1.678,0.141l-0.132,-0.141v-0.273C15.729,24.457 16.336,23.377 16.748,23.377z" id="path_10"/></svg>