<svg id="vector" xmlns="http://www.w3.org/2000/svg" width="75" height="67" viewBox="0 0 83 73"><path fill="#000001" d="M70.02,22.66c0.604,0 1.655,0.725 3.174,2.164c0,0.48 -0.578,1.539 -1.734,3.174h-0.288c-0.597,0 -1.513,-0.578 -2.737,-1.734v-0.141C68.434,25.545 68.963,24.395 70.02,22.66z" id="path_0"/><path fill="#000001" d="M75.211,21.941c2.398,1.033 3.604,1.85 3.604,2.453c-0.147,0.455 -0.817,1.465 -2.022,3.025c-1.606,-0.627 -2.763,-1.346 -3.458,-2.164C73.84,23.65 74.467,22.543 75.211,21.941z" id="path_1"/><path fill="#000001" d="M68.814,42.623c-8.001,0.338 -12.306,-0.031 -12.908,-1.113c-0.609,-1.082 2.158,-1.635 8.296,-1.66c1.212,-0.023 1.979,-0.055 2.307,-0.105c4.876,-0.756 7.854,-1.574 8.936,-2.453V37.15l-1.587,-3.752v-0.572c0,-1.924 0.24,-2.885 0.721,-2.885c1.346,2.57 2.018,4.588 2.018,6.053v0.289c0,3.338 -1.68,5.264 -5.045,5.768C70.697,42.279 69.786,42.469 68.814,42.623z" id="path_2"/><path fill="#000001" d="M77.715,12.434c0.146,-0.086 0.189,0.049 0.129,0.398c-0.818,1.92 -2.072,3.26 -3.764,4.016l-6.219,3.119c-0.264,-0.074 -0.313,-0.289 -0.146,-0.652c0.829,-1.6 1.396,-2.545 1.697,-2.848L77.715,12.434z" id="path_3"/><path fill="#008046" d="M47.875,38.645h0.559c1.9,-0.203 3.5,-1.354 4.797,-3.445c0.191,-0.43 0.381,-0.67 0.572,-0.719h0.147l0.431,0.436c-0.061,0.549 -0.154,0.936 -0.289,1.152c0.844,1.537 1.852,2.305 3.025,2.305l0.148,0.143c2.09,-4.613 4.439,-6.92 7.059,-6.92c2.092,0 3.63,0.867 4.613,2.596v0.867c0,5.283 -3.266,7.928 -9.803,7.928l-2.158,-0.143c-0.671,1.82 -1.107,2.738 -1.299,2.738l-0.141,-0.143v-0.146l0.43,-2.449v-0.289c-1.42,-0.793 -2.521,-1.9 -3.313,-3.314c-0.745,2.436 -2.337,3.609 -4.778,3.512V38.645L47.875,38.645zM58.705,38.805h0.288c3.266,0 6.052,-0.48 8.358,-1.439c0,-1.033 -0.959,-1.754 -2.879,-2.166h-0.578C61.589,35.199 59.859,36.406 58.705,38.805z" id="path_4"/><path fill="#008046" d="M58.273,25.402c2.398,0.77 3.604,1.391 3.604,1.869v0.291c-0.768,2.115 -1.395,3.172 -1.875,3.172c-1.943,-0.793 -3.051,-1.322 -3.314,-1.586v-0.289C57.074,27.42 57.598,26.264 58.273,25.402z" id="path_5"/><path fill="#008046" d="M56.436,15.963h1.426c1.729,0 2.596,0.645 2.596,1.943c-1.119,3.025 -2.479,4.631 -4.077,4.816l-1.888,0.252c-0.303,0 -0.426,-0.088 -0.383,-0.252c1.527,-0.807 2.953,-1.766 4.275,-2.867c-0.467,-0.436 -0.984,-0.652 -1.551,-0.652h-0.398l-1.551,0.131l-0.123,-0.131v-0.252C55.494,16.959 56.055,15.963 56.436,15.963z" id="path_6"/><path fill="#DD2C00" d="M37.512,38.645c0.023,0 0.055,0 0.086,0c2.306,-0.143 3.629,-1.176 3.967,-3.1c-0.867,-5.764 -1.297,-9.803 -1.297,-12.109c0,-0.885 0.387,-2.041 1.154,-3.457l0.143,0.143l0.289,0.287l-0.147,1.01c0.122,6.475 0.94,11.494 2.454,15.061c0.578,1.299 1.992,2.023 4.248,2.166v4.107c-3.098,-0.049 -5.184,-1.678 -6.266,-4.9h-0.148c-0.996,3.229 -2.49,4.863 -4.482,4.9V38.645z" id="path_7"/><path fill="#DD2C00" d="M47.652,45.113c0.148,-0.078 0.191,0.049 0.129,0.4c-0.817,1.92 -2.071,3.26 -3.764,4.016L37.8,52.648c-0.265,-0.074 -0.313,-0.289 -0.147,-0.646c0.831,-1.6 1.396,-2.547 1.697,-2.848L47.652,45.113z" id="path_8"/><path fill="#213e95" d="M27.659,45.348c0.597,0 1.653,0.719 3.167,2.158c0,0.486 -0.571,1.537 -1.728,3.174h-0.288c-0.604,0 -1.514,-0.578 -2.738,-1.729v-0.146C26.072,48.232 26.602,47.076 27.659,45.348z" id="path_9"/><path fill="#213e95" d="M32.844,44.627c2.404,1.035 3.604,1.846 3.604,2.449c-0.141,0.455 -0.813,1.463 -2.018,3.025c-1.61,-0.621 -2.761,-1.34 -3.456,-2.158C31.479,46.332 32.1,45.225 32.844,44.627z" id="path_10"/><path fill="#213e95" d="M25.113,38.645c1.027,0.012 1.66,-0.006 1.912,-0.055c2.164,-0.658 3.641,-2.061 4.435,-4.195c0.116,-0.412 0.356,-0.461 0.72,-0.148c0.189,0.166 0.338,0.844 0.43,2.018c1.311,1.766 2.947,2.559 4.902,2.381h0.381v4.107H37.8c-3.062,-0.141 -5.319,-1.537 -6.776,-4.182h-0.142c-1.021,2.152 -2.368,3.475 -4.034,3.967c-0.505,0.141 -1.083,0.215 -1.734,0.215V38.645z" id="path_11"/><path fill="#213e95" d="M30.771,21.154h1.427c1.728,0 2.595,0.645 2.595,1.943c-1.119,3.025 -2.478,4.631 -4.076,4.814l-1.889,0.252c-0.303,0 -0.425,-0.086 -0.382,-0.252c1.524,-0.805 2.952,-1.766 4.274,-2.865c-0.467,-0.438 -0.984,-0.652 -1.551,-0.652h-0.398l-1.551,0.129l-0.122,-0.129v-0.252C29.83,22.15 30.391,21.154 30.771,21.154z" id="path_12"/><path fill="#000001" d="M25.808,42.697c-1.396,0.012 -2.546,-0.701 -3.462,-2.141h-0.143c-0.676,2.398 -1.684,4.084 -3.025,5.043c-1.9,1.826 -3.967,2.736 -6.198,2.736h-0.868c-2.545,0 -4.803,-1.438 -6.771,-4.322c-0.769,-1.322 -1.156,-2.859 -1.156,-4.613c0,-2.473 1.249,-4.969 3.751,-7.49c1.305,-0.83 1.691,-0.781 1.15,0.141c-2.207,3.076 -3.314,5.191 -3.314,6.342c0,2.982 2.208,4.949 6.63,5.91h1.156c2.472,0 4.919,-1.248 7.349,-3.746c0.252,-0.793 0.302,-1.66 0.141,-2.596c-0.479,-2.041 -1.197,-7.232 -2.157,-15.564l0.86,-2.885c0.135,-0.025 0.276,-0.025 0.438,0c0.264,0 0.744,3.652 1.438,10.953c0.48,3.844 1.059,6.248 1.729,7.207c0.59,0.652 1.407,0.955 2.453,0.918V42.697z" id="path_13"/><path fill="#f06022" d="M20.666,53.33l0.148,0.129v0.395c-0.744,1.598 -1.783,2.717 -3.119,3.369c-4.132,2.246 -6.426,3.371 -6.881,3.371c-0.166,0 -0.252,-0.137 -0.252,-0.4c0.395,-1.525 1.261,-2.559 2.595,-3.1l7.388,-3.764H20.666z" id="path_14"/><path fill="#f06022" d="M19.639,50.09c0.174,0 0.254,0.121 0.254,0.375c-0.48,1.396 -1.9,2.65 -4.27,3.77l-5.461,2.988l-0.123,-0.129v-0.141c0.518,-1.826 1.34,-2.953 2.467,-3.371l6.094,-3.117L19.639,50.09z" id="path_15"/></svg>