<svg id="vector" xmlns="http://www.w3.org/2000/svg" width="75" height="67" viewBox="0 0 83 73"><path fill="#DD2C00" d="M60.768,47.759c-8.66,0.367 -13.318,-0.033 -13.973,-1.205c-0.658,-1.17 2.338,-1.77 8.98,-1.797c1.313,-0.025 2.145,-0.059 2.496,-0.113c5.279,-0.818 8.5,-1.703 9.672,-2.656v-0.152l-1.717,-4.061v-0.619c0,-2.084 0.26,-3.121 0.777,-3.121c1.459,2.781 2.184,4.965 2.184,6.549v0.314c0,3.613 -1.816,5.697 -5.459,6.242C62.805,47.388 61.818,47.593 60.768,47.759z" id="path_0"/><path fill="#DD2C00" d="M63.691,25.433c0.963,0 2.154,0.68 3.586,2.031v0.313c-0.885,2.283 -1.504,3.428 -1.869,3.428c-1.771,-0.672 -2.863,-1.352 -3.275,-2.029v-0.154C62.133,27.929 62.652,26.731 63.691,25.433z" id="path_1"/><path fill="#DD2C00" d="M66.061,12.56c1.596,0 2.395,0.986 2.395,2.949c0,3.129 -2.668,5.797 -8.014,7.994c-0.766,0.234 -0.859,-0.047 -0.273,-0.838c0.146,-0.301 1.406,-1.238 3.781,-2.809v-0.135c-1.025,-0.418 -1.537,-1.311 -1.537,-2.676c0.678,-2.988 1.758,-4.486 3.234,-4.486H66.061L66.061,12.56zM63.678,15.935c0,0.832 0.705,1.346 2.109,1.545h0.273c0.518,0 0.852,-0.193 0.99,-0.566c0,-0.846 -0.611,-1.504 -1.83,-1.971C64.689,14.942 64.176,15.276 63.678,15.935z" id="path_2"/><path fill="#008046" d="M44.6,43.452c0.326,0 0.664,0 1.018,0l0.779,-0.393c0.492,-1.012 1.225,-2.256 2.184,-3.74l-1.557,-12.016c0.518,-2.496 0.984,-3.74 1.402,-3.74l0.779,2.961c0.727,1.014 1.092,1.951 1.092,2.811c-0.52,0.957 -0.777,1.742 -0.777,2.336v0.313l0.313,4.992v0.785c1.611,-1.357 3.766,-2.096 6.469,-2.223c3.123,0.439 4.68,1.479 4.68,3.115v1.092c-0.518,2.316 -1.297,4.086 -2.336,5.305c-3.148,1.771 -6.604,2.717 -10.377,2.85h-1.719c-0.686,0 -1.338,0 -1.949,0V43.452L44.6,43.452zM47.643,43.532h0.313c4.758,-0.133 8.48,-0.979 11.156,-2.535c-1.219,-1.252 -2.104,-1.871 -2.65,-1.871h-1.25C51.648,39.251 49.125,40.724 47.643,43.532z" id="path_3"/><path fill="#0992d1" d="M53.619,22.179h1.545c1.869,0 2.809,0.699 2.809,2.104c-1.213,3.275 -2.682,5.012 -4.414,5.213l-2.043,0.271c-0.326,0 -0.459,-0.094 -0.412,-0.271c1.65,-0.873 3.195,-1.912 4.625,-3.104c-0.506,-0.473 -1.064,-0.705 -1.676,-0.705h-0.434l-1.678,0.139l-0.133,-0.139v-0.273C52.602,23.257 53.207,22.179 53.619,22.179z" id="path_4"/><path fill="#213e95" d="M28.971,43.452c1.73,0.146 3.201,-0.025 4.426,-0.506l-0.646,-1.172c-0.605,-3.434 -0.332,-5.705 0.819,-6.816c1.158,-1.111 2.403,-1.623 3.728,-1.531c2.576,0.121 4.027,1.473 4.367,4.055v0.939c0,2.156 -0.313,3.508 -0.932,4.053c-0.393,0.406 0.492,0.746 2.648,1.02l0.506,-0.021c0.393,-0.012 0.84,-0.02 1.344,-0.02v4.447l-1.576,0.02c-2.936,-0.014 -5.158,-0.387 -6.67,-1.111c-2.077,0.725 -3.695,1.092 -4.832,1.092h-0.627c-0.777,0 -1.631,0 -2.555,0V43.452L28.971,43.452zM34.488,39.046v0.313c0.652,1.119 1.638,1.896 2.962,2.338c0.886,-0.154 1.771,-0.521 2.655,-1.094c-0.393,-1.457 -1.689,-2.289 -3.899,-2.496C35.061,38.421 34.488,38.733 34.488,39.046z" id="path_5"/><path fill="#213e95" d="M35.427,25.786c1.351,0 2.596,0.832 3.741,2.496c-0.959,2.184 -1.691,3.275 -2.184,3.275c-2.104,-1.039 -3.248,-1.717 -3.435,-2.029C33.55,28.542 34.175,27.29 35.427,25.786z" id="path_6"/><path fill="#213e95" d="M41.117,14.843c0.16,-0.092 0.207,0.055 0.141,0.434c-0.885,2.076 -2.244,3.527 -4.074,4.346l-6.729,3.375c-0.286,-0.08 -0.339,-0.313 -0.16,-0.705c0.899,-1.73 1.512,-2.756 1.837,-3.082L41.117,14.843z" id="path_7"/><path fill="#000001" d="M16.31,21.181h0.625c2.058,1.172 3.097,1.85 3.122,2.029c-1.018,2.184 -1.69,3.328 -2.029,3.436c-1.172,0 -2.317,-0.572 -3.436,-1.717C14.805,23.81 15.377,22.558 16.31,21.181z" id="path_8"/><path fill="#000001" d="M21.768,20.401c0.992,0 2.189,0.68 3.595,2.029c0,0.547 -0.68,1.639 -2.03,3.275c-0.779,0 -1.924,-0.52 -3.436,-1.557C19.896,23.237 20.523,21.985 21.768,20.401z" id="path_9"/><path fill="#000001" d="M29.455,47.899h-0.039c-2.989,0 -5.02,-1.459 -6.084,-4.367L23.02,42.28h-0.313c-0.233,0.832 -1.896,1.352 -4.992,1.564h-0.779c-2.083,0 -3.121,-0.625 -3.121,-1.877v-1.404c0,-1.504 1.145,-3.375 3.435,-5.611c1.377,-1.045 2.936,-1.924 4.68,-2.656l-0.16,-0.465c0.572,-2.604 1.045,-3.902 1.404,-3.902c0.187,0.439 0.445,3.668 0.785,9.672c0.467,4.049 2.297,6.012 5.498,5.912V47.899L29.455,47.899zM15.684,38.853c0.599,0.412 1.59,0.619 2.969,0.619c1.352,-0.1 2.596,-0.359 3.74,-0.779l-0.313,-4.365h-0.152C17.768,36.304 15.684,37.808 15.684,38.853z" id="path_10"/><path fill="#f06022" d="M25.921,52.577l0.159,0.141v0.428c-0.805,1.729 -1.93,2.941 -3.374,3.646c-4.473,2.43 -6.956,3.648 -7.448,3.648c-0.18,0 -0.273,-0.148 -0.273,-0.434c0.426,-1.65 1.365,-2.77 2.809,-3.355l7.995,-4.074H25.921z" id="path_11"/><path fill="#f06022" d="M24.809,49.071c0.188,0 0.273,0.133 0.273,0.404c-0.519,1.512 -2.057,2.869 -4.619,4.082l-5.91,3.234l-0.134,-0.141v-0.152c0.559,-1.977 1.45,-3.195 2.669,-3.648l6.598,-3.375L24.809,49.071z" id="path_12"/></svg>