<svg id="vector" xmlns="http://www.w3.org/2000/svg" width="75" height="67" viewBox="0 0 83 73"><path fill="#213e95" d="M59.412,48.852h0.314c1.064,0.232 2.209,0.859 3.434,1.877v0.152c-0.707,2.131 -1.324,3.275 -1.871,3.436c-1.59,-0.313 -2.783,-0.832 -3.588,-1.564V52.6C57.701,51.373 58.273,50.129 59.412,48.852z" id="path_0"/><path fill="#213e95" d="M65.189,47.447h0.154c1.064,0.16 2.262,0.885 3.588,2.184v0.16l-1.871,3.273c-2.496,-0.805 -3.748,-1.484 -3.748,-2.029C64.119,48.645 64.744,47.447 65.189,47.447z" id="path_1"/><path fill="#213e95" d="M58.027,41.717c4.088,0.039 6.371,-0.727 6.869,-2.305c0,-0.545 -0.52,-1.896 -1.563,-4.053l0.471,-4.055h0.307c1.359,2.336 2.029,4.68 2.029,7.016v1.406c0,0.938 -0.225,1.922 -0.67,2.955c-0.447,1.031 -1.141,1.902 -2.064,2.602c-0.932,0.707 -2.723,0.998 -5.379,0.879V41.717z" id="path_2"/><path fill="#213e95" d="M65.424,17.686c1.596,0 2.396,0.986 2.396,2.949c0,3.129 -2.67,5.799 -8.016,7.994c-0.766,0.232 -0.857,-0.047 -0.271,-0.838c0.146,-0.301 1.404,-1.238 3.779,-2.809v-0.135c-1.023,-0.418 -1.537,-1.311 -1.537,-2.676c0.678,-2.988 1.758,-4.486 3.234,-4.486H65.424L65.424,17.686zM63.039,21.061c0,0.832 0.707,1.346 2.111,1.545h0.273c0.52,0 0.852,-0.193 0.99,-0.566c0,-0.846 -0.611,-1.504 -1.83,-1.971C64.053,20.068 63.539,20.402 63.039,21.061z" id="path_3"/><path fill="#008046" d="M47.896,26.346h0.152c1.691,0.525 2.889,1.199 3.588,2.031v0.313c-0.805,2.289 -1.484,3.434 -2.029,3.434l-3.588,-1.877C46.672,27.963 47.297,26.658 47.896,26.346z" id="path_4"/><path fill="#008046" d="M58.5,46.162c-0.1,0 -0.205,0 -0.307,0h-1.404c-1.404,0 -3.021,-0.885 -4.838,-2.648c-3.123,1.711 -6.49,2.596 -10.106,2.648v-4.426c1.891,0.125 4.321,-0.268 7.295,-1.193v-0.152c-1.432,-0.938 -2.783,-1.404 -4.055,-1.404l-1.25,0.154l-0.313,-0.779c0.418,-2.811 1.617,-4.215 3.588,-4.215l2.496,-0.152c3.953,0.467 5.93,1.352 5.93,2.65v0.625L54.6,40.391c0.758,0.918 2.057,1.365 3.9,1.326V46.162z" id="path_5"/><path fill="#008046" d="M49.115,14.186h1.543c1.871,0 2.809,0.697 2.809,2.102c-1.211,3.275 -2.682,5.014 -4.412,5.213l-2.045,0.273c-0.324,0 -0.459,-0.094 -0.412,-0.273c1.652,-0.871 3.195,-1.91 4.627,-3.102c-0.506,-0.473 -1.064,-0.707 -1.678,-0.707h-0.432l-1.678,0.141l-0.133,-0.141V17.42C48.096,15.264 48.703,14.186 49.115,14.186z" id="path_6"/><path fill="#DD2C00" d="M31.501,35.207c1.328,-0.898 2.6,-1.346 3.814,-1.346c1.039,0.279 1.557,0.592 1.557,0.932l-0.625,3.436c0.119,2.104 1.678,3.268 4.68,3.488l1.25,0.02v4.426c-0.206,0.014 -0.418,0.02 -0.625,0.02c-1.518,0 -2.815,-0.227 -3.888,-0.672c-1.078,-0.445 -1.791,-1.23 -2.137,-2.344c-0.353,-1.111 -0.479,-2.701 -0.372,-4.785l-1.405,-0.313c-0.834,0.094 -1.584,0.227 -2.25,0.398V35.207z" id="path_7"/><path fill="#DD2C00" d="M35.023,25.607h0.618c2.058,1.172 3.096,1.85 3.122,2.029c-1.012,2.184 -1.69,3.328 -2.03,3.436c-1.166,0 -2.31,-0.572 -3.428,-1.717C33.512,28.236 34.084,26.984 35.023,25.607z" id="path_8"/><path fill="#DD2C00" d="M42.252,50.662c0.16,-0.086 0.207,0.053 0.141,0.434c-0.886,2.076 -2.245,3.527 -4.075,4.346l-6.73,3.375c-0.287,-0.08 -0.339,-0.313 -0.16,-0.699c0.899,-1.73 1.512,-2.756 1.837,-3.082L42.252,50.662z" id="path_9"/><path fill="#000001" d="M21.696,25.082h1.544c1.87,0 2.809,0.699 2.809,2.102c-1.212,3.275 -2.682,5.014 -4.413,5.213l-2.044,0.273c-0.326,0 -0.459,-0.094 -0.412,-0.273c1.651,-0.871 3.195,-1.91 4.625,-3.102c-0.505,-0.473 -1.064,-0.705 -1.677,-0.705h-0.433l-1.677,0.139l-0.133,-0.139v-0.273C20.678,26.16 21.283,25.082 21.696,25.082z" id="path_10"/><path fill="#000001" d="M31.714,41.904c-2.556,-0.252 -3.841,-0.619 -3.841,-1.111v-0.16l0.058,-0.055l0.022,-0.021c1.189,-1.121 2.539,-1.66 3.547,-2.09l0.116,-3.338c-2.857,1.662 -5.301,4.072 -5.301,7.535v0.779c0.013,0.699 0.306,1.25 0.879,1.656c1.632,1.15 3.939,0.283 5.224,1.244c-3.261,2.99 -5.999,4.482 -8.206,4.482c-3.834,0.348 -8.741,-2.408 -8.741,-6.396c0,-1.125 0.313,-2.322 0.939,-3.588c1.558,-2.529 2.336,-3.988 2.336,-4.367c0.066,-0.438 -0.139,-0.492 -0.619,-0.152c-2.708,2.549 -4.06,5.924 -4.06,10.137c0,2.5 2.347,6.75 4.573,7.922c6.421,3.316 15.477,-3.295 15.477,-9.693C33.958,43.104 33.16,42.178 31.714,41.904z" id="path_11"/></svg>