<svg id="vector" xmlns="http://www.w3.org/2000/svg" width="75" height="67" viewBox="0 0 83 73"><path fill="#000001" d="M16.721,42.873c1.279,0 2.21,0 2.811,0h0.626c1.87,-0.247 4.665,-1.045 8.386,-2.396c-1.25,-1.044 -3.175,-1.823 -5.771,-2.343c-1.537,0 -2.576,0.727 -3.122,2.184c-0.193,0.432 -0.367,0.545 -0.52,0.34c-0.146,-0.2 -0.187,-0.467 -0.106,-0.806c0.939,-3.148 2.184,-4.72 3.748,-4.72h1.092c1.037,0 2.915,0.586 5.624,1.758c2.709,1.164 5.045,1.637 7.009,1.404c0.248,0 0.354,0.152 0.314,0.465c-0.42,2.596 -1.199,3.9 -2.345,3.9l-0.777,0.154v0.313c0.392,0.818 2.189,1.212 5.405,1.172v4.427c-4.655,0.245 -6.978,-1.565 -6.964,-5.438c-1.663,0.246 -3.92,1.019 -6.769,2.33c-2.85,1.305 -5.726,1.863 -8.642,1.684V42.873z" id="path_0"/><path fill="#f06022" d="M33.242,22.299l0.16,0.14v0.426c-0.812,1.73 -1.937,2.941 -3.374,3.647c-4.474,2.43 -6.956,3.647 -7.449,3.647c-0.188,0 -0.279,-0.146 -0.279,-0.433c0.434,-1.65 1.371,-2.77 2.809,-3.354l8.002,-4.073H33.242z" id="path_1"/><path fill="#f06022" d="M32.131,18.79c0.18,0 0.273,0.134 0.273,0.406c-0.52,1.511 -2.058,2.869 -4.62,4.08l-5.911,3.235l-0.133,-0.14V26.22c0.56,-1.978 1.445,-3.195 2.67,-3.648L31,19.196L32.131,18.79z" id="path_2"/><path fill="#DD2C00" d="M16.762,47.319c-3.028,0.18 -5.232,-1.218 -6.61,-4.193C9.486,42.021 8.866,34.572 8.28,20.78v-0.313c0.387,-2.29 0.96,-3.435 1.711,-3.435l0.786,-0.153c0.959,0 2.416,0.313 4.366,0.932v0.313c-0.105,0.313 -0.42,0.473 -0.938,0.473h-2.65c-0.544,0 -1.064,0.306 -1.563,0.932c0.485,11.975 1.191,18.91 2.131,20.808c0.931,1.897 2.483,2.743 4.64,2.536V47.319z" id="path_3"/><path fill="#008046" d="M51.921,44.338h0.606c2.056,-0.22 3.787,-1.465 5.191,-3.728c0.207,-0.467 0.413,-0.726 0.618,-0.779h0.16l0.466,0.473c-0.066,0.594 -0.166,1.012 -0.313,1.244c0.913,1.664 2.003,2.498 3.274,2.498l0.16,0.152c2.265,-4.992 4.808,-7.489 7.643,-7.489c2.263,0 3.928,0.938 4.992,2.81v0.938c0,5.718 -3.535,8.581 -10.61,8.581l-2.336,-0.154c-0.726,1.971 -1.2,2.962 -1.404,2.962l-0.154,-0.153v-0.16l0.466,-2.648v-0.313c-1.538,-0.859 -2.729,-2.057 -3.588,-3.588c-0.806,2.636 -2.529,3.907 -5.172,3.801V44.338L51.921,44.338zM63.644,44.511h0.312c3.536,0 6.551,-0.52 9.047,-1.558c0,-1.118 -1.037,-1.897 -3.114,-2.343h-0.626C66.766,40.61 64.896,41.915 63.644,44.511z" id="path_4"/><path fill="#008046" d="M65.753,21.633c1.598,0 2.397,0.984 2.397,2.948c0,3.129 -2.67,5.798 -8.016,7.994c-0.767,0.233 -0.857,-0.047 -0.272,-0.838c0.146,-0.301 1.403,-1.238 3.781,-2.81v-0.132c-1.026,-0.421 -1.539,-1.313 -1.539,-2.677c0.679,-2.989 1.757,-4.486 3.235,-4.486H65.753L65.753,21.633zM63.37,25.007c0,0.832 0.706,1.345 2.11,1.545h0.272c0.52,0 0.853,-0.193 0.991,-0.565c0,-0.846 -0.612,-1.505 -1.829,-1.971C64.383,24.016 63.869,24.349 63.37,25.007z" id="path_5"/><path fill="#0992d1" d="M44.438,50.501c0.534,0 1.784,0.627 3.748,1.871c0,0.778 -0.626,2.03 -1.876,3.748c-2.496,-0.813 -3.742,-1.538 -3.742,-2.19C42.635,53.351 43.255,52.206 44.438,50.501z" id="path_6"/><path fill="#0992d1" d="M38.762,44.338c1.111,0.014 1.796,-0.007 2.068,-0.061c2.345,-0.712 3.941,-2.229 4.8,-4.539c0.127,-0.446 0.386,-0.5 0.78,-0.159c0.206,0.179 0.364,0.911 0.466,2.183c1.418,1.91 3.188,2.769 5.305,2.576h0.413v4.446h-0.1c-3.315,-0.153 -5.759,-1.664 -7.336,-4.526h-0.154c-1.104,2.329 -2.563,3.761 -4.366,4.294c-0.544,0.152 -1.17,0.232 -1.876,0.232V44.338z" id="path_7"/><path fill="#0992d1" d="M44.472,25.047h1.544c1.872,0 2.811,0.699 2.811,2.104c-1.213,3.274 -2.684,5.013 -4.413,5.212l-2.044,0.273c-0.325,0 -0.46,-0.094 -0.413,-0.273c1.651,-0.872 3.196,-1.91 4.625,-3.102c-0.505,-0.472 -1.064,-0.705 -1.677,-0.705h-0.433l-1.678,0.14l-0.132,-0.14v-0.273C43.453,26.126 44.06,25.047 44.472,25.047z" id="path_8"/></svg>