<svg id="vector" xmlns="http://www.w3.org/2000/svg" width="100" height="67" viewBox="0 0 171 73"><path fill="#DD2C00" d="M145.574,38.985c0.213,0 0.434,0 0.666,0h0.16c1.947,-0.119 3.721,-1.74 5.307,-4.859c1.721,-2.607 3.494,-3.906 5.314,-3.906c2.293,0 3.439,1.453 3.439,4.373v0.779c0,1.434 -0.574,3.307 -1.721,5.627l-1.094,0.779c-0.967,0 -3.199,-0.68 -6.719,-2.033c-1.066,1.602 -1.9,2.574 -2.5,2.914c-0.914,0.635 -1.848,0.9 -2.814,0.781h-0.039V38.985L145.574,38.985zM153.428,35.687v0.152c2.707,1.047 4.326,1.566 4.846,1.566c0.207,0 0.314,-0.16 0.314,-0.473c-0.602,-1.561 -1.594,-2.34 -2.975,-2.34C154.654,34.593 153.92,34.96 153.428,35.687z" id="path_0"/><path fill="#DD2C00" d="M158.287,45.819c0.16,-0.086 0.207,0.053 0.141,0.434c-0.887,2.08 -2.248,3.533 -4.08,4.354l-6.74,3.379c-0.287,-0.078 -0.34,-0.313 -0.16,-0.699c0.9,-1.732 1.514,-2.76 1.84,-3.086L158.287,45.819z" id="path_1"/><path fill="#213e95" d="M132.141,39.28c1.539,0.492 2.732,1.119 3.594,1.873v0.313c0,0.52 -0.574,1.668 -1.721,3.441c-1.066,0 -2.26,-0.574 -3.594,-1.721v-0.314C130.42,41.753 130.994,40.56 132.141,39.28z" id="path_2"/><path fill="#213e95" d="M145.914,43.38c-1.42,0 -2.52,-0.221 -3.307,-0.66c-0.387,3.387 -1.113,5.727 -2.188,7.033c-2.572,3.227 -5.232,4.84 -7.967,4.84c-5.025,0 -8.307,-2.186 -9.846,-6.559c-0.307,-0.834 -0.467,-1.721 -0.467,-2.66v-1.248c0,-3.699 1.146,-6.613 3.439,-8.754c0.414,0.16 0.627,0.521 0.627,1.094l-2.5,4.533l-0.16,1.561c0,3.52 1.928,5.967 5.78,7.348l4.067,0.313c1.713,0 3.854,-0.992 6.406,-2.967c0.934,-1.514 1.406,-2.607 1.406,-3.287c-0.105,-1.039 -0.787,-2.547 -2.033,-4.527v-3.285l0.467,-0.467c1.133,2.279 3.227,3.379 6.273,3.299V43.38z" id="path_3"/><path fill="#213e95" d="M138.033,21.858c0.16,-0.092 0.207,0.055 0.141,0.434c-0.887,2.08 -2.246,3.533 -4.08,4.354l-6.74,3.381c-0.287,-0.08 -0.34,-0.314 -0.16,-0.707c0.9,-1.732 1.514,-2.76 1.84,-3.086L138.033,21.858z" id="path_4"/><path fill="#000001" d="M115.1,21.153c0.314,0 0.627,1.047 0.94,3.125l1.407,3.127l-0.627,3.594l0.467,8.754v1.4c-0.207,3.574 -0.727,5.652 -1.561,6.254l-0.152,-0.154l0.152,-2.346c0,-2.107 -0.68,-8.828 -2.033,-20.154C114.348,22.353 114.813,21.153 115.1,21.153z" id="path_5"/><path fill="#000001" d="M101.447,43.327c0.18,0.014 0.373,0.02 0.586,0.02h1.48c1.566,-0.26 2.76,-0.807 3.594,-1.641l-1.874,-14.848c0.466,-2.813 0.887,-4.213 1.247,-4.213l2.033,4.688c0,0.727 -0.26,1.82 -0.781,3.279l0.781,8.434v2.348c-0.587,2.486 -1.374,4.227 -2.36,5.213c-0.747,0.793 -1.62,1.193 -2.64,1.193h-1.327c-0.26,0 -0.507,-0.006 -0.739,-0.02V43.327z" id="path_6"/><path fill="#000001" d="M106.733,13.64h1.546c1.874,0 2.814,0.699 2.814,2.107c-1.214,3.279 -2.688,5.02 -4.42,5.219l-2.047,0.273c-0.327,0 -0.461,-0.094 -0.414,-0.273c1.654,-0.873 3.201,-1.912 4.634,-3.107c-0.507,-0.473 -1.067,-0.705 -1.681,-0.705h-0.433l-1.681,0.139l-0.133,-0.139V16.88C105.713,14.72 106.32,13.64 106.733,13.64z" id="path_7"/><path fill="#DD2C00" d="M88.76,43.347h0.354c1.066,0 2.193,-0.414 3.38,-1.24s1.88,-1.867 2.093,-3.113l0.154,-0.16h0.152c0.188,0 0.447,0.572 0.787,1.719c1.48,2.035 3.566,2.969 6.246,2.814c0.181,0 0.367,-0.006 0.547,-0.02v4.473c-0.18,0.014 -0.366,0.021 -0.547,0.021l-2.186,-0.254c-0.234,2.08 -0.914,3.119 -2.033,3.127h-0.314c-2.08,-0.395 -3.119,-1.121 -3.119,-2.193l0.467,-2.814c-0.367,-0.412 -0.727,-0.619 -1.094,-0.619c-1.174,1.834 -2.8,2.74 -4.887,2.713V43.347z" id="path_8"/><path fill="#DD2C00" d="M96.826,20.96c1.6,0 2.4,0.986 2.4,2.953c0,3.133 -2.674,5.807 -8.027,8.006c-0.766,0.234 -0.859,-0.047 -0.272,-0.84c0.146,-0.301 1.406,-1.24 3.786,-2.813v-0.135c-1.026,-0.42 -1.539,-1.313 -1.539,-2.68c0.68,-2.992 1.76,-4.492 3.24,-4.492H96.826L96.826,20.96zM94.439,24.339c0,0.834 0.707,1.348 2.113,1.547h0.273c0.521,0 0.854,-0.193 0.994,-0.566c0,-0.848 -0.613,-1.506 -1.834,-1.973C95.453,23.347 94.939,23.679 94.439,24.339z" id="path_9"/><path fill="#000001" d="M64.46,44.247c1.22,-0.42 3.413,-0.721 6.573,-0.9c3.621,0.025 6.98,-0.613 10.08,-1.914v-0.154c-1.227,-1.252 -2.473,-1.879 -3.746,-1.879c-0.773,0.027 -1.188,-0.127 -1.254,-0.467c0.6,-1.721 1.48,-2.746 2.641,-3.086c0.973,-0.328 2.333,-0.547 4.08,-0.668c3.307,0.055 5.026,0.887 5.152,2.5v0.627c0,1.268 -0.52,2.461 -1.56,3.594v0.314c0.233,0.912 1.273,1.279 3.127,1.092h0.112v4.121l-0.272,0.1h-1.56c-1.627,-0.154 -3.087,-1.246 -4.373,-3.279c-3.794,1.025 -6.221,1.633 -7.287,1.826c-1.066,0.188 -2.434,0.299 -4.101,0.34s-2.933,0.02 -3.793,-0.061c-0.86,-0.072 -1.78,-0.193 -2.773,-0.354C63.594,45.247 63.247,44.659 64.46,44.247z" id="path_10"/><path fill="#000001" d="M80.92,21.14h1.547c1.873,0 2.813,0.699 2.813,2.105c-1.214,3.281 -2.687,5.021 -4.421,5.221l-2.046,0.273c-0.327,0 -0.46,-0.094 -0.413,-0.273c1.652,-0.873 3.199,-1.914 4.633,-3.107c-0.506,-0.473 -1.066,-0.705 -1.68,-0.705H80.92l-1.68,0.139l-0.133,-0.139V24.38C79.9,22.22 80.507,21.14 80.92,21.14z" id="path_11"/><path fill="#008046" d="M50.18,41.979h0.607c2.06,-0.221 3.793,-1.467 5.199,-3.734c0.207,-0.467 0.414,-0.727 0.62,-0.779h0.16l0.467,0.473c-0.067,0.594 -0.167,1.014 -0.313,1.248c0.914,1.666 2.007,2.5 3.28,2.5l0.159,0.152c2.268,-5 4.814,-7.5 7.654,-7.5c2.266,0 3.933,0.941 5,2.814v0.939c0,5.727 -3.541,8.594 -10.627,8.594l-2.34,-0.154c-0.727,1.975 -1.2,2.967 -1.407,2.967l-0.153,-0.152v-0.16l0.467,-2.654V46.22c-1.54,-0.859 -2.733,-2.061 -3.594,-3.594c-0.807,2.641 -2.533,3.914 -5.18,3.807V41.979L50.18,41.979zM61.92,42.153h0.313c3.54,0 6.56,-0.521 9.06,-1.561c0,-1.121 -1.039,-1.9 -3.119,-2.348h-0.627C65.047,38.245 63.174,39.552 61.92,42.153z" id="path_12"/><path fill="#008046" d="M66.859,50.333c0.16,-0.086 0.207,0.053 0.141,0.434c-0.887,2.08 -2.246,3.533 -4.08,4.354l-6.74,3.379c-0.286,-0.08 -0.34,-0.313 -0.16,-0.699c0.9,-1.732 1.514,-2.76 1.84,-3.086L66.859,50.333z" id="path_13"/><path fill="#008046" d="M50.32,46.446c-0.141,0.014 -0.287,0.02 -0.427,0.02h-0.787c-1.22,0 -2.054,-0.1 -2.499,-0.313c-0.907,3.506 -1.967,5.652 -3.181,6.439s-3.954,1.453 -8.22,2h-0.313c-0.94,-0.105 -1.407,-0.26 -1.407,-0.467c0,-0.313 0.78,-0.68 2.34,-1.092c6.147,-2.814 9.221,-4.848 9.221,-6.094c0,-0.521 -0.727,-1.721 -2.187,-3.594c-0.313,-0.527 -0.467,-1.201 -0.467,-2.033v-1.561c0,-0.787 0.153,-1.201 0.467,-1.254c1.353,2.074 3.646,3.227 6.873,3.473c0.2,0 0.394,0 0.587,-0.012V46.446z" id="path_14"/><path fill="#000001" d="M19.426,31.466c1.221,0.367 2.475,1.146 3.748,2.348v0.152c-1.174,2.061 -1.848,3.1 -2.033,3.127h-0.467c-0.887,-0.127 -1.82,-0.701 -2.814,-1.721V35.22C17.967,33.993 18.486,32.745 19.426,31.466z" id="path_15"/><path fill="#000001" d="M25.359,31.78c1.146,0.26 2.294,0.939 3.44,2.033v0.152c0,0.574 -0.626,1.621 -1.873,3.127h-0.474c-0.727,0 -1.666,-0.574 -2.813,-1.721C23.926,33.759 24.5,32.56 25.359,31.78z" id="path_16"/><path fill="#000001" d="M12.727,33.499h0.153l0.313,0.314c-0.834,1.846 -1.246,3.1 -1.246,3.746c0,3.047 2.912,4.82 8.746,5.313l1.873,0.314c1.881,0 4.688,-0.574 8.439,-1.721l2.188,-1.246c-0.727,-1.326 -1.2,-2.473 -1.406,-3.439l0.313,-2.967h0.313c1.247,1.299 1.874,3.592 1.874,6.873c0,3.154 -2.761,5.287 -8.281,6.406l-2.346,0.314c-8.747,0 -13.12,-2.867 -13.12,-8.594C10.54,36.419 11.267,34.646 12.727,33.499z" id="path_17"/><path fill="#000001" d="M27.193,51.192c0.16,-0.086 0.207,0.055 0.14,0.434c-0.887,2.08 -2.247,3.533 -4.079,4.354l-6.74,3.381c-0.287,-0.08 -0.34,-0.314 -0.16,-0.701c0.9,-1.732 1.514,-2.76 1.84,-3.086L27.193,51.192z" id="path_18"/><path fill="#008046" d="M42.094,19.905c1.252,2.133 1.879,4.221 1.879,6.246c-0.547,3.854 -1.227,5.781 -2.033,5.781l-0.152,-0.154v-0.152l0.307,-2.033v-0.16c0,-1.248 -0.521,-3.121 -1.561,-5.621v-0.313C41.053,21.099 41.572,19.905 42.094,19.905z" id="path_19"/></svg>