<svg id="vector" xmlns="http://www.w3.org/2000/svg" width="75" height="67" viewBox="0 0 83 73"><path fill="#213e95" d="M66.94,24.303c0.313,0 0.625,1.045 0.938,3.121l1.405,3.123l-0.626,3.588l0.466,8.738v1.398c-0.207,3.568 -0.726,5.645 -1.558,6.244l-0.153,-0.154l0.153,-2.342c0,-2.104 -0.679,-8.813 -2.03,-20.123C66.187,25.5 66.653,24.303 66.94,24.303z" id="path_0"/><path fill="#213e95" d="M71.599,15.176c0.16,-0.092 0.207,0.055 0.141,0.434c-0.886,2.076 -2.244,3.527 -4.074,4.346l-6.73,3.375c-0.286,-0.08 -0.339,-0.313 -0.16,-0.705c0.899,-1.73 1.511,-2.756 1.837,-3.082L71.599,15.176z" id="path_1"/><path fill="#000001" d="M43.714,46.049c0.393,0.027 0.793,0.041 1.193,0.041h0.466l1.95,-0.467c-0.466,-0.873 -0.699,-1.479 -0.699,-1.816c0,-4.992 1.611,-7.49 4.833,-7.49l1.251,-0.152c1.638,0.26 3.722,1.246 6.238,2.963l0.16,0.625l-0.16,0.154h-0.619c-1.199,-0.834 -2.549,-1.246 -4.061,-1.246c-2.31,0 -4.233,0.674 -5.771,2.023v0.16c1.351,2.184 3.847,3.275 7.488,3.275c2.863,-1.039 4.733,-1.559 5.618,-1.559c-0.492,2.91 -1.431,4.367 -2.809,4.367c-6.164,2.391 -11.049,3.588 -14.664,3.588h-0.414V46.049z" id="path_2"/><path fill="#000001" d="M51.417,23.158h1.545c1.87,0 2.809,0.697 2.809,2.104c-1.212,3.275 -2.683,5.012 -4.414,5.211l-2.043,0.273c-0.327,0 -0.459,-0.094 -0.413,-0.273c1.651,-0.871 3.195,-1.91 4.626,-3.102c-0.505,-0.473 -1.065,-0.705 -1.677,-0.705h-0.433l-1.677,0.139l-0.134,-0.139v-0.273C50.399,24.236 51.004,23.158 51.417,23.158z" id="path_3"/><path fill="#DD2C00" d="M36.233,52.234c0.533,0 1.784,0.625 3.748,1.869c0,0.779 -0.626,2.029 -1.877,3.748c-2.496,-0.813 -3.741,-1.537 -3.741,-2.191C34.429,55.082 35.048,53.938 36.233,52.234z" id="path_4"/><path fill="#DD2C00" d="M30.555,46.068c1.111,0.014 1.797,-0.006 2.07,-0.059c2.343,-0.713 3.941,-2.23 4.799,-4.541c0.127,-0.445 0.386,-0.498 0.779,-0.158c0.207,0.178 0.367,0.91 0.466,2.182c1.418,1.91 3.188,2.77 5.306,2.576h0.412v4.447h-0.099c-3.315,-0.154 -5.758,-1.664 -7.335,-4.527h-0.153c-1.105,2.332 -2.563,3.762 -4.367,4.295c-0.545,0.152 -1.171,0.232 -1.877,0.232V46.068z" id="path_5"/><path fill="#DD2C00" d="M37.891,24.242c1.598,0 2.396,0.986 2.396,2.949c0,3.129 -2.669,5.799 -8.014,7.994c-0.766,0.232 -0.859,-0.047 -0.273,-0.838c0.146,-0.301 1.404,-1.238 3.78,-2.809v-0.135c-1.025,-0.418 -1.538,-1.311 -1.538,-2.676c0.68,-2.988 1.757,-4.486 3.235,-4.486H37.891L37.891,24.242zM35.507,27.617c0,0.832 0.706,1.346 2.11,1.545h0.273c0.52,0 0.852,-0.193 0.993,-0.566c0,-0.846 -0.613,-1.504 -1.832,-1.971C36.52,26.625 36.007,26.959 35.507,27.617z" id="path_6"/><path fill="#000001" d="M31.001,50.535c-2.676,-0.18 -5.105,-1.645 -7.29,-4.387h-0.159c-0.932,5.406 -3.016,8.107 -6.238,8.115h-0.473c-1.397,-0.008 -2.756,-1.252 -4.054,-3.748c-1.038,-3.508 -1.558,-6.164 -1.558,-7.955v-1.25c0,-0.779 0.154,-1.199 0.466,-1.246c0.439,0.232 0.965,1.938 1.572,5.119c0.605,3.176 1.85,4.693 3.733,4.553c3.641,-0.6 5.565,-2.682 5.771,-6.244L21.37,38.66v-1.717c0.053,-2.084 0.26,-3.123 0.625,-3.123c0.207,0.467 0.367,0.939 0.466,1.406l2.183,6.861c1.718,2.783 3.841,4.102 6.357,3.941V50.535z" id="path_7"/><path fill="#000001" d="M22.055,19.211c1.597,0 2.396,0.984 2.396,2.949c0,3.127 -2.669,5.797 -8.014,7.994c-0.766,0.232 -0.859,-0.047 -0.273,-0.84c0.146,-0.299 1.405,-1.238 3.781,-2.809v-0.133c-1.026,-0.42 -1.538,-1.313 -1.538,-2.676c0.679,-2.99 1.757,-4.486 3.235,-4.486H22.055L22.055,19.211zM19.672,22.586c0,0.832 0.706,1.344 2.11,1.545h0.273c0.519,0 0.853,-0.193 0.992,-0.568c0,-0.844 -0.612,-1.502 -1.83,-1.969C20.685,21.594 20.171,21.926 19.672,22.586z" id="path_8"/></svg>