<svg id="vector" xmlns="http://www.w3.org/2000/svg" width="75" height="67" viewBox="0 0 83 73"><path fill="#DD2C00" d="M71.903,39.713h0.624c1.825,0 3.177,1.557 4.063,4.68l0.152,1.557c0.052,0.506 0.052,1.025 0,1.564c-0.467,1.896 -1.512,3.768 -3.123,5.611c-1.117,0.939 -3.66,1.664 -7.641,2.184c-0.466,-0.207 -0.732,-0.414 -0.779,-0.619c6.657,-3.615 9.984,-5.797 9.984,-6.557l0.154,-0.467l-0.154,-0.152l-1.404,0.465h-0.778c-2.808,0 -4.214,-0.99 -4.214,-2.961v-0.313c0.358,-3.229 1.145,-4.84 2.336,-4.84L71.903,39.713z" id="path_0"/><path fill="#DD2C00" d="M76.036,27.072c0.159,-0.094 0.206,0.053 0.14,0.432c-0.885,2.076 -2.242,3.529 -4.073,4.346l-6.73,3.375c-0.286,-0.08 -0.339,-0.313 -0.159,-0.705c0.898,-1.73 1.511,-2.754 1.837,-3.082L76.036,27.072z" id="path_1"/><path fill="#DD2C00" d="M59.401,22.564c0.313,0 0.626,1.045 0.939,3.123l1.404,3.121l-0.626,3.588l0.466,8.74v1.398c-0.206,3.566 -0.726,5.645 -1.558,6.242l-0.152,-0.152l0.152,-2.342c0,-2.105 -0.679,-8.814 -2.03,-20.125C58.65,23.764 59.116,22.564 59.401,22.564z" id="path_2"/><path fill="#DD2C00" d="M46.396,26.838c1.537,0.492 2.736,1.119 3.588,1.871v0.313c0,0.52 -0.567,1.664 -1.712,3.436c-1.064,0 -2.262,-0.574 -3.586,-1.719v-0.313C44.686,29.309 45.257,28.109 46.396,26.838z" id="path_3"/><path fill="#DD2C00" d="M41.949,44.818c4.086,0.039 6.369,-0.727 6.868,-2.305c0,-0.545 -0.519,-1.896 -1.563,-4.053l0.472,-4.055h0.307c1.358,2.338 2.029,4.68 2.029,7.016v1.404c0,0.939 -0.226,1.924 -0.671,2.957c-0.446,1.031 -1.139,1.904 -2.063,2.602c-0.933,0.705 -2.723,1 -5.379,0.879V44.818z" id="path_4"/><path fill="#DD2C00" d="M49.711,17.047h1.544c1.871,0 2.809,0.699 2.809,2.104c-1.211,3.275 -2.684,5.012 -4.413,5.211l-2.044,0.273c-0.325,0 -0.458,-0.092 -0.411,-0.273c1.649,-0.871 3.194,-1.91 4.626,-3.102c-0.508,-0.473 -1.065,-0.705 -1.68,-0.705h-0.431l-1.677,0.141l-0.135,-0.141v-0.271C48.69,18.125 49.298,17.047 49.711,17.047z" id="path_5"/><path fill="#000001" d="M23.125,43.359c1.277,0 2.209,0 2.808,0h0.626c1.87,-0.246 4.667,-1.045 8.388,-2.396c-1.252,-1.045 -3.175,-1.824 -5.771,-2.342c-1.538,0 -2.576,0.725 -3.122,2.182c-0.193,0.434 -0.366,0.547 -0.521,0.34c-0.146,-0.199 -0.186,-0.465 -0.105,-0.805c0.938,-3.148 2.183,-4.721 3.748,-4.721h1.09c1.04,0 2.916,0.588 5.627,1.758c2.708,1.166 5.045,1.639 7.009,1.406c0.245,0 0.353,0.152 0.312,0.465c-0.419,2.596 -1.197,3.9 -2.342,3.9l-0.78,0.152v0.314c0.394,0.818 2.19,1.211 5.406,1.17v4.428c-4.653,0.246 -6.977,-1.564 -6.963,-5.438c-1.665,0.244 -3.921,1.018 -6.771,2.328c-2.849,1.305 -5.724,1.863 -8.639,1.684V43.359z" id="path_6"/><path fill="#000001" d="M39.858,22.492c0.16,-0.094 0.207,0.053 0.141,0.432c-0.885,2.078 -2.244,3.529 -4.073,4.348l-6.73,3.373c-0.286,-0.078 -0.339,-0.311 -0.16,-0.705c0.899,-1.73 1.512,-2.754 1.837,-3.082L39.858,22.492z" id="path_7"/><path fill="#008046" d="M23.025,47.818c-0.141,0.014 -0.287,0.021 -0.428,0.021h-0.785c-1.217,0 -2.05,-0.102 -2.496,-0.313c-0.905,3.5 -1.964,5.645 -3.175,6.43c-1.212,0.785 -3.947,1.451 -8.207,1.998H7.621c-0.938,-0.107 -1.404,-0.262 -1.404,-0.467c0,-0.313 0.778,-0.68 2.336,-1.092c6.138,-2.811 9.207,-4.84 9.207,-6.084c0,-0.52 -0.726,-1.719 -2.185,-3.588c-0.312,-0.525 -0.466,-1.199 -0.466,-2.031v-1.557c0,-0.785 0.154,-1.199 0.466,-1.252c1.352,2.07 3.642,3.223 6.863,3.469c0.2,0 0.394,0 0.587,-0.014V47.818z" id="path_8"/><path fill="#008046" d="M13.799,28.676h1.545c1.87,0 2.808,0.699 2.808,2.104c-1.211,3.275 -2.683,5.012 -4.413,5.211l-2.044,0.273c-0.325,0 -0.458,-0.092 -0.413,-0.273c1.652,-0.871 3.196,-1.91 4.628,-3.102c-0.507,-0.473 -1.064,-0.705 -1.677,-0.705h-0.434l-1.677,0.141l-0.135,-0.141V31.91C12.779,29.754 13.386,28.676 13.799,28.676z" id="path_9"/></svg>