<svg id="vector" xmlns="http://www.w3.org/2000/svg" width="75" height="67" viewBox="0 0 83 73"><path fill="#000001" d="M70.004,51.045c0.65,0 1.797,0.785 3.434,2.342c0,0.52 -0.625,1.664 -1.877,3.436h-0.307c-0.652,0 -1.645,-0.625 -2.969,-1.877v-0.154C68.285,54.166 68.857,52.922 70.004,51.045z" id="path_0"/><path fill="#000001" d="M75.621,50.266c2.596,1.117 3.9,2.004 3.9,2.656c-0.158,0.492 -0.885,1.584 -2.184,3.275c-1.742,-0.68 -2.994,-1.459 -3.748,-2.344C74.137,52.115 74.814,50.918 75.621,50.266z" id="path_1"/><path fill="#000001" d="M70.688,42.877c0.127,0 0.32,0 0.588,0h0.656c1.666,0 2.73,-0.42 3.203,-1.252v-0.313c-0.785,-2.73 -1.932,-5.213 -3.434,-7.449c0.178,-2.389 0.438,-3.588 0.777,-3.588c0.912,0.732 2.109,3.328 3.588,7.803l0.16,2.029v1.404c-0.5,3.848 -1.977,5.771 -4.445,5.771h-0.506c-0.281,0 -0.475,0.014 -0.588,0.041V42.877z" id="path_2"/><path fill="#000001" d="M78.35,19.373c0.16,-0.094 0.207,0.053 0.141,0.434c-0.885,2.076 -2.244,3.527 -4.074,4.346l-6.729,3.375c-0.287,-0.08 -0.34,-0.314 -0.16,-0.705c0.898,-1.73 1.512,-2.756 1.836,-3.082L78.35,19.373z" id="path_3"/><path fill="#213e95" d="M62.131,31.66c0.877,0 2.076,0.732 3.586,2.184v0.313c-1.018,2.184 -1.691,3.281 -2.031,3.281L60.1,35.408h-0.16c-1.012,1.744 -1.684,2.676 -2.023,2.809h-0.16c-2.283,-1.018 -3.428,-1.797 -3.428,-2.342c0.832,-2.291 1.557,-3.43 2.184,-3.43l3.74,2.023C60.852,33.252 61.477,32.313 62.131,31.66z" id="path_4"/><path fill="#213e95" d="M58.07,26.828c1.018,0 2.154,0.885 3.434,2.648c-0.34,0.807 -1.018,1.744 -2.029,2.809H59.16c-0.904,-0.205 -1.898,-0.777 -2.963,-1.717v-0.465C56.277,29.271 56.898,28.18 58.07,26.828z" id="path_5"/><path fill="#213e95" d="M71.428,47.283c-0.246,0 -0.547,0 -0.898,0c-1.391,-0.014 -2.889,-1.059 -4.506,-3.141c-0.619,2.289 -1.711,3.434 -3.275,3.434h-0.154c-1.324,0 -2.416,-0.779 -3.273,-2.344h-0.16c-0.932,1.877 -2.063,2.73 -3.395,2.557c-2.471,0.014 -3.934,-1.15 -4.406,-3.488c-1.738,2.037 -3.607,3.035 -5.6,2.982h-0.252v-4.445h0.082c3.146,-0.234 5.482,-1.305 7.021,-3.217c0.205,0 0.313,0.152 0.313,0.467l-0.16,1.092c0.832,1.664 1.922,2.496 3.273,2.496c1.279,0 2.576,-1.246 3.902,-3.742h0.16l0.465,0.467v1.092c0,0.984 0.732,1.557 2.184,1.717h0.314c1.35,0 2.602,-1.352 3.746,-4.061h0.154c0.207,0 0.313,0.473 0.313,1.404c0.572,1.318 1.957,2.078 4.152,2.285V47.283z" id="path_6"/><path fill="#213e95" d="M57.283,16.178h1.545c1.871,0 2.809,0.699 2.809,2.104c-1.211,3.275 -2.684,5.012 -4.414,5.213l-2.043,0.273c-0.326,0 -0.459,-0.094 -0.412,-0.273c1.65,-0.873 3.195,-1.912 4.627,-3.104c-0.508,-0.471 -1.064,-0.705 -1.678,-0.705h-0.434l-1.676,0.141l-0.135,-0.141v-0.273C56.264,17.256 56.871,16.178 57.283,16.178z" id="path_7"/><path fill="#008046" d="M45.602,47.297c-0.139,0.014 -0.287,0.02 -0.426,0.02h-0.787c-1.217,0 -2.049,-0.1 -2.496,-0.313c-0.904,3.502 -1.963,5.645 -3.174,6.43s-3.947,1.451 -8.209,1.998h-0.311c-0.939,-0.107 -1.404,-0.26 -1.404,-0.467c0,-0.313 0.777,-0.678 2.336,-1.092c6.137,-2.809 9.205,-4.84 9.205,-6.084c0,-0.52 -0.727,-1.717 -2.184,-3.588c-0.313,-0.525 -0.465,-1.199 -0.465,-2.029v-1.559c0,-0.785 0.152,-1.197 0.465,-1.252c1.352,2.07 3.643,3.223 6.863,3.469c0.199,0 0.393,0 0.586,-0.014V47.297z" id="path_8"/><path fill="#008046" d="M42.307,28.479c0.16,-0.094 0.207,0.053 0.139,0.434c-0.885,2.076 -2.242,3.527 -4.074,4.346l-6.729,3.375c-0.285,-0.08 -0.34,-0.313 -0.158,-0.705c0.896,-1.73 1.51,-2.756 1.836,-3.082L42.307,28.479z" id="path_9"/><path fill="#DD2C00" d="M15.027,49.033c2.184,0.627 3.275,1.406 3.275,2.344l-2.029,3.275c-2.031,-0.834 -3.123,-1.459 -3.275,-1.871C12.998,51.816 13.672,50.572 15.027,49.033z" id="path_10"/><path fill="#DD2C00" d="M5.662,34.369h0.16l0.313,0.313c-0.832,1.846 -1.252,3.098 -1.252,3.742c0,3.041 2.916,4.813 8.742,5.305l1.869,0.313c1.871,0 4.678,-0.572 8.422,-1.717l2.189,-1.246c-0.734,-1.322 -1.199,-2.469 -1.406,-3.434l0.314,-2.963h0.305c1.252,1.299 1.877,3.59 1.877,6.863c0,3.148 -2.756,5.279 -8.273,6.398l-2.336,0.313c-8.74,0 -13.105,-2.863 -13.105,-8.58C3.48,37.285 4.211,35.516 5.662,34.369z" id="path_11"/><path fill="#DD2C00" d="M17.018,22.215c1.6,0 2.396,0.984 2.396,2.949c0,3.127 -2.67,5.797 -8.014,7.994c-0.766,0.234 -0.859,-0.047 -0.271,-0.838c0.145,-0.301 1.402,-1.238 3.779,-2.809v-0.135c-1.025,-0.42 -1.537,-1.311 -1.537,-2.676c0.678,-2.988 1.756,-4.486 3.234,-4.486H17.018L17.018,22.215zM14.635,25.59c0,0.832 0.705,1.346 2.109,1.545h0.273c0.521,0 0.852,-0.193 0.992,-0.566c0,-0.846 -0.611,-1.504 -1.83,-1.971C15.646,24.598 15.133,24.932 14.635,25.59z" id="path_12"/></svg>