<svg id="vector" xmlns="http://www.w3.org/2000/svg" width="75" height="67" viewBox="0 0 83 73"><path fill="#000001" d="M62.977,48.48h0.313c1.066,0.234 2.211,0.859 3.436,1.879v0.152c-0.707,2.131 -1.324,3.275 -1.871,3.436c-1.592,-0.313 -2.783,-0.832 -3.588,-1.564v-0.154C61.266,51.004 61.84,49.76 62.977,48.48z" id="path_0"/><path fill="#000001" d="M68.754,47.076h0.154c1.064,0.16 2.262,0.887 3.586,2.184v0.16l-1.869,3.275c-2.496,-0.805 -3.746,-1.484 -3.746,-2.029C67.684,48.275 68.307,47.076 68.754,47.076z" id="path_1"/><path fill="#000001" d="M61.592,41.346c4.086,0.039 6.371,-0.727 6.869,-2.303c0,-0.545 -0.518,-1.896 -1.563,-4.055l0.471,-4.053h0.307c1.359,2.336 2.029,4.68 2.029,7.016v1.404c0,0.939 -0.225,1.924 -0.67,2.955c-0.447,1.031 -1.139,1.904 -2.066,2.604c-0.93,0.705 -2.721,0.998 -5.377,0.879V41.346z" id="path_2"/><path fill="#000001" d="M68.989,17.316c1.598,0 2.395,0.984 2.395,2.947c0,3.129 -2.668,5.799 -8.014,7.996c-0.766,0.232 -0.859,-0.047 -0.271,-0.84c0.145,-0.299 1.402,-1.238 3.781,-2.809v-0.133c-1.027,-0.42 -1.539,-1.311 -1.539,-2.676c0.678,-2.988 1.756,-4.486 3.234,-4.486H68.989L68.989,17.316zM66.606,20.691c0,0.83 0.703,1.344 2.109,1.543h0.273c0.518,0 0.852,-0.191 0.99,-0.564c0,-0.846 -0.611,-1.506 -1.828,-1.971C67.618,19.699 67.104,20.031 66.606,20.691z" id="path_3"/><path fill="#f06022" d="M54.112,28.047c0.531,0 1.781,0.625 3.746,1.869c0,0.779 -0.625,2.031 -1.877,3.748c-2.496,-0.805 -3.74,-1.537 -3.74,-2.184C52.307,30.896 52.924,29.75 54.112,28.047z" id="path_4"/><path fill="#f06022" d="M48.432,41.346c1.111,0.014 1.799,-0.006 2.07,-0.061c2.344,-0.711 3.939,-2.229 4.801,-4.539c0.127,-0.445 0.385,-0.5 0.777,-0.16c0.207,0.18 0.367,0.912 0.467,2.184c1.418,1.91 3.188,2.77 5.303,2.576h0.414v4.447h-0.1c-3.314,-0.152 -5.758,-1.664 -7.336,-4.527h-0.152c-1.105,2.33 -2.563,3.762 -4.365,4.295c-0.547,0.152 -1.174,0.232 -1.879,0.232V41.346z" id="path_5"/><path fill="#f06022" d="M54.436,16.91h1.545c1.871,0 2.809,0.697 2.809,2.104c-1.211,3.275 -2.682,5.012 -4.414,5.211l-2.043,0.273c-0.326,0 -0.459,-0.092 -0.412,-0.273c1.65,-0.871 3.195,-1.91 4.627,-3.102c-0.506,-0.473 -1.066,-0.705 -1.678,-0.705h-0.434l-1.676,0.141l-0.133,-0.141v-0.273C53.418,17.988 54.024,16.91 54.436,16.91z" id="path_6"/><path fill="#213e95" d="M32.543,41.346c1.73,0.146 3.203,-0.027 4.428,-0.506l-0.646,-1.172c-0.605,-3.436 -0.332,-5.703 0.818,-6.814c1.158,-1.113 2.404,-1.625 3.729,-1.533c2.576,0.121 4.027,1.473 4.367,4.055v0.939c0,2.156 -0.313,3.508 -0.934,4.053c-0.391,0.406 0.494,0.746 2.65,1.018l0.506,-0.02c0.391,-0.014 0.838,-0.02 1.344,-0.02v4.447l-1.578,0.02c-2.936,-0.014 -5.158,-0.387 -6.67,-1.111c-2.076,0.725 -3.693,1.092 -4.832,1.092h-0.627c-0.777,0 -1.629,0 -2.555,0V41.346L32.543,41.346zM38.061,36.939v0.313c0.654,1.119 1.639,1.898 2.963,2.336c0.885,-0.152 1.77,-0.518 2.656,-1.09c-0.393,-1.459 -1.691,-2.291 -3.9,-2.496C38.635,36.314 38.061,36.627 38.061,36.939z" id="path_7"/><path fill="#213e95" d="M39,23.68c1.35,0 2.596,0.832 3.74,2.496c-0.959,2.184 -1.689,3.275 -2.184,3.275c-2.102,-1.039 -3.246,-1.717 -3.434,-2.031C37.124,26.436 37.749,25.184 39,23.68z" id="path_8"/><path fill="#213e95" d="M44.692,12.736c0.16,-0.094 0.207,0.053 0.141,0.432c-0.885,2.078 -2.244,3.529 -4.074,4.348l-6.73,3.375c-0.285,-0.08 -0.338,-0.313 -0.16,-0.707c0.9,-1.729 1.512,-2.754 1.838,-3.08L44.692,12.736z" id="path_9"/><path fill="#008046" d="M20.116,22.447c2.184,1.092 3.275,2.031 3.275,2.811c-1.039,2.049 -1.664,3.096 -1.871,3.121h-0.313c-1.596,-0.813 -2.59,-1.537 -2.961,-2.189C18.604,25.012 19.231,23.76 20.116,22.447z" id="path_10"/><path fill="#008046" d="M33.317,45.865c-0.307,0.014 -0.621,0.02 -0.932,0.02l-1.484,-0.02c-5.406,-0.014 -8.363,-1.99 -8.854,-5.943l0.152,-1.404v-1.252h-0.152c-5.826,3.201 -8.74,6.943 -8.74,11.236c0,3.275 1.93,5.877 5.777,7.801c4.545,1.145 8.76,1.717 12.633,1.717l3.902,-0.16l0.152,0.16v0.154c-4.434,2.496 -7.447,3.748 -9.047,3.748h-1.404c-5.59,0 -9.332,-1.459 -11.229,-4.375c-1.457,-1.611 -2.184,-4.16 -2.184,-7.641v-0.625c0,-5.094 2.756,-9.619 8.268,-13.574v-0.152l-4.84,-0.313c-2.168,0 -3.52,0.984 -4.055,2.961l-0.158,0.16h-0.314c-0.205,0 -0.305,-0.16 -0.305,-0.473c0.791,-4.572 2.609,-6.863 5.457,-6.863h0.627l8.107,0.314l6.244,-0.314l0.154,0.467c-0.768,2.496 -1.652,3.748 -2.65,3.748c-3.223,0.766 -4.84,1.338 -4.84,1.717v1.404c0.34,1.938 3.109,2.955 8.307,3.055h0.475c0.324,0 0.631,-0.006 0.932,-0.012V45.865z" id="path_11"/><path fill="#008046" d="M20.723,11.08c1.596,0 2.395,0.984 2.395,2.947c0,3.129 -2.668,5.799 -8.014,7.994c-0.766,0.232 -0.859,-0.045 -0.273,-0.838c0.146,-0.301 1.404,-1.238 3.781,-2.811v-0.131c-1.025,-0.42 -1.537,-1.313 -1.537,-2.676c0.678,-2.99 1.756,-4.486 3.234,-4.486H20.723L20.723,11.08zM18.34,14.453c0,0.832 0.705,1.344 2.109,1.545h0.273c0.518,0 0.852,-0.193 0.99,-0.566c0,-0.846 -0.613,-1.504 -1.83,-1.971C19.352,13.461 18.838,13.795 18.34,14.453z" id="path_12"/></svg>