<svg id="vector" xmlns="http://www.w3.org/2000/svg" width="75" height="67" viewBox="0 0 83 73"><path fill="#000001" d="M65.663,22.885h0.312c1.067,0.234 2.212,0.854 3.437,1.871v0.152c-0.706,2.139 -1.326,3.275 -1.872,3.436c-1.59,-0.313 -2.781,-0.832 -3.586,-1.559v-0.16C63.953,25.4 64.524,24.156 65.663,22.885z" id="path_0"/><path fill="#000001" d="M71.441,21.48h0.152c1.064,0.152 2.264,0.879 3.588,2.184v0.152l-1.87,3.275c-2.496,-0.805 -3.748,-1.477 -3.748,-2.023C70.369,22.672 70.995,21.48 71.441,21.48z" id="path_1"/><path fill="#000001" d="M64.278,39.127c4.088,0.041 6.371,-0.725 6.87,-2.303c0,-0.547 -0.521,-1.898 -1.565,-4.055l0.474,-4.053h0.307c1.356,2.336 2.029,4.68 2.029,7.016v1.404c0,0.938 -0.226,1.924 -0.673,2.955c-0.446,1.033 -1.139,1.904 -2.063,2.604c-0.933,0.705 -2.723,0.998 -5.379,0.879V39.127z" id="path_2"/><path fill="#000001" d="M74.164,13.094c0.159,-0.094 0.206,0.053 0.138,0.432c-0.885,2.078 -2.242,3.529 -4.071,4.348l-6.73,3.375c-0.286,-0.08 -0.341,-0.314 -0.159,-0.705c0.896,-1.73 1.511,-2.758 1.837,-3.082L74.164,13.094z" id="path_3"/><path fill="#0992d1" d="M42.532,37.67c1.277,0 2.21,0 2.809,0h0.626c1.87,-0.248 4.666,-1.045 8.388,-2.396c-1.252,-1.047 -3.175,-1.824 -5.772,-2.344c-1.537,0 -2.576,0.725 -3.122,2.184c-0.193,0.432 -0.365,0.545 -0.52,0.338c-0.146,-0.199 -0.185,-0.465 -0.104,-0.805c0.938,-3.148 2.182,-4.719 3.746,-4.719h1.092c1.037,0 2.915,0.586 5.624,1.758c2.711,1.164 5.047,1.637 7.011,1.404c0.246,0 0.352,0.152 0.313,0.465c-0.42,2.596 -1.197,3.9 -2.343,3.9l-0.779,0.154v0.313c0.394,1.078 2.189,1.471 5.405,1.172v4.426c-4.653,0.246 -6.976,-1.564 -6.962,-5.438c-1.665,0.246 -3.922,1.018 -6.771,2.33c-2.85,1.305 -5.724,1.863 -8.64,1.684V37.67z" id="path_4"/><path fill="#0992d1" d="M50.313,42.721c2.183,1.092 3.282,2.031 3.282,2.811c-1.046,2.049 -1.666,3.094 -1.878,3.115h-0.313c-1.599,-0.807 -2.584,-1.531 -2.962,-2.184C48.808,45.283 49.434,44.033 50.313,42.721z" id="path_5"/><path fill="#0992d1" d="M53.163,16.641h1.544c1.87,0 2.809,0.699 2.809,2.105c-1.211,3.273 -2.682,5.012 -4.413,5.211l-2.044,0.273c-0.326,0 -0.458,-0.094 -0.412,-0.273c1.65,-0.871 3.194,-1.91 4.626,-3.102c-0.507,-0.473 -1.064,-0.707 -1.677,-0.707h-0.433l-1.678,0.141l-0.135,-0.141v-0.271C52.143,17.719 52.749,16.641 53.163,16.641z" id="path_6"/><path fill="#DD2C00" d="M42.431,42.129c-0.138,0.014 -0.284,0.02 -0.425,0.02H41.22c-1.217,0 -2.05,-0.1 -2.496,-0.313c-0.904,3.502 -1.964,5.645 -3.175,6.43s-3.947,1.451 -8.208,1.998h-0.313c-0.938,-0.107 -1.403,-0.26 -1.403,-0.467c0,-0.313 0.777,-0.678 2.336,-1.092c6.137,-2.809 9.207,-4.84 9.207,-6.084c0,-0.52 -0.728,-1.717 -2.185,-3.588c-0.314,-0.525 -0.466,-1.197 -0.466,-2.029v-1.559c0,-0.785 0.151,-1.197 0.466,-1.252c1.352,2.07 3.641,3.223 6.862,3.469c0.201,0 0.395,0 0.585,-0.014V42.129z" id="path_7"/><path fill="#DD2C00" d="M38.025,51.781c0.16,-0.088 0.207,0.053 0.139,0.432c-0.886,2.078 -2.242,3.529 -4.072,4.348l-6.729,3.375c-0.287,-0.08 -0.34,-0.313 -0.16,-0.699c0.897,-1.73 1.512,-2.756 1.837,-3.082L38.025,51.781z" id="path_8"/><path fill="#000001" d="M29.133,25.768c0.999,-0.086 1.518,0.172 1.557,0.785v0.932c-0.26,2.496 -0.519,3.748 -0.778,3.748h-0.16c-0.193,-0.732 -0.819,-1.092 -1.87,-1.092c-2.157,0 -4.446,1.611 -6.862,4.832v0.314c0,0.518 1.771,0.99 5.305,1.402c0.932,0.912 1.405,1.898 1.405,2.963c0,2.943 -2.604,6.111 -7.802,9.52c-1.352,0.725 -2.703,1.092 -4.061,1.092c-3.561,0 -6.104,-2.184 -7.643,-6.551c-0.491,-1.523 -0.538,-3.648 -0.133,-6.371c0.4,-2.721 1.605,-4.406 3.607,-5.059l0.273,0.041c0.386,0.207 0.107,0.799 -0.853,1.785c-0.951,0.977 -1.558,2.256 -1.804,3.834v1.244c0,2.496 1.352,4.525 4.055,6.084c0.938,0.418 1.931,0.625 2.968,0.625h0.626c3.016,0 6.032,-1.459 9.047,-4.367l-4.84,-1.09c-0.831,-0.555 -1.244,-1.279 -1.244,-2.191v-1.871c0.041,-2.861 1.392,-5.463 4.054,-7.82C24.972,27.531 26.684,26.6 29.133,25.768z" id="path_9"/><path fill="#000001" d="M15.158,19.092h1.545c1.87,0 2.81,0.699 2.81,2.104c-1.213,3.275 -2.684,5.012 -4.415,5.211l-2.042,0.273c-0.327,0 -0.46,-0.094 -0.413,-0.273c1.649,-0.871 3.194,-1.91 4.626,-3.102c-0.505,-0.473 -1.065,-0.705 -1.678,-0.705h-0.433l-1.677,0.139L13.349,22.6v-0.273C14.141,20.17 14.747,19.092 15.158,19.092z" id="path_10"/></svg>