<svg id="vector" xmlns="http://www.w3.org/2000/svg" width="75" height="67" viewBox="0 0 83 73"><path fill="#DD2C00" d="M67.921,25.016c0.314,0 0.627,1.045 0.939,3.121l1.404,3.121l-0.625,3.59l0.465,8.738v1.398c-0.205,3.568 -0.725,5.645 -1.557,6.244l-0.152,-0.154l0.152,-2.342c0,-2.104 -0.68,-8.813 -2.031,-20.123C67.171,26.213 67.636,25.016 67.921,25.016z" id="path_0"/><path fill="#DD2C00" d="M72.581,15.889c0.16,-0.094 0.205,0.053 0.139,0.434c-0.885,2.076 -2.242,3.527 -4.072,4.346l-6.73,3.375c-0.285,-0.08 -0.34,-0.313 -0.158,-0.705c0.896,-1.73 1.51,-2.756 1.838,-3.082L72.581,15.889z" id="path_1"/><path fill="#213e95" d="M50.161,28.709c0.646,0 1.793,0.779 3.428,2.338c0,0.518 -0.617,1.662 -1.869,3.434h-0.313c-0.645,0 -1.639,-0.627 -2.963,-1.871v-0.16C48.444,31.824 49.017,30.58 50.161,28.709z" id="path_2"/><path fill="#213e95" d="M55.78,27.93c2.596,1.113 3.895,1.998 3.895,2.65c-0.152,0.492 -0.881,1.584 -2.184,3.273c-1.736,-0.672 -2.988,-1.457 -3.742,-2.336C54.296,29.775 54.968,28.576 55.78,27.93z" id="path_3"/><path fill="#213e95" d="M52.034,23.404c2.389,0.984 3.586,1.816 3.586,2.496l-2.031,3.121h-0.152c-0.438,0 -1.637,-0.625 -3.588,-1.877C50.808,24.648 51.54,23.404 52.034,23.404z" id="path_4"/><path fill="#213e95" d="M49.437,45.809c4.086,0.041 6.371,-0.725 6.869,-2.303c0,-0.545 -0.518,-1.896 -1.564,-4.053l0.473,-4.055h0.307c1.357,2.338 2.029,4.68 2.029,7.018v1.402c0,0.939 -0.227,1.924 -0.672,2.957c-0.445,1.031 -1.137,1.902 -2.064,2.602c-0.932,0.707 -2.721,0.998 -5.377,0.879V45.809z" id="path_5"/><path fill="#213e95" d="M59.249,14.623c0.16,-0.092 0.205,0.055 0.139,0.434c-0.885,2.076 -2.242,3.527 -4.074,4.348l-6.73,3.373c-0.283,-0.078 -0.338,-0.313 -0.158,-0.705c0.898,-1.73 1.51,-2.756 1.838,-3.082L59.249,14.623z" id="path_6"/><path fill="#008046" d="M49.937,50.27c-0.141,0.012 -0.287,0.02 -0.426,0.02h-0.787c-1.217,0 -2.049,-0.1 -2.496,-0.313c-0.904,3.5 -1.963,5.645 -3.174,6.43c-1.211,0.787 -3.947,1.451 -8.209,1.998h-0.313c-0.938,-0.107 -1.404,-0.26 -1.404,-0.467c0,-0.313 0.779,-0.68 2.338,-1.092c6.137,-2.809 9.205,-4.838 9.205,-6.084c0,-0.52 -0.725,-1.717 -2.184,-3.588c-0.313,-0.525 -0.467,-1.197 -0.467,-2.031v-1.557c0,-0.785 0.154,-1.197 0.467,-1.25c1.352,2.07 3.641,3.221 6.863,3.467c0.201,0 0.393,0 0.586,-0.014V50.27z" id="path_7"/><path fill="#008046" d="M40.71,31.125h1.545c1.871,0 2.809,0.699 2.809,2.104c-1.211,3.275 -2.684,5.012 -4.412,5.213l-2.045,0.271c-0.326,0 -0.459,-0.092 -0.414,-0.271c1.652,-0.873 3.197,-1.91 4.629,-3.102c-0.508,-0.473 -1.064,-0.707 -1.68,-0.707H40.71l-1.678,0.141l-0.133,-0.141v-0.273C39.69,32.205 40.298,31.125 40.71,31.125z" id="path_8"/><path fill="#000001" d="M19.923,41.869h0.313c1.457,0.332 2.754,1.117 3.9,2.336v0.313c-0.1,0.832 -0.727,1.924 -1.871,3.275c-2.703,-0.904 -4.053,-1.691 -4.053,-2.336C18.858,43.586 19.429,42.389 19.923,41.869z" id="path_9"/><path fill="#000001" d="M28.196,38.746h0.307c0.365,0 1.25,2.344 2.656,7.023l0.152,0.619c0,3.668 -0.885,6.324 -2.65,7.961c-2.494,2.703 -5.457,4.055 -8.893,4.055c-2.809,-0.627 -4.625,-1.244 -5.459,-1.871c-2.709,-2.316 -4.061,-5.178 -4.061,-8.58c0,-2.861 1.252,-5.564 3.748,-8.113l0.152,-0.154h0.314l0.313,0.307c0,0.266 -0.727,1.404 -2.182,3.434c-0.42,0.727 -0.68,1.717 -0.781,2.963c0,2.424 1.246,4.5 3.742,6.244c2.441,0.938 4.107,1.404 4.992,1.404c2.236,0 4.885,-0.992 7.955,-2.963c1.25,-1.098 1.877,-1.77 1.877,-2.029l-2.184,-6.084l-0.16,-1.092L28.196,38.746z" id="path_10"/><path fill="#000001" d="M25.612,25.781c0.16,-0.094 0.207,0.053 0.141,0.432c-0.885,2.078 -2.242,3.529 -4.074,4.346l-6.729,3.377c-0.287,-0.08 -0.34,-0.314 -0.16,-0.707c0.898,-1.73 1.512,-2.756 1.836,-3.082L25.612,25.781z" id="path_11"/></svg>