<svg id="vector" xmlns="http://www.w3.org/2000/svg" width="75" height="67" viewBox="0 0 83 73"><path fill="#DD2C00" d="M78.096,52.803c-0.469,0 -1.289,-0.561 -2.473,-1.682c0,-0.373 0.451,-1.197 1.352,-2.473h0.227c0.465,0 1.178,0.451 2.131,1.348v0.115C79.333,50.561 78.92,51.457 78.096,52.803z" id="path_0"/><path fill="#DD2C00" d="M74.051,53.363c-1.867,-0.801 -2.805,-1.438 -2.805,-1.906c0.113,-0.355 0.637,-1.141 1.574,-2.357c1.25,0.484 2.152,1.049 2.693,1.682C75.12,52.037 74.633,52.898 74.051,53.363z" id="path_1"/><path fill="#DD2C00" d="M71.6,46.781c-6.232,0.264 -9.586,-0.023 -10.057,-0.867c-0.473,-0.844 1.684,-1.273 6.463,-1.293c0.943,-0.02 1.543,-0.043 1.799,-0.082c3.799,-0.588 6.117,-1.227 6.959,-1.91v-0.111l-1.236,-2.924V39.15c0,-1.5 0.188,-2.248 0.563,-2.248c1.049,2.004 1.57,3.574 1.57,4.715v0.225c0,2.602 -1.307,4.102 -3.928,4.494C73.067,46.514 72.358,46.66 71.6,46.781z" id="path_2"/><path fill="#DD2C00" d="M78.911,29.447c0.113,-0.066 0.148,0.039 0.1,0.313c-0.637,1.496 -1.613,2.539 -2.93,3.129l-4.844,2.428c-0.207,-0.057 -0.244,-0.225 -0.115,-0.508c0.646,-1.244 1.088,-1.982 1.322,-2.219L78.911,29.447z" id="path_3"/><path fill="#008046" d="M55.288,43.682h0.438c1.48,-0.158 2.725,-1.053 3.736,-2.684c0.148,-0.334 0.297,-0.521 0.443,-0.561h0.115l0.336,0.342c-0.047,0.426 -0.119,0.727 -0.225,0.895c0.656,1.197 1.441,1.797 2.355,1.797l0.115,0.109c1.629,-3.592 3.461,-5.389 5.5,-5.389c1.631,0 2.828,0.676 3.594,2.021v0.676c0,4.115 -2.545,6.176 -7.637,6.176l-1.682,-0.111c-0.521,1.418 -0.861,2.133 -1.012,2.133l-0.109,-0.109v-0.117l0.336,-1.906v-0.225c-1.107,-0.619 -1.963,-1.48 -2.582,-2.582c-0.578,1.896 -1.82,2.813 -3.723,2.734V43.682L55.288,43.682zM63.723,43.807h0.227c2.543,0 4.715,-0.375 6.51,-1.121c0,-0.805 -0.746,-1.365 -2.242,-1.688h-0.451C65.971,40.998 64.625,41.938 63.723,43.807z" id="path_4"/><path fill="#008046" d="M63.389,33.367c1.867,0.598 2.807,1.084 2.807,1.457v0.225c-0.598,1.648 -1.088,2.473 -1.461,2.473c-1.514,-0.619 -2.377,-1.031 -2.582,-1.236v-0.225C62.454,34.939 62.862,34.037 63.389,33.367z" id="path_5"/><path fill="#008046" d="M61.958,26.01h1.111c1.346,0 2.02,0.502 2.02,1.512c-0.871,2.359 -1.93,3.609 -3.174,3.752l-1.473,0.197c-0.234,0 -0.33,-0.068 -0.297,-0.197c1.188,-0.627 2.299,-1.375 3.33,-2.232c-0.363,-0.34 -0.768,-0.508 -1.207,-0.508h-0.311l-1.207,0.102l-0.096,-0.102v-0.197C61.223,26.785 61.659,26.01 61.958,26.01z" id="path_6"/><path fill="#213e95" d="M40.379,42.629c0.92,0 1.59,0 2.021,0h0.451c1.346,-0.178 3.357,-0.754 6.035,-1.727c-0.9,-0.75 -2.285,-1.313 -4.154,-1.686c-1.105,0 -1.854,0.521 -2.246,1.572c-0.139,0.311 -0.264,0.393 -0.375,0.242c-0.105,-0.143 -0.133,-0.334 -0.076,-0.578c0.676,-2.266 1.572,-3.398 2.697,-3.398h0.787c0.746,0 2.098,0.424 4.049,1.266c1.949,0.838 3.631,1.18 5.045,1.012c0.176,0 0.252,0.109 0.223,0.334c-0.301,1.869 -0.861,2.809 -1.686,2.809l-0.561,0.109v0.225c0.283,0.59 1.576,0.873 3.891,0.844v3.186c-3.35,0.178 -5.021,-1.125 -5.012,-3.914c-1.197,0.178 -2.822,0.734 -4.871,1.678c-2.053,0.939 -4.121,1.342 -6.219,1.213V42.629z" id="path_7"/><path fill="#213e95" d="M52.422,27.609c0.115,-0.068 0.148,0.037 0.102,0.311c-0.637,1.494 -1.615,2.539 -2.932,3.129l-4.846,2.428c-0.205,-0.057 -0.244,-0.225 -0.113,-0.506c0.646,-1.246 1.088,-1.984 1.322,-2.219L52.422,27.609z" id="path_8"/><path fill="#000001" d="M27.922,42.629h0.734c1.256,-0.207 2.26,-0.887 3.033,-2.037c0,-0.465 -0.566,-2.229 -1.688,-5.275c-0.422,-0.852 -0.527,-1.682 -0.316,-2.49c0.211,-0.811 0.953,-1.738 2.223,-2.789c2.414,-1.758 5.859,-4.004 10.334,-6.734h0.109l0.115,0.334l-2.246,4.27h-0.115l-0.109,-0.676c-0.355,0 -3.125,1.797 -8.307,5.389l-0.902,0.787c1.256,3.984 3.053,6.727 5.391,8.225c1.188,0.768 2.855,1.098 4.996,0.982v3.215c-4.063,0.139 -6.959,-1.494 -8.699,-4.896H32.36c-0.451,3.271 -1.76,4.906 -3.93,4.896h-0.508V42.629z" id="path_9"/><path fill="#000001" d="M34.409,19.639c1.152,0 1.727,0.707 1.727,2.121c0,2.252 -1.92,4.172 -5.768,5.754c-0.553,0.166 -0.619,-0.035 -0.197,-0.604c0.105,-0.217 1.01,-0.891 2.723,-2.021v-0.096c-0.74,-0.303 -1.109,-0.945 -1.109,-1.926c0.49,-2.152 1.264,-3.229 2.33,-3.229H34.409L34.409,19.639zM32.696,22.066c0,0.598 0.506,0.967 1.52,1.111h0.193c0.375,0 0.615,-0.139 0.715,-0.408c0,-0.607 -0.441,-1.082 -1.316,-1.418C33.422,21.352 33.053,21.592 32.696,22.066z" id="path_10"/><path fill="#213e95" d="M28.614,45.828l-1.266,-0.014c-0.699,3.08 -2.553,4.637 -5.557,4.674c-1.609,0.072 -2.414,0.043 -2.414,-0.084c0.148,-0.283 1.225,-0.826 3.229,-1.631c2.061,-1.307 3.301,-2.15 3.732,-2.523l0.115,-0.336l-1.965,-0.311c-1.434,-0.375 -2.238,-1.094 -2.416,-2.162v-0.225c0,-1.814 0.447,-2.975 1.348,-3.482l0.674,-0.111c1.328,0 2.412,0.926 3.254,2.779c0.537,0.188 0.959,0.277 1.266,0.268V45.828z" id="path_11"/><path fill="#213e95" d="M23.407,30.387h1.109c1.348,0 2.023,0.504 2.023,1.516c-0.873,2.355 -1.932,3.607 -3.178,3.75l-1.471,0.197c-0.234,0 -0.33,-0.068 -0.297,-0.197c1.189,-0.627 2.301,-1.375 3.33,-2.232c-0.363,-0.34 -0.768,-0.508 -1.207,-0.508h-0.311l-1.209,0.102l-0.096,-0.102v-0.197C22.674,31.164 23.108,30.387 23.407,30.387z" id="path_12"/><path fill="#000001" d="M10.629,39.092h0.225c1.049,0.24 1.982,0.805 2.809,1.682v0.225c-0.072,0.6 -0.523,1.385 -1.348,2.357c-1.945,-0.65 -2.918,-1.217 -2.918,-1.682C9.864,40.328 10.274,39.467 10.629,39.092z" id="path_13"/><path fill="#000001" d="M16.583,36.846h0.221c0.264,0 0.9,1.686 1.912,5.055l0.111,0.445c0,2.639 -0.639,4.551 -1.908,5.729c-1.795,1.945 -3.928,2.918 -6.4,2.918c-2.02,-0.451 -3.328,-0.896 -3.928,-1.346c-1.949,-1.668 -2.924,-3.727 -2.924,-6.176c0,-2.059 0.902,-4.004 2.697,-5.84l0.111,-0.109H6.7l0.227,0.219c0,0.193 -0.523,1.012 -1.572,2.473c-0.303,0.523 -0.488,1.236 -0.559,2.133c0,1.742 0.895,3.238 2.691,4.492c1.758,0.676 2.955,1.012 3.594,1.012c1.607,0 3.516,-0.713 5.723,-2.131c0.9,-0.791 1.352,-1.275 1.352,-1.463l-1.572,-4.379l-0.115,-0.785L16.583,36.846z" id="path_14"/><path fill="#000001" d="M14.725,27.514c0.115,-0.066 0.148,0.037 0.102,0.311c-0.639,1.496 -1.615,2.539 -2.934,3.129l-4.842,2.428c-0.207,-0.057 -0.246,-0.225 -0.115,-0.508c0.645,-1.244 1.086,-1.982 1.322,-2.217L14.725,27.514z" id="path_15"/></svg>