<svg id="vector" xmlns="http://www.w3.org/2000/svg" width="75" height="67" viewBox="0 0 83 73"><path fill="#213e95" d="M59.207,53.115h0.314c1.064,0.232 2.209,0.857 3.435,1.877v0.154c-0.706,2.129 -1.324,3.273 -1.871,3.434c-1.591,-0.313 -2.782,-0.832 -3.588,-1.564v-0.152C57.497,55.639 58.07,54.393 59.207,53.115z" id="path_0"/><path fill="#213e95" d="M64.985,51.711h0.152c1.066,0.16 2.265,0.885 3.589,2.184v0.158l-1.871,3.275c-2.496,-0.805 -3.748,-1.484 -3.748,-2.029C63.913,52.908 64.539,51.711 64.985,51.711z" id="path_1"/><path fill="#213e95" d="M57.823,45.979c4.087,0.041 6.371,-0.725 6.87,-2.303c0,-0.547 -0.519,-1.896 -1.564,-4.053l0.473,-4.055h0.306c1.357,2.338 2.03,4.68 2.03,7.016v1.404c0,0.939 -0.227,1.924 -0.673,2.955c-0.444,1.033 -1.137,1.904 -2.063,2.604c-0.932,0.705 -2.723,0.998 -5.378,0.879V45.979z" id="path_2"/><path fill="#213e95" d="M69.525,24.818c0.16,-0.094 0.207,0.053 0.141,0.432c-0.886,2.078 -2.244,3.529 -4.074,4.348l-6.729,3.375c-0.287,-0.08 -0.339,-0.313 -0.16,-0.707c0.899,-1.73 1.512,-2.754 1.837,-3.082L69.525,24.818z" id="path_3"/><path fill="#000001" d="M47.419,33.092c0.646,0 1.79,0.779 3.429,2.336c0,0.52 -0.619,1.664 -1.871,3.436h-0.312c-0.653,0 -1.638,-0.625 -2.962,-1.877v-0.154C45.703,36.207 46.274,34.963 47.419,33.092z" id="path_4"/><path fill="#000001" d="M53.031,32.307c2.602,1.119 3.9,2.004 3.9,2.656c-0.154,0.492 -0.88,1.584 -2.185,3.275c-1.743,-0.68 -2.987,-1.459 -3.74,-2.344C51.553,34.156 52.226,32.959 53.031,32.307z" id="path_5"/><path fill="#000001" d="M44.663,45.979c1.111,0.014 1.798,-0.006 2.071,-0.059c2.342,-0.713 3.939,-2.23 4.799,-4.541c0.125,-0.445 0.387,-0.498 0.778,-0.16c0.207,0.18 0.367,0.912 0.466,2.184c1.418,1.912 3.189,2.77 5.305,2.576h0.414v4.447h-0.1c-3.315,-0.154 -5.759,-1.664 -7.337,-4.527h-0.152c-1.105,2.33 -2.563,3.762 -4.366,4.295c-0.546,0.152 -1.172,0.232 -1.878,0.232V45.979z" id="path_6"/><path fill="#000001" d="M50.787,20.664h1.544c1.872,0 2.811,0.699 2.811,2.104c-1.213,3.275 -2.684,5.012 -4.413,5.213l-2.044,0.273c-0.328,0 -0.46,-0.094 -0.413,-0.273c1.651,-0.871 3.196,-1.91 4.625,-3.102c-0.505,-0.473 -1.064,-0.707 -1.677,-0.707h-0.433l-1.678,0.141l-0.133,-0.141V23.9C49.769,21.742 50.375,20.664 50.787,20.664z" id="path_7"/><path fill="#DD2C00" d="M33.321,45.979c0.025,0 0.059,0 0.094,0c2.494,-0.152 3.926,-1.271 4.292,-3.355c-0.938,-6.236 -1.404,-10.609 -1.404,-13.105c0,-0.959 0.42,-2.211 1.252,-3.74l0.152,0.152l0.313,0.313l-0.158,1.092c0.133,7.01 1.018,12.441 2.656,16.303c0.624,1.404 2.154,2.189 4.598,2.342v4.447c-3.354,-0.053 -5.61,-1.816 -6.782,-5.305h-0.16c-1.078,3.494 -2.694,5.264 -4.852,5.305V45.979z" id="path_8"/><path fill="#DD2C00" d="M38.526,14.42c1.597,0 2.396,0.986 2.396,2.949c0,3.129 -2.67,5.799 -8.015,7.994c-0.765,0.234 -0.858,-0.047 -0.273,-0.838c0.146,-0.299 1.404,-1.238 3.781,-2.809v-0.133c-1.025,-0.42 -1.538,-1.313 -1.538,-2.678c0.681,-2.988 1.759,-4.486 3.235,-4.486H38.526L38.526,14.42zM36.144,17.795c0,0.832 0.705,1.346 2.109,1.545h0.273c0.519,0 0.853,-0.193 0.992,-0.564c0,-0.846 -0.614,-1.506 -1.831,-1.971C37.155,16.805 36.643,17.137 36.144,17.795z" id="path_9"/><path fill="#213e95" d="M33.746,50.426l-1.757,-0.02c-0.971,4.279 -3.547,6.443 -7.721,6.496c-2.236,0.1 -3.356,0.061 -3.356,-0.119c0.207,-0.393 1.705,-1.145 4.487,-2.264c2.863,-1.818 4.587,-2.988 5.186,-3.508l0.16,-0.467l-2.73,-0.432c-1.989,-0.52 -3.108,-1.518 -3.354,-3.002v-0.313c0,-2.523 0.618,-4.135 1.87,-4.84l0.938,-0.154c1.845,0 3.349,1.285 4.521,3.861c0.745,0.26 1.332,0.387 1.757,0.373V50.426z" id="path_10"/><path fill="#000001" d="M14.709,24.213c0.314,0 0.626,1.045 0.938,3.121l1.405,3.121l-0.626,3.59l0.467,8.738v1.398c-0.207,3.568 -0.726,5.645 -1.559,6.244l-0.154,-0.154l0.154,-2.342c0,-2.104 -0.679,-8.813 -2.03,-20.123C13.956,25.41 14.423,24.213 14.709,24.213z" id="path_11"/><path fill="#213e95" d="M24.779,27.684h1.545c1.87,0 2.811,0.699 2.811,2.104c-1.214,3.275 -2.684,5.012 -4.414,5.213l-2.043,0.271c-0.328,0 -0.461,-0.092 -0.414,-0.271c1.652,-0.873 3.196,-1.912 4.626,-3.104c-0.505,-0.471 -1.064,-0.705 -1.677,-0.705h-0.434l-1.677,0.141l-0.133,-0.141V30.92C23.762,28.762 24.368,27.684 24.779,27.684z" id="path_12"/></svg>