<svg id="vector" xmlns="http://www.w3.org/2000/svg" width="75" height="67" viewBox="0 0 83 73"><path fill="#DD2C00" d="M19.767,18.949c1.252,2.129 1.878,4.213 1.878,6.236c-0.546,3.848 -1.225,5.771 -2.029,5.771l-0.154,-0.152V30.65l0.306,-2.029v-0.16c0,-1.246 -0.519,-3.115 -1.558,-5.611v-0.313C18.729,20.141 19.248,18.949 19.767,18.949z" id="path_0"/><path fill="#000001" d="M64.1,48.65c0.651,0 1.798,0.785 3.435,2.342c0,0.52 -0.626,1.664 -1.876,3.436h-0.307c-0.653,0 -1.644,-0.625 -2.97,-1.877v-0.154C62.382,51.771 62.955,50.527 64.1,48.65z" id="path_1"/><path fill="#000001" d="M69.718,47.871c2.596,1.117 3.9,2.004 3.9,2.656c-0.16,0.492 -0.886,1.584 -2.183,3.275c-1.745,-0.68 -2.995,-1.459 -3.748,-2.344C68.233,49.721 68.912,48.523 69.718,47.871z" id="path_2"/><path fill="#000001" d="M64.786,40.482c0.125,0 0.317,0 0.585,0h0.659c1.663,0 2.729,-0.42 3.202,-1.252v-0.313c-0.786,-2.73 -1.931,-5.213 -3.437,-7.449c0.182,-2.389 0.441,-3.588 0.78,-3.588c0.911,0.732 2.11,3.328 3.588,7.803l0.158,2.029v1.404c-0.497,3.848 -1.976,5.771 -4.446,5.771h-0.505c-0.279,0 -0.472,0.014 -0.585,0.041V40.482z" id="path_3"/><path fill="#000001" d="M72.446,16.984c0.16,-0.092 0.207,0.053 0.141,0.434c-0.886,2.076 -2.243,3.527 -4.074,4.346l-6.729,3.375c-0.287,-0.08 -0.34,-0.313 -0.16,-0.705c0.898,-1.73 1.511,-2.756 1.837,-3.082L72.446,16.984z" id="path_4"/><path fill="#213e95" d="M65.172,44.889c-0.247,0 -0.546,0 -0.898,0c-1.393,-0.014 -2.891,-1.059 -4.507,-3.141c-0.618,2.289 -1.711,3.434 -3.274,3.434h-0.154c-1.324,0 -2.416,-0.779 -3.274,-2.344h-0.159c-0.933,1.879 -2.063,2.73 -3.396,2.557c-2.469,0.014 -3.934,-1.15 -4.407,-3.488c-1.736,2.037 -3.606,2.982 -5.598,2.982h-1.135v-4.445h0.962c3.149,0 5.485,-1.18 7.022,-3.217c0.206,0 0.313,0.152 0.313,0.467l-0.159,1.092c0.83,1.664 1.923,2.496 3.273,2.496c1.277,0 2.576,-1.246 3.9,-3.742h0.16l0.466,0.467v1.092c0,0.984 0.731,1.557 2.185,1.717h0.312c1.352,0 2.604,-1.352 3.749,-4.061h0.151c0.207,0 0.314,0.473 0.314,1.404c0.571,1.578 1.956,2.338 4.153,2.285V44.889z" id="path_5"/><path fill="#213e95" d="M52.357,22.383h1.545c1.87,0 2.809,0.699 2.809,2.104c-1.212,3.275 -2.682,5.014 -4.414,5.213l-2.043,0.271c-0.326,0 -0.459,-0.092 -0.412,-0.271c1.65,-0.873 3.194,-1.912 4.626,-3.104c-0.505,-0.473 -1.064,-0.705 -1.677,-0.705h-0.434l-1.677,0.141l-0.135,-0.141v-0.271C51.34,23.461 51.944,22.383 52.357,22.383z" id="path_6"/><path fill="#DD2C00" d="M28.041,47.172v-0.1c-4.267,-0.18 -6.396,-0.699 -6.396,-1.557V43.02c0,-2.684 1.976,-4.707 5.931,-6.086l0.154,-0.16v-0.152c-1.271,-0.885 -2.418,-1.404 -3.429,-1.564h-0.159l-0.626,0.16c-0.414,-0.107 -0.62,-0.313 -0.62,-0.625c0,-2.291 1.452,-3.43 4.368,-3.43h1.404c4.259,0.008 6.396,0.793 6.396,2.338c-0.493,1.391 -1.277,2.742 -2.342,4.053v0.16c1.69,1.818 3.407,2.73 5.15,2.73h0.841v4.445h-0.687c-3.695,0 -6.451,-1.977 -8.267,-5.932H29.6c-4.161,1.305 -6.238,2.236 -6.238,2.811v0.158l1.092,0.174l2.185,0.141c1.716,0 2.769,0.578 3.161,1.73l0.113,1.23c-0.166,0.699 -0.354,1.357 -0.566,1.971H28.041z" id="path_7"/><path fill="#000001" d="M29.43,46.838c-0.624,2.17 -2.521,4.566 -5.696,7.176c-1.911,1.357 -4.147,2.029 -6.704,2.029c-1.43,-0.326 -2.455,-0.652 -3.073,-0.971c-0.62,-0.328 -1.359,-1.047 -2.231,-2.15c-1.564,-2.078 -2.344,-4.002 -2.344,-5.771c0,-4.213 1.354,-7.588 4.062,-10.139c0.479,-0.338 0.685,-0.285 0.618,0.154c0,0.379 -0.777,1.836 -2.336,4.367c-0.626,1.264 -0.938,2.461 -0.938,3.586c0,1.619 1.145,3.383 3.434,5.307c1.625,0.898 3.388,1.264 5.307,1.09c2.256,0 5.064,-1.557 8.419,-4.678H29.43z" id="path_8"/></svg>