<svg id="vector" xmlns="http://www.w3.org/2000/svg" width="75" height="67" viewBox="0 0 83 73"><path fill="#213e95" d="M69.943,48.953h0.26c0.884,0.193 1.834,0.713 2.852,1.557v0.129c-0.586,1.768 -1.1,2.719 -1.553,2.852c-1.32,-0.26 -2.311,-0.691 -2.979,-1.299v-0.127C68.522,51.047 68.998,50.014 69.943,48.953z" id="path_0"/><path fill="#213e95" d="M74.74,47.787h0.127c0.885,0.131 1.879,0.734 2.979,1.813v0.133l-1.553,2.719c-2.072,-0.67 -3.111,-1.232 -3.111,-1.686C73.851,48.781 74.37,47.787 74.74,47.787z" id="path_1"/><path fill="#213e95" d="M68.794,43.027c3.394,0.033 5.288,-0.602 5.703,-1.912c0,-0.453 -0.431,-1.574 -1.299,-3.365l0.392,-3.365h0.255c1.127,1.939 1.687,3.885 1.687,5.824v1.166c0,0.779 -0.188,1.598 -0.56,2.455c-0.37,0.855 -0.944,1.58 -1.713,2.16c-0.773,0.586 -2.261,0.828 -4.465,0.729V43.027z" id="path_2"/><path fill="#213e95" d="M78.51,25.459c0.133,-0.078 0.172,0.043 0.115,0.357c-0.734,1.725 -1.861,2.93 -3.383,3.609l-5.586,2.803c-0.238,-0.066 -0.282,-0.26 -0.133,-0.586c0.746,-1.438 1.254,-2.287 1.525,-2.559L78.51,25.459z" id="path_3"/><path fill="#000001" d="M63.487,31.92c0.797,0 1.792,0.563 2.979,1.686v0.258c-0.734,1.902 -1.254,2.848 -1.553,2.848c-1.471,-0.559 -2.377,-1.121 -2.72,-1.68v-0.133C62.194,33.99 62.625,33.002 63.487,31.92z" id="path_4"/><path fill="#000001" d="M69.285,46.719c-3.167,0 -4.748,-1.309 -4.748,-3.934c-0.039,-0.105 -0.082,-0.105 -0.127,0c0,1.176 -1.337,2.209 -4.018,3.111c-1.293,0.342 -2.145,0.547 -2.559,0.602c-0.408,0.061 -1.846,0.133 -4.307,0.221c-0.806,0.012 -1.689,-0.076 -2.635,-0.258c-0.951,-0.184 -1.631,-0.57 -2.045,-1.156c-0.41,-0.592 0.685,-0.99 3.288,-1.199s3.896,-0.305 3.886,-0.281c4.333,-0.553 6.908,-1.377 7.742,-2.465c1.056,-1.664 1.664,-2.268 1.813,-1.813c0.033,0.215 -0.011,0.475 -0.133,0.777c0,1.654 1.083,2.582 3.238,2.803c0.167,-0.021 0.364,-0.012 0.603,0.027V46.719z" id="path_5"/><path fill="#000001" d="M63.582,23.42h1.282c1.552,0 2.331,0.58 2.331,1.746c-1.005,2.719 -2.227,4.162 -3.663,4.326l-1.698,0.227c-0.27,0 -0.381,-0.076 -0.342,-0.227c1.371,-0.725 2.653,-1.586 3.841,-2.574c-0.419,-0.393 -0.884,-0.586 -1.392,-0.586h-0.359l-1.394,0.115l-0.11,-0.115v-0.227C62.736,24.314 63.238,23.42 63.582,23.42z" id="path_6"/><path fill="#008046" d="M53.662,30.266h0.518c1.488,0.891 2.438,1.537 2.848,1.945l-1.422,2.979h-0.392c-0.884,-0.148 -1.879,-0.756 -2.979,-1.813C52.881,31.477 53.357,30.443 53.662,30.266z" id="path_7"/><path fill="#008046" d="M45.045,43.027c0.271,0 0.553,0 0.846,0l0.646,-0.326c0.409,-0.84 1.017,-1.873 1.813,-3.105l-1.293,-9.977c0.431,-2.072 0.818,-3.105 1.166,-3.105l0.646,2.459c0.603,0.842 0.906,1.621 0.906,2.332c-0.43,0.797 -0.646,1.449 -0.646,1.939v0.26l0.26,4.146v0.65c1.338,-1.127 3.129,-1.74 5.372,-1.846c2.593,0.367 3.886,1.229 3.886,2.588v0.906c-0.432,1.924 -1.078,3.395 -1.939,4.404c-2.614,1.471 -5.482,2.256 -8.617,2.365h-1.426c-0.568,0 -1.111,0 -1.619,0V43.027L45.045,43.027zM47.57,43.094h0.26c3.951,-0.111 7.041,-0.813 9.264,-2.105c-1.012,-1.039 -1.747,-1.553 -2.201,-1.553h-1.037C50.898,39.541 48.803,40.762 47.57,43.094z" id="path_8"/><path fill="#008046" d="M54.436,19.512c1.326,0 1.989,0.818 1.989,2.447c0,2.598 -2.216,4.814 -6.655,6.639c-0.635,0.193 -0.713,-0.039 -0.226,-0.697c0.121,-0.248 1.166,-1.027 3.139,-2.332v-0.109c-0.851,-0.35 -1.276,-1.09 -1.276,-2.223c0.563,-2.48 1.459,-3.725 2.687,-3.725H54.436L54.436,19.512zM52.457,22.314c0,0.689 0.586,1.115 1.752,1.281h0.227c0.43,0 0.707,-0.16 0.823,-0.471c0,-0.701 -0.509,-1.248 -1.521,-1.635C53.297,21.49 52.871,21.766 52.457,22.314z" id="path_9"/><path fill="#008046" d="M45.178,46.73c-0.116,0.012 -0.238,0.016 -0.354,0.016h-0.652c-1.012,0 -1.702,-0.082 -2.072,-0.258c-0.752,2.906 -1.631,4.686 -2.637,5.338s-3.277,1.205 -6.814,1.658h-0.26c-0.779,-0.088 -1.166,-0.215 -1.166,-0.387c0,-0.26 0.646,-0.564 1.939,-0.906c5.096,-2.334 7.645,-4.018 7.645,-5.051c0,-0.432 -0.604,-1.428 -1.813,-2.98c-0.261,-0.436 -0.388,-0.994 -0.388,-1.686v-1.293c0,-0.652 0.127,-0.994 0.388,-1.039c1.121,1.719 3.021,2.674 5.697,2.879c0.166,0 0.326,0 0.486,-0.01V46.73z" id="path_10"/><path fill="#008046" d="M38.865,28.725c1.326,0 1.99,0.816 1.99,2.449c0,2.598 -2.216,4.813 -6.654,6.637c-0.636,0.193 -0.713,-0.039 -0.227,-0.697c0.121,-0.248 1.166,-1.027 3.139,-2.332v-0.109c-0.851,-0.348 -1.275,-1.09 -1.275,-2.223c0.563,-2.48 1.458,-3.725 2.686,-3.725H38.865L38.865,28.725zM36.888,31.527c0,0.689 0.586,1.115 1.752,1.281h0.226c0.432,0 0.709,-0.16 0.824,-0.469c0,-0.703 -0.508,-1.25 -1.52,-1.637C37.729,30.703 37.302,30.979 36.888,31.527z" id="path_11"/><path fill="#DD2C00" d="M27.701,40h0.52c1.516,0 2.637,1.293 3.372,3.885l0.127,1.293c0.045,0.42 0.045,0.852 0,1.299c-0.388,1.574 -1.254,3.129 -2.592,4.658c-0.929,0.779 -3.04,1.383 -6.345,1.814c-0.387,-0.172 -0.608,-0.344 -0.646,-0.516c5.527,-3 8.29,-4.813 8.29,-5.443l0.126,-0.387l-0.126,-0.127l-1.167,0.387h-0.646c-2.333,0 -3.499,-0.824 -3.499,-2.459v-0.26c0.299,-2.68 0.951,-4.018 1.941,-4.018L27.701,40z" id="path_12"/><path fill="#DD2C00" d="M26.215,29.232h1.283c1.553,0 2.332,0.582 2.332,1.746c-1.006,2.721 -2.227,4.162 -3.664,4.328l-1.697,0.227c-0.271,0 -0.381,-0.076 -0.342,-0.227c1.369,-0.725 2.652,-1.586 3.841,-2.576c-0.421,-0.391 -0.885,-0.586 -1.394,-0.586h-0.359l-1.393,0.117l-0.11,-0.117V31.92C25.37,30.129 25.873,29.232 26.215,29.232z" id="path_13"/><path fill="#000001" d="M12.381,39.756h0.261c1.21,0.277 2.288,0.928 3.237,1.939v0.26c-0.082,0.691 -0.602,1.598 -1.552,2.721c-2.245,-0.752 -3.366,-1.404 -3.366,-1.941C11.496,41.182 11.973,40.188 12.381,39.756z" id="path_14"/><path fill="#000001" d="M19.252,37.164h0.254c0.303,0 1.039,1.945 2.205,5.83l0.127,0.514c0,3.047 -0.734,5.252 -2.2,6.611c-2.072,2.242 -4.531,3.365 -7.384,3.365c-2.332,-0.52 -3.84,-1.033 -4.531,-1.553c-2.25,-1.924 -3.371,-4.301 -3.371,-7.125c0,-2.375 1.038,-4.619 3.111,-6.736l0.127,-0.127h0.26l0.26,0.254c0,0.221 -0.603,1.166 -1.813,2.852c-0.348,0.602 -0.564,1.426 -0.646,2.459c0,2.012 1.033,3.736 3.105,5.186c2.027,0.779 3.41,1.164 4.145,1.164c1.857,0 4.058,-0.822 6.605,-2.459c1.039,-0.91 1.559,-1.469 1.559,-1.686l-1.813,-5.051l-0.133,-0.906L19.252,37.164z" id="path_15"/><path fill="#000001" d="M17.107,26.398c0.133,-0.078 0.17,0.043 0.115,0.359c-0.734,1.725 -1.861,2.928 -3.382,3.607l-5.589,2.803c-0.236,-0.066 -0.281,-0.26 -0.131,-0.586c0.746,-1.436 1.254,-2.287 1.525,-2.559L17.107,26.398z" id="path_16"/></svg>