<svg id="vector" xmlns="http://www.w3.org/2000/svg" width="75" height="67" viewBox="0 0 83 73"><path fill="#213e95" d="M69.733,18.167c0.313,0 0.626,1.045 0.938,3.122l1.405,3.122l-0.626,3.588l0.466,8.74v1.398c-0.206,3.568 -0.726,5.645 -1.557,6.244l-0.154,-0.153l0.154,-2.343c0,-2.103 -0.68,-8.813 -2.03,-20.123C68.98,19.366 69.446,18.167 69.733,18.167z" id="path_0"/><path fill="#213e95" d="M75.737,47.789c0.16,-0.087 0.206,0.054 0.14,0.433c-0.885,2.077 -2.244,3.528 -4.074,4.346l-6.73,3.376c-0.286,-0.08 -0.339,-0.313 -0.159,-0.699c0.898,-1.731 1.51,-2.755 1.837,-3.082L75.737,47.789z" id="path_1"/><path fill="#008046" d="M46.288,39.934c0.327,0 0.666,0 1.019,0l0.779,-0.393c0.492,-1.011 1.225,-2.256 2.182,-3.742l-1.556,-12.015c0.519,-2.496 0.985,-3.74 1.404,-3.74l0.778,2.962c0.726,1.012 1.092,1.95 1.092,2.808c-0.519,0.959 -0.778,1.745 -0.778,2.337v0.313l0.312,4.992v0.785c1.611,-1.358 3.768,-2.098 6.471,-2.223c3.122,0.439 4.679,1.477 4.679,3.115v1.092c-0.519,2.316 -1.297,4.086 -2.336,5.304c-3.147,1.771 -6.604,2.717 -10.377,2.85h-1.718c-0.685,0 -1.338,0 -1.95,0V39.934L46.288,39.934zM49.33,40.014h0.313c4.759,-0.133 8.48,-0.979 11.156,-2.537c-1.217,-1.25 -2.102,-1.87 -2.648,-1.87h-1.252C53.337,35.733 50.814,37.205 49.33,40.014z" id="path_2"/><path fill="#0992d1" d="M58.004,18.66h1.544c1.87,0 2.809,0.698 2.809,2.104c-1.211,3.275 -2.683,5.013 -4.414,5.212L55.9,26.248c-0.326,0 -0.459,-0.093 -0.413,-0.273c1.651,-0.872 3.195,-1.911 4.626,-3.102c-0.506,-0.473 -1.064,-0.705 -1.678,-0.705h-0.432l-1.678,0.14l-0.132,-0.14v-0.273C56.985,19.738 57.591,18.66 58.004,18.66z" id="path_3"/><path fill="#DD2C00" d="M48.412,44.381c-0.1,0 -0.207,0 -0.306,0h-1.404c-1.405,0 -3.023,-0.886 -4.84,-2.649c-3.121,1.711 -6.489,2.597 -10.104,2.649v-4.427c1.89,0.127 4.32,-0.266 7.296,-1.191v-0.153c-1.432,-0.938 -2.783,-1.404 -4.055,-1.404l-1.251,0.153l-0.313,-0.779c0.419,-2.81 1.618,-4.213 3.588,-4.213l2.496,-0.153c3.954,0.465 5.931,1.351 5.931,2.649v0.626l-0.938,3.121c0.758,0.92 2.056,1.365 3.9,1.325V44.381z" id="path_4"/><path fill="#000001" d="M31.897,44.381c-0.168,0 -0.347,0 -0.527,0h-0.153c-1.511,-0.014 -2.969,-0.279 -4.374,-0.799c-1.504,2.603 -3.481,3.901 -5.924,3.901c-2.916,-0.42 -4.374,-1.612 -4.374,-3.588h-0.153c-0.493,1.664 -1.584,3.015 -3.275,4.054C10.855,48.78 9.084,49.2 7.813,49.2l-0.719,0.093V48.98c0.579,-0.479 2.15,-1.59 4.707,-3.333c2.556,-1.738 4.006,-2.83 4.347,-3.276c0.345,-0.439 0.845,-1.909 1.497,-4.407c1.245,-2.077 2.39,-3.121 3.428,-3.121h0.313c1.298,0 3.382,1.404 6.244,4.212c0.832,0.706 2.25,1.02 4.268,0.939V44.381L31.897,44.381zM18.423,40.147c0,1.378 1.092,2.317 3.274,2.809h0.78c1.771,-0.179 2.656,-0.44 2.656,-0.779c-2.058,-1.976 -3.616,-2.962 -4.687,-2.962h-0.154C19.408,39.215 18.782,39.529 18.423,40.147z" id="path_5"/><path fill="#f06022" d="M21.706,19.658c1.191,0 1.897,0.792 2.104,2.376v0.432c-0.22,2.65 -1.105,4.38 -2.649,5.186c-2.689,1.691 -5.133,2.537 -7.315,2.537c-0.08,-0.013 -0.154,-0.033 -0.234,-0.06c-0.079,-0.026 -0.139,-0.066 -0.185,-0.12c-0.047,-0.046 -0.041,-0.08 0.013,-0.093c0.113,-0.259 2.077,-1.299 5.885,-3.103v-0.14c-1.026,-0.646 -1.538,-1.538 -1.538,-2.668C18.397,21.104 19.702,19.658 21.706,19.658L21.706,19.658zM19.189,22.6v0.134c0,0.965 0.659,1.531 1.971,1.696h0.406c0.499,0 0.779,-0.139 0.838,-0.425c0,-1.313 -0.698,-1.971 -2.103,-1.971C19.563,22.201 19.189,22.395 19.189,22.6z" id="path_6"/><path fill="#f06022" d="M18.624,17.122c0.299,-0.147 0.439,-0.047 0.426,0.292c-1.504,1.665 -2.689,3.242 -3.547,4.74c-0.247,0.585 -0.386,1.065 -0.42,1.451c-0.033,0.386 0.067,0.798 0.306,1.238h0.293c0.113,-0.652 0.345,-0.979 0.698,-0.979c0.419,0.186 0.653,0.373 0.699,0.565v0.273c0.026,1.485 -0.393,2.377 -1.265,2.677h-0.698c-0.939,-0.186 -1.405,-1.265 -1.405,-3.242C13.711,21.735 15.348,19.399 18.624,17.122z" id="path_7"/><path fill="#DD2C00" d="M39.924,17.107c1.252,2.13 1.878,4.214 1.878,6.238c-0.546,3.847 -1.226,5.771 -2.031,5.771l-0.153,-0.154v-0.152l0.306,-2.03v-0.16c0,-1.246 -0.519,-3.116 -1.558,-5.613v-0.312C38.886,18.299 39.405,17.107 39.924,17.107z" id="path_8"/></svg>