<svg id="vector" xmlns="http://www.w3.org/2000/svg" width="75" height="67" viewBox="0 0 83 73"><path fill="#000001" d="M64.856,26.266c0.313,0 0.625,1.045 0.938,3.121l1.405,3.123l-0.626,3.588l0.467,8.74v1.398c-0.207,3.566 -0.727,5.643 -1.559,6.242l-0.153,-0.152l0.153,-2.344c0,-2.104 -0.679,-8.813 -2.03,-20.123C64.104,27.463 64.569,26.266 64.856,26.266z" id="path_0"/><path fill="#000001" d="M69.515,17.139c0.16,-0.092 0.207,0.055 0.141,0.434c-0.885,2.078 -2.243,3.527 -4.073,4.348l-6.729,3.375c-0.287,-0.08 -0.34,-0.314 -0.16,-0.707c0.898,-1.73 1.511,-2.756 1.836,-3.082L69.515,17.139z" id="path_1"/><path fill="#213e95" d="M50.725,21.865c1.351,0 2.596,0.834 3.74,2.496c-0.958,2.184 -1.69,3.275 -2.183,3.275c-2.104,-1.037 -3.25,-1.717 -3.435,-2.029C48.848,24.621 49.473,23.371 50.725,21.865z" id="path_2"/><path fill="#213e95" d="M45.672,41.443h0.779c4.852,-0.094 8.073,-0.773 9.671,-2.051l0.313,-0.619c-0.206,-0.5 -0.466,-0.746 -0.778,-0.746c-0.752,0.42 -1.585,0.627 -2.497,0.627h-0.159c-2.703,-0.314 -4.107,-1.404 -4.207,-3.275v-0.16c0.26,-3.533 1.092,-5.299 2.496,-5.299h0.779c2.402,-0.119 4.227,1.752 5.457,5.611l0.153,1.564v0.313c-0.033,3.822 -1.403,6.344 -4.114,7.563c-0.958,0.613 -3.594,0.918 -7.894,0.918V41.443z" id="path_3"/><path fill="#213e95" d="M51.537,10.982h1.544c1.871,0 2.809,0.699 2.809,2.104c-1.211,3.275 -2.683,5.012 -4.413,5.213l-2.044,0.271c-0.326,0 -0.459,-0.092 -0.412,-0.271c1.65,-0.873 3.195,-1.91 4.627,-3.104c-0.507,-0.473 -1.066,-0.705 -1.679,-0.705h-0.432l-1.679,0.141l-0.133,-0.141v-0.273C50.519,12.061 51.124,10.982 51.537,10.982z" id="path_4"/><path fill="#DD2C00" d="M35.414,41.443c0.026,0 0.061,0 0.094,0c2.496,-0.152 3.928,-1.271 4.293,-3.355c-0.938,-6.238 -1.403,-10.611 -1.403,-13.107c0,-0.957 0.418,-2.209 1.25,-3.74l0.153,0.154l0.313,0.311l-0.16,1.094c0.133,7.008 1.018,12.439 2.656,16.301c0.626,1.404 2.156,2.191 4.6,2.344v4.445c-3.355,-0.053 -5.611,-1.816 -6.783,-5.305h-0.16c-1.078,3.494 -2.695,5.266 -4.853,5.305V41.443z" id="path_5"/><path fill="#DD2C00" d="M44.926,12.752c0.16,-0.092 0.207,0.055 0.141,0.434c-0.886,2.076 -2.243,3.527 -4.073,4.348l-6.73,3.375c-0.287,-0.08 -0.34,-0.314 -0.16,-0.707c0.898,-1.73 1.512,-2.756 1.837,-3.082L44.926,12.752z" id="path_6"/><path fill="#000001" d="M36.127,45.963c-0.306,0.012 -0.619,0.02 -0.933,0.02l-1.484,-0.02c-5.405,-0.014 -8.36,-1.992 -8.854,-5.945l0.154,-1.404v-1.252h-0.154c-5.824,3.203 -8.739,6.943 -8.739,11.236c0,3.275 1.93,5.879 5.777,7.803c4.547,1.145 8.761,1.717 12.634,1.717l3.902,-0.16l0.152,0.16v0.152c-4.434,2.496 -7.448,3.748 -9.047,3.748h-1.404c-5.592,0 -9.332,-1.459 -11.229,-4.373c-1.456,-1.611 -2.183,-4.16 -2.183,-7.643v-0.625c0,-5.092 2.756,-9.619 8.268,-13.572V35.65l-4.84,-0.313c-2.17,0 -3.521,0.986 -4.055,2.963l-0.158,0.16h-0.313c-0.206,0 -0.306,-0.16 -0.306,-0.473c0.791,-4.574 2.609,-6.863 5.458,-6.863h0.626l8.107,0.313l6.244,-0.313l0.152,0.467c-0.766,2.496 -1.65,3.746 -2.648,3.746c-3.223,0.766 -4.84,1.338 -4.84,1.719v1.404c0.34,1.938 3.108,2.955 8.307,3.055h0.473c0.326,0 0.633,-0.006 0.933,-0.014V45.963z" id="path_7"/><path fill="#000001" d="M28.365,18.604c0.16,-0.092 0.207,0.055 0.14,0.434c-0.886,2.076 -2.242,3.527 -4.073,4.346l-6.729,3.375c-0.287,-0.08 -0.34,-0.313 -0.16,-0.705c0.898,-1.73 1.512,-2.756 1.837,-3.082L28.365,18.604z" id="path_8"/></svg>