<svg id="vector" xmlns="http://www.w3.org/2000/svg" width="75" height="67" viewBox="0 0 83 73"><path fill="#008046" d="M70.526,41.593c0.932,0.938 1.816,2.963 2.646,6.084l0.16,2.031c0,3.666 -1.822,6.162 -5.463,7.486l-1.093,0.154l-2.769,0.039l-2.689,-0.039l-0.152,-0.154v-0.16c0.332,-0.357 2.568,-1.449 6.704,-3.273c2.602,-1.479 4.006,-2.783 4.213,-3.9c-1.352,-2.883 -2.023,-4.547 -2.023,-4.992v-0.467C70.059,42.53 70.211,41.593 70.526,41.593z" id="path_0"/><path fill="#008046" d="M73.719,31.194c0.16,-0.092 0.207,0.055 0.141,0.434c-0.885,2.076 -2.244,3.527 -4.074,4.348l-6.73,3.373c-0.286,-0.08 -0.339,-0.313 -0.16,-0.705c0.899,-1.73 1.512,-2.756 1.838,-3.082L73.719,31.194z" id="path_1"/><path fill="#DD2C00" d="M51.102,26.19c1.35,0 2.596,0.832 3.74,2.496c-0.959,2.184 -1.69,3.273 -2.184,3.273c-2.103,-1.039 -3.247,-1.717 -3.435,-2.029C49.224,28.946 49.85,27.694 51.102,26.19z" id="path_2"/><path fill="#DD2C00" d="M46.049,45.767h0.778c4.854,-0.094 8.075,-0.773 9.672,-2.051l0.313,-0.619c-0.207,-0.498 -0.466,-0.744 -0.778,-0.744c-0.753,0.418 -1.583,0.625 -2.496,0.625h-0.16c-2.702,-0.313 -4.106,-1.404 -4.206,-3.275v-0.16c0.26,-3.535 1.092,-5.299 2.496,-5.299h0.778c2.402,-0.119 4.228,1.75 5.458,5.611l0.154,1.564v0.313c-0.035,3.822 -1.406,6.346 -4.115,7.563c-0.957,0.613 -3.594,0.918 -7.894,0.918V45.767z" id="path_3"/><path fill="#DD2C00" d="M57.645,15.64c0.159,-0.094 0.206,0.053 0.14,0.432c-0.885,2.076 -2.244,3.529 -4.073,4.348l-6.73,3.375c-0.286,-0.08 -0.339,-0.314 -0.159,-0.705c0.898,-1.732 1.511,-2.758 1.837,-3.082L57.645,15.64z" id="path_4"/><path fill="#000001" d="M47.307,50.212c-0.1,0 -0.207,0 -0.307,0h-1.403c-1.404,0 -3.023,-0.885 -4.841,-2.648c-3.122,1.711 -6.49,2.596 -10.104,2.648v-4.426c1.89,0.127 4.319,-0.266 7.296,-1.191V44.44c-1.432,-0.938 -2.783,-1.404 -4.055,-1.404l-1.252,0.154l-0.313,-0.779c0.42,-2.809 1.617,-4.213 3.589,-4.213l2.496,-0.154c3.953,0.467 5.931,1.352 5.931,2.65v0.625l-0.938,3.121c0.759,0.92 2.058,1.365 3.9,1.326V50.212z" id="path_5"/><path fill="#000001" d="M38.594,24.552h1.544c1.87,0 2.809,0.699 2.809,2.104c-1.211,3.275 -2.682,5.012 -4.413,5.213l-2.044,0.273c-0.326,0 -0.458,-0.094 -0.412,-0.273c1.65,-0.873 3.194,-1.91 4.626,-3.102c-0.505,-0.473 -1.064,-0.707 -1.677,-0.707h-0.433L36.916,28.2l-0.133,-0.141v-0.273C37.575,25.63 38.18,24.552 38.594,24.552z" id="path_6"/><path fill="#213e95" d="M23.23,32.466c0.532,0 1.784,0.627 3.748,1.871c0,0.779 -0.626,2.031 -1.878,3.748c-2.496,-0.807 -3.74,-1.537 -3.74,-2.184C21.426,35.315 22.044,34.171 23.23,32.466z" id="path_7"/><path fill="#213e95" d="M17.552,45.767c1.113,0.014 1.798,-0.008 2.07,-0.061c2.345,-0.713 3.941,-2.229 4.8,-4.539c0.127,-0.445 0.386,-0.5 0.778,-0.16c0.206,0.18 0.366,0.912 0.466,2.184c1.418,1.91 3.188,2.77 5.307,2.576h0.411v4.445h-0.1c-3.315,-0.152 -5.757,-1.664 -7.335,-4.525h-0.153c-1.106,2.33 -2.563,3.76 -4.366,4.293c-0.547,0.152 -1.173,0.232 -1.878,0.232V45.767z" id="path_8"/><path fill="#213e95" d="M29.488,21.663c0.16,-0.094 0.205,0.053 0.139,0.432c-0.886,2.078 -2.243,3.529 -4.074,4.348l-6.729,3.375c-0.285,-0.08 -0.34,-0.313 -0.158,-0.705c0.896,-1.73 1.509,-2.756 1.837,-3.082L29.488,21.663z" id="path_9"/><path fill="#000001" d="M17.592,50.212c-3.028,0.182 -5.231,-1.217 -6.61,-4.193c-0.665,-1.105 -1.283,-8.553 -1.87,-22.346V23.36c0.386,-2.289 0.959,-3.434 1.71,-3.434l0.786,-0.154c0.959,0 2.416,0.313 4.366,0.932v0.314c-0.105,0.311 -0.419,0.471 -0.938,0.471h-2.647c-0.547,0 -1.067,0.307 -1.566,0.934c0.487,11.975 1.191,18.91 2.132,20.807c0.932,1.898 2.482,2.744 4.639,2.537V50.212z" id="path_10"/></svg>