<svg id="vector" xmlns="http://www.w3.org/2000/svg" width="75" height="67" viewBox="0 0 83 73"><path fill="#213e95" d="M14.408,24.637c1.445,0 2.896,0.721 4.354,2.164c0.139,0.246 0.086,0.439 -0.166,0.586c-0.254,0.141 -0.486,0.113 -0.693,-0.1c-0.625,-0.559 -1.511,-0.84 -2.656,-0.84h-0.486c-0.479,0 -1.038,0.207 -1.677,0.607c0,1.172 1.405,1.889 4.214,2.162l2.789,-1.09l0.113,0.371c0,1.313 -1.611,2.482 -4.832,3.51l-4.467,2.535l-0.467,0.121c-0.186,0.037 -0.307,-0.041 -0.372,-0.234c0,-0.705 1.005,-1.672 3.021,-2.91v-0.111c-0.972,-0.541 -1.464,-1.305 -1.464,-2.305C12.079,26.129 13.005,24.637 14.408,24.637z" id="path_0"/><path fill="#000001" d="M66.915,48.895h0.313c1.066,0.232 2.211,0.857 3.436,1.877v0.152c-0.706,2.131 -1.325,3.275 -1.87,3.436c-1.591,-0.313 -2.783,-0.832 -3.589,-1.564v-0.154C65.204,51.416 65.776,50.172 66.915,48.895z" id="path_1"/><path fill="#000001" d="M72.692,47.488h0.154c1.064,0.16 2.263,0.887 3.588,2.186v0.16l-1.871,3.273c-2.496,-0.805 -3.748,-1.484 -3.748,-2.029C71.622,48.688 72.247,47.488 72.692,47.488z" id="path_2"/><path fill="#000001" d="M65.53,41.758c4.088,0.041 6.371,-0.725 6.87,-2.303c0,-0.545 -0.52,-1.896 -1.563,-4.055l0.472,-4.053h0.306c1.359,2.336 2.03,4.68 2.03,7.016v1.406c0,0.938 -0.226,1.922 -0.671,2.955c-0.447,1.031 -1.14,1.902 -2.064,2.602c-0.932,0.707 -2.723,0.998 -5.379,0.879V41.758z" id="path_3"/><path fill="#000001" d="M72.927,17.729c1.597,0 2.396,0.986 2.396,2.947c0,3.131 -2.67,5.799 -8.016,7.996c-0.766,0.232 -0.857,-0.047 -0.271,-0.84c0.146,-0.299 1.404,-1.238 3.779,-2.809v-0.133c-1.023,-0.42 -1.537,-1.311 -1.537,-2.676c0.679,-2.988 1.758,-4.486 3.235,-4.486H72.927L72.927,17.729zM70.543,21.104c0,0.832 0.706,1.344 2.11,1.543h0.273c0.518,0 0.852,-0.191 0.991,-0.564c0,-0.846 -0.612,-1.504 -1.831,-1.971C71.556,20.111 71.042,20.445 70.543,21.104z" id="path_4"/><path fill="#0992d1" d="M58.048,47.922c0.534,0 1.785,0.627 3.749,1.871c0,0.779 -0.626,2.031 -1.878,3.748c-2.496,-0.813 -3.74,-1.539 -3.74,-2.191C56.245,50.771 56.864,49.627 58.048,47.922z" id="path_5"/><path fill="#0992d1" d="M52.37,41.758c1.112,0.014 1.797,-0.006 2.07,-0.061c2.344,-0.711 3.941,-2.229 4.799,-4.539c0.127,-0.445 0.387,-0.5 0.779,-0.158c0.207,0.18 0.366,0.91 0.467,2.182c1.418,1.91 3.188,2.77 5.305,2.576h0.413v4.447h-0.1c-3.315,-0.152 -5.759,-1.664 -7.337,-4.525h-0.152c-1.105,2.328 -2.563,3.76 -4.367,4.293c-0.545,0.152 -1.17,0.232 -1.877,0.232V41.758z" id="path_6"/><path fill="#0992d1" d="M58.083,22.475h1.543c1.871,0 2.81,0.699 2.81,2.104c-1.212,3.275 -2.683,5.012 -4.413,5.211l-2.044,0.273c-0.325,0 -0.46,-0.092 -0.413,-0.273c1.651,-0.871 3.195,-1.91 4.627,-3.102c-0.506,-0.473 -1.065,-0.705 -1.678,-0.705h-0.432l-1.678,0.141l-0.133,-0.141v-0.271C57.063,23.553 57.669,22.475 58.083,22.475z" id="path_7"/><path fill="#DD2C00" d="M52.817,46.225c-2.677,-0.18 -5.105,-1.645 -7.289,-4.387h-0.16c-0.932,5.406 -3.016,8.107 -6.236,8.115h-0.474c-1.397,-0.008 -2.755,-1.252 -4.054,-3.748c-1.038,-3.508 -1.558,-6.164 -1.558,-7.955V37c0,-0.779 0.153,-1.199 0.466,-1.246c0.439,0.232 0.965,1.938 1.572,5.119c0.605,3.176 1.85,4.691 3.733,4.553c3.641,-0.598 5.564,-2.682 5.771,-6.244l-1.403,-4.832v-1.717c0.053,-2.084 0.259,-3.121 0.625,-3.121c0.206,0.465 0.366,0.938 0.466,1.402l2.184,6.865c1.718,2.781 3.841,4.1 6.357,3.939V46.225z" id="path_8"/><path fill="#DD2C00" d="M45.781,52.168c0.159,-0.086 0.206,0.055 0.14,0.434c-0.886,2.076 -2.243,3.527 -4.074,4.348l-6.729,3.373c-0.287,-0.08 -0.341,-0.313 -0.16,-0.699c0.898,-1.73 1.51,-2.754 1.837,-3.08L45.781,52.168z" id="path_9"/><path fill="#213e95" d="M27.882,28.885c0.998,-0.086 1.518,0.172 1.557,0.785v0.932c-0.259,2.496 -0.518,3.748 -0.777,3.748h-0.16c-0.193,-0.732 -0.818,-1.092 -1.87,-1.092c-2.157,0 -4.447,1.611 -6.864,4.832v0.314c0,0.52 1.771,0.99 5.307,1.404c0.932,0.912 1.403,1.896 1.403,2.961c0,2.943 -2.603,6.111 -7.8,9.52c-1.352,0.725 -2.703,1.092 -4.063,1.092c-3.561,0 -6.104,-2.184 -7.641,-6.551c-0.492,-1.523 -0.539,-3.646 -0.133,-6.369c0.4,-2.723 1.604,-4.408 3.607,-5.061l0.273,0.041c0.387,0.207 0.105,0.799 -0.853,1.783c-0.952,0.979 -1.558,2.258 -1.804,3.834v1.246c0,2.496 1.352,4.525 4.055,6.084c0.938,0.418 1.93,0.625 2.968,0.625h0.626c3.016,0 6.031,-1.457 9.046,-4.365l-4.839,-1.092c-0.832,-0.555 -1.244,-1.279 -1.244,-2.191v-1.871c0.039,-2.861 1.39,-5.463 4.053,-7.82C23.722,30.648 25.433,29.717 27.882,28.885z" id="path_10"/><path fill="#213e95" d="M15.913,12.676c1.598,0 2.396,0.984 2.396,2.949c0,3.129 -2.67,5.797 -8.014,7.994c-0.766,0.232 -0.859,-0.047 -0.273,-0.838c0.146,-0.299 1.404,-1.238 3.78,-2.809V19.84c-1.024,-0.42 -1.536,-1.313 -1.536,-2.678c0.678,-2.988 1.756,-4.486 3.234,-4.486H15.913L15.913,12.676zM13.53,16.051c0,0.832 0.705,1.346 2.109,1.545h0.273c0.52,0 0.852,-0.193 0.992,-0.566c0,-0.846 -0.613,-1.504 -1.831,-1.971C14.542,15.059 14.028,15.393 13.53,16.051z" id="path_11"/></svg>