<svg id="vector" xmlns="http://www.w3.org/2000/svg" width="75" height="67" viewBox="0 0 83 73"><path fill="#000001" d="M65.755,24.814c0.313,0 0.626,1.045 0.938,3.121l1.405,3.123l-0.625,3.588l0.467,8.74v1.398c-0.207,3.566 -0.727,5.643 -1.56,6.242l-0.154,-0.152l0.154,-2.344c0,-2.102 -0.679,-8.813 -2.03,-20.121C65.002,26.014 65.468,24.814 65.755,24.814z" id="path_0"/><path fill="#000001" d="M70.415,15.689c0.158,-0.094 0.205,0.053 0.139,0.432c-0.885,2.078 -2.242,3.527 -4.073,4.348l-6.73,3.375c-0.286,-0.08 -0.339,-0.314 -0.159,-0.707c0.898,-1.73 1.511,-2.756 1.837,-3.082L70.415,15.689z" id="path_1"/><path fill="#f06022" d="M54.313,45.65c0.125,0 0.317,0 0.585,0h0.659c1.663,0 2.729,-0.42 3.202,-1.252v-0.313c-0.786,-2.73 -1.931,-5.213 -3.437,-7.449c0.182,-2.389 0.441,-3.588 0.78,-3.588c0.911,0.732 2.11,3.328 3.588,7.801l0.158,2.031v1.404c-0.497,3.848 -1.976,5.771 -4.446,5.771h-0.505c-0.279,0 -0.472,0.014 -0.585,0.039V45.65z" id="path_2"/><path fill="#f06022" d="M53.979,24.215c0.533,0 1.777,0.627 3.741,1.871c0,0.785 -0.618,2.029 -1.871,3.748c-2.496,-0.805 -3.74,-1.537 -3.74,-2.184C52.168,27.064 52.794,25.92 53.979,24.215z" id="path_3"/><path fill="#f06022" d="M53.939,14.797h1.544c1.87,0 2.811,0.699 2.811,2.104c-1.213,3.275 -2.684,5.012 -4.413,5.213l-2.044,0.271c-0.328,0 -0.46,-0.094 -0.414,-0.271c1.652,-0.873 3.196,-1.91 4.626,-3.104c-0.505,-0.473 -1.064,-0.705 -1.677,-0.705h-0.433l-1.678,0.139l-0.133,-0.139v-0.273C52.921,15.875 53.527,14.797 53.939,14.797z" id="path_4"/><path fill="#000001" d="M45.752,34.434c0.88,0 2.077,0.732 3.589,2.184v0.313c-1.019,2.184 -1.691,3.281 -2.03,3.281l-3.588,-2.031h-0.16c-1.013,1.746 -1.686,2.678 -2.024,2.811h-0.16c-2.281,-1.018 -3.426,-1.797 -3.426,-2.344c0.83,-2.289 1.556,-3.428 2.182,-3.428l3.74,2.023C44.475,36.025 45.099,35.086 45.752,34.434z" id="path_5"/><path fill="#000001" d="M41.692,29.602c1.018,0 2.156,0.885 3.434,2.648c-0.339,0.805 -1.018,1.744 -2.03,2.809h-0.312c-0.907,-0.205 -1.897,-0.777 -2.962,-1.717v-0.465C39.902,32.043 40.521,30.953 41.692,29.602z" id="path_6"/><path fill="#000001" d="M55.051,50.057c-0.246,0 -0.544,0 -0.897,0c-1.393,-0.014 -2.89,-1.059 -4.507,-3.143c-0.62,2.289 -1.71,3.436 -3.276,3.436h-0.151c-1.324,0 -2.417,-0.779 -3.274,-2.344h-0.16c-0.933,1.877 -2.063,2.729 -3.396,2.557c-2.469,0.014 -3.934,-1.152 -4.407,-3.488c-1.737,2.037 -3.607,3.035 -5.597,2.982h-0.254v-4.447h0.08c3.147,-0.232 5.484,-1.305 7.022,-3.215c0.207,0 0.313,0.154 0.313,0.467l-0.158,1.09c0.831,1.666 1.923,2.496 3.274,2.496c1.277,0 2.576,-1.244 3.9,-3.74h0.16l0.466,0.467v1.092c0,0.984 0.731,1.557 2.182,1.717h0.314c1.352,0 2.602,-1.352 3.748,-4.061h0.152c0.206,0 0.313,0.473 0.313,1.404c0.571,1.318 1.956,2.076 4.152,2.283V50.057z" id="path_7"/><path fill="#000001" d="M46.837,19.277c0.159,-0.094 0.206,0.053 0.14,0.432c-0.885,2.078 -2.242,3.529 -4.073,4.348l-6.73,3.373c-0.286,-0.078 -0.339,-0.311 -0.159,-0.705c0.898,-1.73 1.511,-2.754 1.837,-3.082L46.837,19.277z" id="path_8"/><path fill="#008046" d="M29.225,50.07c-0.141,0.012 -0.286,0.02 -0.427,0.02h-0.786c-1.217,0 -2.05,-0.1 -2.496,-0.313c-0.905,3.5 -1.962,5.643 -3.175,6.43c-1.211,0.785 -3.947,1.451 -8.206,1.996H13.82c-0.938,-0.105 -1.403,-0.26 -1.403,-0.465c0,-0.314 0.777,-0.68 2.336,-1.092c6.137,-2.809 9.206,-4.84 9.206,-6.084c0,-0.52 -0.725,-1.717 -2.184,-3.588c-0.313,-0.527 -0.466,-1.197 -0.466,-2.031v-1.557c0,-0.785 0.153,-1.199 0.466,-1.252c1.352,2.07 3.641,3.221 6.862,3.469c0.201,0 0.395,0 0.587,-0.014V50.07z" id="path_9"/><path fill="#008046" d="M25.929,31.252c0.16,-0.094 0.207,0.053 0.141,0.434c-0.885,2.076 -2.244,3.527 -4.073,4.346l-6.73,3.375c-0.286,-0.08 -0.339,-0.313 -0.16,-0.705c0.899,-1.732 1.512,-2.756 1.837,-3.084L25.929,31.252z" id="path_10"/></svg>