<svg id="vector" xmlns="http://www.w3.org/2000/svg" width="75" height="67" viewBox="0 0 83 73"><path fill="#213e95" d="M65.66,26.997h0.313c1.065,0.23 2.209,0.85 3.434,1.869v0.152c-0.706,2.137 -1.324,3.275 -1.87,3.436c-1.591,-0.313 -2.783,-0.832 -3.588,-1.557v-0.16C63.948,29.512 64.521,28.268 65.66,26.997z" id="path_0"/><path fill="#213e95" d="M71.437,25.59h0.153c1.064,0.154 2.263,0.879 3.588,2.184v0.152l-1.87,3.275c-2.496,-0.805 -3.748,-1.479 -3.748,-2.023C70.365,26.782 70.991,25.59 71.437,25.59z" id="path_1"/><path fill="#213e95" d="M64.275,43.237c4.087,0.041 6.37,-0.727 6.87,-2.303c0,-0.545 -0.52,-1.896 -1.564,-4.055l0.472,-4.053h0.306c1.358,2.336 2.03,4.68 2.03,7.016v1.404c0,0.939 -0.226,1.924 -0.672,2.955c-0.447,1.031 -1.139,1.904 -2.063,2.604c-0.933,0.705 -2.724,0.998 -5.379,0.879V43.237z" id="path_2"/><path fill="#213e95" d="M74.159,17.198c0.16,-0.094 0.207,0.053 0.141,0.432c-0.885,2.076 -2.244,3.529 -4.074,4.346l-6.73,3.375c-0.287,-0.08 -0.339,-0.313 -0.16,-0.705c0.899,-1.73 1.512,-2.756 1.837,-3.082L74.159,17.198z" id="path_3"/><path fill="#008046" d="M64.468,47.696c-0.14,0.014 -0.287,0.021 -0.426,0.021h-0.786c-1.218,0 -2.05,-0.1 -2.497,-0.313c-0.905,3.5 -1.962,5.645 -3.175,6.43c-1.211,0.785 -3.947,1.451 -8.207,1.996h-0.313c-0.939,-0.105 -1.404,-0.26 -1.404,-0.465c0,-0.313 0.778,-0.68 2.336,-1.092c6.137,-2.811 9.206,-4.84 9.206,-6.084c0,-0.52 -0.726,-1.719 -2.183,-3.588c-0.313,-0.525 -0.466,-1.199 -0.466,-2.031v-1.557c0,-0.785 0.153,-1.197 0.466,-1.252c1.352,2.07 3.641,3.223 6.863,3.469c0.2,0 0.393,0 0.586,-0.014V47.696z" id="path_4"/><path fill="#008046" d="M55.242,28.553h1.544c1.87,0 2.809,0.699 2.809,2.104c-1.212,3.275 -2.683,5.012 -4.414,5.213l-2.043,0.271c-0.327,0 -0.459,-0.094 -0.412,-0.271c1.649,-0.873 3.194,-1.912 4.625,-3.104c-0.506,-0.473 -1.065,-0.705 -1.677,-0.705h-0.433L53.565,32.2l-0.134,-0.139v-0.273C54.223,29.631 54.83,28.553 55.242,28.553z" id="path_5"/><path fill="#008046" d="M26.427,46.625v-0.314c-0.739,-0.285 -2.304,-0.545 -4.68,-0.777c-0.732,-0.467 -1.145,-1.297 -1.251,-2.496c0.08,-2.051 0.412,-3.602 1.005,-4.652c0.592,-1.047 1.318,-1.898 2.184,-2.551c0.865,-0.658 1.877,-1.184 3.035,-1.57c1.158,-0.393 2.044,-0.533 2.669,-0.432c0.626,0.105 0.939,0.418 0.939,0.938c-0.313,0.547 -0.473,1.271 -0.473,2.184c0,0.793 0.833,1.623 2.496,2.496l0.626,0.16l0.473,0.152c0.479,-1.311 1.67,-3.029 3.587,-5.145c1.118,-1.346 2.43,-2.084 3.934,-2.225c2.509,0.26 4.007,1.258 4.486,3.002l0.16,0.779v0.779c0,1.291 -0.333,2.396 -0.999,3.328c-0.659,0.926 -1.744,1.83 -3.249,2.695c-1.498,0.873 -3.62,1.313 -6.363,1.313l-1.87,-0.16l-0.939,3.121c-0.339,0.52 -0.546,0.52 -0.626,0l0.473,-3.275c-2.289,-1.184 -3.434,-2.535 -3.434,-4.061v-1.396c0,-0.287 -0.52,-0.5 -1.558,-0.625c-1.877,0 -3.641,0.83 -5.305,2.496v0.313c0.646,0.313 2.05,0.518 4.207,0.619c1.318,0.012 1.99,1.104 2.03,3.281c-0.113,0.725 -0.259,1.404 -0.426,2.023H26.427L26.427,46.625zM35.473,39.762c2.183,-0.066 3.435,-0.166 3.747,-0.313c2.703,-0.6 4.367,-1.324 4.992,-2.184c-1.364,-1.039 -2.509,-1.557 -3.434,-1.557c-2.143,0 -3.914,1.297 -5.305,3.9V39.762z" id="path_6"/><path fill="#008046" d="M34.986,25.725l2.962,2.021l0.16,0.627v0.16c-1.185,2.17 -1.863,3.262 -2.03,3.273c-1.664,-0.719 -2.809,-1.391 -3.434,-2.029v-0.939c0.419,-0.592 0.678,-1.164 0.785,-1.711C33.688,26.19 34.208,25.725 34.986,25.725z" id="path_7"/><path fill="#000001" d="M27.871,46.625c-0.626,2.17 -2.522,4.566 -5.698,7.176c-1.91,1.357 -4.147,2.029 -6.703,2.029c-1.431,-0.326 -2.456,-0.652 -3.075,-0.971c-0.619,-0.326 -1.358,-1.045 -2.23,-2.15c-1.564,-2.076 -2.343,-4 -2.343,-5.771c0,-4.213 1.352,-7.588 4.061,-10.139c0.479,-0.338 0.685,-0.285 0.619,0.154c0,0.379 -0.779,1.838 -2.336,4.367c-0.626,1.264 -0.939,2.461 -0.939,3.588c0,1.617 1.146,3.381 3.435,5.305c1.625,0.898 3.389,1.264 5.306,1.092c2.256,0 5.065,-1.559 8.42,-4.68H27.871z" id="path_8"/><path fill="#008046" d="M27.872,17.602c1.251,2.131 1.877,4.215 1.877,6.238c-0.546,3.848 -1.225,5.771 -2.03,5.771l-0.153,-0.152v-0.154l0.306,-2.029v-0.16c0,-1.246 -0.52,-3.115 -1.558,-5.611v-0.313C26.833,18.793 27.352,17.602 27.872,17.602z" id="path_9"/></svg>