<svg id="vector" xmlns="http://www.w3.org/2000/svg" width="75" height="67" viewBox="0 0 83 73"><path fill="#008046" d="M61.209,21.898c2.184,1.092 3.276,2.03 3.276,2.81c-1.04,2.05 -1.666,3.095 -1.872,3.121h-0.313c-1.597,-0.806 -2.59,-1.537 -2.962,-2.183C59.697,24.461 60.323,23.21 61.209,21.898z" id="path_0"/><path fill="#008046" d="M52.702,37.987H54.5c1.896,-0.26 4.913,-0.965 9.045,-2.103v-0.16c-3.768,-1.665 -6.156,-2.496 -7.175,-2.496c-1.378,0 -2.311,0.778 -2.81,2.343l-0.466,0.313c-0.205,0 -0.313,-0.16 -0.313,-0.474c0.519,-3.115 1.923,-4.68 4.215,-4.68h0.777c0.966,0 4.24,1.092 9.831,3.275l4.214,0.313l0.307,0.473c-0.072,0.699 -0.698,2.05 -1.87,4.055h-0.467l-0.626,-0.16h-0.777c-8.115,2.396 -12.848,3.641 -14.199,3.747h-1.484V37.987z" id="path_1"/><path fill="#008046" d="M62.148,9.312c1.598,0 2.396,0.985 2.396,2.949c0,3.128 -2.668,5.797 -8.014,7.994c-0.767,0.233 -0.859,-0.047 -0.272,-0.839c0.146,-0.3 1.403,-1.238 3.781,-2.809v-0.134c-1.026,-0.419 -1.539,-1.312 -1.539,-2.676c0.679,-2.988 1.757,-4.486 3.235,-4.486H62.148L62.148,9.312zM59.766,12.687c0,0.832 0.704,1.345 2.11,1.544h0.272c0.52,0 0.853,-0.192 0.991,-0.566c0,-0.845 -0.612,-1.503 -1.831,-1.97C60.776,11.694 60.265,12.027 59.766,12.687z" id="path_2"/><path fill="#DD2C00" d="M53.328,42.434c-0.245,0 -0.546,0 -0.898,0c-1.391,-0.014 -2.889,-1.058 -4.507,-3.142c-0.618,2.29 -1.711,3.435 -3.274,3.435h-0.154c-1.324,0 -2.416,-0.779 -3.274,-2.344h-0.16c-0.932,1.879 -2.063,2.729 -3.395,2.557c-2.469,0.013 -3.934,-1.151 -4.405,-3.487c-1.738,2.036 -3.608,3.034 -5.6,2.981h-0.253v-4.446h0.08c3.149,-0.107 5.485,-1.179 7.022,-3.216c0.206,0 0.313,0.153 0.313,0.467l-0.16,1.092c0.833,1.663 1.924,2.496 3.274,2.496c1.279,0 2.576,-1.245 3.902,-3.741h0.158l0.466,0.466v1.092c0,0.985 0.733,1.558 2.185,1.718h0.312c1.352,0 2.604,-1.352 3.748,-4.061h0.154c0.205,0 0.313,0.472 0.313,1.404c0.571,1.577 1.956,2.336 4.153,2.283V42.434z" id="path_3"/><path fill="#DD2C00" d="M40.514,19.929h1.545c1.87,0 2.808,0.698 2.808,2.103c-1.211,3.275 -2.681,5.013 -4.413,5.213l-2.041,0.272c-0.328,0 -0.461,-0.093 -0.414,-0.272c1.65,-0.873 3.194,-1.911 4.626,-3.103c-0.505,-0.473 -1.064,-0.705 -1.677,-0.705h-0.434l-1.677,0.14l-0.133,-0.14v-0.273C39.496,21.007 40.103,19.929 40.514,19.929z" id="path_4"/><path fill="#000001" d="M27.68,42.447c-0.138,0.013 -0.284,0.02 -0.425,0.02h-0.786c-1.217,0 -2.049,-0.1 -2.496,-0.313c-0.904,3.501 -1.964,5.645 -3.175,6.431c-1.211,0.785 -3.947,1.45 -8.208,1.997h-0.312c-0.938,-0.106 -1.404,-0.26 -1.404,-0.467c0,-0.313 0.778,-0.679 2.336,-1.092c6.137,-2.809 9.205,-4.838 9.205,-6.084c0,-0.52 -0.726,-1.717 -2.183,-3.588c-0.313,-0.525 -0.466,-1.197 -0.466,-2.03v-1.557c0,-0.786 0.152,-1.198 0.466,-1.252c1.352,2.07 3.641,3.222 6.862,3.468c0.199,0 0.393,0 0.585,-0.014V42.447z" id="path_5"/><path fill="#f06022" d="M24.072,55.826l0.16,0.14v0.427c-0.806,1.73 -1.931,2.942 -3.374,3.648c-4.474,2.429 -6.956,3.647 -7.449,3.647c-0.18,0 -0.273,-0.147 -0.273,-0.433c0.428,-1.651 1.365,-2.77 2.811,-3.355l7.993,-4.074H24.072z" id="path_6"/><path fill="#f06022" d="M22.961,52.318c0.188,0 0.272,0.134 0.272,0.406c-0.519,1.512 -2.055,2.869 -4.619,4.081l-5.911,3.235L12.57,59.9v-0.153c0.56,-1.977 1.451,-3.195 2.67,-3.647l6.596,-3.375L22.961,52.318z" id="path_7"/></svg>