<svg id="vector" xmlns="http://www.w3.org/2000/svg" width="75" height="67" viewBox="0 0 83 73"><path fill="#000001" d="M68.849,33.868c1.271,0.205 2.523,0.984 3.742,2.336v0.313c-0.779,2.084 -1.352,3.123 -1.718,3.123c-2.497,-0.859 -3.741,-1.539 -3.741,-2.031C67.132,36.649 67.704,35.397 68.849,33.868z" id="path_0"/><path fill="#000001" d="M70.447,42.349c0.931,0.938 1.816,2.961 2.649,6.082l0.158,2.031c0,3.668 -1.822,6.164 -5.464,7.488l-1.093,0.154l-2.769,0.039l-2.688,-0.039l-0.154,-0.154v-0.16c0.334,-0.359 2.57,-1.451 6.704,-3.275c2.603,-1.477 4.007,-2.781 4.214,-3.898c-1.352,-2.883 -2.023,-4.547 -2.023,-4.994v-0.465C69.981,43.286 70.134,42.349 70.447,42.349z" id="path_1"/><path fill="#000001" d="M73.116,24.229c0.16,-0.094 0.207,0.053 0.139,0.432c-0.885,2.076 -2.242,3.529 -4.072,4.346l-6.73,3.375c-0.286,-0.08 -0.34,-0.311 -0.16,-0.705c0.898,-1.73 1.512,-2.754 1.838,-3.082L73.116,24.229z" id="path_2"/><path fill="#0992d1" d="M48.274,49.683c2.183,1.092 3.275,2.031 3.275,2.809c-1.039,2.057 -1.665,3.096 -1.871,3.123h-0.313c-1.597,-0.807 -2.589,-1.539 -2.962,-2.184C46.763,52.245 47.389,50.995 48.274,49.683z" id="path_3"/><path fill="#0992d1" d="M39.767,45.55h1.797c1.897,-0.26 4.914,-0.967 9.047,-2.104v-0.16c-3.768,-1.664 -6.158,-2.496 -7.176,-2.496c-1.377,0 -2.311,0.779 -2.809,2.342l-0.467,0.314c-0.205,0 -0.313,-0.16 -0.313,-0.473c0.52,-3.115 1.924,-4.68 4.214,-4.68h0.779c0.964,0 4.239,1.092 9.831,3.275l4.214,0.313l0.306,0.473c-0.072,0.697 -0.699,2.049 -1.871,4.053h-0.466l-0.625,-0.16H55.45c-8.115,2.398 -12.848,3.643 -14.199,3.75h-1.484V45.55z" id="path_4"/><path fill="#0992d1" d="M48.58,24.874h1.544c1.871,0 2.811,0.699 2.811,2.104c-1.213,3.275 -2.684,5.014 -4.415,5.213l-2.042,0.271c-0.327,0 -0.46,-0.092 -0.414,-0.271c1.65,-0.873 3.195,-1.912 4.627,-3.104c-0.506,-0.473 -1.064,-0.705 -1.678,-0.705H48.58l-1.677,0.141l-0.134,-0.141V28.11C47.562,25.952 48.167,24.874 48.58,24.874z" id="path_5"/><path fill="#008046" d="M39.96,50.009c-0.14,0.014 -0.286,0.02 -0.426,0.02h-0.785c-1.219,0 -2.051,-0.1 -2.496,-0.313c-0.906,3.502 -1.965,5.645 -3.176,6.43c-1.211,0.787 -3.947,1.453 -8.207,1.998h-0.313c-0.939,-0.107 -1.405,-0.26 -1.405,-0.467c0,-0.313 0.778,-0.678 2.337,-1.092c6.137,-2.809 9.206,-4.838 9.206,-6.082c0,-0.52 -0.727,-1.719 -2.183,-3.59c-0.314,-0.525 -0.468,-1.197 -0.468,-2.029v-1.559c0,-0.785 0.153,-1.197 0.468,-1.25c1.35,2.07 3.641,3.221 6.861,3.469c0.2,0 0.394,0 0.586,-0.014V50.009z" id="path_6"/><path fill="#008046" d="M36.665,31.19c0.16,-0.092 0.207,0.055 0.141,0.434c-0.886,2.076 -2.244,3.527 -4.074,4.348l-6.73,3.373c-0.286,-0.08 -0.339,-0.313 -0.16,-0.705c0.9,-1.73 1.512,-2.756 1.838,-3.082L36.665,31.19z" id="path_7"/><path fill="#000001" d="M12.763,30.632c1.217,0.365 2.469,1.145 3.74,2.344v0.152c-1.165,2.057 -1.844,3.096 -2.023,3.123h-0.473c-0.879,-0.135 -1.817,-0.701 -2.811,-1.719V34.38C11.304,33.155 11.823,31.909 12.763,30.632z" id="path_8"/><path fill="#000001" d="M18.687,30.944c1.145,0.26 2.289,0.939 3.434,2.031v0.152c0,0.572 -0.625,1.611 -1.869,3.123h-0.467c-0.732,0 -1.664,-0.574 -2.809,-1.719C17.262,32.921 17.835,31.724 18.687,30.944z" id="path_9"/><path fill="#000001" d="M21.242,38.493l0.159,0.467c-0.213,0.885 -1.145,1.924 -2.809,3.121c1.664,1.352 2.496,3.328 2.496,5.932v0.152c0,4.268 -1.771,6.396 -5.305,6.396c-2.81,-0.545 -4.214,-1.951 -4.214,-4.213v-0.154c0.106,-1.949 0.886,-4.033 2.343,-6.242c-1.352,-0.414 -2.029,-0.984 -2.029,-1.717c0,-1.951 0.152,-3.143 0.465,-3.59c1.404,0.395 2.969,1.172 4.68,2.344h0.16L21.242,38.493L21.242,38.493zM15.157,44.729c-1.244,1.252 -1.869,2.137 -1.869,2.656c0,1.611 1.145,2.551 3.435,2.809c1.191,-0.16 2.235,-0.572 3.114,-1.25C18.825,47.2 17.268,45.802 15.157,44.729z" id="path_10"/><path fill="#f06022" d="M18.027,17.458c1.191,0 1.896,0.793 2.103,2.377v0.432c-0.219,2.65 -1.104,4.381 -2.648,5.186c-2.689,1.691 -5.133,2.537 -7.316,2.537c-0.08,-0.014 -0.152,-0.033 -0.232,-0.061c-0.079,-0.025 -0.14,-0.066 -0.187,-0.119c-0.046,-0.047 -0.04,-0.08 0.014,-0.094c0.112,-0.26 2.077,-1.299 5.884,-3.102v-0.139c-1.025,-0.646 -1.537,-1.539 -1.537,-2.67C14.719,18.903 16.023,17.458 18.027,17.458L18.027,17.458zM15.511,20.401v0.133c0,0.965 0.659,1.531 1.971,1.697h0.405c0.499,0 0.779,-0.141 0.84,-0.426c0,-1.313 -0.699,-1.971 -2.104,-1.971C15.884,20.001 15.511,20.194 15.511,20.401z" id="path_11"/><path fill="#f06022" d="M14.945,14.923c0.3,-0.146 0.438,-0.047 0.426,0.293c-1.505,1.662 -2.688,3.242 -3.548,4.74c-0.246,0.584 -0.387,1.064 -0.42,1.449c-0.033,0.387 0.068,0.799 0.307,1.238h0.293c0.113,-0.652 0.346,-0.979 0.699,-0.979c0.418,0.188 0.652,0.373 0.699,0.566v0.273c0.025,1.482 -0.394,2.375 -1.266,2.676h-0.699c-0.938,-0.188 -1.404,-1.266 -1.404,-3.242C10.032,19.534 11.67,17.198 14.945,14.923z" id="path_12"/></svg>