<svg id="vector" xmlns="http://www.w3.org/2000/svg" width="75" height="67" viewBox="0 0 83 73"><path fill="#000001" d="M58.837,34.657c1.169,0 2.347,0.583 3.525,1.751c0.113,0.201 0.071,0.358 -0.135,0.474c-0.204,0.113 -0.394,0.092 -0.562,-0.08c-0.506,-0.453 -1.224,-0.681 -2.15,-0.681h-0.394c-0.386,0 -0.842,0.168 -1.36,0.493c0,0.948 1.14,1.531 3.416,1.752l2.259,-0.884l0.091,0.301c0,1.063 -1.304,2.013 -3.914,2.843l-3.616,2.055l-0.381,0.097c-0.151,0.034 -0.247,-0.031 -0.3,-0.188c0,-0.572 0.813,-1.354 2.446,-2.358v-0.091c-0.786,-0.438 -1.185,-1.056 -1.185,-1.866C56.948,35.865 57.694,34.657 58.837,34.657z" id="path_0"/><path fill="#DD2C00" d="M64.186,46.82c0.17,0 0.349,0 0.538,0h0.129c1.575,-0.097 3.011,-1.406 4.292,-3.931c1.392,-2.108 2.826,-3.161 4.3,-3.161c1.854,0 2.781,1.178 2.781,3.538v0.631c0,1.158 -0.463,2.674 -1.392,4.553l-0.883,0.629c-0.783,0 -2.588,-0.549 -5.438,-1.644c-0.861,1.295 -1.534,2.083 -2.021,2.356c-0.738,0.515 -1.492,0.729 -2.272,0.632h-0.033V46.82L64.186,46.82zM70.536,44.15v0.124c2.19,0.847 3.5,1.268 3.922,1.268c0.165,0 0.252,-0.128 0.252,-0.382c-0.484,-1.262 -1.288,-1.894 -2.404,-1.894C71.528,43.267 70.937,43.563 70.536,44.15z" id="path_1"/><path fill="#DD2C00" d="M71.126,27.497c1.293,0 1.94,0.798 1.94,2.391c0,2.535 -2.162,4.697 -6.49,6.477c-0.621,0.189 -0.697,-0.038 -0.222,-0.68c0.117,-0.243 1.138,-1.003 3.062,-2.276v-0.107c-0.831,-0.339 -1.244,-1.063 -1.244,-2.167c0.55,-2.423 1.424,-3.636 2.621,-3.636H71.126L71.126,27.497zM69.193,30.233c0,0.674 0.572,1.089 1.711,1.25h0.222c0.42,0 0.689,-0.157 0.802,-0.459c0,-0.684 -0.496,-1.217 -1.484,-1.595C70.014,29.428 69.601,29.698 69.193,30.233z" id="path_2"/><path fill="#000001" d="M64.74,50.423l-1.425,-0.017c-0.786,3.468 -2.874,5.22 -6.255,5.264c-1.813,0.08 -2.717,0.049 -2.717,-0.097c0.166,-0.318 1.381,-0.927 3.634,-1.834c2.317,-1.472 3.714,-2.422 4.2,-2.843l0.13,-0.378l-2.209,-0.349c-1.612,-0.421 -2.521,-1.229 -2.718,-2.432v-0.255c0,-2.043 0.501,-3.347 1.514,-3.92l0.763,-0.125c1.493,0 2.712,1.04 3.659,3.127c0.606,0.211 1.078,0.313 1.426,0.304v3.554H64.74z" id="path_3"/><path fill="#000001" d="M58.68,27.19h1.251c1.517,0 2.274,0.566 2.274,1.703c-0.979,2.656 -2.171,4.063 -3.573,4.224l-1.657,0.221c-0.265,0 -0.373,-0.075 -0.335,-0.221c1.337,-0.707 2.59,-1.548 3.748,-2.514c-0.408,-0.383 -0.861,-0.571 -1.36,-0.571H58.68l-1.359,0.112l-0.107,-0.112v-0.221C57.854,28.064 58.347,27.19 58.68,27.19z" id="path_4"/><path fill="#008046" d="M34.282,46.82h0.491c1.668,-0.179 3.07,-1.186 4.206,-3.02c0.167,-0.378 0.336,-0.587 0.501,-0.632h0.128l0.38,0.383c-0.055,0.479 -0.135,0.818 -0.255,1.01c0.739,1.347 1.624,2.021 2.654,2.021l0.13,0.123c1.834,-4.044 3.896,-6.065 6.19,-6.065c1.836,0 3.184,0.76 4.045,2.276v0.76c0,4.632 -2.863,6.949 -8.595,6.949l-1.894,-0.121c-0.59,1.595 -0.973,2.398 -1.14,2.398L41,52.779v-0.131l0.378,-2.144V50.25c-1.244,-0.694 -2.21,-1.667 -2.906,-2.907c-0.651,2.137 -2.048,3.168 -4.19,3.08V46.82L34.282,46.82zM43.778,46.961h0.252c2.863,0 5.308,-0.421 7.329,-1.261c0,-0.907 -0.839,-1.539 -2.522,-1.899h-0.508C46.309,43.801 44.794,44.858 43.778,46.961z" id="path_5"/><path fill="#008046" d="M48.978,30.751c0.129,-0.075 0.167,0.042 0.113,0.35c-0.719,1.683 -1.818,2.858 -3.301,3.522l-5.454,2.732c-0.231,-0.064 -0.273,-0.252 -0.128,-0.572c0.729,-1.401 1.224,-2.232 1.489,-2.495L48.978,30.751z" id="path_6"/><path fill="#DD2C00" d="M34.88,50.439c-2.169,-0.145 -4.136,-1.333 -5.905,-3.554h-0.129c-0.754,4.377 -2.443,6.567 -5.052,6.573h-0.385c-1.131,-0.006 -2.232,-1.014 -3.283,-3.035c-0.842,-2.844 -1.262,-4.994 -1.262,-6.446v-1.012c0,-0.632 0.123,-0.97 0.377,-1.01c0.356,0.191 0.784,1.569 1.272,4.147c0.491,2.573 1.5,3.802 3.026,3.688c2.949,-0.484 4.508,-2.174 4.676,-5.057L27.08,40.82v-1.392c0.042,-1.688 0.208,-2.531 0.506,-2.531c0.166,0.38 0.296,0.76 0.377,1.139l1.771,5.561c1.392,2.253 3.11,3.32 5.148,3.192v3.649H34.88z" id="path_7"/><path fill="#DD2C00" d="M31.124,27.384c0.128,-0.076 0.166,0.044 0.113,0.352c-0.72,1.683 -1.819,2.856 -3.302,3.523l-5.453,2.732c-0.232,-0.066 -0.276,-0.252 -0.129,-0.572c0.727,-1.403 1.224,-2.231 1.489,-2.497L31.124,27.384z" id="path_8"/><path fill="#000001" d="M9.245,31.038c0.985,0.294 1.999,0.926 3.028,1.897v0.124c-0.941,1.666 -1.493,2.507 -1.636,2.529h-0.383C9.54,35.48 8.78,35.022 7.976,34.197v-0.125C8.061,33.08 8.482,32.072 9.245,31.038z" id="path_9"/><path fill="#000001" d="M14.043,31.288c0.926,0.212 1.855,0.762 2.781,1.646v0.125c0,0.463 -0.508,1.305 -1.514,2.529h-0.38c-0.591,0 -1.348,-0.463 -2.273,-1.392C12.89,32.89 13.354,31.921 14.043,31.288z" id="path_10"/><path fill="#000001" d="M16.115,37.404l0.126,0.377c-0.17,0.718 -0.926,1.561 -2.274,2.53c1.348,1.098 2.023,2.696 2.023,4.805v0.125c0,3.455 -1.433,5.183 -4.299,5.183c-2.275,-0.442 -3.413,-1.579 -3.413,-3.413v-0.124c0.086,-1.581 0.718,-3.267 1.9,-5.059c-1.096,-0.334 -1.646,-0.798 -1.646,-1.39c0,-1.581 0.124,-2.546 0.379,-2.908c1.137,0.318 2.404,0.95 3.791,1.899h0.13L16.115,37.404L16.115,37.404zM11.184,42.458c-1.006,1.014 -1.516,1.729 -1.516,2.151c0,1.306 0.93,2.065 2.784,2.275c0.966,-0.13 1.813,-0.466 2.522,-1.014C14.158,44.458 12.894,43.325 11.184,42.458z" id="path_11"/><path fill="#f06022" d="M13.508,19.394c0.966,0 1.537,0.643 1.704,1.924v0.35c-0.177,2.147 -0.893,3.55 -2.144,4.202c-2.181,1.369 -4.158,2.052 -5.929,2.052c-0.063,-0.01 -0.122,-0.024 -0.188,-0.048c-0.065,-0.021 -0.113,-0.053 -0.152,-0.095c-0.038,-0.038 -0.033,-0.066 0.011,-0.076c0.093,-0.21 1.683,-1.053 4.769,-2.514v-0.112c-0.831,-0.524 -1.246,-1.248 -1.246,-2.165C10.829,20.562 11.887,19.394 13.508,19.394L13.508,19.394zM11.47,21.777v0.108c0,0.782 0.535,1.24 1.598,1.375h0.329c0.402,0 0.629,-0.113 0.678,-0.345c0,-1.063 -0.566,-1.595 -1.703,-1.595C11.774,21.453 11.47,21.61 11.47,21.777z" id="path_12"/><path fill="#f06022" d="M11.012,17.339c0.245,-0.117 0.356,-0.038 0.345,0.236c-1.217,1.351 -2.178,2.628 -2.874,3.841c-0.2,0.474 -0.313,0.864 -0.338,1.177c-0.027,0.312 0.053,0.647 0.247,1.003h0.238c0.093,-0.528 0.282,-0.792 0.568,-0.792c0.337,0.15 0.526,0.301 0.564,0.458v0.22c0.021,1.202 -0.318,1.925 -1.023,2.169H8.169c-0.758,-0.152 -1.137,-1.025 -1.137,-2.626C7.032,21.075 8.359,19.184 11.012,17.339z" id="path_13"/></svg>