<svg id="vector" xmlns="http://www.w3.org/2000/svg" width="75" height="67" viewBox="0 0 83 73"><path fill="#213e95" d="M72.939,26.234c1.256,0 2.412,0.773 3.475,2.318c-0.891,2.027 -1.569,3.043 -2.028,3.043c-1.954,-0.965 -3.017,-1.596 -3.19,-1.887C71.195,28.795 71.777,27.633 72.939,26.234z" id="path_0"/><path fill="#213e95" d="M68.247,44.418h0.724c4.507,-0.088 7.498,-0.719 8.982,-1.904l0.29,-0.576c-0.19,-0.463 -0.433,-0.691 -0.723,-0.691c-0.698,0.389 -1.471,0.58 -2.319,0.58h-0.148c-2.51,-0.291 -3.814,-1.305 -3.905,-3.041v-0.148c0.239,-3.283 1.014,-4.922 2.318,-4.922h0.724c2.23,-0.109 3.926,1.627 5.068,5.211l0.143,1.453v0.291c-0.031,3.549 -1.305,5.893 -3.82,7.023c-0.892,0.568 -3.339,0.854 -7.333,0.854V44.418z" id="path_1"/><path fill="#213e95" d="M78.292,16.438c0.15,-0.088 0.193,0.049 0.131,0.4c-0.823,1.93 -2.083,3.277 -3.783,4.037l-6.25,3.135c-0.266,-0.074 -0.316,-0.291 -0.148,-0.654c0.835,-1.609 1.404,-2.561 1.706,-2.863L78.292,16.438z" id="path_2"/><path fill="#000001" d="M68.39,48.547c-2.814,0.166 -4.86,-1.133 -6.14,-3.896c-0.618,-1.025 -1.193,-7.943 -1.737,-20.752v-0.291c0.359,-2.127 0.892,-3.189 1.59,-3.189l0.729,-0.143c0.889,0 2.244,0.291 4.056,0.865v0.291c-0.1,0.291 -0.39,0.439 -0.871,0.439h-2.462c-0.507,0 -0.988,0.285 -1.452,0.865c0.45,11.121 1.105,17.563 1.978,19.324c0.865,1.764 2.307,2.547 4.31,2.357V48.547z" id="path_3"/><path fill="#f06022" d="M50.425,48.416c-8.044,0.34 -12.372,-0.031 -12.977,-1.119c-0.612,-1.088 2.169,-1.643 8.339,-1.668c1.219,-0.025 1.991,-0.057 2.319,-0.105c4.902,-0.76 7.894,-1.584 8.982,-2.467v-0.143l-1.596,-3.771v-0.574c0,-1.936 0.242,-2.9 0.724,-2.9c1.354,2.586 2.028,4.613 2.028,6.084v0.291c0,3.357 -1.689,5.291 -5.07,5.799C52.316,48.07 51.399,48.262 50.425,48.416z" id="path_4"/><path fill="#f06022" d="M53.138,27.682c0.896,0 2.003,0.631 3.333,1.885v0.291c-0.823,2.121 -1.396,3.186 -1.738,3.186c-1.644,-0.627 -2.658,-1.256 -3.042,-1.887v-0.143C51.69,30 52.174,28.887 53.138,27.682z" id="path_5"/><path fill="#f06022" d="M52.718,18.08h1.434c1.737,0 2.609,0.65 2.609,1.955c-1.125,3.041 -2.492,4.654 -4.099,4.84l-1.898,0.254c-0.302,0 -0.427,-0.088 -0.382,-0.254c1.533,-0.809 2.966,-1.775 4.296,-2.881c-0.47,-0.439 -0.99,-0.654 -1.558,-0.654h-0.402l-1.558,0.129l-0.125,-0.129v-0.254C51.772,19.082 52.334,18.08 52.718,18.08z" id="path_6"/><path fill="#008046" d="M29.268,44.418h0.563c1.909,-0.205 3.519,-1.361 4.823,-3.463c0.19,-0.434 0.382,-0.674 0.573,-0.725h0.15l0.431,0.439c-0.061,0.551 -0.154,0.939 -0.291,1.156c0.849,1.545 1.862,2.318 3.043,2.318l0.147,0.143c2.103,-4.637 4.464,-6.955 7.097,-6.955c2.103,0 3.649,0.871 4.638,2.609v0.871c0,5.311 -3.282,7.969 -9.854,7.969l-2.17,-0.143c-0.673,1.83 -1.113,2.752 -1.305,2.752l-0.143,-0.143V51.1l0.433,-2.461V48.35c-1.427,-0.799 -2.535,-1.91 -3.33,-3.332c-0.749,2.447 -2.351,3.627 -4.806,3.529V44.418L29.268,44.418zM40.155,44.576h0.291c3.282,0 6.082,-0.48 8.4,-1.445c0,-1.039 -0.963,-1.762 -2.892,-2.176h-0.581C43.056,40.955 41.317,42.166 40.155,44.576z" id="path_7"/><path fill="#008046" d="M44.953,25.994c0.147,-0.086 0.19,0.049 0.13,0.402c-0.822,1.928 -2.084,3.275 -3.783,4.037l-6.252,3.133c-0.265,-0.074 -0.313,-0.291 -0.148,-0.654c0.835,-1.607 1.404,-2.559 1.707,-2.863L44.953,25.994z" id="path_8"/><path fill="#0992d1" d="M14.562,51.371c0.495,0 1.65,0.582 3.474,1.738c0,0.723 -0.581,1.885 -1.736,3.48c-2.318,-0.748 -3.48,-1.428 -3.48,-2.027C12.881,54.018 13.462,52.955 14.562,51.371z" id="path_9"/><path fill="#0992d1" d="M29.387,48.564c-1.849,-0.148 -4.148,-1.447 -5.646,-3.895c-2.22,2.701 -5.408,4.057 -9.563,4.057h-1.156c-4.493,0 -7.584,-1.93 -9.273,-5.793L3.6,42.061v-1.305c0,-1.396 0.632,-2.99 1.886,-4.777h0.143l0.291,0.289v0.725l-0.724,2.318c0,2.535 2.128,4.271 6.373,5.219l2.609,0.141c4.521,0 8.093,-1.545 10.726,-4.637c0.143,0 0.285,0.191 0.433,0.582l-0.147,1.014c0.495,1.822 2.313,2.775 4.198,2.789V48.564z" id="path_10"/><path fill="#0992d1" d="M14.32,27.973h1.435c1.736,0 2.607,0.648 2.607,1.953c-1.125,3.043 -2.49,4.654 -4.097,4.842l-1.899,0.252c-0.303,0 -0.426,-0.086 -0.383,-0.252c1.533,-0.811 2.969,-1.775 4.296,-2.883c-0.47,-0.438 -0.988,-0.654 -1.558,-0.654H14.32l-1.559,0.129l-0.123,-0.129v-0.254C13.374,28.975 13.938,27.973 14.32,27.973z" id="path_11"/></svg>