<svg id="vector" xmlns="http://www.w3.org/2000/svg" width="75" height="67" viewBox="0 0 83 73"><path fill="#008046" d="M51.95,45.841c0.393,0.027 0.792,0.041 1.191,0.041h0.467l1.949,-0.466c-0.465,-0.872 -0.698,-1.478 -0.698,-1.817c0,-4.992 1.61,-7.488 4.832,-7.488l1.251,-0.153c1.638,0.259 3.722,1.244 6.238,2.962l0.16,0.625l-0.16,0.154h-0.619c-1.198,-0.832 -2.55,-1.245 -4.06,-1.245c-2.31,0 -4.234,0.672 -5.771,2.023v0.159c1.351,2.184 3.848,3.275 7.488,3.275c2.863,-1.038 4.733,-1.558 5.618,-1.558c-0.493,2.909 -1.431,4.367 -2.809,4.367c-6.163,2.39 -11.049,3.587 -14.664,3.587H51.95V45.841z" id="path_0"/><path fill="#008046" d="M58.913,27.996c2.603,0.832 3.901,1.511 3.901,2.03v0.313c-0.886,2.291 -1.558,3.436 -2.024,3.436c-2.316,-1.02 -3.514,-1.691 -3.594,-2.031v-0.313C57.196,30.679 57.768,29.533 58.913,27.996z" id="path_1"/><path fill="#008046" d="M65.463,17.426c0.16,-0.093 0.206,0.053 0.14,0.433c-0.885,2.076 -2.244,3.528 -4.074,4.347l-6.73,3.375c-0.286,-0.08 -0.339,-0.313 -0.159,-0.705c0.898,-1.731 1.511,-2.756 1.837,-3.082L65.463,17.426z" id="path_2"/><path fill="#008046" d="M52.144,50.321c-0.141,0.014 -0.287,0.02 -0.426,0.02h-0.786c-1.218,0 -2.05,-0.1 -2.496,-0.312c-0.905,3.501 -1.964,5.644 -3.175,6.43c-1.212,0.786 -3.947,1.45 -8.208,1.997h-0.312c-0.939,-0.106 -1.405,-0.26 -1.405,-0.467c0,-0.313 0.779,-0.678 2.337,-1.091c6.137,-2.81 9.206,-4.839 9.206,-6.084c0,-0.521 -0.725,-1.718 -2.183,-3.589c-0.313,-0.525 -0.466,-1.197 -0.466,-2.029v-1.558c0,-0.784 0.153,-1.198 0.466,-1.252c1.351,2.071 3.641,3.223 6.863,3.468c0.2,0 0.393,0 0.586,-0.014V50.321z" id="path_3"/><path fill="#008046" d="M42.918,31.177h1.544c1.87,0 2.808,0.699 2.808,2.105c-1.211,3.273 -2.682,5.012 -4.413,5.211l-2.042,0.273c-0.327,0 -0.46,-0.094 -0.414,-0.273c1.651,-0.871 3.195,-1.91 4.626,-3.102c-0.506,-0.473 -1.064,-0.706 -1.678,-0.706h-0.432l-1.678,0.14l-0.132,-0.14v-0.272C41.899,32.256 42.505,31.177 42.918,31.177z" id="path_4"/><path fill="#008046" d="M21.491,46.834h0.779c4.852,-0.094 8.073,-0.772 9.671,-2.051l0.313,-0.619c-0.207,-0.499 -0.466,-0.745 -0.779,-0.745c-0.752,0.42 -1.584,0.625 -2.496,0.625h-0.16c-2.702,-0.313 -4.107,-1.404 -4.207,-3.273v-0.16c0.26,-3.535 1.091,-5.299 2.496,-5.299h0.778c2.403,-0.119 4.227,1.75 5.458,5.611l0.153,1.564V42.8c-0.033,3.82 -1.404,6.344 -4.114,7.563c-0.958,0.611 -3.594,0.918 -7.894,0.918V46.834z" id="path_5"/><path fill="#008046" d="M28.354,27.157c1.69,0.519 3.148,1.352 4.366,2.496v0.152c0,0.652 -0.672,1.691 -2.023,3.123c-0.419,0 -1.823,-0.52 -4.213,-1.559v0.153c-0.833,1.612 -1.351,2.443 -1.564,2.496c-1.351,-0.286 -2.496,-0.911 -3.428,-1.87c0.626,-2.603 1.145,-3.9 1.557,-3.9c0.339,0 1.584,0.625 3.749,1.87C26.796,29.573 27.315,28.589 28.354,27.157z" id="path_6"/><path fill="#f06022" d="M32.334,18.051l0.16,0.141v0.426c-0.813,1.731 -1.938,2.942 -3.376,3.648c-4.473,2.429 -6.955,3.646 -7.448,3.646c-0.187,0 -0.279,-0.146 -0.279,-0.432c0.432,-1.651 1.371,-2.77 2.81,-3.355l8,-4.074H32.334z" id="path_7"/><path fill="#f06022" d="M31.223,14.544c0.179,0 0.272,0.133 0.272,0.405c-0.519,1.512 -2.057,2.869 -4.619,4.081l-5.911,3.235l-0.134,-0.141v-0.153c0.56,-1.977 1.445,-3.195 2.67,-3.647l6.589,-3.375L31.223,14.544z" id="path_8"/><path fill="#008046" d="M21.644,51.28c-3.029,0.18 -5.232,-1.218 -6.61,-4.193c-0.666,-1.105 -1.285,-8.554 -1.87,-22.346v-0.313c0.386,-2.289 0.958,-3.434 1.71,-3.434l0.786,-0.153c0.958,0 2.417,0.313 4.367,0.932v0.313c-0.106,0.313 -0.419,0.473 -0.939,0.473h-2.649c-0.545,0 -1.065,0.307 -1.564,0.933c0.485,11.975 1.191,18.91 2.13,20.808c0.931,1.896 2.482,2.742 4.64,2.536V51.28z" id="path_9"/></svg>