<svg id="vector" xmlns="http://www.w3.org/2000/svg" width="75" height="67" viewBox="0 0 83 73"><path fill="#000001" d="M67.989,53.338h0.311c1.068,0.232 2.213,0.857 3.438,1.877v0.152c-0.707,2.131 -1.326,3.275 -1.873,3.436c-1.59,-0.313 -2.781,-0.832 -3.586,-1.564v-0.154C66.278,55.859 66.85,54.615 67.989,53.338z" id="path_0"/><path fill="#000001" d="M73.766,51.932h0.152c1.064,0.16 2.264,0.887 3.588,2.184v0.16l-1.869,3.275c-2.496,-0.805 -3.748,-1.484 -3.748,-2.029C72.694,53.131 73.321,51.932 73.766,51.932z" id="path_1"/><path fill="#000001" d="M66.604,46.201c4.088,0.041 6.371,-0.725 6.869,-2.303c0,-0.545 -0.52,-1.896 -1.564,-4.055l0.473,-4.053h0.307c1.357,2.336 2.029,4.68 2.029,7.016v1.406c0,0.938 -0.225,1.922 -0.672,2.953c-0.447,1.033 -1.139,1.904 -2.063,2.604c-0.934,0.705 -2.723,0.998 -5.379,0.879V46.201z" id="path_2"/><path fill="#000001" d="M78.307,25.041c0.158,-0.094 0.203,0.053 0.137,0.432c-0.885,2.078 -2.242,3.529 -4.072,4.348l-6.73,3.375c-0.285,-0.08 -0.34,-0.314 -0.158,-0.707c0.896,-1.729 1.51,-2.756 1.838,-3.08L78.307,25.041z" id="path_3"/><path fill="#008046" d="M44.858,44.744c1.277,0 2.209,0 2.809,0h0.625c1.871,-0.246 4.666,-1.045 8.389,-2.396c-1.252,-1.045 -3.176,-1.824 -5.773,-2.344c-1.537,0 -2.576,0.727 -3.121,2.184c-0.193,0.434 -0.365,0.547 -0.52,0.34c-0.146,-0.201 -0.186,-0.467 -0.105,-0.807c0.938,-3.148 2.182,-4.719 3.746,-4.719h1.092c1.037,0 2.916,0.586 5.625,1.758c2.711,1.164 5.047,1.639 7.01,1.404c0.246,0 0.354,0.154 0.313,0.465c-0.42,2.598 -1.197,3.902 -2.342,3.902l-0.779,0.152v0.313c0.393,0.818 2.189,1.211 5.404,1.172v4.428c-4.652,0.246 -6.975,-1.564 -6.961,-5.439c-1.666,0.246 -3.922,1.018 -6.771,2.33c-2.85,1.305 -5.723,1.863 -8.639,1.684V44.744z" id="path_4"/><path fill="#008046" d="M52.639,28.654c2.182,1.092 3.281,2.031 3.281,2.811c-1.045,2.049 -1.666,3.096 -1.877,3.121h-0.313c-1.6,-0.805 -2.584,-1.537 -2.963,-2.184C51.133,31.219 51.758,29.967 52.639,28.654z" id="path_5"/><path fill="#008046" d="M52.792,18.551h1.543c1.871,0 2.811,0.699 2.811,2.104c-1.213,3.275 -2.684,5.012 -4.412,5.211l-2.045,0.273c-0.328,0 -0.459,-0.092 -0.412,-0.273c1.65,-0.871 3.195,-1.91 4.625,-3.102c-0.506,-0.473 -1.064,-0.705 -1.678,-0.705h-0.432l-1.678,0.141l-0.133,-0.141v-0.271C51.772,19.629 52.379,18.551 52.792,18.551z" id="path_6"/><path fill="#008046" d="M44.756,49.203c-0.139,0.014 -0.285,0.021 -0.426,0.021h-0.785c-1.217,0 -2.051,-0.102 -2.496,-0.314c-0.904,3.502 -1.965,5.645 -3.176,6.43c-1.211,0.787 -3.947,1.453 -8.207,1.998h-0.313c-0.938,-0.107 -1.404,-0.26 -1.404,-0.465c0,-0.314 0.777,-0.68 2.336,-1.094c6.137,-2.809 9.207,-4.838 9.207,-6.082c0,-0.52 -0.727,-1.719 -2.184,-3.588c-0.313,-0.527 -0.467,-1.199 -0.467,-2.031v-1.557c0,-0.787 0.154,-1.199 0.467,-1.252c1.352,2.07 3.641,3.221 6.861,3.469c0.201,0 0.395,0 0.586,-0.014V49.203z" id="path_7"/><path fill="#008046" d="M37.155,27.518c1.6,0 2.396,0.984 2.396,2.947c0,3.129 -2.67,5.799 -8.014,7.996c-0.766,0.232 -0.859,-0.047 -0.273,-0.84c0.146,-0.299 1.404,-1.238 3.781,-2.809V34.68c-1.025,-0.42 -1.537,-1.313 -1.537,-2.676c0.678,-2.99 1.756,-4.486 3.234,-4.486H37.155L37.155,27.518zM34.772,30.891c0,0.832 0.705,1.346 2.109,1.545h0.273c0.52,0 0.852,-0.193 0.992,-0.564c0,-0.846 -0.611,-1.506 -1.83,-1.971C35.784,29.9 35.27,30.232 34.772,30.891z" id="path_8"/><path fill="#DD2C00" d="M14.198,41.137h0.313c0.752,0 1.844,0.725 3.275,2.184v0.152c0,0.68 -0.619,1.717 -1.873,3.121c-2.182,-0.572 -3.273,-1.35 -3.273,-2.342C12.952,43.133 13.471,42.096 14.198,41.137z" id="path_9"/><path fill="#DD2C00" d="M22.463,28.496l0.16,0.16v0.152c-0.545,2.809 -1.742,4.213 -3.588,4.213c-2.316,0 -4.912,1.039 -7.801,3.121c-3.221,2.703 -4.84,5.771 -4.84,9.201c0,4.658 2.656,7.881 7.963,9.672l5.457,0.473l8.74,-0.627h1.711l0.158,0.154v0.158c0,0.6 -1.611,1.484 -4.838,2.65c-1.311,0.572 -4.014,1.197 -8.115,1.877c-5.326,0 -8.705,-1.359 -10.137,-4.061c-1.664,-2.443 -2.496,-5.305 -2.496,-8.58c0,-5.332 2.182,-9.904 6.549,-13.727H7.959c-0.832,0 -1.871,0.727 -3.121,2.184l-0.314,-0.313v-0.313c1.041,-3.955 2.656,-5.932 4.842,-5.932C9.776,29.068 14.145,28.916 22.463,28.496z" id="path_10"/><path fill="#DD2C00" d="M15.135,13.299c1.598,0 2.396,0.984 2.396,2.947c0,3.129 -2.67,5.799 -8.014,7.996c-0.766,0.232 -0.859,-0.047 -0.273,-0.84c0.146,-0.299 1.404,-1.238 3.781,-2.809v-0.133c-1.025,-0.42 -1.537,-1.311 -1.537,-2.676c0.678,-2.988 1.758,-4.486 3.232,-4.486H15.135L15.135,13.299zM12.752,16.674c0,0.832 0.705,1.344 2.109,1.543h0.273c0.52,0 0.852,-0.191 0.992,-0.564c0,-0.846 -0.611,-1.504 -1.83,-1.971C13.764,15.682 13.252,16.016 12.752,16.674z" id="path_11"/></svg>