<svg id="vector" xmlns="http://www.w3.org/2000/svg" width="75" height="67" viewBox="0 0 83 73"><path fill="#000001" d="M57.934,17.829c0.313,0 0.625,1.045 0.938,3.122l1.405,3.122l-0.626,3.588l0.466,8.739v1.398c-0.207,3.568 -0.726,5.645 -1.558,6.243l-0.153,-0.153l0.153,-2.343c0,-2.103 -0.679,-8.813 -2.03,-20.123C57.181,19.026 57.646,17.829 57.934,17.829z" id="path_0"/><path fill="#000001" d="M62.592,8.702c0.16,-0.093 0.207,0.054 0.14,0.433c-0.885,2.077 -2.243,3.528 -4.074,4.347l-6.73,3.375c-0.287,-0.08 -0.339,-0.313 -0.16,-0.706c0.899,-1.73 1.511,-2.756 1.837,-3.082L62.592,8.702z" id="path_1"/><path fill="#213e95" d="M35.88,38.623c0.212,0 0.433,0 0.666,0h0.16c1.943,-0.12 3.714,-1.737 5.297,-4.852c1.718,-2.603 3.489,-3.901 5.306,-3.901c2.291,0 3.435,1.451 3.435,4.366v0.779c0,1.431 -0.572,3.301 -1.717,5.618l-1.092,0.779c-0.965,0 -3.195,-0.679 -6.709,-2.03c-1.065,1.597 -1.897,2.569 -2.496,2.909c-0.913,0.632 -1.844,0.898 -2.81,0.778h-0.04V38.623L35.88,38.623zM43.722,35.329v0.153c2.702,1.045 4.319,1.564 4.839,1.564c0.206,0 0.313,-0.16 0.313,-0.472c-0.6,-1.558 -1.591,-2.337 -2.969,-2.337C44.946,34.236 44.214,34.603 43.722,35.329z" id="path_2"/><path fill="#213e95" d="M43.795,17.302h1.544c1.87,0 2.809,0.699 2.809,2.104c-1.212,3.274 -2.683,5.012 -4.413,5.212l-2.044,0.273c-0.327,0 -0.459,-0.093 -0.412,-0.273c1.65,-0.872 3.194,-1.91 4.625,-3.102c-0.506,-0.473 -1.065,-0.706 -1.677,-0.706h-0.433l-1.677,0.14l-0.133,-0.14v-0.273C42.776,18.381 43.382,17.302 43.795,17.302z" id="path_3"/><path fill="#DD2C00" d="M37.045,43.083c-0.141,0.014 -0.287,0.021 -0.426,0.021h-0.786c-1.218,0 -2.05,-0.1 -2.496,-0.313c-0.905,3.5 -1.963,5.645 -3.175,6.43c-1.212,0.786 -3.947,1.451 -8.207,1.997h-0.313c-0.939,-0.106 -1.404,-0.259 -1.404,-0.466c0,-0.313 0.778,-0.679 2.336,-1.091c6.137,-2.81 9.206,-4.839 9.206,-6.084c0,-0.519 -0.726,-1.717 -2.184,-3.587c-0.313,-0.526 -0.466,-1.198 -0.466,-2.03V36.4c0,-0.785 0.153,-1.198 0.466,-1.251c1.352,2.07 3.641,3.222 6.863,3.467c0.2,0 0.393,0 0.586,-0.013V43.083z" id="path_4"/><path fill="#f06022" d="M33.438,56.463l0.16,0.14v0.426c-0.807,1.73 -1.931,2.941 -3.376,3.647c-4.473,2.43 -6.955,3.648 -7.448,3.648c-0.18,0 -0.273,-0.146 -0.273,-0.433c0.426,-1.651 1.365,-2.769 2.81,-3.354l7.995,-4.074H33.438z" id="path_5"/><path fill="#f06022" d="M32.326,52.955c0.186,0 0.272,0.134 0.272,0.407c-0.519,1.51 -2.057,2.869 -4.619,4.08l-5.911,3.235l-0.134,-0.139v-0.153c0.56,-1.978 1.451,-3.195 2.67,-3.648l6.596,-3.375L32.326,52.955z" id="path_6"/></svg>