<svg id="vector" xmlns="http://www.w3.org/2000/svg" width="75" height="67" viewBox="0 0 83 73"><path fill="#000001" d="M71.244,25.447c1.351,0 2.596,0.832 3.742,2.496c-0.96,2.184 -1.691,3.275 -2.185,3.275c-2.104,-1.039 -3.249,-1.717 -3.435,-2.029C69.367,28.203 69.992,26.951 71.244,25.447z" id="path_0"/><path fill="#000001" d="M66.192,45.025h0.778c4.853,-0.094 8.074,-0.773 9.671,-2.051l0.314,-0.619c-0.207,-0.5 -0.467,-0.746 -0.778,-0.746c-0.753,0.418 -1.586,0.625 -2.496,0.625h-0.16c-2.703,-0.313 -4.107,-1.404 -4.208,-3.275v-0.158c0.261,-3.535 1.092,-5.299 2.496,-5.299h0.779c2.403,-0.119 4.227,1.75 5.459,5.611l0.152,1.564v0.313c-0.033,3.82 -1.404,6.344 -4.113,7.563c-0.959,0.611 -3.594,0.918 -7.895,0.918V45.025z" id="path_1"/><path fill="#000001" d="M77.009,14.896c0.159,-0.092 0.206,0.055 0.14,0.434c-0.885,2.076 -2.242,3.527 -4.073,4.346l-6.73,3.375c-0.286,-0.08 -0.339,-0.313 -0.16,-0.705c0.899,-1.73 1.512,-2.756 1.838,-3.082L77.009,14.896z" id="path_2"/><path fill="#213e95" d="M67.542,49.471c-3.028,0.18 -5.231,-1.219 -6.608,-4.193c-0.665,-1.105 -1.285,-8.553 -1.87,-22.346v-0.313c0.386,-2.291 0.957,-3.436 1.71,-3.436l0.786,-0.154c0.957,0 2.416,0.314 4.366,0.934v0.313c-0.107,0.313 -0.419,0.473 -0.938,0.473h-2.649c-0.547,0 -1.065,0.307 -1.564,0.932c0.485,11.977 1.191,18.912 2.13,20.809c0.932,1.896 2.482,2.742 4.639,2.537V49.471z" id="path_3"/><path fill="#008046" d="M54.463,40.85c0.932,0.939 1.817,2.963 2.65,6.086l0.159,2.029c0,3.668 -1.825,6.164 -5.466,7.488l-1.09,0.154l-2.77,0.039l-2.689,-0.039l-0.153,-0.154v-0.16c0.333,-0.359 2.569,-1.451 6.702,-3.275c2.604,-1.477 4.008,-2.781 4.214,-3.9c-1.351,-2.881 -2.023,-4.547 -2.023,-4.992V43.66C53.997,41.789 54.15,40.85 54.463,40.85z" id="path_4"/><path fill="#008046" d="M52.7,30.127h1.544c1.87,0 2.809,0.699 2.809,2.104c-1.211,3.275 -2.682,5.012 -4.413,5.213l-2.044,0.271c-0.326,0 -0.458,-0.094 -0.411,-0.271c1.649,-0.873 3.194,-1.91 4.625,-3.104c-0.507,-0.473 -1.064,-0.705 -1.677,-0.705H52.7l-1.678,0.139l-0.135,-0.139v-0.273C51.682,31.205 52.286,30.127 52.7,30.127z" id="path_5"/><path fill="#008046" d="M31.186,45.004c0.393,0.027 0.792,0.041 1.191,0.041h0.467l1.95,-0.467c-0.467,-0.871 -0.698,-1.477 -0.698,-1.818c0,-4.992 1.61,-7.488 4.832,-7.488l1.25,-0.152c1.639,0.26 3.723,1.244 6.238,2.963l0.16,0.625l-0.16,0.152h-0.62c-1.197,-0.83 -2.549,-1.244 -4.06,-1.244c-2.31,0 -4.234,0.672 -5.771,2.023v0.16c1.352,2.184 3.848,3.275 7.488,3.275c2.861,-1.039 4.733,-1.559 5.618,-1.559c-0.493,2.91 -1.431,4.367 -2.81,4.367c-6.165,2.391 -11.05,3.588 -14.663,3.588h-0.414V45.004z" id="path_6"/><path fill="#008046" d="M38.147,27.158c2.604,0.832 3.902,1.51 3.902,2.031v0.313c-0.885,2.289 -1.558,3.434 -2.024,3.434c-2.316,-1.018 -3.514,-1.691 -3.594,-2.029v-0.314C36.432,29.842 37.003,28.695 38.147,27.158z" id="path_7"/><path fill="#008046" d="M44.698,16.588c0.16,-0.094 0.207,0.053 0.141,0.434c-0.886,2.076 -2.245,3.527 -4.074,4.346l-6.729,3.375c-0.287,-0.08 -0.34,-0.313 -0.16,-0.705c0.899,-1.732 1.512,-2.756 1.837,-3.084L44.698,16.588z" id="path_8"/><path fill="#0992d1" d="M16.601,52.514c0.532,0 1.778,0.625 3.742,1.869c0,0.779 -0.626,2.031 -1.87,3.748c-2.496,-0.807 -3.748,-1.537 -3.748,-2.184C14.791,55.361 15.417,54.217 16.601,52.514z" id="path_9"/><path fill="#0992d1" d="M31.892,49.49c-1.991,-0.16 -3.795,-1.557 -5.405,-4.193c-2.39,2.908 -5.823,4.367 -10.297,4.367h-1.246c-4.839,0 -8.167,-2.076 -9.985,-6.238l-0.157,-0.938v-1.404c0,-1.506 0.679,-3.223 2.03,-5.146h0.151l0.313,0.313v0.779l-0.778,2.496c0,2.73 2.289,4.6 6.862,5.619l2.811,0.152c4.865,0 8.713,-1.664 11.549,-4.992c0.152,0 0.306,0.207 0.466,0.625l-0.16,1.092c0.532,1.965 1.817,2.949 3.848,2.963V49.49z" id="path_10"/><path fill="#0992d1" d="M16.342,27.318h1.544c1.87,0 2.811,0.697 2.811,2.104c-1.213,3.275 -2.684,5.012 -4.415,5.211l-2.042,0.273c-0.328,0 -0.46,-0.092 -0.413,-0.273c1.649,-0.871 3.194,-1.91 4.625,-3.102c-0.505,-0.473 -1.064,-0.705 -1.677,-0.705h-0.433l-1.678,0.141l-0.133,-0.141v-0.273C15.323,28.396 15.93,27.318 16.342,27.318z" id="path_11"/></svg>