<svg id="vector" xmlns="http://www.w3.org/2000/svg" width="300" height="67" viewBox="0 0 422 73"><path fill="#000001" d="M404.446,40.711c0.18,0.012 0.372,0.02 0.584,0.02h1.476c1.561,-0.259 2.75,-0.804 3.581,-1.635l-1.867,-14.794c0.466,-2.804 0.884,-4.199 1.242,-4.199l2.026,4.671c0,0.724 -0.259,1.813 -0.777,3.268l0.777,8.403v2.34c-0.584,2.478 -1.368,4.211 -2.352,5.194c-0.743,0.79 -1.613,1.188 -2.631,1.188h-1.321c-0.26,0 -0.505,-0.008 -0.738,-0.02V40.711z" id="path_0"/><path fill="#000001" d="M414.656,11.461c0.159,-0.093 0.206,0.053 0.14,0.433c-0.883,2.072 -2.237,3.521 -4.065,4.336l-6.716,3.369c-0.286,-0.08 -0.339,-0.312 -0.16,-0.705c0.897,-1.727 1.509,-2.75 1.834,-3.075L414.656,11.461z" id="path_1"/><path fill="#008046" d="M388.663,40.73c1.728,0.146 3.195,-0.027 4.418,-0.507l-0.645,-1.167c-0.605,-3.43 -0.333,-5.695 0.817,-6.805c1.156,-1.108 2.397,-1.619 3.719,-1.527c2.571,0.121 4.02,1.47 4.358,4.046v0.937c0,2.152 -0.312,3.501 -0.931,4.046c-0.392,0.405 0.492,0.743 2.645,1.016l0.504,-0.019c0.394,-0.014 0.839,-0.02 1.344,-0.02v4.437l-1.575,0.02c-2.929,-0.014 -5.147,-0.385 -6.655,-1.109c-2.073,0.725 -3.688,1.09 -4.823,1.09h-0.625c-0.776,0 -1.627,0 -2.551,0V40.73L388.663,40.73zM394.171,36.332v0.313c0.649,1.115 1.635,1.893 2.956,2.332c0.884,-0.153 1.767,-0.52 2.65,-1.09c-0.393,-1.456 -1.688,-2.285 -3.895,-2.491C394.741,35.707 394.171,36.021 394.171,36.332z" id="path_2"/><path fill="#008046" d="M397.188,21.771c1.686,0.525 3.141,1.356 4.357,2.491v0.159c0,0.652 -0.672,1.688 -2.021,3.116c-0.418,0 -1.819,-0.518 -4.206,-1.562v0.16c-0.829,1.607 -1.347,2.437 -1.561,2.491c-1.349,-0.286 -2.491,-0.911 -3.421,-1.874c0.624,-2.591 1.142,-3.887 1.555,-3.887c0.339,0 1.588,0.618 3.74,1.868C395.632,24.189 396.149,23.198 397.188,21.771z" id="path_3"/><path fill="#008046" d="M400.959,12.178c0.159,-0.092 0.206,0.054 0.14,0.432c-0.883,2.072 -2.237,3.521 -4.065,4.338l-6.716,3.369c-0.286,-0.08 -0.339,-0.313 -0.16,-0.704c0.897,-1.729 1.509,-2.75 1.834,-3.077L400.959,12.178z" id="path_4"/><path fill="#0992d1" d="M389.202,45.187c-2.672,-0.179 -5.096,-1.641 -7.275,-4.377h-0.159c-0.931,5.394 -3.009,8.091 -6.224,8.099h-0.474c-1.394,-0.008 -2.75,-1.25 -4.044,-3.741c-1.037,-3.501 -1.555,-6.151 -1.555,-7.938v-1.249c0,-0.776 0.153,-1.195 0.465,-1.242c0.438,0.232 0.963,1.933 1.568,5.109c0.604,3.168 1.846,4.683 3.726,4.544c3.633,-0.6 5.554,-2.678 5.761,-6.231l-1.401,-4.822v-1.715c0.053,-2.079 0.259,-3.116 0.622,-3.116c0.207,0.465 0.366,0.938 0.466,1.403l2.18,6.849c1.715,2.775 3.832,4.091 6.345,3.932V45.187z" id="path_5"/><path fill="#0992d1" d="M378.651,16.463h1.542c1.866,0 2.804,0.696 2.804,2.1c-1.21,3.268 -2.678,5.002 -4.404,5.2l-2.039,0.272c-0.327,0 -0.459,-0.093 -0.413,-0.272c1.646,-0.869 3.188,-1.905 4.617,-3.094c-0.505,-0.474 -1.063,-0.705 -1.674,-0.705h-0.433l-1.674,0.139l-0.132,-0.139v-0.272C377.636,17.539 378.241,16.463 378.651,16.463z" id="path_6"/><path fill="#008046" d="M354.916,24.674c2.18,1.088 3.27,2.026 3.27,2.803c-1.037,2.047 -1.662,3.089 -1.866,3.116h-0.313c-1.595,-0.805 -2.585,-1.534 -2.957,-2.181C353.409,27.231 354.032,25.981 354.916,24.674z" id="path_7"/><path fill="#008046" d="M346.427,40.73h1.794c1.894,-0.259 4.902,-0.964 9.028,-2.101v-0.159c-3.76,-1.66 -6.146,-2.491 -7.162,-2.491c-1.376,0 -2.306,0.778 -2.805,2.339l-0.463,0.312c-0.206,0 -0.313,-0.159 -0.313,-0.471c0.518,-3.11 1.921,-4.671 4.206,-4.671h0.776c0.964,0 4.231,1.09 9.813,3.27l4.204,0.312l0.306,0.471c-0.072,0.699 -0.696,2.048 -1.866,4.046h-0.466l-0.624,-0.159h-0.776c-8.099,2.392 -12.822,3.634 -14.171,3.74h-1.48V40.73z" id="path_8"/><path fill="#008046" d="M360.151,14.981c0.159,-0.093 0.206,0.053 0.14,0.433c-0.884,2.072 -2.238,3.521 -4.065,4.338l-6.717,3.367c-0.286,-0.08 -0.338,-0.312 -0.159,-0.705c0.897,-1.726 1.508,-2.75 1.833,-3.074L360.151,14.981z" id="path_9"/><path fill="#213e95" d="M335.399,40.73c0.027,0 0.061,0 0.093,0c2.491,-0.154 3.92,-1.27 4.284,-3.35c-0.937,-6.225 -1.401,-10.588 -1.401,-13.079c0,-0.957 0.418,-2.207 1.249,-3.734l0.152,0.153l0.313,0.312l-0.16,1.09c0.133,6.995 1.017,12.417 2.651,16.269c0.624,1.403 2.152,2.186 4.589,2.34v4.437c-3.348,-0.052 -5.6,-1.813 -6.769,-5.293h-0.16c-1.076,3.487 -2.689,5.253 -4.842,5.293V40.73z" id="path_10"/><path fill="#213e95" d="M344.893,12.098c0.16,-0.092 0.204,0.055 0.139,0.432c-0.884,2.073 -2.238,3.521 -4.065,4.339l-6.717,3.368c-0.284,-0.079 -0.339,-0.313 -0.157,-0.704c0.895,-1.727 1.506,-2.75 1.833,-3.075L344.893,12.098z" id="path_11"/><path fill="#008046" d="M319.576,40.73c1.727,0.146 3.194,-0.027 4.416,-0.507l-0.644,-1.167c-0.604,-3.43 -0.331,-5.695 0.817,-6.805c1.155,-1.108 2.397,-1.619 3.721,-1.527c2.571,0.121 4.019,1.47 4.357,4.046v0.937c0,2.152 -0.313,3.501 -0.93,4.046c-0.392,0.405 0.492,0.743 2.643,1.016l0.506,-0.019c0.392,-0.014 0.837,-0.02 1.341,-0.02v4.437l-1.574,0.02c-2.929,-0.014 -5.147,-0.385 -6.656,-1.109c-2.072,0.725 -3.686,1.09 -4.822,1.09h-0.625c-0.776,0 -1.627,0 -2.55,0V40.73L319.576,40.73zM325.082,36.332v0.313c0.652,1.115 1.635,1.893 2.957,2.332c0.883,-0.153 1.767,-0.52 2.65,-1.09c-0.392,-1.456 -1.688,-2.285 -3.893,-2.491C325.654,35.707 325.082,36.021 325.082,36.332z" id="path_12"/><path fill="#008046" d="M328.099,21.771c1.688,0.525 3.142,1.356 4.357,2.491v0.159c0,0.652 -0.671,1.688 -2.02,3.116c-0.419,0 -1.82,-0.518 -4.204,-1.562v0.16c-0.831,1.607 -1.349,2.437 -1.561,2.491c-1.349,-0.286 -2.491,-0.911 -3.422,-1.874c0.625,-2.591 1.143,-3.887 1.554,-3.887c0.34,0 1.588,0.618 3.74,1.868C326.544,24.189 327.062,23.198 328.099,21.771z" id="path_13"/><path fill="#0992d1" d="M325.952,11.847h1.542c1.866,0 2.804,0.696 2.804,2.098c-1.21,3.27 -2.678,5.002 -4.404,5.202l-2.039,0.272c-0.327,0 -0.459,-0.093 -0.413,-0.272c1.648,-0.87 3.19,-1.907 4.616,-3.096c-0.504,-0.472 -1.063,-0.705 -1.673,-0.705h-0.433l-1.674,0.141l-0.132,-0.141v-0.272C324.937,12.923 325.542,11.847 325.952,11.847z" id="path_14"/><path fill="#DD2C00" d="M311.908,27.457c0.533,0 1.781,0.625 3.741,1.866c0,0.776 -0.625,2.026 -1.872,3.741c-2.491,-0.805 -3.735,-1.536 -3.735,-2.181C310.11,30.301 310.728,29.158 311.908,27.457z" id="path_15"/><path fill="#DD2C00" d="M306.243,40.73c1.109,0.014 1.794,-0.008 2.064,-0.061c2.34,-0.711 3.934,-2.225 4.79,-4.531c0.127,-0.443 0.386,-0.498 0.778,-0.159c0.206,0.179 0.366,0.911 0.465,2.18c1.415,1.905 3.183,2.764 5.294,2.571h0.413v4.437h-0.1c-3.309,-0.153 -5.747,-1.66 -7.321,-4.517h-0.152c-1.104,2.325 -2.557,3.752 -4.359,4.283c-0.543,0.154 -1.168,0.233 -1.872,0.233V40.73z" id="path_16"/><path fill="#DD2C00" d="M318.154,16.675c0.159,-0.093 0.206,0.053 0.14,0.433c-0.884,2.072 -2.24,3.521 -4.065,4.338l-6.717,3.367c-0.286,-0.078 -0.338,-0.312 -0.159,-0.703c0.897,-1.729 1.508,-2.75 1.833,-3.077L318.154,16.675z" id="path_17"/><path fill="#000001" d="M306.282,45.167c-3.022,0.18 -5.222,-1.216 -6.596,-4.186c-0.664,-1.102 -1.282,-8.536 -1.866,-22.3V18.37c0.385,-2.287 0.955,-3.429 1.706,-3.429l0.785,-0.152c0.955,0 2.411,0.312 4.357,0.931v0.312c-0.107,0.311 -0.419,0.471 -0.937,0.471h-2.645c-0.545,0 -1.063,0.306 -1.562,0.93c0.485,11.952 1.189,18.875 2.126,20.767c0.93,1.894 2.478,2.738 4.63,2.532V45.167z" id="path_18"/><path fill="#000001" d="M292.307,19.007c0.312,0 0.624,1.043 0.936,3.115l1.401,3.116l-0.624,3.581l0.465,8.721v1.396c-0.206,3.562 -0.725,5.635 -1.554,6.231l-0.153,-0.153l0.153,-2.338c0,-2.1 -0.679,-8.794 -2.025,-20.082C291.556,20.203 292.021,19.007 292.307,19.007z" id="path_19"/><path fill="#213e95" d="M282.467,21.812l1.249,3.738c0.625,0.572 0.937,1.037 0.937,1.403l-1.088,4.669l0.151,2.491c0,6.11 -2.178,10.316 -6.537,12.609c-3.546,1.143 -6.037,1.713 -7.474,1.713l-0.159,-0.152V47.97l3.27,-1.553c1.329,-0.611 3.089,-1.602 5.293,-2.964c2.393,-2.232 3.741,-3.786 4.053,-4.669l-0.392,-6.538l-0.391,-6.543C281.797,23.113 282.161,21.812 282.467,21.812z" id="path_20"/><path fill="#213e95" d="M281.06,12.199h1.541c1.866,0 2.803,0.696 2.803,2.098c-1.209,3.27 -2.676,5.002 -4.404,5.202l-2.04,0.272c-0.324,0 -0.457,-0.094 -0.41,-0.272c1.646,-0.87 3.188,-1.907 4.616,-3.097c-0.504,-0.471 -1.063,-0.704 -1.674,-0.704h-0.432l-1.674,0.14l-0.133,-0.14v-0.272C280.043,13.275 280.646,12.199 281.06,12.199z" id="path_21"/><path fill="#000001" d="M266.311,20.721c1.27,0 3.867,1.974 7.781,5.919c3.015,3.634 4.516,7.055 4.516,10.277v1.242c-0.078,2.178 -0.284,3.268 -0.623,3.268l-0.313,-0.306v-1.872c0,-2.956 -2.178,-6.59 -6.535,-10.895l-0.778,-0.474c-0.286,1.044 -0.545,1.563 -0.776,1.563l-3.741,-4.671l0.16,-3.893l0.153,-0.16H266.311z" id="path_22"/><path fill="#000001" d="M277.147,49.406c0.159,-0.088 0.204,0.053 0.139,0.432c-0.884,2.073 -2.238,3.521 -4.066,4.337l-6.716,3.368c-0.284,-0.079 -0.339,-0.312 -0.16,-0.696c0.897,-1.729 1.509,-2.752 1.836,-3.077L277.147,49.406z" id="path_23"/><path fill="#f06022" d="M256.055,40.769c0.126,0 0.319,0 0.586,0h0.657c1.66,0 2.723,-0.418 3.194,-1.247v-0.313c-0.782,-2.723 -1.925,-5.2 -3.428,-7.433c0.179,-2.386 0.438,-3.581 0.778,-3.581c0.909,0.73 2.104,3.32 3.579,7.785l0.16,2.026v1.402c-0.498,3.838 -1.974,5.759 -4.438,5.759h-0.504c-0.28,0 -0.474,0.014 -0.586,0.039V40.769z" id="path_24"/><path fill="#f06022" d="M255.724,19.378c0.531,0 1.773,0.625 3.732,1.869c0,0.782 -0.618,2.025 -1.866,3.738c-2.491,-0.804 -3.734,-1.533 -3.734,-2.178C253.916,22.222 254.54,21.079 255.724,19.378z" id="path_25"/><path fill="#f06022" d="M255.683,9.98h1.542c1.866,0 2.802,0.696 2.802,2.098c-1.208,3.27 -2.676,5.002 -4.404,5.202l-2.037,0.272c-0.327,0 -0.459,-0.094 -0.413,-0.272c1.646,-0.87 3.188,-1.907 4.617,-3.097c-0.505,-0.471 -1.063,-0.704 -1.674,-0.704h-0.433l-1.674,0.14l-0.132,-0.14v-0.272C254.667,11.057 255.272,9.98 255.683,9.98z" id="path_26"/><path fill="#000001" d="M256.439,45.167c-0.245,0 -0.545,0 -0.896,0c-1.388,-0.014 -2.883,-1.057 -4.496,-3.135c-0.619,2.285 -1.709,3.427 -3.27,3.427h-0.151c-1.322,0 -2.412,-0.776 -3.271,-2.337h-0.157c-0.931,1.872 -2.061,2.723 -3.389,2.55c-2.466,0.014 -3.927,-1.148 -4.398,-3.48c-1.733,2.032 -3.6,3.028 -5.587,2.976h-0.251V40.73h0.079c3.142,-0.107 5.473,-1.176 7.009,-3.21c0.206,0 0.312,0.154 0.312,0.466l-0.16,1.09c0.831,1.66 1.921,2.491 3.27,2.491c1.275,0 2.571,-1.242 3.893,-3.733h0.16l0.465,0.465v1.088c0,0.985 0.729,1.556 2.178,1.715h0.313c1.349,0 2.596,-1.349 3.738,-4.052h0.154c0.206,0 0.312,0.471 0.312,1.401c0.571,1.574 1.953,2.331 4.145,2.279V45.167z" id="path_27"/><path fill="#000001" d="M249.571,23.039c0.16,-0.094 0.207,0.053 0.141,0.432c-0.884,2.073 -2.24,3.521 -4.065,4.339l-6.717,3.366c-0.286,-0.079 -0.339,-0.311 -0.159,-0.702c0.897,-1.729 1.508,-2.75 1.833,-3.077L249.571,23.039z" id="path_28"/><path fill="#DD2C00" d="M231.438,45.167h-0.394c-3.76,0 -6.098,-2.645 -7.001,-7.938l-0.938,-15.106c0.393,-2.18 0.804,-3.421 1.249,-3.732h0.152c0.206,0 0.313,0.151 0.313,0.465c0,10.304 0.671,16.813 2.025,19.536c1.374,1.522 2.904,2.293 4.592,2.32V45.167z" id="path_29"/><path fill="#000001" d="M208.836,35.827h0.313c1.453,0.331 2.75,1.115 3.893,2.332v0.312c-0.1,0.831 -0.725,1.921 -1.867,3.27c-2.697,-0.905 -4.046,-1.688 -4.046,-2.332C207.773,37.54 208.346,36.346 208.836,35.827z" id="path_30"/><path fill="#000001" d="M217.094,32.712h0.306c0.365,0 1.249,2.337 2.65,7.008l0.153,0.617c0,3.661 -0.883,6.312 -2.645,7.946c-2.491,2.697 -5.447,4.046 -8.875,4.046c-2.804,-0.624 -4.618,-1.243 -5.447,-1.868c-2.703,-2.31 -4.052,-5.167 -4.052,-8.562c0,-2.856 1.248,-5.554 3.738,-8.098l0.154,-0.154h0.312l0.313,0.306c0,0.267 -0.725,1.401 -2.18,3.428c-0.419,0.726 -0.678,1.715 -0.777,2.956c0,2.419 1.242,4.492 3.733,6.231c2.438,0.937 4.099,1.401 4.982,1.401c2.231,0 4.877,-0.988 7.938,-2.956c1.249,-1.096 1.874,-1.768 1.874,-2.026l-2.18,-6.07l-0.16,-1.09L217.094,32.712z" id="path_31"/><path fill="#000001" d="M214.517,19.771c0.16,-0.094 0.206,0.053 0.139,0.432c-0.884,2.073 -2.238,3.521 -4.064,4.339l-6.716,3.366c-0.286,-0.079 -0.341,-0.312 -0.159,-0.704c0.895,-1.727 1.508,-2.75 1.833,-3.075L214.517,19.771z" id="path_32"/><path fill="#000001" d="M190.037,43.453v-0.152c0,-0.518 -1.868,-1.043 -5.606,-1.561c-0.127,-0.931 -0.094,-1.888 0.099,-2.857c0.193,-0.977 0.73,-1.527 1.614,-1.654c1.376,0 2.466,-0.99 3.27,-2.962c0,-1.403 -0.259,-2.18 -0.779,-2.331h-0.151c-0.545,0.41 -1.117,0.622 -1.715,0.622h-0.159c-2.098,0 -3.501,-0.936 -4.204,-2.802l-0.153,-0.625c0.165,-1.999 0.498,-3.254 0.982,-3.773c0.484,-0.523 1.143,-0.87 1.974,-1.056c1.847,0.066 3.154,0.791 3.934,2.179c0.804,1.899 1.208,3.562 1.208,4.981v1.875c0,1.866 -0.159,3.035 -0.471,3.501c-0.306,0.465 -0.566,0.702 -0.778,0.702c0,0.347 0.677,0.713 2.025,1.09c0.545,0.22 0.858,0.892 0.938,2.021v1.09c-0.121,0.598 -0.267,1.168 -0.453,1.713H190.037z" id="path_33"/><path fill="#000001" d="M183.817,16.622c1.835,0.341 3.13,0.858 3.895,1.556v0.936c-0.985,1.974 -1.607,2.957 -1.868,2.957c-2.385,-0.791 -3.579,-1.36 -3.579,-1.713C182.265,19.474 182.782,18.23 183.817,16.622z" id="path_34"/><path fill="#213e95" d="M193.949,50.108c0.16,-0.085 0.206,0.055 0.141,0.433c-0.884,2.072 -2.24,3.521 -4.066,4.338l-6.716,3.369c-0.286,-0.08 -0.339,-0.313 -0.16,-0.699c0.897,-1.726 1.509,-2.75 1.834,-3.074L193.949,50.108z" id="path_35"/><path fill="#213e95" d="M191.519,43.142c-0.625,2.166 -2.519,4.556 -5.687,7.16c-1.907,1.356 -4.14,2.027 -6.689,2.027c-1.429,-0.326 -2.452,-0.651 -3.069,-0.971c-0.619,-0.325 -1.356,-1.043 -2.227,-2.145c-1.561,-2.073 -2.337,-3.994 -2.337,-5.761c0,-4.204 1.349,-7.573 4.052,-10.116c0.479,-0.339 0.684,-0.286 0.617,0.151c0,0.38 -0.776,1.833 -2.332,4.357c-0.624,1.263 -0.936,2.458 -0.936,3.581c0,1.615 1.143,3.375 3.427,5.296c1.621,0.895 3.383,1.261 5.296,1.088c2.252,0 5.055,-1.554 8.403,-4.669H191.519z" id="path_36"/><path fill="#DD2C00" d="M162.203,19.007c0.312,0 0.624,1.043 0.936,3.115l1.401,3.116l-0.624,3.581l0.465,8.721v1.396c-0.206,3.562 -0.725,5.635 -1.554,6.231l-0.153,-0.153l0.153,-2.338c0,-2.1 -0.679,-8.794 -2.025,-20.082C161.452,20.203 161.917,19.007 162.203,19.007z" id="path_37"/><path fill="#DD2C00" d="M166.853,9.9c0.159,-0.094 0.206,0.053 0.14,0.43c-0.883,2.073 -2.24,3.523 -4.065,4.339l-6.716,3.368c-0.286,-0.079 -0.339,-0.313 -0.16,-0.704c0.897,-1.727 1.509,-2.75 1.833,-3.075L166.853,9.9z" id="path_38"/><path fill="#000001" d="M136.979,36.777h1.794c1.894,-0.259 4.902,-0.964 9.028,-2.1v-0.16c-3.76,-1.66 -6.146,-2.491 -7.162,-2.491c-1.376,0 -2.304,0.778 -2.802,2.34l-0.466,0.312c-0.206,0 -0.313,-0.16 -0.313,-0.472c0.518,-3.109 1.921,-4.671 4.206,-4.671h0.776c0.964,0 4.233,1.09 9.813,3.27l4.204,0.312l0.306,0.472c-0.072,0.698 -0.696,2.047 -1.866,4.046h-0.465l-0.625,-0.16h-0.776c-8.099,2.393 -12.822,3.634 -14.171,3.741h-1.48V36.777z" id="path_39"/><path fill="#000001" d="M145.954,16.149h1.541c1.867,0 2.803,0.699 2.803,2.1c-1.208,3.269 -2.678,5.002 -4.404,5.203l-2.039,0.272c-0.325,0 -0.46,-0.094 -0.413,-0.272c1.648,-0.87 3.19,-1.908 4.618,-3.097c-0.506,-0.471 -1.063,-0.705 -1.676,-0.705h-0.43l-1.676,0.141l-0.132,-0.141v-0.272C144.937,17.226 145.541,16.149 145.954,16.149z" id="path_40"/><path fill="#DD2C00" d="M137.603,41.215c-0.245,0 -0.545,0 -0.896,0c-1.388,-0.014 -2.883,-1.057 -4.498,-3.136c-0.617,2.285 -1.707,3.428 -3.268,3.428h-0.151c-1.324,0 -2.412,-0.776 -3.271,-2.338h-0.159c-0.931,1.872 -2.059,2.723 -3.389,2.55c-2.464,0.014 -3.925,-1.148 -4.396,-3.479c-1.733,2.031 -3.601,3.028 -5.587,2.976h-0.251v-4.438h0.079c3.142,-0.107 5.473,-1.176 7.009,-3.209c0.206,0 0.312,0.153 0.312,0.465l-0.16,1.09c0.831,1.66 1.921,2.491 3.27,2.491c1.275,0 2.569,-1.242 3.893,-3.732h0.16l0.465,0.465v1.088c0,0.984 0.729,1.555 2.178,1.715h0.313c1.349,0 2.596,-1.349 3.738,-4.053h0.154c0.206,0 0.312,0.472 0.312,1.401c0.571,1.575 1.953,2.332 4.145,2.279V41.215z" id="path_41"/><path fill="#DD2C00" d="M130.734,19.086c0.16,-0.093 0.205,0.053 0.139,0.433c-0.884,2.072 -2.238,3.521 -4.065,4.338l-6.715,3.367c-0.286,-0.08 -0.341,-0.312 -0.159,-0.703c0.896,-1.728 1.506,-2.75 1.833,-3.076L130.734,19.086z" id="path_42"/><path fill="#000001" d="M98.43,37.069c1.534,0.492 2.723,1.117 3.581,1.866v0.313c0,0.518 -0.572,1.66 -1.715,3.427c-1.063,0 -2.251,-0.571 -3.581,-1.714V40.65C96.715,39.533 97.287,38.346 98.43,37.069z" id="path_43"/><path fill="#000001" d="M112.154,41.154c-1.415,0 -2.511,-0.218 -3.295,-0.658c-0.385,3.375 -1.109,5.707 -2.18,7.009c-2.563,3.215 -5.214,4.824 -7.938,4.824c-5.008,0 -8.277,-2.18 -9.811,-6.537c-0.306,-0.831 -0.466,-1.715 -0.466,-2.65v-1.242c0,-3.688 1.143,-6.59 3.428,-8.723c0.412,0.16 0.625,0.518 0.625,1.09l-2.491,4.518l-0.16,1.553c0,3.509 1.919,5.945 5.759,7.321l4.055,0.312c1.706,0 3.838,-0.988 6.383,-2.956c0.931,-1.507 1.401,-2.597 1.401,-3.273c-0.106,-1.037 -0.784,-2.538 -2.025,-4.512v-3.275l0.465,-0.465c1.129,2.273 3.215,3.369 6.251,3.289V41.154z" id="path_44"/><path fill="#000001" d="M104.01,54.367c0.159,-0.086 0.206,0.055 0.14,0.432c-0.883,2.073 -2.24,3.521 -4.065,4.339l-6.716,3.368c-0.286,-0.079 -0.339,-0.313 -0.16,-0.698c0.897,-1.727 1.509,-2.75 1.833,-3.075L104.01,54.367z" id="path_45"/><path fill="#000001" d="M75.265,24.521h0.313c1.063,0.233 2.205,0.851 3.427,1.866v0.153c-0.704,2.134 -1.322,3.268 -1.867,3.428c-1.587,-0.312 -2.776,-0.829 -3.58,-1.556v-0.157C73.558,27.03 74.129,25.789 75.265,24.521z" id="path_46"/><path fill="#000001" d="M81.03,23.119h0.153c1.063,0.153 2.26,0.878 3.582,2.18v0.151l-1.867,3.27c-2.492,-0.806 -3.74,-1.475 -3.74,-2.02C79.962,24.308 80.586,23.119 81.03,23.119z" id="path_47"/><path fill="#000001" d="M73.883,40.73c4.079,0.038 6.357,-0.725 6.855,-2.299c0,-0.545 -0.518,-1.894 -1.561,-4.046l0.471,-4.047h0.307c1.354,2.334 2.026,4.671 2.026,7.003v1.401c0,0.938 -0.226,1.921 -0.672,2.95c-0.445,1.029 -1.136,1.899 -2.059,2.597c-0.929,0.704 -2.717,0.996 -5.368,0.877V40.73z" id="path_48"/><path fill="#000001" d="M83.749,14.748c0.159,-0.091 0.204,0.055 0.138,0.433c-0.884,2.072 -2.238,3.521 -4.065,4.338l-6.716,3.369c-0.285,-0.08 -0.339,-0.313 -0.16,-0.705c0.897,-1.729 1.508,-2.75 1.834,-3.077L83.749,14.748z" id="path_49"/><path fill="#008046" d="M58.318,40.73c1.728,0.146 3.195,-0.027 4.417,-0.507l-0.644,-1.167c-0.604,-3.43 -0.332,-5.695 0.817,-6.805c1.156,-1.108 2.398,-1.619 3.72,-1.527c2.571,0.121 4.019,1.47 4.357,4.046v0.937c0,2.152 -0.313,3.501 -0.929,4.046c-0.393,0.405 0.49,0.743 2.643,1.016l0.505,-0.019c0.392,-0.014 0.838,-0.02 1.342,-0.02v4.437l-1.574,0.02c-2.929,-0.014 -5.148,-0.385 -6.656,-1.109c-2.073,0.725 -3.687,1.09 -4.823,1.09H60.87c-0.776,0 -1.627,0 -2.551,0V40.73L58.318,40.73zM63.826,36.332v0.313c0.651,1.115 1.635,1.893 2.957,2.332c0.883,-0.153 1.767,-0.52 2.651,-1.09c-0.393,-1.456 -1.688,-2.285 -3.893,-2.491C64.397,35.707 63.826,36.021 63.826,36.332z" id="path_50"/><path fill="#008046" d="M66.842,21.771c1.687,0.525 3.142,1.356 4.358,2.491v0.159c0,0.652 -0.671,1.688 -2.021,3.116c-0.418,0 -1.819,-0.518 -4.205,-1.562v0.16c-0.83,1.607 -1.348,2.437 -1.561,2.491c-1.349,-0.286 -2.491,-0.911 -3.421,-1.874c0.625,-2.591 1.143,-3.887 1.554,-3.887c0.339,0 1.588,0.618 3.741,1.868C65.288,24.189 65.805,23.198 66.842,21.771z" id="path_51"/><path fill="#0992d1" d="M64.696,11.847h1.542c1.866,0 2.803,0.696 2.803,2.098c-1.209,3.27 -2.677,5.002 -4.405,5.202l-2.039,0.272c-0.326,0 -0.458,-0.093 -0.412,-0.272c1.646,-0.87 3.188,-1.907 4.617,-3.096c-0.504,-0.472 -1.063,-0.705 -1.674,-0.705h-0.432l-1.674,0.141l-0.132,-0.141v-0.272C63.68,12.923 64.284,11.847 64.696,11.847z" id="path_52"/><path fill="#213e95" d="M58.804,45.167l-1.754,-0.02c-0.969,4.271 -3.54,6.431 -7.705,6.483c-2.232,0.1 -3.349,0.061 -3.349,-0.119c0.206,-0.393 1.701,-1.143 4.478,-2.259c2.857,-1.814 4.577,-2.982 5.175,-3.502l0.16,-0.465l-2.724,-0.43c-1.986,-0.521 -3.103,-1.517 -3.349,-2.998v-0.311c0,-2.519 0.619,-4.126 1.867,-4.831l0.938,-0.151c1.839,0 3.341,1.28 4.509,3.852c0.745,0.259 1.329,0.385 1.754,0.373V45.167z" id="path_53"/><path fill="#213e95" d="M56.677,53.318c0.16,-0.086 0.207,0.053 0.14,0.432c-0.883,2.073 -2.239,3.521 -4.065,4.338l-6.716,3.367c-0.286,-0.08 -0.339,-0.312 -0.16,-0.696c0.897,-1.727 1.508,-2.75 1.833,-3.075L56.677,53.318z" id="path_54"/><path fill="#DD2C00" d="M31.282,47.852h0.312c1.063,0.231 2.206,0.856 3.428,1.874v0.151c-0.705,2.126 -1.322,3.268 -1.867,3.428c-1.588,-0.312 -2.777,-0.829 -3.581,-1.562v-0.151C29.574,50.369 30.146,49.126 31.282,47.852z" id="path_55"/><path fill="#DD2C00" d="M37.048,46.45H37.2c1.063,0.159 2.259,0.884 3.581,2.178v0.159l-1.866,3.27c-2.491,-0.804 -3.74,-1.482 -3.74,-2.025C35.978,47.645 36.603,46.45 37.048,46.45z" id="path_56"/><path fill="#DD2C00" d="M29.9,40.73c4.079,0.038 6.357,-0.725 6.856,-2.299c0,-0.545 -0.519,-1.894 -1.562,-4.046l0.472,-4.047h0.305c1.355,2.334 2.026,4.671 2.026,7.003v1.401c0,0.938 -0.226,1.921 -0.671,2.95c-0.445,1.029 -1.136,1.899 -2.059,2.597c-0.93,0.704 -2.717,0.996 -5.367,0.877V40.73z" id="path_57"/><path fill="#DD2C00" d="M37.605,19.287h1.541c1.867,0 2.804,0.696 2.804,2.098c-1.209,3.27 -2.678,5.002 -4.405,5.202l-2.04,0.272c-0.326,0 -0.458,-0.094 -0.412,-0.272c1.647,-0.87 3.188,-1.907 4.617,-3.097c-0.505,-0.471 -1.063,-0.704 -1.674,-0.704h-0.432l-1.674,0.14l-0.133,-0.14v-0.272C36.589,20.363 37.194,19.287 37.605,19.287z" id="path_58"/><path fill="#000001" d="M31.926,45.167c-0.167,0 -0.346,0 -0.525,0h-0.153c-1.508,-0.014 -2.963,-0.278 -4.365,-0.798c-1.501,2.599 -3.474,3.895 -5.912,3.895c-2.91,-0.418 -4.365,-1.609 -4.365,-3.581h-0.152c-0.492,1.66 -1.582,3.009 -3.269,4.044c-2.258,0.831 -4.025,1.25 -5.294,1.25L7.174,50.07v-0.312c0.578,-0.479 2.146,-1.589 4.697,-3.328c2.551,-1.734 3.999,-2.824 4.338,-3.27c0.346,-0.438 0.844,-1.905 1.494,-4.398c1.242,-2.073 2.385,-3.114 3.422,-3.114h0.312c1.295,0 3.375,1.401 6.231,4.204c0.831,0.704 2.245,1.018 4.259,0.938V45.167L31.926,45.167zM18.48,40.942c0,1.376 1.089,2.312 3.268,2.803h0.777c1.767,-0.18 2.651,-0.438 2.651,-0.777c-2.053,-1.973 -3.607,-2.956 -4.677,-2.956h-0.153C19.464,40.012 18.839,40.325 18.48,40.942z" id="path_59"/><path fill="#f06022" d="M26.438,55.284l0.16,0.14v0.427c-0.804,1.726 -1.926,2.935 -3.368,3.639c-4.464,2.425 -6.942,3.642 -7.434,3.642c-0.179,0 -0.272,-0.147 -0.272,-0.432c0.425,-1.648 1.362,-2.764 2.804,-3.35l7.979,-4.065H26.438z" id="path_60"/><path fill="#f06022" d="M25.33,51.784c0.186,0 0.272,0.133 0.272,0.405c-0.518,1.508 -2.052,2.862 -4.61,4.071l-5.899,3.229l-0.133,-0.14v-0.152c0.559,-1.974 1.449,-3.189 2.665,-3.641l6.583,-3.367L25.33,51.784z" id="path_61"/><path fill="#213e95" d="M173.701,22.888h1.541c1.866,0 2.803,0.696 2.803,2.098c-1.209,3.27 -2.676,5.002 -4.404,5.202l-2.039,0.272c-0.325,0 -0.458,-0.094 -0.411,-0.272c1.646,-0.87 3.188,-1.907 4.616,-3.097c-0.504,-0.471 -1.063,-0.704 -1.674,-0.704h-0.432l-1.674,0.14l-0.133,-0.14v-0.272C172.686,23.964 173.288,22.888 173.701,22.888z" id="path_62"/><path fill="#213e95" d="M175.538,19.985c-0.896,0.07 -1.915,-0.037 -3.069,-0.315c-0.395,-0.085 -0.798,-0.071 -1.202,0.045c-0.271,0.094 -0.6,0.378 -0.991,0.849c-0.391,0.479 -0.778,0.731 -1.153,0.763c-0.031,-0.031 -0.045,-0.06 -0.045,-0.091c0,-0.061 0.014,-0.107 0.045,-0.133c0.854,-1.347 1.463,-2.189 1.829,-2.534c0.823,-0.854 1.697,-1.204 2.621,-1.047c0.695,0.218 1.36,0.331 2.007,0.331c1.609,0 2.875,-0.549 3.793,-1.652c0.123,-0.151 0.239,-0.284 0.362,-0.411c0.116,-0.122 0.253,-0.112 0.416,0.041c-0.309,0.979 -0.854,1.903 -1.631,2.768S176.747,19.923 175.538,19.985z" id="path_63"/></svg>