<svg id="vector" xmlns="http://www.w3.org/2000/svg" width="75" height="67" viewBox="0 0 83 73"><path fill="#000001" d="M50.294,44.088h1.796c1.897,-0.26 4.913,-0.966 9.047,-2.104v-0.16c-3.768,-1.663 -6.156,-2.496 -7.177,-2.496c-1.376,0 -2.309,0.779 -2.808,2.343l-0.466,0.313c-0.207,0 -0.313,-0.16 -0.313,-0.473c0.519,-3.115 1.923,-4.68 4.212,-4.68h0.78c0.966,0 4.24,1.092 9.831,3.275l4.214,0.313l0.307,0.473c-0.074,0.699 -0.7,2.05 -1.87,4.054h-0.467l-0.626,-0.159h-0.777c-8.115,2.396 -12.848,3.641 -14.199,3.747h-1.484V44.088z" id="path_0"/><path fill="#000001" d="M65.211,23.753c0.16,-0.094 0.207,0.052 0.141,0.432c-0.886,2.077 -2.245,3.528 -4.074,4.347l-6.729,3.375c-0.287,-0.08 -0.34,-0.313 -0.16,-0.706c0.898,-1.729 1.511,-2.756 1.837,-3.081L65.211,23.753z" id="path_1"/><path fill="#0992d1" d="M42.812,50.252c0.532,0 1.784,0.625 3.748,1.87c0,0.779 -0.626,2.03 -1.878,3.747c-2.496,-0.813 -3.74,-1.537 -3.74,-2.189C41.008,53.102 41.628,51.955 42.812,50.252z" id="path_2"/><path fill="#0992d1" d="M37.135,44.088c1.111,0.014 1.796,-0.007 2.069,-0.06c2.344,-0.713 3.94,-2.23 4.799,-4.54c0.127,-0.445 0.386,-0.499 0.778,-0.16c0.207,0.18 0.366,0.912 0.466,2.184c1.418,1.911 3.188,2.769 5.307,2.576h0.413v4.446h-0.102c-3.314,-0.153 -5.757,-1.664 -7.334,-4.526h-0.154c-1.104,2.33 -2.563,3.761 -4.366,4.294c-0.546,0.152 -1.172,0.232 -1.876,0.232V44.088z" id="path_3"/><path fill="#0992d1" d="M42.845,24.804h1.544c1.871,0 2.809,0.699 2.809,2.104c-1.211,3.273 -2.682,5.012 -4.413,5.211l-2.042,0.273c-0.327,0 -0.46,-0.094 -0.413,-0.273c1.649,-0.871 3.194,-1.91 4.626,-3.102c-0.506,-0.473 -1.065,-0.706 -1.678,-0.706h-0.433l-1.677,0.14l-0.133,-0.14v-0.272C41.826,25.882 42.434,24.804 42.845,24.804z" id="path_4"/><path fill="#213e95" d="M36.688,48.475c-1.512,0.013 -2.756,-0.759 -3.749,-2.317h-0.151c-0.733,2.597 -1.825,4.421 -3.276,5.459c-2.056,1.978 -4.293,2.962 -6.709,2.962h-0.939c-2.756,0 -5.197,-1.558 -7.329,-4.679c-0.83,-1.432 -1.25,-3.097 -1.25,-4.993c0,-2.676 1.352,-5.378 4.061,-8.107c1.41,-0.898 1.829,-0.846 1.244,0.153c-2.389,3.328 -3.588,5.618 -3.588,6.862c0,3.229 2.391,5.359 7.176,6.397h1.252c2.676,0 5.324,-1.352 7.955,-4.055c0.271,-0.857 0.325,-1.797 0.152,-2.809c-0.52,-2.21 -1.299,-7.828 -2.337,-16.848l0.933,-3.122c0.146,-0.026 0.298,-0.026 0.472,0c0.287,0 0.806,3.954 1.559,11.856c0.519,4.159 1.145,6.763 1.87,7.801c0.64,0.705 1.524,1.032 2.656,0.992V48.475z" id="path_5"/><path fill="#f06022" d="M25.238,19.731c1.192,0 1.898,0.793 2.104,2.376v0.433c-0.22,2.649 -1.105,4.381 -2.65,5.186c-2.688,1.691 -5.133,2.536 -7.314,2.536c-0.08,-0.014 -0.154,-0.033 -0.234,-0.06c-0.078,-0.027 -0.139,-0.066 -0.186,-0.119c-0.046,-0.047 -0.04,-0.08 0.014,-0.094c0.113,-0.26 2.077,-1.298 5.884,-3.102v-0.14c-1.025,-0.646 -1.536,-1.538 -1.536,-2.67C21.932,21.177 23.236,19.731 25.238,19.731L25.238,19.731zM22.723,22.674v0.133c0,0.966 0.659,1.531 1.97,1.697h0.406c0.499,0 0.779,-0.139 0.838,-0.426c0,-1.312 -0.698,-1.971 -2.102,-1.971C23.096,22.274 22.723,22.468 22.723,22.674z" id="path_6"/><path fill="#f06022" d="M22.157,17.195c0.299,-0.146 0.439,-0.046 0.426,0.293c-1.504,1.664 -2.689,3.241 -3.548,4.739c-0.245,0.586 -0.386,1.064 -0.419,1.452c-0.033,0.386 0.066,0.798 0.306,1.237h0.293c0.113,-0.652 0.345,-0.979 0.698,-0.979c0.419,0.187 0.653,0.373 0.7,0.565v0.273c0.025,1.484 -0.395,2.376 -1.266,2.676h-0.698c-0.938,-0.187 -1.404,-1.265 -1.404,-3.241C17.245,21.809 18.881,19.472 22.157,17.195z" id="path_7"/></svg>