<svg id="vector" xmlns="http://www.w3.org/2000/svg" width="100" height="67" viewBox="0 0 171 73"><path fill="#DD2C00" d="M151.536,37.799c0.205,0 0.417,0 0.642,0h0.153c1.872,-0.116 3.577,-1.674 5.103,-4.674c1.654,-2.507 3.359,-3.757 5.109,-3.757c2.205,0 3.309,1.397 3.309,4.205v0.751c0,1.377 -0.552,3.18 -1.654,5.41l-1.052,0.75c-0.93,0 -3.077,-0.654 -6.462,-1.955c-1.025,1.538 -1.827,2.475 -2.404,2.801c-0.878,0.609 -1.775,0.865 -2.705,0.75h-0.038V37.799L151.536,37.799zM159.088,34.625v0.146c2.603,1.008 4.16,1.508 4.66,1.508c0.199,0 0.302,-0.154 0.302,-0.455c-0.577,-1.5 -1.532,-2.251 -2.859,-2.251C160.268,33.573 159.563,33.926 159.088,34.625z" id="path_0"/><path fill="#DD2C00" d="M163.762,44.369c0.153,-0.084 0.198,0.051 0.135,0.416c-0.854,2.001 -2.161,3.398 -3.924,4.187l-6.481,3.251c-0.276,-0.078 -0.327,-0.302 -0.153,-0.674c0.865,-1.667 1.455,-2.654 1.769,-2.968L163.762,44.369z" id="path_1"/><path fill="#000001" d="M139.772,38.08c1.481,0.475 2.628,1.077 3.456,1.802v0.302c0,0.5 -0.552,1.602 -1.654,3.308c-1.025,0 -2.174,-0.552 -3.455,-1.654v-0.302C138.119,40.459 138.67,39.312 139.772,38.08z" id="path_2"/><path fill="#000001" d="M153.018,42.023c-1.366,0 -2.424,-0.212 -3.18,-0.635c-0.373,3.256 -1.071,5.506 -2.104,6.763c-2.475,3.103 -5.032,4.653 -7.66,4.653c-4.834,0 -7.988,-2.102 -9.469,-6.307c-0.295,-0.802 -0.448,-1.654 -0.448,-2.559v-1.198c0,-3.558 1.103,-6.359 3.308,-8.417c0.396,0.153 0.603,0.5 0.603,1.051l-2.404,4.359l-0.153,1.5c0,3.385 1.853,5.737 5.558,7.064l3.911,0.301c1.646,0 3.705,-0.955 6.16,-2.852c0.897,-1.456 1.353,-2.508 1.353,-3.161c-0.103,-1 -0.757,-2.449 -1.955,-4.353v-3.16l0.448,-0.449c1.09,2.192 3.104,3.25 6.033,3.174V42.023z" id="path_3"/><path fill="#000001" d="M139.734,21.009h1.486c1.803,0 2.706,0.673 2.706,2.026c-1.167,3.153 -2.583,4.826 -4.251,5.02l-1.967,0.262c-0.314,0 -0.443,-0.089 -0.398,-0.262c1.59,-0.84 3.078,-1.841 4.455,-2.988c-0.486,-0.455 -1.025,-0.68 -1.615,-0.68h-0.416l-1.615,0.135l-0.129,-0.135v-0.262C138.753,22.047 139.337,21.009 139.734,21.009z" id="path_4"/><path fill="#DD2C00" d="M124.541,20.65c0.301,0 0.603,1.006 0.904,3.006l1.352,3.006l-0.602,3.456l0.448,8.417v1.347c-0.198,3.437 -0.698,5.436 -1.5,6.013l-0.147,-0.146l0.147,-2.257c0,-2.026 -0.654,-8.487 -1.956,-19.38C123.816,21.804 124.266,20.65 124.541,20.65z" id="path_5"/><path fill="#DD2C00" d="M129.028,11.861c0.153,-0.09 0.198,0.051 0.135,0.416c-0.853,2 -2.161,3.398 -3.924,4.186l-6.481,3.251c-0.275,-0.077 -0.326,-0.302 -0.153,-0.68c0.865,-1.667 1.455,-2.653 1.77,-2.968L129.028,11.861z" id="path_6"/><path fill="#000001" d="M107.091,38.605c1.481,-0.186 2.218,-0.475 2.218,-0.865c0,-2.98 0.904,-6.584 2.706,-10.814c0.25,-0.551 0.5,-0.603 0.749,-0.154c0.654,1.404 1.802,2.559 3.456,3.456c3.411,1.653 5.108,3.91 5.108,6.763c0,2.981 -0.646,4.687 -1.955,5.109l-1.5,0.147l-5.711,-0.301c-1.59,0.679 -3.275,0.993 -5.071,0.942V38.605L107.091,38.605zM115.623,37.895l3.75,0.147l0.604,-0.147c-0.924,-1.282 -2.129,-2.282 -3.604,-3.007C116.098,34.888 115.848,35.888 115.623,37.895L115.623,37.895zM110.662,35.939c0,0.949 0.75,1.551 2.256,1.801c1.302,-0.725 1.949,-1.475 1.949,-2.25c-0.449,-1.808 -1.199,-2.705 -2.25,-2.705C111.54,32.785 110.886,33.836 110.662,35.939z" id="path_7"/><path fill="#000001" d="M112.873,15.354h1.487c1.802,0 2.706,0.673 2.706,2.026c-1.168,3.154 -2.584,4.826 -4.251,5.02l-1.968,0.263c-0.314,0 -0.442,-0.09 -0.397,-0.263c1.589,-0.84 3.077,-1.84 4.455,-2.988c-0.487,-0.455 -1.025,-0.68 -1.616,-0.68h-0.416l-1.615,0.135l-0.128,-0.135v-0.262C111.893,16.393 112.477,15.354 112.873,15.354z" id="path_8"/><path fill="#213e95" d="M106.943,42.83c-1.455,0.014 -2.654,-0.73 -3.609,-2.23h-0.146c-0.705,2.5 -1.757,4.257 -3.154,5.257c-1.98,1.903 -4.135,2.853 -6.462,2.853h-0.904c-2.653,0 -5.007,-1.5 -7.058,-4.506c-0.802,-1.379 -1.205,-2.981 -1.205,-4.809c0,-2.577 1.301,-5.18 3.91,-7.809c1.359,-0.865 1.763,-0.814 1.199,0.148c-2.302,3.205 -3.455,5.41 -3.455,6.608c0,3.109 2.301,5.161 6.91,6.161h1.205c2.577,0 5.129,-1.302 7.66,-3.904c0.264,-0.826 0.314,-1.73 0.148,-2.705c-0.501,-2.129 -1.251,-7.539 -2.251,-16.225l0.897,-3.008c0.141,-0.025 0.289,-0.025 0.455,0c0.275,0 0.776,3.809 1.5,11.418c0.5,4.006 1.104,6.514 1.802,7.514c0.615,0.679 1.468,0.993 2.558,0.955V42.83z" id="path_9"/><path fill="#213e95" d="M100.814,50.324c0.154,-0.083 0.199,0.052 0.135,0.417c-0.852,2 -2.16,3.397 -3.923,4.187l-6.481,3.25c-0.275,-0.077 -0.326,-0.301 -0.153,-0.674c0.865,-1.666 1.455,-2.654 1.769,-2.967L100.814,50.324z" id="path_10"/><path fill="#DD2C00" d="M79.128,20.65c0.302,0 0.603,1.006 0.903,3.006l1.354,3.006l-0.604,3.456l0.449,8.417v1.347c-0.199,3.437 -0.699,5.436 -1.5,6.013l-0.147,-0.146l0.147,-2.257c0,-2.026 -0.654,-8.487 -1.955,-19.38C78.403,21.804 78.852,20.65 79.128,20.65z" id="path_11"/><path fill="#000001" d="M67.152,41.972c0.174,0.013 0.359,0.019 0.564,0.019h1.423c1.507,-0.25 2.653,-0.775 3.456,-1.576l-1.803,-14.277c0.449,-2.705 0.854,-4.051 1.199,-4.051l1.955,4.506c0,0.699 -0.25,1.751 -0.75,3.154l0.75,8.109v2.258c-0.563,2.391 -1.32,4.063 -2.269,5.012c-0.718,0.764 -1.558,1.148 -2.539,1.148h-1.275c-0.25,0 -0.487,-0.007 -0.712,-0.02V41.972z" id="path_12"/><path fill="#000001" d="M72.236,13.425h1.486c1.803,0 2.706,0.673 2.706,2.026c-1.167,3.154 -2.583,4.827 -4.251,5.02l-1.968,0.263c-0.313,0 -0.442,-0.09 -0.397,-0.263c1.59,-0.84 3.078,-1.84 4.456,-2.988c-0.487,-0.455 -1.026,-0.68 -1.616,-0.68h-0.416l-1.615,0.135l-0.129,-0.135v-0.262C71.255,14.464 71.839,13.425 72.236,13.425z" id="path_13"/><path fill="#213e95" d="M53.306,41.292c1.763,-0.397 2.853,-1.142 3.27,-2.218c0.173,-0.597 0.224,-1.096 0.147,-1.5c-2.475,-5.244 -3.719,-8.321 -3.719,-9.219c-0.121,-1.559 0.026,-3.014 0.456,-4.379c0.423,-1.365 1.122,-2.307 2.103,-2.833l11.865,-7.212c0.302,0.07 -0.089,1.121 -1.16,3.141c-1.076,2.026 -1.736,3.084 -1.975,3.174c-0.236,0.096 -0.396,-0.257 -0.467,-1.059c-4.635,2.93 -7.404,4.713 -8.303,5.354c-0.903,0.641 -1.441,1.205 -1.615,1.705c1.404,3.809 3.34,7.814 5.82,12.02c1.776,2.43 4.283,3.648 7.514,3.648c0.212,0 0.481,0 0.809,0v4.301l-0.507,0.02c-4.385,0 -7.591,-2.154 -9.616,-6.461c-0.128,-0.264 -0.225,-0.314 -0.301,-0.154c-0.814,3.436 -2.257,5.391 -4.321,5.879c-0.725,0.23 -1.468,0.358 -2.237,0.396v-4.301C51.908,41.529 52.652,41.434 53.306,41.292z" id="path_14"/><path fill="#213e95" d="M64.607,50.158c0.154,-0.084 0.199,0.051 0.135,0.416c-0.853,2 -2.16,3.398 -3.924,4.187l-6.48,3.25c-0.275,-0.077 -0.327,-0.302 -0.154,-0.673c0.865,-1.666 1.455,-2.654 1.77,-2.969L64.607,50.158z" id="path_15"/><path fill="#000001" d="M40.952,29.201c0.622,0 1.725,0.75 3.302,2.25c0,0.5 -0.596,1.604 -1.801,3.309h-0.302c-0.628,0 -1.577,-0.603 -2.853,-1.809v-0.146C39.299,32.201 39.85,31.003 40.952,29.201z" id="path_16"/><path fill="#000001" d="M46.356,28.445c2.507,1.076 3.757,1.93 3.757,2.558c-0.147,0.475 -0.847,1.526 -2.103,3.154c-1.68,-0.654 -2.878,-1.404 -3.603,-2.257C44.934,30.228 45.581,29.073 46.356,28.445z" id="path_17"/><path fill="#000001" d="M38.299,41.613c1.07,0.012 1.73,-0.008 1.993,-0.059c2.257,-0.686 3.795,-2.147 4.622,-4.372c0.122,-0.429 0.371,-0.48 0.75,-0.153c0.199,0.173 0.353,0.878 0.449,2.103c1.365,1.84 3.07,2.667 5.109,2.481h0.396v4.281h-0.096c-3.192,-0.146 -5.545,-1.603 -7.064,-4.359h-0.147c-1.064,2.244 -2.468,3.623 -4.206,4.135c-0.525,0.148 -1.127,0.225 -1.807,0.225V41.613z" id="path_18"/><path fill="#000001" d="M49.908,17.554c0.154,-0.09 0.198,0.051 0.135,0.417c-0.854,2 -2.16,3.397 -3.924,4.186l-6.48,3.25c-0.276,-0.076 -0.328,-0.301 -0.154,-0.68c0.865,-1.666 1.455,-2.653 1.77,-2.968L49.908,17.554z" id="path_19"/><path fill="#000001" d="M38.337,45.895c-2.917,0.174 -5.039,-1.173 -6.366,-4.039c-0.641,-1.063 -1.236,-8.236 -1.801,-21.52v-0.302c0.371,-2.205 0.923,-3.308 1.646,-3.308l0.758,-0.147c0.922,0 2.326,0.302 4.205,0.897v0.301c-0.104,0.302 -0.404,0.456 -0.904,0.456h-2.552c-0.525,0 -1.025,0.294 -1.507,0.897c0.469,11.532 1.148,18.212 2.052,20.039c0.897,1.827 2.392,2.642 4.469,2.443V45.895z" id="path_20"/><path fill="#213e95" d="M16.271,46.645c2.103,0.604 3.154,1.354 3.154,2.257l-1.955,3.153c-1.956,-0.801 -3.008,-1.403 -3.154,-1.801C14.316,49.324 14.963,48.125 16.271,46.645z" id="path_21"/><path fill="#213e95" d="M7.252,32.521h0.153l0.302,0.303c-0.802,1.775 -1.205,2.98 -1.205,3.602c0,2.93 2.808,4.635 8.417,5.109l1.802,0.302c1.801,0 4.506,-0.552 8.109,-1.653l2.109,-1.199c-0.706,-1.275 -1.154,-2.379 -1.354,-3.309l0.301,-2.852h0.295c1.205,1.25 1.809,3.455 1.809,6.609c0,3.031 -2.654,5.083 -7.969,6.16l-2.25,0.301c-8.417,0 -12.623,-2.756 -12.623,-8.264C5.148,35.33 5.854,33.625 7.252,32.521z" id="path_22"/><path fill="#213e95" d="M22.054,53.313c0.154,-0.084 0.198,0.051 0.135,0.416c-0.853,2 -2.161,3.398 -3.923,4.186l-6.481,3.251c-0.276,-0.077 -0.327,-0.302 -0.153,-0.673c0.865,-1.667 1.455,-2.654 1.769,-2.969L22.054,53.313z" id="path_23"/></svg>