<svg id="vector" xmlns="http://www.w3.org/2000/svg" width="75" height="67" viewBox="0 0 83 73"><path fill="#000001" d="M63.85,32.82c0.646,0 1.79,0.777 3.426,2.336c0,0.518 -0.618,1.662 -1.87,3.434h-0.312c-0.646,0 -1.639,-0.625 -2.963,-1.869v-0.16C62.131,35.934 62.705,34.689 63.85,32.82z" id="path_0"/><path fill="#000001" d="M69.468,32.041c2.596,1.111 3.893,1.996 3.893,2.648c-0.152,0.492 -0.878,1.584 -2.183,3.275c-1.737,-0.672 -2.989,-1.457 -3.742,-2.338C67.981,33.885 68.654,32.686 69.468,32.041z" id="path_1"/><path fill="#000001" d="M65.72,27.514c2.389,0.984 3.588,1.816 3.588,2.496l-2.032,3.121h-0.151c-0.439,0 -1.639,-0.625 -3.589,-1.877C64.495,28.758 65.227,27.514 65.72,27.514z" id="path_2"/><path fill="#000001" d="M63.122,49.92c4.088,0.039 6.371,-0.727 6.87,-2.305c0,-0.545 -0.519,-1.896 -1.563,-4.053l0.472,-4.055h0.306c1.359,2.338 2.03,4.68 2.03,7.018v1.404c0,0.939 -0.226,1.924 -0.671,2.955c-0.446,1.031 -1.139,1.902 -2.065,2.602c-0.93,0.707 -2.722,1 -5.378,0.879V49.92z" id="path_3"/><path fill="#000001" d="M71.43,18.734c0.16,-0.094 0.207,0.053 0.141,0.432c-0.886,2.078 -2.243,3.529 -4.074,4.348l-6.729,3.375c-0.287,-0.08 -0.34,-0.314 -0.16,-0.707c0.898,-1.73 1.511,-2.756 1.837,-3.082L71.43,18.734z" id="path_4"/><path fill="#008046" d="M47.526,49.92c1.732,0.146 3.202,-0.027 4.427,-0.506l-0.646,-1.172c-0.606,-3.436 -0.333,-5.705 0.819,-6.816c1.158,-1.111 2.402,-1.623 3.727,-1.531c2.576,0.119 4.027,1.471 4.366,4.055v0.938c0,2.156 -0.312,3.508 -0.93,4.055c-0.394,0.406 0.491,0.744 2.648,1.018l0.505,-0.02c0.394,-0.014 0.841,-0.02 1.346,-0.02v4.445l-1.578,0.021c-2.935,-0.014 -5.158,-0.387 -6.669,-1.111c-2.077,0.725 -3.695,1.09 -4.833,1.09h-0.626c-0.777,0 -1.63,0 -2.557,0V49.92L47.526,49.92zM53.046,45.514v0.313c0.651,1.119 1.638,1.896 2.962,2.336c0.886,-0.152 1.771,-0.52 2.656,-1.092c-0.394,-1.457 -1.69,-2.289 -3.9,-2.496C53.617,44.887 53.046,45.199 53.046,45.514z" id="path_5"/><path fill="#008046" d="M56.068,30.922c1.688,0.525 3.147,1.359 4.366,2.496v0.16c0,0.652 -0.673,1.691 -2.024,3.121c-0.419,0 -1.823,-0.52 -4.214,-1.564v0.16c-0.831,1.611 -1.35,2.443 -1.564,2.496c-1.352,-0.285 -2.496,-0.912 -3.428,-1.877c0.626,-2.596 1.145,-3.895 1.558,-3.895c0.34,0 1.592,0.619 3.748,1.871C54.51,33.346 55.029,32.354 56.068,30.922z" id="path_6"/><path fill="#008046" d="M55.542,18.441c1.597,0 2.396,0.984 2.396,2.949c0,3.129 -2.67,5.797 -8.015,7.994c-0.767,0.232 -0.858,-0.047 -0.273,-0.84c0.146,-0.299 1.404,-1.238 3.781,-2.809v-0.133c-1.025,-0.42 -1.538,-1.313 -1.538,-2.676c0.678,-2.988 1.757,-4.486 3.234,-4.486H55.542L55.542,18.441zM53.159,21.816c0,0.832 0.705,1.344 2.109,1.543h0.273c0.519,0 0.852,-0.191 0.992,-0.564c0,-0.846 -0.614,-1.504 -1.831,-1.971C54.171,20.824 53.658,21.156 53.159,21.816z" id="path_7"/><path fill="#213e95" d="M36.278,49.92c0.025,0 0.059,0 0.092,0c2.496,-0.154 3.928,-1.271 4.294,-3.355c-0.938,-6.236 -1.404,-10.609 -1.404,-13.105c0,-0.959 0.42,-2.211 1.25,-3.742l0.154,0.152l0.313,0.314l-0.16,1.092c0.135,7.008 1.02,12.441 2.656,16.301c0.626,1.404 2.156,2.189 4.6,2.344v4.445c-3.354,-0.053 -5.61,-1.816 -6.782,-5.305h-0.16c-1.078,3.496 -2.696,5.266 -4.852,5.305V49.92z" id="path_8"/><path fill="#213e95" d="M45.789,21.23c0.16,-0.094 0.207,0.053 0.141,0.432c-0.886,2.078 -2.243,3.529 -4.074,4.348l-6.729,3.375c-0.287,-0.08 -0.34,-0.313 -0.16,-0.707c0.899,-1.729 1.512,-2.756 1.837,-3.08L45.789,21.23z" id="path_9"/><path fill="#000001" d="M36.723,54.387c-1.989,-0.16 -3.787,-1.559 -5.403,-4.195c-2.391,2.91 -5.825,4.367 -10.291,4.367h-1.252c-4.833,0 -8.161,-2.076 -9.984,-6.236L9.64,47.383v-1.404c0,-1.504 0.671,-3.221 2.022,-5.145h0.159l0.314,0.313v0.777L11.35,44.42c0,2.73 2.289,4.602 6.868,5.619l2.811,0.152c4.857,0 8.705,-1.664 11.541,-4.992c0.154,0 0.313,0.207 0.466,0.627l-0.152,1.092c0.532,1.963 1.81,2.947 3.84,2.961V54.387z" id="path_10"/><path fill="#DD2C00" d="M18.685,39.582h0.313c1.064,0.232 2.21,0.859 3.435,1.871v0.16c-0.706,2.129 -1.332,3.273 -1.878,3.434c-1.584,-0.313 -2.781,-0.832 -3.589,-1.564V43.33C16.966,42.105 17.539,40.859 18.685,39.582z" id="path_11"/><path fill="#DD2C00" d="M24.456,38.178h0.158c1.067,0.16 2.265,0.885 3.589,2.184v0.16l-1.876,3.273c-2.497,-0.805 -3.743,-1.484 -3.743,-2.029C23.39,39.375 24.016,38.178 24.456,38.178z" id="path_12"/><path fill="#DD2C00" d="M21.547,26.949h1.545c1.87,0 2.808,0.697 2.808,2.104c-1.211,3.273 -2.682,5.012 -4.413,5.211l-2.044,0.273c-0.325,0 -0.458,-0.094 -0.411,-0.273c1.649,-0.871 3.194,-1.91 4.626,-3.102c-0.505,-0.473 -1.065,-0.707 -1.678,-0.707h-0.433l-1.677,0.141l-0.133,-0.141v-0.271C20.529,28.025 21.134,26.949 21.547,26.949z" id="path_13"/></svg>