<svg id="vector" xmlns="http://www.w3.org/2000/svg" width="75" height="67" viewBox="0 0 83 73"><path fill="#DD2C00" d="M56.514,47.743h0.806h0.307h0.785c2.83,-0.205 4.547,-0.857 5.146,-1.95c0,-0.858 -0.985,-3.195 -2.962,-7.022l-0.313,-1.245c-0.339,-1.638 -0.325,-3.142 0.04,-4.506c0.359,-1.364 1.078,-2.31 2.145,-2.829c2.469,-1.664 7.201,-4.42 14.197,-8.268l0.153,0.16v0.307c-1.505,2.369 -2.649,4.553 -3.429,6.557h-0.313l-0.16,-0.779v-0.785l0.16,-0.152v-0.154h-0.16c-5.797,3.35 -9.697,5.797 -11.701,7.329v0.16c2.189,4.419 3.381,7.794 3.594,10.138c0,1.664 -0.572,3.434 -1.717,5.305c-1.092,1.457 -3.274,2.184 -6.557,2.184h-0.021V47.743z" id="path_0"/><path fill="#DD2C00" d="M71.632,17.089c0.159,-0.093 0.206,0.054 0.139,0.433c-0.885,2.078 -2.242,3.528 -4.074,4.348l-6.729,3.375c-0.286,-0.08 -0.339,-0.313 -0.159,-0.707c0.898,-1.729 1.512,-2.755 1.838,-3.082L71.632,17.089z" id="path_1"/><path fill="#0992d1" d="M57.333,52.209c-2.676,-0.18 -5.105,-1.645 -7.289,-4.387h-0.16c-0.932,5.406 -3.015,8.107 -6.236,8.115h-0.473c-1.398,-0.008 -2.756,-1.252 -4.055,-3.748c-1.037,-3.508 -1.557,-6.164 -1.557,-7.955v-1.252c0,-0.777 0.152,-1.197 0.466,-1.244c0.44,0.233 0.966,1.938 1.571,5.119c0.605,3.176 1.85,4.692 3.734,4.553c3.641,-0.598 5.564,-2.682 5.77,-6.244l-1.403,-4.832v-1.717c0.054,-2.084 0.259,-3.123 0.626,-3.123c0.205,0.467 0.365,0.939 0.466,1.405l2.183,6.862c1.718,2.782 3.842,4.101 6.357,3.94V52.209z" id="path_2"/><path fill="#0992d1" d="M46.763,23.428h1.544c1.871,0 2.81,0.697 2.81,2.103c-1.211,3.275 -2.684,5.012 -4.414,5.212l-2.043,0.273c-0.326,0 -0.459,-0.094 -0.412,-0.273c1.65,-0.872 3.195,-1.91 4.625,-3.102c-0.505,-0.473 -1.064,-0.706 -1.678,-0.706h-0.432l-1.678,0.14l-0.133,-0.14v-0.273C45.744,24.506 46.35,23.428 46.763,23.428z" id="path_3"/><path fill="#213e95" d="M14.332,47.743h1.798c1.896,-0.26 4.912,-0.965 9.046,-2.104v-0.16c-3.768,-1.662 -6.157,-2.496 -7.177,-2.496c-1.377,0 -2.31,0.779 -2.809,2.344l-0.465,0.313c-0.207,0 -0.313,-0.16 -0.313,-0.473c0.519,-3.115 1.924,-4.68 4.214,-4.68h0.779c0.965,0 4.238,1.093 9.831,3.275l4.213,0.313l0.306,0.473c-0.072,0.698 -0.698,2.05 -1.869,4.054h-0.467l-0.625,-0.16h-0.779c-8.113,2.396 -12.848,3.641 -14.198,3.748h-1.484V47.743z" id="path_4"/><path fill="#f06022" d="M29.036,27.694l0.16,0.141v0.426c-0.813,1.73 -1.938,2.941 -3.375,3.647c-4.474,2.429 -6.956,3.647 -7.448,3.647c-0.188,0 -0.28,-0.146 -0.28,-0.433c0.434,-1.651 1.371,-2.769 2.81,-3.355l8.001,-4.073H29.036z" id="path_5"/><path fill="#f06022" d="M27.925,24.186c0.18,0 0.273,0.133 0.273,0.406c-0.52,1.511 -2.059,2.869 -4.621,4.08l-5.91,3.235l-0.133,-0.141v-0.153c0.559,-1.977 1.444,-3.195 2.669,-3.647l6.589,-3.374L27.925,24.186z" id="path_6"/><path fill="#000001" d="M14.665,52.19c-3.029,0.18 -5.232,-1.219 -6.61,-4.193c-0.666,-1.105 -1.284,-8.555 -1.87,-22.346v-0.313c0.387,-2.291 0.959,-3.436 1.711,-3.436l0.785,-0.153c0.959,0 2.416,0.313 4.366,0.933v0.313c-0.106,0.313 -0.419,0.473 -0.938,0.473H9.46c-0.547,0 -1.066,0.307 -1.564,0.932c0.486,11.975 1.191,18.911 2.13,20.808c0.933,1.897 2.482,2.743 4.64,2.536V52.19z" id="path_7"/></svg>