<svg id="vector" xmlns="http://www.w3.org/2000/svg" width="75" height="67" viewBox="0 0 83 73"><path fill="#000001" d="M74.837,42.777h0.603c1.758,0 3.06,1.5 3.913,4.508l0.147,1.502c0.052,0.488 0.052,0.986 0,1.508c-0.45,1.826 -1.456,3.629 -3.008,5.406c-1.077,0.904 -3.528,1.604 -7.364,2.104c-0.448,-0.199 -0.706,-0.398 -0.75,-0.596C74.793,53.727 78,51.623 78,50.891l0.147,-0.449L78,50.295l-1.354,0.449h-0.751c-2.707,0 -4.06,-0.957 -4.06,-2.855v-0.301c0.347,-3.111 1.104,-4.662 2.251,-4.662L74.837,42.777z" id="path_0"/><path fill="#000001" d="M78.821,30.596c0.154,-0.09 0.199,0.053 0.134,0.418c-0.853,2 -2.161,3.398 -3.925,4.188l-6.484,3.254c-0.276,-0.078 -0.328,-0.303 -0.154,-0.682c0.866,-1.666 1.457,-2.656 1.771,-2.969L78.821,30.596z" id="path_1"/><path fill="#DD2C00" d="M63.946,26.254c0.301,0 0.604,1.006 0.904,3.008l1.353,3.01l-0.603,3.457l0.449,8.422v1.346c-0.199,3.438 -0.698,5.439 -1.5,6.016l-0.148,-0.146l0.148,-2.258c0,-2.027 -0.655,-8.492 -1.957,-19.389C63.222,27.408 63.67,26.254 63.946,26.254z" id="path_2"/><path fill="#000001" d="M51.964,40.859c0.173,0.014 0.36,0.02 0.564,0.02h1.424c1.507,-0.25 2.656,-0.777 3.458,-1.578l-1.802,-14.285c0.448,-2.707 0.852,-4.053 1.199,-4.053l1.956,4.508c0,0.699 -0.25,1.752 -0.751,3.156l0.751,8.115v2.256c-0.564,2.393 -1.322,4.068 -2.27,5.018c-0.72,0.762 -1.559,1.146 -2.541,1.146h-1.276c-0.25,0 -0.488,-0.006 -0.712,-0.018V40.859z" id="path_3"/><path fill="#000001" d="M57.051,12.297h1.488c1.802,0 2.707,0.674 2.707,2.027c-1.168,3.156 -2.586,4.83 -4.253,5.023l-1.968,0.262c-0.315,0 -0.443,-0.09 -0.398,-0.262c1.59,-0.842 3.078,-1.842 4.457,-2.99c-0.487,-0.457 -1.026,-0.68 -1.616,-0.68h-0.417l-1.617,0.135l-0.128,-0.135v-0.264C56.068,13.336 56.653,12.297 57.051,12.297z" id="path_4"/><path fill="#213e95" d="M37.661,40.879c1.667,0.141 3.085,-0.025 4.265,-0.488l-0.622,-1.129c-0.583,-3.309 -0.32,-5.496 0.79,-6.568c1.116,-1.07 2.315,-1.564 3.592,-1.475c2.481,0.115 3.881,1.418 4.207,3.906v0.904c0,2.078 -0.3,3.381 -0.897,3.906c-0.378,0.391 0.474,0.719 2.553,0.982l0.488,-0.02c0.378,-0.014 0.807,-0.02 1.295,-0.02v4.283l-1.519,0.02c-2.83,-0.012 -4.971,-0.371 -6.428,-1.07c-2.001,0.699 -3.559,1.051 -4.657,1.051h-0.603c-0.75,0 -1.572,0 -2.463,0V40.879L37.661,40.879zM42.978,36.633v0.301c0.629,1.078 1.579,1.828 2.854,2.252c0.854,-0.148 1.707,-0.5 2.561,-1.053c-0.379,-1.404 -1.63,-2.205 -3.76,-2.404C43.53,36.029 42.978,36.33 42.978,36.633z" id="path_5"/><path fill="#213e95" d="M43.882,23.855c1.302,0 2.502,0.803 3.605,2.404c-0.924,2.105 -1.629,3.156 -2.104,3.156c-2.026,-1 -3.13,-1.654 -3.31,-1.957C42.074,26.512 42.677,25.305 43.882,23.855z" id="path_6"/><path fill="#213e95" d="M49.367,13.311c0.154,-0.088 0.199,0.051 0.135,0.418c-0.853,2.002 -2.162,3.398 -3.925,4.188l-6.486,3.252c-0.275,-0.078 -0.326,-0.301 -0.153,-0.68c0.866,-1.668 1.456,-2.656 1.77,-2.971L49.367,13.311z" id="path_7"/><path fill="#000001" d="M27.443,28.461c0.622,0 1.725,0.75 3.304,2.252c0,0.498 -0.597,1.604 -1.803,3.309h-0.3c-0.63,0 -1.579,-0.602 -2.855,-1.809v-0.146C25.789,31.463 26.341,30.264 27.443,28.461z" id="path_8"/><path fill="#DD2C00" d="M32.85,27.703c2.508,1.078 3.759,1.932 3.759,2.561c-0.147,0.475 -0.846,1.525 -2.103,3.156c-1.681,-0.656 -2.88,-1.406 -3.606,-2.26C31.427,29.486 32.074,28.332 32.85,27.703z" id="path_9"/><path fill="#DD2C00" d="M24.788,40.879c1.071,0.012 1.732,-0.006 1.994,-0.059c2.258,-0.686 3.798,-2.148 4.625,-4.375c0.123,-0.428 0.372,-0.48 0.75,-0.154c0.199,0.174 0.353,0.881 0.449,2.105c1.367,1.84 3.073,2.668 5.112,2.482h0.398v4.283H38.02c-3.194,-0.146 -5.548,-1.604 -7.067,-4.361h-0.148c-1.065,2.246 -2.469,3.625 -4.208,4.139c-0.526,0.146 -1.128,0.223 -1.808,0.223V40.879z" id="path_10"/><path fill="#DD2C00" d="M30.689,16.486h1.488c1.802,0 2.707,0.672 2.707,2.025c-1.168,3.156 -2.585,4.83 -4.253,5.023l-1.969,0.262c-0.315,0 -0.441,-0.09 -0.396,-0.262c1.589,-0.84 3.078,-1.842 4.457,-2.988c-0.488,-0.457 -1.027,-0.682 -1.617,-0.682h-0.417L29.073,20l-0.129,-0.135v-0.262C29.708,17.525 30.292,16.486 30.689,16.486z" id="path_11"/><path fill="#000001" d="M25.441,45.234c-0.294,0.012 -0.596,0.018 -0.897,0.018l-1.43,-0.018c-5.208,-0.014 -8.056,-1.92 -8.531,-5.729l0.148,-1.354v-1.205h-0.148c-5.612,3.084 -8.421,6.689 -8.421,10.826c0,3.154 1.859,5.662 5.567,7.518c4.381,1.104 8.441,1.654 12.174,1.654l3.759,-0.154l0.147,0.154v0.148c-4.272,2.404 -7.177,3.611 -8.717,3.611h-1.353c-5.388,0 -8.992,-1.406 -10.821,-4.215c-1.404,-1.553 -2.103,-4.01 -2.103,-7.363v-0.604c0,-4.906 2.655,-9.268 7.966,-13.078v-0.146l-4.663,-0.303c-2.092,0 -3.394,0.951 -3.906,2.855l-0.154,0.154H3.756c-0.199,0 -0.294,-0.154 -0.294,-0.457c0.763,-4.406 2.514,-6.611 5.26,-6.611h0.603l7.812,0.301l6.017,-0.301l0.148,0.447c-0.737,2.406 -1.591,3.611 -2.553,3.611c-3.104,0.738 -4.663,1.289 -4.663,1.656v1.354c0.327,1.865 2.995,2.848 8.004,2.943h0.455c0.314,0 0.609,-0.006 0.897,-0.014V45.234z" id="path_12"/><path fill="#000001" d="M13.814,16.107c1.54,0 2.309,0.949 2.309,2.842c0,3.014 -2.572,5.586 -7.723,7.703c-0.738,0.225 -0.828,-0.045 -0.262,-0.809c0.14,-0.289 1.352,-1.193 3.643,-2.707V23.01c-0.989,-0.404 -1.482,-1.264 -1.482,-2.58c0.654,-2.879 1.693,-4.322 3.117,-4.322H13.814L13.814,16.107zM11.518,19.359c0,0.801 0.681,1.295 2.033,1.488h0.263c0.5,0 0.821,-0.186 0.956,-0.547c0,-0.813 -0.59,-1.449 -1.764,-1.898C12.493,18.402 11.999,18.725 11.518,19.359z" id="path_13"/></svg>