<svg id="vector" xmlns="http://www.w3.org/2000/svg" width="75" height="67" viewBox="0 0 83 73"><path fill="#DD2C00" d="M60.739,27.873c0.313,0 0.626,1.045 0.938,3.122l1.404,3.121l-0.626,3.588l0.466,8.741v1.397c-0.205,3.568 -0.726,5.645 -1.557,6.244l-0.154,-0.153l0.154,-2.342c0,-2.104 -0.681,-8.814 -2.03,-20.124C59.986,29.071 60.453,27.873 60.739,27.873z" id="path_0"/><path fill="#DD2C00" d="M65.398,18.748c0.16,-0.094 0.207,0.052 0.141,0.433c-0.886,2.076 -2.245,3.528 -4.074,4.346l-6.729,3.375c-0.287,-0.08 -0.34,-0.313 -0.16,-0.705c0.898,-1.73 1.512,-2.755 1.837,-3.082L65.398,18.748z" id="path_1"/><path fill="#f06022" d="M45.335,31.66c1.539,0.494 2.736,1.119 3.589,1.871v0.312c0,0.52 -0.565,1.665 -1.711,3.435c-1.064,0 -2.264,-0.572 -3.588,-1.717v-0.313C43.625,34.13 44.198,32.932 45.335,31.66z" id="path_2"/><path fill="#f06022" d="M43.286,49.64c4.087,0.04 6.371,-0.726 6.87,-2.303c0,-0.546 -0.521,-1.896 -1.566,-4.053l0.475,-4.055h0.306c1.357,2.337 2.03,4.68 2.03,7.017v1.404c0,0.939 -0.227,1.924 -0.673,2.956c-0.446,1.031 -1.139,1.904 -2.063,2.604c-0.932,0.705 -2.723,0.997 -5.378,0.877V49.64z" id="path_3"/><path fill="#f06022" d="M48.65,21.87h1.545c1.87,0 2.81,0.698 2.81,2.103c-1.213,3.275 -2.683,5.012 -4.415,5.212l-2.042,0.273c-0.327,0 -0.46,-0.094 -0.413,-0.273c1.65,-0.872 3.194,-1.91 4.626,-3.102c-0.505,-0.473 -1.064,-0.706 -1.677,-0.706H48.65l-1.677,0.14l-0.133,-0.14v-0.273C47.633,22.947 48.239,21.87 48.65,21.87z" id="path_4"/><path fill="#000001" d="M44.517,54.106c-1.989,-0.16 -3.787,-1.558 -5.404,-4.194c-2.391,2.909 -5.825,4.366 -10.291,4.366h-1.252c-4.832,0 -8.161,-2.077 -9.984,-6.236l-0.152,-0.939v-1.404c0,-1.504 0.671,-3.222 2.022,-5.146h0.16l0.313,0.313v0.779l-0.786,2.495c0,2.729 2.29,4.601 6.869,5.618l2.81,0.153c4.86,0 8.708,-1.665 11.543,-4.992c0.152,0 0.313,0.207 0.464,0.626l-0.151,1.092c0.532,1.963 1.81,2.948 3.84,2.961V54.106z" id="path_5"/><path fill="#000001" d="M26.478,39.302h0.313c1.065,0.233 2.21,0.859 3.435,1.871v0.16c-0.706,2.129 -1.332,3.274 -1.878,3.434c-1.584,-0.313 -2.781,-0.832 -3.586,-1.564V43.05C24.762,41.825 25.333,40.58 26.478,39.302z" id="path_6"/><path fill="#000001" d="M32.25,37.898h0.16c1.064,0.16 2.262,0.885 3.586,2.183v0.16l-1.876,3.275c-2.496,-0.806 -3.74,-1.485 -3.74,-2.031C31.186,39.096 31.81,37.898 32.25,37.898z" id="path_7"/><path fill="#000001" d="M35.271,27.001c0.16,-0.094 0.207,0.053 0.141,0.433c-0.886,2.077 -2.243,3.528 -4.074,4.346l-6.729,3.375c-0.287,-0.08 -0.34,-0.312 -0.16,-0.705c0.899,-1.73 1.512,-2.755 1.837,-3.082L35.271,27.001z" id="path_8"/></svg>