<svg id="vector" xmlns="http://www.w3.org/2000/svg" width="136" height="73" viewBox="0 0 135.523 72.959"><path fill="#000001" d="M123.522,23.121c0.353,0 0.705,1.178 1.058,3.518l1.582,3.518l-0.704,4.043l0.524,9.848v1.574c-0.232,4.021 -0.817,6.361 -1.755,7.035l-0.173,-0.172l0.173,-2.641c0,-2.369 -0.765,-9.93 -2.287,-22.672C122.675,24.473 123.2,23.121 123.522,23.121z" id="path_0"/><path fill="#000001" d="M130.287,56.496c0.181,-0.098 0.232,0.061 0.157,0.488c-0.997,2.34 -2.527,3.975 -4.59,4.898l-7.582,3.801c-0.322,-0.09 -0.383,-0.352 -0.18,-0.787c1.012,-1.949 1.702,-3.105 2.069,-3.473L130.287,56.496z" id="path_1"/><path fill="#e21171" d="M104.667,42.111h0.354c1.642,0.375 3.104,1.262 4.395,2.633v0.354c-0.112,0.938 -0.817,2.166 -2.107,3.689c-3.045,-1.02 -4.567,-1.904 -4.567,-2.633C103.468,44.047 104.112,42.697 104.667,42.111z" id="path_2"/><path fill="#e21171" d="M113.99,38.594h0.345c0.412,0 1.41,2.641 2.992,7.914l0.173,0.697c0,4.133 -0.997,7.125 -2.985,8.969c-2.813,3.045 -6.149,4.568 -10.02,4.568c-3.165,-0.705 -5.213,-1.402 -6.15,-2.107c-3.053,-2.609 -4.575,-5.836 -4.575,-9.668c0,-3.225 1.41,-6.27 4.223,-9.143l0.173,-0.172h0.353l0.353,0.344c0,0.301 -0.817,1.584 -2.46,3.871c-0.473,0.818 -0.765,1.936 -0.878,3.338c0,2.73 1.402,5.07 4.216,7.035c2.752,1.057 4.627,1.582 5.624,1.582c2.521,0 5.506,-1.117 8.963,-3.338c1.41,-1.236 2.115,-1.994 2.115,-2.287l-2.46,-6.855l-0.181,-1.23L113.99,38.594z" id="path_3"/><path fill="#e21171" d="M108.027,23.475c0.323,0.555 0.698,2.137 1.125,4.748c-0.263,1.582 -0.952,2.369 -2.069,2.369h-0.15c-0.487,0 -1.117,-0.314 -1.912,-0.945c-0.54,0.953 -1.335,1.434 -2.37,1.434c-1.261,0 -1.891,-1.531 -1.891,-4.59c0.368,-1.164 0.683,-1.74 0.945,-1.74l0.15,0.158v2.699c0.217,0.938 0.487,1.402 0.795,1.402h0.637c0.66,0 1.08,-0.262 1.275,-0.787l-0.33,-2.371c0.128,-0.795 0.345,-1.215 0.638,-1.252h0.33c0.33,2.633 0.862,3.953 1.575,3.953h1.103v-0.158l-0.48,-3.158v-0.18C107.525,24 107.735,23.475 108.027,23.475z" id="path_4"/><path fill="#e21171" d="M110.69,13.807c0.18,-0.105 0.232,0.061 0.157,0.488c-0.998,2.34 -2.527,3.975 -4.59,4.896l-7.583,3.803c-0.322,-0.09 -0.382,-0.352 -0.18,-0.795c1.013,-1.949 1.702,-3.105 2.07,-3.473L110.69,13.807z" id="path_5"/><path fill="#000001" d="M82.647,23.121c0.353,0 0.705,1.178 1.058,3.518l1.582,3.518l-0.704,4.043l0.524,9.848v1.574c-0.232,4.021 -0.817,6.361 -1.755,7.035l-0.173,-0.172l0.173,-2.641c0,-2.369 -0.765,-9.93 -2.287,-22.672C81.8,24.473 82.325,23.121 82.647,23.121z" id="path_6"/><path fill="#000001" d="M65.938,47.625c0.202,0.014 0.42,0.021 0.66,0.021h1.665c1.763,-0.291 3.104,-0.906 4.042,-1.844L70.197,29.1c0.525,-3.164 0.997,-4.74 1.402,-4.74l2.288,5.273c0,0.816 -0.293,2.047 -0.878,3.689l0.878,9.486v2.641c-0.66,2.797 -1.545,4.756 -2.655,5.865c-0.84,0.893 -1.822,1.342 -2.97,1.342H66.77c-0.292,0 -0.569,-0.006 -0.832,-0.021V47.625z" id="path_7"/><path fill="#000001" d="M75.508,14.092c0.322,0.555 0.697,2.139 1.125,4.748c-0.263,1.582 -0.953,2.369 -2.07,2.369h-0.15c-0.487,0 -1.117,-0.314 -1.912,-0.945c-0.54,0.953 -1.335,1.434 -2.37,1.434c-1.26,0 -1.89,-1.531 -1.89,-4.59c0.367,-1.162 0.683,-1.74 0.944,-1.74l0.15,0.158v2.699c0.218,0.938 0.487,1.402 0.795,1.402h0.638c0.66,0 1.08,-0.262 1.274,-0.787l-0.33,-2.371c0.128,-0.795 0.346,-1.215 0.638,-1.252h0.33c0.33,2.633 0.862,3.953 1.575,3.953h1.103v-0.158l-0.48,-3.156v-0.182C75.005,14.617 75.215,14.092 75.508,14.092z" id="path_8"/><path fill="#000001" d="M78.17,4.424c0.18,-0.104 0.232,0.061 0.157,0.488c-0.997,2.34 -2.527,3.975 -4.59,4.898l-7.583,3.801c-0.322,-0.09 -0.382,-0.352 -0.18,-0.795c1.013,-1.949 1.702,-3.104 2.07,-3.473L78.17,4.424z" id="path_9"/><path fill="#DD2C00" d="M55.73,24.705c2.467,1.23 3.698,2.287 3.698,3.164c-1.178,2.318 -1.875,3.488 -2.115,3.518H56.96c-1.8,-0.906 -2.91,-1.725 -3.337,-2.459C54.035,27.592 54.74,26.189 55.73,24.705z" id="path_10"/><path fill="#DD2C00" d="M67.617,52.68c-3.015,-0.203 -5.752,-1.854 -8.212,-4.943h-0.18c-1.05,6.092 -3.397,9.137 -7.027,9.143h-0.533c-1.575,-0.006 -3.105,-1.41 -4.567,-4.223c-1.17,-3.951 -1.755,-6.943 -1.755,-8.961v-1.41c0,-0.879 0.172,-1.35 0.525,-1.402c0.495,0.262 1.087,2.182 1.77,5.768c0.683,3.576 2.085,5.287 4.208,5.129c4.103,-0.676 6.27,-3.021 6.503,-7.035l-1.583,-5.445v-1.934c0.06,-2.348 0.292,-3.518 0.705,-3.518c0.232,0.525 0.412,1.057 0.525,1.582l2.46,7.732c1.935,3.135 4.327,4.619 7.162,4.439V52.68z" id="path_11"/><path fill="#DD2C00" d="M59.885,59.377c0.181,-0.098 0.232,0.061 0.157,0.488c-0.997,2.34 -2.527,3.975 -4.589,4.896l-7.583,3.803c-0.322,-0.09 -0.383,-0.354 -0.18,-0.787c1.013,-1.951 1.702,-3.105 2.07,-3.473L59.885,59.377z" id="path_12"/><path fill="#213e95" d="M32.967,51.225h0.353c1.2,0.262 2.49,0.967 3.87,2.115v0.172c-0.795,2.4 -1.493,3.689 -2.107,3.871c-1.792,-0.354 -3.135,-0.938 -4.043,-1.764v-0.172C31.04,54.066 31.685,52.664 32.967,51.225z" id="path_13"/><path fill="#213e95" d="M39.478,49.643h0.172c1.2,0.18 2.55,0.996 4.042,2.459v0.18l-2.107,3.691c-2.813,-0.908 -4.223,-1.674 -4.223,-2.287C38.27,50.992 38.975,49.643 39.478,49.643z" id="path_14"/><path fill="#213e95" d="M31.407,43.184c4.605,0.047 7.178,-0.816 7.74,-2.594c0,-0.615 -0.585,-2.139 -1.763,-4.568l0.533,-4.566h0.345c1.53,2.633 2.288,5.271 2.288,7.904v1.582c0,1.059 -0.255,2.168 -0.757,3.33s-1.283,2.145 -2.325,2.934c-1.05,0.795 -3.067,1.125 -6.06,0.99V43.184z" id="path_15"/><path fill="#213e95" d="M35.51,18.975h1.74c2.107,0 3.165,0.787 3.165,2.369c-1.365,3.691 -3.022,5.648 -4.973,5.873l-2.302,0.309c-0.368,0 -0.518,-0.105 -0.465,-0.309c1.86,-0.982 3.6,-2.152 5.213,-3.494c-0.57,-0.533 -1.2,-0.795 -1.89,-0.795H35.51l-1.89,0.156l-0.15,-0.156v-0.309C34.362,20.189 35.045,18.975 35.51,18.975z" id="path_16"/><path fill="#000001" d="M16.295,43.514c1.732,0.557 3.075,1.262 4.042,2.107v0.354c0,0.584 -0.645,1.875 -1.935,3.869c-1.2,0 -2.542,-0.645 -4.042,-1.934v-0.354C14.36,46.297 15.005,44.955 16.295,43.514z" id="path_17"/><path fill="#000001" d="M31.79,48.127c-1.598,0 -2.835,-0.248 -3.72,-0.742c-0.435,3.811 -1.252,6.443 -2.46,7.912c-2.895,3.631 -5.887,5.445 -8.962,5.445c-5.655,0 -9.345,-2.461 -11.078,-7.381c-0.345,-0.938 -0.525,-1.934 -0.525,-2.992v-1.402c0,-4.162 1.29,-7.439 3.87,-9.848c0.465,0.18 0.705,0.586 0.705,1.23l-2.813,5.1l-0.18,1.756c0,3.959 2.167,6.713 6.502,8.264l4.575,0.354c1.928,0 4.335,-1.117 7.208,-3.338c1.05,-1.703 1.583,-2.932 1.583,-3.697c-0.12,-1.17 -0.885,-2.865 -2.287,-5.092v-3.699l0.525,-0.523c1.275,2.564 3.63,3.803 7.058,3.711V48.127z" id="path_18"/><path fill="#000001" d="M22.925,23.918c0.18,-0.105 0.232,0.059 0.158,0.486c-0.998,2.34 -2.528,3.975 -4.59,4.898l-7.583,3.801c-0.322,-0.088 -0.382,-0.352 -0.18,-0.793c1.012,-1.951 1.702,-3.105 2.07,-3.473L22.925,23.918z" id="path_19"/></svg>