<svg id="vector" xmlns="http://www.w3.org/2000/svg" width="75" height="67" viewBox="0 0 84 73"><path fill="#000001" d="M34.948,53.743c-0.705,2.445 -2.842,5.145 -6.42,8.084c-2.152,1.531 -4.673,2.289 -7.553,2.289c-1.612,-0.369 -2.767,-0.736 -3.465,-1.096c-0.697,-0.367 -1.529,-1.178 -2.512,-2.422c-1.763,-2.34 -2.641,-4.508 -2.641,-6.504c0,-4.746 1.522,-8.549 4.575,-11.422c0.54,-0.383 0.772,-0.322 0.697,0.172c0,0.428 -0.877,2.07 -2.632,4.92c-0.705,1.426 -1.058,2.775 -1.058,4.043c0,1.822 1.29,3.811 3.87,5.979c1.83,1.012 3.817,1.424 5.977,1.229c2.543,0 5.708,-1.754 9.488,-5.271H34.948z" id="path_0"/><path fill="#213e95" d="M21.382,8.878c1.41,2.399 2.115,4.748 2.115,7.027c-0.615,4.335 -1.38,6.502 -2.287,6.502l-0.173,-0.172v-0.173l0.345,-2.287v-0.18c0,-1.402 -0.585,-3.51 -1.755,-6.323V12.92C20.212,10.22 20.797,8.878 21.382,8.878z" id="path_1"/><path fill="#000001" d="M60.786,57.966h0.353c1.2,0.262 2.49,0.967 3.87,2.115v0.172c-0.795,2.4 -1.493,3.689 -2.107,3.869c-1.793,-0.352 -3.135,-0.938 -4.043,-1.762v-0.172C58.858,60.808 59.504,59.405 60.786,57.966z" id="path_2"/><path fill="#000001" d="M67.296,56.382h0.173c1.2,0.182 2.55,0.998 4.042,2.461v0.18l-2.107,3.689c-2.813,-0.906 -4.223,-1.672 -4.223,-2.287C66.089,57.733 66.794,56.382 67.296,56.382z" id="path_3"/><path fill="#000001" d="M59.227,49.925c4.604,0.045 7.177,-0.816 7.739,-2.594c0,-0.615 -0.585,-2.139 -1.763,-4.568l0.533,-4.566h0.345c1.53,2.631 2.288,5.271 2.288,7.904v1.582c0,1.057 -0.256,2.168 -0.758,3.33c-0.503,1.162 -1.282,2.145 -2.325,2.932c-1.05,0.797 -3.067,1.127 -6.06,0.99V49.925z" id="path_4"/><path fill="#000001" d="M72.411,26.083c0.18,-0.105 0.232,0.06 0.157,0.487c-0.997,2.34 -2.527,3.975 -4.59,4.898l-7.583,3.802c-0.322,-0.09 -0.382,-0.353 -0.18,-0.795c1.013,-1.95 1.702,-3.105 2.07,-3.473L72.411,26.083z" id="path_5"/><path fill="#DD2C00" d="M48.815,36.432c2.461,1.231 3.69,2.282 3.69,3.167c-1.17,2.309 -1.875,3.479 -2.107,3.51h-0.353c-1.808,-0.908 -2.917,-1.725 -3.345,-2.461C47.113,39.313 47.818,37.911 48.815,36.432z" id="path_6"/><path fill="#DD2C00" d="M59.759,54.95c-0.165,0.016 -0.323,0.023 -0.488,0.023h-0.877c-1.38,0 -2.317,-0.113 -2.813,-0.354c-1.027,3.945 -2.22,6.361 -3.585,7.246c-1.357,0.885 -4.44,1.635 -9.247,2.25h-0.354c-1.05,-0.121 -1.582,-0.293 -1.582,-0.525c0,-0.354 0.878,-0.766 2.64,-1.23c6.915,-3.166 10.373,-5.453 10.373,-6.855c0,-0.584 -0.825,-1.934 -2.46,-4.041c-0.353,-0.594 -0.532,-1.352 -0.532,-2.289v-1.754c0,-0.885 0.18,-1.35 0.532,-1.41c1.522,2.332 4.095,3.629 7.732,3.906c0.218,0 0.435,0 0.66,-0.014V54.95z" id="path_7"/><path fill="#DD2C00" d="M52.019,26.78c0.322,0.555 0.697,2.138 1.125,4.748c-0.263,1.583 -0.953,2.37 -2.07,2.37h-0.149c-0.488,0 -1.118,-0.314 -1.913,-0.944c-0.54,0.952 -1.335,1.433 -2.37,1.433c-1.26,0 -1.89,-1.53 -1.89,-4.59c0.367,-1.163 0.683,-1.74 0.945,-1.74l0.149,0.157v2.7c0.218,0.938 0.488,1.402 0.795,1.402h0.638c0.66,0 1.08,-0.263 1.275,-0.788l-0.33,-2.37c0.127,-0.794 0.345,-1.215 0.638,-1.252h0.33c0.329,2.632 0.862,3.952 1.574,3.952h1.103V31.7l-0.479,-3.158v-0.18C51.516,27.305 51.726,26.78 52.019,26.78z" id="path_8"/><path fill="#DD2C00" d="M54.674,17.113c0.18,-0.105 0.232,0.06 0.157,0.487c-0.997,2.34 -2.527,3.975 -4.59,4.897L42.658,26.3c-0.322,-0.09 -0.382,-0.353 -0.18,-0.795c1.013,-1.95 1.702,-3.105 2.07,-3.473L54.674,17.113z" id="path_9"/><path fill="#213e95" d="M33.231,53.968c0.015,-0.016 0.029,-0.029 0.045,-0.045l-5.805,-1.41c0,-3.398 0.532,-5.092 1.582,-5.092c0.705,0 1.53,-0.705 2.468,-2.115v-0.697c0,-0.607 -0.998,-1.777 -2.993,-3.518l-3.337,-3.166l-0.181,-0.18c-0.112,-1.522 -0.037,-3.03 0.248,-4.522c0.277,-1.493 1.133,-2.678 2.564,-3.563c8.28,-5.152 12.848,-7.732 13.71,-7.732l0.181,0.18v0.172c-1.335,2.063 -2.505,4.41 -3.518,7.028c-0.436,0.592 -0.615,0.592 -0.525,0l0.353,-2.28c-4.965,2.827 -8.662,5.167 -11.077,7.027c0.015,0.248 1.072,1.365 3.165,3.344c0.893,0.848 1.598,1.734 2.1,2.656c0.503,0.922 0.803,2.145 0.885,3.668c-0.232,1.791 -0.637,3.193 -1.229,4.223c1.027,0.127 1.905,0.396 2.641,0.801c0.734,0.406 1.14,1.365 1.229,2.889v0.525c0,0.307 -0.15,0.906 -0.458,1.807H33.231z" id="path_10"/><path fill="#213e95" d="M25.581,22.835c0.322,0.555 0.697,2.138 1.125,4.748c-0.263,1.583 -0.952,2.37 -2.07,2.37h-0.149c-0.487,0 -1.117,-0.315 -1.913,-0.945c-0.54,0.953 -1.335,1.433 -2.37,1.433c-1.26,0 -1.89,-1.53 -1.89,-4.59c0.367,-1.163 0.683,-1.74 0.945,-1.74l0.15,0.158v2.7c0.217,0.938 0.487,1.402 0.794,1.402h0.638c0.66,0 1.08,-0.263 1.275,-0.788l-0.33,-2.37c0.128,-0.795 0.345,-1.215 0.638,-1.252h0.33c0.33,2.633 0.862,3.953 1.574,3.953h1.104v-0.158l-0.48,-3.157v-0.18C25.078,23.36 25.289,22.835 25.581,22.835z" id="path_11"/></svg>