<svg id="vector" xmlns="http://www.w3.org/2000/svg" width="136" height="73" viewBox="0 0 135.523 72.959"><path fill="#000001" d="M121.828,23.121c0.352,0 0.705,1.178 1.057,3.518l1.583,3.518l-0.705,4.043l0.525,9.848v1.574c-0.232,4.021 -0.818,6.361 -1.755,7.035l-0.173,-0.172l0.173,-2.641c0,-2.369 -0.765,-9.93 -2.288,-22.672C120.98,24.473 121.505,23.121 121.828,23.121z" id="path_0"/><path fill="#000001" d="M128.592,56.496c0.18,-0.098 0.232,0.061 0.157,0.488c-0.997,2.34 -2.527,3.975 -4.589,4.898l-7.583,3.801c-0.322,-0.09 -0.382,-0.352 -0.18,-0.787c1.012,-1.949 1.702,-3.105 2.07,-3.473L128.592,56.496z" id="path_1"/><path fill="#000001" d="M110.27,26.287l1.41,4.223c0.705,0.645 1.058,1.17 1.058,1.582l-1.23,5.273l0.172,2.813c0,6.898 -2.46,11.646 -7.38,14.234c-4.005,1.289 -6.817,1.936 -8.437,1.936l-0.18,-0.174v-0.352l3.69,-1.756c1.5,-0.689 3.487,-1.807 5.978,-3.344c2.7,-2.521 4.222,-4.275 4.575,-5.273l-0.443,-7.379l-0.442,-7.389C109.512,27.758 109.925,26.287 110.27,26.287z" id="path_2"/><path fill="#000001" d="M112.752,15.299c0.323,0.557 0.698,2.139 1.125,4.748c-0.262,1.582 -0.953,2.371 -2.07,2.371h-0.15c-0.487,0 -1.117,-0.316 -1.913,-0.945c-0.54,0.951 -1.334,1.432 -2.37,1.432c-1.26,0 -1.89,-1.529 -1.89,-4.59c0.368,-1.162 0.683,-1.74 0.945,-1.74l0.15,0.158v2.699c0.217,0.938 0.487,1.402 0.795,1.402h0.637c0.66,0 1.08,-0.262 1.275,-0.787l-0.33,-2.369c0.127,-0.795 0.345,-1.215 0.637,-1.254h0.33c0.33,2.633 0.863,3.953 1.575,3.953h1.103v-0.158l-0.48,-3.156v-0.18C112.25,15.824 112.46,15.299 112.752,15.299z" id="path_3"/><path fill="#000001" d="M115.415,5.633c0.18,-0.105 0.232,0.059 0.157,0.486c-0.998,2.34 -2.527,3.975 -4.59,4.898L103.4,14.82c-0.322,-0.09 -0.382,-0.354 -0.18,-0.795c1.013,-1.951 1.703,-3.105 2.07,-3.473L115.415,5.633z" id="path_4"/><path fill="#000001" d="M92.479,25.057c1.433,0 4.365,2.229 8.783,6.684c3.405,4.102 5.1,7.965 5.1,11.602v1.402c-0.09,2.461 -0.323,3.691 -0.705,3.691l-0.353,-0.346v-2.115c0,-3.338 -2.46,-7.439 -7.38,-12.301l-0.878,-0.531c-0.322,1.178 -0.615,1.762 -0.877,1.762l-4.223,-5.271l0.18,-4.396l0.172,-0.18H92.479z" id="path_5"/><path fill="#000001" d="M84.342,23.121c0.352,0 0.705,1.178 1.057,3.518l1.583,3.518l-0.705,4.043l0.525,9.848v1.574c-0.232,4.021 -0.818,6.361 -1.755,7.035l-0.172,-0.172l0.172,-2.641c0,-2.369 -0.765,-9.93 -2.287,-22.672C83.495,24.473 84.02,23.121 84.342,23.121z" id="path_6"/><path fill="#213e95" d="M67.632,47.625c0.203,0.014 0.42,0.021 0.66,0.021h1.665c1.763,-0.291 3.105,-0.906 4.042,-1.844L71.892,29.1c0.525,-3.164 0.998,-4.74 1.403,-4.74l2.288,5.273c0,0.816 -0.292,2.047 -0.877,3.689l0.877,9.486v2.641c-0.66,2.797 -1.545,4.756 -2.655,5.865c-0.84,0.893 -1.823,1.342 -2.97,1.342h-1.493c-0.292,0 -0.57,-0.006 -0.833,-0.021V47.625z" id="path_7"/><path fill="#213e95" d="M77.202,14.092c0.322,0.555 0.697,2.139 1.125,4.748c-0.263,1.582 -0.953,2.369 -2.07,2.369h-0.15c-0.487,0 -1.117,-0.314 -1.913,-0.945c-0.54,0.953 -1.335,1.434 -2.37,1.434c-1.26,0 -1.89,-1.531 -1.89,-4.59c0.367,-1.162 0.683,-1.74 0.945,-1.74l0.15,0.158v2.699c0.218,0.938 0.488,1.402 0.795,1.402h0.638c0.66,0 1.08,-0.262 1.275,-0.787l-0.33,-2.371c0.127,-0.795 0.345,-1.215 0.637,-1.252h0.33c0.33,2.633 0.862,3.953 1.575,3.953h1.103v-0.158l-0.48,-3.156v-0.182C76.699,14.617 76.909,14.092 77.202,14.092z" id="path_8"/><path fill="#213e95" d="M79.865,4.424c0.18,-0.104 0.232,0.061 0.157,0.488c-0.998,2.34 -2.527,3.975 -4.59,4.898l-7.583,3.801c-0.322,-0.09 -0.383,-0.352 -0.18,-0.795c1.013,-1.949 1.702,-3.104 2.07,-3.473L79.865,4.424z" id="path_9"/><path fill="#000001" d="M57.425,24.705c2.467,1.23 3.697,2.287 3.697,3.164c-1.177,2.318 -1.875,3.488 -2.115,3.518h-0.352c-1.8,-0.906 -2.91,-1.725 -3.338,-2.459C55.729,27.592 56.435,26.189 57.425,24.705z" id="path_10"/><path fill="#000001" d="M69.312,52.68c-3.015,-0.203 -5.752,-1.854 -8.212,-4.943h-0.18c-1.05,6.092 -3.397,9.137 -7.027,9.143h-0.533c-1.575,-0.006 -3.105,-1.41 -4.567,-4.223c-1.17,-3.951 -1.755,-6.943 -1.755,-8.961v-1.41c0,-0.879 0.172,-1.35 0.525,-1.402c0.495,0.262 1.087,2.182 1.77,5.768c0.683,3.576 2.085,5.287 4.208,5.129c4.103,-0.676 6.27,-3.021 6.502,-7.035l-1.583,-5.445v-1.934c0.06,-2.348 0.292,-3.518 0.705,-3.518c0.232,0.525 0.413,1.057 0.525,1.582l2.46,7.732c1.936,3.135 4.328,4.619 7.163,4.439V52.68z" id="path_11"/><path fill="#000001" d="M61.58,59.377c0.18,-0.098 0.232,0.061 0.157,0.488c-0.997,2.34 -2.527,3.975 -4.59,4.896l-7.583,3.803c-0.322,-0.09 -0.382,-0.354 -0.18,-0.787c1.012,-1.951 1.702,-3.105 2.07,-3.473L61.58,59.377z" id="path_12"/><path fill="#DD2C00" d="M34.662,51.225h0.353c1.2,0.262 2.49,0.967 3.87,2.115v0.172c-0.795,2.4 -1.492,3.689 -2.107,3.871c-1.793,-0.354 -3.135,-0.938 -4.043,-1.764v-0.172C32.734,54.066 33.379,52.664 34.662,51.225z" id="path_13"/><path fill="#DD2C00" d="M41.172,49.643h0.173c1.2,0.18 2.55,0.996 4.042,2.459v0.18l-2.108,3.691c-2.813,-0.908 -4.222,-1.674 -4.222,-2.287C39.964,50.992 40.669,49.643 41.172,49.643z" id="path_14"/><path fill="#DD2C00" d="M33.102,43.184c4.605,0.047 7.178,-0.816 7.74,-2.594c0,-0.615 -0.585,-2.139 -1.762,-4.568l0.532,-4.566h0.345c1.53,2.633 2.288,5.271 2.288,7.904v1.582c0,1.059 -0.255,2.168 -0.758,3.33s-1.282,2.145 -2.325,2.934c-1.05,0.795 -3.067,1.125 -6.06,0.99V43.184z" id="path_15"/><path fill="#DD2C00" d="M39.604,18.975h1.74c2.107,0 3.165,0.787 3.165,2.369c-1.365,3.691 -3.022,5.648 -4.972,5.873l-2.303,0.309c-0.367,0 -0.518,-0.105 -0.465,-0.309c1.86,-0.982 3.6,-2.152 5.212,-3.494c-0.57,-0.533 -1.2,-0.795 -1.89,-0.795h-0.487l-1.89,0.156l-0.15,-0.156v-0.309C38.457,20.189 39.14,18.975 39.604,18.975z" id="path_16"/><path fill="#000001" d="M17.989,43.514c1.732,0.557 3.075,1.262 4.042,2.107v0.354c0,0.584 -0.645,1.875 -1.935,3.869c-1.2,0 -2.542,-0.645 -4.042,-1.934v-0.354C16.054,46.297 16.699,44.955 17.989,43.514z" id="path_17"/><path fill="#000001" d="M33.484,48.127c-1.598,0 -2.835,-0.248 -3.72,-0.742c-0.435,3.811 -1.253,6.443 -2.46,7.912c-2.895,3.631 -5.887,5.445 -8.962,5.445c-5.655,0 -9.345,-2.461 -11.077,-7.381c-0.345,-0.938 -0.525,-1.934 -0.525,-2.992v-1.402c0,-4.162 1.29,-7.439 3.87,-9.848c0.465,0.18 0.705,0.586 0.705,1.23l-2.813,5.1l-0.18,1.756c0,3.959 2.167,6.713 6.503,8.264l4.575,0.354c1.928,0 4.335,-1.117 7.208,-3.338c1.05,-1.703 1.583,-2.932 1.583,-3.697c-0.12,-1.17 -0.885,-2.865 -2.288,-5.092v-3.699l0.525,-0.523c1.275,2.564 3.63,3.803 7.057,3.711V48.127z" id="path_18"/><path fill="#000001" d="M24.62,23.918c0.18,-0.105 0.232,0.059 0.157,0.486c-0.998,2.34 -2.527,3.975 -4.59,4.898l-7.583,3.801c-0.322,-0.088 -0.382,-0.352 -0.18,-0.793c1.013,-1.951 1.703,-3.105 2.07,-3.473L24.62,23.918z" id="path_19"/></svg>