<svg id="vector" xmlns="http://www.w3.org/2000/svg" width="102" height="73" viewBox="0 0 101.904 72.959"><path fill="#213e95" d="M77.435,41.215c0.256,0.031 0.503,-0.104 0.75,-0.396c-0.465,-0.57 -0.705,-1.162 -0.705,-1.777v-1.584c0.563,-5.152 2.61,-7.732 6.158,-7.732c1.784,0 3.72,0.938 5.797,2.813c0.766,0.293 1.17,0.586 1.23,0.879v0.172c0,0.27 -0.293,0.443 -0.878,0.533c0,-0.504 -1.522,-0.908 -4.567,-1.23h-0.705c-3.285,0.494 -4.92,1.373 -4.92,2.633c0,1.732 1.695,3.021 5.093,3.869l1.229,0.174c0.442,0 2.671,-1.111 6.683,-3.338h0.173l0.353,0.352c0,2.43 -2.692,5.07 -8.085,7.912c-3.84,1.17 -6.181,1.756 -7.027,1.756c-0.195,0 -0.383,-0.008 -0.578,-0.023V41.215z" id="path_0"/><path fill="#213e95" d="M90.095,48.506c0.181,-0.098 0.232,0.059 0.157,0.486c-0.997,2.34 -2.527,3.975 -4.59,4.898l-7.582,3.803c-0.322,-0.09 -0.383,-0.354 -0.181,-0.787c1.013,-1.951 1.703,-3.105 2.07,-3.473L90.095,48.506z" id="path_1"/><path fill="#000001" d="M64.984,41.238c0.03,0 0.067,0 0.105,0c2.813,-0.174 4.425,-1.434 4.838,-3.781c-1.058,-7.027 -1.583,-11.955 -1.583,-14.768c0,-1.08 0.473,-2.488 1.41,-4.215l0.173,0.174L70.28,19L70.1,20.23c0.15,7.898 1.147,14.018 2.993,18.367c0.705,1.582 2.43,2.467 5.183,2.641v5.01c-3.78,-0.061 -6.323,-2.047 -7.644,-5.979h-0.18c-1.215,3.938 -3.037,5.934 -5.468,5.979V41.238z" id="path_2"/><path fill="#000001" d="M72.649,8.41c0.323,0.555 0.698,2.137 1.125,4.748c-0.262,1.582 -0.952,2.369 -2.069,2.369h-0.15c-0.487,0 -1.117,-0.314 -1.912,-0.945c-0.54,0.953 -1.335,1.434 -2.37,1.434c-1.261,0 -1.891,-1.531 -1.891,-4.59c0.368,-1.164 0.683,-1.74 0.945,-1.74l0.15,0.158v2.699c0.217,0.938 0.487,1.402 0.795,1.402h0.637c0.66,0 1.08,-0.262 1.275,-0.787l-0.33,-2.371c0.128,-0.795 0.345,-1.215 0.638,-1.252h0.33c0.33,2.633 0.862,3.953 1.575,3.953H72.5V13.33l-0.48,-3.158v-0.18C72.147,8.936 72.357,8.41 72.649,8.41z" id="path_3"/><path fill="#000001" d="M77.353,49.121c0.18,-0.098 0.232,0.059 0.157,0.486c-0.998,2.34 -2.527,3.975 -4.59,4.898l-7.583,3.803c-0.322,-0.09 -0.382,-0.354 -0.18,-0.789c1.013,-1.949 1.702,-3.104 2.07,-3.471L77.353,49.121z" id="path_4"/><path fill="#DD2C00" d="M52.97,49.412c0.728,0 2.018,0.879 3.862,2.633c0,0.594 -0.697,1.875 -2.107,3.871h-0.353c-0.734,0 -1.845,-0.705 -3.337,-2.107v-0.182C51.035,52.93 51.68,51.52 52.97,49.412z" id="path_5"/><path fill="#DD2C00" d="M59.293,48.535c2.932,1.26 4.395,2.25 4.395,2.984c-0.173,0.557 -0.99,1.785 -2.46,3.691c-1.965,-0.758 -3.367,-1.635 -4.215,-2.633C57.628,50.613 58.385,49.264 59.293,48.535z" id="path_6"/><path fill="#DD2C00" d="M49.865,41.238c1.252,0.016 2.024,-0.008 2.332,-0.068c2.64,-0.803 4.44,-2.512 5.407,-5.115c0.143,-0.502 0.436,-0.563 0.878,-0.18c0.232,0.203 0.412,1.027 0.525,2.461c1.598,2.152 3.592,3.119 5.977,2.902h0.466v5.01h-0.112c-3.735,-0.172 -6.488,-1.875 -8.266,-5.1h-0.173c-1.244,2.625 -2.887,4.236 -4.919,4.838c-0.615,0.172 -1.32,0.262 -2.115,0.262V41.238z" id="path_7"/><path fill="#DD2C00" d="M60.388,19.773c0.322,0.555 0.697,2.137 1.125,4.746c-0.263,1.584 -0.953,2.371 -2.07,2.371h-0.15c-0.487,0 -1.117,-0.314 -1.912,-0.945c-0.54,0.953 -1.335,1.434 -2.37,1.434c-1.26,0 -1.89,-1.531 -1.89,-4.592c0.367,-1.162 0.683,-1.738 0.945,-1.738l0.149,0.156v2.701c0.218,0.938 0.487,1.402 0.795,1.402h0.638c0.66,0 1.08,-0.264 1.274,-0.789l-0.33,-2.369c0.128,-0.795 0.346,-1.215 0.638,-1.252h0.33c0.33,2.633 0.862,3.951 1.575,3.951h1.103v-0.156l-0.48,-3.158v-0.18C59.885,20.299 60.095,19.773 60.388,19.773z" id="path_8"/><path fill="#DD2C00" d="M63.643,55.361c0.18,-0.098 0.232,0.059 0.157,0.486c-0.997,2.34 -2.527,3.975 -4.59,4.898l-7.582,3.803c-0.323,-0.092 -0.383,-0.354 -0.181,-0.789c1.013,-1.949 1.702,-3.104 2.07,-3.471L63.643,55.361z" id="path_9"/><path fill="#000001" d="M35.479,49.436h0.705c2.311,1.313 3.48,2.076 3.51,2.279c-1.14,2.461 -1.904,3.75 -2.279,3.871c-1.32,0 -2.61,-0.646 -3.87,-1.936C33.777,52.391 34.422,50.988 35.479,49.436z" id="path_10"/><path fill="#000001" d="M41.63,48.551c1.117,0 2.46,0.764 4.042,2.287c0,0.615 -0.757,1.846 -2.287,3.689c-0.878,0 -2.168,-0.584 -3.862,-1.754C39.522,51.746 40.228,50.344 41.63,48.551z" id="path_11"/><path fill="#000001" d="M35.082,35.389h0.045c2.048,0 3.69,-0.699 4.92,-2.109l-0.172,-1.402c0,-1.732 0.353,-3.135 1.05,-4.223c0.322,0 0.795,2.994 1.41,8.963c0.705,3.227 3.157,4.719 7.357,4.486v5.01c-4.103,0.293 -6.96,-1.584 -8.588,-5.625c-0.263,-2.813 -0.555,-4.215 -0.877,-4.215c-0.69,2.662 -2.408,4.064 -5.146,4.191V35.389z" id="path_12"/><path fill="#000001" d="M41.21,14.627h1.74c2.107,0 3.165,0.789 3.165,2.371c-1.365,3.689 -3.023,5.646 -4.973,5.873l-2.303,0.307c-0.367,0 -0.518,-0.105 -0.465,-0.307c1.86,-0.982 3.6,-2.154 5.213,-3.496c-0.57,-0.533 -1.2,-0.795 -1.891,-0.795H41.21l-1.89,0.158l-0.15,-0.158v-0.307C40.063,15.842 40.745,14.627 41.21,14.627z" id="path_13"/><path fill="#DD2C00" d="M20.029,35.854c1.732,0.555 3.075,1.26 4.043,2.107v0.352c0,0.586 -0.646,1.875 -1.936,3.871c-1.199,0 -2.542,-0.646 -4.042,-1.936v-0.354C18.095,38.635 18.739,37.293 20.029,35.854z" id="path_14"/><path fill="#DD2C00" d="M35.524,40.465c-1.598,0 -2.835,-0.246 -3.72,-0.742c-0.435,3.811 -1.253,6.443 -2.46,7.912c-2.896,3.631 -5.888,5.445 -8.963,5.445c-5.654,0 -9.345,-2.459 -11.077,-7.379c-0.345,-0.938 -0.525,-1.936 -0.525,-2.994v-1.402c0,-4.162 1.29,-7.439 3.87,-9.848c0.465,0.182 0.705,0.586 0.705,1.23l-2.813,5.1l-0.18,1.756c0,3.959 2.167,6.713 6.502,8.266l4.575,0.352c1.928,0 4.335,-1.117 7.208,-3.338c1.05,-1.701 1.582,-2.932 1.582,-3.697c-0.12,-1.17 -0.885,-2.865 -2.287,-5.092v-3.697l0.524,-0.525c1.275,2.564 3.631,3.803 7.058,3.713V40.465z" id="path_15"/><path fill="#DD2C00" d="M26.66,16.256c0.18,-0.105 0.232,0.059 0.157,0.486c-0.998,2.34 -2.527,3.975 -4.59,4.898l-7.583,3.803c-0.322,-0.09 -0.382,-0.354 -0.18,-0.795c1.013,-1.951 1.702,-3.105 2.07,-3.473L26.66,16.256z" id="path_16"/></svg>