<svg id="vector" xmlns="http://www.w3.org/2000/svg" width="75" height="67" viewBox="0 0 84 75"><path fill="#0083CA" d="M38.874,32.452l3.441,-3.534c-1.717,-0.867 -3.161,-1.916 -4.345,-3.153c-1.406,-1.386 -2.106,-3.185 -2.106,-5.367c0,-2.002 0.7,-4.711 2.106,-8.112c2.05,-3.176 4.768,-4.68 8.167,-4.521c4.73,0.702 8.115,2.392 10.153,5.063c-0.172,0.282 -0.424,0.424 -0.765,0.424c-0.245,0 -0.578,-0.119 -1.002,-0.343c-0.562,-0.297 -0.922,-0.479 -1.081,-0.533c-1.294,-0.442 -2.678,-0.659 -4.152,-0.659c-3.457,0 -6.679,1.047 -9.676,3.148c-0.603,0.858 -0.903,1.347 -0.903,1.457c0,0.135 0.057,0.284 0.162,0.451c1.074,1.795 2.937,3.379 5.58,4.756c1.773,0.738 3.348,1.108 4.702,1.108c1.063,0 1.994,-0.189 2.806,-0.577c1.147,-0.109 2.868,-0.748 5.178,-1.932l5.368,-2.754c0.371,0.053 0.579,0.08 0.631,0.08c-0.104,0.778 -0.406,1.698 -0.894,2.771c-0.639,1.347 -1.018,2.258 -1.135,2.754c-1.732,1.037 -4.873,2.627 -9.44,4.763c-4.06,1.886 -7.004,3.574 -8.834,5.072c-2.408,2.293 -4.239,4.511 -5.467,6.67c-0.464,1.09 -0.919,2.814 -1.383,5.178c-0.537,4.864 1.464,8.7 6.027,11.505c3.181,2.002 7.042,3.357 11.589,4.043c4.034,0.46 8.455,0.469 13.261,0.026c0.781,0 1.925,-0.127 3.435,-0.371c1.505,-0.253 2.57,-0.37 3.213,-0.37c0.387,0 0.749,0.057 1.083,0.155c0,0 0.04,0.224 0.12,0.667c-2.644,2.021 -6.156,4.152 -10.574,6.373c-3.697,0.423 -6.747,0.63 -9.168,0.63c-7.153,0 -12.511,-1.679 -16.09,-5.034c-3.563,-3.356 -5.438,-8.029 -5.609,-14.024c0,-1.956 0.18,-4.04 0.549,-6.26C34.335,39.196 36.019,36.02 38.874,32.452z" id="path_0"/><path fill="#CD4F28" d="M18.993,20.055c-0.752,0 -1.334,-0.118 -1.749,-0.35c-0.207,1.789 -0.594,3.031 -1.159,3.721c-1.363,1.705 -2.77,2.559 -4.218,2.559c-2.656,0 -4.392,-1.155 -5.206,-3.469c-0.163,-0.439 -0.248,-0.911 -0.248,-1.407v-0.659c0,-1.956 0.605,-3.498 1.817,-4.628c0.22,0.081 0.334,0.271 0.334,0.577l-1.322,2.396L7.158,19.62c0,1.862 1.021,3.155 3.058,3.889l2.151,0.166c0.907,0 2.038,-0.528 3.388,-1.57c0.496,-0.802 0.744,-1.379 0.744,-1.739c-0.053,-0.551 -0.415,-1.348 -1.078,-2.396v-1.737l0.252,-0.246c0.598,1.206 1.704,1.787 3.319,1.743V20.055L18.993,20.055zM11.704,17.884c-0.605,0.68 -0.91,1.309 -0.91,1.902v0.167c0.708,0.606 1.337,0.912 1.903,0.912c0.606,-0.939 0.912,-1.548 0.912,-1.823v-0.167C13.153,18.477 12.518,18.146 11.704,17.884L11.704,17.884zM18.782,17.668v2.387c1.285,-0.061 2.094,-0.72 2.419,-1.974c0.151,0 0.289,0.664 0.411,1.985c0.764,1.899 2.111,2.782 4.042,2.645v-2.354c-1.977,0.109 -3.132,-0.595 -3.461,-2.112c-0.289,-2.807 -0.513,-4.212 -0.664,-4.212c-0.329,0.512 -0.496,1.171 -0.496,1.984l0.081,0.658c-0.577,0.664 -1.35,0.993 -2.31,0.993H18.782L18.782,17.668zM21.865,23.856c0.521,0 1.155,0.359 1.896,1.075c0,0.292 -0.354,0.865 -1.074,1.737c-0.414,0 -1.017,-0.276 -1.813,-0.827C20.873,25.358 21.202,24.699 21.865,23.856L21.865,23.856zM18.969,24.274c-0.497,0.73 -0.797,1.39 -0.912,1.978c0.594,0.612 1.2,0.912 1.822,0.912c0.175,-0.056 0.537,-0.663 1.074,-1.818c-0.017,-0.097 -0.569,-0.455 -1.651,-1.071H18.969L18.969,24.274zM25.583,20.404c0.113,0.017 0.235,-0.043 0.35,-0.183c-0.22,-0.269 -0.334,-0.549 -0.334,-0.839v-0.744c0.269,-2.42 1.228,-3.636 2.896,-3.636c0.838,0 1.749,0.443 2.725,1.323c0.363,0.138 0.553,0.275 0.582,0.414v0.081c0,0.126 -0.138,0.207 -0.41,0.247c0,-0.234 -0.717,-0.426 -2.147,-0.576h-0.334c-1.545,0.231 -2.314,0.647 -2.314,1.236c0,0.817 0.797,1.424 2.396,1.822l0.578,0.08c0.207,0 1.252,-0.52 3.14,-1.568h0.082l0.17,0.165c0,1.143 -1.269,2.385 -3.807,3.723c-1.805,0.549 -2.904,0.825 -3.302,0.825c-0.09,0 -0.18,-0.004 -0.268,-0.012V20.404z" id="path_1"/></svg>