<svg id="vector" xmlns="http://www.w3.org/2000/svg" width="75" height="67" viewBox="0 0 84 75"><path fill="#CF7412" d="M34.375,51.882c-1.479,0.056 -2.764,0.21 -3.838,0.451c-0.242,-0.188 -0.365,-0.46 -0.365,-0.794c3.992,-1.513 9.094,-3.961 15.273,-7.332c-0.055,0.089 0.982,-0.525 3.094,-1.851c1.502,-1.156 2.539,-2.237 3.125,-3.25c0,-1.317 -0.199,-2.763 -0.586,-4.324c-0.615,-1.371 -1.408,-2.822 -2.375,-4.355l0.813,-7.76h0.451c1.551,3.538 2.49,6.088 2.809,7.649c0.738,2.978 1.053,5.613 0.947,7.924c-0.021,1.443 -0.297,3.141 -0.852,5.096c-1.191,3.729 -3.725,6.182 -7.576,7.366C43.465,51.263 39.816,51.658 34.375,51.882z" id="path_0"/><path fill="#03ab16" d="M14.416,8.365c0.162,0 0.33,0.554 0.496,1.652l0.744,1.654l-0.328,1.899l0.244,4.634v0.739c-0.111,1.892 -0.383,2.989 -0.826,3.307l-0.08,-0.081l0.08,-1.24c0,-1.114 -0.363,-4.67 -1.08,-10.66C14.018,9 14.26,8.365 14.416,8.365L14.416,8.365zM21.867,17.685c0.496,0.499 0.961,1.568 1.402,3.225l0.086,1.073c0,1.944 -0.967,3.267 -2.895,3.97l-0.578,0.082l-1.469,0.021l-1.428,-0.021l-0.082,-0.082v-0.085c0.18,-0.191 1.367,-0.77 3.557,-1.737c1.375,-0.781 2.121,-1.472 2.229,-2.062c-0.717,-1.529 -1.07,-2.412 -1.07,-2.647v-0.249C21.619,18.184 21.701,17.685 21.867,17.685z" id="path_1"/></svg>