<svg id="vector" xmlns="http://www.w3.org/2000/svg" width="75" height="67" viewBox="0 0 84 75"><path fill="#29770C" d="M21.063,57.063c1.635,0.046 3.781,-0.054 6.426,-0.324c2.994,-0.318 5.104,-0.469 6.346,-0.469c0.363,0 0.838,-0.289 1.395,-0.85c0.475,-1.127 0.947,-2.237 1.428,-3.34c0.549,-1.28 0.82,-2.472 0.82,-3.563c0.107,-2.968 0.09,-6.99 -0.057,-12.091c-0.145,-6.064 -0.215,-10.107 -0.215,-12.116c0,-1.708 0.016,-3.332 0.053,-4.866c0.48,-1.679 1.311,-4.167 2.51,-7.462l0.578,0.477c0.053,0.206 0.234,1.554 0.557,4.043c0.213,1.589 0.568,2.861 1.084,3.835l-0.213,0.072c1.143,1.416 1.721,2.473 1.721,3.178c0,0.37 -0.135,0.85 -0.395,1.427c-0.424,0.772 -0.668,1.245 -0.717,1.395l-2.037,3.178c0,3.185 0,8.322 0,15.401c0,0.059 -0.094,0.29 -0.266,0.697c-0.053,0.264 -0.025,0.495 0.082,0.711c3.352,-5.081 7.789,-7.613 13.32,-7.613c0.701,0 1.414,0.052 2.139,0.162c3.99,1.021 6.768,3.124 8.355,6.3c-0.484,8.317 -3.246,13.198 -8.273,14.672c-7.271,2.118 -13.109,3.177 -17.508,3.177c-3.354,0 -6.352,-0.55 -8.994,-1.644c-2.111,-0.526 -5.17,-1.645 -9.182,-3.328C20.02,57.901 20.379,57.551 21.063,57.063L21.063,57.063zM51.586,46.008c-0.422,-0.053 -0.881,-0.081 -1.377,-0.081c-2.746,0 -5.387,1.013 -7.924,3.034c-2.23,1.767 -4.051,4.065 -5.475,6.911c3.748,-0.111 8.859,-0.631 15.301,-1.563c0.533,-0.215 1.984,-0.622 4.369,-1.215c1.793,-0.481 3.201,-0.993 4.229,-1.562v-0.957C58.102,47.839 55.061,46.314 51.586,46.008L51.586,46.008zM49.602,31.183c1.867,1.866 3.438,3.096 4.709,3.672c0.266,0.09 0.443,0.135 0.555,0.135c0.088,0 0.15,-0.009 0.188,-0.028l3.672,-4.969c0,-0.091 -0.029,-0.156 -0.08,-0.21c-2.029,-1.163 -3.711,-2.472 -5.053,-3.916H53.41c-1.662,2.141 -2.922,3.819 -3.809,5.055V31.183z" id="path_0"/><path fill="#1EEDC4" d="M17.678,28.657c-1.602,0.098 -2.77,-0.643 -3.498,-2.222c-0.357,-0.585 -0.682,-4.529 -0.992,-11.839V14.43c0.205,-1.212 0.504,-1.818 0.902,-1.818l0.416,-0.081c0.512,0 1.285,0.168 2.316,0.491v0.168c-0.055,0.167 -0.223,0.252 -0.494,0.252H14.92c-0.289,0 -0.561,0.162 -0.83,0.493c0.262,6.344 0.635,10.021 1.131,11.024c0.496,1.006 1.318,1.452 2.457,1.344V28.657L17.678,28.657zM17.504,26.303v2.354c0.32,0 0.67,0 1.033,0h0.904c2.004,-0.07 3.832,-0.569 5.502,-1.509c0.551,-0.645 0.967,-1.581 1.238,-2.81v-0.578c0,-0.867 -0.826,-1.415 -2.48,-1.652c-1.428,0.069 -2.574,0.46 -3.428,1.179v-0.414l-0.164,-2.647v-0.163c0,-0.316 0.141,-0.731 0.412,-1.239c0,-0.456 -0.191,-0.952 -0.578,-1.488l-0.41,-1.571c-0.229,0 -0.473,0.659 -0.748,1.985l0.83,6.365c-0.512,0.784 -0.9,1.444 -1.16,1.98l-0.412,0.208C17.857,26.303 17.678,26.303 17.504,26.303L17.504,26.303zM22.998,18.159h0.334c0.953,0.569 1.553,0.981 1.813,1.24l-0.9,1.903H23.99c-0.563,-0.097 -1.195,-0.483 -1.9,-1.159C22.5,18.932 22.807,18.272 22.998,18.159L22.998,18.159zM19.113,26.348c0.785,-1.489 2.123,-2.271 4.01,-2.335h0.662c0.289,0 0.758,0.326 1.406,0.988c-1.42,0.825 -3.391,1.273 -5.912,1.347H19.113z" id="path_1"/></svg>