<svg id="vector" xmlns="http://www.w3.org/2000/svg" width="75" height="67" viewBox="0 0 84 75"><path fill="#75AC58" d="M40.117,38.793l3.151,-3.25c-1.569,-0.792 -2.896,-1.758 -3.982,-2.893c-1.288,-1.272 -1.939,-2.919 -1.939,-4.926c0,-1.837 0.651,-4.323 1.939,-7.446c1.88,-2.912 4.373,-4.293 7.497,-4.149c4.336,0.647 7.442,2.197 9.313,4.65c-0.153,0.256 -0.387,0.387 -0.704,0.387c-0.223,0 -0.528,-0.106 -0.914,-0.314c-0.517,-0.273 -0.847,-0.438 -0.996,-0.486c-1.184,-0.408 -2.453,-0.608 -3.812,-0.608c-3.173,0 -6.126,0.961 -8.875,2.892c-0.558,0.786 -0.83,1.234 -0.83,1.335c0,0.126 0.049,0.265 0.151,0.417c0.984,1.646 2.688,3.103 5.112,4.363c1.635,0.679 3.075,1.015 4.319,1.015c0.977,0 1.83,-0.168 2.575,-0.528c1.053,-0.101 2.63,-0.687 4.755,-1.771l4.925,-2.527c0.338,0.05 0.532,0.073 0.581,0.073c-0.098,0.712 -0.374,1.559 -0.821,2.543c-0.586,1.236 -0.936,2.069 -1.041,2.529c-1.591,0.95 -4.475,2.408 -8.664,4.372c-3.726,1.729 -6.426,3.278 -8.109,4.654c-2.209,2.103 -3.888,4.139 -5.02,6.12c-0.423,1.001 -0.846,2.582 -1.265,4.755c-0.5,4.462 1.343,7.979 5.531,10.559c2.917,1.839 6.463,3.079 10.636,3.71c3.701,0.422 7.761,0.431 12.174,0.024c0.712,0 1.762,-0.119 3.145,-0.343c1.382,-0.227 2.362,-0.337 2.952,-0.337c0.354,0 0.683,0.049 0.993,0.139c0,0 0.04,0.207 0.113,0.614c-2.425,1.855 -5.653,3.81 -9.704,5.849c-3.396,0.387 -6.199,0.577 -8.415,0.577c-6.569,0 -11.486,-1.542 -14.769,-4.621c-3.271,-3.077 -4.995,-7.369 -5.149,-12.868c0,-1.797 0.163,-3.708 0.504,-5.747C35.948,44.975 37.489,42.063 40.117,38.793L40.117,38.793zM42.558,9.158V8.919c0.81,-1.135 1.973,-2.676 3.492,-4.637h0.172c1.229,1.326 2.773,2.526 4.636,3.591c0.05,0.054 0.074,0.11 0.074,0.192l-3.372,4.562c-0.032,0.018 -0.09,0.025 -0.175,0.025c-0.097,0 -0.264,-0.041 -0.504,-0.122C45.714,11.997 44.27,10.876 42.558,9.158z" id="path_0"/><path fill="#051506" d="M19.068,21.642c-0.667,0 -1.18,-0.105 -1.545,-0.311c-0.184,1.588 -0.521,2.682 -1.025,3.291c-1.204,1.514 -2.448,2.267 -3.733,2.267c-2.352,0 -3.885,-1.022 -4.604,-3.072c-0.146,-0.391 -0.22,-0.805 -0.22,-1.244V21.99c0,-1.732 0.537,-3.099 1.611,-4.099c0.195,0.077 0.292,0.243 0.292,0.512l-1.171,2.124L8.6,21.255c0,1.646 0.902,2.793 2.7,3.44l1.907,0.146c0.802,0 1.803,-0.463 2.998,-1.391c0.439,-0.708 0.659,-1.217 0.659,-1.537c-0.049,-0.485 -0.366,-1.192 -0.951,-2.119v-1.538l0.22,-0.219c0.527,1.069 1.508,1.582 2.936,1.546V21.642L19.068,21.642zM12.618,19.722c-0.537,0.598 -0.802,1.155 -0.802,1.684v0.143c0.622,0.537 1.185,0.806 1.68,0.806c0.538,-0.83 0.806,-1.368 0.806,-1.606v-0.148C13.903,20.246 13.343,19.948 12.618,19.722L12.618,19.722zM18.885,19.526v2.115c1.14,-0.058 1.852,-0.639 2.141,-1.745c0.134,0 0.256,0.582 0.365,1.753c0.68,1.684 1.867,2.46 3.576,2.339v-2.082c-1.75,0.097 -2.771,-0.525 -3.063,-1.868c-0.257,-2.484 -0.451,-3.729 -0.59,-3.729c-0.288,0.451 -0.436,1.036 -0.436,1.756l0.074,0.585c-0.513,0.587 -1.196,0.876 -2.046,0.876H18.885L18.885,19.526zM21.61,25.005c0.465,0 1.021,0.317 1.681,0.952c0,0.256 -0.317,0.765 -0.952,1.534c-0.366,0 -0.902,-0.245 -1.606,-0.729C20.732,26.336 21.025,25.748 21.61,25.005L21.61,25.005zM19.053,25.37c-0.443,0.647 -0.708,1.233 -0.806,1.754c0.521,0.541 1.057,0.807 1.61,0.807c0.154,-0.05 0.473,-0.588 0.948,-1.612c-0.013,-0.081 -0.501,-0.402 -1.46,-0.948H19.053L19.053,25.37zM24.901,21.95c0.105,0.012 0.207,-0.044 0.309,-0.162c-0.195,-0.24 -0.292,-0.485 -0.292,-0.741v-0.658c0.235,-2.145 1.085,-3.218 2.562,-3.218c0.74,0 1.546,0.391 2.411,1.172c0.322,0.117 0.489,0.239 0.514,0.362v0.072c0,0.114 -0.123,0.184 -0.362,0.219c0,-0.206 -0.634,-0.373 -1.903,-0.507h-0.293c-1.366,0.204 -2.05,0.568 -2.05,1.095c0,0.72 0.707,1.256 2.124,1.61l0.512,0.072c0.179,0 1.106,-0.463 2.777,-1.391h0.069l0.147,0.146c0,1.014 -1.119,2.111 -3.36,3.291c-1.603,0.488 -2.575,0.731 -2.929,0.731c-0.081,0 -0.154,-0.004 -0.235,-0.008V21.95L24.901,21.95zM26.528,13.267c0.646,0.342 1.158,0.684 1.537,1.025c-0.114,0.524 -0.452,1.085 -1.025,1.68h-0.073c-0.671,-0.281 -1.134,-0.595 -1.39,-0.952v-0.147C26.016,13.804 26.333,13.267 26.528,13.267z" id="path_1"/></svg>