<svg id="vector" xmlns="http://www.w3.org/2000/svg" width="75" height="67" viewBox="0 0 84 75"><path fill="#3333CD" d="M17.879,33.123c0.423,-0.28 0.641,-0.224 0.641,0.162c-0.478,1.037 -1.174,2.616 -2.093,4.727c-1.409,3.612 -2.112,6.662 -2.112,9.152c0,3.041 1.001,5.478 3.015,7.292c3.573,3.311 7.743,4.971 12.506,4.971c1.904,0 3.791,-0.289 5.658,-0.875c5.16,-1.688 8.931,-4.06 11.313,-7.13c0.705,-0.98 1.059,-2.091 1.059,-3.327c0,-1.428 -0.688,-3.592 -2.066,-6.5c-1.184,-0.983 -1.77,-2.533 -1.77,-4.645c0,-0.479 0.028,-1.192 0.082,-2.146c0.053,-0.949 0.081,-1.645 0.081,-2.079c0,-0.423 0.109,-1.054 0.341,-1.884c0.266,-0.056 0.415,0.045 0.469,0.306c0.057,0.253 0.11,0.406 0.162,0.46c1.204,1.903 3.178,3.151 5.946,3.725c3.474,0.212 6.068,-0.874 7.769,-3.245c0.517,-2.013 1.066,-3.592 1.644,-4.738c0.65,0.11 0.977,0.468 0.977,1.082c-0.045,1.029 -0.074,1.509 -0.074,1.464c0.688,2.592 1.933,4.16 3.726,4.727c1.851,0.524 3.352,0.353 4.5,-0.533c0.104,-0.203 0.04,-0.431 -0.196,-0.667c-0.224,-0.244 -0.313,-0.414 -0.261,-0.521l0.342,-7.032c0.391,-0.244 0.635,-0.342 0.741,-0.289c1.13,1.074 1.789,2.62 1.984,4.629c0.02,5.906 -0.854,9.757 -2.61,11.551c-1.331,0.479 -2.515,0.716 -3.548,0.716c-1.338,0 -2.555,-0.398 -3.648,-1.191c-1.444,-1.095 -2.298,-2.799 -2.562,-5.125c-0.518,0.468 -0.956,1.15 -1.327,2.03c-0.524,1.073 -0.902,1.769 -1.135,2.09c-1.834,1.904 -3.908,2.852 -6.238,2.852c-0.603,0 -1.188,-0.09 -1.766,-0.261c-0.057,0.541 -0.154,2.444 -0.301,5.711c-0.045,2.428 -0.423,4.286 -1.106,5.58c-1.854,4.327 -4.596,7.541 -8.248,9.615c-3.645,2.086 -7.427,3.123 -11.344,3.123c-5.831,0 -10.296,-2.2 -13.399,-6.597c-2.213,-3.177 -3.313,-6.874 -3.313,-11.108c0,-2.696 0.677,-5.856 2.021,-9.493c0.54,-1.126 1.136,-2.325 1.795,-3.615C16.183,34.804 16.969,33.811 17.879,33.123L17.879,33.123zM53.559,13.404v-0.26c0.884,-1.236 2.156,-2.912 3.808,-5.043h0.188c1.317,1.443 3.006,2.732 5.043,3.88c0.04,0.053 0.057,0.134 0.057,0.245l-3.673,4.961c-0.036,0.017 -0.094,0.028 -0.163,0.028c-0.117,0 -0.304,-0.044 -0.548,-0.126C56.996,16.501 55.426,15.276 53.559,13.404L53.559,13.404zM49.939,21.023c1.866,1.866 3.428,3.095 4.686,3.673c0.261,0.089 0.447,0.134 0.577,0.134c0.09,0 0.143,-0.016 0.163,-0.054l3.246,-4.358v0.027c1.866,1.888 3.428,3.111 4.673,3.701c0.272,0.09 0.46,0.127 0.59,0.127c0.089,0 0.142,-0.013 0.163,-0.049l3.696,-4.942c0,-0.127 -0.028,-0.207 -0.081,-0.243c-2.029,-1.164 -3.71,-2.454 -5.056,-3.881h-0.18c-1.423,1.813 -2.562,3.312 -3.408,4.494c-0.756,-0.569 -1.508,-1.118 -2.249,-1.672c-1.55,-1.143 -2.488,-1.903 -2.83,-2.273h-0.184c-1.659,2.14 -2.921,3.819 -3.807,5.051V21.023z" id="path_0"/><path fill="#1FC31F" d="M17.576,21.39c-0.753,0 -1.334,-0.119 -1.749,-0.35c-0.205,1.793 -0.59,3.029 -1.157,3.721c-1.36,1.708 -2.769,2.563 -4.215,2.563c-2.661,0 -4.394,-1.159 -5.209,-3.473c-0.163,-0.44 -0.247,-0.908 -0.247,-1.408v-0.659c0,-1.956 0.607,-3.498 1.819,-4.628c0.219,0.085 0.333,0.273 0.333,0.577l-1.323,2.396l-0.084,0.825c0,1.863 1.019,3.161 3.057,3.889l2.151,0.167c0.907,0 2.04,-0.524 3.389,-1.569c0.493,-0.802 0.743,-1.38 0.743,-1.736c-0.056,-0.555 -0.414,-1.351 -1.074,-2.396v-1.741l0.247,-0.248c0.601,1.208 1.707,1.79 3.319,1.749V21.39L17.576,21.39zM10.289,19.221c-0.605,0.676 -0.911,1.31 -0.911,1.9v0.166c0.706,0.606 1.338,0.911 1.902,0.911c0.607,-0.938 0.911,-1.545 0.911,-1.822V20.21C11.736,19.812 11.104,19.481 10.289,19.221L10.289,19.221zM17.368,19.002v2.388c1.285,-0.062 2.093,-0.72 2.419,-1.973c0.151,0 0.288,0.663 0.412,1.984c0.765,1.899 2.109,2.782 4.039,2.644V21.69c-1.977,0.109 -3.128,-0.595 -3.46,-2.111c-0.29,-2.807 -0.513,-4.214 -0.664,-4.214c-0.327,0.513 -0.493,1.172 -0.493,1.985l0.082,0.659c-0.579,0.666 -1.353,0.992 -2.314,0.992H17.368L17.368,19.002zM20.445,25.192c0.526,0 1.157,0.357 1.901,1.077c0,0.289 -0.355,0.866 -1.075,1.733c-0.413,0 -1.02,-0.277 -1.816,-0.826C19.455,26.692 19.787,26.034 20.445,25.192L20.445,25.192zM17.554,25.606c-0.497,0.732 -0.8,1.392 -0.909,1.985c0.592,0.606 1.198,0.907 1.82,0.907c0.175,-0.057 0.535,-0.663 1.072,-1.818c-0.015,-0.098 -0.566,-0.455 -1.652,-1.074H17.554L17.554,25.606zM24.165,21.751h0.03c1.281,-0.053 2.162,-0.672 2.646,-1.858c0,-0.163 0.11,-0.302 0.332,-0.415h0.165c0.109,0 0.167,0.085 0.167,0.252l-0.086,0.493c0.47,0.829 0.968,1.239 1.489,1.239h0.412c0.716,0 1.271,-0.716 1.653,-2.147h0.085c0.082,0.013 0.218,0.342 0.413,0.992c0.47,0.411 0.934,0.659 1.403,0.745c0.549,0 0.828,-0.334 0.828,-0.992c0.053,-1.046 0.162,-1.574 0.329,-1.574c0.222,0.472 0.331,1.049 0.331,1.737c0,2.041 -0.498,3.062 -1.488,3.062c-0.772,0 -1.403,-0.391 -1.901,-1.163H30.81c-0.345,1.106 -0.896,1.655 -1.654,1.655h-0.083c-0.673,0 -1.445,-0.521 -2.313,-1.569c-0.729,1.269 -1.56,1.903 -2.479,1.903h-0.115V21.751L24.165,21.751zM29.487,12.714c0.538,0 1.143,0.463 1.817,1.403c-0.178,0.427 -0.538,0.923 -1.075,1.488h-0.165c-0.479,-0.11 -1.007,-0.411 -1.569,-0.911V14.45C28.538,14.007 28.864,13.43 29.487,12.714L29.487,12.714zM31.637,15.276c-0.346,0.341 -0.678,0.838 -0.995,1.484l-1.98,-1.074c-0.331,0 -0.717,0.606 -1.156,1.818c0,0.293 0.605,0.704 1.815,1.24h0.086c0.179,-0.069 0.534,-0.565 1.071,-1.484h0.086l1.898,1.07c0.18,0 0.537,-0.578 1.076,-1.733v-0.166C32.737,15.658 32.103,15.276 31.637,15.276z" id="path_1"/></svg>