<svg id="vector" xmlns="http://www.w3.org/2000/svg" width="75" height="67" viewBox="0 0 84 75"><path fill="#051CE9" d="M61.251,20.927c-0.168,0.424 -0.444,0.857 -0.851,1.299c-0.261,0.08 -0.46,0.027 -0.586,-0.189c-0.045,-0.109 -0.065,-0.324 -0.037,-0.658c0.028,-0.332 0.008,-0.561 -0.037,-0.66c0,-0.16 0.037,-0.398 0.099,-0.723c-0.52,-0.281 -1.082,-0.406 -1.661,-0.387c-0.547,0.045 -1.658,0.467 -3.325,1.266c-3.514,2.432 -6.027,4.709 -7.566,6.82c-1.617,2.326 -2.269,4.375 -1.956,6.162c1.053,1.281 2.99,1.867 5.796,1.74c3.149,-0.09 5.238,0.207 6.261,0.904c0.354,0.369 0.577,1.154 0.687,2.346c0.386,2.77 0.216,5.16 -0.526,7.174c-0.547,2.201 -1.873,4.854 -3.968,7.961c-2.553,2.85 -5.015,4.979 -7.373,6.398c-2.646,1.549 -5.289,2.398 -7.933,2.559c-1.96,0.145 -3.941,-0.127 -5.945,-0.793c-3.356,-1.135 -6,-3.051 -7.956,-5.756c-1.521,-2.066 -2.384,-4.895 -2.595,-8.492c-0.335,-5.252 0.781,-10.197 3.335,-14.855c0.846,-1.252 1.318,-1.939 1.423,-2.066c0.578,-0.613 1.209,-1 1.881,-1.162c0.047,0.793 -0.205,1.652 -0.741,2.57c-0.553,0.912 -1.066,1.77 -1.562,2.563c-1.569,3.385 -2.116,6.93 -1.644,10.66c0.956,2.643 2.506,4.844 4.673,6.613c2.161,1.777 4.584,2.77 7.285,2.977c0.964,0.164 1.993,0.199 3.081,0.111c2.441,-0.131 4.932,-0.805 7.478,-2.043c2.537,-1.229 4.637,-2.658 6.275,-4.273c0.725,-0.777 1.77,-1.941 3.152,-3.494c0.113,-0.262 0.113,-0.605 0,-1.008c-0.147,-0.338 -0.406,-0.518 -0.798,-0.555c-2.154,-0.061 -4.312,-0.133 -6.476,-0.215c-2.492,-0.316 -4.131,-1.453 -4.945,-3.412c-0.369,-0.758 -0.576,-1.689 -0.635,-2.779c-0.053,-0.865 -0.024,-1.977 0.075,-3.33c0.219,-1.766 0.332,-2.857 0.348,-3.283c0.724,-3.682 2.287,-7.203 4.702,-10.559c2.42,-3.354 5.309,-5.99 8.672,-7.895c0.741,-0.117 1.489,-0.26 2.249,-0.416c0.852,-0.107 1.533,0.156 2.067,0.795c0.354,0.541 0.548,1.146 0.604,1.822c0.017,0.629 -0.163,1.643 -0.544,3.021C61.356,19.067 61.197,20.151 61.251,20.927z" id="path_0"/><path fill="#113BD8" d="M19.133,26.466c-1.603,0.098 -2.77,-0.646 -3.498,-2.221c-0.353,-0.586 -0.683,-4.531 -0.991,-11.84v-0.166c0.203,-1.213 0.504,-1.818 0.906,-1.818l0.416,-0.082c0.509,0 1.281,0.162 2.313,0.492v0.168c-0.058,0.166 -0.22,0.252 -0.496,0.252h-1.408c-0.282,0 -0.561,0.158 -0.825,0.492c0.257,6.344 0.632,10.021 1.127,11.025c0.496,1.006 1.317,1.453 2.456,1.342V26.466L19.133,26.466zM18.959,24.11v2.355c1.406,0.066 2.354,-0.09 2.852,-0.463c0.487,-0.371 0.853,-0.834 1.09,-1.379c0.234,-0.549 0.357,-1.068 0.357,-1.566v-0.744c0,-1.24 -0.357,-2.48 -1.073,-3.717h-0.164l-0.251,2.146c0.553,1.143 0.83,1.859 0.83,2.148C22.335,23.724 21.126,24.132 18.959,24.11L18.959,24.11zM22.752,27.149h0.084c0.563,0.08 1.197,0.467 1.901,1.154v0.086l-0.991,1.734c-1.327,-0.43 -1.985,-0.785 -1.985,-1.076C22.185,27.784 22.518,27.149 22.752,27.149L22.752,27.149zM19.695,27.894h0.162c0.564,0.121 1.172,0.451 1.823,0.992v0.082c-0.374,1.125 -0.704,1.736 -0.994,1.816c-0.841,-0.16 -1.472,-0.439 -1.903,-0.824v-0.082C18.783,29.228 19.089,28.569 19.695,27.894z" id="path_1"/></svg>