<svg id="vector" xmlns="http://www.w3.org/2000/svg" width="75" height="67" viewBox="0 0 84 75"><path fill="#DD1346" d="M18.794,28.657c-1.604,0.098 -2.772,-0.643 -3.503,-2.222c-0.354,-0.585 -0.682,-4.529 -0.992,-11.839V14.43c0.205,-1.212 0.508,-1.818 0.907,-1.818l0.415,-0.081c0.511,0 1.281,0.168 2.314,0.491v0.168c-0.058,0.167 -0.222,0.252 -0.497,0.252h-1.402c-0.291,0 -0.566,0.162 -0.83,0.493c0.258,6.344 0.633,10.021 1.129,11.024c0.493,1.006 1.315,1.452 2.459,1.344V28.657L18.794,28.657zM18.71,26.303v2.354c2.277,0 3.675,-0.159 4.183,-0.484c1.437,-0.646 2.165,-1.98 2.181,-4.007V24l-0.081,-0.83c-0.653,-2.044 -1.619,-3.034 -2.892,-2.974h-0.414c-0.743,0 -1.185,0.938 -1.323,2.807v0.087c0.055,0.992 0.8,1.569 2.23,1.735h0.084c0.484,0 0.925,-0.108 1.324,-0.333c0.164,0 0.303,0.13 0.412,0.398l-0.167,0.325c-0.846,0.68 -2.552,1.036 -5.124,1.087H18.71L18.71,26.303zM21.388,15.932c0.717,0 1.375,0.439 1.983,1.321c-0.511,1.159 -0.897,1.735 -1.157,1.735c-1.115,-0.547 -1.723,-0.911 -1.822,-1.075C20.392,17.39 20.724,16.728 21.388,15.932z" id="path_0"/><path fill="#2020E3" d="M65.297,54.106c-0.424,0.332 -0.973,0.659 -1.644,0.976c-3.498,1.749 -7.045,2.984 -10.616,3.726c-4.921,1.039 -10.009,1.563 -15.26,1.563c-6.066,0 -10.945,-1.011 -14.646,-3.021c-4.747,-2.547 -7.173,-6.589 -7.283,-12.122c0,-1.756 0.381,-3.688 1.147,-5.774c0.756,-2.091 1.795,-3.624 3.095,-4.609c0.263,-0.215 0.452,-0.244 0.559,-0.08c0.153,0.153 0.182,0.287 0.072,0.395c-1.153,2.058 -1.868,4.1 -2.111,6.1c-0.226,3.746 2.726,7.021 8.852,9.835c4.025,1.095 8.383,1.644 13.094,1.644c6.202,0 12.685,-0.875 19.453,-2.615c1.042,-0.26 3.16,-1.09 6.345,-2.501c-0.26,-0.757 -0.886,-1.815 -1.847,-3.169c-1.96,1.509 -3.749,2.266 -5.373,2.266c-0.646,0 -1.289,-0.106 -1.932,-0.313c-1.479,-0.317 -2.822,-1.021 -4.042,-2.094c-1.217,-1.082 -1.957,-2.336 -2.222,-3.763c0.163,-2.222 0.399,-4.006 0.717,-5.359c0.976,-3.979 2.725,-6.533 5.263,-7.68c0.456,-0.11 0.952,-0.164 1.476,-0.164c3.03,0 5.309,1.453 6.821,4.359c0.554,1.092 1.058,2.119 1.537,3.097c0.937,2.534 1.399,5.242 1.399,8.139c0,3.237 -0.598,6.183 -1.798,8.813L65.297,54.106L65.297,54.106zM61.407,38.821c0.705,-0.154 1.001,-0.422 0.896,-0.793c-1.48,-1.852 -3.563,-2.673 -6.264,-2.452c-0.813,0.512 -1.188,1 -1.139,1.477C56.698,38.533 58.862,39.118 61.407,38.821L61.407,38.821zM53.745,20.018v-0.265c0.887,-1.235 2.147,-2.911 3.812,-5.05h0.178c1.347,1.442 3.023,2.751 5.057,3.916c0.053,0.052 0.081,0.113 0.081,0.208l-3.673,4.969c-0.036,0.021 -0.102,0.028 -0.191,0.028c-0.104,0 -0.288,-0.044 -0.549,-0.133C57.186,23.111 55.616,21.885 53.745,20.018z" id="path_1"/></svg>