<svg id="vector" xmlns="http://www.w3.org/2000/svg" width="75" height="67" viewBox="0 0 84 75"><path fill="#EA0D0D" d="M65.919,47.294c-2.843,1.814 -6.517,3.281 -11.027,4.409c-6.878,1.554 -12.706,2.314 -17.484,2.286c-4.783,-0.029 -8.501,-0.489 -11.143,-1.393c-2.645,-0.894 -4.964,-2.451 -6.953,-4.673c-1.712,-1.96 -2.717,-4.233 -3.015,-6.82c-0.386,-3.646 0.497,-7.582 2.673,-11.795c0.225,-0.207 0.452,-0.459 0.684,-0.749c0.229,-0.288 0.487,-0.414 0.77,-0.359l-0.029,0.638c-1.199,2.573 -1.847,4.865 -1.956,6.868c-0.053,0.703 -0.053,1.192 0,1.452c0.74,3.384 3.302,5.768 7.695,7.146c2.465,0.838 5.047,1.362 7.744,1.554c0.424,0.017 1.081,0.069 1.985,0.161c5.515,0.018 12.201,-0.63 20.06,-1.959c4.546,-0.847 7.784,-1.993 9.708,-3.438c-0.126,-0.577 -0.557,-1.236 -1.297,-1.966c-0.741,-0.73 -1.192,-1.39 -1.347,-1.967c-0.109,-2.329 0.028,-4.712 0.399,-7.138l0.313,-0.028c2.447,2.762 3.812,5.704 4.071,8.799C68.086,41.94 67.472,44.927 65.919,47.294L65.919,47.294zM37.559,63.039v-0.262c0.886,-1.236 2.146,-2.915 3.806,-5.056h0.184c1.342,1.444 3.022,2.755 5.05,3.918c0.058,0.053 0.083,0.117 0.083,0.207l-3.674,4.974c-0.036,0.018 -0.098,0.025 -0.187,0.025c-0.108,0 -0.289,-0.045 -0.553,-0.135C40.998,66.134 39.429,64.905 37.559,63.039z" id="path_0"/><path fill="#DD1717" d="M20.129,23.15c-1.606,0.096 -2.773,-0.646 -3.501,-2.223c-0.354,-0.585 -0.684,-4.533 -0.994,-11.84V8.923c0.204,-1.214 0.511,-1.819 0.907,-1.819l0.415,-0.082c0.51,0 1.281,0.165 2.315,0.495v0.164c-0.057,0.167 -0.221,0.25 -0.496,0.25h-1.404c-0.288,0 -0.564,0.163 -0.83,0.495c0.257,6.344 0.632,10.019 1.132,11.023c0.492,1.007 1.313,1.454 2.456,1.344V23.15L20.129,23.15zM19.95,20.793v2.357c1.407,0.063 2.355,-0.094 2.852,-0.465c0.487,-0.37 0.854,-0.833 1.095,-1.379c0.234,-0.547 0.353,-1.07 0.353,-1.566v-0.744c0,-1.238 -0.353,-2.479 -1.072,-3.72h-0.164l-0.252,2.149c0.558,1.143 0.83,1.858 0.83,2.147C23.325,20.409 22.117,20.813 19.95,20.793L19.95,20.793zM21.936,24.419c0.284,0 0.943,0.332 1.985,0.995c0,0.413 -0.33,1.071 -0.993,1.982c-1.322,-0.427 -1.98,-0.811 -1.98,-1.157C20.979,25.929 21.31,25.322 21.936,24.419z" id="path_1"/></svg>