<svg id="vector" xmlns="http://www.w3.org/2000/svg" width="75" height="67" viewBox="0 0 84 75"><path fill="#19F124" d="M37.821,34.457l-4.674,-3.241c-0.297,-2.2 -0.215,-5.182 0.266,-8.987l1.023,0.369c2.197,1.452 5.569,3.499 10.121,6.135c3.18,-2.751 6.157,-5.012 8.928,-6.769c0.96,-0.339 1.383,-0.184 1.261,0.446c-0.48,1.403 -1.709,2.835 -3.685,4.316c-2.177,1.699 -3.588,2.985 -4.223,3.868c3.989,2.871 6.239,6.233 6.739,10.09c0.184,5.336 -0.541,9.253 -2.159,11.78c-1.818,2.977 -5.027,4.61 -9.64,4.908c-3.367,0.215 -5.993,-0.886 -7.915,-3.323c-1.299,-1.716 -1.944,-3.742 -1.944,-6.085c0,-2.331 0.646,-4.885 1.944,-7.638c0.317,-0.92 0.899,-1.965 1.739,-3.147C36.362,36.28 37.103,35.376 37.821,34.457L37.821,34.457zM39.652,36.26c-1.761,2.33 -3.019,4.149 -3.785,5.451c-0.421,0.714 -0.622,1.418 -0.622,2.094c0,1.595 0.856,2.823 2.576,3.681c1.339,0.663 2.9,0.992 4.703,0.992c1.776,0 3.334,-0.296 4.672,-0.9c1.799,-0.796 2.998,-1.646 3.588,-2.544c-0.906,-1.68 -2.473,-3.315 -4.669,-4.909c-1.854,-1.278 -3.693,-2.566 -5.512,-3.864H39.652z" id="path_0"/><path fill="#5A33E3" d="M18.106,28.621c-1.605,0.099 -2.772,-0.643 -3.502,-2.221c-0.354,-0.585 -0.682,-4.531 -0.993,-11.839v-0.167c0.206,-1.212 0.509,-1.818 0.907,-1.818l0.417,-0.081c0.508,0 1.279,0.167 2.313,0.492v0.167c-0.055,0.167 -0.222,0.252 -0.497,0.252h-1.402c-0.289,0 -0.565,0.162 -0.83,0.492c0.258,6.345 0.633,10.021 1.129,11.027c0.494,1.003 1.316,1.45 2.459,1.341V28.621L18.106,28.621zM17.93,26.267v2.354c0.985,0.029 1.913,-0.143 2.79,-0.516l3.139,0.166l0.826,-0.08c0.721,-0.233 1.078,-1.173 1.078,-2.812c0,-1.57 -0.936,-2.811 -2.811,-3.722c-0.911,-0.492 -1.544,-1.131 -1.901,-1.898c-0.139,-0.249 -0.276,-0.221 -0.413,0.08c-0.992,2.332 -1.49,4.313 -1.49,5.95C19.147,26.006 18.742,26.165 17.93,26.267L17.93,26.267zM19.894,24.803c0.122,-1.159 0.482,-1.737 1.075,-1.737c0.578,0 0.99,0.492 1.236,1.489c0,0.427 -0.355,0.838 -1.071,1.235C20.305,25.651 19.894,25.324 19.894,24.803L19.894,24.803zM22.622,25.876c0.123,-1.103 0.261,-1.654 0.414,-1.654c0.809,0.397 1.474,0.946 1.979,1.654l-0.331,0.082L22.622,25.876z" id="path_1"/></svg>