<svg id="vector" xmlns="http://www.w3.org/2000/svg" width="75" height="67" viewBox="0 0 84 75"><path fill="#E41515" d="M28.585,38.327c0.162,0 0.392,-0.143 0.688,-0.432c0.31,-0.297 0.587,-0.407 0.847,-0.333c0.093,0.613 -0.151,1.325 -0.713,2.139c-0.794,1.163 -1.244,1.867 -1.341,2.119c-1.696,2.708 -2.502,5.385 -2.413,8.032c0.126,3.156 1.599,5.979 4.413,8.474c2.827,2.489 5.85,3.822 9.078,4.007c0.814,0 1.615,0 2.408,0c3.961,-0.148 7.932,-1.192 11.905,-3.141c0.839,-0.66 1.712,-1.303 2.615,-1.932c1.001,-0.814 1.606,-1.697 1.798,-2.646c-0.245,-5.34 -0.904,-12.209 -1.961,-20.607c-1.335,-11.454 -2.156,-18.563 -2.452,-21.326c0.134,-1.829 0.532,-4.464 1.188,-7.902h0.234c0.407,1.571 1.146,3.873 2.222,6.896c0.198,0.62 0.857,1.821 1.977,3.615c0.983,1.48 1.496,2.701 1.555,3.656c0.016,0.704 -0.165,1.428 -0.547,2.164c0,0.524 -0.17,1.131 -0.504,1.799c-0.557,0.998 -0.865,1.584 -0.919,1.739c0.134,2.274 0.479,6.748 1,13.427c0.423,5.181 0.696,9.224 0.805,12.128c0.069,3.865 -1.073,7.5 -3.42,10.922c-2.355,3.407 -5.336,5.836 -8.952,7.26c-0.786,0.508 -2.932,1.109 -6.418,1.797c-6.43,0.386 -11.664,-2.095 -15.699,-7.45c-1.606,-2.791 -2.473,-5.967 -2.6,-9.551c-0.162,-5.125 1.087,-9.448 3.73,-12.951L28.585,38.327z" id="path_0"/><path fill="#DC1F1F" d="M17.275,19.45c1.255,0.135 1.919,0.797 1.972,1.989v0.387c-0.306,2.423 -0.825,3.636 -1.57,3.636h-0.081c-0.386,0 -1.38,-0.276 -2.979,-0.826c-0.698,1.628 -1.61,2.62 -2.728,2.975c-1.57,0.497 -2.535,0.743 -2.893,0.743H8.664c-0.122,-0.052 -0.176,-0.138 -0.164,-0.246c0.042,-0.122 0.757,-0.563 2.148,-1.322c2.481,-1.53 3.722,-2.828 3.722,-3.89c0.388,-1.473 0.936,-2.464 1.651,-2.969C16.396,19.643 16.812,19.482 17.275,19.45L17.275,19.45zM15.611,22.404c-0.017,0.036 -0.017,0.062 0,0.081l2.311,0.662c0.114,0.03 0.194,0 0.251,-0.085c0,-0.643 -0.524,-1.062 -1.574,-1.236h-0.08C16.188,21.826 15.883,22.017 15.611,22.404L15.611,22.404zM21.491,12.773c0.676,0 2.054,1.049 4.133,3.143c1.599,1.929 2.396,3.747 2.396,5.454v0.659c-0.041,1.159 -0.149,1.737 -0.329,1.737l-0.166,-0.163v-0.997c0,-1.565 -1.159,-3.498 -3.475,-5.783l-0.41,-0.248c-0.149,0.553 -0.29,0.829 -0.411,0.829l-1.989,-2.48l0.087,-2.065l0.08,-0.085H21.491L21.491,12.773zM29.712,13.351c-0.158,0 -0.354,0.692 -0.578,2.065l0.208,3.478l0.212,3.469c-0.168,0.468 -0.883,1.294 -2.156,2.479c-1.167,0.724 -2.103,1.248 -2.811,1.574l-1.731,0.824v0.167l0.08,0.081c0.765,0 2.086,-0.305 3.971,-0.911c2.313,-1.215 3.474,-3.448 3.474,-6.694l-0.086,-1.321l0.582,-2.481c0,-0.191 -0.167,-0.439 -0.496,-0.743L29.712,13.351z" id="path_1"/></svg>