<svg id="vector" xmlns="http://www.w3.org/2000/svg" width="75" height="67" viewBox="0 0 84 75"><path fill="#0303F1" d="M57.137,42.742c-4.912,1.826 -9.821,3.648 -14.694,5.516c-5.677,2.131 -10.369,4.36 -14.074,6.699c-0.384,-0.077 -0.638,-0.295 -0.748,-0.659c0.219,-1.314 1.261,-2.701 3.158,-4.124c1.498,-0.988 2.976,-1.993 4.435,-2.994l3.797,-1.919c-0.347,-0.366 -0.748,-0.729 -1.206,-1.095c-0.437,-0.383 -0.785,-0.728 -1.039,-1.042c-1.314,-1.329 -1.989,-2.789 -2.026,-4.396c0.164,-1.13 0.602,-2.374 1.277,-3.741c1.077,-1.663 1.697,-2.758 1.879,-3.25c3.031,-5.222 6.353,-7.76 9.984,-7.649c4.181,0.638 6.755,2.391 7.705,5.243c0.364,0.345 0.675,1.167 0.968,2.46c0,0.528 -0.384,0.879 -1.133,1.062c-1.989,-1.429 -4.124,-2.413 -6.406,-2.941c-3.14,-0.676 -5.932,-0.272 -8.397,1.225c-0.186,0.22 -0.329,0.435 -0.421,0.655c0,0.24 0.11,0.95 0.367,2.135c2.099,2.925 4.891,4.73 8.342,5.406c1.112,0.346 2.279,0.491 3.521,0.418c1.79,-0.674 4.527,-1.59 8.25,-2.721c0.037,0.166 0.037,0.402 0,0.696c-0.073,0.491 -0.366,1.297 -0.858,2.411c-0.439,1.131 -0.694,1.712 -0.803,1.748C58.34,42.288 57.703,42.56 57.137,42.742z" id="path_0"/><path fill="#D61010" d="M9.938,14.924l0.081,0.247c-0.109,0.468 -0.606,1.017 -1.488,1.65c0.882,0.716 1.321,1.766 1.321,3.145v0.081c0,2.263 -0.933,3.389 -2.81,3.389c-1.485,-0.289 -2.229,-1.034 -2.229,-2.234v-0.08c0.052,-1.032 0.466,-2.135 1.239,-3.306c-0.716,-0.221 -1.071,-0.521 -1.071,-0.912c0,-1.033 0.081,-1.664 0.245,-1.898c0.745,0.206 1.57,0.616 2.48,1.239h0.083L9.938,14.924L9.938,14.924zM6.716,18.229c-0.664,0.659 -0.995,1.131 -0.995,1.406c0,0.851 0.605,1.352 1.819,1.485c0.634,-0.081 1.184,-0.302 1.654,-0.663C8.657,19.534 7.829,18.795 6.716,18.229L6.716,18.229zM20.003,22.928c-0.077,0.008 -0.151,0.012 -0.228,0.012h-0.413c-0.648,0 -1.089,-0.052 -1.324,-0.167c-0.482,1.855 -1.043,2.993 -1.686,3.409c-0.638,0.414 -2.087,0.768 -4.349,1.057h-0.166c-0.493,-0.058 -0.745,-0.139 -0.745,-0.248c0,-0.162 0.416,-0.358 1.243,-0.578c3.252,-1.487 4.877,-2.562 4.877,-3.222c0,-0.275 -0.387,-0.91 -1.158,-1.901c-0.165,-0.277 -0.25,-0.636 -0.25,-1.074v-0.826c0,-0.419 0.085,-0.636 0.25,-0.663c0.718,1.094 1.926,1.703 3.639,1.834c0.101,0 0.204,0 0.309,-0.004V22.928L20.003,22.928zM14.857,14.22c1.158,0.58 1.735,1.073 1.735,1.489c-0.549,1.084 -0.882,1.638 -0.991,1.649h-0.167c-0.85,-0.426 -1.371,-0.809 -1.572,-1.154C14.056,15.574 14.388,14.915 14.857,14.22L14.857,14.22zM19.621,20.563v2.36c1.102,0.012 1.965,-0.469 2.583,-1.437c0.195,0 0.386,0.109 0.58,0.325l-0.246,1.489c0,0.569 0.549,0.952 1.65,1.158h0.166c0.592,0 0.952,-0.554 1.076,-1.651l1.157,0.135c0.094,0 0.193,-0.004 0.288,-0.012v-2.368c-0.095,0.009 -0.194,0.013 -0.288,0.013c-1.419,0.081 -2.521,-0.411 -3.305,-1.488c-0.181,-0.606 -0.317,-0.911 -0.417,-0.911h-0.082l-0.081,0.086c-0.112,0.659 -0.48,1.207 -1.106,1.646c-0.629,0.44 -1.225,0.655 -1.791,0.655H19.621L19.621,20.563zM26.73,20.563c0.815,-0.102 1.221,-0.26 1.221,-0.475c0,-1.641 0.497,-3.62 1.488,-5.947c0.139,-0.304 0.274,-0.333 0.413,-0.086c0.36,0.772 0.991,1.407 1.902,1.9c1.875,0.912 2.811,2.151 2.811,3.723c0,1.638 -0.356,2.578 -1.076,2.809l-0.826,0.083l-3.142,-0.169c-0.874,0.375 -1.803,0.552 -2.79,0.522V20.563L26.73,20.563zM28.695,19.101c0,0.52 0.413,0.854 1.24,0.988c0.718,-0.395 1.071,-0.811 1.071,-1.237c-0.246,-0.997 -0.656,-1.488 -1.236,-1.488C29.178,17.363 28.818,17.94 28.695,19.101L28.695,19.101zM31.423,20.174l2.064,0.081l0.332,-0.081c-0.508,-0.704 -1.172,-1.256 -1.983,-1.651C31.686,18.522 31.548,19.072 31.423,20.174z" id="path_1"/></svg>