<svg id="vector" xmlns="http://www.w3.org/2000/svg" width="75" height="67" viewBox="0 0 84 75"><path fill="#5171D1" d="M32.653,32.578h0.583c0.246,0.483 0.188,0.951 -0.162,1.399c-1.888,2.343 -3.191,5.089 -3.936,8.231c-0.114,0.724 -0.17,1.493 -0.17,2.314c0,4.8 1.771,8.427 5.306,10.884c3.219,2.285 6.79,3.429 10.713,3.429c3.325,0 6.498,-0.627 9.518,-1.896c3.361,-1.419 5.94,-3.322 7.721,-5.723c1.324,-1.78 1.924,-3.313 1.821,-4.571c-0.114,-0.895 -0.64,-2.096 -1.562,-3.599c-0.8,0.369 -2.028,0.882 -3.686,1.56c-4.191,0.047 -6.849,-1.063 -7.982,-3.354c-0.391,-0.72 -0.592,-1.549 -0.592,-2.485c0,-0.96 0.288,-2.245 0.841,-3.848c0.638,-1.896 1.008,-3.21 1.122,-3.933c0.333,-0.524 1.047,-1.221 2.144,-2.094c0.467,-0.151 0.923,-0.228 1.373,-0.228c1.484,0 3.181,0.71 5.076,2.143c3.256,3.026 4.888,7.41 4.888,13.133c0,5.517 -1.383,10.115 -4.135,13.793c-2.182,2.863 -4.895,5.177 -8.153,6.958c-3.248,1.774 -6.563,2.66 -9.923,2.66c-3.611,0 -6.868,-1.048 -9.774,-3.144c-4.856,-3.526 -7.284,-8.888 -7.284,-16.086c0,-2.847 0.418,-5.584 1.256,-8.199C28.253,38.301 29.921,35.856 32.653,32.578L32.653,32.578zM45.368,22.588v-0.275c0.935,-1.306 2.268,-3.079 4.019,-5.333h0.191c0.362,0.387 1.355,1.188 2.99,2.398c0.78,0.583 1.572,1.165 2.371,1.764c0.897,-1.249 2.097,-2.83 3.6,-4.743h0.193c1.417,1.506 3.19,2.868 5.332,4.093c0.057,0.04 0.085,0.125 0.085,0.26l-3.904,5.218c-0.019,0.041 -0.076,0.049 -0.171,0.049c-0.132,0 -0.332,-0.036 -0.62,-0.134c-1.314,-0.619 -2.96,-1.916 -4.934,-3.905V21.95l-3.427,4.6c-0.021,0.037 -0.078,0.058 -0.173,0.058c-0.132,0 -0.333,-0.05 -0.608,-0.143C48.986,25.854 47.341,24.557 45.368,22.588z" id="path_0"/><path fill="#B52316" d="M14.573,17.253c0.592,0.108 1.2,0.438 1.821,0.987v0.168c-0.484,1.269 -0.816,1.903 -0.993,1.903c-0.924,-0.455 -1.503,-0.818 -1.739,-1.078v-0.166C14.036,17.913 14.339,17.306 14.573,17.253L14.573,17.253zM17.796,20.474h0.085c0.81,0 1.556,0.635 2.231,1.903l0.249,1.074c0.073,1.558 -0.37,2.746 -1.338,3.563c-0.968,0.82 -2.874,1.37 -5.718,1.643H12.34c-3.689,-0.496 -5.539,-1.843 -5.539,-4.048c0.208,-1.365 0.595,-2.383 1.158,-3.062h0.164l0.167,0.166l-0.578,1.409v0.328c0,1.351 1.486,2.285 4.466,2.812l1.071,0.081c1.942,0 4.091,-0.469 6.447,-1.407v-0.078l-0.082,-0.249h-0.081l-0.909,0.163h-0.252c-0.92,0 -1.61,-0.386 -2.066,-1.158v-0.745C16.308,21.275 16.806,20.474 17.796,20.474L17.796,20.474zM26.289,28.657c-1.604,0.098 -2.771,-0.646 -3.502,-2.222c-0.352,-0.585 -0.681,-4.529 -0.991,-11.839V14.43c0.204,-1.212 0.507,-1.818 0.906,-1.818l0.417,-0.081c0.508,0 1.281,0.163 2.314,0.491v0.168c-0.057,0.167 -0.224,0.252 -0.499,0.252h-1.403c-0.29,0 -0.563,0.158 -0.83,0.493c0.258,6.344 0.632,10.021 1.128,11.024c0.495,1.006 1.316,1.452 2.458,1.344V28.657L26.289,28.657zM29.843,15.878c-0.55,0.757 -0.826,1.277 -0.826,1.568c-1.147,-0.658 -1.806,-0.99 -1.987,-0.99c-0.217,0 -0.494,0.688 -0.825,2.065c0.496,0.508 1.103,0.838 1.818,0.993c0.112,-0.028 0.386,-0.469 0.828,-1.322V18.11c1.267,0.549 2.011,0.826 2.233,0.826c0.716,-0.761 1.072,-1.31 1.072,-1.654v-0.083C31.511,16.594 30.738,16.149 29.843,15.878L29.843,15.878zM26.206,26.303v2.354c2.28,0 3.677,-0.164 4.183,-0.484c1.436,-0.646 2.164,-1.985 2.183,-4.01V24l-0.083,-0.83c-0.653,-2.044 -1.617,-3.038 -2.892,-2.974h-0.411c-0.747,0 -1.186,0.938 -1.324,2.807v0.087c0.053,0.992 0.797,1.569 2.229,1.735h0.085c0.482,0 0.923,-0.108 1.322,-0.333c0.166,0 0.303,0.13 0.413,0.395l-0.166,0.329c-0.845,0.676 -2.554,1.036 -5.125,1.087H26.206z" id="path_1"/></svg>