<svg id="vector" xmlns="http://www.w3.org/2000/svg" width="75" height="67" viewBox="0 0 84 75"><path fill="#E10808" d="M33.05,37.987c1.779,-7.39 5.452,-12.777 11.017,-16.161c0.659,-0.521 1.672,-1.236 3.042,-2.139c-0.541,-0.297 -1.289,-0.469 -2.245,-0.522c-0.951,-0.056 -1.879,-0.1 -2.77,-0.137c-1.362,0.037 -2.729,0.056 -4.104,0.056c-1.48,0.243 -2.501,0.981 -3.063,2.221c-0.289,1.036 -0.757,1.722 -1.434,2.037c0.053,-2.273 0.885,-4.917 2.487,-7.932c1.131,-2.139 3.278,-3.203 6.455,-3.203c0.468,0 1.273,0.019 2.399,0.054c1.127,0.036 1.965,0.055 2.518,0.055c5.657,0.633 10.604,0.596 14.854,-0.108c0.351,0.037 0.875,-0.008 1.57,-0.136c0.703,-0.126 1.2,-0.189 1.497,-0.189c0.667,0 1.22,0.182 1.643,0.533c-0.268,0.488 -0.594,1.253 -0.984,2.292c-0.276,0.711 -0.577,1.444 -0.887,2.21c-0.301,0.768 -0.748,1.353 -1.334,1.76c-1.903,0.189 -5.946,1.254 -12.136,3.176c-4.438,1.886 -7.932,4.159 -10.466,6.821c-3.575,3.502 -5.505,7.337 -5.786,11.498c-0.44,2.363 0.2,4.637 1.922,6.82c1.363,1.957 3.152,3.583 5.373,4.864c4.527,2.845 10.908,4.26 19.137,4.26c2.452,0 6.271,-0.533 11.449,-1.587c0.211,0.053 0.525,0.008 0.952,-0.146c0.423,-0.155 0.699,-0.229 0.846,-0.229c0.276,0 0.447,0.265 0.504,0.798c0.098,0.313 -0.252,0.792 -1.057,1.423c-4.133,2.318 -7.208,3.872 -9.258,4.665c-3.571,1.428 -6.991,2.078 -10.258,1.948c-4.812,-0.208 -8.98,-1.09 -12.498,-2.64c-3.229,-1.375 -5.479,-3.197 -6.739,-5.471c-2.158,-3.673 -3.261,-6.995 -3.313,-9.972c0,-0.559 0.045,-2.209 0.137,-4.942C32.608,39.521 32.78,38.863 33.05,37.987z" id="path_0"/><path fill="#B11D1D" d="M15.697,25.225c-1.604,0.096 -2.771,-0.645 -3.5,-2.221c-0.354,-0.586 -0.682,-4.532 -0.992,-11.84v-0.166c0.203,-1.214 0.508,-1.818 0.906,-1.818l0.415,-0.084c0.509,0 1.281,0.167 2.314,0.495v0.166c-0.057,0.165 -0.222,0.25 -0.496,0.25h-1.403c-0.291,0 -0.564,0.163 -0.83,0.494c0.259,6.346 0.631,10.02 1.129,11.025c0.495,1.004 1.316,1.451 2.457,1.342V25.225L15.697,25.225zM15.521,22.868v2.356h0.787c0.715,-0.057 3.224,-0.716 7.521,-1.985h0.413l0.332,0.085h0.245c0.623,-1.061 0.954,-1.778 0.993,-2.148l-0.163,-0.25l-2.232,-0.164c-2.962,-1.158 -4.698,-1.737 -5.209,-1.737h-0.413c-1.213,0 -1.955,0.83 -2.231,2.479c0,0.168 0.057,0.251 0.166,0.251l0.246,-0.165c0.265,-0.827 0.759,-1.24 1.488,-1.24c0.539,0 1.807,0.441 3.801,1.322v0.083c-2.19,0.604 -3.786,0.978 -4.793,1.114H15.521z" id="path_1"/></svg>