<svg id="vector" xmlns="http://www.w3.org/2000/svg" width="75" height="67" viewBox="0 0 84 75"><path fill="#F10D0D" d="M31.271,43.535c2.058,0.146 4.08,0.22 6.055,0.22c4.846,0 9.511,-0.545 14.005,-1.615c0.163,-0.154 0.244,-0.316 0.244,-0.471c0,-0.11 -0.117,-0.313 -0.342,-0.622c-0.236,-0.318 -0.354,-0.525 -0.354,-0.623c-1.443,-1.903 -3.688,-3.693 -6.738,-5.341c-4.703,-2.68 -7.167,-4.07 -7.373,-4.181c0,-2.644 0.19,-5.178 0.559,-7.614l1.003,0.317c3.086,1.688 6.137,3.371 9.15,5.044c3.465,2.217 5.449,4.896 5.946,8.028c0.313,1.094 0.469,2.204 0.469,3.332c0,2.325 -0.764,5.25 -2.319,8.769c-3.864,1.96 -9.204,2.932 -16.024,2.932c-2.112,0 -3.925,-0.149 -5.443,-0.447C30.106,50.686 30.494,48.111 31.271,43.535z" id="path_0"/><path fill="#0D0DDF" d="M16.238,8.695c0.15,0 0.26,0.415 0.332,1.24l0.826,1.403v0.086c0,0.369 -0.167,1.032 -0.499,1.984l0.499,5.621v1.98c-0.183,1.147 -0.842,2.273 -1.989,3.389c-1.143,0.882 -2.159,1.321 -3.053,1.321h-0.496c-2.401,0 -3.941,-1.184 -4.633,-3.551l-0.163,-1.484c0,-1.534 0.662,-2.884 1.984,-4.055h0.082l0.166,0.166c0,0.302 -0.387,1.045 -1.159,2.233c-0.161,0.427 -0.243,0.81 -0.243,1.154v0.086c0,1.403 1.126,2.424 3.387,3.059l0.988,0.081h0.168c1.599,0 3.001,-0.743 4.218,-2.233l0.077,-0.247c-0.66,-5.76 -0.988,-9.285 -0.988,-10.579v-0.167C15.742,9.578 15.908,9.082 16.238,8.695L16.238,8.695zM20.553,10.286c0.168,0 0.334,0.553 0.496,1.655l0.749,1.65l-0.334,1.903l0.248,4.633v0.741c-0.107,1.886 -0.386,2.989 -0.825,3.307l-0.081,-0.082l0.081,-1.24c0,-1.115 -0.361,-4.67 -1.078,-10.665C20.155,10.92 20.403,10.286 20.553,10.286L20.553,10.286zM25.661,16.407c2.813,1.005 4.215,2.245 4.215,3.721l0.086,0.492c-0.237,1.928 -0.871,2.892 -1.904,2.892c0,0.18 -1.374,0.403 -4.132,0.664l-0.087,-0.249c0,-1.379 0.249,-2.065 0.749,-2.065c2.754,-0.224 4.268,-0.554 4.544,-0.992c-0.949,-0.924 -2.189,-1.668 -3.723,-2.229l-0.08,-0.419C25.373,17.013 25.484,16.407 25.661,16.407z" id="path_1"/></svg>