<svg id="vector" xmlns="http://www.w3.org/2000/svg" width="100" height="59" viewBox="0 0 122 72"><path fill="#000000" d="M53.933,12.736l0.184,0.184c0,2.412 -1.908,4.916 -5.723,7.51c-2.236,0.953 -4.504,1.436 -6.801,1.436l-1.609,-0.184c-0.596,2.266 -1.016,3.404 -1.252,3.404c-0.268,0 -0.627,-0.955 -1.076,-2.863c-0.832,-1.137 -2.205,-2.564 -4.113,-4.297v-0.357c0.42,-2.381 0.9,-3.572 1.434,-3.572c2.328,2.504 5.189,3.756 8.586,3.756C47.499,17.752 50.958,16.08 53.933,12.736z" id="path_0"/><path fill="#2196F3" d="M80.755,10.521c-0.051,-0.076 -0.18,-0.197 -0.258,0.078l-0.703,2.609c-0.025,0.104 0,0.121 0.076,0.223c1.521,1.984 2.277,4.098 2.277,6.707c0,0.654 -0.078,1.281 -0.078,1.855c0,0.25 0.051,0.43 0.154,0.43c0.121,0 0.275,-0.207 0.447,-0.609c0.473,-1.074 0.686,-2.232 0.789,-2.953c0.025,-0.232 0.078,-0.611 0.078,-1.188C83.538,14.814 82.327,12.48 80.755,10.521z" id="path_1"/><path fill="#2196F3" d="M65.54,43.564v7.295h2.334c2.248,-0.176 10.119,-2.246 23.615,-6.232h1.295l1.041,0.266h0.775c1.947,-3.332 2.988,-5.58 3.109,-6.742l-0.508,-0.785l-7.01,-0.521c-9.299,-3.631 -14.744,-5.445 -16.35,-5.445h-1.297c-3.807,0 -6.145,2.602 -7.006,7.783c0,0.52 0.176,0.785 0.52,0.785l0.775,-0.521c0.83,-2.602 2.379,-3.896 4.672,-3.896c1.693,0 5.668,1.385 11.934,4.152v0.266c-6.875,1.893 -11.891,3.066 -15.045,3.498h-2.99v0.105C65.45,43.568 65.495,43.566 65.54,43.564z" id="path_2"/><path fill="#000000" d="M47.282,56.02c4.064,0 7.352,-2.16 9.854,-6.488c2.336,0.863 4.762,1.307 7.273,1.328h0.256h0.74V43.57c-3.283,0.113 -5.598,-0.408 -6.963,-1.566c-4.76,-4.672 -8.225,-7.008 -10.385,-7.008h-0.52c-1.727,0 -3.631,1.738 -5.701,5.191c-1.086,4.152 -1.916,6.598 -2.49,7.328c-0.566,0.742 -2.979,2.559 -7.23,5.447c-4.252,2.9 -6.863,4.75 -7.826,5.547v0.52l1.195,-0.154c2.115,0 5.059,-0.697 8.824,-2.08c2.811,-1.729 4.627,-3.975 5.445,-6.742h0.254C40.009,53.34 42.435,55.322 47.282,56.02L47.282,56.02zM48.579,48.49c-3.631,-0.818 -5.447,-2.379 -5.447,-4.672c0.598,-1.029 1.639,-1.549 3.111,-1.549h0.254c1.781,0 4.373,1.639 7.795,4.926c0,0.564 -1.473,0.996 -4.418,1.295H48.579z" id="path_3"/></svg>