<svg id="vector" xmlns="http://www.w3.org/2000/svg" width="100" height="59" viewBox="0 0 122 72"><path fill="#009649" d="M78.077,6.256l0.183,0.184c0,2.412 -1.907,4.916 -5.724,7.51c-2.236,0.953 -4.502,1.434 -6.801,1.434l-1.609,-0.182c-0.596,2.266 -1.016,3.402 -1.252,3.402c-0.266,0 -0.625,-0.953 -1.075,-2.861c-0.832,-1.137 -2.206,-2.564 -4.114,-4.297v-0.357c0.42,-2.381 0.9,-3.572 1.435,-3.572c2.328,2.504 5.19,3.756 8.587,3.756C71.643,11.271 75.101,9.6 78.077,6.256z" id="path_0"/><path fill="#000000" d="M71.05,18.604c1.88,0.43 3.771,1.551 5.66,3.354v0.252c0,0.945 -1.032,2.66 -3.088,5.154h-0.77c-1.209,0 -2.746,-0.945 -4.638,-2.836C68.688,21.869 69.634,19.891 71.05,18.604L71.05,18.604zM61.259,19.891c2.011,0.604 4.076,1.891 6.176,3.867v0.254c-1.923,3.396 -3.044,5.109 -3.341,5.154h-0.78c-1.451,-0.219 -3,-1.164 -4.627,-2.836v-0.252C58.852,24.055 59.708,22 61.259,19.891L61.259,19.891zM69.237,32.518h0.517c4.165,0 7.001,4.199 8.506,12.617v3.869c0,1.846 -1.032,4.33 -3.088,7.463c-4.857,6.188 -9.837,9.275 -14.946,9.275c-8.452,0 -13.782,-3.857 -15.97,-11.596l-0.516,-4.373V49.52c0,-5.803 1.714,-10.605 5.153,-14.43l1.551,-1.033c0.34,0 0.505,0.264 0.505,0.779c-1.022,2.572 -2.056,4.596 -3.088,6.045c-1.033,1.463 -1.627,3.057 -1.803,4.771c0,6.395 3.012,10.518 9.013,12.363l4.637,0.516h0.264c6.781,0 12.365,-3.176 16.738,-9.527v-0.781c0,-0.9 -0.516,-1.846 -1.538,-2.824L71.05,46.42c-4.637,-0.471 -6.956,-2.275 -6.956,-5.406v-0.518c0.386,-5.154 1.583,-7.725 3.604,-7.725L69.237,32.518z" id="path_1"/></svg>