<svg id="vector" xmlns="http://www.w3.org/2000/svg" width="100" height="59" viewBox="0 0 122 72"><path fill="#FF5722" d="M94.029,21.287c0.441,0 0.885,1.481 1.33,4.424l1.988,4.423l-0.885,5.084l0.658,12.383v1.981c-0.291,5.055 -1.027,7.997 -2.207,8.847l-0.215,-0.217l0.215,-3.32c0,-2.98 -0.961,-12.487 -2.875,-28.512C92.963,22.984 93.623,21.287 94.029,21.287z" id="path_0"/><path fill="#9C27B0" d="M90.996,6.611l0.227,0.227c0,2.98 -2.357,6.074 -7.074,9.281c-2.762,1.179 -5.564,1.772 -8.402,1.772l-1.99,-0.226c-0.736,2.801 -1.254,4.206 -1.547,4.206c-0.33,0 -0.773,-1.179 -1.33,-3.536c-1.027,-1.406 -2.725,-3.17 -5.084,-5.311v-0.443c0.52,-2.942 1.113,-4.413 1.773,-4.413c2.877,3.093 6.412,4.64 10.611,4.64C83.045,12.809 87.318,10.743 90.996,6.611z" id="path_1"/><path fill="#000000" d="M62.612,52.436c-4.08,-0.117 -7.782,-0.524 -8.864,-1.553c-4.115,-3.916 -7.008,-5.97 -8.848,-5.97h-0.441c-1.473,0 -3.094,1.481 -4.857,4.424c-0.926,3.536 -1.633,5.621 -2.123,6.243c-0.48,0.632 -2.537,2.179 -6.158,4.641c-3.623,2.471 -5.848,4.046 -6.668,4.725v0.443l1.018,-0.132c1.803,0 4.311,-0.595 7.518,-1.773c2.395,-1.472 3.943,-3.386 4.641,-5.743h0.217c0,2.801 2.064,4.489 6.195,5.083c3.463,0 6.264,-1.839 8.395,-5.526c2.591,0.958 7.567,1.449 12.57,1.498C65.188,58.744 63.556,54.44 62.612,52.436zM46.447,56.41h-1.104c-3.092,-0.698 -4.639,-2.028 -4.639,-3.98c0.508,-0.877 1.395,-1.319 2.648,-1.319h0.219c1.518,0 3.725,1.395 6.639,4.196C50.211,55.788 48.957,56.155 46.447,56.41z" id="path_2"/><path fill="#001ffc" d="M54.379,18.005l0.227,0.228c0,2.979 -2.357,6.074 -7.072,9.281c-2.764,1.178 -5.564,1.771 -8.404,1.771l-1.99,-0.226c-0.736,2.802 -1.254,4.206 -1.547,4.206c-0.33,0 -0.773,-1.179 -1.33,-3.536c-1.027,-1.405 -2.725,-3.17 -5.082,-5.311v-0.442c0.518,-2.943 1.111,-4.414 1.773,-4.414c2.875,3.093 6.412,4.64 10.609,4.64C46.43,24.202 50.701,22.137 54.379,18.005z" id="path_3"/><path fill="#9C27B0" d="M83.008,29.465c0,-0.015 0.004,-0.034 0.004,-0.049l-2.852,-6.572c-0.006,0 -0.013,0.009 -0.02,0.009c-0.5,0.049 -1.082,2.003 -1.729,5.899l2.627,20.82c-0.012,0.012 -0.03,0.023 -0.043,0.035c-2.111,2.028 -10.562,3.285 -18.441,2.697c0.021,0.043 0.037,0.088 0.058,0.131c0.943,2.004 1.775,4.086 2.47,6.206c6.771,-0.328 13.898,-1.457 14.621,-2.198c1.365,-1.4 2.486,-3.823 3.309,-7.311v-3.088v-0.203L81.923,34.07l-0.005,-0.054C82.638,31.997 82.998,30.483 83.008,29.465z" id="path_4"/><path fill="#000000" d="M41.971,40.081c0.223,-0.273 0.326,-0.406 0.504,-0.229c0.303,0.252 0.65,0.422 1.277,0.422c1.123,0 1.797,-0.783 2.203,-1.471c0.502,-0.828 0.738,-1.693 0.738,-2.603c0,-0.324 0,-0.783 -0.258,-0.783c-0.303,0 -0.436,0.325 -0.865,1.153c-0.436,0.82 -0.887,1.146 -1.412,1.146c-0.627,0 -0.842,-0.303 -0.842,-0.761c0,-0.259 0.021,-0.362 0.045,-0.563c0.021,-0.325 -0.09,-0.45 -0.236,-0.45c-0.393,0.021 -0.932,0.436 -1.412,1.581c-0.326,0.762 -0.799,1.346 -1.428,1.346c-0.627,0 -1.166,-0.37 -1.166,-1.102c0,-0.436 0.035,-0.65 0.104,-1.02c0.043,-0.215 0.043,-0.414 -0.17,-0.414c-0.518,0 -0.857,0.562 -1.096,1.167c-0.236,0.606 -0.303,1.064 -0.303,1.648s0.178,1.301 0.541,1.781c0.303,0.414 0.746,0.673 1.33,0.673C40.33,41.604 41.129,41.108 41.971,40.081z" id="path_5"/></svg>