<svg id="vector" xmlns="http://www.w3.org/2000/svg" width="100" height="59" viewBox="0 0 122 72"><path fill="#0000FF" d="M89.031,23.074l0.118,0.117c0,1.545 -1.222,3.148 -3.667,4.811c-1.433,0.611 -2.884,0.92 -4.356,0.92l-1.031,-0.117c-0.382,1.451 -0.65,2.18 -0.802,2.18c-0.171,0 -0.401,-0.611 -0.689,-1.834c-0.533,-0.729 -1.413,-1.643 -2.635,-2.752V26.17c0.269,-1.527 0.577,-2.289 0.919,-2.289c1.491,1.604 3.324,2.406 5.5,2.406C84.91,26.287 87.125,25.215 89.031,23.074z" id="path_0"/><path fill="#000000" d="M69.484,17.639l0.118,0.117c0,1.545 -1.223,3.15 -3.667,4.813c-1.433,0.609 -2.885,0.918 -4.356,0.918l-1.031,-0.117c-0.382,1.453 -0.65,2.182 -0.802,2.182c-0.171,0 -0.401,-0.611 -0.69,-1.834c-0.532,-0.729 -1.413,-1.643 -2.635,-2.752v-0.23c0.269,-1.525 0.577,-2.287 0.919,-2.287c1.491,1.602 3.324,2.404 5.5,2.404C65.362,20.852 67.578,19.781 69.484,17.639z" id="path_1"/><path fill="#E91E63" d="M47.297,20.447l0.118,0.117c0,1.545 -1.223,3.148 -3.667,4.811c-1.433,0.611 -2.885,0.92 -4.356,0.92l-1.031,-0.117c-0.382,1.451 -0.65,2.18 -0.802,2.18c-0.171,0 -0.401,-0.611 -0.69,-1.834c-0.532,-0.729 -1.413,-1.643 -2.635,-2.752v-0.229c0.269,-1.527 0.577,-2.289 0.919,-2.289c1.491,1.604 3.324,2.406 5.5,2.406C43.176,23.66 45.391,22.588 47.297,20.447z" id="path_2"/><path fill="#009688" d="M20.777,17.639l0.117,0.117c0,1.545 -1.222,3.15 -3.667,4.813c-1.432,0.609 -2.884,0.918 -4.356,0.918l-1.031,-0.117c-0.382,1.453 -0.65,2.182 -0.802,2.182c-0.171,0 -0.401,-0.611 -0.689,-1.834c-0.533,-0.729 -1.413,-1.643 -2.635,-2.752v-0.23c0.269,-1.525 0.577,-2.287 0.919,-2.287c1.491,1.602 3.325,2.404 5.5,2.404C16.656,20.852 18.871,19.781 20.777,17.639z" id="path_3"/><path fill="#FC0000" d="M103.815,21.654c-0.033,-0.049 -0.116,-0.127 -0.165,0.051l-0.451,1.672c-0.017,0.066 0,0.076 0.049,0.143c0.974,1.271 1.458,2.625 1.458,4.297c0,0.418 -0.049,0.82 -0.049,1.188c0,0.16 0.033,0.275 0.099,0.275c0.077,0 0.176,-0.131 0.286,-0.391c0.303,-0.688 0.44,-1.43 0.507,-1.893c0.016,-0.148 0.049,-0.391 0.049,-0.758C105.598,24.406 104.821,22.908 103.815,21.654z" id="path_4"/><path fill="#FC0000" d="M116.643,43.637c1.478,-2.527 2.267,-4.232 2.359,-5.113l-0.386,-0.596l-5.315,-0.395c-7.053,-2.756 -11.185,-4.131 -12.402,-4.131h-0.982c-2.888,0 -4.66,1.973 -5.315,5.902c0,0.395 0.135,0.596 0.395,0.596l0.588,-0.395c0.63,-1.973 1.806,-2.955 3.544,-2.955c1.285,0 4.299,1.049 9.051,3.148V39.9c-5.215,1.436 -9.018,2.326 -11.412,2.654H94.5v0.078c0.034,0 0.067,-0.002 0.101,-0.004v5.533h1.771c1.705,-0.135 7.675,-1.705 17.91,-4.727h0.982l0.79,0.201H116.643z" id="path_5"/><path fill="#0000FF" d="M80.755,52.076c3.082,0 5.575,-1.639 7.473,-4.92c1.772,0.654 3.611,0.99 5.517,1.006h0.193h0.937v-5.529c-2.491,0.086 -4.672,-0.252 -5.656,-1.188c-3.664,-3.488 -6.239,-5.314 -7.876,-5.314h-0.395c-1.31,0 -2.754,1.318 -4.324,3.938c-0.823,3.148 -1.453,5.004 -1.889,5.559c-0.429,0.563 -2.259,1.939 -5.483,4.131c-3.224,2.199 -5.206,3.602 -5.936,4.207v0.395l0.907,-0.117c1.604,0 3.837,-0.529 6.692,-1.578c2.133,-1.311 3.51,-3.016 4.131,-5.113h0.193C75.238,50.043 77.078,51.547 80.755,52.076L80.755,52.076zM86.07,45.383c0,0.43 -1.117,0.756 -3.351,0.982h-0.982c-2.754,-0.621 -4.131,-1.805 -4.131,-3.543c0.454,-0.781 1.243,-1.176 2.359,-1.176h0.193C81.511,41.646 83.475,42.889 86.07,45.383z" id="path_6"/><path fill="#000000" d="M53.522,43.461c3.697,-0.049 9.437,-1.281 15.656,-3.693c1.418,0 2.384,-1.5 2.891,-4.494c-0.911,0 -2.836,0.535 -5.782,1.604c-3.747,0 -6.316,-1.123 -7.707,-3.371v-0.164c1.583,-1.391 3.562,-2.082 5.939,-2.082c1.555,0 2.946,0.426 4.179,1.281h0.637l0.164,-0.158l-0.164,-0.643c-2.589,-1.768 -4.733,-2.781 -6.418,-3.049l-1.288,0.156c-3.315,0 -4.973,2.57 -4.973,7.707c0,0.35 0.24,0.973 0.719,1.871l-2.007,0.479h-0.479c-0.194,0 -1.173,-0.002 -1.367,-0.008V43.461z" id="path_7"/><path fill="#E91E63" d="M38.188,43.98c1.37,0.178 2.534,-0.699 3.493,-2.631h0.165c0.883,1.611 2.007,2.412 3.371,2.412h0.157c1.609,0 2.733,-1.178 3.371,-3.535c1.665,2.145 3.206,3.221 4.637,3.234h0.281v-4.584c-1.889,-0.1 -3.099,-0.879 -3.63,-2.342c0,-0.959 -0.11,-1.445 -0.322,-1.445h-0.158c-1.178,2.787 -2.466,4.178 -3.856,4.178h-0.322c-1.493,-0.164 -2.247,-0.754 -2.247,-1.768v-1.123l-0.479,-0.48h-0.165c-1.363,2.57 -2.698,3.852 -4.014,3.852c-1.39,0 -2.514,-0.857 -3.37,-2.57l0.165,-1.123c0,-0.322 -0.11,-0.479 -0.322,-0.479c-1.583,2.096 -3.987,3.199 -7.227,3.309h-0.083c0,1.086 0.24,3.059 0.24,4.576c2.461,0 4.23,-1.25 5.782,-3.07C34.139,42.795 35.646,43.994 38.188,43.98z" id="path_8"/><path fill="#009688" d="M27.877,43.461l-0.09,-4.58c-2.404,-0.023 -4.309,0.051 -5.396,0.064c-1.226,-2.459 -2.727,-3.691 -4.494,-3.691c-2.034,0 -3.048,1.658 -3.048,4.98c0,2.246 2.082,3.369 6.261,3.369h0.479c0.535,0.295 0.802,0.775 0.802,1.445c-3.206,3.207 -6.261,4.816 -9.152,4.816c-1.418,-0.109 -2.542,-0.322 -3.371,-0.645c-3.528,-1.336 -5.295,-3.479 -5.295,-6.418c0,-0.754 0.212,-1.664 0.637,-2.734c1.397,-1.979 2.089,-3.26 2.089,-3.85v-0.164l-0.157,-0.158c-0.432,0 -1.076,0.535 -1.932,1.604c-1.336,2.754 -2.062,4.74 -2.172,5.939c-0.116,1.205 0.021,2.762 0.412,4.658c2.007,4.172 5.212,6.262 9.631,6.262c2.103,-0.145 3.864,-0.898 5.295,-2.248c3.028,-2.383 4.686,-5.273 4.981,-8.672c1.643,0.055 3.397,0.068 4.76,0.041l-0.246,-0.02H27.877z" id="path_9"/><path fill="#009688" d="M14.204,33.006c0.425,-0.184 0.966,-1.096 1.603,-2.732c1.528,0.967 2.706,1.445 3.535,1.445c0.404,0 1.096,-1.123 2.089,-3.371v-0.156c0,-0.35 -1.233,-0.994 -3.692,-1.926c-0.294,0.049 -0.836,1.014 -1.61,2.885h-0.158c-1.363,-0.885 -2.494,-1.418 -3.371,-1.604h-0.322c-1.178,1.5 -1.768,2.727 -1.768,3.693v0.164c1.391,1.068 2.569,1.602 3.535,1.602H14.204z" id="path_10"/></svg>