<svg id="vector" xmlns="http://www.w3.org/2000/svg" width="100" height="59" viewBox="0 0 122 72"><path fill="#000000" d="M100.292,23.703c0.396,0 0.793,1.325 1.189,3.956l1.779,3.956l-0.791,4.546l0.59,11.075v1.771c-0.262,4.521 -0.92,7.151 -1.975,7.911l-0.193,-0.194l0.193,-2.969c0,-2.665 -0.859,-11.167 -2.572,-25.498C99.339,25.222 99.931,23.703 100.292,23.703z" id="path_0"/><path fill="#001ffc" d="M99.728,3.608l0.203,0.202c0,2.665 -2.109,5.433 -6.326,8.3c-2.473,1.054 -4.977,1.585 -7.516,1.585l-1.779,-0.202c-0.658,2.506 -1.123,3.762 -1.383,3.762c-0.297,0 -0.693,-1.054 -1.189,-3.162c-0.92,-1.257 -2.438,-2.835 -4.547,-4.749V8.947C77.653,6.315 78.185,5 78.776,5c2.572,2.767 5.734,4.15 9.488,4.15C92.616,9.15 96.438,7.303 99.728,3.608z" id="path_1"/><path fill="#000001" d="M80.272,18.516l0.162,0.161c0,2.122 -1.68,4.324 -5.037,6.606c-1.967,0.839 -3.961,1.262 -5.982,1.262l-1.416,-0.161c-0.523,1.995 -0.893,2.995 -1.1,2.995c-0.236,0 -0.551,-0.84 -0.947,-2.518c-0.732,-1.001 -1.941,-2.257 -3.619,-3.78v-0.315c0.369,-2.095 0.791,-3.142 1.262,-3.142c2.049,2.201 4.566,3.303 7.553,3.303C74.612,22.927 77.653,21.457 80.272,18.516z" id="path_2"/><path fill="#3F51B5" d="M56.626,19.351l0.203,0.203c0,2.665 -2.107,5.433 -6.326,8.3c-2.471,1.054 -4.975,1.585 -7.514,1.585l-1.781,-0.202c-0.656,2.506 -1.121,3.762 -1.383,3.762c-0.295,0 -0.691,-1.054 -1.189,-3.162c-0.92,-1.258 -2.438,-2.835 -4.546,-4.749V24.69c0.464,-2.632 0.995,-3.947 1.585,-3.947c2.574,2.767 5.736,4.149 9.49,4.149C49.517,24.893 53.337,23.046 56.626,19.351z" id="path_3"/><path fill="#001ffc" d="M81.896,46.962c0.225,0.017 0.465,0.024 0.73,0.024h1.844c1.953,-0.323 3.439,-1.005 4.479,-2.043l-2.334,-18.499c0.58,-3.506 1.104,-5.25 1.553,-5.25l2.533,5.84c0,0.905 -0.324,2.268 -0.973,4.087L90.7,41.629v2.924c-0.73,3.099 -1.711,5.267 -2.939,6.496c-0.932,0.988 -2.02,1.486 -3.291,1.486h-1.652c-0.324,0 -0.631,-0.008 -0.922,-0.024V46.962z" id="path_4"/><path fill="#000000" d="M54.167,51.63c-2.891,-0.498 -4.336,-1.154 -4.344,-1.969c-0.01,-0.813 4.26,-1.619 12.816,-2.434h0.191c6.846,-1.462 10.268,-2.957 10.268,-4.478c-0.191,-1.362 0.066,-1.885 0.781,-1.562c0.133,3.78 2.666,5.665 7.592,5.648c0.215,-0.017 0.424,-0.024 0.631,-0.024v5.574c-0.432,0.065 -0.838,0.1 -1.213,0.1l-2.725,-0.391c-0.166,2.857 -0.881,4.277 -2.143,4.277H75.44c-1.752,0 -2.857,-1.163 -3.314,-3.497c0,-1.038 0.266,-2.408 0.781,-4.095c0.016,-0.855 -0.307,-1.18 -0.973,-0.972c-1.479,0.78 -3.371,1.728 -5.697,2.849C61.079,51.813 57.058,52.137 54.167,51.63z" id="path_5"/><path fill="#3F51B5" d="M55.339,36.786h0.781c4.152,0.424 6.229,2.109 6.229,5.067v0.39c-0.83,3.224 -1.803,5.3 -2.924,6.23c-2.143,1.811 -5.383,2.725 -9.734,2.725H49.3c-2.467,0 -4.479,-0.258 -6.031,-0.781v1.944c0,3.671 -1.885,7.243 -5.648,10.716c-2.758,1.943 -5.416,2.915 -7.982,2.915h-0.391c-3.986,0 -7.168,-2.209 -9.536,-6.62c-0.681,-2.043 -1.005,-4.253 -0.972,-6.62c1.006,-4.669 2.559,-7.983 4.668,-9.927l0.973,-0.582h0.59v0.191c0,0.49 -1.039,2.11 -3.115,4.868c-0.781,1.071 -1.172,2.301 -1.172,3.696v0.98c0,1.553 1.172,3.63 3.506,6.229c1.977,1.163 4.244,1.753 6.812,1.753c4.577,0 8.149,-1.819 10.706,-5.458c0.135,-0.905 0.258,-1.811 0.391,-2.725c0,-0.548 -0.904,-2.234 -2.725,-5.059v-4.478c0.191,-0.356 0.391,-0.489 0.582,-0.39c1.596,1.91 3.406,3.082 5.449,3.505h0.391C48.294,39.644 51.476,36.786 55.339,36.786L55.339,36.786zM48.136,45.358l2.725,0.391c3.863,0 7.037,-0.78 9.537,-2.343v-0.19c-1.164,-1.172 -2.592,-1.753 -4.277,-1.753h-0.781C52.224,41.463 49.823,42.759 48.136,45.358z" id="path_6"/><path fill="#000000" d="M72.956,36.988c0.223,-0.273 0.326,-0.406 0.504,-0.229c0.303,0.252 0.65,0.422 1.277,0.422c1.125,0 1.797,-0.784 2.203,-1.472c0.502,-0.827 0.738,-1.692 0.738,-2.602c0,-0.325 0,-0.783 -0.258,-0.783c-0.303,0 -0.436,0.325 -0.865,1.153c-0.436,0.82 -0.887,1.146 -1.412,1.146c-0.627,0 -0.842,-0.303 -0.842,-0.761c0,-0.26 0.021,-0.362 0.045,-0.563c0.021,-0.325 -0.09,-0.45 -0.236,-0.45c-0.393,0.021 -0.932,0.436 -1.412,1.581c-0.326,0.762 -0.799,1.346 -1.426,1.346c-0.629,0 -1.168,-0.37 -1.168,-1.102c0,-0.436 0.037,-0.65 0.104,-1.02c0.043,-0.215 0.043,-0.414 -0.17,-0.414c-0.518,0 -0.857,0.562 -1.094,1.167c-0.238,0.606 -0.305,1.064 -0.305,1.648s0.178,1.301 0.541,1.781c0.303,0.414 0.746,0.673 1.33,0.673C71.315,38.511 72.114,38.016 72.956,36.988z" id="path_7"/></svg>