<svg id="vector" xmlns="http://www.w3.org/2000/svg" width="100" height="59" viewBox="0 0 122 72"><path fill="#803d96" d="M46.438,51.797c-0.196,-0.28 -0.376,-0.58 -0.546,-0.891C46.061,51.218 46.242,51.517 46.438,51.797z" id="path_0"/><path fill="#803d96" d="M46.455,41.84c0.032,0.162 0.064,0.323 0.1,0.479C46.52,42.162 46.486,42.002 46.455,41.84z" id="path_1"/><path fill="#000000" d="M46.681,42.831c0.021,0.078 0.043,0.154 0.065,0.23C46.724,42.984 46.701,42.909 46.681,42.831z" id="path_2"/><path fill="#000000" d="M79.41,15.4c-0.067,-0.1 -0.235,-0.256 -0.335,0.102l-0.916,3.395c-0.033,0.135 0,0.156 0.101,0.29c1.978,2.581 2.96,5.327 2.96,8.724c0,0.849 -0.101,1.664 -0.101,2.412c0,0.324 0.066,0.559 0.201,0.559c0.155,0 0.356,-0.268 0.58,-0.793c0.614,-1.396 0.894,-2.904 1.028,-3.842c0.033,-0.302 0.1,-0.793 0.1,-1.542C83.028,20.984 81.454,17.947 79.41,15.4z" id="path_3"/><path fill="#000000" d="M84.148,37.286c-4.151,0.194 -7.466,1.329 -9.94,3.415v-1.206l-0.48,-7.671v-0.48c0,-0.91 0.398,-2.117 1.197,-3.59c0,-1.318 -0.563,-2.762 -1.678,-4.315l-1.197,-4.551c-0.645,0 -1.359,1.911 -2.157,5.747l2.394,18.46c-1.473,2.279 -2.598,4.192 -3.355,5.747l-1.196,0.604c-7.519,0 -15.882,2.062 -19.635,-3.397v7.551c-0.604,-0.5 -1.146,-1.075 -1.618,-1.736c4.918,6.92 17.681,4.414 25.324,4.414c5.798,-0.204 11.105,-1.656 15.943,-4.377c1.594,-1.871 2.791,-4.592 3.589,-8.15v-1.677C91.338,39.556 88.944,37.96 84.148,37.286zM71.323,49.567h-0.48c2.281,-4.315 6.156,-6.575 11.629,-6.771h1.923c0.839,0 2.198,0.952 4.069,2.875C84.353,48.064 78.636,49.363 71.323,49.567z" id="path_4"/><path fill="#803d96" d="M45.763,50.665c-0.178,-0.348 -0.344,-0.709 -0.486,-1.098C45.419,49.956 45.586,50.316 45.763,50.665z" id="path_5"/><path fill="#803d96" d="M46.237,40.456c0.039,0.341 0.088,0.667 0.142,0.984C46.326,41.123 46.276,40.797 46.237,40.456z" id="path_6"/><path fill="#3F51B5" d="M36.091,15.4c-0.066,-0.1 -0.234,-0.256 -0.336,0.102l-0.915,3.395c-0.033,0.135 0,0.156 0.101,0.29c1.977,2.581 2.96,5.327 2.96,8.724c0,0.849 -0.101,1.664 -0.101,2.412c0,0.324 0.066,0.559 0.201,0.559c0.156,0 0.357,-0.268 0.58,-0.793c0.615,-1.396 0.894,-2.904 1.028,-3.842c0.033,-0.302 0.101,-0.793 0.101,-1.542C39.71,20.984 38.135,17.947 36.091,15.4z" id="path_7"/><path fill="#3F51B5" d="M48.1,53.599v-7.551V46.03c-0.559,-0.814 -1.016,-1.794 -1.354,-2.969c-0.022,-0.076 -0.044,-0.152 -0.065,-0.23c-0.044,-0.167 -0.086,-0.338 -0.126,-0.512c-0.035,-0.156 -0.067,-0.316 -0.1,-0.479c-0.025,-0.132 -0.053,-0.263 -0.076,-0.4c-0.054,-0.317 -0.103,-0.643 -0.142,-0.984c-0.521,-9.225 -0.92,-14.185 -1.197,-14.86c-0.562,0 -1.277,1.994 -2.156,5.994l0.234,0.715c-2.67,1.125 -5.072,2.475 -7.189,4.081c-3.508,3.436 -5.267,6.31 -5.267,8.62v2.158c0,1.923 1.595,2.884 4.786,2.884h1.207c4.745,-0.326 7.301,-1.124 7.67,-2.403h0.47l0.481,1.923c0.143,0.388 0.309,0.75 0.486,1.098c0.042,0.082 0.085,0.161 0.129,0.241c0.17,0.312 0.35,0.611 0.546,0.891c0.016,0.021 0.028,0.044 0.044,0.065C46.953,52.523 47.496,53.099 48.1,53.599zM38.086,43.329c-2.116,0 -3.63,-0.316 -4.55,-0.95c0,-1.606 3.19,-3.918 9.582,-6.955h0.246l0.48,6.709C42.085,42.777 40.163,43.177 38.086,43.329z" id="path_8"/></svg>