<svg id="vector" xmlns="http://www.w3.org/2000/svg" width="75" height="67" viewBox="0 0 83 73"><path fill="#000201" d="M47.905,16.428l0.197,0.206v0.196c-0.7,3.604 -2.229,5.406 -4.604,5.406c-2.964,0 -6.305,1.333 -10.012,4.006c-4.133,3.468 -6.201,7.406 -6.201,11.805c0,5.979 3.399,10.112 10.207,12.411l7.013,0.606l11.208,-0.803h2.203l0.196,0.196v0.205c0,0.77 -2.067,1.904 -6.201,3.398c-1.691,0.735 -5.159,1.538 -10.412,2.409c-6.842,0 -11.181,-1.742 -13.009,-5.211c-2.136,-3.134 -3.204,-6.808 -3.204,-11.01c0,-6.842 2.802,-12.71 8.406,-17.611h-4.408c-1.067,0 -2.399,0.931 -3.998,2.801l-0.4,-0.401v-0.402c1.332,-5.072 3.399,-7.61 6.201,-7.61C31.626,17.162 37.229,16.967 47.905,16.428z" id="path_0"/><path fill="#000201" d="M37.297,3.77h0.402c0.965,0 2.366,0.932 4.203,2.802v0.196c0,0.871 -0.805,2.203 -2.401,4.006c-2.81,-0.734 -4.211,-1.733 -4.211,-3.007C35.692,6.332 36.358,5 37.297,3.77z" id="path_1"/><path fill="#009649" d="M48.932,58.769c0.205,-0.111 0.265,0.068 0.179,0.555c-1.136,2.666 -2.878,4.528 -5.227,5.578l-8.636,4.33c-0.367,-0.102 -0.437,-0.4 -0.205,-0.896c1.153,-2.222 1.938,-3.537 2.357,-3.955L48.932,58.769z" id="path_2"/></svg>