<svg id="vector" xmlns="http://www.w3.org/2000/svg" width="75" height="67" viewBox="0 0 83 73"><path fill="#CC0AE2" d="M47.902,10.098l0.205,0.206V10.5c-0.701,3.604 -2.24,5.407 -4.605,5.407c-2.973,0 -6.305,1.333 -10.012,4.006c-4.133,3.468 -6.209,7.405 -6.209,11.805c0,5.979 3.408,10.112 10.217,12.41l7.004,0.606l11.215,-0.803h2.195l0.205,0.196v0.206c0,0.769 -2.066,1.904 -6.211,3.398c-1.682,0.734 -5.15,1.537 -10.412,2.409c-6.832,0 -11.172,-1.742 -13.008,-5.211c-2.137,-3.135 -3.203,-6.808 -3.203,-11.01c0,-6.842 2.803,-12.71 8.404,-17.612h-4.398c-1.068,0 -2.4,0.932 -4.006,2.802l-0.4,-0.401v-0.402c1.33,-5.073 3.406,-7.61 6.209,-7.61C31.621,10.833 37.225,10.637 47.902,10.098z" id="path_0"/><path fill="#CC0AE2" d="M48.756,52.439c0.205,-0.111 0.264,0.067 0.18,0.555c-1.137,2.666 -2.879,4.527 -5.227,5.577l-8.637,4.331c-0.367,-0.102 -0.436,-0.401 -0.205,-0.896c1.152,-2.222 1.939,-3.536 2.357,-3.955L48.756,52.439z" id="path_1"/></svg>