<svg id="vector" xmlns="http://www.w3.org/2000/svg" width="75" height="67" viewBox="0 0 83 73"><path fill="#CC0AE2" d="M32.74,16.458c1.435,0.265 2.895,1.067 4.398,2.399v0.401c-1.17,3.066 -1.964,4.604 -2.4,4.604c-2.238,-1.102 -3.639,-1.965 -4.202,-2.605v-0.394C31.432,18.055 32.167,16.595 32.74,16.458z" id="path_0"/><path fill="#CC0AE2" d="M34.012,27.442c2.639,0 5.167,1.136 7.61,3.408c0.077,0.981 -0.324,1.314 -1.205,0.998c-1.365,-0.939 -2.835,-1.4 -4.407,-1.4c-4.134,0.564 -6.2,1.504 -6.2,2.802c1.331,1.666 4.065,2.87 8.208,3.605h0.196l7.209,-2.409h0.401v0.401c-0.222,1.854 -1.418,3.126 -3.604,3.809c-4.535,2.068 -7.943,4.135 -10.207,6.201c-2.272,3.042 -3.408,5.511 -3.408,7.406c0,3.075 1.666,6.014 5.005,8.815c3.503,1.861 7.509,2.801 12.01,2.801l12.019,-0.606l0.196,0.206v0.4c-5.535,3.604 -10.813,5.407 -15.818,5.407h-0.599c-6.167,0 -10.438,-2.536 -12.813,-7.61c-1.068,-2.802 -1.597,-4.672 -1.597,-5.604c0,-5.373 1.468,-10.31 4.398,-14.819v-0.196c-2.665,-0.838 -3.998,-2.503 -3.998,-5.006v-0.803C28.306,30.048 30.509,27.442 34.012,27.442z" id="path_1"/><path fill="#009649" d="M39.187,3.748c0.206,-0.12 0.266,0.067 0.18,0.554C38.231,6.967 36.489,8.83 34.14,9.88l-8.636,4.331c-0.367,-0.103 -0.436,-0.401 -0.205,-0.906c1.153,-2.22 1.938,-3.535 2.357,-3.954L39.187,3.748z" id="path_2"/></svg>