<svg id="vector" xmlns="http://www.w3.org/2000/svg" width="75" height="67" viewBox="0 0 83 73"><path fill="#CC0AE2" d="M47.902,26.229l0.204,0.206v0.195c-0.701,3.604 -2.238,5.407 -4.604,5.407c-2.972,0 -6.304,1.333 -10.011,4.006c-4.133,3.468 -6.21,7.406 -6.21,11.805c0,5.979 3.408,10.113 10.216,12.41l7.005,0.607l11.215,-0.803h2.195l0.206,0.195v0.206c0,0.769 -2.068,1.904 -6.211,3.398c-1.682,0.735 -5.15,1.538 -10.412,2.409c-6.833,0 -11.172,-1.742 -13.009,-5.211c-2.136,-3.134 -3.203,-6.808 -3.203,-11.01c0,-6.842 2.803,-12.71 8.405,-17.611h-4.399c-1.067,0 -2.399,0.931 -4.006,2.801l-0.401,-0.401v-0.402c1.332,-5.072 3.408,-7.61 6.21,-7.61C31.621,26.963 37.225,26.768 47.902,26.229z" id="path_0"/><path fill="#CC0AE2" d="M39.173,6.729c2.05,0 3.074,1.264 3.074,3.783c0,4.015 -3.425,7.439 -10.283,10.259c-0.982,0.299 -1.102,-0.061 -0.351,-1.076c0.188,-0.385 1.802,-1.59 4.852,-3.605v-0.171c-1.314,-0.537 -1.974,-1.683 -1.974,-3.434c0.872,-3.835 2.256,-5.756 4.151,-5.756H39.173L39.173,6.729zM36.115,11.06c0,1.067 0.905,1.726 2.707,1.982h0.351c0.666,0 1.094,-0.249 1.272,-0.727c0,-1.085 -0.785,-1.931 -2.349,-2.528C37.413,9.787 36.755,10.214 36.115,11.06z" id="path_1"/></svg>