<svg id="vector" xmlns="http://www.w3.org/2000/svg" width="75" height="67" viewBox="0 0 83 73"><path fill="#0800F3" d="M47.905,30.281l0.197,0.205v0.196c-0.7,3.604 -2.229,5.407 -4.604,5.407c-2.965,0 -6.305,1.333 -10.012,4.006c-4.133,3.468 -6.201,7.406 -6.201,11.805c0,5.979 3.399,10.112 10.208,12.41l7.012,0.607l11.207,-0.804h2.204l0.196,0.196v0.206c0,0.769 -2.067,1.904 -6.202,3.398c-1.69,0.735 -5.158,1.537 -10.411,2.409c-6.842,0 -11.181,-1.742 -13.009,-5.211c-2.136,-3.134 -3.204,-6.808 -3.204,-11.01c0,-6.842 2.802,-12.71 8.406,-17.612h-4.408c-1.068,0 -2.399,0.932 -3.998,2.802l-0.4,-0.401v-0.402c1.332,-5.072 3.399,-7.61 6.201,-7.61C31.625,31.016 37.229,30.819 47.905,30.281z" id="path_0"/><path fill="#0800F3" d="M37.298,17.623h0.401c0.965,0 2.366,0.932 4.202,2.802v0.196c0,0.871 -0.804,2.203 -2.4,4.006c-2.81,-0.734 -4.211,-1.733 -4.211,-3.007C35.692,20.186 36.357,18.854 37.298,17.623z" id="path_1"/><path fill="#009649" d="M38.22,2.675c2.05,0 3.074,1.264 3.074,3.783c0,4.015 -3.425,7.439 -10.283,10.26c-0.982,0.299 -1.102,-0.061 -0.351,-1.076c0.188,-0.386 1.802,-1.59 4.852,-3.605v-0.171c-1.314,-0.538 -1.974,-1.683 -1.974,-3.434c0.872,-3.836 2.256,-5.757 4.151,-5.757H38.22L38.22,2.675zM35.162,7.006c0,1.067 0.905,1.725 2.707,1.981h0.351c0.666,0 1.094,-0.248 1.272,-0.727c0,-1.085 -0.785,-1.93 -2.349,-2.528C36.46,5.732 35.803,6.159 35.162,7.006z" id="path_2"/></svg>