<svg id="vector" xmlns="http://www.w3.org/2000/svg" width="75" height="67" viewBox="0 0 83 73"><path fill="#000201" d="M32.515,18.28c1.435,0.266 2.895,1.068 4.398,2.4v0.401c-1.17,3.066 -1.964,4.604 -2.4,4.604c-2.238,-1.102 -3.639,-1.965 -4.202,-2.605v-0.394C31.208,19.877 31.942,18.417 32.515,18.28z" id="path_0"/><path fill="#000201" d="M33.788,29.266c2.639,0 5.167,1.135 7.61,3.407c0.077,0.982 -0.325,1.315 -1.205,0.999c-1.366,-0.939 -2.835,-1.4 -4.407,-1.4c-4.134,0.563 -6.201,1.503 -6.201,2.802c1.332,1.666 4.065,2.87 8.209,3.604h0.196l7.209,-2.409H45.6v0.402c-0.222,1.854 -1.418,3.126 -3.604,3.809c-4.535,2.068 -7.943,4.135 -10.207,6.201c-2.272,3.041 -3.408,5.51 -3.408,7.406c0,3.075 1.666,6.013 5.005,8.814c3.503,1.862 7.509,2.802 12.01,2.802l12.019,-0.606l0.196,0.205v0.401c-5.535,3.604 -10.813,5.407 -15.818,5.407h-0.599c-6.167,0 -10.438,-2.537 -12.813,-7.611c-1.068,-2.801 -1.597,-4.671 -1.597,-5.603c0,-5.373 1.468,-10.311 4.398,-14.82v-0.195c-2.665,-0.838 -3.998,-2.503 -3.998,-5.007v-0.803C28.081,31.87 30.285,29.266 33.788,29.266z" id="path_1"/><path fill="#009649" d="M33.437,1.889c2.05,0 3.074,1.265 3.074,3.784c0,4.015 -3.425,7.439 -10.283,10.259c-0.982,0.299 -1.103,-0.061 -0.351,-1.076c0.188,-0.385 1.802,-1.59 4.852,-3.605v-0.171c-1.314,-0.537 -1.974,-1.683 -1.974,-3.434c0.872,-3.835 2.256,-5.757 4.151,-5.757H33.437L33.437,1.889zM30.379,6.22c0,1.068 0.905,1.726 2.707,1.981h0.351c0.666,0 1.094,-0.248 1.272,-0.726c0,-1.085 -0.785,-1.93 -2.349,-2.528C31.676,4.947 31.019,5.373 30.379,6.22z" id="path_2"/></svg>