<svg id="vector" xmlns="http://www.w3.org/2000/svg" width="75" height="67" viewBox="0 0 83 73"><path fill="#000201" d="M31.818,3.329c1.435,0.265 2.895,1.067 4.398,2.399v0.402c-1.17,3.066 -1.964,4.604 -2.399,4.604c-2.238,-1.102 -3.64,-1.965 -4.202,-2.604V7.735C30.51,4.926 31.246,3.466 31.818,3.329z" id="path_0"/><path fill="#000201" d="M33.09,14.313c2.64,0 5.167,1.136 7.61,3.408c0.077,0.981 -0.324,1.314 -1.204,0.999c-1.366,-0.939 -2.836,-1.401 -4.407,-1.401c-4.135,0.564 -6.201,1.504 -6.201,2.802c1.332,1.666 4.065,2.871 8.208,3.605h0.196l7.21,-2.409h0.401v0.402c-0.222,1.854 -1.418,3.126 -3.604,3.809c-4.535,2.067 -7.943,4.135 -10.208,6.201c-2.272,3.041 -3.408,5.51 -3.408,7.405c0,3.075 1.666,6.014 5.005,8.815c3.503,1.862 7.509,2.801 12.011,2.801l12.019,-0.606l0.196,0.206v0.4c-5.535,3.604 -10.814,5.407 -15.819,5.407h-0.598c-6.167,0 -10.438,-2.536 -12.813,-7.61c-1.067,-2.801 -1.597,-4.672 -1.597,-5.603c0,-5.373 1.469,-10.311 4.398,-14.82v-0.196c-2.665,-0.838 -3.997,-2.502 -3.997,-5.006V22.12C27.384,16.919 29.588,14.313 33.09,14.313z" id="path_1"/><path fill="#009649" d="M46.978,59.208c0.206,-0.111 0.266,0.068 0.18,0.555c-1.136,2.666 -2.878,4.528 -5.227,5.577l-8.636,4.331c-0.367,-0.102 -0.437,-0.4 -0.205,-0.896c1.152,-2.222 1.938,-3.537 2.357,-3.956L46.978,59.208z" id="path_2"/></svg>