<svg id="vector" xmlns="http://www.w3.org/2000/svg" width="75" height="67" viewBox="0 0 83 73"><path fill="#000004" d="M47.902,35.57h0.4c3.237,0 5.441,3.263 6.611,9.806v3.006c0,1.435 -0.803,3.365 -2.4,5.8c-3.775,4.809 -7.645,7.209 -11.616,7.209c-6.568,0 -10.711,-2.998 -12.411,-9.011l-0.4,-3.4v-0.195c0,-4.51 1.332,-8.243 4.006,-11.215l1.204,-0.803c0.265,0 0.393,0.205 0.393,0.605c-0.794,2 -1.597,3.571 -2.4,4.697c-0.803,1.138 -1.264,2.375 -1.4,3.708c0,4.972 2.34,8.175 7.004,9.609l3.604,0.4h0.206c5.269,0 9.608,-2.469 13.008,-7.405v-0.606c0,-0.7 -0.401,-1.435 -1.196,-2.194l-3.202,0.794c-3.605,-0.367 -5.407,-1.768 -5.407,-4.202V41.77c0.299,-4.006 1.23,-6.004 2.802,-6.004L47.902,35.57z" id="path_0"/><path fill="#000004" d="M41.7,25.755c1.563,0.47 3.169,1.469 4.801,3.007v0.196c-1.494,2.64 -2.366,3.973 -2.597,4.007h-0.606c-1.128,-0.172 -2.332,-0.906 -3.596,-2.205v-0.195C39.83,28.993 40.496,27.395 41.7,25.755z" id="path_1"/><path fill="#000004" d="M49.312,24.755c1.461,0.334 2.929,1.205 4.398,2.605v0.197c0,0.733 -0.804,2.066 -2.4,4.006h-0.598c-0.939,0 -2.135,-0.734 -3.604,-2.204C47.475,27.293 48.209,25.755 49.312,24.755z" id="path_2"/><path fill="#009649" d="M48.876,11.646c0.204,-0.119 0.265,0.068 0.179,0.556c-1.136,2.664 -2.879,4.526 -5.228,5.577l-8.635,4.33c-0.368,-0.103 -0.437,-0.401 -0.205,-0.905c1.152,-2.221 1.938,-3.537 2.357,-3.954L48.876,11.646z" id="path_3"/></svg>