<svg id="vector" xmlns="http://www.w3.org/2000/svg" width="75" height="67" viewBox="0 0 83 73"><path fill="#120BDF" d="M37.292,42.45h0.402c0.964,0 2.366,0.93 4.202,2.801v0.197c0,0.871 -0.795,2.203 -2.4,4.006c-2.802,-0.734 -4.202,-1.734 -4.202,-3.008C35.695,45.013 36.361,43.679 37.292,42.45z" id="path_0"/><path fill="#120BDF" d="M47.901,26.229l0.205,0.205v0.197c-0.701,3.604 -2.238,5.406 -4.604,5.406c-2.972,0 -6.304,1.332 -10.01,4.006c-4.135,3.469 -6.211,7.404 -6.211,11.803c0,5.98 3.408,10.113 10.217,12.412l7.003,0.605l11.216,-0.803h2.195l0.205,0.197v0.205c0,0.768 -2.068,1.904 -6.21,3.4c-1.683,0.734 -5.15,1.537 -10.412,2.408c-6.833,0 -11.172,-1.744 -13.009,-5.211c-2.135,-3.135 -3.203,-6.809 -3.203,-11.01c0,-6.842 2.801,-12.709 8.405,-17.611h-4.399c-1.067,0 -2.4,0.93 -4.006,2.801l-0.4,-0.402v-0.4c1.331,-5.074 3.406,-7.611 6.209,-7.611C31.62,26.964 37.225,26.769 47.901,26.229z" id="path_1"/><path fill="#000001" d="M38.497,6.729c2.049,0 3.075,1.264 3.075,3.783c0,4.014 -3.426,7.439 -10.284,10.26c-0.982,0.299 -1.102,-0.061 -0.351,-1.078c0.188,-0.383 1.803,-1.588 4.853,-3.604v-0.172c-1.316,-0.537 -1.975,-1.682 -1.975,-3.434c0.872,-3.834 2.256,-5.756 4.151,-5.756H38.497L38.497,6.729zM35.438,11.06c0,1.066 0.906,1.725 2.708,1.982h0.351c0.665,0 1.094,-0.248 1.272,-0.727c0,-1.086 -0.786,-1.93 -2.349,-2.527C36.737,9.788 36.079,10.214 35.438,11.06z" id="path_2"/></svg>