<svg id="vector" xmlns="http://www.w3.org/2000/svg" width="75" height="67" viewBox="0 0 83 73"><path fill="#000000" d="M37.293,26.247h0.401c0.965,0 2.366,0.93 4.203,2.801v0.197c0,0.869 -0.795,2.203 -2.4,4.006c-2.802,-0.736 -4.203,-1.734 -4.203,-3.008C35.696,28.808 36.362,27.476 37.293,26.247z" id="path_0"/><path fill="#190A00" d="M47.902,10.026l0.205,0.203v0.197c-0.701,3.605 -2.239,5.406 -4.604,5.406c-2.972,0 -6.305,1.334 -10.01,4.006c-4.136,3.469 -6.211,7.406 -6.211,11.805c0,5.979 3.408,10.113 10.217,12.41l7.003,0.607l11.215,-0.803h2.195l0.205,0.195v0.205c0,0.77 -2.067,1.906 -6.209,3.4c-1.683,0.734 -5.15,1.537 -10.412,2.408c-6.834,0 -11.173,-1.742 -13.009,-5.211c-2.136,-3.133 -3.203,-6.807 -3.203,-11.008c0,-6.844 2.801,-12.711 8.404,-17.613H29.29c-1.068,0 -2.4,0.932 -4.006,2.801l-0.401,-0.4v-0.402c1.332,-5.072 3.407,-7.609 6.21,-7.609C31.621,10.761 37.225,10.563 47.902,10.026z" id="path_1"/><path fill="#e2610a" d="M48.081,52.511c0.205,-0.111 0.265,0.068 0.179,0.555c-1.136,2.666 -2.878,4.527 -5.228,5.578l-8.635,4.33c-0.368,-0.102 -0.437,-0.4 -0.205,-0.896c1.153,-2.221 1.938,-3.537 2.357,-3.955L48.081,52.511z" id="path_2"/></svg>