<svg id="vector" xmlns="http://www.w3.org/2000/svg" width="75" height="67" viewBox="0 0 83 73"><path fill="#E20A0A" d="M44.116,64.41c-0.048,1.502 -0.286,2.861 -0.723,4.076c-0.492,0.77 -0.858,1.16 -1.089,1.16c-0.254,0.016 -0.365,-0.383 -0.35,-1.184c-0.389,-8.709 -0.938,-16.193 -1.629,-22.461C40,42.912 39.555,40.377 39,38.391c-0.238,-0.764 -0.366,-1.469 -0.397,-2.121c-0.017,-1.208 0.167,-2.606 0.557,-4.187l1.097,-4.053c0.134,-0.126 0.285,-0.189 0.437,-0.189c0.19,0 0.325,0.262 0.397,0.793c0.063,0.723 0.15,1.161 0.27,1.313c0.12,0.15 0.541,1.397 1.271,3.757c0.461,1.533 1.032,2.74 1.699,3.631c0.041,0.293 0.064,0.58 0.064,0.857c0.031,0.588 -0.128,1.398 -0.477,2.432c-0.35,1.033 -0.58,1.748 -0.707,2.154l-0.167,0.697L44.116,64.41z" id="path_0"/><path fill="#E20A0A" d="M43.487,3.354c-0.797,0 -1.631,0.52 -2.438,1.575c-0.713,0.899 -1.168,1.743 -1.168,2.605c0,1.306 1.195,2.094 2.086,2.715c-1.085,1.492 -4.394,4.051 -6.108,4.996c-0.704,0.38 -1.111,0.491 -1.111,0.76c0,0.167 0.296,0.278 0.814,0.278c1.058,0 2.059,-0.353 2.93,-0.76c2.391,-1.095 3.93,-3.05 4.894,-4.569l1.001,0.63c0.056,0.028 0.111,0.028 0.223,-0.139c0.352,-0.491 0.649,-1.224 0.649,-1.956c0,-0.213 -0.27,-0.463 -0.705,-0.732c0.38,-0.945 0.593,-1.928 0.593,-2.929C45.091,4.744 44.738,3.354 43.487,3.354L43.487,3.354zM42.662,5.856c0.428,0 0.64,0.296 0.668,0.861c0,0.603 -0.056,0.983 -0.24,1.308c-0.696,-0.324 -1.558,-0.927 -1.558,-1.168c0,-0.057 0.027,-0.084 0.056,-0.14C41.856,6.18 42.338,5.856 42.662,5.856z" id="path_1"/><path fill="#E20A0A" d="M46.834,21.652c-1.952,0.726 -3.904,1.452 -5.842,2.192c-2.258,0.849 -4.122,1.734 -5.596,2.663c-0.152,-0.029 -0.254,-0.116 -0.298,-0.262c0.088,-0.521 0.501,-1.073 1.256,-1.64c0.595,-0.393 1.183,-0.791 1.764,-1.19l1.509,-0.762c-0.138,-0.146 -0.297,-0.291 -0.479,-0.436c-0.174,-0.152 -0.313,-0.29 -0.414,-0.413c-0.521,-0.53 -0.791,-1.111 -0.805,-1.75c0.064,-0.449 0.239,-0.943 0.508,-1.487c0.428,-0.66 0.675,-1.096 0.747,-1.292c1.205,-2.075 2.525,-3.084 3.97,-3.041c1.662,0.254 2.686,0.951 3.063,2.083c0.145,0.138 0.268,0.465 0.384,0.979c0,0.211 -0.152,0.349 -0.449,0.422c-0.791,-0.566 -1.641,-0.958 -2.548,-1.169c-1.248,-0.269 -2.358,-0.108 -3.338,0.486c-0.073,0.088 -0.131,0.174 -0.167,0.261c0,0.095 0.043,0.378 0.145,0.85c0.835,1.161 1.945,1.88 3.316,2.147c0.443,0.139 0.907,0.196 1.401,0.167c0.711,-0.268 1.8,-0.631 3.28,-1.081c0.015,0.065 0.015,0.16 0,0.276c-0.029,0.196 -0.146,0.516 -0.342,0.958c-0.174,0.45 -0.275,0.682 -0.319,0.696C47.314,21.471 47.06,21.58 46.834,21.652z" id="path_2"/></svg>