<svg id="vector" xmlns="http://www.w3.org/2000/svg" width="75" height="67" viewBox="0 0 83 73"><path fill="#E20A0A" d="M51.212,9.685c0.367,0 0.632,0.998 0.803,3.006l1.999,3.4v0.205c0,0.896 -0.402,2.502 -1.205,4.8l1.205,13.615v4.8c-0.437,2.775 -2.034,5.51 -4.81,8.209c-2.767,2.135 -5.236,3.203 -7.405,3.203h-1.196c-5.808,0 -9.55,-2.871 -11.215,-8.604l-0.401,-3.604c0,-3.707 1.605,-6.978 4.809,-9.814h0.196l0.401,0.402c0,0.733 -0.931,2.536 -2.801,5.406c-0.402,1.033 -0.598,1.964 -0.598,2.8v0.205c0,3.4 2.733,5.869 8.207,7.406l2.401,0.197h0.4c3.87,0 7.27,-1.803 10.208,-5.408l0.196,-0.598c-1.597,-13.948 -2.4,-22.49 -2.4,-25.624v-0.402C50.007,11.82 50.408,10.625 51.212,9.685z" id="path_0"/><path fill="#1305c6" d="M48.452,52.854c0.205,-0.111 0.266,0.068 0.18,0.555c-1.136,2.666 -2.879,4.527 -5.228,5.578l-8.636,4.33c-0.367,-0.104 -0.436,-0.402 -0.205,-0.898c1.153,-2.219 1.939,-3.535 2.358,-3.953L48.452,52.854z" id="path_1"/></svg>