<svg id="vector" xmlns="http://www.w3.org/2000/svg" width="75" height="67" viewBox="0 0 83 73"><path fill="#000000" d="M55.281,25.065c1.402,-0.121 2.125,0.242 2.172,1.096v1.301c-0.361,3.482 -0.725,5.227 -1.086,5.227h-0.213c-0.27,-1.021 -1.143,-1.521 -2.609,-1.521c-3.02,0 -6.203,2.246 -9.584,6.74v0.438c0,0.723 2.471,1.383 7.4,1.959c1.311,1.271 1.961,2.645 1.961,4.131c0,4.105 -3.623,8.525 -10.883,13.279c-1.887,1.012 -3.771,1.523 -5.656,1.523c-4.967,0 -8.525,-3.045 -10.67,-9.139c-0.686,-2.125 -0.752,-5.088 -0.186,-8.885c0.559,-3.799 2.238,-6.148 5.033,-7.057l0.381,0.055c0.547,0.287 0.148,1.113 -1.18,2.488c-1.336,1.365 -2.172,3.148 -2.516,5.35v1.734c0,3.482 1.885,6.314 5.654,8.488c1.309,0.586 2.684,0.873 4.133,0.873h0.873c4.205,0 8.412,-2.033 12.619,-6.092l-6.742,-1.521c-1.16,-0.773 -1.744,-1.785 -1.744,-3.057v-2.609c0.055,-3.992 1.939,-7.623 5.662,-10.91C49.477,27.524 51.873,26.226 55.281,25.065z" id="path_0"/><path fill="#1305c6" d="M46.469,13.802c0.223,-0.129 0.289,0.074 0.195,0.604c-1.236,2.896 -3.129,4.922 -5.684,6.064l-9.387,4.707c-0.4,-0.111 -0.475,-0.436 -0.225,-0.984c1.254,-2.414 2.107,-3.846 2.564,-4.299L46.469,13.802z" id="path_1"/></svg>