<svg id="vector" xmlns="http://www.w3.org/2000/svg" width="75" height="67" viewBox="0 0 83 73"><path fill="#000000" d="M51.211,16.561c0.367,0 0.633,0.999 0.804,3.006l1.998,3.4v0.205c0,0.896 -0.402,2.503 -1.205,4.8l1.205,13.616v4.799c-0.436,2.777 -2.033,5.51 -4.809,8.209c-2.768,2.135 -5.237,3.203 -7.406,3.203h-1.195c-5.808,0 -9.55,-2.869 -11.216,-8.602l-0.4,-3.604c0,-3.707 1.605,-6.979 4.809,-9.815h0.196l0.401,0.402c0,0.733 -0.931,2.536 -2.801,5.407c-0.402,1.033 -0.598,1.965 -0.598,2.801v0.205c0,3.4 2.733,5.869 8.207,7.406l2.4,0.195h0.401c3.87,0 7.27,-1.803 10.207,-5.406l0.197,-0.598c-1.598,-13.949 -2.4,-22.49 -2.4,-25.625v-0.401C50.007,18.697 50.408,17.5 51.211,16.561z" id="path_0"/><path fill="#e2610a" d="M46.855,15.237c0.205,-0.119 0.265,0.068 0.179,0.556c-1.136,2.664 -2.878,4.526 -5.228,5.577l-8.635,4.33c-0.367,-0.103 -0.436,-0.401 -0.205,-0.905c1.153,-2.221 1.939,-3.537 2.357,-3.954L46.855,15.237z" id="path_1"/></svg>