<svg id="vector" xmlns="http://www.w3.org/2000/svg" width="75" height="67" viewBox="0 0 83 73"><path fill="#E20A0A" d="M60.415,36.803h0.401c0.471,0 0.735,1.334 0.803,4.006v0.795c0,4.408 -1.332,6.611 -4.006,6.611c-2.536,-0.701 -3.801,-1.57 -3.801,-2.605h-0.195c-0.803,2.137 -2.076,3.203 -3.811,3.203l-1.998,-0.195c0.102,0.998 0.102,1.734 0,2.195c-0.666,4.006 -2.127,7.318 -4.382,9.949c-2.247,2.631 -5.193,3.982 -8.832,4.066h-0.803c-5.74,0 -9.806,-3.203 -12.206,-9.609l-0.205,-2.801v-0.803c0.401,-6.475 2.271,-10.412 5.603,-11.814l0.206,0.205v0.197l-3.007,5.006c-0.564,1.17 -0.965,2.639 -1.195,4.406c0,4.168 2.801,7.234 8.404,9.209l1.999,0.195h1.605c4.535,0 8.474,-2.469 11.813,-7.404v-0.197c-0.273,-1.939 -1.272,-4.143 -3.006,-6.611l-0.197,-0.998v-3.803l0.402,-0.4h0.195c1.573,2.271 3.502,3.4 5.809,3.4h0.197c1.768,0 3.1,-1.334 4.006,-3.998l0.195,-0.205h0.402l0.4,0.4v0.598l-0.195,0.805c0.794,1.203 1.861,1.801 3.203,1.801h0.195c1.205,0 1.803,-1.135 1.803,-3.398L60.415,36.803z" id="path_0"/><path fill="#E20A0A" d="M47.859,27.793c0.829,0 2.297,0.998 4.398,3.006c0,0.668 -0.793,2.135 -2.4,4.398h-0.4c-0.829,0 -2.102,-0.793 -3.801,-2.4v-0.195C45.656,31.799 46.391,30.193 47.859,27.793z" id="path_1"/><path fill="#E20A0A" d="M55.068,26.793c3.331,1.436 4.997,2.572 4.997,3.4c-0.196,0.639 -1.128,2.041 -2.802,4.211c-2.229,-0.871 -3.835,-1.871 -4.801,-3.008C53.164,29.16 54.026,27.629 55.068,26.793z" id="path_2"/><path fill="#E20A0A" d="M50.26,20.984c3.066,1.273 4.604,2.34 4.604,3.203l-2.605,4.006h-0.195c-0.564,0 -2.102,-0.803 -4.604,-2.398C48.688,22.592 49.628,20.984 50.26,20.984z" id="path_3"/><path fill="#000001" d="M46.955,8.174c2.049,0 3.075,1.264 3.075,3.783c0,4.014 -3.426,7.439 -10.285,10.258c-0.981,0.299 -1.102,-0.061 -0.35,-1.076c0.188,-0.385 1.803,-1.588 4.852,-3.604v-0.172c-1.315,-0.537 -1.974,-1.682 -1.974,-3.434c0.872,-3.836 2.256,-5.756 4.151,-5.756H46.955L46.955,8.174zM43.896,12.504c0,1.066 0.905,1.725 2.708,1.98h0.351c0.665,0 1.094,-0.246 1.272,-0.727c0,-1.084 -0.786,-1.928 -2.349,-2.525C45.195,11.232 44.537,11.658 43.896,12.504z" id="path_4"/></svg>