<svg id="vector" xmlns="http://www.w3.org/2000/svg" width="75" height="67" viewBox="0 0 83 73"><path fill="#009649" d="M45.762,32.681c1.326,1.336 2.585,4.213 3.769,8.653l0.227,2.889c0,5.215 -2.594,8.766 -7.771,10.648l-1.554,0.219l-3.938,0.057L32.67,55.09l-0.218,-0.219v-0.227c0.473,-0.512 3.654,-2.063 9.533,-4.658c3.701,-2.102 5.699,-3.957 5.992,-5.547c-1.922,-4.1 -2.879,-6.467 -2.879,-7.102v-0.662C45.099,34.017 45.317,32.681 45.762,32.681z" id="path_0"/><path fill="#010007" d="M50.308,17.894c0.227,-0.132 0.293,0.076 0.197,0.616c-1.258,2.953 -3.189,5.018 -5.793,6.183l-9.57,4.799c-0.408,-0.113 -0.484,-0.444 -0.228,-1.003c1.277,-2.462 2.147,-3.921 2.612,-4.384L50.308,17.894z" id="path_1"/></svg>