<svg id="vector" xmlns="http://www.w3.org/2000/svg" width="75" height="67" viewBox="0 0 83 73"><path fill="#000000" d="M40.227,19.675h0.465c2.162,0.494 4.088,1.66 5.786,3.467v0.465c-0.147,1.234 -1.076,2.854 -2.775,4.858c-4.009,-1.343 -6.015,-2.509 -6.015,-3.466C38.646,22.224 39.496,20.446 40.227,19.675z" id="path_0"/><path fill="#000000" d="M52.503,15.044h0.454c0.543,0 1.856,3.476 3.941,10.418l0.227,0.92c0,5.441 -1.314,9.382 -3.932,11.811C49.49,42.205 45.096,44.209 40,44.209c-4.169,-0.928 -6.865,-1.848 -8.1,-2.775c-4.021,-3.438 -6.025,-7.684 -6.025,-12.73c0,-4.247 1.857,-8.258 5.561,-12.04l0.229,-0.229h0.463l0.465,0.455c0,0.396 -1.076,2.084 -3.24,5.097c-0.622,1.076 -1.007,2.548 -1.154,4.396c0,3.596 1.847,6.676 5.549,9.264c3.626,1.391 6.095,2.083 7.408,2.083c3.318,0 7.249,-1.471 11.803,-4.395c1.856,-1.628 2.785,-2.625 2.785,-3.011l-3.239,-9.026l-0.237,-1.621L52.503,15.044z" id="path_1"/><path fill="#0000FF" d="M49.629,45.859c0.237,-0.129 0.307,0.078 0.207,0.641c-1.313,3.082 -3.328,5.234 -6.045,6.449l-9.984,5.008c-0.426,-0.119 -0.504,-0.465 -0.236,-1.037c1.332,-2.568 2.241,-4.09 2.726,-4.572L49.629,45.859z" id="path_2"/></svg>