<svg id="vector" xmlns="http://www.w3.org/2000/svg" width="75" height="67" viewBox="0 0 83 73"><path fill="#0000FF" d="M40.226,36.191h0.465c2.163,0.493 4.09,1.659 5.787,3.465v0.465c-0.148,1.234 -1.076,2.854 -2.775,4.859c-4.009,-1.342 -6.015,-2.51 -6.015,-3.467C38.646,38.738 39.495,36.96 40.226,36.191z" id="path_0"/><path fill="#0000FF" d="M52.503,31.558h0.454c0.544,0 1.856,3.477 3.94,10.42l0.227,0.918c0,5.441 -1.313,9.383 -3.93,11.813c-3.704,4.01 -8.1,6.016 -13.195,6.016c-4.168,-0.93 -6.863,-1.848 -8.099,-2.777c-4.021,-3.436 -6.024,-7.684 -6.024,-12.729c0,-4.248 1.855,-8.258 5.56,-12.041l0.228,-0.228h0.464l0.465,0.454c0,0.396 -1.076,2.085 -3.24,5.097c-0.622,1.076 -1.007,2.547 -1.155,4.395c0,3.596 1.848,6.676 5.551,9.264c3.625,1.393 6.094,2.084 7.406,2.084c3.32,0 7.25,-1.471 11.804,-4.395c1.856,-1.629 2.784,-2.627 2.784,-3.012l-3.238,-9.027l-0.237,-1.62L52.503,31.558z" id="path_1"/><path fill="#E20A0A" d="M48.671,12.318c0.236,-0.137 0.306,0.08 0.207,0.643c-1.313,3.081 -3.328,5.234 -6.045,6.45l-9.984,5.007c-0.426,-0.119 -0.504,-0.464 -0.237,-1.047c1.333,-2.568 2.241,-4.09 2.726,-4.573L48.671,12.318z" id="path_2"/></svg>