<svg id="vector" xmlns="http://www.w3.org/2000/svg" width="75" height="67" viewBox="0 0 83 73"><path fill="#000000" d="M37.178,19.46h0.393c0.436,0.666 1.307,2.87 2.605,6.603l-1.195,5.006l0.598,9.609l-0.402,1.605h0.197c2.374,-2.537 5.228,-3.811 8.559,-3.811h0.205c3.433,0 5.439,1.607 6.004,4.809c0,4.674 -1.87,7.875 -5.604,9.611c0,0.494 -4.459,0.965 -13.367,1.4l-6.807,-0.598v-0.607c0,-0.529 2.074,-1.264 6.209,-2.195l2.803,-6.406v-2.811L35.974,24.26C35.974,23.527 36.375,21.929 37.178,19.46L37.178,19.46zM37.375,50.09c7.139,-0.803 11.589,-1.605 13.357,-2.4l1.41,-1.008c-1.376,-1.998 -3.375,-2.998 -6.014,-2.998h-1.947c-1.998,0 -4.135,1.734 -6.406,5.201L37.375,50.09z" id="path_0"/><path fill="#00FF7C" d="M51.562,18.708c2.05,0 3.075,1.264 3.075,3.784c0,4.014 -3.426,7.439 -10.284,10.259c-0.981,0.299 -1.102,-0.061 -0.351,-1.077c0.188,-0.384 1.803,-1.589 4.853,-3.604v-0.172c-1.315,-0.537 -1.974,-1.683 -1.974,-3.434c0.871,-3.835 2.256,-5.757 4.15,-5.757H51.562L51.562,18.708zM48.503,23.04c0,1.066 0.906,1.725 2.708,1.981h0.351c0.666,0 1.094,-0.248 1.272,-0.727c0,-1.085 -0.785,-1.93 -2.348,-2.527C49.802,21.767 49.145,22.194 48.503,23.04z" id="path_1"/></svg>