<svg id="vector" xmlns="http://www.w3.org/2000/svg" width="75" height="67" viewBox="0 0 83 73"><path fill="#2D0AFF" d="M46.157,34.702c1.326,1.335 2.586,4.212 3.768,8.654l0.229,2.887c0,5.217 -2.594,8.766 -7.773,10.65l-1.553,0.217l-3.938,0.057l-3.824,-0.057l-0.219,-0.217v-0.229c0.474,-0.51 3.655,-2.063 9.533,-4.656c3.701,-2.102 5.699,-3.957 5.994,-5.549c-1.924,-4.098 -2.879,-6.465 -2.879,-7.1v-0.662C45.495,36.037 45.712,34.702 46.157,34.702z" id="path_0"/><path fill="#000000" d="M44.577,15.834c2.271,0 3.408,1.4 3.408,4.194c0,4.448 -3.797,8.245 -11.398,11.37c-1.088,0.331 -1.221,-0.066 -0.388,-1.193c0.208,-0.426 1.998,-1.761 5.378,-3.995v-0.189c-1.459,-0.596 -2.188,-1.864 -2.188,-3.806c0.965,-4.251 2.5,-6.381 4.6,-6.381H44.577L44.577,15.834zM41.187,20.635c0,1.182 1.004,1.911 3.002,2.196h0.389c0.738,0 1.213,-0.275 1.41,-0.806c0,-1.203 -0.871,-2.139 -2.604,-2.802C42.626,19.224 41.897,19.698 41.187,20.635z" id="path_1"/></svg>