<svg id="vector" xmlns="http://www.w3.org/2000/svg" width="75" height="67" viewBox="0 0 83 73"><path fill="#000000" d="M37.426,12.276h0.393c0.436,0.666 1.307,2.871 2.605,6.603l-1.195,5.006l0.598,9.608l-0.402,1.606h0.197c2.375,-2.537 5.229,-3.81 8.559,-3.81h0.205c3.434,0 5.441,1.605 6.004,4.809c0,4.673 -1.869,7.875 -5.604,9.609c0,0.496 -4.459,0.965 -13.367,1.4l-6.807,-0.598v-0.605c0,-0.529 2.076,-1.264 6.209,-2.195l2.803,-6.406v-2.81l-1.4,-17.417C36.223,16.342 36.623,14.745 37.426,12.276L37.426,12.276zM37.623,42.906c7.141,-0.805 11.59,-1.607 13.357,-2.4l1.41,-1.008c-1.375,-2 -3.373,-2.999 -6.014,-2.999H44.43c-1.998,0 -4.133,1.735 -6.406,5.202L37.623,42.906z" id="path_0"/><path fill="#0CF87F" d="M47.053,50.26c0.205,-0.111 0.264,0.068 0.178,0.555c-1.135,2.666 -2.877,4.527 -5.227,5.578l-8.635,4.332c-0.369,-0.104 -0.436,-0.402 -0.205,-0.898c1.152,-2.221 1.938,-3.537 2.357,-3.955L47.053,50.26z" id="path_1"/></svg>