<svg id="vector" xmlns="http://www.w3.org/2000/svg" width="75" height="67" viewBox="0 0 83 73"><path fill="#0000FF" d="M39.241,37.393c6.807,2.434 10.207,5.441 10.207,9.012l0.205,1.195c-0.572,4.672 -2.111,7.004 -4.613,7.004c0,0.436 -3.33,0.975 -10.002,1.605l-0.205,-0.598c0,-3.34 0.598,-5.006 1.803,-5.006c6.672,-0.537 10.344,-1.34 11.01,-2.408c-2.297,-2.229 -5.305,-4.031 -9.012,-5.398l-0.195,-1.008C38.54,38.861 38.805,37.393 39.241,37.393z" id="path_0"/><path fill="#010007" d="M41.393,16.791c2.049,0 3.076,1.264 3.076,3.783c0,4.014 -3.426,7.439 -10.285,10.258c-0.982,0.301 -1.102,-0.059 -0.35,-1.076c0.188,-0.383 1.803,-1.588 4.852,-3.604V25.98c-1.316,-0.537 -1.975,-1.682 -1.975,-3.434c0.873,-3.834 2.256,-5.756 4.152,-5.756H41.393L41.393,16.791zM38.334,21.121c0,1.066 0.906,1.725 2.709,1.982h0.35c0.666,0 1.094,-0.248 1.271,-0.727c0,-1.086 -0.785,-1.93 -2.348,-2.527C39.633,19.85 38.975,20.275 38.334,21.121z" id="path_1"/></svg>