<svg id="vector" xmlns="http://www.w3.org/2000/svg" width="75" height="67" viewBox="0 0 83 73"><path fill="#000000" d="M37.673,33.998c1.563,0.469 3.169,1.469 4.801,3.006v0.197c-1.504,2.639 -2.366,3.971 -2.605,4.006h-0.598c-1.136,-0.162 -2.331,-0.896 -3.604,-2.203v-0.197C35.803,37.234 36.47,35.637 37.673,33.998z" id="path_0"/><path fill="#000000" d="M45.275,34.398c1.47,0.334 2.938,1.205 4.407,2.605v0.197c0,0.734 -0.803,2.074 -2.4,4.006h-0.606c-0.931,0 -2.136,-0.734 -3.604,-2.203C43.438,36.936 44.173,35.398 45.275,34.398z" id="path_1"/><path fill="#000000" d="M29.089,36.604h0.196l0.402,0.4c-1.068,2.367 -1.598,3.973 -1.598,4.801c0,3.902 3.732,6.176 11.207,6.807l2.399,0.402c2.409,0 6.005,-0.734 10.813,-2.203l2.802,-1.598c-0.931,-1.699 -1.538,-3.17 -1.803,-4.408l0.402,-3.801h0.4c1.598,1.666 2.4,4.605 2.4,8.807c0,4.039 -3.536,6.773 -10.608,8.207l-3.006,0.402c-11.207,0 -16.81,-3.672 -16.81,-11.01C26.288,40.344 27.219,38.072 29.089,36.604z" id="path_2"/><path fill="#1305c6" d="M48.3,18.615c0.204,-0.119 0.265,0.068 0.179,0.555c-1.136,2.664 -2.879,4.527 -5.228,5.578l-8.635,4.33c-0.368,-0.102 -0.437,-0.4 -0.205,-0.904c1.152,-2.223 1.938,-3.537 2.357,-3.955L48.3,18.615z" id="path_3"/></svg>