<svg id="vector" xmlns="http://www.w3.org/2000/svg" width="75" height="67" viewBox="0 0 83 73"><path fill="#0000FF" d="M37.444,49.386c-1.146,0.638 -1.64,1.027 -1.952,1.521c-0.338,0.573 -0.65,1.9 -0.65,2.747c0,0.116 0.039,0.26 0.273,0.155l11.502,-6.454c0.846,-0.494 1.418,-2.056 1.418,-3.655c0,-0.262 -0.117,-0.3 -0.39,-0.157L37.444,49.386z" id="path_0"/><path fill="#010007" d="M38.612,26.292l-2.633,-1.826c-0.167,-1.239 -0.122,-2.921 0.149,-5.064l0.577,0.208c1.238,0.818 3.139,1.97 5.702,3.456c1.792,-1.55 3.469,-2.823 5.03,-3.813c0.541,-0.19 0.778,-0.104 0.708,0.253c-0.271,0.789 -0.962,1.596 -2.074,2.43c-1.227,0.957 -2.022,1.683 -2.379,2.178c2.247,1.618 3.514,3.514 3.796,5.686c0.104,3.007 -0.305,5.213 -1.215,6.636c-1.025,1.676 -2.834,2.598 -5.432,2.765c-1.895,0.122 -3.375,-0.5 -4.458,-1.872c-0.732,-0.968 -1.095,-2.108 -1.095,-3.428c0,-1.313 0.363,-2.753 1.095,-4.303c0.178,-0.519 0.506,-1.106 0.979,-1.774C37.788,27.316 38.208,26.81 38.612,26.292L38.612,26.292zM39.643,27.305c-0.991,1.313 -1.7,2.338 -2.131,3.07c-0.237,0.403 -0.351,0.801 -0.351,1.181c0,0.898 0.483,1.589 1.452,2.074c0.754,0.375 1.635,0.558 2.649,0.558c1.002,0 1.878,-0.167 2.632,-0.506c1.015,-0.449 1.688,-0.928 2.022,-1.434c-0.513,-0.945 -1.394,-1.867 -2.633,-2.766c-1.042,-0.72 -2.079,-1.445 -3.104,-2.177H39.643z" id="path_1"/></svg>