<svg id="vector" xmlns="http://www.w3.org/2000/svg" width="75" height="67" viewBox="0 0 83 73"><path fill="#0000FF" d="M37.673,18.631c1.564,0.471 3.17,1.471 4.801,3.008v0.195c-1.503,2.641 -2.365,3.973 -2.605,4.006h-0.598c-1.135,-0.16 -2.33,-0.896 -3.604,-2.203v-0.197C35.803,21.869 36.47,20.271 37.673,18.631z" id="path_0"/><path fill="#0000FF" d="M45.276,19.033c1.469,0.334 2.938,1.203 4.406,2.605v0.195c0,0.736 -0.803,2.076 -2.4,4.006h-0.605c-0.932,0 -2.137,-0.734 -3.605,-2.203C43.438,21.57 44.175,20.033 45.276,19.033z" id="path_1"/><path fill="#0000FF" d="M29.09,21.236h0.196l0.401,0.402c-1.067,2.365 -1.598,3.971 -1.598,4.801c0,3.902 3.733,6.174 11.207,6.807l2.399,0.402c2.41,0 6.006,-0.736 10.814,-2.205l2.801,-1.598c-0.93,-1.699 -1.537,-3.168 -1.803,-4.406l0.402,-3.801h0.4c1.598,1.664 2.4,4.604 2.4,8.807c0,4.039 -3.535,6.771 -10.607,8.207l-3.006,0.402c-11.207,0 -16.811,-3.674 -16.811,-11.01C26.288,24.979 27.22,22.705 29.09,21.236z" id="path_2"/><path fill="#000001" d="M47.626,43.906c0.205,-0.111 0.264,0.068 0.178,0.555c-1.135,2.666 -2.877,4.527 -5.227,5.578l-8.636,4.33c-0.368,-0.104 -0.437,-0.402 -0.204,-0.898c1.152,-2.219 1.938,-3.535 2.356,-3.953L47.626,43.906z" id="path_3"/></svg>