<svg id="vector" xmlns="http://www.w3.org/2000/svg" width="75" height="67" viewBox="0 0 83 73"><path fill="#010007" d="M39.316,19.945c6.807,2.436 10.207,5.443 10.207,9.014l0.205,1.195c-0.572,4.672 -2.109,7.004 -4.613,7.004c0,0.436 -3.33,0.973 -10.002,1.605l-0.205,-0.598c0,-3.34 0.598,-5.006 1.803,-5.006c6.672,-0.539 10.344,-1.342 11.01,-2.408c-2.297,-2.23 -5.305,-4.033 -9.012,-5.398l-0.195,-1.008C38.615,21.416 38.88,19.945 39.316,19.945z" id="path_0"/><path fill="#e2610a" d="M47.294,42.59c0.205,-0.111 0.266,0.068 0.178,0.555c-1.135,2.666 -2.877,4.527 -5.227,5.578l-8.635,4.33c-0.368,-0.102 -0.437,-0.4 -0.205,-0.896c1.152,-2.221 1.938,-3.537 2.357,-3.955L47.294,42.59z" id="path_1"/></svg>