<svg id="vector" xmlns="http://www.w3.org/2000/svg" width="75" height="67" viewBox="0 0 83 73"><path fill="#0000FF" d="M60.414,17.495h0.402c0.469,0 0.734,1.333 0.803,4.006v0.795c0,4.407 -1.34,6.611 -4.006,6.611c-2.537,-0.701 -3.801,-1.571 -3.801,-2.605h-0.205c-0.803,2.136 -2.068,3.203 -3.801,3.203l-2.008,-0.196c0.104,0.999 0.104,1.734 0,2.195c-0.666,4.006 -2.127,7.319 -4.373,9.95c-2.256,2.631 -5.201,3.98 -8.832,4.065h-0.803c-5.74,0 -9.814,-3.203 -12.215,-9.609l-0.195,-2.801v-0.803c0.4,-6.475 2.264,-10.412 5.602,-11.813l0.197,0.205v0.197L24.182,25.9c-0.572,1.17 -0.965,2.639 -1.205,4.407c0,4.168 2.803,7.234 8.414,9.208l1.998,0.195h1.598c4.545,0 8.482,-2.468 11.814,-7.404V32.11c-0.266,-1.939 -1.266,-4.144 -3,-6.611l-0.203,-1v-3.801l0.4,-0.4h0.205c1.563,2.271 3.502,3.398 5.799,3.398h0.207c1.766,0 3.1,-1.333 3.996,-3.996l0.205,-0.205h0.402l0.4,0.4v0.598l-0.205,0.803c0.803,1.205 1.871,1.803 3.203,1.803h0.205c1.195,0 1.803,-1.136 1.803,-3.398L60.414,17.495z" id="path_0"/><path fill="#e2610a" d="M54.061,45.042c0.205,-0.111 0.264,0.067 0.178,0.555c-1.135,2.665 -2.877,4.526 -5.227,5.577l-8.635,4.331c-0.369,-0.103 -0.436,-0.401 -0.205,-0.897c1.152,-2.221 1.938,-3.536 2.357,-3.954L54.061,45.042z" id="path_1"/></svg>