<svg id="vector" xmlns="http://www.w3.org/2000/svg" width="75" height="67" viewBox="0 0 83 73"><path fill="#E30D50" d="M60.414,30.475h0.402c0.47,0 0.734,1.332 0.803,4.006v0.795c0,4.406 -1.341,6.611 -4.006,6.611c-2.538,-0.701 -3.802,-1.572 -3.802,-2.605h-0.204c-0.804,2.136 -2.067,3.203 -3.802,3.203l-2.008,-0.197c0.104,1 0.104,1.734 0,2.195c-0.665,4.006 -2.125,7.32 -4.372,9.95c-2.255,2.632 -5.202,3.981 -8.831,4.066h-0.803c-5.741,0 -9.814,-3.203 -12.215,-9.609l-0.196,-2.802v-0.803c0.401,-6.474 2.263,-10.412 5.603,-11.813l0.197,0.205v0.196l-2.998,5.005c-0.572,1.171 -0.965,2.64 -1.205,4.408c0,4.168 2.802,7.233 8.414,9.207l1.998,0.196h1.598c4.543,0 8.481,-2.469 11.813,-7.405V45.09c-0.265,-1.939 -1.265,-4.144 -2.998,-6.611l-0.205,-1v-3.801l0.4,-0.401h0.205c1.564,2.271 3.502,3.399 5.8,3.399h0.206c1.768,0 3.1,-1.333 3.997,-3.997l0.205,-0.205h0.401l0.401,0.401v0.598l-0.205,0.803c0.803,1.205 1.87,1.803 3.203,1.803h0.205c1.196,0 1.803,-1.136 1.803,-3.399L60.414,30.475z" id="path_0"/><path fill="#0000FF" d="M52.702,14.536c0.205,-0.118 0.266,0.069 0.18,0.556c-1.137,2.665 -2.879,4.527 -5.229,5.578L39.019,25c-0.367,-0.102 -0.436,-0.401 -0.205,-0.904c1.153,-2.222 1.939,-3.538 2.357,-3.956L52.702,14.536z" id="path_1"/></svg>