<svg id="vector" xmlns="http://www.w3.org/2000/svg" width="75" height="67" viewBox="0 0 83 73"><path fill="#009649" d="M45.608,29.979c1.633,0.272 3.238,1.272 4.801,3.006v0.402c-0.999,2.664 -1.734,3.997 -2.204,3.997c-3.202,-1.095 -4.8,-1.965 -4.8,-2.597C43.405,33.55 44.14,31.952 45.608,29.979z" id="path_0"/><path fill="#009649" d="M37.426,24.453h0.393c0.436,0.665 1.307,2.87 2.605,6.602l-1.195,5.006l0.598,9.608l-0.402,1.606h0.197c2.374,-2.537 5.228,-3.81 8.559,-3.81h0.205c3.433,0 5.439,1.605 6.004,4.809c0,4.673 -1.871,7.875 -5.604,9.609c0,0.495 -4.459,0.965 -13.367,1.4l-6.808,-0.598V58.08c0,-0.529 2.075,-1.264 6.21,-2.194l2.803,-6.407v-2.81l-1.401,-17.417C36.222,28.519 36.624,26.921 37.426,24.453L37.426,24.453zM37.624,55.083c7.139,-0.804 11.589,-1.607 13.357,-2.4l1.41,-1.008c-1.376,-2 -3.375,-2.999 -6.014,-2.999H44.43c-1.998,0 -4.135,1.734 -6.406,5.202L37.624,55.083z" id="path_1"/><path fill="#0000FF" d="M49.862,13.717c2.05,0 3.076,1.264 3.076,3.783c0,4.015 -3.426,7.439 -10.285,10.259c-0.981,0.299 -1.102,-0.06 -0.35,-1.076c0.188,-0.384 1.803,-1.589 4.852,-3.604v-0.171c-1.314,-0.538 -1.973,-1.683 -1.973,-3.435c0.871,-3.835 2.255,-5.756 4.15,-5.756H49.862L49.862,13.717zM46.804,18.048c0,1.066 0.905,1.724 2.708,1.981h0.35c0.666,0 1.094,-0.248 1.273,-0.728c0,-1.084 -0.786,-1.929 -2.349,-2.527C48.103,16.774 47.446,17.202 46.804,18.048z" id="path_2"/></svg>