<svg id="vector" xmlns="http://www.w3.org/2000/svg" width="75" height="67" viewBox="0 0 83 73"><path fill="#0000FF" d="M36.818,22.63h0.393c0.436,0.666 1.307,2.87 2.605,6.603l-1.196,5.005l0.599,9.608l-0.402,1.607h0.197c2.374,-2.538 5.227,-3.811 8.559,-3.811h0.205c3.433,0 5.439,1.605 6.004,4.809c0,4.673 -1.871,7.875 -5.604,9.609c0,0.495 -4.459,0.965 -13.367,1.401l-6.808,-0.599v-0.606c0,-0.529 2.075,-1.264 6.21,-2.194l2.802,-6.406v-2.811l-1.4,-17.416C35.614,26.695 36.015,25.098 36.818,22.63L36.818,22.63zM37.014,53.26c7.14,-0.804 11.59,-1.606 13.358,-2.4l1.41,-1.008c-1.376,-1.999 -3.375,-2.998 -6.014,-2.998h-1.947c-1.999,0 -4.135,1.733 -6.406,5.201L37.014,53.26z" id="path_0"/><path fill="#000000" d="M54.781,15.574c0.205,-0.118 0.265,0.069 0.179,0.557c-1.136,2.664 -2.878,4.526 -5.228,5.577l-8.635,4.33c-0.367,-0.102 -0.436,-0.401 -0.205,-0.904c1.152,-2.222 1.938,-3.538 2.357,-3.956L54.781,15.574z" id="path_1"/><path fill="#0000FF" d="M44.812,29.979c1.631,0.273 3.236,1.273 4.801,3.007v0.401c-1,2.664 -1.735,3.997 -2.205,3.997c-3.203,-1.094 -4.799,-1.965 -4.799,-2.597C42.609,33.55 43.343,31.952 44.812,29.979z" id="path_2"/></svg>