<svg id="vector" xmlns="http://www.w3.org/2000/svg" width="75" height="67" viewBox="0 0 83 73"><path fill="#000000" d="M43.653,14.117c1.631,0.266 3.236,1.265 4.801,2.998v0.402c-1,2.674 -1.734,4.006 -2.205,4.006c-3.203,-1.102 -4.799,-1.974 -4.799,-2.605C41.45,17.688 42.182,16.082 43.653,14.117z" id="path_0"/><path fill="#000000" d="M45.702,25c1.197,1.204 2.332,3.801 3.4,7.807l0.205,2.605c0,4.705 -2.34,7.908 -7.012,9.608l-1.402,0.197l-3.553,0.051l-3.45,-0.051l-0.197,-0.197v-0.205c0.427,-0.461 3.298,-1.861 8.603,-4.202c3.338,-1.896 5.141,-3.57 5.406,-5.006c-1.734,-3.697 -2.598,-5.833 -2.598,-6.406v-0.598C45.104,26.204 45.301,25 45.702,25z" id="path_1"/><path fill="#e2610a" d="M48.907,48.421c0.205,-0.111 0.264,0.067 0.178,0.555c-1.135,2.665 -2.877,4.526 -5.227,5.577l-8.635,4.331c-0.369,-0.104 -0.437,-0.402 -0.205,-0.897c1.152,-2.221 1.938,-3.536 2.357,-3.954L48.907,48.421z" id="path_2"/></svg>