<svg id="vector" xmlns="http://www.w3.org/2000/svg" width="75" height="67" viewBox="0 0 83 73"><path fill="#0000FF" d="M45.609,17.918c1.631,0.273 3.236,1.273 4.801,3.007v0.401c-1,2.664 -1.735,3.997 -2.205,3.997c-3.203,-1.094 -4.799,-1.965 -4.799,-2.597C43.406,21.488 44.14,19.891 45.609,17.918z" id="path_0"/><path fill="#0000FF" d="M37.425,12.392h0.393c0.437,0.666 1.307,2.871 2.605,6.603L39.228,24l0.598,9.608l-0.402,1.606h0.197c2.375,-2.537 5.229,-3.811 8.559,-3.811h0.205c3.434,0 5.441,1.605 6.005,4.809c0,4.674 -1.87,7.875 -5.604,9.61c0,0.494 -4.459,0.965 -13.368,1.4l-6.807,-0.598v-0.607c0,-0.528 2.076,-1.264 6.209,-2.194l2.803,-6.406v-2.811l-1.4,-17.416C36.222,16.458 36.623,14.86 37.425,12.392L37.425,12.392zM37.623,43.021c7.141,-0.804 11.59,-1.606 13.358,-2.4l1.409,-1.007c-1.375,-2 -3.373,-2.999 -6.013,-2.999h-1.948c-1.998,0 -4.133,1.733 -6.406,5.202L37.623,43.021z" id="path_1"/><path fill="#009649" d="M47.727,50.145c0.204,-0.11 0.265,0.068 0.179,0.555c-1.136,2.666 -2.879,4.527 -5.228,5.578l-8.635,4.331c-0.368,-0.104 -0.437,-0.402 -0.205,-0.898c1.153,-2.22 1.938,-3.536 2.357,-3.954L47.727,50.145z" id="path_2"/></svg>