<svg id="vector" xmlns="http://www.w3.org/2000/svg" width="75" height="67" viewBox="0 0 83 73"><path fill="#C60505" d="M37.268,38.857c0.838,0 2.307,0.999 4.406,2.998c0,0.667 -0.803,2.136 -2.4,4.408h-0.4c-0.838,0 -2.102,-0.804 -3.809,-2.4v-0.205C35.064,42.855 35.799,41.258 37.268,38.857z" id="path_0"/><path fill="#C60505" d="M44.477,37.85c3.34,1.436 5.006,2.571 5.006,3.408c-0.197,0.632 -1.137,2.032 -2.803,4.202c-2.238,-0.871 -3.836,-1.87 -4.809,-3.007C42.572,40.224 43.443,38.687 44.477,37.85z" id="path_1"/><path fill="#C60505" d="M39.676,32.05c3.066,1.264 4.604,2.332 4.604,3.203l-2.605,3.997h-0.203c-0.564,0 -2.102,-0.794 -4.605,-2.399C38.105,33.647 39.035,32.05 39.676,32.05z" id="path_2"/><path fill="#C60505" d="M29.086,40.831h0.205l0.4,0.4c-1.068,2.366 -1.605,3.972 -1.605,4.801c0,3.903 3.74,6.176 11.215,6.808l2.4,0.401c2.398,0 6.004,-0.734 10.805,-2.203l2.809,-1.598c-0.939,-1.699 -1.537,-3.169 -1.801,-4.408l0.393,-3.801h0.4c1.607,1.666 2.41,4.605 2.41,8.807c0,4.04 -3.537,6.773 -10.617,8.208l-2.998,0.402c-11.215,0 -16.818,-3.674 -16.818,-11.011C26.283,44.571 27.213,42.299 29.086,40.831z" id="path_3"/><path fill="#000000" d="M43.025,14.353c2.049,0 3.074,1.264 3.074,3.784c0,4.014 -3.426,7.438 -10.283,10.258c-0.982,0.3 -1.104,-0.06 -0.352,-1.076c0.189,-0.384 1.803,-1.589 4.852,-3.604v-0.172c-1.314,-0.537 -1.973,-1.683 -1.973,-3.434c0.871,-3.835 2.256,-5.757 4.15,-5.757H43.025L43.025,14.353zM39.967,18.684c0,1.066 0.904,1.725 2.707,1.981h0.352c0.664,0 1.094,-0.248 1.271,-0.727c0,-1.085 -0.785,-1.93 -2.348,-2.527C41.266,17.411 40.607,17.838 39.967,18.684z" id="path_4"/></svg>