<svg id="vector" xmlns="http://www.w3.org/2000/svg" width="75" height="67" viewBox="0 0 83 73"><path fill="#C60505" d="M43.002,20.25h0.803c2.341,0 4.074,1.998 5.21,6.004l0.197,1.998c0.067,0.65 0.067,1.316 0,2.008c-0.598,2.436 -1.938,4.834 -4.006,7.201c-1.435,1.203 -4.698,2.135 -9.806,2.801c-0.598,-0.266 -0.94,-0.529 -1,-0.795c8.542,-4.637 12.813,-7.439 12.813,-8.412l0.196,-0.6l-0.196,-0.195l-1.803,0.598h-0.999c-3.604,0 -5.407,-1.271 -5.407,-3.801v-0.402c0.462,-4.141 1.47,-6.209 2.998,-6.209L43.002,20.25z" id="path_0"/><path fill="#1305c6" d="M47.76,42.287c0.205,-0.111 0.266,0.068 0.18,0.555c-1.136,2.666 -2.879,4.527 -5.229,5.578l-8.635,4.33c-0.367,-0.104 -0.436,-0.402 -0.204,-0.896c1.152,-2.221 1.938,-3.537 2.356,-3.955L47.76,42.287z" id="path_1"/></svg>