<svg id="vector" xmlns="http://www.w3.org/2000/svg" width="75" height="67" viewBox="0 0 83 73"><path fill="#C60505" d="M37.268,23.026c0.838,0 2.307,0.999 4.408,2.998c0,0.667 -0.803,2.135 -2.4,4.407h-0.402c-0.838,0 -2.1,-0.803 -3.809,-2.4v-0.205C35.064,27.023 35.799,25.426 37.268,23.026z" id="path_0"/><path fill="#C60505" d="M44.477,22.019c3.34,1.436 5.006,2.571 5.006,3.407c-0.197,0.633 -1.137,2.033 -2.801,4.203c-2.24,-0.872 -3.838,-1.87 -4.811,-3.007C42.572,24.393 43.443,22.854 44.477,22.019z" id="path_1"/><path fill="#C60505" d="M39.676,16.219c3.066,1.264 4.605,2.331 4.605,3.203l-2.605,3.997h-0.205c-0.564,0 -2.102,-0.794 -4.604,-2.399C38.105,17.816 39.035,16.219 39.676,16.219z" id="path_2"/><path fill="#C60505" d="M29.086,24.999h0.205l0.4,0.401c-1.068,2.366 -1.605,3.972 -1.605,4.801c0,3.902 3.74,6.176 11.215,6.807l2.4,0.402c2.398,0 6.004,-0.735 10.805,-2.203l2.811,-1.598c-0.941,-1.7 -1.539,-3.17 -1.803,-4.408l0.393,-3.801h0.402c1.605,1.665 2.408,4.604 2.408,8.807c0,4.04 -3.537,6.773 -10.617,8.208l-2.998,0.401c-11.215,0 -16.818,-3.673 -16.818,-11.01C26.283,28.74 27.215,26.468 29.086,24.999z" id="path_3"/><path fill="#0A0EE2" d="M48.252,46.318c0.205,-0.11 0.266,0.068 0.18,0.555c-1.137,2.666 -2.879,4.527 -5.229,5.578l-8.635,4.331c-0.367,-0.104 -0.436,-0.402 -0.205,-0.898c1.154,-2.22 1.939,-3.536 2.357,-3.953L48.252,46.318z" id="path_4"/></svg>