<svg id="vector" xmlns="http://www.w3.org/2000/svg" width="75" height="67" viewBox="0 0 83 73"><path fill="#C60505" d="M51.697,36.373h0.205c1.964,0 3.767,1.529 5.407,4.604l0.598,2.598c0.18,3.773 -0.896,6.654 -3.237,8.635c-2.348,1.99 -6.961,3.314 -13.853,3.98h-2.333c-8.935,-1.205 -13.409,-4.467 -13.409,-9.807c0.504,-3.305 1.435,-5.773 2.801,-7.412h0.401l0.402,0.4l-1.401,3.408v0.795c0,3.27 3.604,5.543 10.813,6.807l2.596,0.205c4.707,0 9.908,-1.137 15.614,-3.408v-0.195l-0.196,-0.6h-0.197l-2.203,0.395h-0.607c-2.229,0 -3.903,-0.932 -5.005,-2.803v-1.801C48.093,38.305 49.296,36.373 51.697,36.373z" id="path_0"/><path fill="#C60505" d="M43.89,28.566c1.436,0.266 2.904,1.068 4.408,2.4v0.4c-1.171,3.066 -1.974,4.604 -2.4,4.604c-2.237,-1.102 -3.639,-1.973 -4.211,-2.605v-0.4C42.592,30.162 43.326,28.695 43.89,28.566z" id="path_1"/><path fill="#000000" d="M47.597,16.848c0.205,-0.119 0.265,0.068 0.18,0.557c-1.136,2.664 -2.878,4.525 -5.228,5.576l-8.635,4.33c-0.368,-0.102 -0.436,-0.4 -0.205,-0.904c1.153,-2.223 1.939,-3.537 2.357,-3.955L47.597,16.848z" id="path_2"/></svg>