<svg id="vector" xmlns="http://www.w3.org/2000/svg" width="75" height="67" viewBox="0 0 83 73"><path fill="#0A0EE2" d="M37.268,37.034c0.838,0 2.307,1 4.408,2.998c0,0.667 -0.803,2.136 -2.4,4.408h-0.401c-0.838,0 -2.102,-0.803 -3.81,-2.4v-0.205C35.064,41.032 35.799,39.435 37.268,37.034z" id="path_0"/><path fill="#0A0EE2" d="M44.477,36.026c3.34,1.436 5.006,2.571 5.006,3.408c-0.197,0.632 -1.136,2.032 -2.801,4.203c-2.239,-0.872 -3.837,-1.87 -4.811,-3.008C42.572,38.401 43.443,36.863 44.477,36.026z" id="path_1"/><path fill="#0A0EE2" d="M39.677,30.227c3.066,1.264 4.604,2.332 4.604,3.203l-2.605,3.997h-0.205c-0.563,0 -2.102,-0.794 -4.604,-2.399C38.105,31.824 39.036,30.227 39.677,30.227z" id="path_2"/><path fill="#0A0EE2" d="M29.086,39.008h0.205l0.4,0.401c-1.067,2.366 -1.605,3.972 -1.605,4.801c0,3.902 3.741,6.175 11.215,6.807l2.4,0.402c2.399,0 6.005,-0.735 10.805,-2.204l2.811,-1.598c-0.94,-1.699 -1.538,-3.169 -1.803,-4.407l0.393,-3.801h0.402c1.605,1.665 2.408,4.604 2.408,8.807c0,4.039 -3.536,6.772 -10.616,8.207l-2.998,0.402c-11.215,0 -16.819,-3.673 -16.819,-11.01C26.283,42.749 27.214,40.477 29.086,39.008z" id="path_3"/><path fill="#000001" d="M48.552,16.211c0.205,-0.119 0.265,0.069 0.179,0.556c-1.136,2.664 -2.878,4.527 -5.228,5.577l-8.635,4.33c-0.367,-0.102 -0.436,-0.4 -0.205,-0.904c1.153,-2.222 1.938,-3.537 2.357,-3.955L48.552,16.211z" id="path_4"/></svg>