<svg id="vector" xmlns="http://www.w3.org/2000/svg" width="75" height="67" viewBox="0 0 83 73"><path fill="#1305c6" d="M51.697,23.816h0.205c1.964,0 3.767,1.529 5.406,4.604l0.598,2.596c0.18,3.775 -0.896,6.654 -3.237,8.637c-2.349,1.99 -6.961,3.314 -13.853,3.98h-2.333c-8.935,-1.205 -13.409,-4.467 -13.409,-9.807c0.504,-3.305 1.435,-5.773 2.801,-7.414h0.401l0.402,0.402l-1.4,3.408v0.793c0,3.271 3.604,5.545 10.813,6.809l2.596,0.205c4.708,0 9.909,-1.137 15.614,-3.408v-0.197l-0.195,-0.598h-0.197l-2.203,0.393h-0.607c-2.229,0 -3.902,-0.93 -5.004,-2.801v-1.803C48.094,25.746 49.297,23.816 51.697,23.816z" id="path_0"/><path fill="#1305c6" d="M43.891,16.01c1.436,0.266 2.904,1.068 4.407,2.4v0.4c-1.171,3.066 -1.974,4.604 -2.4,4.604c-2.237,-1.102 -3.64,-1.973 -4.211,-2.605v-0.4C42.593,17.605 43.326,16.137 43.891,16.01z" id="path_1"/><path fill="#C60505" d="M48.869,46.529c0.205,-0.111 0.266,0.066 0.18,0.555c-1.136,2.664 -2.879,4.525 -5.229,5.576l-8.634,4.332c-0.368,-0.104 -0.436,-0.402 -0.205,-0.898c1.153,-2.221 1.938,-3.535 2.357,-3.953L48.869,46.529z" id="path_2"/></svg>