<svg id="vector" xmlns="http://www.w3.org/2000/svg" width="75" height="67" viewBox="0 0 83 73"><path fill="#C60505" d="M51.697,38.197h0.205c1.964,0 3.767,1.527 5.406,4.604l0.599,2.596c0.18,3.775 -0.897,6.654 -3.238,8.635c-2.348,1.99 -6.961,3.314 -13.853,3.98h-2.333c-8.934,-1.205 -13.409,-4.467 -13.409,-9.805c0.504,-3.307 1.435,-5.775 2.802,-7.414h0.4l0.402,0.402l-1.4,3.406v0.795c0,3.271 3.604,5.543 10.813,6.807l2.596,0.205c4.707,0 9.909,-1.135 15.615,-3.408v-0.195l-0.197,-0.598h-0.196L53.704,48.6h-0.605c-2.23,0 -3.904,-0.932 -5.006,-2.801v-1.803C48.092,40.127 49.296,38.197 51.697,38.197z" id="path_0"/><path fill="#C60505" d="M43.889,30.389c1.436,0.266 2.904,1.068 4.408,2.4v0.402c-1.17,3.064 -1.973,4.604 -2.4,4.604c-2.236,-1.102 -3.639,-1.973 -4.211,-2.605v-0.4C42.592,31.986 43.326,30.518 43.889,30.389z" id="path_1"/><path fill="#e2610a" d="M42.071,14.99c2.049,0 3.074,1.264 3.074,3.783c0,4.014 -3.425,7.439 -10.284,10.258c-0.981,0.299 -1.102,-0.061 -0.35,-1.076c0.188,-0.385 1.803,-1.588 4.852,-3.604V24.18c-1.315,-0.537 -1.974,-1.682 -1.974,-3.434c0.872,-3.836 2.256,-5.756 4.151,-5.756H42.071L42.071,14.99zM39.012,19.32c0,1.066 0.906,1.725 2.708,1.982h0.351c0.665,0 1.094,-0.248 1.271,-0.729c0,-1.084 -0.785,-1.928 -2.348,-2.527C40.311,18.047 39.653,18.475 39.012,19.32z" id="path_2"/></svg>