<svg id="vector" xmlns="http://www.w3.org/2000/svg" width="75" height="67" viewBox="0 0 83 73"><path fill="#0000E1" d="M49.737,33.494c3.049,0.334 4.646,1.939 4.774,4.826v0.932c-0.734,5.867 -1.998,8.805 -3.801,8.805h-0.197c-0.938,0 -3.339,-0.664 -7.208,-1.998c-1.7,3.938 -3.904,6.338 -6.611,7.201c-3.801,1.203 -6.134,1.801 -7.004,1.801h-0.803c-0.299,-0.127 -0.427,-0.332 -0.394,-0.598c0.095,-0.299 1.828,-1.365 5.202,-3.203c6.005,-3.707 9.012,-6.84 9.012,-9.412c0.931,-3.57 2.264,-5.971 3.997,-7.199C47.61,33.965 48.618,33.58 49.737,33.494L49.737,33.494zM45.705,40.652c-0.034,0.084 -0.034,0.145 0,0.197l5.604,1.605c0.273,0.068 0.47,0 0.607,-0.205c0,-1.564 -1.273,-2.572 -3.811,-2.998h-0.196C47.106,39.252 46.372,39.713 45.705,40.652z" id="path_0"/><path fill="#e2610a" d="M48.96,17.975c0.205,-0.119 0.266,0.068 0.18,0.555c-1.136,2.664 -2.879,4.527 -5.228,5.578l-8.635,4.33c-0.368,-0.102 -0.437,-0.4 -0.205,-0.904c1.152,-2.223 1.938,-3.537 2.357,-3.955L48.96,17.975z" id="path_1"/></svg>