<svg id="vector" xmlns="http://www.w3.org/2000/svg" width="75" height="67" viewBox="0 0 83 73"><path fill="#000000" d="M49.736,35.316c3.05,0.334 4.647,1.939 4.775,4.828v0.93c-0.734,5.867 -1.998,8.807 -3.801,8.807h-0.197c-0.938,0 -3.339,-0.666 -7.208,-2c-1.7,3.939 -3.903,6.34 -6.611,7.203c-3.801,1.203 -6.134,1.801 -7.004,1.801h-0.803c-0.3,-0.129 -0.427,-0.334 -0.394,-0.598c0.094,-0.299 1.828,-1.367 5.202,-3.203c6.005,-3.707 9.012,-6.842 9.012,-9.414c0.931,-3.568 2.263,-5.969 3.997,-7.199C47.611,35.787 48.619,35.402 49.736,35.316L49.736,35.316zM45.705,42.475c-0.033,0.086 -0.033,0.146 0,0.197l5.604,1.605c0.273,0.068 0.471,0 0.607,-0.205c0,-1.563 -1.273,-2.57 -3.811,-2.998H47.91C47.107,41.074 46.372,41.535 45.705,42.475z" id="path_0"/><path fill="#1305c6" d="M43.434,16.115c2.049,0 3.075,1.264 3.075,3.785c0,4.014 -3.425,7.439 -10.284,10.258c-0.982,0.299 -1.102,-0.061 -0.35,-1.076c0.188,-0.385 1.803,-1.588 4.852,-3.604v-0.172c-1.315,-0.537 -1.974,-1.682 -1.974,-3.434c0.872,-3.836 2.256,-5.758 4.151,-5.758H43.434L43.434,16.115zM40.375,20.447c0,1.066 0.906,1.725 2.709,1.98h0.35c0.666,0 1.094,-0.248 1.273,-0.727c0,-1.084 -0.787,-1.93 -2.349,-2.527C41.674,19.174 41.017,19.602 40.375,20.447z" id="path_1"/></svg>