<svg id="vector" xmlns="http://www.w3.org/2000/svg" width="75" height="67" viewBox="0 0 83 73"><path fill="#1305c6" d="M33.091,8.938c2.639,0 5.176,1.136 7.609,3.408c0.086,0.981 -0.316,1.314 -1.205,0.999c-1.365,-0.939 -2.834,-1.401 -4.398,-1.401c-4.143,0.564 -6.209,1.504 -6.209,2.802c1.332,1.666 4.074,2.87 8.209,3.605h0.205l7.201,-2.409h0.4v0.401c-0.213,1.854 -1.418,3.126 -3.605,3.81c-4.535,2.067 -7.934,4.134 -10.207,6.2c-2.271,3.042 -3.398,5.511 -3.398,7.406c0,3.075 1.666,6.014 5.004,8.815c3.504,1.861 7.5,2.801 12.01,2.801l12.01,-0.606l0.197,0.206v0.4c-5.535,3.604 -10.805,5.406 -15.811,5.406h-0.598c-6.176,0 -10.447,-2.535 -12.813,-7.609c-1.068,-2.802 -1.605,-4.672 -1.605,-5.603c0,-5.374 1.469,-10.311 4.406,-14.82v-0.196c-2.674,-0.838 -4.006,-2.503 -4.006,-5.006v-0.803C27.384,11.543 29.587,8.938 33.091,8.938z" id="path_0"/><path fill="#C60505" d="M47.38,53.6c0.207,-0.111 0.266,0.068 0.18,0.555c-1.137,2.666 -2.879,4.529 -5.227,5.578l-8.637,4.33c-0.367,-0.102 -0.436,-0.4 -0.205,-0.895c1.154,-2.223 1.939,-3.537 2.357,-3.957L47.38,53.6z" id="path_1"/></svg>