<svg id="vector" xmlns="http://www.w3.org/2000/svg" width="84" height="75" viewBox="0 0 84 75"><defs><clipPath id="clip_path_0"><path d="M46.499,10.973h19.766v12.88h-19.766z M 0,0"/></clipPath></defs><path fill="#000000" d="M54.354,46.883h1.117h0.426h1.09c3.926,-0.271 5.697,-1.124 6.53,-2.552c0,-1.123 -0.408,-7.467 -3.15,-12.473l0.667,-7.523l1.237,1.81c0,0.592 3.212,12.811 3.593,16.757c0,2.177 -0.794,4.493 -2.383,6.94c-1.515,1.906 -4.545,2.855 -9.099,2.855h-0.028V46.883z" id="path_0"/><path fill="#0000FF" d="M34.114,56.677c0.739,0 2.467,0.818 5.191,2.447c0,1.019 -0.868,2.656 -2.596,4.902c-3.465,-1.054 -5.201,-2.012 -5.201,-2.856C31.602,60.405 32.47,58.906 34.114,56.677z" id="path_1"/><path fill="#0000FF" d="M55.333,52.726c-2.762,-0.21 -5.266,-2.038 -7.502,-5.486c-3.315,3.805 -8.082,5.711 -14.29,5.711h-1.729c-6.714,0 -11.333,-2.715 -13.855,-8.157l-0.222,-1.229v-1.837c0,-1.967 0.941,-4.214 2.817,-6.729h0.211l0.437,0.409v1.019l-1.08,3.265c0,3.57 3.178,6.017 9.522,7.349l3.898,0.2c6.754,0 12.092,-2.176 16.029,-6.531c0.211,0 0.425,0.27 0.646,0.819l-0.221,1.429c0.737,2.567 2.521,3.855 5.338,3.873V52.726z" id="path_2"/><g id="g_0"><path fill="#000000" d="M63.295,20.363    c0.342,-0.711,0.514,-1.422,0.514,-2.134c-0.086,-1.186,-6.81,-0.95,-7.838,-3.227v-0.095c3.255,-2.229,4.068,2.325,9.551,-3.083v-0.143    c-0.042,0,-8.395,0.712,-8.995,1.091c-0.428,0.332,-0.812,0.759,-0.983,1.471c-0.173,0.665,-0.173,1.472,0,2.278l0.128,0.665    c0.472,1.945,7.452,0.949,7.539,1.471c-1.029,1.186,-3.084,1.756,-6.168,1.756c-9.552,-0.096,-8.952,2.135,-5.183,2.135h5.696    l2.014,-0.048c1.155,-0.236,2.056,-0.521,2.654,-0.901c0.301,-0.143,0.557,-0.38,0.729,-0.617C63.123,20.791,63.252,20.601,63.295,20.363    L63.295,20.363z" clip-path="url(#clip_path_0)"/></g></svg>