<svg id="vector" xmlns="http://www.w3.org/2000/svg" width="84" height="75" viewBox="0 0 84 75"><path fill="#002A96" d="M42.26,44.567h1.266c7.885,-0.15 13.117,-1.254 15.713,-3.331l0.51,-1.007c-0.336,-0.81 -0.758,-1.211 -1.268,-1.211c-1.219,0.684 -2.572,1.018 -4.055,1.018h-0.258c-4.391,-0.508 -6.674,-2.283 -6.836,-5.321v-0.26c0.422,-5.743 1.773,-8.609 4.055,-8.609h1.268c3.902,-0.196 6.865,2.844 8.867,9.117l0.248,2.541v0.507c-0.053,6.211 -2.281,10.31 -6.684,12.289c-1.557,0.993 -5.84,1.491 -12.826,1.491V44.567z" id="path_0"/><path fill="#002A96" d="M53.41,12.598c2.746,0.844 5.115,2.195 7.096,4.055v0.249c0,1.06 -1.094,2.748 -3.289,5.073c-0.68,0 -2.965,-0.845 -6.846,-2.531v0.248c-1.352,2.618 -2.195,3.969 -2.541,4.057c-2.197,-0.466 -4.057,-1.483 -5.57,-3.04c1.016,-4.229 1.861,-6.338 2.531,-6.338c0.551,0 2.572,1.017 6.088,3.04C50.879,16.522 51.723,14.922 53.41,12.598z" id="path_1"/><path fill="#009649" d="M43.082,51.792l-2.855,-0.031c-1.58,6.953 -5.764,10.468 -12.545,10.555c-3.635,0.163 -5.451,0.098 -5.451,-0.194c0.334,-0.639 2.768,-1.859 7.289,-3.677c4.65,-2.953 7.451,-4.856 8.424,-5.7l0.26,-0.757l-4.434,-0.703c-3.234,-0.843 -5.051,-2.466 -5.451,-4.877v-0.51c0,-4.099 1.006,-6.716 3.039,-7.862l1.523,-0.249c2.998,0 5.441,2.086 7.346,6.273c1.211,0.422 2.162,0.627 2.855,0.605V51.792z" id="path_2"/></svg>