<svg id="vector" xmlns="http://www.w3.org/2000/svg" width="84" height="75" viewBox="0 0 84 75"><path fill="#0000FF" d="M28.433,21.824h0.225l0.438,0.484c-1.167,2.85 -1.755,4.783 -1.755,5.782c0,4.701 4.088,7.439 12.256,8.2l2.624,0.484c2.623,0 6.563,-0.886 11.808,-2.655l3.071,-1.925c-1.026,-2.047 -1.68,-3.817 -1.97,-5.309l0.439,-4.578h0.429c1.755,2.006 2.632,5.545 2.632,10.607c0,4.867 -3.864,8.159 -11.603,9.888l-3.275,0.483c-12.256,0 -18.38,-4.425 -18.38,-13.262C25.371,26.331 26.398,23.595 28.433,21.824L28.433,21.824zM41.566,44.491c3.062,0.967 4.592,2.171 4.592,3.622l-2.847,5.063c-2.847,-1.286 -4.378,-2.254 -4.593,-2.891C38.719,48.792 39.663,46.868 41.566,44.491z" id="path_0"/></svg>