<svg id="vector" xmlns="http://www.w3.org/2000/svg" width="84" height="75" viewBox="0 0 84 75"><path fill="#DF1313" d="M66.038,50.973c0.69,0 2.305,0.812 4.851,2.435c0,1.009 -0.802,2.623 -2.426,4.851c-3.235,-1.044 -4.85,-1.986 -4.85,-2.832C63.69,54.668 64.502,53.183 66.038,50.973z" id="path_0"/><path fill="#C60505" d="M61.179,42.101c5.3,0.051 8.26,-0.94 8.908,-2.987c0,-0.707 -0.675,-2.459 -2.029,-5.256l0.613,-5.256h0.396c1.762,3.029 2.633,6.067 2.633,9.096v1.822c0,1.216 -0.293,2.494 -0.871,3.832c-0.579,1.338 -1.476,2.469 -2.677,3.375c-1.208,0.915 -3.529,1.294 -6.974,1.14V42.101z" id="path_1"/><path fill="#7575EC" d="M46.851,42.101c0.034,0 0.077,0 0.121,0c3.236,-0.198 5.093,-1.649 5.567,-4.35c-1.217,-8.088 -1.821,-13.759 -1.821,-16.996c0,-1.243 0.543,-2.866 1.622,-4.852l0.199,0.199l0.405,0.406l-0.208,1.415c0.173,9.089 1.321,16.132 3.445,21.139c0.811,1.82 2.796,2.84 5.964,3.038v5.766c-4.351,-0.07 -7.276,-2.356 -8.796,-6.879h-0.207c-1.398,4.532 -3.495,6.827 -6.292,6.879V42.101z" id="path_2"/><path fill="#000000" d="M27.604,51.81c0.689,0 2.305,0.811 4.852,2.426c0,1.01 -0.813,2.632 -2.427,4.859c-3.236,-1.044 -4.858,-1.994 -4.858,-2.832C25.255,55.505 26.066,54.02 27.604,51.81z" id="path_3"/><path fill="#000000" d="M47.43,47.892c-2.582,-0.207 -4.921,-2.02 -7.009,-5.438c-3.099,3.772 -7.553,5.663 -13.354,5.663h-1.613c-6.274,0 -10.591,-2.692 -12.946,-8.087L12.3,38.812v-1.821c0,-1.951 0.88,-4.178 2.633,-6.672h0.198l0.406,0.406v1.009l-1.011,3.237c0,3.538 2.97,5.964 8.898,7.285l3.643,0.198c6.31,0 11.299,-2.157 14.976,-6.473c0.199,0 0.397,0.267 0.604,0.811l-0.207,1.416c0.69,2.545 2.356,3.823 4.989,3.841V47.892z" id="path_4"/></svg>