<svg id="vector" xmlns="http://www.w3.org/2000/svg" width="84" height="75" viewBox="0 0 84 75"><path fill="#0A47E2" d="M43.871,41.236c0.217,-0.431 0.346,-0.856 0.322,-1.275c-0.041,-0.715 -4.506,-0.574 -5.174,-1.924V37.99c2.146,-1.349 2.68,1.371 6.313,-1.843v-0.095c-0.016,-0.016 -5.559,0.421 -5.932,0.65c-0.307,0.189 -0.543,0.448 -0.654,0.864c-0.111,0.417 -0.137,0.879 -0.012,1.375l0.096,0.383c0.291,1.165 4.93,0.584 4.977,0.894c-0.688,0.696 -2.049,1.06 -4.082,1.044c-6.324,-0.052 -5.932,1.287 -3.424,1.287h3.758l1.346,-0.047c0.756,-0.129 1.342,-0.306 1.76,-0.531c0.189,-0.096 0.35,-0.215 0.475,-0.357C43.748,41.497 43.824,41.373 43.871,41.236z" id="path_0"/><path fill="#0A47E2" d="M23.992,49.559c0.268,0.021 0.555,0.03 0.873,0.03h27.703c2.363,0 4.107,-1.2 5.346,-2.44l-2.787,-22.094c0.695,-4.187 1.32,-6.27 1.855,-6.27l3.025,6.974c0,1.082 -0.387,2.708 -1.16,4.88l1.16,12.55v3.492c-0.873,3.701 -2.063,6.271 -3.512,7.759c-1.131,1.161 -2.41,1.776 -3.928,1.776H25.094c-0.387,0 -0.754,-0.011 -1.102,-0.03V49.559z" id="path_1"/></svg>