<svg id="vector" xmlns="http://www.w3.org/2000/svg" width="84" height="75" viewBox="0 0 84 75"><path fill="#000000" d="M45.395,39.739c0.318,-0.556 0.754,-1.399 1.221,-2.034c0.963,0.229 2.264,0.377 3.781,0.377c2.085,0 4.557,-0.258 6.998,-0.873c4.188,-0.993 8.02,-2.74 9.647,-4.715c1.429,-2.024 2.333,-5.071 2.333,-6.66c0,-1.071 -0.557,-2.194 -1.985,-3.177c-1.241,-0.863 -2.868,-1.359 -4.09,-1.359c-3.315,0 -11.077,6.243 -15.265,11.544c-3.832,-0.695 -4.824,-3.097 -4.824,-4.774c0,-1.022 -0.229,-1.539 -0.665,-1.539c-0.347,0 -0.755,0.636 -1.31,1.936c-1.252,3.227 -3.196,4.844 -5.896,4.874h-0.496c-1.359,0 -2.064,0.813 -2.094,2.441c0,1.638 0.704,2.422 2.094,2.422h0.467c2.123,0 3.95,-1.628 5.549,-4.863c0.704,1.915 2.153,3.285 4.336,4.079c-0.406,0.903 -0.734,1.657 -0.962,2.322c-0.06,0.179 -0.119,0.407 -0.119,0.616c0,0.228 0.089,0.406 0.288,0.437C44.809,40.792 45.137,40.206 45.395,39.739L45.395,39.739zM66.467,29.536c-1.717,1.191 -9.162,3.742 -15.176,3.742c-0.457,0 -0.924,-0.03 -1.391,-0.06c3.077,-3.157 8.169,-6.978 11.306,-6.978c1.976,0 5.29,1.936 5.29,3.156C66.496,29.457 66.467,29.486 66.467,29.536z" id="path_0"/><path fill="#FF0000" d="M34.794,33.338c-2.063,0 -3.989,-0.874 -5.728,-2.62c1.856,-1.36 2.7,-3.425 2.7,-4.943c0,-0.665 -0.179,-1.25 -0.497,-1.598c-1.25,-1.34 -3.344,-2.094 -5.607,-2.094c-2.153,0 -4.477,0.674 -6.48,2.183c-0.615,0.467 -0.993,2.292 -0.993,3.404c0,0.486 0.06,0.845 0.229,0.874c1.37,0.229 3.96,0.834 4.973,2.382c-5.985,4.884 -8.765,10.511 -8.765,18.749c0,7.067 4.377,14.441 15.365,14.441c5.529,-0.06 10.094,-1.598 13.26,-3.066c0.734,-0.348 2.184,-1.191 2.184,-1.628c0,-0.149 -0.089,-0.259 -0.496,-0.259c-0.317,0 -0.902,0.08 -1.538,0.14c-2.472,0.268 -4.794,0.407 -6.858,0.407c-15.593,0 -19.891,-6.689 -19.891,-12.715c0,-3.206 0.516,-8.734 9.131,-13.747c1.826,1.866 3.315,3.146 4.447,3.871c1.131,0.734 2.61,1.082 4.416,1.082h0.844c1.459,0 2.184,-0.874 2.184,-2.591c0,-1.519 -0.725,-2.272 -2.184,-2.272H34.794z" id="path_1"/><path fill="#000000" d="M49.939,10.883c3.473,1.11 5.205,2.007 5.205,2.7v0.418c-1.182,3.055 -2.079,4.582 -2.701,4.582c-3.09,-1.35 -4.689,-2.256 -4.796,-2.708v-0.418C47.647,14.454 48.411,12.927 49.939,10.883z" id="path_2"/><path fill="#FF0000" d="M21.87,10.883c3.473,1.11 5.204,2.007 5.204,2.7v0.418c-1.181,3.055 -2.078,4.582 -2.699,4.582c-3.091,-1.35 -4.689,-2.256 -4.797,-2.708v-0.418C19.578,14.454 20.342,12.927 21.87,10.883z" id="path_3"/></svg>