<svg id="vector" xmlns="http://www.w3.org/2000/svg" width="84" height="75" viewBox="0 0 84 75"><path fill="#960000" d="M31.217,51.104h0.893c3.027,-0.324 5.574,-2.156 7.643,-5.488c0.303,-0.684 0.607,-1.066 0.91,-1.145h0.234l0.688,0.695c-0.098,0.871 -0.246,1.488 -0.461,1.832c1.342,2.449 2.949,3.674 4.82,3.674l0.234,0.225c3.332,-7.348 7.074,-11.021 11.248,-11.021c3.332,0 5.781,1.381 7.348,4.135v1.381c0,8.416 -5.201,12.629 -15.617,12.629l-3.438,-0.225c-1.068,2.9 -1.764,4.359 -2.068,4.359l-0.225,-0.225v-0.236l0.686,-3.898v-0.461c-2.264,-1.264 -4.018,-3.027 -5.281,-5.279c-1.186,3.879 -3.723,5.75 -7.613,5.594V51.104L31.217,51.104zM48.471,51.357h0.461c5.201,0 9.641,-0.764 13.314,-2.291c0,-1.646 -1.529,-2.793 -4.586,-3.451h-0.92C53.066,45.615 50.313,47.537 48.471,51.357z" id="path_0"/><path fill="#960000" d="M47.785,30.008c3.82,1.227 5.742,2.217 5.742,2.98v0.459c-1.225,3.371 -2.225,5.057 -2.988,5.057c-3.096,-1.264 -4.859,-2.107 -5.281,-2.527v-0.461C45.875,33.223 46.707,31.381 47.785,30.008z" id="path_1"/><path fill="#2C2CF3" d="M31.707,57.648c-4.457,0.264 -7.701,-1.793 -9.729,-6.174c-0.98,-1.625 -1.891,-12.59 -2.754,-32.889v-0.461c0.57,-3.371 1.412,-5.057 2.52,-5.057l1.156,-0.225c1.41,0 3.555,0.461 6.426,1.371v0.461c-0.156,0.461 -0.617,0.695 -1.381,0.695h-3.898c-0.805,0 -1.568,0.451 -2.303,1.373c0.715,17.625 1.754,27.834 3.135,30.625c1.371,2.793 3.654,4.037 6.828,3.734V57.648z" id="path_2"/></svg>