<svg id="vector" xmlns="http://www.w3.org/2000/svg" width="84" height="75" viewBox="0 0 84 75"><path fill="#000004" d="M54.752,45.535c0.257,0.02 0.531,0.029 0.836,0.029h2.107c2.23,-0.371 3.93,-1.15 5.115,-2.336L60.144,22.09c0.665,-4.006 1.263,-5.998 1.775,-5.998l2.896,6.672c0,1.035 -0.37,2.592 -1.111,4.67l1.111,12.008v3.342c-0.836,3.539 -1.956,6.018 -3.36,7.422c-1.063,1.129 -2.307,1.699 -3.759,1.699h-1.89c-0.37,0 -0.721,-0.01 -1.054,-0.029V45.535z" id="path_0"/><path fill="#00FF00" d="M54.553,51.904c-0.237,0 -0.493,0 -0.749,0h-0.219c-2.154,-0.02 -4.233,-0.398 -6.236,-1.139c-2.146,3.711 -4.964,5.563 -8.448,5.563c-4.157,-0.598 -6.236,-2.297 -6.236,-5.117h-0.218c-0.702,2.373 -2.259,4.301 -4.67,5.781c-3.228,1.186 -5.752,1.783 -7.564,1.783l-1.025,0.135v-0.447c0.825,-0.684 3.065,-2.268 6.71,-4.756c3.646,-2.477 5.715,-4.033 6.199,-4.67c0.493,-0.627 1.205,-2.723 2.136,-6.283c1.774,-2.961 3.407,-4.451 4.888,-4.451h0.446c1.851,0 4.822,2.002 8.903,6.008c1.187,1.006 3.208,1.453 6.084,1.338V51.904L54.553,51.904zM35.342,45.867c0,1.965 1.557,3.303 4.669,4.006h1.111c2.524,-0.256 3.787,-0.627 3.787,-1.111c-2.933,-2.818 -5.154,-4.223 -6.682,-4.223h-0.219C36.746,44.539 35.854,44.984 35.342,45.867z" id="path_1"/></svg>