<svg id="vector" xmlns="http://www.w3.org/2000/svg" width="84" height="75" viewBox="0 0 84 75"><path fill="#0101B3" d="M43.762,26.442h1.208c3.522,0 6.131,3.008 7.841,9.036l0.296,3.009c0.102,0.976 0.102,1.979 0,3.021c-0.9,3.663 -2.919,7.274 -6.029,10.836c-2.159,1.812 -7.07,3.213 -14.756,4.216c-0.9,-0.398 -1.413,-0.798 -1.504,-1.194c12.854,-6.98 19.281,-11.197 19.281,-12.663l0.295,-0.898l-0.295,-0.296l-2.713,0.9h-1.504c-5.425,0 -8.136,-1.917 -8.136,-5.722v-0.603c0.693,-6.234 2.211,-9.345 4.511,-9.345L43.762,26.442z" id="path_0"/></svg>