<svg id="vector" xmlns="http://www.w3.org/2000/svg" width="84" height="75" viewBox="0 0 84 75"><path fill="#FF0000" d="M45.63,45.086h0.962h0.365h0.938c3.376,-0.246 5.425,-1.025 6.14,-2.327c0,-1.024 -1.175,-3.813 -3.534,-8.38l-0.374,-1.485c-0.404,-1.954 -0.389,-3.75 0.048,-5.378c0.43,-1.628 1.287,-2.756 2.559,-3.375c2.946,-1.986 8.594,-5.274 16.942,-9.866l0.183,0.19v0.365c-1.795,2.828 -3.161,5.433 -4.091,7.825h-0.373l-0.19,-0.93v-0.937l0.19,-0.183v-0.182h-0.19c-6.919,3.995 -11.574,6.918 -13.965,8.745v0.191c2.613,5.274 4.035,9.302 4.29,12.097c0,1.986 -0.684,4.1 -2.05,6.332c-1.303,1.739 -3.908,2.605 -7.824,2.605H45.63V45.086z" id="path_0"/><path fill="#000000" d="M28.227,54.022c0.636,0 2.121,0.746 4.464,2.231c0,0.93 -0.746,2.424 -2.232,4.473c-2.979,-0.961 -4.471,-1.835 -4.471,-2.605C26.066,57.422 26.813,56.056 28.227,54.022z" id="path_1"/><path fill="#000000" d="M46.473,50.416c-2.375,-0.19 -4.528,-1.859 -6.45,-5.004c-2.852,3.471 -6.95,5.211 -12.289,5.211h-1.484c-5.775,0 -9.746,-2.479 -11.915,-7.443l-0.19,-1.121v-1.676c0,-1.795 0.81,-3.844 2.422,-6.14h0.183l0.374,0.374v0.929l-0.93,2.979c0,3.256 2.732,5.488 8.189,6.704l3.352,0.183c5.807,0 10.398,-1.986 13.782,-5.958c0.184,0 0.365,0.246 0.557,0.747l-0.191,1.303c0.636,2.343 2.169,3.519 4.592,3.534V50.416z" id="path_2"/></svg>