<svg id="vector" xmlns="http://www.w3.org/2000/svg" width="84" height="75" viewBox="0 0 84 75"><path fill="#000000" d="M63.433,21.031c1.539,0 2.957,0.947 4.261,2.843c-1.092,2.487 -1.926,3.731 -2.486,3.731c-2.396,-1.184 -3.7,-1.957 -3.913,-2.313C61.294,24.17 62.007,22.744 63.433,21.031z" id="path_0"/><path fill="#000000" d="M57.677,43.332h0.888c5.527,-0.107 9.197,-0.881 11.018,-2.336l0.356,-0.705c-0.235,-0.568 -0.531,-0.85 -0.888,-0.85c-0.856,0.479 -1.804,0.713 -2.843,0.713h-0.183c-3.078,-0.355 -4.679,-1.6 -4.792,-3.73v-0.182c0.296,-4.027 1.244,-6.036 2.844,-6.036h0.887c2.737,-0.137 4.815,1.994 6.218,6.392l0.175,1.781v0.357c-0.038,4.352 -1.6,7.227 -4.687,8.613c-1.092,0.699 -4.095,1.047 -8.993,1.047V43.332z" id="path_1"/><path fill="#13EDED" d="M39.707,43.332c1.972,0.166 3.647,-0.031 5.043,-0.576l-0.735,-1.336c-0.69,-3.912 -0.38,-6.498 0.933,-7.764c1.319,-1.268 2.737,-1.85 4.246,-1.744c2.935,0.137 4.587,1.676 4.974,4.617v1.07c0,2.457 -0.355,3.996 -1.062,4.617c-0.447,0.463 0.562,0.85 3.018,1.16l0.577,-0.023c0.447,-0.014 0.955,-0.021 1.531,-0.021v5.064l-1.797,0.023c-3.344,-0.016 -5.877,-0.439 -7.598,-1.268c-2.366,0.828 -4.208,1.244 -5.505,1.244h-0.713c-0.888,0 -1.857,0 -2.912,0V43.332L39.707,43.332zM45.993,38.313v0.355c0.743,1.273 1.865,2.162 3.374,2.662c1.009,-0.176 2.018,-0.592 3.026,-1.244c-0.448,-1.66 -1.926,-2.609 -4.443,-2.844C46.645,37.6 45.993,37.955 45.993,38.313z" id="path_2"/><path fill="#13EDED" d="M49.435,21.69c1.927,0.599 3.587,1.547 4.975,2.844v0.183c0,0.742 -0.766,1.926 -2.305,3.556c-0.478,0 -2.078,-0.592 -4.801,-1.782v0.183c-0.947,1.834 -1.539,2.782 -1.781,2.843c-1.54,-0.326 -2.844,-1.039 -3.905,-2.138c0.713,-2.958 1.305,-4.437 1.774,-4.437c0.387,0 1.812,0.705 4.269,2.131C47.661,24.451 48.252,23.32 49.435,21.69z" id="path_3"/><path fill="#0000F3" d="M39.304,48.328c-1.721,0.016 -3.139,-0.865 -4.269,-2.639h-0.175c-0.834,2.957 -2.077,5.035 -3.73,6.217c-2.343,2.252 -4.891,3.375 -7.644,3.375h-1.068c-3.14,0 -5.922,-1.773 -8.349,-5.33c-0.948,-1.631 -1.426,-3.525 -1.426,-5.688c0,-3.047 1.539,-6.127 4.625,-9.234c1.608,-1.025 2.086,-0.963 1.418,0.174c-2.722,3.791 -4.087,6.398 -4.087,7.816c0,3.678 2.723,6.105 8.175,7.287h1.426c3.048,0 6.065,-1.539 9.061,-4.617c0.311,-0.979 0.371,-2.047 0.174,-3.199c-0.591,-2.518 -1.478,-8.918 -2.661,-19.191l1.062,-3.557c0.167,-0.031 0.342,-0.031 0.539,0c0.325,0 0.917,4.504 1.774,13.504c0.591,4.74 1.304,7.705 2.13,8.887c0.729,0.805 1.736,1.176 3.025,1.131V48.328z" id="path_4"/></svg>