<svg id="vector" xmlns="http://www.w3.org/2000/svg" width="84" height="75" viewBox="0 0 84 75"><path fill="#e2610a" d="M22.398,31.209h0.379c1.29,0.283 2.678,1.041 4.161,2.268v0.193c-0.854,2.58 -1.613,3.967 -2.274,4.16c-1.919,-0.379 -3.371,-1.008 -4.347,-1.895V35.75C20.317,34.266 21.011,32.758 22.398,31.209z" id="path_0"/><path fill="#1DEA05" d="M62.374,23.106h0.406c1.381,0.302 2.867,1.104 4.455,2.427v0.198c-0.916,2.771 -1.718,4.248 -2.427,4.456c-2.063,-0.407 -3.609,-1.08 -4.654,-2.021v-0.208C60.154,26.37 60.898,24.755 62.374,23.106z" id="path_1"/><path fill="#1DEA05" d="M69.869,21.283h0.199c1.381,0.2 2.935,1.142 4.654,2.834v0.198l-2.427,4.247c-3.237,-1.043 -4.861,-1.916 -4.861,-2.624C68.478,22.83 69.291,21.283 69.869,21.283z" id="path_2"/><path fill="#1DEA05" d="M60.577,44.175c5.303,0.053 8.264,-0.94 8.912,-2.988c0,-0.706 -0.673,-2.461 -2.028,-5.257l0.613,-5.259h0.397c1.762,3.03 2.634,6.07 2.634,9.101v1.821c0,1.219 -0.294,2.496 -0.872,3.835c-0.579,1.338 -1.476,2.47 -2.676,3.375c-1.209,0.916 -3.532,1.297 -6.979,1.14V44.175z" id="path_3"/><path fill="#062583" d="M43.17,44.175h0.457c1.382,0 2.841,-0.535 4.379,-1.605c1.536,-1.071 2.435,-2.418 2.711,-4.034l0.199,-0.207h0.199c0.241,0 0.578,0.744 1.018,2.229c1.918,2.633 4.62,3.841 8.091,3.643c0.233,0 0.475,-0.009 0.709,-0.025v5.795c-0.234,0.017 -0.476,0.024 -0.709,0.024l-2.832,-0.328c-0.302,2.693 -1.184,4.04 -2.634,4.051h-0.407c-2.693,-0.51 -4.041,-1.451 -4.041,-2.842l0.605,-3.643c-0.475,-0.535 -0.942,-0.803 -1.417,-0.803c-1.519,2.373 -3.626,3.548 -6.329,3.513V44.175z" id="path_4"/><path fill="#e2610a" d="M44.414,49.97c-2.582,-0.207 -4.913,-2.022 -7.011,-5.441c-3.1,3.774 -7.555,5.665 -13.35,5.665H22.43c-6.269,0 -10.586,-2.693 -12.952,-8.091l-0.199,-1.217v-1.823c0,-1.951 0.872,-4.179 2.625,-6.673h0.207l0.406,0.405v1.011l-1.019,3.236c0,3.54 2.97,5.969 8.91,7.288l3.644,0.198c6.303,0 11.294,-2.158 14.973,-6.476c0.198,0 0.406,0.268 0.604,0.811l-0.199,1.418c0.69,2.547 2.348,3.825 4.982,3.842V49.97z" id="path_5"/><path fill="#e2610a" d="M28.499,28.943h0.208c1.381,0.207 2.936,1.148 4.653,2.831v0.21l-2.435,4.246c-3.238,-1.045 -4.852,-1.926 -4.852,-2.632C27.118,30.497 27.931,28.943 28.499,28.943z" id="path_6"/></svg>