<svg id="vector" xmlns="http://www.w3.org/2000/svg" width="84" height="75" viewBox="0 0 84 75"><path fill="#000000" d="M31.115,7.807c1.614,0.297 3.256,1.2 4.946,2.697v0.452c-1.316,3.446 -2.209,5.175 -2.699,5.175c-2.515,-1.238 -4.09,-2.207 -4.724,-2.929v-0.44C29.646,9.602 30.473,7.96 31.115,7.807z" id="path_0"/><path fill="#000000" d="M32.547,20.154c2.967,0 5.809,1.276 8.556,3.831c0.086,1.104 -0.365,1.479 -1.354,1.123c-1.536,-1.056 -3.188,-1.574 -4.954,-1.574c-4.647,0.634 -6.971,1.689 -6.971,3.148c1.497,1.873 4.569,3.228 9.227,4.054h0.222l8.103,-2.709h0.452v0.451c-0.25,2.084 -1.594,3.515 -4.052,4.283c-5.099,2.324 -8.93,4.646 -11.475,6.971c-2.555,3.419 -3.832,6.193 -3.832,8.325c0,3.456 1.873,6.76 5.628,9.909c3.937,2.094 8.439,3.149 13.501,3.149l13.509,-0.683l0.222,0.231v0.451c-6.223,4.052 -12.157,6.077 -17.783,6.077h-0.672c-6.934,0 -11.734,-2.852 -14.404,-8.555c-1.199,-3.149 -1.795,-5.253 -1.795,-6.299c0,-6.04 1.652,-11.59 4.945,-16.659v-0.222c-2.996,-0.94 -4.494,-2.813 -4.494,-5.626V28.93C26.133,23.083 28.609,20.154 32.547,20.154z" id="path_1"/></svg>