<svg id="vector" xmlns="http://www.w3.org/2000/svg" width="84" height="75" viewBox="0 0 84 75"><path fill="#0000F6" d="M39.618,43.364c-3.6,-0.242 -6.867,-2.211 -9.804,-5.9H29.6c-1.254,7.271 -4.057,10.905 -8.39,10.915h-0.636c-1.88,-0.01 -3.707,-1.684 -5.453,-5.041c-1.396,-4.719 -2.095,-8.292 -2.095,-10.7v-1.683c0,-1.048 0.205,-1.612 0.627,-1.675c0.591,0.313 1.298,2.606 2.113,6.886c0.814,4.271 2.488,6.312 5.022,6.124c4.897,-0.806 7.485,-3.608 7.763,-8.398l-1.889,-6.5v-2.311c0.071,-2.802 0.349,-4.199 0.842,-4.199c0.276,0.627 0.492,1.263 0.626,1.89l2.938,9.231c2.31,3.742 5.166,5.515 8.55,5.3V43.364z" id="path_0"/><path fill="#000000" d="M65.101,46.561c0.716,0 2.391,0.842 5.032,2.525c0,1.047 -0.833,2.722 -2.517,5.032c-3.357,-1.084 -5.032,-2.06 -5.032,-2.938C62.665,50.394 63.506,48.853 65.101,46.561z" id="path_1"/><path fill="#000000" d="M60.059,37.356c5.498,0.054 8.569,-0.976 9.241,-3.098c0,-0.734 -0.699,-2.552 -2.104,-5.452l0.636,-5.453h0.412c1.826,3.143 2.73,6.294 2.73,9.437v1.89c0,1.262 -0.305,2.588 -0.904,3.976c-0.6,1.387 -1.53,2.561 -2.775,3.5c-1.254,0.949 -3.662,1.344 -7.235,1.183V37.356z" id="path_2"/><path fill="#EF0025" d="M60.946,43.338c-0.135,0 -0.278,0 -0.413,0h-1.889c-1.889,0 -4.064,-1.191 -6.509,-3.563c-4.199,2.301 -8.73,3.491 -13.592,3.563v-5.955c2.543,0.171 5.812,-0.357 9.813,-1.603v-0.205c-1.925,-1.263 -3.742,-1.89 -5.452,-1.89l-1.684,0.206L40.8,32.844c0.564,-3.778 2.176,-5.668 4.826,-5.668l3.357,-0.205c5.318,0.627 7.978,1.817 7.978,3.563v0.841l-1.263,4.2c1.021,1.235 2.768,1.835 5.248,1.781V43.338z" id="path_3"/></svg>