<svg id="vector" xmlns="http://www.w3.org/2000/svg" width="84" height="75" viewBox="0 0 84 75"><path fill="#0000DF" d="M32.134,12.953c3.097,0 6.073,1.332 8.93,3.998c0.1,1.152 -0.372,1.543 -1.413,1.173c-1.604,-1.103 -3.327,-1.644 -5.161,-1.644c-4.86,0.661 -7.285,1.764 -7.285,3.286c1.563,1.955 4.78,3.368 9.63,4.229h0.24l8.448,-2.825h0.471v0.471c-0.25,2.174 -1.663,3.668 -4.229,4.47c-5.321,2.425 -9.31,4.85 -11.976,7.274c-2.665,3.567 -3.988,6.464 -3.988,8.688c0,3.608 1.955,7.056 5.873,10.342c4.109,2.186 8.799,3.287 14.091,3.287l14.089,-0.711l0.231,0.24v0.471c-6.494,4.229 -12.677,6.344 -18.55,6.344h-0.702c-7.245,0 -12.256,-2.977 -15.032,-8.929c-1.252,-3.287 -1.884,-5.482 -1.884,-6.574c0,-6.304 1.724,-12.096 5.171,-17.387v-0.23c-3.137,-0.982 -4.7,-2.937 -4.7,-5.872v-0.942C25.44,16.01 28.026,12.953 32.134,12.953z" id="path_0"/></svg>