<svg id="vector" xmlns="http://www.w3.org/2000/svg" width="84" height="75" viewBox="0 0 84 75"><path fill="#000000" d="M40.765,36.973c0.629,0.043 1.268,0.063 1.905,0.063h0.746l3.12,-0.745c-0.746,-1.395 -1.118,-2.363 -1.118,-2.906c0,-7.985 2.576,-11.979 7.73,-11.979l2.002,-0.245c2.618,0.416 5.951,1.991 9.977,4.738l0.254,1.001l-0.254,0.245h-0.991c-1.916,-1.331 -4.077,-1.991 -6.494,-1.991c-3.695,0 -6.772,1.075 -9.232,3.237v0.255c2.162,3.492 6.155,5.238 11.979,5.238c4.579,-1.66 7.57,-2.491 8.986,-2.491c-0.787,4.653 -2.289,6.984 -4.493,6.984c-9.859,3.822 -17.674,5.739 -23.456,5.739h-0.66V36.973z" id="path_0"/><path fill="#0000FF" d="M25.986,17.851c3.492,1.746 5.238,3.236 5.238,4.492c-1.66,3.28 -2.661,4.94 -2.991,4.983h-0.501c-2.565,-1.288 -4.142,-2.449 -4.749,-3.492C23.569,21.938 24.569,19.947 25.986,17.851z" id="path_1"/><path fill="#0000FF" d="M41.521,44.139c-0.233,0.021 -0.457,0.031 -0.691,0.031h-1.246c-1.959,0 -3.29,-0.159 -3.993,-0.5c-1.458,5.601 -3.15,9.028 -5.089,10.285c-1.928,1.257 -6.303,2.321 -13.129,3.194h-0.5c-1.491,-0.171 -2.246,-0.415 -2.246,-0.745c0,-0.501 1.245,-1.086 3.748,-1.746c9.816,-4.493 14.725,-7.741 14.725,-9.732c0,-0.83 -1.171,-2.746 -3.492,-5.739c-0.5,-0.84 -0.756,-1.916 -0.756,-3.247v-2.491c0,-1.257 0.256,-1.917 0.756,-2.002c2.162,3.312 5.813,5.153 10.978,5.547c0.309,0 0.617,0 0.937,-0.021V44.139z" id="path_2"/></svg>