<svg id="vector" xmlns="http://www.w3.org/2000/svg" width="84" height="75" viewBox="0 0 84 75"><path fill="#960000" d="M51.212,26.704h0.576c4.658,0 7.829,4.694 9.513,14.107v4.328c0,2.063 -1.154,4.842 -3.452,8.344c-5.434,6.922 -11.001,10.373 -16.716,10.373c-9.45,0 -15.411,-4.313 -17.856,-12.965l-0.577,-4.893v-0.281c0,-6.49 1.916,-11.861 5.764,-16.138l1.732,-1.156c0.381,0 0.565,0.295 0.565,0.873c-1.144,2.876 -2.298,5.138 -3.453,6.759c-1.156,1.636 -1.82,3.418 -2.017,5.334c0,7.152 3.368,11.764 10.079,13.828l5.186,0.576h0.295c7.583,0 13.826,-3.551 18.718,-10.654v-0.873c0,-1.008 -0.578,-2.064 -1.72,-3.158l-4.609,1.141c-5.187,-0.527 -7.78,-2.543 -7.78,-6.045v-0.578c0.431,-5.763 1.771,-8.639 4.031,-8.639L51.212,26.704z" id="path_0"/><path fill="#960000" d="M42.288,12.583c2.25,0.676 4.56,2.113 6.908,4.325v0.283c-2.151,3.797 -3.404,5.714 -3.737,5.764h-0.872c-1.623,-0.246 -3.354,-1.304 -5.175,-3.171v-0.283C39.598,17.24 40.556,14.941 42.288,12.583z" id="path_1"/><path fill="#960000" d="M53.239,11.144c2.101,0.479 4.215,1.733 6.329,3.748v0.284c0,1.057 -1.155,2.973 -3.454,5.764h-0.86c-1.351,0 -3.072,-1.058 -5.187,-3.171C50.597,14.794 51.654,12.583 53.239,11.144z" id="path_2"/></svg>