<svg id="vector" xmlns="http://www.w3.org/2000/svg" width="84" height="75" viewBox="0 0 84 75"><path fill="#0000FF" d="M18.866,44.878c0,0 -0.372,-1.015 -0.433,-1.334c-0.052,-0.274 -0.068,-0.551 -0.087,-0.827c-0.053,-0.142 -0.097,-0.285 -0.107,-0.431c-0.471,-6.45 -0.902,-12.903 -1.376,-19.354c-0.081,-1.108 0.456,-1.699 1.382,-2.085c1.32,-0.054 2.674,0.144 4.151,-0.31c-1.635,-1.376 -3.588,-1.816 -5.584,-1.404c-0.219,0.035 -0.44,0.084 -0.665,0.162c-0.527,0.162 -0.474,0.781 -0.841,1.069c-0.293,2.051 -0.104,4.085 0.146,6.127c0.319,2.605 0.557,10.169 0.677,11.137c0.238,1.937 0.558,13.683 4.222,15.169c0.501,0.205 1.001,0.41 1.501,0.615c0.827,-0.057 1.441,-0.306 1.418,-1.318c-0.025,-1.081 0.323,-2.879 0.335,-3.961C21.625,47.368 19.822,46.782 18.866,44.878z" id="path_0"/><path fill="#32E20A" d="M67.515,45.332c-0.027,-0.106 -0.056,-0.213 -0.083,-0.32c-0.001,-0.002 -0.004,-0.003 -0.005,-0.006c-0.358,-0.661 -0.952,-1.051 -1.57,-1.446c-0.068,-0.043 -0.119,-0.095 -0.156,-0.151c-2.392,-1.255 -5.059,-1.288 -7.785,-1.086c-0.988,0.073 -1.988,-0.002 -2.977,0.081c-1.053,0.088 -9.951,0.539 -13.353,0.535c-1.897,-0.002 -3.822,0.122 -5.669,-0.516c-1.52,-0.235 -2.964,-0.755 -4.438,-1.165c-0.004,0.003 0.288,-1.506 0.395,-1.526c0.58,-0.55 1.24,-1.057 1.953,-1.466c0.168,-0.165 0.343,-0.318 0.539,-0.441c1.512,-0.841 2.892,-1.915 4.523,-2.54c0.848,-0.46 1.694,-0.919 2.541,-1.379c0.991,-0.231 2.121,0.366 3.002,-0.508c0.299,-0.025 0.476,-0.184 0.531,-0.478c0.281,-0.071 0.43,-0.254 0.451,-0.543l0.002,-0.003c0.72,-0.466 1.009,-1.159 1.047,-1.984c0.272,-1.076 -0.202,-1.563 -1.002,-1.795c-0.016,0.009 -0.021,0.03 -0.039,0.03c-3.048,-0.03 -5.611,-0.03 -13.692,7.043c-0.154,0.135 -0.277,0.304 -0.392,0.474c-0.107,0.162 -0.214,0.323 -0.316,0.487c-0.58,0.586 -2.297,3.898 -2.155,4.748c-0.086,0.266 -0.157,0.529 -0.218,0.792c-0.041,1.172 0.15,2.317 0.736,3.334c0.642,0.826 1.566,1.136 2.534,1.367c0.643,0.42 1.382,0.542 2.116,0.65c4.178,0.613 16.381,-0.347 18.355,-0.624c2.632,-0.369 8.086,-1.209 10.008,1.257c0.039,0.051 0.068,0.111 0.092,0.174c0.041,0.029 0.082,0.058 0.122,0.087l-0.079,0.142c-4.868,1.821 -9.633,1.263 -10.122,1.457c-0.022,0.009 -12.857,0.634 -15.543,0.442c-2.511,-0.179 -5.019,-0.453 -7.5,-0.886c-1.928,-0.337 -4.012,-0.511 -5.764,-1.433c-1.468,1.2 -0.62,3.331 -1.821,4.633c-0.106,0.314 0.001,0.506 0.326,0.576c0.408,0.048 0.828,0.052 1.225,0.152c9.267,2.349 18.659,2.164 28.082,1.412c0.502,0.012 1.003,0.007 1.502,-0.005c1.407,-0.153 2.806,-0.387 4.213,-0.6c1.651,-0.25 3.301,-0.267 4.906,-0.781c0.099,-0.032 0.185,-0.025 0.264,-0.005c0.81,-0.16 1.611,-0.34 2.399,-0.558c1.497,-0.703 2.853,-1.667 3.974,-2.919C69.095,48.478 68.727,46.802 67.515,45.332z" id="path_1"/></svg>