<svg id="vector" xmlns="http://www.w3.org/2000/svg" width="84" height="75" viewBox="0 0 84 75"><path fill="#0000FF" d="M35.298,53.527h1.208h0.459h1.178c4.243,-0.31 6.818,-1.288 7.717,-2.925c0,-1.288 -1.477,-4.792 -4.441,-10.532l-0.47,-1.867c-0.509,-2.455 -0.489,-4.711 0.06,-6.758c0.539,-2.047 1.617,-3.464 3.215,-4.243c3.703,-2.496 10.801,-6.628 21.293,-12.398l0.23,0.239v0.459c-2.257,3.554 -3.974,6.828 -5.142,9.833h-0.47l-0.239,-1.168V22.99l0.239,-0.23v-0.229h-0.239c-8.694,5.021 -14.545,8.694 -17.55,10.991v0.24c3.284,6.627 5.071,11.69 5.391,15.204c0,2.496 -0.858,5.151 -2.575,7.957c-1.638,2.186 -4.911,3.273 -9.833,3.273h-0.03V53.527z" id="path_0"/></svg>