<svg id="vector" xmlns="http://www.w3.org/2000/svg" width="84" height="75" viewBox="0 0 84 75"><path fill="#000000" d="M58.381,35.279c0.148,0 0.374,0 0.686,0h0.77c1.945,0 3.189,-0.49 3.742,-1.463V33.45c-0.918,-3.189 -2.256,-6.091 -4.014,-8.705c0.209,-2.793 0.514,-4.193 0.91,-4.193c1.066,0.855 2.467,3.89 4.193,9.118l0.187,2.373v1.642c-0.583,4.497 -2.312,6.745 -5.197,6.745h-0.591c-0.327,0 -0.553,0.016 -0.686,0.047V35.279z" id="path_0"/><path fill="#000000" d="M62.895,43.324c0.621,0 2.076,0.731 4.371,2.186c0,0.918 -0.73,2.373 -2.186,4.381c-2.918,-0.941 -4.38,-1.798 -4.38,-2.552C60.777,46.654 61.509,45.316 62.895,43.324z" id="path_1"/><path fill="#BF0404" d="M58.833,40.453h-0.708h-0.18c-1.307,0.094 -2.707,-0.771 -4.193,-2.599c-0.576,2.194 -1.673,3.283 -3.283,3.283s-2.887,-0.91 -3.827,-2.731c-1.308,1.697 -2.521,2.553 -3.649,2.553h-1.455l-1.275,-0.188c0,2.708 -0.856,5.501 -2.56,8.387c-3.034,3.533 -6.192,5.291 -9.476,5.291c-5.688,0 -9.392,-2.98 -11.126,-8.932l-0.366,-3.836c0,-3.578 1.463,-6.745 4.381,-9.476c0.482,0.24 0.723,0.606 0.723,1.089c-2.061,2.863 -3.096,5.111 -3.096,6.754v0.723c0,4.016 2.311,6.746 6.932,8.209l2.918,0.365c4.31,0 7.655,-1.945 10.028,-5.835l0.179,-2.007c-1.579,-3.098 -2.373,-5.042 -2.373,-5.836v-0.545c0,-1.945 0.188,-2.917 0.553,-2.917c1.213,2.552 3.034,3.828 5.47,3.828c2.038,0 3.679,-1.276 4.925,-3.828h0.179c0.241,0 0.428,0.785 0.544,2.365c0.856,0.855 1.588,1.275 2.194,1.275h0.911c1.119,0 2.154,-1.393 3.096,-4.193l0.187,-0.179h0.179c0.242,2.232 1.214,3.485 2.918,3.758c0.521,-0.047 0.934,-0.047 1.253,-0.023V40.453z" id="path_2"/></svg>