<svg id="vector" xmlns="http://www.w3.org/2000/svg" width="84" height="75" viewBox="0 0 84 75"><path fill="#000001" d="M45.182,29.008c0.666,0 2.225,0.783 4.684,2.35c0,0.975 -0.775,2.533 -2.342,4.683c-3.125,-1.009 -4.684,-1.917 -4.684,-2.733C42.916,32.575 43.699,31.141 45.182,29.008z" id="path_0"/><path fill="#000001" d="M42.021,50.969c5.115,0.051 7.973,-0.907 8.598,-2.883c0,-0.683 -0.65,-2.374 -1.957,-5.074l0.592,-5.074h0.383c1.699,2.925 2.541,5.857 2.541,8.783v1.758c0,1.174 -0.283,2.408 -0.842,3.699s-1.424,2.383 -2.582,3.258c-1.166,0.883 -3.408,1.25 -6.732,1.1V50.969z" id="path_1"/><path fill="#E20A0A" d="M42.438,56.535c-3.791,0.225 -6.549,-1.524 -8.273,-5.249c-0.834,-1.384 -1.609,-10.707 -2.342,-27.971v-0.392c0.484,-2.867 1.199,-4.3 2.141,-4.3l0.984,-0.191c1.199,0 3.023,0.392 5.465,1.167v0.391c-0.133,0.392 -0.523,0.592 -1.174,0.592h-3.316c-0.684,0 -1.334,0.383 -1.959,1.167c0.609,14.99 1.492,23.672 2.666,26.047c1.168,2.375 3.109,3.433 5.809,3.174V56.535z" id="path_2"/></svg>