<svg id="vector" xmlns="http://www.w3.org/2000/svg" width="84" height="75" viewBox="0 0 84 75"><path fill="#00CD00" d="M53.51,22.244h0.478c0.566,0 1.942,3.636 4.122,10.901l0.237,0.96c0,5.693 -1.374,9.816 -4.112,12.359c-3.875,4.194 -8.475,6.292 -13.806,6.292c-4.36,-0.971 -7.18,-1.933 -8.473,-2.904c-4.205,-3.596 -6.303,-8.04 -6.303,-13.319c0,-4.443 1.943,-8.639 5.817,-12.595l0.238,-0.238h0.485l0.484,0.475c0,0.414 -1.125,2.181 -3.389,5.332c-0.651,1.126 -1.054,2.666 -1.208,4.598c0,3.762 1.932,6.984 5.807,9.692c3.792,1.458 6.375,2.18 7.75,2.18c3.472,0 7.584,-1.539 12.349,-4.597c1.942,-1.705 2.912,-2.749 2.912,-3.152l-3.39,-9.444l-0.247,-1.694L53.51,22.244L53.51,22.244zM40.668,27.089c-0.766,0.805 -1.653,2.665 -2.657,5.569c0,1.001 2.098,2.222 6.294,3.627c1.776,-2.098 2.748,-3.792 2.903,-5.084v-0.485c-1.777,-1.892 -3.793,-3.111 -6.056,-3.627H40.668z" id="path_0"/></svg>