<svg id="vector" xmlns="http://www.w3.org/2000/svg" width="84" height="75" viewBox="0 0 84 75"><path fill="#0000FF" d="M41.012,54.887c0.667,0 2.226,0.783 4.684,2.35c0,0.975 -0.775,2.533 -2.342,4.683c-3.124,-1.009 -4.683,-1.917 -4.683,-2.733C38.746,58.453 39.529,57.02 41.012,54.887z" id="path_0"/><path fill="#0000FF" d="M41.766,45.619c5.117,0.049 7.975,-0.908 8.6,-2.883c0,-0.684 -0.65,-2.375 -1.958,-5.074l0.592,-5.075h0.383c1.7,2.925 2.541,5.858 2.541,8.782v1.759c0,1.175 -0.283,2.408 -0.841,3.699c-0.559,1.292 -1.425,2.383 -2.584,3.257c-1.166,0.885 -3.407,1.251 -6.732,1.102V45.619z" id="path_1"/><path fill="#C60505" d="M42.183,51.186c-3.791,0.225 -6.55,-1.525 -8.274,-5.25c-0.833,-1.383 -1.607,-10.707 -2.341,-27.971v-0.391c0.483,-2.867 1.199,-4.3 2.142,-4.3l0.983,-0.191c1.199,0 3.024,0.391 5.466,1.166v0.392c-0.134,0.392 -0.525,0.591 -1.175,0.591h-3.316c-0.684,0 -1.333,0.383 -1.958,1.167c0.608,14.99 1.491,23.672 2.666,26.046c1.167,2.375 3.108,3.433 5.808,3.175V51.186z" id="path_2"/><path fill="#0000FF" d="M47.75,54.887c0.667,0 2.225,0.783 4.683,2.35c0,0.975 -0.775,2.533 -2.342,4.683c-3.123,-1.009 -4.682,-1.917 -4.682,-2.733C45.483,58.453 46.267,57.02 47.75,54.887z" id="path_3"/></svg>