<svg id="vector" xmlns="http://www.w3.org/2000/svg" width="84" height="75" viewBox="0 0 84 75"><path fill="#08AE3F" d="M29.97,35.612c-0.024,0.039 -0.049,0.086 -0.074,0.142c-0.529,1.083 -1.042,3.052 -1.042,3.63c0,0.34 0.149,0.389 0.364,0.34c1.505,-0.125 2.994,-0.216 4.524,-0.216c0.992,0 2.018,0.05 3.035,0.141c-4.913,2.498 -8.452,9.015 -8.452,16.226c0,6.104 3.076,11.877 12.81,12.48c0.314,0.024 0.628,0.024 0.943,0.024c5.136,0 9.502,-1.844 11.992,-2.911c0.678,-0.289 1.604,-0.777 1.604,-1.092c0,-0.14 -0.124,-0.24 -0.538,-0.24c-0.19,0 -0.604,0.025 -0.893,0.051c-2.448,0.215 -4.772,0.339 -6.765,0.339c-13.736,0 -17.681,-5.186 -17.681,-10.9c0,-3.556 2.919,-9.759 10.924,-12.571c0.993,-0.338 2.06,-0.652 4.921,-1.041c1.207,-0.166 2.497,-0.24 3.829,-0.265c0.215,0 0.364,-0.05 0.43,-0.124c0.926,-1.018 2.258,-2.828 2.522,-3.466c0.173,-0.38 0.123,-0.563 -0.149,-0.528c-1.788,0.229 -4.5,0.46 -8.138,0.363l-8.154,-0.215c-2.374,-0.428 0.097,-1.593 0.135,-1.725c0.72,-2.481 0.512,-2.792 -0.136,-2.507C34.265,32.303 31.826,35.05 29.97,35.612z" id="path_0"/><path fill="#000001" d="M47.843,29.586c0,0 1.207,-8.3 -2.716,-8.148c-3.923,0.15 -2.85,7.997 -9.144,10.109v2.565c0,0 4.078,-1.681 6.018,-4.979c1.94,-3.299 4.484,-2.264 4.032,0.453H47.843z" id="path_1"/><path fill="#000001" d="M41.178,12.546c0.75,0.083 1.98,1.134 3.682,3.154c-0.066,0.604 -0.933,1.854 -2.614,3.75l-0.364,-0.04c-0.75,-0.083 -1.822,-0.938 -3.201,-2.554l0.021,-0.186C38.783,15.944 39.607,14.571 41.178,12.546z" id="path_2"/><path fill="#000001" d="M47.804,12.362c2.874,1.625 4.268,2.819 4.184,3.577c-0.241,0.554 -1.224,1.729 -2.957,3.524c-1.932,-1.004 -3.285,-2.077 -4.046,-3.194C45.843,14.313 46.778,13.008 47.804,12.362z" id="path_3"/><path fill="#000001" d="M44.032,6.623c2.649,1.451 3.935,2.571 3.847,3.359l-2.759,3.366l-0.178,-0.02c-0.51,-0.056 -1.822,-0.937 -3.927,-2.641C42.448,7.911 43.459,6.56 44.032,6.623z" id="path_4"/><path fill="#08AE3F" d="M42.611,51.399c2.65,1.451 3.935,2.572 3.848,3.36L43.7,58.126l-0.178,-0.02c-0.51,-0.057 -1.822,-0.938 -3.927,-2.641C41.028,52.688 42.039,51.337 42.611,51.399z" id="path_5"/></svg>