<svg id="vector" xmlns="http://www.w3.org/2000/svg" width="84" height="75" viewBox="0 0 84 75"><path fill="#DD0909" d="M54.129,19.052c-0.097,-0.345 -0.29,-0.506 -0.408,-0.506c-0.408,0 -1.107,1.161 -1.956,2.773c-0.408,0.784 -0.57,1.192 -0.57,1.634c0,0.698 0.291,1.611 0.291,4.256c0,1.258 -0.064,2.858 -0.227,5.063c-0.312,3.88 -0.623,6.019 -1.977,8.942c0.411,0.891 0.813,1.775 1.17,2.668c-0.035,-0.093 -0.07,-0.183 -0.106,-0.271c2.526,-6.299 3.214,-10.608 3.622,-16.219c0.72,-0.881 1.58,-2.106 1.956,-3.085c0.064,-0.183 0.118,-0.376 0.118,-0.505c0,-0.097 -0.054,-0.279 -0.247,-0.623C55.107,21.824 54.537,20.405 54.129,19.052L54.129,19.052zM35.147,28.718l0.226,0.159C35.298,28.822 35.223,28.77 35.147,28.718L35.147,28.718zM47.782,43.645l0.005,0.01l-0.001,-0.003h-0.001L47.782,43.645L47.782,43.645zM47.823,43.752c-2.106,3.799 -5.349,6.727 -8.559,6.727c-0.193,0 -0.258,0 -0.505,-0.033c-0.064,0 -0.162,0.065 -0.215,0.184l-0.02,0.034c1.07,0.139 2.012,0.197 2.577,0.197c1.915,0 3.627,-0.022 4.468,-0.136c-0.254,0.014 -0.507,0.024 -0.76,0.033c1.816,-1.634 2.042,-2.139 3.869,-4.719c0.061,0.107 0.117,0.213 0.17,0.318C48.55,45.563 48.2,44.758 47.823,43.752z" id="path_0"/><path fill="#221F47" d="M49.282,41.214c-2.269,-4.88 -5.253,-8.89 -7.534,-11.802c-2.975,-3.794 -6.794,-6.739 -10.448,-9.265c-0.698,-0.473 -1.289,-0.881 -1.794,-0.881c-0.376,0 -0.731,0.258 -1.011,0.945c-0.279,0.634 -0.537,1.892 -0.537,3.182c0,0.505 0.032,1.01 0.129,1.483c0.129,0.945 4.374,5.04 5.127,5.04c0.73,0 1.611,-1.203 1.709,-1.354c4.755,3.217 10.233,9.961 12.862,15.088h0.001l0.001,0.003l0.044,0.085l-0.008,0.013c0.891,2.378 1.629,3.63 1.932,6.285c-1.239,0.45 -2.706,0.609 -4.185,0.688c-0.841,0.113 -2.553,0.136 -4.468,0.136c-0.565,0 -1.507,-0.059 -2.577,-0.197c-0.378,0.699 -0.68,2.665 -0.68,4.061c0,0.817 0.129,1.451 0.376,1.516c0.635,0.15 1.548,0.215 2.58,0.215c3.912,0 9.712,-0.976 10.081,-1.913C52.906,49.401 51.201,45.369 49.282,41.214z" id="path_1"/></svg>