<svg id="vector" xmlns="http://www.w3.org/2000/svg" width="84" height="75" viewBox="0 0 84 75"><path fill="#000000" d="M58.922,43.462c0.148,0 0.374,0 0.685,0h0.771c1.945,0 3.19,-0.49 3.742,-1.462v-0.366c-0.918,-3.19 -2.257,-6.092 -4.015,-8.706c0.21,-2.793 0.514,-4.193 0.91,-4.193c1.066,0.855 2.467,3.891 4.193,9.118l0.187,2.373v1.642c-0.583,4.497 -2.311,6.745 -5.197,6.745h-0.592c-0.326,0 -0.553,0.016 -0.685,0.047V43.462z" id="path_0"/><path fill="#000000" d="M55.713,18.936c0.622,0 2.077,0.732 4.372,2.187c0,0.919 -0.731,2.373 -2.186,4.381c-2.918,-0.941 -4.38,-1.798 -4.38,-2.552C53.597,22.266 54.328,20.928 55.713,18.936z" id="path_1"/><path fill="#F80000" d="M59.374,48.636h-0.708h-0.179c-1.307,0.093 -2.708,-0.771 -4.194,-2.599c-0.575,2.193 -1.673,3.283 -3.283,3.283s-2.886,-0.91 -3.827,-2.73c-1.307,1.695 -2.521,2.551 -3.649,2.551h-1.455l-1.276,-0.187c0,2.708 -0.856,5.501 -2.56,8.388c-3.034,3.531 -6.193,5.29 -9.476,5.29c-5.688,0 -9.391,-2.979 -11.125,-8.932l-0.366,-3.835c0,-3.58 1.463,-6.746 4.381,-9.477c0.482,0.24 0.723,0.607 0.723,1.09c-2.062,2.862 -3.097,5.111 -3.097,6.752v0.724c0,4.015 2.311,6.746 6.932,8.208l2.918,0.366c4.31,0 7.655,-1.945 10.028,-5.835l0.179,-2.008c-1.58,-3.096 -2.373,-5.041 -2.373,-5.835v-0.544c0,-1.945 0.187,-2.918 0.552,-2.918c1.213,2.552 3.034,3.828 5.47,3.828c2.038,0 3.679,-1.276 4.924,-3.828h0.179c0.241,0 0.428,0.785 0.544,2.365c0.856,0.855 1.587,1.275 2.194,1.275h0.91c1.12,0 2.155,-1.393 3.096,-4.193l0.187,-0.178h0.179c0.241,2.232 1.214,3.484 2.917,3.757c0.521,-0.046 0.933,-0.046 1.253,-0.022V48.636z" id="path_2"/><path fill="#000000" d="M62.353,18.936c0.622,0 2.077,0.732 4.372,2.187c0,0.919 -0.731,2.373 -2.186,4.381c-2.917,-0.941 -4.38,-1.798 -4.38,-2.552C60.236,22.266 60.967,20.928 62.353,18.936z" id="path_3"/></svg>