<svg id="vector" xmlns="http://www.w3.org/2000/svg" width="84" height="75" viewBox="0 0 84 75"><path fill="#09DF09" d="M27.571,28.205c-0.024,0.039 -0.049,0.086 -0.073,0.142c-0.529,1.083 -1.042,3.052 -1.042,3.631c0,0.338 0.148,0.388 0.364,0.338c1.505,-0.123 2.993,-0.215 4.523,-0.215c0.992,0 2.018,0.05 3.035,0.141c-4.913,2.498 -8.452,9.015 -8.452,16.227c0,6.104 3.076,11.876 12.811,12.479c0.314,0.024 0.628,0.024 0.942,0.024c5.136,0 9.503,-1.844 11.992,-2.911c0.678,-0.29 1.604,-0.776 1.604,-1.091c0,-0.141 -0.124,-0.24 -0.538,-0.24c-0.189,0 -0.604,0.025 -0.893,0.049c-2.448,0.216 -4.772,0.34 -6.766,0.34c-13.736,0 -17.681,-5.186 -17.681,-10.9c0,-3.557 2.919,-9.759 10.924,-12.57c0.993,-0.339 2.06,-0.653 4.922,-1.042c1.207,-0.165 2.497,-0.24 3.828,-0.265c0.215,0 0.364,-0.05 0.431,-0.124c0.926,-1.018 2.258,-2.828 2.522,-3.466c0.173,-0.38 0.122,-0.563 -0.149,-0.528c-1.787,0.229 -4.5,0.46 -8.138,0.363l-8.154,-0.215c-2.374,-0.428 0.097,-1.593 0.135,-1.725c0.72,-2.481 0.513,-2.792 -0.136,-2.507C31.866,24.896 29.427,27.643 27.571,28.205z" id="path_0"/><path fill="#000000" d="M45.444,22.179c0,0 1.207,-8.299 -2.717,-8.148c-3.923,0.15 -2.85,7.997 -9.144,10.109v2.565c0,0 4.077,-1.681 6.018,-4.979s4.484,-2.264 4.031,0.453H45.444z" id="path_1"/><path fill="#000000" d="M54.391,32.65c0.749,0.082 1.979,1.134 3.682,3.154c-0.066,0.604 -0.933,1.853 -2.613,3.75l-0.364,-0.04c-0.75,-0.083 -1.821,-0.938 -3.2,-2.554l0.02,-0.186C51.995,36.049 52.819,34.676 54.391,32.65z" id="path_2"/><path fill="#09DF09" d="M39.914,42.483c2.873,1.625 4.268,2.819 4.184,3.578c-0.241,0.553 -1.224,1.728 -2.957,3.523c-1.932,-1.004 -3.285,-2.076 -4.046,-3.194C37.953,44.435 38.888,43.13 39.914,42.483z" id="path_3"/></svg>