<svg id="vector" xmlns="http://www.w3.org/2000/svg" width="84" height="75" viewBox="0 0 84 75"><path fill="#e2610a" d="M36.964,29.527c-0.096,-0.034 -0.19,-0.066 -0.285,-0.096c2.225,-2.298 6.901,-3.688 9.766,-3.657c0.938,0 2.019,0.154 2.44,0.969c0.269,0.515 0.639,1.02 1.113,1.02c0.37,0 0.7,-0.268 1.061,-0.845c0.906,-1.381 1.329,-2.627 1.329,-3.657c0,-1.896 -1.236,-2.533 -3.049,-2.533c-6.184,0 -13.202,3.893 -15.71,7.99C34.787,28.965 35.908,29.241 36.964,29.527z" id="path_0"/><path fill="#0000FF" d="M31.765,32.893c-1.72,0.824 -3.049,2.173 -4.037,4.079c-1.03,1.957 -1.546,4.018 -1.546,6.19c0.063,1.689 0.546,4.522 1.298,8.622c1,5.501 1.329,9.178 1.144,12.135c-0.051,1.061 0,1.391 0.278,1.422c0.299,0.03 0.69,-0.67 0.938,-1.422c0.721,-2.143 0.989,-3.925 0.989,-6.006c-0.093,-2.019 -0.33,-4.285 -0.69,-6.788l-1.813,-11.353c0.783,-1.266 2.957,-1.895 6.665,-1.895c2.081,0.031 3.894,0.422 4.883,0.814c0.299,0.123 0.453,0.092 0.659,-0.186c0.813,-1.051 2.081,-3.771 2.05,-4.038c0,-0.67 -0.628,-1.576 -1.896,-2.72c-1.263,-1.033 -2.489,-1.781 -3.722,-2.222c-1.056,-0.286 -2.177,-0.563 -3.335,-0.81c-0.146,0.237 -0.276,0.476 -0.391,0.714C32.908,30.028 32.301,31.574 31.765,32.893z" id="path_1"/><path fill="#e2610a" d="M46.969,9.744c-0.145,-0.155 -0.236,-0.124 -0.659,0.298c-0.876,0.876 -2.132,2.328 -2.854,3.451c-0.154,0.268 -0.154,0.299 0,0.536c0.567,0.906 2.792,2.606 3.812,3.203c0.247,0.154 0.33,0.154 0.516,-0.062c0.813,-0.927 2.585,-2.987 3.121,-3.678c0.186,-0.186 0.236,-0.309 0.03,-0.433C49.4,12.072 47.813,10.65 46.969,9.744z" id="path_2"/><path fill="#e2610a" d="M53.719,9.744c-0.144,-0.155 -0.236,-0.124 -0.659,0.298c-0.875,0.876 -2.132,2.328 -2.854,3.451c-0.154,0.268 -0.154,0.299 0,0.536c0.567,0.906 2.792,2.606 3.812,3.203c0.247,0.154 0.33,0.154 0.516,-0.062c0.813,-0.927 2.585,-2.987 3.121,-3.678c0.186,-0.186 0.236,-0.309 0.03,-0.433C56.15,12.072 54.563,10.65 53.719,9.744z" id="path_3"/></svg>