<svg id="vector" xmlns="http://www.w3.org/2000/svg" width="84" height="75" viewBox="0 0 84 75"><path fill="#A905C6" d="M43.863,38.996c-1.658,0 -2.941,-0.257 -3.859,-0.771c-0.451,3.953 -1.299,6.684 -2.553,8.209c-3.002,3.765 -6.105,5.647 -9.297,5.647c-5.865,0 -9.693,-2.552 -11.49,-7.655c-0.357,-0.973 -0.545,-2.008 -0.545,-3.104v-1.455c0,-4.317 1.338,-7.718 4.014,-10.216c0.484,0.188 0.732,0.607 0.732,1.277l-2.918,5.289l-0.186,1.821c0,4.108 2.248,6.964 6.744,8.574l4.746,0.365c2,0 4.496,-1.159 7.477,-3.462c1.09,-1.767 1.641,-3.043 1.641,-3.836c-0.123,-1.214 -0.918,-2.973 -2.373,-5.283v-3.835l0.545,-0.544c1.324,2.66 3.766,3.943 7.322,3.851V38.996z" id="path_0"/><path fill="#A905C6" d="M27.789,34.211c1.797,0.575 3.189,1.307 4.193,2.186v0.365c0,0.607 -0.668,1.945 -2.008,4.016c-1.244,0 -2.637,-0.67 -4.191,-2.008v-0.366C25.783,37.098 26.451,35.706 27.789,34.211z" id="path_1"/><path fill="#0000F4" d="M45.252,18.783h0.73c2.396,1.369 3.619,2.163 3.643,2.374c-1.184,2.551 -1.969,3.889 -2.365,4.014c-1.369,0 -2.709,-0.67 -4.016,-2.008C43.486,21.856 44.154,20.401 45.252,18.783z" id="path_2"/><path fill="#0000F4" d="M43.404,33.729h0.047c2.123,0 3.828,-0.725 5.104,-2.186l-0.18,-1.455c0,-1.798 0.367,-3.253 1.09,-4.381c0.334,0 0.824,3.104 1.463,9.297c0.73,3.346 3.275,4.894 7.633,4.652v5.197c-4.256,0.304 -7.221,-1.642 -8.908,-5.835c-0.273,-2.917 -0.576,-4.372 -0.91,-4.372c-0.717,2.762 -2.498,4.217 -5.338,4.349V33.729z" id="path_3"/><path fill="#000001" d="M58.396,39.797c4.777,0.047 7.445,-0.848 8.029,-2.691c0,-0.639 -0.607,-2.218 -1.828,-4.738l0.551,-4.738h0.359c1.586,2.73 2.373,5.469 2.373,8.2v1.642c0,1.097 -0.266,2.248 -0.787,3.454s-1.33,2.226 -2.412,3.042c-1.088,0.824 -3.182,1.167 -6.285,1.027V39.797z" id="path_4"/><path fill="#000001" d="M63.594,49.651c1.797,0.576 3.197,1.307 4.193,2.187v0.366c0,0.606 -0.662,1.945 -2,4.014c-1.244,0 -2.645,-0.669 -4.193,-2.007v-0.366C61.594,52.538 62.264,51.137 63.594,49.651z" id="path_5"/></svg>