<svg id="vector" xmlns="http://www.w3.org/2000/svg" width="84" height="75" viewBox="0 0 84 75"><path fill="#E20A0A" d="M43.4,40.455c-1.658,0 -2.941,-0.257 -3.859,-0.771c-0.451,3.952 -1.299,6.683 -2.553,8.208c-3.002,3.766 -6.105,5.648 -9.297,5.648c-5.865,0 -9.693,-2.552 -11.49,-7.656c-0.357,-0.971 -0.545,-2.006 -0.545,-3.104v-1.455c0,-4.317 1.338,-7.718 4.014,-10.215c0.484,0.187 0.732,0.607 0.732,1.275l-2.918,5.291l-0.186,1.82c0,4.107 2.248,6.963 6.744,8.574l4.746,0.365c2,0 4.496,-1.16 7.477,-3.463c1.09,-1.766 1.641,-3.041 1.641,-3.835c-0.123,-1.214 -0.918,-2.972 -2.373,-5.282v-3.836l0.545,-0.545c1.324,2.661 3.766,3.945 7.322,3.852V40.455z" id="path_0"/><path fill="#E20A0A" d="M27.326,35.67c1.797,0.576 3.189,1.307 4.193,2.188v0.365c0,0.607 -0.668,1.945 -2.008,4.014c-1.244,0 -2.637,-0.669 -4.191,-2.007v-0.366C25.32,38.557 25.988,37.164 27.326,35.67z" id="path_1"/><path fill="#38C605" d="M40.816,16.959h0.732c2.396,1.369 3.617,2.163 3.641,2.373c-1.182,2.552 -1.969,3.89 -2.365,4.014c-1.369,0 -2.707,-0.669 -4.014,-2.007C39.051,20.032 39.721,18.577 40.816,16.959z" id="path_2"/><path fill="#38C605" d="M42.941,35.188h0.047c2.123,0 3.828,-0.723 5.104,-2.186l-0.18,-1.455c0,-1.797 0.367,-3.252 1.09,-4.38c0.334,0 0.824,3.104 1.463,9.297c0.73,3.346 3.275,4.894 7.633,4.652v5.197c-4.256,0.304 -7.221,-1.642 -8.908,-5.835c-0.273,-2.918 -0.576,-4.373 -0.91,-4.373c-0.717,2.762 -2.498,4.217 -5.338,4.35V35.188z" id="path_3"/><path fill="#000001" d="M57.934,41.257c4.777,0.046 7.445,-0.849 8.029,-2.692c0,-0.638 -0.607,-2.217 -1.828,-4.738l0.551,-4.737h0.359c1.586,2.73 2.373,5.47 2.373,8.2v1.642c0,1.097 -0.266,2.248 -0.787,3.454s-1.33,2.225 -2.412,3.042c-1.088,0.825 -3.182,1.167 -6.285,1.026V41.257z" id="path_4"/><path fill="#000001" d="M58.389,51.474c1.795,0.577 3.197,1.308 4.193,2.187v0.366c0,0.606 -0.662,1.944 -2,4.014c-1.246,0 -2.646,-0.669 -4.193,-2.007v-0.365C56.389,54.361 57.057,52.961 58.389,51.474z" id="path_5"/><path fill="#000001" d="M64.15,51.474c1.797,0.577 3.197,1.308 4.193,2.187v0.366c0,0.606 -0.662,1.944 -2,4.014c-1.244,0 -2.645,-0.669 -4.193,-2.007v-0.365C62.15,54.361 62.82,52.961 64.15,51.474z" id="path_6"/><path fill="#38C605" d="M46.441,16.959h0.732c2.396,1.369 3.617,2.163 3.641,2.373c-1.182,2.552 -1.969,3.89 -2.365,4.014c-1.369,0 -2.707,-0.669 -4.014,-2.007C44.676,20.032 45.346,18.577 46.441,16.959z" id="path_7"/></svg>