<svg id="vector" xmlns="http://www.w3.org/2000/svg" width="84" height="75" viewBox="0 0 84 75"><path fill="#0000FF" d="M41.856,49.251c-1.868,0.017 -3.959,-0.938 -5.185,-2.864h-0.189c-0.905,3.211 -2.255,5.465 -4.049,6.748c-2.543,2.444 -5.308,3.662 -8.296,3.662h-1.159c-3.407,0 -6.428,-1.926 -9.061,-5.785c-1.029,-1.769 -1.548,-3.826 -1.548,-6.172c0,-3.308 1.671,-6.649 5.021,-10.023c1.744,-1.11 2.263,-1.045 1.539,0.189c-2.955,4.115 -4.437,6.945 -4.437,8.484c0,3.992 2.954,6.625 8.872,7.908h1.547c3.309,0 6.583,-1.67 9.834,-5.012c0.337,-1.061 0.402,-2.222 0.189,-3.473c-0.643,-2.732 -1.605,-9.677 -2.889,-20.828l1.152,-3.859c0.18,-0.033 0.37,-0.033 0.584,0c0.354,0 0.996,4.889 1.926,14.656c0.641,5.143 1.348,8.412 2.313,9.645c0.725,0.928 2.436,1.275 3.835,1.227V49.251z" id="path_0"/><path fill="#000000" d="M41.856,43.828c1.374,0.016 2.222,-0.008 2.56,-0.074c2.896,-0.881 4.871,-2.758 5.933,-5.612c0.157,-0.552 0.478,-0.617 0.963,-0.198c0.256,0.223 0.453,1.128 0.576,2.7c1.753,2.362 3.942,3.423 6.56,3.185h0.51v5.497h-0.123c-4.099,-0.189 -7.119,-2.058 -9.069,-5.597h-0.188c-1.367,2.881 -3.169,4.65 -5.399,5.309c-0.675,0.189 -1.448,0.288 -2.32,0.288V43.828z" id="path_1"/><path fill="#000000" d="M48.336,26.75c0.658,0 2.206,0.773 4.634,2.313c0,0.963 -0.773,2.51 -2.32,4.633c-3.087,-1.004 -4.626,-1.9 -4.626,-2.707C46.106,30.271 46.872,28.856 48.336,26.75z" id="path_2"/><path fill="#E20AD7" d="M58.125,43.828c5.054,0.049 7.876,-0.896 8.493,-2.848c0,-0.675 -0.642,-2.346 -1.934,-5.012l0.584,-5.012h0.379c1.679,2.889 2.51,5.785 2.51,8.674v1.736c0,1.16 -0.28,2.379 -0.831,3.654c-0.552,1.275 -1.407,2.354 -2.551,3.217c-1.152,0.873 -3.366,1.234 -6.65,1.087V43.828z" id="path_3"/><path fill="#E20AD7" d="M60.937,20.539c0.659,0 2.206,0.773 4.634,2.313c0,0.963 -0.773,2.51 -2.32,4.633c-3.086,-1.004 -4.625,-1.9 -4.625,-2.707C58.707,24.061 59.473,22.646 60.937,20.539z" id="path_4"/><path fill="#E20AD7" d="M66.996,20.539c0.659,0 2.206,0.773 4.635,2.313c0,0.963 -0.773,2.51 -2.321,4.633c-3.086,-1.004 -4.625,-1.9 -4.625,-2.707C64.767,24.061 65.532,22.646 66.996,20.539z" id="path_5"/></svg>