<svg id="vector" xmlns="http://www.w3.org/2000/svg" width="84" height="75" viewBox="0 0 84 75"><path fill="#000000" d="M43.863,40.573c-1.658,0 -2.941,-0.256 -3.859,-0.77c-0.451,3.952 -1.299,6.684 -2.553,8.208c-3.002,3.766 -6.107,5.648 -9.297,5.648c-5.865,0 -9.693,-2.552 -11.49,-7.655c-0.357,-0.973 -0.545,-2.008 -0.545,-3.105v-1.455c0,-4.316 1.338,-7.717 4.014,-10.215c0.482,0.188 0.732,0.607 0.732,1.277l-2.918,5.289l-0.186,1.82c0,4.108 2.248,6.964 6.744,8.574l4.746,0.365c2,0 4.496,-1.158 7.477,-3.461c1.09,-1.767 1.641,-3.043 1.641,-3.836c-0.123,-1.215 -0.918,-2.973 -2.373,-5.283v-3.836l0.545,-0.543c1.324,2.66 3.766,3.943 7.322,3.851V40.573z" id="path_0"/><path fill="#000000" d="M27.789,35.789c1.797,0.576 3.189,1.308 4.193,2.187v0.365c0,0.607 -0.668,1.945 -2.008,4.015c-1.244,0 -2.637,-0.669 -4.193,-2.007v-0.366C25.781,38.675 26.451,37.283 27.789,35.789z" id="path_1"/><path fill="#C60505" d="M46.025,48.252h0.732c2.396,1.369 3.617,2.163 3.641,2.373c-1.182,2.552 -1.969,3.89 -2.365,4.014c-1.369,0 -2.707,-0.669 -4.014,-2.007C44.26,51.326 44.93,49.871 46.025,48.252z" id="path_2"/><path fill="#C60505" d="M43.404,35.307h0.047c2.123,0 3.828,-0.725 5.104,-2.187l-0.18,-1.455c0,-1.798 0.367,-3.253 1.09,-4.38c0.334,0 0.824,3.104 1.463,9.297c0.73,3.346 3.275,4.894 7.633,4.652v5.197c-4.256,0.303 -7.221,-1.643 -8.908,-5.836c-0.273,-2.916 -0.576,-4.371 -0.91,-4.371c-0.717,2.762 -2.498,4.217 -5.338,4.348V35.307z" id="path_3"/><path fill="#0000FF" d="M58.396,41.375c4.777,0.046 7.445,-0.848 8.029,-2.692c0,-0.638 -0.607,-2.218 -1.828,-4.737l0.551,-4.738h0.359c1.586,2.73 2.373,5.469 2.373,8.199v1.643c0,1.096 -0.266,2.248 -0.787,3.454s-1.33,2.226 -2.412,3.042c-1.088,0.824 -3.182,1.166 -6.285,1.027V41.375z" id="path_4"/><path fill="#0000FF" d="M63.594,20.361c1.797,0.576 3.197,1.308 4.193,2.187v0.365c0,0.607 -0.662,1.945 -2,4.015c-1.244,0 -2.645,-0.669 -4.193,-2.007v-0.366C61.594,23.248 62.264,21.847 63.594,20.361z" id="path_5"/></svg>