<svg id="vector" xmlns="http://www.w3.org/2000/svg" width="84" height="75" viewBox="0 0 84 75"><path fill="#C60505" d="M43.401,45.637c-1.658,0 -2.941,-0.257 -3.859,-0.77c-0.451,3.951 -1.299,6.682 -2.553,8.207c-3.002,3.766 -6.107,5.648 -9.297,5.648c-5.865,0 -9.693,-2.552 -11.49,-7.656c-0.357,-0.971 -0.545,-2.006 -0.545,-3.104v-1.455c0,-4.317 1.338,-7.718 4.014,-10.215c0.482,0.187 0.732,0.607 0.732,1.275l-2.918,5.291l-0.186,1.82c0,4.107 2.248,6.963 6.744,8.574l4.746,0.365c2,0 4.496,-1.16 7.477,-3.463c1.09,-1.766 1.641,-3.041 1.641,-3.834c-0.123,-1.215 -0.918,-2.973 -2.373,-5.283v-3.836l0.545,-0.545c1.324,2.661 3.766,3.945 7.322,3.852V45.637z" id="path_0"/><path fill="#C60505" d="M27.327,40.852c1.797,0.576 3.189,1.307 4.193,2.188v0.365c0,0.607 -0.668,1.945 -2.008,4.014c-1.244,0 -2.637,-0.668 -4.191,-2.007v-0.366C25.321,43.738 25.989,42.346 27.327,40.852z" id="path_1"/><path fill="#076CA3" d="M40.817,22.141h0.732c2.396,1.369 3.617,2.163 3.641,2.373c-1.184,2.552 -1.969,3.89 -2.365,4.014c-1.369,0 -2.707,-0.668 -4.014,-2.007C39.051,25.214 39.721,23.759 40.817,22.141z" id="path_2"/><path fill="#076CA3" d="M42.942,40.37h0.047c2.123,0 3.828,-0.724 5.104,-2.187l-0.18,-1.455c0,-1.797 0.367,-3.252 1.09,-4.38c0.334,0 0.824,3.104 1.463,9.297c0.73,3.346 3.275,4.894 7.633,4.652v5.197c-4.256,0.304 -7.221,-1.642 -8.908,-5.835c-0.273,-2.918 -0.576,-4.373 -0.91,-4.373c-0.717,2.763 -2.498,4.218 -5.338,4.35V40.37z" id="path_3"/><path fill="#049E04" d="M57.934,46.438c4.777,0.046 7.445,-0.849 8.029,-2.692c0,-0.638 -0.607,-2.217 -1.828,-4.738l0.551,-4.737h0.359c1.586,2.731 2.371,5.47 2.371,8.2v1.642c0,1.097 -0.264,2.249 -0.785,3.454c-0.521,1.206 -1.33,2.226 -2.412,3.042c-1.088,0.825 -3.182,1.167 -6.285,1.026V46.438z" id="path_4"/><path fill="#049E04" d="M58.389,22.449c1.795,0.576 3.197,1.307 4.193,2.187v0.366c0,0.606 -0.662,1.944 -2,4.014c-1.246,0 -2.646,-0.669 -4.193,-2.007v-0.366C56.389,25.336 57.057,23.936 58.389,22.449z" id="path_5"/><path fill="#049E04" d="M64.151,22.449c1.797,0.576 3.197,1.307 4.193,2.187v0.366c0,0.606 -0.662,1.944 -2,4.014c-1.244,0 -2.645,-0.669 -4.193,-2.007v-0.366C62.151,25.336 62.821,23.936 64.151,22.449z" id="path_6"/><path fill="#076CA3" d="M46.442,22.141h0.732c2.396,1.369 3.617,2.163 3.641,2.373c-1.182,2.552 -1.969,3.89 -2.365,4.014c-1.369,0 -2.707,-0.668 -4.014,-2.007C44.676,25.214 45.346,23.759 46.442,22.141z" id="path_7"/><path fill="#049E04" d="M60.713,16.584c1.797,0.576 3.197,1.308 4.193,2.188v0.365c0,0.607 -0.66,1.945 -1.998,4.014c-1.246,0 -2.646,-0.668 -4.195,-2.006v-0.367C58.713,19.471 59.383,18.07 60.713,16.584z" id="path_8"/><path fill="#076CA3" d="M43.143,16.275h0.732c2.395,1.369 3.617,2.164 3.641,2.374c-1.184,2.552 -1.969,3.89 -2.365,4.015c-1.369,0 -2.709,-0.67 -4.016,-2.008C41.377,19.35 42.045,17.895 43.143,16.275z" id="path_9"/></svg>