<svg id="vector" xmlns="http://www.w3.org/2000/svg" width="84" height="75" viewBox="0 0 84 75"><path fill="#000000" d="M43.593,46.184c-1.868,0.016 -3.959,-0.938 -5.185,-2.864h-0.189c-0.905,3.21 -2.255,5.464 -4.049,6.748c-2.543,2.444 -5.308,3.662 -8.295,3.662h-1.16c-3.407,0 -6.428,-1.925 -9.061,-5.784c-1.029,-1.77 -1.548,-3.828 -1.548,-6.173c0,-3.308 1.671,-6.649 5.021,-10.023c1.744,-1.11 2.263,-1.045 1.539,0.189c-2.955,4.114 -4.436,6.945 -4.436,8.484c0,3.991 2.953,6.625 8.871,7.909h1.547c3.309,0 6.583,-1.672 9.834,-5.013c0.337,-1.062 0.402,-2.222 0.189,-3.473c-0.643,-2.732 -1.605,-9.677 -2.889,-20.828l1.152,-3.859c0.18,-0.033 0.37,-0.033 0.584,0c0.354,0 0.996,4.888 1.926,14.656c0.641,5.144 1.348,8.411 2.313,9.645c0.725,0.927 2.436,1.275 3.835,1.226V46.184z" id="path_0"/><path fill="#E20A0A" d="M43.593,40.761c1.374,0.017 2.222,-0.009 2.56,-0.075c2.896,-0.88 4.871,-2.756 5.933,-5.611c0.157,-0.552 0.478,-0.617 0.963,-0.198c0.256,0.222 0.453,1.128 0.576,2.7c1.753,2.361 3.942,3.423 6.56,3.185h0.51v5.497H60.57c-4.099,-0.189 -7.119,-2.058 -9.069,-5.597h-0.188c-1.367,2.88 -3.169,4.649 -5.399,5.308c-0.675,0.189 -1.448,0.289 -2.32,0.289V40.761z" id="path_1"/><path fill="#2F2FB3" d="M63.621,52.152c0.658,0 2.205,0.773 4.633,2.313c0,0.963 -0.773,2.51 -2.32,4.633c-3.086,-1.004 -4.625,-1.9 -4.625,-2.707C61.391,55.674 62.156,54.26 63.621,52.152z" id="path_2"/><path fill="#2F2FB3" d="M59.861,40.761c5.054,0.049 7.876,-0.897 8.493,-2.848c0,-0.675 -0.642,-2.345 -1.934,-5.012l0.584,-5.012h0.379c1.679,2.889 2.51,5.785 2.51,8.674v1.737c0,1.159 -0.28,2.377 -0.831,3.652c-0.552,1.275 -1.407,2.354 -2.551,3.218c-1.152,0.872 -3.366,1.234 -6.65,1.087V40.761z" id="path_3"/><path fill="#E20A0A" d="M42.576,52.92c0.658,0 2.205,0.773 4.633,2.313c0,0.963 -0.773,2.51 -2.32,4.633c-3.086,-1.004 -4.625,-1.9 -4.625,-2.707C40.346,56.441 41.111,55.026 42.576,52.92z" id="path_4"/><path fill="#E20A0A" d="M48.636,52.92c0.658,0 2.206,0.773 4.634,2.313c0,0.963 -0.773,2.51 -2.321,4.633c-3.086,-1.004 -4.625,-1.9 -4.625,-2.707C46.406,56.441 47.172,55.026 48.636,52.92z" id="path_5"/></svg>