<svg id="vector" xmlns="http://www.w3.org/2000/svg" width="84" height="75" viewBox="0 0 84 75"><path fill="#000000" d="M46.289,38.236h2.215c2.338,-0.32 6.053,-1.189 11.147,-2.592v-0.197c-4.643,-2.051 -7.588,-3.076 -8.843,-3.076c-1.697,0 -2.846,0.959 -3.461,2.887l-0.574,0.387c-0.254,0 -0.386,-0.197 -0.386,-0.582c0.64,-3.84 2.371,-5.768 5.192,-5.768h0.959c1.189,0 5.226,1.346 12.115,4.035l5.192,0.387l0.377,0.582c-0.09,0.861 -0.861,2.525 -2.305,4.994h-0.574l-0.771,-0.197h-0.959c-9.999,2.953 -15.83,4.488 -17.496,4.619h-1.829V38.236z" id="path_0"/><path fill="#FF0000" d="M26.748,50.098c0.804,0 2.215,0.959 4.232,2.879c0,0.639 -0.771,2.051 -2.306,4.232H28.29c-0.804,0 -2.018,-0.771 -3.65,-2.305v-0.197C24.64,53.936 25.337,52.402 26.748,50.098z" id="path_1"/><path fill="#000000" d="M60.485,17.791c2.945,1.215 4.421,2.24 4.421,3.076l-2.501,3.84h-0.188c-0.55,0 -2.026,-0.764 -4.43,-2.307C58.977,19.326 59.87,17.791 60.485,17.791z" id="path_2"/><path fill="#FF0000" d="M47.159,43.738c-2.453,-0.195 -4.676,-1.918 -6.66,-5.166c-2.945,3.584 -7.177,5.379 -12.689,5.379h-1.534c-5.962,0 -10.063,-2.559 -12.303,-7.684l-0.197,-1.156v-1.73c0,-1.855 0.837,-3.971 2.502,-6.342h0.188l0.386,0.387v0.959l-0.959,3.076c0,3.363 2.821,5.668 8.456,6.922l3.461,0.189c5.996,0 10.737,-2.051 14.231,-6.152c0.188,0 0.377,0.254 0.574,0.771l-0.197,1.346c0.656,2.42 2.239,3.633 4.741,3.648V43.738z" id="path_3"/></svg>