<svg id="vector" xmlns="http://www.w3.org/2000/svg" width="84" height="75" viewBox="0 0 84 75"><path fill="#000007" d="M46.289,44.674h2.215c2.338,-0.32 6.053,-1.189 11.147,-2.594v-0.195c-4.643,-2.051 -7.588,-3.076 -8.843,-3.076c-1.697,0 -2.846,0.959 -3.461,2.887l-0.574,0.385c-0.254,0 -0.386,-0.195 -0.386,-0.582c0.64,-3.838 2.37,-5.766 5.191,-5.766h0.96c1.189,0 5.226,1.346 12.115,4.035l5.192,0.385l0.377,0.582c-0.09,0.863 -0.861,2.527 -2.305,4.996h-0.574l-0.771,-0.197h-0.96c-9.998,2.953 -15.83,4.486 -17.495,4.619h-1.829V44.674z" id="path_0"/><path fill="#12C605" d="M24.323,31.146c0.805,0 2.215,0.961 4.232,2.881c0,0.639 -0.771,2.049 -2.305,4.23h-0.385c-0.804,0 -2.018,-0.77 -3.65,-2.303v-0.197C22.216,34.986 22.913,33.453 24.323,31.146z" id="path_1"/><path fill="#12C605" d="M31.247,30.18c3.206,1.379 4.806,2.469 4.806,3.273c-0.188,0.607 -1.091,1.951 -2.69,4.035c-2.148,-0.838 -3.683,-1.797 -4.617,-2.887C29.417,32.459 30.254,30.984 31.247,30.18z" id="path_2"/><path fill="#12C605" d="M26.637,24.611c2.944,1.213 4.421,2.238 4.421,3.074l-2.502,3.84h-0.188c-0.55,0 -2.025,-0.764 -4.429,-2.305C25.128,26.145 26.021,24.611 26.637,24.611z" id="path_3"/><path fill="#12C605" d="M47.158,50.176c-2.452,-0.195 -4.675,-1.918 -6.66,-5.166c-2.944,3.584 -7.177,5.379 -12.688,5.379h-1.534c-5.962,0 -10.063,-2.559 -12.303,-7.684l-0.197,-1.158v-1.73c0,-1.854 0.837,-3.969 2.502,-6.34h0.188l0.386,0.385v0.961l-0.96,3.076c0,3.361 2.821,5.668 8.457,6.922l3.461,0.189c5.996,0 10.737,-2.051 14.23,-6.152c0.189,0 0.378,0.254 0.575,0.771l-0.197,1.346c0.656,2.418 2.239,3.633 4.74,3.648V50.176z" id="path_4"/></svg>