<svg id="vector" xmlns="http://www.w3.org/2000/svg" width="84" height="75" viewBox="0 0 84 75"><path fill="#FF0000" d="M48.44,17.357l0.206,0.207v0.197c-0.704,3.627 -2.251,5.439 -4.632,5.439c-2.99,0 -6.342,1.342 -10.071,4.03c-4.16,3.489 -6.248,7.45 -6.248,11.875c0,6.016 3.429,10.175 10.277,12.485l7.046,0.611l11.283,-0.808h2.208l0.207,0.196v0.207c0,0.773 -2.08,1.917 -6.247,3.421c-1.693,0.738 -5.182,1.547 -10.476,2.423c-6.875,0 -11.24,-1.753 -13.088,-5.242c-2.148,-3.153 -3.222,-6.85 -3.222,-11.076c0,-6.883 2.819,-12.787 8.457,-17.718h-4.426c-1.075,0 -2.415,0.937 -4.03,2.816l-0.403,-0.403v-0.403c1.34,-5.104 3.428,-7.657 6.247,-7.657C32.063,18.098 37.699,17.9 48.44,17.357z" id="path_0"/></svg>