<svg id="vector" xmlns="http://www.w3.org/2000/svg" width="84" height="75" viewBox="0 0 84 75"><path fill="#C60505" d="M62.313,27.848c0,0 1.42,-8.506 -3.195,-8.352S48.91,28.281 42.807,32.105l-0.127,1.861c8.051,-1.098 16.438,-15.934 17.502,-6.119H62.313z" id="path_0"/><path fill="#e2610a" d="M41.541,40.492h2.215c2.338,-0.32 6.053,-1.189 11.146,-2.592v-0.197L42.625,33.91l0.18,-1.869c5.82,-0.6 15.98,3.107 17.102,3.545l5.191,0.387l0.377,0.582c-0.09,0.861 -0.861,2.525 -2.305,4.994h-0.574l-0.771,-0.195h-0.959c-9.998,2.951 -15.83,4.486 -17.496,4.617h-1.828V40.492z" id="path_1"/><path fill="#0000FF" d="M42.41,45.996c-2.453,-0.197 -4.676,-1.92 -6.66,-5.168c-2.945,3.584 -7.176,5.381 -12.689,5.381h-1.533c-5.963,0 -10.064,-2.559 -12.303,-7.686l-0.197,-1.156v-1.73c0,-1.854 0.836,-3.971 2.502,-6.34h0.188l0.387,0.385v0.959l-0.959,3.076c0,3.363 2.82,5.668 8.455,6.922l3.461,0.189c5.996,0 10.738,-2.051 14.232,-6.152c0.188,0 0.377,0.256 0.574,0.771l-0.197,1.346c0.656,2.418 2.238,3.633 4.74,3.65V45.996z" id="path_2"/><path fill="#0000FF" d="M21.134,49.762c0.803,0 2.213,0.959 4.232,2.879c0,0.641 -0.771,2.051 -2.307,4.232h-0.385c-0.803,0 -2.018,-0.771 -3.65,-2.305v-0.197C19.024,53.6 19.722,52.066 21.134,49.762z" id="path_3"/><path fill="#C60505" d="M64.613,48.592c2.945,1.213 4.422,2.238 4.422,3.076l-2.502,3.838h-0.188c-0.551,0 -2.027,-0.764 -4.43,-2.305C63.105,50.125 64,48.592 64.613,48.592z" id="path_4"/><path fill="#C60505" d="M70.551,48.592c2.945,1.213 4.422,2.238 4.422,3.076l-2.502,3.838h-0.189c-0.549,0 -2.025,-0.764 -4.43,-2.305C69.041,50.125 69.936,48.592 70.551,48.592z" id="path_5"/><path fill="#e2610a" d="M51.063,48.592c2.945,1.213 4.422,2.238 4.422,3.076l-2.502,3.838h-0.188c-0.551,0 -2.027,-0.764 -4.43,-2.305C49.555,50.125 50.447,48.592 51.063,48.592z" id="path_6"/></svg>