<svg id="vector" xmlns="http://www.w3.org/2000/svg" width="84" height="75" viewBox="0 0 84 75"><path fill="#07D507" d="M46.289,37.824h2.215c2.338,-0.32 6.053,-1.189 11.147,-2.592v-0.197c-4.643,-2.051 -7.587,-3.076 -8.842,-3.076c-1.698,0 -2.847,0.961 -3.462,2.887l-0.574,0.387c-0.254,0 -0.385,-0.197 -0.385,-0.582c0.639,-3.84 2.37,-5.768 5.191,-5.768h0.96c1.188,0 5.225,1.346 12.114,4.037l5.192,0.385l0.377,0.582c-0.09,0.861 -0.861,2.527 -2.305,4.994h-0.574l-0.771,-0.195h-0.959c-9.999,2.951 -15.83,4.486 -17.496,4.617h-1.829V37.824z" id="path_0"/><path fill="#000000" d="M23.321,23.072c0.804,0 2.215,0.959 4.232,2.879c0,0.641 -0.771,2.051 -2.305,4.232h-0.385c-0.805,0 -2.018,-0.771 -3.65,-2.305v-0.197C21.214,26.91 21.911,25.377 23.321,23.072z" id="path_1"/><path fill="#07D507" d="M60.485,45.014c2.945,1.213 4.421,2.238 4.421,3.076l-2.501,3.838h-0.188c-0.55,0 -2.026,-0.764 -4.43,-2.305C58.977,46.547 59.871,45.014 60.485,45.014z" id="path_2"/><path fill="#000000" d="M47.159,43.328c-2.453,-0.197 -4.676,-1.92 -6.66,-5.168c-2.945,3.584 -7.177,5.381 -12.689,5.381h-1.533c-5.963,0 -10.064,-2.559 -12.304,-7.686l-0.196,-1.156v-1.73c0,-1.854 0.836,-3.971 2.501,-6.34h0.188l0.386,0.385v0.959l-0.959,3.076c0,3.363 2.821,5.668 8.456,6.922l3.461,0.189c5.996,0 10.737,-2.051 14.231,-6.152c0.188,0 0.377,0.254 0.574,0.771l-0.197,1.346c0.656,2.42 2.239,3.633 4.741,3.65V43.328z" id="path_3"/><path fill="#000000" d="M29.053,23.072c0.804,0 2.214,0.959 4.232,2.879c0,0.641 -0.771,2.051 -2.306,4.232h-0.385c-0.804,0 -2.018,-0.771 -3.65,-2.305v-0.197C26.944,26.91 27.642,25.377 29.053,23.072z" id="path_4"/></svg>