<svg id="vector" xmlns="http://www.w3.org/2000/svg" width="84" height="75" viewBox="0 0 84 75"><path fill="#2D277C" d="M59.629,54.268h-0.179c-3.745,0 -6.785,-2.388 -9.13,-7.153h-0.242c-1.189,4.523 -3.661,7.89 -7.395,10.108c-3.208,1.484 -7.563,2.221 -13.064,2.221l-0.253,-0.242v-0.253c0.126,-0.452 3.408,-2.009 9.867,-4.681c3.24,-1.6 6.122,-3.902 8.626,-6.9c0.651,-0.82 1.231,-2.063 1.725,-3.703c-0.821,-8.709 -1.231,-15.2 -1.231,-19.47c0.326,-3.945 0.82,-5.922 1.473,-5.922c0.621,0 1.283,6.49 1.978,19.48c-0.021,5.892 2.588,9.058 7.826,9.489V54.268z" id="path_0"/><path fill="#000000" d="M25.117,15.558c2.009,0 6.122,3.124 12.318,9.372c4.775,5.754 7.152,11.171 7.152,16.273v1.967c-0.126,3.45 -0.452,5.176 -0.988,5.176l-0.494,-0.484v-2.966c0,-4.682 -3.451,-10.435 -10.352,-17.251l-1.23,-0.747c-0.452,1.651 -0.862,2.472 -1.231,2.472l-5.921,-7.395l0.252,-6.164l0.242,-0.252H25.117z" id="path_1"/></svg>