<svg id="vector" xmlns="http://www.w3.org/2000/svg" width="84" height="75" viewBox="0 0 84 75"><path fill="#000000" d="M38.578,32.143c7.757,2.774 11.63,6.199 11.63,10.267l0.233,1.361c-0.651,5.324 -2.403,7.981 -5.255,7.981c0,0.496 -3.796,1.109 -11.395,1.829l-0.233,-0.682c0,-3.805 0.68,-5.702 2.053,-5.702c7.601,-0.613 11.785,-1.527 12.543,-2.745c-2.617,-2.539 -6.043,-4.592 -10.266,-6.15l-0.225,-1.147C37.781,33.816 38.082,32.143 38.578,32.143z" id="path_0"/><path fill="#000000" d="M37.889,21.419c1.867,0.31 3.688,1.45 5.479,3.425v0.458c-1.14,3.036 -1.977,4.554 -2.511,4.554c-3.649,-1.245 -5.47,-2.238 -5.47,-2.958C35.387,25.486 36.224,23.667 37.889,21.419z" id="path_1"/></svg>