<svg id="vector" xmlns="http://www.w3.org/2000/svg" width="84" height="75" viewBox="0 0 84 75"><path fill="#0AE239" d="M50.067,15.941c0.911,0 3.04,1.069 6.398,3.209c0,1.332 -1.06,3.461 -3.199,6.398c-4.269,-1.377 -6.397,-2.618 -6.397,-3.734C46.971,20.813 48.04,18.855 50.067,15.941z" id="path_0"/><path fill="#0AE239" d="M46.868,45.804c6.99,0.068 13.745,-1.24 14.599,-3.939c0,-0.933 -0.889,-3.243 -2.675,-6.932L59.6,28h0.523c2.322,3.995 3.472,8.003 3.472,11.998v2.403c0,1.604 -0.387,3.289 -1.15,5.054c-0.762,1.765 -1.948,3.255 -3.529,4.45c-1.594,1.205 -7.506,1.708 -12.048,1.504V45.804z" id="path_1"/><path fill="#0AE239" d="M58.431,15.941c0.911,0 3.04,1.069 6.398,3.209c0,1.332 -1.06,3.461 -3.2,6.398c-4.268,-1.377 -6.397,-2.618 -6.397,-3.734C55.334,20.813 56.404,18.855 58.431,15.941z" id="path_2"/><path fill="#0000FF" d="M46.868,45.804c0,0 -3.492,-2.616 -4.374,-11.783c-2.754,-6.244 -10.246,-3.379 -10.252,3.156s-6.485,26.721 -10.89,8.499c1.208,-13.372 -5.098,-0.591 -0.442,9.569c7.877,12.678 13.82,-10.361 14.017,-9.812c-0.629,-3.72 4.018,-17.663 5.587,-1.255c2.063,5.33 2.383,6.468 6.355,9.229V45.804z" id="path_3"/></svg>