<svg id="vector" xmlns="http://www.w3.org/2000/svg" width="84" height="75" viewBox="0 0 84 75"><path fill="#020002" d="M28.681,19.568c0.911,0 3.04,1.069 6.398,3.209c0,1.332 -1.059,3.461 -3.2,6.398c-4.268,-1.378 -6.397,-2.619 -6.397,-3.734C25.584,24.44 26.654,22.481 28.681,19.568z" id="path_0"/><path fill="#B305C6" d="M47.485,46.98c6.99,0.067 13.745,-1.24 14.598,-3.939c0,-0.934 -0.888,-3.244 -2.675,-6.932l0.808,-6.934h0.523c2.323,3.996 3.472,8.003 3.472,11.998v2.402c0,1.604 -0.387,3.291 -1.149,5.055c-0.763,1.764 -1.948,3.255 -3.529,4.451c-1.594,1.205 -7.506,1.707 -12.048,1.502V46.98z" id="path_1"/><path fill="#020002" d="M37.156,19.568c0.911,0 3.04,1.069 6.398,3.209c0,1.332 -1.06,3.461 -3.2,6.398c-4.268,-1.378 -6.397,-2.619 -6.397,-3.734C34.059,24.44 35.129,22.481 37.156,19.568z" id="path_2"/><path fill="#B305C6" d="M57.574,14.764c0.911,0 3.04,1.07 6.398,3.21c0,1.332 -1.06,3.461 -3.2,6.397c-4.268,-1.377 -6.397,-2.618 -6.397,-3.734C54.477,19.637 55.547,17.678 57.574,14.764z" id="path_3"/><path fill="#020002" d="M47.485,46.98c0,0 -3.492,-2.617 -4.375,-11.784c-2.754,-6.243 -10.245,-3.378 -10.252,3.157c-0.007,6.535 -6.485,26.721 -10.89,8.498c1.208,-13.373 -5.097,-0.591 -0.442,9.57c7.877,12.677 13.82,-10.361 14.017,-9.813c-0.628,-3.719 4.018,-17.664 5.587,-1.254c2.063,5.33 2.384,6.467 6.355,9.229V46.98z" id="path_4"/></svg>