<svg id="vector" xmlns="http://www.w3.org/2000/svg" width="84" height="75" viewBox="0 0 84 75"><path fill="#000001" d="M61.076,40.625c-10.49,0.443 -16.133,-0.041 -16.924,-1.459c-0.799,-1.42 2.83,-2.146 10.877,-2.178c1.588,-0.033 2.596,-0.072 3.023,-0.137c6.395,-0.992 10.297,-2.064 11.715,-3.219v-0.184l-2.08,-4.92v-0.75c0,-2.523 0.314,-3.781 0.943,-3.781c1.766,3.371 2.645,6.016 2.645,7.934v0.379c0,4.379 -2.201,6.902 -6.611,7.564C63.543,40.172 62.35,40.422 61.076,40.625z" id="path_0"/><path fill="#000001" d="M67.002,44.002c1.17,0 2.613,0.824 4.346,2.459v0.379c-1.072,2.775 -1.83,4.162 -2.264,4.162c-2.146,-0.824 -3.469,-1.646 -3.969,-2.459v-0.186C65.115,47.025 65.744,45.584 67.002,44.002z" id="path_1"/><path fill="#E20A0A" d="M57.457,39.914c0.645,1.154 0.998,1.83 1.063,2.033l0.09,1.539c-0.016,2.727 -0.379,4.605 -1.105,5.645c-0.725,1.039 -1.645,1.564 -2.766,1.58c-2.426,0 -4.941,-1.951 -7.563,-5.854c-0.451,-0.773 -0.895,-1.781 -1.322,-3.023h-1.887c-0.428,0 -0.83,-0.023 -1.225,-0.072v-5.41c0.58,0.129 1.176,0.184 1.789,0.184h0.758c1.039,-4.029 2.807,-7.055 5.289,-9.07c1.291,-1.008 2.492,-1.508 3.596,-1.508c1.701,0 2.711,1.258 3.023,3.783c0.5,2.531 -0.064,5.168 -1.699,7.908L57.457,39.914L57.457,39.914zM49.07,41.641c1.291,2.273 3.178,3.531 5.668,3.781c1.258,-0.113 2.08,-0.549 2.459,-1.322c-0.113,-1.523 -0.99,-2.451 -2.643,-2.773c-1.662,-0.322 -2.984,-0.436 -3.984,-0.322C49.57,41.115 49.07,41.326 49.07,41.641L49.07,41.641zM47.176,35.787c-0.137,0.418 0.049,0.611 0.572,0.564c2.395,0 4.781,-1.072 7.176,-3.211v-0.191c-0.531,-1.26 -1.225,-1.887 -2.072,-1.887C50.973,30.82 49.086,32.4 47.176,35.787z" id="path_2"/><path fill="#3AC514" d="M42.693,41.736c-0.201,0 -0.42,0 -0.637,0h-0.188c-1.83,-0.016 -3.596,-0.338 -5.297,-0.967c-1.822,3.152 -4.217,4.725 -7.176,4.725c-3.531,-0.508 -5.297,-1.951 -5.297,-4.346h-0.186c-0.596,2.016 -1.92,3.652 -3.967,4.91c-2.742,1.008 -4.887,1.516 -6.426,1.516l-0.871,0.113v-0.379c0.701,-0.58 2.604,-1.928 5.701,-4.039c3.096,-2.105 4.854,-3.428 5.264,-3.967c0.42,-0.533 1.025,-2.314 1.814,-5.338c1.508,-2.516 2.895,-3.781 4.152,-3.781h0.379c1.572,0 4.096,1.701 7.564,5.104c1.006,0.854 2.725,1.232 5.168,1.137V41.736L42.693,41.736zM26.373,36.609c0,1.668 1.322,2.805 3.967,3.402h0.943c2.145,-0.219 3.219,-0.531 3.219,-0.943c-2.492,-2.395 -4.379,-3.588 -5.678,-3.588h-0.186C27.566,35.48 26.809,35.859 26.373,36.609z" id="path_3"/></svg>