<svg id="vector" xmlns="http://www.w3.org/2000/svg" width="84" height="75" viewBox="0 0 84 75"><path fill="#121288" d="M73.591,50.975c-0.842,0 -2.311,-1.005 -4.432,-3.016c0,-0.669 0.807,-2.146 2.422,-4.433h0.404c0.832,0 2.113,0.808 3.822,2.414v0.206C75.808,46.955 75.069,48.561 73.591,50.975z" id="path_0"/><path fill="#121288" d="M66.341,51.98c-3.352,-1.435 -5.035,-2.577 -5.035,-3.42c0.207,-0.635 1.143,-2.044 2.826,-4.227c2.242,0.868 3.857,1.882 4.828,3.016C68.257,49.602 67.38,51.147 66.341,51.98z" id="path_1"/><path fill="#121288" d="M61.94,40.176c-11.176,0.473 -17.191,-0.043 -18.034,-1.555c-0.85,-1.512 3.016,-2.285 11.59,-2.32c1.693,-0.034 2.768,-0.076 3.223,-0.146c6.813,-1.057 10.971,-2.2 12.482,-3.429v-0.197l-2.217,-5.24V26.49c0,-2.689 0.336,-4.03 1.006,-4.03c1.883,3.591 2.818,6.409 2.818,8.454v0.404c0,4.664 -2.346,7.354 -7.045,8.059C64.569,39.694 63.298,39.961 61.94,40.176z" id="path_2"/><path fill="#D40AE2" d="M58.085,39.42c0.686,1.229 1.064,1.95 1.133,2.165l0.094,1.642c-0.016,2.903 -0.402,4.905 -1.176,6.014c-0.773,1.107 -1.754,1.667 -2.947,1.684c-2.586,0 -5.268,-2.079 -8.059,-6.237c-0.48,-0.825 -0.955,-1.899 -1.408,-3.222h-2.012c-0.455,0 -0.885,-0.025 -1.306,-0.078v-5.764c0.618,0.137 1.255,0.197 1.907,0.197h0.807c1.109,-4.296 2.99,-7.518 5.637,-9.666c1.375,-1.074 2.654,-1.607 3.832,-1.607c1.813,0 2.887,1.342 3.223,4.031c0.531,2.697 -0.07,5.506 -1.813,8.428L58.085,39.42L58.085,39.42zM49.147,41.259c1.375,2.423 3.387,3.763 6.041,4.029c1.34,-0.12 2.217,-0.585 2.621,-1.409c-0.121,-1.623 -1.059,-2.611 -2.818,-2.955c-1.77,-0.344 -3.18,-0.465 -4.244,-0.344C49.681,40.699 49.147,40.924 49.147,41.259L49.147,41.259zM47.13,35.021c-0.146,0.446 0.051,0.652 0.609,0.602c2.553,0 5.096,-1.144 7.646,-3.42v-0.207c-0.566,-1.34 -1.305,-2.01 -2.207,-2.01C51.177,29.729 49.165,31.412 47.13,35.021z" id="path_3"/><path fill="#000000" d="M23.424,45.288c0.688,0 2.295,0.808 4.83,2.414c0,1.005 -0.809,2.62 -2.416,4.837c-3.221,-1.039 -4.836,-1.984 -4.836,-2.818C21.088,48.965 21.895,47.487 23.424,45.288z" id="path_4"/><path fill="#000000" d="M43.16,41.387c-2.569,-0.205 -4.897,-2.01 -6.976,-5.412c-3.085,3.755 -7.518,5.637 -13.292,5.637h-1.606c-6.246,0 -10.542,-2.681 -12.887,-8.051l-0.207,-1.212v-1.813c0,-1.941 0.876,-4.158 2.621,-6.642h0.197l0.405,0.404v1.005l-1.006,3.222c0,3.522 2.956,5.938 8.858,7.252l3.625,0.197c6.28,0 11.247,-2.147 14.906,-6.443c0.198,0 0.396,0.266 0.603,0.807l-0.207,1.41c0.688,2.533 2.346,3.806 4.966,3.822V41.387z" id="path_5"/></svg>