<svg id="vector" xmlns="http://www.w3.org/2000/svg" width="84" height="75" viewBox="0 0 84 75"><path fill="#0000FF" d="M54.255,57.74c0.91,0 3.039,1.07 6.397,3.21c0,1.332 -1.059,3.461 -3.199,6.398c-4.269,-1.378 -6.397,-2.618 -6.397,-3.735C51.158,62.613 52.228,60.654 54.255,57.74z" id="path_0"/><path fill="#0000FF" d="M47.845,46.038c6.99,0.067 10.896,-1.241 11.749,-3.939c0,-0.933 -0.889,-3.243 -2.676,-6.933l0.809,-6.932h0.523c2.322,3.995 3.472,8.002 3.472,11.998v2.402c0,1.604 -0.387,3.289 -1.149,5.054s-1.946,3.256 -3.529,4.45c-1.593,1.207 -4.655,1.709 -9.198,1.504V46.038z" id="path_1"/><path fill="#000000" d="M49.019,53.643h-0.069c-5.111,0 -8.571,-2.493 -10.404,-7.469l-0.535,-2.14h-0.523c-0.41,1.423 -3.256,2.312 -8.538,2.675h-1.343c-3.552,0 -5.328,-1.069 -5.328,-3.209v-2.402c0,-2.573 1.958,-5.771 5.862,-9.597c2.356,-1.788 5.032,-3.29 8.003,-4.542l-0.261,-0.797c0.979,-4.451 1.775,-6.672 2.401,-6.672c0.307,0.752 0.751,6.273 1.332,16.541c0.797,6.922 3.938,10.279 9.403,10.109V53.643L49.019,53.643zM25.477,38.172c1.024,0.705 2.709,1.059 5.065,1.059c2.311,-0.17 4.451,-0.615 6.409,-1.332l-0.535,-7.468h-0.273C29.028,33.812 25.477,36.385 25.477,38.172z" id="path_2"/><path fill="#000000" d="M41.812,7.65l-0.582,0.203c-1.83,1.123 -3.555,3.029 -5.177,5.705l0.104,0.297c2.692,3.506 4.599,5.23 5.718,5.173c2.744,-1.608 4.636,-3.351 5.66,-5.235l-0.099,-0.283C46.642,11.23 44.77,9.285 41.812,7.65z" id="path_3"/><path fill="#000000" d="M30.166,8.778l-0.297,0.104c-1.878,0.987 -3.637,3.113 -5.26,6.386l0.104,0.298l5.615,4.875c4.121,-3.115 5.996,-5.185 5.643,-6.2C32.924,10.316 30.983,8.494 30.166,8.778z" id="path_4"/></svg>