<svg id="vector" xmlns="http://www.w3.org/2000/svg" width="84" height="75" viewBox="0 0 84 75"><path fill="#2319A1" d="M53.895,46.979c3.124,1.563 4.688,2.907 4.688,4.021c-1.486,2.944 -2.381,4.429 -2.677,4.468h-0.449c-2.286,-1.153 -3.706,-2.2 -4.239,-3.125C51.731,50.647 52.628,48.855 53.895,46.979z" id="path_0"/><path fill="#2319A1" d="M41.718,41.063h2.573c2.715,-0.373 7.03,-1.382 12.948,-3.011v-0.229c-5.392,-2.382 -8.813,-3.574 -10.271,-3.574c-1.973,0 -3.307,1.115 -4.02,3.354l-0.668,0.449c-0.296,0 -0.448,-0.229 -0.448,-0.677c0.743,-4.459 2.753,-6.697 6.032,-6.697h1.113c1.382,0 6.07,1.562 14.072,4.687l6.032,0.447l0.438,0.678c-0.105,0.999 -1,2.935 -2.677,5.803h-0.668l-0.895,-0.229h-1.115c-11.614,3.429 -18.387,5.21 -20.322,5.363h-2.125V41.063z" id="path_1"/><path fill="#C82F2F" d="M42.775,47.455c-3.829,-0.257 -7.308,-2.354 -10.433,-6.279h-0.227c-1.336,7.736 -4.317,11.604 -8.93,11.615h-0.675c-2.001,-0.011 -3.945,-1.791 -5.803,-5.364c-1.486,-5.021 -2.229,-8.822 -2.229,-11.387v-1.791c0,-1.113 0.217,-1.714 0.666,-1.781c0.629,0.334 1.382,2.773 2.248,7.327c0.868,4.546 2.648,6.717 5.345,6.518c5.213,-0.858 7.966,-3.841 8.261,-8.938l-2.011,-6.916V28c0.077,-2.981 0.372,-4.468 0.896,-4.468c0.295,0.666 0.523,1.343 0.666,2.011l3.125,9.821c2.459,3.983 5.498,5.87 9.099,5.641V47.455z" id="path_2"/></svg>