<svg id="vector" xmlns="http://www.w3.org/2000/svg" width="84" height="75" viewBox="0 0 84 75"><path fill="#009649" d="M52.776,15.95c3.312,1.656 4.968,3.08 4.968,4.262c-1.576,3.12 -2.525,4.696 -2.838,4.736h-0.474c-2.424,-1.222 -3.929,-2.332 -4.495,-3.313C50.482,19.838 51.433,17.94 52.776,15.95z" id="path_0"/><path fill="#009649" d="M39.869,39.942h2.726c2.878,-0.393 7.454,-1.463 13.725,-3.189V36.51c-5.716,-2.524 -9.342,-3.787 -10.886,-3.787c-2.091,0 -3.505,1.183 -4.262,3.555l-0.707,0.476c-0.313,0 -0.475,-0.243 -0.475,-0.718c0.788,-4.727 2.918,-7.099 6.393,-7.099h1.181c1.464,0 6.433,1.656 14.916,4.969l6.393,0.473l0.464,0.718c-0.111,1.062 -1.061,3.111 -2.837,6.149h-0.708l-0.95,-0.241h-1.181c-12.311,3.635 -19.491,5.524 -21.54,5.685h-2.252V39.942z" id="path_1"/><path fill="#0000FF" d="M40.163,46.71c-0.212,0.019 -0.435,0.029 -0.646,0.029h-1.192c-1.849,0 -3.11,-0.151 -3.787,-0.475c-1.374,5.313 -2.979,8.563 -4.818,9.755c-1.838,1.192 -5.988,2.203 -12.451,3.03h-0.475c-1.424,-0.162 -2.131,-0.395 -2.131,-0.707c0,-0.475 1.181,-1.03 3.545,-1.657c9.311,-4.262 13.966,-7.341 13.966,-9.229c0,-0.787 -1.1,-2.604 -3.312,-5.443c-0.475,-0.799 -0.707,-1.818 -0.707,-3.08v-2.362c0,-1.192 0.232,-1.819 0.707,-1.899c2.05,3.141 5.524,4.887 10.412,5.26c0.303,0 0.596,0 0.889,-0.019V46.71z" id="path_2"/><path fill="#0000FF" d="M25.653,20.498c3.312,1.657 4.967,3.08 4.967,4.262c-1.575,3.12 -2.525,4.695 -2.837,4.737h-0.475c-2.423,-1.223 -3.928,-2.333 -4.494,-3.314C23.359,24.387 24.31,22.488 25.653,20.498z" id="path_3"/></svg>