<svg id="vector" xmlns="http://www.w3.org/2000/svg" width="84" height="75" viewBox="0 0 84 75"><path fill="#000000" d="M54.012,24.524c3.153,1.578 4.73,2.934 4.73,4.06c-1.5,2.973 -2.405,4.473 -2.703,4.512h-0.45c-2.311,-1.165 -3.743,-2.224 -4.283,-3.156C51.826,28.228 52.731,26.419 54.012,24.524z" id="path_0"/><path fill="#000000" d="M41.716,47.205h2.597c2.742,-0.375 7.101,-1.395 13.073,-3.039v-0.23c-5.444,-2.405 -8.897,-3.608 -10.368,-3.608c-1.991,0 -3.338,1.125 -4.061,3.386l-0.673,0.453c-0.298,0 -0.452,-0.23 -0.452,-0.684c0.752,-4.501 2.781,-6.762 6.089,-6.762h1.126c1.394,0 6.126,1.576 14.208,4.731l6.089,0.452l0.441,0.685c-0.105,1.009 -1.01,2.963 -2.703,5.857h-0.673l-0.904,-0.229H64.38c-11.726,3.461 -18.565,5.261 -20.518,5.415h-2.146V47.205z" id="path_1"/><path fill="#0000FF" d="M42.786,53.66c-3.87,-0.259 -7.38,-2.377 -10.535,-6.34h-0.23c-1.347,7.811 -4.357,11.717 -9.013,11.728h-0.684c-2.021,-0.011 -3.981,-1.809 -5.857,-5.416c-1.501,-5.07 -2.252,-8.909 -2.252,-11.496v-1.809c0,-1.125 0.223,-1.731 0.674,-1.799c0.634,0.337 1.396,2.801 2.271,7.398c0.874,4.588 2.674,6.779 5.396,6.579c5.262,-0.865 8.042,-3.877 8.34,-9.023L28.866,36.5v-2.482c0.075,-3.011 0.374,-4.511 0.905,-4.511c0.297,0.672 0.527,1.355 0.671,2.028l3.155,9.917c2.483,4.022 5.552,5.926 9.188,5.694V53.66z" id="path_2"/><path fill="#0000FF" d="M22.85,15.952c3.154,1.578 4.731,2.936 4.731,4.06c-1.5,2.974 -2.405,4.474 -2.704,4.513h-0.452c-2.309,-1.164 -3.74,-2.224 -4.279,-3.157C20.665,19.656 21.57,17.849 22.85,15.952z" id="path_3"/></svg>