<svg id="vector" xmlns="http://www.w3.org/2000/svg" width="84" height="75" viewBox="0 0 84 75"><path fill="#000000" d="M45.942,15.949c-0.782,-1.224 -1.784,-0.913 -2.769,-0.35c-1.34,0.766 -2.098,2.008 -2.676,3.396C40,20.188 39.842,21.538 38.9,22.529c-0.011,0.252 -0.135,0.419 -0.371,0.504c-0.982,2.68 -2.934,4.458 -5.33,5.873c-1.107,0.654 -2.495,0.885 -3.269,2.068c0.284,0.398 0.697,0.583 1.153,0.698c1.479,-0.048 3.041,0.451 4.353,-0.675c0.089,-0.311 0.076,-0.771 0.28,-0.908c3.014,-2.008 4.348,-5.11 5.432,-8.348c0.344,-1.025 0.977,-1.68 1.84,-2.207l0.146,0.036l0.142,-0.055c0.743,0.272 1.246,0.791 1.557,1.508l-0.013,0.016c0.941,0.263 0.999,-0.735 1.522,-1.068C47.145,18.538 47.057,17.192 45.942,15.949z" id="path_0"/><path fill="#0000E6" d="M29.971,30.625c-0.025,0.039 -0.049,0.086 -0.074,0.141c-0.529,1.083 -1.042,3.052 -1.042,3.631c0,0.339 0.149,0.389 0.364,0.339c1.505,-0.124 2.994,-0.215 4.523,-0.215c0.992,0 2.018,0.05 3.035,0.141c-4.912,2.499 -8.451,9.014 -8.451,16.226c0,6.104 3.076,11.876 12.81,12.479c0.314,0.025 0.628,0.025 0.943,0.025c5.136,0 9.502,-1.844 11.991,-2.911c0.678,-0.29 1.604,-0.777 1.604,-1.091c0,-0.141 -0.124,-0.241 -0.538,-0.241c-0.189,0 -0.604,0.025 -0.893,0.05c-2.448,0.215 -4.771,0.34 -6.766,0.34c-13.736,0 -17.681,-5.186 -17.681,-10.9c0,-3.557 2.919,-9.759 10.925,-12.571c0.992,-0.339 2.059,-0.654 4.921,-1.042c1.207,-0.166 2.497,-0.24 3.829,-0.264c0.215,0 0.363,-0.05 0.43,-0.125c0.926,-1.018 2.258,-2.829 2.522,-3.465c0.173,-0.38 0.122,-0.564 -0.149,-0.529c-1.787,0.229 -4.5,0.46 -8.138,0.364l-8.154,-0.215" id="path_1"/></svg>