<svg id="vector" xmlns="http://www.w3.org/2000/svg" width="84" height="75" viewBox="0 0 84 75"><path fill="#9C27B0" d="M64.392,30.276h0.476c0.556,0 0.869,1.576 0.95,4.741v0.941c0,5.217 -1.577,7.827 -4.742,7.827c-3.003,-0.829 -4.5,-1.861 -4.5,-3.085h-0.232c-0.951,2.529 -2.458,3.791 -4.51,3.791l-2.366,-0.232c0.121,1.184 0.121,2.053 0,2.599c-0.789,4.742 -2.518,8.667 -5.188,11.781c-2.659,3.114 -6.147,4.712 -10.456,4.812h-0.95c-6.795,0 -11.608,-3.791 -14.45,-11.374l-0.243,-3.316V47.81c0.476,-7.664 2.69,-12.326 6.634,-13.985l0.243,0.243V34.3l-3.56,5.926c-0.667,1.386 -1.143,3.124 -1.416,5.218c0,4.936 3.317,8.564 9.95,10.901l2.366,0.23h1.901c5.369,0 10.03,-2.922 13.983,-8.766v-0.232c-0.323,-2.295 -1.507,-4.904 -3.559,-7.827l-0.232,-1.184v-4.499l0.475,-0.474H45.2c1.861,2.688 4.146,4.023 6.876,4.023h0.232c2.093,0 3.67,-1.578 4.743,-4.731l0.232,-0.243h0.476l0.475,0.475v0.707l-0.232,0.951c0.94,1.426 2.204,2.135 3.792,2.135h0.232c1.426,0 2.134,-1.346 2.134,-4.024L64.392,30.276z" id="path_0"/><path fill="#9C27B0" d="M49.528,19.608c0.98,0 2.72,1.184 5.208,3.56c0,0.79 -0.94,2.528 -2.842,5.207h-0.475c-0.98,0 -2.486,-0.939 -4.5,-2.841v-0.232C46.919,24.351 47.789,22.448 49.528,19.608z" id="path_1"/><path fill="#9C27B0" d="M58.063,18.425c3.944,1.698 5.915,3.044 5.915,4.023c-0.232,0.76 -1.334,2.418 -3.316,4.987c-2.64,-1.031 -4.54,-2.215 -5.683,-3.561C55.808,21.227 56.829,19.417 58.063,18.425z" id="path_2"/><path fill="#9C27B0" d="M52.37,11.549c3.629,1.508 5.45,2.772 5.45,3.793l-3.084,4.742h-0.233c-0.668,0 -2.487,-0.951 -5.45,-2.843C50.509,13.45 51.622,11.549 52.37,11.549z" id="path_3"/></svg>