<svg id="vector" xmlns="http://www.w3.org/2000/svg" width="84" height="75" viewBox="0 0 84 75"><path fill="#009688" d="M60.924,18.821h0.998c5.313,0.541 7.971,2.697 7.971,6.481v0.499c-1.063,4.121 -2.307,6.779 -3.74,7.968c-2.742,2.316 -6.887,3.486 -12.453,3.486h-0.5c-3.156,0 -5.727,-0.331 -7.713,-0.999v2.485c0,4.697 -2.412,9.265 -7.227,13.706c-3.525,2.485 -6.926,3.73 -10.209,3.73h-0.5c-5.1,0 -9.168,-2.828 -12.197,-8.47c-0.871,-2.613 -1.285,-5.439 -1.242,-8.467c1.285,-5.972 3.271,-10.211 5.971,-12.698l1.242,-0.742h0.754v0.245c0,0.624 -1.326,2.697 -3.984,6.224c-0.998,1.372 -1.496,2.944 -1.496,4.729v1.256c0,1.986 1.496,4.641 4.482,7.967c2.529,1.487 5.43,2.241 8.713,2.241c5.855,0 10.422,-2.326 13.695,-6.979c0.17,-1.159 0.33,-2.316 0.498,-3.484c0,-0.701 -1.156,-2.858 -3.484,-6.471v-5.727c0.244,-0.458 0.5,-0.626 0.744,-0.499c2.041,2.442 4.357,3.941 6.971,4.483h0.498C51.914,22.476 55.982,18.821 60.924,18.821L60.924,18.821zM51.713,29.786l3.484,0.498c4.939,0 8.998,-0.999 12.197,-2.995v-0.246c-1.486,-1.498 -3.314,-2.24 -5.473,-2.24h-0.998C56.938,24.803 53.869,26.461 51.713,29.786z" id="path_0"/></svg>