<svg id="vector" xmlns="http://www.w3.org/2000/svg" width="84" height="75" viewBox="0 0 84 75"><path fill="#009649" d="M47.354,22.012c2.125,0.355 4.215,1.657 6.254,3.916v0.522c-1.303,3.473 -2.26,5.208 -2.873,5.208c-4.172,-1.424 -6.252,-2.56 -6.252,-3.383C44.482,26.662 45.438,24.581 47.354,22.012z" id="path_0"/><path fill="#009649" d="M36.691,14.812h0.514c0.568,0.867 1.701,3.738 3.393,8.602l-1.559,6.521l0.781,12.518l-0.523,2.093h0.256c3.092,-3.306 6.809,-4.964 11.15,-4.964h0.266c4.473,0 7.088,2.092 7.822,6.265c0,6.088 -2.436,10.259 -7.299,12.519c0,0.645 -5.811,1.257 -17.412,1.824l-8.871,-0.778v-0.791c0,-0.69 2.703,-1.646 8.09,-2.858l3.648,-8.346v-3.661l-1.824,-22.69C35.123,20.108 35.646,18.027 36.691,14.812L36.691,14.812zM36.947,54.714c9.303,-1.047 15.102,-2.092 17.404,-3.127l1.836,-1.313c-1.791,-2.604 -4.396,-3.905 -7.834,-3.905h-2.535c-2.605,0 -5.387,2.259 -8.348,6.775L36.947,54.714z" id="path_1"/></svg>