<svg id="vector" xmlns="http://www.w3.org/2000/svg" width="84" height="75" viewBox="0 0 84 75"><path fill="#1305c6" d="M45.131,46.045h0.088c3.512,-0.155 5.93,-1.849 7.256,-5.1c0,-0.455 0.299,-0.831 0.908,-1.141h0.455c0.301,0 0.455,0.231 0.455,0.686l-0.232,1.354c1.287,2.275 2.652,3.406 4.084,3.406h1.131c1.965,0 3.484,-1.962 4.539,-5.892h0.23c0.225,0.028 0.602,0.938 1.133,2.719c1.287,1.131 2.564,1.809 3.852,2.042c1.508,0 2.273,-0.911 2.273,-2.719c0.146,-2.874 0.445,-4.315 0.9,-4.315c0.609,1.286 0.908,2.873 0.908,4.759c0,5.603 -1.363,8.399 -4.082,8.399c-2.119,0 -3.852,-1.064 -5.215,-3.183h-0.455c-0.939,3.028 -2.457,4.537 -4.537,4.537H58.6c-1.85,0 -3.967,-1.432 -6.348,-4.306c-2.004,3.475 -4.277,5.216 -6.801,5.216h-0.32V46.045z" id="path_0"/><path fill="#8BC34A" d="M44.908,52.42c-2.195,0.02 -4.006,-1.102 -5.447,-3.367h-0.223c-1.064,3.775 -2.65,6.425 -4.762,7.934c-2.988,2.874 -6.238,4.307 -9.752,4.307h-1.363c-4.006,0 -7.557,-2.265 -10.654,-6.803c-1.209,-2.08 -1.818,-4.499 -1.818,-7.256c0,-3.89 1.965,-7.818 5.902,-11.785c2.053,-1.307 2.662,-1.228 1.809,0.224c-3.473,4.838 -5.215,8.165 -5.215,9.975c0,4.692 3.475,7.789 10.432,9.298h1.818c3.891,0 7.74,-1.965 11.563,-5.893c0.396,-1.249 0.473,-2.612 0.223,-4.083c-0.756,-3.212 -1.887,-11.377 -3.398,-24.488l1.355,-4.537c0.213,-0.039 0.436,-0.039 0.688,0c0.416,0 1.172,5.746 2.264,17.231c0.754,6.048 1.666,9.831 2.719,11.339c0.93,1.027 2.217,1.499 3.861,1.441V52.42z" id="path_1"/><path fill="#1305c6" d="M61.26,21.56c1.428,0 3.373,1.18 5.828,3.546v0.509c-1.654,3.548 -2.746,5.321 -3.299,5.321l-5.83,-3.289h-0.26c-1.643,2.824 -2.736,4.35 -3.287,4.555h-0.26c-3.709,-1.645 -5.57,-2.909 -5.57,-3.796c1.354,-3.721 2.531,-5.58 3.547,-5.58l6.08,3.297C59.182,24.133 60.199,22.618 61.26,21.56z" id="path_2"/><path fill="#1305c6" d="M54.66,13.707c1.654,0 3.506,1.427 5.582,4.305c-0.551,1.309 -1.654,2.832 -3.299,4.563h-0.51c-1.471,-0.335 -3.082,-1.266 -4.813,-2.792v-0.756C51.75,17.676 52.758,15.901 54.66,13.707z" id="path_3"/></svg>