<svg id="vector" xmlns="http://www.w3.org/2000/svg" width="84" height="75" viewBox="0 0 84 75"><path fill="#F44336" d="M65.542,20.06h0.501c0.584,0 0.913,1.658 0.999,4.985v0.988c0,5.485 -1.669,8.229 -4.986,8.229c-3.157,-0.872 -4.731,-1.957 -4.731,-3.243h-0.255c-0.999,2.658 -2.572,3.986 -4.73,3.986l-2.498,-0.244c0.127,1.244 0.127,2.158 0,2.731c-0.829,4.987 -2.647,9.112 -5.443,12.386c-2.808,3.275 -6.475,4.956 -10.993,5.062h-0.999c-7.145,0 -12.216,-3.988 -15.202,-11.96l-0.245,-3.487v-1c0.5,-8.058 2.817,-12.959 6.975,-14.702l0.245,0.255v0.244l-3.732,6.229c-0.712,1.458 -1.201,3.287 -1.5,5.487c0,5.188 3.488,9.006 10.473,11.462l2.488,0.242h1.987c5.655,0 10.557,-3.071 14.703,-9.217v-0.245c-0.329,-2.413 -1.574,-5.155 -3.732,-8.229l-0.254,-1.242v-4.731l0.499,-0.5h0.255c1.945,2.827 4.359,4.23 7.219,4.23h0.256c2.2,0 3.858,-1.657 4.975,-4.975l0.256,-0.255h0.499l0.5,0.499v0.745l-0.256,1c1,1.497 2.329,2.242 3.987,2.242h0.256c1.488,0 2.242,-1.415 2.242,-4.231L65.542,20.06z" id="path_0"/></svg>