<svg id="vector" xmlns="http://www.w3.org/2000/svg" width="84" height="75" viewBox="0 0 84 75"><path fill="#F44336" d="M44.465,34.737h0.834c2.828,-0.303 5.207,-2.014 7.137,-5.125c0.285,-0.641 0.568,-0.998 0.852,-1.071h0.219l0.643,0.649c-0.092,0.814 -0.23,1.392 -0.432,1.712c1.254,2.288 2.756,3.432 4.504,3.432l0.219,0.21c3.111,-6.863 6.605,-10.295 10.506,-10.295c3.111,0 5.398,1.291 6.861,3.861v1.291c0,7.861 -4.857,11.795 -14.586,11.795l-3.211,-0.209c-0.998,2.709 -1.648,4.072 -1.932,4.072l-0.211,-0.211v-0.221l0.641,-3.641v-0.432c-2.113,-1.18 -3.752,-2.826 -4.932,-4.932c-1.107,3.625 -3.477,5.371 -7.111,5.225V34.737L44.465,34.737zM60.58,34.975h0.43c4.859,0 9.006,-0.714 12.438,-2.142c0,-1.537 -1.428,-2.607 -4.283,-3.221h-0.859C64.873,29.612 62.301,31.405 60.58,34.975z" id="path_0"/><path fill="#00BCD4" d="M24.416,45.032c0.732,0 2.443,0.859 5.143,2.57c0,1.07 -0.859,2.791 -2.57,5.152c-3.432,-1.107 -5.152,-2.113 -5.152,-3.002C21.928,48.948 22.787,47.374 24.416,45.032z" id="path_1"/><path fill="#00BCD4" d="M45.436,40.876c-2.736,-0.219 -5.215,-2.141 -7.43,-5.765c-3.285,3.999 -8.008,6.003 -14.156,6.003h-1.713c-6.652,0 -11.227,-2.854 -13.725,-8.574l-0.221,-1.291v-1.93c0,-2.068 0.934,-4.43 2.791,-7.074h0.211l0.43,0.43v1.071l-1.07,3.432c0,3.751 3.148,6.323 9.434,7.724l3.863,0.21c6.689,0 11.979,-2.287 15.877,-6.862c0.209,0 0.42,0.283 0.641,0.859l-0.221,1.501c0.732,2.699 2.498,4.054 5.289,4.072V40.876z" id="path_2"/></svg>