<svg id="vector" xmlns="http://www.w3.org/2000/svg" width="84" height="75" viewBox="0 0 84 75"><path fill="#0F2975" d="M64.688,16.932c-15.883,8.693 -23.537,33.75 -29.397,41.38c0.973,-3.607 19.138,-43.926 25.507,-43.199C61.797,15.227 64.785,16.879 64.688,16.932z" id="path_0"/><path fill="#000000" d="M37.268,30.743c-4.084,-4.726 -8.955,-10.638 -13.982,-13.443c-0.954,-0.532 -1.771,-0.979 -2.424,-0.918c-0.484,0.046 -0.91,0.421 -1.188,1.344c-0.283,0.852 -0.463,2.506 -0.305,4.17c0.061,0.652 0.19,1.292 0.347,1.898c0.308,1.197 2.974,2.188 3.944,2.096c0.941,-0.089 1.933,-1.75 2.039,-1.956c11.964,6.698 18.867,19.443 22.653,27.46c1.491,3.159 -3.921,4.949 -12.704,6.517c-1.042,0.186 0.342,1.862 0.67,1.909c0.836,0.123 2.023,0.089 3.354,-0.037c5.049,-0.478 9.07,-2.243 9.895,-3.255c2.305,-2.83 0.61,-6.22 -0.966,-9.233C45.572,41.506 41.941,36.151 37.268,30.743z" id="path_1"/></svg>