<svg id="vector" xmlns="http://www.w3.org/2000/svg" width="100" height="59" viewBox="0 0 122 72"><path fill="#000000" d="M71.104,9.83l0.184,0.184c0,2.412 -1.908,4.914 -5.725,7.51c-2.234,0.953 -4.502,1.434 -6.799,1.434l-1.611,-0.182c-0.594,2.266 -1.014,3.402 -1.25,3.402c-0.268,0 -0.627,-0.953 -1.076,-2.861c-0.832,-1.137 -2.205,-2.564 -4.113,-4.297V14.66c0.42,-2.381 0.9,-3.57 1.434,-3.57c2.328,2.502 5.189,3.754 8.586,3.754C64.671,14.844 68.128,13.174 71.104,9.83z" id="path_0"/><path fill="#b75009" d="M74.427,26.578h0.555c0.662,0 2.266,4.242 4.809,12.715l0.277,1.121c0,6.641 -1.604,11.449 -4.797,14.414c-4.52,4.893 -9.883,7.34 -16.102,7.34c-5.086,-1.133 -8.377,-2.254 -9.883,-3.387c-4.906,-4.193 -7.352,-9.377 -7.352,-15.535c0,-5.182 2.266,-10.076 6.785,-14.691l0.277,-0.277h0.564l0.568,0.553c0,0.484 -1.314,2.545 -3.953,6.221c-0.76,1.314 -1.23,3.109 -1.41,5.363c0,4.387 2.254,8.146 6.773,11.305c4.422,1.699 7.436,2.543 9.039,2.543c4.049,0 8.846,-1.797 14.402,-5.363c2.266,-1.988 3.398,-3.205 3.398,-3.676l-3.953,-11.016l-0.289,-1.977L74.427,26.578L74.427,26.578zM59.446,32.23c-0.893,0.939 -1.928,3.109 -3.098,6.496c0,1.168 2.447,2.592 7.34,4.23c2.072,-2.447 3.205,-4.424 3.387,-5.93v-0.566c-2.072,-2.207 -4.424,-3.629 -7.063,-4.23H59.446z" id="path_1"/></svg>