<svg id="vector" xmlns="http://www.w3.org/2000/svg" width="100" height="59" viewBox="0 0 122 72"><path fill="#960000" d="M82.803,17.74h1.15c6.121,0.624 9.182,3.108 9.182,7.467v0.575c-1.225,4.749 -2.656,7.81 -4.309,9.181c-3.16,2.669 -7.934,4.016 -14.348,4.016h-0.576c-3.635,0 -6.598,-0.38 -8.885,-1.151v2.864c0,5.411 -2.779,10.674 -8.324,15.791c-4.064,2.864 -7.98,4.297 -11.764,4.297h-0.576c-5.875,0 -10.564,-3.257 -14.053,-9.757c-1.004,-3.011 -1.48,-6.267 -1.432,-9.755c1.48,-6.881 3.77,-11.764 6.879,-14.629l1.432,-0.856h0.871v0.282c0,0.721 -1.531,3.108 -4.592,7.173c-1.15,1.579 -1.727,3.391 -1.727,5.447v1.443c0,2.29 1.727,5.35 5.166,9.182c2.914,1.713 6.256,2.583 10.037,2.583c6.746,0 12.01,-2.681 15.779,-8.043c0.195,-1.334 0.379,-2.668 0.576,-4.015c0,-0.809 -1.334,-3.293 -4.016,-7.454v-6.599c0.281,-0.526 0.576,-0.723 0.857,-0.575c2.35,2.814 5.02,4.541 8.029,5.166h0.576C72.422,21.951 77.109,17.74 82.803,17.74L82.803,17.74zM72.189,30.373l4.016,0.574c5.691,0 10.367,-1.15 14.053,-3.451v-0.281c-1.715,-1.727 -3.82,-2.583 -6.305,-2.583h-1.15C78.211,24.632 74.674,26.541 72.189,30.373z" id="path_0"/><path fill="#673AB7" d="M59.031,11.221l0.184,0.184c0,2.412 -1.908,4.915 -5.725,7.51c-2.236,0.953 -4.502,1.434 -6.801,1.434l-1.609,-0.182c-0.596,2.266 -1.016,3.402 -1.252,3.402c-0.266,0 -0.625,-0.953 -1.074,-2.861c-0.832,-1.137 -2.207,-2.564 -4.115,-4.297v-0.358c0.42,-2.382 0.9,-3.571 1.436,-3.571c2.328,2.502 5.189,3.754 8.586,3.754C52.598,16.234 56.055,14.564 59.031,11.221z" id="path_1"/></svg>