<svg id="vector" xmlns="http://www.w3.org/2000/svg" width="100" height="59" viewBox="0 0 122 72"><path fill="#000000" d="M83.681,6.508l0.203,0.203c0,2.665 -2.109,5.432 -6.326,8.3c-2.471,1.054 -4.977,1.585 -7.516,1.585l-1.779,-0.202c-0.658,2.505 -1.121,3.762 -1.383,3.762c-0.295,0 -0.691,-1.055 -1.189,-3.163c-0.92,-1.257 -2.438,-2.834 -4.547,-4.749v-0.396c0.465,-2.632 0.996,-3.948 1.586,-3.948c2.572,2.767 5.736,4.15 9.488,4.15C76.571,12.05 80.392,10.202 83.681,6.508z" id="path_0"/><path fill="#0000FF" d="M88.685,18.598c0.439,0 0.879,1.469 1.318,4.385l1.973,4.385l-0.879,5.039l0.654,12.275v1.964c-0.289,5.011 -1.02,7.928 -2.188,8.769l-0.215,-0.215l0.215,-3.291c0,-2.954 -0.953,-12.378 -2.852,-28.262C87.628,20.281 88.282,18.598 88.685,18.598z" id="path_1"/><path fill="#960000" d="M50.421,54.137c-0.018,-0.002 -0.036,-0.004 -0.054,-0.005c-0.709,-2.165 -1.559,-5.864 -2.527,-7.908h0.001c-2.083,-0.834 -3.736,-1.945 -4.67,-3.377c-0.439,0.075 -0.654,0.655 -0.654,1.758v2.188c0,1.169 0.215,2.113 0.654,2.852c2.047,2.628 3.066,4.311 3.066,5.039c0,1.749 -4.311,4.601 -12.93,8.546c-2.188,0.579 -3.281,1.094 -3.281,1.532c0,0.291 0.654,0.505 1.973,0.655h0.439c5.982,-0.767 9.826,-1.702 11.527,-2.806c1.701,-1.103 3.188,-4.112 4.459,-9.03c0.517,0.247 1.194,0.441 1.995,0.591C50.42,54.16 50.42,54.149 50.421,54.137z" id="path_2"/><path fill="#b75009" d="M77.765,25.349l-2.852,-6.572c-0.504,0 -1.094,1.963 -1.748,5.908l2.627,20.82c-2.049,2.049 -25.167,1.37 -27.951,0.719c0,0 -0.001,0.077 -0.001,0.077c0.969,2.044 1.818,5.743 2.527,7.908c1.486,0.138 3.072,0.337 4.95,0.448c4.192,0.247 9.847,0.049 19.139,-2.281c1.897,-0.476 2.486,-3.823 3.309,-7.311v-3.291l-1.094,-11.826C77.401,27.9 77.765,26.367 77.765,25.349z" id="path_3"/><path fill="#960000" d="M40.677,25.485c-0.053,-0.077 -0.182,-0.198 -0.26,0.077l-0.703,2.61c-0.025,0.103 0,0.12 0.076,0.223c1.521,1.984 2.277,4.097 2.277,6.707c0,0.653 -0.078,1.28 -0.078,1.855c0,0.248 0.051,0.429 0.154,0.429c0.121,0 0.275,-0.206 0.447,-0.609c0.473,-1.073 0.688,-2.232 0.791,-2.954c0.025,-0.231 0.076,-0.609 0.076,-1.186C43.458,29.778 42.247,27.442 40.677,25.485z" id="path_4"/></svg>