<svg id="vector" xmlns="http://www.w3.org/2000/svg" width="100" height="59" viewBox="0 0 122 72"><path fill="#03A9F4" d="M97.419,3.89l0.203,0.203c0,2.665 -2.109,5.432 -6.326,8.3c-2.471,1.054 -4.977,1.585 -7.516,1.585l-1.779,-0.202c-0.658,2.506 -1.121,3.762 -1.383,3.762c-0.295,0 -0.691,-1.055 -1.189,-3.163c-0.92,-1.257 -2.438,-2.834 -4.547,-4.748V9.229c0.465,-2.632 0.996,-3.947 1.586,-3.947c2.572,2.766 5.736,4.149 9.49,4.149C90.31,9.432 94.13,7.585 97.419,3.89z" id="path_0"/><path fill="#000001" d="M98.808,17.537c0.473,0 0.947,1.583 1.422,4.729l2.127,4.729l-0.947,5.435l0.705,13.238v2.118c-0.313,5.403 -1.1,8.549 -2.359,9.456l-0.232,-0.231l0.232,-3.549c0,-3.187 -1.029,-13.35 -3.074,-30.479C97.667,19.352 98.374,17.537 98.808,17.537z" id="path_1"/><path fill="#000001" d="M74.44,17.537l0.203,0.203c0,2.665 -2.109,5.432 -6.326,8.3c-2.473,1.054 -4.977,1.585 -7.516,1.585l-1.779,-0.202c-0.658,2.505 -1.123,3.762 -1.383,3.762c-0.295,0 -0.693,-1.055 -1.189,-3.163c-0.92,-1.257 -2.438,-2.834 -4.547,-4.749v-0.396c0.463,-2.632 0.994,-3.948 1.586,-3.948c2.572,2.767 5.734,4.15 9.488,4.15C67.329,23.079 71.151,21.231 74.44,17.537z" id="path_2"/><path fill="#9C27B0" d="M34.679,65.086c1.834,-1.19 3.438,-4.437 4.809,-9.74c1.867,0.893 5.482,0.85 9.4,0.365c-0.178,-1.966 -0.664,-4.029 -1.211,-6.468c-5.893,-0.448 -11.658,-2.104 -13.855,-5.472c-0.475,0.08 -0.705,0.706 -0.705,1.896v2.359c0,1.26 0.23,2.279 0.705,3.075c2.207,2.834 3.307,4.648 3.307,5.435c0,1.886 -4.648,4.96 -13.943,9.215c-2.359,0.626 -3.539,1.18 -3.539,1.653c0,0.313 0.705,0.545 2.127,0.706h0.475C28.698,67.284 32.843,66.275 34.679,65.086z" id="path_3"/><path fill="#F44336" d="M75.931,49.022c-3.534,-0.625 -6.75,-2.07 -8.309,-4.211c-0.514,-1.734 -0.908,-2.602 -1.189,-2.602H66.2l-0.23,0.242c-0.324,1.885 -1.373,3.458 -3.166,4.708c-2.389,1.663 -8.83,2.563 -15.127,2.084c0.547,2.438 1.033,4.502 1.211,6.468c7.064,-0.874 15.109,-3.186 15.66,-4.045c0.555,0 1.098,0.313 1.652,0.938l-0.705,4.255c0,1.624 1.572,2.723 4.719,3.317h0.475c1.693,-0.011 2.721,-1.583 3.074,-4.729c1.197,0.139 2.749,0.33 4.395,0.431c-0.744,-2.272 -2.298,-6.815 -2.319,-6.861C75.871,49.019 75.899,49.02 75.931,49.022z" id="path_4"/><path fill="#803d96" d="M85.794,48.416c0.169,-0.063 0.332,-0.132 0.488,-0.202C86.122,48.282 85.962,48.354 85.794,48.416z" id="path_5"/><path fill="#803d96" d="M79.153,55.926c-0.259,-0.01 -0.522,-0.022 -0.799,-0.038C78.619,55.903 78.885,55.916 79.153,55.926z" id="path_6"/><path fill="#F44336" d="M66.259,37.29c0.223,-0.273 0.326,-0.407 0.504,-0.229c0.303,0.251 0.65,0.422 1.277,0.422c1.125,0 1.797,-0.784 2.203,-1.472c0.502,-0.827 0.738,-1.692 0.738,-2.602c0,-0.325 0,-0.783 -0.258,-0.783c-0.303,0 -0.436,0.325 -0.865,1.153c-0.436,0.82 -0.887,1.146 -1.412,1.146c-0.627,0 -0.842,-0.304 -0.842,-0.762c0,-0.259 0.021,-0.362 0.045,-0.562c0.021,-0.325 -0.09,-0.451 -0.236,-0.451c-0.393,0.022 -0.932,0.437 -1.412,1.582c-0.326,0.762 -0.799,1.346 -1.426,1.346c-0.629,0 -1.168,-0.37 -1.168,-1.102c0,-0.437 0.037,-0.65 0.104,-1.021c0.043,-0.214 0.043,-0.413 -0.17,-0.413c-0.518,0 -0.857,0.562 -1.094,1.167c-0.236,0.606 -0.303,1.064 -0.303,1.648s0.176,1.301 0.539,1.781c0.303,0.414 0.746,0.673 1.33,0.673C64.618,38.813 65.417,38.317 66.259,37.29z" id="path_7"/><path fill="#9C27B0" d="M32.528,24.738c-0.053,-0.078 -0.182,-0.198 -0.258,0.077l-0.705,2.609c-0.025,0.104 0,0.121 0.078,0.224c1.52,1.984 2.275,4.097 2.275,6.707c0,0.653 -0.076,1.279 -0.076,1.854c0,0.249 0.051,0.43 0.154,0.43c0.119,0 0.273,-0.206 0.445,-0.609c0.473,-1.073 0.688,-2.232 0.791,-2.954c0.025,-0.231 0.076,-0.609 0.076,-1.186C35.31,29.031 34.099,26.695 32.528,24.738z" id="path_8"/><path fill="#03A9F4" d="M91.005,42.594v-0.063v-0.155L89.838,29.76l-0.001,-0.017l-0.003,-0.041c0.771,-2.164 1.157,-3.786 1.168,-4.877c0,-0.004 0,-0.009 0.001,-0.014c0.001,-0.013 0.003,-0.027 0.003,-0.039l-3.056,-7.043c-0.004,0 -0.01,0.004 -0.015,0.007c-0.002,0.001 -0.003,0.002 -0.005,0.002c-0.536,0.053 -1.16,2.147 -1.853,6.322l0.779,6.465L88.75,46.25c-0.012,0.013 0.108,0.148 0.095,0.162c-0.768,0.738 -1.546,1.343 -2.562,1.802c-0.157,0.07 -0.319,0.139 -0.488,0.202c-1.952,0.733 -4.789,0.979 -9.863,0.606c-0.032,-0.002 -0.061,-0.003 -0.093,-0.006c0.021,0.046 1.576,4.589 2.319,6.861c0,0 0,0 0,0.001c0.069,0.004 0.128,0.005 0.196,0.009c0.276,0.016 0.54,0.028 0.799,0.038c6.481,0.256 7.545,-1.205 8.284,-1.961C88.9,52.464 90.369,49.737 91.25,46L91.005,42.594z" id="path_9"/></svg>