<svg id="vector" xmlns="http://www.w3.org/2000/svg" width="100" height="59" viewBox="0 0 122 72"><path fill="#3F51B5" d="M111.114,5.375l0.184,0.184c0,2.412 -1.908,4.915 -5.725,7.51c-2.236,0.953 -4.502,1.434 -6.801,1.434l-1.609,-0.182c-0.596,2.266 -1.016,3.402 -1.252,3.402c-0.266,0 -0.625,-0.953 -1.076,-2.861c-0.832,-1.137 -2.205,-2.564 -4.113,-4.297v-0.358c0.42,-2.382 0.9,-3.571 1.436,-3.571c2.328,2.502 5.189,3.754 8.586,3.754C104.681,10.389 108.138,8.719 111.114,5.375z" id="path_0"/><path fill="#000000" d="M65.233,11.549l0.182,0.184c0,2.412 -1.906,4.915 -5.723,7.51c-2.236,0.953 -4.502,1.434 -6.801,1.434l-1.609,-0.182c-0.596,2.266 -1.016,3.402 -1.252,3.402c-0.266,0 -0.625,-0.953 -1.076,-2.861c-0.832,-1.137 -2.205,-2.564 -4.113,-4.297v-0.357c0.42,-2.382 0.9,-3.572 1.436,-3.572c2.326,2.503 5.189,3.755 8.586,3.755C58.8,16.564 62.257,14.893 65.233,11.549z" id="path_1"/><path fill="#000000" d="M37.884,11.549l0.184,0.184c0,2.412 -1.908,4.915 -5.725,7.51c-2.236,0.953 -4.502,1.434 -6.801,1.434l-1.609,-0.182c-0.596,2.266 -1.016,3.402 -1.252,3.402c-0.266,0 -0.625,-0.953 -1.076,-2.861c-0.83,-1.137 -2.205,-2.564 -4.113,-4.297v-0.357c0.42,-2.382 0.9,-3.572 1.436,-3.572c2.326,2.503 5.189,3.755 8.586,3.755C31.45,16.564 34.907,14.893 37.884,11.549z" id="path_2"/><path fill="#0EAED6" d="M82.079,16.218c-0.066,-0.101 -0.234,-0.257 -0.334,0.101l-0.916,3.395c-0.033,0.135 0,0.156 0.1,0.291c1.979,2.58 2.961,5.328 2.961,8.723c0,0.85 -0.102,1.664 -0.102,2.412c0,0.324 0.066,0.559 0.201,0.559c0.156,0 0.357,-0.268 0.58,-0.793c0.615,-1.396 0.895,-2.903 1.029,-3.842c0.033,-0.301 0.1,-0.793 0.1,-1.541C85.698,21.802 84.124,18.764 82.079,16.218z" id="path_3"/><path fill="#EA0F0F" d="M66.679,16.218c-0.066,-0.101 -0.234,-0.257 -0.334,0.101l-0.916,3.395c-0.033,0.135 0,0.156 0.1,0.291c1.979,2.58 2.961,5.328 2.961,8.723c0,0.85 -0.1,1.664 -0.1,2.412c0,0.324 0.064,0.559 0.199,0.559c0.156,0 0.357,-0.268 0.58,-0.793c0.615,-1.396 0.895,-2.903 1.029,-3.842c0.033,-0.301 0.1,-0.793 0.1,-1.541C70.298,21.802 68.724,18.764 66.679,16.218z" id="path_4"/><path fill="#000000" d="M42.39,43.48c0.791,-0.99 1.494,-2.679 2.107,-5.067v-0.352c0,-2.662 -1.869,-4.181 -5.609,-4.563h-0.703c-3.479,0 -6.344,2.573 -8.596,7.72h-0.352c-1.84,-0.382 -3.471,-1.437 -4.906,-3.157c-0.172,-0.09 -0.352,0.03 -0.523,0.352v4.033c1.639,2.543 2.453,4.061 2.453,4.555l-0.352,2.453c-2.305,3.277 -5.52,4.915 -9.643,4.915c-2.311,0 -4.354,-0.53 -6.133,-1.578c-2.102,-2.341 -3.158,-4.212 -3.158,-5.61v-0.883c0,-1.256 0.354,-2.363 1.057,-3.328c1.869,-2.484 2.805,-3.943 2.805,-4.384v-0.173h-0.531l-0.875,0.524c-1.9,1.751 -3.299,4.735 -4.205,8.938c-0.029,2.132 0.262,4.122 0.875,5.963c2.133,3.971 4.998,5.961 8.588,5.961h0.352c2.313,0 4.705,-0.875 7.189,-2.625c3.389,-3.127 5.086,-6.344 5.086,-9.65v-1.75c1.398,0.471 3.209,0.703 5.432,0.703h0.352c1.166,0 2.242,-0.072 3.232,-0.218c-1.787,-0.767 -2.043,-1.369 -0.771,-1.802C36.856,44.01 39.136,43.685 42.39,43.48L42.39,43.48zM34.153,41.57L31.7,41.218c1.518,-2.341 3.68,-3.509 6.484,-3.509h0.703c1.518,0 2.805,0.523 3.854,1.578v0.173C40.489,40.867 37.632,41.57 34.153,41.57z" id="path_5"/><path fill="#0EAED6" d="M54.245,41.128v0.173c-3.016,1.264 -6.25,1.972 -9.705,2.119c-0.266,1.154 -0.564,2.32 -0.893,3.478c0.148,-0.003 0.299,-0.006 0.455,-0.009c1.869,-0.046 3.402,-0.173 4.6,-0.383c1.197,-0.217 3.92,-0.896 8.176,-2.049c1.287,2.032 2.727,3.229 4.316,3.586v-4.588c0.438,0.005 0.816,0.006 1.137,0.002c0.002,-0.005 0.002,-0.01 0.004,-0.014c-1.223,-0.074 -1.932,-0.498 -2.129,-1.268v-0.353c1.168,-1.271 1.752,-2.61 1.752,-4.032v-0.703c-0.143,-1.81 -2.072,-2.745 -5.783,-2.805c-1.959,0.135 -3.486,0.381 -4.578,0.748c-1.301,0.381 -2.289,1.533 -2.963,3.463c0.076,0.383 0.539,0.555 1.406,0.524C51.47,39.019 52.868,39.722 54.245,41.128z" id="path_6"/><path fill="#0EAED6" d="M43.647,46.898c0.328,-1.157 0.979,-2.341 1.244,-3.495c-0.529,0.022 -1.416,0.04 -1.957,0.045c-0.186,0.001 -0.365,0.021 -0.545,0.032c-0.17,0.214 -0.346,0.395 -0.525,0.544c-1.355,1.145 -3.199,1.893 -5.533,2.235c0.125,0.054 0.26,0.109 0.402,0.165c1.115,0.18 2.146,0.314 3.111,0.396C40.729,46.903 41.999,46.928 43.647,46.898z" id="path_7"/><path fill="#000000" d="M36.331,46.259c2.334,-0.343 4.178,-1.091 5.533,-2.235c0.18,-0.149 0.355,-0.33 0.525,-0.544c-3.254,0.205 -5.533,0.53 -6.83,0.978C34.288,44.89 34.544,45.493 36.331,46.259z" stroke="#000000" stroke-width="0.216" id="path_8"/><path fill="#3F51B5" d="M116.206,12.397l-14.027,8.587c-1.803,0.935 -3.141,2.692 -4.031,5.259c-0.225,1.189 -0.105,2.297 0.344,3.336c3.111,5.079 4.982,8.588 5.611,10.518v0.172c-2.88,1.673 -6.079,2.688 -9.596,3.045c0,0 0,0 0,0c-0.43,0.042 -1.006,0.086 -1.445,0.111c-1.625,0.094 -3.146,0.182 -4.57,0.254c-0.162,0.325 -0.344,0.652 -0.539,0.98l1.818,2.103c0.148,0.267 0.281,0.505 0.396,0.717c1.589,-0.035 3.16,-0.143 4.473,-0.295c0,0.001 0,0.002 0,0.003c0.038,-0.004 0.074,-0.01 0.112,-0.015c0.009,-0.001 0.018,-0.002 0.026,-0.003c0,0 0,0 0,0c0.219,-0.027 0.436,-0.055 0.646,-0.085c3.949,-0.83 6.605,-1.758 7.98,-2.783c1.4,-1.563 2.104,-3.253 2.104,-5.078c0,-2.529 -1.93,-6.853 -5.783,-12.979c4.451,-3.344 8.775,-6.148 12.971,-8.416c-0.18,1.213 0.061,1.512 0.703,0.883l3.33,-5.961C116.87,12.165 116.7,12.045 116.206,12.397z" id="path_9"/><path fill="#0EAED6" d="M90.153,47.479l0.014,-0.001C90.163,47.478 90.157,47.478 90.153,47.479L90.153,47.479zM88.843,47.495l1.311,-0.016c-0.004,0 -0.008,0 -0.014,0C89.718,47.488 89.284,47.493 88.843,47.495L88.843,47.495zM89.771,46.761l0.396,0.717c0.348,0.638 0.545,1.028 0.59,1.169l0.082,1.428c-0.014,2.529 -0.352,4.271 -1.025,5.236c-0.672,0.965 -1.525,1.451 -2.564,1.467c-2.252,0 -4.586,-1.811 -7.018,-5.432c-0.418,-0.718 -0.83,-1.653 -1.227,-2.805h-1.75c-0.334,0 -0.654,-0.016 -0.967,-0.049l-0.004,-0.062c0.113,0.009 0.227,0.015 0.342,0.021h0.113v-4.889c0.34,0.044 0.688,0.063 1.039,0.063h0.703c0.965,-3.739 2.604,-6.545 4.908,-8.415c1.197,-0.936 2.311,-1.399 3.336,-1.399c1.578,0 2.514,1.167 2.805,3.509c0.404,2.045 0.059,4.164 -1.039,6.357c-0.162,0.325 -0.344,0.652 -0.539,0.98L89.771,46.761L89.771,46.761zM87.421,40.477v-0.179c-0.494,-1.167 -1.137,-1.751 -1.922,-1.751c-1.744,-0.225 -3.494,1.242 -5.268,4.384c-0.127,0.39 0.045,0.568 0.531,0.524C82.985,43.456 85.2,42.459 87.421,40.477L87.421,40.477zM87.077,48.07c-1.541,-0.299 -2.768,-0.403 -3.695,-0.299s-1.393,0.299 -1.393,0.591c1.197,2.109 2.949,3.276 5.26,3.508c1.166,-0.104 1.93,-0.508 2.281,-1.227C89.425,49.23 88.61,48.37 87.077,48.07z" id="path_10"/><path fill="#EA0F0F" d="M70.313,40.56c-0.111,-1.429 -0.293,-2.252 -0.523,-2.454c-0.441,-0.381 -0.732,-0.321 -0.875,0.18c-0.965,2.596 -2.762,4.301 -5.395,5.102c-0.172,0.034 -0.494,0.057 -0.965,0.066c-0.07,0.001 -0.146,0.002 -0.225,0.004c-0.32,0.004 -0.699,0.003 -1.137,-0.002v4.588c0.195,0.044 0.393,0.075 0.592,0.094h1.688c0.123,-0.041 0.246,-0.085 0.369,-0.134c1.779,-0.71 3.238,-2.257 4.369,-4.639h0.172c1.691,3.068 4.887,4.851 8.355,5.149v-4.951C74.429,43.724 71.872,42.66 70.313,40.56z" id="path_11"/><path fill="#EA0F0F" d="M62.362,55.812v0.181c1.488,1.398 2.596,2.102 3.328,2.102h0.352c1.406,-1.99 2.102,-3.27 2.102,-3.859c-1.84,-1.751 -3.127,-2.627 -3.852,-2.627C63.005,53.71 62.362,55.117 62.362,55.812z" id="path_12"/><path fill="#EA0F0F" d="M70.597,50.733c-0.904,0.727 -1.66,2.072 -2.273,4.032c0.846,0.995 2.244,1.87 4.203,2.626c1.467,-1.9 2.283,-3.127 2.455,-3.681C74.981,52.977 73.522,51.99 70.597,50.733z" id="path_13"/></svg>