<svg id="vector" xmlns="http://www.w3.org/2000/svg" width="100" height="59" viewBox="0 0 122 72"><path fill="#009649" d="M86.31,45.673c0.492,0 1.005,0 1.536,0l1.176,-0.593c0.742,-1.526 1.848,-3.404 3.293,-5.644l-2.35,-18.126c0.783,-3.766 1.486,-5.643 2.119,-5.643l1.174,4.469c1.096,1.525 1.648,2.941 1.648,4.236c-0.783,1.447 -1.176,2.632 -1.176,3.525v0.472l0.473,7.532v1.185c2.43,-2.049 5.684,-3.163 9.76,-3.354c4.709,0.663 7.061,2.229 7.061,4.7v1.646c-0.785,3.495 -1.959,6.166 -3.525,8.003c-4.75,2.672 -9.961,4.098 -15.655,4.299h-2.592c-1.033,0 -2.018,0 -2.942,0V45.673L86.31,45.673zM90.899,45.793h0.473c7.18,-0.2 12.793,-1.476 16.831,-3.826c-1.838,-1.888 -3.173,-2.822 -3.997,-2.822h-1.889C96.944,39.336 93.139,41.556 90.899,45.793z" id="path_0"/><path fill="#000001" d="M81.94,14.608l0.184,0.183c0,2.412 -1.908,4.916 -5.725,7.511c-2.235,0.953 -4.502,1.435 -6.8,1.435l-1.61,-0.184c-0.595,2.267 -1.015,3.403 -1.251,3.403c-0.267,0 -0.626,-0.954 -1.075,-2.861c-0.832,-1.138 -2.207,-2.565 -4.114,-4.297v-0.358c0.42,-2.381 0.9,-3.571 1.435,-3.571c2.328,2.503 5.189,3.755 8.586,3.755C75.506,19.623 78.963,17.951 81.94,14.608z" id="path_1"/><path fill="#000001" d="M87.254,52.381c-0.371,0 -0.823,0 -1.355,0c-2.1,-0.021 -4.358,-1.598 -6.799,-4.74c-0.934,3.455 -2.58,5.182 -4.94,5.182h-0.23c-1.998,0 -3.646,-1.175 -4.94,-3.534h-0.242c-1.404,2.831 -3.112,4.116 -5.12,3.855c-3.726,0.021 -5.936,-1.737 -6.648,-5.262c-2.621,3.072 -5.442,4.579 -8.445,4.499h-0.382v-6.708h0.122c4.749,-0.161 8.274,-1.777 10.593,-4.851c0.313,0 0.473,0.231 0.473,0.703l-0.24,1.646c1.254,2.511 2.901,3.767 4.939,3.767c1.928,0 3.887,-1.878 5.885,-5.645h0.241l0.702,0.703v1.646c0,1.487 1.105,2.351 3.294,2.592h0.473c2.038,0 3.926,-2.039 5.653,-6.126h0.23c0.312,0 0.473,0.713 0.473,2.119c0.863,2.38 2.952,3.524 6.266,3.444V52.381z" id="path_2"/><path fill="#009649" d="M99.597,14.703c-0.052,-0.078 -0.181,-0.199 -0.258,0.076l-0.704,2.61c-0.025,0.104 0,0.12 0.076,0.224c1.521,1.984 2.277,4.096 2.277,6.707c0,0.652 -0.078,1.279 -0.078,1.854c0,0.249 0.051,0.43 0.154,0.43c0.121,0 0.275,-0.206 0.447,-0.61c0.473,-1.073 0.687,-2.232 0.79,-2.953c0.025,-0.232 0.077,-0.61 0.077,-1.186C102.379,18.996 101.168,16.66 99.597,14.703z" id="path_3"/><path fill="#000001" d="M43.09,12.209l0.184,0.183c0,2.411 -1.908,4.915 -5.724,7.51c-2.236,0.954 -4.502,1.435 -6.8,1.435l-1.609,-0.184c-0.596,2.268 -1.016,3.404 -1.251,3.404c-0.267,0 -0.626,-0.955 -1.076,-2.862c-0.832,-1.137 -2.206,-2.564 -4.114,-4.296v-0.359c0.42,-2.381 0.9,-3.571 1.435,-3.571c2.328,2.503 5.189,3.755 8.586,3.755C36.656,17.223 40.114,15.551 43.09,12.209z" id="path_4"/><path fill="#673AB7" d="M48.392,52.381c-0.251,0 -0.522,0 -0.793,0h-0.231c-2.279,-0.021 -4.478,-0.422 -6.597,-1.205c-2.27,3.926 -5.252,5.885 -8.938,5.885c-4.398,-0.633 -6.598,-2.431 -6.598,-5.413h-0.23c-0.743,2.511 -2.391,4.549 -4.941,6.116c-3.414,1.254 -6.085,1.887 -8.003,1.887l-1.084,0.141v-0.472c0.873,-0.723 3.243,-2.4 7.099,-5.031c3.856,-2.621 6.045,-4.268 6.558,-4.94c0.522,-0.663 1.275,-2.881 2.259,-6.647c1.878,-3.133 3.605,-4.709 5.172,-4.709h0.472c1.958,0 5.102,2.118 9.419,6.355c1.255,1.064 3.394,1.536 6.437,1.416V52.381L48.392,52.381zM28.068,45.994c0,2.078 1.646,3.494 4.94,4.237h1.175c2.671,-0.271 4.007,-0.662 4.007,-1.175c-3.104,-2.982 -5.453,-4.469 -7.069,-4.469h-0.231C29.554,44.588 28.61,45.061 28.068,45.994z" id="path_5"/><path fill="#673AB7" d="M32.783,31.268c0.222,-0.273 0.325,-0.406 0.502,-0.229c0.303,0.251 0.65,0.421 1.278,0.421c1.124,0 1.796,-0.784 2.203,-1.471c0.502,-0.827 0.739,-1.692 0.739,-2.602c0,-0.325 0,-0.783 -0.259,-0.783c-0.303,0 -0.436,0.325 -0.865,1.153c-0.436,0.82 -0.887,1.145 -1.412,1.145c-0.628,0 -0.843,-0.303 -0.843,-0.761c0,-0.259 0.022,-0.362 0.045,-0.562c0.022,-0.326 -0.089,-0.451 -0.237,-0.451c-0.392,0.021 -0.931,0.436 -1.412,1.582c-0.325,0.761 -0.798,1.345 -1.427,1.345c-0.628,0 -1.167,-0.37 -1.167,-1.101c0,-0.437 0.037,-0.65 0.104,-1.021c0.044,-0.214 0.044,-0.414 -0.17,-0.414c-0.518,0 -0.857,0.562 -1.094,1.168c-0.236,0.606 -0.303,1.064 -0.303,1.648c0,0.583 0.177,1.301 0.54,1.78c0.303,0.414 0.747,0.674 1.331,0.674C31.142,32.791 31.94,32.295 32.783,31.268z" id="path_6"/></svg>