<svg id="vector" xmlns="http://www.w3.org/2000/svg" width="100" height="59" viewBox="0 0 122 72"><path fill="#b75009" d="M66.231,15.651l0.184,0.183c0,2.412 -1.908,4.916 -5.725,7.51c-2.236,0.954 -4.502,1.435 -6.799,1.435l-1.611,-0.183c-0.596,2.267 -1.016,3.403 -1.25,3.403c-0.268,0 -0.627,-0.954 -1.076,-2.862c-0.832,-1.137 -2.207,-2.564 -4.115,-4.296v-0.358c0.42,-2.381 0.9,-3.571 1.436,-3.571c2.328,2.503 5.189,3.755 8.586,3.755C59.798,20.666 63.255,18.994 66.231,15.651z" id="path_0"/><path fill="#000000" d="M87.069,9.747c-0.053,-0.077 -0.182,-0.198 -0.258,0.077l-0.705,2.61c-0.025,0.104 0,0.12 0.078,0.224c1.52,1.983 2.275,4.096 2.275,6.707c0,0.652 -0.076,1.279 -0.076,1.854c0,0.249 0.051,0.429 0.154,0.429c0.119,0 0.273,-0.205 0.445,-0.609c0.473,-1.073 0.688,-2.232 0.791,-2.953c0.025,-0.232 0.078,-0.61 0.078,-1.186C89.853,14.041 88.64,11.705 87.069,9.747z" id="path_1"/><path fill="#b75009" d="M25.376,51.702c2.068,7.093 6.482,10.645 13.26,10.645c3.914,0 7.678,-2.095 11.293,-6.306c2.031,-3.439 3.051,-6.769 3.051,-9.995l1.521,0.223h1.734c1.344,0 2.791,-1.02 4.348,-3.041c1.121,2.17 2.643,3.255 4.563,3.255c1.918,0 3.227,-1.299 3.912,-3.913c1.771,2.179 3.441,3.208 4.998,3.097h0.213h0.844v-0.028h-0.871v-6.193h0.871v-0.028c-0.379,-0.027 -0.871,-0.027 -1.492,0.028c-2.031,-0.325 -3.189,-1.817 -3.477,-4.479h-0.213l-0.223,0.213c-1.123,3.338 -2.355,4.998 -3.691,4.998h-1.084c-0.725,0 -1.596,-0.501 -2.615,-1.521c-0.139,-1.883 -0.361,-2.819 -0.648,-2.819h-0.215c-1.482,3.041 -3.439,4.563 -5.869,4.563c-2.902,0 -5.072,-1.521 -6.518,-4.563c-0.436,0 -0.658,1.159 -0.658,3.478v0.648c0,0.946 0.945,3.265 2.828,6.955l-0.215,2.393c-2.828,4.636 -6.814,6.954 -11.951,6.954l-3.477,-0.437c-5.508,-1.743 -8.262,-4.997 -8.262,-9.782v-0.862c0,-1.956 1.232,-4.637 3.689,-8.048c0,-0.575 -0.287,-1.011 -0.861,-1.299c-3.479,3.255 -5.221,7.028 -5.221,11.294L25.376,51.702z" id="path_2"/><path fill="#000000" d="M76.958,45.638h2.393c5.258,-0.185 10.068,-1.502 14.455,-3.969c1.447,-1.696 2.531,-4.162 3.256,-7.39v-1.52c0,-2.281 -2.17,-3.729 -6.52,-4.34c-3.764,0.176 -6.768,1.205 -9.012,3.097v-1.094l-0.436,-6.955v-0.436c0,-0.825 0.361,-1.919 1.084,-3.255c0,-1.195 -0.51,-2.503 -1.521,-3.912l-1.084,-4.127c-0.584,0 -1.232,1.734 -1.957,5.211l2.17,16.737c-1.336,2.067 -2.355,3.801 -3.041,5.211l-1.086,0.547h-1.496v6.193H76.958L76.958,45.638zM78.915,39.556h-0.436c2.066,-3.913 5.582,-5.962 10.543,-6.139h1.742c0.76,0 1.994,0.862 3.691,2.606C90.728,38.193 85.544,39.37 78.915,39.556z" id="path_3"/></svg>