<svg id="vector" xmlns="http://www.w3.org/2000/svg" width="100" height="59" viewBox="0 0 122 72"><path fill="#FF0000" d="M59.032,17.563l0.182,0.183c0,2.411 -1.906,4.915 -5.723,7.51c-2.236,0.954 -4.504,1.435 -6.801,1.435l-1.609,-0.184c-0.596,2.268 -1.016,3.404 -1.252,3.404c-0.268,0 -0.625,-0.955 -1.076,-2.862c-0.832,-1.137 -2.205,-2.564 -4.113,-4.296v-0.359c0.42,-2.381 0.9,-3.571 1.436,-3.571c2.326,2.503 5.189,3.755 8.586,3.755C52.597,22.576 56.056,20.904 59.032,17.563z" id="path_0"/><path fill="#001ffc" d="M77.751,9.258C77.7,9.18 77.571,9.06 77.493,9.335l-0.703,2.61c-0.025,0.104 0,0.12 0.076,0.223c1.52,1.984 2.277,4.096 2.277,6.707c0,0.653 -0.078,1.279 -0.078,1.855c0,0.248 0.051,0.43 0.154,0.43c0.119,0 0.273,-0.207 0.445,-0.61c0.475,-1.073 0.688,-2.232 0.791,-2.954c0.025,-0.231 0.078,-0.609 0.078,-1.186C80.534,13.551 79.323,11.215 77.751,9.258z" id="path_1"/><path fill="#001ffc" d="M81.646,37.385v6.85c0.094,-0.003 0.967,-0.03 1.08,-0.03h0.785c3.836,0 6.133,-2.988 6.906,-8.965v-2.182l-0.248,-3.154c-2.295,-6.948 -4.156,-10.981 -5.572,-12.118c-0.527,0 -0.932,1.861 -1.211,5.573c2.338,3.474 4.117,7.331 5.336,11.57v0.487c-0.734,1.291 -2.389,1.942 -4.973,1.942h-1.023L81.646,37.385z" id="path_2"/><path fill="#FF0000" d="M61.362,44.906c1.5,0 3.113,-1.137 4.85,-3.391c1.252,2.419 2.947,3.629 5.086,3.629c2.143,0 3.6,-1.447 4.365,-4.363c1.975,2.43 3.836,3.577 5.572,3.453h0.238h0.342v-6.876l-1.064,-0.063c-2.289,-0.133 -3.559,-2.026 -3.879,-4.993h-0.236l-0.25,0.236c-1.25,3.723 -2.625,5.574 -4.115,5.574h-1.209c-0.807,0 -1.779,-0.559 -2.916,-1.695c-0.154,-2.1 -0.404,-3.145 -0.723,-3.145h-0.238c-1.656,3.392 -3.836,5.088 -6.545,5.088c-3.238,0 -5.656,-1.696 -7.27,-5.088c-0.486,0 -0.734,1.293 -0.734,3.878v0.724c0,1.056 1.055,3.641 3.154,7.756l-0.238,2.668c-3.154,5.17 -7.602,7.755 -13.328,7.755l-3.879,-0.486c-6.141,-1.943 -9.213,-5.573 -9.213,-10.909v-0.961c0,-2.182 1.375,-5.171 4.115,-8.975c0,-0.642 -0.32,-1.128 -0.961,-1.449c-3.877,3.63 -5.822,7.838 -5.822,12.595l0.486,5.098c2.307,7.91 7.229,11.87 14.787,11.87c4.363,0 8.561,-2.336 12.594,-7.031c2.266,-3.835 3.402,-7.548 3.402,-11.146l1.695,0.248H61.362z" id="path_3"/><path fill="#001ffc" d="M86.034,53.039c2.926,1.257 4.383,2.244 4.383,2.978c-0.172,0.553 -0.986,1.78 -2.453,3.681c-1.959,-0.756 -3.359,-1.631 -4.203,-2.626C84.374,55.111 85.13,53.765 86.034,53.039L86.034,53.039zM79.728,53.914c0.727,0 2.014,0.876 3.854,2.626c0,0.591 -0.695,1.87 -2.102,3.859h-0.354c-0.732,0 -1.84,-0.702 -3.328,-2.102v-0.18C77.798,57.423 78.442,56.017 79.728,53.914z" id="path_4"/></svg>