<svg id="vector" xmlns="http://www.w3.org/2000/svg" width="102" height="73" viewBox="0 0 102 73"><path fill="#D50000" d="M61.695,42.327c0.9,-0.848 4.688,-1.185 11.348,-1.027c3.607,-0.127 7.11,-1.095 10.507,-2.895c1.29,-1.29 2.933,-3.458 4.921,-6.503c0.997,-0.997 1.935,-1.582 2.813,-1.763c3.045,0 4.574,1.643 4.574,4.921c-0.21,4.664 -1.087,7.477 -2.64,8.437h-0.877c-1.493,0 -4.133,-0.938 -7.913,-2.813c-0.878,1.53 -3.338,2.813 -7.38,3.87h-0.18c-5.476,0.473 -9.601,0.428 -12.368,-0.135C61.732,43.865 60.795,43.167 61.695,42.327L61.695,42.327zM87.945,36.822c1.492,0.728 3.428,1.373 5.798,1.936v-0.181c0,-1.845 -1.17,-2.955 -3.511,-3.337C88.703,35.675 87.945,36.208 87.945,36.822z" id="path_0"/><path fill="#D50000" d="M89.348,14.165c1.8,0 2.7,1.11 2.7,3.322c0,3.525 -3.008,6.532 -9.03,9.008c-0.862,0.263 -0.967,-0.053 -0.308,-0.945c0.165,-0.337 1.583,-1.395 4.261,-3.165v-0.149c-1.155,-0.473 -1.732,-1.478 -1.732,-3.016c0.765,-3.367 1.979,-5.055 3.645,-5.055H89.348L89.348,14.165zM86.663,17.968c0,0.938 0.795,1.515 2.377,1.74h0.308c0.585,0 0.96,-0.218 1.117,-0.638c0,-0.953 -0.689,-1.695 -2.063,-2.221C87.803,16.85 87.226,17.225 86.663,17.968z" id="path_1"/><path fill="#008046" d="M63.51,44.712l-3.518,0.173H53.58c-0.6,-0.015 -1.957,-0.225 -4.064,-0.622c-2.108,-0.405 -2.918,-0.952 -2.416,-1.65c0.496,-0.697 3.631,-1.095 9.405,-1.2c2.551,-0.157 4.71,-0.412 6.48,-0.75c0,-0.345 0.645,-1.635 1.935,-3.862c0,-5.917 -0.412,-10.725 -1.229,-14.415V21.86c0.322,-3.165 0.728,-4.748 1.229,-4.748l2.46,5.978l-1.229,4.747l0.172,5.272v1.051l-0.172,0.877c2.707,-2.954 5.107,-4.477 7.207,-4.567h1.05c3.008,0.016 4.703,1.306 5.101,3.87c-0.045,2.708 -0.803,4.755 -2.288,6.15C75.293,43.13 70.718,44.532 63.51,44.712L63.51,44.712zM64.92,40.317h0.353c4.95,-0.548 8.205,-1.147 9.772,-1.815c1.567,-0.667 2.355,-1.117 2.355,-1.35v-0.18c-1.29,-1.522 -2.993,-2.28 -5.101,-2.28C69.75,34.692 67.29,36.567 64.92,40.317z" id="path_2"/><path fill="#008046" d="M80.07,12.23c0.18,-0.105 0.232,0.06 0.157,0.487c-0.998,2.34 -2.527,3.975 -4.59,4.897l-7.583,3.802c-0.322,-0.089 -0.382,-0.352 -0.18,-0.794c1.013,-1.95 1.702,-3.105 2.07,-3.473L80.07,12.23z" id="path_3"/><path fill="#000001" d="M52.192,44.075c0.601,1.072 0.93,1.702 0.99,1.89l0.082,1.433c-0.015,2.535 -0.353,4.282 -1.027,5.25s-1.529,1.455 -2.572,1.47c-2.258,0 -4.598,-1.814 -7.035,-5.445c-0.42,-0.72 -0.832,-1.657 -1.229,-2.812h-1.755c-0.398,0 -0.773,-0.023 -1.141,-0.068V40.76c0.54,0.12 1.096,0.173 1.665,0.173h0.705c0.968,-3.75 2.61,-6.563 4.92,-8.438c1.2,-0.938 2.317,-1.402 3.345,-1.402c1.583,0 2.521,1.17 2.813,3.518c0.465,2.354 -0.061,4.807 -1.583,7.357L52.192,44.075L52.192,44.075zM44.393,45.68c1.2,2.115 2.955,3.285 5.272,3.518c1.17,-0.104 1.935,-0.51 2.288,-1.229c-0.105,-1.418 -0.923,-2.28 -2.461,-2.58c-1.545,-0.301 -2.774,-0.405 -3.704,-0.301C44.857,45.192 44.393,45.388 44.393,45.68L44.393,45.68zM42.63,40.235c-0.127,0.39 0.045,0.569 0.533,0.524c2.228,0 4.447,-0.997 6.675,-2.985v-0.18c-0.495,-1.17 -1.141,-1.755 -1.928,-1.755C46.163,35.615 44.407,37.085 42.63,40.235z" id="path_4"/><path fill="#000001" d="M49.688,18.912c0.323,0.556 0.698,2.138 1.125,4.748c-0.262,1.582 -0.952,2.37 -2.069,2.37h-0.15c-0.487,0 -1.117,-0.315 -1.912,-0.945c-0.54,0.953 -1.335,1.433 -2.37,1.433c-1.261,0 -1.891,-1.53 -1.891,-4.59c0.368,-1.163 0.683,-1.74 0.945,-1.74l0.15,0.157v2.7c0.217,0.938 0.487,1.402 0.795,1.402h0.637c0.66,0 1.08,-0.263 1.275,-0.787l-0.33,-2.37c0.128,-0.795 0.345,-1.215 0.638,-1.253h0.33c0.33,2.633 0.862,3.953 1.575,3.953h1.103v-0.157l-0.48,-3.158v-0.18C49.186,19.438 49.396,18.912 49.688,18.912z" id="path_5"/><path fill="#000001" d="M52.343,9.245c0.18,-0.105 0.232,0.06 0.157,0.487c-0.997,2.34 -2.527,3.975 -4.59,4.897l-7.583,3.803c-0.322,-0.09 -0.382,-0.353 -0.18,-0.795c1.013,-1.95 1.702,-3.105 2.07,-3.473L52.343,9.245z" id="path_6"/><path fill="#008046" d="M38.588,45.785c-0.158,0.015 -0.323,0.022 -0.48,0.022h-0.885c-1.373,0 -2.311,-0.112 -2.813,-0.353c-1.021,3.945 -2.213,6.36 -3.577,7.245c-1.365,0.885 -4.448,1.635 -9.248,2.25h-0.353c-1.058,-0.12 -1.582,-0.293 -1.582,-0.525c0,-0.353 0.877,-0.765 2.632,-1.229c6.915,-3.165 10.373,-5.453 10.373,-6.855c0,-0.585 -0.817,-1.935 -2.46,-4.042c-0.353,-0.593 -0.525,-1.351 -0.525,-2.288v-1.755c0,-0.885 0.173,-1.35 0.525,-1.41c1.522,2.333 4.103,3.63 7.732,3.907c0.225,0 0.442,0 0.66,-0.015V45.785z" id="path_7"/><path fill="#008046" d="M34.875,24.583c0.18,-0.105 0.232,0.06 0.157,0.487c-0.997,2.34 -2.527,3.975 -4.59,4.897l-7.582,3.803c-0.322,-0.091 -0.383,-0.353 -0.181,-0.795c1.013,-1.95 1.702,-3.105 2.07,-3.474L34.875,24.583z" id="path_8"/><path fill="#000001" d="M7.942,19.902c1.373,0.412 2.782,1.29 4.215,2.641v0.172c-1.313,2.317 -2.077,3.487 -2.279,3.518H9.345c-0.989,-0.15 -2.047,-0.787 -3.165,-1.935v-0.173C6.3,22.745 6.885,21.343 7.942,19.902z" id="path_9"/><path fill="#000001" d="M14.617,20.255c1.29,0.293 2.58,1.058 3.87,2.288v0.172c0,0.646 -0.705,1.815 -2.107,3.518h-0.525c-0.824,0 -1.874,-0.645 -3.164,-1.935C13.013,22.482 13.657,21.133 14.617,20.255z" id="path_10"/><path fill="#000001" d="M17.498,28.76l0.18,0.525c-0.24,0.997 -1.29,2.167 -3.165,3.518c1.875,1.522 2.813,3.75 2.813,6.683v0.172c0,4.808 -1.995,7.208 -5.978,7.208C8.183,46.25 6.6,44.668 6.6,42.117v-0.172C6.72,39.747 7.598,37.4 9.24,34.91c-1.522,-0.465 -2.288,-1.11 -2.288,-1.936c0,-2.197 0.173,-3.54 0.525,-4.042c1.582,0.442 3.345,1.32 5.272,2.64h0.18L17.498,28.76L17.498,28.76zM10.643,35.787c-1.402,1.41 -2.107,2.408 -2.107,2.993c0,1.814 1.29,2.872 3.87,3.165c1.343,-0.181 2.52,-0.646 3.51,-1.41C14.775,38.57 13.02,36.995 10.643,35.787z" id="path_11"/><path fill="#f06022" d="M19.103,54.928l0.18,0.157v0.48c-0.907,1.949 -2.175,3.314 -3.803,4.109c-5.04,2.737 -7.837,4.11 -8.393,4.11c-0.202,0 -0.307,-0.165 -0.307,-0.487c0.479,-1.86 1.537,-3.12 3.165,-3.78l9.007,-4.59H19.103z" id="path_12"/><path fill="#f06022" d="M17.85,50.976c0.21,0 0.308,0.149 0.308,0.457c-0.585,1.702 -2.317,3.232 -5.205,4.598l-6.659,3.645l-0.15,-0.157v-0.173c0.63,-2.228 1.635,-3.6 3.007,-4.109l7.433,-3.803L17.85,50.976z" id="path_13"/></svg>