<svg id="vector" xmlns="http://www.w3.org/2000/svg" width="102" height="73" viewBox="0 0 102 73"><path fill="#000001" d="M65.381,52.138h0.907h0.346h0.885c3.188,-0.232 5.123,-0.968 5.798,-2.197c0,-0.968 -1.11,-3.601 -3.338,-7.913l-0.353,-1.402c-0.383,-1.845 -0.367,-3.54 0.045,-5.078c0.405,-1.537 1.215,-2.603 2.415,-3.188c2.783,-1.875 8.115,-4.979 15.997,-9.315l0.173,0.18v0.345c-1.695,2.67 -2.985,5.13 -3.862,7.388h-0.353l-0.18,-0.877v-0.885l0.18,-0.173v-0.172h-0.18c-6.533,3.772 -10.928,6.533 -13.186,8.257v0.18c2.468,4.98 3.811,8.783 4.05,11.423c0,1.875 -0.645,3.87 -1.935,5.978c-1.229,1.643 -3.69,2.46 -7.388,2.46h-0.022V52.138z" id="path_0"/><path fill="#000001" d="M79.624,20.301c0.18,-0.105 0.232,0.06 0.157,0.487c-0.998,2.34 -2.527,3.975 -4.59,4.897l-7.583,3.803c-0.322,-0.09 -0.382,-0.353 -0.18,-0.795c1.013,-1.95 1.702,-3.105 2.07,-3.473L79.624,20.301z" id="path_1"/><path fill="#213e95" d="M54.326,29.196c2.468,1.229 3.697,2.287 3.697,3.165c-1.177,2.318 -1.875,3.488 -2.115,3.518h-0.352c-1.801,-0.907 -2.91,-1.725 -3.338,-2.46C52.631,32.083 53.336,30.681 54.326,29.196z" id="path_2"/><path fill="#213e95" d="M66.214,57.17c-3.016,-0.202 -5.753,-1.853 -8.213,-4.942h-0.18c-1.05,6.09 -3.397,9.135 -7.027,9.143h-0.533c-1.574,-0.008 -3.104,-1.41 -4.567,-4.223c-1.17,-3.952 -1.755,-6.945 -1.755,-8.963v-1.409c0,-0.878 0.173,-1.351 0.525,-1.403c0.495,0.263 1.087,2.183 1.77,5.768c0.683,3.578 2.085,5.288 4.208,5.13c4.103,-0.675 6.27,-3.021 6.502,-7.034l-1.582,-5.445v-1.936c0.06,-2.347 0.292,-3.517 0.705,-3.517c0.232,0.524 0.412,1.058 0.524,1.582l2.46,7.732c1.936,3.135 4.328,4.62 7.163,4.44V57.17z" id="path_3"/><path fill="#213e95" d="M56.479,18.343c0.322,0.555 0.697,2.138 1.125,4.748c-0.263,1.583 -0.952,2.37 -2.07,2.37h-0.149c-0.488,0 -1.117,-0.315 -1.913,-0.945c-0.54,0.953 -1.335,1.433 -2.37,1.433c-1.26,0 -1.89,-1.53 -1.89,-4.59c0.367,-1.163 0.683,-1.74 0.945,-1.74l0.15,0.158v2.7c0.217,0.938 0.487,1.402 0.794,1.402h0.638c0.66,0 1.08,-0.263 1.275,-0.788l-0.33,-2.37c0.128,-0.795 0.345,-1.215 0.638,-1.252h0.33c0.33,2.633 0.862,3.953 1.574,3.953h1.104v-0.157l-0.48,-3.158v-0.18C55.976,18.868 56.187,18.343 56.479,18.343z" id="path_4"/><path fill="#213e95" d="M59.142,8.676c0.18,-0.105 0.232,0.06 0.157,0.487c-0.998,2.34 -2.527,3.975 -4.59,4.897l-7.583,3.802c-0.322,-0.09 -0.383,-0.352 -0.18,-0.794c1.012,-1.951 1.702,-3.105 2.069,-3.473L59.142,8.676z" id="path_5"/><path fill="#000001" d="M26.756,58.026c2.46,0.705 3.69,1.582 3.69,2.64l-2.287,3.689c-2.288,-0.937 -3.518,-1.642 -3.69,-2.106C24.469,61.161 25.227,59.758 26.756,58.026z" id="path_6"/><path fill="#000001" d="M16.204,41.503h0.18l0.353,0.352c-0.938,2.078 -1.41,3.488 -1.41,4.216c0,3.427 3.285,5.422 9.848,5.978l2.107,0.353c2.107,0 5.272,-0.646 9.487,-1.936l2.468,-1.402c-0.825,-1.492 -1.351,-2.782 -1.583,-3.87l0.354,-3.338h0.345c1.41,1.463 2.114,4.043 2.114,7.733c0,3.547 -3.104,5.947 -9.322,7.207l-2.633,0.353c-9.848,0 -14.767,-3.225 -14.767,-9.667C13.744,44.789 14.568,42.793 16.204,41.503z" id="path_7"/><path fill="#000001" d="M33.852,31.041c0.18,-0.105 0.232,0.06 0.157,0.487c-0.998,2.34 -2.527,3.975 -4.59,4.898l-7.583,3.802c-0.322,-0.09 -0.382,-0.353 -0.18,-0.795c1.013,-1.95 1.702,-3.105 2.07,-3.473L33.852,31.041z" id="path_8"/></svg>