<svg id="vector" xmlns="http://www.w3.org/2000/svg" width="102" height="73" viewBox="0 0 102 73"><path fill="#000001" d="M30.942,35.848c1.125,-0.098 1.71,0.195 1.755,0.885v1.051c-0.293,2.813 -0.585,4.223 -0.878,4.223h-0.18c-0.218,-0.826 -0.923,-1.23 -2.107,-1.23c-2.431,0 -5.011,1.814 -7.732,5.445v0.352c0,0.586 1.995,1.117 5.978,1.582c1.05,1.027 1.582,2.139 1.582,3.338c0,3.314 -2.932,6.885 -8.789,10.725c-1.523,0.818 -3.045,1.23 -4.576,1.23c-4.012,0 -6.877,-2.459 -8.609,-7.379c-0.555,-1.719 -0.607,-4.111 -0.15,-7.178c0.45,-3.068 1.808,-4.965 4.064,-5.701l0.309,0.045c0.435,0.232 0.119,0.9 -0.96,2.01c-1.073,1.104 -1.755,2.543 -2.032,4.32v1.402c0,2.813 1.521,5.102 4.566,6.855c1.059,0.473 2.176,0.705 3.346,0.705h0.705c3.397,0 6.795,-1.643 10.192,-4.92l-5.452,-1.23c-0.938,-0.621 -1.402,-1.439 -1.402,-2.467v-2.107c0.045,-3.225 1.566,-6.158 4.566,-8.813C26.254,37.836 28.182,36.785 30.942,35.848z" id="path_0"/><path fill="#D50000" d="M45.1,9.553c1.409,2.398 2.114,4.748 2.114,7.027c-0.614,4.334 -1.38,6.502 -2.287,6.502l-0.173,-0.172v-0.174l0.346,-2.287v-0.18c0,-1.402 -0.586,-3.51 -1.756,-6.322v-0.352C43.93,10.895 44.514,9.553 45.1,9.553z" id="path_1"/><path fill="#213e95" d="M84.35,33.26c0.735,0 2.018,0.885 3.87,2.641c0,0.584 -0.705,1.875 -2.114,3.869h-0.354c-0.727,0 -1.845,-0.705 -3.338,-2.115v-0.172C82.414,36.777 83.06,35.375 84.35,33.26z" id="path_2"/><path fill="#213e95" d="M90.68,32.383c2.926,1.26 4.395,2.258 4.395,2.992c-0.18,0.555 -0.997,1.785 -2.467,3.689c-1.957,-0.764 -3.367,-1.643 -4.215,-2.641C89.008,34.467 89.772,33.117 90.68,32.383z" id="path_3"/><path fill="#213e95" d="M82.88,57.605c-9.758,0.412 -15.008,-0.039 -15.743,-1.357c-0.742,-1.32 2.633,-1.996 10.118,-2.025c1.478,-0.031 2.415,-0.068 2.813,-0.127c5.947,-0.924 9.577,-1.92 10.897,-2.994V50.93l-1.936,-4.574v-0.697c0,-2.348 0.293,-3.518 0.878,-3.518c1.643,3.135 2.46,5.594 2.46,7.379v0.354c0,4.072 -2.047,6.42 -6.15,7.035C85.175,57.186 84.064,57.418 82.88,57.605z" id="path_4"/><path fill="#213e95" d="M93.732,20.779c0.18,-0.105 0.232,0.061 0.157,0.488c-0.997,2.34 -2.527,3.975 -4.59,4.896l-7.583,3.803c-0.322,-0.09 -0.382,-0.352 -0.18,-0.795c1.013,-1.949 1.703,-3.105 2.07,-3.473L93.732,20.779z" id="path_5"/><path fill="#008046" d="M57.215,52.752h0.683c2.317,-0.248 4.267,-1.65 5.85,-4.199c0.232,-0.525 0.466,-0.818 0.698,-0.877h0.18l0.525,0.531c-0.076,0.668 -0.188,1.141 -0.354,1.402c1.027,1.875 2.258,2.813 3.69,2.813l0.181,0.174c2.549,-5.627 5.414,-8.438 8.609,-8.438c2.55,0 4.425,1.057 5.625,3.164v1.059c0,6.441 -3.982,9.666 -11.955,9.666l-2.633,-0.172c-0.817,2.221 -1.35,3.338 -1.582,3.338l-0.173,-0.174v-0.18l0.525,-2.984v-0.354c-1.733,-0.967 -3.075,-2.316 -4.042,-4.041c-0.908,2.969 -2.851,4.402 -5.828,4.281V52.752L57.215,52.752zM70.422,52.947h0.354c3.982,0 7.379,-0.584 10.191,-1.756c0,-1.26 -1.17,-2.137 -3.51,-2.639h-0.705C73.939,48.553 71.832,50.021 70.422,52.947z" id="path_6"/><path fill="#008046" d="M76.242,30.402c0.18,-0.105 0.232,0.061 0.158,0.486c-0.998,2.342 -2.527,3.977 -4.59,4.898l-7.584,3.803c-0.322,-0.09 -0.382,-0.352 -0.18,-0.795c1.013,-1.951 1.703,-3.105 2.07,-3.473L76.242,30.402z" id="path_7"/><path fill="#D50000" d="M56.637,57.785c-3.014,-0.203 -5.752,-1.854 -8.212,-4.943h-0.18c-1.05,6.09 -3.397,9.135 -7.028,9.143h-0.531c-1.576,-0.008 -3.105,-1.41 -4.568,-4.223c-1.17,-3.951 -1.755,-6.943 -1.755,-8.963v-1.408c0,-0.879 0.173,-1.352 0.525,-1.404c0.495,0.264 1.087,2.184 1.77,5.768c0.683,3.578 2.085,5.289 4.208,5.131c4.102,-0.676 6.27,-3.021 6.502,-7.035l-1.582,-5.445v-1.936c0.061,-2.346 0.293,-3.518 0.705,-3.518c0.232,0.525 0.412,1.059 0.524,1.584l2.46,7.732c1.936,3.135 4.328,4.619 7.162,4.439V57.785z" id="path_8"/><path fill="#D50000" d="M48.35,25.221c0.322,0.555 0.698,2.137 1.125,4.746c-0.262,1.582 -0.952,2.371 -2.07,2.371h-0.149c-0.487,0 -1.117,-0.316 -1.913,-0.945c-0.539,0.953 -1.334,1.432 -2.369,1.432c-1.26,0 -1.891,-1.529 -1.891,-4.59c0.368,-1.162 0.684,-1.74 0.945,-1.74l0.15,0.158v2.699c0.217,0.938 0.487,1.402 0.795,1.402h0.637c0.66,0 1.08,-0.262 1.275,-0.787l-0.33,-2.369c0.128,-0.795 0.346,-1.215 0.638,-1.252h0.33c0.33,2.631 0.862,3.951 1.575,3.951H48.2v-0.156l-0.48,-3.158v-0.18C47.848,25.744 48.058,25.221 48.35,25.221z" id="path_9"/></svg>