<svg id="vector" xmlns="http://www.w3.org/2000/svg" width="295" height="73" viewBox="0 0 294.643 72.961"><path fill="#000001" d="M216.296,46.973h-0.652h-0.164c-1.205,0.086 -2.496,-0.709 -3.865,-2.395c-0.53,2.023 -1.541,3.025 -3.024,3.025c-1.484,0 -2.659,-0.838 -3.527,-2.516c-1.204,1.563 -2.323,2.352 -3.362,2.352h-1.34l-1.176,-0.172c0,2.494 -0.789,5.068 -2.359,7.729c-2.795,3.254 -5.706,4.873 -8.73,4.873c-5.241,0 -8.653,-2.744 -10.252,-8.229l-0.337,-3.535c0,-3.297 1.348,-6.215 4.036,-8.73c0.444,0.221 0.666,0.559 0.666,1.004c-1.899,2.637 -2.853,4.709 -2.853,6.223v0.666c0,3.699 2.129,6.215 6.388,7.563l2.688,0.338c3.972,0 7.055,-1.793 9.24,-5.377l0.166,-1.85c-1.456,-2.854 -2.187,-4.646 -2.187,-5.377v-0.502c0,-1.791 0.172,-2.688 0.509,-2.688c1.118,2.352 2.795,3.527 5.039,3.527c1.879,0 3.391,-1.176 4.539,-3.527h0.164c0.223,0 0.395,0.725 0.502,2.18c0.789,0.787 1.463,1.176 2.021,1.176h0.839c1.032,0 1.985,-1.285 2.853,-3.865l0.172,-0.164h0.166c0.222,2.057 1.117,3.211 2.688,3.463c0.48,-0.045 0.86,-0.045 1.154,-0.021V46.973z" id="path_0"/><path fill="#000001" d="M207.666,55.627c0.172,-0.094 0.223,0.057 0.15,0.465c-0.953,2.236 -2.416,3.801 -4.387,4.682l-7.248,3.635c-0.309,-0.086 -0.365,-0.338 -0.172,-0.754c0.967,-1.863 1.627,-2.967 1.979,-3.318L207.666,55.627z" id="path_1"/><path fill="#000001" d="M171.843,23.912c0.336,0 0.674,1.125 1.01,3.361l1.514,3.363l-0.674,3.863l0.502,9.412v1.506c-0.223,3.842 -0.782,6.08 -1.678,6.725l-0.166,-0.166l0.166,-2.523c0,-2.266 -0.732,-9.49 -2.188,-21.67C171.033,25.201 171.535,23.912 171.843,23.912z" id="path_2"/><path fill="#D50000" d="M158.165,48.908c0.193,0.016 0.401,0.021 0.631,0.021h1.591c1.686,-0.279 2.969,-0.867 3.864,-1.764l-2.015,-15.963c0.502,-3.025 0.953,-4.531 1.341,-4.531l2.187,5.039c0,0.781 -0.279,1.957 -0.839,3.527l0.839,9.068v2.523c-0.631,2.674 -1.477,4.545 -2.537,5.605c-0.804,0.854 -1.742,1.283 -2.84,1.283h-1.426c-0.28,0 -0.545,-0.006 -0.796,-0.021V48.908z" id="path_3"/><path fill="#D50000" d="M163.849,16.986h1.663c2.015,0 3.025,0.752 3.025,2.266c-1.305,3.527 -2.89,5.398 -4.753,5.613l-2.201,0.293c-0.352,0 -0.494,-0.1 -0.444,-0.293c1.778,-0.939 3.441,-2.059 4.983,-3.342c-0.546,-0.508 -1.148,-0.76 -1.808,-0.76h-0.466l-1.807,0.15l-0.143,-0.15v-0.293C162.752,18.148 163.405,16.986 163.849,16.986z" id="path_4"/><path fill="#000001" d="M135.554,47.354c1.376,0 2.38,0 3.025,0h0.674c2.014,-0.266 5.025,-1.125 9.032,-2.58c-1.348,-1.127 -3.419,-1.965 -6.216,-2.523c-1.655,0 -2.773,0.781 -3.361,2.352c-0.208,0.465 -0.395,0.586 -0.56,0.365c-0.157,-0.217 -0.2,-0.502 -0.114,-0.867c1.01,-3.393 2.352,-5.084 4.035,-5.084h1.176c1.119,0 3.141,0.631 6.059,1.893c2.917,1.256 5.434,1.764 7.548,1.514c0.266,0 0.38,0.164 0.337,0.502c-0.451,2.795 -1.29,4.201 -2.523,4.201l-0.839,0.164v0.336c0.423,1.162 2.358,1.586 5.821,1.262v4.768c-5.011,0.266 -7.513,-1.684 -7.498,-5.855c-1.793,0.264 -4.223,1.096 -7.291,2.508c-3.068,1.406 -6.165,2.008 -9.305,1.814V47.354z" id="path_5"/><path fill="#000001" d="M143.934,52.795c2.352,1.176 3.534,2.186 3.534,3.025c-1.125,2.207 -1.792,3.332 -2.021,3.354h-0.337c-1.721,-0.867 -2.781,-1.648 -3.19,-2.35C142.314,55.555 142.988,54.207 143.934,52.795z" id="path_6"/><path fill="#000001" d="M153.382,25.072c0.172,-0.1 0.223,0.059 0.15,0.467c-0.953,2.236 -2.416,3.799 -4.387,4.682l-7.248,3.635c-0.309,-0.086 -0.365,-0.338 -0.172,-0.76c0.968,-1.865 1.627,-2.969 1.979,-3.32L153.382,25.072z" id="path_7"/><path fill="#213e95" d="M135.977,52.143l-1.894,-0.021c-1.046,4.609 -3.82,6.939 -8.314,6.996c-2.41,0.107 -3.613,0.064 -3.613,-0.129c0.222,-0.422 1.835,-1.232 4.831,-2.438c3.083,-1.957 4.939,-3.219 5.585,-3.777l0.172,-0.502l-2.939,-0.467c-2.144,-0.559 -3.348,-1.635 -3.613,-3.232v-0.338c0,-2.717 0.667,-4.451 2.016,-5.211l1.01,-0.164c1.986,0 3.605,1.383 4.867,4.156c0.804,0.279 1.435,0.416 1.894,0.402V52.143z" id="path_8"/><path fill="#213e95" d="M134.564,29.396c0.173,-0.102 0.223,0.057 0.151,0.465c-0.954,2.236 -2.416,3.799 -4.388,4.682l-7.248,3.635c-0.308,-0.086 -0.365,-0.338 -0.172,-0.76c0.968,-1.865 1.628,-2.969 1.979,-3.32L134.564,29.396z" id="path_9"/><path fill="#000001" d="M116.621,23.912c0.338,0 0.674,1.125 1.011,3.361l1.513,3.363L118.47,34.5l0.502,9.412v1.506c-0.223,3.842 -0.781,6.08 -1.678,6.725l-0.164,-0.166l0.164,-2.523c0,-2.266 -0.73,-9.49 -2.186,-21.67C115.811,25.201 116.312,23.912 116.621,23.912z" id="path_10"/><path fill="#000001" d="M108.484,42.859c1.004,1.01 1.957,3.189 2.854,6.551l0.172,2.188c0,3.949 -1.965,6.639 -5.886,8.064l-1.176,0.164l-2.981,0.043l-2.896,-0.043l-0.165,-0.164V59.49c0.358,-0.387 2.767,-1.563 7.219,-3.527c2.804,-1.592 4.315,-2.996 4.538,-4.201c-1.455,-3.104 -2.18,-4.896 -2.18,-5.377v-0.5C107.982,43.869 108.147,42.859 108.484,42.859z" id="path_11"/><path fill="#000001" d="M113.459,60.496c0.172,-0.094 0.222,0.057 0.15,0.465c-0.954,2.236 -2.416,3.801 -4.388,4.682l-7.248,3.635c-0.308,-0.086 -0.365,-0.338 -0.172,-0.752c0.969,-1.865 1.628,-2.969 1.979,-3.32L113.459,60.496z" id="path_12"/><path fill="#D50000" d="M96.583,23.912c0.337,0 0.674,1.125 1.011,3.361l1.513,3.363L98.433,34.5l0.502,9.412v1.506c-0.223,3.842 -0.781,6.08 -1.678,6.725l-0.164,-0.166l0.164,-2.523c0,-2.266 -0.73,-9.49 -2.187,-21.67C95.773,25.201 96.275,23.912 96.583,23.912z" id="path_13"/><path fill="#000001" d="M80.611,42.564c0.193,0.014 0.402,0.021 0.631,0.021h1.592c1.686,-0.279 2.969,-0.867 3.864,-1.764l-2.015,-15.965c0.502,-3.025 0.953,-4.531 1.341,-4.531l2.187,5.041c0,0.781 -0.279,1.957 -0.839,3.527l0.839,9.068v2.523c-0.631,2.674 -1.477,4.545 -2.538,5.605c-0.803,0.854 -1.741,1.283 -2.839,1.283h-1.426c-0.28,0 -0.545,-0.008 -0.797,-0.021V42.564z" id="path_14"/><path fill="#000001" d="M86.296,10.643h1.663c2.015,0 3.024,0.752 3.024,2.266c-1.304,3.525 -2.889,5.396 -4.752,5.613l-2.201,0.293c-0.352,0 -0.494,-0.1 -0.444,-0.293c1.778,-0.939 3.44,-2.059 4.982,-3.342c-0.545,-0.51 -1.147,-0.76 -1.807,-0.76h-0.466l-1.807,0.15l-0.144,-0.15v-0.293C85.199,11.803 85.852,10.643 86.296,10.643z" id="path_15"/><path fill="#D50000" d="M65.127,41.805c1.971,-0.445 3.19,-1.275 3.656,-2.48c0.193,-0.666 0.251,-1.227 0.165,-1.678c-2.767,-5.863 -4.158,-9.305 -4.158,-10.309c-0.136,-1.742 0.029,-3.369 0.509,-4.896c0.473,-1.527 1.254,-2.58 2.352,-3.168l13.269,-8.064c0.337,0.078 -0.1,1.254 -1.298,3.512c-1.204,2.266 -1.942,3.449 -2.208,3.549c-0.266,0.107 -0.444,-0.287 -0.523,-1.184c-5.183,3.277 -8.28,5.27 -9.283,5.986c-1.011,0.717 -1.613,1.348 -1.807,1.908c1.57,4.258 3.735,8.738 6.509,13.441c1.985,2.717 4.789,4.078 8.402,4.078c0.236,0 0.537,0 0.902,0v4.811l-0.566,0.021c-4.903,0 -8.488,-2.408 -10.753,-7.227c-0.144,-0.293 -0.251,-0.352 -0.337,-0.172c-0.911,3.842 -2.523,6.029 -4.832,6.574c-0.81,0.258 -1.642,0.4 -2.502,0.443v-4.809C63.564,42.07 64.396,41.963 65.127,41.805z" id="path_16"/><path fill="#D50000" d="M72.561,3.789c1.721,0 2.581,1.061 2.581,3.176c0,3.369 -2.875,6.244 -8.631,8.609c-0.824,0.25 -0.925,-0.051 -0.294,-0.904c0.158,-0.322 1.513,-1.332 4.072,-3.025v-0.143c-1.104,-0.451 -1.656,-1.412 -1.656,-2.881c0.731,-3.219 1.893,-4.832 3.484,-4.832H72.561L72.561,3.789zM69.994,7.424c0,0.895 0.76,1.447 2.272,1.662h0.294c0.56,0 0.918,-0.207 1.068,-0.609c0,-0.91 -0.659,-1.619 -1.972,-2.121C71.084,6.355 70.532,6.713 69.994,7.424z" id="path_17"/><path fill="#e21171" d="M51.241,24.377c2.574,1.061 3.864,1.957 3.864,2.689l-2.186,3.354h-0.165c-0.48,0 -1.764,-0.666 -3.864,-2.014C49.921,25.719 50.71,24.377 51.241,24.377z" id="path_18"/><path fill="#e21171" d="M46.868,42.164h1.097c2.18,-0.18 3.807,-1.047 4.868,-2.604l0.172,-0.508l-0.502,-2.518c0.107,-2.688 0.387,-4.035 0.839,-4.035c1.34,4.73 2.631,7.619 3.864,8.652c1.061,0.602 2.517,0.932 4.366,0.99c0.495,0 0.954,0 1.391,0v4.809c-0.552,0 -1.126,0 -1.728,0h-0.165c-3.219,0 -5.685,-1.791 -7.391,-5.375V41.41l-1.513,3.018c-1.147,1.699 -2.832,2.539 -5.04,2.523h-0.258V42.164z" id="path_19"/><path fill="#e21171" d="M54.932,12.951c0.309,0.529 0.667,2.043 1.076,4.537c-0.251,1.512 -0.911,2.266 -1.979,2.266h-0.144c-0.466,0 -1.068,-0.301 -1.828,-0.904c-0.516,0.91 -1.276,1.369 -2.265,1.369c-1.205,0 -1.807,-1.461 -1.807,-4.387c0.351,-1.111 0.652,-1.662 0.903,-1.662l0.144,0.15v2.58c0.208,0.896 0.466,1.34 0.76,1.34h0.609c0.631,0 1.032,-0.25 1.218,-0.752l-0.315,-2.266c0.122,-0.76 0.33,-1.162 0.609,-1.197h0.315c0.315,2.516 0.824,3.777 1.505,3.777h1.054v-0.15l-0.459,-3.018v-0.172C54.452,13.453 54.653,12.951 54.932,12.951z" id="path_20"/><path fill="#e21171" d="M57.79,3.711c0.172,-0.102 0.222,0.057 0.15,0.465c-0.953,2.236 -2.416,3.799 -4.387,4.682l-7.248,3.635c-0.308,-0.086 -0.366,-0.338 -0.172,-0.76c0.967,-1.865 1.627,-2.969 1.979,-3.32L57.79,3.711z" id="path_21"/><path fill="#000001" d="M47.692,46.973H47.04h-0.165c-1.205,0.086 -2.495,-0.709 -3.864,-2.395c-0.53,2.023 -1.541,3.025 -3.025,3.025s-2.66,-0.838 -3.527,-2.516c-1.204,1.563 -2.323,2.352 -3.362,2.352h-1.341l-1.175,-0.172c0,2.494 -0.789,5.068 -2.359,7.729c-2.796,3.254 -5.707,4.873 -8.731,4.873c-5.24,0 -8.653,-2.744 -10.251,-8.229l-0.337,-3.535c0,-3.297 1.348,-6.215 4.036,-8.73c0.444,0.221 0.667,0.559 0.667,1.004c-1.9,2.637 -2.853,4.709 -2.853,6.223v0.666c0,3.699 2.129,6.215 6.387,7.563l2.688,0.338c3.972,0 7.055,-1.793 9.241,-5.377l0.165,-1.85c-1.455,-2.854 -2.186,-4.646 -2.186,-5.377v-0.502c0,-1.791 0.172,-2.688 0.509,-2.688c1.118,2.352 2.795,3.527 5.04,3.527c1.878,0 3.391,-1.176 4.538,-3.527h0.165c0.222,0 0.395,0.725 0.502,2.18c0.789,0.787 1.462,1.176 2.021,1.176h0.839c1.032,0 1.986,-1.285 2.853,-3.865l0.172,-0.164h0.165c0.222,2.057 1.119,3.211 2.688,3.463c0.48,-0.045 0.86,-0.045 1.154,-0.021V46.973z" id="path_22"/><path fill="#000001" d="M39.061,55.627c0.172,-0.094 0.222,0.057 0.151,0.465c-0.954,2.236 -2.416,3.801 -4.387,4.682l-7.248,3.635c-0.308,-0.086 -0.365,-0.338 -0.172,-0.754c0.968,-1.863 1.627,-2.967 1.979,-3.318L39.061,55.627z" id="path_23"/><path fill="#000001" d="M278.507,54.723c0.574,0 1.914,0.674 4.029,2.021c0,0.84 -0.667,2.18 -2.015,4.029c-2.688,-0.867 -4.028,-1.648 -4.028,-2.352C276.558,57.791 277.232,56.559 278.507,54.723z" id="path_24"/><path fill="#000001" d="M274.471,47.354c4.401,0.043 6.86,-0.781 7.398,-2.48c0,-0.588 -0.56,-2.043 -1.685,-4.365l0.509,-4.367h0.33c1.462,2.518 2.187,5.041 2.187,7.557v1.512c0,1.012 -0.244,2.072 -0.725,3.184s-1.226,2.051 -2.223,2.803c-1.003,0.76 -2.932,1.076 -5.792,0.947V47.354z" id="path_25"/><path fill="#000001" d="M285.559,60.498c0.172,-0.094 0.222,0.059 0.15,0.467c-0.954,2.236 -2.416,3.799 -4.388,4.68l-7.247,3.635c-0.308,-0.086 -0.366,-0.336 -0.173,-0.752c0.969,-1.863 1.628,-2.969 1.979,-3.318L285.559,60.498z" id="path_26"/><path fill="#D50000" d="M274.83,52.143c-3.262,0.193 -5.635,-1.313 -7.118,-4.518c-0.717,-1.189 -1.384,-9.211 -2.015,-24.064v-0.338c0.416,-2.465 1.033,-3.699 1.843,-3.699l0.846,-0.164c1.032,0 2.603,0.338 4.702,1.004v0.336c-0.113,0.338 -0.451,0.51 -1.01,0.51h-2.854c-0.588,0 -1.146,0.33 -1.685,1.004c0.523,12.896 1.282,20.365 2.294,22.408c1.004,2.045 2.674,2.955 4.996,2.732V52.143z" id="path_27"/><path fill="#213e95" d="M252.994,43.719c0.193,0.014 0.402,0.021 0.631,0.021h1.592c1.685,-0.279 2.968,-0.867 3.863,-1.764l-2.014,-15.965c0.502,-3.025 0.953,-4.531 1.34,-4.531l2.188,5.041c0,0.781 -0.28,1.957 -0.84,3.527l0.84,9.068v2.523c-0.631,2.674 -1.477,4.545 -2.538,5.605c-0.804,0.854 -1.742,1.283 -2.839,1.283h-1.427c-0.28,0 -0.545,-0.008 -0.796,-0.021V43.719z" id="path_28"/><path fill="#213e95" d="M259.732,11.797h1.664c2.014,0 3.025,0.752 3.025,2.266c-1.305,3.525 -2.89,5.398 -4.754,5.613l-2.201,0.293c-0.351,0 -0.494,-0.1 -0.443,-0.293c1.777,-0.939 3.441,-2.059 4.982,-3.342c-0.545,-0.51 -1.147,-0.76 -1.807,-0.76h-0.467l-1.807,0.15l-0.143,-0.15v-0.293C258.636,12.957 259.289,11.797 259.732,11.797z" id="path_29"/><path fill="#008046" d="M231.437,42.164c1.377,0 2.381,0 3.025,0h0.674c2.014,-0.266 5.025,-1.127 9.033,-2.582c-1.348,-1.125 -3.42,-1.965 -6.216,-2.523c-1.656,0 -2.774,0.781 -3.362,2.352c-0.208,0.467 -0.395,0.588 -0.559,0.365c-0.158,-0.215 -0.201,-0.502 -0.115,-0.867c1.011,-3.391 2.352,-5.082 4.036,-5.082h1.176c1.118,0 3.14,0.631 6.058,1.893c2.918,1.254 5.434,1.764 7.549,1.512c0.266,0 0.379,0.166 0.336,0.502c-0.451,2.797 -1.289,4.201 -2.522,4.201L249.71,42.1v0.336c0.423,0.883 2.358,1.305 5.821,1.262v4.768c-5.011,0.266 -7.513,-1.686 -7.499,-5.857c-1.792,0.266 -4.223,1.098 -7.291,2.51c-3.068,1.404 -6.164,2.008 -9.305,1.813V42.164z" id="path_30"/><path fill="#008046" d="M239.818,24.836c2.352,1.176 3.534,2.188 3.534,3.025c-1.126,2.209 -1.792,3.334 -2.022,3.361h-0.336c-1.721,-0.867 -2.781,-1.654 -3.19,-2.352C238.197,27.596 238.871,26.248 239.818,24.836z" id="path_31"/><path fill="#008046" d="M241.732,11.23c1.72,0 2.58,1.061 2.58,3.176c0,3.369 -2.875,6.244 -8.631,8.609c-0.824,0.25 -0.925,-0.051 -0.294,-0.904c0.157,-0.322 1.513,-1.332 4.071,-3.025v-0.143c-1.104,-0.451 -1.655,-1.412 -1.655,-2.883c0.731,-3.219 1.893,-4.83 3.483,-4.83H241.732L241.732,11.23zM239.166,14.865c0,0.895 0.76,1.447 2.271,1.662h0.295c0.559,0 0.917,-0.207 1.068,-0.609c0,-0.91 -0.66,-1.619 -1.973,-2.121C240.255,13.797 239.703,14.154 239.166,14.865z" id="path_32"/><path fill="#e21171" d="M219.845,24.377c2.574,1.061 3.863,1.957 3.863,2.689l-2.186,3.354h-0.165c-0.48,0 -1.764,-0.666 -3.864,-2.014C218.526,25.719 219.315,24.377 219.845,24.377z" id="path_33"/><path fill="#e21171" d="M215.472,42.164h1.097c2.179,-0.18 3.807,-1.047 4.868,-2.604l0.172,-0.508l-0.502,-2.518c0.107,-2.688 0.387,-4.035 0.839,-4.035c1.341,4.73 2.631,7.619 3.864,8.652c1.061,0.602 2.516,0.932 4.365,0.99c0.495,0 0.953,0 1.391,0v4.809c-0.552,0 -1.125,0 -1.728,0h-0.165c-3.219,0 -5.685,-1.791 -7.391,-5.375V41.41l-1.513,3.018c-1.147,1.699 -2.831,2.539 -5.04,2.523h-0.258V42.164z" id="path_34"/><path fill="#e21171" d="M223.537,12.951c0.309,0.529 0.667,2.043 1.076,4.537c-0.252,1.512 -0.911,2.266 -1.979,2.266h-0.145c-0.465,0 -1.068,-0.301 -1.828,-0.904c-0.516,0.91 -1.275,1.369 -2.266,1.369c-1.203,0 -1.806,-1.461 -1.806,-4.387c0.351,-1.111 0.652,-1.662 0.903,-1.662l0.144,0.15v2.58c0.208,0.896 0.466,1.34 0.759,1.34h0.61c0.631,0 1.032,-0.25 1.218,-0.752l-0.314,-2.266c0.121,-0.76 0.33,-1.162 0.609,-1.197h0.314c0.316,2.516 0.825,3.777 1.506,3.777h1.055v-0.15l-0.459,-3.018v-0.172C223.056,13.453 223.257,12.951 223.537,12.951z" id="path_35"/><path fill="#e21171" d="M226.394,3.711c0.173,-0.102 0.223,0.057 0.15,0.465c-0.953,2.236 -2.415,3.799 -4.387,4.682l-7.248,3.635c-0.308,-0.086 -0.365,-0.338 -0.172,-0.76c0.968,-1.865 1.627,-2.969 1.979,-3.32L226.394,3.711z" id="path_36"/></svg>