<svg id="vector" xmlns="http://www.w3.org/2000/svg" width="102" height="73" viewBox="0 0 102 73"><path fill="#D50000" d="M62.979,50.476c0.256,0.03 0.503,-0.104 0.75,-0.397c-0.465,-0.569 -0.705,-1.162 -0.705,-1.777v-1.582c0.563,-5.152 2.61,-7.732 6.158,-7.732c1.785,0 3.72,0.938 5.797,2.813c0.766,0.292 1.17,0.585 1.23,0.877v0.173c0,0.27 -0.293,0.442 -0.877,0.532c0,-0.502 -1.523,-0.907 -4.568,-1.229H70.06c-3.285,0.495 -4.92,1.372 -4.92,2.633c0,1.731 1.695,3.021 5.093,3.869l1.229,0.173c0.443,0 2.67,-1.11 6.684,-3.338h0.172l0.353,0.353c0,2.431 -2.692,5.07 -8.085,7.913c-3.84,1.17 -6.18,1.755 -7.027,1.755c-0.195,0 -0.383,-0.008 -0.578,-0.022V50.476z" id="path_0"/><path fill="#D50000" d="M75.573,24.129c0.18,-0.105 0.232,0.06 0.156,0.487c-0.997,2.34 -2.527,3.975 -4.59,4.897l-7.582,3.802c-0.322,-0.09 -0.383,-0.352 -0.18,-0.794c1.012,-1.951 1.702,-3.105 2.069,-3.473L75.573,24.129z" id="path_1"/><path fill="#213e95" d="M63.813,55.532c-3.015,-0.203 -5.753,-1.853 -8.212,-4.942H55.42c-1.05,6.09 -3.397,9.135 -7.027,9.143H47.86c-1.575,-0.008 -3.105,-1.41 -4.568,-4.223c-1.17,-3.953 -1.754,-6.945 -1.754,-8.963v-1.41c0,-0.877 0.172,-1.35 0.524,-1.402c0.495,0.263 1.087,2.183 1.771,5.768c0.682,3.577 2.084,5.287 4.207,5.13c4.103,-0.675 6.27,-3.022 6.502,-7.035l-1.582,-5.444v-1.936c0.061,-2.348 0.293,-3.518 0.705,-3.518c0.232,0.525 0.412,1.058 0.525,1.583l2.459,7.732c1.936,3.135 4.328,4.62 7.163,4.439V55.532z" id="path_2"/><path fill="#213e95" d="M55.524,22.966c0.323,0.555 0.698,2.138 1.126,4.748c-0.263,1.583 -0.953,2.37 -2.07,2.37h-0.149c-0.488,0 -1.118,-0.315 -1.913,-0.945c-0.54,0.953 -1.335,1.432 -2.37,1.432c-1.26,0 -1.89,-1.53 -1.89,-4.59c0.367,-1.163 0.683,-1.74 0.944,-1.74l0.15,0.157v2.7c0.218,0.938 0.488,1.402 0.795,1.402h0.638c0.66,0 1.079,-0.263 1.274,-0.788l-0.33,-2.37c0.128,-0.795 0.346,-1.215 0.639,-1.252h0.33c0.329,2.633 0.861,3.953 1.574,3.953h1.103v-0.157l-0.479,-3.158v-0.18C55.022,23.491 55.232,22.966 55.524,22.966z" id="path_3"/><path fill="#213e95" d="M58.188,13.299c0.181,-0.105 0.232,0.06 0.157,0.487c-0.997,2.34 -2.527,3.975 -4.59,4.897l-7.582,3.803c-0.322,-0.09 -0.383,-0.353 -0.18,-0.795c1.012,-1.95 1.701,-3.105 2.069,-3.473L58.188,13.299z" id="path_4"/><path fill="#000001" d="M28.705,38.987c5.978,2.138 8.962,4.777 8.962,7.912l0.18,1.05c-0.502,4.103 -1.852,6.15 -4.049,6.15c0,0.383 -2.926,0.854 -8.783,1.41l-0.18,-0.525c0,-2.933 0.525,-4.395 1.582,-4.395c5.857,-0.473 9.083,-1.178 9.668,-2.115c-2.018,-1.958 -4.658,-3.54 -7.912,-4.74L28,42.849C28.09,40.277 28.322,38.987 28.705,38.987z" id="path_5"/><path fill="#000001" d="M35.643,26.702c0.181,-0.105 0.232,0.06 0.157,0.487c-0.998,2.34 -2.527,3.975 -4.59,4.897l-7.582,3.803c-0.322,-0.09 -0.383,-0.353 -0.181,-0.795c1.013,-1.95 1.702,-3.105 2.07,-3.473L35.643,26.702z" id="path_6"/></svg>