<svg id="vector" xmlns="http://www.w3.org/2000/svg" width="102" height="73" viewBox="0 0 102 73"><path fill="#213e95" d="M59.853,52.025c0.202,0.014 0.42,0.021 0.66,0.021h1.665c1.762,-0.291 3.104,-0.906 4.042,-1.844L64.112,33.5c0.525,-3.164 0.997,-4.74 1.402,-4.74l2.288,5.273c0,0.816 -0.293,2.047 -0.878,3.689l0.878,9.488v2.639c-0.66,2.799 -1.545,4.756 -2.655,5.865c-0.84,0.893 -1.822,1.342 -2.97,1.342h-1.493c-0.292,0 -0.569,-0.006 -0.832,-0.021V52.025z" id="path_0"/><path fill="#213e95" d="M71.8,58.551c0.181,-0.098 0.232,0.059 0.157,0.486c-0.997,2.34 -2.527,3.975 -4.59,4.898l-7.582,3.803c-0.322,-0.09 -0.383,-0.354 -0.181,-0.787c1.013,-1.951 1.703,-3.105 2.07,-3.473L71.8,58.551z" id="path_1"/><path fill="#D50000" d="M47.154,52.047c0.03,0 0.068,0 0.105,0c2.813,-0.172 4.425,-1.432 4.838,-3.779C51.04,41.24 50.515,36.313 50.515,33.5c0,-1.08 0.473,-2.49 1.41,-4.215l0.173,0.172l0.353,0.354l-0.181,1.23c0.15,7.896 1.147,14.018 2.993,18.367c0.705,1.582 2.43,2.467 5.183,2.639v5.01c-3.78,-0.059 -6.323,-2.047 -7.643,-5.977h-0.181c-1.215,3.938 -3.037,5.932 -5.468,5.977V52.047z" id="path_2"/><path fill="#D50000" d="M54.819,19.221c0.323,0.555 0.698,2.137 1.125,4.746c-0.262,1.584 -0.952,2.371 -2.069,2.371h-0.15c-0.487,0 -1.117,-0.314 -1.912,-0.945c-0.54,0.953 -1.335,1.434 -2.37,1.434c-1.261,0 -1.89,-1.531 -1.89,-4.592c0.367,-1.162 0.682,-1.738 0.944,-1.738l0.15,0.156v2.701c0.217,0.938 0.487,1.402 0.795,1.402h0.637c0.661,0 1.08,-0.264 1.275,-0.789l-0.33,-2.369c0.128,-0.795 0.346,-1.215 0.638,-1.252h0.33c0.33,2.633 0.862,3.951 1.575,3.951h1.103v-0.156l-0.48,-3.158v-0.18C54.317,19.746 54.527,19.221 54.819,19.221z" id="path_3"/><path fill="#000001" d="M47.635,57.057H47.59c-3.368,0 -5.655,-1.641 -6.855,-4.92l-0.353,-1.408h-0.353c-0.262,0.936 -2.138,1.521 -5.625,1.762h-0.877c-2.348,0 -3.518,-0.705 -3.518,-2.115v-1.582c0,-1.695 1.29,-3.803 3.87,-6.322c1.553,-1.178 3.308,-2.168 5.272,-2.992l-0.181,-0.525c0.646,-2.934 1.178,-4.396 1.583,-4.396c0.21,0.496 0.503,4.133 0.885,10.898c0.525,4.561 2.588,6.773 6.195,6.66V57.057L47.635,57.057zM32.117,46.865c0.675,0.465 1.793,0.697 3.345,0.697c1.522,-0.113 2.926,-0.404 4.215,-0.877l-0.353,-4.92h-0.172C34.465,43.992 32.117,45.688 32.117,46.865z" id="path_4"/><path fill="#000001" d="M42.558,58.617c0.18,-0.098 0.232,0.061 0.157,0.488c-0.998,2.34 -2.527,3.975 -4.59,4.896l-7.583,3.803c-0.322,-0.09 -0.382,-0.352 -0.18,-0.787c1.013,-1.949 1.702,-3.105 2.07,-3.473L42.558,58.617z" id="path_5"/><path fill="#D50000" d="M49.634,5.195c1.41,2.398 2.115,4.746 2.115,7.027c-0.615,4.334 -1.38,6.502 -2.288,6.502l-0.172,-0.172v-0.174l0.345,-2.287v-0.18c0,-1.402 -0.585,-3.51 -1.755,-6.322V9.236C48.464,6.537 49.049,5.195 49.634,5.195z" id="path_6"/></svg>