<svg id="vector" xmlns="http://www.w3.org/2000/svg" width="102" height="73" viewBox="0 0 102 73"><path fill="#000001" d="M85.135,42.503c1.346,-0.169 2.016,-0.431 2.016,-0.786c0,-2.711 0.822,-5.986 2.461,-9.834c0.227,-0.501 0.455,-0.547 0.682,-0.14c0.594,1.276 1.637,2.326 3.141,3.142c3.102,1.504 4.646,3.556 4.646,6.149c0,2.71 -0.588,4.261 -1.777,4.646l-1.365,0.134l-5.193,-0.273c-1.445,0.617 -2.979,0.903 -4.609,0.856V42.503L85.135,42.503zM92.893,41.856l3.41,0.134l0.547,-0.134c-0.84,-1.166 -1.934,-2.075 -3.275,-2.733C93.324,39.123 93.096,40.031 92.893,41.856L92.893,41.856zM88.381,40.078c0,0.863 0.682,1.411 2.053,1.639c1.182,-0.659 1.771,-1.341 1.771,-2.047c-0.408,-1.644 -1.09,-2.459 -2.047,-2.459C89.18,37.211 88.586,38.167 88.381,40.078z" id="path_0"/><path fill="#000001" d="M91.814,19.142c1.398,0 2.098,0.862 2.098,2.582c0,2.74 -2.338,5.077 -7.018,7.001c-0.67,0.204 -0.752,-0.041 -0.238,-0.734c0.127,-0.263 1.229,-1.084 3.311,-2.46v-0.117c-0.898,-0.367 -1.348,-1.148 -1.348,-2.343c0.596,-2.617 1.539,-3.929 2.834,-3.929H91.814L91.814,19.142zM89.727,22.098c0,0.729 0.619,1.177 1.848,1.352h0.24c0.455,0 0.746,-0.169 0.867,-0.495c0,-0.74 -0.535,-1.317 -1.602,-1.726C90.613,21.229 90.164,21.52 89.727,22.098z" id="path_1"/><path fill="#D50000" d="M85.205,46.396c-0.146,0 -0.303,0 -0.461,0h-0.135c-1.322,-0.012 -2.6,-0.244 -3.828,-0.699c-1.318,2.279 -3.049,3.416 -5.188,3.416c-2.555,-0.367 -3.83,-1.411 -3.83,-3.142h-0.135c-0.432,1.457 -1.387,2.64 -2.867,3.549c-1.982,0.729 -3.531,1.097 -4.645,1.097l-0.631,0.081v-0.274c0.508,-0.419 1.883,-1.393 4.121,-2.92c2.238,-1.521 3.51,-2.477 3.807,-2.867c0.303,-0.385 0.74,-1.673 1.311,-3.859c1.09,-1.818 2.094,-2.733 3.002,-2.733H76c1.137,0 2.963,1.23 5.469,3.689c0.729,0.618 1.969,0.892 3.736,0.822V46.396L85.205,46.396zM73.408,42.689c0,1.207 0.955,2.028 2.867,2.46h0.682c1.551,-0.157 2.326,-0.385 2.326,-0.682c-1.803,-1.731 -3.166,-2.594 -4.104,-2.594h-0.135C74.27,41.874 73.723,42.147 73.408,42.689z" id="path_2"/><path fill="#D50000" d="M75.307,24.317c1.4,0 2.1,0.863 2.1,2.583c0,2.739 -2.338,5.076 -7.018,7c-0.672,0.204 -0.752,-0.041 -0.24,-0.734c0.129,-0.263 1.23,-1.084 3.311,-2.46v-0.117c-0.896,-0.367 -1.346,-1.147 -1.346,-2.343c0.594,-2.617 1.539,-3.929 2.832,-3.929H75.307L75.307,24.317zM73.221,27.272c0,0.729 0.617,1.178 1.848,1.353h0.238c0.455,0 0.746,-0.169 0.869,-0.495c0,-0.74 -0.537,-1.317 -1.604,-1.726C74.107,26.404 73.658,26.695 73.221,27.272z" id="path_3"/><path fill="#000001" d="M63.322,23.443c0.273,0 0.547,0.915 0.82,2.733l1.23,2.733l-0.547,3.142l0.406,7.653v1.225c-0.18,3.124 -0.635,4.942 -1.363,5.467l-0.133,-0.134l0.133,-2.052c0,-1.842 -0.594,-7.717 -1.777,-17.62C62.662,24.493 63.07,23.443 63.322,23.443z" id="path_4"/><path fill="#000001" d="M52.467,42.485c0.158,0.012 0.326,0.018 0.514,0.018h1.295c1.369,-0.227 2.412,-0.705 3.141,-1.434l-1.639,-12.98c0.408,-2.46 0.775,-3.684 1.092,-3.684l1.777,4.098c0,0.635 -0.229,1.591 -0.682,2.867l0.682,7.373v2.052c-0.514,2.174 -1.201,3.695 -2.064,4.559c-0.652,0.693 -1.416,1.043 -2.307,1.043h-1.16c-0.229,0 -0.443,-0.006 -0.648,-0.018V42.485z" id="path_5"/><path fill="#000001" d="M55.889,16.53h1.354c1.637,0 2.459,0.612 2.459,1.842c-1.061,2.868 -2.348,4.39 -3.863,4.564l-1.791,0.238c-0.285,0 -0.4,-0.081 -0.359,-0.238c1.445,-0.764 2.797,-1.673 4.051,-2.717c-0.443,-0.413 -0.934,-0.617 -1.469,-0.617h-0.381l-1.467,0.122l-0.117,-0.122v-0.239C54.998,17.475 55.529,16.53 55.889,16.53z" id="path_6"/><path fill="#D50000" d="M46.574,47.9c0.467,0 1.563,0.548 3.281,1.638c0,0.683 -0.547,1.778 -1.643,3.282c-2.186,-0.712 -3.275,-1.347 -3.275,-1.918C44.996,50.396 45.537,49.393 46.574,47.9z" id="path_7"/><path fill="#D50000" d="M41.604,42.503c0.973,0.012 1.574,-0.006 1.813,-0.052c2.051,-0.624 3.449,-1.953 4.201,-3.976c0.111,-0.391 0.34,-0.438 0.684,-0.14c0.18,0.157 0.32,0.798 0.408,1.911c1.24,1.673 2.791,2.425 4.645,2.256h0.361v3.894h-0.088c-2.902,-0.134 -5.041,-1.457 -6.422,-3.963H47.07c-0.967,2.04 -2.244,3.293 -3.824,3.759c-0.477,0.134 -1.025,0.204 -1.643,0.204V42.503z" id="path_8"/><path fill="#D50000" d="M51.797,25.903c0.141,-0.082 0.182,0.046 0.123,0.379c-0.775,1.818 -1.965,3.089 -3.566,3.806l-5.895,2.955c-0.25,-0.069 -0.297,-0.273 -0.139,-0.617c0.787,-1.516 1.322,-2.413 1.607,-2.699L51.797,25.903z" id="path_9"/><path fill="#000001" d="M37.967,47.353c1.416,0.571 2.459,1.207 3.146,1.912v0.14c-0.752,1.999 -1.346,3.002 -1.777,3.002c-0.344,0 -1.434,-0.548 -3.281,-1.638l-1.23,2.319c-2.367,-0.862 -3.549,-1.498 -3.549,-1.911c0.5,-1.866 1.002,-2.962 1.502,-3.276c0.385,0 1.568,0.589 3.551,1.778C37.08,48.128 37.627,47.353 37.967,47.353z" id="path_10"/><path fill="#000001" d="M28.744,42.503h0.893c1.771,-0.146 3.094,-0.851 3.957,-2.116l0.141,-0.413l-0.408,-2.046c0.088,-2.186 0.314,-3.281 0.682,-3.281c1.09,3.847 2.139,6.195 3.143,7.035c0.861,0.489 2.045,0.758 3.549,0.804c0.402,0 0.775,0 1.131,0v3.911c-0.449,0 -0.914,0 -1.404,0h-0.135c-2.617,0 -4.621,-1.457 -6.01,-4.371v-0.134l-1.229,2.454c-0.934,1.381 -2.303,2.063 -4.098,2.051h-0.211V42.503z" id="path_11"/><path fill="#000001" d="M37.08,23.513c0.25,0.432 0.541,1.662 0.873,3.689c-0.203,1.23 -0.74,1.843 -1.607,1.843h-0.117c-0.379,0 -0.869,-0.245 -1.486,-0.734c-0.42,0.74 -1.037,1.113 -1.842,1.113c-0.979,0 -1.469,-1.189 -1.469,-3.567c0.285,-0.903 0.531,-1.353 0.734,-1.353l0.117,0.123v2.098c0.168,0.729 0.379,1.09 0.617,1.09h0.496c0.512,0 0.838,-0.204 0.99,-0.612l-0.256,-1.842c0.1,-0.617 0.268,-0.944 0.494,-0.973h0.258c0.256,2.046 0.67,3.071 1.223,3.071h0.857v-0.122l-0.373,-2.454v-0.14C36.689,23.921 36.852,23.513 37.08,23.513z" id="path_12"/><path fill="#000001" d="M40.629,54.062c0.141,-0.076 0.182,0.047 0.123,0.379c-0.775,1.818 -1.965,3.089 -3.566,3.806l-5.893,2.956c-0.252,-0.07 -0.299,-0.274 -0.141,-0.612c0.787,-1.516 1.322,-2.413 1.609,-2.699L40.629,54.062z" id="path_13"/><path fill="#D50000" d="M22.246,30.857c0.467,0 1.563,0.548 3.281,1.638c0,0.682 -0.547,1.778 -1.645,3.282c-2.186,-0.706 -3.275,-1.347 -3.275,-1.912C20.666,33.353 21.209,32.35 22.246,30.857z" id="path_14"/><path fill="#D50000" d="M17.273,42.503c0.975,0.012 1.574,-0.006 1.814,-0.052c2.051,-0.624 3.449,-1.953 4.201,-3.976c0.111,-0.391 0.338,-0.438 0.682,-0.14c0.182,0.157 0.32,0.798 0.408,1.911c1.242,1.673 2.793,2.425 4.646,2.256h0.361v3.894h-0.088c-2.902,-0.134 -5.043,-1.457 -6.424,-3.963h-0.133c-0.969,2.04 -2.244,3.293 -3.824,3.759c-0.479,0.134 -1.025,0.204 -1.645,0.204V42.503z" id="path_15"/><path fill="#D50000" d="M27.725,21.397c0.141,-0.081 0.182,0.047 0.123,0.379c-0.775,1.818 -1.965,3.089 -3.568,3.807l-5.893,2.955c-0.25,-0.07 -0.297,-0.274 -0.139,-0.618c0.785,-1.516 1.322,-2.413 1.607,-2.698L27.725,21.397z" id="path_16"/><path fill="#213e95" d="M6.105,23h0.549c1.801,1.026 2.711,1.621 2.734,1.778c-0.893,1.911 -1.482,2.914 -1.779,3.008c-1.025,0 -2.027,-0.502 -3.008,-1.504C4.789,25.303 5.291,24.207 6.105,23z" id="path_17"/><path fill="#213e95" d="M10.885,22.318c0.869,0 1.918,0.595 3.148,1.778c0,0.478 -0.594,1.434 -1.777,2.867c-0.682,0 -1.686,-0.454 -3.008,-1.364C9.248,24.802 9.795,23.706 10.885,22.318z" id="path_18"/><path fill="#213e95" d="M17.617,46.396h-0.035c-2.617,0 -4.395,-1.276 -5.326,-3.823l-0.275,-1.096h-0.273c-0.203,0.729 -1.66,1.183 -4.371,1.369H6.654c-1.824,0 -2.734,-0.548 -2.734,-1.644v-1.229c0,-1.317 1.002,-2.955 3.008,-4.914c1.207,-0.915 2.57,-1.685 4.098,-2.325l-0.141,-0.408c0.502,-2.279 0.916,-3.416 1.23,-3.416c0.164,0.385 0.391,3.212 0.688,8.47c0.408,3.544 2.012,5.263 4.814,5.176V46.396L17.617,46.396zM5.559,38.476c0.523,0.361 1.393,0.542 2.6,0.542c1.184,-0.088 2.273,-0.314 3.275,-0.682l-0.273,-3.824h-0.135C7.383,36.243 5.559,37.561 5.559,38.476z" id="path_19"/><path fill="#213e95" d="M9.9,11.798c1.398,0 2.098,0.862 2.098,2.582c0,2.739 -2.336,5.076 -7.018,7c-0.67,0.204 -0.752,-0.041 -0.238,-0.734c0.129,-0.263 1.23,-1.084 3.311,-2.46v-0.116c-0.896,-0.367 -1.346,-1.148 -1.346,-2.344c0.594,-2.616 1.539,-3.928 2.832,-3.928H9.9L9.9,11.798zM7.814,14.753c0,0.729 0.617,1.177 1.848,1.353H9.9c0.455,0 0.746,-0.169 0.869,-0.496c0,-0.74 -0.537,-1.317 -1.604,-1.726C8.699,13.884 8.252,14.176 7.814,14.753z" id="path_20"/></svg>