<svg id="vector" xmlns="http://www.w3.org/2000/svg" width="102" height="73" viewBox="0 0 102 73"><path fill="#D50000" d="M70.97,40.583h0.066c2.723,-0.12 4.598,-1.433 5.625,-3.952c0,-0.353 0.232,-0.645 0.705,-0.885h0.353c0.233,0 0.353,0.18 0.353,0.532l-0.18,1.05c0.998,1.763 2.055,2.641 3.165,2.641h0.878c1.521,0 2.699,-1.523 3.518,-4.568h0.18c0.172,0.022 0.465,0.729 0.877,2.108c0.998,0.877 1.988,1.402 2.985,1.582c1.17,0 1.763,-0.705 1.763,-2.107c0.112,-2.228 0.345,-3.346 0.697,-3.346c0.473,0.998 0.705,2.229 0.705,3.69c0,4.343 -1.058,6.51 -3.165,6.51c-1.643,0 -2.985,-0.825 -4.042,-2.467h-0.354c-0.727,2.347 -1.904,3.518 -3.518,3.518h-0.172c-1.433,0 -3.075,-1.11 -4.92,-3.338c-1.553,2.692 -3.314,4.043 -5.272,4.043H70.97V40.583z" id="path_0"/><path fill="#D50000" d="M84.438,16.389c1.801,0 2.701,1.109 2.701,3.322c0,3.525 -3.008,6.532 -9.031,9.008c-0.861,0.262 -0.967,-0.053 -0.307,-0.945c0.164,-0.338 1.582,-1.396 4.26,-3.165v-0.15c-1.155,-0.473 -1.732,-1.478 -1.732,-3.015c0.766,-3.368 1.98,-5.055 3.645,-5.055H84.438L84.438,16.389zM81.754,20.191c0,0.938 0.796,1.516 2.378,1.74h0.307c0.586,0 0.961,-0.218 1.118,-0.638c0,-0.952 -0.69,-1.694 -2.063,-2.22C82.894,19.074 82.316,19.449 81.754,20.191z" id="path_1"/><path fill="#000001" d="M56.913,48.789h0.705c2.311,1.313 3.48,2.078 3.511,2.28c-1.14,2.46 -1.905,3.75 -2.28,3.87c-1.32,0 -2.609,-0.646 -3.869,-1.936C55.212,51.744 55.856,50.341 56.913,48.789z" id="path_2"/><path fill="#000001" d="M63.063,47.904c1.117,0 2.461,0.765 4.043,2.287c0,0.615 -0.758,1.846 -2.287,3.69c-0.878,0 -2.168,-0.585 -3.863,-1.755C60.956,51.099 61.661,49.697 63.063,47.904z" id="path_3"/><path fill="#000001" d="M56.517,34.742h0.045c2.047,0 3.689,-0.698 4.92,-2.108l-0.172,-1.402c0,-1.732 0.352,-3.135 1.049,-4.223c0.323,0 0.795,2.993 1.41,8.963c0.705,3.225 3.158,4.718 7.357,4.485v5.01c-4.102,0.292 -6.959,-1.583 -8.587,-5.625c-0.263,-2.813 -0.556,-4.215 -0.878,-4.215c-0.689,2.662 -2.407,4.064 -5.145,4.192V34.742z" id="path_4"/><path fill="#000001" d="M66.267,13.846c0.322,0.555 0.697,2.138 1.125,4.748c-0.263,1.582 -0.953,2.369 -2.07,2.369h-0.15c-0.486,0 -1.117,-0.314 -1.912,-0.944c-0.54,0.952 -1.335,1.433 -2.37,1.433c-1.26,0 -1.89,-1.53 -1.89,-4.591c0.367,-1.162 0.683,-1.739 0.945,-1.739l0.149,0.157v2.7c0.218,0.938 0.487,1.402 0.795,1.402h0.638c0.66,0 1.08,-0.263 1.275,-0.787l-0.33,-2.37c0.127,-0.795 0.345,-1.215 0.637,-1.253h0.33c0.33,2.633 0.863,3.952 1.575,3.952h1.103v-0.157l-0.48,-3.157v-0.18C65.764,14.372 65.974,13.846 66.267,13.846z" id="path_5"/><path fill="#000001" d="M68.644,54.646c0.181,-0.098 0.232,0.061 0.158,0.487c-0.998,2.341 -2.527,3.976 -4.59,4.898l-7.583,3.802c-0.322,-0.09 -0.382,-0.353 -0.181,-0.787c1.014,-1.95 1.703,-3.105 2.07,-3.473L68.644,54.646z" id="path_6"/><path fill="#008046" d="M56.794,39.901c-0.158,0.016 -0.322,0.022 -0.48,0.022h-0.885c-1.373,0 -2.311,-0.112 -2.813,-0.353c-1.02,3.945 -2.213,6.36 -3.577,7.245c-1.365,0.886 -4.448,1.636 -9.247,2.25h-0.354c-1.057,-0.119 -1.582,-0.292 -1.582,-0.524c0,-0.353 0.877,-0.766 2.633,-1.23c6.914,-3.165 10.372,-5.452 10.372,-6.854c0,-0.585 -0.817,-1.936 -2.46,-4.043c-0.353,-0.592 -0.525,-1.35 -0.525,-2.287v-1.755c0,-0.885 0.173,-1.351 0.525,-1.41c1.522,2.332 4.103,3.63 7.732,3.907c0.225,0 0.442,0 0.66,-0.015V39.901z" id="path_7"/><path fill="#008046" d="M53.081,18.699c0.18,-0.104 0.232,0.06 0.158,0.487c-0.998,2.34 -2.527,3.976 -4.59,4.897l-7.583,3.803c-0.323,-0.09 -0.383,-0.353 -0.181,-0.795c1.013,-1.95 1.703,-3.104 2.07,-3.473L53.081,18.699z" id="path_8"/><path fill="#000001" d="M19.339,23.048c1.372,0.413 2.783,1.29 4.215,2.641v0.172c-1.32,2.318 -2.078,3.488 -2.287,3.518h-0.525c-0.998,-0.143 -2.047,-0.787 -3.165,-1.935v-0.173C17.696,25.891 18.281,24.489 19.339,23.048z" id="path_9"/><path fill="#000001" d="M26.014,23.401c1.29,0.293 2.58,1.058 3.87,2.288v0.172c0,0.646 -0.705,1.823 -2.107,3.518h-0.533c-0.816,0 -1.875,-0.645 -3.164,-1.935C24.401,25.628 25.046,24.279 26.014,23.401z" id="path_10"/><path fill="#000001" d="M11.802,25.336h0.172l0.353,0.353c-0.938,2.077 -1.402,3.487 -1.402,4.215c0,3.428 3.277,5.422 9.84,5.978l2.107,0.353c2.115,0 5.272,-0.646 9.495,-1.935l2.46,-1.403c-0.817,-1.492 -1.35,-2.782 -1.583,-3.87l0.354,-3.337h0.352c1.402,1.462 2.107,4.042 2.107,7.732c0,3.548 -3.104,5.947 -9.314,7.207l-2.64,0.353c-9.841,0 -14.761,-3.225 -14.761,-9.667C9.341,28.622 10.159,26.626 11.802,25.336z" id="path_11"/><path fill="#000001" d="M21.993,9.167h1.74c2.107,0 3.166,0.787 3.166,2.37c-1.365,3.689 -3.023,5.647 -4.973,5.872l-2.303,0.308c-0.367,0 -0.518,-0.105 -0.465,-0.308c1.859,-0.982 3.6,-2.152 5.213,-3.495c-0.57,-0.532 -1.201,-0.795 -1.891,-0.795h-0.488l-1.889,0.157l-0.15,-0.157v-0.308C20.847,10.381 21.528,9.167 21.993,9.167z" id="path_12"/></svg>