<svg id="vector" xmlns="http://www.w3.org/2000/svg" width="102" height="73" viewBox="0 0 102 73"><path fill="#000001" d="M77.501,58.832c-0.735,0 -2.018,-0.878 -3.87,-2.633c0,-0.585 0.705,-1.875 2.115,-3.87h0.352c0.728,0 1.845,0.705 3.337,2.107v0.18C79.436,55.321 78.792,56.724 77.501,58.832z" id="path_0"/><path fill="#000001" d="M71.171,59.708c-2.925,-1.252 -4.395,-2.25 -4.395,-2.984c0.18,-0.556 0.998,-1.785 2.467,-3.69c1.958,0.758 3.368,1.643 4.215,2.633C72.844,57.631 72.079,58.981 71.171,59.708z" id="path_1"/><path fill="#000001" d="M67.332,49.404c-9.758,0.412 -15.008,-0.038 -15.743,-1.357c-0.743,-1.32 2.632,-1.995 10.118,-2.025c1.478,-0.03 2.415,-0.067 2.813,-0.127c5.947,-0.923 9.577,-1.92 10.897,-2.993v-0.172l-1.935,-4.575v-0.698c0,-2.347 0.292,-3.517 0.877,-3.517c1.643,3.135 2.46,5.595 2.46,7.38v0.353c0,4.072 -2.047,6.42 -6.15,7.035C69.626,48.984 68.517,49.216 67.332,49.404z" id="path_2"/><path fill="#000001" d="M78.776,22.276c0.18,-0.105 0.232,0.06 0.157,0.487c-0.998,2.34 -2.527,3.975 -4.59,4.897l-7.583,3.802c-0.322,-0.09 -0.382,-0.352 -0.18,-0.794c1.013,-1.95 1.703,-3.105 2.07,-3.473L78.776,22.276z" id="path_3"/><path fill="#008046" d="M60.807,27.234h0.705c2.018,1.207 3.308,2.085 3.863,2.64l-1.928,4.042h-0.533c-1.2,-0.202 -2.55,-1.027 -4.042,-2.46C59.749,28.876 60.394,27.474 60.807,27.234z" id="path_4"/><path fill="#008046" d="M49.114,44.551c0.367,0 0.75,0 1.147,0l0.878,-0.442c0.555,-1.141 1.38,-2.543 2.459,-4.216l-1.755,-13.537c0.585,-2.813 1.11,-4.215 1.583,-4.215l0.877,3.337c0.817,1.14 1.23,2.198 1.23,3.165c-0.585,1.08 -0.877,1.965 -0.877,2.633v0.352l0.353,5.625v0.885c1.815,-1.529 4.245,-2.362 7.29,-2.504c3.518,0.495 5.272,1.665 5.272,3.509v1.23c-0.585,2.61 -1.462,4.605 -2.632,5.978c-3.548,1.995 -7.44,3.06 -11.692,3.21h-1.936c-0.772,0 -1.507,0 -2.197,0V44.551L49.114,44.551zM52.541,44.641h0.353c5.362,-0.15 9.555,-1.103 12.57,-2.857c-1.373,-1.41 -2.37,-2.107 -2.985,-2.107h-1.41C57.056,39.819 54.214,41.476 52.541,44.641z" id="path_5"/><path fill="#008046" d="M61.856,12.646c1.8,0 2.7,1.11 2.7,3.323c0,3.525 -3.008,6.532 -9.03,9.007c-0.862,0.263 -0.967,-0.053 -0.308,-0.945c0.165,-0.338 1.583,-1.395 4.26,-3.165v-0.15c-1.155,-0.472 -1.732,-1.477 -1.732,-3.015c0.765,-3.368 1.98,-5.055 3.645,-5.055H61.856L61.856,12.646zM59.171,16.449c0,0.938 0.795,1.515 2.377,1.74h0.308c0.585,0 0.96,-0.217 1.118,-0.637c0,-0.953 -0.69,-1.695 -2.063,-2.22C60.311,15.331 59.733,15.706 59.171,16.449z" id="path_6"/><path fill="#e21171" d="M33.813,44.881c1.732,0.555 3.075,1.26 4.042,2.107v0.353c0,0.585 -0.645,1.875 -1.935,3.87c-1.2,0 -2.542,-0.646 -4.042,-1.936v-0.353C31.878,47.664 32.523,46.321 33.813,44.881z" id="path_7"/><path fill="#e21171" d="M49.309,49.494c-1.598,0 -2.835,-0.247 -3.72,-0.742c-0.435,3.81 -1.253,6.442 -2.46,7.912c-2.895,3.63 -5.887,5.445 -8.962,5.445c-5.655,0 -9.345,-2.46 -11.077,-7.38c-0.345,-0.938 -0.525,-1.936 -0.525,-2.993v-1.402c0,-4.162 1.29,-7.439 3.87,-9.848c0.465,0.181 0.705,0.585 0.705,1.23l-2.813,5.1l-0.18,1.755c0,3.96 2.168,6.713 6.503,8.266l4.575,0.353c1.927,0 4.335,-1.118 7.208,-3.338c1.05,-1.702 1.583,-2.933 1.583,-3.697c-0.12,-1.17 -0.885,-2.865 -2.288,-5.093v-3.697l0.525,-0.525c1.275,2.565 3.63,3.803 7.057,3.713V49.494z" id="path_8"/><path fill="#e21171" d="M36.191,24.773c0.322,0.555 0.698,2.138 1.125,4.748c-0.263,1.583 -0.953,2.37 -2.07,2.37h-0.15c-0.487,0 -1.117,-0.315 -1.913,-0.945c-0.54,0.953 -1.334,1.433 -2.37,1.433c-1.26,0 -1.89,-1.53 -1.89,-4.59c0.367,-1.163 0.683,-1.74 0.945,-1.74l0.15,0.157v2.7c0.217,0.938 0.487,1.402 0.795,1.402h0.637c0.66,0 1.08,-0.263 1.275,-0.788l-0.33,-2.37c0.128,-0.795 0.345,-1.215 0.638,-1.252h0.33c0.33,2.633 0.862,3.953 1.575,3.953h1.103v-0.157l-0.48,-3.158v-0.18C35.689,25.298 35.899,24.773 36.191,24.773z" id="path_9"/><path fill="#e21171" d="M34.001,10.891c1.8,0 2.7,1.11 2.7,3.322c0,3.525 -3.007,6.533 -9.03,9.008c-0.863,0.263 -0.968,-0.053 -0.308,-0.945c0.165,-0.338 1.583,-1.395 4.26,-3.165v-0.15c-1.155,-0.472 -1.732,-1.477 -1.732,-3.015c0.765,-3.368 1.98,-5.055 3.645,-5.055H34.001L34.001,10.891zM31.316,14.694c0,0.938 0.795,1.515 2.377,1.74h0.308c0.585,0 0.96,-0.217 1.117,-0.637c0,-0.953 -0.69,-1.695 -2.063,-2.22C32.457,13.576 31.878,13.951 31.316,14.694z" id="path_10"/></svg>