<svg id="vector" xmlns="http://www.w3.org/2000/svg" width="102" height="73" viewBox="0 0 102 73"><path fill="#000001" d="M66.758,45.305c0.6,0 2.002,0.705 4.215,2.114c0,0.878 -0.697,2.28 -2.107,4.216c-2.813,-0.908 -4.215,-1.726 -4.215,-2.46C64.719,48.515 65.424,47.225 66.758,45.305z" id="path_0"/><path fill="#000001" d="M62.535,37.595c4.605,0.045 7.178,-0.817 7.74,-2.595c0,-0.615 -0.584,-2.138 -1.762,-4.568l0.531,-4.567h0.346c1.529,2.633 2.287,5.272 2.287,7.905v1.583c0,1.057 -0.254,2.167 -0.758,3.33c-0.502,1.163 -1.281,2.146 -2.324,2.933c-1.051,0.795 -3.068,1.125 -6.061,0.99V37.595z" id="path_1"/><path fill="#000001" d="M69.09,10.317c1.801,0 2.701,1.11 2.701,3.323c0,3.525 -3.008,6.532 -9.031,9.007c-0.861,0.263 -0.967,-0.053 -0.307,-0.945c0.164,-0.338 1.582,-1.395 4.26,-3.166v-0.15c-1.154,-0.472 -1.732,-1.477 -1.732,-3.015c0.766,-3.368 1.98,-5.055 3.645,-5.055H69.09L69.09,10.317zM66.406,14.12c0,0.938 0.795,1.515 2.377,1.74h0.307c0.586,0 0.961,-0.217 1.119,-0.637c0,-0.953 -0.691,-1.695 -2.063,-2.22C67.545,13.002 66.969,13.377 66.406,14.12z" id="path_2"/><path fill="#000001" d="M62.754,42.62c-0.158,0.016 -0.324,0.022 -0.48,0.022h-0.885c-1.373,0 -2.311,-0.112 -2.813,-0.353c-1.021,3.945 -2.213,6.36 -3.578,7.245c-1.365,0.886 -4.447,1.636 -9.248,2.25h-0.352c-1.059,-0.12 -1.584,-0.292 -1.584,-0.524c0,-0.353 0.879,-0.766 2.633,-1.23c6.916,-3.165 10.373,-5.452 10.373,-6.854c0,-0.585 -0.818,-1.936 -2.459,-4.043c-0.354,-0.593 -0.525,-1.35 -0.525,-2.287V35.09c0,-0.885 0.172,-1.35 0.525,-1.41c1.521,2.332 4.102,3.63 7.732,3.907c0.225,0 0.441,0 0.66,-0.015V42.62z" id="path_3"/><path fill="#000001" d="M55.988,20.915c0.322,0.555 0.697,2.138 1.125,4.748c-0.262,1.583 -0.953,2.37 -2.07,2.37h-0.15c-0.486,0 -1.117,-0.315 -1.912,-0.945c-0.539,0.953 -1.334,1.433 -2.371,1.433c-1.26,0 -1.889,-1.53 -1.889,-4.59c0.367,-1.163 0.682,-1.74 0.945,-1.74l0.15,0.158v2.7c0.217,0.938 0.486,1.402 0.793,1.402h0.639c0.66,0 1.08,-0.263 1.275,-0.788l-0.33,-2.37c0.127,-0.794 0.344,-1.215 0.637,-1.252h0.33c0.33,2.632 0.863,3.952 1.576,3.952h1.102v-0.157l-0.48,-3.158v-0.18C55.486,21.44 55.695,20.915 55.988,20.915z" id="path_4"/><path fill="#000001" d="M57.789,53.495c0.18,-0.098 0.232,0.061 0.156,0.487c-0.998,2.341 -2.527,3.976 -4.59,4.897l-7.582,3.803c-0.322,-0.09 -0.383,-0.353 -0.182,-0.787c1.014,-1.95 1.703,-3.105 2.07,-3.473L57.789,53.495z" id="path_5"/><path fill="#D50000" d="M38.955,24.433c1.434,0.232 2.842,1.11 4.215,2.632v0.353c-0.877,2.347 -1.521,3.518 -1.936,3.518c-2.813,-0.968 -4.215,-1.732 -4.215,-2.288C37.02,27.567 37.666,26.157 38.955,24.433z" id="path_6"/><path fill="#D50000" d="M40.756,33.987c1.049,1.058 2.047,3.337 2.984,6.855l0.18,2.288c0,4.132 -2.055,6.944 -6.156,8.438l-1.23,0.172l-3.121,0.045l-3.029,-0.045l-0.172,-0.172v-0.181c0.375,-0.405 2.895,-1.635 7.553,-3.689c2.932,-1.665 4.514,-3.135 4.746,-4.396c-1.521,-3.247 -2.279,-5.122 -2.279,-5.625v-0.524C40.23,35.045 40.402,33.987 40.756,33.987z" id="path_7"/><path fill="#D50000" d="M42.668,13.572c0.18,-0.105 0.232,0.06 0.158,0.487c-0.998,2.34 -2.529,3.975 -4.592,4.898l-7.582,3.802c-0.322,-0.09 -0.383,-0.352 -0.18,-0.795c1.012,-1.95 1.703,-3.105 2.07,-3.473L42.668,13.572z" id="path_8"/></svg>