<svg id="vector" xmlns="http://www.w3.org/2000/svg" width="102" height="73" viewBox="0 0 102 73"><path fill="#D50000" d="M82.661,23.994c1.732,0.555 3.083,1.26 4.043,2.107v0.352c0,0.586 -0.638,1.875 -1.928,3.871c-1.2,0 -2.55,-0.646 -4.043,-1.936v-0.352C80.733,26.775 81.379,25.426 82.661,23.994z" id="path_0"/><path fill="#D50000" d="M77.651,44.252c4.604,0.045 7.178,-0.818 7.74,-2.596c0,-0.615 -0.585,-2.137 -1.763,-4.568l0.532,-4.566h0.346c1.529,2.633 2.287,5.271 2.287,7.904v1.582c0,1.059 -0.255,2.168 -0.758,3.33c-0.502,1.164 -1.282,2.146 -2.325,2.934c-1.05,0.795 -3.067,1.125 -6.06,0.99V44.252z" id="path_1"/><path fill="#D50000" d="M84.927,10.096c1.8,0 2.7,1.111 2.7,3.322c0,3.525 -3.008,6.533 -9.03,9.008c-0.862,0.264 -0.968,-0.053 -0.308,-0.945c0.165,-0.336 1.582,-1.395 4.26,-3.164v-0.15c-1.155,-0.473 -1.732,-1.477 -1.732,-3.014c0.766,-3.369 1.98,-5.057 3.646,-5.057H84.927L84.927,10.096zM82.241,13.898c0,0.938 0.796,1.516 2.378,1.74h0.308c0.585,0 0.96,-0.217 1.117,-0.637c0,-0.953 -0.69,-1.695 -2.063,-2.221C83.382,12.781 82.804,13.156 82.241,13.898z" id="path_2"/><path fill="#000001" d="M73.302,50.49c1.822,0.736 3.164,1.553 4.05,2.461v0.18c-0.968,2.572 -1.732,3.863 -2.287,3.863c-0.443,0 -1.846,-0.705 -4.223,-2.107l-1.583,2.984c-3.045,-1.109 -4.567,-1.928 -4.567,-2.459c0.645,-2.4 1.29,-3.811 1.935,-4.217c0.495,0 2.018,0.758 4.567,2.289C72.161,51.488 72.866,50.49 73.302,50.49z" id="path_3"/><path fill="#000001" d="M61.437,44.252h1.147c2.28,-0.188 3.982,-1.096 5.093,-2.723l0.18,-0.533l-0.525,-2.633c0.113,-2.813 0.405,-4.223 0.878,-4.223c1.402,4.951 2.752,7.973 4.042,9.053c1.11,0.631 2.633,0.975 4.568,1.035c0.518,0 0.997,0 1.454,0v5.033c-0.577,0 -1.177,0 -1.808,0h-0.172c-3.367,0 -5.947,-1.875 -7.732,-5.625v-0.174l-1.583,3.158c-1.2,1.777 -2.962,2.654 -5.272,2.641h-0.27V44.252z" id="path_4"/><path fill="#000001" d="M75.214,20.318c0.18,-0.105 0.232,0.061 0.157,0.488c-0.997,2.34 -2.527,3.975 -4.59,4.896l-7.583,3.803c-0.322,-0.09 -0.382,-0.352 -0.18,-0.795c1.013,-1.949 1.703,-3.105 2.07,-3.473L75.214,20.318z" id="path_5"/><path fill="#D50000" d="M62.209,49.262c-0.277,0 -0.615,0 -1.013,0c-1.567,-0.016 -3.255,-1.193 -5.077,-3.541c-0.698,2.58 -1.928,3.871 -3.69,3.871h-0.172c-1.493,0 -2.724,-0.877 -3.69,-2.641h-0.18c-1.051,2.115 -2.325,3.074 -3.826,2.881c-2.781,0.014 -4.432,-1.299 -4.965,-3.932c-1.957,2.295 -4.064,3.42 -6.307,3.361h-0.285v-5.01h0.09c3.547,-0.121 6.18,-1.328 7.912,-3.623c0.232,0 0.354,0.172 0.354,0.525l-0.181,1.229c0.938,1.875 2.167,2.813 3.69,2.813c1.439,0 2.902,-1.402 4.395,-4.215h0.18l0.525,0.525v1.23c0,1.109 0.824,1.754 2.46,1.936h0.353c1.522,0 2.933,-1.523 4.223,-4.576h0.172c0.233,0 0.354,0.533 0.354,1.584c0.645,1.777 2.204,2.631 4.68,2.572V49.262z" id="path_6"/><path fill="#D50000" d="M51.394,23.77c0.323,0.555 0.698,2.137 1.125,4.746c-0.262,1.584 -0.952,2.371 -2.069,2.371h-0.15c-0.488,0 -1.117,-0.316 -1.912,-0.945c-0.541,0.953 -1.336,1.432 -2.371,1.432c-1.26,0 -1.889,-1.529 -1.889,-4.59c0.367,-1.162 0.682,-1.74 0.944,-1.74l0.149,0.158V27.9c0.219,0.938 0.488,1.402 0.795,1.402h0.639c0.66,0 1.08,-0.262 1.274,-0.787l-0.33,-2.369c0.128,-0.795 0.345,-1.215 0.638,-1.252h0.33c0.33,2.631 0.862,3.951 1.574,3.951h1.104v-0.156l-0.48,-3.158v-0.18C50.891,24.293 51.102,23.77 51.394,23.77z" id="path_7"/><path fill="#D50000" d="M54.784,53.717c0.18,-0.098 0.232,0.059 0.157,0.486c-0.997,2.34 -2.527,3.975 -4.59,4.898l-7.582,3.803c-0.322,-0.09 -0.383,-0.354 -0.181,-0.787c1.013,-1.951 1.702,-3.105 2.07,-3.473L54.784,53.717z" id="path_8"/><path fill="#008046" d="M33.312,49.275c-0.157,0.016 -0.323,0.023 -0.48,0.023h-0.885c-1.372,0 -2.31,-0.113 -2.813,-0.354c-1.021,3.945 -2.212,6.361 -3.577,7.246s-4.447,1.635 -9.248,2.25h-0.353c-1.058,-0.121 -1.583,-0.293 -1.583,-0.525c0,-0.352 0.878,-0.766 2.633,-1.23c6.916,-3.164 10.373,-5.451 10.373,-6.854c0,-0.586 -0.818,-1.936 -2.46,-4.043c-0.353,-0.594 -0.525,-1.35 -0.525,-2.287v-1.756c0,-0.885 0.173,-1.35 0.525,-1.41c1.522,2.332 4.103,3.631 7.731,3.908c0.226,0 0.443,0 0.661,-0.016V49.275z" id="path_9"/><path fill="#008046" d="M24.746,24.842c1.801,0 2.7,1.109 2.7,3.322c0,3.525 -3.008,6.531 -9.03,9.008c-0.862,0.262 -0.967,-0.053 -0.308,-0.945c0.165,-0.338 1.583,-1.395 4.261,-3.166v-0.148c-1.156,-0.473 -1.732,-1.479 -1.732,-3.016c0.765,-3.367 1.979,-5.055 3.645,-5.055H24.746L24.746,24.842zM22.061,28.645c0,0.938 0.796,1.514 2.378,1.74h0.308c0.585,0 0.96,-0.219 1.117,-0.639c0,-0.951 -0.689,-1.695 -2.063,-2.221C23.201,27.525 22.623,27.9 22.061,28.645z" id="path_10"/></svg>