<svg id="vector" xmlns="http://www.w3.org/2000/svg" width="102" height="73" viewBox="0 0 102 73"><path fill="#D50000" d="M76.331,27.631c1.522,0 2.925,0.937 4.215,2.813c-1.08,2.46 -1.905,3.689 -2.46,3.689c-2.37,-1.17 -3.66,-1.935 -3.87,-2.287C74.216,30.735 74.921,29.325 76.331,27.631z" id="path_0"/><path fill="#D50000" d="M70.639,49.688h0.877c5.468,-0.104 9.098,-0.869 10.897,-2.31l0.353,-0.697c-0.232,-0.563 -0.524,-0.84 -0.877,-0.84c-0.848,0.472 -1.785,0.704 -2.813,0.704h-0.18c-3.045,-0.353 -4.628,-1.582 -4.74,-3.689v-0.181c0.292,-3.981 1.229,-5.97 2.813,-5.97h0.877c2.708,-0.135 4.763,1.973 6.15,6.323l0.173,1.762v0.353c-0.038,4.306 -1.583,7.147 -4.636,8.521c-1.08,0.689 -4.05,1.035 -8.895,1.035V49.688z" id="path_1"/><path fill="#D50000" d="M82.826,15.743c0.18,-0.105 0.232,0.06 0.157,0.487c-0.997,2.34 -2.527,3.975 -4.59,4.897l-7.582,3.803c-0.322,-0.09 -0.383,-0.353 -0.181,-0.795c1.013,-1.95 1.703,-3.105 2.07,-3.473L82.826,15.743z" id="path_2"/><path fill="#213e95" d="M71.179,54.698c-0.112,0 -0.232,0 -0.345,0h-1.583c-1.582,0 -3.404,-0.998 -5.452,-2.985c-3.518,1.928 -7.313,2.925 -11.385,2.985V49.71c2.13,0.143 4.867,-0.3 8.22,-1.342v-0.173c-1.612,-1.058 -3.135,-1.582 -4.567,-1.582l-1.41,0.172l-0.353,-0.877c0.473,-3.165 1.822,-4.748 4.043,-4.748l2.812,-0.173c4.455,0.525 6.683,1.523 6.683,2.985v0.705l-1.058,3.518c0.855,1.035 2.318,1.538 4.396,1.492V54.698z" id="path_3"/><path fill="#213e95" d="M64.983,25.65c0.323,0.555 0.698,2.138 1.125,4.747c-0.262,1.583 -0.952,2.37 -2.07,2.37h-0.149c-0.487,0 -1.117,-0.314 -1.913,-0.944c-0.54,0.952 -1.334,1.433 -2.369,1.433c-1.261,0 -1.891,-1.53 -1.891,-4.591c0.368,-1.162 0.683,-1.739 0.945,-1.739l0.15,0.157v2.7c0.217,0.938 0.487,1.402 0.795,1.402h0.637c0.66,0 1.08,-0.263 1.275,-0.788l-0.33,-2.37c0.128,-0.794 0.345,-1.215 0.638,-1.252h0.33c0.33,2.633 0.862,3.952 1.575,3.952h1.103V30.57l-0.48,-3.157v-0.18C64.481,26.176 64.691,25.65 64.983,25.65z" id="path_4"/><path fill="#213e95" d="M67.646,15.982c0.18,-0.104 0.232,0.061 0.157,0.487c-0.998,2.341 -2.527,3.976 -4.59,4.898l-7.583,3.802c-0.322,-0.09 -0.382,-0.352 -0.18,-0.795c1.013,-1.95 1.702,-3.104 2.07,-3.473L67.646,15.982z" id="path_5"/><path fill="#000001" d="M52.856,54.698c-3.413,0.202 -5.896,-1.373 -7.447,-4.726c-0.75,-1.245 -1.448,-9.638 -2.107,-25.177v-0.353c0.435,-2.581 1.08,-3.87 1.927,-3.87l0.885,-0.173c1.08,0 2.723,0.353 4.921,1.05v0.353c-0.12,0.353 -0.473,0.532 -1.058,0.532h-2.985c-0.615,0 -1.2,0.346 -1.763,1.051c0.548,13.492 1.343,21.308 2.4,23.444c1.05,2.138 2.798,3.09 5.228,2.857V54.698z" id="path_6"/><path fill="#213e95" d="M37.346,21.78c0.323,0 0.556,0.878 0.705,2.641l1.755,2.984v0.18c0,0.788 -0.352,2.198 -1.057,4.216l1.057,11.954v4.216c-0.382,2.438 -1.784,4.837 -4.222,7.207c-2.431,1.875 -4.598,2.813 -6.503,2.813h-1.05c-5.101,0 -8.385,-2.52 -9.848,-7.553l-0.353,-3.165c0,-3.255 1.41,-6.127 4.223,-8.617h0.173l0.353,0.353c0,0.646 -0.818,2.228 -2.461,4.747c-0.352,0.908 -0.524,1.726 -0.524,2.461v0.18c0,2.985 2.399,5.152 7.207,6.502l2.107,0.173h0.353c3.398,0 6.383,-1.582 8.963,-4.747l0.173,-0.525c-1.403,-12.247 -2.108,-19.747 -2.108,-22.5v-0.353C36.288,23.655 36.642,22.605 37.346,21.78z" id="path_7"/><path fill="#f06022" d="M29.921,17.94c1.343,0 2.138,0.893 2.37,2.678v0.487c-0.247,2.985 -1.245,4.935 -2.984,5.843c-3.03,1.904 -5.783,2.857 -8.243,2.857c-0.09,-0.016 -0.172,-0.038 -0.263,-0.067c-0.09,-0.03 -0.157,-0.075 -0.21,-0.135c-0.052,-0.053 -0.045,-0.091 0.016,-0.105c0.127,-0.293 2.34,-1.463 6.63,-3.495v-0.157c-1.155,-0.728 -1.732,-1.732 -1.732,-3.008C26.193,19.568 27.664,17.94 29.921,17.94L29.921,17.94zM27.086,21.256v0.149c0,1.088 0.743,1.726 2.221,1.913h0.457c0.563,0 0.878,-0.158 0.945,-0.48c0,-1.478 -0.788,-2.22 -2.37,-2.22C27.506,20.806 27.086,21.022 27.086,21.256z" id="path_8"/><path fill="#f06022" d="M26.448,15.083c0.338,-0.165 0.495,-0.053 0.48,0.33c-1.695,1.875 -3.03,3.652 -3.998,5.34c-0.277,0.66 -0.435,1.2 -0.472,1.635c-0.038,0.436 0.074,0.9 0.345,1.396h0.33c0.128,-0.735 0.39,-1.103 0.787,-1.103c0.473,0.21 0.735,0.42 0.788,0.638v0.307c0.029,1.673 -0.442,2.678 -1.425,3.016h-0.788c-1.058,-0.21 -1.582,-1.425 -1.582,-3.652C20.914,20.28 22.759,17.647 26.448,15.083z" id="path_9"/></svg>