<svg id="vector" xmlns="http://www.w3.org/2000/svg" width="102" height="73" viewBox="0 0 102 73"><path fill="#008046" d="M67.968,44.588h0.877c5.468,-0.105 9.098,-0.87 10.898,-2.31l0.352,-0.698c-0.232,-0.563 -0.525,-0.84 -0.877,-0.84c-0.848,0.473 -1.785,0.705 -2.813,0.705h-0.18c-3.045,-0.353 -4.628,-1.583 -4.74,-3.69v-0.18c0.292,-3.982 1.229,-5.97 2.813,-5.97h0.877c2.707,-0.135 4.763,1.973 6.15,6.322l0.172,1.763v0.353c-0.037,4.305 -1.582,7.147 -4.635,8.52c-1.08,0.69 -4.05,1.035 -8.895,1.035V44.588z" id="path_0"/><path fill="#008046" d="M75.7,22.418c1.904,0.585 3.547,1.522 4.92,2.813v0.172c0,0.735 -0.758,1.905 -2.28,3.518c-0.473,0 -2.055,-0.585 -4.747,-1.755v0.173c-0.938,1.815 -1.523,2.752 -1.763,2.813c-1.522,-0.322 -2.813,-1.027 -3.862,-2.107c0.705,-2.933 1.289,-4.396 1.755,-4.396c0.382,0 1.785,0.705 4.223,2.107C73.945,25.141 74.53,24.03 75.7,22.418z" id="path_1"/><path fill="#008046" d="M80.425,11.828c0.18,-0.105 0.232,0.06 0.158,0.487c-0.998,2.34 -2.527,3.975 -4.59,4.897l-7.584,3.803c-0.322,-0.09 -0.382,-0.353 -0.18,-0.795c1.014,-1.95 1.703,-3.105 2.07,-3.473L80.425,11.828z" id="path_2"/><path fill="#000001" d="M56.042,52.763c0.729,0 2.018,0.878 3.863,2.633c0,0.593 -0.697,1.875 -2.107,3.87h-0.353c-0.735,0 -1.845,-0.705 -3.337,-2.107v-0.181C54.108,56.28 54.753,54.87 56.042,52.763z" id="path_3"/><path fill="#000001" d="M62.365,51.886c2.933,1.26 4.396,2.249 4.396,2.984c-0.173,0.555 -0.99,1.785 -2.461,3.69c-1.965,-0.758 -3.367,-1.635 -4.215,-2.633C60.7,53.963 61.458,52.612 62.365,51.886z" id="path_4"/><path fill="#000001" d="M52.938,44.588c1.253,0.015 2.025,-0.008 2.333,-0.067c2.64,-0.803 4.439,-2.513 5.407,-5.115c0.143,-0.503 0.435,-0.563 0.878,-0.18c0.232,0.202 0.412,1.027 0.524,2.46c1.598,2.152 3.593,3.12 5.978,2.902h0.465v5.01H68.41c-3.735,-0.173 -6.487,-1.875 -8.265,-5.1h-0.173c-1.245,2.625 -2.888,4.237 -4.92,4.837c-0.615,0.173 -1.319,0.263 -2.115,0.263V44.588z" id="path_5"/><path fill="#000001" d="M63.46,23.123c0.322,0.555 0.697,2.138 1.125,4.747c-0.262,1.583 -0.953,2.37 -2.07,2.37h-0.15c-0.486,0 -1.117,-0.314 -1.912,-0.945c-0.539,0.953 -1.334,1.433 -2.369,1.433c-1.261,0 -1.891,-1.53 -1.891,-4.59c0.367,-1.162 0.683,-1.74 0.945,-1.74l0.15,0.158v2.7c0.217,0.937 0.487,1.402 0.795,1.402h0.637c0.66,0 1.08,-0.263 1.275,-0.788l-0.33,-2.37c0.127,-0.795 0.345,-1.215 0.638,-1.252h0.329c0.33,2.632 0.863,3.952 1.576,3.952h1.102v-0.157l-0.479,-3.157v-0.181C62.958,23.647 63.167,23.123 63.46,23.123z" id="path_6"/><path fill="#000001" d="M66.716,61.11c0.18,-0.098 0.232,0.06 0.156,0.487c-0.997,2.34 -2.527,3.975 -4.59,4.897L54.7,70.298c-0.322,-0.09 -0.383,-0.353 -0.18,-0.787c1.012,-1.95 1.702,-3.105 2.07,-3.473L66.716,61.11z" id="path_7"/><path fill="#D50000" d="M37.487,44.588h0.397c1.2,0 2.468,-0.465 3.803,-1.395c1.335,-0.931 2.115,-2.101 2.354,-3.503l0.173,-0.18h0.173c0.21,0 0.502,0.645 0.885,1.935c1.665,2.287 4.013,3.338 7.027,3.165c0.203,0 0.412,-0.008 0.615,-0.022v5.032c-0.203,0.015 -0.412,0.022 -0.615,0.022l-2.459,-0.285c-0.264,2.34 -1.028,3.511 -2.288,3.518H47.2c-2.34,-0.442 -3.51,-1.26 -3.51,-2.467l0.524,-3.165c-0.412,-0.465 -0.817,-0.698 -1.229,-0.698c-1.32,2.063 -3.15,3.083 -5.498,3.053V44.588z" id="path_8"/><path fill="#D50000" d="M51.415,22.636c0.18,-0.105 0.232,0.06 0.157,0.487c-0.997,2.34 -2.527,3.975 -4.59,4.897l-7.583,3.803c-0.322,-0.09 -0.382,-0.353 -0.18,-0.795c1.013,-1.95 1.703,-3.105 2.07,-3.473L51.415,22.636z" id="path_9"/><path fill="#213e95" d="M23.732,19.493h0.705c2.317,1.319 3.487,2.085 3.518,2.287c-1.147,2.46 -1.905,3.75 -2.288,3.87c-1.32,0 -2.609,-0.646 -3.869,-1.936C22.038,22.455 22.683,21.045 23.732,19.493z" id="path_10"/><path fill="#213e95" d="M29.882,18.615c1.118,0 2.468,0.765 4.051,2.287c0,0.615 -0.766,1.846 -2.287,3.69c-0.879,0 -2.168,-0.585 -3.871,-1.755C27.774,21.811 28.479,20.4 29.882,18.615z" id="path_11"/><path fill="#213e95" d="M38.545,49.598H38.5c-3.368,0 -5.655,-1.643 -6.854,-4.92l-0.354,-1.41H30.94c-0.264,0.938 -2.139,1.522 -5.625,1.763h-0.878c-2.348,0 -3.518,-0.705 -3.518,-2.115v-1.582c0,-1.695 1.29,-3.803 3.87,-6.322c1.553,-1.178 3.307,-2.168 5.272,-2.993l-0.181,-0.524c0.646,-2.933 1.178,-4.396 1.583,-4.396c0.21,0.495 0.503,4.133 0.885,10.897c0.525,4.561 2.588,6.772 6.195,6.66V49.598L38.545,49.598zM23.027,39.405c0.675,0.465 1.792,0.697 3.345,0.697c1.523,-0.112 2.926,-0.404 4.215,-0.877l-0.352,-4.921h-0.173C25.375,36.533 23.027,38.228 23.027,39.405z" id="path_12"/><path fill="#f06022" d="M29.868,5.633c1.342,0 2.137,0.893 2.369,2.678v0.487c-0.248,2.985 -1.245,4.935 -2.984,5.843c-3.03,1.904 -5.783,2.857 -8.243,2.857c-0.09,-0.016 -0.173,-0.038 -0.263,-0.067c-0.09,-0.03 -0.157,-0.075 -0.21,-0.136c-0.052,-0.052 -0.044,-0.09 0.015,-0.104c0.128,-0.293 2.34,-1.463 6.631,-3.495v-0.157c-1.155,-0.728 -1.732,-1.733 -1.732,-3.008C26.14,7.261 27.61,5.633 29.868,5.633L29.868,5.633zM27.032,8.948v0.149c0,1.088 0.742,1.725 2.221,1.913h0.457c0.563,0 0.877,-0.158 0.945,-0.48c0,-1.478 -0.787,-2.22 -2.371,-2.22C27.452,8.498 27.032,8.715 27.032,8.948z" id="path_13"/><path fill="#f06022" d="M26.395,2.775c0.338,-0.165 0.495,-0.053 0.48,0.33c-1.695,1.875 -3.03,3.652 -3.997,5.34c-0.278,0.66 -0.436,1.2 -0.473,1.635c-0.038,0.435 0.074,0.9 0.345,1.396h0.33c0.128,-0.735 0.39,-1.103 0.787,-1.103c0.473,0.21 0.735,0.42 0.788,0.638v0.307c0.029,1.673 -0.443,2.678 -1.426,3.016h-0.787c-1.058,-0.21 -1.582,-1.425 -1.582,-3.652C20.86,7.973 22.705,5.34 26.395,2.775z" id="path_14"/></svg>