<svg id="vector" xmlns="http://www.w3.org/2000/svg" width="102" height="73" viewBox="0 0 102 73"><path fill="#213e95" d="M73.009,22.57c0.735,0 2.018,0.885 3.87,2.64c0,0.585 -0.705,1.875 -2.115,3.87h-0.353c-0.728,0 -1.845,-0.705 -3.337,-2.115v-0.173C71.074,26.086 71.719,24.684 73.009,22.57z" id="path_0"/><path fill="#213e95" d="M79.339,21.692c2.925,1.26 4.396,2.258 4.396,2.992c-0.181,0.556 -0.998,1.785 -2.468,3.69c-1.958,-0.766 -3.368,-1.643 -4.216,-2.641C77.666,23.777 78.432,22.426 79.339,21.692z" id="path_1"/><path fill="#213e95" d="M71.539,46.915c-9.758,0.412 -15.008,-0.038 -15.743,-1.357c-0.742,-1.32 2.633,-1.995 10.118,-2.025c1.478,-0.03 2.415,-0.067 2.813,-0.127c5.947,-0.923 9.577,-1.92 10.897,-2.993v-0.173l-1.936,-4.574v-0.698c0,-2.347 0.293,-3.518 0.878,-3.518c1.643,3.136 2.46,5.596 2.46,7.381v0.353c0,4.072 -2.048,6.42 -6.15,7.035C73.834,46.495 72.724,46.727 71.539,46.915z" id="path_2"/><path fill="#213e95" d="M82.392,10.089c0.18,-0.105 0.232,0.06 0.157,0.487c-0.998,2.34 -2.527,3.975 -4.59,4.897l-7.583,3.803c-0.322,-0.09 -0.382,-0.353 -0.18,-0.795c1.013,-1.95 1.702,-3.105 2.07,-3.473L82.392,10.089z" id="path_3"/><path fill="#008046" d="M52.681,42.062c0.367,0 1.391,0 1.788,0l0.878,-0.442c0.555,-1.141 1.38,-2.543 2.46,-4.216l-1.755,-13.537c0.585,-2.813 1.109,-4.215 1.582,-4.215l0.877,3.337c0.818,1.141 1.23,2.198 1.23,3.166c-0.585,1.079 -0.877,1.965 -0.877,2.632v0.353l0.352,5.625v0.885c1.815,-1.529 4.245,-2.362 7.29,-2.505c3.518,0.495 5.272,1.665 5.272,3.51v1.23c-0.585,2.61 -1.462,4.604 -2.632,5.978c-3.548,1.995 -7.44,3.06 -11.692,3.21h-1.936c-0.772,0 -2.148,0 -2.838,0V42.062L52.681,42.062zM56.749,42.152h0.353c5.362,-0.15 9.555,-1.103 12.569,-2.857c-1.372,-1.41 -2.37,-2.107 -2.984,-2.107h-1.41C61.264,37.33 58.421,38.987 56.749,42.152z" id="path_4"/><path fill="#008046" d="M68.456,17.957c0.323,0.556 0.698,2.138 1.125,4.748c-0.262,1.582 -0.952,2.37 -2.07,2.37h-0.149c-0.487,0 -1.117,-0.315 -1.913,-0.945c-0.539,0.953 -1.334,1.433 -2.369,1.433c-1.261,0 -1.891,-1.53 -1.891,-4.59c0.368,-1.163 0.683,-1.74 0.945,-1.74l0.15,0.157v2.7c0.217,0.938 0.487,1.402 0.795,1.402h0.637c0.66,0 1.08,-0.263 1.275,-0.787l-0.33,-2.37c0.128,-0.795 0.345,-1.215 0.638,-1.253h0.33c0.33,2.633 0.862,3.953 1.574,3.953h1.104v-0.157l-0.48,-3.158v-0.18C67.954,18.482 68.164,17.957 68.456,17.957z" id="path_5"/><path fill="#008046" d="M71.119,8.29c0.18,-0.105 0.232,0.06 0.157,0.487c-0.998,2.34 -2.527,3.975 -4.59,4.897l-7.583,3.803c-0.322,-0.09 -0.382,-0.353 -0.18,-0.795c1.013,-1.95 1.702,-3.105 2.07,-3.473L71.119,8.29z" id="path_6"/><path fill="#D50000" d="M39.483,42.062c0.03,0 0.067,0 0.105,0c2.813,-0.173 4.425,-1.433 4.837,-3.78c-1.057,-7.027 -1.582,-11.955 -1.582,-14.768c0,-1.08 0.473,-2.49 1.41,-4.215l0.172,0.172l0.353,0.354l-0.18,1.229c0.15,7.897 1.147,14.018 2.992,18.367c0.705,1.583 2.431,2.468 5.183,2.641v5.01c-3.779,-0.061 -6.322,-2.048 -7.643,-5.978h-0.18c-1.215,3.938 -3.037,5.933 -5.468,5.978V42.062z" id="path_7"/><path fill="#D50000" d="M51.852,49.944c0.18,-0.098 0.232,0.061 0.157,0.488c-0.998,2.34 -2.527,3.975 -4.59,4.896l-7.583,3.803c-0.322,-0.09 -0.383,-0.353 -0.18,-0.787c1.013,-1.95 1.702,-3.105 2.07,-3.473L51.852,49.944z" id="path_8"/><path fill="#000001" d="M39.986,47.027c-6.165,0.615 -9.646,-1.11 -10.44,-5.183l-0.524,-3.3h-0.173c-1.455,0.397 -3.271,1.688 -5.452,3.87c-1.613,1.814 -2.596,3.982 -2.948,6.502c-0.143,7.5 6.232,11.25 19.118,11.25l7.207,-0.524l0.18,0.172l-0.225,0.532c0,0.391 -1.372,1.223 -4.117,2.49s-6.046,1.905 -9.9,1.905c-5.04,-0.015 -8.902,-1.598 -11.603,-4.747c-1.635,-2.963 -2.46,-6.36 -2.46,-10.2c0.248,-3.69 1.83,-7.38 4.748,-11.07c-3.165,-1.229 -4.748,-2.7 -4.748,-4.395c0.15,-3.256 0.652,-5.415 1.508,-6.48c0.854,-1.072 1.875,-1.665 3.067,-1.785h0.524c2.37,0 5.011,0.998 7.913,2.993v0.353c0,0.232 -0.18,0.353 -0.532,0.353c-2.003,-0.593 -3.938,-0.886 -5.798,-0.886c-2.138,0.413 -3.607,0.998 -4.396,1.763l-0.18,0.173v0.18c0,0.923 1.995,2.032 5.978,3.338l1.763,0.172c0.646,0 2.813,-0.697 6.503,-2.107h0.172l0.353,0.353c-0.397,1.98 -1.507,3.271 -3.337,3.87l-1.756,1.229c0,0.848 0.533,1.763 1.598,2.745c1.657,1.32 4.313,1.793 7.958,1.426V47.027z" id="path_9"/><path fill="#000001" d="M25.331,10.682c1.8,0 2.7,1.109 2.7,3.322c0,3.525 -3.008,6.532 -9.03,9.008c-0.862,0.262 -0.968,-0.053 -0.308,-0.945c0.165,-0.338 1.583,-1.396 4.261,-3.165v-0.15c-1.155,-0.473 -1.732,-1.478 -1.732,-3.015c0.765,-3.367 1.979,-5.055 3.645,-5.055H25.331L25.331,10.682zM22.646,14.485c0,0.937 0.795,1.515 2.377,1.739h0.308c0.585,0 0.96,-0.217 1.117,-0.638c0,-0.952 -0.689,-1.694 -2.063,-2.22C23.786,13.367 23.209,13.742 22.646,14.485z" id="path_10"/></svg>