<svg id="vector" xmlns="http://www.w3.org/2000/svg" width="295" height="73" viewBox="0 0 294.643 72.961"><path fill="#D50000" d="M31.542,47.123c-0.177,0 -0.369,0 -0.56,0H30.82c-1.609,-0.016 -3.161,-0.299 -4.657,-0.852c-1.602,2.771 -3.707,4.154 -6.309,4.154c-3.104,-0.447 -4.656,-1.715 -4.656,-3.82h-0.163c-0.524,1.771 -1.687,3.211 -3.487,4.316c-2.41,0.885 -4.295,1.332 -5.648,1.332l-0.766,0.1V52.02c0.616,-0.51 2.289,-1.693 5.011,-3.551c2.722,-1.85 4.267,-3.012 4.628,-3.486c0.368,-0.469 0.9,-2.035 1.595,-4.693c1.325,-2.211 2.544,-3.324 3.65,-3.324h0.333c1.382,0 3.601,1.496 6.648,4.488c0.886,0.75 2.396,1.084 4.543,0.998V47.123L31.542,47.123zM17.197,42.615c0,1.467 1.162,2.467 3.487,2.99h0.829c1.885,-0.191 2.828,-0.467 2.828,-0.828c-2.19,-2.105 -3.849,-3.154 -4.99,-3.154h-0.163C18.246,41.623 17.58,41.955 17.197,42.615z" id="path_0"/><path fill="#D50000" d="M283.086,19.211c0.325,0 0.651,1.113 0.977,3.324l1.461,3.324l-0.65,3.82l0.484,9.307v1.488c-0.214,3.799 -0.755,6.01 -1.621,6.648l-0.16,-0.164l0.16,-2.494c0,-2.24 -0.707,-9.385 -2.112,-21.426C282.303,20.486 282.788,19.211 283.086,19.211z" id="path_1"/><path fill="#D50000" d="M289.333,50.752c0.167,-0.094 0.215,0.057 0.146,0.461c-0.921,2.211 -2.334,3.756 -4.239,4.627l-7.002,3.594c-0.298,-0.084 -0.353,-0.332 -0.166,-0.744c0.935,-1.842 1.572,-2.934 1.912,-3.281L289.333,50.752z" id="path_2"/><path fill="#000001" d="M262.848,42.389c1.6,-0.207 2.396,-0.525 2.396,-0.957c0,-3.297 0.977,-7.279 2.923,-11.957c0.27,-0.609 0.54,-0.666 0.811,-0.17c0.706,1.551 1.946,2.828 3.733,3.82c3.685,1.828 5.52,4.322 5.52,7.477c0,3.297 -0.699,5.182 -2.112,5.648l-1.621,0.164l-6.171,-0.334c-1.718,0.752 -3.54,1.1 -5.479,1.043V42.389L262.848,42.389zM272.066,41.602l4.052,0.162l0.651,-0.162c-0.998,-1.418 -2.299,-2.523 -3.892,-3.324C272.579,38.277 272.309,39.383 272.066,41.602L272.066,41.602zM266.706,39.439c0,1.049 0.811,1.715 2.438,1.992c1.406,-0.801 2.105,-1.631 2.105,-2.488c-0.485,-1.998 -1.295,-2.99 -2.431,-2.99C267.654,35.953 266.948,37.115 266.706,39.439z" id="path_3"/><path fill="#000001" d="M269.095,16.68h1.607c1.946,0 2.922,0.746 2.922,2.24c-1.26,3.488 -2.791,5.338 -4.592,5.551l-2.126,0.291c-0.339,0 -0.478,-0.1 -0.429,-0.291c1.718,-0.93 3.325,-2.035 4.813,-3.303c-0.526,-0.504 -1.108,-0.752 -1.746,-0.752h-0.45l-1.745,0.148l-0.138,-0.148v-0.291C268.035,17.828 268.666,16.68 269.095,16.68z" id="path_4"/><path fill="#213e95" d="M263.617,47.145c-2.785,-0.191 -5.313,-1.752 -7.584,-4.672h-0.167c-0.969,5.756 -3.137,8.633 -6.49,8.641h-0.492c-1.455,-0.008 -2.868,-1.332 -4.218,-3.99c-1.081,-3.736 -1.621,-6.564 -1.621,-8.471V37.32c0,-0.83 0.159,-1.275 0.485,-1.326c0.457,0.248 1.004,2.063 1.634,5.451c0.63,3.381 1.925,4.996 3.886,4.848c3.789,-0.639 5.79,-2.855 6.005,-6.648l-1.461,-5.145v-1.83c0.055,-2.217 0.27,-3.324 0.651,-3.324c0.214,0.496 0.381,1 0.485,1.496l2.271,7.309c1.787,2.961 3.997,4.365 6.615,4.195V47.145z" id="path_5"/><path fill="#213e95" d="M256.296,53.473c0.166,-0.092 0.215,0.057 0.145,0.461c-0.921,2.211 -2.334,3.756 -4.239,4.629l-7.002,3.594c-0.298,-0.086 -0.354,-0.334 -0.167,-0.744c0.935,-1.844 1.572,-2.936 1.912,-3.283L256.296,53.473z" id="path_6"/><path fill="#000001" d="M235.227,23.244c1.6,0.523 2.847,1.189 3.733,1.992v0.332c0,0.553 -0.589,1.771 -1.78,3.658c-1.108,0 -2.355,-0.609 -3.733,-1.83v-0.332C233.446,25.873 234.042,24.598 235.227,23.244z" id="path_7"/><path fill="#000001" d="M230.6,42.389c4.252,0.041 6.628,-0.773 7.147,-2.453c0,-0.582 -0.54,-2.02 -1.627,-4.316l0.492,-4.316h0.319c1.413,2.488 2.112,4.982 2.112,7.471v1.496c0,0.998 -0.236,2.047 -0.7,3.146c-0.464,1.098 -1.184,2.027 -2.147,2.771c-0.969,0.75 -2.833,1.063 -5.596,0.936V42.389z" id="path_8"/><path fill="#000001" d="M241.8,13.172c0.166,-0.1 0.215,0.057 0.145,0.461c-0.921,2.211 -2.334,3.756 -4.239,4.629l-7.002,3.594c-0.298,-0.086 -0.354,-0.334 -0.167,-0.752c0.935,-1.844 1.572,-2.934 1.912,-3.281L241.8,13.172z" id="path_9"/><path fill="#D50000" d="M230.947,47.123c-3.152,0.191 -5.444,-1.297 -6.878,-4.465c-0.692,-1.178 -1.337,-9.109 -1.946,-23.795v-0.332c0.402,-2.439 0.998,-3.658 1.78,-3.658l0.817,-0.162c0.998,0 2.514,0.332 4.543,0.992v0.332c-0.111,0.334 -0.436,0.504 -0.977,0.504h-2.756c-0.568,0 -1.108,0.326 -1.628,0.992c0.506,12.75 1.24,20.137 2.217,22.156c0.969,2.02 2.583,2.92 4.828,2.701V47.123z" id="path_10"/><path fill="#D50000" d="M216.374,19.211c0.325,0 0.651,1.113 0.977,3.324l1.461,3.324l-0.65,3.82l0.484,9.307v1.488c-0.214,3.799 -0.755,6.01 -1.621,6.648l-0.16,-0.164l0.16,-2.494c0,-2.24 -0.707,-9.385 -2.112,-21.426C215.591,20.486 216.076,19.211 216.374,19.211z" id="path_11"/><path fill="#000001" d="M210.688,38.758c-0.36,1.879 -1.226,3.375 -2.576,4.488c-1.247,0.914 -3.567,1.801 -6.982,2.658c-7.155,0.467 -11.2,0.078 -12.134,-1.164c-0.998,-1.068 2.507,-1.906 10.514,-2.516c4.19,-0.609 7.439,-1.766 9.738,-3.467c0.028,-0.014 0.056,-0.084 0.083,-0.219c0.028,-0.127 -0.63,-5.33 -1.967,-15.607c0.485,-2.99 0.921,-4.479 1.295,-4.479l2.112,4.982c0,0.771 -0.27,1.936 -0.81,3.486l0.81,8.967C210.812,37.426 210.784,38.383 210.688,38.758z" id="path_12"/><path fill="#008046" d="M179.361,41.354h0.63c2.14,-0.234 3.941,-1.561 5.402,-3.969c0.214,-0.498 0.43,-0.773 0.644,-0.83h0.167l0.484,0.504c-0.069,0.631 -0.173,1.076 -0.326,1.324c0.949,1.771 2.085,2.658 3.408,2.658l0.166,0.164c2.355,-5.316 5.001,-7.975 7.951,-7.975c2.355,0 4.086,1 5.194,2.99v1c0,6.088 -3.678,9.137 -11.04,9.137l-2.431,-0.164c-0.755,2.098 -1.247,3.154 -1.461,3.154l-0.16,-0.162v-0.17l0.485,-2.822v-0.332c-1.6,-0.914 -2.84,-2.189 -3.733,-3.82c-0.838,2.807 -2.632,4.16 -5.381,4.047V41.354L179.361,41.354zM191.558,41.537h0.326c3.677,0 6.815,-0.553 9.413,-1.658c0,-1.191 -1.081,-2.02 -3.242,-2.494h-0.651C194.806,37.385 192.86,38.773 191.558,41.537z" id="path_13"/><path fill="#008046" d="M194.106,19.756c0.298,0.525 0.644,2.021 1.039,4.486c-0.242,1.496 -0.88,2.24 -1.912,2.24h-0.139c-0.45,0 -1.032,-0.297 -1.766,-0.893c-0.499,0.9 -1.232,1.354 -2.188,1.354c-1.164,0 -1.746,-1.445 -1.746,-4.338c0.339,-1.098 0.63,-1.645 0.873,-1.645l0.138,0.15v2.551c0.201,0.887 0.45,1.324 0.734,1.324h0.588c0.61,0 0.998,-0.248 1.178,-0.744l-0.305,-2.238c0.118,-0.752 0.318,-1.148 0.588,-1.184h0.305c0.305,2.488 0.796,3.734 1.454,3.734h1.018v-0.148l-0.443,-2.984v-0.17C193.642,20.252 193.836,19.756 194.106,19.756z" id="path_14"/><path fill="#008046" d="M196.69,50.234c0.167,-0.092 0.215,0.057 0.146,0.461c-0.921,2.211 -2.334,3.756 -4.239,4.627l-7.002,3.594c-0.298,-0.084 -0.353,-0.332 -0.167,-0.744c0.935,-1.842 1.572,-2.934 1.912,-3.281L196.69,50.234z" id="path_15"/><path fill="#008046" d="M179.368,46.102c-0.146,0.014 -0.298,0.021 -0.443,0.021h-0.817c-1.268,0 -2.133,-0.107 -2.597,-0.332c-0.942,3.727 -2.043,6.01 -3.304,6.846c-1.261,0.836 -4.107,1.545 -8.54,2.127h-0.326c-0.976,-0.113 -1.461,-0.277 -1.461,-0.496c0,-0.334 0.81,-0.723 2.431,-1.162c6.386,-2.992 9.579,-5.154 9.579,-6.479c0,-0.553 -0.755,-1.83 -2.272,-3.82c-0.326,-0.561 -0.485,-1.277 -0.485,-2.162v-1.658c0,-0.836 0.159,-1.275 0.485,-1.334c1.406,2.205 3.789,3.432 7.141,3.693c0.208,0 0.409,0 0.61,-0.014V46.102z" id="path_16"/><path fill="#008046" d="M175.939,26.064c0.167,-0.1 0.215,0.057 0.146,0.461c-0.921,2.211 -2.334,3.756 -4.239,4.629l-7.002,3.594c-0.298,-0.086 -0.354,-0.334 -0.167,-0.752c0.935,-1.844 1.572,-2.934 1.912,-3.281L175.939,26.064z" id="path_17"/><path fill="#008046" d="M159.04,19.211c0.326,0 0.651,1.113 0.976,3.324l1.462,3.324l-0.651,3.82l0.485,9.307v1.488c-0.215,3.799 -0.755,6.01 -1.621,6.648l-0.159,-0.164l0.159,-2.494c0,-2.24 -0.707,-9.385 -2.112,-21.426C158.257,20.486 158.742,19.211 159.04,19.211z" id="path_18"/><path fill="#008046" d="M139.75,18.219h0.319c0.354,0.553 1.06,2.381 2.112,5.479l-0.97,4.154l0.485,7.973l-0.326,1.332h0.159c1.926,-2.104 4.239,-3.16 6.939,-3.16h0.167c2.785,0 4.412,1.332 4.869,3.99c0,3.877 -1.517,6.535 -4.543,7.975c0,0.41 -3.615,0.801 -10.839,1.162l-5.52,-0.496v-0.504c0,-0.439 1.683,-1.049 5.036,-1.822l2.271,-5.314v-2.332l-1.136,-14.453C138.774,21.592 139.099,20.268 139.75,18.219L139.75,18.219zM139.91,43.635c5.79,-0.666 9.398,-1.332 10.833,-1.99l1.143,-0.838c-1.115,-1.658 -2.736,-2.486 -4.876,-2.486h-1.579c-1.621,0 -3.353,1.438 -5.194,4.316L139.91,43.635z" id="path_19"/><path fill="#008046" d="M155.895,20.65c0.166,-0.1 0.214,0.057 0.145,0.459c-0.921,2.213 -2.333,3.758 -4.238,4.629l-7.003,3.594c-0.297,-0.084 -0.353,-0.332 -0.166,-0.752c0.936,-1.842 1.572,-2.934 1.912,-3.281L155.895,20.65z" id="path_20"/><path fill="#000001" d="M128.737,19.211c0.326,0 0.651,1.113 0.977,3.324l1.461,3.324l-0.651,3.82l0.485,9.307v1.488c-0.215,3.799 -0.755,6.01 -1.621,6.648l-0.16,-0.164l0.16,-2.494c0,-2.24 -0.707,-9.385 -2.113,-21.426C127.955,20.486 128.439,19.211 128.737,19.211z" id="path_21"/><path fill="#213e95" d="M115.522,42.367c0.187,0.014 0.388,0.021 0.609,0.021h1.538c1.628,-0.277 2.868,-0.859 3.733,-1.744l-1.946,-15.785c0.485,-2.99 0.921,-4.479 1.295,-4.479l2.113,4.982c0,0.771 -0.27,1.936 -0.811,3.486l0.811,8.967v2.494c-0.609,2.645 -1.427,4.494 -2.452,5.543c-0.776,0.844 -1.683,1.27 -2.743,1.27h-1.378c-0.271,0 -0.526,-0.008 -0.769,-0.021V42.367z" id="path_22"/><path fill="#213e95" d="M121.015,10.805h1.607c1.946,0 2.922,0.744 2.922,2.24c-1.26,3.486 -2.791,5.336 -4.592,5.549l-2.126,0.291c-0.339,0 -0.478,-0.1 -0.429,-0.291c1.718,-0.928 3.324,-2.033 4.813,-3.303c-0.526,-0.502 -1.108,-0.75 -1.745,-0.75h-0.45l-1.746,0.148l-0.138,-0.148V14.25C119.955,11.953 120.585,10.805 121.015,10.805z" id="path_23"/><path fill="#000001" d="M102.342,42.389h0.367c1.108,0 2.279,-0.439 3.511,-1.318c1.233,-0.879 1.953,-1.984 2.175,-3.311l0.16,-0.17h0.159c0.194,0 0.464,0.609 0.817,1.828c1.537,2.162 3.705,3.154 6.489,2.992c0.188,0 0.381,-0.008 0.568,-0.021v4.756c-0.188,0.014 -0.381,0.021 -0.568,0.021l-2.271,-0.27c-0.242,2.211 -0.949,3.316 -2.112,3.324h-0.326c-2.161,-0.418 -3.241,-1.191 -3.241,-2.332l0.485,-2.992c-0.381,-0.439 -0.755,-0.658 -1.136,-0.658c-1.219,1.949 -2.909,2.912 -5.077,2.885V42.389z" id="path_24"/><path fill="#000001" d="M110.722,18.588c1.662,0 2.493,1.049 2.493,3.139c0,3.332 -2.777,6.174 -8.339,8.514c-0.796,0.248 -0.894,-0.051 -0.284,-0.895c0.153,-0.318 1.462,-1.318 3.935,-2.99v-0.143c-1.067,-0.445 -1.6,-1.395 -1.6,-2.848c0.707,-3.184 1.829,-4.777 3.366,-4.777H110.722L110.722,18.588zM108.243,22.182c0,0.885 0.734,1.432 2.195,1.645h0.284c0.54,0 0.887,-0.207 1.032,-0.604c0,-0.9 -0.637,-1.602 -1.905,-2.098C109.295,21.125 108.762,21.479 108.243,22.182z" id="path_25"/><path fill="#213e95" d="M103.256,47.123c-0.256,0 -0.568,0 -0.935,0c-1.448,-0.016 -3.006,-1.127 -4.689,-3.346c-0.644,2.438 -1.78,3.656 -3.408,3.656h-0.159c-1.379,0 -2.515,-0.828 -3.408,-2.494h-0.166c-0.97,1.998 -2.147,2.906 -3.533,2.723c-2.569,0.014 -4.093,-1.227 -4.585,-3.715c-1.808,2.168 -3.754,3.232 -5.825,3.176h-0.263v-4.734h0.083c3.276,-0.115 5.707,-1.256 7.307,-3.424c0.215,0 0.326,0.162 0.326,0.496l-0.166,1.162c0.866,1.771 2.001,2.658 3.407,2.658c1.33,0 2.68,-1.326 4.059,-3.984h0.167l0.485,0.496v1.164c0,1.049 0.762,1.658 2.271,1.828h0.326c1.406,0 2.708,-1.439 3.899,-4.324h0.159c0.215,0 0.326,0.504 0.326,1.496c0.596,1.68 2.036,2.488 4.322,2.432V47.123z" id="path_26"/><path fill="#213e95" d="M89.923,23.158h1.607c1.946,0 2.923,0.744 2.923,2.24c-1.26,3.488 -2.792,5.338 -4.592,5.551l-2.127,0.289c-0.339,0 -0.478,-0.098 -0.429,-0.289c1.718,-0.93 3.324,-2.035 4.813,-3.303c-0.527,-0.504 -1.108,-0.752 -1.746,-0.752h-0.45l-1.745,0.148l-0.139,-0.148v-0.291C88.864,24.307 89.494,23.158 89.923,23.158z" id="path_27"/><path fill="#000001" d="M65.543,28.666c0.672,0 1.863,0.83 3.567,2.488c0,0.553 -0.644,1.771 -1.946,3.656h-0.326c-0.679,0 -1.704,-0.666 -3.082,-1.998v-0.164C63.757,31.982 64.353,30.658 65.543,28.666z" id="path_28"/><path fill="#000001" d="M71.382,27.83c2.708,1.189 4.059,2.133 4.059,2.828c-0.159,0.523 -0.914,1.686 -2.271,3.486c-1.814,-0.723 -3.11,-1.553 -3.893,-2.494C69.845,29.801 70.544,28.523 71.382,27.83z" id="path_29"/><path fill="#000001" d="M62.676,42.389c1.157,0.014 1.87,-0.008 2.154,-0.064c2.438,-0.758 4.1,-2.375 4.993,-4.834c0.132,-0.475 0.402,-0.531 0.811,-0.17c0.214,0.191 0.381,0.971 0.485,2.324c1.476,2.035 3.318,2.949 5.52,2.744h0.43v4.734h-0.104c-3.449,-0.164 -5.991,-1.773 -7.632,-4.82h-0.16c-1.15,2.48 -2.667,4.004 -4.543,4.572c-0.568,0.162 -1.219,0.248 -1.954,0.248V42.389z" id="path_30"/><path fill="#000001" d="M75.22,15.787c0.166,-0.1 0.214,0.057 0.145,0.461c-0.921,2.211 -2.333,3.756 -4.239,4.629l-7.002,3.594c-0.297,-0.086 -0.353,-0.334 -0.166,-0.752c0.935,-1.844 1.572,-2.934 1.912,-3.281L75.22,15.787z" id="path_31"/><path fill="#008046" d="M46.144,42.389c1.801,0.154 3.332,-0.029 4.605,-0.539l-0.671,-1.248c-0.63,-3.656 -0.346,-6.074 0.852,-7.258c1.205,-1.184 2.5,-1.729 3.878,-1.631c2.68,0.129 4.19,1.566 4.543,4.316v1c0,2.297 -0.325,3.736 -0.97,4.316c-0.409,0.432 0.513,0.795 2.757,1.084l0.526,-0.02c0.409,-0.016 0.873,-0.021 1.399,-0.021v4.734l-1.641,0.021c-3.055,-0.016 -5.368,-0.412 -6.94,-1.184c-2.161,0.771 -3.844,1.162 -5.028,1.162h-0.651c-0.81,0 -1.697,0 -2.66,0V42.389L46.144,42.389zM51.885,37.695v0.334c0.679,1.189 1.704,2.02 3.082,2.488c0.921,-0.164 1.842,-0.555 2.763,-1.164c-0.408,-1.551 -1.759,-2.438 -4.058,-2.656C52.481,37.029 51.885,37.363 51.885,37.695z" id="path_32"/><path fill="#008046" d="M55.03,22.16c1.759,0.559 3.276,1.445 4.543,2.658v0.17c0,0.693 -0.7,1.799 -2.105,3.324c-0.437,0 -1.898,-0.555 -4.384,-1.666v0.17c-0.866,1.715 -1.406,2.602 -1.627,2.658c-1.406,-0.305 -2.598,-0.971 -3.567,-2c0.651,-2.764 1.191,-4.146 1.621,-4.146c0.353,0 1.655,0.66 3.899,1.992C53.409,24.74 53.949,23.684 55.03,22.16z" id="path_33"/><path fill="#008046" d="M59.573,49.838c0.167,-0.094 0.215,0.057 0.146,0.459c-0.921,2.213 -2.334,3.758 -4.239,4.629l-7.002,3.594c-0.298,-0.084 -0.353,-0.334 -0.166,-0.744c0.935,-1.842 1.572,-2.934 1.912,-3.281L59.573,49.838z" id="path_34"/><path fill="#000001" d="M41.919,48.285c1.683,0.693 2.922,1.467 3.74,2.324v0.17c-0.894,2.432 -1.6,3.65 -2.112,3.65c-0.409,0 -1.704,-0.666 -3.899,-1.992l-1.461,2.822c-2.812,-1.049 -4.218,-1.822 -4.218,-2.326c0.595,-2.268 1.191,-3.6 1.787,-3.982c0.457,0 1.863,0.717 4.218,2.162C40.866,49.229 41.517,48.285 41.919,48.285z" id="path_35"/><path fill="#000001" d="M30.962,42.389h1.06c2.105,-0.178 3.678,-1.035 4.703,-2.574l0.167,-0.502l-0.485,-2.488c0.104,-2.658 0.375,-3.99 0.811,-3.99c1.295,4.678 2.542,7.533 3.733,8.555c1.025,0.596 2.431,0.922 4.218,0.979c0.478,0 0.921,0 1.344,0v4.756c-0.533,0 -1.087,0 -1.669,0h-0.159c-3.11,0 -5.493,-1.773 -7.141,-5.316v-0.162l-1.461,2.982c-1.108,1.68 -2.736,2.51 -4.869,2.496h-0.249V42.389z" id="path_36"/><path fill="#000001" d="M37.521,19.424h1.607c1.946,0 2.922,0.744 2.922,2.24c-1.26,3.486 -2.792,5.336 -4.592,5.549l-2.126,0.291c-0.339,0 -0.478,-0.1 -0.429,-0.291c1.717,-0.928 3.324,-2.033 4.813,-3.303c-0.526,-0.504 -1.108,-0.752 -1.745,-0.752h-0.451l-1.745,0.15l-0.139,-0.15v-0.289C36.461,20.572 37.091,19.424 37.521,19.424z" id="path_37"/><path fill="#D50000" d="M23.828,23.328c0.166,-0.098 0.215,0.057 0.146,0.461c-0.921,2.211 -2.334,3.758 -4.239,4.629l-7.002,3.594c-0.298,-0.086 -0.353,-0.334 -0.167,-0.752c0.935,-1.842 1.573,-2.934 1.912,-3.281L23.828,23.328z" id="path_38"/></svg>