<svg id="vector" xmlns="http://www.w3.org/2000/svg" width="102" height="73" viewBox="0 0 102 73"><path fill="#213e95" d="M65.648,50.27c2.459,1.23 3.689,2.288 3.689,3.166c-1.17,2.317 -1.875,3.487 -2.107,3.517h-0.353c-1.8,-0.907 -2.917,-1.732 -3.337,-2.459C63.945,53.158 64.65,51.749 65.648,50.27z" id="path_0"/><path fill="#213e95" d="M56.063,45.613h2.025c2.137,-0.292 5.535,-1.087 10.192,-2.37v-0.18c-4.245,-1.875 -6.938,-2.813 -8.085,-2.813c-1.553,0 -2.603,0.878 -3.165,2.64l-0.524,0.353c-0.232,0 -0.354,-0.18 -0.354,-0.532c0.586,-3.51 2.168,-5.272 4.748,-5.272h0.877c1.088,0 4.777,1.229 11.078,3.69l4.747,0.353l0.345,0.532c-0.082,0.787 -0.787,2.31 -2.107,4.567h-0.524l-0.705,-0.18h-0.878c-9.143,2.699 -14.475,4.103 -15.997,4.222h-1.673V45.613z" id="path_1"/><path fill="#213e95" d="M72.676,22.693c0.18,-0.105 0.232,0.06 0.157,0.487c-0.997,2.34 -2.527,3.976 -4.59,4.897L60.66,31.88c-0.322,-0.09 -0.383,-0.353 -0.18,-0.795c1.012,-1.95 1.702,-3.104 2.07,-3.473L72.676,22.693z" id="path_2"/><path fill="#e21171" d="M47.633,30.628c0.6,0 2.01,0.704 4.223,2.107c0,0.877 -0.705,2.287 -2.115,4.223c-2.813,-0.908 -4.215,-1.733 -4.215,-2.46C45.601,33.838 46.298,32.548 47.633,30.628z" id="path_3"/><path fill="#e21171" d="M41.235,45.613c1.253,0.016 2.024,-0.008 2.333,-0.067c2.64,-0.803 4.439,-2.513 5.407,-5.115c0.143,-0.502 0.435,-0.563 0.878,-0.18c0.232,0.202 0.412,1.027 0.524,2.46c1.598,2.152 3.593,3.12 5.978,2.902h0.465v5.01h-0.112c-3.735,-0.172 -6.487,-1.875 -8.265,-5.1h-0.173c-1.245,2.625 -2.888,4.237 -4.92,4.838c-0.615,0.172 -1.32,0.262 -2.115,0.262V45.613z" id="path_4"/><path fill="#e21171" d="M51.631,17.946c0.322,0.555 0.697,2.138 1.125,4.747c-0.264,1.583 -0.953,2.37 -2.07,2.37h-0.15c-0.487,0 -1.117,-0.314 -1.912,-0.945c-0.54,0.953 -1.335,1.433 -2.371,1.433c-1.26,0 -1.889,-1.53 -1.889,-4.59c0.367,-1.162 0.682,-1.74 0.945,-1.74l0.149,0.158v2.7c0.218,0.937 0.487,1.402 0.794,1.402h0.639c0.66,0 1.08,-0.263 1.274,-0.788l-0.329,-2.37c0.127,-0.795 0.344,-1.215 0.637,-1.252h0.33c0.33,2.632 0.862,3.952 1.574,3.952h1.104v-0.157L51,19.708v-0.181C51.127,18.47 51.338,17.946 51.631,17.946z" id="path_5"/><path fill="#e21171" d="M54.285,8.278c0.18,-0.104 0.232,0.061 0.158,0.487c-0.998,2.341 -2.527,3.976 -4.59,4.898l-7.583,3.802c-0.323,-0.09 -0.383,-0.352 -0.181,-0.795c1.013,-1.95 1.703,-3.104 2.07,-3.473L54.285,8.278z" id="path_6"/><path fill="#000001" d="M26.865,20.518h0.705c2.317,1.32 3.488,2.085 3.518,2.287c-1.148,2.46 -1.905,3.75 -2.287,3.87c-1.32,0 -2.611,-0.645 -3.871,-1.935C25.17,23.481 25.814,22.071 26.865,20.518z" id="path_7"/><path fill="#000001" d="M33.016,19.64c1.117,0 2.467,0.766 4.05,2.288c0,0.615 -0.765,1.845 -2.288,3.689c-0.877,0 -2.167,-0.585 -3.869,-1.755C30.908,22.835 31.613,21.425 33.016,19.64z" id="path_8"/><path fill="#000001" d="M41.678,50.623h-0.045c-3.367,0 -5.655,-1.642 -6.855,-4.92l-0.352,-1.409h-0.354c-0.262,0.937 -2.137,1.522 -5.625,1.762H27.57c-2.348,0 -3.518,-0.705 -3.518,-2.114v-1.583c0,-1.695 1.29,-3.802 3.87,-6.322c1.552,-1.178 3.308,-2.168 5.272,-2.992l-0.18,-0.525c0.645,-2.933 1.178,-4.396 1.582,-4.396c0.21,0.495 0.503,4.133 0.885,10.898c0.525,4.56 2.588,6.772 6.195,6.659V50.623L41.678,50.623zM26.16,40.43c0.676,0.466 1.793,0.698 3.346,0.698c1.521,-0.113 2.924,-0.405 4.215,-0.878l-0.354,-4.92h-0.172C28.508,37.558 26.16,39.253 26.16,40.43z" id="path_9"/><path fill="#f06022" d="M37.695,55.895l0.18,0.158v0.479c-0.907,1.95 -2.174,3.315 -3.803,4.11c-5.039,2.737 -7.837,4.109 -8.393,4.109c-0.201,0 -0.307,-0.164 -0.307,-0.487c0.48,-1.859 1.537,-3.12 3.165,-3.779l9.007,-4.591H37.695z" id="path_10"/><path fill="#f06022" d="M36.443,51.943c0.209,0 0.307,0.15 0.307,0.458c-0.585,1.702 -2.317,3.232 -5.205,4.597l-6.66,3.646l-0.149,-0.157v-0.173c0.63,-2.228 1.635,-3.6 3.007,-4.11l7.434,-3.802L36.443,51.943z" id="path_11"/></svg>