<svg id="vector" xmlns="http://www.w3.org/2000/svg" width="190" height="73" viewBox="0 0 189.6 72.961"><path fill="#000001" d="M179.078,19.1c1.522,0 2.925,0.938 4.215,2.813c-1.08,2.459 -1.905,3.689 -2.46,3.689c-2.37,-1.17 -3.66,-1.934 -3.87,-2.287C176.963,22.205 177.668,20.795 179.078,19.1z" id="path_0"/><path fill="#000001" d="M173.386,41.156h0.877c5.468,-0.104 9.098,-0.869 10.897,-2.309l0.353,-0.697c-0.232,-0.563 -0.524,-0.84 -0.877,-0.84c-0.848,0.473 -1.785,0.705 -2.813,0.705h-0.181c-3.045,-0.354 -4.627,-1.584 -4.74,-3.691v-0.18c0.293,-3.982 1.23,-5.971 2.813,-5.971h0.878c2.708,-0.135 4.763,1.973 6.15,6.324l0.172,1.762v0.352c-0.037,4.307 -1.582,7.148 -4.635,8.521c-1.08,0.689 -4.05,1.035 -8.895,1.035V41.156z" id="path_1"/><path fill="#000001" d="M185.573,7.205c0.18,-0.105 0.232,0.059 0.157,0.486c-0.997,2.34 -2.527,3.975 -4.59,4.898l-7.583,3.803c-0.322,-0.09 -0.382,-0.354 -0.18,-0.795c1.013,-1.951 1.702,-3.105 2.07,-3.473L185.573,7.205z" id="path_2"/><path fill="#D50000" d="M148.396,45.35c-2.61,-0.449 -3.915,-1.043 -3.923,-1.777c-0.007,-0.734 3.848,-1.463 11.573,-2.197h0.172c6.18,-1.32 9.271,-2.67 9.271,-4.043c-0.173,-1.23 0.06,-1.703 0.705,-1.41c0.119,3.412 2.407,5.115 6.854,5.1c0.195,-0.014 0.383,-0.021 0.57,-0.021v5.031c-0.391,0.061 -0.758,0.09 -1.095,0.09l-2.461,-0.352c-0.149,2.58 -0.795,3.863 -1.935,3.863h-0.525c-1.582,0 -2.58,-1.051 -2.992,-3.158c0,-0.938 0.24,-2.176 0.705,-3.697c0.015,-0.773 -0.277,-1.064 -0.877,-0.879c-1.336,0.705 -3.046,1.561 -5.146,2.574C154.635,45.514 151.006,45.807 148.396,45.35z" id="path_3"/><path fill="#D50000" d="M171.818,22.258c0.18,-0.105 0.232,0.059 0.157,0.486c-0.998,2.34 -2.527,3.975 -4.59,4.898l-7.583,3.803c-0.322,-0.09 -0.382,-0.354 -0.18,-0.795c1.013,-1.951 1.702,-3.105 2.07,-3.473L171.818,22.258z" id="path_4"/><path fill="#000001" d="M153.053,44.576c0.6,1.074 0.93,1.703 0.99,1.891l0.082,1.432c-0.015,2.535 -0.353,4.283 -1.027,5.252c-0.675,0.967 -1.529,1.453 -2.572,1.469c-2.258,0 -4.598,-1.814 -7.035,-5.445c-0.42,-0.719 -0.832,-1.656 -1.229,-2.813h-1.755c-0.398,0 -0.773,-0.021 -1.141,-0.066v-5.033c0.54,0.121 1.095,0.172 1.665,0.172h0.705c0.968,-3.75 2.61,-6.563 4.92,-8.438c1.2,-0.938 2.317,-1.402 3.345,-1.402c1.583,0 2.521,1.172 2.813,3.518c0.465,2.355 -0.06,4.809 -1.582,7.357L153.053,44.576L153.053,44.576zM145.253,46.182c1.2,2.115 2.955,3.285 5.272,3.518c1.17,-0.105 1.935,-0.51 2.287,-1.23c-0.104,-1.416 -0.922,-2.279 -2.46,-2.578c-1.545,-0.301 -2.774,-0.406 -3.705,-0.301C145.718,45.695 145.253,45.891 145.253,46.182L145.253,46.182zM143.49,40.736c-0.128,0.391 0.045,0.57 0.532,0.525c2.228,0 4.448,-0.998 6.675,-2.984v-0.18c-0.494,-1.17 -1.14,-1.756 -1.927,-1.756C147.022,36.117 145.268,37.588 143.49,40.736z" id="path_5"/><path fill="#000001" d="M150.548,19.422c0.322,0.555 0.698,2.137 1.125,4.748c-0.263,1.582 -0.952,2.369 -2.07,2.369h-0.149c-0.487,0 -1.117,-0.314 -1.913,-0.945c-0.54,0.953 -1.334,1.434 -2.37,1.434c-1.26,0 -1.89,-1.531 -1.89,-4.59c0.367,-1.164 0.683,-1.74 0.945,-1.74l0.15,0.158v2.699c0.217,0.938 0.487,1.402 0.794,1.402h0.638c0.66,0 1.08,-0.262 1.275,-0.787l-0.33,-2.371c0.128,-0.795 0.345,-1.215 0.638,-1.252h0.33c0.33,2.633 0.862,3.953 1.574,3.953h1.104v-0.158l-0.48,-3.158v-0.18C150.046,19.947 150.256,19.422 150.548,19.422z" id="path_6"/><path fill="#000001" d="M155.138,57.41c0.181,-0.098 0.232,0.059 0.158,0.486c-0.998,2.34 -2.528,3.975 -4.59,4.898l-7.583,3.803c-0.322,-0.09 -0.383,-0.354 -0.18,-0.789c1.012,-1.949 1.702,-3.104 2.069,-3.471L155.138,57.41z" id="path_7"/><path fill="#213e95" d="M139.059,46.205c-1.703,0.014 -3.105,-0.855 -4.223,-2.611h-0.173c-0.825,2.926 -2.056,4.98 -3.69,6.15c-2.317,2.229 -4.838,3.338 -7.56,3.338h-1.058c-3.105,0 -5.857,-1.756 -8.258,-5.273c-0.938,-1.611 -1.41,-3.486 -1.41,-5.625c0,-3.014 1.523,-6.059 4.576,-9.135c1.59,-1.012 2.063,-0.951 1.402,0.174c-2.693,3.75 -4.043,6.33 -4.043,7.732c0,3.637 2.692,6.037 8.085,7.207h1.41c3.015,0 6,-1.523 8.962,-4.568c0.309,-0.967 0.368,-2.023 0.173,-3.164c-0.585,-2.49 -1.462,-8.82 -2.632,-18.982l1.049,-3.518c0.166,-0.029 0.338,-0.029 0.533,0c0.322,0 0.908,4.455 1.755,13.357c0.585,4.688 1.29,7.619 2.107,8.789c0.72,0.795 1.718,1.164 2.993,1.119V46.205z" id="path_8"/><path fill="#000001" d="M106.065,20.254c0.353,0 0.705,1.178 1.058,3.518l1.582,3.518L108,31.332l0.525,9.848v1.574c-0.232,4.021 -0.818,6.361 -1.755,7.035l-0.173,-0.172l0.173,-2.641c0,-2.369 -0.765,-9.93 -2.288,-22.672C105.218,21.605 105.742,20.254 106.065,20.254z" id="path_9"/><path fill="#D50000" d="M90.555,44.098c0.203,0.014 0.42,0.021 0.66,0.021h1.665c1.763,-0.291 3.104,-0.906 4.042,-1.844l-2.107,-16.703c0.525,-3.166 0.998,-4.74 1.402,-4.74l2.288,5.273c0,0.816 -0.292,2.047 -0.878,3.689l0.878,9.486v2.641c-0.659,2.797 -1.545,4.756 -2.655,5.865c-0.84,0.893 -1.822,1.342 -2.97,1.342h-1.492c-0.293,0 -0.57,-0.006 -0.833,-0.021V44.098z" id="path_10"/><path fill="#D50000" d="M96.502,10.699h1.74c2.107,0 3.165,0.787 3.165,2.371c-1.364,3.689 -3.022,5.646 -4.972,5.871l-2.303,0.309c-0.367,0 -0.518,-0.105 -0.465,-0.309c1.859,-0.982 3.6,-2.152 5.212,-3.494c-0.569,-0.533 -1.2,-0.795 -1.89,-0.795h-0.488l-1.89,0.156l-0.149,-0.156v-0.309C95.355,11.914 96.037,10.699 96.502,10.699z" id="path_11"/><path fill="#000001" d="M74.355,43.309c2.063,-0.465 3.337,-1.334 3.824,-2.594c0.203,-0.697 0.263,-1.283 0.173,-1.756c-2.896,-6.135 -4.351,-9.734 -4.351,-10.785c-0.143,-1.822 0.03,-3.523 0.533,-5.121c0.494,-1.598 1.313,-2.701 2.459,-3.316l13.883,-8.438c0.354,0.084 -0.104,1.313 -1.357,3.676c-1.26,2.369 -2.032,3.607 -2.31,3.713c-0.278,0.111 -0.465,-0.301 -0.548,-1.238c-5.422,3.428 -8.662,5.512 -9.713,6.264c-1.057,0.75 -1.688,1.408 -1.889,1.994c1.642,4.455 3.906,9.143 6.81,14.063c2.077,2.842 5.01,4.268 8.79,4.268c0.247,0 0.563,0 0.945,0v5.033l-0.593,0.021c-5.13,0 -8.88,-2.52 -11.251,-7.561c-0.149,-0.307 -0.262,-0.367 -0.352,-0.18c-0.953,4.02 -2.641,6.309 -5.055,6.879c-0.848,0.27 -1.719,0.42 -2.618,0.465v-5.033C72.72,43.588 73.59,43.475 74.355,43.309z" id="path_12"/><path fill="#000001" d="M54.053,43.684c1.949,0.166 3.607,-0.029 4.986,-0.568l-0.727,-1.32c-0.683,-3.871 -0.375,-6.428 0.922,-7.68c1.305,-1.254 2.708,-1.83 4.201,-1.725c2.901,0.135 4.537,1.656 4.92,4.566v1.057c0,2.432 -0.354,3.953 -1.051,4.568c-0.442,0.457 0.555,0.84 2.985,1.148l0.569,-0.023c0.443,-0.016 0.945,-0.023 1.516,-0.023v5.012l-1.777,0.021c-3.308,-0.016 -5.813,-0.436 -7.516,-1.252c-2.34,0.816 -4.162,1.23 -5.445,1.23h-0.704c-0.878,0 -1.838,0 -2.88,0V43.684L54.053,43.684zM60.27,38.719v0.354c0.734,1.26 1.846,2.137 3.338,2.633c0.997,-0.174 1.994,-0.586 2.992,-1.23c-0.442,-1.643 -1.904,-2.58 -4.395,-2.813C60.915,38.014 60.27,38.367 60.27,38.719z" id="path_13"/><path fill="#000001" d="M61.327,23.779c1.522,0 2.925,0.938 4.216,2.813c-1.08,2.461 -1.906,3.689 -2.461,3.689c-2.369,-1.17 -3.66,-1.934 -3.869,-2.287C59.213,26.885 59.917,25.475 61.327,23.779z" id="path_14"/><path fill="#000001" d="M69.449,52.354c0.181,-0.098 0.232,0.061 0.158,0.488c-0.998,2.34 -2.527,3.975 -4.59,4.898l-7.583,3.801c-0.322,-0.09 -0.382,-0.352 -0.18,-0.787c1.013,-1.949 1.702,-3.104 2.069,-3.473L69.449,52.354z" id="path_15"/><path fill="#000001" d="M54.045,48.709c-0.158,0.016 -0.322,0.023 -0.48,0.023H52.68c-1.373,0 -2.311,-0.113 -2.813,-0.354c-1.02,3.945 -2.213,6.361 -3.578,7.246s-4.447,1.635 -9.247,2.25h-0.353c-1.058,-0.121 -1.582,-0.293 -1.582,-0.525c0,-0.354 0.877,-0.766 2.633,-1.23c6.914,-3.164 10.372,-5.451 10.372,-6.855c0,-0.584 -0.817,-1.934 -2.46,-4.041c-0.354,-0.594 -0.525,-1.352 -0.525,-2.289V41.18c0,-0.885 0.172,-1.35 0.525,-1.41c1.522,2.332 4.102,3.629 7.732,3.908c0.225,0 0.442,0 0.66,-0.016V48.709z" id="path_16"/><path fill="#000001" d="M49.08,59.584c0.18,-0.098 0.232,0.061 0.157,0.488c-0.997,2.34 -2.527,3.975 -4.59,4.896l-7.583,3.803c-0.322,-0.09 -0.383,-0.352 -0.18,-0.787c1.012,-1.949 1.702,-3.105 2.07,-3.473L49.08,59.584z" id="path_17"/><path fill="#D50000" d="M28.409,48.357h0.353c1.199,0.262 2.49,0.967 3.869,2.115v0.172c-0.794,2.4 -1.492,3.689 -2.106,3.869c-1.793,-0.352 -3.136,-0.938 -4.043,-1.762V52.58C26.481,51.199 27.127,49.797 28.409,48.357z" id="path_18"/><path fill="#D50000" d="M34.919,46.773h0.173c1.199,0.182 2.55,0.998 4.043,2.461v0.18l-2.107,3.689c-2.813,-0.906 -4.223,-1.672 -4.223,-2.287C33.711,48.125 34.416,46.773 34.919,46.773z" id="path_19"/><path fill="#D50000" d="M26.85,40.316c4.604,0.045 7.178,-0.816 7.74,-2.594c0,-0.615 -0.586,-2.139 -1.764,-4.568l0.533,-4.566h0.345c1.53,2.631 2.288,5.271 2.288,7.904v1.582c0,1.059 -0.256,2.168 -0.758,3.33s-1.283,2.145 -2.325,2.932c-1.05,0.797 -3.067,1.125 -6.06,0.99V40.316z" id="path_20"/><path fill="#D50000" d="M35.549,16.107h1.74c2.107,0 3.165,0.787 3.165,2.369c-1.364,3.691 -3.022,5.648 -4.973,5.873l-2.303,0.307c-0.367,0 -0.517,-0.104 -0.465,-0.307c1.86,-0.982 3.601,-2.152 5.213,-3.494c-0.57,-0.533 -1.2,-0.797 -1.89,-0.797h-0.488l-1.89,0.158l-0.149,-0.158v-0.307C34.401,17.322 35.084,16.107 35.549,16.107z" id="path_21"/><path fill="#000001" d="M13.934,40.646c1.732,0.555 3.075,1.26 4.043,2.107v0.354c0,0.584 -0.645,1.875 -1.936,3.869c-1.199,0 -2.542,-0.645 -4.042,-1.934v-0.354C11.999,43.43 12.645,42.088 13.934,40.646z" id="path_22"/><path fill="#000001" d="M29.429,45.26c-1.597,0 -2.835,-0.248 -3.72,-0.742c-0.436,3.811 -1.252,6.441 -2.46,7.912c-2.896,3.629 -5.888,5.445 -8.962,5.445c-5.656,0 -9.346,-2.461 -11.078,-7.381c-0.345,-0.938 -0.525,-1.936 -0.525,-2.992V46.1c0,-4.162 1.29,-7.439 3.87,-9.848c0.466,0.18 0.705,0.584 0.705,1.23l-2.813,5.1l-0.181,1.756c0,3.959 2.168,6.711 6.504,8.264l4.574,0.354c1.928,0 4.335,-1.117 7.208,-3.338c1.05,-1.703 1.582,-2.934 1.582,-3.697c-0.12,-1.17 -0.885,-2.865 -2.287,-5.094v-3.697l0.524,-0.525c1.275,2.566 3.631,3.803 7.058,3.713V45.26z" id="path_23"/><path fill="#000001" d="M20.564,21.049c0.18,-0.104 0.232,0.061 0.157,0.488c-0.997,2.34 -2.527,3.975 -4.59,4.896l-7.583,3.803c-0.322,-0.09 -0.383,-0.352 -0.18,-0.795c1.012,-1.949 1.702,-3.104 2.07,-3.473L20.564,21.049z" id="path_24"/><path fill="#000001" d="M72.195,4.189c1.409,2.398 2.114,4.746 2.114,7.027c-0.614,4.334 -1.38,6.502 -2.287,6.502l-0.173,-0.172v-0.174l0.346,-2.287v-0.18c0,-1.402 -0.586,-3.51 -1.756,-6.322V8.23C71.025,5.531 71.609,4.189 72.195,4.189z" id="path_25"/><path fill="#213e95" d="M131.934,57.41c0.181,-0.098 0.232,0.059 0.158,0.486c-0.998,2.34 -2.527,3.975 -4.59,4.898l-7.583,3.803c-0.322,-0.09 -0.382,-0.354 -0.181,-0.789c1.014,-1.949 1.703,-3.104 2.07,-3.471L131.934,57.41z" id="path_26"/></svg>