<svg id="vector" xmlns="http://www.w3.org/2000/svg" width="102" height="73" viewBox="0 0 102 73"><path fill="#008046" d="M72.495,51.866c0.442,0.029 0.893,0.045 1.343,0.045h0.525l2.197,-0.525c-0.525,-0.982 -0.788,-1.665 -0.788,-2.048c0,-5.625 1.815,-8.438 5.445,-8.438l1.41,-0.172c1.845,0.292 4.193,1.402 7.028,3.338l0.18,0.704l-0.18,0.173h-0.698c-1.35,-0.938 -2.873,-1.402 -4.575,-1.402c-2.603,0 -4.77,0.758 -6.502,2.28v0.18c1.522,2.46 4.335,3.69 8.438,3.69c3.225,-1.171 5.333,-1.756 6.33,-1.756c-0.555,3.278 -1.613,4.92 -3.165,4.92c-6.945,2.692 -12.45,4.043 -16.523,4.043h-0.465V51.866z" id="path_0"/><path fill="#008046" d="M80.34,31.759c2.933,0.938 4.395,1.702 4.395,2.287v0.353c-0.998,2.58 -1.755,3.87 -2.28,3.87c-2.61,-1.147 -3.96,-1.905 -4.05,-2.287v-0.354C78.405,34.781 79.05,33.491 80.34,31.759z" id="path_1"/><path fill="#008046" d="M87.72,19.849c0.18,-0.105 0.232,0.06 0.157,0.487c-0.997,2.34 -2.527,3.975 -4.59,4.897l-7.583,3.803c-0.322,-0.09 -0.382,-0.353 -0.18,-0.795c1.012,-1.95 1.702,-3.105 2.07,-3.473L87.72,19.849z" id="path_2"/><path fill="#D50000" d="M73.2,56.898c-0.277,0 -0.615,0 -1.013,0c-1.567,-0.015 -3.255,-1.192 -5.077,-3.54c-0.698,2.58 -1.928,3.87 -3.69,3.87h-0.172c-1.493,0 -2.723,-0.877 -3.69,-2.64h-0.18c-1.05,2.114 -2.325,3.074 -3.825,2.88c-2.782,0.015 -4.432,-1.298 -4.964,-3.931c-1.958,2.295 -4.065,3.42 -6.308,3.36h-0.285v-5.01h0.09c3.547,-0.12 6.18,-1.328 7.913,-3.623c0.232,0 0.353,0.173 0.353,0.525l-0.18,1.229c0.938,1.875 2.167,2.813 3.689,2.813c1.44,0 2.903,-1.402 4.396,-4.215h0.18l0.525,0.525v1.229c0,1.11 0.825,1.755 2.459,1.936h0.353c1.522,0 2.932,-1.522 4.222,-4.575h0.172c0.232,0 0.353,0.532 0.353,1.583c0.645,1.777 2.205,2.632 4.68,2.572V56.898z" id="path_3"/><path fill="#D50000" d="M62.385,31.406c0.322,0.555 0.698,2.138 1.125,4.747c-0.263,1.583 -0.953,2.37 -2.07,2.37h-0.15c-0.487,0 -1.117,-0.315 -1.913,-0.945c-0.54,0.953 -1.334,1.433 -2.37,1.433c-1.26,0 -1.89,-1.53 -1.89,-4.59c0.367,-1.163 0.683,-1.74 0.945,-1.74l0.15,0.158v2.699c0.217,0.938 0.487,1.402 0.795,1.402h0.637c0.66,0 1.08,-0.262 1.275,-0.787l-0.33,-2.37c0.127,-0.795 0.345,-1.215 0.637,-1.252h0.33c0.33,2.632 0.863,3.952 1.575,3.952h1.103v-0.157l-0.48,-3.157v-0.181C61.882,31.931 62.092,31.406 62.385,31.406z" id="path_4"/><path fill="#D50000" d="M65.047,21.738c0.18,-0.104 0.232,0.061 0.157,0.487c-0.998,2.34 -2.527,3.976 -4.59,4.898l-7.583,3.802c-0.322,-0.09 -0.383,-0.353 -0.18,-0.795c1.013,-1.95 1.703,-3.104 2.07,-3.473L65.047,21.738z" id="path_5"/><path fill="#000001" d="M44.97,56.898h-0.443c-4.245,0 -6.885,-2.985 -7.905,-8.963l-1.057,-17.055c0.442,-2.46 0.907,-3.862 1.41,-4.215h0.172c0.232,0 0.353,0.172 0.353,0.525c0,11.632 0.757,18.982 2.288,22.057c1.552,1.718 3.277,2.588 5.183,2.618V56.898z" id="path_6"/><path fill="#008046" d="M18.735,51.889h0.877c5.468,-0.105 9.098,-0.87 10.897,-2.311l0.353,-0.697c-0.232,-0.563 -0.525,-0.84 -0.877,-0.84c-0.848,0.473 -1.785,0.705 -2.813,0.705h-0.18c-3.045,-0.353 -4.627,-1.583 -4.74,-3.69v-0.18c0.292,-3.982 1.23,-5.97 2.813,-5.97h0.877c2.708,-0.136 4.763,1.972 6.15,6.322l0.172,1.763v0.353c-0.037,4.305 -1.583,7.147 -4.635,8.52c-1.08,0.69 -4.05,1.035 -8.895,1.035V51.889z" id="path_7"/><path fill="#008046" d="M26.467,29.719c1.905,0.585 3.548,1.522 4.92,2.813v0.172c0,0.735 -0.758,1.905 -2.28,3.518c-0.473,0 -2.055,-0.585 -4.748,-1.755v0.173c-0.938,1.814 -1.522,2.752 -1.763,2.813c-1.522,-0.322 -2.812,-1.027 -3.862,-2.107c0.705,-2.933 1.29,-4.396 1.755,-4.396c0.382,0 1.785,0.705 4.222,2.107C24.712,32.44 25.297,31.331 26.467,29.719z" id="path_8"/><path fill="#f06022" d="M30.952,19.458l0.18,0.157v0.48c-0.915,1.95 -2.182,3.315 -3.802,4.11c-5.04,2.737 -7.837,4.109 -8.393,4.109c-0.21,0 -0.315,-0.165 -0.315,-0.487c0.488,-1.859 1.545,-3.12 3.166,-3.78l9.015,-4.59H30.952z" id="path_9"/><path fill="#f06022" d="M29.7,15.506c0.203,0 0.308,0.149 0.308,0.457c-0.585,1.703 -2.317,3.233 -5.205,4.598l-6.66,3.646l-0.15,-0.158v-0.172c0.63,-2.228 1.627,-3.601 3.008,-4.11l7.425,-3.803L29.7,15.506z" id="path_10"/><path fill="#008046" d="M18.908,56.898c-3.413,0.202 -5.895,-1.373 -7.448,-4.725c-0.75,-1.245 -1.447,-9.638 -2.107,-25.178v-0.353c0.435,-2.58 1.08,-3.87 1.928,-3.87l0.885,-0.173c1.08,0 2.723,0.353 4.92,1.05v0.354c-0.12,0.352 -0.473,0.532 -1.057,0.532h-2.985c-0.615,0 -1.2,0.345 -1.762,1.05c0.547,13.492 1.342,21.308 2.4,23.445c1.05,2.137 2.797,3.09 5.228,2.857V56.898z" id="path_11"/></svg>