<svg id="vector" xmlns="http://www.w3.org/2000/svg" width="102" height="73" viewBox="0 0 102 73"><path fill="#008046" d="M51.574,43.01c-0.158,0.015 -0.322,0.022 -0.48,0.022h-0.885c-1.373,0 -2.311,-0.113 -2.813,-0.353c-1.02,3.945 -2.213,6.36 -3.577,7.245c-1.365,0.885 -4.448,1.635 -9.247,2.25h-0.354c-1.057,-0.12 -1.582,-0.293 -1.582,-0.525c0,-0.353 0.877,-0.765 2.633,-1.229c6.914,-3.166 10.372,-5.453 10.372,-6.855c0,-0.585 -0.817,-1.935 -2.46,-4.042c-0.353,-0.593 -0.525,-1.351 -0.525,-2.288V35.48c0,-0.885 0.173,-1.35 0.525,-1.41c1.522,2.333 4.103,3.63 7.732,3.907c0.225,0 0.442,0 0.66,-0.015V43.01z" id="path_0"/><path fill="#008046" d="M47.861,21.808c0.18,-0.105 0.232,0.06 0.158,0.487c-0.998,2.34 -2.527,3.975 -4.59,4.897l-7.584,3.802c-0.322,-0.09 -0.382,-0.352 -0.18,-0.794c1.014,-1.95 1.703,-3.105 2.07,-3.474L47.861,21.808z" id="path_1"/><path fill="#ba5927" d="M14.119,26.158c1.372,0.412 2.783,1.29 4.215,2.64v0.173c-1.32,2.317 -2.078,3.487 -2.287,3.518h-0.525c-0.998,-0.143 -2.047,-0.788 -3.165,-1.936V30.38C12.477,29 13.062,27.597 14.119,26.158z" id="path_2"/><path fill="#ba5927" d="M20.794,26.51c1.29,0.292 2.58,1.058 3.87,2.287v0.173c0,0.645 -0.705,1.822 -2.107,3.518h-0.533c-0.816,0 -1.875,-0.646 -3.164,-1.936C19.182,28.738 19.826,27.387 20.794,26.51z" id="path_3"/><path fill="#ba5927" d="M6.582,28.445h0.172l0.353,0.353c-0.938,2.077 -1.402,3.487 -1.402,4.215c0,3.428 3.277,5.423 9.84,5.978l2.107,0.353c2.115,0 5.272,-0.645 9.495,-1.935l2.46,-1.402c-0.817,-1.493 -1.35,-2.783 -1.583,-3.87l0.354,-3.338h0.352c1.402,1.463 2.107,4.043 2.107,7.732c0,3.548 -3.104,5.947 -9.314,7.208l-2.64,0.353c-9.841,0 -14.761,-3.226 -14.761,-9.668C4.121,31.73 4.939,29.735 6.582,28.445z" id="path_4"/><path fill="#ba5927" d="M16.773,12.275h1.74c2.107,0 3.166,0.788 3.166,2.37c-1.365,3.689 -3.023,5.647 -4.973,5.873l-2.303,0.307c-0.367,0 -0.518,-0.104 -0.465,-0.307c1.859,-0.983 3.6,-2.153 5.213,-3.495c-0.57,-0.533 -1.201,-0.796 -1.891,-0.796h-0.488l-1.889,0.158l-0.15,-0.158V15.92C15.627,13.49 16.309,12.275 16.773,12.275z" id="path_5"/><path fill="#213e95" d="M76.189,39.627h0.067c2.723,-0.12 4.598,-1.433 5.625,-3.953c0,-0.352 0.232,-0.645 0.705,-0.885h0.353c0.232,0 0.353,0.181 0.353,0.533l-0.181,1.05c0.998,1.763 2.056,2.64 3.166,2.64h0.877c1.522,0 2.7,-1.522 3.518,-4.567h0.18c0.173,0.022 0.465,0.728 0.878,2.107c0.997,0.878 1.987,1.402 2.985,1.583c1.17,0 1.762,-0.705 1.762,-2.107c0.113,-2.228 0.346,-3.346 0.697,-3.346c0.473,0.998 0.705,2.228 0.705,3.69c0,4.342 -1.057,6.51 -3.164,6.51c-1.643,0 -2.985,-0.825 -4.043,-2.468h-0.353c-0.728,2.348 -1.905,3.518 -3.518,3.518h-0.173c-1.432,0 -3.074,-1.109 -4.92,-3.337c-1.553,2.692 -3.314,4.042 -5.271,4.042h-0.248V39.627z" id="path_6"/><path fill="#213e95" d="M89.659,15.432c1.8,0 2.7,1.11 2.7,3.323c0,3.524 -3.008,6.532 -9.03,9.008c-0.862,0.262 -0.968,-0.053 -0.308,-0.945c0.165,-0.338 1.583,-1.396 4.26,-3.165v-0.15c-1.154,-0.473 -1.732,-1.478 -1.732,-3.015c0.766,-3.368 1.98,-5.056 3.646,-5.056H89.659L89.659,15.432zM86.975,19.235c0,0.938 0.795,1.516 2.377,1.74h0.308c0.585,0 0.96,-0.218 1.118,-0.638c0,-0.952 -0.69,-1.695 -2.063,-2.22C88.114,18.118 87.537,18.493 86.975,19.235z" id="path_7"/><path fill="#000001" d="M51.687,37.985c1.44,0 2.49,0 3.165,0h0.705c2.107,-0.277 5.258,-1.178 9.45,-2.7c-1.41,-1.177 -3.577,-2.055 -6.503,-2.64c-1.732,0 -2.902,0.817 -3.518,2.46c-0.217,0.487 -0.412,0.615 -0.584,0.383c-0.166,-0.226 -0.211,-0.525 -0.121,-0.908c1.059,-3.547 2.461,-5.317 4.223,-5.317h1.23c1.17,0 3.285,0.66 6.338,1.98c3.053,1.313 5.685,1.845 7.896,1.582c0.277,0 0.398,0.173 0.354,0.525c-0.473,2.925 -1.351,4.395 -2.641,4.395l-0.877,0.173v0.353c0.441,1.215 2.467,1.657 6.09,1.32v4.987c-5.242,0.277 -7.86,-1.763 -7.846,-6.128c-1.875,0.277 -4.417,1.147 -7.627,2.625c-3.21,1.47 -6.45,2.101 -9.735,1.897V37.985z" id="path_8"/><path fill="#000001" d="M60.454,43.677c2.46,1.23 3.698,2.288 3.698,3.165c-1.178,2.311 -1.875,3.487 -2.115,3.51h-0.354c-1.799,-0.907 -2.909,-1.725 -3.337,-2.46C58.76,46.565 59.464,45.155 60.454,43.677z" id="path_9"/><path fill="#000001" d="M67.287,14.165c0.322,0.556 0.697,2.138 1.125,4.748c-0.263,1.582 -0.953,2.37 -2.07,2.37h-0.15c-0.487,0 -1.117,-0.315 -1.912,-0.945c-0.54,0.953 -1.335,1.433 -2.37,1.433c-1.26,0 -1.89,-1.53 -1.89,-4.59c0.367,-1.163 0.683,-1.74 0.945,-1.74l0.149,0.157v2.7c0.218,0.938 0.487,1.402 0.795,1.402h0.638c0.66,0 1.08,-0.263 1.275,-0.787l-0.33,-2.37c0.127,-0.795 0.345,-1.215 0.637,-1.253h0.33c0.33,2.633 0.863,3.953 1.575,3.953h1.103v-0.157l-0.48,-3.158v-0.18C66.784,14.69 66.994,14.165 67.287,14.165z" id="path_10"/><path fill="#000001" d="M68.299,51.538c0.181,-0.098 0.232,0.06 0.158,0.487c-0.998,2.34 -2.527,3.976 -4.59,4.897l-7.583,3.803c-0.322,-0.09 -0.382,-0.353 -0.181,-0.787c1.014,-1.95 1.703,-3.105 2.07,-3.473L68.299,51.538z" id="path_11"/></svg>