<svg id="vector" xmlns="http://www.w3.org/2000/svg" width="102" height="73" viewBox="0 0 102 73"><path fill="#000001" d="M87.807,24.751c1.433,0.232 2.842,1.109 4.215,2.632v0.354c-0.878,2.347 -1.522,3.517 -1.935,3.517c-2.813,-0.967 -4.216,-1.732 -4.216,-2.287C85.871,27.886 86.517,26.476 87.807,24.751z" id="path_0"/><path fill="#000001" d="M89.606,34.306c1.05,1.058 2.048,3.338 2.985,6.855l0.18,2.287c0,4.133 -2.056,6.945 -6.157,8.438l-1.23,0.173l-3.12,0.045l-3.029,-0.045l-0.173,-0.173v-0.18c0.375,-0.405 2.895,-1.635 7.553,-3.69c2.933,-1.665 4.515,-3.135 4.747,-4.395c-1.522,-3.248 -2.28,-5.123 -2.28,-5.625v-0.525C89.081,35.364 89.254,34.306 89.606,34.306z" id="path_1"/><path fill="#000001" d="M87.762,10.659c1.8,0 2.7,1.11 2.7,3.322c0,3.525 -3.008,6.532 -9.03,9.008c-0.862,0.263 -0.968,-0.053 -0.308,-0.945c0.165,-0.337 1.582,-1.395 4.26,-3.165v-0.149c-1.155,-0.473 -1.732,-1.478 -1.732,-3.016c0.766,-3.367 1.98,-5.055 3.646,-5.055H87.762L87.762,10.659zM85.076,14.461c0,0.938 0.796,1.515 2.378,1.74h0.308c0.585,0 0.96,-0.218 1.117,-0.638c0,-0.952 -0.69,-1.695 -2.063,-2.22C86.217,13.344 85.639,13.719 85.076,14.461z" id="path_2"/><path fill="#213e95" d="M71.757,33.804h0.705c2.055,0 3.577,1.755 4.574,5.272l0.173,1.755c0.06,0.569 0.06,1.155 0,1.763c-0.525,2.137 -1.702,4.244 -3.518,6.322c-1.26,1.058 -4.125,1.875 -8.61,2.46c-0.524,-0.232 -0.825,-0.465 -0.877,-0.697c7.5,-4.073 11.25,-6.533 11.25,-7.388l0.172,-0.525l-0.172,-0.172l-1.583,0.524h-0.877c-3.165,0 -4.748,-1.117 -4.748,-3.337v-0.353c0.405,-3.638 1.29,-5.453 2.633,-5.453L71.757,33.804z" id="path_3"/><path fill="#213e95" d="M73.361,19.059c0.323,0.555 0.698,2.138 1.125,4.747c-0.263,1.583 -0.952,2.37 -2.07,2.37h-0.149c-0.487,0 -1.117,-0.314 -1.913,-0.945c-0.54,0.953 -1.334,1.433 -2.369,1.433c-1.261,0 -1.891,-1.529 -1.891,-4.59c0.367,-1.162 0.683,-1.74 0.945,-1.74l0.15,0.158v2.7c0.217,0.938 0.487,1.402 0.795,1.402h0.637c0.66,0 1.08,-0.263 1.275,-0.788l-0.33,-2.37c0.128,-0.795 0.345,-1.215 0.638,-1.252h0.33c0.33,2.633 0.862,3.952 1.575,3.952h1.103v-0.157l-0.48,-3.157v-0.181C72.859,19.583 73.069,19.059 73.361,19.059z" id="path_4"/><path fill="#213e95" d="M75.935,53.154c0.18,-0.098 0.232,0.06 0.157,0.487c-0.998,2.34 -2.527,3.976 -4.59,4.897l-7.583,3.803c-0.322,-0.09 -0.383,-0.353 -0.18,-0.787c1.013,-1.95 1.702,-3.105 2.07,-3.473L75.935,53.154z" id="path_5"/><path fill="#000001" d="M48.537,43.667c2.459,1.229 3.689,2.287 3.689,3.165c-1.17,2.317 -1.875,3.487 -2.107,3.518h-0.353c-1.8,-0.908 -2.917,-1.732 -3.338,-2.46C46.834,46.554 47.539,45.144 48.537,43.667z" id="path_6"/><path fill="#000001" d="M38.951,39.009h2.025c2.137,-0.293 5.535,-1.088 10.192,-2.37v-0.181c-4.245,-1.875 -6.938,-2.813 -8.085,-2.813c-1.553,0 -2.603,0.878 -3.165,2.641l-0.524,0.353c-0.232,0 -0.354,-0.181 -0.354,-0.533c0.586,-3.51 2.168,-5.272 4.748,-5.272h0.877c1.088,0 4.777,1.23 11.078,3.69l4.747,0.353l0.345,0.532c-0.082,0.788 -0.787,2.311 -2.107,4.567h-0.524l-0.705,-0.18h-0.878c-9.143,2.7 -14.475,4.103 -15.997,4.223h-1.673V39.009z" id="path_7"/><path fill="#000001" d="M55.564,16.088c0.18,-0.104 0.232,0.061 0.157,0.487c-0.998,2.341 -2.527,3.976 -4.59,4.898l-7.583,3.802c-0.322,-0.09 -0.383,-0.352 -0.18,-0.795c1.012,-1.95 1.702,-3.104 2.07,-3.473L55.564,16.088z" id="path_8"/><path fill="#D50000" d="M39.746,44.042c-2.242,-0.181 -4.268,-1.755 -6.09,-4.725c-2.692,3.277 -6.563,4.919 -11.596,4.919h-1.409c-5.444,0 -9.195,-2.34 -11.25,-7.027l-0.173,-1.058v-1.582c0,-1.695 0.758,-3.63 2.28,-5.798h0.181l0.352,0.353v0.878l-0.885,2.813c0,3.075 2.58,5.183 7.74,6.33l3.164,0.173c5.476,0 9.811,-1.876 13.006,-5.626c0.172,0 0.353,0.233 0.525,0.705l-0.173,1.23c0.6,2.212 2.04,3.322 4.327,3.337V44.042z" id="path_9"/><path fill="#D50000" d="M19.422,27.362h0.352c1.2,0.262 2.49,0.967 3.87,2.107v0.18c-0.794,2.399 -1.5,3.689 -2.114,3.87c-1.785,-0.353 -3.136,-0.938 -4.043,-1.763v-0.173C17.486,30.204 18.131,28.801 19.422,27.362z" id="path_10"/><path fill="#D50000" d="M25.924,25.779h0.18c1.2,0.18 2.551,0.997 4.043,2.46v0.18l-2.115,3.69c-2.813,-0.907 -4.215,-1.673 -4.215,-2.288C24.724,27.129 25.429,25.779 25.924,25.779z" id="path_11"/><path fill="#D50000" d="M22.646,13.126h1.74c2.107,0 3.164,0.787 3.164,2.37c-1.364,3.689 -3.021,5.647 -4.973,5.872l-2.302,0.308c-0.368,0 -0.518,-0.105 -0.465,-0.308c1.86,-0.982 3.6,-2.152 5.212,-3.495c-0.569,-0.532 -1.199,-0.795 -1.89,-0.795h-0.487l-1.891,0.157l-0.149,-0.157v-0.308C21.499,14.341 22.182,13.126 22.646,13.126z" id="path_12"/></svg>