<svg id="vector" xmlns="http://www.w3.org/2000/svg" width="163" height="73" viewBox="0 0 163.2 72.96"><path fill="#000001" d="M138.158,37.793h0.704c2.056,0 3.578,1.755 4.576,5.272l0.172,1.755c0.061,0.57 0.061,1.155 0,1.763c-0.525,2.138 -1.702,4.245 -3.518,6.322c-1.26,1.058 -4.125,1.875 -8.609,2.46c-0.525,-0.232 -0.826,-0.465 -0.878,-0.697c7.5,-4.072 11.25,-6.532 11.25,-7.388l0.173,-0.525l-0.173,-0.172l-1.583,0.524h-0.877c-3.165,0 -4.748,-1.117 -4.748,-3.337v-0.353c0.406,-3.638 1.291,-5.453 2.633,-5.453L138.158,37.793z" id="path_0"/><path fill="#000001" d="M142.815,23.551c0.18,-0.105 0.232,0.06 0.158,0.487c-0.998,2.34 -2.527,3.975 -4.59,4.897l-7.584,3.803c-0.322,-0.09 -0.382,-0.353 -0.18,-0.795c1.013,-1.95 1.703,-3.105 2.07,-3.473L142.815,23.551z" id="path_1"/><path fill="#000001" d="M124.073,18.473c0.352,0 0.705,1.178 1.057,3.518l1.583,3.518l-0.705,4.043l0.524,9.847v1.575c-0.232,4.021 -0.816,6.36 -1.754,7.035l-0.173,-0.173l0.173,-2.64c0,-2.37 -0.766,-9.93 -2.288,-22.672C123.225,19.823 123.75,18.473 124.073,18.473z" id="path_2"/><path fill="#213e95" d="M107.362,47.588c0.203,0.015 0.42,0.022 0.66,0.022h1.666c1.762,-0.292 3.104,-0.907 4.041,-1.845l-2.107,-16.703c0.525,-3.165 0.998,-4.739 1.403,-4.739l2.288,5.272c0,0.817 -0.293,2.047 -0.879,3.689l0.879,9.487v2.641c-0.66,2.797 -1.545,4.755 -2.656,5.865c-0.84,0.892 -1.822,1.342 -2.969,1.342h-1.493c-0.292,0 -0.569,-0.007 -0.833,-0.022V47.588z" id="path_3"/><path fill="#D50000" d="M96.127,27.533h0.705c2.311,1.319 3.48,2.077 3.51,2.287c-1.14,2.46 -1.904,3.75 -2.279,3.862c-1.32,0 -2.61,-0.645 -3.871,-1.935C94.424,30.495 95.071,29.086 96.127,27.533z" id="path_4"/><path fill="#D50000" d="M102.278,26.655c1.117,0 2.459,0.758 4.042,2.28c0,0.622 -0.757,1.853 -2.28,3.697c-0.885,0 -2.174,-0.585 -3.869,-1.763C100.17,29.851 100.875,28.44 102.278,26.655z" id="path_5"/><path fill="#D50000" d="M94.192,41.768h0.046c2.048,0 3.689,-0.697 4.919,-2.107l-0.172,-1.402c0,-1.732 0.353,-3.135 1.051,-4.223c0.322,0 0.795,2.993 1.409,8.963c0.705,3.225 3.157,4.718 7.358,4.484v5.011c-4.104,0.292 -6.961,-1.583 -8.588,-5.625c-0.263,-2.813 -0.555,-4.215 -0.878,-4.215c-0.69,2.662 -2.407,4.064 -5.146,4.192V41.768z" id="path_6"/><path fill="#D50000" d="M103.725,14.28c0.322,0.555 0.697,2.138 1.125,4.748c-0.263,1.582 -0.953,2.369 -2.07,2.369h-0.15c-0.487,0 -1.117,-0.314 -1.912,-0.944c-0.54,0.952 -1.335,1.433 -2.37,1.433c-1.26,0 -1.89,-1.53 -1.89,-4.591c0.367,-1.162 0.683,-1.739 0.945,-1.739l0.149,0.157v2.7c0.218,0.938 0.487,1.402 0.795,1.402h0.638c0.66,0 1.08,-0.263 1.275,-0.787l-0.33,-2.37c0.127,-0.795 0.345,-1.215 0.637,-1.253h0.33c0.33,2.633 0.863,3.952 1.575,3.952h1.103V19.2l-0.48,-3.157v-0.18C103.222,14.806 103.432,14.28 103.725,14.28z" id="path_7"/><path fill="#D50000" d="M106.387,4.613c0.18,-0.105 0.232,0.06 0.158,0.487c-0.998,2.34 -2.527,3.975 -4.59,4.897L94.372,13.8c-0.322,-0.09 -0.382,-0.352 -0.18,-0.794c1.013,-1.95 1.703,-3.105 2.07,-3.473L106.387,4.613z" id="path_8"/><path fill="#008046" d="M94.252,46.928c-0.158,0.016 -0.322,0.022 -0.48,0.022h-0.885c-1.373,0 -2.311,-0.112 -2.813,-0.353c-1.02,3.945 -2.213,6.36 -3.578,7.245c-1.364,0.886 -4.447,1.636 -9.246,2.25h-0.354c-1.057,-0.12 -1.582,-0.292 -1.582,-0.524c0,-0.354 0.877,-0.766 2.633,-1.23c6.914,-3.165 10.372,-5.452 10.372,-6.855c0,-0.585 -0.817,-1.935 -2.46,-4.042c-0.353,-0.593 -0.525,-1.351 -0.525,-2.287v-1.756c0,-0.885 0.173,-1.35 0.525,-1.409c1.522,2.332 4.102,3.63 7.732,3.907c0.225,0 0.442,0 0.66,-0.015V46.928z" id="path_9"/><path fill="#008046" d="M90.54,25.726c0.18,-0.105 0.232,0.06 0.158,0.487c-0.998,2.34 -2.527,3.975 -4.59,4.897l-7.584,3.803c-0.322,-0.09 -0.382,-0.353 -0.18,-0.795c1.013,-1.95 1.703,-3.105 2.07,-3.473L90.54,25.726z" id="path_10"/><path fill="#008046" d="M77.122,6.458l0.174,0.172c0,2.378 -1.875,4.838 -5.625,7.388c-2.197,0.938 -4.426,1.403 -6.676,1.403l-1.582,-0.173c-0.593,2.228 -0.998,3.337 -1.23,3.337c-0.27,0 -0.615,-0.937 -1.057,-2.813c-0.818,-1.109 -2.168,-2.52 -4.043,-4.215v-0.353c0.412,-2.348 0.877,-3.518 1.402,-3.518c2.287,2.46 5.1,3.69 8.438,3.69C70.792,11.378 74.19,9.735 77.122,6.458z" id="path_11"/><path fill="#008046" d="M67.411,18.473c0.352,0 0.704,1.178 1.049,3.518l1.583,3.518l-0.698,4.043l0.525,9.847v1.575c-0.232,4.021 -0.817,6.36 -1.755,7.035l-0.18,-0.173l0.18,-2.64c0,-2.37 -0.765,-9.93 -2.288,-22.672C66.563,19.823 67.087,18.473 67.411,18.473z" id="path_12"/><path fill="#D50000" d="M55.5,18.473c1.62,0 3.255,0.817 4.897,2.445c0.158,0.277 0.098,0.495 -0.188,0.66c-0.285,0.157 -0.547,0.12 -0.779,-0.112c-0.705,-0.631 -1.703,-0.945 -2.985,-0.945h-0.556c-0.539,0 -1.17,0.225 -1.889,0.683c0,1.32 1.582,2.13 4.746,2.438l3.143,-1.23l0.135,0.42c0,1.478 -1.822,2.798 -5.451,3.953l-5.033,2.857l-0.525,0.127c-0.201,0.045 -0.345,-0.045 -0.42,-0.263c0,-0.787 1.141,-1.882 3.406,-3.27v-0.135c-1.096,-0.6 -1.644,-1.463 -1.644,-2.595C52.868,20.153 53.917,18.473 55.5,18.473z" id="path_13"/><path fill="#D50000" d="M49.275,42.556c4.604,0.337 7.177,-0.375 7.739,-2.153c0,-0.614 -0.584,-2.137 -1.762,-4.567l0.532,-4.567h0.345c1.53,2.633 2.288,5.272 2.288,7.905v1.583c0,1.057 -0.255,2.167 -0.758,3.329c-0.503,1.163 -1.282,2.146 -2.325,2.933c-1.05,0.795 -3.067,1.125 -6.06,0.99V42.556z" id="path_14"/><path fill="#D50000" d="M61.665,49.83c0.18,-0.098 0.232,0.061 0.158,0.487c-0.998,2.341 -2.527,3.976 -4.59,4.897l-7.583,3.803c-0.322,-0.09 -0.382,-0.353 -0.181,-0.787c1.014,-1.95 1.703,-3.105 2.07,-3.473L61.665,49.83z" id="path_15"/><path fill="#000001" d="M32.842,51.436c0.6,0 2.002,0.705 4.215,2.107c0,0.877 -0.705,2.287 -2.107,4.223c-2.813,-0.908 -4.223,-1.732 -4.223,-2.46C30.802,54.646 31.507,53.355 32.842,51.436z" id="path_16"/><path fill="#000001" d="M50.07,48.03c-2.243,-0.18 -4.274,-1.755 -6.09,-4.725c-2.692,3.277 -6.563,4.92 -11.603,4.92h-1.402c-5.453,0 -9.203,-2.34 -11.25,-7.027l-0.181,-1.058v-1.583c0,-1.694 0.765,-3.63 2.288,-5.797h0.172l0.354,0.353v0.877l-0.878,2.813c0,3.075 2.579,5.183 7.732,6.33l3.165,0.173c5.482,0 9.817,-1.875 13.012,-5.625c0.174,0 0.346,0.232 0.525,0.705l-0.18,1.229c0.6,2.213 2.047,3.322 4.335,3.338V48.03z" id="path_17"/><path fill="#000001" d="M38.834,59.19c0.181,-0.098 0.232,0.06 0.158,0.487c-0.998,2.34 -2.527,3.976 -4.59,4.897l-7.583,3.803c-0.322,-0.09 -0.382,-0.353 -0.181,-0.787c1.014,-1.95 1.703,-3.105 2.07,-3.473L38.834,59.19z" id="path_18"/></svg>