<svg id="vector" xmlns="http://www.w3.org/2000/svg" width="102" height="73" viewBox="0 0 102 73"><path fill="#213e95" d="M84.652,26.333h0.353c1.2,0.263 2.49,0.96 3.87,2.107v0.173c-0.795,2.407 -1.493,3.69 -2.107,3.87c-1.792,-0.353 -3.135,-0.938 -4.043,-1.755v-0.18C82.725,29.168 83.37,27.766 84.652,26.333z" id="path_0"/><path fill="#213e95" d="M91.163,24.751h0.172c1.2,0.173 2.55,0.99 4.042,2.46v0.173l-2.107,3.689c-2.813,-0.907 -4.223,-1.665 -4.223,-2.28C89.955,26.094 90.66,24.751 91.163,24.751z" id="path_1"/><path fill="#213e95" d="M83.092,44.634c4.605,0.045 7.178,-0.817 7.74,-2.596c0,-0.614 -0.585,-2.137 -1.763,-4.567l0.533,-4.567h0.345c1.529,2.633 2.287,5.272 2.287,7.905v1.582c0,1.058 -0.255,2.168 -0.758,3.33c-0.502,1.163 -1.282,2.146 -2.325,2.933c-1.05,0.795 -3.067,1.125 -6.06,0.99V44.634z" id="path_2"/><path fill="#213e95" d="M89.377,12.069c1.8,0 2.7,1.11 2.7,3.322c0,3.525 -3.008,6.532 -9.03,9.008c-0.862,0.263 -0.967,-0.053 -0.308,-0.945c0.165,-0.338 1.583,-1.395 4.26,-3.165v-0.15c-1.155,-0.472 -1.732,-1.477 -1.732,-3.015c0.765,-3.367 1.98,-5.055 3.645,-5.055H89.377L89.377,12.069zM86.692,15.872c0,0.938 0.795,1.515 2.377,1.739h0.308c0.585,0 0.96,-0.217 1.117,-0.637c0,-0.953 -0.69,-1.695 -2.063,-2.221C87.833,14.753 87.255,15.128 86.692,15.872z" id="path_3"/><path fill="#000001" d="M58.59,42.984c1.44,0 2.49,0 3.165,0h0.705c2.107,-0.277 5.257,-1.178 9.45,-2.7c-1.41,-1.178 -3.577,-2.055 -6.502,-2.64c-1.732,0 -2.902,0.817 -3.517,2.46c-0.218,0.487 -0.413,0.615 -0.585,0.383c-0.165,-0.226 -0.21,-0.525 -0.12,-0.908c1.057,-3.547 2.46,-5.317 4.222,-5.317h1.23c1.17,0 3.285,0.66 6.337,1.98c3.053,1.313 5.685,1.845 7.898,1.582c0.277,0 0.397,0.173 0.352,0.525c-0.472,2.925 -1.35,4.395 -2.64,4.395l-0.878,0.173v0.353c0.443,0.923 2.468,1.365 6.09,1.32v4.987c-5.243,0.277 -7.86,-1.763 -7.845,-6.128c-1.875,0.277 -4.417,1.147 -7.627,2.625c-3.21,1.47 -6.45,2.101 -9.735,1.897V42.984z" id="path_4"/><path fill="#000001" d="M77.445,19.471c0.18,-0.104 0.232,0.061 0.157,0.487c-0.997,2.34 -2.527,3.976 -4.589,4.897l-7.583,3.803c-0.322,-0.09 -0.382,-0.353 -0.18,-0.795c1.012,-1.95 1.702,-3.104 2.07,-3.473L77.445,19.471z" id="path_5"/><path fill="#D50000" d="M59.092,48.016c-3.015,-0.202 -5.752,-1.853 -8.212,-4.942H50.7c-1.05,6.09 -3.397,9.135 -7.027,9.143H43.14c-1.575,-0.008 -3.105,-1.41 -4.567,-4.223c-1.17,-3.952 -1.755,-6.944 -1.755,-8.962v-1.41c0,-0.878 0.172,-1.351 0.525,-1.402c0.495,0.262 1.087,2.183 1.77,5.768c0.683,3.577 2.085,5.287 4.208,5.13c4.103,-0.676 6.27,-3.022 6.503,-7.035l-1.583,-5.445v-1.935c0.06,-2.348 0.293,-3.518 0.705,-3.518c0.232,0.524 0.413,1.058 0.525,1.582l2.46,7.732c1.935,3.135 4.328,4.62 7.163,4.44V48.016z" id="path_6"/><path fill="#D50000" d="M50.805,15.452c0.322,0.555 0.697,2.138 1.125,4.747c-0.263,1.583 -0.953,2.37 -2.07,2.37h-0.15c-0.488,0 -1.117,-0.315 -1.913,-0.945c-0.54,0.953 -1.335,1.433 -2.37,1.433c-1.26,0 -1.89,-1.53 -1.89,-4.59c0.367,-1.162 0.683,-1.74 0.945,-1.74l0.15,0.158v2.699c0.217,0.938 0.487,1.402 0.794,1.402h0.638c0.66,0 1.08,-0.262 1.275,-0.787l-0.33,-2.37c0.127,-0.795 0.345,-1.215 0.637,-1.252h0.33c0.33,2.632 0.862,3.952 1.575,3.952h1.103v-0.157l-0.48,-3.158v-0.18C50.302,15.976 50.513,15.452 50.805,15.452z" id="path_7"/><path fill="#D50000" d="M51.165,54.713c0.18,-0.098 0.232,0.061 0.157,0.488c-0.998,2.34 -2.527,3.975 -4.59,4.897l-7.583,3.802c-0.322,-0.09 -0.382,-0.353 -0.18,-0.787c1.013,-1.95 1.703,-3.104 2.07,-3.473L51.165,54.713z" id="path_8"/><path fill="#000001" d="M16.268,30.617c0.735,0 2.025,0.877 3.87,2.632c0,0.585 -0.705,1.875 -2.108,3.87h-0.352c-0.735,0 -1.845,-0.705 -3.345,-2.107v-0.18C14.333,34.126 14.978,32.724 16.268,30.617z" id="path_9"/><path fill="#000001" d="M22.597,29.731c2.933,1.261 4.396,2.258 4.396,2.993c-0.173,0.555 -0.998,1.785 -2.46,3.689c-1.965,-0.765 -3.368,-1.643 -4.223,-2.64C20.925,31.816 21.69,30.466 22.597,29.731z" id="path_10"/><path fill="#000001" d="M18.383,24.639c2.692,1.109 4.042,2.047 4.042,2.813l-2.288,3.51h-0.18c-0.495,0 -1.845,-0.697 -4.042,-2.107C17.002,26.042 17.82,24.639 18.383,24.639z" id="path_11"/><path fill="#000001" d="M9.083,32.349h0.18l0.353,0.353c-0.937,2.077 -1.41,3.487 -1.41,4.215c0,3.428 3.285,5.422 9.848,5.978l2.107,0.353c2.108,0 5.273,-0.646 9.488,-1.936l2.467,-1.402c-0.825,-1.492 -1.35,-2.782 -1.582,-3.87l0.345,-3.337h0.353c1.41,1.462 2.115,4.042 2.115,7.732c0,3.547 -3.105,5.947 -9.323,7.207l-2.632,0.353c-9.848,0 -14.768,-3.225 -14.768,-9.667C6.623,35.634 7.44,33.639 9.083,32.349z" id="path_12"/><path fill="#000001" d="M21.322,9.099c1.8,0 2.7,1.109 2.7,3.322c0,3.525 -3.007,6.532 -9.03,9.008c-0.863,0.263 -0.968,-0.053 -0.308,-0.945c0.165,-0.338 1.583,-1.395 4.26,-3.165v-0.15c-1.155,-0.473 -1.732,-1.478 -1.732,-3.015c0.765,-3.367 1.98,-5.055 3.645,-5.055H21.322L21.322,9.099zM18.637,12.902c0,0.938 0.795,1.515 2.378,1.739h0.307c0.585,0 0.96,-0.217 1.118,-0.637c0,-0.953 -0.69,-1.695 -2.063,-2.221C19.777,11.784 19.2,12.159 18.637,12.902z" id="path_13"/></svg>