<svg id="vector" xmlns="http://www.w3.org/2000/svg" width="163" height="73" viewBox="0 0 163.2 72.959"><path fill="#D50000" d="M142.887,35.46h0.705c2.055,0 3.577,1.755 4.574,5.272l0.173,1.755c0.06,0.569 0.06,1.154 0,1.763c-0.524,2.138 -1.702,4.244 -3.518,6.322c-1.26,1.058 -4.125,1.875 -8.61,2.46c-0.524,-0.232 -0.824,-0.465 -0.877,-0.697c7.5,-4.073 11.25,-6.533 11.25,-7.388l0.172,-0.525l-0.172,-0.172l-1.582,0.524h-0.878c-3.165,0 -4.747,-1.117 -4.747,-3.338v-0.353c0.404,-3.637 1.289,-5.452 2.632,-5.452L142.887,35.46z" id="path_0"/><path fill="#D50000" d="M147.544,21.217c0.181,-0.104 0.232,0.061 0.157,0.487c-0.997,2.341 -2.527,3.976 -4.59,4.898l-7.582,3.802c-0.322,-0.09 -0.383,-0.353 -0.18,-0.795c1.012,-1.95 1.701,-3.104 2.069,-3.473L147.544,21.217z" id="path_1"/><path fill="#000001" d="M128.801,16.14c0.354,0 0.705,1.178 1.059,3.518l1.582,3.518l-0.705,4.042l0.525,9.848v1.575c-0.232,4.02 -0.818,6.36 -1.756,7.035l-0.172,-0.173l0.172,-2.64c0,-2.37 -0.765,-9.931 -2.287,-22.673C127.954,17.489 128.479,16.14 128.801,16.14z" id="path_2"/><path fill="#D50000" d="M112.092,42.292c0.201,0.015 0.42,0.022 0.659,0.022h1.665c1.763,-0.292 3.105,-0.907 4.043,-1.845l-2.107,-16.703c0.525,-3.164 0.997,-4.739 1.402,-4.739l2.287,5.272c0,0.817 -0.293,2.047 -0.877,3.689l0.877,9.487v2.641c-0.66,2.797 -1.545,4.755 -2.654,5.865c-0.841,0.892 -1.823,1.342 -2.971,1.342h-1.492c-0.293,0 -0.57,-0.007 -0.832,-0.022V42.292z" id="path_3"/><path fill="#000001" d="M113.644,47.324c-0.277,0 -0.614,0 -1.013,0c-1.567,-0.015 -3.254,-1.192 -5.077,-3.539c-0.697,2.579 -1.927,3.869 -3.69,3.869h-0.172c-1.492,0 -2.723,-0.877 -3.69,-2.64h-0.18c-1.05,2.115 -2.325,3.075 -3.825,2.88c-2.782,0.016 -4.433,-1.297 -4.965,-3.93c-1.957,2.295 -4.065,3.42 -6.308,3.359h-0.284v-5.01h0.089c3.548,-0.12 6.181,-1.327 7.913,-3.622c0.232,0 0.353,0.172 0.353,0.524l-0.181,1.23c0.938,1.875 2.168,2.813 3.69,2.813c1.44,0 2.902,-1.402 4.396,-4.215h0.18l0.525,0.524v1.23c0,1.109 0.824,1.755 2.459,1.935h0.354c1.521,0 2.932,-1.522 4.223,-4.575h0.172c0.232,0 0.353,0.533 0.353,1.583c0.645,1.777 2.204,2.632 4.68,2.572V47.324z" id="path_4"/><path fill="#000001" d="M102.828,21.832c0.323,0.555 0.698,2.138 1.125,4.747c-0.262,1.583 -0.952,2.37 -2.069,2.37h-0.149c-0.488,0 -1.118,-0.314 -1.913,-0.944c-0.54,0.952 -1.335,1.433 -2.37,1.433c-1.26,0 -1.891,-1.53 -1.891,-4.591c0.368,-1.162 0.684,-1.739 0.945,-1.739l0.15,0.157v2.7c0.217,0.938 0.488,1.402 0.795,1.402h0.638c0.66,0 1.079,-0.263 1.274,-0.788l-0.33,-2.369c0.128,-0.795 0.346,-1.216 0.639,-1.253h0.329c0.33,2.633 0.862,3.952 1.575,3.952h1.103v-0.157l-0.479,-3.157v-0.18C102.326,22.357 102.536,21.832 102.828,21.832z" id="path_5"/><path fill="#D50000" d="M76.099,49.26c0.6,0 2.01,0.705 4.223,2.107c0,0.878 -0.705,2.287 -2.115,4.223c-2.813,-0.915 -4.215,-1.732 -4.215,-2.468C74.066,52.47 74.764,51.18 76.099,49.26z" id="path_6"/><path fill="#D50000" d="M69.701,42.314c1.253,0.016 2.025,-0.008 2.333,-0.067c2.64,-0.803 4.44,-2.513 5.407,-5.115c0.143,-0.502 0.435,-0.563 0.877,-0.18c0.232,0.202 0.413,1.027 0.525,2.46c1.598,2.152 3.593,3.12 5.978,2.902h0.466v5.01h-0.113c-3.735,-0.172 -6.487,-1.875 -8.265,-5.1h-0.173c-1.245,2.625 -2.887,4.237 -4.92,4.838c-0.615,0.172 -1.32,0.262 -2.115,0.262V42.314z" id="path_7"/><path fill="#D50000" d="M83.479,57.119c0.181,-0.098 0.232,0.061 0.158,0.488c-0.998,2.34 -2.528,3.975 -4.59,4.897l-7.583,3.803c-0.322,-0.091 -0.382,-0.354 -0.18,-0.788c1.013,-1.95 1.703,-3.105 2.07,-3.473L83.479,57.119z" id="path_8"/><path fill="#213e95" d="M44.869,40.665c1.44,0 2.49,0 3.165,0h0.705c2.107,-0.278 5.258,-1.178 9.45,-2.7c-1.41,-1.178 -3.578,-2.056 -6.502,-2.641c-1.733,0 -2.903,0.817 -3.518,2.46c-0.217,0.488 -0.413,0.615 -0.585,0.383c-0.165,-0.225 -0.21,-0.525 -0.12,-0.907c1.057,-3.548 2.46,-5.317 4.223,-5.317h1.23c1.169,0 3.285,0.659 6.337,1.979c3.052,1.313 5.685,1.846 7.897,1.583c0.277,0 0.397,0.172 0.352,0.524c-0.472,2.925 -1.35,4.396 -2.64,4.396l-0.877,0.172v0.353c0.442,0.923 2.467,1.365 6.09,1.32v4.987c-5.243,0.277 -7.86,-1.763 -7.845,-6.127c-1.875,0.277 -4.417,1.147 -7.628,2.625c-3.209,1.47 -6.45,2.1 -9.735,1.897V40.665z" id="path_9"/><path fill="#000001" d="M45.333,45.697c-2.242,-0.181 -4.268,-1.755 -6.09,-4.726c-2.692,3.278 -6.563,4.92 -11.595,4.92h-1.41c-5.445,0 -9.195,-2.34 -11.25,-7.027l-0.173,-1.058v-1.582c0,-1.695 0.758,-3.63 2.28,-5.798h0.18l0.352,0.353v0.878l-0.885,2.813c0,3.075 2.58,5.183 7.74,6.33l3.165,0.172c5.475,0 9.81,-1.875 13.005,-5.625c0.172,0 0.353,0.232 0.525,0.705l-0.172,1.23c0.6,2.212 2.04,3.322 4.327,3.337V45.697z" id="path_10"/><path fill="#000001" d="M25.009,29.017h0.353c1.2,0.263 2.49,0.968 3.87,2.108v0.18c-0.794,2.399 -1.5,3.689 -2.115,3.87c-1.785,-0.353 -3.135,-0.938 -4.042,-1.763v-0.173C23.074,31.859 23.719,30.457 25.009,29.017z" id="path_11"/><path fill="#000001" d="M31.511,27.435h0.18c1.2,0.18 2.55,0.997 4.043,2.46v0.18l-2.115,3.69c-2.813,-0.907 -4.215,-1.673 -4.215,-2.288C30.311,28.784 31.016,27.435 31.511,27.435z" id="path_12"/><path fill="#000001" d="M33.926,49.14c0.18,-0.098 0.232,0.06 0.157,0.487c-0.997,2.34 -2.527,3.975 -4.589,4.897l-7.583,3.803c-0.322,-0.09 -0.382,-0.353 -0.18,-0.788c1.012,-1.949 1.702,-3.104 2.07,-3.472L33.926,49.14z" id="path_13"/><path fill="#e21171" d="M99.578,6.652c1.41,2.399 2.115,4.747 2.115,7.027c-0.615,4.335 -1.381,6.502 -2.288,6.502l-0.173,-0.172v-0.173l0.346,-2.287v-0.18c0,-1.403 -0.586,-3.511 -1.756,-6.323v-0.353C98.408,7.995 98.992,6.652 99.578,6.652z" id="path_14"/><path fill="#213e95" d="M55.918,11.287c1.41,2.399 2.115,4.747 2.115,7.027c-0.615,4.335 -1.38,6.503 -2.287,6.503l-0.172,-0.173v-0.173l0.345,-2.287v-0.18c0,-1.402 -0.585,-3.511 -1.755,-6.323V15.33C54.749,12.63 55.333,11.287 55.918,11.287z" id="path_15"/></svg>