<svg id="vector" xmlns="http://www.w3.org/2000/svg" width="102" height="73" viewBox="0 0 102 73"><path fill="#D50000" d="M77.694,44.274c-1.185,-1.365 -1.785,-2.774 -1.785,-4.245c0,-5.385 1.995,-8.085 5.978,-8.085h1.058c1.38,0 3.075,0.646 5.1,1.936c0.51,0.202 1.448,0.907 2.813,2.107c0.525,0.907 0.292,1.147 -0.705,0.705c-1.935,-0.938 -4.042,-1.402 -6.33,-1.402h-0.172c-1.845,0 -3.72,0.757 -5.625,2.279c0,1.23 1.987,2.58 5.978,4.043l2.107,0.353l7.905,-1.936c0.915,-0.188 1.02,0.473 0.33,1.995c-0.683,1.516 -1.965,2.55 -3.84,3.105c-2.183,0.877 -5.393,1.777 -9.623,2.692c-4.237,0.915 -7.823,1.425 -10.77,1.53v0.06c-4.23,0.135 -7.065,0.157 -8.49,0.083c-1.432,-0.083 -2.617,-0.188 -3.57,-0.323c-0.952,-0.127 -1.65,-0.569 -2.092,-1.32c-0.435,-0.742 0.532,-1.252 2.91,-1.522c2.385,-0.27 5.228,-0.435 8.528,-0.494C70.704,45.774 74.131,45.256 77.694,44.274z" id="path_0"/><path fill="#D50000" d="M82.794,14.671c1.8,0 2.7,1.11 2.7,3.323c0,3.524 -3.007,6.532 -9.03,9.008c-0.863,0.262 -0.968,-0.054 -0.308,-0.945c0.165,-0.338 1.583,-1.396 4.26,-3.165v-0.15c-1.155,-0.473 -1.732,-1.478 -1.732,-3.015c0.765,-3.368 1.98,-5.056 3.645,-5.056H82.794L82.794,14.671zM80.109,18.474c0,0.938 0.795,1.515 2.377,1.74h0.308c0.585,0 0.96,-0.218 1.117,-0.638c0,-0.952 -0.69,-1.695 -2.063,-2.22C81.249,17.357 80.671,17.732 80.109,18.474z" id="path_1"/><path fill="#008046" d="M51.062,44.537c0.367,0 0.75,0 1.147,0l0.877,-0.442c0.555,-1.14 1.38,-2.543 2.46,-4.215l-1.755,-13.538c0.585,-2.813 1.11,-4.215 1.583,-4.215l0.877,3.338c0.817,1.14 1.23,2.197 1.23,3.165c-0.585,1.08 -0.877,1.965 -0.877,2.633v0.352l0.353,5.625v0.886c1.815,-1.53 4.245,-2.362 7.29,-2.505c3.518,0.494 5.272,1.665 5.272,3.51v1.229c-0.585,2.61 -1.462,4.605 -2.633,5.978c-3.547,1.995 -7.44,3.061 -11.692,3.21h-1.935c-0.772,0 -1.507,0 -2.197,0V44.537L51.062,44.537zM54.489,44.626h0.353c5.363,-0.149 9.555,-1.103 12.57,-2.857c-1.372,-1.41 -2.37,-2.107 -2.984,-2.107h-1.41C59.004,39.804 56.162,41.461 54.489,44.626z" id="path_2"/><path fill="#008046" d="M66.196,20.432c0.323,0.555 0.698,2.138 1.125,4.747c-0.262,1.583 -0.953,2.37 -2.07,2.37h-0.15c-0.488,0 -1.118,-0.315 -1.913,-0.945c-0.54,0.953 -1.335,1.433 -2.37,1.433c-1.26,0 -1.89,-1.53 -1.89,-4.59c0.368,-1.162 0.683,-1.74 0.945,-1.74l0.15,0.158v2.7c0.217,0.937 0.488,1.401 0.795,1.401h0.638c0.66,0 1.08,-0.262 1.275,-0.787l-0.33,-2.37c0.127,-0.795 0.345,-1.215 0.638,-1.252h0.33c0.33,2.632 0.863,3.952 1.575,3.952h1.103v-0.157l-0.48,-3.157v-0.181C65.694,20.957 65.904,20.432 66.196,20.432z" id="path_3"/><path fill="#008046" d="M63.384,51.631c0.18,-0.098 0.232,0.061 0.157,0.488c-0.997,2.34 -2.527,3.975 -4.59,4.896l-7.583,3.803c-0.322,-0.09 -0.382,-0.353 -0.18,-0.787c1.013,-1.95 1.703,-3.105 2.07,-3.473L63.384,51.631z" id="path_4"/><path fill="#D50000" d="M37.224,44.537c0.03,0 0.067,0 0.105,0c2.813,-0.173 4.425,-1.433 4.837,-3.78c-1.058,-7.027 -1.583,-11.955 -1.583,-14.768c0,-1.08 0.473,-2.489 1.41,-4.215l0.172,0.173l0.353,0.353l-0.18,1.229c0.15,7.897 1.147,14.018 2.993,18.368c0.705,1.582 2.43,2.467 5.183,2.64v5.01c-3.78,-0.06 -6.323,-2.047 -7.643,-5.978h-0.18c-1.215,3.938 -3.038,5.933 -5.468,5.978V44.537z" id="path_5"/><path fill="#D50000" d="M47.941,12.211c0.18,-0.104 0.232,0.061 0.157,0.487c-0.998,2.341 -2.527,3.976 -4.59,4.898l-7.583,3.802c-0.322,-0.09 -0.382,-0.353 -0.18,-0.795c1.013,-1.95 1.703,-3.104 2.07,-3.473L47.941,12.211z" id="path_6"/><path fill="#000001" d="M37.726,49.569c-2.243,-0.18 -4.268,-1.755 -6.09,-4.725c-2.693,3.277 -6.563,4.92 -11.595,4.92h-1.41c-5.445,0 -9.195,-2.34 -11.25,-7.027l-0.173,-1.058v-1.583c0,-1.694 0.758,-3.63 2.28,-5.797h0.18l0.352,0.353v0.877l-0.885,2.813c0,3.075 2.58,5.183 7.74,6.33l3.165,0.173c5.475,0 9.81,-1.875 13.005,-5.625c0.173,0 0.353,0.232 0.525,0.705l-0.172,1.229c0.6,2.213 2.04,3.323 4.327,3.338V49.569z" id="path_7"/><path fill="#000001" d="M17.401,32.889h0.353c1.2,0.263 2.49,0.968 3.87,2.107v0.18c-0.795,2.4 -1.5,3.69 -2.115,3.87c-1.785,-0.353 -3.135,-0.938 -4.042,-1.762v-0.173C15.466,35.732 16.111,34.33 17.401,32.889z" id="path_8"/><path fill="#000001" d="M23.903,31.307h0.18c1.2,0.18 2.55,0.997 4.043,2.46v0.18l-2.115,3.689c-2.813,-0.907 -4.215,-1.672 -4.215,-2.287C22.704,32.657 23.409,31.307 23.903,31.307z" id="path_9"/><path fill="#000001" d="M20.626,18.654h1.74c2.107,0 3.165,0.788 3.165,2.37c-1.365,3.69 -3.022,5.647 -4.973,5.873l-2.303,0.307c-0.367,0 -0.517,-0.104 -0.465,-0.307c1.86,-0.982 3.6,-2.152 5.213,-3.495c-0.57,-0.533 -1.2,-0.795 -1.89,-0.795h-0.488l-1.89,0.157l-0.15,-0.157v-0.308C19.479,19.869 20.161,18.654 20.626,18.654z" id="path_10"/></svg>