<svg id="vector" xmlns="http://www.w3.org/2000/svg" width="163" height="73" viewBox="0 0 163.2 72.959"><path fill="#213e95" d="M135.064,47.922c-3.413,0.203 -5.895,-1.373 -7.448,-4.725c-0.75,-1.246 -1.447,-9.639 -2.107,-25.178v-0.354c0.435,-2.58 1.08,-3.869 1.927,-3.869l0.885,-0.172c1.08,0 2.723,0.352 4.92,1.049v0.354c-0.12,0.352 -0.473,0.531 -1.058,0.531h-2.985c-0.615,0 -1.2,0.346 -1.762,1.051c0.547,13.492 1.342,21.307 2.4,23.445c1.05,2.137 2.797,3.09 5.228,2.857V47.922z" id="path_0"/><path fill="#D50000" d="M109.819,42.889c0.203,0.016 0.42,0.023 0.66,0.023h1.665c1.763,-0.293 3.105,-0.908 4.042,-1.846l-2.107,-16.703c0.525,-3.164 0.998,-4.738 1.402,-4.738l2.288,5.271c0,0.818 -0.292,2.047 -0.877,3.689l0.877,9.488v2.641c-0.66,2.797 -1.545,4.754 -2.655,5.865c-0.84,0.891 -1.823,1.342 -2.97,1.342h-1.493c-0.292,0 -0.57,-0.008 -0.833,-0.021V42.889z" id="path_1"/><path fill="#000001" d="M96.649,42.912h0.397c1.2,0 2.468,-0.465 3.803,-1.395c1.335,-0.932 2.115,-2.102 2.355,-3.504l0.172,-0.18h0.173c0.209,0 0.502,0.645 0.885,1.936c1.665,2.287 4.012,3.338 7.027,3.164c0.203,0 0.413,-0.006 0.615,-0.021v5.031c-0.203,0.016 -0.413,0.023 -0.615,0.023l-2.46,-0.285c-0.262,2.34 -1.027,3.51 -2.288,3.518h-0.352c-2.34,-0.443 -3.51,-1.26 -3.51,-2.467l0.525,-3.166c-0.413,-0.465 -0.817,-0.697 -1.23,-0.697c-1.32,2.063 -3.15,3.082 -5.498,3.053V42.912z" id="path_2"/><path fill="#000001" d="M105.724,17.727c1.8,0 2.7,1.109 2.7,3.322c0,3.525 -3.007,6.533 -9.03,9.008c-0.862,0.264 -0.967,-0.053 -0.307,-0.945c0.165,-0.338 1.583,-1.395 4.26,-3.164v-0.15c-1.155,-0.473 -1.732,-1.477 -1.732,-3.016c0.765,-3.367 1.98,-5.055 3.645,-5.055H105.724L105.724,17.727zM103.039,21.529c0,0.938 0.795,1.516 2.377,1.74h0.308c0.585,0 0.96,-0.217 1.117,-0.637c0,-0.953 -0.69,-1.695 -2.063,-2.221C104.179,20.412 103.601,20.787 103.039,21.529z" id="path_3"/><path fill="#D50000" d="M97.767,47.943c-3.015,-0.201 -5.752,-1.852 -8.213,-4.941h-0.18c-1.05,6.09 -3.397,9.135 -7.027,9.143h-0.533c-1.575,-0.008 -3.105,-1.41 -4.567,-4.223c-1.17,-3.953 -1.755,-6.945 -1.755,-8.963v-1.41c0,-0.877 0.172,-1.35 0.525,-1.402c0.495,0.262 1.087,2.184 1.77,5.768c0.682,3.578 2.084,5.287 4.207,5.131c4.103,-0.676 6.27,-3.023 6.503,-7.035l-1.583,-5.445v-1.936c0.06,-2.348 0.292,-3.518 0.705,-3.518c0.232,0.525 0.412,1.059 0.525,1.582l2.46,7.734c1.935,3.135 4.328,4.619 7.163,4.439V47.943z" id="path_4"/><path fill="#D50000" d="M92.539,15.881c0.18,-0.104 0.232,0.061 0.157,0.488c-0.998,2.34 -2.527,3.975 -4.59,4.898l-7.583,3.801c-0.322,-0.09 -0.382,-0.352 -0.18,-0.795c1.013,-1.949 1.703,-3.104 2.07,-3.473L92.539,15.881z" id="path_5"/><path fill="#000001" d="M66.236,49.527c0.6,0 2.002,0.705 4.215,2.115c0,0.877 -0.698,2.279 -2.108,4.215c-2.813,-0.908 -4.215,-1.727 -4.215,-2.461C64.196,52.736 64.901,51.447 66.236,49.527z" id="path_6"/><path fill="#000001" d="M62.014,41.816c4.605,0.045 7.178,-0.816 7.74,-2.594c0,-0.615 -0.585,-2.139 -1.763,-4.568l0.533,-4.568h0.345c1.53,2.633 2.288,5.273 2.288,7.906v1.582c0,1.057 -0.255,2.168 -0.757,3.33s-1.283,2.145 -2.325,2.932c-1.05,0.795 -3.067,1.125 -6.06,0.99V41.816z" id="path_7"/><path fill="#000001" d="M70.361,17.27c0.323,0.555 0.698,2.137 1.125,4.748c-0.262,1.582 -0.953,2.369 -2.07,2.369h-0.15c-0.487,0 -1.117,-0.314 -1.912,-0.945c-0.54,0.953 -1.335,1.434 -2.37,1.434c-1.26,0 -1.89,-1.531 -1.89,-4.59c0.368,-1.164 0.683,-1.74 0.945,-1.74l0.15,0.156v2.701c0.217,0.938 0.487,1.402 0.795,1.402h0.637c0.66,0 1.08,-0.264 1.275,-0.787l-0.33,-2.371c0.127,-0.795 0.345,-1.215 0.638,-1.252h0.33c0.33,2.633 0.863,3.953 1.575,3.953h1.103v-0.158l-0.48,-3.158v-0.18C69.859,17.795 70.069,17.27 70.361,17.27z" id="path_8"/><path fill="#000001" d="M74.869,56.816c0.18,-0.098 0.232,0.061 0.157,0.488c-0.998,2.34 -2.527,3.975 -4.59,4.896l-7.583,3.803c-0.323,-0.09 -0.383,-0.352 -0.18,-0.787c1.012,-1.949 1.703,-3.105 2.07,-3.473L74.869,56.816z" id="path_9"/><path fill="#008046" d="M62.231,46.842c-0.158,0.016 -0.323,0.021 -0.48,0.021h-0.885c-1.373,0 -2.31,-0.111 -2.813,-0.352c-1.02,3.945 -2.212,6.359 -3.578,7.246c-1.365,0.885 -4.447,1.635 -9.247,2.248h-0.353c-1.057,-0.119 -1.583,-0.291 -1.583,-0.523c0,-0.354 0.878,-0.766 2.633,-1.23c6.915,-3.166 10.373,-5.453 10.373,-6.855c0,-0.584 -0.818,-1.934 -2.46,-4.043c-0.353,-0.592 -0.525,-1.35 -0.525,-2.287v-1.754c0,-0.885 0.172,-1.352 0.525,-1.41c1.522,2.332 4.102,3.629 7.732,3.906c0.225,0 0.442,0 0.66,-0.014V46.842z" id="path_10"/><path fill="#000001" d="M24.776,29.988c1.372,0.414 2.782,1.291 4.215,2.641v0.174c-1.32,2.316 -2.078,3.486 -2.288,3.516h-0.525c-0.998,-0.143 -2.047,-0.787 -3.165,-1.934v-0.174C23.134,32.832 23.719,31.43 24.776,29.988z" id="path_11"/><path fill="#000001" d="M31.451,30.342c1.29,0.293 2.58,1.057 3.87,2.287v0.174c0,0.645 -0.705,1.822 -2.108,3.516h-0.532c-0.817,0 -1.875,-0.645 -3.165,-1.934C29.839,32.568 30.483,31.219 31.451,30.342z" id="path_12"/><path fill="#000001" d="M17.239,32.277h0.172l0.353,0.352c-0.938,2.078 -1.403,3.488 -1.403,4.215c0,3.428 3.278,5.424 9.84,5.979l2.107,0.352c2.115,0 5.273,-0.645 9.495,-1.934l2.46,-1.404c-0.817,-1.492 -1.35,-2.781 -1.583,-3.869l0.353,-3.338h0.353c1.402,1.463 2.107,4.043 2.107,7.732c0,3.549 -3.105,5.947 -9.315,7.207l-2.64,0.354c-9.84,0 -14.76,-3.225 -14.76,-9.668C14.779,35.563 15.596,33.566 17.239,32.277z" id="path_13"/><path fill="#000001" d="M33.514,52.182c0.18,-0.098 0.232,0.061 0.157,0.488c-0.998,2.34 -2.527,3.975 -4.589,4.896l-7.583,3.803c-0.322,-0.09 -0.382,-0.352 -0.18,-0.787c1.012,-1.949 1.702,-3.105 2.07,-3.473L33.514,52.182z" id="path_14"/><path fill="#008046" d="M52.583,18.5c1.41,2.398 2.115,4.746 2.115,7.027c-0.615,4.334 -1.38,6.502 -2.287,6.502l-0.173,-0.172v-0.174l0.345,-2.287v-0.18c0,-1.402 -0.585,-3.51 -1.755,-6.322v-0.354C51.413,19.842 51.998,18.5 52.583,18.5z" id="path_15"/><path fill="#000001" d="M140.584,20.854c1.522,0 2.925,0.938 4.215,2.813c-1.08,2.461 -1.905,3.691 -2.46,3.691c-2.37,-1.17 -3.66,-1.936 -3.87,-2.289C138.469,23.959 139.174,22.549 140.584,20.854z" id="path_16"/><path fill="#000001" d="M134.891,42.912h0.877c5.468,-0.105 9.098,-0.871 10.898,-2.311l0.352,-0.697c-0.232,-0.563 -0.525,-0.84 -0.877,-0.84c-0.848,0.473 -1.785,0.705 -2.813,0.705h-0.18c-3.045,-0.354 -4.627,-1.582 -4.74,-3.689v-0.182c0.292,-3.982 1.23,-5.969 2.813,-5.969h0.878c2.707,-0.135 4.762,1.973 6.15,6.322l0.172,1.762v0.354c-0.038,4.305 -1.583,7.146 -4.635,8.52c-1.08,0.689 -4.05,1.035 -8.895,1.035V42.912z" id="path_17"/><path fill="#000001" d="M147.079,8.967c0.18,-0.105 0.232,0.061 0.157,0.488c-0.998,2.34 -2.527,3.975 -4.59,4.896l-7.583,3.803c-0.322,-0.09 -0.382,-0.352 -0.18,-0.795c1.013,-1.949 1.703,-3.105 2.07,-3.473L147.079,8.967z" id="path_18"/><path fill="#D50000" d="M112.864,6.955h1.74c2.107,0 3.165,0.789 3.165,2.371c-1.365,3.689 -3.022,5.646 -4.973,5.873l-2.302,0.307c-0.368,0 -0.518,-0.105 -0.465,-0.307c1.86,-0.982 3.6,-2.152 5.212,-3.496c-0.57,-0.531 -1.2,-0.795 -1.89,-0.795h-0.488l-1.89,0.158l-0.15,-0.158v-0.307C111.717,8.172 112.399,6.955 112.864,6.955z" id="path_19"/></svg>