<svg id="vector" xmlns="http://www.w3.org/2000/svg" width="102" height="73" viewBox="0 0 102 73"><path fill="#000001" d="M93.178,43.645h0.678c1.979,0 3.443,1.689 4.403,5.074l0.166,1.688c0.058,0.549 0.058,1.112 0,1.696c-0.505,2.057 -1.638,4.084 -3.385,6.084c-1.212,1.018 -3.97,1.805 -8.286,2.367c-0.505,-0.225 -0.794,-0.447 -0.844,-0.672c7.217,-3.919 10.826,-6.285 10.826,-7.107l0.166,-0.506l-0.166,-0.166l-1.523,0.504h-0.844c-3.046,0 -4.569,-1.075 -4.569,-3.211v-0.34c0.39,-3.5 1.241,-5.248 2.533,-5.248L93.178,43.645z" id="path_0"/><path fill="#000001" d="M40.064,29.938c0.173,-0.102 0.223,0.059 0.15,0.47c-0.959,2.252 -2.432,3.825 -4.416,4.712l-7.297,3.659c-0.311,-0.086 -0.369,-0.338 -0.174,-0.766c0.975,-1.875 1.639,-2.988 1.992,-3.342L40.064,29.938z" id="path_1"/><path fill="#D50000" d="M80.777,25.052c0.34,0 0.68,1.133 1.018,3.385l1.523,3.386l-0.678,3.891l0.504,9.478v1.515c-0.224,3.87 -0.787,6.122 -1.688,6.771l-0.167,-0.166l0.167,-2.541c0,-2.278 -0.736,-9.556 -2.202,-21.816C79.962,26.353 80.467,25.052 80.777,25.052z" id="path_2"/><path fill="#000001" d="M68.161,48.633c0.194,0.014 0.403,0.021 0.635,0.021h1.603c1.697,-0.282 2.988,-0.875 3.891,-1.776l-2.028,-16.072c0.505,-3.047 0.96,-4.562 1.351,-4.562l2.201,5.073c0,0.787 -0.281,1.972 -0.845,3.552l0.845,9.13v2.541c-0.636,2.69 -1.487,4.576 -2.556,5.644c-0.809,0.859 -1.754,1.293 -2.858,1.293h-1.436c-0.281,0 -0.549,-0.009 -0.801,-0.021L68.161,48.633L68.161,48.633z" id="path_3"/><path fill="#213e95" d="M69.654,53.475c-0.266,0 -0.592,0 -0.973,0c-1.51,-0.014 -3.134,-1.146 -4.888,-3.406c-0.671,2.483 -1.854,3.725 -3.551,3.725h-0.166c-1.437,0 -2.62,-0.844 -3.552,-2.539h-0.172c-1.011,2.033 -2.237,2.958 -3.682,2.771c-2.678,0.015 -4.266,-1.248 -4.778,-3.782c-1.884,2.209 -3.912,3.291 -6.07,3.233H41.55v-4.822h0.087c3.414,-0.114 5.947,-1.277 7.614,-3.485c0.224,0 0.34,0.167 0.34,0.505l-0.173,1.186c0.902,1.805 2.086,2.705 3.551,2.705c1.387,0 2.793,-1.349 4.229,-4.056h0.173l0.506,0.507v1.182c0,1.068 0.793,1.689 2.367,1.863h0.34c1.465,0 2.822,-1.465 4.063,-4.402h0.166c0.225,0 0.34,0.512 0.34,1.521c0.621,1.711 2.123,2.534 4.504,2.477v4.818H69.654z" id="path_4"/><path fill="#213e95" d="M59.248,28.942c0.311,0.534 0.671,2.058 1.083,4.569c-0.252,1.522 -0.917,2.279 -1.992,2.279h-0.146c-0.469,0 -1.074,-0.303 -1.84,-0.909c-0.519,0.917 -1.283,1.38 -2.279,1.38c-1.213,0 -1.819,-1.474 -1.819,-4.417c0.354,-1.121 0.657,-1.675 0.91,-1.675l0.144,0.152v2.598c0.209,0.901 0.469,1.349 0.766,1.349h0.613c0.635,0 1.039,-0.251 1.227,-0.757l-0.316,-2.282c0.123,-0.765 0.332,-1.169 0.612,-1.204h0.317c0.318,2.533 0.83,3.804 1.516,3.804h1.061v-0.152l-0.461,-3.039v-0.173C58.764,29.448 58.966,28.942 59.248,28.942z" id="path_5"/><path fill="#213e95" d="M61.811,19.639c0.174,-0.1 0.224,0.058 0.15,0.47c-0.96,2.252 -2.432,3.825 -4.417,4.714l-7.297,3.657c-0.31,-0.086 -0.368,-0.338 -0.173,-0.765c0.975,-1.876 1.639,-2.986 1.992,-3.342L61.811,19.639z" id="path_6"/><path fill="#000001" d="M27.086,48.652h0.382c1.155,0 2.375,-0.446 3.66,-1.342c1.285,-0.895 2.035,-2.021 2.266,-3.369l0.166,-0.176h0.166c0.202,0 0.483,0.623 0.852,1.862c1.602,2.201 3.861,3.212 6.763,3.047c0.195,0 0.397,-0.008 0.592,-0.022v4.845c-0.195,0.013 -0.397,0.021 -0.592,0.021l-2.367,-0.273c-0.253,2.252 -0.989,3.378 -2.201,3.385h-0.339c-2.252,-0.425 -3.378,-1.212 -3.378,-2.374l0.505,-3.047c-0.397,-0.447 -0.787,-0.671 -1.184,-0.671c-1.271,1.984 -3.032,2.968 -5.291,2.938V48.652z" id="path_7"/><path fill="#D50000" d="M27.75,53.475c-3.284,0.195 -5.673,-1.318 -7.167,-4.547c-0.722,-1.197 -1.4,-9.273 -2.028,-24.229V24.36c0.418,-2.483 1.04,-3.726 1.855,-3.726l0.852,-0.166c1.039,0 2.62,0.339 4.735,1.01v0.34c-0.116,0.339 -0.455,0.514 -1.018,0.514h-2.873c-0.592,0 -1.155,0.331 -1.696,1.009c0.527,12.984 1.292,20.507 2.31,22.563c1.011,2.057 2.692,2.974 5.031,2.75L27.75,53.475L27.75,53.475z" id="path_8"/><path fill="#D50000" d="M31.258,8.921l0.174,0.173c0,2.282 -1.805,4.648 -5.413,7.104c-2.115,0.902 -4.259,1.35 -6.431,1.35l-1.523,-0.168c-0.563,2.145 -0.96,3.213 -1.184,3.213c-0.253,0 -0.592,-0.902 -1.018,-2.707c-0.787,-1.067 -2.086,-2.425 -3.891,-4.056v-0.34c0.397,-2.259 0.852,-3.385 1.357,-3.385c2.201,2.366 4.908,3.551 8.12,3.551C25.167,13.656 28.443,12.083 31.258,8.921z" id="path_9"/><path fill="#000001" d="M17.806,55.236c0.173,-0.094 0.224,0.06 0.151,0.471c-0.96,2.252 -2.432,3.825 -4.417,4.712l-7.297,3.66c-0.31,-0.087 -0.368,-0.339 -0.173,-0.759c0.974,-1.875 1.638,-2.987 1.992,-3.342L17.806,55.236z" id="path_10"/><path fill="#000001" d="M9.184,36.218c1.878,0 3.765,0.935 5.66,2.813c0.182,0.32 0.113,0.57 -0.216,0.762c-0.329,0.182 -0.632,0.146 -0.9,-0.13c-0.814,-0.728 -1.965,-1.093 -3.454,-1.093H9.643c-0.623,0 -1.351,0.27 -2.181,0.787c0,1.524 1.827,2.459 5.479,2.814l3.626,-1.419l0.147,0.483c0,1.705 -2.095,3.229 -6.284,4.561l-5.807,3.299l-0.606,0.156C3.775,49.305 3.619,49.2 3.532,48.95c0,-0.919 1.307,-2.173 3.929,-3.783V45.02c-1.264,-0.699 -1.904,-1.695 -1.904,-2.994C6.155,38.156 7.358,36.218 9.184,36.218z" id="path_11"/></svg>