<svg id="vector" xmlns="http://www.w3.org/2000/svg" width="102" height="73" viewBox="0 0 102 73"><path fill="#D50000" d="M83.779,43.629h0.705c2.055,0 3.576,1.755 4.574,5.272l0.173,1.755c0.06,0.569 0.06,1.155 0,1.763c-0.525,2.138 -1.702,4.244 -3.518,6.322c-1.261,1.058 -4.125,1.875 -8.61,2.46c-0.524,-0.232 -0.824,-0.465 -0.877,-0.697c7.5,-4.073 11.25,-6.533 11.25,-7.388l0.172,-0.525l-0.172,-0.172l-1.583,0.524h-0.878c-3.164,0 -4.747,-1.117 -4.747,-3.337v-0.353c0.405,-3.638 1.29,-5.453 2.633,-5.453L83.779,43.629z" id="path_0"/><path fill="#D50000" d="M88.437,29.387c0.181,-0.105 0.232,0.06 0.157,0.486c-0.998,2.341 -2.527,3.976 -4.59,4.898l-7.582,3.802c-0.322,-0.09 -0.383,-0.352 -0.181,-0.795c1.013,-1.95 1.702,-3.104 2.07,-3.473L88.437,29.387z" id="path_1"/><path fill="#000001" d="M56.029,48.834c1.732,-0.218 2.595,-0.556 2.595,-1.013c0,-3.487 1.058,-7.703 3.165,-12.652c0.293,-0.646 0.585,-0.705 0.877,-0.181c0.766,1.643 2.107,2.993 4.043,4.043c3.99,1.935 5.977,4.574 5.977,7.912c0,3.487 -0.757,5.482 -2.287,5.978l-1.754,0.173l-6.684,-0.353c-1.859,0.795 -3.832,1.162 -5.932,1.103V48.834L56.029,48.834zM66.012,48.001l4.387,0.173l0.705,-0.173c-1.08,-1.5 -2.49,-2.67 -4.215,-3.518C66.566,44.483 66.273,45.653 66.012,48.001L66.012,48.001zM60.206,45.714c0,1.109 0.878,1.814 2.64,2.107c1.523,-0.848 2.281,-1.726 2.281,-2.633c-0.525,-2.115 -1.403,-3.165 -2.633,-3.165C61.234,42.023 60.469,43.254 60.206,45.714z" id="path_2"/><path fill="#000001" d="M66.424,21.496c0.322,0.555 0.697,2.138 1.125,4.747c-0.263,1.583 -0.953,2.37 -2.07,2.37h-0.15c-0.486,0 -1.117,-0.314 -1.912,-0.945c-0.54,0.953 -1.334,1.433 -2.369,1.433c-1.261,0 -1.891,-1.529 -1.891,-4.59c0.367,-1.162 0.683,-1.739 0.945,-1.739l0.15,0.157v2.7c0.217,0.938 0.486,1.402 0.795,1.402h0.637c0.66,0 1.08,-0.263 1.275,-0.788l-0.33,-2.37c0.127,-0.795 0.345,-1.215 0.637,-1.252h0.33c0.33,2.633 0.863,3.952 1.575,3.952h1.103v-0.157l-0.48,-3.157v-0.181C65.922,22.021 66.131,21.496 66.424,21.496z" id="path_3"/><path fill="#000001" d="M69.079,11.829c0.18,-0.105 0.232,0.06 0.157,0.487c-0.998,2.34 -2.527,3.975 -4.59,4.897l-7.582,3.802c-0.322,-0.09 -0.383,-0.352 -0.181,-0.794c1.013,-1.95 1.702,-3.105 2.07,-3.474L69.079,11.829z" id="path_4"/><path fill="#213e95" d="M56.404,53.844c-3.412,0.202 -5.896,-1.373 -7.447,-4.726c-0.75,-1.245 -1.448,-9.638 -2.107,-25.177v-0.353c0.435,-2.58 1.08,-3.87 1.927,-3.87l0.885,-0.173c1.08,0 2.723,0.353 4.921,1.05v0.353c-0.121,0.353 -0.473,0.532 -1.059,0.532h-2.984c-0.615,0 -1.2,0.346 -1.763,1.051c0.548,13.492 1.343,21.308 2.399,23.444c1.051,2.138 2.799,3.091 5.229,2.858V53.844z" id="path_5"/><path fill="#D50000" d="M31.488,53.491c2.461,1.229 3.69,2.287 3.69,3.165c-1.17,2.317 -1.874,3.487 -2.107,3.518h-0.353c-1.8,-0.908 -2.917,-1.732 -3.338,-2.46C29.787,56.379 30.492,54.969 31.488,53.491z" id="path_6"/><path fill="#D50000" d="M21.904,48.834h2.025c2.137,-0.293 5.534,-1.088 10.191,-2.37v-0.181c-4.244,-1.875 -6.938,-2.813 -8.084,-2.813c-1.553,0 -2.604,0.878 -3.166,2.641l-0.525,0.353c-0.232,0 -0.352,-0.181 -0.352,-0.533c0.585,-3.51 2.168,-5.272 4.748,-5.272h0.877c1.088,0 4.777,1.23 11.077,3.69l4.747,0.353l0.346,0.532c-0.083,0.788 -0.787,2.311 -2.107,4.567h-0.525l-0.705,-0.18h-0.877c-9.143,2.7 -14.476,4.103 -15.998,4.223h-1.672V48.834z" id="path_7"/><path fill="#f06022" d="M38.276,26.243l0.181,0.157v0.48c-0.916,1.95 -2.183,3.315 -3.803,4.11c-5.04,2.737 -7.838,4.109 -8.393,4.109c-0.21,0 -0.315,-0.165 -0.315,-0.487c0.487,-1.859 1.546,-3.12 3.165,-3.78l9.016,-4.59H38.276z" id="path_8"/><path fill="#f06022" d="M37.023,22.291c0.203,0 0.309,0.149 0.309,0.457c-0.586,1.703 -2.318,3.232 -5.205,4.598l-6.66,3.646l-0.15,-0.158v-0.172c0.63,-2.228 1.627,-3.601 3.008,-4.11l7.425,-3.803L37.023,22.291z" id="path_9"/><path fill="#000001" d="M22.279,53.844c-3.412,0.202 -5.896,-1.373 -7.447,-4.726c-0.75,-1.245 -1.447,-9.638 -2.107,-25.177v-0.353c0.435,-2.58 1.08,-3.87 1.927,-3.87l0.886,-0.173c1.08,0 2.723,0.353 4.92,1.05v0.353c-0.12,0.353 -0.473,0.532 -1.058,0.532h-2.985c-0.615,0 -1.199,0.346 -1.763,1.051c0.548,13.492 1.343,21.308 2.4,23.444c1.05,2.138 2.798,3.091 5.228,2.858V53.844z" id="path_10"/></svg>