<svg id="vector" xmlns="http://www.w3.org/2000/svg" width="102" height="73" viewBox="0 0 102 73"><path fill="#213e95" d="M22.245,43.876c0.24,0 0.487,0 0.75,0h0.181c2.189,-0.135 4.185,-1.957 5.97,-5.467c1.935,-2.933 3.93,-4.396 5.978,-4.396c2.58,0 3.869,1.635 3.869,4.92v0.878c0,1.612 -0.645,3.72 -1.935,6.33l-1.229,0.877c-1.088,0 -3.601,-0.765 -7.561,-2.287c-1.199,1.8 -2.138,2.895 -2.813,3.277c-1.027,0.713 -2.078,1.013 -3.165,0.878h-0.045V43.876L22.245,43.876zM31.08,40.164v0.172c3.045,1.178 4.867,1.763 5.453,1.763c0.232,0 0.352,-0.18 0.352,-0.532c-0.675,-1.755 -1.792,-2.633 -3.345,-2.633C32.46,38.934 31.635,39.347 31.08,40.164z" id="path_0"/><path fill="#213e95" d="M36.75,20.236c0.18,-0.105 0.232,0.06 0.158,0.487c-0.998,2.34 -2.527,3.975 -4.59,4.897l-7.583,3.803c-0.322,-0.09 -0.383,-0.353 -0.181,-0.795c1.014,-1.95 1.703,-3.105 2.07,-3.473L36.75,20.236z" id="path_1"/><path fill="#000001" d="M8.205,18.781H8.91c2.317,1.32 3.487,2.085 3.518,2.287c-1.148,2.46 -1.905,3.75 -2.287,3.87c-1.32,0 -2.611,-0.645 -3.871,-1.935C6.51,21.744 7.154,20.334 8.205,18.781z" id="path_2"/><path fill="#000001" d="M14.355,17.904c1.117,0 2.467,0.765 4.05,2.287c0,0.615 -0.765,1.845 -2.288,3.689c-0.877,0 -2.167,-0.585 -3.869,-1.755C12.248,21.099 12.953,19.688 14.355,17.904z" id="path_3"/><path fill="#000001" d="M23.018,48.887h-0.045c-3.367,0 -5.655,-1.643 -6.855,-4.921l-0.352,-1.409h-0.354c-0.262,0.938 -2.137,1.522 -5.625,1.762H8.91c-2.348,0 -3.518,-0.704 -3.518,-2.114v-1.583c0,-1.695 1.29,-3.802 3.87,-6.322c1.552,-1.178 3.308,-2.168 5.272,-2.992l-0.18,-0.525c0.645,-2.933 1.177,-4.395 1.582,-4.395c0.21,0.494 0.502,4.132 0.885,10.897c0.525,4.56 2.588,6.772 6.195,6.659V48.887L23.018,48.887zM7.5,38.693c0.676,0.466 1.793,0.698 3.346,0.698c1.521,-0.112 2.924,-0.405 4.215,-0.878l-0.354,-4.92h-0.172C9.848,35.821 7.5,37.517 7.5,38.693z" id="path_4"/><path fill="#f06022" d="M19.035,54.159l0.18,0.157v0.479c-0.907,1.95 -2.175,3.315 -3.803,4.11c-5.039,2.737 -7.837,4.11 -8.393,4.11c-0.201,0 -0.307,-0.165 -0.307,-0.487c0.48,-1.86 1.537,-3.12 3.164,-3.78l9.008,-4.59H19.035z" id="path_5"/><path fill="#f06022" d="M17.783,50.206c0.209,0 0.307,0.15 0.307,0.458c-0.584,1.702 -2.317,3.232 -5.205,4.597l-6.66,3.646l-0.149,-0.157v-0.173c0.63,-2.228 1.635,-3.6 3.007,-4.109l7.434,-3.803L17.783,50.206z" id="path_6"/><path fill="#213e95" d="M79.86,42.781c0.24,0 0.487,0 0.75,0h0.18c2.19,-0.135 4.186,-1.957 5.971,-5.468c1.935,-2.933 3.93,-4.395 5.977,-4.395c2.58,0 3.87,1.635 3.87,4.92v0.877c0,1.613 -0.645,3.721 -1.935,6.33l-1.23,0.878c-1.087,0 -3.6,-0.765 -7.56,-2.287c-1.2,1.8 -2.138,2.895 -2.813,3.277c-1.027,0.712 -2.078,1.012 -3.165,0.877H79.86V42.781L79.86,42.781zM88.695,39.068v0.173c3.045,1.178 4.867,1.763 5.452,1.763c0.232,0 0.354,-0.18 0.354,-0.532c-0.676,-1.756 -1.793,-2.633 -3.346,-2.633C90.075,37.839 89.251,38.251 88.695,39.068z" id="path_7"/><path fill="#213e95" d="M89.513,15.901c1.801,0 2.7,1.11 2.7,3.322c0,3.525 -3.008,6.532 -9.03,9.008c-0.862,0.263 -0.968,-0.053 -0.308,-0.945c0.165,-0.337 1.583,-1.395 4.261,-3.165v-0.149c-1.155,-0.473 -1.732,-1.478 -1.732,-3.016c0.765,-3.367 1.979,-5.055 3.645,-5.055H89.513L89.513,15.901zM86.827,19.704c0,0.938 0.796,1.515 2.378,1.739h0.308c0.585,0 0.96,-0.217 1.117,-0.637c0,-0.953 -0.689,-1.695 -2.063,-2.221C87.968,18.586 87.39,18.961 86.827,19.704z" id="path_8"/><path fill="#000001" d="M59.34,42.781h1.148c1.965,-0.322 3.539,-1.388 4.747,-3.188c0,-0.728 -0.886,-3.487 -2.64,-8.258c-0.66,-1.335 -0.826,-2.632 -0.495,-3.899c0.329,-1.268 1.492,-2.723 3.479,-4.365c3.78,-2.753 9.173,-6.271 16.178,-10.545h0.172l0.18,0.525l-3.517,6.682h-0.18l-0.173,-1.057c-0.555,0 -4.891,2.813 -13.005,8.437l-1.41,1.23c1.965,6.24 4.777,10.53 8.438,12.877c1.86,1.2 4.47,1.718 7.823,1.538v5.032c-6.361,0.218 -10.898,-2.34 -13.621,-7.665h-0.18c-0.705,5.123 -2.752,7.681 -6.15,7.665H59.34V42.781z" id="path_9"/><path fill="#000001" d="M74.348,10.014c0.18,-0.104 0.232,0.061 0.158,0.487c-0.998,2.34 -2.527,3.976 -4.59,4.898l-7.583,3.802c-0.323,-0.09 -0.383,-0.353 -0.181,-0.795c1.013,-1.95 1.703,-3.104 2.07,-3.473L74.348,10.014z" id="path_10"/><path fill="#008046" d="M59.865,47.807c-0.158,0.015 -0.322,0.022 -0.48,0.022H58.5c-1.373,0 -2.311,-0.113 -2.813,-0.353c-1.02,3.944 -2.213,6.36 -3.577,7.245c-1.365,0.885 -4.448,1.635 -9.247,2.25H42.51c-1.057,-0.12 -1.582,-0.293 -1.582,-0.525c0,-0.353 0.877,-0.765 2.633,-1.229c6.914,-3.166 10.372,-5.453 10.372,-6.855c0,-0.585 -0.817,-1.935 -2.46,-4.043c-0.353,-0.592 -0.525,-1.35 -0.525,-2.287v-1.755c0,-0.885 0.173,-1.351 0.525,-1.41c1.522,2.333 4.103,3.63 7.732,3.907c0.225,0 0.442,0 0.66,-0.015V47.807z" id="path_11"/><path fill="#008046" d="M53.101,26.102c0.322,0.555 0.697,2.137 1.125,4.747c-0.263,1.583 -0.953,2.37 -2.07,2.37h-0.149c-0.488,0 -1.118,-0.315 -1.913,-0.945c-0.54,0.953 -1.335,1.433 -2.37,1.433c-1.26,0 -1.89,-1.53 -1.89,-4.59c0.367,-1.162 0.683,-1.74 0.944,-1.74l0.15,0.158v2.699c0.218,0.938 0.488,1.402 0.795,1.402h0.638c0.66,0 1.08,-0.262 1.274,-0.787l-0.33,-2.37c0.128,-0.795 0.346,-1.215 0.639,-1.252h0.33c0.329,2.632 0.861,3.952 1.574,3.952h1.103v-0.157l-0.479,-3.158v-0.18C52.598,26.626 52.808,26.102 53.101,26.102z" id="path_12"/><path fill="#008046" d="M55.756,16.434c0.18,-0.104 0.232,0.061 0.156,0.487c-0.997,2.34 -2.527,3.976 -4.59,4.897l-7.582,3.803c-0.322,-0.09 -0.383,-0.353 -0.18,-0.795c1.012,-1.95 1.702,-3.104 2.07,-3.473L55.756,16.434z" id="path_13"/></svg>