<svg id="vector" xmlns="http://www.w3.org/2000/svg" width="102" height="73" viewBox="0 0 102 73"><path fill="#D50000" d="M80.119,29.457c0.727,0 2.017,0.878 3.862,2.633c0,0.585 -0.698,1.875 -2.107,3.87h-0.353c-0.728,0 -1.846,-0.705 -3.338,-2.107v-0.18C78.184,32.968 78.829,31.564 80.119,29.457z" id="path_0"/><path fill="#D50000" d="M86.449,28.58c2.925,1.252 4.387,2.25 4.387,2.984c-0.173,0.556 -0.99,1.785 -2.46,3.69c-1.957,-0.758 -3.367,-1.643 -4.215,-2.633C84.776,30.657 85.533,29.308 86.449,28.58z" id="path_1"/><path fill="#D50000" d="M82.227,23.479c2.692,1.11 4.042,2.048 4.042,2.813l-2.287,3.517h-0.173c-0.495,0 -1.845,-0.704 -4.043,-2.114C80.846,24.883 81.671,23.479 82.227,23.479z" id="path_2"/><path fill="#D50000" d="M79.301,48.725c4.605,0.046 7.178,-0.817 7.74,-2.595c0,-0.615 -0.585,-2.138 -1.763,-4.567l0.533,-4.567h0.345c1.53,2.633 2.287,5.272 2.287,7.904v1.583c0,1.058 -0.255,2.167 -0.757,3.33c-0.503,1.162 -1.283,2.145 -2.325,2.933c-1.05,0.795 -3.067,1.125 -6.061,0.99V48.725z" id="path_3"/><path fill="#D50000" d="M88.661,13.588c0.18,-0.105 0.232,0.06 0.157,0.487c-0.997,2.34 -2.527,3.975 -4.59,4.897l-7.583,3.803c-0.322,-0.09 -0.382,-0.353 -0.18,-0.795c1.013,-1.95 1.703,-3.105 2.07,-3.473L88.661,13.588z" id="path_4"/><path fill="#000001" d="M54.799,47.075c1.439,0 2.489,0 3.165,0h0.705c2.106,-0.278 5.257,-1.178 9.449,-2.7c-1.409,-1.178 -3.577,-2.056 -6.502,-2.641c-1.732,0 -2.902,0.818 -3.518,2.461c-0.218,0.487 -0.412,0.614 -0.585,0.382c-0.165,-0.225 -0.21,-0.524 -0.12,-0.907c1.058,-3.548 2.46,-5.317 4.223,-5.317h1.229c1.17,0 3.285,0.66 6.338,1.979c3.053,1.313 5.686,1.846 7.897,1.583c0.277,0 0.397,0.172 0.353,0.525c-0.473,2.925 -1.35,4.395 -2.64,4.395l-0.878,0.173v0.352c0.442,1.216 2.468,1.658 6.09,1.32v4.988c-5.242,0.277 -7.86,-1.763 -7.845,-6.128c-1.875,0.277 -4.418,1.147 -7.628,2.625c-3.21,1.47 -6.449,2.1 -9.734,1.897V47.075z" id="path_5"/><path fill="#000001" d="M63.566,52.768c2.46,1.229 3.697,2.287 3.697,3.165c-1.178,2.31 -1.875,3.487 -2.115,3.51h-0.353c-1.8,-0.907 -2.91,-1.725 -3.338,-2.46C61.871,55.655 62.576,54.245 63.566,52.768z" id="path_6"/><path fill="#000001" d="M70.398,23.255c0.323,0.555 0.698,2.138 1.125,4.747c-0.262,1.583 -0.952,2.37 -2.07,2.37h-0.149c-0.487,0 -1.117,-0.314 -1.912,-0.944c-0.54,0.952 -1.335,1.432 -2.37,1.432c-1.261,0 -1.891,-1.529 -1.891,-4.59c0.368,-1.162 0.683,-1.739 0.945,-1.739l0.15,0.157v2.7c0.217,0.938 0.487,1.402 0.795,1.402h0.637c0.66,0 1.08,-0.263 1.275,-0.788l-0.33,-2.37c0.128,-0.795 0.345,-1.215 0.638,-1.252h0.33c0.33,2.633 0.862,3.952 1.575,3.952h1.103v-0.157l-0.48,-3.157v-0.181C69.896,23.779 70.106,23.255 70.398,23.255z" id="path_7"/><path fill="#000001" d="M73.062,13.588c0.18,-0.105 0.232,0.06 0.157,0.487c-0.998,2.34 -2.527,3.975 -4.59,4.897l-7.583,3.803c-0.322,-0.09 -0.382,-0.353 -0.18,-0.795c1.013,-1.95 1.702,-3.105 2.07,-3.473L73.062,13.588z" id="path_8"/><path fill="#D50000" d="M54.844,52.085c-3.412,0.202 -5.896,-1.373 -7.447,-4.726c-0.75,-1.244 -1.447,-9.637 -2.107,-25.177V21.83c0.435,-2.58 1.08,-3.87 1.927,-3.87l0.885,-0.173c1.08,0 2.724,0.353 4.921,1.05v0.354c-0.12,0.352 -0.473,0.532 -1.058,0.532h-2.985c-0.614,0 -1.2,0.345 -1.763,1.05c0.548,13.492 1.343,21.308 2.4,23.445c1.05,2.138 2.798,3.09 5.228,2.857V52.085z" id="path_9"/><path fill="#000001" d="M29.929,51.732c2.46,1.23 3.689,2.287 3.689,3.165c-1.169,2.317 -1.874,3.487 -2.107,3.518h-0.353c-1.8,-0.908 -2.917,-1.732 -3.337,-2.46C28.227,54.62 28.932,53.21 29.929,51.732z" id="path_10"/><path fill="#000001" d="M20.344,47.075h2.025c2.137,-0.293 5.534,-1.088 10.192,-2.37v-0.181c-4.245,-1.875 -6.938,-2.813 -8.085,-2.813c-1.553,0 -2.604,0.878 -3.165,2.641l-0.525,0.353c-0.232,0 -0.353,-0.181 -0.353,-0.533c0.585,-3.51 2.168,-5.272 4.748,-5.272h0.877c1.088,0 4.777,1.23 11.077,3.69l4.748,0.353l0.345,0.532c-0.082,0.788 -0.787,2.311 -2.107,4.567h-0.524l-0.706,-0.18h-0.877c-9.143,2.7 -14.476,4.103 -15.998,4.223h-1.672V47.075z" id="path_11"/><path fill="#f06022" d="M36.716,24.484l0.181,0.157v0.48c-0.915,1.95 -2.183,3.315 -3.803,4.11c-5.04,2.737 -7.837,4.109 -8.393,4.109c-0.21,0 -0.315,-0.164 -0.315,-0.487c0.488,-1.859 1.546,-3.12 3.165,-3.78l9.016,-4.59H36.716z" id="path_12"/><path fill="#f06022" d="M35.464,20.532c0.202,0 0.308,0.149 0.308,0.457c-0.585,1.703 -2.317,3.233 -5.205,4.598l-6.66,3.646l-0.15,-0.158v-0.172c0.63,-2.228 1.628,-3.6 3.008,-4.11l7.425,-3.803L35.464,20.532z" id="path_13"/><path fill="#D50000" d="M20.719,52.085c-3.412,0.202 -5.895,-1.373 -7.447,-4.726c-0.75,-1.244 -1.447,-9.637 -2.107,-25.177V21.83c0.435,-2.58 1.08,-3.87 1.927,-3.87l0.886,-0.173c1.079,0 2.723,0.353 4.92,1.05v0.354c-0.12,0.352 -0.473,0.532 -1.058,0.532h-2.985c-0.614,0 -1.199,0.345 -1.763,1.05c0.548,13.492 1.343,21.308 2.4,23.445c1.05,2.138 2.798,3.09 5.228,2.857V52.085z" id="path_14"/></svg>