<svg id="vector" xmlns="http://www.w3.org/2000/svg" width="102" height="73" viewBox="0 0 102 73"><path fill="#ffffff" d="M8.396,0.5h85.207c4.301,0 7.814,3.453 7.814,7.678V64.82c0,4.227 -3.514,7.68 -7.814,7.68H8.396c-4.298,0 -7.813,-3.453 -7.813,-7.68V8.178C0.583,3.953 4.098,0.5 8.396,0.5z" id="path_0"/><path fill="#000001" d="M8.351,0.02h85.3c2.28,0 4.356,0.92 5.859,2.398h0.004c1.505,1.48 2.438,3.52 2.438,5.762v56.643c0,2.242 -0.934,4.285 -2.438,5.764H99.51c-1.503,1.479 -3.579,2.395 -5.859,2.395h-85.3c-2.282,0 -4.357,-0.916 -5.861,-2.395H2.483c-1.504,-1.479 -2.436,-3.521 -2.436,-5.764V8.18c0,-2.242 0.932,-4.281 2.436,-5.762h0.006C3.993,0.939 6.068,0.02 8.351,0.02L8.351,0.02zM93.65,0.979L93.65,0.979h-85.3c-2.012,0 -3.847,0.814 -5.174,2.115H3.173C1.849,4.398 1.024,6.199 1.024,8.18v56.643c0,1.975 0.824,3.779 2.152,5.082v0.004c1.327,1.301 3.162,2.113 5.174,2.113h85.3c2.014,0 3.849,-0.813 5.176,-2.113v-0.004c1.321,-1.303 2.149,-3.107 2.149,-5.082V8.18c0,-1.98 -0.828,-3.781 -2.149,-5.086C97.495,1.793 95.664,0.979 93.65,0.979z" id="path_1"/><path fill="#213e95" d="M66.831,33.949h0.354c1.199,0.264 2.49,0.961 3.869,2.107v0.172c-0.795,2.408 -1.492,3.691 -2.107,3.871c-1.792,-0.354 -3.135,-0.938 -4.042,-1.756v-0.18C64.904,36.785 65.55,35.383 66.831,33.949z" id="path_2"/><path fill="#213e95" d="M73.342,32.367h0.173c1.199,0.172 2.55,0.99 4.042,2.459V35l-2.107,3.689c-2.813,-0.908 -4.223,-1.666 -4.223,-2.279C72.134,33.709 72.839,32.367 73.342,32.367z" id="path_3"/><path fill="#213e95" d="M65.272,52.25c4.604,0.045 7.177,-0.818 7.739,-2.596c0,-0.615 -0.585,-2.137 -1.763,-4.566l0.533,-4.568h0.345c1.53,2.633 2.287,5.271 2.287,7.904v1.584c0,1.057 -0.255,2.166 -0.757,3.328c-0.503,1.164 -1.283,2.146 -2.326,2.934c-1.049,0.795 -3.066,1.125 -6.059,0.99V52.25z" id="path_4"/><path fill="#213e95" d="M76.409,22.918c0.18,-0.105 0.232,0.059 0.157,0.486c-0.997,2.34 -2.527,3.975 -4.59,4.898l-7.583,3.803c-0.322,-0.092 -0.382,-0.354 -0.18,-0.795c1.013,-1.951 1.703,-3.105 2.07,-3.473L76.409,22.918z" id="path_5"/><path fill="#000001" d="M66.044,57.26l-1.98,-0.023c-1.094,4.822 -3.996,7.26 -8.699,7.32c-2.52,0.113 -3.78,0.068 -3.78,-0.135c0.232,-0.441 1.921,-1.289 5.056,-2.551c3.225,-2.047 5.167,-3.367 5.842,-3.951l0.18,-0.525l-3.074,-0.488c-2.242,-0.584 -3.503,-1.709 -3.78,-3.381v-0.354c0,-2.842 0.697,-4.658 2.107,-5.453l1.058,-0.172c2.078,0 3.772,1.447 5.092,4.35c0.841,0.293 1.501,0.436 1.98,0.42V57.26z" id="path_6"/><path fill="#000001" d="M64.567,26.555c0.18,-0.104 0.232,0.061 0.156,0.488c-0.997,2.34 -2.527,3.975 -4.59,4.896l-7.582,3.803c-0.322,-0.09 -0.383,-0.352 -0.18,-0.795c1.012,-1.949 1.702,-3.104 2.069,-3.473L64.567,26.555z" id="path_7"/><path fill="#213e95" d="M44.946,56.053l0.023,-0.023c-1.583,-1.141 -3.001,-1.688 -4.261,-1.627c-1.261,0.061 -1.89,-0.045 -1.89,-0.309v-0.172l0.525,-4.223c2.459,-0.848 3.689,-1.613 3.689,-2.287L40.927,34.76c0.473,-2.813 0.952,-4.439 1.447,-4.875l0.135,0.652c0.615,1.98 1.433,3.855 2.461,5.625v0.533c0,0.893 -0.233,2.002 -0.705,3.336l0.18,5.102v0.877c0,1.012 -0.232,2.303 -0.705,3.869c2.01,0.697 3.24,1.584 3.689,2.633c0.135,0.277 0.195,0.57 0.18,0.877c-0.18,0.969 -0.404,1.854 -0.682,2.664H44.946z" id="path_8"/><path fill="#213e95" d="M44.856,21.318c0.322,0.557 0.697,2.139 1.125,4.748c-0.262,1.582 -0.953,2.371 -2.07,2.371h-0.149c-0.487,0 -1.118,-0.316 -1.913,-0.945c-0.539,0.953 -1.334,1.432 -2.369,1.432c-1.261,0 -1.891,-1.529 -1.891,-4.59c0.367,-1.162 0.684,-1.74 0.945,-1.74l0.15,0.158v2.699c0.217,0.938 0.487,1.402 0.795,1.402h0.637c0.66,0 1.08,-0.262 1.275,-0.787l-0.33,-2.369c0.127,-0.795 0.346,-1.215 0.638,-1.252h0.33c0.329,2.631 0.862,3.951 1.575,3.951h1.102V26.24l-0.479,-3.158v-0.18C44.354,21.844 44.563,21.318 44.856,21.318z" id="path_9"/><path fill="#D50000" d="M47.033,55.814c-0.705,2.445 -2.843,5.145 -6.42,8.084c-2.152,1.531 -4.673,2.287 -7.553,2.287c-1.612,-0.367 -2.767,-0.734 -3.464,-1.094c-0.698,-0.367 -1.531,-1.178 -2.514,-2.424c-1.762,-2.34 -2.64,-4.506 -2.64,-6.502c0,-4.748 1.522,-8.549 4.575,-11.422c0.539,-0.383 0.772,-0.322 0.697,0.172c0,0.428 -0.877,2.07 -2.633,4.92c-0.705,1.426 -1.057,2.775 -1.057,4.043c0,1.822 1.289,3.811 3.869,5.977c1.83,1.014 3.818,1.426 5.979,1.23c2.542,0 5.707,-1.754 9.486,-5.271H47.033z" id="path_10"/><path fill="#213e95" d="M41.605,6.814c1.41,2.398 2.115,4.746 2.115,7.027c-0.615,4.334 -1.38,6.502 -2.288,6.502l-0.172,-0.172v-0.174l0.345,-2.287v-0.18c0,-1.402 -0.585,-3.51 -1.755,-6.322v-0.354C40.436,8.156 41.021,6.814 41.605,6.814z" id="path_11"/></svg>