<svg id="vector" xmlns="http://www.w3.org/2000/svg" width="94" height="67" viewBox="0 0 101.905 72.96"><path fill="#DD2C00" d="M92.401,46.534h0.688c2.004,0 3.489,1.711 4.462,5.141l0.168,1.711c0.059,0.557 0.059,1.127 0,1.721c-0.512,2.084 -1.66,4.139 -3.43,6.164c-1.229,1.031 -4.022,1.83 -8.396,2.4c-0.513,-0.227 -0.805,-0.455 -0.856,-0.682c7.314,-3.971 10.972,-6.369 10.972,-7.203l0.168,-0.512l-0.168,-0.168l-1.544,0.512h-0.855c-3.086,0 -4.63,-1.09 -4.63,-3.256v-0.344c0.396,-3.547 1.258,-5.316 2.567,-5.316L92.401,46.534z" id="path_0"/><path fill="#DD2C00" d="M96.944,32.644c0.175,-0.103 0.227,0.059 0.153,0.476c-0.973,2.282 -2.465,3.876 -4.477,4.776l-7.395,3.709c-0.314,-0.088 -0.373,-0.344 -0.176,-0.775c0.987,-1.902 1.66,-3.029 2.02,-3.387L96.944,32.644z" id="path_1"/><path fill="#000001" d="M81.006,27.692c0.344,0 0.688,1.148 1.031,3.43l1.544,3.431l-0.688,3.942l0.512,9.604v1.535c-0.227,3.922 -0.798,6.203 -1.712,6.861l-0.168,-0.168l0.168,-2.574c0,-2.313 -0.746,-9.684 -2.23,-22.111C80.18,29.009 80.691,27.692 81.006,27.692z" id="path_2"/><path fill="#DD2C00" d="M67.051,44.837c0.197,0.014 0.409,0.021 0.644,0.021h1.623c1.72,-0.285 3.028,-0.885 3.943,-1.799l-2.056,-16.289c0.512,-3.087 0.973,-4.623 1.367,-4.623l2.231,5.143c0,0.797 -0.285,1.996 -0.856,3.598l0.856,9.254v2.574c-0.644,2.729 -1.507,4.637 -2.59,5.719c-0.818,0.871 -1.777,1.311 -2.896,1.311h-1.455c-0.285,0 -0.556,-0.008 -0.812,-0.023V44.837z" id="path_3"/><path fill="#213e95" d="M58.734,32.577c0.966,0 2.282,0.805 3.942,2.4v0.344c-1.119,2.398 -1.857,3.605 -2.23,3.605l-3.942,-2.23h-0.176c-1.111,1.916 -1.851,2.939 -2.224,3.086h-0.176c-2.508,-1.119 -3.767,-1.975 -3.767,-2.574c0.915,-2.517 1.712,-3.768 2.399,-3.768l4.11,2.225C57.33,34.326 58.018,33.295 58.734,32.577z" id="path_4"/><path fill="#213e95" d="M54.273,27.269c1.118,0 2.369,0.973 3.773,2.91c-0.373,0.885 -1.119,1.916 -2.23,3.086h-0.344c-0.995,-0.227 -2.085,-0.855 -3.255,-1.887v-0.512C52.306,29.952 52.985,28.753 54.273,27.269z" id="path_5"/><path fill="#213e95" d="M68.952,49.745c-0.271,0 -0.6,0 -0.987,0c-1.528,-0.016 -3.174,-1.164 -4.951,-3.453c-0.681,2.516 -1.88,3.773 -3.599,3.773h-0.168c-1.456,0 -2.655,-0.855 -3.599,-2.574h-0.176c-1.024,2.063 -2.268,3 -3.73,2.809c-2.713,0.016 -4.322,-1.266 -4.842,-3.832c-1.909,2.238 -3.964,3.336 -6.151,3.277h-0.277v-4.887h0.087c3.46,-0.256 6.027,-1.434 7.717,-3.533c0.227,0 0.344,0.168 0.344,0.514l-0.176,1.199c0.915,1.828 2.114,2.742 3.599,2.742c1.404,0 2.83,-1.367 4.286,-4.111h0.176l0.512,0.512v1.201c0,1.082 0.805,1.711 2.399,1.887h0.344c1.484,0 2.859,-1.486 4.117,-4.463h0.169c0.227,0 0.344,0.52 0.344,1.545c0.629,1.447 2.149,2.281 4.563,2.508V49.745z" id="path_6"/><path fill="#213e95" d="M56.95,15.44c0.314,0.541 0.68,2.085 1.097,4.63c-0.256,1.544 -0.929,2.312 -2.019,2.312h-0.146c-0.475,0 -1.089,-0.307 -1.865,-0.922c-0.526,0.93 -1.301,1.397 -2.311,1.397c-1.229,0 -1.843,-1.492 -1.843,-4.477c0.357,-1.134 0.665,-1.696 0.921,-1.696l0.146,0.153v2.633c0.212,0.915 0.476,1.368 0.775,1.368h0.621c0.645,0 1.054,-0.256 1.244,-0.769l-0.322,-2.312c0.125,-0.774 0.337,-1.184 0.622,-1.221h0.321c0.322,2.567 0.842,3.854 1.536,3.854h1.075v-0.153l-0.468,-3.08v-0.175C56.46,15.953 56.665,15.44 56.95,15.44z" id="path_7"/><path fill="#213e95" d="M59.539,6.013c0.176,-0.102 0.227,0.059 0.153,0.476c-0.973,2.282 -2.465,3.876 -4.476,4.776l-7.395,3.709c-0.314,-0.088 -0.373,-0.345 -0.176,-0.775c0.987,-1.902 1.66,-3.028 2.019,-3.387L59.539,6.013z" id="path_8"/><path fill="#000001" d="M24.395,44.858c1.902,0.16 3.519,-0.029 4.864,-0.557l-0.71,-1.287c-0.665,-3.773 -0.365,-6.268 0.899,-7.489c1.273,-1.222 2.642,-1.784 4.097,-1.683c2.83,0.133 4.425,1.617 4.798,4.455v1.031c0,2.369 -0.344,3.854 -1.024,4.453c-0.432,0.447 0.541,0.82 2.911,1.121l0.557,-0.023c0.431,-0.014 0.921,-0.021 1.477,-0.021v4.887l-1.733,0.021c-3.225,-0.016 -5.668,-0.424 -7.328,-1.223c-2.282,0.799 -4.06,1.201 -5.311,1.201h-0.688c-0.855,0 -1.792,0 -2.809,0V44.858L24.395,44.858zM30.458,40.017v0.344c0.717,1.229 1.799,2.084 3.255,2.566c0.973,-0.168 1.945,-0.57 2.918,-1.199c-0.432,-1.602 -1.857,-2.516 -4.285,-2.742C31.087,39.329 30.458,39.673 30.458,40.017z" id="path_9"/><path fill="#000001" d="M31.489,25.446c1.484,0 2.853,0.914 4.11,2.743c-1.053,2.399 -1.857,3.599 -2.398,3.599c-2.312,-1.141 -3.569,-1.887 -3.774,-2.23C29.427,28.475 30.114,27.1 31.489,25.446z" id="path_10"/><path fill="#000001" d="M31.227,13.063h1.696c2.056,0 3.087,0.769 3.087,2.312c-1.331,3.599 -2.948,5.508 -4.85,5.728l-2.245,0.299c-0.358,0 -0.505,-0.102 -0.453,-0.299c1.813,-0.959 3.511,-2.1 5.083,-3.408c-0.556,-0.52 -1.171,-0.775 -1.844,-0.775h-0.475l-1.844,0.153l-0.146,-0.153v-0.301C30.107,14.249 30.773,13.063 31.227,13.063z" id="path_11"/><path fill="#DD2C00" d="M24.95,49.7c-6.012,0.6 -9.405,-1.082 -10.181,-5.055l-0.512,-3.217H14.09c-1.42,0.387 -3.189,1.645 -5.318,3.773c-1.572,1.77 -2.53,3.885 -2.874,6.342c-0.139,7.314 6.078,10.971 18.644,10.971l7.028,-0.512l0.176,0.168l-0.22,0.52c0,0.381 -1.338,1.191 -4.015,2.428c-2.678,1.236 -5.896,1.857 -9.654,1.857c-4.915,-0.014 -8.683,-1.557 -11.315,-4.629c-1.595,-2.889 -2.399,-6.203 -2.399,-9.947c0.242,-3.6 1.785,-7.197 4.63,-10.795c-3.086,-1.201 -4.63,-2.633 -4.63,-4.287c0.146,-3.174 0.637,-5.281 1.471,-6.319c0.834,-1.046 1.828,-1.624 2.991,-1.741h0.512c2.312,0 4.886,0.973 7.717,2.918v0.345c0,0.227 -0.176,0.343 -0.52,0.343C14.359,32.285 12.473,32 10.659,32c-2.085,0.402 -3.519,0.973 -4.286,1.72l-0.176,0.167v0.176c0,0.899 1.945,1.981 5.829,3.255l1.719,0.168c0.629,0 2.743,-0.68 6.342,-2.055h0.168l0.344,0.344c-0.388,1.932 -1.47,3.189 -3.255,3.773l-1.712,1.199c0,0.828 0.52,1.719 1.559,2.678c1.616,1.287 4.205,1.748 7.76,1.391V49.7z" id="path_12"/><path fill="#DD2C00" d="M24.11,51.521c0.159,-0.088 0.206,0.053 0.14,0.43c-0.882,2.068 -2.233,3.512 -4.056,4.328l-6.699,3.359c-0.285,-0.08 -0.338,-0.313 -0.16,-0.695c0.896,-1.723 1.505,-2.744 1.829,-3.068L24.11,51.521z" id="path_13"/></svg>