<svg id="vector" xmlns="http://www.w3.org/2000/svg" width="94" height="67" viewBox="0 0 101.905 72.959"><path fill="#DD2C00" d="M72.901,42.055h0.068c2.723,-0.119 4.598,-1.432 5.625,-3.951c0,-0.354 0.232,-0.646 0.705,-0.887h0.352c0.233,0 0.354,0.182 0.354,0.533l-0.18,1.051c0.997,1.762 2.055,2.639 3.164,2.639h0.878c1.522,0 2.7,-1.521 3.518,-4.566h0.18c0.173,0.021 0.465,0.727 0.878,2.107c0.997,0.877 1.987,1.402 2.984,1.582c1.17,0 1.763,-0.705 1.763,-2.107c0.112,-2.227 0.345,-3.346 0.697,-3.346c0.473,0.998 0.705,2.229 0.705,3.691c0,4.342 -1.058,6.51 -3.165,6.51c-1.643,0 -2.984,-0.826 -4.042,-2.467h-0.353c-0.728,2.346 -1.905,3.516 -3.518,3.516h-0.172c-1.434,0 -3.076,-1.109 -4.921,-3.336c-1.553,2.691 -3.315,4.041 -5.272,4.041h-0.248V42.055z" id="path_0"/><path fill="#DD2C00" d="M91.359,49.938c0.181,-0.098 0.232,0.061 0.157,0.488c-0.997,2.34 -2.527,3.975 -4.59,4.896l-7.582,3.803c-0.322,-0.09 -0.383,-0.352 -0.18,-0.787c1.012,-1.949 1.701,-3.105 2.069,-3.473L91.359,49.938z" id="path_1"/><path fill="#000001" d="M48.399,40.406c1.44,0 2.49,0 3.165,0h0.705c2.107,-0.277 5.257,-1.178 9.45,-2.701c-1.41,-1.178 -3.578,-2.055 -6.503,-2.641c-1.732,0 -2.902,0.818 -3.518,2.461c-0.217,0.488 -0.412,0.615 -0.585,0.383c-0.165,-0.225 -0.21,-0.525 -0.12,-0.908c1.057,-3.547 2.459,-5.316 4.222,-5.316h1.23c1.17,0 3.285,0.658 6.337,1.979c3.053,1.313 5.686,1.846 7.898,1.584c0.277,0 0.396,0.172 0.352,0.523c-0.473,2.926 -1.35,4.396 -2.64,4.396l-0.878,0.172v0.354c0.443,1.215 2.468,1.656 6.09,1.318v4.988c-5.242,0.277 -7.859,-1.762 -7.845,-6.127c-1.874,0.277 -4.417,1.146 -7.627,2.625c-3.21,1.469 -6.45,2.1 -9.735,1.896V40.406z" id="path_2"/><path fill="#000001" d="M57.167,46.098c2.46,1.23 3.697,2.287 3.697,3.166c-1.177,2.309 -1.875,3.486 -2.115,3.51h-0.353c-1.8,-0.908 -2.91,-1.725 -3.337,-2.461C55.471,48.986 56.176,47.576 57.167,46.098z" id="path_3"/><path fill="#000001" d="M63.999,16.586c0.323,0.555 0.698,2.137 1.125,4.747c-0.262,1.583 -0.952,2.37 -2.069,2.37h-0.149c-0.488,0 -1.118,-0.314 -1.913,-0.945c-0.54,0.953 -1.335,1.433 -2.37,1.433c-1.26,0 -1.89,-1.53 -1.89,-4.59c0.368,-1.163 0.683,-1.74 0.945,-1.74l0.15,0.157v2.701c0.217,0.937 0.487,1.402 0.795,1.402h0.637c0.66,0 1.08,-0.264 1.275,-0.788l-0.33,-2.37c0.127,-0.795 0.345,-1.215 0.638,-1.252h0.329c0.33,2.633 0.862,3.952 1.575,3.952h1.103v-0.157l-0.48,-3.158v-0.18C63.497,17.11 63.707,16.586 63.999,16.586z" id="path_4"/><path fill="#000001" d="M65.012,53.957c0.18,-0.098 0.232,0.061 0.156,0.488c-0.997,2.34 -2.527,3.975 -4.59,4.896l-7.582,3.803c-0.323,-0.09 -0.383,-0.352 -0.18,-0.787c1.012,-1.949 1.703,-3.105 2.07,-3.473L65.012,53.957z" id="path_5"/><path fill="#213e95" d="M34.014,48.604h0.705c2.31,1.313 3.48,2.076 3.51,2.279c-1.14,2.461 -1.905,3.75 -2.28,3.869c-1.32,0 -2.61,-0.645 -3.87,-1.934C32.311,51.559 32.956,50.156 34.014,48.604z" id="path_6"/><path fill="#213e95" d="M40.164,47.719c1.118,0 2.46,0.764 4.042,2.287c0,0.615 -0.757,1.844 -2.288,3.689c-0.877,0 -2.167,-0.584 -3.862,-1.756C38.056,50.912 38.761,49.51 40.164,47.719z" id="path_7"/><path fill="#213e95" d="M33.616,34.555h0.045c2.048,0 3.69,-0.697 4.92,-2.107l-0.172,-1.402c0,-1.732 0.353,-3.135 1.05,-4.223c0.323,0 0.795,2.992 1.41,8.963c0.705,3.225 3.158,4.717 7.357,4.484v5.012c-4.103,0.291 -6.96,-1.584 -8.587,-5.625c-0.263,-2.814 -0.555,-4.217 -0.877,-4.217c-0.69,2.664 -2.408,4.066 -5.145,4.193V34.555z" id="path_8"/><path fill="#213e95" d="M39.744,13.795h1.74c2.107,0 3.165,0.788 3.165,2.371c-1.365,3.689 -3.022,5.646 -4.973,5.872l-2.303,0.308c-0.367,0 -0.517,-0.105 -0.465,-0.308c1.86,-0.983 3.6,-2.153 5.213,-3.495c-0.57,-0.533 -1.2,-0.795 -1.89,-0.795h-0.488l-1.89,0.157l-0.15,-0.157V17.44C38.596,15.01 39.279,13.795 39.744,13.795z" id="path_9"/><path fill="#f06022" d="M18.563,35.02c1.733,0.555 3.075,1.26 4.042,2.107v0.354c0,0.584 -0.645,1.875 -1.935,3.869c-1.2,0 -2.542,-0.645 -4.042,-1.934v-0.354C16.629,37.803 17.273,36.461 18.563,35.02z" id="path_10"/><path fill="#f06022" d="M34.059,39.633c-1.598,0 -2.835,-0.248 -3.72,-0.742c-0.435,3.811 -1.253,6.441 -2.46,7.912c-2.895,3.631 -5.887,5.445 -8.962,5.445c-5.655,0 -9.345,-2.461 -11.077,-7.381c-0.345,-0.938 -0.525,-1.934 -0.525,-2.992v-1.402c0,-4.162 1.29,-7.439 3.87,-9.848c0.465,0.18 0.705,0.586 0.705,1.23l-2.813,5.1l-0.18,1.756c0,3.959 2.168,6.713 6.503,8.264l4.575,0.354c1.928,0 4.335,-1.117 7.208,-3.338c1.05,-1.703 1.583,-2.932 1.583,-3.697c-0.12,-1.17 -0.885,-2.865 -2.288,-5.094v-3.697l0.525,-0.525c1.275,2.566 3.63,3.803 7.057,3.713V39.633z" id="path_11"/><path fill="#f06022" d="M21.594,12.746c1.343,0 2.137,0.893 2.37,2.677v0.487c-0.248,2.985 -1.245,4.936 -2.985,5.843c-3.03,1.905 -5.782,2.857 -8.242,2.857c-0.09,-0.015 -0.172,-0.038 -0.263,-0.067c-0.09,-0.03 -0.157,-0.075 -0.21,-0.135c-0.053,-0.053 -0.045,-0.09 0.015,-0.105c0.127,-0.293 2.34,-1.463 6.63,-3.494V20.65c-1.155,-0.728 -1.732,-1.732 -1.732,-3.008C17.866,14.373 19.336,12.746 21.594,12.746L21.594,12.746zM18.759,16.061v0.15c0,1.087 0.743,1.725 2.22,1.912h0.458c0.563,0 0.878,-0.158 0.945,-0.48c0,-1.477 -0.788,-2.22 -2.37,-2.22C19.179,15.61 18.759,15.828 18.759,16.061z" id="path_12"/><path fill="#f06022" d="M18.121,9.888c0.338,-0.165 0.495,-0.052 0.48,0.33c-1.695,1.875 -3.03,3.653 -3.998,5.341c-0.277,0.659 -0.435,1.199 -0.472,1.635c-0.038,0.435 0.075,0.899 0.345,1.395h0.33c0.128,-0.734 0.39,-1.103 0.788,-1.103c0.473,0.21 0.735,0.42 0.788,0.638v0.307c0.03,1.674 -0.442,2.678 -1.425,3.016h-0.787c-1.058,-0.21 -1.583,-1.425 -1.583,-3.652C12.586,15.086 14.431,12.453 18.121,9.888z" id="path_13"/></svg>