<svg id="vector" xmlns="http://www.w3.org/2000/svg" width="174" height="67" viewBox="0 0 189.6 72.959"><path fill="#213e95" d="M151.625,25.674c0.315,0 0.63,1.145 0.945,3.416l1.414,3.416l-0.63,3.926l0.469,9.564v1.529c-0.208,3.904 -0.73,6.178 -1.568,6.832l-0.154,-0.168l0.154,-2.563c0,-2.303 -0.683,-9.645 -2.043,-22.02C150.869,26.986 151.338,25.674 151.625,25.674z" id="path_0"/><path fill="#DD2C00" d="M140.987,49.471c0.181,0.014 0.375,0.021 0.589,0.021h1.487c1.574,-0.283 2.773,-0.881 3.611,-1.791l-1.883,-16.223c0.469,-3.072 0.891,-4.604 1.253,-4.604l2.043,5.121c0,0.795 -0.261,1.988 -0.784,3.584l0.784,9.215v2.563c-0.59,2.717 -1.38,4.619 -2.372,5.697c-0.75,0.865 -1.628,1.303 -2.653,1.303h-1.333c-0.261,0 -0.509,-0.006 -0.744,-0.021V49.471z" id="path_1"/><path fill="#000001" d="M142.374,54.357c-0.248,0 -0.549,0 -0.904,0c-1.4,-0.014 -2.908,-1.158 -4.535,-3.438c-0.624,2.506 -1.722,3.758 -3.296,3.758h-0.154c-1.333,0 -2.432,-0.852 -3.296,-2.563h-0.161c-0.938,2.053 -2.077,2.986 -3.417,2.797c-2.485,0.014 -3.959,-1.26 -4.435,-3.816c-1.749,2.229 -3.631,3.32 -5.634,3.262h-0.254v-4.865h0.08c3.169,-0.117 5.52,-1.289 7.068,-3.518c0.208,0 0.315,0.168 0.315,0.51l-0.161,1.195c0.837,1.82 1.936,2.73 3.295,2.73c1.286,0 2.593,-1.361 3.926,-4.094h0.161l0.469,0.51v1.195c0,1.078 0.737,1.703 2.197,1.879h0.315c1.359,0 2.619,-1.479 3.771,-4.443h0.154c0.208,0 0.315,0.518 0.315,1.537c0.576,1.727 1.969,2.557 4.18,2.498V54.357z" id="path_2"/><path fill="#000001" d="M132.714,29.6c0.288,0.539 0.623,2.076 1.005,4.611c-0.234,1.537 -0.851,2.301 -1.849,2.301h-0.134c-0.436,0 -0.998,-0.305 -1.708,-0.918c-0.482,0.926 -1.192,1.393 -2.117,1.393c-1.125,0 -1.688,-1.486 -1.688,-4.459c0.328,-1.129 0.61,-1.689 0.844,-1.689l0.134,0.154v2.621c0.194,0.91 0.435,1.361 0.709,1.361h0.569c0.59,0 0.965,-0.254 1.139,-0.764l-0.294,-2.303c0.114,-0.771 0.308,-1.18 0.57,-1.215h0.294c0.295,2.557 0.771,3.838 1.407,3.838h0.985v-0.152l-0.429,-3.066v-0.176C132.265,30.109 132.453,29.6 132.714,29.6z" id="path_3"/><path fill="#000001" d="M135.092,20.211c0.161,-0.102 0.208,0.059 0.14,0.473c-0.891,2.273 -2.257,3.861 -4.099,4.758l-6.773,3.693c-0.288,-0.088 -0.342,-0.344 -0.161,-0.773c0.904,-1.893 1.521,-3.016 1.849,-3.371L135.092,20.211z" id="path_4"/><path fill="#213e95" d="M102.863,49.492h0.355c1.072,0 2.204,-0.451 3.396,-1.354c1.192,-0.904 1.889,-2.041 2.104,-3.402l0.154,-0.176h0.154c0.188,0 0.449,0.627 0.791,1.879c1.487,2.223 3.584,3.242 6.277,3.074c0.181,0 0.369,-0.006 0.549,-0.021v4.887c-0.181,0.016 -0.368,0.023 -0.549,0.023l-2.197,-0.277c-0.235,2.271 -0.918,3.408 -2.043,3.416h-0.315c-2.09,-0.43 -3.135,-1.225 -3.135,-2.396l0.469,-3.074c-0.369,-0.451 -0.73,-0.678 -1.099,-0.678c-1.179,2.004 -2.814,2.994 -4.911,2.965V49.492z" id="path_5"/><path fill="#213e95" d="M115.303,28.172c0.161,-0.102 0.208,0.059 0.141,0.475c-0.891,2.271 -2.257,3.859 -4.1,4.756l-6.773,3.693c-0.288,-0.088 -0.341,-0.342 -0.161,-0.773c0.904,-1.893 1.521,-3.014 1.849,-3.371L115.303,28.172z" id="path_6"/><path fill="#000001" d="M103.48,54.357c-3.048,0.197 -5.266,-1.332 -6.652,-4.588c-0.67,-1.209 -1.3,-9.359 -1.882,-24.453v-0.342c0.389,-2.506 0.964,-3.758 1.721,-3.758l0.791,-0.168c0.964,0 2.431,0.342 4.395,1.02v0.342c-0.107,0.344 -0.422,0.518 -0.945,0.518h-2.666c-0.549,0 -1.072,0.336 -1.575,1.02c0.489,13.104 1.2,20.693 2.144,22.77c0.938,2.076 2.499,3.002 4.669,2.775V54.357z" id="path_7"/><path fill="#000001" d="M106.735,9.395l0.161,0.176c0,2.301 -1.675,4.689 -5.024,7.166c-1.963,0.91 -3.953,1.363 -5.969,1.363l-1.414,-0.168c-0.523,2.162 -0.891,3.24 -1.099,3.24c-0.234,0 -0.549,-0.91 -0.945,-2.73c-0.73,-1.078 -1.936,-2.447 -3.61,-4.094v-0.342c0.368,-2.281 0.79,-3.416 1.259,-3.416c2.043,2.389 4.555,3.582 7.537,3.582C101.082,14.172 104.123,12.584 106.735,9.395z" id="path_8"/><path fill="#DD2C00" d="M89.938,27.412c1.608,0 2.412,1.078 2.412,3.227c0,3.424 -2.686,6.344 -8.065,8.748c-0.771,0.254 -0.864,-0.051 -0.275,-0.918c0.147,-0.328 1.414,-1.355 3.805,-3.074v-0.146c-1.032,-0.459 -1.547,-1.434 -1.547,-2.928c0.683,-3.27 1.769,-4.908 3.256,-4.908H89.938L89.938,27.412zM87.54,31.105c0,0.91 0.71,1.471 2.124,1.689h0.274c0.522,0 0.857,-0.211 0.998,-0.619c0,-0.926 -0.616,-1.646 -1.842,-2.156C88.558,30.02 88.042,30.383 87.54,31.105z" id="path_9"/><path fill="#213e95" d="M80.576,25.674c0.315,0 0.63,1.145 0.944,3.416l1.414,3.416l-0.629,3.926l0.469,9.564v1.529c-0.208,3.904 -0.73,6.178 -1.567,6.832l-0.154,-0.168l0.154,-2.563c0,-2.303 -0.684,-9.645 -2.043,-22.02C79.819,26.986 80.288,25.674 80.576,25.674z" id="path_10"/><path fill="#f06022" d="M72.276,49.535c0.127,0 0.322,0 0.589,0h0.664c1.675,0 2.746,-0.457 3.222,-1.369v-0.342c-0.791,-2.986 -1.943,-5.703 -3.457,-8.15c0.181,-2.615 0.442,-3.926 0.784,-3.926c0.918,0.801 2.123,3.641 3.611,8.537l0.161,2.221v1.537c-0.503,4.211 -1.99,6.314 -4.475,6.314h-0.509c-0.281,0 -0.476,0.016 -0.589,0.045V49.535z" id="path_11"/><path fill="#f06022" d="M71.941,26.082c0.536,0 1.789,0.686 3.765,2.047c0,0.859 -0.623,2.221 -1.882,4.102c-2.512,-0.883 -3.765,-1.684 -3.765,-2.391C70.119,29.199 70.749,27.947 71.941,26.082z" id="path_12"/><path fill="#f06022" d="M71.901,15.775h1.554c1.882,0 2.827,0.764 2.827,2.301c-1.219,3.584 -2.7,5.486 -4.441,5.703l-2.057,0.299c-0.328,0 -0.462,-0.102 -0.415,-0.299c1.662,-0.953 3.215,-2.09 4.656,-3.393c-0.509,-0.518 -1.072,-0.773 -1.688,-0.773h-0.436l-1.688,0.154l-0.134,-0.154v-0.299C70.876,16.955 71.485,15.775 71.901,15.775z" id="path_13"/><path fill="#000001" d="M63.661,37.262c0.884,0 2.09,0.803 3.61,2.391v0.342c-1.025,2.389 -1.701,3.592 -2.042,3.592l-3.611,-2.223h-0.161c-1.019,1.908 -1.695,2.928 -2.037,3.074H59.26c-2.298,-1.115 -3.45,-1.967 -3.45,-2.564c0.838,-2.506 1.568,-3.75 2.198,-3.75l3.765,2.213C62.375,39.004 63.005,37.977 63.661,37.262z" id="path_14"/><path fill="#000001" d="M59.575,31.975c1.025,0 2.17,0.969 3.457,2.898c-0.341,0.883 -1.025,1.908 -2.043,3.074h-0.315c-0.911,-0.227 -1.909,-0.852 -2.981,-1.879v-0.51C57.773,34.648 58.396,33.453 59.575,31.975z" id="path_15"/><path fill="#000001" d="M73.02,54.357c-0.248,0 -0.549,0 -0.904,0c-1.4,-0.014 -2.907,-1.158 -4.535,-3.438c-0.623,2.506 -1.722,3.758 -3.296,3.758H64.13c-1.333,0 -2.432,-0.852 -3.295,-2.563h-0.161c-0.938,2.053 -2.077,2.986 -3.417,2.797c-2.485,0.014 -3.959,-1.26 -4.435,-3.816c-1.749,2.229 -3.631,3.32 -5.634,3.262h-0.255v-4.865h0.08c3.169,-0.254 5.521,-1.428 7.068,-3.518c0.208,0 0.315,0.168 0.315,0.51l-0.161,1.195c0.837,1.82 1.936,2.73 3.296,2.73c1.286,0 2.592,-1.361 3.926,-4.094h0.161l0.469,0.51v1.195c0,1.078 0.737,1.703 2.197,1.879h0.315c1.36,0 2.619,-1.479 3.771,-4.443h0.154c0.208,0 0.315,0.518 0.315,1.537c0.576,1.441 1.969,2.271 4.18,2.498V54.357z" id="path_16"/><path fill="#000001" d="M64.753,20.684c0.161,-0.102 0.208,0.059 0.141,0.475c-0.891,2.271 -2.257,3.859 -4.1,4.756l-6.773,3.693c-0.288,-0.088 -0.341,-0.342 -0.161,-0.771c0.904,-1.895 1.521,-3.016 1.849,-3.373L64.753,20.684z" id="path_17"/><path fill="#008046" d="M31.137,49.492c1.742,0.16 3.222,-0.029 4.455,-0.553l-0.649,-1.283c-0.61,-3.758 -0.335,-6.242 0.824,-7.459c1.166,-1.215 2.419,-1.775 3.751,-1.674c2.593,0.131 4.053,1.609 4.395,4.436v1.027c0,2.359 -0.315,3.838 -0.938,4.436c-0.395,0.443 0.496,0.816 2.667,1.113l0.509,-0.021c0.395,-0.014 0.844,-0.021 1.353,-0.021v4.865l-1.587,0.021c-2.954,-0.014 -5.192,-0.422 -6.713,-1.215c-2.09,0.793 -3.718,1.193 -4.863,1.193h-0.63c-0.784,0 -1.642,0 -2.573,0V49.492L31.137,49.492zM36.691,44.67v0.344c0.656,1.223 1.648,2.074 2.981,2.557c0.891,-0.168 1.782,-0.568 2.673,-1.195c-0.395,-1.596 -1.701,-2.506 -3.925,-2.732C37.267,43.986 36.691,44.328 36.691,44.67z" id="path_18"/><path fill="#008046" d="M39.732,28.705c1.701,0.574 3.168,1.484 4.394,2.73v0.176c0,0.713 -0.676,1.85 -2.036,3.416c-0.422,0 -1.836,-0.568 -4.241,-1.713v0.176c-0.837,1.762 -1.36,2.672 -1.574,2.73c-1.36,-0.313 -2.512,-0.998 -3.45,-2.055c0.63,-2.84 1.152,-4.26 1.568,-4.26c0.342,0 1.601,0.678 3.771,2.047C38.165,31.355 38.687,30.27 39.732,28.705z" id="path_19"/><path fill="#008046" d="M40.811,17.697c0.288,0.541 0.623,2.076 1.005,4.611c-0.235,1.537 -0.851,2.303 -1.849,2.303h-0.134c-0.436,0 -0.998,-0.307 -1.708,-0.918c-0.482,0.924 -1.192,1.391 -2.117,1.391c-1.125,0 -1.688,-1.486 -1.688,-4.457c0.329,-1.129 0.61,-1.691 0.844,-1.691l0.134,0.154v2.621c0.194,0.912 0.436,1.363 0.71,1.363h0.569c0.589,0 0.964,-0.256 1.139,-0.766l-0.294,-2.301c0.114,-0.773 0.308,-1.18 0.569,-1.217h0.295c0.295,2.557 0.771,3.838 1.407,3.838h0.985v-0.152l-0.429,-3.066v-0.176C40.362,18.209 40.549,17.697 40.811,17.697z" id="path_20"/><path fill="#008046" d="M43.182,8.311c0.161,-0.104 0.208,0.057 0.141,0.473c-0.891,2.271 -2.258,3.859 -4.1,4.756l-6.773,3.693c-0.288,-0.088 -0.341,-0.342 -0.161,-0.771c0.904,-1.895 1.521,-3.016 1.849,-3.373L43.182,8.311z" id="path_21"/><path fill="#000001" d="M31.646,54.379c-2.003,-0.174 -3.812,-1.703 -5.439,-4.588c-2.405,3.184 -5.862,4.777 -10.357,4.777h-1.259c-4.863,0 -8.213,-2.271 -10.048,-6.824l-0.154,-1.027V45.18c0,-1.645 0.677,-3.525 2.037,-5.629h0.161L6.9,39.893v0.852L6.11,43.477c0,2.986 2.304,5.033 6.913,6.146l2.827,0.168c4.891,0 8.763,-1.82 11.616,-5.463c0.154,0 0.315,0.227 0.469,0.686l-0.154,1.193c0.536,2.148 1.822,3.227 3.865,3.242V54.379z" id="path_22"/><path fill="#000001" d="M13.492,38.18h0.315c1.072,0.256 2.224,0.941 3.457,2.047v0.176c-0.71,2.33 -1.34,3.584 -1.889,3.758c-1.594,-0.342 -2.8,-0.91 -3.611,-1.711v-0.168C11.764,40.941 12.34,39.58 13.492,38.18z" id="path_23"/><path fill="#000001" d="M19.3,36.645h0.161c1.072,0.174 2.277,0.967 3.611,2.389v0.174l-1.889,3.584c-2.512,-0.881 -3.765,-1.625 -3.765,-2.221C18.229,37.955 18.858,36.645 19.3,36.645z" id="path_24"/><path fill="#000001" d="M16.373,24.355h1.555c1.882,0 2.827,0.766 2.827,2.303c-1.219,3.582 -2.7,5.484 -4.441,5.703l-2.057,0.299c-0.328,0 -0.462,-0.104 -0.415,-0.299c1.661,-0.955 3.215,-2.092 4.656,-3.395c-0.509,-0.518 -1.072,-0.773 -1.688,-0.773h-0.436l-1.688,0.154l-0.134,-0.154v-0.297C15.348,25.535 15.958,24.355 16.373,24.355z" id="path_25"/><path fill="#DD2C00" d="M88.424,41.48c1.454,0 2.915,0.787 4.381,2.367c0.141,0.27 0.087,0.48 -0.167,0.641c-0.255,0.152 -0.489,0.125 -0.697,-0.109c-0.629,-0.611 -1.521,-0.918 -2.673,-0.918h-0.489c-0.482,0 -1.045,0.227 -1.688,0.664c0,1.281 1.414,2.068 4.241,2.367l2.807,-1.195l0.114,0.408c0,1.436 -1.621,2.717 -4.863,3.838l-4.495,2.775l-0.469,0.131c-0.188,0.045 -0.308,-0.043 -0.375,-0.254c0,-0.773 1.011,-1.828 3.041,-3.184v-0.123c-0.978,-0.59 -1.474,-1.428 -1.474,-2.521C86.079,43.111 87.011,41.48 88.424,41.48z" id="path_26"/><path fill="#000001" d="M178.999,25.674c0.314,0 0.629,1.145 0.944,3.416l1.414,3.416l-0.63,3.926l0.469,9.564v1.529c-0.208,3.904 -0.73,6.178 -1.568,6.832l-0.154,-0.168l0.154,-2.563c0,-2.303 -0.683,-9.645 -2.043,-22.02C178.241,26.986 178.71,25.674 178.999,25.674z" id="path_27"/><path fill="#000001" d="M185.041,55.756c0.161,-0.094 0.208,0.059 0.14,0.475c-0.891,2.271 -2.257,3.859 -4.1,4.756l-6.773,3.693c-0.288,-0.088 -0.341,-0.342 -0.161,-0.766c0.905,-1.893 1.521,-3.016 1.849,-3.371L185.041,55.756z" id="path_28"/><path fill="#DD2C00" d="M167.624,38.311c5.339,2.076 8.005,4.641 8.005,7.686l0.161,1.02c-0.448,3.984 -1.654,5.973 -3.617,5.973c0,0.371 -2.612,0.83 -7.845,1.369l-0.161,-0.51c0,-2.848 0.469,-4.268 1.414,-4.268c5.232,-0.459 8.112,-1.145 8.635,-2.055c-1.802,-1.9 -4.16,-3.438 -7.068,-4.604l-0.154,-0.859C167.074,39.564 167.282,38.311 167.624,38.311z" id="path_29"/><path fill="#DD2C00" d="M167.147,30.285c1.286,0.232 2.539,1.084 3.771,2.564v0.342c-0.783,2.271 -1.359,3.408 -1.728,3.408c-2.512,-0.932 -3.765,-1.676 -3.765,-2.215C165.426,33.33 166.002,31.967 167.147,30.285z" id="path_30"/><path fill="#DD2C00" d="M173.412,19.469c0.161,-0.104 0.207,0.059 0.14,0.473c-0.891,2.273 -2.257,3.861 -4.1,4.756l-6.773,3.693c-0.288,-0.086 -0.341,-0.342 -0.161,-0.771c0.904,-1.895 1.521,-3.016 1.849,-3.373L173.412,19.469z" id="path_31"/><path fill="#000001" d="M158.995,25.674c0.314,0 0.629,1.145 0.944,3.416l1.414,3.416l-0.63,3.926l0.469,9.564v1.529c-0.208,3.904 -0.73,6.178 -1.567,6.832l-0.154,-0.168l0.154,-2.563c0,-2.303 -0.683,-9.645 -2.043,-22.02C158.238,26.986 158.707,25.674 158.995,25.674z" id="path_32"/></svg>