<svg id="vector" xmlns="http://www.w3.org/2000/svg" width="75" height="67" viewBox="0 0 84 73"><path fill="#008046" d="M67.975,49.534h0.817c5.091,-0.098 8.471,-0.81 10.147,-2.15l0.328,-0.649c-0.216,-0.524 -0.489,-0.782 -0.817,-0.782c-0.789,0.439 -1.662,0.656 -2.619,0.656h-0.168c-2.835,-0.328 -4.309,-1.474 -4.414,-3.436v-0.168c0.272,-3.708 1.146,-5.559 2.619,-5.559h0.817c2.521,-0.125 4.434,1.836 5.726,5.887l0.161,1.642v0.327c-0.035,4.01 -1.474,6.656 -4.316,7.934c-1.005,0.643 -3.771,0.964 -8.282,0.964V49.534z" id="path_0"/><path fill="#008046" d="M75.174,28.893c1.774,0.544 3.303,1.417 4.582,2.618v0.16c0,0.685 -0.706,1.774 -2.124,3.275c-0.44,0 -1.913,-0.544 -4.42,-1.634v0.161c-0.873,1.689 -1.417,2.563 -1.641,2.618c-1.418,-0.3 -2.619,-0.957 -3.597,-1.962c0.656,-2.73 1.201,-4.093 1.634,-4.093c0.356,0 1.662,0.656 3.932,1.963C73.541,31.427 74.085,30.394 75.174,28.893z" id="path_1"/><path fill="#008046" d="M79.574,19.031c0.167,-0.098 0.216,0.057 0.146,0.454c-0.928,2.179 -2.353,3.701 -4.273,4.561l-7.06,3.54c-0.3,-0.084 -0.356,-0.328 -0.168,-0.74c0.943,-1.815 1.585,-2.891 1.928,-3.233L79.574,19.031z" id="path_2"/><path fill="#000001" d="M69.678,54.22c-2.807,-0.188 -5.355,-1.725 -7.646,-4.602h-0.167c-0.978,5.671 -3.163,8.506 -6.543,8.513h-0.496c-1.467,-0.007 -2.891,-1.313 -4.253,-3.932c-1.089,-3.681 -1.634,-6.466 -1.634,-8.345v-1.313c0,-0.818 0.16,-1.258 0.488,-1.307c0.461,0.244 1.013,2.032 1.648,5.37c0.636,3.331 1.942,4.923 3.918,4.776c3.82,-0.628 5.838,-2.813 6.055,-6.551l-1.474,-5.068V39.96c0.056,-2.186 0.272,-3.274 0.657,-3.274c0.216,0.489 0.384,0.984 0.488,1.474l2.291,7.199c1.802,2.919 4.03,4.302 6.669,4.135V54.22z" id="path_3"/><path fill="#000001" d="M61.962,23.898c0.3,0.518 0.649,1.991 1.047,4.421c-0.245,1.474 -0.887,2.207 -1.928,2.207h-0.139c-0.454,0 -1.041,-0.293 -1.781,-0.88c-0.503,0.887 -1.243,1.334 -2.207,1.334c-1.173,0 -1.76,-1.425 -1.76,-4.274c0.342,-1.082 0.636,-1.62 0.88,-1.62l0.14,0.147v2.514c0.203,0.873 0.454,1.306 0.74,1.306h0.594c0.614,0 1.005,-0.244 1.187,-0.733l-0.307,-2.207c0.119,-0.74 0.321,-1.131 0.593,-1.166h0.308c0.307,2.451 0.803,3.681 1.466,3.681h1.027V28.48l-0.447,-2.94v-0.168C61.494,24.388 61.69,23.898 61.962,23.898z" id="path_4"/><path fill="#000001" d="M64.441,14.897c0.167,-0.098 0.216,0.056 0.146,0.454c-0.929,2.179 -2.353,3.701 -4.273,4.561l-7.061,3.54c-0.3,-0.084 -0.356,-0.328 -0.168,-0.74c0.943,-1.815 1.585,-2.892 1.928,-3.233L64.441,14.897z" id="path_5"/><path fill="#DD2C00" d="M31.103,49.534c0.224,0 0.454,0 0.699,0h0.167c2.039,-0.125 3.896,-1.822 5.559,-5.091c1.802,-2.73 3.659,-4.092 5.566,-4.092c2.402,0 3.603,1.522 3.603,4.581v0.816c0,1.502 -0.6,3.465 -1.802,5.895L43.75,52.46c-1.012,0 -3.352,-0.712 -7.039,-2.129c-1.118,1.676 -1.991,2.695 -2.619,3.051c-0.957,0.664 -1.934,0.943 -2.947,0.817h-0.042V49.534L31.103,49.534zM39.329,46.077v0.161c2.835,1.097 4.532,1.642 5.077,1.642c0.217,0 0.329,-0.168 0.329,-0.496c-0.629,-1.635 -1.669,-2.451 -3.115,-2.451C40.614,44.933 39.846,45.317 39.329,46.077z" id="path_6"/><path fill="#000001" d="M31.843,54.22c-2.088,-0.168 -3.974,-1.634 -5.67,-4.398c-2.507,3.051 -6.11,4.58 -10.796,4.58h-1.313c-5.07,0 -8.562,-2.178 -10.475,-6.543l-0.161,-0.984V45.4c0,-1.578 0.706,-3.38 2.123,-5.397h0.167l0.328,0.328v0.816l-0.824,2.619c0,2.863 2.402,4.825 7.207,5.894l2.947,0.161c5.098,0 9.134,-1.746 12.109,-5.238c0.161,0 0.328,0.217 0.489,0.656l-0.161,1.146c0.559,2.059 1.899,3.093 4.029,3.107V54.22z" id="path_7"/><path fill="#000001" d="M12.918,38.689h0.329c1.117,0.245 2.318,0.901 3.603,1.962v0.168c-0.74,2.234 -1.397,3.436 -1.969,3.604c-1.662,-0.328 -2.919,-0.873 -3.764,-1.641v-0.161C11.116,41.337 11.717,40.03 12.918,38.689z" id="path_8"/><path fill="#000001" d="M18.973,37.216h0.167c1.117,0.168 2.375,0.929 3.764,2.291v0.167l-1.97,3.437c-2.619,-0.846 -3.924,-1.558 -3.924,-2.131C17.855,38.474 18.512,37.216 18.973,37.216z" id="path_9"/><path fill="#DD2C00" d="M39.068,25.436h1.621c1.962,0 2.947,0.733 2.947,2.206c-1.271,3.436 -2.814,5.259 -4.63,5.469l-2.144,0.286c-0.342,0 -0.481,-0.098 -0.433,-0.286c1.731,-0.915 3.352,-2.005 4.853,-3.255c-0.53,-0.496 -1.117,-0.74 -1.76,-0.74h-0.454l-1.76,0.146l-0.139,-0.146v-0.286C38,26.566 38.636,25.436 39.068,25.436z" id="path_10"/><path fill="#000001" d="M19.815,23.333c1.676,0 2.514,1.034 2.514,3.094c0,3.282 -2.8,6.083 -8.408,8.388c-0.803,0.244 -0.901,-0.05 -0.286,-0.88c0.153,-0.314 1.473,-1.299 3.966,-2.947v-0.14c-1.076,-0.44 -1.613,-1.376 -1.613,-2.808c0.712,-3.136 1.844,-4.707 3.394,-4.707H19.815L19.815,23.333zM17.316,26.874c0,0.873 0.74,1.41 2.213,1.62h0.286c0.545,0 0.894,-0.202 1.041,-0.594c0,-0.887 -0.643,-1.578 -1.921,-2.067C18.377,25.833 17.839,26.183 17.316,26.874z" id="path_11"/></svg>