<svg id="vector" xmlns="http://www.w3.org/2000/svg" width="94" height="67" viewBox="0 0 101.905 72.96"><path fill="#DD2C00" d="M84.027,44.966h0.705c2.055,0 3.577,1.756 4.575,5.273l0.173,1.754c0.06,0.57 0.06,1.156 0,1.764c-0.525,2.137 -1.703,4.244 -3.518,6.322c-1.26,1.057 -4.125,1.875 -8.61,2.461c-0.525,-0.234 -0.825,-0.467 -0.878,-0.699c7.5,-4.072 11.25,-6.531 11.25,-7.387l0.172,-0.525l-0.172,-0.172l-1.583,0.525h-0.877c-3.165,0 -4.748,-1.117 -4.748,-3.338v-0.354c0.405,-3.637 1.29,-5.451 2.633,-5.451L84.027,44.966z" id="path_0"/><path fill="#DD2C00" d="M88.685,30.724c0.18,-0.105 0.232,0.061 0.157,0.488c-0.998,2.34 -2.527,3.975 -4.59,4.896l-7.583,3.803c-0.322,-0.09 -0.382,-0.352 -0.18,-0.795c1.013,-1.949 1.703,-3.105 2.07,-3.473L88.685,30.724z" id="path_1"/><path fill="#000001" d="M69.942,25.646c0.352,0 0.705,1.178 1.057,3.518l1.583,3.518l-0.705,4.043l0.525,9.848v1.574c-0.232,4.021 -0.818,6.361 -1.755,7.035l-0.173,-0.172l0.173,-2.641c0,-2.369 -0.765,-9.93 -2.288,-22.672C69.095,26.997 69.62,25.646 69.942,25.646z" id="path_2"/><path fill="#213e95" d="M53.232,46.632c0.203,0.014 0.42,0.021 0.66,0.021h1.665c1.762,-0.291 3.105,-0.906 4.042,-1.844l-2.107,-16.703c0.525,-3.165 0.997,-4.74 1.402,-4.74l2.288,5.272c0,0.817 -0.292,2.048 -0.877,3.69l0.877,9.488v2.639c-0.66,2.797 -1.545,4.756 -2.655,5.865c-0.84,0.893 -1.823,1.342 -2.97,1.342h-1.493c-0.292,0 -0.57,-0.006 -0.833,-0.021V46.632z" id="path_3"/><path fill="#213e95" d="M62.802,13.099c0.322,0.555 0.697,2.138 1.125,4.748c-0.263,1.582 -0.953,2.369 -2.07,2.369h-0.15c-0.487,0 -1.117,-0.314 -1.913,-0.945c-0.54,0.953 -1.335,1.434 -2.37,1.434c-1.26,0 -1.89,-1.53 -1.89,-4.59c0.367,-1.163 0.683,-1.74 0.945,-1.74l0.15,0.157v2.7c0.217,0.938 0.487,1.402 0.794,1.402h0.638c0.66,0 1.08,-0.263 1.275,-0.787l-0.33,-2.371c0.128,-0.795 0.345,-1.215 0.638,-1.252h0.33c0.33,2.633 0.863,3.953 1.575,3.953h1.103v-0.158l-0.48,-3.157v-0.181C62.3,13.624 62.51,13.099 62.802,13.099z" id="path_4"/><path fill="#213e95" d="M65.465,3.438c0.18,-0.105 0.232,0.061 0.157,0.488c-0.998,2.34 -2.527,3.975 -4.59,4.896l-7.583,3.803c-0.322,-0.09 -0.382,-0.352 -0.18,-0.795c1.012,-1.95 1.703,-3.105 2.07,-3.473L65.465,3.438z" id="path_5"/><path fill="#DD2C00" d="M42.357,54.829c0.728,0 2.017,0.877 3.862,2.633c0,0.592 -0.697,1.875 -2.107,3.869H43.76c-0.735,0 -1.845,-0.705 -3.337,-2.107v-0.18C40.422,58.347 41.067,56.937 42.357,54.829z" id="path_6"/><path fill="#DD2C00" d="M48.68,53.952c2.933,1.26 4.395,2.25 4.395,2.984c-0.172,0.555 -0.99,1.785 -2.46,3.689c-1.965,-0.758 -3.368,-1.635 -4.215,-2.633C47.015,56.028 47.772,54.679 48.68,53.952z" id="path_7"/><path fill="#DD2C00" d="M39.252,46.653c1.253,0.016 2.025,-0.008 2.333,-0.066c2.64,-0.803 4.44,-2.514 5.407,-5.115c0.143,-0.502 0.435,-0.563 0.877,-0.18c0.232,0.201 0.413,1.027 0.525,2.459c1.598,2.152 3.593,3.121 5.978,2.902h0.465v5.01h-0.113c-3.735,-0.172 -6.487,-1.875 -8.265,-5.1h-0.173c-1.245,2.625 -2.887,4.238 -4.92,4.838c-0.615,0.172 -1.32,0.262 -2.115,0.262V46.653z" id="path_8"/><path fill="#DD2C00" d="M46.152,25.323h1.74c2.107,0 3.165,0.788 3.165,2.371c-1.365,3.689 -3.022,5.646 -4.972,5.872l-2.303,0.308c-0.367,0 -0.518,-0.105 -0.465,-0.308c1.86,-0.982 3.6,-2.152 5.212,-3.495c-0.57,-0.533 -1.2,-0.795 -1.89,-0.795h-0.487l-1.89,0.158l-0.15,-0.158V28.97C45.005,26.539 45.688,25.323 46.152,25.323z" id="path_9"/><path fill="#000001" d="M38.75,51.597c-1.703,0.016 -3.105,-0.855 -4.223,-2.609h-0.172c-0.825,2.924 -2.055,4.979 -3.69,6.148c-2.318,2.229 -4.838,3.338 -7.56,3.338h-1.058c-3.105,0 -5.857,-1.754 -8.257,-5.271c-0.938,-1.613 -1.41,-3.488 -1.41,-5.625c0,-3.016 1.522,-6.061 4.575,-9.135c1.59,-1.014 2.062,-0.953 1.402,0.172c-2.693,3.75 -4.042,6.33 -4.042,7.732c0,3.637 2.692,6.037 8.085,7.207h1.41c3.015,0 6,-1.521 8.962,-4.566c0.308,-0.969 0.367,-2.025 0.172,-3.166c-0.585,-2.49 -1.462,-8.82 -2.632,-18.982l1.05,-3.518c0.165,-0.03 0.337,-0.03 0.533,0c0.322,0 0.907,4.455 1.755,13.357c0.585,4.688 1.29,7.621 2.107,8.791c0.72,0.795 1.718,1.162 2.993,1.117V51.597z" id="path_10"/><path fill="#000001" d="M31.58,60.364c0.18,-0.098 0.232,0.061 0.157,0.486c-0.998,2.34 -2.527,3.977 -4.59,4.898l-7.583,3.803c-0.322,-0.09 -0.382,-0.354 -0.18,-0.787c1.013,-1.951 1.702,-3.105 2.07,-3.473L31.58,60.364z" id="path_11"/></svg>