<svg id="vector" xmlns="http://www.w3.org/2000/svg" width="94" height="67" viewBox="0 0 101.905 72.959"><path fill="#000001" d="M84.355,45.576c0.209,0 0.424,0 0.653,0h0.157c1.907,-0.127 3.644,-1.863 5.197,-5.203c1.685,-2.791 3.421,-4.184 5.204,-4.184c2.246,0 3.369,1.557 3.369,4.684v0.834c0,1.535 -0.562,3.541 -1.684,6.025l-1.071,0.834c-0.947,0 -3.134,-0.727 -6.582,-2.176c-1.044,1.713 -1.861,2.756 -2.448,3.119c-0.895,0.678 -1.809,0.963 -2.755,0.834h-0.039V45.576L84.355,45.576zM92.047,42.043v0.164c2.651,1.121 4.237,1.678 4.747,1.678c0.202,0 0.307,-0.172 0.307,-0.506c-0.587,-1.672 -1.561,-2.506 -2.912,-2.506C93.248,40.873 92.53,41.266 92.047,42.043z" id="path_0"/><path fill="#000001" d="M92.758,19.994c1.567,0 2.351,1.057 2.351,3.162c0,3.355 -2.618,6.217 -7.861,8.572c-0.751,0.25 -0.843,-0.049 -0.268,-0.898c0.144,-0.322 1.377,-1.328 3.709,-3.012v-0.144c-1.006,-0.45 -1.508,-1.405 -1.508,-2.869c0.666,-3.205 1.724,-4.812 3.173,-4.812H92.758L92.758,19.994zM90.421,23.613c0,0.893 0.692,1.441 2.07,1.656h0.268c0.509,0 0.836,-0.207 0.973,-0.607c0,-0.906 -0.601,-1.612 -1.796,-2.112C91.414,22.55 90.911,22.906 90.421,23.613z" id="path_1"/><path fill="#f06022" d="M77.017,31.314c0.522,0 1.75,0.672 3.676,2.006c0,0.836 -0.614,2.178 -1.841,4.02c-2.449,-0.863 -3.669,-1.648 -3.669,-2.342C75.248,34.369 75.854,33.143 77.017,31.314z" id="path_2"/><path fill="#f06022" d="M71.447,45.576c1.09,0.016 1.763,-0.006 2.031,-0.064c2.298,-0.764 3.865,-2.391 4.707,-4.867c0.125,-0.479 0.379,-0.535 0.765,-0.172c0.202,0.193 0.358,0.979 0.457,2.342c1.391,2.049 3.127,2.969 5.204,2.762h0.405v4.768h-0.098c-3.251,-0.164 -5.648,-1.783 -7.195,-4.854h-0.151c-1.083,2.5 -2.513,4.033 -4.283,4.605c-0.535,0.162 -1.149,0.248 -1.841,0.248V45.576z" id="path_3"/><path fill="#f06022" d="M77.336,19.373h1.515c1.834,0 2.755,0.75 2.755,2.256c-1.188,3.512 -2.631,5.375 -4.329,5.59l-2.005,0.291c-0.319,0 -0.45,-0.1 -0.405,-0.291c1.62,-0.936 3.134,-2.049 4.538,-3.327c-0.496,-0.507 -1.044,-0.757 -1.646,-0.757h-0.424l-1.645,0.15l-0.131,-0.15v-0.292C76.337,20.529 76.932,19.373 77.336,19.373z" id="path_4"/><path fill="#213e95" d="M55.862,45.576c1.697,0.158 3.14,-0.027 4.342,-0.541l-0.633,-1.258c-0.594,-3.682 -0.327,-6.117 0.803,-7.309c1.136,-1.193 2.357,-1.742 3.657,-1.643c2.526,0.129 3.95,1.578 4.283,4.348v1.006c0,2.314 -0.307,3.762 -0.915,4.348c-0.385,0.436 0.483,0.799 2.599,1.092l0.497,-0.021c0.385,-0.014 0.822,-0.021 1.318,-0.021v4.768l-1.547,0.021c-2.879,-0.014 -5.061,-0.414 -6.542,-1.191c-2.037,0.777 -3.624,1.17 -4.74,1.17h-0.614c-0.764,0 -1.6,0 -2.507,0V45.576L55.862,45.576zM61.275,40.852v0.336c0.64,1.199 1.606,2.033 2.905,2.504c0.869,-0.164 1.737,-0.557 2.605,-1.17c-0.385,-1.563 -1.658,-2.455 -3.826,-2.676C61.836,40.18 61.275,40.516 61.275,40.852z" id="path_5"/><path fill="#213e95" d="M62.195,26.633c1.326,0 2.546,0.893 3.669,2.676c-0.94,2.342 -1.659,3.512 -2.142,3.512c-2.063,-1.113 -3.186,-1.84 -3.369,-2.176C60.354,29.588 60.968,28.246 62.195,26.633z" id="path_6"/><path fill="#213e95" d="M67.778,14.898c0.157,-0.1 0.202,0.057 0.137,0.464c-0.869,2.227 -2.2,3.782 -3.996,4.661l-6.601,3.619c-0.281,-0.086 -0.333,-0.336 -0.157,-0.758c0.881,-1.855 1.482,-2.955 1.802,-3.305L67.778,14.898z" id="path_7"/><path fill="#000001" d="M40.826,44.799c1.795,-0.443 2.905,-1.271 3.329,-2.471c0.177,-0.662 0.229,-1.221 0.151,-1.67c-2.521,-5.838 -3.787,-9.266 -3.787,-10.264c-0.125,-1.734 0.026,-3.354 0.464,-4.875c0.431,-1.521 1.143,-2.57 2.142,-3.155l12.085,-8.03c0.307,0.079 -0.091,1.25 -1.182,3.498c-1.097,2.256 -1.77,3.434 -2.011,3.533c-0.242,0.107 -0.405,-0.285 -0.477,-1.178c-4.721,3.262 -7.542,5.246 -8.456,5.96c-0.92,0.714 -1.469,1.342 -1.646,1.899c1.43,4.238 3.402,8.701 5.929,13.383c1.809,2.705 4.361,4.061 7.652,4.061c0.215,0 0.49,0 0.823,0v4.791l-0.516,0.021c-4.466,0 -7.73,-2.398 -9.793,-7.195c-0.131,-0.293 -0.229,-0.35 -0.307,-0.172c-0.829,3.826 -2.298,6.004 -4.4,6.545c-0.738,0.258 -1.496,0.4 -2.279,0.443v-4.789C39.402,45.063 40.16,44.955 40.826,44.799z" id="path_8"/><path fill="#000001" d="M49.163,9.545c0.281,0.528 0.607,2.034 0.979,4.518c-0.229,1.507 -0.83,2.256 -1.802,2.256h-0.13c-0.425,0 -0.973,-0.3 -1.665,-0.898c-0.47,0.906 -1.162,1.363 -2.063,1.363c-1.097,0 -1.645,-1.457 -1.645,-4.369c0.32,-1.105 0.594,-1.656 0.823,-1.656l0.13,0.15v2.57c0.189,0.892 0.425,1.334 0.692,1.334h0.555c0.575,0 0.94,-0.25 1.11,-0.75l-0.287,-2.255c0.111,-0.757 0.3,-1.156 0.555,-1.192h0.288c0.287,2.506 0.751,3.762 1.371,3.762h0.96v-0.15l-0.418,-3.004v-0.172C48.726,10.045 48.909,9.545 49.163,9.545z" id="path_9"/><path fill="#000001" d="M52.336,54.67c0.157,-0.094 0.202,0.057 0.137,0.465c-0.868,2.227 -2.2,3.783 -3.996,4.66l-6.601,3.619c-0.281,-0.086 -0.333,-0.336 -0.157,-0.75c0.882,-1.855 1.482,-2.955 1.802,-3.305L52.336,54.67z" id="path_10"/><path fill="#DD2C00" d="M26.213,52.957h0.614c2.011,1.25 3.029,1.977 3.056,2.17c-0.993,2.342 -1.659,3.568 -1.984,3.684c-1.15,0 -2.272,-0.615 -3.37,-1.842C24.731,55.77 25.292,54.434 26.213,52.957z" id="path_11"/><path fill="#DD2C00" d="M31.567,52.115c0.973,0 2.142,0.729 3.519,2.176c0,0.586 -0.659,1.756 -1.991,3.512c-0.764,0 -1.887,-0.555 -3.363,-1.67C29.732,55.156 30.346,53.82 31.567,52.115z" id="path_12"/><path fill="#DD2C00" d="M25.867,39.588h0.039c1.782,0 3.212,-0.664 4.283,-2.006l-0.15,-1.334c0,-1.65 0.307,-2.984 0.914,-4.02c0.281,0 0.692,2.848 1.228,8.529c0.614,3.07 2.749,4.49 6.405,4.27v4.768c-3.572,0.279 -6.059,-1.506 -7.476,-5.354c-0.229,-2.676 -0.483,-4.012 -0.764,-4.012c-0.601,2.533 -2.096,3.869 -4.479,3.99V39.588z" id="path_13"/><path fill="#DD2C00" d="M31.202,19.83h1.515c1.834,0 2.755,0.75 2.755,2.256c-1.188,3.512 -2.631,5.375 -4.329,5.589l-2.004,0.292c-0.32,0 -0.45,-0.1 -0.405,-0.292c1.62,-0.935 3.134,-2.048 4.538,-3.327c-0.497,-0.506 -1.045,-0.756 -1.646,-0.756h-0.424l-1.646,0.15l-0.13,-0.15v-0.293C30.203,20.986 30.797,19.83 31.202,19.83z" id="path_14"/><path fill="#000001" d="M12.763,40.031c1.508,0.527 2.677,1.199 3.519,2.004v0.336c0,0.557 -0.562,1.785 -1.685,3.684c-1.044,0 -2.213,-0.613 -3.519,-1.842v-0.336C11.079,42.678 11.64,41.4 12.763,40.031z" id="path_15"/><path fill="#000001" d="M26.252,44.42c-1.391,0 -2.468,-0.234 -3.238,-0.707c-0.379,3.627 -1.091,6.133 -2.142,7.531c-2.521,3.455 -5.125,5.182 -7.802,5.182c-4.923,0 -8.135,-2.34 -9.644,-7.023c-0.3,-0.893 -0.457,-1.842 -0.457,-2.848v-1.336c0,-3.961 1.123,-7.08 3.369,-9.371c0.405,0.172 0.614,0.557 0.614,1.17l-2.449,4.855l-0.156,1.67c0,3.768 1.887,6.387 5.661,7.865l3.982,0.336c1.678,0 3.774,-1.064 6.274,-3.178c0.915,-1.619 1.378,-2.789 1.378,-3.518c-0.104,-1.113 -0.771,-2.727 -1.991,-4.848v-3.518l0.457,-0.5c1.11,2.441 3.16,3.619 6.144,3.533V44.42z" id="path_16"/><path fill="#000001" d="M18.535,21.379c0.157,-0.1 0.203,0.058 0.137,0.465c-0.868,2.227 -2.2,3.783 -3.996,4.66l-6.601,3.619c-0.281,-0.086 -0.333,-0.336 -0.157,-0.756C8.8,27.51 9.4,26.412 9.721,26.062L18.535,21.379z" id="path_17"/></svg>