<svg id="vector" xmlns="http://www.w3.org/2000/svg" width="174" height="67" viewBox="0 0 189.6 72.959"><path fill="#DD2C00" d="M158.601,38.996c0.203,0.016 0.42,0.021 0.66,0.021h1.665c1.763,-0.291 3.105,-0.906 4.043,-1.844l-2.108,-16.703c0.525,-3.164 0.998,-4.74 1.403,-4.74l2.287,5.273c0,0.816 -0.292,2.047 -0.878,3.689l0.878,9.488v2.639c-0.66,2.799 -1.545,4.756 -2.655,5.865c-0.84,0.893 -1.822,1.344 -2.97,1.344h-1.492c-0.293,0 -0.57,-0.008 -0.833,-0.023V38.996z" id="path_0"/><path fill="#DD2C00" d="M170.549,45.514c0.18,-0.098 0.232,0.061 0.157,0.486c-0.998,2.34 -2.527,3.977 -4.59,4.898l-7.583,3.803c-0.322,-0.09 -0.382,-0.354 -0.18,-0.787c1.013,-1.951 1.702,-3.105 2.07,-3.473L170.549,45.514z" id="path_1"/><path fill="#000001" d="M133.851,37.369c1.44,0 2.49,0 3.165,0h0.705c2.107,-0.277 5.258,-1.178 9.45,-2.701c-1.41,-1.178 -3.577,-2.055 -6.503,-2.641c-1.732,0 -2.902,0.818 -3.518,2.461c-0.217,0.488 -0.412,0.615 -0.585,0.383c-0.165,-0.225 -0.21,-0.525 -0.119,-0.908c1.057,-3.547 2.459,-5.316 4.222,-5.316h1.23c1.17,0 3.285,0.66 6.337,1.979c3.053,1.313 5.686,1.846 7.897,1.584c0.278,0 0.397,0.172 0.353,0.525c-0.472,2.924 -1.35,4.395 -2.64,4.395l-0.878,0.172v0.352c0.442,0.924 2.468,1.365 6.091,1.32v4.988c-5.243,0.277 -7.86,-1.762 -7.846,-6.127c-1.875,0.277 -4.417,1.146 -7.627,2.625c-3.21,1.469 -6.45,2.1 -9.735,1.896V37.369z" id="path_2"/><path fill="#000001" d="M147.854,10.623c1.8,0 2.7,1.109 2.7,3.322c0,3.525 -3.008,6.533 -9.03,9.008c-0.863,0.262 -0.968,-0.053 -0.308,-0.945c0.165,-0.338 1.582,-1.395 4.26,-3.164v-0.15c-1.155,-0.473 -1.732,-1.479 -1.732,-3.016c0.766,-3.367 1.98,-5.055 3.646,-5.055H147.854L147.854,10.623zM145.168,14.426c0,0.938 0.796,1.516 2.378,1.74h0.308c0.585,0 0.96,-0.217 1.117,-0.639c0,-0.951 -0.69,-1.693 -2.063,-2.219C146.309,13.309 145.73,13.684 145.168,14.426z" id="path_3"/><path fill="#213e95" d="M117.088,45.807c0.601,0 2.003,0.705 4.216,2.107c0,0.877 -0.705,2.287 -2.107,4.223c-2.813,-0.908 -4.223,-1.734 -4.223,-2.461C115.048,49.016 115.753,47.727 117.088,45.807z" id="path_4"/><path fill="#213e95" d="M134.315,42.4c-2.242,-0.18 -4.274,-1.754 -6.09,-4.725c-2.692,3.277 -6.563,4.92 -11.603,4.92h-1.402c-5.452,0 -9.202,-2.34 -11.25,-7.027l-0.18,-1.057v-1.584c0,-1.693 0.765,-3.629 2.287,-5.797h0.173l0.353,0.354v0.877l-0.878,2.813c0,3.074 2.58,5.182 7.732,6.33l3.165,0.172c5.482,0 9.817,-1.875 13.013,-5.625c0.173,0 0.345,0.232 0.525,0.705l-0.181,1.23c0.601,2.211 2.048,3.322 4.335,3.338V42.4z" id="path_5"/><path fill="#213e95" d="M120.426,17.283c0.322,0.555 0.697,2.137 1.125,4.748c-0.263,1.582 -0.953,2.369 -2.07,2.369h-0.149c-0.488,0 -1.118,-0.314 -1.913,-0.945c-0.54,0.953 -1.335,1.434 -2.37,1.434c-1.26,0 -1.89,-1.531 -1.89,-4.59c0.367,-1.164 0.683,-1.74 0.945,-1.74l0.149,0.156v2.701c0.218,0.938 0.488,1.402 0.795,1.402h0.638c0.66,0 1.08,-0.262 1.275,-0.787l-0.33,-2.371c0.128,-0.795 0.345,-1.215 0.638,-1.252h0.33c0.329,2.633 0.862,3.953 1.574,3.953h1.103v-0.158l-0.479,-3.158v-0.18C119.923,17.809 120.133,17.283 120.426,17.283z" id="path_6"/><path fill="#213e95" d="M123.081,53.561c0.18,-0.098 0.232,0.061 0.157,0.488c-0.997,2.34 -2.527,3.975 -4.59,4.896l-7.583,3.803c-0.322,-0.09 -0.382,-0.352 -0.18,-0.787c1.013,-1.949 1.702,-3.105 2.07,-3.473L123.081,53.561z" id="path_7"/><path fill="#000001" d="M92.668,12.844c0.353,0 0.705,1.178 1.058,3.518l1.583,3.518l-0.705,4.041l0.524,9.848v1.576c-0.232,4.02 -0.817,6.359 -1.755,7.035l-0.172,-0.174l0.172,-2.639c0,-2.371 -0.765,-9.93 -2.287,-22.674C91.821,14.193 92.346,12.844 92.668,12.844z" id="path_8"/><path fill="#DD2C00" d="M75.958,43.607c0.202,0.016 0.42,0.023 0.66,0.023h1.665c1.763,-0.293 3.105,-0.908 4.042,-1.846l-2.107,-16.701c0.525,-3.166 0.998,-4.74 1.403,-4.74l2.287,5.271c0,0.818 -0.293,2.049 -0.878,3.691l0.878,9.486v2.641c-0.66,2.797 -1.545,4.754 -2.655,5.865c-0.84,0.893 -1.822,1.342 -2.97,1.342h-1.492c-0.293,0 -0.57,-0.008 -0.833,-0.021V43.607z" id="path_9"/><path fill="#DD2C00" d="M81.905,10.211h1.74c2.107,0 3.165,0.787 3.165,2.369c-1.365,3.691 -3.022,5.648 -4.973,5.873l-2.303,0.307c-0.367,0 -0.517,-0.104 -0.465,-0.307c1.86,-0.982 3.601,-2.152 5.213,-3.494c-0.57,-0.533 -1.2,-0.795 -1.891,-0.795h-0.487l-1.89,0.156l-0.15,-0.156v-0.309C80.758,11.426 81.44,10.211 81.905,10.211z" id="path_10"/><path fill="#008046" d="M52.303,41.98c1.44,0 2.49,0 3.165,0h0.705c2.107,-0.277 5.258,-1.178 9.45,-2.699c-1.41,-1.178 -3.577,-2.055 -6.502,-2.641c-1.733,0 -2.903,0.818 -3.518,2.461c-0.218,0.486 -0.413,0.613 -0.586,0.381c-0.165,-0.225 -0.21,-0.523 -0.119,-0.906c1.057,-3.547 2.46,-5.318 4.223,-5.318h1.229c1.17,0 3.285,0.66 6.338,1.98c3.052,1.313 5.685,1.846 7.897,1.582c0.277,0 0.397,0.174 0.352,0.525c-0.472,2.926 -1.35,4.395 -2.64,4.395l-0.877,0.174v0.352c0.442,0.924 2.467,1.365 6.09,1.32v4.988c-5.243,0.277 -7.86,-1.764 -7.846,-6.129c-1.874,0.277 -4.417,1.148 -7.627,2.625c-3.21,1.471 -6.45,2.102 -9.735,1.898V41.98z" id="path_11"/><path fill="#008046" d="M61.07,23.854c2.46,1.23 3.698,2.287 3.698,3.164c-1.178,2.311 -1.876,3.488 -2.115,3.518h-0.353c-1.8,-0.906 -2.91,-1.732 -3.338,-2.459C59.375,26.74 60.08,25.33 61.07,23.854z" id="path_12"/><path fill="#008046" d="M67.926,12.844c0.18,-0.105 0.232,0.059 0.157,0.486c-0.998,2.34 -2.527,3.975 -4.59,4.898l-7.583,3.803c-0.322,-0.09 -0.382,-0.354 -0.18,-0.795c1.013,-1.951 1.702,-3.105 2.07,-3.473L67.926,12.844z" id="path_13"/><path fill="#000001" d="M37.917,50.186h0.705c2.311,1.313 3.48,2.078 3.511,2.279c-1.14,2.461 -1.905,3.752 -2.28,3.871c-1.32,0 -2.609,-0.645 -3.869,-1.936C36.216,53.141 36.86,51.738 37.917,50.186z" id="path_14"/><path fill="#000001" d="M44.067,49.301c1.118,0 2.46,0.766 4.043,2.287c0,0.615 -0.758,1.846 -2.288,3.689c-0.877,0 -2.167,-0.584 -3.862,-1.754C41.96,52.496 42.665,51.094 44.067,49.301z" id="path_15"/><path fill="#000001" d="M37.521,36.139h0.045c2.047,0 3.689,-0.697 4.92,-2.107l-0.172,-1.402c0,-1.732 0.352,-3.135 1.049,-4.223c0.323,0 0.795,2.992 1.41,8.963c0.705,3.225 3.158,4.717 7.358,4.484v5.01c-4.104,0.293 -6.96,-1.582 -8.588,-5.625c-0.263,-2.813 -0.556,-4.215 -0.878,-4.215c-0.689,2.662 -2.407,4.064 -5.145,4.191V36.139z" id="path_16"/><path fill="#000001" d="M43.647,15.379h1.741c2.106,0 3.164,0.787 3.164,2.369c-1.364,3.689 -3.022,5.648 -4.972,5.873l-2.303,0.307c-0.367,0 -0.518,-0.104 -0.465,-0.307c1.859,-0.982 3.6,-2.152 5.212,-3.496c-0.569,-0.531 -1.2,-0.795 -1.89,-0.795h-0.488l-1.889,0.158l-0.15,-0.158v-0.307C42.501,16.594 43.183,15.379 43.647,15.379z" id="path_17"/><path fill="#DD2C00" d="M37.798,41.299c-0.158,0.014 -0.322,0.021 -0.48,0.021h-0.885c-1.373,0 -2.311,-0.111 -2.813,-0.352c-1.02,3.945 -2.213,6.359 -3.577,7.244c-1.365,0.885 -4.448,1.635 -9.247,2.25h-0.354c-1.057,-0.119 -1.582,-0.293 -1.582,-0.525c0,-0.352 0.877,-0.764 2.633,-1.229c6.914,-3.166 10.372,-5.453 10.372,-6.855c0,-0.586 -0.817,-1.936 -2.46,-4.043c-0.353,-0.592 -0.525,-1.35 -0.525,-2.287v-1.756c0,-0.885 0.173,-1.35 0.525,-1.408c1.522,2.332 4.103,3.629 7.732,3.906c0.225,0 0.442,0 0.66,-0.014V41.299z" id="path_18"/><path fill="#DD2C00" d="M32.833,52.174c0.18,-0.098 0.232,0.059 0.157,0.486c-0.997,2.34 -2.527,3.977 -4.59,4.898l-7.583,3.803c-0.322,-0.09 -0.382,-0.354 -0.18,-0.787c1.013,-1.951 1.703,-3.105 2.07,-3.473L32.833,52.174z" id="path_19"/></svg>