<svg id="vector" xmlns="http://www.w3.org/2000/svg" width="295" height="73" viewBox="0 0 294.644 72.959"><path fill="#213e95" d="M275.755,38.703c0.234,0 0.476,0 0.731,0h0.176c2.134,-0.135 4.078,-1.957 5.817,-5.467c1.887,-2.934 3.831,-4.396 5.826,-4.396c2.515,0 3.771,1.635 3.771,4.92v0.879c0,1.611 -0.629,3.719 -1.886,6.33l-1.199,0.877c-1.06,0 -3.508,-0.766 -7.367,-2.287c-1.17,1.799 -2.084,2.895 -2.741,3.277c-1.002,0.713 -2.024,1.012 -3.085,0.877h-0.044V38.703L275.755,38.703zM284.366,34.99v0.172c2.967,1.178 4.743,1.764 5.313,1.764c0.227,0 0.344,-0.18 0.344,-0.533c-0.658,-1.754 -1.747,-2.633 -3.261,-2.633C285.711,33.76 284.906,34.174 284.366,34.99z" id="path_0"/><path fill="#213e95" d="M289.694,46.391c0.175,-0.098 0.227,0.061 0.153,0.488c-0.973,2.34 -2.463,3.975 -4.474,4.896l-7.39,3.803c-0.314,-0.09 -0.373,-0.352 -0.176,-0.787c0.987,-1.949 1.659,-3.105 2.018,-3.473L289.694,46.391z" id="path_1"/><path fill="#f06022" d="M261.027,39.033c1.688,0.555 2.996,1.26 3.939,2.107v0.354c0,0.584 -0.629,1.873 -1.886,3.869c-1.17,0 -2.478,-0.645 -3.94,-1.936v-0.352C259.141,41.816 259.77,40.473 261.027,39.033z" id="path_2"/><path fill="#f06022" d="M276.128,43.646c-1.557,0 -2.763,-0.248 -3.625,-0.744c-0.425,3.811 -1.221,6.443 -2.398,7.914c-2.821,3.629 -5.737,5.443 -8.734,5.443c-5.511,0 -9.107,-2.459 -10.796,-7.379c-0.336,-0.938 -0.511,-1.936 -0.511,-2.992v-1.402c0,-4.164 1.257,-7.441 3.771,-9.848c0.454,0.18 0.688,0.584 0.688,1.229l-2.741,5.102l-0.175,1.754c0,3.961 2.112,6.713 6.337,8.266l4.458,0.352c1.879,0 4.226,-1.117 7.025,-3.336c1.022,-1.703 1.542,-2.934 1.542,-3.699c-0.117,-1.17 -0.863,-2.863 -2.229,-5.092v-3.697l0.512,-0.525c1.242,2.564 3.538,3.803 6.878,3.713V43.646z" id="path_3"/><path fill="#f06022" d="M260.983,19.061h1.695c2.054,0 3.085,0.787 3.085,2.371c-1.331,3.689 -2.946,5.646 -4.847,5.871l-2.244,0.309c-0.357,0 -0.504,-0.105 -0.453,-0.309c1.813,-0.982 3.509,-2.152 5.08,-3.494c-0.556,-0.533 -1.169,-0.795 -1.842,-0.795h-0.475l-1.843,0.156l-0.146,-0.156v-0.309C259.865,20.275 260.529,19.061 260.983,19.061z" id="path_4"/><path fill="#DD2C00" d="M242.088,28.293c0.965,0 2.281,0.818 3.939,2.461v0.352c-1.117,2.461 -1.855,3.689 -2.229,3.689l-3.939,-2.279h-0.176c-1.111,1.957 -1.85,3.016 -2.223,3.158h-0.176c-2.506,-1.141 -3.764,-2.018 -3.764,-2.633c0.914,-2.58 1.711,-3.871 2.397,-3.871l4.108,2.289C240.685,30.078 241.371,29.027 242.088,28.293z" id="path_5"/><path fill="#DD2C00" d="M237.629,22.848c1.119,0 2.369,0.99 3.771,2.986c-0.372,0.906 -1.117,1.965 -2.229,3.164h-0.344c-0.994,-0.232 -2.084,-0.877 -3.252,-1.936v-0.523C235.663,25.6 236.343,24.371 237.629,22.848z" id="path_6"/><path fill="#DD2C00" d="M226.6,42.07h0.066c2.652,-0.119 4.48,-1.432 5.481,-3.953c0,-0.352 0.227,-0.645 0.687,-0.885h0.344c0.227,0 0.344,0.18 0.344,0.533l-0.176,1.051c0.973,1.762 2.004,2.639 3.085,2.639h0.854c1.484,0 2.632,-1.521 3.429,-4.566h0.175c0.169,0.021 0.453,0.727 0.855,2.107c0.973,0.877 1.938,1.402 2.909,1.582c1.141,0 1.718,-0.705 1.718,-2.107c0.109,-2.229 0.336,-3.346 0.68,-3.346c0.461,0.998 0.688,2.229 0.688,3.691c0,4.342 -1.031,6.51 -3.085,6.51c-1.601,0 -2.909,-0.826 -3.939,-2.469h-0.343c-0.71,2.348 -1.857,3.518 -3.429,3.518h-0.168c-1.396,0 -2.997,-1.109 -4.796,-3.336c-1.512,2.691 -3.23,4.041 -5.138,4.041H226.6V42.07z" id="path_7"/><path fill="#DD2C00" d="M243.434,11.613c0.176,-0.105 0.227,0.061 0.152,0.486c-0.972,2.342 -2.463,3.977 -4.473,4.898l-7.391,3.803c-0.313,-0.09 -0.372,-0.352 -0.175,-0.795c0.987,-1.951 1.659,-3.105 2.018,-3.473L243.434,11.613z" id="path_8"/><path fill="#000001" d="M226.812,47.096c-0.153,0.016 -0.314,0.021 -0.468,0.021h-0.863c-1.337,0 -2.25,-0.111 -2.74,-0.352c-0.994,3.945 -2.156,6.359 -3.486,7.246c-1.331,0.885 -4.335,1.635 -9.013,2.248h-0.344c-1.03,-0.119 -1.542,-0.291 -1.542,-0.523c0,-0.354 0.855,-0.766 2.565,-1.23c6.739,-3.166 10.108,-5.453 10.108,-6.855c0,-0.584 -0.797,-1.936 -2.396,-4.043c-0.344,-0.592 -0.512,-1.35 -0.512,-2.287v-1.754c0,-0.885 0.168,-1.352 0.512,-1.41c1.483,2.332 3.998,3.629 7.535,3.906c0.219,0 0.432,0 0.644,-0.014V47.096z" id="path_9"/><path fill="#000001" d="M220.219,25.391c0.314,0.555 0.68,2.137 1.096,4.748c-0.256,1.582 -0.928,2.369 -2.018,2.369h-0.146c-0.476,0 -1.089,-0.314 -1.864,-0.945c-0.525,0.953 -1.3,1.434 -2.309,1.434c-1.228,0 -1.842,-1.531 -1.842,-4.59c0.358,-1.164 0.666,-1.74 0.921,-1.74l0.146,0.156v2.701c0.212,0.938 0.475,1.402 0.775,1.402h0.621c0.643,0 1.052,-0.264 1.243,-0.787l-0.322,-2.371c0.125,-0.795 0.336,-1.215 0.621,-1.252h0.322c0.322,2.633 0.841,3.953 1.535,3.953h1.074v-0.158l-0.468,-3.158v-0.18C219.729,25.916 219.934,25.391 220.219,25.391z" id="path_10"/><path fill="#000001" d="M221.973,57.971c0.176,-0.098 0.227,0.061 0.154,0.488c-0.973,2.34 -2.464,3.975 -4.475,4.896l-7.389,3.803c-0.314,-0.09 -0.373,-0.354 -0.175,-0.787c0.987,-1.951 1.659,-3.105 2.018,-3.473L221.973,57.971z" id="path_11"/><path fill="#213e95" d="M207.697,18.641c0.343,0 0.687,1.178 1.03,3.518l1.542,3.518l-0.687,4.043l0.512,9.848v1.574c-0.227,4.02 -0.797,6.359 -1.71,7.035l-0.168,-0.172l0.168,-2.641c0,-2.371 -0.746,-9.93 -2.229,-22.672C206.872,19.99 207.383,18.641 207.697,18.641z" id="path_12"/><path fill="#000001" d="M194.92,43.143c0.197,0.016 0.41,0.023 0.643,0.023h1.623c1.718,-0.293 3.026,-0.908 3.939,-1.846l-2.054,-16.703c0.512,-3.164 0.972,-4.738 1.367,-4.738l2.229,5.271c0,0.818 -0.285,2.047 -0.855,3.689l0.855,9.488v2.641c-0.643,2.797 -1.505,4.754 -2.587,5.865c-0.819,0.891 -1.776,1.342 -2.895,1.342h-1.455c-0.285,0 -0.556,-0.008 -0.812,-0.023V43.143z" id="path_13"/><path fill="#000001" d="M200.716,9.746h1.696c2.054,0 3.084,0.787 3.084,2.369c-1.33,3.689 -2.946,5.648 -4.846,5.873l-2.244,0.307c-0.358,0 -0.504,-0.104 -0.454,-0.307c1.813,-0.982 3.509,-2.152 5.081,-3.494c-0.556,-0.533 -1.17,-0.797 -1.842,-0.797h-0.475l-1.842,0.158l-0.146,-0.158v-0.307C199.598,10.961 200.263,9.746 200.716,9.746z" id="path_14"/><path fill="#DD2C00" d="M196.499,48.176l-1.929,-0.023c-1.067,4.822 -3.896,7.26 -8.479,7.32c-2.456,0.113 -3.684,0.068 -3.684,-0.135c0.227,-0.441 1.872,-1.289 4.927,-2.549c3.143,-2.049 5.036,-3.369 5.694,-3.953l0.175,-0.525l-2.997,-0.488c-2.186,-0.584 -3.414,-1.709 -3.684,-3.381v-0.354c0,-2.842 0.68,-4.656 2.054,-5.453l1.031,-0.172c2.025,0 3.677,1.447 4.963,4.35c0.818,0.293 1.462,0.436 1.929,0.42V48.176z" id="path_15"/><path fill="#DD2C00" d="M195.059,24.379c0.175,-0.105 0.227,0.059 0.153,0.486c-0.972,2.34 -2.463,3.975 -4.473,4.898l-7.39,3.803c-0.314,-0.09 -0.373,-0.354 -0.175,-0.795c0.987,-1.951 1.659,-3.105 2.018,-3.473L195.059,24.379z" id="path_16"/><path fill="#000001" d="M159.989,43.166h0.065c2.653,-0.121 4.481,-1.434 5.482,-3.953c0,-0.352 0.227,-0.645 0.687,-0.885h0.344c0.227,0 0.344,0.18 0.344,0.533l-0.176,1.049c0.972,1.764 2.003,2.641 3.084,2.641h0.855c1.484,0 2.631,-1.523 3.428,-4.568h0.175c0.168,0.023 0.453,0.729 0.855,2.107c0.973,0.879 1.937,1.404 2.909,1.584c1.141,0 1.718,-0.705 1.718,-2.107c0.11,-2.229 0.336,-3.346 0.68,-3.346c0.46,0.998 0.687,2.229 0.687,3.689c0,4.344 -1.03,6.51 -3.084,6.51c-1.601,0 -2.909,-0.824 -3.939,-2.467h-0.344c-0.709,2.348 -1.856,3.518 -3.428,3.518h-0.168c-1.396,0 -2.997,-1.109 -4.795,-3.338c-1.513,2.693 -3.23,4.043 -5.138,4.043h-0.241V43.166z" id="path_17"/><path fill="#000001" d="M171.34,21.828h1.695c2.054,0 3.085,0.787 3.085,2.371c-1.331,3.689 -2.946,5.646 -4.846,5.871l-2.244,0.309c-0.358,0 -0.504,-0.105 -0.453,-0.309c1.813,-0.982 3.508,-2.152 5.08,-3.494c-0.556,-0.533 -1.169,-0.795 -1.842,-0.795h-0.475l-1.842,0.156l-0.146,-0.156v-0.309C170.222,23.043 170.887,21.828 171.34,21.828z" id="path_18"/><path fill="#213e95" d="M160.742,48.176l-1.93,-0.023c-1.067,4.822 -3.896,7.26 -8.479,7.32c-2.456,0.113 -3.684,0.068 -3.684,-0.135c0.227,-0.441 1.872,-1.289 4.927,-2.549c3.143,-2.049 5.036,-3.369 5.693,-3.953l0.176,-0.525l-2.997,-0.488c-2.185,-0.584 -3.413,-1.709 -3.684,-3.381v-0.354c0,-2.842 0.68,-4.656 2.054,-5.453l1.031,-0.172c2.025,0 3.677,1.447 4.963,4.35c0.818,0.293 1.462,0.436 1.93,0.42V48.176z" id="path_19"/><path fill="#213e95" d="M159.301,24.379c0.176,-0.105 0.227,0.059 0.153,0.486c-0.972,2.34 -2.463,3.975 -4.473,4.898l-7.39,3.803c-0.314,-0.09 -0.373,-0.354 -0.175,-0.795c0.986,-1.951 1.659,-3.105 2.018,-3.473L159.301,24.379z" id="path_20"/><path fill="#DD2C00" d="M142.176,18.641c0.343,0 0.687,1.178 1.03,3.518l1.542,3.518l-0.688,4.043l0.512,9.848v1.574c-0.226,4.02 -0.797,6.359 -1.71,7.035l-0.168,-0.172l0.168,-2.641c0,-2.371 -0.745,-9.93 -2.229,-22.672C141.35,19.99 141.861,18.641 142.176,18.641z" id="path_21"/><path fill="#000001" d="M137.431,31.652h0.344c0.402,0 0.628,1.17 0.687,3.518v0.697c0,3.871 -1.147,5.807 -3.428,5.807c-2.171,-0.615 -3.253,-1.381 -3.253,-2.289h-0.175c-0.687,1.875 -1.769,2.814 -3.252,2.814l-1.718,-0.174c0.088,0.877 0.088,1.523 0,1.928c-0.57,3.518 -1.82,6.428 -3.743,8.738c-1.929,2.309 -4.451,3.494 -7.558,3.568h-0.687c-4.912,0 -8.398,-2.813 -10.453,-8.438l-0.168,-2.459v-0.705c0.344,-5.686 1.937,-9.143 4.795,-10.373l0.168,0.18v0.174l-2.566,4.395c-0.49,1.027 -0.826,2.318 -1.031,3.869c0,3.66 2.398,6.354 7.2,8.086l1.71,0.172h1.367c3.888,0 7.258,-2.168 10.108,-6.502v-0.172c-0.227,-1.703 -1.082,-3.639 -2.565,-5.805l-0.175,-0.879v-3.338l0.343,-0.352h0.175c1.338,1.994 2.997,2.984 4.963,2.984h0.175c1.513,0 2.653,-1.17 3.421,-3.51l0.175,-0.18h0.344l0.343,0.352v0.525l-0.175,0.705c0.687,1.059 1.601,1.582 2.741,1.582h0.175c1.023,0 1.542,-0.996 1.542,-2.984L137.431,31.652z" id="path_22"/><path fill="#000001" d="M131.994,55.84c0.175,-0.098 0.227,0.061 0.153,0.488c-0.972,2.34 -2.463,3.975 -4.474,4.896l-7.39,3.803c-0.314,-0.09 -0.373,-0.352 -0.175,-0.787c0.987,-1.949 1.659,-3.105 2.018,-3.473L131.994,55.84z" id="path_23"/><path fill="#DD2C00" d="M98.611,18.641c0.343,0 0.687,1.178 1.03,3.518l1.542,3.518l-0.687,4.043l0.512,9.848v1.574c-0.227,4.02 -0.796,6.359 -1.71,7.035l-0.168,-0.172l0.168,-2.641c0,-2.371 -0.746,-9.93 -2.229,-22.672C97.785,19.99 98.297,18.641 98.611,18.641z" id="path_24"/><path fill="#213e95" d="M85.834,44.793c0.197,0.016 0.409,0.023 0.643,0.023H88.1c1.718,-0.293 3.026,-0.908 3.94,-1.846l-2.054,-16.703c0.512,-3.164 0.972,-4.74 1.367,-4.74l2.229,5.273c0,0.818 -0.285,2.047 -0.855,3.689l0.855,9.488v2.641c-0.643,2.797 -1.506,4.754 -2.587,5.863c-0.819,0.893 -1.776,1.344 -2.895,1.344h-1.455c-0.285,0 -0.556,-0.008 -0.811,-0.023V44.793z" id="path_25"/><path fill="#213e95" d="M90.461,11.396h1.696c2.054,0 3.084,0.787 3.084,2.369c-1.33,3.689 -2.946,5.646 -4.846,5.873l-2.244,0.307c-0.358,0 -0.504,-0.105 -0.453,-0.307c1.813,-0.982 3.508,-2.152 5.08,-3.496c-0.556,-0.531 -1.17,-0.795 -1.842,-0.795h-0.475l-1.842,0.158l-0.146,-0.158v-0.307C89.343,12.611 90.008,11.396 90.461,11.396z" id="path_26"/><path fill="#008046" d="M62.78,43.166c1.403,0 2.427,0 3.085,0h0.687c2.054,-0.277 5.124,-1.178 9.209,-2.701c-1.374,-1.176 -3.486,-2.055 -6.337,-2.639c-1.688,0 -2.829,0.816 -3.428,2.459c-0.212,0.488 -0.402,0.615 -0.57,0.383c-0.161,-0.225 -0.205,-0.525 -0.117,-0.906c1.03,-3.549 2.397,-5.318 4.115,-5.318h1.199c1.14,0 3.202,0.66 6.176,1.98c2.975,1.313 5.541,1.844 7.697,1.582c0.271,0 0.387,0.172 0.343,0.525c-0.46,2.924 -1.315,4.395 -2.573,4.395l-0.855,0.172v0.354c0.431,0.922 2.404,1.365 5.935,1.32v4.986c-5.109,0.277 -7.66,-1.762 -7.646,-6.127c-1.827,0.277 -4.305,1.146 -7.434,2.625c-3.128,1.469 -6.286,2.1 -9.488,1.896V43.166z" id="path_27"/><path fill="#008046" d="M71.325,25.039c2.397,1.229 3.604,2.287 3.604,3.164c-1.147,2.311 -1.828,3.488 -2.061,3.518h-0.344c-1.754,-0.908 -2.836,-1.732 -3.253,-2.461C69.673,27.926 70.36,26.516 71.325,25.039z" id="path_28"/><path fill="#008046" d="M78.006,14.029c0.175,-0.105 0.227,0.059 0.153,0.486c-0.972,2.34 -2.463,3.975 -4.473,4.898l-7.39,3.801c-0.314,-0.09 -0.373,-0.352 -0.176,-0.795c0.987,-1.949 1.659,-3.104 2.018,-3.473L78.006,14.029z" id="path_29"/><path fill="#e21171" d="M54.243,28.18c0.585,0 1.959,0.705 4.115,2.109c0,0.877 -0.687,2.287 -2.061,4.221c-2.741,-0.906 -4.108,-1.732 -4.108,-2.459C52.262,31.391 52.942,30.1 54.243,28.18z" id="path_30"/><path fill="#e21171" d="M48.008,43.166c1.221,0.016 1.974,-0.008 2.273,-0.068c2.573,-0.803 4.327,-2.512 5.27,-5.115c0.139,-0.502 0.424,-0.563 0.855,-0.18c0.226,0.203 0.402,1.027 0.511,2.461c1.557,2.152 3.501,3.119 5.826,2.902h0.453v5.01h-0.109c-3.64,-0.172 -6.323,-1.875 -8.055,-5.1h-0.168c-1.213,2.625 -2.814,4.236 -4.795,4.838c-0.6,0.172 -1.286,0.262 -2.062,0.262V43.166z" id="path_31"/><path fill="#e21171" d="M58.139,15.498c0.314,0.555 0.68,2.139 1.097,4.748c-0.256,1.582 -0.929,2.369 -2.018,2.369h-0.146c-0.475,0 -1.089,-0.314 -1.864,-0.945c-0.526,0.953 -1.301,1.434 -2.31,1.434c-1.228,0 -1.842,-1.531 -1.842,-4.59c0.358,-1.164 0.666,-1.74 0.921,-1.74l0.146,0.158v2.699c0.212,0.938 0.475,1.402 0.774,1.402h0.622c0.644,0 1.053,-0.262 1.243,-0.787l-0.322,-2.371c0.125,-0.795 0.336,-1.215 0.622,-1.252h0.321c0.322,2.633 0.841,3.953 1.535,3.953h1.074v-0.158l-0.468,-3.156V17.08C57.649,16.023 57.854,15.498 58.139,15.498z" id="path_32"/><path fill="#e21171" d="M60.727,5.83c0.175,-0.104 0.227,0.061 0.153,0.488c-0.972,2.34 -2.463,3.975 -4.473,4.898l-7.39,3.801c-0.314,-0.09 -0.373,-0.352 -0.175,-0.795c0.986,-1.949 1.659,-3.104 2.018,-3.473L60.727,5.83z" id="path_33"/><path fill="#213e95" d="M48.053,48.176c-3.326,0.203 -5.745,-1.373 -7.258,-4.725c-0.731,-1.246 -1.411,-9.639 -2.054,-25.178V17.92c0.424,-2.58 1.052,-3.869 1.878,-3.869l0.863,-0.172c1.052,0 2.653,0.352 4.795,1.049v0.354c-0.117,0.352 -0.46,0.531 -1.031,0.531h-2.909c-0.599,0 -1.169,0.346 -1.718,1.051c0.534,13.492 1.309,21.307 2.339,23.445c1.023,2.137 2.726,3.09 5.095,2.857V48.176z" id="path_34"/><path fill="#000001" d="M35.97,31.652h0.344c0.402,0 0.628,1.17 0.687,3.518v0.697c0,3.871 -1.147,5.807 -3.428,5.807c-2.17,-0.615 -3.252,-1.381 -3.252,-2.289h-0.175c-0.687,1.875 -1.769,2.814 -3.253,2.814l-1.718,-0.174c0.088,0.877 0.088,1.523 0,1.928c-0.57,3.518 -1.82,6.428 -3.742,8.738c-1.93,2.309 -4.452,3.494 -7.558,3.568h-0.687c-4.912,0 -8.398,-2.813 -10.453,-8.438l-0.168,-2.459v-0.705c0.343,-5.686 1.937,-9.143 4.795,-10.373l0.168,0.18v0.174l-2.565,4.395c-0.49,1.027 -0.826,2.318 -1.031,3.869c0,3.66 2.398,6.354 7.2,8.086l1.71,0.172h1.367c3.889,0 7.258,-2.168 10.109,-6.502v-0.172c-0.227,-1.703 -1.082,-3.639 -2.565,-5.805l-0.175,-0.879v-3.338l0.343,-0.352h0.176c1.337,1.994 2.997,2.984 4.963,2.984h0.175c1.513,0 2.653,-1.17 3.421,-3.51l0.175,-0.18h0.344l0.343,0.352v0.525l-0.175,0.705c0.687,1.059 1.601,1.582 2.741,1.582h0.176c1.023,0 1.542,-0.996 1.542,-2.984L35.97,31.652z" id="path_35"/><path fill="#000001" d="M30.532,55.84c0.175,-0.098 0.226,0.061 0.153,0.488c-0.972,2.34 -2.463,3.975 -4.473,4.896l-7.39,3.803c-0.314,-0.09 -0.373,-0.352 -0.175,-0.787c0.987,-1.949 1.659,-3.105 2.017,-3.473L30.532,55.84z" id="path_36"/></svg>