<svg id="vector" xmlns="http://www.w3.org/2000/svg" width="75" height="67" viewBox="0 0 84 73"><path fill="#DD2C00" d="M54.818,55.104h2.023c2.139,-0.293 5.535,-1.088 10.193,-2.371v-0.18c-4.246,-1.875 -6.938,-2.813 -8.084,-2.813c-1.553,0 -2.604,0.877 -3.166,2.641l-0.525,0.352c-0.232,0 -0.352,-0.18 -0.352,-0.532c0.584,-3.51 2.166,-5.272 4.746,-5.272h0.879c1.088,0 4.777,1.23 11.076,3.689l4.748,0.354l0.346,0.532c-0.084,0.788 -0.789,2.31 -2.107,4.567H74.07l-0.705,-0.18h-0.877c-9.143,2.699 -14.477,4.102 -15.998,4.223h-1.672V55.104z" id="path_0"/><path fill="#DD2C00" d="M66.773,28.951c1.799,0 2.699,1.11 2.699,3.322c0,3.525 -3.008,6.532 -9.029,9.008c-0.863,0.263 -0.969,-0.053 -0.309,-0.945c0.166,-0.337 1.582,-1.395 4.26,-3.165v-0.149c-1.154,-0.473 -1.732,-1.478 -1.732,-3.015c0.766,-3.368 1.98,-5.056 3.646,-5.056H66.773L66.773,28.951zM64.088,32.754c0,0.938 0.795,1.515 2.377,1.74h0.309c0.584,0 0.959,-0.218 1.117,-0.638c0,-0.952 -0.689,-1.695 -2.063,-2.22C65.229,31.637 64.65,32.012 64.088,32.754z" id="path_1"/><path fill="#008046" d="M37.244,55.104c1.951,0.164 3.607,-0.031 4.988,-0.57l-0.727,-1.32c-0.684,-3.87 -0.375,-6.428 0.922,-7.68c1.305,-1.253 2.707,-1.83 4.199,-1.725c2.902,0.135 4.537,1.656 4.92,4.566v1.058c0,2.431 -0.352,3.952 -1.049,4.567c-0.443,0.457 0.555,0.84 2.984,1.148l0.57,-0.023c0.441,-0.015 0.945,-0.021 1.514,-0.021v5.01l-1.777,0.021c-3.307,-0.015 -5.813,-0.435 -7.514,-1.252c-2.34,0.817 -4.162,1.23 -5.445,1.23h-0.705c-0.877,0 -1.838,0 -2.881,0V55.104L37.244,55.104zM43.463,50.139v0.353c0.734,1.26 1.844,2.138 3.338,2.633c0.996,-0.173 1.994,-0.586 2.992,-1.23c-0.443,-1.643 -1.906,-2.58 -4.395,-2.813C44.107,49.434 43.463,49.786 43.463,50.139z" id="path_2"/><path fill="#008046" d="M46.867,33.699c1.904,0.593 3.547,1.53 4.92,2.813v0.18c0,0.735 -0.758,1.905 -2.279,3.518c-0.473,0 -2.055,-0.585 -4.748,-1.763v0.18c-0.938,1.815 -1.521,2.753 -1.762,2.813c-1.523,-0.322 -2.813,-1.027 -3.863,-2.115c0.705,-2.924 1.291,-4.387 1.756,-4.387c0.383,0 1.791,0.697 4.223,2.107C45.113,36.43 45.697,35.312 46.867,33.699z" id="path_3"/><path fill="#008046" d="M48.074,22.366c0.324,0.556 0.699,2.138 1.127,4.748c-0.264,1.582 -0.953,2.37 -2.07,2.37h-0.15c-0.488,0 -1.117,-0.315 -1.912,-0.945c-0.541,0.952 -1.336,1.433 -2.371,1.433c-1.26,0 -1.889,-1.53 -1.889,-4.59c0.367,-1.163 0.682,-1.74 0.943,-1.74l0.15,0.157v2.7c0.219,0.938 0.488,1.402 0.795,1.402h0.639c0.66,0 1.078,-0.263 1.273,-0.787l-0.33,-2.37c0.129,-0.795 0.346,-1.215 0.639,-1.253h0.33c0.33,2.633 0.861,3.953 1.574,3.953h1.104v-0.158l-0.48,-3.157v-0.18C47.572,22.892 47.783,22.366 48.074,22.366z" id="path_4"/><path fill="#008046" d="M50.73,12.699c0.18,-0.105 0.232,0.06 0.156,0.487c-0.996,2.34 -2.527,3.975 -4.59,4.897l-7.582,3.803c-0.322,-0.09 -0.383,-0.353 -0.18,-0.795c1.012,-1.95 1.703,-3.105 2.07,-3.473L50.73,12.699z" id="path_5"/><path fill="#000001" d="M37.814,60.136c-2.242,-0.18 -4.268,-1.754 -6.09,-4.725c-2.691,3.277 -6.563,4.92 -11.596,4.92h-1.408c-5.445,0 -9.195,-2.34 -11.25,-7.027l-0.174,-1.058v-1.583c0,-1.694 0.758,-3.629 2.281,-5.797h0.18l0.352,0.353v0.878l-0.885,2.813c0,3.074 2.58,5.182 7.74,6.33l3.164,0.172c5.477,0 9.811,-1.875 13.006,-5.625c0.172,0 0.354,0.232 0.525,0.705l-0.172,1.23c0.6,2.212 2.039,3.322 4.326,3.337V60.136z" id="path_6"/><path fill="#000001" d="M17.49,43.456h0.352c1.201,0.263 2.49,0.968 3.871,2.107v0.18c-0.795,2.4 -1.5,3.69 -2.115,3.871c-1.785,-0.354 -3.135,-0.938 -4.043,-1.763v-0.173C15.555,46.299 16.199,44.896 17.49,43.456z" id="path_7"/><path fill="#000001" d="M23.992,41.874h0.18c1.201,0.18 2.551,0.997 4.043,2.46v0.18l-2.115,3.69c-2.813,-0.908 -4.215,-1.673 -4.215,-2.288C22.793,43.224 23.498,41.874 23.992,41.874z" id="path_8"/><path fill="#000001" d="M20.715,29.222h1.74c2.107,0 3.164,0.787 3.164,2.37c-1.363,3.689 -3.021,5.647 -4.973,5.872l-2.301,0.307c-0.369,0 -0.518,-0.104 -0.465,-0.307c1.859,-0.982 3.6,-2.152 5.211,-3.495c-0.568,-0.532 -1.199,-0.795 -1.889,-0.795h-0.488l-1.891,0.157l-0.148,-0.157v-0.308C19.566,30.437 20.25,29.222 20.715,29.222z" id="path_9"/></svg>