<svg id="vector" xmlns="http://www.w3.org/2000/svg" width="94" height="67" viewBox="0 0 101.905 72.96"><path fill="#213e95" d="M95.103,44.612h0.629c1.833,0 3.191,1.676 4.081,5.033l0.154,1.674c0.053,0.545 0.053,1.104 0,1.682c-0.469,2.041 -1.52,4.053 -3.139,6.035c-1.124,1.01 -3.68,1.789 -7.681,2.348c-0.469,-0.223 -0.736,-0.443 -0.783,-0.666c6.691,-3.887 10.036,-6.234 10.036,-7.051l0.154,-0.5L98.4,53.001l-1.411,0.502h-0.783c-2.823,0 -4.235,-1.066 -4.235,-3.186v-0.336c0.361,-3.473 1.151,-5.205 2.349,-5.205L95.103,44.612z" id="path_0"/><path fill="#213e95" d="M99.258,31.019c0.16,-0.101 0.207,0.057 0.14,0.465c-0.89,2.233 -2.254,3.794 -4.095,4.674l-6.765,3.631c-0.287,-0.086 -0.341,-0.336 -0.16,-0.76c0.903,-1.861 1.519,-2.963 1.847,-3.314L99.258,31.019z" id="path_1"/><path fill="#000001" d="M84.678,26.172c0.314,0 0.629,1.124 0.943,3.357l1.412,3.357l-0.629,3.858l0.468,9.398v1.504c-0.207,3.836 -0.729,6.07 -1.565,6.715l-0.154,-0.166l0.154,-2.52c0,-2.262 -0.683,-9.477 -2.041,-21.639C83.922,27.461 84.39,26.172 84.678,26.172z" id="path_2"/><path fill="#DD2C00" d="M72.982,44.376c0.18,0.014 0.374,0.021 0.588,0.021h1.485c1.573,-0.279 2.771,-0.867 3.606,-1.762l-1.88,-15.941c0.469,-3.021 0.89,-4.523 1.251,-4.523l2.041,5.031c0,0.781 -0.261,1.955 -0.783,3.522l0.783,9.056v2.52c-0.589,2.67 -1.378,4.539 -2.368,5.598c-0.75,0.852 -1.626,1.281 -2.65,1.281h-1.331c-0.261,0 -0.509,-0.395 -0.742,-0.408V44.376z" id="path_3"/><path fill="#000001" d="M65.375,32.378c0.883,0 2.087,0.787 3.605,2.348v0.337c-1.023,2.349 -1.699,3.528 -2.04,3.528l-3.606,-2.182h-0.16c-1.018,1.875 -1.693,2.877 -2.034,3.02h-0.161c-2.295,-1.094 -3.445,-1.932 -3.445,-2.52c0.836,-2.463 1.565,-3.687 2.194,-3.687l3.761,2.177C64.09,34.089 64.719,33.079 65.375,32.378z" id="path_4"/><path fill="#000001" d="M61.293,27.182c1.024,0 2.168,0.951 3.453,2.849c-0.342,0.866 -1.024,1.875 -2.041,3.021h-0.314c-0.91,-0.222 -1.907,-0.837 -2.978,-1.847v-0.501C59.493,29.808 60.115,28.635 61.293,27.182z" id="path_5"/><path fill="#000001" d="M74.722,49.179c-0.247,0 -0.549,0 -0.903,0c-1.398,-0.014 -2.903,-1.137 -4.529,-3.379c-0.622,2.463 -1.72,3.693 -3.292,3.693h-0.154c-1.331,0 -2.429,-0.836 -3.292,-2.52h-0.16c-0.937,2.02 -2.074,2.936 -3.412,2.75c-2.482,0.014 -3.955,-1.238 -4.43,-3.752c-1.746,2.191 -3.626,3.266 -5.627,3.207l-0.254,-4.781c2.557,0 5.516,-1.299 7.139,-3.457c0.207,0 0.314,0.164 0.314,0.5l-0.16,1.174c0.836,1.791 1.934,2.686 3.292,2.686c1.284,0 2.589,-1.34 3.921,-4.023h0.16l0.468,0.5v1.176c0,1.059 0.736,1.674 2.195,1.846h0.314c1.358,0 2.616,-1.453 3.767,-4.365h0.154c0.207,0 0.314,0.508 0.314,1.51c0.575,1.418 1.967,2.232 4.175,2.455V49.179z" id="path_6"/><path fill="#000001" d="M63.742,15.606c0.288,0.529 0.622,2.04 1.004,4.531c-0.234,1.51 -0.851,2.262 -1.847,2.262h-0.134c-0.436,0 -0.997,-0.301 -1.706,-0.902c-0.482,0.91 -1.191,1.367 -2.114,1.367c-1.124,0 -1.687,-1.46 -1.687,-4.381c0.328,-1.109 0.609,-1.66 0.844,-1.66l0.133,0.15v2.576c0.194,0.896 0.436,1.339 0.71,1.339h0.568c0.589,0 0.963,-0.251 1.138,-0.751l-0.295,-2.263c0.114,-0.759 0.308,-1.159 0.569,-1.194h0.294c0.294,2.512 0.77,3.771 1.405,3.771h0.983v-0.15l-0.429,-3.014v-0.172C63.294,16.106 63.481,15.606 63.742,15.606z" id="path_7"/><path fill="#000001" d="M67.181,6.379c0.161,-0.101 0.208,0.058 0.141,0.466c-0.89,2.232 -2.255,3.793 -4.095,4.674l-6.765,3.629c-0.287,-0.086 -0.341,-0.336 -0.16,-0.758c0.903,-1.861 1.519,-2.964 1.847,-3.314L67.181,6.379z" id="path_8"/><path fill="#DD2C00" d="M36.504,44.397c1.07,0 2.201,-0.443 3.393,-1.332c1.19,-0.887 1.887,-2.004 2.101,-3.342l0.154,-0.172h0.153c0.188,0 0.448,0.615 0.79,1.846c1.887,2.773 3.904,3.092 6.817,2.861V49.2c-0.09,0.008 -0.183,0.014 -0.274,0.018c-0.092,0.002 -0.185,0.016 -0.274,0.004l-2.194,-0.271c-0.234,2.232 -0.917,3.35 -2.041,3.357h-0.314c-2.087,-0.422 -3.131,-1.203 -3.131,-2.355l0.469,-3.021c-0.368,-0.443 -0.729,-0.666 -1.098,-0.666c-1.178,1.969 -2.951,3.482 -4.767,2.768L36.504,44.397z" id="path_9"/><path fill="#DD2C00" d="M42.619,23.094h1.553c1.88,0 2.823,0.751 2.823,2.263c-1.218,3.521 -2.696,5.39 -4.437,5.604l-2.054,0.294c-0.328,0 -0.462,-0.101 -0.415,-0.294c1.66,-0.938 3.212,-2.055 4.65,-3.336c-0.509,-0.509 -1.07,-0.759 -1.687,-0.759h-0.435l-1.686,0.15l-0.134,-0.15v-0.293C41.596,24.253 42.204,23.094 42.619,23.094z" id="path_10"/><path fill="#000001" d="M37.494,49.2H37.34c-1.124,0.086 -2.328,-0.709 -3.606,-2.391c-0.495,2.02 -1.438,3.021 -2.823,3.021s-2.482,-0.838 -3.292,-2.514c-1.124,1.561 -2.168,2.348 -3.138,2.348h-1.251l-1.098,-0.172c0,2.492 -0.736,5.063 -2.201,7.717c-2.609,3.25 -5.326,4.869 -8.149,4.869c-4.891,0 -8.076,-2.742 -9.568,-8.219l-0.313,-3.529c0,-3.293 1.257,-6.205 3.767,-8.719c0.415,0.223 0.622,0.559 0.622,1.002c-1.773,2.635 -2.663,4.703 -2.663,6.215v0.664c0,3.695 1.987,6.207 5.962,7.553l2.509,0.336c3.707,0 6.584,-1.789 8.625,-5.367l0.153,-1.848c-1.358,-2.85 -2.041,-4.639 -2.041,-5.369v-0.5c0,-1.791 0.161,-2.686 0.476,-2.686c1.044,2.348 2.609,3.521 4.703,3.521c1.753,0 3.165,-1.174 4.235,-3.521h0.154c0.207,0 0.367,0.723 0.468,2.176c0.736,0.789 1.365,1.174 1.887,1.174h0.783c0.963,0 1.854,-1.279 2.663,-3.857l0.16,-0.164h0.154c0.249,2.473 1.283,3.914 3.586,3.145L37.494,49.2z" id="path_11"/><path fill="#000001" d="M30.047,57.841c0.161,-0.094 0.208,0.057 0.141,0.465c-0.89,2.234 -2.255,3.795 -4.095,4.674l-6.765,3.631c-0.287,-0.086 -0.341,-0.338 -0.16,-0.752c0.903,-1.861 1.519,-2.963 1.847,-3.314L30.047,57.841z" id="path_12"/></svg>