<svg id="vector" xmlns="http://www.w3.org/2000/svg" width="94" height="67" viewBox="0 0 101.904 72.959"><path fill="#213e95" d="M73.373,36.656h0.067c2.723,-0.121 4.598,-1.434 5.625,-3.953c0,-0.352 0.232,-0.645 0.705,-0.885h0.353c0.232,0 0.353,0.18 0.353,0.533l-0.18,1.049c0.997,1.764 2.055,2.641 3.165,2.641h0.877c1.522,0 2.7,-1.523 3.518,-4.568h0.181c0.172,0.023 0.465,0.729 0.877,2.107c0.998,0.879 1.987,1.402 2.985,1.584c1.17,0 1.763,-0.705 1.763,-2.109c0.112,-2.227 0.345,-3.344 0.697,-3.344c0.473,0.998 0.705,2.227 0.705,3.689c0,4.344 -1.058,6.51 -3.165,6.51c-1.643,0 -2.985,-0.824 -4.043,-2.467h-0.353c-0.728,2.348 -1.904,3.518 -3.517,3.518h-0.173c-1.433,0 -3.075,-1.109 -4.921,-3.338c-1.552,2.693 -3.314,4.043 -5.271,4.043h-0.248V36.656z" id="path_0"/><path fill="#213e95" d="M91.831,44.539c0.18,-0.098 0.232,0.059 0.157,0.486c-0.998,2.34 -2.527,3.975 -4.59,4.898l-7.583,3.803c-0.322,-0.092 -0.383,-0.354 -0.18,-0.789c1.013,-1.949 1.702,-3.104 2.07,-3.471L91.831,44.539z" id="path_1"/><path fill="#DD2C00" d="M48.87,35.006c1.44,0 2.49,0 3.166,0h0.704c2.107,-0.277 5.258,-1.178 9.45,-2.701c-1.41,-1.176 -3.577,-2.055 -6.502,-2.639c-1.733,0 -2.903,0.816 -3.518,2.459c-0.218,0.488 -0.413,0.615 -0.585,0.383c-0.165,-0.225 -0.211,-0.525 -0.12,-0.906c1.058,-3.549 2.46,-5.318 4.223,-5.318h1.229c1.17,0 3.285,0.66 6.338,1.98c3.053,1.313 5.685,1.844 7.897,1.582c0.277,0 0.397,0.172 0.353,0.525c-0.473,2.924 -1.351,4.395 -2.641,4.395l-0.877,0.172v0.354c0.442,1.215 2.467,1.658 6.09,1.32v4.986c-5.243,0.277 -7.86,-1.762 -7.845,-6.127c-1.875,0.277 -4.418,1.148 -7.628,2.625c-3.21,1.471 -6.45,2.1 -9.735,1.898V35.006z" id="path_2"/><path fill="#DD2C00" d="M57.638,40.699c2.46,1.229 3.698,2.287 3.698,3.164c-1.178,2.311 -1.876,3.488 -2.115,3.51h-0.353c-1.8,-0.908 -2.91,-1.725 -3.338,-2.459C55.943,43.586 56.648,42.176 57.638,40.699z" id="path_3"/><path fill="#DD2C00" d="M64.471,11.186c0.322,0.555 0.697,2.138 1.125,4.748c-0.263,1.582 -0.953,2.369 -2.07,2.369h-0.149c-0.488,0 -1.118,-0.314 -1.913,-0.944c-0.54,0.952 -1.335,1.433 -2.37,1.433c-1.26,0 -1.89,-1.53 -1.89,-4.59c0.367,-1.163 0.683,-1.74 0.945,-1.74l0.149,0.157v2.7c0.218,0.938 0.488,1.402 0.795,1.402h0.638c0.66,0 1.08,-0.263 1.275,-0.787l-0.33,-2.371c0.128,-0.794 0.345,-1.215 0.638,-1.252h0.33c0.329,2.633 0.862,3.953 1.574,3.953h1.103v-0.158l-0.479,-3.157v-0.18C63.968,11.711 64.178,11.186 64.471,11.186z" id="path_4"/><path fill="#DD2C00" d="M65.483,48.559c0.18,-0.098 0.232,0.061 0.157,0.486c-0.998,2.342 -2.527,3.977 -4.59,4.898l-7.583,3.803c-0.322,-0.09 -0.382,-0.354 -0.18,-0.787c1.013,-1.951 1.702,-3.105 2.07,-3.473L65.483,48.559z" id="path_5"/><path fill="#000001" d="M36.818,43.182c0.728,0 2.018,0.877 3.862,2.631c0,0.594 -0.697,1.875 -2.107,3.871h-0.353c-0.735,0 -1.845,-0.705 -3.338,-2.107v-0.18C34.883,46.697 35.528,45.289 36.818,43.182z" id="path_6"/><path fill="#000001" d="M43.141,42.303c2.933,1.26 4.396,2.25 4.396,2.986c-0.173,0.555 -0.99,1.783 -2.46,3.689c-1.966,-0.758 -3.368,-1.635 -4.216,-2.633C41.476,44.381 42.233,43.031 43.141,42.303z" id="path_7"/><path fill="#000001" d="M33.713,35.006c1.253,0.016 2.025,-0.008 2.333,-0.068c2.64,-0.803 4.439,-2.512 5.407,-5.115c0.143,-0.502 0.436,-0.563 0.878,-0.18c0.232,0.203 0.412,1.027 0.524,2.461c1.598,2.152 3.593,3.119 5.978,2.902h0.465v5.01h-0.112c-3.734,-0.172 -6.487,-1.875 -8.265,-5.1h-0.173c-1.245,2.625 -2.888,4.236 -4.92,4.838c-0.615,0.172 -1.32,0.262 -2.115,0.262V35.006z" id="path_8"/><path fill="#000001" d="M40.613,13.676h1.74c2.107,0 3.165,0.787 3.165,2.37c-1.365,3.69 -3.022,5.647 -4.973,5.872l-2.303,0.309c-0.367,0 -0.518,-0.105 -0.465,-0.309c1.86,-0.982 3.6,-2.152 5.213,-3.494c-0.57,-0.533 -1.2,-0.795 -1.891,-0.795h-0.487l-1.89,0.157l-0.15,-0.157v-0.308C39.466,14.891 40.148,13.676 40.613,13.676z" id="path_9"/><path fill="#213e95" d="M33.211,39.949c-1.702,0.014 -3.105,-0.855 -4.223,-2.611h-0.172c-0.825,2.926 -2.056,4.98 -3.69,6.15c-2.317,2.227 -4.838,3.338 -7.561,3.338h-1.058c-3.104,0 -5.857,-1.756 -8.257,-5.273c-0.938,-1.611 -1.41,-3.486 -1.41,-5.625c0,-3.016 1.522,-6.061 4.575,-9.135c1.59,-1.012 2.063,-0.952 1.402,0.173c-2.692,3.749 -4.043,6.329 -4.043,7.731c0,3.639 2.692,6.039 8.086,7.209h1.409c3.016,0 6,-1.523 8.963,-4.568c0.308,-0.967 0.367,-2.025 0.172,-3.164c-0.584,-2.49 -1.462,-8.82 -2.632,-18.982l1.05,-3.518c0.165,-0.031 0.338,-0.031 0.532,0c0.323,0 0.908,4.455 1.755,13.357c0.585,4.688 1.29,7.619 2.107,8.789c0.721,0.795 1.718,1.162 2.993,1.117V39.949z" id="path_10"/><path fill="#e21171" d="M26.94,52.916l0.181,0.158v0.479c-0.908,1.951 -2.175,3.316 -3.803,4.111c-5.04,2.736 -7.838,4.109 -8.393,4.109c-0.202,0 -0.308,-0.166 -0.308,-0.488c0.48,-1.859 1.537,-3.119 3.165,-3.779l9.008,-4.59H26.94z" id="path_11"/><path fill="#e21171" d="M25.688,48.963c0.21,0 0.308,0.15 0.308,0.457c-0.585,1.703 -2.318,3.232 -5.205,4.598l-6.66,3.646l-0.15,-0.158v-0.172c0.63,-2.229 1.635,-3.602 3.008,-4.111l7.433,-3.803L25.688,48.963z" id="path_12"/></svg>