<svg id="vector" xmlns="http://www.w3.org/2000/svg" width="75" height="67" viewBox="0 0 84 73"><path fill="#000001" d="M59.857,27.343h0.353c1.2,0.263 2.49,0.96 3.87,2.107v0.173c-0.795,2.407 -1.493,3.689 -2.107,3.87c-1.792,-0.353 -3.135,-0.938 -4.043,-1.755v-0.181C57.93,30.178 58.575,28.775 59.857,27.343z" id="path_0"/><path fill="#000001" d="M66.368,25.761h0.172c1.2,0.172 2.55,0.989 4.042,2.46v0.172l-2.107,3.69c-2.813,-0.907 -4.223,-1.665 -4.223,-2.28C65.16,27.103 65.865,25.761 66.368,25.761z" id="path_1"/><path fill="#000001" d="M58.297,45.643c4.605,0.046 7.178,-0.817 7.74,-2.595c0,-0.615 -0.585,-2.138 -1.763,-4.568l0.533,-4.566h0.345c1.53,2.633 2.288,5.271 2.288,7.904V43.4c0,1.058 -0.255,2.167 -0.757,3.329c-0.502,1.163 -1.283,2.146 -2.325,2.934c-1.05,0.795 -3.067,1.125 -6.06,0.989V45.643z" id="path_2"/><path fill="#000001" d="M69.435,16.311c0.18,-0.105 0.232,0.06 0.157,0.487c-0.997,2.34 -2.527,3.975 -4.59,4.897l-7.583,3.803c-0.322,-0.09 -0.382,-0.353 -0.18,-0.795c1.013,-1.95 1.703,-3.105 2.07,-3.473L69.435,16.311z" id="path_3"/><path fill="#213e95" d="M49.868,52.587c0.6,0 2.01,0.705 4.222,2.108c0,0.878 -0.705,2.288 -2.115,4.222c-2.813,-0.914 -4.215,-1.732 -4.215,-2.467C47.835,55.798 48.533,54.508 49.868,52.587z" id="path_4"/><path fill="#213e95" d="M43.47,45.643c1.252,0.015 2.025,-0.008 2.333,-0.067c2.64,-0.803 4.44,-2.513 5.407,-5.115c0.143,-0.502 0.435,-0.563 0.878,-0.18c0.232,0.202 0.412,1.027 0.525,2.459c1.598,2.153 3.592,3.121 5.977,2.903h0.465v5.01h-0.112c-3.735,-0.173 -6.488,-1.875 -8.265,-5.101h-0.173c-1.245,2.626 -2.887,4.238 -4.919,4.838c-0.615,0.173 -1.32,0.263 -2.115,0.263V45.643z" id="path_5"/><path fill="#213e95" d="M53.535,23.78c0.322,0.555 0.698,2.138 1.125,4.748c-0.263,1.582 -0.953,2.369 -2.07,2.369h-0.15c-0.487,0 -1.117,-0.314 -1.913,-0.944c-0.54,0.952 -1.334,1.433 -2.37,1.433c-1.26,0 -1.89,-1.53 -1.89,-4.591c0.367,-1.162 0.683,-1.739 0.945,-1.739l0.15,0.157v2.7c0.217,0.938 0.487,1.402 0.794,1.402h0.638c0.66,0 1.08,-0.263 1.275,-0.787l-0.33,-2.37c0.127,-0.795 0.345,-1.215 0.637,-1.253h0.33c0.33,2.633 0.863,3.952 1.575,3.952h1.103V28.7l-0.48,-3.157v-0.18C53.033,24.306 53.243,23.78 53.535,23.78z" id="path_6"/><path fill="#213e95" d="M56.19,14.113c0.18,-0.105 0.232,0.06 0.157,0.487c-0.998,2.34 -2.527,3.975 -4.59,4.897L44.175,23.3c-0.322,-0.09 -0.383,-0.352 -0.18,-0.794c1.013,-1.951 1.702,-3.105 2.07,-3.474L56.19,14.113z" id="path_7"/><path fill="#DD2C00" d="M43.935,50.675c-2.243,-0.18 -4.268,-1.755 -6.09,-4.725c-2.693,3.277 -6.563,4.92 -11.595,4.92h-1.41c-5.445,0 -9.195,-2.34 -11.25,-7.027l-0.172,-1.058v-1.583c0,-1.694 0.758,-3.629 2.28,-5.797h0.18l0.353,0.353v0.877l-0.885,2.813c0,3.074 2.58,5.182 7.74,6.329l3.165,0.173c5.475,0 9.81,-1.875 13.005,-5.625c0.173,0 0.353,0.232 0.525,0.705l-0.172,1.23c0.6,2.212 2.04,3.322 4.328,3.337V50.675z" id="path_8"/><path fill="#DD2C00" d="M23.61,33.995h0.353c1.2,0.263 2.49,0.968 3.87,2.107v0.181c-0.795,2.399 -1.5,3.689 -2.115,3.869c-1.785,-0.353 -3.135,-0.938 -4.042,-1.763v-0.172C21.675,36.838 22.32,35.436 23.61,33.995z" id="path_9"/><path fill="#DD2C00" d="M30.112,32.413h0.18c1.2,0.18 2.55,0.997 4.042,2.46v0.18l-2.115,3.69c-2.813,-0.908 -4.215,-1.673 -4.215,-2.288C28.913,33.763 29.617,32.413 30.112,32.413z" id="path_10"/><path fill="#DD2C00" d="M26.835,19.761h1.74c2.107,0 3.165,0.787 3.165,2.37c-1.365,3.689 -3.023,5.646 -4.973,5.872l-2.303,0.308c-0.367,0 -0.517,-0.105 -0.465,-0.308c1.86,-0.982 3.6,-2.152 5.213,-3.495c-0.57,-0.532 -1.2,-0.795 -1.891,-0.795h-0.487l-1.89,0.157l-0.15,-0.157v-0.308C25.688,20.976 26.37,19.761 26.835,19.761z" id="path_11"/></svg>