<svg id="vector" xmlns="http://www.w3.org/2000/svg" width="94" height="67" viewBox="0 0 101.905 72.96"><path fill="#000001" d="M87.731,46.735c0.6,0 2.002,0.705 4.215,2.115c0,0.877 -0.697,2.281 -2.107,4.215c-2.813,-0.906 -4.215,-1.725 -4.215,-2.459C85.691,49.946 86.396,48.655 87.731,46.735z" id="path_0"/><path fill="#000001" d="M83.508,39.026c4.605,0.045 7.178,-0.818 7.74,-2.596c0,-0.615 -0.585,-2.137 -1.763,-4.567l0.532,-4.567h0.346c1.529,2.633 2.287,5.272 2.287,7.904v1.584c0,1.057 -0.255,2.166 -0.758,3.33c-0.502,1.162 -1.282,2.145 -2.324,2.932c-1.051,0.795 -3.068,1.125 -6.061,0.99V39.026z" id="path_1"/><path fill="#000001" d="M96.364,54.034c0.18,-0.098 0.232,0.059 0.157,0.486c-0.997,2.34 -2.527,3.975 -4.59,4.898l-7.583,3.803c-0.322,-0.09 -0.383,-0.354 -0.18,-0.787c1.013,-1.951 1.703,-3.105 2.07,-3.473L96.364,54.034z" id="path_2"/><path fill="#DD2C00" d="M83.883,44.036c-3.412,0.203 -5.895,-1.373 -7.447,-4.725c-0.75,-1.246 -1.447,-9.639 -2.107,-25.178V13.78c0.435,-2.58 1.08,-3.869 1.927,-3.869l0.885,-0.173c1.08,0 2.723,0.353 4.92,1.05v0.353c-0.119,0.353 -0.473,0.532 -1.057,0.532h-2.986c-0.615,0 -1.2,0.346 -1.763,1.051c0.548,13.492 1.343,21.307 2.4,23.444c1.049,2.138 2.797,3.091 5.227,2.858V44.036z" id="path_3"/><path fill="#000001" d="M72.596,40.894c-0.39,1.988 -1.328,3.57 -2.79,4.748c-1.35,0.967 -3.862,1.904 -7.56,2.813c-7.748,0.494 -12.128,0.082 -13.14,-1.23c-1.08,-1.133 2.715,-2.018 11.385,-2.662c4.538,-0.645 8.055,-1.867 10.545,-3.668c0.03,-0.016 0.06,-0.09 0.09,-0.232c0.03,-0.135 -0.682,-5.641 -2.13,-16.516c0.525,-3.164 0.998,-4.74 1.402,-4.74l2.288,5.273c0,0.816 -0.292,2.047 -0.877,3.689l0.877,9.488C72.731,39.483 72.701,40.495 72.596,40.894z" id="path_4"/><path fill="#008046" d="M38.673,43.638h0.683c2.317,-0.246 4.268,-1.648 5.85,-4.199c0.232,-0.525 0.465,-0.818 0.698,-0.877h0.18l0.525,0.531c-0.075,0.668 -0.188,1.141 -0.353,1.402c1.028,1.875 2.257,2.813 3.69,2.813l0.18,0.174c2.55,-5.625 5.415,-8.438 8.61,-8.438c2.55,0 4.425,1.057 5.625,3.164v1.059c0,6.441 -3.983,9.666 -11.956,9.666l-2.632,-0.172c-0.817,2.221 -1.35,3.338 -1.583,3.338l-0.172,-0.172v-0.182l0.525,-2.984v-0.352c-1.732,-0.969 -3.075,-2.318 -4.042,-4.043c-0.907,2.971 -2.85,4.402 -5.828,4.283V43.638L38.673,43.638zM51.881,43.833h0.353c3.982,0 7.38,-0.584 10.193,-1.754c0,-1.26 -1.17,-2.139 -3.51,-2.641h-0.705C55.398,39.438 53.291,40.909 51.881,43.833z" id="path_5"/><path fill="#008046" d="M54.641,20.786c0.323,0.555 0.698,2.137 1.125,4.747c-0.262,1.583 -0.953,2.37 -2.07,2.37h-0.15c-0.487,0 -1.117,-0.314 -1.913,-0.945c-0.54,0.953 -1.334,1.433 -2.37,1.433c-1.26,0 -1.89,-1.53 -1.89,-4.59c0.368,-1.163 0.683,-1.74 0.945,-1.74l0.15,0.157v2.701c0.217,0.938 0.487,1.402 0.795,1.402h0.637c0.66,0 1.08,-0.264 1.275,-0.788l-0.33,-2.37c0.127,-0.795 0.345,-1.215 0.637,-1.252h0.33c0.33,2.633 0.863,3.952 1.575,3.952h1.103v-0.157l-0.48,-3.158v-0.18C54.139,21.311 54.349,20.786 54.641,20.786z" id="path_6"/><path fill="#008046" d="M57.304,11.118c0.18,-0.105 0.232,0.061 0.157,0.487c-0.998,2.341 -2.527,3.976 -4.59,4.897l-7.583,3.803c-0.322,-0.09 -0.383,-0.352 -0.18,-0.795c1.013,-1.95 1.703,-3.105 2.07,-3.473L57.304,11.118z" id="path_7"/><path fill="#0992d1" d="M24.011,37.796h0.045c2.048,0 3.69,-0.697 4.92,-2.107l-0.172,-1.402c0,-1.732 0.353,-3.136 1.05,-4.223c0.323,0 0.795,2.992 1.41,8.963c0.705,3.225 3.158,4.717 7.357,4.484v5.01c-4.103,0.293 -6.959,-1.582 -8.587,-5.625c-0.263,-2.813 -0.555,-4.215 -0.877,-4.215c-0.69,2.662 -2.408,4.064 -5.145,4.193V37.796z" id="path_8"/><path fill="#0992d1" d="M26.538,50.276h0.705c2.31,1.32 3.488,2.084 3.51,2.287c-1.14,2.459 -1.898,3.75 -2.28,3.869c-1.32,0 -2.61,-0.645 -3.87,-1.934C24.835,53.239 25.481,51.837 26.538,50.276z" id="path_9"/><path fill="#0992d1" d="M30.138,17.036h1.74c2.107,0 3.165,0.787 3.165,2.369c-1.365,3.69 -3.022,5.648 -4.973,5.873l-2.303,0.307c-0.367,0 -0.517,-0.104 -0.464,-0.307c1.86,-0.982 3.6,-2.152 5.212,-3.495c-0.57,-0.532 -1.2,-0.796 -1.89,-0.796h-0.488l-1.89,0.158l-0.15,-0.158v-0.307C28.991,18.251 29.673,17.036 30.138,17.036z" id="path_10"/><path fill="#000001" d="M24.288,42.956c-0.158,0.016 -0.322,0.021 -0.48,0.021h-0.885c-1.373,0 -2.31,-0.111 -2.813,-0.352c-1.02,3.945 -2.212,6.359 -3.577,7.244c-1.365,0.887 -4.447,1.637 -9.248,2.25H6.933c-1.058,-0.119 -1.583,-0.291 -1.583,-0.523c0,-0.354 0.877,-0.766 2.632,-1.23c6.916,-3.166 10.373,-5.453 10.373,-6.855c0,-0.584 -0.817,-1.936 -2.46,-4.043c-0.353,-0.592 -0.525,-1.35 -0.525,-2.287v-1.755c0,-0.885 0.172,-1.351 0.525,-1.41c1.522,2.333 4.103,3.63 7.732,3.907c0.225,0 0.442,0 0.66,-0.014V42.956z" id="path_11"/><path fill="#000001" d="M19.323,53.831c0.18,-0.098 0.232,0.061 0.157,0.488c-0.997,2.34 -2.527,3.975 -4.59,4.896l-7.583,3.803c-0.322,-0.09 -0.382,-0.354 -0.18,-0.787c1.012,-1.951 1.702,-3.105 2.07,-3.473L19.323,53.831z" id="path_12"/></svg>