<svg id="vector" xmlns="http://www.w3.org/2000/svg" width="187" height="67" viewBox="0 0 187.317 67"><path fill="#DD2C00" d="M177.66,30.013h0.647c1.888,0 3.284,1.613 4.2,4.843l0.16,1.612c0.055,0.52 0.055,1.058 0,1.619c-0.481,1.962 -1.564,3.896 -3.232,5.804c-1.156,0.975 -3.788,1.722 -7.905,2.26c-0.48,-0.211 -0.757,-0.427 -0.806,-0.638c6.888,-3.742 10.331,-6 10.331,-6.787l0.157,-0.48l-0.157,-0.158l-1.453,0.48h-0.807c-2.906,0 -4.358,-1.025 -4.358,-3.064v-0.325c0.371,-3.341 1.184,-5.007 2.417,-5.007L177.66,30.013z" id="path_0"/><path fill="#DD2C00" d="M181.937,16.934c0.166,-0.095 0.212,0.056 0.144,0.447c-0.916,2.149 -2.32,3.65 -4.215,4.496l-6.964,3.494c-0.294,-0.083 -0.35,-0.325 -0.165,-0.73c0.931,-1.791 1.563,-2.851 1.9,-3.19L181.937,16.934z" id="path_1"/><path fill="#000001" d="M164.725,12.271c0.325,0 0.647,1.083 0.973,3.232l1.453,3.23l-0.647,3.711l0.481,9.044v1.445c-0.213,3.693 -0.751,5.841 -1.612,6.462l-0.158,-0.16l0.158,-2.425c0,-2.177 -0.703,-9.122 -2.101,-20.821C163.946,13.512 164.429,12.271 164.725,12.271z" id="path_2"/><path fill="#000001" d="M149.381,35.922c0.186,0.015 0.386,0.021 0.606,0.021h1.528c1.62,-0.27 2.851,-0.834 3.713,-1.695l-1.935,-15.337c0.481,-2.907 0.915,-4.352 1.287,-4.352l2.1,4.84c0,0.75 -0.269,1.881 -0.807,3.387l0.807,8.712v2.425c-0.605,2.57 -1.418,4.368 -2.438,5.388c-0.771,0.819 -1.672,1.231 -2.728,1.231h-1.37c-0.27,0 -0.523,-0.007 -0.765,-0.02L149.379,35.922z" id="path_3"/><path fill="#213e95" d="M139.394,22.61c0.668,0 1.854,0.806 3.546,2.418c0,0.537 -0.64,1.721 -1.935,3.554h-0.325c-0.673,0 -1.693,-0.647 -3.063,-1.942L137.617,26.481C137.617,25.834 138.209,24.546 139.394,22.61z" id="path_4"/><path fill="#213e95" d="M145.2,21.796c2.692,1.159 4.037,2.074 4.037,2.749c-0.159,0.511 -0.91,1.638 -2.259,3.388c-1.805,-0.705 -3.094,-1.51 -3.871,-2.427C143.673,23.71 144.366,22.473 145.2,21.796z" id="path_5"/><path fill="#213e95" d="M136.543,35.946c1.149,0.015 1.859,-0.009 2.142,-0.063c2.425,-0.737 4.077,-2.309 4.967,-4.697c0.131,-0.461 0.399,-0.518 0.805,-0.167c0.213,0.187 0.379,0.943 0.481,2.26c1.469,1.979 3.299,2.866 5.489,2.667h0.429v4.601h-0.104c-3.429,-0.158 -5.956,-1.722 -7.591,-4.685h-0.158c-1.142,2.41 -2.651,3.89 -4.518,4.444c-0.564,0.158 -1.212,0.24 -1.942,0.24L136.543,35.946L136.543,35.946z" id="path_6"/><path fill="#213e95" d="M146.207,9.633c0.296,0.511 0.64,1.965 1.033,4.359c-0.242,1.454 -0.875,2.176 -1.9,2.176h-0.139c-0.446,0 -1.025,-0.287 -1.756,-0.866c-0.495,0.874 -1.225,1.316 -2.176,1.316c-1.158,0 -1.735,-1.406 -1.735,-4.216c0.337,-1.067 0.627,-1.597 0.866,-1.597l0.137,0.145v2.479c0.202,0.861 0.446,1.286 0.73,1.286h0.587c0.606,0 0.992,-0.241 1.169,-0.724l-0.304,-2.175c0.119,-0.732 0.318,-1.118 0.588,-1.151h0.303c0.303,2.419 0.79,3.629 1.445,3.629h1.014v-0.143l-0.441,-2.9v-0.167C145.744,10.117 145.937,9.633 146.207,9.633z" id="path_7"/><path fill="#213e95" d="M149.558,44.457c0.167,-0.092 0.214,0.056 0.146,0.446c-0.916,2.148 -2.321,3.651 -4.215,4.497l-6.965,3.491c-0.296,-0.082 -0.35,-0.322 -0.165,-0.723c0.932,-1.79 1.563,-2.85 1.9,-3.188L149.558,44.457z" id="path_8"/><path fill="#000001" d="M123.334,43.472h0.647c2.121,1.205 3.193,1.908 3.223,2.093c-1.049,2.26 -1.751,3.443 -2.093,3.553c-1.213,0 -2.396,-0.593 -3.554,-1.777C121.769,46.185 122.361,44.9 123.334,43.472z" id="path_9"/><path fill="#000001" d="M128.981,42.66c1.024,0 2.258,0.701 3.711,2.098c0,0.565 -0.696,1.697 -2.101,3.389c-0.805,0 -1.99,-0.536 -3.547,-1.611C127.044,45.591 127.691,44.306 128.981,42.66z" id="path_10"/><path fill="#000001" d="M122.968,30.573h0.041c1.882,0 3.388,-0.643 4.518,-1.938l-0.157,-1.288c0,-1.588 0.323,-2.878 0.965,-3.877c0.294,0 0.729,2.749 1.295,8.23c0.646,2.965 2.898,4.335 6.755,4.12v4.602c-3.768,0.27 -6.391,-1.452 -7.887,-5.165c-0.241,-2.583 -0.51,-3.873 -0.806,-3.873c-0.633,2.445 -2.211,3.731 -4.726,3.849v-4.661L122.968,30.572z" id="path_11"/><path fill="#000001" d="M128.596,11.506h1.597c1.934,0 2.907,0.724 2.907,2.176c-1.254,3.388 -2.776,5.186 -4.566,5.393l-2.115,0.284c-0.338,0 -0.478,-0.097 -0.429,-0.284c1.709,-0.9 3.307,-1.976 4.788,-3.21c-0.522,-0.487 -1.103,-0.73 -1.737,-0.73h-0.447l-1.735,0.146l-0.137,-0.146v-0.281C127.541,12.624 128.167,11.506 128.596,11.506z" id="path_12"/><path fill="#DD2C00" d="M109.144,31c1.59,0.509 2.824,1.157 3.713,1.933v0.325c0,0.538 -0.594,1.722 -1.778,3.555c-1.101,0 -2.334,-0.594 -3.712,-1.779v-0.324C107.368,33.553 107.96,32.319 109.144,31z" id="path_13"/><path fill="#DD2C00" d="M123.375,35.234c-1.468,0 -2.604,-0.226 -3.418,-0.682c-0.399,3.501 -1.149,5.915 -2.259,7.266c-2.659,3.334 -5.407,4.999 -8.23,4.999c-5.192,0 -8.582,-2.258 -10.173,-6.776c-0.316,-0.86 -0.481,-1.777 -0.481,-2.749v-1.286c0,-3.822 1.185,-6.832 3.555,-9.045c0.428,0.168 0.647,0.538 0.647,1.13l-2.584,4.683L100.266,34.385c0,3.638 1.99,6.167 5.971,7.593l4.201,0.324c1.771,0 3.981,-1.025 6.619,-3.065c0.964,-1.562 1.453,-2.693 1.453,-3.395c-0.11,-1.074 -0.813,-2.631 -2.101,-4.678v-3.396l0.48,-0.48c1.171,2.353 3.336,3.492 6.482,3.41v4.537L123.375,35.234L123.375,35.234z" id="path_14"/><path fill="#DD2C00" d="M114.93,48.933c0.166,-0.092 0.214,0.056 0.145,0.446c-0.917,2.149 -2.32,3.652 -4.215,4.497l-6.964,3.492c-0.296,-0.083 -0.352,-0.325 -0.166,-0.724c0.932,-1.791 1.563,-2.85 1.9,-3.188L114.93,48.933z" id="path_15"/><path fill="#213e95" d="M88.259,33.499h0.545c1.584,0 2.756,1.438 3.525,4.321l0.133,1.438c0.047,0.467 0.047,0.946 0,1.443c-0.403,1.752 -1.313,3.479 -2.71,5.183c-0.971,0.866 -3.178,1.538 -6.634,2.016c-0.405,-0.189 -0.636,-0.38 -0.676,-0.572c5.779,-3.337 8.668,-5.352 8.668,-6.054l0.133,-0.431l-0.133,-0.142l-1.219,0.432h-0.676c-2.437,0 -3.657,-0.915 -3.657,-2.736v-0.287c0.312,-2.98 0.995,-4.468 2.029,-4.468L88.259,33.499z" id="path_16"/><path fill="#213e95" d="M91.849,21.826c0.139,-0.086 0.179,0.049 0.121,0.401c-0.769,1.917 -1.946,3.257 -3.537,4.014l-5.842,3.115c-0.249,-0.074 -0.294,-0.289 -0.137,-0.651c0.779,-1.598 1.312,-2.545 1.593,-2.847L91.849,21.826z" id="path_17"/><path fill="#000001" d="M79.257,17.664c0.272,0 0.543,0.966 0.814,2.883l1.22,2.883l-0.543,3.313l0.404,8.07v1.291c-0.178,3.295 -0.631,5.213 -1.353,5.764l-0.134,-0.141l0.134,-2.162c0,-1.942 -0.59,-8.138 -1.763,-18.58C78.604,18.77 79.009,17.664 79.257,17.664z" id="path_18"/><path fill="#213e95" d="M69.156,36.849c0.156,0.012 0.325,0.019 0.508,0.019h1.282c1.358,-0.241 2.392,-0.745 3.115,-1.511l-1.624,-13.689c0.403,-2.593 0.769,-3.885 1.081,-3.885l1.762,4.321c0,0.67 -0.225,1.678 -0.675,3.024l0.675,7.775v2.164c-0.509,2.292 -1.19,3.896 -2.046,4.807c-0.647,0.73 -1.404,1.1 -2.289,1.1L69.796,40.974c-0.225,0 -0.44,-0.005 -0.641,-0.018L69.155,36.849z" id="path_19"/><path fill="#DD2C00" d="M61.788,25.81c1.895,1.009 2.843,1.869 2.843,2.594c-0.901,1.893 -1.444,2.852 -1.625,2.877h-0.271c-1.393,-0.745 -2.247,-1.416 -2.578,-2.015C60.475,28.169 61.018,27.02 61.788,25.81z" id="path_20"/><path fill="#DD2C00" d="M70.219,40.985c-0.126,0.014 -0.249,0.019 -0.375,0.019h-0.676c-1.062,0 -1.783,-0.092 -2.166,-0.287c-0.792,3.232 -1.709,5.213 -2.762,5.939c-1.047,0.724 -3.422,1.339 -7.126,1.844h-0.272c-0.809,-0.099 -1.219,-0.241 -1.219,-0.432c0,-0.288 0.676,-0.628 2.036,-1.008c5.328,-2.594 7.99,-4.47 7.99,-5.618c0,-0.479 -0.635,-1.588 -1.895,-3.313c-0.272,-0.483 -0.41,-1.104 -0.41,-1.874v-1.439c0,-0.725 0.138,-1.107 0.41,-1.157c1.173,1.913 3.155,2.976 5.957,3.203c0.168,0 0.334,0 0.509,-0.012L70.219,40.985L70.219,40.985z" id="path_21"/><path fill="#DD2C00" d="M64.255,17.896c0.249,0.456 0.538,1.752 0.867,3.891c-0.204,1.298 -0.736,1.942 -1.595,1.942h-0.115c-0.375,0 -0.862,-0.258 -1.474,-0.774c-0.415,0.78 -1.026,1.172 -1.825,1.172c-0.972,0 -1.456,-1.253 -1.456,-3.761c0.284,-0.952 0.525,-1.426 0.728,-1.426l0.116,0.129v2.213c0.168,0.768 0.375,1.149 0.612,1.149h0.492c0.508,0 0.831,-0.215 0.98,-0.646l-0.252,-1.941c0.097,-0.652 0.266,-0.996 0.49,-1.026h0.254c0.254,2.157 0.665,3.237 1.213,3.237h0.851v-0.128l-0.371,-2.587v-0.148C63.868,18.329 64.03,17.896 64.255,17.896z" id="path_22"/><path fill="#DD2C00" d="M66.302,9.975c0.137,-0.086 0.177,0.05 0.121,0.401c-0.769,1.917 -1.948,3.257 -3.539,4.014l-5.84,3.116c-0.249,-0.074 -0.295,-0.288 -0.139,-0.651c0.78,-1.598 1.311,-2.544 1.595,-2.846L66.302,9.975z" id="path_23"/><path fill="#000001" d="M46.37,44.353h0.272c0.924,0.216 1.918,0.793 2.982,1.733v0.142c-0.613,1.968 -1.151,3.023 -1.625,3.171c-1.381,-0.288 -2.415,-0.768 -3.115,-1.444v-0.141C44.886,46.683 45.382,45.534 46.37,44.353z" id="path_24"/><path fill="#000001" d="M51.386,43.056h0.134c0.924,0.147 1.965,0.819 3.116,2.017v0.146l-1.625,3.024c-2.166,-0.743 -3.253,-1.37 -3.253,-1.874C50.454,44.164 50.999,43.056 51.386,43.056z" id="path_25"/><path fill="#000001" d="M45.168,37.764c3.547,0.037 5.529,-0.67 5.964,-2.125c0,-0.505 -0.451,-1.753 -1.358,-3.746l0.41,-3.743h0.265c1.179,2.159 1.763,4.322 1.763,6.482v1.297c0,0.865 -0.197,1.776 -0.584,2.728c-0.388,0.952 -0.988,1.758 -1.792,2.403c-0.809,0.651 -2.363,0.922 -4.668,0.811L45.168,37.764L45.168,37.764z" id="path_26"/><path fill="#000001" d="M51.022,17.923h1.341c1.625,0 2.439,0.646 2.439,1.942c-1.053,3.024 -2.33,4.628 -3.833,4.813l-1.775,0.252c-0.284,0 -0.399,-0.086 -0.359,-0.252c1.436,-0.806 2.774,-1.763 4.017,-2.865c-0.44,-0.437 -0.925,-0.651 -1.456,-0.651h-0.376l-1.456,0.129l-0.116,-0.129L49.448,20.911C50.138,18.919 50.664,17.923 51.022,17.923z" id="path_27"/><path fill="#DD2C00" d="M36.98,25.864c0.56,0 1.554,0.718 2.977,2.157c0,0.481 -0.539,1.537 -1.625,3.173h-0.273c-0.565,0 -1.421,-0.577 -2.572,-1.734v-0.14C35.489,28.739 35.986,27.592 36.98,25.864z" id="path_28"/><path fill="#DD2C00" d="M41.852,25.139c2.26,1.033 3.387,1.851 3.387,2.453c-0.133,0.454 -0.762,1.462 -1.895,3.024c-1.515,-0.629 -2.594,-1.347 -3.248,-2.165C40.569,26.846 41.152,25.74 41.852,25.139z" id="path_29"/><path fill="#DD2C00" d="M34.588,37.764c0.965,0.012 1.559,-0.006 1.797,-0.057c2.034,-0.657 3.421,-2.06 4.167,-4.192c0.109,-0.411 0.334,-0.461 0.675,-0.147c0.179,0.165 0.319,0.842 0.404,2.017c1.231,1.765 2.769,2.557 4.606,2.379h0.358v4.105h-0.086c-2.877,-0.142 -4.997,-1.536 -6.368,-4.18L40.006,37.689c-0.959,2.152 -2.225,3.472 -3.791,3.963c-0.475,0.141 -1.017,0.215 -1.629,0.215L34.588,37.764L34.588,37.764z" id="path_30"/><path fill="#DD2C00" d="M41.313,12.048c1.388,0 2.082,0.908 2.082,2.723c0,2.888 -2.316,5.354 -6.958,7.382c-0.665,0.214 -0.746,-0.043 -0.237,-0.776c0.128,-0.276 1.22,-1.142 3.282,-2.593v-0.125c-0.891,-0.387 -1.334,-1.209 -1.334,-2.469c0.589,-2.76 1.525,-4.143 2.808,-4.143L41.313,12.047L41.313,12.048zM39.245,15.163c0,0.769 0.612,1.244 1.832,1.426h0.237c0.451,0 0.741,-0.177 0.862,-0.521c0,-0.781 -0.532,-1.39 -1.589,-1.819C40.122,14.249 39.679,14.555 39.245,15.163z" id="path_31"/><path fill="#213e95" d="M34.93,41.87l-1.526,-0.02c-0.843,3.954 -3.08,5.949 -6.703,6c-1.941,0.092 -2.914,0.057 -2.914,-0.111c0.18,-0.363 1.48,-1.056 3.895,-2.089c2.485,-1.679 3.981,-2.76 4.501,-3.238l0.137,-0.432l-2.368,-0.4c-1.729,-0.479 -2.698,-1.4 -2.913,-2.772v-0.287c0,-2.329 0.537,-3.816 1.625,-4.469l0.815,-0.141c1.601,0 2.907,1.187 3.923,3.566c0.647,0.24 1.156,0.356 1.526,0.344L34.93,41.87L34.93,41.87z" id="path_32"/><path fill="#213e95" d="M28.646,22.061h1.341c1.625,0 2.438,0.645 2.438,1.942c-1.051,3.023 -2.329,4.628 -3.831,4.813l-1.774,0.25c-0.285,0 -0.4,-0.086 -0.36,-0.25c1.435,-0.806 2.774,-1.765 4.017,-2.865c-0.439,-0.436 -0.924,-0.652 -1.456,-0.652h-0.376l-1.456,0.129l-0.116,-0.129v-0.251C27.762,23.055 28.288,22.061 28.646,22.061z" id="path_33"/><path fill="#000001" d="M13.005,33.228h0.271c1.266,0.307 2.392,1.034 3.387,2.159v0.288c-0.087,0.768 -0.631,1.776 -1.625,3.023c-2.347,-0.835 -3.519,-1.56 -3.519,-2.158C12.079,34.813 12.576,33.707 13.005,33.228z" id="path_34"/><path fill="#000001" d="M20.186,30.345h0.267c0.319,0 1.087,2.162 2.307,6.486l0.133,0.572c0,3.386 -0.769,5.838 -2.301,7.352c-2.166,2.494 -4.738,3.743 -7.72,3.743c-2.438,-0.579 -4.016,-1.15 -4.738,-1.728c-2.353,-2.14 -3.525,-4.781 -3.525,-7.926c0,-2.642 1.087,-5.138 3.253,-7.492l0.134,-0.142h0.272l0.271,0.284c0,0.246 -0.632,1.297 -1.895,3.172c-0.364,0.671 -0.589,1.585 -0.675,2.735c0,2.238 1.081,4.155 3.248,5.764c2.12,0.868 3.564,1.299 4.333,1.299c1.942,0 4.242,-0.916 6.907,-2.737c1.087,-1.013 1.629,-1.632 1.629,-1.874l-1.896,-5.615l-0.137,-1.01L20.186,30.345z" id="path_35"/><path fill="#000001" d="M18.505,49.522c0.139,-0.08 0.179,0.05 0.122,0.401c-0.77,1.918 -1.947,3.258 -3.537,4.012l-5.842,3.118c-0.249,-0.073 -0.293,-0.288 -0.138,-0.646c0.78,-1.597 1.312,-2.544 1.594,-2.847L18.505,49.522z" id="path_36"/></svg>