<svg id="vector" xmlns="http://www.w3.org/2000/svg" width="75" height="67" viewBox="0 0 83 73"><path fill="#E64A19" d="M34.226,45.68h0.602c2.042,-0.22 3.761,-1.455 5.156,-3.703c0.205,-0.462 0.41,-0.721 0.615,-0.772h0.158l0.463,0.469c-0.066,0.588 -0.165,1.005 -0.31,1.235c0.905,1.654 1.989,2.48 3.252,2.48l0.158,0.151c2.248,-4.957 4.773,-7.438 7.589,-7.438c2.248,0 3.9,0.933 4.958,2.79v0.932c0,5.679 -3.51,8.521 -10.537,8.521l-2.32,-0.153c-0.721,1.957 -1.19,2.942 -1.395,2.942l-0.152,-0.151v-0.159l0.463,-2.632v-0.31c-1.527,-0.853 -2.71,-2.042 -3.563,-3.563c-0.799,2.617 -2.512,3.879 -5.136,3.773V45.68L34.226,45.68zM45.866,45.852h0.311c3.51,0 6.504,-0.517 8.983,-1.548c0,-1.11 -1.032,-1.884 -3.094,-2.327h-0.621C48.966,41.977 47.109,43.272 45.866,45.852z" id="path_0"/><path fill="#E64A19" d="M52.238,25.98c0.159,-0.094 0.205,0.052 0.139,0.429c-0.879,2.063 -2.228,3.504 -4.046,4.316l-6.684,3.352c-0.284,-0.078 -0.337,-0.311 -0.158,-0.699c0.892,-1.721 1.5,-2.737 1.824,-3.062L52.238,25.98z" id="path_1"/><path fill="#E64A19" d="M34.556,50.094c-3.008,0.179 -5.195,-1.209 -6.563,-4.164c-0.662,-1.098 -1.277,-8.494 -1.858,-22.19v-0.311c0.383,-2.274 0.952,-3.411 1.699,-3.411l0.78,-0.152c0.952,0 2.399,0.311 4.336,0.926v0.311c-0.106,0.311 -0.417,0.469 -0.932,0.469h-2.632c-0.542,0 -1.057,0.305 -1.553,0.926c0.482,11.892 1.183,18.78 2.115,20.663c0.925,1.885 2.466,2.724 4.607,2.521V50.094z" id="path_2"/></svg>