<svg id="vector" xmlns="http://www.w3.org/2000/svg" width="75" height="67" viewBox="0 0 83 73"><path fill="#00BFA5" d="M35.563,27.02h1.547c1.873,0 2.814,0.7 2.814,2.106c-1.215,3.28 -2.688,5.021 -4.42,5.221l-2.047,0.272c-0.328,0 -0.461,-0.093 -0.414,-0.272c1.654,-0.874 3.201,-1.914 4.633,-3.107c-0.506,-0.473 -1.066,-0.706 -1.68,-0.706h-0.434l-1.68,0.14l-0.133,-0.14V30.26C34.543,28.1 35.15,27.02 35.563,27.02L35.563,27.02z" id="path_0"/><path fill="#00BFA5" d="M42.811,48.506l-1.762,-0.02c-0.973,4.287 -3.553,6.453 -7.732,6.507c-2.24,0.1 -3.359,0.06 -3.359,-0.12c0.205,-0.394 1.705,-1.146 4.492,-2.267c2.867,-1.82 4.594,-2.993 5.193,-3.514l0.16,-0.467l-2.732,-0.433c-1.994,-0.521 -3.113,-1.521 -3.361,-3.007v-0.313c0,-2.526 0.621,-4.141 1.875,-4.847l0.939,-0.153c1.846,0 3.354,1.287 4.525,3.866c0.748,0.26 1.334,0.387 1.762,0.373V48.506L42.811,48.506z" id="path_1"/><path fill="#000001" d="M52.023,17.98c0.16,-0.093 0.207,0.054 0.139,0.434c-0.887,2.08 -2.246,3.533 -4.08,4.354l-6.738,3.38c-0.287,-0.08 -0.34,-0.313 -0.16,-0.707c0.898,-1.733 1.514,-2.76 1.84,-3.087L52.023,17.98L52.023,17.98z" id="path_2"/><path fill="#000001" d="M42.123,44.053v4.453c2.66,0.12 4.453,-0.173 5.387,-0.88c0.926,-0.7 1.619,-1.573 2.066,-2.606S50.25,43 50.25,42.06v-1.406c0,-2.341 -0.674,-4.688 -2.033,-7.027H47.91l-0.475,4.061c1.047,2.159 1.568,3.513 1.568,4.06C48.504,43.327 46.217,44.093 42.123,44.053L42.123,44.053z" id="path_3"/><path fill="#000001" d="M49.297,26.38h0.152c1.066,0.153 2.268,0.88 3.594,2.187v0.153L51.17,32c-2.5,-0.807 -3.754,-1.479 -3.754,-2.026C48.223,27.574 48.85,26.38 49.297,26.38L49.297,26.38z" id="path_4"/><path fill="#000001" d="M43.51,27.787h0.313c1.068,0.233 2.215,0.854 3.441,1.873v0.153c-0.707,2.141 -1.328,3.28 -1.875,3.44c-1.592,-0.313 -2.785,-0.833 -3.592,-1.561v-0.159C41.797,30.306 42.369,29.06 43.51,27.787z" id="path_5"/><path fill="#0091EA" d="M1.877,13.417a21.179,11.116 0,1 0,42.358 0a21.179,11.116 0,1 0,-42.358 0z" id="path_6"/><path fill="#FFAB00" d="M22.579,18.729c-0.289,0.405 -0.548,0.724 -0.722,0.955c-0.176,-0.116 -0.319,-0.231 -0.492,-0.347c-0.319,-0.232 -0.521,-0.406 -0.608,-0.492h-0.028c-0.349,0.462 -0.608,0.81 -0.812,1.071v0.058c0.405,0.405 0.724,0.666 1.014,0.782c0.058,0.028 0.087,0.028 0.115,0.028c0.03,0 0.03,0 0.03,0l0.693,-0.926c0.405,0.405 0.725,0.667 0.983,0.782c0.06,0.028 0.118,0.028 0.146,0.028h0.03l0.779,-1.041c0,-0.03 0,-0.058 0,-0.058c-0.433,-0.261 -0.81,-0.521 -1.099,-0.839H22.579z" id="path_7"/><path fill="#FFAB00" d="M15.98,17.6l0.03,-0.03l0.781,-1.041c0,-0.03 0,-0.03 0,-0.058c-0.435,-0.231 -0.812,-0.521 -1.101,-0.839h-0.028c-0.347,0.462 -0.638,0.81 -0.812,1.1v0.029c0.407,0.405 0.724,0.666 1.014,0.81C15.923,17.57 15.952,17.6 15.98,17.6z" id="path_8"/><path fill="#FFAB00" d="M30.597,5.53h-0.058c-0.116,0.144 -0.202,0.318 -0.202,0.521c0,0.145 0.059,0.347 0.144,0.608c0.088,0.289 0.146,0.491 0.146,0.607l-0.087,0.117c-0.202,0.058 -0.405,0 -0.579,-0.174c-0.115,-0.145 -0.201,-0.347 -0.201,-0.637c0,-0.058 0,-0.173 0,-0.318c0.028,-0.145 0.028,-0.26 0.028,-0.318c0,-0.173 -0.028,-0.347 -0.086,-0.462h-0.088c-0.146,0.144 -0.231,0.289 -0.231,0.462c-0.029,0.116 -0.029,0.26 0.028,0.435c0.029,0.231 0.029,0.375 0.029,0.433c0.028,0.203 -0.029,0.348 -0.173,0.493c-0.174,0.115 -0.405,0.115 -0.666,0.087c-0.174,-0.146 -0.289,-0.348 -0.289,-0.608c0,-0.088 0.027,-0.261 0.058,-0.463c0.058,-0.204 0.058,-0.348 0.058,-0.464c0,0 -0.03,-0.058 -0.058,-0.174c0,-0.058 -0.03,-0.058 -0.088,-0.058L28.05,6.138c0,0.145 0,0.318 -0.058,0.549c0,0.203 0,0.406 0,0.579c0,0.376 0.146,0.637 0.377,0.782c0.146,0.058 0.261,0.058 0.377,0.058c0.375,0 0.636,-0.174 0.779,-0.492c0.088,0.259 0.262,0.434 0.58,0.521c0.317,0 0.521,-0.087 0.694,-0.289c0.174,-0.319 0.231,-0.58 0.203,-0.811c0,-0.174 -0.058,-0.434 -0.173,-0.723C30.714,5.935 30.626,5.674 30.597,5.53z" id="path_9"/><path fill="#FFAB00" d="M34.101,11.608c0.086,-0.26 0.115,-0.463 0.115,-0.58c0,-0.085 0,-0.144 0,-0.231c-0.173,-0.203 -0.318,-0.492 -0.435,-0.868c-0.174,-0.58 -0.261,-0.869 -0.289,-0.897c-0.03,-0.058 -0.058,-0.146 -0.088,-0.319c0,-0.144 -0.027,-0.201 -0.086,-0.201c-0.029,0 -0.058,0 -0.115,0.058l-0.262,0.956c-0.085,0.405 -0.115,0.723 -0.115,1.012c0,0.174 0.03,0.348 0.088,0.521c0.144,0.491 0.231,1.099 0.316,1.853c0.174,1.504 0.29,3.329 0.405,5.44c0,0.203 0,0.289 0.088,0.289c0.058,0 0.146,-0.086 0.261,-0.289c0.086,-0.289 0.144,-0.607 0.174,-0.983l-0.261,-5.065l0.029,-0.173C33.955,12.042 34.013,11.868 34.101,11.608z" id="path_10"/><path fill="#FFAB00" d="M30.685,13.2c-0.059,-0.463 -0.028,-0.839 0.058,-1.129c0.115,-0.377 0.203,-0.579 0.203,-0.666c0.028,-0.405 -0.173,-1.042 -0.55,-1.91c-0.088,-0.347 -0.174,-0.608 -0.204,-0.782c-0.027,-0.173 -0.115,-0.289 -0.201,-0.347c-0.115,0.261 -0.174,0.578 -0.174,1.013c0,0.578 0,0.926 -0.029,1.042c0.146,1.361 0.231,2.257 0.289,2.749c0.058,0.493 0.115,1.043 0.203,1.621c0.086,0.579 0.144,1.013 0.144,1.302c0,0.174 0,0.319 -0.027,0.493c-0.277,0.304 -0.934,0.446 -1.899,0.484c-1.166,-0.06 -1.811,-0.805 -2.008,-2.221c-0.058,-0.608 -0.115,-1.302 -0.146,-2.113l-0.088,-2.663c-0.028,-0.579 -0.058,-1.042 -0.086,-1.447c0,0 0,-0.058 0,-0.146c0,-0.087 -0.058,-0.116 -0.115,-0.116c-0.088,0.173 -0.174,0.377 -0.231,0.637c-0.088,0.289 -0.146,0.492 -0.146,0.607c-0.086,0.464 -0.028,1.679 0.088,3.618c0.058,0.377 0.086,0.666 0.086,0.87c0,0 0.029,0.289 0.058,0.897c0.058,0.636 0,1.157 -0.174,1.534c-0.165,0.358 -0.546,0.526 -1.106,0.542c-0.419,-0.033 -0.813,-0.145 -1.179,-0.369c-0.405,-0.231 -0.666,-0.636 -0.812,-1.244c-0.174,-0.608 -0.26,-1.101 -0.26,-1.448c-0.029,-0.318 -0.029,-0.607 -0.058,-0.925c0,-0.406 -0.088,-0.695 -0.203,-0.87c-0.231,0.493 -0.317,1.159 -0.26,1.969c-0.176,0.406 -0.522,0.666 -1.043,0.724c-0.231,0.03 -0.435,0.03 -0.608,0.03c-0.752,0 -1.244,-0.262 -1.503,-0.754c-0.059,0.146 -0.088,0.319 -0.088,0.463c-0.028,0.145 -0.028,0.492 0,1.042c0.347,0.666 0.578,1.187 0.724,1.534c0.028,0.058 0.028,0.146 0.028,0.231c0,0.29 -0.26,0.695 -0.78,1.216c-0.928,0.724 -1.969,1.071 -3.127,1.071c-0.201,0 -0.435,-0.03 -0.636,-0.058c-1.159,-0.377 -1.854,-0.897 -2.084,-1.535c-0.204,-0.347 -0.29,-0.753 -0.29,-1.187c0.059,-0.521 0.202,-0.984 0.463,-1.36c0.028,-0.087 0.116,-0.232 0.231,-0.434c0.146,-0.173 0.203,-0.319 0.146,-0.406c-0.058,0 -0.088,0.029 -0.115,0.058c-0.696,0.434 -1.102,1.361 -1.274,2.779c-0.03,0.983 0.231,1.823 0.81,2.518c0.666,0.811 1.594,1.245 2.75,1.245c0.347,0 0.694,-0.058 1.101,-0.145c1.187,-0.377 2.026,-1.071 2.575,-2.113c0.231,-0.29 0.377,-0.695 0.492,-1.158c0.088,-0.26 0.088,-0.694 0.058,-1.332l0.059,-0.058c0.261,-0.029 0.578,-0.059 0.984,-0.117c0.375,-0.058 0.664,-0.231 0.868,-0.492c0.231,-0.289 0.347,-0.549 0.377,-0.838c-0.03,-0.03 -0.03,-0.03 0.027,-0.03c0.088,0.985 0.146,1.592 0.204,1.824c0.23,0.665 0.636,1.158 1.156,1.447c0.293,0.188 0.696,0.287 1.187,0.28v0.009c0.012,-0.001 0.018,-0.006 0.03,-0.007c0.031,-0.001 0.054,0.009 0.085,0.007v-0.027c0.936,-0.123 1.482,-0.684 1.592,-1.709c0.327,1.086 1.025,1.619 2.114,1.706v0.03c0.052,0 0.098,-0.007 0.147,-0.008c0.02,0.001 0.036,0.007 0.056,0.008V18.63c0.597,-0.027 1.081,-0.16 1.418,-0.394c0.375,-0.26 0.606,-0.607 0.752,-1.013c0.146,-0.347 0.231,-0.694 0.231,-1.099c0.029,-0.377 0,-0.84 -0.086,-1.39C30.8,14.184 30.742,13.692 30.685,13.2z" id="path_11"/></svg>