<svg id="vector" xmlns="http://www.w3.org/2000/svg" width="75" height="67" viewBox="0 0 83 73"><path fill="#E64A19" d="M46.96,44.046c0.014,-0.014 0.027,-0.027 0.04,-0.039l-5.117,-1.243c0,-2.993 0.47,-4.488 1.396,-4.488c0.621,0 1.349,-0.621 2.175,-1.863v-0.615c0,-0.535 -0.879,-1.566 -2.638,-3.102l-2.941,-2.788l-0.159,-0.158c-0.099,-1.342 -0.032,-2.671 0.219,-3.987c0.244,-1.314 0.998,-2.36 2.261,-3.14c7.297,-4.541 11.323,-6.814 12.083,-6.814l0.159,0.159v0.151c-1.177,1.817 -2.208,3.887 -3.1,6.194c-0.384,0.521 -0.543,0.521 -0.463,0l0.311,-2.011c-4.376,2.492 -7.636,4.555 -9.764,6.194c0.013,0.218 0.945,1.202 2.79,2.948c0.786,0.747 1.408,1.527 1.851,2.34c0.442,0.814 0.707,1.891 0.779,3.232c-0.204,1.581 -0.562,2.816 -1.084,3.722c0.906,0.112 1.679,0.351 2.327,0.707c0.647,0.358 1.004,1.203 1.084,2.545v0.463c0,0.271 -0.132,0.8 -0.403,1.593H46.96z" id="path_0"/><path fill="#E64A19" d="M53.563,49.098c0.159,-0.087 0.205,0.052 0.14,0.429c-0.879,2.063 -2.228,3.504 -4.046,4.317l-6.683,3.352c-0.284,-0.079 -0.337,-0.312 -0.159,-0.695c0.893,-1.719 1.501,-2.735 1.824,-3.061L53.563,49.098z" id="path_1"/><path fill="#651FFF" d="M48.765,44.046c-0.621,2.155 -2.796,4.337 -5.949,6.929c-1.897,1.349 -4.118,2.016 -6.656,2.016c-1.422,-0.324 -2.439,-0.648 -3.054,-0.966c-0.615,-0.323 -1.349,-1.036 -2.215,-2.134c-1.554,-2.062 -2.327,-3.972 -2.327,-5.731c0,-4.186 1.342,-7.535 4.032,-10.068c0.477,-0.336 0.682,-0.284 0.615,0.152c0,0.378 -0.773,1.824 -2.32,4.337c-0.622,1.257 -0.933,2.445 -0.933,3.563c0,1.606 1.138,3.357 3.412,5.268c1.613,0.894 3.364,1.257 5.269,1.085c2.24,0 5.069,-1.349 8.401,-4.449H48.765z" id="path_2"/><path fill="#651FFF" d="M31.071,22.392h1.534c1.858,0 2.79,0.693 2.79,2.089c-1.204,3.251 -2.665,4.978 -4.384,5.176l-2.029,0.271c-0.323,0 -0.456,-0.094 -0.41,-0.271c1.641,-0.867 3.174,-1.897 4.595,-3.082c-0.502,-0.468 -1.058,-0.7 -1.666,-0.7h-0.43l-1.666,0.139l-0.132,-0.139v-0.271C30.061,23.462 30.662,22.392 31.071,22.392z" id="path_3"/></svg>