<svg id="vector" xmlns="http://www.w3.org/2000/svg" width="75" height="67" viewBox="0 0 83 73"><path fill="#388E3C" d="M50.253,32.59l2.949,2.009l0.151,0.622v0.151c-1.175,2.161 -1.843,3.246 -2.009,3.259c-1.653,-0.713 -2.79,-1.381 -3.411,-2.016v-0.932c0.409,-0.597 0.668,-1.157 0.773,-1.707C48.965,33.053 49.481,32.59 50.253,32.59z" id="path_0"/><path fill="#388E3C" d="M44.622,40.589V40.53l-0.159,-0.16l-0.613,-0.151c-3.518,-0.596 -5.27,-1.216 -5.27,-1.858v-2.174c0,-1.494 0.668,-3.199 2.016,-5.109c0.939,-0.854 3.319,-2.043 7.127,-3.563v-0.311l-5.117,-0.774c-1.11,0.258 -2.035,0.879 -2.789,1.858c-0.543,1.243 -0.899,1.858 -1.083,1.858c-0.557,0.198 -0.709,-0.218 -0.464,-1.237c0.284,-1.189 0.8,-2.327 1.547,-3.41c1.215,-1.342 2.194,-2.01 2.949,-2.01h0.925c2.703,0.41 5.592,0.772 8.678,1.083l2.321,-0.159l0.159,0.159v0.311c-0.76,2.373 -1.746,3.563 -2.949,3.563c-3.092,0.787 -6.71,2.44 -10.842,4.958c-0.388,0.332 -0.54,0.847 -0.462,1.548c1.725,0.15 3.121,0.31 4.179,0.461c0.812,0.172 1.309,0.609 1.486,1.322c0.172,0.708 0.139,1.872 -0.092,3.484c-0.027,0.112 -0.053,0.238 -0.092,0.37H44.622z" id="path_1"/><path fill="#388E3C" d="M56.646,40.18c0.159,-0.087 0.205,0.051 0.139,0.43c-0.88,2.062 -2.229,3.503 -4.045,4.315l-6.683,3.353c-0.285,-0.079 -0.338,-0.311 -0.159,-0.695c0.892,-1.718 1.501,-2.736 1.824,-3.06L56.646,40.18z" id="path_2"/><path fill="#000001" d="M46.097,40.37c-0.622,2.155 -2.506,4.535 -5.66,7.126c-1.896,1.35 -4.117,2.016 -6.656,2.016c-1.422,-0.322 -2.438,-0.647 -3.054,-0.965c-0.613,-0.323 -1.348,-1.037 -2.213,-2.133c-1.555,-2.064 -2.328,-3.974 -2.328,-5.732c0,-4.185 1.343,-7.536 4.033,-10.067c0.475,-0.338 0.681,-0.285 0.614,0.152c0,0.377 -0.773,1.824 -2.319,4.335c-0.623,1.257 -0.934,2.446 -0.934,3.563c0,1.605 1.137,3.357 3.411,5.269c1.613,0.893 3.364,1.256 5.269,1.084c2.24,0 5.031,-1.547 8.362,-4.647H46.097z" id="path_3"/><path fill="#000001" d="M30.222,17.191h1.533c1.857,0 2.791,0.694 2.791,2.088c-1.203,3.252 -2.664,4.978 -4.383,5.177l-2.029,0.27c-0.324,0 -0.457,-0.092 -0.412,-0.27c1.643,-0.867 3.176,-1.898 4.596,-3.083c-0.502,-0.469 -1.059,-0.7 -1.666,-0.7h-0.43l-1.666,0.139l-0.131,-0.139v-0.271C29.21,18.262 29.812,17.191 30.222,17.191z" id="path_4"/></svg>