<svg id="vector" xmlns="http://www.w3.org/2000/svg" width="75" height="67" viewBox="0 0 83 73"><path fill="#F50057" d="M33.621,25.907h1.546c1.874,0 2.813,0.7 2.813,2.106c-1.213,3.28 -2.687,5.021 -4.42,5.221l-2.047,0.272c-0.326,0 -0.46,-0.093 -0.413,-0.272c1.653,-0.874 3.2,-1.914 4.634,-3.107c-0.507,-0.473 -1.067,-0.706 -1.681,-0.706h-0.433l-1.681,0.14l-0.133,-0.14v-0.273C32.6,26.987 33.207,25.907 33.621,25.907L33.621,25.907z" id="path_0"/><path fill="#F50057" d="M40.867,47.394l-1.76,-0.02c-0.974,4.287 -3.554,6.453 -7.733,6.507c-2.24,0.1 -3.36,0.06 -3.36,-0.12c0.207,-0.394 1.707,-1.146 4.493,-2.267c2.867,-1.82 4.594,-2.993 5.193,-3.514l0.16,-0.467l-2.733,-0.433c-1.993,-0.521 -3.113,-1.521 -3.359,-3.007v-0.313c0,-2.526 0.619,-4.141 1.873,-4.847l0.939,-0.153c1.848,0 3.354,1.286 4.527,3.866c0.746,0.26 1.333,0.387 1.76,0.373V47.394L40.867,47.394z" id="path_1"/><path fill="#FFC400" d="M52.133,19.094c0.16,-0.093 0.207,0.054 0.14,0.434c-0.886,2.08 -2.246,3.533 -4.079,4.354l-6.74,3.38c-0.287,-0.08 -0.34,-0.313 -0.16,-0.707c0.899,-1.733 1.514,-2.76 1.84,-3.087L52.133,19.094L52.133,19.094z" id="path_2"/><path fill="#FFC400" d="M49.673,34.228c-1.72,-0.934 -2.913,-2.134 -3.594,-3.594c-0.26,-0.467 -0.52,-0.413 -0.779,0.16c-1.874,4.4 -2.813,8.146 -2.813,11.247c0,0.406 -0.767,0.706 -2.307,0.899v4.453c1.866,0.054 3.62,-0.272 5.273,-0.979l5.939,0.313l1.561,-0.153c1.359,-0.44 2.033,-2.214 2.033,-5.313C54.987,38.294 53.22,35.947 49.673,34.228zM46.24,42.041c-1.566,-0.261 -2.347,-0.887 -2.347,-1.874c0.233,-2.187 0.913,-3.279 2.033,-3.279c1.094,0 1.874,0.933 2.341,2.813C48.267,40.507 47.593,41.287 46.24,42.041zM52.954,42.354l-3.9,-0.153c0.233,-2.086 0.493,-3.126 0.78,-3.126c1.533,0.753 2.786,1.793 3.747,3.126L52.954,42.354z" id="path_3"/></svg>