<svg id="vector" xmlns="http://www.w3.org/2000/svg" width="75" height="67" viewBox="0 0 83 73"><path fill="#009649" d="M47.512,38.85c0.924,0.932 1.803,2.94 2.629,6.041l0.158,2.017c0,3.643 -1.811,6.121 -5.426,7.437l-1.086,0.151l-2.75,0.04l-2.67,-0.04l-0.15,-0.151v-0.159c0.33,-0.356 2.551,-1.44 6.656,-3.252c2.584,-1.468 3.979,-2.763 4.184,-3.874c-1.342,-2.862 -2.01,-4.514 -2.01,-4.957v-0.464C47.047,39.781 47.199,38.85 47.512,38.85z" id="path_0"/><path fill="#009649" d="M50.684,28.523c0.158,-0.092 0.203,0.054 0.139,0.43c-0.881,2.063 -2.229,3.503 -4.047,4.317l-6.682,3.351c-0.285,-0.079 -0.338,-0.311 -0.16,-0.7c0.893,-1.719 1.502,-2.737 1.824,-3.062L50.684,28.523z" id="path_1"/><path fill="#009649" d="M33.543,21.379c0.311,0 0.621,1.037 0.932,3.099l1.395,3.101l-0.621,3.563l0.461,8.679v1.389c-0.203,3.543 -0.719,5.605 -1.545,6.2l-0.152,-0.151l0.152,-2.327c0,-2.089 -0.676,-8.752 -2.018,-19.983C32.795,22.567 33.26,21.379 33.543,21.379z" id="path_2"/></svg>