<svg id="vector" xmlns="http://www.w3.org/2000/svg" width="75" height="67" viewBox="0 0 83 73"><path fill="#512DA8" d="M42.215,28.03c0.311,0 0.622,1.038 0.933,3.101l1.394,3.1l-0.62,3.564l0.462,8.679v1.389c-0.205,3.543 -0.72,5.605 -1.546,6.2l-0.152,-0.152l0.152,-2.327c0,-2.088 -0.675,-8.752 -2.017,-19.983C41.468,29.22 41.931,28.03 42.215,28.03z" id="path_0"/><path fill="#512DA8" d="M46.843,18.967c0.159,-0.092 0.206,0.053 0.139,0.431c-0.881,2.062 -2.228,3.503 -4.045,4.315l-6.684,3.352c-0.285,-0.08 -0.338,-0.31 -0.159,-0.7c0.893,-1.719 1.502,-2.737 1.824,-3.061L46.843,18.967z" id="path_1"/></svg>