<svg id="vector" xmlns="http://www.w3.org/2000/svg" width="75" height="67" viewBox="0 0 83 73"><path fill="#B71C1C" d="M31.509,20.847h1.547c1.873,0 2.813,0.699 2.813,2.106c-1.214,3.279 -2.687,5.02 -4.42,5.22l-2.047,0.273c-0.327,0 -0.46,-0.094 -0.413,-0.273c1.653,-0.873 3.2,-1.913 4.633,-3.106c-0.506,-0.474 -1.066,-0.707 -1.68,-0.707h-0.434l-1.68,0.14l-0.134,-0.14v-0.273C30.489,21.926 31.096,20.847 31.509,20.847L31.509,20.847z" id="path_0"/><path fill="#B71C1C" d="M44.036,27.619c-2.454,0.834 -4.167,1.767 -5.161,2.794c-2.666,2.359 -4.02,4.967 -4.06,7.833v1.873c0,0.914 0.414,1.641 1.247,2.193l4.847,1.094c-3.021,2.913 -6.04,4.373 -9.061,4.373h-0.626c-1.04,0 -2.033,-0.206 -2.974,-0.626c-2.707,-1.561 -4.06,-3.594 -4.06,-6.094v-1.247c0.246,-1.58 0.853,-2.859 1.807,-3.84c0.96,-0.986 1.239,-1.58 0.853,-1.786l-0.273,-0.04c-2.006,0.653 -3.213,2.34 -3.613,5.066c-0.406,2.727 -0.359,4.854 0.134,6.38c1.54,4.373 4.087,6.561 7.653,6.561c1.36,0 2.713,-0.367 4.066,-1.094c5.207,-3.413 7.813,-6.587 7.813,-9.533c0,-1.067 -0.474,-2.054 -1.406,-2.967c-3.54,-0.413 -5.313,-0.887 -5.313,-1.407V36.84c2.42,-3.227 4.713,-4.84 6.873,-4.84c1.054,0 1.68,0.359 1.873,1.093h0.16c0.261,0 0.521,-1.253 0.78,-3.753v-0.934C45.556,27.793 45.035,27.533 44.036,27.619L44.036,27.619z" id="path_1"/><path fill="#004D40" d="M60.143,25.919c0.16,-0.093 0.206,0.054 0.14,0.434c-0.887,2.08 -2.247,3.533 -4.08,4.354l-6.74,3.38c-0.286,-0.08 -0.34,-0.313 -0.16,-0.707c0.9,-1.732 1.514,-2.76 1.841,-3.086L60.143,25.919L60.143,25.919z" id="path_2"/><path fill="#004D40" d="M56.942,36.333c0.934,0.939 1.82,2.967 2.653,6.093l0.16,2.034c0,3.673 -1.827,6.173 -5.474,7.5l-1.093,0.153l-2.773,0.04l-2.693,-0.04l-0.153,-0.153V51.8c0.333,-0.36 2.573,-1.454 6.713,-3.28c2.606,-1.48 4.014,-2.786 4.22,-3.906c-1.353,-2.887 -2.026,-4.554 -2.026,-5v-0.467C56.476,37.272 56.629,36.333 56.942,36.333L56.942,36.333z" id="path_3"/></svg>