<svg id="vector" xmlns="http://www.w3.org/2000/svg" width="75" height="67" viewBox="0 0 83 73"><path fill="#00B8D4" d="M53.289,30.657c1.263,0.204 2.506,0.978 3.716,2.319v0.312c-0.774,2.068 -1.343,3.1 -1.706,3.1c-2.479,-0.853 -3.715,-1.526 -3.715,-2.017C51.584,33.42 52.153,32.177 53.289,30.657z" id="path_0"/><path fill="#00B8D4" d="M54.876,39.078c0.925,0.933 1.805,2.941 2.631,6.042l0.158,2.017c0,3.642 -1.811,6.12 -5.427,7.436l-1.084,0.152l-2.75,0.04l-2.67,-0.04l-0.152,-0.152v-0.158c0.33,-0.357 2.551,-1.441 6.656,-3.252c2.584,-1.468 3.98,-2.764 4.185,-3.874c-1.342,-2.862 -2.01,-4.515 -2.01,-4.958v-0.462C54.413,40.011 54.565,39.078 54.876,39.078z" id="path_1"/><path fill="#00B8D4" d="M53.25,18.236c1.587,0 2.38,0.978 2.38,2.928c0,3.106 -2.651,5.758 -7.959,7.939c-0.76,0.23 -0.852,-0.047 -0.27,-0.833c0.145,-0.298 1.395,-1.229 3.754,-2.789v-0.133c-1.018,-0.417 -1.527,-1.303 -1.527,-2.657c0.674,-2.968 1.745,-4.455 3.213,-4.455H53.25L53.25,18.236zM50.883,21.587c0,0.826 0.701,1.336 2.096,1.534h0.271c0.516,0 0.847,-0.191 0.984,-0.563c0,-0.839 -0.607,-1.493 -1.817,-1.956C51.889,20.603 51.379,20.933 50.883,21.587z" id="path_2"/><path fill="#213877" d="M39.144,38.636h0.621c1.812,0 3.153,1.546 4.033,4.646l0.151,1.547c0.053,0.502 0.053,1.018 0,1.553c-0.462,1.885 -1.5,3.742 -3.1,5.573c-1.11,0.933 -3.636,1.652 -7.589,2.169c-0.462,-0.206 -0.726,-0.411 -0.772,-0.615c6.609,-3.59 9.915,-5.758 9.915,-6.511l0.152,-0.463l-0.152,-0.153l-1.395,0.464h-0.773c-2.79,0 -4.185,-0.985 -4.185,-2.941v-0.311c0.357,-3.207 1.138,-4.807 2.32,-4.807L39.144,38.636z" id="path_3"/><path fill="#9e3b21" d="M26.729,21.606c0.311,0 0.622,1.038 0.932,3.101l1.395,3.101l-0.621,3.563l0.462,8.681v1.387c-0.206,3.543 -0.72,5.605 -1.547,6.201l-0.152,-0.151l0.152,-2.327c0,-2.09 -0.674,-8.753 -2.016,-19.983C25.982,22.797 26.444,21.606 26.729,21.606z" id="path_4"/><path fill="#213877" d="M38.509,20.615h1.534c1.857,0 2.79,0.694 2.79,2.09c-1.204,3.252 -2.665,4.978 -4.384,5.176l-2.029,0.271c-0.324,0 -0.456,-0.093 -0.41,-0.271c1.639,-0.866 3.173,-1.897 4.595,-3.081c-0.502,-0.469 -1.058,-0.701 -1.667,-0.701h-0.429l-1.666,0.139l-0.133,-0.139v-0.271C37.497,21.687 38.099,20.615 38.509,20.615z" id="path_5"/></svg>