<svg id="vector" xmlns="http://www.w3.org/2000/svg" width="75" height="67" viewBox="0 0 83 73"><path fill="#00B8D4" d="M43.93,42.893c0.211,0 0.428,0 0.659,0h0.159c1.931,-0.119 3.688,-1.726 5.263,-4.819c1.704,-2.585 3.464,-3.874 5.269,-3.874c2.274,0 3.411,1.441 3.411,4.337v0.772c0,1.421 -0.569,3.279 -1.707,5.579l-1.084,0.774c-0.959,0 -3.172,-0.674 -6.662,-2.017c-1.058,1.586 -1.884,2.552 -2.479,2.888c-0.905,0.629 -1.831,0.895 -2.79,0.774H43.93V42.893L43.93,42.893zM51.715,39.619v0.154c2.685,1.036 4.291,1.552 4.807,1.552c0.205,0 0.311,-0.158 0.311,-0.469c-0.596,-1.548 -1.579,-2.32 -2.949,-2.32C52.932,38.536 52.205,38.899 51.715,39.619z" id="path_0"/><path fill="#00B8D4" d="M52.437,19.208c1.586,0 2.38,0.978 2.38,2.928c0,3.106 -2.65,5.758 -7.959,7.938c-0.761,0.232 -0.853,-0.047 -0.271,-0.833c0.146,-0.298 1.395,-1.229 3.754,-2.788V26.32c-1.017,-0.417 -1.526,-1.303 -1.526,-2.657c0.675,-2.969 1.745,-4.455 3.213,-4.455H52.437L52.437,19.208zM50.07,22.56c0,0.825 0.7,1.335 2.096,1.532h0.271c0.515,0 0.846,-0.19 0.984,-0.562c0,-0.841 -0.608,-1.494 -1.818,-1.956C51.074,21.574 50.566,21.904 50.07,22.56z" id="path_1"/><path fill="#D50000" d="M44.608,47.308l-1.744,-0.02c-0.965,4.251 -3.523,6.399 -7.668,6.451c-2.22,0.1 -3.331,0.06 -3.331,-0.118c0.204,-0.391 1.691,-1.138 4.454,-2.248c2.844,-1.805 4.557,-2.967 5.15,-3.483l0.159,-0.462l-2.711,-0.431c-1.976,-0.516 -3.088,-1.508 -3.331,-2.981v-0.311c0,-2.506 0.614,-4.104 1.856,-4.806l0.932,-0.151c1.833,0 3.325,1.275 4.489,3.833c0.741,0.258 1.323,0.385 1.744,0.371V47.308z" id="path_2"/><path fill="#000001" d="M25.703,21.275c0.313,0 0.623,1.039 0.934,3.102l1.395,3.1L27.41,31.04l0.463,8.68v1.389c-0.205,3.542 -0.722,5.604 -1.547,6.199l-0.152,-0.152l0.152,-2.326c0,-2.089 -0.674,-8.753 -2.017,-19.983C24.957,22.467 25.42,21.275 25.703,21.275z" id="path_3"/><path fill="#D50000" d="M37.33,23.661h1.532c1.859,0 2.791,0.693 2.791,2.088c-1.204,3.252 -2.665,4.979 -4.383,5.176l-2.029,0.271c-0.325,0 -0.457,-0.092 -0.412,-0.271c1.642,-0.865 3.176,-1.896 4.596,-3.08c-0.503,-0.469 -1.059,-0.699 -1.666,-0.699H37.33l-1.667,0.137l-0.132,-0.137v-0.271C36.317,24.731 36.919,23.661 37.33,23.661z" id="path_4"/></svg>