<svg id="vector" xmlns="http://www.w3.org/2000/svg" width="75" height="67" viewBox="0 0 83 73"><path fill="#F57C00" d="M39.672,48.735h0.773c4.82,-0.092 8.019,-0.767 9.605,-2.035l0.311,-0.615c-0.205,-0.495 -0.462,-0.741 -0.774,-0.741c-0.747,0.418 -1.573,0.622 -2.479,0.622H46.95c-2.684,-0.311 -4.078,-1.394 -4.177,-3.252v-0.158c0.258,-3.51 1.084,-5.263 2.479,-5.263h0.773c2.386,-0.119 4.198,1.739 5.421,5.573l0.151,1.553v0.311c-0.033,3.795 -1.395,6.301 -4.085,7.51c-0.952,0.607 -3.57,0.913 -7.84,0.913V48.735z" id="path_0"/><path fill="#F57C00" d="M46.488,29.196c1.679,0.515 3.126,1.342 4.336,2.479v0.152c0,0.648 -0.668,1.679 -2.01,3.099c-0.417,0 -1.812,-0.515 -4.185,-1.546v0.152c-0.827,1.6 -1.342,2.426 -1.554,2.478c-1.342,-0.283 -2.478,-0.904 -3.404,-1.856c0.622,-2.585 1.138,-3.874 1.547,-3.874c0.337,0 1.573,0.621 3.721,1.858C44.94,31.596 45.457,30.616 46.488,29.196z" id="path_1"/><path fill="#F57C00" d="M50.652,19.861c0.159,-0.092 0.205,0.054 0.139,0.431c-0.88,2.063 -2.228,3.503 -4.045,4.316l-6.684,3.352c-0.284,-0.08 -0.337,-0.312 -0.159,-0.701c0.892,-1.719 1.5,-2.737 1.824,-3.061L50.652,19.861z" id="path_2"/><path fill="#0288D1" d="M39.824,53.152c-3.007,0.177 -5.196,-1.211 -6.564,-4.165c-0.661,-1.098 -1.276,-8.495 -1.858,-22.191v-0.311c0.384,-2.274 0.953,-3.411 1.699,-3.411l0.781,-0.152c0.951,0 2.399,0.312 4.336,0.926v0.311c-0.106,0.312 -0.417,0.471 -0.932,0.471h-2.631c-0.543,0 -1.058,0.304 -1.554,0.924c0.483,11.892 1.184,18.78 2.116,20.664c0.925,1.884 2.465,2.725 4.607,2.519V53.152z" id="path_3"/></svg>