<svg id="vector" xmlns="http://www.w3.org/2000/svg" width="75" height="67" viewBox="0 0 83 73"><path fill="#FF3D00" d="M34.104,30.421h1.547c1.873,0 2.813,0.699 2.813,2.106c-1.213,3.28 -2.686,5.02 -4.42,5.22l-2.047,0.273c-0.326,0 -0.459,-0.094 -0.412,-0.273c1.652,-0.873 3.199,-1.913 4.633,-3.106c-0.506,-0.474 -1.066,-0.707 -1.68,-0.707h-0.434l-1.68,0.14l-0.133,-0.14V33.66C33.084,31.501 33.689,30.421 34.104,30.421L34.104,30.421z" id="path_0"/><path fill="#FF3D00" d="M51.277,50.4c-0.627,2.174 -2.527,4.573 -5.707,7.187c-1.914,1.36 -4.154,2.033 -6.713,2.033c-1.434,-0.326 -2.461,-0.653 -3.08,-0.973c-0.621,-0.327 -1.361,-1.047 -2.234,-2.153c-1.566,-2.08 -2.346,-4.007 -2.346,-5.78c0,-4.22 1.354,-7.601 4.066,-10.153c0.48,-0.34 0.686,-0.287 0.619,0.153c0,0.38 -0.779,1.84 -2.34,4.373c-0.627,1.267 -0.939,2.467 -0.939,3.594c0,1.62 1.146,3.387 3.439,5.313c1.627,0.9 3.393,1.268 5.314,1.094c2.26,0 5.072,-1.56 8.434,-4.687H51.277L51.277,50.4z" id="path_1"/><path fill="#009649" d="M49.316,13.407c0.16,-0.094 0.207,0.054 0.141,0.434c-0.887,2.08 -2.248,3.533 -4.08,4.354l-6.74,3.38c-0.287,-0.08 -0.34,-0.313 -0.16,-0.707c0.9,-1.733 1.514,-2.76 1.84,-3.087L49.316,13.407L49.316,13.407z" id="path_2"/><path fill="#009649" d="M46.857,22.454c1.385,0.727 2.479,1.46 3.285,2.187c-0.232,1.12 -0.967,2.32 -2.186,3.593h-0.16c-1.434,-0.6 -2.42,-1.272 -2.967,-2.033v-0.307C45.764,23.601 46.443,22.454 46.857,22.454L46.857,22.454z" id="path_3"/><path fill="#009649" d="M41.076,23.394h0.16l3.279,1.714v0.313c0,0.38 -0.625,1.58 -1.873,3.593c-1.912,-0.547 -3.006,-1.12 -3.285,-1.72L41.076,23.394L41.076,23.394z" id="path_4"/><path fill="#009649" d="M49.77,50.714h1.58c0.188,-0.547 0.334,-1.12 0.453,-1.721V47.9c-0.08,-1.134 -0.393,-1.807 -0.939,-2.026c-1.354,-0.38 -2.033,-0.747 -2.033,-1.094c0.213,0 0.473,-0.24 0.787,-0.706c0.307,-0.467 0.467,-1.641 0.467,-3.514v-1.88c0,-1.427 -0.408,-3.094 -1.215,-5c-0.779,-1.394 -2.092,-2.12 -3.945,-2.188c-0.834,0.188 -1.494,0.534 -1.98,1.061c-0.486,0.52 -0.813,1.78 -0.986,3.787l0.16,0.626c0.699,1.874 2.105,2.813 4.213,2.813h0.16c0.6,0 1.174,-0.213 1.719,-0.627h0.154c0.52,0.154 0.779,0.934 0.779,2.341c-0.807,1.979 -1.9,2.973 -3.279,2.973c-0.887,0.127 -1.428,0.681 -1.621,1.66c-0.191,0.974 -0.225,1.934 -0.1,2.866c3.754,0.521 5.627,1.047 5.627,1.567V50.714L49.77,50.714z" id="path_5"/></svg>