<svg id="vector" xmlns="http://www.w3.org/2000/svg" width="75" height="67" viewBox="0 0 83 73"><path fill="#FF9800" d="M35.556,28.874h1.546c1.874,0 2.813,0.699 2.813,2.106c-1.213,3.28 -2.687,5.02 -4.42,5.22l-2.047,0.273c-0.326,0 -0.46,-0.093 -0.413,-0.273c1.653,-0.873 3.2,-1.913 4.634,-3.106c-0.507,-0.474 -1.067,-0.707 -1.681,-0.707h-0.433l-1.681,0.141l-0.133,-0.141v-0.272C34.535,29.954 35.143,28.874 35.556,28.874L35.556,28.874z" id="path_0"/><path fill="#FF9800" d="M37.349,41.86h0.626c1.827,0 3.181,1.56 4.067,4.687l0.153,1.561c0.054,0.506 0.054,1.026 0,1.566c-0.467,1.899 -1.514,3.773 -3.127,5.62c-1.12,0.939 -3.667,1.666 -7.653,2.187c-0.467,-0.207 -0.733,-0.413 -0.779,-0.62c6.666,-3.62 9.999,-5.807 9.999,-6.566l0.153,-0.467l-0.153,-0.153l-1.406,0.467h-0.78c-2.813,0 -4.22,-0.993 -4.22,-2.967V46.86c0.36,-3.233 1.146,-4.847 2.34,-4.847L37.349,41.86L37.349,41.86z" id="path_1"/><path fill="#000001" d="M52.195,15.547c0.16,-0.093 0.206,0.054 0.14,0.434c-0.887,2.08 -2.247,3.533 -4.08,4.354l-6.74,3.38c-0.286,-0.08 -0.34,-0.313 -0.159,-0.707c0.899,-1.733 1.513,-2.76 1.84,-3.087L52.195,15.547L52.195,15.547z" id="path_2"/><path fill="#000001" d="M47.528,24.688c0.313,0 0.627,1.047 0.94,3.126l1.406,3.127l-0.627,3.594l0.467,8.753v1.4c-0.206,3.573 -0.727,5.652 -1.56,6.253l-0.153,-0.153l0.153,-2.347c0,-2.106 -0.681,-8.827 -2.033,-20.153C46.775,25.887 47.242,24.688 47.528,24.688L47.528,24.688z" id="path_3"/></svg>