<svg id="vector" xmlns="http://www.w3.org/2000/svg" width="75" height="67" viewBox="0 0 83 73"><path fill="#FF3D00" d="M45.174,42.312v-0.06l-0.158,-0.159l-0.463,-0.151H44.4c-3.517,-0.595 -5.268,-1.217 -5.268,-1.858v-2.175c0,-1.494 0.667,-3.199 2.016,-5.11c0.939,-0.852 3.318,-2.042 7.126,-3.563v-0.311l-5.117,-0.774c-1.109,0.258 -2.035,0.88 -2.789,1.858c-0.542,1.243 -0.899,1.857 -1.084,1.857c-0.555,0.198 -0.707,-0.217 -0.463,-1.236c0.285,-1.19 0.8,-2.327 1.547,-3.412c1.217,-1.341 2.195,-2.009 2.948,-2.009h0.926c2.703,0.41 5.592,0.773 8.68,1.084l2.319,-0.159l0.159,0.159v0.311c-0.76,2.373 -1.745,3.563 -2.948,3.563c-3.093,0.787 -6.71,2.44 -10.841,4.958c-0.391,0.331 -0.541,0.847 -0.463,1.547c1.725,0.152 3.121,0.31 4.178,0.462c0.813,0.173 1.309,0.608 1.487,1.323c0.172,0.707 0.139,1.87 -0.093,3.483c-0.026,0.112 -0.052,0.238 -0.092,0.37H45.174z" id="path_0"/><path fill="#FF3D00" d="M56.095,42.636c0.158,-0.086 0.204,0.053 0.139,0.43c-0.879,2.063 -2.228,3.504 -4.046,4.316l-6.684,3.352c-0.283,-0.079 -0.337,-0.311 -0.157,-0.694c0.892,-1.719 1.5,-2.737 1.823,-3.061L56.095,42.636z" id="path_1"/><path fill="#000001" d="M46.648,42.093c-0.622,2.156 -2.506,4.534 -5.658,7.126c-1.897,1.349 -4.119,2.018 -6.657,2.018c-1.421,-0.325 -2.439,-0.648 -3.054,-0.966c-0.615,-0.324 -1.349,-1.038 -2.215,-2.134c-1.553,-2.063 -2.327,-3.974 -2.327,-5.732c0,-4.184 1.343,-7.536 4.033,-10.067c0.476,-0.337 0.681,-0.285 0.615,0.151c0,0.376 -0.774,1.825 -2.321,4.337c-0.621,1.255 -0.932,2.445 -0.932,3.563c0,1.606 1.137,3.358 3.411,5.269c1.612,0.892 3.364,1.256 5.269,1.083c2.241,0 5.029,-1.546 8.361,-4.647H46.648z" id="path_2"/><path fill="#000001" d="M31.465,21.764h1.533c1.858,0 2.79,0.693 2.79,2.089c-1.203,3.251 -2.664,4.977 -4.382,5.176L29.377,29.3c-0.324,0 -0.457,-0.093 -0.41,-0.271c1.639,-0.867 3.172,-1.897 4.593,-3.081c-0.502,-0.469 -1.058,-0.701 -1.665,-0.701h-0.43L29.8,25.387l-0.133,-0.139v-0.271C30.453,22.835 31.055,21.764 31.465,21.764z" id="path_3"/></svg>