<svg id="vector" xmlns="http://www.w3.org/2000/svg" width="75" height="67" viewBox="0 0 83 73"><path fill="#D32F2F" d="M43.968,44.296c1.527,-0.191 2.288,-0.489 2.288,-0.892c0,-3.074 0.932,-6.789 2.789,-11.151c0.258,-0.568 0.516,-0.622 0.773,-0.159c0.674,1.447 1.857,2.638 3.563,3.563c3.517,1.705 5.269,4.032 5.269,6.974c0,3.073 -0.668,4.832 -2.017,5.269l-1.546,0.151l-5.89,-0.311c-1.64,0.701 -3.378,1.024 -5.229,0.972V44.296L43.968,44.296zM52.768,43.563l3.866,0.151l0.622,-0.151c-0.952,-1.322 -2.195,-2.354 -3.715,-3.1C53.256,40.463 52.999,41.494 52.768,43.563L52.768,43.563zM47.65,41.547c0,0.979 0.774,1.599 2.327,1.857c1.342,-0.747 2.009,-1.521 2.009,-2.32c-0.462,-1.864 -1.236,-2.789 -2.32,-2.789C48.556,38.295 47.882,39.379 47.65,41.547z" id="path_0"/><path fill="#D32F2F" d="M51.544,17.803c1.586,0 2.379,0.978 2.379,2.928c0,3.107 -2.651,5.758 -7.958,7.939c-0.76,0.231 -0.854,-0.047 -0.271,-0.833c0.146,-0.297 1.395,-1.229 3.755,-2.789v-0.133c-1.018,-0.417 -1.527,-1.303 -1.527,-2.657c0.674,-2.968 1.745,-4.455 3.212,-4.455H51.544L51.544,17.803zM49.178,21.153c0,0.826 0.701,1.336 2.095,1.534h0.272c0.515,0 0.846,-0.191 0.985,-0.562c0,-0.84 -0.609,-1.494 -1.819,-1.957C50.183,20.169 49.673,20.499 49.178,21.153z" id="path_1"/><path fill="#00796B" d="M44.649,48.712l-1.745,-0.02c-0.965,4.25 -3.523,6.398 -7.667,6.452c-2.222,0.099 -3.332,0.059 -3.332,-0.12c0.205,-0.39 1.692,-1.136 4.456,-2.247c2.843,-1.805 4.555,-2.968 5.149,-3.483l0.158,-0.463l-2.71,-0.43c-1.976,-0.516 -3.086,-1.507 -3.331,-2.981v-0.311c0,-2.505 0.614,-4.105 1.857,-4.806l0.932,-0.152c1.832,0 3.325,1.275 4.488,3.834c0.741,0.258 1.322,0.384 1.745,0.371V48.712z" id="path_2"/><path fill="#213877" d="M25.744,22.681c0.311,0 0.622,1.038 0.933,3.101l1.395,3.1l-0.622,3.563l0.463,8.68v1.389c-0.205,3.543 -0.721,5.605 -1.547,6.2l-0.152,-0.152l0.152,-2.326c0,-2.089 -0.675,-8.753 -2.017,-19.983C24.997,23.87 25.46,22.681 25.744,22.681z" id="path_3"/><path fill="#00796B" d="M38.509,24.091h1.533c1.857,0 2.79,0.694 2.79,2.089c-1.204,3.252 -2.664,4.978 -4.383,5.176l-2.029,0.271c-0.324,0 -0.456,-0.093 -0.41,-0.271c1.639,-0.866 3.173,-1.897 4.595,-3.081c-0.503,-0.469 -1.058,-0.7 -1.667,-0.7h-0.429l-1.666,0.139l-0.132,-0.139v-0.271C37.497,25.161 38.099,24.091 38.509,24.091z" id="path_4"/></svg>