<svg id="vector" xmlns="http://www.w3.org/2000/svg" width="75" height="67" viewBox="0 0 83 73"><path fill="#213877" d="M46.947,30.977c0.641,0 1.778,0.772 3.404,2.32c0,0.515 -0.614,1.652 -1.857,3.41h-0.311c-0.641,0 -1.626,-0.621 -2.941,-1.857v-0.159C45.242,34.07 45.811,32.834 46.947,30.977z" id="path_0"/><path fill="#213877" d="M52.526,30.204c2.578,1.104 3.866,1.983 3.866,2.631c-0.152,0.489 -0.873,1.573 -2.167,3.252c-1.726,-0.667 -2.969,-1.447 -3.715,-2.321C51.052,32.035 51.719,30.845 52.526,30.204z" id="path_1"/><path fill="#213877" d="M48.804,25.708c2.374,0.979 3.563,1.805 3.563,2.479l-2.016,3.101h-0.152c-0.437,0 -1.627,-0.622 -3.563,-1.864C47.588,26.944 48.315,25.708 48.804,25.708z" id="path_2"/><path fill="#213877" d="M46.226,47.958c4.059,0.04 6.326,-0.72 6.822,-2.288c0,-0.542 -0.516,-1.883 -1.553,-4.025l0.469,-4.026h0.304c1.349,2.321 2.016,4.647 2.016,6.968v1.395c0,0.933 -0.224,1.911 -0.667,2.935c-0.442,1.024 -1.13,1.891 -2.049,2.584c-0.926,0.701 -2.704,0.991 -5.342,0.872V47.958z" id="path_3"/><path fill="#213877" d="M50.199,14.14c1.586,0 2.379,0.978 2.379,2.929c0,3.106 -2.651,5.757 -7.958,7.939c-0.76,0.231 -0.853,-0.046 -0.271,-0.833c0.145,-0.297 1.394,-1.23 3.754,-2.79v-0.132c-1.018,-0.416 -1.527,-1.302 -1.527,-2.657c0.674,-2.968 1.745,-4.456 3.213,-4.456H50.199L50.199,14.14zM47.833,17.491c0,0.827 0.701,1.335 2.095,1.534h0.271c0.515,0 0.846,-0.192 0.984,-0.563c0,-0.839 -0.608,-1.493 -1.818,-1.956C48.837,16.507 48.328,16.837 47.833,17.491z" id="path_4"/><path fill="#FFAB00" d="M46.907,52.374l-1.745,-0.02c-0.965,4.251 -3.523,6.399 -7.668,6.452c-2.221,0.099 -3.332,0.06 -3.332,-0.119c0.205,-0.39 1.692,-1.137 4.456,-2.248c2.842,-1.805 4.555,-2.968 5.149,-3.484l0.158,-0.462l-2.709,-0.429c-1.976,-0.516 -3.087,-1.508 -3.332,-2.981v-0.311c0,-2.505 0.614,-4.106 1.857,-4.805l0.932,-0.152c1.831,0 3.324,1.276 4.488,3.833c0.74,0.258 1.322,0.384 1.745,0.371V52.374z" id="path_5"/><path fill="#000001" d="M28.001,26.343c0.312,0 0.622,1.038 0.932,3.1l1.395,3.101l-0.621,3.563l0.463,8.679v1.389c-0.206,3.543 -0.72,5.605 -1.547,6.2l-0.152,-0.151l0.152,-2.326c0,-2.09 -0.674,-8.753 -2.016,-19.984C27.255,27.533 27.717,26.343 28.001,26.343z" id="path_6"/><path fill="#FFAB00" d="M38.15,23.808h1.534c1.857,0 2.789,0.694 2.789,2.089c-1.203,3.252 -2.664,4.978 -4.382,5.176l-2.029,0.271c-0.325,0 -0.456,-0.092 -0.41,-0.271c1.639,-0.866 3.173,-1.897 4.595,-3.08c-0.502,-0.47 -1.058,-0.701 -1.666,-0.701h-0.43l-1.666,0.139l-0.132,-0.139v-0.271C37.139,24.879 37.74,23.808 38.15,23.808z" id="path_7"/></svg>