<svg id="vector" xmlns="http://www.w3.org/2000/svg" width="75" height="67" viewBox="0 0 83 73"><path fill="#C2185B" d="M42.077,44.686v-0.239c-3.716,-0.205 -5.731,-0.773 -6.042,-1.699c-0.22,-0.509 -0.323,-1.177 -0.312,-2.015c0.337,-2.248 0.959,-3.955 1.859,-5.111c2.841,-2.921 5.479,-4.415 7.904,-4.494c0.623,0 0.926,0.205 0.926,0.621l-0.303,1.395v0.462c1.016,1.236 2.153,1.858 3.403,1.858h0.158c1.666,0 2.644,-0.978 2.942,-2.942c0.283,-0.932 0.542,-1.394 0.772,-1.394c0.205,0 0.364,0.311 0.463,0.926l-0.305,1.242c0.708,1.164 1.508,1.778 2.387,1.857c0.887,0.08 1.436,-0.231 1.64,-0.926c0.104,-2.194 0.363,-3.332 0.773,-3.41c0.443,0.024 0.594,1.11 0.463,3.252c-0.245,3.411 -1.071,5.116 -2.479,5.116h-0.773c-0.887,0 -1.925,-0.674 -3.095,-2.016c-0.726,1.758 -1.758,2.63 -3.101,2.63h-0.772c-1.526,-0.422 -2.585,-1.023 -3.18,-1.811c-0.594,-0.779 -0.979,-1.725 -1.164,-2.836c-2.267,0.299 -4.336,1.177 -6.193,2.637c-0.271,0.271 -0.528,0.582 -0.772,0.926c0,0.662 1.75,1.071 5.268,1.242c1.131,0.61 1.698,1.436 1.698,2.48c0,0.732 -0.146,1.48 -0.441,2.248H42.077z" id="path_0"/><path fill="#C2185B" d="M49.982,25.237h0.152l3.252,1.705v0.312c0,0.375 -0.621,1.559 -1.856,3.563c-1.898,-0.542 -2.982,-1.112 -3.254,-1.706L49.982,25.237z" id="path_1"/><path fill="#C2185B" d="M55.714,24.311c1.368,0.722 2.453,1.441 3.252,2.169c-0.23,1.11 -0.958,2.294 -2.168,3.563H56.64c-1.414,-0.596 -2.4,-1.27 -2.942,-2.016v-0.312C54.63,25.441 55.297,24.311 55.714,24.311z" id="path_2"/><path fill="#C2185B" d="M51.53,19.506h0.151c0.865,0 2.002,0.772 3.411,2.327c0,0.488 -0.675,1.626 -2.017,3.404h-0.462c-1.832,-1.163 -2.764,-1.831 -2.791,-2.011v-0.158C49.823,22.228 50.393,21.04 51.53,19.506z" id="path_3"/><path fill="#C2185B" d="M57.201,43.051c0.159,-0.085 0.205,0.054 0.139,0.43c-0.88,2.063 -2.228,3.504 -4.045,4.317l-6.684,3.352c-0.285,-0.08 -0.338,-0.312 -0.158,-0.694c0.892,-1.719 1.5,-2.736 1.823,-3.061L57.201,43.051z" id="path_4"/><path fill="#000001" d="M43.927,44.336c-0.621,2.155 -2.488,4.552 -5.642,7.142c-1.897,1.35 -4.118,2.017 -6.655,2.017c-1.422,-0.323 -2.441,-0.647 -3.055,-0.965c-0.615,-0.324 -1.349,-1.038 -2.215,-2.135c-1.554,-2.063 -2.326,-3.973 -2.326,-5.73c0,-4.185 1.342,-7.537 4.031,-10.068c0.477,-0.337 0.681,-0.284 0.614,0.152c0,0.377 -0.773,1.825 -2.319,4.336c-0.622,1.256 -0.932,2.446 -0.932,3.564c0,1.605 1.136,3.357 3.409,5.268c1.613,0.892 3.367,1.256 5.271,1.083c2.24,0 5.028,-1.546 8.361,-4.646L43.927,44.336z" id="path_5"/><path fill="#000001" d="M30.223,24.436h1.532c1.859,0 2.791,0.695 2.791,2.09c-1.204,3.252 -2.665,4.977 -4.383,5.176l-2.029,0.271c-0.325,0 -0.458,-0.093 -0.411,-0.271c1.641,-0.867 3.175,-1.896 4.595,-3.081c-0.503,-0.469 -1.058,-0.699 -1.666,-0.699h-0.429l-1.667,0.139l-0.132,-0.139v-0.272C29.21,25.507 29.812,24.436 30.223,24.436z" id="path_6"/></svg>