<svg id="vector" xmlns="http://www.w3.org/2000/svg" width="75" height="67" viewBox="0 0 83 73"><path fill="#FFA000" d="M46.362,41.596v-0.06c-3.723,-0.338 -5.796,-0.99 -5.796,-2.002v-1.389c0,-1.836 0.313,-3.073 0.934,-3.721c1.223,-1.236 1.949,-1.856 2.168,-1.856v-0.159c-1.759,-1.07 -2.638,-2.519 -2.638,-4.337v-1.084c0.481,-3.714 2.287,-5.58 5.428,-5.58c1.479,0.146 2.836,0.734 4.058,1.773c1.218,1.043 1.825,1.691 1.825,1.949v0.152l-0.463,0.469c-1.599,-0.727 -2.995,-1.091 -4.184,-1.091l-0.887,-0.014c-1.679,0.014 -2.987,0.378 -3.912,1.104c0,1.548 2.115,2.685 6.352,3.404l6.042,-2.016V27.3c0,1.07 -0.416,1.95 -1.243,2.63c-0.462,0.556 -1.395,1.071 -2.789,1.554c-5.229,1.937 -8.276,3.483 -9.135,4.646v0.152c3.819,0.352 5.73,0.919 5.73,1.705l0.112,1.897c0.053,0.543 -0.021,1.117 -0.146,1.726L46.362,41.596z" id="path_0"/><path fill="#FFA000" d="M54.919,43.813c0.158,-0.087 0.203,0.052 0.139,0.429c-0.88,2.063 -2.228,3.504 -4.046,4.316l-6.683,3.352c-0.284,-0.078 -0.338,-0.311 -0.158,-0.694c0.892,-1.719 1.499,-2.736 1.823,-3.061L54.919,43.813z" id="path_1"/><path fill="#000001" d="M47.823,41.591c-0.621,2.154 -2.706,4.185 -5.86,6.775c-1.897,1.349 -4.119,2.017 -6.658,2.017c-1.42,-0.324 -2.438,-0.647 -3.054,-0.966c-0.613,-0.322 -1.347,-1.038 -2.214,-2.136c-1.552,-2.062 -2.326,-3.973 -2.326,-5.73c0,-4.185 1.341,-7.536 4.032,-10.067c0.475,-0.337 0.681,-0.284 0.615,0.151c0,0.377 -0.774,1.825 -2.321,4.338c-0.621,1.256 -0.932,2.444 -0.932,3.562c0,1.606 1.137,3.358 3.411,5.27c1.613,0.892 3.364,1.255 5.269,1.084c2.24,0 5.253,-1.259 8.585,-4.358L47.823,41.591z" id="path_2"/><path fill="#000001" d="M31.628,21.091h1.533c1.858,0 2.789,0.693 2.789,2.089c-1.202,3.252 -2.664,4.978 -4.382,5.176l-2.03,0.271c-0.324,0 -0.456,-0.094 -0.409,-0.271c1.64,-0.867 3.173,-1.897 4.595,-3.08c-0.505,-0.471 -1.059,-0.701 -1.668,-0.701h-0.428l-1.666,0.138l-0.133,-0.138v-0.271C30.616,22.161 31.217,21.091 31.628,21.091z" id="path_3"/></svg>