<svg id="vector" xmlns="http://www.w3.org/2000/svg" width="75" height="67" viewBox="0 0 83 73"><path fill="#FF9800" d="M34.23,24.023h1.547c1.873,0 2.813,0.7 2.813,2.107c-1.214,3.279 -2.687,5.02 -4.42,5.22l-2.047,0.273c-0.327,0 -0.46,-0.094 -0.413,-0.273c1.652,-0.873 3.199,-1.913 4.633,-3.106c-0.507,-0.474 -1.066,-0.707 -1.68,-0.707H34.23l-1.68,0.14l-0.134,-0.14v-0.273C33.21,25.104 33.817,24.023 34.23,24.023L34.23,24.023z" id="path_0"/><path fill="#FF9800" d="M51.403,44.004c-0.626,2.173 -2.526,4.573 -5.706,7.187c-1.913,1.36 -4.153,2.033 -6.714,2.033c-1.433,-0.326 -2.46,-0.653 -3.079,-0.974c-0.621,-0.326 -1.36,-1.046 -2.233,-2.153c-1.567,-2.08 -2.348,-4.006 -2.348,-5.779c0,-4.221 1.354,-7.601 4.067,-10.153c0.479,-0.34 0.687,-0.287 0.62,0.153c0,0.38 -0.78,1.84 -2.34,4.373c-0.627,1.267 -0.94,2.467 -0.94,3.594c0,1.619 1.146,3.386 3.439,5.313c1.627,0.9 3.394,1.268 5.313,1.094c2.26,0 5.073,-1.561 8.434,-4.687H51.403L51.403,44.004z" id="path_1"/><path fill="#2196F3" d="M49.797,16.21c0.16,-0.093 0.207,0.054 0.141,0.434c-0.887,2.08 -2.247,3.533 -4.08,4.354l-6.74,3.38c-0.287,-0.08 -0.34,-0.313 -0.16,-0.707c0.9,-1.732 1.514,-2.76 1.84,-3.086L49.797,16.21L49.797,16.21z" id="path_2"/><path fill="#2196F3" d="M49.957,44.004h1.48c0.159,-0.533 0.239,-1.054 0.239,-1.56v-1.561c0,-0.927 -1.106,-1.66 -3.319,-2.193l0.347,-0.467c0.547,-1.054 0.859,-2.307 0.939,-3.746c0,-2.2 -1.666,-4.754 -5,-7.66c-0.207,-0.113 -0.399,-0.08 -0.573,0.106c-0.18,0.193 -0.193,1.507 -0.053,3.96c2.813,2.86 4.272,4.634 4.373,5.307c-0.307,0.693 -0.987,1.32 -2.027,1.88c-1.433,0.3 -2.112,1.754 -2.033,4.374v0.152c1.2,0.174 2.087,0.327 2.653,0.474L49.957,44.004L49.957,44.004z" id="path_3"/><path fill="#2196F3" d="M47.61,51.19c-1.18,1.707 -1.807,2.854 -1.873,3.439c0,0.653 1.253,1.381 3.746,2.188c1.254,-1.721 1.88,-2.967 1.88,-3.747C49.397,51.817 48.144,51.19 47.61,51.19L47.61,51.19z" id="path_4"/></svg>