<svg id="vector" xmlns="http://www.w3.org/2000/svg" width="75" height="67" viewBox="0 0 83 73"><path fill="#E64A19" d="M39.989,42.324h0.602c2.042,-0.219 3.762,-1.455 5.156,-3.701c0.205,-0.464 0.41,-0.722 0.615,-0.774h0.159l0.462,0.47c-0.066,0.588 -0.165,1.004 -0.311,1.235c0.906,1.653 1.99,2.479 3.252,2.479l0.159,0.152c2.247,-4.958 4.773,-7.437 7.588,-7.437c2.247,0 3.9,0.932 4.958,2.79v0.933c0,5.677 -3.51,8.519 -10.536,8.519l-2.321,-0.151c-0.72,1.957 -1.19,2.942 -1.395,2.942l-0.153,-0.152v-0.159l0.463,-2.631v-0.311c-1.527,-0.852 -2.71,-2.042 -3.563,-3.563c-0.8,2.617 -2.512,3.88 -5.137,3.774V42.324L39.989,42.324zM51.63,42.496h0.311c3.51,0 6.504,-0.516 8.983,-1.548c0,-1.11 -1.031,-1.884 -3.094,-2.325h-0.622C54.73,38.623 52.873,39.918 51.63,42.496z" id="path_0"/><path fill="#E64A19" d="M53.726,19.776c1.586,0 2.38,0.978 2.38,2.928c0,3.107 -2.651,5.757 -7.959,7.939c-0.76,0.23 -0.853,-0.047 -0.27,-0.833c0.145,-0.299 1.394,-1.229 3.754,-2.79v-0.132c-1.019,-0.417 -1.527,-1.304 -1.527,-2.658c0.674,-2.968 1.745,-4.454 3.213,-4.454H53.726L53.726,19.776zM51.359,23.128c0,0.825 0.701,1.334 2.096,1.533h0.271c0.515,0 0.846,-0.192 0.985,-0.561c0,-0.841 -0.608,-1.495 -1.818,-1.957C52.364,22.144 51.855,22.473 51.359,23.128z" id="path_1"/><path fill="#000001" d="M40.67,46.739l-1.745,-0.02c-0.965,4.251 -3.523,6.398 -7.668,6.452c-2.222,0.099 -3.332,0.06 -3.332,-0.119c0.205,-0.39 1.692,-1.137 4.456,-2.248c2.843,-1.805 4.555,-2.968 5.15,-3.483l0.158,-0.463l-2.71,-0.43c-1.977,-0.516 -3.087,-1.508 -3.332,-2.981v-0.311c0,-2.505 0.615,-4.105 1.858,-4.806l0.932,-0.151c1.831,0 3.324,1.275 4.488,3.834c0.74,0.257 1.322,0.383 1.745,0.369V46.739z" id="path_2"/><path fill="#213877" d="M21.764,20.709c0.311,0 0.622,1.037 0.933,3.099l1.395,3.101l-0.622,3.563l0.462,8.679v1.39c-0.205,3.543 -0.72,5.604 -1.547,6.199l-0.152,-0.151l0.152,-2.327c0,-2.089 -0.673,-8.753 -2.016,-19.984C21.018,21.897 21.48,20.709 21.764,20.709z" id="path_3"/><path fill="#000001" d="M36.129,24.777h1.533c1.857,0 2.789,0.693 2.789,2.088c-1.203,3.253 -2.664,4.978 -4.382,5.177l-2.029,0.271c-0.325,0 -0.457,-0.093 -0.41,-0.271c1.639,-0.866 3.173,-1.896 4.594,-3.081c-0.502,-0.47 -1.057,-0.701 -1.666,-0.701h-0.429l-1.667,0.139l-0.132,-0.139v-0.271C35.118,25.848 35.719,24.777 36.129,24.777z" id="path_4"/></svg>