<svg id="vector" xmlns="http://www.w3.org/2000/svg" width="75" height="67" viewBox="0 0 83 73"><path fill="#9C27B0" d="M33.62,26.497h1.546c1.874,0 2.813,0.7 2.813,2.106c-1.213,3.28 -2.687,5.021 -4.42,5.221l-2.047,0.272c-0.326,0 -0.46,-0.093 -0.413,-0.272c1.653,-0.874 3.2,-1.914 4.634,-3.107c-0.507,-0.473 -1.067,-0.706 -1.681,-0.706H33.62l-1.681,0.14l-0.133,-0.14v-0.273C32.6,27.577 33.207,26.497 33.62,26.497L33.62,26.497z" id="path_0"/><path fill="#9C27B0" d="M46.146,33.271c-2.453,0.833 -4.167,1.767 -5.16,2.793c-2.667,2.36 -4.02,4.967 -4.06,7.834v1.873c0,0.913 0.413,1.641 1.246,2.193l4.847,1.094c-3.02,2.913 -6.04,4.373 -9.06,4.373h-0.627c-1.04,0 -2.033,-0.207 -2.974,-0.627c-2.707,-1.56 -4.06,-3.593 -4.06,-6.094v-1.246c0.246,-1.58 0.854,-2.86 1.807,-3.84c0.96,-0.986 1.24,-1.58 0.854,-1.787l-0.273,-0.04c-2.007,0.653 -3.214,2.34 -3.613,5.067c-0.407,2.727 -0.36,4.853 0.133,6.38c1.54,4.373 4.087,6.56 7.653,6.56c1.36,0 2.714,-0.366 4.067,-1.093c5.206,-3.414 7.813,-6.587 7.813,-9.534c0,-1.066 -0.473,-2.053 -1.406,-2.966c-3.54,-0.414 -5.313,-0.887 -5.313,-1.407V42.49c2.42,-3.227 4.714,-4.84 6.873,-4.84c1.054,0 1.681,0.36 1.874,1.094h0.159c0.261,0 0.521,-1.254 0.78,-3.754v-0.933C47.666,33.443 47.146,33.184 46.146,33.271L46.146,33.271z" id="path_1"/><path fill="#000001" d="M58.033,15.224c0.16,-0.093 0.206,0.054 0.14,0.434c-0.887,2.08 -2.247,3.533 -4.08,4.354l-6.74,3.38c-0.286,-0.08 -0.34,-0.313 -0.159,-0.707c0.899,-1.733 1.513,-2.76 1.84,-3.087L58.033,15.224L58.033,15.224z" id="path_2"/><path fill="#000001" d="M53.366,24.364c0.313,0 0.627,1.047 0.94,3.126l1.406,3.127l-0.627,3.594l0.467,8.753v1.4c-0.206,3.573 -0.727,5.652 -1.56,6.253l-0.153,-0.153l0.153,-2.347c0,-2.106 -0.681,-8.827 -2.033,-20.153C52.613,25.563 53.08,24.364 53.366,24.364L53.366,24.364z" id="path_3"/></svg>