<svg id="vector" xmlns="http://www.w3.org/2000/svg" width="75" height="67" viewBox="0 0 83 73"><path fill="#009649" d="M43.175,42.876c0.324,0 0.662,0 1.012,0l0.773,-0.391c0.489,-1.005 1.217,-2.24 2.168,-3.715l-1.546,-11.932c0.515,-2.479 0.978,-3.716 1.395,-3.716l0.772,2.941c0.722,1.006 1.084,1.938 1.084,2.79c-0.515,0.953 -0.772,1.732 -0.772,2.321v0.31l0.311,4.958v0.78c1.6,-1.349 3.741,-2.083 6.426,-2.208c3.1,0.436 4.646,1.467 4.646,3.094v1.084c-0.516,2.301 -1.289,4.06 -2.32,5.269c-3.127,1.759 -6.558,2.697 -10.306,2.829h-1.705c-0.681,0 -1.329,0 -1.938,0V42.876L43.175,42.876zM46.196,42.955h0.311c4.727,-0.133 8.422,-0.973 11.079,-2.52c-1.21,-1.242 -2.089,-1.857 -2.631,-1.857h-1.242C50.176,38.704 47.671,40.165 46.196,42.955z" id="path_0"/><path fill="#009649" d="M56.151,19.224c1.587,0 2.38,0.979 2.38,2.928c0,3.107 -2.65,5.758 -7.959,7.939c-0.761,0.231 -0.853,-0.046 -0.271,-0.833c0.145,-0.298 1.395,-1.229 3.754,-2.789v-0.132c-1.018,-0.417 -1.526,-1.303 -1.526,-2.658c0.674,-2.968 1.745,-4.455 3.213,-4.455H56.151L56.151,19.224zM53.785,22.575c0,0.826 0.7,1.335 2.096,1.533h0.271c0.516,0 0.847,-0.191 0.984,-0.561c0,-0.84 -0.607,-1.495 -1.816,-1.958C54.79,21.59 54.281,21.921 53.785,22.575z" id="path_1"/><path fill="#000001" d="M43.856,47.291l-1.745,-0.02c-0.966,4.25 -3.523,6.398 -7.668,6.451c-2.222,0.1 -3.331,0.061 -3.331,-0.119c0.204,-0.389 1.691,-1.137 4.454,-2.247c2.843,-1.804 4.555,-2.969 5.15,-3.483l0.158,-0.463l-2.711,-0.43c-1.977,-0.516 -3.086,-1.508 -3.331,-2.981v-0.312c0,-2.505 0.614,-4.104 1.857,-4.805l0.933,-0.151c1.831,0 3.325,1.275 4.488,3.834c0.74,0.257 1.322,0.383 1.745,0.37V47.291z" id="path_2"/><path fill="#9e3b21" d="M24.951,21.259c0.311,0 0.621,1.038 0.932,3.102l1.395,3.1l-0.621,3.563l0.463,8.68v1.39c-0.205,3.542 -0.721,5.604 -1.547,6.199l-0.151,-0.151l0.151,-2.327c0,-2.089 -0.675,-8.753 -2.016,-19.983C24.204,22.449 24.666,21.259 24.951,21.259z" id="path_3"/><path fill="#000001" d="M35.426,23.757h1.533c1.857,0 2.789,0.694 2.789,2.09c-1.202,3.252 -2.663,4.978 -4.382,5.176l-2.029,0.271c-0.324,0 -0.456,-0.093 -0.41,-0.271c1.64,-0.865 3.173,-1.896 4.595,-3.08c-0.503,-0.47 -1.059,-0.701 -1.666,-0.701h-0.43L33.76,27.38l-0.133,-0.139v-0.271C34.414,24.828 35.017,23.757 35.426,23.757z" id="path_4"/></svg>