<svg id="vector" xmlns="http://www.w3.org/2000/svg" width="75" height="67" viewBox="0 0 83 73"><path fill="#304FFE" d="M54.875,37.394c0.925,0.931 1.806,2.94 2.633,6.041l0.158,2.016c0,3.644 -1.813,6.122 -5.428,7.438l-1.084,0.151l-2.75,0.04l-2.671,-0.04l-0.152,-0.151v-0.159c0.331,-0.357 2.553,-1.441 6.657,-3.253c2.585,-1.467 3.979,-2.763 4.185,-3.873c-1.343,-2.862 -2.011,-4.515 -2.011,-4.958v-0.463C54.412,38.324 54.565,37.394 54.875,37.394z" id="path_0"/><path fill="#304FFE" d="M53.771,24.218c1.587,0 2.381,0.979 2.381,2.929c0,3.106 -2.65,5.758 -7.959,7.939c-0.759,0.231 -0.853,-0.047 -0.271,-0.833c0.146,-0.298 1.395,-1.23 3.753,-2.79v-0.132c-1.017,-0.417 -1.524,-1.303 -1.524,-2.657c0.673,-2.969 1.744,-4.456 3.213,-4.456H53.771L53.771,24.218zM51.405,27.57c0,0.825 0.7,1.335 2.096,1.533h0.27c0.517,0 0.848,-0.191 0.986,-0.563c0,-0.84 -0.607,-1.493 -1.819,-1.956C52.41,26.585 51.9,26.915 51.405,27.57z" id="path_1"/><path fill="#FF6D00" d="M39.143,36.95h0.621c1.813,0 3.154,1.546 4.032,4.646l0.152,1.548c0.054,0.501 0.054,1.018 0,1.553c-0.463,1.884 -1.501,3.741 -3.1,5.572c-1.11,0.932 -3.636,1.651 -7.589,2.168c-0.462,-0.205 -0.728,-0.409 -0.773,-0.614c6.611,-3.59 9.914,-5.758 9.914,-6.512l0.153,-0.462L42.4,44.697l-1.394,0.463h-0.772c-2.79,0 -4.185,-0.984 -4.185,-2.942v-0.311c0.356,-3.206 1.136,-4.806 2.318,-4.806L39.143,36.95z" id="path_2"/><path fill="#00BFA5" d="M26.729,19.921c0.311,0 0.621,1.038 0.933,3.101l1.394,3.101l-0.621,3.563l0.465,8.68v1.389c-0.206,3.543 -0.722,5.604 -1.549,6.2l-0.151,-0.152l0.151,-2.326c0,-2.089 -0.674,-8.753 -2.016,-19.983C25.982,21.11 26.444,19.921 26.729,19.921z" id="path_3"/><path fill="#FF6D00" d="M35.563,22.301h1.532c1.859,0 2.791,0.695 2.791,2.089c-1.204,3.253 -2.665,4.978 -4.383,5.177l-2.029,0.271c-0.325,0 -0.457,-0.093 -0.412,-0.271c1.642,-0.867 3.176,-1.897 4.596,-3.081c-0.503,-0.469 -1.059,-0.7 -1.666,-0.7h-0.429l-1.667,0.139l-0.132,-0.139v-0.271C34.55,23.372 35.151,22.301 35.563,22.301z" id="path_4"/></svg>