<svg id="vector" xmlns="http://www.w3.org/2000/svg" width="75" height="67" viewBox="0 0 83 73"><path fill="#009649" d="M42.428,46.575c0.39,0.025 0.787,0.039 1.184,0.039h0.464l1.937,-0.463c-0.464,-0.866 -0.694,-1.468 -0.694,-1.805c0,-4.958 1.6,-7.437 4.799,-7.437l1.242,-0.151c1.626,0.257 3.694,1.235 6.195,2.941l0.157,0.622l-0.157,0.152h-0.617c-1.188,-0.827 -2.53,-1.237 -4.031,-1.237c-2.294,0 -4.204,0.667 -5.73,2.01v0.158c1.341,2.168 3.819,3.252 7.437,3.252c2.843,-1.03 4.699,-1.547 5.578,-1.547c-0.488,2.89 -1.42,4.337 -2.789,4.337c-6.121,2.373 -10.973,3.563 -14.563,3.563h-0.41V46.575z" id="path_0"/><path fill="#009649" d="M49.343,28.852c2.585,0.827 3.874,1.502 3.874,2.017v0.312c-0.88,2.273 -1.549,3.411 -2.01,3.411c-2.301,-1.012 -3.491,-1.68 -3.571,-2.016v-0.312C47.636,31.517 48.206,30.38 49.343,28.852z" id="path_1"/><path fill="#009649" d="M51.57,15.506c1.587,0 2.379,0.978 2.379,2.928c0,3.107 -2.649,5.758 -7.957,7.94c-0.762,0.23 -0.854,-0.047 -0.272,-0.834c0.146,-0.296 1.396,-1.229 3.756,-2.79v-0.131c-1.019,-0.416 -1.528,-1.302 -1.528,-2.657c0.674,-2.969 1.745,-4.456 3.213,-4.456H51.57L51.57,15.506zM49.204,18.857c0,0.825 0.699,1.335 2.096,1.533h0.271c0.517,0 0.847,-0.191 0.985,-0.561c0,-0.84 -0.608,-1.495 -1.818,-1.957C50.209,17.873 49.699,18.203 49.204,18.857z" id="path_2"/><path fill="#000000" d="M43.109,51.011l-1.746,-0.02c-0.965,4.249 -3.522,6.398 -7.667,6.451c-2.222,0.099 -3.333,0.059 -3.333,-0.119c0.205,-0.39 1.692,-1.137 4.456,-2.247c2.843,-1.806 4.555,-2.969 5.149,-3.484l0.159,-0.462l-2.711,-0.431c-1.976,-0.515 -3.087,-1.507 -3.332,-2.98v-0.312c0,-2.505 0.615,-4.105 1.858,-4.805l0.934,-0.152c1.829,0 3.324,1.275 4.486,3.833c0.741,0.259 1.322,0.384 1.746,0.37V51.011z" id="path_3"/><path fill="#F57C00" d="M24.203,24.979c0.312,0 0.621,1.039 0.932,3.1l1.396,3.102l-0.622,3.562l0.463,8.68v1.389c-0.204,3.543 -0.719,5.605 -1.547,6.201l-0.15,-0.152l0.15,-2.327c0,-2.089 -0.674,-8.751 -2.016,-19.983C23.457,26.169 23.919,24.979 24.203,24.979z" id="path_4"/><path fill="#000000" d="M35.563,30.452h1.532c1.859,0 2.791,0.693 2.791,2.089c-1.204,3.252 -2.665,4.977 -4.383,5.176l-2.029,0.27c-0.325,0 -0.457,-0.092 -0.412,-0.27c1.642,-0.867 3.176,-1.897 4.596,-3.08c-0.503,-0.471 -1.059,-0.702 -1.666,-0.702h-0.429l-1.667,0.14l-0.132,-0.14v-0.271C34.55,31.523 35.151,30.452 35.563,30.452z" id="path_5"/></svg>