<svg id="vector" xmlns="http://www.w3.org/2000/svg" width="75" height="67" viewBox="0 0 83 73"><path fill="#E64A19" d="M41.229,46.506h0.8h0.305h0.779c2.811,-0.206 4.516,-0.854 5.11,-1.937c0,-0.854 -0.979,-3.174 -2.942,-6.975l-0.311,-1.236c-0.336,-1.627 -0.323,-3.119 0.04,-4.476c0.356,-1.354 1.07,-2.294 2.129,-2.809c2.452,-1.653 7.152,-4.39 14.1,-8.211l0.151,0.159v0.305c-1.493,2.352 -2.631,4.521 -3.403,6.51h-0.311l-0.159,-0.772v-0.78l0.159,-0.152V25.98h-0.159c-5.757,3.325 -9.631,5.757 -11.621,7.278v0.158c2.175,4.389 3.358,7.74 3.569,10.067c0,1.652 -0.568,3.41 -1.705,5.269c-1.084,1.447 -3.252,2.168 -6.512,2.168h-0.02V46.506z" id="path_0"/><path fill="#E64A19" d="M49.505,15.595c1.586,0 2.379,0.979 2.379,2.929c0,3.106 -2.65,5.758 -7.958,7.938c-0.761,0.231 -0.853,-0.046 -0.271,-0.833c0.146,-0.296 1.396,-1.229 3.755,-2.789v-0.131c-1.018,-0.417 -1.526,-1.304 -1.526,-2.659c0.674,-2.967 1.745,-4.455 3.212,-4.455H49.505L49.505,15.595zM47.139,18.946c0,0.827 0.7,1.336 2.095,1.533h0.271c0.516,0 0.846,-0.191 0.984,-0.561c0,-0.84 -0.607,-1.495 -1.817,-1.957C48.144,17.962 47.635,18.291 47.139,18.946z" id="path_1"/><path fill="#1976D2" d="M41.91,50.921L40.164,50.9c-0.965,4.252 -3.523,6.399 -7.668,6.452c-2.221,0.1 -3.331,0.06 -3.331,-0.119c0.204,-0.39 1.692,-1.137 4.455,-2.247c2.843,-1.804 4.555,-2.969 5.15,-3.483l0.158,-0.462l-2.711,-0.432c-1.977,-0.515 -3.087,-1.505 -3.332,-2.98v-0.312c0,-2.505 0.615,-4.104 1.858,-4.805l0.932,-0.151c1.831,0 3.325,1.275 4.488,3.833c0.74,0.258 1.322,0.384 1.746,0.371V50.921z" id="path_2"/><path fill="#FFA000" d="M23.004,24.89c0.311,0 0.621,1.037 0.932,3.101l1.396,3.1l-0.622,3.563l0.464,8.679v1.389c-0.206,3.543 -0.721,5.604 -1.548,6.2l-0.151,-0.152l0.151,-2.326c0,-2.089 -0.674,-8.753 -2.016,-19.982C22.257,26.079 22.72,24.89 23.004,24.89z" id="path_3"/><path fill="#1976D2" d="M33.379,28.357h1.534c1.857,0 2.79,0.694 2.79,2.09c-1.204,3.251 -2.664,4.977 -4.383,5.176l-2.029,0.27c-0.324,0 -0.457,-0.092 -0.41,-0.27c1.639,-0.867 3.173,-1.897 4.594,-3.08c-0.502,-0.471 -1.057,-0.702 -1.666,-0.702h-0.429l-1.666,0.139l-0.132,-0.139V31.57C32.368,29.428 32.969,28.357 33.379,28.357z" id="path_4"/></svg>