<svg id="vector" xmlns="http://www.w3.org/2000/svg" width="75" height="67" viewBox="0 0 83 73"><path fill="#2979FF" d="M33.47,22.197h1.547c1.873,0 2.813,0.699 2.813,2.105c-1.214,3.281 -2.688,5.021 -4.421,5.221l-2.046,0.273c-0.327,0 -0.46,-0.094 -0.413,-0.273c1.652,-0.873 3.199,-1.914 4.633,-3.107c-0.507,-0.473 -1.066,-0.705 -1.68,-0.705H33.47l-1.68,0.139l-0.134,-0.139v-0.273C32.45,23.277 33.057,22.197 33.47,22.197L33.47,22.197z" id="path_0"/><path fill="#3D5AFE" d="M34.483,35.184h0.627c1.827,0 3.18,1.561 4.066,4.686l0.153,1.561c0.054,0.508 0.054,1.027 0,1.566c-0.467,1.9 -1.513,3.773 -3.126,5.621c-1.12,0.939 -3.667,1.666 -7.653,2.186c-0.467,-0.205 -0.733,-0.412 -0.78,-0.619c6.667,-3.619 10,-5.807 10,-6.566l0.153,-0.467l-0.153,-0.154l-1.407,0.467h-0.779c-2.813,0 -4.221,-0.992 -4.221,-2.967v-0.313c0.36,-3.234 1.147,-4.846 2.341,-4.846L34.483,35.184L34.483,35.184z" id="path_1"/><path fill="#000001" d="M54.484,22.523c0.16,-0.094 0.206,0.053 0.14,0.434c-0.887,2.08 -2.247,3.533 -4.08,4.354l-6.74,3.379c-0.286,-0.08 -0.34,-0.313 -0.16,-0.705c0.9,-1.734 1.514,-2.76 1.841,-3.088L54.484,22.523L54.484,22.523z" id="path_2"/><path fill="#000001" d="M50.343,35.184h0.627c1.826,0 3.18,1.561 4.066,4.686l0.153,1.561c0.054,0.508 0.054,1.027 0,1.566c-0.467,1.9 -1.514,3.773 -3.126,5.621c-1.121,0.939 -3.667,1.666 -7.654,2.186c-0.467,-0.205 -0.733,-0.412 -0.779,-0.619c6.666,-3.619 10,-5.807 10,-6.566l0.153,-0.467l-0.153,-0.154l-1.407,0.467h-0.78c-2.813,0 -4.22,-0.992 -4.22,-2.967v-0.313c0.36,-3.234 1.146,-4.846 2.34,-4.846L50.343,35.184L50.343,35.184z" id="path_3"/></svg>