<svg id="vector" xmlns="http://www.w3.org/2000/svg" width="75" height="67" viewBox="0 0 83 73"><path fill="#E64A19" d="M52.249,28.247c5.269,1.884 7.899,4.211 7.899,6.975l0.158,0.924c-0.442,3.617 -1.632,5.422 -3.569,5.422c0,0.338 -2.578,0.753 -7.74,1.242l-0.159,-0.463c0,-2.584 0.464,-3.873 1.396,-3.873c5.162,-0.417 8.005,-1.038 8.521,-1.863c-1.778,-1.726 -4.105,-3.121 -6.975,-4.179l-0.152,-0.779C51.707,29.384 51.912,28.247 52.249,28.247z" id="path_0"/><path fill="#E64A19" d="M51.779,20.963c1.27,0.211 2.506,0.984 3.722,2.327v0.31c-0.773,2.063 -1.342,3.094 -1.705,3.094c-2.479,-0.845 -3.716,-1.52 -3.716,-2.009C50.08,23.726 50.649,22.49 51.779,20.963z" id="path_1"/><path fill="#E64A19" d="M58.423,45.593c0.159,-0.087 0.205,0.053 0.14,0.43c-0.879,2.063 -2.229,3.503 -4.046,4.316l-6.684,3.351c-0.284,-0.077 -0.337,-0.31 -0.158,-0.692c0.893,-1.719 1.5,-2.737 1.824,-3.061L58.423,45.593z" id="path_2"/><path fill="#000001" d="M43.86,25.609c0.998,-0.085 1.514,0.172 1.547,0.78v0.925c-0.258,2.479 -0.516,3.723 -0.773,3.723h-0.152c-0.191,-0.728 -0.813,-1.085 -1.856,-1.085c-2.149,0 -4.417,1.6 -6.822,4.799v0.312c0,0.515 1.758,0.983 5.269,1.394c0.932,0.905 1.395,1.884 1.395,2.941c0,2.922 -2.578,6.068 -7.747,9.453c-1.342,0.72 -2.685,1.085 -4.026,1.085c-3.537,0 -6.068,-2.169 -7.595,-6.506c-0.489,-1.513 -0.535,-3.621 -0.132,-6.324c0.396,-2.705 1.593,-4.377 3.582,-5.025l0.271,0.04c0.391,0.205 0.106,0.792 -0.839,1.771c-0.952,0.972 -1.547,2.24 -1.792,3.808v1.235c0,2.479 1.343,4.495 4.026,6.043c0.932,0.416 1.91,0.621 2.941,0.621h0.622c2.994,0 5.988,-1.447 8.982,-4.336l-4.799,-1.084c-0.826,-0.55 -1.242,-1.27 -1.242,-2.176v-1.858c0.039,-2.842 1.381,-5.426 4.032,-7.766C39.729,27.362 41.435,26.436 43.86,25.609z" id="path_3"/><path fill="#000001" d="M33.657,19.31h1.534c1.858,0 2.79,0.694 2.79,2.09c-1.204,3.251 -2.665,4.977 -4.384,5.175l-2.029,0.271c-0.323,0 -0.456,-0.093 -0.41,-0.271c1.641,-0.866 3.174,-1.897 4.595,-3.08c-0.502,-0.47 -1.058,-0.701 -1.666,-0.701h-0.43l-1.666,0.138l-0.132,-0.138v-0.271C32.646,20.381 33.248,19.31 33.657,19.31z" id="path_4"/></svg>