<svg id="vector" xmlns="http://www.w3.org/2000/svg" width="75" height="67" viewBox="0 0 83 73"><path fill="#FF3D00" d="M30.394,30.624h1.547c1.873,0 2.813,0.699 2.813,2.106c-1.214,3.28 -2.687,5.02 -4.421,5.22l-2.046,0.273c-0.327,0 -0.46,-0.094 -0.413,-0.273c1.652,-0.873 3.199,-1.913 4.633,-3.106c-0.507,-0.474 -1.066,-0.707 -1.68,-0.707h-0.434l-1.68,0.14l-0.134,-0.14v-0.273C29.373,31.704 29.98,30.624 30.394,30.624L30.394,30.624z" id="path_0"/><path fill="#FF3D00" d="M48.035,50.604c-0.626,2.174 -2.526,4.573 -5.706,7.187c-1.913,1.36 -4.153,2.033 -6.714,2.033c-1.433,-0.326 -2.46,-0.653 -3.079,-0.973c-0.621,-0.327 -1.36,-1.047 -2.234,-2.153c-1.566,-2.08 -2.347,-4.007 -2.347,-5.78c0,-4.22 1.354,-7.601 4.067,-10.153c0.479,-0.34 0.687,-0.287 0.62,0.153c0,0.38 -0.78,1.84 -2.341,4.373c-0.626,1.267 -0.939,2.467 -0.939,3.594c0,1.62 1.146,3.387 3.439,5.313c1.627,0.9 3.394,1.268 5.313,1.094c2.26,0 5.073,-1.56 8.434,-4.687H48.035L48.035,50.604z" id="path_1"/><path fill="#2979FF" d="M48.42,13.203c0.16,-0.093 0.207,0.054 0.14,0.434c-0.887,2.08 -2.246,3.533 -4.079,4.354l-6.74,3.38c-0.287,-0.08 -0.34,-0.313 -0.16,-0.707c0.899,-1.732 1.514,-2.76 1.84,-3.086L48.42,13.203L48.42,13.203z" id="path_2"/><path fill="#2979FF" d="M41.12,23.337l2.967,2.033l0.16,0.627v0.153c-1.187,2.18 -1.867,3.273 -2.033,3.287c-1.667,-0.721 -2.813,-1.394 -3.44,-2.034v-0.939c0.42,-0.601 0.68,-1.174 0.78,-1.721C39.82,23.811 40.34,23.337 41.12,23.337L41.12,23.337z" id="path_3"/><path fill="#2979FF" d="M46.293,50.977h1.721c0.133,-0.613 0.166,-1.193 0.12,-1.739l-0.12,-1.914c0,-0.793 -1.927,-1.366 -5.78,-1.72V45.45c0.873,-1.173 3.946,-2.733 9.22,-4.687c1.407,-0.486 2.34,-1.007 2.807,-1.566c0.834,-0.688 1.254,-1.574 1.254,-2.653v-0.16l-6.094,2.033c-4.273,-0.727 -6.406,-1.873 -6.406,-3.434c0.939,-0.733 2.253,-1.1 3.946,-1.113l0.9,0.014c1.193,0 2.6,0.366 4.213,1.1l0.474,-0.474v-0.153c0,-0.26 -0.62,-0.913 -1.847,-1.966c-1.233,-1.047 -2.594,-1.641 -4.094,-1.787c-3.166,0 -4.986,1.88 -5.467,5.627v1.093c0,1.834 0.887,3.294 2.654,4.374v0.16c-0.221,0 -0.947,0.626 -2.188,1.873c-0.626,0.653 -0.939,1.899 -0.939,3.753v1.4c0,1.02 1.88,1.693 5.626,2.033V50.977L46.293,50.977z" id="path_4"/></svg>