<svg id="vector" xmlns="http://www.w3.org/2000/svg" width="75" height="67" viewBox="0 0 83 73"><path fill="#F44336" d="M25.48,24.59h1.547c1.873,0 2.813,0.7 2.813,2.106c-1.213,3.28 -2.687,5.021 -4.42,5.221l-2.046,0.272c-0.327,0 -0.461,-0.093 -0.414,-0.272c1.653,-0.874 3.2,-1.914 4.634,-3.107c-0.507,-0.474 -1.066,-0.706 -1.681,-0.706H25.48l-1.681,0.14l-0.133,-0.14v-0.273C24.46,25.67 25.067,24.59 25.48,24.59L25.48,24.59z" id="path_0"/><path fill="#F44336" d="M42.653,44.571c-0.627,2.173 -2.526,4.573 -5.707,7.187c-1.913,1.359 -4.153,2.033 -6.713,2.033c-1.434,-0.327 -2.46,-0.653 -3.08,-0.974c-0.62,-0.326 -1.36,-1.047 -2.233,-2.153c-1.566,-2.08 -2.347,-4.007 -2.347,-5.78c0,-4.22 1.354,-7.6 4.067,-10.153c0.479,-0.34 0.687,-0.286 0.619,0.153c0,0.38 -0.779,1.841 -2.34,4.374c-0.627,1.267 -0.939,2.466 -0.939,3.593c0,1.62 1.146,3.387 3.439,5.313c1.627,0.9 3.394,1.267 5.313,1.093c2.26,0 5.073,-1.56 8.434,-4.686H42.653L42.653,44.571z" id="path_1"/><path fill="#FF9800" d="M57.394,19.237c0.16,-0.094 0.206,0.054 0.14,0.434c-0.887,2.08 -2.247,3.533 -4.08,4.353l-6.74,3.381c-0.286,-0.08 -0.34,-0.313 -0.159,-0.707c0.899,-1.733 1.513,-2.76 1.84,-3.087L57.394,19.237L57.394,19.237z" id="path_2"/><path fill="#FF9800" d="M60.267,33.324c-0.479,-1.747 -1.979,-2.747 -4.493,-3.007c-1.507,0.14 -2.82,0.88 -3.94,2.227c-1.92,2.12 -3.113,3.84 -3.593,5.153l-0.474,-0.153l-0.627,-0.16c-1.666,-0.873 -2.499,-1.706 -2.499,-2.5c0,-0.913 0.159,-1.64 0.473,-2.187c0,-0.52 -0.313,-0.833 -0.939,-0.94c-0.627,-0.1 -1.514,0.04 -2.674,0.434c-1.16,0.387 -2.174,0.914 -3.04,1.573c-0.866,0.653 -1.593,1.507 -2.187,2.554c-0.594,1.054 -0.927,2.606 -1.007,4.66c0.106,1.2 0.521,2.033 1.254,2.5c2.38,0.233 3.946,0.493 4.687,0.779v0.314h1.133c0.167,-0.62 0.313,-1.301 0.427,-2.027c-0.04,-2.18 -0.713,-3.273 -2.033,-3.286c-2.16,-0.101 -3.566,-0.307 -4.213,-0.62v-0.313c1.666,-1.667 3.433,-2.5 5.313,-2.5c1.04,0.126 1.561,0.34 1.561,0.627v1.399c0,1.526 1.146,2.88 3.439,4.066l-0.473,3.28c0.08,0.521 0.286,0.521 0.626,0l0.94,-3.127l1.873,0.16c2.747,0 4.874,-0.439 6.374,-1.313c1.506,-0.867 2.593,-1.773 3.253,-2.7c0.667,-0.934 1,-2.04 1,-3.334v-0.779L60.267,33.324zM54.021,37.383c-0.313,0.146 -1.567,0.247 -3.754,0.313v-0.153c1.394,-2.606 3.167,-3.906 5.313,-3.906c0.927,0 2.073,0.52 3.44,1.56C58.394,36.057 56.727,36.784 54.021,37.383z" id="path_3"/></svg>