<svg id="vector" xmlns="http://www.w3.org/2000/svg" width="75" height="67" viewBox="0 0 83 73"><path fill="#D32F2F" d="M47.271,29.271h0.312c1.057,0.231 2.193,0.846 3.409,1.857v0.152c-0.7,2.122 -1.314,3.252 -1.856,3.411c-1.58,-0.312 -2.764,-0.826 -3.563,-1.547v-0.158C45.571,31.77 46.141,30.534 47.271,29.271z" id="path_0"/><path fill="#D32F2F" d="M53.008,27.876h0.152c1.057,0.153 2.248,0.873 3.563,2.168v0.152l-1.857,3.252c-2.479,-0.799 -3.721,-1.467 -3.721,-2.009C51.943,29.06 52.565,27.876 53.008,27.876z" id="path_1"/><path fill="#D32F2F" d="M45.895,45.4c4.06,0.04 6.328,-0.721 6.823,-2.288c0,-0.542 -0.516,-1.884 -1.554,-4.025l0.468,-4.026h0.306c1.348,2.32 2.016,4.646 2.016,6.967v1.395c0,0.932 -0.226,1.91 -0.668,2.935s-1.13,1.891 -2.049,2.584c-0.926,0.701 -2.704,0.992 -5.342,0.873V45.4z" id="path_2"/><path fill="#D32F2F" d="M51.436,16.699c1.586,0 2.378,0.978 2.378,2.928c0,3.106 -2.65,5.758 -7.957,7.939c-0.762,0.231 -0.854,-0.046 -0.271,-0.833c0.145,-0.297 1.394,-1.23 3.755,-2.79v-0.132c-1.019,-0.416 -1.528,-1.303 -1.528,-2.658c0.675,-2.968 1.745,-4.455 3.213,-4.455H51.436L51.436,16.699zM49.067,20.051c0,0.825 0.701,1.334 2.096,1.533h0.272c0.516,0 0.845,-0.191 0.984,-0.562c0,-0.839 -0.609,-1.494 -1.818,-1.956C50.073,19.065 49.563,19.396 49.067,20.051z" id="path_3"/><path fill="#303F9F" d="M46.576,49.816l-1.744,-0.02c-0.967,4.251 -3.524,6.399 -7.67,6.452c-2.22,0.099 -3.33,0.06 -3.33,-0.119c0.205,-0.39 1.692,-1.137 4.455,-2.248c2.842,-1.805 4.554,-2.968 5.149,-3.484l0.159,-0.462l-2.71,-0.429c-1.978,-0.517 -3.088,-1.508 -3.333,-2.981v-0.311c0,-2.505 0.616,-4.106 1.858,-4.806l0.931,-0.152c1.833,0 3.325,1.276 4.49,3.833c0.739,0.257 1.322,0.384 1.744,0.371V49.816z" id="path_4"/><path fill="#303F9F" d="M27.672,23.785c0.309,0 0.62,1.038 0.931,3.1l1.395,3.101l-0.62,3.563l0.462,8.679v1.389c-0.204,3.543 -0.722,5.605 -1.547,6.2l-0.152,-0.152l0.152,-2.326c0,-2.089 -0.674,-8.752 -2.016,-19.983C26.924,24.974 27.387,23.785 27.672,23.785z" id="path_5"/><path fill="#303F9F" d="M38.792,23.808h1.532c1.858,0 2.79,0.694 2.79,2.089c-1.203,3.252 -2.664,4.978 -4.383,5.176l-2.028,0.271c-0.325,0 -0.456,-0.092 -0.41,-0.271c1.639,-0.866 3.172,-1.897 4.595,-3.08c-0.503,-0.47 -1.059,-0.701 -1.667,-0.701h-0.429l-1.666,0.139l-0.133,-0.139v-0.271C37.78,24.879 38.381,23.808 38.792,23.808z" id="path_6"/></svg>