<svg id="vector" xmlns="http://www.w3.org/2000/svg" width="75" height="67" viewBox="0 0 83 73"><path fill="#D50000" d="M41.909,18.837h0.151l3.259,1.706v0.311c0,0.371 -0.621,1.56 -1.863,3.563c-1.898,-0.542 -2.981,-1.11 -3.253,-1.706L41.909,18.837z" id="path_0"/><path fill="#D50000" d="M47.64,17.905c1.369,0.728 2.453,1.448 3.252,2.169c-0.23,1.11 -0.951,2.3 -2.168,3.563h-0.151c-1.421,-0.589 -2.406,-1.263 -2.949,-2.01v-0.311C46.557,19.042 47.23,17.905 47.64,17.905z" id="path_1"/><path fill="#D50000" d="M43.456,13.106h0.158c0.866,0 1.996,0.773 3.404,2.32c0,0.489 -0.668,1.626 -2.009,3.411h-0.47c-1.831,-1.163 -2.764,-1.837 -2.79,-2.016v-0.151C41.757,15.829 42.318,14.64 43.456,13.106z" id="path_2"/><path fill="#D50000" d="M51.395,42.946l-2.941,-0.926c-0.568,-0.145 -1.447,-0.297 -2.631,-0.469v-0.152c-0.079,-2.598 0.595,-4.04 2.01,-4.336c1.037,-0.555 1.705,-1.177 2.016,-1.864c-0.105,-0.667 -1.547,-2.426 -4.336,-5.262c-0.146,-2.433 -0.126,-3.735 0.047,-3.927c0.178,-0.185 0.362,-0.218 0.574,-0.105c3.306,2.881 4.958,5.414 4.958,7.595c-0.079,1.428 -0.39,2.67 -0.932,3.715l-0.351,0.462c2.194,0.529 3.292,1.256 3.292,2.175v1.546c0,0.503 -0.073,1.018 -0.231,1.547H51.395z" id="path_3"/><path fill="#D50000" d="M53.232,51.796c0.158,-0.085 0.205,0.053 0.139,0.431c-0.879,2.062 -2.228,3.503 -4.046,4.316l-6.684,3.351c-0.283,-0.079 -0.336,-0.311 -0.157,-0.694c0.892,-1.719 1.501,-2.736 1.824,-3.06L53.232,51.796z" id="path_4"/><path fill="#2962FF" d="M52.736,42.946c-0.621,2.154 -2.505,4.535 -5.658,7.125c-1.896,1.348 -4.118,2.016 -6.656,2.016c-1.422,-0.325 -2.439,-0.648 -3.055,-0.965c-0.614,-0.324 -1.349,-1.038 -2.214,-2.135c-1.554,-2.062 -2.327,-3.973 -2.327,-5.731c0,-4.185 1.342,-7.536 4.032,-10.067c0.477,-0.337 0.681,-0.284 0.615,0.151c0,0.377 -0.773,1.825 -2.32,4.337c-0.621,1.256 -0.932,2.445 -0.932,3.563c0,1.606 1.136,3.358 3.41,5.269c1.613,0.893 3.364,1.255 5.269,1.084c2.24,0 5.03,-1.547 8.362,-4.647H52.736z" id="path_5"/><path fill="#2962FF" d="M32.107,20.041h1.533c1.858,0 2.79,0.694 2.79,2.089c-1.203,3.252 -2.664,4.977 -4.383,5.176l-2.029,0.271c-0.324,0 -0.456,-0.092 -0.41,-0.271c1.64,-0.866 3.173,-1.897 4.595,-3.081c-0.503,-0.47 -1.058,-0.701 -1.666,-0.701h-0.43l-1.666,0.139l-0.132,-0.139v-0.27C31.096,21.111 31.697,20.041 32.107,20.041z" id="path_6"/></svg>