<svg id="vector" xmlns="http://www.w3.org/2000/svg" width="75" height="67" viewBox="0 0 83 73"><path fill="#FF6D00" d="M46.387,40.662c-4.131,-0.31 -6.2,-0.826 -6.2,-1.552v-3.405c0,-2.169 2.167,-4.237 6.512,-6.2l0.151,-0.152v-0.158l-0.151,-0.464l-0.312,-2.789v-1.394c0,-1.138 0.358,-2.209 1.084,-3.214h0.152c1.11,-0.131 2.379,0.338 3.795,1.395c1.422,1.058 2.253,1.864 2.498,2.42s0.37,0.972 0.37,1.256c0,1.203 -0.568,2.545 -1.705,4.033c-6.869,2.233 -10.433,3.887 -10.689,4.957c2.453,0.231 4.158,0.489 5.11,0.772c1.903,0.543 2.307,2.043 1.221,4.495H46.387L46.387,40.662zM47.781,26.1c0.205,0.464 0.305,1.131 0.305,2.01v0.621l2.479,-0.931v-0.152L47.934,26.1H47.781z" id="path_0"/><path fill="#FF6D00" d="M54.96,44.299c0.158,-0.086 0.205,0.053 0.139,0.429c-0.879,2.063 -2.228,3.505 -4.045,4.318l-6.684,3.352c-0.284,-0.08 -0.336,-0.312 -0.159,-0.695c0.893,-1.719 1.501,-2.736 1.826,-3.062L54.96,44.299z" id="path_1"/><path fill="#213877" d="M48.223,40.505c-0.621,2.153 -2.946,4.535 -6.099,7.125c-1.898,1.35 -4.12,2.017 -6.657,2.017c-1.421,-0.324 -2.44,-0.647 -3.055,-0.966c-0.615,-0.322 -1.349,-1.038 -2.214,-2.136c-1.554,-2.062 -2.327,-3.973 -2.327,-5.73c0,-4.185 1.342,-7.536 4.032,-10.066c0.476,-0.338 0.681,-0.284 0.615,0.151c0,0.377 -0.774,1.824 -2.32,4.336c-0.621,1.257 -0.932,2.447 -0.932,3.563c0,1.605 1.137,3.358 3.411,5.269c1.611,0.893 3.363,1.255 5.268,1.084c2.241,0 5.03,-1.547 8.361,-4.646H48.223z" id="path_2"/><path fill="#213877" d="M32.759,20.604h1.532c1.859,0 2.791,0.694 2.791,2.09c-1.204,3.251 -2.664,4.978 -4.384,5.176L30.67,28.14c-0.324,0 -0.456,-0.093 -0.409,-0.271c1.638,-0.866 3.173,-1.897 4.593,-3.081c-0.502,-0.469 -1.058,-0.701 -1.666,-0.701h-0.429l-1.667,0.14l-0.131,-0.14v-0.271C31.746,21.675 32.35,20.604 32.759,20.604z" id="path_3"/></svg>