<svg id="vector" xmlns="http://www.w3.org/2000/svg" width="75" height="67" viewBox="0 0 83 73"><path fill="#D50000" d="M30.786,23.097h1.547c1.873,0 2.813,0.7 2.813,2.106c-1.214,3.28 -2.687,5.021 -4.42,5.221l-2.047,0.272c-0.327,0 -0.46,-0.093 -0.413,-0.272c1.653,-0.874 3.199,-1.914 4.633,-3.107c-0.507,-0.474 -1.066,-0.706 -1.68,-0.706h-0.434l-1.68,0.14l-0.134,-0.14v-0.273C29.766,24.177 30.373,23.097 30.786,23.097L30.786,23.097z" id="path_0"/><path fill="#D50000" d="M49.042,41.317c-0.626,2.173 -2.526,4.573 -5.706,7.187c-1.913,1.359 -4.153,2.033 -6.714,2.033c-1.433,-0.327 -2.46,-0.653 -3.079,-0.974c-0.62,-0.326 -1.36,-1.047 -2.233,-2.153c-1.567,-2.08 -2.348,-4.007 -2.348,-5.78c0,-4.22 1.354,-7.6 4.067,-10.153c0.479,-0.34 0.687,-0.286 0.62,0.153c0,0.38 -0.78,1.841 -2.34,4.374c-0.627,1.267 -0.94,2.466 -0.94,3.593c0,1.62 1.146,3.387 3.439,5.313c1.627,0.9 3.394,1.267 5.314,1.093c2.26,0 5.072,-1.56 8.433,-4.686H49.042L49.042,41.317z" id="path_1"/><path fill="#00BFA5" d="M46.789,14.93l-9,4.374c-0.326,0.326 -0.939,1.354 -1.84,3.086c-0.18,0.394 -0.127,0.627 0.16,0.707l6.74,-3.38c1.833,-0.82 3.193,-2.273 4.079,-4.354C46.996,14.983 46.949,14.837 46.789,14.93L46.789,14.93z" id="path_2"/><path fill="#00BFA5" d="M51.463,51.537c1.38,0.727 2.473,1.453 3.279,2.187c-0.232,1.12 -0.96,2.313 -2.187,3.593h-0.16c-1.427,-0.6 -2.42,-1.279 -2.966,-2.033v-0.313C50.369,52.677 51.043,51.537 51.463,51.537L51.463,51.537z" id="path_3"/><path fill="#00BFA5" d="M45.683,52.47h0.153l3.28,1.721v0.313c0,0.374 -0.62,1.574 -1.874,3.594c-1.913,-0.547 -3.006,-1.12 -3.28,-1.72L45.683,52.47L45.683,52.47z" id="path_4"/><path fill="#00BFA5" d="M47.729,41.317h1.486c0.153,-0.534 0.233,-1.054 0.233,-1.561v-1.56c0,-0.927 -1.106,-1.66 -3.32,-2.193l0.354,-0.467c0.547,-1.054 0.86,-2.307 0.934,-3.747c0,-2.2 -1.667,-4.753 -5,-7.66c-0.207,-0.113 -0.4,-0.08 -0.573,0.106c-0.174,0.193 -0.193,1.507 -0.047,3.96c2.813,2.86 4.267,4.634 4.373,5.308c-0.313,0.693 -0.986,1.319 -2.033,1.88c-1.434,0.3 -2.106,1.753 -2.026,4.373v0.153c1.193,0.173 2.08,0.327 2.653,0.474L47.729,41.317L47.729,41.317z" id="path_5"/></svg>