<svg id="vector" xmlns="http://www.w3.org/2000/svg" width="75" height="67" viewBox="0 0 83 73"><path fill="#00E5FF" d="M46.78,27.885l1.243,3.721c0.621,0.568 0.933,1.031 0.933,1.395l-1.085,4.648l0.152,2.479c0,6.081 -2.169,10.266 -6.505,12.545c-3.53,1.138 -6.008,1.707 -7.437,1.707l-0.159,-0.152v-0.312l3.253,-1.546c1.322,-0.607 3.074,-1.593 5.269,-2.948c2.38,-2.222 3.721,-3.768 4.032,-4.647l-0.391,-6.504l-0.389,-6.511C46.112,29.181 46.477,27.885 46.78,27.885z" id="path_0"/><path fill="#00E5FF" d="M51.93,18.648c0.159,-0.092 0.206,0.053 0.14,0.432c-0.879,2.062 -2.229,3.503 -4.046,4.315l-6.684,3.352c-0.284,-0.08 -0.337,-0.311 -0.158,-0.701c0.893,-1.718 1.501,-2.736 1.824,-3.061L51.93,18.648z" id="path_1"/><path fill="#FF3D00" d="M31.372,26.801c1.264,0 3.847,1.963 7.741,5.89c3,3.615 4.494,7.021 4.494,10.226v1.236c-0.078,2.169 -0.284,3.252 -0.62,3.252l-0.312,-0.303v-1.865c0,-2.941 -2.168,-6.558 -6.505,-10.841l-0.773,-0.47c-0.283,1.039 -0.542,1.554 -0.773,1.554l-3.722,-4.647l0.158,-3.873l0.153,-0.158H31.372z" id="path_2"/></svg>