<svg id="vector" xmlns="http://www.w3.org/2000/svg" width="75" height="67" viewBox="0 0 83 73"><path fill="#FFAB00" d="M55.877,27.542c0.925,0.931 1.803,2.941 2.63,6.041l0.159,2.017c0,3.643 -1.813,6.121 -5.427,7.437l-1.083,0.152l-2.751,0.039l-2.67,-0.039l-0.153,-0.152v-0.159c0.331,-0.356 2.553,-1.441 6.657,-3.252c2.584,-1.468 3.979,-2.764 4.185,-3.873c-1.343,-2.862 -2.01,-4.515 -2.01,-4.958V30.33C55.414,28.473 55.565,27.542 55.877,27.542z" id="path_0"/><path fill="#FFAB00" d="M58.526,46.017c0.159,-0.085 0.206,0.054 0.14,0.431c-0.879,2.063 -2.229,3.503 -4.046,4.316l-6.683,3.352c-0.285,-0.08 -0.338,-0.311 -0.159,-0.694c0.894,-1.719 1.501,-2.736 1.824,-3.06L58.526,46.017z" id="path_1"/><path fill="#9e3b21" d="M45.473,21.281c0.996,-0.086 1.513,0.172 1.546,0.78v0.926c-0.257,2.479 -0.516,3.721 -0.774,3.721h-0.149c-0.192,-0.727 -0.814,-1.083 -1.858,-1.083c-2.149,0 -4.416,1.599 -6.822,4.798v0.312c0,0.517 1.758,0.984 5.269,1.396c0.932,0.904 1.394,1.883 1.394,2.94c0,2.922 -2.577,6.068 -7.747,9.454c-1.343,0.72 -2.683,1.083 -4.024,1.083c-3.538,0 -6.068,-2.168 -7.597,-6.505c-0.488,-1.514 -0.534,-3.622 -0.132,-6.325c0.397,-2.705 1.594,-4.377 3.584,-5.025l0.27,0.04c0.392,0.206 0.106,0.795 -0.839,1.772c-0.953,0.971 -1.547,2.241 -1.791,3.807v1.237c0,2.479 1.342,4.494 4.024,6.041c0.933,0.417 1.91,0.622 2.942,0.622h0.622c2.993,0 5.989,-1.448 8.982,-4.336l-4.798,-1.085c-0.827,-0.548 -1.244,-1.27 -1.244,-2.175v-1.857c0.041,-2.843 1.383,-5.428 4.033,-7.768C41.34,23.033 43.045,22.107 45.473,21.281z" id="path_2"/><path fill="#9e3b21" d="M31.569,18.886h1.533c1.857,0 2.788,0.693 2.788,2.089c-1.201,3.251 -2.663,4.978 -4.381,5.176l-2.03,0.271c-0.323,0 -0.456,-0.093 -0.409,-0.271c1.639,-0.866 3.173,-1.897 4.594,-3.081c-0.503,-0.469 -1.057,-0.7 -1.665,-0.7h-0.43l-1.666,0.14l-0.133,-0.14v-0.271C30.558,19.956 31.158,18.886 31.569,18.886z" id="path_3"/></svg>