<svg id="vector" xmlns="http://www.w3.org/2000/svg" width="75" height="67" viewBox="0 0 83 73"><path fill="#00BCD4" d="M25.48,27.05h1.546c1.874,0 2.813,0.7 2.813,2.106c-1.213,3.28 -2.687,5.021 -4.42,5.221l-2.046,0.273c-0.327,0 -0.461,-0.094 -0.414,-0.273c1.653,-0.874 3.2,-1.914 4.634,-3.107c-0.507,-0.473 -1.067,-0.706 -1.681,-0.706H25.48l-1.681,0.14l-0.133,-0.14v-0.273C24.46,28.13 25.067,27.05 25.48,27.05L25.48,27.05z" id="path_0"/><path fill="#03A9F4" d="M42.653,47.031c-0.627,2.173 -2.526,4.573 -5.707,7.187c-1.913,1.36 -4.153,2.033 -6.713,2.033c-1.434,-0.326 -2.46,-0.653 -3.08,-0.974c-0.62,-0.326 -1.359,-1.047 -2.233,-2.153c-1.566,-2.08 -2.347,-4.007 -2.347,-5.78c0,-4.22 1.354,-7.6 4.067,-10.152c0.479,-0.341 0.687,-0.287 0.619,0.152c0,0.381 -0.779,1.841 -2.34,4.374c-0.626,1.267 -0.939,2.467 -0.939,3.593c0,1.62 1.146,3.387 3.439,5.313c1.627,0.9 3.394,1.267 5.313,1.094c2.26,0 5.073,-1.561 8.434,-4.687H42.653L42.653,47.031z" id="path_1"/><path fill="#FF5722" d="M53.88,16.777c0.16,-0.093 0.207,0.054 0.141,0.434c-0.887,2.08 -2.247,3.533 -4.08,4.354l-6.74,3.38c-0.287,-0.08 -0.34,-0.313 -0.16,-0.707c0.9,-1.732 1.514,-2.76 1.84,-3.086L53.88,16.777L53.88,16.777z" id="path_2"/><path fill="#FF5722" d="M49.78,26.097l2.967,2.026l0.16,0.627v0.16c-1.188,2.173 -1.867,3.267 -2.034,3.28c-1.666,-0.721 -2.813,-1.394 -3.439,-2.033v-0.94c0.42,-0.594 0.68,-1.167 0.786,-1.714C48.48,26.564 49,26.097 49.78,26.097L49.78,26.097z" id="path_3"/><path fill="#FF5722" d="M60.267,35.784c-0.479,-1.747 -1.979,-2.746 -4.493,-3.007c-1.507,0.141 -2.82,0.88 -3.94,2.227c-1.92,2.12 -3.113,3.841 -3.593,5.153l-0.474,-0.153l-0.627,-0.159c-1.666,-0.874 -2.499,-1.707 -2.499,-2.501c0,-0.913 0.159,-1.64 0.473,-2.187c0,-0.52 -0.313,-0.833 -0.939,-0.939c-0.627,-0.1 -1.514,0.04 -2.674,0.434c-1.16,0.386 -2.173,0.913 -3.04,1.573c-0.866,0.653 -1.593,1.507 -2.187,2.553c-0.594,1.054 -0.927,2.607 -1.007,4.66c0.106,1.2 0.521,2.033 1.254,2.5c2.38,0.233 3.946,0.493 4.687,0.78v0.313h1.133c0.167,-0.62 0.313,-1.301 0.427,-2.027c-0.04,-2.18 -0.713,-3.272 -2.033,-3.286c-2.16,-0.101 -3.566,-0.307 -4.213,-0.62v-0.313c1.666,-1.667 3.433,-2.5 5.313,-2.5c1.04,0.127 1.561,0.34 1.561,0.627v1.399c0,1.527 1.146,2.88 3.439,4.067l-0.473,3.279c0.08,0.521 0.286,0.521 0.626,0l0.94,-3.127l1.873,0.161c2.747,0 4.874,-0.44 6.374,-1.313c1.506,-0.867 2.593,-1.773 3.253,-2.7c0.667,-0.934 1,-2.04 1,-3.334v-0.779L60.267,35.784zM54.021,39.844c-0.313,0.146 -1.567,0.246 -3.754,0.313v-0.153c1.394,-2.606 3.167,-3.906 5.313,-3.906c0.927,0 2.073,0.52 3.44,1.56C58.394,38.517 56.727,39.244 54.021,39.844z" id="path_4"/></svg>