<svg id="vector" xmlns="http://www.w3.org/2000/svg" width="75" height="67" viewBox="0 0 83 73"><path fill="#673AB7" d="M29.357,30.42h1.547c1.873,0 2.813,0.7 2.813,2.106c-1.214,3.28 -2.688,5.021 -4.421,5.221l-2.046,0.273c-0.327,0 -0.46,-0.094 -0.413,-0.273c1.652,-0.874 3.199,-1.914 4.633,-3.107c-0.507,-0.473 -1.066,-0.706 -1.68,-0.706h-0.434l-1.68,0.14l-0.134,-0.14V33.66C28.336,31.5 28.944,30.42 29.357,30.42L29.357,30.42z" id="path_0"/><path fill="#673AB7" d="M46.53,50.4c-0.626,2.173 -2.526,4.573 -5.706,7.187c-1.913,1.36 -4.153,2.033 -6.714,2.033c-1.433,-0.326 -2.46,-0.653 -3.08,-0.974c-0.62,-0.326 -1.359,-1.047 -2.233,-2.153c-1.566,-2.08 -2.347,-4.007 -2.347,-5.78c0,-4.22 1.354,-7.6 4.067,-10.152c0.479,-0.341 0.687,-0.287 0.62,0.152c0,0.381 -0.78,1.841 -2.341,4.374c-0.626,1.267 -0.939,2.467 -0.939,3.593c0,1.62 1.146,3.387 3.439,5.313c1.627,0.9 3.394,1.267 5.313,1.094c2.26,0 5.073,-1.561 8.434,-4.687H46.53L46.53,50.4z" id="path_1"/><path fill="#009649" d="M55.824,13.407c0.16,-0.094 0.206,0.053 0.14,0.433c-0.887,2.08 -2.247,3.534 -4.08,4.354l-6.74,3.38c-0.286,-0.08 -0.34,-0.313 -0.159,-0.706c0.899,-1.733 1.513,-2.76 1.84,-3.087L55.824,13.407L55.824,13.407z" id="path_2"/><path fill="#009649" d="M49.517,23.92l2.967,2.027l0.16,0.626v0.16c-1.188,2.173 -1.867,3.267 -2.033,3.28c-1.667,-0.721 -2.813,-1.394 -3.44,-2.034V27.04c0.42,-0.593 0.68,-1.167 0.786,-1.713C48.216,24.387 48.737,23.92 49.517,23.92L49.517,23.92z" id="path_3"/><path fill="#009649" d="M52.017,31.927c-2.787,0 -5.287,1.247 -7.5,3.746V32.24l-0.16,-3.127c0.86,-1.326 1.333,-2.474 1.406,-3.439l-1.246,-2.654c-0.38,-0.466 -0.641,-0.939 -0.78,-1.406v-0.939l-0.16,-0.153c-0.36,0 -0.78,1.199 -1.246,3.593l0.152,4.533l0.78,8.907c-0.413,1.64 -1.04,3.307 -1.873,5c-1.38,1.753 -2.053,3.58 -2.033,5.467c0,0.626 0.313,1.093 0.939,1.406c2.54,0.206 4.153,0.521 4.847,0.934v0.159l-0.04,0.061h1.174c0.287,-1.033 0.427,-2.094 0.427,-3.187c-0.367,-1.04 -0.627,-1.561 -0.78,-1.561c0,-0.493 -1.46,-0.859 -4.373,-1.093c0,-0.3 0.573,-0.667 1.713,-1.094l1.094,-0.313c4.053,-0.546 6.866,-1.119 8.44,-1.72c2.499,-2.187 3.753,-4.167 3.753,-5.94v-0.779C56.55,33.36 55.037,32.366 52.017,31.927zM53.577,37.707c-6.286,1.807 -9.727,2.953 -10.313,3.439c0.2,-0.773 0.773,-1.76 1.721,-2.973c0.873,-1.207 2.853,-2.147 5.939,-2.813c1,0 1.88,0.239 2.627,0.706c0.746,0.467 1.12,0.86 1.12,1.174L53.577,37.707z" id="path_4"/></svg>