<svg id="vector" xmlns="http://www.w3.org/2000/svg" width="75" height="67" viewBox="0 0 83 73"><path fill="#1976D2" d="M45.715,42.271l0.08,-0.073c-3.616,-0.66 -5.421,-1.282 -5.421,-1.864v-2.789c0,-1.778 1.236,-3.378 3.715,-4.798v-2.017c0,-3.074 0.721,-5.812 2.168,-8.211c0.352,-1.547 0.662,-2.327 0.933,-2.327h0.312c0.111,0.826 0.681,1.652 1.704,2.479c3.867,2.108 5.937,3.59 6.194,4.449c0.258,0.858 0.311,2.01 0.152,3.456c-0.542,2.506 -0.905,3.888 -1.098,4.146c-0.198,0.258 -0.556,0.476 -1.071,0.655c-2.346,0 -5.083,-0.206 -8.209,-0.616c-2.155,0.979 -3.239,1.601 -3.253,1.857v0.152c2.915,0.456 4.568,0.919 4.958,1.395c0.622,0.582 0.933,1.303 0.933,2.168c0,0.582 -0.14,1.229 -0.41,1.938H45.715L45.715,42.271zM51.215,28.561l-0.621,2.169c0.403,0.204 0.972,0.31 1.706,0.31h0.932c0.72,-0.139 1.085,-0.297 1.085,-0.463c-0.934,-1.123 -1.965,-1.851 -3.102,-2.168V28.561L51.215,28.561zM47.031,26.393c-1.131,0.799 -1.699,1.778 -1.699,2.941c0.839,0.933 1.87,1.396 3.094,1.396c0.258,0 0.728,-0.411 1.395,-1.237C49.464,27.424 48.532,26.393 47.031,26.393z" id="path_0"/><path fill="#1976D2" d="M55.201,44.709c0.159,-0.085 0.205,0.053 0.14,0.431c-0.88,2.063 -2.229,3.504 -4.047,4.315l-6.683,3.353c-0.284,-0.079 -0.337,-0.311 -0.158,-0.694c0.893,-1.719 1.5,-2.736 1.824,-3.061L55.201,44.709z" id="path_1"/><path fill="#FBC02D" d="M47.269,41.728c-0.622,2.156 -2.505,4.535 -5.658,7.126c-1.896,1.35 -4.118,2.017 -6.656,2.017c-1.421,-0.323 -2.439,-0.647 -3.054,-0.965c-0.616,-0.324 -1.349,-1.038 -2.216,-2.135c-1.553,-2.063 -2.326,-3.974 -2.326,-5.731c0,-4.184 1.342,-7.536 4.032,-10.067c0.477,-0.337 0.682,-0.284 0.615,0.151c0,0.377 -0.773,1.825 -2.321,4.336c-0.62,1.257 -0.932,2.447 -0.932,3.564c0,1.606 1.138,3.358 3.411,5.268c1.613,0.893 3.364,1.257 5.269,1.084c2.241,0 5.031,-1.546 8.362,-4.647H47.269z" id="path_2"/><path fill="#FBC02D" d="M31.214,18.913h1.534c1.858,0 2.79,0.695 2.79,2.09c-1.203,3.252 -2.664,4.977 -4.383,5.176l-2.029,0.271c-0.324,0 -0.456,-0.093 -0.41,-0.271c1.639,-0.867 3.173,-1.898 4.594,-3.082c-0.502,-0.468 -1.058,-0.7 -1.666,-0.7h-0.43l-1.666,0.139l-0.132,-0.139v-0.271C30.202,19.984 30.804,18.913 31.214,18.913z" id="path_3"/></svg>