<svg id="vector" xmlns="http://www.w3.org/2000/svg" width="75" height="67" viewBox="0 0 83 73"><path fill="#6200EA" d="M38.164,47.185c0.211,0 0.43,0 0.662,0h0.158c1.93,-0.118 3.688,-1.726 5.262,-4.818c1.705,-2.585 3.463,-3.873 5.27,-3.873c2.273,0 3.41,1.439 3.41,4.336v0.773c0,1.422 -0.57,3.278 -1.707,5.579l-1.084,0.773c-0.957,0 -3.174,-0.675 -6.662,-2.017c-1.059,1.587 -1.883,2.552 -2.48,2.889c-0.904,0.629 -1.83,0.893 -2.787,0.774h-0.041V47.185L38.164,47.185zM45.951,43.913v0.152c2.686,1.038 4.289,1.553 4.807,1.553c0.203,0 0.309,-0.159 0.309,-0.469c-0.594,-1.547 -1.578,-2.32 -2.947,-2.32C47.168,42.829 46.441,43.192 45.951,43.913z" id="path_0"/><path fill="#6200EA" d="M50.947,26.35c0.16,-0.093 0.205,0.053 0.139,0.43c-0.877,2.063 -2.227,3.504 -4.045,4.316l-6.684,3.352c-0.283,-0.08 -0.336,-0.312 -0.156,-0.701c0.891,-1.719 1.498,-2.737 1.824,-3.061L50.947,26.35z" id="path_1"/><path fill="#000001" d="M38.496,51.602c-3.008,0.178 -5.197,-1.21 -6.566,-4.164c-0.66,-1.099 -1.275,-8.495 -1.857,-22.191v-0.312c0.383,-2.274 0.955,-3.411 1.699,-3.411l0.779,-0.152c0.953,0 2.4,0.311 4.338,0.927v0.311c-0.105,0.311 -0.418,0.469 -0.932,0.469h-2.631c-0.543,0 -1.059,0.305 -1.555,0.925c0.484,11.893 1.184,18.781 2.115,20.664c0.926,1.884 2.467,2.725 4.609,2.519V51.602z" id="path_2"/></svg>