<svg id="vector" xmlns="http://www.w3.org/2000/svg" width="75" height="67" viewBox="0 0 83 73"><path fill="#DD2C00" d="M31.347,21.604h1.547c1.873,0 2.813,0.699 2.813,2.106c-1.214,3.279 -2.687,5.02 -4.42,5.22l-2.047,0.273c-0.327,0 -0.46,-0.094 -0.413,-0.273c1.653,-0.873 3.2,-1.913 4.633,-3.106c-0.506,-0.474 -1.066,-0.707 -1.68,-0.707h-0.434l-1.68,0.14l-0.134,-0.14v-0.273C30.327,22.683 30.934,21.604 31.347,21.604L31.347,21.604z" id="path_0"/><path fill="#DD2C00" d="M43.873,28.376c-2.453,0.834 -4.166,1.767 -5.16,2.794c-2.666,2.359 -4.02,4.967 -4.06,7.833v1.873c0,0.914 0.413,1.641 1.247,2.193l4.847,1.094c-3.021,2.913 -6.04,4.373 -9.061,4.373h-0.626c-1.041,0 -2.034,-0.206 -2.974,-0.626c-2.707,-1.561 -4.061,-3.594 -4.061,-6.094V40.57c0.247,-1.58 0.854,-2.859 1.808,-3.84c0.959,-0.986 1.239,-1.58 0.853,-1.786l-0.273,-0.04c-2.006,0.653 -3.213,2.34 -3.613,5.066c-0.406,2.727 -0.359,4.854 0.134,6.38c1.54,4.373 4.087,6.561 7.653,6.561c1.359,0 2.713,-0.367 4.066,-1.094c5.207,-3.413 7.813,-6.587 7.813,-9.533c0,-1.067 -0.474,-2.054 -1.406,-2.967c-3.54,-0.413 -5.313,-0.887 -5.313,-1.407v-0.313c2.42,-3.227 4.713,-4.84 6.873,-4.84c1.054,0 1.68,0.359 1.873,1.093h0.16c0.26,0 0.521,-1.253 0.78,-3.753v-0.934C45.394,28.55 44.873,28.291 43.873,28.376L43.873,28.376z" id="path_1"/><path fill="#000001" d="M58.514,20.117c0.16,-0.093 0.206,0.054 0.14,0.434c-0.887,2.08 -2.247,3.533 -4.08,4.354l-6.74,3.38c-0.286,-0.08 -0.34,-0.313 -0.159,-0.707c0.899,-1.733 1.513,-2.76 1.84,-3.087L58.514,20.117L58.514,20.117z" id="path_2"/><path fill="#000001" d="M52.347,31.037c5.313,1.9 7.967,4.247 7.967,7.033l0.16,0.934c-0.447,3.646 -1.646,5.467 -3.601,5.467c0,0.34 -2.6,0.76 -7.806,1.253l-0.161,-0.466c0,-2.607 0.468,-3.907 1.407,-3.907c5.207,-0.42 8.073,-1.047 8.594,-1.88c-1.794,-1.74 -4.141,-3.146 -7.034,-4.213L51.72,34.47C51.8,32.183 52.007,31.037 52.347,31.037L52.347,31.037z" id="path_3"/></svg>