<svg id="vector" xmlns="http://www.w3.org/2000/svg" width="75" height="67" viewBox="0 0 83 73"><path fill="#0097A7" d="M52.249,26.955c5.269,1.885 7.898,4.211 7.898,6.974l0.159,0.926c-0.443,3.615 -1.633,5.42 -3.569,5.42c0,0.338 -2.578,0.754 -7.74,1.242l-0.159,-0.462c0,-2.585 0.463,-3.874 1.396,-3.874c5.162,-0.416 8.005,-1.038 8.521,-1.863c-1.778,-1.726 -4.105,-3.12 -6.975,-4.178l-0.152,-0.78C51.707,28.092 51.911,26.955 52.249,26.955z" id="path_0"/><path fill="#0097A7" d="M58.423,44.479c0.158,-0.087 0.205,0.053 0.139,0.43c-0.879,2.063 -2.228,3.504 -4.045,4.317l-6.684,3.352c-0.284,-0.079 -0.337,-0.312 -0.158,-0.694c0.893,-1.72 1.501,-2.736 1.824,-3.061L58.423,44.479z" id="path_1"/><path fill="#E64A19" d="M43.86,24.317c0.998,-0.086 1.514,0.172 1.547,0.78v0.925c-0.258,2.479 -0.516,3.723 -0.773,3.723h-0.152c-0.191,-0.728 -0.813,-1.085 -1.857,-1.085c-2.148,0 -4.415,1.6 -6.821,4.799v0.312c0,0.516 1.758,0.984 5.268,1.395c0.933,0.905 1.396,1.884 1.396,2.941c0,2.922 -2.578,6.068 -7.748,9.453c-1.342,0.721 -2.684,1.083 -4.025,1.083c-3.537,0 -6.067,-2.168 -7.595,-6.504c-0.489,-1.514 -0.536,-3.622 -0.133,-6.325c0.396,-2.704 1.593,-4.377 3.583,-5.024l0.271,0.039c0.391,0.206 0.106,0.794 -0.839,1.772c-0.952,0.971 -1.547,2.24 -1.792,3.807v1.237c0,2.479 1.342,4.494 4.026,6.041c0.932,0.416 1.91,0.622 2.941,0.622h0.621c2.995,0 5.989,-1.448 8.983,-4.336l-4.799,-1.085c-0.826,-0.55 -1.243,-1.27 -1.243,-2.176v-1.856c0.04,-2.843 1.382,-5.427 4.033,-7.768C39.729,26.069 41.435,25.145 43.86,24.317z" id="path_2"/><path fill="#E64A19" d="M28.566,20.423H30.1c1.857,0 2.789,0.694 2.789,2.089c-1.203,3.253 -2.663,4.979 -4.382,5.176l-2.029,0.271c-0.325,0 -0.457,-0.093 -0.41,-0.271c1.639,-0.866 3.173,-1.897 4.594,-3.081c-0.503,-0.468 -1.058,-0.699 -1.666,-0.699h-0.429L26.9,24.045l-0.133,-0.138v-0.271C27.555,21.494 28.156,20.423 28.566,20.423z" id="path_3"/></svg>