<svg id="vector" xmlns="http://www.w3.org/2000/svg" width="75" height="67" viewBox="0 0 83 73"><path fill="#000001" d="M35.896,29.6h1.547c1.873,0 2.814,0.7 2.814,2.106c-1.215,3.28 -2.688,5.021 -4.422,5.221L33.791,37.2c-0.328,0 -0.461,-0.093 -0.414,-0.272c1.652,-0.874 3.199,-1.914 4.633,-3.107c-0.506,-0.473 -1.066,-0.706 -1.68,-0.706h-0.434l-1.68,0.14l-0.133,-0.14V32.84C34.877,30.68 35.484,29.6 35.896,29.6L35.896,29.6z" id="path_0"/><path fill="#000001" d="M43.143,51.086l-1.76,-0.02c-0.973,4.287 -3.553,6.453 -7.732,6.507c-2.24,0.1 -3.361,0.06 -3.361,-0.12c0.207,-0.394 1.707,-1.146 4.494,-2.267c2.867,-1.82 4.594,-2.993 5.193,-3.514l0.16,-0.467l-2.734,-0.433c-1.992,-0.521 -3.113,-1.521 -3.359,-3.007v-0.313c0,-2.526 0.621,-4.141 1.873,-4.847l0.941,-0.153c1.846,0 3.354,1.287 4.525,3.866c0.748,0.26 1.334,0.387 1.76,0.373V51.086L43.143,51.086z" id="path_1"/><path fill="#2962FF" d="M50.777,15.4c0.16,-0.093 0.205,0.053 0.139,0.434c-0.887,2.08 -2.246,3.533 -4.08,4.353l-6.74,3.38c-0.285,-0.08 -0.34,-0.313 -0.158,-0.707c0.898,-1.733 1.512,-2.76 1.84,-3.086L50.777,15.4L50.777,15.4z" id="path_2"/><path fill="#2962FF" d="M42.457,46.633v4.453c2.66,0.12 4.453,-0.173 5.387,-0.88c0.926,-0.7 1.619,-1.573 2.066,-2.606s0.674,-2.02 0.674,-2.96v-1.406c0,-2.341 -0.674,-4.688 -2.033,-7.027h-0.307l-0.475,4.061c1.047,2.159 1.566,3.513 1.566,4.06C48.836,45.907 46.551,46.673 42.457,46.633L42.457,46.633z" id="path_3"/><path fill="#2962FF" d="M45.057,24.193c2.393,0.987 3.594,1.82 3.594,2.501l-2.033,3.126h-0.154c-0.439,0 -1.639,-0.626 -3.592,-1.88C43.83,25.44 44.563,24.193 45.057,24.193L45.057,24.193z" id="path_4"/><path fill="#2962FF" d="M48.811,28.727c-0.814,0.646 -1.486,1.847 -2.033,3.593c0.752,0.88 2.006,1.667 3.746,2.34c1.307,-1.692 2.033,-2.786 2.188,-3.279C52.711,30.727 51.41,29.84 48.811,28.727L48.811,28.727z" id="path_5"/><path fill="#2962FF" d="M43.184,29.507c-1.146,1.873 -1.721,3.119 -1.721,3.746v0.16c1.326,1.246 2.32,1.873 2.967,1.873h0.314c1.252,-1.773 1.873,-2.92 1.873,-3.439C44.977,30.287 43.83,29.507 43.184,29.507L43.184,29.507z" id="path_6"/></svg>