<svg id="vector" xmlns="http://www.w3.org/2000/svg" width="75" height="67" viewBox="0 0 83 73"><path fill="#F57C00" d="M50.044,32.815c5.268,1.885 7.898,4.211 7.898,6.974l0.16,0.925c-0.444,3.617 -1.633,5.422 -3.569,5.422c0,0.336 -2.579,0.753 -7.741,1.242l-0.159,-0.463c0,-2.584 0.463,-3.873 1.396,-3.873c5.162,-0.417 8.005,-1.039 8.521,-1.864c-1.778,-1.727 -4.105,-3.12 -6.974,-4.178l-0.152,-0.781C49.501,33.952 49.706,32.815 50.044,32.815z" id="path_0"/><path fill="#F57C00" d="M51.882,19.139c1.586,0 2.378,0.978 2.378,2.928c0,3.106 -2.65,5.758 -7.958,7.939c-0.76,0.231 -0.852,-0.046 -0.271,-0.832c0.146,-0.298 1.395,-1.23 3.755,-2.79V26.25c-1.018,-0.416 -1.527,-1.302 -1.527,-2.657c0.674,-2.968 1.745,-4.455 3.213,-4.455H51.882L51.882,19.139zM49.515,22.49c0,0.826 0.701,1.336 2.095,1.534h0.272c0.515,0 0.845,-0.191 0.984,-0.562c0,-0.84 -0.609,-1.494 -1.818,-1.956C50.52,21.505 50.011,21.836 49.515,22.49z" id="path_1"/><path fill="#1976D2" d="M38.707,38.374h0.621c1.812,0 3.153,1.548 4.033,4.647l0.152,1.547c0.053,0.503 0.053,1.018 0,1.554c-0.463,1.884 -1.501,3.741 -3.101,5.572c-1.111,0.932 -3.635,1.652 -7.588,2.168c-0.463,-0.204 -0.728,-0.409 -0.773,-0.614c6.61,-3.59 9.915,-5.759 9.915,-6.512l0.153,-0.462l-0.153,-0.152l-1.394,0.463h-0.774c-2.79,0 -4.184,-0.985 -4.184,-2.942v-0.311c0.357,-3.206 1.137,-4.806 2.32,-4.806L38.707,38.374z" id="path_2"/><path fill="#388E3C" d="M26.293,21.347c0.311,0 0.622,1.038 0.932,3.1l1.395,3.101l-0.622,3.563l0.462,8.679v1.389c-0.204,3.542 -0.72,5.604 -1.546,6.2l-0.152,-0.151l0.152,-2.328c0,-2.089 -0.675,-8.752 -2.017,-19.983C25.546,22.537 26.009,21.347 26.293,21.347z" id="path_3"/><path fill="#1976D2" d="M36.129,23.244h1.533c1.857,0 2.789,0.694 2.789,2.089c-1.203,3.252 -2.664,4.978 -4.382,5.177l-2.029,0.27c-0.325,0 -0.457,-0.092 -0.41,-0.27c1.639,-0.867 3.173,-1.898 4.594,-3.081c-0.502,-0.47 -1.057,-0.701 -1.666,-0.701h-0.429l-1.667,0.139l-0.132,-0.139v-0.271C35.118,24.315 35.719,23.244 36.129,23.244z" id="path_4"/></svg>