<svg id="vector" xmlns="http://www.w3.org/2000/svg" width="75" height="67" viewBox="0 0 83 73"><path fill="#009688" d="M40.108,42.575h1.784c1.884,-0.258 4.878,-0.958 8.983,-2.089v-0.159c-3.741,-1.653 -6.115,-2.479 -7.125,-2.479c-1.368,0 -2.294,0.774 -2.79,2.327l-0.463,0.311c-0.205,0 -0.311,-0.159 -0.311,-0.47c0.516,-3.093 1.91,-4.647 4.185,-4.647h0.773c0.958,0 4.211,1.085 9.763,3.253l4.185,0.31l0.304,0.469c-0.072,0.694 -0.693,2.037 -1.857,4.026h-0.463l-0.62,-0.159h-0.773c-8.059,2.379 -12.759,3.616 -14.101,3.721h-1.474V42.575z" id="path_0"/><path fill="#009688" d="M50.645,19.524c1.587,0 2.38,0.978 2.38,2.928c0,3.107 -2.65,5.758 -7.958,7.939c-0.761,0.231 -0.854,-0.046 -0.272,-0.833c0.146,-0.298 1.396,-1.229 3.756,-2.79v-0.132c-1.019,-0.417 -1.527,-1.302 -1.527,-2.658c0.675,-2.968 1.745,-4.455 3.213,-4.455H50.645L50.645,19.524zM48.278,22.876c0,0.826 0.701,1.335 2.096,1.534h0.271c0.516,0 0.847,-0.192 0.985,-0.562c0,-0.839 -0.608,-1.494 -1.818,-1.957C49.284,21.891 48.774,22.221 48.278,22.876z" id="path_1"/><path fill="#213877" d="M40.789,46.99l-1.745,-0.021c-0.966,4.251 -3.523,6.399 -7.668,6.453c-2.221,0.099 -3.332,0.059 -3.332,-0.12c0.205,-0.39 1.692,-1.137 4.455,-2.247c2.844,-1.805 4.555,-2.969 5.15,-3.483l0.158,-0.463l-2.71,-0.43c-1.977,-0.515 -3.088,-1.506 -3.332,-2.981v-0.311c0,-2.505 0.615,-4.104 1.857,-4.806l0.933,-0.151c1.831,0 3.325,1.275 4.488,3.834c0.74,0.257 1.322,0.383 1.745,0.37V46.99z" id="path_2"/><path fill="#000001" d="M24.997,20.958c0.312,0 0.621,1.038 0.933,3.1l1.395,3.101l-0.621,3.563l0.463,8.68v1.389c-0.205,3.543 -0.721,5.605 -1.548,6.2l-0.151,-0.152l0.151,-2.327c0,-2.089 -0.674,-8.752 -2.016,-19.983C24.25,22.148 24.713,20.958 24.997,20.958z" id="path_3"/><path fill="#213877" d="M34.36,23.808h1.534c1.857,0 2.79,0.694 2.79,2.089c-1.204,3.252 -2.665,4.978 -4.383,5.176l-2.029,0.271c-0.324,0 -0.456,-0.092 -0.41,-0.271c1.639,-0.866 3.173,-1.897 4.594,-3.08c-0.502,-0.47 -1.058,-0.701 -1.665,-0.701H34.36l-1.665,0.139l-0.133,-0.139v-0.271C33.35,24.879 33.951,23.808 34.36,23.808z" id="path_4"/></svg>