<svg id="vector" xmlns="http://www.w3.org/2000/svg" width="75" height="67" viewBox="0 0 83 73"><path fill="#E64A19" d="M52.107,17.744c0.313,0 0.621,1.038 0.934,3.101l1.395,3.1l-0.621,3.564l0.463,8.678v1.389c-0.205,3.544 -0.721,5.605 -1.549,6.2l-0.15,-0.152l0.15,-2.326c0,-2.088 -0.672,-8.753 -2.016,-19.983C51.363,18.934 51.824,17.744 52.107,17.744z" id="path_0"/><path fill="#E64A19" d="M58.07,47.16c0.16,-0.086 0.207,0.054 0.141,0.429c-0.879,2.063 -2.229,3.505 -4.047,4.316l-6.682,3.354c-0.285,-0.08 -0.338,-0.313 -0.16,-0.694c0.895,-1.72 1.502,-2.737 1.824,-3.062L58.07,47.16z" id="path_1"/><path fill="#00796B" d="M45.928,26.575c0.998,-0.086 1.514,0.171 1.549,0.78v0.925c-0.26,2.479 -0.518,3.723 -0.775,3.723h-0.152c-0.189,-0.728 -0.813,-1.085 -1.855,-1.085c-2.15,0 -4.416,1.6 -6.824,4.8v0.312c0,0.515 1.76,0.983 5.27,1.394c0.932,0.905 1.395,1.884 1.395,2.941c0,2.923 -2.578,6.069 -7.748,9.454c-1.342,0.719 -2.682,1.083 -4.025,1.083c-3.537,0 -6.068,-2.169 -7.594,-6.505c-0.49,-1.514 -0.537,-3.622 -0.133,-6.325c0.396,-2.705 1.592,-4.377 3.582,-5.025l0.271,0.04c0.391,0.205 0.105,0.792 -0.84,1.772c-0.953,0.972 -1.547,2.241 -1.791,3.807v1.236c0,2.479 1.342,4.495 4.025,6.043c0.932,0.416 1.91,0.621 2.941,0.621h0.621c2.996,0 5.99,-1.447 8.984,-4.336l-4.799,-1.084c-0.828,-0.55 -1.244,-1.27 -1.244,-2.176v-1.857c0.041,-2.843 1.383,-5.427 4.033,-7.768C41.799,28.327 43.502,27.401 45.928,26.575z" id="path_2"/><path fill="#00796B" d="M32.374,24.191h1.533c1.858,0 2.789,0.693 2.789,2.089c-1.202,3.252 -2.664,4.977 -4.382,5.176l-2.03,0.271c-0.324,0 -0.456,-0.092 -0.409,-0.271c1.64,-0.866 3.173,-1.897 4.595,-3.08c-0.505,-0.47 -1.059,-0.702 -1.668,-0.702h-0.428l-1.666,0.141l-0.133,-0.141v-0.271C31.362,25.263 31.963,24.191 32.374,24.191z" id="path_3"/></svg>