<svg id="vector" xmlns="http://www.w3.org/2000/svg" width="75" height="67" viewBox="0 0 83 73"><path fill="#3949AB" d="M35.079,23.767h1.547c1.873,0 2.813,0.7 2.813,2.107c-1.213,3.279 -2.687,5.02 -4.42,5.22l-2.046,0.273c-0.327,0 -0.46,-0.094 -0.414,-0.273c1.653,-0.873 3.2,-1.913 4.634,-3.107c-0.507,-0.473 -1.066,-0.706 -1.681,-0.706h-0.433l-1.681,0.14l-0.133,-0.14v-0.273C34.059,24.847 34.666,23.767 35.079,23.767L35.079,23.767z" id="path_0"/><path fill="#3949AB" d="M42.325,45.254l-1.76,-0.021c-0.974,4.287 -3.553,6.453 -7.733,6.507c-2.24,0.1 -3.36,0.06 -3.36,-0.12c0.207,-0.394 1.707,-1.146 4.494,-2.267c2.866,-1.82 4.593,-2.993 5.193,-3.514l0.159,-0.467l-2.733,-0.433c-1.993,-0.521 -3.113,-1.521 -3.359,-3.007V41.62c0,-2.526 0.62,-4.14 1.873,-4.847l0.94,-0.153c1.847,0 3.354,1.287 4.526,3.866c0.747,0.261 1.333,0.387 1.76,0.374V45.254L42.325,45.254z" id="path_1"/><path fill="#9e3b21" d="M53.358,19.606c0.16,-0.093 0.207,0.054 0.141,0.434c-0.887,2.08 -2.247,3.533 -4.08,4.354l-6.74,3.38c-0.286,-0.08 -0.34,-0.313 -0.16,-0.707c0.9,-1.732 1.514,-2.76 1.84,-3.086L53.358,19.606L53.358,19.606z" id="path_2"/><path fill="#9e3b21" d="M41.639,40.801v4.453c2.66,0.119 4.453,-0.174 5.387,-0.88c0.927,-0.7 1.62,-1.574 2.066,-2.607c0.447,-1.033 0.674,-2.02 0.674,-2.96V37.4c0,-2.34 -0.674,-4.687 -2.033,-7.026h-0.307l-0.474,4.06c1.047,2.16 1.566,3.514 1.566,4.06C48.019,40.073 45.732,40.84 41.639,40.801L41.639,40.801z" id="path_3"/><path fill="#9e3b21" d="M48.813,46.54h0.152c1.067,0.16 2.268,0.887 3.594,2.187v0.16l-1.873,3.28c-2.5,-0.807 -3.754,-1.487 -3.754,-2.033C47.739,47.74 48.365,46.54 48.813,46.54L48.813,46.54z" id="path_4"/><path fill="#9e3b21" d="M43.025,47.946c-1.14,1.28 -1.713,2.527 -1.713,3.754v0.153c0.807,0.733 2,1.253 3.593,1.566c0.547,-0.16 1.167,-1.307 1.873,-3.439v-0.153c-1.227,-1.021 -2.373,-1.646 -3.439,-1.881H43.025z" id="path_5"/></svg>