<svg id="vector" xmlns="http://www.w3.org/2000/svg" width="75" height="67" viewBox="0 0 83 73"><path fill="#2196F3" d="M35.549,27.724h1.546c1.874,0 2.813,0.699 2.813,2.106c-1.214,3.28 -2.687,5.02 -4.42,5.22l-2.047,0.273c-0.327,0 -0.46,-0.093 -0.413,-0.273c1.653,-0.873 3.2,-1.913 4.633,-3.106c-0.506,-0.474 -1.066,-0.707 -1.68,-0.707h-0.433l-1.681,0.141l-0.133,-0.141v-0.273C34.529,28.804 35.135,27.724 35.549,27.724L35.549,27.724z" id="path_0"/><path fill="#2196F3" d="M42.795,49.21l-1.76,-0.021c-0.974,4.287 -3.554,6.454 -7.733,6.507c-2.24,0.101 -3.36,0.061 -3.36,-0.12c0.207,-0.393 1.707,-1.146 4.493,-2.267c2.867,-1.819 4.594,-2.993 5.193,-3.513l0.16,-0.467l-2.733,-0.434c-1.993,-0.52 -3.113,-1.52 -3.36,-3.007v-0.313c0,-2.526 0.62,-4.14 1.874,-4.847l0.939,-0.152c1.847,0 3.354,1.286 4.527,3.866c0.746,0.26 1.333,0.387 1.76,0.373V49.21L42.795,49.21z" id="path_1"/><path fill="#FF9800" d="M52.888,17.276c0.16,-0.093 0.207,0.054 0.141,0.434c-0.887,2.08 -2.247,3.533 -4.08,4.354l-6.74,3.38c-0.286,-0.08 -0.34,-0.313 -0.16,-0.707c0.9,-1.733 1.514,-2.76 1.84,-3.087L52.888,17.276L52.888,17.276z" id="path_2"/><path fill="#FF9800" d="M42.109,44.757v4.453c2.659,0.12 4.453,-0.173 5.386,-0.88c0.927,-0.7 1.62,-1.573 2.067,-2.606c0.446,-1.034 0.673,-2.021 0.673,-2.96v-1.407c0,-2.34 -0.673,-4.687 -2.033,-7.026h-0.307l-0.473,4.06c1.046,2.16 1.566,3.514 1.566,4.061C48.489,44.03 46.202,44.797 42.109,44.757L42.109,44.757z" id="path_3"/><path fill="#FF9800" d="M46.562,26.75c1.54,0.493 2.74,1.12 3.593,1.873v0.313c0,0.521 -0.566,1.667 -1.713,3.44c-1.066,0 -2.267,-0.574 -3.593,-1.721v-0.313C44.849,29.224 45.421,28.023 46.562,26.75z" id="path_4"/></svg>