<svg id="vector" xmlns="http://www.w3.org/2000/svg" width="75" height="67" viewBox="0 0 83 73"><path fill="#000001" d="M55.758,33.753c0.873,0 2.063,0.722 3.564,2.169v0.311c-1.012,2.168 -1.68,3.252 -2.018,3.252l-3.563,-2.01h-0.158c-1.004,1.726 -1.674,2.657 -2.012,2.783h-0.156c-2.268,-1.004 -3.404,-1.777 -3.404,-2.32c0.826,-2.274 1.545,-3.41 2.168,-3.41l3.715,2.017C54.49,35.327 55.109,34.401 55.758,33.753z" id="path_0"/><path fill="#000001" d="M51.727,28.954c1.012,0 2.143,0.873 3.41,2.631c-0.336,0.801 -1.01,1.732 -2.016,2.79h-0.311c-0.9,-0.205 -1.885,-0.774 -2.941,-1.706v-0.463C49.947,31.381 50.563,30.296 51.727,28.954z" id="path_1"/><path fill="#000001" d="M41.75,45.896h0.061c2.4,-0.104 4.053,-1.261 4.959,-3.482c0,-0.312 0.203,-0.568 0.621,-0.78h0.309c0.207,0 0.313,0.158 0.313,0.469l-0.16,0.926c0.881,1.555 1.813,2.328 2.791,2.328h0.773c1.34,0 2.379,-1.343 3.1,-4.026h0.158c0.152,0.021 0.41,0.641 0.775,1.856c0.877,0.773 1.75,1.237 2.629,1.396c1.031,0 1.555,-0.623 1.555,-1.857c0.1,-1.965 0.303,-2.949 0.613,-2.949c0.418,0.88 0.623,1.963 0.623,3.252c0,3.827 -0.934,5.737 -2.791,5.737c-1.447,0 -2.629,-0.727 -3.563,-2.174h-0.311c-0.641,2.069 -1.678,3.101 -3.1,3.101h-0.152c-1.264,0 -2.709,-0.978 -4.338,-2.942c-1.367,2.373 -2.922,3.563 -4.645,3.563H41.75V45.896z" id="path_2"/><path fill="#000001" d="M52.697,16.203c1.588,0 2.379,0.978 2.379,2.928c0,3.106 -2.648,5.758 -7.957,7.939c-0.762,0.231 -0.854,-0.047 -0.271,-0.833c0.145,-0.297 1.396,-1.229 3.754,-2.789v-0.133c-1.018,-0.417 -1.527,-1.301 -1.527,-2.657c0.674,-2.968 1.746,-4.455 3.213,-4.455H52.697L52.697,16.203zM50.332,19.554c0,0.826 0.699,1.336 2.096,1.534h0.27c0.518,0 0.848,-0.191 0.984,-0.562c0,-0.84 -0.607,-1.494 -1.816,-1.957C51.336,18.569 50.828,18.899 50.332,19.554z" id="path_3"/><path fill="#E64A19" d="M42.432,50.313l-1.744,-0.021c-0.967,4.251 -3.525,6.398 -7.668,6.452c-2.221,0.099 -3.332,0.059 -3.332,-0.119c0.205,-0.391 1.691,-1.138 4.455,-2.248c2.842,-1.804 4.555,-2.968 5.15,-3.483l0.158,-0.463l-2.711,-0.429c-1.977,-0.517 -3.086,-1.508 -3.332,-2.982v-0.31c0,-2.506 0.615,-4.105 1.859,-4.807l0.932,-0.151c1.83,0 3.324,1.275 4.488,3.833c0.74,0.26 1.322,0.384 1.744,0.371V50.313z" id="path_4"/><path fill="#E64A19" d="M23.527,24.279c0.309,0 0.621,1.039 0.932,3.102l1.393,3.1l-0.621,3.563l0.465,8.681v1.387c-0.205,3.543 -0.721,5.605 -1.547,6.201l-0.152,-0.152l0.152,-2.326c0,-2.09 -0.676,-8.753 -2.016,-19.983C22.779,25.471 23.242,24.279 23.527,24.279z" id="path_5"/><path fill="#E64A19" d="M35.563,27.156h1.533c1.859,0 2.791,0.694 2.791,2.089c-1.205,3.252 -2.666,4.977 -4.383,5.176l-2.029,0.271c-0.326,0 -0.457,-0.092 -0.412,-0.271c1.641,-0.867 3.176,-1.897 4.596,-3.08c-0.504,-0.471 -1.059,-0.701 -1.666,-0.701h-0.43l-1.666,0.14l-0.133,-0.14v-0.271C34.551,28.228 35.152,27.156 35.563,27.156z" id="path_6"/></svg>