<svg id="vector" xmlns="http://www.w3.org/2000/svg" width="75" height="67" viewBox="0 0 83 73"><path fill="#FFC400" d="M34.92,29.07h1.547c1.873,0 2.813,0.7 2.813,2.106c-1.214,3.28 -2.687,5.02 -4.42,5.22l-2.047,0.273c-0.327,0 -0.46,-0.093 -0.413,-0.273c1.653,-0.873 3.2,-1.913 4.633,-3.106c-0.507,-0.474 -1.066,-0.707 -1.68,-0.707H34.92l-1.68,0.141l-0.134,-0.141v-0.272C33.9,30.15 34.507,29.07 34.92,29.07L34.92,29.07z" id="path_0"/><path fill="#FFC400" d="M42.167,50.557l-1.761,-0.02c-0.973,4.286 -3.553,6.453 -7.732,6.507c-2.24,0.1 -3.36,0.06 -3.36,-0.12c0.206,-0.394 1.707,-1.147 4.493,-2.267c2.867,-1.82 4.594,-2.994 5.193,-3.514l0.16,-0.467l-2.733,-0.434c-1.993,-0.52 -3.113,-1.52 -3.36,-3.006v-0.313c0,-2.527 0.62,-4.141 1.874,-4.847l0.939,-0.153c1.847,0 3.354,1.286 4.526,3.866c0.747,0.26 1.334,0.387 1.761,0.373V50.557L42.167,50.557z" id="path_1"/><path fill="#C2185B" d="M52.493,15.931c0.16,-0.094 0.207,0.053 0.141,0.433c-0.887,2.08 -2.247,3.534 -4.08,4.354l-6.74,3.38c-0.287,-0.08 -0.34,-0.313 -0.16,-0.706c0.9,-1.733 1.514,-2.761 1.84,-3.087L52.493,15.931L52.493,15.931z" id="path_2"/><path fill="#C2185B" d="M41.66,46.104v4.453c4.307,0 6.946,-0.307 7.906,-0.92c2.714,-1.22 4.087,-3.746 4.12,-7.573V41.75l-0.153,-1.566c-1.233,-3.867 -3.06,-5.74 -5.467,-5.62h-0.779c-1.407,0 -2.24,1.767 -2.5,5.307v0.16c0.1,1.873 1.506,2.967 4.213,3.28h0.16c0.913,0 1.746,-0.207 2.5,-0.627c0.313,0 0.573,0.247 0.78,0.747l-0.313,0.619c-1.601,1.28 -4.827,1.96 -9.688,2.054H41.66L41.66,46.104z" id="path_3"/><path fill="#C2185B" d="M46.72,26.497c1.354,0 2.601,0.833 3.747,2.5c-0.96,2.187 -1.693,3.279 -2.187,3.279c-2.107,-1.04 -3.254,-1.72 -3.44,-2.033C44.84,29.257 45.467,28.004 46.72,26.497L46.72,26.497z" id="path_4"/></svg>