<svg id="vector" xmlns="http://www.w3.org/2000/svg" width="75" height="67" viewBox="0 0 83 73"><path fill="#FF5722" d="M35.705,28.671h1.547c1.873,0 2.813,0.699 2.813,2.106c-1.214,3.279 -2.688,5.02 -4.421,5.22l-2.046,0.273c-0.327,0 -0.46,-0.094 -0.413,-0.273c1.652,-0.873 3.199,-1.913 4.633,-3.106c-0.507,-0.474 -1.066,-0.707 -1.68,-0.707h-0.434l-1.68,0.14l-0.134,-0.14V31.91C34.685,29.75 35.292,28.671 35.705,28.671L35.705,28.671z" id="path_0"/><path fill="#FF5722" d="M42.951,50.157l-1.76,-0.021c-0.974,4.287 -3.553,6.453 -7.733,6.507c-2.24,0.1 -3.359,0.06 -3.359,-0.12c0.206,-0.393 1.706,-1.146 4.493,-2.267c2.866,-1.82 4.593,-2.993 5.193,-3.513l0.16,-0.467l-2.734,-0.434c-1.993,-0.521 -3.113,-1.521 -3.359,-3.007v-0.313c0,-2.526 0.62,-4.14 1.873,-4.847l0.94,-0.153c1.847,0 3.354,1.287 4.526,3.867c0.747,0.26 1.334,0.387 1.76,0.373V50.157L42.951,50.157z" id="path_1"/><path fill="#000001" d="M52.731,16.33c0.16,-0.093 0.207,0.054 0.14,0.434c-0.887,2.08 -2.246,3.533 -4.08,4.354l-6.739,3.38c-0.287,-0.08 -0.341,-0.313 -0.16,-0.707c0.899,-1.732 1.514,-2.76 1.84,-3.087L52.731,16.33L52.731,16.33z" id="path_2"/><path fill="#000001" d="M42.485,45.684v4.453c0.233,0.014 0.479,0.021 0.739,0.021h1.327c1.02,0 1.894,-0.4 2.64,-1.193c0.986,-0.987 1.773,-2.727 2.36,-5.214v-2.347l-0.78,-8.433c0.521,-1.46 0.78,-2.554 0.78,-3.28l-2.033,-4.687c-0.36,0 -0.78,1.4 -1.247,4.213l1.873,14.847c-0.833,0.834 -2.026,1.38 -3.593,1.641h-1.48C42.858,45.704 42.665,45.697 42.485,45.684L42.485,45.684z" id="path_3"/></svg>