<svg id="vector" xmlns="http://www.w3.org/2000/svg" width="75" height="67" viewBox="0 0 83 73"><path fill="#009649" d="M44.652,46.921l0.039,-0.06v-0.158c-0.688,-0.41 -2.287,-0.721 -4.805,-0.927c-0.623,-0.31 -0.932,-0.772 -0.932,-1.394c-0.02,-1.871 0.646,-3.682 2.016,-5.421c0.826,-1.679 1.447,-3.332 1.857,-4.958l-0.773,-8.831l-0.152,-4.495c0.463,-2.373 0.879,-3.563 1.234,-3.563l0.16,0.151v0.933c0.139,0.462 0.396,0.932 0.773,1.395l1.236,2.631c-0.074,0.958 -0.543,2.096 -1.395,3.411l0.158,3.1v3.404c2.195,-2.479 4.674,-3.715 7.438,-3.715c2.994,0.437 4.494,1.421 4.494,2.941v0.773c0,1.759 -1.242,3.722 -3.721,5.89c-1.561,0.596 -4.352,1.164 -8.369,1.706l-1.084,0.311c-1.131,0.424 -1.697,0.786 -1.697,1.084c2.887,0.231 4.334,0.595 4.334,1.084c0.152,0 0.41,0.516 0.773,1.547c0,1.084 -0.139,2.135 -0.422,3.16H44.652L44.652,46.921zM42.828,37.567c0.58,-0.483 3.992,-1.62 10.225,-3.411l1.086,-0.463c0,-0.311 -0.371,-0.7 -1.111,-1.163s-1.611,-0.701 -2.604,-0.701c-3.061,0.661 -5.023,1.593 -5.891,2.79C43.594,35.821 43.025,36.801 42.828,37.567z" id="path_0"/><path fill="#009649" d="M49.027,20.486l2.941,2.01l0.16,0.621v0.158c-1.178,2.155 -1.85,3.239 -2.016,3.252c-1.654,-0.714 -2.791,-1.382 -3.412,-2.016v-0.933c0.416,-0.588 0.674,-1.156 0.781,-1.698C47.74,20.949 48.254,20.486 49.027,20.486z" id="path_1"/><path fill="#009649" d="M56.678,47.396c0.158,-0.086 0.203,0.054 0.137,0.43c-0.879,2.063 -2.227,3.504 -4.045,4.316l-6.684,3.352c-0.283,-0.079 -0.336,-0.311 -0.158,-0.693c0.893,-1.72 1.5,-2.737 1.824,-3.062L56.678,47.396z" id="path_2"/><path fill="#213877" d="M46.066,46.742c-0.621,2.155 -2.504,4.535 -5.658,7.126c-1.898,1.349 -4.119,2.016 -6.656,2.016c-1.422,-0.323 -2.439,-0.647 -3.055,-0.964c-0.615,-0.324 -1.35,-1.038 -2.213,-2.136c-1.555,-2.063 -2.328,-3.973 -2.328,-5.731c0,-4.184 1.342,-7.535 4.031,-10.067c0.477,-0.337 0.682,-0.284 0.615,0.152c0,0.376 -0.773,1.824 -2.318,4.336c-0.623,1.256 -0.932,2.446 -0.932,3.563c0,1.606 1.137,3.357 3.41,5.269c1.611,0.892 3.363,1.256 5.268,1.083c2.24,0 5.031,-1.546 8.361,-4.646H46.066z" id="path_3"/><path fill="#213877" d="M31.629,24.091h1.533c1.857,0 2.789,0.694 2.789,2.088c-1.203,3.253 -2.664,4.979 -4.383,5.176l-2.029,0.271c-0.324,0 -0.457,-0.092 -0.41,-0.271c1.641,-0.865 3.174,-1.896 4.596,-3.08c-0.506,-0.47 -1.059,-0.701 -1.668,-0.701h-0.428l-1.666,0.14l-0.133,-0.14v-0.27C30.617,25.161 31.217,24.091 31.629,24.091z" id="path_4"/></svg>