<svg id="vector" xmlns="http://www.w3.org/2000/svg" width="75" height="67" viewBox="0 0 83 73"><path fill="#E91E63" d="M32.238,24.474h1.547c1.873,0 2.813,0.699 2.813,2.106c-1.214,3.279 -2.687,5.02 -4.42,5.22l-2.047,0.273c-0.327,0 -0.46,-0.094 -0.413,-0.273c1.653,-0.873 3.2,-1.913 4.633,-3.106c-0.506,-0.474 -1.066,-0.707 -1.68,-0.707h-0.434l-1.68,0.14l-0.134,-0.14v-0.273C31.219,25.553 31.825,24.474 32.238,24.474L32.238,24.474z" id="path_0"/><path fill="#E91E63" d="M39.485,45.96l-1.761,-0.021c-0.973,4.287 -3.553,6.453 -7.732,6.507c-2.24,0.1 -3.36,0.06 -3.36,-0.12c0.206,-0.393 1.707,-1.146 4.493,-2.267c2.867,-1.82 4.594,-2.993 5.193,-3.513l0.16,-0.467l-2.733,-0.434c-1.993,-0.521 -3.113,-1.521 -3.36,-3.007v-0.313c0,-2.526 0.62,-4.14 1.874,-4.847l0.939,-0.153c1.847,0 3.354,1.287 4.526,3.867c0.747,0.26 1.334,0.387 1.761,0.373V45.96L39.485,45.96z" id="path_1"/><path fill="#009649" d="M56.198,20.527c0.16,-0.093 0.207,0.054 0.141,0.434c-0.887,2.08 -2.247,3.533 -4.08,4.354l-6.74,3.38c-0.287,-0.08 -0.34,-0.313 -0.16,-0.707c0.9,-1.733 1.514,-2.76 1.84,-3.087L56.198,20.527L56.198,20.527z" id="path_2"/><path fill="#009649" d="M50.519,33.581c-2.707,0.126 -4.867,0.866 -6.48,2.227V35.02l-0.313,-5v-0.313c0,-0.593 0.26,-1.38 0.779,-2.34c0,-0.859 -0.366,-1.8 -1.094,-2.813l-0.779,-2.967c-0.42,0 -0.887,1.247 -1.407,3.747l1.561,12.033c-0.96,1.487 -1.693,2.733 -2.187,3.747l-0.78,0.394c-0.354,0 -0.693,0 -1.021,0v4.453c0.614,0 1.268,0 1.954,0h1.72c3.78,-0.134 7.24,-1.08 10.394,-2.854c1.04,-1.22 1.819,-2.993 2.34,-5.313v-1.093C55.205,35.06 53.645,34.02 50.519,33.581zM42.158,41.587h-0.313c1.487,-2.813 4.014,-4.287 7.58,-4.414h1.254c0.546,0 1.433,0.62 2.653,1.873C50.651,40.607 46.925,41.454 42.158,41.587z" id="path_3"/></svg>