<svg id="vector" xmlns="http://www.w3.org/2000/svg" width="75" height="67" viewBox="0 0 83 73"><path fill="#0097A7" d="M42.429,43.67c0.39,0.025 0.786,0.039 1.184,0.039h0.462l1.937,-0.463c-0.462,-0.865 -0.694,-1.467 -0.694,-1.805c0,-4.957 1.6,-7.437 4.799,-7.437l1.243,-0.152c1.626,0.258 3.695,1.236 6.194,2.941l0.159,0.622l-0.159,0.152h-0.614c-1.19,-0.826 -2.532,-1.236 -4.032,-1.236c-2.295,0 -4.204,0.667 -5.733,2.01v0.159c1.343,2.167 3.822,3.252 7.438,3.252c2.843,-1.032 4.7,-1.548 5.579,-1.548c-0.488,2.889 -1.421,4.337 -2.788,4.337c-6.122,2.373 -10.974,3.563 -14.564,3.563h-0.408V43.67z" id="path_0"/><path fill="#0097A7" d="M51.689,18.41c1.586,0 2.378,0.979 2.378,2.929c0,3.107 -2.649,5.759 -7.957,7.94c-0.761,0.23 -0.854,-0.047 -0.271,-0.833c0.146,-0.298 1.395,-1.23 3.755,-2.791v-0.132c-1.018,-0.415 -1.527,-1.302 -1.527,-2.657c0.675,-2.968 1.745,-4.456 3.213,-4.456H51.689L51.689,18.41zM49.322,21.763c0,0.826 0.701,1.335 2.096,1.534h0.271c0.516,0 0.846,-0.192 0.984,-0.563c0,-0.838 -0.608,-1.492 -1.817,-1.956C50.328,20.777 49.818,21.109 49.322,21.763z" id="path_1"/><path fill="#D32F2F" d="M43.109,48.104l-1.745,-0.02c-0.965,4.25 -3.522,6.398 -7.668,6.452c-2.223,0.098 -3.333,0.058 -3.333,-0.12c0.205,-0.389 1.693,-1.137 4.457,-2.246c2.842,-1.806 4.554,-2.969 5.148,-3.484l0.159,-0.463l-2.711,-0.429c-1.976,-0.518 -3.086,-1.509 -3.331,-2.982v-0.311c0,-2.506 0.613,-4.104 1.857,-4.806l0.932,-0.152c1.831,0 3.325,1.276 4.489,3.834c0.739,0.259 1.321,0.385 1.745,0.371V48.104z" id="path_2"/><path fill="#0097A7" d="M24.203,22.073c0.312,0 0.622,1.038 0.933,3.101l1.395,3.101l-0.622,3.563l0.463,8.68v1.39c-0.203,3.542 -0.72,5.604 -1.546,6.198l-0.153,-0.151l0.153,-2.327c0,-2.089 -0.675,-8.753 -2.016,-19.983C23.456,23.264 23.919,22.073 24.203,22.073z" id="path_3"/><path fill="#D32F2F" d="M34.432,28.071h1.532c1.858,0 2.789,0.693 2.789,2.089c-1.202,3.253 -2.663,4.978 -4.382,5.176l-2.029,0.271c-0.324,0 -0.457,-0.092 -0.41,-0.271c1.639,-0.865 3.174,-1.896 4.594,-3.08c-0.502,-0.47 -1.057,-0.701 -1.666,-0.701h-0.428l-1.668,0.139l-0.133,-0.139v-0.271C33.418,29.143 34.021,28.071 34.432,28.071z" id="path_4"/></svg>