<svg id="vector" xmlns="http://www.w3.org/2000/svg" width="75" height="67" viewBox="0 0 83 73"><path fill="#0288D1" d="M48.165,36.153l-2.941,-0.925c-0.568,-0.146 -1.447,-0.298 -2.631,-0.471v-0.151c-0.08,-2.598 0.588,-4.039 2.01,-4.337c1.037,-0.555 1.705,-1.176 2.016,-1.863c-0.105,-0.668 -1.546,-2.427 -4.337,-5.262c-0.145,-2.433 -0.125,-3.734 0.047,-3.927c0.172,-0.185 0.364,-0.219 0.568,-0.106c3.305,2.883 4.958,5.415 4.958,7.596c-0.072,1.428 -0.384,2.671 -0.926,3.716l-0.35,0.462c2.194,0.529 3.292,1.256 3.292,2.176v1.546c0,0.502 -0.079,1.018 -0.231,1.547H48.165z" id="path_0"/><path fill="#0288D1" d="M43.307,45.337h0.152l3.252,1.705v0.312c0,0.369 -0.615,1.56 -1.858,3.563c-1.896,-0.543 -2.98,-1.111 -3.251,-1.706L43.307,45.337z" id="path_1"/><path fill="#0288D1" d="M49.038,44.411c1.368,0.721 2.452,1.441 3.252,2.169c-0.231,1.11 -0.952,2.293 -2.169,3.563h-0.157c-1.415,-0.594 -2.4,-1.27 -2.942,-2.016v-0.312C47.953,45.542 48.621,44.411 49.038,44.411z" id="path_2"/><path fill="#0288D1" d="M54.041,50.167c0.158,-0.085 0.204,0.054 0.139,0.431c-0.879,2.063 -2.229,3.503 -4.045,4.315l-6.684,3.353c-0.285,-0.079 -0.338,-0.311 -0.159,-0.694c0.893,-1.719 1.501,-2.736 1.824,-3.061L54.041,50.167z" id="path_3"/><path fill="#F57C00" d="M49.468,36.153c-0.622,2.155 -2.506,4.535 -5.659,7.126c-1.896,1.35 -4.117,2.017 -6.657,2.017c-1.42,-0.324 -2.438,-0.647 -3.053,-0.966c-0.615,-0.323 -1.349,-1.038 -2.215,-2.135c-1.553,-2.063 -2.327,-3.974 -2.327,-5.732c0,-4.184 1.343,-7.535 4.032,-10.065c0.477,-0.338 0.681,-0.285 0.615,0.15c0,0.378 -0.773,1.825 -2.32,4.337c-0.621,1.256 -0.933,2.445 -0.933,3.563c0,1.606 1.138,3.358 3.411,5.269c1.613,0.893 3.365,1.257 5.27,1.085c2.24,0 5.03,-1.548 8.361,-4.647H49.468z" id="path_4"/><path fill="#F57C00" d="M33.657,16.063h1.534c1.858,0 2.79,0.694 2.79,2.089c-1.204,3.252 -2.665,4.977 -4.384,5.175l-2.029,0.271c-0.323,0 -0.456,-0.092 -0.41,-0.271c1.641,-0.865 3.174,-1.896 4.595,-3.08c-0.502,-0.469 -1.058,-0.701 -1.666,-0.701h-0.43l-1.666,0.14l-0.132,-0.14v-0.27C32.646,17.135 33.248,16.063 33.657,16.063z" id="path_5"/></svg>