<svg id="vector" xmlns="http://www.w3.org/2000/svg" width="75" height="67" viewBox="0 0 83 73"><path fill="#009688" d="M33.739,27.724h1.547c1.873,0 2.813,0.7 2.813,2.106c-1.214,3.28 -2.688,5.021 -4.421,5.221l-2.046,0.273c-0.327,0 -0.46,-0.094 -0.414,-0.273c1.653,-0.874 3.2,-1.914 4.634,-3.107c-0.507,-0.473 -1.066,-0.706 -1.68,-0.706h-0.434l-1.681,0.14l-0.133,-0.14v-0.273C32.718,28.804 33.326,27.724 33.739,27.724L33.739,27.724z" id="path_0"/><path fill="#009688" d="M51.162,48.454c-0.627,2.173 -2.526,4.573 -5.707,7.187c-1.913,1.36 -4.152,2.033 -6.713,2.033c-1.433,-0.326 -2.46,-0.653 -3.08,-0.974c-0.62,-0.326 -1.359,-1.047 -2.233,-2.153c-1.566,-2.08 -2.347,-4.007 -2.347,-5.78c0,-4.22 1.354,-7.6 4.067,-10.152c0.479,-0.341 0.687,-0.287 0.62,0.152c0,0.381 -0.78,1.841 -2.341,4.374c-0.626,1.267 -0.939,2.467 -0.939,3.593c0,1.62 1.146,3.387 3.439,5.313c1.627,0.9 3.394,1.267 5.313,1.094c2.26,0 5.073,-1.561 8.434,-4.687H51.162L51.162,48.454z" id="path_1"/><path fill="#9e3b21" d="M51.999,16.104c0.16,-0.093 0.207,0.054 0.141,0.434c-0.887,2.08 -2.247,3.533 -4.08,4.354l-6.74,3.38c-0.287,-0.08 -0.34,-0.313 -0.16,-0.707c0.9,-1.732 1.514,-2.76 1.84,-3.087L51.999,16.104L51.999,16.104z" id="path_2"/><path fill="#9e3b21" d="M49.366,48.664h1.76c0.246,-0.72 0.446,-1.507 0.606,-2.367c0.014,-0.273 -0.04,-0.533 -0.16,-0.779c-0.4,-0.934 -1.493,-1.721 -3.28,-2.341c0.42,-1.394 0.627,-2.54 0.627,-3.439v-0.78l-0.16,-4.533c0.42,-1.187 0.627,-2.173 0.627,-2.967v-0.474c-0.913,-1.573 -1.64,-3.24 -2.187,-4.999l-0.12,-0.581c-0.44,0.388 -0.866,1.834 -1.287,4.334l1.874,11.246c0,0.601 -1.094,1.28 -3.28,2.033l-0.467,3.754v0.153c0,0.233 0.561,0.327 1.68,0.273c1.12,-0.054 2.381,0.434 3.787,1.446L49.366,48.664L49.366,48.664z" id="path_3"/></svg>