<svg id="vector" xmlns="http://www.w3.org/2000/svg" width="75" height="67" viewBox="0 0 83 73"><path fill="#00B0FF" d="M29.953,29.688H31.5c1.873,0 2.813,0.699 2.813,2.106c-1.213,3.28 -2.686,5.02 -4.42,5.22l-2.045,0.273c-0.328,0 -0.461,-0.094 -0.414,-0.273c1.652,-0.873 3.199,-1.913 4.633,-3.106C31.561,33.434 31,33.2 30.387,33.2h-0.434l-1.68,0.14l-0.133,-0.14v-0.273C28.934,30.768 29.541,29.688 29.953,29.688L29.953,29.688z" id="path_0"/><path fill="#00B0FF" d="M47.127,49.667C46.5,51.841 44.6,54.24 41.42,56.854c-1.914,1.36 -4.154,2.033 -6.713,2.033c-1.434,-0.326 -2.461,-0.653 -3.08,-0.973c-0.621,-0.327 -1.359,-1.047 -2.234,-2.153c-1.566,-2.08 -2.346,-4.007 -2.346,-5.78c0,-4.22 1.354,-7.601 4.066,-10.153c0.48,-0.34 0.688,-0.287 0.619,0.153c0,0.38 -0.779,1.84 -2.34,4.373c-0.627,1.267 -0.939,2.467 -0.939,3.594c0,1.62 1.146,3.387 3.439,5.313c1.627,0.9 3.395,1.268 5.314,1.094c2.26,0 5.072,-1.56 8.434,-4.687H47.127L47.127,49.667z" id="path_1"/><path fill="#009649" d="M51.906,14.141c0.16,-0.094 0.207,0.053 0.141,0.434c-0.887,2.08 -2.246,3.533 -4.08,4.353l-6.74,3.38c-0.287,-0.079 -0.34,-0.313 -0.16,-0.706c0.9,-1.733 1.514,-2.76 1.84,-3.087L51.906,14.141L51.906,14.141z" id="path_2"/><path fill="#009649" d="M47.16,23.48l2.973,2.026l0.154,0.627v0.153c-1.188,2.18 -1.861,3.273 -2.027,3.287c-1.666,-0.721 -2.813,-1.394 -3.439,-2.034v-0.939c0.412,-0.601 0.674,-1.167 0.779,-1.714C45.859,23.947 46.381,23.48 47.16,23.48L47.16,23.48z" id="path_3"/><path fill="#009649" d="M45.641,49.887h1.467c0.039,-0.133 0.066,-0.26 0.092,-0.373c0.234,-1.627 0.268,-2.8 0.094,-3.514c-0.18,-0.72 -0.68,-1.16 -1.5,-1.333c-1.066,-0.153 -2.473,-0.313 -4.213,-0.467c-0.08,-0.706 0.072,-1.227 0.467,-1.56c4.166,-2.54 7.813,-4.207 10.934,-5c1.213,0 2.207,-1.2 2.973,-3.594v-0.313l-0.16,-0.16l-2.34,0.16c-3.113,-0.313 -6.025,-0.68 -8.754,-1.093h-0.932c-0.762,0 -1.748,0.673 -2.975,2.026c-0.754,1.094 -1.273,2.24 -1.561,3.44c-0.246,1.026 -0.092,1.446 0.467,1.246c0.188,0 0.547,-0.62 1.094,-1.873c0.76,-0.987 1.693,-1.613 2.814,-1.873l5.16,0.779V36.7c-3.842,1.533 -6.24,2.733 -7.188,3.594c-1.359,1.927 -2.033,3.646 -2.033,5.153v2.193c0,0.646 1.766,1.273 5.313,1.873h0.154l0.467,0.153l0.16,0.16V49.887L45.641,49.887z" id="path_4"/></svg>