<svg id="vector" xmlns="http://www.w3.org/2000/svg" width="75" height="67" viewBox="0 0 83 73"><path fill="#2979FF" d="M31.359,29.188h1.547c1.873,0 2.814,0.699 2.814,2.106c-1.215,3.28 -2.688,5.02 -4.42,5.22l-2.047,0.273c-0.328,0 -0.461,-0.093 -0.414,-0.273c1.654,-0.873 3.201,-1.913 4.633,-3.106c-0.506,-0.474 -1.066,-0.707 -1.68,-0.707h-0.434l-1.68,0.141L29.547,32.7v-0.272C30.34,30.268 30.947,29.188 31.359,29.188L31.359,29.188z" id="path_0"/><path fill="#2979FF" d="M48.533,49.167c-0.627,2.174 -2.527,4.573 -5.707,7.187c-1.912,1.36 -4.152,2.033 -6.713,2.033c-1.434,-0.326 -2.459,-0.652 -3.08,-0.973c-0.619,-0.327 -1.359,-1.047 -2.232,-2.153c-1.568,-2.08 -2.348,-4.007 -2.348,-5.78c0,-4.22 1.354,-7.6 4.066,-10.153c0.48,-0.34 0.688,-0.287 0.621,0.153c0,0.38 -0.781,1.84 -2.34,4.373c-0.627,1.267 -0.941,2.467 -0.941,3.594c0,1.62 1.146,3.387 3.441,5.313c1.625,0.899 3.393,1.267 5.313,1.093c2.26,0 5.074,-1.56 8.434,-4.687H48.533L48.533,49.167z" id="path_1"/><path fill="#FFC400" d="M51.793,14.641c0.16,-0.094 0.207,0.053 0.141,0.434c-0.887,2.08 -2.246,3.533 -4.08,4.353l-6.74,3.38c-0.287,-0.079 -0.34,-0.313 -0.16,-0.706c0.9,-1.733 1.514,-2.76 1.84,-3.087L51.793,14.641L51.793,14.641z" id="path_2"/><path fill="#FFC400" d="M47.006,49.367h1.82c0.273,-0.8 0.408,-1.333 0.408,-1.606v-0.467c-0.082,-1.354 -0.441,-2.206 -1.094,-2.566c-0.654,-0.36 -1.434,-0.601 -2.348,-0.714c0.527,-0.913 0.887,-2.16 1.094,-3.753c-0.074,-1.354 -0.34,-2.44 -0.787,-3.26c-0.447,-0.82 -1.072,-1.607 -1.865,-2.36c-1.861,-1.76 -2.801,-2.753 -2.814,-2.974c2.146,-1.653 5.434,-3.733 9.848,-6.246l-0.314,2.026c-0.08,0.526 0.08,0.526 0.467,0c0.9,-2.326 1.939,-4.413 3.127,-6.246v-0.154l-0.16,-0.16c-0.768,0 -4.826,2.294 -12.188,6.874c-1.271,0.786 -2.033,1.84 -2.279,3.166c-0.254,1.327 -0.32,2.667 -0.221,4.021l0.16,0.16l2.967,2.813c1.773,1.546 2.66,2.586 2.66,3.126v0.62c-0.834,1.254 -1.566,1.88 -2.193,1.88c-0.934,0 -1.406,1.507 -1.406,4.527l5.16,1.253C47.033,49.341 47.02,49.354 47.006,49.367L47.006,49.367z" id="path_3"/></svg>