<svg id="vector" xmlns="http://www.w3.org/2000/svg" width="75" height="67" viewBox="0 0 83 73"><path fill="#AFB42B" d="M50.044,35.952c5.269,1.884 7.898,4.211 7.898,6.974l0.158,0.926c-0.442,3.615 -1.632,5.421 -3.569,5.421c0,0.336 -2.577,0.752 -7.74,1.242l-0.158,-0.463c0,-2.585 0.463,-3.874 1.395,-3.874c5.163,-0.416 8.005,-1.037 8.521,-1.863c-1.778,-1.726 -4.105,-3.12 -6.974,-4.179l-0.152,-0.78C49.501,37.089 49.706,35.952 50.044,35.952z" id="path_0"/><path fill="#AFB42B" d="M49.574,28.667c1.269,0.213 2.505,0.986 3.722,2.327v0.311c-0.773,2.063 -1.342,3.094 -1.705,3.094c-2.479,-0.847 -3.716,-1.521 -3.716,-2.009C47.875,31.431 48.443,30.194 49.574,28.667z" id="path_1"/><path fill="#AFB42B" d="M51.478,16.001c1.587,0 2.38,0.979 2.38,2.929c0,3.107 -2.65,5.758 -7.959,7.939c-0.76,0.231 -0.853,-0.047 -0.271,-0.833c0.145,-0.297 1.395,-1.23 3.755,-2.79v-0.131c-1.019,-0.417 -1.527,-1.302 -1.527,-2.658c0.674,-2.968 1.745,-4.456 3.213,-4.456H51.478L51.478,16.001zM49.111,19.354c0,0.826 0.7,1.334 2.096,1.533h0.271c0.517,0 0.847,-0.192 0.985,-0.562c0,-0.839 -0.608,-1.494 -1.818,-1.957C50.116,18.368 49.607,18.698 49.111,19.354z" id="path_2"/><path fill="#C2185B" d="M38.707,41.51h0.621c1.812,0 3.153,1.549 4.032,4.647l0.152,1.548c0.053,0.503 0.053,1.017 0,1.554C43.05,51.143 42.012,53 40.412,54.83c-1.11,0.933 -3.635,1.654 -7.589,2.169c-0.463,-0.205 -0.727,-0.409 -0.772,-0.615c6.609,-3.589 9.915,-5.758 9.915,-6.511l0.152,-0.463l-0.152,-0.151l-1.396,0.462h-0.773c-2.789,0 -4.184,-0.985 -4.184,-2.942v-0.31c0.356,-3.206 1.137,-4.806 2.32,-4.806L38.707,41.51z" id="path_3"/><path fill="#213877" d="M26.293,24.483c0.311,0 0.621,1.038 0.931,3.1l1.396,3.1l-0.622,3.563l0.463,8.679v1.389c-0.205,3.543 -0.721,5.605 -1.547,6.2l-0.152,-0.152l0.152,-2.326c0,-2.089 -0.675,-8.753 -2.017,-19.984C25.546,25.673 26.009,24.483 26.293,24.483z" id="path_4"/><path fill="#C2185B" d="M38.841,25.623h1.533c1.857,0 2.789,0.695 2.789,2.09c-1.202,3.251 -2.663,4.978 -4.382,5.175l-2.029,0.272c-0.324,0 -0.456,-0.093 -0.41,-0.272c1.64,-0.865 3.173,-1.896 4.595,-3.08c-0.503,-0.47 -1.059,-0.701 -1.666,-0.701h-0.43l-1.666,0.138l-0.133,-0.138v-0.271C37.829,26.694 38.432,25.623 38.841,25.623z" id="path_5"/></svg>