<svg id="vector" xmlns="http://www.w3.org/2000/svg" width="75" height="67" viewBox="0 0 83 73"><path fill="#FF9100" d="M32.066,25.294h1.547c1.873,0 2.813,0.7 2.813,2.106c-1.214,3.28 -2.687,5.02 -4.42,5.22l-2.047,0.273c-0.327,0 -0.46,-0.093 -0.413,-0.273c1.653,-0.873 3.2,-1.913 4.633,-3.106c-0.506,-0.474 -1.066,-0.707 -1.68,-0.707h-0.434l-1.68,0.141l-0.134,-0.141v-0.272C31.047,26.374 31.653,25.294 32.066,25.294L32.066,25.294z" id="path_0"/><path fill="#FF9100" d="M39.313,46.78l-1.761,-0.02C36.58,51.047 34,53.214 29.82,53.268c-2.24,0.1 -3.36,0.06 -3.36,-0.12c0.206,-0.394 1.707,-1.147 4.493,-2.267c2.867,-1.82 4.594,-2.994 5.193,-3.514l0.16,-0.467l-2.733,-0.434c-1.993,-0.52 -3.113,-1.52 -3.36,-3.006v-0.313c0,-2.527 0.62,-4.141 1.874,-4.847l0.939,-0.153c1.847,0 3.354,1.286 4.526,3.866c0.747,0.26 1.334,0.387 1.761,0.373V46.78L39.313,46.78z" id="path_1"/><path fill="#000001" d="M52.279,19.707c0.16,-0.093 0.207,0.054 0.141,0.434c-0.887,2.08 -2.247,3.533 -4.08,4.353l-6.74,3.381c-0.286,-0.08 -0.34,-0.313 -0.16,-0.707c0.9,-1.733 1.514,-2.76 1.84,-3.087L52.279,19.707L52.279,19.707z" id="path_2"/><path fill="#000001" d="M38.626,42.307v4.474h0.414c3.62,0 8.514,-1.2 14.687,-3.593c1.38,0 2.319,-1.46 2.813,-4.374c-0.887,0 -2.76,0.521 -5.627,1.561c-3.646,0 -6.146,-1.094 -7.5,-3.28v-0.16c1.54,-1.354 3.467,-2.026 5.78,-2.026c1.513,0 2.866,0.413 4.066,1.247h0.62l0.16,-0.153l-0.16,-0.627c-2.521,-1.72 -4.606,-2.707 -6.247,-2.967l-1.253,0.153c-3.227,0 -4.84,2.5 -4.84,7.5c0,0.34 0.233,0.946 0.699,1.82l-1.952,0.466h-0.468C39.42,42.347 39.02,42.334 38.626,42.307L38.626,42.307z" id="path_3"/></svg>