<svg id="vector" xmlns="http://www.w3.org/2000/svg" width="75" height="67" viewBox="0 0 83 73"><path fill="#000001" d="M41.183,32.795c0.641,0 1.778,0.774 3.404,2.32c0,0.516 -0.615,1.653 -1.858,3.412h-0.31c-0.641,0 -1.626,-0.622 -2.942,-1.858v-0.158C39.477,35.889 40.045,34.653 41.183,32.795z" id="path_0"/><path fill="#000001" d="M46.762,32.022c2.578,1.104 3.867,1.984 3.867,2.631c-0.152,0.489 -0.872,1.573 -2.168,3.252c-1.725,-0.667 -2.968,-1.447 -3.715,-2.32C45.287,33.854 45.955,32.664 46.762,32.022z" id="path_1"/><path fill="#000001" d="M43.04,27.527c2.373,0.979 3.563,1.805 3.563,2.479l-2.016,3.1h-0.152c-0.436,0 -1.626,-0.622 -3.563,-1.864C41.824,28.763 42.551,27.527 43.04,27.527z" id="path_2"/><path fill="#000001" d="M40.462,49.778c4.059,0.04 6.327,-0.721 6.822,-2.288c0,-0.542 -0.516,-1.884 -1.554,-4.025l0.469,-4.026h0.304c1.349,2.32 2.016,4.647 2.016,6.967v1.395c0,0.932 -0.225,1.91 -0.667,2.935c-0.443,1.024 -1.13,1.892 -2.05,2.585c-0.925,0.7 -2.703,0.992 -5.341,0.873V49.778z" id="path_3"/><path fill="#000001" d="M51.945,18.261c0.159,-0.092 0.206,0.053 0.139,0.431c-0.879,2.063 -2.228,3.503 -4.045,4.316l-6.684,3.352c-0.284,-0.079 -0.337,-0.311 -0.158,-0.701c0.892,-1.719 1.501,-2.737 1.824,-3.061L51.945,18.261z" id="path_4"/><path fill="#0097A7" d="M40.792,54.194c-3.008,0.178 -5.196,-1.211 -6.564,-4.165c-0.661,-1.097 -1.276,-8.494 -1.858,-22.191v-0.311c0.383,-2.274 0.952,-3.411 1.699,-3.411l0.781,-0.152c0.951,0 2.399,0.311 4.336,0.925V25.2c-0.106,0.311 -0.417,0.47 -0.932,0.47h-2.631c-0.542,0 -1.058,0.305 -1.554,0.925c0.483,11.892 1.184,18.78 2.116,20.665c0.925,1.883 2.465,2.723 4.607,2.518V54.194z" id="path_5"/></svg>