<svg id="vector" xmlns="http://www.w3.org/2000/svg" width="75" height="67" viewBox="0 0 83 73"><path fill="#009688" d="M35.868,23.924h1.547c1.874,0 2.813,0.699 2.813,2.106c-1.213,3.28 -2.687,5.02 -4.42,5.22l-2.047,0.273c-0.326,0 -0.46,-0.093 -0.413,-0.273c1.653,-0.873 3.2,-1.913 4.633,-3.106c-0.506,-0.474 -1.066,-0.707 -1.68,-0.707h-0.434l-1.68,0.141l-0.133,-0.141v-0.273C34.849,25.004 35.455,23.924 35.868,23.924L35.868,23.924z" id="path_0"/><path fill="#009688" d="M43.115,45.41l-1.76,-0.021c-0.974,4.287 -3.554,6.454 -7.733,6.507c-2.24,0.101 -3.36,0.061 -3.36,-0.12c0.207,-0.393 1.707,-1.146 4.493,-2.267c2.867,-1.819 4.594,-2.993 5.193,-3.513l0.16,-0.467l-2.733,-0.434c-1.993,-0.52 -3.113,-1.52 -3.36,-3.007v-0.313c0,-2.526 0.62,-4.14 1.874,-4.846l0.939,-0.152c1.847,0 3.354,1.286 4.527,3.866c0.746,0.26 1.333,0.387 1.76,0.373V45.41L43.115,45.41z" id="path_1"/><path fill="#FF5722" d="M52.568,19.59c0.16,-0.093 0.207,0.054 0.14,0.434c-0.887,2.08 -2.246,3.533 -4.079,4.354l-6.74,3.38c-0.287,-0.08 -0.34,-0.313 -0.16,-0.707c0.9,-1.732 1.514,-2.76 1.84,-3.086L52.568,19.59L52.568,19.59z" id="path_2"/><path fill="#FF5722" d="M42.428,40.957v4.453c2.66,0.12 4.454,-0.173 5.387,-0.88c0.927,-0.7 1.62,-1.573 2.067,-2.606c0.446,-1.034 0.673,-2.021 0.673,-2.96v-1.407c0,-2.339 -0.673,-4.686 -2.033,-7.026h-0.307l-0.473,4.06c1.046,2.16 1.566,3.513 1.566,4.06C48.809,40.23 46.521,40.997 42.428,40.957L42.428,40.957z" id="path_3"/><path fill="#FF5722" d="M46.182,47.811c0.533,0 1.78,0.626 3.747,1.88c0,0.779 -0.62,2.026 -1.874,3.746c-2.5,-0.807 -3.746,-1.533 -3.746,-2.187C44.368,50.664 44.995,49.517 46.182,47.811L46.182,47.811z" id="path_4"/></svg>