<svg id="vector" xmlns="http://www.w3.org/2000/svg" width="75" height="67" viewBox="0 0 83 73"><path fill="#DD2C00" d="M45.982,37.27h0.621c1.812,0 3.153,1.547 4.032,4.647l0.152,1.546c0.053,0.503 0.053,1.019 0,1.555c-0.463,1.884 -1.5,3.741 -3.1,5.572c-1.11,0.932 -3.635,1.653 -7.588,2.168c-0.463,-0.205 -0.727,-0.408 -0.774,-0.614c6.611,-3.59 9.916,-5.757 9.916,-6.511l0.153,-0.463l-0.153,-0.152l-1.395,0.463h-0.773c-2.79,0 -4.185,-0.985 -4.185,-2.942v-0.31c0.357,-3.206 1.137,-4.807 2.32,-4.807L45.982,37.27z" id="path_0"/><path fill="#DD2C00" d="M50.087,24.718c0.158,-0.094 0.205,0.052 0.138,0.43c-0.879,2.063 -2.227,3.503 -4.045,4.315l-6.684,3.353c-0.283,-0.08 -0.335,-0.311 -0.158,-0.702c0.892,-1.718 1.501,-2.736 1.824,-3.061L50.087,24.718z" id="path_1"/><path fill="#FFAB00" d="M33.567,20.242c0.311,0 0.622,1.037 0.933,3.1l1.394,3.102l-0.622,3.562l0.463,8.68v1.389c-0.205,3.544 -0.721,5.605 -1.547,6.201l-0.152,-0.152l0.152,-2.327c0,-2.089 -0.674,-8.752 -2.016,-19.983C32.821,21.432 33.283,20.242 33.567,20.242z" id="path_2"/></svg>