<svg id="vector" xmlns="http://www.w3.org/2000/svg" width="75" height="67" viewBox="0 0 83 73"><path fill="#00B8D4" d="M53.481,29.846h0.62c1.779,1.064 2.917,1.839 3.405,2.327l-1.7,3.563h-0.469c-1.058,-0.18 -2.248,-0.906 -3.562,-2.169C52.549,31.294 53.116,30.059 53.481,29.846z" id="path_0"/><path fill="#00B8D4" d="M43.174,45.109c0.325,0 0.661,0 1.013,0l0.773,-0.391c0.489,-1.005 1.217,-2.24 2.168,-3.714l-1.546,-11.932c0.515,-2.479 0.978,-3.715 1.395,-3.715L47.75,28.3c0.72,1.004 1.084,1.937 1.084,2.79c-0.516,0.951 -0.773,1.73 -0.773,2.319v0.312l0.311,4.957v0.78c1.599,-1.349 3.741,-2.082 6.426,-2.208c3.1,0.437 4.646,1.467 4.646,3.094v1.083c-0.516,2.301 -1.289,4.06 -2.322,5.27c-3.124,1.758 -6.557,2.697 -10.304,2.829h-1.706c-0.679,0 -1.328,0 -1.938,0V45.109L43.174,45.109zM46.196,45.188h0.311c4.726,-0.132 8.422,-0.972 11.078,-2.518c-1.208,-1.244 -2.088,-1.857 -2.629,-1.857h-1.243C50.176,40.938 47.67,42.399 46.196,45.188z" id="path_1"/><path fill="#00B8D4" d="M55.63,16.988c1.585,0 2.38,0.979 2.38,2.929c0,3.107 -2.652,5.758 -7.961,7.939c-0.76,0.231 -0.852,-0.047 -0.27,-0.833c0.144,-0.297 1.394,-1.229 3.755,-2.79v-0.131c-1.02,-0.417 -1.528,-1.303 -1.528,-2.658c0.675,-2.968 1.746,-4.456 3.213,-4.456H55.63L55.63,16.988zM53.262,20.341c0,0.826 0.702,1.335 2.096,1.533h0.272c0.514,0 0.845,-0.191 0.983,-0.562c0,-0.84 -0.607,-1.494 -1.816,-1.957C54.268,19.355 53.759,19.686 53.262,20.341z" id="path_2"/><path fill="#000001" d="M43.855,49.525l-1.744,-0.021c-0.966,4.251 -3.524,6.399 -7.669,6.453c-2.221,0.098 -3.33,0.059 -3.33,-0.119c0.204,-0.391 1.691,-1.139 4.454,-2.248c2.843,-1.805 4.554,-2.969 5.149,-3.483l0.159,-0.463l-2.71,-0.43c-1.978,-0.516 -3.087,-1.507 -3.333,-2.981v-0.312c0,-2.505 0.616,-4.104 1.858,-4.806l0.932,-0.15c1.832,0 3.325,1.274 4.489,3.833c0.739,0.258 1.322,0.383 1.744,0.37V49.525z" id="path_3"/><path fill="#C51162" d="M24.951,23.494c0.309,0 0.62,1.038 0.932,3.1l1.394,3.101l-0.62,3.563l0.463,8.679v1.389c-0.205,3.543 -0.722,5.605 -1.548,6.2l-0.152,-0.152l0.152,-2.327c0,-2.088 -0.673,-8.751 -2.016,-19.982C24.203,24.683 24.666,23.494 24.951,23.494z" id="path_4"/><path fill="#000001" d="M34.432,24.091h1.532c1.858,0 2.789,0.694 2.789,2.089c-1.202,3.252 -2.663,4.978 -4.382,5.176l-2.029,0.271c-0.324,0 -0.457,-0.093 -0.41,-0.271c1.639,-0.866 3.174,-1.897 4.594,-3.081c-0.502,-0.469 -1.057,-0.7 -1.666,-0.7h-0.428l-1.668,0.139l-0.133,-0.139v-0.271C33.418,25.161 34.021,24.091 34.432,24.091z" id="path_5"/></svg>