<svg id="vector" xmlns="http://www.w3.org/2000/svg" width="75" height="67" viewBox="0 0 83 73"><path fill="#FF6D00" d="M45.994,42.256c0.527,0 1.771,0.621 3.721,1.864c0,0.773 -0.621,2.009 -1.863,3.714c-2.473,-0.8 -3.715,-1.521 -3.715,-2.168C44.203,45.084 44.824,43.948 45.994,42.256z" id="path_0"/><path fill="#FF6D00" d="M48.32,35.13l-2.947,-0.925c-0.563,-0.146 -1.441,-0.298 -2.631,-0.47v-0.152c-0.08,-2.598 0.596,-4.039 2.016,-4.336c1.031,-0.555 1.705,-1.177 2.01,-1.864c-0.1,-0.668 -1.547,-2.426 -4.336,-5.262c-0.139,-2.432 -0.127,-3.735 0.051,-3.926c0.172,-0.186 0.365,-0.219 0.57,-0.106c3.305,2.882 4.957,5.414 4.957,7.596c-0.08,1.427 -0.391,2.671 -0.932,3.715l-0.344,0.463c2.193,0.528 3.291,1.256 3.291,2.175v1.547c0,0.502 -0.078,1.018 -0.238,1.547H48.32z" id="path_1"/><path fill="#FF6D00" d="M52.988,48.047c0.158,-0.086 0.203,0.052 0.139,0.429c-0.879,2.063 -2.229,3.504 -4.045,4.316l-6.684,3.352c-0.285,-0.08 -0.338,-0.311 -0.158,-0.694c0.893,-1.718 1.5,-2.737 1.824,-3.061L52.988,48.047z" id="path_2"/><path fill="#000001" d="M49.756,35.13c-0.623,2.155 -2.506,4.535 -5.66,7.126c-1.896,1.348 -4.117,2.016 -6.656,2.016c-1.42,-0.324 -2.438,-0.648 -3.053,-0.966c-0.615,-0.324 -1.348,-1.038 -2.215,-2.135c-1.553,-2.063 -2.326,-3.973 -2.326,-5.732c0,-4.184 1.34,-7.535 4.031,-10.066c0.477,-0.338 0.682,-0.285 0.615,0.151c0,0.377 -0.773,1.825 -2.32,4.337c-0.621,1.256 -0.934,2.445 -0.934,3.563c0,1.606 1.139,3.358 3.412,5.269c1.613,0.892 3.365,1.256 5.268,1.083c2.242,0 5.031,-1.546 8.363,-4.646H49.756z" id="path_3"/><path fill="#000001" d="M32.354,16.855h1.533c1.857,0 2.789,0.694 2.789,2.089c-1.203,3.252 -2.664,4.978 -4.383,5.176l-2.029,0.271c-0.324,0 -0.455,-0.092 -0.41,-0.271c1.639,-0.866 3.174,-1.897 4.596,-3.08c-0.502,-0.47 -1.059,-0.701 -1.666,-0.701h-0.43l-1.666,0.139l-0.133,-0.139v-0.271C31.342,17.927 31.943,16.855 32.354,16.855z" id="path_4"/></svg>