<svg id="vector" xmlns="http://www.w3.org/2000/svg" width="75" height="67" viewBox="0 0 83 73"><path fill="#FF9800" d="M28.288,26.934h1.547c1.874,0 2.813,0.7 2.813,2.106c-1.214,3.28 -2.687,5.021 -4.42,5.221l-2.047,0.273c-0.327,0 -0.46,-0.094 -0.413,-0.273c1.653,-0.874 3.2,-1.914 4.633,-3.107c-0.506,-0.473 -1.066,-0.706 -1.68,-0.706h-0.434l-1.68,0.14l-0.133,-0.14v-0.273C27.269,28.014 27.875,26.934 28.288,26.934L28.288,26.934z" id="path_0"/><path fill="#FF9800" d="M45.462,46.914c-0.627,2.173 -2.526,4.573 -5.707,7.187c-1.913,1.36 -4.153,2.033 -6.713,2.033c-1.434,-0.326 -2.46,-0.653 -3.08,-0.974c-0.62,-0.326 -1.36,-1.047 -2.233,-2.153c-1.566,-2.08 -2.347,-4.007 -2.347,-5.78c0,-4.22 1.354,-7.6 4.066,-10.152c0.48,-0.341 0.687,-0.287 0.62,0.152c0,0.381 -0.78,1.841 -2.34,4.374c-0.627,1.267 -0.94,2.467 -0.94,3.593c0,1.62 1.146,3.387 3.44,5.313c1.627,0.9 3.394,1.267 5.313,1.094c2.26,0 5.073,-1.561 8.434,-4.687H45.462L45.462,46.914z" id="path_1"/><path fill="#009649" d="M57.448,16.894c0.16,-0.093 0.207,0.054 0.14,0.434c-0.887,2.08 -2.246,3.533 -4.079,4.354l-6.74,3.38c-0.287,-0.08 -0.34,-0.313 -0.16,-0.707c0.899,-1.733 1.514,-2.76 1.84,-3.087L57.448,16.894L57.448,16.894z" id="path_2"/><path fill="#009649" d="M50.948,28.44c-2.787,0 -5.286,1.247 -7.5,3.746v-3.433l-0.16,-3.127c0.86,-1.326 1.334,-2.474 1.407,-3.439l-1.247,-2.654c-0.38,-0.466 -0.64,-0.939 -0.78,-1.406v-0.939l-0.16,-0.153c-0.359,0 -0.779,1.199 -1.246,3.593l0.153,4.533l0.78,8.907c-0.413,1.64 -1.04,3.307 -1.874,5c-1.38,1.753 -2.053,3.58 -2.033,5.467c0,0.626 0.313,1.093 0.94,1.406c2.54,0.206 4.153,0.521 4.847,0.934v0.159l-0.04,0.061h1.173c0.287,-1.033 0.427,-2.094 0.427,-3.187c-0.366,-1.04 -0.626,-1.561 -0.779,-1.561c0,-0.493 -1.461,-0.859 -4.374,-1.093c0,-0.3 0.573,-0.667 1.714,-1.094l1.093,-0.313c4.054,-0.546 6.867,-1.119 8.44,-1.72c2.5,-2.187 3.753,-4.167 3.753,-5.94v-0.779C55.481,29.874 53.969,28.88 50.948,28.44zM52.509,34.221c-6.287,1.807 -9.727,2.953 -10.313,3.439c0.2,-0.773 0.773,-1.76 1.72,-2.973c0.873,-1.207 2.854,-2.147 5.94,-2.813c1,0 1.88,0.239 2.626,0.706c0.747,0.467 1.12,0.86 1.12,1.174L52.509,34.221z" id="path_3"/></svg>