<svg id="vector" xmlns="http://www.w3.org/2000/svg" width="75" height="67" viewBox="0 0 83 73"><path fill="#DD2C00" d="M47.659,47.018c0.178,0.013 0.37,0.02 0.582,0.02h1.468c1.553,-0.258 2.736,-0.8 3.562,-1.627l-1.857,-14.721c0.463,-2.79 0.879,-4.178 1.236,-4.178l2.017,4.646c0,0.723 -0.258,1.806 -0.774,3.253l0.774,8.362v2.327c-0.583,2.465 -1.362,4.19 -2.341,5.169c-0.739,0.787 -1.605,1.183 -2.616,1.183h-1.316c-0.259,0 -0.503,-0.006 -0.733,-0.019V47.018z" id="path_0"/><path fill="#DD2C00" d="M53.169,15.063c1.588,0 2.381,0.978 2.381,2.928c0,3.106 -2.65,5.758 -7.958,7.938c-0.761,0.232 -0.854,-0.045 -0.272,-0.832c0.146,-0.298 1.396,-1.229 3.755,-2.789v-0.133c-1.019,-0.416 -1.525,-1.302 -1.525,-2.656c0.673,-2.969 1.744,-4.455 3.213,-4.455H53.169L53.169,15.063zM50.804,18.415c0,0.826 0.7,1.334 2.096,1.531h0.27c0.518,0 0.847,-0.19 0.986,-0.561c0,-0.839 -0.607,-1.494 -1.818,-1.957C51.808,17.429 51.299,17.76 50.804,18.415z" id="path_1"/><path fill="#00B8D4" d="M47.75,51.452l-1.746,-0.019c-0.964,4.25 -3.521,6.397 -7.666,6.45c-2.223,0.1 -3.333,0.06 -3.333,-0.118c0.204,-0.391 1.691,-1.138 4.456,-2.247c2.843,-1.806 4.554,-2.97 5.148,-3.484l0.158,-0.463l-2.71,-0.431c-1.976,-0.515 -3.086,-1.506 -3.332,-2.979V47.85c0,-2.506 0.615,-4.104 1.858,-4.805l0.933,-0.152c1.83,0 3.324,1.275 4.487,3.833c0.741,0.258 1.322,0.385 1.746,0.371V51.452z" id="path_2"/><path fill="#213877" d="M28.844,25.421c0.313,0 0.621,1.039 0.933,3.101l1.396,3.1l-0.622,3.563l0.463,8.679v1.389c-0.205,3.543 -0.72,5.605 -1.548,6.2L29.313,51.3l0.151,-2.326c0,-2.089 -0.674,-8.751 -2.016,-19.983C28.098,26.611 28.561,25.421 28.844,25.421z" id="path_3"/><path fill="#00B8D4" d="M39.189,27.39h1.533c1.858,0 2.791,0.694 2.791,2.089c-1.203,3.252 -2.665,4.979 -4.382,5.176l-2.03,0.271c-0.325,0 -0.458,-0.093 -0.411,-0.271c1.642,-0.865 3.174,-1.897 4.595,-3.08c-0.503,-0.469 -1.058,-0.7 -1.666,-0.7h-0.43l-1.666,0.138l-0.131,-0.138v-0.271C38.179,28.461 38.78,27.39 39.189,27.39z" id="path_4"/></svg>