<svg id="vector" xmlns="http://www.w3.org/2000/svg" width="75" height="67" viewBox="0 0 83 73"><path fill="#311B92" d="M26.69,24.414h1.547c1.873,0 2.813,0.7 2.813,2.106c-1.214,3.28 -2.688,5.021 -4.421,5.221l-2.046,0.272c-0.327,0 -0.46,-0.093 -0.413,-0.272c1.652,-0.874 3.199,-1.914 4.633,-3.107c-0.507,-0.474 -1.066,-0.706 -1.681,-0.706H26.69l-1.68,0.14l-0.134,-0.14v-0.273C25.67,25.494 26.277,24.414 26.69,24.414L26.69,24.414z" id="path_0"/><path fill="#311B92" d="M44.037,45.414c-0.626,2.173 -2.7,3.554 -5.88,6.167c-1.913,1.359 -4.153,2.033 -6.714,2.033c-1.433,-0.327 -2.46,-0.653 -3.08,-0.974c-0.62,-0.326 -1.359,-1.047 -2.233,-2.153c-1.566,-2.08 -2.347,-4.007 -2.347,-5.78c0,-4.22 1.354,-7.6 4.067,-10.153c0.479,-0.34 0.687,-0.286 0.62,0.153c0,0.38 -0.78,1.841 -2.341,4.374c-0.626,1.267 -0.939,2.466 -0.939,3.593c0,1.62 1.146,3.387 3.439,5.313c1.627,0.9 3.394,1.267 5.313,1.093c2.26,0 4.263,-0.827 7.623,-3.953" id="path_1"/><path fill="#F57F17" d="M56.903,19.414c0.16,-0.094 0.207,0.053 0.141,0.434c-0.887,2.08 -2.247,3.533 -4.08,4.353l-6.74,3.381c-0.287,-0.08 -0.34,-0.313 -0.16,-0.707c0.9,-1.733 1.514,-2.76 1.84,-3.087L56.903,19.414L56.903,19.414z" id="path_2"/><path fill="#F57F17" d="M44.037,45.414c0.3,-0.773 0.446,-1.527 0.446,-2.267c0,-1.054 -0.573,-1.887 -1.713,-2.5c-3.547,-0.174 -5.313,-0.587 -5.313,-1.253c0.247,-0.348 0.507,-0.66 0.78,-0.934c1.873,-1.474 3.96,-2.36 6.246,-2.66c0.187,1.12 0.573,2.073 1.174,2.86c0.6,0.793 1.666,1.399 3.206,1.826h0.78c1.354,0 2.394,-0.88 3.127,-2.653c1.18,1.354 2.227,2.033 3.12,2.033h0.779c1.421,0 2.254,-1.72 2.501,-5.16c0.133,-2.16 -0.021,-3.253 -0.468,-3.279c-0.413,0.08 -0.673,1.227 -0.779,3.439c-0.207,0.7 -0.76,1.014 -1.653,0.934c-0.887,-0.08 -1.693,-0.7 -2.407,-1.873l0.307,-1.254c-0.1,-0.62 -0.26,-0.933 -0.467,-0.933c-0.232,0 -0.493,0.466 -0.779,1.406c-0.301,1.979 -1.287,2.967 -2.967,2.967h-0.16c-1.26,0 -2.406,-0.627 -3.434,-1.874v-0.466l0.307,-1.407c0,-0.42 -0.307,-0.626 -0.933,-0.626c-2.447,0.079 -5.106,1.586 -7.974,4.533c-0.906,1.166 -1.533,2.887 -1.873,5.153c-0.014,0.847 0.093,1.52 0.313,2.033c0.313,0.934 2.348,1.506 6.094,1.713" id="path_3"/></svg>