<svg id="vector" xmlns="http://www.w3.org/2000/svg" width="75" height="67" viewBox="0 0 83 73"><path fill="#0097A7" d="M42.08,30.556c1.369,0.72 2.453,1.447 3.254,2.166c-0.232,1.111 -0.953,2.302 -2.17,3.563h-0.15c-1.42,-0.595 -2.408,-1.262 -2.949,-2.017v-0.311C40.996,31.69 41.664,30.556 42.08,30.556z" id="path_0"/><path fill="#0097A7" d="M38.631,48.951c0.225,0.026 0.441,-0.093 0.66,-0.351c-0.41,-0.502 -0.621,-1.025 -0.621,-1.565v-1.396c0.496,-4.541 2.301,-6.814 5.428,-6.814c1.572,0 3.277,0.826 5.109,2.479c0.674,0.258 1.031,0.516 1.084,0.773v0.152c0,0.237 -0.258,0.39 -0.773,0.469c0,-0.443 -1.342,-0.799 -4.025,-1.084h-0.621c-2.896,0.436 -4.336,1.21 -4.336,2.321c0,1.525 1.492,2.662 4.486,3.409l1.084,0.152c0.391,0 2.354,-0.978 5.891,-2.941h0.152l0.311,0.311c0,2.143 -2.373,4.468 -7.125,6.976c-3.387,1.03 -5.449,1.545 -6.195,1.545c-0.17,0 -0.336,-0.007 -0.508,-0.021V48.951z" id="path_1"/><path fill="#0097A7" d="M49.268,19.627c0.158,-0.093 0.205,0.053 0.139,0.431c-0.881,2.062 -2.229,3.502 -4.045,4.316l-6.686,3.351c-0.283,-0.079 -0.336,-0.311 -0.158,-0.7c0.893,-1.719 1.502,-2.736 1.824,-3.061L49.268,19.627z" id="path_2"/><path fill="#7B1FA2" d="M38.961,53.386c-3.008,0.179 -5.197,-1.209 -6.564,-4.164c-0.662,-1.098 -1.275,-8.494 -1.857,-22.19V26.72c0.385,-2.273 0.951,-3.409 1.699,-3.409l0.781,-0.152c0.949,0 2.398,0.309 4.336,0.924v0.312c-0.107,0.31 -0.416,0.469 -0.932,0.469h-2.633c-0.541,0 -1.057,0.305 -1.553,0.926c0.482,11.893 1.184,18.78 2.115,20.664c0.926,1.883 2.465,2.723 4.607,2.52V53.386z" id="path_3"/></svg>