<svg id="vector" xmlns="http://www.w3.org/2000/svg" width="75" height="67" viewBox="0 0 83 73"><path fill="#FF1744" d="M31.534,20.848h1.547c1.873,0 2.813,0.699 2.813,2.105c-1.214,3.279 -2.687,5.02 -4.42,5.221l-2.047,0.273c-0.327,0 -0.46,-0.094 -0.413,-0.273c1.653,-0.873 3.2,-1.914 4.633,-3.107c-0.506,-0.473 -1.066,-0.707 -1.68,-0.707h-0.434l-1.68,0.141l-0.133,-0.141v-0.273C30.514,21.926 31.121,20.848 31.534,20.848L31.534,20.848z" id="path_0"/><path fill="#FF1744" d="M44.061,27.619c-2.454,0.834 -4.167,1.768 -5.16,2.795c-2.667,2.359 -4.021,4.967 -4.061,7.832v1.873c0,0.914 0.414,1.641 1.247,2.193l4.847,1.094c-3.021,2.914 -6.04,4.373 -9.061,4.373h-0.626c-1.04,0 -2.034,-0.205 -2.974,-0.627c-2.707,-1.559 -4.061,-3.592 -4.061,-6.092v-1.248c0.247,-1.58 0.854,-2.859 1.808,-3.84c0.959,-0.986 1.239,-1.58 0.853,-1.785l-0.272,-0.041c-2.007,0.654 -3.214,2.34 -3.614,5.066c-0.406,2.727 -0.359,4.854 0.134,6.381c1.54,4.373 4.087,6.559 7.653,6.559c1.359,0 2.713,-0.365 4.066,-1.092c5.207,-3.414 7.813,-6.588 7.813,-9.533c0,-1.068 -0.474,-2.055 -1.406,-2.967c-3.54,-0.414 -5.313,-0.887 -5.313,-1.408V36.84c2.42,-3.227 4.713,-4.84 6.873,-4.84c1.054,0 1.68,0.359 1.873,1.094h0.16c0.261,0 0.521,-1.254 0.78,-3.754v-0.934C45.581,27.793 45.06,27.533 44.061,27.619L44.061,27.619z" id="path_1"/><path fill="#000001" d="M59.541,23.227c0.16,-0.094 0.207,0.053 0.14,0.434c-0.887,2.08 -2.246,3.533 -4.079,4.354l-6.74,3.379c-0.287,-0.08 -0.34,-0.313 -0.16,-0.705c0.9,-1.734 1.514,-2.76 1.84,-3.088L59.541,23.227L59.541,23.227z" id="path_2"/><path fill="#000001" d="M55.401,35.887h0.626c1.827,0 3.181,1.561 4.067,4.686l0.153,1.561c0.053,0.508 0.053,1.027 0,1.566c-0.467,1.9 -1.514,3.773 -3.127,5.621c-1.12,0.939 -3.667,1.666 -7.653,2.186c-0.467,-0.205 -0.733,-0.412 -0.78,-0.619c6.667,-3.619 10,-5.807 10,-6.566l0.153,-0.467l-0.153,-0.154l-1.406,0.467H56.5c-2.813,0 -4.22,-0.992 -4.22,-2.967v-0.313c0.359,-3.234 1.146,-4.846 2.34,-4.846L55.401,35.887L55.401,35.887z" id="path_3"/></svg>