<svg id="vector" xmlns="http://www.w3.org/2000/svg" width="75" height="67" viewBox="0 0 83 73"><path fill="#00B8D4" d="M49.877,43.129v-0.151c0,-0.516 -1.856,-1.037 -5.579,-1.554c-0.125,-0.924 -0.093,-1.877 0.099,-2.842c0.192,-0.972 0.728,-1.52 1.607,-1.646c1.368,0 2.452,-0.985 3.252,-2.949c0,-1.395 -0.258,-2.168 -0.774,-2.319H48.33c-0.542,0.409 -1.11,0.621 -1.706,0.621h-0.159c-2.088,0 -3.482,-0.933 -4.183,-2.79l-0.152,-0.621c0.164,-1.99 0.495,-3.239 0.977,-3.754c0.484,-0.523 1.138,-0.867 1.965,-1.052c1.839,0.066 3.14,0.787 3.914,2.168c0.8,1.891 1.203,3.543 1.203,4.958v1.865c0,1.856 -0.159,3.02 -0.47,3.482c-0.305,0.463 -0.562,0.701 -0.774,0.701c0,0.344 0.675,0.707 2.017,1.084c0.542,0.218 0.853,0.886 0.933,2.009v1.084c-0.12,0.597 -0.266,1.165 -0.45,1.705H49.877z" id="path_0"/><path fill="#00B8D4" d="M42.611,15.148c1.825,0.337 3.114,0.853 3.874,1.547v0.932c-0.978,1.964 -1.599,2.941 -1.856,2.941c-2.373,-0.785 -3.564,-1.354 -3.564,-1.705C41.064,17.984 41.581,16.748 42.611,15.148z" id="path_1"/><path fill="#00B8D4" d="M53.771,49.754c0.159,-0.086 0.206,0.052 0.14,0.43c-0.88,2.063 -2.229,3.503 -4.046,4.315l-6.684,3.352c-0.283,-0.078 -0.336,-0.31 -0.158,-0.693c0.893,-1.719 1.501,-2.737 1.824,-3.061L53.771,49.754z" id="path_2"/><path fill="#000000" d="M51.352,42.819c-0.621,2.155 -2.505,4.535 -5.659,7.126c-1.896,1.349 -4.117,2.016 -6.656,2.016c-1.42,-0.322 -2.439,-0.646 -3.054,-0.965c-0.615,-0.323 -1.349,-1.038 -2.216,-2.136c-1.553,-2.063 -2.325,-3.973 -2.325,-5.731c0,-4.184 1.342,-7.535 4.032,-10.065c0.476,-0.338 0.681,-0.285 0.613,0.15c0,0.378 -0.772,1.825 -2.32,4.337c-0.62,1.256 -0.931,2.445 -0.931,3.563c0,1.606 1.136,3.358 3.41,5.269c1.612,0.893 3.364,1.257 5.27,1.085c2.24,0 5.029,-1.548 8.361,-4.647H51.352z" id="path_3"/><path fill="#000000" d="M31.569,21.71h1.533c1.857,0 2.788,0.695 2.788,2.09c-1.201,3.252 -2.663,4.978 -4.381,5.176l-2.03,0.271c-0.323,0 -0.456,-0.093 -0.409,-0.271c1.639,-0.866 3.173,-1.897 4.594,-3.081c-0.503,-0.469 -1.057,-0.7 -1.665,-0.7h-0.43l-1.666,0.139l-0.133,-0.139v-0.271C30.558,22.781 31.158,21.71 31.569,21.71z" id="path_4"/></svg>