<svg id="vector" xmlns="http://www.w3.org/2000/svg" width="75" height="67" viewBox="0 0 83 73"><path fill="#0097A7" d="M44.348,48.515c2.17,1.084 3.254,2.017 3.254,2.789c-1.033,2.043 -1.654,3.075 -1.859,3.102h-0.309c-1.588,-0.8 -2.572,-1.528 -2.943,-2.169C42.848,51.06 43.469,49.816 44.348,48.515z" id="path_0"/><path fill="#0097A7" d="M35.9,44.409h1.783c1.885,-0.257 4.881,-0.959 8.986,-2.089v-0.158c-3.742,-1.652 -6.115,-2.479 -7.127,-2.479c-1.369,0 -2.295,0.773 -2.791,2.326l-0.461,0.311c-0.205,0 -0.311,-0.158 -0.311,-0.469c0.514,-3.094 1.91,-4.647 4.184,-4.647h0.773c0.959,0 4.209,1.085 9.764,3.253l4.184,0.31l0.305,0.471c-0.072,0.694 -0.693,2.036 -1.857,4.026h-0.463l-0.623,-0.159h-0.771c-8.059,2.378 -12.76,3.614 -14.1,3.721H35.9V44.409z" id="path_1"/><path fill="#0097A7" d="M50.543,24.209c0.158,-0.093 0.205,0.052 0.139,0.429c-0.881,2.063 -2.229,3.505 -4.045,4.317l-6.684,3.351c-0.285,-0.079 -0.338,-0.311 -0.16,-0.7c0.893,-1.718 1.502,-2.736 1.824,-3.061L50.543,24.209z" id="path_2"/><path fill="#F57C00" d="M36.232,48.825c-3.01,0.179 -5.197,-1.21 -6.566,-4.165c-0.66,-1.097 -1.275,-8.494 -1.857,-22.19v-0.311c0.385,-2.273 0.953,-3.41 1.699,-3.41l0.779,-0.152c0.953,0 2.4,0.311 4.336,0.925v0.311c-0.105,0.311 -0.414,0.469 -0.932,0.469h-2.631c-0.541,0 -1.057,0.304 -1.553,0.926c0.482,11.892 1.184,18.78 2.115,20.664c0.926,1.884 2.467,2.724 4.609,2.518V48.825z" id="path_3"/></svg>