<svg id="vector" xmlns="http://www.w3.org/2000/svg" width="75" height="67" viewBox="0 0 83 73"><path fill="#651FFF" d="M32.066,28.224h1.547c1.873,0 2.813,0.7 2.813,2.106c-1.214,3.28 -2.688,5.02 -4.42,5.22l-2.047,0.273c-0.327,0 -0.46,-0.093 -0.413,-0.273c1.652,-0.873 3.199,-1.913 4.633,-3.106c-0.507,-0.474 -1.066,-0.707 -1.68,-0.707h-0.434l-1.68,0.141l-0.134,-0.141v-0.272C31.046,29.304 31.653,28.224 32.066,28.224L32.066,28.224z" id="path_0"/><path fill="#651FFF" d="M39.313,49.71l-1.76,-0.02c-0.974,4.286 -3.553,6.453 -7.733,6.507c-2.24,0.1 -3.359,0.06 -3.359,-0.12c0.206,-0.394 1.706,-1.147 4.493,-2.267c2.866,-1.82 4.593,-2.994 5.193,-3.514l0.16,-0.467l-2.733,-0.434c-1.994,-0.52 -3.113,-1.52 -3.36,-3.006v-0.313c0,-2.527 0.62,-4.141 1.873,-4.847l0.94,-0.153c1.847,0 3.354,1.286 4.526,3.866c0.747,0.26 1.334,0.387 1.76,0.373V49.71L39.313,49.71z" id="path_1"/><path fill="#FF9100" d="M52.159,16.776c0.16,-0.093 0.207,0.054 0.141,0.434c-0.887,2.08 -2.247,3.533 -4.08,4.354l-6.74,3.38c-0.286,-0.08 -0.34,-0.313 -0.16,-0.707c0.9,-1.732 1.514,-2.76 1.84,-3.086L52.159,16.776L52.159,16.776z" id="path_2"/><path fill="#FF9100" d="M45.6,27.363c2.606,0.834 3.907,1.514 3.907,2.033v0.313c-0.887,2.294 -1.561,3.44 -2.027,3.44c-2.319,-1.021 -3.52,-1.693 -3.6,-2.033v-0.313C43.88,30.05 44.453,28.903 45.6,27.363L45.6,27.363z" id="path_3"/><path fill="#FF9100" d="M38.626,45.236v4.474h0.414c3.619,0 8.513,-1.2 14.687,-3.593c1.38,0 2.319,-1.46 2.813,-4.374c-0.887,0 -2.761,0.521 -5.627,1.561c-3.646,0 -6.146,-1.094 -7.5,-3.28v-0.16c1.54,-1.354 3.467,-2.026 5.779,-2.026c1.514,0 2.867,0.413 4.067,1.247h0.62l0.159,-0.153l-0.159,-0.627c-2.521,-1.72 -4.607,-2.707 -6.247,-2.967L46.38,35.49c-3.228,0 -4.841,2.5 -4.841,7.5c0,0.34 0.233,0.946 0.7,1.82l-1.953,0.466h-0.467C39.42,45.276 39.02,45.264 38.626,45.236L38.626,45.236z" id="path_4"/></svg>