<svg id="vector" xmlns="http://www.w3.org/2000/svg" width="75" height="67" viewBox="0 0 83 73"><path fill="#00BCD4" d="M40.76,40.713l-2.63,-1.823c-0.167,-1.239 -0.121,-2.92 0.149,-5.061l0.575,0.208c1.237,0.816 3.138,1.968 5.698,3.453c1.791,-1.549 3.466,-2.819 5.027,-3.81c0.539,-0.191 0.776,-0.104 0.707,0.252c-0.27,0.788 -0.962,1.594 -2.072,2.431c-1.228,0.954 -2.021,1.681 -2.378,2.174c2.245,1.619 3.512,3.512 3.793,5.683c0.104,3.004 -0.305,5.209 -1.215,6.632c-1.023,1.675 -2.831,2.596 -5.427,2.764c-1.895,0.119 -3.373,-0.501 -4.456,-1.871c-0.73,-0.968 -1.094,-2.107 -1.094,-3.426c0,-1.313 0.363,-2.752 1.094,-4.3c0.179,-0.519 0.507,-1.106 0.979,-1.773C39.938,41.738 40.357,41.231 40.76,40.713L40.76,40.713zM41.791,41.728c-0.99,1.313 -1.699,2.338 -2.13,3.068c-0.236,0.402 -0.352,0.8 -0.352,1.18c0,0.897 0.483,1.59 1.45,2.071c0.755,0.376 1.635,0.56 2.648,0.56c1,0 1.875,-0.166 2.631,-0.508c1.012,-0.448 1.687,-0.927 2.02,-1.432c-0.513,-0.944 -1.394,-1.865 -2.631,-2.764c-1.04,-0.719 -2.077,-1.445 -3.103,-2.176H41.791z" id="path_0"/><path fill="#00BCD4" d="M39.206,30.818l-0.909,0.102l-0.185,-0.287c3.126,-1.629 5.537,-3.184 7.234,-4.65c-0.574,-0.208 -0.959,-0.415 -1.162,-0.629c-0.588,-0.402 -0.881,-1.104 -0.881,-2.106c-0.058,-1.956 0.641,-3.407 2.096,-4.352c0.472,-0.368 1.231,-0.455 2.28,-0.253c1.109,0.598 1.669,1.324 1.669,2.176c0.305,3.206 -1.809,6.103 -6.326,8.688C41.601,30.12 40.335,30.558 39.206,30.818L39.206,30.818zM47.569,23.534c0.38,-0.137 0.57,-0.42 0.57,-0.846c0,-0.673 -0.287,-1.162 -0.857,-1.467c-0.611,-0.249 -1.283,-0.261 -2.025,-0.047c-0.484,0.368 -0.738,0.69 -0.762,0.962c-0.029,0.356 0.202,0.806 0.698,1.346c0.438,0.202 0.788,0.307 1.058,0.307C46.569,23.864 47.007,23.783 47.569,23.534z" id="path_1"/></svg>