<svg id="vector" xmlns="http://www.w3.org/2000/svg" width="75" height="67" viewBox="0 0 83 73"><path fill="#319516" d="M33.671,39.363l2.193,-2.257c-1.095,-0.553 -2.014,-1.22 -2.77,-2.008c-0.898,-0.886 -1.348,-2.032 -1.348,-3.425c0,-1.279 0.449,-3.005 1.348,-5.176c1.307,-2.025 3.039,-2.987 5.21,-2.883c3.016,0.448 5.175,1.526 6.476,3.229c-0.109,0.178 -0.27,0.27 -0.489,0.27c-0.154,0 -0.368,-0.074 -0.638,-0.218c-0.357,-0.191 -0.588,-0.306 -0.692,-0.34c-0.823,-0.282 -1.704,-0.42 -2.648,-0.42c-2.203,0 -4.26,0.668 -6.169,2.009c-0.386,0.546 -0.577,0.858 -0.577,0.927c0,0.086 0.035,0.183 0.104,0.287c0.685,1.145 1.871,2.159 3.558,3.034c1.134,0.472 2.136,0.708 2.999,0.708c0.679,0 1.272,-0.12 1.791,-0.368c0.73,-0.069 1.829,-0.478 3.304,-1.231l3.425,-1.756c0.235,0.035 0.368,0.052 0.402,0.052c-0.069,0.496 -0.258,1.083 -0.57,1.768c-0.408,0.858 -0.649,1.439 -0.725,1.756c-1.104,0.661 -3.108,1.675 -6.021,3.04c-2.59,1.203 -4.467,2.279 -5.636,3.234c-1.536,1.463 -2.706,2.879 -3.488,4.255c-0.293,0.697 -0.588,1.795 -0.881,3.305c-0.345,3.103 0.933,5.549 3.846,7.339c2.027,1.278 4.49,2.142 7.392,2.579c2.572,0.293 5.395,0.299 8.463,0.017c0.493,0 1.226,-0.081 2.186,-0.237c0.962,-0.16 1.643,-0.235 2.051,-0.235c0.247,0 0.479,0.035 0.69,0.098c0,0 0.028,0.143 0.081,0.426c-1.687,1.29 -3.933,2.647 -6.746,4.063c-2.361,0.271 -4.308,0.403 -5.85,0.403c-4.564,0 -7.983,-1.07 -10.264,-3.211c-2.274,-2.142 -3.472,-5.123 -3.581,-8.946c0,-1.249 0.115,-2.579 0.351,-3.995C30.776,43.663 31.846,41.636 33.671,39.363z" id="path_0"/><path fill="#319516" d="M36.128,19l1.047,-3.12l10.167,-4.468c0.139,-0.034 0.2,-0.018 0.2,0.052c0,0.035 -0.017,0.116 -0.05,0.253l-1.364,3.235l-9.765,4.37c-0.125,0.011 -0.2,0.011 -0.235,0C36.082,19.252 36.082,19.148 36.128,19z" id="path_1"/><path fill="#319516" d="M27.73,15.284c1.029,1.544 1.544,3.456 1.544,5.73c0,0.925 -0.16,2.093 -0.487,3.52c-0.424,1.787 -0.918,2.684 -1.488,2.684c-0.146,-0.202 -0.222,-0.404 -0.222,-0.612c0,-0.188 0.069,-0.501 0.2,-0.931c0.139,-0.439 0.209,-0.787 0.209,-1.05c0,-0.265 0,-0.55 0,-0.864c0,-0.611 -0.174,-1.55 -0.515,-2.816c-0.34,-1.266 -0.508,-2.218 -0.508,-2.858C26.464,16.98 26.889,16.041 27.73,15.284z" id="path_2"/></svg>