<svg id="vector" xmlns="http://www.w3.org/2000/svg" width="75" height="67" viewBox="0 0 83 73"><path fill="#0F0FFA" d="M40.506,44.287v-0.168c0.564,-0.788 1.37,-1.86 2.428,-3.223h0.116c0.857,0.921 1.929,1.756 3.225,2.498c0.032,0.034 0.05,0.075 0.05,0.133l-2.342,3.171c-0.023,0.011 -0.063,0.017 -0.121,0.017c-0.069,0 -0.184,-0.028 -0.351,-0.086C42.699,46.261 41.696,45.478 40.506,44.287z" id="path_0"/><path fill="#0F0FFA" d="M29.533,42.094c1.135,-4.715 3.477,-8.151 7.028,-10.31c0.421,-0.334 1.066,-0.79 1.941,-1.365c-0.347,-0.191 -0.825,-0.3 -1.434,-0.334c-0.605,-0.034 -1.197,-0.063 -1.768,-0.085c-0.869,0.023 -1.739,0.035 -2.619,0.035c-0.945,0.154 -1.595,0.626 -1.951,1.416c-0.185,0.662 -0.483,1.1 -0.915,1.3c0.034,-1.45 0.563,-3.136 1.588,-5.06c0.719,-1.365 2.089,-2.043 4.115,-2.043c0.301,0 0.813,0.011 1.532,0.035c0.719,0.023 1.255,0.035 1.605,0.035c3.61,0.403 6.763,0.379 9.475,-0.069c0.226,0.023 0.56,-0.006 1.003,-0.087c0.449,-0.081 0.765,-0.122 0.956,-0.122c0.426,0 0.776,0.116 1.046,0.34c-0.171,0.312 -0.38,0.801 -0.626,1.462c-0.18,0.455 -0.368,0.921 -0.564,1.411c-0.195,0.489 -0.479,0.863 -0.853,1.122c-1.214,0.122 -3.793,0.801 -7.742,2.027c-2.831,1.203 -5.06,2.653 -6.679,4.352c-2.278,2.232 -3.51,4.681 -3.688,7.335c-0.281,1.507 0.127,2.958 1.226,4.352c0.869,1.249 2.009,2.284 3.425,3.102c2.89,1.813 6.96,2.718 12.21,2.718c1.565,0 4.002,-0.34 7.305,-1.015c0.134,0.035 0.334,0.006 0.605,-0.09c0.27,-0.099 0.447,-0.145 0.54,-0.145c0.179,0 0.289,0.167 0.323,0.507c0.063,0.2 -0.161,0.507 -0.674,0.909c-2.637,1.479 -4.6,2.469 -5.906,2.977c-2.28,0.909 -4.462,1.323 -6.545,1.243c-3.068,-0.134 -5.729,-0.696 -7.974,-1.687c-2.061,-0.875 -3.493,-2.038 -4.3,-3.489c-1.375,-2.344 -2.078,-4.462 -2.113,-6.36c0,-0.358 0.029,-1.411 0.087,-3.155C29.251,43.072 29.361,42.652 29.533,42.094z" id="path_1"/><path fill="#0F0FFA" d="M36.142,22.549l1.049,-3.12l10.165,-4.467c0.139,-0.034 0.202,-0.018 0.202,0.052c0,0.035 -0.018,0.115 -0.052,0.253l-1.364,3.235l-9.765,4.369c-0.125,0.011 -0.2,0.011 -0.235,0C36.096,22.803 36.096,22.7 36.142,22.549z" id="path_2"/><path fill="#0F0FFA" d="M27.636,17.037c1.031,1.544 1.546,3.456 1.546,5.73c0,0.925 -0.161,2.093 -0.487,3.519c-0.424,1.788 -0.917,2.684 -1.488,2.684c-0.146,-0.201 -0.224,-0.403 -0.224,-0.611c0,-0.189 0.069,-0.501 0.203,-0.932c0.139,-0.438 0.208,-0.786 0.208,-1.05c0,-0.265 0,-0.55 0,-0.863c0,-0.612 -0.174,-1.55 -0.515,-2.816c-0.342,-1.266 -0.507,-2.218 -0.507,-2.858C26.372,18.733 26.796,17.794 27.636,17.037z" id="path_3"/></svg>