<svg id="vector" xmlns="http://www.w3.org/2000/svg" width="75" height="67" viewBox="0 0 83 73"><path fill="#673AB7" d="M46.188,47.65c-1.416,1.486 -2.827,2.459 -4.225,2.919c-1.399,0.461 -2.717,0.807 -3.955,1.03c-1.237,0.226 -2.453,0.392 -3.644,0.507c-0.356,0.035 -0.639,-0.017 -0.84,-0.156c0.167,-0.392 0.858,-0.875 2.072,-1.45c2.937,-1.417 6.35,-3.535 10.253,-6.355c0.316,-0.294 0.656,-0.593 1.019,-0.903c0.368,-0.313 0.552,-0.651 0.552,-1.02c0,-0.104 -0.051,-0.236 -0.144,-0.397c-0.097,-0.162 -0.213,-0.242 -0.345,-0.242c-0.104,0 -0.294,0.138 -0.571,0.42c-0.27,0.282 -0.494,0.403 -0.662,0.368c-0.834,0.421 -1.692,0.627 -2.579,0.627c-0.73,0 -1.393,-0.144 -1.974,-0.426c-0.871,-0.097 -1.659,-0.742 -2.377,-1.922c-0.294,-0.662 -0.438,-1.335 -0.438,-2.021c0,-0.609 0.144,-1.398 0.438,-2.376c0.298,-1.238 0.488,-2.067 0.552,-2.481c0.656,-1.214 1.485,-1.923 2.498,-2.124c0.34,-0.093 0.674,-0.139 1.014,-0.139c0.943,0 1.83,0.271 2.665,0.813c1.704,1.358 2.706,3.143 3,5.348C48.922,42.176 48.157,45.503 46.188,47.65z" id="path_0"/><path fill="#673AB7" d="M38.061,28.487l1.047,-3.12L49.274,20.9c0.138,-0.035 0.201,-0.018 0.201,0.051c0,0.035 -0.018,0.116 -0.052,0.253L48.06,24.44l-9.763,4.369c-0.127,0.012 -0.202,0.012 -0.236,0C38.014,28.74 38.014,28.637 38.061,28.487z" id="path_1"/><path fill="#673AB7" d="M33.538,25.194c1.029,1.544 1.544,3.457 1.544,5.731c0,0.924 -0.161,2.093 -0.487,3.519c-0.424,1.788 -0.917,2.685 -1.488,2.685c-0.146,-0.203 -0.223,-0.404 -0.223,-0.613c0,-0.187 0.07,-0.5 0.202,-0.931c0.14,-0.438 0.209,-0.786 0.209,-1.05s0,-0.55 0,-0.863c0,-0.612 -0.174,-1.55 -0.515,-2.816c-0.341,-1.266 -0.508,-2.219 -0.508,-2.858C32.272,26.891 32.697,25.952 33.538,25.194z" id="path_2"/></svg>