<svg id="vector" xmlns="http://www.w3.org/2000/svg" width="75" height="67" viewBox="0 0 83 73"><path fill="#2196F3" d="M49.187,44.642c-2.802,1.001 -5.587,2.029 -8.373,3.079c-3.281,1.254 -5.977,2.565 -8.086,3.933c-0.194,-0.082 -0.326,-0.211 -0.407,-0.408c0.188,-0.806 0.782,-1.604 1.792,-2.385c0.839,-0.57 1.702,-1.157 2.573,-1.768l2.149,-1.066c-0.293,-0.146 -0.569,-0.326 -0.838,-0.538c-0.269,-0.22 -0.481,-0.424 -0.62,-0.611c-0.602,-0.782 -0.928,-1.644 -0.976,-2.598c0.081,-0.626 0.316,-1.327 0.716,-2.125c0.569,-0.953 0.929,-1.572 1.074,-1.865c1.743,-2.973 3.633,-4.43 5.652,-4.366c2.436,0.366 3.975,1.36 4.626,2.981c0.097,0.196 0.229,0.675 0.383,1.433c0,0.334 -0.213,0.538 -0.644,0.595c-1.115,-0.823 -2.338,-1.376 -3.673,-1.669c-1.816,-0.409 -3.404,-0.171 -4.772,0.715c-0.098,0.098 -0.179,0.221 -0.236,0.358c0,0.163 0.065,0.57 0.212,1.222c1.189,1.719 2.769,2.761 4.724,3.144c0.636,0.196 1.327,0.253 2.076,0.172c1.002,-0.399 2.558,-0.904 4.675,-1.532c0.033,0.115 0.033,0.221 0,0.31c-0.049,0.333 -0.236,0.814 -0.57,1.433c-0.35,0.578 -0.546,0.888 -0.578,0.928C49.813,44.349 49.52,44.561 49.187,44.642z" id="path_0"/><path fill="#2196F3" d="M33.026,23.061c1.03,1.544 1.545,3.457 1.545,5.731c0,0.924 -0.161,2.093 -0.488,3.519c-0.424,1.788 -0.917,2.685 -1.487,2.685c-0.146,-0.202 -0.223,-0.404 -0.223,-0.613c0,-0.188 0.07,-0.5 0.202,-0.931c0.139,-0.438 0.208,-0.786 0.208,-1.05c0,-0.265 0,-0.55 0,-0.862c0,-0.612 -0.174,-1.551 -0.515,-2.816c-0.34,-1.267 -0.508,-2.22 -0.508,-2.858C31.761,24.758 32.185,23.82 33.026,23.061z" id="path_1"/><path fill="#2196F3" d="M39.823,28.949l1.049,-3.12l10.166,-4.467c0.138,-0.035 0.201,-0.018 0.201,0.052c0,0.035 -0.018,0.115 -0.052,0.253l-1.365,3.235l-9.763,4.369c-0.127,0.011 -0.202,0.011 -0.236,0C39.778,29.203 39.778,29.099 39.823,28.949z" id="path_2"/></svg>