<svg id="vector" xmlns="http://www.w3.org/2000/svg" width="75" height="67" viewBox="0 0 83 73"><path fill="#009688" d="M39.206,30.817l-0.909,0.104l-0.185,-0.288c3.126,-1.63 5.538,-3.183 7.236,-4.65c-0.575,-0.207 -0.962,-0.416 -1.163,-0.629c-0.587,-0.402 -0.881,-1.105 -0.881,-2.106c-0.057,-1.957 0.639,-3.407 2.096,-4.352c0.472,-0.368 1.232,-0.455 2.279,-0.253c1.111,0.599 1.669,1.323 1.669,2.175c0.306,3.208 -1.807,6.103 -6.326,8.688C41.6,30.12 40.334,30.558 39.206,30.817L39.206,30.817zM47.57,23.535c0.38,-0.138 0.57,-0.42 0.57,-0.846c0,-0.674 -0.289,-1.163 -0.858,-1.468c-0.61,-0.248 -1.284,-0.26 -2.027,-0.047c-0.482,0.368 -0.736,0.691 -0.759,0.961c-0.029,0.357 0.202,0.807 0.697,1.348c0.438,0.201 0.789,0.306 1.059,0.306C46.568,23.863 47.006,23.783 47.57,23.535z" id="path_0"/><path fill="#009688" d="M51.194,47.551c-2.912,1.041 -5.807,2.107 -8.702,3.2c-3.413,1.303 -6.214,2.667 -8.406,4.088c-0.204,-0.084 -0.338,-0.22 -0.423,-0.423c0.195,-0.838 0.813,-1.667 1.862,-2.48c0.873,-0.593 1.77,-1.202 2.675,-1.837l2.235,-1.109c-0.305,-0.152 -0.593,-0.338 -0.872,-0.558c-0.278,-0.229 -0.499,-0.44 -0.643,-0.635c-0.627,-0.813 -0.966,-1.71 -1.016,-2.701c0.085,-0.652 0.33,-1.38 0.745,-2.209c0.592,-0.991 0.965,-1.635 1.117,-1.939c1.812,-3.09 3.776,-4.604 5.875,-4.537c2.532,0.381 4.131,1.414 4.809,3.099c0.102,0.203 0.237,0.702 0.398,1.49c0,0.347 -0.221,0.558 -0.669,0.617c-1.16,-0.854 -2.43,-1.431 -3.818,-1.734c-1.888,-0.424 -3.539,-0.179 -4.96,0.744c-0.102,0.102 -0.187,0.229 -0.246,0.373c0,0.168 0.068,0.592 0.22,1.27c1.236,1.786 2.879,2.869 4.91,3.268c0.66,0.203 1.38,0.263 2.159,0.178c1.041,-0.415 2.658,-0.939 4.859,-1.592c0.034,0.119 0.034,0.229 0,0.321c-0.05,0.348 -0.245,0.847 -0.591,1.49c-0.364,0.602 -0.568,0.923 -0.602,0.965C51.845,47.246 51.541,47.466 51.194,47.551z" id="path_1"/></svg>