<svg id="vector" xmlns="http://www.w3.org/2000/svg" width="75" height="67" viewBox="0 0 83 73"><path fill="#188518" d="M53.779,29.792c-0.104,0.271 -0.281,0.546 -0.541,0.829c-0.166,0.052 -0.293,0.017 -0.374,-0.122c-0.029,-0.068 -0.041,-0.206 -0.023,-0.42c0.018,-0.213 0.006,-0.357 -0.023,-0.42c0,-0.103 0.023,-0.252 0.063,-0.459c-0.333,-0.18 -0.689,-0.259 -1.06,-0.248c-0.351,0.029 -1.059,0.299 -2.124,0.806c-2.239,1.555 -3.845,3.005 -4.822,4.352c-1.037,1.485 -1.451,2.792 -1.251,3.932c0.675,0.817 1.906,1.191 3.696,1.111c2.009,-0.058 3.345,0.132 3.996,0.575c0.224,0.236 0.368,0.737 0.438,1.497c0.246,1.768 0.137,3.293 -0.336,4.577c-0.351,1.404 -1.196,3.096 -2.532,5.078c-1.629,1.818 -3.199,3.176 -4.703,4.08c-1.687,0.991 -3.373,1.532 -5.06,1.636c-1.248,0.091 -2.515,-0.081 -3.793,-0.507c-2.141,-0.726 -3.829,-1.946 -5.078,-3.673c-0.966,-1.318 -1.52,-3.121 -1.652,-5.416c-0.212,-3.352 0.496,-6.505 2.124,-9.476c0.542,-0.8 0.841,-1.237 0.91,-1.317c0.368,-0.392 0.771,-0.64 1.196,-0.744c0.035,0.507 -0.125,1.055 -0.47,1.642c-0.353,0.581 -0.681,1.128 -0.996,1.635c-1.003,2.159 -1.348,4.42 -1.049,6.798c0.611,1.687 1.602,3.092 2.981,4.219c1.376,1.134 2.926,1.767 4.647,1.9c0.614,0.104 1.271,0.126 1.968,0.069c1.553,-0.081 3.144,-0.513 4.767,-1.301c1.622,-0.783 2.958,-1.698 4.007,-2.729c0.461,-0.495 1.127,-1.237 2.008,-2.228c0.075,-0.167 0.075,-0.386 0,-0.645c-0.092,-0.213 -0.258,-0.328 -0.507,-0.351c-1.376,-0.041 -2.75,-0.086 -4.132,-0.138c-1.589,-0.203 -2.637,-0.927 -3.155,-2.176c-0.235,-0.483 -0.368,-1.077 -0.403,-1.773c-0.034,-0.553 -0.017,-1.261 0.047,-2.124c0.139,-1.128 0.212,-1.825 0.224,-2.095c0.46,-2.35 1.457,-4.595 2.999,-6.736c1.544,-2.141 3.386,-3.822 5.533,-5.036c0.473,-0.075 0.948,-0.167 1.433,-0.265c0.541,-0.069 0.979,0.099 1.317,0.507c0.226,0.345 0.352,0.73 0.386,1.163c0.012,0.403 -0.102,1.047 -0.345,1.928C53.849,28.605 53.745,29.296 53.779,29.792z" id="path_0"/><path fill="#188518" d="M40.191,23.985l1.047,-3.12l10.167,-4.467c0.139,-0.035 0.2,-0.017 0.2,0.051c0,0.035 -0.018,0.116 -0.05,0.253l-1.365,3.235l-9.764,4.369c-0.126,0.012 -0.201,0.012 -0.235,0C40.146,24.239 40.146,24.136 40.191,23.985z" id="path_1"/><path fill="#188518" d="M30.938,19.879c1.029,1.544 1.544,3.456 1.544,5.73c0,0.925 -0.16,2.093 -0.487,3.519c-0.424,1.788 -0.918,2.685 -1.488,2.685c-0.146,-0.202 -0.222,-0.404 -0.222,-0.612c0,-0.188 0.069,-0.501 0.201,-0.932c0.139,-0.438 0.208,-0.786 0.208,-1.05s0,-0.549 0,-0.862c0,-0.612 -0.174,-1.551 -0.515,-2.816c-0.34,-1.267 -0.507,-2.219 -0.507,-2.858C29.672,21.575 30.096,20.637 30.938,19.879z" id="path_2"/></svg>