<svg id="vector" xmlns="http://www.w3.org/2000/svg" width="75" height="67" viewBox="0 0 83 73"><path fill="#AA0ECD" d="M35.229,41.338V41.17c0.563,-0.788 1.37,-1.859 2.429,-3.225h0.115c0.218,0.237 0.817,0.721 1.808,1.451c0.473,0.352 0.948,0.702 1.433,1.066c0.541,-0.756 1.266,-1.712 2.176,-2.868h0.115c0.858,0.91 1.93,1.732 3.225,2.475c0.035,0.023 0.051,0.075 0.051,0.156l-2.359,3.155c-0.012,0.023 -0.047,0.029 -0.104,0.029c-0.081,0 -0.2,-0.023 -0.374,-0.081c-0.794,-0.374 -1.79,-1.158 -2.981,-2.361V40.95l-2.072,2.781c-0.011,0.023 -0.046,0.035 -0.104,0.035c-0.081,0 -0.202,-0.029 -0.368,-0.087C37.416,43.312 36.419,42.529 35.229,41.338z" id="path_0"/><path fill="#AA0ECD" d="M37.535,36.478v-0.167c0.564,-0.788 1.376,-1.86 2.431,-3.218h0.121c0.841,0.92 1.916,1.743 3.217,2.476c0.023,0.034 0.035,0.086 0.035,0.154l-2.344,3.167c-0.023,0.012 -0.056,0.018 -0.103,0.018c-0.075,0 -0.196,-0.029 -0.353,-0.081C39.729,38.452 38.729,37.67 37.535,36.478z" id="path_1"/><path fill="#AA0ECD" d="M56.74,48.147c-1.813,1.156 -4.155,2.095 -7.035,2.813c-4.387,0.991 -8.104,1.475 -11.156,1.457c-3.051,-0.017 -5.422,-0.312 -7.108,-0.886c-1.688,-0.571 -3.166,-1.567 -4.433,-2.982c-1.095,-1.249 -1.732,-2.7 -1.924,-4.352c-0.246,-2.326 0.318,-4.836 1.704,-7.525c0.145,-0.132 0.289,-0.293 0.438,-0.478c0.145,-0.184 0.313,-0.264 0.489,-0.229l-0.017,0.408c-0.766,1.64 -1.18,3.103 -1.249,4.381c-0.035,0.449 -0.035,0.759 0,0.927c0.472,2.159 2.106,3.678 4.911,4.559c1.57,0.536 3.217,0.869 4.938,0.99c0.271,0.012 0.692,0.047 1.267,0.104c3.518,0.012 7.782,-0.405 12.798,-1.251c2.9,-0.54 4.967,-1.272 6.192,-2.191c-0.079,-0.37 -0.356,-0.79 -0.828,-1.257c-0.473,-0.466 -0.76,-0.887 -0.858,-1.255c-0.069,-1.483 0.018,-3.005 0.255,-4.552l0.2,-0.018c1.562,1.762 2.431,3.637 2.597,5.613C58.122,44.733 57.73,46.638 56.74,48.147z" id="path_2"/><path fill="#AA0ECD" d="M35.521,30.537l1.048,-3.12l10.165,-4.467c0.14,-0.035 0.203,-0.017 0.203,0.052c0,0.035 -0.018,0.115 -0.053,0.252l-1.364,3.236l-9.765,4.368c-0.125,0.012 -0.2,0.012 -0.234,0C35.475,30.791 35.475,30.687 35.521,30.537z" id="path_3"/><path fill="#AA0ECD" d="M28.637,20.582c1.029,1.544 1.544,3.456 1.544,5.73c0,0.925 -0.16,2.093 -0.486,3.519c-0.424,1.788 -0.917,2.684 -1.487,2.684c-0.146,-0.201 -0.224,-0.403 -0.224,-0.611c0,-0.189 0.069,-0.501 0.202,-0.932c0.139,-0.438 0.208,-0.786 0.208,-1.05c0,-0.265 0,-0.55 0,-0.863c0,-0.612 -0.174,-1.55 -0.515,-2.816c-0.341,-1.266 -0.507,-2.218 -0.507,-2.858C27.372,22.278 27.796,21.339 28.637,20.582z" id="path_4"/></svg>