<svg id="vector" xmlns="http://www.w3.org/2000/svg" width="75" height="67" viewBox="0 0 83 73"><path fill="#FFC107" d="M46.171,32.755v-0.166c0.564,-0.79 1.37,-1.859 2.43,-3.224h0.115c0.858,0.921 1.929,1.756 3.224,2.497c0.034,0.035 0.052,0.075 0.052,0.134l-2.343,3.172c-0.023,0.01 -0.063,0.018 -0.121,0.018c-0.069,0 -0.184,-0.029 -0.352,-0.087C48.364,34.73 47.363,33.946 46.171,32.755z" id="path_0"/><path fill="#FFC107" d="M27.964,49.266c1.042,0.028 2.412,-0.035 4.099,-0.209c1.911,-0.2 3.258,-0.299 4.046,-0.299c0.236,0 0.535,-0.183 0.893,-0.541c0.306,-0.719 0.604,-1.427 0.91,-2.13c0.351,-0.817 0.523,-1.576 0.523,-2.274c0.069,-1.893 0.058,-4.46 -0.035,-7.714c-0.092,-3.868 -0.138,-6.446 -0.138,-7.73c0,-1.087 0.011,-2.124 0.035,-3.103c0.304,-1.07 0.834,-2.658 1.6,-4.761l0.369,0.306c0.035,0.132 0.149,0.989 0.356,2.579c0.133,1.012 0.363,1.825 0.691,2.446l-0.138,0.046c0.73,0.904 1.098,1.577 1.098,2.025c0,0.237 -0.085,0.542 -0.252,0.91c-0.271,0.495 -0.426,0.794 -0.455,0.893l-1.301,2.025c0,2.033 0,5.309 0,9.828c0,0.034 -0.058,0.183 -0.167,0.443c-0.035,0.165 -0.017,0.315 0.051,0.455c2.136,-3.242 4.968,-4.859 8.497,-4.859c0.449,0 0.904,0.034 1.365,0.104c2.544,0.649 4.317,1.99 5.33,4.017c-0.312,5.308 -2.072,8.423 -5.279,9.361c-4.64,1.351 -8.364,2.025 -11.167,2.025c-2.141,0 -4.052,-0.351 -5.739,-1.049c-1.347,-0.333 -3.299,-1.046 -5.854,-2.124C27.302,49.801 27.526,49.575 27.964,49.266L27.964,49.266zM47.438,42.213c-0.27,-0.035 -0.563,-0.052 -0.88,-0.052c-1.75,0 -3.438,0.646 -5.055,1.935c-1.421,1.128 -2.584,2.597 -3.495,4.41c2.395,-0.069 5.653,-0.403 9.763,-0.996c0.34,-0.14 1.267,-0.397 2.786,-0.777c1.146,-0.307 2.044,-0.634 2.7,-0.996v-0.611C51.594,43.383 49.654,42.409 47.438,42.213z" id="path_1"/><path fill="#FFC107" d="M44.283,27.493l1.048,-3.118l10.166,-4.468c0.139,-0.035 0.201,-0.018 0.201,0.052c0,0.035 -0.018,0.115 -0.051,0.253l-1.365,3.235l-9.763,4.37c-0.127,0.01 -0.202,0.01 -0.236,0C44.237,27.748 44.237,27.644 44.283,27.493z" id="path_2"/><path fill="#FFC107" d="M33.289,21.902c1.029,1.543 1.544,3.457 1.544,5.729c0,0.926 -0.16,2.094 -0.486,3.52c-0.425,1.787 -0.918,2.685 -1.489,2.685c-0.146,-0.202 -0.222,-0.402 -0.222,-0.612c0,-0.188 0.069,-0.501 0.202,-0.931c0.139,-0.438 0.208,-0.787 0.208,-1.051c0,-0.265 0,-0.55 0,-0.861c0,-0.613 -0.173,-1.552 -0.515,-2.818c-0.34,-1.265 -0.507,-2.219 -0.507,-2.858C32.024,23.6 32.448,22.661 33.289,21.902z" id="path_3"/></svg>