<svg id="vector" xmlns="http://www.w3.org/2000/svg" width="75" height="67" viewBox="0 0 83 73"><path fill="#009688" d="M41.426,47.384c-0.092,0.156 -0.265,0.449 -0.524,0.875c-0.598,1.191 -1.214,2.003 -1.853,2.429c-0.386,0.236 -1.341,0.587 -2.867,1.048c-1.388,0.449 -3.437,1.014 -6.159,1.686c-0.605,0.122 -0.91,0.099 -0.91,-0.069c0,-0.154 0.161,-0.351 0.488,-0.586c4.203,-3.005 7.875,-5.313 11.012,-6.937c0.271,-0.098 0.519,-0.501 0.743,-1.209c0.438,-1.204 0.708,-1.922 0.811,-2.159c0.052,-0.091 0.408,-0.703 1.06,-1.824c0.968,-1.227 1.91,-2.436 2.832,-3.627c1.237,-1.261 2.517,-1.888 3.827,-1.888c0.272,0 0.542,0.011 0.813,0.035c1.099,0.541 1.762,1.14 1.974,1.801c0.806,1.284 1.215,2.833 1.215,4.641c0,2.757 -0.812,5.382 -2.429,7.874c-0.438,0.139 -0.887,0.203 -1.348,0.203c-1.196,0 -2.643,-0.403 -4.352,-1.214c-1.272,-0.628 -2.567,-1.295 -3.879,-2.004L41.426,47.384L41.426,47.384zM44.844,42.06c1.895,1.249 3.828,2.073 5.804,2.464c0.103,0 0.183,-0.099 0.235,-0.306c0.115,-0.357 -0.029,-0.887 -0.42,-1.583c-0.588,-0.967 -1.284,-1.628 -2.09,-1.991c-0.881,-0.288 -1.768,-0.133 -2.666,0.471C45.281,41.525 44.994,41.835 44.844,42.06z" id="path_0"/><path fill="#009688" d="M42.387,27.105l1.047,-3.121l10.167,-4.467c0.139,-0.035 0.2,-0.017 0.2,0.051c0,0.035 -0.018,0.116 -0.05,0.253l-1.365,3.235l-9.764,4.37c-0.126,0.012 -0.201,0.012 -0.235,0C42.341,27.357 42.341,27.254 42.387,27.105z" id="path_1"/><path fill="#009688" d="M33.689,22.865c1.029,1.544 1.543,3.456 1.543,5.73c0,0.925 -0.16,2.093 -0.486,3.519c-0.424,1.788 -0.918,2.685 -1.488,2.685c-0.146,-0.202 -0.223,-0.404 -0.223,-0.612c0,-0.188 0.069,-0.501 0.202,-0.932c0.139,-0.438 0.208,-0.787 0.208,-1.051c0,-0.264 0,-0.549 0,-0.862c0,-0.612 -0.173,-1.551 -0.515,-2.816c-0.34,-1.266 -0.507,-2.218 -0.507,-2.858C32.424,24.562 32.848,23.622 33.689,22.865z" id="path_2"/></svg>