<svg id="vector" xmlns="http://www.w3.org/2000/svg" width="75" height="67" viewBox="0 0 83 73"><path fill="#0EC389" d="M32.701,21.902c1.028,1.544 1.543,3.457 1.543,5.729c0,0.926 -0.159,2.095 -0.486,3.52c-0.424,1.788 -0.918,2.685 -1.489,2.685c-0.146,-0.202 -0.222,-0.403 -0.222,-0.612c0,-0.188 0.069,-0.5 0.202,-0.932c0.139,-0.438 0.208,-0.786 0.208,-1.051c0,-0.264 0,-0.549 0,-0.861c0,-0.613 -0.174,-1.552 -0.515,-2.817c-0.34,-1.265 -0.507,-2.218 -0.507,-2.857C31.436,23.6 31.859,22.66 32.701,21.902z" id="path_0"/><path fill="#0EC389" d="M39.303,31.877v-0.166c0.564,-0.79 1.37,-1.859 2.429,-3.224h0.116c0.858,0.921 1.928,1.756 3.223,2.498c0.035,0.034 0.052,0.075 0.052,0.133l-2.341,3.17c-0.023,0.012 -0.064,0.018 -0.122,0.018c-0.069,0 -0.185,-0.027 -0.351,-0.086C41.496,33.851 40.494,33.068 39.303,31.877z" id="path_1"/><path fill="#0EC389" d="M37.133,49.296c1.313,0.093 2.602,0.139 3.862,0.139c3.093,0 6.068,-0.345 8.935,-1.031c0.104,-0.096 0.156,-0.2 0.156,-0.299c0,-0.069 -0.075,-0.2 -0.22,-0.396c-0.15,-0.2 -0.224,-0.334 -0.224,-0.397c-0.922,-1.214 -2.355,-2.355 -4.301,-3.407c-2.999,-1.71 -4.571,-2.597 -4.704,-2.666c0,-1.687 0.121,-3.304 0.357,-4.858l0.639,0.201c1.97,1.078 3.915,2.153 5.838,3.218c2.209,1.417 3.478,3.126 3.794,5.123c0.2,0.697 0.298,1.405 0.298,2.126c0,1.484 -0.489,3.35 -1.478,5.595c-2.466,1.249 -5.873,1.87 -10.225,1.87c-1.348,0 -2.504,-0.099 -3.472,-0.287C36.39,53.856 36.638,52.216 37.133,49.296z" id="path_2"/><path fill="#0EC389" d="M36.678,26.092l1.048,-3.12l10.167,-4.467c0.137,-0.034 0.2,-0.018 0.2,0.052c0,0.035 -0.018,0.115 -0.052,0.253l-1.363,3.236l-9.764,4.368c-0.127,0.012 -0.201,0.012 -0.236,0C36.632,26.346 36.632,26.241 36.678,26.092z" id="path_3"/></svg>