<svg id="vector" xmlns="http://www.w3.org/2000/svg" width="75" height="67" viewBox="0 0 83 73"><path fill="#8BC34A" d="M41.051,30.191v-0.167c0.565,-0.789 1.371,-1.86 2.43,-3.225h0.115c0.219,0.236 0.818,0.721 1.808,1.451c0.472,0.351 0.95,0.701 1.433,1.065c0.542,-0.756 1.267,-1.709 2.176,-2.868h0.116c0.857,0.91 1.928,1.733 3.223,2.476c0.035,0.022 0.051,0.075 0.051,0.155l-2.36,3.155c-0.011,0.023 -0.045,0.029 -0.104,0.029c-0.081,0 -0.201,-0.023 -0.374,-0.081c-0.795,-0.374 -1.791,-1.156 -2.983,-2.361v-0.017l-2.072,2.781c-0.012,0.022 -0.046,0.034 -0.103,0.034c-0.081,0 -0.203,-0.029 -0.369,-0.087C43.238,32.165 42.243,31.383 41.051,30.191z" id="path_0"/><path fill="#8BC34A" d="M33.366,36.23h0.351c0.149,0.293 0.116,0.574 -0.098,0.846c-1.14,1.415 -1.929,3.072 -2.377,4.973c-0.069,0.438 -0.104,0.904 -0.104,1.399c0,2.9 1.071,5.094 3.207,6.58c1.945,1.38 4.104,2.072 6.476,2.072c2.009,0 3.926,-0.38 5.751,-1.147c2.032,-0.857 3.592,-2.008 4.668,-3.459c0.8,-1.076 1.162,-2.003 1.1,-2.763c-0.069,-0.541 -0.386,-1.266 -0.944,-2.176c-0.484,0.224 -1.226,0.536 -2.228,0.944c-2.533,0.029 -4.139,-0.646 -4.824,-2.027c-0.236,-0.438 -0.357,-0.937 -0.357,-1.501c0,-0.582 0.173,-1.359 0.507,-2.327c0.386,-1.145 0.61,-1.938 0.68,-2.376c0.201,-0.318 0.633,-0.736 1.295,-1.267c0.282,-0.093 0.559,-0.139 0.829,-0.139c0.898,0 1.922,0.432 3.068,1.295c1.969,1.831 2.953,4.479 2.953,7.939c0,3.332 -0.834,6.111 -2.498,8.334c-1.318,1.732 -2.958,3.132 -4.927,4.209c-1.963,1.07 -3.967,1.605 -5.998,1.605c-2.182,0 -4.151,-0.634 -5.907,-1.9c-2.936,-2.129 -4.404,-5.369 -4.404,-9.722c0,-1.721 0.253,-3.373 0.76,-4.957C30.707,39.688 31.714,38.21 33.366,36.23z" id="path_1"/><path fill="#8BC34A" d="M42.001,23.357l1.048,-3.119l10.166,-4.468c0.138,-0.034 0.201,-0.017 0.201,0.053c0,0.034 -0.017,0.115 -0.052,0.252L52,19.312l-9.762,4.369c-0.127,0.012 -0.202,0.012 -0.236,0C41.955,23.611 41.955,23.508 42.001,23.357z" id="path_2"/><path fill="#8BC34A" d="M33.289,21.902c1.029,1.543 1.544,3.457 1.544,5.729c0,0.926 -0.16,2.094 -0.486,3.52c-0.424,1.787 -0.918,2.685 -1.489,2.685c-0.146,-0.202 -0.222,-0.402 -0.222,-0.612c0,-0.188 0.069,-0.501 0.202,-0.931c0.139,-0.438 0.208,-0.787 0.208,-1.051c0,-0.265 0,-0.55 0,-0.861c0,-0.613 -0.173,-1.552 -0.515,-2.818c-0.34,-1.265 -0.507,-2.219 -0.507,-2.858C32.024,23.6 32.448,22.661 33.289,21.902z" id="path_3"/></svg>