<svg id="vector" xmlns="http://www.w3.org/2000/svg" width="75" height="67" viewBox="0 0 83 73"><path fill="#1230F6" d="M24.09,36.978c0.034,0.064 0.063,0.168 0.099,0.299c-0.293,0.461 -0.71,1.159 -1.249,2.078c-0.979,1.515 -1.567,3.034 -1.768,4.555c-0.202,1.605 0.028,2.987 0.689,4.144c1.191,2.396 3.121,3.996 5.786,4.796c1.853,0.535 4.347,0.657 7.471,0.351c4.485,-1.249 7.209,-3.13 8.165,-5.653c-0.069,-1.768 -0.449,-3.407 -1.136,-4.927c-0.27,-0.628 -0.685,-1.555 -1.243,-2.781c-0.069,-0.977 0.012,-2.399 0.249,-4.253c0.194,-0.035 0.374,0.017 0.539,0.149c0.519,0.409 1.296,0.997 2.327,1.773c0.892,0.576 1.825,0.933 2.802,1.081c1.003,-1.697 1.999,-3.407 2.982,-5.128c1.388,-1.979 2.983,-3.127 4.789,-3.426c0.623,-0.212 1.278,-0.321 1.976,-0.321c1.554,0 3.12,0.438 4.709,1.313c1.479,1.449 2.222,2.671 2.222,3.66c0,0.167 -0.017,0.351 -0.052,0.553c-0.266,2.987 -1.439,5.21 -3.523,6.655c-3.149,1.617 -6.291,2.429 -9.429,2.429c-2.043,0 -3.892,-0.38 -5.543,-1.145c-0.353,-0.069 -0.524,0.016 -0.524,0.252c0.075,0.594 0.115,1.168 0.115,1.722c0,1.582 -0.289,3.155 -0.875,4.708c-0.979,2.516 -2.647,4.582 -5.009,6.184c-2.359,1.605 -4.909,2.405 -7.639,2.405c-2.804,0 -5.238,-0.823 -7.322,-2.475c-2.798,-2.223 -4.195,-5.424 -4.195,-9.608c0,-1.738 0.299,-3.355 0.892,-4.836c1.082,-2.037 2.183,-3.538 3.304,-4.506C23.922,36.995 24.055,36.978 24.09,36.978L24.09,36.978zM55.676,34.37c-0.351,-0.034 -0.675,-0.052 -0.979,-0.052c-2.313,0 -4.376,1.486 -6.172,4.456c0.617,0.27 1.124,0.386 1.515,0.351c0.655,0.035 1.284,0.052 1.895,0.052c3.707,0 6.804,-0.776 9.29,-2.326c-0.202,-0.483 -0.57,-0.898 -1.099,-1.231c-0.202,-0.137 -0.697,-0.414 -1.479,-0.846C57.461,34.358 56.476,34.226 55.676,34.37z" id="path_0"/><path fill="#1230F6" d="M41.797,22.154l1.049,-3.118l10.165,-4.468c0.139,-0.035 0.202,-0.018 0.202,0.052c0,0.035 -0.018,0.115 -0.052,0.253l-1.365,3.235l-9.764,4.37c-0.126,0.01 -0.201,0.01 -0.235,0C41.751,22.409 41.751,22.305 41.797,22.154z" id="path_1"/><path fill="#1230F6" d="M33.289,21.902c1.029,1.543 1.544,3.457 1.544,5.729c0,0.926 -0.16,2.096 -0.487,3.52c-0.424,1.789 -0.918,2.685 -1.488,2.685c-0.145,-0.202 -0.222,-0.402 -0.222,-0.612c0,-0.188 0.069,-0.499 0.202,-0.931c0.139,-0.438 0.209,-0.787 0.209,-1.051c0,-0.265 0,-0.55 0,-0.861c0,-0.613 -0.174,-1.552 -0.515,-2.818c-0.342,-1.265 -0.509,-2.219 -0.509,-2.856C32.023,23.6 32.447,22.661 33.289,21.902z" id="path_2"/></svg>