<svg id="vector" xmlns="http://www.w3.org/2000/svg" width="75" height="67" viewBox="0 0 83 73"><path fill="#9e3b21" d="M37.241,45.883c1.313,0.091 2.604,0.137 3.864,0.137c3.09,0 6.065,-0.345 8.934,-1.029c0.104,-0.099 0.154,-0.202 0.154,-0.301c0,-0.067 -0.073,-0.2 -0.218,-0.396c-0.15,-0.201 -0.226,-0.334 -0.226,-0.397c-0.919,-1.214 -2.354,-2.354 -4.3,-3.407c-2.999,-1.71 -4.57,-2.597 -4.703,-2.664c0,-1.688 0.122,-3.307 0.358,-4.859l0.639,0.2c1.968,1.077 3.914,2.153 5.838,3.219c2.209,1.415 3.475,3.125 3.793,5.124c0.2,0.695 0.299,1.404 0.299,2.124c0,1.483 -0.489,3.35 -1.48,5.595c-2.463,1.249 -5.871,1.871 -10.223,1.871c-1.348,0 -2.504,-0.098 -3.472,-0.289C36.499,50.44 36.748,48.801 37.241,45.883z" id="path_0"/><path fill="#9e3b21" d="M39.155,29.763l1.049,-3.119l10.165,-4.467c0.139,-0.035 0.202,-0.018 0.202,0.052c0,0.035 -0.018,0.115 -0.052,0.253l-1.365,3.236l-9.762,4.368c-0.127,0.012 -0.202,0.012 -0.237,0C39.111,30.018 39.111,29.913 39.155,29.763z" id="path_1"/><path fill="#0EC389" d="M32.593,21.902c1.029,1.544 1.544,3.457 1.544,5.729c0,0.926 -0.16,2.095 -0.488,3.52c-0.424,1.788 -0.917,2.685 -1.487,2.685c-0.145,-0.202 -0.222,-0.403 -0.222,-0.612c0,-0.188 0.069,-0.5 0.202,-0.932c0.139,-0.438 0.208,-0.786 0.208,-1.051c0,-0.264 0,-0.549 0,-0.861c0,-0.613 -0.174,-1.552 -0.515,-2.817c-0.341,-1.265 -0.509,-2.218 -0.509,-2.857C31.326,23.6 31.75,22.66 32.593,21.902z" id="path_2"/></svg>