<svg id="vector" xmlns="http://www.w3.org/2000/svg" width="75" height="67" viewBox="0 0 83 73"><path fill="#EC0A49" d="M38.647,51.764v-0.167c0.563,-0.788 1.369,-1.86 2.429,-3.225h0.115c0.857,0.921 1.929,1.756 3.224,2.499c0.035,0.035 0.052,0.074 0.052,0.132l-2.343,3.172c-0.022,0.012 -0.063,0.017 -0.121,0.017c-0.068,0 -0.184,-0.029 -0.351,-0.086C40.841,53.739 39.839,52.956 38.647,51.764z" id="path_0"/><path fill="#EC0A49" d="M56.74,41.719c-1.813,1.157 -4.156,2.095 -7.034,2.814c-4.387,0.991 -8.105,1.475 -11.157,1.458c-3.051,-0.018 -5.423,-0.312 -7.109,-0.887c-1.686,-0.571 -3.165,-1.566 -4.432,-2.982c-1.094,-1.249 -1.732,-2.7 -1.923,-4.352c-0.247,-2.326 0.316,-4.836 1.704,-7.524c0.144,-0.132 0.287,-0.293 0.438,-0.477c0.144,-0.185 0.311,-0.265 0.488,-0.23l-0.017,0.409c-0.766,1.64 -1.18,3.102 -1.249,4.38c-0.035,0.449 -0.035,0.761 0,0.927c0.472,2.159 2.107,3.679 4.911,4.559c1.57,0.536 3.218,0.87 4.938,0.991c0.27,0.012 0.69,0.046 1.267,0.104c3.518,0.011 7.782,-0.403 12.797,-1.249c2.9,-0.541 4.967,-1.272 6.193,-2.193c-0.081,-0.369 -0.357,-0.79 -0.828,-1.255c-0.473,-0.466 -0.761,-0.887 -0.858,-1.256c-0.069,-1.485 0.018,-3.005 0.253,-4.553l0.201,-0.017c1.561,1.762 2.43,3.638 2.597,5.613C58.122,38.305 57.729,40.21 56.74,41.719z" id="path_1"/><path fill="#EC0A49" d="M40.232,29.199l1.048,-3.121l10.166,-4.467c0.139,-0.035 0.201,-0.018 0.201,0.052c0,0.035 -0.017,0.114 -0.051,0.253l-1.364,3.235l-9.764,4.369c-0.127,0.011 -0.201,0.011 -0.236,0C40.187,29.452 40.187,29.348 40.232,29.199z" id="path_2"/><path fill="#000001" d="M33.148,18.807c1.029,1.543 1.544,3.456 1.544,5.73c0,0.925 -0.16,2.093 -0.486,3.519c-0.425,1.788 -0.919,2.685 -1.488,2.685c-0.146,-0.202 -0.223,-0.404 -0.223,-0.612c0,-0.189 0.069,-0.501 0.201,-0.932c0.139,-0.438 0.208,-0.787 0.208,-1.051c0,-0.264 0,-0.549 0,-0.862c0,-0.612 -0.173,-1.551 -0.514,-2.816c-0.341,-1.266 -0.508,-2.218 -0.508,-2.858C31.883,20.502 32.308,19.564 33.148,18.807z" id="path_3"/></svg>