<svg id="vector" xmlns="http://www.w3.org/2000/svg" width="75" height="67" viewBox="0 0 83 73"><path fill="#009649" d="M27.964,49.266c1.043,0.028 2.411,-0.035 4.1,-0.209c1.91,-0.2 3.257,-0.299 4.046,-0.299c0.236,0 0.535,-0.185 0.892,-0.541c0.305,-0.719 0.605,-1.427 0.91,-2.13c0.351,-0.817 0.524,-1.576 0.524,-2.274c0.069,-1.893 0.058,-4.46 -0.035,-7.712c-0.092,-3.87 -0.139,-6.448 -0.139,-7.732c0,-1.087 0.012,-2.124 0.035,-3.101c0.305,-1.072 0.834,-2.66 1.6,-4.761l0.37,0.304c0.034,0.134 0.148,0.991 0.356,2.579c0.133,1.014 0.362,1.825 0.69,2.446l-0.138,0.046c0.73,0.904 1.099,1.579 1.099,2.025c0,0.237 -0.086,0.542 -0.252,0.91c-0.271,0.495 -0.428,0.794 -0.455,0.893l-1.301,2.027c0,2.031 0,5.307 0,9.826c0,0.034 -0.058,0.183 -0.168,0.443c-0.034,0.165 -0.018,0.315 0.052,0.455c2.136,-3.242 4.968,-4.859 8.496,-4.859c0.449,0 0.904,0.034 1.365,0.104c2.544,0.649 4.317,1.99 5.331,4.017c-0.313,5.308 -2.072,8.423 -5.279,9.361c-4.64,1.353 -8.365,2.025 -11.167,2.025c-2.142,0 -4.054,-0.351 -5.74,-1.049c-1.348,-0.333 -3.298,-1.046 -5.854,-2.124C27.303,49.801 27.526,49.575 27.964,49.266L27.964,49.266zM47.438,42.213c-0.27,-0.035 -0.564,-0.052 -0.881,-0.052c-1.75,0 -3.437,0.646 -5.054,1.935c-1.423,1.128 -2.585,2.597 -3.494,4.41c2.394,-0.069 5.652,-0.403 9.762,-0.996c0.34,-0.14 1.267,-0.397 2.787,-0.777c1.146,-0.307 2.043,-0.634 2.7,-0.996v-0.611C51.594,43.383 49.655,42.409 47.438,42.213z" id="path_0"/><path fill="#009649" d="M44.283,27.493l1.049,-3.118l10.165,-4.468c0.139,-0.035 0.202,-0.018 0.202,0.052c0,0.035 -0.018,0.115 -0.052,0.253l-1.365,3.235l-9.762,4.37c-0.128,0.012 -0.203,0.012 -0.237,0C44.237,27.748 44.237,27.644 44.283,27.493z" id="path_1"/><path fill="#009649" d="M33.289,21.902c1.029,1.543 1.544,3.457 1.544,5.729c0,0.926 -0.16,2.096 -0.487,3.52c-0.424,1.789 -0.918,2.685 -1.488,2.685c-0.145,-0.202 -0.222,-0.402 -0.222,-0.612c0,-0.188 0.069,-0.499 0.202,-0.931c0.139,-0.438 0.209,-0.787 0.209,-1.051c0,-0.265 0,-0.55 0,-0.861c0,-0.613 -0.174,-1.552 -0.515,-2.818c-0.342,-1.265 -0.509,-2.219 -0.509,-2.856C32.023,23.6 32.447,22.661 33.289,21.902z" id="path_2"/></svg>