<svg id="vector" xmlns="http://www.w3.org/2000/svg" width="75" height="67" viewBox="0 0 83 73"><path fill="#000001" d="M34.986,42.41v-0.167c0.564,-0.788 1.371,-1.86 2.43,-3.224h0.115c0.219,0.236 0.817,0.72 1.808,1.451c0.472,0.351 0.95,0.702 1.434,1.065c0.541,-0.754 1.266,-1.709 2.175,-2.867h0.115c0.858,0.909 1.929,1.731 3.224,2.476c0.034,0.022 0.052,0.074 0.052,0.154l-2.36,3.155c-0.011,0.023 -0.046,0.029 -0.104,0.029c-0.081,0 -0.201,-0.023 -0.374,-0.081c-0.794,-0.374 -1.791,-1.156 -2.982,-2.36v-0.018l-2.073,2.78c-0.011,0.023 -0.045,0.035 -0.104,0.035c-0.08,0 -0.201,-0.029 -0.369,-0.087C37.174,44.384 36.178,43.601 34.986,42.41z" id="path_0"/><path fill="#000001" d="M56.74,49.323c-1.813,1.157 -4.156,2.095 -7.034,2.814c-4.386,0.99 -8.105,1.474 -11.156,1.457c-3.051,-0.018 -5.423,-0.312 -7.109,-0.887c-1.687,-0.57 -3.166,-1.566 -4.433,-2.982c-1.094,-1.25 -1.732,-2.7 -1.922,-4.352c-0.248,-2.326 0.316,-4.835 1.704,-7.524c0.144,-0.131 0.288,-0.293 0.438,-0.477c0.144,-0.184 0.311,-0.265 0.49,-0.23l-0.018,0.409c-0.766,1.64 -1.18,3.103 -1.249,4.381c-0.035,0.449 -0.035,0.759 0,0.926c0.472,2.159 2.107,3.679 4.91,4.56c1.571,0.536 3.218,0.869 4.939,0.991c0.271,0.011 0.69,0.046 1.267,0.104c3.517,0.01 7.783,-0.404 12.797,-1.25c2.901,-0.541 4.968,-1.272 6.193,-2.192c-0.08,-0.37 -0.357,-0.791 -0.829,-1.256c-0.472,-0.466 -0.76,-0.887 -0.857,-1.256c-0.069,-1.484 0.017,-3.004 0.253,-4.552l0.201,-0.018c1.56,1.762 2.43,3.638 2.597,5.613C58.122,45.909 57.73,47.814 56.74,49.323z" id="path_1"/><path fill="#000001" d="M36.028,32.886l1.048,-3.12l10.166,-4.468c0.138,-0.035 0.202,-0.017 0.202,0.052c0,0.035 -0.018,0.116 -0.052,0.252l-1.364,3.236l-9.763,4.37c-0.126,0.011 -0.201,0.011 -0.236,0C35.982,33.139 35.982,33.035 36.028,32.886z" id="path_2"/><path fill="#000001" d="M28.638,19.405c1.029,1.544 1.544,3.457 1.544,5.731c0,0.925 -0.16,2.093 -0.487,3.518c-0.424,1.788 -0.917,2.684 -1.488,2.684c-0.146,-0.201 -0.223,-0.403 -0.223,-0.612c0,-0.188 0.07,-0.5 0.202,-0.932c0.139,-0.438 0.208,-0.785 0.208,-1.05c0,-0.264 0,-0.549 0,-0.861c0,-0.613 -0.173,-1.552 -0.514,-2.816c-0.34,-1.267 -0.508,-2.22 -0.508,-2.858C27.372,21.103 27.796,20.164 28.638,19.405z" id="path_3"/></svg>