<svg id="vector" xmlns="http://www.w3.org/2000/svg" width="300" height="67" viewBox="0 0 299.89 67"><path fill="#DD2C00" d="M287.318,23.512c1.398,0 2.688,0.861 3.872,2.584c-0.992,2.26 -1.75,3.391 -2.261,3.391c-2.177,-1.076 -3.362,-1.777 -3.555,-2.102C285.375,26.365 286.022,25.068 287.318,23.512z" id="path_0"/><path fill="#DD2C00" d="M282.088,43.777h0.807c5.022,-0.098 8.358,-0.799 10.012,-2.123l0.324,-0.641c-0.214,-0.516 -0.482,-0.771 -0.807,-0.771c-0.778,0.434 -1.64,0.648 -2.584,0.648h-0.165c-2.798,-0.324 -4.252,-1.455 -4.355,-3.391v-0.166c0.269,-3.658 1.13,-5.484 2.584,-5.484h0.807c2.487,-0.125 4.376,1.813 5.65,5.809l0.158,1.619v0.324c-0.034,3.955 -1.454,6.566 -4.259,7.828c-0.991,0.635 -3.721,0.951 -8.172,0.951V43.777z" id="path_1"/><path fill="#DD2C00" d="M293.286,12.59c0.165,-0.098 0.213,0.055 0.144,0.447c-0.916,2.15 -2.321,3.652 -4.217,4.5l-6.967,3.494c-0.296,-0.084 -0.352,-0.324 -0.165,-0.73c0.931,-1.793 1.563,-2.854 1.901,-3.191L293.286,12.59z" id="path_2"/><path fill="#000002" d="M282.247,48.381c-3.136,0.186 -5.417,-1.262 -6.843,-4.342c-0.689,-1.145 -1.33,-8.855 -1.937,-23.133v-0.324c0.399,-2.369 0.992,-3.555 1.771,-3.555l0.813,-0.158c0.992,0 2.501,0.324 4.521,0.965v0.322c-0.11,0.324 -0.435,0.49 -0.972,0.49h-2.743c-0.564,0 -1.102,0.316 -1.619,0.965c0.503,12.396 1.233,19.576 2.205,21.541c0.965,1.963 2.57,2.838 4.804,2.625V48.381z" id="path_3"/><path fill="#000002" d="M283.314,52.715c0.166,-0.09 0.214,0.055 0.145,0.447c-0.916,2.15 -2.322,3.652 -4.217,4.5l-6.967,3.494c-0.296,-0.084 -0.352,-0.324 -0.165,-0.725c0.93,-1.791 1.563,-2.852 1.901,-3.189L283.314,52.715z" id="path_4"/><path fill="#203e96" d="M262.525,33.199c5.491,1.965 8.234,4.391 8.234,7.271l0.165,0.963c-0.462,3.77 -1.702,5.652 -3.721,5.652c0,0.35 -2.688,0.785 -8.069,1.295l-0.166,-0.482c0,-2.695 0.482,-4.039 1.454,-4.039c5.382,-0.434 8.345,-1.082 8.883,-1.943c-1.854,-1.799 -4.279,-3.252 -7.27,-4.354l-0.159,-0.814C261.96,34.385 262.174,33.199 262.525,33.199z" id="path_5"/><path fill="#203e96" d="M262.036,25.605c1.322,0.221 2.611,1.027 3.879,2.426v0.324c-0.806,2.15 -1.398,3.225 -1.777,3.225c-2.585,-0.881 -3.873,-1.584 -3.873,-2.094C260.265,28.486 260.857,27.197 262.036,25.605z" id="path_6"/><path fill="#203e96" d="M268.479,15.373c0.166,-0.096 0.214,0.055 0.145,0.447c-0.916,2.15 -2.322,3.652 -4.217,4.5l-6.967,3.494c-0.296,-0.082 -0.352,-0.324 -0.165,-0.73c0.93,-1.791 1.563,-2.854 1.901,-3.189L268.479,15.373z" id="path_7"/><path fill="#000002" d="M252.547,21.244c0.324,0 0.647,1.082 0.972,3.232l1.454,3.232l-0.647,3.713l0.481,9.049v1.445c-0.213,3.695 -0.751,5.844 -1.612,6.465l-0.158,-0.158l0.158,-2.426c0,-2.178 -0.702,-9.125 -2.102,-20.832C251.769,22.484 252.25,21.244 252.547,21.244z" id="path_8"/><path fill="#203e96" d="M237.677,48.057c2.26,1.131 3.39,2.102 3.39,2.908c-1.074,2.129 -1.723,3.203 -1.937,3.232h-0.323c-1.654,-0.834 -2.681,-1.594 -3.066,-2.262C236.112,50.709 236.76,49.414 237.677,48.057z" id="path_9"/><path fill="#203e96" d="M228.87,43.777h1.86c1.964,-0.27 5.085,-1 9.364,-2.178v-0.166c-3.899,-1.723 -6.374,-2.584 -7.428,-2.584c-1.427,0 -2.392,0.807 -2.908,2.426l-0.482,0.324c-0.214,0 -0.324,-0.166 -0.324,-0.488c0.538,-3.225 1.992,-4.846 4.362,-4.846h0.807c0.999,0 4.389,1.131 10.177,3.391l4.362,0.324l0.316,0.49c-0.075,0.723 -0.723,2.121 -1.936,4.195h-0.482l-0.647,-0.164h-0.807c-8.399,2.48 -13.299,3.768 -14.698,3.879h-1.536V43.777z" id="path_10"/><path fill="#203e96" d="M244.133,22.719c0.166,-0.096 0.214,0.055 0.145,0.447c-0.916,2.15 -2.321,3.652 -4.217,4.5l-6.967,3.494c-0.296,-0.082 -0.352,-0.324 -0.165,-0.73c0.93,-1.791 1.563,-2.854 1.901,-3.191L244.133,22.719z" id="path_11"/><path fill="#DD2C00" d="M229.242,48.381c-3.136,0.186 -5.416,-1.262 -6.843,-4.342c-0.689,-1.145 -1.337,-8.855 -1.937,-23.133v-0.324c0.399,-2.369 0.992,-3.555 1.771,-3.555l0.813,-0.158c0.992,0 2.502,0.324 4.521,0.965v0.322c-0.11,0.324 -0.434,0.49 -0.972,0.49h-2.742c-0.565,0 -1.103,0.316 -1.62,0.965c0.504,12.396 1.234,19.576 2.206,21.541c0.965,1.963 2.569,2.838 4.803,2.625V48.381z" id="path_12"/><path fill="#DD2C00" d="M232.591,5.844l0.165,0.166c0,2.176 -1.723,4.438 -5.168,6.779c-2.019,0.861 -4.065,1.289 -6.14,1.289l-1.454,-0.158c-0.537,2.047 -0.916,3.066 -1.13,3.066c-0.241,0 -0.564,-0.861 -0.972,-2.584c-0.751,-1.02 -1.991,-2.316 -3.714,-3.873v-0.324c0.379,-2.156 0.813,-3.232 1.295,-3.232c2.103,2.262 4.687,3.391 7.753,3.391C226.775,10.363 229.903,8.861 232.591,5.844z" id="path_13"/><path fill="#000002" d="M217.911,27.354c0.165,-0.096 0.214,0.057 0.145,0.449c-0.917,2.148 -2.322,3.652 -4.217,4.5l-6.967,3.492c-0.296,-0.082 -0.352,-0.322 -0.166,-0.73c0.931,-1.791 1.564,-2.852 1.902,-3.189L217.911,27.354z" id="path_14"/><path fill="#000002" d="M189.29,31.904c1.261,0.379 2.556,1.186 3.872,2.426v0.158c-1.213,2.129 -1.908,3.205 -2.102,3.232h-0.482c-0.916,-0.131 -1.881,-0.725 -2.908,-1.777v-0.16C187.78,34.516 188.318,33.227 189.29,31.904z" id="path_15"/><path fill="#000002" d="M195.423,32.229c1.185,0.27 2.37,0.971 3.556,2.102v0.158c0,0.592 -0.648,1.674 -1.937,3.232h-0.489c-0.751,0 -1.723,-0.594 -2.908,-1.777C193.941,34.275 194.533,33.035 195.423,32.229z" id="path_16"/><path fill="#000002" d="M182.364,34.006h0.159l0.323,0.324c-0.861,1.908 -1.288,3.205 -1.288,3.873c0,3.148 3.011,4.982 9.04,5.492l1.937,0.322c1.943,0 4.845,-0.592 8.724,-1.777l2.261,-1.289c-0.752,-1.371 -1.24,-2.555 -1.454,-3.555l0.323,-3.066h0.324c1.289,1.344 1.937,3.713 1.937,7.104c0,3.26 -2.854,5.465 -8.559,6.623l-2.426,0.324c-9.04,0 -13.561,-2.963 -13.561,-8.883C180.104,37.023 180.855,35.191 182.364,34.006z" id="path_17"/><path fill="#000002" d="M197.317,52.295c0.165,-0.09 0.214,0.055 0.145,0.447c-0.916,2.15 -2.322,3.652 -4.217,4.5l-6.967,3.494c-0.296,-0.084 -0.352,-0.324 -0.165,-0.725c0.93,-1.791 1.563,-2.854 1.901,-3.189L197.317,52.295z" id="path_18"/><path fill="#203e96" d="M174.998,21.244c0.323,0 0.647,1.082 0.972,3.232l1.453,3.232l-0.647,3.713l0.482,9.049v1.445c-0.213,3.695 -0.751,5.844 -1.612,6.465l-0.158,-0.158l0.158,-2.426c0,-2.178 -0.703,-9.125 -2.102,-20.832C174.219,22.484 174.701,21.244 174.998,21.244z" id="path_19"/><path fill="#000002" d="M168.238,41.256c-0.358,1.826 -1.22,3.279 -2.563,4.361c-1.241,0.889 -3.549,1.75 -6.946,2.584c-7.118,0.455 -11.143,0.076 -12.072,-1.131c-0.993,-1.039 2.494,-1.854 10.46,-2.445c4.169,-0.592 7.4,-1.717 9.688,-3.369c0.027,-0.014 0.055,-0.084 0.082,-0.215c0.028,-0.123 -0.626,-5.182 -1.956,-15.172c0.481,-2.908 0.916,-4.355 1.288,-4.355l2.102,4.844c0,0.752 -0.269,1.881 -0.806,3.391l0.806,8.717C168.361,39.959 168.334,40.891 168.238,41.256z" id="path_20"/><path fill="#008146" d="M143.913,43.777c0.338,0 0.689,0 1.055,0l0.806,-0.406c0.511,-1.047 1.268,-2.336 2.261,-3.873l-1.612,-12.438c0.537,-2.584 1.02,-3.873 1.453,-3.873l0.807,3.066c0.751,1.047 1.13,2.02 1.13,2.908c-0.537,0.992 -0.806,1.805 -0.806,2.418v0.324l0.323,5.168v0.814c1.668,-1.406 3.9,-2.172 6.698,-2.303c3.231,0.455 4.844,1.529 4.844,3.225v1.131c-0.537,2.398 -1.344,4.23 -2.418,5.492c-3.26,1.832 -6.836,2.811 -10.743,2.949h-1.778c-0.709,0 -1.385,0 -2.019,0V43.777L143.913,43.777zM147.063,43.859h0.323c4.928,-0.137 8.779,-1.012 11.55,-2.625c-1.262,-1.295 -2.178,-1.936 -2.743,-1.936h-1.295C151.21,39.43 148.599,40.951 147.063,43.859z" id="path_21"/><path fill="#008146" d="M157.818,21.631c0.297,0.51 0.642,1.963 1.034,4.361c-0.241,1.453 -0.875,2.178 -1.902,2.178h-0.138c-0.447,0 -1.026,-0.289 -1.757,-0.869c-0.496,0.877 -1.227,1.316 -2.178,1.316c-1.157,0 -1.736,-1.406 -1.736,-4.217c0.338,-1.068 0.627,-1.598 0.868,-1.598l0.138,0.145v2.48c0.2,0.861 0.448,1.287 0.73,1.287h0.586c0.606,0 0.992,-0.24 1.171,-0.723l-0.303,-2.178c0.117,-0.73 0.317,-1.115 0.586,-1.15h0.303c0.304,2.418 0.793,3.631 1.447,3.631h1.013V26.15l-0.44,-2.9v-0.166C157.357,22.113 157.55,21.631 157.818,21.631z" id="path_22"/><path fill="#008146" d="M160.265,12.748c0.166,-0.098 0.214,0.055 0.146,0.447c-0.917,2.15 -2.322,3.652 -4.218,4.5l-6.967,3.494c-0.296,-0.082 -0.351,-0.324 -0.165,-0.73c0.931,-1.793 1.564,-2.854 1.902,-3.191L160.265,12.748z" id="path_23"/><path fill="#008146" d="M144.113,48.381c-3.136,0.186 -5.416,-1.262 -6.843,-4.342c-0.689,-1.145 -1.337,-8.855 -1.937,-23.133v-0.324c0.399,-2.369 0.992,-3.555 1.771,-3.555l0.813,-0.158c0.992,0 2.501,0.324 4.521,0.965v0.322c-0.11,0.324 -0.435,0.49 -0.972,0.49h-2.742c-0.565,0 -1.103,0.316 -1.62,0.965c0.503,12.396 1.234,19.576 2.206,21.541c0.965,1.963 2.569,2.838 4.803,2.625V48.381z" id="path_24"/><path fill="#008146" d="M147.462,5.844l0.165,0.166c0,2.176 -1.723,4.438 -5.168,6.779c-2.019,0.861 -4.065,1.289 -6.14,1.289l-1.454,-0.158c-0.537,2.047 -0.916,3.066 -1.13,3.066c-0.241,0 -0.565,-0.861 -0.972,-2.584c-0.751,-1.02 -1.991,-2.316 -3.714,-3.873v-0.324c0.379,-2.156 0.813,-3.232 1.295,-3.232c2.102,2.262 4.687,3.391 7.753,3.391C141.646,10.363 144.774,8.861 147.462,5.844z" id="path_25"/><path fill="#e21171" d="M113.606,43.777c0.221,0 0.448,0 0.689,0h0.166c2.012,-0.123 3.845,-1.799 5.484,-5.023c1.778,-2.695 3.611,-4.039 5.492,-4.039c2.37,0 3.556,1.504 3.556,4.521v0.807c0,1.48 -0.593,3.418 -1.778,5.814l-1.13,0.807c-0.999,0 -3.308,-0.703 -6.945,-2.102c-1.103,1.654 -1.965,2.66 -2.584,3.012c-0.944,0.654 -1.909,0.93 -2.908,0.807h-0.042V43.777L113.606,43.777zM121.725,40.367v0.158c2.797,1.082 4.472,1.619 5.01,1.619c0.213,0 0.324,-0.166 0.324,-0.49c-0.621,-1.611 -1.647,-2.418 -3.074,-2.418C122.992,39.236 122.234,39.615 121.725,40.367z" id="path_26"/><path fill="#e21171" d="M123.736,21.588c0.297,0.512 0.642,1.965 1.034,4.363c-0.241,1.453 -0.876,2.178 -1.902,2.178h-0.138c-0.448,0 -1.026,-0.289 -1.757,-0.869c-0.496,0.875 -1.227,1.316 -2.178,1.316c-1.158,0 -1.736,-1.406 -1.736,-4.217c0.338,-1.068 0.627,-1.6 0.868,-1.6l0.138,0.145v2.482c0.2,0.859 0.448,1.287 0.73,1.287h0.586c0.606,0 0.992,-0.24 1.171,-0.723l-0.303,-2.178c0.117,-0.73 0.316,-1.117 0.585,-1.15h0.304c0.303,2.418 0.792,3.631 1.447,3.631h1.013v-0.145l-0.441,-2.9v-0.166C123.274,22.072 123.468,21.588 123.736,21.588z" id="path_27"/><path fill="#e21171" d="M126.183,12.707c0.166,-0.098 0.214,0.055 0.145,0.447c-0.916,2.15 -2.321,3.652 -4.217,4.5l-6.967,3.494c-0.296,-0.084 -0.351,-0.324 -0.165,-0.73c0.931,-1.793 1.564,-2.854 1.902,-3.191L126.183,12.707z" id="path_28"/><path fill="#000002" d="M100.321,20.721h0.648c2.129,1.213 3.204,1.916 3.231,2.102c-1.055,2.26 -1.75,3.445 -2.102,3.557c-1.213,0 -2.398,-0.594 -3.556,-1.779C98.764,23.443 99.356,22.146 100.321,20.721z" id="path_29"/><path fill="#000002" d="M105.972,19.914c1.027,0 2.268,0.703 3.722,2.102c0,0.566 -0.703,1.695 -2.102,3.391c-0.807,0 -1.992,-0.537 -3.557,-1.613C104.035,22.85 104.684,21.555 105.972,19.914z" id="path_30"/><path fill="#000002" d="M113.931,48.381h-0.041c-3.095,0 -5.196,-1.51 -6.298,-4.521l-0.324,-1.295h-0.324c-0.241,0.861 -1.964,1.398 -5.168,1.619h-0.806c-2.157,0 -3.232,-0.646 -3.232,-1.943v-1.453c0,-1.559 1.186,-3.494 3.556,-5.809c1.427,-1.082 3.039,-1.992 4.844,-2.75l-0.165,-0.482c0.593,-2.695 1.082,-4.037 1.454,-4.037c0.193,0.453 0.462,3.797 0.813,10.012c0.482,4.189 2.377,6.223 5.691,6.119V48.381L113.931,48.381zM99.674,39.016c0.62,0.428 1.646,0.641 3.073,0.641c1.398,-0.104 2.688,-0.371 3.873,-0.807l-0.324,-4.52h-0.159C101.831,36.377 99.674,37.934 99.674,39.016z" id="path_31"/><path fill="#000002" d="M104.808,7.477c1.653,0 2.48,1.02 2.48,3.053c0,3.238 -2.763,6.002 -8.296,8.275c-0.793,0.242 -0.89,-0.049 -0.283,-0.867c0.151,-0.311 1.454,-1.283 3.914,-2.908v-0.139c-1.062,-0.434 -1.592,-1.357 -1.592,-2.77c0.703,-3.094 1.819,-4.645 3.349,-4.645H104.808L104.808,7.477zM102.341,10.971c0,0.861 0.73,1.391 2.185,1.598h0.282c0.537,0 0.882,-0.199 1.026,-0.586c0,-0.875 -0.634,-1.557 -1.895,-2.039C103.388,9.943 102.857,10.287 102.341,10.971z" id="path_32"/><path fill="#000002" d="M88.903,21.244c0.324,0 0.647,1.082 0.972,3.232l1.454,3.232l-0.648,3.713l0.482,9.049v1.445c-0.213,3.695 -0.751,5.844 -1.612,6.465l-0.158,-0.158l0.158,-2.426c0,-2.178 -0.702,-9.125 -2.102,-20.832C88.125,22.484 88.606,21.244 88.903,21.244z" id="path_33"/><path fill="#DD2C00" d="M74.652,46.195c0.187,0.016 0.387,0.021 0.606,0.021h1.53c1.619,-0.27 2.853,-0.834 3.714,-1.695l-1.937,-15.346c0.483,-2.908 0.917,-4.355 1.289,-4.355l2.102,4.844c0,0.752 -0.269,1.883 -0.807,3.391l0.807,8.717v2.426c-0.606,2.57 -1.419,4.369 -2.439,5.389c-0.771,0.82 -1.675,1.234 -2.729,1.234h-1.371c-0.27,0 -0.523,-0.008 -0.766,-0.021V46.195z" id="path_34"/><path fill="#DD2C00" d="M78.553,15.512h1.599c1.937,0 2.908,0.723 2.908,2.178c-1.254,3.391 -2.777,5.188 -4.568,5.395l-2.116,0.283c-0.337,0 -0.475,-0.096 -0.427,-0.283c1.709,-0.902 3.308,-1.977 4.789,-3.211c-0.523,-0.488 -1.103,-0.73 -1.736,-0.73h-0.448l-1.736,0.145l-0.138,-0.145v-0.281C77.498,16.627 78.126,15.512 78.553,15.512z" id="path_35"/><path fill="#000002" d="M59.769,45.467c1.896,-0.428 3.066,-1.229 3.515,-2.385c0.186,-0.641 0.241,-1.18 0.158,-1.613c-2.66,-5.637 -3.997,-8.943 -3.997,-9.908c-0.131,-1.674 0.028,-3.238 0.489,-4.707c0.455,-1.467 1.206,-2.48 2.261,-3.045l12.755,-7.752c0.324,0.074 -0.097,1.205 -1.247,3.375c-1.158,2.178 -1.868,3.314 -2.123,3.412c-0.255,0.104 -0.427,-0.275 -0.503,-1.137c-4.982,3.148 -7.959,5.064 -8.924,5.752c-0.971,0.689 -1.55,1.297 -1.736,1.834c1.51,4.094 3.591,8.4 6.257,12.92c1.909,2.611 4.604,3.922 8.076,3.922c0.228,0 0.518,0 0.868,0v4.623l-0.544,0.021c-4.714,0 -8.159,-2.316 -10.337,-6.947c-0.138,-0.281 -0.24,-0.338 -0.323,-0.164c-0.876,3.693 -2.426,5.795 -4.645,6.318c-0.778,0.248 -1.578,0.387 -2.404,0.428v-4.625C58.267,45.721 59.065,45.617 59.769,45.467z" id="path_36"/><path fill="#000002" d="M66.914,8.924c1.654,0 2.481,1.02 2.481,3.053c0,3.238 -2.764,6.002 -8.297,8.275c-0.793,0.242 -0.889,-0.049 -0.283,-0.867c0.152,-0.311 1.454,-1.283 3.914,-2.908v-0.139c-1.061,-0.434 -1.591,-1.357 -1.591,-2.77c0.702,-3.094 1.818,-4.645 3.349,-4.645H66.914L66.914,8.924zM64.447,12.418c0,0.861 0.73,1.391 2.185,1.598h0.282c0.538,0 0.883,-0.199 1.027,-0.586c0,-0.875 -0.635,-1.557 -1.896,-2.039C65.495,11.391 64.964,11.734 64.447,12.418z" id="path_37"/><path fill="#0a93d2" d="M43.981,40.441h0.041c1.882,0 3.391,-0.641 4.521,-1.936l-0.158,-1.289c0,-1.592 0.324,-2.881 0.965,-3.879c0.296,0 0.73,2.75 1.295,8.234c0.648,2.963 2.901,4.334 6.761,4.121v4.604c-3.77,0.268 -6.396,-1.455 -7.891,-5.168c-0.241,-2.586 -0.51,-3.873 -0.806,-3.873c-0.635,2.445 -2.212,3.734 -4.728,3.852V40.441z" id="path_38"/><path fill="#0a93d2" d="M46.304,51.908h0.647c2.123,1.213 3.205,1.916 3.225,2.102c-1.047,2.26 -1.743,3.445 -2.094,3.557c-1.213,0 -2.398,-0.594 -3.557,-1.777C44.739,54.631 45.332,53.342 46.304,51.908z" id="path_39"/><path fill="#0a93d2" d="M49.611,21.369h1.599c1.937,0 2.908,0.723 2.908,2.178c-1.254,3.389 -2.777,5.188 -4.568,5.395l-2.116,0.283c-0.337,0 -0.475,-0.098 -0.427,-0.283c1.709,-0.902 3.308,-1.977 4.789,-3.211C51.272,25.24 50.693,25 50.06,25h-0.448l-1.736,0.145L47.737,25v-0.283C48.557,22.484 49.185,21.369 49.611,21.369z" id="path_40"/><path fill="#000002" d="M44.236,45.184c-0.145,0.014 -0.296,0.02 -0.441,0.02h-0.813c-1.262,0 -2.122,-0.104 -2.584,-0.322c-0.938,3.623 -2.033,5.842 -3.287,6.656c-1.254,0.813 -4.086,1.502 -8.496,2.066h-0.324c-0.972,-0.109 -1.454,-0.268 -1.454,-0.482c0,-0.324 0.807,-0.703 2.419,-1.129c6.354,-2.908 9.53,-5.01 9.53,-6.299c0,-0.537 -0.752,-1.777 -2.261,-3.715c-0.323,-0.543 -0.482,-1.24 -0.482,-2.102v-1.611c0,-0.814 0.159,-1.242 0.482,-1.297c1.398,2.145 3.77,3.336 7.104,3.59c0.207,0 0.406,0 0.606,-0.014V45.184z" id="path_41"/><path fill="#000002" d="M27.437,28.246c1.033,-0.09 1.57,0.178 1.612,0.813v0.965c-0.269,2.584 -0.538,3.879 -0.807,3.879h-0.165c-0.2,-0.758 -0.848,-1.129 -1.937,-1.129c-2.232,0 -4.604,1.666 -7.104,5.002V38.1c0,0.537 1.833,1.027 5.492,1.453c0.965,0.945 1.454,1.965 1.454,3.066c0,3.047 -2.694,6.326 -8.076,9.855c-1.399,0.75 -2.798,1.129 -4.204,1.129c-3.687,0 -6.318,-2.26 -7.91,-6.781c-0.51,-1.576 -0.559,-3.775 -0.138,-6.594c0.413,-2.818 1.66,-4.561 3.734,-5.236l0.283,0.041c0.399,0.213 0.11,0.826 -0.882,1.846c-0.985,1.014 -1.613,2.336 -1.868,3.971v1.287c0,2.584 1.399,4.686 4.196,6.299c0.972,0.434 1.999,0.648 3.074,0.648h0.647c3.121,0 6.243,-1.51 9.364,-4.521l-5.01,-1.129c-0.861,-0.572 -1.288,-1.324 -1.288,-2.268V39.23c0.041,-2.963 1.44,-5.658 4.196,-8.098C23.129,30.072 24.9,29.107 27.437,28.246z" id="path_42"/><path fill="#000002" d="M211.595,37.119c1.496,0 2.998,0.744 4.507,2.24c0.145,0.256 0.09,0.455 -0.172,0.605c-0.263,0.146 -0.503,0.117 -0.717,-0.102c-0.647,-0.58 -1.564,-0.869 -2.749,-0.869h-0.504c-0.496,0 -1.074,0.213 -1.736,0.627c0,1.213 1.454,1.957 4.362,2.24l2.887,-1.131l0.117,0.387c0,1.357 -1.667,2.57 -5.003,3.631l-4.623,2.625l-0.482,0.125c-0.193,0.041 -0.317,-0.041 -0.386,-0.242c0,-0.73 1.04,-1.729 3.128,-3.012v-0.117c-1.006,-0.557 -1.516,-1.35 -1.516,-2.383C209.184,38.664 210.142,37.119 211.595,37.119z" id="path_43"/><path fill="#000002" d="M34.134,17.592c1.296,2.205 1.943,4.363 1.943,6.457c-0.564,3.984 -1.268,5.975 -2.102,5.975l-0.159,-0.158v-0.158l0.317,-2.102v-0.166c0,-1.289 -0.537,-3.225 -1.612,-5.809v-0.324C33.06,18.826 33.597,17.592 34.134,17.592z" id="path_44"/></svg>