<svg id="vector" xmlns="http://www.w3.org/2000/svg" width="76" height="67" viewBox="0 0 76.258 67"><path fill="#008146" d="M45.649,50.006h0.627c2.128,-0.227 3.919,-1.516 5.372,-3.857c0.214,-0.482 0.427,-0.75 0.641,-0.805h0.166l0.481,0.488c-0.069,0.613 -0.173,1.047 -0.323,1.288c0.943,1.722 2.072,2.583 3.389,2.583l0.165,0.158c2.342,-5.166 4.973,-7.748 7.906,-7.748c2.342,0 4.063,0.971 5.166,2.906v0.971c0,5.916 -3.657,8.878 -10.979,8.878l-2.418,-0.158c-0.751,2.038 -1.239,3.065 -1.453,3.065l-0.158,-0.159v-0.165l0.482,-2.741v-0.324c-1.592,-0.888 -2.824,-2.128 -3.713,-3.712c-0.833,2.728 -2.617,4.043 -5.352,3.933V50.006L45.649,50.006zM57.778,50.186h0.324c3.657,0 6.776,-0.538 9.359,-1.613c0,-1.156 -1.074,-1.962 -3.223,-2.424h-0.647C61.009,46.148 59.073,47.498 57.778,50.186z" id="path_0"/><path fill="#008146" d="M57.296,35.177c2.687,0.861 4.036,1.557 4.036,2.094v0.323c-0.86,2.37 -1.563,3.554 -2.101,3.554c-2.176,-0.889 -3.416,-1.48 -3.712,-1.777v-0.323C55.953,37.437 56.539,36.142 57.296,35.177z" id="path_1"/><path fill="#008146" d="M62.778,24.942c0.166,-0.096 0.214,0.055 0.145,0.448c-0.916,2.149 -2.32,3.65 -4.215,4.498l-6.963,3.492c-0.296,-0.083 -0.352,-0.324 -0.166,-0.729c0.931,-1.791 1.564,-2.852 1.901,-3.189L62.778,24.942z" id="path_2"/><path fill="#008146" d="M46.021,54.606c-3.134,0.187 -5.413,-1.261 -6.839,-4.339c-0.688,-1.144 -1.337,-8.851 -1.936,-23.121v-0.324c0.399,-2.369 0.992,-3.554 1.771,-3.554l0.813,-0.159c0.992,0 2.5,0.324 4.518,0.964v0.324c-0.109,0.324 -0.434,0.489 -0.971,0.489h-2.741c-0.564,0 -1.103,0.316 -1.618,0.964c0.502,12.391 1.232,19.567 2.203,21.529c0.965,1.964 2.569,2.838 4.801,2.625V54.606z" id="path_3"/><path fill="#008146" d="M49.369,12.091l0.165,0.165c0,2.177 -1.722,4.436 -5.165,6.778c-2.019,0.86 -4.063,1.288 -6.137,1.288l-1.454,-0.159c-0.537,2.046 -0.915,3.065 -1.129,3.065c-0.241,0 -0.564,-0.86 -0.972,-2.583c-0.75,-1.02 -1.99,-2.314 -3.712,-3.871v-0.324c0.379,-2.156 0.813,-3.23 1.295,-3.23c2.101,2.259 4.684,3.388 7.748,3.388C43.556,16.609 46.683,15.107 49.369,12.091z" id="path_4"/><path fill="#203e96" d="M23.844,30.391l1.295,3.877c0.647,0.592 0.972,1.075 0.972,1.453l-1.13,4.841l0.158,2.584c0,6.336 -2.259,10.695 -6.776,13.072c-3.678,1.184 -6.261,1.777 -7.748,1.777l-0.166,-0.16v-0.323l3.389,-1.611c1.378,-0.634 3.202,-1.659 5.489,-3.071c2.479,-2.314 3.877,-3.926 4.201,-4.842l-0.406,-6.777l-0.406,-6.785C23.148,31.74 23.527,30.391 23.844,30.391z" id="path_5"/><path fill="#203e96" d="M23.921,20.3c0.296,0.51 0.641,1.963 1.033,4.36c-0.241,1.454 -0.875,2.177 -1.901,2.177h-0.138c-0.448,0 -1.026,-0.29 -1.757,-0.868c-0.495,0.875 -1.226,1.316 -2.176,1.316c-1.157,0 -1.735,-1.406 -1.735,-4.216c0.337,-1.067 0.627,-1.597 0.867,-1.597l0.138,0.145v2.479c0.2,0.861 0.448,1.288 0.73,1.288h0.585c0.606,0 0.992,-0.241 1.171,-0.723l-0.303,-2.176c0.117,-0.73 0.316,-1.116 0.585,-1.15h0.304c0.303,2.417 0.792,3.629 1.446,3.629h1.013v-0.145l-0.441,-2.9v-0.165C23.459,20.783 23.652,20.3 23.921,20.3z" id="path_6"/><path fill="#f26122" d="M26.68,12.635l0.165,0.145v0.441c-0.841,1.791 -2.005,3.043 -3.492,3.774c-4.628,2.514 -7.197,3.774 -7.707,3.774c-0.193,0 -0.289,-0.151 -0.289,-0.447c0.447,-1.708 1.419,-2.865 2.906,-3.471l8.278,-4.215H26.68z" id="path_7"/><path fill="#f26122" d="M26.335,9.005c0.186,0 0.282,0.138 0.282,0.42c-0.537,1.563 -2.128,2.969 -4.78,4.222l-6.116,3.347l-0.138,-0.145v-0.159c0.579,-2.045 1.495,-3.306 2.763,-3.774l6.817,-3.492L26.335,9.005z" id="path_8"/><path fill="#000002" d="M7.508,29.261c1.315,0 4.008,2.045 8.064,6.137c3.127,3.766 4.684,7.314 4.684,10.655v1.287c-0.082,2.26 -0.296,3.389 -0.647,3.389l-0.323,-0.316v-1.941c0,-3.066 -2.259,-6.833 -6.777,-11.296l-0.806,-0.489c-0.296,1.081 -0.564,1.619 -0.806,1.619l-3.878,-4.842l0.165,-4.036l0.158,-0.166H7.508z" id="path_9"/></svg>