<svg id="vector" xmlns="http://www.w3.org/2000/svg" width="174" height="67" viewBox="0 0 174.113 67"><path fill="#000002" d="M147.666,45.084h1.859c1.962,-0.27 5.082,-1 9.359,-2.176v-0.166c-3.897,-1.723 -6.37,-2.584 -7.424,-2.584c-1.426,0 -2.391,0.807 -2.907,2.426l-0.482,0.324c-0.213,0 -0.323,-0.166 -0.323,-0.49c0.537,-3.223 1.99,-4.842 4.36,-4.842h0.805c0.999,0 4.388,1.129 10.173,3.389l4.36,0.324l0.316,0.488c-0.076,0.723 -0.724,2.121 -1.935,4.195h-0.482l-0.647,-0.166h-0.806c-8.396,2.48 -13.293,3.768 -14.691,3.877h-1.535V45.084z" id="path_0"/><path fill="#000002" d="M156.468,49.361c2.259,1.129 3.389,2.1 3.389,2.906c-1.074,2.129 -1.722,3.203 -1.936,3.23h-0.324c-1.652,-0.834 -2.679,-1.592 -3.064,-2.26C154.904,52.012 155.552,50.717 156.468,49.361z" id="path_1"/><path fill="#000002" d="M162.921,24.035c0.166,-0.096 0.214,0.055 0.145,0.447c-0.916,2.15 -2.32,3.65 -4.215,4.498l-6.963,3.492c-0.296,-0.082 -0.352,-0.324 -0.166,-0.73c0.931,-1.791 1.563,-2.852 1.901,-3.188L162.921,24.035z" id="path_2"/><path fill="#203e96" d="M148.037,49.684c-3.134,0.188 -5.413,-1.26 -6.839,-4.338c-0.688,-1.143 -1.336,-8.85 -1.936,-23.121V21.9c0.399,-2.369 0.992,-3.553 1.771,-3.553l0.813,-0.16c0.992,0 2.5,0.324 4.519,0.965v0.324c-0.11,0.324 -0.435,0.488 -0.972,0.488h-2.741c-0.564,0 -1.102,0.316 -1.618,0.965c0.503,12.391 1.232,19.566 2.204,21.529c0.964,1.963 2.568,2.838 4.8,2.625V49.684z" id="path_3"/><path fill="#203e96" d="M151.385,7.168l0.165,0.166c0,2.178 -1.722,4.436 -5.165,6.777c-2.019,0.861 -4.063,1.287 -6.137,1.287l-1.453,-0.158c-0.537,2.047 -0.916,3.066 -1.13,3.066c-0.241,0 -0.564,-0.861 -0.971,-2.584c-0.751,-1.02 -1.991,-2.314 -3.713,-3.871v-0.322c0.379,-2.156 0.813,-3.23 1.295,-3.23c2.101,2.258 4.684,3.389 7.748,3.389C145.572,11.688 148.699,10.186 151.385,7.168z" id="path_4"/><path fill="#000002" d="M136.264,27.262c0.165,-0.098 0.214,0.055 0.145,0.447c-0.916,2.148 -2.321,3.65 -4.215,4.498l-6.964,3.49c-0.296,-0.082 -0.351,-0.322 -0.165,-0.729c0.93,-1.791 1.563,-2.852 1.901,-3.189L136.264,27.262z" id="path_5"/><path fill="#DD2C00" d="M109.207,33.217c1.261,0.379 2.556,1.186 3.871,2.424v0.158c-1.213,2.129 -1.908,3.203 -2.102,3.23h-0.481c-0.916,-0.131 -1.88,-0.723 -2.906,-1.777v-0.158C107.699,35.828 108.236,34.539 109.207,33.217z" id="path_6"/><path fill="#DD2C00" d="M115.337,33.541c1.185,0.268 2.369,0.971 3.554,2.1v0.158c0,0.594 -0.647,1.674 -1.936,3.23h-0.488c-0.751,0 -1.723,-0.592 -2.907,-1.777C113.856,35.586 114.448,34.346 115.337,33.541z" id="path_7"/><path fill="#DD2C00" d="M102.285,35.318h0.159l0.323,0.322c-0.861,1.908 -1.288,3.203 -1.288,3.871c0,3.148 3.01,4.98 9.036,5.49l1.936,0.322c1.942,0 4.842,-0.592 8.72,-1.775l2.259,-1.289c-0.751,-1.371 -1.239,-2.555 -1.453,-3.555l0.323,-3.064h0.324c1.288,1.344 1.935,3.713 1.935,7.102c0,3.258 -2.851,5.461 -8.554,6.619l-2.424,0.322c-9.037,0 -13.555,-2.961 -13.555,-8.877C100.026,38.334 100.777,36.502 102.285,35.318z" id="path_8"/><path fill="#DD2C00" d="M117.231,51.393c0.165,-0.09 0.213,0.055 0.144,0.447c-0.915,2.148 -2.32,3.65 -4.215,4.498l-6.963,3.492c-0.296,-0.082 -0.352,-0.324 -0.165,-0.723c0.93,-1.791 1.563,-2.852 1.9,-3.189L117.231,51.393z" id="path_9"/><path fill="#000002" d="M93.82,22.563c0.324,0 0.647,1.08 0.971,3.23l1.454,3.229l-0.647,3.713l0.481,9.043v1.447c-0.213,3.691 -0.75,5.84 -1.611,6.459l-0.158,-0.158l0.158,-2.424c0,-2.176 -0.702,-9.119 -2.101,-20.82C93.042,23.803 93.524,22.563 93.82,22.563z" id="path_10"/><path fill="#DD2C00" d="M87.064,42.563c-0.358,1.826 -1.22,3.279 -2.563,4.359c-1.24,0.889 -3.547,1.75 -6.942,2.584c-7.115,0.453 -11.137,0.076 -12.066,-1.131c-0.992,-1.039 2.492,-1.852 10.454,-2.443c4.168,-0.594 7.397,-1.715 9.684,-3.369c0.028,-0.014 0.056,-0.082 0.083,-0.213c0.027,-0.123 -0.627,-5.18 -1.956,-15.166c0.482,-2.906 0.916,-4.354 1.288,-4.354l2.101,4.842c0,0.752 -0.269,1.881 -0.806,3.389l0.806,8.713C87.188,41.268 87.16,42.197 87.064,42.563z" id="path_11"/><path fill="#008146" d="M55.912,45.084h0.627c2.128,-0.227 3.919,-1.516 5.372,-3.857c0.214,-0.482 0.428,-0.75 0.641,-0.805h0.165l0.482,0.488c-0.069,0.613 -0.173,1.047 -0.324,1.287c0.944,1.723 2.073,2.584 3.39,2.584l0.165,0.158c2.342,-5.166 4.973,-7.748 7.906,-7.748c2.342,0 4.063,0.971 5.166,2.906v0.971c0,5.916 -3.657,8.877 -10.979,8.877l-2.418,-0.158c-0.751,2.039 -1.239,3.066 -1.453,3.066l-0.158,-0.16v-0.164l0.481,-2.742v-0.322c-1.591,-0.889 -2.823,-2.129 -3.712,-3.713c-0.833,2.727 -2.617,4.043 -5.352,3.932V45.084L55.912,45.084zM68.041,45.264h0.323c3.657,0 6.777,-0.539 9.36,-1.613c0,-1.156 -1.074,-1.963 -3.224,-2.424h-0.647C71.271,41.227 69.336,42.576 68.041,45.264z" id="path_12"/><path fill="#008146" d="M70.575,24.098c0.297,0.51 0.641,1.963 1.033,4.359c-0.24,1.453 -0.875,2.178 -1.9,2.178H69.57c-0.448,0 -1.026,-0.289 -1.757,-0.869c-0.496,0.875 -1.226,1.316 -2.177,1.316c-1.156,0 -1.735,-1.406 -1.735,-4.215c0.338,-1.068 0.627,-1.598 0.868,-1.598l0.138,0.145v2.479c0.2,0.861 0.448,1.287 0.729,1.287h0.586c0.606,0 0.992,-0.24 1.171,-0.723l-0.303,-2.176c0.117,-0.73 0.316,-1.115 0.585,-1.15h0.304c0.303,2.418 0.792,3.629 1.446,3.629h1.012v-0.145l-0.44,-2.898v-0.166C70.114,24.58 70.307,24.098 70.575,24.098z" id="path_13"/><path fill="#008146" d="M73.021,15.221c0.166,-0.098 0.214,0.055 0.145,0.447c-0.916,2.148 -2.321,3.65 -4.215,4.498l-6.963,3.49c-0.296,-0.082 -0.352,-0.322 -0.166,-0.729c0.931,-1.791 1.563,-2.852 1.901,-3.189L73.021,15.221z" id="path_14"/><path fill="#008146" d="M56.092,49.684c-3.135,0.188 -5.414,-1.26 -6.84,-4.338c-0.688,-1.143 -1.336,-8.85 -1.935,-23.121V21.9c0.399,-2.369 0.991,-3.553 1.77,-3.553l0.813,-0.16c0.992,0 2.5,0.324 4.519,0.965v0.324c-0.11,0.324 -0.435,0.488 -0.972,0.488h-2.74c-0.565,0 -1.103,0.316 -1.619,0.965c0.503,12.391 1.233,19.566 2.204,21.529c0.964,1.963 2.568,2.838 4.801,2.625V49.684z" id="path_15"/><path fill="#008146" d="M59.438,7.168l0.166,0.166c0,2.178 -1.723,4.436 -5.166,6.777c-2.018,0.861 -4.063,1.287 -6.137,1.287l-1.453,-0.158c-0.537,2.047 -0.916,3.066 -1.13,3.066c-0.241,0 -0.564,-0.861 -0.971,-2.584c-0.751,-1.02 -1.99,-2.314 -3.713,-3.871v-0.322c0.379,-2.156 0.813,-3.23 1.295,-3.23c2.102,2.258 4.684,3.389 7.748,3.389C53.626,11.688 56.753,10.186 59.438,7.168z" id="path_16"/><path fill="#008146" d="M30.629,28.438c2.259,1.129 3.389,2.1 3.389,2.906c-1.075,2.121 -1.722,3.203 -1.936,3.23h-0.324c-1.652,-0.834 -2.679,-1.592 -3.064,-2.26C29.065,31.088 29.713,29.793 30.629,28.438z" id="path_17"/><path fill="#008146" d="M21.827,45.084h1.859c1.963,-0.27 5.083,-1 9.359,-2.176v-0.166c-3.898,-1.723 -6.37,-2.584 -7.424,-2.584c-1.426,0 -2.391,0.807 -2.907,2.426l-0.481,0.324c-0.214,0 -0.324,-0.166 -0.324,-0.49c0.537,-3.223 1.99,-4.842 4.36,-4.842h0.806c0.998,0 4.387,1.129 10.173,3.389l4.359,0.324l0.316,0.488c-0.075,0.723 -0.723,2.121 -1.935,4.195h-0.482l-0.647,-0.166h-0.806c-8.396,2.48 -13.293,3.768 -14.691,3.877h-1.535V45.084z" id="path_18"/><path fill="#008146" d="M33.246,17.928c0.296,0.51 0.641,1.963 1.033,4.359c-0.241,1.453 -0.875,2.176 -1.901,2.176H32.24c-0.447,0 -1.025,-0.289 -1.756,-0.867c-0.496,0.875 -1.226,1.314 -2.177,1.314c-1.157,0 -1.735,-1.404 -1.735,-4.215c0.338,-1.066 0.627,-1.598 0.868,-1.598l0.138,0.145v2.48c0.199,0.859 0.447,1.287 0.729,1.287h0.586c0.605,0 0.991,-0.24 1.171,-0.723l-0.304,-2.178c0.117,-0.729 0.317,-1.115 0.586,-1.148h0.303c0.303,2.416 0.792,3.629 1.446,3.629h1.013v-0.145l-0.441,-2.9v-0.164C32.784,18.408 32.978,17.928 33.246,17.928z" id="path_19"/><path fill="#008146" d="M35.691,9.049c0.165,-0.096 0.213,0.055 0.145,0.447c-0.916,2.148 -2.321,3.65 -4.216,4.498l-6.963,3.492c-0.296,-0.082 -0.351,-0.324 -0.165,-0.73c0.93,-1.791 1.563,-2.852 1.901,-3.189L35.691,9.049z" id="path_20"/><path fill="#000002" d="M8.934,22.039h0.647c2.128,1.211 3.202,1.914 3.23,2.1c-1.055,2.26 -1.75,3.445 -2.101,3.555c-1.213,0 -2.397,-0.592 -3.555,-1.777C7.377,24.76 7.969,23.465 8.934,22.039z" id="path_21"/><path fill="#000002" d="M14.581,21.232c1.026,0 2.266,0.703 3.719,2.102c0,0.564 -0.702,1.693 -2.101,3.389c-0.806,0 -1.99,-0.537 -3.554,-1.611C12.646,24.166 13.293,22.873 14.581,21.232z" id="path_22"/><path fill="#000002" d="M22.536,49.684h-0.041c-3.093,0 -5.193,-1.508 -6.296,-4.518l-0.323,-1.295h-0.324c-0.24,0.861 -1.963,1.398 -5.165,1.619H9.581c-2.156,0 -3.23,-0.646 -3.23,-1.941v-1.455c0,-1.557 1.185,-3.49 3.554,-5.805c1.426,-1.082 3.038,-1.99 4.842,-2.748l-0.165,-0.482c0.593,-2.693 1.081,-4.037 1.453,-4.037c0.193,0.455 0.462,3.797 0.813,10.008c0.482,4.188 2.377,6.221 5.689,6.117V49.684L22.536,49.684zM8.286,40.324c0.62,0.428 1.646,0.641 3.072,0.641c1.397,-0.104 2.686,-0.371 3.87,-0.807l-0.323,-4.518h-0.159C10.441,37.688 8.286,39.244 8.286,40.324z" id="path_23"/><path fill="#000002" d="M13.417,8.801c1.653,0 2.479,1.02 2.479,3.051c0,3.238 -2.762,6 -8.293,8.271c-0.792,0.242 -0.888,-0.047 -0.282,-0.867c0.152,-0.311 1.454,-1.281 3.913,-2.906v-0.139c-1.062,-0.434 -1.592,-1.355 -1.592,-2.768c0.703,-3.092 1.818,-4.643 3.348,-4.643H13.417L13.417,8.801zM10.951,12.293c0,0.861 0.73,1.391 2.184,1.598h0.282c0.537,0 0.882,-0.199 1.026,-0.586c0,-0.875 -0.634,-1.557 -1.894,-2.039C11.999,11.266 11.468,11.611 10.951,12.293z" id="path_24"/><path fill="#000002" d="M131.353,37.943c1.495,0 2.996,0.742 4.505,2.238c0.145,0.254 0.089,0.453 -0.173,0.605c-0.262,0.145 -0.503,0.117 -0.716,-0.104c-0.647,-0.578 -1.563,-0.867 -2.748,-0.867h-0.503c-0.496,0 -1.074,0.213 -1.735,0.625c0,1.213 1.453,1.957 4.359,2.24l2.886,-1.131l0.117,0.387c0,1.357 -1.667,2.568 -5,3.629l-4.621,2.625l-0.482,0.123c-0.193,0.041 -0.317,-0.041 -0.386,-0.24c0,-0.73 1.04,-1.729 3.127,-3.01v-0.117c-1.006,-0.559 -1.516,-1.35 -1.516,-2.383C128.942,39.484 129.899,37.943 131.353,37.943z" id="path_25"/></svg>