<svg id="vector" xmlns="http://www.w3.org/2000/svg" width="99" height="67" viewBox="0 0 99.179 67"><path fill="#DD2C00" d="M90.29,40.123h0.618c1.803,0 3.138,1.539 4.013,4.625l0.151,1.539c0.053,0.5 0.053,1.014 0,1.547c-0.46,1.875 -1.493,3.723 -3.085,5.545c-1.105,0.928 -3.619,1.645 -7.553,2.158c-0.46,-0.203 -0.724,-0.408 -0.77,-0.611c6.579,-3.572 9.868,-5.73 9.868,-6.48l0.151,-0.461l-0.151,-0.15l-1.389,0.459h-0.77c-2.775,0 -4.164,-0.979 -4.164,-2.928v-0.309c0.355,-3.189 1.132,-4.783 2.31,-4.783L90.29,40.123z" id="path_0"/><path fill="#DD2C00" d="M94.375,27.629c0.158,-0.092 0.204,0.053 0.139,0.428c-0.875,2.053 -2.218,3.488 -4.026,4.297l-6.651,3.336c-0.283,-0.08 -0.335,-0.311 -0.158,-0.697c0.889,-1.711 1.494,-2.725 1.816,-3.047L94.375,27.629z" id="path_1"/><path fill="#000002" d="M80.04,24.229c0.309,0 0.618,1.033 0.927,3.086l1.389,3.084l-0.618,3.547l0.46,8.639v1.381c-0.204,3.527 -0.717,5.578 -1.539,6.172l-0.151,-0.152l0.151,-2.316c0,-2.078 -0.671,-8.709 -2.007,-19.887C79.296,25.412 79.757,24.229 80.04,24.229z" id="path_2"/><path fill="#000002" d="M75.69,43.334c-0.342,1.742 -1.164,3.131 -2.447,4.164c-1.184,0.848 -3.388,1.67 -6.631,2.467c-6.796,0.434 -10.639,0.072 -11.526,-1.078c-0.947,-0.994 2.382,-1.77 9.986,-2.336c3.98,-0.566 7.066,-1.639 9.25,-3.217c0.026,-0.014 0.053,-0.08 0.079,-0.205c0.026,-0.117 -0.599,-4.947 -1.868,-14.486c0.46,-2.775 0.875,-4.158 1.229,-4.158l2.007,4.625c0,0.717 -0.256,1.797 -0.77,3.236l0.77,8.322C75.81,42.096 75.783,42.984 75.69,43.334z" id="path_3"/><path fill="#008146" d="M45.935,45.74h0.599c2.033,-0.217 3.743,-1.447 5.132,-3.684c0.203,-0.461 0.408,-0.717 0.611,-0.77h0.158l0.461,0.467c-0.066,0.586 -0.165,1 -0.31,1.23c0.901,1.645 1.98,2.467 3.236,2.467l0.158,0.152c2.237,-4.936 4.75,-7.402 7.553,-7.402c2.237,0 3.881,0.928 4.934,2.777v0.928c0,5.65 -3.493,8.48 -10.486,8.48l-2.31,-0.152c-0.717,1.947 -1.184,2.928 -1.388,2.928l-0.151,-0.15v-0.158l0.461,-2.619v-0.309c-1.521,-0.85 -2.698,-2.033 -3.547,-3.547c-0.796,2.605 -2.499,3.861 -5.111,3.758V45.74L45.935,45.74zM57.521,45.912h0.309c3.493,0 6.474,-0.514 8.941,-1.539c0,-1.105 -1.027,-1.875 -3.079,-2.316h-0.619C60.605,42.057 58.757,43.346 57.521,45.912z" id="path_4"/><path fill="#008146" d="M59.941,28.854c0.282,0.486 0.611,1.875 0.986,4.164c-0.229,1.389 -0.835,2.078 -1.815,2.078H58.98c-0.428,0 -0.98,-0.275 -1.678,-0.828c-0.474,0.836 -1.171,1.256 -2.079,1.256c-1.104,0 -1.657,-1.342 -1.657,-4.025c0.322,-1.02 0.599,-1.527 0.829,-1.527l0.131,0.139v2.369c0.191,0.822 0.428,1.23 0.697,1.23h0.56c0.579,0 0.947,-0.23 1.118,-0.691l-0.289,-2.08c0.111,-0.697 0.303,-1.064 0.56,-1.098h0.289c0.289,2.309 0.757,3.467 1.382,3.467h0.967v-0.139l-0.421,-2.77V30.24C59.5,29.314 59.685,28.854 59.941,28.854z" id="path_5"/><path fill="#000002" d="M30.336,45.74c1.711,0.146 3.165,-0.025 4.375,-0.5l-0.638,-1.156c-0.6,-3.395 -0.329,-5.639 0.809,-6.738c1.145,-1.098 2.375,-1.604 3.685,-1.512c2.546,0.117 3.979,1.453 4.315,4.006v0.928c0,2.131 -0.31,3.467 -0.921,4.006c-0.389,0.402 0.486,0.738 2.618,1.008l0.5,-0.02c0.389,-0.014 0.829,-0.021 1.329,-0.021v4.396l-1.56,0.02c-2.901,-0.014 -5.099,-0.383 -6.592,-1.1c-2.053,0.717 -3.651,1.08 -4.776,1.08h-0.618c-0.77,0 -1.612,0 -2.526,0V45.74L30.336,45.74zM35.79,41.387v0.309c0.645,1.105 1.618,1.875 2.928,2.309c0.875,-0.15 1.75,-0.512 2.625,-1.078c-0.389,-1.441 -1.671,-2.264 -3.855,-2.467C36.355,40.768 35.79,41.076 35.79,41.387z" id="path_6"/><path fill="#000002" d="M36.718,28.281c1.335,0 2.565,0.822 3.697,2.467c-0.947,2.158 -1.672,3.236 -2.158,3.236c-2.079,-1.025 -3.21,-1.697 -3.395,-2.006C34.862,31.004 35.48,29.768 36.718,28.281z" id="path_7"/><path fill="#000002" d="M39.658,20.893c0.283,0.486 0.612,1.875 0.987,4.164c-0.23,1.389 -0.836,2.08 -1.816,2.08h-0.131c-0.429,0 -0.98,-0.277 -1.679,-0.83c-0.474,0.836 -1.17,1.258 -2.078,1.258c-1.105,0 -1.658,-1.344 -1.658,-4.027c0.322,-1.02 0.599,-1.525 0.829,-1.525l0.132,0.137v2.369c0.19,0.822 0.428,1.23 0.697,1.23H35.5c0.579,0 0.947,-0.23 1.119,-0.691l-0.29,-2.078c0.112,-0.697 0.303,-1.066 0.56,-1.1h0.289c0.29,2.311 0.757,3.467 1.382,3.467h0.967v-0.137l-0.421,-2.77v-0.158C39.218,21.354 39.401,20.893 39.658,20.893z" id="path_8"/><path fill="#DD2C00" d="M30.836,50.156c-1.967,-0.158 -3.743,-1.541 -5.342,-4.145c-2.362,2.875 -5.757,4.314 -10.171,4.314h-1.237c-4.775,0 -8.065,-2.053 -9.868,-6.164l-0.151,-0.928v-1.389c0,-1.486 0.665,-3.184 2,-5.084h0.158l0.309,0.309v0.77l-0.776,2.467c0,2.697 2.264,4.547 6.79,5.553l2.776,0.152c4.803,0 8.604,-1.646 11.407,-4.936c0.151,0 0.31,0.205 0.461,0.619l-0.151,1.078c0.526,1.941 1.789,2.914 3.796,2.928V50.156z" id="path_9"/><path fill="#DD2C00" d="M13.007,35.523h0.31c1.053,0.23 2.185,0.85 3.395,1.85v0.158c-0.697,2.105 -1.315,3.236 -1.855,3.395c-1.565,-0.309 -2.749,-0.822 -3.546,-1.547v-0.15C11.31,38.018 11.876,36.787 13.007,35.523z" id="path_10"/><path fill="#DD2C00" d="M18.711,34.137h0.158c1.053,0.158 2.236,0.875 3.546,2.158v0.156l-1.855,3.238c-2.467,-0.797 -3.697,-1.467 -3.697,-2.008C17.658,35.32 18.276,34.137 18.711,34.137z" id="path_11"/><path fill="#DD2C00" d="M20.83,53.176c0.157,-0.086 0.203,0.053 0.138,0.428c-0.875,2.053 -2.217,3.486 -4.026,4.295l-6.651,3.336c-0.282,-0.078 -0.335,-0.309 -0.158,-0.691c0.889,-1.709 1.494,-2.723 1.816,-3.045L20.83,53.176z" id="path_12"/><path fill="#008146" d="M57.089,17.025c1.237,2.104 1.855,4.164 1.855,6.164c-0.539,3.803 -1.211,5.703 -2.007,5.703l-0.151,-0.15V28.59l0.303,-2.006v-0.158c0,-1.23 -0.513,-3.08 -1.539,-5.547V20.57C56.063,18.201 56.576,17.025 57.089,17.025z" id="path_13"/><path fill="#008146" d="M65.957,5.764l0.158,0.158c0,2.08 -1.645,4.238 -4.935,6.475c-1.927,0.822 -3.881,1.23 -5.861,1.23l-1.389,-0.152c-0.513,1.955 -0.874,2.928 -1.078,2.928c-0.23,0 -0.54,-0.822 -0.928,-2.467c-0.717,-0.975 -1.901,-2.211 -3.546,-3.697V9.93c0.361,-2.061 0.776,-3.086 1.236,-3.086c2.007,2.158 4.474,3.236 7.401,3.236C60.405,10.08 63.392,8.646 65.957,5.764z" id="path_14"/><path fill="#008146" d="M36.806,8.184c1.237,2.104 1.855,4.164 1.855,6.164c-0.539,3.803 -1.21,5.703 -2.006,5.703l-0.151,-0.15v-0.152l0.302,-2.006v-0.158c0,-1.23 -0.513,-3.08 -1.539,-5.547v-0.309C35.78,9.359 36.293,8.184 36.806,8.184z" id="path_15"/></svg>