<svg id="vector" xmlns="http://www.w3.org/2000/svg" width="99" height="67" viewBox="0 0 99.179 67"><path fill="#DD2C00" d="M76.21,46.779h1.859c1.963,-0.27 5.083,-0.999 9.36,-2.177v-0.165c-3.898,-1.723 -6.371,-2.583 -7.425,-2.583c-1.426,0 -2.39,0.806 -2.906,2.425l-0.482,0.323c-0.214,0 -0.324,-0.165 -0.324,-0.489c0.538,-3.223 1.991,-4.842 4.36,-4.842h0.806c0.999,0 4.387,1.13 10.173,3.389l4.359,0.324l0.316,0.488c-0.075,0.724 -0.723,2.121 -1.935,4.195H93.89l-0.647,-0.166h-0.806c-8.396,2.479 -13.293,3.768 -14.69,3.878H76.21V46.779z" id="path_0"/><path fill="#DD2C00" d="M91.645,25.731c0.165,-0.097 0.214,0.055 0.145,0.448c-0.916,2.148 -2.321,3.65 -4.215,4.498l-6.963,3.492c-0.297,-0.083 -0.352,-0.324 -0.166,-0.729c0.931,-1.791 1.563,-2.852 1.901,-3.189L91.645,25.731z" id="path_1"/><path fill="#203e96" d="M76.582,51.38c-3.134,0.186 -5.413,-1.261 -6.839,-4.339c-0.689,-1.144 -1.337,-8.851 -1.936,-23.121v-0.324c0.399,-2.37 0.991,-3.554 1.77,-3.554l0.813,-0.159c0.991,0 2.499,0.324 4.518,0.964v0.324c-0.11,0.323 -0.434,0.489 -0.971,0.489h-2.741c-0.565,0 -1.103,0.317 -1.619,0.964c0.503,12.391 1.233,19.567 2.204,21.529c0.965,1.963 2.569,2.838 4.801,2.625V51.38z" id="path_2"/><path fill="#203e96" d="M79.929,8.864l0.166,0.165c0,2.177 -1.722,4.436 -5.166,6.777c-2.018,0.861 -4.063,1.288 -6.137,1.288l-1.453,-0.158c-0.537,2.045 -0.916,3.065 -1.129,3.065c-0.241,0 -0.565,-0.861 -0.972,-2.583c-0.751,-1.02 -1.99,-2.314 -3.712,-3.871v-0.324c0.378,-2.156 0.813,-3.23 1.295,-3.23c2.101,2.259 4.683,3.388 7.748,3.388C74.116,13.382 77.243,11.88 79.929,8.864z" id="path_3"/><path fill="#000002" d="M53.461,51.056c2.259,1.13 3.389,2.101 3.389,2.907c-1.074,2.128 -1.722,3.202 -1.936,3.23h-0.323c-1.653,-0.834 -2.68,-1.592 -3.065,-2.26C51.897,53.707 52.545,52.412 53.461,51.056z" id="path_4"/><path fill="#000002" d="M44.659,46.779h1.859c1.963,-0.27 5.083,-0.999 9.359,-2.177v-0.165c-3.898,-1.723 -6.37,-2.583 -7.424,-2.583c-1.426,0 -2.391,0.806 -2.907,2.425l-0.481,0.323c-0.214,0 -0.324,-0.165 -0.324,-0.489c0.537,-3.223 1.99,-4.842 4.359,-4.842h0.807c0.998,0 4.387,1.13 10.172,3.389l4.36,0.324l0.316,0.488c-0.076,0.724 -0.723,2.121 -1.935,4.195h-0.482l-0.648,-0.166h-0.805c-8.396,2.479 -13.293,3.768 -14.691,3.878h-1.535V46.779z" id="path_5"/><path fill="#000002" d="M56.009,26.372c0.297,0.51 0.641,1.963 1.033,4.359c-0.24,1.454 -0.874,2.177 -1.9,2.177h-0.138c-0.448,0 -1.026,-0.289 -1.757,-0.868c-0.495,0.875 -1.226,1.315 -2.176,1.315c-1.157,0 -1.736,-1.405 -1.736,-4.215c0.338,-1.067 0.627,-1.598 0.868,-1.598l0.138,0.145v2.479c0.2,0.861 0.447,1.288 0.73,1.288h0.585c0.606,0 0.992,-0.241 1.171,-0.723l-0.303,-2.176c0.117,-0.73 0.316,-1.116 0.585,-1.15h0.304c0.303,2.417 0.792,3.629 1.445,3.629h1.014V30.89l-0.441,-2.899v-0.166C55.548,26.854 55.74,26.372 56.009,26.372z" id="path_6"/><path fill="#000002" d="M53.991,13.616c1.653,0 2.479,1.019 2.479,3.051c0,3.237 -2.762,5.999 -8.293,8.272c-0.792,0.241 -0.889,-0.048 -0.282,-0.868c0.151,-0.31 1.453,-1.281 3.912,-2.907v-0.138c-1.061,-0.434 -1.591,-1.357 -1.591,-2.769c0.702,-3.093 1.818,-4.642 3.348,-4.642H53.991L53.991,13.616zM51.525,17.108c0,0.86 0.73,1.391 2.184,1.597h0.282c0.537,0 0.882,-0.199 1.026,-0.585c0,-0.875 -0.634,-1.557 -1.895,-2.039C52.572,16.082 52.042,16.426 51.525,17.108z" id="path_7"/><path fill="#DD2C00" d="M45.368,51.38l-1.818,-0.021c-1.006,4.428 -3.671,6.666 -7.989,6.722c-2.314,0.104 -3.472,0.062 -3.472,-0.124c0.214,-0.406 1.764,-1.185 4.643,-2.342c2.961,-1.88 4.745,-3.092 5.365,-3.63l0.165,-0.481l-2.824,-0.448c-2.059,-0.536 -3.216,-1.569 -3.471,-3.105v-0.324c0,-2.61 0.641,-4.276 1.936,-5.007l0.971,-0.158c1.908,0 3.464,1.328 4.677,3.994c0.771,0.27 1.378,0.399 1.818,0.386V51.38z" id="path_8"/><path fill="#DD2C00" d="M37.881,29.182h1.599c1.935,0 2.906,0.723 2.906,2.177c-1.253,3.388 -2.775,5.187 -4.566,5.393l-2.114,0.282c-0.338,0 -0.476,-0.096 -0.427,-0.282c1.708,-0.902 3.306,-1.977 4.786,-3.209c-0.523,-0.489 -1.102,-0.73 -1.735,-0.73h-0.448l-1.735,0.145l-0.138,-0.145v-0.282C36.827,30.297 37.454,29.182 37.881,29.182z" id="path_9"/><path fill="#000002" d="M26.792,46.938c0.73,-1.461 1.089,-2.9 1.089,-4.318c-0.214,-2.418 -1.446,-5.916 -3.713,-10.49v-0.158c2.073,-1.591 6.109,-4.119 12.108,-7.59h0.165v0.158l-0.165,0.166v0.806l0.165,0.806h0.324c0.806,-2.066 1.99,-4.332 3.547,-6.777v-0.324l-0.158,-0.159c-7.239,3.981 -12.136,6.833 -14.691,8.554c-1.102,0.537 -1.846,1.515 -2.218,2.927c-0.379,1.412 -0.393,2.961 -0.041,4.656l0.323,1.295c1.867,3.616 2.886,5.95 3.044,6.997c-2.327,2.355 -6.935,3.533 -13.822,3.533l-1.936,-0.158c-4.415,-1.025 -6.619,-2.479 -6.619,-4.359v-0.166c1.185,-2.472 1.777,-3.926 1.777,-4.352c-0.082,-0.324 -0.296,-0.489 -0.647,-0.489c-0.992,0 -1.805,1.989 -2.418,5.978c-0.123,1.529 0.083,2.77 0.62,3.713c2.005,2.796 4.918,4.194 8.74,4.194h1.612l4.559,-0.159c2.556,-0.434 4.546,-1.033 5.958,-1.797c0.641,-0.324 1.185,-0.73 1.611,-1.213C26.372,47.818 26.634,47.398 26.792,46.938z" id="path_10"/><path fill="#000002" d="M22.013,24.863c0.165,-0.097 0.213,0.055 0.145,0.448c-0.916,2.148 -2.321,3.65 -4.215,4.498L10.979,33.3c-0.296,-0.083 -0.351,-0.324 -0.165,-0.729c0.93,-1.791 1.563,-2.852 1.901,-3.189L22.013,24.863z" id="path_11"/></svg>