<svg id="vector" xmlns="http://www.w3.org/2000/svg" width="75" height="67" viewBox="0 0 83 73"><path fill="#009649" d="M59.187,47.787h0.838c5.225,-0.1 8.693,-0.83 10.413,-2.207l0.337,-0.666c-0.223,-0.537 -0.502,-0.803 -0.839,-0.803c-0.81,0.451 -1.706,0.674 -2.687,0.674h-0.173c-2.909,-0.338 -4.421,-1.512 -4.529,-3.527v-0.172c0.279,-3.805 1.175,-5.703 2.688,-5.703h0.839c2.587,-0.129 4.551,1.885 5.877,6.041l0.164,1.684v0.336c-0.035,4.115 -1.512,6.83 -4.429,8.143c-1.032,0.658 -3.87,0.988 -8.499,0.988V47.787z" id="path_0"/><path fill="#009649" d="M66.575,26.604c1.82,0.559 3.389,1.453 4.701,2.688v0.164c0,0.703 -0.725,1.82 -2.18,3.361c-0.451,0 -1.963,-0.559 -4.535,-1.678v0.166c-0.896,1.734 -1.455,2.629 -1.686,2.688c-1.454,-0.309 -2.688,-0.982 -3.689,-2.014c0.674,-2.803 1.232,-4.201 1.676,-4.201c0.365,0 1.706,0.674 4.035,2.014C64.897,29.205 65.456,28.145 66.575,26.604z" id="path_1"/><path fill="#009649" d="M66.453,13.395c1.72,0 2.579,1.061 2.579,3.176c0,3.367 -2.873,6.242 -8.628,8.605c-0.824,0.252 -0.925,-0.049 -0.294,-0.902c0.158,-0.322 1.512,-1.332 4.07,-3.023v-0.145c-1.104,-0.451 -1.655,-1.412 -1.655,-2.881c0.731,-3.217 1.892,-4.83 3.483,-4.83H66.453L66.453,13.395zM63.888,17.027c0,0.896 0.76,1.449 2.271,1.664h0.294c0.56,0 0.917,-0.209 1.067,-0.609c0,-0.91 -0.659,-1.619 -1.971,-2.121C64.977,15.961 64.425,16.318 63.888,17.027z" id="path_2"/><path fill="#000001" d="M59.702,52.574c-0.107,0 -0.223,0 -0.33,0H57.86c-1.513,0 -3.254,-0.953 -5.211,-2.852c-3.361,1.842 -6.987,2.795 -10.879,2.852v-4.766c2.035,0.137 4.651,-0.287 7.855,-1.283v-0.164c-1.541,-1.012 -2.996,-1.512 -4.365,-1.512l-1.348,0.164l-0.336,-0.838c0.451,-3.025 1.741,-4.537 3.862,-4.537l2.688,-0.164c4.257,0.502 6.386,1.455 6.386,2.852V43l-1.011,3.361c0.817,0.988 2.215,1.469 4.2,1.426V52.574z" id="path_3"/><path fill="#000001" d="M52.063,22.209c1.72,0 2.579,1.061 2.579,3.176c0,3.367 -2.873,6.242 -8.628,8.607c-0.824,0.25 -0.925,-0.051 -0.294,-0.904c0.158,-0.322 1.512,-1.332 4.07,-3.023v-0.143c-1.104,-0.453 -1.655,-1.412 -1.655,-2.883c0.731,-3.217 1.892,-4.83 3.483,-4.83H52.063L52.063,22.209zM49.497,25.844c0,0.895 0.76,1.447 2.271,1.662h0.294c0.56,0 0.917,-0.209 1.067,-0.609c0,-0.91 -0.659,-1.619 -1.971,-2.121C50.586,24.775 50.034,25.133 49.497,25.844z" id="path_4"/><path fill="#9e3b21" d="M42.573,52.574l-1.892,-0.021c-1.046,4.609 -3.819,6.938 -8.313,6.996c-2.408,0.107 -3.611,0.063 -3.611,-0.131c0.222,-0.422 1.834,-1.232 4.83,-2.436c3.082,-1.957 4.938,-3.219 5.582,-3.777l0.172,-0.502l-2.938,-0.465c-2.143,-0.559 -3.348,-1.635 -3.612,-3.232v-0.338c0,-2.715 0.667,-4.449 2.014,-5.209l1.011,-0.166c1.984,0 3.605,1.385 4.866,4.158c0.803,0.279 1.433,0.416 1.892,0.4V52.574z" id="path_5"/><path fill="#9e3b21" d="M34.783,29.477h1.663c2.014,0 3.023,0.752 3.023,2.264c-1.304,3.527 -2.888,5.398 -4.751,5.613l-2.2,0.293c-0.352,0 -0.494,-0.1 -0.443,-0.293c1.776,-0.939 3.439,-2.059 4.98,-3.34c-0.545,-0.51 -1.146,-0.76 -1.807,-0.76h-0.466l-1.806,0.15l-0.144,-0.15v-0.295C33.687,30.637 34.339,29.477 34.783,29.477z" id="path_6"/><path fill="#000001" d="M16.645,36.787c5.712,2.041 8.563,4.564 8.563,7.561l0.173,1.002c-0.48,3.922 -1.771,5.877 -3.87,5.877c0,0.365 -2.795,0.818 -8.393,1.348l-0.172,-0.502c0,-2.801 0.502,-4.199 1.513,-4.199c5.597,-0.451 8.679,-1.125 9.237,-2.021c-1.928,-1.869 -4.45,-3.383 -7.561,-4.529l-0.165,-0.846C16.058,38.02 16.278,36.787 16.645,36.787z" id="path_7"/><path fill="#f06022" d="M19.834,22.488c1.282,0 2.042,0.854 2.265,2.559v0.467c-0.236,2.852 -1.189,4.715 -2.853,5.582c-2.896,1.82 -5.525,2.73 -7.876,2.73c-0.086,-0.014 -0.165,-0.035 -0.251,-0.064c-0.086,-0.027 -0.151,-0.07 -0.2,-0.129c-0.051,-0.049 -0.043,-0.086 0.014,-0.1c0.122,-0.279 2.236,-1.398 6.336,-3.34v-0.15c-1.104,-0.695 -1.656,-1.656 -1.656,-2.875C16.272,24.045 17.677,22.488 19.834,22.488L19.834,22.488zM17.125,25.656v0.145c0,1.039 0.71,1.648 2.121,1.826h0.438c0.537,0 0.839,-0.15 0.902,-0.459c0,-1.41 -0.752,-2.121 -2.265,-2.121C17.526,25.227 17.125,25.436 17.125,25.656z" id="path_8"/><path fill="#f06022" d="M16.516,19.758c0.323,-0.156 0.474,-0.049 0.458,0.316c-1.619,1.791 -2.895,3.49 -3.818,5.102c-0.266,0.631 -0.416,1.148 -0.452,1.563c-0.036,0.416 0.071,0.861 0.329,1.334h0.315c0.122,-0.703 0.373,-1.055 0.753,-1.055c0.451,0.201 0.702,0.402 0.752,0.609v0.295c0.029,1.598 -0.422,2.559 -1.361,2.881h-0.752c-1.012,-0.201 -1.513,-1.361 -1.513,-3.49C11.227,24.725 12.989,22.209 16.516,19.758z" id="path_9"/></svg>