<svg id="vector" xmlns="http://www.w3.org/2000/svg" width="75" height="67" viewBox="0 0 83 73"><path fill="#213877" d="M56.466,52.715h0.353c1.2,0.262 2.49,0.967 3.87,2.114v0.173c-0.795,2.4 -1.493,3.69 -2.107,3.87c-1.793,-0.353 -3.136,-0.938 -4.043,-1.763v-0.173C54.539,55.557 55.184,54.155 56.466,52.715z" id="path_0"/><path fill="#213877" d="M62.976,51.132h0.173c1.2,0.18 2.55,0.998 4.042,2.46v0.181l-2.107,3.689c-2.813,-0.907 -4.223,-1.672 -4.223,-2.287C61.769,52.483 62.474,51.132 62.976,51.132z" id="path_1"/><path fill="#213877" d="M54.906,44.675c4.605,0.045 7.178,-0.817 7.74,-2.596c0,-0.614 -0.585,-2.137 -1.763,-4.567l0.533,-4.567h0.345c1.53,2.633 2.287,5.272 2.287,7.905v1.582c0,1.058 -0.255,2.168 -0.757,3.33c-0.503,1.163 -1.283,2.146 -2.325,2.933c-1.05,0.795 -3.067,1.125 -6.061,0.99V44.675z" id="path_2"/><path fill="#213877" d="M68.091,20.833c0.18,-0.105 0.232,0.06 0.157,0.487c-0.997,2.34 -2.527,3.975 -4.59,4.897l-7.583,3.803c-0.322,-0.09 -0.382,-0.353 -0.18,-0.795c1.013,-1.95 1.703,-3.105 2.07,-3.473L68.091,20.833z" id="path_3"/><path fill="#009649" d="M55.124,49.7c-0.157,0.016 -0.322,0.022 -0.48,0.022h-0.885c-1.372,0 -2.31,-0.112 -2.813,-0.352c-1.02,3.944 -2.212,6.359 -3.577,7.244c-1.365,0.886 -4.447,1.636 -9.248,2.25h-0.353c-1.058,-0.119 -1.582,-0.292 -1.582,-0.524c0,-0.353 0.878,-0.766 2.633,-1.23c6.915,-3.165 10.372,-5.452 10.372,-6.854c0,-0.585 -0.817,-1.936 -2.46,-4.043c-0.353,-0.592 -0.524,-1.35 -0.524,-2.287V42.17c0,-0.886 0.172,-1.351 0.524,-1.41c1.522,2.332 4.103,3.63 7.732,3.907c0.226,0 0.442,0 0.66,-0.015V49.7z" id="path_4"/><path fill="#009649" d="M51.412,28.498c0.18,-0.105 0.231,0.06 0.157,0.487c-0.998,2.34 -2.528,3.976 -4.59,4.897l-7.583,3.803c-0.322,-0.09 -0.383,-0.353 -0.18,-0.795c1.012,-1.95 1.702,-3.104 2.069,-3.473L51.412,28.498z" id="path_5"/><path fill="#D50000" d="M35.077,32.675l0.18,0.524c-0.24,0.998 -1.29,2.168 -3.165,3.518c1.875,1.522 2.813,3.75 2.813,6.683v0.173c0,4.808 -1.995,7.207 -5.978,7.207c-3.165,-0.615 -4.747,-2.197 -4.747,-4.747V45.86c0.119,-2.197 0.997,-4.545 2.64,-7.035c-1.522,-0.465 -2.288,-1.109 -2.288,-1.935c0,-2.197 0.173,-3.54 0.525,-4.043c1.582,0.443 3.345,1.32 5.272,2.641h0.18L35.077,32.675L35.077,32.675zM28.221,39.703c-1.402,1.41 -2.107,2.407 -2.107,2.992c0,1.815 1.29,2.873 3.87,3.165c1.343,-0.18 2.52,-0.645 3.51,-1.41C32.353,42.485 30.599,40.91 28.221,39.703z" id="path_6"/><path fill="#D50000" d="M30.996,14.127c1.801,0 2.7,1.11 2.7,3.322c0,3.525 -3.008,6.533 -9.03,9.008c-0.862,0.263 -0.967,-0.053 -0.307,-0.945c0.164,-0.337 1.582,-1.395 4.26,-3.165v-0.149c-1.155,-0.473 -1.732,-1.478 -1.732,-3.016c0.765,-3.367 1.979,-5.055 3.645,-5.055H30.996L30.996,14.127zM28.311,17.93c0,0.938 0.795,1.515 2.377,1.74h0.308c0.585,0 0.961,-0.218 1.118,-0.638c0,-0.952 -0.69,-1.695 -2.063,-2.221C29.451,16.812 28.874,17.188 28.311,17.93z" id="path_7"/><path fill="#D50000" d="M19.499,47.014h0.446c1.301,0 2.265,1.11 2.896,3.337l0.108,1.111c0.039,0.36 0.039,0.731 0,1.115c-0.332,1.354 -1.077,2.688 -2.227,4.003c-0.797,0.669 -2.611,1.187 -5.45,1.557c-0.332,-0.147 -0.522,-0.294 -0.556,-0.441c4.748,-2.578 7.122,-4.135 7.122,-4.676l0.109,-0.333l-0.109,-0.109l-1.002,0.333h-0.556c-2.003,0 -3.005,-0.708 -3.005,-2.113v-0.223c0.256,-2.303 0.816,-3.452 1.666,-3.452L19.499,47.014z" id="path_8"/></svg>