<svg id="vector" xmlns="http://www.w3.org/2000/svg" width="75" height="67" viewBox="0 0 83 73"><path fill="#213877" d="M47.166,43.784c4.977,0 6.598,0.371 9.443,-5.225c1.848,-2.802 3.756,-4.199 5.711,-4.199c2.465,0 3.699,1.563 3.699,4.701V39.9c0,1.541 -0.617,3.555 -1.85,6.049l-1.176,0.839c-1.039,0 -3.439,-0.731 -7.225,-2.187c-2.563,3.845 -3.816,3.97 -8.561,3.97h-0.043V43.784L47.166,43.784zM58.457,40.237v0.164c2.91,1.125 4.652,1.685 5.211,1.685c0.223,0 0.338,-0.172 0.338,-0.509c-0.646,-1.677 -1.713,-2.516 -3.197,-2.516C59.777,39.062 58.988,39.456 58.457,40.237z" id="path_0"/><path fill="#213877" d="M67.201,17.596c0.174,-0.101 0.223,0.058 0.152,0.466c-0.953,2.236 -2.416,3.799 -4.387,4.68l-7.246,3.633c-0.307,-0.086 -0.365,-0.336 -0.172,-0.759c0.967,-1.863 1.627,-2.967 1.979,-3.318L67.201,17.596z" id="path_1"/><path fill="#2962FF" d="M49.33,24.818c1.549,0 3.111,0.781 4.68,2.337c0.15,0.265 0.094,0.473 -0.178,0.631c-0.273,0.15 -0.523,0.114 -0.746,-0.107c-0.674,-0.603 -1.627,-0.903 -2.852,-0.903h-0.531c-0.516,0 -1.117,0.215 -1.807,0.651c0,1.262 1.514,2.035 4.537,2.33l3.004,-1.176l0.129,0.401c0,1.411 -1.734,2.673 -5.211,3.776l-4.809,2.73l-0.502,0.123c-0.193,0.042 -0.33,-0.037 -0.4,-0.252c0,-0.752 1.088,-1.799 3.252,-3.124v-0.13c-1.045,-0.572 -1.568,-1.396 -1.568,-2.479C46.814,26.424 47.818,24.818 49.33,24.818z" id="path_2"/><path fill="#2962FF" d="M55.896,16.39c0.172,-0.101 0.223,0.057 0.15,0.466c-0.953,2.235 -2.416,3.798 -4.387,4.68l-7.244,3.634c-0.309,-0.086 -0.367,-0.338 -0.174,-0.76c0.969,-1.863 1.627,-2.967 1.979,-3.318L55.896,16.39z" id="path_3"/><path fill="#2962FF" d="M47.615,48.571c-3.26,0.194 -5.633,-1.311 -7.117,-4.514c-0.717,-1.19 -1.383,-9.21 -2.014,-24.059v-0.338c0.416,-2.465 1.033,-3.697 1.842,-3.697l0.846,-0.165c1.033,0 2.602,0.337 4.703,1.003v0.338c-0.115,0.336 -0.453,0.508 -1.012,0.508h-2.852c-0.588,0 -1.146,0.33 -1.686,1.004c0.523,12.893 1.283,20.36 2.295,22.402c1.002,2.043 2.672,2.953 4.994,2.73V48.571z" id="path_4"/><path fill="#f06022" d="M26.322,51.151c0.574,0 1.914,0.674 4.029,2.021c0,0.838 -0.668,2.179 -2.014,4.027c-2.689,-0.867 -4.029,-1.648 -4.029,-2.351C24.373,54.22 25.047,52.987 26.322,51.151z" id="path_5"/><path fill="#f06022" d="M22.287,43.784c4.402,0.043 6.859,-0.781 7.396,-2.479c0,-0.588 -0.559,-2.043 -1.684,-4.365l0.508,-4.364h0.33c1.463,2.515 2.188,5.038 2.188,7.554v1.512c0,1.011 -0.244,2.071 -0.725,3.182c-0.48,1.111 -1.227,2.051 -2.223,2.803c-1.002,0.76 -2.93,1.075 -5.791,0.945V43.784z" id="path_6"/><path fill="#f06022" d="M35.059,21.131l0.172,0.15v0.459c-0.873,1.863 -2.084,3.167 -3.633,3.927c-4.816,2.616 -7.488,3.928 -8.02,3.928c-0.201,0 -0.301,-0.158 -0.301,-0.466c0.465,-1.777 1.477,-2.981 3.023,-3.612l8.615,-4.386H35.059z" id="path_7"/><path fill="#f06022" d="M33.863,17.354c0.193,0 0.293,0.143 0.293,0.437c-0.559,1.627 -2.215,3.089 -4.973,4.394l-6.365,3.482l-0.143,-0.15v-0.164c0.602,-2.129 1.555,-3.44 2.873,-3.928l7.096,-3.634L33.863,17.354z" id="path_8"/><path fill="#000000" d="M24.746,48.571c-3.26,0.194 -5.633,-1.311 -7.117,-4.514c-0.715,-1.19 -1.383,-9.21 -2.014,-24.059v-0.338c0.416,-2.465 1.033,-3.697 1.842,-3.697l0.846,-0.165c1.033,0 2.602,0.337 4.703,1.003v0.338c-0.115,0.336 -0.453,0.508 -1.012,0.508h-2.852c-0.588,0 -1.146,0.33 -1.686,1.004c0.523,12.893 1.283,20.36 2.295,22.402c1.002,2.043 2.672,2.953 4.994,2.73V48.571z" id="path_9"/></svg>