<svg id="vector" xmlns="http://www.w3.org/2000/svg" width="75" height="67" viewBox="0 0 83 73"><path fill="#000001" d="M40.766,44.534c0.86,-0.811 4.479,-1.133 10.843,-0.982c3.447,-0.121 6.795,-1.046 10.041,-2.766c1.232,-1.232 2.803,-3.305 4.701,-6.214c0.953,-0.953 1.85,-1.513 2.688,-1.685c2.91,0 4.371,1.57 4.371,4.701c-0.2,4.459 -1.039,7.146 -2.521,8.063h-0.839c-1.427,0 -3.948,-0.896 -7.562,-2.688c-0.838,1.463 -3.188,2.688 -7.051,3.699h-0.173c-5.231,0.451 -9.173,0.408 -11.817,-0.13C40.802,46.003 39.905,45.337 40.766,44.534L40.766,44.534zM65.849,39.273c1.426,0.695 3.275,1.312 5.54,1.849V40.95c0,-1.763 -1.118,-2.823 -3.354,-3.188C66.573,38.177 65.849,38.687 65.849,39.273z" id="path_0"/><path fill="#000001" d="M71.575,50.482c0.172,-0.093 0.223,0.058 0.15,0.466c-0.953,2.236 -2.415,3.799 -4.387,4.68l-7.244,3.633c-0.309,-0.086 -0.365,-0.336 -0.173,-0.752c0.968,-1.863 1.627,-2.967 1.978,-3.318L71.575,50.482z" id="path_1"/><path fill="#9e3b21" d="M51.63,46.196c0.574,1.025 0.889,1.627 0.946,1.807l0.079,1.368c-0.015,2.423 -0.337,4.093 -0.982,5.017c-0.645,0.925 -1.461,1.391 -2.458,1.404c-2.157,0 -4.394,-1.733 -6.722,-5.202c-0.401,-0.688 -0.796,-1.584 -1.176,-2.688h-1.677c-0.38,0 -0.738,-0.021 -1.089,-0.063v-4.81c0.516,0.115 1.045,0.166 1.59,0.166h0.674c0.925,-3.584 2.494,-6.271 4.701,-8.063c1.147,-0.896 2.215,-1.341 3.197,-1.341c1.512,0 2.408,1.118 2.688,3.361c0.443,2.251 -0.058,4.594 -1.513,7.03L51.63,46.196L51.63,46.196zM44.177,47.73c1.146,2.021 2.824,3.139 5.038,3.36c1.118,-0.1 1.849,-0.486 2.187,-1.175c-0.101,-1.354 -0.882,-2.179 -2.352,-2.466c-1.476,-0.286 -2.651,-0.387 -3.54,-0.286S44.177,47.45 44.177,47.73L44.177,47.73zM42.493,42.527c-0.122,0.372 0.043,0.544 0.509,0.501c2.128,0 4.249,-0.953 6.378,-2.852v-0.172c-0.473,-1.118 -1.09,-1.678 -1.842,-1.678C45.868,38.112 44.191,39.517 42.493,42.527z" id="path_2"/><path fill="#213877" d="M39.218,47.838c-2.881,-0.194 -5.497,-1.771 -7.848,-4.723h-0.172c-1.004,5.819 -3.246,8.729 -6.715,8.735h-0.51c-1.504,-0.007 -2.967,-1.347 -4.363,-4.034c-1.119,-3.776 -1.678,-6.636 -1.678,-8.564v-1.347c0,-0.84 0.165,-1.291 0.502,-1.341c0.473,0.251 1.039,2.085 1.691,5.511c0.652,3.419 1.992,5.053 4.021,4.902c3.92,-0.645 5.991,-2.889 6.214,-6.723l-1.513,-5.203v-1.848c0.058,-2.244 0.279,-3.361 0.674,-3.361c0.222,0.502 0.394,1.01 0.501,1.512l2.352,7.389c1.849,2.996 4.135,4.414 6.844,4.242V47.838z" id="path_3"/><path fill="#f06022" d="M33.993,17.516l0.172,0.15v0.458c-0.874,1.863 -2.085,3.168 -3.633,3.928c-4.816,2.616 -7.489,3.928 -8.02,3.928c-0.201,0 -0.301,-0.158 -0.301,-0.466c0.465,-1.777 1.476,-2.981 3.023,-3.612l8.615,-4.386H33.993z" id="path_4"/><path fill="#f06022" d="M32.796,13.739c0.194,0 0.295,0.143 0.295,0.437c-0.56,1.627 -2.215,3.089 -4.975,4.394l-6.363,3.482l-0.144,-0.15v-0.164c0.603,-2.129 1.556,-3.44 2.874,-3.928l7.095,-3.634L32.796,13.739z" id="path_5"/><path fill="#000001" d="M11.103,19.594c0.337,0 0.674,1.125 1.011,3.361l1.513,3.361l-0.674,3.862l0.502,9.41v1.505c-0.223,3.842 -0.781,6.077 -1.678,6.723l-0.164,-0.165l0.164,-2.522c0,-2.265 -0.73,-9.489 -2.186,-21.665C10.293,20.884 10.795,19.594 11.103,19.594z" id="path_6"/><path fill="#9e3b21" d="M45.423,16.429c1.41,2.4 2.115,4.748 2.115,7.027c-0.615,4.335 -1.38,6.502 -2.287,6.502l-0.173,-0.172v-0.172l0.345,-2.288v-0.18c0,-1.403 -0.585,-3.511 -1.755,-6.323v-0.352C44.253,17.771 44.838,16.429 45.423,16.429z" id="path_7"/></svg>