<svg id="vector" xmlns="http://www.w3.org/2000/svg" width="75" height="67" viewBox="0 0 83 73"><path fill="#D84315" d="M64.503,38.381c0.168,0 0.344,0 0.528,0h0.126c1.543,-0.096 2.949,-1.379 4.207,-3.852c1.363,-2.066 2.77,-3.098 4.211,-3.098c1.818,0 2.728,1.152 2.728,3.467v0.619c0,1.135 -0.454,2.621 -1.363,4.459l-0.866,0.619c-0.768,0 -2.537,-0.539 -5.327,-1.611c-0.846,1.268 -1.507,2.039 -1.981,2.309c-0.725,0.502 -1.465,0.713 -2.23,0.619h-0.031V38.381L64.503,38.381zM70.728,35.766v0.121c2.146,0.83 3.43,1.242 3.842,1.242c0.164,0 0.248,-0.127 0.248,-0.375c-0.475,-1.236 -1.263,-1.855 -2.356,-1.855C71.7,34.898 71.118,35.189 70.728,35.766z" id="path_0"/><path fill="#D84315" d="M74.723,21.725c0.126,-0.074 0.163,0.043 0.11,0.344c-0.702,1.648 -1.78,2.801 -3.234,3.451l-5.342,2.678c-0.227,-0.063 -0.27,-0.248 -0.127,-0.559c0.713,-1.375 1.199,-2.189 1.459,-2.447L74.723,21.725z" id="path_1"/><path fill="#000001" d="M65.047,41.912l-1.396,-0.018c-0.771,3.398 -2.816,5.115 -6.13,5.158c-1.775,0.08 -2.663,0.047 -2.663,-0.096c0.164,-0.311 1.353,-0.908 3.563,-1.795c2.271,-1.443 3.641,-2.373 4.115,-2.785l0.127,-0.371l-2.166,-0.344c-1.58,-0.412 -2.468,-1.205 -2.664,-2.383v-0.248c0,-2.004 0.492,-3.281 1.485,-3.842l0.745,-0.121c1.464,0 2.658,1.02 3.588,3.064c0.592,0.205 1.057,0.307 1.396,0.295V41.912z" id="path_2"/><path fill="#000001" d="M64.006,25.145c0.127,-0.074 0.163,0.041 0.11,0.342c-0.702,1.65 -1.78,2.803 -3.233,3.451l-5.343,2.68c-0.227,-0.064 -0.27,-0.248 -0.127,-0.561c0.713,-1.373 1.199,-2.188 1.459,-2.445L64.006,25.145z" id="path_3"/><path fill="#D81B60" d="M50.818,21.102c0.248,0 0.497,0.83 0.745,2.479l1.115,2.479l-0.497,2.848l0.37,6.938v1.111c-0.164,2.832 -0.576,4.48 -1.236,4.957l-0.122,-0.123l0.122,-1.859c0,-1.67 -0.539,-6.996 -1.612,-15.975C50.222,22.053 50.591,21.102 50.818,21.102z" id="path_4"/><path fill="#0091EA" d="M44.377,28.336c1.009,0.164 2.003,0.781 2.97,1.854v0.25c-0.618,1.652 -1.072,2.477 -1.363,2.477c-1.981,-0.68 -2.97,-1.221 -2.97,-1.611C43.014,30.545 43.468,29.551 44.377,28.336z" id="path_5"/><path fill="#0091EA" d="M45.646,35.068c0.74,0.744 1.443,2.352 2.104,4.83l0.127,1.611c0,2.912 -1.449,4.893 -4.339,5.945l-0.866,0.121l-2.199,0.031l-2.135,-0.031l-0.121,-0.121v-0.127c0.264,-0.285 2.039,-1.152 5.321,-2.602c2.065,-1.172 3.181,-2.207 3.345,-3.096c-1.072,-2.287 -1.606,-3.609 -1.606,-3.963v-0.369C45.275,35.813 45.397,35.068 45.646,35.068z" id="path_6"/><path fill="#0091EA" d="M49.175,49.557c0.127,-0.068 0.164,0.043 0.111,0.344c-0.703,1.65 -1.781,2.801 -3.234,3.451l-5.342,2.68c-0.228,-0.064 -0.27,-0.248 -0.127,-0.555c0.713,-1.375 1.199,-2.188 1.459,-2.447L49.175,49.557z" id="path_7"/><path fill="#FF6D00" d="M29.69,44.047h0.248c0.846,0.184 1.754,0.68 2.727,1.49v0.121c-0.56,1.691 -1.051,2.6 -1.484,2.727c-1.264,-0.248 -2.209,-0.66 -2.849,-1.242v-0.121C28.332,46.049 28.786,45.061 29.69,44.047z" id="path_8"/><path fill="#FF6D00" d="M34.276,43.984h0.123c0.845,0.127 1.796,0.703 2.848,1.734v0.127l-1.484,2.6c-1.982,-0.639 -2.976,-1.178 -2.976,-1.611C33.427,44.936 33.923,43.984 34.276,43.984z" id="path_9"/><path fill="#FF6D00" d="M29.476,38.381c3.245,0.031 5.058,-0.576 5.454,-1.828c0,-0.434 -0.412,-1.506 -1.242,-3.219l0.375,-3.217h0.243c1.078,1.854 1.611,3.715 1.611,5.568v1.115c0,0.746 -0.18,1.527 -0.533,2.346c-0.354,0.82 -0.904,1.512 -1.639,2.066c-0.739,0.561 -2.16,0.793 -4.27,0.699V38.381z" id="path_10"/><path fill="#FF6D00" d="M34.058,21.322h1.227c1.484,0 2.229,0.557 2.229,1.67c-0.962,2.602 -2.13,3.98 -3.504,4.139l-1.622,0.217c-0.26,0 -0.365,-0.074 -0.328,-0.217c1.311,-0.693 2.537,-1.518 3.673,-2.463c-0.401,-0.375 -0.845,-0.561 -1.331,-0.561h-0.344l-1.332,0.111l-0.105,-0.111v-0.217C33.249,22.18 33.729,21.322 34.058,21.322z" id="path_11"/><path fill="#9e3b21" d="M23.536,27.822c0.423,0 1.416,0.498 2.975,1.486c0,0.617 -0.496,1.611 -1.49,2.975c-1.981,-0.641 -2.969,-1.221 -2.969,-1.734C22.104,30.084 22.596,29.176 23.536,27.822z" id="path_12"/><path fill="#9e3b21" d="M19.028,38.381c0.883,0.012 1.427,-0.006 1.644,-0.047c1.86,-0.566 3.128,-1.771 3.81,-3.604c0.102,-0.355 0.307,-0.396 0.619,-0.127c0.164,0.143 0.29,0.723 0.369,1.732c1.126,1.518 2.531,2.199 4.213,2.045h0.327v3.531h-0.079c-2.632,-0.123 -4.571,-1.322 -5.824,-3.594h-0.121c-0.877,1.85 -2.035,2.984 -3.467,3.408c-0.434,0.121 -0.93,0.186 -1.49,0.186V38.381z" id="path_13"/><path fill="#9e3b21" d="M25.085,16.969c1.268,0 1.902,0.781 1.902,2.34c0,2.484 -2.119,4.604 -6.363,6.348c-0.607,0.186 -0.682,-0.037 -0.217,-0.666c0.117,-0.238 1.115,-0.982 3.002,-2.23v-0.105c-0.813,-0.332 -1.221,-1.041 -1.221,-2.123c0.539,-2.373 1.395,-3.563 2.568,-3.563H25.085L25.085,16.969zM23.192,19.648c0,0.66 0.561,1.066 1.676,1.225h0.217c0.412,0 0.676,-0.152 0.787,-0.449c0,-0.67 -0.486,-1.193 -1.453,-1.563C23.995,18.861 23.589,19.125 23.192,19.648z" id="path_14"/><path fill="#006064" d="M19.341,41.912h-0.032c-2.372,0 -3.984,-1.158 -4.83,-3.467l-0.249,-0.994h-0.248c-0.185,0.66 -1.506,1.072 -3.963,1.242H9.399c-1.652,0 -2.478,-0.498 -2.478,-1.49v-1.115c0,-1.195 0.909,-2.68 2.727,-4.455c1.095,-0.83 2.331,-1.527 3.715,-2.109l-0.126,-0.369c0.454,-2.066 0.829,-3.096 1.115,-3.096c0.147,0.348 0.354,2.91 0.623,7.678c0.369,3.213 1.822,4.771 4.365,4.691V41.912L19.341,41.912zM8.407,34.73c0.475,0.326 1.263,0.49 2.356,0.49c1.073,-0.078 2.062,-0.285 2.97,-0.617l-0.248,-3.467h-0.122C10.062,32.705 8.407,33.9 8.407,34.73z" id="path_15"/><path fill="#006064" d="M13.138,16.969c1.269,0 1.902,0.781 1.902,2.34c0,2.484 -2.119,4.604 -6.361,6.348c-0.608,0.186 -0.682,-0.037 -0.217,-0.666c0.115,-0.238 1.114,-0.982 3.001,-2.23v-0.105c-0.813,-0.332 -1.221,-1.041 -1.221,-2.123c0.539,-2.373 1.396,-3.563 2.568,-3.563H13.138L13.138,16.969zM11.247,19.648c0,0.66 0.56,1.066 1.674,1.225h0.217c0.413,0 0.678,-0.152 0.788,-0.449c0,-0.67 -0.486,-1.193 -1.454,-1.563C12.05,18.861 11.644,19.125 11.247,19.648z" id="path_16"/><path fill="#006064" d="M10.087,43.141c-0.297,1.309 -1.086,1.971 -2.363,1.988c-0.685,0.029 -1.027,0.018 -1.027,-0.037c0.063,-0.121 0.521,-0.35 1.374,-0.693c0.876,-0.555 1.403,-0.914 1.587,-1.072l0.049,-0.143L8.87,43.051c-0.608,-0.16 -0.951,-0.465 -1.026,-0.92v-0.096c0,-0.771 0.189,-1.264 0.573,-1.48l0.287,-0.047C10.091,40.508 10.175,42.139 10.087,43.141z" id="path_17"/></svg>