<svg id="vector" xmlns="http://www.w3.org/2000/svg" width="75" height="67" viewBox="0 0 83 73"><path fill="#304FFE" d="M62.256,52.893h0.338c1.151,0.252 2.389,0.928 3.712,2.028v0.166c-0.763,2.302 -1.432,3.539 -2.021,3.712c-1.719,-0.339 -3.007,-0.899 -3.877,-1.69v-0.166C60.408,55.62 61.026,54.274 62.256,52.893z" id="path_0"/><path fill="#304FFE" d="M68.5,51.375h0.166c1.15,0.173 2.446,0.956 3.877,2.359v0.173l-2.021,3.539c-2.697,-0.87 -4.05,-1.604 -4.05,-2.194C67.341,52.67 68.018,51.375 68.5,51.375z" id="path_1"/><path fill="#304FFE" d="M60.76,45.182c4.416,0.043 6.884,-0.784 7.424,-2.489c0,-0.59 -0.562,-2.05 -1.691,-4.381l0.511,-4.381h0.331c1.468,2.525 2.194,5.058 2.194,7.582v1.519c0,1.014 -0.245,2.078 -0.727,3.193c-0.482,1.115 -1.229,2.057 -2.23,2.813c-1.007,0.763 -2.941,1.079 -5.812,0.949V45.182z" id="path_2"/><path fill="#304FFE" d="M68.751,19.213c1.727,0 2.59,1.065 2.59,3.187c0,3.382 -2.885,6.266 -8.661,8.64c-0.827,0.252 -0.928,-0.051 -0.294,-0.906c0.158,-0.324 1.518,-1.338 4.085,-3.035v-0.145c-1.107,-0.453 -1.661,-1.417 -1.661,-2.892c0.733,-3.229 1.899,-4.849 3.496,-4.849H68.751L68.751,19.213zM66.177,22.861c0,0.899 0.762,1.453 2.279,1.669h0.295c0.562,0 0.921,-0.209 1.072,-0.611c0,-0.914 -0.662,-1.626 -1.979,-2.13C67.27,21.789 66.716,22.149 66.177,22.861z" id="path_3"/><path fill="#009649" d="M43.906,45.182c1.87,0.158 3.46,-0.029 4.783,-0.547l-0.697,-1.266c-0.654,-3.712 -0.359,-6.165 0.885,-7.366c1.252,-1.202 2.597,-1.756 4.028,-1.654c2.784,0.129 4.352,1.589 4.719,4.38v1.015c0,2.331 -0.338,3.791 -1.007,4.381c-0.425,0.438 0.532,0.806 2.863,1.101l0.547,-0.021c0.424,-0.015 0.905,-0.021 1.452,-0.021v4.805l-1.704,0.021c-3.173,-0.014 -5.575,-0.417 -7.208,-1.201c-2.244,0.784 -3.992,1.18 -5.223,1.18h-0.676c-0.842,0 -1.763,0 -2.763,0V45.182L43.906,45.182zM49.87,40.419v0.339c0.704,1.208 1.77,2.05 3.201,2.524c0.956,-0.165 1.913,-0.562 2.869,-1.18c-0.424,-1.575 -1.826,-2.475 -4.215,-2.697C50.488,39.744 49.87,40.082 49.87,40.419z" id="path_4"/><path fill="#009649" d="M53.135,24.652c1.827,0.568 3.402,1.468 4.719,2.698v0.172c0,0.705 -0.727,1.827 -2.187,3.374c-0.454,0 -1.972,-0.562 -4.554,-1.69v0.173c-0.899,1.74 -1.46,2.64 -1.69,2.697c-1.46,-0.31 -2.697,-0.985 -3.705,-2.028c0.677,-2.806 1.237,-4.209 1.684,-4.209c0.367,0 1.719,0.669 4.05,2.021C51.452,27.271 52.013,26.199 53.135,24.652z" id="path_5"/><path fill="#009649" d="M57.221,14.265c0.173,-0.101 0.223,0.058 0.151,0.467c-0.957,2.245 -2.425,3.813 -4.402,4.697l-7.273,3.647c-0.309,-0.086 -0.366,-0.338 -0.172,-0.763c0.971,-1.87 1.633,-2.978 1.985,-3.33L57.221,14.265z" id="path_6"/><path fill="#009649" d="M44.05,49.987c-3.273,0.194 -5.654,-1.316 -7.144,-4.531c-0.719,-1.194 -1.388,-9.244 -2.021,-24.148v-0.338c0.416,-2.475 1.035,-3.712 1.848,-3.712l0.849,-0.166c1.036,0 2.612,0.339 4.72,1.008v0.338c-0.115,0.338 -0.453,0.511 -1.015,0.511h-2.863c-0.589,0 -1.15,0.33 -1.69,1.007c0.525,12.941 1.288,20.437 2.303,22.486c1.007,2.051 2.683,2.964 5.014,2.741V49.987z" id="path_7"/><path fill="#000001" d="M29.174,18.416c0.309,0 0.532,0.842 0.676,2.532l1.683,2.862v0.173c0,0.755 -0.338,2.107 -1.014,4.043l1.014,11.466v4.043c-0.366,2.338 -1.711,4.64 -4.05,6.913c-2.33,1.798 -4.409,2.697 -6.236,2.697H20.24c-4.892,0 -8.042,-2.417 -9.445,-7.244l-0.338,-3.035c0,-3.122 1.353,-5.877 4.05,-8.266h0.166l0.338,0.339c0,0.618 -0.784,2.136 -2.359,4.553c-0.339,0.871 -0.504,1.654 -0.504,2.359v0.173c0,2.863 2.302,4.941 6.913,6.236l2.021,0.166h0.338c3.259,0 6.122,-1.518 8.596,-4.554l0.166,-0.503c-1.346,-11.747 -2.021,-18.94 -2.021,-21.581v-0.338C28.16,20.213 28.498,19.207 29.174,18.416z" id="path_8"/><path fill="#000001" d="M20.851,14.2c1.727,0 2.59,1.065 2.59,3.188c0,3.381 -2.885,6.265 -8.661,8.639c-0.827,0.252 -0.928,-0.051 -0.295,-0.906c0.158,-0.323 1.519,-1.338 4.086,-3.035V21.94c-1.107,-0.453 -1.661,-1.417 -1.661,-2.892c0.733,-3.229 1.898,-4.849 3.496,-4.849H20.851L20.851,14.2zM18.276,17.847c0,0.899 0.763,1.453 2.28,1.669h0.295c0.562,0 0.921,-0.209 1.071,-0.611c0,-0.914 -0.661,-1.626 -1.978,-2.13C19.37,16.775 18.816,17.135 18.276,17.847z" id="path_9"/></svg>