<svg id="vector" xmlns="http://www.w3.org/2000/svg" width="75" height="67" viewBox="0 0 83 73"><path fill="#213877" d="M57.162,45.736c0.201,0.016 0.42,0.023 0.66,0.023h1.664c1.764,-0.293 3.105,-0.908 4.043,-1.846L61.422,27.21c0.525,-3.164 0.998,-4.739 1.402,-4.739l2.287,5.272c0,0.818 -0.291,2.047 -0.877,3.689l0.877,9.488v2.64c-0.66,2.798 -1.545,4.755 -2.654,5.865c-0.84,0.893 -1.822,1.343 -2.971,1.343h-1.492c-0.293,0 -0.57,-0.008 -0.832,-0.022V45.736z" id="path_0"/><path fill="#213877" d="M68.689,12.714c0.18,-0.105 0.232,0.06 0.158,0.486c-0.998,2.34 -2.527,3.976 -4.59,4.898l-7.584,3.803c-0.322,-0.09 -0.383,-0.354 -0.18,-0.795c1.012,-1.951 1.703,-3.105 2.07,-3.473L68.689,12.714z" id="path_1"/><path fill="#000001" d="M57.688,50.769l-1.98,-0.022c-1.096,4.822 -3.998,7.26 -8.701,7.319c-2.52,0.113 -3.779,0.067 -3.779,-0.135c0.232,-0.442 1.92,-1.29 5.055,-2.55c3.225,-2.048 5.168,-3.367 5.844,-3.952l0.18,-0.525l-3.076,-0.487c-2.242,-0.585 -3.502,-1.71 -3.779,-3.383v-0.353c0,-2.843 0.697,-4.657 2.107,-5.452l1.059,-0.173c2.076,0 3.771,1.447 5.092,4.351c0.84,0.292 1.5,0.435 1.98,0.42V50.769z" id="path_2"/><path fill="#000001" d="M49.533,26.596h1.74c2.107,0 3.166,0.788 3.166,2.37c-1.365,3.689 -3.023,5.647 -4.973,5.873l-2.303,0.307c-0.367,0 -0.518,-0.104 -0.465,-0.307c1.859,-0.982 3.6,-2.152 5.213,-3.496c-0.57,-0.532 -1.201,-0.795 -1.891,-0.795h-0.488l-1.889,0.158l-0.15,-0.158v-0.307C48.387,27.811 49.068,26.596 49.533,26.596z" id="path_3"/><path fill="#f06022" d="M34.332,25.156l0.18,0.181v0.173c-0.615,3.164 -1.965,4.747 -4.043,4.747c-2.609,0 -5.535,1.17 -8.789,3.518c-3.631,3.045 -5.453,6.502 -5.453,10.365c0,5.25 2.992,8.88 8.971,10.897l6.15,0.532l9.846,-0.705h1.928l0.18,0.173v0.18c0,0.675 -1.814,1.673 -5.451,2.985c-1.479,0.645 -4.523,1.35 -9.143,2.115c-6,0 -9.811,-1.53 -11.422,-4.575c-1.875,-2.753 -2.813,-5.978 -2.813,-9.668c0,-6.008 2.459,-11.16 7.379,-15.465h-3.863c-0.936,0 -2.105,0.817 -3.516,2.46l-0.354,-0.353v-0.352c1.17,-4.456 2.992,-6.684 5.453,-6.684C20.037,25.802 24.957,25.628 34.332,25.156z" id="path_4"/><path fill="#f06022" d="M35.982,44.936l0.18,0.157v0.479c-0.908,1.95 -2.176,3.315 -3.803,4.11c-5.041,2.737 -7.838,4.11 -8.393,4.11c-0.203,0 -0.307,-0.165 -0.307,-0.487c0.479,-1.86 1.537,-3.12 3.164,-3.78l9.008,-4.59H35.982z" id="path_5"/><path fill="#f06022" d="M34.729,40.983c0.211,0 0.309,0.15 0.309,0.458c-0.586,1.702 -2.318,3.232 -5.205,4.597l-6.66,3.646l-0.15,-0.157v-0.173c0.631,-2.228 1.635,-3.6 3.008,-4.109l7.432,-3.803L34.729,40.983z" id="path_6"/></svg>