<svg id="vector" xmlns="http://www.w3.org/2000/svg" width="75" height="67" viewBox="0 0 83 73"><path fill="#000001" d="M61.688,42.463c0.217,0 0.44,0 0.678,0h0.163c1.979,-0.121 3.781,-1.768 5.394,-4.939c1.749,-2.65 3.552,-3.971 5.401,-3.971c2.331,0 3.497,1.477 3.497,4.445v0.793c0,1.457 -0.583,3.361 -1.748,5.719l-1.111,0.793c-0.983,0 -3.253,-0.691 -6.831,-2.066c-1.085,1.625 -1.932,2.615 -2.542,2.961c-0.928,0.645 -1.877,0.914 -2.859,0.793h-0.041V42.463L61.688,42.463zM69.671,39.109v0.154c2.751,1.064 4.398,1.594 4.927,1.594c0.21,0 0.318,-0.162 0.318,-0.482c-0.61,-1.584 -1.62,-2.377 -3.022,-2.377C70.918,37.998 70.173,38.369 69.671,39.109z" id="path_0"/><path fill="#000001" d="M74.794,21.096c0.162,-0.094 0.21,0.055 0.143,0.441c-0.901,2.113 -2.284,3.592 -4.147,4.426l-6.852,3.436c-0.291,-0.082 -0.346,-0.318 -0.162,-0.719c0.914,-1.762 1.538,-2.805 1.87,-3.137L74.794,21.096z" id="path_1"/><path fill="#9e3b21" d="M39.549,40.973c1.301,0 2.249,0 2.859,0h0.637c1.904,-0.252 4.751,-1.064 8.539,-2.439c-1.274,-1.064 -3.232,-1.857 -5.876,-2.387c-1.565,0 -2.622,0.74 -3.178,2.223c-0.196,0.441 -0.373,0.557 -0.529,0.346c-0.148,-0.203 -0.189,-0.473 -0.108,-0.818c0.956,-3.207 2.224,-4.805 3.815,-4.805h1.111c1.058,0 2.969,0.596 5.727,1.789c2.758,1.186 5.137,1.666 7.136,1.43c0.251,0 0.359,0.156 0.318,0.475c-0.427,2.643 -1.22,3.971 -2.385,3.971l-0.793,0.156v0.318c0.399,1.098 2.229,1.498 5.503,1.191v4.508c-4.737,0.25 -7.103,-1.594 -7.089,-5.537c-1.694,0.25 -3.991,1.037 -6.892,2.371c-2.9,1.328 -5.828,1.898 -8.796,1.715V40.973z" id="path_2"/><path fill="#9e3b21" d="M47.471,46.115c2.223,1.111 3.341,2.068 3.341,2.859c-1.064,2.088 -1.694,3.152 -1.911,3.172h-0.318c-1.627,-0.82 -2.63,-1.559 -3.016,-2.223C45.938,48.725 46.576,47.451 47.471,46.115z" id="path_3"/><path fill="#9e3b21" d="M54.559,53.219c0.163,-0.09 0.21,0.053 0.143,0.439c-0.901,2.115 -2.284,3.592 -4.147,4.426l-6.852,3.436c-0.291,-0.082 -0.345,-0.318 -0.162,-0.711c0.914,-1.762 1.538,-2.807 1.87,-3.139L54.559,53.219z" id="path_4"/><path fill="#000001" d="M28.658,48.359c0.657,0 1.823,0.793 3.49,2.379c0,0.535 -0.631,1.693 -1.904,3.496h-0.318c-0.665,0 -1.668,-0.637 -3.016,-1.904v-0.162C26.91,51.537 27.492,50.264 28.658,48.359z" id="path_5"/><path fill="#000001" d="M34.371,47.566c2.649,1.139 3.971,2.033 3.971,2.697c-0.155,0.5 -0.895,1.613 -2.223,3.334c-1.775,-0.686 -3.043,-1.479 -3.809,-2.379C32.866,49.443 33.551,48.223 34.371,47.566z" id="path_6"/><path fill="#000001" d="M25.853,40.973c1.132,0.014 1.83,-0.008 2.107,-0.061c2.386,-0.727 4.012,-2.271 4.886,-4.623c0.129,-0.453 0.394,-0.508 0.793,-0.162c0.21,0.184 0.373,0.928 0.475,2.223c1.443,1.945 3.246,2.818 5.401,2.623h0.42V45.5h-0.102c-3.375,-0.156 -5.862,-1.695 -7.468,-4.609h-0.156c-1.125,2.373 -2.608,3.83 -4.445,4.371c-0.556,0.156 -1.192,0.238 -1.911,0.238V40.973z" id="path_7"/><path fill="#000001" d="M32.087,21.693h1.572c1.904,0 2.859,0.711 2.859,2.141c-1.232,3.334 -2.73,5.104 -4.492,5.307l-2.081,0.277c-0.332,0 -0.468,-0.096 -0.42,-0.277c1.681,-0.889 3.253,-1.945 4.71,-3.158c-0.516,-0.48 -1.084,-0.719 -1.708,-0.719h-0.44l-1.707,0.143l-0.136,-0.143v-0.277C31.05,22.791 31.667,21.693 32.087,21.693z" id="path_8"/><path fill="#213877" d="M26.307,45.52c-2.725,-0.184 -5.198,-1.674 -7.421,-4.465h-0.162c-0.949,5.502 -3.07,8.254 -6.35,8.26h-0.481c-1.423,-0.006 -2.806,-1.273 -4.127,-3.814c-1.058,-3.572 -1.586,-6.275 -1.586,-8.1v-1.273c0,-0.793 0.156,-1.219 0.475,-1.268c0.447,0.238 0.982,1.973 1.6,5.211c0.616,3.234 1.884,4.777 3.801,4.637c3.707,-0.611 5.666,-2.732 5.876,-6.357l-1.43,-4.92v-1.748c0.054,-2.121 0.264,-3.178 0.637,-3.178c0.21,0.475 0.373,0.955 0.475,1.43l2.223,6.986c1.748,2.832 3.91,4.174 6.472,4.012V45.52z" id="path_9"/><path fill="#f06022" d="M18.33,14.129c1.214,0 1.932,0.807 2.142,2.42v0.441c-0.224,2.697 -1.125,4.459 -2.697,5.279c-2.737,1.721 -5.225,2.58 -7.447,2.58c-0.081,-0.012 -0.155,-0.033 -0.237,-0.061c-0.081,-0.027 -0.143,-0.066 -0.189,-0.121c-0.048,-0.047 -0.041,-0.082 0.014,-0.096c0.115,-0.264 2.114,-1.32 5.99,-3.158v-0.143c-1.043,-0.656 -1.565,-1.564 -1.565,-2.717C14.962,15.6 16.291,14.129 18.33,14.129L18.33,14.129zM15.769,17.125v0.135c0,0.982 0.671,1.559 2.006,1.729h0.414c0.508,0 0.793,-0.143 0.854,-0.434c0,-1.334 -0.712,-2.006 -2.142,-2.006C16.148,16.719 15.769,16.916 15.769,17.125z" id="path_10"/><path fill="#f06022" d="M15.192,11.547c0.306,-0.148 0.448,-0.047 0.434,0.299c-1.531,1.695 -2.737,3.301 -3.611,4.826c-0.251,0.596 -0.394,1.084 -0.427,1.477c-0.034,0.393 0.067,0.813 0.312,1.26h0.298c0.115,-0.664 0.353,-0.996 0.712,-0.996c0.427,0.189 0.664,0.381 0.712,0.576v0.277c0.027,1.512 -0.4,2.42 -1.288,2.725h-0.712c-0.955,-0.189 -1.429,-1.287 -1.429,-3.301C10.192,16.244 11.858,13.865 15.192,11.547z" id="path_11"/></svg>