<svg id="vector" xmlns="http://www.w3.org/2000/svg" width="75" height="67" viewBox="0 0 83 73"><path fill="#009649" d="M51.702,43.891c0.367,0 0.75,0 1.147,0l0.878,-0.442c0.555,-1.14 1.38,-2.542 2.46,-4.216l-1.756,-13.537c0.586,-2.813 1.11,-4.215 1.583,-4.215l0.877,3.338c0.818,1.14 1.23,2.197 1.23,3.165c-0.585,1.08 -0.877,1.965 -0.877,2.632v0.354l0.352,5.625v0.885c1.815,-1.53 4.245,-2.363 7.29,-2.506c3.518,0.496 5.272,1.666 5.272,3.51v1.23c-0.585,2.61 -1.462,4.605 -2.632,5.979c-3.548,1.994 -7.44,3.059 -11.692,3.209h-1.936c-0.772,0 -1.508,0 -2.197,0V43.891L51.702,43.891zM55.13,43.981h0.353c5.362,-0.15 9.555,-1.102 12.569,-2.857c-1.372,-1.41 -2.37,-2.107 -2.984,-2.107h-1.41C59.645,39.159 56.802,40.817 55.13,43.981z" id="path_0"/><path fill="#009649" d="M71.277,20.296c0.18,-0.105 0.232,0.06 0.157,0.487c-0.997,2.34 -2.527,3.975 -4.59,4.897l-7.583,3.802c-0.322,-0.09 -0.382,-0.352 -0.18,-0.794c1.013,-1.95 1.702,-3.105 2.07,-3.474L71.277,20.296z" id="path_1"/><path fill="#000001" d="M37.646,52.096h0.705c2.311,1.313 3.48,2.078 3.511,2.279c-1.141,2.461 -1.905,3.751 -2.28,3.871c-1.32,0 -2.61,-0.646 -3.87,-1.936C35.944,55.051 36.59,53.649 37.646,52.096z" id="path_2"/><path fill="#000001" d="M43.797,51.211c1.117,0 2.46,0.765 4.042,2.287c0,0.615 -0.757,1.846 -2.287,3.689c-0.877,0 -2.167,-0.584 -3.862,-1.754C41.689,54.407 42.395,53.004 43.797,51.211z" id="path_3"/><path fill="#000001" d="M37.249,38.049h0.045c2.048,0 3.69,-0.698 4.92,-2.107l-0.172,-1.403c0,-1.732 0.353,-3.136 1.05,-4.223c0.322,0 0.795,2.993 1.41,8.963c0.705,3.226 3.157,4.718 7.357,4.485v5.01c-4.103,0.293 -6.96,-1.583 -8.588,-5.625c-0.262,-2.813 -0.555,-4.215 -0.877,-4.215c-0.69,2.662 -2.408,4.064 -5.146,4.191V38.049z" id="path_4"/><path fill="#FF6D00" d="M37.527,43.208c-0.158,0.015 -0.323,0.022 -0.48,0.022h-0.885c-1.373,0 -2.311,-0.112 -2.813,-0.352c-1.021,3.944 -2.213,6.359 -3.578,7.244s-4.447,1.635 -9.247,2.25h-0.353c-1.058,-0.119 -1.583,-0.293 -1.583,-0.525c0,-0.352 0.878,-0.765 2.633,-1.229c6.915,-3.165 10.372,-5.452 10.372,-6.854c0,-0.586 -0.817,-1.936 -2.459,-4.043c-0.354,-0.592 -0.525,-1.35 -0.525,-2.287v-1.756c0,-0.885 0.172,-1.35 0.525,-1.41c1.522,2.333 4.102,3.631 7.731,3.908c0.226,0 0.443,0 0.661,-0.016V43.208z" id="path_5"/><path fill="#f06022" d="M33.574,22.336l0.18,0.157v0.479c-0.915,1.951 -2.182,3.315 -3.802,4.111c-5.04,2.736 -7.838,4.109 -8.393,4.109c-0.21,0 -0.315,-0.165 -0.315,-0.488c0.487,-1.859 1.545,-3.119 3.165,-3.779l9.015,-4.59H33.574z" id="path_6"/><path fill="#f06022" d="M32.321,18.384c0.203,0 0.308,0.15 0.308,0.458c-0.585,1.702 -2.317,3.232 -5.205,4.597l-6.659,3.646l-0.15,-0.158v-0.172c0.63,-2.229 1.627,-3.601 3.008,-4.11l7.425,-3.803L32.321,18.384z" id="path_7"/><path fill="#FF6D00" d="M13.114,14.753c0.353,0 0.705,1.178 1.058,3.518l1.582,3.518l-0.705,4.042l0.525,9.848v1.575c-0.232,4.021 -0.817,6.36 -1.755,7.035l-0.173,-0.173l0.173,-2.64c0,-2.37 -0.766,-9.931 -2.288,-22.672C12.267,16.104 12.792,14.753 13.114,14.753z" id="path_8"/></svg>