<svg id="vector" xmlns="http://www.w3.org/2000/svg" width="75" height="67" viewBox="0 0 83 73"><path fill="#009649" d="M67.734,43.559h0.838c5.225,-0.101 8.693,-0.831 10.414,-2.207l0.336,-0.667c-0.223,-0.537 -0.502,-0.802 -0.838,-0.802c-0.811,0.451 -1.707,0.673 -2.688,0.673h-0.172c-2.91,-0.336 -4.422,-1.512 -4.529,-3.525v-0.172c0.279,-3.806 1.176,-5.705 2.688,-5.705h0.838c2.588,-0.129 4.551,1.885 5.877,6.042l0.164,1.684v0.337c-0.035,4.113 -1.512,6.83 -4.428,8.142c-1.033,0.659 -3.871,0.988 -8.5,0.988V43.559z" id="path_0"/><path fill="#009649" d="M75.123,22.374c1.82,0.56 3.391,1.455 4.701,2.688v0.165c0,0.702 -0.725,1.82 -2.18,3.361c-0.451,0 -1.963,-0.559 -4.535,-1.677v0.164c-0.896,1.734 -1.455,2.631 -1.686,2.688c-1.453,-0.308 -2.688,-0.981 -3.689,-2.014c0.674,-2.802 1.232,-4.199 1.676,-4.199c0.367,0 1.707,0.674 4.035,2.014C73.445,24.976 74.006,23.915 75.123,22.374z" id="path_1"/><path fill="#009649" d="M75.002,9.159c1.719,0 2.58,1.061 2.58,3.175c0,3.368 -2.875,6.241 -8.629,8.606c-0.824,0.252 -0.926,-0.05 -0.295,-0.902c0.158,-0.322 1.512,-1.333 4.07,-3.024V16.87c-1.104,-0.451 -1.654,-1.412 -1.654,-2.881c0.73,-3.218 1.891,-4.83 3.482,-4.83H75.002L75.002,9.159zM72.436,12.792c0,0.896 0.76,1.448 2.271,1.663h0.295c0.559,0 0.916,-0.208 1.066,-0.608c0,-0.91 -0.658,-1.621 -1.971,-2.122C73.525,11.725 72.973,12.083 72.436,12.792z" id="path_2"/><path fill="#009649" d="M67.748,48.36c-0.15,0.015 -0.309,0.021 -0.459,0.021h-0.846c-1.311,0 -2.207,-0.107 -2.688,-0.337c-0.975,3.77 -2.113,6.077 -3.418,6.924c-1.305,0.845 -4.25,1.562 -8.836,2.149h-0.338c-1.01,-0.114 -1.512,-0.279 -1.512,-0.502c0,-0.337 0.838,-0.73 2.516,-1.175c6.607,-3.024 9.912,-5.21 9.912,-6.551c0,-0.559 -0.781,-1.849 -2.352,-3.862c-0.336,-0.566 -0.502,-1.29 -0.502,-2.187v-1.677c0,-0.846 0.166,-1.29 0.502,-1.347c1.455,2.229 3.92,3.468 7.389,3.733c0.215,0 0.424,0 0.631,-0.015V48.36z" id="path_3"/><path fill="#009649" d="M64.201,28.101c0.172,-0.101 0.223,0.058 0.15,0.466c-0.953,2.236 -2.416,3.799 -4.387,4.68l-7.244,3.634c-0.309,-0.086 -0.367,-0.337 -0.174,-0.76c0.969,-1.863 1.627,-2.967 1.979,-3.318L64.201,28.101z" id="path_4"/><path fill="#9e3b21" d="M40.25,48.253c0.701,0 1.935,0.846 3.697,2.522c0,0.56 -0.674,1.792 -2.021,3.698h-0.328c-0.703,0 -1.771,-0.674 -3.197,-2.021v-0.165C38.4,51.614 39.018,50.274 40.25,48.253z" id="path_5"/><path fill="#9e3b21" d="M46.299,47.414c2.795,1.205 4.199,2.157 4.199,2.86c-0.172,0.53 -0.953,1.705 -2.35,3.525c-1.879,-0.73 -3.227,-1.569 -4.035,-2.522C44.701,49.407 45.432,48.117 46.299,47.414z" id="path_6"/><path fill="#9e3b21" d="M40.988,39.46c0.136,0 0.344,0 0.63,0h0.71c1.791,0 2.938,-0.452 3.447,-1.348v-0.337c-0.846,-2.938 -2.078,-5.611 -3.698,-8.02c0.193,-2.573 0.474,-3.862 0.839,-3.862c0.982,0.788 2.271,3.583 3.863,8.399l0.172,2.186v1.512c-0.537,4.143 -2.129,6.214 -4.788,6.214h-0.545c-0.301,0 -0.509,0.015 -0.63,0.043V39.46z" id="path_7"/><path fill="#9e3b21" d="M42.852,13.804h1.662c2.014,0 3.025,0.752 3.025,2.264c-1.305,3.526 -2.889,5.396 -4.752,5.611l-2.201,0.295c-0.351,0 -0.494,-0.102 -0.443,-0.295c1.777,-0.938 3.439,-2.057 4.98,-3.34c-0.545,-0.508 -1.146,-0.759 -1.807,-0.759h-0.465l-1.807,0.15l-0.143,-0.15v-0.294C41.755,14.964 42.406,13.804 42.852,13.804z" id="path_8"/><path fill="#000001" d="M32.087,27.807c0.953,0 2.243,0.788 3.862,2.351v0.337c-1.089,2.351 -1.82,3.525 -2.186,3.525L29.9,31.842h-0.164c-1.09,1.87 -1.82,2.881 -2.186,3.024h-0.165c-2.466,-1.097 -3.698,-1.936 -3.698,-2.523c0.896,-2.465 1.684,-3.697 2.351,-3.697l4.035,2.186C30.718,29.52 31.385,28.509 32.087,27.807z" id="path_9"/><path fill="#000001" d="M27.723,22.604c1.089,0 2.322,0.953 3.69,2.853c-0.365,0.867 -1.089,1.878 -2.179,3.024h-0.336c-0.982,-0.223 -2.043,-0.839 -3.197,-1.85V26.13C25.787,25.233 26.461,24.059 27.723,22.604z" id="path_10"/><path fill="#000001" d="M41.117,44.226h-0.652H40.3c-1.204,0.086 -2.493,-0.71 -3.862,-2.394c-0.537,2.021 -1.541,3.023 -3.024,3.023s-2.659,-0.838 -3.534,-2.515c-1.203,1.563 -2.321,2.351 -3.354,2.351h-1.348l-1.175,-0.172c0,2.493 -0.781,5.066 -2.351,7.726c-2.803,3.254 -5.712,4.873 -8.736,4.873c-5.231,0 -8.65,-2.745 -10.24,-8.228l-0.338,-3.533c0,-3.297 1.34,-6.213 4.027,-8.729c0.452,0.222 0.674,0.559 0.674,1.003c-1.906,2.638 -2.852,4.709 -2.852,6.221v0.667c0,3.697 2.121,6.213 6.378,7.561l2.688,0.337c3.978,0 7.06,-1.792 9.237,-5.375l0.172,-1.849c-1.454,-2.853 -2.186,-4.645 -2.186,-5.375v-0.502c0,-1.792 0.165,-2.688 0.502,-2.688c1.125,2.351 2.803,3.525 5.038,3.525c1.878,0 3.39,-1.175 4.536,-3.525h0.173c0.222,0 0.387,0.724 0.501,2.179c0.781,0.788 1.455,1.175 2.014,1.175h0.839c1.04,0 1.992,-1.282 2.859,-3.862l0.165,-0.165h0.172c0.223,2.057 1.118,3.211 2.688,3.461c0.473,-0.043 0.86,-0.043 1.154,-0.021V44.226z" id="path_11"/><path fill="#f06022" d="M34.58,55.377l0.173,0.15v0.459c-0.867,1.863 -2.079,3.167 -3.634,3.927c-4.816,2.616 -7.488,3.928 -8.02,3.928c-0.193,0 -0.294,-0.158 -0.294,-0.466c0.459,-1.777 1.47,-2.981 3.024,-3.612l8.607,-4.386H34.58z" id="path_12"/><path fill="#f06022" d="M33.384,51.6c0.2,0 0.294,0.144 0.294,0.438c-0.559,1.627 -2.215,3.089 -4.974,4.394l-6.364,3.482l-0.143,-0.15v-0.165c0.602,-2.128 1.563,-3.439 2.873,-3.927l7.103,-3.634L33.384,51.6z" id="path_13"/></svg>