<svg id="vector" xmlns="http://www.w3.org/2000/svg" width="75" height="67" viewBox="0 0 83 73"><path fill="#000001" d="M64.078,45.483c0.193,0.014 0.4,0.021 0.629,0.021h1.592c1.684,-0.279 2.967,-0.867 3.863,-1.764l-2.014,-15.959c0.502,-3.025 0.953,-4.529 1.34,-4.529l2.186,5.037c0,0.781 -0.279,1.957 -0.838,3.526l0.838,9.065v2.523c-0.631,2.673 -1.477,4.543 -2.537,5.604c-0.803,0.854 -1.742,1.283 -2.838,1.283h-1.426c-0.279,0 -0.545,-0.007 -0.795,-0.021V45.483z" id="path_0"/><path fill="#000001" d="M75.494,51.718c0.172,-0.093 0.221,0.058 0.15,0.467c-0.953,2.235 -2.416,3.798 -4.387,4.68l-7.246,3.633c-0.307,-0.086 -0.365,-0.336 -0.172,-0.752c0.969,-1.863 1.627,-2.967 1.979,-3.318L75.494,51.718z" id="path_1"/><path fill="#DD2C00" d="M64.516,50.292c-0.266,0 -0.588,0 -0.969,0c-1.498,-0.015 -3.109,-1.14 -4.852,-3.383c-0.666,2.466 -1.842,3.698 -3.525,3.698h-0.166c-1.426,0 -2.602,-0.839 -3.525,-2.522h-0.172c-1.004,2.021 -2.223,2.938 -3.654,2.752c-2.66,0.014 -4.236,-1.24 -4.744,-3.756c-1.871,2.193 -3.885,3.268 -6.027,3.211h-0.273v-4.787h0.086c3.391,-0.115 5.906,-1.27 7.561,-3.462c0.223,0 0.338,0.165 0.338,0.502L44.42,43.72c0.895,1.792 2.07,2.688 3.525,2.688c1.375,0 2.773,-1.34 4.199,-4.027h0.172l0.502,0.502v1.176c0,1.061 0.789,1.676 2.352,1.848h0.336c1.455,0 2.803,-1.454 4.035,-4.371h0.164c0.223,0 0.338,0.509 0.338,1.513c0.615,1.698 2.107,2.515 4.473,2.458V50.292z" id="path_2"/><path fill="#DD2C00" d="M57.104,26.42c0.172,-0.101 0.223,0.058 0.15,0.466c-0.953,2.236 -2.414,3.799 -4.385,4.68l-7.246,3.633c-0.309,-0.085 -0.365,-0.336 -0.172,-0.759c0.967,-1.863 1.627,-2.967 1.979,-3.318L57.104,26.42z" id="path_3"/><path fill="#213877" d="M37.539,50.292h-0.422c-4.057,0 -6.58,-2.852 -7.555,-8.564l-1.01,-16.297c0.422,-2.351 0.867,-3.69 1.348,-4.027h0.164c0.223,0 0.336,0.164 0.336,0.502c0,11.115 0.725,18.139 2.186,21.076c1.484,1.642 3.133,2.473 4.953,2.502V50.292z" id="path_4"/><path fill="#00C853" d="M20.883,26.147c1.656,0.53 2.947,1.204 3.863,2.014v0.337c0,0.56 -0.609,1.792 -1.842,3.698c-1.146,0 -2.436,-0.616 -3.863,-1.85v-0.336C19.041,28.807 19.658,27.517 20.883,26.147z" id="path_5"/><path fill="#00C853" d="M16.096,45.505c4.4,0.043 6.859,-0.781 7.396,-2.479c0,-0.588 -0.559,-2.043 -1.684,-4.364l0.508,-4.365h0.33c1.463,2.516 2.186,5.038 2.186,7.554v1.513c0,1.01 -0.242,2.07 -0.723,3.182s-1.227,2.049 -2.223,2.803c-1.004,0.76 -2.932,1.074 -5.791,0.945V45.505z" id="path_6"/><path fill="#f06022" d="M27.455,16.279l0.172,0.15v0.458c-0.873,1.863 -2.084,3.168 -3.633,3.928c-4.816,2.616 -7.488,3.928 -8.02,3.928c-0.201,0 -0.301,-0.158 -0.301,-0.467c0.465,-1.776 1.477,-2.98 3.023,-3.611l8.615,-4.386H27.455z" id="path_7"/><path fill="#f06022" d="M26.26,12.503c0.193,0 0.293,0.143 0.293,0.437c-0.559,1.627 -2.215,3.089 -4.973,4.394l-6.365,3.482l-0.143,-0.15V20.5c0.602,-2.128 1.555,-3.439 2.873,-3.927l7.096,-3.634L26.26,12.503z" id="path_8"/><path fill="#6200EA" d="M16.455,50.292c-3.262,0.193 -5.633,-1.312 -7.117,-4.516c-0.717,-1.189 -1.383,-9.209 -2.014,-24.059v-0.336c0.416,-2.465 1.031,-3.698 1.842,-3.698l0.846,-0.165c1.031,0 2.602,0.338 4.701,1.004v0.337c-0.115,0.337 -0.451,0.509 -1.01,0.509H10.85c-0.586,0 -1.146,0.33 -1.684,1.003c0.523,12.894 1.283,20.36 2.293,22.403c1.004,2.042 2.674,2.953 4.996,2.73V50.292z" id="path_9"/></svg>