<svg id="vector" xmlns="http://www.w3.org/2000/svg" width="75" height="67" viewBox="0 0 83 73"><path fill="#F4511E" d="M67.438,43.314h0.316c1.078,0.236 2.238,0.871 3.479,1.902v0.154c-0.715,2.158 -1.342,3.316 -1.895,3.479c-1.611,-0.316 -2.817,-0.842 -3.633,-1.584v-0.156C65.706,45.869 66.286,44.609 67.438,43.314z" id="path_0"/><path fill="#F4511E" d="M73.289,41.893h0.155c1.078,0.162 2.292,0.896 3.633,2.211v0.162l-1.895,3.316c-2.527,-0.814 -3.794,-1.504 -3.794,-2.057C72.204,43.105 72.837,41.893 73.289,41.893z" id="path_1"/><path fill="#F4511E" d="M66.036,36.09c4.139,0.039 6.451,-0.736 6.957,-2.334c0,-0.553 -0.525,-1.92 -1.585,-4.104l0.479,-4.105h0.31c1.375,2.365 2.056,4.738 2.056,7.104v1.424c0,0.949 -0.229,1.947 -0.681,2.992s-1.152,1.928 -2.09,2.637c-0.943,0.713 -2.757,1.01 -5.446,0.889V36.09z" id="path_2"/><path fill="#F4511E" d="M77.886,14.66c0.162,-0.096 0.21,0.053 0.143,0.438c-0.896,2.104 -2.271,3.572 -4.126,4.402l-6.815,3.416c-0.289,-0.08 -0.344,-0.316 -0.161,-0.713c0.909,-1.754 1.53,-2.791 1.86,-3.121L77.886,14.66z" id="path_3"/><path fill="#00897B" d="M66.73,40.592l-1.78,-0.02c-0.983,4.334 -3.592,6.523 -7.819,6.578c-2.265,0.102 -3.397,0.061 -3.397,-0.121c0.209,-0.398 1.727,-1.16 4.543,-2.291c2.899,-1.842 4.646,-3.027 5.252,-3.553l0.162,-0.473l-2.764,-0.438c-2.016,-0.525 -3.148,-1.537 -3.397,-3.041v-0.316c0,-2.555 0.626,-4.186 1.894,-4.9l0.951,-0.156c1.867,0 3.391,1.303 4.576,3.91c0.756,0.264 1.349,0.393 1.78,0.379V40.592z" id="path_4"/><path fill="#00897B" d="M59.403,18.865h1.563c1.894,0 2.845,0.709 2.845,2.131c-1.227,3.316 -2.717,5.076 -4.469,5.277l-2.07,0.277c-0.33,0 -0.465,-0.094 -0.418,-0.277c1.672,-0.883 3.236,-1.934 4.686,-3.141c-0.513,-0.479 -1.078,-0.715 -1.699,-0.715h-0.438l-1.699,0.143l-0.135,-0.143v-0.275C58.372,19.957 58.985,18.865 59.403,18.865z" id="path_5"/><path fill="#000001" d="M37.838,36.09c0.216,0 0.438,0 0.675,0h0.161c1.968,-0.123 3.762,-1.76 5.366,-4.916c1.738,-2.635 3.531,-3.949 5.372,-3.949c2.319,0 3.479,1.469 3.479,4.422v0.789c0,1.449 -0.58,3.344 -1.739,5.689l-1.105,0.789c-0.978,0 -3.236,-0.689 -6.795,-2.057c-1.078,1.617 -1.921,2.602 -2.527,2.945c-0.924,0.641 -1.867,0.91 -2.846,0.789h-0.04V36.09L37.838,36.09zM45.778,32.752v0.154c2.737,1.059 4.375,1.584 4.9,1.584c0.209,0 0.317,-0.16 0.317,-0.479c-0.606,-1.576 -1.61,-2.365 -3.007,-2.365C47.019,31.646 46.278,32.018 45.778,32.752z" id="path_6"/><path fill="#000001" d="M50.874,14.842c0.162,-0.094 0.21,0.053 0.143,0.438c-0.896,2.104 -2.271,3.572 -4.125,4.402L40.075,23.1c-0.289,-0.082 -0.343,-0.318 -0.161,-0.715c0.91,-1.752 1.53,-2.791 1.86,-3.121L50.874,14.842z" id="path_7"/><path fill="#213877" d="M30.679,41.082c1.456,0 2.926,0.734 4.402,2.197c0.142,0.25 0.088,0.445 -0.168,0.594c-0.257,0.141 -0.492,0.107 -0.701,-0.102c-0.635,-0.566 -1.531,-0.85 -2.684,-0.85H31.03c-0.486,0 -1.053,0.203 -1.699,0.613c0,1.188 1.422,1.914 4.268,2.191l2.824,-1.105l0.121,0.377c0,1.328 -1.631,2.514 -4.9,3.553l-4.523,2.568l-0.473,0.115c-0.182,0.039 -0.31,-0.035 -0.377,-0.236c0,-0.709 1.025,-1.691 3.061,-2.939v-0.121c-0.984,-0.539 -1.477,-1.314 -1.477,-2.332C28.313,42.592 29.257,41.082 30.679,41.082z" id="path_8"/><path fill="#213877" d="M24.511,36.09c1.126,0.012 1.82,-0.008 2.097,-0.063c2.372,-0.721 3.991,-2.258 4.86,-4.596c0.129,-0.453 0.391,-0.506 0.789,-0.162c0.209,0.182 0.371,0.924 0.471,2.211c1.437,1.934 3.229,2.805 5.373,2.609h0.418v4.502h-0.101c-3.357,-0.154 -5.831,-1.686 -7.429,-4.584h-0.155c-1.118,2.359 -2.595,3.809 -4.422,4.348c-0.553,0.156 -1.187,0.236 -1.901,0.236V36.09z" id="path_9"/><path fill="#213877" d="M36.894,47.982c0.162,-0.088 0.209,0.053 0.143,0.438c-0.896,2.104 -2.271,3.572 -4.126,4.402l-6.815,3.418c-0.289,-0.082 -0.344,-0.316 -0.162,-0.709c0.91,-1.752 1.531,-2.791 1.861,-3.121L36.894,47.982z" id="path_10"/><path fill="#FB8C00" d="M14.278,15.469c2.218,1.105 3.323,2.057 3.323,2.844c-1.059,2.084 -1.685,3.135 -1.901,3.162h-0.316c-1.617,-0.816 -2.615,-1.551 -3,-2.211C12.755,18.064 13.389,16.803 14.278,15.469z" id="path_11"/><path fill="#FB8C00" d="M24.963,40.611c-2.71,-0.182 -5.171,-1.664 -7.382,-4.441H17.42c-0.944,5.473 -3.054,8.211 -6.317,8.217h-0.478c-1.416,-0.006 -2.791,-1.268 -4.105,-3.795c-1.052,-3.553 -1.577,-6.242 -1.577,-8.055V31.27c0,-0.789 0.154,-1.213 0.472,-1.262c0.444,0.236 0.978,1.963 1.591,5.184c0.613,3.217 1.874,4.754 3.781,4.611c3.688,-0.605 5.636,-2.717 5.845,-6.322l-1.423,-4.895v-1.738c0.055,-2.111 0.264,-3.162 0.635,-3.162c0.209,0.473 0.37,0.951 0.471,1.422l2.212,6.951c1.739,2.816 3.89,4.152 6.438,3.99V40.611z" id="path_12"/><path fill="#f06022" d="M18.821,50.406l0.162,0.143v0.432c-0.816,1.752 -1.955,2.979 -3.418,3.693c-4.529,2.461 -7.044,3.693 -7.543,3.693c-0.182,0 -0.276,-0.148 -0.276,-0.438c0.432,-1.672 1.382,-2.805 2.845,-3.398l8.096,-4.125H18.821z" id="path_13"/><path fill="#f06022" d="M17.696,46.854c0.188,0 0.275,0.135 0.275,0.412c-0.525,1.529 -2.082,2.904 -4.678,4.133l-5.986,3.275l-0.135,-0.143v-0.154c0.566,-2.002 1.47,-3.236 2.703,-3.693l6.681,-3.418L17.696,46.854z" id="path_14"/></svg>