<svg id="vector" xmlns="http://www.w3.org/2000/svg" width="75" height="67" viewBox="0 0 83 73"><path fill="#213877" d="M62.653,49.167h0.338c1.146,0.251 2.379,0.924 3.697,2.021v0.165c-0.76,2.294 -1.426,3.526 -2.014,3.698c-1.713,-0.337 -2.996,-0.896 -3.863,-1.685v-0.164C60.812,51.883 61.429,50.543 62.653,49.167z" id="path_0"/><path fill="#213877" d="M68.874,47.654h0.166c1.146,0.173 2.436,0.953 3.861,2.352v0.172l-2.014,3.525c-2.688,-0.867 -4.033,-1.598 -4.033,-2.186C67.722,48.944 68.394,47.654 68.874,47.654z" id="path_1"/><path fill="#213877" d="M61.163,41.484c4.4,0.043 6.859,-0.781 7.396,-2.479c0,-0.588 -0.559,-2.043 -1.686,-4.364l0.51,-4.365h0.33c1.461,2.516 2.186,5.038 2.186,7.554v1.513c0,1.01 -0.244,2.071 -0.725,3.182s-1.225,2.05 -2.221,2.802c-1.004,0.76 -2.932,1.075 -5.791,0.946V41.484z" id="path_2"/><path fill="#213877" d="M73.763,18.702c0.172,-0.102 0.221,0.057 0.15,0.465c-0.953,2.236 -2.416,3.799 -4.387,4.68L62.28,27.48c-0.307,-0.086 -0.365,-0.337 -0.172,-0.76c0.969,-1.863 1.627,-2.967 1.979,-3.317L73.763,18.702z" id="path_3"/><path fill="#000001" d="M56.06,23.804c0.982,0.279 2.102,1.119 3.361,2.523c0,0.559 -0.73,1.791 -2.186,3.69l-3.697,-1.842c-0.926,1.763 -1.484,2.659 -1.678,2.688c-2.688,-1.232 -4.035,-2.243 -4.035,-3.024c0.926,-2.243 1.6,-3.418 2.021,-3.533h0.166c0.615,0 1.906,0.789 3.861,2.358h0.172C54.827,24.757 55.501,23.804 56.06,23.804z" id="path_4"/><path fill="#000001" d="M61.815,46.271h-0.043c-4.666,0.086 -7.676,-1.655 -9.053,-5.21c-1.104,3.519 -2.959,5.253 -5.561,5.21H47.03v-4.787h0.295c2.1,-0.28 3.496,-1.09 4.199,-2.437c-0.445,-1.032 -0.674,-1.985 -0.674,-2.853v-0.337c0.172,-2.351 0.508,-3.526 1.01,-3.526c0.279,0.251 0.559,1.255 0.84,3.024c0.924,2.351 2.379,4.114 4.371,5.289c1.469,0.674 3.045,0.946 4.744,0.817V46.271z" id="path_5"/><path fill="#000001" d="M59.716,50.722c0.172,-0.093 0.223,0.058 0.15,0.466c-0.953,2.236 -2.416,3.799 -4.387,4.681l-7.244,3.633c-0.309,-0.086 -0.367,-0.337 -0.174,-0.753c0.969,-1.862 1.627,-2.967 1.979,-3.317L59.716,50.722z" id="path_6"/><path fill="#213877" d="M35.284,49.296c0.695,0 1.928,0.839 3.691,2.516c0,0.566 -0.666,1.792 -2.014,3.698h-0.338c-0.701,0 -1.762,-0.674 -3.189,-2.014v-0.173C33.435,52.657 34.052,51.31 35.284,49.296z" id="path_7"/><path fill="#213877" d="M41.325,48.457c2.803,1.204 4.201,2.15 4.201,2.853c-0.166,0.53 -0.947,1.706 -2.352,3.526c-1.877,-0.724 -3.219,-1.563 -4.027,-2.516C39.735,50.442 40.458,49.152 41.325,48.457z" id="path_8"/><path fill="#213877" d="M32.317,41.484c1.197,0.015 1.936,-0.008 2.229,-0.064c2.523,-0.767 4.242,-2.401 5.168,-4.888c0.137,-0.48 0.416,-0.538 0.838,-0.172c0.223,0.193 0.395,0.981 0.502,2.351c1.525,2.057 3.432,2.981 5.711,2.773h0.445v4.787h-0.107c-3.568,-0.165 -6.199,-1.792 -7.898,-4.873H39.04c-1.189,2.508 -2.76,4.049 -4.701,4.622c-0.588,0.165 -1.262,0.251 -2.021,0.251V41.484z" id="path_9"/><path fill="#213877" d="M38.911,21.095h1.662c2.014,0 3.023,0.753 3.023,2.266c-1.303,3.525 -2.887,5.396 -4.75,5.61l-2.201,0.294c-0.352,0 -0.494,-0.1 -0.443,-0.294c1.777,-0.938 3.439,-2.057 4.98,-3.339c-0.545,-0.51 -1.146,-0.76 -1.807,-0.76h-0.465l-1.807,0.15l-0.143,-0.15v-0.294C37.813,22.257 38.466,21.095 38.911,21.095z" id="path_10"/><path fill="#9e3b21" d="M17.554,41.484h0.381c1.146,0 2.357,-0.444 3.633,-1.333s2.021,-2.007 2.25,-3.347l0.166,-0.172h0.164c0.201,0 0.48,0.616 0.846,1.849c1.592,2.186 3.834,3.189 6.715,3.024c0.193,0 0.395,-0.007 0.588,-0.021v4.809c-0.193,0.015 -0.395,0.021 -0.588,0.021l-2.35,-0.272c-0.252,2.236 -0.982,3.354 -2.188,3.361h-0.336c-2.236,-0.423 -3.354,-1.204 -3.354,-2.358l0.502,-3.023c-0.395,-0.444 -0.781,-0.667 -1.176,-0.667c-1.262,1.971 -3.01,2.945 -5.254,2.917V41.484z" id="path_11"/><path fill="#f06022" d="M30.634,20.823l0.172,0.15v0.458c-0.875,1.863 -2.086,3.168 -3.633,3.928c-4.816,2.615 -7.49,3.927 -8.02,3.927c-0.201,0 -0.303,-0.157 -0.303,-0.466c0.467,-1.777 1.477,-2.98 3.025,-3.611l8.613,-4.386H30.634z" id="path_12"/><path fill="#f06022" d="M29.437,17.046c0.193,0 0.295,0.143 0.295,0.438c-0.561,1.627 -2.215,3.088 -4.975,4.393l-6.363,3.483l-0.145,-0.15v-0.165c0.602,-2.129 1.557,-3.439 2.875,-3.928l7.094,-3.633L29.437,17.046z" id="path_13"/><path fill="#000001" d="M18.185,46.271c-3.26,0.193 -5.633,-1.312 -7.117,-4.515c-0.715,-1.19 -1.383,-9.21 -2.014,-24.059v-0.337c0.416,-2.466 1.033,-3.698 1.842,-3.698l0.846,-0.164c1.033,0 2.602,0.336 4.703,1.002v0.338c-0.115,0.336 -0.453,0.509 -1.012,0.509h-2.852c-0.588,0 -1.146,0.329 -1.686,1.003c0.523,12.893 1.283,20.36 2.295,22.403c1.002,2.042 2.672,2.952 4.994,2.73V46.271z" id="path_14"/></svg>