<svg id="vector" xmlns="http://www.w3.org/2000/svg" width="75" height="67" viewBox="0 0 83 73"><path fill="#F4511E" d="M47.691,46.441c0.367,0 1.834,0 2.232,0l0.877,-0.442c0.555,-1.141 1.381,-2.543 2.459,-4.215l-1.754,-13.537c0.586,-2.813 1.109,-4.216 1.582,-4.216l0.877,3.337c0.818,1.141 1.23,2.198 1.23,3.166c-0.584,1.08 -0.877,1.965 -0.877,2.633v0.352l0.352,5.625v0.885c1.816,-1.529 4.246,-2.361 7.291,-2.504c3.518,0.494 5.271,1.664 5.271,3.51v1.23c-0.584,2.609 -1.461,4.604 -2.631,5.977c-3.549,1.995 -7.441,3.061 -11.693,3.211h-1.936c-0.771,0 -2.592,0 -3.281,0V46.441L47.691,46.441zM52.203,46.531h0.354c5.361,-0.149 9.555,-1.103 12.568,-2.857c-1.371,-1.409 -2.369,-2.107 -2.984,-2.107h-1.41C56.719,41.708 53.875,43.366 52.203,46.531z" id="path_0"/><path fill="#F4511E" d="M68.352,22.846c0.18,-0.105 0.232,0.061 0.156,0.487c-0.996,2.34 -2.527,3.976 -4.59,4.897l-7.582,3.803c-0.322,-0.09 -0.383,-0.353 -0.18,-0.795c1.012,-1.95 1.701,-3.105 2.07,-3.473L68.352,22.846z" id="path_1"/><path fill="#009649" d="M36.057,54.024v-0.113c-4.809,-0.202 -7.209,-0.787 -7.209,-1.755v-2.812c0,-3.023 2.229,-5.303 6.684,-6.855l0.172,-0.18v-0.173c-1.432,-0.997 -2.723,-1.583 -3.863,-1.763h-0.18l-0.705,0.18c-0.465,-0.119 -0.697,-0.352 -0.697,-0.705c0,-2.58 1.635,-3.862 4.92,-3.862h1.584c4.799,0.008 7.207,0.893 7.207,2.633c-0.555,1.567 -1.441,3.09 -2.641,4.567v0.18c1.904,2.048 3.84,3.075 5.805,3.075h0.945v5.011h-0.771c-4.164,0 -7.268,-2.229 -9.316,-6.684h-0.18c-4.688,1.471 -7.027,2.521 -7.027,3.166v0.18l1.23,0.195l2.459,0.157c1.936,0 3.121,0.652 3.563,1.95l0.129,1.387c-0.188,0.787 -0.398,1.53 -0.639,2.221H36.057z" id="path_2"/><path fill="#009649" d="M36.273,26.094c1.904,0.75 3.195,1.507 3.869,2.287v0.172c-0.307,1.059 -1.012,2.408 -2.107,4.043c-1.041,0 -2.332,-0.758 -3.869,-2.28C34.383,29.213 35.088,27.811 36.273,26.094z" id="path_3"/><path fill="#009649" d="M37.525,9.069c1.41,2.4 2.115,4.748 2.115,7.027c-0.615,4.335 -1.381,6.502 -2.287,6.502l-0.174,-0.172v-0.173l0.346,-2.287v-0.18c0,-1.402 -0.584,-3.51 -1.754,-6.323v-0.352C36.355,10.411 36.941,9.069 37.525,9.069z" id="path_4"/><path fill="#000001" d="M37.525,53.809c-0.705,2.445 -3.246,4.986 -6.898,7.834c-2.082,1.625 -4.672,2.288 -7.553,2.288c-1.611,-0.368 -2.766,-0.735 -3.465,-1.095c-0.697,-0.367 -1.529,-1.178 -2.512,-2.423c-1.762,-2.34 -2.641,-4.507 -2.641,-6.503c0,-4.747 1.523,-8.55 4.576,-11.422c0.539,-0.383 0.771,-0.322 0.697,0.172c0,0.428 -0.877,2.07 -2.633,4.92c-0.705,1.426 -1.057,2.775 -1.057,4.043c0,1.822 1.289,3.811 3.869,5.978c1.83,1.013 3.811,1.319 5.979,1.229c2.539,-0.105 6.184,-1.504 9.965,-5.021H37.525z" id="path_5"/></svg>