<svg id="vector" xmlns="http://www.w3.org/2000/svg" width="75" height="67" viewBox="0 0 83 73"><path fill="#000001" d="M63.985,44.286c0.229,0 0.466,0 0.717,0h0.172c2.093,-0.129 3.999,-1.87 5.705,-5.224c1.849,-2.803 3.755,-4.2 5.712,-4.2c2.465,0 3.697,1.563 3.697,4.701v0.839c0,1.541 -0.616,3.555 -1.849,6.049l-1.175,0.838c-1.04,0 -3.44,-0.73 -7.225,-2.186c-1.146,1.72 -2.042,2.766 -2.688,3.132c-0.981,0.681 -1.985,0.968 -3.024,0.839h-0.043V44.286L63.985,44.286zM72.428,40.739v0.165c2.91,1.125 4.651,1.684 5.21,1.684c0.223,0 0.337,-0.172 0.337,-0.509c-0.645,-1.677 -1.713,-2.516 -3.196,-2.516C73.746,39.563 72.958,39.957 72.428,40.739z" id="path_0"/><path fill="#000001" d="M73.209,18.602c1.72,0 2.58,1.061 2.58,3.174c0,3.369 -2.874,6.242 -8.629,8.607c-0.824,0.251 -0.924,-0.05 -0.294,-0.902c0.158,-0.322 1.513,-1.333 4.071,-3.025v-0.143c-1.104,-0.451 -1.656,-1.412 -1.656,-2.881c0.731,-3.218 1.893,-4.83 3.483,-4.83H73.209L73.209,18.602zM70.644,22.234c0,0.896 0.759,1.447 2.271,1.663h0.294c0.559,0 0.917,-0.208 1.068,-0.609c0,-0.91 -0.66,-1.62 -1.972,-2.121C71.732,21.167 71.181,21.525 70.644,22.234z" id="path_1"/><path fill="#9e3b21" d="M40.572,42.709c1.376,0 2.379,0 3.024,0h0.673c2.015,-0.264 5.024,-1.125 9.03,-2.579c-1.348,-1.126 -3.418,-1.964 -6.214,-2.522c-1.655,0 -2.773,0.781 -3.36,2.35c-0.208,0.467 -0.395,0.588 -0.56,0.366c-0.157,-0.215 -0.2,-0.501 -0.114,-0.867c1.011,-3.39 2.351,-5.081 4.034,-5.081h1.176c1.118,0 3.139,0.631 6.056,1.893c2.917,1.254 5.433,1.762 7.547,1.512c0.265,0 0.38,0.164 0.337,0.502c-0.452,2.795 -1.29,4.199 -2.523,4.199l-0.838,0.165v0.337c0.423,0.881 2.357,1.305 5.819,1.262v4.766c-5.01,0.265 -7.511,-1.685 -7.496,-5.855c-1.792,0.265 -4.222,1.096 -7.289,2.508c-3.067,1.404 -6.163,2.007 -9.302,1.813V42.709z" id="path_2"/><path fill="#9e3b21" d="M55.751,49.611c0.172,-0.094 0.222,0.057 0.15,0.465c-0.953,2.236 -2.415,3.799 -4.386,4.681l-7.246,3.634c-0.308,-0.086 -0.365,-0.337 -0.172,-0.753c0.968,-1.863 1.627,-2.967 1.979,-3.317L55.751,49.611z" id="path_3"/><path fill="#000001" d="M38.437,55.667c-0.702,0 -1.935,-0.846 -3.698,-2.522c0,-0.559 0.674,-1.792 2.014,-3.698h0.337c0.703,0 1.764,0.674 3.196,2.021v0.166C40.285,52.306 39.669,53.646 38.437,55.667z" id="path_4"/><path fill="#000001" d="M32.388,56.506c-2.802,-1.205 -4.199,-2.157 -4.199,-2.859c0.172,-0.531 0.953,-1.706 2.351,-3.526c1.877,0.731 3.218,1.569 4.034,2.522C33.986,54.514 33.255,55.803 32.388,56.506z" id="path_5"/><path fill="#000001" d="M41.733,47.497c-4.106,0 -6.156,-1.698 -6.156,-5.103c-0.05,-0.137 -0.107,-0.137 -0.165,0c0,1.526 -1.734,2.867 -5.21,4.035c-1.677,0.443 -2.781,0.709 -3.318,0.781c-0.53,0.078 -2.394,0.172 -5.583,0.286c-1.046,0.015 -2.192,-0.101 -3.418,-0.337c-1.232,-0.236 -2.114,-0.738 -2.652,-1.498c-0.53,-0.767 0.889,-1.283 4.265,-1.555c3.375,-0.272 5.053,-0.395 5.038,-0.365c5.619,-0.717 8.958,-1.785 10.04,-3.197c1.369,-2.156 2.157,-2.938 2.352,-2.35c0.042,0.279 -0.015,0.615 -0.173,1.01c0,2.143 1.405,3.348 4.2,3.634c0.215,-0.028 0.473,-0.015 0.781,0.036V47.497z" id="path_6"/><path fill="#000001" d="M33.728,24.277h1.663c2.014,0 3.024,0.752 3.024,2.264c-1.305,3.526 -2.889,5.396 -4.752,5.612l-2.2,0.294c-0.351,0 -0.494,-0.101 -0.443,-0.294c1.776,-0.938 3.439,-2.058 4.98,-3.34c-0.545,-0.509 -1.146,-0.76 -1.806,-0.76h-0.467l-1.806,0.151l-0.144,-0.151V27.76C32.632,25.438 33.283,24.277 33.728,24.277z" id="path_7"/><path fill="#009649" d="M10.408,18.271h0.329c0.365,0.559 1.097,2.408 2.186,5.54l-1.003,4.199l0.502,8.063l-0.337,1.348h0.164c1.993,-2.129 4.387,-3.196 7.182,-3.196h0.172c2.881,0 4.565,1.348 5.038,4.035c0,3.92 -1.569,6.607 -4.701,8.063c0,0.415 -3.741,0.81 -11.216,1.175l-5.712,-0.502v-0.509c0,-0.443 1.741,-1.061 5.21,-1.842l2.351,-5.375v-2.357L9.397,22.299C9.397,21.683 9.734,20.342 10.408,18.271L10.408,18.271zM10.572,43.971c5.991,-0.674 9.726,-1.348 11.209,-2.014l1.183,-0.846c-1.154,-1.677 -2.831,-2.516 -5.045,-2.516h-1.635c-1.677,0 -3.469,1.455 -5.375,4.365L10.572,43.971z" id="path_8"/><path fill="#f06022" d="M22.728,17.412c1.282,0 2.042,0.852 2.265,2.559v0.465c-0.237,2.853 -1.19,4.716 -2.853,5.583c-2.896,1.82 -5.525,2.73 -7.877,2.73c-0.085,-0.015 -0.164,-0.036 -0.25,-0.064s-0.151,-0.071 -0.201,-0.129c-0.05,-0.05 -0.043,-0.086 0.015,-0.101c0.122,-0.279 2.236,-1.397 6.335,-3.34v-0.15c-1.104,-0.695 -1.655,-1.655 -1.655,-2.873C19.165,18.967 20.57,17.412 22.728,17.412L22.728,17.412zM20.018,20.579v0.144c0,1.039 0.71,1.648 2.122,1.827h0.437c0.538,0 0.839,-0.15 0.903,-0.458c0,-1.412 -0.752,-2.121 -2.265,-2.121C20.42,20.149 20.018,20.357 20.018,20.579z" id="path_9"/><path fill="#f06022" d="M19.409,14.682c0.322,-0.158 0.473,-0.051 0.458,0.314c-1.619,1.792 -2.895,3.49 -3.819,5.104c-0.266,0.631 -0.416,1.146 -0.451,1.562c-0.036,0.416 0.071,0.86 0.329,1.333h0.315c0.122,-0.702 0.373,-1.053 0.753,-1.053c0.451,0.2 0.702,0.4 0.752,0.608v0.294c0.029,1.598 -0.423,2.559 -1.361,2.881h-0.753c-1.011,-0.201 -1.512,-1.361 -1.512,-3.49C14.12,19.647 15.883,17.132 19.409,14.682z" id="path_10"/></svg>