<svg id="vector" xmlns="http://www.w3.org/2000/svg" width="75" height="67" viewBox="0 0 83 73"><path fill="#000001" d="M66.411,26.574c0.702,0 1.928,0.84 3.698,2.523c0,0.559 -0.674,1.791 -2.021,3.691h-0.337c-0.695,0 -1.763,-0.674 -3.188,-2.014v-0.174C64.563,29.936 65.179,28.588 66.411,26.574z" id="path_0"/><path fill="#000001" d="M72.46,25.736c2.795,1.203 4.199,2.158 4.199,2.852c-0.172,0.531 -0.953,1.713 -2.357,3.527c-1.871,-0.725 -3.219,-1.563 -4.027,-2.516C70.862,27.721 71.593,26.432 72.46,25.736z" id="path_1"/><path fill="#000001" d="M68.425,20.863c2.58,1.068 3.863,1.963 3.863,2.688l-2.179,3.361h-0.173c-0.473,0 -1.762,-0.674 -3.862,-2.014C67.113,22.211 67.895,20.863 68.425,20.863z" id="path_2"/><path fill="#000001" d="M45.922,41.633c2.121,0.014 4.909,-0.252 8.356,-0.781h0.164c2.91,-0.475 5.935,-1.879 9.073,-4.201c0.28,-1.232 0.56,-1.848 0.839,-1.848h0.164c0.424,0.258 0.424,0.98 0,2.186c0.646,2.35 1.764,3.525 3.361,3.525c1.57,0 2.466,-1.283 2.688,-3.863c0,-0.443 0.223,-0.779 0.674,-1.002c0.223,0 0.387,0.559 0.502,1.676c0.702,1.57 1.541,2.424 2.522,2.559h0.337c0.559,0.029 1.004,-0.266 1.34,-0.881l0.086,-2.602c-0.028,-1.619 0.107,-2.438 0.416,-2.438c0.537,0 0.867,1.627 1.011,4.875c-0.144,2.307 -0.702,3.934 -1.677,4.873c-0.423,0.443 -0.982,0.666 -1.685,0.666c-0.53,0.1 -1.039,0.043 -1.534,-0.18c-0.486,-0.215 -0.981,-0.824 -1.49,-1.834c-0.107,-0.416 -0.223,-0.416 -0.336,0c-0.316,0.881 -0.847,1.504 -1.584,1.855c-0.732,0.359 -1.384,0.48 -1.943,0.373c-2.178,-0.215 -3.469,-1.512 -3.862,-3.906c-2.321,1.541 -4.335,2.602 -6.048,3.189c-4.588,1.061 -8.199,1.211 -10.83,0.451c-2.629,-0.76 -3.912,-1.404 -3.841,-1.928C42.689,41.869 43.793,41.617 45.922,41.633z" id="path_3"/><path fill="#000001" d="M73.355,9.354c0.173,-0.1 0.222,0.057 0.151,0.465c-0.953,2.236 -2.416,3.799 -4.387,4.68l-7.245,3.635c-0.308,-0.086 -0.366,-0.338 -0.173,-0.76c0.969,-1.863 1.627,-2.967 1.979,-3.318L73.355,9.354z" id="path_4"/><path fill="#9e3b21" d="M53.726,43.725c0.574,1.025 0.889,1.627 0.947,1.807l0.078,1.369c-0.015,2.422 -0.337,4.092 -0.982,5.016c-0.645,0.924 -1.461,1.391 -2.457,1.404c-2.158,0 -4.394,-1.734 -6.723,-5.203c-0.401,-0.688 -0.796,-1.584 -1.176,-2.688h-1.677c-0.38,0 -0.738,-0.021 -1.089,-0.064v-4.809c0.516,0.115 1.046,0.166 1.591,0.166h0.673c0.926,-3.584 2.494,-6.271 4.702,-8.063c1.146,-0.896 2.214,-1.342 3.196,-1.342c1.512,0 2.408,1.119 2.688,3.361c0.444,2.252 -0.058,4.594 -1.512,7.031L53.726,43.725L53.726,43.725zM46.272,45.258c1.146,2.021 2.824,3.139 5.039,3.361c1.117,-0.1 1.849,-0.486 2.186,-1.176c-0.101,-1.354 -0.882,-2.178 -2.352,-2.465c-1.476,-0.287 -2.651,-0.387 -3.539,-0.287C46.718,44.793 46.272,44.979 46.272,45.258L46.272,45.258zM44.589,40.055c-0.122,0.373 0.043,0.545 0.509,0.502c2.128,0 4.249,-0.953 6.378,-2.852v-0.172c-0.473,-1.119 -1.089,-1.678 -1.842,-1.678C47.964,35.641 46.287,37.045 44.589,40.055z" id="path_5"/><path fill="#9e3b21" d="M56.644,54.896c0.172,-0.092 0.222,0.059 0.15,0.467c-0.953,2.236 -2.416,3.799 -4.387,4.68l-7.245,3.633c-0.308,-0.086 -0.366,-0.336 -0.173,-0.752c0.969,-1.863 1.627,-2.967 1.979,-3.318L56.644,54.896z" id="path_6"/><path fill="#000001" d="M29.316,48.369c0.695,0 1.929,0.838 3.69,2.516c0,0.566 -0.666,1.791 -2.014,3.697h-0.336c-0.703,0 -1.764,-0.674 -3.189,-2.014v-0.172C27.468,51.73 28.084,50.383 29.316,48.369z" id="path_7"/><path fill="#000001" d="M35.358,47.529c2.802,1.205 4.199,2.15 4.199,2.854c-0.164,0.529 -0.945,1.705 -2.351,3.525c-1.878,-0.723 -3.218,-1.563 -4.028,-2.516C33.767,49.516 34.491,48.225 35.358,47.529z" id="path_8"/><path fill="#000001" d="M26.35,40.557c1.196,0.016 1.935,-0.006 2.229,-0.064c2.521,-0.766 4.242,-2.4 5.166,-4.887c0.137,-0.48 0.416,-0.539 0.839,-0.172c0.222,0.193 0.395,0.98 0.501,2.35c1.527,2.057 3.434,2.982 5.713,2.773h0.444v4.787h-0.107c-3.569,-0.164 -6.2,-1.791 -7.897,-4.873h-0.166c-1.189,2.508 -2.759,4.049 -4.701,4.623c-0.587,0.164 -1.261,0.25 -2.021,0.25V40.557z" id="path_9"/><path fill="#000001" d="M32.942,20.168h1.663c2.014,0 3.024,0.752 3.024,2.264c-1.305,3.527 -2.889,5.398 -4.752,5.611l-2.199,0.295c-0.352,0 -0.495,-0.1 -0.445,-0.295c1.777,-0.938 3.44,-2.057 4.981,-3.338c-0.545,-0.51 -1.147,-0.76 -1.806,-0.76h-0.467l-1.806,0.15l-0.144,-0.15V23.65C31.847,21.328 32.499,20.168 32.942,20.168z" id="path_10"/><path fill="#9e3b21" d="M26.829,45.365c-2.881,-0.193 -5.496,-1.77 -7.848,-4.723H18.81c-1.003,5.82 -3.246,8.73 -6.715,8.736h-0.509c-1.505,-0.006 -2.967,-1.348 -4.364,-4.035c-1.118,-3.775 -1.678,-6.635 -1.678,-8.563v-1.348c0,-0.84 0.166,-1.291 0.502,-1.34c0.474,0.25 1.039,2.084 1.691,5.51c0.652,3.42 1.992,5.053 4.021,4.902c3.92,-0.645 5.99,-2.889 6.213,-6.723L16.46,32.58v-1.848c0.057,-2.244 0.279,-3.361 0.674,-3.361c0.222,0.502 0.394,1.01 0.501,1.512l2.351,7.389c1.85,2.996 4.135,4.414 6.844,4.242V45.365z" id="path_11"/><path fill="#f06022" d="M18.395,12.17c1.282,0 2.042,0.854 2.265,2.559v0.465c-0.236,2.854 -1.189,4.717 -2.852,5.584c-2.896,1.82 -5.525,2.73 -7.877,2.73c-0.086,-0.014 -0.164,-0.037 -0.251,-0.064c-0.086,-0.029 -0.15,-0.072 -0.2,-0.129c-0.051,-0.051 -0.043,-0.086 0.014,-0.102c0.123,-0.279 2.236,-1.396 6.336,-3.34v-0.15c-1.104,-0.693 -1.656,-1.654 -1.656,-2.873C14.833,13.725 16.237,12.17 18.395,12.17L18.395,12.17zM15.686,15.338v0.143c0,1.039 0.71,1.648 2.122,1.828h0.437c0.538,0 0.839,-0.15 0.903,-0.459c0,-1.412 -0.753,-2.121 -2.266,-2.121C16.087,14.908 15.686,15.115 15.686,15.338z" id="path_12"/><path fill="#f06022" d="M15.077,9.439c0.322,-0.158 0.473,-0.051 0.458,0.314c-1.62,1.793 -2.896,3.49 -3.819,5.104c-0.266,0.631 -0.416,1.146 -0.452,1.563s0.071,0.859 0.33,1.332h0.315c0.121,-0.701 0.373,-1.053 0.752,-1.053c0.451,0.201 0.703,0.4 0.753,0.609v0.293c0.028,1.6 -0.423,2.559 -1.362,2.881H11.3c-1.011,-0.199 -1.512,-1.361 -1.512,-3.49C9.788,14.406 11.55,11.891 15.077,9.439z" id="path_13"/></svg>