<svg id="vector" xmlns="http://www.w3.org/2000/svg" width="75" height="67" viewBox="0 0 83 73"><path fill="#009649" d="M58.042,38.629c0.367,0 0.75,0 1.147,0l0.877,-0.441c0.556,-1.141 1.38,-2.543 2.46,-4.215l-1.755,-13.537c0.585,-2.813 1.11,-4.217 1.583,-4.217l0.877,3.338c0.817,1.141 1.23,2.197 1.23,3.166c-0.585,1.08 -0.878,1.965 -0.878,2.633v0.352l0.353,5.625v0.885c1.815,-1.529 4.245,-2.361 7.29,-2.504c3.518,0.494 5.272,1.664 5.272,3.51v1.23c-0.585,2.609 -1.462,4.604 -2.632,5.977c-3.548,1.996 -7.44,3.061 -11.692,3.211h-1.936c-0.772,0 -1.508,0 -2.197,0V38.629L58.042,38.629zM61.469,38.719h0.354c5.362,-0.148 9.555,-1.102 12.569,-2.855c-1.372,-1.41 -2.37,-2.109 -2.984,-2.109h-1.41C65.984,33.896 63.142,35.555 61.469,38.719z" id="path_0"/><path fill="#009649" d="M77.617,15.027c0.18,-0.105 0.232,0.061 0.157,0.488c-0.998,2.34 -2.527,3.975 -4.59,4.896l-7.583,3.803c-0.322,-0.09 -0.382,-0.352 -0.18,-0.795c1.013,-1.949 1.702,-3.105 2.07,-3.473L77.617,15.027z" id="path_1"/><path fill="#000001" d="M58.784,43.641c-0.112,0 -0.232,0 -0.345,0h-1.583c-1.582,0 -3.404,-0.998 -5.452,-2.986c-3.518,1.928 -7.313,2.926 -11.385,2.986v-4.988c2.13,0.143 4.867,-0.301 8.22,-1.342v-0.174c-1.612,-1.057 -3.135,-1.582 -4.567,-1.582l-1.41,0.172l-0.353,-0.877c0.473,-3.164 1.822,-4.748 4.043,-4.748l2.813,-0.172c4.455,0.525 6.683,1.523 6.683,2.984v0.705l-1.058,3.518c0.854,1.035 2.317,1.539 4.395,1.492V43.641z" id="path_2"/><path fill="#000001" d="M55.642,15.096c0.181,-0.105 0.232,0.059 0.158,0.486c-0.998,2.34 -2.528,3.975 -4.591,4.898l-7.582,3.803c-0.322,-0.092 -0.383,-0.354 -0.181,-0.795c1.013,-1.951 1.703,-3.105 2.07,-3.473L55.642,15.096z" id="path_3"/><path fill="#2962FF" d="M40.462,43.641c-3.412,0.201 -5.895,-1.373 -7.447,-4.727c-0.75,-1.244 -1.447,-9.637 -2.107,-25.176v-0.354c0.435,-2.58 1.08,-3.869 1.927,-3.869l0.886,-0.174c1.08,0 2.723,0.354 4.92,1.051v0.352c-0.12,0.354 -0.473,0.533 -1.058,0.533h-2.985c-0.614,0 -1.199,0.346 -1.763,1.051c0.548,13.492 1.343,21.307 2.4,23.443c1.05,2.139 2.798,3.09 5.228,2.857V43.641z" id="path_4"/><path fill="#b84c9b" d="M23.85,30.236c2.678,0.293 4.08,1.703 4.192,4.238v0.818c-0.645,5.152 -1.755,7.732 -3.337,7.732h-0.173c-0.825,0 -2.933,-0.586 -6.33,-1.756c-1.492,3.457 -3.428,5.564 -5.806,6.322c-3.337,1.059 -5.385,1.582 -6.149,1.582H5.542c-0.263,-0.111 -0.375,-0.291 -0.345,-0.523c0.082,-0.264 1.604,-1.201 4.567,-2.813c5.272,-3.256 7.912,-6.008 7.912,-8.266c0.817,-3.135 1.988,-5.242 3.511,-6.322C21.981,30.65 22.867,30.313 23.85,30.236L23.85,30.236zM20.31,36.521c-0.03,0.076 -0.03,0.129 0,0.174l4.92,1.41c0.24,0.059 0.412,0 0.532,-0.18c0,-1.373 -1.117,-2.258 -3.345,-2.633h-0.173C21.539,35.293 20.895,35.697 20.31,36.521z" id="path_5"/><path fill="#f06022" d="M24.33,54.799l0.18,0.158v0.48c-0.908,1.949 -2.175,3.314 -3.803,4.109c-5.04,2.738 -7.838,4.109 -8.393,4.109c-0.202,0 -0.308,-0.164 -0.308,-0.486c0.48,-1.859 1.537,-3.121 3.165,-3.779l9.008,-4.592H24.33z" id="path_6"/><path fill="#f06022" d="M23.077,50.848c0.21,0 0.308,0.15 0.308,0.457c-0.585,1.703 -2.317,3.232 -5.205,4.598l-6.66,3.645l-0.149,-0.156v-0.174c0.629,-2.227 1.634,-3.6 3.007,-4.109l7.433,-3.803L23.077,50.848z" id="path_7"/></svg>