<svg id="vector" xmlns="http://www.w3.org/2000/svg" width="75" height="67" viewBox="0 0 83 73"><path fill="#009649" d="M49.791,44.123h0.684c2.316,-0.246 4.268,-1.65 5.85,-4.199c0.232,-0.525 0.465,-0.818 0.697,-0.877h0.18l0.525,0.531c-0.074,0.668 -0.188,1.141 -0.354,1.402c1.029,1.875 2.258,2.813 3.691,2.813l0.18,0.174c2.551,-5.625 5.414,-8.438 8.609,-8.438c2.551,0 4.426,1.057 5.625,3.164v1.059c0,6.441 -3.982,9.666 -11.955,9.666l-2.633,-0.172c-0.816,2.221 -1.35,3.338 -1.582,3.338l-0.172,-0.174v-0.18l0.525,-2.984v-0.354c-1.732,-0.967 -3.076,-2.316 -4.043,-4.041c-0.908,2.969 -2.85,4.402 -5.828,4.281V44.123L49.791,44.123zM63,44.318h0.352c3.982,0 7.381,-0.584 10.193,-1.754c0,-1.262 -1.17,-2.139 -3.512,-2.641H69.33C66.516,39.924 64.408,41.395 63,44.318z" id="path_0"/><path fill="#009649" d="M70.229,21.773c0.18,-0.105 0.232,0.061 0.158,0.488c-0.998,2.34 -2.527,3.975 -4.59,4.896l-7.584,3.803c-0.322,-0.09 -0.381,-0.352 -0.18,-0.795c1.014,-1.949 1.703,-3.105 2.07,-3.473L70.229,21.773z" id="path_1"/><path fill="#213877" d="M50.564,49.133l-1.98,-0.021c-1.096,4.822 -3.998,7.26 -8.699,7.32c-2.521,0.111 -3.78,0.066 -3.78,-0.135c0.232,-0.443 1.92,-1.291 5.055,-2.551c3.226,-2.047 5.167,-3.367 5.843,-3.953l0.18,-0.523l-3.074,-0.488c-2.243,-0.586 -3.503,-1.711 -3.78,-3.383v-0.352c0,-2.844 0.697,-4.658 2.107,-5.453l1.058,-0.172c2.076,0 3.771,1.447 5.092,4.35c0.84,0.293 1.5,0.436 1.98,0.42V49.133z" id="path_2"/><path fill="#213877" d="M49.086,25.336c0.182,-0.105 0.232,0.061 0.158,0.488c-0.998,2.34 -2.527,3.975 -4.59,4.896l-7.582,3.803c-0.322,-0.09 -0.383,-0.352 -0.181,-0.795c1.013,-1.949 1.703,-3.105 2.07,-3.473L49.086,25.336z" id="path_3"/><path fill="#000001" d="M31.515,19.598c0.352,0 0.704,1.178 1.057,3.518l1.583,3.518l-0.705,4.043l0.525,9.848v1.574c-0.232,4.021 -0.818,6.361 -1.756,7.035l-0.172,-0.172l0.172,-2.641c0,-2.369 -0.765,-9.93 -2.287,-22.672C30.667,20.949 31.191,19.598 31.515,19.598z" id="path_4"/><path fill="#f06022" d="M18.284,51.834c0.6,0 2.002,0.705 4.215,2.115c0,0.877 -0.697,2.279 -2.107,4.215c-2.813,-0.908 -4.215,-1.727 -4.215,-2.461C16.244,55.043 16.949,53.754 18.284,51.834z" id="path_5"/><path fill="#f06022" d="M14.062,44.123c4.604,0.045 7.178,-0.816 7.74,-2.594c0,-0.615 -0.585,-2.139 -1.763,-4.568l0.532,-4.566h0.345c1.53,2.631 2.288,5.271 2.288,7.904v1.582c0,1.059 -0.255,2.168 -0.758,3.33c-0.502,1.162 -1.282,2.145 -2.325,2.932c-1.05,0.797 -3.067,1.127 -6.06,0.99V44.123z" id="path_6"/><path fill="#f06022" d="M27.869,20.416l0.18,0.158v0.479c-0.915,1.951 -2.183,3.316 -3.803,4.111c-5.04,2.736 -7.837,4.109 -8.392,4.109c-0.211,0 -0.315,-0.164 -0.315,-0.488c0.487,-1.859 1.545,-3.119 3.165,-3.779l9.015,-4.59H27.869z" id="path_7"/><path fill="#f06022" d="M26.616,16.463c0.203,0 0.308,0.15 0.308,0.459c-0.585,1.701 -2.317,3.232 -5.205,4.596l-6.66,3.646l-0.149,-0.158v-0.172c0.63,-2.229 1.627,-3.6 3.008,-4.109l7.424,-3.803L26.616,16.463z" id="path_8"/><path fill="#D50000" d="M17.076,49.133c-3.412,0.203 -5.895,-1.371 -7.447,-4.725c-0.75,-1.244 -1.447,-9.637 -2.107,-25.178v-0.352c0.435,-2.58 1.08,-3.871 1.928,-3.871l0.885,-0.172c1.08,0 2.723,0.354 4.92,1.051v0.352c-0.12,0.354 -0.473,0.533 -1.058,0.533h-2.985c-0.614,0 -1.199,0.344 -1.762,1.049c0.547,13.494 1.342,21.309 2.399,23.445c1.05,2.139 2.798,3.09 5.228,2.857V49.133z" id="path_9"/></svg>