<svg id="vector" xmlns="http://www.w3.org/2000/svg" width="75" height="67" viewBox="0 0 83 73"><path fill="#213877" d="M67.912,53.908h0.339c1.15,0.251 2.388,0.928 3.711,2.028v0.165c-0.762,2.303 -1.431,3.539 -2.021,3.712c-1.72,-0.338 -3.007,-0.899 -3.878,-1.69v-0.165C66.063,56.634 66.682,55.289 67.912,53.908z" id="path_0"/><path fill="#213877" d="M74.156,52.39h0.165c1.151,0.173 2.446,0.957 3.878,2.359v0.173l-2.021,3.539c-2.697,-0.87 -4.05,-1.604 -4.05,-2.193C72.998,53.685 73.673,52.39 74.156,52.39z" id="path_1"/><path fill="#213877" d="M66.416,46.196c4.417,0.043 6.885,-0.784 7.424,-2.488c0,-0.59 -0.562,-2.051 -1.69,-4.382l0.511,-4.38h0.331c1.467,2.524 2.193,5.057 2.193,7.581v1.519c0,1.014 -0.244,2.078 -0.727,3.193c-0.481,1.115 -1.229,2.058 -2.229,2.813c-1.007,0.763 -2.942,1.079 -5.813,0.95V46.196z" id="path_2"/><path fill="#213877" d="M79.062,23.329c0.172,-0.102 0.223,0.057 0.15,0.467c-0.957,2.244 -2.424,3.813 -4.402,4.697l-7.272,3.647c-0.309,-0.086 -0.366,-0.338 -0.173,-0.763c0.972,-1.87 1.633,-2.978 1.985,-3.331L79.062,23.329z" id="path_3"/><path fill="#009649" d="M42.915,44.614c1.381,0 2.389,0 3.036,0h0.676c2.021,-0.267 5.043,-1.13 9.063,-2.59c-1.353,-1.13 -3.431,-1.972 -6.236,-2.532c-1.662,0 -2.784,0.784 -3.374,2.359c-0.208,0.468 -0.396,0.59 -0.561,0.366c-0.158,-0.215 -0.202,-0.503 -0.115,-0.87c1.014,-3.402 2.359,-5.1 4.05,-5.1h1.18c1.122,0 3.15,0.633 6.078,1.899c2.928,1.258 5.453,1.77 7.575,1.517c0.266,0 0.381,0.166 0.338,0.505c-0.453,2.805 -1.295,4.215 -2.532,4.215l-0.842,0.165v0.338c0.425,0.886 2.367,1.31 5.842,1.267v4.783c-5.028,0.267 -7.539,-1.69 -7.524,-5.877c-1.799,0.267 -4.237,1.101 -7.316,2.519c-3.078,1.409 -6.186,2.014 -9.337,1.819V44.614z" id="path_4"/><path fill="#009649" d="M51.324,27.228c2.359,1.18 3.547,2.194 3.547,3.035c-1.13,2.216 -1.799,3.346 -2.029,3.374h-0.338c-1.727,-0.87 -2.791,-1.661 -3.201,-2.359C49.698,29.997 50.375,28.645 51.324,27.228z" id="path_5"/><path fill="#009649" d="M57.899,16.668c0.173,-0.101 0.223,0.058 0.15,0.467c-0.956,2.245 -2.424,3.813 -4.402,4.698l-7.272,3.646c-0.309,-0.086 -0.366,-0.338 -0.173,-0.763c0.972,-1.87 1.634,-2.978 1.986,-3.33L57.899,16.668z" id="path_6"/><path fill="#009649" d="M42.958,49.419c-3.273,0.194 -5.654,-1.316 -7.144,-4.532c-0.719,-1.193 -1.388,-9.243 -2.021,-24.147V20.4c0.418,-2.475 1.036,-3.711 1.849,-3.711l0.85,-0.166c1.035,0 2.611,0.339 4.719,1.007v0.339c-0.115,0.338 -0.453,0.511 -1.015,0.511h-2.863c-0.589,0 -1.15,0.33 -1.69,1.007c0.525,12.941 1.288,20.437 2.302,22.486c1.008,2.05 2.684,2.964 5.015,2.741V49.419z" id="path_7"/><path fill="#FF6D00" d="M26.177,32.73h0.173c1.655,0 3.173,1.288 4.554,3.877l0.504,2.187c0.15,3.18 -0.756,5.604 -2.727,7.272c-1.979,1.677 -5.862,2.791 -11.668,3.353h-1.964c-7.524,-1.015 -11.293,-3.763 -11.293,-8.258c0.424,-2.784 1.208,-4.862 2.358,-6.244h0.339l0.338,0.338l-1.18,2.87v0.669c0,2.756 3.035,4.669 9.106,5.733l2.188,0.173c3.963,0 8.344,-0.957 13.148,-2.87v-0.165l-0.165,-0.504h-0.165l-1.856,0.331h-0.51c-1.878,0 -3.288,-0.784 -4.216,-2.359v-1.518C23.142,34.356 24.157,32.73 26.177,32.73z" id="path_8"/><path fill="#FF6D00" d="M19.603,26.155c1.208,0.224 2.445,0.899 3.712,2.021v0.338c-0.986,2.583 -1.662,3.878 -2.021,3.878c-1.885,-0.928 -3.064,-1.662 -3.547,-2.194V29.86C18.509,27.501 19.128,26.264 19.603,26.155z" id="path_9"/><path fill="#FF6D00" d="M18.071,13.186c1.727,0 2.59,1.065 2.59,3.187c0,3.382 -2.885,6.266 -8.661,8.64c-0.827,0.252 -0.928,-0.051 -0.295,-0.906c0.158,-0.324 1.518,-1.338 4.086,-3.035v-0.145c-1.107,-0.453 -1.662,-1.417 -1.662,-2.892c0.734,-3.229 1.899,-4.849 3.496,-4.849H18.071L18.071,13.186zM15.496,16.833c0,0.899 0.763,1.453 2.28,1.669h0.295c0.562,0 0.921,-0.209 1.071,-0.611c0,-0.914 -0.661,-1.626 -1.978,-2.13C16.589,15.761 16.035,16.121 15.496,16.833z" id="path_10"/></svg>