<svg id="vector" xmlns="http://www.w3.org/2000/svg" width="75" height="67" viewBox="0 0 83 73"><path fill="#9e3b21" d="M61.176,30.079c0.695,0 1.928,0.838 3.691,2.516c0,0.559 -0.667,1.791 -2.014,3.697h-0.337c-0.695,0 -1.764,-0.674 -3.189,-2.014v-0.172C59.327,33.433 59.943,32.093 61.176,30.079z" id="path_0"/><path fill="#9e3b21" d="M67.225,29.24c2.795,1.196 4.192,2.149 4.192,2.853c-0.164,0.529 -0.945,1.705 -2.351,3.525c-1.87,-0.723 -3.218,-1.569 -4.027,-2.516C65.627,31.226 66.351,29.935 67.225,29.24z" id="path_1"/><path fill="#9e3b21" d="M63.189,24.366c2.573,1.062 3.863,1.957 3.863,2.688l-2.186,3.361h-0.165c-0.473,0 -1.763,-0.673 -3.862,-2.021C61.871,25.707 62.66,24.366 63.189,24.366z" id="path_2"/><path fill="#9e3b21" d="M60.395,48.489c4.401,0.043 6.859,-0.78 7.396,-2.479c0,-0.588 -0.559,-2.043 -1.685,-4.365l0.509,-4.364h0.33c1.462,2.516 2.186,5.038 2.186,7.554v1.512c0,1.011 -0.243,2.072 -0.724,3.182c-0.48,1.111 -1.226,2.051 -2.222,2.803c-1.003,0.76 -2.931,1.075 -5.791,0.946V48.489z" id="path_3"/><path fill="#9e3b21" d="M64.702,11.825c1.72,0 2.58,1.061 2.58,3.175c0,3.368 -2.874,6.242 -8.629,8.607c-0.824,0.251 -0.925,-0.05 -0.294,-0.903c0.158,-0.322 1.513,-1.333 4.07,-3.024v-0.144c-1.104,-0.451 -1.655,-1.412 -1.655,-2.881c0.731,-3.218 1.893,-4.83 3.483,-4.83H64.702L64.702,11.825zM62.137,15.459c0,0.896 0.759,1.447 2.271,1.663h0.294c0.559,0 0.917,-0.209 1.067,-0.609c0,-0.91 -0.659,-1.62 -1.971,-2.121C63.226,14.392 62.674,14.749 62.137,15.459z" id="path_4"/><path fill="#213877" d="M52.34,55.126c0.573,0 1.921,0.674 4.035,2.014c0,0.839 -0.674,2.186 -2.021,4.035c-2.688,-0.874 -4.027,-1.655 -4.027,-2.357C50.397,58.193 51.064,56.961 52.34,55.126z" id="path_5"/><path fill="#213877" d="M46.227,48.489c1.196,0.016 1.935,-0.006 2.229,-0.064c2.522,-0.766 4.243,-2.4 5.167,-4.887c0.137,-0.48 0.416,-0.538 0.839,-0.172c0.222,0.193 0.395,0.981 0.502,2.35c1.526,2.058 3.433,2.982 5.712,2.773h0.444v4.788h-0.107c-3.569,-0.165 -6.199,-1.792 -7.898,-4.874h-0.164c-1.19,2.509 -2.76,4.05 -4.702,4.623c-0.587,0.165 -1.261,0.251 -2.021,0.251V48.489z" id="path_6"/><path fill="#213877" d="M54.124,24.991c1.72,0 2.58,1.061 2.58,3.174c0,3.369 -2.874,6.242 -8.629,8.607c-0.824,0.251 -0.925,-0.051 -0.294,-0.902c0.158,-0.323 1.513,-1.334 4.071,-3.025v-0.143c-1.104,-0.451 -1.656,-1.412 -1.656,-2.881c0.731,-3.219 1.893,-4.83 3.483,-4.83H54.124L54.124,24.991zM51.559,28.624c0,0.896 0.759,1.447 2.271,1.662h0.294c0.559,0 0.917,-0.207 1.068,-0.608c0,-0.91 -0.66,-1.62 -1.972,-2.122C52.647,27.556 52.096,27.915 51.559,28.624z" id="path_7"/><path fill="#000001" d="M46.649,53.277l-1.893,-0.022c-1.046,4.609 -3.819,6.938 -8.313,6.996c-2.408,0.107 -3.612,0.064 -3.612,-0.129c0.222,-0.424 1.835,-1.233 4.83,-2.438c3.082,-1.956 4.938,-3.218 5.583,-3.777l0.172,-0.501l-2.938,-0.466c-2.143,-0.559 -3.347,-1.635 -3.611,-3.232v-0.337c0,-2.716 0.666,-4.45 2.014,-5.21l1.01,-0.165c1.985,0 3.605,1.384 4.866,4.157c0.803,0.279 1.434,0.416 1.893,0.4V53.277z" id="path_8"/><path fill="#000001" d="M38.859,30.179h1.662c2.014,0 3.024,0.753 3.024,2.266c-1.304,3.525 -2.888,5.396 -4.751,5.611l-2.2,0.293c-0.352,0 -0.495,-0.1 -0.444,-0.293c1.777,-0.939 3.439,-2.058 4.98,-3.34c-0.545,-0.509 -1.146,-0.76 -1.806,-0.76h-0.466l-1.807,0.15l-0.143,-0.15v-0.294C37.763,31.341 38.415,30.179 38.859,30.179z" id="path_9"/><path fill="#009649" d="M29.815,43.996c1.003,1.011 1.956,3.189 2.852,6.55l0.173,2.188c0,3.947 -1.965,6.635 -5.885,8.062L25.78,60.96l-2.981,0.043l-2.896,-0.043l-0.165,-0.165v-0.172c0.358,-0.388 2.767,-1.563 7.217,-3.526c2.803,-1.591 4.314,-2.996 4.537,-4.199c-1.455,-3.104 -2.179,-4.895 -2.179,-5.375v-0.502C29.313,45.007 29.478,43.996 29.815,43.996z" id="path_10"/><path fill="#f06022" d="M31.449,33.118l0.172,0.15v0.458c-0.874,1.863 -2.086,3.168 -3.634,3.927c-4.815,2.617 -7.489,3.928 -8.02,3.928c-0.2,0 -0.301,-0.157 -0.301,-0.466c0.466,-1.777 1.477,-2.981 3.024,-3.612l8.614,-4.385H31.449z" id="path_11"/><path fill="#f06022" d="M30.252,29.341c0.193,0 0.294,0.143 0.294,0.438c-0.559,1.627 -2.215,3.088 -4.974,4.393l-6.364,3.482l-0.143,-0.15v-0.164c0.602,-2.129 1.555,-3.44 2.873,-3.928l7.096,-3.633L30.252,29.341z" id="path_12"/><path fill="#009649" d="M13.095,25.055c0.337,0 0.674,1.126 1.011,3.361l1.513,3.361l-0.674,3.862l0.501,9.41v1.505c-0.222,3.842 -0.78,6.077 -1.677,6.723l-0.165,-0.165l0.165,-2.522c0,-2.265 -0.73,-9.489 -2.186,-21.665C12.285,26.345 12.787,25.055 13.095,25.055z" id="path_13"/></svg>