<svg id="vector" xmlns="http://www.w3.org/2000/svg" width="75" height="67" viewBox="0 0 83 73"><path fill="#304FFE" d="M42.464,13.68l0.18,0.18c0,2.369 -1.875,4.83 -5.625,7.381c-2.197,0.936 -4.425,1.408 -6.683,1.408l-1.582,-0.18c-0.585,2.229 -0.998,3.346 -1.23,3.346c-0.263,0 -0.615,-0.938 -1.058,-2.813c-0.817,-1.117 -2.167,-2.52 -4.042,-4.223v-0.352c0.412,-2.342 0.885,-3.512 1.409,-3.512c2.288,2.461 5.101,3.691 8.438,3.691C36.141,18.607 39.539,16.965 42.464,13.68z" id="path_0"/><path fill="#009649" d="M54.238,53.533c0.442,0.031 0.893,0.045 1.343,0.045h0.524l2.197,-0.525c-0.524,-0.982 -0.787,-1.664 -0.787,-2.047c0,-5.625 1.815,-8.438 5.445,-8.438l1.41,-0.172c1.845,0.293 4.192,1.402 7.027,3.338l0.18,0.705l-0.18,0.172H70.7c-1.35,-0.938 -2.872,-1.402 -4.574,-1.402c-2.603,0 -4.771,0.758 -6.503,2.279v0.18c1.522,2.461 4.335,3.691 8.438,3.691c3.226,-1.17 5.333,-1.756 6.33,-1.756c-0.555,3.277 -1.612,4.92 -3.165,4.92c-6.944,2.693 -12.45,4.043 -16.522,4.043h-0.465V53.533z" id="path_1"/><path fill="#009649" d="M62.083,33.426c2.933,0.938 4.396,1.703 4.396,2.287v0.354c-0.998,2.58 -1.755,3.869 -2.28,3.869c-2.61,-1.146 -3.96,-1.904 -4.05,-2.287v-0.352C60.148,36.449 60.793,35.158 62.083,33.426z" id="path_2"/><path fill="#009649" d="M64.61,18.283c1.801,0 2.7,1.111 2.7,3.322c0,3.525 -3.008,6.533 -9.03,9.008c-0.862,0.264 -0.967,-0.053 -0.307,-0.945c0.164,-0.336 1.582,-1.395 4.26,-3.164v-0.15c-1.155,-0.473 -1.732,-1.477 -1.732,-3.016c0.765,-3.367 1.979,-5.055 3.645,-5.055H64.61L64.61,18.283zM61.926,22.086c0,0.938 0.795,1.516 2.377,1.74h0.308c0.585,0 0.961,-0.217 1.118,-0.637c0,-0.953 -0.69,-1.695 -2.063,-2.221C63.065,20.969 62.488,21.344 61.926,22.086z" id="path_3"/><path fill="#000001" d="M42.516,39.035c0.728,0 2.018,0.879 3.862,2.633c0,0.586 -0.697,1.875 -2.107,3.871h-0.353c-0.734,0 -1.845,-0.705 -3.337,-2.115v-0.172C40.581,42.547 41.226,41.145 42.516,39.035z" id="path_4"/><path fill="#000001" d="M48.839,38.15c2.932,1.26 4.395,2.258 4.395,2.994c-0.173,0.555 -0.99,1.783 -2.46,3.689c-1.965,-0.766 -3.367,-1.643 -4.215,-2.641C47.174,40.236 47.931,38.887 48.839,38.15z" id="path_5"/><path fill="#000001" d="M44.623,33.059c2.692,1.109 4.043,2.047 4.043,2.813l-2.288,3.51h-0.172c-0.503,0 -1.845,-0.697 -4.043,-2.107C43.243,34.461 44.068,33.059 44.623,33.059z" id="path_6"/><path fill="#000001" d="M39.411,53.557c1.252,0.014 2.024,-0.008 2.332,-0.068c2.64,-0.803 4.44,-2.512 5.407,-5.115c0.143,-0.502 0.436,-0.563 0.878,-0.18c0.232,0.203 0.412,1.027 0.525,2.461c1.598,2.152 3.592,3.119 5.978,2.902h0.465v5.01h-0.112c-3.735,-0.172 -6.488,-1.875 -8.266,-5.1h-0.173c-1.244,2.625 -2.887,4.236 -4.919,4.836c-0.615,0.174 -1.32,0.264 -2.115,0.264V53.557z" id="path_7"/><path fill="#000001" d="M51.471,22.641c0.181,-0.105 0.232,0.061 0.157,0.488c-0.997,2.34 -2.527,3.975 -4.59,4.896l-7.582,3.803c-0.322,-0.09 -0.383,-0.352 -0.181,-0.795c1.013,-1.949 1.703,-3.104 2.07,-3.473L51.471,22.641z" id="path_8"/><path fill="#304FFE" d="M39.456,58.566c-3.412,0.203 -5.896,-1.373 -7.447,-4.725c-0.75,-1.246 -1.448,-9.639 -2.107,-25.178v-0.354c0.435,-2.58 1.08,-3.869 1.927,-3.869l0.886,-0.172c1.079,0 2.722,0.352 4.92,1.049v0.354c-0.12,0.352 -0.473,0.531 -1.058,0.531h-2.985c-0.614,0 -1.2,0.346 -1.763,1.051c0.548,13.492 1.343,21.307 2.4,23.445c1.05,2.137 2.798,3.09 5.228,2.857V58.566z" id="path_9"/><path fill="#f06022" d="M16.957,48.014c1.62,0 3.255,0.811 4.897,2.438c0.157,0.277 0.098,0.496 -0.188,0.66c-0.285,0.158 -0.548,0.119 -0.78,-0.113c-0.705,-0.629 -1.702,-0.943 -2.992,-0.943h-0.548c-0.54,0 -1.17,0.232 -1.89,0.682c0,1.32 1.582,2.131 4.747,2.438l3.143,-1.23l0.135,0.42c0,1.479 -1.822,2.799 -5.452,3.953l-5.032,2.857l-0.525,0.135c-0.202,0.045 -0.345,-0.045 -0.42,-0.262c0,-0.795 1.14,-1.883 3.405,-3.277v-0.137c-1.095,-0.6 -1.643,-1.461 -1.643,-2.586C14.324,49.686 15.374,48.014 16.957,48.014z" id="path_10"/><path fill="#f06022" d="M21.569,35.797l0.18,0.156v0.48c-0.915,1.949 -2.183,3.314 -3.802,4.109c-5.04,2.738 -7.838,4.111 -8.393,4.111c-0.21,0 -0.315,-0.166 -0.315,-0.488c0.487,-1.859 1.545,-3.119 3.165,-3.779l9.015,-4.59H21.569z" id="path_11"/><path fill="#f06022" d="M20.316,31.844c0.203,0 0.308,0.15 0.308,0.457c-0.585,1.703 -2.317,3.232 -5.205,4.598l-6.66,3.645l-0.149,-0.156v-0.174c0.63,-2.227 1.627,-3.6 3.008,-4.109l7.425,-3.803L20.316,31.844z" id="path_12"/></svg>