<svg id="vector" xmlns="http://www.w3.org/2000/svg" width="75" height="67" viewBox="0 0 83 73"><path fill="#000001" d="M62.777,41.521c0.243,0.028 0.48,-0.101 0.717,-0.38c-0.444,-0.545 -0.674,-1.11 -0.674,-1.698V37.93c0.538,-4.923 2.494,-7.389 5.884,-7.389c1.706,0 3.555,0.896 5.54,2.688c0.731,0.279 1.118,0.56 1.175,0.839v0.165c0,0.258 -0.279,0.423 -0.838,0.509c0,-0.48 -1.455,-0.867 -4.365,-1.176h-0.673c-3.14,0.474 -4.701,1.312 -4.701,2.516c0,1.655 1.619,2.888 4.866,3.698l1.176,0.164c0.422,0 2.551,-1.061 6.385,-3.188h0.165l0.337,0.337c0,2.322 -2.572,4.845 -7.727,7.561c-3.669,1.118 -5.904,1.677 -6.715,1.677c-0.186,0 -0.365,-0.007 -0.552,-0.021V41.521z" id="path_0"/><path fill="#000001" d="M74.875,48.486c0.172,-0.093 0.222,0.058 0.15,0.466c-0.953,2.236 -2.415,3.799 -4.386,4.68l-7.246,3.634c-0.308,-0.086 -0.365,-0.337 -0.172,-0.753c0.968,-1.863 1.627,-2.967 1.979,-3.317L74.875,48.486z" id="path_1"/><path fill="#213877" d="M51.576,49.354c0.694,0 1.928,0.839 3.69,2.516c0,0.566 -0.666,1.792 -2.014,3.698h-0.336c-0.703,0 -1.764,-0.674 -3.189,-2.014v-0.172C49.728,52.715 50.343,51.367 51.576,49.354z" id="path_2"/><path fill="#213877" d="M57.618,48.516c2.801,1.204 4.199,2.149 4.199,2.852c-0.165,0.53 -0.946,1.706 -2.351,3.526c-1.878,-0.724 -3.218,-1.563 -4.028,-2.516C56.026,50.5 56.751,49.21 57.618,48.516z" id="path_3"/><path fill="#213877" d="M48.608,41.542c1.197,0.015 1.936,-0.007 2.229,-0.064c2.522,-0.767 4.243,-2.4 5.167,-4.888c0.137,-0.48 0.416,-0.537 0.838,-0.172c0.223,0.193 0.395,0.981 0.502,2.351c1.527,2.057 3.434,2.981 5.713,2.773h0.443v4.787h-0.107c-3.568,-0.164 -6.199,-1.792 -7.897,-4.873h-0.165c-1.189,2.509 -2.759,4.05 -4.701,4.622c-0.588,0.165 -1.262,0.251 -2.021,0.251V41.542z" id="path_4"/><path fill="#213877" d="M55.202,21.153h1.662c2.015,0 3.025,0.752 3.025,2.264c-1.305,3.526 -2.889,5.397 -4.752,5.612l-2.2,0.294c-0.351,0 -0.494,-0.101 -0.444,-0.294c1.777,-0.939 3.439,-2.057 4.98,-3.34c-0.545,-0.509 -1.146,-0.76 -1.805,-0.76h-0.467l-1.807,0.15l-0.143,-0.15v-0.294C54.106,22.313 54.758,21.153 55.202,21.153z" id="path_5"/><path fill="#9e3b21" d="M39.335,29.509c0.946,0 2.236,0.789 3.863,2.352v0.336c-1.097,2.352 -1.82,3.533 -2.186,3.533l-3.863,-2.186h-0.172c-1.09,1.878 -1.813,2.881 -2.179,3.024h-0.172c-2.458,-1.097 -3.69,-1.935 -3.69,-2.522c0.896,-2.466 1.677,-3.691 2.35,-3.691l4.028,2.179C37.96,31.223 38.634,30.212 39.335,29.509z" id="path_6"/><path fill="#9e3b21" d="M34.964,24.306c1.096,0 2.322,0.954 3.697,2.853c-0.365,0.867 -1.096,1.878 -2.186,3.024h-0.337c-0.974,-0.222 -2.042,-0.838 -3.188,-1.849v-0.502C33.036,26.937 33.702,25.761 34.964,24.306z" id="path_7"/><path fill="#9e3b21" d="M49.347,46.329c-0.265,0 -0.587,0 -0.967,0c-1.498,-0.015 -3.111,-1.14 -4.852,-3.382c-0.667,2.465 -1.842,3.697 -3.526,3.697h-0.165c-1.426,0 -2.602,-0.839 -3.525,-2.522h-0.173c-1.003,2.021 -2.222,2.938 -3.655,2.752c-2.658,0.015 -4.234,-1.239 -4.744,-3.755c-1.87,2.192 -3.885,3.268 -6.027,3.21H21.44v-4.787h0.086c3.39,-0.251 5.904,-1.404 7.561,-3.461c0.223,0 0.337,0.164 0.337,0.501l-0.172,1.176c0.896,1.791 2.071,2.688 3.526,2.688c1.375,0 2.773,-1.341 4.199,-4.028h0.172l0.502,0.502v1.176c0,1.061 0.788,1.677 2.351,1.849h0.337c1.455,0 2.802,-1.455 4.035,-4.371h0.164c0.223,0 0.337,0.509 0.337,1.512c0.616,1.419 2.107,2.236 4.472,2.458V46.329z" id="path_8"/><path fill="#9e3b21" d="M40.503,13.198c0.172,-0.101 0.223,0.057 0.15,0.465c-0.953,2.236 -2.414,3.799 -4.386,4.68l-7.245,3.635c-0.309,-0.086 -0.365,-0.338 -0.172,-0.76c0.967,-1.863 1.627,-2.967 1.979,-3.318L40.503,13.198z" id="path_9"/><path fill="#000001" d="M7.917,17.563h0.674c2.215,1.261 3.332,1.992 3.361,2.187c-1.098,2.35 -1.82,3.582 -2.186,3.697c-1.262,0 -2.495,-0.616 -3.699,-1.85C6.297,20.394 6.913,19.046 7.917,17.563z" id="path_10"/><path fill="#000001" d="M13.794,16.724c1.067,0 2.357,0.73 3.869,2.186c0,0.588 -0.73,1.764 -2.186,3.527c-0.838,0 -2.071,-0.56 -3.697,-1.678C11.78,19.776 12.454,18.43 13.794,16.724z" id="path_11"/><path fill="#000001" d="M22.071,46.329h-0.043c-3.219,0 -5.404,-1.569 -6.551,-4.701l-0.337,-1.347h-0.337c-0.25,0.896 -2.042,1.454 -5.375,1.684H8.591c-2.244,0 -3.361,-0.674 -3.361,-2.021v-1.512c0,-1.619 1.232,-3.634 3.697,-6.041c1.484,-1.125 3.161,-2.071 5.039,-2.86l-0.172,-0.501c0.615,-2.803 1.125,-4.2 1.512,-4.2c0.201,0.474 0.48,3.949 0.846,10.413c0.502,4.357 2.473,6.472 5.92,6.364V46.329L22.071,46.329zM7.243,36.59c0.645,0.444 1.713,0.667 3.196,0.667c1.455,-0.108 2.795,-0.388 4.028,-0.839l-0.338,-4.701h-0.164C9.486,33.845 7.243,35.465 7.243,36.59z" id="path_12"/><path fill="#f06022" d="M18.265,51.367l0.173,0.15v0.459c-0.867,1.863 -2.079,3.168 -3.634,3.928c-4.816,2.615 -7.488,3.927 -8.02,3.927c-0.193,0 -0.293,-0.157 -0.293,-0.466c0.458,-1.777 1.469,-2.981 3.023,-3.611l8.607,-4.387H18.265z" id="path_13"/><path fill="#f06022" d="M17.068,47.591c0.2,0 0.294,0.144 0.294,0.438c-0.559,1.626 -2.215,3.088 -4.974,4.393l-6.364,3.483l-0.143,-0.15v-0.165c0.602,-2.129 1.563,-3.44 2.873,-3.928l7.103,-3.633L17.068,47.591z" id="path_14"/></svg>