<svg id="vector" xmlns="http://www.w3.org/2000/svg" width="75" height="67" viewBox="0 0 83 73"><path fill="#FB8C00" d="M60.113,28.702h0.173l3.689,1.935v0.353c0,0.428 -0.705,1.77 -2.107,4.043c-2.152,-0.615 -3.383,-1.26 -3.69,-1.936L60.113,28.702z" id="path_0"/><path fill="#FB8C00" d="M66.615,27.651c1.553,0.818 2.782,1.636 3.69,2.461c-0.263,1.26 -1.088,2.602 -2.46,4.042h-0.18c-1.605,-0.675 -2.723,-1.44 -3.338,-2.288v-0.352C65.386,28.934 66.144,27.651 66.615,27.651z" id="path_1"/><path fill="#FB8C00" d="M61.868,22.199h0.173c0.982,0 2.272,0.877 3.869,2.639c0,0.556 -0.765,1.846 -2.287,3.863h-0.525c-2.077,-1.32 -3.135,-2.078 -3.165,-2.28v-0.18C59.933,25.29 60.578,23.939 61.868,22.199z" id="path_2"/><path fill="#FB8C00" d="M67.381,12.157c0.18,-0.105 0.232,0.06 0.157,0.487c-0.997,2.34 -2.527,3.975 -4.59,4.898l-7.583,3.802c-0.322,-0.09 -0.382,-0.352 -0.18,-0.794c1.013,-1.951 1.702,-3.105 2.07,-3.473L67.381,12.157z" id="path_3"/><path fill="#00897B" d="M53.237,50.386c-3.197,11.091 -22.922,13.235 -22.922,-0.415c0,-4.747 1.522,-8.55 4.575,-11.422c0.54,-0.383 0.772,-0.322 0.697,0.172c0,0.428 -0.878,2.07 -2.633,4.92c-0.705,1.426 -1.057,2.775 -1.057,4.043c0,1.822 1.289,3.811 3.869,5.978c1.83,1.013 3.812,1.319 5.978,1.229c2.514,-0.104 5.642,-0.97 9.369,-4.396c-4.196,-0.233 -6.475,-0.878 -6.826,-1.926c-0.247,-0.577 -0.367,-1.335 -0.353,-2.287c0.383,-2.551 1.088,-4.485 2.107,-5.798c1.527,-1.569 3.003,-2.776 4.425,-3.622c0.116,1.649 0.202,3.348 0.117,3.826c-1.419,0.519 -2.757,1.271 -4.01,2.256c-0.307,0.308 -0.6,0.66 -0.877,1.05c0,0.75 1.987,1.216 5.978,1.411c1.282,0.689 1.927,1.627 1.927,2.812C53.603,48.926 53.482,49.649 53.237,50.386z" id="path_4"/><path fill="#000001" d="M18.136,33.485c1.619,0 3.255,0.811 4.897,2.438c0.157,0.277 0.098,0.495 -0.188,0.66c-0.285,0.157 -0.548,0.119 -0.78,-0.113c-0.705,-0.629 -1.702,-0.944 -2.992,-0.944h-0.548c-0.54,0 -1.17,0.232 -1.89,0.683c0,1.32 1.582,2.13 4.747,2.438l3.143,-1.23l0.135,0.42c0,1.479 -1.822,2.798 -5.452,3.953l-5.032,2.857L13.65,44.78c-0.202,0.045 -0.345,-0.045 -0.42,-0.262c0,-0.796 1.14,-1.883 3.405,-3.278v-0.135c-1.096,-0.601 -1.643,-1.462 -1.643,-2.588C15.503,35.157 16.553,33.485 18.136,33.485z" id="path_5"/><path fill="#f06022" d="M25.017,52.016l0.18,0.158v0.48c-0.907,1.949 -2.175,3.314 -3.803,4.109c-5.039,2.737 -7.837,4.109 -8.392,4.109c-0.203,0 -0.308,-0.164 -0.308,-0.486c0.479,-1.86 1.537,-3.121 3.165,-3.78l9.007,-4.591H25.017z" id="path_6"/><path fill="#f06022" d="M24.646,46.864c0.21,0 0.308,0.15 0.308,0.457c-0.585,1.703 -2.317,3.233 -5.205,4.598l-6.66,3.646l-0.149,-0.157v-0.173c0.63,-2.228 1.634,-3.6 3.007,-4.11l7.433,-3.803L24.646,46.864z" id="path_7"/><path fill="#00897B" d="M40.035,31.808c1.353,-0.698 3.378,-1.735 6.076,-3.112c0.234,-0.277 0.346,-0.414 0.346,-0.414c-0.611,-0.734 -1.537,-1.123 -2.767,-1.16c-1.062,-0.037 -2.118,-0.056 -3.167,-0.056c0.723,-1.754 1.476,-2.977 2.247,-3.661c2.304,-0.192 4.138,0.036 5.515,0.685c0.581,0.691 0.71,1.364 0.401,2.025c-0.123,0.427 -0.488,1.229 -1.087,2.421c-0.58,0.957 -1.223,1.741 -1.939,2.353c-0.709,0.617 -1.654,1.044 -2.84,1.284c-2.063,0.328 -3.1,0.488 -3.112,0.488c-0.277,0 -0.414,-0.056 -0.414,-0.16C39.294,32.172 39.541,31.944 40.035,31.808z" id="path_8"/><path fill="#FB8C00" d="M50.585,40.688c0.968,-0.354 1.975,-0.6 3.018,-0.736c0.211,1.26 0.646,2.332 1.32,3.217c0.675,0.893 1.875,1.575 3.607,2.056h0.878c1.522,0 2.692,-0.99 3.518,-2.985c1.327,1.522 2.505,2.287 3.51,2.287h0.878c1.597,0 2.534,-1.934 2.813,-5.805c0.149,-2.43 -0.022,-3.66 -0.525,-3.689c-0.465,0.09 -0.758,1.38 -0.878,3.869c-0.232,0.788 -0.854,1.141 -1.859,1.051c-0.997,-0.09 -1.905,-0.787 -2.708,-2.107l0.346,-1.41c-0.113,-0.697 -0.293,-1.051 -0.525,-1.051c-0.263,0 -0.555,0.525 -0.878,1.583c-0.337,2.228 -1.447,3.338 -3.337,3.338h-0.18c-1.418,0 -2.708,-0.705 -3.863,-2.108v-0.524l0.346,-1.583c0,-0.473 -0.346,-0.705 -1.051,-0.705c-1.448,0.048 -2.964,0.54 -4.545,1.479C50.584,38.511 50.67,40.209 50.585,40.688z" id="path_9"/></svg>