<svg id="vector" xmlns="http://www.w3.org/2000/svg" width="75" height="67" viewBox="0 0 83 73"><path fill="#9e3b21" d="M69.711,17.627c0.336,0 0.672,1.125 1.01,3.361l1.512,3.361l-0.674,3.863l0.502,9.41v1.504c-0.221,3.842 -0.781,6.078 -1.678,6.723l-0.164,-0.164l0.164,-2.523c0,-2.266 -0.73,-9.488 -2.186,-21.664C68.9,18.918 69.402,17.627 69.711,17.627z" id="path_0"/><path fill="#9e3b21" d="M74.727,7.801c0.172,-0.1 0.223,0.059 0.15,0.467c-0.953,2.236 -2.414,3.799 -4.385,4.68l-7.246,3.633c-0.309,-0.086 -0.365,-0.336 -0.172,-0.76c0.967,-1.863 1.627,-2.967 1.979,-3.316L74.727,7.801z" id="path_1"/><path fill="#000001" d="M46.719,22.65c0.695,0 1.93,0.84 3.691,2.516c0,0.559 -0.666,1.793 -2.014,3.699h-0.336c-0.695,0 -1.764,-0.674 -3.189,-2.014V26.68C44.871,26.006 45.486,24.664 46.719,22.65z" id="path_2"/><path fill="#000001" d="M52.768,21.813c2.795,1.197 4.193,2.15 4.193,2.852c-0.164,0.531 -0.945,1.707 -2.352,3.527c-1.869,-0.725 -3.217,-1.57 -4.027,-2.516C51.17,23.797 51.895,22.508 52.768,21.813z" id="path_3"/><path fill="#000001" d="M48.732,16.939c2.574,1.061 3.863,1.957 3.863,2.688l-2.186,3.361h-0.164c-0.473,0 -1.764,-0.674 -3.863,-2.021C47.414,18.279 48.203,16.939 48.732,16.939z" id="path_4"/><path fill="#000001" d="M49.852,41.063c4.4,0.043 6.857,-0.781 7.396,-2.48c0,-0.588 -0.561,-2.043 -1.686,-4.363l0.51,-4.365h0.33c1.461,2.516 2.186,5.039 2.186,7.553v1.514c0,1.01 -0.244,2.07 -0.725,3.182s-1.225,2.049 -2.221,2.803c-1.004,0.76 -2.932,1.074 -5.791,0.945V41.063z" id="path_5"/><path fill="#000001" d="M62.314,47.963c0.172,-0.092 0.223,0.059 0.15,0.467c-0.953,2.236 -2.416,3.799 -4.387,4.68l-7.244,3.633c-0.309,-0.086 -0.365,-0.336 -0.172,-0.752c0.967,-1.863 1.625,-2.967 1.977,-3.318L62.314,47.963z" id="path_6"/><path fill="#213877" d="M45.98,47.025c1.742,0.701 3.025,1.482 3.871,2.35v0.172c-0.926,2.459 -1.656,3.691 -2.186,3.691c-0.424,0 -1.764,-0.674 -4.035,-2.014l-1.512,2.852c-2.91,-1.061 -4.365,-1.842 -4.365,-2.35c0.617,-2.293 1.232,-3.641 1.85,-4.027c0.473,0 1.928,0.723 4.363,2.186C44.893,47.979 45.566,47.025 45.98,47.025z" id="path_7"/><path fill="#213877" d="M34.643,41.063h1.098c2.178,-0.18 3.805,-1.047 4.865,-2.602l0.172,-0.51l-0.5,-2.516c0.107,-2.688 0.387,-4.033 0.838,-4.033c1.34,4.729 2.631,7.617 3.863,8.648c1.061,0.604 2.516,0.932 4.363,0.99c0.494,0 0.953,0 1.391,0v4.809c-0.551,0 -1.125,0 -1.727,0H48.84c-3.217,0 -5.682,-1.791 -7.389,-5.375v-0.164l-1.512,3.016c-1.146,1.699 -2.83,2.537 -5.037,2.523h-0.26V41.063z" id="path_8"/><path fill="#213877" d="M36.631,17.842h1.662c2.014,0 3.025,0.752 3.025,2.266c-1.305,3.525 -2.889,5.396 -4.752,5.611l-2.199,0.293c-0.352,0 -0.496,-0.1 -0.445,-0.293c1.777,-0.939 3.439,-2.057 4.98,-3.34c-0.545,-0.51 -1.146,-0.76 -1.805,-0.76h-0.467l-1.807,0.15l-0.143,-0.15v-0.295C35.535,19.004 36.188,17.842 36.631,17.842z" id="path_9"/><path fill="#9e3b21" d="M34.795,45.85c-0.18,0 -0.373,0 -0.566,0h-0.166c-1.627,-0.014 -3.195,-0.301 -4.707,-0.859c-1.621,2.801 -3.748,4.199 -6.379,4.199c-3.139,-0.451 -4.709,-1.734 -4.709,-3.863h-0.164c-0.531,1.791 -1.707,3.246 -3.527,4.365c-2.436,0.895 -4.342,1.346 -5.711,1.346l-0.773,0.102v-0.338c0.623,-0.516 2.314,-1.711 5.066,-3.59c2.752,-1.871 4.314,-3.045 4.68,-3.525c0.373,-0.473 0.91,-2.057 1.613,-4.744c1.34,-2.236 2.572,-3.361 3.689,-3.361h0.338c1.396,0 3.641,1.512 6.723,4.535c0.895,0.76 2.422,1.098 4.594,1.012V45.85L34.795,45.85zM20.289,41.291c0,1.484 1.176,2.494 3.525,3.025h0.838c1.908,-0.193 2.861,-0.473 2.861,-0.84c-2.215,-2.127 -3.893,-3.188 -5.047,-3.188h-0.164C21.35,40.289 20.676,40.625 20.289,41.291z" id="path_10"/><path fill="#f06022" d="M28.875,56.764l0.172,0.15v0.459c-0.867,1.863 -2.078,3.168 -3.633,3.928c-4.816,2.615 -7.49,3.928 -8.02,3.928c-0.195,0 -0.295,-0.158 -0.295,-0.467c0.459,-1.777 1.469,-2.98 3.025,-3.611l8.605,-4.387H28.875z" id="path_11"/><path fill="#f06022" d="M27.678,52.988c0.201,0 0.295,0.143 0.295,0.438c-0.561,1.625 -2.215,3.088 -4.975,4.393l-6.363,3.482l-0.145,-0.15v-0.166c0.604,-2.127 1.563,-3.439 2.875,-3.926l7.102,-3.633L27.678,52.988z" id="path_12"/></svg>