<svg id="vector" xmlns="http://www.w3.org/2000/svg" width="75" height="67" viewBox="0 0 83 73"><path fill="#000001" d="M70.468,15.841c1.628,0 3.263,0.811 4.905,2.438c0.157,0.277 0.098,0.495 -0.188,0.66c-0.285,0.157 -0.548,0.128 -0.78,-0.112c-0.705,-0.631 -1.702,-0.945 -2.992,-0.945h-0.548c-0.54,0 -1.17,0.232 -1.89,0.683c0,1.32 1.583,2.13 4.747,2.438l3.143,-1.229l0.128,0.419c0,1.479 -1.815,2.798 -5.445,3.953l-5.032,2.857l-0.525,0.135c-0.21,0.045 -0.345,-0.045 -0.42,-0.263c0,-0.795 1.133,-1.882 3.405,-3.277v-0.127c-1.095,-0.607 -1.65,-1.471 -1.65,-2.596C67.843,17.521 68.886,15.841 70.468,15.841z" id="path_0"/><path fill="#000001" d="M70.168,28.418c0.353,0 0.705,1.178 1.058,3.518l1.582,3.518l-0.705,4.043l0.525,9.847v1.575c-0.232,4.021 -0.817,6.36 -1.755,7.035l-0.173,-0.173l0.173,-2.64c0,-2.37 -0.765,-9.93 -2.287,-22.673C69.321,29.769 69.846,28.418 70.168,28.418z" id="path_1"/><path fill="#000001" d="M75.816,7.81c0.181,-0.105 0.232,0.06 0.157,0.487c-0.997,2.34 -2.527,3.975 -4.59,4.897l-7.582,3.803c-0.322,-0.09 -0.383,-0.353 -0.181,-0.795c1.013,-1.95 1.703,-3.105 2.07,-3.473L75.816,7.81z" id="path_2"/><path fill="#FFAB00" d="M42.606,50.543h0.908h0.345h0.885c3.188,-0.232 5.123,-0.967 5.798,-2.197c0,-0.968 -1.11,-3.6 -3.338,-7.912l-0.353,-1.403c-0.382,-1.845 -0.367,-3.539 0.045,-5.077c0.405,-1.537 1.216,-2.603 2.415,-3.188c2.783,-1.875 8.115,-4.979 15.998,-9.314l0.172,0.18v0.345c-1.694,2.67 -2.984,5.13 -3.862,7.388h-0.353l-0.18,-0.878v-0.885l0.18,-0.173v-0.172h-0.18c-6.532,3.772 -10.928,6.532 -13.185,8.258v0.18c2.467,4.979 3.81,8.782 4.05,11.422c0,1.876 -0.646,3.87 -1.936,5.979c-1.229,1.642 -3.689,2.46 -7.388,2.46h-0.022V50.543z" id="path_3"/><path fill="#FFAB00" d="M57.442,55.463c0.18,-0.098 0.232,0.061 0.157,0.488c-0.998,2.34 -2.527,3.975 -4.59,4.896l-7.583,3.803c-0.322,-0.09 -0.383,-0.353 -0.18,-0.787c1.013,-1.95 1.702,-3.105 2.07,-3.473L57.442,55.463z" id="path_4"/><path fill="#213877" d="M30.884,58.718c0.728,0 2.018,0.878 3.862,2.633c0,0.593 -0.697,1.875 -2.107,3.87h-0.353c-0.735,0 -1.845,-0.705 -3.338,-2.107v-0.18C28.949,62.236 29.594,60.827 30.884,58.718z" id="path_5"/><path fill="#213877" d="M37.207,57.841c2.933,1.26 4.395,2.25 4.395,2.985c-0.172,0.555 -0.989,1.784 -2.459,3.689c-1.966,-0.758 -3.368,-1.635 -4.216,-2.632C35.542,59.918 36.299,58.569 37.207,57.841z" id="path_6"/><path fill="#213877" d="M27.779,50.543c1.253,0.016 2.025,-0.008 2.333,-0.067c2.64,-0.803 4.439,-2.513 5.407,-5.115c0.143,-0.502 0.436,-0.563 0.878,-0.18c0.232,0.202 0.412,1.027 0.524,2.46c1.598,2.152 3.593,3.12 5.978,2.902h0.465v5.011h-0.112c-3.734,-0.173 -6.487,-1.876 -8.265,-5.101h-0.173c-1.245,2.625 -2.888,4.237 -4.92,4.838c-0.615,0.172 -1.32,0.263 -2.115,0.263V50.543z" id="path_7"/><path fill="#213877" d="M34.679,29.207h1.74c2.107,0 3.165,0.787 3.165,2.37c-1.365,3.689 -3.023,5.647 -4.973,5.872l-2.303,0.308c-0.367,0 -0.518,-0.105 -0.465,-0.308c1.86,-0.982 3.6,-2.152 5.213,-3.495c-0.57,-0.532 -1.2,-0.795 -1.891,-0.795h-0.487l-1.89,0.157l-0.15,-0.157v-0.308C33.532,30.421 34.214,29.207 34.679,29.207z" id="path_8"/><path fill="#64DD17" d="M28.282,55.576c-3.015,-0.202 -5.753,-1.852 -8.213,-4.942h-0.18c-1.05,6.091 -3.397,9.136 -7.027,9.143h-0.533c-1.574,-0.007 -3.104,-1.409 -4.567,-4.222c-1.17,-3.953 -1.755,-6.945 -1.755,-8.963v-1.41c0,-0.878 0.173,-1.35 0.525,-1.402c0.495,0.263 1.087,2.183 1.77,5.768c0.683,3.577 2.085,5.287 4.208,5.13c4.103,-0.675 6.27,-3.022 6.503,-7.035l-1.583,-5.444v-1.936c0.06,-2.348 0.292,-3.518 0.705,-3.518c0.232,0.525 0.412,1.058 0.524,1.583l2.46,7.732c1.936,3.135 4.328,4.619 7.163,4.439V55.576z" id="path_9"/><path fill="#64DD17" d="M18.202,20.281c1.8,0 2.7,1.11 2.7,3.323c0,3.524 -3.008,6.532 -9.03,9.007c-0.862,0.263 -0.968,-0.053 -0.308,-0.944c0.165,-0.338 1.583,-1.396 4.26,-3.165v-0.15c-1.154,-0.473 -1.732,-1.478 -1.732,-3.015c0.766,-3.368 1.98,-5.056 3.646,-5.056H18.202L18.202,20.281zM15.516,24.083c0,0.938 0.796,1.515 2.378,1.74h0.308c0.585,0 0.96,-0.218 1.117,-0.638c0,-0.952 -0.689,-1.695 -2.063,-2.22C16.657,22.966 16.079,23.341 15.516,24.083z" id="path_10"/></svg>