<svg id="vector" xmlns="http://www.w3.org/2000/svg" width="75" height="67" viewBox="0 0 83 73"><path fill="#9e3b21" d="M49.792,10.854l0.18,0.18c0,2.37 -1.875,4.83 -5.625,7.38c-2.197,0.938 -4.425,1.41 -6.683,1.41l-1.583,-0.18c-0.585,2.227 -0.997,3.345 -1.229,3.345c-0.263,0 -0.615,-0.938 -1.058,-2.813c-0.817,-1.118 -2.167,-2.521 -4.042,-4.223v-0.353c0.412,-2.34 0.885,-3.51 1.409,-3.51c2.288,2.46 5.101,3.689 8.438,3.689C43.468,15.781 46.866,14.138 49.792,10.854z" id="path_0"/><path fill="#f06022" d="M26.476,36.278c1.628,0 3.263,0.81 4.905,2.438c0.157,0.277 0.097,0.495 -0.188,0.66c-0.285,0.157 -0.548,0.128 -0.78,-0.112c-0.705,-0.63 -1.702,-0.945 -2.992,-0.945h-0.548c-0.54,0 -1.17,0.232 -1.89,0.683c0,1.32 1.582,2.13 4.747,2.438l3.143,-1.229L33,40.627c0,1.479 -1.814,2.798 -5.444,3.953l-5.032,2.857l-0.525,0.135c-0.21,0.045 -0.345,-0.045 -0.42,-0.262c0,-0.796 1.133,-1.883 3.405,-3.278v-0.127c-1.096,-0.607 -1.65,-1.47 -1.65,-2.596C23.851,37.958 24.893,36.278 26.476,36.278z" id="path_1"/><path fill="#000001" d="M45.208,50.731c0.24,0 0.487,0 0.75,0h0.18c2.19,-0.135 4.186,-1.958 5.971,-5.468c1.935,-2.933 3.93,-4.395 5.977,-4.395c2.58,0 3.87,1.635 3.87,4.92v0.877c0,1.612 -0.645,3.721 -1.935,6.33l-1.23,0.878c-1.087,0 -3.6,-0.766 -7.56,-2.288c-1.2,1.801 -2.138,2.896 -2.813,3.277c-1.027,0.713 -2.078,1.013 -3.165,0.878h-0.045V50.731L45.208,50.731zM54.043,47.018v0.173c3.045,1.177 4.867,1.763 5.452,1.763c0.232,0 0.353,-0.181 0.353,-0.533c-0.675,-1.755 -1.792,-2.632 -3.345,-2.632C55.423,45.789 54.598,46.201 54.043,47.018z" id="path_2"/><path fill="#000001" d="M59.713,27.091c0.18,-0.105 0.232,0.059 0.157,0.486c-0.997,2.34 -2.527,3.976 -4.59,4.898l-7.582,3.802c-0.322,-0.089 -0.383,-0.353 -0.181,-0.794c1.013,-1.951 1.703,-3.105 2.07,-3.473L59.713,27.091z" id="path_3"/><path fill="#9e3b21" d="M45.583,55.741c-3.412,0.202 -5.896,-1.372 -7.447,-4.725c-0.75,-1.245 -1.447,-9.638 -2.107,-25.178v-0.353c0.435,-2.58 1.08,-3.87 1.927,-3.87l0.886,-0.173c1.08,0 2.723,0.354 4.92,1.051v0.352c-0.12,0.354 -0.473,0.533 -1.058,0.533h-2.985c-0.614,0 -1.199,0.345 -1.763,1.05c0.548,13.492 1.343,21.308 2.4,23.445c1.05,2.138 2.798,3.09 5.228,2.857V55.741z" id="path_4"/><path fill="#f06022" d="M34.004,53.289l0.18,0.157v0.479c-0.907,1.95 -2.175,3.315 -3.803,4.11c-5.04,2.737 -7.838,4.11 -8.393,4.11c-0.202,0 -0.308,-0.165 -0.308,-0.487c0.48,-1.86 1.538,-3.12 3.165,-3.78l9.008,-4.59H34.004z" id="path_5"/><path fill="#f06022" d="M32.751,49.335c0.21,0 0.308,0.15 0.308,0.458c-0.585,1.702 -2.317,3.232 -5.205,4.598l-6.66,3.645l-0.149,-0.157v-0.173c0.63,-2.228 1.635,-3.6 3.007,-4.109l7.433,-3.803L32.751,49.335z" id="path_6"/></svg>