<svg id="vector" xmlns="http://www.w3.org/2000/svg" width="75" height="67" viewBox="0 0 83 73"><path fill="#213877" d="M55.098,46.34h0.066c2.723,-0.119 4.598,-1.432 5.625,-3.953c0,-0.352 0.232,-0.645 0.705,-0.885h0.354c0.232,0 0.352,0.18 0.352,0.533l-0.18,1.051c0.998,1.762 2.055,2.639 3.166,2.639h0.877c1.521,0 2.699,-1.521 3.518,-4.566h0.18c0.172,0.021 0.465,0.727 0.877,2.107c0.998,0.877 1.988,1.402 2.986,1.582c1.17,0 1.762,-0.705 1.762,-2.107c0.113,-2.227 0.346,-3.346 0.697,-3.346c0.473,0.998 0.705,2.229 0.705,3.691c0,4.342 -1.057,6.51 -3.164,6.51c-1.643,0 -2.986,-0.826 -4.043,-2.469h-0.354c-0.727,2.348 -1.904,3.518 -3.518,3.518h-0.172c-1.432,0 -3.074,-1.109 -4.92,-3.336C59.064,50 57.303,51.35 55.344,51.35h-0.246V46.34z" id="path_0"/><path fill="#213877" d="M68.566,22.145c1.801,0 2.701,1.111 2.701,3.322c0,3.525 -3.008,6.533 -9.031,9.008c-0.861,0.264 -0.967,-0.053 -0.307,-0.945c0.164,-0.336 1.582,-1.395 4.26,-3.164v-0.15c-1.154,-0.473 -1.732,-1.477 -1.732,-3.016c0.766,-3.367 1.98,-5.055 3.645,-5.055H68.566L68.566,22.145zM65.883,25.947c0,0.938 0.795,1.516 2.377,1.74h0.307c0.586,0 0.961,-0.217 1.119,-0.637c0,-0.953 -0.691,-1.695 -2.063,-2.221C67.021,24.83 66.445,25.205 65.883,25.947z" id="path_1"/><path fill="#FFAB00" d="M46.668,53.285c0.6,0 2.01,0.705 4.223,2.107c0,0.877 -0.705,2.287 -2.115,4.223c-2.813,-0.916 -4.215,-1.732 -4.215,-2.467C44.635,56.494 45.332,55.205 46.668,53.285z" id="path_2"/><path fill="#FFAB00" d="M40.27,46.34c1.252,0.016 2.025,-0.008 2.332,-0.066c2.641,-0.803 4.441,-2.514 5.408,-5.115c0.143,-0.504 0.436,-0.563 0.877,-0.18c0.232,0.201 0.414,1.027 0.525,2.459c1.598,2.152 3.594,3.119 5.979,2.902h0.465v5.01h-0.113c-3.734,-0.172 -6.488,-1.875 -8.266,-5.1h-0.172c-1.244,2.625 -2.887,4.238 -4.92,4.838c-0.615,0.172 -1.32,0.262 -2.115,0.262V46.34z" id="path_3"/><path fill="#FFAB00" d="M53.387,24.98c0.182,-0.105 0.232,0.061 0.158,0.486c-0.998,2.34 -2.527,3.977 -4.59,4.898l-7.582,3.803c-0.322,-0.09 -0.383,-0.354 -0.182,-0.795c1.014,-1.951 1.703,-3.105 2.07,-3.473L53.387,24.98z" id="path_4"/><path fill="#000001" d="M40.314,51.35c-3.412,0.203 -5.895,-1.371 -7.447,-4.725c-0.75,-1.244 -1.447,-9.637 -2.107,-25.178v-0.352c0.436,-2.58 1.08,-3.871 1.928,-3.871l0.885,-0.172c1.08,0 2.723,0.354 4.92,1.051v0.352c-0.119,0.352 -0.473,0.533 -1.057,0.533h-2.986c-0.613,0 -1.199,0.344 -1.762,1.049c0.547,13.492 1.342,21.309 2.4,23.445c1.049,2.139 2.797,3.09 5.227,2.857V51.35z" id="path_5"/><path fill="#f06022" d="M13.66,28.039h0.352c1.201,0.264 2.49,0.961 3.871,2.109v0.172c-0.795,2.408 -1.492,3.689 -2.107,3.869c-1.793,-0.352 -3.135,-0.938 -4.043,-1.754v-0.18C11.732,30.875 12.377,29.473 13.66,28.039z" id="path_6"/><path fill="#f06022" d="M20.17,26.457h0.172c1.201,0.174 2.551,0.99 4.043,2.461v0.172l-2.107,3.689c-2.813,-0.906 -4.223,-1.664 -4.223,-2.279C18.963,27.801 19.668,26.457 20.17,26.457z" id="path_7"/><path fill="#f06022" d="M12.1,46.34c4.605,0.045 7.178,-0.816 7.74,-2.596c0,-0.613 -0.584,-2.137 -1.762,-4.566l0.531,-4.568h0.346c1.529,2.633 2.287,5.273 2.287,7.906v1.582c0,1.057 -0.254,2.168 -0.758,3.33c-0.502,1.162 -1.281,2.145 -2.324,2.932c-1.051,0.795 -3.068,1.125 -6.061,0.99V46.34z" id="path_8"/><path fill="#f06022" d="M26.289,17.338l0.182,0.158v0.479c-0.916,1.951 -2.184,3.316 -3.803,4.111c-5.041,2.736 -7.838,4.109 -8.393,4.109c-0.211,0 -0.316,-0.164 -0.316,-0.488c0.488,-1.859 1.547,-3.119 3.166,-3.779l9.016,-4.59H26.289z" id="path_9"/><path fill="#f06022" d="M25.037,13.385c0.203,0 0.309,0.15 0.309,0.457c-0.586,1.703 -2.318,3.234 -5.205,4.598l-6.66,3.646l-0.15,-0.158v-0.172c0.629,-2.229 1.627,-3.6 3.008,-4.111l7.424,-3.803L25.037,13.385z" id="path_10"/><path fill="#0091EA" d="M15.768,51.35c-3.412,0.203 -5.895,-1.371 -7.447,-4.725c-0.75,-1.244 -1.447,-9.637 -2.107,-25.178v-0.352c0.436,-2.58 1.08,-3.871 1.928,-3.871l0.885,-0.172c1.08,0 2.723,0.354 4.92,1.051v0.352c-0.121,0.352 -0.473,0.533 -1.057,0.533H9.902c-0.615,0 -1.199,0.344 -1.762,1.049c0.547,13.492 1.342,21.309 2.398,23.445c1.051,2.139 2.799,3.09 5.229,2.857V51.35z" id="path_11"/></svg>