<svg id="vector" xmlns="http://www.w3.org/2000/svg" width="75" height="67" viewBox="0 0 83 73"><path fill="#000001" d="M61.94,27.311h0.339c1.15,0.252 2.388,0.92 3.711,2.021v0.165c-0.762,2.309 -1.431,3.539 -2.021,3.712c-1.72,-0.338 -3.007,-0.899 -3.878,-1.684v-0.173C60.091,30.03 60.71,28.685 61.94,27.311z" id="path_0"/><path fill="#000001" d="M68.184,25.793h0.166c1.15,0.165 2.445,0.949 3.877,2.358v0.166l-2.021,3.539c-2.697,-0.87 -4.05,-1.597 -4.05,-2.187C67.026,27.081 67.702,25.793 68.184,25.793z" id="path_1"/><path fill="#000001" d="M60.444,44.863c4.417,0.043 6.885,-0.784 7.424,-2.489c0,-0.59 -0.562,-2.05 -1.69,-4.381l0.511,-4.381h0.331c1.467,2.525 2.193,5.057 2.193,7.582v1.518c0,1.015 -0.244,2.079 -0.727,3.194c-0.481,1.114 -1.229,2.057 -2.229,2.813c-1.007,0.763 -2.942,1.079 -5.813,0.949V44.863z" id="path_2"/><path fill="#000001" d="M66.472,13.622c1.727,0 2.59,1.064 2.59,3.187c0,3.381 -2.885,6.266 -8.661,8.64c-0.827,0.252 -0.928,-0.051 -0.295,-0.906c0.158,-0.324 1.518,-1.338 4.086,-3.036v-0.144c-1.107,-0.453 -1.662,-1.417 -1.662,-2.892c0.734,-3.23 1.899,-4.849 3.496,-4.849H66.472L66.472,13.622zM63.897,17.269c0,0.898 0.763,1.453 2.28,1.669h0.295c0.562,0 0.921,-0.209 1.071,-0.611c0,-0.914 -0.661,-1.626 -1.978,-2.13C64.991,16.197 64.437,16.556 63.897,17.269z" id="path_3"/><path fill="#009649" d="M60.653,49.682c-0.151,0.015 -0.31,0.021 -0.461,0.021h-0.849c-1.316,0 -2.215,-0.108 -2.697,-0.338c-0.979,3.783 -2.122,6.1 -3.432,6.948c-1.309,0.85 -4.266,1.568 -8.869,2.158h-0.338c-1.015,-0.114 -1.518,-0.28 -1.518,-0.504c0,-0.338 0.841,-0.733 2.524,-1.179c6.633,-3.036 9.948,-5.229 9.948,-6.575c0,-0.562 -0.784,-1.855 -2.359,-3.877c-0.338,-0.568 -0.503,-1.295 -0.503,-2.194v-1.684c0,-0.849 0.165,-1.295 0.503,-1.352c1.46,2.236 3.935,3.481 7.416,3.747c0.216,0 0.425,0 0.634,-0.014V49.682z" id="path_4"/><path fill="#009649" d="M57.092,29.346c0.172,-0.101 0.223,0.058 0.15,0.468c-0.957,2.244 -2.424,3.813 -4.402,4.697l-7.272,3.647c-0.31,-0.087 -0.367,-0.338 -0.173,-0.763c0.972,-1.87 1.633,-2.979 1.985,-3.331L57.092,29.346z" id="path_5"/><path fill="#009649" d="M37.238,22.39c0.339,0 0.677,1.13 1.015,3.374l1.518,3.374l-0.676,3.877l0.503,9.444v1.511c-0.223,3.855 -0.783,6.101 -1.683,6.748l-0.166,-0.166l0.166,-2.532c0,-2.272 -0.734,-9.523 -2.194,-21.745C36.425,23.685 36.929,22.39 37.238,22.39z" id="path_6"/><path fill="#f06022" d="M21.096,53.307c0.575,0 1.921,0.677 4.043,2.028c0,0.843 -0.669,2.188 -2.021,4.043c-2.698,-0.87 -4.043,-1.654 -4.043,-2.359C19.139,56.386 19.816,55.149 21.096,53.307z" id="path_7"/><path fill="#f06022" d="M17.046,45.913c4.417,0.044 6.884,-0.784 7.424,-2.489c0,-0.589 -0.562,-2.05 -1.69,-4.381l0.511,-4.38h0.33c1.468,2.524 2.194,5.057 2.194,7.581v1.519c0,1.014 -0.244,2.078 -0.727,3.193c-0.481,1.115 -1.23,2.058 -2.229,2.813c-1.008,0.763 -2.942,1.079 -5.813,0.95V45.913z" id="path_8"/><path fill="#f06022" d="M30.29,23.174l0.172,0.151v0.46c-0.877,1.87 -2.093,3.18 -3.646,3.942c-4.834,2.625 -7.517,3.941 -8.05,3.941c-0.201,0 -0.302,-0.158 -0.302,-0.468c0.468,-1.783 1.482,-2.992 3.035,-3.625l8.647,-4.402H30.29z" id="path_9"/><path fill="#f06022" d="M29.088,19.383c0.194,0 0.295,0.144 0.295,0.439c-0.562,1.633 -2.223,3.1 -4.993,4.409l-6.387,3.496l-0.145,-0.151v-0.165c0.604,-2.137 1.562,-3.453 2.885,-3.942l7.121,-3.646L29.088,19.383z" id="path_10"/><path fill="#0091EA" d="M19.938,50.718c-3.272,0.193 -5.654,-1.316 -7.144,-4.532c-0.719,-1.194 -1.388,-9.243 -2.021,-24.148V21.7c0.417,-2.475 1.036,-3.712 1.849,-3.712l0.849,-0.165c1.036,0 2.611,0.338 4.719,1.007v0.338c-0.115,0.338 -0.453,0.511 -1.014,0.511h-2.863c-0.59,0 -1.151,0.331 -1.69,1.007c0.525,12.941 1.287,20.438 2.302,22.487c1.007,2.05 2.683,2.964 5.014,2.74V50.718z" id="path_11"/></svg>