<svg id="vector" xmlns="http://www.w3.org/2000/svg" width="75" height="67" viewBox="0 0 83 73"><path fill="#9e3b21" d="M70.041,30.398c0.99,0 2.34,0.818 4.043,2.461v0.352c-1.148,2.461 -1.904,3.689 -2.287,3.689l-4.043,-2.279h-0.18c-1.141,1.957 -1.898,3.016 -2.281,3.158h-0.18c-2.572,-1.141 -3.861,-2.018 -3.861,-2.633c0.938,-2.58 1.754,-3.871 2.459,-3.871l4.215,2.289C68.602,32.184 69.307,31.135 70.041,30.398z" id="path_0"/><path fill="#9e3b21" d="M65.467,24.953c1.146,0 2.43,0.99 3.869,2.986c-0.383,0.906 -1.146,1.965 -2.287,3.164h-0.352c-1.021,-0.232 -2.139,-0.877 -3.338,-1.936v-0.523C63.449,27.707 64.146,26.477 65.467,24.953z" id="path_1"/><path fill="#9e3b21" d="M54.148,44.176h0.068c2.723,-0.119 4.598,-1.432 5.625,-3.951c0,-0.354 0.232,-0.646 0.705,-0.887h0.352c0.232,0 0.354,0.182 0.354,0.533l-0.18,1.051c0.996,1.762 2.055,2.639 3.164,2.639h0.877c1.523,0 2.701,-1.521 3.518,-4.566h0.18c0.174,0.021 0.465,0.727 0.879,2.107c0.996,0.877 1.986,1.402 2.984,1.582c1.17,0 1.762,-0.705 1.762,-2.107c0.113,-2.227 0.346,-3.346 0.697,-3.346c0.473,0.998 0.705,2.229 0.705,3.691c0,4.342 -1.057,6.51 -3.164,6.51c-1.643,0 -2.984,-0.826 -4.043,-2.467h-0.352c-0.729,2.346 -1.906,3.516 -3.518,3.516h-0.174c-1.432,0 -3.074,-1.109 -4.92,-3.336c-1.551,2.691 -3.314,4.041 -5.271,4.041h-0.248V44.176z" id="path_2"/><path fill="#9e3b21" d="M71.422,13.719c0.18,-0.105 0.232,0.061 0.156,0.488c-0.996,2.34 -2.527,3.975 -4.59,4.896l-7.582,3.803c-0.322,-0.09 -0.383,-0.352 -0.18,-0.795c1.012,-1.949 1.703,-3.105 2.07,-3.473L71.422,13.719z" id="path_3"/><path fill="#009649" d="M54.367,49.201c-0.158,0.016 -0.324,0.023 -0.48,0.023h-0.885c-1.373,0 -2.311,-0.113 -2.813,-0.354c-1.021,3.945 -2.213,6.361 -3.578,7.246s-4.447,1.635 -9.248,2.25h-0.352c-1.059,-0.121 -1.584,-0.293 -1.584,-0.525c0,-0.354 0.879,-0.766 2.633,-1.23c6.916,-3.166 10.373,-5.453 10.373,-6.855c0,-0.584 -0.818,-1.934 -2.459,-4.041c-0.354,-0.594 -0.525,-1.352 -0.525,-2.289v-1.754c0,-0.885 0.172,-1.352 0.525,-1.41c1.521,2.332 4.102,3.629 7.73,3.906c0.227,0 0.443,0 0.662,-0.014V49.201z" id="path_4"/><path fill="#009649" d="M50.654,28c0.18,-0.105 0.232,0.059 0.156,0.486c-0.996,2.34 -2.527,3.975 -4.59,4.898l-7.582,3.801c-0.322,-0.09 -0.383,-0.352 -0.18,-0.795c1.012,-1.949 1.701,-3.104 2.07,-3.473L50.654,28z" id="path_5"/><path fill="#000001" d="M32.354,20.746c0.352,0 0.705,1.178 1.057,3.518l1.584,3.518l-0.705,4.043l0.523,9.848v1.574c-0.232,4.02 -0.816,6.359 -1.754,7.035l-0.172,-0.172l0.172,-2.641c0,-2.369 -0.766,-9.93 -2.287,-22.672C31.506,22.096 32.031,20.746 32.354,20.746z" id="path_6"/><path fill="#f06022" d="M17.924,52.98c0.6,0 2.002,0.705 4.215,2.115c0,0.879 -0.697,2.281 -2.107,4.215c-2.813,-0.906 -4.215,-1.725 -4.215,-2.459C15.883,56.191 16.588,54.9 17.924,52.98z" id="path_7"/><path fill="#f06022" d="M15.984,45.271c4.605,0.045 7.178,-0.818 7.74,-2.596c0,-0.615 -0.586,-2.137 -1.764,-4.566l0.533,-4.568h0.346c1.529,2.633 2.287,5.273 2.287,7.906v1.582c0,1.057 -0.256,2.166 -0.758,3.33c-0.502,1.162 -1.283,2.145 -2.324,2.932c-1.051,0.795 -3.068,1.125 -6.061,0.99V45.271z" id="path_8"/><path fill="#f06022" d="M27.508,21.564l0.18,0.156v0.48c-0.914,1.949 -2.182,3.314 -3.801,4.109c-5.041,2.738 -7.838,4.111 -8.393,4.111c-0.211,0 -0.316,-0.166 -0.316,-0.488c0.488,-1.859 1.545,-3.119 3.166,-3.779l9.014,-4.59H27.508z" id="path_9"/><path fill="#f06022" d="M26.256,17.611c0.203,0 0.307,0.15 0.307,0.457c-0.584,1.703 -2.316,3.232 -5.205,4.598l-6.658,3.645l-0.15,-0.156V25.98c0.629,-2.227 1.627,-3.6 3.008,-4.109l7.424,-3.803L26.256,17.611z" id="path_10"/><path fill="#00BFA5" d="M16.717,50.281c-3.414,0.203 -5.896,-1.373 -7.449,-4.725c-0.75,-1.246 -1.447,-9.639 -2.107,-25.178v-0.352c0.436,-2.582 1.08,-3.871 1.928,-3.871l0.885,-0.172c1.08,0 2.723,0.352 4.92,1.049v0.354c-0.119,0.352 -0.473,0.531 -1.057,0.531h-2.984c-0.615,0 -1.201,0.346 -1.764,1.051c0.549,13.492 1.342,21.309 2.4,23.445c1.051,2.137 2.797,3.09 5.229,2.857V50.281z" id="path_11"/></svg>