<svg id="vector" xmlns="http://www.w3.org/2000/svg" width="75" height="67" viewBox="0 0 83 73"><path fill="#009649" d="M55.896,47.655h0.878c5.468,-0.104 9.098,-0.869 10.897,-2.31l0.353,-0.697c-0.232,-0.563 -0.525,-0.841 -0.877,-0.841c-0.848,0.473 -1.785,0.705 -2.813,0.705h-0.181c-3.045,-0.352 -4.627,-1.582 -4.74,-3.689v-0.18c0.293,-3.982 1.23,-5.971 2.813,-5.971h0.878c2.707,-0.135 4.763,1.973 6.15,6.322l0.172,1.764v0.352c-0.037,4.305 -1.582,7.148 -4.635,8.521c-1.08,0.69 -4.05,1.034 -8.896,1.034V47.655z" id="path_0"/><path fill="#009649" d="M63.629,25.485c1.904,0.586 3.547,1.523 4.92,2.813v0.173c0,0.735 -0.758,1.905 -2.28,3.518c-0.473,0 -2.055,-0.585 -4.748,-1.755v0.172c-0.937,1.815 -1.522,2.753 -1.762,2.813c-1.522,-0.322 -2.813,-1.027 -3.863,-2.107c0.705,-2.932 1.29,-4.395 1.756,-4.395c0.382,0 1.784,0.705 4.223,2.107C61.875,28.208 62.458,27.099 63.629,25.485z" id="path_1"/><path fill="#009649" d="M68.354,14.896c0.18,-0.105 0.232,0.061 0.157,0.488c-0.997,2.34 -2.527,3.975 -4.59,4.896l-7.583,3.803c-0.322,-0.09 -0.382,-0.352 -0.18,-0.795c1.013,-1.95 1.703,-3.105 2.07,-3.473L68.354,14.896z" id="path_2"/><path fill="#0091EA" d="M56.466,52.665l-1.979,-0.021c-1.096,4.822 -3.998,7.26 -8.7,7.32c-2.521,0.111 -3.78,0.066 -3.78,-0.136c0.232,-0.442 1.92,-1.29 5.055,-2.55c3.226,-2.047 5.168,-3.367 5.843,-3.953l0.18,-0.524l-3.074,-0.487c-2.243,-0.585 -3.503,-1.71 -3.78,-3.383v-0.353c0,-2.843 0.697,-4.657 2.107,-5.452l1.058,-0.173c2.077,0 3.772,1.448 5.093,4.351c0.84,0.292 1.5,0.435 1.979,0.42V52.665z" id="path_3"/><path fill="#000001" d="M33.088,19.748c0.323,0 0.556,0.878 0.705,2.64l1.755,2.985v0.181c0,0.787 -0.352,2.197 -1.057,4.215l1.057,11.955v4.215c-0.382,2.438 -1.784,4.837 -4.222,7.207c-2.431,1.875 -4.598,2.813 -6.503,2.813h-1.05c-5.1,0 -8.385,-2.52 -9.848,-7.553l-0.353,-3.164c0,-3.256 1.41,-6.128 4.223,-8.617h0.173l0.353,0.352c0,0.646 -0.817,2.228 -2.461,4.748c-0.352,0.907 -0.524,1.725 -0.524,2.46v0.18c0,2.985 2.4,5.152 7.207,6.503l2.107,0.172h0.353c3.398,0 6.383,-1.582 8.963,-4.748l0.173,-0.524c-1.403,-12.247 -2.108,-19.747 -2.108,-22.5v-0.353C32.031,21.624 32.384,20.573 33.088,19.748z" id="path_4"/><path fill="#f06022" d="M26.759,15.908c1.342,0 2.137,0.893 2.369,2.678v0.487c-0.247,2.985 -1.244,4.936 -2.984,5.843c-3.03,1.905 -5.782,2.857 -8.243,2.857c-0.089,-0.015 -0.172,-0.038 -0.262,-0.067c-0.09,-0.03 -0.157,-0.075 -0.21,-0.135c-0.053,-0.053 -0.045,-0.09 0.015,-0.105c0.128,-0.293 2.34,-1.463 6.63,-3.495v-0.157c-1.155,-0.728 -1.732,-1.732 -1.732,-3.008C23.032,17.536 24.501,15.908 26.759,15.908L26.759,15.908zM23.924,19.224v0.15c0,1.087 0.742,1.725 2.22,1.912h0.457c0.563,0 0.878,-0.158 0.945,-0.48c0,-1.478 -0.787,-2.22 -2.37,-2.22C24.344,18.773 23.924,18.991 23.924,19.224z" id="path_5"/><path fill="#f06022" d="M23.287,13.051c0.337,-0.165 0.495,-0.052 0.479,0.33c-1.694,1.875 -3.029,3.652 -3.997,5.34c-0.277,0.66 -0.435,1.2 -0.473,1.636c-0.037,0.434 0.075,0.899 0.345,1.395h0.33c0.128,-0.735 0.391,-1.103 0.788,-1.103c0.473,0.21 0.734,0.42 0.787,0.638v0.307c0.03,1.674 -0.442,2.678 -1.425,3.016h-0.787c-1.059,-0.21 -1.583,-1.425 -1.583,-3.652C17.751,18.249 19.596,15.616 23.287,13.051z" id="path_6"/><path fill="#0091EA" d="M42.188,32.999c1.358,-0.701 3.394,-1.743 6.104,-3.127c0.236,-0.279 0.348,-0.415 0.348,-0.415c-0.614,-0.738 -1.545,-1.13 -2.779,-1.167c-1.067,-0.037 -2.128,-0.055 -3.183,-0.055c0.726,-1.763 1.482,-2.991 2.258,-3.68c2.314,-0.192 4.157,0.037 5.541,0.688c0.583,0.694 0.713,1.371 0.403,2.035c-0.124,0.429 -0.49,1.235 -1.092,2.433c-0.584,0.961 -1.229,1.748 -1.948,2.363c-0.714,0.62 -1.663,1.049 -2.854,1.291c-2.072,0.328 -3.114,0.489 -3.127,0.489c-0.279,0 -0.415,-0.056 -0.415,-0.161C41.444,33.366 41.692,33.136 42.188,32.999z" id="path_7"/></svg>