<svg id="vector" xmlns="http://www.w3.org/2000/svg" width="75" height="67" viewBox="0 0 83 73"><path fill="#213877" d="M70.003,19.846c1.656,0.529 2.945,1.203 3.863,2.014v0.336c0,0.56 -0.609,1.793 -1.842,3.699c-1.146,0 -2.437,-0.617 -3.863,-1.85v-0.337C68.161,22.504 68.778,21.215 70.003,19.846z" id="path_0"/><path fill="#213877" d="M65.216,39.202c4.4,0.044 6.859,-0.78 7.396,-2.479c0,-0.588 -0.559,-2.043 -1.685,-4.364l0.509,-4.364h0.33c1.462,2.516 2.186,5.037 2.186,7.553v1.513c0,1.011 -0.244,2.071 -0.724,3.183c-0.48,1.11 -1.226,2.049 -2.222,2.802c-1.004,0.76 -2.932,1.075 -5.791,0.946V39.202z" id="path_1"/><path fill="#213877" d="M76.805,9.662c0.172,-0.101 0.222,0.057 0.15,0.465c-0.953,2.236 -2.415,3.799 -4.386,4.68l-7.246,3.634c-0.308,-0.086 -0.365,-0.337 -0.172,-0.759c0.968,-1.864 1.627,-2.967 1.979,-3.318L76.805,9.662z" id="path_2"/><path fill="#000001" d="M65.925,43.99c-0.106,0 -0.222,0 -0.328,0h-1.514c-1.512,0 -3.253,-0.953 -5.209,-2.853c-3.361,1.841 -6.988,2.795 -10.879,2.853v-4.767c2.035,0.137 4.65,-0.286 7.854,-1.282v-0.165c-1.541,-1.011 -2.995,-1.513 -4.363,-1.513l-1.348,0.165L49.8,35.59c0.452,-3.023 1.742,-4.536 3.863,-4.536l2.688,-0.165c4.258,0.502 6.386,1.455 6.386,2.853v0.674l-1.011,3.361c0.817,0.989 2.215,1.47 4.199,1.426V43.99z" id="path_3"/><path fill="#000001" d="M63.116,46.549c0.172,-0.094 0.223,0.057 0.15,0.465c-0.953,2.236 -2.415,3.799 -4.386,4.68l-7.245,3.635c-0.309,-0.086 -0.365,-0.338 -0.172,-0.754c0.967,-1.863 1.626,-2.967 1.978,-3.317L63.116,46.549z" id="path_4"/><path fill="#9e3b21" d="M43.902,45.165c1.741,0.702 3.024,1.483 3.87,2.351v0.172c-0.925,2.459 -1.656,3.691 -2.186,3.691c-0.424,0 -1.764,-0.674 -4.035,-2.014l-1.512,2.852c-2.91,-1.061 -4.365,-1.842 -4.365,-2.35c0.617,-2.294 1.232,-3.642 1.85,-4.028c0.473,0 1.928,0.724 4.364,2.186C42.813,46.118 43.487,45.165 43.902,45.165z" id="path_5"/><path fill="#9e3b21" d="M32.564,39.202h1.097c2.179,-0.179 3.805,-1.046 4.866,-2.601l0.172,-0.51l-0.501,-2.516c0.107,-2.688 0.387,-4.034 0.838,-4.034c1.34,4.729 2.631,7.618 3.863,8.649c1.061,0.603 2.516,0.932 4.363,0.99c0.496,0 0.954,0 1.391,0v4.809c-0.551,0 -1.125,0 -1.727,0h-0.164c-3.219,0 -5.684,-1.793 -7.39,-5.375V38.45l-1.513,3.017c-1.146,1.699 -2.83,2.537 -5.037,2.523h-0.259V39.202z" id="path_6"/><path fill="#9e3b21" d="M39.352,15.982h1.663c2.014,0 3.023,0.752 3.023,2.265c-1.304,3.526 -2.888,5.396 -4.751,5.611l-2.2,0.294c-0.352,0 -0.494,-0.1 -0.443,-0.294c1.777,-0.938 3.439,-2.057 4.98,-3.339c-0.545,-0.51 -1.146,-0.76 -1.807,-0.76h-0.466l-1.806,0.15l-0.144,-0.15v-0.295C38.255,17.144 38.907,15.982 39.352,15.982z" id="path_7"/><path fill="#000001" d="M32.716,43.99c-0.18,0 -0.373,0 -0.566,0h-0.165c-1.627,-0.016 -3.196,-0.301 -4.708,-0.86c-1.62,2.802 -3.748,4.2 -6.379,4.2c-3.139,-0.452 -4.709,-1.734 -4.709,-3.863h-0.164c-0.531,1.791 -1.706,3.246 -3.526,4.364c-2.437,0.896 -4.343,1.347 -5.712,1.347l-0.773,0.102v-0.338c0.623,-0.516 2.314,-1.713 5.066,-3.59c2.752,-1.871 4.314,-3.046 4.68,-3.525c0.373,-0.474 0.91,-2.058 1.613,-4.745c1.34,-2.235 2.572,-3.361 3.69,-3.361h0.337c1.397,0 3.641,1.513 6.723,4.536c0.895,0.76 2.422,1.098 4.594,1.012V43.99L32.716,43.99zM18.21,39.432c0,1.484 1.176,2.494 3.525,3.024h0.84c1.906,-0.193 2.859,-0.474 2.859,-0.839c-2.215,-2.128 -3.893,-3.189 -5.046,-3.189h-0.165C19.271,38.428 18.597,38.766 18.21,39.432z" id="path_8"/><path fill="#f06022" d="M26.796,54.904l0.172,0.15v0.459c-0.867,1.863 -2.078,3.168 -3.633,3.928c-4.816,2.615 -7.49,3.928 -8.02,3.928c-0.193,0 -0.295,-0.158 -0.295,-0.467c0.459,-1.777 1.47,-2.98 3.025,-3.611l8.606,-4.387H26.796z" id="path_9"/><path fill="#f06022" d="M25.599,51.127c0.201,0 0.295,0.145 0.295,0.438c-0.56,1.627 -2.215,3.09 -4.975,4.394l-6.363,3.483l-0.145,-0.15v-0.166c0.604,-2.127 1.563,-3.439 2.875,-3.926l7.102,-3.635L25.599,51.127z" id="path_10"/></svg>