<svg id="vector" xmlns="http://www.w3.org/2000/svg" width="75" height="67" viewBox="0 0 83 73"><path fill="#2962FF" d="M49.911,46.727h0.907h0.346h0.885c3.188,-0.232 5.123,-0.969 5.798,-2.197c0,-0.969 -1.11,-3.602 -3.338,-7.914l-0.353,-1.402c-0.382,-1.844 -0.367,-3.539 0.045,-5.076c0.405,-1.539 1.215,-2.604 2.415,-3.188c2.783,-1.875 8.115,-4.98 15.998,-9.316l0.172,0.18v0.346c-1.694,2.67 -2.984,5.131 -3.862,7.387h-0.353l-0.18,-0.877v-0.885l0.18,-0.172v-0.174h-0.18c-6.532,3.773 -10.928,6.533 -13.186,8.258v0.18c2.468,4.98 3.811,8.783 4.051,11.424c0,1.875 -0.646,3.869 -1.936,5.977c-1.229,1.643 -3.69,2.461 -7.388,2.461h-0.022V46.727z" id="path_0"/><path fill="#2962FF" d="M64.746,51.646c0.181,-0.098 0.233,0.059 0.158,0.486c-0.998,2.34 -2.527,3.975 -4.59,4.898l-7.583,3.803c-0.322,-0.09 -0.383,-0.354 -0.18,-0.789c1.012,-1.949 1.702,-3.104 2.069,-3.471L64.746,51.646z" id="path_1"/><path fill="#213877" d="M44.571,28.223c1.028,0.293 2.197,1.17 3.518,2.641c0,0.586 -0.765,1.875 -2.287,3.863l-3.87,-1.928c-0.968,1.844 -1.553,2.781 -1.755,2.813c-2.813,-1.291 -4.223,-2.348 -4.223,-3.166c0.968,-2.348 1.672,-3.576 2.114,-3.697h0.173c0.646,0 1.995,0.826 4.043,2.467h0.18C43.281,29.221 43.986,28.223 44.571,28.223z" id="path_2"/><path fill="#213877" d="M50.593,51.736h-0.045c-4.882,0.09 -8.032,-1.732 -9.473,-5.453c-1.154,3.684 -3.097,5.498 -5.819,5.453h-0.136v-5.01h0.308c2.197,-0.293 3.66,-1.141 4.396,-2.551c-0.465,-1.08 -0.705,-2.078 -0.705,-2.984v-0.354c0.18,-2.459 0.532,-3.689 1.058,-3.689c0.292,0.262 0.585,1.313 0.877,3.164c0.968,2.461 2.49,4.307 4.575,5.535c1.537,0.705 3.188,0.99 4.965,0.855V51.736z" id="path_3"/><path fill="#000001" d="M26.121,53.67c0.601,0 2.011,0.705 4.223,2.107c0,0.879 -0.705,2.289 -2.115,4.223c-2.813,-0.914 -4.215,-1.732 -4.215,-2.467C24.088,56.881 24.786,55.592 26.121,53.67z" id="path_4"/><path fill="#000001" d="M19.723,46.727c1.253,0.014 2.025,-0.008 2.333,-0.068c2.64,-0.803 4.439,-2.512 5.407,-5.115c0.143,-0.502 0.436,-0.563 0.878,-0.18c0.232,0.203 0.412,1.027 0.524,2.459c1.598,2.154 3.593,3.121 5.978,2.904h0.465v5.01h-0.112c-3.734,-0.174 -6.487,-1.875 -8.265,-5.102h-0.173c-1.245,2.627 -2.888,4.238 -4.92,4.838c-0.615,0.174 -1.32,0.264 -2.115,0.264V46.727z" id="path_5"/><path fill="#f06022" d="M32.601,25.695l0.18,0.158v0.48c-0.915,1.949 -2.183,3.314 -3.802,4.109c-5.04,2.738 -7.838,4.109 -8.393,4.109c-0.211,0 -0.315,-0.164 -0.315,-0.486c0.487,-1.861 1.545,-3.121 3.165,-3.781l9.015,-4.59H32.601z" id="path_6"/><path fill="#f06022" d="M31.348,21.744c0.203,0 0.308,0.148 0.308,0.457c-0.585,1.701 -2.317,3.232 -5.205,4.598l-6.66,3.645l-0.149,-0.158v-0.172c0.63,-2.227 1.627,-3.6 3.008,-4.109l7.425,-3.803L31.348,21.744z" id="path_7"/><path fill="#9e3b21" d="M19.769,51.736c-3.413,0.201 -5.896,-1.373 -7.448,-4.725c-0.75,-1.246 -1.447,-9.639 -2.107,-25.178V21.48c0.436,-2.58 1.08,-3.869 1.928,-3.869l0.885,-0.174c1.08,0 2.723,0.354 4.92,1.051v0.354c-0.12,0.352 -0.473,0.531 -1.057,0.531h-2.985c-0.615,0 -1.2,0.346 -1.763,1.051c0.548,13.492 1.343,21.307 2.4,23.445c1.05,2.137 2.797,3.09 5.228,2.857V51.736z" id="path_8"/><path fill="#213877" d="M40.603,12.166c1.41,2.4 2.115,4.748 2.115,7.027c-0.614,4.336 -1.38,6.502 -2.287,6.502l-0.173,-0.172v-0.172l0.345,-2.287v-0.182c0,-1.402 -0.585,-3.51 -1.755,-6.322v-0.352C39.433,13.508 40.018,12.166 40.603,12.166z" id="path_9"/></svg>