<svg id="vector" xmlns="http://www.w3.org/2000/svg" width="75" height="67" viewBox="0 0 83 73"><path fill="#DD2C00" d="M53.121,46.821c0.263,0 0.54,0 0.832,0h1.058c3.982,-0.66 5.978,-1.861 5.978,-3.601c-1.89,-1.763 -4.935,-2.64 -9.143,-2.64l-2.414,0.217h-2.618l-0.638,-6.217l9.188,-6.833l9.315,-6.683c0.458,-0.277 0.63,-0.157 0.525,0.353l-3.863,7.035h-0.18l-0.173,-1.229h-0.352l-11.251,8.438h4.043c4.763,0 7.928,1.342 9.495,4.042l0.173,1.05v0.354c-0.016,4.469 -2.063,7.807 -6.15,10.02c-1.17,0.473 -2.168,0.705 -2.993,0.705c-0.292,0 -0.569,0 -0.832,0V46.821z" id="path_0"/><path fill="#DD2C00" d="M63.052,13.116c0.18,-0.105 0.232,0.059 0.157,0.486c-0.998,2.34 -2.527,3.976 -4.59,4.898l-7.583,3.803c-0.322,-0.091 -0.383,-0.354 -0.18,-0.795c1.013,-1.951 1.702,-3.105 2.07,-3.473L63.052,13.116z" id="path_1"/><path fill="#000001" d="M54.179,51.831h-0.442c-4.245,0 -6.885,-2.985 -7.905,-8.963l-1.058,-17.055c0.443,-2.461 0.908,-3.863 1.41,-4.215h0.173c0.232,0 0.353,0.172 0.353,0.525c0,11.631 0.757,18.982 2.287,22.057c1.553,1.717 3.277,2.588 5.183,2.617V51.831z" id="path_2"/><path fill="#213877" d="M28.664,41.286h0.353c1.643,0.375 3.104,1.26 4.395,2.632v0.353c-0.112,0.938 -0.817,2.168 -2.107,3.689c-3.045,-1.02 -4.567,-1.904 -4.567,-2.632C27.464,43.221 28.108,41.87 28.664,41.286z" id="path_3"/><path fill="#213877" d="M37.986,37.769h0.345c0.413,0 1.41,2.64 2.993,7.912l0.172,0.697c0,4.133 -0.997,7.125 -2.984,8.971c-2.813,3.045 -6.15,4.566 -10.021,4.566c-3.165,-0.704 -5.213,-1.402 -6.149,-2.107c-3.053,-2.609 -4.575,-5.834 -4.575,-9.667c0,-3.226 1.41,-6.271 4.223,-9.143l0.172,-0.173h0.353l0.353,0.346c0,0.3 -0.817,1.582 -2.46,3.869c-0.473,0.818 -0.765,1.936 -0.878,3.338c0,2.73 1.403,5.07 4.216,7.035c2.752,1.058 4.627,1.582 5.625,1.582c2.52,0 5.505,-1.117 8.962,-3.337c1.41,-1.237 2.115,-1.995 2.115,-2.288l-2.46,-6.854l-0.18,-1.229L37.986,37.769z" id="path_4"/><path fill="#213877" d="M35.076,23.158c0.181,-0.104 0.232,0.06 0.157,0.487c-0.997,2.34 -2.526,3.975 -4.589,4.897l-7.583,3.803c-0.322,-0.09 -0.383,-0.353 -0.18,-0.795c1.012,-1.95 1.702,-3.104 2.069,-3.473L35.076,23.158z" id="path_5"/></svg>