<svg id="vector" xmlns="http://www.w3.org/2000/svg" width="75" height="67" viewBox="0 0 83 73"><path fill="#000001" d="M72.832,28.193c0.99,0 2.34,0.818 4.041,2.461v0.352c-1.146,2.461 -1.904,3.691 -2.287,3.691l-4.043,-2.281h-0.18c-1.139,1.957 -1.896,3.016 -2.279,3.158h-0.18c-2.572,-1.141 -3.863,-2.018 -3.863,-2.633c0.938,-2.58 1.756,-3.869 2.461,-3.869l4.215,2.287C71.391,29.979 72.096,28.93 72.832,28.193z" id="path_0"/><path fill="#000001" d="M68.256,22.748c1.148,0 2.43,0.99 3.871,2.986c-0.383,0.906 -1.148,1.965 -2.289,3.164h-0.352c-1.02,-0.232 -2.137,-0.877 -3.338,-1.934v-0.525C66.238,25.502 66.936,24.271 68.256,22.748z" id="path_1"/><path fill="#000001" d="M56.939,41.971h0.066c2.723,-0.119 4.598,-1.432 5.625,-3.951c0,-0.354 0.232,-0.646 0.705,-0.885h0.354c0.232,0 0.352,0.18 0.352,0.531l-0.18,1.051c0.998,1.762 2.055,2.639 3.164,2.639h0.879c1.521,0 2.699,-1.521 3.518,-4.566h0.18c0.172,0.021 0.465,0.727 0.877,2.107c0.998,0.877 1.988,1.402 2.984,1.582c1.172,0 1.764,-0.705 1.764,-2.107c0.113,-2.227 0.346,-3.346 0.697,-3.346c0.473,0.998 0.705,2.229 0.705,3.691c0,4.342 -1.057,6.51 -3.166,6.51c-1.641,0 -2.984,-0.826 -4.041,-2.467h-0.354c-0.727,2.346 -1.904,3.518 -3.518,3.518h-0.172c-1.434,0 -3.074,-1.111 -4.92,-3.338c-1.553,2.691 -3.314,4.041 -5.273,4.041h-0.246V41.971z" id="path_2"/><path fill="#000001" d="M75.262,49.262c0.18,-0.098 0.232,0.061 0.156,0.486c-0.996,2.342 -2.527,3.977 -4.59,4.898l-7.582,3.803c-0.322,-0.09 -0.383,-0.354 -0.18,-0.787c1.012,-1.951 1.703,-3.105 2.07,-3.473L75.262,49.262z" id="path_3"/><path fill="#213877" d="M57.771,47.004c-3.016,-0.203 -5.752,-1.852 -8.213,-4.943h-0.18c-1.051,6.092 -3.396,9.137 -7.027,9.143h-0.533c-1.574,-0.006 -3.105,-1.408 -4.566,-4.223c-1.17,-3.951 -1.756,-6.943 -1.756,-8.961v-1.41c0,-0.879 0.172,-1.35 0.525,-1.402c0.494,0.262 1.088,2.182 1.77,5.768c0.684,3.576 2.086,5.287 4.207,5.129c4.104,-0.674 6.271,-3.021 6.504,-7.035l-1.582,-5.445v-1.934c0.059,-2.348 0.291,-3.518 0.703,-3.518c0.234,0.525 0.414,1.057 0.525,1.582l2.461,7.732c1.936,3.135 4.328,4.619 7.162,4.439V47.004z" id="path_4"/><path fill="#213877" d="M52.545,14.941c0.18,-0.105 0.232,0.061 0.156,0.486c-0.998,2.342 -2.527,3.977 -4.59,4.898l-7.582,3.803c-0.322,-0.09 -0.383,-0.352 -0.18,-0.795c1.012,-1.951 1.701,-3.105 2.07,-3.473L52.545,14.941z" id="path_5"/><path fill="#C51162" d="M30.748,17.447c0.354,0 0.705,1.176 1.059,3.518l1.582,3.516l-0.705,4.043l0.525,9.848v1.576c-0.232,4.02 -0.818,6.359 -1.756,7.033l-0.172,-0.172l0.172,-2.641c0,-2.369 -0.764,-9.93 -2.287,-22.672C29.9,18.797 30.426,17.447 30.748,17.447z" id="path_6"/><path fill="#f06022" d="M16.814,30.459c5.977,2.137 8.961,4.777 8.961,7.912l0.18,1.051c-0.502,4.102 -1.852,6.15 -4.049,6.15c0,0.381 -2.926,0.854 -8.783,1.408l-0.18,-0.523c0,-2.934 0.525,-4.396 1.582,-4.396c5.857,-0.473 9.084,-1.176 9.668,-2.113c-2.018,-1.959 -4.658,-3.541 -7.912,-4.74l-0.172,-0.885C16.199,31.748 16.432,30.459 16.814,30.459z" id="path_7"/><path fill="#f06022" d="M23.512,18.504l0.18,0.158v0.479c-0.916,1.951 -2.184,3.316 -3.803,4.111c-5.039,2.736 -7.838,4.109 -8.393,4.109c-0.211,0 -0.314,-0.164 -0.314,-0.488c0.486,-1.859 1.545,-3.119 3.164,-3.779l9.016,-4.59H23.512z" id="path_8"/><path fill="#f06022" d="M22.258,14.551c0.203,0 0.309,0.15 0.309,0.459c-0.586,1.701 -2.318,3.232 -5.205,4.596l-6.66,3.646l-0.15,-0.158v-0.172c0.631,-2.229 1.627,-3.6 3.008,-4.109l7.426,-3.803L22.258,14.551z" id="path_9"/><path fill="#6200EA" d="M5.953,17.447c0.354,0 0.705,1.176 1.059,3.518l1.582,3.516l-0.705,4.043l0.525,9.848v1.576c-0.232,4.02 -0.818,6.359 -1.756,7.033l-0.172,-0.172l0.172,-2.641c0,-2.369 -0.766,-9.93 -2.287,-22.672C5.105,18.797 5.631,17.447 5.953,17.447z" id="path_10"/></svg>