<svg id="vector" xmlns="http://www.w3.org/2000/svg" width="75" height="67" viewBox="0 0 83 73"><path fill="#00BFA5" d="M63.29,42.976c0.193,0.014 0.4,0.021 0.63,0.021h1.591c1.685,-0.279 2.967,-0.867 3.863,-1.763L67.36,25.272c0.502,-3.023 0.953,-4.528 1.34,-4.528l2.186,5.038c0,0.781 -0.279,1.956 -0.838,3.525l0.838,9.066v2.522c-0.631,2.673 -1.477,4.544 -2.537,5.604c-0.803,0.853 -1.741,1.283 -2.838,1.283h-1.426c-0.279,0 -0.545,-0.008 -0.795,-0.021V42.976z" id="path_0"/><path fill="#00BFA5" d="M74.706,49.21c0.172,-0.094 0.222,0.057 0.15,0.465c-0.953,2.236 -2.416,3.799 -4.387,4.681l-7.245,3.634c-0.308,-0.086 -0.365,-0.337 -0.172,-0.753c0.968,-1.863 1.627,-2.968 1.978,-3.317L74.706,49.21z" id="path_1"/><path fill="#000001" d="M54.997,49.633c0.574,0 1.921,0.673 4.035,2.014c0,0.839 -0.674,2.186 -2.021,4.034c-2.688,-0.873 -4.027,-1.654 -4.027,-2.357C53.056,52.7 53.722,51.468 54.997,49.633z" id="path_2"/><path fill="#000001" d="M48.884,42.996c1.197,0.015 1.936,-0.007 2.229,-0.064c2.522,-0.767 4.242,-2.401 5.167,-4.888c0.137,-0.48 0.416,-0.537 0.838,-0.172c0.223,0.193 0.395,0.982 0.502,2.351c1.527,2.058 3.434,2.981 5.712,2.773h0.444v4.788h-0.107c-3.568,-0.165 -6.199,-1.793 -7.897,-4.874h-0.165c-1.189,2.509 -2.76,4.05 -4.701,4.622c-0.588,0.166 -1.262,0.252 -2.021,0.252V42.996z" id="path_3"/><path fill="#000001" d="M61.419,22.586c0.172,-0.101 0.222,0.058 0.15,0.466c-0.953,2.236 -2.416,3.799 -4.387,4.68l-7.245,3.633c-0.308,-0.086 -0.365,-0.336 -0.172,-0.759c0.968,-1.864 1.626,-2.968 1.978,-3.318L61.419,22.586z" id="path_4"/><path fill="#DD2C00" d="M48.927,47.784c-3.26,0.193 -5.633,-1.313 -7.116,-4.516c-0.716,-1.189 -1.383,-9.209 -2.014,-24.059v-0.336c0.415,-2.466 1.032,-3.699 1.842,-3.699l0.846,-0.164c1.032,0 2.602,0.336 4.701,1.003v0.337c-0.114,0.337 -0.451,0.51 -1.011,0.51h-2.852c-0.588,0 -1.146,0.329 -1.685,1.002c0.523,12.894 1.282,20.361 2.294,22.403c1.002,2.042 2.672,2.952 4.994,2.73V47.784z" id="path_5"/><path fill="#FFAB00" d="M16.255,42.996h0.064c2.602,-0.114 4.393,-1.368 5.375,-3.776c0,-0.337 0.222,-0.617 0.674,-0.846h0.336c0.223,0 0.338,0.172 0.338,0.509l-0.173,1.003c0.953,1.685 1.964,2.523 3.024,2.523h0.838c1.455,0 2.58,-1.455 3.361,-4.365h0.172c0.166,0.021 0.445,0.695 0.839,2.014c0.953,0.839 1.899,1.34 2.853,1.513c1.118,0 1.684,-0.674 1.684,-2.015c0.107,-2.128 0.33,-3.195 0.667,-3.195c0.452,0.953 0.674,2.129 0.674,3.525c0,4.149 -1.011,6.221 -3.024,6.221c-1.569,0 -2.853,-0.788 -3.863,-2.357h-0.336c-0.695,2.242 -1.82,3.361 -3.361,3.361H26.23c-1.369,0 -2.938,-1.061 -4.701,-3.189c-1.483,2.572 -3.168,3.863 -5.038,3.863h-0.236V42.996z" id="path_6"/><path fill="#f06022" d="M33.533,23.28l0.172,0.151v0.458c-0.874,1.863 -2.085,3.168 -3.634,3.928c-4.815,2.616 -7.488,3.928 -8.02,3.928c-0.2,0 -0.301,-0.158 -0.301,-0.467c0.466,-1.777 1.477,-2.98 3.024,-3.611l8.614,-4.387H33.533z" id="path_7"/><path fill="#f06022" d="M32.337,19.504c0.193,0 0.293,0.144 0.293,0.438c-0.559,1.627 -2.215,3.089 -4.973,4.394l-6.365,3.482l-0.143,-0.15v-0.165c0.602,-2.128 1.555,-3.44 2.874,-3.927l7.095,-3.634L32.337,19.504z" id="path_8"/><path fill="#213877" d="M17.101,47.784h-0.424c-4.056,0 -6.578,-2.853 -7.553,-8.564L8.112,22.923c0.424,-2.352 0.868,-3.691 1.348,-4.027h0.166c0.222,0 0.336,0.164 0.336,0.501c0,11.116 0.725,18.139 2.186,21.077c1.484,1.641 3.133,2.473 4.953,2.502V47.784z" id="path_9"/></svg>