<svg id="vector" xmlns="http://www.w3.org/2000/svg" width="75" height="67" viewBox="0 0 83 73"><path fill="#213877" d="M59.204,42.277h1.817c1.918,-0.262 4.967,-0.975 9.146,-2.127v-0.16c-3.81,-1.684 -6.226,-2.523 -7.255,-2.523c-1.394,0 -2.336,0.787 -2.841,2.369l-0.471,0.314c-0.209,0 -0.316,-0.16 -0.316,-0.477c0.524,-3.15 1.945,-4.732 4.261,-4.732h0.787c0.976,0 4.287,1.104 9.94,3.313l4.261,0.316l0.31,0.477c-0.074,0.707 -0.707,2.074 -1.892,4.1h-0.471l-0.633,-0.162h-0.787c-8.205,2.424 -12.99,3.682 -14.356,3.789h-1.501V42.277z" id="path_0"/><path fill="#213877" d="M72.988,48.76c0.161,-0.088 0.209,0.055 0.142,0.438c-0.896,2.1 -2.269,3.566 -4.119,4.395l-6.805,3.412c-0.289,-0.08 -0.344,-0.316 -0.162,-0.707c0.909,-1.748 1.528,-2.785 1.858,-3.115L72.988,48.76z" id="path_1"/><path fill="#000001" d="M59.837,46.773c-0.249,0 -0.552,0 -0.909,0c-1.406,-0.014 -2.921,-1.068 -4.556,-3.176c-0.626,2.314 -1.73,3.473 -3.312,3.473h-0.155c-1.34,0 -2.442,-0.787 -3.312,-2.369h-0.161C46.49,46.6 45.347,47.461 44,47.285c-2.497,0.014 -3.978,-1.164 -4.455,-3.525c-1.757,2.059 -3.648,3.068 -5.661,3.014h-0.256v-4.496h0.081c3.184,-0.107 5.546,-1.189 7.101,-3.25c0.209,0 0.316,0.154 0.316,0.471l-0.161,1.104c0.841,1.684 1.944,2.525 3.312,2.525c1.292,0 2.604,-1.26 3.943,-3.783h0.162l0.471,0.471v1.104c0,0.996 0.74,1.576 2.208,1.736h0.316c1.366,0 2.632,-1.365 3.789,-4.105h0.154c0.209,0 0.316,0.479 0.316,1.422c0.579,1.594 1.979,2.361 4.2,2.307V46.773z" id="path_2"/><path fill="#000001" d="M52.878,24.355c0.161,-0.094 0.208,0.053 0.141,0.438c-0.895,2.1 -2.268,3.566 -4.118,4.395L42.096,32.6c-0.29,-0.08 -0.344,-0.316 -0.162,-0.713c0.909,-1.75 1.528,-2.787 1.858,-3.117L52.878,24.355z" id="path_3"/><path fill="#DD2C00" d="M34.504,46.773h-0.397c-3.81,0 -6.179,-2.678 -7.094,-8.043l-0.949,-15.305c0.397,-2.207 0.814,-3.465 1.266,-3.783h0.154c0.209,0 0.316,0.156 0.316,0.473c0,10.439 0.68,17.035 2.053,19.793c1.394,1.543 2.941,2.322 4.651,2.35V46.773z" id="path_4"/><path fill="#f06022" d="M14.211,49.197c0.539,0 1.797,0.633 3.783,1.898c0,0.787 -0.626,2.045 -1.892,3.781c-2.523,-0.814 -3.782,-1.547 -3.782,-2.207C12.381,52.078 13.013,50.92 14.211,49.197z" id="path_5"/><path fill="#f06022" d="M10.422,42.277c4.133,0.041 6.441,-0.732 6.946,-2.328c0,-0.551 -0.525,-1.918 -1.582,-4.098l0.479,-4.1h0.309c1.373,2.361 2.054,4.73 2.054,7.094v1.42c0,0.949 -0.229,1.945 -0.681,2.988c-0.45,1.043 -1.15,1.926 -2.086,2.631c-0.942,0.715 -2.753,1.01 -5.438,0.889V42.277z" id="path_6"/><path fill="#f06022" d="M22.416,21.004l0.161,0.141v0.432c-0.821,1.75 -1.958,2.975 -3.412,3.688c-4.522,2.457 -7.033,3.688 -7.531,3.688c-0.188,0 -0.283,-0.146 -0.283,-0.438c0.438,-1.668 1.387,-2.799 2.841,-3.391l8.09,-4.119H22.416z" id="path_7"/><path fill="#f06022" d="M21.292,17.457c0.182,0 0.275,0.133 0.275,0.41c-0.524,1.527 -2.079,2.9 -4.671,4.125l-5.977,3.271l-0.134,-0.141v-0.156c0.564,-1.998 1.46,-3.23 2.698,-3.688l6.663,-3.412L21.292,17.457z" id="path_8"/><path fill="#00C853" d="M12.73,46.773c-3.062,0.182 -5.29,-1.23 -6.684,-4.24c-0.672,-1.117 -1.299,-8.648 -1.891,-22.594v-0.316c0.391,-2.314 0.969,-3.473 1.729,-3.473l0.794,-0.154c0.97,0 2.443,0.316 4.415,0.941v0.316c-0.107,0.316 -0.424,0.479 -0.948,0.479H7.468c-0.552,0 -1.077,0.309 -1.582,0.941C6.377,30.783 7.091,37.795 8.04,39.715c0.942,1.918 2.51,2.771 4.69,2.563V46.773z" id="path_9"/></svg>