<svg id="vector" xmlns="http://www.w3.org/2000/svg" width="75" height="67" viewBox="0 0 83 73"><path fill="#213877" d="M55.856,45.163h0.353c1.199,0.263 2.489,0.967 3.869,2.115v0.172c-0.795,2.4 -1.492,3.69 -2.106,3.87c-1.793,-0.353 -3.136,-0.938 -4.043,-1.763v-0.172C53.928,48.005 54.573,46.602 55.856,45.163z" id="path_0"/><path fill="#213877" d="M62.366,43.58h0.173c1.199,0.181 2.55,0.998 4.042,2.461v0.18l-2.107,3.689c-2.813,-0.907 -4.223,-1.672 -4.223,-2.287C61.158,44.93 61.863,43.58 62.366,43.58z" id="path_1"/><path fill="#213877" d="M55.068,37.123c4.605,0.045 7.178,-0.817 7.74,-2.596c0,-0.614 -0.585,-2.137 -1.763,-4.566l0.532,-4.568h0.346c1.529,2.633 2.287,5.273 2.287,7.905v1.583c0,1.057 -0.255,2.167 -0.758,3.329c-0.502,1.163 -1.282,2.146 -2.324,2.933c-1.051,0.795 -3.068,1.125 -6.061,0.99V37.123z" id="path_2"/><path fill="#213877" d="M67.481,13.281c0.18,-0.105 0.232,0.059 0.157,0.486c-0.998,2.34 -2.527,3.975 -4.59,4.898l-7.583,3.802c-0.322,-0.09 -0.382,-0.353 -0.18,-0.795c1.013,-1.95 1.702,-3.104 2.07,-3.473L67.481,13.281z" id="path_3"/><path fill="#000001" d="M55.068,42.132l-1.979,-0.022c-1.096,4.822 -3.998,7.26 -8.7,7.32c-2.521,0.112 -3.78,0.067 -3.78,-0.135c0.232,-0.442 1.92,-1.29 5.055,-2.551c3.226,-2.047 5.168,-3.367 5.843,-3.952l0.18,-0.525l-3.074,-0.487c-2.243,-0.585 -3.503,-1.71 -3.78,-3.382v-0.353c0,-2.843 0.697,-4.657 2.107,-5.453l1.058,-0.173c2.077,0 3.772,1.448 5.093,4.351c0.84,0.292 1.5,0.436 1.979,0.42V42.132z" id="path_4"/><path fill="#000001" d="M46.916,17.96h1.74c2.107,0 3.165,0.787 3.165,2.369c-1.365,3.69 -3.022,5.648 -4.973,5.873l-2.303,0.307c-0.367,0 -0.518,-0.104 -0.465,-0.307c1.86,-0.982 3.6,-2.152 5.213,-3.495c-0.57,-0.532 -1.2,-0.795 -1.891,-0.795h-0.487l-1.89,0.157l-0.15,-0.157v-0.308C45.768,19.175 46.451,17.96 46.916,17.96z" id="path_5"/><path fill="#f06022" d="M33.986,27.531c2.677,0.292 4.08,1.701 4.192,4.236v0.818c-0.646,5.152 -1.755,7.732 -3.338,7.732h-0.173c-0.824,0 -2.932,-0.585 -6.33,-1.755c-1.492,3.457 -3.427,5.564 -5.805,6.322c-3.337,1.058 -5.385,1.582 -6.149,1.582h-0.705c-0.263,-0.112 -0.375,-0.292 -0.346,-0.524c0.083,-0.263 1.605,-1.2 4.568,-2.813c5.272,-3.256 7.912,-6.008 7.912,-8.266c0.817,-3.135 1.987,-5.242 3.51,-6.322C32.118,27.943 33.002,27.605 33.986,27.531L33.986,27.531zM30.446,33.815c-0.03,0.075 -0.03,0.128 0,0.173l4.92,1.41c0.239,0.06 0.412,0 0.532,-0.18c0,-1.373 -1.117,-2.258 -3.345,-2.633H32.38C31.675,32.585 31.031,32.99 30.446,33.815z" id="path_6"/><path fill="#f06022" d="M34.465,50.893l0.181,0.157v0.479c-0.908,1.95 -2.176,3.315 -3.803,4.11c-5.04,2.737 -7.838,4.11 -8.393,4.11c-0.203,0 -0.308,-0.165 -0.308,-0.487c0.479,-1.86 1.537,-3.12 3.165,-3.78l9.007,-4.59H34.465z" id="path_7"/><path fill="#f06022" d="M33.213,46.94c0.21,0 0.307,0.15 0.307,0.458c-0.585,1.702 -2.317,3.232 -5.204,4.597l-6.66,3.646l-0.15,-0.157V55.31c0.63,-2.228 1.635,-3.6 3.008,-4.109l7.433,-3.803L33.213,46.94z" id="path_8"/></svg>