<svg id="vector" xmlns="http://www.w3.org/2000/svg" width="75" height="67" viewBox="0 0 83 73"><path fill="#9e3b21" d="M35.893,44.847c1.37,0 2.748,0.683 4.132,2.053c0.133,0.233 0.082,0.417 -0.158,0.557c-0.24,0.132 -0.461,0.106 -0.657,-0.096c-0.594,-0.53 -1.435,-0.796 -2.521,-0.796h-0.461c-0.455,0 -0.985,0.196 -1.592,0.575c0,1.111 1.333,1.794 3.998,2.053l2.646,-1.036l0.107,0.354c0,1.244 -1.527,2.355 -4.586,3.328l-4.238,2.407l-0.441,0.114c-0.178,0.037 -0.291,-0.039 -0.354,-0.222c0,-0.67 0.953,-1.586 2.867,-2.761v-0.107c-0.922,-0.511 -1.391,-1.238 -1.391,-2.186C33.683,46.262 34.56,44.847 35.893,44.847z" id="path_0"/><path fill="#000001" d="M74.921,27.974c0.266,0 0.529,0.884 0.795,2.641l1.188,2.64l-0.529,3.034l0.395,7.392v1.183c-0.175,3.018 -0.614,4.774 -1.318,5.28l-0.129,-0.129l0.129,-1.981c0,-1.779 -0.574,-7.454 -1.717,-17.019C74.285,28.987 74.679,27.974 74.921,27.974z" id="path_1"/><path fill="#000001" d="M78.862,20.256c0.135,-0.079 0.174,0.045 0.118,0.366c-0.749,1.756 -1.897,2.983 -3.445,3.676l-5.691,2.854c-0.242,-0.068 -0.287,-0.265 -0.135,-0.597c0.759,-1.464 1.278,-2.331 1.554,-2.607L78.862,20.256z" id="path_2"/><path fill="#9e3b21" d="M59.569,46.365c0.152,0.012 0.316,0.018 0.496,0.018h1.25c1.322,-0.22 2.33,-0.682 3.033,-1.386l-1.581,-12.536c0.394,-2.376 0.749,-3.559 1.053,-3.559l1.717,3.958c0,0.613 -0.22,1.537 -0.659,2.77l0.659,7.121v1.981c-0.495,2.101 -1.159,3.569 -1.993,4.403c-0.63,0.669 -1.367,1.007 -2.229,1.007h-1.121c-0.219,0 -0.428,-0.005 -0.625,-0.017V46.365z" id="path_3"/><path fill="#9e3b21" d="M65.441,21.298h1.306c1.582,0 2.376,0.59 2.376,1.778c-1.024,2.77 -2.269,4.239 -3.732,4.408l-1.728,0.23c-0.276,0 -0.389,-0.079 -0.35,-0.23c1.396,-0.738 2.702,-1.616 3.912,-2.624c-0.428,-0.399 -0.9,-0.596 -1.418,-0.596h-0.366l-1.419,0.117l-0.112,-0.117v-0.231C64.58,22.21 65.093,21.298 65.441,21.298z" id="path_4"/><path fill="#213877" d="M50.265,46.383h0.298c0.901,0 1.853,-0.35 2.854,-1.048s1.587,-1.576 1.768,-2.629l0.129,-0.135h0.13c0.157,0 0.378,0.484 0.664,1.452c1.25,1.717 3.013,2.505 5.275,2.376c0.151,0 0.31,-0.006 0.462,-0.017v3.777c-0.152,0.011 -0.311,0.017 -0.462,0.017l-1.847,-0.214c-0.197,1.756 -0.771,2.635 -1.717,2.64h-0.265c-1.757,-0.331 -2.635,-0.945 -2.635,-1.852l0.394,-2.376c-0.31,-0.349 -0.613,-0.523 -0.923,-0.523c-0.991,1.548 -2.364,2.313 -4.126,2.291V46.383z" id="path_5"/><path fill="#213877" d="M60.718,29.905c0.136,-0.079 0.176,0.045 0.119,0.365c-0.749,1.757 -1.897,2.983 -3.445,3.677L51.7,36.801c-0.242,-0.067 -0.287,-0.265 -0.135,-0.597c0.76,-1.464 1.277,-2.33 1.553,-2.606L60.718,29.905z" id="path_6"/><path fill="#000001" d="M51.058,50.143l-1.486,-0.017c-0.821,3.62 -3,5.449 -6.529,5.494c-1.893,0.085 -2.838,0.051 -2.838,-0.101c0.175,-0.333 1.441,-0.969 3.795,-1.914c2.42,-1.537 3.879,-2.528 4.385,-2.967l0.135,-0.395l-2.307,-0.366c-1.684,-0.438 -2.63,-1.283 -2.838,-2.538v-0.265c0,-2.134 0.523,-3.496 1.582,-4.093l0.793,-0.13c1.56,0 2.832,1.087 3.822,3.266c0.631,0.22 1.127,0.326 1.486,0.314V50.143z" id="path_7"/><path fill="#000001" d="M44.938,31.999h1.307c1.582,0 2.375,0.591 2.375,1.779c-1.024,2.77 -2.268,4.238 -3.732,4.407l-1.729,0.231c-0.275,0 -0.389,-0.079 -0.349,-0.231c1.396,-0.737 2.702,-1.615 3.913,-2.623c-0.428,-0.4 -0.901,-0.597 -1.419,-0.597h-0.366l-1.418,0.118l-0.113,-0.118v-0.231C44.077,32.911 44.59,31.999 44.938,31.999z" id="path_8"/><path fill="#000001" d="M28.965,47.319H29.3c0.977,0 1.699,0.834 2.173,2.504l0.082,0.834c0.028,0.271 0.028,0.549 0,0.837c-0.249,1.015 -0.809,2.017 -1.671,3.003c-0.599,0.502 -1.959,0.891 -4.09,1.168c-0.249,-0.11 -0.392,-0.221 -0.416,-0.331c3.563,-1.935 5.344,-3.103 5.344,-3.509l0.081,-0.249l-0.081,-0.082l-0.752,0.249h-0.417c-1.503,0 -2.255,-0.53 -2.255,-1.585v-0.167c0.192,-1.729 0.612,-2.59 1.25,-2.59L28.965,47.319z" id="path_9"/><path fill="#000001" d="M18.615,37.741c4.486,1.604 6.728,3.586 6.728,5.938l0.135,0.789c-0.377,3.079 -1.391,4.615 -3.04,4.615c0,0.287 -2.195,0.643 -6.592,1.059l-0.136,-0.394c0,-2.201 0.395,-3.299 1.188,-3.299c4.396,-0.354 6.817,-0.884 7.256,-1.588c-1.514,-1.469 -3.496,-2.657 -5.939,-3.558l-0.129,-0.664C18.153,38.709 18.328,37.741 18.615,37.741z" id="path_10"/><path fill="#000001" d="M23.822,28.52c0.136,-0.078 0.175,0.046 0.118,0.366c-0.748,1.757 -1.896,2.983 -3.445,3.676l-5.691,2.854c-0.242,-0.067 -0.287,-0.265 -0.135,-0.597c0.76,-1.464 1.278,-2.331 1.554,-2.606L23.822,28.52z" id="path_11"/><path fill="#213877" d="M5.785,29.905c1.03,0.31 2.089,0.968 3.164,1.981v0.129c-0.985,1.739 -1.56,2.618 -1.711,2.641h-0.4c-0.743,-0.112 -1.536,-0.591 -2.376,-1.453v-0.129C4.553,32.038 4.991,30.985 5.785,29.905z" id="path_12"/><path fill="#213877" d="M10.796,30.169c0.968,0.22 1.937,0.794 2.904,1.718v0.129c0,0.484 -0.528,1.362 -1.582,2.641h-0.394c-0.619,0 -1.407,-0.484 -2.376,-1.453C9.591,31.841 10.075,30.828 10.796,30.169z" id="path_13"/><path fill="#213877" d="M12.958,36.554l0.135,0.394c-0.181,0.749 -0.969,1.627 -2.376,2.641c1.407,1.143 2.111,2.814 2.111,5.016v0.129c0,3.609 -1.498,5.41 -4.487,5.41c-2.375,-0.462 -3.563,-1.649 -3.563,-3.563V46.45c0.09,-1.649 0.748,-3.412 1.98,-5.28c-1.143,-0.35 -1.717,-0.834 -1.717,-1.453c0,-1.649 0.13,-2.657 0.395,-3.034c1.188,0.332 2.511,0.991 3.957,1.981h0.136L12.958,36.554L12.958,36.554zM7.813,41.828c-1.054,1.059 -1.582,1.807 -1.582,2.246c0,1.362 0.968,2.156 2.904,2.376c1.008,-0.136 1.892,-0.484 2.635,-1.059C10.914,43.917 9.597,42.734 7.813,41.828z" id="path_14"/><path fill="#213877" d="M9.298,17.334c1.352,0 2.027,0.833 2.027,2.494c0,2.646 -2.258,4.903 -6.778,6.761c-0.647,0.197 -0.727,-0.039 -0.23,-0.709c0.124,-0.253 1.188,-1.047 3.197,-2.375v-0.113c-0.867,-0.355 -1.301,-1.109 -1.301,-2.264c0.575,-2.527 1.486,-3.794 2.736,-3.794H9.298L9.298,17.334zM7.283,20.188c0,0.703 0.597,1.137 1.784,1.307h0.23c0.439,0 0.721,-0.164 0.839,-0.479c0,-0.716 -0.518,-1.273 -1.548,-1.667C8.139,19.35 7.705,19.631 7.283,20.188z" id="path_15"/><path fill="#9e3b21" d="M37.071,33.08c1.351,0 2.026,0.833 2.026,2.494c0,2.646 -2.257,4.903 -6.778,6.761c-0.646,0.197 -0.726,-0.039 -0.23,-0.709c0.124,-0.254 1.188,-1.048 3.197,-2.376v-0.112c-0.866,-0.354 -1.301,-1.109 -1.301,-2.264c0.574,-2.527 1.486,-3.794 2.736,-3.794H37.071L37.071,33.08zM35.056,35.935c0,0.703 0.597,1.137 1.785,1.306h0.23c0.439,0 0.721,-0.163 0.838,-0.479c0,-0.715 -0.518,-1.272 -1.547,-1.666C35.911,35.096 35.478,35.377 35.056,35.935z" id="path_16"/></svg>