<svg id="vector" xmlns="http://www.w3.org/2000/svg" width="75" height="67" viewBox="0 0 83 73"><path fill="#FF6D00" d="M58.651,52.578h0.338c1.151,0.252 2.389,0.928 3.712,2.028v0.165c-0.763,2.303 -1.432,3.539 -2.021,3.712c-1.72,-0.338 -3.008,-0.899 -3.878,-1.69v-0.165C56.802,55.303 57.421,53.958 58.651,52.578z" id="path_0"/><path fill="#FF6D00" d="M64.895,51.059h0.165c1.151,0.173 2.446,0.957 3.878,2.36v0.172l-2.021,3.539c-2.698,-0.87 -4.05,-1.604 -4.05,-2.193C63.737,52.354 64.413,51.059 64.895,51.059z" id="path_1"/><path fill="#FF6D00" d="M57.155,44.866c4.417,0.044 6.885,-0.784 7.424,-2.489c0,-0.589 -0.562,-2.049 -1.69,-4.38l0.511,-4.381h0.331c1.467,2.524 2.193,5.057 2.193,7.582v1.518c0,1.014 -0.244,2.079 -0.727,3.193c-0.481,1.115 -1.229,2.058 -2.229,2.813c-1.008,0.763 -2.942,1.079 -5.813,0.95V44.866z" id="path_2"/><path fill="#FF6D00" d="M69.801,21.999c0.172,-0.102 0.223,0.057 0.15,0.467c-0.957,2.245 -2.424,3.813 -4.402,4.698l-7.272,3.646c-0.31,-0.086 -0.367,-0.338 -0.173,-0.762c0.972,-1.871 1.633,-2.979 1.985,-3.331L69.801,21.999z" id="path_3"/><path fill="#213877" d="M57.954,49.693c-2.892,-0.194 -5.518,-1.776 -7.877,-4.74h-0.173c-1.007,5.841 -3.259,8.762 -6.74,8.769h-0.511c-1.511,-0.007 -2.979,-1.353 -4.381,-4.05c-1.122,-3.791 -1.683,-6.661 -1.683,-8.597v-1.352c0,-0.842 0.165,-1.295 0.503,-1.346c0.475,0.252 1.043,2.094 1.698,5.532c0.654,3.431 1.999,5.071 4.035,4.92c3.935,-0.647 6.014,-2.898 6.237,-6.747l-1.519,-5.223v-1.856c0.058,-2.251 0.281,-3.373 0.676,-3.373c0.224,0.504 0.396,1.014 0.504,1.518l2.359,7.416c1.856,3.007 4.151,4.432 6.87,4.259V49.693z" id="path_4"/><path fill="#213877" d="M52.94,18.941c0.173,-0.101 0.223,0.058 0.15,0.468c-0.956,2.244 -2.424,3.813 -4.402,4.697l-7.272,3.647c-0.309,-0.087 -0.366,-0.339 -0.173,-0.763c0.972,-1.871 1.633,-2.979 1.986,-3.331L52.94,18.941z" id="path_5"/><path fill="#213877" d="M29.734,21.343c0.338,0 0.676,1.13 1.014,3.374l1.518,3.374l-0.676,3.877l0.504,9.445v1.51c-0.223,3.856 -0.784,6.101 -1.684,6.748l-0.165,-0.166l0.165,-2.532c0,-2.272 -0.733,-9.523 -2.194,-21.745C28.92,22.639 29.424,21.343 29.734,21.343z" id="path_6"/><path fill="#000001" d="M23.706,32.306l0.173,0.504c-0.23,0.957 -1.237,2.079 -3.036,3.374c1.799,1.46 2.698,3.597 2.698,6.409v0.165c0,4.611 -1.914,6.913 -5.733,6.913c-3.035,-0.59 -4.554,-2.107 -4.554,-4.554v-0.165c0.115,-2.108 0.957,-4.359 2.532,-6.748c-1.46,-0.445 -2.194,-1.064 -2.194,-1.855c0,-2.107 0.166,-3.396 0.504,-3.877c1.518,0.424 3.208,1.266 5.057,2.531h0.173L23.706,32.306L23.706,32.306zM17.13,39.046c-1.345,1.353 -2.021,2.31 -2.021,2.87c0,1.741 1.237,2.755 3.712,3.036c1.287,-0.173 2.417,-0.619 3.366,-1.353C21.094,41.715 19.411,40.205 17.13,39.046z" id="path_7"/><path fill="#000001" d="M19.792,14.517c1.727,0 2.59,1.064 2.59,3.187c0,3.381 -2.885,6.266 -8.661,8.64c-0.827,0.252 -0.928,-0.051 -0.295,-0.906c0.158,-0.324 1.518,-1.338 4.086,-3.036v-0.144c-1.107,-0.453 -1.662,-1.417 -1.662,-2.892c0.734,-3.23 1.899,-4.849 3.496,-4.849H19.792L19.792,14.517zM17.217,18.165c0,0.898 0.763,1.453 2.28,1.669h0.295c0.562,0 0.921,-0.209 1.071,-0.612c0,-0.913 -0.661,-1.625 -1.978,-2.129C18.311,17.092 17.756,17.452 17.217,18.165z" id="path_8"/></svg>