<svg id="vector" xmlns="http://www.w3.org/2000/svg" width="75" height="67" viewBox="0 0 83 73"><path fill="#000000" d="M48.883,13.909l0.156,0.156c0,2.052 -1.625,4.182 -4.871,6.389c-1.902,0.812 -3.831,1.221 -5.786,1.221l-1.369,-0.155c-0.507,1.929 -0.864,2.896 -1.065,2.896c-0.227,0 -0.532,-0.812 -0.915,-2.435c-0.708,-0.968 -1.877,-2.182 -3.5,-3.655V18.02c0.357,-2.026 0.766,-3.039 1.221,-3.039c1.98,2.13 4.415,3.195 7.305,3.195C43.408,18.176 46.35,16.753 48.883,13.909z" id="path_0"/><path fill="#304FFE" d="M53.719,53.306c2.131,1.064 3.195,1.979 3.195,2.739c-1.014,2.007 -1.623,3.02 -1.824,3.046h-0.307c-1.557,-0.786 -2.525,-1.5 -2.889,-2.13C52.246,55.805 52.855,54.584 53.719,53.306z" id="path_1"/><path fill="#304FFE" d="M45.42,49.272h1.754c1.852,-0.253 4.793,-0.941 8.824,-2.052v-0.155c-3.674,-1.624 -6.006,-2.436 -7,-2.436c-1.344,0 -2.252,0.76 -2.74,2.286l-0.453,0.305c-0.201,0 -0.307,-0.155 -0.307,-0.461c0.508,-3.038 1.877,-4.564 4.111,-4.564h0.76c0.941,0 4.137,1.064 9.59,3.194l4.111,0.306l0.297,0.461c-0.07,0.682 -0.682,2 -1.824,3.954H62.09l-0.611,-0.155h-0.76c-7.914,2.337 -12.531,3.552 -13.85,3.655H45.42V49.272z" id="path_2"/><path fill="#304FFE" d="M59.803,29.43c0.156,-0.091 0.201,0.052 0.137,0.422c-0.863,2.026 -2.188,3.441 -3.975,4.24L49.4,37.384c-0.279,-0.078 -0.33,-0.306 -0.154,-0.688c0.877,-1.688 1.473,-2.688 1.791,-3.007L59.803,29.43z" id="path_3"/><path fill="#000001" d="M45.746,53.61c-2.955,0.176 -5.104,-1.188 -6.449,-4.091c-0.649,-1.078 -1.253,-8.344 -1.824,-21.798v-0.305c0.377,-2.234 0.936,-3.351 1.669,-3.351l0.766,-0.149c0.936,0 2.358,0.305 4.26,0.909v0.305c-0.104,0.306 -0.41,0.461 -0.916,0.461h-2.584c-0.532,0 -1.038,0.299 -1.525,0.909c0.474,11.682 1.162,18.447 2.078,20.298c0.909,1.851 2.422,2.676 4.526,2.474V53.61z" id="path_4"/><path fill="#00BFA5" d="M25.09,43.98c1.402,0 2.817,0.701 4.239,2.11c0.137,0.24 0.085,0.429 -0.162,0.571c-0.246,0.137 -0.474,0.104 -0.675,-0.097c-0.61,-0.546 -1.475,-0.818 -2.591,-0.818h-0.475c-0.468,0 -1.013,0.201 -1.636,0.591c0,1.143 1.37,1.844 4.11,2.109l2.72,-1.064l0.117,0.363c0,1.279 -1.578,2.423 -4.721,3.423l-4.356,2.474l-0.454,0.117c-0.176,0.039 -0.299,-0.04 -0.364,-0.228c0,-0.688 0.987,-1.63 2.948,-2.838v-0.116c-0.948,-0.521 -1.422,-1.267 -1.422,-2.24C22.811,45.429 23.719,43.98 25.09,43.98z" id="path_5"/><path fill="#00BFA5" d="M29.291,33.117c0.156,-0.091 0.202,0.052 0.137,0.422c-0.863,2.026 -2.188,3.441 -3.974,4.24l-6.564,3.292c-0.279,-0.077 -0.331,-0.305 -0.156,-0.688c0.877,-1.688 1.475,-2.688 1.792,-3.006L29.291,33.117z" id="path_6"/></svg>