<svg id="vector" xmlns="http://www.w3.org/2000/svg" width="75" height="67" viewBox="0 0 83 73"><path fill="#000001" d="M63.758,26.546c1.656,0.53 2.945,1.203 3.863,2.014v0.336c0,0.56 -0.609,1.793 -1.842,3.699c-1.146,0 -2.437,-0.617 -3.863,-1.85v-0.337C61.917,29.204 62.534,27.915 63.758,26.546z" id="path_0"/><path fill="#000001" d="M58.971,45.902c4.4,0.044 6.859,-0.78 7.396,-2.479c0,-0.588 -0.56,-2.043 -1.685,-4.364l0.509,-4.364h0.33c1.461,2.516 2.186,5.037 2.186,7.553v1.513c0,1.011 -0.244,2.071 -0.725,3.183c-0.479,1.11 -1.225,2.049 -2.221,2.802c-1.004,0.76 -2.932,1.075 -5.791,0.946V45.902z" id="path_1"/><path fill="#000001" d="M70.56,16.362c0.172,-0.101 0.222,0.057 0.15,0.465c-0.953,2.236 -2.415,3.799 -4.386,4.68l-7.246,3.634c-0.308,-0.086 -0.365,-0.337 -0.172,-0.759c0.968,-1.863 1.627,-2.967 1.979,-3.318L70.56,16.362z" id="path_2"/><path fill="#9e3b21" d="M50.917,52.539c0.572,0 1.92,0.673 4.034,2.014c0,0.839 -0.674,2.187 -2.021,4.034c-2.688,-0.873 -4.027,-1.654 -4.027,-2.357C48.973,55.606 49.641,54.374 50.917,52.539z" id="path_3"/><path fill="#9e3b21" d="M44.803,45.902c1.196,0.015 1.935,-0.007 2.229,-0.063c2.522,-0.768 4.242,-2.401 5.167,-4.889c0.136,-0.48 0.416,-0.537 0.839,-0.172c0.222,0.193 0.395,0.982 0.502,2.352c1.525,2.057 3.432,2.98 5.711,2.772h0.445v4.788h-0.107c-3.57,-0.165 -6.2,-1.792 -7.898,-4.873h-0.165c-1.189,2.508 -2.759,4.049 -4.701,4.621c-0.587,0.166 -1.261,0.252 -2.021,0.252V45.902z" id="path_4"/><path fill="#9e3b21" d="M57.336,25.492c0.173,-0.101 0.223,0.058 0.15,0.466c-0.952,2.236 -2.414,3.799 -4.385,4.68l-7.246,3.633c-0.309,-0.086 -0.365,-0.336 -0.172,-0.759c0.967,-1.863 1.627,-2.967 1.979,-3.318L57.336,25.492z" id="path_5"/><path fill="#000001" d="M44.846,50.69c-3.262,0.193 -5.633,-1.313 -7.117,-4.516c-0.717,-1.189 -1.383,-9.209 -2.014,-24.059V21.78c0.416,-2.466 1.032,-3.699 1.842,-3.699l0.846,-0.164c1.032,0 2.602,0.337 4.701,1.004v0.336c-0.115,0.337 -0.451,0.51 -1.01,0.51h-2.853c-0.588,0 -1.147,0.329 -1.685,1.002c0.523,12.894 1.283,20.361 2.293,22.404c1.004,2.041 2.674,2.952 4.996,2.729V50.69z" id="path_6"/><path fill="#000001" d="M19.375,28.416h0.337c1.146,0.251 2.38,0.917 3.698,2.014v0.165c-0.76,2.301 -1.426,3.525 -2.014,3.697c-1.713,-0.336 -2.996,-0.895 -3.863,-1.676v-0.172C17.534,31.125 18.15,29.784 19.375,28.416z" id="path_7"/><path fill="#000001" d="M25.596,26.903h0.165c1.146,0.165 2.437,0.947 3.862,2.352v0.164l-2.014,3.526c-2.688,-0.867 -4.035,-1.591 -4.035,-2.179C24.442,28.187 25.116,26.903 25.596,26.903z" id="path_8"/><path fill="#000001" d="M17.885,45.902c4.4,0.044 6.858,-0.78 7.396,-2.479c0,-0.588 -0.559,-2.043 -1.685,-4.364l0.51,-4.364h0.329c1.462,2.516 2.187,5.037 2.187,7.553v1.513c0,1.011 -0.244,2.071 -0.725,3.183c-0.48,1.11 -1.225,2.049 -2.222,2.802c-1.003,0.76 -2.931,1.075 -5.79,0.946V45.902z" id="path_9"/><path fill="#f06022" d="M31.444,18.189l0.172,0.15v0.458c-0.874,1.863 -2.085,3.168 -3.633,3.928c-4.816,2.616 -7.489,3.928 -8.02,3.928c-0.201,0 -0.301,-0.158 -0.301,-0.466c0.465,-1.777 1.476,-2.981 3.023,-3.612l8.615,-4.386H31.444z" id="path_10"/><path fill="#f06022" d="M30.247,14.413c0.194,0 0.295,0.143 0.295,0.437c-0.56,1.627 -2.215,3.089 -4.975,4.394l-6.363,3.482l-0.144,-0.15V22.41c0.603,-2.128 1.556,-3.439 2.874,-3.927l7.095,-3.634L30.247,14.413z" id="path_11"/><path fill="#9e3b21" d="M21.389,50.69c-3.261,0.193 -5.633,-1.313 -7.116,-4.516c-0.717,-1.189 -1.384,-9.209 -2.014,-24.059V21.78c0.415,-2.466 1.032,-3.699 1.841,-3.699l0.847,-0.164c1.032,0 2.601,0.337 4.701,1.004v0.336c-0.114,0.337 -0.452,0.51 -1.011,0.51h-2.852c-0.588,0 -1.146,0.329 -1.686,1.002c0.523,12.894 1.283,20.361 2.294,22.404c1.003,2.041 2.673,2.952 4.995,2.729V50.69z" id="path_12"/></svg>