<svg id="vector" xmlns="http://www.w3.org/2000/svg" width="75" height="67" viewBox="0 0 83 73"><path fill="#3F51B5" d="M53.93,44.423h1.801c1.899,-0.26 4.92,-0.967 9.06,-2.106v-0.16c-3.773,-1.667 -6.167,-2.5 -7.187,-2.5c-1.38,0 -2.313,0.78 -2.813,2.347l-0.467,0.313c-0.206,0 -0.313,-0.16 -0.313,-0.474c0.521,-3.119 1.927,-4.687 4.221,-4.687h0.78c0.966,0 4.246,1.094 9.846,3.28l4.221,0.313l0.306,0.474c-0.072,0.699 -0.699,2.053 -1.873,4.06h-0.467l-0.626,-0.16h-0.78c-8.127,2.399 -12.866,3.646 -14.22,3.753H53.93V44.423z" id="path_0"/><path fill="#3F51B5" d="M68.87,24.05c0.16,-0.093 0.207,0.053 0.14,0.434c-0.887,2.08 -2.246,3.533 -4.079,4.353l-6.741,3.38c-0.286,-0.08 -0.34,-0.313 -0.159,-0.707c0.899,-1.733 1.514,-2.76 1.84,-3.087L68.87,24.05z" id="path_1"/><path fill="#399121" d="M54.557,48.876c-0.246,0 -0.547,0 -0.899,0c-1.394,-0.013 -2.894,-1.06 -4.514,-3.146c-0.62,2.293 -1.713,3.44 -3.28,3.44H45.71c-1.326,0 -2.42,-0.78 -3.279,-2.347h-0.16c-0.934,1.88 -2.067,2.733 -3.4,2.56c-2.474,0.014 -3.939,-1.153 -4.413,-3.493c-1.74,2.04 -3.613,3.04 -5.606,2.986h-0.254v-4.453h0.08c3.153,-0.106 5.493,-1.18 7.033,-3.22c0.207,0 0.313,0.153 0.313,0.467l-0.16,1.093c0.834,1.667 1.927,2.5 3.28,2.5c1.28,0 2.58,-1.246 3.907,-3.746h0.159l0.467,0.467v1.094c0,0.986 0.733,1.559 2.187,1.719h0.313c1.354,0 2.606,-1.354 3.754,-4.066h0.153c0.206,0 0.313,0.474 0.313,1.407c0.573,1.579 1.96,2.34 4.16,2.286V48.876z" id="path_2"/><path fill="#399121" d="M47.663,26.67c0.16,-0.093 0.207,0.053 0.141,0.433c-0.887,2.08 -2.247,3.534 -4.08,4.354l-6.74,3.38c-0.286,-0.08 -0.34,-0.313 -0.16,-0.707c0.9,-1.733 1.514,-2.76 1.84,-3.087L47.663,26.67z" id="path_3"/><path fill="#000001" d="M29.417,48.897c-2.68,-0.18 -5.113,-1.647 -7.3,-4.394h-0.16c-0.934,5.414 -3.021,8.12 -6.247,8.127h-0.474c-1.399,-0.007 -2.76,-1.254 -4.06,-3.754c-1.04,-3.513 -1.56,-6.173 -1.56,-7.967v-1.253c0,-0.78 0.153,-1.2 0.466,-1.247c0.44,0.234 0.967,1.94 1.574,5.127c0.606,3.18 1.853,4.7 3.74,4.561c3.646,-0.6 5.572,-2.688 5.779,-6.254l-1.406,-4.84v-1.72c0.053,-2.087 0.26,-3.126 0.627,-3.126c0.206,0.466 0.366,0.94 0.466,1.406l2.187,6.874c1.721,2.787 3.847,4.106 6.367,3.947V48.897z" id="path_4"/><path fill="#000001" d="M24.771,20.397c0.16,-0.093 0.206,0.053 0.14,0.434c-0.887,2.08 -2.246,3.533 -4.08,4.353l-6.74,3.38c-0.286,-0.08 -0.34,-0.313 -0.159,-0.707c0.899,-1.733 1.513,-2.76 1.84,-3.087L24.771,20.397z" id="path_5"/></svg>