<svg id="vector" xmlns="http://www.w3.org/2000/svg" width="75" height="67" viewBox="0 0 83 73"><path fill="#163987" d="M60.675,23.944c0.314,0 0.627,1.047 0.941,3.126l1.406,3.127l-0.627,3.593l0.467,8.753v1.4c-0.207,3.572 -0.727,5.652 -1.561,6.253l-0.152,-0.153l0.152,-2.347c0,-2.106 -0.68,-8.827 -2.033,-20.153C59.923,25.144 60.39,23.944 60.675,23.944z" id="path_0"/><path fill="#163987" d="M65.343,14.804c0.16,-0.093 0.207,0.053 0.139,0.434c-0.887,2.08 -2.246,3.533 -4.08,4.353l-6.74,3.38c-0.285,-0.08 -0.34,-0.313 -0.158,-0.707c0.898,-1.733 1.514,-2.76 1.84,-3.086L65.343,14.804z" id="path_1"/><path fill="#000001" d="M45.715,52.597c0.533,0 1.78,0.627 3.747,1.881c0,0.779 -0.619,2.026 -1.873,3.746c-2.501,-0.807 -3.747,-1.533 -3.747,-2.187C43.901,55.45 44.528,54.304 45.715,52.597z" id="path_2"/><path fill="#000001" d="M44.887,45.744c4.095,0.04 6.38,-0.728 6.88,-2.308c0,-0.546 -0.52,-1.899 -1.566,-4.06l0.473,-4.06h0.309c1.359,2.34 2.033,4.687 2.033,7.026v1.407c0,0.939 -0.227,1.926 -0.674,2.959s-1.141,1.907 -2.066,2.607c-0.934,0.707 -2.727,1 -5.388,0.88V45.744z" id="path_3"/><path fill="#000001" d="M54.448,24.377c0.16,-0.093 0.207,0.053 0.141,0.433c-0.887,2.08 -2.246,3.534 -4.08,4.354l-6.741,3.38c-0.286,-0.08 -0.34,-0.313 -0.159,-0.707c0.899,-1.733 1.513,-2.76 1.84,-3.086L54.448,24.377z" id="path_4"/><path fill="#DC1526" d="M45.049,50.218c-2.681,-0.181 -5.113,-1.647 -7.301,-4.395h-0.16c-0.934,5.414 -3.02,8.121 -6.246,8.127h-0.474c-1.399,-0.006 -2.76,-1.253 -4.06,-3.753c-1.04,-3.513 -1.561,-6.173 -1.561,-7.967v-1.253c0,-0.78 0.153,-1.2 0.467,-1.247c0.44,0.233 0.967,1.94 1.574,5.127c0.605,3.18 1.853,4.7 3.739,4.56c3.646,-0.6 5.573,-2.687 5.78,-6.253l-1.406,-4.841v-1.719c0.053,-2.087 0.26,-3.127 0.626,-3.127c0.207,0.467 0.366,0.94 0.467,1.407l2.187,6.873c1.721,2.787 3.847,4.107 6.367,3.947V50.218z" id="path_5"/><path fill="#3F51B5" d="M40.188,22.011l0.16,0.14v0.426c-0.813,1.733 -1.94,2.947 -3.38,3.653c-4.48,2.433 -6.967,3.653 -7.461,3.653c-0.186,0 -0.279,-0.146 -0.279,-0.433c0.434,-1.653 1.373,-2.773 2.813,-3.36l8.013,-4.08H40.188z" id="path_6"/><path fill="#3F51B5" d="M39.075,18.498c0.18,0 0.273,0.133 0.273,0.406c-0.521,1.514 -2.06,2.874 -4.627,4.087l-5.92,3.24l-0.134,-0.14v-0.153c0.561,-1.98 1.447,-3.2 2.674,-3.653l6.6,-3.38L39.075,18.498z" id="path_7"/><path fill="#000001" d="M18.895,23.944c0.314,0 0.627,1.047 0.94,3.126l1.407,3.127l-0.627,3.593l0.467,8.753v1.4c-0.207,3.572 -0.727,5.652 -1.561,6.253l-0.153,-0.153l0.153,-2.347c0,-2.106 -0.68,-8.827 -2.033,-20.153C18.142,25.144 18.608,23.944 18.895,23.944z" id="path_8"/></svg>