<svg id="vector" xmlns="http://www.w3.org/2000/svg" width="75" height="67" viewBox="0 0 83 73"><path fill="#399121" d="M59.57,25.5c2.188,1.094 3.281,2.034 3.281,2.813c-1.041,2.054 -1.666,3.101 -1.873,3.127h-0.314c-1.6,-0.807 -2.594,-1.54 -2.967,-2.187C58.059,28.067 58.684,26.813 59.57,25.5z" id="path_0"/><path fill="#399121" d="M51.051,41.614h1.801c1.9,-0.261 4.92,-0.967 9.061,-2.107v-0.16c-3.773,-1.666 -6.168,-2.5 -7.188,-2.5c-1.381,0 -2.313,0.78 -2.813,2.347l-0.467,0.313c-0.207,0 -0.314,-0.16 -0.314,-0.473c0.52,-3.12 1.928,-4.688 4.221,-4.688h0.779c0.967,0 4.248,1.094 9.848,3.28l4.219,0.313l0.307,0.474c-0.072,0.699 -0.699,2.053 -1.873,4.06h-0.467l-0.627,-0.16h-0.779c-8.127,2.4 -12.867,3.647 -14.221,3.754h-1.486V41.614z" id="path_1"/><path fill="#399121" d="M64.824,15.774c0.16,-0.094 0.207,0.053 0.141,0.433c-0.887,2.08 -2.246,3.534 -4.08,4.354l-6.74,3.38c-0.287,-0.08 -0.34,-0.313 -0.16,-0.707c0.9,-1.732 1.514,-2.76 1.84,-3.086L64.824,15.774z" id="path_2"/><path fill="#000001" d="M43.451,26.494c1.188,0.22 2.334,1 3.439,2.347c-0.832,1.986 -1.613,3.08 -2.346,3.28c-1.166,-0.521 -2.213,-1.147 -3.121,-1.881l-2.033,2.66c-2.393,-0.833 -3.592,-1.46 -3.592,-1.873c0,-0.913 0.625,-2.213 1.873,-3.906c2.086,0.973 3.387,1.753 3.906,2.34C41.838,28.447 42.465,27.454 43.451,26.494z" id="path_3"/><path fill="#000001" d="M39.857,21.647h0.16c2.287,0.967 3.434,1.854 3.434,2.66c-1.027,1.873 -1.912,2.813 -2.652,2.813c-1.381,-0.521 -2.373,-1.147 -2.967,-1.88C38.271,23.747 38.951,22.547 39.857,21.647z" id="path_4"/><path fill="#000001" d="M48.158,49.087c0.16,-0.087 0.207,0.054 0.141,0.434c-0.887,2.08 -2.248,3.533 -4.08,4.354l-6.74,3.38c-0.287,-0.08 -0.34,-0.313 -0.16,-0.7c0.9,-1.733 1.514,-2.76 1.84,-3.087L48.158,49.087z" id="path_5"/><path fill="#3F51B5" d="M32.574,47.569c-0.625,2.173 -2.525,4.573 -5.705,7.187c-1.914,1.36 -4.154,2.033 -6.715,2.033c-1.432,-0.326 -2.459,-0.653 -3.08,-0.974c-0.619,-0.326 -1.359,-1.046 -2.232,-2.153c-1.566,-2.08 -2.348,-4.007 -2.348,-5.779c0,-4.221 1.354,-7.601 4.068,-10.153c0.479,-0.341 0.686,-0.287 0.619,0.153c0,0.38 -0.779,1.84 -2.34,4.373c-0.627,1.267 -0.939,2.467 -0.939,3.594c0,1.619 1.146,3.386 3.439,5.313c1.627,0.9 3.393,1.268 5.313,1.094c2.26,0 5.074,-1.56 8.434,-4.687c0,-0.587 -0.523,-1.066 -2.076,-1.162c-1.561,-0.097 -2.621,-0.347 -3.193,-0.753c-0.574,-0.407 -0.867,-0.96 -0.881,-1.66v-0.78c0,-3.245 1.828,-5.844 5.488,-7.791l-0.273,3.238c-1.104,0.411 -2.322,1.251 -3.654,2.52v0.16c0,0.493 1.287,0.859 3.846,1.113c1.447,0.273 2.299,1.195 2.408,2.786C32.803,45.985 32.768,46.85 32.574,47.569z" id="path_6"/><path fill="#3F51B5" d="M27.486,25.027c0.16,-0.094 0.207,0.053 0.141,0.433c-0.887,2.08 -2.248,3.534 -4.08,4.354l-6.74,3.38c-0.287,-0.08 -0.34,-0.313 -0.16,-0.706c0.9,-1.733 1.514,-2.761 1.84,-3.087L27.486,25.027z" id="path_7"/><path fill="#000001" d="M32.904,42.434c0.848,2.394 2.1,3.594 3.754,3.594h0.152c1.008,0 1.787,-0.787 2.348,-2.347h0.313c0.727,1.354 1.561,2.033 2.5,2.033h0.467c0.602,0 1.201,-0.36 1.801,-1.073c0.166,-0.2 0.453,-0.88 0.854,-2.054c1.469,2.974 2.98,3.386 5.959,3.48v-4.453l-0.686,-0.04c-2.271,-0.132 -3.727,-0.622 -4.02,-1.8c-0.383,-1.537 -0.588,-2.341 -0.941,-2.341L44.938,37.9c-0.42,2.394 -1.094,3.594 -2.033,3.594c-0.832,0 -1.559,-0.367 -2.186,-1.094c-0.102,-1.146 -0.26,-1.826 -0.467,-2.033h-0.16l-0.154,0.16c-0.74,2.08 -1.627,3.12 -2.652,3.12c-0.514,0.066 -1.08,-0.054 -1.701,-0.36c-0.625,-0.307 -0.967,-1.02 -1.02,-2.14l0.527,-4.061c0,-0.353 -0.248,-0.58 -0.748,-0.687c-0.506,-0.1 -1.238,-0.026 -2.219,0.22c-0.605,0.254 -1.17,0.521 -1.699,0.803l-0.273,3.238c0.527,-0.195 1.029,-0.294 1.506,-0.294c0.533,-0.113 1.053,-0.066 1.561,0.16C32.891,40.414 32.791,41.714 32.904,42.434z" id="path_8"/></svg>