<svg id="vector" xmlns="http://www.w3.org/2000/svg" width="75" height="67" viewBox="0 0 83 73"><path fill="#0000DC" d="M46.09,40.946h0.06c2.42,-0.106 4.087,-1.272 5,-3.513c0,-0.313 0.206,-0.573 0.626,-0.787h0.314c0.206,0 0.313,0.16 0.313,0.474l-0.16,0.934c0.887,1.566 1.827,2.346 2.814,2.346h0.779c1.354,0 2.4,-1.353 3.127,-4.06h0.16c0.152,0.021 0.413,0.646 0.779,1.873c0.887,0.78 1.767,1.247 2.653,1.407c1.04,0 1.567,-0.627 1.567,-1.873c0.1,-1.98 0.307,-2.974 0.619,-2.974c0.42,0.887 0.627,1.98 0.627,3.28c0,3.859 -0.939,5.786 -2.813,5.786c-1.46,0 -2.653,-0.733 -3.593,-2.193H58.65c-0.647,2.087 -1.693,3.127 -3.127,3.127H55.37c-1.273,0 -2.732,-0.986 -4.373,-2.967C49.617,44.2 48.049,45.4 46.31,45.4h-0.22V40.946z" id="path_0"/><path fill="#0000CC" d="M58.063,19.44c1.6,0 2.4,0.986 2.4,2.953c0,3.133 -2.674,5.807 -8.027,8.007c-0.767,0.233 -0.859,-0.047 -0.273,-0.84c0.146,-0.301 1.407,-1.24 3.787,-2.813v-0.134c-1.027,-0.42 -1.54,-1.313 -1.54,-2.68c0.681,-2.993 1.76,-4.493 3.24,-4.493H58.063L58.063,19.44zM55.676,22.82c0,0.833 0.707,1.347 2.113,1.547h0.273c0.52,0 0.854,-0.193 0.994,-0.566c0,-0.848 -0.614,-1.507 -1.834,-1.974C56.69,21.827 56.176,22.16 55.676,22.82z" id="path_1"/><path fill="#009649" d="M46.284,45.413c-0.141,0.014 -0.287,0.021 -0.427,0.021H45.07c-1.22,0 -2.054,-0.101 -2.5,-0.313c-0.907,3.507 -1.967,5.653 -3.18,6.439c-1.214,0.787 -3.954,1.454 -8.22,2.001h-0.314c-0.939,-0.107 -1.406,-0.261 -1.406,-0.467c0,-0.313 0.78,-0.681 2.34,-1.094c6.146,-2.813 9.221,-4.847 9.221,-6.093c0,-0.521 -0.727,-1.721 -2.188,-3.594c-0.313,-0.527 -0.467,-1.2 -0.467,-2.033v-1.561c0,-0.786 0.154,-1.2 0.467,-1.253c1.354,2.073 3.646,3.227 6.873,3.473c0.201,0 0.395,0 0.588,-0.013V45.413z" id="path_2"/><path fill="#009649" d="M38.67,23.693c1.6,0 2.399,0.986 2.399,2.953c0,3.134 -2.673,5.807 -8.026,8.007c-0.768,0.233 -0.86,-0.047 -0.273,-0.84c0.146,-0.3 1.406,-1.24 3.787,-2.813v-0.133c-1.027,-0.421 -1.541,-1.314 -1.541,-2.681c0.68,-2.993 1.76,-4.493 3.24,-4.493H38.67L38.67,23.693zM36.284,27.073c0,0.833 0.706,1.347 2.113,1.547h0.273c0.52,0 0.853,-0.193 0.992,-0.566c0,-0.847 -0.613,-1.507 -1.833,-1.974C37.296,26.08 36.784,26.413 36.284,27.073z" id="path_3"/><path fill="#13D8FA" d="M27.003,37.74c0.933,0.94 1.819,2.967 2.653,6.093l0.16,2.034c0,3.673 -1.827,6.173 -5.474,7.5L23.25,53.52l-2.773,0.04l-2.693,-0.04l-0.154,-0.153v-0.16c0.334,-0.36 2.574,-1.454 6.714,-3.28c2.606,-1.48 4.014,-2.786 4.22,-3.906c-1.354,-2.887 -2.026,-4.554 -2.026,-5v-0.467C26.537,38.68 26.69,37.74 27.003,37.74z" id="path_4"/><path fill="#D60A0A" d="M26.03,24.946c1.193,0 1.9,0.794 2.106,2.38v0.434c-0.22,2.653 -1.106,4.387 -2.653,5.193c-2.693,1.693 -5.14,2.54 -7.326,2.54c-0.08,-0.014 -0.154,-0.033 -0.233,-0.06c-0.08,-0.027 -0.14,-0.067 -0.187,-0.12c-0.047,-0.047 -0.041,-0.08 0.013,-0.094c0.113,-0.26 2.08,-1.3 5.894,-3.106v-0.14c-1.026,-0.647 -1.54,-1.54 -1.54,-2.674C22.716,26.393 24.023,24.946 26.03,24.946L26.03,24.946zM23.51,27.893v0.133c0,0.967 0.66,1.533 1.973,1.7h0.406c0.5,0 0.781,-0.14 0.841,-0.427c0,-1.313 -0.7,-1.974 -2.106,-1.974C23.883,27.493 23.51,27.686 23.51,27.893z" id="path_5"/><path fill="#D60A0A" d="M22.943,22.406c0.3,-0.146 0.44,-0.046 0.427,0.294c-1.507,1.666 -2.693,3.246 -3.553,4.746c-0.247,0.587 -0.387,1.066 -0.42,1.454c-0.033,0.387 0.066,0.8 0.307,1.239h0.293c0.113,-0.653 0.347,-0.979 0.699,-0.979c0.42,0.187 0.654,0.373 0.701,0.566V30c0.026,1.486 -0.395,2.38 -1.268,2.68H19.43c-0.94,-0.187 -1.406,-1.267 -1.406,-3.246C18.024,27.026 19.663,24.686 22.943,22.406z" id="path_6"/></svg>