<svg id="vector" xmlns="http://www.w3.org/2000/svg" width="75" height="67" viewBox="0 0 83 73"><path fill="#a3451c" d="M56.362,43.083c2.187,1.094 3.28,2.033 3.28,2.813c-1.04,2.06 -1.667,3.101 -1.874,3.127h-0.313c-1.601,-0.808 -2.594,-1.54 -2.967,-2.187C54.849,45.649 55.476,44.396 56.362,43.083z" id="path_0"/><path fill="#a3451c" d="M47.842,38.943h1.801c1.899,-0.261 4.92,-0.967 9.06,-2.106v-0.161c-3.773,-1.667 -6.167,-2.5 -7.187,-2.5c-1.38,0 -2.313,0.78 -2.813,2.347l-0.467,0.314c-0.206,0 -0.313,-0.161 -0.313,-0.474c0.52,-3.12 1.926,-4.687 4.22,-4.687h0.78c0.966,0 4.246,1.094 9.846,3.28l4.221,0.313l0.307,0.474c-0.073,0.7 -0.7,2.053 -1.873,4.061h-0.468l-0.626,-0.16h-0.78c-8.127,2.399 -12.866,3.646 -14.22,3.753h-1.487V38.943z" id="path_1"/><path fill="#a3451c" d="M62.609,18.57c0.16,-0.093 0.206,0.053 0.14,0.433c-0.887,2.081 -2.247,3.534 -4.08,4.354l-6.74,3.38c-0.286,-0.08 -0.34,-0.313 -0.16,-0.707c0.9,-1.733 1.514,-2.76 1.841,-3.087L62.609,18.57z" id="path_2"/><path fill="#163987" d="M34.402,38.943h0.354c1.066,0 2.193,-0.413 3.38,-1.24s1.88,-1.867 2.093,-3.113l0.154,-0.16h0.152c0.187,0 0.447,0.573 0.787,1.72c1.479,2.033 3.566,2.966 6.246,2.813c0.181,0 0.367,-0.007 0.547,-0.02v4.474c-0.18,0.013 -0.366,0.02 -0.547,0.02l-2.187,-0.254c-0.233,2.08 -0.913,3.121 -2.033,3.127h-0.313c-2.08,-0.393 -3.12,-1.12 -3.12,-2.193l0.468,-2.813c-0.367,-0.414 -0.728,-0.621 -1.094,-0.621c-1.174,1.834 -2.8,2.74 -4.887,2.714V38.943z" id="path_3"/><path fill="#163987" d="M46.782,19.43c0.16,-0.093 0.206,0.053 0.14,0.434c-0.887,2.08 -2.246,3.533 -4.08,4.353l-6.74,3.38c-0.286,-0.08 -0.34,-0.313 -0.159,-0.707c0.899,-1.733 1.513,-2.76 1.84,-3.086L46.782,19.43z" id="path_4"/><path fill="#399121" d="M35.362,43.356c-5.48,0.547 -8.573,-0.986 -9.28,-4.606l-0.467,-2.934h-0.153c-1.293,0.354 -2.906,1.501 -4.847,3.44c-1.433,1.613 -2.307,3.54 -2.62,5.779c-0.126,6.667 5.54,10 16.994,10l6.406,-0.467l0.16,0.154l-0.2,0.473c0,0.347 -1.22,1.087 -3.66,2.213c-2.439,1.127 -5.373,1.694 -8.8,1.694c-4.479,-0.014 -7.913,-1.42 -10.313,-4.22c-1.453,-2.634 -2.187,-5.654 -2.187,-9.066c0.22,-3.281 1.627,-6.561 4.22,-9.841c-2.813,-1.093 -4.22,-2.4 -4.22,-3.907c0.133,-2.894 0.58,-4.813 1.34,-5.76c0.76,-0.954 1.667,-1.48 2.727,-1.587h0.467c2.106,0 4.453,0.887 7.033,2.66v0.313c0,0.207 -0.16,0.313 -0.473,0.313c-1.78,-0.526 -3.5,-0.787 -5.153,-0.787c-1.9,0.367 -3.207,0.887 -3.907,1.566l-0.16,0.154v0.16c0,0.82 1.773,1.806 5.313,2.966l1.567,0.153c0.572,0 2.499,-0.62 5.779,-1.873h0.153l0.313,0.313c-0.354,1.76 -1.34,2.907 -2.967,3.44l-1.56,1.093c0,0.753 0.473,1.566 1.42,2.44c1.474,1.173 3.833,1.593 7.073,1.267V43.356z" id="path_5"/><path fill="#399121" d="M26.648,13.923c0.16,-0.093 0.207,0.053 0.141,0.433c-0.887,2.08 -2.247,3.534 -4.08,4.354l-6.74,3.38c-0.287,-0.08 -0.34,-0.313 -0.16,-0.707c0.9,-1.733 1.514,-2.76 1.84,-3.087L26.648,13.923z" id="path_6"/></svg>