<svg id="vector" xmlns="http://www.w3.org/2000/svg" width="75" height="67" viewBox="0 0 83 73"><path fill="#082488" d="M52.564,42.607c0.326,0 0.666,0 1.02,0l0.779,-0.395c0.494,-1.014 1.227,-2.26 2.188,-3.746L54.99,26.434c0.52,-2.501 0.986,-3.747 1.406,-3.747l0.781,2.967c0.727,1.013 1.092,1.953 1.092,2.813c-0.52,0.96 -0.779,1.746 -0.779,2.34v0.313l0.314,5v0.787c1.613,-1.359 3.771,-2.1 6.479,-2.227c3.127,0.439 4.688,1.479 4.688,3.121v1.094c-0.52,2.318 -1.301,4.092 -2.34,5.313c-3.154,1.773 -6.613,2.721 -10.395,2.854h-1.719c-0.688,0 -1.34,0 -1.953,0V42.607L52.564,42.607zM55.611,42.688h0.313c4.766,-0.135 8.494,-0.98 11.174,-2.541c-1.221,-1.252 -2.107,-1.873 -2.654,-1.873h-1.252C59.623,38.4 57.098,39.873 55.611,42.688z" id="path_0"/><path fill="#082488" d="M65.65,18.753c1.6,0 2.4,0.986 2.4,2.953c0,3.134 -2.674,5.807 -8.027,8.007c-0.766,0.233 -0.859,-0.047 -0.273,-0.84c0.146,-0.3 1.408,-1.24 3.787,-2.813v-0.133c-1.027,-0.42 -1.539,-1.313 -1.539,-2.681c0.68,-2.993 1.76,-4.493 3.24,-4.493H65.65L65.65,18.753zM63.264,22.133c0,0.833 0.707,1.347 2.113,1.547h0.273c0.52,0 0.854,-0.193 0.994,-0.566c0,-0.847 -0.613,-1.507 -1.834,-1.974C64.277,21.14 63.764,21.473 63.264,22.133z" id="path_1"/><path fill="#a3451c" d="M53.25,47.061l-1.76,-0.02c-0.973,4.285 -3.553,6.453 -7.732,6.506c-2.24,0.1 -3.361,0.061 -3.361,-0.119c0.207,-0.395 1.707,-1.148 4.494,-2.268c2.867,-1.82 4.594,-2.994 5.193,-3.514l0.16,-0.467l-2.734,-0.434c-1.992,-0.52 -3.113,-1.52 -3.359,-3.006v-0.314c0,-2.525 0.619,-4.139 1.873,-4.846l0.939,-0.152c1.848,0 3.354,1.285 4.527,3.865c0.746,0.26 1.334,0.387 1.76,0.373V47.061z" id="path_2"/><path fill="#f06022" d="M51.725,26.201l0.16,0.14v0.427c-0.814,1.733 -1.941,2.946 -3.381,3.653c-4.48,2.433 -6.967,3.653 -7.459,3.653c-0.188,0 -0.281,-0.146 -0.281,-0.434c0.434,-1.653 1.373,-2.773 2.814,-3.36l8.012,-4.079H51.725z" id="path_3"/><path fill="#f06022" d="M50.611,22.687c0.18,0 0.273,0.133 0.273,0.406c-0.521,1.514 -2.061,2.874 -4.627,4.087l-5.92,3.24l-0.133,-0.141v-0.153c0.559,-1.979 1.445,-3.199 2.672,-3.653l6.6,-3.38L50.611,22.687z" id="path_4"/><path fill="#26D330" d="M35.377,29.713c1.008,-0.087 1.527,0.174 1.561,0.787v0.934c-0.26,2.499 -0.52,3.753 -0.781,3.753h-0.152c-0.193,-0.733 -0.82,-1.094 -1.873,-1.094c-2.168,0 -4.453,1.613 -6.881,4.84v0.313c0,0.521 1.773,0.994 5.314,1.408c0.939,0.912 1.406,1.898 1.406,2.965c0,2.947 -2.6,6.121 -7.813,9.535c-1.354,0.727 -2.707,1.092 -4.061,1.092c-3.566,0 -6.121,-2.186 -7.66,-6.559c-0.494,-1.527 -0.541,-3.654 -0.133,-6.381c0.398,-2.727 1.605,-4.414 3.613,-5.067l0.273,0.041c0.393,0.206 0.105,0.799 -0.848,1.786c-0.961,0.98 -1.561,2.26 -1.807,3.84v1.248c0,2.5 1.354,4.533 4.061,6.092c0.939,0.42 1.926,0.627 2.967,0.627h0.627c3.02,0 6.039,-1.459 9.059,-4.373l-4.84,-1.094c-0.832,-0.553 -1.252,-1.279 -1.252,-2.193V40.34c0.039,-2.867 1.393,-5.473 4.066,-7.833C31.211,31.48 32.93,30.547 35.377,29.713z" id="path_5"/></svg>