<svg id="vector" xmlns="http://www.w3.org/2000/svg" width="75" height="67" viewBox="0 0 83 73"><path fill="#163987" d="M60.781,26.081c0.313,0 0.627,1.047 0.94,3.126l1.406,3.127l-0.627,3.593l0.467,8.753v1.4c-0.207,3.573 -0.727,5.652 -1.56,6.253l-0.153,-0.153l0.153,-2.347c0,-2.106 -0.681,-8.827 -2.033,-20.153C60.028,27.28 60.495,26.081 60.781,26.081z" id="path_0"/><path fill="#163987" d="M65.448,16.94c0.16,-0.093 0.207,0.053 0.141,0.434c-0.887,2.08 -2.248,3.533 -4.08,4.353l-6.74,3.38c-0.287,-0.08 -0.34,-0.313 -0.16,-0.707c0.9,-1.733 1.514,-2.76 1.84,-3.086L65.448,16.94z" id="path_1"/><path fill="#a3451c" d="M36.441,47.881h1.8c1.9,-0.261 4.92,-0.968 9.061,-2.106v-0.16c-3.773,-1.667 -6.167,-2.5 -7.188,-2.5c-1.379,0 -2.313,0.779 -2.813,2.346l-0.467,0.314c-0.207,0 -0.313,-0.16 -0.313,-0.474c0.521,-3.12 1.927,-4.687 4.22,-4.687h0.78c0.967,0 4.247,1.094 9.847,3.279l4.221,0.313l0.307,0.474c-0.074,0.699 -0.701,2.053 -1.874,4.061h-0.467l-0.626,-0.16h-0.78c-8.127,2.399 -12.866,3.646 -14.22,3.753h-1.487V47.881z" id="path_2"/><path fill="#a3451c" d="M51.382,27.507c0.16,-0.093 0.206,0.053 0.14,0.433c-0.887,2.081 -2.247,3.534 -4.08,4.354l-6.74,3.38c-0.286,-0.08 -0.34,-0.313 -0.159,-0.707c0.899,-1.733 1.513,-2.76 1.84,-3.087L51.382,27.507z" id="path_3"/><path fill="#000001" d="M37.182,52.354c-2.68,-0.181 -5.113,-1.647 -7.3,-4.395h-0.16c-0.934,5.414 -3.02,8.121 -6.246,8.127h-0.475c-1.399,-0.006 -2.76,-1.253 -4.06,-3.753c-1.04,-3.513 -1.56,-6.173 -1.56,-7.967v-1.253c0,-0.78 0.153,-1.2 0.467,-1.247c0.439,0.233 0.967,1.94 1.573,5.127c0.606,3.18 1.853,4.7 3.739,4.56c3.646,-0.6 5.574,-2.687 5.78,-6.253l-1.406,-4.84v-1.72c0.054,-2.087 0.26,-3.127 0.626,-3.127c0.207,0.466 0.367,0.94 0.467,1.406l2.188,6.873c1.72,2.787 3.846,4.107 6.366,3.947V52.354z" id="path_4"/><path fill="#f06022" d="M29.335,21.474c1.193,0 1.9,0.793 2.107,2.38v0.434c-0.221,2.653 -1.107,4.386 -2.654,5.193c-2.693,1.693 -5.14,2.54 -7.326,2.54c-0.08,-0.013 -0.153,-0.033 -0.233,-0.06c-0.08,-0.027 -0.14,-0.067 -0.187,-0.121c-0.047,-0.046 -0.04,-0.08 0.014,-0.093c0.113,-0.26 2.08,-1.3 5.893,-3.107v-0.14c-1.026,-0.647 -1.539,-1.54 -1.539,-2.673C26.022,22.921 27.329,21.474 29.335,21.474L29.335,21.474zM26.815,24.421v0.133c0,0.967 0.66,1.533 1.973,1.7h0.406c0.5,0 0.781,-0.14 0.841,-0.426c0,-1.314 -0.7,-1.974 -2.106,-1.974C27.188,24.021 26.815,24.214 26.815,24.421z" id="path_5"/><path fill="#f06022" d="M26.249,18.934c0.3,-0.146 0.439,-0.047 0.426,0.293c-1.506,1.667 -2.693,3.247 -3.553,4.747c-0.247,0.586 -0.387,1.066 -0.42,1.453s0.066,0.8 0.307,1.24h0.293c0.113,-0.653 0.347,-0.98 0.699,-0.98c0.421,0.187 0.654,0.373 0.701,0.566v0.273c0.026,1.487 -0.394,2.38 -1.268,2.68h-0.699c-0.94,-0.187 -1.406,-1.267 -1.406,-3.247C21.329,23.554 22.968,21.214 26.249,18.934z" id="path_6"/></svg>