<svg id="vector" xmlns="http://www.w3.org/2000/svg" width="75" height="67" viewBox="0 0 83 73"><path fill="#04D504" d="M47.866,39.648h0.877h0.307h0.787c2.833,-0.207 4.553,-0.861 5.152,-1.955c0,-0.859 -0.986,-3.199 -2.967,-7.033l-0.313,-1.246c-0.34,-1.641 -0.327,-3.146 0.04,-4.514c0.36,-1.367 1.079,-2.313 2.146,-2.832c2.474,-1.668 7.214,-4.428 14.22,-8.281l0.153,0.16v0.307c-1.507,2.373 -2.653,4.561 -3.433,6.566h-0.314l-0.159,-0.779v-0.787l0.159,-0.152v-0.154h-0.159c-5.808,3.354 -9.714,5.807 -11.72,7.34v0.16c2.193,4.428 3.387,7.807 3.6,10.154c0,1.666 -0.495,3.49 -1.721,5.313c-1.017,1.514 -3.35,2.188 -6.637,2.188h-0.02V39.648z" id="path_0"/><path fill="#04D504" d="M59.923,11.348c0.16,-0.094 0.207,0.053 0.141,0.434c-0.887,2.08 -2.248,3.533 -4.08,4.354l-6.74,3.379c-0.287,-0.08 -0.34,-0.313 -0.16,-0.707c0.9,-1.732 1.514,-2.76 1.84,-3.086L59.923,11.348z" id="path_1"/><path fill="#163987" d="M39.77,45.82c0.533,0 1.786,0.627 3.753,1.873c0,0.781 -0.626,2.035 -1.88,3.754c-2.499,-0.813 -3.746,-1.539 -3.746,-2.193C37.963,48.674 38.583,47.527 39.77,45.82z" id="path_2"/><path fill="#163987" d="M34.083,39.648c1.113,0.012 1.8,-0.008 2.073,-0.061c2.347,-0.713 3.946,-2.234 4.807,-4.547c0.126,-0.447 0.387,-0.5 0.78,-0.16c0.207,0.18 0.366,0.914 0.467,2.188c1.42,1.912 3.193,2.773 5.313,2.58h0.414v4.453h-0.1c-3.32,-0.154 -5.768,-1.668 -7.348,-4.535h-0.153c-1.106,2.334 -2.566,3.768 -4.373,4.301c-0.547,0.154 -1.173,0.234 -1.88,0.234V39.648z" id="path_3"/><path fill="#163987" d="M45.743,20.66c0.16,-0.092 0.206,0.055 0.14,0.434c-0.887,2.08 -2.247,3.533 -4.08,4.354l-6.74,3.381c-0.286,-0.08 -0.34,-0.314 -0.159,-0.707c0.899,-1.732 1.513,-2.76 1.84,-3.088L45.743,20.66z" id="path_4"/><path fill="#a3451c" d="M34.529,44.121c-2.68,-0.18 -5.113,-1.646 -7.3,-4.393h-0.16c-0.934,5.412 -3.02,8.119 -6.246,8.125H20.35c-1.4,-0.006 -2.76,-1.252 -4.06,-3.752c-1.04,-3.514 -1.561,-6.174 -1.561,-7.967v-1.254c0,-0.779 0.153,-1.199 0.467,-1.246c0.439,0.232 0.967,1.939 1.573,5.127c0.606,3.18 1.854,4.699 3.74,4.559c3.646,-0.6 5.573,-2.686 5.78,-6.252l-1.407,-4.84v-1.721c0.054,-2.088 0.261,-3.127 0.627,-3.127c0.206,0.467 0.366,0.939 0.466,1.406l2.188,6.873c1.72,2.787 3.847,4.107 6.366,3.947V44.121z" id="path_5"/><path fill="#04D504" d="M28.282,53.807l0.16,0.141v0.428c-0.807,1.732 -1.934,2.945 -3.379,3.652c-4.48,2.434 -6.967,3.654 -7.461,3.654c-0.18,0 -0.273,-0.148 -0.273,-0.434c0.428,-1.654 1.367,-2.773 2.813,-3.361l8.007,-4.08H28.282z" id="path_6"/><path fill="#04D504" d="M27.169,50.295c0.188,0 0.273,0.133 0.273,0.406c-0.52,1.514 -2.06,2.873 -4.626,4.086l-5.92,3.24l-0.134,-0.141v-0.152c0.561,-1.98 1.453,-3.201 2.674,-3.654l6.606,-3.379L27.169,50.295z" id="path_7"/></svg>