<svg id="vector" xmlns="http://www.w3.org/2000/svg" width="75" height="67" viewBox="0 0 83 73"><path fill="#FF0000" d="M61.199,26.081c0.313,0 0.627,1.047 0.939,3.126l1.406,3.127l-0.627,3.593l0.467,8.753v1.4c-0.207,3.573 -0.727,5.652 -1.559,6.253l-0.154,-0.153l0.154,-2.347c0,-2.106 -0.682,-8.827 -2.035,-20.153C60.445,27.28 60.912,26.081 61.199,26.081z" id="path_0"/><path fill="#FF0000" d="M65.865,16.94c0.16,-0.093 0.207,0.053 0.141,0.434c-0.887,2.08 -2.248,3.533 -4.08,4.353l-6.74,3.38c-0.287,-0.08 -0.34,-0.313 -0.16,-0.707c0.9,-1.733 1.514,-2.76 1.84,-3.086L65.865,16.94z" id="path_1"/><path fill="#009649" d="M44.545,31.767c2.188,1.093 3.281,2.034 3.281,2.813c-1.041,2.053 -1.668,3.1 -1.875,3.126h-0.313c-1.6,-0.806 -2.594,-1.54 -2.967,-2.187C43.031,34.334 43.658,33.081 44.545,31.767z" id="path_2"/><path fill="#009649" d="M36.541,47.881h1.801c1.9,-0.261 4.92,-0.968 9.061,-2.106v-0.16c-3.773,-1.667 -6.168,-2.5 -7.188,-2.5c-1.381,0 -2.313,0.779 -2.814,2.346l-0.465,0.314c-0.207,0 -0.314,-0.16 -0.314,-0.474c0.52,-3.12 1.928,-4.687 4.221,-4.687h0.779c0.967,0 4.246,1.094 9.848,3.279l4.219,0.313l0.307,0.474c-0.072,0.699 -0.699,2.053 -1.873,4.061h-0.467l-0.627,-0.16h-0.779c-8.127,2.399 -12.867,3.646 -14.221,3.753h-1.486V47.881z" id="path_3"/><path fill="#009649" d="M49.799,22.041c0.16,-0.093 0.207,0.053 0.141,0.434c-0.887,2.08 -2.248,3.533 -4.08,4.353l-6.74,3.38c-0.287,-0.08 -0.34,-0.313 -0.16,-0.707c0.9,-1.733 1.514,-2.76 1.84,-3.086L49.799,22.041z" id="path_4"/><path fill="#FF0000" d="M26.199,27.487c2.193,1.093 3.285,2.033 3.285,2.813c-1.045,2.06 -1.666,3.1 -1.879,3.126h-0.314c-1.6,-0.807 -2.586,-1.533 -2.965,-2.187C24.691,30.054 25.318,28.807 26.199,27.487z" id="path_5"/><path fill="#FF0000" d="M36.766,52.354c-2.68,-0.181 -5.113,-1.647 -7.301,-4.395h-0.16c-0.934,5.414 -3.02,8.121 -6.246,8.127h-0.473c-1.4,-0.006 -2.76,-1.253 -4.061,-3.753c-1.039,-3.513 -1.561,-6.173 -1.561,-7.967v-1.253c0,-0.78 0.154,-1.2 0.467,-1.247c0.439,0.233 0.967,1.94 1.574,5.127c0.605,3.18 1.854,4.7 3.74,4.56c3.646,-0.6 5.572,-2.687 5.779,-6.253l-1.406,-4.84v-1.72c0.053,-2.087 0.26,-3.127 0.627,-3.127c0.205,0.466 0.365,0.94 0.467,1.406l2.186,6.873c1.721,2.787 3.848,4.107 6.367,3.947V52.354z" id="path_6"/><path fill="#FF0000" d="M30.826,18.287c0.16,-0.093 0.205,0.053 0.139,0.434c-0.887,2.08 -2.246,3.533 -4.08,4.353l-6.74,3.38c-0.285,-0.08 -0.34,-0.313 -0.16,-0.707c0.9,-1.733 1.514,-2.76 1.842,-3.086L30.826,18.287z" id="path_7"/></svg>