<svg id="vector" xmlns="http://www.w3.org/2000/svg" width="75" height="67" viewBox="0 0 83 73"><path fill="#04D504" d="M52.732,45.254h0.781c4.859,-0.094 8.086,-0.773 9.686,-2.055l0.314,-0.619c-0.207,-0.5 -0.467,-0.746 -0.781,-0.746c-0.752,0.42 -1.586,0.625 -2.498,0.625h-0.16c-2.707,-0.313 -4.115,-1.406 -4.215,-3.279v-0.16c0.262,-3.539 1.094,-5.307 2.5,-5.307h0.781c2.406,-0.119 4.232,1.754 5.467,5.621L64.76,40.9v0.313c-0.033,3.826 -1.406,6.354 -4.119,7.574c-0.961,0.613 -3.602,0.92 -7.908,0.92V45.254z" id="path_0"/><path fill="#04D504" d="M59.607,25.547c1.693,0.52 3.152,1.354 4.373,2.5v0.152c0,0.654 -0.674,1.693 -2.027,3.127c-0.42,0 -1.826,-0.52 -4.221,-1.559v0.152c-0.832,1.613 -1.352,2.447 -1.566,2.5c-1.354,-0.287 -2.5,-0.914 -3.434,-1.873c0.627,-2.607 1.148,-3.906 1.561,-3.906c0.34,0 1.588,0.627 3.754,1.873C58.047,27.967 58.566,26.98 59.607,25.547z" id="path_1"/><path fill="#04D504" d="M63.807,16.133c0.16,-0.092 0.207,0.055 0.141,0.434c-0.887,2.08 -2.248,3.533 -4.08,4.354l-6.74,3.381c-0.287,-0.08 -0.34,-0.314 -0.16,-0.707c0.9,-1.734 1.514,-2.76 1.84,-3.088L63.807,16.133z" id="path_2"/><path fill="#000001" d="M53.293,49.727c-2.68,-0.18 -5.113,-1.646 -7.299,-4.393h-0.16c-0.934,5.412 -3.021,8.119 -6.248,8.127h-0.473c-1.4,-0.008 -2.76,-1.254 -4.061,-3.754c-1.039,-3.514 -1.559,-6.174 -1.559,-7.967v-1.254c0,-0.779 0.152,-1.199 0.465,-1.246c0.441,0.232 0.969,1.939 1.574,5.127c0.607,3.18 1.854,4.699 3.74,4.559c3.646,-0.6 5.574,-2.686 5.779,-6.252l-1.406,-4.84v-1.721c0.053,-2.086 0.26,-3.127 0.627,-3.127c0.207,0.467 0.367,0.941 0.467,1.406l2.188,6.875c1.719,2.785 3.846,4.105 6.365,3.945V49.727z" id="path_3"/><path fill="#000001" d="M48.646,21.227c0.16,-0.094 0.207,0.053 0.141,0.434c-0.887,2.08 -2.246,3.533 -4.08,4.354l-6.74,3.379c-0.287,-0.08 -0.34,-0.313 -0.16,-0.705c0.9,-1.734 1.514,-2.76 1.84,-3.088L48.646,21.227z" id="path_4"/><path fill="#04D504" d="M27.613,41.074c0.934,0.939 1.82,2.965 2.654,6.092l0.158,2.033c0,3.674 -1.826,6.174 -5.473,7.5l-1.094,0.154l-2.773,0.039l-2.693,-0.039l-0.152,-0.154v-0.16c0.334,-0.359 2.572,-1.453 6.713,-3.279c2.607,-1.48 4.014,-2.787 4.221,-3.906c-1.354,-2.887 -2.027,-4.553 -2.027,-5v-0.467C27.146,42.014 27.301,41.074 27.613,41.074z" id="path_5"/><path fill="#04D504" d="M30.813,30.66c0.16,-0.094 0.207,0.053 0.141,0.434c-0.887,2.08 -2.246,3.533 -4.08,4.354l-6.74,3.379c-0.287,-0.08 -0.34,-0.313 -0.16,-0.707c0.9,-1.732 1.514,-2.76 1.84,-3.086L30.813,30.66z" id="path_6"/></svg>