<svg id="vector" xmlns="http://www.w3.org/2000/svg" width="75" height="67" viewBox="0 0 83 73"><path fill="#04D504" d="M55.207,41.35h0.78c4.859,-0.094 8.086,-0.773 9.686,-2.053l0.314,-0.621c-0.207,-0.5 -0.467,-0.746 -0.78,-0.746c-0.753,0.42 -1.587,0.627 -2.5,0.627h-0.16c-2.706,-0.314 -4.113,-1.406 -4.213,-3.279v-0.16c0.26,-3.541 1.093,-5.307 2.499,-5.307h0.781c2.406,-0.121 4.232,1.752 5.466,5.619l0.153,1.566v0.314c-0.033,3.826 -1.406,6.354 -4.12,7.572c-0.96,0.613 -3.6,0.92 -7.906,0.92V41.35z" id="path_0"/><path fill="#04D504" d="M62.08,21.643c1.694,0.52 3.153,1.354 4.374,2.5v0.154c0,0.652 -0.674,1.693 -2.027,3.127c-0.42,0 -1.826,-0.521 -4.22,-1.561v0.152c-0.833,1.615 -1.354,2.447 -1.567,2.5c-1.353,-0.285 -2.5,-0.912 -3.433,-1.873c0.626,-2.605 1.147,-3.906 1.56,-3.906c0.34,0 1.587,0.627 3.754,1.873C60.521,24.063 61.04,23.076 62.08,21.643z" id="path_1"/><path fill="#04D504" d="M61.968,9.35c1.6,0 2.399,0.986 2.399,2.953c0,3.133 -2.673,5.807 -8.026,8.008c-0.768,0.232 -0.86,-0.047 -0.273,-0.84c0.146,-0.301 1.406,-1.24 3.786,-2.814v-0.133c-1.026,-0.42 -1.54,-1.314 -1.54,-2.68c0.68,-2.994 1.76,-4.494 3.24,-4.494H61.968L61.968,9.35zM59.581,12.73c0,0.832 0.706,1.346 2.113,1.547h0.273c0.52,0 0.853,-0.193 0.992,-0.568c0,-0.846 -0.613,-1.506 -1.833,-1.973C60.594,11.736 60.081,12.07 59.581,12.73z" id="path_2"/><path fill="#F80404" d="M55.221,45.816c-0.14,0.014 -0.287,0.02 -0.427,0.02h-0.787c-1.22,0 -2.053,-0.1 -2.5,-0.313c-0.906,3.506 -1.967,5.652 -3.18,6.439s-3.953,1.453 -8.221,2h-0.313c-0.939,-0.105 -1.406,-0.26 -1.406,-0.467c0,-0.313 0.779,-0.68 2.34,-1.094c6.146,-2.813 9.22,-4.846 9.22,-6.092c0,-0.521 -0.728,-1.721 -2.187,-3.594c-0.313,-0.527 -0.467,-1.201 -0.467,-2.033v-1.561c0,-0.787 0.153,-1.199 0.467,-1.254c1.354,2.074 3.646,3.227 6.873,3.475c0.2,0 0.394,0 0.587,-0.014V45.816z" id="path_3"/><path fill="#F60404" d="M50.808,55.482c0.16,-0.086 0.206,0.055 0.14,0.434c-0.887,2.08 -2.247,3.533 -4.08,4.354l-6.74,3.381c-0.286,-0.08 -0.34,-0.314 -0.16,-0.701c0.9,-1.732 1.514,-2.76 1.841,-3.086L50.808,55.482z" id="path_4"/><path fill="#163987" d="M37.114,31.83c1.006,-0.086 1.525,0.174 1.56,0.787v0.934c-0.26,2.5 -0.521,3.752 -0.78,3.752H37.74c-0.193,-0.732 -0.819,-1.092 -1.873,-1.092c-2.167,0 -4.454,1.613 -6.88,4.84v0.313c0,0.52 1.773,0.994 5.313,1.406c0.94,0.914 1.406,1.9 1.406,2.967c0,2.947 -2.601,6.121 -7.813,9.533c-1.354,0.727 -2.707,1.094 -4.06,1.094c-3.567,0 -6.12,-2.188 -7.66,-6.561c-0.493,-1.525 -0.54,-3.652 -0.134,-6.379c0.4,-2.727 1.607,-4.414 3.613,-5.066l0.273,0.039c0.395,0.207 0.107,0.801 -0.846,1.787c-0.961,0.98 -1.561,2.26 -1.807,3.84v1.246c0,2.5 1.353,4.533 4.059,6.094c0.94,0.42 1.928,0.627 2.967,0.627h0.627c3.021,0 6.041,-1.461 9.061,-4.373l-4.84,-1.094c-0.834,-0.553 -1.254,-1.279 -1.254,-2.193v-1.873c0.041,-2.867 1.394,-5.475 4.066,-7.834C32.947,33.596 34.667,32.664 37.114,31.83z" id="path_5"/><path fill="#163987" d="M24.967,23.684c1.446,0 2.9,0.721 4.36,2.166c0.14,0.248 0.086,0.441 -0.167,0.588c-0.253,0.139 -0.486,0.113 -0.692,-0.102c-0.627,-0.559 -1.514,-0.84 -2.66,-0.84H25.32c-0.479,0 -1.04,0.207 -1.681,0.607c0,1.174 1.407,1.893 4.221,2.166l2.793,-1.092l0.113,0.373c0,1.313 -1.613,2.486 -4.84,3.514l-4.473,2.539l-0.467,0.119c-0.188,0.041 -0.307,-0.039 -0.373,-0.232c0,-0.707 1.006,-1.674 3.025,-2.914v-0.113c-0.973,-0.539 -1.466,-1.307 -1.466,-2.307C22.634,25.178 23.561,23.684 24.967,23.684z" id="path_6"/><path fill="#163987" d="M30.606,12.824c0.16,-0.094 0.207,0.053 0.141,0.434c-0.887,2.078 -2.246,3.533 -4.08,4.352l-6.74,3.381c-0.287,-0.08 -0.34,-0.313 -0.16,-0.707c0.9,-1.732 1.514,-2.76 1.84,-3.086L30.606,12.824z" id="path_7"/></svg>