<svg id="vector" xmlns="http://www.w3.org/2000/svg" width="75" height="67" viewBox="0 0 83 73"><path fill="#04D504" d="M56.213,36.004c0.215,0 0.434,0 0.668,0h0.16c1.945,-0.121 3.719,-1.74 5.305,-4.859c1.721,-2.607 3.494,-3.908 5.314,-3.908c2.293,0 3.439,1.453 3.439,4.375v0.779c0,1.434 -0.572,3.307 -1.719,5.627l-1.094,0.779c-0.967,0 -3.201,-0.68 -6.721,-2.033c-1.066,1.6 -1.9,2.574 -2.5,2.914c-0.914,0.633 -1.846,0.898 -2.813,0.779h-0.041V36.004L56.213,36.004zM64.066,32.703v0.154c2.707,1.047 4.326,1.566 4.848,1.566c0.205,0 0.313,-0.16 0.313,-0.473c-0.6,-1.561 -1.594,-2.34 -2.973,-2.34C65.293,31.611 64.561,31.977 64.066,32.703z" id="path_0"/><path fill="#04D504" d="M69.107,14.99c0.16,-0.094 0.205,0.053 0.139,0.434c-0.887,2.08 -2.246,3.533 -4.08,4.354l-6.74,3.379c-0.285,-0.08 -0.34,-0.313 -0.158,-0.705c0.898,-1.734 1.512,-2.762 1.84,-3.088L69.107,14.99z" id="path_1"/><path fill="#000001" d="M56.84,40.457c-0.246,0 -0.547,0 -0.9,0c-1.393,-0.014 -2.893,-1.061 -4.514,-3.146c-0.619,2.293 -1.713,3.439 -3.279,3.439h-0.152c-1.328,0 -2.42,-0.779 -3.281,-2.346h-0.16c-0.934,1.879 -2.066,2.732 -3.398,2.559c-2.475,0.014 -3.941,-1.152 -4.414,-3.492c-1.74,2.039 -3.613,3.039 -5.607,2.986h-0.252v-4.453h0.08c3.152,-0.107 5.492,-1.18 7.033,-3.221c0.207,0 0.313,0.154 0.313,0.467l-0.16,1.094c0.834,1.666 1.928,2.5 3.281,2.5c1.279,0 2.578,-1.246 3.906,-3.746h0.16l0.467,0.467v1.092c0,0.988 0.732,1.561 2.186,1.721h0.314c1.354,0 2.605,-1.354 3.752,-4.066h0.154c0.207,0 0.313,0.473 0.313,1.406c0.574,1.58 1.961,2.34 4.16,2.287V40.457z" id="path_2"/><path fill="#000001" d="M49.947,18.25c0.16,-0.094 0.207,0.053 0.139,0.434c-0.887,2.08 -2.246,3.533 -4.078,4.354l-6.74,3.381c-0.287,-0.08 -0.34,-0.314 -0.16,-0.707c0.898,-1.734 1.514,-2.76 1.84,-3.088L49.947,18.25z" id="path_3"/><path fill="#a3451c" d="M31.699,40.477c-2.68,-0.18 -5.113,-1.646 -7.299,-4.393h-0.16c-0.934,5.412 -3.02,8.119 -6.246,8.127H17.52c-1.4,-0.008 -2.76,-1.254 -4.059,-3.754C12.42,36.943 11.9,34.283 11.9,32.49v-1.254c0,-0.779 0.152,-1.199 0.467,-1.246c0.439,0.234 0.967,1.939 1.572,5.127c0.607,3.18 1.854,4.699 3.74,4.561c3.646,-0.6 5.574,-2.688 5.781,-6.254l-1.408,-4.84v-1.721c0.055,-2.086 0.262,-3.127 0.627,-3.127c0.207,0.467 0.367,0.941 0.467,1.408l2.188,6.873c1.719,2.785 3.846,4.105 6.365,3.945V40.477z" id="path_4"/><path fill="#04D504" d="M25.453,50.164l0.16,0.139v0.428c-0.807,1.732 -1.934,2.947 -3.379,3.652c-4.48,2.434 -6.967,3.654 -7.461,3.654c-0.18,0 -0.273,-0.146 -0.273,-0.434c0.428,-1.652 1.367,-2.773 2.814,-3.359l8.006,-4.08H25.453z" id="path_5"/><path fill="#04D504" d="M24.34,46.65c0.188,0 0.273,0.133 0.273,0.406c-0.52,1.514 -2.061,2.873 -4.627,4.088l-5.92,3.238l-0.133,-0.139V54.09c0.561,-1.98 1.453,-3.199 2.674,-3.652l6.605,-3.381L24.34,46.65z" id="path_6"/></svg>