<svg id="vector" xmlns="http://www.w3.org/2000/svg" width="75" height="67" viewBox="0 0 83 73"><path fill="#04D504" d="M57.59,46.703c0.18,0.014 0.373,0.02 0.586,0.02h1.48c1.566,-0.26 2.76,-0.807 3.594,-1.639l-1.873,-14.848c0.466,-2.813 0.887,-4.213 1.246,-4.213l2.033,4.686c0,0.729 -0.26,1.82 -0.779,3.281l0.779,8.434v2.346c-0.586,2.486 -1.373,4.227 -2.359,5.213c-0.747,0.795 -1.621,1.193 -2.641,1.193h-1.326c-0.26,0 -0.507,-0.006 -0.74,-0.02V46.703z" id="path_0"/><path fill="#04D504" d="M63.524,14.477c1.6,0 2.399,0.986 2.399,2.953c0,3.133 -2.673,5.807 -8.026,8.008c-0.768,0.232 -0.86,-0.047 -0.273,-0.842c0.146,-0.299 1.406,-1.238 3.787,-2.813V21.65c-1.027,-0.42 -1.541,-1.314 -1.541,-2.68c0.68,-2.994 1.76,-4.494 3.24,-4.494H63.524L63.524,14.477zM61.137,17.857c0,0.832 0.706,1.346 2.113,1.545h0.273c0.52,0 0.854,-0.193 0.992,-0.566c0,-0.846 -0.613,-1.506 -1.833,-1.973C62.15,16.863 61.637,17.197 61.137,17.857z" id="path_1"/><path fill="#a3451c" d="M49.876,52.896c0.534,0 1.787,0.627 3.753,1.873c0,0.779 -0.626,2.033 -1.879,3.754c-2.5,-0.814 -3.747,-1.541 -3.747,-2.193C48.071,55.75 48.69,54.604 49.876,52.896z" id="path_2"/><path fill="#a3451c" d="M44.19,46.723c1.113,0.014 1.801,-0.006 2.073,-0.059c2.347,-0.715 3.946,-2.234 4.807,-4.547c0.127,-0.447 0.387,-0.5 0.78,-0.16c0.207,0.18 0.367,0.912 0.467,2.186c1.42,1.914 3.193,2.773 5.313,2.58h0.414v4.453h-0.1c-3.32,-0.152 -5.768,-1.666 -7.348,-4.533h-0.152c-1.107,2.334 -2.566,3.768 -4.374,4.301c-0.546,0.152 -1.173,0.232 -1.88,0.232V46.723z" id="path_3"/><path fill="#a3451c" d="M55.85,27.736c0.16,-0.094 0.207,0.053 0.141,0.434c-0.887,2.08 -2.247,3.533 -4.08,4.354l-6.74,3.379c-0.287,-0.078 -0.34,-0.313 -0.16,-0.705c0.9,-1.734 1.514,-2.76 1.84,-3.088L55.85,27.736z" id="path_4"/><path fill="#04D504" d="M44.637,51.197c-2.68,-0.18 -5.113,-1.648 -7.301,-4.395h-0.16c-0.933,5.414 -3.02,8.121 -6.246,8.127h-0.473c-1.4,-0.006 -2.76,-1.254 -4.061,-3.754c-1.04,-3.512 -1.561,-6.172 -1.561,-7.967v-1.252c0,-0.781 0.154,-1.201 0.467,-1.248c0.44,0.234 0.967,1.941 1.574,5.127c0.605,3.18 1.854,4.701 3.739,4.561c3.647,-0.6 5.573,-2.688 5.78,-6.254l-1.406,-4.84v-1.719c0.053,-2.088 0.26,-3.127 0.627,-3.127c0.206,0.467 0.365,0.939 0.466,1.406l2.187,6.873c1.721,2.787 3.847,4.107 6.367,3.947V51.197z" id="path_5"/><path fill="#f06022" d="M39.778,22.99l0.159,0.141v0.426c-0.813,1.732 -1.94,2.947 -3.38,3.652c-4.48,2.434 -6.967,3.654 -7.46,3.654c-0.187,0 -0.28,-0.146 -0.28,-0.434c0.434,-1.652 1.373,-2.773 2.813,-3.359l8.013,-4.08H39.778z" id="path_6"/><path fill="#f06022" d="M38.664,19.477c0.181,0 0.273,0.133 0.273,0.406c-0.521,1.514 -2.06,2.873 -4.627,4.088l-5.92,3.238l-0.133,-0.139v-0.154c0.56,-1.98 1.446,-3.199 2.673,-3.652l6.6,-3.381L38.664,19.477z" id="path_7"/><path fill="#a3451c" d="M18.483,24.924c0.314,0 0.627,1.047 0.94,3.125l1.407,3.127l-0.627,3.594l0.467,8.754v1.4c-0.207,3.572 -0.727,5.652 -1.561,6.252l-0.152,-0.152l0.152,-2.348c0,-2.105 -0.68,-8.826 -2.033,-20.152C17.731,26.123 18.197,24.924 18.483,24.924z" id="path_8"/></svg>