<svg id="vector" xmlns="http://www.w3.org/2000/svg" width="75" height="67" viewBox="0 0 83 73"><path fill="#04D504" d="M65.526,38.168h0.627c1.826,0 3.18,1.559 4.066,4.686l0.154,1.561c0.053,0.506 0.053,1.027 0,1.566c-0.467,1.9 -1.514,3.773 -3.127,5.621c-1.121,0.939 -3.668,1.666 -7.654,2.186c-0.467,-0.207 -0.732,-0.412 -0.779,-0.619c6.666,-3.621 10,-5.807 10,-6.566l0.152,-0.467l-0.152,-0.154l-1.406,0.467h-0.781c-2.813,0 -4.219,-0.992 -4.219,-2.967v-0.313c0.359,-3.234 1.146,-4.848 2.34,-4.848L65.526,38.168z" id="path_0"/><path fill="#04D504" d="M69.667,25.508c0.16,-0.094 0.207,0.053 0.141,0.434c-0.887,2.08 -2.248,3.533 -4.08,4.352l-6.74,3.381c-0.287,-0.08 -0.34,-0.313 -0.16,-0.707c0.9,-1.732 1.514,-2.76 1.84,-3.086L69.667,25.508z" id="path_1"/><path fill="#a3451c" d="M36.64,39.375H36.7c2.42,-0.107 4.086,-1.273 5,-3.514c0,-0.314 0.207,-0.574 0.627,-0.787h0.313c0.207,0 0.314,0.16 0.314,0.473l-0.16,0.934c0.887,1.566 1.826,2.348 2.813,2.348h0.779c1.354,0 2.4,-1.354 3.127,-4.061h0.16c0.154,0.02 0.414,0.646 0.781,1.873c0.887,0.779 1.766,1.246 2.652,1.406c1.041,0 1.566,-0.627 1.566,-1.873c0.102,-1.98 0.307,-2.973 0.621,-2.973c0.42,0.887 0.627,1.98 0.627,3.279c0,3.859 -0.941,5.787 -2.814,5.787c-1.459,0 -2.652,-0.734 -3.594,-2.193H49.2c-0.646,2.086 -1.693,3.127 -3.127,3.127h-0.152c-1.273,0 -2.734,-0.986 -4.375,-2.967c-1.379,2.393 -2.945,3.594 -4.686,3.594H36.64V39.375z" id="path_2"/><path fill="#a3451c" d="M52.927,20.74c0.16,-0.094 0.207,0.053 0.141,0.434c-0.887,2.08 -2.248,3.533 -4.08,4.354l-6.74,3.381c-0.287,-0.08 -0.34,-0.314 -0.16,-0.707c0.9,-1.734 1.514,-2.76 1.84,-3.088L52.927,20.74z" id="path_3"/><path fill="#009649" d="M36.794,43.848c-1.328,0.027 -2.793,0.014 -4.395,-0.041c-0.285,3.307 -1.9,6.121 -4.846,8.441c-1.395,1.313 -3.107,2.047 -5.154,2.186c-4.299,0 -7.42,-2.033 -9.373,-6.094c-0.379,-1.846 -0.514,-3.359 -0.4,-4.533c0.107,-1.166 0.814,-3.1 2.113,-5.779c0.834,-1.039 1.461,-1.561 1.881,-1.561l0.152,0.154v0.16c0,0.572 -0.672,1.82 -2.033,3.746c-0.412,1.039 -0.619,1.926 -0.619,2.66c0,2.859 1.721,4.947 5.152,6.246c0.807,0.314 1.9,0.521 3.281,0.627c2.813,0 5.787,-1.566 8.906,-4.688c0,-0.652 -0.26,-1.119 -0.779,-1.406h-0.467c-4.066,0 -6.094,-1.092 -6.094,-3.279c0,-3.234 0.986,-4.848 2.967,-4.848c1.721,0 3.18,1.201 4.373,3.594c1.094,-0.014 2.873,-0.006 5.334,0.02V43.848z" id="path_4"/><path fill="#009649" d="M26.933,27.094c2.395,0.906 3.594,1.533 3.594,1.873v0.154c-0.967,2.186 -1.641,3.279 -2.033,3.279c-0.807,0 -1.953,-0.467 -3.439,-1.406c-0.621,1.594 -1.146,2.48 -1.561,2.66h-0.152c-0.941,0 -2.088,-0.52 -3.441,-1.561v-0.16c0,-0.939 0.574,-2.133 1.721,-3.592h0.313c0.854,0.18 1.953,0.699 3.281,1.559h0.152C26.12,28.08 26.647,27.141 26.933,27.094z" id="path_5"/><path fill="#009649" d="M29.233,18.594c0.16,-0.094 0.207,0.053 0.141,0.434c-0.887,2.08 -2.248,3.533 -4.08,4.354l-6.74,3.379c-0.287,-0.08 -0.34,-0.313 -0.16,-0.705c0.9,-1.734 1.514,-2.76 1.84,-3.088L29.233,18.594z" id="path_6"/></svg>