<svg id="vector" xmlns="http://www.w3.org/2000/svg" width="75" height="67" viewBox="0 0 83 73"><path fill="#0000FF" d="M59.658,22.471c0.313,0 0.627,1.047 0.939,3.126l1.407,3.126l-0.626,3.594l0.466,8.754v1.399c-0.206,3.573 -0.727,5.653 -1.56,6.253l-0.153,-0.152l0.153,-2.348c0,-2.105 -0.68,-8.826 -2.033,-20.153C58.905,23.67 59.371,22.471 59.658,22.471z" id="path_0"/><path fill="#0000FF" d="M64.324,13.331c0.161,-0.093 0.207,0.053 0.141,0.434c-0.887,2.08 -2.246,3.533 -4.08,4.353l-6.74,3.38c-0.286,-0.08 -0.34,-0.313 -0.16,-0.707c0.9,-1.733 1.514,-2.76 1.84,-3.086L64.324,13.331z" id="path_1"/><path fill="#04D504" d="M46.205,34.038c5.313,1.9 7.967,4.247 7.967,7.034l0.16,0.933c-0.447,3.647 -1.646,5.467 -3.601,5.467c0,0.34 -2.6,0.761 -7.807,1.253l-0.16,-0.467c0,-2.605 0.468,-3.906 1.407,-3.906c5.207,-0.42 8.073,-1.047 8.593,-1.88c-1.793,-1.74 -4.14,-3.146 -7.033,-4.214l-0.153,-0.786C45.658,35.184 45.865,34.038 46.205,34.038z" id="path_2"/><path fill="#04D504" d="M45.731,26.69c1.28,0.214 2.526,0.994 3.753,2.347v0.313c-0.779,2.08 -1.353,3.12 -1.72,3.12c-2.499,-0.853 -3.746,-1.533 -3.746,-2.027C44.019,29.478 44.592,28.23 45.731,26.69z" id="path_3"/><path fill="#04D504" d="M52.432,51.53c0.16,-0.086 0.207,0.054 0.141,0.434c-0.887,2.08 -2.248,3.533 -4.08,4.354l-6.74,3.38c-0.287,-0.08 -0.34,-0.313 -0.16,-0.7c0.9,-1.732 1.514,-2.76 1.84,-3.086L52.432,51.53z" id="path_4"/><path fill="#a3451c" d="M28.191,39.351h0.313c1.46,0.334 2.76,1.12 3.907,2.34v0.313c-0.101,0.833 -0.728,1.927 -1.874,3.28c-2.706,-0.906 -4.06,-1.693 -4.06,-2.34C27.125,41.071 27.698,39.87 28.191,39.351z" id="path_5"/><path fill="#a3451c" d="M36.479,36.224h0.307c0.366,0 1.253,2.346 2.66,7.033l0.152,0.621c0,3.673 -0.887,6.333 -2.652,7.973c-2.5,2.707 -5.467,4.061 -8.907,4.061c-2.813,-0.627 -4.634,-1.247 -5.467,-1.874c-2.714,-2.319 -4.066,-5.187 -4.066,-8.593c0,-2.867 1.253,-5.574 3.753,-8.127l0.154,-0.153h0.313l0.313,0.307c0,0.267 -0.727,1.407 -2.187,3.44c-0.42,0.727 -0.68,1.72 -0.779,2.967c0,2.426 1.246,4.506 3.746,6.252c2.447,0.941 4.113,1.408 5,1.408c2.24,0 4.893,-0.994 7.967,-2.967c1.253,-1.101 1.88,-1.773 1.88,-2.033l-2.187,-6.094l-0.16,-1.094L36.479,36.224z" id="path_6"/><path fill="#a3451c" d="M33.892,23.237c0.16,-0.093 0.206,0.053 0.14,0.434c-0.887,2.08 -2.246,3.533 -4.08,4.353l-6.74,3.38c-0.286,-0.08 -0.34,-0.313 -0.159,-0.707c0.899,-1.733 1.513,-2.76 1.84,-3.086L33.892,23.237z" id="path_7"/></svg>