<svg id="vector" xmlns="http://www.w3.org/2000/svg" width="75" height="67" viewBox="0 0 83 73"><path fill="#04D504" d="M64.521,36.123c-0.346,1.768 -1.18,3.174 -2.48,4.221c-1.199,0.859 -3.432,1.693 -6.719,2.5c-6.887,0.439 -10.781,0.072 -11.68,-1.094c-0.961,-1.006 2.412,-1.793 10.119,-2.367c4.033,-0.572 7.16,-1.66 9.373,-3.26c0.027,-0.014 0.055,-0.08 0.08,-0.207c0.027,-0.119 -0.605,-5.012 -1.893,-14.68c0.467,-2.813 0.887,-4.213 1.246,-4.213l2.033,4.688c0,0.727 -0.26,1.818 -0.779,3.279l0.779,8.434C64.643,34.869 64.615,35.77 64.521,36.123z" id="path_0"/><path fill="#04D504" d="M67.355,7.684c0.16,-0.094 0.207,0.053 0.141,0.434c-0.887,2.08 -2.248,3.533 -4.08,4.354l-6.74,3.379c-0.287,-0.08 -0.34,-0.313 -0.16,-0.707c0.9,-1.732 1.514,-2.76 1.84,-3.086L67.355,7.684z" id="path_1"/><path fill="#a3451c" d="M54.189,42.291c0.533,0.953 0.826,1.512 0.879,1.68l0.074,1.273c-0.014,2.252 -0.314,3.807 -0.914,4.666s-1.359,1.293 -2.287,1.307c-2.006,0 -4.086,-1.613 -6.252,-4.84c-0.373,-0.641 -0.74,-1.473 -1.094,-2.5h-1.561c-0.354,0 -0.686,-0.02 -1.014,-0.061v-4.473c0.48,0.105 0.975,0.152 1.48,0.152h0.627c0.859,-3.332 2.32,-5.832 4.373,-7.5c1.066,-0.832 2.061,-1.246 2.973,-1.246c1.408,0 2.24,1.041 2.5,3.127c0.414,2.094 -0.053,4.273 -1.406,6.539L54.189,42.291L54.189,42.291zM47.256,43.717c1.066,1.881 2.627,2.92 4.686,3.127c1.041,-0.094 1.721,-0.453 2.033,-1.094c-0.092,-1.26 -0.818,-2.027 -2.186,-2.293c-1.373,-0.268 -2.467,-0.359 -3.293,-0.268C47.668,43.283 47.256,43.457 47.256,43.717L47.256,43.717zM45.689,38.877c-0.113,0.346 0.039,0.506 0.473,0.467c1.98,0 3.953,-0.887 5.934,-2.654v-0.16c-0.439,-1.039 -1.014,-1.559 -1.713,-1.559C48.828,34.77 47.27,36.076 45.689,38.877z" id="path_2"/><path fill="#a3451c" d="M54.676,20.377c0.16,-0.094 0.207,0.053 0.141,0.434c-0.887,2.08 -2.248,3.533 -4.08,4.354l-6.74,3.379c-0.287,-0.08 -0.34,-0.313 -0.16,-0.707c0.9,-1.732 1.514,-2.76 1.84,-3.086L54.676,20.377z" id="path_3"/><path fill="#04D504" d="M27.295,46.844c0.533,0 1.781,0.627 3.748,1.873c0,0.779 -0.627,2.033 -1.875,3.754c-2.5,-0.807 -3.752,-1.541 -3.752,-2.188C25.482,49.697 26.109,48.551 27.295,46.844z" id="path_4"/><path fill="#04D504" d="M42.609,43.816c-1.994,-0.16 -3.801,-1.561 -5.414,-4.199c-2.393,2.912 -5.834,4.373 -10.313,4.373h-1.248c-4.846,0 -8.18,-2.08 -10,-6.246l-0.16,-0.941v-1.406c0,-1.506 0.682,-3.227 2.033,-5.152h0.154l0.313,0.313v0.779l-0.779,2.5c0,2.734 2.293,4.607 6.873,5.627l2.814,0.154c4.873,0 8.727,-1.668 11.566,-5c0.152,0 0.307,0.207 0.467,0.627l-0.16,1.092c0.533,1.967 1.82,2.953 3.854,2.967V43.816z" id="path_5"/><path fill="#f06022" d="M33.422,57.471l0.16,0.139v0.428c-0.807,1.732 -1.934,2.947 -3.381,3.652c-4.479,2.434 -6.967,3.654 -7.459,3.654c-0.18,0 -0.273,-0.146 -0.273,-0.434c0.426,-1.652 1.367,-2.773 2.813,-3.359l8.008,-4.08H33.422z" id="path_6"/><path fill="#f06022" d="M32.309,53.957c0.188,0 0.273,0.133 0.273,0.406c-0.52,1.514 -2.061,2.873 -4.627,4.088l-5.92,3.238l-0.133,-0.139v-0.154c0.561,-1.98 1.453,-3.199 2.672,-3.652l6.607,-3.381L32.309,53.957z" id="path_7"/></svg>