<svg id="vector" xmlns="http://www.w3.org/2000/svg" width="75" height="67" viewBox="0 0 83 73"><path fill="#a3451c" d="M47.563,44.533h0.807h0.307h0.786c2.834,-0.205 4.554,-0.859 5.153,-1.953c0,-0.859 -0.986,-3.199 -2.967,-7.033l-0.313,-1.246c-0.341,-1.641 -0.327,-3.146 0.04,-4.514c0.359,-1.367 1.08,-2.313 2.146,-2.834c2.473,-1.666 7.213,-4.426 14.22,-8.279l0.153,0.16v0.307c-1.507,2.373 -2.653,4.561 -3.434,6.566h-0.313l-0.159,-0.779v-0.787l0.159,-0.152v-0.154H63.99c-5.808,3.354 -9.714,5.807 -11.721,7.34v0.16c2.193,4.426 3.387,7.807 3.601,10.152c0,1.668 -0.573,3.441 -1.72,5.314c-1.094,1.459 -3.28,2.186 -6.567,2.186h-0.02V44.533z" id="path_0"/><path fill="#a3451c" d="M60.224,16.227c0.16,-0.092 0.206,0.055 0.14,0.434c-0.887,2.08 -2.247,3.533 -4.08,4.354l-6.74,3.381c-0.286,-0.08 -0.34,-0.314 -0.16,-0.707c0.9,-1.734 1.514,-2.76 1.841,-3.088L60.224,16.227z" id="path_1"/><path fill="#04D504" d="M31.943,44.533c1.733,0.146 3.207,-0.025 4.434,-0.506l-0.646,-1.174c-0.606,-3.439 -0.334,-5.713 0.819,-6.826c1.16,-1.113 2.407,-1.627 3.733,-1.533c2.58,0.119 4.033,1.473 4.374,4.061v0.939c0,2.16 -0.313,3.514 -0.934,4.061c-0.394,0.406 0.493,0.746 2.653,1.02l0.507,-0.02c0.393,-0.014 0.84,-0.021 1.347,-0.021v4.453l-1.58,0.021c-2.94,-0.014 -5.167,-0.387 -6.681,-1.113c-2.079,0.727 -3.699,1.092 -4.84,1.092h-0.627c-0.779,0 -1.633,0 -2.56,0V44.533L31.943,44.533zM37.47,40.121v0.313c0.653,1.121 1.641,1.9 2.967,2.34c0.887,-0.152 1.773,-0.52 2.66,-1.092c-0.394,-1.461 -1.693,-2.295 -3.906,-2.502C38.044,39.494 37.47,39.807 37.47,40.121z" id="path_2"/><path fill="#04D504" d="M38.41,26.84c1.354,0 2.6,0.834 3.747,2.5c-0.96,2.188 -1.693,3.281 -2.188,3.281c-2.106,-1.041 -3.253,-1.721 -3.439,-2.033C36.53,29.6 37.157,28.348 38.41,26.84z" id="path_3"/><path fill="#04D504" d="M44.11,15.881c0.16,-0.094 0.206,0.053 0.14,0.434c-0.887,2.08 -2.247,3.533 -4.08,4.354l-6.74,3.379c-0.286,-0.08 -0.34,-0.313 -0.16,-0.707c0.9,-1.732 1.514,-2.76 1.841,-3.086L44.11,15.881z" id="path_4"/><path fill="#009649" d="M31.937,49c-0.14,0.014 -0.286,0.021 -0.427,0.021h-0.786c-1.22,0 -2.054,-0.102 -2.5,-0.314c-0.907,3.508 -1.967,5.654 -3.18,6.439c-1.214,0.787 -3.954,1.453 -8.221,2H16.51c-0.939,-0.105 -1.406,-0.26 -1.406,-0.465c0,-0.314 0.78,-0.682 2.34,-1.094c6.146,-2.814 9.221,-4.848 9.221,-6.094c0,-0.52 -0.728,-1.721 -2.188,-3.594c-0.313,-0.527 -0.467,-1.199 -0.467,-2.033v-1.561c0,-0.785 0.153,-1.199 0.467,-1.252c1.354,2.072 3.646,3.227 6.873,3.473c0.2,0 0.394,0 0.587,-0.014V49z" id="path_5"/><path fill="#009649" d="M28.637,30.154c0.16,-0.094 0.207,0.053 0.14,0.434c-0.887,2.08 -2.246,3.533 -4.079,4.352l-6.74,3.381c-0.287,-0.08 -0.34,-0.313 -0.16,-0.707c0.9,-1.732 1.514,-2.76 1.84,-3.086L28.637,30.154z" id="path_6"/></svg>