<svg id="vector" xmlns="http://www.w3.org/2000/svg" width="75" height="67" viewBox="0 0 83 73"><path fill="#07E8B4" d="M58.187,41.078h0.626c1.827,0 3.181,1.559 4.067,4.686l0.153,1.561c0.053,0.506 0.053,1.027 0,1.566c-0.467,1.9 -1.514,3.773 -3.127,5.621c-1.12,0.939 -3.666,1.666 -7.653,2.186c-0.467,-0.207 -0.733,-0.412 -0.78,-0.619c6.667,-3.621 10,-5.807 10,-6.566l0.154,-0.469l-0.154,-0.152l-1.406,0.467h-0.78c-2.813,0 -4.22,-0.994 -4.22,-2.967v-0.313c0.359,-3.234 1.146,-4.848 2.34,-4.848L58.187,41.078z" id="path_0"/><path fill="#07E8B4" d="M62.327,28.418c0.16,-0.094 0.207,0.053 0.141,0.434c-0.887,2.08 -2.247,3.533 -4.08,4.352l-6.74,3.381c-0.287,-0.08 -0.34,-0.313 -0.16,-0.707c0.9,-1.732 1.514,-2.76 1.84,-3.086L62.327,28.418z" id="path_1"/><path fill="#000001" d="M39.727,45.684c2.016,0.15 4.158,-0.117 5.66,-1.619l-1.874,-14.848c0.467,-2.813 0.887,-4.213 1.247,-4.213l2.033,4.688c0,0.727 -0.26,1.82 -0.78,3.279l0.78,8.434v2.346c-0.586,2.488 -1.391,4.211 -2.359,5.215c-1.324,1.371 -3.007,1.309 -4.744,1.209L39.727,45.684z" id="path_2"/><path fill="#000001" d="M49.454,16.33c0.16,-0.092 0.207,0.055 0.14,0.434c-0.887,2.08 -2.247,3.533 -4.079,4.354l-6.74,3.381c-0.287,-0.08 -0.341,-0.314 -0.16,-0.707c0.899,-1.734 1.514,-2.76 1.84,-3.088L49.454,16.33z" id="path_3"/><path fill="#07E8B4" d="M39.727,50.178c-2.68,-0.18 -5.113,-1.646 -7.301,-4.395h-0.159c-0.934,5.414 -3.021,8.121 -6.247,8.127h-0.473c-1.4,-0.006 -2.76,-1.252 -4.061,-3.752c-1.04,-3.514 -1.561,-6.174 -1.561,-7.967v-1.254c0,-0.779 0.154,-1.199 0.467,-1.246c0.44,0.232 0.967,1.939 1.574,5.127c0.606,3.18 1.854,4.699 3.74,4.559c3.646,-0.6 5.572,-2.686 5.779,-6.252l-1.406,-4.84v-1.721c0.053,-2.088 0.26,-3.127 0.627,-3.127c0.206,0.467 0.366,0.939 0.466,1.406l2.187,6.873c1.721,2.787 3.848,4.107 6.367,3.947V50.178z" id="path_4"/><path fill="#07E8B4" d="M35.081,21.678c0.16,-0.094 0.207,0.053 0.14,0.434c-0.887,2.08 -2.247,3.533 -4.079,4.354L24.4,29.844c-0.286,-0.08 -0.339,-0.313 -0.159,-0.707c0.899,-1.732 1.514,-2.76 1.84,-3.086L35.081,21.678z" id="path_5"/></svg>