<svg id="vector" xmlns="http://www.w3.org/2000/svg" width="75" height="67" viewBox="0 0 83 73"><path fill="#04D504" d="M63.12,39.885h0.625c1.828,0 3.182,1.559 4.068,4.686l0.152,1.561c0.053,0.506 0.053,1.027 0,1.566c-0.467,1.9 -1.514,3.773 -3.127,5.621c-1.119,0.939 -3.666,1.666 -7.652,2.186c-0.467,-0.207 -0.734,-0.412 -0.779,-0.619c6.666,-3.621 9.998,-5.807 9.998,-6.566l0.154,-0.469l-0.154,-0.152l-1.406,0.467H64.22c-2.813,0 -4.221,-0.994 -4.221,-2.967v-0.313c0.359,-3.234 1.146,-4.848 2.34,-4.848L63.12,39.885z" id="path_0"/><path fill="#04D504" d="M67.259,27.225c0.16,-0.094 0.207,0.053 0.141,0.434c-0.887,2.08 -2.246,3.533 -4.08,4.352l-6.74,3.381c-0.287,-0.08 -0.34,-0.313 -0.16,-0.707c0.9,-1.732 1.514,-2.76 1.84,-3.086L67.259,27.225z" id="path_1"/><path fill="#009649" d="M41.6,44.512h0.78c4.859,-0.094 8.086,-0.775 9.686,-2.055l0.314,-0.619c-0.207,-0.5 -0.467,-0.746 -0.781,-0.746c-0.752,0.418 -1.586,0.625 -2.498,0.625h-0.162c-2.705,-0.313 -4.112,-1.406 -4.212,-3.279v-0.16c0.26,-3.539 1.093,-5.307 2.499,-5.307h0.781c2.406,-0.119 4.232,1.754 5.467,5.619l0.152,1.568v0.313c-0.033,3.826 -1.406,6.354 -4.119,7.572c-0.961,0.615 -3.601,0.922 -7.907,0.922V44.512z" id="path_2"/><path fill="#009649" d="M48.474,24.805c1.693,0.52 3.152,1.354 4.373,2.5v0.152c0,0.654 -0.674,1.693 -2.027,3.127c-0.42,0 -1.826,-0.52 -4.221,-1.561v0.154c-0.832,1.613 -1.352,2.445 -1.565,2.5c-1.354,-0.287 -2.5,-0.914 -3.434,-1.873c0.627,-2.607 1.147,-3.908 1.561,-3.908c0.34,0 1.587,0.627 3.753,1.875C46.913,27.225 47.433,26.236 48.474,24.805z" id="path_3"/><path fill="#009649" d="M52.673,15.391c0.16,-0.094 0.207,0.053 0.141,0.434c-0.887,2.08 -2.248,3.533 -4.08,4.354l-6.74,3.379c-0.287,-0.08 -0.34,-0.313 -0.16,-0.705c0.9,-1.734 1.514,-2.76 1.84,-3.088L52.673,15.391z" id="path_4"/><path fill="#04D504" d="M26.813,52.01c0.533,0 1.779,0.627 3.746,1.875c0,0.779 -0.627,2.033 -1.873,3.752c-2.5,-0.807 -3.754,-1.539 -3.754,-2.186C25,54.863 25.626,53.717 26.813,52.01z" id="path_5"/><path fill="#04D504" d="M42.126,48.984c-1.993,-0.16 -3.799,-1.561 -5.413,-4.201c-2.394,2.914 -5.833,4.375 -10.313,4.375h-1.246c-4.847,0 -8.18,-2.08 -10,-6.248l-0.16,-0.939v-1.406c0,-1.508 0.68,-3.227 2.033,-5.154h0.153l0.313,0.314v0.779l-0.779,2.5c0,2.734 2.293,4.607 6.873,5.627l2.813,0.152c4.873,0 8.727,-1.666 11.567,-5c0.153,0 0.307,0.207 0.466,0.627l-0.159,1.094c0.533,1.967 1.819,2.953 3.853,2.967V48.984z" id="path_6"/><path fill="#04D504" d="M32.493,27.111c0.16,-0.094 0.207,0.053 0.141,0.434c-0.887,2.08 -2.248,3.533 -4.08,4.352l-6.74,3.381c-0.287,-0.08 -0.34,-0.313 -0.16,-0.707c0.9,-1.732 1.514,-2.76 1.84,-3.086L32.493,27.111z" id="path_7"/></svg>