<svg id="vector" xmlns="http://www.w3.org/2000/svg" width="75" height="67" viewBox="0 0 83 73"><path fill="#163987" d="M57.958,24.364c0.313,0 0.627,1.047 0.939,3.127l1.407,3.126l-0.626,3.593l0.466,8.753v1.4c-0.206,3.573 -0.726,5.652 -1.56,6.253l-0.153,-0.153l0.153,-2.347c0,-2.106 -0.68,-8.827 -2.033,-20.153C57.205,25.564 57.671,24.364 57.958,24.364z" id="path_0"/><path fill="#163987" d="M62.625,15.224c0.16,-0.093 0.206,0.054 0.14,0.434c-0.887,2.08 -2.246,3.533 -4.08,4.353l-6.74,3.38c-0.286,-0.08 -0.34,-0.313 -0.16,-0.707c0.9,-1.733 1.514,-2.76 1.841,-3.087L62.625,15.224z" id="path_1"/><path fill="#000001" d="M36.921,45.19c0.213,0 0.434,0 0.666,0h0.16c1.947,-0.12 3.721,-1.74 5.307,-4.859c1.721,-2.607 3.494,-3.907 5.314,-3.907c2.293,0 3.439,1.454 3.439,4.374v0.779c0,1.434 -0.573,3.307 -1.721,5.627l-1.093,0.779c-0.967,0 -3.2,-0.68 -6.72,-2.033c-1.066,1.6 -1.9,2.574 -2.5,2.914c-0.914,0.633 -1.847,0.899 -2.813,0.779h-0.04V45.19L36.921,45.19zM44.774,41.891v0.153c2.707,1.047 4.326,1.566 4.847,1.566c0.206,0 0.313,-0.16 0.313,-0.473c-0.6,-1.561 -1.594,-2.34 -2.974,-2.34C46.001,40.798 45.268,41.163 44.774,41.891z" id="path_2"/><path fill="#000001" d="M49.738,24.17c0.16,-0.093 0.206,0.053 0.14,0.434c-0.887,2.08 -2.246,3.533 -4.08,4.353l-6.74,3.38c-0.286,-0.08 -0.34,-0.313 -0.159,-0.707c0.899,-1.733 1.513,-2.76 1.84,-3.086L49.738,24.17z" id="path_3"/><path fill="#04D504" d="M37.038,49.657c-0.14,0.014 -0.287,0.02 -0.426,0.02h-0.787c-1.221,0 -2.053,-0.1 -2.5,-0.313c-0.906,3.506 -1.967,5.652 -3.18,6.439c-1.214,0.787 -3.954,1.453 -8.221,2h-0.313c-0.94,-0.106 -1.407,-0.26 -1.407,-0.467c0,-0.313 0.78,-0.68 2.34,-1.093c6.147,-2.813 9.22,-4.847 9.22,-6.093c0,-0.521 -0.727,-1.721 -2.186,-3.594c-0.314,-0.527 -0.467,-1.2 -0.467,-2.033v-1.561c0,-0.787 0.152,-1.2 0.467,-1.254c1.353,2.074 3.646,3.227 6.873,3.475c0.199,0 0.393,0 0.586,-0.014V49.657z" id="path_4"/><path fill="#04D504" d="M33.738,30.811c0.16,-0.093 0.206,0.053 0.14,0.433c-0.887,2.08 -2.246,3.534 -4.08,4.354l-6.74,3.38c-0.286,-0.08 -0.34,-0.313 -0.159,-0.707c0.899,-1.733 1.513,-2.76 1.84,-3.087L33.738,30.811z" id="path_5"/></svg>