<svg id="vector" xmlns="http://www.w3.org/2000/svg" width="75" height="67" viewBox="0 0 83 73"><path fill="#07E8B4" d="M64.604,37.248h0.626c1.827,0 3.181,1.559 4.067,4.686l0.153,1.561c0.053,0.506 0.053,1.025 0,1.566c-0.467,1.9 -1.514,3.773 -3.127,5.621c-1.12,0.939 -3.667,1.666 -7.653,2.186c-0.467,-0.207 -0.733,-0.414 -0.78,-0.619c6.667,-3.621 10,-5.807 10,-6.568l0.153,-0.467l-0.153,-0.152l-1.406,0.467h-0.78c-2.813,0 -4.22,-0.994 -4.22,-2.967v-0.313c0.359,-3.234 1.146,-4.848 2.34,-4.848L64.604,37.248z" id="path_0"/><path fill="#07E8B4" d="M68.743,24.588c0.16,-0.094 0.207,0.053 0.14,0.434c-0.887,2.08 -2.246,3.533 -4.079,4.352l-6.74,3.381c-0.287,-0.08 -0.34,-0.313 -0.16,-0.707c0.9,-1.732 1.514,-2.76 1.84,-3.086L68.743,24.588z" id="path_1"/><path fill="#163987" d="M39.937,41.875c1.54,-0.193 2.307,-0.494 2.307,-0.9c0,-3.1 0.94,-6.848 2.813,-11.248c0.26,-0.572 0.52,-0.627 0.78,-0.16c0.68,1.461 1.873,2.66 3.593,3.594c3.547,1.721 5.313,4.066 5.313,7.033c0,3.1 -0.673,4.873 -2.033,5.314l-1.56,0.152l-5.94,-0.313c-1.653,0.707 -3.406,1.033 -5.273,0.98V41.875L39.937,41.875zM48.81,41.135l3.9,0.152l0.627,-0.152c-0.96,-1.334 -2.214,-2.375 -3.747,-3.127C49.304,38.008 49.043,39.047 48.81,41.135L48.81,41.135zM43.649,39.102c0,0.986 0.78,1.611 2.348,1.873c1.353,-0.754 2.026,-1.535 2.026,-2.34c-0.467,-1.881 -1.247,-2.814 -2.34,-2.814C44.563,35.82 43.883,36.914 43.649,39.102z" id="path_2"/><path fill="#163987" d="M51.89,18.027c0.16,-0.094 0.207,0.053 0.141,0.434c-0.887,2.08 -2.247,3.533 -4.08,4.354l-6.74,3.379c-0.287,-0.08 -0.34,-0.313 -0.16,-0.707c0.9,-1.732 1.514,-2.76 1.84,-3.086L51.89,18.027z" id="path_3"/><path fill="#000001" d="M25.33,49.373c0.533,0 1.78,0.627 3.746,1.875c0,0.779 -0.626,2.033 -1.873,3.752c-2.5,-0.807 -3.753,-1.539 -3.753,-2.186C23.517,52.227 24.144,51.08 25.33,49.373z" id="path_4"/><path fill="#000001" d="M40.644,46.348c-1.994,-0.16 -3.801,-1.561 -5.414,-4.201c-2.393,2.914 -5.833,4.375 -10.313,4.375H23.67c-4.847,0 -8.18,-2.08 -10,-6.248l-0.16,-0.939v-1.406c0,-1.508 0.68,-3.227 2.033,-5.154h0.153l0.313,0.314v0.779l-0.78,2.5c0,2.734 2.294,4.607 6.874,5.627l2.813,0.152c4.874,0 8.728,-1.666 11.567,-5c0.153,0 0.307,0.207 0.467,0.627l-0.16,1.094c0.533,1.967 1.819,2.953 3.854,2.967V46.348z" id="path_5"/><path fill="#000001" d="M31.01,24.475c0.16,-0.094 0.207,0.053 0.14,0.434c-0.886,2.08 -2.246,3.533 -4.079,4.352l-6.74,3.381c-0.287,-0.08 -0.34,-0.313 -0.16,-0.707c0.9,-1.732 1.514,-2.76 1.84,-3.086L31.01,24.475z" id="path_6"/></svg>