<svg id="vector" xmlns="http://www.w3.org/2000/svg" width="75" height="67" viewBox="0 0 83 73"><path fill="#0000F6" d="M60.93,44.317c0.534,0 1.78,0.626 3.747,1.88c0,0.78 -0.62,2.027 -1.873,3.746c-2.5,-0.806 -3.747,-1.533 -3.747,-2.186C59.116,47.17 59.743,46.023 60.93,44.317z" id="path_0"/><path fill="#0000F6" d="M57.177,37.464c4.094,0.039 6.38,-0.728 6.88,-2.308c0,-0.546 -0.521,-1.9 -1.567,-4.06l0.474,-4.06h0.307c1.36,2.34 2.034,4.687 2.034,7.026v1.407c0,0.939 -0.227,1.926 -0.674,2.959s-1.141,1.907 -2.066,2.606c-0.934,0.707 -2.727,1 -5.387,0.881V37.464z" id="path_1"/><path fill="#0000F6" d="M67.316,16.09c0.16,-0.093 0.206,0.053 0.14,0.433c-0.887,2.081 -2.246,3.534 -4.08,4.354l-6.74,3.38c-0.286,-0.08 -0.34,-0.313 -0.159,-0.707c0.899,-1.733 1.513,-2.76 1.84,-3.087L67.316,16.09z" id="path_2"/><path fill="#009649" d="M57.37,41.93c-0.141,0.014 -0.287,0.021 -0.427,0.021h-0.787c-1.22,0 -2.053,-0.1 -2.499,-0.313c-0.907,3.507 -1.967,5.653 -3.181,6.44c-1.214,0.786 -3.953,1.453 -8.22,2h-0.313c-0.94,-0.107 -1.407,-0.26 -1.407,-0.467c0,-0.314 0.78,-0.68 2.341,-1.094c6.146,-2.813 9.22,-4.847 9.22,-6.094c0,-0.52 -0.727,-1.72 -2.187,-3.593c-0.313,-0.526 -0.467,-1.2 -0.467,-2.034v-1.559c0,-0.787 0.153,-1.2 0.467,-1.253c1.353,2.073 3.646,3.227 6.873,3.473c0.2,0 0.394,0 0.587,-0.013V41.93z" id="path_3"/><path fill="#009649" d="M54.069,23.083c0.16,-0.093 0.207,0.053 0.141,0.434c-0.887,2.08 -2.247,3.533 -4.08,4.353l-6.74,3.38c-0.287,-0.08 -0.34,-0.313 -0.16,-0.707c0.9,-1.733 1.514,-2.76 1.84,-3.086L54.069,23.083z" id="path_4"/><path fill="#009649" d="M38.091,34.257c0.933,0.94 1.819,2.967 2.652,6.093l0.16,2.034c0,3.673 -1.826,6.173 -5.473,7.5l-1.094,0.152l-2.773,0.041l-2.693,-0.041l-0.153,-0.152v-0.16c0.333,-0.36 2.573,-1.454 6.714,-3.28c2.605,-1.479 4.013,-2.786 4.219,-3.907c-1.353,-2.887 -2.026,-4.553 -2.026,-5V37.07C37.623,35.197 37.776,34.257 38.091,34.257z" id="path_5"/><path fill="#009649" d="M40.316,23.844c0.16,-0.093 0.206,0.053 0.14,0.433c-0.887,2.08 -2.246,3.534 -4.08,4.354l-6.74,3.38c-0.286,-0.08 -0.34,-0.313 -0.159,-0.707c0.899,-1.733 1.513,-2.76 1.84,-3.086L40.316,23.844z" id="path_6"/><path fill="#000001" d="M25.983,26.797l0.152,0.467c-0.206,0.887 -1.146,1.927 -2.813,3.127c1.666,1.353 2.5,3.333 2.5,5.94v0.153c0,4.273 -1.767,6.406 -5.313,6.406c-2.807,-0.547 -4.214,-1.953 -4.214,-4.22v-0.153c0.101,-1.953 0.881,-4.04 2.341,-6.253c-1.354,-0.414 -2.026,-0.986 -2.026,-1.72c0,-1.954 0.152,-3.147 0.467,-3.594c1.406,0.394 2.967,1.174 4.686,2.347h0.154L25.983,26.797L25.983,26.797zM19.89,33.043c-1.253,1.254 -1.88,2.141 -1.88,2.66c0,1.614 1.147,2.554 3.44,2.813c1.199,-0.16 2.24,-0.573 3.127,-1.254C23.563,35.517 21.997,34.117 19.89,33.043z" id="path_7"/><path fill="#0000F6" d="M27.31,49.064l0.16,0.14v0.427c-0.807,1.733 -1.934,2.947 -3.38,3.653c-4.48,2.434 -6.967,3.653 -7.46,3.653c-0.18,0 -0.273,-0.146 -0.273,-0.434c0.427,-1.652 1.367,-2.773 2.813,-3.359l8.007,-4.08H27.31z" id="path_8"/><path fill="#0000F6" d="M26.196,45.55c0.187,0 0.273,0.134 0.273,0.406c-0.52,1.514 -2.061,2.874 -4.627,4.088l-5.92,3.239l-0.133,-0.14v-0.153c0.56,-1.979 1.453,-3.2 2.673,-3.653l6.606,-3.381L26.196,45.55z" id="path_9"/><path fill="#000001" d="M23.326,17.887c0.88,0 2.081,0.733 3.594,2.187v0.313c-1.021,2.187 -1.693,3.287 -2.034,3.287l-3.593,-2.034h-0.159c-1.014,1.747 -1.688,2.68 -2.027,2.813h-0.16c-2.286,-1.02 -3.434,-1.8 -3.434,-2.347c0.834,-2.293 1.561,-3.433 2.188,-3.433l3.746,2.027C22.047,19.48 22.673,18.54 23.326,17.887z" id="path_10"/></svg>