<svg id="vector" xmlns="http://www.w3.org/2000/svg" width="75" height="67" viewBox="0 0 83 73"><path fill="#0000F6" d="M60.07,46.408c2.187,1.093 3.28,2.033 3.28,2.813c-1.04,2.061 -1.666,3.1 -1.873,3.127h-0.314c-1.6,-0.807 -2.593,-1.54 -2.966,-2.187C58.557,48.974 59.183,47.72 60.07,46.408z" id="path_0"/><path fill="#0000F6" d="M51.549,42.267h1.801c1.9,-0.26 4.92,-0.967 9.061,-2.107V40c-3.773,-1.666 -6.168,-2.499 -7.188,-2.499c-1.38,0 -2.313,0.78 -2.813,2.347l-0.466,0.313c-0.207,0 -0.314,-0.16 -0.314,-0.473C52.15,36.567 53.557,35 55.85,35h0.78c0.966,0 4.246,1.094 9.847,3.281l4.22,0.313l0.307,0.474c-0.073,0.7 -0.7,2.054 -1.874,4.06h-0.467l-0.626,-0.16h-0.78c-8.127,2.4 -12.867,3.647 -14.22,3.754h-1.487V42.267z" id="path_1"/><path fill="#163987" d="M52.209,46.72c-0.1,0 -0.206,0 -0.307,0h-1.406c-1.406,0 -3.026,-0.887 -4.847,-2.653c-3.126,1.714 -6.5,2.601 -10.12,2.653v-4.434c1.894,0.127 4.327,-0.267 7.307,-1.193V40.94c-1.434,-0.94 -2.787,-1.406 -4.06,-1.406l-1.254,0.153l-0.313,-0.78c0.42,-2.813 1.621,-4.22 3.594,-4.22l2.5,-0.153c3.96,0.466 5.939,1.353 5.939,2.653v0.627l-0.939,3.126c0.76,0.921 2.061,1.367 3.906,1.327V46.72z" id="path_2"/><path fill="#163987" d="M49.417,21.354c0.16,-0.093 0.207,0.053 0.141,0.434c-0.887,2.08 -2.247,3.533 -4.08,4.353l-6.74,3.38c-0.287,-0.08 -0.34,-0.313 -0.16,-0.707c0.9,-1.733 1.514,-2.76 1.84,-3.086L49.417,21.354z" id="path_3"/><path fill="#C10D0D" d="M35.437,46.66c-1.514,0.014 -2.761,-0.76 -3.753,-2.319H31.53c-0.732,2.601 -1.826,4.427 -3.279,5.467c-2.061,1.979 -4.301,2.966 -6.721,2.966H20.59c-2.76,0 -5.207,-1.56 -7.34,-4.686c-0.834,-1.434 -1.254,-3.101 -1.254,-5c0,-2.681 1.354,-5.387 4.066,-8.121c1.414,-0.9 1.834,-0.847 1.247,0.154c-2.394,3.333 -3.593,5.627 -3.593,6.873c0,3.233 2.393,5.367 7.186,6.406h1.254c2.68,0 5.334,-1.354 7.967,-4.06c0.273,-0.86 0.326,-1.8 0.153,-2.813c-0.521,-2.213 -1.3,-7.84 -2.341,-16.873l0.934,-3.127c0.146,-0.027 0.301,-0.027 0.475,0c0.286,0 0.807,3.96 1.559,11.874c0.521,4.167 1.147,6.773 1.874,7.814c0.64,0.706 1.526,1.033 2.66,0.992V46.66z" id="path_4"/><path fill="#C10D0D" d="M27.17,20.253c0.16,-0.093 0.207,0.053 0.14,0.434c-0.887,2.08 -2.247,3.533 -4.079,4.353l-6.74,3.38c-0.287,-0.08 -0.34,-0.313 -0.16,-0.707c0.9,-1.733 1.514,-2.76 1.84,-3.086L27.17,20.253z" id="path_5"/><path fill="#0000F6" d="M66.665,21.354c0.16,-0.093 0.206,0.053 0.14,0.434c-0.887,2.08 -2.247,3.533 -4.08,4.353l-6.74,3.38c-0.286,-0.08 -0.34,-0.313 -0.16,-0.707c0.9,-1.733 1.514,-2.76 1.841,-3.086L66.665,21.354z" id="path_6"/></svg>