<svg id="vector" xmlns="http://www.w3.org/2000/svg" width="174" height="67" viewBox="0 0 174.113 67"><path fill="#203e96" d="M156.008,21.028c0.324,0 0.647,1.081 0.971,3.23l1.454,3.23l-0.647,3.712l0.482,9.044v1.445c-0.213,3.691 -0.75,5.841 -1.611,6.461l-0.159,-0.158l0.159,-2.425c0,-2.177 -0.703,-9.119 -2.101,-20.82C155.23,22.268 155.712,21.028 156.008,21.028z" id="path_0"/><path fill="#203e96" d="M162.221,51.676c0.166,-0.089 0.213,0.056 0.145,0.448c-0.916,2.149 -2.321,3.65 -4.215,4.497l-6.963,3.492c-0.296,-0.082 -0.351,-0.324 -0.165,-0.723c0.93,-1.791 1.563,-2.852 1.901,-3.189L162.221,51.676z" id="path_1"/><path fill="#e21171" d="M140.071,24.947c1.591,0.509 2.831,1.157 3.712,1.935v0.324c0,0.538 -0.585,1.722 -1.771,3.554c-1.102,0 -2.341,-0.593 -3.712,-1.777v-0.324C138.301,27.502 138.893,26.262 140.071,24.947z" id="path_2"/><path fill="#e21171" d="M138.776,43.549c4.229,0.042 6.591,-0.75 7.108,-2.383c0,-0.564 -0.538,-1.963 -1.619,-4.193l0.489,-4.195h0.317c1.405,2.417 2.101,4.842 2.101,7.26v1.453c0,0.971 -0.234,1.99 -0.696,3.058c-0.461,1.067 -1.177,1.97 -2.135,2.692c-0.964,0.73 -2.817,1.033 -5.565,0.91V43.549z" id="path_3"/><path fill="#e21171" d="M147.929,15.793c0.296,0.51 0.641,1.963 1.033,4.36c-0.241,1.453 -0.875,2.176 -1.901,2.176h-0.138c-0.448,0 -1.026,-0.289 -1.756,-0.868c-0.496,0.875 -1.226,1.315 -2.176,1.315c-1.157,0 -1.736,-1.405 -1.736,-4.215c0.337,-1.068 0.627,-1.598 0.868,-1.598l0.138,0.145v2.479c0.2,0.86 0.448,1.288 0.73,1.288h0.585c0.606,0 0.992,-0.241 1.17,-0.723l-0.303,-2.177c0.117,-0.73 0.317,-1.116 0.585,-1.15h0.303c0.303,2.417 0.792,3.629 1.446,3.629h1.013v-0.144l-0.44,-2.9v-0.166C147.468,16.275 147.661,15.793 147.929,15.793z" id="path_4"/><path fill="#e21171" d="M150.375,6.916c0.166,-0.097 0.213,0.055 0.145,0.447c-0.916,2.149 -2.321,3.65 -4.215,4.498l-6.963,3.492c-0.296,-0.083 -0.352,-0.324 -0.166,-0.73c0.93,-1.791 1.563,-2.852 1.901,-3.189L150.375,6.916z" id="path_5"/><path fill="#000002" d="M138.838,48.15c-3.134,0.186 -5.414,-1.261 -6.839,-4.34c-0.688,-1.143 -1.329,-8.85 -1.935,-23.12v-0.324c0.399,-2.369 0.992,-3.554 1.77,-3.554l0.813,-0.158c0.991,0 2.5,0.324 4.518,0.964v0.324c-0.11,0.323 -0.434,0.489 -0.971,0.489h-2.742c-0.564,0 -1.102,0.316 -1.619,0.964c0.503,12.391 1.233,19.568 2.204,21.531c0.964,1.963 2.569,2.838 4.801,2.623V48.15z" id="path_6"/><path fill="#203e96" d="M119.264,21.028c0.324,0 0.647,1.081 0.971,3.23l1.453,3.23l-0.647,3.712l0.482,9.044v1.445c-0.214,3.691 -0.751,5.841 -1.612,6.461l-0.159,-0.158l0.159,-2.425c0,-2.177 -0.703,-9.119 -2.101,-20.82C118.486,22.268 118.968,21.028 119.264,21.028z" id="path_7"/><path fill="#203e96" d="M124.085,11.585c0.165,-0.096 0.213,0.055 0.145,0.447c-0.916,2.149 -2.321,3.651 -4.215,4.498l-6.963,3.492c-0.296,-0.083 -0.352,-0.323 -0.166,-0.73c0.93,-1.791 1.563,-2.852 1.901,-3.189L124.085,11.585z" id="path_8"/><path fill="#D50000" d="M99.167,42.357c-1.088,-1.253 -1.639,-2.548 -1.639,-3.898c0,-4.944 1.832,-7.424 5.489,-7.424h0.971c1.268,0 2.824,0.592 4.684,1.777c0.468,0.186 1.329,0.833 2.583,1.936c0.482,0.833 0.269,1.053 -0.647,0.647c-1.777,-0.86 -3.712,-1.288 -5.813,-1.288h-0.159c-1.694,0 -3.417,0.695 -5.166,2.094c0,1.129 1.825,2.37 5.489,3.712l1.935,0.323l7.259,-1.777c0.841,-0.172 0.937,0.435 0.303,1.832c-0.627,1.392 -1.804,2.342 -3.526,2.852c-2.004,0.807 -4.952,1.633 -8.837,2.473c-3.891,0.841 -7.184,1.309 -9.891,1.405v0.056c-3.884,0.123 -6.487,0.145 -7.796,0.075c-1.315,-0.075 -2.404,-0.173 -3.278,-0.296c-0.875,-0.117 -1.515,-0.523 -1.921,-1.213c-0.399,-0.682 0.489,-1.149 2.672,-1.398c2.19,-0.247 4.8,-0.398 7.831,-0.453C92.748,43.735 95.895,43.26 99.167,42.357z" id="path_9"/><path fill="#D50000" d="M102.169,17.804h1.598c1.936,0 2.907,0.723 2.907,2.177c-1.253,3.388 -2.776,5.186 -4.566,5.393l-2.114,0.283c-0.337,0 -0.475,-0.097 -0.427,-0.283c1.708,-0.902 3.306,-1.977 4.787,-3.209c-0.524,-0.489 -1.102,-0.73 -1.736,-0.73h-0.448l-1.735,0.145l-0.138,-0.145v-0.282C101.116,18.92 101.743,17.804 102.169,17.804z" id="path_10"/><path fill="#008146" d="M74.709,42.6c0.337,0 0.688,0 1.054,0l0.806,-0.407c0.509,-1.047 1.267,-2.335 2.259,-3.87L77.217,25.89c0.537,-2.583 1.019,-3.871 1.453,-3.871l0.806,3.065c0.75,1.047 1.129,2.018 1.129,2.906c-0.537,0.992 -0.806,1.805 -0.806,2.417v0.324l0.324,5.166v0.813c1.667,-1.406 3.898,-2.17 6.694,-2.301c3.23,0.454 4.842,1.529 4.842,3.223v1.131c-0.538,2.396 -1.343,4.229 -2.418,5.488c-3.258,1.832 -6.833,2.811 -10.737,2.947h-1.777c-0.709,0 -1.384,0 -2.018,0V42.6L74.709,42.6zM77.857,42.682h0.324c4.925,-0.138 8.775,-1.012 11.543,-2.624c-1.26,-1.294 -2.177,-1.936 -2.741,-1.936h-1.295C82.003,38.254 79.393,39.775 77.857,42.682z" id="path_11"/><path fill="#008146" d="M92.514,20.931c0.165,-0.097 0.213,0.055 0.145,0.448c-0.917,2.148 -2.321,3.65 -4.215,4.498l-6.963,3.492c-0.296,-0.083 -0.351,-0.324 -0.165,-0.729c0.93,-1.791 1.563,-2.852 1.901,-3.189L92.514,20.931z" id="path_12"/><path fill="#000002" d="M70.542,48.329c1.673,0.675 2.906,1.426 3.719,2.259v0.166c-0.889,2.362 -1.591,3.547 -2.101,3.547c-0.406,0 -1.694,-0.648 -3.878,-1.936l-1.453,2.741c-2.796,-1.02 -4.194,-1.771 -4.194,-2.259c0.592,-2.204 1.185,-3.499 1.777,-3.871c0.455,0 1.853,0.695 4.194,2.102C69.496,49.245 70.143,48.329 70.542,48.329z" id="path_13"/><path fill="#000002" d="M59.646,42.6h1.054c2.094,-0.173 3.657,-1.006 4.676,-2.501l0.165,-0.489l-0.482,-2.417c0.104,-2.583 0.372,-3.877 0.806,-3.877c1.288,4.545 2.527,7.322 3.712,8.313c1.02,0.579 2.417,0.896 4.195,0.95c0.475,0 0.916,0 1.336,0v4.621c-0.53,0 -1.081,0 -1.66,0h-0.158c-3.092,0 -5.462,-1.721 -7.101,-5.165v-0.158l-1.453,2.899c-1.102,1.633 -2.72,2.438 -4.842,2.424h-0.248V42.6z" id="path_14"/><path fill="#000002" d="M66.169,20.284h1.598c1.935,0 2.906,0.723 2.906,2.177c-1.253,3.388 -2.775,5.186 -4.566,5.393l-2.114,0.282c-0.337,0 -0.475,-0.096 -0.427,-0.282c1.708,-0.902 3.306,-1.977 4.787,-3.209c-0.523,-0.489 -1.103,-0.73 -1.736,-0.73h-0.448l-1.735,0.145l-0.138,-0.145v-0.282C65.115,21.399 65.742,20.284 66.169,20.284z" id="path_15"/><path fill="#D50000" d="M51.967,28.838c0.551,0 1.846,0.647 3.877,1.936c0,0.806 -0.647,2.101 -1.942,3.877c-2.583,-0.833 -3.871,-1.591 -3.871,-2.259C50.101,31.786 50.742,30.601 51.967,28.838z" id="path_16"/><path fill="#D50000" d="M46.092,42.6c1.15,0.014 1.86,-0.008 2.142,-0.063c2.424,-0.736 4.077,-2.308 4.966,-4.697c0.131,-0.462 0.399,-0.517 0.806,-0.166c0.213,0.187 0.379,0.944 0.482,2.26c1.467,1.977 3.299,2.865 5.489,2.666h0.427v4.6h-0.103c-3.43,-0.158 -5.958,-1.721 -7.59,-4.684h-0.158c-1.143,2.411 -2.651,3.893 -4.518,4.443c-0.565,0.158 -1.212,0.24 -1.942,0.24V42.6z" id="path_17"/><path fill="#000002" d="M46.299,47.199h-0.207c-4.022,0.111 -7.197,-1.783 -9.519,-5.668c-0.124,0.441 -0.248,0.854 -0.365,1.232c-0.338,0.917 -0.785,1.653 -1.35,2.219c-0.434,0.481 -0.971,0.888 -1.619,1.212c-1.412,0.765 -3.396,1.364 -5.951,1.798l-4.56,0.158h-1.619c-3.815,0 -6.729,-1.398 -8.733,-4.195c-0.537,-0.943 -0.75,-2.183 -0.627,-3.711c0.621,-3.989 1.426,-5.979 2.425,-5.979c0.344,0 0.564,0.166 0.64,0.489c0,0.427 -0.592,1.88 -1.77,4.353v0.165c0,1.88 2.204,3.333 6.612,4.359l1.942,0.159c6.887,0 11.495,-1.178 13.823,-3.533c-0.166,-1.047 -1.178,-3.383 -3.051,-6.998l-0.324,-1.295c-0.345,-1.694 -0.337,-3.244 0.042,-4.656c0.378,-1.412 1.116,-2.39 2.217,-2.927c2.563,-1.722 7.453,-4.573 14.691,-8.554l0.166,0.159v0.323c-1.563,2.445 -2.748,4.711 -3.554,6.777h-0.324l-0.158,-0.806v-0.806l0.158,-0.165v-0.159h-0.158c-5.999,3.472 -10.035,5.999 -12.108,7.59V28.9c1.047,2.115 1.874,3.995 2.479,5.647c1.832,3.271 3.554,5.427 5.165,6.467c1.619,1.048 3.072,1.563 4.36,1.563h1.274V47.199z" id="path_18"/><path fill="#000002" d="M31.022,21.276c0.166,-0.097 0.213,0.055 0.145,0.447c-0.917,2.149 -2.321,3.65 -4.215,4.498l-6.963,3.492c-0.296,-0.083 -0.351,-0.324 -0.165,-0.73c0.93,-1.791 1.563,-2.852 1.901,-3.189L31.022,21.276z" id="path_19"/><path fill="#000002" d="M129.096,12.457c0.548,0 0.964,0.141 1.763,0.345c0.988,0.251 1.678,0.369 2.155,0.369c2.014,0 3.582,-1.301 4.679,-3.872c0.047,-0.133 0.165,-0.478 -0.094,-0.478c-0.086,0 -0.228,0.094 -0.337,0.228c-0.235,0.274 -0.462,0.595 -0.948,0.987c-0.478,0.392 -1.097,0.595 -1.63,0.595c-0.408,0 -0.823,-0.062 -2.084,-0.384c-1.097,-0.313 -1.944,-0.455 -2.563,-0.455c-1.151,0 -2.116,0.439 -2.915,1.285c-0.784,0.854 -1.309,1.842 -1.614,2.962c-0.039,0.165 -0.086,0.51 0.141,0.51c0.118,0 0.251,-0.094 0.369,-0.259C127.137,12.873 128.266,12.457 129.096,12.457z" id="path_20"/><path fill="#D50000" d="M52.773,10.339c1.295,2.204 1.942,4.359 1.942,6.453c-0.564,3.981 -1.267,5.971 -2.101,5.971l-0.159,-0.158v-0.158l0.317,-2.101v-0.165c0,-1.288 -0.537,-3.224 -1.611,-5.806v-0.324C51.699,11.572 52.236,10.339 52.773,10.339z" id="path_21"/></svg>