<svg id="vector" xmlns="http://www.w3.org/2000/svg" width="216" height="67" viewBox="0 0 215.988 67"><path fill="#203e96" d="M167.537,22.203c1.457,0 2.926,0.75 4.402,2.244c0.142,0.256 0.088,0.455 -0.168,0.606c-0.256,0.145 -0.492,0.11 -0.701,-0.104c-0.634,-0.578 -1.53,-0.868 -2.683,-0.868h-0.499c-0.486,0 -1.052,0.207 -1.699,0.627c0,1.213 1.423,1.957 4.268,2.238l2.825,-1.129l0.122,0.386c0,1.356 -1.632,2.569 -4.902,3.63l-4.524,2.623l-0.472,0.117c-0.182,0.042 -0.31,-0.033 -0.378,-0.24c0,-0.723 1.025,-1.729 3.061,-3.004v-0.123c-0.984,-0.551 -1.477,-1.344 -1.477,-2.383C165.17,23.745 166.114,22.203 167.537,22.203z" id="path_0"/><path fill="#203e96" d="M161.367,39.276c1.126,0.014 1.82,-0.007 2.097,-0.062c2.373,-0.738 3.991,-2.309 4.861,-4.697c0.128,-0.462 0.391,-0.518 0.789,-0.166c0.209,0.186 0.371,0.943 0.472,2.26c1.437,1.977 3.23,2.865 5.374,2.665h0.418v4.601h-0.102c-3.357,-0.158 -5.832,-1.723 -7.43,-4.684h-0.155c-1.119,2.41 -2.596,3.892 -4.423,4.443c-0.553,0.158 -1.187,0.24 -1.901,0.24V39.276z" id="path_1"/><path fill="#203e96" d="M173.753,47.968c0.162,-0.089 0.209,0.056 0.142,0.448c-0.897,2.148 -2.272,3.65 -4.126,4.497l-6.816,3.492c-0.29,-0.083 -0.344,-0.324 -0.162,-0.724c0.91,-1.79 1.53,-2.852 1.861,-3.188L173.753,47.968z" id="path_2"/><path fill="#000002" d="M151.133,18.208c2.218,1.129 3.324,2.101 3.324,2.906c-1.059,2.128 -1.686,3.202 -1.901,3.229h-0.316c-1.619,-0.832 -2.616,-1.584 -3.001,-2.258C149.609,20.859 150.243,19.572 151.133,18.208z" id="path_3"/><path fill="#000002" d="M161.819,43.898c-2.71,-0.187 -5.171,-1.702 -7.383,-4.539h-0.162c-0.944,5.592 -3.054,8.389 -6.317,8.395h-0.479c-1.416,-0.006 -2.791,-1.294 -4.105,-3.877c-1.052,-3.63 -1.578,-6.377 -1.578,-8.23v-1.295c0,-0.806 0.155,-1.239 0.472,-1.288c0.445,0.241 0.978,2.005 1.591,5.297c0.614,3.284 1.874,4.855 3.782,4.711c3.688,-0.62 5.636,-2.775 5.846,-6.46l-1.423,-5v-1.777c0.054,-2.156 0.263,-3.23 0.634,-3.23c0.209,0.482 0.371,0.971 0.472,1.453l2.211,7.102c1.739,2.879 3.89,4.242 6.438,4.076V43.898z" id="path_4"/><path fill="#000002" d="M155.677,53.904l0.162,0.146v0.44c-0.816,1.791 -1.955,3.045 -3.418,3.774c-4.531,2.514 -7.046,3.774 -7.544,3.774c-0.182,0 -0.276,-0.152 -0.276,-0.447c0.432,-1.709 1.382,-2.865 2.845,-3.472l8.097,-4.216H155.677z" id="path_5"/><path fill="#000002" d="M154.551,50.275c0.188,0 0.276,0.138 0.276,0.42c-0.525,1.563 -2.083,2.969 -4.679,4.223l-5.987,3.347l-0.135,-0.145v-0.159c0.566,-2.045 1.47,-3.305 2.704,-3.773l6.682,-3.492L154.551,50.275z" id="path_6"/><path fill="#e21171" d="M139.105,52.391c-0.661,0 -1.814,-0.807 -3.479,-2.418c0,-0.537 0.634,-1.723 1.901,-3.555h0.317c0.654,0 1.659,0.648 3,1.936v0.166C140.844,49.166 140.264,50.455 139.105,52.391z" id="path_7"/><path fill="#e21171" d="M133.414,53.195c-2.629,-1.15 -3.951,-2.066 -3.951,-2.74c0.162,-0.51 0.896,-1.64 2.218,-3.389c1.76,0.695 3.027,1.508 3.789,2.417C134.917,51.288 134.23,52.527 133.414,53.195z" id="path_8"/><path fill="#e21171" d="M129.962,43.732c-8.771,0.379 -13.491,-0.035 -14.152,-1.246c-0.667,-1.213 2.367,-1.832 9.096,-1.86c1.328,-0.027 2.171,-0.062 2.528,-0.116c5.346,-0.848 8.609,-1.764 9.796,-2.749v-0.158l-1.74,-4.201v-0.641c0,-2.155 0.263,-3.23 0.789,-3.23c1.476,2.879 2.211,5.138 2.211,6.777v0.324c0,3.739 -1.841,5.896 -5.529,6.46C132.025,43.347 131.027,43.561 129.962,43.732z" id="path_9"/><path fill="#e21171" d="M137.5,18.352c0.29,0.511 0.627,1.963 1.011,4.36c-0.236,1.453 -0.856,2.177 -1.861,2.177h-0.135c-0.438,0 -1.005,-0.289 -1.719,-0.868c-0.486,0.875 -1.2,1.315 -2.13,1.315c-1.133,0 -1.699,-1.404 -1.699,-4.215c0.33,-1.067 0.614,-1.598 0.85,-1.598l0.135,0.145v2.479c0.195,0.86 0.438,1.288 0.715,1.288h0.573c0.594,0 0.971,-0.242 1.146,-0.724l-0.297,-2.177c0.115,-0.73 0.31,-1.115 0.573,-1.15h0.296c0.297,2.418 0.775,3.63 1.416,3.63h0.991v-0.144l-0.432,-2.9v-0.166C137.048,18.834 137.237,18.352 137.5,18.352z" id="path_10"/><path fill="#e21171" d="M139.894,9.475c0.162,-0.097 0.209,0.055 0.142,0.447c-0.897,2.148 -2.272,3.65 -4.126,4.498l-6.817,3.492c-0.29,-0.083 -0.344,-0.324 -0.162,-0.73c0.91,-1.791 1.53,-2.852 1.861,-3.189L139.894,9.475z" id="path_11"/><path fill="#008146" d="M106.891,39.276h0.613c2.083,-0.228 3.836,-1.516 5.259,-3.856c0.209,-0.482 0.418,-0.752 0.627,-0.807h0.162l0.472,0.489c-0.067,0.612 -0.168,1.047 -0.317,1.288c0.924,1.722 2.029,2.582 3.317,2.582l0.162,0.158c2.292,-5.165 4.867,-7.748 7.74,-7.748c2.292,0 3.978,0.972 5.057,2.906v0.973c0,5.916 -3.58,8.877 -10.747,8.877l-2.367,-0.158c-0.735,2.039 -1.213,3.064 -1.422,3.064l-0.155,-0.158v-0.166l0.472,-2.74v-0.324c-1.558,-0.889 -2.765,-2.128 -3.634,-3.712c-0.816,2.728 -2.563,4.042 -5.239,3.933V39.276L106.891,39.276zM118.763,39.455h0.317c3.58,0 6.635,-0.537 9.163,-1.611c0,-1.157 -1.052,-1.963 -3.156,-2.424h-0.634C121.925,35.42 120.031,36.77 118.763,39.455z" id="path_12"/><path fill="#008146" d="M117.988,18.414h1.564c1.895,0 2.845,0.724 2.845,2.177c-1.227,3.389 -2.717,5.187 -4.47,5.394l-2.07,0.281c-0.331,0 -0.465,-0.096 -0.418,-0.281c1.672,-0.902 3.236,-1.978 4.686,-3.21c-0.513,-0.489 -1.079,-0.73 -1.699,-0.73h-0.438l-1.699,0.146l-0.135,-0.146v-0.282C116.956,19.53 117.57,18.414 117.988,18.414z" id="path_13"/><path fill="#000002" d="M107.45,43.898c-2.71,-0.187 -5.171,-1.702 -7.383,-4.539h-0.162c-0.944,5.592 -3.054,8.389 -6.317,8.395h-0.479c-1.416,-0.006 -2.792,-1.294 -4.106,-3.877c-1.052,-3.63 -1.578,-6.377 -1.578,-8.23v-1.295c0,-0.806 0.155,-1.239 0.472,-1.288c0.444,0.241 0.977,2.005 1.591,5.297c0.613,3.284 1.874,4.855 3.782,4.711c3.688,-0.62 5.636,-2.775 5.846,-6.46l-1.423,-5v-1.777c0.054,-2.156 0.263,-3.23 0.634,-3.23c0.209,0.482 0.371,0.971 0.472,1.453l2.211,7.102c1.739,2.879 3.89,4.242 6.438,4.076V43.898z" id="path_14"/><path fill="#000002" d="M98.389,11.485c1.618,0 2.427,1.02 2.427,3.052c0,3.236 -2.704,5.998 -8.118,8.271c-0.775,0.24 -0.87,-0.049 -0.276,-0.868c0.148,-0.31 1.423,-1.28 3.83,-2.906v-0.138c-1.038,-0.434 -1.557,-1.357 -1.557,-2.769c0.688,-3.093 1.78,-4.643 3.277,-4.643H98.389L98.389,11.485zM95.975,14.978c0,0.86 0.715,1.392 2.137,1.598h0.277c0.525,0 0.863,-0.199 1.004,-0.585c0,-0.875 -0.621,-1.557 -1.854,-2.039C97,13.951 96.48,14.295 95.975,14.978z" id="path_15"/><path fill="#008146" d="M81.479,34.957c0.944,0.972 1.841,3.065 2.684,6.295l0.162,2.102c0,3.795 -1.848,6.378 -5.535,7.748l-1.106,0.158l-2.805,0.042l-2.724,-0.042L72,51.102v-0.165c0.337,-0.372 2.603,-1.501 6.79,-3.389c2.636,-1.528 4.059,-2.879 4.268,-4.036c-1.369,-2.982 -2.05,-4.703 -2.05,-5.166v-0.481C81.007,35.929 81.162,34.957 81.479,34.957z" id="path_16"/><path fill="#008146" d="M80.353,21.231c1.618,0 2.427,1.019 2.427,3.052c0,3.236 -2.704,5.998 -8.118,8.271c-0.775,0.24 -0.87,-0.049 -0.276,-0.868c0.148,-0.31 1.423,-1.281 3.83,-2.907v-0.137c-1.039,-0.435 -1.558,-1.357 -1.558,-2.77c0.688,-3.092 1.78,-4.642 3.277,-4.642H80.353L80.353,21.231zM77.939,24.723c0,0.861 0.715,1.393 2.137,1.599h0.276c0.526,0 0.863,-0.2 1.004,-0.585c0,-0.875 -0.62,-1.557 -1.854,-2.039C78.964,23.697 78.445,24.041 77.939,24.723z" id="path_17"/><path fill="#000002" d="M69.39,16.754c0.316,0 0.634,1.082 0.95,3.23l1.423,3.23l-0.634,3.713l0.472,9.043v1.445c-0.209,3.692 -0.735,5.842 -1.578,6.461l-0.155,-0.158l0.155,-2.425c0,-2.177 -0.688,-9.118 -2.057,-20.82C68.628,17.994 69.1,16.754 69.39,16.754z" id="path_18"/><path fill="#000002" d="M57.604,39.256c0.182,0.014 0.378,0.021 0.593,0.021h1.497c1.584,-0.269 2.792,-0.833 3.634,-1.694l-1.895,-15.338c0.472,-2.907 0.897,-4.354 1.261,-4.354l2.056,4.842c0,0.751 -0.263,1.881 -0.789,3.389l0.789,8.713v2.424c-0.593,2.569 -1.389,4.367 -2.387,5.387c-0.755,0.819 -1.639,1.232 -2.67,1.232h-1.342c-0.263,0 -0.512,-0.007 -0.749,-0.021V39.256z" id="path_19"/><path fill="#e21171" d="M50.788,25.516c0.539,0 1.807,0.646 3.796,1.936c0,0.805 -0.634,2.1 -1.901,3.877c-2.528,-0.834 -3.789,-1.591 -3.789,-2.259C48.961,28.463 49.588,27.278 50.788,25.516z" id="path_20"/><path fill="#e21171" d="M45.037,39.276c1.126,0.014 1.82,-0.007 2.097,-0.062c2.373,-0.738 3.991,-2.309 4.861,-4.697c0.128,-0.462 0.391,-0.518 0.789,-0.166c0.209,0.186 0.371,0.943 0.472,2.26c1.437,1.977 3.23,2.865 5.374,2.665h0.418v4.601h-0.102c-3.357,-0.158 -5.832,-1.723 -7.43,-4.684h-0.155c-1.12,2.41 -2.596,3.892 -4.423,4.443c-0.553,0.158 -1.187,0.24 -1.901,0.24V39.276z" id="path_21"/><path fill="#e21171" d="M54.381,13.869c0.29,0.51 0.627,1.963 1.012,4.359c-0.236,1.453 -0.856,2.176 -1.861,2.176h-0.135c-0.438,0 -1.004,-0.289 -1.719,-0.867c-0.486,0.875 -1.2,1.315 -2.13,1.315c-1.133,0 -1.699,-1.405 -1.699,-4.216c0.33,-1.066 0.614,-1.598 0.85,-1.598l0.135,0.146v2.479c0.196,0.86 0.438,1.287 0.715,1.287h0.573c0.594,0 0.971,-0.24 1.146,-0.723l-0.297,-2.177c0.115,-0.729 0.311,-1.116 0.573,-1.149h0.297c0.296,2.417 0.775,3.629 1.416,3.629h0.991v-0.145l-0.432,-2.899v-0.165C53.93,14.351 54.118,13.869 54.381,13.869z" id="path_22"/><path fill="#e21171" d="M56.769,4.991c0.162,-0.097 0.209,0.055 0.141,0.447c-0.896,2.149 -2.272,3.65 -4.126,4.497l-6.816,3.492c-0.29,-0.082 -0.344,-0.323 -0.162,-0.729c0.911,-1.791 1.531,-2.852 1.861,-3.189L56.769,4.991z" id="path_23"/><path fill="#000002" d="M45.078,43.877c-3.068,0.186 -5.3,-1.26 -6.695,-4.339c-0.674,-1.144 -1.301,-8.851 -1.895,-23.121v-0.323c0.391,-2.369 0.971,-3.555 1.733,-3.555l0.795,-0.158c0.971,0 2.448,0.324 4.423,0.965v0.323c-0.108,0.323 -0.425,0.489 -0.95,0.489h-2.684c-0.553,0 -1.079,0.316 -1.584,0.964c0.492,12.391 1.207,19.567 2.157,21.53c0.944,1.963 2.515,2.838 4.7,2.624V43.877z" id="path_24"/><path fill="#000002" d="M33.932,28.704h0.317c0.371,0 0.58,1.075 0.634,3.229v0.641c0,3.555 -1.059,5.332 -3.162,5.332c-2.002,-0.565 -3,-1.268 -3,-2.102h-0.162c-0.634,1.723 -1.632,2.583 -3,2.583l-1.584,-0.159c0.081,0.807 0.081,1.398 0,1.771c-0.526,3.229 -1.679,5.902 -3.452,8.023c-1.78,2.121 -4.106,3.209 -6.971,3.278h-0.634c-4.531,0 -7.747,-2.583 -9.641,-7.749l-0.155,-2.259v-0.647c0.317,-5.221 1.787,-8.396 4.423,-9.525l0.155,0.166v0.158l-2.367,4.036c-0.452,0.943 -0.762,2.128 -0.951,3.554c0,3.361 2.211,5.834 6.641,7.425l1.578,0.158h1.261c3.587,0 6.695,-1.991 9.325,-5.972v-0.158c-0.209,-1.563 -0.998,-3.34 -2.367,-5.33l-0.162,-0.807v-3.064l0.316,-0.324h0.162c1.234,1.832 2.764,2.741 4.578,2.741h0.162c1.396,0 2.447,-1.074 3.155,-3.223l0.162,-0.165h0.317l0.316,0.323v0.481l-0.162,0.648c0.634,0.971 1.477,1.453 2.528,1.453h0.162c0.944,0 1.422,-0.916 1.422,-2.741L33.932,28.704z" id="path_25"/><path fill="#000002" d="M23.482,12.883c1.618,0 2.427,1.021 2.427,3.052c0,3.237 -2.704,5.999 -8.118,8.272c-0.775,0.24 -0.87,-0.049 -0.276,-0.868c0.148,-0.31 1.423,-1.281 3.83,-2.907v-0.137c-1.038,-0.435 -1.557,-1.357 -1.557,-2.77c0.688,-3.092 1.78,-4.643 3.277,-4.643H23.482L23.482,12.883zM21.068,16.376c0,0.86 0.715,1.391 2.137,1.598h0.276c0.526,0 0.863,-0.2 1.005,-0.585c0,-0.875 -0.621,-1.557 -1.854,-2.039C22.093,15.35 21.574,15.693 21.068,16.376z" id="path_26"/><path fill="#000002" d="M202.246,46.659h0.317c1.079,0.241 2.238,0.889 3.479,1.942v0.158c-0.715,2.204 -1.342,3.389 -1.895,3.555c-1.611,-0.324 -2.818,-0.861 -3.634,-1.619v-0.158C200.513,49.27 201.093,47.982 202.246,46.659z" id="path_27"/><path fill="#000002" d="M208.098,45.206h0.155c1.079,0.165 2.292,0.916 3.634,2.259v0.166l-1.895,3.389c-2.529,-0.834 -3.796,-1.536 -3.796,-2.101C207.012,46.445 207.646,45.206 208.098,45.206z" id="path_28"/><path fill="#000002" d="M200.843,39.276c4.14,0.042 6.452,-0.751 6.958,-2.384c0,-0.564 -0.526,-1.963 -1.584,-4.193l0.479,-4.195h0.31c1.375,2.418 2.057,4.842 2.057,7.26v1.453c0,0.971 -0.229,1.99 -0.681,3.059c-0.452,1.066 -1.153,1.969 -2.09,2.692c-0.944,0.729 -2.757,1.033 -5.448,0.909V39.276z" id="path_29"/><path fill="#000002" d="M212.696,17.381c0.162,-0.096 0.209,0.055 0.141,0.447c-0.897,2.149 -2.272,3.65 -4.126,4.498l-6.816,3.492c-0.29,-0.082 -0.344,-0.324 -0.162,-0.73c0.911,-1.791 1.531,-2.852 1.861,-3.189L212.696,17.381z" id="path_30"/><path fill="#203e96" d="M201.538,43.877l-1.78,-0.021c-0.985,4.429 -3.594,6.667 -7.821,6.722c-2.265,0.104 -3.398,0.063 -3.398,-0.123c0.209,-0.406 1.726,-1.186 4.544,-2.342c2.899,-1.881 4.646,-3.094 5.252,-3.631l0.162,-0.481l-2.765,-0.448c-2.016,-0.537 -3.148,-1.57 -3.398,-3.105v-0.324c0,-2.61 0.627,-4.277 1.895,-5.007l0.951,-0.159c1.868,0 3.391,1.33 4.578,3.995c0.755,0.269 1.348,0.399 1.78,0.386V43.877z" id="path_31"/><path fill="#203e96" d="M194.208,21.68h1.564c1.895,0 2.845,0.723 2.845,2.176c-1.227,3.389 -2.717,5.186 -4.47,5.393l-2.07,0.282c-0.331,0 -0.465,-0.097 -0.418,-0.282c1.672,-0.902 3.236,-1.977 4.686,-3.209c-0.513,-0.489 -1.079,-0.73 -1.699,-0.73h-0.438l-1.699,0.145l-0.135,-0.145v-0.282C193.177,22.795 193.791,21.68 194.208,21.68z" id="path_32"/><path fill="#000002" d="M174.697,39.276c0.215,0 0.438,0 0.674,0h0.161c1.969,-0.124 3.763,-1.798 5.367,-5.021c1.74,-2.693 3.533,-4.037 5.374,-4.037c2.319,0 3.479,1.502 3.479,4.519v0.806c0,1.48 -0.58,3.416 -1.739,5.813l-1.105,0.807c-0.978,0 -3.236,-0.703 -6.796,-2.102c-1.079,1.654 -1.921,2.659 -2.528,3.011c-0.923,0.654 -1.868,0.93 -2.845,0.806h-0.04V39.276L174.697,39.276zM182.639,35.867v0.158c2.737,1.082 4.375,1.619 4.901,1.619c0.208,0 0.317,-0.166 0.317,-0.49c-0.607,-1.611 -1.611,-2.417 -3.007,-2.417C183.879,34.737 183.138,35.116 182.639,35.867z" id="path_33"/><path fill="#000002" d="M187.736,17.567c0.162,-0.097 0.209,0.055 0.141,0.447c-0.896,2.149 -2.272,3.65 -4.126,4.497l-6.817,3.492c-0.29,-0.082 -0.343,-0.323 -0.161,-0.73c0.91,-1.791 1.53,-2.851 1.861,-3.188L187.736,17.567z" id="path_34"/></svg>