<svg id="vector" xmlns="http://www.w3.org/2000/svg" width="99" height="67" viewBox="0 0 99.178 67"><path fill="#000002" d="M85.86,41.78c0.18,0.014 0.374,0.021 0.587,0.021h1.483c1.569,-0.261 2.765,-0.809 3.599,-1.643l-1.876,-14.871c0.467,-2.818 0.888,-4.221 1.249,-4.221l2.037,4.694c0,0.729 -0.261,1.823 -0.782,3.285l0.782,8.447v2.352c-0.588,2.49 -1.375,4.233 -2.364,5.222c-0.748,0.794 -1.623,1.195 -2.644,1.195h-1.329c-0.26,0 -0.507,-0.007 -0.741,-0.021V41.78z" id="path_0"/><path fill="#000002" d="M96.124,12.379c0.161,-0.094 0.207,0.054 0.14,0.434c-0.888,2.084 -2.25,3.54 -4.086,4.361l-6.751,3.385c-0.287,-0.079 -0.34,-0.313 -0.16,-0.707c0.901,-1.736 1.516,-2.765 1.843,-3.092L96.124,12.379z" id="path_1"/><path fill="#D50000" d="M75.203,49.079c0.648,0 1.796,0.781 3.439,2.344c0,0.528 -0.621,1.67 -1.876,3.446h-0.314c-0.654,0 -1.643,-0.628 -2.972,-1.877v-0.16C73.48,52.211 74.054,50.956 75.203,49.079z" id="path_2"/><path fill="#D50000" d="M80.832,48.298c2.611,1.122 3.913,2.003 3.913,2.658c-0.153,0.494 -0.881,1.589 -2.19,3.285c-1.75,-0.675 -2.998,-1.456 -3.753,-2.344C79.35,50.148 80.024,48.945 80.832,48.298z" id="path_3"/><path fill="#D50000" d="M72.438,41.801c1.115,0.014 1.803,-0.007 2.077,-0.061c2.351,-0.714 3.953,-2.236 4.814,-4.554c0.127,-0.447 0.388,-0.501 0.782,-0.16c0.207,0.18 0.367,0.915 0.467,2.19c1.422,1.916 3.199,2.777 5.322,2.584h0.414v4.461h-0.101c-3.325,-0.154 -5.776,-1.67 -7.359,-4.541h-0.153c-1.109,2.337 -2.571,3.772 -4.38,4.307c-0.548,0.154 -1.175,0.234 -1.883,0.234V41.801z" id="path_4"/><path fill="#D50000" d="M80.211,20.259c1.603,0 2.404,0.988 2.404,2.958c0,3.139 -2.678,5.816 -8.04,8.02c-0.768,0.234 -0.861,-0.047 -0.274,-0.841c0.147,-0.301 1.409,-1.242 3.793,-2.818v-0.134c-1.029,-0.42 -1.543,-1.315 -1.543,-2.685c0.681,-2.998 1.763,-4.5 3.246,-4.5H80.211L80.211,20.259zM77.821,23.645c0,0.834 0.708,1.349 2.117,1.549h0.274c0.521,0 0.854,-0.193 0.995,-0.567c0,-0.848 -0.614,-1.51 -1.836,-1.977C78.836,22.649 78.321,22.983 77.821,23.645z" id="path_5"/><path fill="#f26122" d="M63.551,23.729c2.397,0.988 3.599,1.822 3.599,2.504l-2.037,3.125H64.96c-0.447,0 -1.643,-0.621 -3.599,-1.877C62.322,24.978 63.057,23.729 63.551,23.729z" id="path_6"/><path fill="#f26122" d="M57.567,41.801h1.021c2.03,-0.167 3.545,-0.976 4.534,-2.424l0.16,-0.475l-0.467,-2.344c0.101,-2.504 0.361,-3.76 0.782,-3.76c1.249,4.407 2.45,7.099 3.599,8.061c0.988,0.561 2.344,0.868 4.067,0.921c0.46,0 0.888,0 1.295,0v4.481c-0.514,0 -1.049,0 -1.609,0h-0.154c-2.998,0 -5.295,-1.67 -6.885,-5.009V41.1l-1.409,2.812c-1.069,1.582 -2.638,2.363 -4.695,2.351h-0.24V41.801z" id="path_7"/><path fill="#f26122" d="M63.991,14.709h1.549c1.876,0 2.818,0.702 2.818,2.111c-1.215,3.284 -2.691,5.027 -4.427,5.229l-2.05,0.273c-0.327,0 -0.46,-0.094 -0.414,-0.273c1.656,-0.875 3.206,-1.917 4.641,-3.112c-0.507,-0.475 -1.068,-0.708 -1.683,-0.708h-0.434l-1.683,0.141l-0.134,-0.141v-0.273C62.969,15.791 63.577,14.709 63.991,14.709z" id="path_8"/><path fill="#000002" d="M50.202,47.984c0.534,0 1.79,0.628 3.76,1.876c0,0.781 -0.628,2.037 -1.883,3.76c-2.504,-0.814 -3.752,-1.543 -3.752,-2.197C48.392,50.842 49.013,49.694 50.202,47.984z" id="path_9"/><path fill="#000002" d="M44.506,41.801c1.115,0.014 1.803,-0.007 2.077,-0.061c2.351,-0.714 3.953,-2.236 4.814,-4.554c0.127,-0.447 0.388,-0.501 0.782,-0.16c0.207,0.18 0.367,0.915 0.467,2.19c1.422,1.916 3.199,2.777 5.322,2.584h0.414v4.461h-0.101c-3.325,-0.154 -5.776,-1.67 -7.359,-4.541H50.77c-1.109,2.337 -2.571,3.772 -4.38,4.307c-0.548,0.154 -1.176,0.234 -1.883,0.234V41.801z" id="path_10"/><path fill="#000002" d="M54.708,19.151c0.16,-0.093 0.207,0.054 0.14,0.435c-0.888,2.083 -2.25,3.539 -4.086,4.36l-6.751,3.386c-0.287,-0.08 -0.34,-0.314 -0.16,-0.708c0.901,-1.736 1.516,-2.765 1.843,-3.092L54.708,19.151z" id="path_11"/><path fill="#203e96" d="M34.369,21.374c2.197,1.095 3.292,2.036 3.292,2.817c-1.048,2.063 -1.669,3.105 -1.883,3.132h-0.314c-1.603,-0.808 -2.591,-1.535 -2.972,-2.189C32.86,23.944 33.488,22.696 34.369,21.374z" id="path_12"/><path fill="#203e96" d="M44.953,46.281c-2.684,-0.18 -5.122,-1.649 -7.312,-4.4h-0.16c-0.935,5.422 -3.025,8.134 -6.257,8.14H30.75c-1.402,-0.006 -2.765,-1.255 -4.066,-3.759c-1.042,-3.52 -1.563,-6.184 -1.563,-7.98v-1.255c0,-0.781 0.153,-1.202 0.467,-1.249c0.441,0.233 0.968,1.943 1.576,5.136c0.607,3.185 1.856,4.707 3.746,4.566c3.653,-0.601 5.583,-2.69 5.79,-6.263l-1.409,-4.848v-1.724c0.054,-2.09 0.261,-3.132 0.628,-3.132c0.207,0.468 0.367,0.941 0.467,1.409l2.19,6.885c1.723,2.791 3.854,4.113 6.377,3.953V46.281z" id="path_13"/><path fill="#203e96" d="M39.003,12.158c0.16,-0.093 0.207,0.054 0.14,0.435c-0.888,2.083 -2.25,3.539 -4.086,4.36l-6.751,3.386c-0.287,-0.08 -0.34,-0.313 -0.161,-0.708c0.902,-1.736 1.516,-2.765 1.844,-3.092L39.003,12.158z" id="path_14"/><path fill="#e21171" d="M12.587,36.873H12.9c1.462,0.333 2.765,1.121 3.913,2.344v0.313c-0.1,0.835 -0.728,1.93 -1.876,3.285c-2.711,-0.908 -4.066,-1.696 -4.066,-2.344C11.518,38.596 12.092,37.394 12.587,36.873z" id="path_15"/><path fill="#e21171" d="M20.887,33.741h0.307c0.367,0 1.255,2.35 2.665,7.045l0.153,0.621c0,3.679 -0.888,6.343 -2.658,7.985c-2.504,2.712 -5.476,4.067 -8.921,4.067c-2.818,-0.628 -4.641,-1.249 -5.476,-1.877c-2.718,-2.323 -4.073,-5.194 -4.073,-8.607c0,-2.871 1.255,-5.582 3.759,-8.14l0.154,-0.153h0.313l0.314,0.307c0,0.268 -0.728,1.409 -2.19,3.446c-0.42,0.728 -0.681,1.723 -0.781,2.972c0,2.431 1.249,4.514 3.753,6.264c2.451,0.941 4.12,1.408 5.008,1.408c2.244,0 4.901,-0.995 7.98,-2.972c1.255,-1.102 1.883,-1.775 1.883,-2.036l-2.19,-6.104l-0.161,-1.095L20.887,33.741z" id="path_16"/><path fill="#e21171" d="M15.579,22.415c0.287,0.494 0.621,1.903 1.001,4.228c-0.234,1.409 -0.848,2.11 -1.843,2.11h-0.133c-0.434,0 -0.995,-0.281 -1.703,-0.842c-0.48,0.849 -1.188,1.275 -2.11,1.275c-1.122,0 -1.683,-1.362 -1.683,-4.087c0.327,-1.035 0.607,-1.549 0.841,-1.549l0.133,0.14v2.404c0.194,0.835 0.435,1.249 0.708,1.249h0.567c0.588,0 0.962,-0.234 1.135,-0.701l-0.293,-2.11c0.113,-0.708 0.307,-1.082 0.567,-1.115h0.293c0.294,2.344 0.769,3.52 1.402,3.52h0.982v-0.141l-0.427,-2.812v-0.16C15.131,22.883 15.318,22.415 15.579,22.415z" id="path_17"/><path fill="#e21171" d="M17.949,13.808c0.16,-0.094 0.207,0.054 0.14,0.435c-0.888,2.083 -2.25,3.539 -4.086,4.36l-6.751,3.385c-0.287,-0.079 -0.34,-0.313 -0.16,-0.707c0.901,-1.736 1.516,-2.765 1.843,-3.092L17.949,13.808z" id="path_18"/><path fill="#f26122" d="M60.865,22.1c-0.478,-0.692 -1.261,-1.841 -2.253,-1.841c-0.81,0 -1.339,1.348 -1.339,2.187c0,0.063 0,0.123 0.007,0.179c-0.223,0.207 -0.637,0.585 -0.637,1.667c0,0.292 0.031,0.63 0.107,1.039c0.262,1.427 0.54,2.955 0.54,4.248c0,0.244 -0.008,0.414 -0.008,0.582c0,0.246 0.016,0.33 0.084,0.33c0.139,0 0.401,-0.553 0.47,-1.497c0.016,-0.207 0.016,-0.431 0.016,-0.629c0,-2.237 -0.522,-4.018 -0.522,-4.479c0.042,-0.354 1.148,-0.576 2.056,-0.576c0.438,0 0.676,0.06 0.844,0.107c0.016,0.008 0.061,0.016 0.076,0.016c0.032,0 0.055,-0.016 0.092,-0.056c0.215,-0.238 0.425,-0.768 0.478,-1.161C60.886,22.154 60.878,22.123 60.865,22.1L60.865,22.1zM59.089,22.023c-0.314,0.023 -0.946,0.084 -1.285,0.307c0.071,-0.275 0.21,-0.64 0.546,-0.64C58.651,21.69 58.875,21.818 59.089,22.023z" id="path_19"/></svg>