<svg id="vector" xmlns="http://www.w3.org/2000/svg" width="99" height="67" viewBox="0 0 99.178 67"><path fill="#203e96" d="M82.15,32.629c0.204,0 0.415,0 0.638,0h0.153c1.862,-0.123 3.559,-1.797 5.076,-5.021c1.646,-2.692 3.342,-4.036 5.083,-4.036c2.194,0 3.291,1.502 3.291,4.519v0.806c0,1.48 -0.548,3.416 -1.646,5.813L93.7,35.516c-0.925,0 -3.061,-0.703 -6.429,-2.102c-1.02,1.653 -1.817,2.659 -2.392,3.01c-0.874,0.654 -1.767,0.93 -2.691,0.807H82.15V32.629L82.15,32.629zM89.663,29.221v0.158c2.589,1.08 4.139,1.618 4.637,1.618c0.197,0 0.3,-0.165 0.3,-0.489c-0.574,-1.611 -1.524,-2.417 -2.845,-2.417C90.836,28.091 90.134,28.47 89.663,29.221z" id="path_0"/><path fill="#203e96" d="M94.312,39.689c0.153,-0.09 0.197,0.055 0.134,0.447c-0.849,2.148 -2.149,3.65 -3.903,4.498l-6.448,3.492c-0.274,-0.084 -0.325,-0.324 -0.153,-0.724c0.861,-1.791 1.448,-2.852 1.76,-3.188L94.312,39.689z" id="path_1"/><path fill="#000002" d="M69.299,32.933c1.473,0.509 2.615,1.157 3.438,1.935v0.324c0,0.537 -0.549,1.723 -1.646,3.555c-1.021,0 -2.162,-0.593 -3.438,-1.777v-0.324C67.653,35.488 68.202,34.255 69.299,32.933z" id="path_2"/><path fill="#000002" d="M82.475,37.168c-1.358,0 -2.411,-0.227 -3.163,-0.682c-0.37,3.499 -1.065,5.916 -2.092,7.266c-2.462,3.334 -5.006,5.001 -7.621,5.001c-4.809,0 -7.946,-2.259 -9.42,-6.777c-0.293,-0.86 -0.446,-1.776 -0.446,-2.748v-1.288c0,-3.822 1.097,-6.832 3.291,-9.043c0.396,0.166 0.6,0.537 0.6,1.129l-2.392,4.684l-0.153,1.612c0,3.637 1.844,6.164 5.53,7.59l3.89,0.323c1.639,0 3.686,-1.025 6.129,-3.064c0.893,-1.563 1.346,-2.693 1.346,-3.396c-0.102,-1.075 -0.753,-2.631 -1.945,-4.677v-3.396l0.446,-0.481c1.084,2.355 3.087,3.491 6.001,3.408V37.168z" id="path_3"/><path fill="#000002" d="M69.261,14.592h1.48c1.792,0 2.691,0.723 2.691,2.176c-1.161,3.389 -2.57,5.187 -4.229,5.393l-1.958,0.283c-0.312,0 -0.44,-0.097 -0.395,-0.283c1.582,-0.902 3.061,-1.977 4.432,-3.209c-0.484,-0.489 -1.02,-0.73 -1.607,-0.73h-0.415l-1.607,0.145l-0.127,-0.145v-0.281C68.285,15.707 68.865,14.592 69.261,14.592z" id="path_4"/><path fill="#008146" d="M53.195,32.409c0.893,0.972 1.741,3.065 2.539,6.295l0.153,2.101c0,3.795 -1.748,6.378 -5.236,7.748l-1.046,0.158l-2.653,0.042l-2.577,-0.042l-0.146,-0.158v-0.164c0.319,-0.373 2.461,-1.502 6.422,-3.39c2.494,-1.528 3.839,-2.879 4.037,-4.036c-1.295,-2.982 -1.939,-4.703 -1.939,-5.165v-0.481C52.749,33.381 52.896,32.409 53.195,32.409z" id="path_5"/><path fill="#008146" d="M53.661,21.189c0.274,0.51 0.593,1.963 0.957,4.359c-0.223,1.453 -0.81,2.177 -1.76,2.177H52.73c-0.415,0 -0.95,-0.289 -1.626,-0.868c-0.459,0.875 -1.135,1.316 -2.015,1.316c-1.071,0 -1.607,-1.405 -1.607,-4.216c0.312,-1.067 0.581,-1.597 0.804,-1.597l0.127,0.144v2.479c0.185,0.861 0.415,1.288 0.676,1.288h0.542c0.562,0 0.918,-0.241 1.084,-0.724l-0.281,-2.176c0.108,-0.73 0.293,-1.115 0.542,-1.15h0.281c0.281,2.418 0.733,3.63 1.339,3.63h0.938v-0.146l-0.408,-2.898v-0.166C53.234,21.672 53.413,21.189 53.661,21.189z" id="path_6"/><path fill="#008146" d="M55.919,12.313c0.153,-0.098 0.198,0.055 0.134,0.447c-0.848,2.148 -2.149,3.65 -3.903,4.497l-6.448,3.491c-0.274,-0.082 -0.325,-0.322 -0.153,-0.729c0.861,-1.791 1.448,-2.853 1.76,-3.189L55.919,12.313z" id="path_7"/><path fill="#000002" d="M37.928,42.857c0.51,0 1.703,0.647 3.584,1.942c0,0.806 -0.593,2.094 -1.792,3.87c-2.392,-0.833 -3.584,-1.584 -3.584,-2.258C36.193,45.805 36.792,44.621 37.928,42.857z" id="path_8"/><path fill="#000002" d="M34.337,35.777c3.916,0.041 6.104,-0.751 6.582,-2.383c0,-0.564 -0.498,-1.963 -1.499,-4.195l0.453,-4.193h0.293c1.301,2.417 1.945,4.842 1.945,7.259v1.453c0,0.971 -0.217,1.99 -0.644,3.058c-0.427,1.068 -1.091,1.971 -1.977,2.693c-0.893,0.73 -2.608,1.033 -5.153,0.909V35.777z" id="path_9"/><path fill="#000002" d="M42.456,15.445c0.274,0.51 0.593,1.963 0.957,4.359c-0.223,1.453 -0.81,2.177 -1.76,2.177h-0.127c-0.415,0 -0.95,-0.289 -1.626,-0.868c-0.459,0.875 -1.135,1.316 -2.015,1.316c-1.071,0 -1.607,-1.406 -1.607,-4.216c0.312,-1.067 0.58,-1.598 0.803,-1.598l0.128,0.146v2.479c0.185,0.861 0.415,1.288 0.676,1.288h0.542c0.562,0 0.918,-0.241 1.084,-0.724l-0.281,-2.176c0.108,-0.73 0.293,-1.115 0.542,-1.15h0.28c0.28,2.418 0.733,3.63 1.339,3.63h0.938v-0.146l-0.408,-2.898v-0.166C42.028,15.928 42.207,15.445 42.456,15.445z" id="path_10"/><path fill="#000002" d="M43.103,49.559c0.153,-0.09 0.198,0.055 0.134,0.447c-0.848,2.148 -2.149,3.65 -3.902,4.498l-6.448,3.492c-0.274,-0.083 -0.325,-0.324 -0.153,-0.724c0.861,-1.79 1.448,-2.852 1.76,-3.188L43.103,49.559z" id="path_11"/><path fill="#203e96" d="M34.809,40.378h-0.191c-3.725,0.11 -6.665,-1.784 -8.814,-5.669c-0.115,0.441 -0.229,0.854 -0.338,1.233c-0.313,0.916 -0.727,1.653 -1.25,2.218c-0.402,0.482 -0.899,0.889 -1.499,1.213c-1.307,0.764 -3.144,1.363 -5.51,1.797l-4.222,0.158h-1.499c-3.533,0 -6.231,-1.398 -8.087,-4.194c-0.498,-0.943 -0.695,-2.183 -0.581,-3.712c0.574,-3.988 1.32,-5.979 2.245,-5.979c0.319,0 0.523,0.165 0.593,0.489c0,0.427 -0.548,1.88 -1.639,4.353v0.166c0,1.879 2.041,3.333 6.123,4.359l1.798,0.158c6.377,0 10.644,-1.178 12.8,-3.533c-0.153,-1.047 -1.091,-3.382 -2.825,-6.998l-0.3,-1.295c-0.319,-1.693 -0.313,-3.244 0.038,-4.655c0.351,-1.412 1.033,-2.39 2.054,-2.928c2.373,-1.722 6.9,-4.573 13.604,-8.554l0.153,0.158v0.324c-1.448,2.445 -2.544,4.711 -3.291,6.777h-0.3l-0.147,-0.807v-0.806l0.147,-0.165V14.33h-0.147c-5.555,3.471 -9.292,5.998 -11.212,7.59v0.158c0.97,2.114 1.735,3.994 2.296,5.647c1.696,3.271 3.291,5.427 4.783,6.468c1.499,1.047 2.845,1.563 4.038,1.563h1.179V40.378z" id="path_12"/><path fill="#203e96" d="M20.664,14.454c0.153,-0.097 0.198,0.055 0.134,0.447c-0.848,2.149 -2.149,3.65 -3.903,4.497l-6.448,3.492c-0.274,-0.082 -0.325,-0.323 -0.153,-0.73c0.861,-1.791 1.448,-2.851 1.76,-3.188L20.664,14.454z" id="path_13"/></svg>