<svg id="vector" xmlns="http://www.w3.org/2000/svg" width="76" height="67" viewBox="0 0 76.258 67"><path fill="#D50000" d="M38.082,30.869c2.26,1.13 3.39,2.094 3.39,2.907c-1.075,2.121 -1.723,3.196 -1.936,3.223h-0.324c-1.659,-0.833 -2.679,-1.584 -3.071,-2.259C36.52,33.514 37.167,32.226 38.082,30.869z" id="path_0"/><path fill="#D50000" d="M48.132,47.875c-0.152,0.014 -0.297,0.02 -0.448,0.02h-0.806c-1.268,0 -2.128,-0.104 -2.583,-0.323c-0.943,3.622 -2.038,5.841 -3.292,6.653c-1.246,0.813 -4.077,1.502 -8.492,2.066h-0.324c-0.964,-0.111 -1.453,-0.27 -1.453,-0.482c0,-0.324 0.807,-0.703 2.425,-1.13c6.351,-2.906 9.525,-5.007 9.525,-6.295c0,-0.537 -0.758,-1.776 -2.259,-3.712c-0.324,-0.545 -0.489,-1.24 -0.489,-2.102v-1.611c0,-0.813 0.165,-1.239 0.489,-1.295c1.397,2.143 3.761,3.334 7.101,3.589c0.2,0 0.399,0 0.606,-0.014V47.875z" id="path_1"/><path fill="#D50000" d="M43.827,22.474c0.165,-0.097 0.213,0.055 0.145,0.448c-0.916,2.148 -2.321,3.65 -4.215,4.497l-6.964,3.492c-0.296,-0.083 -0.352,-0.324 -0.165,-0.73c0.93,-1.791 1.563,-2.852 1.901,-3.189L43.827,22.474z" id="path_2"/><path fill="#203e96" d="M35.417,10.71l0.158,0.158c0,2.184 -1.722,4.442 -5.165,6.784c-2.019,0.861 -4.063,1.288 -6.13,1.288l-1.453,-0.158c-0.544,2.045 -0.916,3.064 -1.13,3.064c-0.248,0 -0.564,-0.861 -0.971,-2.583c-0.751,-1.02 -1.991,-2.314 -3.713,-3.871v-0.324c0.379,-2.156 0.807,-3.23 1.288,-3.23c2.101,2.259 4.684,3.389 7.748,3.389C29.604,15.228 32.725,13.72 35.417,10.71z" id="path_3"/><path fill="#203e96" d="M25.813,21.744c0.323,0 0.647,1.081 0.964,3.23l1.454,3.23l-0.641,3.712l0.481,9.043v1.447c-0.213,3.691 -0.751,5.84 -1.611,6.459l-0.165,-0.158l0.165,-2.424c0,-2.176 -0.702,-9.119 -2.101,-20.82C25.034,22.983 25.517,21.744 25.813,21.744z" id="path_4"/><path fill="#000002" d="M16.184,44.156c1.488,0 2.989,0.744 4.498,2.239c0.145,0.255 0.09,0.454 -0.172,0.606c-0.262,0.145 -0.503,0.109 -0.717,-0.104c-0.647,-0.579 -1.563,-0.868 -2.748,-0.868h-0.503c-0.496,0 -1.074,0.214 -1.735,0.627c0,1.212 1.453,1.956 4.359,2.238l2.887,-1.13l0.123,0.387c0,1.355 -1.673,2.568 -5.007,3.629l-4.621,2.624l-0.482,0.124c-0.186,0.041 -0.316,-0.041 -0.386,-0.241c0,-0.729 1.047,-1.729 3.127,-3.01v-0.124c-1.005,-0.551 -1.508,-1.343 -1.508,-2.376C13.767,45.693 14.731,44.156 16.184,44.156z" id="path_5"/><path fill="#f26122" d="M20.42,32.938l0.165,0.144v0.441c-0.84,1.791 -2.004,3.043 -3.491,3.774c-4.629,2.514 -7.198,3.774 -7.707,3.774c-0.193,0 -0.29,-0.151 -0.29,-0.448c0.448,-1.707 1.419,-2.864 2.907,-3.471l8.278,-4.215H20.42z" id="path_6"/><path fill="#f26122" d="M19.27,29.308c0.186,0 0.282,0.138 0.282,0.42c-0.537,1.563 -2.128,2.969 -4.779,4.222l-6.116,3.347l-0.138,-0.145v-0.158c0.578,-2.045 1.494,-3.306 2.762,-3.774l6.818,-3.492L19.27,29.308z" id="path_7"/><path fill="#000002" d="M56.444,47.537c2.26,1.129 3.389,2.1 3.389,2.906c-1.074,2.129 -1.722,3.203 -1.936,3.23h-0.323c-1.653,-0.834 -2.679,-1.592 -3.065,-2.26C54.881,50.188 55.528,48.894 56.444,47.537z" id="path_8"/><path fill="#000002" d="M47.643,43.26h1.859c1.963,-0.269 5.083,-0.999 9.36,-2.176v-0.166c-3.898,-1.722 -6.371,-2.583 -7.425,-2.583c-1.426,0 -2.39,0.806 -2.906,2.425l-0.482,0.324c-0.214,0 -0.323,-0.166 -0.323,-0.49c0.537,-3.223 1.99,-4.841 4.359,-4.841h0.806c0.999,0 4.388,1.129 10.173,3.388l4.359,0.324l0.316,0.488c-0.075,0.724 -0.723,2.122 -1.935,4.195h-0.482l-0.647,-0.166h-0.806c-8.396,2.48 -13.293,3.768 -14.69,3.878h-1.536V43.26z" id="path_9"/><path fill="#000002" d="M62.898,22.212c0.165,-0.097 0.214,0.055 0.145,0.448c-0.916,2.148 -2.321,3.65 -4.215,4.498l-6.964,3.492c-0.296,-0.083 -0.351,-0.324 -0.165,-0.73c0.93,-1.791 1.563,-2.851 1.901,-3.189L62.898,22.212z" id="path_10"/></svg>