<svg id="vector" xmlns="http://www.w3.org/2000/svg" width="99" height="67" viewBox="0 0 99.179 67"><path fill="#000002" d="M88.662,30.394c0.909,0 2.149,0.75 3.712,2.259v0.324c-1.054,2.259 -1.75,3.389 -2.101,3.389l-3.712,-2.094h-0.165c-1.047,1.798 -1.743,2.768 -2.094,2.9h-0.165c-2.362,-1.047 -3.547,-1.853 -3.547,-2.417c0.861,-2.37 1.612,-3.554 2.259,-3.554L86.72,33.3C87.339,32.033 87.987,31.068 88.662,30.394z" id="path_0"/><path fill="#000002" d="M84.461,25.394c1.053,0 2.231,0.909 3.554,2.741c-0.352,0.833 -1.054,1.805 -2.101,2.906H85.59c-0.937,-0.213 -1.963,-0.806 -3.064,-1.777v-0.482C82.608,27.921 83.248,26.792 84.461,25.394z" id="path_1"/><path fill="#000002" d="M74.067,43.046h0.062c2.5,-0.11 4.222,-1.315 5.166,-3.63c0,-0.324 0.214,-0.592 0.647,-0.813h0.324c0.213,0 0.324,0.165 0.324,0.488l-0.166,0.965c0.917,1.619 1.888,2.424 2.906,2.424h0.806c1.398,0 2.479,-1.398 3.23,-4.193h0.165c0.159,0.02 0.427,0.668 0.806,1.936c0.916,0.805 1.825,1.287 2.741,1.453c1.075,0 1.619,-0.648 1.619,-1.936c0.104,-2.046 0.317,-3.072 0.641,-3.072c0.434,0.916 0.647,2.045 0.647,3.389c0,3.987 -0.971,5.979 -2.907,5.979c-1.508,0 -2.741,-0.758 -3.712,-2.266h-0.324c-0.668,2.154 -1.749,3.229 -3.229,3.229h-0.159c-1.316,0 -2.824,-1.02 -4.519,-3.065c-1.425,2.473 -3.044,3.713 -4.841,3.713h-0.228V43.046z" id="path_2"/><path fill="#000002" d="M89.929,15.076c0.166,-0.097 0.213,0.055 0.145,0.447c-0.916,2.149 -2.321,3.65 -4.215,4.498l-6.963,3.492c-0.296,-0.083 -0.352,-0.324 -0.166,-0.73c0.93,-1.791 1.563,-2.852 1.901,-3.189L89.929,15.076z" id="path_3"/><path fill="#008146" d="M74.267,47.66c-0.145,0.014 -0.296,0.021 -0.441,0.021h-0.813c-1.261,0 -2.122,-0.103 -2.583,-0.323c-0.937,3.623 -2.032,5.84 -3.285,6.652c-1.254,0.813 -4.084,1.502 -8.492,2.066H58.33c-0.971,-0.109 -1.454,-0.268 -1.454,-0.482c0,-0.323 0.807,-0.701 2.418,-1.129c6.35,-2.906 9.525,-5.007 9.525,-6.295c0,-0.537 -0.751,-1.777 -2.259,-3.713c-0.324,-0.543 -0.482,-1.239 -0.482,-2.1v-1.611c0,-0.813 0.158,-1.24 0.482,-1.295c1.398,2.141 3.767,3.332 7.101,3.588c0.207,0 0.406,0 0.606,-0.014V47.66z" id="path_4"/><path fill="#008146" d="M68.055,27.728c0.296,0.509 0.641,1.963 1.033,4.36c-0.241,1.453 -0.875,2.176 -1.901,2.176h-0.138c-0.448,0 -1.026,-0.289 -1.756,-0.868c-0.496,0.875 -1.226,1.315 -2.177,1.315c-1.157,0 -1.735,-1.405 -1.735,-4.215c0.337,-1.068 0.627,-1.598 0.868,-1.598l0.138,0.145v2.479c0.2,0.861 0.448,1.288 0.729,1.288h0.586c0.606,0 0.991,-0.241 1.17,-0.723l-0.303,-2.177c0.117,-0.73 0.317,-1.116 0.585,-1.15h0.303c0.303,2.417 0.792,3.629 1.446,3.629h1.012v-0.144l-0.441,-2.9v-0.166C67.593,28.21 67.786,27.728 68.055,27.728z" id="path_5"/><path fill="#008146" d="M70.493,18.851c0.165,-0.097 0.213,0.055 0.144,0.447c-0.916,2.149 -2.321,3.65 -4.215,4.498l-6.963,3.492c-0.296,-0.083 -0.351,-0.324 -0.165,-0.73c0.93,-1.791 1.563,-2.852 1.901,-3.189L70.493,18.851z" id="path_6"/><path fill="#000002" d="M51.849,21.529c0.324,0 0.647,1.082 0.971,3.23l1.454,3.23l-0.647,3.712l0.482,9.044v1.445c-0.213,3.691 -0.75,5.841 -1.611,6.461l-0.158,-0.158l0.158,-2.425c0,-2.177 -0.703,-9.119 -2.101,-20.821C51.07,22.769 51.553,21.529 51.849,21.529z" id="path_7"/><path fill="#e21171" d="M33.521,50.429h0.324c1.102,0.241 2.287,0.889 3.554,1.942v0.158c-0.73,2.204 -1.371,3.389 -1.936,3.555c-1.646,-0.324 -2.879,-0.861 -3.712,-1.619v-0.158C31.751,53.039 32.344,51.752 33.521,50.429z" id="path_8"/><path fill="#e21171" d="M39.5,48.976h0.159c1.102,0.165 2.342,0.916 3.712,2.259V51.4l-1.935,3.389c-2.583,-0.834 -3.877,-1.536 -3.877,-2.102C38.391,50.215 39.038,48.976 39.5,48.976z" id="path_9"/><path fill="#e21171" d="M33.191,43.046c4.229,0.041 6.591,-0.751 7.107,-2.384c0,-0.564 -0.537,-1.963 -1.619,-4.194l0.489,-4.194h0.317c1.405,2.417 2.101,4.841 2.101,7.259v1.453c0,0.971 -0.234,1.99 -0.696,3.058c-0.461,1.067 -1.178,1.97 -2.135,2.692c-0.964,0.73 -2.817,1.033 -5.565,0.91V43.046z" id="path_10"/><path fill="#e21171" d="M42.716,20.683c0.296,0.509 0.641,1.963 1.033,4.359c-0.241,1.454 -0.875,2.177 -1.901,2.177H41.71c-0.448,0 -1.026,-0.289 -1.756,-0.868c-0.496,0.875 -1.226,1.315 -2.177,1.315c-1.157,0 -1.735,-1.405 -1.735,-4.215c0.337,-1.068 0.627,-1.598 0.868,-1.598l0.138,0.145v2.479c0.2,0.861 0.448,1.288 0.729,1.288h0.586c0.606,0 0.991,-0.241 1.17,-0.723l-0.303,-2.176c0.117,-0.73 0.317,-1.116 0.585,-1.15h0.303c0.303,2.417 0.792,3.629 1.446,3.629h1.012v-0.145l-0.441,-2.9v-0.165C42.254,21.165 42.447,20.683 42.716,20.683z" id="path_11"/><path fill="#e21171" d="M45.154,11.805c0.165,-0.097 0.213,0.055 0.145,0.447c-0.916,2.149 -2.321,3.65 -4.215,4.498l-6.963,3.492c-0.296,-0.083 -0.351,-0.324 -0.166,-0.73c0.93,-1.791 1.563,-2.852 1.901,-3.189L45.154,11.805z" id="path_12"/><path fill="#008146" d="M34.713,47.66c-0.145,0.014 -0.296,0.021 -0.441,0.021h-0.813c-1.26,0 -2.121,-0.103 -2.583,-0.323c-0.937,3.623 -2.032,5.84 -3.285,6.652c-1.254,0.813 -4.084,1.502 -8.492,2.066h-0.324c-0.971,-0.109 -1.454,-0.268 -1.454,-0.482c0,-0.323 0.806,-0.701 2.417,-1.129c6.351,-2.906 9.525,-5.007 9.525,-6.295c0,-0.537 -0.751,-1.777 -2.259,-3.713c-0.324,-0.543 -0.482,-1.239 -0.482,-2.1v-1.611c0,-0.813 0.158,-1.24 0.482,-1.295c1.398,2.141 3.767,3.332 7.101,3.588c0.207,0 0.406,0 0.606,-0.014V47.66z" id="path_13"/><path fill="#008146" d="M31.303,28.189c0.166,-0.096 0.214,0.055 0.145,0.448c-0.917,2.149 -2.321,3.65 -4.215,4.498l-6.963,3.492c-0.296,-0.082 -0.351,-0.324 -0.165,-0.73c0.93,-1.791 1.563,-2.852 1.901,-3.189L31.303,28.189z" id="path_14"/><path fill="#000002" d="M15.201,32.026l0.165,0.482c-0.221,0.917 -1.185,1.991 -2.907,3.23c1.722,1.398 2.583,3.443 2.583,6.137v0.158c0,4.414 -1.832,6.619 -5.489,6.619c-2.906,-0.565 -4.36,-2.018 -4.36,-4.359v-0.159c0.11,-2.018 0.917,-4.173 2.424,-6.46c-1.398,-0.428 -2.101,-1.02 -2.101,-1.777c0,-2.018 0.159,-3.251 0.482,-3.712c1.454,0.406 3.072,1.212 4.842,2.424h0.165L15.201,32.026L15.201,32.026zM8.906,38.479c-1.288,1.294 -1.936,2.21 -1.936,2.748c0,1.667 1.185,2.638 3.554,2.906c1.232,-0.165 2.314,-0.593 3.223,-1.294C12.701,41.035 11.089,39.588 8.906,38.479z" id="path_15"/><path fill="#000002" d="M12.301,11.061c0.379,-0.268 0.537,-0.158 0.482,0.324c-0.427,1.584 -1.233,3.093 -2.417,4.519c-0.565,0.999 -0.916,1.701 -1.054,2.121c-0.131,0.413 -0.269,0.999 -0.399,1.756c0.158,1.501 0.75,2.259 1.777,2.259h0.159c0.241,0 0.406,-0.482 0.482,-1.453l0.166,-0.166h0.64c0.758,0.434 1.137,1.082 1.137,1.943v0.323c-0.62,2.473 -1.481,3.712 -2.583,3.712h-0.324c-1.75,0 -2.775,-1.129 -3.072,-3.396v-0.964C7.294,18.162 8.968,14.504 12.301,11.061z" id="path_16"/></svg>