<svg id="vector" xmlns="http://www.w3.org/2000/svg" width="99" height="67" viewBox="0 0 99.178 67"><path fill="#203e96" d="M88.561,43.95c0.526,0 1.754,0.629 3.694,1.888c0,0.784 -0.611,2.036 -1.847,3.764c-2.465,-0.811 -3.694,-1.54 -3.694,-2.196C86.773,46.815 87.391,45.664 88.561,43.95z" id="path_0"/><path fill="#203e96" d="M84.86,37.066c4.036,0.04 6.291,-0.73 6.783,-2.317c0,-0.549 -0.513,-1.908 -1.545,-4.078l0.467,-4.078h0.302c1.341,2.351 2.005,4.708 2.005,7.059v1.413c0,0.943 -0.224,1.935 -0.665,2.973c-0.44,1.038 -1.124,1.915 -2.037,2.618c-0.92,0.71 -2.688,1.005 -5.311,0.884V37.066z" id="path_1"/><path fill="#203e96" d="M96.126,50.466c0.158,-0.087 0.204,0.054 0.138,0.436c-0.874,2.089 -2.215,3.549 -4.022,4.372l-6.645,3.396c-0.283,-0.081 -0.335,-0.315 -0.158,-0.703c0.888,-1.741 1.492,-2.772 1.814,-3.101L96.126,50.466z" id="path_2"/><path fill="#000002" d="M75.172,16.582c2.163,1.099 3.24,2.042 3.24,2.826c-1.032,2.069 -1.643,3.113 -1.854,3.141H76.25c-1.577,-0.811 -2.55,-1.54 -2.925,-2.196C73.687,19.16 74.305,17.908 75.172,16.582z" id="path_3"/><path fill="#000002" d="M85.59,41.56c-2.642,-0.181 -5.041,-1.654 -7.197,-4.413h-0.158c-0.92,5.438 -2.977,8.156 -6.158,8.163H71.61c-1.38,-0.007 -2.721,-1.259 -4.003,-3.771c-1.025,-3.529 -1.538,-6.2 -1.538,-8.002v-1.259c0,-0.783 0.151,-1.205 0.46,-1.253c0.434,0.235 0.953,1.949 1.551,5.15c0.599,3.193 1.827,4.721 3.688,4.58c3.595,-0.603 5.495,-2.698 5.699,-6.281l-1.387,-4.861v-1.728c0.053,-2.096 0.257,-3.141 0.618,-3.141c0.204,0.469 0.361,0.944 0.46,1.413l2.156,6.903c1.696,2.799 3.792,4.125 6.277,3.965V41.56z" id="path_4"/><path fill="#000002" d="M79.734,7.341c0.158,-0.094 0.204,0.054 0.138,0.436c-0.874,2.09 -2.215,3.549 -4.022,4.373l-6.645,3.395c-0.282,-0.08 -0.335,-0.314 -0.158,-0.709c0.887,-1.741 1.492,-2.772 1.814,-3.101L79.734,7.341z" id="path_5"/><path fill="#f26122" d="M58.648,18.196c1.519,0.495 2.702,1.124 3.543,1.881v0.315c0,0.522 -0.559,1.674 -1.689,3.455c-1.052,0 -2.235,-0.576 -3.543,-1.728v-0.315C56.959,20.681 57.524,19.475 58.648,18.196z" id="path_6"/><path fill="#f26122" d="M54.258,36.282c4.036,0.041 6.29,-0.729 6.783,-2.316c0,-0.549 -0.513,-1.908 -1.545,-4.078l0.467,-4.078h0.302c1.341,2.351 2.005,4.707 2.005,7.058v1.413c0,0.944 -0.224,1.936 -0.664,2.974c-0.44,1.037 -1.124,1.915 -2.038,2.618c-0.92,0.71 -2.688,1.004 -5.311,0.884V36.282z" id="path_7"/><path fill="#f26122" d="M59.036,8.346h1.525c1.847,0 2.773,0.703 2.773,2.116c-1.196,3.294 -2.649,5.042 -4.357,5.243l-2.018,0.274c-0.322,0 -0.453,-0.094 -0.407,-0.274c1.63,-0.877 3.155,-1.922 4.568,-3.121c-0.5,-0.476 -1.052,-0.71 -1.656,-0.71h-0.427l-1.656,0.141l-0.131,-0.141V11.6C58.03,9.431 58.628,8.346 59.036,8.346z" id="path_8"/><path fill="#D50000" d="M47.849,42.383c0.953,0 2.129,0.684 3.543,2.042v0.315c-0.874,2.297 -1.486,3.448 -1.847,3.448c-1.749,-0.677 -2.826,-1.359 -3.234,-2.035v-0.161C46.311,44.895 46.824,43.688 47.849,42.383z" id="path_9"/><path fill="#D50000" d="M55.612,40.756c-3.767,0 -5.646,-1.587 -5.646,-4.768c-0.046,-0.128 -0.099,-0.128 -0.151,0c0,1.426 -1.591,2.679 -4.778,3.77c-1.538,0.415 -2.55,0.663 -3.043,0.73c-0.487,0.073 -2.196,0.16 -5.121,0.268c-0.959,0.014 -2.011,-0.094 -3.135,-0.315c-1.131,-0.221 -1.939,-0.689 -2.432,-1.398c-0.487,-0.717 0.815,-1.199 3.911,-1.454c3.096,-0.254 4.634,-0.368 4.621,-0.341c5.153,-0.67 8.216,-1.668 9.208,-2.987c1.255,-2.016 1.979,-2.745 2.156,-2.196c0.04,0.262 -0.013,0.576 -0.158,0.944c0,2.002 1.288,3.128 3.852,3.396c0.197,-0.027 0.434,-0.014 0.717,0.033V40.756z" id="path_10"/><path fill="#D50000" d="M54.586,48.617c0.158,-0.087 0.204,0.054 0.138,0.436c-0.874,2.089 -2.215,3.549 -4.022,4.372l-6.645,3.396c-0.282,-0.08 -0.335,-0.314 -0.158,-0.703c0.887,-1.741 1.492,-2.772 1.814,-3.101L54.586,48.617z" id="path_11"/><path fill="#000002" d="M39.41,40.025c0.526,0.958 0.815,1.521 0.868,1.688l0.072,1.279c-0.013,2.264 -0.309,3.823 -0.9,4.688s-1.341,1.299 -2.254,1.313c-1.979,0 -4.029,-1.62 -6.165,-4.861c-0.368,-0.644 -0.73,-1.479 -1.078,-2.511h-1.538c-0.349,0 -0.677,-0.021 -1,-0.061v-4.493c0.473,0.106 0.959,0.153 1.459,0.153h0.618c0.848,-3.348 2.287,-5.858 4.312,-7.533c1.052,-0.837 2.031,-1.252 2.932,-1.252c1.387,0 2.208,1.045 2.465,3.141c0.407,2.103 -0.053,4.293 -1.387,6.569L39.41,40.025L39.41,40.025zM32.574,41.459c1.052,1.889 2.589,2.933 4.621,3.141c1.025,-0.094 1.695,-0.456 2.005,-1.099c-0.092,-1.266 -0.809,-2.035 -2.156,-2.303c-1.354,-0.269 -2.432,-0.362 -3.247,-0.269C32.981,41.023 32.574,41.198 32.574,41.459L32.574,41.459zM31.03,36.598c-0.112,0.348 0.039,0.509 0.466,0.469c1.952,0 3.898,-0.891 5.85,-2.665V34.24c-0.434,-1.045 -0.999,-1.567 -1.689,-1.567C34.125,32.473 32.587,33.785 31.03,36.598z" id="path_12"/><path fill="#000002" d="M41.237,51.483c0.158,-0.087 0.204,0.054 0.138,0.436c-0.875,2.089 -2.215,3.549 -4.022,4.372l-6.646,3.396c-0.282,-0.081 -0.335,-0.315 -0.158,-0.703c0.888,-1.741 1.492,-2.772 1.814,-3.101L41.237,51.483z" id="path_13"/><path fill="#000002" d="M27.375,41.539c-0.165,0 -0.342,0 -0.52,0h-0.151c-1.492,-0.013 -2.932,-0.281 -4.318,-0.804c-1.485,2.618 -3.438,3.925 -5.85,3.925c-2.879,-0.422 -4.318,-1.621 -4.318,-3.609h-0.151c-0.486,1.674 -1.564,3.033 -3.234,4.078c-2.235,0.837 -3.983,1.259 -5.238,1.259l-0.71,0.094v-0.315c0.572,-0.481 2.123,-1.6 4.647,-3.354c2.524,-1.748 3.957,-2.846 4.292,-3.295c0.342,-0.441 0.834,-1.922 1.479,-4.433c1.229,-2.089 2.359,-3.141 3.385,-3.141h0.309c1.282,0 3.339,1.413 6.165,4.238c0.821,0.71 2.222,1.025 4.213,0.945V41.539L27.375,41.539zM14.072,37.28c0,1.387 1.078,2.33 3.234,2.826h0.769c1.749,-0.181 2.623,-0.442 2.623,-0.783c-2.031,-1.989 -3.569,-2.98 -4.627,-2.98h-0.151C15.045,36.343 14.427,36.657 14.072,37.28z" id="path_14"/><path fill="#000002" d="M14.611,18.726h1.525c1.847,0 2.774,0.702 2.774,2.115c-1.196,3.295 -2.649,5.043 -4.358,5.244l-2.018,0.273c-0.322,0 -0.453,-0.094 -0.407,-0.273c1.63,-0.878 3.155,-1.923 4.568,-3.121c-0.5,-0.476 -1.052,-0.71 -1.657,-0.71h-0.427l-1.656,0.141l-0.131,-0.141v-0.274C13.605,19.81 14.204,18.726 14.611,18.726z" id="path_15"/><path fill="#f26122" d="M56.232,18.322c-0.543,-0.803 -1.435,-2.135 -2.563,-2.135c-0.922,0 -1.525,1.563 -1.525,2.536c0,0.073 0,0.143 0.009,0.207c-0.253,0.239 -0.725,0.678 -0.725,1.934c0,0.337 0.036,0.729 0.123,1.203c0.298,1.654 0.614,3.427 0.614,4.926c0,0.283 -0.009,0.48 -0.009,0.675c0,0.286 0.018,0.384 0.096,0.384c0.158,0 0.457,-0.642 0.534,-1.736c0.018,-0.24 0.018,-0.499 0.018,-0.729c0,-2.594 -0.594,-4.658 -0.594,-5.193c0.047,-0.41 1.307,-0.669 2.339,-0.669c0.499,0 0.77,0.07 0.961,0.125c0.018,0.009 0.069,0.018 0.086,0.018c0.036,0 0.063,-0.018 0.104,-0.063c0.245,-0.276 0.483,-0.891 0.543,-1.347C56.256,18.386 56.247,18.35 56.232,18.322L56.232,18.322zM54.211,18.233c-0.358,0.028 -1.077,0.098 -1.462,0.356c0.08,-0.319 0.238,-0.742 0.621,-0.742C53.713,17.848 53.967,17.997 54.211,18.233z" id="path_16"/></svg>