<svg id="vector" xmlns="http://www.w3.org/2000/svg" width="366" height="67" viewBox="0 0 365.858 66.967"><path fill="#D50000" d="M329.809,38.749c0.827,-0.778 4.305,-1.088 10.42,-0.943c3.313,-0.117 6.529,-1.006 9.649,-2.658c1.185,-1.186 2.693,-3.176 4.518,-5.972c0.916,-0.916 1.777,-1.453 2.583,-1.618c2.796,0 4.202,1.508 4.202,4.518c-0.193,4.284 -0.999,6.867 -2.425,7.748h-0.806c-1.371,0 -3.795,-0.86 -7.267,-2.583c-0.806,1.405 -3.064,2.583 -6.777,3.555h-0.166c-5.028,0.434 -8.816,0.393 -11.357,-0.124C329.843,40.161 328.982,39.521 329.809,38.749L329.809,38.749zM353.915,33.693c1.371,0.668 3.147,1.261 5.324,1.777v-0.165c0,-1.694 -1.074,-2.714 -3.223,-3.065C354.61,32.64 353.915,33.129 353.915,33.693z" id="path_0"/><path fill="#D50000" d="M355.202,12.887c1.653,0 2.479,1.02 2.479,3.052c0,3.237 -2.762,5.998 -8.292,8.271c-0.792,0.241 -0.888,-0.049 -0.282,-0.868c0.152,-0.31 1.454,-1.28 3.913,-2.906v-0.138c-1.061,-0.434 -1.591,-1.356 -1.591,-2.769c0.703,-3.093 1.818,-4.643 3.347,-4.643H355.202L355.202,12.887zM352.737,16.379c0,0.861 0.73,1.392 2.183,1.598h0.282c0.538,0 0.882,-0.199 1.026,-0.585c0,-0.875 -0.634,-1.557 -1.894,-2.039C353.784,15.353 353.253,15.697 352.737,16.379z" id="path_1"/><path fill="#008146" d="M331.475,40.939l-3.23,0.158h-5.889c-0.551,-0.014 -1.798,-0.207 -3.733,-0.571c-1.936,-0.372 -2.679,-0.875 -2.218,-1.516c0.455,-0.641 3.333,-1.006 8.637,-1.102c2.342,-0.145 4.325,-0.379 5.951,-0.689c0,-0.316 0.592,-1.501 1.777,-3.547c0,-5.434 -0.379,-9.849 -1.129,-13.237v-0.482c0.296,-2.906 0.668,-4.359 1.129,-4.359l2.259,5.489l-1.129,4.359l0.158,4.842v0.965l-0.158,0.806c2.486,-2.714 4.69,-4.111 6.619,-4.194h0.964c2.762,0.014 4.318,1.198 4.683,3.554c-0.042,2.486 -0.737,4.366 -2.101,5.647C342.295,39.486 338.094,40.773 331.475,40.939L331.475,40.939zM332.77,36.903h0.324c4.546,-0.503 7.535,-1.054 8.974,-1.667s2.163,-1.026 2.163,-1.239v-0.166c-1.185,-1.397 -2.748,-2.094 -4.683,-2.094C337.206,31.737 334.947,33.46 332.77,36.903z" id="path_2"/><path fill="#008146" d="M346.683,13.314c0.165,-0.098 0.213,0.055 0.145,0.447c-0.916,2.148 -2.321,3.65 -4.215,4.497l-6.963,3.492c-0.296,-0.083 -0.352,-0.323 -0.166,-0.729c0.93,-1.791 1.563,-2.853 1.901,-3.189L346.683,13.314z" id="path_3"/><path fill="#000002" d="M321.082,40.354c0.551,0.985 0.854,1.563 0.909,1.735l0.076,1.316c-0.014,2.327 -0.324,3.933 -0.943,4.82c-0.62,0.889 -1.405,1.337 -2.362,1.351c-2.073,0 -4.222,-1.667 -6.46,-5.001c-0.386,-0.661 -0.765,-1.521 -1.129,-2.582h-1.612c-0.365,0 -0.709,-0.021 -1.047,-0.063V37.31c0.496,0.11 1.006,0.158 1.529,0.158h0.647c0.889,-3.443 2.397,-6.026 4.518,-7.748c1.102,-0.861 2.128,-1.288 3.072,-1.288c1.453,0 2.314,1.074 2.583,3.23c0.427,2.162 -0.055,4.415 -1.453,6.756L321.082,40.354L321.082,40.354zM313.919,41.828c1.102,1.941 2.713,3.017 4.842,3.229c1.074,-0.097 1.777,-0.468 2.101,-1.13c-0.097,-1.301 -0.847,-2.093 -2.259,-2.368c-1.418,-0.276 -2.548,-0.372 -3.402,-0.276C314.346,41.38 313.919,41.56 313.919,41.828L313.919,41.828zM312.301,36.827c-0.117,0.358 0.042,0.523 0.489,0.482c2.045,0 4.084,-0.916 6.129,-2.741v-0.165c-0.455,-1.074 -1.047,-1.612 -1.77,-1.612C315.545,32.585 313.933,33.935 312.301,36.827z" id="path_4"/><path fill="#000002" d="M318.782,17.247c0.296,0.51 0.641,1.963 1.033,4.359c-0.241,1.453 -0.875,2.177 -1.901,2.177h-0.138c-0.448,0 -1.026,-0.289 -1.756,-0.868c-0.496,0.875 -1.226,1.315 -2.177,1.315c-1.157,0 -1.735,-1.405 -1.735,-4.215c0.337,-1.067 0.627,-1.598 0.868,-1.598l0.138,0.145v2.479c0.2,0.86 0.448,1.287 0.729,1.287h0.586c0.606,0 0.991,-0.24 1.17,-0.723l-0.303,-2.177c0.117,-0.729 0.317,-1.115 0.585,-1.149h0.303c0.303,2.417 0.792,3.629 1.446,3.629h1.012v-0.145l-0.441,-2.899V18.7C318.32,17.729 318.513,17.247 318.782,17.247z" id="path_5"/><path fill="#000002" d="M321.22,8.369c0.165,-0.097 0.213,0.055 0.144,0.447c-0.916,2.148 -2.321,3.65 -4.215,4.498l-6.963,3.491c-0.296,-0.082 -0.351,-0.323 -0.165,-0.729c0.93,-1.791 1.563,-2.852 1.901,-3.189L321.22,8.369z" id="path_6"/><path fill="#008146" d="M308.588,41.924c-0.145,0.014 -0.296,0.021 -0.441,0.021h-0.813c-1.261,0 -2.122,-0.104 -2.583,-0.323c-0.937,3.623 -2.032,5.841 -3.285,6.653s-4.084,1.502 -8.492,2.066h-0.324c-0.971,-0.11 -1.453,-0.269 -1.453,-0.482c0,-0.324 0.806,-0.702 2.417,-1.13c6.35,-2.906 9.525,-5.007 9.525,-6.295c0,-0.537 -0.751,-1.776 -2.259,-3.712c-0.324,-0.544 -0.482,-1.24 -0.482,-2.101v-1.612c0,-0.813 0.158,-1.239 0.482,-1.295c1.398,2.143 3.768,3.334 7.101,3.589c0.207,0 0.406,0 0.606,-0.014V41.924z" id="path_7"/><path fill="#008146" d="M305.179,22.454c0.165,-0.097 0.213,0.055 0.145,0.447c-0.916,2.148 -2.321,3.65 -4.215,4.497l-6.963,3.492c-0.296,-0.083 -0.351,-0.323 -0.165,-0.729c0.93,-1.791 1.563,-2.852 1.901,-3.189L305.179,22.454z" id="path_8"/><path fill="#000002" d="M280.447,18.156c1.26,0.378 2.555,1.185 3.87,2.424v0.158c-1.205,2.128 -1.908,3.203 -2.094,3.23h-0.488c-0.91,-0.138 -1.881,-0.723 -2.907,-1.777v-0.158C278.938,20.767 279.476,19.479 280.447,18.156z" id="path_9"/><path fill="#000002" d="M286.577,18.479c1.185,0.269 2.369,0.971 3.553,2.101v0.158c0,0.593 -0.647,1.667 -1.935,3.23h-0.482c-0.757,0 -1.722,-0.593 -2.906,-1.777C285.103,20.525 285.695,19.285 286.577,18.479z" id="path_10"/><path fill="#000002" d="M289.221,26.29l0.165,0.482c-0.22,0.916 -1.185,1.989 -2.906,3.229c1.722,1.398 2.583,3.444 2.583,6.137v0.158c0,4.415 -1.832,6.619 -5.489,6.619c-2.906,-0.565 -4.359,-2.019 -4.359,-4.359v-0.159c0.11,-2.018 0.916,-4.173 2.424,-6.46c-1.398,-0.427 -2.101,-1.02 -2.101,-1.777c0,-2.018 0.159,-3.25 0.482,-3.712c1.453,0.406 3.072,1.212 4.842,2.424h0.166L289.221,26.29L289.221,26.29zM282.926,32.743c-1.288,1.295 -1.936,2.211 -1.936,2.748c0,1.667 1.185,2.638 3.554,2.906c1.233,-0.165 2.314,-0.592 3.224,-1.295C286.721,35.298 285.109,33.853 282.926,32.743z" id="path_11"/><path fill="#f26122" d="M290.695,50.32l0.166,0.145v0.44c-0.833,1.791 -1.998,3.044 -3.492,3.774c-4.628,2.514 -7.197,3.774 -7.707,3.774c-0.186,0 -0.282,-0.151 -0.282,-0.447c0.441,-1.709 1.412,-2.866 2.906,-3.472l8.271,-4.215H290.695z" id="path_12"/><path fill="#f26122" d="M289.544,46.69c0.193,0 0.283,0.138 0.283,0.42c-0.538,1.563 -2.128,2.969 -4.78,4.222l-6.116,3.348l-0.138,-0.145v-0.158c0.579,-2.046 1.501,-3.307 2.762,-3.774l6.826,-3.492L289.544,46.69z" id="path_13"/><path fill="#203e96" d="M262.363,47.558c0.551,0 1.839,0.647 3.871,1.942c0,0.806 -0.641,2.094 -1.936,3.871c-2.583,-0.834 -3.871,-1.584 -3.871,-2.259C260.49,50.506 261.137,49.321 262.363,47.558z" id="path_14"/><path fill="#203e96" d="M259.587,40.478c4.229,0.042 6.591,-0.75 7.108,-2.383c0,-0.564 -0.538,-1.963 -1.619,-4.194l0.489,-4.194h0.317c1.405,2.417 2.101,4.842 2.101,7.259v1.453c0,0.972 -0.234,1.991 -0.696,3.059c-0.461,1.067 -1.177,1.97 -2.135,2.692c-0.964,0.73 -2.817,1.033 -5.565,0.91V40.478z" id="path_15"/><path fill="#203e96" d="M268.896,54.26c0.166,-0.09 0.214,0.055 0.145,0.447c-0.916,2.149 -2.321,3.65 -4.215,4.498l-6.963,3.491c-0.296,-0.083 -0.352,-0.323 -0.166,-0.723c0.93,-1.791 1.563,-2.852 1.901,-3.188L268.896,54.26z" id="path_16"/><path fill="#000002" d="M259.932,45.079c-3.134,0.186 -5.414,-1.261 -6.84,-4.34c-0.688,-1.144 -1.329,-8.851 -1.935,-23.12v-0.324c0.399,-2.369 0.991,-3.554 1.77,-3.554l0.813,-0.158c0.992,0 2.5,0.323 4.518,0.964v0.324c-0.11,0.323 -0.434,0.488 -0.971,0.488h-2.741c-0.564,0 -1.102,0.317 -1.619,0.965c0.503,12.39 1.233,19.566 2.204,21.529c0.964,1.963 2.569,2.838 4.801,2.624V45.079z" id="path_17"/><path fill="#000002" d="M260.09,4.299c0.166,-0.097 0.213,0.055 0.145,0.447c-0.916,2.148 -2.321,3.65 -4.215,4.497l-6.963,3.492c-0.296,-0.083 -0.351,-0.323 -0.166,-0.729c0.93,-1.791 1.563,-2.853 1.901,-3.189L260.09,4.299z" id="path_18"/><path fill="#D50000" d="M238.808,47.861h0.324c1.102,0.241 2.287,0.889 3.554,1.941v0.159c-0.73,2.204 -1.371,3.389 -1.935,3.554c-1.646,-0.323 -2.879,-0.861 -3.712,-1.618v-0.159C237.038,50.472 237.63,49.184 238.808,47.861z" id="path_19"/><path fill="#D50000" d="M244.787,46.407h0.158c1.102,0.166 2.342,0.917 3.712,2.26v0.165l-1.936,3.389c-2.583,-0.833 -3.877,-1.536 -3.877,-2.101C243.678,47.647 244.325,46.407 244.787,46.407z" id="path_20"/><path fill="#D50000" d="M237.375,40.478c4.229,0.042 6.591,-0.75 7.108,-2.383c0,-0.564 -0.538,-1.963 -1.619,-4.194l0.489,-4.194h0.317c1.405,2.417 2.101,4.842 2.101,7.259v1.453c0,0.972 -0.234,1.991 -0.696,3.059s-1.178,1.97 -2.135,2.692c-0.964,0.73 -2.817,1.033 -5.565,0.91V40.478z" id="path_21"/><path fill="#D50000" d="M245.365,18.245h1.598c1.935,0 2.906,0.724 2.906,2.177c-1.253,3.389 -2.775,5.186 -4.566,5.393l-2.115,0.282c-0.337,0 -0.475,-0.097 -0.427,-0.282c1.708,-0.902 3.306,-1.977 4.787,-3.209c-0.524,-0.489 -1.102,-0.73 -1.736,-0.73h-0.448l-1.735,0.145l-0.138,-0.145v-0.282C244.311,19.36 244.938,18.245 245.365,18.245z" id="path_22"/><path fill="#000002" d="M237.955,45.099c-2.769,-0.186 -5.283,-1.7 -7.542,-4.538h-0.166c-0.964,5.593 -3.12,8.389 -6.453,8.396h-0.489c-1.446,-0.007 -2.852,-1.295 -4.194,-3.877c-1.074,-3.631 -1.612,-6.378 -1.612,-8.231v-1.295c0,-0.806 0.159,-1.239 0.482,-1.287c0.454,0.24 0.999,2.004 1.625,5.296c0.626,3.285 1.914,4.855 3.864,4.711c3.767,-0.619 5.758,-2.775 5.971,-6.46l-1.453,-5v-1.777c0.055,-2.155 0.269,-3.23 0.647,-3.23c0.213,0.482 0.379,0.972 0.482,1.453l2.259,7.102c1.777,2.879 3.974,4.242 6.578,4.077V45.099z" id="path_23"/><path fill="#000002" d="M230.674,51.249c0.166,-0.089 0.213,0.056 0.145,0.448c-0.916,2.148 -2.321,3.65 -4.215,4.497l-6.963,3.492c-0.296,-0.083 -0.351,-0.323 -0.166,-0.723c0.93,-1.791 1.564,-2.852 1.901,-3.189L230.674,51.249z" id="path_24"/><path fill="#203e96" d="M213.256,27.157c1.033,-0.089 1.57,0.18 1.612,0.813v0.965c-0.269,2.583 -0.537,3.878 -0.806,3.878h-0.165c-0.2,-0.758 -0.847,-1.13 -1.935,-1.13c-2.232,0 -4.601,1.667 -7.101,5v0.324c0,0.537 1.832,1.025 5.489,1.453c0.964,0.943 1.453,1.963 1.453,3.064c0,3.044 -2.693,6.323 -8.072,9.85c-1.398,0.75 -2.796,1.129 -4.202,1.129c-3.685,0 -6.315,-2.259 -7.907,-6.777c-0.51,-1.577 -0.558,-3.773 -0.138,-6.591c0.413,-2.816 1.66,-4.56 3.733,-5.234l0.282,0.041c0.4,0.214 0.111,0.827 -0.881,1.846c-0.985,1.013 -1.612,2.335 -1.866,3.968v1.288c0,2.582 1.398,4.683 4.194,6.295c0.972,0.434 1.998,0.647 3.072,0.647h0.647c3.12,0 6.24,-1.509 9.36,-4.519l-5.007,-1.129c-0.861,-0.572 -1.288,-1.322 -1.288,-2.267v-1.936c0.042,-2.961 1.439,-5.654 4.194,-8.093C208.951,28.982 210.721,28.019 213.256,27.157z" id="path_25"/><path fill="#203e96" d="M200.314,20.16h1.598c1.935,0 2.906,0.723 2.906,2.177c-1.253,3.388 -2.776,5.186 -4.566,5.393l-2.114,0.282c-0.338,0 -0.475,-0.097 -0.427,-0.282c1.708,-0.902 3.306,-1.977 4.787,-3.21c-0.523,-0.489 -1.102,-0.729 -1.735,-0.729h-0.448l-1.736,0.145l-0.138,-0.145v-0.283C199.261,21.275 199.888,20.16 200.314,20.16z" id="path_26"/><path fill="#000002" d="M168.867,39.473h0.062c2.5,-0.111 4.222,-1.315 5.166,-3.63c0,-0.324 0.213,-0.593 0.647,-0.813h0.324c0.213,0 0.324,0.165 0.324,0.488l-0.166,0.965c0.916,1.618 1.887,2.424 2.906,2.424h0.806c1.398,0 2.479,-1.397 3.23,-4.194h0.165c0.159,0.021 0.427,0.668 0.806,1.936c0.916,0.806 1.825,1.288 2.741,1.453c1.074,0 1.619,-0.647 1.619,-1.936c0.103,-2.045 0.317,-3.071 0.64,-3.071c0.434,0.916 0.647,2.046 0.647,3.389c0,3.987 -0.971,5.979 -2.906,5.979c-1.508,0 -2.741,-0.758 -3.712,-2.267h-0.324c-0.668,2.155 -1.749,3.23 -3.23,3.23h-0.159c-1.315,0 -2.824,-1.02 -4.518,-3.065c-1.426,2.473 -3.044,3.713 -4.842,3.713h-0.227V39.473z" id="path_27"/><path fill="#000002" d="M185.692,20.222c0.166,-0.096 0.214,0.056 0.145,0.448c-0.916,2.148 -2.321,3.649 -4.215,4.497l-6.963,3.492c-0.296,-0.083 -0.351,-0.324 -0.165,-0.73c0.93,-1.79 1.563,-2.851 1.901,-3.188L185.692,20.222z" id="path_28"/><path fill="#D50000" d="M152.729,39.473c1.791,0.151 3.313,-0.028 4.58,-0.523l-0.667,-1.213c-0.627,-3.554 -0.345,-5.902 0.847,-7.053c1.199,-1.15 2.487,-1.681 3.857,-1.584c2.665,0.124 4.167,1.522 4.518,4.194v0.972c0,2.231 -0.324,3.63 -0.965,4.194c-0.406,0.42 0.51,0.771 2.742,1.054l0.523,-0.021c0.406,-0.014 0.868,-0.021 1.391,-0.021v4.601l-1.632,0.021c-3.037,-0.014 -5.338,-0.399 -6.901,-1.15c-2.148,0.751 -3.822,1.13 -5,1.13h-0.647c-0.806,0 -1.688,0 -2.645,0V39.473L152.729,39.473zM158.439,34.912v0.324c0.675,1.157 1.694,1.963 3.065,2.418c0.916,-0.159 1.832,-0.537 2.748,-1.13c-0.407,-1.509 -1.75,-2.369 -4.036,-2.583C159.031,34.266 158.439,34.589 158.439,34.912z" id="path_29"/><path fill="#D50000" d="M159.41,21.193c1.398,0 2.686,0.86 3.871,2.582c-0.992,2.26 -1.75,3.39 -2.259,3.39c-2.176,-1.075 -3.361,-1.777 -3.554,-2.102C157.468,24.045 158.115,22.75 159.41,21.193z" id="path_30"/><path fill="#D50000" d="M165.299,9.87c0.166,-0.097 0.213,0.055 0.145,0.447c-0.916,2.149 -2.321,3.65 -4.215,4.498l-6.963,3.492c-0.296,-0.083 -0.351,-0.324 -0.166,-0.73c0.93,-1.791 1.564,-2.852 1.901,-3.188L165.299,9.87z" id="path_31"/><path fill="#008146" d="M152.722,44.087c-0.145,0.014 -0.296,0.021 -0.441,0.021h-0.813c-1.261,0 -2.122,-0.104 -2.583,-0.323c-0.937,3.622 -2.032,5.84 -3.285,6.653c-1.253,0.813 -4.084,1.501 -8.492,2.065h-0.324c-0.971,-0.11 -1.453,-0.269 -1.453,-0.481c0,-0.324 0.806,-0.703 2.417,-1.13c6.35,-2.906 9.525,-5.007 9.525,-6.295c0,-0.538 -0.75,-1.777 -2.259,-3.712c-0.324,-0.545 -0.482,-1.24 -0.482,-2.102v-1.611c0,-0.813 0.158,-1.239 0.482,-1.295c1.398,2.142 3.767,3.333 7.101,3.588c0.207,0 0.406,0 0.606,-0.013V44.087z" id="path_32"/><path fill="#008146" d="M149.313,24.616c0.165,-0.097 0.213,0.055 0.145,0.447c-0.916,2.149 -2.321,3.65 -4.215,4.498l-6.963,3.492c-0.296,-0.083 -0.351,-0.324 -0.166,-0.73c0.93,-1.791 1.563,-2.852 1.901,-3.188L149.313,24.616z" id="path_33"/><path fill="#000002" d="M124.581,20.318c1.261,0.379 2.555,1.185 3.871,2.425v0.158c-1.206,2.128 -1.908,3.202 -2.094,3.23h-0.489c-0.91,-0.139 -1.881,-0.724 -2.907,-1.777v-0.158C123.072,22.929 123.609,21.641 124.581,20.318z" id="path_34"/><path fill="#000002" d="M130.71,20.642c1.185,0.27 2.369,0.972 3.553,2.102v0.158c0,0.593 -0.647,1.667 -1.935,3.23h-0.482c-0.757,0 -1.722,-0.593 -2.906,-1.777C129.236,22.688 129.829,21.448 130.71,20.642z" id="path_35"/><path fill="#000002" d="M133.355,28.453l0.166,0.481c-0.221,0.916 -1.185,1.99 -2.907,3.23c1.722,1.397 2.583,3.443 2.583,6.137v0.158c0,4.414 -1.832,6.619 -5.489,6.619c-2.907,-0.565 -4.36,-2.019 -4.36,-4.36v-0.158c0.11,-2.019 0.916,-4.174 2.424,-6.461c-1.398,-0.427 -2.101,-1.019 -2.101,-1.776c0,-2.019 0.159,-3.251 0.482,-3.713c1.453,0.406 3.072,1.213 4.842,2.425h0.165L133.355,28.453L133.355,28.453zM127.06,34.906c-1.288,1.294 -1.936,2.211 -1.936,2.748c0,1.666 1.185,2.638 3.554,2.906c1.233,-0.166 2.314,-0.593 3.224,-1.295C130.854,37.461 129.243,36.015 127.06,34.906z" id="path_36"/><path fill="#f26122" d="M134.829,52.482l0.166,0.145v0.441c-0.833,1.79 -1.998,3.044 -3.492,3.773c-4.628,2.515 -7.197,3.774 -7.707,3.774c-0.186,0 -0.282,-0.151 -0.282,-0.447c0.44,-1.708 1.411,-2.865 2.906,-3.471l8.271,-4.216H134.829z" id="path_37"/><path fill="#f26122" d="M133.679,48.854c0.193,0 0.282,0.138 0.282,0.419c-0.537,1.564 -2.128,2.969 -4.78,4.223l-6.116,3.347l-0.138,-0.144v-0.159c0.578,-2.045 1.501,-3.306 2.761,-3.774l6.826,-3.492L133.679,48.854z" id="path_38"/><path fill="#D50000" d="M103.773,39.473h0.833h0.317h0.813c2.927,-0.214 4.704,-0.889 5.324,-2.019c0,-0.889 -1.02,-3.306 -3.065,-7.267l-0.324,-1.287c-0.351,-1.694 -0.337,-3.251 0.042,-4.663c0.372,-1.412 1.115,-2.39 2.218,-2.927c2.555,-1.722 7.452,-4.573 14.69,-8.555l0.158,0.166v0.316c-1.556,2.452 -2.741,4.711 -3.547,6.784h-0.324l-0.165,-0.806v-0.813l0.165,-0.159v-0.158h-0.165c-5.999,3.464 -10.035,5.999 -12.108,7.583v0.165c2.266,4.573 3.499,8.065 3.719,10.489c0,1.723 -0.592,3.555 -1.776,5.49c-1.13,1.508 -3.389,2.259 -6.784,2.259h-0.021V39.473z" id="path_39"/><path fill="#D50000" d="M117.397,43.983c0.165,-0.09 0.213,0.056 0.145,0.448c-0.916,2.148 -2.321,3.649 -4.215,4.497l-6.963,3.492c-0.296,-0.083 -0.351,-0.324 -0.165,-0.724c0.93,-1.791 1.563,-2.852 1.901,-3.188L117.397,43.983z" id="path_40"/><path fill="#008146" d="M103.973,44.087c-0.145,0.014 -0.296,0.021 -0.441,0.021h-0.813c-1.261,0 -2.122,-0.104 -2.583,-0.323c-0.937,3.622 -2.032,5.84 -3.285,6.653c-1.254,0.813 -4.084,1.501 -8.492,2.065h-0.324c-0.971,-0.11 -1.453,-0.269 -1.453,-0.481c0,-0.324 0.806,-0.703 2.417,-1.13c6.35,-2.906 9.525,-5.007 9.525,-6.295c0,-0.538 -0.751,-1.777 -2.259,-3.712c-0.324,-0.545 -0.482,-1.24 -0.482,-2.102v-1.611c0,-0.813 0.158,-1.239 0.482,-1.295c1.398,2.142 3.768,3.333 7.101,3.588c0.207,0 0.406,0 0.606,-0.013V44.087z" id="path_41"/><path fill="#008146" d="M100.564,24.616c0.165,-0.097 0.213,0.055 0.145,0.447c-0.916,2.149 -2.321,3.65 -4.215,4.498l-6.963,3.492c-0.296,-0.083 -0.351,-0.324 -0.165,-0.73c0.93,-1.791 1.563,-2.852 1.901,-3.188L100.564,24.616z" id="path_42"/><path fill="#000002" d="M83.758,17.956c0.324,0 0.647,1.081 0.971,3.23l1.454,3.229l-0.647,3.713l0.482,9.043v1.446c-0.213,3.691 -0.751,5.841 -1.612,6.461l-0.158,-0.159l0.158,-2.424c0,-2.177 -0.702,-9.119 -2.101,-20.821C82.98,19.196 83.462,17.956 83.758,17.956z" id="path_43"/><path fill="#f26122" d="M75.417,30.567c2.459,0.269 3.747,1.563 3.85,3.891v0.751c-0.592,4.731 -1.611,7.101 -3.064,7.101h-0.159c-0.757,0 -2.693,-0.536 -5.813,-1.611c-1.371,3.175 -3.147,5.11 -5.331,5.807c-3.065,0.971 -4.945,1.453 -5.647,1.453h-0.648c-0.241,-0.104 -0.344,-0.27 -0.317,-0.482c0.076,-0.241 1.474,-1.102 4.195,-2.583c4.842,-2.989 7.266,-5.517 7.266,-7.59c0.751,-2.879 1.825,-4.814 3.223,-5.806C73.703,30.945 74.516,30.636 75.417,30.567L75.417,30.567zM72.167,36.339c-0.028,0.068 -0.028,0.117 0,0.158l4.518,1.295c0.22,0.055 0.379,0 0.489,-0.165c0,-1.261 -1.026,-2.073 -3.072,-2.418h-0.159C73.296,35.209 72.704,35.581 72.167,36.339z" id="path_44"/><path fill="#f26122" d="M75.032,49.266c0.166,-0.089 0.213,0.056 0.144,0.448c-0.916,2.149 -2.32,3.65 -4.214,4.497l-6.963,3.492c-0.296,-0.083 -0.352,-0.323 -0.166,-0.723c0.93,-1.791 1.563,-2.852 1.901,-3.189L75.032,49.266z" id="path_45"/><path fill="#203e96" d="M51.208,46.553c0.551,0 1.839,0.647 3.871,1.942c0,0.806 -0.641,2.094 -1.936,3.87c-2.583,-0.833 -3.871,-1.584 -3.871,-2.259C49.334,49.5 49.982,48.315 51.208,46.553z" id="path_46"/><path fill="#203e96" d="M47.331,39.473c4.229,0.041 6.591,-0.751 7.108,-2.384c0,-0.564 -0.538,-1.963 -1.619,-4.194l0.489,-4.194h0.317c1.405,2.418 2.101,4.842 2.101,7.26v1.453c0,0.971 -0.234,1.99 -0.696,3.058s-1.178,1.97 -2.135,2.693c-0.964,0.729 -2.817,1.033 -5.565,0.909V39.473z" id="path_47"/><path fill="#203e96" d="M57.807,17.392c0.166,-0.097 0.213,0.055 0.145,0.447c-0.916,2.149 -2.321,3.65 -4.215,4.498l-6.963,3.491c-0.296,-0.082 -0.352,-0.323 -0.166,-0.729c0.93,-1.791 1.563,-2.852 1.901,-3.189L57.807,17.392z" id="path_48"/><path fill="#008146" d="M47.53,44.087c-0.145,0.014 -0.296,0.021 -0.441,0.021h-0.813c-1.261,0 -2.121,-0.104 -2.583,-0.323c-0.937,3.622 -2.032,5.84 -3.285,6.653c-1.253,0.813 -4.084,1.501 -8.492,2.065h-0.323c-0.972,-0.11 -1.454,-0.269 -1.454,-0.481c0,-0.324 0.806,-0.703 2.417,-1.13c6.35,-2.906 9.525,-5.007 9.525,-6.295c0,-0.538 -0.751,-1.777 -2.259,-3.712c-0.324,-0.545 -0.482,-1.24 -0.482,-2.102v-1.611c0,-0.813 0.158,-1.239 0.482,-1.295c1.398,2.142 3.768,3.333 7.101,3.588c0.207,0 0.406,0 0.606,-0.013V44.087z" id="path_49"/><path fill="#008146" d="M44.121,24.616c0.165,-0.097 0.213,0.055 0.145,0.447c-0.916,2.149 -2.321,3.65 -4.215,4.498l-6.963,3.492c-0.296,-0.083 -0.351,-0.324 -0.166,-0.73c0.93,-1.791 1.563,-2.852 1.901,-3.188L44.121,24.616z" id="path_50"/><path fill="#008146" d="M27.612,36.159c0.964,0.972 1.881,3.065 2.741,6.295l0.166,2.101c0,3.796 -1.887,6.378 -5.654,7.749l-1.13,0.158l-2.865,0.041l-2.782,-0.041l-0.159,-0.158v-0.166c0.345,-0.371 2.659,-1.501 6.936,-3.388c2.693,-1.529 4.146,-2.879 4.359,-4.036c-1.398,-2.982 -2.094,-4.704 -2.094,-5.166v-0.482C27.13,37.131 27.289,36.159 27.612,36.159z" id="path_51"/><path fill="#008146" d="M29.913,25.401c0.165,-0.097 0.213,0.055 0.145,0.447c-0.916,2.149 -2.321,3.65 -4.215,4.498l-6.963,3.492c-0.296,-0.083 -0.352,-0.324 -0.166,-0.73c0.93,-1.791 1.563,-2.852 1.901,-3.189L29.913,25.401z" id="path_52"/><path fill="#000002" d="M6.33,20.318c1.26,0.379 2.555,1.185 3.871,2.425v0.158c-1.206,2.128 -1.908,3.202 -2.094,3.23H7.618c-0.91,-0.139 -1.88,-0.724 -2.907,-1.777v-0.158C4.821,22.929 5.359,21.641 6.33,20.318z" id="path_53"/><path fill="#000002" d="M12.459,20.642c1.185,0.27 2.37,0.972 3.554,2.102v0.158c0,0.593 -0.647,1.667 -1.936,3.23h-0.482c-0.758,0 -1.722,-0.593 -2.906,-1.777C10.986,22.688 11.578,21.448 12.459,20.642z" id="path_54"/><path fill="#000002" d="M15.104,28.453l0.165,0.481c-0.22,0.916 -1.185,1.99 -2.906,3.23c1.722,1.397 2.583,3.443 2.583,6.137v0.158c0,4.414 -1.832,6.619 -5.489,6.619c-2.906,-0.565 -4.36,-2.019 -4.36,-4.36v-0.158c0.11,-2.019 0.916,-4.174 2.424,-6.461c-1.398,-0.427 -2.101,-1.019 -2.101,-1.776c0,-2.019 0.158,-3.251 0.482,-3.713c1.454,0.406 3.072,1.213 4.842,2.425h0.166L15.104,28.453L15.104,28.453zM8.81,34.906c-1.288,1.294 -1.936,2.211 -1.936,2.748c0,1.666 1.185,2.638 3.554,2.906c1.233,-0.166 2.314,-0.593 3.223,-1.295C12.604,37.461 10.993,36.015 8.81,34.906z" id="path_55"/><path fill="#000002" d="M16.579,52.482l0.165,0.145v0.441c-0.833,1.79 -1.997,3.044 -3.492,3.773c-4.628,2.515 -7.198,3.774 -7.708,3.774c-0.186,0 -0.282,-0.151 -0.282,-0.447c0.44,-1.708 1.412,-2.865 2.906,-3.471l8.271,-4.216H16.579z" id="path_56"/><path fill="#000002" d="M15.428,48.854c0.193,0 0.282,0.138 0.282,0.419c-0.537,1.564 -2.128,2.969 -4.78,4.223l-6.116,3.347l-0.138,-0.144v-0.159c0.579,-2.045 1.501,-3.306 2.762,-3.774l6.825,-3.492L15.428,48.854z" id="path_57"/><path fill="#f26122" d="M65.895,50.094c-0.492,-0.714 -1.301,-1.898 -2.323,-1.898c-0.835,0 -1.382,1.391 -1.382,2.256c0,0.064 0,0.127 0.008,0.184c-0.23,0.214 -0.657,0.604 -0.657,1.721c0,0.3 0.032,0.648 0.111,1.07c0.271,1.472 0.557,3.048 0.557,4.382c0,0.251 -0.008,0.427 -0.008,0.601c0,0.254 0.016,0.34 0.086,0.34c0.144,0 0.414,-0.57 0.484,-1.544c0.016,-0.213 0.016,-0.443 0.016,-0.649c0,-2.307 -0.538,-4.143 -0.538,-4.619c0.043,-0.365 1.185,-0.595 2.12,-0.595c0.452,0 0.698,0.062 0.871,0.11c0.016,0.009 0.063,0.017 0.078,0.017c0.033,0 0.057,-0.017 0.095,-0.057c0.222,-0.246 0.438,-0.792 0.493,-1.198C65.917,50.15 65.908,50.118 65.895,50.094L65.895,50.094zM64.064,50.016c-0.325,0.024 -0.977,0.086 -1.326,0.316c0.073,-0.284 0.217,-0.66 0.563,-0.66C63.612,49.672 63.842,49.805 64.064,50.016z" id="path_58"/><path fill="#f26122" d="M75.032,53.498c0.166,-0.09 0.213,0.055 0.144,0.447c-0.916,2.149 -2.32,3.65 -4.214,4.498l-6.963,3.491c-0.296,-0.082 -0.352,-0.323 -0.166,-0.723c0.93,-1.791 1.563,-2.852 1.901,-3.188L75.032,53.498z" id="path_59"/><path fill="#f26122" d="M278.465,44.902c-0.569,-0.825 -1.504,-2.195 -2.687,-2.195c-0.966,0 -1.598,1.607 -1.598,2.607c0,0.075 0,0.147 0.01,0.213c-0.266,0.247 -0.76,0.697 -0.76,1.989c0,0.347 0.038,0.75 0.128,1.238c0.313,1.701 0.644,3.524 0.644,5.065c0,0.291 -0.009,0.494 -0.009,0.694c0,0.294 0.019,0.395 0.1,0.395c0.166,0 0.479,-0.66 0.56,-1.786c0.019,-0.247 0.019,-0.513 0.019,-0.75c0,-2.668 -0.622,-4.791 -0.622,-5.341c0.05,-0.423 1.37,-0.688 2.452,-0.688c0.522,0 0.807,0.071 1.007,0.128c0.019,0.01 0.072,0.019 0.091,0.019c0.038,0 0.065,-0.019 0.109,-0.065c0.256,-0.284 0.506,-0.916 0.569,-1.385C278.49,44.968 278.481,44.93 278.465,44.902L278.465,44.902zM276.348,44.812c-0.376,0.028 -1.129,0.1 -1.533,0.366c0.084,-0.329 0.25,-0.764 0.65,-0.764C275.826,44.414 276.091,44.567 276.348,44.812z" id="path_60"/></svg>