<svg id="vector" xmlns="http://www.w3.org/2000/svg" width="174" height="67" viewBox="0 0 174.113 67"><path fill="#008146" d="M142.576,46.951h0.627c2.128,-0.228 3.918,-1.515 5.372,-3.857c0.213,-0.481 0.427,-0.751 0.641,-0.806h0.166l0.482,0.489c-0.069,0.613 -0.172,1.047 -0.324,1.288c0.943,1.721 2.073,2.582 3.389,2.582l0.165,0.159c2.342,-5.166 4.973,-7.749 7.907,-7.749c2.342,0 4.063,0.971 5.166,2.906v0.972c0,5.917 -3.657,8.878 -10.979,8.878l-2.417,-0.158c-0.751,2.039 -1.24,3.064 -1.453,3.064l-0.158,-0.158v-0.166l0.482,-2.74v-0.324c-1.591,-0.889 -2.824,-2.128 -3.712,-3.712c-0.833,2.728 -2.617,4.043 -5.352,3.933V46.951L142.576,46.951zM154.705,47.13h0.324c3.657,0 6.777,-0.537 9.36,-1.611c0,-1.157 -1.075,-1.963 -3.223,-2.425h-0.647C157.935,43.094 156,44.444 154.705,47.13z" id="path_0"/><path fill="#008146" d="M156.888,23.458c1.653,0 2.479,1.02 2.479,3.051c0,3.238 -2.762,5.999 -8.292,8.271c-0.792,0.242 -0.888,-0.048 -0.282,-0.867c0.151,-0.311 1.453,-1.281 3.912,-2.906v-0.138c-1.061,-0.435 -1.591,-1.357 -1.591,-2.769c0.703,-3.093 1.818,-4.643 3.348,-4.643H156.888L156.888,23.458zM154.422,26.95c0,0.861 0.73,1.391 2.184,1.598h0.282c0.537,0 0.882,-0.199 1.026,-0.586c0,-0.874 -0.633,-1.557 -1.894,-2.038C155.469,25.924 154.938,26.269 154.422,26.95z" id="path_1"/><path fill="#000002" d="M120.074,45.437c1.323,0 2.287,0 2.907,0h0.647c1.935,-0.256 4.828,-1.082 8.678,-2.48c-1.295,-1.081 -3.285,-1.887 -5.971,-2.424c-1.591,0 -2.666,0.75 -3.23,2.259c-0.2,0.448 -0.379,0.564 -0.537,0.351c-0.151,-0.206 -0.193,-0.481 -0.11,-0.832c0.971,-3.258 2.259,-4.884 3.877,-4.884h1.129c1.074,0 3.017,0.606 5.819,1.818c2.804,1.205 5.221,1.694 7.253,1.453c0.255,0 0.365,0.158 0.324,0.481c-0.434,2.687 -1.24,4.037 -2.424,4.037l-0.806,0.158v0.323c0.406,0.848 2.266,1.254 5.593,1.212v4.58c-4.814,0.256 -7.218,-1.618 -7.205,-5.627c-1.721,0.256 -4.057,1.055 -7.004,2.411c-2.948,1.35 -5.923,1.929 -8.94,1.742V45.437z" id="path_2"/><path fill="#000002" d="M132.934,20.876c1.653,0 2.479,1.019 2.479,3.051c0,3.236 -2.762,5.998 -8.292,8.271c-0.792,0.241 -0.889,-0.049 -0.283,-0.867c0.152,-0.311 1.453,-1.281 3.913,-2.907v-0.138c-1.061,-0.434 -1.591,-1.357 -1.591,-2.77c0.703,-3.092 1.818,-4.641 3.347,-4.641H132.934L132.934,20.876zM130.468,24.367c0,0.86 0.73,1.392 2.183,1.598h0.283c0.537,0 0.881,-0.199 1.026,-0.585c0,-0.875 -0.634,-1.557 -1.894,-2.039C131.515,23.341 130.984,23.686 130.468,24.367z" id="path_3"/><path fill="#D50000" d="M103.634,45.437c1.791,0.15 3.313,-0.028 4.58,-0.524l-0.668,-1.212c-0.627,-3.555 -0.344,-5.902 0.847,-7.053c1.198,-1.15 2.486,-1.681 3.857,-1.584c2.665,0.124 4.167,1.521 4.518,4.194v0.972c0,2.23 -0.324,3.629 -0.964,4.193c-0.406,0.42 0.51,0.771 2.741,1.055l0.523,-0.021c0.407,-0.014 0.868,-0.02 1.392,-0.02v4.6l-1.632,0.021c-3.038,-0.014 -5.338,-0.4 -6.902,-1.15c-2.148,0.75 -3.822,1.129 -5,1.129h-0.647c-0.806,0 -1.688,0 -2.645,0V45.437L103.634,45.437zM109.344,40.876V41.2c0.675,1.156 1.694,1.963 3.065,2.417c0.916,-0.158 1.832,-0.537 2.748,-1.129c-0.406,-1.509 -1.749,-2.37 -4.036,-2.583C109.937,40.229 109.344,40.553 109.344,40.876z" id="path_4"/><path fill="#D50000" d="M110.315,27.157c1.398,0 2.686,0.86 3.871,2.582c-0.991,2.26 -1.75,3.389 -2.259,3.389c-2.176,-1.074 -3.36,-1.777 -3.554,-2.101C108.373,30.008 109.02,28.713 110.315,27.157z" id="path_5"/><path fill="#D50000" d="M115.983,16.137l0.166,0.145v0.44c-0.84,1.791 -2.004,3.045 -3.492,3.774c-4.628,2.515 -7.198,3.774 -7.708,3.774c-0.192,0 -0.289,-0.151 -0.289,-0.447c0.448,-1.709 1.419,-2.865 2.906,-3.472l8.279,-4.215H115.983z" id="path_6"/><path fill="#D50000" d="M114.833,12.507c0.187,0 0.283,0.138 0.283,0.42c-0.538,1.564 -2.128,2.969 -4.78,4.223l-6.116,3.347l-0.138,-0.145v-0.158c0.579,-2.046 1.495,-3.306 2.762,-3.774l6.818,-3.492L114.833,12.507z" id="path_7"/><path fill="#000002" d="M103.772,50.036c-3.134,0.186 -5.414,-1.26 -6.839,-4.339c-0.688,-1.144 -1.329,-8.851 -1.936,-23.12v-0.324c0.399,-2.369 0.992,-3.555 1.77,-3.555l0.813,-0.158c0.992,0 2.5,0.324 4.518,0.965v0.324c-0.11,0.322 -0.434,0.488 -0.971,0.488h-2.742c-0.564,0 -1.102,0.316 -1.619,0.965c0.503,12.39 1.233,19.566 2.204,21.529c0.964,1.963 2.569,2.838 4.801,2.625V50.036z" id="path_8"/><path fill="#e21171" d="M60.678,45.87c0.826,-0.779 4.304,-1.089 10.42,-0.943c3.313,-0.118 6.529,-1.006 9.649,-2.659c1.185,-1.185 2.693,-3.175 4.518,-5.972c0.917,-0.916 1.777,-1.453 2.583,-1.618c2.796,0 4.201,1.509 4.201,4.519c-0.192,4.283 -0.999,6.866 -2.424,7.748H88.82c-1.371,0 -3.795,-0.861 -7.266,-2.583c-0.806,1.405 -3.065,2.583 -6.777,3.554h-0.166c-5.028,0.434 -8.815,0.393 -11.357,-0.123C60.712,47.282 59.852,46.641 60.678,45.87L60.678,45.87zM84.784,40.813c1.371,0.669 3.147,1.262 5.324,1.777v-0.165c0,-1.694 -1.075,-2.714 -3.224,-3.064C85.479,39.761 84.784,40.249 84.784,40.813z" id="path_9"/><path fill="#e21171" d="M87.725,22.515c0.296,0.51 0.64,1.963 1.033,4.359c-0.241,1.453 -0.875,2.176 -1.901,2.176h-0.138c-0.448,0 -1.026,-0.289 -1.756,-0.867c-0.496,0.875 -1.226,1.316 -2.176,1.316c-1.157,0 -1.736,-1.406 -1.736,-4.217c0.337,-1.066 0.627,-1.597 0.868,-1.597l0.138,0.145v2.479c0.2,0.861 0.448,1.287 0.73,1.287h0.585c0.606,0 0.992,-0.24 1.171,-0.723l-0.303,-2.176c0.117,-0.73 0.317,-1.116 0.585,-1.15h0.303c0.303,2.417 0.792,3.629 1.446,3.629h1.013v-0.145l-0.441,-2.899v-0.165C87.263,22.997 87.456,22.515 87.725,22.515z" id="path_10"/><path fill="#e21171" d="M85.714,9.759c1.653,0 2.479,1.02 2.479,3.051c0,3.238 -2.762,6 -8.292,8.272c-0.792,0.241 -0.889,-0.048 -0.283,-0.868c0.151,-0.311 1.453,-1.281 3.912,-2.906v-0.139c-1.061,-0.434 -1.591,-1.355 -1.591,-2.768c0.702,-3.093 1.818,-4.643 3.347,-4.643H85.714L85.714,9.759zM83.248,13.251c0,0.861 0.73,1.391 2.183,1.598h0.283c0.537,0 0.881,-0.199 1.026,-0.586c0,-0.874 -0.634,-1.557 -1.894,-2.038C84.295,12.225 83.764,12.569 83.248,13.251z" id="path_11"/><path fill="#008146" d="M62.345,48.06l-3.23,0.158h-5.889c-0.551,-0.014 -1.797,-0.207 -3.733,-0.571c-1.935,-0.372 -2.679,-0.874 -2.218,-1.515c0.455,-0.641 3.333,-1.006 8.637,-1.103c2.342,-0.145 4.325,-0.379 5.951,-0.688c0,-0.316 0.593,-1.502 1.777,-3.547c0,-5.435 -0.378,-9.85 -1.129,-13.238v-0.482c0.296,-2.906 0.668,-4.359 1.129,-4.359l2.259,5.49l-1.129,4.359l0.158,4.842v0.964l-0.158,0.806c2.486,-2.713 4.69,-4.111 6.619,-4.194h0.964c2.762,0.015 4.318,1.198 4.684,3.554c-0.042,2.486 -0.737,4.367 -2.101,5.648C73.165,46.606 68.963,47.895 62.345,48.06L62.345,48.06zM63.639,44.024h0.324c4.545,-0.504 7.534,-1.055 8.974,-1.668c1.439,-0.612 2.163,-1.025 2.163,-1.239v-0.165c-1.185,-1.398 -2.748,-2.094 -4.684,-2.094C68.075,38.858 65.815,40.58 63.639,44.024z" id="path_12"/><path fill="#008146" d="M77.552,20.435c0.166,-0.097 0.214,0.055 0.145,0.447c-0.916,2.148 -2.321,3.65 -4.215,4.498l-6.963,3.491c-0.296,-0.083 -0.351,-0.323 -0.165,-0.729c0.93,-1.791 1.563,-2.852 1.901,-3.189L77.552,20.435z" id="path_13"/><path fill="#000002" d="M51.951,47.474c0.551,0.986 0.854,1.564 0.91,1.736l0.076,1.315c-0.014,2.328 -0.324,3.933 -0.944,4.821s-1.405,1.336 -2.362,1.35c-2.073,0 -4.222,-1.666 -6.46,-5c-0.386,-0.661 -0.765,-1.521 -1.129,-2.582h-1.612c-0.365,0 -0.709,-0.021 -1.047,-0.063v-4.621c0.496,0.109 1.005,0.158 1.529,0.158h0.647c0.888,-3.443 2.396,-6.027 4.518,-7.748c1.103,-0.861 2.128,-1.289 3.072,-1.289c1.453,0 2.314,1.075 2.583,3.23c0.427,2.163 -0.055,4.415 -1.453,6.757L51.951,47.474L51.951,47.474zM44.789,48.948c1.102,1.942 2.713,3.017 4.842,3.23c1.074,-0.097 1.777,-0.469 2.101,-1.13c-0.097,-1.302 -0.847,-2.094 -2.259,-2.369c-1.418,-0.276 -2.548,-0.372 -3.402,-0.276C45.215,48.501 44.789,48.68 44.789,48.948L44.789,48.948zM43.17,43.948c-0.117,0.357 0.042,0.523 0.489,0.482c2.045,0 4.084,-0.916 6.129,-2.742v-0.165c-0.455,-1.074 -1.046,-1.611 -1.77,-1.611C46.414,39.705 44.802,41.056 43.17,43.948z" id="path_14"/><path fill="#000002" d="M49.651,24.367c0.296,0.51 0.641,1.963 1.033,4.36c-0.241,1.453 -0.875,2.176 -1.901,2.176h-0.138c-0.447,0 -1.026,-0.289 -1.756,-0.867c-0.496,0.875 -1.226,1.314 -2.176,1.314c-1.157,0 -1.735,-1.404 -1.735,-4.215c0.337,-1.067 0.626,-1.598 0.868,-1.598l0.138,0.145v2.48c0.2,0.86 0.448,1.287 0.73,1.287h0.585c0.606,0 0.992,-0.241 1.171,-0.723l-0.303,-2.177c0.117,-0.729 0.317,-1.116 0.585,-1.15h0.303c0.303,2.417 0.792,3.63 1.446,3.63h1.013v-0.145l-0.441,-2.9v-0.164C49.189,24.849 49.383,24.367 49.651,24.367z" id="path_15"/><path fill="#000002" d="M52.089,15.489c0.166,-0.097 0.213,0.055 0.145,0.447c-0.916,2.149 -2.321,3.65 -4.215,4.498l-6.963,3.492c-0.296,-0.083 -0.352,-0.324 -0.166,-0.73c0.93,-1.791 1.563,-2.852 1.901,-3.189L52.089,15.489z" id="path_16"/><path fill="#008146" d="M39.458,49.044c-0.145,0.015 -0.296,0.021 -0.44,0.021h-0.813c-1.26,0 -2.122,-0.104 -2.583,-0.324c-0.937,3.623 -2.031,5.842 -3.285,6.654c-1.254,0.813 -4.084,1.501 -8.492,2.065H23.52c-0.971,-0.11 -1.453,-0.269 -1.453,-0.481c0,-0.324 0.806,-0.703 2.417,-1.13c6.35,-2.907 9.525,-5.007 9.525,-6.296c0,-0.537 -0.751,-1.776 -2.259,-3.712c-0.324,-0.544 -0.482,-1.239 -0.482,-2.101V42.13c0,-0.813 0.158,-1.24 0.482,-1.295c1.398,2.142 3.767,3.333 7.1,3.588c0.207,0 0.407,0 0.606,-0.014V49.044z" id="path_17"/><path fill="#008146" d="M36.048,29.574c0.166,-0.097 0.213,0.056 0.145,0.447c-0.916,2.149 -2.321,3.65 -4.215,4.498l-6.963,3.491c-0.296,-0.082 -0.351,-0.323 -0.166,-0.729c0.93,-1.791 1.564,-2.852 1.901,-3.188L36.048,29.574z" id="path_18"/><path fill="#000002" d="M11.316,25.276c1.26,0.379 2.555,1.185 3.871,2.424v0.158c-1.205,2.129 -1.908,3.203 -2.094,3.23h-0.489c-0.909,-0.137 -1.88,-0.723 -2.907,-1.776v-0.159C9.807,27.887 10.345,26.599 11.316,25.276z" id="path_19"/><path fill="#000002" d="M17.445,25.601c1.185,0.268 2.37,0.971 3.554,2.1v0.158c0,0.594 -0.647,1.668 -1.936,3.23h-0.482c-0.757,0 -1.722,-0.592 -2.906,-1.776C15.972,27.646 16.564,26.405 17.445,25.601z" id="path_20"/><path fill="#000002" d="M20.09,33.411l0.166,0.481c-0.221,0.916 -1.185,1.99 -2.907,3.229c1.722,1.398 2.583,3.444 2.583,6.137v0.159c0,4.415 -1.832,6.618 -5.489,6.618c-2.906,-0.564 -4.36,-2.018 -4.36,-4.359v-0.158c0.11,-2.018 0.916,-4.174 2.424,-6.461c-1.398,-0.427 -2.101,-1.02 -2.101,-1.776c0,-2.019 0.158,-3.251 0.482,-3.713c1.453,0.407 3.072,1.212 4.842,2.425h0.165L20.09,33.411L20.09,33.411zM13.795,39.864c-1.288,1.295 -1.936,2.211 -1.936,2.748c0,1.666 1.185,2.637 3.554,2.906c1.232,-0.166 2.314,-0.592 3.223,-1.295C17.59,42.419 15.979,40.973 13.795,39.864z" id="path_21"/><path fill="#f26122" d="M19.849,13.169l0.166,0.145v0.44c-0.84,1.79 -2.004,3.044 -3.492,3.774c-4.628,2.514 -7.198,3.774 -7.707,3.774c-0.193,0 -0.29,-0.151 -0.29,-0.448c0.448,-1.707 1.419,-2.865 2.907,-3.471l8.278,-4.215H19.849z" id="path_22"/><path fill="#f26122" d="M18.699,9.538c0.186,0 0.282,0.139 0.282,0.421c-0.537,1.563 -2.128,2.968 -4.78,4.222l-6.116,3.348l-0.137,-0.145v-0.158c0.578,-2.046 1.494,-3.307 2.762,-3.775l6.818,-3.491L18.699,9.538z" id="path_23"/></svg>