<svg id="vector" xmlns="http://www.w3.org/2000/svg" width="174" height="67" viewBox="0 0 174.113 67"><path fill="#008146" d="M131.254,46.533c0.406,0.027 0.82,0.041 1.233,0.041h0.482l2.018,-0.482c-0.482,-0.902 -0.723,-1.529 -0.723,-1.88c0,-5.166 1.667,-7.749 5,-7.749l1.295,-0.158c1.694,0.27 3.85,1.288 6.454,3.065l0.165,0.647l-0.165,0.158h-0.641c-1.24,-0.861 -2.638,-1.288 -4.202,-1.288c-2.39,0 -4.38,0.695 -5.971,2.094v0.165c1.398,2.26 3.981,3.389 7.748,3.389c2.962,-1.074 4.897,-1.611 5.813,-1.611c-0.51,3.01 -1.48,4.518 -2.906,4.518c-6.377,2.473 -11.433,3.713 -15.173,3.713h-0.427V46.533z" id="path_0"/><path fill="#008146" d="M138.458,28.068c2.693,0.86 4.036,1.563 4.036,2.1v0.324c-0.916,2.369 -1.611,3.554 -2.094,3.554c-2.397,-1.054 -3.637,-1.749 -3.719,-2.101v-0.323C136.681,30.844 137.274,29.658 138.458,28.068z" id="path_1"/><path fill="#008146" d="M140.779,14.162c1.653,0 2.479,1.02 2.479,3.051c0,3.237 -2.762,5.999 -8.292,8.272c-0.792,0.24 -0.889,-0.049 -0.283,-0.868c0.152,-0.31 1.454,-1.281 3.913,-2.906v-0.138c-1.061,-0.435 -1.591,-1.357 -1.591,-2.769c0.703,-3.093 1.818,-4.643 3.347,-4.643H140.779L140.779,14.162zM138.313,17.654c0,0.86 0.73,1.391 2.184,1.598h0.282c0.537,0 0.882,-0.199 1.026,-0.586c0,-0.874 -0.633,-1.557 -1.894,-2.038C139.361,16.628 138.83,16.972 138.313,17.654z" id="path_2"/><path fill="#D50000" d="M120.489,33.22c0.668,0 1.853,0.806 3.547,2.417c0,0.537 -0.641,1.722 -1.936,3.554h-0.323c-0.675,0 -1.694,-0.647 -3.065,-1.941V37.09C118.712,36.443 119.305,35.154 120.489,33.22z" id="path_3"/><path fill="#D50000" d="M126.295,32.406c2.693,1.157 4.036,2.073 4.036,2.748c-0.158,0.51 -0.909,1.64 -2.259,3.389c-1.805,-0.702 -3.093,-1.508 -3.871,-2.424C124.766,34.321 125.462,33.081 126.295,32.406z" id="path_4"/><path fill="#D50000" d="M122.424,27.73c2.473,1.02 3.712,1.88 3.712,2.582l-2.101,3.224h-0.158c-0.461,0 -1.694,-0.641 -3.712,-1.936C121.157,29.018 121.915,27.73 122.424,27.73z" id="path_5"/><path fill="#D50000" d="M117.638,46.554c1.15,0.014 1.86,-0.008 2.142,-0.063c2.424,-0.736 4.077,-2.308 4.966,-4.697c0.131,-0.461 0.399,-0.517 0.806,-0.165c0.213,0.186 0.379,0.943 0.482,2.259c1.467,1.977 3.299,2.865 5.489,2.666h0.427v4.601h-0.103c-3.43,-0.159 -5.958,-1.722 -7.59,-4.684h-0.158c-1.143,2.411 -2.651,3.892 -4.518,4.442c-0.565,0.158 -1.212,0.241 -1.942,0.241V46.554z" id="path_6"/><path fill="#D50000" d="M128.713,18.163c0.166,-0.096 0.213,0.056 0.145,0.448c-0.916,2.148 -2.321,3.65 -4.215,4.498l-6.963,3.491c-0.296,-0.082 -0.352,-0.323 -0.166,-0.729c0.93,-1.791 1.563,-2.852 1.901,-3.189L128.713,18.163z" id="path_7"/><path fill="#000002" d="M117.679,51.154c-3.134,0.186 -5.414,-1.261 -6.839,-4.339c-0.688,-1.144 -1.329,-8.851 -1.935,-23.121V23.37c0.399,-2.369 0.992,-3.554 1.77,-3.554l0.813,-0.158c0.992,0 2.5,0.324 4.518,0.964v0.324c-0.11,0.323 -0.434,0.489 -0.971,0.489h-2.742c-0.564,0 -1.102,0.316 -1.618,0.964c0.503,12.391 1.232,19.567 2.204,21.529c0.964,1.964 2.569,2.838 4.801,2.625V51.154z" id="path_8"/><path fill="#203e96" d="M98.48,41.45c1.488,0 2.989,0.743 4.498,2.238c0.145,0.255 0.089,0.454 -0.173,0.606c-0.261,0.145 -0.502,0.109 -0.716,-0.104c-0.647,-0.579 -1.563,-0.868 -2.748,-0.868h-0.503c-0.496,0 -1.074,0.214 -1.735,0.627c0,1.212 1.453,1.956 4.36,2.238l2.885,-1.13l0.124,0.386c0,1.357 -1.673,2.569 -5.007,3.63l-4.622,2.624l-0.481,0.124c-0.186,0.042 -0.317,-0.041 -0.386,-0.241c0,-0.73 1.046,-1.729 3.127,-3.01v-0.124c-1.006,-0.551 -1.509,-1.343 -1.509,-2.376C96.063,42.985 97.027,41.45 98.48,41.45z" id="path_9"/><path fill="#203e96" d="M102.716,30.23l0.166,0.145v0.44c-0.84,1.791 -2.004,3.045 -3.492,3.774c-4.628,2.514 -7.197,3.774 -7.707,3.774c-0.192,0 -0.289,-0.151 -0.289,-0.447c0.448,-1.708 1.419,-2.865 2.906,-3.472l8.279,-4.215H102.716z" id="path_10"/><path fill="#203e96" d="M101.566,26.601c0.187,0 0.283,0.138 0.283,0.42c-0.538,1.563 -2.128,2.969 -4.78,4.222l-6.115,3.348l-0.138,-0.145v-0.158c0.579,-2.046 1.495,-3.306 2.762,-3.774l6.818,-3.492L101.566,26.601z" id="path_11"/><path fill="#D50000" d="M83.717,24.031c0.324,0 0.647,1.082 0.971,3.23l1.453,3.23l-0.647,3.712l0.482,9.043v1.447c-0.213,3.691 -0.75,5.84 -1.611,6.46l-0.159,-0.159l0.159,-2.424c0,-2.177 -0.703,-9.119 -2.101,-20.82C82.938,25.271 83.42,24.031 83.717,24.031z" id="path_12"/><path fill="#D50000" d="M88.538,14.589c0.166,-0.097 0.213,0.056 0.145,0.448c-0.916,2.148 -2.321,3.649 -4.214,4.497l-6.963,3.492c-0.296,-0.083 -0.352,-0.324 -0.166,-0.73c0.93,-1.791 1.563,-2.852 1.901,-3.188L88.538,14.589z" id="path_13"/><path fill="#000002" d="M57.565,46.554h1.86c1.963,-0.269 5.083,-0.999 9.36,-2.177v-0.165c-3.898,-1.723 -6.371,-2.583 -7.425,-2.583c-1.425,0 -2.39,0.806 -2.906,2.425l-0.482,0.323c-0.214,0 -0.324,-0.165 -0.324,-0.489c0.538,-3.223 1.991,-4.842 4.36,-4.842h0.806c0.999,0 4.388,1.13 10.173,3.389l4.359,0.324l0.317,0.488c-0.075,0.724 -0.723,2.122 -1.935,4.194h-0.482l-0.647,-0.165h-0.806c-8.396,2.479 -13.292,3.768 -14.691,3.878h-1.536V46.554z" id="path_14"/><path fill="#000002" d="M66.87,25.168h1.598c1.936,0 2.906,0.724 2.906,2.177c-1.253,3.389 -2.775,5.187 -4.566,5.393l-2.115,0.282c-0.337,0 -0.475,-0.096 -0.427,-0.282c1.708,-0.902 3.306,-1.977 4.787,-3.21c-0.523,-0.488 -1.102,-0.729 -1.736,-0.729H66.87l-1.735,0.145l-0.138,-0.145v-0.282C65.816,26.284 66.443,25.168 66.87,25.168z" id="path_15"/><path fill="#D50000" d="M58.274,51.154l-1.818,-0.021c-1.005,4.428 -3.671,6.667 -7.989,6.722c-2.314,0.104 -3.472,0.063 -3.472,-0.124c0.214,-0.406 1.764,-1.185 4.643,-2.342c2.961,-1.88 4.746,-3.092 5.365,-3.63l0.165,-0.481l-2.824,-0.448c-2.059,-0.537 -3.216,-1.569 -3.471,-3.105V47.4c0,-2.61 0.641,-4.276 1.935,-5.007l0.972,-0.158c1.908,0 3.464,1.329 4.676,3.994c0.771,0.269 1.378,0.399 1.818,0.386V51.154z" id="path_16"/><path fill="#000002" d="M46.407,33.233c1.033,-0.09 1.57,0.179 1.611,0.813v0.964c-0.269,2.583 -0.538,3.878 -0.806,3.878h-0.166c-0.2,-0.758 -0.847,-1.129 -1.935,-1.129c-2.232,0 -4.601,1.666 -7.101,5v0.323c0,0.537 1.832,1.026 5.489,1.453c0.964,0.943 1.453,1.963 1.453,3.065c0,3.044 -2.693,6.322 -8.072,9.849c-1.398,0.751 -2.796,1.13 -4.201,1.13c-3.685,0 -6.315,-2.26 -7.907,-6.777c-0.51,-1.577 -0.558,-3.774 -0.138,-6.592c0.413,-2.816 1.66,-4.56 3.733,-5.234l0.282,0.042c0.4,0.213 0.111,0.826 -0.881,1.846c-0.985,1.012 -1.612,2.335 -1.867,3.967v1.288c0,2.583 1.398,4.684 4.194,6.295c0.972,0.434 1.998,0.647 3.072,0.647h0.647c3.12,0 6.24,-1.508 9.36,-4.518l-5.007,-1.13c-0.861,-0.571 -1.288,-1.322 -1.288,-2.266v-1.936c0.042,-2.962 1.44,-5.654 4.195,-8.093C42.102,35.059 43.872,34.095 46.407,33.233z" id="path_17"/><path fill="#D50000" d="M51.47,22.627c1.295,2.203 1.942,4.359 1.942,6.453c-0.564,3.981 -1.267,5.971 -2.1,5.971l-0.159,-0.157v-0.159l0.317,-2.101v-0.165c0,-1.288 -0.537,-3.224 -1.611,-5.806v-0.324C50.396,23.859 50.933,22.627 51.47,22.627z" id="path_18"/><path fill="#000002" d="M121.425,8.422l0.158,0.158c0,2.184 -1.722,4.442 -5.166,6.784c-2.018,0.86 -4.063,1.288 -6.13,1.288l-1.453,-0.158c-0.544,2.045 -0.916,3.064 -1.129,3.064c-0.248,0 -0.564,-0.861 -0.971,-2.583c-0.751,-1.02 -1.991,-2.314 -3.713,-3.871v-0.323c0.379,-2.156 0.806,-3.23 1.288,-3.23c2.101,2.26 4.684,3.389 7.749,3.389C115.612,12.939 118.732,11.432 121.425,8.422z" id="path_19"/></svg>