<svg id="vector" xmlns="http://www.w3.org/2000/svg" width="300" height="67" viewBox="0 0 299.739 66.967"><path fill="#008146" d="M280.905,42.35h0.773c4.818,-0.096 8.017,-0.791 9.603,-2.101l0.311,-0.634c-0.205,-0.512 -0.462,-0.764 -0.773,-0.764c-0.747,0.429 -1.573,0.641 -2.479,0.641h-0.159c-2.683,-0.32 -4.078,-1.439 -4.177,-3.355v-0.164c0.258,-3.621 1.084,-5.43 2.479,-5.43h0.773c2.386,-0.123 4.197,1.795 5.419,5.75l0.152,1.604v0.32c-0.033,3.915 -1.395,6.5 -4.084,7.748c-0.952,0.627 -3.569,0.941 -7.839,0.941V42.35z" id="path_0"/><path fill="#008146" d="M287.719,22.188c1.679,0.532 3.126,1.384 4.336,2.558v0.156c0,0.669 -0.667,1.733 -2.009,3.199c-0.417,0 -1.811,-0.531 -4.184,-1.596v0.156c-0.826,1.651 -1.342,2.504 -1.553,2.559c-1.342,-0.294 -2.479,-0.935 -3.404,-1.917c0.622,-2.667 1.137,-3.997 1.547,-3.997c0.337,0 1.573,0.641 3.721,1.917C286.173,24.664 286.688,23.654 287.719,22.188z" id="path_1"/><path fill="#008146" d="M287.607,9.618c1.586,0 2.379,1.009 2.379,3.021c0,3.206 -2.65,5.94 -7.958,8.191c-0.76,0.239 -0.853,-0.048 -0.271,-0.859c0.146,-0.307 1.395,-1.269 3.754,-2.878v-0.137c-1.018,-0.43 -1.527,-1.344 -1.527,-2.742c0.674,-3.063 1.745,-4.597 3.212,-4.597H287.607L287.607,9.618zM285.241,13.076c0,0.853 0.701,1.378 2.095,1.582h0.271c0.516,0 0.846,-0.197 0.984,-0.58c0,-0.865 -0.608,-1.541 -1.817,-2.018C286.245,12.061 285.736,12.4 285.241,13.076z" id="path_2"/><path fill="#D50000" d="M269.755,42.35c0.027,0 0.06,0 0.093,0c2.479,-0.156 3.899,-1.303 4.263,-3.438c-0.932,-6.391 -1.395,-10.871 -1.395,-13.43c0,-0.982 0.417,-2.264 1.243,-3.833l0.152,0.157l0.311,0.32l-0.159,1.119c0.132,7.182 1.011,12.747 2.637,16.703c0.621,1.439 2.141,2.244 4.567,2.4v4.557c-3.331,-0.055 -5.572,-1.862 -6.735,-5.436h-0.159c-1.071,3.58 -2.677,5.395 -4.818,5.436V42.35z" id="path_3"/><path fill="#D50000" d="M274.923,10.014c1.586,0 2.379,1.01 2.379,3.021c0,3.206 -2.65,5.941 -7.958,8.191c-0.76,0.239 -0.853,-0.047 -0.271,-0.859c0.146,-0.307 1.395,-1.268 3.754,-2.879v-0.136c-1.018,-0.43 -1.526,-1.343 -1.526,-2.741c0.674,-3.063 1.745,-4.598 3.212,-4.598H274.923L274.923,10.014zM272.557,13.472c0,0.853 0.701,1.378 2.095,1.583h0.271c0.516,0 0.846,-0.197 0.985,-0.58c0,-0.866 -0.608,-1.541 -1.818,-2.02C273.562,12.455 273.053,12.797 272.557,13.472z" id="path_4"/><path fill="#203e96" d="M270.178,46.906l-1.745,-0.021c-0.965,4.386 -3.522,6.602 -7.667,6.656c-2.221,0.103 -3.331,0.062 -3.331,-0.122c0.205,-0.402 1.692,-1.174 4.455,-2.319c2.842,-1.862 4.554,-3.063 5.148,-3.595l0.159,-0.478l-2.71,-0.443c-1.976,-0.532 -3.086,-1.555 -3.331,-3.075v-0.321c0,-2.585 0.615,-4.235 1.857,-4.958l0.932,-0.157c1.831,0 3.324,1.316 4.487,3.956c0.74,0.266 1.322,0.396 1.745,0.382V46.906z" id="path_5"/><path fill="#203e96" d="M262.994,24.924h1.533c1.857,0 2.789,0.716 2.789,2.154c-1.203,3.356 -2.663,5.137 -4.382,5.342l-2.029,0.279c-0.324,0 -0.456,-0.096 -0.41,-0.279c1.64,-0.895 3.173,-1.958 4.594,-3.18c-0.502,-0.484 -1.058,-0.723 -1.666,-0.723h-0.43l-1.666,0.144l-0.132,-0.144v-0.279C261.982,26.028 262.584,24.924 262.994,24.924z" id="path_6"/><path fill="#000002" d="M245.604,47.704c2.168,0.642 3.252,1.438 3.252,2.4l-2.016,3.356c-2.016,-0.854 -3.1,-1.494 -3.251,-1.917C243.589,50.555 244.256,49.279 245.604,47.704z" id="path_7"/><path fill="#000002" d="M236.306,32.678h0.158l0.311,0.32c-0.827,1.891 -1.243,3.172 -1.243,3.834c0,3.117 2.895,4.932 8.678,5.436l1.857,0.32c1.857,0 4.646,-0.586 8.361,-1.76l2.174,-1.274c-0.727,-1.357 -1.189,-2.53 -1.395,-3.52l0.311,-3.036h0.304c1.242,1.331 1.864,3.677 1.864,7.033c0,3.226 -2.736,5.408 -8.215,6.554l-2.32,0.321c-8.678,0 -13.014,-2.934 -13.014,-8.792C234.138,35.666 234.865,33.852 236.306,32.678z" id="path_8"/><path fill="#000002" d="M248.685,20.729c1.183,0 1.884,0.813 2.088,2.436v0.443c-0.218,2.715 -1.097,4.488 -2.63,5.313c-2.67,1.732 -5.096,2.599 -7.264,2.599c-0.079,-0.014 -0.152,-0.034 -0.231,-0.062s-0.139,-0.068 -0.185,-0.123c-0.046,-0.047 -0.04,-0.081 0.013,-0.095c0.112,-0.267 2.062,-1.33 5.842,-3.179v-0.143c-1.018,-0.662 -1.526,-1.576 -1.526,-2.735C245.4,22.209 246.695,20.729 248.685,20.729L248.685,20.729zM246.187,23.744v0.136c0,0.989 0.654,1.569 1.956,1.739h0.403c0.496,0 0.773,-0.144 0.833,-0.437c0,-1.344 -0.694,-2.019 -2.089,-2.019C246.557,23.334 246.187,23.532 246.187,23.744z" id="path_9"/><path fill="#000002" d="M245.625,18.13c0.297,-0.149 0.436,-0.048 0.423,0.301c-1.494,1.704 -2.67,3.321 -3.523,4.856c-0.245,0.6 -0.383,1.091 -0.417,1.486s0.066,0.818 0.304,1.269h0.291c0.112,-0.669 0.343,-1.003 0.694,-1.003c0.417,0.191 0.647,0.383 0.694,0.58v0.279c0.026,1.521 -0.39,2.436 -1.256,2.742h-0.694c-0.932,-0.191 -1.395,-1.296 -1.395,-3.322C240.747,22.857 242.373,20.463 245.625,18.13z" id="path_10"/><path fill="#e21171" d="M223.444,49.661h0.311c1.057,0.239 2.194,0.88 3.41,1.923v0.158c-0.7,2.182 -1.315,3.355 -1.857,3.519c-1.58,-0.32 -2.763,-0.853 -3.563,-1.603v-0.156C221.745,52.246 222.313,50.971 223.444,49.661z" id="path_11"/><path fill="#e21171" d="M229.181,48.223h0.152c1.058,0.163 2.248,0.906 3.563,2.236v0.164l-1.857,3.355c-2.478,-0.824 -3.721,-1.521 -3.721,-2.08C228.116,49.449 228.738,48.223 229.181,48.223z" id="path_12"/><path fill="#e21171" d="M222.069,42.35c4.058,0.041 6.325,-0.743 6.82,-2.359c0,-0.56 -0.516,-1.944 -1.553,-4.154l0.47,-4.153h0.304c1.348,2.394 2.016,4.795 2.016,7.188v1.439c0,0.961 -0.225,1.971 -0.668,3.027c-0.442,1.059 -1.13,1.951 -2.049,2.668c-0.925,0.723 -2.703,1.022 -5.34,0.9V42.35z" id="path_13"/><path fill="#e21171" d="M230.998,20.211c0.284,0.504 0.615,1.943 0.992,4.316c-0.231,1.439 -0.84,2.156 -1.825,2.156h-0.132c-0.43,0 -0.985,-0.287 -1.686,-0.859c-0.476,0.866 -1.176,1.303 -2.088,1.303c-1.11,0 -1.666,-1.393 -1.666,-4.175c0.324,-1.058 0.602,-1.583 0.833,-1.583l0.132,0.145v2.455c0.191,0.852 0.43,1.275 0.701,1.275h0.562c0.582,0 0.952,-0.238 1.124,-0.717l-0.291,-2.154c0.112,-0.724 0.304,-1.105 0.562,-1.14h0.291c0.291,2.394 0.76,3.595 1.388,3.595h0.972v-0.144l-0.423,-2.871v-0.164C230.555,20.688 230.74,20.211 230.998,20.211z" id="path_14"/><path fill="#e21171" d="M233.338,11.419c0.159,-0.096 0.205,0.055 0.139,0.443c-0.879,2.128 -2.227,3.614 -4.045,4.454l-6.682,3.457c-0.284,-0.081 -0.337,-0.32 -0.159,-0.723c0.893,-1.773 1.5,-2.823 1.825,-3.158L233.338,11.419z" id="path_15"/><path fill="#000002" d="M222.75,46.906l-1.745,-0.021c-0.965,4.386 -3.523,6.602 -7.667,6.656c-2.22,0.103 -3.331,0.062 -3.331,-0.122c0.205,-0.402 1.692,-1.174 4.455,-2.319c2.842,-1.862 4.554,-3.063 5.148,-3.595l0.159,-0.478l-2.71,-0.443c-1.976,-0.532 -3.086,-1.555 -3.331,-3.075v-0.321c0,-2.585 0.615,-4.235 1.857,-4.958l0.932,-0.157c1.831,0 3.325,1.316 4.488,3.956c0.74,0.266 1.322,0.396 1.745,0.382V46.906z" id="path_16"/><path fill="#000002" d="M215.565,24.924h1.533c1.857,0 2.789,0.716 2.789,2.154c-1.203,3.356 -2.664,5.137 -4.382,5.342l-2.029,0.279c-0.324,0 -0.456,-0.096 -0.409,-0.279c1.639,-0.895 3.172,-1.958 4.593,-3.18c-0.502,-0.484 -1.058,-0.723 -1.666,-0.723h-0.43l-1.666,0.144l-0.132,-0.144v-0.279C214.554,26.028 215.156,24.924 215.565,24.924z" id="path_17"/><path fill="#000002" d="M195.381,42.35c0.211,0 0.43,0 0.661,0h0.158c1.93,-0.123 3.688,-1.78 5.261,-4.973c1.705,-2.666 3.463,-3.996 5.267,-3.996c2.274,0 3.411,1.486 3.411,4.475v0.797c0,1.467 -0.568,3.384 -1.705,5.758l-1.084,0.797c-0.958,0 -3.173,-0.695 -6.662,-2.08c-1.058,1.637 -1.884,2.633 -2.479,2.98c-0.906,0.648 -1.831,0.921 -2.789,0.799h-0.04V42.35L195.381,42.35zM203.167,38.974v0.157c2.683,1.07 4.289,1.603 4.805,1.603c0.205,0 0.311,-0.164 0.311,-0.484c-0.595,-1.597 -1.58,-2.394 -2.948,-2.394C204.382,37.855 203.656,38.23 203.167,38.974z" id="path_18"/><path fill="#000002" d="M208.163,20.852c0.159,-0.096 0.205,0.055 0.139,0.443c-0.879,2.128 -2.228,3.614 -4.044,4.453l-6.682,3.459c-0.284,-0.082 -0.337,-0.32 -0.159,-0.724c0.893,-1.772 1.5,-2.823 1.825,-3.157L208.163,20.852z" id="path_19"/><path fill="#D50000" d="M188.362,25.441c1.428,0 2.869,0.744 4.316,2.225c0.139,0.252 0.086,0.449 -0.165,0.6c-0.251,0.143 -0.483,0.109 -0.688,-0.103c-0.621,-0.573 -1.5,-0.859 -2.63,-0.859h-0.489c-0.476,0 -1.031,0.204 -1.666,0.62c0,1.201 1.395,1.938 4.184,2.217l2.769,-1.118l0.119,0.382c0,1.344 -1.599,2.544 -4.805,3.594l-4.435,2.6l-0.462,0.115c-0.179,0.041 -0.304,-0.033 -0.371,-0.238c0,-0.716 1.005,-1.712 3.001,-2.974v-0.122c-0.965,-0.547 -1.447,-1.33 -1.447,-2.361C186.042,26.969 186.967,25.441 188.362,25.441z" id="path_20"/><path fill="#D50000" d="M182.314,42.35c1.104,0.014 1.784,-0.007 2.055,-0.061c2.327,-0.73 3.913,-2.285 4.766,-4.652c0.125,-0.457 0.383,-0.512 0.773,-0.164c0.205,0.185 0.364,0.936 0.463,2.238c1.408,1.957 3.166,2.836 5.267,2.639h0.41v4.557h-0.099c-3.291,-0.157 -5.717,-1.705 -7.283,-4.639h-0.152c-1.097,2.388 -2.544,3.854 -4.335,4.399c-0.542,0.157 -1.164,0.239 -1.864,0.239V42.35z" id="path_21"/><path fill="#D50000" d="M194.456,50.957c0.159,-0.088 0.205,0.055 0.139,0.443c-0.879,2.129 -2.227,3.615 -4.044,4.454l-6.682,3.458c-0.284,-0.082 -0.337,-0.32 -0.159,-0.717c0.892,-1.772 1.5,-2.823 1.824,-3.157L194.456,50.957z" id="path_22"/><path fill="#000002" d="M172.282,21.486c2.174,1.118 3.258,2.08 3.258,2.878c-1.038,2.107 -1.652,3.171 -1.864,3.198h-0.311c-1.586,-0.824 -2.564,-1.568 -2.941,-2.236C170.788,24.111 171.409,22.836 172.282,21.486z" id="path_23"/><path fill="#000002" d="M182.757,46.926c-2.657,-0.184 -5.069,-1.684 -7.237,-4.494h-0.159c-0.925,5.539 -2.994,8.307 -6.192,8.314h-0.47c-1.388,-0.008 -2.736,-1.282 -4.025,-3.84c-1.031,-3.595 -1.546,-6.316 -1.546,-8.15v-1.283c0,-0.798 0.152,-1.227 0.462,-1.275c0.437,0.238 0.958,1.985 1.56,5.246c0.602,3.252 1.837,4.808 3.708,4.664c3.615,-0.613 5.525,-2.748 5.73,-6.396l-1.395,-4.952v-1.761c0.053,-2.134 0.258,-3.197 0.621,-3.197c0.205,0.477 0.363,0.961 0.463,1.438l2.167,7.032c1.705,2.851 3.813,4.201 6.312,4.037V46.926z" id="path_24"/><path fill="#000002" d="M176.736,54.654l0.159,0.143v0.438c-0.8,1.772 -1.917,3.014 -3.351,3.736c-4.441,2.49 -6.907,3.738 -7.396,3.738c-0.178,0 -0.271,-0.15 -0.271,-0.443c0.423,-1.691 1.354,-2.838 2.789,-3.438l7.938,-4.174H176.736z" id="path_25"/><path fill="#000002" d="M175.632,51.061c0.186,0 0.271,0.136 0.271,0.415c-0.516,1.548 -2.042,2.94 -4.586,4.181l-5.869,3.314l-0.132,-0.143v-0.156c0.555,-2.026 1.441,-3.274 2.65,-3.738l6.55,-3.458L175.632,51.061z" id="path_26"/><path fill="#e21171" d="M155.381,37.616h0.622c1.811,0 3.152,1.597 4.031,4.795l0.152,1.596c0.053,0.519 0.053,1.051 0,1.603c-0.462,1.945 -1.5,3.861 -3.1,5.75c-1.11,0.962 -3.635,1.705 -7.587,2.237c-0.463,-0.212 -0.727,-0.423 -0.773,-0.634c6.609,-3.704 9.914,-5.941 9.914,-6.719l0.152,-0.478l-0.152,-0.157l-1.395,0.479h-0.773c-2.789,0 -4.184,-1.017 -4.184,-3.035v-0.32c0.357,-3.309 1.137,-4.959 2.32,-4.959L155.381,37.616z" id="path_27"/><path fill="#e21171" d="M156.796,24.207c0.285,0.506 0.615,1.944 0.991,4.318c-0.231,1.438 -0.839,2.154 -1.824,2.154h-0.132c-0.43,0 -0.985,-0.286 -1.686,-0.859c-0.476,0.867 -1.176,1.303 -2.088,1.303c-1.11,0 -1.666,-1.391 -1.666,-4.174c0.324,-1.057 0.602,-1.582 0.833,-1.582l0.132,0.143v2.455c0.192,0.854 0.43,1.275 0.701,1.275h0.562c0.582,0 0.951,-0.238 1.124,-0.715l-0.291,-2.156c0.112,-0.723 0.304,-1.104 0.562,-1.139h0.291c0.291,2.395 0.76,3.594 1.388,3.594h0.972v-0.143l-0.423,-2.871v-0.164C156.353,24.685 156.538,24.207 156.796,24.207z" id="path_28"/><path fill="#e21171" d="M159.142,15.416c0.159,-0.096 0.205,0.055 0.139,0.443c-0.879,2.127 -2.227,3.614 -4.044,4.453l-6.682,3.459c-0.284,-0.082 -0.337,-0.321 -0.159,-0.724c0.893,-1.773 1.5,-2.823 1.824,-3.157L159.142,15.416z" id="path_29"/><path fill="#000002" d="M145.084,20.047c0.311,0 0.622,1.07 0.932,3.199l1.395,3.198l-0.621,3.677l0.462,8.955v1.432c-0.205,3.656 -0.72,5.784 -1.546,6.398l-0.152,-0.157l0.152,-2.401c0,-2.154 -0.674,-9.029 -2.016,-20.617C144.337,21.274 144.8,20.047 145.084,20.047z" id="path_30"/><path fill="#203e96" d="M131.879,46.585c2.167,1.119 3.251,2.081 3.251,2.879c-1.031,2.107 -1.652,3.171 -1.857,3.198h-0.31c-1.586,-0.825 -2.571,-1.575 -2.941,-2.236C130.378,49.211 131,47.93 131.879,46.585z" id="path_31"/><path fill="#203e96" d="M123.432,42.35h1.785c1.883,-0.266 4.877,-0.988 8.982,-2.155v-0.163c-3.741,-1.705 -6.114,-2.559 -7.125,-2.559c-1.368,0 -2.293,0.799 -2.789,2.401l-0.462,0.32c-0.205,0 -0.311,-0.163 -0.311,-0.483c0.516,-3.193 1.91,-4.795 4.184,-4.795h0.773c0.958,0 4.21,1.118 9.762,3.355l4.184,0.32l0.304,0.484c-0.073,0.716 -0.694,2.101 -1.857,4.154h-0.462l-0.622,-0.164h-0.773c-8.057,2.455 -12.756,3.73 -14.098,3.84h-1.474V42.35z" id="path_32"/><path fill="#203e96" d="M138.19,53.896c0.159,-0.088 0.205,0.055 0.139,0.443c-0.879,2.129 -2.227,3.615 -4.044,4.454l-6.682,3.458c-0.284,-0.082 -0.337,-0.32 -0.159,-0.716c0.892,-1.773 1.5,-2.824 1.824,-3.158L138.19,53.896z" id="path_33"/><path fill="#000002" d="M107.947,42.35c1.718,0.15 3.179,-0.027 4.395,-0.518l-0.641,-1.201c-0.602,-3.52 -0.331,-5.845 0.813,-6.984c1.15,-1.139 2.386,-1.664 3.701,-1.568c2.558,0.123 3.999,1.508 4.335,4.154v0.961c0,2.21 -0.311,3.595 -0.925,4.154c-0.39,0.416 0.489,0.764 2.631,1.043l0.502,-0.021c0.39,-0.014 0.833,-0.021 1.335,-0.021v4.557l-1.566,0.02c-2.915,-0.014 -5.123,-0.395 -6.623,-1.139c-2.063,0.744 -3.668,1.119 -4.798,1.119h-0.622c-0.773,0 -1.619,0 -2.538,0V42.35L107.947,42.35zM113.426,37.834v0.321c0.647,1.146 1.625,1.944 2.941,2.394c0.879,-0.156 1.758,-0.531 2.637,-1.118c-0.39,-1.493 -1.679,-2.347 -3.873,-2.558C113.994,37.193 113.426,37.514 113.426,37.834z" id="path_34"/><path fill="#000002" d="M114.357,24.248c1.342,0 2.578,0.853 3.714,2.558c-0.952,2.237 -1.679,3.356 -2.167,3.356c-2.089,-1.064 -3.226,-1.76 -3.411,-2.08C112.494,27.072 113.115,25.789 114.357,24.248z" id="path_35"/><path fill="#000002" d="M120.009,13.035c0.159,-0.096 0.205,0.055 0.139,0.443c-0.879,2.128 -2.228,3.615 -4.045,4.454l-6.682,3.458c-0.284,-0.082 -0.337,-0.32 -0.159,-0.723c0.892,-1.773 1.5,-2.824 1.824,-3.158L120.009,13.035z" id="path_36"/><path fill="#D50000" d="M95.375,19.528h0.622c2.042,1.2 3.073,1.896 3.1,2.08c-1.011,2.237 -1.679,3.411 -2.016,3.521c-1.164,0 -2.3,-0.588 -3.411,-1.761C93.882,22.223 94.45,20.939 95.375,19.528z" id="path_37"/><path fill="#D50000" d="M100.795,18.73c0.985,0 2.175,0.695 3.569,2.08c0,0.559 -0.674,1.678 -2.016,3.355c-0.774,0 -1.91,-0.531 -3.411,-1.596C98.938,21.637 99.56,20.354 100.795,18.73z" id="path_38"/><path fill="#D50000" d="M108.429,46.906h-0.04c-2.967,0 -4.983,-1.494 -6.041,-4.475l-0.311,-1.282h-0.311c-0.231,0.853 -1.884,1.384 -4.957,1.603h-0.773c-2.069,0 -3.1,-0.641 -3.1,-1.924V39.39c0,-1.542 1.137,-3.458 3.411,-5.749c1.368,-1.071 2.915,-1.972 4.646,-2.723l-0.159,-0.477c0.569,-2.667 1.038,-3.997 1.395,-3.997c0.185,0.45 0.443,3.759 0.78,9.91c0.462,4.147 2.28,6.159 5.459,6.057V46.906L108.429,46.906zM94.754,37.637c0.596,0.424 1.58,0.635 2.948,0.635c1.342,-0.103 2.578,-0.369 3.714,-0.799l-0.311,-4.475h-0.152C96.823,35.024 94.754,36.566 94.754,37.637z" id="path_39"/><path fill="#f26122" d="M100.782,6.924c1.183,0 1.883,0.813 2.088,2.436v0.443c-0.218,2.715 -1.097,4.488 -2.63,5.313c-2.67,1.732 -5.096,2.599 -7.264,2.599c-0.08,-0.014 -0.152,-0.034 -0.231,-0.062c-0.079,-0.027 -0.139,-0.068 -0.185,-0.123c-0.046,-0.047 -0.04,-0.081 0.013,-0.095c0.112,-0.267 2.062,-1.33 5.843,-3.179v-0.143c-1.018,-0.662 -1.527,-1.576 -1.527,-2.735C97.497,8.404 98.792,6.924 100.782,6.924L100.782,6.924zM98.284,9.939v0.136c0,0.989 0.654,1.569 1.957,1.739h0.403c0.496,0 0.774,-0.144 0.833,-0.437c0,-1.344 -0.694,-2.019 -2.088,-2.019C98.654,9.529 98.284,9.727 98.284,9.939z" id="path_40"/><path fill="#f26122" d="M97.722,4.325c0.298,-0.149 0.437,-0.048 0.423,0.3c-1.494,1.705 -2.67,3.322 -3.523,4.857c-0.244,0.6 -0.383,1.09 -0.416,1.486c-0.033,0.396 0.066,0.818 0.304,1.269h0.291c0.112,-0.669 0.344,-1.003 0.694,-1.003c0.417,0.191 0.647,0.382 0.694,0.58v0.279c0.027,1.521 -0.39,2.436 -1.255,2.742h-0.694c-0.932,-0.191 -1.394,-1.296 -1.394,-3.322C92.845,9.053 94.471,6.658 97.722,4.325z" id="path_41"/><path fill="#203e96" d="M86.222,20.047c0.311,0 0.622,1.07 0.932,3.199l1.395,3.198l-0.621,3.677l0.462,8.955v1.432c-0.205,3.656 -0.72,5.784 -1.546,6.398l-0.152,-0.157l0.152,-2.401c0,-2.154 -0.674,-9.029 -2.016,-20.617C85.475,21.274 85.938,20.047 86.222,20.047z" id="path_42"/><path fill="#203e96" d="M90.849,10.695c0.158,-0.096 0.205,0.055 0.139,0.443c-0.879,2.129 -2.227,3.615 -4.045,4.455l-6.682,3.457c-0.284,-0.082 -0.337,-0.32 -0.159,-0.723c0.893,-1.773 1.5,-2.824 1.824,-3.158L90.849,10.695z" id="path_43"/><path fill="#0a93d2" d="M72.593,46.763c-8.598,0.375 -13.225,-0.034 -13.873,-1.234c-0.654,-1.2 2.32,-1.815 8.916,-1.842c1.302,-0.026 2.128,-0.062 2.479,-0.116c5.241,-0.838 8.44,-1.746 9.603,-2.721v-0.157l-1.705,-4.16v-0.635c0,-2.135 0.258,-3.198 0.773,-3.198c1.447,2.851 2.167,5.088 2.167,6.711v0.32c0,3.704 -1.804,5.838 -5.419,6.398C74.616,46.381 73.638,46.592 72.593,46.763z" id="path_44"/><path fill="#0a93d2" d="M77.451,49.621c0.958,0 2.142,0.695 3.563,2.08v0.32c-0.879,2.346 -1.5,3.52 -1.857,3.52c-1.758,-0.695 -2.842,-1.392 -3.252,-2.08v-0.157C75.905,52.178 76.42,50.957 77.451,49.621z" id="path_45"/><path fill="#0a93d2" d="M76.791,21.391h1.534c1.857,0 2.789,0.716 2.789,2.155c-1.203,3.355 -2.664,5.136 -4.382,5.341l-2.029,0.279c-0.324,0 -0.456,-0.096 -0.41,-0.279c1.639,-0.894 3.172,-1.958 4.594,-3.179c-0.502,-0.484 -1.058,-0.724 -1.666,-0.724h-0.429l-1.666,0.145l-0.132,-0.145v-0.279C75.779,22.496 76.381,21.391 76.791,21.391z" id="path_46"/><path fill="#008146" d="M49.977,42.35h0.602c2.042,-0.225 3.76,-1.5 5.155,-3.819c0.205,-0.478 0.41,-0.743 0.615,-0.798h0.159l0.463,0.484c-0.066,0.607 -0.166,1.037 -0.311,1.275c0.905,1.705 1.989,2.558 3.252,2.558l0.159,0.157c2.247,-5.116 4.771,-7.674 7.587,-7.674c2.247,0 3.899,0.962 4.957,2.879v0.961c0,5.859 -3.51,8.792 -10.536,8.792l-2.32,-0.157c-0.72,2.02 -1.189,3.035 -1.394,3.035l-0.152,-0.156v-0.164l0.463,-2.715v-0.32c-1.527,-0.88 -2.71,-2.107 -3.563,-3.676c-0.8,2.701 -2.512,4.004 -5.135,3.895V42.35L49.977,42.35zM61.616,42.527h0.311c3.509,0 6.503,-0.532 8.982,-1.597c0,-1.146 -1.031,-1.943 -3.093,-2.4h-0.621C64.715,38.53 62.858,39.867 61.616,42.527z" id="path_47"/><path fill="#008146" d="M66.745,22.024c0.159,-0.095 0.205,0.055 0.138,0.443c-0.879,2.128 -2.227,3.614 -4.044,4.454l-6.682,3.458c-0.284,-0.081 -0.337,-0.321 -0.159,-0.724c0.893,-1.773 1.5,-2.823 1.825,-3.157L66.745,22.024z" id="path_48"/><path fill="#008146" d="M50.123,46.906c-3.007,0.184 -5.195,-1.248 -6.563,-4.297c-0.661,-1.133 -1.276,-8.765 -1.857,-22.896v-0.32c0.383,-2.348 0.952,-3.52 1.698,-3.52l0.78,-0.157c0.952,0 2.399,0.321 4.335,0.954v0.321c-0.105,0.32 -0.417,0.483 -0.932,0.483h-2.63c-0.542,0 -1.058,0.314 -1.554,0.955c0.483,12.271 1.184,19.378 2.115,21.321c0.925,1.944 2.465,2.811 4.607,2.599V46.906z" id="path_49"/><path fill="#008146" d="M36.871,38.073c0.925,0.962 1.804,3.035 2.631,6.233l0.158,2.081c0,3.758 -1.811,6.315 -5.426,7.673l-1.084,0.156L30.4,54.258l-2.67,-0.041l-0.152,-0.156v-0.164c0.33,-0.367 2.551,-1.486 6.655,-3.355c2.584,-1.514 3.979,-2.851 4.184,-3.996c-1.341,-2.953 -2.009,-4.658 -2.009,-5.116v-0.478C36.408,39.035 36.56,38.073 36.871,38.073z" id="path_50"/><path fill="#008146" d="M36.732,24.48c1.586,0 2.379,1.01 2.379,3.021c0,3.205 -2.65,5.939 -7.958,8.191c-0.76,0.238 -0.852,-0.049 -0.271,-0.859c0.145,-0.308 1.395,-1.27 3.754,-2.879v-0.137c-1.018,-0.43 -1.527,-1.344 -1.527,-2.741c0.674,-3.063 1.745,-4.597 3.212,-4.597H36.732L36.732,24.48zM34.366,27.938c0,0.853 0.701,1.378 2.095,1.582h0.271c0.516,0 0.846,-0.198 0.985,-0.579c0,-0.867 -0.608,-1.543 -1.818,-2.02C35.37,26.922 34.861,27.263 34.366,27.938z" id="path_51"/><path fill="#000002" d="M15,42.35c1.527,-0.197 2.287,-0.504 2.287,-0.921c0,-3.171 0.932,-7.005 2.789,-11.506c0.258,-0.587 0.516,-0.642 0.773,-0.163c0.674,1.493 1.857,2.721 3.563,3.676c3.516,1.76 5.268,4.16 5.268,7.195c0,3.172 -0.667,4.986 -2.016,5.436l-1.546,0.157l-5.889,-0.32c-1.639,0.723 -3.377,1.058 -5.228,1.003V42.35L15,42.35zM23.797,41.593l3.866,0.157l0.621,-0.157c-0.952,-1.364 -2.194,-2.429 -3.714,-3.198C24.287,38.395 24.029,39.457 23.797,41.593L23.797,41.593zM18.682,39.512c0,1.01 0.773,1.651 2.327,1.917c1.342,-0.771 2.009,-1.568 2.009,-2.394c-0.463,-1.924 -1.236,-2.879 -2.32,-2.879C19.587,36.156 18.913,37.275 18.682,39.512z" id="path_52"/><path fill="#000002" d="M26.851,17.953c0.159,-0.096 0.205,0.055 0.139,0.443c-0.879,2.128 -2.227,3.615 -4.044,4.453l-6.682,3.459c-0.284,-0.082 -0.337,-0.321 -0.159,-0.724c0.893,-1.773 1.5,-2.823 1.825,-3.157L26.851,17.953z" id="path_53"/><path fill="#D50000" d="M15.331,46.906c-3.007,0.184 -5.195,-1.248 -6.563,-4.297c-0.661,-1.133 -1.276,-8.765 -1.857,-22.896v-0.32c0.383,-2.348 0.952,-3.52 1.698,-3.52l0.78,-0.157c0.952,0 2.399,0.321 4.336,0.954v0.321c-0.106,0.32 -0.417,0.483 -0.932,0.483h-2.631c-0.542,0 -1.057,0.314 -1.553,0.955C9.092,30.7 9.792,37.808 10.725,39.751c0.925,1.944 2.465,2.811 4.606,2.599V46.906z" id="path_54"/></svg>