<svg id="vector" xmlns="http://www.w3.org/2000/svg" width="300" height="67" viewBox="0 0 299.739 66.967"><path fill="#000002" d="M179.653,14.881c0.589,0 1.633,0.765 3.126,2.299c0,0.51 -0.564,1.634 -1.706,3.364h-0.285c-0.595,0 -1.493,-0.607 -2.702,-1.836v-0.149C178.086,17.944 178.608,16.723 179.653,14.881z" id="path_0"/><path fill="#000002" d="M184.771,14.116c2.374,1.098 3.558,1.967 3.558,2.606c-0.14,0.483 -0.801,1.555 -1.991,3.214c-1.591,-0.666 -2.726,-1.431 -3.412,-2.299C183.423,15.926 184.036,14.757 184.771,14.116z" id="path_1"/><path fill="#000002" d="M181.947,34.307c0.115,0 0.292,0 0.535,0h0.601c1.518,0 2.489,-0.411 2.92,-1.228v-0.308c-0.716,-2.678 -1.761,-5.114 -3.133,-7.309c0.165,-2.346 0.401,-3.521 0.71,-3.521c0.832,0.718 1.924,3.266 3.272,7.654l0.146,1.993v1.378c-0.456,3.775 -1.803,5.663 -4.055,5.663h-0.461c-0.255,0 -0.431,0.013 -0.535,0.039V34.307z" id="path_2"/><path fill="#000002" d="M183.884,1.889c1.457,0 2.186,0.967 2.186,2.894c0,3.07 -2.435,5.689 -7.31,7.846c-0.698,0.229 -0.783,-0.046 -0.249,-0.823c0.133,-0.294 1.281,-1.215 3.448,-2.757V8.917c-0.935,-0.411 -1.402,-1.286 -1.402,-2.625c0.619,-2.934 1.603,-4.403 2.95,-4.403H183.884L183.884,1.889zM181.711,5.201c0,0.816 0.644,1.319 1.924,1.515h0.249c0.474,0 0.777,-0.188 0.904,-0.555c0,-0.83 -0.559,-1.477 -1.669,-1.934C182.634,4.228 182.166,4.554 181.711,5.201z" id="path_3"/><path fill="#203e96" d="M182.3,38.631c-0.225,0 -0.498,0 -0.82,0c-1.269,-0.014 -2.635,-1.039 -4.11,-3.083c-0.564,2.247 -1.56,3.37 -2.987,3.37h-0.14c-1.208,0 -2.204,-0.764 -2.987,-2.299h-0.146c-0.85,1.842 -1.882,2.678 -3.096,2.508c-2.252,0.014 -3.588,-1.13 -4.019,-3.422c-1.584,1.998 -3.291,2.978 -5.105,2.926h-0.231v-4.363h0.073c2.872,-0.104 5.002,-1.156 6.405,-3.155c0.188,0 0.285,0.15 0.285,0.458l-0.146,1.07c0.759,1.634 1.754,2.45 2.987,2.45c1.166,0 2.349,-1.222 3.557,-3.671h0.146l0.425,0.457v1.071c0,0.967 0.668,1.528 1.991,1.685h0.286c1.232,0 2.374,-1.325 3.417,-3.984h0.14c0.188,0 0.286,0.464 0.286,1.379c0.521,1.548 1.785,2.292 3.788,2.24V38.631z" id="path_4"/><path fill="#203e96" d="M170.614,16.547h1.408c1.706,0 2.562,0.686 2.562,2.063c-1.105,3.214 -2.447,4.919 -4.025,5.114l-1.864,0.268c-0.297,0 -0.419,-0.091 -0.376,-0.268c1.505,-0.855 2.914,-1.874 4.219,-3.044c-0.461,-0.463 -0.972,-0.692 -1.53,-0.692h-0.395l-1.53,0.138l-0.122,-0.138v-0.268C169.685,17.604 170.237,16.547 170.614,16.547z" id="path_5"/><path fill="#008146" d="M146.537,17.029h0.14l2.993,1.679v0.308c0,0.372 -0.571,1.548 -1.712,3.521c-1.742,-0.535 -2.738,-1.097 -2.986,-1.686L146.537,17.029z" id="path_6"/><path fill="#008146" d="M151.8,16.109c1.256,0.712 2.252,1.43 2.987,2.142c-0.213,1.098 -0.875,2.273 -1.991,3.521h-0.14c-1.305,-0.588 -2.21,-1.248 -2.708,-1.993v-0.3C150.805,17.232 151.424,16.109 151.8,16.109z" id="path_7"/><path fill="#008146" d="M150.149,43.092c-0.109,-0.372 -1.627,-0.666 -4.553,-0.882c-0.486,0 -0.723,-0.202 -0.716,-0.613v-1.686c0,-2.345 0.522,-3.926 1.566,-4.742l1.427,-0.765v-0.156c-0.358,-0.471 -0.692,-1.542 -0.996,-3.214c-0.109,-2.194 0.17,-3.729 0.844,-4.611c0.667,-0.882 1.669,-1.385 2.993,-1.509h0.285c2.101,0.444 3.296,1.339 3.594,2.678c0.298,1.339 0.286,2.64 -0.036,3.899l-0.85,2.45l2.987,0.268l2.543,-0.02v4.383h-3.539c-1.828,-0.026 -3.867,-0.804 -6.12,-2.332c-0.649,0 -1.651,0.457 -2.987,1.378v0.15c3.321,0 5.027,0.816 5.118,2.449v0.157c-0.079,0.94 -0.249,1.849 -0.498,2.717H150.149L150.149,43.092zM148.297,30.27c1.378,1.836 2.374,2.757 2.987,2.757c1.426,-0.386 2.137,-0.79 2.137,-1.228c-0.595,-1.529 -1.73,-2.293 -3.418,-2.293h-0.14C148.819,29.656 148.297,29.911 148.297,30.27z" id="path_8"/><path fill="#000002" d="M151.569,42.667c-0.571,2.13 -2.301,4.481 -5.196,7.042c-1.743,1.333 -3.782,1.992 -6.114,1.992c-1.305,-0.32 -2.24,-0.641 -2.804,-0.954c-0.564,-0.319 -1.239,-1.025 -2.034,-2.109c-1.427,-2.038 -2.137,-3.926 -2.137,-5.663c0,-4.135 1.232,-7.446 3.703,-9.948c0.437,-0.333 0.625,-0.28 0.564,0.15c0,0.372 -0.71,1.803 -2.13,4.285c-0.571,1.241 -0.856,2.416 -0.856,3.521c0,1.587 1.044,3.318 3.132,5.206c1.481,0.882 3.09,1.24 4.838,1.07c2.058,0 4.62,-1.528 7.68,-4.592H151.569z" id="path_9"/><path fill="#D50000" d="M118.681,36.41c0.195,0 0.395,0 0.607,0h0.146c1.773,-0.118 3.388,-1.705 4.833,-4.762c1.566,-2.555 3.181,-3.828 4.838,-3.828c2.088,0 3.132,1.424 3.132,4.285v0.764c0,1.405 -0.522,3.24 -1.566,5.514l-0.995,0.764c-0.88,0 -2.914,-0.666 -6.12,-1.992c-0.971,1.567 -1.73,2.521 -2.276,2.854c-0.832,0.621 -1.682,0.882 -2.562,0.765h-0.037V36.41L118.681,36.41zM125.833,33.177v0.15c2.465,1.025 3.94,1.534 4.413,1.534c0.188,0 0.286,-0.156 0.286,-0.463c-0.547,-1.529 -1.451,-2.293 -2.708,-2.293C126.949,32.105 126.282,32.465 125.833,33.177z" id="path_10"/><path fill="#D50000" d="M130.258,43.105c0.146,-0.085 0.188,0.052 0.127,0.424c-0.807,2.038 -2.046,3.462 -3.715,4.266l-6.138,3.312c-0.261,-0.078 -0.309,-0.307 -0.146,-0.686c0.819,-1.698 1.378,-2.704 1.676,-3.024L130.258,43.105z" id="path_11"/><path fill="#000002" d="M106.448,36.697c1.402,0.483 2.489,1.098 3.272,1.836v0.307c0,0.51 -0.522,1.633 -1.566,3.37c-0.971,0 -2.058,-0.562 -3.272,-1.685v-0.308C104.882,39.121 105.404,37.951 106.448,36.697z" id="path_12"/><path fill="#000002" d="M118.99,40.715c-1.293,0 -2.294,-0.216 -3.011,-0.647c-0.353,3.318 -1.014,5.611 -1.991,6.892c-2.344,3.161 -4.766,4.742 -7.254,4.742c-4.578,0 -7.564,-2.143 -8.967,-6.428c-0.279,-0.816 -0.425,-1.685 -0.425,-2.606v-1.221c0,-3.626 1.044,-6.479 3.132,-8.576c0.376,0.156 0.57,0.509 0.57,1.071l-2.276,4.441l-0.146,1.528c0,3.449 1.754,5.846 5.263,7.198l3.703,0.307c1.561,0 3.509,-0.973 5.834,-2.906c0.85,-1.483 1.281,-2.555 1.281,-3.221c-0.097,-1.019 -0.716,-2.495 -1.852,-4.435v-3.221l0.425,-0.457c1.032,2.233 2.938,3.312 5.712,3.233V40.715z" id="path_13"/><path fill="#000002" d="M106.412,19.303h1.409c1.706,0 2.562,0.687 2.562,2.064c-1.105,3.214 -2.447,4.919 -4.025,5.114l-1.864,0.268c-0.297,0 -0.418,-0.091 -0.376,-0.268c1.505,-0.855 2.914,-1.875 4.219,-3.044c-0.461,-0.464 -0.971,-0.692 -1.53,-0.692h-0.395l-1.53,0.138l-0.122,-0.138v-0.268C105.483,20.361 106.036,19.303 106.412,19.303z" id="path_14"/><path fill="#D50000" d="M82.547,41.368c0.207,0.025 0.407,-0.092 0.607,-0.347c-0.376,-0.496 -0.571,-1.013 -0.571,-1.548v-1.378c0.456,-4.487 2.113,-6.734 4.984,-6.734c1.445,0 3.011,0.816 4.692,2.449c0.62,0.255 0.947,0.51 0.996,0.764v0.15c0,0.235 -0.236,0.386 -0.71,0.464c0,-0.438 -1.232,-0.79 -3.697,-1.071h-0.57c-2.659,0.432 -3.983,1.195 -3.983,2.293c0,1.509 1.373,2.632 4.122,3.37l0.996,0.15c0.358,0 2.162,-0.967 5.41,-2.906h0.139l0.286,0.307c0,2.116 -2.18,4.415 -6.544,6.892c-3.108,1.019 -5.002,1.528 -5.688,1.528c-0.158,0 -0.31,-0.007 -0.467,-0.02V41.368z" id="path_15"/><path fill="#D50000" d="M92.74,18.421c0.146,-0.092 0.188,0.053 0.127,0.425c-0.808,2.038 -2.046,3.462 -3.715,4.266l-6.138,3.312c-0.261,-0.078 -0.31,-0.308 -0.146,-0.692c0.82,-1.698 1.378,-2.704 1.676,-3.024L92.74,18.421z" id="path_16"/><path fill="#203e96" d="M71.17,48.526h0.57c1.87,1.144 2.817,1.81 2.841,1.985c-0.923,2.143 -1.542,3.267 -1.845,3.371c-1.068,0 -2.113,-0.562 -3.133,-1.686C69.792,51.101 70.314,49.879 71.17,48.526z" id="path_17"/><path fill="#203e96" d="M76.148,47.756c0.904,0 1.991,0.666 3.272,1.992c0,0.535 -0.613,1.607 -1.852,3.214c-0.71,0 -1.754,-0.51 -3.126,-1.528C74.442,50.538 75.013,49.317 76.148,47.756z" id="path_18"/><path fill="#203e96" d="M70.849,36.292h0.037c1.657,0 2.987,-0.607 3.982,-1.835l-0.14,-1.222c0,-1.509 0.285,-2.73 0.85,-3.678c0.261,0 0.643,2.606 1.141,7.806c0.57,2.81 2.556,4.108 5.956,3.906v4.363c-3.321,0.255 -5.634,-1.378 -6.951,-4.898c-0.213,-2.45 -0.449,-3.671 -0.71,-3.671c-0.559,2.318 -1.949,3.54 -4.165,3.651V36.292z" id="path_19"/><path fill="#203e96" d="M75.809,18.212h1.409c1.706,0 2.562,0.686 2.562,2.064c-1.105,3.213 -2.447,4.918 -4.025,5.114l-1.864,0.268c-0.297,0 -0.419,-0.092 -0.376,-0.268c1.505,-0.855 2.914,-1.875 4.219,-3.044c-0.461,-0.464 -0.972,-0.692 -1.53,-0.692h-0.395l-1.53,0.137l-0.122,-0.137v-0.268C74.88,19.271 75.433,18.212 75.809,18.212z" id="path_20"/><path fill="#000002" d="M58.665,36.697c1.402,0.483 2.489,1.098 3.272,1.836v0.307c0,0.51 -0.521,1.633 -1.566,3.37c-0.971,0 -2.058,-0.562 -3.272,-1.685v-0.308C57.099,39.121 57.621,37.951 58.665,36.697z" id="path_21"/><path fill="#000002" d="M71.207,40.715c-1.293,0 -2.295,-0.216 -3.011,-0.647c-0.353,3.318 -1.014,5.611 -1.991,6.892c-2.343,3.161 -4.766,4.742 -7.254,4.742c-4.578,0 -7.564,-2.143 -8.967,-6.428c-0.279,-0.816 -0.425,-1.685 -0.425,-2.606v-1.221c0,-3.626 1.044,-6.479 3.132,-8.576c0.376,0.156 0.571,0.509 0.571,1.071l-2.277,4.441l-0.146,1.528c0,3.449 1.754,5.846 5.263,7.198l3.703,0.307c1.561,0 3.509,-0.973 5.834,-2.906c0.851,-1.483 1.281,-2.555 1.281,-3.221c-0.097,-1.019 -0.716,-2.495 -1.852,-4.435v-3.221l0.425,-0.457c1.032,2.233 2.938,3.312 5.713,3.233V40.715z" id="path_22"/><path fill="#000002" d="M64.493,57.364l0.146,0.137v0.418c-0.734,1.698 -1.76,2.888 -3.078,3.58c-4.08,2.384 -6.344,3.579 -6.793,3.579c-0.164,0 -0.249,-0.144 -0.249,-0.424c0.389,-1.62 1.244,-2.718 2.562,-3.293l7.291,-3.997H64.493z" id="path_23"/><path fill="#000002" d="M63.479,53.922c0.17,0 0.25,0.131 0.25,0.398c-0.474,1.482 -1.876,2.815 -4.213,4.004l-5.391,3.175l-0.122,-0.138v-0.149c0.51,-1.94 1.323,-3.136 2.434,-3.58l6.017,-3.312L63.479,53.922z" id="path_24"/><path fill="#D50000" d="M43.958,18.938c0.285,0 0.571,1.025 0.855,3.063l1.281,3.063l-0.571,3.521l0.425,8.576v1.372c-0.188,3.501 -0.662,5.539 -1.42,6.126l-0.14,-0.149l0.14,-2.3c0,-2.063 -0.619,-8.648 -1.852,-19.745C43.272,20.113 43.697,18.938 43.958,18.938z" id="path_25"/><path fill="#000002" d="M36.239,22.653c1.402,0.484 2.495,1.098 3.272,1.836v0.307c0,0.51 -0.516,1.633 -1.56,3.371c-0.971,0 -2.064,-0.563 -3.272,-1.686v-0.307C34.679,25.077 35.201,23.901 36.239,22.653z" id="path_26"/><path fill="#000002" d="M32.184,40.297c3.728,0.039 5.81,-0.712 6.265,-2.261c0,-0.535 -0.473,-1.861 -1.426,-3.978l0.431,-3.979h0.279c1.238,2.293 1.852,4.593 1.852,6.885v1.379c0,0.921 -0.207,1.888 -0.613,2.899c-0.407,1.013 -1.038,1.868 -1.882,2.555c-0.85,0.692 -2.483,0.979 -4.905,0.861V40.297z" id="path_27"/><path fill="#000002" d="M42.182,46.587c0.146,-0.085 0.188,0.052 0.127,0.425c-0.807,2.037 -2.045,3.462 -3.715,4.265l-6.138,3.312c-0.261,-0.078 -0.31,-0.307 -0.146,-0.686c0.819,-1.698 1.378,-2.704 1.675,-3.024L42.182,46.587z" id="path_28"/><path fill="#203e96" d="M22.695,47.416c0.589,0 1.633,0.765 3.126,2.293c0,0.516 -0.564,1.633 -1.706,3.37H23.83c-0.595,0 -1.493,-0.613 -2.701,-1.835v-0.157C21.129,50.479 21.651,49.251 22.695,47.416z" id="path_29"/><path fill="#203e96" d="M27.813,46.652c2.374,1.097 3.558,1.959 3.558,2.599c-0.14,0.484 -0.801,1.556 -1.991,3.215c-1.59,-0.66 -2.726,-1.424 -3.412,-2.293C26.465,48.462 27.078,47.285 27.813,46.652z" id="path_30"/><path fill="#203e96" d="M20.182,40.297c1.014,0.013 1.639,-0.007 1.888,-0.06c2.137,-0.698 3.594,-2.188 4.377,-4.454c0.115,-0.438 0.352,-0.49 0.71,-0.157c0.188,0.177 0.333,0.896 0.425,2.143c1.293,1.875 2.908,2.718 4.838,2.528h0.376v4.362h-0.091c-3.023,-0.149 -5.251,-1.633 -6.69,-4.441h-0.14c-1.008,2.286 -2.337,3.69 -3.982,4.214c-0.498,0.149 -1.068,0.228 -1.712,0.228V40.297z" id="path_31"/><path fill="#000002" d="M8.55,18.44h0.571c1.876,1.15 2.823,1.816 2.847,1.992c-0.929,2.143 -1.542,3.267 -1.852,3.371c-1.069,0 -2.113,-0.563 -3.132,-1.686C7.178,21.021 7.7,19.793 8.55,18.44z" id="path_32"/><path fill="#000002" d="M13.528,17.677c0.905,0 1.998,0.666 3.278,1.992c0,0.535 -0.619,1.606 -1.852,3.214c-0.71,0 -1.754,-0.51 -3.132,-1.528C11.822,20.459 12.393,19.231 13.528,17.677z" id="path_33"/><path fill="#000002" d="M20.54,44.659h-0.037c-2.726,0 -4.577,-1.43 -5.548,-4.284l-0.285,-1.229h-0.286c-0.212,0.816 -1.73,1.326 -4.553,1.535h-0.71c-1.9,0 -2.847,-0.614 -2.847,-1.842v-1.378c0,-1.477 1.044,-3.313 3.132,-5.507c1.257,-1.025 2.677,-1.888 4.268,-2.605l-0.146,-0.458c0.522,-2.554 0.953,-3.827 1.281,-3.827c0.17,0.431 0.407,3.599 0.716,9.49c0.425,3.972 2.094,5.898 5.015,5.801V44.659L20.54,44.659zM7.979,35.783c0.547,0.405 1.451,0.607 2.708,0.607c1.232,-0.099 2.368,-0.353 3.412,-0.765l-0.286,-4.285h-0.14C9.879,33.281 7.979,34.758 7.979,35.783z" id="path_34"/><path fill="#f26122" d="M17.316,49.251l0.146,0.138v0.418c-0.735,1.698 -1.761,2.888 -3.078,3.58c-4.079,2.384 -6.344,3.579 -6.793,3.579c-0.164,0 -0.249,-0.144 -0.249,-0.425c0.389,-1.62 1.245,-2.717 2.562,-3.292l7.291,-3.998H17.316z" id="path_35"/><path fill="#f26122" d="M16.302,45.81c0.17,0 0.249,0.131 0.249,0.398c-0.474,1.482 -1.876,2.815 -4.213,4.004l-5.391,3.175l-0.121,-0.138v-0.15c0.51,-1.939 1.323,-3.135 2.434,-3.579l6.016,-3.312L16.302,45.81z" id="path_36"/><path fill="#008146" d="M140.156,9.485c1.142,2.09 1.712,4.135 1.712,6.121c-0.498,3.775 -1.117,5.662 -1.852,5.662l-0.14,-0.149v-0.15l0.279,-1.992v-0.157c0,-1.221 -0.473,-3.057 -1.42,-5.507v-0.307C139.209,10.654 139.683,9.485 140.156,9.485z" id="path_37"/><path fill="#D50000" d="M45.178,6.351c1.142,2.09 1.712,4.135 1.712,6.12c-0.497,3.775 -1.117,5.663 -1.851,5.663l-0.14,-0.15v-0.15l0.279,-1.992v-0.156c0,-1.222 -0.474,-3.057 -1.42,-5.507V9.871C44.231,7.52 44.704,6.351 45.178,6.351z" id="path_38"/><path fill="#000002" d="M287.549,22.653c1.402,0.484 2.495,1.098 3.272,1.836v0.307c0,0.51 -0.517,1.633 -1.561,3.371c-0.971,0 -2.064,-0.563 -3.272,-1.686v-0.307C285.989,25.077 286.512,23.901 287.549,22.653z" id="path_39"/><path fill="#000002" d="M283.494,40.297c3.728,0.039 5.81,-0.712 6.265,-2.261c0,-0.535 -0.474,-1.861 -1.427,-3.978l0.431,-3.979h0.279c1.238,2.293 1.852,4.593 1.852,6.885v1.379c0,0.921 -0.207,1.888 -0.613,2.899c-0.407,1.013 -1.038,1.868 -1.882,2.555c-0.85,0.692 -2.483,0.979 -4.905,0.861V40.297z" id="path_40"/><path fill="#000002" d="M293.311,13.372c0.146,-0.092 0.188,0.052 0.127,0.425c-0.807,2.038 -2.045,3.462 -3.715,4.265l-6.137,3.313c-0.261,-0.079 -0.31,-0.308 -0.146,-0.692c0.82,-1.699 1.378,-2.704 1.676,-3.024L293.311,13.372z" id="path_41"/><path fill="#203e96" d="M283.798,44.659c-2.762,0.177 -4.772,-1.195 -6.028,-4.114c-0.607,-1.085 -1.172,-8.394 -1.706,-21.928v-0.307c0.352,-2.247 0.874,-3.371 1.56,-3.371l0.716,-0.149c0.875,0 2.204,0.307 3.982,0.914v0.307c-0.097,0.307 -0.382,0.464 -0.855,0.464h-2.417c-0.498,0 -0.971,0.301 -1.426,0.914c0.443,11.751 1.086,18.558 1.942,20.419c0.85,1.862 2.265,2.691 4.231,2.489V44.659z" id="path_42"/><path fill="#008146" d="M270.682,36.201c0.85,0.921 1.657,2.906 2.417,5.97l0.146,1.992c0,3.6 -1.664,6.049 -4.984,7.349l-0.996,0.15l-2.525,0.039l-2.453,-0.039l-0.14,-0.15v-0.156c0.303,-0.354 2.343,-1.425 6.113,-3.214c2.374,-1.45 3.655,-2.73 3.843,-3.828c-1.232,-2.828 -1.846,-4.461 -1.846,-4.898v-0.458C270.257,37.122 270.396,36.201 270.682,36.201z" id="path_43"/><path fill="#008146" d="M274.288,26.286l0.146,0.137v0.418c-0.741,1.698 -1.767,2.887 -3.078,3.579c-4.08,2.385 -6.344,3.58 -6.793,3.58c-0.17,0 -0.255,-0.144 -0.255,-0.425c0.395,-1.62 1.25,-2.717 2.562,-3.292l7.297,-3.997H274.288z" id="path_44"/><path fill="#008146" d="M273.274,22.843c0.164,0 0.249,0.131 0.249,0.398c-0.474,1.483 -1.876,2.815 -4.213,4.005l-5.391,3.174l-0.122,-0.137v-0.15c0.51,-1.94 1.317,-3.136 2.435,-3.579l6.01,-3.313L273.274,22.843z" id="path_45"/><path fill="#008146" d="M258.74,18.938c0.285,0 0.571,1.025 0.856,3.063l1.281,3.063l-0.57,3.521l0.425,8.576v1.372c-0.188,3.501 -0.662,5.539 -1.42,6.126l-0.14,-0.149l0.14,-2.3c0,-2.063 -0.619,-8.648 -1.852,-19.745C258.055,20.113 258.479,18.938 258.74,18.938z" id="path_46"/><path fill="#D50000" d="M238.686,40.297h1.639c1.73,-0.255 4.48,-0.947 8.25,-2.064v-0.157c-3.437,-1.633 -5.616,-2.449 -6.544,-2.449c-1.257,0 -2.107,0.765 -2.562,2.3l-0.425,0.307c-0.188,0 -0.286,-0.157 -0.286,-0.464c0.474,-3.057 1.755,-4.592 3.843,-4.592h0.71c0.881,0 3.867,1.071 8.967,3.214l3.843,0.307l0.279,0.464c-0.066,0.686 -0.637,2.012 -1.706,3.978h-0.425l-0.571,-0.156h-0.71c-7.4,2.352 -11.717,3.573 -12.949,3.677h-1.354V40.297z" id="path_47"/><path fill="#D50000" d="M252.29,20.335c0.146,-0.092 0.188,0.052 0.127,0.425c-0.808,2.037 -2.046,3.462 -3.715,4.265l-6.138,3.312c-0.261,-0.078 -0.31,-0.307 -0.146,-0.691c0.819,-1.699 1.378,-2.705 1.675,-3.024L252.29,20.335z" id="path_48"/><path fill="#000002" d="M238.989,44.659c-2.762,0.177 -4.771,-1.195 -6.028,-4.114c-0.607,-1.085 -1.171,-8.394 -1.706,-21.928v-0.307c0.352,-2.247 0.874,-3.371 1.56,-3.371l0.716,-0.149c0.874,0 2.204,0.307 3.982,0.914v0.307c-0.097,0.307 -0.383,0.464 -0.855,0.464h-2.417c-0.498,0 -0.971,0.301 -1.427,0.914c0.443,11.751 1.086,18.558 1.943,20.419c0.85,1.862 2.264,2.691 4.231,2.489V44.659z" id="path_49"/><path fill="#D50000" d="M216.266,40.297c0.194,0 0.395,0 0.607,0h0.146c1.772,-0.118 3.387,-1.705 4.832,-4.763c1.566,-2.554 3.181,-3.827 4.838,-3.827c2.089,0 3.132,1.424 3.132,4.285v0.764c0,1.405 -0.521,3.24 -1.566,5.513l-0.996,0.765c-0.88,0 -2.914,-0.666 -6.12,-1.992c-0.971,1.567 -1.73,2.521 -2.276,2.854c-0.832,0.62 -1.682,0.882 -2.562,0.764h-0.037V40.297L216.266,40.297zM223.417,37.063v0.149c2.465,1.026 3.939,1.535 4.414,1.535c0.188,0 0.285,-0.156 0.285,-0.463c-0.546,-1.529 -1.451,-2.293 -2.708,-2.293C224.534,35.992 223.866,36.352 223.417,37.063z" id="path_50"/><path fill="#D50000" d="M227.502,46.991c0.146,-0.085 0.188,0.053 0.128,0.425c-0.808,2.038 -2.046,3.462 -3.715,4.266l-6.138,3.312c-0.261,-0.078 -0.31,-0.307 -0.146,-0.686c0.82,-1.698 1.378,-2.704 1.676,-3.024L227.502,46.991z" id="path_51"/><path fill="#000002" d="M206.438,47.416c0.589,0 1.633,0.765 3.126,2.293c0,0.516 -0.564,1.633 -1.706,3.37h-0.285c-0.595,0 -1.494,-0.613 -2.702,-1.835v-0.157C204.871,50.479 205.393,49.251 206.438,47.416z" id="path_52"/><path fill="#000002" d="M211.555,46.652c2.374,1.097 3.557,1.959 3.557,2.599c-0.139,0.484 -0.801,1.556 -1.991,3.215c-1.591,-0.66 -2.726,-1.424 -3.412,-2.293C210.208,48.462 210.82,47.285 211.555,46.652z" id="path_53"/><path fill="#000002" d="M203.924,40.297c1.014,0.013 1.639,-0.007 1.888,-0.06c2.137,-0.698 3.594,-2.188 4.377,-4.454c0.115,-0.438 0.352,-0.49 0.71,-0.157c0.188,0.177 0.334,0.896 0.425,2.143c1.293,1.875 2.908,2.718 4.838,2.528h0.376v4.362h-0.091c-3.023,-0.149 -5.251,-1.633 -6.69,-4.441h-0.14c-1.008,2.286 -2.337,3.69 -3.982,4.214c-0.498,0.149 -1.068,0.228 -1.712,0.228V40.297z" id="path_54"/><path fill="#000002" d="M214.918,22.04c0.146,-0.092 0.188,0.052 0.127,0.425c-0.807,2.037 -2.045,3.461 -3.715,4.265l-6.138,3.312c-0.261,-0.078 -0.309,-0.307 -0.146,-0.691c0.82,-1.699 1.378,-2.705 1.676,-3.025L214.918,22.04z" id="path_55"/><path fill="#203e96" d="M192.292,18.44h0.571c1.876,1.15 2.823,1.816 2.847,1.992c-0.929,2.143 -1.542,3.267 -1.852,3.371c-1.068,0 -2.112,-0.563 -3.132,-1.686C190.92,21.021 191.442,19.793 192.292,18.44z" id="path_56"/><path fill="#203e96" d="M197.27,17.677c0.905,0 1.998,0.666 3.279,1.992c0,0.535 -0.62,1.606 -1.852,3.214c-0.71,0 -1.754,-0.51 -3.132,-1.528C195.564,20.459 196.135,19.231 197.27,17.677z" id="path_57"/><path fill="#203e96" d="M204.282,44.659h-0.037c-2.726,0 -4.578,-1.43 -5.549,-4.284l-0.285,-1.229h-0.286c-0.212,0.816 -1.73,1.326 -4.553,1.535h-0.71c-1.9,0 -2.847,-0.614 -2.847,-1.842v-1.378c0,-1.477 1.044,-3.313 3.132,-5.507c1.257,-1.025 2.677,-1.888 4.268,-2.605l-0.146,-0.458c0.522,-2.554 0.953,-3.827 1.281,-3.827c0.17,0.431 0.407,3.599 0.717,9.49c0.425,3.972 2.094,5.898 5.015,5.801V44.659L204.282,44.659zM191.722,35.783c0.546,0.405 1.451,0.607 2.708,0.607c1.232,-0.099 2.368,-0.353 3.412,-0.765l-0.285,-4.285h-0.14C193.622,33.281 191.722,34.758 191.722,35.783z" id="path_58"/><path fill="#f26122" d="M199.978,8.989l0.146,0.137v0.418c-0.741,1.698 -1.767,2.888 -3.078,3.58c-4.08,2.384 -6.344,3.579 -6.793,3.579c-0.17,0 -0.255,-0.144 -0.255,-0.425c0.395,-1.619 1.25,-2.717 2.562,-3.292l7.297,-3.997H199.978z" id="path_59"/><path fill="#f26122" d="M198.964,5.547c0.164,0 0.249,0.131 0.249,0.398c-0.474,1.482 -1.875,2.815 -4.213,4.004l-5.391,3.175l-0.122,-0.138v-0.149c0.51,-1.94 1.317,-3.136 2.435,-3.58l6.01,-3.312L198.964,5.547z" id="path_60"/><path fill="#000002" d="M262.074,8.244h0.125c0.149,0 0.512,1.031 1.086,3.09l0.063,0.272c0,1.613 -0.362,2.782 -1.083,3.503c-1.021,1.188 -2.232,1.783 -3.637,1.783c-1.148,-0.275 -1.892,-0.548 -2.232,-0.823c-1.108,-1.019 -1.661,-2.278 -1.661,-3.774c0,-1.26 0.512,-2.449 1.533,-3.57l0.063,-0.067h0.128l0.127,0.135c0,0.117 -0.296,0.617 -0.893,1.511c-0.172,0.319 -0.278,0.756 -0.319,1.304c0,1.066 0.509,1.979 1.53,2.747c0.999,0.413 1.68,0.618 2.042,0.618c0.915,0 1.998,-0.437 3.253,-1.304c0.512,-0.483 0.768,-0.779 0.768,-0.894l-0.893,-2.677l-0.065,-0.479L262.074,8.244L262.074,8.244zM258.69,9.618c-0.201,0.228 -0.436,0.755 -0.699,1.578c0,0.284 0.552,0.63 1.658,1.028c0.468,-0.595 0.724,-1.075 0.765,-1.441v-0.138c-0.468,-0.536 -0.999,-0.882 -1.595,-1.027H258.69z" id="path_61"/><path fill="#000002" d="M52.34,51.106h0.125c0.149,0 0.512,1.031 1.086,3.09l0.063,0.272c0,1.614 -0.362,2.782 -1.083,3.503c-1.021,1.189 -2.232,1.784 -3.637,1.784c-1.149,-0.275 -1.892,-0.548 -2.232,-0.823c-1.108,-1.02 -1.661,-2.278 -1.661,-3.775c0,-1.26 0.512,-2.448 1.533,-3.57l0.063,-0.067h0.128l0.128,0.135c0,0.117 -0.297,0.618 -0.893,1.512c-0.171,0.319 -0.277,0.755 -0.318,1.303c0,1.066 0.509,1.98 1.53,2.747c0.999,0.413 1.68,0.618 2.042,0.618c0.915,0 1.998,-0.437 3.253,-1.303c0.512,-0.483 0.768,-0.779 0.768,-0.894l-0.893,-2.677l-0.065,-0.48L52.34,51.106L52.34,51.106zM48.956,52.48c-0.201,0.229 -0.436,0.756 -0.699,1.578c0,0.284 0.552,0.63 1.658,1.028c0.468,-0.595 0.724,-1.075 0.765,-1.44v-0.139c-0.468,-0.535 -0.999,-0.881 -1.595,-1.027H48.956z" id="path_62"/><path fill="#203e96" d="M30.727,20.452c0.146,-0.085 0.188,0.053 0.127,0.425c-0.807,2.038 -2.046,3.462 -3.715,4.266l-6.138,3.312c-0.261,-0.078 -0.31,-0.307 -0.146,-0.686c0.82,-1.698 1.378,-2.704 1.676,-3.024L30.727,20.452z" id="path_63"/></svg>