<svg id="vector" xmlns="http://www.w3.org/2000/svg" width="99" height="67" viewBox="0 0 99.178 67"><path fill="#000002" d="M87.015,38.704h0.647c1.887,0 3.285,1.611 4.201,4.842l0.159,1.611c0.055,0.523 0.055,1.061 0,1.619c-0.482,1.963 -1.563,3.897 -3.23,5.806c-1.157,0.972 -3.788,1.722 -7.907,2.259c-0.482,-0.214 -0.758,-0.427 -0.806,-0.641c6.888,-3.739 10.331,-5.998 10.331,-6.783l0.158,-0.482l-0.158,-0.158l-1.453,0.481h-0.806c-2.906,0 -4.36,-1.025 -4.36,-3.064v-0.324c0.373,-3.34 1.185,-5.007 2.418,-5.007L87.015,38.704z" id="path_0"/><path fill="#000002" d="M91.292,25.625c0.166,-0.097 0.213,0.055 0.145,0.447c-0.916,2.149 -2.321,3.65 -4.215,4.498l-6.963,3.491c-0.296,-0.082 -0.352,-0.323 -0.166,-0.729c0.93,-1.791 1.563,-2.852 1.901,-3.189L91.292,25.625z" id="path_1"/><path fill="#203e96" d="M74.081,20.962c0.324,0 0.647,1.081 0.971,3.23l1.453,3.23l-0.647,3.712l0.482,9.043v1.446c-0.213,3.691 -0.751,5.841 -1.612,6.461l-0.159,-0.159l0.159,-2.424c0,-2.177 -0.703,-9.119 -2.101,-20.82C73.302,22.202 73.784,20.962 74.081,20.962z" id="path_2"/><path fill="#203e96" d="M78.902,11.52c0.166,-0.097 0.213,0.055 0.145,0.447c-0.916,2.149 -2.321,3.65 -4.215,4.498l-6.963,3.492c-0.296,-0.083 -0.351,-0.324 -0.166,-0.73c0.93,-1.791 1.563,-2.852 1.901,-3.188L78.902,11.52z" id="path_3"/><path fill="#f26122" d="M58.143,23.875c1.591,0.51 2.831,1.157 3.712,1.936v0.324c0,0.537 -0.585,1.722 -1.77,3.554c-1.102,0 -2.342,-0.593 -3.712,-1.777v-0.323C56.373,26.431 56.965,25.19 58.143,23.875z" id="path_4"/><path fill="#f26122" d="M53.542,42.479c4.229,0.041 6.591,-0.751 7.108,-2.383c0,-0.565 -0.538,-1.964 -1.619,-4.195l0.489,-4.194h0.317c1.405,2.418 2.101,4.842 2.101,7.26v1.453c0,0.971 -0.234,1.99 -0.696,3.058c-0.461,1.067 -1.177,1.97 -2.135,2.693c-0.964,0.729 -2.817,1.033 -5.565,0.909V42.479z" id="path_5"/><path fill="#f26122" d="M58.168,13.744h1.598c1.935,0 2.906,0.723 2.906,2.177c-1.253,3.388 -2.776,5.186 -4.566,5.393l-2.114,0.282c-0.338,0 -0.475,-0.097 -0.427,-0.282c1.708,-0.902 3.306,-1.977 4.787,-3.21c-0.523,-0.488 -1.102,-0.729 -1.735,-0.729h-0.448l-1.735,0.145l-0.138,-0.145v-0.282C57.115,14.86 57.742,13.744 58.168,13.744z" id="path_6"/><path fill="#000002" d="M47.006,30.088c2.259,1.13 3.389,2.094 3.389,2.906c-1.075,2.121 -1.722,3.196 -1.936,3.224h-0.324c-1.66,-0.833 -2.679,-1.584 -3.072,-2.259C45.443,32.732 46.09,31.444 47.006,30.088z" id="path_7"/><path fill="#000002" d="M57.055,47.093c-0.151,0.014 -0.296,0.021 -0.447,0.021h-0.806c-1.268,0 -2.128,-0.104 -2.583,-0.323c-0.944,3.622 -2.039,5.841 -3.292,6.653c-1.247,0.813 -4.077,1.501 -8.492,2.065H41.11c-0.964,-0.109 -1.453,-0.269 -1.453,-0.481c0,-0.324 0.806,-0.703 2.424,-1.13c6.35,-2.906 9.526,-5.007 9.526,-6.295c0,-0.537 -0.758,-1.777 -2.26,-3.712c-0.323,-0.545 -0.489,-1.24 -0.489,-2.101v-1.612c0,-0.813 0.166,-1.239 0.489,-1.295c1.398,2.143 3.761,3.334 7.101,3.589c0.2,0 0.399,0 0.606,-0.014V47.093z" id="path_8"/><path fill="#000002" d="M52.75,21.692c0.165,-0.097 0.213,0.055 0.144,0.447c-0.916,2.149 -2.321,3.65 -4.215,4.498l-6.963,3.491c-0.296,-0.082 -0.351,-0.323 -0.165,-0.729c0.93,-1.791 1.563,-2.852 1.901,-3.189L52.75,21.692z" id="path_9"/><path fill="#203e96" d="M29.691,43.463c0.186,0.014 0.386,0.021 0.606,0.021h1.529c1.619,-0.268 2.852,-0.833 3.712,-1.693l-1.936,-15.339c0.482,-2.906 0.916,-4.353 1.288,-4.353l2.101,4.842c0,0.751 -0.269,1.88 -0.807,3.389l0.807,8.712v2.425c-0.606,2.568 -1.419,4.366 -2.438,5.386c-0.771,0.819 -1.674,1.233 -2.728,1.233h-1.37c-0.269,0 -0.524,-0.007 -0.765,-0.021V43.463z" id="path_10"/><path fill="#203e96" d="M34.147,12.794h1.598c1.936,0 2.907,0.723 2.907,2.177c-1.254,3.388 -2.776,5.186 -4.566,5.393l-2.115,0.282c-0.337,0 -0.475,-0.097 -0.427,-0.282c1.708,-0.902 3.306,-1.977 4.787,-3.21c-0.523,-0.489 -1.102,-0.729 -1.735,-0.729h-0.448l-1.735,0.145l-0.138,-0.145v-0.283C33.093,13.909 33.72,12.794 34.147,12.794z" id="path_11"/><path fill="#000002" d="M21.723,29.723c0.551,0 1.846,0.647 3.877,1.936c0,0.806 -0.647,2.101 -1.942,3.878c-2.583,-0.834 -3.871,-1.592 -3.871,-2.26C19.856,32.671 20.497,31.486 21.723,29.723z" id="path_12"/><path fill="#000002" d="M15.848,43.483c1.15,0.015 1.86,-0.007 2.142,-0.062c2.424,-0.737 4.077,-2.308 4.966,-4.697c0.131,-0.462 0.399,-0.517 0.806,-0.165c0.213,0.186 0.379,0.943 0.482,2.259c1.467,1.977 3.299,2.865 5.489,2.665h0.427v4.602h-0.103c-3.43,-0.159 -5.958,-1.723 -7.59,-4.684h-0.158c-1.144,2.41 -2.652,3.891 -4.518,4.442c-0.565,0.158 -1.212,0.241 -1.942,0.241V43.483z" id="path_13"/><path fill="#000002" d="M28.197,18.545c0.166,-0.097 0.213,0.055 0.145,0.447c-0.916,2.149 -2.321,3.65 -4.215,4.498l-6.963,3.491c-0.296,-0.082 -0.351,-0.323 -0.166,-0.729c0.93,-1.791 1.563,-2.852 1.901,-3.189L28.197,18.545z" id="path_14"/><path fill="#000002" d="M15.889,48.085c-3.134,0.186 -5.414,-1.261 -6.839,-4.34c-0.688,-1.143 -1.329,-8.85 -1.935,-23.12v-0.324c0.399,-2.369 0.992,-3.554 1.77,-3.554l0.813,-0.158c0.992,0 2.5,0.323 4.519,0.964v0.324c-0.11,0.323 -0.434,0.488 -0.971,0.488h-2.742c-0.564,0 -1.102,0.317 -1.619,0.965c0.503,12.391 1.233,19.567 2.205,21.529c0.964,1.964 2.569,2.838 4.8,2.624V48.085z" id="path_15"/></svg>