<svg id="vector" xmlns="http://www.w3.org/2000/svg" width="99" height="67" viewBox="0 0 99.178 67"><path fill="#008146" d="M42.512,18.836c0.318,0 0.637,1.081 0.956,3.23l1.43,3.23l-0.637,3.712l0.474,9.044v1.445c-0.21,3.691 -0.739,5.841 -1.585,6.461l-0.156,-0.158l0.156,-2.425c0,-2.177 -0.691,-9.119 -2.066,-20.82C41.747,20.076 42.221,18.836 42.512,18.836z" id="path_0"/><path fill="#e21171" d="M27.734,47.736h0.318c1.084,0.24 2.25,0.888 3.497,1.941v0.158c-0.718,2.205 -1.349,3.389 -1.904,3.555c-1.62,-0.324 -2.833,-0.861 -3.652,-1.619v-0.158C25.993,50.346 26.575,49.059 27.734,47.736z" id="path_1"/><path fill="#e21171" d="M33.615,46.282h0.156c1.084,0.165 2.304,0.917 3.652,2.259v0.166l-1.904,3.389c-2.541,-0.834 -3.814,-1.536 -3.814,-2.101C32.524,47.522 33.161,46.282 33.615,46.282z" id="path_2"/><path fill="#e21171" d="M28.493,40.353c4.16,0.042 6.484,-0.751 6.993,-2.384c0,-0.564 -0.529,-1.962 -1.592,-4.194l0.481,-4.194h0.312c1.382,2.417 2.067,4.842 2.067,7.259v1.453c0,0.971 -0.23,1.99 -0.685,3.059c-0.454,1.067 -1.159,1.969 -2.101,2.692c-0.949,0.729 -2.771,1.033 -5.475,0.909V40.353z" id="path_3"/><path fill="#e21171" d="M36.779,17.989c0.292,0.51 0.63,1.963 1.017,4.359c-0.237,1.454 -0.86,2.177 -1.87,2.177H35.79c-0.44,0 -1.009,-0.289 -1.728,-0.868c-0.488,0.875 -1.206,1.315 -2.141,1.315c-1.138,0 -1.708,-1.405 -1.708,-4.215c0.332,-1.067 0.617,-1.598 0.854,-1.598l0.135,0.145v2.479c0.196,0.861 0.44,1.288 0.718,1.288h0.576c0.597,0 0.976,-0.241 1.152,-0.724l-0.298,-2.176c0.115,-0.73 0.312,-1.116 0.576,-1.15h0.298c0.298,2.417 0.779,3.629 1.423,3.629h0.996v-0.145l-0.434,-2.899v-0.166C36.325,18.471 36.515,17.989 36.779,17.989z" id="path_4"/><path fill="#e21171" d="M39.178,9.111c0.163,-0.097 0.21,0.055 0.142,0.448c-0.901,2.148 -2.283,3.65 -4.146,4.498l-6.851,3.492c-0.291,-0.083 -0.345,-0.324 -0.163,-0.73c0.915,-1.791 1.538,-2.852 1.871,-3.189L39.178,9.111z" id="path_5"/><path fill="#008146" d="M28.906,44.967c-0.142,0.014 -0.291,0.021 -0.434,0.021h-0.8c-1.24,0 -2.086,-0.103 -2.541,-0.323c-0.921,3.623 -1.999,5.84 -3.232,6.653c-1.233,0.813 -4.018,1.501 -8.354,2.065h-0.318c-0.956,-0.109 -1.43,-0.268 -1.43,-0.481c0,-0.323 0.792,-0.702 2.378,-1.13c6.248,-2.906 9.371,-5.007 9.371,-6.295c0,-0.537 -0.739,-1.777 -2.223,-3.712c-0.318,-0.544 -0.474,-1.24 -0.474,-2.101v-1.611c0,-0.813 0.156,-1.24 0.474,-1.295c1.375,2.142 3.707,3.333 6.986,3.588c0.204,0 0.4,0 0.596,-0.014V44.967z" id="path_6"/><path fill="#008146" d="M25.552,25.497c0.163,-0.096 0.21,0.055 0.142,0.447c-0.901,2.149 -2.283,3.651 -4.146,4.498l-6.851,3.492c-0.291,-0.083 -0.345,-0.324 -0.162,-0.73c0.915,-1.791 1.538,-2.852 1.87,-3.189L25.552,25.497z" id="path_7"/><path fill="#203e96" d="M12.962,29.333l0.163,0.482c-0.217,0.916 -1.165,1.99 -2.859,3.23c1.694,1.398 2.541,3.444 2.541,6.137v0.158c0,4.415 -1.802,6.619 -5.4,6.619c-2.859,-0.564 -4.289,-2.018 -4.289,-4.359V41.44c0.108,-2.018 0.901,-4.173 2.385,-6.46c-1.375,-0.427 -2.066,-1.02 -2.066,-1.777c0,-2.018 0.156,-3.25 0.474,-3.712c1.43,0.406 3.022,1.212 4.764,2.424h0.163L12.962,29.333L12.962,29.333zM6.77,35.786c-1.267,1.295 -1.904,2.211 -1.904,2.748c0,1.667 1.165,2.638 3.496,2.906c1.213,-0.165 2.277,-0.593 3.171,-1.294C10.503,38.342 8.917,36.895 6.77,35.786z" id="path_8"/><path fill="#203e96" d="M10.11,8.368c0.373,-0.269 0.528,-0.159 0.474,0.324c-0.42,1.584 -1.213,3.092 -2.378,4.518c-0.556,0.999 -0.901,1.701 -1.037,2.121c-0.128,0.413 -0.264,0.999 -0.393,1.756c0.156,1.501 0.738,2.259 1.748,2.259H8.68c0.237,0 0.4,-0.482 0.474,-1.453l0.163,-0.166h0.63c0.745,0.434 1.118,1.082 1.118,1.943v0.323c-0.61,2.473 -1.457,3.712 -2.541,3.712H8.206c-1.721,0 -2.731,-1.129 -3.022,-3.396v-0.964C5.184,15.468 6.831,11.812 10.11,8.368z" id="path_9"/><path fill="#008146" d="M84.949,28.947c2.223,1.129 3.333,2.101 3.333,2.906c-1.057,2.122 -1.694,3.203 -1.904,3.23H86.06c-1.626,-0.833 -2.636,-1.591 -3.015,-2.259C83.411,31.599 84.048,30.304 84.949,28.947z" id="path_10"/><path fill="#008146" d="M76.29,45.594h1.829c1.931,-0.269 5,-0.998 9.208,-2.176v-0.166c-3.835,-1.722 -6.268,-2.582 -7.304,-2.582c-1.403,0 -2.352,0.806 -2.859,2.424l-0.475,0.324c-0.21,0 -0.318,-0.166 -0.318,-0.49c0.528,-3.223 1.958,-4.842 4.289,-4.842h0.792c0.983,0 4.316,1.13 10.008,3.39l4.289,0.323l0.312,0.489c-0.074,0.724 -0.711,2.121 -1.904,4.194h-0.474l-0.637,-0.166h-0.792c-8.26,2.48 -13.077,3.768 -14.453,3.878H76.29V45.594z" id="path_11"/><path fill="#008146" d="M90.288,18.898c0.163,-0.097 0.21,0.055 0.142,0.448c-0.901,2.148 -2.283,3.65 -4.146,4.498l-6.851,3.492c-0.291,-0.083 -0.346,-0.324 -0.163,-0.73c0.915,-1.791 1.538,-2.852 1.87,-3.189L90.288,18.898z" id="path_12"/><path fill="#000002" d="M63.591,53.129h0.637c2.087,1.205 3.145,1.907 3.171,2.094c-1.03,2.259 -1.721,3.443 -2.06,3.554c-1.193,0 -2.358,-0.593 -3.497,-1.776C62.053,55.842 62.636,54.555 63.591,53.129z" id="path_13"/><path fill="#000002" d="M69.147,52.316c1.01,0 2.222,0.702 3.652,2.1c0,0.565 -0.684,1.695 -2.066,3.389c-0.792,0 -1.958,-0.537 -3.49,-1.611C67.243,55.25 67.88,53.962 69.147,52.316z" id="path_14"/><path fill="#000002" d="M63.232,40.229h0.041c1.85,0 3.334,-0.641 4.445,-1.936l-0.156,-1.287c0,-1.592 0.318,-2.879 0.949,-3.878c0.292,0 0.718,2.749 1.273,8.23c0.637,2.963 2.853,4.333 6.647,4.119v4.602c-3.707,0.268 -6.288,-1.454 -7.758,-5.166c-0.237,-2.583 -0.501,-3.871 -0.793,-3.871c-0.624,2.445 -2.175,3.732 -4.648,3.851V40.229z" id="path_15"/><path fill="#000002" d="M68.768,21.165h1.572c1.904,0 2.859,0.723 2.859,2.176c-1.233,3.389 -2.731,5.186 -4.493,5.393l-2.08,0.282c-0.332,0 -0.467,-0.096 -0.42,-0.282c1.68,-0.902 3.252,-1.977 4.709,-3.209c-0.515,-0.489 -1.084,-0.73 -1.708,-0.73h-0.44l-1.707,0.145l-0.136,-0.145v-0.282C67.731,22.28 68.348,21.165 68.768,21.165z" id="path_16"/><path fill="#008146" d="M63.483,44.967c-0.142,0.014 -0.292,0.021 -0.434,0.021h-0.8c-1.24,0 -2.087,-0.103 -2.541,-0.323c-0.921,3.623 -1.999,5.84 -3.232,6.653c-1.233,0.813 -4.018,1.501 -8.354,2.065h-0.318c-0.956,-0.109 -1.43,-0.268 -1.43,-0.481c0,-0.323 0.793,-0.702 2.378,-1.13c6.247,-2.906 9.371,-5.007 9.371,-6.295c0,-0.537 -0.739,-1.777 -2.222,-3.712c-0.319,-0.544 -0.475,-1.24 -0.475,-2.101v-1.611c0,-0.813 0.156,-1.24 0.475,-1.295c1.375,2.142 3.706,3.333 6.985,3.588c0.203,0 0.4,0 0.596,-0.014V44.967z" id="path_17"/><path fill="#008146" d="M59.912,25.799l0.163,0.145v0.441c-0.827,1.791 -1.972,3.044 -3.435,3.774c-4.553,2.514 -7.081,3.774 -7.582,3.774c-0.19,0 -0.285,-0.151 -0.285,-0.448c0.44,-1.708 1.396,-2.865 2.859,-3.471l8.145,-4.215H59.912z" id="path_18"/><path fill="#008146" d="M58.781,22.17c0.183,0 0.277,0.138 0.277,0.42c-0.528,1.563 -2.093,2.968 -4.702,4.222l-6.017,3.347l-0.136,-0.145v-0.159c0.569,-2.045 1.47,-3.306 2.717,-3.774l6.708,-3.492L58.781,22.17z" id="path_19"/></svg>