<svg id="vector" xmlns="http://www.w3.org/2000/svg" width="174" height="67" viewBox="0 0 174.111 67"><path fill="#000002" d="M141.76,43.486h0.062c2.5,-0.109 4.223,-1.314 5.166,-3.629c0,-0.323 0.214,-0.592 0.647,-0.813h0.323c0.214,0 0.324,0.165 0.324,0.489l-0.166,0.964c0.916,1.618 1.888,2.424 2.905,2.424h0.808c1.396,0 2.479,-1.397 3.229,-4.192h0.166c0.158,0.021 0.427,0.668 0.806,1.935c0.916,0.808 1.825,1.288 2.741,1.453c1.074,0 1.618,-0.646 1.618,-1.935c0.104,-2.047 0.317,-3.072 0.641,-3.072c0.435,0.916 0.647,2.045 0.647,3.389c0,3.988 -0.971,5.979 -2.906,5.979c-1.509,0 -2.741,-0.758 -3.713,-2.267h-0.323c-0.668,2.156 -1.749,3.229 -3.229,3.229h-0.158c-1.314,0 -2.824,-1.02 -4.519,-3.063c-1.427,2.474 -3.044,3.712 -4.843,3.712h-0.227L141.76,43.486L141.76,43.486z" id="path_0"/><path fill="#000002" d="M158.586,48.798c0.165,-0.097 0.213,0.056 0.144,0.447c-0.916,2.147 -2.319,3.649 -4.215,4.498l-6.963,3.491c-0.296,-0.082 -0.352,-0.323 -0.165,-0.729c0.93,-1.791 1.563,-2.853 1.9,-3.188L158.586,48.798z" id="path_1"/><path fill="#008146" d="M141.959,48.102c-0.146,0.015 -0.296,0.021 -0.441,0.021h-0.813c-1.261,0 -2.121,-0.104 -2.582,-0.323c-0.938,3.622 -2.032,5.841 -3.285,6.653c-1.254,0.813 -4.085,1.501 -8.492,2.064h-0.324c-0.971,-0.108 -1.453,-0.269 -1.453,-0.48c0,-0.324 0.807,-0.703 2.418,-1.13c6.351,-2.906 9.524,-5.007 9.524,-6.296c0,-0.536 -0.751,-1.775 -2.259,-3.711c-0.323,-0.545 -0.481,-1.24 -0.481,-2.102v-1.611c0,-0.813 0.158,-1.239 0.481,-1.295c1.397,2.143 3.768,3.334 7.101,3.588c0.207,0 0.406,0 0.606,-0.014V48.102z" id="path_2"/><path fill="#008146" d="M138.55,28.632c0.165,-0.097 0.214,0.055 0.145,0.447c-0.916,2.148 -2.32,3.65 -4.215,4.497l-6.964,3.492c-0.296,-0.084 -0.351,-0.323 -0.165,-0.73c0.931,-1.791 1.563,-2.851 1.901,-3.188L138.55,28.632z" id="path_3"/><path fill="#008146" d="M119.541,21.971c0.322,0 0.646,1.082 0.971,3.23l1.453,3.23l-0.647,3.712l0.482,9.042v1.446c-0.214,3.692 -0.751,5.841 -1.611,6.461l-0.159,-0.157l0.159,-2.426c0,-2.177 -0.703,-9.119 -2.102,-20.82C118.763,23.211 119.244,21.971 119.541,21.971z" id="path_4"/><path fill="#000002" d="M102.474,48.77c2.259,1.131 3.389,2.102 3.389,2.906c-1.073,2.129 -1.722,3.203 -1.936,3.23h-0.323c-1.652,-0.833 -2.68,-1.592 -3.064,-2.26C100.91,51.421 101.558,50.127 102.474,48.77z" id="path_5"/><path fill="#000002" d="M93.672,44.493h1.859c1.963,-0.269 5.082,-0.999 9.359,-2.177V42.15c-3.897,-1.723 -6.371,-2.582 -7.425,-2.582c-1.426,0 -2.391,0.806 -2.907,2.424l-0.48,0.324c-0.214,0 -0.324,-0.166 -0.324,-0.489c0.537,-3.224 1.991,-4.843 4.359,-4.843h0.807c0.998,0 4.387,1.131 10.172,3.39l4.36,0.323l0.315,0.488c-0.075,0.725 -0.723,2.121 -1.935,4.194h-0.482l-0.646,-0.165h-0.807c-8.396,2.479 -13.293,3.768 -14.69,3.878h-1.535V44.493z" id="path_6"/><path fill="#000002" d="M108.707,23.748l0.165,0.145v0.44c-0.84,1.791 -2.004,3.044 -3.492,3.774c-4.628,2.514 -7.197,3.774 -7.707,3.774c-0.192,0 -0.289,-0.151 -0.289,-0.448c0.448,-1.707 1.419,-2.864 2.906,-3.471l8.278,-4.215L108.707,23.748L108.707,23.748z" id="path_7"/><path fill="#000002" d="M107.557,20.118c0.187,0 0.282,0.138 0.282,0.42c-0.537,1.563 -2.128,2.969 -4.78,4.223l-6.115,3.347l-0.138,-0.145v-0.158c0.578,-2.046 1.494,-3.306 2.762,-3.774l6.818,-3.492L107.557,20.118z" id="path_8"/><path fill="#D50000" d="M94.017,49.094c-3.135,0.186 -5.414,-1.261 -6.84,-4.339c-0.688,-1.144 -1.329,-8.851 -1.936,-23.121V21.31c0.398,-2.369 0.991,-3.554 1.771,-3.554l0.813,-0.158c0.991,0 2.5,0.323 4.518,0.964v0.324c-0.109,0.323 -0.434,0.489 -0.971,0.489H88.63c-0.564,0 -1.103,0.316 -1.618,0.964c0.503,12.391 1.232,19.567 2.204,21.53c0.964,1.963 2.568,2.837 4.801,2.624V49.094z" id="path_9"/><path fill="#e21171" d="M77.687,39.713h0.646c1.888,0 3.285,1.611 4.202,4.842l0.157,1.611c0.056,0.523 0.056,1.063 0,1.619c-0.481,1.963 -1.563,3.896 -3.229,5.806c-1.157,0.972 -3.788,1.722 -7.906,2.261c-0.481,-0.215 -0.758,-0.429 -0.806,-0.642c6.887,-3.739 10.331,-5.999 10.331,-6.784l0.158,-0.482l-0.158,-0.157l-1.454,0.481h-0.807c-2.905,0 -4.358,-1.025 -4.358,-3.064V44.88c0.372,-3.341 1.185,-5.008 2.417,-5.008L77.687,39.713z" id="path_10"/><path fill="#e21171" d="M79.16,26.173c0.296,0.509 0.641,1.963 1.032,4.359c-0.24,1.453 -0.875,2.176 -1.9,2.176h-0.139c-0.446,0 -1.025,-0.289 -1.756,-0.867c-0.496,0.875 -1.227,1.315 -2.177,1.315c-1.157,0 -1.735,-1.405 -1.735,-4.215c0.338,-1.067 0.627,-1.598 0.868,-1.598l0.138,0.145v2.479c0.199,0.86 0.447,1.287 0.729,1.287h0.586c0.605,0 0.991,-0.24 1.17,-0.723l-0.303,-2.177c0.117,-0.729 0.317,-1.115 0.586,-1.15h0.303c0.304,2.418 0.792,3.63 1.446,3.63h1.013V30.69l-0.44,-2.899v-0.165C78.698,26.654 78.892,26.173 79.16,26.173z" id="path_11"/><path fill="#e21171" d="M81.605,17.295c0.165,-0.097 0.213,0.055 0.146,0.447c-0.916,2.148 -2.321,3.65 -4.216,4.497l-6.964,3.492c-0.296,-0.082 -0.352,-0.323 -0.164,-0.729c0.93,-1.791 1.563,-2.852 1.899,-3.189L81.605,17.295z" id="path_12"/><path fill="#203e96" d="M52.203,44.493c1.591,-0.2 2.383,-0.511 2.383,-0.931c0,-3.203 0.971,-7.073 2.906,-11.619c0.269,-0.593 0.536,-0.647 0.806,-0.166c0.703,1.509 1.936,2.75 3.713,3.713c3.663,1.776 5.489,4.2 5.489,7.266c0,3.203 -0.696,5.035 -2.102,5.489l-1.611,0.158l-6.138,-0.323c-1.708,0.729 -3.52,1.067 -5.446,1.013V44.493L52.203,44.493zM61.37,43.729l4.028,0.158l0.647,-0.158c-0.992,-1.377 -2.287,-2.451 -3.871,-3.229C61.88,40.498 61.61,41.572 61.37,43.729L61.37,43.729zM56.039,41.628c0,1.021 0.806,1.667 2.425,1.935c1.396,-0.776 2.094,-1.584 2.094,-2.416c-0.481,-1.942 -1.288,-2.906 -2.418,-2.906C56.982,38.239 56.28,39.369 56.039,41.628z" id="path_13"/><path fill="#203e96" d="M61.749,19.388c0.296,0.51 0.64,1.964 1.033,4.36c-0.241,1.453 -0.875,2.176 -1.901,2.176h-0.138c-0.448,0 -1.026,-0.289 -1.758,-0.867c-0.494,0.875 -1.226,1.315 -2.176,1.315c-1.157,0 -1.735,-1.405 -1.735,-4.215c0.338,-1.068 0.627,-1.598 0.867,-1.598l0.139,0.145v2.479c0.199,0.86 0.447,1.287 0.729,1.287h0.585c0.606,0 0.992,-0.24 1.171,-0.723l-0.303,-2.177c0.117,-0.729 0.316,-1.115 0.585,-1.15h0.304c0.304,2.418 0.792,3.63 1.446,3.63h1.012v-0.145l-0.439,-2.899v-0.165C61.287,19.87 61.48,19.388 61.749,19.388z" id="path_14"/><path fill="#203e96" d="M64.187,10.511c0.166,-0.097 0.214,0.055 0.146,0.447c-0.916,2.148 -2.32,3.65 -4.215,4.498l-6.964,3.491c-0.296,-0.082 -0.352,-0.323 -0.166,-0.729c0.932,-1.791 1.564,-2.852 1.901,-3.189L64.187,10.511z" id="path_15"/><path fill="#D50000" d="M52.548,49.094c-3.135,0.186 -5.414,-1.261 -6.84,-4.339c-0.688,-1.144 -1.329,-8.851 -1.936,-23.121V21.31c0.398,-2.369 0.991,-3.554 1.771,-3.554l0.813,-0.158c0.991,0 2.5,0.323 4.52,0.964v0.324c-0.11,0.323 -0.436,0.489 -0.973,0.489h-2.74c-0.564,0 -1.103,0.316 -1.618,0.964c0.503,12.391 1.231,19.567 2.204,21.53c0.964,1.963 2.567,2.837 4.801,2.624L52.548,49.094L52.548,49.094z" id="path_16"/><path fill="#203e96" d="M29.667,48.77c2.26,1.131 3.389,2.102 3.389,2.906c-1.074,2.129 -1.722,3.203 -1.936,3.23h-0.323c-1.653,-0.833 -2.679,-1.592 -3.064,-2.26C28.104,51.421 28.751,50.127 29.667,48.77z" id="path_17"/><path fill="#203e96" d="M20.865,44.493h1.858c1.963,-0.269 5.083,-0.999 9.36,-2.177V42.15c-3.898,-1.723 -6.371,-2.582 -7.425,-2.582c-1.427,0 -2.391,0.806 -2.906,2.424l-0.482,0.324c-0.213,0 -0.324,-0.166 -0.324,-0.489c0.538,-3.224 1.991,-4.843 4.36,-4.843h0.806c0.999,0 4.389,1.131 10.174,3.39l4.358,0.323l0.317,0.488c-0.076,0.725 -0.725,2.121 -1.937,4.194h-0.481l-0.647,-0.165h-0.806c-8.396,2.479 -13.293,3.768 -14.69,3.878h-1.535V44.493L20.865,44.493z" id="path_18"/><path fill="#000002" d="M35.9,23.748l0.165,0.145v0.44c-0.84,1.791 -2.004,3.044 -3.49,3.774c-4.63,2.514 -7.197,3.774 -7.707,3.774c-0.193,0 -0.29,-0.151 -0.29,-0.448c0.447,-1.707 1.419,-2.864 2.906,-3.471l8.278,-4.215L35.9,23.748L35.9,23.748z" id="path_19"/><path fill="#000002" d="M34.75,20.118c0.187,0 0.282,0.138 0.282,0.42c-0.537,1.563 -2.129,2.969 -4.779,4.223l-6.116,3.347l-0.138,-0.145v-0.158c0.578,-2.046 1.495,-3.306 2.762,-3.774l6.818,-3.492L34.75,20.118z" id="path_20"/><path fill="#D50000" d="M21.21,49.094c-3.134,0.186 -5.414,-1.261 -6.84,-4.339c-0.688,-1.144 -1.329,-8.851 -1.936,-23.121V21.31c0.399,-2.369 0.991,-3.554 1.771,-3.554l0.813,-0.158c0.992,0 2.501,0.323 4.52,0.964v0.324c-0.11,0.323 -0.435,0.489 -0.972,0.489h-2.74c-0.565,0 -1.104,0.316 -1.619,0.964c0.503,12.391 1.232,19.567 2.204,21.53c0.965,1.963 2.568,2.837 4.801,2.624L21.21,49.094L21.21,49.094z" id="path_21"/></svg>