<svg id="vector" xmlns="http://www.w3.org/2000/svg" width="216" height="67" viewBox="0 0 215.988 67"><path fill="#e21171" d="M126.245,43.173c0.221,0 0.447,0 0.688,0h0.165c2.012,-0.124 3.844,-1.798 5.482,-5.021c1.777,-2.693 3.609,-4.036 5.489,-4.036c2.369,0 3.554,1.501 3.554,4.518v0.806c0,1.481 -0.592,3.417 -1.776,5.813l-1.13,0.806c-0.998,0 -3.306,-0.702 -6.942,-2.101c-1.102,1.653 -1.963,2.658 -2.583,3.01c-0.943,0.654 -1.907,0.93 -2.906,0.806h-0.041V43.173L126.245,43.173zM134.358,39.764v0.158c2.796,1.081 4.47,1.618 5.007,1.618c0.214,0 0.324,-0.165 0.324,-0.488c-0.62,-1.612 -1.646,-2.418 -3.072,-2.418C135.626,38.634 134.868,39.013 134.358,39.764z" id="path_0"/><path fill="#e21171" d="M136.755,20.996c0.296,0.509 0.641,1.963 1.033,4.359c-0.241,1.453 -0.875,2.176 -1.901,2.176h-0.138c-0.447,0 -1.025,-0.289 -1.756,-0.867c-0.496,0.874 -1.226,1.315 -2.177,1.315c-1.157,0 -1.735,-1.405 -1.735,-4.215c0.338,-1.068 0.627,-1.599 0.868,-1.599l0.138,0.146v2.479c0.199,0.86 0.447,1.287 0.729,1.287h0.586c0.605,0 0.991,-0.241 1.171,-0.723l-0.304,-2.177c0.117,-0.729 0.317,-1.115 0.586,-1.15h0.303c0.303,2.418 0.792,3.63 1.446,3.63h1.013v-0.145l-0.44,-2.899v-0.165C136.293,21.478 136.486,20.996 136.755,20.996z" id="path_1"/><path fill="#e21171" d="M139.2,12.117c0.165,-0.096 0.214,0.056 0.145,0.448c-0.916,2.148 -2.321,3.65 -4.215,4.497l-6.964,3.492c-0.296,-0.083 -0.351,-0.323 -0.165,-0.73c0.93,-1.791 1.563,-2.851 1.901,-3.188L139.2,12.117z" id="path_2"/><path fill="#000002" d="M126.59,47.773c-3.134,0.187 -5.414,-1.261 -6.84,-4.339c-0.688,-1.144 -1.329,-8.851 -1.935,-23.121V19.99c0.398,-2.369 0.991,-3.554 1.77,-3.554l0.813,-0.159c0.992,0 2.501,0.324 4.519,0.965v0.323c-0.11,0.323 -0.434,0.489 -0.971,0.489h-2.742c-0.564,0 -1.102,0.316 -1.618,0.964c0.503,12.391 1.232,19.567 2.204,21.53c0.964,1.963 2.568,2.838 4.801,2.624V47.773z" id="path_3"/><path fill="#203e96" d="M104.013,51.665c0.675,0 1.859,0.813 3.554,2.424c0,0.538 -0.647,1.723 -1.942,3.555h-0.316c-0.675,0 -1.701,-0.647 -3.072,-1.942v-0.158C102.235,54.896 102.828,53.607 104.013,51.665z" id="path_4"/><path fill="#203e96" d="M109.826,50.859c2.686,1.157 4.035,2.072 4.035,2.748c-0.165,0.51 -0.915,1.639 -2.259,3.389c-1.805,-0.702 -3.1,-1.509 -3.878,-2.425C108.29,52.774 108.992,51.534 109.826,50.859z" id="path_5"/><path fill="#203e96" d="M104.722,43.215c0.131,0 0.331,0 0.606,0h0.682c1.723,0 2.824,-0.435 3.313,-1.296v-0.323c-0.813,-2.824 -1.998,-5.393 -3.555,-7.707c0.187,-2.473 0.455,-3.712 0.807,-3.712c0.943,0.757 2.183,3.443 3.712,8.071l0.165,2.101v1.454c-0.517,3.98 -2.045,5.971 -4.601,5.971h-0.523c-0.289,0 -0.489,0.014 -0.606,0.042V43.215z" id="path_6"/><path fill="#203e96" d="M112.649,18.902c0.165,-0.097 0.213,0.055 0.145,0.447c-0.916,2.148 -2.321,3.65 -4.215,4.497l-6.963,3.492c-0.297,-0.083 -0.352,-0.323 -0.166,-0.73c0.93,-1.791 1.563,-2.851 1.901,-3.188L112.649,18.902z" id="path_7"/><path fill="#000002" d="M95.865,31.608c0.909,0 2.148,0.758 3.712,2.26v0.323c-1.054,2.26 -1.749,3.396 -2.101,3.396l-3.712,-2.101h-0.166c-1.046,1.805 -1.742,2.77 -2.094,2.906H91.34c-2.362,-1.054 -3.547,-1.859 -3.547,-2.424c0.861,-2.369 1.611,-3.547 2.259,-3.547l3.871,2.094C94.543,33.255 95.19,32.283 95.865,31.608z" id="path_8"/><path fill="#000002" d="M91.664,26.608c1.054,0 2.231,0.916 3.554,2.741c-0.352,0.834 -1.054,1.805 -2.101,2.906h-0.324c-0.937,-0.213 -1.963,-0.806 -3.064,-1.776v-0.482C89.812,29.137 90.451,28.007 91.664,26.608z" id="path_9"/><path fill="#000002" d="M105.486,47.773c-0.255,0 -0.564,0 -0.93,0c-1.439,-0.014 -2.988,-1.095 -4.662,-3.251c-0.641,2.37 -1.771,3.555 -3.389,3.555h-0.158c-1.371,0 -2.501,-0.806 -3.39,-2.425h-0.165c-0.964,1.942 -2.135,2.824 -3.513,2.645c-2.555,0.014 -4.07,-1.191 -4.559,-3.608c-1.798,2.107 -3.733,3.141 -5.793,3.085h-0.262v-4.601h0.083c3.258,-0.241 5.675,-1.35 7.267,-3.327c0.213,0 0.323,0.159 0.323,0.482l-0.165,1.13c0.86,1.722 1.99,2.583 3.389,2.583c1.322,0 2.665,-1.288 4.035,-3.871h0.166l0.481,0.482v1.129c0,1.02 0.758,1.611 2.26,1.777h0.323c1.398,0 2.693,-1.398 3.878,-4.201h0.158c0.213,0 0.324,0.488 0.324,1.453c0.592,1.363 2.024,2.149 4.297,2.362V47.773z" id="path_10"/><path fill="#000002" d="M96.987,15.934c0.166,-0.097 0.214,0.055 0.145,0.447c-0.916,2.148 -2.32,3.65 -4.215,4.497l-6.963,3.492c-0.296,-0.082 -0.352,-0.323 -0.166,-0.729c0.931,-1.791 1.564,-2.852 1.901,-3.189L96.987,15.934z" id="path_11"/><path fill="#D50000" d="M82.642,9.355l0.165,0.159c0,2.183 -1.722,4.442 -5.165,6.783c-2.019,0.861 -4.063,1.288 -6.137,1.288l-1.454,-0.158c-0.537,2.046 -0.915,3.065 -1.129,3.065c-0.241,0 -0.565,-0.861 -0.972,-2.583c-0.75,-1.02 -1.99,-2.314 -3.712,-3.871v-0.323c0.379,-2.156 0.813,-3.23 1.295,-3.23c2.101,2.259 4.684,3.389 7.748,3.389C76.828,13.874 79.955,12.366 82.642,9.355z" id="path_12"/><path fill="#D50000" d="M79.659,47.773h-0.406c-3.898,0 -6.323,-2.741 -7.267,-8.23l-0.964,-15.662c0.399,-2.259 0.833,-3.547 1.288,-3.87h0.165c0.214,0 0.323,0.158 0.323,0.482c0,10.682 0.696,17.432 2.094,20.255c1.426,1.577 3.017,2.377 4.767,2.404V47.773z" id="path_13"/><path fill="#203e96" d="M65.072,30.712c1.653,0 2.479,1.02 2.479,3.051c0,3.237 -2.762,5.999 -8.292,8.272c-0.793,0.241 -0.889,-0.049 -0.283,-0.868c0.151,-0.31 1.453,-1.281 3.912,-2.906v-0.138c-1.061,-0.435 -1.591,-1.356 -1.591,-2.769c0.703,-3.093 1.818,-4.643 3.348,-4.643H65.072L65.072,30.712zM62.606,34.204c0,0.861 0.73,1.391 2.184,1.598h0.282c0.537,0 0.882,-0.199 1.026,-0.585c0,-0.875 -0.634,-1.557 -1.895,-2.039C63.653,33.178 63.123,33.522 62.606,34.204z" id="path_14"/><path fill="#D50000" d="M51.525,38.393h0.647c1.887,0 3.284,1.612 4.2,4.842l0.159,1.612c0.055,0.523 0.055,1.061 0,1.618c-0.482,1.963 -1.563,3.898 -3.23,5.807c-1.157,0.971 -3.788,1.722 -7.906,2.259c-0.482,-0.214 -0.758,-0.427 -0.807,-0.641c6.888,-3.74 10.331,-5.999 10.331,-6.784l0.159,-0.482l-0.159,-0.158l-1.453,0.482h-0.806c-2.906,0 -4.359,-1.026 -4.359,-3.065v-0.323c0.372,-3.341 1.185,-5.007 2.417,-5.007L51.525,38.393z" id="path_15"/><path fill="#D50000" d="M49.672,24.977h1.599c1.935,0 2.906,0.723 2.906,2.177c-1.254,3.388 -2.776,5.186 -4.566,5.393l-2.115,0.282c-0.337,0 -0.475,-0.097 -0.427,-0.282c1.709,-0.902 3.307,-1.977 4.787,-3.21c-0.523,-0.489 -1.103,-0.729 -1.735,-0.729h-0.448l-1.735,0.145l-0.138,-0.145v-0.283C48.618,26.092 49.245,24.977 49.672,24.977z" id="path_16"/><path fill="#000002" d="M29.954,38.09h0.324c1.509,0.345 2.852,1.157 4.036,2.417v0.324c-0.104,0.86 -0.751,1.99 -1.936,3.389c-2.796,-0.937 -4.194,-1.749 -4.194,-2.417C28.852,39.867 29.444,38.627 29.954,38.09z" id="path_17"/><path fill="#000002" d="M38.515,34.86h0.316c0.379,0 1.295,2.424 2.748,7.266l0.159,0.641c0,3.795 -0.916,6.543 -2.741,8.237c-2.583,2.796 -5.648,4.194 -9.202,4.194c-2.907,-0.647 -4.787,-1.288 -5.648,-1.936c-2.803,-2.396 -4.201,-5.358 -4.201,-8.878c0,-2.961 1.295,-5.758 3.877,-8.396l0.159,-0.158h0.324l0.323,0.316c0,0.276 -0.75,1.453 -2.259,3.555c-0.434,0.75 -0.703,1.776 -0.806,3.064c0,2.507 1.288,4.656 3.871,6.46c2.528,0.972 4.25,1.453 5.165,1.453c2.314,0 5.056,-1.025 8.23,-3.064c1.295,-1.137 1.942,-1.832 1.942,-2.101l-2.259,-6.295l-0.165,-1.13L38.515,34.86z" id="path_18"/><path fill="#000002" d="M35.843,21.443c0.165,-0.097 0.213,0.055 0.145,0.447c-0.916,2.148 -2.321,3.65 -4.215,4.498l-6.964,3.491c-0.296,-0.082 -0.351,-0.323 -0.165,-0.729c0.93,-1.791 1.563,-2.852 1.901,-3.189L35.843,21.443z" id="path_19"/><path fill="#203e96" d="M63.516,42.158c1.495,0 2.996,0.744 4.505,2.238c0.145,0.255 0.089,0.455 -0.173,0.606c-0.262,0.145 -0.503,0.117 -0.716,-0.104c-0.647,-0.579 -1.563,-0.868 -2.748,-0.868h-0.503c-0.496,0 -1.074,0.214 -1.736,0.627c0,1.212 1.454,1.956 4.36,2.238l2.886,-1.129l0.117,0.385c0,1.357 -1.667,2.569 -5,3.63l-4.622,2.624l-0.481,0.124c-0.193,0.042 -0.317,-0.041 -0.386,-0.241c0,-0.729 1.04,-1.729 3.126,-3.01v-0.117c-1.005,-0.558 -1.515,-1.35 -1.515,-2.383C61.105,43.701 62.063,42.158 63.516,42.158z" id="path_20"/><path fill="#D50000" d="M193.077,39.368c-0.342,1.745 -1.165,3.133 -2.448,4.167c-1.185,0.849 -3.389,1.671 -6.634,2.468c-6.798,0.434 -10.642,0.072 -11.53,-1.08c-0.948,-0.993 2.383,-1.77 9.99,-2.336c3.981,-0.565 7.068,-1.639 9.254,-3.219c0.025,-0.013 0.052,-0.078 0.078,-0.204c0.026,-0.118 -0.599,-4.948 -1.869,-14.491c0.461,-2.777 0.876,-4.159 1.231,-4.159l2.007,4.626c0,0.718 -0.257,1.797 -0.77,3.238l0.77,8.325C193.195,38.132 193.169,39.02 193.077,39.368z" id="path_21"/><path fill="#D50000" d="M195.874,11.293c0.158,-0.092 0.204,0.053 0.139,0.428c-0.875,2.054 -2.218,3.488 -4.027,4.298l-6.654,3.336c-0.282,-0.078 -0.335,-0.309 -0.158,-0.697c0.889,-1.711 1.494,-2.725 1.816,-3.047L195.874,11.293z" id="path_22"/><path fill="#000002" d="M182.876,45.456c0.527,0.941 0.816,1.494 0.869,1.659l0.072,1.257c-0.013,2.225 -0.309,3.758 -0.901,4.606c-0.592,0.849 -1.343,1.277 -2.258,1.29c-1.98,0 -4.034,-1.593 -6.173,-4.778c-0.368,-0.632 -0.73,-1.454 -1.079,-2.468h-1.54c-0.35,0 -0.678,-0.02 -1.001,-0.059v-4.416c0.475,0.105 0.961,0.151 1.461,0.151h0.619c0.849,-3.291 2.29,-5.759 4.317,-7.404c1.053,-0.822 2.033,-1.23 2.936,-1.23c1.389,0 2.211,1.026 2.468,3.086c0.408,2.067 -0.053,4.219 -1.389,6.457L182.876,45.456L182.876,45.456zM176.032,46.865c1.053,1.855 2.593,2.882 4.626,3.086c1.027,-0.092 1.698,-0.447 2.008,-1.079c-0.092,-1.244 -0.81,-2.001 -2.159,-2.264c-1.355,-0.264 -2.435,-0.355 -3.251,-0.264S176.032,46.608 176.032,46.865L176.032,46.865zM174.485,42.087c-0.112,0.342 0.039,0.5 0.467,0.461c1.955,0 3.903,-0.876 5.857,-2.62V39.77c-0.434,-1.026 -1,-1.539 -1.691,-1.539C177.585,38.032 176.045,39.322 174.485,42.087z" id="path_23"/><path fill="#000002" d="M179.099,20.987c1.58,0 2.369,0.975 2.369,2.915c0,3.094 -2.639,5.733 -7.924,7.904c-0.757,0.23 -0.849,-0.046 -0.27,-0.829c0.145,-0.296 1.389,-1.224 3.738,-2.777v-0.131c-1.014,-0.415 -1.521,-1.297 -1.521,-2.646c0.672,-2.955 1.737,-4.436 3.198,-4.436H179.099L179.099,20.987zM176.743,24.324c0,0.822 0.697,1.329 2.086,1.527h0.27c0.514,0 0.843,-0.191 0.98,-0.56c0,-0.836 -0.605,-1.487 -1.81,-1.948C177.743,23.344 177.236,23.673 176.743,24.324z" id="path_24"/><path fill="#203e96" d="M170.826,46.943c-0.164,0 -0.342,0 -0.521,0h-0.15c-1.494,-0.013 -2.936,-0.276 -4.324,-0.789c-1.487,2.573 -3.441,3.856 -5.857,3.856c-2.883,-0.415 -4.324,-1.593 -4.324,-3.548h-0.151c-0.486,1.646 -1.566,2.981 -3.237,4.008c-2.238,0.823 -3.988,1.237 -5.245,1.237l-0.711,0.093v-0.31c0.572,-0.474 2.125,-1.572 4.652,-3.297c2.527,-1.718 3.962,-2.797 4.298,-3.238c0.342,-0.435 0.836,-1.889 1.48,-4.356c1.231,-2.054 2.363,-3.087 3.39,-3.087h0.31c1.283,0 3.343,1.389 6.173,4.166c0.823,0.698 2.225,1.007 4.219,0.928V46.943L170.826,46.943zM157.506,42.758c0,1.362 1.079,2.291 3.238,2.777h0.77c1.751,-0.178 2.626,-0.434 2.626,-0.77c-2.033,-1.955 -3.574,-2.929 -4.634,-2.929h-0.15C158.479,41.837 157.861,42.146 157.506,42.758z" id="path_25"/><path fill="#203e96" d="M158.045,24.521h1.527c1.849,0 2.777,0.691 2.777,2.08c-1.198,3.237 -2.652,4.955 -4.363,5.152l-2.021,0.271c-0.322,0 -0.454,-0.093 -0.408,-0.271c1.632,-0.862 3.159,-1.889 4.574,-3.066c-0.501,-0.467 -1.053,-0.697 -1.659,-0.697h-0.428l-1.658,0.138l-0.132,-0.138V27.72C157.038,25.588 157.638,24.521 158.045,24.521z" id="path_26"/></svg>