<svg id="vector" xmlns="http://www.w3.org/2000/svg" width="216" height="67" viewBox="0 0 215.988 67"><path fill="#000002" d="M198.923,39.526c0.186,0.014 0.386,0.021 0.606,0.021h1.529c1.619,-0.269 2.852,-0.834 3.712,-1.694l-1.936,-15.339c0.482,-2.906 0.916,-4.353 1.288,-4.353l2.101,4.842c0,0.751 -0.269,1.88 -0.806,3.389l0.806,8.712v2.425c-0.605,2.568 -1.418,4.366 -2.438,5.386c-0.771,0.819 -1.674,1.233 -2.728,1.233h-1.371c-0.269,0 -0.523,-0.007 -0.765,-0.021V39.526z" id="path_0"/><path fill="#000002" d="M209.509,9.202c0.165,-0.097 0.213,0.055 0.144,0.447c-0.916,2.148 -2.321,3.65 -4.214,4.497l-6.963,3.492c-0.296,-0.082 -0.352,-0.323 -0.166,-0.73c0.93,-1.79 1.563,-2.851 1.901,-3.188L209.509,9.202z" id="path_1"/><path fill="#D50000" d="M187.862,22.46c2.473,1.02 3.712,1.88 3.712,2.583l-2.101,3.223h-0.159c-0.461,0 -1.694,-0.641 -3.712,-1.936C186.595,23.748 187.353,22.46 187.862,22.46z" id="path_2"/><path fill="#D50000" d="M183.661,39.548h1.054c2.094,-0.173 3.657,-1.006 4.676,-2.501l0.166,-0.488l-0.482,-2.418c0.103,-2.583 0.372,-3.877 0.806,-3.877c1.288,4.545 2.528,7.32 3.712,8.313c1.019,0.579 2.417,0.896 4.194,0.95c0.476,0 0.916,0 1.336,0v4.622c-0.53,0 -1.082,0 -1.66,0h-0.159c-3.092,0 -5.461,-1.723 -7.101,-5.166v-0.158l-1.453,2.899c-1.102,1.633 -2.721,2.438 -4.842,2.425h-0.248V39.548z" id="path_3"/><path fill="#D50000" d="M196.417,11.942c0.165,-0.096 0.213,0.056 0.145,0.448c-0.917,2.148 -2.321,3.65 -4.215,4.497l-6.963,3.492c-0.296,-0.083 -0.351,-0.323 -0.165,-0.73c0.93,-1.791 1.563,-2.851 1.901,-3.188L196.417,11.942z" id="path_4"/><path fill="#203e96" d="M184.453,44.148c-0.255,0 -0.565,0 -0.93,0c-1.44,-0.014 -2.989,-1.096 -4.663,-3.251c-0.641,2.369 -1.771,3.554 -3.389,3.554h-0.158c-1.371,0 -2.5,-0.806 -3.389,-2.425h-0.165c-0.964,1.942 -2.135,2.824 -3.513,2.646c-2.555,0.014 -4.07,-1.191 -4.56,-3.609c-1.797,2.107 -3.733,3.141 -5.792,3.086h-0.262v-4.601h0.083c3.257,-0.11 5.675,-1.22 7.266,-3.327c0.213,0 0.324,0.158 0.324,0.482l-0.165,1.129c0.861,1.722 1.99,2.583 3.389,2.583c1.322,0 2.665,-1.288 4.036,-3.87h0.166l0.482,0.481v1.13c0,1.02 0.757,1.611 2.259,1.776h0.324c1.398,0 2.693,-1.397 3.877,-4.201h0.158c0.213,0 0.324,0.489 0.324,1.454c0.592,1.632 2.024,2.417 4.297,2.362V44.148z" id="path_5"/><path fill="#203e96" d="M171.194,20.862h1.599c1.935,0 2.906,0.723 2.906,2.177c-1.254,3.388 -2.776,5.186 -4.566,5.393l-2.115,0.282c-0.337,0 -0.475,-0.097 -0.427,-0.282c1.708,-0.902 3.306,-1.977 4.787,-3.21c-0.523,-0.489 -1.102,-0.73 -1.735,-0.73h-0.448l-1.735,0.146l-0.138,-0.146v-0.282C170.141,21.978 170.768,20.862 171.194,20.862z" id="path_6"/><path fill="#000002" d="M141.579,39.548c1.791,0.151 3.313,-0.028 4.58,-0.523l-0.668,-1.213c-0.627,-3.554 -0.344,-5.902 0.847,-7.053c1.198,-1.15 2.486,-1.681 3.857,-1.584c2.665,0.124 4.167,1.522 4.518,4.194v0.972c0,2.231 -0.324,3.629 -0.964,4.194c-0.406,0.42 0.51,0.771 2.741,1.054l0.523,-0.021c0.407,-0.015 0.868,-0.021 1.392,-0.021v4.601l-1.632,0.021c-3.037,-0.014 -5.338,-0.399 -6.901,-1.15c-2.149,0.751 -3.822,1.13 -5,1.13h-0.647c-0.806,0 -1.688,0 -2.645,0V39.548L141.579,39.548zM147.289,34.987v0.324c0.675,1.157 1.694,1.963 3.065,2.418c0.916,-0.159 1.832,-0.538 2.748,-1.13c-0.406,-1.509 -1.749,-2.369 -4.036,-2.583C147.881,34.341 147.289,34.664 147.289,34.987z" id="path_7"/><path fill="#000002" d="M148.259,21.269c1.398,0 2.686,0.86 3.871,2.583c-0.992,2.259 -1.75,3.388 -2.259,3.388c-2.176,-1.074 -3.361,-1.776 -3.554,-2.101C146.317,24.119 146.964,22.825 148.259,21.269z" id="path_8"/><path fill="#000002" d="M154.148,9.945c0.165,-0.097 0.213,0.055 0.145,0.447c-0.916,2.149 -2.321,3.65 -4.215,4.498l-6.963,3.492c-0.296,-0.083 -0.351,-0.324 -0.166,-0.73c0.93,-1.791 1.563,-2.852 1.901,-3.189L154.148,9.945z" id="path_9"/><path fill="#f26122" d="M142.054,44.148c-0.103,0 -0.213,0 -0.317,0h-1.453c-1.453,0 -3.127,-0.916 -5.007,-2.741c-3.23,1.77 -6.715,2.686 -10.455,2.741v-4.58c1.956,0.131 4.47,-0.276 7.548,-1.233v-0.158c-1.48,-0.971 -2.878,-1.453 -4.194,-1.453l-1.295,0.158l-0.324,-0.806c0.434,-2.906 1.674,-4.359 3.713,-4.359l2.583,-0.159c4.091,0.482 6.137,1.398 6.137,2.741v0.647l-0.971,3.23c0.785,0.95 2.128,1.412 4.036,1.371V44.148z" id="path_10"/><path fill="#f26122" d="M138.948,18.238l0.166,0.145v0.44c-0.84,1.791 -2.004,3.044 -3.492,3.774c-4.628,2.514 -7.198,3.774 -7.707,3.774c-0.193,0 -0.29,-0.151 -0.29,-0.448c0.447,-1.708 1.419,-2.864 2.907,-3.471l8.278,-4.215H138.948z" id="path_11"/><path fill="#f26122" d="M137.797,14.608c0.186,0 0.283,0.138 0.283,0.42c-0.537,1.563 -2.128,2.969 -4.78,4.222l-6.116,3.348l-0.138,-0.145v-0.158c0.579,-2.046 1.494,-3.306 2.762,-3.774l6.818,-3.492L137.797,14.608z" id="path_12"/><path fill="#000002" d="M125.229,44.148c-3.134,0.186 -5.414,-1.261 -6.839,-4.34c-0.688,-1.143 -1.329,-8.85 -1.936,-23.12v-0.324c0.399,-2.369 0.992,-3.554 1.77,-3.554l0.813,-0.158c0.992,0 2.5,0.323 4.518,0.964v0.324c-0.11,0.323 -0.434,0.488 -0.971,0.488h-2.741c-0.564,0 -1.102,0.317 -1.619,0.965c0.503,12.391 1.233,19.567 2.204,21.529c0.964,1.964 2.569,2.838 4.801,2.625V44.148z" id="path_13"/><path fill="#000002" d="M106.928,46.628c0.551,0 1.839,0.646 3.871,1.941c0,0.807 -0.641,2.095 -1.936,3.871c-2.583,-0.833 -3.871,-1.584 -3.871,-2.259C105.055,49.575 105.702,48.391 106.928,46.628z" id="path_14"/><path fill="#000002" d="M103.051,39.548c4.229,0.041 6.591,-0.751 7.108,-2.384c0,-0.564 -0.538,-1.963 -1.619,-4.194l0.489,-4.194h0.317c1.405,2.418 2.101,4.842 2.101,7.26v1.453c0,0.971 -0.234,1.99 -0.695,3.058s-1.178,1.97 -2.135,2.693c-0.964,0.729 -2.817,1.033 -5.565,0.909V39.548z" id="path_15"/><path fill="#000002" d="M114.856,53.329c0.165,-0.09 0.213,0.055 0.144,0.447c-0.916,2.149 -2.32,3.65 -4.214,4.498l-6.963,3.492c-0.296,-0.083 -0.352,-0.324 -0.166,-0.724c0.93,-1.791 1.563,-2.852 1.901,-3.188L114.856,53.329z" id="path_16"/><path fill="#D50000" d="M103.396,44.148c-3.134,0.186 -5.414,-1.261 -6.839,-4.34c-0.688,-1.143 -1.329,-8.85 -1.936,-23.12v-0.324c0.399,-2.369 0.992,-3.554 1.77,-3.554l0.813,-0.158c0.992,0 2.5,0.323 4.518,0.964v0.324c-0.11,0.323 -0.434,0.488 -0.971,0.488h-2.742c-0.564,0 -1.102,0.317 -1.619,0.965c0.503,12.391 1.233,19.567 2.204,21.529c0.964,1.964 2.569,2.838 4.801,2.625V44.148z" id="path_17"/><path fill="#000002" d="M82.416,39.526c0.186,0.014 0.386,0.021 0.606,0.021h1.529c1.619,-0.269 2.852,-0.834 3.712,-1.694l-1.936,-15.339c0.482,-2.906 0.916,-4.353 1.288,-4.353l2.101,4.842c0,0.751 -0.269,1.88 -0.806,3.389l0.806,8.712v2.425c-0.606,2.568 -1.418,4.366 -2.438,5.386c-0.771,0.819 -1.674,1.233 -2.728,1.233h-1.371c-0.269,0 -0.523,-0.007 -0.765,-0.021V39.526z" id="path_18"/><path fill="#e21171" d="M76.465,25.786c0.551,0 1.846,0.647 3.878,1.936c0,0.806 -0.647,2.101 -1.942,3.878c-2.583,-0.834 -3.871,-1.591 -3.871,-2.259C74.599,28.734 75.24,27.55 76.465,25.786z" id="path_19"/><path fill="#e21171" d="M70.591,39.548c1.15,0.014 1.859,-0.008 2.142,-0.063c2.425,-0.737 4.078,-2.308 4.966,-4.697c0.131,-0.461 0.4,-0.517 0.806,-0.165c0.214,0.186 0.379,0.943 0.482,2.259c1.467,1.977 3.299,2.865 5.489,2.666h0.427v4.601h-0.104c-3.43,-0.159 -5.958,-1.723 -7.59,-4.684h-0.159c-1.143,2.41 -2.651,3.892 -4.518,4.442c-0.565,0.158 -1.212,0.241 -1.942,0.241V39.548z" id="path_20"/><path fill="#e21171" d="M80.136,14.14c0.296,0.51 0.641,1.963 1.033,4.359c-0.241,1.454 -0.875,2.177 -1.901,2.177h-0.138c-0.448,0 -1.026,-0.289 -1.756,-0.868c-0.496,0.875 -1.226,1.316 -2.176,1.316c-1.157,0 -1.736,-1.405 -1.736,-4.216c0.337,-1.067 0.627,-1.598 0.868,-1.598l0.138,0.145v2.479c0.2,0.861 0.448,1.288 0.73,1.288h0.585c0.606,0 0.992,-0.241 1.171,-0.724l-0.303,-2.176c0.117,-0.73 0.317,-1.116 0.585,-1.15h0.303c0.303,2.418 0.792,3.63 1.446,3.63h1.013v-0.145l-0.441,-2.899v-0.166C79.675,14.622 79.868,14.14 80.136,14.14z" id="path_21"/><path fill="#e21171" d="M82.575,5.263c0.165,-0.097 0.213,0.055 0.145,0.447c-0.916,2.148 -2.321,3.65 -4.215,4.497l-6.963,3.492c-0.296,-0.083 -0.351,-0.323 -0.166,-0.73c0.93,-1.791 1.564,-2.851 1.901,-3.188L82.575,5.263z" id="path_22"/><path fill="#000002" d="M70.632,44.148c-3.134,0.186 -5.414,-1.261 -6.839,-4.34c-0.688,-1.143 -1.329,-8.85 -1.935,-23.12v-0.324c0.399,-2.369 0.992,-3.554 1.77,-3.554l0.813,-0.158c0.992,0 2.5,0.323 4.518,0.964v0.324c-0.11,0.323 -0.434,0.488 -0.971,0.488h-2.741c-0.564,0 -1.102,0.317 -1.619,0.965c0.503,12.391 1.233,19.567 2.204,21.529c0.964,1.964 2.569,2.838 4.801,2.625V44.148z" id="path_23"/><path fill="#008146" d="M35.699,39.548h0.627c2.128,-0.228 3.919,-1.516 5.372,-3.857c0.213,-0.482 0.427,-0.751 0.641,-0.806h0.165l0.482,0.489c-0.069,0.612 -0.172,1.047 -0.324,1.288c0.944,1.722 2.074,2.582 3.389,2.582l0.165,0.158c2.342,-5.165 4.973,-7.748 7.907,-7.748c2.342,0 4.063,0.971 5.166,2.906v0.972c0,5.916 -3.657,8.878 -10.979,8.878l-2.417,-0.159c-0.751,2.039 -1.239,3.065 -1.453,3.065l-0.159,-0.158v-0.166l0.482,-2.741v-0.323c-1.591,-0.889 -2.824,-2.128 -3.712,-3.712c-0.833,2.728 -2.617,4.042 -5.352,3.933V39.548L35.699,39.548zM47.828,39.727h0.324c3.657,0 6.777,-0.537 9.36,-1.612c0,-1.156 -1.074,-1.962 -3.223,-2.424h-0.647C51.058,35.69 49.123,37.04 47.828,39.727z" id="path_24"/><path fill="#008146" d="M54.226,48.177c0.166,-0.089 0.214,0.056 0.145,0.448c-0.916,2.149 -2.321,3.65 -4.214,4.497l-6.963,3.492c-0.296,-0.083 -0.352,-0.324 -0.166,-0.723c0.93,-1.791 1.563,-2.852 1.901,-3.189L54.226,48.177z" id="path_25"/><path fill="#000002" d="M24.935,47.055c0.668,0 1.853,0.806 3.547,2.417c0,0.545 -0.64,1.723 -1.936,3.555h-0.323c-0.675,0 -1.695,-0.647 -3.065,-1.936v-0.166C23.158,50.284 23.75,48.99 24.935,47.055z" id="path_26"/><path fill="#000002" d="M30.741,46.249c2.693,1.157 4.036,2.065 4.036,2.741c-0.159,0.509 -0.909,1.639 -2.259,3.389c-1.805,-0.696 -3.092,-1.502 -3.871,-2.418C29.211,48.156 29.907,46.917 30.741,46.249z" id="path_27"/><path fill="#000002" d="M22.083,39.548c1.15,0.014 1.86,-0.008 2.142,-0.063c2.424,-0.737 4.077,-2.308 4.966,-4.697c0.131,-0.461 0.399,-0.517 0.806,-0.165c0.213,0.186 0.378,0.943 0.481,2.259c1.467,1.977 3.299,2.865 5.49,2.666h0.427v4.601h-0.104c-3.43,-0.159 -5.958,-1.723 -7.589,-4.684h-0.159c-1.144,2.41 -2.651,3.892 -4.518,4.442c-0.565,0.158 -1.212,0.241 -1.942,0.241V39.548z" id="path_28"/><path fill="#000002" d="M34.557,20.297c0.165,-0.097 0.213,0.056 0.144,0.447c-0.916,2.149 -2.321,3.65 -4.215,4.498l-6.963,3.492c-0.296,-0.083 -0.351,-0.324 -0.165,-0.73c0.93,-1.791 1.563,-2.852 1.901,-3.188L34.557,20.297z" id="path_29"/><path fill="#D50000" d="M8.887,16.502h0.647c2.128,1.212 3.203,1.915 3.23,2.101c-1.054,2.26 -1.75,3.444 -2.101,3.555c-1.212,0 -2.397,-0.593 -3.554,-1.777C7.33,19.223 7.922,17.928 8.887,16.502z" id="path_30"/><path fill="#D50000" d="M14.534,15.696c1.026,0 2.266,0.702 3.719,2.101c0,0.564 -0.702,1.694 -2.101,3.389c-0.806,0 -1.99,-0.537 -3.554,-1.611C12.599,18.631 13.247,17.336 14.534,15.696z" id="path_31"/><path fill="#D50000" d="M22.489,44.148h-0.042c-3.092,0 -5.193,-1.509 -6.295,-4.519l-0.324,-1.295h-0.324c-0.241,0.861 -1.963,1.398 -5.166,1.619H9.534c-2.156,0 -3.23,-0.647 -3.23,-1.942v-1.453c0,-1.557 1.184,-3.492 3.554,-5.807c1.425,-1.081 3.037,-1.99 4.842,-2.748l-0.166,-0.481c0.593,-2.693 1.082,-4.036 1.453,-4.036c0.193,0.454 0.462,3.795 0.813,10.007c0.482,4.188 2.376,6.22 5.689,6.116V44.148L22.489,44.148zM8.239,34.788c0.62,0.428 1.646,0.641 3.072,0.641c1.398,-0.104 2.686,-0.372 3.871,-0.806l-0.324,-4.519H14.7C10.395,32.15 8.239,33.707 8.239,34.788z" id="path_32"/><path fill="#D50000" d="M18.006,45.133c0.165,-0.09 0.213,0.056 0.145,0.448c-0.916,2.148 -2.321,3.65 -4.215,4.497L6.972,53.57c-0.296,-0.083 -0.351,-0.324 -0.165,-0.724c0.93,-1.79 1.563,-2.852 1.901,-3.188L18.006,45.133z" id="path_33"/><path fill="#f26122" d="M129.856,11.531c-0.569,-0.826 -1.504,-2.196 -2.687,-2.196c-0.966,0 -1.598,1.607 -1.598,2.608c0,0.075 0,0.147 0.009,0.213c-0.266,0.247 -0.76,0.697 -0.76,1.988c0,0.348 0.038,0.751 0.128,1.239c0.313,1.701 0.644,3.523 0.644,5.065c0,0.291 -0.009,0.494 -0.009,0.694c0,0.294 0.019,0.395 0.101,0.395c0.166,0 0.479,-0.66 0.56,-1.786c0.019,-0.247 0.019,-0.513 0.019,-0.75c0,-2.668 -0.622,-4.791 -0.622,-5.342c0.05,-0.422 1.37,-0.688 2.452,-0.688c0.522,0 0.807,0.071 1.007,0.128c0.019,0.01 0.072,0.019 0.09,0.019c0.038,0 0.066,-0.019 0.11,-0.065c0.256,-0.285 0.506,-0.916 0.569,-1.386C129.881,11.597 129.872,11.559 129.856,11.531L129.856,11.531zM127.739,11.44c-0.375,0.027 -1.129,0.1 -1.532,0.365c0.084,-0.328 0.25,-0.763 0.65,-0.763C127.217,11.043 127.483,11.196 127.739,11.44z" id="path_34"/></svg>