<svg id="vector" xmlns="http://www.w3.org/2000/svg" width="174" height="67" viewBox="0 0 174.113 67"><path fill="#000002" d="M55.56,41.228l-0.522,-4.662h0.02l7.668,-6.234c5.064,-4.09 8.468,-6.722 10.227,-7.906l0.152,0.158v0.166l-2.79,7.259l-0.152,0.165c-0.152,0.104 -0.284,0.076 -0.39,-0.082c-0.099,-0.158 -0.125,-0.455 -0.073,-0.889l0.152,-1.13H69.7l-10.385,8.555c4.033,0.124 8.488,2.21 13.367,6.253c1.533,0.944 2.71,1.42 3.523,1.42v4.594h-0.311c-1.507,0 -3.986,-1.344 -7.437,-4.029l-0.152,0.158c-1.897,5.166 -4.33,7.748 -7.285,7.748h-0.311V48.17h0.932c2.129,-0.145 3.887,-1.144 5.269,-2.989v-0.964c0,-0.792 -2.637,-1.818 -7.899,-3.071h-2.328v0.082H55.56z" id="path_0"/><path fill="#000002" d="M71.458,15.034c0.159,-0.096 0.205,0.056 0.139,0.448c-0.879,2.148 -2.228,3.65 -4.045,4.497l-6.684,3.492c-0.284,-0.082 -0.337,-0.323 -0.158,-0.73c0.892,-1.79 1.5,-2.851 1.825,-3.188L71.458,15.034z" id="path_1"/><path fill="#203e96" d="M50.489,48.17c0.026,0 0.06,0 0.093,0c2.479,-0.159 3.9,-1.315 4.264,-3.472c-0.932,-6.453 -1.395,-10.979 -1.395,-13.561c0,-0.992 0.417,-2.287 1.243,-3.871l0.152,0.158l0.311,0.324l-0.159,1.129c0.132,7.253 1.011,12.873 2.637,16.867c0.622,1.453 2.142,2.266 4.568,2.425v4.601c-3.332,-0.055 -5.573,-1.88 -6.737,-5.488h-0.158c-1.071,3.615 -2.677,5.447 -4.819,5.488V48.17z" id="path_2"/><path fill="#203e96" d="M57.246,18.024c0.284,0.51 0.615,1.963 0.991,4.359c-0.231,1.453 -0.84,2.176 -1.824,2.176H56.28c-0.43,0 -0.985,-0.289 -1.686,-0.867c-0.476,0.875 -1.176,1.315 -2.089,1.315c-1.111,0 -1.666,-1.405 -1.666,-4.216c0.324,-1.066 0.601,-1.598 0.833,-1.598l0.132,0.145v2.48c0.192,0.86 0.43,1.287 0.701,1.287h0.562c0.582,0 0.952,-0.24 1.124,-0.723L53.9,20.207c0.112,-0.729 0.304,-1.116 0.562,-1.149h0.291c0.291,2.417 0.761,3.629 1.388,3.629h0.972v-0.145l-0.423,-2.899v-0.165C56.802,18.506 56.987,18.024 57.246,18.024z" id="path_3"/><path fill="#203e96" d="M59.585,9.146c0.159,-0.096 0.205,0.056 0.139,0.448c-0.879,2.148 -2.228,3.65 -4.045,4.497l-6.684,3.492c-0.284,-0.082 -0.337,-0.324 -0.159,-0.729c0.893,-1.791 1.5,-2.853 1.825,-3.189L59.585,9.146z" id="path_4"/><path fill="#D50000" d="M36.904,48.17h0.35c1.058,0 2.175,-0.427 3.352,-1.28c1.176,-0.854 1.864,-1.93 2.076,-3.217l0.152,-0.166h0.152c0.185,0 0.442,0.593 0.78,1.777c1.467,2.101 3.537,3.064 6.194,2.906c0.179,0 0.363,-0.007 0.542,-0.021v4.622c-0.179,0.014 -0.363,0.02 -0.542,0.02l-2.168,-0.262c-0.231,2.149 -0.906,3.225 -2.016,3.23h-0.311c-2.063,-0.406 -3.094,-1.156 -3.094,-2.266l0.463,-2.906c-0.364,-0.428 -0.72,-0.641 -1.084,-0.641c-1.164,1.894 -2.777,2.83 -4.846,2.803V48.17z" id="path_5"/><path fill="#D50000" d="M44.903,25.042c1.587,0 2.38,1.02 2.38,3.051c0,3.238 -2.651,6 -7.959,8.272c-0.76,0.241 -0.853,-0.048 -0.271,-0.868c0.146,-0.31 1.395,-1.281 3.755,-2.906v-0.138c-1.018,-0.435 -1.527,-1.356 -1.527,-2.769c0.674,-3.093 1.746,-4.643 3.213,-4.643H44.903L44.903,25.042zM42.537,28.534c0,0.861 0.701,1.391 2.095,1.598h0.271c0.516,0 0.846,-0.199 0.985,-0.585c0,-0.875 -0.608,-1.557 -1.818,-2.039C43.542,27.508 43.032,27.853 42.537,28.534z" id="path_6"/><path fill="#000002" d="M37.836,52.771l-1.745,-0.021c-0.965,4.429 -3.524,6.667 -7.669,6.722c-2.221,0.104 -3.332,0.063 -3.332,-0.123c0.205,-0.406 1.692,-1.186 4.456,-2.342c2.843,-1.881 4.555,-3.093 5.149,-3.63l0.159,-0.482l-2.71,-0.447c-1.977,-0.538 -3.087,-1.571 -3.332,-3.106v-0.324c0,-2.609 0.615,-4.276 1.857,-5.007l0.933,-0.158c1.831,0 3.325,1.329 4.489,3.995c0.74,0.268 1.322,0.398 1.745,0.385V52.771z" id="path_7"/><path fill="#000002" d="M30.65,30.573h1.534c1.857,0 2.79,0.723 2.79,2.176c-1.203,3.389 -2.664,5.187 -4.383,5.393l-2.03,0.283c-0.324,0 -0.456,-0.097 -0.41,-0.283c1.64,-0.902 3.173,-1.977 4.594,-3.209c-0.502,-0.489 -1.058,-0.73 -1.666,-0.73h-0.43l-1.666,0.145l-0.132,-0.145V33.92C29.639,31.688 30.24,30.573 30.65,30.573z" id="path_8"/><path fill="#203e96" d="M14.87,43.087h0.311c1.447,0.345 2.737,1.158 3.874,2.418v0.323c-0.099,0.86 -0.72,1.99 -1.857,3.389c-2.684,-0.937 -4.026,-1.749 -4.026,-2.417C13.813,44.864 14.381,43.624 14.87,43.087z" id="path_9"/><path fill="#203e96" d="M23.087,39.856h0.304c0.363,0 1.243,2.425 2.638,7.267l0.152,0.641c0,3.795 -0.879,6.543 -2.631,8.237c-2.479,2.797 -5.421,4.194 -8.832,4.194c-2.79,-0.647 -4.595,-1.288 -5.421,-1.935c-2.69,-2.397 -4.033,-5.359 -4.033,-8.879c0,-2.961 1.243,-5.758 3.722,-8.395l0.152,-0.159H9.45l0.311,0.317c0,0.275 -0.721,1.453 -2.168,3.553c-0.417,0.751 -0.675,1.777 -0.774,3.065c0,2.507 1.236,4.655 3.715,6.46c2.426,0.971 4.079,1.453 4.958,1.453c2.221,0 4.852,-1.025 7.9,-3.064c1.243,-1.137 1.864,-1.832 1.864,-2.101l-2.168,-6.295l-0.159,-1.13L23.087,39.856z" id="path_10"/><path fill="#203e96" d="M20.522,26.44c0.159,-0.097 0.205,0.055 0.139,0.447c-0.879,2.148 -2.228,3.65 -4.045,4.498l-6.684,3.492c-0.284,-0.083 -0.337,-0.324 -0.159,-0.73c0.893,-1.791 1.5,-2.852 1.825,-3.189L20.522,26.44z" id="path_11"/><path fill="#008146" d="M146.206,48.17h0.602c2.042,-0.228 3.761,-1.515 5.156,-3.856c0.205,-0.482 0.41,-0.751 0.615,-0.807h0.159l0.463,0.489c-0.066,0.613 -0.166,1.047 -0.311,1.288c0.905,1.722 1.99,2.583 3.252,2.583l0.159,0.158c2.248,-5.165 4.773,-7.748 7.589,-7.748c2.248,0 3.9,0.971 4.958,2.906v0.972c0,5.916 -3.511,8.877 -10.538,8.877l-2.32,-0.158c-0.721,2.039 -1.19,3.064 -1.395,3.064l-0.152,-0.158v-0.165l0.462,-2.741V52.55c-1.527,-0.888 -2.71,-2.127 -3.563,-3.712c-0.8,2.728 -2.512,4.043 -5.137,3.933V48.17L146.206,48.17zM157.848,48.349h0.311c3.51,0 6.505,-0.537 8.984,-1.611c0,-1.157 -1.031,-1.963 -3.094,-2.424h-0.622C160.948,44.313 159.09,45.663 157.848,48.349z" id="path_12"/><path fill="#008146" d="M164.22,27.646c0.159,-0.097 0.205,0.055 0.139,0.447c-0.879,2.148 -2.228,3.65 -4.045,4.498l-6.684,3.492c-0.284,-0.083 -0.337,-0.324 -0.159,-0.73c0.893,-1.791 1.5,-2.852 1.825,-3.189L164.22,27.646z" id="path_13"/><path fill="#000002" d="M130.717,48.17c1.719,0.151 3.18,-0.027 4.396,-0.523l-0.641,-1.212c-0.602,-3.555 -0.331,-5.902 0.813,-7.053c1.15,-1.15 2.387,-1.681 3.702,-1.584c2.558,0.124 4,1.521 4.336,4.194v0.972c0,2.23 -0.311,3.629 -0.926,4.193c-0.39,0.42 0.489,0.771 2.631,1.055l0.502,-0.021c0.39,-0.014 0.833,-0.021 1.335,-0.021v4.601l-1.566,0.021c-2.916,-0.014 -5.124,-0.4 -6.625,-1.15c-2.063,0.75 -3.669,1.129 -4.799,1.129h-0.622c-0.773,0 -1.62,0 -2.539,0V48.17L130.717,48.17zM136.198,43.61v0.324c0.647,1.156 1.626,1.963 2.942,2.417c0.878,-0.158 1.758,-0.537 2.637,-1.13c-0.39,-1.508 -1.679,-2.369 -3.874,-2.582C136.766,42.964 136.198,43.287 136.198,43.61z" id="path_14"/><path fill="#000002" d="M137.129,29.892c1.342,0 2.579,0.86 3.715,2.582c-0.952,2.26 -1.679,3.389 -2.168,3.389c-2.088,-1.074 -3.226,-1.777 -3.411,-2.101C135.265,32.742 135.887,31.447 137.129,29.892z" id="path_15"/><path fill="#000002" d="M140.084,18.106c0.284,0.51 0.615,1.963 0.992,4.359c-0.231,1.453 -0.84,2.177 -1.825,2.177h-0.132c-0.43,0 -0.984,-0.289 -1.686,-0.868c-0.476,0.875 -1.177,1.316 -2.089,1.316c-1.11,0 -1.666,-1.405 -1.666,-4.215c0.324,-1.068 0.602,-1.599 0.833,-1.599l0.132,0.146v2.479c0.191,0.861 0.43,1.288 0.701,1.288h0.562c0.582,0 0.952,-0.241 1.124,-0.724l-0.291,-2.176c0.112,-0.73 0.304,-1.116 0.562,-1.15h0.291c0.291,2.418 0.76,3.629 1.388,3.629h0.972v-0.144l-0.423,-2.899V19.56C139.642,18.589 139.827,18.106 140.084,18.106z" id="path_16"/><path fill="#000002" d="M142.22,10.435l0.159,0.145v0.44c-0.807,1.79 -1.924,3.044 -3.352,3.774c-4.442,2.514 -6.908,3.774 -7.397,3.774c-0.186,0 -0.278,-0.151 -0.278,-0.448c0.43,-1.707 1.362,-2.865 2.79,-3.471l7.946,-4.215H142.22z" id="path_17"/><path fill="#000002" d="M141.116,6.804c0.179,0 0.271,0.139 0.271,0.421c-0.516,1.563 -2.042,2.968 -4.588,4.222l-5.87,3.348l-0.132,-0.145v-0.158c0.555,-2.046 1.435,-3.307 2.651,-3.775l6.544,-3.491L141.116,6.804z" id="path_18"/><path fill="#D50000" d="M130.85,52.771c-3.008,0.186 -5.196,-1.26 -6.565,-4.339c-0.661,-1.144 -1.276,-8.851 -1.857,-23.12v-0.324c0.383,-2.369 0.952,-3.555 1.699,-3.555l0.78,-0.158c0.952,0 2.4,0.324 4.337,0.965v0.324c-0.106,0.322 -0.417,0.488 -0.932,0.488h-2.631c-0.542,0 -1.058,0.316 -1.554,0.964c0.482,12.391 1.183,19.567 2.115,21.53c0.926,1.963 2.466,2.838 4.608,2.624V52.771z" id="path_19"/><path fill="#D50000" d="M117.198,28.555l1.243,3.878c0.621,0.592 0.932,1.074 0.932,1.453l-1.084,4.842l0.152,2.582c0,6.337 -2.168,10.697 -6.505,13.072c-3.53,1.186 -6.009,1.777 -7.437,1.777l-0.159,-0.158v-0.324l3.252,-1.611c1.322,-0.633 3.074,-1.66 5.269,-3.071c2.38,-2.314 3.722,-3.927 4.033,-4.842l-0.39,-6.777l-0.39,-6.784C116.53,29.904 116.894,28.555 117.198,28.555z" id="path_20"/><path fill="#D50000" d="M119.387,18.465c0.284,0.51 0.615,1.963 0.991,4.359c-0.231,1.454 -0.839,2.177 -1.825,2.177h-0.132c-0.43,0 -0.985,-0.289 -1.686,-0.868c-0.476,0.875 -1.176,1.315 -2.089,1.315c-1.111,0 -1.666,-1.404 -1.666,-4.215c0.323,-1.067 0.601,-1.598 0.833,-1.598l0.132,0.145v2.479c0.192,0.86 0.43,1.288 0.701,1.288h0.562c0.582,0 0.952,-0.241 1.124,-0.724l-0.291,-2.177c0.112,-0.729 0.304,-1.115 0.562,-1.149h0.291c0.291,2.417 0.761,3.63 1.388,3.63h0.972v-0.145l-0.423,-2.9v-0.165C118.943,18.946 119.128,18.465 119.387,18.465z" id="path_21"/><path fill="#D50000" d="M121.733,9.587c0.159,-0.096 0.205,0.055 0.139,0.447c-0.879,2.149 -2.228,3.65 -4.046,4.498l-6.684,3.492c-0.284,-0.083 -0.337,-0.324 -0.159,-0.73c0.893,-1.791 1.501,-2.852 1.825,-3.189L121.733,9.587z" id="path_22"/><path fill="#000002" d="M101.518,27.425c1.263,0 3.847,2.046 7.741,6.137c3.001,3.768 4.495,7.314 4.495,10.655v1.288c-0.079,2.259 -0.284,3.389 -0.621,3.389l-0.311,-0.317v-1.942c0,-3.064 -2.168,-6.832 -6.505,-11.295l-0.773,-0.489c-0.284,1.081 -0.542,1.618 -0.773,1.618l-3.722,-4.842l0.158,-4.035l0.152,-0.166H101.518z" id="path_23"/><path fill="#000002" d="M90.054,51.62h0.311c1.058,0.241 2.194,0.889 3.411,1.943v0.158c-0.701,2.203 -1.315,3.389 -1.857,3.553c-1.58,-0.323 -2.763,-0.86 -3.563,-1.618v-0.158C88.355,54.231 88.924,52.942 90.054,51.62z" id="path_24"/><path fill="#000002" d="M95.792,50.167h0.152c1.058,0.166 2.248,0.916 3.563,2.26v0.165l-1.858,3.388c-2.479,-0.832 -3.722,-1.535 -3.722,-2.1C94.728,51.407 95.349,50.167 95.792,50.167z" id="path_25"/><path fill="#000002" d="M88.679,44.237c4.059,0.041 6.327,-0.751 6.822,-2.383c0,-0.564 -0.516,-1.963 -1.554,-4.195l0.47,-4.193h0.304c1.348,2.417 2.016,4.842 2.016,7.259v1.454c0,0.971 -0.225,1.989 -0.668,3.057c-0.443,1.068 -1.13,1.971 -2.049,2.693c-0.925,0.73 -2.704,1.033 -5.341,0.909V44.237z" id="path_26"/><path fill="#000002" d="M100.301,22.343c0.159,-0.098 0.205,0.055 0.139,0.447c-0.879,2.148 -2.228,3.65 -4.046,4.497l-6.684,3.492c-0.284,-0.083 -0.337,-0.323 -0.159,-0.729c0.893,-1.791 1.501,-2.852 1.825,-3.189L100.301,22.343z" id="path_27"/><path fill="#D50000" d="M78.347,30.903c0.642,0 1.778,0.806 3.405,2.418c0,0.537 -0.615,1.721 -1.858,3.553h-0.31c-0.648,0 -1.627,-0.646 -2.942,-1.941v-0.158C76.642,34.126 77.21,32.839 78.347,30.903z" id="path_28"/><path fill="#D50000" d="M83.92,30.091c2.585,1.156 3.874,2.072 3.874,2.748c-0.152,0.51 -0.873,1.639 -2.168,3.389c-1.732,-0.703 -2.968,-1.509 -3.715,-2.425C82.452,32.005 83.12,30.766 83.92,30.091z" id="path_29"/><path fill="#D50000" d="M75.61,44.237c1.104,0.014 1.785,-0.007 2.056,-0.063c2.327,-0.736 3.914,-2.307 4.766,-4.697c0.126,-0.461 0.383,-0.516 0.773,-0.165c0.205,0.187 0.364,0.944 0.463,2.259c1.408,1.977 3.167,2.865 5.269,2.666h0.41v4.601h-0.099c-3.292,-0.158 -5.718,-1.722 -7.285,-4.683h-0.152c-1.097,2.41 -2.545,3.891 -4.336,4.441c-0.542,0.158 -1.163,0.241 -1.864,0.241V44.237z" id="path_30"/><path fill="#D50000" d="M87.582,18.39c0.159,-0.098 0.205,0.055 0.139,0.447c-0.879,2.148 -2.228,3.65 -4.046,4.497l-6.684,3.491c-0.284,-0.082 -0.337,-0.322 -0.159,-0.729c0.893,-1.79 1.501,-2.851 1.825,-3.188L87.582,18.39z" id="path_31"/></svg>