<svg id="vector" xmlns="http://www.w3.org/2000/svg" width="174" height="67" viewBox="0 0 189.6 72.959"><path fill="#213e95" d="M166.992,42.326c0.24,0 0.487,0 0.75,0h0.18c2.19,-0.135 4.186,-1.957 5.971,-5.469c1.935,-2.932 3.93,-4.395 5.978,-4.395c2.58,0 3.869,1.635 3.869,4.92v0.877c0,1.613 -0.645,3.721 -1.935,6.33l-1.229,0.879c-1.088,0 -3.601,-0.766 -7.561,-2.287c-1.2,1.799 -2.138,2.895 -2.813,3.277c-1.027,0.711 -2.077,1.012 -3.165,0.877h-0.045V42.326L166.992,42.326zM175.827,38.613v0.172c3.045,1.178 4.867,1.764 5.452,1.764c0.232,0 0.354,-0.18 0.354,-0.533c-0.676,-1.756 -1.793,-2.633 -3.346,-2.633C177.207,37.383 176.382,37.795 175.827,38.613z" id="path_0"/><path fill="#213e95" d="M181.295,50.014c0.18,-0.098 0.232,0.061 0.157,0.488c-0.998,2.34 -2.527,3.975 -4.59,4.896l-7.583,3.803c-0.322,-0.09 -0.382,-0.354 -0.18,-0.787c1.013,-1.951 1.702,-3.105 2.07,-3.473L181.295,50.014z" id="path_1"/><path fill="#000001" d="M151.88,42.656c1.732,0.555 3.075,1.26 4.042,2.107v0.352c0,0.586 -0.645,1.875 -1.935,3.871c-1.2,0 -2.543,-0.645 -4.043,-1.936v-0.352C149.944,45.438 150.59,44.096 151.88,42.656z" id="path_2"/><path fill="#000001" d="M167.375,47.268c-1.598,0 -2.835,-0.246 -3.721,-0.742c-0.435,3.811 -1.252,6.443 -2.46,7.912c-2.895,3.631 -5.887,5.445 -8.962,5.445c-5.655,0 -9.345,-2.459 -11.078,-7.379c-0.345,-0.938 -0.524,-1.936 -0.524,-2.992v-1.404c0,-4.162 1.29,-7.439 3.87,-9.846c0.465,0.18 0.704,0.584 0.704,1.229l-2.813,5.102l-0.18,1.754c0,3.961 2.168,6.713 6.503,8.266l4.575,0.352c1.927,0 4.335,-1.117 7.207,-3.338c1.05,-1.701 1.582,-2.932 1.582,-3.697c-0.119,-1.17 -0.885,-2.865 -2.287,-5.092v-3.697l0.525,-0.525c1.274,2.564 3.63,3.803 7.058,3.713V47.268z" id="path_3"/><path fill="#000001" d="M151.835,22.684h1.74c2.106,0 3.164,0.787 3.164,2.369c-1.364,3.691 -3.022,5.648 -4.973,5.873l-2.302,0.307c-0.368,0 -0.518,-0.104 -0.465,-0.307c1.859,-0.982 3.6,-2.152 5.212,-3.494c-0.569,-0.533 -1.2,-0.795 -1.89,-0.795h-0.487l-1.891,0.156l-0.149,-0.156v-0.309C150.688,23.898 151.37,22.684 151.835,22.684z" id="path_4"/><path fill="#000001" d="M132.446,31.916c0.99,0 2.341,0.816 4.043,2.459v0.354c-1.147,2.459 -1.905,3.689 -2.287,3.689l-4.043,-2.279h-0.18c-1.141,1.957 -1.897,3.014 -2.28,3.156h-0.18c-2.572,-1.139 -3.862,-2.016 -3.862,-2.631c0.937,-2.58 1.755,-3.871 2.459,-3.871l4.216,2.287C131.007,33.701 131.712,32.65 132.446,31.916z" id="path_5"/><path fill="#000001" d="M127.872,26.471c1.147,0 2.43,0.99 3.87,2.984c-0.383,0.908 -1.147,1.967 -2.288,3.166h-0.353c-1.02,-0.232 -2.138,-0.877 -3.337,-1.936V30.16C125.854,29.223 126.552,27.994 127.872,26.471z" id="path_6"/><path fill="#000001" d="M116.555,45.693h0.067c2.722,-0.121 4.598,-1.432 5.625,-3.953c0,-0.352 0.232,-0.645 0.705,-0.885h0.352c0.233,0 0.354,0.18 0.354,0.533l-0.181,1.049c0.998,1.764 2.056,2.641 3.165,2.641h0.878c1.522,0 2.7,-1.521 3.518,-4.566h0.18c0.173,0.021 0.465,0.727 0.878,2.107c0.997,0.877 1.987,1.402 2.984,1.582c1.17,0 1.763,-0.705 1.763,-2.107c0.112,-2.229 0.345,-3.346 0.697,-3.346c0.473,0.998 0.705,2.229 0.705,3.689c0,4.344 -1.058,6.512 -3.165,6.512c-1.643,0 -2.984,-0.826 -4.042,-2.469h-0.353c-0.728,2.348 -1.905,3.518 -3.518,3.518h-0.173c-1.433,0 -3.075,-1.109 -4.92,-3.338c-1.553,2.693 -3.314,4.043 -5.272,4.043h-0.247V45.693z" id="path_7"/><path fill="#000001" d="M133.827,15.236c0.18,-0.105 0.232,0.059 0.157,0.486c-0.998,2.34 -2.527,3.977 -4.59,4.898l-7.583,3.803c-0.322,-0.09 -0.382,-0.354 -0.18,-0.795c1.013,-1.951 1.702,-3.105 2.07,-3.473L133.827,15.236z" id="path_8"/><path fill="#213e95" d="M116.771,50.719c-0.157,0.014 -0.322,0.021 -0.48,0.021h-0.885c-1.372,0 -2.31,-0.111 -2.813,-0.352c-1.02,3.945 -2.212,6.359 -3.577,7.244s-4.447,1.635 -9.247,2.25h-0.353c-1.058,-0.119 -1.583,-0.293 -1.583,-0.525c0,-0.352 0.878,-0.764 2.633,-1.229c6.915,-3.166 10.372,-5.453 10.372,-6.855c0,-0.586 -0.817,-1.936 -2.46,-4.043c-0.353,-0.592 -0.524,-1.35 -0.524,-2.287v-1.756c0,-0.885 0.172,-1.35 0.524,-1.408c1.522,2.332 4.103,3.629 7.732,3.906c0.226,0 0.442,0 0.66,-0.014V50.719z" id="path_9"/><path fill="#213e95" d="M110.007,29.014c0.322,0.555 0.697,2.137 1.125,4.746c-0.263,1.584 -0.953,2.371 -2.07,2.371h-0.149c-0.488,0 -1.118,-0.314 -1.913,-0.945c-0.54,0.953 -1.335,1.434 -2.37,1.434c-1.26,0 -1.89,-1.531 -1.89,-4.592c0.367,-1.162 0.683,-1.738 0.945,-1.738l0.149,0.156v2.701c0.218,0.938 0.488,1.402 0.795,1.402h0.638c0.66,0 1.08,-0.264 1.275,-0.789l-0.33,-2.369c0.127,-0.795 0.345,-1.215 0.638,-1.252h0.33c0.329,2.633 0.862,3.951 1.574,3.951h1.103v-0.156l-0.479,-3.158v-0.18C109.504,29.539 109.714,29.014 110.007,29.014z" id="path_10"/><path fill="#213e95" d="M111.807,61.594c0.181,-0.098 0.232,0.059 0.157,0.486c-0.997,2.34 -2.527,3.975 -4.59,4.898l-7.582,3.803c-0.322,-0.09 -0.383,-0.354 -0.181,-0.789c1.013,-1.949 1.703,-3.104 2.07,-3.471L111.807,61.594z" id="path_11"/><path fill="#000001" d="M95.959,22.264c0.353,0 0.705,1.178 1.058,3.518l1.582,3.518l-0.705,4.043l0.525,9.846v1.576c-0.232,4.02 -0.817,6.359 -1.755,7.035l-0.173,-0.174l0.173,-2.639c0,-2.371 -0.766,-9.93 -2.288,-22.672C95.111,23.613 95.637,22.264 95.959,22.264z" id="path_12"/><path fill="#000001" d="M82.849,46.766c0.202,0.016 0.42,0.023 0.659,0.023h1.666c1.762,-0.293 3.104,-0.908 4.042,-1.846L87.108,28.24c0.525,-3.164 0.997,-4.738 1.402,-4.738l2.288,5.271c0,0.818 -0.293,2.047 -0.878,3.689l0.878,9.488v2.641c-0.66,2.797 -1.545,4.754 -2.655,5.863c-0.84,0.893 -1.823,1.344 -2.97,1.344h-1.493c-0.292,0 -0.569,-0.008 -0.832,-0.023V46.766z" id="path_13"/><path fill="#e21171" d="M75.266,31.803c0.601,0 2.011,0.705 4.223,2.107c0,0.879 -0.705,2.289 -2.114,4.223c-2.813,-0.906 -4.216,-1.732 -4.216,-2.459C73.233,35.014 73.931,33.723 75.266,31.803z" id="path_14"/><path fill="#e21171" d="M68.868,46.789c1.253,0.014 2.025,-0.008 2.333,-0.068c2.64,-0.803 4.439,-2.512 5.407,-5.115c0.143,-0.502 0.436,-0.563 0.878,-0.18c0.232,0.203 0.412,1.027 0.524,2.461c1.598,2.152 3.593,3.119 5.978,2.902h0.466v5.01h-0.113c-3.734,-0.174 -6.487,-1.875 -8.265,-5.1h-0.173c-1.245,2.625 -2.888,4.236 -4.92,4.836c-0.615,0.174 -1.32,0.264 -2.115,0.264V46.789z" id="path_15"/><path fill="#e21171" d="M79.264,19.121c0.322,0.555 0.697,2.137 1.125,4.748c-0.263,1.582 -0.953,2.369 -2.07,2.369h-0.15c-0.487,0 -1.117,-0.314 -1.912,-0.945c-0.54,0.953 -1.335,1.434 -2.37,1.434c-1.26,0 -1.89,-1.531 -1.89,-4.59c0.367,-1.164 0.683,-1.74 0.945,-1.74l0.149,0.156v2.701c0.218,0.938 0.487,1.402 0.795,1.402h0.638c0.66,0 1.08,-0.264 1.274,-0.787l-0.329,-2.371c0.127,-0.795 0.345,-1.215 0.637,-1.252h0.33c0.33,2.633 0.863,3.953 1.575,3.953h1.103v-0.158l-0.48,-3.158v-0.18C78.761,19.646 78.971,19.121 79.264,19.121z" id="path_16"/><path fill="#e21171" d="M81.919,9.453c0.18,-0.105 0.232,0.061 0.157,0.488c-0.998,2.34 -2.527,3.975 -4.59,4.896l-7.583,3.803c-0.322,-0.09 -0.383,-0.352 -0.18,-0.795c1.013,-1.949 1.702,-3.105 2.07,-3.473L81.919,9.453z" id="path_17"/><path fill="#000001" d="M50.966,46.789c1.95,0.164 3.607,-0.031 4.987,-0.57l-0.728,-1.32c-0.683,-3.869 -0.375,-6.428 0.923,-7.68c1.305,-1.254 2.708,-1.83 4.2,-1.725c2.902,0.135 4.537,1.656 4.92,4.566v1.059c0,2.43 -0.353,3.951 -1.051,4.566c-0.442,0.457 0.556,0.84 2.985,1.148l0.57,-0.023c0.442,-0.016 0.944,-0.021 1.515,-0.021v5.01l-1.777,0.021c-3.308,-0.014 -5.813,-0.434 -7.515,-1.252c-2.341,0.818 -4.163,1.23 -5.445,1.23h-0.705c-0.877,0 -1.838,0 -2.88,0V46.789L50.966,46.789zM57.184,41.824v0.352c0.734,1.26 1.845,2.139 3.337,2.633c0.998,-0.172 1.995,-0.586 2.993,-1.23c-0.443,-1.643 -1.905,-2.58 -4.396,-2.813C57.828,41.119 57.184,41.471 57.184,41.824z" id="path_18"/><path fill="#000001" d="M58.241,26.883c1.522,0 2.925,0.938 4.215,2.813c-1.08,2.461 -1.905,3.691 -2.46,3.691c-2.37,-1.172 -3.66,-1.936 -3.87,-2.289C56.126,29.988 56.831,28.578 58.241,26.883z" id="path_19"/><path fill="#000001" d="M61.594,16.451c0.322,0.555 0.697,2.137 1.125,4.746c-0.263,1.584 -0.953,2.371 -2.07,2.371h-0.15c-0.487,0 -1.117,-0.314 -1.912,-0.945c-0.54,0.953 -1.335,1.434 -2.37,1.434c-1.26,0 -1.89,-1.531 -1.89,-4.592c0.367,-1.162 0.683,-1.738 0.944,-1.738l0.15,0.156v2.701c0.218,0.938 0.487,1.402 0.795,1.402h0.638c0.66,0 1.08,-0.264 1.274,-0.789l-0.33,-2.369c0.128,-0.795 0.346,-1.215 0.638,-1.252h0.33c0.33,2.633 0.862,3.951 1.575,3.951h1.103v-0.156l-0.48,-3.158v-0.18C61.091,16.977 61.301,16.451 61.594,16.451z" id="path_20"/><path fill="#DD2C00" d="M39.019,32.268c0.728,0 2.018,0.879 3.862,2.633c0,0.586 -0.697,1.875 -2.107,3.871h-0.353c-0.734,0 -1.845,-0.705 -3.337,-2.115v-0.174C37.084,35.779 37.729,34.375 39.019,32.268z" id="path_21"/><path fill="#DD2C00" d="M45.341,31.383c2.933,1.26 4.396,2.258 4.396,2.992c-0.173,0.557 -0.99,1.785 -2.46,3.691c-1.965,-0.766 -3.368,-1.643 -4.216,-2.641C43.676,33.469 44.434,32.119 45.341,31.383z" id="path_22"/><path fill="#DD2C00" d="M41.126,26.291c2.692,1.109 4.043,2.047 4.043,2.813l-2.288,3.51h-0.172c-0.503,0 -1.846,-0.697 -4.043,-2.107C39.746,27.693 40.571,26.291 41.126,26.291z" id="path_23"/><path fill="#DD2C00" d="M35.913,46.789c1.253,0.014 2.025,-0.008 2.333,-0.068c2.64,-0.803 4.439,-2.512 5.407,-5.115c0.143,-0.502 0.436,-0.563 0.878,-0.18c0.232,0.203 0.412,1.027 0.524,2.461c1.598,2.152 3.593,3.119 5.978,2.902h0.466v5.01h-0.113c-3.734,-0.174 -6.487,-1.875 -8.265,-5.1h-0.173c-1.245,2.625 -2.887,4.236 -4.92,4.836c-0.615,0.174 -1.319,0.264 -2.115,0.264V46.789z" id="path_24"/><path fill="#213e95" d="M36.378,51.82c-2.242,-0.18 -4.268,-1.754 -6.09,-4.725c-2.692,3.277 -6.563,4.92 -11.595,4.92h-1.41c-5.444,0 -9.195,-2.34 -11.25,-7.027L5.86,43.932v-1.584c0,-1.693 0.758,-3.629 2.28,-5.797h0.181l0.353,0.354v0.877l-0.886,2.813c0,3.074 2.58,5.182 7.74,6.33l3.165,0.172c5.475,0 9.81,-1.875 13.005,-5.625c0.173,0 0.353,0.232 0.525,0.705l-0.173,1.23c0.6,2.213 2.04,3.322 4.327,3.338V51.82z" id="path_25"/><path fill="#213e95" d="M16.054,35.141h0.353c1.199,0.264 2.489,0.967 3.869,2.107v0.18c-0.794,2.4 -1.5,3.691 -2.114,3.871c-1.785,-0.354 -3.136,-0.938 -4.043,-1.764v-0.172C14.118,37.984 14.764,36.58 16.054,35.141z" id="path_26"/><path fill="#213e95" d="M22.556,33.559h0.18c1.2,0.18 2.551,0.998 4.043,2.459v0.182l-2.115,3.689c-2.813,-0.908 -4.215,-1.672 -4.215,-2.287C21.355,34.908 22.061,33.559 22.556,33.559z" id="path_27"/><path fill="#213e95" d="M24.971,55.264c0.181,-0.098 0.232,0.061 0.158,0.486c-0.998,2.34 -2.528,3.975 -4.591,4.898l-7.582,3.803c-0.322,-0.09 -0.383,-0.354 -0.18,-0.787c1.012,-1.951 1.702,-3.105 2.069,-3.473L24.971,55.264z" id="path_28"/><path fill="#000001" d="M57.645,2.18c1.41,2.398 2.115,4.748 2.115,7.027c-0.615,4.334 -1.381,6.502 -2.288,6.502L57.3,15.537v-0.174l0.345,-2.287v-0.18c0,-1.402 -0.585,-3.51 -1.755,-6.322V6.223C56.475,3.521 57.06,2.18 57.645,2.18z" id="path_29"/><path fill="#DD2C00" d="M41.584,9.422c1.409,2.4 2.114,4.748 2.114,7.027c-0.614,4.336 -1.38,6.504 -2.287,6.504l-0.173,-0.174v-0.172l0.346,-2.287v-0.18c0,-1.402 -0.586,-3.51 -1.755,-6.322v-0.354C40.414,10.766 40.998,9.422 41.584,9.422z" id="path_30"/></svg>