<svg id="vector" xmlns="http://www.w3.org/2000/svg" width="102" height="73" viewBox="0 0 108 72.959"><path fill="#000001" d="M99.535,22.695c0.352,0 0.705,1.178 1.057,3.518l1.583,3.518l-0.705,4.042l0.525,9.848v1.574c-0.232,4.02 -0.818,6.361 -1.755,7.035l-0.173,-0.172l0.173,-2.641c0,-2.369 -0.765,-9.93 -2.288,-22.672C98.687,24.045 99.212,22.695 99.535,22.695z" id="path_0"/><path fill="#000001" d="M104.785,12.413c0.18,-0.105 0.232,0.06 0.157,0.487c-0.998,2.34 -2.527,3.975 -4.59,4.897l-7.583,3.803c-0.322,-0.09 -0.382,-0.353 -0.18,-0.795c1.013,-1.95 1.703,-3.105 2.07,-3.473L104.785,12.413z" id="path_1"/><path fill="#000001" d="M79.082,46.104c0.203,0.014 0.42,0.021 0.66,0.021h1.665c1.763,-0.291 3.105,-0.906 4.042,-1.844l-2.107,-16.704c0.525,-3.165 0.998,-4.74 1.402,-4.74l2.288,5.272c0,0.818 -0.292,2.048 -0.877,3.69l0.877,9.489v2.639c-0.66,2.797 -1.545,4.756 -2.655,5.865c-0.84,0.893 -1.823,1.342 -2.97,1.342h-1.493c-0.292,0 -0.57,-0.006 -0.833,-0.021V46.104z" id="path_2"/><path fill="#000001" d="M86.904,12.706h1.74c2.107,0 3.165,0.788 3.165,2.37c-1.365,3.69 -3.023,5.647 -4.973,5.873l-2.303,0.307c-0.367,0 -0.518,-0.105 -0.465,-0.307c1.86,-0.982 3.6,-2.153 5.212,-3.495c-0.57,-0.533 -1.2,-0.795 -1.89,-0.795h-0.487l-1.89,0.157l-0.15,-0.157v-0.308C85.757,13.92 86.439,12.706 86.904,12.706z" id="path_3"/><path fill="#213e95" d="M66.685,46.125h0.397c1.2,0 2.467,-0.465 3.803,-1.395c1.334,-0.93 2.115,-2.1 2.355,-3.502l0.172,-0.18h0.172c0.21,0 0.502,0.645 0.885,1.934c1.665,2.289 4.012,3.338 7.027,3.166c0.203,0 0.412,-0.008 0.615,-0.023v5.033c-0.203,0.016 -0.412,0.023 -0.615,0.023l-2.46,-0.285c-0.263,2.34 -1.028,3.51 -2.288,3.518h-0.353c-2.34,-0.443 -3.51,-1.262 -3.51,-2.469l0.525,-3.164c-0.413,-0.465 -0.818,-0.697 -1.23,-0.697c-1.32,2.063 -3.15,3.082 -5.498,3.051V46.125z" id="path_4"/><path fill="#213e95" d="M75.759,20.94c1.8,0 2.7,1.11 2.7,3.323c0,3.525 -3.008,6.532 -9.03,9.008c-0.863,0.262 -0.967,-0.053 -0.308,-0.945c0.165,-0.338 1.583,-1.395 4.26,-3.165v-0.15c-1.155,-0.472 -1.732,-1.477 -1.732,-3.015c0.765,-3.368 1.98,-5.055 3.645,-5.055H75.759L75.759,20.94zM73.074,24.743c0,0.938 0.795,1.515 2.377,1.74h0.308c0.585,0 0.96,-0.217 1.117,-0.637c0,-0.953 -0.69,-1.695 -2.062,-2.22C74.214,23.625 73.637,24 73.074,24.743z" id="path_5"/><path fill="#000001" d="M56.559,32.632c2.46,1.23 3.69,2.281 3.69,3.166c-1.17,2.309 -1.875,3.479 -2.107,3.51H57.79c-1.808,-0.908 -2.918,-1.725 -3.345,-2.46C54.856,35.513 55.562,34.111 56.559,32.632z" id="path_6"/><path fill="#000001" d="M67.501,51.15c-0.165,0.016 -0.322,0.023 -0.487,0.023h-0.877c-1.38,0 -2.317,-0.113 -2.813,-0.354c-1.027,3.945 -2.22,6.361 -3.585,7.246c-1.357,0.885 -4.44,1.635 -9.248,2.25h-0.353c-1.05,-0.121 -1.583,-0.293 -1.583,-0.525c0,-0.354 0.877,-0.766 2.64,-1.23c6.915,-3.164 10.373,-5.453 10.373,-6.855c0,-0.584 -0.825,-1.934 -2.46,-4.041c-0.353,-0.594 -0.533,-1.352 -0.533,-2.289v-1.754c0,-0.885 0.18,-1.35 0.533,-1.41c1.522,2.332 4.095,3.629 7.732,3.906c0.217,0 0.435,0 0.66,-0.014V51.15z" id="path_7"/><path fill="#000001" d="M59.762,22.98c0.323,0.555 0.698,2.138 1.125,4.747c-0.263,1.583 -0.953,2.37 -2.07,2.37h-0.15c-0.487,0 -1.117,-0.314 -1.913,-0.945c-0.54,0.953 -1.334,1.433 -2.37,1.433c-1.26,0 -1.89,-1.53 -1.89,-4.59c0.367,-1.162 0.683,-1.74 0.945,-1.74l0.15,0.158v2.7c0.217,0.938 0.487,1.402 0.795,1.402h0.637c0.66,0 1.08,-0.262 1.275,-0.788l-0.33,-2.37c0.127,-0.795 0.345,-1.215 0.637,-1.252h0.33c0.33,2.632 0.863,3.952 1.575,3.952h1.103V27.9l-0.48,-3.157v-0.18C59.259,23.505 59.469,22.98 59.762,22.98z" id="path_8"/><path fill="#000001" d="M62.417,13.313c0.18,-0.105 0.232,0.06 0.157,0.487c-0.998,2.34 -2.527,3.975 -4.59,4.898L50.402,22.5c-0.323,-0.09 -0.383,-0.353 -0.18,-0.795c1.013,-1.95 1.703,-3.105 2.07,-3.473L62.417,13.313z" id="path_9"/><path fill="#e21171" d="M29.567,43.703c0.24,0 0.487,0 0.75,0h0.18c2.19,-0.135 4.185,-1.957 5.97,-5.467c1.935,-2.934 3.93,-4.396 5.978,-4.396c2.58,0 3.87,1.636 3.87,4.921v0.877c0,1.611 -0.645,3.719 -1.935,6.33l-1.229,0.877c-1.087,0 -3.6,-0.766 -7.56,-2.287c-1.2,1.799 -2.138,2.895 -2.813,3.277c-1.028,0.713 -2.078,1.012 -3.165,0.877h-0.045V43.703L29.567,43.703zM38.402,39.99v0.174c3.045,1.176 4.867,1.762 5.452,1.762c0.232,0 0.353,-0.18 0.353,-0.533c-0.675,-1.754 -1.793,-2.631 -3.345,-2.631C39.782,38.762 38.957,39.174 38.402,39.99z" id="path_10"/><path fill="#e21171" d="M41.012,19.553c0.323,0.555 0.698,2.137 1.125,4.747c-0.263,1.583 -0.953,2.37 -2.07,2.37h-0.15c-0.487,0 -1.117,-0.315 -1.913,-0.945c-0.54,0.953 -1.334,1.433 -2.37,1.433c-1.26,0 -1.89,-1.53 -1.89,-4.59c0.367,-1.163 0.683,-1.74 0.945,-1.74l0.15,0.157v2.7c0.217,0.938 0.487,1.402 0.795,1.402h0.637c0.66,0 1.08,-0.263 1.275,-0.788l-0.33,-2.37c0.128,-0.794 0.345,-1.215 0.638,-1.252h0.33c0.33,2.632 0.863,3.952 1.575,3.952h1.103v-0.157l-0.48,-3.158v-0.18C40.509,20.078 40.719,19.553 41.012,19.553z" id="path_11"/><path fill="#e21171" d="M43.869,51.391c0.18,-0.098 0.232,0.061 0.157,0.488c-0.998,2.34 -2.527,3.975 -4.59,4.896l-7.583,3.803c-0.322,-0.09 -0.382,-0.354 -0.18,-0.787c1.013,-1.951 1.703,-3.105 2.07,-3.473L43.869,51.391z" id="path_12"/><path fill="#000001" d="M29.395,48.646c-1.703,0.014 -3.105,-0.855 -4.223,-2.611H25c-0.825,2.926 -2.055,4.98 -3.69,6.15c-2.318,2.229 -4.838,3.338 -7.56,3.338h-1.058c-3.105,0 -5.857,-1.756 -8.257,-5.273c-0.938,-1.611 -1.41,-3.486 -1.41,-5.625c0,-3.014 1.522,-6.059 4.575,-9.134c1.59,-1.013 2.063,-0.952 1.403,0.173c-2.692,3.75 -4.042,6.329 -4.042,7.733c0,3.637 2.692,6.037 8.085,7.207h1.41c3.015,0 6,-1.523 8.963,-4.568c0.308,-0.967 0.367,-2.023 0.172,-3.164c-0.585,-2.49 -1.462,-8.821 -2.633,-18.983l1.05,-3.518c0.165,-0.03 0.337,-0.03 0.533,0c0.322,0 0.908,4.455 1.755,13.357c0.585,4.688 1.29,7.62 2.107,8.79c0.72,0.795 1.717,1.162 2.993,1.119V48.646z" id="path_13"/><path fill="#000001" d="M15.242,15.706c1.8,0 2.7,1.11 2.7,3.322c0,3.525 -3.008,6.533 -9.03,9.008c-0.862,0.263 -0.967,-0.053 -0.308,-0.945c0.165,-0.337 1.583,-1.395 4.26,-3.165v-0.15c-1.155,-0.472 -1.732,-1.478 -1.732,-3.015c0.765,-3.368 1.98,-5.055 3.645,-5.055H15.242L15.242,15.706zM12.557,19.508c0,0.938 0.795,1.515 2.377,1.74h0.308c0.585,0 0.96,-0.217 1.118,-0.638c0,-0.952 -0.69,-1.695 -2.063,-2.22C13.697,18.391 13.119,18.766 12.557,19.508z" id="path_14"/></svg>