<svg id="vector" xmlns="http://www.w3.org/2000/svg" width="75" height="67" viewBox="0 0 84 73"><path fill="#213e95" d="M66.416,58.464h0.353c1.2,0.264 2.49,0.969 3.87,2.115v0.174c-0.795,2.398 -1.492,3.689 -2.107,3.869c-1.792,-0.354 -3.135,-0.938 -4.043,-1.762v-0.174C64.488,61.308 65.134,59.905 66.416,58.464z" id="path_0"/><path fill="#213e95" d="M72.927,56.882h0.172c1.2,0.18 2.551,0.998 4.043,2.461v0.18l-2.107,3.689c-2.813,-0.908 -4.223,-1.672 -4.223,-2.287C71.719,58.231 72.424,56.882 72.927,56.882z" id="path_1"/><path fill="#213e95" d="M64.856,50.425c4.604,0.045 7.178,-0.818 7.74,-2.596c0,-0.615 -0.585,-2.137 -1.763,-4.566l0.532,-4.568h0.345c1.53,2.633 2.288,5.273 2.288,7.904v1.584c0,1.057 -0.255,2.166 -0.758,3.33c-0.502,1.162 -1.282,2.145 -2.325,2.932c-1.05,0.795 -3.067,1.125 -6.06,0.99V50.425z" id="path_2"/><path fill="#213e95" d="M78.041,26.582c0.181,-0.105 0.232,0.06 0.158,0.487c-0.998,2.34 -2.528,3.975 -4.59,4.897l-7.583,3.802c-0.322,-0.09 -0.383,-0.353 -0.18,-0.794c1.012,-1.951 1.702,-3.106 2.069,-3.474L78.041,26.582z" id="path_3"/><path fill="#DD2C00" d="M54.446,28.532c2.46,1.23 3.69,2.28 3.69,3.166c-1.171,2.31 -1.876,3.479 -2.108,3.51h-0.352c-1.808,-0.907 -2.918,-1.725 -3.346,-2.46C52.743,31.413 53.449,30.01 54.446,28.532z" id="path_4"/><path fill="#DD2C00" d="M57.648,18.88c0.323,0.555 0.698,2.138 1.125,4.748c-0.262,1.583 -0.952,2.37 -2.069,2.37h-0.15c-0.487,0 -1.117,-0.315 -1.912,-0.945c-0.54,0.953 -1.335,1.433 -2.37,1.433c-1.261,0 -1.891,-1.53 -1.891,-4.59c0.368,-1.163 0.683,-1.74 0.945,-1.74l0.15,0.158v2.7c0.217,0.937 0.487,1.402 0.795,1.402h0.637c0.661,0 1.08,-0.262 1.275,-0.787l-0.33,-2.37c0.128,-0.795 0.345,-1.215 0.638,-1.252h0.33c0.33,2.633 0.862,3.953 1.575,3.953h1.103V23.8l-0.48,-3.157v-0.18C57.146,19.405 57.356,18.88 57.648,18.88z" id="path_5"/><path fill="#DD2C00" d="M60.304,9.212c0.181,-0.105 0.232,0.06 0.157,0.487c-0.997,2.34 -2.527,3.975 -4.59,4.898L48.289,18.4c-0.322,-0.09 -0.383,-0.353 -0.181,-0.795c1.013,-1.95 1.703,-3.105 2.07,-3.473L60.304,9.212z" id="path_6"/><path fill="#000001" d="M20.869,50.425h0.907h0.345h0.886c3.187,-0.232 5.122,-0.967 5.797,-2.197c0,-0.969 -1.109,-3.6 -3.337,-7.912l-0.354,-1.404c-0.382,-1.844 -0.367,-3.54 0.046,-5.077c0.404,-1.537 1.215,-2.603 2.415,-3.188c2.782,-1.875 8.114,-4.98 15.997,-9.315l0.173,0.18v0.345c-1.695,2.67 -2.985,5.13 -3.862,7.387h-0.353l-0.181,-0.877v-0.885l0.181,-0.173v-0.172h-0.181c-6.532,3.772 -10.927,6.533 -13.185,8.257v0.181c2.467,4.979 3.81,8.782 4.05,11.422c0,1.875 -0.645,3.869 -1.935,5.979c-1.23,1.641 -3.69,2.459 -7.388,2.459h-0.022V50.425z" id="path_7"/><path fill="#000001" d="M35.344,18.077c0.322,0.555 0.697,2.138 1.125,4.748c-0.263,1.583 -0.953,2.37 -2.07,2.37h-0.149c-0.488,0 -1.118,-0.315 -1.913,-0.945c-0.54,0.953 -1.335,1.433 -2.37,1.433c-1.26,0 -1.89,-1.53 -1.89,-4.59c0.367,-1.163 0.683,-1.74 0.945,-1.74l0.149,0.158v2.7c0.218,0.938 0.488,1.402 0.795,1.402h0.638c0.66,0 1.08,-0.263 1.275,-0.788l-0.33,-2.37c0.127,-0.795 0.345,-1.215 0.638,-1.252h0.33c0.329,2.633 0.862,3.953 1.574,3.953h1.103v-0.157l-0.479,-3.158v-0.18C34.841,18.602 35.051,18.077 35.344,18.077z" id="path_8"/><path fill="#000001" d="M38.007,8.41c0.18,-0.105 0.232,0.06 0.157,0.487c-0.998,2.34 -2.527,3.975 -4.59,4.897l-7.583,3.802c-0.322,-0.09 -0.382,-0.352 -0.18,-0.794c1.013,-1.951 1.702,-3.105 2.07,-3.473L38.007,8.41z" id="path_9"/><path fill="#008046" d="M24.379,55.45c-0.158,0.014 -0.323,0.021 -0.48,0.021h-0.885c-1.373,0 -2.31,-0.111 -2.813,-0.352c-1.021,3.945 -2.213,6.359 -3.577,7.244c-1.365,0.885 -4.448,1.635 -9.248,2.25H7.023c-1.058,-0.119 -1.582,-0.293 -1.582,-0.525c0,-0.352 0.877,-0.764 2.632,-1.229c6.915,-3.166 10.373,-5.453 10.373,-6.855c0,-0.586 -0.817,-1.936 -2.46,-4.043c-0.353,-0.592 -0.525,-1.35 -0.525,-2.287v-1.756c0,-0.885 0.173,-1.35 0.525,-1.41c1.522,2.334 4.103,3.631 7.732,3.908c0.225,0 0.442,0 0.66,-0.016V55.45z" id="path_10"/><path fill="#008046" d="M15.813,31.014c1.8,0 2.7,1.11 2.7,3.322c0,3.526 -3.008,6.534 -9.03,9.008c-0.862,0.262 -0.968,-0.053 -0.308,-0.945c0.165,-0.338 1.583,-1.395 4.261,-3.164v-0.15c-1.155,-0.473 -1.732,-1.479 -1.732,-3.016c0.765,-3.367 1.979,-5.055 3.645,-5.055H15.813L15.813,31.014zM13.129,34.817c0,0.938 0.795,1.516 2.377,1.74h0.308c0.585,0 0.96,-0.218 1.117,-0.638c0,-0.952 -0.689,-1.694 -2.063,-2.22C14.269,33.7 13.691,34.075 13.129,34.817z" id="path_11"/><path fill="#DD2C00" d="M65.071,55.444c-3.015,-0.203 -5.752,-1.777 -8.212,-4.867h-0.18c-1.051,6.09 -3.397,9.135 -7.028,9.143h-0.532c-1.575,-0.008 -3.105,-1.41 -4.567,-4.223c-1.17,-3.953 -1.755,-6.945 -1.755,-8.963v-1.41c0,-0.877 0.173,-1.35 0.525,-1.402c0.494,0.264 1.087,2.184 1.77,5.768c0.683,3.578 2.085,5.287 4.207,5.131c4.103,-0.676 6.271,-3.023 6.503,-7.035L54.22,42.14v-1.936c0.06,-2.348 0.292,-3.517 0.705,-3.517c0.232,0.525 0.412,1.058 0.524,1.583l2.46,7.732c1.936,3.135 4.328,4.619 7.162,4.439V55.444z" id="path_12"/></svg>