<svg id="vector" xmlns="http://www.w3.org/2000/svg" width="174" height="67" viewBox="0 0 189.6 72.959"><path fill="#DD2C00" d="M175.95,19.766c1.522,0 2.926,0.938 4.216,2.813c-1.08,2.461 -1.905,3.689 -2.461,3.689c-2.369,-1.17 -3.659,-1.934 -3.869,-2.287C173.835,22.871 174.541,21.461 175.95,19.766z" id="path_0"/><path fill="#DD2C00" d="M170.257,41.824h0.878c5.468,-0.105 9.098,-0.871 10.897,-2.311l0.353,-0.697c-0.232,-0.563 -0.525,-0.84 -0.878,-0.84c-0.848,0.473 -1.784,0.705 -2.813,0.705h-0.18c-3.045,-0.354 -4.628,-1.584 -4.74,-3.691v-0.18c0.293,-3.982 1.23,-5.969 2.813,-5.969h0.878c2.707,-0.137 4.763,1.973 6.15,6.322l0.172,1.762v0.354c-0.037,4.305 -1.583,7.146 -4.635,8.52c-1.08,0.689 -4.051,1.035 -8.896,1.035V41.824z" id="path_1"/><path fill="#DD2C00" d="M182.446,7.879c0.18,-0.105 0.232,0.061 0.157,0.486c-0.998,2.34 -2.527,3.977 -4.59,4.898l-7.583,3.803c-0.322,-0.09 -0.383,-0.354 -0.18,-0.795c1.013,-1.951 1.702,-3.105 2.07,-3.473L182.446,7.879z" id="path_2"/><path fill="#000001" d="M170.797,46.834c-0.112,0 -0.231,0 -0.345,0h-1.582c-1.583,0 -3.405,-0.998 -5.453,-2.986c-3.518,1.928 -7.313,2.926 -11.385,2.986v-4.988c2.13,0.143 4.867,-0.299 8.22,-1.342v-0.172c-1.612,-1.059 -3.135,-1.584 -4.567,-1.584l-1.41,0.172l-0.353,-0.877c0.473,-3.164 1.823,-4.746 4.043,-4.746l2.813,-0.174c4.455,0.525 6.683,1.523 6.683,2.986v0.705l-1.058,3.518c0.854,1.033 2.317,1.537 4.395,1.492V46.834z" id="path_3"/><path fill="#000001" d="M164.603,17.785c0.322,0.557 0.697,2.139 1.125,4.748c-0.263,1.582 -0.953,2.371 -2.07,2.371h-0.15c-0.487,0 -1.117,-0.316 -1.912,-0.945c-0.54,0.953 -1.335,1.432 -2.37,1.432c-1.26,0 -1.89,-1.529 -1.89,-4.59c0.367,-1.162 0.683,-1.74 0.945,-1.74l0.149,0.158v2.699c0.218,0.938 0.487,1.402 0.795,1.402h0.638c0.66,0 1.08,-0.262 1.274,-0.787l-0.329,-2.369c0.127,-0.795 0.345,-1.215 0.637,-1.254h0.33c0.33,2.633 0.863,3.953 1.575,3.953h1.103v-0.156l-0.48,-3.158v-0.18C164.1,18.311 164.31,17.785 164.603,17.785z" id="path_4"/><path fill="#000001" d="M167.265,8.119c0.181,-0.105 0.232,0.059 0.157,0.486c-0.997,2.34 -2.527,3.975 -4.59,4.898l-7.582,3.803c-0.322,-0.09 -0.383,-0.354 -0.181,-0.795c1.013,-1.951 1.703,-3.105 2.07,-3.473L167.265,8.119z" id="path_5"/><path fill="#213e95" d="M152.475,46.834c-3.412,0.201 -5.895,-1.373 -7.447,-4.727c-0.75,-1.244 -1.447,-9.637 -2.107,-25.176v-0.354c0.435,-2.58 1.08,-3.869 1.928,-3.869l0.885,-0.174c1.08,0 2.723,0.354 4.92,1.051v0.354c-0.12,0.352 -0.473,0.531 -1.058,0.531h-2.984c-0.615,0 -1.2,0.346 -1.763,1.051c0.547,13.492 1.342,21.307 2.399,23.445c1.05,2.137 2.798,3.09 5.228,2.857V46.834z" id="path_6"/><path fill="#000001" d="M138.166,13.916c0.322,0 0.555,0.877 0.705,2.641l1.755,2.984v0.18c0,0.787 -0.353,2.197 -1.058,4.215l1.058,11.955v4.215c-0.383,2.438 -1.785,4.838 -4.223,7.207c-2.43,1.877 -4.598,2.813 -6.503,2.813h-1.05c-5.1,0 -8.385,-2.52 -9.848,-7.551l-0.353,-3.166c0,-3.254 1.41,-6.127 4.223,-8.617h0.173l0.353,0.352c0,0.646 -0.817,2.229 -2.46,4.748c-0.353,0.908 -0.525,1.725 -0.525,2.461v0.18c0,2.984 2.4,5.152 7.208,6.502l2.106,0.174h0.354c3.397,0 6.382,-1.584 8.962,-4.748l0.173,-0.525c-1.402,-12.248 -2.107,-19.748 -2.107,-22.5v-0.352C137.108,15.791 137.46,14.74 138.166,13.916z" id="path_7"/><path fill="#000001" d="M130.741,10.076c1.342,0 2.137,0.893 2.369,2.678v0.486c-0.247,2.986 -1.245,4.936 -2.984,5.844c-3.03,1.904 -5.782,2.857 -8.243,2.857c-0.09,-0.016 -0.172,-0.037 -0.262,-0.068c-0.09,-0.029 -0.158,-0.074 -0.211,-0.135c-0.052,-0.053 -0.044,-0.09 0.016,-0.105c0.127,-0.291 2.34,-1.461 6.63,-3.494V17.98c-1.155,-0.727 -1.732,-1.732 -1.732,-3.008C127.013,11.703 128.483,10.076 130.741,10.076L130.741,10.076zM127.905,13.391v0.15c0,1.088 0.743,1.725 2.221,1.912h0.457c0.563,0 0.878,-0.156 0.945,-0.48c0,-1.477 -0.787,-2.219 -2.37,-2.219C128.326,12.941 127.905,13.158 127.905,13.391z" id="path_8"/><path fill="#000001" d="M127.268,7.219c0.337,-0.166 0.495,-0.053 0.479,0.33c-1.695,1.875 -3.029,3.652 -3.997,5.34c-0.278,0.66 -0.436,1.199 -0.473,1.635c-0.038,0.436 0.075,0.9 0.345,1.395h0.33c0.128,-0.734 0.391,-1.102 0.787,-1.102c0.473,0.209 0.735,0.42 0.788,0.637v0.309c0.03,1.672 -0.442,2.678 -1.425,3.014h-0.788c-1.058,-0.209 -1.582,-1.424 -1.582,-3.652C121.733,12.416 123.578,9.783 127.268,7.219z" id="path_9"/><path fill="#000001" d="M111.765,17.299c0.353,0 0.705,1.178 1.057,3.518l1.583,3.518l-0.705,4.043l0.525,9.846v1.576c-0.232,4.02 -0.817,6.359 -1.755,7.035l-0.173,-0.174l0.173,-2.639c0,-2.371 -0.766,-9.93 -2.288,-22.674C110.917,18.648 111.442,17.299 111.765,17.299z" id="path_10"/><path fill="#213e95" d="M97.455,41.801c0.202,0.016 0.42,0.023 0.66,0.023h1.665c1.763,-0.293 3.104,-0.908 4.042,-1.846l-2.107,-16.703c0.525,-3.164 0.998,-4.74 1.402,-4.74l2.288,5.273c0,0.818 -0.293,2.047 -0.878,3.689l0.878,9.488v2.641c-0.66,2.797 -1.545,4.754 -2.655,5.863c-0.84,0.893 -1.822,1.344 -2.97,1.344h-1.493c-0.292,0 -0.569,-0.008 -0.832,-0.023V41.801z" id="path_11"/><path fill="#213e95" d="M107.025,8.268c0.322,0.557 0.697,2.139 1.125,4.748c-0.263,1.582 -0.953,2.371 -2.07,2.371h-0.15c-0.487,0 -1.117,-0.316 -1.912,-0.945c-0.54,0.953 -1.335,1.432 -2.37,1.432c-1.26,0 -1.89,-1.529 -1.89,-4.59c0.367,-1.162 0.683,-1.74 0.944,-1.74l0.15,0.158V12.4c0.218,0.938 0.487,1.402 0.795,1.402h0.638c0.66,0 1.08,-0.262 1.274,-0.787l-0.329,-2.369c0.127,-0.795 0.345,-1.215 0.637,-1.254h0.33c0.33,2.633 0.863,3.953 1.575,3.953h1.103v-0.156l-0.48,-3.158v-0.18C106.522,8.793 106.732,8.268 107.025,8.268z" id="path_12"/><path fill="#213e95" d="M110.498,48.326c0.18,-0.098 0.232,0.061 0.157,0.488c-0.998,2.34 -2.527,3.975 -4.59,4.896l-7.583,3.803c-0.322,-0.09 -0.382,-0.354 -0.18,-0.787c1.013,-1.951 1.702,-3.105 2.07,-3.473L110.498,48.326z" id="path_13"/><path fill="#DD2C00" d="M83.182,41.824h0.397c1.2,0 2.467,-0.467 3.803,-1.396c1.334,-0.93 2.115,-2.1 2.355,-3.502l0.172,-0.18h0.172c0.21,0 0.502,0.645 0.885,1.936c1.665,2.287 4.013,3.338 7.027,3.164c0.202,0 0.412,-0.008 0.615,-0.021v5.031c-0.203,0.016 -0.413,0.023 -0.615,0.023l-2.46,-0.285c-0.263,2.34 -1.028,3.51 -2.288,3.518h-0.353c-2.34,-0.443 -3.51,-1.26 -3.51,-2.467l0.525,-3.166c-0.413,-0.465 -0.818,-0.697 -1.23,-0.697c-1.32,2.063 -3.15,3.082 -5.498,3.053V41.824z" id="path_14"/><path fill="#DD2C00" d="M97.11,19.871c0.18,-0.105 0.232,0.061 0.157,0.488c-0.998,2.34 -2.527,3.975 -4.59,4.896l-7.583,3.803c-0.322,-0.09 -0.382,-0.352 -0.18,-0.795c1.012,-1.949 1.702,-3.105 2.07,-3.473L97.11,19.871z" id="path_15"/><path fill="#000001" d="M83.842,46.834c-3.413,0.201 -5.895,-1.373 -7.448,-4.727c-0.75,-1.244 -1.447,-9.637 -2.107,-25.176v-0.354c0.435,-2.58 1.08,-3.869 1.927,-3.869l0.885,-0.174c1.08,0 2.723,0.354 4.92,1.051v0.354c-0.12,0.352 -0.473,0.531 -1.057,0.531h-2.985c-0.615,0 -1.2,0.346 -1.763,1.051c0.548,13.492 1.343,21.307 2.4,23.445c1.05,2.137 2.797,3.09 5.228,2.857V46.834z" id="path_16"/><path fill="#213e95" d="M59.594,48.768h0.353c1.2,0.264 2.49,0.969 3.87,2.115v0.174c-0.795,2.4 -1.493,3.689 -2.107,3.869c-1.792,-0.352 -3.135,-0.938 -4.042,-1.762V52.99C57.667,51.611 58.312,50.209 59.594,48.768z" id="path_17"/><path fill="#213e95" d="M66.104,47.186h0.173c1.2,0.18 2.55,0.998 4.042,2.461v0.18l-2.108,3.689c-2.813,-0.906 -4.222,-1.672 -4.222,-2.287C64.897,48.535 65.602,47.186 66.104,47.186z" id="path_18"/><path fill="#213e95" d="M58.035,40.729c4.605,0.045 7.177,-0.818 7.74,-2.596c0,-0.613 -0.585,-2.137 -1.763,-4.566l0.533,-4.568h0.345c1.53,2.633 2.288,5.273 2.288,7.906v1.582c0,1.057 -0.255,2.168 -0.758,3.33s-1.282,2.145 -2.325,2.932c-1.05,0.795 -3.067,1.125 -6.06,0.99V40.729z" id="path_19"/><path fill="#213e95" d="M66.367,13.654c1.8,0 2.7,1.109 2.7,3.322c0,3.525 -3.007,6.531 -9.03,9.008c-0.863,0.262 -0.968,-0.053 -0.308,-0.945c0.165,-0.338 1.583,-1.395 4.26,-3.166v-0.15c-1.155,-0.473 -1.733,-1.477 -1.733,-3.014c0.765,-3.367 1.98,-5.055 3.646,-5.055H66.367L66.367,13.654zM63.682,17.457c0,0.936 0.795,1.514 2.377,1.738h0.307c0.585,0 0.96,-0.217 1.118,-0.637c0,-0.953 -0.69,-1.695 -2.063,-2.221C64.822,16.338 64.245,16.713 63.682,17.457z" id="path_20"/><path fill="#DD2C00" d="M58.252,45.754c-0.158,0.014 -0.323,0.021 -0.48,0.021h-0.885c-1.373,0 -2.31,-0.111 -2.813,-0.352c-1.02,3.945 -2.212,6.359 -3.577,7.244c-1.365,0.885 -4.448,1.635 -9.248,2.25h-0.353c-1.058,-0.119 -1.583,-0.293 -1.583,-0.525c0,-0.352 0.877,-0.764 2.632,-1.229c6.915,-3.166 10.373,-5.453 10.373,-6.855c0,-0.586 -0.817,-1.936 -2.46,-4.043c-0.353,-0.592 -0.525,-1.35 -0.525,-2.287v-1.756c0,-0.885 0.172,-1.35 0.525,-1.408c1.522,2.332 4.103,3.629 7.732,3.906c0.225,0 0.442,0 0.66,-0.014V45.754z" id="path_21"/><path fill="#DD2C00" d="M53.287,56.629c0.18,-0.098 0.232,0.059 0.157,0.486c-0.998,2.34 -2.527,3.975 -4.59,4.898l-7.583,3.803c-0.322,-0.09 -0.382,-0.354 -0.18,-0.789c1.013,-1.949 1.703,-3.104 2.07,-3.471L53.287,56.629z" id="path_22"/><path fill="#000001" d="M26.617,49.863h0.353c1.2,0.262 2.49,0.967 3.87,2.115v0.172c-0.795,2.4 -1.493,3.691 -2.107,3.871c-1.792,-0.354 -3.135,-0.938 -4.043,-1.764v-0.172C24.689,52.705 25.334,51.303 26.617,49.863z" id="path_23"/><path fill="#000001" d="M33.127,48.281h0.172c1.2,0.18 2.55,0.998 4.042,2.459v0.182l-2.107,3.689c-2.813,-0.908 -4.223,-1.672 -4.223,-2.287C31.919,49.631 32.624,48.281 33.127,48.281z" id="path_24"/><path fill="#000001" d="M27.457,41.824c4.605,0.045 7.178,-0.818 7.74,-2.596c0,-0.615 -0.585,-2.137 -1.763,-4.568l0.533,-4.566h0.345c1.53,2.633 2.288,5.271 2.288,7.904v1.584c0,1.057 -0.255,2.166 -0.758,3.328c-0.502,1.164 -1.282,2.146 -2.325,2.934c-1.05,0.795 -3.067,1.125 -6.06,0.99V41.824z" id="path_25"/><path fill="#000001" d="M33.757,17.613h1.74c2.107,0 3.165,0.787 3.165,2.371c-1.365,3.689 -3.022,5.646 -4.973,5.871l-2.302,0.309c-0.368,0 -0.518,-0.105 -0.465,-0.309c1.86,-0.982 3.6,-2.152 5.212,-3.494c-0.57,-0.533 -1.2,-0.795 -1.89,-0.795h-0.487l-1.89,0.156l-0.15,-0.156v-0.309C32.609,18.828 33.292,17.613 33.757,17.613z" id="path_26"/><path fill="#0992d1" d="M28.087,46.855c-3.015,-0.201 -5.752,-1.852 -8.213,-4.941h-0.18c-1.05,6.09 -3.397,9.135 -7.027,9.143h-0.533c-1.575,-0.008 -3.105,-1.41 -4.567,-4.223c-1.17,-3.953 -1.755,-6.945 -1.755,-8.963v-1.41c0,-0.877 0.172,-1.35 0.525,-1.402c0.495,0.262 1.087,2.182 1.77,5.768c0.683,3.578 2.084,5.287 4.208,5.129c4.103,-0.674 6.27,-3.021 6.502,-7.035l-1.583,-5.443v-1.936c0.06,-2.348 0.292,-3.518 0.705,-3.518c0.232,0.525 0.412,1.057 0.525,1.582l2.46,7.732c1.935,3.135 4.328,4.621 7.163,4.441V46.855z" id="path_27"/><path fill="#0992d1" d="M18.007,11.561c1.8,0 2.7,1.109 2.7,3.322c0,3.525 -3.007,6.533 -9.03,9.008c-0.863,0.264 -0.967,-0.053 -0.308,-0.945c0.165,-0.338 1.583,-1.395 4.26,-3.164v-0.15c-1.155,-0.473 -1.732,-1.477 -1.732,-3.016c0.765,-3.367 1.98,-5.055 3.645,-5.055H18.007L18.007,11.561zM15.322,15.363c0,0.938 0.795,1.516 2.377,1.74h0.308c0.585,0 0.96,-0.217 1.117,-0.637c0,-0.953 -0.69,-1.695 -2.063,-2.221C16.462,14.246 15.884,14.621 15.322,15.363z" id="path_28"/></svg>