<svg id="vector" xmlns="http://www.w3.org/2000/svg" width="102" height="73" viewBox="0 0 101.905 72.959"><path fill="#000001" d="M77.548,45.6c0.255,0.029 0.503,-0.105 0.75,-0.398c-0.465,-0.57 -0.705,-1.162 -0.705,-1.777v-1.582c0.563,-5.152 2.61,-7.732 6.158,-7.732c1.784,0 3.72,0.938 5.797,2.813c0.766,0.293 1.17,0.584 1.229,0.877v0.172c0,0.271 -0.292,0.443 -0.877,0.533c0,-0.502 -1.522,-0.908 -4.567,-1.23h-0.705c-3.285,0.496 -4.92,1.373 -4.92,2.633c0,1.732 1.695,3.023 5.093,3.871l1.229,0.172c0.442,0 2.67,-1.109 6.683,-3.338h0.173l0.353,0.354c0,2.43 -2.692,5.068 -8.085,7.912c-3.84,1.17 -6.181,1.754 -7.028,1.754c-0.194,0 -0.382,-0.006 -0.577,-0.021V45.6z" id="path_0"/><path fill="#000001" d="M90.208,52.889c0.18,-0.098 0.232,0.061 0.157,0.488c-0.997,2.34 -2.527,3.975 -4.59,4.896l-7.582,3.803c-0.322,-0.09 -0.383,-0.352 -0.181,-0.787c1.013,-1.949 1.702,-3.105 2.07,-3.473L90.208,52.889z" id="path_1"/><path fill="#213e95" d="M65.098,45.621c0.03,0 0.067,0 0.105,0c2.813,-0.172 4.425,-1.432 4.837,-3.779c-1.057,-7.027 -1.582,-11.955 -1.582,-14.768c0,-1.08 0.473,-2.49 1.41,-4.215l0.172,0.172l0.353,0.354l-0.18,1.229c0.15,7.898 1.147,14.018 2.993,18.369c0.704,1.582 2.43,2.467 5.183,2.639v5.01c-3.78,-0.059 -6.323,-2.047 -7.644,-5.977h-0.18c-1.215,3.938 -3.037,5.932 -5.468,5.977V45.621z" id="path_2"/><path fill="#213e95" d="M72.763,12.795c0.322,0.555 0.697,2.137 1.125,4.746c-0.263,1.584 -0.952,2.371 -2.07,2.371h-0.149c-0.487,0 -1.117,-0.314 -1.913,-0.945c-0.54,0.953 -1.334,1.432 -2.37,1.432c-1.26,0 -1.89,-1.529 -1.89,-4.59c0.367,-1.162 0.683,-1.74 0.945,-1.74l0.15,0.158v2.701c0.217,0.938 0.487,1.402 0.794,1.402h0.638c0.66,0 1.08,-0.264 1.275,-0.789l-0.33,-2.369c0.128,-0.795 0.345,-1.215 0.638,-1.252h0.33c0.33,2.633 0.862,3.951 1.574,3.951h1.104v-0.156l-0.48,-3.158v-0.18C72.26,13.318 72.471,12.795 72.763,12.795z" id="path_3"/><path fill="#213e95" d="M77.466,53.504c0.18,-0.098 0.232,0.061 0.157,0.488c-0.998,2.34 -2.527,3.975 -4.59,4.896l-7.583,3.803c-0.322,-0.09 -0.382,-0.352 -0.18,-0.787c1.013,-1.949 1.702,-3.105 2.07,-3.473L77.466,53.504z" id="path_4"/><path fill="#DD2C00" d="M53.083,53.797c0.728,0 2.018,0.877 3.862,2.633c0,0.592 -0.697,1.875 -2.107,3.869h-0.353c-0.734,0 -1.845,-0.705 -3.337,-2.107v-0.18C51.148,57.314 51.793,55.904 53.083,53.797z" id="path_5"/><path fill="#DD2C00" d="M59.405,52.92c2.933,1.26 4.396,2.25 4.396,2.984c-0.173,0.555 -0.99,1.785 -2.46,3.689c-1.965,-0.758 -3.368,-1.635 -4.215,-2.633C57.74,54.996 58.498,53.646 59.405,52.92z" id="path_6"/><path fill="#DD2C00" d="M49.978,45.621c1.253,0.016 2.025,-0.008 2.333,-0.066c2.64,-0.803 4.44,-2.514 5.407,-5.115c0.143,-0.502 0.436,-0.563 0.878,-0.18c0.232,0.201 0.412,1.027 0.524,2.459c1.598,2.152 3.593,3.121 5.978,2.902h0.466v5.01H65.45c-3.734,-0.172 -6.487,-1.875 -8.265,-5.1h-0.173c-1.245,2.625 -2.887,4.238 -4.92,4.838c-0.614,0.172 -1.319,0.262 -2.115,0.262V45.621z" id="path_7"/><path fill="#DD2C00" d="M60.5,24.156c0.323,0.555 0.698,2.139 1.126,4.748c-0.263,1.582 -0.953,2.369 -2.07,2.369h-0.15c-0.487,0 -1.117,-0.314 -1.912,-0.945c-0.54,0.953 -1.335,1.434 -2.37,1.434c-1.26,0 -1.89,-1.529 -1.89,-4.59c0.367,-1.162 0.683,-1.74 0.944,-1.74l0.15,0.158v2.699c0.218,0.938 0.487,1.402 0.795,1.402h0.638c0.66,0 1.079,-0.262 1.274,-0.787l-0.33,-2.371c0.128,-0.793 0.346,-1.215 0.638,-1.252h0.33c0.33,2.633 0.862,3.953 1.575,3.953h1.103v-0.158l-0.48,-3.156v-0.18C59.998,24.682 60.208,24.156 60.5,24.156z" id="path_8"/><path fill="#DD2C00" d="M58.311,10.266c1.8,0 2.7,1.111 2.7,3.324c0,3.525 -3.008,6.531 -9.03,9.008c-0.862,0.262 -0.968,-0.053 -0.308,-0.945c0.165,-0.338 1.582,-1.396 4.26,-3.166v-0.15c-1.155,-0.473 -1.732,-1.477 -1.732,-3.014c0.766,-3.369 1.98,-5.057 3.646,-5.057H58.311L58.311,10.266zM55.625,14.068c0,0.938 0.796,1.516 2.378,1.74h0.308c0.585,0 0.96,-0.217 1.117,-0.637c0,-0.953 -0.689,-1.695 -2.063,-2.221C56.766,12.951 56.188,13.326 55.625,14.068z" id="path_9"/><path fill="#000001" d="M50.421,50.631l-1.98,-0.021c-1.095,4.822 -3.997,7.26 -8.7,7.32c-2.52,0.111 -3.78,0.066 -3.78,-0.135c0.232,-0.443 1.921,-1.291 5.056,-2.551c3.225,-2.047 5.167,-3.367 5.842,-3.953l0.181,-0.525l-3.075,-0.486c-2.242,-0.586 -3.503,-1.711 -3.78,-3.383v-0.352c0,-2.844 0.698,-4.658 2.107,-5.453l1.058,-0.172c2.078,0 3.772,1.447 5.093,4.35c0.84,0.293 1.5,0.436 1.98,0.42V50.631z" id="path_10"/><path fill="#000001" d="M42.268,26.459h1.74c2.107,0 3.165,0.787 3.165,2.371c-1.365,3.689 -3.022,5.646 -4.973,5.871l-2.303,0.309c-0.367,0 -0.518,-0.105 -0.465,-0.309c1.86,-0.982 3.601,-2.152 5.213,-3.494c-0.57,-0.533 -1.2,-0.795 -1.891,-0.795h-0.487l-1.89,0.156l-0.15,-0.156v-0.309C41.12,27.674 41.803,26.459 42.268,26.459z" id="path_11"/><path fill="#000001" d="M19.565,40.086h0.353c1.643,0.375 3.105,1.262 4.395,2.633v0.354c-0.112,0.938 -0.817,2.166 -2.107,3.689c-3.045,-1.02 -4.567,-1.904 -4.567,-2.633C18.365,42.021 19.011,40.672 19.565,40.086z" id="path_12"/><path fill="#000001" d="M28.888,36.568h0.346c0.412,0 1.409,2.641 2.992,7.914l0.173,0.697c0,4.133 -0.998,7.125 -2.985,8.969c-2.813,3.045 -6.15,4.568 -10.021,4.568c-3.165,-0.705 -5.212,-1.402 -6.149,-2.107C10.19,54 8.668,50.773 8.668,46.941c0,-3.225 1.41,-6.27 4.223,-9.143l0.172,-0.172h0.354l0.352,0.344c0,0.301 -0.817,1.584 -2.46,3.871c-0.473,0.818 -0.765,1.936 -0.877,3.338c0,2.73 1.402,5.07 4.215,7.035c2.752,1.057 4.627,1.582 5.625,1.582c2.52,0 5.505,-1.117 8.963,-3.338c1.409,-1.236 2.114,-1.994 2.114,-2.287l-2.46,-6.855l-0.18,-1.23L28.888,36.568z" id="path_13"/><path fill="#000001" d="M25.979,21.959c0.18,-0.105 0.232,0.061 0.157,0.488c-0.998,2.34 -2.527,3.975 -4.59,4.896l-7.583,3.803c-0.322,-0.09 -0.383,-0.352 -0.18,-0.795c1.013,-1.949 1.702,-3.105 2.07,-3.473L25.979,21.959z" id="path_14"/></svg>