<svg id="vector" xmlns="http://www.w3.org/2000/svg" width="75" height="67" viewBox="0 0 108 72.959"><path fill="#000001" d="M94.536,22.913c0.353,0 0.705,1.177 1.057,3.517l1.583,3.518l-0.705,4.042l0.525,9.848v1.576c-0.232,4.02 -0.817,6.359 -1.755,7.033l-0.173,-0.172l0.173,-2.641c0,-2.369 -0.766,-9.93 -2.288,-22.672C93.688,24.263 94.213,22.913 94.536,22.913z" id="path_0"/><path fill="#000001" d="M99.786,12.63c0.18,-0.105 0.232,0.06 0.157,0.487c-0.998,2.34 -2.527,3.975 -4.59,4.898l-7.583,3.802c-0.322,-0.09 -0.382,-0.353 -0.18,-0.795c1.013,-1.95 1.702,-3.105 2.07,-3.473L99.786,12.63z" id="path_1"/><path fill="#213e95" d="M74.083,47.416c0.202,0.014 0.42,0.021 0.66,0.021h1.665c1.763,-0.291 3.104,-0.906 4.042,-1.844L78.343,28.89c0.525,-3.165 0.998,-4.74 1.402,-4.74l2.288,5.272c0,0.818 -0.293,2.047 -0.878,3.69l0.878,9.489v2.639c-0.66,2.797 -1.545,4.756 -2.655,5.865c-0.84,0.893 -1.822,1.342 -2.97,1.342h-1.492c-0.293,0 -0.57,-0.006 -0.833,-0.021V47.416z" id="path_2"/><path fill="#213e95" d="M79.506,12.818h1.74c2.107,0 3.165,0.787 3.165,2.37c-1.365,3.69 -3.022,5.647 -4.973,5.873l-2.303,0.308c-0.367,0 -0.518,-0.105 -0.465,-0.308c1.86,-0.982 3.6,-2.152 5.213,-3.495c-0.57,-0.532 -1.2,-0.795 -1.891,-0.795h-0.487l-1.89,0.158l-0.15,-0.158v-0.307C78.358,14.033 79.041,12.818 79.506,12.818z" id="path_3"/><path fill="#000001" d="M61.686,47.438h0.397c1.2,0 2.468,-0.465 3.803,-1.395s2.115,-2.1 2.355,-3.502l0.172,-0.18h0.173c0.21,0 0.502,0.645 0.885,1.934c1.665,2.289 4.013,3.338 7.027,3.166c0.203,0 0.412,-0.008 0.615,-0.023v5.033c-0.203,0.016 -0.412,0.023 -0.615,0.023l-2.46,-0.285c-0.263,2.34 -1.027,3.51 -2.287,3.516h-0.353c-2.34,-0.441 -3.51,-1.26 -3.51,-2.467l0.524,-3.164c-0.412,-0.465 -0.817,-0.697 -1.229,-0.697c-1.32,2.063 -3.15,3.082 -5.498,3.051V47.438z" id="path_4"/><path fill="#000001" d="M70.761,22.253c1.8,0 2.7,1.11 2.7,3.323c0,3.525 -3.008,6.532 -9.03,9.008c-0.862,0.262 -0.968,-0.053 -0.308,-0.945c0.165,-0.338 1.582,-1.395 4.26,-3.166v-0.15c-1.154,-0.472 -1.732,-1.477 -1.732,-3.015c0.766,-3.368 1.98,-5.055 3.646,-5.055H70.761L70.761,22.253zM68.075,26.056c0,0.938 0.796,1.515 2.378,1.74h0.308c0.585,0 0.96,-0.217 1.117,-0.637c0,-0.953 -0.689,-1.695 -2.063,-2.22C69.216,24.938 68.638,25.313 68.075,26.056z" id="path_5"/><path fill="#DD2C00" d="M62.803,52.471c-3.015,-0.203 -5.752,-1.854 -8.212,-4.943H54.41c-1.05,6.092 -3.396,9.137 -7.027,9.143h-0.532c-1.575,-0.006 -3.105,-1.41 -4.567,-4.223c-1.17,-3.951 -1.755,-6.943 -1.755,-8.961v-1.41c0,-0.879 0.172,-1.35 0.525,-1.402c0.494,0.262 1.087,2.182 1.77,5.768c0.683,3.576 2.085,5.287 4.207,5.129c4.103,-0.674 6.271,-3.021 6.503,-7.035l-1.582,-5.445v-1.934c0.06,-2.348 0.292,-3.518 0.704,-3.518c0.232,0.525 0.413,1.057 0.525,1.582l2.46,7.733c1.936,3.135 4.327,4.619 7.162,4.439V52.471z" id="path_6"/><path fill="#DD2C00" d="M54.516,19.905c0.322,0.555 0.697,2.138 1.125,4.748c-0.263,1.583 -0.952,2.37 -2.07,2.37h-0.149c-0.487,0 -1.117,-0.315 -1.913,-0.945c-0.54,0.953 -1.334,1.433 -2.37,1.433c-1.26,0 -1.89,-1.53 -1.89,-4.59c0.367,-1.163 0.683,-1.74 0.945,-1.74l0.15,0.158v2.7c0.217,0.938 0.487,1.402 0.794,1.402h0.638c0.66,0 1.08,-0.263 1.275,-0.788l-0.33,-2.37c0.128,-0.795 0.345,-1.215 0.638,-1.252h0.33c0.33,2.633 0.862,3.953 1.574,3.953h1.104v-0.158l-0.48,-3.157v-0.18C54.014,20.43 54.224,19.905 54.516,19.905z" id="path_7"/><path fill="#DD2C00" d="M57.179,10.238c0.18,-0.105 0.232,0.06 0.157,0.487c-0.998,2.34 -2.527,3.975 -4.59,4.898l-7.583,3.802c-0.322,-0.09 -0.383,-0.352 -0.18,-0.795c1.013,-1.95 1.702,-3.105 2.07,-3.473L57.179,10.238z" id="path_8"/><path fill="#000001" d="M27.561,27.075c0.728,0 2.018,0.877 3.862,2.633c0,0.585 -0.697,1.875 -2.107,3.87h-0.353c-0.728,0 -1.845,-0.705 -3.337,-2.107v-0.18C25.626,30.585 26.271,29.183 27.561,27.075z" id="path_9"/><path fill="#000001" d="M33.891,26.198c2.925,1.252 4.388,2.25 4.388,2.985c-0.173,0.555 -0.99,1.785 -2.46,3.689c-1.958,-0.758 -3.368,-1.642 -4.215,-2.632C32.218,28.275 32.976,26.925 33.891,26.198z" id="path_10"/><path fill="#000001" d="M29.668,21.098c2.692,1.11 4.043,2.048 4.043,2.813l-2.288,3.518H31.25c-0.494,0 -1.845,-0.705 -4.042,-2.115C28.288,22.5 29.113,21.098 29.668,21.098z" id="path_11"/><path fill="#000001" d="M26.743,46.344c4.604,0.045 7.178,-0.818 7.74,-2.596c0,-0.615 -0.586,-2.137 -1.763,-4.568l0.532,-4.567h0.345c1.53,2.633 2.288,5.272 2.288,7.905v1.584c0,1.057 -0.255,2.166 -0.758,3.328c-0.502,1.164 -1.282,2.146 -2.325,2.934c-1.05,0.795 -3.067,1.125 -6.06,0.99V46.344z" id="path_12"/><path fill="#000001" d="M33.051,10.695c0.322,0.555 0.697,2.138 1.125,4.748c-0.263,1.583 -0.953,2.37 -2.07,2.37h-0.15c-0.487,0 -1.117,-0.315 -1.912,-0.945c-0.54,0.953 -1.335,1.433 -2.37,1.433c-1.26,0 -1.89,-1.53 -1.89,-4.59c0.367,-1.162 0.683,-1.74 0.945,-1.74l0.149,0.158v2.7c0.218,0.938 0.487,1.402 0.795,1.402h0.638c0.66,0 1.08,-0.262 1.274,-0.787l-0.329,-2.37c0.127,-0.795 0.345,-1.215 0.637,-1.252h0.33c0.33,2.632 0.862,3.952 1.575,3.952H32.9v-0.157l-0.48,-3.157v-0.18C32.548,11.22 32.758,10.695 33.051,10.695z" id="path_13"/><path fill="#000001" d="M39.485,53.566c0.181,-0.098 0.232,0.059 0.157,0.486c-0.997,2.34 -2.527,3.975 -4.59,4.898l-7.582,3.803c-0.322,-0.09 -0.383,-0.354 -0.181,-0.789c1.013,-1.949 1.703,-3.104 2.07,-3.471L39.485,53.566z" id="path_14"/><path fill="#008046" d="M26.96,51.367c-0.157,0.016 -0.322,0.023 -0.479,0.023h-0.885c-1.373,0 -2.311,-0.113 -2.813,-0.352c-1.021,3.943 -2.213,6.359 -3.578,7.244s-4.447,1.635 -9.247,2.25H9.605c-1.058,-0.119 -1.583,-0.293 -1.583,-0.525c0,-0.352 0.878,-0.766 2.633,-1.23c6.915,-3.164 10.373,-5.451 10.373,-6.854c0,-0.586 -0.818,-1.936 -2.46,-4.043c-0.353,-0.592 -0.525,-1.35 -0.525,-2.287v-1.756c0,-0.885 0.173,-1.35 0.525,-1.41c1.522,2.332 4.102,3.631 7.731,3.908c0.226,0 0.443,0 0.66,-0.016V51.367z" id="path_15"/><path fill="#008046" d="M18.396,26.933c1.8,0 2.7,1.11 2.7,3.322c0,3.525 -3.008,6.533 -9.03,9.008c-0.862,0.262 -0.968,-0.053 -0.308,-0.945c0.165,-0.338 1.582,-1.395 4.26,-3.166v-0.149c-1.155,-0.473 -1.732,-1.479 -1.732,-3.016c0.766,-3.367 1.98,-5.055 3.646,-5.055H18.396L18.396,26.933zM15.71,30.736c0,0.937 0.796,1.515 2.378,1.74h0.308c0.585,0 0.96,-0.218 1.117,-0.638c0,-0.952 -0.69,-1.695 -2.063,-2.22C16.851,29.618 16.272,29.993 15.71,30.736z" id="path_16"/></svg>