<svg id="vector" xmlns="http://www.w3.org/2000/svg" width="75" height="67" viewBox="0 0 83 73"><path fill="#213e95" d="M51.386,52.039c-0.034,1.075 -0.208,2.032 -0.526,2.889c-0.342,0.565 -0.594,0.862 -0.757,0.885c-0.185,0 -0.269,-0.308 -0.246,-0.918c-0.285,-6.137 -0.639,-10.426 -1.063,-12.867c-0.229,-2.189 -0.543,-3.981 -0.936,-5.37c-0.146,-0.542 -0.224,-1.046 -0.246,-1.506c-0.033,-0.857 0.09,-1.842 0.375,-2.957l0.756,-2.856c0.101,-0.089 0.207,-0.134 0.331,-0.134c0.128,0 0.218,0.19 0.257,0.577c0.057,0.499 0.123,0.806 0.208,0.918c0.084,0.106 0.375,0.986 0.879,2.638c0.325,1.086 0.733,1.937 1.215,2.559c0.028,0.219 0.05,0.425 0.062,0.627c0,0.403 -0.117,0.969 -0.353,1.702c-0.235,0.733 -0.397,1.238 -0.498,1.512l-0.129,0.493L51.386,52.039z" id="path_0"/><path fill="#213e95" d="M44.084,24.583l1.02,-3.035l9.888,-4.346c0.135,-0.033 0.196,-0.017 0.196,0.051c0,0.033 -0.017,0.112 -0.051,0.247l-1.327,3.147l-9.496,4.25c-0.123,0.012 -0.196,0.012 -0.229,0C44.039,24.83 44.039,24.729 44.084,24.583z" id="path_1"/><path fill="#DD2C00" d="M30.646,33.796v-0.163c0.549,-0.767 1.333,-1.809 2.363,-3.136h0.111c0.834,0.896 1.876,1.708 3.136,2.431c0.033,0.033 0.051,0.072 0.051,0.128l-2.279,3.085c-0.022,0.011 -0.062,0.017 -0.117,0.017c-0.067,0 -0.18,-0.028 -0.342,-0.083C32.778,35.716 31.805,34.955 30.646,33.796z" id="path_2"/><path fill="#DD2C00" d="M28.535,50.74c1.275,0.089 2.53,0.134 3.757,0.134c3.007,0 5.901,-0.336 8.689,-1.002c0.102,-0.095 0.151,-0.196 0.151,-0.292c0,-0.067 -0.073,-0.196 -0.213,-0.386c-0.146,-0.196 -0.219,-0.325 -0.219,-0.386c-0.896,-1.182 -2.29,-2.291 -4.182,-3.315c-2.918,-1.663 -4.446,-2.525 -4.575,-2.592c0,-1.642 0.118,-3.215 0.348,-4.726l0.621,0.196c1.915,1.047 3.808,2.094 5.678,3.13c2.15,1.377 3.382,3.041 3.69,4.983c0.195,0.677 0.291,1.367 0.291,2.066c0,1.445 -0.477,3.259 -1.439,5.442c-2.396,1.215 -5.711,1.82 -9.944,1.82c-1.31,0 -2.436,-0.095 -3.377,-0.28C27.812,55.174 28.053,53.578 28.535,50.74z" id="path_3"/><path fill="#DD2C00" d="M30.449,26.987c1.227,-0.632 3.063,-1.574 5.51,-2.822c0.214,-0.252 0.314,-0.375 0.314,-0.375c-0.555,-0.667 -1.396,-1.02 -2.51,-1.053c-0.963,-0.033 -1.92,-0.05 -2.872,-0.05c0.655,-1.591 1.338,-2.699 2.038,-3.321c2.089,-0.173 3.752,0.034 5.001,0.622c0.525,0.627 0.644,1.237 0.363,1.836c-0.112,0.386 -0.442,1.114 -0.985,2.195c-0.526,0.868 -1.108,1.579 -1.758,2.133c-0.645,0.56 -1.501,0.946 -2.576,1.165c-1.87,0.297 -2.811,0.442 -2.822,0.442c-0.252,0 -0.375,-0.05 -0.375,-0.146C29.777,27.317 30.001,27.11 30.449,26.987z" id="path_4"/></svg>