<svg id="vector" xmlns="http://www.w3.org/2000/svg" width="75" height="67" viewBox="0 0 83 73"><path fill="#DD2C00" d="M51.588,52.039c-0.034,1.075 -0.207,2.032 -0.526,2.889c-0.342,0.565 -0.593,0.862 -0.756,0.885c-0.185,0 -0.269,-0.308 -0.246,-0.918c-0.285,-6.137 -0.639,-10.426 -1.064,-12.867c-0.229,-2.189 -0.543,-3.981 -0.935,-5.37c-0.146,-0.542 -0.225,-1.046 -0.247,-1.506c-0.033,-0.857 0.09,-1.842 0.375,-2.957l0.756,-2.856c0.102,-0.089 0.208,-0.134 0.331,-0.134c0.128,0 0.218,0.19 0.258,0.577c0.056,0.499 0.122,0.806 0.207,0.918c0.084,0.106 0.375,0.986 0.879,2.638c0.324,1.086 0.733,1.937 1.215,2.559c0.027,0.219 0.051,0.425 0.062,0.627c0,0.403 -0.118,0.969 -0.353,1.702c-0.234,0.733 -0.397,1.238 -0.498,1.512l-0.129,0.493L51.588,52.039z" id="path_0"/><path fill="#DD2C00" d="M44.286,24.583l1.02,-3.035l9.888,-4.346c0.135,-0.033 0.196,-0.017 0.196,0.051c0,0.033 -0.017,0.112 -0.05,0.247l-1.328,3.147l-9.496,4.25c-0.123,0.012 -0.195,0.012 -0.229,0C44.241,24.83 44.241,24.729 44.286,24.583z" id="path_1"/><path fill="#0992d1" d="M28.737,50.74c1.276,0.089 2.53,0.134 3.757,0.134c3.007,0 5.901,-0.336 8.69,-1.002c0.101,-0.095 0.151,-0.196 0.151,-0.292c0,-0.067 -0.073,-0.196 -0.214,-0.386c-0.146,-0.196 -0.218,-0.325 -0.218,-0.386c-0.896,-1.182 -2.29,-2.291 -4.183,-3.315c-2.917,-1.663 -4.445,-2.525 -4.575,-2.592c0,-1.642 0.118,-3.215 0.348,-4.726l0.621,0.196c1.915,1.047 3.808,2.094 5.678,3.13c2.15,1.377 3.383,3.041 3.69,4.983c0.195,0.677 0.291,1.367 0.291,2.066c0,1.445 -0.477,3.259 -1.438,5.442c-2.397,1.215 -5.712,1.82 -9.945,1.82c-1.311,0 -2.436,-0.095 -3.377,-0.28C28.014,55.174 28.255,53.578 28.737,50.74z" id="path_2"/><path fill="#0992d1" d="M28.282,31.727c1.227,-0.633 3.063,-1.574 5.51,-2.822c0.213,-0.252 0.313,-0.375 0.313,-0.375c-0.555,-0.667 -1.395,-1.019 -2.509,-1.053c-0.963,-0.033 -1.92,-0.05 -2.872,-0.05c0.654,-1.591 1.338,-2.699 2.037,-3.32c2.089,-0.174 3.753,0.034 5.001,0.621c0.525,0.627 0.645,1.237 0.363,1.837c-0.111,0.386 -0.442,1.114 -0.985,2.195c-0.526,0.868 -1.107,1.579 -1.758,2.134c-0.644,0.56 -1.5,0.946 -2.575,1.164c-1.871,0.296 -2.812,0.442 -2.822,0.442c-0.252,0 -0.375,-0.05 -0.375,-0.146C27.61,32.057 27.834,31.85 28.282,31.727z" id="path_3"/></svg>