<svg id="vector" xmlns="http://www.w3.org/2000/svg" width="75" height="67" viewBox="0 0 83 73"><path fill="#000001" d="M50.881,45.878c-0.034,1.058 -0.201,2.016 -0.509,2.873c-0.347,0.543 -0.605,0.817 -0.767,0.817c-0.18,0.011 -0.258,-0.269 -0.247,-0.834c-0.274,-6.137 -0.661,-11.412 -1.148,-15.829c-0.229,-2.178 -0.543,-3.964 -0.935,-5.364c-0.168,-0.538 -0.257,-1.036 -0.28,-1.495c-0.011,-0.851 0.118,-1.836 0.392,-2.951l0.773,-2.856c0.095,-0.089 0.202,-0.134 0.308,-0.134c0.135,0 0.229,0.185 0.28,0.56c0.045,0.51 0.106,0.818 0.19,0.924c0.084,0.106 0.381,0.985 0.896,2.648c0.325,1.081 0.728,1.932 1.198,2.559c0.028,0.208 0.045,0.409 0.045,0.605c0.023,0.414 -0.089,0.985 -0.336,1.713c-0.246,0.728 -0.408,1.232 -0.498,1.518l-0.118,0.493L50.881,45.878z" id="path_0"/><path fill="#000001" d="M44.7,59.615l1.019,-3.035l9.888,-4.345c0.135,-0.034 0.196,-0.017 0.196,0.045c0,0.034 -0.017,0.118 -0.05,0.247l-1.327,3.152l-9.497,4.25c-0.123,0.011 -0.196,0.011 -0.229,0C44.655,59.861 44.655,59.754 44.7,59.615z" id="path_1"/><path fill="#DD2C00" d="M30.03,27.551v-0.163c0.548,-0.767 1.333,-1.809 2.362,-3.135h0.112c0.834,0.896 1.876,1.708 3.136,2.43c0.033,0.034 0.05,0.073 0.05,0.129l-2.278,3.085c-0.023,0.011 -0.062,0.017 -0.118,0.017c-0.067,0 -0.179,-0.028 -0.342,-0.084C32.163,29.472 31.188,28.71 30.03,27.551z" id="path_2"/><path fill="#DD2C00" d="M27.918,44.495c1.277,0.09 2.531,0.134 3.757,0.134c3.007,0 5.901,-0.336 8.69,-1.001c0.101,-0.096 0.151,-0.196 0.151,-0.292c0,-0.067 -0.073,-0.196 -0.213,-0.387c-0.146,-0.196 -0.218,-0.324 -0.218,-0.386c-0.896,-1.182 -2.291,-2.29 -4.183,-3.314c-2.917,-1.663 -4.446,-2.525 -4.575,-2.593c0,-1.641 0.118,-3.214 0.347,-4.726l0.622,0.196c1.915,1.047 3.808,2.094 5.678,3.13c2.15,1.377 3.382,3.04 3.69,4.983c0.196,0.678 0.291,1.366 0.291,2.066c0,1.444 -0.476,3.259 -1.439,5.442c-2.397,1.215 -5.711,1.82 -9.944,1.82c-1.311,0 -2.436,-0.095 -3.376,-0.28C27.196,48.929 27.437,47.334 27.918,44.495z" id="path_3"/><path fill="#DD2C00" d="M29.833,20.742c1.226,-0.632 3.063,-1.573 5.509,-2.822c0.213,-0.252 0.314,-0.375 0.314,-0.375c-0.554,-0.667 -1.394,-1.02 -2.508,-1.053c-0.963,-0.034 -1.92,-0.051 -2.873,-0.051c0.655,-1.59 1.338,-2.699 2.038,-3.32c2.089,-0.174 3.752,0.034 5,0.622c0.526,0.627 0.644,1.237 0.364,1.837c-0.112,0.386 -0.442,1.114 -0.985,2.195c-0.526,0.868 -1.109,1.579 -1.758,2.133c-0.644,0.56 -1.5,0.946 -2.576,1.165c-1.87,0.296 -2.811,0.442 -2.822,0.442c-0.252,0 -0.375,-0.051 -0.375,-0.146C29.162,21.073 29.386,20.865 29.833,20.742z" id="path_4"/></svg>