<svg id="vector" xmlns="http://www.w3.org/2000/svg" width="75" height="67" viewBox="0 0 83 73"><path fill="#DD2C00" d="M59.377,42.873c-0.035,1.058 -0.203,2.016 -0.511,2.873c-0.347,0.543 -0.604,0.817 -0.768,0.817c-0.179,0.012 -0.257,-0.269 -0.246,-0.834c-0.274,-6.137 -0.66,-11.412 -1.147,-15.83c-0.23,-2.178 -0.544,-3.965 -0.936,-5.364c-0.167,-0.538 -0.257,-1.036 -0.28,-1.495c-0.011,-0.851 0.118,-1.837 0.393,-2.951l0.772,-2.856c0.096,-0.089 0.201,-0.134 0.309,-0.134c0.134,0 0.229,0.185 0.279,0.56c0.045,0.51 0.106,0.818 0.19,0.924c0.084,0.106 0.381,0.985 0.896,2.649c0.325,1.081 0.729,1.932 1.199,2.559c0.027,0.208 0.044,0.409 0.044,0.604c0.023,0.415 -0.089,0.986 -0.336,1.714c-0.246,0.728 -0.408,1.232 -0.498,1.517l-0.118,0.493L59.377,42.873z" id="path_0"/><path fill="#DD2C00" d="M53.193,55.974l1.02,-3.035l9.889,-4.345c0.135,-0.034 0.196,-0.017 0.196,0.044c0,0.033 -0.017,0.117 -0.051,0.247l-1.327,3.153l-9.497,4.25c-0.122,0.011 -0.195,0.011 -0.229,0C53.149,56.22 53.149,56.114 53.193,55.974z" id="path_1"/><path fill="#231f20" d="M28.623,36.069v-0.163c0.549,-0.767 1.333,-1.809 2.363,-3.135h0.112c0.212,0.229 0.795,0.7 1.758,1.411c0.459,0.341 0.924,0.683 1.395,1.036c0.526,-0.733 1.231,-1.663 2.116,-2.789h0.112c0.834,0.885 1.876,1.686 3.136,2.408c0.033,0.023 0.05,0.073 0.05,0.151l-2.296,3.069c-0.01,0.022 -0.044,0.027 -0.1,0.027c-0.079,0 -0.196,-0.022 -0.365,-0.078c-0.771,-0.365 -1.741,-1.126 -2.9,-2.296v-0.017l-2.015,2.705c-0.012,0.022 -0.046,0.033 -0.102,0.033c-0.078,0 -0.196,-0.028 -0.357,-0.083C30.751,37.99 29.782,37.229 28.623,36.069z" id="path_2"/><path fill="#231f20" d="M30.869,31.343v-0.163c0.548,-0.767 1.338,-1.808 2.362,-3.129h0.118c0.817,0.896 1.865,1.697 3.13,2.407c0.022,0.034 0.034,0.084 0.034,0.151l-2.28,3.08c-0.021,0.012 -0.056,0.017 -0.1,0.017c-0.072,0 -0.191,-0.028 -0.342,-0.078C33.002,33.264 32.027,32.502 30.869,31.343z" id="path_3"/><path fill="#231f20" d="M49.549,42.694c-1.764,1.125 -4.043,2.038 -6.843,2.738c-4.268,0.963 -7.884,1.434 -10.853,1.417c-2.967,-0.017 -5.274,-0.302 -6.915,-0.863c-1.641,-0.554 -3.079,-1.523 -4.312,-2.9c-1.063,-1.215 -1.685,-2.625 -1.87,-4.233c-0.241,-2.262 0.308,-4.703 1.657,-7.318c0.141,-0.128 0.28,-0.285 0.426,-0.465c0.141,-0.179 0.303,-0.257 0.477,-0.224l-0.018,0.397c-0.744,1.596 -1.147,3.018 -1.215,4.261c-0.034,0.437 -0.034,0.74 0,0.901c0.46,2.101 2.05,3.578 4.775,4.435c1.53,0.521 3.132,0.846 4.806,0.963c0.263,0.011 0.672,0.044 1.231,0.1c3.421,0.012 7.571,-0.392 12.448,-1.214c2.822,-0.527 4.832,-1.238 6.024,-2.134c-0.078,-0.357 -0.346,-0.767 -0.807,-1.22c-0.459,-0.454 -0.738,-0.862 -0.834,-1.221c-0.066,-1.444 0.017,-2.923 0.246,-4.429l0.197,-0.017c1.518,1.713 2.362,3.539 2.525,5.459C50.893,39.374 50.512,41.227 49.549,42.694z" id="path_4"/><path fill="#231f20" d="M31.272,24.384c1.226,-0.633 3.063,-1.574 5.51,-2.823c0.212,-0.252 0.313,-0.375 0.313,-0.375c-0.555,-0.667 -1.395,-1.019 -2.509,-1.053c-0.964,-0.034 -1.921,-0.05 -2.873,-0.05c0.656,-1.59 1.339,-2.699 2.039,-3.321c2.088,-0.173 3.752,0.034 5,0.622c0.526,0.627 0.645,1.237 0.364,1.837c-0.112,0.386 -0.443,1.114 -0.986,2.195c-0.526,0.868 -1.108,1.579 -1.758,2.133c-0.644,0.561 -1.501,0.947 -2.576,1.165c-1.87,0.296 -2.811,0.442 -2.821,0.442c-0.253,0 -0.375,-0.05 -0.375,-0.146C30.601,24.714 30.824,24.506 31.272,24.384z" id="path_5"/></svg>