<svg id="vector" xmlns="http://www.w3.org/2000/svg" width="75" height="67" viewBox="0 0 83 73"><path fill="#000001" d="M57.41,44.277c-0.033,1.058 -0.202,2.016 -0.509,2.872c-0.348,0.544 -0.605,0.817 -0.768,0.817c-0.179,0.012 -0.257,-0.268 -0.246,-0.834c-0.274,-6.137 -0.661,-11.411 -1.148,-15.829c-0.229,-2.178 -0.543,-3.965 -0.936,-5.364c-0.168,-0.538 -0.257,-1.036 -0.28,-1.495c-0.011,-0.851 0.118,-1.836 0.392,-2.951l0.772,-2.855c0.096,-0.089 0.202,-0.135 0.308,-0.135c0.134,0 0.229,0.186 0.28,0.561c0.045,0.509 0.106,0.817 0.191,0.924c0.084,0.105 0.38,0.985 0.895,2.648c0.325,1.08 0.728,1.932 1.199,2.559c0.028,0.207 0.045,0.409 0.045,0.604c0.022,0.415 -0.09,0.985 -0.336,1.714c-0.247,0.728 -0.409,1.232 -0.498,1.518l-0.118,0.493L57.41,44.277z" id="path_0"/><path fill="#000001" d="M51.229,58.014l1.02,-3.034l9.888,-4.346c0.134,-0.033 0.196,-0.017 0.196,0.045c0,0.033 -0.017,0.117 -0.05,0.247l-1.327,3.151l-9.497,4.25c-0.123,0.012 -0.196,0.012 -0.229,0C51.184,58.261 51.184,58.153 51.229,58.014z" id="path_1"/><path fill="#008046" d="M39.022,28.638v-0.162c0.548,-0.767 1.333,-1.808 2.363,-3.136h0.112c0.834,0.896 1.875,1.708 3.135,2.43c0.034,0.034 0.051,0.073 0.051,0.13l-2.279,3.084c-0.022,0.012 -0.062,0.018 -0.118,0.018c-0.067,0 -0.179,-0.027 -0.342,-0.084C41.155,30.559 40.181,29.797 39.022,28.638z" id="path_2"/><path fill="#008046" d="M21.311,44.697c1.014,0.027 2.346,-0.034 3.987,-0.202c1.859,-0.195 3.169,-0.291 3.937,-0.291c0.229,0 0.521,-0.178 0.868,-0.526c0.296,-0.699 0.588,-1.389 0.885,-2.071c0.341,-0.796 0.51,-1.534 0.51,-2.212c0.067,-1.842 0.056,-4.34 -0.034,-7.503c-0.09,-3.763 -0.135,-6.271 -0.135,-7.52c0,-1.059 0.011,-2.066 0.034,-3.019c0.297,-1.041 0.812,-2.587 1.557,-4.631l0.358,0.297c0.034,0.129 0.146,0.963 0.347,2.509c0.129,0.985 0.353,1.775 0.672,2.38l-0.135,0.044c0.711,0.88 1.069,1.534 1.069,1.972c0,0.229 -0.083,0.526 -0.246,0.885c-0.263,0.481 -0.414,0.772 -0.442,0.868l-1.266,1.97c0,1.977 0,5.163 0,9.559c0,0.034 -0.056,0.18 -0.162,0.432c-0.034,0.162 -0.017,0.308 0.05,0.441c2.078,-3.152 4.832,-4.725 8.265,-4.725c0.437,0 0.879,0.032 1.327,0.1c2.476,0.633 4.2,1.938 5.186,3.908c-0.303,5.163 -2.016,8.193 -5.135,9.105c-4.514,1.315 -8.136,1.971 -10.863,1.971c-2.083,0 -3.942,-0.342 -5.583,-1.02c-1.31,-0.325 -3.209,-1.019 -5.695,-2.065C20.667,45.218 20.885,45 21.311,44.697L21.311,44.697zM40.253,37.838c-0.263,-0.033 -0.548,-0.05 -0.856,-0.05c-1.702,0 -3.343,0.627 -4.916,1.881c-1.383,1.098 -2.514,2.525 -3.399,4.289c2.33,-0.067 5.499,-0.393 9.497,-0.969c0.33,-0.134 1.232,-0.387 2.71,-0.756c1.114,-0.296 1.988,-0.615 2.626,-0.969v-0.594C44.296,38.975 42.41,38.028 40.253,37.838z" id="path_3"/><path fill="#008046" d="M39.548,22.345c1.227,-0.633 3.063,-1.573 5.51,-2.822c0.213,-0.252 0.314,-0.375 0.314,-0.375c-0.555,-0.666 -1.395,-1.02 -2.509,-1.053c-0.963,-0.033 -1.92,-0.051 -2.872,-0.051c0.655,-1.59 1.338,-2.699 2.038,-3.32c2.089,-0.173 3.751,0.034 5,0.621c0.526,0.628 0.644,1.237 0.364,1.837c-0.112,0.387 -0.442,1.115 -0.985,2.195c-0.526,0.868 -1.108,1.579 -1.758,2.134c-0.644,0.56 -1.5,0.946 -2.576,1.164c-1.87,0.297 -2.811,0.442 -2.822,0.442c-0.252,0 -0.375,-0.05 -0.375,-0.146C38.876,22.675 39.1,22.468 39.548,22.345z" id="path_4"/></svg>