<svg id="vector" xmlns="http://www.w3.org/2000/svg" width="75" height="67" viewBox="0 0 83 73"><path fill="#DD2C00" d="M17.437,33.264c0.034,0.061 0.062,0.162 0.095,0.291c-0.285,0.447 -0.688,1.125 -1.215,2.021c-0.952,1.473 -1.522,2.951 -1.719,4.428c-0.196,1.563 0.028,2.906 0.672,4.031c1.158,2.33 3.035,3.887 5.627,4.666c1.804,0.52 4.228,0.637 7.268,0.342c4.363,-1.215 7.011,-3.047 7.94,-5.5c-0.066,-1.719 -0.436,-3.314 -1.104,-4.793c-0.262,-0.609 -0.665,-1.512 -1.209,-2.705c-0.066,-0.951 0.012,-2.334 0.241,-4.137c0.189,-0.033 0.363,0.016 0.526,0.145c0.503,0.398 1.26,0.969 2.263,1.725c0.867,0.561 1.773,0.908 2.727,1.053c0.974,-1.65 1.943,-3.314 2.9,-4.988c1.35,-1.926 2.899,-3.041 4.658,-3.332c0.605,-0.207 1.243,-0.313 1.92,-0.313c1.513,0 3.036,0.426 4.581,1.275c1.439,1.412 2.162,2.598 2.162,3.563c0,0.162 -0.018,0.34 -0.052,0.537c-0.257,2.906 -1.399,5.068 -3.426,6.473c-3.063,1.574 -6.12,2.363 -9.173,2.363c-1.987,0 -3.784,-0.371 -5.392,-1.115c-0.342,-0.066 -0.51,0.018 -0.51,0.248c0.072,0.576 0.112,1.135 0.112,1.674c0,1.539 -0.279,3.068 -0.852,4.58c-0.952,2.445 -2.575,4.457 -4.87,6.014c-2.297,1.563 -4.777,2.34 -7.432,2.34c-2.727,0 -5.095,-0.801 -7.122,-2.408c-2.721,-2.16 -4.082,-5.273 -4.082,-9.344c0,-1.691 0.292,-3.266 0.868,-4.705c1.053,-1.98 2.122,-3.443 3.214,-4.383C17.273,33.279 17.403,33.264 17.437,33.264L17.437,33.264zM48.16,30.727c-0.342,-0.033 -0.655,-0.051 -0.952,-0.051c-2.251,0 -4.255,1.445 -6.003,4.334c0.601,0.264 1.093,0.375 1.474,0.342c0.638,0.033 1.248,0.051 1.842,0.051c3.605,0 6.619,-0.756 9.037,-2.264c-0.195,-0.469 -0.554,-0.873 -1.069,-1.197c-0.195,-0.135 -0.677,-0.402 -1.438,-0.822C49.896,30.715 48.938,30.588 48.16,30.727z" id="path_0"/><path fill="#DD2C00" d="M37.023,22.344c1.226,-0.633 3.063,-1.572 5.509,-2.82c0.213,-0.254 0.314,-0.375 0.314,-0.375c-0.555,-0.668 -1.395,-1.02 -2.509,-1.055c-0.963,-0.033 -1.92,-0.049 -2.873,-0.049c0.656,-1.592 1.339,-2.699 2.039,-3.322c2.088,-0.172 3.752,0.035 5,0.623c0.526,0.627 0.644,1.236 0.364,1.836c-0.112,0.387 -0.443,1.115 -0.985,2.195c-0.527,0.867 -1.109,1.578 -1.759,2.133c-0.644,0.561 -1.501,0.947 -2.575,1.166c-1.871,0.295 -2.812,0.441 -2.822,0.441c-0.252,0 -0.375,-0.051 -0.375,-0.146C36.352,22.676 36.575,22.467 37.023,22.344z" id="path_1"/><path fill="#213e95" d="M65.104,44.277c-0.034,1.059 -0.202,2.016 -0.51,2.873c-0.348,0.543 -0.605,0.816 -0.767,0.816c-0.18,0.012 -0.258,-0.27 -0.247,-0.834c-0.274,-6.137 -0.661,-11.412 -1.147,-15.83c-0.229,-2.178 -0.544,-3.963 -0.936,-5.363c-0.168,-0.537 -0.258,-1.035 -0.279,-1.494c-0.012,-0.852 0.117,-1.838 0.391,-2.953l0.773,-2.855c0.095,-0.09 0.202,-0.133 0.308,-0.133c0.135,0 0.229,0.184 0.28,0.559c0.045,0.51 0.105,0.818 0.19,0.924c0.084,0.107 0.381,0.986 0.896,2.648c0.324,1.082 0.728,1.932 1.197,2.561c0.028,0.207 0.045,0.408 0.045,0.604c0.022,0.414 -0.09,0.986 -0.335,1.715c-0.247,0.727 -0.409,1.23 -0.499,1.516l-0.117,0.492L65.104,44.277z" id="path_2"/><path fill="#213e95" d="M58.922,58.014l1.02,-3.035l9.888,-4.346c0.136,-0.033 0.197,-0.016 0.197,0.047c0,0.031 -0.017,0.115 -0.051,0.244l-1.327,3.152l-9.497,4.252c-0.123,0.01 -0.195,0.01 -0.229,0C58.878,58.26 58.878,58.154 58.922,58.014z" id="path_3"/></svg>