<svg id="vector" xmlns="http://www.w3.org/2000/svg" width="75" height="67" viewBox="0 0 83 73"><path fill="#DD2C00" d="M53.896,50.419c-0.034,1.075 -0.207,2.032 -0.526,2.89c-0.342,0.565 -0.594,0.861 -0.756,0.884c-0.185,0 -0.269,-0.308 -0.246,-0.918c-0.285,-6.137 -0.639,-10.426 -1.063,-12.867c-0.229,-2.189 -0.544,-3.98 -0.936,-5.37c-0.146,-0.543 -0.224,-1.047 -0.247,-1.507c-0.033,-0.855 0.09,-1.842 0.375,-2.955l0.756,-2.856c0.102,-0.09 0.208,-0.134 0.331,-0.134c0.128,0 0.218,0.189 0.258,0.576c0.056,0.499 0.123,0.807 0.207,0.918c0.084,0.106 0.375,0.986 0.879,2.638c0.324,1.087 0.733,1.938 1.216,2.56c0.027,0.218 0.05,0.425 0.061,0.626c0,0.403 -0.117,0.97 -0.353,1.702c-0.234,0.734 -0.397,1.238 -0.498,1.513l-0.129,0.492L53.896,50.419z" id="path_0"/><path fill="#DD2C00" d="M46.594,22.964l1.02,-3.034l9.889,-4.347c0.134,-0.032 0.195,-0.016 0.195,0.052c0,0.033 -0.016,0.111 -0.05,0.245l-1.328,3.147l-9.496,4.25c-0.122,0.012 -0.195,0.012 -0.229,0C46.55,23.21 46.55,23.109 46.594,22.964z" id="path_1"/><path fill="#008046" d="M27.912,57.153c-0.918,0.034 -1.714,0.129 -2.38,0.28c-0.151,-0.118 -0.229,-0.286 -0.229,-0.493c2.479,-0.94 5.644,-2.458 9.479,-4.553c-0.034,0.057 0.61,-0.324 1.92,-1.147c0.93,-0.716 1.573,-1.388 1.938,-2.016c0,-0.817 -0.124,-1.714 -0.365,-2.682c-0.381,-0.852 -0.873,-1.753 -1.472,-2.705l0.504,-4.815h0.279c0.964,2.195 1.545,3.779 1.742,4.749c0.459,1.848 0.654,3.481 0.588,4.916c-0.012,0.896 -0.186,1.948 -0.526,3.163c-0.739,2.313 -2.313,3.836 -4.704,4.569C33.55,56.767 31.288,57.013 27.912,57.153z" id="path_2"/><path fill="#008046" d="M33.847,32.659c1.227,-0.633 3.063,-1.574 5.51,-2.822c0.214,-0.252 0.313,-0.376 0.313,-0.376c-0.554,-0.666 -1.395,-1.018 -2.509,-1.052c-0.962,-0.033 -1.92,-0.05 -2.872,-0.05c0.655,-1.591 1.339,-2.699 2.038,-3.321c2.089,-0.174 3.752,0.034 5.001,0.622c0.526,0.627 0.644,1.237 0.363,1.836c-0.112,0.387 -0.441,1.114 -0.985,2.195c-0.526,0.868 -1.108,1.579 -1.758,2.134c-0.645,0.56 -1.501,0.945 -2.576,1.164c-1.87,0.297 -2.811,0.442 -2.822,0.442c-0.252,0 -0.375,-0.051 -0.375,-0.146C33.175,32.989 33.398,32.782 33.847,32.659z" id="path_3"/></svg>