<svg id="vector" xmlns="http://www.w3.org/2000/svg" width="75" height="67" viewBox="0 0 83 73"><path fill="#DD2C00" d="M60.115,43.987c-0.034,1.075 -0.208,2.033 -0.526,2.889c-0.342,0.566 -0.594,0.862 -0.756,0.885c-0.185,0 -0.269,-0.308 -0.247,-0.918c-0.285,-6.137 -0.638,-10.426 -1.063,-12.867c-0.229,-2.189 -0.543,-3.981 -0.935,-5.37c-0.146,-0.543 -0.224,-1.048 -0.247,-1.507c-0.034,-0.857 0.09,-1.842 0.375,-2.957l0.756,-2.855c0.101,-0.09 0.207,-0.135 0.331,-0.135c0.128,0 0.218,0.19 0.257,0.577c0.056,0.499 0.123,0.807 0.207,0.918c0.084,0.106 0.375,0.985 0.879,2.637c0.324,1.087 0.733,1.938 1.215,2.56c0.028,0.218 0.051,0.425 0.062,0.627c0,0.403 -0.118,0.969 -0.353,1.702s-0.398,1.238 -0.498,1.512l-0.129,0.493L60.115,43.987z" id="path_0"/><path fill="#DD2C00" d="M52.813,58.636l1.019,-3.035l9.889,-4.345c0.134,-0.034 0.196,-0.017 0.196,0.051c0,0.033 -0.017,0.112 -0.05,0.246L62.54,54.7l-9.497,4.25c-0.124,0.011 -0.196,0.011 -0.23,0C52.769,58.882 52.769,58.782 52.813,58.636z" id="path_1"/><path fill="#231f20" d="M28.769,39.537v-0.163c0.549,-0.767 1.333,-1.809 2.363,-3.135h0.112c0.212,0.229 0.795,0.7 1.758,1.411c0.459,0.342 0.924,0.683 1.395,1.036c0.526,-0.733 1.231,-1.664 2.117,-2.789h0.112c0.834,0.885 1.876,1.686 3.136,2.408c0.034,0.022 0.05,0.073 0.05,0.151l-2.295,3.068c-0.012,0.022 -0.045,0.028 -0.102,0.028c-0.078,0 -0.195,-0.022 -0.363,-0.079c-0.773,-0.363 -1.742,-1.125 -2.901,-2.296v-0.016l-2.016,2.704c-0.012,0.023 -0.045,0.034 -0.101,0.034c-0.079,0 -0.196,-0.028 -0.358,-0.084C30.896,41.458 29.928,40.696 28.769,39.537z" id="path_2"/><path fill="#231f20" d="M49.93,46.262C48.166,47.387 45.887,48.3 43.087,49c-4.267,0.963 -7.884,1.434 -10.852,1.417c-2.967,-0.017 -5.275,-0.303 -6.915,-0.862c-1.641,-0.555 -3.08,-1.523 -4.312,-2.901c-1.063,-1.215 -1.686,-2.625 -1.87,-4.233c-0.241,-2.262 0.308,-4.704 1.658,-7.319c0.14,-0.128 0.28,-0.285 0.426,-0.464c0.14,-0.18 0.302,-0.258 0.476,-0.224l-0.017,0.397c-0.745,1.596 -1.148,3.018 -1.215,4.261c-0.034,0.437 -0.034,0.74 0,0.901c0.459,2.1 2.049,3.578 4.776,4.435c1.529,0.521 3.13,0.846 4.805,0.963c0.263,0.01 0.672,0.045 1.231,0.1c3.421,0.012 7.571,-0.392 12.448,-1.214c2.822,-0.527 4.832,-1.238 6.025,-2.134c-0.079,-0.357 -0.347,-0.767 -0.807,-1.22c-0.459,-0.454 -0.739,-0.862 -0.834,-1.221c-0.067,-1.444 0.017,-2.923 0.246,-4.429l0.196,-0.017c1.518,1.713 2.362,3.539 2.525,5.46C51.273,42.941 50.893,44.795 49.93,46.262z" id="path_3"/><path fill="#231f20" d="M32.146,31.395c1.227,-0.632 3.063,-1.574 5.51,-2.822c0.213,-0.252 0.313,-0.376 0.313,-0.376c-0.555,-0.666 -1.395,-1.019 -2.508,-1.052c-0.963,-0.033 -1.921,-0.051 -2.873,-0.051c0.655,-1.59 1.338,-2.699 2.039,-3.32c2.089,-0.173 3.751,0.034 5,0.622c0.526,0.627 0.644,1.237 0.364,1.837c-0.112,0.386 -0.442,1.114 -0.986,2.195c-0.526,0.868 -1.108,1.579 -1.758,2.133c-0.644,0.56 -1.501,0.946 -2.576,1.165c-1.871,0.296 -2.811,0.442 -2.822,0.442c-0.252,0 -0.375,-0.051 -0.375,-0.146C31.474,31.726 31.698,31.519 32.146,31.395z" id="path_4"/></svg>