<svg id="vector" xmlns="http://www.w3.org/2000/svg" width="75" height="67" viewBox="0 0 83 73"><path fill="#DD2C00" d="M51.084,43.508c-0.034,1.058 -0.202,2.016 -0.51,2.872c-0.347,0.543 -0.604,0.818 -0.768,0.818c-0.179,0.011 -0.257,-0.269 -0.246,-0.835c-0.274,-6.137 -0.661,-11.411 -1.148,-15.829c-0.229,-2.178 -0.542,-3.964 -0.934,-5.364c-0.169,-0.537 -0.258,-1.036 -0.281,-1.495c-0.011,-0.852 0.118,-1.837 0.393,-2.951l0.772,-2.855c0.096,-0.089 0.201,-0.134 0.308,-0.134c0.135,0 0.229,0.185 0.28,0.56c0.045,0.51 0.106,0.818 0.19,0.924c0.084,0.106 0.381,0.985 0.896,2.648c0.325,1.081 0.729,1.932 1.199,2.559c0.027,0.208 0.044,0.409 0.044,0.605c0.023,0.414 -0.09,0.985 -0.336,1.713c-0.245,0.728 -0.408,1.232 -0.498,1.517l-0.118,0.493L51.084,43.508z" id="path_0"/><path fill="#DD2C00" d="M44.901,57.245l1.02,-3.035l9.889,-4.345c0.135,-0.034 0.195,-0.017 0.195,0.045c0,0.033 -0.016,0.118 -0.05,0.246l-1.327,3.152l-9.496,4.25c-0.123,0.011 -0.196,0.011 -0.23,0C44.857,57.491 44.857,57.385 44.901,57.245z" id="path_1"/><path fill="#0992d1" d="M28.121,42.125c1.276,0.089 2.53,0.134 3.757,0.134c3.007,0 5.901,-0.336 8.69,-1.002c0.101,-0.095 0.151,-0.195 0.151,-0.291c0,-0.067 -0.073,-0.196 -0.213,-0.386c-0.146,-0.196 -0.219,-0.325 -0.219,-0.386c-0.896,-1.182 -2.29,-2.29 -4.183,-3.315c-2.917,-1.663 -4.445,-2.525 -4.574,-2.593c0,-1.641 0.117,-3.214 0.347,-4.726l0.621,0.196c1.915,1.047 3.808,2.095 5.679,3.13c2.149,1.377 3.382,3.04 3.689,4.983c0.196,0.677 0.291,1.366 0.291,2.066c0,1.445 -0.476,3.259 -1.438,5.442c-2.397,1.215 -5.712,1.82 -9.945,1.82c-1.311,0 -2.436,-0.095 -3.376,-0.28C27.398,46.56 27.639,44.964 28.121,42.125z" id="path_2"/><path fill="#0992d1" d="M27.666,23.112c1.227,-0.633 3.063,-1.573 5.51,-2.822c0.213,-0.251 0.313,-0.375 0.313,-0.375c-0.555,-0.667 -1.395,-1.02 -2.508,-1.053c-0.964,-0.034 -1.921,-0.05 -2.873,-0.05c0.655,-1.591 1.339,-2.699 2.038,-3.321c2.088,-0.173 3.752,0.033 5,0.622c0.527,0.627 0.645,1.237 0.364,1.836c-0.112,0.386 -0.442,1.114 -0.985,2.195c-0.527,0.868 -1.108,1.579 -1.759,2.133c-0.644,0.56 -1.5,0.947 -2.575,1.165c-1.871,0.296 -2.811,0.442 -2.822,0.442c-0.252,0 -0.375,-0.05 -0.375,-0.146C26.994,23.443 27.218,23.235 27.666,23.112z" id="path_3"/></svg>