<svg id="vector" xmlns="http://www.w3.org/2000/svg" width="75" height="67" viewBox="0 0 83 73"><path fill="#213e95" d="M57.914,52.989c-0.033,1.075 -0.207,2.032 -0.526,2.889c-0.341,0.566 -0.593,0.863 -0.756,0.885c-0.184,0 -0.268,-0.308 -0.246,-0.918c-0.285,-6.138 -0.638,-10.427 -1.063,-12.867c-0.229,-2.189 -0.544,-3.981 -0.936,-5.37c-0.146,-0.543 -0.224,-1.047 -0.246,-1.506c-0.033,-0.857 0.09,-1.842 0.375,-2.957l0.756,-2.854c0.102,-0.09 0.207,-0.136 0.331,-0.136c0.128,0 0.218,0.191 0.257,0.577c0.057,0.498 0.124,0.806 0.208,0.919c0.083,0.105 0.375,0.985 0.878,2.637c0.325,1.086 0.734,1.938 1.215,2.559c0.029,0.219 0.052,0.427 0.062,0.628c0,0.403 -0.117,0.968 -0.352,1.702c-0.235,0.733 -0.398,1.237 -0.498,1.512l-0.13,0.493L57.914,52.989z" id="path_0"/><path fill="#213e95" d="M50.613,23.164l1.019,-3.035l9.889,-4.345c0.135,-0.033 0.196,-0.017 0.196,0.051c0,0.033 -0.017,0.111 -0.05,0.246l-1.328,3.146l-9.496,4.25c-0.124,0.012 -0.196,0.012 -0.229,0C50.568,23.41 50.568,23.31 50.613,23.164z" id="path_1"/><path fill="#008046" d="M21.928,53.493c1.013,0.028 2.346,-0.033 3.986,-0.201c1.858,-0.196 3.169,-0.291 3.936,-0.291c0.23,0 0.522,-0.18 0.868,-0.527c0.297,-0.699 0.588,-1.389 0.885,-2.071c0.342,-0.795 0.51,-1.535 0.51,-2.212c0.067,-1.843 0.056,-4.339 -0.034,-7.503c-0.089,-3.763 -0.134,-6.271 -0.134,-7.521c0,-1.058 0.012,-2.065 0.034,-3.018c0.297,-1.042 0.812,-2.587 1.556,-4.631l0.359,0.297c0.033,0.128 0.146,0.963 0.347,2.508c0.128,0.985 0.353,1.775 0.672,2.38l-0.134,0.046c0.711,0.878 1.069,1.534 1.069,1.971c0,0.229 -0.084,0.526 -0.247,0.884c-0.263,0.482 -0.414,0.773 -0.442,0.868l-1.265,1.971c0,1.978 0,5.163 0,9.559c0,0.033 -0.057,0.179 -0.162,0.432c-0.034,0.162 -0.018,0.308 0.05,0.441c2.077,-3.152 4.832,-4.726 8.265,-4.726c0.437,0 0.879,0.034 1.327,0.102c2.475,0.632 4.199,1.937 5.185,3.908c-0.303,5.162 -2.016,8.191 -5.135,9.104c-4.513,1.315 -8.136,1.971 -10.862,1.971c-2.083,0 -3.942,-0.342 -5.582,-1.019c-1.311,-0.325 -3.209,-1.02 -5.695,-2.067C21.283,54.014 21.502,53.795 21.928,53.493L21.928,53.493zM40.87,46.634c-0.264,-0.033 -0.549,-0.051 -0.856,-0.051c-1.702,0 -3.344,0.628 -4.917,1.882c-1.383,1.098 -2.514,2.525 -3.398,4.289c2.329,-0.066 5.499,-0.392 9.496,-0.969c0.331,-0.134 1.231,-0.387 2.711,-0.756c1.114,-0.297 1.987,-0.616 2.626,-0.969v-0.593C44.913,47.771 43.026,46.824 40.87,46.634z" id="path_2"/><path fill="#0992d1" d="M37.795,31.14c1.227,-0.632 3.063,-1.572 5.51,-2.821c0.213,-0.251 0.313,-0.375 0.313,-0.375c-0.555,-0.666 -1.395,-1.02 -2.509,-1.053c-0.963,-0.034 -1.92,-0.05 -2.872,-0.05c0.654,-1.591 1.338,-2.699 2.037,-3.321c2.089,-0.174 3.753,0.033 5.001,0.622c0.525,0.627 0.645,1.237 0.363,1.837c-0.111,0.386 -0.442,1.113 -0.985,2.194c-0.526,0.868 -1.107,1.579 -1.758,2.133c-0.644,0.561 -1.5,0.946 -2.575,1.165c-1.871,0.297 -2.812,0.442 -2.822,0.442c-0.252,0 -0.375,-0.051 -0.375,-0.146C37.123,31.471 37.347,31.264 37.795,31.14z" id="path_3"/></svg>