<svg id="vector" xmlns="http://www.w3.org/2000/svg" width="75" height="67" viewBox="0 0 83 73"><path fill="#DD2C00" d="M52.941,52.35c-0.033,1.075 -0.207,2.032 -0.527,2.889c-0.34,0.565 -0.594,0.862 -0.756,0.885c-0.184,0 -0.268,-0.308 -0.246,-0.918c-0.285,-6.137 -0.639,-10.426 -1.064,-12.867c-0.229,-2.189 -0.543,-3.981 -0.934,-5.37c-0.146,-0.543 -0.225,-1.047 -0.246,-1.506c-0.035,-0.857 0.09,-1.842 0.375,-2.956l0.756,-2.856c0.102,-0.089 0.207,-0.134 0.33,-0.134c0.129,0 0.219,0.19 0.258,0.576c0.057,0.499 0.123,0.807 0.207,0.918c0.084,0.106 0.375,0.985 0.879,2.638c0.324,1.086 0.734,1.937 1.215,2.559c0.027,0.218 0.051,0.425 0.063,0.627c0,0.403 -0.119,0.969 -0.354,1.702c-0.236,0.733 -0.398,1.238 -0.498,1.512l-0.129,0.493L52.941,52.35z" id="path_0"/><path fill="#DD2C00" d="M46.613,25.83l-0.672,0.05l-0.1,-0.162c2.268,-1.204 4.02,-2.335 5.268,-3.399c-0.424,-0.151 -0.709,-0.308 -0.855,-0.476c-0.426,-0.292 -0.639,-0.79 -0.639,-1.49c-0.033,-1.433 0.477,-2.498 1.529,-3.197c0.336,-0.286 0.895,-0.353 1.674,-0.202c0.801,0.442 1.199,0.969 1.199,1.596c0.217,2.352 -1.316,4.457 -4.6,6.327C48.383,25.348 47.447,25.667 46.613,25.83L46.613,25.83zM52.695,20.549c0.313,-0.118 0.477,-0.331 0.477,-0.622c0,-0.493 -0.225,-0.856 -0.674,-1.086c-0.441,-0.174 -0.924,-0.18 -1.443,-0.017c-0.365,0.263 -0.555,0.498 -0.576,0.706c-0.035,0.252 0.133,0.583 0.492,0.985c0.33,0.135 0.594,0.196 0.789,0.196C52.012,20.779 52.32,20.723 52.695,20.549z" id="path_1"/><path fill="#0992d1" d="M30.09,51.05c1.277,0.09 2.531,0.135 3.758,0.135c3.006,0 5.902,-0.336 8.689,-1.002c0.102,-0.095 0.152,-0.196 0.152,-0.291c0,-0.067 -0.074,-0.196 -0.213,-0.387c-0.146,-0.196 -0.219,-0.325 -0.219,-0.386c-0.896,-1.182 -2.291,-2.29 -4.184,-3.315c-2.916,-1.663 -4.445,-2.525 -4.574,-2.593c0,-1.641 0.117,-3.214 0.348,-4.725l0.621,0.196c1.914,1.047 3.809,2.094 5.678,3.13c2.15,1.377 3.383,3.041 3.689,4.983c0.197,0.678 0.291,1.366 0.291,2.066c0,1.445 -0.475,3.259 -1.438,5.442c-2.398,1.215 -5.711,1.82 -9.945,1.82c-1.311,0 -2.436,-0.095 -3.377,-0.28C29.367,55.485 29.609,53.889 30.09,51.05z" id="path_2"/><path fill="#0992d1" d="M29.635,32.038c1.227,-0.632 3.063,-1.573 5.51,-2.822c0.213,-0.251 0.314,-0.375 0.314,-0.375c-0.555,-0.667 -1.395,-1.019 -2.51,-1.053c-0.961,-0.034 -1.92,-0.05 -2.871,-0.05c0.654,-1.591 1.338,-2.699 2.037,-3.321c2.09,-0.173 3.752,0.034 5.002,0.622c0.525,0.627 0.643,1.237 0.363,1.836c-0.111,0.386 -0.443,1.114 -0.986,2.195c-0.525,0.868 -1.109,1.579 -1.758,2.134c-0.645,0.56 -1.5,0.946 -2.576,1.164c-1.869,0.297 -2.811,0.442 -2.822,0.442c-0.25,0 -0.375,-0.05 -0.375,-0.146C28.963,32.368 29.188,32.161 29.635,32.038z" id="path_3"/></svg>