<svg id="vector" xmlns="http://www.w3.org/2000/svg" width="75" height="67" viewBox="0 0 83 73"><path fill="#231f20" d="M59.88,52.763c-0.034,1.075 -0.207,2.033 -0.525,2.889c-0.343,0.566 -0.595,0.862 -0.757,0.885c-0.185,0 -0.269,-0.308 -0.246,-0.918c-0.286,-6.137 -0.639,-10.426 -1.063,-12.867c-0.229,-2.189 -0.544,-3.981 -0.936,-5.37c-0.146,-0.543 -0.224,-1.048 -0.247,-1.507c-0.033,-0.857 0.09,-1.842 0.375,-2.957l0.756,-2.855c0.102,-0.09 0.208,-0.135 0.331,-0.135c0.129,0 0.219,0.19 0.258,0.577c0.056,0.499 0.123,0.807 0.207,0.918c0.084,0.106 0.375,0.985 0.878,2.637c0.325,1.086 0.734,1.938 1.217,2.56c0.027,0.218 0.05,0.425 0.062,0.626c0,0.403 -0.119,0.969 -0.354,1.703s-0.397,1.238 -0.498,1.512l-0.129,0.492L59.88,52.763z" id="path_0"/><path fill="#231f20" d="M52.578,23.573l1.02,-3.035l9.889,-4.345c0.134,-0.034 0.195,-0.017 0.195,0.051c0,0.033 -0.017,0.112 -0.05,0.246l-1.327,3.147l-9.497,4.25c-0.123,0.011 -0.195,0.011 -0.229,0C52.534,23.819 52.534,23.719 52.578,23.573z" id="path_1"/><path fill="#213e95" d="M29.239,46.043v-0.162c0.549,-0.767 1.333,-1.809 2.362,-3.135h0.113c0.212,0.229 0.795,0.699 1.758,1.411c0.459,0.341 0.924,0.683 1.395,1.036c0.526,-0.734 1.231,-1.663 2.116,-2.789h0.112c0.834,0.885 1.875,1.686 3.136,2.408c0.034,0.022 0.05,0.073 0.05,0.151l-2.296,3.068c-0.011,0.022 -0.044,0.028 -0.1,0.028c-0.078,0 -0.196,-0.022 -0.365,-0.079c-0.772,-0.364 -1.741,-1.125 -2.9,-2.296v-0.016l-2.016,2.704c-0.011,0.022 -0.045,0.033 -0.101,0.033c-0.078,0 -0.196,-0.028 -0.358,-0.083C31.368,47.964 30.398,47.203 29.239,46.043z" id="path_2"/><path fill="#213e95" d="M31.485,41.318v-0.163c0.548,-0.767 1.338,-1.808 2.362,-3.129h0.118c0.817,0.896 1.864,1.697 3.13,2.408c0.022,0.033 0.033,0.084 0.033,0.151l-2.278,3.08c-0.023,0.011 -0.057,0.017 -0.102,0.017c-0.073,0 -0.19,-0.028 -0.341,-0.079C33.618,43.238 32.644,42.477 31.485,41.318z" id="path_3"/><path fill="#213e95" d="M50.165,52.668c-1.765,1.125 -4.043,2.038 -6.843,2.738c-4.268,0.963 -7.885,1.433 -10.852,1.417c-2.968,-0.017 -5.275,-0.302 -6.916,-0.862c-1.64,-0.554 -3.08,-1.523 -4.311,-2.9c-1.065,-1.215 -1.687,-2.626 -1.871,-4.233c-0.241,-2.262 0.309,-4.704 1.657,-7.318c0.14,-0.129 0.28,-0.286 0.427,-0.465c0.14,-0.179 0.302,-0.257 0.476,-0.224l-0.017,0.398c-0.746,1.595 -1.148,3.018 -1.216,4.261c-0.034,0.437 -0.034,0.739 0,0.901c0.46,2.1 2.05,3.579 4.776,4.436c1.528,0.521 3.131,0.845 4.805,0.963c0.263,0.011 0.672,0.044 1.232,0.101c3.421,0.012 7.57,-0.392 12.446,-1.215c2.823,-0.527 4.832,-1.237 6.025,-2.134c-0.078,-0.358 -0.347,-0.767 -0.807,-1.221c-0.459,-0.453 -0.738,-0.862 -0.834,-1.221c-0.066,-1.445 0.018,-2.923 0.246,-4.429l0.196,-0.017c1.519,1.713 2.364,3.539 2.526,5.459C51.509,49.348 51.128,51.201 50.165,52.668z" id="path_4"/><path fill="#213e95" d="M31.889,34.358c1.227,-0.633 3.063,-1.574 5.509,-2.822c0.213,-0.252 0.314,-0.375 0.314,-0.375c-0.555,-0.666 -1.395,-1.019 -2.509,-1.053c-0.963,-0.034 -1.92,-0.05 -2.873,-0.05c0.655,-1.59 1.339,-2.699 2.038,-3.321c2.089,-0.173 3.753,0.034 5.001,0.622c0.526,0.627 0.645,1.238 0.363,1.837c-0.111,0.386 -0.442,1.114 -0.985,2.195c-0.526,0.868 -1.108,1.579 -1.758,2.134c-0.644,0.56 -1.501,0.946 -2.575,1.165c-1.871,0.297 -2.813,0.442 -2.822,0.442c-0.252,0 -0.375,-0.05 -0.375,-0.146C31.217,34.688 31.44,34.481 31.889,34.358z" id="path_5"/></svg>