<svg id="vector" xmlns="http://www.w3.org/2000/svg" width="75" height="67" viewBox="0 0 83 73"><path fill="#000001" d="M65.607,50.133c-0.032,1.076 -0.206,2.033 -0.525,2.889c-0.343,0.566 -0.594,0.863 -0.756,0.887c-0.186,0 -0.27,-0.309 -0.247,-0.92c-0.285,-6.137 -0.639,-10.426 -1.063,-12.867c-0.229,-2.189 -0.544,-3.98 -0.936,-5.369c-0.146,-0.543 -0.224,-1.047 -0.246,-1.506c-0.033,-0.857 0.09,-1.842 0.375,-2.957l0.757,-2.855c0.1,-0.09 0.206,-0.135 0.329,-0.135c0.13,0 0.219,0.189 0.258,0.576c0.056,0.498 0.123,0.807 0.207,0.918c0.084,0.107 0.375,0.986 0.88,2.639c0.325,1.086 0.733,1.936 1.215,2.559c0.028,0.219 0.05,0.426 0.062,0.627c0,0.404 -0.117,0.969 -0.353,1.703c-0.235,0.732 -0.397,1.236 -0.499,1.512l-0.128,0.492L65.607,50.133z" id="path_0"/><path fill="#000001" d="M58.306,20.309l1.02,-3.035l9.889,-4.346c0.135,-0.033 0.196,-0.016 0.196,0.051c0,0.033 -0.017,0.113 -0.051,0.246l-1.326,3.146l-9.498,4.25c-0.122,0.012 -0.195,0.012 -0.229,0C58.262,20.555 58.262,20.453 58.306,20.309z" id="path_1"/><path fill="#DD2C00" d="M18.053,39.203c0.033,0.061 0.061,0.162 0.095,0.291c-0.285,0.449 -0.688,1.125 -1.215,2.021c-0.952,1.473 -1.522,2.951 -1.72,4.43c-0.195,1.563 0.028,2.904 0.672,4.031c1.159,2.328 3.036,3.885 5.628,4.664c1.803,0.52 4.228,0.639 7.268,0.342c4.362,-1.215 7.011,-3.047 7.94,-5.5c-0.066,-1.717 -0.438,-3.314 -1.104,-4.791c-0.263,-0.611 -0.666,-1.514 -1.209,-2.705c-0.067,-0.953 0.012,-2.336 0.241,-4.139c0.189,-0.033 0.363,0.018 0.526,0.146c0.503,0.396 1.259,0.969 2.262,1.725c0.867,0.559 1.774,0.906 2.727,1.053c0.975,-1.652 1.944,-3.314 2.9,-4.99c1.35,-1.926 2.9,-3.041 4.659,-3.332c0.604,-0.207 1.243,-0.313 1.92,-0.313c1.513,0 3.036,0.426 4.581,1.277c1.438,1.41 2.161,2.598 2.161,3.561c0,0.162 -0.017,0.342 -0.051,0.537c-0.258,2.906 -1.399,5.068 -3.426,6.473c-3.063,1.574 -6.12,2.363 -9.173,2.363c-1.987,0 -3.784,-0.369 -5.392,-1.113c-0.342,-0.068 -0.51,0.016 -0.51,0.246c0.072,0.576 0.112,1.137 0.112,1.674c0,1.541 -0.28,3.068 -0.852,4.58c-0.952,2.447 -2.576,4.457 -4.872,6.014c-2.295,1.563 -4.775,2.34 -7.43,2.34c-2.727,0 -5.095,-0.801 -7.122,-2.408c-2.721,-2.16 -4.082,-5.273 -4.082,-9.344c0,-1.691 0.29,-3.264 0.868,-4.703c1.052,-1.982 2.122,-3.445 3.214,-4.385C17.89,39.219 18.02,39.203 18.053,39.203L18.053,39.203zM48.776,36.666c-0.342,-0.033 -0.655,-0.049 -0.952,-0.049c-2.251,0 -4.256,1.443 -6.003,4.332c0.6,0.264 1.092,0.377 1.474,0.342c0.638,0.035 1.248,0.051 1.842,0.051c3.605,0 6.618,-0.756 9.037,-2.262c-0.195,-0.471 -0.555,-0.875 -1.069,-1.199c-0.195,-0.135 -0.678,-0.402 -1.438,-0.822C50.512,36.654 49.554,36.527 48.776,36.666z" id="path_2"/><path fill="#DD2C00" d="M37.64,28.285c1.226,-0.633 3.063,-1.574 5.509,-2.822c0.213,-0.252 0.314,-0.375 0.314,-0.375c-0.555,-0.666 -1.395,-1.02 -2.509,-1.053c-0.964,-0.035 -1.921,-0.051 -2.873,-0.051c0.655,-1.592 1.339,-2.699 2.038,-3.32c2.089,-0.174 3.752,0.033 5,0.621c0.526,0.627 0.645,1.238 0.365,1.836c-0.112,0.387 -0.443,1.115 -0.986,2.195c-0.526,0.869 -1.108,1.58 -1.759,2.133c-0.643,0.561 -1.5,0.947 -2.575,1.166c-1.87,0.297 -2.811,0.443 -2.821,0.443c-0.253,0 -0.375,-0.053 -0.375,-0.146C36.968,28.615 37.191,28.408 37.64,28.285z" id="path_3"/></svg>