<svg id="vector" xmlns="http://www.w3.org/2000/svg" width="75" height="67" viewBox="0 0 83 73"><path fill="#DD2C00" d="M59.268,53.301c-0.033,1.075 -0.207,2.031 -0.525,2.889c-0.342,0.566 -0.594,0.862 -0.756,0.884c-0.186,0 -0.27,-0.308 -0.246,-0.918c-0.285,-6.137 -0.639,-10.426 -1.064,-12.867c-0.23,-2.188 -0.543,-3.98 -0.936,-5.37c-0.145,-0.543 -0.225,-1.046 -0.246,-1.505c-0.033,-0.857 0.09,-1.843 0.375,-2.957l0.756,-2.855c0.102,-0.09 0.207,-0.135 0.33,-0.135c0.129,0 0.219,0.19 0.258,0.577c0.057,0.498 0.123,0.806 0.207,0.918c0.084,0.105 0.375,0.985 0.879,2.637c0.324,1.087 0.734,1.938 1.215,2.56c0.029,0.218 0.051,0.426 0.063,0.627c0,0.403 -0.117,0.969 -0.352,1.702c-0.236,0.733 -0.398,1.237 -0.5,1.512l-0.129,0.493L59.268,53.301z" id="path_0"/><path fill="#DD2C00" d="M52.941,24.41l-0.674,0.051l-0.1,-0.162c2.268,-1.205 4.02,-2.336 5.27,-3.399c-0.426,-0.151 -0.711,-0.308 -0.857,-0.476c-0.426,-0.292 -0.639,-0.79 -0.639,-1.489c-0.033,-1.435 0.477,-2.498 1.529,-3.198c0.336,-0.285 0.896,-0.353 1.674,-0.201c0.801,0.442 1.199,0.969 1.199,1.596c0.217,2.352 -1.316,4.457 -4.598,6.328C54.711,23.929 53.775,24.247 52.941,24.41L52.941,24.41zM59.021,19.13c0.314,-0.117 0.477,-0.331 0.477,-0.622c0,-0.491 -0.225,-0.856 -0.672,-1.086c-0.443,-0.173 -0.924,-0.179 -1.445,-0.017c-0.363,0.263 -0.555,0.498 -0.576,0.705c-0.033,0.253 0.133,0.583 0.492,0.985c0.33,0.136 0.594,0.197 0.789,0.197C58.338,19.359 58.646,19.304 59.021,19.13z" id="path_1"/><path fill="#008046" d="M23.281,53.804c1.014,0.028 2.346,-0.034 3.986,-0.201c1.859,-0.196 3.17,-0.292 3.936,-0.292c0.23,0 0.521,-0.178 0.869,-0.526c0.297,-0.699 0.588,-1.389 0.885,-2.071c0.342,-0.795 0.508,-1.534 0.508,-2.212c0.068,-1.842 0.057,-4.339 -0.033,-7.503c-0.09,-3.763 -0.133,-6.271 -0.133,-7.52c0,-1.059 0.01,-2.066 0.033,-3.019c0.297,-1.041 0.813,-2.587 1.557,-4.63l0.357,0.296c0.035,0.129 0.146,0.963 0.348,2.509c0.129,0.985 0.354,1.775 0.672,2.38l-0.135,0.045c0.711,0.879 1.07,1.533 1.07,1.971c0,0.229 -0.084,0.526 -0.246,0.885c-0.264,0.481 -0.416,0.772 -0.443,0.868l-1.266,1.971c0,1.976 0,5.163 0,9.559c0,0.033 -0.055,0.179 -0.162,0.431c-0.033,0.162 -0.016,0.308 0.051,0.442c2.078,-3.152 4.832,-4.726 8.266,-4.726c0.436,0 0.877,0.033 1.326,0.101c2.475,0.633 4.199,1.937 5.186,3.909c-0.303,5.161 -2.018,8.191 -5.135,9.104c-4.514,1.316 -8.137,1.971 -10.863,1.971c-2.082,0 -3.941,-0.341 -5.584,-1.018c-1.309,-0.325 -3.207,-1.02 -5.693,-2.067C22.637,54.325 22.855,54.106 23.281,53.804L23.281,53.804zM42.223,46.944c-0.262,-0.033 -0.549,-0.05 -0.855,-0.05c-1.703,0 -3.344,0.627 -4.916,1.882c-1.383,1.097 -2.516,2.525 -3.398,4.289c2.328,-0.068 5.498,-0.393 9.496,-0.97c0.33,-0.134 1.23,-0.387 2.709,-0.756c1.115,-0.296 1.988,-0.615 2.627,-0.968v-0.594C46.266,48.082 44.379,47.135 42.223,46.944z" id="path_2"/><path fill="#0992d1" d="M39.148,31.451c1.227,-0.632 3.063,-1.573 5.51,-2.822c0.213,-0.251 0.313,-0.375 0.313,-0.375c-0.553,-0.666 -1.393,-1.019 -2.508,-1.052c-0.963,-0.034 -1.92,-0.052 -2.871,-0.052c0.654,-1.59 1.336,-2.698 2.037,-3.319c2.088,-0.174 3.752,0.033 5,0.621c0.525,0.627 0.645,1.238 0.363,1.837c-0.111,0.387 -0.441,1.114 -0.984,2.194c-0.527,0.869 -1.109,1.58 -1.758,2.134c-0.645,0.56 -1.502,0.946 -2.576,1.165c-1.871,0.296 -2.811,0.441 -2.822,0.441c-0.252,0 -0.375,-0.05 -0.375,-0.146C38.477,31.782 38.699,31.575 39.148,31.451z" id="path_3"/></svg>