<svg id="vector" xmlns="http://www.w3.org/2000/svg" width="75" height="67" viewBox="0 0 83 73"><path fill="#DD2C00" d="M62.522,48.708c-0.034,1.06 -0.202,2.017 -0.509,2.873c-0.348,0.544 -0.605,0.817 -0.768,0.817C61.067,52.41 60.988,52.13 61,51.564c-0.274,-6.137 -0.661,-11.411 -1.148,-15.829c-0.229,-2.179 -0.543,-3.965 -0.935,-5.365c-0.168,-0.537 -0.257,-1.035 -0.28,-1.494c-0.012,-0.852 0.117,-1.837 0.392,-2.951l0.773,-2.855c0.095,-0.089 0.201,-0.135 0.308,-0.135c0.134,0 0.229,0.186 0.279,0.561c0.045,0.509 0.107,0.817 0.191,0.924s0.381,0.985 0.896,2.648c0.325,1.08 0.728,1.932 1.199,2.559c0.028,0.207 0.045,0.409 0.045,0.604c0.022,0.415 -0.09,0.985 -0.336,1.714c-0.246,0.728 -0.409,1.231 -0.498,1.518l-0.117,0.493L62.522,48.708z" id="path_0"/><path fill="#DD2C00" d="M56.341,62.445l1.019,-3.034l9.889,-4.346c0.134,-0.033 0.196,-0.017 0.196,0.045c0,0.033 -0.017,0.117 -0.051,0.247l-1.327,3.152l-9.497,4.249c-0.123,0.012 -0.196,0.012 -0.229,0C56.296,62.691 56.296,62.585 56.341,62.445z" id="path_1"/><path fill="#000001" d="M39.274,29.173V29.01c0.548,-0.767 1.333,-1.808 2.362,-3.136h0.112c0.213,0.229 0.795,0.7 1.758,1.412c0.459,0.341 0.924,0.683 1.394,1.035c0.526,-0.732 1.232,-1.662 2.117,-2.789h0.112c0.834,0.886 1.876,1.687 3.135,2.408c0.034,0.022 0.051,0.073 0.051,0.151L48.02,31.16c-0.011,0.022 -0.044,0.028 -0.101,0.028c-0.078,0 -0.196,-0.022 -0.364,-0.078c-0.773,-0.364 -1.742,-1.126 -2.9,-2.296v-0.017l-2.016,2.704c-0.011,0.021 -0.045,0.033 -0.101,0.033c-0.079,0 -0.196,-0.027 -0.358,-0.084C41.402,31.094 40.433,30.332 39.274,29.173z" id="path_2"/><path fill="#000001" d="M41.519,24.447v-0.163c0.549,-0.767 1.339,-1.809 2.363,-3.13H44c0.817,0.896 1.864,1.696 3.13,2.407c0.022,0.034 0.033,0.084 0.033,0.151l-2.278,3.08c-0.023,0.011 -0.056,0.017 -0.101,0.017c-0.073,0 -0.19,-0.028 -0.341,-0.078C43.653,26.368 42.678,25.606 41.519,24.447z" id="path_3"/><path fill="#000001" d="M19.379,36.681c0.263,-0.174 0.397,-0.14 0.397,0.102c-0.297,0.644 -0.728,1.624 -1.299,2.935c-0.874,2.239 -1.311,4.132 -1.311,5.678c0,1.887 0.622,3.398 1.871,4.524c2.217,2.055 4.804,3.084 7.76,3.084c1.182,0 2.352,-0.179 3.511,-0.543c3.203,-1.047 5.543,-2.52 7.021,-4.423c0.437,-0.61 0.655,-1.3 0.655,-2.066c0,-0.884 -0.425,-2.229 -1.282,-4.031c-0.733,-0.61 -1.097,-1.574 -1.097,-2.885c0,-0.296 0.017,-0.738 0.05,-1.332c0.033,-0.588 0.05,-1.019 0.05,-1.288c0,-0.263 0.067,-0.654 0.213,-1.17c0.163,-0.034 0.258,0.027 0.292,0.19c0.033,0.157 0.067,0.252 0.101,0.285c0.745,1.182 1.971,1.954 3.69,2.313c2.156,0.13 3.763,-0.543 4.821,-2.015c0.319,-1.249 0.661,-2.229 1.02,-2.94c0.403,0.067 0.604,0.291 0.604,0.672c-0.028,0.639 -0.045,0.936 -0.045,0.907c0.426,1.606 1.199,2.582 2.313,2.934c1.148,0.325 2.077,0.219 2.788,-0.33c0.067,-0.129 0.028,-0.269 -0.118,-0.414c-0.14,-0.151 -0.196,-0.258 -0.162,-0.325l0.213,-4.361c0.241,-0.151 0.392,-0.213 0.459,-0.18c0.7,0.667 1.108,1.624 1.232,2.873c0.011,3.662 -0.532,6.053 -1.624,7.167c-0.823,0.296 -1.556,0.442 -2.201,0.442c-0.829,0 -1.584,-0.246 -2.262,-0.739c-0.896,-0.678 -1.427,-1.735 -1.59,-3.18c-0.319,0.29 -0.594,0.716 -0.823,1.259c-0.325,0.667 -0.56,1.098 -0.705,1.299c-1.137,1.182 -2.425,1.77 -3.87,1.77c-0.375,0 -0.739,-0.056 -1.098,-0.162c-0.034,0.336 -0.095,1.519 -0.185,3.545c-0.028,1.505 -0.263,2.659 -0.688,3.46c-1.148,2.688 -2.851,4.682 -5.118,5.969c-2.262,1.294 -4.608,1.938 -7.038,1.938c-3.618,0 -6.389,-1.366 -8.315,-4.094c-1.373,-1.971 -2.056,-4.266 -2.056,-6.893c0,-1.674 0.42,-3.633 1.255,-5.89c0.335,-0.7 0.705,-1.444 1.114,-2.246C18.327,37.723 18.814,37.107 19.379,36.681z" id="path_4"/><path fill="#000001" d="M41.805,17.912c1.226,-0.633 3.063,-1.573 5.509,-2.821c0.213,-0.252 0.314,-0.375 0.314,-0.375c-0.554,-0.667 -1.395,-1.02 -2.509,-1.054c-0.963,-0.033 -1.92,-0.05 -2.873,-0.05c0.655,-1.59 1.338,-2.699 2.038,-3.321c2.089,-0.174 3.751,0.034 5,0.622c0.526,0.627 0.644,1.237 0.364,1.836c-0.112,0.387 -0.442,1.115 -0.985,2.196c-0.526,0.867 -1.108,1.578 -1.758,2.133c-0.644,0.56 -1.5,0.945 -2.576,1.165c-1.87,0.297 -2.811,0.442 -2.822,0.442c-0.252,0 -0.375,-0.052 -0.375,-0.146C41.133,18.243 41.357,18.035 41.805,17.912z" id="path_5"/></svg>