<svg id="vector" xmlns="http://www.w3.org/2000/svg" width="75" height="67" viewBox="0 0 83 73"><path fill="#213e95" d="M58.531,49.591c-0.033,1.075 -0.207,2.032 -0.525,2.889c-0.342,0.566 -0.594,0.862 -0.756,0.885c-0.186,0 -0.27,-0.308 -0.246,-0.918c-0.287,-6.137 -0.639,-10.426 -1.064,-12.868c-0.23,-2.189 -0.543,-3.981 -0.936,-5.37c-0.145,-0.542 -0.223,-1.046 -0.246,-1.505c-0.033,-0.857 0.09,-1.842 0.375,-2.957l0.756,-2.856c0.102,-0.09 0.207,-0.134 0.33,-0.134c0.129,0 0.219,0.19 0.258,0.577c0.057,0.498 0.123,0.806 0.207,0.918c0.084,0.106 0.375,0.985 0.879,2.637c0.326,1.086 0.734,1.937 1.215,2.559c0.029,0.219 0.051,0.426 0.063,0.627c0,0.403 -0.117,0.969 -0.354,1.702c-0.234,0.733 -0.396,1.237 -0.498,1.512l-0.129,0.493L58.531,49.591z" id="path_0"/><path fill="#213e95" d="M52.205,20.702l-0.672,0.05l-0.102,-0.163c2.268,-1.204 4.02,-2.335 5.27,-3.398c-0.426,-0.151 -0.711,-0.308 -0.857,-0.476c-0.426,-0.292 -0.639,-0.79 -0.639,-1.49c-0.033,-1.433 0.477,-2.498 1.529,-3.197c0.336,-0.286 0.895,-0.353 1.674,-0.202c0.801,0.442 1.199,0.969 1.199,1.596c0.219,2.352 -1.316,4.457 -4.598,6.327C53.975,20.22 53.039,20.54 52.205,20.702L52.205,20.702zM58.285,15.421c0.314,-0.118 0.477,-0.331 0.477,-0.622c0,-0.493 -0.225,-0.856 -0.672,-1.086c-0.443,-0.174 -0.926,-0.18 -1.445,-0.017c-0.363,0.263 -0.555,0.498 -0.576,0.706c-0.033,0.252 0.135,0.583 0.492,0.985c0.33,0.135 0.594,0.196 0.789,0.196C57.602,15.651 57.91,15.595 58.285,15.421z" id="path_1"/><path fill="#DD2C00" d="M23.787,45.727c1.104,-4.586 3.383,-7.929 6.836,-10.028c0.41,-0.325 1.037,-0.767 1.889,-1.327c-0.336,-0.185 -0.801,-0.291 -1.395,-0.325c-0.588,-0.034 -1.164,-0.062 -1.719,-0.084c-0.846,0.022 -1.691,0.033 -2.547,0.033c-0.92,0.151 -1.553,0.611 -1.9,1.378c-0.178,0.644 -0.469,1.069 -0.889,1.265c0.033,-1.411 0.549,-3.051 1.545,-4.922c0.701,-1.327 2.033,-1.988 4.004,-1.988c0.291,0 0.789,0.011 1.488,0.034c0.701,0.022 1.221,0.034 1.563,0.034c3.512,0.392 6.58,0.37 9.217,-0.067c0.219,0.023 0.543,-0.005 0.975,-0.084c0.436,-0.078 0.744,-0.118 0.93,-0.118c0.414,0 0.756,0.112 1.02,0.331c-0.168,0.302 -0.371,0.778 -0.611,1.422c-0.174,0.442 -0.357,0.896 -0.549,1.372c-0.189,0.477 -0.465,0.84 -0.828,1.092c-1.182,0.118 -3.689,0.778 -7.531,1.971c-2.754,1.17 -4.922,2.582 -6.496,4.233c-2.217,2.173 -3.414,4.552 -3.588,7.134c-0.275,1.467 0.123,2.877 1.193,4.232c0.844,1.215 1.953,2.223 3.33,3.019c2.813,1.764 6.77,2.643 11.877,2.643c1.523,0 3.891,-0.331 7.105,-0.986c0.129,0.034 0.324,0.006 0.588,-0.089s0.436,-0.14 0.525,-0.14c0.174,0 0.281,0.163 0.314,0.493c0.061,0.196 -0.156,0.493 -0.654,0.885c-2.566,1.439 -4.475,2.402 -5.746,2.895c-2.217,0.885 -4.34,1.289 -6.365,1.21c-2.984,-0.129 -5.572,-0.678 -7.756,-1.641c-2.004,-0.851 -3.398,-1.982 -4.184,-3.393c-1.338,-2.279 -2.02,-4.339 -2.055,-6.188c0,-0.347 0.029,-1.372 0.084,-3.068C23.514,46.678 23.619,46.27 23.787,45.727z" id="path_2"/><path fill="#DD2C00" d="M32.578,25.535c1.227,-0.633 3.063,-1.573 5.51,-2.822c0.213,-0.252 0.314,-0.375 0.314,-0.375c-0.555,-0.667 -1.395,-1.02 -2.51,-1.053c-0.963,-0.033 -1.92,-0.05 -2.871,-0.05c0.654,-1.591 1.338,-2.699 2.037,-3.321c2.088,-0.173 3.752,0.034 5,0.622c0.527,0.627 0.645,1.237 0.365,1.836c-0.113,0.386 -0.443,1.114 -0.986,2.195c-0.527,0.868 -1.107,1.579 -1.758,2.133c-0.645,0.56 -1.5,0.947 -2.576,1.165c-1.871,0.297 -2.811,0.442 -2.822,0.442c-0.252,0 -0.375,-0.05 -0.375,-0.145C31.906,25.866 32.131,25.658 32.578,25.535z" id="path_3"/></svg>