<svg id="vector" xmlns="http://www.w3.org/2000/svg" width="75" height="67" viewBox="0 0 83 73"><path fill="#DD2C00" d="M33.332,30.097v-0.163c0.549,-0.767 1.333,-1.808 2.363,-3.135h0.112c0.834,0.896 1.876,1.708 3.136,2.43c0.033,0.034 0.05,0.072 0.05,0.13l-2.279,3.085c-0.022,0.011 -0.062,0.016 -0.117,0.016c-0.068,0 -0.18,-0.027 -0.342,-0.084C35.465,32.018 34.491,31.256 33.332,30.097z" id="path_0"/><path fill="#DD2C00" d="M27.295,52.438c-0.918,0.033 -1.713,0.129 -2.379,0.279c-0.151,-0.117 -0.23,-0.285 -0.23,-0.492c2.481,-0.94 5.645,-2.458 9.48,-4.553c-0.033,0.057 0.61,-0.324 1.92,-1.147c0.93,-0.717 1.574,-1.389 1.938,-2.016c0,-0.817 -0.123,-1.713 -0.364,-2.683c-0.381,-0.851 -0.874,-1.752 -1.473,-2.705l0.504,-4.814h0.28c0.963,2.195 1.546,3.779 1.742,4.748c0.459,1.848 0.655,3.483 0.588,4.916c-0.011,0.896 -0.185,1.949 -0.526,3.164c-0.739,2.313 -2.313,3.835 -4.703,4.568C32.934,52.052 30.672,52.299 27.295,52.438z" id="path_1"/><path fill="#DD2C00" d="M33.231,23.204c1.227,-0.633 3.063,-1.574 5.51,-2.822c0.213,-0.252 0.314,-0.375 0.314,-0.375c-0.555,-0.667 -1.395,-1.02 -2.509,-1.053c-0.963,-0.033 -1.921,-0.051 -2.873,-0.051c0.655,-1.59 1.338,-2.699 2.038,-3.32c2.088,-0.173 3.751,0.034 5,0.621c0.527,0.628 0.645,1.238 0.364,1.837c-0.112,0.387 -0.442,1.115 -0.985,2.195c-0.527,0.867 -1.108,1.579 -1.759,2.134c-0.644,0.56 -1.5,0.945 -2.575,1.165c-1.871,0.296 -2.811,0.441 -2.822,0.441c-0.252,0 -0.375,-0.05 -0.375,-0.146C32.559,23.535 32.783,23.326 33.231,23.204z" id="path_2"/><path fill="#000001" d="M53.392,43.417c-0.034,1.06 -0.202,2.017 -0.51,2.873c-0.347,0.543 -0.604,0.817 -0.767,0.817c-0.179,0.011 -0.257,-0.269 -0.246,-0.834c-0.274,-6.138 -0.661,-11.412 -1.147,-15.829c-0.23,-2.179 -0.543,-3.965 -0.936,-5.365c-0.168,-0.537 -0.257,-1.035 -0.28,-1.494c-0.011,-0.852 0.118,-1.837 0.392,-2.951l0.773,-2.855c0.095,-0.09 0.202,-0.135 0.308,-0.135c0.134,0 0.23,0.185 0.28,0.56c0.044,0.511 0.106,0.817 0.19,0.925c0.084,0.106 0.381,0.985 0.896,2.648c0.325,1.08 0.728,1.932 1.199,2.559c0.027,0.207 0.044,0.409 0.044,0.604c0.022,0.415 -0.089,0.985 -0.336,1.714c-0.246,0.729 -0.409,1.231 -0.498,1.517l-0.118,0.493L53.392,43.417z" id="path_3"/><path fill="#000001" d="M47.21,57.154l1.019,-3.035l9.889,-4.345c0.134,-0.034 0.196,-0.017 0.196,0.045c0,0.033 -0.017,0.117 -0.051,0.246l-1.328,3.152l-9.496,4.25c-0.124,0.011 -0.196,0.011 -0.229,0C47.165,57.4 47.165,57.295 47.21,57.154z" id="path_4"/></svg>