<svg id="vector" xmlns="http://www.w3.org/2000/svg" width="75" height="67" viewBox="0 0 83 73"><path fill="#DD2C00" d="M56.674,45.38c-0.034,1.059 -0.201,2.016 -0.509,2.873c-0.347,0.543 -0.605,0.817 -0.767,0.817c-0.179,0.011 -0.258,-0.269 -0.247,-0.834c-0.274,-6.137 -0.661,-11.412 -1.147,-15.829c-0.23,-2.179 -0.543,-3.965 -0.936,-5.365c-0.167,-0.538 -0.257,-1.036 -0.28,-1.495c-0.011,-0.851 0.118,-1.836 0.392,-2.951l0.773,-2.855c0.095,-0.09 0.202,-0.135 0.308,-0.135c0.135,0 0.23,0.185 0.28,0.56c0.045,0.509 0.106,0.817 0.19,0.924c0.084,0.106 0.381,0.985 0.896,2.648c0.325,1.08 0.728,1.931 1.198,2.559c0.028,0.207 0.045,0.409 0.045,0.604c0.023,0.415 -0.089,0.985 -0.335,1.713s-0.409,1.232 -0.499,1.518l-0.118,0.492L56.674,45.38z" id="path_0"/><path fill="#DD2C00" d="M50.492,59.117l1.019,-3.035l9.889,-4.345c0.135,-0.034 0.196,-0.017 0.196,0.044c0,0.034 -0.017,0.118 -0.051,0.247l-1.327,3.152l-9.496,4.25c-0.124,0.011 -0.196,0.011 -0.23,0C50.448,59.364 50.448,59.257 50.492,59.117z" id="path_1"/><path fill="#0992d1" d="M32.491,43.565v-0.162c0.548,-0.768 1.333,-1.809 2.362,-3.136h0.112c0.834,0.896 1.875,1.708 3.136,2.43c0.034,0.033 0.05,0.072 0.05,0.129l-2.279,3.084c-0.022,0.012 -0.062,0.017 -0.118,0.017c-0.067,0 -0.18,-0.028 -0.341,-0.084C34.624,45.486 33.65,44.724 32.491,43.565z" id="path_2"/><path fill="#0992d1" d="M21.818,41.431c1.103,-4.585 3.382,-7.928 6.837,-10.028c0.409,-0.325 1.036,-0.767 1.887,-1.327c-0.336,-0.185 -0.801,-0.292 -1.395,-0.325c-0.588,-0.034 -1.165,-0.062 -1.719,-0.084c-0.846,0.022 -1.691,0.033 -2.548,0.033c-0.918,0.151 -1.551,0.61 -1.898,1.378c-0.179,0.644 -0.47,1.069 -0.89,1.265c0.034,-1.411 0.549,-3.051 1.545,-4.922c0.7,-1.327 2.033,-1.987 4.003,-1.987c0.292,0 0.79,0.011 1.489,0.034c0.7,0.022 1.221,0.034 1.563,0.034c3.511,0.392 6.579,0.37 9.216,-0.067c0.219,0.022 0.543,-0.006 0.975,-0.084c0.437,-0.078 0.745,-0.117 0.93,-0.117c0.414,0 0.755,0.112 1.019,0.33c-0.168,0.302 -0.37,0.778 -0.61,1.422c-0.173,0.442 -0.358,0.896 -0.549,1.372c-0.19,0.477 -0.465,0.84 -0.829,1.092c-1.182,0.117 -3.69,0.778 -7.532,1.971c-2.754,1.17 -4.921,2.582 -6.495,4.233c-2.217,2.172 -3.416,4.552 -3.589,7.134c-0.275,1.467 0.123,2.878 1.193,4.233c0.845,1.215 1.954,2.223 3.332,3.018c2.811,1.764 6.77,2.643 11.876,2.643c1.522,0 3.891,-0.33 7.105,-0.985c0.129,0.034 0.325,0.005 0.588,-0.09s0.437,-0.14 0.526,-0.14c0.174,0 0.28,0.162 0.314,0.493c0.062,0.196 -0.157,0.493 -0.655,0.885c-2.564,1.439 -4.474,2.402 -5.745,2.895c-2.217,0.885 -4.34,1.288 -6.367,1.21c-2.984,-0.129 -5.572,-0.678 -7.755,-1.641c-2.004,-0.851 -3.398,-1.982 -4.183,-3.393c-1.338,-2.279 -2.021,-4.339 -2.055,-6.188c0,-0.347 0.028,-1.372 0.084,-3.068C21.543,42.383 21.649,41.975 21.818,41.431z" id="path_3"/><path fill="#0992d1" d="M30.609,21.24c1.227,-0.633 3.063,-1.573 5.51,-2.822c0.213,-0.251 0.313,-0.375 0.313,-0.375c-0.555,-0.667 -1.395,-1.019 -2.509,-1.053c-0.962,-0.034 -1.92,-0.05 -2.872,-0.05c0.655,-1.591 1.338,-2.7 2.038,-3.321c2.089,-0.173 3.751,0.033 5,0.621c0.526,0.628 0.644,1.238 0.363,1.837c-0.112,0.386 -0.442,1.114 -0.985,2.195c-0.526,0.868 -1.109,1.579 -1.758,2.133c-0.644,0.56 -1.5,0.947 -2.576,1.165c-1.87,0.296 -2.811,0.442 -2.822,0.442c-0.252,0 -0.375,-0.05 -0.375,-0.146C29.937,21.571 30.161,21.363 30.609,21.24z" id="path_4"/></svg>