<svg id="vector" xmlns="http://www.w3.org/2000/svg" width="75" height="67" viewBox="0 0 83 73"><path fill="#213e95" d="M53.896,50.419c-0.034,1.075 -0.207,2.032 -0.526,2.89c-0.342,0.565 -0.594,0.861 -0.756,0.884c-0.185,0 -0.269,-0.308 -0.247,-0.918c-0.285,-6.137 -0.638,-10.426 -1.063,-12.867c-0.229,-2.189 -0.543,-3.98 -0.936,-5.37c-0.146,-0.543 -0.224,-1.047 -0.246,-1.507c-0.033,-0.855 0.09,-1.842 0.375,-2.955l0.756,-2.856c0.102,-0.09 0.208,-0.134 0.331,-0.134c0.128,0 0.218,0.189 0.257,0.576c0.057,0.499 0.124,0.807 0.208,0.918c0.084,0.106 0.375,0.986 0.879,2.638c0.324,1.087 0.733,1.938 1.215,2.56c0.028,0.218 0.051,0.425 0.062,0.626c0,0.403 -0.118,0.97 -0.353,1.702c-0.235,0.734 -0.397,1.238 -0.498,1.513l-0.129,0.492L53.896,50.419z" id="path_0"/><path fill="#213e95" d="M46.594,22.964l1.019,-3.034l9.889,-4.347c0.135,-0.032 0.196,-0.016 0.196,0.052c0,0.033 -0.017,0.111 -0.05,0.245l-1.328,3.147l-9.496,4.25c-0.123,0.012 -0.196,0.012 -0.229,0C46.549,23.21 46.549,23.109 46.594,22.964z" id="path_1"/><path fill="#DD2C00" d="M33.947,34.813v-0.163c0.549,-0.767 1.333,-1.809 2.363,-3.136h0.112c0.834,0.896 1.875,1.708 3.135,2.431c0.034,0.033 0.051,0.072 0.051,0.128l-2.279,3.086c-0.021,0.011 -0.062,0.017 -0.117,0.017c-0.067,0 -0.179,-0.028 -0.342,-0.084C36.081,36.733 35.106,35.972 33.947,34.813z" id="path_2"/><path fill="#DD2C00" d="M27.911,57.153c-0.918,0.034 -1.713,0.129 -2.379,0.28c-0.152,-0.118 -0.23,-0.286 -0.23,-0.493c2.48,-0.94 5.645,-2.458 9.48,-4.553c-0.034,0.057 0.61,-0.324 1.92,-1.147c0.93,-0.716 1.574,-1.388 1.938,-2.016c0,-0.817 -0.123,-1.714 -0.363,-2.682c-0.381,-0.852 -0.874,-1.753 -1.474,-2.705l0.505,-4.815h0.279c0.964,2.195 1.545,3.779 1.741,4.749c0.459,1.848 0.655,3.481 0.588,4.916c-0.011,0.896 -0.185,1.948 -0.525,3.163c-0.739,2.313 -2.313,3.836 -4.704,4.569C33.55,56.767 31.288,57.013 27.911,57.153z" id="path_3"/><path fill="#DD2C00" d="M33.847,27.919c1.227,-0.632 3.063,-1.573 5.51,-2.822c0.213,-0.251 0.313,-0.375 0.313,-0.375c-0.554,-0.666 -1.395,-1.02 -2.509,-1.053c-0.963,-0.033 -1.92,-0.05 -2.872,-0.05c0.655,-1.591 1.338,-2.699 2.038,-3.32c2.089,-0.174 3.752,0.033 5,0.621c0.526,0.628 0.645,1.237 0.364,1.837c-0.112,0.386 -0.442,1.113 -0.985,2.194c-0.526,0.868 -1.108,1.58 -1.759,2.134c-0.644,0.56 -1.5,0.946 -2.575,1.164c-1.87,0.297 -2.811,0.442 -2.822,0.442c-0.252,0 -0.375,-0.05 -0.375,-0.146C33.175,28.249 33.398,28.042 33.847,27.919z" id="path_4"/></svg>