<svg id="vector" xmlns="http://www.w3.org/2000/svg" width="75" height="67" viewBox="0 0 83 73"><path fill="#DD2C00" d="M65.607,50.133c-0.033,1.075 -0.207,2.032 -0.525,2.89c-0.342,0.565 -0.595,0.862 -0.757,0.884c-0.185,0 -0.269,-0.307 -0.246,-0.918c-0.285,-6.137 -0.638,-10.427 -1.063,-12.867c-0.229,-2.189 -0.544,-3.981 -0.936,-5.37c-0.146,-0.543 -0.224,-1.047 -0.246,-1.506c-0.034,-0.856 0.089,-1.842 0.375,-2.957l0.756,-2.854c0.101,-0.09 0.207,-0.136 0.33,-0.136c0.129,0 0.219,0.191 0.258,0.578c0.056,0.497 0.123,0.805 0.207,0.918c0.084,0.106 0.375,0.985 0.879,2.638c0.325,1.085 0.733,1.937 1.216,2.558c0.027,0.219 0.05,0.427 0.061,0.628c0,0.403 -0.117,0.968 -0.353,1.702c-0.234,0.733 -0.396,1.237 -0.498,1.512l-0.128,0.493L65.607,50.133z" id="path_0"/><path fill="#DD2C00" d="M58.306,20.309l1.02,-3.036l9.889,-4.345c0.135,-0.033 0.196,-0.017 0.196,0.051c0,0.033 -0.018,0.112 -0.051,0.246l-1.327,3.147l-9.497,4.249c-0.122,0.012 -0.195,0.012 -0.229,0C58.262,20.554 58.262,20.453 58.306,20.309z" id="path_1"/><path fill="#008046" d="M38.327,29.605v-0.163c0.549,-0.767 1.333,-1.808 2.363,-3.136h0.112c0.834,0.897 1.875,1.709 3.136,2.432c0.033,0.032 0.05,0.072 0.05,0.128l-2.279,3.086c-0.021,0.011 -0.061,0.017 -0.117,0.017c-0.067,0 -0.179,-0.028 -0.342,-0.084C40.461,31.526 39.486,30.765 38.327,29.605z" id="path_2"/><path fill="#008046" d="M18.052,39.202c0.034,0.062 0.062,0.163 0.096,0.292c-0.285,0.448 -0.689,1.126 -1.215,2.021c-0.952,1.473 -1.523,2.951 -1.72,4.429c-0.195,1.563 0.028,2.906 0.672,4.032c1.159,2.328 3.035,3.886 5.628,4.664c1.803,0.521 4.228,0.639 7.268,0.342c4.362,-1.216 7.011,-3.047 7.94,-5.499c-0.067,-1.719 -0.437,-3.315 -1.104,-4.793c-0.263,-0.61 -0.666,-1.513 -1.209,-2.704c-0.067,-0.953 0.011,-2.336 0.24,-4.139c0.19,-0.034 0.364,0.018 0.527,0.146c0.503,0.398 1.26,0.969 2.262,1.726c0.867,0.559 1.774,0.906 2.727,1.052c0.975,-1.652 1.943,-3.314 2.9,-4.989c1.35,-1.926 2.9,-3.04 4.659,-3.332c0.604,-0.206 1.243,-0.313 1.92,-0.313c1.512,0 3.035,0.427 4.581,1.277c1.438,1.411 2.161,2.599 2.161,3.561c0,0.163 -0.017,0.343 -0.051,0.538c-0.257,2.905 -1.399,5.067 -3.427,6.473c-3.063,1.573 -6.12,2.363 -9.172,2.363c-1.987,0 -3.785,-0.369 -5.392,-1.114c-0.342,-0.067 -0.51,0.017 -0.51,0.246c0.072,0.577 0.111,1.138 0.111,1.675c0,1.539 -0.279,3.068 -0.851,4.58c-0.952,2.446 -2.575,4.457 -4.872,6.013c-2.295,1.563 -4.775,2.342 -7.43,2.342c-2.728,0 -5.096,-0.802 -7.122,-2.408c-2.722,-2.161 -4.083,-5.274 -4.083,-9.346c0,-1.69 0.292,-3.264 0.869,-4.703c1.052,-1.982 2.121,-3.444 3.214,-4.384C17.89,39.22 18.019,39.202 18.052,39.202L18.052,39.202zM48.776,36.666c-0.342,-0.033 -0.655,-0.05 -0.952,-0.05c-2.251,0 -4.256,1.444 -6.003,4.333c0.6,0.264 1.092,0.376 1.473,0.342c0.639,0.034 1.249,0.051 1.843,0.051c3.605,0 6.618,-0.756 9.037,-2.262c-0.196,-0.471 -0.554,-0.874 -1.069,-1.199c-0.196,-0.134 -0.678,-0.402 -1.439,-0.823C50.512,36.654 49.555,36.526 48.776,36.666z" id="path_3"/><path fill="#008046" d="M37.639,23.609c1.227,-0.633 3.063,-1.574 5.51,-2.823c0.213,-0.251 0.313,-0.375 0.313,-0.375c-0.554,-0.666 -1.395,-1.02 -2.509,-1.052c-0.963,-0.034 -1.92,-0.051 -2.872,-0.051c0.655,-1.591 1.338,-2.699 2.038,-3.32c2.089,-0.174 3.752,0.033 5,0.621c0.526,0.628 0.645,1.238 0.364,1.837c-0.112,0.387 -0.442,1.114 -0.985,2.194c-0.526,0.868 -1.108,1.58 -1.759,2.134c-0.644,0.56 -1.5,0.946 -2.575,1.165c-1.87,0.296 -2.811,0.441 -2.822,0.441c-0.252,0 -0.375,-0.05 -0.375,-0.146C36.967,23.939 37.19,23.731 37.639,23.609z" id="path_4"/></svg>