<svg id="vector" xmlns="http://www.w3.org/2000/svg" width="75" height="67" viewBox="0 0 83 73"><path fill="#DD2C00" d="M61.299,49.085c-0.035,1.075 -0.209,2.033 -0.527,2.89c-0.342,0.566 -0.594,0.862 -0.756,0.885c-0.186,0 -0.268,-0.308 -0.246,-0.919c-0.285,-6.137 -0.639,-10.426 -1.064,-12.867c-0.23,-2.189 -0.543,-3.981 -0.936,-5.37c-0.145,-0.543 -0.223,-1.048 -0.246,-1.507c-0.033,-0.856 0.09,-1.842 0.375,-2.957l0.756,-2.855c0.102,-0.09 0.207,-0.135 0.332,-0.135c0.129,0 0.217,0.19 0.256,0.577c0.057,0.499 0.123,0.807 0.209,0.918c0.084,0.106 0.375,0.986 0.877,2.638c0.326,1.086 0.734,1.938 1.217,2.559c0.027,0.218 0.051,0.425 0.063,0.626c0,0.403 -0.119,0.969 -0.354,1.703c-0.236,0.733 -0.398,1.238 -0.498,1.512l-0.131,0.492L61.299,49.085z" id="path_0"/><path fill="#DD2C00" d="M54.971,20.831l-0.672,0.05l-0.102,-0.162c2.268,-1.204 4.021,-2.335 5.27,-3.399c-0.426,-0.151 -0.711,-0.308 -0.855,-0.476c-0.426,-0.291 -0.639,-0.79 -0.639,-1.49c-0.035,-1.433 0.475,-2.498 1.527,-3.197c0.336,-0.286 0.896,-0.353 1.674,-0.202c0.803,0.442 1.199,0.969 1.199,1.595c0.219,2.352 -1.316,4.458 -4.596,6.328C56.74,20.349 55.805,20.667 54.971,20.831L54.971,20.831zM61.053,15.549c0.313,-0.117 0.475,-0.33 0.475,-0.622c0,-0.493 -0.223,-0.856 -0.672,-1.086c-0.441,-0.173 -0.924,-0.179 -1.445,-0.017c-0.363,0.264 -0.555,0.499 -0.576,0.706c-0.033,0.252 0.135,0.583 0.492,0.985c0.332,0.135 0.596,0.196 0.791,0.196C60.369,15.779 60.678,15.724 61.053,15.549z" id="path_1"/><path fill="#0992d1" d="M33.854,58.761v-0.163c0.551,-0.767 1.334,-1.809 2.365,-3.136h0.111c0.834,0.896 1.875,1.708 3.135,2.43c0.035,0.033 0.051,0.073 0.051,0.129l-2.279,3.085c-0.021,0.011 -0.061,0.017 -0.117,0.017c-0.066,0 -0.18,-0.028 -0.342,-0.084C35.988,60.682 35.014,59.92 33.854,58.761z" id="path_2"/><path fill="#0992d1" d="M51.453,48.99c-1.762,1.125 -4.041,2.038 -6.842,2.738c-4.266,0.963 -7.885,1.434 -10.852,1.417c-2.969,-0.017 -5.275,-0.303 -6.916,-0.862c-1.641,-0.555 -3.08,-1.523 -4.311,-2.901c-1.064,-1.215 -1.686,-2.626 -1.871,-4.233c-0.24,-2.262 0.309,-4.704 1.658,-7.319c0.139,-0.128 0.279,-0.286 0.426,-0.465c0.139,-0.179 0.301,-0.257 0.475,-0.224l-0.016,0.398c-0.746,1.595 -1.148,3.018 -1.217,4.261c-0.033,0.437 -0.033,0.74 0,0.901c0.461,2.101 2.051,3.579 4.777,4.436c1.529,0.521 3.131,0.845 4.805,0.963c0.264,0.011 0.672,0.044 1.232,0.101c3.42,0.012 7.57,-0.392 12.447,-1.215c2.822,-0.527 4.832,-1.237 6.023,-2.134c-0.078,-0.358 -0.346,-0.767 -0.805,-1.221c-0.459,-0.453 -0.74,-0.862 -0.834,-1.221c-0.066,-1.444 0.016,-2.923 0.246,-4.429l0.195,-0.017c1.518,1.713 2.363,3.539 2.525,5.459C52.797,45.669 52.416,47.523 51.453,48.99z" id="path_3"/><path fill="#0992d1" d="M34.162,39.208c1.227,-0.633 3.063,-1.574 5.512,-2.822c0.211,-0.251 0.313,-0.375 0.313,-0.375c-0.555,-0.667 -1.395,-1.019 -2.51,-1.053c-0.963,-0.034 -1.92,-0.05 -2.871,-0.05c0.654,-1.59 1.338,-2.699 2.037,-3.321c2.09,-0.173 3.752,0.034 5.002,0.622c0.525,0.627 0.643,1.238 0.363,1.837c-0.111,0.386 -0.443,1.114 -0.986,2.195c-0.525,0.868 -1.109,1.579 -1.758,2.133c-0.645,0.561 -1.502,0.946 -2.576,1.165c-1.869,0.296 -2.811,0.442 -2.822,0.442c-0.252,0 -0.375,-0.05 -0.375,-0.146C33.49,39.538 33.715,39.331 34.162,39.208z" id="path_4"/></svg>