<svg id="vector" xmlns="http://www.w3.org/2000/svg" width="84" height="75" viewBox="0 0 84 75"><path fill="#0101F4" d="M65.626,52.679c0.575,0 1.922,0.677 4.045,2.03c0,0.842 -0.669,2.188 -2.023,4.045c-2.699,-0.871 -4.044,-1.656 -4.044,-2.361C63.668,55.76 64.345,54.522 65.626,52.679z" id="path_0"/><path fill="#0101F4" d="M61.574,45.281c4.419,0.042 6.888,-0.785 7.428,-2.492c0,-0.589 -0.562,-2.05 -1.691,-4.382l0.511,-4.384h0.332c1.468,2.527 2.195,5.06 2.195,7.587v1.519c0,1.014 -0.246,2.08 -0.728,3.195c-0.482,1.116 -1.23,2.06 -2.231,2.815c-1.007,0.763 -2.943,1.08 -5.815,0.949V45.281z" id="path_1"/><path fill="#06A817" d="M41.88,45.281h1.102c1.886,-0.31 3.397,-1.333 4.556,-3.06c0,-0.698 -0.849,-3.348 -2.533,-7.925c-0.634,-1.281 -0.792,-2.526 -0.476,-3.742c0.317,-1.216 1.432,-2.613 3.34,-4.189c3.627,-2.642 8.802,-6.018 15.525,-10.12h0.165l0.173,0.504l-3.376,6.413h-0.173l-0.165,-1.015c-0.534,0 -4.693,2.699 -12.481,8.098l-1.353,1.181c1.885,5.987 4.584,10.106 8.097,12.358c1.785,1.151 4.289,1.649 7.507,1.475v4.83c-6.104,0.209 -10.458,-2.245 -13.071,-7.356h-0.173c-0.676,4.917 -2.641,7.371 -5.901,7.356H41.88V45.281z" id="path_2"/><path fill="#000001" d="M42.938,50.11c-2.151,-0.172 -4.095,-1.684 -5.844,-4.534c-2.584,3.146 -6.297,4.722 -11.127,4.722h-1.354c-5.225,0 -8.824,-2.245 -10.796,-6.744l-0.166,-1.016V41.02c0,-1.627 0.728,-3.483 2.189,-5.564h0.172l0.338,0.338v0.842l-0.849,2.699c0,2.951 2.476,4.974 7.428,6.074l3.038,0.166c5.255,0 9.414,-1.799 12.48,-5.397c0.166,0 0.339,0.223 0.505,0.676l-0.166,1.181c0.575,2.123 1.957,3.188 4.152,3.203V50.11z" id="path_3"/><path fill="#000001" d="M23.434,34.103h0.339c1.151,0.252 2.389,0.929 3.713,2.022v0.173c-0.763,2.303 -1.439,3.542 -2.029,3.714c-1.713,-0.338 -3.009,-0.899 -3.88,-1.691v-0.166C21.576,36.831 22.196,35.484 23.434,34.103z" id="path_4"/><path fill="#000001" d="M29.674,32.584h0.173c1.151,0.172 2.447,0.957 3.879,2.361v0.172l-2.029,3.541c-2.699,-0.871 -4.045,-1.604 -4.045,-2.194C28.522,33.88 29.199,32.584 29.674,32.584z" id="path_5"/></svg>