<svg id="vector" xmlns="http://www.w3.org/2000/svg" width="84" height="75" viewBox="0 0 84 75"><path fill="#C005C6" d="M39.622,50.695c0.332,0 0.683,0 1.052,0h1.336c5.03,-0.834 7.55,-2.351 7.55,-4.548c-2.387,-2.226 -6.234,-3.335 -11.548,-3.335l-3.05,0.274h-3.307l-0.805,-7.853l11.605,-8.631l11.767,-8.441c0.579,-0.35 0.797,-0.199 0.663,0.445l-4.879,8.887h-0.228l-0.217,-1.553h-0.445L34.904,36.597h5.105c6.017,0 10.015,1.696 11.994,5.106l0.218,1.327v0.445c-0.019,5.646 -2.606,9.862 -7.768,12.656c-1.479,0.598 -2.738,0.891 -3.781,0.891c-0.369,0 -0.72,0 -1.052,0V50.695z" id="path_0"/><path fill="#0101CA" d="M40.958,57.022h-0.559c-5.362,0 -8.697,-3.771 -9.985,-11.321l-1.336,-21.543c0.56,-3.107 1.146,-4.879 1.781,-5.324h0.218c0.293,0 0.445,0.217 0.445,0.664c0,14.693 0.957,23.978 2.89,27.862c1.96,2.169 4.14,3.268 6.546,3.306V57.022z" id="path_1"/></svg>