<svg id="vector" xmlns="http://www.w3.org/2000/svg" width="84" height="75" viewBox="0 0 84 75"><path fill="#000000" d="M62.434,31.701h0.354c1.202,0.263 2.494,0.962 3.878,2.112v0.173c-0.797,2.412 -1.496,3.698 -2.113,3.878c-1.796,-0.354 -3.141,-0.939 -4.051,-1.759v-0.18C60.501,34.542 61.148,33.137 62.434,31.701z" id="path_0"/><path fill="#000000" d="M68.957,30.115h0.173c1.202,0.173 2.556,0.992 4.052,2.465v0.173l-2.113,3.698c-2.818,-0.91 -4.231,-1.669 -4.231,-2.285C67.747,31.46 68.454,30.115 68.957,30.115z" id="path_1"/><path fill="#000000" d="M60.87,50.041c4.615,0.046 7.193,-0.818 7.756,-2.6c0,-0.616 -0.586,-2.143 -1.767,-4.578l0.534,-4.578h0.346c1.533,2.638 2.292,5.284 2.292,7.923v1.586c0,1.059 -0.255,2.171 -0.759,3.337c-0.503,1.163 -1.284,2.149 -2.331,2.938c-1.051,0.797 -3.073,1.127 -6.072,0.994V50.041z" id="path_2"/><path fill="#0E09AE" d="M40.304,50.041h1.15c1.969,-0.323 3.548,-1.391 4.758,-3.194c0,-0.728 -0.887,-3.495 -2.646,-8.275c-0.662,-1.337 -0.828,-2.638 -0.497,-3.908c0.332,-1.271 1.496,-2.729 3.488,-4.375c3.788,-2.759 9.193,-6.284 16.212,-10.568h0.172l0.181,0.526l-3.525,6.697h-0.181l-0.172,-1.06c-0.557,0 -4.901,2.819 -13.034,8.456l-1.413,1.232c1.969,6.253 4.788,10.553 8.456,12.906c1.864,1.202 4.479,1.722 7.84,1.541v5.044c-6.374,0.217 -10.922,-2.347 -13.651,-7.683h-0.181c-0.706,5.133 -2.757,7.697 -6.162,7.683h-0.798V50.041z" id="path_3"/><path fill="#e2610a" d="M20.483,37.646c0.737,0 2.03,0.879 3.879,2.638c0,0.587 -0.707,1.879 -2.112,3.878h-0.353c-0.737,0 -1.849,-0.706 -3.345,-2.112v-0.18C18.552,41.164 19.191,39.759 20.483,37.646z" id="path_4"/><path fill="#e2610a" d="M26.828,36.76c2.939,1.263 4.404,2.262 4.404,2.999c-0.173,0.557 -0.999,1.789 -2.465,3.698c-1.97,-0.767 -3.374,-1.646 -4.231,-2.646C25.152,38.849 25.918,37.497 26.828,36.76z" id="path_5"/><path fill="#e2610a" d="M22.604,31.656c2.699,1.112 4.051,2.052 4.051,2.818l-2.292,3.518h-0.173c-0.503,0 -1.857,-0.699 -4.059,-2.112C21.221,33.062 22.04,31.656 22.604,31.656z" id="path_6"/><path fill="#e2610a" d="M41.409,55.084c-2.247,-0.18 -4.284,-1.76 -6.104,-4.736c-2.698,3.286 -6.576,4.932 -11.628,4.932h-1.404c-5.465,0 -9.223,-2.345 -11.275,-7.043l-0.18,-1.061v-1.584c0,-1.7 0.767,-3.638 2.292,-5.811h0.172l0.354,0.354v0.879l-0.88,2.819c0,3.082 2.586,5.193 7.75,6.344l3.171,0.172c5.495,0 9.84,-1.879 13.041,-5.636c0.174,0 0.346,0.231 0.527,0.706l-0.182,1.232c0.602,2.217 2.052,3.331 4.345,3.346V55.084z" id="path_7"/></svg>