<svg id="vector" xmlns="http://www.w3.org/2000/svg" width="84" height="75" viewBox="0 0 84 75"><path fill="#000000" d="M41.974,27.273c0.406,0 0.813,1.356 1.22,4.053l1.823,4.055l-0.813,4.658l0.605,11.348v1.816c-0.268,4.631 -0.942,7.328 -2.023,8.105l-0.198,-0.199l0.198,-3.041c0,-2.732 -0.881,-11.443 -2.635,-26.129C40.997,28.828 41.603,27.273 41.974,27.273z" id="path_0"/><path fill="#0AE227" d="M41.149,13.691c1.701,0 3.418,0.851 5.143,2.56c0.166,0.292 0.103,0.52 -0.196,0.693c-0.3,0.165 -0.575,0.126 -0.819,-0.118c-0.74,-0.662 -1.788,-0.992 -3.143,-0.992H41.56c-0.568,0 -1.229,0.244 -1.986,0.717c0,1.386 1.662,2.236 4.986,2.559l3.301,-1.291l0.141,0.441c0,1.551 -1.913,2.938 -5.726,4.15l-5.284,3.001l-0.553,0.142c-0.212,0.048 -0.361,-0.047 -0.439,-0.275c0,-0.834 1.195,-1.977 3.574,-3.441v-0.143c-1.149,-0.63 -1.725,-1.535 -1.725,-2.717C38.385,15.447 39.487,13.691 41.149,13.691z" id="path_1"/></svg>