<svg id="vector" xmlns="http://www.w3.org/2000/svg" width="84" height="75" viewBox="0 0 84 75"><path fill="#0000E8" d="M41.265,17.342c1.47,0 2.952,0.735 4.442,2.211c0.143,0.251 0.089,0.449 -0.169,0.599c-0.26,0.143 -0.498,0.108 -0.709,-0.103c-0.64,-0.571 -1.544,-0.857 -2.714,-0.857h-0.496c-0.49,0 -1.062,0.211 -1.714,0.619c0,1.198 1.435,1.932 4.305,2.211l2.851,-1.116l0.123,0.38c0,1.34 -1.652,2.538 -4.945,3.585l-4.565,2.592l-0.477,0.122c-0.183,0.042 -0.313,-0.041 -0.38,-0.238c0,-0.721 1.033,-1.708 3.089,-2.973v-0.123c-0.994,-0.544 -1.491,-1.327 -1.491,-2.347C38.878,18.86 39.829,17.342 41.265,17.342z" id="path_0"/><path fill="#0AA30A" d="M43.582,30.597h1.086c3.166,0 5.509,2.702 7.046,8.119l0.266,2.703c0.092,0.877 0.092,1.779 0,2.714c-0.809,3.292 -2.622,6.537 -5.418,9.736c-1.939,1.628 -6.352,2.886 -13.258,3.788c-0.809,-0.357 -1.271,-0.716 -1.352,-1.074c11.55,-6.272 17.325,-10.06 17.325,-11.377l0.266,-0.809l-0.266,-0.265l-2.438,0.809h-1.352c-4.874,0 -7.311,-1.722 -7.311,-5.141v-0.543c0.624,-5.602 1.987,-8.396 4.054,-8.396L43.582,30.597z" id="path_1"/></svg>