<svg id="vector" xmlns="http://www.w3.org/2000/svg" width="84" height="75" viewBox="0 0 84 75"><path fill="#1305c6" d="M42.273,44.966h1.338c8.328,-0.159 13.859,-1.324 16.6,-3.519l0.537,-1.063c-0.354,-0.855 -0.799,-1.279 -1.336,-1.279c-1.291,0.722 -2.719,1.074 -4.285,1.074h-0.273c-4.639,-0.536 -7.049,-2.411 -7.221,-5.62v-0.274c0.445,-6.067 1.875,-9.095 4.283,-9.095h1.338c4.125,-0.207 7.254,3.005 9.367,9.631l0.264,2.685v0.536c-0.057,6.561 -2.41,10.891 -7.061,12.981c-1.645,1.05 -6.17,1.575 -13.551,1.575V44.966z" id="path_0"/><path fill="#1305c6" d="M51.781,11.193c2.902,0.892 5.404,2.319 7.494,4.284v0.263c0,1.119 -1.152,2.903 -3.473,5.359l-7.799,-2.674C49.447,15.619 49.715,14.041 51.781,11.193z" id="path_1"/><path fill="#000000" d="M43.143,52.598l-3.016,-0.033c-1.668,7.346 -6.09,11.059 -13.254,11.15c-3.84,0.172 -5.758,0.104 -5.758,-0.205c0.354,-0.675 2.924,-1.965 7.699,-3.885c4.914,-3.119 7.873,-5.13 8.9,-6.021l0.275,-0.799l-4.686,-0.743c-3.416,-0.891 -5.336,-2.604 -5.758,-5.152v-0.538c0,-4.33 1.063,-7.095 3.211,-8.306l1.611,-0.263c3.164,0 5.746,2.204 7.758,6.627c1.279,0.445 2.285,0.662 3.016,0.64V52.598z" id="path_2"/></svg>