<svg id="vector" xmlns="http://www.w3.org/2000/svg" width="84" height="75" viewBox="0 0 84 75"><path fill="#F80404" d="M38.542,50.708c-3.599,-0.242 -6.867,-2.212 -9.804,-5.9h-0.215c-1.254,7.27 -4.057,10.905 -8.39,10.914h-0.636c-1.881,-0.009 -3.707,-1.683 -5.453,-5.041c-1.396,-4.719 -2.095,-8.291 -2.095,-10.699v-1.684c0,-1.048 0.206,-1.611 0.627,-1.674c0.591,0.313 1.298,2.605 2.112,6.885c0.815,4.271 2.49,6.313 5.023,6.125c4.897,-0.807 7.484,-3.608 7.763,-8.398l-1.89,-6.501v-2.31c0.072,-2.803 0.35,-4.2 0.842,-4.2c0.277,0.627 0.493,1.264 0.627,1.891l2.938,9.23c2.31,3.743 5.166,5.516 8.55,5.301V50.708z" id="path_0"/><path fill="#000000" d="M60.168,19.277c0.716,0 2.391,0.842 5.031,2.525c0,1.047 -0.832,2.721 -2.516,5.031c-3.357,-1.083 -5.031,-2.059 -5.031,-2.938C57.732,23.109 58.574,21.569 60.168,19.277z" id="path_1"/><path fill="#000000" d="M58.982,44.7c5.498,0.053 8.568,-0.976 9.24,-3.099c0,-0.734 -0.699,-2.551 -2.104,-5.452l0.635,-5.452h0.412c1.826,3.142 2.73,6.294 2.73,9.437v1.89c0,1.262 -0.303,2.587 -0.904,3.975c-0.6,1.388 -1.529,2.562 -2.775,3.501c-1.252,0.949 -3.661,1.343 -7.234,1.182V44.7z" id="path_2"/><path fill="#050AF8" d="M59.869,50.681c-0.134,0 -0.277,0 -0.412,0h-1.889c-1.889,0 -4.064,-1.19 -6.51,-3.563c-4.199,2.3 -8.729,3.491 -13.592,3.563v-5.954c2.543,0.17 5.813,-0.357 9.813,-1.603v-0.206c-1.925,-1.262 -3.742,-1.889 -5.452,-1.889l-1.684,0.206l-0.421,-1.048c0.563,-3.778 2.176,-5.668 4.826,-5.668l3.358,-0.206c5.318,0.628 7.977,1.817 7.977,3.563v0.842l-1.262,4.199c1.02,1.236 2.767,1.835 5.246,1.782V50.681z" id="path_3"/><path fill="#000000" d="M67.02,19.277c0.715,0 2.391,0.842 5.031,2.525c0,1.047 -0.832,2.721 -2.516,5.031c-3.357,-1.083 -5.031,-2.059 -5.031,-2.938C64.584,23.109 65.426,21.569 67.02,19.277z" id="path_4"/><path fill="#050AF8" d="M44.645,19.277c0.716,0 2.391,0.842 5.031,2.525c0,1.047 -0.832,2.721 -2.516,5.031c-3.357,-1.083 -5.031,-2.059 -5.031,-2.938C42.209,23.109 43.051,21.569 44.645,19.277z" id="path_5"/><path fill="#F80404" d="M22.27,19.277c0.716,0 2.391,0.842 5.031,2.525c0,1.047 -0.832,2.721 -2.516,5.031c-3.357,-1.083 -5.031,-2.059 -5.031,-2.938C19.834,23.109 20.676,21.569 22.27,19.277z" id="path_6"/></svg>