<svg id="vector" xmlns="http://www.w3.org/2000/svg" width="84" height="75" viewBox="0 0 84 75"><path fill="#000000" d="M51.508,30.509h0.949c2.72,1.626 4.458,2.81 5.206,3.558l-2.598,5.45h-0.718c-1.618,-0.273 -3.437,-1.385 -5.448,-3.316C50.081,32.722 50.951,30.833 51.508,30.509z" id="path_0"/><path fill="#000000" d="M35.749,53.85c0.495,0 1.011,0 1.546,0l1.182,-0.597c0.75,-1.537 1.861,-3.427 3.317,-5.681l-2.367,-18.246c0.789,-3.79 1.497,-5.681 2.132,-5.681l1.183,4.499c1.103,1.535 1.658,2.962 1.658,4.264c-0.788,1.457 -1.181,2.649 -1.181,3.548v0.475l0.474,7.582v1.194c2.447,-2.063 5.721,-3.185 9.826,-3.378c4.74,0.667 7.105,2.244 7.105,4.732v1.658c-0.79,3.517 -1.971,6.206 -3.548,8.056c-4.781,2.689 -10.027,4.123 -15.759,4.325h-2.609c-1.04,0 -2.029,0 -2.96,0V53.85L35.749,53.85zM40.367,53.97h0.477c7.226,-0.203 12.877,-1.485 16.94,-3.852c-1.85,-1.899 -3.193,-2.841 -4.022,-2.841h-1.9C46.452,47.471 42.622,49.704 40.367,53.97z" id="path_1"/><path fill="#12D812" d="M36.254,60.6c-4.6,0.274 -7.946,-1.849 -10.038,-6.368c-1.011,-1.678 -1.951,-12.989 -2.841,-33.932v-0.476c0.588,-3.477 1.457,-5.215 2.6,-5.215l1.192,-0.232c1.454,0 3.669,0.474 6.631,1.414v0.476c-0.163,0.475 -0.638,0.718 -1.427,0.718h-4.022c-0.828,0 -1.618,0.463 -2.374,1.414c0.736,18.185 1.808,28.717 3.233,31.598c1.416,2.882 3.771,4.164 7.046,3.853V60.6z" id="path_2"/></svg>