<svg id="vector" xmlns="http://www.w3.org/2000/svg" width="84" height="75" viewBox="0 0 84 75"><path fill="#000000" d="M45.395,34.532c0.317,-0.557 0.754,-1.399 1.221,-2.035c0.963,0.229 2.263,0.377 3.781,0.377c2.084,0 4.557,-0.258 6.998,-0.873c4.188,-0.992 8.02,-2.739 9.647,-4.715c1.429,-2.024 2.332,-5.071 2.332,-6.659c0,-1.072 -0.556,-2.194 -1.985,-3.177c-1.24,-0.863 -2.868,-1.359 -4.089,-1.359c-3.315,0 -11.077,6.243 -15.265,11.543c-3.832,-0.694 -4.824,-3.097 -4.824,-4.773c0,-1.022 -0.229,-1.539 -0.665,-1.539c-0.348,0 -0.755,0.636 -1.31,1.936c-1.252,3.226 -3.197,4.844 -5.896,4.874h-0.496c-1.359,0 -2.064,0.813 -2.094,2.441c0,1.638 0.704,2.422 2.094,2.422h0.467c2.123,0 3.95,-1.628 5.548,-4.863c0.704,1.915 2.153,3.285 4.337,4.079c-0.406,0.902 -0.734,1.657 -0.962,2.322c-0.06,0.179 -0.119,0.406 -0.119,0.615c0,0.229 0.089,0.407 0.288,0.437C44.809,35.584 45.137,34.998 45.395,34.532L45.395,34.532zM66.467,24.329c-1.718,1.19 -9.162,3.741 -15.176,3.741c-0.457,0 -0.924,-0.029 -1.391,-0.059c3.076,-3.157 8.169,-6.978 11.305,-6.978c1.976,0 5.291,1.935 5.291,3.155C66.497,24.25 66.467,24.279 66.467,24.329z" id="path_0"/><path fill="#CD06F1" d="M34.794,28.131c-2.064,0 -3.989,-0.874 -5.728,-2.621c1.856,-1.359 2.7,-3.424 2.7,-4.942c0,-0.665 -0.179,-1.251 -0.497,-1.599c-1.25,-1.34 -3.344,-2.094 -5.607,-2.094c-2.154,0 -4.477,0.675 -6.48,2.184c-0.615,0.467 -0.993,2.292 -0.993,3.404c0,0.486 0.06,0.844 0.229,0.873c1.37,0.229 3.96,0.834 4.973,2.383c-5.985,4.883 -8.765,10.511 -8.765,18.749c0,7.066 4.377,14.441 15.365,14.441c5.528,-0.06 10.094,-1.598 13.26,-3.067c0.734,-0.347 2.184,-1.19 2.184,-1.628c0,-0.148 -0.089,-0.258 -0.496,-0.258c-0.317,0 -0.903,0.079 -1.538,0.139c-2.472,0.269 -4.794,0.407 -6.858,0.407c-15.593,0 -19.891,-6.689 -19.891,-12.714c0,-3.207 0.516,-8.735 9.131,-13.747c1.826,1.866 3.315,3.146 4.447,3.871c1.131,0.733 2.61,1.082 4.416,1.082h0.844c1.459,0 2.184,-0.874 2.184,-2.591c0,-1.519 -0.725,-2.272 -2.184,-2.272H34.794z" id="path_1"/></svg>