<svg id="vector" xmlns="http://www.w3.org/2000/svg" width="84" height="75" viewBox="0 0 84 75"><path fill="#011AFF" d="M40.826,41.5c0.596,0.041 1.203,0.061 1.811,0.061h0.707l2.965,-0.708c-0.707,-1.325 -1.063,-2.245 -1.063,-2.762c0,-7.584 2.447,-11.378 7.344,-11.378l1.902,-0.234c2.488,0.396 5.652,1.893 9.477,4.502l0.242,0.95l-0.242,0.233h-0.941c-1.82,-1.264 -3.873,-1.892 -6.17,-1.892c-3.51,0 -6.434,1.021 -8.77,3.075v0.242c2.055,3.318 5.848,4.976 11.379,4.976c4.35,-1.577 7.193,-2.367 8.537,-2.367c-0.748,4.421 -2.176,6.636 -4.27,6.636c-9.365,3.631 -16.789,5.451 -22.281,5.451h-0.627V41.5z" id="path_0"/><path fill="#0047FF" d="M53.777,14.333c3.318,1.659 4.977,3.074 4.977,4.268c-1.578,3.116 -2.529,4.694 -2.844,4.734h-0.475c-2.438,-1.224 -3.936,-2.326 -4.51,-3.317C51.48,18.216 52.432,16.325 53.777,14.333z" id="path_1"/><path fill="#000000" d="M41.545,48.307c-0.223,0.021 -0.436,0.031 -0.658,0.031h-1.184c-1.861,0 -3.125,-0.152 -3.793,-0.476c-1.387,5.321 -2.992,8.578 -4.836,9.771c-1.828,1.194 -5.986,2.206 -12.469,3.035h-0.477c-1.416,-0.162 -2.133,-0.394 -2.133,-0.708c0,-0.475 1.182,-1.032 3.559,-1.659c9.326,-4.269 13.988,-7.353 13.988,-9.245c0,-0.789 -1.111,-2.609 -3.316,-5.452c-0.477,-0.799 -0.719,-1.821 -0.719,-3.085v-2.367c0,-1.193 0.242,-1.82 0.719,-1.902c2.053,3.147 5.521,4.896 10.428,5.27c0.293,0 0.586,0 0.891,-0.02V48.307z" id="path_2"/></svg>