<svg id="vector" xmlns="http://www.w3.org/2000/svg" width="84" height="75" viewBox="0 0 84 75"><path fill="#000000" d="M32.221,25c5.078,-2.043 10.133,-3.115 14.914,-3.115c3.881,0 7.281,0.604 11,2.145c0.195,0.068 0.4,0.092 0.561,0.035c1.072,-0.412 3.48,-2.545 4.188,-3.48c0.262,-0.365 0.33,-0.57 0.33,-0.707c0,-0.127 -0.033,-0.162 -0.205,-0.195c-1.701,-0.24 -5.912,-1.244 -9.426,-2.545c-4.107,-1.506 -9.025,-4.348 -12.666,-6.082c-1.336,-0.639 -1.939,-0.834 -2.91,-0.834c-0.936,0 -2.008,0.23 -3.08,0.869c-1.701,0.969 -3.174,2.566 -3.676,3.514c-0.137,0.264 -0.158,0.49 -0.158,0.662c0,0.273 0.125,0.398 0.467,0.398c0.262,0 0.834,-0.158 2.064,-0.295c0.275,-0.035 0.674,-0.07 0.971,-0.07c1.004,0 1.541,0.137 2.373,0.365c1.176,0.309 3.082,1.178 5.648,2.615c-2.771,0.262 -5.545,1.072 -8.248,2.406c-2.26,1.082 -3.957,2.328 -5.074,3.695c1.039,0.154 2.018,0.367 2.932,0.617L32.221,25z" id="path_0"/><path fill="#1305c6" d="M36.83,27.875c-1.164,-1.072 -2.703,-2.043 -4.609,-2.875l0.004,-0.002c-0.914,-0.25 -1.893,-0.463 -2.932,-0.617c-0.229,0.277 -0.43,0.561 -0.609,0.848c-0.504,0.936 -1.244,2.682 -1.713,3.879c-1.904,0.902 -3.412,2.408 -4.508,4.52c-1.105,2.135 -1.676,4.404 -1.676,6.846c0.068,1.176 0.535,4.52 1.506,10.1s1.506,9.391 1.539,11.504c0,0.295 -0.033,1.059 -0.102,1.631c-0.035,0.342 -0.104,1.072 0.332,1.072c0.307,0 0.535,-0.365 0.809,-1.107c0.867,-2.338 1.131,-4.746 1.131,-7.225c-0.434,-7.143 -1.803,-13.203 -2.875,-19.719c0.867,-1.402 3.412,-2.109 7.621,-2.109c1.838,0 4.246,0.434 5.387,0.971c0.172,0.066 0.229,0.102 0.4,-0.057c0.535,-0.676 1.641,-2.752 2.305,-4.486c0.102,-0.238 0.102,-0.365 0.033,-0.604C38.68,29.814 38.006,28.947 36.83,27.875z" id="path_1"/></svg>