<svg id="vector" xmlns="http://www.w3.org/2000/svg" width="84" height="75" viewBox="0 0 84 75"><path fill="#1305c6" d="M53.935,20.091h0.45c1.532,0.335 3.18,1.227 4.941,2.692v0.22c-1.015,3.075 -1.905,4.713 -2.691,4.942c-2.289,-0.45 -4.004,-1.197 -5.162,-2.24v-0.23C51.473,23.713 52.296,21.921 53.935,20.091z" id="path_0"/><path fill="#1305c6" d="M62.249,18.07h0.221c1.532,0.221 3.256,1.265 5.163,3.143v0.219l-2.692,4.713c-3.592,-1.158 -5.393,-2.126 -5.393,-2.911C60.707,19.785 61.607,18.07 62.249,18.07z" id="path_1"/><path fill="#1305c6" d="M51.942,43.463c5.882,0.057 9.167,-1.043 9.885,-3.314c0,-0.785 -0.747,-2.729 -2.25,-5.832l0.68,-5.834h0.44c1.954,3.361 2.922,6.734 2.922,10.096V40.6c0,1.35 -0.326,2.768 -0.968,4.252s-1.638,2.74 -2.97,3.746c-1.341,1.016 -3.917,1.436 -7.739,1.264V43.463z" id="path_2"/><path fill="#000000" d="M52.057,49.861c-0.239,0 -0.498,0 -0.757,0H51.08c-2.174,-0.02 -4.271,-0.402 -6.293,-1.148c-2.164,3.744 -5.01,5.611 -8.524,5.611c-4.195,-0.602 -6.294,-2.316 -6.294,-5.162h-0.22c-0.708,2.395 -2.28,4.338 -4.713,5.834c-3.257,1.197 -5.805,1.801 -7.634,1.801l-1.034,0.133V56.48c0.833,-0.689 3.094,-2.289 6.771,-4.799c3.679,-2.5 5.767,-4.07 6.256,-4.713c0.498,-0.633 1.216,-2.748 2.154,-6.342c1.792,-2.988 3.439,-4.492 4.933,-4.492h0.45c1.868,0 4.866,2.021 8.985,6.064c1.196,1.016 3.237,1.465 6.14,1.35V49.861L52.057,49.861zM32.67,43.77c0,1.982 1.57,3.334 4.712,4.043h1.121c2.548,-0.26 3.822,-0.633 3.822,-1.121c-2.961,-2.846 -5.202,-4.264 -6.743,-4.264h-0.221C34.087,42.428 33.188,42.879 32.67,43.77z" id="path_3"/></svg>