<svg id="vector" xmlns="http://www.w3.org/2000/svg" width="84" height="75" viewBox="0 0 84 75"><path fill="#C6059C" d="M55.732,29.414h0.275c2.646,0 5.072,2.06 7.28,6.201l0.806,3.497c0.242,5.082 -1.207,8.959 -4.358,11.629c-3.163,2.68 -9.375,4.461 -18.656,5.359h-3.142c-12.03,-1.623 -18.058,-6.016 -18.058,-13.205c0.678,-4.451 1.933,-7.775 3.772,-9.984h0.542l0.54,0.541l-1.887,4.589v1.07c0,4.404 4.854,7.465 14.562,9.168l3.497,0.275c6.337,0 13.343,-1.529 21.025,-4.59v-0.266l-0.265,-0.805h-0.265l-2.967,0.529h-0.817c-3.002,0 -5.256,-1.254 -6.74,-3.773v-2.426C50.878,32.014 52.5,29.414 55.732,29.414z" id="path_0"/><path fill="#C6059C" d="M45.22,18.901c1.932,0.357 3.911,1.438 5.935,3.233v0.54c-1.576,4.13 -2.657,6.2 -3.231,6.2c-3.015,-1.483 -4.9,-2.658 -5.671,-3.508v-0.541C43.471,21.052 44.46,19.074 45.22,18.901z" id="path_1"/></svg>