<svg id="vector" xmlns="http://www.w3.org/2000/svg" width="84" height="75" viewBox="0 0 84 75"><path fill="#0D3BC8" d="M39.649,13.791c2.181,0 4.382,1.091 6.595,3.282c0.211,0.374 0.13,0.667 -0.253,0.889c-0.385,0.212 -0.737,0.161 -1.051,-0.151c-0.949,-0.848 -2.291,-1.272 -4.028,-1.272h-0.737c-0.727,0 -1.575,0.313 -2.544,0.918c0,1.778 2.13,2.868 6.391,3.283l4.231,-1.656l0.182,0.565c0,1.99 -2.454,3.768 -7.341,5.322l-6.775,3.847l-0.707,0.183c-0.273,0.061 -0.464,-0.061 -0.565,-0.354c0,-1.07 1.534,-2.535 4.584,-4.413V24.05c-1.475,-0.808 -2.211,-1.97 -2.211,-3.484C36.104,16.042 37.519,13.791 39.649,13.791z" id="path_0"/><path fill="#45A10B" d="M56.977,24.05c1.526,-0.132 2.313,0.263 2.373,1.192v1.413c-0.394,3.787 -0.788,5.685 -1.181,5.685h-0.242c-0.293,-1.11 -1.242,-1.656 -2.838,-1.656c-3.271,0 -6.745,2.444 -10.41,7.331v0.476c0,0.787 2.676,1.504 8.037,2.13c1.425,1.384 2.132,2.878 2.132,4.493c0,4.465 -3.939,9.271 -11.825,14.441c-2.06,1.1 -4.11,1.654 -6.159,1.654c-5.403,0 -9.271,-3.311 -11.593,-9.936c-0.748,-2.313 -0.817,-5.533 -0.212,-9.664c0.615,-4.129 2.433,-6.685 5.474,-7.673l0.413,0.06c0.597,0.314 0.162,1.213 -1.282,2.707c-1.454,1.485 -2.363,3.423 -2.736,5.817v1.889c0,3.785 2.05,6.865 6.149,9.229c1.425,0.637 2.918,0.949 4.494,0.949h0.95c4.575,0 9.148,-2.211 13.733,-6.625l-7.341,-1.656c-1.262,-0.838 -1.888,-1.938 -1.888,-3.322v-2.836c0.05,-4.343 2.11,-8.29 6.149,-11.866C50.666,26.726 53.271,25.313 56.977,24.05z" id="path_1"/></svg>