<svg id="vector" xmlns="http://www.w3.org/2000/svg" width="84" height="75" viewBox="0 0 84 75"><path fill="#DD0B0B" d="M40.556,27.419c2.889,0 5.804,1.445 8.733,4.347c0.281,0.494 0.173,0.882 -0.334,1.177c-0.508,0.281 -0.977,0.213 -1.392,-0.201c-1.257,-1.123 -3.035,-1.685 -5.335,-1.685h-0.977c-0.964,0 -2.087,0.414 -3.371,1.217c0,2.354 2.822,3.798 8.465,4.347l5.604,-2.193l0.241,0.749c0,2.634 -3.25,4.989 -9.724,7.048l-8.973,5.095l-0.937,0.241c-0.361,0.081 -0.615,-0.079 -0.749,-0.468c0,-1.417 2.032,-3.356 6.071,-5.843v-0.241c-1.952,-1.07 -2.929,-2.608 -2.929,-4.615C35.861,30.402 37.733,27.419 40.556,27.419z" id="path_0"/></svg>