<svg id="vector" xmlns="http://www.w3.org/2000/svg" width="84" height="75" viewBox="0 0 84 75"><path fill="#09096C" d="M53.979,21.818c4.435,0.484 6.758,2.821 6.943,7.019v1.354c-1.068,8.534 -2.906,12.808 -5.527,12.808h-0.285c-1.366,0 -4.857,-0.971 -10.483,-2.907c-2.474,5.727 -5.678,9.216 -9.615,10.47c-5.526,1.753 -8.919,2.621 -10.185,2.621h-1.169c-0.434,-0.187 -0.62,-0.482 -0.57,-0.868c0.137,-0.435 2.657,-1.987 7.564,-4.657c8.732,-5.391 13.104,-9.95 13.104,-13.689c1.354,-5.191 3.291,-8.684 5.813,-10.472C50.886,22.501 52.352,21.942 53.979,21.818L53.979,21.818zM48.115,32.229c-0.05,0.124 -0.05,0.21 0,0.285l8.148,2.336c0.398,0.099 0.684,0 0.882,-0.301c0,-2.271 -1.85,-3.737 -5.539,-4.358H51.32C50.153,30.19 49.085,30.86 48.115,32.229z" id="path_0"/></svg>