<svg id="vector" xmlns="http://www.w3.org/2000/svg" width="84" height="75" viewBox="0 0 84 75"><path fill="#C605AC" d="M56.979,18.939c1.524,-0.132 2.313,0.263 2.362,1.191v1.413c-0.393,3.786 -0.787,5.684 -1.181,5.684H57.93c-0.293,-1.11 -1.242,-1.656 -2.837,-1.656c-3.28,0 -6.743,2.443 -10.416,7.328v0.475c0,0.787 2.685,1.503 8.044,2.129c1.424,1.382 2.13,2.877 2.13,4.492c0,4.462 -3.937,9.267 -11.83,14.435c-2.049,1.1 -4.099,1.656 -6.147,1.656c-5.4,0 -9.267,-3.312 -11.598,-9.934c-0.747,-2.311 -0.818,-5.531 -0.202,-9.659c0.606,-4.128 2.433,-6.682 5.472,-7.671l0.413,0.06c0.596,0.313 0.161,1.212 -1.281,2.706c-1.454,1.484 -2.362,3.422 -2.735,5.814v1.889c0,3.785 2.048,6.862 6.146,9.225c1.423,0.636 2.917,0.949 4.492,0.949h0.948c4.573,0 9.145,-2.21 13.718,-6.621l-7.327,-1.656c-1.262,-0.838 -1.898,-1.939 -1.898,-3.322v-2.836c0.06,-4.34 2.109,-8.287 6.157,-11.86C50.672,21.614 53.275,20.201 56.979,18.939z" id="path_0"/></svg>