<svg id="vector" xmlns="http://www.w3.org/2000/svg" width="84" height="75" viewBox="0 0 84 75"><path fill="#000000" d="M51.628,19.646l1.747,5.23c0.874,0.798 1.31,1.449 1.31,1.959l-1.523,6.53l0.213,3.483c0,8.547 -3.046,14.427 -9.14,17.631c-4.96,1.598 -8.444,2.396 -10.45,2.396l-0.223,-0.214v-0.437l4.57,-2.173c1.858,-0.854 4.32,-2.239 7.403,-4.144c3.344,-3.121 5.23,-5.294 5.667,-6.53l-0.548,-9.14l-0.548,-9.15C50.69,21.467 51.201,19.646 51.628,19.646z" id="path_0"/><path fill="#C60505" d="M29.976,18.123c1.774,0 5.406,2.759 10.877,8.277c4.217,5.081 6.316,9.865 6.316,14.37v1.737c-0.111,3.046 -0.399,4.569 -0.873,4.569L45.86,46.65v-2.62c0,-4.134 -3.047,-9.214 -9.141,-15.234l-1.087,-0.66c-0.399,1.458 -0.762,2.183 -1.087,2.183l-5.229,-6.53l0.223,-5.443l0.213,-0.223H29.976z" id="path_1"/></svg>