<svg id="vector" xmlns="http://www.w3.org/2000/svg" width="84" height="75" viewBox="0 0 84 75"><path fill="#000000" d="M24.669,27.997h0.274l0.561,0.501c-1.491,2.957 -2.229,4.963 -2.229,5.998c0,4.877 5.212,7.715 15.648,8.505l3.351,0.501c3.364,0 8.385,-0.918 15.102,-2.753l3.911,-1.996c-1.3,-2.124 -2.146,-3.958 -2.517,-5.506l0.561,-4.749h0.561c2.23,2.082 3.353,5.751 3.353,11.002c0,5.047 -4.938,8.462 -14.813,10.255l-4.199,0.501c-15.649,0 -23.474,-4.59 -23.474,-13.754C20.757,32.671 22.057,29.833 24.669,27.997L24.669,27.997zM47.272,25.244c-1.54,1.249 -2.565,3.169 -3.077,5.752c2.05,1.834 3.732,2.753 5.032,2.753h0.848c2.23,-2.411 3.351,-4.087 3.351,-5.005v-0.246C51.374,26.749 49.324,25.661 47.272,25.244L47.272,25.244zM36.656,24.743c-1.683,2.05 -2.612,4.044 -2.803,6.008v0.246c1.777,1.632 3.446,2.55 5.033,2.753h0.835c0.335,-0.042 1.538,-1.708 3.637,-5.005v-0.246C41.081,26.578 38.84,25.33 36.656,24.743z" id="path_0"/></svg>