<svg id="vector" xmlns="http://www.w3.org/2000/svg" width="84" height="75" viewBox="0 0 84 75"><path fill="#E20A0A" d="M42.845,29.753c0.666,0 2.225,0.783 4.683,2.35c0,0.975 -0.775,2.533 -2.342,4.683c-3.124,-1.008 -4.683,-1.917 -4.683,-2.733C40.578,33.319 41.361,31.886 42.845,29.753z" id="path_0"/><path fill="#E20A0A" d="M39.933,50.969c5.117,0.051 7.975,-0.907 8.6,-2.883c0,-0.683 -0.65,-2.374 -1.958,-5.074l0.592,-5.074h0.383c1.7,2.925 2.541,5.857 2.541,8.783v1.758c0,1.174 -0.283,2.408 -0.841,3.699c-0.559,1.291 -1.425,2.383 -2.583,3.258c-1.167,0.883 -3.408,1.25 -6.733,1.1V50.969z" id="path_1"/><path fill="#000000" d="M40.35,56.535c-3.791,0.225 -6.549,-1.524 -8.273,-5.249c-0.834,-1.384 -1.608,-10.707 -2.342,-27.971v-0.392c0.483,-2.867 1.2,-4.3 2.142,-4.3l0.983,-0.191c1.2,0 3.024,0.392 5.466,1.167v0.391c-0.134,0.392 -0.525,0.592 -1.175,0.592h-3.316c-0.683,0 -1.333,0.383 -1.958,1.167c0.608,14.99 1.492,23.672 2.666,26.047c1.167,2.375 3.108,3.433 5.808,3.174V56.535z" id="path_2"/><path fill="#E20A0A" d="M49.582,29.753c0.667,0 2.226,0.783 4.684,2.35c0,0.975 -0.775,2.533 -2.342,4.683c-3.124,-1.008 -4.683,-1.917 -4.683,-2.733C47.316,33.319 48.1,31.886 49.582,29.753z" id="path_3"/><path fill="#E20A0A" d="M45.198,23.023c0.666,0 2.225,0.783 4.683,2.349c0,0.975 -0.775,2.533 -2.342,4.683c-3.124,-1.009 -4.683,-1.917 -4.683,-2.733C42.932,26.59 43.715,25.156 45.198,23.023z" id="path_4"/></svg>