<svg id="vector" xmlns="http://www.w3.org/2000/svg" width="84" height="75" viewBox="0 0 84 75"><path fill="#000001" d="M46.712,54.535c0.666,0 2.225,0.783 4.683,2.35c0,0.975 -0.774,2.533 -2.342,4.684c-3.124,-1.01 -4.683,-1.918 -4.683,-2.734C44.445,58.102 45.229,56.668 46.712,54.535z" id="path_0"/><path fill="#000001" d="M42.021,45.971c5.117,0.049 7.975,-0.908 8.6,-2.884c0,-0.683 -0.65,-2.374 -1.958,-5.074l0.591,-5.075h0.384c1.7,2.925 2.541,5.858 2.541,8.783v1.758c0,1.175 -0.283,2.408 -0.841,3.699c-0.559,1.292 -1.425,2.383 -2.584,3.258c-1.166,0.884 -3.407,1.25 -6.732,1.1V45.971z" id="path_1"/><path fill="#0A52E2" d="M42.438,51.535c-3.792,0.226 -6.55,-1.523 -8.274,-5.248c-0.833,-1.383 -1.607,-10.708 -2.341,-27.972v-0.392c0.483,-2.867 1.199,-4.3 2.142,-4.3l0.982,-0.191c1.2,0 3.024,0.392 5.467,1.167v0.391c-0.134,0.392 -0.525,0.592 -1.175,0.592h-3.316c-0.684,0 -1.333,0.383 -1.958,1.167c0.607,14.99 1.491,23.672 2.666,26.046c1.167,2.375 3.108,3.434 5.808,3.176V51.535z" id="path_2"/></svg>