<svg id="vector" xmlns="http://www.w3.org/2000/svg" width="84" height="75" viewBox="0 0 84 75"><path fill="#000000" d="M26.656,31.942H26.9l0.496,0.496c-1.319,2.926 -1.974,4.911 -1.974,5.936c0,4.826 4.615,7.635 13.854,8.416l2.966,0.496c2.979,0 7.423,-0.908 13.37,-2.725l3.463,-1.975c-1.151,-2.102 -1.901,-3.917 -2.229,-5.448l0.497,-4.7h0.497c1.975,2.06 2.967,5.692 2.967,10.888c0,4.995 -4.372,8.373 -13.115,10.148l-3.718,0.496c-13.854,0 -20.781,-4.542 -20.781,-13.611C23.193,36.568 24.344,33.759 26.656,31.942L26.656,31.942zM46.668,29.219c-1.363,1.235 -2.271,3.136 -2.725,5.691c1.816,1.815 3.305,2.725 4.456,2.725h0.75c1.975,-2.387 2.967,-4.045 2.967,-4.953v-0.243C50.3,30.708 48.484,29.631 46.668,29.219L46.668,29.219zM37.269,28.722c-1.489,2.028 -2.313,4.002 -2.481,5.946v0.242c1.573,1.615 3.051,2.523 4.456,2.725h0.739c0.296,-0.042 1.362,-1.69 3.22,-4.953v-0.243C41.187,30.538 39.202,29.303 37.269,28.722zM41.178,21.029c-1.489,2.028 -2.313,4.002 -2.481,5.945v0.243c1.573,1.615 3.051,2.523 4.456,2.725h0.739c0.296,-0.042 1.362,-1.69 3.22,-4.953v-0.243C45.096,22.846 43.111,21.61 41.178,21.029z" id="path_0"/></svg>