<svg id="vector" xmlns="http://www.w3.org/2000/svg" width="84" height="75" viewBox="0 0 84 75"><path fill="#000000" d="M27.275,28.205c-0.025,0.039 -0.049,0.086 -0.074,0.142c-0.529,1.083 -1.041,3.052 -1.041,3.631c0,0.338 0.148,0.388 0.363,0.338c1.506,-0.123 2.994,-0.215 4.523,-0.215c0.992,0 2.02,0.05 3.035,0.141c-4.912,2.498 -8.451,9.015 -8.451,16.227c0,6.104 3.076,11.876 12.811,12.479c0.314,0.024 0.629,0.024 0.943,0.024c5.135,0 9.502,-1.844 11.99,-2.911c0.68,-0.29 1.605,-0.776 1.605,-1.091c0,-0.141 -0.125,-0.24 -0.539,-0.24c-0.189,0 -0.604,0.025 -0.893,0.049c-2.447,0.216 -4.771,0.34 -6.766,0.34c-13.736,0 -17.68,-5.186 -17.68,-10.9c0,-3.557 2.918,-9.759 10.924,-12.57c0.992,-0.339 2.059,-0.653 4.922,-1.042c1.207,-0.165 2.496,-0.24 3.828,-0.265c0.215,0 0.363,-0.05 0.43,-0.124c0.926,-1.018 2.258,-2.828 2.523,-3.466c0.174,-0.38 0.121,-0.563 -0.148,-0.528c-1.789,0.229 -4.502,0.46 -8.139,0.363l-8.154,-0.215c-2.375,-0.428 0.096,-1.593 0.135,-1.725c0.719,-2.481 0.512,-2.792 -0.137,-2.507C31.57,24.896 29.131,27.643 27.275,28.205z" id="path_0"/><path fill="#0000FF" d="M45.148,22.179c0,0 1.207,-8.299 -2.717,-8.148s-2.85,7.997 -9.145,10.109v2.565c0,0 4.078,-1.681 6.018,-4.979c1.941,-3.299 4.484,-2.264 4.033,0.453H45.148z" id="path_1"/><path fill="#0000FF" d="M54.688,36.103c0.75,0.083 1.979,1.135 3.682,3.154c-0.066,0.604 -0.934,1.854 -2.613,3.75l-0.363,-0.04c-0.75,-0.083 -1.822,-0.938 -3.201,-2.554l0.02,-0.186C52.291,39.501 53.117,38.128 54.688,36.103z" id="path_2"/><path fill="#0000FF" d="M48.371,36.379c2.873,1.625 4.268,2.819 4.184,3.577c-0.242,0.553 -1.225,1.729 -2.957,3.525c-1.932,-1.005 -3.285,-2.078 -4.047,-3.195C46.41,38.33 47.344,37.024 48.371,36.379z" id="path_3"/></svg>