<svg id="vector" xmlns="http://www.w3.org/2000/svg" width="84" height="75" viewBox="0 0 84 75"><path fill="#0000FF" d="M29.97,32.742c-0.024,0.039 -0.049,0.085 -0.074,0.141c-0.529,1.083 -1.042,3.052 -1.042,3.631c0,0.339 0.149,0.388 0.364,0.339c1.505,-0.124 2.994,-0.215 4.523,-0.215c0.993,0 2.018,0.05 3.035,0.141c-4.912,2.498 -8.452,9.014 -8.452,16.226c0,6.103 3.077,11.876 12.811,12.479c0.314,0.025 0.628,0.025 0.943,0.025c5.136,0 9.502,-1.844 11.992,-2.912c0.678,-0.289 1.604,-0.776 1.604,-1.091c0,-0.141 -0.124,-0.24 -0.538,-0.24c-0.19,0 -0.604,0.025 -0.894,0.05c-2.448,0.215 -4.771,0.34 -6.765,0.34c-13.737,0 -17.681,-5.186 -17.681,-10.9c0,-3.557 2.919,-9.76 10.924,-12.571c0.993,-0.339 2.059,-0.653 4.921,-1.042c1.208,-0.165 2.498,-0.24 3.829,-0.264c0.215,0 0.364,-0.051 0.43,-0.125c0.926,-1.017 2.257,-2.828 2.522,-3.465c0.173,-0.381 0.122,-0.564 -0.149,-0.529c-1.788,0.229 -4.5,0.46 -8.138,0.364l-8.154,-0.216c-2.374,-0.428 0.097,-1.592 0.135,-1.725c0.719,-2.481 0.512,-2.792 -0.136,-2.506C34.265,29.433 31.826,32.179 29.97,32.742z" id="path_0"/><path fill="#FF0000" d="M47.843,26.715c0,0 1.207,-8.299 -2.716,-8.148c-3.923,0.151 -2.85,7.997 -9.144,10.11v2.565c0,0 4.078,-1.682 6.018,-4.979c1.94,-3.299 4.484,-2.264 4.031,0.452H47.843z" id="path_1"/><path fill="#FF0000" d="M41.178,9.675c0.75,0.083 1.979,1.135 3.682,3.154c-0.067,0.604 -0.933,1.854 -2.614,3.751l-0.364,-0.041c-0.75,-0.082 -1.822,-0.938 -3.201,-2.553l0.02,-0.186C38.782,13.073 39.607,11.701 41.178,9.675z" id="path_2"/><path fill="#FF0000" d="M47.804,9.491c2.874,1.625 4.268,2.819 4.184,3.578c-0.241,0.553 -1.224,1.728 -2.957,3.524c-1.932,-1.004 -3.285,-2.077 -4.046,-3.195C45.843,11.443 46.778,10.138 47.804,9.491z" id="path_3"/></svg>