<svg id="vector" xmlns="http://www.w3.org/2000/svg" width="84" height="75" viewBox="0 0 84 75"><path fill="#E20A0A" d="M53.261,45.702h0.425c1.446,0.316 3,1.165 4.663,2.548v0.208c-0.958,2.892 -1.799,4.447 -2.539,4.663c-2.161,-0.425 -3.778,-1.13 -4.872,-2.124V50.79C50.938,49.126 51.715,47.437 53.261,45.702z" id="path_0"/><path fill="#E20A0A" d="M61.105,43.794h0.208c1.445,0.217 3.072,1.202 4.871,2.965v0.217l-2.54,4.446c-3.389,-1.093 -5.088,-2.015 -5.088,-2.757C59.65,45.421 60.5,43.794 61.105,43.794z" id="path_1"/><path fill="#E20A0A" d="M51.38,36.014c5.55,0.054 8.65,-0.985 9.327,-3.128c0,-0.741 -0.705,-2.575 -2.123,-5.503l0.642,-5.504h0.415c1.845,3.172 2.757,6.353 2.757,9.525v1.907c0,1.273 -0.308,2.611 -0.912,4.012c-0.606,1.4 -1.546,2.586 -2.803,3.533c-1.265,0.959 -3.696,1.356 -7.303,1.193V36.014z" id="path_2"/><path fill="#0000F4" d="M51.489,42.05c-0.227,0 -0.47,0 -0.714,0h-0.208c-2.052,-0.018 -4.031,-0.379 -5.938,-1.084c-2.042,3.533 -4.727,5.296 -8.043,5.296c-3.958,-0.569 -5.938,-2.187 -5.938,-4.871H30.44c-0.669,2.259 -2.151,4.094 -4.446,5.504c-3.073,1.129 -5.477,1.698 -7.203,1.698l-0.976,0.127v-0.425c0.785,-0.65 2.918,-2.159 6.389,-4.527c3.471,-2.359 5.44,-3.841 5.902,-4.447c0.47,-0.597 1.147,-2.593 2.033,-5.982c1.69,-2.819 3.244,-4.238 4.654,-4.238h0.425c1.762,0 4.591,1.906 8.478,5.721c1.129,0.958 3.054,1.383 5.793,1.274V42.05L51.489,42.05zM33.197,36.303c0,1.87 1.481,3.145 4.445,3.813H38.7c2.404,-0.244 3.606,-0.597 3.606,-1.058c-2.793,-2.684 -4.907,-4.021 -6.362,-4.021h-0.208C34.534,35.037 33.685,35.462 33.197,36.303z" id="path_3"/></svg>