<svg id="vector" xmlns="http://www.w3.org/2000/svg" width="84" height="75" viewBox="0 0 84 75"><path fill="#200AE2" d="M55.961,48.293c-0.884,3.064 -3.563,6.447 -8.045,10.133c-2.697,1.917 -5.855,2.866 -9.465,2.866c-2.021,-0.461 -3.468,-0.921 -4.342,-1.372c-0.875,-0.461 -1.918,-1.477 -3.148,-3.036c-2.209,-2.933 -3.309,-5.648 -3.309,-8.149c0,-5.949 1.907,-10.714 5.732,-14.313c0.678,-0.479 0.969,-0.404 0.875,0.217c0,0.535 -1.1,2.593 -3.299,6.165c-0.884,1.785 -1.326,3.478 -1.326,5.065c0,2.284 1.617,4.774 4.85,7.491c2.294,1.269 4.784,1.785 7.491,1.541c3.187,0 7.152,-2.199 11.89,-6.607H55.961z" id="path_0"/><path fill="#000001" d="M40.675,13.706c0.751,0 2.519,0.884 5.291,2.65c0,1.1 -0.884,2.857 -2.65,5.282c-3.515,-1.137 -5.282,-2.161 -5.282,-3.083C38.128,17.729 39.011,16.112 40.675,13.706z" id="path_1"/><path fill="#000001" d="M53.922,48.293l-4.192,-1.315c-0.799,-0.207 -2.049,-0.423 -3.74,-0.667v-0.217c-0.112,-3.693 0.846,-5.742 2.866,-6.165c1.467,-0.79 2.426,-1.673 2.857,-2.65c-0.141,-0.949 -2.199,-3.449 -6.166,-7.481c-0.196,-3.459 -0.178,-5.31 0.076,-5.583c0.244,-0.263 0.517,-0.31 0.808,-0.149c4.7,4.097 7.05,7.697 7.05,10.798c-0.113,2.03 -0.555,3.798 -1.326,5.282l-0.488,0.658c3.12,0.752 4.681,1.785 4.681,3.092v2.199c0,0.715 -0.113,1.447 -0.339,2.199H53.922z" id="path_2"/><path fill="#000001" d="M47.993,13.706c0.752,0 2.52,0.884 5.291,2.65c0,1.1 -0.883,2.857 -2.65,5.282c-3.514,-1.137 -5.281,-2.161 -5.281,-3.083C45.446,17.729 46.329,16.112 47.993,13.706z" id="path_3"/></svg>