<svg id="vector" xmlns="http://www.w3.org/2000/svg" width="84" height="75" viewBox="0 0 84 75"><path fill="#08B83A" d="M55.169,38.509c-0.884,3.063 -3.562,6.447 -8.045,10.131c-2.698,1.918 -5.856,2.867 -9.464,2.867c-2.021,-0.461 -3.468,-0.921 -4.343,-1.371c-0.874,-0.461 -1.917,-1.477 -3.148,-3.037c-2.208,-2.932 -3.308,-5.648 -3.308,-8.148c0,-5.949 1.908,-10.714 5.733,-14.314c0.676,-0.48 0.967,-0.404 0.874,0.216c0,0.536 -1.099,2.593 -3.299,6.165c-0.883,1.786 -1.326,3.478 -1.326,5.065c0,2.284 1.617,4.775 4.85,7.492c2.293,1.268 4.784,1.785 7.491,1.541c3.187,0 7.153,-2.199 11.89,-6.607H55.169z" id="path_0"/><path fill="#000000" d="M44.05,52.881c0.751,0 2.519,0.884 5.291,2.65c0,1.1 -0.883,2.857 -2.65,5.282c-3.515,-1.138 -5.282,-2.162 -5.282,-3.083C41.503,56.903 42.386,55.286 44.05,52.881z" id="path_1"/><path fill="#000000" d="M53.129,38.509l-4.192,-1.316c-0.799,-0.207 -2.049,-0.422 -3.741,-0.667V36.31c-0.113,-3.694 0.846,-5.743 2.867,-6.166c1.466,-0.79 2.425,-1.673 2.857,-2.65c-0.141,-0.949 -2.2,-3.449 -6.166,-7.481c-0.197,-3.458 -0.178,-5.31 0.076,-5.583c0.244,-0.263 0.517,-0.31 0.808,-0.15c4.7,4.098 7.05,7.698 7.05,10.799c-0.114,2.03 -0.555,3.797 -1.326,5.282l-0.489,0.658c3.12,0.752 4.681,1.786 4.681,3.092v2.2c0,0.715 -0.114,1.447 -0.339,2.199H53.129z" id="path_2"/><path fill="#000000" d="M51.85,52.881c0.751,0 2.519,0.884 5.291,2.65c0,1.1 -0.883,2.857 -2.65,5.282c-3.515,-1.138 -5.282,-2.162 -5.282,-3.083C49.303,56.903 50.186,55.286 51.85,52.881z" id="path_3"/></svg>