<svg id="vector" xmlns="http://www.w3.org/2000/svg" width="84" height="75" viewBox="0 0 84 75"><path fill="#0000FF" d="M43.593,48.453c-1.867,0.016 -3.959,-0.939 -5.185,-2.864h-0.189c-0.905,3.21 -2.255,5.464 -4.049,6.747c-2.543,2.445 -5.308,3.663 -8.295,3.663h-1.16c-3.407,0 -6.428,-1.926 -9.061,-5.785c-1.029,-1.769 -1.548,-3.827 -1.548,-6.173c0,-3.307 1.671,-6.648 5.021,-10.022c1.744,-1.11 2.263,-1.045 1.539,0.188c-2.955,4.115 -4.436,6.946 -4.436,8.484c0,3.992 2.954,6.626 8.871,7.909h1.547c3.309,0 6.583,-1.671 9.834,-5.012c0.337,-1.062 0.403,-2.222 0.189,-3.473c-0.642,-2.732 -1.604,-9.677 -2.889,-20.828l1.152,-3.859c0.181,-0.034 0.37,-0.034 0.584,0c0.354,0 0.996,4.888 1.926,14.656c0.642,5.143 1.348,8.411 2.313,9.645c0.726,0.927 2.437,1.275 3.835,1.226V48.453z" id="path_0"/><path fill="#000000" d="M43.593,43.029c1.374,0.018 2.223,-0.008 2.56,-0.074c2.896,-0.88 4.872,-2.757 5.933,-5.611c0.157,-0.552 0.479,-0.617 0.963,-0.198c0.256,0.222 0.453,1.128 0.576,2.7c1.754,2.361 3.942,3.423 6.56,3.184h0.51v5.498H60.57c-4.099,-0.189 -7.118,-2.058 -9.069,-5.597h-0.188c-1.366,2.88 -3.169,4.649 -5.399,5.308c-0.674,0.189 -1.448,0.289 -2.32,0.289V43.029z" id="path_1"/><path fill="#000000" d="M50.612,50.65c0.658,0 2.206,0.773 4.634,2.313c0,0.963 -0.773,2.51 -2.32,4.633c-3.087,-1.004 -4.626,-1.901 -4.626,-2.707C48.382,54.172 49.147,52.757 50.612,50.65z" id="path_2"/><path fill="#CC0AE2" d="M59.862,43.029c5.053,0.049 7.875,-0.896 8.492,-2.848c0,-0.674 -0.642,-2.345 -1.934,-5.011l0.584,-5.012h0.379c1.679,2.889 2.51,5.785 2.51,8.674v1.736c0,1.16 -0.279,2.378 -0.831,3.653s-1.407,2.354 -2.551,3.218c-1.152,0.872 -3.366,1.234 -6.649,1.087V43.029z" id="path_3"/><path fill="#CC0AE2" d="M59.627,23.213c0.658,0 2.205,0.773 4.633,2.313c0,0.963 -0.772,2.51 -2.32,4.634c-3.086,-1.005 -4.625,-1.901 -4.625,-2.708C57.396,26.735 58.162,25.32 59.627,23.213z" id="path_4"/></svg>