<svg id="vector" xmlns="http://www.w3.org/2000/svg" width="84" height="75" viewBox="0 0 84 75"><path fill="#ED0000" d="M55.962,52.038c-0.884,3.063 -3.563,6.447 -8.046,10.131c-2.697,1.918 -5.855,2.867 -9.464,2.867c-2.021,-0.461 -3.468,-0.921 -4.343,-1.371c-0.874,-0.461 -1.916,-1.477 -3.148,-3.037c-2.209,-2.932 -3.309,-5.648 -3.309,-8.148c0,-5.949 1.908,-10.715 5.733,-14.314c0.677,-0.479 0.968,-0.404 0.874,0.217c0,0.535 -1.1,2.594 -3.299,6.165c-0.883,1.786 -1.326,3.478 -1.326,5.065c0,2.284 1.617,4.775 4.851,7.492c2.294,1.268 4.784,1.785 7.491,1.541c3.186,0 7.152,-2.199 11.889,-6.607H55.962z" id="path_0"/><path fill="#2FC605" d="M40.676,17.451c0.752,0 2.519,0.883 5.291,2.65c0,1.1 -0.884,2.857 -2.65,5.282c-3.516,-1.138 -5.282,-2.162 -5.282,-3.083C38.129,21.474 39.012,19.856 40.676,17.451z" id="path_1"/><path fill="#2FC605" d="M53.922,52.038l-4.191,-1.316c-0.799,-0.207 -2.049,-0.422 -3.74,-0.666v-0.217c-0.113,-3.694 0.846,-5.742 2.866,-6.166c1.466,-0.789 2.425,-1.673 2.857,-2.65c-0.142,-0.949 -2.2,-3.449 -6.166,-7.481c-0.196,-3.458 -0.179,-5.31 0.075,-5.583c0.244,-0.263 0.518,-0.31 0.809,-0.149c4.699,4.098 7.049,7.697 7.049,10.798c-0.113,2.031 -0.555,3.797 -1.325,5.283l-0.489,0.657c3.121,0.752 4.682,1.786 4.682,3.093v2.199c0,0.715 -0.113,1.447 -0.338,2.199H53.922z" id="path_2"/><path fill="#2FC605" d="M47.993,17.451c0.752,0 2.519,0.883 5.291,2.65c0,1.1 -0.884,2.857 -2.65,5.282c-3.515,-1.138 -5.282,-2.162 -5.282,-3.083C45.446,21.474 46.329,19.856 47.993,17.451z" id="path_3"/><path fill="#2FC605" d="M43.146,9.963c0.752,0 2.519,0.883 5.291,2.65c0,1.1 -0.883,2.857 -2.65,5.282c-3.515,-1.138 -5.281,-2.162 -5.281,-3.083C40.6,13.985 41.482,12.368 43.146,9.963z" id="path_4"/></svg>