<svg id="vector" xmlns="http://www.w3.org/2000/svg" width="84" height="75" viewBox="0 0 84 75"><path fill="#FF0000" d="M55.961,48.293c-0.884,3.064 -3.562,6.447 -8.045,10.133c-2.698,1.917 -5.856,2.866 -9.465,2.866c-2.021,-0.461 -3.468,-0.921 -4.343,-1.372c-0.874,-0.461 -1.917,-1.477 -3.148,-3.036c-2.208,-2.933 -3.309,-5.648 -3.309,-8.149c0,-5.949 1.908,-10.714 5.733,-14.313c0.677,-0.479 0.968,-0.404 0.874,0.216c0,0.536 -1.1,2.593 -3.299,6.166c-0.883,1.785 -1.326,3.478 -1.326,5.065c0,2.284 1.617,4.774 4.85,7.491c2.293,1.269 4.784,1.785 7.491,1.541c3.186,0 7.152,-2.199 11.89,-6.607H55.961z" id="path_0"/><path fill="#000001" d="M44.223,13.707c0.752,0 2.519,0.883 5.291,2.65c0,1.1 -0.882,2.857 -2.649,5.282c-3.515,-1.137 -5.282,-2.162 -5.282,-3.083C41.676,17.729 42.559,16.112 44.223,13.707z" id="path_1"/><path fill="#000001" d="M53.922,48.293l-4.192,-1.315c-0.799,-0.207 -2.049,-0.423 -3.741,-0.667v-0.217c-0.112,-3.693 0.846,-5.742 2.867,-6.165c1.466,-0.79 2.425,-1.673 2.857,-2.65c-0.142,-0.949 -2.199,-3.45 -6.166,-7.482c-0.197,-3.458 -0.179,-5.31 0.075,-5.583c0.245,-0.263 0.517,-0.31 0.808,-0.149c4.699,4.097 7.049,7.697 7.049,10.798c-0.113,2.03 -0.555,3.798 -1.325,5.282l-0.489,0.658c3.121,0.752 4.682,1.785 4.682,3.092v2.199c0,0.715 -0.113,1.447 -0.338,2.199H53.922z" id="path_2"/></svg>