<svg id="vector" xmlns="http://www.w3.org/2000/svg" width="84" height="75" viewBox="0 0 84 75"><path fill="#E23C0A" d="M51.313,25.137c0.755,0 2.093,0.911 4.007,2.731c0,0.606 -0.724,1.945 -2.187,4.015h-0.366c-0.754,0 -1.913,-0.731 -3.461,-2.187V29.51C49.306,28.778 49.974,27.323 51.313,25.137z" id="path_0"/><path fill="#E23C0A" d="M57.878,24.227c3.035,1.3 4.552,2.334 4.552,3.097c-0.179,0.576 -1.026,1.852 -2.552,3.828c-2.03,-0.786 -3.493,-1.704 -4.372,-2.73C56.144,26.382 56.93,24.981 57.878,24.227z" id="path_1"/><path fill="#E23C0A" d="M53.499,18.937c2.793,1.151 4.193,2.124 4.193,2.918l-2.373,3.648h-0.179c-0.514,0 -1.914,-0.731 -4.194,-2.194C52.067,20.392 52.923,18.937 53.499,18.937z" id="path_2"/><path fill="#E23C0A" d="M50.464,45.124c4.777,0.047 7.446,-0.848 8.029,-2.691c0,-0.639 -0.606,-2.218 -1.828,-4.738l0.553,-4.738h0.357c1.587,2.731 2.373,5.469 2.373,8.2v1.642c0,1.097 -0.265,2.248 -0.786,3.455c-0.521,1.205 -1.33,2.225 -2.411,3.041c-1.089,0.824 -3.183,1.167 -6.287,1.027V45.124z" id="path_3"/><path fill="#000000" d="M50.558,50.321c-0.194,0 -0.404,0 -0.614,0h-0.18c-1.766,-0.016 -3.47,-0.327 -5.111,-0.934c-1.758,3.042 -4.069,4.559 -6.924,4.559c-3.407,-0.489 -5.112,-1.883 -5.112,-4.193h-0.178c-0.576,1.945 -1.853,3.524 -3.828,4.738c-2.646,0.973 -4.715,1.463 -6.2,1.463l-0.841,0.109v-0.366c0.677,-0.56 2.513,-1.859 5.5,-3.897c2.988,-2.031 4.684,-3.307 5.081,-3.828c0.404,-0.514 0.988,-2.232 1.75,-5.15c1.455,-2.428 2.793,-3.648 4.007,-3.648h0.365c1.518,0 3.953,1.641 7.299,4.924c0.972,0.825 2.629,1.191 4.986,1.098V50.321L50.558,50.321zM34.811,45.373c0,1.61 1.276,2.708 3.828,3.283h0.91c2.069,-0.21 3.104,-0.513 3.104,-0.91c-2.404,-2.312 -4.225,-3.462 -5.478,-3.462h-0.179C35.962,44.284 35.231,44.649 34.811,45.373z" id="path_4"/></svg>