<svg id="vector" xmlns="http://www.w3.org/2000/svg" width="84" height="75" viewBox="0 0 84 75"><path fill="#28C605" d="M46.851,55.036c0.687,0 2.29,0.806 4.821,2.419c0,1.004 -0.799,2.607 -2.411,4.82c-3.216,-1.037 -4.82,-1.973 -4.82,-2.813C44.518,58.707 45.324,57.232 46.851,55.036z" id="path_0"/><path fill="#22C605" d="M42.021,46.219c5.267,0.051 8.209,-0.935 8.852,-2.968c0,-0.703 -0.669,-2.444 -2.016,-5.224l0.609,-5.223h0.395c1.75,3.011 2.616,6.03 2.616,9.04v1.811c0,1.209 -0.292,2.479 -0.866,3.809c-0.575,1.329 -1.467,2.453 -2.659,3.354c-1.201,0.909 -3.508,1.287 -6.931,1.133V46.219z" id="path_1"/><path fill="#0000FF" d="M42.45,51.949c-3.902,0.23 -6.742,-1.57 -8.518,-5.404c-0.857,-1.424 -1.654,-11.021 -2.409,-28.794v-0.403c0.497,-2.951 1.234,-4.426 2.204,-4.426l1.012,-0.197c1.235,0 3.113,0.403 5.627,1.2v0.403c-0.138,0.404 -0.54,0.609 -1.209,0.609h-3.414c-0.703,0 -1.372,0.395 -2.016,1.201c0.626,15.431 1.535,24.369 2.744,26.813c1.201,2.444 3.2,3.533 5.979,3.268V51.949z" id="path_2"/></svg>