<svg id="vector" xmlns="http://www.w3.org/2000/svg" width="84" height="75" viewBox="0 0 84 75"><path fill="#0000F6" d="M55.962,40.628c-0.884,3.064 -3.562,6.448 -8.045,10.133c-2.698,1.918 -5.856,2.866 -9.464,2.866c-2.021,-0.461 -3.468,-0.921 -4.343,-1.372c-0.874,-0.461 -1.917,-1.476 -3.148,-3.035c-2.208,-2.934 -3.308,-5.648 -3.308,-8.149c0,-5.949 1.907,-10.714 5.733,-14.314c0.677,-0.479 0.968,-0.404 0.874,0.217c0,0.535 -1.1,2.593 -3.299,6.165c-0.883,1.787 -1.326,3.479 -1.326,5.067c0,2.283 1.617,4.774 4.85,7.49c2.293,1.27 4.784,1.785 7.491,1.541c3.187,0 7.152,-2.199 11.89,-6.607H55.962z" id="path_0"/><path fill="#000000" d="M50.615,50.761c0.751,0 2.519,0.883 5.291,2.65c0,1.1 -0.883,2.857 -2.65,5.282c-3.515,-1.138 -5.282,-2.162 -5.282,-3.083C48.067,54.783 48.951,53.166 50.615,50.761z" id="path_1"/><path fill="#000000" d="M53.923,40.628l-4.192,-1.314c-0.799,-0.207 -2.049,-0.424 -3.74,-0.668v-0.217c-0.113,-3.693 0.846,-5.742 2.867,-6.165c1.466,-0.79 2.425,-1.673 2.857,-2.65c-0.141,-0.949 -2.199,-3.449 -6.166,-7.481c-0.197,-3.459 -0.178,-5.31 0.076,-5.583c0.244,-0.263 0.517,-0.31 0.808,-0.15c4.7,4.098 7.05,7.698 7.05,10.799c-0.114,2.03 -0.555,3.797 -1.326,5.282l-0.489,0.657c3.12,0.752 4.681,1.787 4.681,3.092v2.199c0,0.715 -0.113,1.447 -0.338,2.199H53.923z" id="path_2"/></svg>