<svg id="vector" xmlns="http://www.w3.org/2000/svg" width="84" height="75" viewBox="0 0 84 75"><path fill="#e2610a" d="M39.617,23.993c-0.095,-0.034 -0.19,-0.066 -0.285,-0.096c2.226,-2.297 6.901,-3.688 9.766,-3.657c0.938,0 2.019,0.154 2.441,0.969c0.268,0.515 0.639,1.02 1.112,1.02c0.371,0 0.7,-0.268 1.061,-0.845c0.907,-1.381 1.329,-2.627 1.329,-3.657c0,-1.895 -1.236,-2.533 -3.049,-2.533c-6.183,0 -13.202,3.893 -15.71,7.99C37.441,23.431 38.562,23.707 39.617,23.993z" id="path_0"/><path fill="#0AE2B7" d="M34.419,27.358c-1.721,0.824 -3.049,2.173 -4.038,4.079c-1.03,1.957 -1.545,4.018 -1.545,6.191c0.062,1.689 0.546,4.521 1.298,8.621c0.999,5.502 1.328,9.179 1.143,12.135c-0.051,1.061 0,1.391 0.278,1.422c0.299,0.031 0.69,-0.67 0.938,-1.422c0.722,-2.143 0.989,-3.924 0.989,-6.006c-0.093,-2.018 -0.33,-4.285 -0.69,-6.787l-1.813,-11.353c0.782,-1.267 2.956,-1.896 6.664,-1.896c2.081,0.031 3.895,0.423 4.883,0.814c0.299,0.123 0.453,0.093 0.659,-0.186c0.814,-1.051 2.081,-3.771 2.05,-4.038c0,-0.67 -0.628,-1.576 -1.896,-2.72c-1.262,-1.033 -2.489,-1.781 -3.722,-2.222c-1.056,-0.286 -2.176,-0.563 -3.335,-0.81c-0.145,0.237 -0.276,0.476 -0.391,0.714C35.563,24.494 34.954,26.04 34.419,27.358z" id="path_1"/><path fill="#0AE2B7" d="M51.065,35.526c-0.145,-0.154 -0.237,-0.123 -0.66,0.299c-0.875,0.876 -2.132,2.329 -2.853,3.452c-0.154,0.268 -0.154,0.298 0,0.535c0.566,0.906 2.791,2.605 3.812,3.203c0.247,0.154 0.329,0.154 0.515,-0.062c0.813,-0.927 2.586,-2.987 3.121,-3.677c0.186,-0.186 0.237,-0.31 0.031,-0.434C53.496,37.855 51.91,36.434 51.065,35.526z" id="path_2"/></svg>