<svg id="vector" xmlns="http://www.w3.org/2000/svg" width="84" height="75" viewBox="0 0 84 75"><path fill="#010000" d="M43.4,41.108c-1.658,0 -2.941,-0.257 -3.859,-0.77c-0.451,3.951 -1.299,6.683 -2.553,8.207c-3.002,3.766 -6.107,5.648 -9.297,5.648c-5.865,0 -9.693,-2.552 -11.49,-7.655c-0.357,-0.972 -0.545,-2.007 -0.545,-3.104v-1.455c0,-4.317 1.338,-7.718 4.014,-10.215c0.482,0.188 0.732,0.607 0.732,1.276l-2.918,5.29l-0.186,1.82c0,4.107 2.248,6.963 6.744,8.574l4.746,0.365c2,0 4.496,-1.159 7.477,-3.463c1.09,-1.766 1.641,-3.041 1.641,-3.834c-0.123,-1.215 -0.918,-2.973 -2.373,-5.283v-3.836l0.545,-0.544c1.324,2.66 3.766,3.944 7.322,3.851V41.108z" id="path_0"/><path fill="#010000" d="M27.326,36.323c1.797,0.576 3.189,1.308 4.193,2.188v0.365c0,0.607 -0.668,1.945 -2.008,4.014c-1.244,0 -2.637,-0.668 -4.193,-2.006v-0.367C25.318,39.209 25.988,37.817 27.326,36.323z" id="path_1"/><path fill="#E20A0A" d="M44.789,51h0.73c2.396,1.369 3.619,2.163 3.643,2.373c-1.184,2.552 -1.969,3.891 -2.365,4.015c-1.369,0 -2.709,-0.669 -4.016,-2.007C43.023,54.074 43.691,52.62 44.789,51z" id="path_2"/><path fill="#E20A0A" d="M42.941,35.841h0.047c2.123,0 3.828,-0.724 5.104,-2.187l-0.18,-1.455c0,-1.797 0.365,-3.252 1.09,-4.38c0.334,0 0.824,3.104 1.463,9.297c0.73,3.346 3.275,4.894 7.633,4.652v5.198c-4.256,0.303 -7.221,-1.643 -8.908,-5.836c-0.273,-2.917 -0.576,-4.372 -0.912,-4.372c-0.715,2.762 -2.496,4.217 -5.336,4.349V35.841z" id="path_3"/><path fill="#1305c6" d="M57.934,41.91c4.777,0.046 7.445,-0.848 8.029,-2.692c0,-0.638 -0.607,-2.217 -1.828,-4.737l0.551,-4.738h0.359c1.586,2.731 2.373,5.47 2.373,8.2v1.642c0,1.097 -0.266,2.249 -0.787,3.454c-0.521,1.206 -1.33,2.226 -2.412,3.042c-1.088,0.825 -3.182,1.167 -6.285,1.026V41.91z" id="path_4"/><path fill="#1305c6" d="M58.389,17.612c1.795,0.576 3.197,1.308 4.191,2.187v0.366c0,0.606 -0.66,1.945 -1.998,4.014c-1.246,0 -2.646,-0.668 -4.193,-2.006v-0.367C56.389,20.499 57.057,19.098 58.389,17.612z" id="path_5"/><path fill="#1305c6" d="M64.15,17.612c1.797,0.576 3.197,1.308 4.193,2.187v0.366c0,0.606 -0.662,1.945 -2,4.014c-1.244,0 -2.645,-0.668 -4.193,-2.006v-0.367C62.15,20.499 62.82,19.098 64.15,17.612z" id="path_6"/><path fill="#E20A0A" d="M50.414,51h0.732c2.395,1.369 3.617,2.163 3.641,2.373c-1.184,2.552 -1.969,3.891 -2.365,4.015c-1.369,0 -2.709,-0.669 -4.016,-2.007C48.648,54.074 49.316,52.62 50.414,51z" id="path_7"/></svg>