<svg id="vector" xmlns="http://www.w3.org/2000/svg" width="84" height="75" viewBox="0 0 84 75"><path fill="#000000" d="M64.688,16.932c-15.883,8.693 -23.538,33.75 -29.398,41.38c0.973,-3.607 19.139,-43.926 25.508,-43.199C61.797,15.227 64.785,16.879 64.688,16.932z" id="path_0"/><path fill="#C60505" d="M37.269,30.743c-4.084,-4.726 -8.955,-10.638 -13.983,-13.443c-0.955,-0.532 -1.771,-0.979 -2.424,-0.918c-0.485,0.046 -0.911,0.421 -1.188,1.344c-0.283,0.852 -0.462,2.506 -0.305,4.17c0.061,0.652 0.191,1.292 0.347,1.898c0.308,1.197 2.973,2.188 3.943,2.096c0.943,-0.089 1.934,-1.75 2.04,-1.956c11.964,6.698 18.867,19.443 22.654,27.46c1.492,3.159 -3.922,4.949 -12.705,6.517c-1.042,0.186 0.343,1.862 0.67,1.909c0.835,0.123 2.023,0.089 3.354,-0.037c5.048,-0.478 9.07,-2.243 9.895,-3.255c2.304,-2.83 0.611,-6.22 -0.966,-9.233C45.573,41.506 41.942,36.151 37.269,30.743z" id="path_1"/></svg>