<svg id="vector" xmlns="http://www.w3.org/2000/svg" width="84" height="75" viewBox="0 0 84 75"><path fill="#05C63C" d="M42.135,51.337c-1.868,0.017 -3.96,-0.938 -5.185,-2.864h-0.189c-0.906,3.211 -2.255,5.465 -4.05,6.748c-2.542,2.444 -5.308,3.662 -8.295,3.662h-1.16c-3.407,0 -6.427,-1.925 -9.061,-5.785c-1.028,-1.769 -1.548,-3.826 -1.548,-6.172c0,-3.308 1.672,-6.648 5.021,-10.023c1.745,-1.11 2.264,-1.045 1.539,0.189c-2.954,4.115 -4.436,6.945 -4.436,8.484c0,3.992 2.954,6.625 8.871,7.908h1.548c3.308,0 6.583,-1.67 9.834,-5.012c0.337,-1.061 0.402,-2.221 0.188,-3.473c-0.642,-2.732 -1.604,-9.677 -2.889,-20.828l1.152,-3.859c0.181,-0.033 0.37,-0.033 0.585,0c0.354,0 0.995,4.889 1.926,14.656c0.641,5.143 1.348,8.412 2.312,9.645c0.726,0.928 2.437,1.275 3.836,1.227V51.337z" id="path_0"/><path fill="#e2610a" d="M42.135,45.915c1.374,0.016 2.222,-0.008 2.56,-0.074c2.896,-0.881 4.871,-2.758 5.933,-5.612c0.157,-0.552 0.478,-0.617 0.963,-0.198c0.255,0.223 0.453,1.128 0.576,2.7c1.753,2.362 3.942,3.423 6.56,3.185h0.51v5.497h-0.123c-4.098,-0.189 -7.119,-2.058 -9.07,-5.597h-0.188c-1.366,2.881 -3.168,4.65 -5.398,5.309c-0.675,0.189 -1.448,0.288 -2.32,0.288V45.915z" id="path_1"/><path fill="#000000" d="M66.718,21.715c0.658,0 2.205,0.773 4.633,2.313c0,0.963 -0.773,2.51 -2.32,4.633c-3.086,-1.004 -4.625,-1.9 -4.625,-2.707C64.487,25.238 65.253,23.823 66.718,21.715z" id="path_2"/><path fill="#000000" d="M58.403,45.915c5.055,0.049 7.877,-0.896 8.494,-2.848c0,-0.675 -0.643,-2.345 -1.936,-5.012l0.586,-5.012h0.377c1.68,2.889 2.512,5.785 2.512,8.674v1.736c0,1.16 -0.281,2.379 -0.832,3.654s-1.406,2.354 -2.551,3.217c-1.152,0.873 -3.365,1.234 -6.65,1.087V45.915z" id="path_3"/><path fill="#e2610a" d="M44.415,29.57c0.658,0 2.206,0.773 4.634,2.313c0,0.963 -0.773,2.51 -2.321,4.634c-3.086,-1.005 -4.625,-1.902 -4.625,-2.709C42.186,33.093 42.951,31.677 44.415,29.57z" id="path_4"/><path fill="#e2610a" d="M50.476,29.98c0.658,0 2.205,0.773 4.633,2.313c0,0.963 -0.773,2.51 -2.32,4.634c-3.086,-1.005 -4.625,-1.902 -4.625,-2.709C48.245,33.502 49.011,32.086 50.476,29.98z" id="path_5"/><path fill="#000000" d="M60.567,21.981c0.658,0 2.205,0.773 4.633,2.313c0,0.963 -0.771,2.51 -2.32,4.633c-3.086,-1.004 -4.625,-1.9 -4.625,-2.707C58.337,25.502 59.103,24.087 60.567,21.981z" id="path_6"/><path fill="#000000" d="M62.743,16.116c0.658,0 2.205,0.773 4.633,2.313c0,0.963 -0.773,2.51 -2.32,4.634c-3.086,-1.005 -4.625,-1.901 -4.625,-2.708C60.513,19.638 61.278,18.223 62.743,16.116z" id="path_7"/><path fill="#e2610a" d="M46.501,24.38c0.658,0 2.205,0.773 4.633,2.313c0,0.963 -0.773,2.51 -2.32,4.634c-3.086,-1.005 -4.625,-1.901 -4.625,-2.709C44.271,27.903 45.036,26.487 46.501,24.38z" id="path_8"/></svg>