<svg id="vector" xmlns="http://www.w3.org/2000/svg" width="84" height="75" viewBox="0 0 84 75"><path fill="#E20A0A" d="M41.467,46.435c-1.867,0.017 -3.959,-0.938 -5.185,-2.864h-0.189c-0.905,3.21 -2.255,5.465 -4.05,6.748c-2.542,2.444 -5.307,3.662 -8.295,3.662h-1.16c-3.406,0 -6.427,-1.926 -9.061,-5.785c-1.028,-1.77 -1.547,-3.826 -1.547,-6.172c0,-3.308 1.671,-6.649 5.02,-10.023c1.745,-1.11 2.264,-1.045 1.539,0.189c-2.953,4.115 -4.436,6.945 -4.436,8.484c0,3.991 2.955,6.625 8.871,7.908h1.548c3.308,0 6.583,-1.67 9.834,-5.012c0.337,-1.061 0.403,-2.222 0.188,-3.473c-0.641,-2.732 -1.604,-9.677 -2.889,-20.828l1.152,-3.859c0.182,-0.033 0.371,-0.033 0.585,0c0.354,0 0.995,4.889 1.926,14.656c0.642,5.143 1.348,8.412 2.312,9.645c0.727,0.927 2.438,1.275 3.836,1.227V46.435z" id="path_0"/><path fill="#000001" d="M41.467,41.012c1.374,0.016 2.223,-0.008 2.56,-0.074c2.896,-0.881 4.872,-2.758 5.933,-5.612c0.157,-0.552 0.479,-0.617 0.963,-0.198c0.256,0.223 0.453,1.127 0.576,2.7c1.754,2.362 3.941,3.423 6.559,3.185h0.511v5.497h-0.124c-4.098,-0.19 -7.117,-2.058 -9.068,-5.597h-0.189c-1.365,2.881 -3.168,4.65 -5.398,5.309c-0.674,0.189 -1.448,0.288 -2.32,0.288V41.012z" id="path_1"/><path fill="#05C63C" d="M61.494,52.404c0.659,0 2.206,0.773 4.634,2.312c0,0.963 -0.772,2.511 -2.32,4.634c-3.087,-1.005 -4.625,-1.901 -4.625,-2.708C59.265,55.926 60.03,54.51 61.494,52.404z" id="path_2"/><path fill="#05C63C" d="M57.736,41.012c5.053,0.049 7.875,-0.896 8.492,-2.848c0,-0.675 -0.642,-2.346 -1.934,-5.012l0.584,-5.012h0.379c1.68,2.889 2.51,5.785 2.51,8.674v1.736c0,1.16 -0.279,2.379 -0.83,3.654c-0.553,1.275 -1.408,2.354 -2.553,3.217c-1.15,0.873 -3.365,1.234 -6.648,1.087V41.012z" id="path_3"/><path fill="#000001" d="M43.748,25.077c0.658,0 2.205,0.773 4.633,2.312c0,0.963 -0.773,2.511 -2.32,4.635c-3.086,-1.005 -4.625,-1.902 -4.625,-2.709C41.518,28.599 42.283,27.184 43.748,25.077z" id="path_4"/><path fill="#000001" d="M49.808,25.077c0.659,0 2.206,0.773 4.634,2.312c0,0.963 -0.773,2.511 -2.32,4.635c-3.087,-1.005 -4.625,-1.902 -4.625,-2.709C47.578,28.599 48.344,27.184 49.808,25.077z" id="path_5"/><path fill="#05C63C" d="M67.387,52.669c0.658,0 2.206,0.773 4.634,2.312c0,0.963 -0.773,2.511 -2.32,4.634c-3.087,-1.005 -4.626,-1.901 -4.626,-2.708C65.157,56.19 65.923,54.775 67.387,52.669z" id="path_6"/></svg>