<svg id="vector" xmlns="http://www.w3.org/2000/svg" width="84" height="75" viewBox="0 0 84 75"><path fill="#C60505" d="M51.375,21.674l0.302,0.918c-0.407,1.742 -2.255,3.789 -5.533,6.15c3.278,2.66 4.917,6.555 4.917,11.682v0.301c0,8.404 -3.476,12.602 -10.45,12.602c-5.521,-1.076 -8.287,-3.842 -8.287,-8.301v-0.301c0.196,-3.842 1.73,-7.945 4.603,-12.299c-2.662,-0.813 -3.986,-1.941 -3.986,-3.383c0,-3.842 0.301,-6.189 0.918,-7.068c2.767,0.773 5.834,2.309 9.218,4.615h0.301L51.375,21.674L51.375,21.674zM39.391,33.959c-2.465,2.465 -3.698,4.209 -3.698,5.232c0,3.172 2.256,5.021 6.767,5.533c2.36,-0.314 4.405,-1.127 6.149,-2.465C46.615,38.824 43.534,36.07 39.391,33.959z" id="path_0"/></svg>