<svg id="vector" xmlns="http://www.w3.org/2000/svg" width="84" height="75" viewBox="0 0 84 75"><path fill="#0000FF" d="M52.498,15.213c0.397,0 0.683,1.079 0.867,3.249l2.161,3.675v0.222c0,0.97 -0.434,2.705 -1.301,5.188l1.301,14.717v5.188c-0.471,3.001 -2.197,5.955 -5.198,8.873c-2.991,2.308 -5.659,3.462 -8.005,3.462h-1.292c-6.278,0 -10.323,-3.102 -12.123,-9.298l-0.434,-3.896c0,-4.008 1.735,-7.543 5.197,-10.608h0.213l0.434,0.434c0,0.795 -1.006,2.742 -3.029,5.845c-0.434,1.116 -0.646,2.124 -0.646,3.028v0.222c0,3.675 2.954,6.342 8.872,8.005l2.594,0.212h0.434c4.182,0 7.857,-1.948 11.033,-5.844l0.212,-0.646c-1.726,-15.077 -2.593,-24.31 -2.593,-27.698v-0.434C51.196,17.521 51.629,16.228 52.498,15.213z" id="path_0"/></svg>