<svg id="vector" xmlns="http://www.w3.org/2000/svg" width="84" height="75" viewBox="0 0 84 75"><path fill="#F80202" d="M63.943,32.488c0,0 1.418,-8.506 -3.195,-8.352c-4.615,0.154 -10.207,8.785 -16.311,12.609l-0.127,1.859c8.051,-1.098 16.438,-15.932 17.502,-6.117H63.943z" id="path_0"/><path fill="#009649" d="M43.172,45.133h2.215c2.338,-0.32 6.053,-1.189 11.146,-2.592v-0.197l-12.279,-3.793l0.18,-1.869c5.822,-0.6 15.982,3.107 17.104,3.545l5.191,0.387l0.377,0.582c-0.09,0.861 -0.861,2.525 -2.305,4.994h-0.574l-0.771,-0.197h-0.959C52.498,48.945 46.666,50.48 45,50.611h-1.828V45.133z" id="path_1"/><path fill="#030901" d="M20.203,30.381c0.805,0 2.215,0.959 4.232,2.879c0,0.639 -0.771,2.051 -2.305,4.232h-0.385c-0.805,0 -2.018,-0.771 -3.65,-2.305V34.99C18.096,34.219 18.793,32.686 20.203,30.381z" id="path_2"/><path fill="#030901" d="M44.041,50.635c-2.453,-0.195 -4.676,-1.918 -6.66,-5.166c-2.945,3.584 -7.178,5.381 -12.689,5.381h-1.533c-5.963,0 -10.064,-2.559 -12.303,-7.686l-0.197,-1.158v-1.73c0,-1.854 0.836,-3.969 2.502,-6.34h0.188l0.387,0.387v0.959l-0.961,3.076c0,3.361 2.822,5.668 8.457,6.922l3.461,0.189c5.996,0 10.738,-2.051 14.23,-6.152c0.189,0 0.379,0.254 0.574,0.771l-0.195,1.346c0.656,2.418 2.238,3.633 4.74,3.648V50.635z" id="path_3"/><path fill="#030901" d="M25.934,30.381c0.805,0 2.215,0.959 4.232,2.879c0,0.639 -0.77,2.051 -2.305,4.232h-0.385c-0.805,0 -2.018,-0.771 -3.65,-2.305V34.99C23.826,34.219 24.523,32.686 25.934,30.381z" id="path_4"/><path fill="#F80202" d="M68.92,47.408c2.945,1.215 4.422,2.238 4.422,3.076l-2.502,3.838H70.65c-0.549,0 -2.025,-0.762 -4.428,-2.305C67.41,48.943 68.305,47.408 68.92,47.408z" id="path_5"/><path fill="#009649" d="M47.693,20.676c2.945,1.215 4.42,2.24 4.42,3.076l-2.5,3.84h-0.189c-0.549,0 -2.025,-0.764 -4.43,-2.307C46.184,22.211 47.078,20.676 47.693,20.676z" id="path_6"/></svg>