<svg id="vector" xmlns="http://www.w3.org/2000/svg" width="84" height="75" viewBox="0 0 84 75"><path fill="#000000" d="M34.316,15.922h0.616c2.099,0.459 4.354,1.691 6.766,3.685v0.314c-1.39,4.196 -2.622,6.452 -3.697,6.766c-3.12,-0.616 -5.48,-1.64 -7.067,-3.081v-0.301C30.934,20.891 32.062,18.439 34.316,15.922z" id="path_0"/><path fill="#000000" d="M45.685,13.156H46c2.098,0.313 4.457,1.742 7.066,4.299v0.316l-3.697,6.449C44.452,22.635 42,21.299 42,20.223C43.586,15.516 44.819,13.156 45.685,13.156z" id="path_1"/><path fill="#000000" d="M51.375,30.19l0.302,0.917c-0.407,1.744 -2.255,3.791 -5.533,6.15c3.278,2.661 4.917,6.556 4.917,11.684v0.301c0,8.404 -3.475,12.601 -10.45,12.601c-5.521,-1.075 -8.287,-3.843 -8.287,-8.3v-0.302c0.196,-3.841 1.73,-7.946 4.603,-12.299c-2.662,-0.813 -3.986,-1.941 -3.986,-3.384c0,-3.841 0.301,-6.188 0.918,-7.066c2.767,0.773 5.834,2.308 9.218,4.615h0.302L51.375,30.19L51.375,30.19zM39.391,42.477c-2.465,2.465 -3.697,4.208 -3.697,5.23c0,3.174 2.255,5.023 6.766,5.534c2.36,-0.315 4.405,-1.128 6.149,-2.466C46.615,47.341 43.534,44.588 39.391,42.477z" id="path_2"/></svg>