<svg id="vector" xmlns="http://www.w3.org/2000/svg" width="84" height="75" viewBox="0 0 84 75"><path fill="#000C06" d="M48.441,21.986l0.206,0.208v0.197c-0.704,3.626 -2.251,5.439 -4.632,5.439c-2.99,0 -6.342,1.341 -10.071,4.029c-4.159,3.489 -6.248,7.45 -6.248,11.877c0,6.014 3.429,10.173 10.277,12.485l7.047,0.609l11.283,-0.808h2.209l0.205,0.198v0.206c0,0.774 -2.078,1.916 -6.246,3.42c-1.693,0.74 -5.182,1.547 -10.476,2.423c-6.875,0 -11.24,-1.753 -13.087,-5.241c-2.149,-3.154 -3.223,-6.849 -3.223,-11.077c0,-6.883 2.819,-12.785 8.456,-17.718h-4.426c-1.073,0 -2.415,0.937 -4.03,2.818l-0.404,-0.405v-0.403c1.34,-5.103 3.429,-7.657 6.248,-7.657C32.063,22.727 37.7,22.529 48.441,21.986z" id="path_0"/><path fill="#000000" d="M37.768,12.729h0.404c0.971,0 2.379,0.937 4.227,2.819v0.196c0,0.877 -0.798,2.217 -2.414,4.031c-2.819,-0.74 -4.229,-1.746 -4.229,-3.026C36.161,15.307 36.832,13.966 37.768,12.729z" id="path_1"/></svg>