<svg id="vector" xmlns="http://www.w3.org/2000/svg" width="84" height="75" viewBox="0 0 84 75"><path fill="#000001" d="M67.061,37.625c0,0 1.42,-8.508 -3.195,-8.352c-4.615,0.154 -10.207,8.785 -16.311,12.607l-0.127,1.861c8.051,-1.098 16.438,-15.934 17.502,-6.117H67.061z" id="path_0"/><path fill="#C60505" d="M46.289,50.268h2.215c2.338,-0.32 6.053,-1.189 11.146,-2.592v-0.197l-12.277,-3.793l0.18,-1.867c5.82,-0.6 15.98,3.107 17.102,3.545l5.191,0.385l0.377,0.582c-0.09,0.861 -0.861,2.527 -2.303,4.996h-0.576l-0.771,-0.197h-0.959c-9.998,2.953 -15.83,4.486 -17.496,4.617h-1.828V50.268z" id="path_1"/><path fill="#4BE20A" d="M23.32,35.516c0.805,0 2.215,0.961 4.232,2.879c0,0.641 -0.77,2.051 -2.305,4.232h-0.385c-0.803,0 -2.018,-0.771 -3.65,-2.305v-0.197C21.213,39.355 21.91,37.822 23.32,35.516z" id="path_2"/><path fill="#4BE20A" d="M47.158,55.771c-2.451,-0.197 -4.674,-1.92 -6.66,-5.168c-2.943,3.586 -7.176,5.381 -12.688,5.381h-1.535c-5.963,0 -10.063,-2.559 -12.303,-7.686l-0.196,-1.156v-1.73c0,-1.854 0.836,-3.971 2.501,-6.34h0.188l0.386,0.385v0.961l-0.959,3.074c0,3.363 2.821,5.668 8.455,6.924l3.463,0.188c5.994,0 10.736,-2.049 14.23,-6.15c0.188,0 0.377,0.254 0.574,0.77l-0.197,1.346c0.656,2.42 2.24,3.635 4.74,3.65V55.771z" id="path_3"/><path fill="#4BE20A" d="M29.053,35.516c0.803,0 2.215,0.961 4.232,2.879c0,0.641 -0.771,2.051 -2.305,4.232h-0.387c-0.803,0 -2.018,-0.771 -3.65,-2.305v-0.197C26.943,39.355 27.641,37.822 29.053,35.516z" id="path_4"/><path fill="#000001" d="M59.623,19.016c2.945,1.213 4.422,2.238 4.422,3.076l-2.502,3.838h-0.188c-0.551,0 -2.027,-0.764 -4.43,-2.305C58.115,20.549 59.01,19.016 59.623,19.016z" id="path_5"/><path fill="#000001" d="M65.561,19.016c2.945,1.213 4.422,2.238 4.422,3.076L67.48,25.93h-0.189c-0.549,0 -2.025,-0.764 -4.43,-2.305C64.051,20.549 64.945,19.016 65.561,19.016z" id="path_6"/></svg>