<svg id="vector" xmlns="http://www.w3.org/2000/svg" width="84" height="75" viewBox="0 0 84 75"><path fill="#1305c6" d="M49.201,51.82c0.911,0 3.04,1.07 6.398,3.211c0,1.332 -1.06,3.461 -3.2,6.398c-4.268,-1.379 -6.396,-2.619 -6.396,-3.734C46.104,56.693 47.175,54.734 49.201,51.82z" id="path_0"/><path fill="#1305c6" d="M45.493,40.119c6.99,0.066 10.896,-1.242 11.749,-3.939c0,-0.934 -0.889,-3.244 -2.676,-6.934l0.809,-6.932h0.523c2.322,3.996 3.472,8.002 3.472,11.998v2.402c0,1.605 -0.387,3.289 -1.149,5.055c-0.763,1.764 -1.946,3.256 -3.529,4.451c-1.593,1.205 -4.655,1.707 -9.198,1.502V40.119z" id="path_1"/><path fill="#C60505" d="M46.667,47.723h-0.069c-5.111,0 -8.571,-2.492 -10.404,-7.469l-0.535,-2.139h-0.523c-0.41,1.422 -3.256,2.311 -8.538,2.674h-1.343c-3.552,0 -5.328,-1.068 -5.328,-3.209v-2.402c0,-2.572 1.958,-5.771 5.862,-9.596c2.356,-1.789 5.032,-3.291 8.003,-4.543l-0.261,-0.797c0.979,-4.451 1.775,-6.672 2.401,-6.672c0.307,0.752 0.751,6.273 1.332,16.541c0.797,6.922 3.938,10.279 9.403,10.109V47.723L46.667,47.723zM23.125,32.252c1.024,0.705 2.709,1.059 5.065,1.059c2.311,-0.17 4.451,-0.615 6.409,-1.332l-0.535,-7.467h-0.273C26.677,27.893 23.125,30.465 23.125,32.252z" id="path_2"/><path fill="#1305c6" d="M57.676,51.82c0.911,0 3.04,1.07 6.398,3.211c0,1.332 -1.06,3.461 -3.199,6.398c-4.269,-1.379 -6.397,-2.619 -6.397,-3.734C54.58,56.693 55.649,54.734 57.676,51.82z" id="path_3"/></svg>