<svg id="vector" xmlns="http://www.w3.org/2000/svg" width="84" height="75" viewBox="0 0 84 75"><path fill="#C60505" d="M51.572,50.94c-11.109,0.47 -17.086,-0.043 -17.924,-1.546c-0.846,-1.503 2.998,-2.271 11.52,-2.305c1.684,-0.035 2.75,-0.078 3.203,-0.146c6.771,-1.051 10.904,-2.187 12.406,-3.407V43.34l-2.203,-5.209v-0.793c0,-2.674 0.334,-4.006 1,-4.006c1.871,3.57 2.801,6.37 2.801,8.402v0.402c0,4.637 -2.33,7.309 -7.002,8.01C54.186,50.461 52.922,50.727 51.572,50.94z" id="path_0"/><path fill="#C60505" d="M57.85,54.518c1.238,0 2.766,0.871 4.602,2.605v0.4c-1.135,2.938 -1.938,4.406 -2.398,4.406c-2.271,-0.871 -3.672,-1.742 -4.201,-2.604v-0.197C55.852,57.721 56.518,56.191 57.85,54.518z" id="path_1"/><path fill="#07198C" d="M47.738,50.189c0.684,1.221 1.059,1.938 1.127,2.151l0.094,1.63c-0.016,2.887 -0.4,4.877 -1.168,5.979c-0.77,1.102 -1.742,1.656 -2.93,1.674c-2.57,0 -5.234,-2.066 -8.01,-6.199c-0.479,-0.82 -0.947,-1.889 -1.4,-3.203h-1.998c-0.453,0 -0.881,-0.025 -1.299,-0.076v-5.73c0.615,0.137 1.248,0.196 1.896,0.196h0.803c1.102,-4.269 2.971,-7.472 5.602,-9.606c1.367,-1.067 2.639,-1.597 3.809,-1.597c1.801,0 2.869,1.333 3.201,4.005c0.529,2.682 -0.068,5.474 -1.801,8.377L47.738,50.189L47.738,50.189zM38.857,52.017c1.367,2.407 3.365,3.739 6.004,4.005c1.332,-0.12 2.203,-0.582 2.604,-1.4c-0.119,-1.614 -1.049,-2.596 -2.799,-2.938c-1.76,-0.341 -3.16,-0.461 -4.219,-0.341C39.387,51.461 38.857,51.683 38.857,52.017L38.857,52.017zM36.852,45.816c-0.145,0.444 0.051,0.648 0.605,0.598c2.537,0 5.064,-1.135 7.602,-3.398v-0.205c-0.564,-1.332 -1.299,-1.998 -2.195,-1.998C40.873,40.557 38.875,42.23 36.852,45.816z" id="path_2"/><path fill="#000000" d="M32.428,52.118c-3.885,0.231 -6.713,-1.562 -8.479,-5.38c-0.855,-1.417 -1.648,-10.973 -2.4,-28.666v-0.4c0.496,-2.938 1.23,-4.406 2.195,-4.406l1.008,-0.197c1.229,0 3.1,0.402 5.602,1.195v0.402c-0.137,0.4 -0.539,0.605 -1.205,0.605H25.75c-0.699,0 -1.365,0.393 -2.006,1.195c0.623,15.363 1.527,24.261 2.732,26.693c1.195,2.435 3.186,3.52 5.951,3.254V52.118z" id="path_3"/></svg>