<svg id="vector" xmlns="http://www.w3.org/2000/svg" width="84" height="75" viewBox="0 0 84 75"><path fill="#0B2DA3" d="M58.41,43.278c-0.166,-10.042 -13.625,-19.737 -18.598,-19.737c-0.569,0 -0.931,0.333 -1.333,1.028c-0.89,1.583 -1.334,3.944 -1.334,5.402c0,0.903 0.069,1.474 0.444,1.875c-1.583,2.153 -3.249,6.557 -3.249,10.14c0,1.182 0.151,2.32 0.61,3.209c-2.611,0.777 -6.152,1.542 -9.042,2.195c-0.194,0.083 -0.319,0.208 -0.319,0.402c0,0.485 0.722,1.791 2.235,2.652c1.223,0.681 2.362,1.014 3.695,1.014c1.152,0 2.444,-0.249 3.792,-0.693c2.277,-0.778 4.181,-1.71 5.667,-2.723c2.68,0.444 5.222,1.334 7.625,2.027c1.694,0.487 3.944,0.903 4.765,0.903C56.133,50.974 58.41,48.043 58.41,43.278L58.41,43.278zM41.841,41.902c-2.153,-0.457 -4.736,-1.097 -5.028,-3.944c0,-0.609 1.014,-1.999 2.152,-3.056c0.973,-0.902 2.015,-1.582 2.584,-1.582c0.848,-0.042 4.527,2.958 4.527,5.569C46.076,39.945 42.563,41.57 41.841,41.902L41.841,41.902zM46.16,42.751c0.125,-0.152 2.042,-2.848 2.167,-7.084c4.222,2.318 7.389,6.557 7.917,9.695c0,0.125 -0.042,0.194 -0.153,0.194C53.327,45.557 50.341,43.89 46.16,42.751z" id="path_0"/></svg>