<svg id="vector" xmlns="http://www.w3.org/2000/svg" width="84" height="75" viewBox="0 0 84 75"><path fill="#F30606" d="M52.754,39.715c3.305,1.654 4.957,3.076 4.957,4.254c-1.572,3.115 -2.52,4.688 -2.832,4.727h-0.475c-2.418,-1.219 -3.92,-2.328 -4.484,-3.305C50.465,43.598 51.414,41.701 52.754,39.715z" id="path_0"/><path fill="#F30606" d="M39.873,33.459h2.721c2.873,-0.393 7.438,-1.461 13.695,-3.184v-0.242c-5.703,-2.52 -9.32,-3.779 -10.861,-3.779c-2.088,0 -3.498,1.18 -4.254,3.547l-0.705,0.475c-0.311,0 -0.475,-0.242 -0.475,-0.717c0.787,-4.715 2.914,-7.084 6.379,-7.084h1.18c1.461,0 6.418,1.654 14.883,4.959l6.381,0.473l0.463,0.715c-0.109,1.061 -1.059,3.105 -2.83,6.137h-0.707l-0.947,-0.24h-1.18c-12.283,3.627 -19.447,5.512 -21.494,5.672h-2.248V33.459z" id="path_1"/><path fill="#0F0096" d="M40.166,40.211c-0.211,0.02 -0.434,0.031 -0.645,0.031h-1.189c-1.844,0 -3.104,-0.15 -3.777,-0.475c-1.371,5.301 -2.975,8.545 -4.809,9.734c-1.834,1.188 -5.975,2.197 -12.424,3.023h-0.475c-1.42,-0.162 -2.127,-0.393 -2.127,-0.707c0,-0.473 1.18,-1.025 3.539,-1.65c9.291,-4.252 13.936,-7.328 13.936,-9.211c0,-0.787 -1.098,-2.6 -3.305,-5.432c-0.475,-0.797 -0.707,-1.814 -0.707,-3.074v-2.357c0,-1.189 0.232,-1.816 0.707,-1.896c2.045,3.135 5.512,4.879 10.389,5.252c0.303,0 0.596,0 0.887,-0.02V40.211z" id="path_2"/></svg>