<svg id="vector" xmlns="http://www.w3.org/2000/svg" width="84" height="75" viewBox="0 0 84 75"><path fill="#C60505" d="M49.677,13.674h0.499c1.698,0.372 3.524,1.369 5.479,2.993v0.246c-1.127,3.396 -2.112,5.224 -2.984,5.479c-2.537,-0.499 -4.438,-1.327 -5.723,-2.495V19.65C46.947,17.698 47.861,15.713 49.677,13.674z" id="path_0"/><path fill="#C60505" d="M57.358,13.674h0.245c1.697,0.257 3.609,1.412 5.724,3.483v0.255l-2.985,5.224c-3.98,-1.284 -5.978,-2.367 -5.978,-3.237C55.649,15.585 56.646,13.674 57.358,13.674z" id="path_1"/><path fill="#C60505" d="M47.175,41.238c6.52,0.063 10.161,-1.158 10.958,-3.675c0,-0.87 -0.829,-3.024 -2.495,-6.465l0.754,-6.468h0.488c2.166,3.729 3.238,7.465 3.238,11.192v2.239c0,1.497 -0.361,3.069 -1.072,4.714c-0.712,1.646 -1.815,3.038 -3.291,4.151c-1.487,1.127 -4.343,1.593 -8.58,1.402V41.238z" id="path_2"/><path fill="#0000FF" d="M47.483,48.352c-0.223,0.021 -0.457,0.031 -0.68,0.031h-1.252c-1.945,0 -3.271,-0.159 -3.982,-0.499c-1.444,5.585 -3.133,9.004 -5.064,10.256c-1.933,1.253 -6.296,2.315 -13.092,3.187h-0.498c-1.498,-0.171 -2.242,-0.414 -2.242,-0.743c0,-0.498 1.243,-1.082 3.728,-1.742c9.791,-4.479 14.684,-7.72 14.684,-9.703c0,-0.829 -1.156,-2.739 -3.481,-5.724c-0.499,-0.839 -0.743,-1.911 -0.743,-3.238v-2.484c0,-1.254 0.244,-1.911 0.743,-1.996c2.155,3.303 5.807,5.138 10.946,5.53c0.319,0 0.627,0 0.935,-0.02V48.352z" id="path_3"/><path fill="#0000FF" d="M31.192,18.215h0.244c1.698,0.254 3.609,1.411 5.723,3.483v0.254l-2.983,5.224c-3.981,-1.284 -5.979,-2.368 -5.979,-3.239C29.482,20.125 30.48,18.215 31.192,18.215z" id="path_4"/></svg>