<svg id="vector" xmlns="http://www.w3.org/2000/svg" width="84" height="75" viewBox="0 0 84 75"><path fill="#0000FF" d="M47.571,30.021c1.585,1.598 3.091,5.039 4.507,10.35l0.271,3.453c0,6.238 -3.103,10.484 -9.296,12.738l-1.857,0.26l-4.71,0.068l-4.574,-0.068l-0.26,-0.26v-0.273c0.566,-0.609 4.37,-2.467 11.402,-5.568c4.427,-2.514 6.815,-4.734 7.167,-6.637c-2.299,-4.902 -3.442,-7.734 -3.442,-8.492v-0.793C46.778,31.619 47.039,30.021 47.571,30.021z" id="path_0"/><path fill="#0000FD" d="M44.162,18.109c1.949,0.316 3.869,1.512 5.737,3.582v0.48c-1.195,3.193 -2.073,4.787 -2.634,4.787c-3.829,-1.316 -5.738,-2.359 -5.738,-3.113C41.527,22.375 42.406,20.457 44.162,18.109z" id="path_1"/></svg>