<svg id="vector" xmlns="http://www.w3.org/2000/svg" width="84" height="75" viewBox="0 0 84 75"><path fill="#000000" d="M48.436,28.862c1.83,1.845 3.569,5.82 5.204,11.954l0.314,3.988c0,7.207 -3.584,12.11 -10.737,14.715l-2.146,0.3l-5.441,0.079l-5.283,-0.079l-0.301,-0.3v-0.315c0.654,-0.706 5.049,-2.851 13.171,-6.434c5.114,-2.903 7.873,-5.468 8.278,-7.664c-2.655,-5.664 -3.976,-8.934 -3.976,-9.809v-0.917C47.52,30.707 47.821,28.862 48.436,28.862z" id="path_0"/><path fill="#000000" d="M44.497,15.102c2.252,0.367 4.469,1.746 6.627,4.139v0.555c-1.38,3.689 -2.395,5.529 -3.043,5.529c-4.422,-1.521 -6.626,-2.723 -6.626,-3.595C41.455,20.03 42.47,17.814 44.497,15.102z" id="path_1"/></svg>