<svg id="vector" xmlns="http://www.w3.org/2000/svg" width="84" height="75" viewBox="0 0 84 75"><path fill="#0000FF" d="M48.898,47.326h0.509c1.733,0.378 3.595,1.396 5.587,3.053v0.249c-1.147,3.466 -2.155,5.329 -3.042,5.589c-2.588,-0.511 -4.527,-1.355 -5.836,-2.546v-0.25C46.115,51.429 47.046,49.403 48.898,47.326z" id="path_0"/><path fill="#0000FF" d="M58.297,45.04h0.249c1.732,0.261 3.682,1.441 5.836,3.552v0.262l-3.043,5.325c-4.061,-1.31 -6.096,-2.413 -6.096,-3.302C56.554,46.99 57.572,45.04 58.297,45.04z" id="path_1"/><path fill="#0000FF" d="M46.646,35.718c6.649,0.064 10.363,-1.18 11.175,-3.746c0,-0.889 -0.846,-3.086 -2.545,-6.595l0.769,-6.594h0.499c2.208,3.8 3.302,7.612 3.302,11.412v2.285c0,1.526 -0.369,3.129 -1.094,4.808c-0.726,1.678 -1.851,3.097 -3.357,4.233c-1.516,1.147 -4.428,1.625 -8.749,1.43V35.718z" id="path_2"/><path fill="#000000" d="M46.96,42.973c-0.228,0.021 -0.466,0.033 -0.693,0.033h-1.277c-1.982,0 -3.335,-0.164 -4.061,-0.511c-1.472,5.696 -3.195,9.183 -5.165,10.461c-1.971,1.278 -6.421,2.36 -13.351,3.248h-0.509c-1.527,-0.172 -2.286,-0.421 -2.286,-0.758c0,-0.508 1.268,-1.104 3.801,-1.775c9.985,-4.57 14.976,-7.872 14.976,-9.897c0,-0.845 -1.18,-2.793 -3.551,-5.836c-0.51,-0.854 -0.759,-1.948 -0.759,-3.304v-2.533c0,-1.276 0.249,-1.949 0.759,-2.036c2.198,3.368 5.922,5.242 11.163,5.643c0.326,0 0.64,0 0.954,-0.021V42.973z" id="path_3"/></svg>