<svg id="vector" xmlns="http://www.w3.org/2000/svg" width="84" height="75" viewBox="0 0 84 75"><path fill="#9C27B0" d="M56.156,12.78c1.967,0.318 3.904,1.535 5.801,3.626v0.484c-1.217,3.214 -2.103,4.822 -2.659,4.822c-3.863,-1.32 -5.799,-2.371 -5.799,-3.134C53.499,17.086 54.384,15.16 56.156,12.78z" id="path_0"/><path fill="#9C27B0" d="M60.349,25.998h0.968c5.151,0.525 7.728,2.615 7.728,6.284v0.484c-1.03,3.995 -2.236,6.571 -3.627,7.726c-2.646,2.246 -6.675,3.38 -12.063,3.38H52.87c-3.06,0 -5.554,-0.32 -7.488,-0.97v2.41c0,4.555 -2.329,8.984 -7.008,13.29c-3.419,2.41 -6.716,3.617 -9.899,3.617H28c-4.955,0 -8.899,-2.741 -11.836,-8.212c-0.846,-2.533 -1.247,-5.275 -1.205,-8.21c1.246,-5.79 3.183,-9.9 5.789,-12.312l1.216,-0.72h0.722v0.235c0,0.608 -1.288,2.619 -3.864,6.038c-0.968,1.328 -1.451,2.853 -1.451,4.585v1.214c0,1.927 1.451,4.503 4.347,7.728c2.463,1.441 5.274,2.173 8.458,2.173c5.665,0 10.096,-2.256 13.279,-6.769c0.156,-1.123 0.318,-2.246 0.475,-3.378c0,-0.682 -1.123,-2.771 -3.379,-6.275v-5.551c0.245,-0.444 0.482,-0.608 0.731,-0.484c1.966,2.369 4.224,3.822 6.758,4.348h0.483C51.622,29.541 55.559,25.998 60.349,25.998L60.349,25.998zM51.417,36.63l3.378,0.484c4.792,0 8.737,-0.97 11.839,-2.905V33.97c-1.453,-1.451 -3.226,-2.171 -5.317,-2.171h-0.968C56.487,31.799 53.509,33.404 51.417,36.63z" id="path_1"/></svg>