<svg id="vector" xmlns="http://www.w3.org/2000/svg" width="84" height="75" viewBox="0 0 84 75"><path fill="#009688" d="M45.13,44.94h0.088c3.511,-0.155 5.931,-1.848 7.256,-5.1c0,-0.453 0.299,-0.831 0.909,-1.141h0.454c0.3,0 0.455,0.233 0.455,0.688l-0.232,1.354c1.288,2.273 2.651,3.406 4.084,3.406h1.133c1.965,0 3.482,-1.965 4.536,-5.892h0.233c0.221,0.028 0.6,0.938 1.132,2.718c1.287,1.132 2.563,1.81 3.851,2.041c1.51,0 2.273,-0.909 2.273,-2.719c0.146,-2.873 0.444,-4.314 0.898,-4.314c0.611,1.287 0.912,2.873 0.912,4.76c0,5.603 -1.366,8.399 -4.084,8.399c-2.119,0 -3.851,-1.064 -5.216,-3.185h-0.454c-0.939,3.028 -2.458,4.539 -4.537,4.539h-0.224c-1.847,0 -3.966,-1.432 -6.346,-4.307c-2.004,3.473 -4.277,5.215 -6.803,5.215H45.13V44.94z" id="path_0"/><path fill="#E91E63" d="M44.906,51.317c-2.194,0.02 -4.005,-1.104 -5.446,-3.368h-0.223c-1.063,3.774 -2.651,6.425 -4.761,7.935c-2.989,2.872 -6.24,4.305 -9.753,4.305H23.36c-4.005,0 -7.557,-2.263 -10.654,-6.801c-1.209,-2.08 -1.818,-4.499 -1.818,-7.258c0,-3.888 1.965,-7.816 5.902,-11.783c2.051,-1.307 2.66,-1.23 1.811,0.221c-3.475,4.839 -5.216,8.168 -5.216,9.978c0,4.69 3.474,7.788 10.43,9.298h1.819c3.889,0 7.74,-1.965 11.562,-5.894c0.397,-1.248 0.475,-2.612 0.224,-4.083c-0.756,-3.213 -1.888,-11.378 -3.397,-24.487l1.354,-4.539c0.213,-0.039 0.436,-0.039 0.688,0c0.416,0 1.172,5.748 2.265,17.233c0.754,6.046 1.664,9.83 2.719,11.339c0.93,1.025 2.215,1.499 3.859,1.442V51.317z" id="path_1"/></svg>