<svg id="vector" xmlns="http://www.w3.org/2000/svg" width="84" height="75" viewBox="0 0 84 75"><path fill="#000000" d="M36.467,13.849H37c0.592,0.904 1.775,3.896 3.539,8.967l-1.625,6.798l0.811,13.049l-0.545,2.182h0.268c3.225,-3.445 7.1,-5.175 11.623,-5.175h0.279c4.66,0 7.387,2.181 8.154,6.531c0,6.346 -2.541,10.694 -7.611,13.05c0,0.672 -6.055,1.31 -18.152,1.901l-9.244,-0.812v-0.824c0,-0.72 2.818,-1.716 8.434,-2.98l3.803,-8.699V44.02l-1.9,-23.653C34.832,19.37 35.377,17.201 36.467,13.849L36.467,13.849zM36.732,55.444c9.699,-1.091 15.74,-2.181 18.143,-3.26l1.914,-1.368c-1.869,-2.715 -4.582,-4.071 -8.166,-4.071h-2.646c-2.713,0 -5.613,2.355 -8.699,7.063L36.732,55.444z" id="path_0"/></svg>