<svg id="vector" xmlns="http://www.w3.org/2000/svg" width="84" height="75" viewBox="0 0 84 75"><path fill="#3F51B5" d="M48.969,42.223c0.453,0 0.928,0 1.418,0l1.084,-0.547c0.688,-1.408 1.707,-3.143 3.041,-5.209L52.344,19.73c0.723,-3.477 1.371,-5.211 1.955,-5.211l1.086,4.127c1.01,1.408 1.52,2.717 1.52,3.912c-0.723,1.334 -1.084,2.43 -1.084,3.254v0.436l0.436,6.955v1.094c2.244,-1.893 5.248,-2.922 9.012,-3.098c4.348,0.611 6.518,2.059 6.518,4.34v1.52c-0.723,3.227 -1.809,5.693 -3.254,7.389c-4.387,2.467 -9.197,3.783 -14.455,3.969h-2.391c-0.955,0 -1.863,0 -2.717,0V42.223L48.969,42.223zM53.205,42.334h0.436c6.629,-0.186 11.813,-1.361 15.539,-3.531c-1.697,-1.744 -2.93,-2.605 -3.689,-2.605h-1.742C58.787,36.373 55.273,38.422 53.205,42.334z" id="path_0"/><path fill="#8BC34A" d="M28.654,52.654c0.742,0 2.477,0.871 5.211,2.605c0,1.084 -0.871,2.826 -2.605,5.219c-3.477,-1.121 -5.221,-2.141 -5.221,-3.041C26.133,56.621 27.004,55.027 28.654,52.654z" id="path_1"/><path fill="#8BC34A" d="M49.951,48.443c-2.773,-0.221 -5.285,-2.168 -7.529,-5.84c-3.328,4.051 -8.111,6.082 -14.342,6.082h-1.734c-6.74,0 -11.377,-2.893 -13.906,-8.688l-0.223,-1.309v-1.955c0,-2.096 0.945,-4.488 2.826,-7.166h0.213l0.438,0.436v1.084l-1.086,3.477c0,3.801 3.189,6.408 9.559,7.826l3.914,0.213c6.777,0 12.137,-2.318 16.086,-6.953c0.213,0 0.426,0.287 0.648,0.871l-0.223,1.521c0.742,2.734 2.531,4.105 5.359,4.125V48.443z" id="path_2"/></svg>