<svg id="vector" xmlns="http://www.w3.org/2000/svg" width="75" height="67" viewBox="0 0 83 73"><path fill="#8BC34A" d="M48.995,30.286v-0.168c0.564,-0.788 1.371,-1.857 2.43,-3.223h0.115c0.857,0.922 1.928,1.756 3.223,2.498c0.035,0.035 0.052,0.075 0.052,0.133l-2.343,3.171c-0.023,0.012 -0.063,0.018 -0.122,0.018c-0.069,0 -0.184,-0.029 -0.351,-0.085C51.188,32.26 50.187,31.478 48.995,30.286z" id="path_0"/><path fill="#8BC34A" d="M56.364,52.033c-0.271,0.214 -0.622,0.422 -1.049,0.622c-2.233,1.118 -4.496,1.906 -6.774,2.379c-3.137,0.661 -6.385,0.994 -9.734,0.994c-3.869,0 -6.983,-0.644 -9.343,-1.928c-3.028,-1.622 -4.577,-4.201 -4.645,-7.73c0,-1.124 0.242,-2.355 0.731,-3.686c0.483,-1.335 1.145,-2.313 1.974,-2.94c0.167,-0.139 0.288,-0.156 0.357,-0.053c0.098,0.099 0.115,0.186 0.045,0.255c-0.736,1.313 -1.191,2.613 -1.346,3.892c-0.145,2.388 1.738,4.478 5.646,6.273c2.568,0.695 5.349,1.049 8.354,1.049c3.954,0 8.093,-0.56 12.411,-1.67c0.662,-0.167 2.015,-0.697 4.047,-1.596c-0.167,-0.483 -0.564,-1.156 -1.18,-2.02c-1.249,0.962 -2.389,1.443 -3.425,1.443c-0.414,0 -0.823,-0.067 -1.232,-0.2c-0.943,-0.202 -1.801,-0.649 -2.579,-1.336c-0.776,-0.689 -1.249,-1.489 -1.416,-2.399c0.103,-1.417 0.253,-2.556 0.455,-3.419c0.622,-2.541 1.738,-4.169 3.355,-4.899c0.294,-0.069 0.61,-0.104 0.944,-0.104c1.934,0 3.385,0.927 4.352,2.781c0.351,0.696 0.674,1.354 0.978,1.974c0.6,1.617 0.893,3.344 0.893,5.192c0,2.066 -0.38,3.943 -1.145,5.624L56.364,52.033L56.364,52.033zM53.882,42.282c0.449,-0.099 0.639,-0.27 0.569,-0.507c-0.943,-1.18 -2.273,-1.704 -3.995,-1.565c-0.519,0.328 -0.76,0.639 -0.726,0.944C50.877,42.099 52.259,42.473 53.882,42.282z" id="path_1"/><path fill="#8BC34A" d="M46.001,24.575l1.048,-3.12l10.166,-4.466c0.138,-0.035 0.202,-0.018 0.202,0.052c0,0.034 -0.018,0.113 -0.052,0.252L56,20.529l-9.763,4.368c-0.126,0.011 -0.202,0.011 -0.236,0C45.956,24.829 45.956,24.726 46.001,24.575z" id="path_2"/><path fill="#8BC34A" d="M33.289,21.902c1.029,1.543 1.545,3.457 1.545,5.729c0,0.926 -0.161,2.094 -0.487,3.52c-0.424,1.787 -0.917,2.685 -1.488,2.685c-0.146,-0.202 -0.223,-0.402 -0.223,-0.612c0,-0.188 0.069,-0.501 0.202,-0.931c0.14,-0.438 0.209,-0.787 0.209,-1.051c0,-0.265 0,-0.55 0,-0.861c0,-0.613 -0.174,-1.552 -0.515,-2.818c-0.341,-1.265 -0.508,-2.219 -0.508,-2.858C32.023,23.6 32.447,22.661 33.289,21.902z" id="path_3"/></svg>