<svg id="vector" xmlns="http://www.w3.org/2000/svg" width="75" height="67" viewBox="0 0 83 73"><path fill="#E91E63" d="M35.438,29.174l1.047,-3.118l10.166,-4.468c0.138,-0.035 0.202,-0.018 0.202,0.052c0,0.035 -0.018,0.116 -0.052,0.253l-1.364,3.235l-9.763,4.37c-0.127,0.012 -0.201,0.012 -0.236,0C35.392,29.429 35.392,29.324 35.438,29.174z" id="path_0"/><path fill="#E91E63" d="M28.135,22.756c1.029,1.542 1.544,3.456 1.544,5.73c0,0.925 -0.161,2.093 -0.488,3.517c-0.424,1.789 -0.917,2.686 -1.488,2.686c-0.146,-0.202 -0.223,-0.403 -0.223,-0.613c0,-0.187 0.07,-0.499 0.203,-0.931c0.139,-0.438 0.208,-0.786 0.208,-1.051c0,-0.264 0,-0.549 0,-0.861c0,-0.613 -0.173,-1.552 -0.515,-2.816c-0.34,-1.266 -0.508,-2.218 -0.508,-2.857C26.869,24.452 27.292,23.513 28.135,22.756z" id="path_1"/><path fill="#E91E63" d="M52.893,39.699c0,1.371 -0.144,2.971 -0.144,4.343c0,2.97 0.288,4.341 -8.36,5.026c-4.612,0.457 -15.999,-0.686 -15.999,-0.686c-2.018,0.458 1.154,-0.228 -0.576,0.229c0,0 -0.145,0 -0.288,0.229c-1.297,0.457 -0.145,4.798 0.864,5.257c3.604,0.456 5.91,0.913 9.657,0.913c4.612,0 13.837,0 15.421,-5.713c1.297,-5.028 1.297,-8.228 1.153,-13.255c-0.145,-7.998 3.027,-7.998 0.577,-13.94c-1.297,-2.971 -0.433,-1.144 -0.865,-2.971l-0.576,-1.143C51.74,23.475 52.893,33.301 52.893,39.699z" id="path_2"/><path fill="#E91E63" d="M45.214,38.822c0,0.987 -0.29,1.635 -0.869,1.945h-0.745c-0.662,0 -1.669,0.077 -3.021,0.24c-1.352,0.16 -2.358,0.243 -3.02,0.243c-1.241,0 -2.146,-0.179 -2.725,-0.524c-0.151,-0.083 -0.213,-0.275 -0.186,-0.586c0.042,-0.297 0.145,-0.511 0.304,-0.628c0.214,-0.11 1.062,-0.062 2.524,0.139c0.848,0.109 1.683,0.166 2.489,0.166c1.482,0 2.786,-0.208 3.917,-0.629c0.055,-0.026 0.042,-0.069 -0.042,-0.123c-0.186,-0.188 -0.696,-0.283 -1.53,-0.283c-0.773,0 -1.497,0.014 -2.186,0.04c-0.994,-0.115 -1.532,-0.468 -1.614,-1.048c-0.083,-0.736 0.317,-1.386 1.193,-1.938c0.78,-0.503 1.552,-0.752 2.324,-0.752c0.552,0 0.869,0.174 0.944,0.511c0.028,0.241 -0.089,0.546 -0.357,0.904l-0.47,0.123c-0.269,-0.083 -0.559,-0.123 -0.869,-0.123c-0.71,0 -1.233,0.214 -1.572,0.626c0.228,0.215 0.697,0.324 1.414,0.324h1.738c0.186,-0.027 0.199,-0.04 0.042,-0.04C44.442,37.41 45.214,37.886 45.214,38.822z" id="path_3"/></svg>