<svg id="vector" xmlns="http://www.w3.org/2000/svg" width="75" height="67" viewBox="0 0 83 73"><path fill="#00BCD4" d="M46.287,49.998c-1.417,1.485 -2.828,2.457 -4.226,2.918c-1.399,0.46 -2.718,0.806 -3.955,1.031c-1.237,0.224 -2.452,0.391 -3.645,0.507c-0.356,0.034 -0.638,-0.018 -0.84,-0.156c0.167,-0.392 0.857,-0.875 2.072,-1.451c2.936,-1.415 6.351,-3.533 10.252,-6.355c0.317,-0.293 0.656,-0.591 1.019,-0.903c0.369,-0.311 0.554,-0.649 0.554,-1.018c0,-0.104 -0.053,-0.237 -0.145,-0.397c-0.098,-0.162 -0.212,-0.243 -0.346,-0.243c-0.103,0 -0.293,0.14 -0.569,0.421c-0.271,0.283 -0.495,0.402 -0.662,0.368c-0.834,0.42 -1.692,0.628 -2.578,0.628c-0.73,0 -1.394,-0.145 -1.975,-0.426c-0.87,-0.099 -1.659,-0.742 -2.378,-1.924c-0.293,-0.661 -0.438,-1.336 -0.438,-2.02c0,-0.611 0.145,-1.399 0.438,-2.379c0.299,-1.237 0.489,-2.065 0.553,-2.48c0.655,-1.214 1.485,-1.922 2.498,-2.124c0.34,-0.092 0.674,-0.139 1.013,-0.139c0.945,0 1.83,0.271 2.666,0.813c1.704,1.358 2.705,3.142 2.999,5.347C49.021,44.523 48.255,47.851 46.287,49.998z" id="path_0"/><path fill="#00BCD4" d="M39.205,30.818l-0.909,0.102l-0.184,-0.287c3.126,-1.629 5.538,-3.184 7.235,-4.65c-0.576,-0.208 -0.961,-0.415 -1.162,-0.629c-0.588,-0.402 -0.881,-1.104 -0.881,-2.106c-0.058,-1.956 0.639,-3.407 2.096,-4.352c0.472,-0.368 1.231,-0.455 2.28,-0.253c1.109,0.598 1.669,1.324 1.669,2.176c0.305,3.206 -1.809,6.103 -6.328,8.688C41.602,30.12 40.334,30.558 39.205,30.818L39.205,30.818zM47.57,23.534c0.38,-0.137 0.569,-0.42 0.569,-0.846c0,-0.673 -0.288,-1.162 -0.857,-1.467c-0.61,-0.249 -1.283,-0.261 -2.026,-0.047c-0.484,0.368 -0.736,0.69 -0.76,0.962c-0.029,0.356 0.201,0.806 0.697,1.346c0.438,0.202 0.788,0.307 1.059,0.307C46.568,23.864 47.006,23.783 47.57,23.534z" id="path_1"/></svg>