<svg id="vector" xmlns="http://www.w3.org/2000/svg" width="75" height="67" viewBox="0 0 83 73"><path fill="#E49C0A" d="M34.46,21.332v-0.167c0.565,-0.789 1.371,-1.859 2.43,-3.224h0.115c0.857,0.921 1.929,1.756 3.225,2.498c0.034,0.035 0.051,0.075 0.051,0.133l-2.343,3.172c-0.023,0.011 -0.063,0.017 -0.12,0.017c-0.069,0 -0.184,-0.029 -0.352,-0.085C36.654,23.307 35.653,22.523 34.46,21.332z" id="path_0"/><path fill="#E49C0A" d="M32.763,41.928l2.193,-2.256c-1.094,-0.552 -2.014,-1.221 -2.769,-2.009c-0.898,-0.887 -1.348,-2.031 -1.348,-3.425c0,-1.278 0.449,-3.005 1.348,-5.175c1.307,-2.025 3.039,-2.987 5.209,-2.883c3.017,0.449 5.175,1.524 6.476,3.229c-0.11,0.179 -0.271,0.271 -0.489,0.271c-0.155,0 -0.368,-0.075 -0.639,-0.22c-0.356,-0.189 -0.587,-0.304 -0.691,-0.339c-0.823,-0.282 -1.704,-0.42 -2.648,-0.42c-2.204,0 -4.259,0.668 -6.17,2.008c-0.386,0.547 -0.575,0.858 -0.575,0.927c0,0.087 0.035,0.185 0.103,0.288c0.685,1.146 1.872,2.159 3.558,3.034c1.133,0.472 2.135,0.708 2.999,0.708c0.679,0 1.272,-0.122 1.791,-0.368c0.73,-0.069 1.83,-0.478 3.303,-1.232l3.425,-1.755c0.236,0.034 0.368,0.051 0.404,0.051c-0.069,0.496 -0.259,1.083 -0.571,1.768c-0.409,0.857 -0.65,1.438 -0.726,1.755c-1.105,0.663 -3.108,1.676 -6.021,3.04c-2.59,1.204 -4.467,2.28 -5.635,3.236c-1.537,1.462 -2.706,2.878 -3.489,4.254c-0.294,0.696 -0.588,1.796 -0.881,3.304c-0.346,3.103 0.932,5.55 3.845,7.339c2.027,1.278 4.49,2.142 7.392,2.579c2.573,0.294 5.394,0.299 8.462,0.017c0.494,0 1.226,-0.081 2.187,-0.235c0.962,-0.162 1.641,-0.237 2.05,-0.237c0.248,0 0.478,0.035 0.691,0.098c0,0 0.028,0.145 0.08,0.426c-1.687,1.289 -3.932,2.648 -6.747,4.065c-2.36,0.27 -4.306,0.403 -5.848,0.403c-4.565,0 -7.985,-1.072 -10.264,-3.213c-2.273,-2.141 -3.471,-5.123 -3.58,-8.945c0,-1.249 0.114,-2.579 0.351,-3.996C29.868,46.228 30.938,44.202 32.763,41.928z" id="path_1"/><path fill="#E49C0A" d="M32.003,16.433l1.047,-3.12l10.166,-4.467c0.138,-0.035 0.202,-0.018 0.202,0.052c0,0.035 -0.018,0.115 -0.052,0.253l-1.364,3.236l-9.763,4.369c-0.127,0.011 -0.201,0.011 -0.236,0C31.957,16.687 31.957,16.583 32.003,16.433z" id="path_2"/><path fill="#E49C0A" d="M28.638,15.284c1.029,1.544 1.543,3.456 1.543,5.73c0,0.925 -0.16,2.093 -0.486,3.52c-0.424,1.787 -0.918,2.684 -1.489,2.684c-0.146,-0.202 -0.222,-0.404 -0.222,-0.612c0,-0.188 0.07,-0.501 0.202,-0.931c0.139,-0.439 0.208,-0.787 0.208,-1.05c0,-0.265 0,-0.55 0,-0.864c0,-0.611 -0.173,-1.55 -0.515,-2.816c-0.34,-1.266 -0.507,-2.218 -0.507,-2.858C27.373,16.98 27.797,16.041 28.638,15.284z" id="path_3"/></svg>