<svg id="vector" xmlns="http://www.w3.org/2000/svg" width="75" height="67" viewBox="0 0 83 73"><path fill="#188518" d="M26.119,33.003c0.271,-0.18 0.409,-0.145 0.409,0.104c-0.305,0.662 -0.749,1.67 -1.335,3.016c-0.898,2.304 -1.347,4.248 -1.347,5.838c0,1.939 0.639,3.495 1.922,4.651c2.28,2.112 4.94,3.172 7.979,3.172c1.215,0 2.418,-0.185 3.61,-0.559c3.292,-1.077 5.699,-2.59 7.218,-4.547c0.449,-0.628 0.674,-1.336 0.674,-2.124c0,-0.909 -0.438,-2.291 -1.318,-4.146c-0.754,-0.627 -1.128,-1.618 -1.128,-2.965c0,-0.305 0.017,-0.76 0.051,-1.371c0.035,-0.603 0.052,-1.046 0.052,-1.322c0,-0.271 0.069,-0.674 0.219,-1.204c0.167,-0.035 0.265,0.029 0.299,0.196c0.034,0.16 0.069,0.259 0.104,0.293c0.766,1.215 2.026,2.009 3.794,2.378c2.215,0.132 3.868,-0.559 4.955,-2.073c0.329,-1.283 0.68,-2.29 1.049,-3.022c0.414,0.069 0.622,0.301 0.622,0.692c-0.029,0.655 -0.046,0.961 -0.046,0.933c0.438,1.652 1.231,2.653 2.377,3.017c1.181,0.333 2.136,0.224 2.867,-0.34c0.068,-0.133 0.028,-0.277 -0.122,-0.427c-0.144,-0.154 -0.201,-0.265 -0.167,-0.334l0.219,-4.484c0.248,-0.155 0.403,-0.219 0.472,-0.184c0.719,0.685 1.14,1.669 1.266,2.952c0.012,3.765 -0.547,6.225 -1.669,7.37c-0.847,0.304 -1.601,0.454 -2.263,0.454c-0.852,0 -1.629,-0.254 -2.326,-0.759c-0.921,-0.698 -1.468,-1.786 -1.634,-3.271c-0.329,0.301 -0.611,0.737 -0.847,1.295c-0.333,0.687 -0.575,1.13 -0.725,1.336c-1.169,1.215 -2.493,1.82 -3.978,1.82c-0.386,0 -0.76,-0.059 -1.128,-0.168c-0.035,0.345 -0.098,1.562 -0.189,3.645c-0.029,1.548 -0.271,2.733 -0.709,3.558c-1.18,2.763 -2.93,4.812 -5.261,6.136c-2.326,1.329 -4.738,1.992 -7.236,1.992c-3.719,0 -6.568,-1.404 -8.549,-4.209c-1.41,-2.025 -2.112,-4.385 -2.112,-7.085c0,-1.722 0.432,-3.735 1.29,-6.057c0.345,-0.719 0.726,-1.485 1.146,-2.309C25.037,34.072 25.537,33.44 26.119,33.003z" id="path_0"/><path fill="#188518" d="M46.998,26.055l1.047,-3.12l10.166,-4.467c0.138,-0.035 0.202,-0.018 0.202,0.051c0,0.035 -0.018,0.115 -0.052,0.255l-1.364,3.233l-9.763,4.37c-0.127,0.011 -0.201,0.011 -0.236,0C46.951,26.308 46.951,26.204 46.998,26.055z" id="path_1"/><path fill="#188518" d="M33.289,21.902c1.029,1.544 1.545,3.457 1.545,5.729c0,0.926 -0.161,2.095 -0.487,3.52c-0.424,1.788 -0.917,2.685 -1.488,2.685c-0.146,-0.202 -0.223,-0.403 -0.223,-0.612c0,-0.188 0.069,-0.5 0.202,-0.932c0.14,-0.438 0.209,-0.786 0.209,-1.051c0,-0.264 0,-0.549 0,-0.861c0,-0.613 -0.173,-1.552 -0.515,-2.817c-0.341,-1.265 -0.508,-2.218 -0.508,-2.857C32.023,23.6 32.447,22.66 33.289,21.902z" id="path_2"/></svg>