<svg id="vector" xmlns="http://www.w3.org/2000/svg" width="75" height="67" viewBox="0 0 83 73"><path fill="#CDDC39" d="M32.15,41.421c0.104,0 0.248,-0.093 0.438,-0.277c0.196,-0.19 0.374,-0.259 0.541,-0.213c0.058,0.391 -0.098,0.846 -0.455,1.365c-0.507,0.742 -0.794,1.191 -0.857,1.353c-1.083,1.727 -1.595,3.437 -1.537,5.123c0.08,2.014 1.019,3.816 2.815,5.404c1.802,1.59 3.73,2.442 5.791,2.557c0.518,0 1.031,0 1.537,0c2.527,-0.092 5.06,-0.76 7.593,-2.003c0.535,-0.42 1.094,-0.829 1.669,-1.232c0.639,-0.518 1.024,-1.082 1.146,-1.687c-0.155,-3.407 -0.576,-7.789 -1.249,-13.147c-0.852,-7.306 -1.375,-11.842 -1.566,-13.604c0.087,-1.168 0.34,-2.849 0.76,-5.042h0.149c0.259,1.001 0.731,2.469 1.416,4.398c0.127,0.397 0.547,1.163 1.261,2.308c0.628,0.944 0.956,1.721 0.99,2.331c0.012,0.449 -0.104,0.91 -0.346,1.382c0,0.333 -0.109,0.719 -0.322,1.145c-0.357,0.639 -0.552,1.014 -0.587,1.111c0.086,1.451 0.305,4.306 0.639,8.565c0.27,3.306 0.443,5.884 0.512,7.737c0.045,2.464 -0.686,4.783 -2.182,6.965c-1.502,2.176 -3.402,3.725 -5.71,4.634c-0.5,0.323 -1.871,0.708 -4.093,1.146c-4.104,0.247 -7.443,-1.335 -10.016,-4.755c-1.025,-1.779 -1.577,-3.805 -1.658,-6.09c-0.104,-3.27 0.691,-6.027 2.377,-8.261L32.15,41.421z" id="path_0"/><path fill="#CDDC39" d="M42.765,18.837l1.048,-3.12l10.166,-4.468c0.138,-0.034 0.201,-0.017 0.201,0.052c0,0.035 -0.017,0.116 -0.051,0.253l-1.364,3.235l-9.763,4.37c-0.127,0.012 -0.202,0.012 -0.236,0C42.72,19.091 42.72,18.988 42.765,18.837z" id="path_1"/><path fill="#CDDC39" d="M34.714,20.169c1.029,1.544 1.544,3.457 1.544,5.73c0,0.925 -0.16,2.094 -0.486,3.52c-0.424,1.788 -0.918,2.684 -1.489,2.684c-0.146,-0.201 -0.222,-0.403 -0.222,-0.612c0,-0.188 0.069,-0.5 0.202,-0.931c0.139,-0.438 0.208,-0.786 0.208,-1.05c0,-0.265 0,-0.55 0,-0.862c0,-0.612 -0.173,-1.551 -0.515,-2.817c-0.34,-1.266 -0.507,-2.219 -0.507,-2.857C33.449,21.866 33.873,20.928 34.714,20.169z" id="path_2"/></svg>