<svg id="vector" xmlns="http://www.w3.org/2000/svg" width="75" height="67" viewBox="0 0 83 73"><path fill="#3F51B5" d="M41.911,42.989c-0.034,1.087 -0.207,2.072 -0.522,2.953c-0.358,0.557 -0.623,0.84 -0.79,0.84c-0.184,0.012 -0.265,-0.277 -0.253,-0.857c-0.281,-6.311 -0.679,-11.731 -1.18,-16.274c-0.237,-2.238 -0.559,-4.075 -0.962,-5.515c-0.173,-0.551 -0.264,-1.063 -0.287,-1.536c-0.012,-0.875 0.12,-1.889 0.402,-3.034l0.795,-2.935c0.098,-0.093 0.207,-0.14 0.315,-0.14c0.139,0 0.237,0.191 0.288,0.577c0.047,0.521 0.109,0.84 0.196,0.948c0.086,0.109 0.391,1.014 0.921,2.723c0.334,1.112 0.748,1.987 1.231,2.631c0.029,0.215 0.047,0.421 0.047,0.623c0.022,0.426 -0.093,1.012 -0.346,1.76c-0.253,0.75 -0.42,1.269 -0.513,1.562l-0.121,0.507L41.911,42.989z" id="path_0"/><path fill="#3F51B5" d="M35.81,56.143l1.047,-3.086l10.168,-4.501c0.137,-0.012 0.2,0.006 0.2,0.051c0,0.034 -0.018,0.121 -0.053,0.271l-1.363,3.234l-9.763,4.387c-0.128,0.012 -0.202,0.012 -0.236,0C35.764,56.43 35.764,56.315 35.81,56.143z" id="path_1"/></svg>