<svg id="vector" xmlns="http://www.w3.org/2000/svg" width="75" height="67" viewBox="0 0 83 73"><path fill="#007896" d="M36.789,24.446V24.28c0.564,-0.788 1.37,-1.859 2.429,-3.224h0.115c0.858,0.921 1.929,1.756 3.224,2.498c0.035,0.035 0.052,0.075 0.052,0.133l-2.343,3.172c-0.023,0.011 -0.064,0.017 -0.122,0.017c-0.068,0 -0.184,-0.029 -0.351,-0.086C38.982,26.421 37.98,25.638 36.789,24.446z" id="path_0"/><path fill="#007896" d="M28.165,45.257c1.134,-4.714 3.477,-8.151 7.029,-10.31c0.42,-0.333 1.065,-0.788 1.94,-1.364c-0.346,-0.19 -0.824,-0.299 -1.434,-0.333c-0.604,-0.035 -1.197,-0.063 -1.768,-0.087c-0.868,0.023 -1.739,0.035 -2.619,0.035c-0.944,0.155 -1.595,0.627 -1.951,1.417c-0.185,0.661 -0.484,1.099 -0.916,1.3c0.035,-1.45 0.563,-3.137 1.588,-5.061c0.72,-1.363 2.09,-2.043 4.116,-2.043c0.3,0 0.813,0.012 1.531,0.035c0.72,0.023 1.255,0.035 1.606,0.035c3.609,0.403 6.763,0.38 9.475,-0.069c0.225,0.023 0.558,-0.006 1.001,-0.086c0.449,-0.081 0.766,-0.121 0.956,-0.121c0.426,0 0.776,0.115 1.047,0.34c-0.172,0.31 -0.38,0.8 -0.627,1.462c-0.178,0.454 -0.368,0.92 -0.564,1.41c-0.195,0.49 -0.477,0.863 -0.851,1.123c-1.215,0.121 -3.794,0.801 -7.744,2.027c-2.831,1.203 -5.059,2.654 -6.677,4.351c-2.279,2.234 -3.512,4.681 -3.69,7.335c-0.281,1.507 0.127,2.958 1.227,4.351c0.87,1.25 2.008,2.285 3.425,3.103c2.889,1.813 6.959,2.717 12.209,2.717c1.566,0 4.001,-0.339 7.305,-1.013c0.133,0.035 0.334,0.006 0.605,-0.091c0.27,-0.099 0.448,-0.145 0.541,-0.145c0.178,0 0.288,0.167 0.323,0.507c0.063,0.201 -0.162,0.506 -0.673,0.91c-2.637,1.479 -4.6,2.469 -5.907,2.976c-2.279,0.91 -4.461,1.324 -6.545,1.243c-3.067,-0.133 -5.728,-0.697 -7.973,-1.687c-2.061,-0.875 -3.494,-2.038 -4.3,-3.489c-1.375,-2.344 -2.078,-4.462 -2.112,-6.36c0,-0.357 0.029,-1.411 0.087,-3.155C27.883,46.236 27.993,45.815 28.165,45.257z" id="path_1"/><path fill="#007896" d="M34.521,19.387l1.047,-3.121L45.734,11.8c0.138,-0.035 0.202,-0.017 0.202,0.051c0,0.035 -0.018,0.116 -0.052,0.254l-1.364,3.234l-9.763,4.37c-0.127,0.012 -0.201,0.012 -0.236,0C34.475,19.64 34.475,19.537 34.521,19.387z" id="path_2"/><path fill="#007896" d="M28.638,15.284c1.029,1.544 1.543,3.456 1.543,5.73c0,0.925 -0.16,2.093 -0.486,3.52c-0.424,1.787 -0.917,2.684 -1.488,2.684c-0.146,-0.202 -0.223,-0.404 -0.223,-0.612c0,-0.188 0.07,-0.501 0.202,-0.931c0.139,-0.439 0.208,-0.787 0.208,-1.05c0,-0.265 0,-0.55 0,-0.864c0,-0.611 -0.173,-1.55 -0.514,-2.816c-0.341,-1.266 -0.508,-2.218 -0.508,-2.858C27.372,16.98 27.796,16.041 28.638,15.284z" id="path_3"/></svg>