<svg id="vector" xmlns="http://www.w3.org/2000/svg" width="75" height="67" viewBox="0 0 83 73"><path fill="#14F453" d="M46.571,30.85v-0.167c0.564,-0.788 1.37,-1.859 2.429,-3.223h0.115c0.219,0.235 0.817,0.719 1.808,1.45c0.472,0.351 0.95,0.702 1.433,1.064c0.541,-0.753 1.267,-1.709 2.176,-2.866h0.115c0.857,0.909 1.928,1.732 3.224,2.476c0.035,0.022 0.052,0.075 0.052,0.155l-2.36,3.154c-0.012,0.022 -0.046,0.028 -0.104,0.028c-0.08,0 -0.201,-0.023 -0.374,-0.081c-0.794,-0.374 -1.79,-1.156 -2.982,-2.359v-0.017l-2.072,2.779c-0.012,0.022 -0.046,0.034 -0.104,0.034c-0.081,0 -0.202,-0.028 -0.369,-0.086C48.759,32.823 47.763,32.041 46.571,30.85z" id="path_0"/><path fill="#14F453" d="M48.88,25.991v-0.167c0.564,-0.789 1.376,-1.858 2.429,-3.218h0.121c0.84,0.922 1.917,1.744 3.218,2.475c0.023,0.035 0.035,0.087 0.035,0.156l-2.343,3.166c-0.024,0.012 -0.058,0.018 -0.104,0.018c-0.075,0 -0.196,-0.028 -0.351,-0.08C51.073,27.966 50.072,27.184 48.88,25.991z" id="path_1"/><path fill="#14F453" d="M26.119,38.57c0.271,-0.18 0.409,-0.145 0.409,0.104c-0.305,0.661 -0.748,1.669 -1.335,3.015c-0.898,2.304 -1.347,4.25 -1.347,5.838c0,1.939 0.639,3.495 1.923,4.651c2.28,2.112 4.939,3.172 7.979,3.172c1.215,0 2.417,-0.185 3.609,-0.559c3.293,-1.075 5.699,-2.591 7.219,-4.547c0.449,-0.628 0.674,-1.336 0.674,-2.124c0,-0.909 -0.438,-2.291 -1.318,-4.146c-0.754,-0.627 -1.128,-1.617 -1.128,-2.965c0,-0.304 0.017,-0.759 0.052,-1.37c0.035,-0.604 0.052,-1.047 0.052,-1.324c0,-0.27 0.069,-0.673 0.219,-1.202c0.167,-0.035 0.265,0.028 0.299,0.196c0.035,0.16 0.069,0.258 0.104,0.293c0.766,1.214 2.026,2.008 3.793,2.376c2.216,0.134 3.868,-0.557 4.956,-2.071c0.328,-1.283 0.68,-2.291 1.048,-3.022c0.414,0.068 0.622,0.3 0.622,0.691c-0.029,0.656 -0.046,0.961 -0.046,0.933c0.438,1.652 1.231,2.653 2.377,3.018c1.18,0.333 2.136,0.224 2.867,-0.342c0.069,-0.131 0.028,-0.275 -0.122,-0.426c-0.144,-0.154 -0.201,-0.264 -0.167,-0.333l0.219,-4.484c0.247,-0.156 0.403,-0.22 0.472,-0.185c0.719,0.685 1.14,1.669 1.266,2.952c0.012,3.766 -0.547,6.225 -1.669,7.369c-0.847,0.305 -1.601,0.455 -2.263,0.455c-0.852,0 -1.629,-0.252 -2.326,-0.759c-0.921,-0.698 -1.468,-1.785 -1.635,-3.271c-0.328,0.301 -0.61,0.738 -0.846,1.296c-0.334,0.686 -0.576,1.129 -0.725,1.335c-1.168,1.215 -2.493,1.819 -3.978,1.819c-0.386,0 -0.76,-0.058 -1.128,-0.167c-0.035,0.345 -0.098,1.561 -0.189,3.645c-0.029,1.548 -0.271,2.735 -0.708,3.558c-1.18,2.763 -2.93,4.812 -5.261,6.135c-2.326,1.33 -4.738,1.993 -7.236,1.993c-3.719,0 -6.568,-1.405 -8.548,-4.207c-1.41,-2.028 -2.112,-4.387 -2.112,-7.087c0,-1.722 0.432,-3.735 1.29,-6.057c0.345,-0.719 0.725,-1.485 1.145,-2.309C25.037,39.64 25.537,39.008 26.119,38.57z" id="path_2"/><path fill="#14F453" d="M46.744,20.488l1.048,-3.12l10.166,-4.467c0.138,-0.035 0.202,-0.018 0.202,0.051c0,0.035 -0.018,0.115 -0.052,0.255l-1.364,3.233l-9.763,4.37c-0.126,0.012 -0.201,0.012 -0.236,0C46.698,20.741 46.698,20.638 46.744,20.488z" id="path_3"/><path fill="#14F453" d="M33.289,21.902c1.029,1.544 1.544,3.457 1.544,5.729c0,0.926 -0.16,2.095 -0.487,3.52c-0.424,1.788 -0.917,2.685 -1.488,2.685c-0.146,-0.202 -0.223,-0.403 -0.223,-0.612c0,-0.188 0.07,-0.5 0.202,-0.932c0.139,-0.438 0.208,-0.786 0.208,-1.051c0,-0.264 0,-0.549 0,-0.861c0,-0.613 -0.173,-1.552 -0.514,-2.817c-0.341,-1.265 -0.508,-2.218 -0.508,-2.857C32.023,23.6 32.447,22.66 33.289,21.902z" id="path_4"/></svg>