<svg id="vector" xmlns="http://www.w3.org/2000/svg" width="75" height="67" viewBox="0 0 83 73"><path fill="#3F51B5" d="M34.862,53.628c-0.944,0.035 -1.762,0.132 -2.447,0.288c-0.155,-0.122 -0.236,-0.294 -0.236,-0.507c2.551,-0.967 5.803,-2.527 9.746,-4.68c-0.034,0.058 0.628,-0.333 1.975,-1.18c0.955,-0.737 1.618,-1.428 1.992,-2.073c0,-0.84 -0.127,-1.762 -0.374,-2.757c-0.393,-0.875 -0.899,-1.802 -1.514,-2.781l0.518,-4.951h0.288c0.989,2.257 1.588,3.887 1.789,4.882c0.473,1.899 0.674,3.58 0.605,5.055c-0.012,0.921 -0.19,2.002 -0.542,3.251c-0.76,2.378 -2.377,3.943 -4.834,4.697C40.658,53.231 38.333,53.484 34.862,53.628z" id="path_0"/><path fill="#3F51B5" d="M39.405,26.688l1.048,-3.12l10.166,-4.467c0.138,-0.034 0.202,-0.017 0.202,0.052c0,0.035 -0.018,0.116 -0.053,0.253l-1.364,3.235l-9.764,4.369c-0.126,0.012 -0.201,0.012 -0.235,0C39.359,26.941 39.359,26.838 39.405,26.688z" id="path_1"/><path fill="#3F51B5" d="M33.872,22.245c1.029,1.542 1.544,3.456 1.544,5.73c0,0.925 -0.16,2.093 -0.486,3.519c-0.424,1.788 -0.919,2.685 -1.488,2.685c-0.146,-0.202 -0.223,-0.404 -0.223,-0.612c0,-0.189 0.069,-0.501 0.201,-0.932c0.14,-0.438 0.209,-0.787 0.209,-1.051c0,-0.264 0,-0.549 0,-0.862c0,-0.612 -0.174,-1.551 -0.514,-2.816c-0.342,-1.266 -0.508,-2.218 -0.508,-2.858C32.607,23.941 33.031,23.002 33.872,22.245z" id="path_2"/></svg>