<svg id="vector" xmlns="http://www.w3.org/2000/svg" width="75" height="67" viewBox="0 0 83 73"><path fill="#2196F3" d="M38.042,39.676v-0.167c0.564,-0.789 1.37,-1.859 2.429,-3.224h0.115c0.858,0.921 1.929,1.756 3.224,2.499c0.035,0.035 0.052,0.075 0.052,0.132l-2.343,3.171c-0.023,0.012 -0.063,0.018 -0.12,0.018c-0.069,0 -0.184,-0.029 -0.352,-0.086C40.236,41.65 39.234,40.868 38.042,39.676z" id="path_0"/><path fill="#2196F3" d="M45.411,52.409c-1.45,0.778 -3.034,1.163 -4.755,1.163c-1.525,0 -2.895,-0.299 -4.099,-0.892c-2.101,-1.048 -3.713,-2.59 -4.835,-4.635c-1.128,-2.049 -1.618,-4.259 -1.486,-6.642c0.236,-3.489 1.307,-6.137 3.219,-7.945c0.201,-0.236 0.391,-0.306 0.558,-0.207c0.178,0.069 0.271,0.265 0.271,0.593c0,0.369 -0.191,0.783 -0.576,1.232c-0.529,0.696 -0.806,1.065 -0.84,1.094c-0.99,1.756 -1.416,3.568 -1.284,5.433c0.72,2.079 1.952,3.789 3.702,5.124c1.75,1.341 3.725,2.01 5.93,2.01c2.014,0 4.018,-0.577 6.01,-1.727c1.997,-1.152 3.448,-2.585 4.363,-4.306c0.028,-0.167 0.045,-0.352 0.045,-0.542c0,-0.507 -0.207,-1.082 -0.622,-1.732c-0.368,-0.53 -0.736,-1.054 -1.094,-1.565c-1.318,-2.384 -1.923,-4.301 -1.825,-5.751c0.058,-0.72 0.236,-1.44 0.542,-2.17c0.069,-0.139 0.184,-0.236 0.351,-0.306c0.07,0.236 0.847,2.015 2.333,5.343c0.978,2.135 1.468,4.041 1.468,5.728c0,2.182 -0.743,4.283 -2.229,6.303C49.209,49.841 47.494,51.31 45.411,52.409z" id="path_1"/><path fill="#2196F3" d="M40.31,27.032l1.047,-3.12l10.166,-4.468c0.138,-0.035 0.202,-0.017 0.202,0.052c0,0.035 -0.018,0.115 -0.052,0.253l-1.364,3.235l-9.763,4.37c-0.127,0.011 -0.201,0.011 -0.236,0C40.264,27.285 40.264,27.181 40.31,27.032z" id="path_2"/><path fill="#2196F3" d="M32.34,19.846c1.029,1.544 1.544,3.457 1.544,5.73c0,0.925 -0.161,2.093 -0.487,3.519c-0.424,1.787 -0.917,2.684 -1.488,2.684c-0.146,-0.201 -0.223,-0.403 -0.223,-0.612c0,-0.188 0.07,-0.501 0.203,-0.932c0.139,-0.438 0.208,-0.785 0.208,-1.049c0,-0.265 0,-0.55 0,-0.863c0,-0.613 -0.173,-1.551 -0.515,-2.817c-0.34,-1.265 -0.508,-2.218 -0.508,-2.858C31.074,21.543 31.498,20.604 32.34,19.846z" id="path_3"/></svg>