<svg id="vector" xmlns="http://www.w3.org/2000/svg" width="75" height="67" viewBox="0 0 83 73"><path fill="#F44336" d="M51.615,47.368c0.229,-0.133 0.295,0.075 0.2,0.617c-1.265,2.965 -3.203,5.036 -5.815,6.206l-9.607,4.816c-0.409,-0.113 -0.484,-0.445 -0.228,-1.006c1.283,-2.471 2.156,-3.936 2.623,-4.4L51.615,47.368z" id="path_0"/><path fill="#F44336" d="M53.433,37.816c-0.121,-7.301 -9.907,-14.352 -13.524,-14.352c-0.413,0 -0.677,0.243 -0.97,0.748c-0.646,1.15 -0.97,2.868 -0.97,3.928c0,0.657 0.053,1.072 0.324,1.365c-1.15,1.564 -2.363,4.766 -2.363,7.372c0,0.857 0.112,1.687 0.445,2.332c-1.9,0.566 -4.476,1.122 -6.576,1.596c-0.141,0.062 -0.231,0.152 -0.231,0.293c0,0.354 0.524,1.303 1.625,1.93c0.891,0.495 1.717,0.738 2.687,0.738c0.839,0 1.777,-0.184 2.758,-0.505c1.656,-0.567 3.04,-1.243 4.121,-1.979c1.949,0.321 3.797,0.969 5.543,1.474c1.234,0.354 2.87,0.656 3.466,0.656C51.775,43.412 53.433,41.282 53.433,37.816L53.433,37.816zM41.385,36.818c-1.567,-0.334 -3.444,-0.798 -3.656,-2.87c0,-0.443 0.735,-1.453 1.564,-2.221c0.707,-0.657 1.465,-1.152 1.878,-1.152c0.616,-0.031 3.293,2.151 3.293,4.05C44.464,35.394 41.908,36.575 41.385,36.818L41.385,36.818zM44.524,37.433c0.09,-0.109 1.483,-2.069 1.576,-5.149c3.07,1.687 5.372,4.766 5.755,7.048c0,0.091 -0.028,0.143 -0.109,0.143C49.735,39.474 47.563,38.262 44.524,37.433z" id="path_1"/></svg>